<?xml version="1.0" encoding="UTF-8" standalone="no"?>
<!DOCTYPE svg PUBLIC "-//W3C//DTD SVG 1.1//EN" "http://www.w3.org/Graphics/SVG/1.1/DTD/svg11.dtd">
<svg width="100%" height="100%" viewBox="0 0 128 128" version="1.1" xmlns="http://www.w3.org/2000/svg" xmlns:xlink="http://www.w3.org/1999/xlink" xml:space="preserve" xmlns:serif="http://www.serif.com/" style="fill-rule:evenodd;clip-rule:evenodd;stroke-linejoin:round;stroke-miterlimit:2;">
    <path d="M60.63,29.75L42.83,42.71L31.15,52.52C31.15,52.52 25.92,56.08 24.54,56.42C23.19,56.76 19.89,46.47 17.27,45.83C11.14,44.33 4.53,42.47 4.68,46.57C4.75,48.62 11.95,48.8 13.3,49.78C14.66,50.76 17.39,61.51 21.57,63.56C25.75,65.61 38.11,58.57 38.11,58.57L38.49,60.9C38.49,60.9 28.13,66.41 27.35,69.37C26.58,72.33 27.42,88.43 28.53,90.08C29.3,91.23 29.18,91.74 28.91,92.49C28.64,93.23 28.88,96.67 29.5,99.39C30.32,103.01 32.24,105.65 33.43,105.28C37.1,104.13 32.96,95.6 34.37,92.03C35.14,90.08 34.51,85.11 34.23,81.45C33.95,77.79 33.31,76.35 33.84,74.57C34.36,72.79 39.09,69.54 41.98,68.41C44.87,67.28 46.15,74.27 46.15,74.27C46.15,74.27 42.72,72.78 40.08,76.83C38.86,78.7 40.13,82.26 43.86,88.28C47.6,94.31 55.25,103.13 55.59,104.58C55.93,106.03 54.99,108.27 55.48,109.57C55.9,110.7 62.24,125.74 65.84,124.36C70.04,122.74 61.13,111.54 61.58,107.74C61.78,106.01 62.93,104.39 62.26,102.29C61.28,99.16 48.7,80.04 48.7,80.04L86.6,57.12C86.6,57.12 98.44,74.68 101.57,76.33C104.71,77.98 113.18,82.52 115.12,83.48C117.06,84.44 122.5,86.88 123.11,85.47C124.1,83.18 120.72,80.27 116.97,77.92C113.22,75.56 107.57,72.21 107.18,70.91C106.28,67.94 104.51,61.91 102.48,58.46C100.45,55.01 91.5,45.66 91.5,45.66L84.82,38.35C84.82,38.35 90.01,41.02 92.08,41.24C94.15,41.46 98.76,41.5 100.53,41.58C102.29,41.66 105.08,42.68 105.96,41.53C107.22,39.87 101.54,36.85 98.6,36.81C95.66,36.77 92.35,36.24 91.46,36.13C90.58,36.02 75.85,23.73 71.79,27.59C70.36,28.95 71.45,34.35 71.45,34.35L70.06,32.35C70.06,32.35 70.4,20.31 68.08,17.02C65.76,13.73 55.22,13.37 53.84,11.52C52.43,9.66 55,3.62 50.99,4.13C48.66,4.43 48.27,14.2 49.79,15.76C51.31,17.32 59.52,18.05 61.74,21.64C61.9,26.11 60.63,29.75 60.63,29.75Z" style="fill:rgb(114,128,55);fill-rule:nonzero;"/>
    <path d="M36.34,41.48L51.75,25.23C51.75,25.23 52.28,22.95 48.96,22.03C46.92,21.47 44.12,22.09 44.12,22.09C44.12,22.09 40.42,20.21 38.21,19.99C36,19.78 33.17,20.61 33.17,20.61C33.17,20.61 29.87,17.65 27.69,18.02C25.51,18.39 26.2,20.57 25.35,21.26C24.49,21.95 23.08,21.49 22.35,23.42C21.62,25.35 25.37,29.84 25.37,29.84C25.37,29.84 24.07,36.63 26.29,40.55C28.44,44.36 30.68,46.96 30.68,46.96L36.34,41.48Z" style="fill:rgb(114,128,55);fill-rule:nonzero;"/>
    <g transform="matrix(0.2846,-0.9587,0.9587,0.2846,4.0366,55.3081)">
        <ellipse cx="39.07" cy="24.95" rx="2.54" ry="2.73" style="fill:rgb(47,47,47);"/>
    </g>
    <g transform="matrix(0.3258,-0.9455,0.9455,0.3258,-8.9972,51.6212)">
        <ellipse cx="31.69" cy="32.12" rx="2.81" ry="2.91" style="fill:rgb(47,47,47);"/>
    </g>
    <path d="M26.61,7C25.45,8.44 26.36,9.93 29.92,12.46C33.19,14.79 34.49,15.45 34.49,15.45C34.49,15.45 34.63,17.74 34.92,18.86C35.6,21.48 37.29,21.78 39.31,21.71C42.37,21.6 39.82,19 39.29,17.13C38.86,15.6 39.07,13.51 38.14,12.71C36.4,11.23 35.53,10.33 35.53,10.33C35.53,10.33 38.45,5.29 35.85,4.08C33.74,3.1 31.8,7.71 31.8,7.71C31.8,7.71 27.79,5.54 26.61,7Z" style="fill:rgb(78,87,37);fill-rule:nonzero;"/>
    <path d="M7.53,25.35C7.1,27.19 10.65,28.15 11.03,28.68C11.03,28.68 7.4,31.6 8.58,33.42C10.09,35.75 14.12,31.88 14.38,31.83C14.65,31.78 15.97,35.16 17.56,35.54C19.15,35.92 22.63,32.34 24.45,33.42C25.44,34.01 25.41,34.56 26.94,34.32C28.47,34.08 28.11,30.1 24.98,28.78C21.96,27.51 18.69,30.18 18.69,30.18C18.69,30.18 17.98,28.06 15.76,26.17C13.72,24.44 8.25,22.24 7.53,25.35Z" style="fill:rgb(78,87,37);fill-rule:nonzero;"/>
    <path d="M66.87,29.68C66.87,29.68 66.45,23.86 61.12,22.59C55.79,21.32 49.71,21.69 41.87,28.04C34.88,33.7 24.67,43.3 29.68,52.29C31.52,55.59 34.45,55.93 34.45,55.93C34.45,55.93 32.74,59.8 35.59,65.58C38.03,70.54 46.93,87.41 66.97,93.93C87.87,100.73 98.91,87.26 100.78,82.4C101.42,80.75 106.26,70.22 99.5,53.65C92.76,37.12 79.93,32.03 73.76,29.88C69.33,28.32 66.87,29.68 66.87,29.68Z" style="fill:rgb(2,171,71);fill-rule:nonzero;"/>
    <path d="M68.35,28.4C66.04,27.39 65.84,30.03 64.85,31.76C63.38,34.33 59.96,39.95 56.12,43.34C51.57,47.36 44.99,50.71 38.53,53.21C35.86,54.25 32.17,54.44 32.95,57.02C33.38,58.45 35.17,58.21 40.14,56.48C45.02,54.78 52.39,51.16 54.83,49.43C57.87,47.27 60.68,44.67 63.07,41.86C65.42,39.09 67.97,34.6 68.87,31.56C69.34,29.86 69.64,28.97 68.35,28.4Z" style="fill:rgb(78,87,37);fill-rule:nonzero;"/>
    <path d="M102.51,74.74C102.51,74.74 96.86,84.9 96.22,84.31C95.74,83.86 92.46,76.31 89.66,71.47C86.64,66.26 83.57,61.42 80.52,57.44C77.35,53.31 70.02,46.01 66.14,43.58C63.05,41.65 61.09,40.44 61.09,40.44L58.64,43.83C58.64,43.83 62.53,46.35 64.03,47.6C66.56,49.7 72.85,55.77 75.74,59.09C79.21,63.07 84.46,72.2 85.58,74.48C89.02,81.44 91.46,87.15 91.28,88.47C91.11,89.8 87.07,92.14 84.56,93.08C83.24,93.58 76.39,95.21 76.39,95.21C76.39,95.21 75.07,95.85 77.81,95.95C83.76,96.18 89,96.42 95.86,91.12C102.53,86 103.98,72.91 102.51,74.74Z" style="fill:rgb(78,87,37);fill-rule:nonzero;"/>
</svg>
