<?xml version="1.0" encoding="UTF-8" standalone="no"?><!DOCTYPE svg PUBLIC "-//W3C//DTD SVG 1.1//EN" "http://www.w3.org/Graphics/SVG/1.1/DTD/svg11.dtd"><svg width="128px" height="128px" version="1.1" xmlns="http://www.w3.org/2000/svg" xmlns:xlink="http://www.w3.org/1999/xlink" xml:space="preserve" xmlns:serif="http://www.serif.com/" style="fill-rule:evenodd;clip-rule:evenodd;stroke-linejoin:round;stroke-miterlimit:2;"><g><clipPath id="_clip1"><rect x="0" y="0" width="128" height="128"/></clipPath><g clip-path="url(#_clip1)"><path d="M139.81,101.86C134.11,100.78 112.04,100.78 106.34,101.86C88.3,105.29 75.08,113.25 75.08,130.22L75.08,188.05L123.08,188.06L171.08,188.05L171.08,130.22C171.08,113.25 157.85,105.29 139.81,101.86Z" style="fill:#00bfa5;fill-rule:nonzero;"/><path d="M122.5,114.35C116.42,114.35 112,109.42 112,103.34L112,93L133,93L133,103.34C133,109.42 128.58,114.35 122.5,114.35Z" style="fill:#99674f;fill-rule:nonzero;"/><g><path d="M156.79,55.97C156.79,55.97 162.88,57.03 162.88,63.59C162.88,69.38 158.44,71.66 153.99,71.66L153.99,55.97L156.79,55.97ZM90.15,55.97C90.15,55.97 83.88,57.41 83.88,64.28C83.88,70.6 88.73,73.09 93.58,73.09L93.58,55.97L90.15,55.97Z" style="fill:#99674f;fill-rule:nonzero;"/></g><path d="M123.57,13C97.32,13 90.44,33.35 90.44,61.94C90.44,91.59 109.5,99.25 123.57,99.25C137.43,99.25 156.7,91.8 156.7,61.94C156.7,33.35 149.82,13 123.57,13Z" style="fill:#bf8f68;fill-rule:nonzero;"/><path d="M133.06,81.69L114.08,81.69C112.99,81.69 112.52,82.42 113.24,83.52C114.25,85.05 117.99,88 123.56,88C129.14,88 132.88,85.05 133.88,83.52C134.61,82.42 134.15,81.69 133.06,81.69Z" style="fill:#4c3734;fill-rule:nonzero;"/><path d="M128.15,74.22C126.54,74.68 124.86,74.9 123.57,74.9C122.28,74.9 120.6,74.68 118.99,74.22C118.3,74.02 118.03,74.68 118.28,75.11C118.79,76.01 120.85,77.83 123.58,77.83C126.3,77.83 128.37,76.01 128.88,75.11C129.11,74.68 128.84,74.02 128.15,74.22Z" style="fill:#99674f;fill-rule:nonzero;"/><path d="M112.77,63.82C112.77,66.74 110.81,69.11 108.39,69.11C105.97,69.11 104,66.74 104,63.82C104,60.89 105.97,58.52 108.39,58.52C110.82,58.52 112.77,60.89 112.77,63.82M134.36,63.82C134.36,66.74 136.32,69.11 138.75,69.11C141.17,69.11 143.13,66.74 143.13,63.82C143.13,60.89 141.16,58.52 138.75,58.52C136.32,58.52 134.36,60.89 134.36,63.82" style="fill:#444;fill-rule:nonzero;"/><path d="M85.99,58.52C85.99,58.52 85.98,50.08 85.98,38.59C85.98,26.58 94.79,9.15 124.25,9.15C144.81,9.15 152.5,18.09 152.5,23.51C152.5,23.51 160.14,24.88 160.89,34.66C161.42,41.53 160.74,58.05 160.74,58.05C160.74,58.05 159.91,57.31 158.97,56.88C158.47,56.65 157.97,56.55 157.97,56.55L156.59,65.98L146.36,46.18C146.301,46.06 146.172,45.992 146.04,46.01L141.9,46.5C129.957,47.913 117.892,47.957 105.94,46.63L100.35,46.01C100.217,46 100.091,46.071 100.03,46.19L90.59,65.91L89.16,56.31C89.16,56.31 88.18,56.7 87.29,57.39C86.44,58.05 85.99,58.52 85.99,58.52Z" style="fill:#6d4c41;fill-rule:nonzero;"/></g></g><g><clipPath id="_clip2"><rect x="0" y="0" width="128" height="128"/></clipPath><g clip-path="url(#_clip2)"><path d="M-11.66,101.86C-5.96,100.78 16.11,100.78 21.81,101.86C39.85,105.29 53.07,113.25 53.07,130.22L53.07,188.05L5.07,188.06L-42.93,188.05L-42.93,130.22C-42.92,113.25 -29.7,105.29 -11.66,101.86Z" style="fill:#00bfa5;fill-rule:nonzero;"/><path d="M5.5,114.35C11.58,114.35 16,109.42 16,103.34L16,93L-5,93L-5,103.34C-5,109.42 -0.58,114.35 5.5,114.35Z" style="fill:#dba689;fill-rule:nonzero;"/><g><path d="M-28.64,55.97C-28.64,55.97 -34.73,57.03 -34.73,63.59C-34.73,69.38 -30.29,71.66 -25.84,71.66L-25.84,55.97L-28.64,55.97ZM38,55.97C38,55.97 44.27,57.41 44.27,64.28C44.27,70.6 39.42,73.09 34.57,73.09L34.57,55.97L38,55.97Z" style="fill:#dba689;fill-rule:nonzero;"/></g><path d="M4.58,13C30.83,13 37.71,33.35 37.71,61.94C37.71,91.59 18.65,99.25 4.58,99.25C-9.28,99.25 -28.55,91.8 -28.55,61.94C-28.54,33.35 -21.67,13 4.58,13Z" style="fill:#fadcbc;fill-rule:nonzero;"/><path d="M-4.91,81.69L14.07,81.69C15.16,81.69 15.62,82.42 14.91,83.52C13.9,85.05 10.16,88 4.58,88C-1,88 -4.74,85.05 -5.74,83.52C-6.46,82.42 -6,81.69 -4.91,81.69Z" style="fill:#4c3734;fill-rule:nonzero;"/><path d="M0,74.22C1.61,74.68 3.29,74.9 4.58,74.9C5.87,74.9 7.55,74.68 9.16,74.22C9.85,74.02 10.12,74.68 9.87,75.11C9.36,76.01 7.3,77.83 4.57,77.83C1.85,77.83 -0.22,76.01 -0.73,75.11C-0.96,74.68 -0.69,74.02 0,74.22Z" style="fill:#dba689;fill-rule:nonzero;"/><path d="M15.38,63.82C15.38,66.74 17.34,69.11 19.76,69.11C22.18,69.11 24.15,66.74 24.15,63.82C24.15,60.89 22.18,58.52 19.76,58.52C17.33,58.52 15.38,60.89 15.38,63.82M-6.21,63.82C-6.21,66.74 -8.17,69.11 -10.6,69.11C-13.02,69.11 -14.98,66.74 -14.98,63.82C-14.98,60.89 -13.01,58.52 -10.6,58.52C-8.17,58.52 -6.21,60.89 -6.21,63.82" style="fill:#444;fill-rule:nonzero;"/><path d="M42.16,58.52C42.16,58.52 42.17,50.08 42.17,38.59C42.17,26.58 33.36,9.15 3.9,9.15C-16.66,9.15 -24.35,18.09 -24.35,23.51C-24.35,23.51 -31.99,24.88 -32.74,34.66C-33.27,41.53 -32.59,58.05 -32.59,58.05C-32.59,58.05 -31.76,57.31 -30.82,56.88C-30.32,56.65 -29.82,56.55 -29.82,56.55L-28.44,65.98L-18.21,46.18C-18.15,46.06 -18.02,45.99 -17.89,46.01L-13.75,46.5C-1.81,47.91 10.26,47.96 22.21,46.63L27.8,46.01C27.93,46 28.06,46.07 28.12,46.19L37.56,65.91L38.99,56.31C38.99,56.31 39.97,56.7 40.86,57.39C41.71,58.05 42.16,58.52 42.16,58.52Z" style="fill:#212121;fill-rule:nonzero;"/></g></g><g><path d="M33.36,40.87C39.43,49.91 50.25,59.29 58.05,66.56C58.88,67.34 59.71,68.17 60.55,68.96C61.45,69.79 62.54,71.7 63.99,71.79C65.45,71.7 66.53,69.8 67.43,68.96C68.28,68.17 69.1,67.34 69.94,66.56C77.74,59.28 88.56,49.9 94.62,40.87C96.44,38.17 97.77,35.27 98.32,32.06C98.86,28.84 98.83,24.21 97.52,21.15C94.41,13.9 89.12,9.75 81.85,9.79C81.58,9.8 81.32,9.8 81.04,9.8C78.19,9.85 75.43,10.49 72.81,11.57C70.01,12.75 68.08,14.51 65.6,16.09C64.66,16.69 63.32,16.68 62.38,16.09C59.89,14.51 57.97,12.74 55.17,11.57C52.55,10.48 49.79,9.84 46.94,9.8C46.68,9.79 46.4,9.79 46.13,9.78C38.85,9.74 33.56,13.89 30.46,21.14C29.14,24.21 29.12,28.83 29.66,32.05C30.21,35.27 31.56,38.17 33.36,40.87Z" style="fill:#f06292;fill-rule:nonzero;"/></g></svg>