<?xml version="1.0" encoding="utf-8"?>
<!-- Generator: Adobe Illustrator 16.0.0, SVG Export Plug-In . SVG Version: 6.00 Build 0)  -->
<!DOCTYPE svg PUBLIC "-//W3C//DTD SVG 1.1//EN" "http://www.w3.org/Graphics/SVG/1.1/DTD/svg11.dtd">
<svg version="1.1" id="レイヤー_1" xmlns="http://www.w3.org/2000/svg" xmlns:xlink="http://www.w3.org/1999/xlink" x="0px"
	 y="0px" width="128px" height="128px" viewBox="0 0 128 128" enable-background="new 0 0 128 128" xml:space="preserve">
<g>
	<path fill="#FFFFFF" d="M96.87,76.9c-2.28,0.97-3.87,2.96-5.37,4.83c-6.82,8.5-15.81,13.58-26.68,14.76
		c-0.61,0.07-1.22,0.06-1.83,0.01c-1.45-0.11-3.03-0.39-4.26-1.2c-0.91-0.6-2.08-1.64-1.32-2.83c0.42-0.64,1.34-0.83,1.92-1.28
		c0.69-0.54,1.23-2.2-0.16-2.27c-0.78-0.04-1.6,0.41-2.37,0.52c-1.1,0.17-2.29,0.18-3.39-0.01c-0.7-0.12-1.44-0.41-2.06-0.75
		c-1.17-0.63-2.18-1.72-2.62-2.98c-0.36-1.01-0.16-2.63,0.89-3.23c0.89-0.5,2.02-0.74,2.65-1.6c0.48-0.63,0.7-1.42,0-2.02
		c-0.46-0.4-1.57-0.33-2.12-0.35c-2.58-0.12-5.51-1.06-7.08-3.23c-1.07-1.49-2.17-7.19,3.5-8.57c3.02-0.73,2.88-2.99,0.55-3.31
		c-3.46-0.72-6.36-0.69-9.08-0.86c-7.12-0.45-15.93-0.58-22.68-0.94c-4.91-0.26-7.03-3.08-6.8-5.87c0.2-2.34,1.11-3.83,3.16-4.66
		c1.66-0.67,4.76-1.02,9.01-1.12c4.02-0.09,24.59-0.57,34.12-0.74c3.33-0.06,6.65-0.35,9.93-0.87c0.98-0.16,5.53-0.89,3.28-2.85
		c-1.37-1.19-5.43-0.25-11.07-1.35c-4.56-0.88-8.03-3.07-8.61-4.47c-0.83-2.03-0.48-4.8,1.22-6.32c3.21-2.88,7.91,0.21,11.39,0.72
		c4.02,0.59,8.14,0.51,12.1,1.58c4.14,1.11,7.61,3.86,10.36,7.08c2.72,3.19,5.38,6.7,9.2,8.62c2.62,1.32,5.78,2.33,8.74,1.8
		c0.12,2.89,0.22,6.27,0.26,10.08c0.03,5.68-0.04,9.48-0.17,12.31C99.86,75.77,98.13,76.36,96.87,76.9z"/>
	<path fill="#FFFFFF" d="M114.2,63.95c-0.1,12.82-0.22,19.92-0.22,19.92s-5.05-0.12-5.96-0.53c-0.68-0.32-0.86-0.76-0.85-1.61
		c0-0.31,0.3-9.46,0.27-18.03c-0.02-10.23-0.71-18.08-0.71-18.08s-0.14-1.43,0.82-1.77c1.37-0.48,6.08-0.59,6.08-0.59
		S114.29,51.06,114.2,63.95z"/>
	<path fill="#D7598B" d="M120.05,32.24c-1.66,0.08-5.82,0.09-6.83,1.11c-0.57,0.58-0.79,3.72-0.79,3.72s-5.93,0.51-9.63,1.38
		c-2.58,0.62-2.2,3.48-2.2,3.48s0.11,0.94,0.26,2.67c-1.62-0.28-4.68-1.01-7.64-3.03c-3.75-2.56-6.14-8.45-14.62-11.98
		c-4.66-1.94-10.67-2.33-12.28-2.64c-1.17-0.22-6.21-0.97-7.43-1.39c-4.98-1.74-11.28-1.59-15.76,1.82
		c-2.08,1.6-3.53,5.85-3.38,8.96c0.15,3.31,2.48,6.15,2.48,6.15s-24.62-0.63-32.09,1.39c-1.99,0.53-4.44,1.66-6.03,4.02
		c-1.8,2.68-3.04,5.42-2.72,10.55c0.23,3.47,2.5,5.98,3.43,6.89c2.24,2.2,4.87,3.69,11.28,4.41c3.65,0.42,8.01,0.48,12.3,0.7
		c3.58,0.17,7.47,0.54,7.47,0.54s-0.33,0.73-0.13,2.4c0.65,5.77,6.3,8.58,6.3,8.58s-1.43,3.96,0.42,6.98
		c3.46,5.65,8.55,5.88,8.55,5.88s0.8,3.49,3.03,5.65c3.17,3.08,7.96,3.02,9.81,3.04c3.08,0.03,6.2-0.6,9.13-1.42
		c1.54-0.42,3.06-0.95,4.55-1.55c6.72-2.7,12.53-7.71,17.48-12.9c1.18-1.25,2.68-2.64,4.38-3.13c0.36-0.1,0.85-0.17,1.38-0.27
		c0,0.03-0.01,0.07-0.01,0.1c-0.08,2.11,0.31,3.23,1.86,4.06c2.07,1.1,10.56,1.04,10.56,1.04s0.02,1.9,0.25,3.2
		c0.18,1.07,0.98,2.56,2.72,3.13c2.91,0.97,11.86,0.91,11.86,0.91v-64.5C125.54,32.19,121.92,32.14,120.05,32.24z M96.87,76.9
		c-2.28,0.97-3.87,2.96-5.37,4.83c-6.82,8.5-15.81,13.58-26.68,14.76c-0.61,0.07-1.22,0.06-1.83,0.01c-1.45-0.11-3.03-0.39-4.26-1.2
		c-0.91-0.6-2.08-1.64-1.32-2.83c0.42-0.64,1.34-0.83,1.92-1.28c0.69-0.54,1.23-2.2-0.16-2.27c-0.78-0.04-1.6,0.41-2.37,0.52
		c-1.1,0.17-2.29,0.18-3.39-0.01c-0.7-0.12-1.44-0.41-2.06-0.75c-1.17-0.63-2.18-1.72-2.62-2.98c-0.36-1.01-0.16-2.63,0.89-3.23
		c0.89-0.5,2.02-0.74,2.65-1.6c0.48-0.63,0.7-1.42,0-2.02c-0.46-0.4-1.57-0.33-2.12-0.35c-2.58-0.12-5.51-1.06-7.08-3.23
		c-1.07-1.49-2.17-7.19,3.5-8.57c3.02-0.73,2.88-2.99,0.55-3.31c-3.46-0.72-6.36-0.69-9.08-0.86c-7.12-0.45-15.93-0.58-22.68-0.94
		c-4.91-0.26-7.03-3.08-6.8-5.87c0.2-2.34,1.11-3.83,3.16-4.66c1.66-0.67,4.76-1.02,9.01-1.12c4.02-0.09,24.59-0.57,34.12-0.74
		c3.33-0.06,6.65-0.35,9.93-0.87c0.98-0.16,5.53-0.89,3.28-2.85c-1.37-1.19-5.43-0.25-11.07-1.35c-4.56-0.88-8.03-3.07-8.61-4.47
		c-0.83-2.03-0.48-4.8,1.22-6.32c3.21-2.88,7.91,0.21,11.39,0.72c4.02,0.59,8.14,0.51,12.1,1.58c4.14,1.11,7.61,3.86,10.36,7.08
		c2.72,3.19,5.38,6.7,9.2,8.62c2.62,1.32,5.78,2.33,8.74,1.8c0.12,2.89,0.22,6.27,0.26,10.08c0.03,5.68-0.04,9.48-0.17,12.31
		C99.86,75.77,98.13,76.36,96.87,76.9z M114.2,63.95c-0.1,12.82-0.22,19.92-0.22,19.92s-5.05-0.12-5.96-0.53
		c-0.68-0.32-0.86-0.76-0.85-1.61c0-0.31,0.3-9.46,0.27-18.03c-0.02-10.23-0.71-18.08-0.71-18.08s-0.14-1.43,0.82-1.77
		c1.37-0.48,6.08-0.59,6.08-0.59S114.29,51.06,114.2,63.95z"/>
</g>
</svg>
