<svg width="128" height="128" style="enable-background:new 0 0 128 128;" xmlns="http://www.w3.org/2000/svg" xmlns:xlink="http://www.w3.org/1999/xlink">
  <g>
    <g>
      <defs>
        <path id="SVGID_1_" d="M125.76,64.91c2.32,2.99,2.04,6.61-0.68,8.03l-82.41,43.15c-3.62,1.88-8.38,0.33-10.54-3.45L1.46,59.07 c-1.79-3.13-0.4-6.8,3.03-8.17l79.49-31.67c2.66-1.05,6.41,0.15,8.39,2.7L125.76,64.91z"/>
      </defs>
      <use style="overflow:visible;fill:#FCC21B;" xlink:href="#SVGID_1_"/>
      <clipPath id="SVGID_2_">
        <use style="overflow:visible;" xlink:href="#SVGID_1_"/>
      </clipPath>
      <polygon points="106.86,35.82 8.43,79.41 -0.02,64.45 97.53,23.91 " style="clip-path:url(#SVGID_2_);fill:#2F2F2F;"/>
    </g>
    <path d="M119.26,64.62c1.14,1.5,0.98,3.3-0.4,3.99l-11.09,5.66c-1.43,0.73-3.54,0.05-4.68-1.51l-6.51-8.93 c-1.09-1.51-0.82-3.29,0.6-3.97l11.03-5.25c1.36-0.65,3.36,0,4.48,1.44L119.26,64.62z" style="fill:#FFFFFF;"/>
  </g>
</svg>