<svg width="128" height="128" style="enable-background:new 0 0 128 128;" xmlns="http://www.w3.org/2000/svg" xmlns:xlink="http://www.w3.org/1999/xlink">
  <g id="Layer_1">
    <path d="M-191.47,43.45c1.11-0.16,2.19-0.11,3.27-0.01l-0.35,0.51c-0.48-0.98-0.92-1.98-1.16-3.07 c0.74,0.85,1.29,1.79,1.79,2.76l-0.35,0.51C-189.34,44.01-190.42,43.83-191.47,43.45z" style="fill:#33691E;"/>
    <path d="M-179.05,33.6c0.51,1,0.81,2.04,1.06,3.1l-0.59-0.17c0.77-0.77,1.58-1.5,2.54-2.09 c-0.57,0.97-1.28,1.79-2.04,2.58l-0.59-0.17C-178.9,35.79-179.08,34.72-179.05,33.6z" style="fill:#33691E;"/>
    <path d="M-186.8,51.45c1.11-0.16,2.19-0.11,3.27-0.01l-0.35,0.51c-0.48-0.98-0.92-1.98-1.16-3.07 c0.74,0.85,1.29,1.79,1.79,2.76l-0.35,0.51C-184.68,52.01-185.75,51.83-186.8,51.45z" style="fill:#33691E;"/>
    <path d="M-192.12,61.4c1.01-0.49,2.06-0.77,3.11-1l-0.18,0.59c-0.76-0.78-1.47-1.61-2.04-2.58 c0.96,0.58,1.77,1.32,2.54,2.09l-0.18,0.59C-189.93,61.29-191,61.45-192.12,61.4z" style="fill:#33691E;"/>
    <path d="M-187.4,67.17c1.11-0.16,2.19-0.11,3.27-0.01l-0.35,0.51c-0.48-0.98-0.92-1.98-1.16-3.07 c0.74,0.85,1.29,1.79,1.79,2.76l-0.35,0.51C-185.28,67.73-186.35,67.55-187.4,67.17z" style="fill:#33691E;"/>
    <path d="M-192.02,77.4c0.98-0.54,2.01-0.88,3.06-1.17l-0.15,0.6c-0.8-0.74-1.56-1.52-2.17-2.46 c0.99,0.53,1.84,1.22,2.65,1.95l-0.15,0.6C-189.84,77.17-190.9,77.39-192.02,77.4z" style="fill:#33691E;"/>
    <g>
      <linearGradient id="SVGID_1_" gradientUnits="userSpaceOnUse" x1="63.25" x2="103.7874" y1="88.3507" y2="88.3507">
        <stop offset="4.807095e-03" style="stop-color:#689F38"/>
        <stop offset="1" style="stop-color:#9CCC65"/>
      </linearGradient>
      <path d="M63.25,123.25c0,0,7.04-62.04,40.54-69.8c0,0-10.86,9.3-21.29,24.92 C72.38,93.54,70.75,102.75,63.25,123.25z" style="fill:url(#SVGID_1_);"/>
      <g style="opacity:0.2;">
        <path d="M94.9,59.41c-3.98,4.3-9.06,10.34-14.07,17.85c-2.88,4.32-5.09,8.17-6.94,11.91 C78.45,77.46,85.17,65.72,94.9,59.41 M103.79,53.45c-33.5,7.76-40.54,69.8-40.54,69.8c7.5-20.5,9.13-29.71,19.25-44.88 C92.93,62.75,103.79,53.45,103.79,53.45L103.79,53.45z" style="fill:#424242;"/>
      </g>
    </g>
    <g>
      <linearGradient id="SVGID_3_" gradientUnits="userSpaceOnUse" x1="67" x2="123.862" y1="92.8195" y2="92.8195">
        <stop offset="4.807095e-03" style="stop-color:#689F38"/>
        <stop offset="1" style="stop-color:#9CCC65"/>
      </linearGradient>
      <path d="M67,123.12c0,0,17.5-61.12,56.86-60.61c0,0-12.18,8.02-26.11,20.98 C84.23,96.08,76.5,109.25,67,123.12z" style="fill:url(#SVGID_3_);"/>
      <g style="opacity:0.2;">
        <path d="M116.68,65.17c-4.94,3.66-12.37,9.49-20.3,16.87c-8.87,8.25-15.22,16.66-21.22,25.4 C82.4,91.58,96.04,69.24,116.68,65.17 M123.37,62.51C84.36,62.52,67,123.12,67,123.12c9.5-13.88,17.23-27.05,30.75-39.62 c13.93-12.96,26.11-20.98,26.11-20.98C123.69,62.51,123.53,62.51,123.37,62.51L123.37,62.51z" style="fill:#424242;"/>
      </g>
    </g>
    <g>
      <linearGradient id="SVGID_4_" gradientUnits="userSpaceOnUse" x1="47.5666" x2="103.7538" y1="62.9385" y2="62.9385">
        <stop offset="4.807095e-03" style="stop-color:#689F38"/>
        <stop offset="1" style="stop-color:#9CCC65"/>
      </linearGradient>
      <path d="M53.33,121.33c0,0-30.92-99.83,50.42-116.79c0,0-28.36,16.22-40.63,38.46 C49.79,67.17,48.5,96,53.33,121.33z" style="fill:url(#SVGID_4_);"/>
      <g style="opacity:0.2;">
        <path d="M91.83,10.02c-9.5,6.9-22.86,18.26-30.45,32.02C55.19,53.24,51.24,66.13,49.61,80 c0.01-14.49,2.44-30.55,10.42-44.08C67.11,23.92,77.77,15.24,91.83,10.02 M103.75,4.54C22.42,21.5,53.33,121.33,53.33,121.33 C48.5,96,49.79,67.17,63.12,43C75.39,20.77,103.75,4.54,103.75,4.54L103.75,4.54z" style="fill:#424242;"/>
      </g>
    </g>
    <g>
      <linearGradient id="SVGID_5_" gradientUnits="userSpaceOnUse" x1="12.869" x2="42.8935" y1="69.0979" y2="69.0979">
        <stop offset="4.807095e-03" style="stop-color:#689F38"/>
        <stop offset="1" style="stop-color:#9CCC65"/>
      </linearGradient>
      <path d="M39.08,122.81c0.62,0.25-17.66-14.29-23.62-39.06c-6.75-23.93-1.2-58.1,27.43-68.36 C43.05,15.14,24.49,29.34,21.46,52C18.19,79.19,24.67,99.08,39.08,122.81z" style="fill:url(#SVGID_5_);"/>
      <g style="opacity:0.2;">
        <path d="M31.85,23.79c-5.19,6.55-10.79,16.08-12.38,27.97C16.8,74,20.75,91.2,28.56,107.69 c-5.28-7.6-9.11-15.93-11.15-24.41c-0.01-0.03-0.01-0.05-0.02-0.07c-3.52-12.46-3.36-26.37,0.42-38.14 C19.98,38.31,24.09,30.05,31.85,23.79 M42.89,15.39c0,0-0.01,0-0.02,0.01C42.88,15.39,42.89,15.39,42.89,15.39 C42.89,15.39,42.89,15.39,42.89,15.39L42.89,15.39z M42.87,15.4C14.26,25.67,8.71,59.82,15.46,83.75 c5.67,23.53,22.46,37.83,23.58,38.99C24.66,99.04,18.19,79.16,21.46,52C24.41,29.89,42.15,15.84,42.87,15.4L42.87,15.4z M39.04,122.74c0.01,0.02,0.03,0.05,0.04,0.07c0.01,0,0.01,0,0.01,0C39.11,122.81,39.09,122.79,39.04,122.74L39.04,122.74z" style="fill:#424242;"/>
      </g>
    </g>
    <g>
      <path d="M40.17,113.26L40.17,113.26c-0.56,0.03-1.06-0.27-1.11-0.67l-1.31-14.43 c-0.05-0.4,0.36-0.76,0.92-0.79h0c0.56-0.03,1.06,0.27,1.11,0.67l1.31,14.43C41.14,112.87,40.73,113.22,40.17,113.26z M51.99,6.45 c-2.87-0.07-6.82,2.23-8.62,5.49c-3.59,6.51-0.9,10.96-0.89,10.95c-0.01-0.01,4.62,0.47,8.89-7.58 C52.35,13.46,52.99,8.11,51.99,6.45z M25.23,65.14c-2.01,3.28-0.39,7.99,1.62,10.87c2.1,3.01,5.28,5.3,8.86,6.18 c-0.09-0.85-0.04-1.7-0.13-2.55c-0.1-0.9-0.24-1.79-0.45-2.67c-0.41-1.75-1.06-3.45-1.95-5.01 C31.54,69.05,28.62,65.89,25.23,65.14z M38.58,69.48c-1.78,3.03-1.93,7.25-0.52,10.41c0.29,0.65,0.59,1.64,1.09,2.18 c0.14,0.15,2.52-1.59,2.75-1.79c0.98-0.83,1.82-1.83,2.45-2.95c1.87-3.3,2.1-8.5-0.24-11.66C41.57,66.04,39.73,67.51,38.58,69.48z M27.18,80.74c-0.4-0.09-0.75,2.57-0.76,2.84c-0.05,1.07,0.07,2.08,0.35,3.11c0.56,2.08,1.6,4.03,3.04,5.64 c1.37,1.53,3.08,2.74,4.97,3.53c0.47,0.2,1,0.45,1.51,0.53c0.67,0.11,0.51,0.09,0.57-0.49c0.07-0.61,0.01-1.36-0.06-1.98 c-0.13-1.18-0.38-2.35-0.75-3.48C34.76,86.46,31.53,81.71,27.18,80.74z M39.5,84.55c-0.51,0.81-0.88,1.7-1.09,2.59 c-0.55,2.39-0.27,4.98,0.85,7.16c0.22,0.43,0.48,1.14,0.93,1.12c0.56-0.02,1.55-0.91,1.98-1.26c0.7-0.56,1.31-1.22,1.83-1.95 c2.09-2.98,2.58-7.96,0.32-11.02C42.27,81.48,40.58,82.83,39.5,84.55z M24.42,48.68c-2.87,3.94-0.88,9.99,2.12,13.22 c1.35,1.45,3.04,2.6,4.9,3.34c0.4,0.16,1.02,0.49,1.46,0.48c0.5-0.01,0.42-0.04,0.51-0.55c0.12-0.67,0.02-1.38,0.04-2.06 c0.04-1.3-0.09-2.61-0.36-3.88C32.17,54.98,29.14,49.69,24.42,48.68z M38.4,54.13c-0.75,0.86-1.36,1.83-1.8,2.82 c-1.2,2.73-1.4,5.91-0.46,8.75c0.22,0.68,0.18,0.96,0.81,0.81c0.42-0.09,0.89-0.45,1.26-0.65c2.52-1.34,4.72-3.35,5.94-5.97 c1.23-2.63,1.88-6.46,0.47-9.13C42.22,50.92,40,52.29,38.4,54.13z M28.85,32.51c-3.82,3.14-3.94,9.17-1.66,13.03 c0.98,1.66,2.42,3.08,4.14,4.11c0.81,0.49,1.69,1.28,2.2,0.25c0.41-0.82,0.59-1.72,0.84-2.58c0.9-3.03,0.89-6.89-0.57-9.76 C32.8,35.6,31.17,33.35,28.85,32.51z M41.72,39.51c-0.73,0.66-1.39,1.42-1.95,2.22c-2.11,3.01-2.78,6.45-2.18,10.05 c0,0.03,0.01,0.06,0.02,0.08c0,0.01,2.97-1.2,3.17-1.29c1.25-0.56,2.39-1.33,3.41-2.26c2.84-2.58,5.75-7.64,4.4-11.61 C45.99,36.68,43.6,37.81,41.72,39.51z M36.23,18.44c-3,1.83-4.7,5.01-4.95,8.19c-0.27,3.45,1.19,6.36,4.03,8.61 c0.09,0.07,1.62,1.21,1.62,1.21c-0.11-0.11,1.5-2.32,1.63-2.54c0.66-1.15,1.16-2.37,1.5-3.62C41.09,26.41,40.83,20.49,36.23,18.44 z M47.42,24.67c-1.98,1.42-3.74,3.31-4.93,5.48c-0.6,1.1-1.07,2.27-1.34,3.5c-0.05,0.24-0.38,3.25-0.31,3.25 c0.54-0.02,1.15-0.34,1.67-0.48c0.92-0.25,1.82-0.49,2.7-0.86c2.59-1.08,4.89-2.83,6.67-5.01c1.71-2.11,3.67-5.28,3.21-8.12 C52.23,22.16,49.63,23.09,47.42,24.67z" style="fill:#FFB300;"/>
      <g style="opacity:0.2;">
        <path d="M50.87,8.14c0.2,1.74-0.21,5.13-0.89,6.43c-2.57,4.85-5.15,6.21-6.5,6.59 c-0.45-1.42-0.9-4.47,1.29-8.46C46.09,10.31,48.76,8.58,50.87,8.14 M36.32,20.3c3.18,2.09,2.87,7.08,2.2,9.59 c-0.3,1.13-0.75,2.22-1.32,3.21c-0.05,0.07-0.16,0.24-0.31,0.45c-0.15,0.21-0.29,0.41-0.42,0.6c-0.09-0.07-0.16-0.12-0.18-0.14 c-2.5-1.98-3.65-4.41-3.43-7.25C33.06,24.16,34.33,21.81,36.32,20.3 M53.5,23.98c-0.24,1.6-1.23,3.54-2.86,5.55 c-1.64,2.01-3.73,3.58-6.04,4.55c-0.63,0.26-1.29,0.46-1.98,0.65c0.04-0.36,0.07-0.66,0.09-0.75c0.23-1.03,0.62-2.06,1.18-3.07 c1.03-1.87,2.61-3.63,4.46-4.95C50,24.77,51.73,24.11,53.5,23.98 M29.15,34.41c1.57,0.97,2.68,2.78,3.24,3.86 c1.15,2.27,1.33,5.65,0.46,8.6c-0.07,0.24-0.13,0.48-0.2,0.72c-0.08,0.3-0.16,0.59-0.25,0.86c-0.09-0.06-0.17-0.11-0.26-0.16 c-1.51-0.91-2.75-2.14-3.59-3.56C26.8,41.77,26.72,37.15,29.15,34.41 M47.32,38.39c0.28,3.14-2.14,6.88-4.2,8.76 c-0.94,0.85-1.94,1.52-2.98,1.98c-0.08,0.04-0.59,0.24-1.16,0.48c-0.06-2.54,0.64-4.88,2.1-6.96c0.5-0.72,1.08-1.38,1.72-1.96 C43.8,39.77,45.35,38.7,47.32,38.39 M25.15,50.57c2.53,1.07,5.34,4.11,6.38,9c0.25,1.16,0.36,2.34,0.32,3.51 c-0.01,0.21,0,0.41,0,0.62c-1.58-0.65-3.02-1.65-4.16-2.88c-1.36-1.47-2.43-3.56-2.87-5.6C24.56,53.94,24.43,52.18,25.15,50.57 M43.62,52.53c0.55,2.09-0.02,4.81-0.9,6.7c-1.25,2.69-3.55,4.33-5.25,5.24c-0.01,0.01-0.02,0.01-0.03,0.02 c-0.55-2.24-0.34-4.71,0.62-6.89c0.37-0.85,0.91-1.68,1.54-2.42C40.76,53.84,42.18,52.91,43.62,52.53 M26.1,67.09 c2.43,1.06,4.49,3.5,5.71,5.65c0.8,1.4,1.39,2.95,1.78,4.59c0.19,0.79,0.33,1.63,0.42,2.48c0,0.04,0.01,0.09,0.01,0.13 c-2.31-1.02-4.38-2.71-5.87-4.84C26.57,72.83,25.4,69.56,26.1,67.09 M43.36,67.47c1.41,2.75,0.97,6.69-0.39,9.09 c-0.54,0.95-1.24,1.8-2.09,2.51c-0.15,0.12-0.63,0.47-1.12,0.81c0-0.01-0.01-0.02-0.01-0.03c-0.09-0.21-0.17-0.42-0.25-0.6 c-1.23-2.75-1.05-6.43,0.44-8.96C40.55,69.26,41.6,68.02,43.36,67.47 M28.39,81.64L28.39,81.64L28.39,81.64 M28.13,82.74 c3.02,1.39,5.39,5.04,6.41,8.2c0.33,1.03,0.56,2.1,0.68,3.16c0.01,0.06,0.02,0.14,0.03,0.24c-1.62-0.7-3.09-1.76-4.26-3.07 c-1.26-1.41-2.19-3.14-2.69-4.99c-0.24-0.9-0.33-1.73-0.3-2.61C28.02,83.49,28.07,83.12,28.13,82.74 M43.57,83.02 c1.21,2.55,0.62,6.16-0.87,8.28c-0.43,0.62-0.95,1.17-1.52,1.63l-0.23,0.19c-0.08,0.07-0.22,0.18-0.36,0.29 c-0.86-1.79-1.09-3.93-0.63-5.91c0.17-0.73,0.47-1.46,0.89-2.11C41.55,84.26,42.51,83.43,43.57,83.02 M51.86,6.45 c-2.86,0-6.71,2.28-8.48,5.49c-3.58,6.5-0.9,10.95-0.89,10.95l0,0c0,0,0,0,0,0c0.01,0,0.05,0,0.12,0c0.76,0,4.91-0.31,8.76-7.58 c0.98-1.85,1.61-7.21,0.62-8.86C51.95,6.45,51.9,6.45,51.86,6.45L51.86,6.45z M36.23,18.44c-3,1.83-4.7,5.01-4.95,8.19 c-0.27,3.45,1.19,6.36,4.03,8.61c0.09,0.07,1.62,1.21,1.62,1.21c-0.11-0.11,1.5-2.32,1.63-2.54c0.66-1.15,1.16-2.37,1.5-3.62 C41.09,26.41,40.83,20.49,36.23,18.44L36.23,18.44z M54.13,22.37c-2.47,0-4.75,0.89-6.71,2.29c-1.98,1.42-3.74,3.31-4.93,5.48 c-0.6,1.1-1.07,2.27-1.34,3.5c-0.05,0.24-0.38,3.25-0.31,3.25h0c0.54-0.02,1.15-0.34,1.67-0.48c0.92-0.25,1.82-0.49,2.7-0.86 c2.59-1.08,4.89-2.83,6.67-5.01c1.71-2.11,3.67-5.28,3.21-8.12C54.76,22.39,54.44,22.37,54.13,22.37L54.13,22.37z M28.85,32.51 c-3.82,3.14-3.94,9.17-1.66,13.03c0.98,1.66,2.42,3.08,4.14,4.11c0.52,0.31,1.07,0.75,1.53,0.75c0.26,0,0.49-0.13,0.67-0.5 c0.41-0.82,0.59-1.72,0.84-2.58c0.9-3.03,0.89-6.89-0.57-9.76C32.8,35.6,31.17,33.35,28.85,32.51L28.85,32.51z M48.46,36.72 c-2.55,0-4.89,1.12-6.74,2.8c-0.73,0.66-1.39,1.42-1.95,2.22c-2.11,3.01-2.78,6.45-2.18,10.05c0,0.03,0.01,0.06,0.02,0.08l0,0 c0.02,0,2.97-1.2,3.17-1.29c1.25-0.56,2.39-1.33,3.41-2.26c2.84-2.58,5.75-7.64,4.4-11.61C48.54,36.72,48.5,36.72,48.46,36.72 L48.46,36.72z M24.42,48.68c-2.87,3.94-0.88,9.99,2.12,13.22c1.35,1.45,3.04,2.6,4.9,3.34c0.4,0.16,1.01,0.48,1.44,0.48 c0,0,0.01,0,0.01,0c0.5-0.01,0.42-0.04,0.51-0.55c0.12-0.67,0.02-1.38,0.04-2.06c0.04-1.3-0.09-2.61-0.36-3.88 C32.17,54.98,29.14,49.69,24.42,48.68L24.42,48.68z M44.63,50.77c-2.41,0.15-4.63,1.52-6.23,3.36c-0.75,0.86-1.36,1.83-1.8,2.82 c-1.2,2.73-1.4,5.91-0.46,8.75c0.19,0.56,0.19,0.85,0.54,0.85c0.07,0,0.16-0.01,0.26-0.04c0.42-0.09,0.89-0.45,1.26-0.65 c2.52-1.34,4.72-3.35,5.94-5.97C45.38,57.27,46.03,53.45,44.63,50.77L44.63,50.77z M25.23,65.14c-2.01,3.28-0.39,7.99,1.62,10.87 c2.1,3.01,5.28,5.3,8.86,6.18c-0.09-0.85-0.04-1.7-0.13-2.55c-0.1-0.9-0.24-1.79-0.45-2.67c-0.41-1.75-1.06-3.45-1.95-5.01 C31.54,69.05,28.62,65.89,25.23,65.14L25.23,65.14z M44.12,65.68c-2.54,0.36-4.38,1.83-5.54,3.8c-1.78,3.03-1.93,7.25-0.52,10.41 c0.29,0.65,0.59,1.64,1.09,2.18c0.01,0.01,0.01,0.01,0.03,0.01c0.3,0,2.51-1.61,2.72-1.79c0.98-0.83,1.82-1.83,2.45-2.95 C46.23,74.04,46.46,68.84,44.12,65.68L44.12,65.68z M27.16,80.74c-0.39,0-0.73,2.58-0.74,2.84c-0.05,1.07,0.07,2.08,0.35,3.11 c0.56,2.08,1.6,4.03,3.04,5.64c1.37,1.53,3.08,2.74,4.97,3.53c0.47,0.2,1,0.45,1.51,0.53c0.19,0.03,0.31,0.05,0.39,0.05 c0.2,0,0.13-0.13,0.18-0.55c0.07-0.61,0.01-1.36-0.06-1.98c-0.13-1.18-0.38-2.35-0.75-3.48c-1.29-3.98-4.52-8.73-8.88-9.7 C27.17,80.74,27.16,80.74,27.16,80.74L27.16,80.74z M44.32,81.19c-2.04,0.29-3.74,1.64-4.82,3.36c-0.51,0.81-0.88,1.7-1.09,2.59 c-0.55,2.39-0.27,4.98,0.85,7.16c0.21,0.42,0.48,1.12,0.92,1.12c0.01,0,0.01,0,0.02,0c0.56-0.02,1.55-0.91,1.98-1.26 c0.7-0.56,1.31-1.22,1.83-1.95C46.09,89.23,46.58,84.25,44.32,81.19L44.32,81.19z M38.76,97.36c-0.03,0-0.06,0-0.09,0 c-0.56,0.03-0.98,0.39-0.92,0.79l1.31,14.43c0.05,0.38,0.5,0.67,1.02,0.67c0.03,0,0.06,0,0.09,0c0.56-0.03,0.98-0.39,0.92-0.79 l-1.31-14.43C39.73,97.65,39.28,97.36,38.76,97.36L38.76,97.36z" style="fill:#424242;"/>
      </g>
    </g>
    <g>
      <path d="M111.44,31.21c-3.17-1.22-7.33-1.86-11-0.65c-6.25,2.06-7.24,8.47-7.22,8.47 c0-0.01,5.14,3.69,12.03-0.1C109,36.88,111.36,32.92,111.44,31.21z M57.78,70.03c-0.46-0.32-1.76,2.63-1.87,2.98 c-0.45,1.39-0.69,2.85-0.71,4.31c-0.08,5.56,3.04,10.67,7.6,13.7c0.74-2.31,0.97-4.57,0.91-6.99 C63.6,79.25,61.94,72.95,57.78,70.03z M69.26,79.35c-1.65,1.37-2.87,3.32-3.37,5.38c-0.63,2.54-0.08,4.72,0.29,7.22 c2.06-0.27,4.36-1.39,5.9-2.76c2.97-2.65,4.95-7.69,3.74-11.62C73.37,77.05,71.06,77.85,69.26,79.35z M55.36,86.92 c-0.68-0.42-1.71,4.27-1.74,4.63c-0.14,1.63,0.07,3.3,0.53,4.87c0.56,1.93,1.5,3.74,2.77,5.29c0.64,0.79,1.37,1.52,2.17,2.16 c0.23,0.18,1.94,1.24,1.92,1.46c0.16-2.01,0.54-3.89,0.39-5.93C61.08,95.08,59.27,89.36,55.36,86.92z M65.9,94.57 c-1.15,1.12-2,2.59-2.38,4.09c-0.53,2.09-0.56,5.34,0.52,7.29c0.08,0.14,2.91-1.18,3.18-1.34c1.21-0.71,2.2-1.78,2.91-2.98 c0.79-1.35,1.25-2.86,1.53-4.39c0.13-0.76,0.2-1.52,0.17-2.3c-0.01-0.27-0.13-2.28-0.44-2.32C69.29,92.3,67.35,93.16,65.9,94.57z M64.78,54.35c-0.16-0.02-0.35,0.03-0.58,0.18c-2.32,1.51-3.76,4.63-4.18,7.27c-0.44,2.79,0.09,5.68,1.3,8.21 c0.53,1.11,1.35,2.1,2.13,3.05c0.43,0.53,0.82,1.04,1.31,1.52c0.05,0.05,1.91-3.59,2.05-3.95c0.55-1.43,0.93-2.92,1.13-4.44 c0.42-3.09,0.13-6.17-1.15-9.04c-0.3-0.66-0.64-1.3-1.07-1.89C65.39,54.81,65.15,54.4,64.78,54.35z M74.57,64.56 c-2.61,1.2-4.48,3.44-5.69,6.1c-0.7,1.43-0.8,5.24-0.77,5.24c0.27-0.26,1.69-0.19,2.06-0.24c1.17-0.16,2.37-0.32,3.48-0.77 c3.99-1.62,8.62-6.24,8.26-10.92c-0.03-0.4-2.8-0.4-3.11-0.39c-0.93,0.05-1.88,0.19-2.77,0.44 C75.52,64.16,75.04,64.34,74.57,64.56z M75.27,41.63c-3.34,0.72-6.05,3.93-7.07,7.07c-0.67,2.07-0.72,4.34-0.15,6.44 c0.29,1.06,0.73,2.05,1.31,2.98c0.42,0.67,0.92,1.33,1.36,1.98c1.03-0.63,1.94-1.9,2.68-2.85c0.84-1.08,1.59-2.24,2.18-3.48 C77.29,50.22,78.08,44.88,75.27,41.63z M84.11,52.77c-0.92,0.24-1.82,0.58-2.67,0.99c-3.37,1.65-5.5,4.3-6.54,7.87 c-0.05,0.17-0.1,0.35-0.14,0.53c0.02-0.08,3.1,0.12,3.32,0.12c1.48,0.01,2.97-0.25,4.39-0.67c2.08-0.62,4.04-1.66,5.72-3.05 c1.59-1.31,3.41-3.11,3.75-5.23C89.48,52.18,86.69,52.1,84.11,52.77z M88.69,31.44c-3.44,0.06-6.26,1.91-7.69,4.25 c-4.12,6.73-0.55,11.97-0.54,11.96c-0.01-0.02,5.08-0.92,8.92-8.71C90.26,37.15,89.96,33.3,88.69,31.44z M94.06,42.75 c-8.27,1.88-9.79,7.17-9.76,7.19c0,0,5.47,2.83,12.57,0.19c2.62-0.97,6.48-3.94,7.38-5.94C102.14,42.92,98.19,41.81,94.06,42.75z M63.52,122.3L63.52,122.3c-0.64,0-1.2-0.32-1.23-0.7l-0.81-13.7c-0.04-0.38,0.45-0.69,1.1-0.69h0c0.64,0,1.2,0.32,1.23,0.7 l0.81,13.7C64.65,121.99,64.16,122.3,63.52,122.3z" style="fill:#FFB300;"/>
      <g style="opacity:0.2;">
        <path d="M104.69,31.48c1.55,0,3.23,0.26,4.85,0.74c-0.69,1.51-2.44,3.92-5.04,5.35 c-1.83,1.01-3.68,1.52-5.52,1.52c-1.73,0-3.11-0.46-3.96-0.84c0.53-1.64,2.04-4.92,5.91-6.2 C102.07,31.67,103.34,31.48,104.69,31.48 M87.78,33.07c0.64,1.61,0.7,4.14,0.19,5.18c-2.36,4.78-5.17,6.71-6.75,7.46 c-0.65-1.64-1.41-5.08,1.11-9.21C83.24,35.01,85.12,33.42,87.78,33.07 M74.66,43.45c1.56,2.68,0.91,6.75-0.48,9.64 c-0.52,1.08-1.19,2.16-2,3.2l-0.26,0.34c-0.28,0.36-0.59,0.77-0.92,1.14c-0.11-0.16-0.21-0.31-0.31-0.47 c-0.52-0.83-0.9-1.69-1.13-2.56c-0.49-1.82-0.45-3.79,0.13-5.55C70.41,46.94,72.3,44.42,74.66,43.45 M97.22,43.96 c1.8,0,3.43,0.37,4.69,0.84c-1.36,1.46-3.79,3.19-5.58,3.86c-1.84,0.68-3.73,1.03-5.62,1.03c-1.78,0-3.26-0.31-4.26-0.61 c0.95-1.43,3.16-3.72,7.95-4.81C95.32,44.07,96.26,43.96,97.22,43.96 M87.36,53.9c0.91,0,1.79,0.12,2.61,0.35 c-0.5,0.95-1.42,1.97-2.79,3.1c-1.5,1.24-3.29,2.19-5.17,2.76c-1.34,0.4-2.63,0.61-3.84,0.61l-0.07,0 c-0.08,0-0.32-0.02-0.63-0.03c-0.2-0.01-0.39-0.02-0.58-0.03c1.04-2.47,2.76-4.28,5.23-5.49c0.76-0.37,1.56-0.67,2.38-0.88 C85.46,54.03,86.42,53.9,87.36,53.9 M65.05,55.83L65.05,55.83L65.05,55.83 M64.51,56.24c0.31,0.43,0.59,0.94,0.86,1.54 c1.09,2.44,1.43,5.19,1.02,8.19c-0.19,1.4-0.54,2.78-1.03,4.07c-0.08,0.19-0.48,0.99-0.89,1.79c-0.66-0.81-1.33-1.64-1.74-2.5 c-1.13-2.35-1.54-4.94-1.17-7.29C61.87,60.07,62.88,57.63,64.51,56.24 M79.13,65.13c0.44,0,0.85,0.01,1.19,0.04 c-0.42,3.4-3.87,6.89-7.26,8.27c-0.91,0.37-1.95,0.51-3.08,0.67c-0.06,0.01-0.13,0.01-0.22,0.01c0.1-1.06,0.28-2.28,0.54-2.81 c0.8-1.76,2.31-4.12,4.92-5.33c0.39-0.18,0.81-0.33,1.23-0.46c0.74-0.21,1.58-0.34,2.42-0.39 C78.92,65.13,79.01,65.13,79.13,65.13 M58.55,71.26L58.55,71.26L58.55,71.26 M57.97,72.23c2.93,2.91,4.09,8.03,4.18,11.84 c0.04,1.56-0.06,2.96-0.29,4.27c-3.25-2.89-5.17-6.94-5.11-10.99c0.02-1.33,0.23-2.62,0.63-3.84 C57.47,73.28,57.72,72.73,57.97,72.23 M74.34,78.96c0.07,0,0.13,0,0.2,0c0.49,3.25-1.32,7.1-3.5,9.05 c-0.97,0.86-2.29,1.6-3.58,2.03c-0.28-1.73-0.47-3.27-0.05-4.94c0.43-1.74,1.47-3.4,2.86-4.55 C71.13,79.82,72.54,78.96,74.34,78.96 M56.26,88.02L56.26,88.02L56.26,88.02 M55.79,89.24c2.44,2.4,3.79,6.69,4.05,10.27 c0.07,0.96,0.01,1.91-0.09,2.88c-0.58-0.5-1.13-1.06-1.62-1.67c-1.13-1.39-1.98-3.03-2.48-4.74c-0.43-1.47-0.59-2.91-0.47-4.27 C55.24,91.27,55.51,90.15,55.79,89.24 M70.19,94.12c0.03,0.3,0.06,0.62,0.07,0.88c0.03,0.62-0.02,1.26-0.15,1.96 c-0.28,1.55-0.71,2.82-1.34,3.88c-0.62,1.05-1.43,1.89-2.33,2.42c-0.18,0.1-0.86,0.42-1.5,0.7c-0.35-1.52-0.28-3.49,0.08-4.91 c0.31-1.22,1.02-2.44,1.96-3.35C67.94,94.76,69.07,94.21,70.19,94.12 M104.69,29.92c-1.44,0-2.88,0.19-4.26,0.65 c-6.25,2.06-7.24,8.47-7.22,8.47l0,0c0.01,0,2.26,1.61,5.76,1.61c1.8,0,3.93-0.42,6.27-1.71c3.75-2.06,6.11-6.01,6.19-7.73 C109.45,30.45,107.09,29.92,104.69,29.92L104.69,29.92z M88.69,31.44c-3.44,0.06-6.26,1.91-7.69,4.25 c-4.11,6.72-0.56,11.96-0.54,11.96l0,0c-0.01-0.02,5.08-0.92,8.92-8.71C90.26,37.15,89.96,33.3,88.69,31.44L88.69,31.44z M75.27,41.63c-3.34,0.72-6.05,3.93-7.07,7.07c-0.67,2.07-0.72,4.34-0.15,6.44c0.29,1.06,0.73,2.05,1.31,2.98 c0.42,0.67,0.92,1.33,1.36,1.98c1.03-0.63,1.94-1.9,2.68-2.85c0.84-1.08,1.59-2.24,2.18-3.48 C77.29,50.22,78.08,44.88,75.27,41.63L75.27,41.63z M97.22,42.4c-1.02,0-2.08,0.11-3.16,0.35c-8.27,1.88-9.79,7.17-9.76,7.19v0 c0,0,2.54,1.32,6.41,1.32c1.81,0,3.9-0.29,6.16-1.13c2.62-0.97,6.48-3.94,7.38-5.94C102.69,43.25,100.12,42.4,97.22,42.4 L97.22,42.4z M87.36,52.34c-1.09,0-2.19,0.15-3.25,0.43c-0.92,0.24-1.82,0.58-2.67,0.99c-3.37,1.65-5.5,4.3-6.54,7.87 c-0.05,0.17-0.1,0.35-0.14,0.53c0-0.01,0.09-0.02,0.23-0.02c0.72,0,2.9,0.14,3.09,0.14c0.03,0,0.06,0,0.09,0 c1.45,0,2.91-0.26,4.29-0.67c2.08-0.62,4.04-1.66,5.72-3.05c1.59-1.31,3.41-3.11,3.75-5.23C90.48,52.65,88.92,52.34,87.36,52.34 L87.36,52.34z M64.7,54.35c-0.15,0-0.31,0.06-0.51,0.18c-2.32,1.51-3.76,4.63-4.18,7.27c-0.44,2.79,0.09,5.68,1.3,8.21 c0.53,1.11,1.35,2.1,2.13,3.05c0.43,0.53,0.82,1.04,1.31,1.52c0,0,0,0,0,0c0.07,0,1.91-3.6,2.05-3.95 c0.55-1.43,0.93-2.92,1.13-4.44c0.42-3.09,0.13-6.17-1.15-9.04c-0.3-0.66-0.64-1.3-1.07-1.89c-0.33-0.45-0.58-0.86-0.94-0.91 C64.75,54.35,64.73,54.35,64.7,54.35L64.7,54.35z M79.13,63.57c-0.16,0-0.28,0-0.34,0c-0.93,0.05-1.88,0.19-2.77,0.44 c-0.51,0.14-0.99,0.33-1.46,0.54c-2.61,1.2-4.48,3.44-5.69,6.1c-0.7,1.43-0.8,5.24-0.77,5.24h0c0.27-0.26,1.69-0.19,2.06-0.24 c1.17-0.16,2.37-0.32,3.48-0.77c3.99-1.62,8.62-6.24,8.26-10.92C81.89,63.62,79.96,63.57,79.13,63.57L79.13,63.57z M57.7,70.01 c-0.51,0-1.68,2.67-1.79,3c-0.45,1.39-0.69,2.85-0.71,4.31c-0.08,5.56,3.04,10.67,7.6,13.7c0.74-2.31,0.97-4.57,0.91-6.99 c-0.11-4.78-1.77-11.08-5.94-14C57.75,70.02,57.73,70.01,57.7,70.01L57.7,70.01z M74.34,77.4c-1.89,0-3.64,0.75-5.08,1.95 c-1.65,1.37-2.87,3.32-3.37,5.38c-0.63,2.54-0.08,4.72,0.29,7.22c2.06-0.27,4.36-1.39,5.9-2.76c2.97-2.65,4.95-7.69,3.74-11.62 C75.32,77.45,74.82,77.4,74.34,77.4L74.34,77.4z M55.27,86.9c-0.67,0-1.62,4.31-1.65,4.65c-0.14,1.63,0.07,3.3,0.53,4.87 c0.56,1.93,1.5,3.74,2.77,5.29c0.64,0.79,1.37,1.52,2.17,2.16c0.23,0.18,1.94,1.24,1.92,1.46c0.16-2.01,0.54-3.89,0.39-5.93 c-0.32-4.32-2.12-10.04-6.04-12.48C55.33,86.9,55.3,86.9,55.27,86.9L55.27,86.9z M70.52,92.55c-1.76,0-3.37,0.81-4.62,2.02 c-1.15,1.12-2,2.59-2.38,4.09c-0.53,2.09-0.56,5.34,0.52,7.29c0,0.01,0.02,0.01,0.03,0.01c0.33,0,2.89-1.2,3.15-1.35 c1.21-0.71,2.2-1.78,2.91-2.98c0.79-1.35,1.25-2.86,1.53-4.39c0.13-0.76,0.2-1.52,0.17-2.3c-0.01-0.27-0.13-2.28-0.44-2.32 C71.09,92.57,70.8,92.55,70.52,92.55L70.52,92.55z M62.56,107.21c-0.64,0-1.13,0.31-1.09,0.69l0.81,13.7 c0.04,0.38,0.59,0.7,1.23,0.7c0,0,0.01,0,0.01,0c0.64,0,1.13-0.31,1.09-0.69l-0.81-13.7C63.76,107.53,63.21,107.21,62.56,107.21 L62.56,107.21C62.56,107.21,62.56,107.21,62.56,107.21L62.56,107.21z" style="fill:#424242;"/>
      </g>
    </g>
  </g>
  <g id="Layer_2" style="display:none;">
    <g style="display:inline;">
      <g style="opacity:0.6;">
        <circle cx="64" cy="64" r="28" style="opacity:0.61;fill:none;stroke:#000000;stroke-width:0.2625;stroke-miterlimit:10;"/>
        <line style="opacity:0.61;fill:none;stroke:#000000;stroke-width:0.25;stroke-miterlimit:10;" x1="84" x2="84" y1="0" y2="128"/>
        <line style="opacity:0.61;fill:none;stroke:#000000;stroke-width:0.25;stroke-miterlimit:10;" x1="44" x2="44" y1="0" y2="128"/>
        <line style="opacity:0.61;fill:none;stroke:#000000;stroke-width:0.25;stroke-miterlimit:10;" x1="64" x2="64" y1="0" y2="128"/>
        <line style="opacity:0.61;fill:none;stroke:#000000;stroke-width:0.25;stroke-miterlimit:10;" x1="128" x2="0" y1="64" y2="64"/>
        <line style="opacity:0.61;fill:none;stroke:#000000;stroke-width:0.25;stroke-miterlimit:10;" x1="128" x2="0" y1="44" y2="44"/>
        <line style="opacity:0.61;fill:none;stroke:#000000;stroke-width:0.25;stroke-miterlimit:10;" x1="128" x2="0" y1="83.75" y2="83.75"/>
        <line style="opacity:0.61;fill:none;stroke:#000000;stroke-width:0.25;stroke-miterlimit:10;" x1="128" x2="0" y1="128" y2="0"/>
        <line style="opacity:0.61;fill:none;stroke:#000000;stroke-width:0.25;stroke-miterlimit:10;" x1="0" x2="128" y1="128" y2="0"/>
        <g style="opacity:0.61;">
          <path d="M64,4.26c32.94,0,59.74,26.8,59.74,59.74S96.94,123.74,64,123.74S4.26,96.94,4.26,64S31.06,4.26,64,4.26 M64,4 C30.86,4,4,30.86,4,64s26.86,60,60,60s60-26.86,60-60S97.14,4,64,4L64,4z"/>
        </g>
        <path d="M107.97,115.97H20.03 c-4.42,0-8.03-3.61-8.03-8.03V20.03c0-4.42,3.61-8.03,8.03-8.03h87.94c4.42,0,8.03,3.61,8.03,8.03v87.91 C116,112.36,112.39,115.97,107.97,115.97z" style="opacity:0.61;fill:none;stroke:#000000;stroke-width:0.2578;stroke-miterlimit:10;"/>
        <path d="M100,124H28c-4.4,0-8-3.6-8-8 V12c0-4.4,3.6-8,8-8h72c4.4,0,8,3.6,8,8v104C108,120.4,104.4,124,100,124z" style="opacity:0.61;fill:none;stroke:#000000;stroke-width:0.2628;stroke-miterlimit:10;"/>
        <path d="M113.77,108H14.23 C8.6,108,4,103.4,4,97.77V30.28c0-5.63,4.6-10.23,10.23-10.23h99.54c5.63,0,10.23,4.6,10.23,10.23v67.48 C124,103.4,119.4,108,113.77,108z" style="opacity:0.61;fill:none;stroke:#000000;stroke-width:0.2627;stroke-miterlimit:10;"/>
      </g>
      <g>
        <g style="opacity:0.2;">
          <defs>
            <rect id="SVGID_2_" height="128" style="opacity:0.2;" width="128" x="0" y="0"/>
          </defs>
          <clipPath id="SVGID_6_">
            <use style="overflow:visible;" xlink:href="#SVGID_2_"/>
          </clipPath>
          <g style="clip-path:url(#SVGID_6_);">
            <g>
              <line style="fill:none;stroke:#000000;stroke-width:0.25;stroke-miterlimit:10;" x1="-28" x2="-28" y1="160" y2="-32"/>
              <line style="fill:none;stroke:#000000;stroke-width:0.25;stroke-miterlimit:10;" x1="-24" x2="-24" y1="160" y2="-32"/>
              <line style="fill:none;stroke:#000000;stroke-width:0.25;stroke-miterlimit:10;" x1="-20" x2="-20" y1="160" y2="-32"/>
              <line style="fill:none;stroke:#000000;stroke-width:0.25;stroke-miterlimit:10;" x1="-16" x2="-16" y1="160" y2="-32"/>
              <line style="fill:none;stroke:#000000;stroke-width:0.25;stroke-miterlimit:10;" x1="-12" x2="-12" y1="160" y2="-32"/>
              <line style="fill:none;stroke:#000000;stroke-width:0.25;stroke-miterlimit:10;" x1="-8" x2="-8" y1="160" y2="-32"/>
              <line style="fill:none;stroke:#000000;stroke-width:0.25;stroke-miterlimit:10;" x1="-4" x2="-4" y1="160" y2="-32"/>
              <line style="fill:none;stroke:#000000;stroke-width:0.25;stroke-miterlimit:10;" x1="0" x2="0" y1="160" y2="-32"/>
              <line style="fill:none;stroke:#000000;stroke-width:0.25;stroke-miterlimit:10;" x1="4" x2="4" y1="160" y2="-32"/>
              <line style="fill:none;stroke:#000000;stroke-width:0.25;stroke-miterlimit:10;" x1="8" x2="8" y1="160" y2="-32"/>
              <line style="fill:none;stroke:#000000;stroke-width:0.25;stroke-miterlimit:10;" x1="12" x2="12" y1="160" y2="-32"/>
              <line style="fill:none;stroke:#000000;stroke-width:0.25;stroke-miterlimit:10;" x1="16" x2="16" y1="160" y2="-32"/>
              <line style="fill:none;stroke:#000000;stroke-width:0.25;stroke-miterlimit:10;" x1="20" x2="20" y1="160" y2="-32"/>
              <line style="fill:none;stroke:#000000;stroke-width:0.25;stroke-miterlimit:10;" x1="24" x2="24" y1="160" y2="-32"/>
              <line style="fill:none;stroke:#000000;stroke-width:0.25;stroke-miterlimit:10;" x1="28" x2="28" y1="160" y2="-32"/>
              <line style="fill:none;stroke:#000000;stroke-width:0.25;stroke-miterlimit:10;" x1="32" x2="32" y1="160" y2="-32"/>
              <line style="fill:none;stroke:#000000;stroke-width:0.25;stroke-miterlimit:10;" x1="36" x2="36" y1="160" y2="-32"/>
              <line style="fill:none;stroke:#000000;stroke-width:0.25;stroke-miterlimit:10;" x1="40" x2="40" y1="160" y2="-32"/>
              <line style="fill:none;stroke:#000000;stroke-width:0.25;stroke-miterlimit:10;" x1="44" x2="44" y1="160" y2="-32"/>
              <line style="fill:none;stroke:#000000;stroke-width:0.25;stroke-miterlimit:10;" x1="48" x2="48" y1="160" y2="-32"/>
              <line style="fill:none;stroke:#000000;stroke-width:0.25;stroke-miterlimit:10;" x1="52" x2="52" y1="160" y2="-32"/>
              <line style="fill:none;stroke:#000000;stroke-width:0.25;stroke-miterlimit:10;" x1="56" x2="56" y1="160" y2="-32"/>
              <line style="fill:none;stroke:#000000;stroke-width:0.25;stroke-miterlimit:10;" x1="60" x2="60" y1="160" y2="-32"/>
              <line style="fill:none;stroke:#000000;stroke-width:0.25;stroke-miterlimit:10;" x1="64" x2="64" y1="160" y2="-32"/>
              <line style="fill:none;stroke:#000000;stroke-width:0.25;stroke-miterlimit:10;" x1="68" x2="68" y1="160" y2="-32"/>
              <line style="fill:none;stroke:#000000;stroke-width:0.25;stroke-miterlimit:10;" x1="72" x2="72" y1="160" y2="-32"/>
              <line style="fill:none;stroke:#000000;stroke-width:0.25;stroke-miterlimit:10;" x1="76" x2="76" y1="160" y2="-32"/>
              <line style="fill:none;stroke:#000000;stroke-width:0.25;stroke-miterlimit:10;" x1="80" x2="80" y1="160" y2="-32"/>
              <line style="fill:none;stroke:#000000;stroke-width:0.25;stroke-miterlimit:10;" x1="84" x2="84" y1="160" y2="-32"/>
              <line style="fill:none;stroke:#000000;stroke-width:0.25;stroke-miterlimit:10;" x1="88" x2="88" y1="160" y2="-32"/>
              <line style="fill:none;stroke:#000000;stroke-width:0.25;stroke-miterlimit:10;" x1="92" x2="92" y1="160" y2="-32"/>
              <line style="fill:none;stroke:#000000;stroke-width:0.25;stroke-miterlimit:10;" x1="96" x2="96" y1="160" y2="-32"/>
              <line style="fill:none;stroke:#000000;stroke-width:0.25;stroke-miterlimit:10;" x1="100" x2="100" y1="160" y2="-32"/>
              <line style="fill:none;stroke:#000000;stroke-width:0.25;stroke-miterlimit:10;" x1="104" x2="104" y1="160" y2="-32"/>
              <line style="fill:none;stroke:#000000;stroke-width:0.25;stroke-miterlimit:10;" x1="108" x2="108" y1="160" y2="-32"/>
              <line style="fill:none;stroke:#000000;stroke-width:0.25;stroke-miterlimit:10;" x1="112" x2="112" y1="160" y2="-32"/>
              <line style="fill:none;stroke:#000000;stroke-width:0.25;stroke-miterlimit:10;" x1="116" x2="116" y1="160" y2="-32"/>
              <line style="fill:none;stroke:#000000;stroke-width:0.25;stroke-miterlimit:10;" x1="120" x2="120" y1="160" y2="-32"/>
              <line style="fill:none;stroke:#000000;stroke-width:0.25;stroke-miterlimit:10;" x1="124" x2="124" y1="160" y2="-32"/>
              <line style="fill:none;stroke:#000000;stroke-width:0.25;stroke-miterlimit:10;" x1="128" x2="128" y1="160" y2="-32"/>
              <line style="fill:none;stroke:#000000;stroke-width:0.25;stroke-miterlimit:10;" x1="132" x2="132" y1="160" y2="-32"/>
              <line style="fill:none;stroke:#000000;stroke-width:0.25;stroke-miterlimit:10;" x1="136" x2="136" y1="160" y2="-32"/>
              <line style="fill:none;stroke:#000000;stroke-width:0.25;stroke-miterlimit:10;" x1="137" x2="137" y1="166.05" y2="-25.95"/>
              <line style="fill:none;stroke:#000000;stroke-width:0.25;stroke-miterlimit:10;" x1="144" x2="144" y1="160" y2="-32"/>
              <line style="fill:none;stroke:#000000;stroke-width:0.25;stroke-miterlimit:10;" x1="148" x2="148" y1="160" y2="-32"/>
              <line style="fill:none;stroke:#000000;stroke-width:0.25;stroke-miterlimit:10;" x1="152" x2="152" y1="160" y2="-32"/>
              <line style="fill:none;stroke:#000000;stroke-width:0.25;stroke-miterlimit:10;" x1="156" x2="156" y1="160" y2="-32"/>
            </g>
            <g>
              <line style="fill:none;stroke:#000000;stroke-width:0.25;stroke-miterlimit:10;" x1="-32" x2="160" y1="-28" y2="-28"/>
              <line style="fill:none;stroke:#000000;stroke-width:0.25;stroke-miterlimit:10;" x1="-32" x2="160" y1="-24" y2="-24"/>
              <line style="fill:none;stroke:#000000;stroke-width:0.25;stroke-miterlimit:10;" x1="-32" x2="160" y1="-20" y2="-20"/>
              <line style="fill:none;stroke:#000000;stroke-width:0.25;stroke-miterlimit:10;" x1="-32" x2="160" y1="-16" y2="-16"/>
              <line style="fill:none;stroke:#000000;stroke-width:0.25;stroke-miterlimit:10;" x1="-32" x2="160" y1="-12" y2="-12"/>
              <line style="fill:none;stroke:#000000;stroke-width:0.25;stroke-miterlimit:10;" x1="-32" x2="160" y1="-8" y2="-8"/>
              <line style="fill:none;stroke:#000000;stroke-width:0.25;stroke-miterlimit:10;" x1="-32" x2="160" y1="-4" y2="-4"/>
              <line style="fill:none;stroke:#000000;stroke-width:0.25;stroke-miterlimit:10;" x1="-32" x2="160" y1="0" y2="0"/>
              <line style="fill:none;stroke:#000000;stroke-width:0.25;stroke-miterlimit:10;" x1="-32" x2="160" y1="4" y2="4"/>
              <line style="fill:none;stroke:#000000;stroke-width:0.25;stroke-miterlimit:10;" x1="-32" x2="160" y1="8" y2="8"/>
              <line style="fill:none;stroke:#000000;stroke-width:0.25;stroke-miterlimit:10;" x1="-32" x2="160" y1="12" y2="12"/>
              <line style="fill:none;stroke:#000000;stroke-width:0.25;stroke-miterlimit:10;" x1="-32" x2="160" y1="16" y2="16"/>
              <line style="fill:none;stroke:#000000;stroke-width:0.25;stroke-miterlimit:10;" x1="-32" x2="160" y1="20" y2="20"/>
              <line style="fill:none;stroke:#000000;stroke-width:0.25;stroke-miterlimit:10;" x1="-32" x2="160" y1="24" y2="24"/>
              <line style="fill:none;stroke:#000000;stroke-width:0.25;stroke-miterlimit:10;" x1="-32" x2="160" y1="28" y2="28"/>
              <line style="fill:none;stroke:#000000;stroke-width:0.25;stroke-miterlimit:10;" x1="-32" x2="160" y1="32" y2="32"/>
              <line style="fill:none;stroke:#000000;stroke-width:0.25;stroke-miterlimit:10;" x1="-32" x2="160" y1="36" y2="36"/>
              <line style="fill:none;stroke:#000000;stroke-width:0.25;stroke-miterlimit:10;" x1="-32" x2="160" y1="40" y2="40"/>
              <line style="fill:none;stroke:#000000;stroke-width:0.25;stroke-miterlimit:10;" x1="-32" x2="160" y1="44" y2="44"/>
              <line style="fill:none;stroke:#000000;stroke-width:0.25;stroke-miterlimit:10;" x1="-32" x2="160" y1="48" y2="48"/>
              <line style="fill:none;stroke:#000000;stroke-width:0.25;stroke-miterlimit:10;" x1="-32" x2="160" y1="52" y2="52"/>
              <line style="fill:none;stroke:#000000;stroke-width:0.25;stroke-miterlimit:10;" x1="-32" x2="160" y1="56" y2="56"/>
              <line style="fill:none;stroke:#000000;stroke-width:0.25;stroke-miterlimit:10;" x1="-32" x2="160" y1="60" y2="60"/>
              <line style="fill:none;stroke:#000000;stroke-width:0.25;stroke-miterlimit:10;" x1="-32" x2="160" y1="64" y2="64"/>
              <line style="fill:none;stroke:#000000;stroke-width:0.25;stroke-miterlimit:10;" x1="-32" x2="160" y1="68" y2="68"/>
              <line style="fill:none;stroke:#000000;stroke-width:0.25;stroke-miterlimit:10;" x1="-32" x2="160" y1="72" y2="72"/>
              <line style="fill:none;stroke:#000000;stroke-width:0.25;stroke-miterlimit:10;" x1="-32" x2="160" y1="76" y2="76"/>
              <line style="fill:none;stroke:#000000;stroke-width:0.25;stroke-miterlimit:10;" x1="-32" x2="160" y1="80" y2="80"/>
              <line style="fill:none;stroke:#000000;stroke-width:0.25;stroke-miterlimit:10;" x1="-32" x2="160" y1="84" y2="84"/>
              <line style="fill:none;stroke:#000000;stroke-width:0.25;stroke-miterlimit:10;" x1="-32" x2="160" y1="88" y2="88"/>
              <line style="fill:none;stroke:#000000;stroke-width:0.25;stroke-miterlimit:10;" x1="-32" x2="160" y1="92" y2="92"/>
              <line style="fill:none;stroke:#000000;stroke-width:0.25;stroke-miterlimit:10;" x1="-32" x2="160" y1="96" y2="96"/>
              <line style="fill:none;stroke:#000000;stroke-width:0.25;stroke-miterlimit:10;" x1="-32" x2="160" y1="100" y2="100"/>
              <line style="fill:none;stroke:#000000;stroke-width:0.25;stroke-miterlimit:10;" x1="-32" x2="160" y1="104" y2="104"/>
              <line style="fill:none;stroke:#000000;stroke-width:0.25;stroke-miterlimit:10;" x1="-32" x2="160" y1="108" y2="108"/>
              <line style="fill:none;stroke:#000000;stroke-width:0.25;stroke-miterlimit:10;" x1="-32" x2="160" y1="112" y2="112"/>
              <line style="fill:none;stroke:#000000;stroke-width:0.25;stroke-miterlimit:10;" x1="-32" x2="160" y1="116" y2="116"/>
              <line style="fill:none;stroke:#000000;stroke-width:0.25;stroke-miterlimit:10;" x1="-32" x2="160" y1="120" y2="120"/>
              <line style="fill:none;stroke:#000000;stroke-width:0.25;stroke-miterlimit:10;" x1="-32" x2="160" y1="124" y2="124"/>
              <line style="fill:none;stroke:#000000;stroke-width:0.25;stroke-miterlimit:10;" x1="-32" x2="160" y1="128" y2="128"/>
              <line style="fill:none;stroke:#000000;stroke-width:0.25;stroke-miterlimit:10;" x1="-32" x2="160" y1="132" y2="132"/>
              <line style="fill:none;stroke:#000000;stroke-width:0.25;stroke-miterlimit:10;" x1="-32" x2="160" y1="136" y2="136"/>
              <line style="fill:none;stroke:#000000;stroke-width:0.25;stroke-miterlimit:10;" x1="-32" x2="160" y1="140" y2="140"/>
              <line style="fill:none;stroke:#000000;stroke-width:0.25;stroke-miterlimit:10;" x1="-32" x2="160" y1="144" y2="144"/>
              <line style="fill:none;stroke:#000000;stroke-width:0.25;stroke-miterlimit:10;" x1="-32" x2="160" y1="148" y2="148"/>
              <line style="fill:none;stroke:#000000;stroke-width:0.25;stroke-miterlimit:10;" x1="-32" x2="160" y1="152" y2="152"/>
              <line style="fill:none;stroke:#000000;stroke-width:0.25;stroke-miterlimit:10;" x1="-32" x2="160" y1="156" y2="156"/>
            </g>
            <path d="M159.75-31.75v191.5h-191.5v-191.5H159.75 M160-32H-32v192h192V-32L160-32z"/>
          </g>
        </g>
        <g>
          <rect height="128" style="opacity:0.3;fill:#F44336;" width="4" x="0" y="0"/>
          <rect height="128" style="opacity:0.3;fill:#F44336;" width="4" x="124" y="0"/>
          <rect height="120" style="opacity:0.3;fill:#F44336;" transform="matrix(-1.836970e-16 1 -1 -1.836970e-16 66 -62)" width="4" x="62" y="-58"/>
          <rect height="120" style="opacity:0.3;fill:#F44336;" transform="matrix(-1.836970e-16 1 -1 -1.836970e-16 190 62)" width="4" x="62" y="66"/>
        </g>
      </g>
    </g>
  </g>
</svg>