<svg enable-background="new 0 0 128 128" viewBox="0 0 128 128" xmlns="http://www.w3.org/2000/svg" xmlns:xlink="http://www.w3.org/1999/xlink"><linearGradient id="i" x1="4" x2="26.144" y1="59.7" y2="59.7" gradientUnits="userSpaceOnUse"><stop stop-color="#B41F24" offset=".0126"/><stop stop-color="#F5803E" offset=".8543"/></linearGradient><path d="m20.22 52.14c6.07 9.99 7.56 17.07 4.09 20.77-1.37 1.46-6.2 5.83-6.2 5.83s-8.76-8.3-12.38-22.29c-1.53-5.85-1.79-10.16-1.72-12.86 0.05-1.8 2.18-3.44 3.83-2.79 2.93 1.16 8.28 4.58 12.38 11.34z" fill="url(#i)"/><g opacity=".2"><path d="m7.19 43.64m-0.12 0.09c2.91 1.26 7.3 4.55 10.59 9.97 5.14 8.46 6.76 14.72 4.46 17.16-0.66 0.7-2.34 2.27-3.82 3.64-2.62-3.14-7.32-9.73-9.67-18.79-1.43-5.52-1.68-9.51-1.62-11.92 0.01-0.02 0.03-0.04 0.06-0.06m-0.01-3.07c-1.47 0-3.01 1.41-3.05 2.93-0.07 2.7 0.19 7.01 1.71 12.87 3.62 13.98 12.38 22.28 12.38 22.28s4.83-4.38 6.2-5.83c3.48-3.7 1.98-10.78-4.09-20.77-4.1-6.76-9.44-10.18-12.37-11.34-0.25-0.1-0.51-0.14-0.78-0.14z" fill="#434343"/></g><path d="m68.09 9.35c-8.8 0-22.02 0-28.83 8.34-4.14 4.97-5.96 7.31-4.41 14.56 2.41 11.24 9.24 24.75 10.49 26.4 3.94 5.23 4.39 4.85 8.01 4.99 11.14 2.54 11.68-4.12 16.62 1.25 5.68 6.18 0.05 14.76-11.55 16.46-15.79 2.32-41.68-13.26-41.02-22.17-3.32 44.55 21.38 58.18 50.69 58.18 29.83 0 54.01-24.18 54.01-54.01 0-20.07-10.95-37.59-27.21-46.9-7.89-4.52-17.04-7.1-26.8-7.1z" fill="#F0974D"/><linearGradient id="h" x1="11.835" x2="26.835" y1="36.385" y2="83.885" gradientUnits="userSpaceOnUse"><stop stop-color="#B41F24" offset=".0126"/><stop stop-color="#F5803E" offset=".8543"/></linearGradient><path d="m24.93 51.63c3.67 11.09 3.66 18.31-0.31 21.11-1.57 1.1-6.93 4.25-6.93 4.25s-6.51-10.06-7.11-24.48c-0.25-6.04 0.35-10.28 0.96-12.89 0.4-1.73 2.71-2.84 4.12-1.83 2.49 1.8 6.79 6.34 9.27 13.84z" fill="url(#h)"/><radialGradient id="f" cx="25.411" cy="76.729" r="15.691" gradientTransform="matrix(.6959 -.7181 .4624 .4482 -27.756 60.59)" gradientUnits="userSpaceOnUse"><stop stop-color="#F5803E" offset="0"/><stop stop-color="#EE6E24" offset=".5646"/><stop stop-color="#E76A25" offset=".6986"/><stop stop-color="#D86126" offset=".8451"/><stop stop-color="#C35327" offset=".9969"/><stop stop-color="#C25327" offset="1"/></radialGradient><path d="m36.73 78.04s-1.05 2.44-6.01 7.7-9.06 6.39-9.06 6.39-3.59-3.87-5.44-10.8c-1.69-6.32 0.88-7.27 0.88-7.27l6.47-5.71s3.94-0.35 8.67 3.03c4.49 3.2 4.49 6.66 4.49 6.66z" fill="url(#f)"/><radialGradient id="c" cx="46.859" cy="90.744" r="17.667" gradientTransform="matrix(.5642 -.8257 1.9713 1.347 -158.46 7.2048)" gradientUnits="userSpaceOnUse"><stop stop-color="#F59F6E" offset=".3318"/><stop stop-color="#C25327" offset=".9558"/></radialGradient><path d="m58.19 80.21 0.59 0.77c6.78 8.83 6.95 21.07 0.4 30.08l-3.87 5.32s-4.76 2.34-19.95-7.69c-8.88-5.87-13.71-16.56-13.71-16.56s3.86-1.38 9.27-7.01 5.81-8.09 5.81-8.09 4.82-2.15 11.43 2.23c5.75 3.81 10.03 0.95 10.03 0.95z" fill="url(#c)"/><g opacity=".2"><path d="m14.39 40.6c2.45 1.96 5.75 6.1 7.69 11.97 2.93 8.86 2.82 13.31 2.21 15.49-0.44 1.58 0.47 3.22 2.04 3.69 1.42 0.42 2.82 1.12 4.17 2.08 2.41 1.72 3.02 3.4 3.18 4.04 0.25 1.06 1.06 1.89 2.1 2.19 0.27 0.08 0.54 0.11 0.81 0.11 0.56 0 1.12-0.16 1.6-0.46 0.33-0.09 0.92-0.2 1.72-0.2 1.45 0 3.77 0.39 6.58 2.26 2.49 1.65 5.07 2.49 7.68 2.49 1.14 0 2.14-0.17 2.98-0.39 5.18 7.64 5.07 17.92-0.4 25.45l-3.14 4.32c-1.7-0.02-6.59-0.82-16.59-7.43-8.02-5.3-12.59-15.2-12.63-15.3-0.13-0.29-0.31-0.56-0.52-0.79-0.03-0.03-3.14-3.5-4.75-9.54-0.83-3.1-0.31-4.1-0.31-4.1 0.68-0.92 0.78-2.14 0.26-3.16-1.88-3.65-5.08-11.23-5.49-20.91-0.24-5.57 0.29-9.46 0.81-11.81m0.02-3.19c-1.25 0-2.58 0.94-2.87 2.22-0.6 2.61-1.21 6.85-0.96 12.89 0.43 10.33 3.89 18.4 5.82 22.16-0.61 0.82-1.24 2.67-0.18 6.66 1.85 6.92 5.44 10.8 5.44 10.8s4.83 10.69 13.71 16.56c10.35 6.84 15.86 7.93 18.32 7.93 1.15 0 1.63-0.24 1.63-0.24l3.87-5.32c6.55-9.01 6.38-21.25-0.4-30.08l-0.59-0.77s-1.54 1.03-4.01 1.03c-1.65 0-3.72-0.46-6.02-1.99-3.33-2.21-6.21-2.76-8.24-2.76-2 0-3.18 0.53-3.18 0.53l-0.13 0.13c-0.3-1.23-1.25-3.57-4.35-5.78-1.88-1.34-3.63-2.09-5.07-2.51 1.06-3.79 0.28-9.59-2.25-17.24-2.48-7.5-6.77-12.04-9.27-13.84-0.4-0.26-0.83-0.38-1.27-0.38z" fill="#434343"/></g><radialGradient id="a" cx="68.31" cy="83.387" r="31.85" gradientTransform="matrix(.4351 .9004 -.7231 .3494 98.885 -7.2561)" gradientUnits="userSpaceOnUse"><stop stop-color="#F0F0CD" offset=".0209"/><stop stop-color="#EDE28E" offset=".3779"/><stop stop-color="#EADE88" offset=".4864"/><stop stop-color="#E2D478" offset=".6456"/><stop stop-color="#D6C65D" offset=".8349"/><stop stop-color="#CAB741" offset=".9986"/></radialGradient><path d="m55.85 80.43c-0.73 2.25-0.01 4.69 0.59 6.98s1.14 4.77 0.27 6.97c-0.91 2.32-3.32 4.12-3.28 6.62 0.03 2.17 1.95 3.95 2.09 6.11 0.23 3.53-4.25 6.31-3.47 9.77 0.68 3.03 4.65 3.7 7.75 3.61 7.41-0.22 13.15 1 20.29-0.98 1.51-0.42 4.6 0.05 6.58-0.89 2.91-1.38 3.24-2.87 4.6-3.53 7.48-3.57 13.74-7.83 14.7-10.21 2.09-5.19-5.71-13.29-10.04-17.05-7.95-6.9-10.92-7.14-17.83-10.3-2.34-1.07-6.07-1.58-8.5-2.42s-6.7 4.47-10.57 3.58c-1.82-0.42-2.8 0.57-3.18 1.74z" fill="url(#a)"/><radialGradient id="p" cx="100.84" cy="68.844" r="42.408" gradientTransform="matrix(1 0 0 .6311 0 25.397)" gradientUnits="userSpaceOnUse"><stop stop-color="#F0F0CD" offset=".0209"/><stop stop-color="#EDE28E" offset=".3779"/><stop stop-color="#EADE88" offset=".4864"/><stop stop-color="#E2D478" offset=".6456"/><stop stop-color="#D6C65D" offset=".8349"/><stop stop-color="#CAB741" offset=".9986"/></radialGradient><path d="m70.32 75.51c1.6 2 4.2 2.92 6.6 3.85s4.92 2.02 6.4 4.1c1.56 2.19 1.81 5.28 4.07 6.8 1.96 1.32 4.65 0.85 6.67 2.07 3.3 2 6.13 7.78 9.67 9.28 3.1 1.32 6.76-1.2 8.48-3.78 1.36-2.03 4.39-3.98 5.75-5.9 3.68-5.21 1.07-6.13 3.43-12.68 1.13-3.14 3.32-10.78 2.4-14.46-1.44-5.78-2.09-16.01-3.46-17.97-3.47-4.94-7.94-3.93-16.25-1.79-10.6 2.73-17.08 6.38-23.69 10.36-5.39 3.25-8.27 8-10.41 9.48s2.42 4.15 0.6 6.92c-1.04 1.59-1.1 2.68-0.26 3.72z" fill="url(#p)"/><radialGradient id="o" cx="90.894" cy="36.854" r="28.941" gradientUnits="userSpaceOnUse"><stop stop-color="#EDE28E" offset=".3779"/><stop stop-color="#EADE88" offset=".4864"/><stop stop-color="#E2D478" offset=".6456"/><stop stop-color="#D6C65D" offset=".8349"/><stop stop-color="#CAB741" offset=".9986"/></radialGradient><path d="m73.43 65.46c2.74-0.69 2.57-3.4 4.7-5.27s4.49-3.8 7.24-4.34c2.9-0.57 5.97 0.47 8.6-1.03 2.28-1.3 3.23-4.03 5.45-5.43 3.62-2.28 18.45-0.01 19.59-4.11 1.4-5.03-1.67-12.69-6.26-16.99-1.48-1.38-1.01-3.89-5.08-6.59-2.84-1.88-4.12-1.54-6.45-3.42-12.8-10.27-17.47-9.95-23.98-10.78-6.57-0.83-5.56 6.45-7.85 15.15-2.93 11.1-5.99 15.06-6.86 27.87-0.32 4.68 0.36 9.04 0.89 12.7 0.1 0.68 0.69 1.2 1.37 1.13 0.59-0.06 1.51 0.24 2.93 1.39 1.46 1.18 4.29 0.08 5.71-0.28z" fill="url(#o)"/><radialGradient id="n" cx="51.677" cy="11.534" r="56.404" gradientTransform="matrix(-.00715 -1 .4721 -.0033754 46.602 63.249)" gradientUnits="userSpaceOnUse"><stop stop-color="#F0F0CD" offset=".0209"/><stop stop-color="#EDE28E" offset=".3779"/><stop stop-color="#EADE88" offset=".4864"/><stop stop-color="#E2D478" offset=".6456"/><stop stop-color="#D6C65D" offset=".8349"/><stop stop-color="#CAB741" offset=".9986"/></radialGradient><path d="m65.67 53.59c0.05-2.84 0.21-5.88 1.66-8.28 1.53-2.53 5.92-34.96 5.92-34.96s0.11-3.64-13.85-2.93c-9.16 0.47-16.17 3.45-19.04 5.87-5.07 4.27-8.97 8.2-7.96 17.14 0.6 5.36 0.25 8.24 2.9 13.37 1.95 3.77 1.13 9.2 2 11.02 2.15 4.45 5.04 4.65 6.52 6.07 4.58 4.38 5.09 3.14 12.29 3.77 5.93 0.52 6.05-0.04 7.1-0.2 1.86-0.27 2.41-8.03 2.46-10.87z" fill="url(#n)"/><path d="m113.97 43.4c-1.12 1.62-3.86 2-7.21-0.16-1.65-1.07-2.02-3.33-0.91-4.95s3.33-2.02 4.95-0.91c1.63 1.12 4.29 4.4 3.17 6.02z" fill="#D8C027"/><path d="m114.12 41.97c-1.12 1.62-3.58 1.86-6.69 0.17-1.73-0.94-2.02-3.33-0.91-4.95 1.12-1.62 3.18-1.75 4.95-0.91 3.22 1.54 3.76 4.07 2.65 5.69z" fill="#E2CD3E"/><ellipse transform="matrix(.9658 -.2592 .2592 .9658 -9.5319 24.507)" cx="88.16" cy="48.4" rx="5.01" ry="3.64" fill="#E2CD3E" opacity=".5"/><ellipse transform="matrix(.3162 -.9487 .9487 .3162 -18.095 81.35)" cx="47.38" cy="53.23" rx="3.64" ry="5.01" fill="#E2CD3E" opacity=".5"/><ellipse transform="matrix(.7929 -.6093 .6093 .7929 -34.314 77.428)" cx="96.76" cy="89.2" rx="3.27" ry="4.49" fill="#E2CD3E" opacity=".5"/><ellipse transform="matrix(.6434 -.7655 .7655 .6434 -7.2635 112.07)" cx="116.66" cy="63.83" rx="3.57" ry="2.6" fill="#E2CD3E" opacity=".5"/><g opacity=".57"><path d="m65.12 37.67c2.02 1.39 2.6 4.19-0.14 7.87-1.46 1.97-4.19 2.95-6.2 1.56-2.02-1.39-2.53-4.15-1.14-6.17 1.4-2.02 5.46-4.65 7.48-3.26z" fill="#F3EC9C"/></g><path d="m118.57 54.5c-1.04 1.23-2.9 1.44-5.15-0.58-1.2-1.08-1.67-2.93-0.63-4.16s2.88-1.39 4.11-0.36 2.7 3.86 1.67 5.1z" fill="#D8C027"/><ellipse transform="matrix(.7107 -.7035 .7035 .7107 -2.5201 96.762)" cx="116.39" cy="51.45" rx="2.97" ry="3.77" fill="#E2CD3E" opacity=".5"/><ellipse transform="matrix(.3815 -.9244 .9244 .3815 -64.079 130.47)" cx="65.46" cy="113.12" rx="2.97" ry="3.77" fill="#E2CD3E" opacity=".5"/><path d="m72.51 115.39c-0.87-2.03 0.02-4.44 3.88-5.93 2.06-0.8 4.61-0.24 5.48 1.79s-0.07 4.38-2.1 5.25c-2.03 0.86-6.39 0.91-7.26-1.11z" fill="#D8C027"/><path d="m93.79 99.83c1.04-1.95 3.48-2.75 7.06-0.67 1.91 1.11 3.06 3.45 2.02 5.39-1.04 1.95-3.46 2.68-5.41 1.64s-4.71-4.41-3.67-6.36z" fill="#D8C027"/><path d="m102.35 95.66c0.28-1.59 1.79-2.7 4.74-2.07 1.57 0.34 2.91 1.7 2.63 3.28s-1.79 2.64-3.38 2.36-4.27-1.98-3.99-3.57z" fill="#D8C027"/><path d="m116.21 75.48c-1.5-0.58-2.3-2.28-1.11-5.05 0.64-1.48 2.23-2.52 3.73-1.94s2.25 2.27 1.67 3.77c-0.59 1.5-2.79 3.8-4.29 3.22z" fill="#D8C027"/><g fill="#F3EC9C"><ellipse transform="matrix(.9806 -.196 .196 .9806 -1.6673 10.217)" cx="50.79" cy="13.53" rx="2.71" ry="2.71"/><ellipse transform="matrix(.9806 -.196 .196 .9806 -1.5968 17.465)" cx="87.44" cy="16.8" rx="2.71" ry="2.71"/></g><path d="m72.54 14.92c-0.49 1.99-2.5 3.2-4.49 2.71s-4.07-3.4-3.58-5.39 3.37-2.31 5.36-1.82c1.99 0.5 3.2 2.51 2.71 4.5z" fill="#D8C027"/><path d="m72.78 13.61c-0.49 1.99-2.5 3.2-4.49 2.71s-4.31-2.69-3.82-4.67c0.49-1.99 3.07-2.59 5.09-2.3 3.07 0.43 3.71 2.27 3.22 4.26z" fill="#E2CD3E"/><path d="m73.15 56.62c-0.4 1.6-2.02 2.58-3.62 2.18s-3.28-2.74-2.88-4.34 2.72-1.86 4.32-1.46 2.57 2.02 2.18 3.62z" fill="#D8C027"/><g opacity=".2"><path d="m62.81 7.34v3c6.42 0 7.8 1.19 7.82 1.21 0.56 0.51 1.29 0.8 2.04 0.8 0.13 0 0.25-0.01 0.38-0.02 0.88-0.11 1.66-0.61 2.14-1.35 0.22-0.35 0.37-0.53 1.09-0.53 0.18 0 0.37 0.01 0.58 0.04 0.58 0.07 1.15 0.14 1.72 0.2 5.46 0.62 9.76 1.12 20.75 9.96 1.59 1.28 2.86 1.78 3.98 2.23 0.87 0.34 1.62 0.64 2.69 1.35 1.9 1.25 2.35 2.27 2.87 3.45 0.38 0.86 0.85 1.92 1.82 2.83 3.93 3.67 6.46 10.18 5.43 13.95-0.31 1.07-0.01 2.23 0.81 3.01 0.31 0.29 0.59 0.63 0.88 1.03 0.47 0.98 1.06 5.1 1.45 7.84 0.46 3.23 0.94 6.56 1.6 9.19 0.57 2.28-0.76 8.38-2.31 12.72-1.18 3.28-1.27 5.37-1.35 7.05-0.08 1.79-0.13 2.69-1.7 4.92-0.46 0.64-1.39 1.48-2.3 2.29-1.27 1.13-2.58 2.3-3.5 3.68-0.95 1.42-2.61 2.62-3.88 2.78-0.8 0.11-1.53 0.53-2.01 1.18s-0.68 1.47-0.56 2.27c0.09 0.56 0.07 1.02-0.06 1.33-0.53 1.07-4.96 4.7-13.22 8.65-1.05 0.5-1.73 1.22-2.27 1.79-0.59 0.62-1.09 1.15-2.32 1.73-0.64 0.3-1.97 0.34-3.04 0.38-1.09 0.03-2.12 0.07-3.06 0.33-2.65 0.73-5.23 1.05-8.64 1.05-1.35 0-2.71-0.05-4.15-0.1-1.53-0.05-3.11-0.11-4.78-0.11-0.66 0-1.33 0.01-2.01 0.03-0.15 0-0.29 0.01-0.44 0.01-2.6 0-4.16-0.66-4.3-1.27-0.13-0.59 0.58-1.71 1.27-2.8 1.09-1.71 2.44-3.84 2.26-6.51-0.11-1.67-0.81-3.03-1.37-4.13-0.35-0.69-0.71-1.4-0.72-1.82-0.01-0.56 0.59-1.41 1.23-2.31 0.64-0.91 1.36-1.93 1.85-3.17 1.19-3.03 0.54-6.15-0.16-8.83l-0.1-0.38c-0.45-1.72-0.88-3.35-0.62-4.61 0.43 0.08 0.87 0.12 1.32 0.12 2.65 0 5.03-1.43 6.93-2.59 0.66-0.4 1.61-0.98 2.1-1.15 0.06 0.02 0.11 0.03 0.17 0.05l0.14 0.04c0.29 0.09 0.58 0.13 0.87 0.13 0.93 0 1.82-0.44 2.4-1.21 0.69-0.92 0.79-2.15 0.27-3.17 0.05-0.1 0.13-0.25 0.26-0.44 1.92-2.92 0.39-5.76-0.34-7.12-0.14-0.25-0.34-0.64-0.38-0.73-0.3-1.35-1.49-2.32-2.87-2.34h-0.08c-1.56-1.22-2.91-1.83-4.21-1.9-0.41-0.21-0.87-0.32-1.34-0.32-0.09 0-0.18 0-0.27 0.01-0.58 0.05-1.12 0.27-1.57 0.62-0.06 0.02-0.11 0.03-0.16 0.04-0.33 0.09-0.65 0.18-1.75 0.18-0.92 0-2.17-0.07-3.72-0.2-1.73-0.15-3.09-0.2-4.18-0.24-3.25-0.12-3.59-0.13-6.29-2.71-0.73-0.7-1.52-1.13-2.28-1.56-1.35-0.75-2.51-1.39-3.6-3.61-0.12-0.39-0.2-1.61-0.25-2.5-0.16-2.59-0.35-5.81-1.81-8.64-1.82-3.52-2-5.64-2.29-9.15-0.08-0.94-0.17-2.01-0.3-3.18-0.83-7.4 2.06-10.42 6.91-14.51 1.87-1.58 7.89-4.69 17.26-5.17 1.15-0.06 2.24-0.09 3.25-0.09v-3m0.02 0c-1.03 0-2.16 0.03-3.4 0.09-9.16 0.47-16.17 3.45-19.04 5.87-5.07 4.27-8.97 8.2-7.96 17.14 0.6 5.36 0.25 8.24 2.9 13.37 1.95 3.77 1.13 9.2 2 11.02 2.15 4.45 5.04 4.65 6.52 6.07 4.58 4.38 5.09 3.14 12.29 3.77 1.8 0.16 3.06 0.22 3.98 0.22 2.11 0 2.38-0.31 3.12-0.42 0.23-0.04 0.45-0.19 0.64-0.44 0.22 0.2 0.51 0.32 0.81 0.32 0.04 0 0.08 0 0.12-0.01 0.05 0 0.09-0.01 0.14-0.01 0.59 0 1.48 0.34 2.79 1.4 0.46 0.37 1.07 0.5 1.71 0.51 0.34 1.5 2.49 3.5 1.14 5.55-0.95 1.45-1.06 2.49-0.42 3.46-0.19-0.06-0.38-0.11-0.55-0.17-0.18-0.06-0.37-0.09-0.57-0.09-2.28 0-5.77 3.78-9.1 3.78-0.3 0-0.6-0.03-0.9-0.1-0.29-0.07-0.56-0.1-0.81-0.1-1.31 0-2.06 0.85-2.38 1.84-0.73 2.25-0.01 4.69 0.59 6.98s1.14 4.77 0.27 6.97c-0.91 2.32-3.32 4.12-3.28 6.62 0.03 2.17 1.95 3.95 2.09 6.11 0.23 3.53-4.25 6.31-3.47 9.77 0.64 2.86 4.22 3.61 7.22 3.61 0.18 0 0.36 0 0.53-0.01 0.65-0.02 1.29-0.03 1.92-0.03 3.16 0 6.05 0.2 8.93 0.2 3.05 0 6.09-0.23 9.45-1.16 1.51-0.42 4.6 0.05 6.58-0.89 2.91-1.38 3.24-2.87 4.6-3.53 7.48-3.57 13.74-7.83 14.7-10.21 0.36-0.91 0.41-1.9 0.25-2.95 2.38-0.32 4.71-2.18 5.98-4.09 1.36-2.03 4.39-3.98 5.75-5.9 3.68-5.21 1.07-6.13 3.43-12.68 1.13-3.14 3.32-10.78 2.4-14.46-1.44-5.78-2.09-16.01-3.46-17.97-0.42-0.6-0.86-1.11-1.31-1.54 1.4-5.03-1.67-12.69-6.26-16.99-1.48-1.38-1.01-3.89-5.08-6.59-2.84-1.88-4.12-1.54-6.45-3.42-12.8-10.24-17.47-9.92-23.98-10.75-0.34-0.04-0.66-0.06-0.96-0.06-1.74 0-2.84 0.7-3.61 1.91-0.96-0.88-3.43-2.01-9.86-2.01z" fill="#434343"/></g><g display="none"><g display="inline"><g opacity=".6"><circle cx="64" cy="197.37" r="28" fill="none" opacity=".61" stroke="#010101" stroke-miterlimit="10" stroke-width=".2625"/><line x1="84" x2="84" y1="133.37" y2="261.37" fill="none" opacity=".61" stroke="#010101" stroke-miterlimit="10" stroke-width=".25"/><line x1="44" x2="44" y1="133.37" y2="261.37" fill="none" opacity=".61" stroke="#010101" stroke-miterlimit="10" stroke-width=".25"/><line x1="64" x2="64" y1="133.37" y2="261.37" fill="none" opacity=".61" stroke="#010101" stroke-miterlimit="10" stroke-width=".25"/><line x1="128" y1="197.37" y2="197.37" fill="none" opacity=".61" stroke="#010101" stroke-miterlimit="10" stroke-width=".25"/><line x1="128" y1="177.37" y2="177.37" fill="none" opacity=".61" stroke="#010101" stroke-miterlimit="10" stroke-width=".25"/><line x1="128" y1="217.12" y2="217.12" fill="none" opacity=".61" stroke="#010101" stroke-miterlimit="10" stroke-width=".25"/><line x1="128" y1="261.37" y2="133.37" fill="none" opacity=".61" stroke="#010101" stroke-miterlimit="10" stroke-width=".25"/><line x2="128" y1="261.37" y2="133.37" fill="none" opacity=".61" stroke="#010101" stroke-miterlimit="10" stroke-width=".25"/><g opacity=".61"><path d="m64 137.63c32.94 0 59.74 26.8 59.74 59.74s-26.8 59.75-59.74 59.75-59.74-26.8-59.74-59.74 26.8-59.75 59.74-59.75m0-0.26c-33.14 0-60 26.86-60 60s26.86 60 60 60 60-26.86 60-60-26.86-60-60-60z" fill="#010101"/></g><path d="m107.97 249.34h-87.94c-4.42 0-8.03-3.61-8.03-8.03v-87.91c0-4.42 3.61-8.03 8.03-8.03h87.94c4.42 0 8.03 3.61 8.03 8.03v87.91c0 4.42-3.61 8.03-8.03 8.03z" fill="none" opacity=".61" stroke="#010101" stroke-miterlimit="10" stroke-width=".2578"/><path d="m100 257.37h-72c-4.4 0-8-3.6-8-8v-104c0-4.4 3.6-8 8-8h72c4.4 0 8 3.6 8 8v104c0 4.4-3.6 8-8 8z" fill="none" opacity=".61" stroke="#010101" stroke-miterlimit="10" stroke-width=".2628"/><path d="m113.77 241.37h-99.54c-5.63 0-10.23-4.6-10.23-10.23v-67.48c0-5.63 4.6-10.23 10.23-10.23h99.54c5.63 0 10.23 4.6 10.23 10.23v67.48c0 5.63-4.6 10.23-10.23 10.23z" fill="none" opacity=".61" stroke="#010101" stroke-miterlimit="10" stroke-width=".2627"/></g><g opacity=".2"><defs><rect id="g" y="133.37" width="128" height="128" opacity=".2"/></defs><clipPath id="m"><use xlink:href="#g"/></clipPath><g clip-path="url(#m)"><g fill="none" stroke="#010101" stroke-miterlimit="10" stroke-width=".25"><line x1="-28" x2="-28" y1="293.37" y2="101.37"/><line x1="-24" x2="-24" y1="293.37" y2="101.37"/><line x1="-20" x2="-20" y1="293.37" y2="101.37"/><line x1="-16" x2="-16" y1="293.37" y2="101.37"/><line x1="-12" x2="-12" y1="293.37" y2="101.37"/><line x1="-8" x2="-8" y1="293.37" y2="101.37"/><line x1="-4" x2="-4" y1="293.37" y2="101.37"/><line y1="293.37" y2="101.37"/><line x1="4" x2="4" y1="293.37" y2="101.37"/><line x1="8" x2="8" y1="293.37" y2="101.37"/><line x1="12" x2="12" y1="293.37" y2="101.37"/><line x1="16" x2="16" y1="293.37" y2="101.37"/><line x1="20" x2="20" y1="293.37" y2="101.37"/><line x1="24" x2="24" y1="293.37" y2="101.37"/><line x1="28" x2="28" y1="293.37" y2="101.37"/><line x1="32" x2="32" y1="293.37" y2="101.37"/><line x1="36" x2="36" y1="293.37" y2="101.37"/><line x1="40" x2="40" y1="293.37" y2="101.37"/><line x1="44" x2="44" y1="293.37" y2="101.37"/><line x1="48" x2="48" y1="293.37" y2="101.37"/><line x1="52" x2="52" y1="293.37" y2="101.37"/><line x1="56" x2="56" y1="293.37" y2="101.37"/><line x1="60" x2="60" y1="293.37" y2="101.37"/><line x1="64" x2="64" y1="293.37" y2="101.37"/><line x1="68" x2="68" y1="293.37" y2="101.37"/><line x1="72" x2="72" y1="293.37" y2="101.37"/><line x1="76" x2="76" y1="293.37" y2="101.37"/><line x1="80" x2="80" y1="293.37" y2="101.37"/><line x1="84" x2="84" y1="293.37" y2="101.37"/><line x1="88" x2="88" y1="293.37" y2="101.37"/><line x1="92" x2="92" y1="293.37" y2="101.37"/><line x1="96" x2="96" y1="293.37" y2="101.37"/><line x1="100" x2="100" y1="293.37" y2="101.37"/><line x1="104" x2="104" y1="293.37" y2="101.37"/><line x1="108" x2="108" y1="293.37" y2="101.37"/><line x1="112" x2="112" y1="293.37" y2="101.37"/><line x1="116" x2="116" y1="293.37" y2="101.37"/><line x1="120" x2="120" y1="293.37" y2="101.37"/><line x1="124" x2="124" y1="293.37" y2="101.37"/><line x1="128" x2="128" y1="293.37" y2="101.37"/><line x1="132" x2="132" y1="293.37" y2="101.37"/><line x1="136" x2="136" y1="293.37" y2="101.37"/><line x1="137" x2="137" y1="299.42" y2="107.42"/><line x1="144" x2="144" y1="293.37" y2="101.37"/><line x1="148" x2="148" y1="293.37" y2="101.37"/><line x1="152" x2="152" y1="293.37" y2="101.37"/><line x1="156" x2="156" y1="293.37" y2="101.37"/></g><g fill="none" stroke="#010101" stroke-miterlimit="10" stroke-width=".25"><line x1="-32" x2="160" y1="105.37" y2="105.37"/><line x1="-32" x2="160" y1="109.37" y2="109.37"/><line x1="-32" x2="160" y1="113.37" y2="113.37"/><line x1="-32" x2="160" y1="117.37" y2="117.37"/><line x1="-32" x2="160" y1="121.37" y2="121.37"/><line x1="-32" x2="160" y1="125.37" y2="125.37"/><line x1="-32" x2="160" y1="129.37" y2="129.37"/><line x1="-32" x2="160" y1="133.37" y2="133.37"/><line x1="-32" x2="160" y1="137.37" y2="137.37"/><line x1="-32" x2="160" y1="141.37" y2="141.37"/><line x1="-32" x2="160" y1="145.37" y2="145.37"/><line x1="-32" x2="160" y1="149.37" y2="149.37"/><line x1="-32" x2="160" y1="153.37" y2="153.37"/><line x1="-32" x2="160" y1="157.37" y2="157.37"/><line x1="-32" x2="160" y1="161.37" y2="161.37"/><line x1="-32" x2="160" y1="165.37" y2="165.37"/><line x1="-32" x2="160" y1="169.37" y2="169.37"/><line x1="-32" x2="160" y1="173.37" y2="173.37"/><line x1="-32" x2="160" y1="177.37" y2="177.37"/><line x1="-32" x2="160" y1="181.37" y2="181.37"/><line x1="-32" x2="160" y1="185.37" y2="185.37"/><line x1="-32" x2="160" y1="189.37" y2="189.37"/><line x1="-32" x2="160" y1="193.37" y2="193.37"/><line x1="-32" x2="160" y1="197.37" y2="197.37"/><line x1="-32" x2="160" y1="201.37" y2="201.37"/><line x1="-32" x2="160" y1="205.37" y2="205.37"/><line x1="-32" x2="160" y1="209.37" y2="209.37"/><line x1="-32" x2="160" y1="213.37" y2="213.37"/><line x1="-32" x2="160" y1="217.37" y2="217.37"/><line x1="-32" x2="160" y1="221.37" y2="221.37"/><line x1="-32" x2="160" y1="225.37" y2="225.37"/><line x1="-32" x2="160" y1="229.37" y2="229.37"/><line x1="-32" x2="160" y1="233.37" y2="233.37"/><line x1="-32" x2="160" y1="237.37" y2="237.37"/><line x1="-32" x2="160" y1="241.37" y2="241.37"/><line x1="-32" x2="160" y1="245.37" y2="245.37"/><line x1="-32" x2="160" y1="249.37" y2="249.37"/><line x1="-32" x2="160" y1="253.37" y2="253.37"/><line x1="-32" x2="160" y1="257.37" y2="257.37"/><line x1="-32" x2="160" y1="261.37" y2="261.37"/><line x1="-32" x2="160" y1="265.37" y2="265.37"/><line x1="-32" x2="160" y1="269.37" y2="269.37"/><line x1="-32" x2="160" y1="273.37" y2="273.37"/><line x1="-32" x2="160" y1="277.37" y2="277.37"/><line x1="-32" x2="160" y1="281.37" y2="281.37"/><line x1="-32" x2="160" y1="285.37" y2="285.37"/><line x1="-32" x2="160" y1="289.37" y2="289.37"/></g><path d="m159.75 101.62v191.5h-191.5v-191.5h191.5m0.25-0.25h-192v192h192v-192z" fill="#010101"/></g></g><g fill="#EF4438"><rect y="133.37" width="4" height="128" opacity=".3"/><rect x="124" y="133.37" width="4" height="128" opacity=".3"/><rect transform="matrix(-1.837e-16 1 -1 -1.837e-16 199.37 71.371)" x="62" y="75.37" width="4" height="120" opacity=".3"/><rect transform="matrix(-1.837e-16 1 -1 -1.837e-16 323.37 195.37)" x="62" y="199.37" width="4" height="120" opacity=".3"/></g></g><g display="inline"><g opacity=".6"><circle cx="64" cy="64" r="28" fill="none" opacity=".61" stroke="#010101" stroke-miterlimit="10" stroke-width=".2625"/><line x1="84" x2="84" y2="128" fill="none" opacity=".61" stroke="#010101" stroke-miterlimit="10" stroke-width=".25"/><line x1="44" x2="44" y2="128" fill="none" opacity=".61" stroke="#010101" stroke-miterlimit="10" stroke-width=".25"/><line x1="64" x2="64" y2="128" fill="none" opacity=".61" stroke="#010101" stroke-miterlimit="10" stroke-width=".25"/><line x1="128" y1="64" y2="64" fill="none" opacity=".61" stroke="#010101" stroke-miterlimit="10" stroke-width=".25"/><line x1="128" y1="44" y2="44" fill="none" opacity=".61" stroke="#010101" stroke-miterlimit="10" stroke-width=".25"/><line x1="128" y1="83.75" y2="83.75" fill="none" opacity=".61" stroke="#010101" stroke-miterlimit="10" stroke-width=".25"/><line x1="128" y1="128" fill="none" opacity=".61" stroke="#010101" stroke-miterlimit="10" stroke-width=".25"/><line x2="128" y1="128" fill="none" opacity=".61" stroke="#010101" stroke-miterlimit="10" stroke-width=".25"/><g opacity=".61"><path d="M64,4.26c32.94,0,59.74,26.8,59.74,59.74S96.94,123.74,64,123.74S4.26,96.94,4.26,64 S31.06,4.26,64,4.26 M64,4C30.86,4,4,30.86,4,64s26.86,60,60,60s60-26.86,60-60S97.14,4,64,4L64,4z" fill="#010101"/></g><path d="m107.97 115.97h-87.94c-4.42 0-8.03-3.61-8.03-8.03v-87.91c0-4.42 3.61-8.03 8.03-8.03h87.94c4.42 0 8.03 3.61 8.03 8.03v87.91c0 4.42-3.61 8.03-8.03 8.03z" fill="none" opacity=".61" stroke="#010101" stroke-miterlimit="10" stroke-width=".2578"/><path d="m100 124h-72c-4.4 0-8-3.6-8-8v-104c0-4.4 3.6-8 8-8h72c4.4 0 8 3.6 8 8v104c0 4.4-3.6 8-8 8z" fill="none" opacity=".61" stroke="#010101" stroke-miterlimit="10" stroke-width=".2628"/><path d="M113.77,108H14.23 C8.6,108,4,103.4,4,97.77V30.28c0-5.63,4.6-10.23,10.23-10.23h99.54c5.63,0,10.23,4.6,10.23,10.23v67.48 C124,103.4,119.4,108,113.77,108z" fill="none" opacity=".61" stroke="#010101" stroke-miterlimit="10" stroke-width=".2627"/></g><g opacity=".2"><defs><rect id="e" width="128" height="128" opacity=".2"/></defs><clipPath id="l"><use xlink:href="#e"/></clipPath><g clip-path="url(#l)"><g fill="none" stroke="#010101" stroke-miterlimit="10" stroke-width=".25"><line x1="-28" x2="-28" y1="160" y2="-32"/><line x1="-24" x2="-24" y1="160" y2="-32"/><line x1="-20" x2="-20" y1="160" y2="-32"/><line x1="-16" x2="-16" y1="160" y2="-32"/><line x1="-12" x2="-12" y1="160" y2="-32"/><line x1="-8" x2="-8" y1="160" y2="-32"/><line x1="-4" x2="-4" y1="160" y2="-32"/><line y1="160" y2="-32"/><line x1="4" x2="4" y1="160" y2="-32"/><line x1="8" x2="8" y1="160" y2="-32"/><line x1="12" x2="12" y1="160" y2="-32"/><line x1="16" x2="16" y1="160" y2="-32"/><line x1="20" x2="20" y1="160" y2="-32"/><line x1="24" x2="24" y1="160" y2="-32"/><line x1="28" x2="28" y1="160" y2="-32"/><line x1="32" x2="32" y1="160" y2="-32"/><line x1="36" x2="36" y1="160" y2="-32"/><line x1="40" x2="40" y1="160" y2="-32"/><line x1="44" x2="44" y1="160" y2="-32"/><line x1="48" x2="48" y1="160" y2="-32"/><line x1="52" x2="52" y1="160" y2="-32"/><line x1="56" x2="56" y1="160" y2="-32"/><line x1="60" x2="60" y1="160" y2="-32"/><line x1="64" x2="64" y1="160" y2="-32"/><line x1="68" x2="68" y1="160" y2="-32"/><line x1="72" x2="72" y1="160" y2="-32"/><line x1="76" x2="76" y1="160" y2="-32"/><line x1="80" x2="80" y1="160" y2="-32"/><line x1="84" x2="84" y1="160" y2="-32"/><line x1="88" x2="88" y1="160" y2="-32"/><line x1="92" x2="92" y1="160" y2="-32"/><line x1="96" x2="96" y1="160" y2="-32"/><line x1="100" x2="100" y1="160" y2="-32"/><line x1="104" x2="104" y1="160" y2="-32"/><line x1="108" x2="108" y1="160" y2="-32"/><line x1="112" x2="112" y1="160" y2="-32"/><line x1="116" x2="116" y1="160" y2="-32"/><line x1="120" x2="120" y1="160" y2="-32"/><line x1="124" x2="124" y1="160" y2="-32"/><line x1="128" x2="128" y1="160" y2="-32"/><line x1="132" x2="132" y1="160" y2="-32"/><line x1="136" x2="136" y1="160" y2="-32"/><line x1="137" x2="137" y1="166.05" y2="-25.95"/><line x1="144" x2="144" y1="160" y2="-32"/><line x1="148" x2="148" y1="160" y2="-32"/><line x1="152" x2="152" y1="160" y2="-32"/><line x1="156" x2="156" y1="160" y2="-32"/></g><g fill="none" stroke="#010101" stroke-miterlimit="10" stroke-width=".25"><line x1="-32" x2="160" y1="-28" y2="-28"/><line x1="-32" x2="160" y1="-24" y2="-24"/><line x1="-32" x2="160" y1="-20" y2="-20"/><line x1="-32" x2="160" y1="-16" y2="-16"/><line x1="-32" x2="160" y1="-12" y2="-12"/><line x1="-32" x2="160" y1="-8" y2="-8"/><line x1="-32" x2="160" y1="-4" y2="-4"/><line x1="-32" x2="160"/><line x1="-32" x2="160" y1="4" y2="4"/><line x1="-32" x2="160" y1="8" y2="8"/><line x1="-32" x2="160" y1="12" y2="12"/><line x1="-32" x2="160" y1="16" y2="16"/><line x1="-32" x2="160" y1="20" y2="20"/><line x1="-32" x2="160" y1="24" y2="24"/><line x1="-32" x2="160" y1="28" y2="28"/><line x1="-32" x2="160" y1="32" y2="32"/><line x1="-32" x2="160" y1="36" y2="36"/><line x1="-32" x2="160" y1="40" y2="40"/><line x1="-32" x2="160" y1="44" y2="44"/><line x1="-32" x2="160" y1="48" y2="48"/><line x1="-32" x2="160" y1="52" y2="52"/><line x1="-32" x2="160" y1="56" y2="56"/><line x1="-32" x2="160" y1="60" y2="60"/><line x1="-32" x2="160" y1="64" y2="64"/><line x1="-32" x2="160" y1="68" y2="68"/><line x1="-32" x2="160" y1="72" y2="72"/><line x1="-32" x2="160" y1="76" y2="76"/><line x1="-32" x2="160" y1="80" y2="80"/><line x1="-32" x2="160" y1="84" y2="84"/><line x1="-32" x2="160" y1="88" y2="88"/><line x1="-32" x2="160" y1="92" y2="92"/><line x1="-32" x2="160" y1="96" y2="96"/><line x1="-32" x2="160" y1="100" y2="100"/><line x1="-32" x2="160" y1="104" y2="104"/><line x1="-32" x2="160" y1="108" y2="108"/><line x1="-32" x2="160" y1="112" y2="112"/><line x1="-32" x2="160" y1="116" y2="116"/><line x1="-32" x2="160" y1="120" y2="120"/><line x1="-32" x2="160" y1="124" y2="124"/><line x1="-32" x2="160" y1="128" y2="128"/><line x1="-32" x2="160" y1="132" y2="132"/><line x1="-32" x2="160" y1="136" y2="136"/><line x1="-32" x2="160" y1="140" y2="140"/><line x1="-32" x2="160" y1="144" y2="144"/><line x1="-32" x2="160" y1="148" y2="148"/><line x1="-32" x2="160" y1="152" y2="152"/><line x1="-32" x2="160" y1="156" y2="156"/></g><path d="m159.75-31.75v191.5h-191.5v-191.5h191.5m0.25-0.25h-192v192h192v-192z" fill="#010101"/></g></g><g fill="#EF4438"><rect width="4" height="128" opacity=".3"/><rect x="124" width="4" height="128" opacity=".3"/><rect transform="matrix(-1.837e-16 1 -1 -1.837e-16 66 -62)" x="62" y="-58" width="4" height="120" opacity=".3"/><rect transform="matrix(-1.837e-16 1 -1 -1.837e-16 190 62)" x="62" y="66" width="4" height="120" opacity=".3"/></g></g><g display="inline"><g opacity=".6"><circle cx="214" cy="64" r="28" fill="none" opacity=".61" stroke="#010101" stroke-miterlimit="10" stroke-width=".2625"/><line x1="234" x2="234" y2="128" fill="none" opacity=".61" stroke="#010101" stroke-miterlimit="10" stroke-width=".25"/><line x1="194" x2="194" y2="128" fill="none" opacity=".61" stroke="#010101" stroke-miterlimit="10" stroke-width=".25"/><line x1="214" x2="214" y2="128" fill="none" opacity=".61" stroke="#010101" stroke-miterlimit="10" stroke-width=".25"/><line x1="278" x2="150" y1="64" y2="64" fill="none" opacity=".61" stroke="#010101" stroke-miterlimit="10" stroke-width=".25"/><line x1="278" x2="150" y1="44" y2="44" fill="none" opacity=".61" stroke="#010101" stroke-miterlimit="10" stroke-width=".25"/><line x1="278" x2="150" y1="83.75" y2="83.75" fill="none" opacity=".61" stroke="#010101" stroke-miterlimit="10" stroke-width=".25"/><line x1="278" x2="150" y1="128" fill="none" opacity=".61" stroke="#010101" stroke-miterlimit="10" stroke-width=".25"/><line x1="150" x2="278" y1="128" fill="none" opacity=".61" stroke="#010101" stroke-miterlimit="10" stroke-width=".25"/><g opacity=".61"><path d="m214 4.26c32.94 0 59.74 26.8 59.74 59.74s-26.8 59.74-59.74 59.74-59.74-26.8-59.74-59.74 26.8-59.74 59.74-59.74m0-0.26c-33.14 0-60 26.86-60 60s26.86 60 60 60 60-26.86 60-60-26.86-60-60-60z" fill="#010101"/></g><path d="m257.97 115.97h-87.94c-4.42 0-8.03-3.61-8.03-8.03v-87.91c0-4.42 3.61-8.03 8.03-8.03h87.94c4.42 0 8.03 3.61 8.03 8.03v87.91c0 4.42-3.61 8.03-8.03 8.03z" fill="none" opacity=".61" stroke="#010101" stroke-miterlimit="10" stroke-width=".2578"/><path d="m250 124h-72c-4.4 0-8-3.6-8-8v-104c0-4.4 3.6-8 8-8h72c4.4 0 8 3.6 8 8v104c0 4.4-3.6 8-8 8z" fill="none" opacity=".61" stroke="#010101" stroke-miterlimit="10" stroke-width=".2628"/><path d="m263.77 108h-99.54c-5.63 0-10.23-4.6-10.23-10.23v-67.49c0-5.63 4.6-10.23 10.23-10.23h99.54c5.63 0 10.23 4.6 10.23 10.23v67.48c0 5.64-4.6 10.24-10.23 10.24z" fill="none" opacity=".61" stroke="#010101" stroke-miterlimit="10" stroke-width=".2627"/></g><g opacity=".2"><defs><rect id="d" x="150" width="128" height="128" opacity=".2"/></defs><clipPath id="k"><use xlink:href="#d"/></clipPath><g clip-path="url(#k)"><g fill="none" stroke="#010101" stroke-miterlimit="10" stroke-width=".25"><line x1="122" x2="122" y1="160" y2="-32"/><line x1="126" x2="126" y1="160" y2="-32"/><line x1="130" x2="130" y1="160" y2="-32"/><line x1="134" x2="134" y1="160" y2="-32"/><line x1="138" x2="138" y1="160" y2="-32"/><line x1="142" x2="142" y1="160" y2="-32"/><line x1="146" x2="146" y1="160" y2="-32"/><line x1="150" x2="150" y1="160" y2="-32"/><line x1="154" x2="154" y1="160" y2="-32"/><line x1="158" x2="158" y1="160" y2="-32"/><line x1="162" x2="162" y1="160" y2="-32"/><line x1="166" x2="166" y1="160" y2="-32"/><line x1="170" x2="170" y1="160" y2="-32"/><line x1="174" x2="174" y1="160" y2="-32"/><line x1="178" x2="178" y1="160" y2="-32"/><line x1="182" x2="182" y1="160" y2="-32"/><line x1="186" x2="186" y1="160" y2="-32"/><line x1="190" x2="190" y1="160" y2="-32"/><line x1="194" x2="194" y1="160" y2="-32"/><line x1="198" x2="198" y1="160" y2="-32"/><line x1="202" x2="202" y1="160" y2="-32"/><line x1="206" x2="206" y1="160" y2="-32"/><line x1="210" x2="210" y1="160" y2="-32"/><line x1="214" x2="214" y1="160" y2="-32"/><line x1="218" x2="218" y1="160" y2="-32"/><line x1="222" x2="222" y1="160" y2="-32"/><line x1="226" x2="226" y1="160" y2="-32"/><line x1="230" x2="230" y1="160" y2="-32"/><line x1="234" x2="234" y1="160" y2="-32"/><line x1="238" x2="238" y1="160" y2="-32"/><line x1="242" x2="242" y1="160" y2="-32"/><line x1="246" x2="246" y1="160" y2="-32"/><line x1="250" x2="250" y1="160" y2="-32"/><line x1="254" x2="254" y1="160" y2="-32"/><line x1="258" x2="258" y1="160" y2="-32"/><line x1="262" x2="262" y1="160" y2="-32"/><line x1="266" x2="266" y1="160" y2="-32"/><line x1="270" x2="270" y1="160" y2="-32"/><line x1="274" x2="274" y1="160" y2="-32"/><line x1="278" x2="278" y1="160" y2="-32"/><line x1="282" x2="282" y1="160" y2="-32"/><line x1="286" x2="286" y1="160" y2="-32"/><line x1="287" x2="287" y1="166.05" y2="-25.95"/><line x1="294" x2="294" y1="160" y2="-32"/><line x1="298" x2="298" y1="160" y2="-32"/><line x1="302" x2="302" y1="160" y2="-32"/><line x1="306" x2="306" y1="160" y2="-32"/></g><g fill="none" stroke="#010101" stroke-miterlimit="10" stroke-width=".25"><line x1="118" x2="310" y1="-28" y2="-28"/><line x1="118" x2="310" y1="-24" y2="-24"/><line x1="118" x2="310" y1="-20" y2="-20"/><line x1="118" x2="310" y1="-16" y2="-16"/><line x1="118" x2="310" y1="-12" y2="-12"/><line x1="118" x2="310" y1="-8" y2="-8"/><line x1="118" x2="310" y1="-4" y2="-4"/><line x1="118" x2="310"/><line x1="118" x2="310" y1="4" y2="4"/><line x1="118" x2="310" y1="8" y2="8"/><line x1="118" x2="310" y1="12" y2="12"/><line x1="118" x2="310" y1="16" y2="16"/><line x1="118" x2="310" y1="20" y2="20"/><line x1="118" x2="310" y1="24" y2="24"/><line x1="118" x2="310" y1="28" y2="28"/><line x1="118" x2="310" y1="32" y2="32"/><line x1="118" x2="310" y1="36" y2="36"/><line x1="118" x2="310" y1="40" y2="40"/><line x1="118" x2="310" y1="44" y2="44"/><line x1="118" x2="310" y1="48" y2="48"/><line x1="118" x2="310" y1="52" y2="52"/><line x1="118" x2="310" y1="56" y2="56"/><line x1="118" x2="310" y1="60" y2="60"/><line x1="118" x2="310" y1="64" y2="64"/><line x1="118" x2="310" y1="68" y2="68"/><line x1="118" x2="310" y1="72" y2="72"/><line x1="118" x2="310" y1="76" y2="76"/><line x1="118" x2="310" y1="80" y2="80"/><line x1="118" x2="310" y1="84" y2="84"/><line x1="118" x2="310" y1="88" y2="88"/><line x1="118" x2="310" y1="92" y2="92"/><line x1="118" x2="310" y1="96" y2="96"/><line x1="118" x2="310" y1="100" y2="100"/><line x1="118" x2="310" y1="104" y2="104"/><line x1="118" x2="310" y1="108" y2="108"/><line x1="118" x2="310" y1="112" y2="112"/><line x1="118" x2="310" y1="116" y2="116"/><line x1="118" x2="310" y1="120" y2="120"/><line x1="118" x2="310" y1="124" y2="124"/><line x1="118" x2="310" y1="128" y2="128"/><line x1="118" x2="310" y1="132" y2="132"/><line x1="118" x2="310" y1="136" y2="136"/><line x1="118" x2="310" y1="140" y2="140"/><line x1="118" x2="310" y1="144" y2="144"/><line x1="118" x2="310" y1="148" y2="148"/><line x1="118" x2="310" y1="152" y2="152"/><line x1="118" x2="310" y1="156" y2="156"/></g><path d="m309.75-31.75v191.5h-191.5v-191.5h191.5m0.25-0.25h-192v192h192v-192z" fill="#010101"/></g></g><g fill="#EF4438"><rect x="150" width="4" height="128" opacity=".3"/><rect x="274" width="4" height="128" opacity=".3"/><rect transform="matrix(-1.837e-16 1 -1 -1.837e-16 216 -212)" x="212" y="-58" width="4" height="120" opacity=".3"/><rect transform="matrix(-1.837e-16 1 -1 -1.837e-16 340 -88)" x="212" y="66" width="4" height="120" opacity=".3"/></g></g><g display="inline"><g opacity=".6"><circle cx="214" cy="196" r="28" fill="none" opacity=".61" stroke="#010101" stroke-miterlimit="10" stroke-width=".2625"/><line x1="234" x2="234" y1="132" y2="260" fill="none" opacity=".61" stroke="#010101" stroke-miterlimit="10" stroke-width=".25"/><line x1="194" x2="194" y1="132" y2="260" fill="none" opacity=".61" stroke="#010101" stroke-miterlimit="10" stroke-width=".25"/><line x1="214" x2="214" y1="132" y2="260" fill="none" opacity=".61" stroke="#010101" stroke-miterlimit="10" stroke-width=".25"/><line x1="278" x2="150" y1="196" y2="196" fill="none" opacity=".61" stroke="#010101" stroke-miterlimit="10" stroke-width=".25"/><line x1="278" x2="150" y1="176" y2="176" fill="none" opacity=".61" stroke="#010101" stroke-miterlimit="10" stroke-width=".25"/><line x1="278" x2="150" y1="215.75" y2="215.75" fill="none" opacity=".61" stroke="#010101" stroke-miterlimit="10" stroke-width=".25"/><line x1="278" x2="150" y1="260" y2="132" fill="none" opacity=".61" stroke="#010101" stroke-miterlimit="10" stroke-width=".25"/><line x1="150" x2="278" y1="260" y2="132" fill="none" opacity=".61" stroke="#010101" stroke-miterlimit="10" stroke-width=".25"/><g opacity=".61"><path d="m214 136.26c32.94 0 59.74 26.8 59.74 59.74s-26.8 59.74-59.74 59.74-59.74-26.8-59.74-59.74 26.8-59.74 59.74-59.74m0-0.26c-33.14 0-60 26.86-60 60s26.86 60 60 60 60-26.86 60-60-26.86-60-60-60z" fill="#010101"/></g><path d="m257.97 247.97h-87.94c-4.42 0-8.03-3.61-8.03-8.03v-87.91c0-4.42 3.61-8.03 8.03-8.03h87.94c4.42 0 8.03 3.61 8.03 8.03v87.91c0 4.42-3.61 8.03-8.03 8.03z" fill="none" opacity=".61" stroke="#010101" stroke-miterlimit="10" stroke-width=".2578"/><path d="m250 256h-72c-4.4 0-8-3.6-8-8v-104c0-4.4 3.6-8 8-8h72c4.4 0 8 3.6 8 8v104c0 4.4-3.6 8-8 8z" fill="none" opacity=".61" stroke="#010101" stroke-miterlimit="10" stroke-width=".2628"/><path d="m263.77 240h-99.54c-5.63 0-10.23-4.6-10.23-10.23v-67.48c0-5.63 4.6-10.23 10.23-10.23h99.54c5.63 0 10.23 4.6 10.23 10.23v67.48c0 5.63-4.6 10.23-10.23 10.23z" fill="none" opacity=".61" stroke="#010101" stroke-miterlimit="10" stroke-width=".2627"/></g><g opacity=".2"><defs><rect id="b" x="150" y="132" width="128" height="128" opacity=".2"/></defs><clipPath id="j"><use xlink:href="#b"/></clipPath><g clip-path="url(#j)"><g fill="none" stroke="#010101" stroke-miterlimit="10" stroke-width=".25"><line x1="122" x2="122" y1="292" y2="100"/><line x1="126" x2="126" y1="292" y2="100"/><line x1="130" x2="130" y1="292" y2="100"/><line x1="134" x2="134" y1="292" y2="100"/><line x1="138" x2="138" y1="292" y2="100"/><line x1="142" x2="142" y1="292" y2="100"/><line x1="146" x2="146" y1="292" y2="100"/><line x1="150" x2="150" y1="292" y2="100"/><line x1="154" x2="154" y1="292" y2="100"/><line x1="158" x2="158" y1="292" y2="100"/><line x1="162" x2="162" y1="292" y2="100"/><line x1="166" x2="166" y1="292" y2="100"/><line x1="170" x2="170" y1="292" y2="100"/><line x1="174" x2="174" y1="292" y2="100"/><line x1="178" x2="178" y1="292" y2="100"/><line x1="182" x2="182" y1="292" y2="100"/><line x1="186" x2="186" y1="292" y2="100"/><line x1="190" x2="190" y1="292" y2="100"/><line x1="194" x2="194" y1="292" y2="100"/><line x1="198" x2="198" y1="292" y2="100"/><line x1="202" x2="202" y1="292" y2="100"/><line x1="206" x2="206" y1="292" y2="100"/><line x1="210" x2="210" y1="292" y2="100"/><line x1="214" x2="214" y1="292" y2="100"/><line x1="218" x2="218" y1="292" y2="100"/><line x1="222" x2="222" y1="292" y2="100"/><line x1="226" x2="226" y1="292" y2="100"/><line x1="230" x2="230" y1="292" y2="100"/><line x1="234" x2="234" y1="292" y2="100"/><line x1="238" x2="238" y1="292" y2="100"/><line x1="242" x2="242" y1="292" y2="100"/><line x1="246" x2="246" y1="292" y2="100"/><line x1="250" x2="250" y1="292" y2="100"/><line x1="254" x2="254" y1="292" y2="100"/><line x1="258" x2="258" y1="292" y2="100"/><line x1="262" x2="262" y1="292" y2="100"/><line x1="266" x2="266" y1="292" y2="100"/><line x1="270" x2="270" y1="292" y2="100"/><line x1="274" x2="274" y1="292" y2="100"/><line x1="278" x2="278" y1="292" y2="100"/><line x1="282" x2="282" y1="292" y2="100"/><line x1="286" x2="286" y1="292" y2="100"/><line x1="287" x2="287" y1="298.05" y2="106.05"/><line x1="294" x2="294" y1="292" y2="100"/><line x1="298" x2="298" y1="292" y2="100"/><line x1="302" x2="302" y1="292" y2="100"/><line x1="306" x2="306" y1="292" y2="100"/></g><g fill="none" stroke="#010101" stroke-miterlimit="10" stroke-width=".25"><line x1="118" x2="310" y1="104" y2="104"/><line x1="118" x2="310" y1="108" y2="108"/><line x1="118" x2="310" y1="112" y2="112"/><line x1="118" x2="310" y1="116" y2="116"/><line x1="118" x2="310" y1="120" y2="120"/><line x1="118" x2="310" y1="124" y2="124"/><line x1="118" x2="310" y1="128" y2="128"/><line x1="118" x2="310" y1="132" y2="132"/><line x1="118" x2="310" y1="136" y2="136"/><line x1="118" x2="310" y1="140" y2="140"/><line x1="118" x2="310" y1="144" y2="144"/><line x1="118" x2="310" y1="148" y2="148"/><line x1="118" x2="310" y1="152" y2="152"/><line x1="118" x2="310" y1="156" y2="156"/><line x1="118" x2="310" y1="160" y2="160"/><line x1="118" x2="310" y1="164" y2="164"/><line x1="118" x2="310" y1="168" y2="168"/><line x1="118" x2="310" y1="172" y2="172"/><line x1="118" x2="310" y1="176" y2="176"/><line x1="118" x2="310" y1="180" y2="180"/><line x1="118" x2="310" y1="184" y2="184"/><line x1="118" x2="310" y1="188" y2="188"/><line x1="118" x2="310" y1="192" y2="192"/><line x1="118" x2="310" y1="196" y2="196"/><line x1="118" x2="310" y1="200" y2="200"/><line x1="118" x2="310" y1="204" y2="204"/><line x1="118" x2="310" y1="208" y2="208"/><line x1="118" x2="310" y1="212" y2="212"/><line x1="118" x2="310" y1="216" y2="216"/><line x1="118" x2="310" y1="220" y2="220"/><line x1="118" x2="310" y1="224" y2="224"/><line x1="118" x2="310" y1="228" y2="228"/><line x1="118" x2="310" y1="232" y2="232"/><line x1="118" x2="310" y1="236" y2="236"/><line x1="118" x2="310" y1="240" y2="240"/><line x1="118" x2="310" y1="244" y2="244"/><line x1="118" x2="310" y1="248" y2="248"/><line x1="118" x2="310" y1="252" y2="252"/><line x1="118" x2="310" y1="256" y2="256"/><line x1="118" x2="310" y1="260" y2="260"/><line x1="118" x2="310" y1="264" y2="264"/><line x1="118" x2="310" y1="268" y2="268"/><line x1="118" x2="310" y1="272" y2="272"/><line x1="118" x2="310" y1="276" y2="276"/><line x1="118" x2="310" y1="280" y2="280"/><line x1="118" x2="310" y1="284" y2="284"/><line x1="118" x2="310" y1="288" y2="288"/></g><path d="m309.75 100.25v191.5h-191.5v-191.5h191.5m0.25-0.25h-192v192h192v-192z" fill="#010101"/></g></g><g fill="#EF4438"><rect x="150" y="132" width="4" height="128" opacity=".3"/><rect x="274" y="132" width="4" height="128" opacity=".3"/><rect transform="matrix(-1.837e-16 1 -1 -1.837e-16 348 -80)" x="212" y="74" width="4" height="120" opacity=".3"/><rect transform="matrix(-1.837e-16 1 -1 -1.837e-16 472 44)" x="212" y="198" width="4" height="120" opacity=".3"/></g></g></g></svg>
