<?xml version="1.0" encoding="utf-8"?>
<!-- Generator: Adobe Illustrator 16.0.0, SVG Export Plug-In . SVG Version: 6.00 Build 0)  -->
<!DOCTYPE svg PUBLIC "-//W3C//DTD SVG 1.1//EN" "http://www.w3.org/Graphics/SVG/1.1/DTD/svg11.dtd">
<svg version="1.1" id="レイヤー_1" xmlns="http://www.w3.org/2000/svg" xmlns:xlink="http://www.w3.org/1999/xlink" x="0px"
	 y="0px" width="128px" height="128px" viewBox="0 0 128 128" enable-background="new 0 0 128 128" xml:space="preserve">
<g>
	<g>
		<path fill="#78A3AD" d="M53.89,81.26c-0.2-0.5-0.58-0.85-0.92-1.16c-0.13-0.12-0.27-0.25-0.38-0.38
			c-1.12-1.36-2.19-2.82-3.23-4.22l-1.22-1.65c-1.28-1.73-3.02-4.1-5.33-4.1c-0.88,0-1.75,0.35-2.57,1.04l-0.27,0.24
			c-0.27,0.25-0.6,0.56-0.94,0.58c-0.5-0.1-1.13-1.25-1.51-1.93c-0.19-0.35-0.37-0.67-0.54-0.91c-0.71-1.03-1.86-2.44-3.67-2.84
			c-1.46-0.33-2.97,0.21-3.89,1.36c-0.23,0.29-0.38,0.64-0.53,0.98c-0.15,0.36-0.38,0.85-0.59,0.88c-0.09,0-0.28-0.06-0.53-0.25
			c-0.35-0.26-0.64-0.55-0.93-0.85c-0.58-0.58-1.24-1.25-2.25-1.59c-1.55-0.52-3.46-0.08-4.48,1.04c-0.62,0.69-0.9,1.56-0.81,2.51
			c0.05,0.46,0.12,0.94,0.19,1.42c0.12,0.83,0.25,1.68,0.23,2.46c-0.01,0.25-0.05,0.33-0.05,0.33c-0.07,0.06-0.4,0.11-0.62,0.14
			l-0.28,0.04c-1.77,0.3-2.58,1.35-2.95,2.17c-0.82,1.85-0.2,4.23,0.78,5.77c0.64,1,1.35,1.97,2.05,2.93l0.42,0.57
			c0.36,0.5,0.75,0.96,1.14,1.43c0.42,0.5,0.83,1,1.2,1.53c0.15,0.22,0.47,0.68,1.04,0.81l0.31,0.04c0.51,0,0.85-0.3,1.07-0.5
			c0.5-0.45,0.71-1.04,0.91-1.62c0.24-0.69,0.49-1.4,0.57-2.18c0.03-0.34,0.31-0.64,0.72-1.05c0.8-0.8,1.8-1.38,2.8-1.6
			c2.13-0.48,4.06-0.89,6.09-1.06c2.58-0.21,5.05,0,8.67,0.7c0.88,0.17,1.75,0.35,2.63,0.54l1.78,0.37
			c0.62,0.12,1.24,0.18,1.86,0.24c0.6,0.05,1.2,0.1,1.8,0.23l0.22,0.05c0.44,0.11,1.05,0.24,1.47,0.12l0.38-0.13l0.15-0.32
			C54.14,82.95,54.02,81.57,53.89,81.26z"/>
		<path fill="#FFFFFF" d="M24.95,84.7c-0.47,0.48-0.88,1.02-1.19,1.6c-0.24,0.44-0.48,1.64-1.08,1.28c-0.35-0.22-0.64-0.7-0.93-0.98
			c-0.42-0.42-0.75-0.91-1.08-1.41c-1.22-1.86-3.17-3.52-3.66-5.77c-0.24-1.08-0.05-2.03,0.89-2.68c0.91-0.64,2.24,0.06,3.07-0.6
			c2.03-1.63-2.21-7.88,2.19-7.8c2.1,0.04,2.56,2.88,4.54,3.1c1.86,0.21,1.88-2.4,2.98-3.37c1.33-1.16,3.15-0.19,3.96,0.97
			c0.95,1.35,1.2,3.4,2.57,4.42c0.63,0.47,1.68,0.34,2.27-0.11c0.72-0.56,1.21-1.1,2.08-1.33c0.9-0.23,1.69-0.15,2.32,0.6
			c2.78,3.3,4.84,7.12,7.72,10.36c0.27,0.31,0.91,0.71,1.02,1.09c-0.34,0.1-0.96-0.11-1.3-0.18c-1.22-0.27-2.44-0.23-3.67-0.47
			c-1.48-0.3-2.94-0.62-4.42-0.91c-2.93-0.56-5.91-0.96-8.89-0.71c-2.11,0.18-4.14,0.62-6.2,1.08
			C26.95,83.15,25.84,83.81,24.95,84.7z"/>
		<g>
			<g>
				<path fill="#ED6C30" d="M86.35,125.85c-2.32,0-4.41-0.2-6.04-0.59c-7.23-1.7-13.09-4.95-19.31-8.39l-0.94-0.52
					c-4.07-2.24-8.18-4.41-12.29-6.58c-4.91-2.59-9.99-5.28-14.92-8.05c-0.48-0.26-0.99-0.54-1.53-0.83
					c-4.71-2.52-11.81-6.34-11.66-13.38c0.19-7.7,8.52-11.93,14.37-12.48c6.68-0.62,13.12,3.7,18.71,7.5
					c2.68,1.83,5.21,3.55,7.51,4.57c3.16,1.41,6.53,2.79,10.29,4.22l1.66,0.63c4.24,1.61,8.63,3.28,12.96,4.5
					c1.08,0.3,3.13,0.58,5.3,0.88c2.06,0.28,4.39,0.6,6.71,1.04l0.41,0.08c4.7,0.87,13.43,2.5,14.46,10.07
					c0.47,3.52-0.51,6.81-2.86,9.5C104.13,123.8,93.72,125.85,86.35,125.85z"/>
			</g>
			<g>
				<g>
					<path fill="#FCC21B" d="M112.08,65.44c-0.69-2.25-2.32-3.37-4.08-4.79c-0.86-0.7-3.27-6.7-8.38-11.81
						c-7.36-7.34-13.6-9.33-16.66-10.83c-1.86-1.77-3.97-2.65-6.29-1.92c-2.88,0.9-5.86,1.36-8.88,1.43
						C57.66,33.71,46,38.97,39.58,46.99c-1.94,2.42-3.67,5.3-4.09,8.43c-0.29,2.21,0.25,6.32,2.15,7.87
						c3.97,3.25,10.3-1.05,10.1-5.82c-0.05-1.23-0.42-1.96,0.29-3.1c1.3-2.08,5.26-3.47,7.42-4.21c1.6-0.55,3.27-1.05,4.97-1.11
						c0.63,3.02,1.01,6.11,1.05,9.39c0.05,6.62-5.67,10.22-10.47,13.44c-2.44,1.64-4.26,3.85-4.05,6.94
						c0.19,2.85,1.05,5.57,1.83,8.29c0.27,0.94,0.68,1.84,0.97,2.78c0.78,2.56-1.77,2.35-3.06,3.85c-0.95,1.11-0.7,2.72,0.05,3.88
						c1.94,3,6.16,3.6,9.39,2.89c0.05-0.01,0.1-0.02,0.15-0.04c2.17-0.52,4.62-1.64,4.92-4.15c0.45-3.77-2.29-6.95-2.63-10.6
						c-0.11-1.15-0.35-2.41,0.01-3.54c0.45-1.39,2.36-2.4,3.57-3.01c1.23-0.63,2.93-1.36,4.23-0.5c2.02,1.32-1.34,4.63-1.93,5.99
						c-0.64,1.47-0.94,3.06-0.9,4.67c0.05,2.66,1.13,4.99,1.92,7.52c0.33,1.04,0.66,2.08,0.97,3.13c0.7,2.4-0.4,3.38-2,4.96
						c-1.2,1.19-0.9,3.11,0.07,4.36c0.99,1.26,2.59,2.34,4.2,2.58c2.64,0.39,6.06-0.52,8.23-2.01c4.1-2.79,1.78-8.62,0.44-12.24
						c-1.07-2.86-2.37-6.57-0.22-9.31c1.62-2.08,4.45-2.82,6.45-4.47c2.07-1.71,3.71-3.9,5.05-6.21c3.18-5.48,4.54-11.92,3.56-18.22
						c-0.1-0.62-0.25-1.42-0.46-2.33c0.88,0.85,1.73,1.73,2.52,2.63c0.74,0.84,1.46,1.78,1.98,2.76c0.45,0.84,0.71,1.75,0.59,2.77
						c-0.47,3.95-0.89,7.29,3.4,10.49c2.58,1.92,7,0.84,9.56-1.15C112.57,72.48,113.05,68.63,112.08,65.44z"/>
				</g>
			</g>
		</g>
	</g>
	<g>
		<path fill="#FCC21B" d="M83.27,28.11c-0.71-0.88-1.54-1.71-2.42-2.5c-4-3.6-9.61-6.12-15.62-6.45c-0.43-0.02-0.85-0.08-1.28-0.08
			c-2.42,0-6.49,0.27-8.45,3.12c-0.33,1.21-0.48,2.46-0.54,3.72c-0.08,1.66,0.01,3.33,0.37,4.95c2.41,11.01,15.27,16.26,24.86,10.53
			c1.91-1.14,3.49-2.67,4.78-4.39c0.59-0.79,1.09-1.64,1.55-2.51C85.99,32.24,84.73,29.93,83.27,28.11z"/>
		<path fill="#757F3F" d="M92.73,26.52c-0.1-0.95-0.35-1.76-0.65-2.45c0.95-4.32,0.88-8.68-0.94-11.94
			c-3.31-6.17-10.2-10.34-17.96-9.95c-3.57,0.17-11.02,2.03-15.1,8.7c-1.02,0.42-2.35,1.2-3.49,2.67
			c-1.04,1.35-4.44,8.38,0.35,12.37c0.05-1.26,0.21-2.5,0.54-3.72c1.96-2.85,6.03-3.12,8.45-3.12c0.43,0,0.85,0.05,1.28,0.08
			c6,0.32,11.62,2.84,15.62,6.45c0.88,0.79,1.71,1.62,2.42,2.5c1.46,1.82,2.72,4.13,3.25,6.4c-0.45,0.88-0.95,1.72-1.55,2.51
			L85,37.05C92.12,36.93,92.93,28.31,92.73,26.52z"/>
	</g>
</g>
</svg>
