<svg enable-background="new 0 0 128 128" viewBox="0 0 128 128" xmlns="http://www.w3.org/2000/svg" xmlns:xlink="http://www.w3.org/1999/xlink"><path d="m38.19 9s-0.01 0-0.01 0.12c0 17.6 6.78 21.75 25.82 21.75s25.82-4.08 25.82-21.69c0-0.13-0.01-0.19-0.01-0.19s-4.99 5-26.08 5-25.54-4.99-25.54-4.99z" fill="#43A047"/><linearGradient id="c" x1="64" x2="64" y1="119" y2="9" gradientUnits="userSpaceOnUse"><stop stop-color="#4CAF50" offset=".0036073"/><stop stop-color="#81C784" offset="1"/></linearGradient><path d="m98.28 119h-68.56c-3.14 0-5.53-2.81-4.99-5.89 0 0 0.73-47.74 0.79-56.06 0.01-1.08-0.85-1.97-1.95-2.01-1.5-0.05-7.44 1.9-8.13 1.9l-3.34 0.03c-2.57 0.03-4.75-1.87-5.06-4.41l-3-24.59c-0.28-2.33 1.09-4.54 3.31-5.33 0 0 21.02-13.64 32.47-13.64l0.06 0.04s6.32 13.24 23.95 13.24 24.6-13.28 24.6-13.28c11.82 0 32.24 13.64 32.24 13.64 2.21 0.8 3.58 3.01 3.3 5.33l-3.01 24.62c-0.31 2.52-2.47 4.42-5.03 4.42h-3.4c-0.69 0-6.65-1.94-8.15-1.9-1.08 0.03-1.93 0.9-1.95 1.97-0.11 8.17 0.83 56.04 0.83 56.04 0.54 3.07-1.84 5.88-4.98 5.88z" fill="url(#c)"/><defs><path id="h" d="m98.28 119h-68.56c-3.14 0-5.53-2.81-4.99-5.89 0 0 0.73-47.74 0.79-56.06 0.01-1.08-0.85-1.97-1.95-2.01-1.5-0.05-7.44 1.9-8.13 1.9l-3.34 0.03c-2.57 0.03-4.75-1.87-5.06-4.41l-3-24.59c-0.28-2.33 1.09-4.54 3.31-5.33 0 0 21.02-13.64 32.47-13.64l0.06 0.04s6.32 13.24 23.95 13.24 24.6-13.28 24.6-13.28c11.82 0 32.24 13.64 32.24 13.64 2.21 0.8 3.58 3.01 3.3 5.33l-3.01 24.62c-0.31 2.52-2.47 4.42-5.03 4.42h-3.4c-0.69 0-6.65-1.94-8.15-1.9-1.08 0.03-1.93 0.9-1.95 1.97-0.11 8.17 0.83 56.04 0.83 56.04 0.54 3.07-1.84 5.88-4.98 5.88z"/></defs><clipPath id="g"><use xlink:href="#h"/></clipPath><path d="M95.64-7c0,19.14-14.28,33.65-31.89,33.65S31.85,12.14,31.85-7 s14.28-34.65,31.89-34.65S95.64-26.14,95.64-7z" clip-path="url(#g)" fill="#2E7D32"/><g opacity=".2"><path d="m90.03 12.1c11.08 1.16 28.8 12.92 28.98 13.04 0.2 0.13 0.42 0.24 0.65 0.33 0.9 0.33 1.45 1.21 1.34 2.14l-3.01 24.62c-0.12 1.02-1 1.78-2.05 1.78h-3.18c-0.39-0.09-1.34-0.35-2.06-0.55-2.95-0.82-4.98-1.35-6.25-1.35h-0.15c-2.69 0.08-4.82 2.25-4.85 4.93-0.11 8.12 0.79 54.19 0.83 56.14 0 0.15 0.02 0.31 0.04 0.46 0.14 0.8-0.22 1.36-0.44 1.63-0.23 0.28-0.74 0.74-1.59 0.74h-68.57c-0.85 0-1.36-0.46-1.59-0.74-0.22-0.27-0.58-0.84-0.44-1.63 0.03-0.16 0.04-0.32 0.05-0.47 0.01-0.48 0.73-47.85 0.79-56.08 0.02-2.73-2.11-4.94-4.85-5.03h-0.16c-1.28 0-3.32 0.54-6.28 1.36-0.7 0.2-1.64 0.46-2.02 0.54l-3.15 0.03c-1.04 0-1.92-0.77-2.05-1.78l-3-24.59c-0.11-0.94 0.44-1.82 1.34-2.14 0.22-0.08 0.43-0.18 0.62-0.31 0.18-0.12 18.35-11.83 29.22-13.05 0.04 0.06 0.08 0.12 0.11 0.17 0.31 0.47 0.75 0.84 1.26 1.08 3.64 1.65 10.79 3.63 24.16 3.63 13.94 0 21.36-2.13 25.12-3.92 0.47-0.22 0.88-0.56 1.18-0.98m-0.22-3.1-0.06 0.06c-0.45-0.04-0.89-0.06-1.32-0.06 0 0-0.28 0.53-0.86 1.37-3.12 1.48-10.03 3.63-23.84 3.63-13.04 0-19.72-1.91-22.91-3.37-0.64-0.97-0.94-1.59-0.94-1.59l-0.06-0.04c-0.5 0-1.01 0.03-1.54 0.08-0.06-0.05-0.09-0.08-0.09-0.08s-0.01 0.02-0.01 0.09c-11.7 1.14-30.83 13.55-30.83 13.55-2.22 0.79-3.59 3.01-3.31 5.33l3 24.6c0.31 2.52 2.47 4.43 5.02 4.43h0.05l3.34-0.06c0.68-0.01 6.49-1.94 8.07-1.94h0.06c1.09 0 1.95 0.95 1.95 2.03-0.06 8.32-0.79 56.07-0.79 56.07-0.54 3.07 1.84 5.9 4.99 5.9h68.55c3.14 0 5.53-2.81 4.99-5.89 0 0-0.94-47.93-0.83-56.1 0.01-1.07 0.87-2.02 1.95-2.02h0.06c1.58 0 7.41 2 8.09 2h3.4c2.56 0 4.72-1.9 5.03-4.42l3.01-24.62c0.28-2.32-1.08-4.53-3.3-5.33 0 0-18.9-12.62-30.86-13.57-0.01-0.03-0.01-0.05-0.01-0.05z" fill="#424242"/></g></svg>
