<svg enable-background="new 0 0 128 128" viewBox="0 0 128 128" xmlns="http://www.w3.org/2000/svg" xmlns:xlink="http://www.w3.org/1999/xlink"><defs><rect id="n" x="4" y="4" width="120" height="120"/></defs><clipPath id="c"><use xlink:href="#n"/></clipPath><g clip-path="url(#c)"><radialGradient id="h" cx="120.17" cy="-127.93" r="39.288" gradientTransform="matrix(.826 0 0 .826 -5.7055 100.59)" gradientUnits="userSpaceOnUse"><stop stop-color="#6D4C41" offset="0"/><stop stop-color="#543930" offset="1"/></radialGradient><path d="m93.76 3.98c-27.08 0-26.87 25.04-26.87 25.44 0 16.22 1.24 39.13 7.73 48.15 2.57 3.57 7.55 3.77 7.55 3.77l11.21-0.02 11.21 0.02s4.98-0.2 7.55-3.77c6.49-9.01 7.73-31.93 7.73-48.15 0-0.4 0.97-25.44-26.11-25.44z" fill="url(#h)"/><path d="m92.83 71.73c-2.46 0-4.45-1.97-4.45-4.4v-5.59h10v5.59c0 2.42-2 4.4-4.45 4.4h-1.1z" fill="#E59600"/><path d="m97.38 62.74v4.59c0 1.87-1.55 3.4-3.45 3.4h-1.09c-1.9 0-3.45-1.52-3.45-3.4v-4.59h7.99m2-2h-12v6.59c0 2.98 2.44 5.4 5.45 5.4h1.09c3.01 0 5.45-2.42 5.45-5.4v-6.59h0.01z" fill="#D18100"/><linearGradient id="g" x1="93.38" x2="93.38" y1="63.467" y2="13.397" gradientUnits="userSpaceOnUse"><stop stop-color="#FFB300" offset="0"/><stop stop-color="#FFB809" offset=".102"/><stop stop-color="#FFC21A" offset=".3707"/><stop stop-color="#FFC825" offset=".6592"/><stop stop-color="#FFCA28" offset="1"/></linearGradient><path d="m93.38 63.83c-1.48 0-3.17-0.32-4.88-0.93-7.38-2.61-16-10.65-16-24.7 0-18.72 11.25-25.36 20.88-25.36s20.88 6.64 20.88 25.36c0 14.07-8.63 22.11-16.03 24.71-1.7 0.61-3.38 0.92-4.85 0.92z" fill="url(#g)"/><path d="m93.38 13.85c9.17 0 19.88 6.38 19.88 24.36 0 13.55-8.27 21.27-15.36 23.77-1.6 0.56-3.16 0.86-4.52 0.86-1.37 0-2.94-0.3-4.55-0.87-7.07-2.5-15.33-10.23-15.33-23.76 0-17.98 10.71-24.36 19.88-24.36m0-2c-11.36 0-21.88 8.45-21.88 26.36 0 14.39 8.91 22.9 16.67 25.64 1.85 0.65 3.63 0.98 5.22 0.98 1.57 0 3.35-0.33 5.18-0.97 7.76-2.73 16.7-11.25 16.7-25.65-0.01-17.92-10.53-26.36-21.89-26.36z" fill="#ED9E00"/><radialGradient id="f" cx="138.48" cy="-120.6" r="31.838" gradientTransform="matrix(.796 0 0 .796 -16.851 96.977)" gradientUnits="userSpaceOnUse"><stop stop-color="#6D4C41" offset="0"/><stop stop-color="#543930" offset="1"/></radialGradient><path d="m118.4 29.42s0.67-23.49-24.97-23.49-25.07 23.49-25.07 23.49 0.22 30.04 2.11 33.94c1.89 3.91 4.75 3.77 4.75 3.77s-1.34-17.53-1.49-25.78c-0.04-1.93-0.62-9.06 3.4-9.97 14.77-3.32 23.12-11.15 23.12-11.15 2.17 4.75 8.97 9.37 11.41 11.13 2 1.44 1.72 7.4 1.69 9.93l-2.01 25.8s3.09 0.25 5.05-3.73c1.95-3.97 2.01-33.94 2.01-33.94z" fill="url(#f)"/><path d="m95.9 46.2c-0.07-0.03-0.14-0.05-0.21-0.05h-4.62c-0.07 0.01-0.14 0.03-0.21 0.05-0.42 0.17-0.65 0.6-0.45 1.06s1.12 1.76 2.97 1.76 2.77-1.3 2.97-1.76-0.03-0.89-0.45-1.06z" fill="#E59600"/><ellipse cx="82.65" cy="40.13" rx="3.21" ry="3.33" fill="#404040"/><ellipse cx="104.11" cy="40.13" rx="3.21" ry="3.33" fill="#404040"/><path d="m87.43 34.15c-0.61-0.81-2.03-1.99-4.78-1.99s-4.16 1.18-4.78 1.99c-0.27 0.36-0.2 0.77-0.01 1.02 0.17 0.23 0.69 0.45 1.26 0.26s1.68-0.77 3.54-0.78c1.86 0.01 2.97 0.59 3.54 0.78s1.08-0.02 1.26-0.26c0.17-0.24 0.24-0.66-0.03-1.02z" fill="#6D4C41"/><path d="m108.89 34.15c-0.61-0.81-2.03-1.99-4.78-1.99s-4.16 1.18-4.78 1.99c-0.27 0.36-0.2 0.77-0.01 1.02 0.17 0.23 0.69 0.45 1.26 0.26s1.68-0.77 3.54-0.78c1.86 0.01 2.97 0.59 3.54 0.78s1.08-0.02 1.26-0.26c0.17-0.24 0.24-0.66-0.03-1.02z" fill="#6D4C41"/><path d="m98.87 51.54c-2.08 1.24-8.89 1.24-10.97 0-1.19-0.71-2.41 0.38-1.92 1.46 0.49 1.07 4.21 3.54 7.42 3.54s6.88-2.47 7.37-3.54c0.5-1.09-0.7-2.17-1.9-1.46z" fill="#795548"/><path d="m93.76 6.98c7.42 0 13.17 2.03 17.09 6.03 6.05 6.17 6.04 15.29 6.02 16.31v0.1c0 23.5-2.54 39.98-7.17 46.39-1.57 2.18-4.83 2.49-5.2 2.52l-11.13-0.02-11.12 0.02c-0.37-0.03-3.64-0.36-5.2-2.52-4.62-6.42-7.17-22.89-7.17-46.41 0-0.4 0.05-9.86 6.46-16.28 4.07-4.08 9.93-6.14 17.42-6.14m0-3c-27.08 0-26.87 25.04-26.87 25.44 0 16.22 1.24 39.13 7.73 48.15 2.57 3.57 7.55 3.77 7.55 3.77l11.21-0.02 11.21 0.02s4.98-0.2 7.55-3.77c6.49-9.01 7.73-31.93 7.73-48.15 0-0.4 0.97-25.44-26.11-25.44z" fill="#3F2720"/></g><g clip-path="url(#c)"><defs><rect id="e" width="128" height="128"/></defs><clipPath id="b"><use xlink:href="#e"/></clipPath><g clip-path="url(#b)"><path d="M65.5,88.4c0-10.57,7.41-18.17,19.81-20.3c2.87-0.5,5.82-0.75,8.77-0.75 c4.21,0,8.49,0.51,12.71,1.51c12.34,2.93,19.71,10.24,19.71,19.54v38.62l-61,0.02V88.4z" fill="#651FFF"/><path d="m94.08 68.85c4.1 0 8.26 0.49 12.37 1.47 4.35 1.04 18.55 5.39 18.55 18.08v37.12l-58 0.01v-37.13c0-9.78 6.94-16.82 18.57-18.83 2.78-0.47 5.64-0.72 8.51-0.72m-0.01-3c-2.96 0-5.97 0.24-9.02 0.77-11.87 2.05-21.05 9.5-21.05 21.78v40.14l64-0.02v-40.12c0-11.37-9.63-18.33-20.86-21-4.15-0.98-8.54-1.55-13.07-1.55z" fill="#540EED"/></g><g clip-path="url(#b)"><path d="M1.5,127.03V88.4c0-9.31,7.37-16.61,19.71-19.54c4.28-1.02,8.34-1.51,12.42-1.51 c2.85,0,5.74,0.25,8.61,0.75c9.79,1.69,20.25,7.91,20.25,20.3v38.64L1.5,127.03z" fill="#00BFA5"/><path d="m33.63 68.85c2.76 0 5.57 0.24 8.36 0.72 5.59 0.96 10.31 3.14 13.66 6.28 3.55 3.35 5.35 7.57 5.35 12.55v37.14l-58-0.01v-37.13c0-12.69 14.2-17.05 18.56-18.08 4.16-0.99 8.11-1.47 12.07-1.47m0-3c-4.4 0-8.62 0.57-12.77 1.55-11.23 2.67-20.86 9.64-20.86 21v40.12l64 0.02v-40.14c0-12.28-9.62-19.73-21.5-21.78-3.05-0.52-5.99-0.77-8.87-0.77z" fill="#00A68F"/></g><g clip-path="url(#b)"><path d="m33.46 73.12c-3.31 0-6-2.69-6-6v-5.42h12v5.42c0 3.31-2.69 6-6 6z" fill="#E59600"/><path d="m38.46 62.7v4.42c0 2.76-2.24 5-5 5s-5-2.24-5-5v-4.42h10m2-2h-14v6.42c0 3.87 3.13 7 7 7s7-3.13 7-7v-6.42z" fill="#D18100"/></g><g clip-path="url(#b)"><linearGradient id="d" x1="6" x2="6" y1="97.824" y2="127.82" gradientUnits="userSpaceOnUse"><stop stop-color="#FFB300" offset="0"/><stop stop-color="#FFCA28" offset=".4007"/></linearGradient><rect x="1" y="97.82" width="10" height="30" fill="url(#d)"/><path d="m10 98.82v28h-8v-28h8m2-2h-12v32h12v-32z" fill="#EDA600"/></g><g clip-path="url(#b)"><linearGradient id="ag" x1="122" x2="122" y1="97" y2="127" gradientUnits="userSpaceOnUse"><stop stop-color="#FFB300" offset="0"/><stop stop-color="#FFCA28" offset=".4007"/></linearGradient><rect x="117" y="97" width="10" height="30" fill="url(#ag)"/><path d="m126 98v28h-8v-28h8m2-2h-12v32h12v-32z" fill="#EDA600"/></g><radialGradient id="af" cx="64" cy="97.246" r="29.228" gradientUnits="userSpaceOnUse"><stop stop-color="#212121" offset="0"/><stop stop-color="#616161" offset="1"/></radialGradient><path d="m85.1 66.62c-11.88 2.05-21.08 9.5-21.08 21.78 0-12.28-9.67-19.73-21.55-21.78-1.84-0.32-3.47-0.52-5.47-0.64v62.56l27 0.01 27-0.01v-62.59c-2 0.11-3.93 0.33-5.9 0.67z" clip-path="url(#b)" fill="url(#af)" opacity=".4"/><g clip-path="url(#b)"><path d="m67.62 138.12c-0.09-2.59 0.01-10.85 0.1-16.12 0-9.25 12.38-12.16 15.88-12.16h9.38c3.5 0 15.87 2.91 15.87 12.14 0 0 0 0.6 0.01 1.06 0.16 9.99 0.14 13.71 0.09 15.08h-41.33z" fill="#B2EBF2"/><path d="m92.98 110.84c3.28 0 14.87 2.67 14.87 11.14v0.28c0 0.04 0 0.33 0.01 0.8 0.13 8.28 0.14 12.2 0.11 14.06h-39.37c-0.04-3.16 0.03-10.11 0.12-15.14 0-8.47 11.6-11.14 14.88-11.14h9.38m0-2h-9.38c-4.35 0-16.88 3.3-16.88 13.14 0 0-0.31 17.14 0 17.14h43.12c0.31 0 0-16.51 0-16.86v-0.28c0.01-9.84-12.51-13.14-16.86-13.14z" fill="#84BDC4"/><path d="m88.28 115.8c-2.31 0-4.19-1.88-4.19-4.19v-3.1h8.39v3.1c-0.01 2.31-1.89 4.19-4.2 4.19z" fill="#E59600"/><path d="m91.97 109.01v2.6c0 2.04-1.66 3.69-3.69 3.69-2.04 0-3.69-1.66-3.69-3.69v-2.6h7.38m1-1h-9.39v3.6c0 2.59 2.1 4.69 4.69 4.69s4.69-2.1 4.69-4.69v-3.6h0.01z" fill="#D18100"/><defs><rect id="ae" x="64.99" y="64.24" width="46.9" height="46.9"/></defs><clipPath id="ad"><use xlink:href="#ae"/></clipPath><g clip-path="url(#ad)"><path d="m73.79 99.83c-2.91 0-5.28-2.27-5.28-5.06s2.37-5.06 5.28-5.06h29.48c2.91 0 5.28 2.27 5.28 5.06s-2.37 5.06-5.28 5.06h-29.48z" fill="#E59600"/><path d="m103.27 90.21c2.64 0 4.78 2.05 4.78 4.56s-2.14 4.56-4.78 4.56h-29.48c-2.64 0-4.78-2.05-4.78-4.56s2.14-4.56 4.78-4.56h29.48m0-1h-29.48c-3.18 0-5.78 2.5-5.78 5.56s2.6 5.56 5.78 5.56h29.49c3.18 0 5.78-2.5 5.78-5.56s-2.61-5.56-5.79-5.56z" fill="#CC8600"/><linearGradient id="ac" x1="88.419" x2="88.419" y1="110.62" y2="66.445" gradientUnits="userSpaceOnUse"><stop stop-color="#FFB300" offset="0"/><stop stop-color="#FFB809" offset=".102"/><stop stop-color="#FFC21A" offset=".3707"/><stop stop-color="#FFC825" offset=".6592"/><stop stop-color="#FFCA28" offset="1"/></linearGradient><path d="m88.42 110.62c-8.41 0-17.46-6.4-17.46-20.46 0-11.25 6.68-23.39 17.46-23.39 10.79 0 17.46 12.14 17.46 23.39 0 14.06-9.05 20.46-17.46 20.46z" fill="url(#ac)"/><path d="m88.42 67.27c4.28 0 8.54 2.29 11.69 6.28 3.4 4.3 5.27 10.2 5.27 16.61 0 6.24-1.83 11.44-5.3 15.04-3.05 3.17-7.19 4.91-11.66 4.91s-8.61-1.74-11.66-4.91c-3.47-3.6-5.3-8.8-5.3-15.04 0-6.41 1.87-12.31 5.27-16.61 3.15-3.99 7.41-6.28 11.69-6.28m0-1c-9.33 0-17.96 9.8-17.96 23.9 0 14.02 8.9 20.95 17.96 20.95s17.96-6.93 17.96-20.95c0-14.11-8.63-23.9-17.96-23.9z" fill="#EDA600"/><path d="m90.42 96.72c-0.05-0.02-0.11-0.04-0.17-0.04h-3.63c-0.06 0.01-0.11 0.02-0.17 0.04-0.33 0.13-0.51 0.47-0.35 0.84 0.16 0.36 0.88 1.38 2.34 1.38s2.18-1.02 2.34-1.38c0.15-0.37-0.03-0.71-0.36-0.84z" fill="#E59600"/><g fill="#6D4C41"><path d="m76.2 89.41s0.07-0.1 0.2-0.26c0.03-0.04 0.06-0.08 0.11-0.13 0.06-0.06 0.12-0.11 0.19-0.17s0.14-0.13 0.22-0.19 0.16-0.12 0.25-0.18l0.27-0.18c0.1-0.05 0.2-0.11 0.31-0.17s0.22-0.11 0.34-0.15c0.12-0.05 0.24-0.09 0.36-0.14 0.25-0.07 0.52-0.15 0.79-0.18 0.27-0.05 0.55-0.06 0.84-0.07 0.28 0.01 0.56 0.02 0.84 0.07 0.27 0.03 0.54 0.11 0.79 0.18 0.12 0.04 0.25 0.09 0.36 0.14 0.12 0.05 0.23 0.09 0.34 0.15s0.21 0.11 0.31 0.17 0.19 0.12 0.27 0.18c0.09 0.06 0.17 0.11 0.24 0.18 0.07 0.06 0.14 0.12 0.2 0.18s0.12 0.11 0.17 0.16 0.09 0.11 0.13 0.15c0.16 0.18 0.24 0.3 0.24 0.3 0.26 0.36 0.18 0.87-0.18 1.13-0.22 0.16-0.49 0.19-0.73 0.11l-0.15-0.05s-0.1-0.03-0.25-0.1c-0.04-0.02-0.08-0.04-0.13-0.06l-0.15-0.06c-0.11-0.04-0.23-0.09-0.36-0.13-0.07-0.02-0.13-0.05-0.2-0.07s-0.15-0.04-0.22-0.06c-0.04-0.01-0.07-0.02-0.11-0.03s-0.08-0.01-0.12-0.02c-0.08-0.01-0.16-0.04-0.24-0.05-0.17-0.02-0.34-0.05-0.51-0.06-0.17-0.02-0.35-0.02-0.53-0.03-0.18 0.01-0.36 0-0.53 0.03-0.18 0.01-0.35 0.04-0.51 0.06-0.08 0.01-0.16 0.04-0.24 0.05-0.04 0.01-0.08 0.01-0.12 0.02s-0.08 0.02-0.11 0.03c-0.08 0.02-0.15 0.04-0.22 0.06s-0.14 0.05-0.2 0.07c-0.07 0.02-0.13 0.04-0.19 0.06-0.05 0.02-0.1 0.04-0.15 0.05-0.05 0.02-0.09 0.03-0.14 0.04-0.05 0.02-0.1 0.05-0.15 0.07-0.18 0.09-0.29 0.14-0.29 0.14-0.42 0.18-0.91-0.02-1.09-0.45-0.14-0.27-0.1-0.57 0.05-0.79z"/><path d="m99.67 90.64s-0.11-0.05-0.29-0.14c-0.04-0.02-0.1-0.05-0.15-0.07-0.05-0.01-0.09-0.03-0.14-0.04-0.05-0.02-0.1-0.03-0.15-0.05-0.06-0.02-0.12-0.04-0.19-0.06s-0.13-0.05-0.2-0.07-0.15-0.04-0.22-0.06c-0.04-0.01-0.07-0.02-0.11-0.03s-0.08-0.01-0.12-0.02c-0.08-0.01-0.16-0.04-0.24-0.05-0.17-0.02-0.34-0.05-0.51-0.06-0.17-0.02-0.35-0.02-0.53-0.03-0.18 0.01-0.36 0-0.53 0.03-0.18 0.01-0.35 0.04-0.51 0.06-0.08 0.01-0.16 0.04-0.24 0.05-0.04 0.01-0.08 0.01-0.12 0.02s-0.08 0.02-0.11 0.03c-0.08 0.02-0.15 0.04-0.22 0.06s-0.14 0.05-0.2 0.07c-0.13 0.04-0.25 0.08-0.36 0.13l-0.15 0.06c-0.05 0.02-0.09 0.04-0.13 0.06-0.15 0.07-0.25 0.1-0.25 0.1l-0.14 0.05c-0.42 0.15-0.88-0.08-1.03-0.5-0.09-0.26-0.04-0.53 0.11-0.74 0 0 0.08-0.11 0.24-0.3 0.04-0.05 0.08-0.1 0.13-0.15s0.11-0.1 0.17-0.16 0.13-0.12 0.2-0.18 0.16-0.11 0.24-0.18l0.27-0.18c0.1-0.05 0.2-0.11 0.31-0.17s0.22-0.11 0.34-0.15c0.12-0.05 0.24-0.09 0.36-0.14 0.25-0.07 0.52-0.15 0.79-0.18 0.27-0.05 0.55-0.06 0.84-0.07 0.28 0.01 0.56 0.02 0.83 0.07 0.27 0.03 0.54 0.11 0.79 0.18 0.12 0.04 0.25 0.09 0.36 0.14 0.12 0.05 0.23 0.09 0.34 0.15s0.21 0.11 0.31 0.17 0.19 0.12 0.27 0.18c0.09 0.06 0.17 0.11 0.25 0.18s0.15 0.13 0.22 0.19 0.13 0.12 0.19 0.17c0.05 0.05 0.08 0.09 0.11 0.13 0.13 0.16 0.2 0.26 0.2 0.26 0.26 0.38 0.16 0.9-0.22 1.15-0.27 0.17-0.56 0.19-0.81 0.09z"/></g><g fill="#404040"><ellipse cx="79.89" cy="94.07" rx="2.53" ry="2.62"/><ellipse cx="96.98" cy="94.07" rx="2.53" ry="2.62"/></g><radialGradient id="ab" cx="69.104" cy="66.239" r="24.009" gradientTransform="matrix(1.0432 0 0 1.0432 16.058 -2.8603)" gradientUnits="userSpaceOnUse"><stop stop-color="#6D4C41" offset="0"/><stop stop-color="#543930" offset=".9006"/></radialGradient><path d="m104.07 69.83c-2.33-2.43-4.54-3.46-4.76-3.49-2.71-1.24-6.2-2.18-10.72-2.18-19.87 0-21.25 16.27-20.45 23.4 0.7 6.29 3.98 7.84 3.98 7.84s-0.64-5.49 0.4-9.47c0.83-3.16 2.8-5.5 2.8-5.5s3.58 3.12 10.27 5.15c3.22 0.98 7.35 0.49 7.35 0.49l-2.32-4.1s3.78 2.79 6.14 3.32c3.02 0.68 5.24 0.39 5.24 0.39l-1.11-4.33s1.92 1.26 3.36 4.71 0.55 9.34 0.55 9.34 3.46-1.54 4.01-7.84c0.68-7.89-0.26-12.62-4.74-17.73z" fill="url(#ab)"/><defs><path id="aa" d="m104.07 69.83c-2.19-2.49-4.54-3.46-4.76-3.49-2.71-1.24-6.2-2.18-10.72-2.18-19.87 0-21.25 16.27-20.45 23.4 0.7 6.29 3.98 7.86 3.98 7.86v-1.54l-1.35-3.65c-0.84-2.29-1.11-4.75-0.78-7.16l0.45-3.28 18.03-11.59 17.92 11.59 0.47 3.19c0.38 2.57 0.08 5.19-0.88 7.61l-1.01 2.57-0.17 2.26s3.46-1.55 4.01-7.85c0.68-7.9-0.26-12.63-4.74-17.74z"/></defs><clipPath id="z"><use xlink:href="#aa"/></clipPath><g clip-path="url(#z)"><path d="m88.59 66.16c3.67 0 6.99 0.67 9.88 2l0.28 0.13 0.06 0.01c0.56 0.27 2.34 1.27 3.75 2.85 3.9 4.45 4.94 8.4 4.25 16.24-0.01 0.12-0.02 0.23-0.03 0.34-0.15-0.85-0.37-1.68-0.69-2.43-1.63-3.9-3.86-5.45-4.1-5.61l-4.32-2.85 1.29 5.02 0.47 1.84c-0.64-0.06-1.4-0.16-2.22-0.35-1.41-0.32-4.06-2-5.4-2.98l-7.51-5.53 4.58 8.12 0.69 1.22c-1.31-0.05-2.48-0.23-3.4-0.51-6.14-1.86-9.51-4.72-9.53-4.74l-1.53-1.34-1.31 1.56c-0.09 0.11-2.27 2.73-3.2 6.28-0.19 0.71-0.32 1.46-0.42 2.21-0.01-0.1-0.02-0.2-0.04-0.3-0.26-2.35-0.74-10.43 4.15-15.9 3.11-3.5 7.93-5.28 14.3-5.28m0-2c-19.87 0-21.25 16.27-20.45 23.4 0.7 6.29 3.98 7.84 3.98 7.84s-0.64-5.49 0.4-9.47c0.83-3.16 2.8-5.5 2.8-5.5s3.58 3.12 10.27 5.15c1.61 0.49 3.44 0.61 4.87 0.61 1.44 0 2.48-0.12 2.48-0.12l-2.32-4.1s3.78 2.79 6.14 3.32c1.63 0.37 3.02 0.45 3.96 0.45 0.81 0 1.28-0.06 1.28-0.06l-1.11-4.33s1.92 1.26 3.36 4.71 0.55 9.34 0.55 9.34 3.46-1.54 4.01-7.84c0.69-7.89-0.25-12.62-4.74-17.73-1.98-2.21-4.54-3.46-4.76-3.49-2.71-1.24-6.2-2.18-10.72-2.18z" fill="#402720"/></g><path d="m92.74 100.89c-1.64 0.97-7 0.97-8.64 0-0.94-0.56-1.9 0.3-1.51 1.15 0.38 0.84 3.31 2.79 5.84 2.79s5.42-1.95 5.8-2.79c0.4-0.86-0.55-1.71-1.49-1.15z" fill="#795548"/></g></g><g clip-path="url(#b)"><path d="m17.99 138.12c-0.09-2.59 0.01-10.89 0.1-16.18 0-9.41 12.59-12.37 16.15-12.37h9.52c3.56 0 16.13 2.96 16.13 12.35 0 0 0 0.61 0.01 1.08 0.16 10.03 0.14 13.75 0.09 15.12h-42z" fill="#E1BEE7"/><path d="m43.77 110.57c3.34 0 15.13 2.72 15.13 11.35v0.28c0 0.05 0 0.34 0.01 0.81 0.14 8.31 0.14 12.24 0.11 14.1h-40.05c-0.05-3.17 0.03-10.15 0.13-15.2 0-8.63 11.81-11.35 15.15-11.35h9.52m0-1.99h-9.52c-4.42 0-17.15 3.35-17.15 13.35 0 0-0.31 17.2 0 17.2h43.8c0.31 0 0-16.56 0-16.92v-0.28c0-10-12.71-13.35-17.13-13.35z" fill="#CCA1D4"/><path d="m38.51 115.8c-2.09 0-3.79-1.7-3.79-3.79v-1.88h8.54v1.88c0 2.09-1.7 3.79-3.79 3.79h-0.96z" fill="#E59600"/><path d="m42.76 110.63v1.38c0 1.81-1.47 3.29-3.29 3.29h-0.96c-1.81 0-3.29-1.47-3.29-3.29v-1.38h7.54m1-1h-9.53v2.38c0 2.37 1.92 4.29 4.29 4.29h0.96c2.37 0 4.29-1.92 4.29-4.29v-2.38h-0.01z" fill="#D18100"/><defs><rect id="y" x="15.36" y="64.24" width="46.9" height="46.9"/></defs><clipPath id="a"><use xlink:href="#y"/></clipPath><g clip-path="url(#a)"><radialGradient id="x" cx="20.834" cy="99.42" r="11.336" gradientUnits="userSpaceOnUse"><stop stop-color="#6D4C41" offset="0"/><stop stop-color="#543930" offset=".9006"/></radialGradient><path d="m20.39 111.08 0.62-2.92-5.39 1.35s-0.38-5.2 4.26-8.2c5.09-3.29 10.94 0.22 10.94 0.22s-0.58 3.93-4.06 7.3c-2.35 2.26-6.37 2.25-6.37 2.25z" fill="url(#x)"/></g><g clip-path="url(#a)"><path d="m24.77 101.89c1.43 0 2.75 0.37 3.67 0.73-0.44 1.23-1.34 3.08-3.08 4.77-0.65 0.63-1.55 1.03-2.42 1.29l0.02-0.11 0.66-3.13-3.1 0.77-2.53 0.63c0.41-1.26 1.25-2.76 2.97-3.87 1.12-0.72 2.4-1.08 3.81-1.08m-0.01-2c-1.56 0-3.27 0.36-4.89 1.41-4.64 3-4.26 8.2-4.26 8.2l5.39-1.35-0.62 2.92c0.08 0 4.05-0.01 6.36-2.26 3.48-3.38 4.06-7.3 4.06-7.3s-2.7-1.62-6.04-1.62z" fill="#402720"/></g><g clip-path="url(#a)"><radialGradient id="w" cx="56.399" cy="99.615" r="11.336" gradientUnits="userSpaceOnUse"><stop stop-color="#6D4C41" offset="0"/><stop stop-color="#543930" offset=".9006"/></radialGradient><path d="m57.49 111.08-0.62-2.92 5.39 1.35s0.38-5.2-4.26-8.2c-5.09-3.29-10.94 0.22-10.94 0.22s0.58 3.93 4.06 7.3c2.35 2.26 6.37 2.25 6.37 2.25z" fill="url(#w)"/></g><g clip-path="url(#a)"><path d="m53.12 101.89c1.41 0 2.69 0.37 3.8 1.09 1.72 1.11 2.56 2.6 2.97 3.87l-2.53-0.63-3.1-0.77 0.66 3.13 0.02 0.11c-0.87-0.26-1.78-0.66-2.42-1.29-1.73-1.68-2.63-3.54-3.08-4.77 0.93-0.37 2.24-0.74 3.68-0.74m0-2c-3.34 0-6.05 1.63-6.05 1.63s0.58 3.93 4.06 7.3c2.32 2.25 6.28 2.26 6.36 2.26l-0.62-2.92 5.39 1.35s0.38-5.2-4.26-8.2c-1.62-1.06-3.32-1.42-4.88-1.42z" fill="#402720"/></g><g clip-path="url(#a)"><path d="m24.27 99.83c-2.91 0-5.28-2.27-5.28-5.06s2.37-5.06 5.28-5.06h29.48c2.79 0 4.89 2.18 4.89 5.06 0 2.89-2.1 5.06-4.89 5.06h-29.48z" fill="#E59600"/><path d="m53.75 90.21c2.5 0 4.39 1.96 4.39 4.56s-1.89 4.56-4.39 4.56h-29.49c-2.64 0-4.78-2.05-4.78-4.56s2.14-4.56 4.78-4.56h29.49m0-1h-29.49c-3.18 0-5.78 2.5-5.78 5.56s2.6 5.56 5.78 5.56h29.48c3.18 0 5.39-2.5 5.39-5.56s-2.2-5.56-5.38-5.56z" fill="#CC8600"/></g><g clip-path="url(#a)"><linearGradient id="v" x1="38.793" x2="38.793" y1="110.62" y2="78.892" gradientUnits="userSpaceOnUse"><stop stop-color="#FFB300" offset="0"/><stop stop-color="#FFB809" offset=".102"/><stop stop-color="#FFC21A" offset=".3707"/><stop stop-color="#FFC825" offset=".6592"/><stop stop-color="#FFCA28" offset="1"/></linearGradient><path d="m38.79 110.62c-7.09 0-17.07-6.35-17.07-20.46 0-13.12 7.5-23.39 17.07-23.39s17.07 10.28 17.07 23.39c0.01 14.11-9.98 20.46-17.07 20.46z" fill="url(#v)"/><path d="m38.79 67.27c8.15 0 16.57 8.56 16.57 22.9 0 13.76-9.69 19.95-16.57 19.95s-16.57-6.19-16.57-19.95c0-14.34 8.43-22.9 16.57-22.9m0-1c-9.33 0-17.57 9.8-17.57 23.9 0 14.02 9.87 20.95 17.57 20.95s17.57-6.93 17.57-20.95c0.01-14.11-8.24-23.9-17.57-23.9z" fill="#EDA600"/></g><path d="m53.78 42.22c1.59-2.56 0.78-5.64 0.78-5.64s-1.19 2.81-4.7 2.25c-0.22-0.04-0.44-0.07-0.65-0.09-2.6-1.24-5.94-2.17-10.28-2.17-19.05 0.03-20.56 16.25-19.78 23.38 0.26 2.36 0.51 2.94 0.51 2.94l3.44 2.91-0.29-1.84-1.7-1.43-0.31-2.41 18.23-10.3 18.03 12.75-2.31 1.55-0.17 1.76 3.55-2.8s0.21-2.91 0.22-3.14c0.32-8.15-0.26-12.61-4.57-17.72z" clip-path="url(#a)" fill="none"/><path d="m40.79 96.72c-0.05-0.02-0.11-0.04-0.17-0.04h-3.63c-0.06 0.01-0.11 0.02-0.17 0.04-0.33 0.13-0.51 0.47-0.35 0.84 0.16 0.36 0.88 1.38 2.34 1.38s2.18-1.02 2.34-1.38c0.16-0.37-0.03-0.71-0.36-0.84z" clip-path="url(#a)" fill="#E59600"/><g clip-path="url(#a)" fill="#6D4C41"><path d="m26.58 89.41s0.07-0.1 0.2-0.26c0.03-0.04 0.06-0.08 0.11-0.13 0.06-0.06 0.12-0.11 0.19-0.17s0.14-0.13 0.22-0.19 0.16-0.12 0.25-0.18l0.27-0.18c0.1-0.05 0.2-0.11 0.31-0.17s0.22-0.11 0.34-0.15c0.12-0.05 0.24-0.09 0.36-0.14 0.25-0.07 0.52-0.15 0.79-0.18 0.27-0.05 0.55-0.06 0.84-0.07 0.28 0.01 0.56 0.02 0.84 0.07 0.27 0.03 0.54 0.11 0.79 0.18 0.12 0.04 0.25 0.09 0.36 0.14 0.12 0.05 0.23 0.09 0.34 0.15s0.21 0.11 0.31 0.17 0.19 0.12 0.27 0.18c0.09 0.06 0.17 0.11 0.24 0.18 0.07 0.06 0.14 0.12 0.2 0.18s0.12 0.11 0.17 0.16 0.09 0.11 0.13 0.15c0.16 0.18 0.24 0.3 0.24 0.3 0.26 0.36 0.18 0.87-0.18 1.13-0.22 0.16-0.49 0.19-0.73 0.11l-0.15-0.05s-0.1-0.03-0.25-0.1c-0.04-0.02-0.08-0.04-0.13-0.06l-0.15-0.06c-0.11-0.04-0.23-0.09-0.36-0.13-0.07-0.02-0.13-0.05-0.2-0.07s-0.15-0.04-0.22-0.06c-0.04-0.01-0.07-0.02-0.11-0.03s-0.08-0.01-0.12-0.02c-0.08-0.01-0.16-0.04-0.24-0.05-0.17-0.02-0.34-0.05-0.51-0.06-0.17-0.02-0.35-0.02-0.53-0.03-0.18 0.01-0.36 0-0.53 0.03-0.18 0.01-0.35 0.04-0.51 0.06-0.08 0.01-0.16 0.04-0.24 0.05-0.04 0.01-0.08 0.01-0.12 0.02s-0.08 0.02-0.11 0.03c-0.08 0.02-0.15 0.04-0.22 0.06s-0.14 0.05-0.2 0.07c-0.07 0.02-0.13 0.04-0.19 0.06-0.05 0.02-0.1 0.04-0.15 0.05-0.05 0.02-0.09 0.03-0.14 0.04-0.05 0.02-0.1 0.05-0.15 0.07-0.18 0.09-0.29 0.14-0.29 0.14-0.42 0.18-0.91-0.02-1.09-0.45-0.14-0.27-0.1-0.57 0.05-0.79z"/><path d="m50.04 90.64s-0.11-0.05-0.29-0.14c-0.04-0.02-0.1-0.05-0.15-0.07-0.05-0.01-0.09-0.03-0.14-0.04-0.05-0.02-0.1-0.03-0.15-0.05-0.06-0.02-0.12-0.04-0.19-0.06s-0.13-0.05-0.2-0.07-0.15-0.04-0.22-0.06c-0.04-0.01-0.07-0.02-0.11-0.03s-0.08-0.01-0.12-0.02c-0.08-0.01-0.16-0.04-0.24-0.05-0.17-0.02-0.34-0.05-0.51-0.06-0.17-0.02-0.35-0.02-0.53-0.03-0.18 0.01-0.36 0-0.53 0.03-0.18 0.01-0.35 0.04-0.51 0.06-0.08 0.01-0.16 0.04-0.24 0.05-0.04 0.01-0.08 0.01-0.12 0.02s-0.08 0.02-0.11 0.03c-0.08 0.02-0.15 0.04-0.22 0.06s-0.14 0.05-0.2 0.07c-0.13 0.04-0.25 0.08-0.36 0.13l-0.15 0.06c-0.05 0.02-0.09 0.04-0.13 0.06-0.15 0.07-0.25 0.1-0.25 0.1l-0.14 0.05c-0.42 0.15-0.88-0.08-1.03-0.5-0.09-0.26-0.04-0.53 0.11-0.74 0 0 0.08-0.11 0.24-0.3 0.04-0.05 0.08-0.1 0.13-0.15s0.11-0.1 0.17-0.16 0.13-0.12 0.2-0.18 0.16-0.11 0.24-0.18l0.27-0.18c0.1-0.05 0.2-0.11 0.31-0.17s0.22-0.11 0.34-0.15c0.12-0.05 0.24-0.09 0.36-0.14 0.25-0.07 0.52-0.15 0.79-0.18 0.27-0.05 0.55-0.06 0.83-0.07 0.28 0.01 0.56 0.02 0.84 0.07 0.27 0.03 0.54 0.11 0.79 0.18 0.12 0.04 0.25 0.09 0.36 0.14 0.12 0.05 0.23 0.09 0.34 0.15s0.21 0.11 0.31 0.17 0.19 0.12 0.27 0.18c0.09 0.06 0.17 0.11 0.25 0.18s0.15 0.13 0.22 0.19 0.13 0.12 0.19 0.17c0.05 0.05 0.08 0.09 0.11 0.13 0.13 0.16 0.2 0.26 0.2 0.26 0.26 0.38 0.16 0.9-0.22 1.15-0.26 0.17-0.56 0.19-0.81 0.09z"/></g><g clip-path="url(#a)" fill="#404040"><ellipse cx="30.27" cy="94.07" rx="2.53" ry="2.62"/><ellipse cx="47.36" cy="94.07" rx="2.53" ry="2.62"/></g><path d="m43.12 101.05c-1.64 0.97-7 0.97-8.64 0-0.94-0.56-1.9 0.3-1.51 1.15 0.38 0.84 3.31 2.79 5.84 2.79s5.42-1.95 5.8-2.79c0.39-0.85-0.55-1.71-1.49-1.15z" clip-path="url(#a)" fill="#795548"/><g clip-path="url(#a)"><radialGradient id="u" cx="21.532" cy="33.572" r="24.009" gradientTransform="matrix(1.0432 0 0 1.0432 16.058 -1.4497)" gradientUnits="userSpaceOnUse"><stop stop-color="#6D4C41" offset="0"/><stop stop-color="#543930" offset=".9006"/></radialGradient><path d="m54.44 37.16c-2.33-2.43-4.54-3.46-4.76-3.49-2.71-1.24-6.2-2.18-10.72-2.18-19.87 0-21.25 16.27-20.45 23.4 0.7 6.29 3.98 7.84 3.98 7.84s-0.64-5.49 0.4-9.47c0.83-3.16 2.8-5.5 2.8-5.5s3.58 3.12 10.27 5.15c3.22 0.98 7.35 0.49 7.35 0.49l-2.32-4.1s3.78 2.79 6.14 3.32c3.02 0.68 5.24 0.39 5.24 0.39l-1.11-4.33s1.92 1.26 3.36 4.71 0.55 9.34 0.55 9.34 3.46-1.54 4.01-7.84c0.69-7.89-0.26-12.61-4.74-17.73z" fill="url(#u)"/><defs><path id="t" d="m54.44 37.16c-2.19-2.49-4.54-3.46-4.76-3.49-2.71-1.24-6.2-2.18-10.72-2.18-19.87 0-21.25 16.27-20.45 23.4 0.7 6.29 3.98 7.86 3.98 7.86v-1.54s-1.23-1.29-1.64-2.14-0.04-11.96-0.04-11.96l18.03-4.81 17.92 4.81s0.71 11.24 0.05 12.11-1.47 1.25-1.47 1.25l-0.17 2.26s3.46-1.55 4.01-7.85c0.69-7.87-0.26-12.6-4.74-17.72z"/></defs><clipPath id="s"><use xlink:href="#t"/></clipPath><g clip-path="url(#s)"><path d="m38.96 34.49c3.52 0 6.71 0.64 9.47 1.91l0.42 0.19 0.04 0.01c0.62 0.32 2.11 1.22 3.29 2.54 2.88 3.29 4.11 6.31 4.19 11.05-1.5-2.61-3.1-3.77-3.47-4.01l-6.49-4.27 1.93 7.52 0.1 0.4c-0.21-0.04-0.43-0.08-0.66-0.13-1.18-0.27-3.7-1.84-5.03-2.81l-11.28-8.31 6.64 11.76c-0.48-0.08-0.91-0.17-1.3-0.29-5.9-1.79-9.15-4.52-9.17-4.54l-2.3-2-1.97 2.33c-0.15 0.18-0.99 1.2-1.85 2.79 0.38-2.98 1.4-6.45 3.85-9.19 2.96-3.28 7.52-4.95 13.59-4.95m0-3c-19.87 0-21.25 16.27-20.45 23.4 0.7 6.29 3.98 7.84 3.98 7.84s-0.64-5.49 0.4-9.47c0.83-3.16 2.8-5.5 2.8-5.5s3.58 3.12 10.27 5.15c1.61 0.49 3.44 0.61 4.87 0.61 1.44 0 2.48-0.12 2.48-0.12l-2.32-4.1s3.78 2.79 6.14 3.32c1.63 0.37 3.02 0.45 3.96 0.45 0.81 0 1.28-0.06 1.28-0.06l-1.11-4.33s1.92 1.26 3.36 4.71 0.55 9.34 0.55 9.34 3.46-1.54 4.01-7.84c0.69-7.89-0.25-12.62-4.74-17.74-1.98-2.21-4.54-3.46-4.76-3.49-2.71-1.23-6.2-2.17-10.72-2.17z" fill="#402720"/></g></g><line x1="47" x2="25" y1="85" y2="85" clip-path="url(#a)" fill="none"/><g clip-path="url(#a)"><radialGradient id="r" cx="21.532" cy="66.32" r="24.009" gradientTransform="matrix(1.0432 0 0 1.0432 16.058 -2.8638)" gradientUnits="userSpaceOnUse"><stop stop-color="#6D4C41" offset="0"/><stop stop-color="#543930" offset="1"/></radialGradient><path d="m54.44 69.91c-2.33-2.43-4.54-3.46-4.76-3.49-2.71-1.24-6.2-2.18-10.72-2.18-19.87 0-21.25 16.27-20.45 23.4 0.7 6.29 4.37 7.84 4.37 7.84l-0.6-6.12s7.29-1.92 11.04-4.83 5.48-5.39 5.48-5.39 1.27 1.87 5.44 5.34 11.04 4.92 11.04 4.92l-0.51 6.07s3.85-1.54 4.4-7.84c0.7-7.88-0.25-12.61-4.73-17.72z" fill="url(#r)"/><defs><path id="q" d="m54.44 69.99c-2.19-2.49-4.54-3.46-4.76-3.49-2.71-1.24-6.2-2.18-10.72-2.18-19.87 0-21.25 16.27-20.45 23.4 0.7 6.29 4.37 7.86 4.37 7.86l-0.03-1.34-1.97-5.04c-0.59-2.08-0.61-4.29-0.05-6.38l0.77-2.87 17.24-10.39 17.13 10.39 0.79 3.2c0.57 2.3 0.72 4.72-0.08 6.95l-1.73 3.74-0.18 1.74s3.85-1.55 4.4-7.85c0.7-7.89-0.25-12.62-4.73-17.74z"/></defs><clipPath id="p"><use xlink:href="#q"/></clipPath><g clip-path="url(#p)"><path d="m38.96 66.32c3.67 0 6.99 0.67 9.88 2l0.28 0.13 0.06 0.01c0.56 0.27 2.34 1.27 3.75 2.85 3.9 4.45 4.94 8.4 4.25 16.24-0.04 0.43-0.09 0.82-0.16 1.2-0.07-1.27-0.23-2.49-0.56-3.29-1.63-3.9-3.86-5.45-4.1-5.61l-4.33-2.85 1.29 5.02 0.47 1.84c-0.64-0.06-1.4-0.16-2.22-0.35-1.41-0.32-4.06-2-5.4-2.98l-7.51-5.53 4.59 8.12 0.69 1.22c-1.31-0.05-2.48-0.23-3.4-0.51-6.14-1.86-9.51-4.72-9.53-4.74l-1.53-1.34-1.31 1.56c-0.09 0.11-2.27 2.73-3.2 6.28-0.19 0.74-0.33 1.53-0.41 2.32-0.02-0.13-0.04-0.27-0.05-0.41-0.26-2.35-0.74-10.43 4.15-15.9 3.12-3.5 7.93-5.28 14.3-5.28m0-2c-19.87 0-21.25 16.27-20.45 23.4 0.7 6.29 4.37 7.84 4.37 7.84s-1.03-5.49 0.01-9.47c0.83-3.16 2.8-5.5 2.8-5.5s3.58 3.12 10.27 5.15c1.61 0.49 3.44 0.61 4.87 0.61 1.44 0 2.48-0.12 2.48-0.12l-2.32-4.1s3.78 2.79 6.14 3.32c1.63 0.37 3.02 0.45 3.96 0.45 0.81 0 1.28-0.06 1.28-0.06l-1.11-4.33s1.92 1.26 3.36 4.71c0.76 1.81 0.3 7.54 0.3 7.54l-0.15 1.86s3.85-1.6 4.4-7.9c0.69-7.89-0.25-12.62-4.74-17.74-1.98-2.21-4.54-3.46-4.76-3.49-2.7-1.23-6.19-2.17-10.71-2.17z" fill="#402720"/></g></g></g></g><g clip-path="url(#c)"><defs><rect id="o" x="3.69" y="4.11" width="60.22" height="60.22"/></defs><clipPath id="m"><use xlink:href="#o"/></clipPath><g clip-path="url(#m)"><path d="m15.78 49.3c-3.62 0-6.57-3.15-6.57-7.03s2.95-7.03 6.57-7.03h36.05c3.62 0 6.57 3.15 6.57 7.03s-2.95 7.03-6.57 7.03h-36.05z" fill="#E59600"/><path d="m51.83 35.74c3.35 0 6.07 2.93 6.07 6.53s-2.72 6.53-6.07 6.53h-36.05c-3.35 0-6.07-2.93-6.07-6.53s2.72-6.53 6.07-6.53h36.05m0-1h-36.05c-3.89 0-7.07 3.39-7.07 7.53s3.18 7.53 7.07 7.53h36.05c3.89 0 7.07-3.39 7.07-7.53s-3.18-7.53-7.07-7.53z" fill="#CC8600"/><linearGradient id="l" x1="33.732" x2="33.732" y1="8.9099" y2="63.351" gradientUnits="userSpaceOnUse"><stop stop-color="#FFCA28" offset=".5993"/><stop stop-color="#FFB300" offset="1"/></linearGradient><path d="m33.73 63.32c-5.56 0-10.71-2.21-14.51-6.23-4.32-4.56-6.6-11.14-6.6-19.03 0-8.09 2.32-15.55 6.54-20.98 3.92-5.06 9.23-7.96 14.57-7.96s10.65 2.9 14.57 7.96c4.22 5.44 6.54 12.89 6.54 20.98 0 7.89-2.28 14.47-6.6 19.03-3.79 4.02-8.95 6.23-14.51 6.23z" fill="url(#l)"/><path d="m33.73 10.11c5.03 0 10.05 2.76 13.78 7.57 4.08 5.26 6.33 12.5 6.33 20.37 0 7.63-2.19 13.97-6.32 18.35-3.61 3.81-8.51 5.91-13.79 5.91s-10.18-2.1-13.79-5.91c-4.14-4.37-6.32-10.72-6.32-18.35 0-7.87 2.25-15.11 6.33-20.37 3.73-4.81 8.76-7.57 13.78-7.57m0-2c-11.48 0-22.11 12.28-22.11 29.94 0 17.57 10.95 26.26 22.11 26.26s22.11-8.69 22.11-26.26c0-17.66-10.63-29.94-22.11-29.94z" fill="#EDA600"/><g fill="#6D4C41"><path d="m17.97 34.93s0.09-0.13 0.25-0.33c0.04-0.05 0.08-0.11 0.14-0.17 0.07-0.07 0.15-0.14 0.24-0.22s0.18-0.16 0.28-0.25c0.1-0.08 0.2-0.15 0.31-0.23s0.23-0.16 0.35-0.23c0.13-0.07 0.26-0.14 0.4-0.21 0.14-0.08 0.28-0.14 0.43-0.2s0.31-0.12 0.47-0.18c0.32-0.09 0.66-0.19 1.01-0.24 0.35-0.07 0.71-0.07 1.07-0.09 0.36 0.02 0.72 0.02 1.07 0.09 0.35 0.04 0.69 0.15 1.01 0.24 0.16 0.05 0.32 0.11 0.47 0.18 0.15 0.06 0.3 0.12 0.43 0.2 0.14 0.07 0.27 0.14 0.4 0.21 0.12 0.07 0.24 0.16 0.35 0.23 0.11 0.08 0.22 0.15 0.31 0.23s0.18 0.16 0.26 0.23 0.16 0.14 0.22 0.21c0.07 0.07 0.12 0.14 0.17 0.19 0.2 0.24 0.31 0.38 0.31 0.38 0.33 0.46 0.23 1.11-0.24 1.45-0.28 0.2-0.63 0.24-0.94 0.14l-0.19-0.07s-0.13-0.04-0.32-0.13c-0.05-0.02-0.1-0.05-0.16-0.07s-0.13-0.05-0.2-0.07c-0.14-0.06-0.29-0.11-0.46-0.16-0.09-0.03-0.17-0.06-0.26-0.09-0.09-0.02-0.19-0.05-0.28-0.07-0.05-0.01-0.1-0.03-0.15-0.04l-0.15-0.03c-0.1-0.02-0.21-0.05-0.31-0.06-0.22-0.02-0.43-0.07-0.66-0.08-0.22-0.03-0.45-0.02-0.68-0.03-0.23 0.01-0.46 0.01-0.68 0.04-0.23 0.01-0.44 0.06-0.66 0.08-0.11 0.02-0.21 0.05-0.31 0.06l-0.15 0.03c-0.05 0.01-0.1 0.03-0.15 0.04-0.1 0.02-0.19 0.05-0.28 0.07s-0.18 0.06-0.26 0.09-0.17 0.05-0.24 0.08c-0.07 0.02-0.13 0.05-0.19 0.07l-0.18 0.06c-0.06 0.03-0.13 0.07-0.19 0.09-0.24 0.12-0.38 0.18-0.38 0.18-0.54 0.23-1.17-0.03-1.39-0.58-0.14-0.37-0.08-0.75 0.11-1.04z"/><path d="m48.35 36.52s-0.14-0.06-0.38-0.18c-0.06-0.03-0.13-0.07-0.19-0.09-0.06-0.01-0.12-0.04-0.18-0.06s-0.12-0.04-0.19-0.07c-0.08-0.02-0.16-0.05-0.24-0.08-0.09-0.03-0.17-0.06-0.26-0.09-0.09-0.02-0.19-0.05-0.28-0.07-0.05-0.01-0.1-0.03-0.15-0.04l-0.15-0.03c-0.1-0.02-0.21-0.05-0.31-0.06-0.22-0.02-0.43-0.07-0.66-0.08-0.22-0.03-0.45-0.02-0.68-0.04-0.23 0.01-0.46 0.01-0.68 0.03-0.23 0.01-0.44 0.06-0.66 0.08-0.11 0.02-0.21 0.05-0.31 0.06l-0.15 0.03c-0.05 0.01-0.1 0.03-0.15 0.04-0.1 0.03-0.19 0.05-0.28 0.07s-0.18 0.06-0.26 0.09c-0.17 0.05-0.33 0.11-0.46 0.16-0.07 0.03-0.13 0.05-0.2 0.07-0.06 0.02-0.11 0.05-0.16 0.07-0.2 0.09-0.32 0.13-0.32 0.13l-0.19 0.06c-0.54 0.19-1.13-0.1-1.32-0.64-0.11-0.33-0.05-0.68 0.14-0.95 0 0 0.1-0.14 0.31-0.38 0.05-0.06 0.11-0.13 0.17-0.19 0.07-0.07 0.14-0.13 0.22-0.21 0.08-0.07 0.17-0.15 0.26-0.23s0.2-0.15 0.31-0.23 0.23-0.16 0.35-0.23c0.13-0.07 0.26-0.14 0.4-0.21 0.14-0.08 0.28-0.14 0.43-0.2s0.31-0.12 0.47-0.18c0.32-0.09 0.66-0.19 1.01-0.24 0.35-0.07 0.71-0.07 1.07-0.09 0.36 0.02 0.72 0.02 1.07 0.09 0.35 0.04 0.69 0.15 1.01 0.24 0.16 0.05 0.32 0.11 0.47 0.18 0.15 0.06 0.3 0.12 0.43 0.2 0.14 0.07 0.27 0.14 0.4 0.21 0.12 0.07 0.24 0.16 0.35 0.23 0.11 0.08 0.21 0.15 0.31 0.23 0.1 0.09 0.2 0.17 0.28 0.25 0.09 0.08 0.17 0.15 0.24 0.22 0.06 0.07 0.1 0.12 0.14 0.17 0.16 0.21 0.25 0.33 0.25 0.33 0.33 0.49 0.21 1.15-0.28 1.48-0.29 0.26-0.68 0.28-1 0.15z"/></g><g fill="#404040"><ellipse cx="22.96" cy="40.92" rx="3.25" ry="3.37"/><ellipse cx="44.65" cy="40.92" rx="3.25" ry="3.37"/></g><radialGradient id="k" cx="33.877" cy="5.8306" r="20.048" gradientUnits="userSpaceOnUse"><stop stop-color="#6D4C41" offset="0"/><stop stop-color="#543930" offset="1"/></radialGradient><path d="m33.99 4.13c-30.21 0-23.86 34.71-23.86 34.71s3.18 5.61 3.18 5.49c-0.11-4.78 1.81-13.25 3.17-16.86 0.68-1.82 2.57-2.88 4.48-2.53 2.94 0.53 7.62 1.19 12.78 1.19 4.96 0 9.51-0.61 12.5-1.13 2.05-0.36 4.03 0.9 4.57 2.91l3.74 16.41 3.09-6c0 0.02 6.19-34.19-23.65-34.19z" fill="url(#k)"/><defs><path id="j" d="m33.99 4.13c-30.21 0-24.24 33.86-24.24 33.86s3.57 6.47 3.57 6.35c-0.02-1.02 0.64-5.25 0.64-5.25-1.17-2.22-1.78-4.69-1.78-7.19v-0.74l1.78-6.6 19.89-12.28 19.6 12.17 1.66 7.6 0.05 0.69c-0.27 2.21-0.95 4.22-1.79 6.29l1.18 5.3 3.18-6.29c0 0.01 6.1-33.91-23.74-33.91z"/></defs><clipPath id="i"><use xlink:href="#j"/></clipPath><g clip-path="url(#i)"><path d="m33.99 7.13c7.09 0 12.46 2.12 15.96 6.31 4.93 5.88 5.41 14.66 5.17 19.92l-1.39-6.1c-0.01-0.04-0.02-0.07-0.03-0.11-0.82-3.06-3.61-5.19-6.77-5.19-0.4 0-0.81 0.04-1.21 0.1-2.84 0.49-7.22 1.08-11.98 1.08-4.91 0-9.37-0.62-12.24-1.14-0.42-0.08-0.84-0.11-1.26-0.11-2.91 0-5.54 1.82-6.56 4.54-0.45 1.2-0.96 2.91-1.45 4.84 0.02-5.18 0.95-12.51 5.31-17.68 3.6-4.29 9.14-6.46 16.45-6.46m0-3c-30.21 0-24.31 33.86-24.31 33.86s3.57 6.35 3.63 6.35c-0.11-4.78 1.81-13.25 3.17-16.86 0.6-1.59 2.11-2.59 3.76-2.59 0.24 0 0.48 0.02 0.73 0.07 2.94 0.53 7.62 1.19 12.78 1.19 4.96 0 9.51-0.61 12.5-1.13 0.23-0.04 0.46-0.06 0.69-0.06 1.79 0 3.4 1.19 3.87 2.97l3.74 16.41 3.09-6s6.19-34.21-23.65-34.21z" fill="#402821"/></g><path d="m39.21 52.94c-2.1 1.25-8.99 1.25-11.09 0-1.21-0.72-2.44 0.38-1.94 1.48 0.49 1.08 4.25 3.58 7.5 3.58s6.96-2.5 7.45-3.58c0.51-1.1-0.71-2.2-1.92-1.48z" fill="#795548"/><path d="m35.9 46.88c-0.07-0.03-0.14-0.05-0.21-0.05h-4.67c-0.07 0.01-0.14 0.03-0.21 0.05-0.42 0.17-0.66 0.61-0.46 1.08s1.13 1.78 3 1.78 2.8-1.31 3-1.78c0.21-0.47-0.02-0.91-0.45-1.08z" fill="#E59600"/></g></g></svg>
