<svg enable-background="new 0 0 128 128" viewBox="0 0 128 128" xmlns="http://www.w3.org/2000/svg"><path d="m22.03 100h-6.93c-0.64 0-1.16-0.43-1.16-1s0.52-1 1.16-1h6.93c0.64 0 1.16 0.43 1.16 1s-0.52 1-1.16 1z" fill="#424242"/><path d="m31.72 106.39c-0.2 0-0.39-0.06-0.57-0.17l-10.35-6.94c-0.29-0.2-0.46-0.53-0.45-0.88s0.2-0.67 0.51-0.85l10.47-6.14c0.49-0.29 1.11-0.12 1.4 0.36 0.29 0.49 0.12 1.11-0.36 1.4l-9.06 5.32 9 6.03c0.47 0.31 0.59 0.95 0.28 1.42-0.22 0.29-0.54 0.45-0.87 0.45z" fill="#424242"/><path d="m22.01 51h-7.09c-0.65 0-1.18-0.43-1.18-1s0.53-1 1.18-1h7.09c0.65 0 1.18 0.43 1.18 1s-0.53 1-1.18 1z" fill="#424242"/><path d="m31.72 58.34c-0.2 0-0.39-0.06-0.57-0.17l-10.35-6.94c-0.29-0.2-0.46-0.53-0.45-0.88s0.2-0.67 0.51-0.85l10.47-6.14c0.49-0.29 1.11-0.12 1.4 0.36 0.29 0.49 0.12 1.12-0.36 1.4l-9.06 5.32 9 6.03c0.47 0.31 0.59 0.95 0.28 1.42-0.22 0.3-0.54 0.45-0.87 0.45z" fill="#424242"/><path d="m84.14 29.33c-10.22-2.7-20.6 0.07-20.6 6.94l35.38 6.17c0 0.01-2.65-9.91-14.78-13.11z" fill="#1565C0"/><line x1="70" x2="70" y1="33" y2="36" fill="none" stroke="#90CAF9" stroke-linecap="round" stroke-linejoin="round" stroke-miterlimit="10" stroke-width="2"/><line x1="76" x2="76" y1="32" y2="37" fill="none" stroke="#90CAF9" stroke-linecap="round" stroke-linejoin="round" stroke-miterlimit="10" stroke-width="2"/><line x1="84" x2="84" y1="33" y2="38" fill="none" stroke="#90CAF9" stroke-linecap="round" stroke-linejoin="round" stroke-miterlimit="10" stroke-width="2"/><line x1="90" x2="90" y1="35" y2="42" fill="none" stroke="#90CAF9" stroke-linecap="round" stroke-linejoin="round" stroke-miterlimit="10" stroke-width="2"/><path d="m43.28 37.7-14.97 4.36v17.56l20.94 5.73c-4.98-6.99-7.13-17.93-5.97-27.65z" fill="#fff"/><path d="m121.64 42.96 0.99-3.45c0.4-1.63-0.83-3.11-1.96-2.36l-5.46 3c-4.8 3.18-10.34 3.42-15.29 0.71-3.94-2.15-12.94-4.5-18.7-5.72-12.27-2.59-26.42 0-26.42 0l-11.52 2.56c-1.16 9.72 1 20.66 5.98 27.64l5.08 1.15s13.68 1.62 26.65 0c6.04-0.75 15.09-3.05 19-5.28 5.03-2.87 10.7-2.72 15.61 0.53l4.15 2.76c1.12 0.75 2.35-0.72 2.91-2.35l-1.06-3.79c-1.39-4.96-1.37-10.45 0.04-15.4z" fill="#0288D1"/><path d="m61.68 47.69c-0.14-3.64-0.63-9.39-2.31-13.02-1.47 0-3.6 0.42-3.6 0.42 1.22 0.86 2.55 5.08 2.84 12.74 0.32 8.64-0.67 16.6-2.69 18.82 1.43 0.17 1.89 0.17 3.23 0.17 2.26-5.12 2.73-13.75 2.53-19.13z" fill="#fff"/><ellipse cx="50.88" cy="46.4" rx="4.72" ry="5.79" fill="#fff"/><ellipse cx="49.89" cy="46.64" rx="2.88" ry="3.54" fill="none" stroke="#E53935" stroke-miterlimit="10"/><ellipse cx="49.24" cy="47.45" rx="1.57" ry="1.93" fill="#424242"/><path d="m65.6 36.84c-0.05 0-0.6 0.01-0.6 0.01v7.71s0.55 0.01 0.6 0.01c1.74 0 3.15-1.73 3.15-3.86 0-2.14-1.41-3.87-3.15-3.87z" fill="#E3F2FD"/><path d="m67.62 46.1c-0.05 0-0.62 0.01-0.62 0.01v7.71s0.57 0.01 0.62 0.01c1.74 0 3.15-1.73 3.15-3.86 0-2.14-1.41-3.87-3.15-3.87z" fill="#BBDEFB"/><path d="m65.6 55.36c-0.05 0-0.6 0.01-0.6 0.01v7.71s0.55 0.01 0.6 0.01c1.74 0 3.15-1.73 3.15-3.86 0-2.14-1.41-3.87-3.15-3.87z" fill="#BBDEFB"/><path d="m79.29 46.1c-0.05 0-0.29 0.01-0.29 0.01v7.71s0.23 0.01 0.29 0.01c1.74 0 3.15-1.73 3.15-3.86 0-2.14-1.41-3.87-3.15-3.87z" fill="#E3F2FD"/><path d="m77.26 55.36c-0.05 0-0.26 0.01-0.26 0.01v7.71s0.21 0.01 0.26 0.01c1.74 0 3.15-1.73 3.15-3.86 0-2.14-1.41-3.87-3.15-3.87z" fill="#BBDEFB"/><path d="m88.42 41.47c-0.05 0-0.42 0.01-0.42 0.01v7.71s0.37 0.01 0.42 0.01c1.74 0 3.15-1.73 3.15-3.86 0-2.14-1.41-3.87-3.15-3.87z" fill="#E3F2FD"/><path d="m96.2 47.26c-0.05 0-0.2 0.01-0.2 0.01v7.71s0.15 0.01 0.2 0.01c1.74 0 3.15-1.73 3.15-3.86 0-2.14-1.41-3.87-3.15-3.87z" fill="#BBDEFB"/><path d="m103.97 47.26c-0.05 0 0.03 0.01 0.03 0.01v7.71s-0.08 0.01-0.03 0.01c1.74 0 3.15-1.73 3.15-3.86 0-2.14-1.41-3.87-3.15-3.87z" fill="#E3F2FD"/><line x1="109.38" x2="116.69" y1="47.21" y2="44.41" fill="none" stroke="#90CAF9" stroke-linecap="round" stroke-linejoin="round" stroke-miterlimit="10" stroke-width="2"/><line x1="109.38" x2="116.68" y1="53.92" y2="56.76" fill="none" stroke="#90CAF9" stroke-linecap="round" stroke-linejoin="round" stroke-miterlimit="10" stroke-width="2"/><line x1="109" x2="114" y1="51" y2="51" fill="none" stroke="#90CAF9" stroke-linecap="round" stroke-linejoin="round" stroke-miterlimit="10" stroke-width="2"/><path d="m36.02 51.9c-0.28-1.4-1.06-2.33-1.86-2.06-0.64 0.21-0.94 0.64-1.13 1.68-0.25 1.38 1.18 7.43 5.74 7.91 3.1 0.33 3.27-5.49 3.27-5.49s-0.75 4.43-2.95 3.75c-1.73-0.53-2.52-2.99-3.07-5.79z" fill="#1976D2"/><g opacity=".2"><path d="m76.47 30.31c2.32 0 4.79 0.33 7.15 0.95 7.55 1.99 11.04 6.84 12.45 9.55 0.22 0.42 0.57 0.74 1.01 0.93 0.77 0.32 1.4 0.61 1.88 0.88 2.56 1.4 5.27 2.11 8.03 2.11 3.2 0 6.4-0.99 9.25-2.87l4.31-2.37-0.83 2.91c-1.52 5.31-1.53 11.17-0.05 16.5l0.87 3.13c-0.08 0.17-0.17 0.32-0.25 0.43l-3.59-2.39c-2.86-1.9-6.08-2.91-9.31-2.91-2.9 0-5.72 0.78-8.4 2.3-3.64 2.08-12.54 4.32-18.26 5.03-3.74 0.47-7.92 0.7-12.43 0.7-7.13 0-12.83-0.6-13.64-0.69l-5.09-1.11-19.57-5.3v-14.53l13.62-3.92 11.5-2.53c0.38-0.07 3.99-0.68 8.87-0.96 0.8-0.05 1.51-0.56 1.78-1.31 1-2.76 5.21-4.53 10.7-4.53m0-2c-6.1 0-11.19 2.06-12.56 5.84-5.33 0.31-9.1 1-9.1 1l-11.69 2.55-15.12 4.36v17.56l21.1 5.73 5.16 1.15s6.12 0.72 14.02 0.72c3.95 0 8.37-0.18 12.69-0.72 6.04-0.75 15.1-3.05 19.01-5.28 2.37-1.36 4.9-2.04 7.41-2.04 2.81 0 5.62 0.85 8.2 2.57l4.15 2.76c0.21 0.14 0.42 0.2 0.63 0.2 0.93 0 1.83-1.22 2.28-2.55l-1.06-3.79c-1.39-4.97-1.37-10.46 0.04-15.41l0.99-3.45c0.32-1.33-0.44-2.56-1.34-2.56-0.2 0-0.41 0.06-0.62 0.2l-5.46 3c-2.59 1.72-5.4 2.58-8.21 2.58-2.4 0-4.8-0.62-7.07-1.87-0.58-0.32-1.29-0.64-2.07-0.97-1.64-3.16-5.5-8.4-13.71-10.56-2.61-0.69-5.22-1.02-7.67-1.02z" fill="#424242"/></g><rect x="10" y="9" width="6" height="115" fill="#BDBDBD"/><g opacity=".2"><path d="m14 11v111h-2v-111h2m2-2h-6v115h6v-115z" fill="#424242"/></g><circle cx="13.45" cy="9" r="5" fill="#FDD835"/><path d="m13.14 16.34c-5.05 0-9.14 4.1-9.14 9.14 0 5.05 4.09 9.14 9.14 9.14s9.14-4.09 9.14-9.14c0-5.04-4.09-9.14-9.14-9.14zm6.98 7.66h-4.83l2.91-3.55c0.95 0.96 1.63 2.18 1.92 3.55zm-12.42 6.1c-0.95-1.12-1.56-2.54-1.67-4.1h5.04l-3.37 4.1zm8.9-10.86-3.31 4.04-3.33-4.18c0.96-0.48 2.04-0.76 3.18-0.76 1.26 0 2.44 0.33 3.46 0.9zm-8.29 1 3 3.76h-5.15c0.31-1.47 1.08-2.77 2.15-3.76zm0.88 11.19 4.07-4.97 3.91 4.9c-1.15 0.79-2.54 1.26-4.04 1.26-1.45 0-2.8-0.44-3.94-1.19zm9.47-1.42-3.2-4.01h4.8c-0.11 1.52-0.69 2.9-1.6 4.01z" fill="#FDD835"/><g opacity=".2"><path d="m13.45 6c1.65 0 3 1.35 3 3s-1.35 3-3 3-3-1.35-3-3 1.35-3 3-3m0-2c-2.76 0-5 2.24-5 5s2.24 5 5 5 5-2.24 5-5-2.24-5-5-5z" fill="#424242"/></g><path d="m84.14 77.37c-10.22-2.7-20.6 0.07-20.6 6.94l35.38 6.17c0 0.01-2.65-9.9-14.78-13.11z" fill="#C62828"/><line x1="70" x2="70" y1="81" y2="84" fill="none" stroke="#EF9A9A" stroke-linecap="round" stroke-linejoin="round" stroke-miterlimit="10" stroke-width="2"/><line x1="76" x2="76" y1="80" y2="85" fill="none" stroke="#EF9A9A" stroke-linecap="round" stroke-linejoin="round" stroke-miterlimit="10" stroke-width="2"/><line x1="84" x2="84" y1="81" y2="86" fill="none" stroke="#EF9A9A" stroke-linecap="round" stroke-linejoin="round" stroke-miterlimit="10" stroke-width="2"/><line x1="90" x2="90" y1="83" y2="90" fill="none" stroke="#EF9A9A" stroke-linecap="round" stroke-linejoin="round" stroke-miterlimit="10" stroke-width="2"/><path d="m43.28 85.74-14.97 4.36v17.56l20.94 5.73c-4.98-6.98-7.13-17.93-5.97-27.65z" fill="#fff"/><path d="m121.64 91 0.99-3.45c0.4-1.63-0.83-3.11-1.96-2.36l-5.46 3c-4.8 3.18-10.34 3.42-15.29 0.71-3.94-2.15-12.94-4.5-18.7-5.72-12.27-2.59-26.42 0-26.42 0l-11.53 2.55c-1.16 9.72 1 20.66 5.98 27.64l5.08 1.15s13.68 1.62 26.65 0c6.04-0.75 15.09-3.05 19-5.28 5.03-2.87 10.7-2.72 15.61 0.53l4.15 2.76c1.12 0.75 2.35-0.72 2.91-2.35l-1.06-3.79c-1.38-4.94-1.36-10.44 0.05-15.39z" fill="#E53935"/><path d="m61.68 95.74c-0.14-3.64-0.63-9.39-2.31-13.02-1.47 0-3.6 0.42-3.6 0.42 1.22 0.86 2.55 5.08 2.84 12.74 0.32 8.64-0.67 16.6-2.69 18.82 1.43 0.17 1.89 0.17 3.23 0.17 2.26-5.13 2.73-13.75 2.53-19.13z" fill="#fff"/><ellipse cx="50.88" cy="94.45" rx="4.72" ry="5.79" fill="#fff"/><ellipse cx="49.89" cy="94.69" rx="2.88" ry="3.54" fill="none" stroke="#0288D1" stroke-miterlimit="10"/><ellipse cx="49.24" cy="95.49" rx="1.57" ry="1.93" fill="#424242"/><path d="m65.6 84.89c-0.05 0-0.6 0.01-0.6 0.01v7.71s0.55 0.01 0.6 0.01c1.74 0 3.15-1.73 3.15-3.86 0-2.14-1.41-3.87-3.15-3.87z" fill="#FFEBEE"/><path d="m67.62 94.15c-0.05 0-0.62 0.01-0.62 0.01v7.71s0.57 0.01 0.62 0.01c1.74 0 3.15-1.73 3.15-3.86 0-2.14-1.41-3.87-3.15-3.87z" fill="#FFCDD2"/><path d="m65.6 103.41c-0.05 0-0.6 0.01-0.6 0.01v7.71s0.55 0.01 0.6 0.01c1.74 0 3.15-1.73 3.15-3.86 0-2.14-1.41-3.87-3.15-3.87z" fill="#FFCDD2"/><path d="m79.29 94.15c-0.05 0-0.29 0.01-0.29 0.01v7.71s0.23 0.01 0.29 0.01c1.74 0 3.15-1.73 3.15-3.86 0-2.14-1.41-3.87-3.15-3.87z" fill="#FFEBEE"/><path d="m77.26 103.41c-0.05 0-0.26 0.01-0.26 0.01v7.71s0.21 0.01 0.26 0.01c1.74 0 3.15-1.73 3.15-3.86 0-2.14-1.41-3.87-3.15-3.87z" fill="#FFCDD2"/><path d="m88.42 89.52c-0.05 0-0.42 0.01-0.42 0.01v7.71s0.37 0.01 0.42 0.01c1.74 0 3.15-1.73 3.15-3.86 0-2.14-1.41-3.87-3.15-3.87z" fill="#FFEBEE"/><path d="m96.2 95.3c-0.05 0-0.2 0.01-0.2 0.01v7.71s0.15 0.01 0.2 0.01c1.74 0 3.15-1.73 3.15-3.86 0-2.14-1.41-3.87-3.15-3.87z" fill="#FFCDD2"/><path d="m103.97 95.3c-0.05 0 0.03 0.01 0.03 0.01v7.71s-0.08 0.01-0.03 0.01c1.74 0 3.15-1.73 3.15-3.86 0-2.14-1.41-3.87-3.15-3.87z" fill="#FFEBEE"/><line x1="109.38" x2="116.69" y1="95.26" y2="92.45" fill="none" stroke="#EF9A9A" stroke-linecap="round" stroke-linejoin="round" stroke-miterlimit="10" stroke-width="2"/><line x1="109.38" x2="116.68" y1="101.96" y2="104.8" fill="none" stroke="#EF9A9A" stroke-linecap="round" stroke-linejoin="round" stroke-miterlimit="10" stroke-width="2"/><line x1="109" x2="114" y1="99" y2="99" fill="none" stroke="#EF9A9A" stroke-linecap="round" stroke-linejoin="round" stroke-miterlimit="10" stroke-width="2"/><path d="m36.02 99.95c-0.28-1.4-1.06-2.33-1.86-2.06-0.64 0.21-0.94 0.64-1.13 1.68-0.25 1.38 1.18 7.43 5.74 7.91 3.1 0.33 3.27-5.49 3.27-5.49s-0.75 4.43-2.95 3.75c-1.73-0.54-2.52-3-3.07-5.79z" fill="#E53935"/><g opacity=".2"><path d="m76.47 78.35c2.32 0 4.79 0.33 7.15 0.95 7.55 1.99 11.04 6.84 12.45 9.55 0.22 0.42 0.57 0.74 1.01 0.93 0.77 0.32 1.4 0.61 1.88 0.88 2.56 1.4 5.27 2.11 8.03 2.11 3.2 0 6.4-0.99 9.25-2.87l4.31-2.37-0.83 2.91c-1.52 5.31-1.53 11.17-0.05 16.5l0.87 3.13c-0.08 0.17-0.17 0.32-0.25 0.43l-3.59-2.39c-2.86-1.9-6.08-2.91-9.31-2.91-2.9 0-5.72 0.78-8.4 2.3-3.64 2.08-12.54 4.32-18.26 5.03-3.74 0.47-7.92 0.7-12.43 0.7-7.13 0-12.83-0.6-13.64-0.69l-5.09-1.11-19.57-5.29v-14.53l13.62-3.92 11.5-2.53c0.38-0.07 3.99-0.68 8.87-0.96 0.8-0.05 1.51-0.56 1.78-1.31 1-2.76 5.21-4.54 10.7-4.54m0-2c-6.1 0-11.19 2.06-12.56 5.84-5.33 0.31-9.1 1-9.1 1l-11.69 2.55-15.12 4.37v17.56l21.1 5.73 5.16 1.15s6.12 0.72 14.02 0.72c3.95 0 8.37-0.18 12.69-0.72 6.04-0.75 15.1-3.05 19.01-5.28 2.37-1.36 4.9-2.04 7.41-2.04 2.81 0 5.62 0.85 8.2 2.57l4.15 2.76c0.21 0.14 0.42 0.2 0.63 0.2 0.93 0 1.83-1.22 2.28-2.55l-1.06-3.79c-1.39-4.97-1.37-10.46 0.04-15.41l0.99-3.45c0.32-1.33-0.44-2.56-1.34-2.56-0.2 0-0.41 0.06-0.62 0.2l-5.46 3c-2.59 1.72-5.4 2.58-8.21 2.58-2.4 0-4.8-0.62-7.07-1.87-0.58-0.32-1.29-0.64-2.07-0.97-1.64-3.16-5.5-8.4-13.71-10.56-2.61-0.69-5.22-1.03-7.67-1.03z" fill="#424242"/></g></svg>
