<svg xmlns="http://www.w3.org/2000/svg" xmlns:xlink="http://www.w3.org/1999/xlink" viewBox="0 0 128 128"><path d="M60.72 35.67c-.88 0-1.73-.44-2.23-1.24-.76-1.24-.37-2.84.85-3.61L98.16 6.87c1.23-.76 2.84-.37 3.61.86.76 1.23.38 2.85-.85 3.6L62.1 35.28c-.43.26-.91.39-1.38.39z" fill="#78a3ad"/><g fill="#78a3ad"><path d="M55.13 28.94h20.22v9.34H55.13z"/><path d="M75.35 40.23H55.13c-1.08 0-1.95-.87-1.95-1.94v-9.34c0-1.07.87-1.95 1.95-1.95h20.22c1.07 0 1.95.87 1.95 1.95v9.34c0 1.07-.88 1.94-1.95 1.94zm-18.28-3.89H73.4V30.9H57.07v5.44z"/></g><defs><path id="a" d="M128 51.34c0-7.6-4.11-14.74-22.71-14.74H23.18C4.58 36.6.46 43.74.46 51.34v15.68c0 .03.02.06.02.09-.07 1.08-.12 2.17-.12 3.26v32.87a3.28 3.28 0 0 0 3.29 3.29h121.06c1.81 0 3.29-1.46 3.29-3.29V70.37c0-.96-.04-1.92-.1-2.88.06-.15.1-.32.1-.48V51.34z"/></defs><use xlink:href="#a" overflow="visible" fill="#006ca2"/><clipPath id="b"><use xlink:href="#a" overflow="visible"/></clipPath><path clip-path="url(#b)" fill="#40c0e7" d="M-2.8 33.18H132v48.03H-2.8z"/><g><path d="M37.04 108.72c0 6.66-5.4 12.07-12.06 12.07-6.67 0-12.07-5.4-12.07-12.07 0-6.66 5.4-12.06 12.07-12.06 6.66 0 12.06 5.4 12.06 12.06z" fill="#2f2f2f"/></g><g><path d="M114.85 108.72c0 6.66-5.4 12.07-12.06 12.07-6.67 0-12.08-5.4-12.08-12.07 0-6.66 5.4-12.06 12.08-12.06 6.66 0 12.06 5.4 12.06 12.06z" fill="#2f2f2f"/></g><path d="M34.24 72.89c0 1.82-1.48 3.31-3.31 3.31H20.17c-1.83 0-3.31-1.49-3.31-3.31V55.35c0-1.82 1.48-3.3 3.31-3.3h10.76c1.83 0 3.31 1.48 3.31 3.3v17.54zm29.72-17.54c0-1.82-1.48-3.3-3.32-3.3H49.87c-1.82 0-3.3 1.48-3.3 3.3v17.54c0 1.82 1.47 3.31 3.3 3.31h10.77c1.83 0 3.32-1.49 3.32-3.31V55.35zm24.08 0c0-1.82-1.49-3.3-3.33-3.3H73.96c-1.83 0-3.32 1.48-3.32 3.3v17.54c0 1.82 1.48 3.31 3.32 3.31h10.75c1.84 0 3.33-1.49 3.33-3.31V55.35zm23.3 0c0-1.82-1.48-3.3-3.32-3.3H97.27c-1.83 0-3.32 1.48-3.32 3.3v17.54c0 1.82 1.49 3.31 3.32 3.31h10.75c1.84 0 3.32-1.49 3.32-3.31V55.35z" fill="#fff"/></svg>