<svg enable-background="new 0 0 128 128" viewBox="0 0 128 128" xmlns="http://www.w3.org/2000/svg"><path d="m119.53 108.05h-111.31c-2.4 0-4.35-1.95-4.35-4.35v-67.46c0-2.41 1.95-4.37 4.37-4.37h111.27c2.41 0 4.37 1.95 4.37 4.37v67.46c0 2.41-1.95 4.35-4.35 4.35z" fill="#4527A0"/><linearGradient id="a" x1="63.875" x2="63.875" y1="95.712" y2="31.911" gradientUnits="userSpaceOnUse"><stop stop-color="#6944B8" offset="0"/><stop stop-color="#7E57C2" offset="1"/></linearGradient><path d="m119.65 95.88h-111.55c-2.33 0-4.22-1.89-4.22-4.22v-55.42c0-2.41 1.95-4.37 4.37-4.37h111.27c2.41 0 4.37 1.95 4.37 4.37v55.41c-0.01 2.34-1.9 4.23-4.24 4.23z" fill="url(#a)"/><path d="m106.33 39.06c0.86 5.4 5.14 9.68 10.54 10.54v28.54c-5.4 0.86-9.68 5.14-10.54 10.54h-85.03c-1.1-5.11-5.26-9.05-10.42-9.87v-28.54c5.63-0.89 10.03-5.49 10.63-11.21h84.82m1.84-2h-88.61c0.01 0.22 0.02 0.44 0.02 0.67 0 5.91-4.79 10.7-10.7 10.7v32.23c5.68 0 10.33 4.43 10.68 10.03h88.61c0-5.91 4.79-10.7 10.7-10.7v-32.23c-5.91 0-10.7-4.79-10.7-10.7z" fill="#4527A0"/><circle cx="84.65" cy="63.88" r="18.5" fill="#4527A0" opacity=".5"/><rect x="52.87" y="31.88" width="22.01" height="76.18" fill="#FFECB3"/><rect x="52.87" y="95.88" width="22.01" height="12.18" fill="#FFB74D" opacity=".5"/><g opacity=".2"><path d="m119.51 32.88c1.86 0 3.37 1.51 3.37 3.37v67.46c0 1.85-1.5 3.35-3.35 3.35h-111.31c-1.85 0-3.35-1.5-3.35-3.35v-67.47c0-1.86 1.51-3.37 3.37-3.37h111.27m0-0.99h-111.27c-2.41 0-4.37 1.95-4.37 4.37v67.46c0 2.4 1.95 4.35 4.35 4.35h111.3c2.4 0 4.35-1.95 4.35-4.35v-67.47c0.01-2.41-1.95-4.36-4.36-4.36z" fill="#424242"/></g><path d="m32.15 66.3c-0.47 0-0.85 0.39-0.83 0.86l0.17 4.68c0 1.96-0.3 3.62-0.9 4.97-0.25 0.56 0.13 1.2 0.75 1.2h16.21c0.46 0 0.83 0.38 0.83 0.84l-0.01 2.29c0 0.46-0.37 0.83-0.83 0.83h-24.33c-0.46 0-0.83-0.37-0.83-0.83v-2.29c0-0.46 0.37-0.83 0.83-0.83h0.96c0.09 0 0.19-0.01 0.28-0.04 0.61-0.2 1.11-0.81 1.5-1.84 0.42-1.1 0.65-2.45 0.68-4.07v-0.2l-0.17-4.76c-0.02-0.45-0.38-0.8-0.83-0.8h-2.52c-0.46 0-0.83-0.37-0.83-0.83v-2.29c0-0.46 0.37-0.83 0.83-0.83h2.34c0.47 0 0.85-0.39 0.83-0.86l-0.2-5.69c0-3.34 1.03-6.01 3.08-8.01 2.06-2 4.76-3 8.12-3 3.19 0 5.72 0.89 7.58 2.67 1.68 1.6 2.6 3.69 2.77 6.26 0.03 0.47-0.36 0.86-0.83 0.86h-3.12c-0.43 0-0.82-0.32-0.86-0.75-0.13-1.45-0.65-2.63-1.57-3.52-1.07-1.04-2.53-1.57-4.39-1.57-1.76 0-3.19 0.65-4.28 1.94-1.09 1.3-1.64 2.99-1.64 5.1l0.2 5.76c0.02 0.45 0.38 0.8 0.83 0.8h6.4c0.46 0 0.83 0.37 0.83 0.83v2.29c0 0.46-0.37 0.83-0.83 0.83h-6.22z" fill="#fff"/></svg>
