<?xml version="1.0" encoding="UTF-8" standalone="no"?>
<svg
   xmlns:dc="http://purl.org/dc/elements/1.1/"
   xmlns:cc="http://creativecommons.org/ns#"
   xmlns:rdf="http://www.w3.org/1999/02/22-rdf-syntax-ns#"
   xmlns:svg="http://www.w3.org/2000/svg"
   xmlns="http://www.w3.org/2000/svg"
   xmlns:sodipodi="http://sodipodi.sourceforge.net/DTD/sodipodi-0.dtd"
   xmlns:inkscape="http://www.inkscape.org/namespaces/inkscape"
   width="128"
   height="128"
   style="enable-background:new 0 0 128 128;"
   version="1.1"
   id="svg12"
   sodipodi:docname="emoji_u1f346.svg"
   inkscape:version="0.92+devel unknown">
  <metadata
     id="metadata18">
    <rdf:RDF>
      <cc:Work
         rdf:about="">
        <dc:format>image/svg+xml</dc:format>
        <dc:type
           rdf:resource="http://purl.org/dc/dcmitype/StillImage" />
      </cc:Work>
    </rdf:RDF>
  </metadata>
  <defs
     id="defs16" />
  <sodipodi:namedview
     pagecolor="#ffffff"
     bordercolor="#666666"
     inkscape:document-rotation="0"
     borderopacity="1"
     objecttolerance="10"
     gridtolerance="10"
     guidetolerance="10"
     inkscape:pageopacity="0"
     inkscape:pageshadow="2"
     inkscape:window-width="1680"
     inkscape:window-height="986"
     id="namedview14"
     showgrid="false"
     inkscape:zoom="1.9252087"
     inkscape:cx="193.20529"
     inkscape:cy="-47.473409"
     inkscape:window-x="0"
     inkscape:window-y="27"
     inkscape:window-maximized="1"
     inkscape:current-layer="svg12" />
  <path
     d="m 72.452619,58.600579 c 14.569384,5.088615 37.382511,7.924963 49.353691,23.1225 8.76738,11.120163 4.42437,24.512721 -8.9244,29.256461 -9.91885,3.52597 -24.822318,3.82508 -42.817268,-1.79504 C 22.160658,94.220318 16.030596,53.614717 16.030596,53.614717 L 12.07522,36.271457 42.115154,32.293878 c 0,0 12.893682,20.220334 30.337465,26.306701 z"
     style="fill:#901dc9;fill-opacity:1;stroke-width:1"
     id="path2"
     inkscape:connector-curvature="0" />
  <path
     d="m 1.7852224,56.742932 c 0.161871,-0.345381 0.4937618,-0.654973 0.8067562,-0.960121 0.1155339,-0.111368 0.2289627,-0.213819 0.3129941,-0.305148 3.2142707,-3.59753 3.4649942,-8.211448 3.7263915,-13.097301 0.2571376,-4.792237 0.5248749,-9.742728 3.7813958,-13.745912 0.401285,-0.490093 0.888633,-0.966748 1.361271,-1.418895 1.04191,-1.011216 2.125824,-2.04915 2.338687,-3.328461 0.120116,-0.697599 -0.110311,-1.460098 -0.357504,-2.264962 -0.345664,-1.105854 -0.726917,-2.363311 -0.148778,-3.640123 0.971251,-2.110183 3.994704,-2.821253 5.997741,-3.292338 l 0.30445,-0.08003 c 0.10288,-0.01998 0.180571,-0.04668 0.247762,-0.06669 0.172174,-0.04891 0.37585,-0.117863 0.636118,-0.04857 0.193102,0.05141 0.356782,0.151837 0.650558,0.34375 0.08603,0.05133 0.15739,0.08927 0.220346,0.124988 0.277009,0.149548 0.461667,0.27451 0.742714,0.671484 0.929105,1.355937 1.887979,2.132346 3.101125,2.512173 0.365203,0.116179 0.743011,0.216762 1.120819,0.317347 1.234173,0.328573 2.510375,0.592537 3.755099,0.838646 1.242618,0.255021 2.537716,0.514542 3.788681,0.847587 2.501929,0.666091 4.441123,1.523465 6.090404,2.701607 0.673565,0.473049 1.338712,0.981758 2.014359,1.483788 1.758351,1.320881 3.577554,2.686386 5.48517,3.677479 0.795366,0.410726 1.57191,0.712217 2.386296,0.929032 1.595191,0.424688 3.123462,0.45256 4.891048,0.487293 0.428258,3.16e-4 0.854408,0.0095 1.305748,0.02548 0.230918,0.0047 0.445022,0.04268 0.638125,0.09409 0.822782,0.219051 1.1625,0.783246 1.302876,1.209094 0.36035,1.119241 -0.241068,2.683582 -0.961763,3.65714 -1.714556,2.348144 -4.631464,3.855058 -8.910315,4.591954 -2.716798,0.470564 -5.336662,0.379478 -7.788218,-0.273202 -1.175403,-0.312928 -2.310833,-0.757341 -3.381105,-1.32653 -0.27072,-0.138399 -0.535148,-0.265649 -0.799578,-0.392898 -0.312697,-0.149576 -0.608605,-0.29468 -0.925488,-0.46432 L 35.31375,36.438758 c -0.300092,-0.165169 -0.755469,-0.428529 -1.116484,-0.524643 -0.201498,-0.05365 -0.279189,-0.02695 -0.279189,-0.02695 -0.153279,0.04447 -0.222598,0.111288 -0.141241,0.900425 0.03968,0.32324 0.133963,0.604167 0.255515,0.92078 0.07962,0.229649 0.157142,0.468213 0.22416,0.713456 0.144487,0.559595 0.179804,1.128023 0.221438,1.669709 0.01454,0.240747 0.03119,0.472578 0.05833,0.697731 0.358843,3.430749 -0.732424,6.086956 -1.976745,8.446592 -0.552804,1.056156 -1.2336,2.011912 -1.928908,2.689027 -0.130245,0.135876 -0.268887,0.269516 -0.399131,0.405392 -0.592407,0.619237 -1.264632,1.311973 -2.066783,1.647967 -0.676165,0.293737 -1.280807,0.360163 -1.843321,0.210406 -1.133426,-0.301753 -1.823339,-1.461358 -2.379044,-2.395732 -0.868156,-1.462885 -1.463217,-3.213116 -2.03522,-4.90983 l -0.255615,-0.769201 c -0.295438,-0.865082 -0.882128,-2.575184 -1.576473,-3.375917 -1.27414,3.014948 -5.442196,10.916044 -5.49683,10.99625 -3.124443,4.275222 -7.0491839,6.044423 -11.0707419,4.973761 0,0 0,0 0,0 C 3.3563438,58.667734 3.2555947,58.640913 3.1443452,58.62077 3.0079083,58.59393 2.8630755,58.56484 2.7287438,58.529083 2.4013101,58.441916 1.9500701,58.274405 1.7551347,57.81508 1.5747869,57.520715 1.5918252,57.146251 1.7852233,56.742937 Z M 56.904888,30.220013 c -0.03148,-0.01785 -0.06085,-0.04463 -0.09443,-0.05356 -0.151123,-0.04023 -0.323248,-0.06711 -0.510084,-0.06948 0.239315,0.0069 0.432418,0.05826 0.604518,0.123042 z M 40.741435,38.13013 c 0.646471,0.17211 1.303469,0.299648 1.97099,0.382612 -0.81446,-0.103133 -1.616265,-0.297649 -2.409649,-0.527821 0.151123,0.04024 0.287534,0.104974 0.438659,0.145209 z M 26.430927,53.611411 c 0.03358,0.0089 0.07137,5.3e-5 0.104959,0.009 -0.06717,-0.01788 -0.119646,-0.02238 -0.176311,-0.04693 0.02518,0.0067 0.04616,0.03124 0.07135,0.03796 z m 7.87902,-32.761028 c -0.09865,-0.03573 -0.207789,-0.06479 -0.308538,-0.09162 -0.109145,-0.02906 -0.22879,-0.05144 -0.337935,-0.08049 0.218291,0.05811 0.436579,0.11623 0.646473,0.172109 z M 20.640964,15.098347 c -0.0084,-0.0022 -0.0189,0.0045 -0.0357,-2.7e-5 0.04198,0.01118 0.08396,0.02235 0.132227,0.04467 -0.03148,-0.01785 -0.07135,-0.03795 -0.09654,-0.04465 z M 3.610715,58.119589 c 0.2686636,0.07153 0.5331664,0.08509 0.7976444,0.136556 -0.2833747,-0.04701 -0.5625638,-0.07398 -0.8480188,-0.149967 0.025187,0.0067 0.033583,0.0089 0.050375,0.0134 z M 2.8319917,57.940693 c 0.058771,0.01563 0.1091447,0.02906 0.1700199,0.0358 C 2.857179,57.9474 2.731243,57.913872 2.6095171,57.862517 c 0.073456,0.02904 0.1385174,0.05583 0.2224746,0.07818 z"
     style="fill:#bdcf46;stroke-width:1"
     id="path4"
     inkscape:connector-curvature="0" />
  <path
     inkscape:connector-curvature="0"
     id="path8"
     style="fill:#ffffff;stroke-width:1"
     d="m 107.31057,72.996492 c 3.92911,1.632201 7.97397,3.471483 12.02532,9.997793 6.28363,10.122277 -2.60198,14.62531 -7.36765,6.537055 -6.45843,-10.961199 -17.390198,-16.375263 -13.83771,-17.938436 1.477746,-0.650241 6.22184,0.174716 9.18004,1.403588 z"
     sodipodi:nodetypes="sssss" />
</svg>
