<svg xmlns="http://www.w3.org/2000/svg" viewBox="0 0 128 128"><path d="M16.1 113.62C9.59 91.28 9.59 45.48 9.59 45.48l84-.33s0 41.49-4.88 68.19l-72.61.28z" fill="#312d2d"/><ellipse cx="51.59" cy="46.2" rx="42" ry="39.5" fill="#312d2d"/><path d="M8.02 118.18v9.89h87.14v-9.89c0-15.17-21.39-22.87-43.24-22.84-21.72.03-43.9 6.78-43.9 22.84z" fill="#2962ff"/><path d="M51.54 90.34h-9.08v9.59c0 4.34 3.7 7.86 8.26 7.86h1.65c4.56 0 8.26-3.52 8.26-7.86v-9.59h-9.09z" fill="#dba689"/><path d="M51.48 13.66c-24.35 0-30.72 18.87-30.72 45.39 0 26.51 18.89 34.6 30.72 34.6 11.83 0 30.72-8.09 30.72-34.6s-6.37-45.39-30.72-45.39z" fill="#fadcbc"/><path d="M60.82 78.2h-9.23-9.23c-1.06 0-1.51.71-.81 1.78.98 1.49 4.61 4.36 10.04 4.36s9.06-2.87 10.04-4.36c.7-1.07.24-1.78-.81-1.78z" fill="#212121"/><g fill="#212121"><path d="M41.09 60.82c0 2.84-1.9 5.15-4.26 5.15-2.35 0-4.27-2.3-4.27-5.15 0-2.85 1.91-5.15 4.27-5.15 2.36 0 4.26 2.3 4.26 5.15M62.08 60.82c0 2.84 1.9 5.15 4.27 5.15 2.35 0 4.26-2.3 4.26-5.15 0-2.85-1.91-5.15-4.26-5.15-2.36 0-4.27 2.3-4.27 5.15"/></g><path d="M55.99 70.36c-1.57.44-3.2.66-4.46.66-1.26 0-2.89-.22-4.46-.66-.67-.19-.94.45-.69.87.5.88 2.5 2.64 5.15 2.64 2.65 0 4.65-1.77 5.15-2.64.25-.42-.02-1.06-.69-.87z" fill="#dba689"/><path d="M60.66 34.52c-3.23 3.11-19.29 17.58-41.42 21.35V26.21S28.79 7.26 51.71 7.26s32.47 19.43 32.47 19.43v29.19s-15.02-5.76-22.56-21.17a.596.596 0 0 0-.96-.19z" fill="#312d2d"/><path fill="#e0e0e0" d="M45.66 103.11h11.85l-5.97 13.69z"/><path fill="#3f51b5" d="M31.49 103.11l20.05 13.69-9.14-23.35-4.53 1.89zM71.56 103.11L51.54 116.8l9.1-23.35 4.54 1.89z"/><path d="M97.62 49.62h-1.93c-1.67 0-3.04-1.37-3.04-3.04v-5.5c0-1.67 1.37-3.04 3.04-3.04h1.93c1.67 0 3.04 1.37 3.04 3.04v5.5c0 1.67-1.37 3.04-3.04 3.04zM7.39 49.62H5.46c-1.67 0-3.04-1.37-3.04-3.04v-5.5c0-1.67 1.37-3.04 3.04-3.04h1.93c1.67 0 3.04 1.37 3.04 3.04v5.5c0 1.67-1.37 3.04-3.04 3.04z" fill="#455a64"/><path d="M51.03 39.37c-14.1 0-32.85 5.59-41.36 9.57v8.62c7.99-5.6 24.1-10.01 41.36-10.01 17.46 0 30.69 5.46 42.12 10.13.05-1.87.38-8.89-.73-11.12-8.5-4.06-27.12-7.19-41.39-7.19z" fill="#37474f"/><path d="M95.58 35.02c-.03-.87-.18-1.74-.44-2.58l-7.37-20.69c-1.32-4.29-5.37-7.38-10.16-7.91l.05.26v14.08H24.21V4.1h.91v-.23c-4.55.62-8.39 3.55-9.76 7.63L7.42 32.15c-.35 1.03-.52 2.1-.52 3.18l-1 26.62c0 .92.63 1.5 1.18 1.74C14 50.17 32.03 41.54 51.72 41.54s38.27 9.31 45.2 22.83c.27-.96.62-.39.62-2.78l-1.96-26.57z" fill="#546e7a"/><g fill="#90a4ae"><path d="M77.61 3.83l.05.26v-.25c-.01 0-.03 0-.05-.01zM25.12 4.1v-.23c-.31.04-.61.1-.91.16v.07h.91zM5.9 61.94c0 .92.61 1.74 1.18 1.74C14 50.17 32.03 41.54 51.72 41.54s38.27 9.31 45.2 22.83c0 0 .85-.53.62-2.78 0 0-.29-.78-.37-.97-6.92-13.52-25.76-23.06-45.45-23.06S13.2 47.11 6.28 60.62"/></g><path opacity=".7" fill="#b0bec5" d="M46.29 18.9L63.36 4.13H50.75L33.68 18.9z"/><path opacity=".7" fill="#37474f" d="M63.36 4.13L46.29 18.9h7.44L70.8 4.13zM33.68 18.9L50.75 4.13H25.44V18.9zM76.43 18.9V4.13h-1.38L57.98 18.9z"/><path opacity=".7" fill="#b0bec5" d="M53.73 18.9h4.25L75.05 4.13H70.8z"/><path fill="#90a4ae" d="M24.21 4.05v15.94h.91V3.87zM33.68 18.9l-1.26 1.09h12.62l1.25-1.09z"/><path fill="#90a4ae" d="M46.29 18.9l-1.25 1.09h7.44l1.25-1.09zM25.44 18.9V4.13l-.32-.26v16.12h7.3l1.26-1.09zM77.61 3.83l-1.18.3V18.9H57.98l-1.26 1.09h20.94V4.13z"/><path fill="#90a4ae" d="M53.73 18.9l-1.25 1.09h4.24l1.26-1.09z"/><path fill="#455a64" d="M64.96 24.56h1.44v9.53h-1.44zM57.04 21.73h1.44v15.2h-1.44zM50.03 24.02h1.44v10.62h-1.44zM35.09 24.56h1.44v9.53h-1.44zM43.01 21.73h1.44v15.2h-1.44zM25.44 17.74h50.99v1.16H25.44z"/><g><path d="M101.97 107.67c1.5.37 2.46 1.43 3.13 2.75 1.67-.3 4.55-.6 5.39-.58.99.03 2.3.14 2.52 2.17.14 1.32-.36 2.41-2.05 2.57-.63.06-1.28.1-1.92.13l.23.74c.59-.01 1.12-.03 1.53-.03 1.71-.02 2.68.89 2.68 2.7 0 1.59-1.37 2.34-2.37 2.4-.53.03-2.01-.05-3.47-.19l-.15.31-.06.09c.92.14 1.8.29 2.42.4 1.67.3 2.47 1.41 2.28 2.73-.23 1.6-1.66 2.04-2.65 2.01-.74-.02-3.35-.43-5.08-.8l-.34.49c.12.02.25.04.39.06.02 0 .04.01.07.01l.35.06c.03 0 .05.01.08.01.14.02.28.05.42.07h.02c.15.02.3.05.45.08.03 0 .06.01.08.01l.35.06c.05.01.09.02.14.02.1.02.2.04.29.05l.15.03c.1.02.19.04.28.05l.14.03c.13.03.27.05.39.08 1.53.32 2.11 1.01 1.92 2.22-.26 1.7-1.97 2.08-2.88 1.99-.91-.08-3.97-.71-4.97-1.15l-.18-.09-.35.5c-4.5-.3-7.73-2.18-7.73-2.18-2.64-1.49-3.08-2.63-3.52-4.43-.5-2.06-.38-4.5-.36-4.89.16-4.1 1.07-6.75 4.38-8.95.8-.53 1.97-1.46 4.56-1.76 1.01-.08 2.44-.01 3.44.23z" fill="#ed6c30"/><path d="M105.72 114.49s.04-2.06-.61-4.06l.72-.13s.51 1.42.69 3.52c.03.34.04.65.04.95l.64-.04 4.29-.24s-.32.06-.32.54c0 .2.12.33.21.41-.18-.02-.38-.04-.58-.03l-4.26.11c-.01.12-.01.24-.02.37-.1 1.74-.51 3.42-1.48 4.05 3.22.38 6.08.57 6.08.57-.56.23-.32.91-.32.91-2.17-.59-7.43-.9-7.43-.9-2.22-.19-2.52 1.31-2.52 1.31-.41 1.81 1.56 2.64 1.56 2.64.26.15 2.61.62 4.29.94l1.68.31.47.09c-.05-.01-.25-.02-.33.31-.04.16 0 .27.03.34-.25-.11-.55-.21-.9-.28-.79-.16-3.18-.55-3.37-.58l-.6-.08c-1.98-.26-2.46.09-2.46.09-1.1.58-.78 1.98-.78 1.98.24 1.35 1.73 1.77 1.73 1.77.57.17 3.59.9 3.59.9l-4.57-.6c-.32-.1-.44-.25-.62-.39-1.61-1.32-.93-3.11-.93-3.11.25-.69.77-1 .77-1 .31-.19.67-.29 1.04-.33-1.87-.99-1.57-2.99-1.57-2.99.24-1.23 1.13-1.75 1.84-1.97-.06-.05-.13-.1-.19-.16 0 0-1.2-.79-.76-4.18.15-1.14.13-1.3.01-2.02 0 0-.43-1.54-1.71-1.05 0 0-.43.11-1.1.64 0 0-.54.42-.53-.24 0-.2.14-.56.41-.87 0 0 .28-.33.97-.52 0 0 1.79-.71 2.68 1.08.47.94.38 1.56.23 2.52 0 0-.28 3.03.51 4 0 0 .78.89 2.03.34.01.02 1.71-.92 1.45-4.92z" fill="#e65100"/></g><g><path d="M99.19 75.51l4.06 30.06c.01.08.03.17.05.25l-3.4.46c-.01-.08-.04-.16-.05-.25l-4.06-30.06c-.82-6.04 3.29-11.62 9.23-12.72l.46 3.4c-4.07.83-6.86 4.69-6.29 8.86z" fill="#ffc107"/><g fill="#2962ff"><path d="M107.415 126.771l-5.896.797-3.777-27.956 5.896-.797z"/><ellipse transform="rotate(-7.693 100.697 99.207)" cx="100.69" cy="99.21" rx="2.98" ry="1.68"/></g><path d="M102.39 125.63l3.68-.5c1.5-.2 2.55-1.58 2.35-3.09l-2.54-18.82a2.997 2.997 0 0 0-3.37-2.57l-3.17.43a2.997 2.997 0 0 0-2.57 3.37l2.54 18.82a2.734 2.734 0 0 0 3.08 2.36z" fill="#3f51b5"/><path fill="#2196f3" d="M103.984 63.486l6.818-.921.455 3.369-6.818.921z"/><path fill="#262626" d="M103.826 62.376l5.024-.68.757 5.6-5.025.679z"/><g><path d="M110.9 60.62a6.638 6.638 0 0 1 2.86-3.16c.95-.55 2.23-1 3.33-1.09 2.64-.22 5.27.9 7.3 2.53 1.2.96 2.71 2.13 3.21 3.65 1.06 3.25-4.07 6.31-6.43 7.33-4.28 1.85-9.28-.07-10.38-4.79-.3-1.22-.41-3.29.11-4.47z" fill="#ed6c30"/><path d="M112.06 62.29c.29-.57.77-1.05 1.45-1.41.48-.25 1.12-.46 1.67-.51 1.32-.12 2.63.35 3.63 1.05.59.41 1.34.91 1.57 1.57.5 1.42-2.09 2.81-3.28 3.28-2.16.85-4.64.04-5.15-2.02-.12-.53-.16-1.44.11-1.96z" fill="#fcc21b"/></g></g><path d="M111.01 120.52h.11c1-.06 2.36-.81 2.37-2.4 0-1.74-.89-2.64-2.48-2.69l-.07-.37.53-.03c.88-.21 1.34-.74 1.5-1.42.06-.1.08-1.24.07-1.37-.08-1.07-.47-1.57-.47-1.57-.4-1.02-2.87-.79-2.87-.79l-4.5.6c-.16-.05-.32-.1-.47-.15-.65-1.02-1.52-1.81-2.77-2.12-1-.24-2.43-.32-3.44-.2-2.59.3-3.76 1.23-4.56 1.76-.17.11-.31.23-.46.35.91 1.65 2.29 3.38 3.98 3.09.11-.25.29-.51.37-.6.36-.39.86-.67 1.39-.73.83-.1 1.69.31 2.14 1.01.7 1.08-.11 2.51-.16 3.8-.02.61.48 1.2.6 1.8.11.57.33 1.17.82 1.48.03.02.08.02.11.04-.03.1-.1.3-.18.56-.32.02-.63.08-.9.23-.62.34-.94 1.09-.86 1.78.06.51.33.98.71 1.33-.24.78-.44 1.48-.54 1.89-.69.53-.76 1.66-.28 2.41.5.79 1.42 1.22 2.33 1.45.91.23 1.85.31 2.74.61-.05-.01-.09-.01-.14-.02.45.08.83.14 1.07.16.91.08 2.62-.3 2.88-1.99.15-.97-.21-1.6-1.14-1.98-.07-.25-.19-.53-.26-.75.17.03.35.07.52.1.33.04.61.07.78.07.99.03 2.43-.41 2.65-2.01.15-1.06-.34-1.97-1.41-2.45-.39-.08-.79-.14-1.18-.21.16-.26.32-.52.48-.77.34.04.67.07.99.1z" fill="#ed6c30"/><path d="M111.45 115.46c-.14-.18-.17-.47-.17-.47h-.03c-.36-.03-4.67-.21-4.67-.21-.02-1.39-.59-3.05-.98-4.38-.26-.03-.57 0-.84-.09.34 1.31.97 2.84 1.01 4.18.03.9-.03 1.79-.22 2.68-.15.71-.39 1.43-.91 1.94s-1.37.72-1.98.33c-.49-.31-.7-.91-.82-1.48-.12-.6-.17-1.21-.14-1.81.05-1.29.4-2.7-.29-3.79-.45-.7-1.32-1.11-2.14-1.01-.53.06-1.03.34-1.39.73-.17.19-.83 1.13-.15 1.15.19 0 .36-.13.51-.25.46-.37 1.04-.71 1.61-.54.7.21.97 1.06 1 1.79.04 1-.17 1.99-.17 2.98 0 1 .27 2.07 1.04 2.7-1.04.23-1.82 1.27-1.84 2.33-.03 1.07.64 2.09 1.57 2.61-.87.02-1.63.72-1.86 1.56-.23.84.03 1.76.56 2.45.23.3.51.56.86.72.07.03.15.05.23.07l.32-.46-.11.15-.22.31c.23.07.48.11.72.15.14.02.28.04.43.05 1.09.14 2.18.28 3.27.41.05.01.09.01.14.02-.89-.3-1.83-.38-2.74-.61-.91-.23-1.82-.66-2.33-1.45-.5-.79-.41-2 .38-2.5.48-.3 1.08-.28 1.63-.24.89.06 1.77.17 2.65.31.24.04.48.08.71.12l.18.03c.05.01.09.02.14.02.1.02.2.04.29.05l.15.03c.1.02.19.04.28.05l.14.03c.13.03.27.05.39.08.27.06.49.13.7.2.06.02.13.03.19.05-.14-.23.03-.58.29-.62l-.14-.03-4.89-.96c-.64-.13-1.3-.26-1.86-.59-.6-.36-1.06-.98-1.15-1.68-.09-.7.24-1.45.86-1.78.47-.26 1.03-.25 1.57-.24 2.52.08 5.02.37 7.49.86.02 0 .05.01.07.01-.16-.31 0-.75.32-.89-.04 0-.08-.01-.11-.01-1.98-.18-3.96-.37-5.95-.55 1.21-1.06 1.39-2.85 1.48-4.45.01 0 4.72-.06 4.92-.06z" fill="#e65100"/></svg>