<svg enable-background="new 0 0 128 128" viewBox="0 0 128 128" xmlns="http://www.w3.org/2000/svg"><symbol viewBox="-64.5 -64.5 129 129"><g fill="none" stroke="#4285F4" stroke-miterlimit="10"><rect x="-64" y="-64" width="128" height="128"/><path d="M36.95,37.82C27.32,46.32,14.2,51,0,51 c-14.27,0-27.39-4.62-36.96-13.01C-47.45,28.79-53,15.65-53,0c0-15.58,5.55-28.69,16.04-37.92C-27.36-46.35-14.24-51,0-51 c14.17,0,27.29,4.71,36.95,13.25C47.45-28.45,53-15.4,53,0C53,15.47,47.45,28.55,36.95,37.82z"/><path d="m0 55c-29.59 0-57-19.01-57-55 0-35.8 27.41-55 57-55s57 19.69 57 55c0 35.51-27.41 55-57 55z"/><path d="M0-43c-12.29,0-23.54,3.94-31.68,11.09 C-40.39-24.25-45-13.21-45,0c0,29.7,22.6,43,45,43c21.67,0,45-13.46,45-43S21.67-43,0-43L0-43z"/><line x1="-.01" x2="-.01" y1="51" y2="-51"/><line x1="-16" x2="-16" y1="48.95" y2="-48.93"/><line x1="15.99" x2="15.99" y1="48.91" y2="-48.93"/><line x1="53" x2="-53" y1=".08" y2=".08"/></g></symbol><linearGradient id="c" x1="64.074" x2="64.074" y1="19.743" y2="107.8" gradientUnits="userSpaceOnUse"><stop stop-color="#FEE133" offset=".5"/><stop stop-color="#FEDE32" offset=".6118"/><stop stop-color="#FCD32F" offset=".7076"/><stop stop-color="#FAC12B" offset=".7975"/><stop stop-color="#F7A924" offset=".8834"/><stop stop-color="#F6A323" offset=".9"/></linearGradient><path d="m64.07 120c-27.96 0-58.05-17.5-58.05-55.94 0-38.43 30.09-55.94 58.05-55.94 15.49 0 29.84 5.13 40.39 14.44 11.55 10.19 17.66 24.54 17.66 41.5 0 16.88-6.11 31.2-17.66 41.42-10.58 9.37-24.92 14.52-40.39 14.52z" fill="url(#c)"/><path d="m64.07 10.12c15.01 0 28.88 4.95 39.07 13.94 11.11 9.8 16.98 23.63 16.98 40 0 16.29-5.87 30.09-16.98 39.92-10.22 9.04-24.09 14.02-39.07 14.02-15.05 0-28.93-4.91-39.07-13.83-11.1-9.76-16.97-23.63-16.97-40.11 0-16.55 5.87-30.45 16.97-40.18 10.12-8.87 23.99-13.76 39.07-13.76m0-4c-31.17 0-60.04 20.02-60.04 57.94 0 37.72 28.87 57.94 60.04 57.94 31.18 0 60.05-20.74 60.05-57.94 0-37.4-28.87-57.94-60.05-57.94z" fill="#EB8F00"/><radialGradient id="b" cx="25.701" cy="61.378" r="19.444" gradientTransform="matrix(.9791 0 0 .9301 2.0871 5.7411)" gradientUnits="userSpaceOnUse"><stop stop-color="#ED7770" offset="0"/><stop stop-color="#ED7770" stop-opacity="0" offset=".9"/></radialGradient><circle cx="27.25" cy="62.83" r="17.5" fill="url(#b)" opacity=".8"/><radialGradient id="a" cx="100.77" cy="61.378" r="19.444" gradientTransform="matrix(.9791 0 0 .9301 2.0871 5.7411)" gradientUnits="userSpaceOnUse"><stop stop-color="#ED7770" offset="0"/><stop stop-color="#ED7770" stop-opacity="0" offset=".9"/></radialGradient><circle cx="100.75" cy="62.83" r="17.5" fill="url(#a)" opacity=".8"/><path d="m100.69 65.04c-10.27 5.96-22.95 9.49-36.69 9.49s-26.42-3.53-36.69-9.49c-1.89-1.09-3.87 1.27-2.46 2.92 9.3 10.87 23.38 17.8 39.15 17.8s29.85-6.93 39.15-17.8c1.42-1.66-0.57-4.02-2.46-2.92z" fill="#242424"/><g fill="#242424"><path d="m49.56 44.12s-0.05-0.07-0.16-0.2c-0.1-0.13-0.24-0.31-0.42-0.54-0.15-0.16-0.33-0.35-0.54-0.57-0.21-0.24-0.47-0.49-0.73-0.75-0.27-0.25-0.55-0.51-0.84-0.72-0.28-0.23-0.59-0.4-0.84-0.54-0.26-0.16-0.5-0.2-0.65-0.25-0.08-0.03-0.15-0.03-0.21-0.04-0.03 0.01-0.06-0.01-0.09 0l-0.04 0.01h-0.02-0.01c0.12 0-0.27 0.01 0.27-0.01l-0.55 0.02c-0.14 0-0.05 0.01-0.04 0.01 0.03 0 0.05 0 0.07-0.01 0.08-0.03 0 0-0.02 0-0.03 0-0.07 0.01-0.11 0.03-0.16 0.05-0.4 0.09-0.65 0.25-0.25 0.14-0.56 0.31-0.84 0.54-0.28 0.22-0.57 0.47-0.84 0.72-0.52 0.51-0.98 1.02-1.3 1.39-0.33 0.38-0.51 0.6-0.51 0.6l-0.23 0.27c-1.37 1.6-3.89 1.87-5.62 0.61-1.18-0.86-1.69-2.2-1.47-3.48 0 0 0.07-0.41 0.27-1.12 0.21-0.71 0.56-1.72 1.25-2.91 0.69-1.18 1.69-2.57 3.38-3.84 0.83-0.62 1.84-1.24 3.04-1.66 0.29-0.11 0.6-0.21 0.92-0.29 0.33-0.08 0.59-0.17 1.04-0.23l0.62-0.09c0.19-0.02 0.47-0.05 0.51-0.05l0.55-0.04 0.31-0.01h0.03 0.06l0.13 0.01 0.26 0.01 0.51 0.03c0.34 0.03 0.67 0.09 1 0.14 0.65 0.12 1.3 0.29 1.89 0.51 1.2 0.42 2.21 1.03 3.04 1.66 1.69 1.27 2.69 2.66 3.38 3.84 0.35 0.59 0.61 1.15 0.8 1.64 0.21 0.47 0.36 0.97 0.48 1.34 0.11 0.36 0.11 0.55 0.16 0.72 0.03 0.16 0.04 0.25 0.04 0.25 0.37 2.02-1.12 3.93-3.31 4.26-1.59 0.25-3.1-0.39-3.97-1.51z"/><path d="m87.06 44.12s-0.05-0.07-0.16-0.2c-0.1-0.13-0.24-0.31-0.42-0.54-0.15-0.16-0.33-0.35-0.54-0.57-0.21-0.24-0.47-0.49-0.73-0.75-0.27-0.25-0.55-0.51-0.84-0.72-0.28-0.23-0.59-0.4-0.84-0.54-0.26-0.16-0.5-0.2-0.65-0.25-0.08-0.03-0.15-0.03-0.21-0.04-0.03 0.01-0.06-0.01-0.09 0l-0.04 0.01h-0.02-0.01-0.01c0.12 0-0.27 0.01 0.27-0.01l-0.55 0.02c-0.14 0-0.05 0.01-0.04 0.01 0.03 0 0.05 0 0.07-0.01 0.08-0.03 0 0-0.02 0-0.03 0-0.07 0.01-0.11 0.03-0.16 0.05-0.4 0.09-0.65 0.25-0.25 0.14-0.56 0.31-0.84 0.54-0.28 0.22-0.57 0.47-0.84 0.72-0.52 0.51-0.98 1.02-1.3 1.39-0.33 0.38-0.51 0.6-0.51 0.6l-0.23 0.27c-1.37 1.6-3.89 1.87-5.62 0.61-1.18-0.86-1.69-2.2-1.47-3.48 0 0 0.07-0.41 0.27-1.12 0.21-0.71 0.56-1.72 1.25-2.91 0.69-1.18 1.69-2.57 3.38-3.84 0.83-0.62 1.84-1.24 3.04-1.66 0.29-0.11 0.6-0.21 0.92-0.29 0.33-0.08 0.59-0.17 1.04-0.23l0.62-0.09c0.19-0.02 0.47-0.05 0.51-0.05l0.55-0.04 0.31-0.01h0.03 0.06l0.13 0.01 0.26 0.01 0.51 0.03c0.34 0.03 0.67 0.09 1 0.14 0.65 0.12 1.3 0.29 1.89 0.51 1.2 0.42 2.21 1.03 3.04 1.66 1.69 1.27 2.69 2.66 3.38 3.84 0.35 0.59 0.61 1.15 0.8 1.64 0.21 0.47 0.36 0.97 0.48 1.34 0.11 0.36 0.11 0.55 0.16 0.72 0.03 0.16 0.04 0.25 0.04 0.25 0.37 2.02-1.12 3.93-3.31 4.26-1.59 0.25-3.1-0.39-3.96-1.51z"/></g><path d="m88.42 121.72c-1.15-2.01-11.26-20.36-5.15-30.95 1.71-2.96 4.93-4.8 8.42-4.8 1.71 0 3.37 0.46 4.81 1.33 3.07 1.78 4.95 5.02 4.93 8.47l-0.01 3.44 3-1.69c1.45-0.82 3.12-1.25 4.82-1.25 1.73 0 3.42 0.45 4.87 1.31 2.27 1.33 3.89 3.43 4.57 5.93s0.34 5.1-0.95 7.32c-6.1 10.59-26.76 10.89-29.1 10.89h-0.21z" fill="#CC1775"/><path d="m91.69 87.97c1.34 0 2.65 0.36 3.77 1.04l0.06 0.04c2.45 1.42 3.91 3.93 3.9 6.72l-0.02 6.88 5.99-3.38c1.15-0.65 2.48-0.99 3.84-0.99 1.38 0 2.71 0.36 3.87 1.04 1.81 1.06 3.1 2.73 3.64 4.73 0.54 1.98 0.27 4.04-0.75 5.81-2.74 4.75-9.12 7.15-13.99 8.32-5.15 1.24-10.08 1.5-12.41 1.55-2.32-4.32-9.6-19.26-4.59-27.94 1.36-2.37 3.92-3.82 6.69-3.82m0-4c-4.03 0-8.01 2.1-10.15 5.8-7.02 12.18 4.78 32.33 5.29 33.18 0.16 0.25 0.38 0.46 0.64 0.59 0.21 0.1 0.44 0.17 0.68 0.17h0.5c3.58 0 24.26-0.5 30.82-11.89 1.56-2.68 1.97-5.82 1.15-8.85s-2.77-5.55-5.49-7.14c-1.82-1.07-3.86-1.58-5.89-1.58s-4.05 0.52-5.81 1.51c0.01-4.06-2.11-7.99-5.9-10.19-1.81-1.08-3.84-1.6-5.84-1.6z" fill="#B3005C"/><path d="m111.15 39.48c-2.24-0.61-22.59-6.5-25.8-18.44-0.67-2.49-0.28-5.21 1.06-7.48s3.44-3.85 5.92-4.46c0.89-0.24 1.77-0.35 2.64-0.35 2.63 0 5.1 1.02 6.95 2.88l2.42 2.44 0.92-3.31c0.93-3.33 3.67-6.04 6.98-6.9 0.86-0.23 1.73-0.34 2.6-0.34 1.72 0 3.42 0.46 4.92 1.32 2.28 1.31 3.9 3.41 4.56 5.92 3.21 11.93-11.44 27-13.17 28.72z" fill="#CC1775"/><path d="m114.84 5.52c1.37 0 2.72 0.36 3.92 1.05 1.81 1.04 3.09 2.7 3.62 4.71 2.64 9.81-8.44 22.39-11.83 25.95-4.72-1.42-20.64-6.9-23.27-16.7-0.53-1.97-0.22-4.14 0.85-5.94 1.06-1.8 2.72-3.06 4.68-3.54l0.08-0.02c0.69-0.18 1.39-0.28 2.09-0.28 2.07 0 4.08 0.84 5.53 2.29l4.85 4.88 1.84-6.63c0.74-2.66 2.92-4.81 5.56-5.5 0.68-0.18 1.39-0.27 2.08-0.27m0-4c-1.03 0-2.07 0.13-3.1 0.4-4.13 1.08-7.31 4.38-8.4 8.3-2.18-2.2-5.18-3.47-8.37-3.47-1.03 0-2.07 0.13-3.12 0.41-6.27 1.54-10.11 8.16-8.43 14.4 3.68 13.71 26.5 19.67 27.46 19.92 0.13 0.03 0.26 0.04 0.38 0.04 0.17 0 0.34-0.03 0.5-0.08 0.22-0.07 0.43-0.19 0.61-0.36 0.72-0.69 17.58-17.1 13.88-30.85-0.8-3.03-2.75-5.56-5.5-7.14-1.83-1.04-3.85-1.57-5.91-1.57z" fill="#B3005C"/><path d="m33.95 97.7c-2.33-0.16-23.23-1.86-28.7-12.83-1.14-2.28-1.3-5-0.45-7.47s2.58-4.42 4.87-5.5c1.43-0.71 2.91-1.06 4.43-1.06 1.92 0 3.78 0.56 5.37 1.63l2.86 1.91 0.24-3.43c0.24-3.41 2.37-6.58 5.41-8.07 1.4-0.69 2.87-1.04 4.39-1.04 1.05 0 2.09 0.17 3.1 0.5 2.47 0.82 4.45 2.54 5.59 4.84 5.48 10.96-5.75 28.47-7.11 30.52z" fill="#CC1775"/><path d="m32.39 63.85c0.83 0 1.66 0.14 2.47 0.4 1.96 0.65 3.53 2.01 4.43 3.85 4.49 8.99-3.77 23.37-6.37 27.52-4.89-0.46-21.4-2.65-25.88-11.63-0.9-1.8-1.03-3.96-0.35-5.92 0.68-1.95 2.04-3.5 3.83-4.34l0.06-0.04c1.12-0.55 2.3-0.83 3.51-0.83 1.53 0 3 0.45 4.26 1.29l5.72 3.82 0.49-6.86c0.19-2.72 1.88-5.23 4.31-6.42 1.13-0.57 2.31-0.84 3.52-0.84m0-4c-1.8 0-3.6 0.42-5.27 1.24-3.81 1.86-6.24 5.7-6.53 9.72-1.91-1.28-4.17-1.96-6.48-1.96-1.77 0-3.58 0.4-5.29 1.25-5.79 2.73-8.22 9.93-5.36 15.67 6.28 12.6 29.64 13.9 30.63 13.94h0.05c0.28 0 0.56-0.07 0.8-0.21 0.2-0.11 0.38-0.27 0.52-0.47 0.56-0.82 13.71-20.09 7.4-32.73-1.38-2.79-3.77-4.87-6.75-5.86-1.22-0.39-2.47-0.59-3.72-0.59z" fill="#B3005C"/></svg>
