<?xml version="1.0" encoding="utf-8"?>
<!-- Generator: Adobe Illustrator 24.1.2, SVG Export Plug-In . SVG Version: 6.00 Build 0)  -->
<svg version="1.1" id="Layer_2" xmlns="http://www.w3.org/2000/svg" xmlns:xlink="http://www.w3.org/1999/xlink" x="0px" y="0px"
	 viewBox="0 0 128 128" style="enable-background:new 0 0 128 128;" xml:space="preserve">
<linearGradient id="SVGID_1_" gradientUnits="userSpaceOnUse" x1="65.3748" y1="91.1421" x2="65.3748" y2="120.8815">
	<stop  offset="0.3349" style="stop-color:#97715C"/>
	<stop  offset="0.48" style="stop-color:#A47D66"/>
	<stop  offset="0.7182" style="stop-color:#B48C72"/>
	<stop  offset="0.9034" style="stop-color:#BA9176"/>
</linearGradient>
<path style="fill:url(#SVGID_1_);" d="M75.4,91.16l-15.49,1.69c0,0,0.24,13.91,0,16.33c-0.42,4.22-6.48,7.32-3.94,10.14
	c1.94,2.16,11.03,2.06,13.98-0.19s4.89-5.72,4.88-8.96C74.82,104.63,75.43,90.51,75.4,91.16z"/>
<linearGradient id="SVGID_2_" gradientUnits="userSpaceOnUse" x1="98.8603" y1="80.6525" x2="100.0474" y2="107.2147">
	<stop  offset="0.168" style="stop-color:#97715C"/>
	<stop  offset="0.2648" style="stop-color:#A07962"/>
	<stop  offset="0.5389" style="stop-color:#B38B71"/>
	<stop  offset="0.7273" style="stop-color:#BA9176"/>
</linearGradient>
<path style="fill:url(#SVGID_2_);" d="M99.05,88.49c0,0,0.35,8.72-0.56,10.84c-1.83,4.22-11.97,6.05-14.92,2.25
	c-2.18-2.8,1.27-3.94,1.69-6.05c0.42-2.11,0.42-10,0.42-10l29.99-5.63c0,0,0.84,14.78,0.56,17.46c-0.28,2.67-1.13,8.31-7.18,9.29
	c-6.05,0.99-8.59-0.71-8.73-1.69c-0.28-1.97,2.53-3.38,2.67-5.07c0.14-1.69-0.14-13.37-0.14-13.37L99.05,88.49z"/>
<linearGradient id="SVGID_3_" gradientUnits="userSpaceOnUse" x1="46.4807" y1="91.8036" x2="47.6371" y2="117.6764">
	<stop  offset="0.168" style="stop-color:#97715C"/>
	<stop  offset="0.2648" style="stop-color:#A07962"/>
	<stop  offset="0.5389" style="stop-color:#B38B71"/>
	<stop  offset="0.7273" style="stop-color:#BA9176"/>
</linearGradient>
<path style="fill:url(#SVGID_3_);" d="M41.89,92.01c0,0,1.55,11.4,0.14,14.64c-1.41,3.24-4.27,7.6-2.96,9.15
	c2.39,2.82,9.01,2.39,12.39,0.28c3.38-2.11,3.24-3.8,3.52-5.63c0.28-1.83-0.14-8.31-0.14-10.84c0-2.53,0.42-7.46,0.42-7.46
	L41.89,92.01z"/>
<path style="fill:#835A4A;" d="M60.4,115.8c-1.77-2.12-6.44,1.66-4.01,3.73C58.29,121.15,61.81,117.49,60.4,115.8z"/>
<path style="fill:#835A4A;" d="M64.79,116.5c-2.53-0.59-5.44,3.85-2.21,4.22C65.93,121.12,66.94,117,64.79,116.5z"/>
<path style="fill:#835A4A;" d="M46.89,113.06c-2.26-0.55-4.96,3.57-2.25,4.58C47.66,118.76,49.77,113.76,46.89,113.06z"/>
<path style="fill:#835A4A;" d="M42.03,112.14c-1.97-0.7-5.23,2.77-2.53,4.43C41.89,118.05,44.75,113.11,42.03,112.14z"/>
<path style="fill:#835A4A;" d="M86.66,98.41c2.24,0.87,0.44,6.1-2.32,4.22C82.15,101.16,84.48,97.57,86.66,98.41z"/>
<path style="fill:#835A4A;" d="M91.73,99.26c2.12,0.39,0.7,5.07-2.04,4.65S89.05,98.77,91.73,99.26z"/>
<path style="fill:#835A4A;" d="M103.27,102.36c-1.45-1-4.22,2.46-2.53,3.66C102.43,107.21,105.1,103.62,103.27,102.36z"/>
<path style="fill:#835A4A;" d="M107,103.41c-1.97-0.35-4.58,3.17-2.18,3.8C107.21,107.85,109.4,103.83,107,103.41z"/>
<linearGradient id="SVGID_4_" gradientUnits="userSpaceOnUse" x1="81.3156" y1="40.1556" x2="80.6117" y2="95.9044">
	<stop  offset="0.2666" style="stop-color:#855A4A"/>
	<stop  offset="0.4342" style="stop-color:#956C5A"/>
	<stop  offset="0.635" style="stop-color:#AD8671"/>
	<stop  offset="0.7496" style="stop-color:#B18873"/>
	<stop  offset="0.8525" style="stop-color:#BB8D7A"/>
	<stop  offset="0.9505" style="stop-color:#CE9686"/>
	<stop  offset="1" style="stop-color:#DA9C8E"/>
</linearGradient>
<path style="fill:url(#SVGID_4_);" d="M57.19,49.87c0,0,19.59-15.93,37.26-11.5c19.8,4.97,21.49,24.17,24.21,24.21
	c2.25,0.04,2.06-2.91,3.47-2.44c1.44,0.48,1.31,6.48-1.31,7.88c-1.54,0.82-3.1,0.66-3.1,0.66s0.19,5.21-0.38,7.56
	c-0.56,2.35-1.6,5.77-1.6,5.77s-3.78-0.51-7.51,1.88c-4.69,3-5.82,7.79-18.77,11.03c-7.88,1.97-10.89,2.06-13.51,1.97
	c-2.84-0.1-4.69-1.97-8.54-1.69c-3.85,0.28-4.88,1.88-7.41,1.97c-2.53,0.09-6.29-0.42-8.35-1.27c-2.06-0.84-13-5.02-13-5.02
	l15.25-40.5L57.19,49.87z"/>
<radialGradient id="SVGID_5_" cx="53.2943" cy="65.5421" r="25.0928" gradientTransform="matrix(-0.1178 0.993 -1.7292 -0.2052 172.9069 26.0654)" gradientUnits="userSpaceOnUse">
	<stop  offset="0.5056" style="stop-color:#AD8671;stop-opacity:0"/>
	<stop  offset="0.6459" style="stop-color:#B48975;stop-opacity:0.2839"/>
	<stop  offset="0.8495" style="stop-color:#C79382;stop-opacity:0.6956"/>
	<stop  offset="1" style="stop-color:#DA9C8E"/>
</radialGradient>
<path style="fill:url(#SVGID_5_);" d="M39.22,91.02c0,0,3.24,6.34,12.95,2.53s17.18-19.43,17.18-19.43l6.34-13.23l-25.76-4.08
	L39.22,91.02z"/>
<path style="fill:#B89379;" d="M54.84,57.8c0,0,2.44-2.47,3.75-5.96c1.4-3.72,1.64-8.88-1.17-10.21c-6.9-3.24-9.01,6.39-9.27,6.43
	c-0.28,0.05-3.17-2.09-5.56-2.37s-4.5,0.28-4.5,0.28s4.43-7.39-1.08-8.68c-5.27-1.23-6.1,7.98-6.1,7.98s-2.67,1.69-4.22,3.52
	c-1.55,1.83-2.25,3.8-3.38,4.22c-1.13,0.42-6.05,0.56-7.32,5.21s1.18,8.58,0.14,11.68c-1.27,3.8-2.96,3.61-5.3,4.55
	c-6.16,2.46-6.85,4.97-7.23,9.67C3.16,89.6,6.98,96.8,15.71,99.33s14.59-0.06,17.88-2.25c2.96-1.97,3.94-4.65,6.05-5.07
	s6.55-2.04,10.84-5.91c4.88-4.4,8.45-8.45,6.62-19.01C56.05,61.05,54.84,57.8,54.84,57.8z"/>
<g>
	<g>
		<defs>
			<path id="SVGID_6_" d="M34.81,41.35c-1.13,3.73-5.3,6.22-7.27,10.3s-2.37,8.86-3.85,12.44c-1.88,4.55-6.59,7.27-9.43,8.92
				c-3.73,2.16-5.55,1.73-7.67,3.54c-3.26,2.79-2.7,5.7-2.7,5.7l29.45,3.66c0,0,2.29-1.75,2.09-3.19c-0.63-4.6-6.19-11.45-4.36-16.8
				c1.83-5.35,6.37-8.75,11.64-10.42c4.46-1.41,7.65-2.3,7.65-2.3s0.38-3.1,2.53-6.48c1.58-2.47,4.22-5.21,4.22-5.21
				s-2.63-1.41-5.26,0.33c-1.62,1.07-3.33,4.93-3.75,6.05c-0.02,0.04-1.76-1.41-4.93-2.11c-2.33-0.52-5.02,0.23-5.02,0.23
				s4.65-7.74-1.36-8.78C36.38,37.18,35.34,39.57,34.81,41.35z"/>
		</defs>
		<clipPath id="SVGID_7_">
			<use xlink:href="#SVGID_6_"  style="overflow:visible;"/>
		</clipPath>
		<g style="clip-path:url(#SVGID_7_);">
			<g>
				<defs>
					<rect id="SVGID_8_" x="-1.17" y="32.24" width="63.26" height="58.66"/>
				</defs>
				<clipPath id="SVGID_9_">
					<use xlink:href="#SVGID_8_"  style="overflow:visible;"/>
				</clipPath>
				<g style="clip-path:url(#SVGID_9_);">
					<defs>
						<rect id="SVGID_10_" x="-1.17" y="32.24" width="63.26" height="58.66"/>
					</defs>
					<clipPath id="SVGID_11_">
						<use xlink:href="#SVGID_10_"  style="overflow:visible;"/>
					</clipPath>
					<g style="clip-path:url(#SVGID_11_);">
						
							<image style="overflow:visible;" width="133" height="123" xlink:href="F3B813DB2D58FF05.jpg"  transform="matrix(0.48 0 0 0.48 -1.44 32.16)">
						</image>
					</g>
				</g>
			</g>
		</g>
	</g>
</g>
<radialGradient id="SVGID_12_" cx="49.7748" cy="74.8336" r="7.3402" gradientTransform="matrix(0.911 0.4124 -0.582 1.2858 47.9803 -41.9096)" gradientUnits="userSpaceOnUse">
	<stop  offset="0" style="stop-color:#DA9C8E"/>
	<stop  offset="0.3017" style="stop-color:#D69A8B;stop-opacity:0.6983"/>
	<stop  offset="0.5958" style="stop-color:#CA9484;stop-opacity:0.4042"/>
	<stop  offset="0.8858" style="stop-color:#B78B77;stop-opacity:0.1142"/>
	<stop  offset="1" style="stop-color:#AD8671;stop-opacity:0"/>
</radialGradient>
<path style="fill:url(#SVGID_12_);" d="M53.93,63.78c-3.85-1.4-8.87,3.52-10.63,8.94c-1.76,5.42-1.51,11.13,3.17,11.97
	c3.94,0.7,7.88-3.03,9.92-7.39C58.43,72.93,58.57,65.47,53.93,63.78z"/>
<path style="fill:#0B0B0B;" d="M41.47,78.78c0,0,4.01,0.99,4.05-0.74c0.04-1.72-2.43-2.18-2.92-2.11S39.88,76.35,41.47,78.78z"/>
<path style="fill:#6B4433;" d="M36.38,89.83c0,0,2.42-3.55,2.98-5.84c0.68-2.77-0.28-5.64,0.56-7.23c0.56-1.06,2.36-1.57,3.75-0.8
	c0.78,0.43-1.92,0.32-1.78,2.22c0.14,1.9,0.64,3.92-0.35,7.07c-1.38,4.39-4.09,7.16-5.26,8.07S36.38,89.83,36.38,89.83z"/>
<path style="fill:#845A4A;" d="M19.01,79.34c0,0,5.7-1.37,11.4,0c6.02,1.44,7.88,5.24,7.36,10.84c-0.32,3.39-4.89,7.88-12.18,7.36
	S15.39,92.4,15.39,92.4s-4.08,3.17-9.4-0.25c-2.46-1.58-3.27-5.82-2.71-9.26c0.43-2.67,1.38-3.87,2.32-4.61
	c2.15-1.69,4.77-2.83,8.51-1.81C17.11,77.3,19.01,79.34,19.01,79.34z"/>
<path style="fill:#0B0C0C;" d="M22.78,85c-0.97,1.1-1.97,2.43-0.99,3.45c0.97,1,2.64-0.35,3.73-1.48c1.09-1.13,1.57-2.17,0.74-3.1
	C25.28,82.79,24.15,83.46,22.78,85z"/>
<path style="fill:#0B0C0C;" d="M13.21,82.58c-1.3-1.94-2.25-2.43-3.31-1.48s0.14,2.57,0.84,3.55s2.14,2.38,3.1,1.58
	C15.28,85.04,14.1,83.9,13.21,82.58z"/>
<path style="fill:#0B0C0C;" d="M44.18,66.53c0.07,2.82-1.59,3.98-3.47,3.98c-1.88,0-3.4-1.65-3.4-3.68c0-2.03,1.52-3.68,3.4-3.68
	C42.59,63.15,44.13,64.5,44.18,66.53z"/>
<path style="fill:#0B0C0C;" d="M21.69,61.06c0.05,2.6-1.13,3.67-2.45,3.67s-2.4-1.52-2.4-3.4s1.08-3.4,2.4-3.4
	S21.65,59.18,21.69,61.06z"/>
</svg>
