<svg xmlns="http://www.w3.org/2000/svg" viewBox="0 0 128 128"><path d="M114.42 4.27c-.27-1.09-1.03-2.24-1.66-3.13-.53-.74-1.16-.89-1.6-.89-.87 0-1.61.6-2.21 1.08-.18.15-.36.29-.52.39-.62.4-1.33.64-2.09.9-.67.23-1.34.46-1.97.79-4.55 2.37-9.49 7.14-9.72 13.41-.01.3.13.59.36.78.43.35 2.34 1.64 3.81 1.64.36 0 .69-.08.96-.23.87-.49 1.1-1.67 1.31-2.72.06-.32.14-.71.2-.86.48-1.08.74-1.68 1.41-2.56 1.68-2.22 4.51-4.89 8.5-4.97.16 0 .33.02.5.03.6.05 1.26.18 2.12-.29 1.32-.71.87-2.35.6-3.37z" fill="#855c52"/><path d="M110.01 21.25c-.63-1.16-1.32-2.34-2.08-3.16-2.66-2.87-5.98-4.89-8.88-6.56C93.08 8.1 86.28 6.9 80.33 8.27c-1.89.44-3.74 1.15-5.22 2-8.47 4.95-14.75 10.91-21.42 17.23-1.83 1.74-3.7 3.52-5.66 5.3-2.73 2.5-5.87 4.38-9.19 6.38-2.15 1.29-4.38 2.62-6.47 4.14-5.12 3.72-21.89 17.26-22.3 35.29-.28 12.49 5.1 23.54 16.07 32.81 11.75 9.96 26.62 16.09 39.7 16.31 7.22.12 13.76-1.53 19.42-4.92 4.77-2.86 9.36-7.21 11.97-11.35 5.85-9.27 9.59-23.22 9.57-35.51-.02-10.69 1.1-18.65 3.84-27.5 2.57-8.24 4.48-17.9-.63-27.2z" fill="#bdcf46"/><g fill="#fff"><path d="M100.7 40.13c-.51-.35-1.09-.54-1.68-.35-.74.22-1.64 1.28-1.43 2.09.34 1.33 3.35 2.75 4.11 1.25.51-.97-.07-2.32-1-2.99zM92.69 21.1c-.49-.34-1.07-.51-1.67-.34-.76.23-1.64 1.3-1.44 2.09.34 1.34 3.34 2.76 4.12 1.24.5-.97-.09-2.3-1.01-2.99zM71.56 52.09c.84 1.7-1.3 3.18-2.85 2.48-.91-.39-1.4-1.78-.95-2.63.76-1.49 3.07-1.32 3.8.15zM70.02 111.77c1.06 1.1.05 3.25-1.36 3.36-1.54.09-2.79-1.68-2.31-3.09.54-1.67 2.7-1.27 3.67-.27zM87.67 106.09c1.07 1.07.05 3.25-1.34 3.37-1.55.1-2.82-1.7-2.33-3.1.54-1.66 2.71-1.25 3.67-.27zM45.77 105.07c1.08 1.1.07 3.27-1.35 3.35-1.53.13-2.78-1.66-2.31-3.09.55-1.65 2.72-1.24 3.66-.26zM96.82 83.51c.34.53.51 1.18.37 1.81-.51 2.34-3.67 1.67-3.86-.52-.03-.45.03-.91.21-1.32.78-1.8 2.49-1.21 3.28.03zM78 24.95c.92.94.05 2.86-1.21 2.94-1.35.12-2.48-1.49-2.06-2.71.48-1.48 2.4-1.11 3.27-.23zM23.04 91.64c2.16 1.17 3.71-2.35 1.87-3.58-.64-.43-1.45-.42-2.1-.06-1.44.77-1.14 2.89.23 3.64zM41.37 54.04c1.18.63 2.88-.62 2.66-1.9-.23-1.16-1.73-2.37-2.9-1.75-1.44.78-1.15 2.9.24 3.65zM24.56 69.07c-.01.34.08.68.31.98.38.5.88.83 1.53.76 1.5-.17 2.06-1.8 1.12-2.93-1.07-1.3-2.92-.42-2.96 1.19zM96.32 66.65c1.07-.11 2-.98 1.03-2.56-.87-1.44-2.96-.54-3.02 1-.04 1.15 1.04 1.66 1.99 1.56zM52.65 64.28c1.25.29 1.78 1.78 1 2.82-1.18 1.58-3.42-.09-2.86-1.8.25-.75 1.09-1.19 1.86-1.02zM42.81 85.93c.29.4.76.75 1.48 1 2.98.98 2.5-4.07.51-3.79-1.91.25-2.74 1.69-1.99 2.79zM81.57 45.76c.29.39.77.74 1.46.98 3 1 2.52-4.05.51-3.78-1.89.26-2.74 1.69-1.97 2.8zM71.28 89.57c.93 1.9-1.59 3.57-3.13 2.51-1.38-.9-1.46-2.83.28-3.33.85-.23 2.44.01 2.85.82zM74.84 72.17c.09 1.01-.63 2.01-2.25 1.66-.48-.1-.89-.38-1.11-.85-.6-1.25.39-2.77 1.79-2.52.96.18 1.5.95 1.57 1.71zM60.92 37.26c1.42 2.2-3.3 4.49-3.26 1.26.01-1.7 2.19-2.86 3.26-1.26z"/></g></svg>