<?xml version="1.0" encoding="utf-8"?>
<!-- Generator: Adobe Illustrator 19.2.1, SVG Export Plug-In . SVG Version: 6.00 Build 0)  -->
<svg version="1.1" id="レイヤー_1" xmlns="http://www.w3.org/2000/svg" xmlns:xlink="http://www.w3.org/1999/xlink" x="0px"
	 y="0px" viewBox="0 0 128 128" style="enable-background:new 0 0 128 128;" xml:space="preserve">
<path style="fill:#2F2F2F;" d="M103.35,100.75c-10.93,5.66-24.44,9.25-39.3,9.25C29.23,110,1,91,1,67.56
	c0-23.44,28.23-42.44,63.05-42.44c34.82,0,63.05,19,63.05,42.44c0,5.42-1.51,10.61-4.27,15.37
	C122.84,82.94,119.88,92.19,103.35,100.75"/>
<g>
	<path style="fill:none;" d="M127.1,73.2v-5.54c-0.01,1.88-0.26,3.72-0.61,5.54c-4.1-20.77-30.46-36.8-62.43-36.8
		c-31.98,0-58.33,16.03-62.43,36.8C1.26,71.36,1,69.5,1,67.6v5.6"/>
	<path style="fill:#546670;" d="M64.17,38.33c31.98,0,58.22,14.1,62.32,34.87c0.36-1.82,0.61-3.66,0.61-5.54v-0.18
		c-0.07-23.39-28.26-42.34-63.03-42.35h-0.04C29.23,25.14,1.02,44.12,1,67.54v0.06c0,1.9,0.25,3.76,0.62,5.6
		C5.72,52.43,32.19,38.33,64.17,38.33z"/>
</g>
</svg>
