<svg xmlns="http://www.w3.org/2000/svg" xmlns:xlink="http://www.w3.org/1999/xlink" viewBox="0 0 128 128"><path d="M59.05 132.29c3-27.98 3-61.39 3-61.39h-87.29s0 35.23 3.72 61.39h80.57zM71.18 90.37s-4.88-9.93-4.88-20.21c0-11.48 3.57-21.41 13.16-30.14 13.17-11.99 43.24-11.86 55.65 2.91 4.89 27.97 1.66 41.64 1.66 41.64l.22 9.01-65.81-3.21z" fill="#6d4c41"/><ellipse cx="18.54" cy="70.64" rx="43.64" ry="39.23" fill="#6d4c41"/><path d="M101.7 124.08C83.37 124 72.46 111.83 71.55 92.3V69.95c0-17.69 14.34-32.03 32.03-32.03h1.17c17.69 0 32.03 14.34 32.03 32.03v21.18c-.01 18.33-17.98 33.03-35.08 32.95z" fill="#fcc21b"/><defs><path id="a" d="M102.44 124.08c-19.38.39-30.23-13.22-30.89-31.78V69.95c0-17.69 14.34-32.03 32.03-32.03h1.17c17.69 0 32.03 14.34 32.03 32.03v21.18c-.01 17.34-16.72 32.59-34.34 32.95z"/></defs><clipPath id="b"><use xlink:href="#a" overflow="visible"/></clipPath><g opacity=".6" clip-path="url(#b)"><path d="M68.36 116.41c6.03 2.31 12.67-.94 14.86-7.26 2.19-6.32-.91-13.32-6.93-15.62-6.01-2.29-12.67.96-14.87 7.28-2.18 6.31.93 13.3 6.94 15.6z" fill="#fcc21b"/><path d="M68.52 115.93c5.78 2.21 12.15-.9 14.25-6.96 2.1-6.05-.87-12.77-6.64-14.98-5.76-2.2-12.15.92-14.26 6.98-2.09 6.06.89 12.77 6.65 14.96z" fill="#fcbf1b"/><path d="M68.69 115.46c5.53 2.12 11.63-.86 13.64-6.66 2.01-5.79-.83-12.22-6.36-14.33-5.51-2.1-11.63.88-13.64 6.68s.84 12.21 6.36 14.31z" fill="#fbbc1b"/><path d="M68.85 114.99c5.28 2.02 11.1-.82 13.02-6.36 1.92-5.53-.8-11.67-6.07-13.69-5.26-2.01-11.1.84-13.03 6.38-1.91 5.54.81 11.66 6.08 13.67z" fill="#fbb91c"/><path d="M69.02 114.52c5.03 1.93 10.58-.79 12.41-6.06s-.76-11.12-5.79-13.04c-5.02-1.92-10.58.8-12.42 6.08-1.82 5.27.78 11.1 5.8 13.02z" fill="#fab61c"/><path d="M69.18 114.05c4.78 1.83 10.06-.75 11.79-5.76 1.73-5.01-.72-10.57-5.5-12.4-4.77-1.82-10.06.76-11.8 5.77-1.73 5.02.74 10.56 5.51 12.39z" fill="#fab31c"/><path d="M69.34 113.57c4.53 1.74 9.53-.71 11.18-5.46 1.64-4.75-.68-10.02-5.21-11.75-4.52-1.73-9.53.72-11.19 5.47-1.64 4.76.7 10.02 5.22 11.74z" fill="#faaf1c"/><path d="M69.51 113.1c4.28 1.64 9.01-.67 10.57-5.16 1.55-4.49-.65-9.47-4.93-11.11-4.27-1.63-9.01.68-10.57 5.17-1.56 4.5.65 9.47 4.93 11.1z" fill="#f9ac1d"/><path d="M69.67 112.63c4.04 1.54 8.49-.63 9.95-4.86 1.46-4.23-.61-8.92-4.64-10.46-4.02-1.54-8.49.64-9.96 4.87-1.46 4.23.62 8.91 4.65 10.45z" fill="#f9a91d"/><path d="M69.83 112.16c3.79 1.45 7.96-.59 9.34-4.57 1.37-3.97-.57-8.37-4.36-9.82-3.78-1.44-7.96.6-9.34 4.57-1.37 3.98.59 8.37 4.36 9.82z" fill="#f9a61d"/><path d="M70 111.68c3.54 1.35 7.44-.55 8.73-4.27 1.28-3.71-.53-7.82-4.07-9.17-3.53-1.35-7.44.56-8.73 4.27-1.29 3.72.54 7.83 4.07 9.17z" fill="#f8a31d"/><path d="M70.16 111.21c3.29 1.26 6.92-.51 8.11-3.97 1.19-3.45-.5-7.27-3.78-8.53-3.28-1.25-6.92.52-8.12 3.97-1.19 3.46.51 7.28 3.79 8.53z" fill="#f8a01e"/><path d="M70.33 110.74c3.04 1.16 6.39-.48 7.5-3.67 1.1-3.19-.46-6.72-3.5-7.88-3.03-1.16-6.39.48-7.5 3.67-1.1 3.19.46 6.72 3.5 7.88z" fill="#f79d1e"/><path d="M70.49 110.27c2.79 1.07 5.87-.44 6.88-3.37 1.01-2.93-.42-6.17-3.21-7.24-2.78-1.06-5.87.45-6.89 3.37-1 2.94.43 6.17 3.22 7.24z" fill="#f79a1e"/><path d="M70.65 109.79c2.54.97 5.35-.4 6.27-3.07.92-2.66-.38-5.62-2.92-6.59-2.53-.97-5.35.41-6.27 3.07-.92 2.68.39 5.63 2.92 6.59z" fill="#f7971e"/><path d="M70.82 109.32c2.29.88 4.82-.36 5.66-2.77.83-2.4-.35-5.07-2.64-5.94-2.29-.87-4.82.37-5.66 2.77-.83 2.41.35 5.07 2.64 5.94z" fill="#f6941f"/><path d="M70.98 108.85c2.04.78 4.3-.32 5.04-2.47.74-2.14-.31-4.52-2.35-5.3-2.04-.78-4.3.33-5.05 2.47-.73 2.15.32 4.52 2.36 5.3z" fill="#f6901f"/><path d="M71.14 108.38c1.8.69 3.78-.28 4.43-2.17.65-1.88-.27-3.97-2.07-4.65-1.79-.68-3.78.29-4.43 2.17-.64 1.88.28 3.96 2.07 4.65z" fill="#f68d1f"/><path d="M71.31 107.9c1.55.59 3.25-.24 3.82-1.87.56-1.62-.23-3.42-1.78-4.01-1.54-.59-3.25.25-3.82 1.87-.56 1.63.24 3.42 1.78 4.01z" fill="#f58a1f"/><path d="M71.47 107.43c1.3.5 2.73-.2 3.2-1.57.47-1.36-.2-2.87-1.49-3.36-1.29-.49-2.73.21-3.2 1.57-.47 1.36.2 2.87 1.49 3.36z" fill="#f58720"/><path d="M71.64 106.96c1.05.4 2.21-.17 2.59-1.27.38-1.1-.16-2.32-1.21-2.72-1.05-.4-2.21.17-2.59 1.27-.38 1.1.16 2.32 1.21 2.72z" fill="#f48420"/><path d="M71.8 106.49c.8.3 1.68-.13 1.97-.97.29-.84-.12-1.77-.92-2.07-.8-.31-1.68.13-1.97.97-.29.83.12 1.76.92 2.07z" fill="#f48120"/></g><g opacity=".6" clip-path="url(#b)"><path d="M113.1 117.39c6.81 2.45 14.32-1 16.79-7.72 2.47-6.71-1.03-14.15-7.83-16.61-6.79-2.44-14.32 1.02-16.8 7.73-2.46 6.73 1.05 14.16 7.84 16.6z" fill="#fcc21b"/><path d="M113.3 116.89c6.53 2.35 13.73-.96 16.1-7.4 2.37-6.43-.98-13.57-7.51-15.92-6.51-2.34-13.73.98-16.11 7.42-2.36 6.44 1.01 13.56 7.52 15.9z" fill="#fcbf1b"/><path d="M113.5 116.38c6.25 2.25 13.14-.92 15.41-7.08 2.27-6.16-.94-12.99-7.18-15.23-6.23-2.24-13.14.94-15.41 7.1-2.27 6.16.95 12.98 7.18 15.21z" fill="#fbbc1b"/><path d="M113.7 115.88c5.96 2.15 12.54-.88 14.71-6.76 2.16-5.88-.9-12.4-6.86-14.55-5.95-2.14-12.54.9-14.72 6.78-2.16 5.89.92 12.4 6.87 14.53z" fill="#fbb91c"/><path d="M113.9 115.38c5.68 2.05 11.95-.83 14.02-6.45 2.06-5.6-.86-11.82-6.54-13.86-5.67-2.04-11.95.85-14.03 6.46-2.05 5.61.88 11.81 6.55 13.85z" fill="#fab61c"/><path d="M114.1 114.88c5.4 1.95 11.36-.79 13.33-6.13 1.96-5.33-.82-11.23-6.21-13.18-5.39-1.94-11.36.81-13.33 6.14-1.96 5.34.82 11.23 6.21 13.17z" fill="#fab31c"/><path d="M114.3 114.38c5.12 1.84 10.77-.75 12.63-5.81 1.86-5.05-.77-10.65-5.89-12.49-5.11-1.83-10.77.77-12.64 5.82-1.85 5.05.79 10.64 5.9 12.48z" fill="#faaf1c"/><path d="M114.5 113.87c4.84 1.74 10.18-.71 11.94-5.49 1.76-4.77-.73-10.06-5.57-11.81-4.83-1.73-10.18.73-11.94 5.5-1.75 4.79.74 10.07 5.57 11.8z" fill="#f9ac1d"/><path d="M114.7 113.37c4.56 1.64 9.59-.67 11.25-5.17 1.65-4.49-.69-9.48-5.24-11.12-4.55-1.63-9.59.68-11.25 5.18-1.66 4.5.69 9.48 5.24 11.11z" fill="#f9a91d"/><path d="M114.9 112.87c4.28 1.54 9-.63 10.55-4.85 1.55-4.22-.65-8.89-4.92-10.43-4.27-1.53-9 .64-10.56 4.86-1.54 4.22.67 8.89 4.93 10.42z" fill="#f9a61d"/><path d="M115.1 112.37c4 1.44 8.41-.59 9.86-4.53 1.45-3.94-.6-8.31-4.6-9.75-3.99-1.43-8.4.6-9.86 4.54-1.44 3.94.62 8.31 4.6 9.74z" fill="#f8a31d"/><path d="M115.3 111.87c3.72 1.34 7.82-.55 9.17-4.21 1.35-3.66-.56-7.72-4.27-9.06-3.7-1.33-7.81.56-9.17 4.22-1.35 3.66.57 7.71 4.27 9.05z" fill="#f8a01e"/><path d="M115.5 111.36c3.43 1.24 7.22-.51 8.47-3.9 1.25-3.39-.52-7.14-3.95-8.38-3.42-1.23-7.22.52-8.48 3.9-1.23 3.41.54 7.15 3.96 8.38z" fill="#f79d1e"/><path d="M115.7 110.86c3.15 1.13 6.63-.46 7.78-3.58 1.14-3.11-.48-6.55-3.63-7.69-3.14-1.13-6.63.47-7.78 3.58-1.14 3.12.49 6.56 3.63 7.69z" fill="#f79a1e"/><path d="M115.9 110.36c2.87 1.03 6.04-.42 7.08-3.26 1.04-2.83-.43-5.97-3.3-7-2.86-1.03-6.04.43-7.09 3.26-1.03 2.84.45 5.97 3.31 7z" fill="#f7971e"/><path d="M116.1 109.86c2.59.93 5.45-.38 6.39-2.94.94-2.55-.39-5.39-2.98-6.32-2.58-.93-5.45.39-6.39 2.94-.94 2.56.4 5.39 2.98 6.32z" fill="#f6941f"/><path d="M116.31 109.36c2.31.83 4.86-.34 5.7-2.62.84-2.28-.35-4.8-2.66-5.63-2.3-.83-4.86.35-5.7 2.62-.84 2.28.35 4.8 2.66 5.63z" fill="#f6901f"/><path d="M116.51 108.85c2.03.73 4.27-.3 5-2.3.74-2-.31-4.22-2.33-4.95-2.02-.73-4.27.3-5.01 2.3-.73 2.01.31 4.23 2.34 4.95z" fill="#f68d1f"/><path d="M116.71 108.35c1.75.63 3.68-.26 4.31-1.98.63-1.72-.26-3.63-2.01-4.26-1.74-.63-3.67.26-4.31 1.98-.64 1.73.26 3.63 2.01 4.26z" fill="#f58a1f"/><path d="M116.91 107.85c1.47.53 3.09-.22 3.62-1.66.53-1.45-.22-3.05-1.69-3.58-1.46-.53-3.09.22-3.62 1.67-.53 1.44.22 3.04 1.69 3.57z" fill="#f58720"/><path d="M117.11 107.35c1.18.43 2.49-.18 2.92-1.35.43-1.17-.18-2.46-1.36-2.89-1.18-.42-2.49.18-2.92 1.35-.44 1.17.18 2.46 1.36 2.89z" fill="#f48420"/><path d="M117.31 106.84c.9.32 1.9-.13 2.23-1.03a1.71 1.71 0 0 0-1.04-2.2c-.9-.32-1.9.13-2.23 1.03-.33.89.14 1.88 1.04 2.2z" fill="#f48120"/></g><path d="M23.2 123.3c18.16-.08 28.96-12.14 29.86-31.49V69.68c0-17.52-14.2-31.72-31.72-31.72h-1.16c-17.52 0-31.72 14.2-31.72 31.72v20.98c0 18.15 17.81 32.71 34.74 32.64z" fill="#fcc21b"/><defs><path id="c" d="M22.5 123.29c19.64.14 29.78-12.95 30.56-31.48V69.68c0-17.52-14.2-31.72-31.72-31.72h-1.16c-17.52 0-31.72 14.2-31.72 31.72v20.98c0 18.15 18.09 32.52 34.04 32.63z"/></defs><clipPath id="d"><use xlink:href="#c" overflow="visible"/></clipPath><g opacity=".6" clip-path="url(#d)"><path d="M56.22 115.7c-5.97 2.29-12.55-.93-14.72-7.2-2.17-6.26.9-13.19 6.87-15.48 5.95-2.27 12.55.95 14.73 7.21 2.16 6.27-.92 13.19-6.88 15.47z" fill="#fcc21b"/><path d="M56.06 115.23c-5.72 2.19-12.03-.89-14.11-6.9-2.08-6 .86-12.65 6.58-14.84 5.71-2.18 12.03.91 14.12 6.91 2.07 6.01-.88 12.65-6.59 14.83z" fill="#fcbf1b"/><path d="M55.9 114.76c-5.48 2.1-11.52-.85-13.51-6.6-1.99-5.74.83-12.1 6.3-14.2 5.46-2.08 11.52.87 13.51 6.61 1.99 5.75-.84 12.11-6.3 14.19z" fill="#fbbc1b"/><path d="M55.74 114.29c-5.23 2-11-.82-12.9-6.3-1.9-5.48.79-11.56 6.01-13.56 5.21-1.99 11 .84 12.91 6.32 1.89 5.49-.8 11.55-6.02 13.54z" fill="#fbb91c"/><path d="M55.58 113.82c-4.98 1.91-10.48-.78-12.29-6.01-1.81-5.22.75-11.01 5.73-12.92 4.97-1.9 10.48.8 12.3 6.02 1.8 5.24-.77 11.02-5.74 12.91z" fill="#fab61c"/><path d="M55.41 113.36c-4.74 1.81-9.96-.74-11.68-5.71-1.72-4.96.71-10.47 5.45-12.28 4.72-1.8 9.96.76 11.69 5.72 1.71 4.97-.73 10.46-5.46 12.27z" fill="#fab31c"/><path d="M55.25 112.89c-4.49 1.72-9.44-.7-11.08-5.41-1.63-4.71.68-9.92 5.16-11.64 4.48-1.71 9.44.72 11.08 5.42 1.64 4.71-.68 9.92-5.16 11.63z" fill="#faaf1c"/><path d="M55.09 112.42c-4.24 1.62-8.92-.66-10.47-5.12-1.54-4.45.64-9.38 4.88-11 4.23-1.62 8.92.68 10.47 5.12 1.54 4.46-.65 9.38-4.88 11z" fill="#f9ac1d"/><path d="M54.93 111.95c-4 1.53-8.41-.62-9.86-4.82-1.45-4.19.6-8.83 4.6-10.36 3.99-1.52 8.41.64 9.86 4.83 1.45 4.19-.62 8.83-4.6 10.35z" fill="#f9a91d"/><path d="M54.76 111.48c-3.75 1.44-7.89-.59-9.25-4.52-1.36-3.93.57-8.29 4.31-9.72 3.74-1.43 7.89.6 9.26 4.53 1.36 3.94-.57 8.29-4.32 9.71z" fill="#f9a61d"/><path d="M54.6 111.02c-3.5 1.34-7.37-.55-8.64-4.22-1.27-3.67.53-7.74 4.03-9.08 3.49-1.33 7.37.56 8.65 4.23 1.26 3.67-.54 7.73-4.04 9.07z" fill="#f8a31d"/><path d="M54.44 110.55c-3.26 1.25-6.85-.51-8.04-3.93-1.18-3.41.49-7.2 3.75-8.45 3.25-1.24 6.85.52 8.04 3.93 1.18 3.43-.5 7.21-3.75 8.45z" fill="#f8a01e"/><path d="M54.28 110.08c-3.01 1.15-6.33-.47-7.43-3.63-1.09-3.16.45-6.65 3.46-7.81 3-1.15 6.33.48 7.43 3.64 1.09 3.16-.46 6.65-3.46 7.8z" fill="#f79d1e"/><path d="M54.12 109.61c-2.76 1.06-5.82-.43-6.82-3.33s.42-6.11 3.18-7.17c2.76-1.05 5.81.44 6.82 3.34 1 2.9-.43 6.11-3.18 7.16z" fill="#f79a1e"/><path d="M53.95 109.14c-2.52.96-5.3-.39-6.21-3.04-.91-2.64.38-5.56 2.9-6.53 2.51-.96 5.29.4 6.21 3.04.91 2.65-.38 5.58-2.9 6.53z" fill="#f7971e"/><path d="M53.79 108.68c-2.27.87-4.78-.36-5.6-2.74-.82-2.38.34-5.02 2.61-5.89 2.26-.87 4.78.36 5.61 2.74.82 2.39-.35 5.02-2.62 5.89z" fill="#f6941f"/><path d="M53.63 108.21c-2.02.77-4.26-.32-5-2.44-.73-2.12.31-4.47 2.33-5.25 2.02-.77 4.26.32 5 2.45.73 2.12-.31 4.47-2.33 5.24z" fill="#f6901f"/><path d="M53.47 107.74c-1.78.68-3.74-.28-4.39-2.15-.64-1.86.27-3.93 2.05-4.61 1.77-.68 3.74.28 4.39 2.15.64 1.87-.28 3.93-2.05 4.61z" fill="#f68d1f"/><path d="M53.3 107.27c-1.53.59-3.22-.24-3.78-1.85-.56-1.61.23-3.38 1.76-3.97 1.53-.58 3.22.24 3.78 1.85.56 1.61-.23 3.39-1.76 3.97z" fill="#f58a1f"/><path d="M53.14 106.8c-1.29.49-2.71-.2-3.17-1.55-.47-1.35.19-2.84 1.48-3.33 1.28-.49 2.7.2 3.17 1.55.47 1.35-.2 2.85-1.48 3.33z" fill="#f58720"/><path d="M52.98 106.34c-1.04.4-2.19-.16-2.56-1.25-.38-1.09.16-2.29 1.2-2.69 1.04-.4 2.19.16 2.56 1.25.37 1.08-.16 2.29-1.2 2.69z" fill="#f48420"/><path d="M52.82 105.87c-.79.3-1.67-.13-1.96-.96-.29-.83.12-1.75.91-2.05.79-.3 1.67.13 1.96.96.29.83-.12 1.75-.91 2.05z" fill="#f48120"/></g><g opacity=".6" clip-path="url(#d)"><path d="M11.91 116.67c-6.74 2.43-14.18-.99-16.63-7.65-2.45-6.65 1.01-14.02 7.75-16.45 6.72-2.42 14.18 1.01 16.64 7.66 2.45 6.66-1.03 14.02-7.76 16.44z" fill="#fcc21b"/><path d="M11.71 116.17c-6.46 2.33-13.6-.95-15.95-7.33-2.35-6.37.98-13.44 7.44-15.77 6.45-2.32 13.6.97 15.96 7.34 2.34 6.39-1 13.44-7.45 15.76z" fill="#fcbf1b"/><path d="M11.51 115.67c-6.19 2.23-13.01-.91-15.26-7.02-2.24-6.1.93-12.86 7.12-15.09 6.17-2.22 13.01.93 15.27 7.03 2.24 6.12-.96 12.87-7.13 15.08z" fill="#fbbc1b"/><path d="M11.31 115.18c-5.91 2.13-12.43-.87-14.57-6.7-2.14-5.82.89-12.28 6.8-14.41 5.89-2.12 12.43.89 14.58 6.71 2.14 5.83-.91 12.28-6.81 14.4z" fill="#fbb91c"/><path d="M11.11 114.68c-5.63 2.03-11.84-.83-13.89-6.38-2.04-5.55.85-11.7 6.47-13.73 5.61-2.02 11.84.85 13.89 6.4 2.06 5.55-.85 11.69-6.47 13.71z" fill="#fab61c"/><path d="M10.92 114.18c-5.35 1.93-11.25-.79-13.2-6.07-1.94-5.28.81-11.12 6.15-13.05 5.34-1.92 11.25.8 13.21 6.08 1.94 5.29-.82 11.12-6.16 13.04z" fill="#fab31c"/><path d="M10.72 113.68c-5.07 1.83-10.67-.75-12.51-5.75-1.84-5 .77-10.55 5.83-12.37 5.06-1.82 10.67.76 12.52 5.76 1.84 5.01-.78 10.55-5.84 12.36z" fill="#faaf1c"/><path d="M10.52 113.19c-4.79 1.73-10.08-.7-11.83-5.44-1.74-4.73.72-9.97 5.51-11.69 4.78-1.72 10.08.72 11.83 5.45s-.73 9.96-5.51 11.68z" fill="#f9ac1d"/><path d="M10.32 112.69c-4.52 1.63-9.5-.66-11.14-5.12-1.64-4.45.68-9.39 5.19-11.01 4.5-1.62 9.5.68 11.14 5.13 1.65 4.45-.68 9.38-5.19 11z" fill="#f9a91d"/><path d="M10.12 112.19c-4.24 1.53-8.91-.62-10.45-4.81-1.54-4.18.64-8.81 4.87-10.33 4.22-1.52 8.91.64 10.46 4.81 1.54 4.19-.65 8.81-4.88 10.33z" fill="#f9a61d"/><path d="M9.92 111.69c-3.96 1.43-8.33-.58-9.76-4.49-1.44-3.9.6-8.23 4.55-9.66 3.95-1.42 8.33.59 9.77 4.5 1.44 3.92-.61 8.24-4.56 9.65z" fill="#f8a31d"/><path d="M9.73 111.2c-3.68 1.32-7.74-.54-9.08-4.17-1.33-3.63.56-7.65 4.23-8.98 3.67-1.32 7.74.55 9.08 4.18 1.34 3.63-.56 7.65-4.23 8.97z" fill="#f8a01e"/><path d="M9.53 110.7c-3.4 1.22-7.16-.5-8.39-3.86-1.23-3.35.51-7.07 3.91-8.3 3.39-1.22 7.15.51 8.4 3.86 1.23 3.37-.53 7.08-3.92 8.3z" fill="#f79d1e"/><path d="M9.33 110.2c-3.12 1.12-6.57-.46-7.7-3.54s.47-6.49 3.59-7.62c3.11-1.12 6.57.47 7.71 3.55 1.13 3.08-.49 6.49-3.6 7.61z" fill="#f79a1e"/><path d="M9.13 109.7c-2.84 1.02-5.98-.42-7.02-3.23-1.03-2.81.43-5.91 3.27-6.94 2.84-1.02 5.98.43 7.02 3.23 1.04 2.82-.43 5.93-3.27 6.94z" fill="#f7971e"/><path d="M8.93 109.21c-2.57.92-5.4-.38-6.33-2.91-.93-2.53.39-5.33 2.95-6.26 2.56-.92 5.4.38 6.33 2.92.94 2.53-.39 5.33-2.95 6.25z" fill="#f6941f"/><path d="M8.73 108.71c-2.29.82-4.81-.34-5.64-2.6-.83-2.26.35-4.76 2.63-5.58 2.28-.82 4.81.34 5.65 2.6.83 2.26-.35 4.76-2.64 5.58z" fill="#f6901f"/><path d="M8.54 108.21c-2.01.72-4.23-.3-4.96-2.28-.73-1.98.3-4.18 2.31-4.9 2-.72 4.22.3 4.96 2.28.73 1.99-.31 4.18-2.31 4.9z" fill="#f68d1f"/><path d="M8.34 107.72c-1.73.62-3.64-.26-4.27-1.96-.63-1.71.26-3.6 1.99-4.22 1.73-.62 3.64.26 4.27 1.97.62 1.7-.27 3.59-1.99 4.21z" fill="#f58a1f"/><path d="M8.14 107.22c-1.45.52-3.06-.22-3.58-1.65-.53-1.43.22-3.02 1.67-3.54s3.06.22 3.58 1.65c.53 1.43-.22 3.02-1.67 3.54z" fill="#f58720"/><path d="M7.94 106.72c-1.17.42-2.47-.17-2.9-1.33-.43-1.16.18-2.44 1.35-2.86 1.17-.42 2.47.17 2.9 1.33.43 1.16-.18 2.44-1.35 2.86z" fill="#f48420"/><path d="M7.74 106.22c-.9.32-1.88-.13-2.21-1.02-.32-.88.14-1.86 1.03-2.18.89-.32 1.88.13 2.21 1.02.32.88-.14 1.86-1.03 2.18z" fill="#f48120"/></g><path d="M25.81 71.02c5.91 1.79 16.13 3.93 20.68 6.05 4.14 1.94 6.61 6.52 6.61 11.09v23.32l5.71-11.31 1.93-37.76-16.96-20.26-18.32-5.23H-.47l-19.71 22.04-.33 55.66 5.99 1.74-2.11-28.53c0-4.35 1.56 3.34 5.23 1.01 3.43-2.17 16.9-13.4 20.37-23.8.75-2.24 1.46-1.67 3-.53 2.44 1.79 7.44 4.57 13.84 6.51zM71.18 90.37l.3-6.36 3.14-10.54c.16-.52.7-.83 1.22-.68 4.21 1.18 22.32 5.69 48.55 4.24.49-.03.93.3 1.04.78.54 2.43 2.47 9.48 7.15 11.91l4.93 5.01.96-8.14s7.74-52.34-35.53-49.72-31.76 53.5-31.76 53.5z" fill="#6d4c41"/><path d="M80.83 84.72c-.37.03-.69.95-.44 2.59.3 1.99 1.59 3.54 2.81 4.21 1.52.84 4.58 1.52 7.11-.08 2.91-1.84 2.16-3.5 1.12-3.18-1.05.33-2.95.65-4.5.48-1.6-.18-3.31-1.04-4.38-2.12-.79-.8-1.32-1.94-1.72-1.9zM103.86 85.09c-.37.06-.62.99-.27 2.61.42 1.96 1.82 3.43 3.08 4.02 1.57.74 4.67 1.21 7.09-.55 2.78-2.02 1.92-3.64.91-3.25-1.03.4-2.91.84-4.46.77-1.61-.07-3.37-.82-4.51-1.83-.84-.74-1.44-1.83-1.84-1.77z" fill="#444"/><path d="M94.22 94.74c1.43.56 2.4.65 3.55.65 1.14 0 2.12-.09 3.54-.65.61-.24 1.27.35 1.13.91-.43 1.83-2.27 3.33-4.68 3.33-2.4 0-4.3-1.57-4.68-3.33-.11-.56.53-1.15 1.14-.91zM26.15 94.23c1.41.56 2.38.64 3.51.64s2.1-.09 3.51-.64c.6-.24 1.25.35 1.12.9-.43 1.81-2.25 3.3-4.63 3.3s-4.26-1.56-4.63-3.3c-.12-.55.51-1.13 1.12-.9z" fill="#e48c15"/><path d="M45.4 84.57c.37.05.64.97.32 2.58-.39 1.95-1.74 3.43-2.97 4.03-1.54.76-4.6 1.29-7.03-.41-2.79-1.95-1.97-3.57-.96-3.2 1.03.38 2.89.78 4.43.68 1.59-.1 3.32-.87 4.43-1.89.81-.75 1.38-1.84 1.78-1.79zM22.45 84.71c.37.06.61.98.25 2.59-.43 1.94-1.83 3.38-3.07 3.96-1.56.72-4.63 1.17-7.02-.59-2.74-2.02-1.88-3.62-.88-3.22 1.02.4 2.87.85 4.41.79 1.6-.06 3.34-.79 4.48-1.78.83-.73 1.44-1.81 1.83-1.75z" fill="#444"/><g><path d="M34.35 34.89c5.88 8.75 16.35 17.82 23.9 24.87.81.75 1.6 1.56 2.42 2.32.87.81 1.93 2.65 3.33 2.73 1.41-.08 2.46-1.93 3.33-2.73.82-.76 1.62-1.57 2.43-2.32 7.55-7.04 18.02-16.12 23.89-24.87 1.76-2.61 3.05-5.42 3.58-8.53.52-3.12.5-7.59-.78-10.56-3.01-7.02-8.14-11.03-15.17-10.99-.26.01-.52.01-.78.02-2.76.05-5.43.66-7.96 1.72-2.71 1.14-4.57 2.85-6.98 4.38-.91.58-2.21.57-3.11 0-2.41-1.53-4.26-3.24-6.98-4.38-2.53-1.05-5.21-1.67-7.96-1.72-.26-.01-.53-.01-.78-.02-7.05-.04-12.17 3.97-15.17 10.99-1.27 2.97-1.3 7.44-.78 10.56.52 3.1 1.83 5.91 3.57 8.53z" fill="#f06292"/></g><g><path d="M97.08 103.44c-.26.3-.85.38-1.45.45-.99.11-2.4.14-3.05 1.02-.52.72-.43 1.78-.01 2.42.64.97 1.76.86 2.81 1.25.27.1.42.4.39.67-.01.1-.05.2-.13.29-.35.33-.88.33-1.33.37-.46.04-1.1.12-1.48.48-.69.65-.66 1.6-.13 2.27.71.9 2.37 1.14 3.15 1.75.41.32.94.79.77 1.55-.2.87-1.57 1.18-2.59.08-.95-1.01-2.66-1.52-3.35-2.73-.72-1.26-.47-2.55.34-3.77.38-.59-.28-1.44-.51-2.23-.21-.73-.23-1.41-.02-2.15.59-2.3 2.97-2.33 4.84-3.09.43-.17 1.05-.22 1.52.01.38.2.64.88.23 1.36z" fill="#444"/></g><g><path d="M30.35 103.44c.26.3.85.38 1.45.45.99.11 2.4.14 3.05 1.02.52.72.43 1.78.01 2.42-.64.97-1.76.86-2.81 1.25-.27.1-.42.4-.39.67.01.1.05.2.13.29.35.33.88.33 1.33.37.46.04 1.1.12 1.48.48.69.65.66 1.6.13 2.27-.71.9-2.37 1.14-3.15 1.75-.41.32-.94.79-.77 1.55.2.87 1.57 1.18 2.59.08.95-1.01 2.66-1.52 3.35-2.73.72-1.26.47-2.55-.34-3.77-.38-.59.28-1.44.51-2.23.21-.73.23-1.41.02-2.15-.59-2.3-2.97-2.33-4.84-3.09-.43-.17-1.05-.22-1.52.01-.38.2-.64.88-.23 1.36z" fill="#444"/></g></svg>