<svg xmlns="http://www.w3.org/2000/svg" viewBox="0 0 128 128"><path d="M98.59 51.16c-4.23.92-7.88 3.28-9.59 7.35-1.03 2.47-2.47 8.85-6.42 7.2-1.89-.78-1.86-3.49-1.64-5.18.47-3.47 2.03-6.64 3.1-9.94 1.1-3.42 2.05-6.86 2.73-10.4 2.28-11.72 1.65-25.22-6.64-34.59C78.73 4 75.2.3 72.87.22c-1.44-.04-.02 1.66.38 2.23.81 1.17 1.49 2.44 2.01 3.77 6.13 15.64-8.98 27.55-18.91 36.82-4.76 4.45-8.56 9.17-11.98 14.68-.34.53-1.09 2.31-2.06 1.94-1.15-.44-1.27-3.07-1.63-4.05-.68-1.88-1.73-3.93-3.08-5.4-2.61-2.86-6.26-4.79-10.21-4.53-.15.01-.58.08-1.11.2-.83.18-3.05.47-2.45 1.81.31.69 1.22.63 1.87.82 8.34 2.56 8.15 11.3 6.8 18.32-2.44 12.78-9.2 24.86-4.4 38 5.66 15.49 23.38 25.16 39.46 22.5 4.39-.72 9.45-2.14 13.39-4.26 4.19-2.26 8.78-5.35 12.05-8.83 4.21-4.47 6.89-10.2 7.68-16.27.93-7.02-1.31-13.64-3.35-20.27-2.46-8-5.29-21.06 4.93-24.97.5-.2 1.5-.35 1.85-.88 1.3-1.94-4.94-.81-5.52-.69z" fill="#ed6c30"/><path d="M68.13 106.07c2.12 1.78 5.09.91 7.09-.61 1.07-.81 1.99-1.85 2.59-3.06.25-.52.54-1.18.54-1.77 0-.79-.47-1.57-.27-2.38 1.68-.33 3.76 4.5 3.97 5.62 1.68 8.83-6.64 16.11-14.67 17.52-13.55 2.37-21.34-9.5-19.78-20.04.97-6.56 5.37-11.07 9.85-15.57 3.71-3.73 7.15-6.93 8.35-11.78.21-.86.16-2.18-.09-3.03-.21-.73-.61-1.4-.63-2.19-.06-1.66 1.55.51 1.92.93 4.46 5.03 5.73 12.46 4.54 18.96-.77 4.2-3.77 7.2-4.82 11.22-.61 2.29-.55 4.52 1.41 6.18z" fill="#fcc21b"/></svg>