<?xml version="1.0" encoding="utf-8"?>
<!-- Generator: Adobe Illustrator 16.0.0, SVG Export Plug-In . SVG Version: 6.00 Build 0)  -->
<!DOCTYPE svg PUBLIC "-//W3C//DTD SVG 1.1//EN" "http://www.w3.org/Graphics/SVG/1.1/DTD/svg11.dtd">
<svg version="1.1" id="レイヤー_1" xmlns="http://www.w3.org/2000/svg" xmlns:xlink="http://www.w3.org/1999/xlink" x="0px"
	 y="0px" width="128px" height="128px" viewBox="0 0 128 128" enable-background="new 0 0 128 128" xml:space="preserve">
<g>
	<g>
		<g>
			<path fill="#D7598B" d="M125.48,32.82c-5.92-13.85-15.98-21.17-29.3-21.17l-0.32,0.01c-0.39,0-0.78,0-1.15,0.02
				c-5.1,0.08-10.23,1.19-15.26,3.29c-3.52,1.48-6.21,3.4-9.07,5.43c-1.32,0.94-2.65,1.89-4.09,2.8c-1.28,0.82-3.31,0.81-4.58,0
				c-1.45-0.91-2.78-1.87-4.1-2.8c-2.85-2.04-5.54-3.96-9.07-5.43c-5.02-2.11-10.15-3.21-15.24-3.29c-0.39-0.02-0.78-0.02-1.17-0.02
				l-0.52-0.01c-13.12,0-23.17,7.32-29.09,21.16C0.07,38.51-0.01,47.12,1,53.12c0.92,5.52,3.16,10.86,6.84,16.34
				c6.8,10.13,16.94,17,26.75,23.65c6.15,4.17,12.51,8.47,17.92,13.51c0.68,0.64,1.36,1.3,2.04,1.97c0.82,0.79,1.64,1.59,2.48,2.36
				c0.42,0.39,0.86,0.91,1.33,1.47c1.42,1.69,3.2,3.79,5.57,3.93H64h0.07c2.38-0.14,4.15-2.24,5.57-3.92
				c0.48-0.57,0.92-1.09,1.34-1.48c0.84-0.77,1.66-1.57,2.48-2.36c0.68-0.66,1.36-1.33,2.04-1.97c5.41-5.04,11.77-9.35,17.92-13.51
				c9.81-6.65,19.95-13.51,26.76-23.65c3.67-5.47,5.91-10.81,6.84-16.34C128.01,47.12,127.93,38.51,125.48,32.82z"/>
		</g>
		<path fill="#FFFFFF" d="M36.47,24.77c1.3,2.77-2.61,4.67-6.76,9.13c-3.27,3.52-4.19,8.5-5.5,11.16c-1.98,3.99-5.61,4.84-8.63,3.9
			c-1.91-0.6-3.27-2.24-4.04-4.6c-1.35-4.16,0.19-10.9,5.91-16.17C24.99,21.25,34.94,21.5,36.47,24.77z"/>
		<path fill="#FFFFFF" d="M74.88,36.87c2.36,0.43,3.48-1.18,4.77-2.39c1.11-0.89,3.53-3.88,5.61-6.11c3.87-3.72,6.44-5.93,4.22-6.91
			c-3.46,0.19-12.67,3.65-16.03,8.85C70.97,33.26,72.68,36.31,74.88,36.87z"/>
	</g>
	<path fill="#FFFFFF" d="M86.95,79.19c0,0-10.95,7.55-15.35,13.28c0,0-2.84,4.01-0.29,5.26c2.55,1.25,4.86-2.17,8.04-4.81
		c3.18-2.64,9.78-6.82,12.1-9.38C93.75,80.98,92.44,75.23,86.95,79.19z"/>
	<path fill="#FFFFFF" d="M98.66,70.11c-1.83,1.12-3.2,3.06-2.37,4.79c1.38,2.85,4.43,1.87,6.21,0.03c0.83-0.87,1.34-2.37,0.45-4.07
		C102.35,69.71,100.09,69.22,98.66,70.11z"/>
</g>
</svg>
