<svg enable-background="new 0 0 128 128" viewBox="0 0 128 128" xmlns="http://www.w3.org/2000/svg"><path d="M61.53,78.36h0.77c5.55,0,10.05-4.5,10.05-10.05V29.99c0-5.69-4.65-10.34-10.34-10.34H42.09 c-5.59,0-10.17,4.58-10.17,10.17v20.49c0,2.13-1.73,3.86-3.86,3.86h-7.67c-2.13,0-3.86-1.73-3.86-3.86V29.99 c0-14.15,11.58-25.74,25.74-25.74H62.3c14.05,0,25.45,11.39,25.45,25.45v38.38c0,14.12-11.55,25.68-25.68,25.68h-0.54V78.36z" fill="#BDBDBD"/><g opacity=".2"><path d="m62.3 7.26c12.38 0 22.45 10.07 22.45 22.45v38.38c0 11.67-8.87 21.31-20.22 22.54v-9.46c6.14-1.06 10.82-6.42 10.82-12.86v-38.32c0-7.35-5.98-13.34-13.34-13.34h-19.92c-7.26 0-13.17 5.91-13.17 13.17v20.49c0 0.48-0.39 0.86-0.86 0.86h-7.67c-0.48 0-0.86-0.39-0.86-0.86v-20.32c0-12.54 10.2-22.74 22.74-22.74h20.03m0-2.99h-20.04c-14.15 0-25.74 11.58-25.74 25.74v20.33c0 2.13 1.73 3.86 3.86 3.86h7.67c2.13 0 3.86-1.73 3.86-3.86v-20.5c0-5.59 4.58-10.17 10.17-10.17h19.91c5.69 0 10.34 4.65 10.34 10.34v38.32c0 5.55-4.5 10.05-10.05 10.05h-0.77v15.4h0.54c14.12 0 25.68-11.55 25.68-25.68v-38.38c0.02-14.06-11.38-25.45-25.43-25.45z" fill="#424242"/></g><linearGradient id="b" x1="52.136" x2="52.136" y1="123.21" y2="50.192" gradientUnits="userSpaceOnUse"><stop stop-color="#FFA000" offset=".0053611"/><stop stop-color="#FFC107" offset="1"/></linearGradient><path d="m91.02 123.54h-77.77c-4 0-7.25-3.25-7.25-7.25v-59.1c0-4 3.25-7.25 7.25-7.25h77.78c4 0 7.25 3.25 7.25 7.25v59.1c-0.01 4.01-3.25 7.25-7.26 7.25z" fill="url(#b)"/><g opacity=".2"><path d="m91.02 52.94c2.34 0 4.25 1.91 4.25 4.25v59.1c0 2.34-1.91 4.25-4.25 4.25h-77.77c-2.34 0-4.25-1.91-4.25-4.25v-59.1c0-2.34 1.91-4.25 4.25-4.25h77.77m0-3h-77.77c-4 0-7.25 3.25-7.25 7.25v59.1c0 4 3.25 7.25 7.25 7.25h77.78c4 0 7.25-3.25 7.25-7.25v-59.1c-0.01-4-3.25-7.25-7.26-7.25z" fill="#424242"/></g><linearGradient id="a" x1="83.896" x2="83.896" y1="160.95" y2="49.395" gradientTransform="matrix(1.0752 .009202 .009202 1.0752 7.6983 -49.394)" gradientUnits="userSpaceOnUse"><stop stop-color="#E67716" offset="0"/><stop stop-color="#ED9500" offset=".9982"/></linearGradient><path d="m102 124.69 10.33-17.25c0.22-0.37 0.21-0.84-0.04-1.21l-5.76-8.6c-0.3-0.45-0.25-1.04 0.12-1.41l5.11-5.22c0.38-0.38 0.42-0.99 0.11-1.44l-5.62-8.01c-0.32-0.45-0.27-1.06 0.12-1.44l5.45-5.43c0.34-0.34 0.42-0.87 0.2-1.31l-6.26-12.23-0.11-5.87c11.36-3.07 19.5-13.73 18.69-26.29-0.86-13.4-12.1-24.24-25.51-24.65-14.56-0.43-26.21 11.2-26.09 25.7 0.1 11.66 7.52 21.58 18.67 24.93l0.47 54.76c0 0.19 0.05 0.38 0.15 0.55l8.02 14.37c0.42 0.76 1.51 0.79 1.95 0.05zm-3.47-91.18c-5.4-0.05-9.81-4.46-9.86-9.86s4.29-9.74 9.69-9.69 9.81 4.46 9.86 9.86-4.29 9.74-9.69 9.69z" fill="url(#a)"/><g opacity=".2"><path d="m98.05 6.33c0.25 0 0.49 0 0.74 0.01 12.42 0.37 22.78 10.38 23.58 22.77 0.73 11.33-6.35 21.29-17.22 24.23-0.89 0.24-1.49 1.05-1.48 1.97l0.11 5.87c0.01 0.3 0.08 0.6 0.22 0.88l5.97 11.66-5 4.97c-1.08 1.07-1.22 2.76-0.34 4.01l5.21 7.42-4.6 4.69c-1.03 1.05-1.18 2.7-0.36 3.93l5.45 8.15-9.26 15.47-7.19-12.88-0.47-54.53c-0.01-0.88-0.58-1.65-1.42-1.9-10.39-3.12-17.16-12.16-17.25-23.04-0.05-6.4 2.35-12.38 6.78-16.84 4.37-4.41 10.24-6.84 16.53-6.84m0.56 29.18c3.13 0 6.06-1.22 8.25-3.43s3.38-5.15 3.36-8.28c-0.06-6.47-5.37-11.79-11.84-11.84h-0.1c-3.13 0-6.06 1.22-8.25 3.43s-3.38 5.15-3.35 8.28c0.06 6.47 5.37 11.79 11.84 11.84h0.09m-0.56-31.18c-14.21 0-25.43 11.46-25.31 25.7 0.1 11.66 7.52 21.58 18.67 24.93l0.47 54.76c0 0.19 0.05 0.38 0.15 0.55l8.02 14.37c0.22 0.39 0.61 0.59 1 0.59 0.37 0 0.74-0.18 0.95-0.54l10.33-17.25c0.22-0.37 0.21-0.84-0.04-1.21l-5.76-8.6c-0.3-0.45-0.25-1.04 0.12-1.41l5.11-5.22c0.38-0.38 0.42-0.99 0.11-1.44l-5.62-8.01c-0.32-0.45-0.27-1.06 0.12-1.44l5.45-5.43c0.34-0.34 0.42-0.87 0.2-1.31l-6.26-12.23-0.11-5.87c11.36-3.07 19.5-13.73 18.69-26.29-0.86-13.4-12.1-24.24-25.51-24.65-0.25 0.01-0.51 0-0.78 0zm0.56 29.18h-0.09c-5.4-0.05-9.81-4.46-9.86-9.86-0.05-5.37 4.25-9.69 9.61-9.69h0.09c5.4 0.05 9.81 4.46 9.86 9.86 0.04 5.37-4.25 9.69-9.61 9.69z" fill="#424242"/></g></svg>
