<svg enable-background="new 0 0 128 128" viewBox="0 0 128 128" xmlns="http://www.w3.org/2000/svg"><radialGradient id="e" cx="51.77" cy="31.401" r="87.039" gradientTransform="matrix(-.0021809 1 -.7873 -.001717 76.604 -20.315)" gradientUnits="userSpaceOnUse"><stop stop-color="#A56C43" offset=".6"/><stop stop-color="#8D5738" offset="1"/></radialGradient><path d="m85.52 121.67c-8.63-0.07-21.58-0.41-34.32-1.61-8.77-0.83-17.83-2.14-24.71-6.04-1.94-1.1-4.06-1.37-5.94-1.6-0.8-0.1-1.55-0.19-2.19-0.34-4.88-1.15-8.29-5.37-8.31-10.26l-0.07-32.75c-0.01-4.53 3.22-8.32 7.69-9.02 0.08-0.01 0.15-0.03 0.23-0.05 0.55-0.18 13.69-4.46 23.59-12.2 4.66-3.64 8.65-9.25 10.68-15 2.02-5.73 2.01-11.98 2-17 0-3.24-0.01-7.27 0.87-7.86 2.14-1.41 4.5-2.13 7.01-2.13 7.72 0 15.6 7.05 15.91 14.23 0.22 4.98-1.45 10.86-3.06 16.54-1.9 6.73-3.55 12.54-2.06 16.49 0.22 0.59 0.78 0.97 1.4 0.97 0.02 0 7.29-0.25 7.29-0.25h0.07c8.16 0 14.8 6.64 14.81 14.79l0.05 42.21c0 2.91-1.12 5.64-3.18 7.69-2.05 2.05-4.78 3.19-7.69 3.19h-0.07z" fill="url(#e)"/><path d="m62.05 7.31c6.86 0 14.13 6.46 14.41 12.79 0.21 4.74-1.42 10.5-3 16.07-1.98 6.98-3.68 13.01-2.02 17.42 0.44 1.17 1.56 1.94 2.81 1.94h0.11l7.2-0.25h0.06c7.33 0 13.3 5.96 13.31 13.3l0.05 42.21c0 2.5-0.97 4.86-2.74 6.63s-4.12 2.75-6.63 2.75h-0.08c-8.6-0.07-21.51-0.41-34.19-1.6-8.6-0.81-17.48-2.09-24.11-5.85-2.2-1.25-4.58-1.54-6.49-1.78-0.76-0.09-1.47-0.18-2.03-0.32-4.2-0.99-7.14-4.61-7.15-8.8l-0.08-32.75c-0.01-3.78 2.69-6.95 6.42-7.53 0.15-0.02 0.31-0.06 0.45-0.11 0.56-0.18 13.94-4.55 24.05-12.45 4.87-3.81 9.05-9.67 11.17-15.68 2.11-5.97 2.1-12.36 2.09-17.5 0-2.44-0.01-5.74 0.41-6.74 1.84-1.17 3.85-1.75 5.98-1.75m0-3c-2.65 0-5.33 0.72-7.84 2.38-3.24 2.14 0.27 15.02-3.46 25.6-2.24 6.35-6.51 11.45-10.19 14.32-9.8 7.66-23.12 11.96-23.12 11.96-5.17 0.81-8.97 5.27-8.96 10.51l0.08 32.75c0.02 5.64 3.97 10.41 9.46 11.71 2.22 0.52 5.25 0.38 7.73 1.79 6.63 3.76 15.13 5.26 25.31 6.22 12.6 1.19 25.4 1.54 34.45 1.62h0.1c6.83 0 12.38-5.54 12.37-12.38l-0.05-42.21c-0.01-9.01-7.32-16.29-16.31-16.29h-0.12l-7.24 0.25c-2.5-6.64 5.69-21.58 5.21-32.57-0.35-7.81-8.68-15.66-17.42-15.66z" fill="#875334"/><path d="m66.12 62.5c1.88 5 1.9 12.8 0 17.62-2.75 6.96-9.48 13.05-17.25 14.12-1.9 0.26-0.77 2.01 1.12 1.75 8.41-1.16 19.79-4.57 22.75-12.12 8.12-20.75-1.38-31.62-5.62-28.38-2.04 1.58-2.06 4.18-1 7.01z" fill="#875334"/><radialGradient id="d" cx="2212.3" cy="-509.42" r="20.331" gradientTransform="matrix(-1.3883 .0794 -.0374 -.6794 3155.2 -463.04)" gradientUnits="userSpaceOnUse"><stop stop-color="#A56C43" offset=".5"/><stop stop-color="#8D5738" offset=".9991"/></radialGradient><path d="m86.28 69.92c-8.36 0-18.41-1.55-18.84-8.96-0.12-2.12 0.52-3.9 1.96-5.43 3.79-4.02 13.1-6.23 26.22-6.23 4.76 0 8.23 0.31 8.27 0.31s0.09 0.01 0.13 0.01h0.09c0.14-0.01 0.27-0.01 0.41-0.01 4.25 0 7.8 3.83 8.09 8.72 0.3 5.06-3.03 9.38-7.42 9.63-0.07 0-0.15 0.01-0.22 0.03-0.09 0.01-9.35 1.93-18.69 1.93z" fill="url(#d)"/><path d="m95.63 50.8c4.68 0 8.1 0.3 8.13 0.3 0.09 0.01 0.18 0.01 0.27 0.01 0.06 0 0.12 0 0.17-0.01 0.11-0.01 0.22-0.01 0.32-0.01 3.45 0 6.35 3.21 6.59 7.3 0.25 4.23-2.45 7.84-6.01 8.05-0.15 0.01-0.3 0.03-0.44 0.06-0.09 0.02-9.22 1.91-18.38 1.91-5.32 0-9.54-0.62-12.53-1.84-4.11-1.68-4.72-4.06-4.81-5.7-0.1-1.71 0.4-3.08 1.56-4.32 3.45-3.65 12.61-5.75 25.13-5.75m0-3c-11.42 0-30.36 1.73-29.69 13.25 0.49 8.32 10.53 10.37 20.34 10.37 9.61 0 19-1.97 19-1.97 5.22-0.31 9.18-5.33 8.83-11.22-0.33-5.7-4.57-10.13-9.58-10.13-0.17 0-0.33 0-0.5 0.01 0 0-3.51-0.31-8.4-0.31z" fill="#875334"/><radialGradient id="c" cx="2292.2" cy="-664.7" r="18.753" gradientTransform="matrix(-1.6967 -.001885 .0029132 -.6804 3998.6 -369.83)" gradientUnits="userSpaceOnUse"><stop stop-color="#A56C43" offset=".5"/><stop stop-color="#8D5738" offset=".9991"/></radialGradient><path d="m92.55 88.95c-10.91 0-23.91-1.83-23.91-10.57s13-10.57 23.91-10.57c9.25 0 17.68 1.35 17.76 1.36s0.16 0.02 0.24 0.02c4.41 0 7.48 4.66 7.48 8.84 0 4.41-3.27 9.53-7.48 9.53-0.08 0-0.16 0.01-0.24 0.02-0.09 0.02-8.52 1.37-17.76 1.37z" fill="url(#c)"/><path d="m92.55 69.32c9.12 0 17.44 1.33 17.52 1.34 0.16 0.03 0.32 0.04 0.48 0.04 3.42 0 5.98 3.88 5.98 7.34 0 3.61-2.76 8.03-5.98 8.03-0.16 0-0.32 0.01-0.48 0.04-0.08 0.01-8.41 1.34-17.52 1.34-6.83 0-12.26-0.72-16.15-2.15-5.61-2.06-6.26-4.94-6.26-6.92 0-1.99 0.65-4.86 6.26-6.92 3.88-1.42 9.32-2.14 16.15-2.14m0-3c-11.93 0-25.41 2.19-25.41 12.07s13.47 12.07 25.41 12.07c9.49 0 18-1.38 18-1.38 5.16 0 8.98-5.91 8.98-11.03s-3.82-10.34-8.98-10.34c0-0.01-8.52-1.39-18-1.39z" fill="#875334"/><radialGradient id="b" cx="2335.2" cy="-522.97" r="20.446" gradientTransform="matrix(-1.3069 -.0062595 .0045215 -.6804 3155.6 -228.63)" gradientUnits="userSpaceOnUse"><stop stop-color="#A56C43" offset=".5"/><stop stop-color="#8D5738" offset=".9991"/></radialGradient><path d="m100.86 122.19c-4.21 0-25.54-0.33-32-6.8-1.13-1.13-1.67-2.35-1.67-3.73 0.02-5.25 9.01-8.26 24.66-8.26 5.58 0 9.9 0.4 9.95 0.4 0.04 0 0.09 0.01 0.13 0.01 2.34 0.01 4.55 0.96 6.2 2.69 1.67 1.74 2.58 4.06 2.58 6.52-0.02 5.05-3.97 9.15-8.81 9.15-0.07 0.02-0.42 0.02-1.04 0.02z" fill="url(#b)"/><path d="m91.86 104.91c5.49 0 9.76 0.39 9.8 0.4 0.09 0.01 0.18 0.01 0.27 0.01 1.93 0.01 3.75 0.8 5.12 2.23 1.4 1.46 2.17 3.41 2.16 5.48-0.01 4.22-3.29 7.66-7.34 7.66h-0.01-0.06c-0.02 0-0.36 0.01-0.95 0.01-18.15 0-28.01-3.43-30.93-6.36-1.11-1.11-1.23-2.05-1.23-2.66 0.02-4.18 8.89-6.77 23.17-6.77m0-3c-10.72 0-26.14 1.44-26.16 9.75-0.04 11.46 29.3 12.03 35.16 12.03 0.65 0 1.01-0.01 1.01-0.01h0.03c5.68 0 10.29-4.76 10.31-10.65 0.02-5.9-4.58-10.7-10.27-10.72 0 0.01-4.37-0.4-10.08-0.4z" fill="#875334"/><radialGradient id="a" cx="2313.2" cy="-647.68" r="18.611" gradientTransform="matrix(-1.6358 -.001885 .0028087 -.6804 3890.8 -340.04)" gradientUnits="userSpaceOnUse"><stop stop-color="#A56C43" offset=".5"/><stop stop-color="#8D5738" offset=".9991"/></radialGradient><path d="m97.12 106.32c-8.99 0-29.89-1.02-29.89-10.47 0-7.94 15.07-9.12 24.06-9.12 7.95 0 14.8 0.88 14.87 0.89 0.06 0.01 0.13 0.01 0.19 0.01 4.17 0 9.03 2.06 9.03 7.87 0 5.5-4.3 10.5-9.03 10.5h-0.12c-0.04 0.01-3.89 0.32-9.11 0.32z" fill="url(#a)"/><path d="m91.29 85.24v3c7.83 0 14.61 0.87 14.67 0.88 0.13 0.02 0.26 0.02 0.39 0.02 3.64 0 7.53 1.67 7.53 6.37 0 4.63-3.66 9-7.53 9-0.08 0-0.16 0-0.25 0.01-0.04 0-3.83 0.31-8.99 0.31-5.45 0-13.24-0.35-19.41-1.99-5.95-1.59-8.97-3.94-8.97-6.97 0-0.93 0-3.76 6.34-5.75 3.95-1.24 9.4-1.87 16.21-1.87l0.01-3.01m0 0c-11.56 0-25.56 1.82-25.56 10.62 0 10.37 19.4 11.97 31.39 11.97 5.36 0 9.23-0.32 9.23-0.32 5.64 0 10.53-5.83 10.53-12s-4.89-9.37-10.53-9.37c0 0-6.93-0.9-15.06-0.9z" fill="#875334"/><polygon points="27.79 114.9 23 96 21 113" fill="#875334"/></svg>
