<svg enable-background="new 0 0 128 128" viewBox="0 0 128 128" xmlns="http://www.w3.org/2000/svg" xmlns:xlink="http://www.w3.org/1999/xlink"><path d="m23.99 122.09c-3.65 0-6.81-2.6-7.53-6.18-0.54-2.67 0.4-5.45 2.45-7.27 0.06-0.05 0.11-0.1 0.16-0.16 0.05-0.03 0.11-0.07 0.14-0.1 0.06-0.03 0.04-0.02 0.09-0.06 0.24-0.19 0.5-0.36 0.77-0.52 0.05-0.03 0.11-0.07 0.16-0.11 2.7-2.12 4.69-5.67 5.48-9.77 0.03-0.09 0.05-0.18 0.07-0.27 0.47-3.21 2.92-5.79 6.09-6.42 0.5-0.1 1.02-0.15 1.52-0.15 2.82 0 5.41 1.55 6.76 4.04 0.02 0.04 0.04 0.07 0.06 0.1 2.63 4.05 5.8 6.35 9.43 6.84h0.03c0.06 0.02 0.12 0.04 0.18 0.05 2.91 0.7 5.16 3.04 5.75 5.96 0.83 4.16-1.87 8.22-6.03 9.06-0.54 0.11-1.1 0.16-1.69 0.16-1.77 0-3.53-0.48-5.24-0.94-1.6-0.43-3.12-0.84-4.57-0.84-0.46 0-0.89 0.04-1.3 0.12-1.87 0.38-3.61 1.68-5.45 3.06-1.03 0.77-2.09 1.57-3.17 2.2-0.85 0.53-1.71 0.87-2.61 1.05-0.53 0.1-1.04 0.15-1.55 0.15zm-10.7-17.82c-2.47 0-5.36-2.88-6.7-6.7-1.57-4.45-0.72-8.99 1.85-9.9 0.3-0.11 0.62-0.16 0.95-0.16 2.47 0 5.35 2.88 6.7 6.7 1.57 4.46 0.73 8.99-1.85 9.9-0.31 0.11-0.62 0.16-0.95 0.16zm41.65-8.35c-2.65 0-5.11-3.86-5.37-8.42-0.27-4.72 1.81-8.83 4.54-8.99h0.15c2.65 0 5.11 3.86 5.37 8.42 0.27 4.72-1.81 8.83-4.54 8.99h-0.15zm-33.73-8.24c-2.47 0-5.36-2.88-6.7-6.7-1.57-4.45-0.73-8.99 1.85-9.9 0.3-0.11 0.62-0.16 0.95-0.16 2.47 0 5.35 2.88 6.7 6.7 1.57 4.45 0.73 8.99-1.85 9.9-0.3 0.11-0.62 0.16-0.95 0.16zm17.62-3.53c-2.65 0-5.11-3.86-5.37-8.42-0.27-4.72 1.81-8.83 4.54-8.99h0.15c2.65 0 5.11 3.86 5.37 8.42 0.27 4.72-1.81 8.83-4.54 8.99h-0.15z" fill="#E53935"/><path d="m38.15 68.24c1.42 0 3.63 2.73 3.87 7 0.25 4.4-1.68 7.33-3.12 7.41h-0.07c-1.42 0-3.63-2.73-3.87-7.01-0.25-4.4 1.68-7.32 3.12-7.41l0.07 0.01m-20.84 4.19c1.58 0 4.05 2.18 5.29 5.7 1.47 4.15 0.43 7.5-0.93 7.98-0.14 0.05-0.29 0.07-0.45 0.07-1.58 0-4.05-2.18-5.29-5.7-1.47-4.15-0.43-7.5 0.93-7.98 0.14-0.05 0.28-0.07 0.45-0.07m36.95 7.58c1.42 0 3.63 2.73 3.87 7.01 0.25 4.4-1.68 7.32-3.12 7.4h-0.07c-1.42 0-3.63-2.73-3.87-7.01-0.25-4.4 1.68-7.32 3.12-7.41l0.07 0.01m-44.88 9.01c1.58 0 4.05 2.18 5.29 5.7 1.47 4.15 0.42 7.5-0.93 7.98-0.14 0.05-0.29 0.07-0.45 0.07-1.58 0-4.05-2.18-5.29-5.7-1.47-4.15-0.42-7.5 0.93-7.98 0.14-0.05 0.29-0.07 0.45-0.07m24 3.55c2.27 0 4.36 1.24 5.44 3.25l0.18 0.3c3.51 5.36 7.51 6.99 10.31 7.4 0.06 0.02 0.11 0.03 0.17 0.05 2.34 0.56 4.16 2.44 4.63 4.79 0.67 3.35-1.51 6.62-4.85 7.29-0.44 0.09-0.9 0.13-1.4 0.13-1.57 0-3.24-0.45-4.85-0.89-1.63-0.44-3.31-0.89-4.96-0.89-0.55 0-1.09 0.05-1.59 0.15-2.21 0.44-4.16 1.91-6.05 3.33-0.99 0.75-2.02 1.52-3.02 2.09-0.03 0.02-0.07 0.04-0.1 0.06-0.64 0.4-1.34 0.68-2.06 0.83-0.41 0.08-0.82 0.12-1.23 0.12-2.93 0-5.48-2.09-6.06-4.98-0.43-2.15 0.33-4.39 1.97-5.85 0.05-0.04 0.1-0.09 0.14-0.14 0.06-0.04 0.12-0.08 0.17-0.12 0.19-0.15 0.4-0.29 0.62-0.42 0.11-0.06 0.21-0.14 0.31-0.21 2.96-2.32 5.13-6.16 6-10.57 0.04-0.14 0.08-0.29 0.1-0.44 0.38-2.58 2.35-4.66 4.9-5.17 0.41-0.07 0.82-0.11 1.23-0.11m-13.3 17.03m18.07-44.36c-0.08 0-0.16 0-0.24 0.01-3.6 0.2-6.27 4.94-5.95 10.57 0.31 5.5 3.36 9.84 6.86 9.84 0.08 0 0.16 0 0.24-0.01 3.6-0.2 6.27-4.94 5.95-10.57-0.31-5.51-3.35-9.84-6.86-9.84zm-20.84 4.19c-0.49 0-0.98 0.08-1.45 0.24-3.4 1.2-4.64 6.49-2.76 11.81 1.62 4.59 5.03 7.7 8.12 7.7 0.49 0 0.98-0.08 1.45-0.24 3.4-1.2 4.64-6.49 2.76-11.81-1.63-4.59-5.03-7.7-8.12-7.7zm36.95 7.58c-0.08 0-0.16 0-0.24 0.01-3.6 0.2-6.27 4.94-5.95 10.57 0.31 5.51 3.36 9.84 6.87 9.84 0.08 0 0.16 0 0.24-0.01 3.6-0.21 6.27-4.94 5.95-10.57-0.32-5.51-3.36-9.84-6.87-9.84zm-44.88 9.01c-0.49 0-0.98 0.08-1.45 0.24-3.4 1.2-4.64 6.49-2.76 11.81 1.62 4.59 5.03 7.7 8.12 7.7 0.49 0 0.98-0.08 1.45-0.24 3.41-1.2 4.64-6.49 2.77-11.81-1.63-4.59-5.04-7.7-8.13-7.7zm24 3.55c-0.6 0-1.21 0.06-1.82 0.18-3.91 0.78-6.73 3.94-7.28 7.68h-0.02c-0.74 4.1-2.69 7.3-4.97 9.08-0.32 0.19-0.63 0.4-0.92 0.63-0.04 0.02-0.07 0.05-0.11 0.07-0.18 0.11-0.3 0.21-0.36 0.31-2.37 2.1-3.59 5.36-2.92 8.68 0.88 4.37 4.71 7.39 9 7.39 0.6 0 1.21-0.06 1.82-0.18 1.12-0.22 2.15-0.65 3.06-1.23 3.02-1.74 5.67-4.59 8.17-5.09 0.32-0.06 0.65-0.09 1-0.09 2.72 0 6.14 1.78 9.81 1.78 0.66 0 1.32-0.06 1.99-0.19 4.98-1 8.2-5.84 7.21-10.82-0.73-3.62-3.5-6.31-6.87-7.12-0.08-0.03-0.18-0.06-0.29-0.08h-0.02c-2.99-0.39-5.9-2.29-8.42-6.17-1.57-2.95-4.67-4.83-8.06-4.83z" fill="#AB1A1A"/><path d="m95.83 67.18c-0.57 0-1.15-0.06-1.71-0.17-1.02-0.21-1.99-0.59-2.88-1.16-1.25-0.72-2.43-1.61-3.57-2.46-2.02-1.52-3.92-2.95-5.95-3.35-0.44-0.09-0.91-0.13-1.4-0.13-1.59 0-3.25 0.45-5.01 0.92-1.89 0.51-3.85 1.04-5.83 1.04-0.67 0-1.29-0.06-1.9-0.18-4.68-0.94-7.72-5.51-6.78-10.19 0.66-3.29 3.2-5.92 6.46-6.7 0.07-0.02 0.13-0.04 0.2-0.06 3.98-0.52 7.46-3.03 10.35-7.49 0.02-0.03 0.04-0.07 0.06-0.1 1.51-2.8 4.42-4.54 7.6-4.54 0.57 0 1.15 0.06 1.71 0.17 3.57 0.72 6.32 3.62 6.85 7.23 0.02 0.1 0.04 0.2 0.07 0.29 0.87 4.5 3.04 8.39 5.99 10.7 0.05 0.04 0.1 0.07 0.16 0.11 0.31 0.18 0.6 0.38 0.86 0.59 0.04 0.03 0.26 0.18 0.27 0.18 0.05 0.07 0.11 0.13 0.17 0.18 2.3 2.04 3.35 5.17 2.75 8.17-0.81 4.03-4.37 6.95-8.47 6.95zm11.82-19.68c-0.38 0-0.75-0.06-1.1-0.18-2.92-1.03-3.9-6.13-2.14-11.13 1.54-4.35 4.71-7.5 7.55-7.5 0.38 0 0.75 0.06 1.1 0.18 2.92 1.03 3.9 6.13 2.14 11.13-1.53 4.34-4.7 7.5-7.55 7.5 0 0 0.01 0 0 0zm-40.18-2.77c0.02 0 0.04-0.01 0.06-0.01l-0.08 0.01h0.02zm-5.99-6.45c-3.09-0.18-5.46-4.8-5.16-10.09 0.29-5.21 3.02-9.45 6.08-9.45h0.18c3.1 0.18 5.46 4.8 5.16 10.09-0.3 5.21-3.03 9.45-6.08 9.45h-0.18zm37.42-9.1c-0.38 0-0.75-0.06-1.1-0.18-2.92-1.03-3.9-6.13-2.14-11.13 1.54-4.35 4.71-7.5 7.55-7.5 0.38 0 0.75 0.06 1.1 0.18 2.92 1.03 3.9 6.13 2.14 11.13-1.53 4.34-4.71 7.5-7.55 7.5zm-19.63-3.91c-3.1-0.18-5.46-4.8-5.16-10.09 0.29-5.21 3.02-9.45 6.08-9.45h0.18c3.1 0.18 5.46 4.8 5.16 10.09-0.3 5.21-3.02 9.45-6.08 9.45 0 0.01-0.12 0.01-0.18 0z" fill="#E53935"/><path d="m80.2 7.24h0.1c1.99 0.11 4.01 3.78 3.75 8.51-0.26 4.6-2.64 8.03-4.59 8.03h-0.1c-1.99-0.11-4.01-3.78-3.75-8.51 0.26-4.6 2.64-8.03 4.59-8.03m23.02 4.62c0.21 0 0.41 0.03 0.6 0.1 1.88 0.66 2.8 4.74 1.22 9.21-1.44 4.07-4.25 6.51-6.14 6.51-0.21 0-0.41-0.03-0.6-0.1-1.88-0.66-2.8-4.75-1.22-9.21 1.44-4.08 4.25-6.51 6.14-6.51m-40.82 8.38h0.1c1.99 0.11 4.01 3.78 3.75 8.51-0.26 4.6-2.64 8.03-4.59 8.03h-0.09c-1.99-0.11-4.01-3.78-3.75-8.51 0.26-4.6 2.63-8.03 4.58-8.03m49.57 9.94c0.21 0 0.41 0.03 0.6 0.1 1.88 0.66 2.8 4.75 1.22 9.21-1.44 4.07-4.25 6.51-6.14 6.51-0.21 0-0.41-0.03-0.6-0.1-1.88-0.66-2.8-4.75-1.22-9.21 1.44-4.07 4.25-6.51 6.14-6.51m-26.51 3.93c0.47 0 0.95 0.05 1.42 0.14 2.95 0.59 5.22 2.99 5.66 5.97 0.02 0.15 0.06 0.3 0.1 0.45 0.95 4.81 3.31 8.99 6.52 11.5 0.1 0.08 0.2 0.15 0.31 0.21 0.25 0.15 0.49 0.31 0.71 0.49 0.06 0.04 0.11 0.09 0.17 0.13 0.01 0.01 0.02 0.01 0.03 0.02 0.05 0.06 0.11 0.11 0.17 0.16 1.9 1.69 2.77 4.28 2.28 6.76-0.67 3.33-3.61 5.75-7 5.75-0.47 0-0.95-0.05-1.42-0.14-0.84-0.17-1.64-0.49-2.38-0.96-0.03-0.02-0.06-0.04-0.1-0.06-1.12-0.65-2.26-1.5-3.37-2.33-2.16-1.62-4.19-3.15-6.56-3.63-0.53-0.11-1.1-0.16-1.69-0.16-1.79 0-3.54 0.47-5.4 0.98-1.8 0.49-3.66 0.99-5.44 0.99-0.57 0-1.1-0.05-1.61-0.15-3.87-0.78-6.38-4.55-5.61-8.42 0.54-2.72 2.64-4.89 5.35-5.54 0.07-0.02 0.13-0.03 0.19-0.05 3.04-0.43 7.39-2.2 11.22-8.07 0.06-0.09 0.11-0.18 0.16-0.27 1.26-2.33 3.67-3.77 6.29-3.77m-5.26-29.87c-3.87 0-7.24 4.78-7.58 10.86-0.35 6.22 2.59 11.45 6.57 11.67 0.09 0.01 0.18 0.01 0.27 0.01 3.87 0 7.24-4.78 7.58-10.86 0.35-6.22-2.59-11.45-6.57-11.67-0.1-0.01-0.18-0.01-0.27-0.01zm23.02 4.62c-3.41 0-7.18 3.44-8.97 8.5-2.07 5.88-0.71 11.71 3.05 13.04 0.52 0.18 1.05 0.27 1.6 0.27 3.41 0 7.18-3.44 8.97-8.51 2.07-5.87 0.71-11.71-3.05-13.04-0.52-0.17-1.06-0.26-1.6-0.26zm-40.82 8.38c-3.87 0-7.24 4.78-7.58 10.86-0.35 6.22 2.59 11.45 6.57 11.67 0.09 0 0.18 0.01 0.26 0.01 3.87 0 7.24-4.78 7.58-10.86 0.35-6.22-2.59-11.45-6.57-11.67-0.08-0.01-0.17-0.01-0.26-0.01zm49.57 9.94c-3.41 0-7.18 3.44-8.97 8.51-2.07 5.88-0.71 11.71 3.05 13.04 0.52 0.18 1.05 0.27 1.6 0.27 3.41 0 7.18-3.44 8.97-8.51 2.08-5.88 0.71-11.71-3.05-13.04-0.52-0.18-1.05-0.27-1.6-0.27zm-26.51 3.93c-3.74 0-7.17 2.08-8.92 5.33-2.78 4.29-5.99 6.39-9.3 6.82-0.01 0-0.01 0-0.02 0.01-0.13 0.02-0.24 0.05-0.32 0.08-3.72 0.9-6.78 3.86-7.58 7.87-1.1 5.5 2.46 10.85 7.96 11.95 0.74 0.15 1.47 0.21 2.2 0.21 4.05 0 7.84-1.97 10.84-1.97 0.38 0 0.75 0.03 1.1 0.1 2.76 0.55 5.68 3.7 9.02 5.62 1.01 0.63 2.15 1.11 3.38 1.36 0.67 0.14 1.35 0.2 2.01 0.2 4.74 0 8.98-3.33 9.94-8.16 0.74-3.67-0.61-7.27-3.23-9.59-0.07-0.12-0.2-0.23-0.4-0.35-0.04-0.02-0.08-0.06-0.12-0.08-0.32-0.25-0.66-0.48-1.01-0.69-2.52-1.97-4.67-5.5-5.49-10.03h-0.02c-0.61-4.12-3.72-7.61-8.04-8.48-0.66-0.14-1.33-0.2-2-0.2z" fill="#AB1A1A"/><g display="none"><g display="inline"><g opacity=".6"><circle cx="64" cy="64" r="28" fill="none" opacity=".61" stroke="#000" stroke-miterlimit="10" stroke-width=".2625"/><line x1="84" x2="84" y2="128" fill="none" opacity=".61" stroke="#000" stroke-miterlimit="10" stroke-width=".25"/><line x1="44" x2="44" y2="128" fill="none" opacity=".61" stroke="#000" stroke-miterlimit="10" stroke-width=".25"/><line x1="64" x2="64" y2="128" fill="none" opacity=".61" stroke="#000" stroke-miterlimit="10" stroke-width=".25"/><line x1="128" y1="64" y2="64" fill="none" opacity=".61" stroke="#000" stroke-miterlimit="10" stroke-width=".25"/><line x1="128" y1="44" y2="44" fill="none" opacity=".61" stroke="#000" stroke-miterlimit="10" stroke-width=".25"/><line x1="128" y1="83.75" y2="83.75" fill="none" opacity=".61" stroke="#000" stroke-miterlimit="10" stroke-width=".25"/><line x1="128" y1="128" fill="none" opacity=".61" stroke="#000" stroke-miterlimit="10" stroke-width=".25"/><line x2="128" y1="128" fill="none" opacity=".61" stroke="#000" stroke-miterlimit="10" stroke-width=".25"/><g opacity=".61"><path d="M64,4.26c32.94,0,59.74,26.8,59.74,59.74S96.94,123.74,64,123.74S4.26,96.94,4.26,64S31.06,4.26,64,4.26 M64,4 C30.86,4,4,30.86,4,64s26.86,60,60,60s60-26.86,60-60S97.14,4,64,4L64,4z"/></g><path d="m107.97 115.97h-87.94c-4.42 0-8.03-3.61-8.03-8.03v-87.91c0-4.42 3.61-8.03 8.03-8.03h87.94c4.42 0 8.03 3.61 8.03 8.03v87.91c0 4.42-3.61 8.03-8.03 8.03z" fill="none" opacity=".61" stroke="#000" stroke-miterlimit="10" stroke-width=".2578"/><path d="m100 124h-72c-4.4 0-8-3.6-8-8v-104c0-4.4 3.6-8 8-8h72c4.4 0 8 3.6 8 8v104c0 4.4-3.6 8-8 8z" fill="none" opacity=".61" stroke="#000" stroke-miterlimit="10" stroke-width=".2628"/><path d="M113.77,108H14.23 C8.6,108,4,103.4,4,97.77V30.28c0-5.63,4.6-10.23,10.23-10.23h99.54c5.63,0,10.23,4.6,10.23,10.23v67.48 C124,103.4,119.4,108,113.77,108z" fill="none" opacity=".61" stroke="#000" stroke-miterlimit="10" stroke-width=".2627"/></g><g opacity=".2"><defs><rect id="a" width="128" height="128" opacity=".2"/></defs><clipPath id="b"><use xlink:href="#a"/></clipPath><g clip-path="url(#b)"><g fill="none" stroke="#000" stroke-miterlimit="10" stroke-width=".25"><line x1="-28" x2="-28" y1="160" y2="-32"/><line x1="-24" x2="-24" y1="160" y2="-32"/><line x1="-20" x2="-20" y1="160" y2="-32"/><line x1="-16" x2="-16" y1="160" y2="-32"/><line x1="-12" x2="-12" y1="160" y2="-32"/><line x1="-8" x2="-8" y1="160" y2="-32"/><line x1="-4" x2="-4" y1="160" y2="-32"/><line y1="160" y2="-32"/><line x1="4" x2="4" y1="160" y2="-32"/><line x1="8" x2="8" y1="160" y2="-32"/><line x1="12" x2="12" y1="160" y2="-32"/><line x1="16" x2="16" y1="160" y2="-32"/><line x1="20" x2="20" y1="160" y2="-32"/><line x1="24" x2="24" y1="160" y2="-32"/><line x1="28" x2="28" y1="160" y2="-32"/><line x1="32" x2="32" y1="160" y2="-32"/><line x1="36" x2="36" y1="160" y2="-32"/><line x1="40" x2="40" y1="160" y2="-32"/><line x1="44" x2="44" y1="160" y2="-32"/><line x1="48" x2="48" y1="160" y2="-32"/><line x1="52" x2="52" y1="160" y2="-32"/><line x1="56" x2="56" y1="160" y2="-32"/><line x1="60" x2="60" y1="160" y2="-32"/><line x1="64" x2="64" y1="160" y2="-32"/><line x1="68" x2="68" y1="160" y2="-32"/><line x1="72" x2="72" y1="160" y2="-32"/><line x1="76" x2="76" y1="160" y2="-32"/><line x1="80" x2="80" y1="160" y2="-32"/><line x1="84" x2="84" y1="160" y2="-32"/><line x1="88" x2="88" y1="160" y2="-32"/><line x1="92" x2="92" y1="160" y2="-32"/><line x1="96" x2="96" y1="160" y2="-32"/><line x1="100" x2="100" y1="160" y2="-32"/><line x1="104" x2="104" y1="160" y2="-32"/><line x1="108" x2="108" y1="160" y2="-32"/><line x1="112" x2="112" y1="160" y2="-32"/><line x1="116" x2="116" y1="160" y2="-32"/><line x1="120" x2="120" y1="160" y2="-32"/><line x1="124" x2="124" y1="160" y2="-32"/><line x1="128" x2="128" y1="160" y2="-32"/><line x1="132" x2="132" y1="160" y2="-32"/><line x1="136" x2="136" y1="160" y2="-32"/><line x1="137" x2="137" y1="166.05" y2="-25.95"/><line x1="144" x2="144" y1="160" y2="-32"/><line x1="148" x2="148" y1="160" y2="-32"/><line x1="152" x2="152" y1="160" y2="-32"/><line x1="156" x2="156" y1="160" y2="-32"/></g><g fill="none" stroke="#000" stroke-miterlimit="10" stroke-width=".25"><line x1="-32" x2="160" y1="-28" y2="-28"/><line x1="-32" x2="160" y1="-24" y2="-24"/><line x1="-32" x2="160" y1="-20" y2="-20"/><line x1="-32" x2="160" y1="-16" y2="-16"/><line x1="-32" x2="160" y1="-12" y2="-12"/><line x1="-32" x2="160" y1="-8" y2="-8"/><line x1="-32" x2="160" y1="-4" y2="-4"/><line x1="-32" x2="160"/><line x1="-32" x2="160" y1="4" y2="4"/><line x1="-32" x2="160" y1="8" y2="8"/><line x1="-32" x2="160" y1="12" y2="12"/><line x1="-32" x2="160" y1="16" y2="16"/><line x1="-32" x2="160" y1="20" y2="20"/><line x1="-32" x2="160" y1="24" y2="24"/><line x1="-32" x2="160" y1="28" y2="28"/><line x1="-32" x2="160" y1="32" y2="32"/><line x1="-32" x2="160" y1="36" y2="36"/><line x1="-32" x2="160" y1="40" y2="40"/><line x1="-32" x2="160" y1="44" y2="44"/><line x1="-32" x2="160" y1="48" y2="48"/><line x1="-32" x2="160" y1="52" y2="52"/><line x1="-32" x2="160" y1="56" y2="56"/><line x1="-32" x2="160" y1="60" y2="60"/><line x1="-32" x2="160" y1="64" y2="64"/><line x1="-32" x2="160" y1="68" y2="68"/><line x1="-32" x2="160" y1="72" y2="72"/><line x1="-32" x2="160" y1="76" y2="76"/><line x1="-32" x2="160" y1="80" y2="80"/><line x1="-32" x2="160" y1="84" y2="84"/><line x1="-32" x2="160" y1="88" y2="88"/><line x1="-32" x2="160" y1="92" y2="92"/><line x1="-32" x2="160" y1="96" y2="96"/><line x1="-32" x2="160" y1="100" y2="100"/><line x1="-32" x2="160" y1="104" y2="104"/><line x1="-32" x2="160" y1="108" y2="108"/><line x1="-32" x2="160" y1="112" y2="112"/><line x1="-32" x2="160" y1="116" y2="116"/><line x1="-32" x2="160" y1="120" y2="120"/><line x1="-32" x2="160" y1="124" y2="124"/><line x1="-32" x2="160" y1="128" y2="128"/><line x1="-32" x2="160" y1="132" y2="132"/><line x1="-32" x2="160" y1="136" y2="136"/><line x1="-32" x2="160" y1="140" y2="140"/><line x1="-32" x2="160" y1="144" y2="144"/><line x1="-32" x2="160" y1="148" y2="148"/><line x1="-32" x2="160" y1="152" y2="152"/><line x1="-32" x2="160" y1="156" y2="156"/></g><path d="m159.75-31.75v191.5h-191.5v-191.5h191.5m0.25-0.25h-192v192h192v-192z"/></g></g><g fill="#F44336"><rect width="4" height="128" opacity=".3"/><rect x="124" width="4" height="128" opacity=".3"/><rect transform="matrix(-1.837e-16 1 -1 -1.837e-16 66 -62)" x="62" y="-58" width="4" height="120" opacity=".3"/><rect transform="matrix(-1.837e-16 1 -1 -1.837e-16 190 62)" x="62" y="66" width="4" height="120" opacity=".3"/></g></g></g></svg>
