<svg enable-background="new 0 0 128 128" viewBox="0 0 128 128" xmlns="http://www.w3.org/2000/svg" xmlns:xlink="http://www.w3.org/1999/xlink"><linearGradient id="b" x1="-93.047" x2="-93.047" y1="-73.413" y2="-17.291" gradientUnits="userSpaceOnUse"><stop stop-color="#eee" offset=".0051299"/><stop stop-color="#EAEAEA" offset=".2817"/><stop stop-color="#ddd" offset=".5766"/><stop stop-color="#C8C8C8" offset=".8789"/><stop stop-color="#BDBDBD" offset=".9998"/></linearGradient><path d="m-42.13-44.72c-0.91-4.33-4.3-20.11-5.87-27.41-0.47-2.21-2.11-3.82-3.99-3.81-5.36 0-15.39-0.05-16.6-0.05h-44.08c-0.61 0-2.56 0.06-4.11 1.79-4.7 5.27-12.54 20.52-13.76 22.07-0.08 0.1-6.27 2.31-9.09 4-1.12 0.67-1.74 2.13-1.9 3.63l-2.46 20.75c-0.64 4.1 1.7 5.76 5.37 5.76h91.51c2.8 0 5.11-0.68 5.11-5.69v-19.79c0-0.43-0.05-0.85-0.13-1.25z" fill="url(#b)"/><defs><path id="c" d="m-42.13-44.78c-0.91-4.32-4.3-20.06-5.87-27.34-0.47-2.21-2.11-3.82-3.99-3.82-5.36 0-15.39-0.06-16.6-0.06h-44.08c-0.61 0-2.56 0.07-4.11 1.8-4.7 5.26-12.54 20.51-13.76 22.05-0.08 0.1-6.27 2.28-9.09 3.96-1.12 0.67-1.74 2.13-1.9 3.62l-2.46 20.76c-0.64 4.09 1.7 5.81 5.37 5.81h91.51c2.8 0 5.11-0.79 5.11-5.8v-19.74c0-0.42-0.05-0.83-0.13-1.24z"/></defs><clipPath><use xlink:href="#c"/></clipPath><g opacity=".2"><path d="m-51.98-73c0.36 0 0.87 0.59 1.05 1.44 1.46 6.78 4.95 23.06 5.86 27.43 0.04 0.2 0.07 0.44 0.07 0.66v19.79c0 2.81-0.49 2.69-2.11 2.69h-91.51c-1.3 0-2.02-0.23-2.25-0.5s-0.3-0.92-0.16-1.77c0.01-0.04 0.01-0.06 0.02-0.09l2.47-20.83c0.08-0.8 0.36-1.28 0.46-1.36 1.87-1.12 5.83-2.66 7.51-3.31 1.46-0.57 1.86-0.72 2.39-1.39 0.5-0.63 1.28-2 2.99-5.03 2.85-5.03 7.61-13.53 10.65-16.93 0.57-0.64 1.22-0.79 1.87-0.79h44.08 9.21 7.4-0.02m0.02-3.01s-0.01 0 0 0h-16.6-44.08-0.02c-0.63 0-2.55 0.08-4.08 1.79-4.7 5.27-12.54 20.52-13.76 22.07-0.08 0.1-6.27 2.31-9.09 4-1.12 0.67-1.74 2.13-1.9 3.63l-2.46 20.75c-0.64 4.1 1.7 5.76 5.37 5.76h91.51c2.8 0 5.11-0.68 5.11-5.69v-19.79c0-0.42-0.05-0.84-0.13-1.24-0.91-4.33-4.3-20.17-5.87-27.47-0.49-2.21-2.13-3.81-4-3.81z" fill="#424242"/></g><linearGradient id="a" x1="46.43" x2="46.43" y1="-117.5" y2="-61.374" gradientUnits="userSpaceOnUse"><stop stop-color="#616161" offset=".0106"/><stop stop-color="#5D5D5D" offset=".2496"/><stop stop-color="#505050" offset=".5044"/><stop stop-color="#3B3B3B" offset=".7657"/><stop stop-color="#212121" offset="1"/></linearGradient><path d="m97.35-88.93c-0.91-4.33-4.3-20.11-5.86-27.41-0.47-2.21-2.11-3.75-3.99-3.75-5.36 0-15.39 0.01-16.6 0.01h-44.08c-0.61 0-2.56-0.01-4.11 1.73-4.71 5.28-12.55 20.49-13.76 22.04-0.08 0.1-6.27 2.3-9.09 3.99-1.12 0.67-1.74 2.12-1.9 3.62l-2.46 20.8c-0.64 4.1 1.7 5.82 5.37 5.82h91.51c2.8 0 5.1-0.8 5.1-5.81v-19.79c-0.01-0.43-0.05-0.84-0.13-1.25z" fill="url(#a)"/><defs><path id="d" d="m97.35-88.98c-0.91-4.32-4.3-20.06-5.86-27.34-0.47-2.21-2.11-3.74-3.99-3.74-5.36 0-15.39 0.01-16.6 0.01h-44.08c-0.61 0-2.56-0.01-4.11 1.72-4.71 5.27-12.55 20.48-13.76 22.02-0.08 0.1-6.27 2.26-9.09 3.94-1.12 0.67-1.74 2.12-1.9 3.61l-2.47 20.76c-0.64 4.09 1.7 5.8 5.37 5.8h91.51c2.8 0 5.1-0.79 5.1-5.8v-19.74c0-0.42-0.04-0.84-0.12-1.24z"/></defs><clipPath><use xlink:href="#d"/></clipPath><g opacity=".2"><path d="m87.5-117.08c0.36 0 0.87 0.53 1.05 1.38 1.46 6.78 4.94 23.03 5.86 27.4 0.04 0.2 0.06 0.41 0.06 0.63v19.79c0 2.81-0.49 2.81-2.1 2.81h-91.51c-1.3 0-2.02-0.29-2.25-0.56s-0.3-0.95-0.16-1.8l0.02-0.1 2.47-20.84c0.08-0.8 0.36-1.28 0.46-1.36 1.87-1.12 5.83-2.66 7.51-3.31 1.46-0.57 1.86-0.72 2.39-1.39 0.5-0.63 1.28-2 2.99-5.03 2.85-5.03 7.61-13.46 10.65-16.87 0.57-0.64 1.22-0.72 1.87-0.72h44.08c0.75 0 4.89 0 9.21-0.01l7.4-0.02m0-3c-5.36 0-15.39 0.01-16.6 0.01h-44.08-0.02c-0.63 0-2.55 0.01-4.08 1.73-4.72 5.27-12.56 20.48-13.77 22.03-0.08 0.1-6.27 2.3-9.09 3.99-1.12 0.67-1.74 2.12-1.9 3.62l-2.46 20.8c-0.64 4.1 1.7 5.82 5.37 5.82h91.51c2.8 0 5.1-0.8 5.1-5.81v-19.79c0-0.42-0.04-0.84-0.13-1.24-0.91-4.33-4.3-20.11-5.86-27.41-0.48-2.22-2.12-3.75-3.99-3.75z" fill="#eee"/></g><path d="m61.71-25.86c1.45 0 2.71-0.9 2.89-2.17v-8.67c0-1.08 0.9-1.99 2.17-2.17 4.7-0.72 11.57-1.45 19.34-0.54 2.89 0.36 4.52-2.71 1.99-3.8-1.42-0.76-2.85-1.49-4.31-2.18-1.55-0.74-3.13-1.43-4.73-2.06-1.66-0.66-3.34-1.26-5.05-1.78-1.73-0.53-3.49-1.02-5.19-1.42-0.93-0.21-1.97-0.46-2.91-0.65-1.74-0.35-2.58-0.31-3.6-0.31-6.83 0-15.78 0.08-22.62 0.08h-9.32c-1.6 0-3.3-0.17-4.88 0.03-1.15 0.15-2.29 0.93-2.46 2.14v2.89c-0.36 0.36-1.08 0.72-1.81 0.72-0.72 0-1.45-0.36-1.81-0.72-0.29-0.29-0.4-0.87-0.58-1.23-0.31-0.6-0.59-1.13-0.82-1.78-0.48-1.36-1.48-2.06-2.94-2.06h-8.66c-1.45 0-2.71 0.9-2.89 2.17l0.54 21.14c0 1.08 1.08 2.17 2.89 2.17h8.67c1.27 0 2.19-0.73 2.77-1.81 0.29-0.54 0.46-1.13 0.77-1.66 0.3-0.51 0.53-1.06 0.8-1.59 0.36-0.36 1.08-0.72 1.81-0.72 0.72 0 1.45 0.36 1.81 0.72v2.89c0 1.08 1.08 2.17 2.89 2.17l35.24 0.2z" fill="#78909C"/><path d="m-44.21 132.44-4.7-88.19c0-0.72 0.54-1.27 1.08-1.08h12.29c1.45 0 2.71-0.9 2.89-2.17v-8.67c0-1.08 0.9-1.99 2.17-2.17 4.7-0.72 11.57-1.45 19.34-0.54 2.89 0.36 4.52-2.71 1.99-3.8-7.05-3.8-16.45-7.77-25.84-8.13-0.18-0.18-0.36 0-0.54-0.18h-35.78c-1.45 0-2.71 0.9-2.89 2.17v2.89c-0.36 0.36-1.08 0.72-1.81 0.72-0.72 0-1.45-0.36-1.81-0.72l-1.45-2.89c0-1.08-1.08-2.17-2.89-2.17h-8.67c-1.45 0-2.71 0.9-2.89 2.17l0.54 21.14c0 1.08 1.08 2.17 2.89 2.17h8.67c1.45 0 2.71-0.9 2.89-2.17l1.45-2.89c0.36-0.36 1.08-0.72 1.81-0.72 0.72 0 1.45 0.36 1.81 0.72v2.89c0 1.08 1.08 2.17 2.89 2.17h6.14c0.72 0 1.27 0.54 1.08 1.08l-4.34 88.19c-0.18 4.52 3.25 8.31 7.23 8.31h9.04c4.16 0.18 7.59-3.61 7.41-8.13z" fill="#78909C"/><path d="m157.96-34.01h-37.09c-1.33 0-2.43-1.09-2.43-2.43v-20.89c0-1.33 1.09-2.43 2.43-2.43h37.09c1.33 0 2.43 1.09 2.43 2.43v20.89c-0.01 1.34-1.1 2.43-2.43 2.43z" fill="#212121"/><path d="m109.86-34.01h-8.95c-1.33 0-2.43-1.09-2.43-2.43v-20.89c0-1.33 1.09-2.43 2.43-2.43h8.73c2.66 0 4.84 2.18 4.84 4.84v16.29c0 2.55-2.08 4.62-4.62 4.62z" fill="#212121"/><path d="m186.45-51.01c-14-7.79-28.69-8.74-28.69-8.74s2.61 14.04 2.61 14.34c0-3.91 24.94-0.14 24.94-0.14l0.03-0.01c0.99 0.14 2.4-0.61 2.69-2 0.16-0.66 0.19-2.42-1.58-3.45z" fill="#212121"/><path d="m120.8-54.74h-2.35v-0.4c0 1.09-0.58 2.4-1.98 2.4h-0.02c-1.38 0-1.98-1.32-1.98-2.4l-0.02 0.4h-2.38c-1.33 0-2.62 0.26-2.62 1.12v13.48c0 0.86 1.29 1.4 2.62 1.4h2.41c0.05-1.04 0.91-2 1.96-2h0.02c1.05 0 1.91 0.96 1.96 2h2.6c2.54 0 4.42-1.18 4.42-2.81v-10.51c0.01-1.72-1.98-2.68-4.64-2.68z" fill="#212121"/><path d="m328.95 12.56c-12.18-6.78-24.88-8.37-27.97-8.67-0.17-0.04-0.34-0.05-0.53-0.05h-37.09c-1.33 0-2.42 1.08-2.42 2.41v2.35c0 1.05-0.65 2.24-1.98 2.24h-0.02c-1.38 0-1.98-1.32-1.98-2.4v0.14c-0.06-2.62-2.2-4.73-4.83-4.73h-8.73c-1.33 0-2.45 1.08-2.45 2.41v20.89c0 1.33 1.12 2.7 2.45 2.7h8.95c2.54 0 4.59-2.35 4.59-4.88v-0.12h0.03c0.05-1.04 0.91-2 1.96-2h0.02c1.05 0 1.91 0.96 1.96 2h0.02v2.3c0 1.33 1.08 2.7 2.42 2.7h37.09c1.33 0 2.5-1.36 2.5-2.7v-8.98c0-3.91 24.91-0.14 24.91-0.14l0.01-0.01c0.99 0.14 2.39-0.61 2.68-2 0.15-0.67 0.17-2.43-1.59-3.46z" fill="#212121"/><path d="m279.78 126.91c-4.4 0-8-3.6-8-8v-97.41c0-4.4 3.6-8 8-8s8 3.6 8 8v97.41c0 4.4-3.6 8-8 8z" fill="#212121"/><linearGradient id="j" x1="229.95" x2="280.14" y1="129.22" y2="79.022" gradientTransform="matrix(.7071 .7071 -.7071 .7071 64.238 -26.48)" gradientUnits="userSpaceOnUse"><stop stop-color="#757575" offset="0"/><stop stop-color="#BDBDBD" offset="1"/></linearGradient><path d="m193.86 277.96c0.41-10.34-5.24-19.44-14.05-23.53l0.01 0.06 0.19-54.12c8-4 14.01-12.49 14.01-22.31 0-10.4-6.69-19.3-15.53-22.97-1.12-0.47-2.48 0.35-2.48 1.56v23.41c0 0.5-0.17 0.97-0.56 1.29l-5.13 4.27c-0.62 0.51-1.5 0.51-2.12 0l-5.37-4.27c-0.38-0.32-0.82-0.79-0.82-1.29v-23.48c0-1.17-0.94-2.01-2.03-1.6-9.32 3.47-15.37 11.98-15.77 22.03-0.41 10.34 5.21 19.44 14.03 23.53l-0.22 54.06c-8 4-13.93 12.49-13.93 22.31 0 10.4 6.65 19.3 15.49 22.97 1.12 0.47 2.43-0.35 2.43-1.56v-23.41c0-0.5 0.26-0.97 0.64-1.29l5.17-4.27c0.62-0.51 1.52-0.51 2.14 0l5.3 4.27c0.38 0.32 0.75 0.79 0.75 1.29v23.48c0 1.17 1.02 2.01 2.11 1.6 9.32-3.47 15.34-11.97 15.74-22.03z" fill="url(#j)"/><g opacity=".2"><path d="m179.01 158.64c7.25 3.75 12.01 11.34 12.01 19.42 0 8.17-4.85 15.88-12.35 19.63-1.01 0.51-1.65 1.54-1.66 2.67l-0.19 53.83c-0.02 0.22-0.01 0.45 0.02 0.68l0.01 0.06c0.18 1.21 1.06 2.15 2.18 2.46 7.56 3.74 12.19 11.71 11.84 20.45-0.33 8.17-4.81 15.09-11.86 18.51v-21.44c0-1.34-0.65-2.62-1.87-3.62l-5.27-4.24c-0.84-0.69-1.89-1.07-2.98-1.07s-2.15 0.38-2.98 1.07l-5.18 4.27c-1.1 0.91-1.73 2.22-1.73 3.6v21.4c-7.2-3.75-11.93-11.33-11.93-19.4 0-8.2 4.82-15.9 12.27-19.63 1.01-0.51 1.65-1.54 1.66-2.67l0.22-54.06c0-1.17-0.67-2.24-1.74-2.73-7.82-3.63-12.65-11.75-12.29-20.68 0.33-8.13 4.79-15.03 11.81-18.47v21.4c0 0.92 0.33 2.29 1.91 3.6 0.02 0.01 0.03 0.03 0.05 0.04l5.35 4.25c0.83 0.68 1.87 1.05 2.94 1.05 1.08 0 2.14-0.38 2.98-1.08l5.13-4.26c1.04-0.86 1.64-2.18 1.64-3.6v-21.44m-18.47-3.77c-0.18 0-0.36 0.03-0.55 0.1-9.32 3.47-15.37 11.98-15.77 22.03-0.41 10.34 5.21 19.44 14.03 23.53l-0.22 54.06c-8 4-13.93 12.49-13.93 22.31 0 10.4 6.65 19.3 15.49 22.97 0.22 0.09 0.45 0.13 0.67 0.13 0.92 0 1.77-0.72 1.77-1.69v-23.41c0-0.5 0.26-0.97 0.64-1.29l5.17-4.27c0.31-0.26 0.69-0.38 1.07-0.38s0.76 0.13 1.07 0.38l5.3 4.27c0.38 0.32 0.75 0.79 0.75 1.29v23.48c0 0.96 0.7 1.7 1.55 1.7 0.18 0 0.37-0.03 0.56-0.1 9.32-3.47 15.34-11.98 15.74-22.03 0.41-10.34-5.24-19.43-14.04-23.52v0.05l-0.01-0.06h0.01l0.19-54.07c8-4 14.01-12.49 14.01-22.31 0-10.4-6.69-19.3-15.53-22.97-0.22-0.09-0.45-0.13-0.67-0.13-0.93 0-1.8 0.72-1.8 1.69v23.41c0 0.5-0.17 0.97-0.56 1.29l-5.13 4.27c-0.31 0.26-0.68 0.38-1.06 0.38s-0.75-0.13-1.06-0.38l-5.37-4.27c-0.38-0.32-0.82-0.79-0.82-1.29v-23.48c-0.02-0.95-0.66-1.69-1.5-1.69z" fill="#424242"/></g><linearGradient id="i" x1="-33.458" x2="-14.175" y1="-22.28" y2="-22.28" gradientTransform="matrix(.7071 -.7071 .7071 .7071 -127.23 110.08)" gradientUnits="userSpaceOnUse"><stop stop-color="#FFC400" offset=".0060985"/><stop stop-color="#FFD740" offset="1"/></linearGradient><path d="m-114.35 151.55-5.09 5.09c-2.35 2.35-6.19 2.35-8.54 0l-74.76-74.76c-3.75-3.75-3.75-9.89 0-13.64s9.89-3.75 13.64 0l74.76 74.76c2.34 2.35 2.34 6.2-0.01 8.55z" fill="url(#i)"/><g opacity=".2"><path d="m-195.93 69.05c1.62 0 3.13 0.62 4.26 1.75l74.76 74.76c0.45 0.45 0.7 1.06 0.7 1.71s-0.25 1.26-0.7 1.71l-5.09 5.09c-0.45 0.45-1.06 0.7-1.71 0.7s-1.26-0.25-1.71-0.7l-74.76-74.76c-1.13-1.13-1.75-2.64-1.75-4.26s0.62-3.13 1.75-4.26 2.64-1.74 4.25-1.74m0-3.62c-2.47 0-4.94 0.94-6.82 2.81-3.75 3.75-3.75 9.89 0 13.64l74.76 74.76c1.17 1.17 2.72 1.76 4.27 1.76s3.1-0.59 4.27-1.76l5.09-5.09c2.35-2.35 2.35-6.19 0-8.54l-74.76-74.76c-1.86-1.88-4.34-2.82-6.81-2.82z" fill="#424242"/></g><linearGradient id="h" x1="-57.893" x2="21.703" y1="-78.817" y2="-78.817" gradientTransform="matrix(.7071 -.7071 .7071 .7071 -127.23 110.08)" gradientUnits="userSpaceOnUse"><stop stop-color="#757575" offset="0"/><stop stop-color="#BDBDBD" offset="1"/></linearGradient><path d="m-170.33 38.54c-16.53 3.04-24.94 10.24-27.34 12.22-0.15 0.09-0.28 0.21-0.41 0.33l-19.15 19.15c-0.94 0.94-0.95 2.47 0 3.41l1.66 1.66c0.74 0.74 1.13 2.04 0.18 2.99l-0.01 0.01c-0.98 0.98-2.33 0.47-3.1-0.3l0.09 0.1c-1.89-1.81-4.9-1.79-6.76 0.07l-6.17 6.17c-0.94 0.94-0.97 2.5-0.03 3.44l14.77 14.77c0.94 0.94 2.7 1.12 3.64 0.17l6.33-6.33c1.79-1.79 1.59-4.91-0.21-6.7l-0.08-0.08 0.02-0.02c-0.7-0.77-0.77-2.06-0.03-2.8l0.01-0.01c0.74-0.74 2.03-0.67 2.8 0.03l0.01-0.01 1.63 1.63c0.94 0.94 2.67 1.14 3.62 0.2l19.15-19.15c0.94-0.94 0.8-2.73-0.14-3.68l-5.97-5.97c-4.06-4.06 17.74-16.22 17.74-16.22 1.58-0.74 1.82-2.51 1.39-3.4-0.44-0.96-1.45-2.01-3.64-1.68z" fill="url(#h)"/><g opacity=".2"><path d="m-170.68 41.66c-1.63 0.94-4.74 2.81-7.93 4.99-8.89 6.1-10.36 9.23-10.65 11.28-0.21 1.52 0.26 2.95 1.33 4.03l5.75 5.75-18.38 18.38-1.41-1.41c-0.16-0.16-0.34-0.31-0.53-0.42-0.88-0.65-1.95-1-3.07-1-1.32 0-2.55 0.5-3.48 1.42-1.69 1.69-1.86 4.45-0.48 6.42 0.13 0.23 0.3 0.45 0.49 0.64l0.08 0.08c0.34 0.34 0.55 0.84 0.57 1.36 0.01 0.26-0.02 0.76-0.37 1.1l-5.95 5.95-14.14-14.14 5.78-5.78c0.34-0.34 0.8-0.53 1.29-0.53 0.48 0 0.93 0.18 1.27 0.51 0.09 0.09 0.19 0.17 0.28 0.24 1.03 0.85 2.29 1.33 3.53 1.33 1.27 0 2.47-0.5 3.4-1.43 1.98-1.98 1.9-5.15-0.18-7.23l-1.24-1.24 18.71-18.71c0.08-0.05 0.15-0.11 0.22-0.17l0.19-0.15c2.54-2.09 10.13-8.36 24.92-11.27m1.14-3.18c-0.24 0-0.51 0.02-0.79 0.06-16.53 3.04-24.94 10.25-27.34 12.22-0.15 0.09-0.28 0.21-0.41 0.33l-19.15 19.15c-0.94 0.94-0.95 2.47 0 3.41l1.66 1.66c0.74 0.74 1.13 2.04 0.18 2.99l-0.01 0.01c-0.38 0.38-0.82 0.54-1.27 0.54-0.68 0-1.37-0.37-1.83-0.84l0.09 0.1c-0.93-0.89-2.14-1.34-3.35-1.34-1.24 0-2.47 0.47-3.42 1.41l-6.17 6.17c-0.94 0.94-0.97 2.5-0.03 3.44l14.77 14.77c0.51 0.51 1.27 0.8 2.01 0.8 0.61 0 1.21-0.2 1.64-0.63l6.33-6.33c1.79-1.79 1.59-4.91-0.21-6.7l-0.08-0.08 0.02-0.02c-0.7-0.77-0.77-2.06-0.03-2.8l0.01-0.01c0.36-0.36 0.85-0.53 1.34-0.53 0.53 0 1.06 0.19 1.46 0.56l0.01-0.01 1.63 1.63c0.52 0.52 1.28 0.82 2.02 0.82 0.6 0 1.18-0.19 1.6-0.62l19.15-19.15c0.94-0.94 0.8-2.73-0.14-3.68l-5.97-5.97c-4.06-4.06 17.74-16.22 17.74-16.22 1.58-0.74 1.82-2.51 1.39-3.4-0.38-0.84-1.2-1.74-2.85-1.74z" fill="#424242"/></g><linearGradient id="g" x1="138.26" x2="157.54" y1="86.219" y2="86.219" gradientTransform="matrix(.7071 -.7071 .7071 .7071 -88.714 120.56)" gradientUnits="userSpaceOnUse"><stop stop-color="#6D4C41" offset=".0060985"/><stop stop-color="#8D6E63" offset="1"/></linearGradient><path d="m122.3 117.32-5.09 5.09c-2.35 2.35-6.19 2.35-8.54 0l-74.76-74.76c-3.75-3.75-3.75-9.89 0-13.64s9.89-3.75 13.64 0l74.76 74.76c2.34 2.35 2.34 6.2-0.01 8.55z" fill="url(#g)"/><g opacity=".2"><path d="m40.73 34.2c1.78 0 3.45 0.69 4.7 1.93l74.76 74.76c1.19 1.19 1.19 3.11 0 4.3l-5.09 5.09c-0.57 0.57-1.33 0.88-2.15 0.88s-1.58-0.31-2.15-0.88l-74.77-74.75c-2.59-2.59-2.59-6.8 0-9.39 1.25-1.25 2.92-1.94 4.7-1.94m0-3c-2.47 0-4.94 0.94-6.82 2.81-3.75 3.75-3.75 9.89 0 13.64l74.76 74.76c1.17 1.17 2.72 1.76 4.27 1.76s3.1-0.59 4.27-1.76l5.09-5.09c2.35-2.35 2.35-6.19 0-8.54l-74.75-74.76c-1.88-1.88-4.35-2.82-6.82-2.82z" fill="#424242"/></g><linearGradient id="f" x1="116.4" x2="190.99" y1="26.668" y2="26.668" gradientTransform="matrix(.7071 -.7071 .7071 .7071 -88.714 120.56)" gradientUnits="userSpaceOnUse"><stop stop-color="#757575" offset="0"/><stop stop-color="#BDBDBD" offset="1"/></linearGradient><path d="m62.48 3.9c-16.54 3.04-24.95 10.24-27.35 12.22-0.15 0.09-0.28 0.21-0.41 0.33l-17.03 17.03c-0.94 0.94-0.95 2.47 0 3.41l1.66 1.66c0.74 0.74 1.13 2.04 0.18 2.99l-0.01 0.01c-0.98 0.98-2.33 0.47-3.1-0.3l0.09 0.1c-1.89-1.81-4.9-1.79-6.76 0.07l-4.76 4.76c-0.94 0.94-0.97 2.5-0.03 3.44l14.77 14.77c0.94 0.94 2.7 1.12 3.64 0.17l4.92-4.92c1.79-1.79 1.59-4.91-0.21-6.7l-0.08-0.08 0.02-0.02c-0.7-0.77-0.77-2.06-0.03-2.8l0.01-0.01c0.74-0.74 2.03-0.67 2.8 0.03l0.01-0.01 1.63 1.63c0.94 0.94 2.67 1.14 3.62 0.2l17.03-17.03c0.94-0.94 0.8-2.73-0.14-3.68l-5.95-5.98c-4.06-4.05 17.75-16.22 17.75-16.22 1.58-0.74 1.82-2.51 1.39-3.4-0.46-0.96-1.47-2-3.66-1.67z" fill="url(#f)"/><g opacity=".2"><path d="m62.13 7.02c-1.63 0.94-4.74 2.81-7.93 4.99-8.89 6.1-10.36 9.23-10.65 11.28-0.21 1.52 0.26 2.95 1.33 4.03l5.75 5.75-16.26 16.26-1.41-1.41c-0.16-0.16-0.34-0.31-0.53-0.42-0.88-0.65-1.95-1-3.07-1-1.32 0-2.55 0.5-3.48 1.42-1.69 1.69-1.86 4.45-0.48 6.42 0.13 0.23 0.3 0.45 0.49 0.64l0.08 0.08c0.34 0.34 0.55 0.84 0.57 1.36 0.01 0.26-0.02 0.76-0.37 1.1l-4.53 4.53-14.14-14.13 4.37-4.37c0.34-0.34 0.8-0.53 1.29-0.53 0.48 0 0.93 0.18 1.27 0.51 0.09 0.09 0.19 0.17 0.28 0.24 1.03 0.85 2.29 1.33 3.53 1.33 1.27 0 2.47-0.5 3.4-1.43 1.09-1.09 1.6-2.58 1.4-4.09-0.15-1.17-0.71-2.28-1.58-3.14l-1.24-1.24 16.6-16.6c0.08-0.05 0.15-0.11 0.22-0.17l0.19-0.15c2.52-2.09 10.11-8.35 24.9-11.26m1.14-3.18c-0.24 0-0.51 0.02-0.79 0.06-16.54 3.04-24.95 10.24-27.35 12.22-0.15 0.09-0.28 0.21-0.41 0.33l-17.03 17.03c-0.94 0.94-0.95 2.47 0 3.41l1.66 1.66c0.74 0.74 1.13 2.04 0.18 2.99l-0.01 0.01c-0.38 0.38-0.82 0.54-1.27 0.54-0.68 0-1.37-0.37-1.83-0.84l0.09 0.1c-0.93-0.89-2.14-1.34-3.35-1.34-1.24 0-2.47 0.47-3.42 1.41l-4.76 4.76c-0.94 0.94-0.97 2.5-0.03 3.44l14.77 14.77c0.51 0.51 1.27 0.8 2.01 0.8 0.61 0 1.21-0.2 1.64-0.63l4.92-4.92c1.79-1.79 1.59-4.91-0.21-6.7l-0.08-0.08 0.02-0.02c-0.7-0.77-0.77-2.06-0.03-2.8l0.01-0.01c0.36-0.36 0.85-0.53 1.34-0.53 0.53 0 1.06 0.19 1.46 0.56l0.01-0.01 1.63 1.63c0.52 0.52 1.28 0.82 2.02 0.82 0.6 0 1.18-0.19 1.6-0.62l17.03-17.03c0.94-0.94 0.8-2.73-0.14-3.68l-5.95-5.98c-4.06-4.05 17.75-16.22 17.75-16.22 1.58-0.74 1.82-2.51 1.39-3.4-0.4-0.83-1.22-1.73-2.87-1.73z" fill="#424242"/></g><linearGradient id="e" x1="96.973" x2="96.973" y1="401.5" y2="-88.553" gradientTransform="matrix(.7071 .7071 -.7071 .7071 103.64 -112.9)" gradientUnits="userSpaceOnUse"><stop stop-color="#757575" offset="0"/><stop stop-color="#BDBDBD" offset="1"/></linearGradient><path d="m123.15 23.36c-0.47-1.95-2.92-2.67-4.33-1.25l-14.92 14.92c-0.73 0.73-1.69 1.13-2.71 1l-7.58-0.88c-1.51-0.19-2.67-1.34-2.85-2.85l-0.86-7.55c-0.13-1.02 0.4-1.86 1.13-2.58l14.92-14.92c1.41-1.41 0.57-3.99-1.37-4.46-8.46-2.06-18.23-0.07-24.95 6.66-7.56 7.56-9.2 18.85-5.59 28.11l-63.16 63.14-3.78 3.78c-4.04 4.04-4.13 10.52-0.08 14.56 4.04 4.04 10.52 3.96 14.56-0.08l6.56-6.56 60.36-60.37c8.03 3.23 17.19 2.24 24.47-2.86 9.44-6.61 12.55-18.04 10.18-27.81zm-105.06 93.06-2.94 0.82c-0.63 0.17-1.36 0.05-1.82-0.41l-2.13-2.13c-0.46-0.46-0.58-1.19-0.41-1.82l0.79-2.91c0.17-0.63 0.68-1.14 1.31-1.31l2.93-0.81c0.63-0.17 1.35-0.04 1.81 0.42l2.13 2.13c0.46 0.46 0.6 1.17 0.43 1.8l-0.78 2.9c-0.17 0.63-0.68 1.15-1.32 1.32z" fill="url(#e)"/><g opacity=".2"><path d="m98.08 6c2.04 0 4.06 0.24 6.02 0.72 0.28 0.07 0.46 0.35 0.52 0.56 0.04 0.13 0.08 0.38-0.09 0.54l-14.91 14.92c-1.31 1.31-1.89 2.74-1.7 4.22l0.86 7.57c0.3 2.41 2.19 4.29 4.61 4.59l7.56 0.88c0.2 0.03 0.41 0.04 0.62 0.04 1.38 0 2.72-0.57 3.75-1.61l14.92-14.92c0.1-0.1 0.23-0.16 0.37-0.16 0.17 0 0.52 0.1 0.61 0.47 2.41 9.93-1.27 20.02-9.38 25.7-4.07 2.85-8.82 4.36-13.73 4.36-3.04 0-6.02-0.58-8.85-1.71-0.24-0.1-0.49-0.14-0.74-0.14-0.52 0-1.03 0.2-1.41 0.59l-66.92 66.92c-1.6 1.6-3.72 2.49-5.95 2.49-2.18 0-4.23-0.85-5.79-2.41-1.57-1.57-2.42-3.65-2.41-5.85 0.02-2.21 0.9-4.29 2.49-5.88l66.94-66.94c0.56-0.56 0.74-1.4 0.45-2.14-3.55-9.1-1.54-19.29 5.14-25.96 4.4-4.42 10.45-6.85 17.02-6.85m-83.48 113.31c0.36 0 0.72-0.05 1.09-0.15l2.92-0.82c1.34-0.35 2.39-1.4 2.74-2.73l0.79-2.91c0.36-1.36-0.01-2.78-0.95-3.73l-2.13-2.13c-0.7-0.7-1.65-1.08-2.69-1.08-0.35 0-0.71 0.05-1.07 0.14l-2.91 0.81c-1.33 0.35-2.38 1.4-2.73 2.72l-0.8 2.93c-0.36 1.37-0.01 2.81 0.93 3.74l2.13 2.13c0.69 0.7 1.64 1.08 2.68 1.08m83.48-115.31c-6.64 0-13.41 2.38-18.46 7.44-7.56 7.56-9.2 18.85-5.59 28.11l-66.93 66.93c-4.04 4.04-4.13 10.52-0.08 14.56 2 2 4.6 2.99 7.2 2.99 2.66 0 5.32-1.03 7.36-3.07l6.56-6.56 60.36-60.37c3.09 1.24 6.34 1.86 9.6 1.86 5.2 0 10.39-1.58 14.88-4.72 9.44-6.61 12.55-18.04 10.18-27.81-0.3-1.25-1.42-2-2.55-2-0.63 0-1.27 0.23-1.78 0.74l-14.93 14.93c-0.64 0.64-1.46 1.02-2.34 1.02-0.12 0-0.25-0.01-0.37-0.02l-7.58-0.88c-1.51-0.19-2.67-1.34-2.85-2.85l-0.86-7.55c-0.13-1.02 0.4-1.86 1.13-2.58l14.92-14.92c1.41-1.41 0.57-3.99-1.37-4.46-2.11-0.53-4.3-0.79-6.5-0.79zm-83.48 113.31c-0.47 0-0.94-0.15-1.27-0.48l-2.13-2.13c-0.46-0.46-0.58-1.19-0.41-1.82l0.79-2.91c0.17-0.63 0.68-1.14 1.31-1.31l2.93-0.81c0.17-0.05 0.36-0.07 0.54-0.07 0.47 0 0.94 0.16 1.27 0.49l2.13 2.13c0.46 0.46 0.6 1.17 0.43 1.8l-0.78 2.9c-0.17 0.63-0.69 1.15-1.32 1.32l-2.94 0.82c-0.18 0.05-0.37 0.07-0.55 0.07z" fill="#424242"/></g><path d="m127.42 247.75v-63.34h-15.87v63.34h15.87z" fill="#757575"/><path d="m126.74 153.43v16.3c0 0.79-0.37 1.54-0.99 2.03l-4.69 3.66c-0.93 0.72-2.23 0.72-3.16 0l-4.69-3.66c-0.62-0.49-0.99-1.24-0.99-2.03v-16.3c0-1.55-1.7-2.49-3.02-1.68-6.63 4.04-11.09 11.98-9.54 20.75 1.62 9.2 9.58 16.16 18.91 16.56 11.48 0.5 21.05-8.67 21.05-20.05 0-7.35-4.12-13.78-9.87-17.27-1.32-0.8-3.01 0.15-3.01 1.69z" fill="#757575"/><path d="m119.59 244.11c-10.39 0-18.81 8.42-18.81 18.81s8.42 18.81 18.81 18.81 18.81-8.42 18.81-18.81-8.42-18.81-18.81-18.81zm8.33 20.48-2.72 4.72c-0.59 1.02-1.69 1.69-2.87 1.69h-5.49c-1.18 0-2.27-0.67-2.87-1.69l-2.72-4.7c-0.6-1.03-0.6-2.31 0-3.34l2.72-4.65c0.59-1.02 1.69-1.62 2.87-1.62h5.49c1.18 0 2.27 0.59 2.87 1.61l2.72 4.66c0.6 1.04 0.6 2.29 0 3.32z" fill="#757575"/></svg>
