<?xml version="1.0" encoding="utf-8"?>
<!-- Generator: Adobe Illustrator 16.0.0, SVG Export Plug-In . SVG Version: 6.00 Build 0)  -->
<!DOCTYPE svg PUBLIC "-//W3C//DTD SVG 1.1//EN" "http://www.w3.org/Graphics/SVG/1.1/DTD/svg11.dtd">
<svg version="1.1" id="レイヤー_1" xmlns="http://www.w3.org/2000/svg" xmlns:xlink="http://www.w3.org/1999/xlink" x="0px"
	 y="0px" width="128px" height="128px" viewBox="0 0 128 128" enable-background="new 0 0 128 128" xml:space="preserve">
<g>
	<g>
		<g>
			<g>
				<path fill="#724941" d="M105.674,57.92c4.238-0.892,8.449-0.116,11.513,3.098c1.417,1.48,2.611,3.407,3.455,5.269
					c0.732,1.616,1.305,5.112,3.1,5.968c0.824,0.39,2.241,0.145,2.837,0.894c1.632,2.053-2.984,5.864-4.234,6.624
					c-8.222,5.04-21.454,4.938-26.337-4.76C92.306,67.644,97.854,59.559,105.674,57.92z"/>
			</g>
			<path fill="#CC4079" d="M120.49,46.114c0.374,2.205,0.485,4.344-1.202,6.069c-2.714,2.773-7.53,3.267-10.964,4.716
				c-0.697,0.294-1.345,0.688-2.01,1.035c-1.369,0.705-2.833,1.208-4.341,1.488c-2.424,0.452-5.106-1.934-5.576-4.262
				c-0.33-1.655,0.187-3.359,0.8-4.931c1.333-3.419,3.18-6.684,5.763-9.289c2.567-2.585,7.287-6.369,11.051-4.021
				c1.437,0.897,2.778,2.183,3.789,3.523C119.054,42.113,120.132,44.031,120.49,46.114z"/>
			<path fill="#CC4079" d="M115.826,64.991c-0.056,1.669,0.665,6.736-2.256,5.569c-0.721-0.288-1.293-0.837-1.859-1.362
				c-3.012-2.802-6.435-5.092-9.877-7.325c-2.706-1.759-12.297-5.872-6.61-10.007c0.748-0.543,1.671-0.778,2.583-0.938
				c3.176-0.559,6.471-0.33,9.559,0.578c5.596,1.641,11.21,3.687,15.68,7.42c4.242,3.542-7.195,2.839-7.188,3.247
				C115.866,63.113,115.858,64.052,115.826,64.991z"/>
		</g>
		<g>
			<g>
				<path fill="#724941" d="M22.32,57.92c-4.234-0.892-8.445-0.116-11.509,3.098c-1.417,1.48-2.615,3.407-3.455,5.269
					c-0.732,1.616-1.305,5.112-3.1,5.968c-0.824,0.39-2.24,0.145-2.837,0.894c-1.627,2.053,2.985,5.864,4.234,6.624
					c8.222,5.04,21.454,4.938,26.337-4.76C35.692,67.644,30.145,59.559,22.32,57.92z"/>
			</g>
			<path fill="#CC4079" d="M7.508,46.114c-0.374,2.205-0.485,4.344,1.202,6.069c2.714,2.773,7.529,3.267,10.964,4.716
				c0.696,0.294,1.341,0.688,2.009,1.035c1.369,0.705,2.834,1.208,4.342,1.488c2.419,0.452,5.106-1.934,5.575-4.262
				c0.331-1.655-0.187-3.359-0.803-4.931c-1.333-3.419-3.176-6.684-5.763-9.289c-2.563-2.585-7.283-6.369-11.047-4.021
				c-1.441,0.897-2.778,2.183-3.789,3.523C8.941,42.113,7.858,44.031,7.508,46.114z"/>
			<path fill="#CC4079" d="M12.172,64.991c0.056,1.669-0.665,6.736,2.257,5.569c0.716-0.288,1.293-0.837,1.858-1.362
				c3.013-2.802,6.432-5.092,9.878-7.325c2.706-1.759,12.297-5.872,6.61-10.007c-0.744-0.543-1.671-0.778-2.583-0.938
				c-3.179-0.559-6.471-0.33-9.559,0.578c-5.591,1.641-11.214,3.687-15.679,7.42c-4.242,3.542,7.191,2.839,7.187,3.247
				C12.133,63.113,12.141,64.052,12.172,64.991z"/>
		</g>
		<g>
			<g>
				<g>
					<g>
						<g>
							<path fill="#FBB817" d="M29.452,45.583C41.216,22.7,65.619,15.333,87.228,28.666c14.45,8.926,19.735,30.535,13.866,56.113
								c-2.412,10.554,4.031,12.241,3.693,17.82c-0.657,10.94-17.598,20.146-39.646,20.472
								c-22.046,0.327-39.466-8.341-40.202-19.277c-1.496-22.031-4.262-41.245,3.255-55.862L29.452,45.583"/>
						</g>
					</g>
				</g>
			</g>
			<g>
				<path fill="#724941" d="M31.155,17.126c-1.341,1.271-2.603,2.631-3.765,4.085c-4.155,5.201-6.304,10.829-7.466,17.421
					c-0.652,3.733-0.542,7.565,0.144,11.286c0.561,3.061,1.257,5.894,2.944,8.541c0.701,1.092,1.174,2.157,2.464,1.146
					c1.209-0.947,1.981-2.503,2.845-3.743c1.763-2.529,3.833-4.758,6.22-6.65c0.609-0.486,1.333-0.971,2.085-0.822
					c0.494,0.099,0.899,0.455,1.278,0.804c1.09,1.004,2.643,2.549,4.291,2.212c2.125-0.436,4.266-2.127,6.145-3.16
					c0.525-0.287,1.094-0.585,1.687-0.511c1.218,0.147,2.723,1.52,3.881,2.038c1.866,0.833,3.08,1.448,5.074,0.641
					c1.914-0.774,3.462-2.251,5.516-2.7c1.576-0.347,2.722,0.358,4.06,1.066c1.217,0.645,2.793,1.598,4.17,1.759
					c1.708,0.195,3.287-0.511,4.843-1.118c1.31-0.513,2.571-1.51,4.016-1.669c2.045-0.223,3.279,1.495,4.784,2.663
					c0.7,0.543,1.452,1.081,2.316,1.19c1.122,0.141,2.197-0.462,3.184-1.047c1.357-0.802,2.865-2.33,4.458-1.638
					c0.748,0.327,1.345,0.959,1.838,1.634c1.942,2.625,2.698,5.778,4.441,8.467c0.478,0.736,0.979,0.74,1.664,0.368
					c1.639-0.892,2.559-4.328,3.096-6.035c1.123-3.568,1.584-8.062,1.473-11.833c-0.239-8.303-3.589-16.553-9.026-22.57
					C91.586,9.846,75.592,4.688,63.438,4.929c-6.093,0.123-13.626,1.142-19.202,3.723c-3.092,1.435-5.886,2.73-8.704,4.821
					C34.005,14.601,32.54,15.817,31.155,17.126z"/>
			</g>
		</g>
	</g>
	<g>
		<path fill="#2F2F2F" d="M52.251,62.759c0,3.755-2.511,6.797-5.624,6.797c-3.112,0-5.635-3.042-5.635-6.797
			c0-3.761,2.523-6.803,5.635-6.803C49.74,55.956,52.251,58.998,52.251,62.759"/>
		<path fill="#2F2F2F" d="M74.219,62.759c0,3.755,2.512,6.797,5.631,6.797c3.108,0,5.635-3.042,5.635-6.797
			c0-3.761-2.527-6.803-5.635-6.803C76.73,55.956,74.219,58.998,74.219,62.759"/>
		<path fill="#2F2F2F" d="M65.014,85.55c-0.478,0-0.971-0.018-1.473-0.042c-11.74-0.703-16.197-7.07-16.38-7.342
			c-0.653-0.961-0.398-2.264,0.557-2.919c0.947-0.646,2.245-0.399,2.901,0.545c0.171,0.237,3.657,4.957,13.176,5.518
			c9.492,0.545,13.627-5.651,13.679-5.71c0.613-0.973,1.93-1.254,2.897-0.623c0.967,0.631,1.253,1.927,0.617,2.901
			C80.781,78.206,75.902,85.55,65.014,85.55z"/>
	</g>
</g>
</svg>
