<svg width="128" height="128" style="enable-background:new 0 0 128 128;" xmlns="http://www.w3.org/2000/svg" xmlns:xlink="http://www.w3.org/1999/xlink">
  <g>
    <defs>
      <rect id="SVGID_1_" height="120" width="120" x="4" y="4"/>
    </defs>
    <clipPath id="SVGID_2_">
      <use style="overflow:visible;" xlink:href="#SVGID_1_"/>
    </clipPath>
    <g style="clip-path:url(#SVGID_2_);">
      <g>
        <radialGradient id="SVGID_3_" cx="110.6058" cy="-98.0659" gradientTransform="matrix(0.826 0 0 0.826 -27.1086 73.2711)" gradientUnits="userSpaceOnUse" r="57.9034">
          <stop offset="0" style="stop-color:#BFA055"/>
          <stop offset="1" style="stop-color:#AB872F"/>
        </radialGradient>
        <path d="M47.02,119.76c0,0-6.8-0.35-10.21-5.09c-7.37-10.23-11.42-35.81-11.42-72.02 c0-1.66,0.26-16.41,10.66-26.83C42.8,9.05,52.4,5.62,64.57,5.62c12.08,0,21.52,3.38,28.05,10.04 c9.82,10.02,10.04,24.16,9.99,26.89c0,36.31-4.06,61.89-11.42,72.12c-3.3,4.59-9.79,5.06-10.25,5.09L64,119.73L47.02,119.76z" style="fill:url(#SVGID_3_);"/>
        <path d="M64.57,7.12c11.66,0,20.74,3.23,26.98,9.59c9.6,9.8,9.59,24.2,9.56,25.81l0,0.12 c0,35.9-3.96,61.17-11.14,71.15c-2.84,3.94-8.55,4.43-9.08,4.46l-16.9-0.03l-16.88,0.03c-0.58-0.04-6.25-0.54-9.08-4.46 c-7.18-9.98-11.14-35.24-11.14-71.17c0-0.63,0.08-15.58,10.22-25.75C43.57,10.41,52.81,7.12,64.57,7.12 M64.57,4.12 c-41.01,0-40.68,37.92-40.68,38.52c0,24.56,1.88,59.25,11.71,72.9c3.9,5.41,11.43,5.71,11.43,5.71L64,121.23l16.97,0.03 c0,0,7.53-0.3,11.43-5.71c9.83-13.65,11.71-48.34,11.71-72.9C104.1,42.04,105.58,4.12,64.57,4.12L64.57,4.12z" style="fill:#8F7635;"/>
      </g>
      <g>
        <linearGradient id="SVGID_4_" gradientUnits="userSpaceOnUse" x1="64" x2="64" y1="96.0768" y2="126.549">
          <stop offset="0" style="stop-color:#BBDEFB"/>
          <stop offset="0.2144" style="stop-color:#AED8FA"/>
          <stop offset="0.6099" style="stop-color:#8CC8F8"/>
          <stop offset="1" style="stop-color:#64B5F6"/>
        </linearGradient>
        <path d="M13.77,127v-7.11c0-1.32-0.9-2.47-1.95-3.8c-1.11-1.42-2.37-3.02-2.37-4.7 c0-2.57,2.42-7.12,6.65-12.47c1.25-1.58,3.11-2.48,5.11-2.48c0.46,0,0.92,0.05,1.37,0.15c2.6,0.56,4.57,1.28,5.7,2.07 c1.23,0.87,2.7,1.32,4.23,1.32c0.73,0,1.46-0.11,2.16-0.31c8.13-2.42,18.02-3.7,28.62-3.71h0.13c10.48,0,20.81,1.47,29.1,4.15 c0.73,0.24,1.5,0.36,2.27,0.36c1.64,0,3.24-0.52,4.63-1.51c1.17-0.83,3.21-1.61,5.89-2.24c0.5-0.12,1.01-0.18,1.52-0.18 c2.01,0,3.88,0.9,5.12,2.48c4.19,5.32,6.59,9.83,6.59,12.39c0,2.16-1.2,3.82-2.26,5.29c-0.82,1.13-1.52,2.1-1.52,3.22V127H13.77z " style="fill:url(#SVGID_4_);"/>
        <path d="M63.4,94.45l0.02,3c10.32,0,20.49,1.45,28.64,4.07c0.88,0.28,1.8,0.43,2.73,0.43 c1.95,0,3.85-0.62,5.5-1.79c0.58-0.41,2.05-1.22,5.36-2c0.39-0.09,0.78-0.14,1.18-0.14c1.55,0,2.99,0.69,3.94,1.9 c5.82,7.39,6.27,10.64,6.27,11.47c0,1.67-1,3.06-1.98,4.41c-0.89,1.23-1.8,2.5-1.8,4.09v5.61h-98v-5.61 c0-1.84-1.15-3.31-2.27-4.73c-0.96-1.23-2.05-2.61-2.05-3.77c0-0.83,0.46-4.1,6.33-11.54c0.96-1.22,2.39-1.91,3.93-1.91 c0.35,0,0.71,0.04,1.05,0.11c3.2,0.69,4.61,1.45,5.16,1.83c1.49,1.04,3.25,1.59,5.09,1.59c0.88,0,1.75-0.13,2.59-0.38 c7.99-2.38,17.74-3.64,28.19-3.65l0.1,0V94.45 M63.43,94.45c-0.04,0-0.09,0-0.13,0c-10.2,0.01-20.42,1.21-29.04,3.78 c-0.57,0.17-1.15,0.25-1.73,0.25c-1.19,0-2.38-0.35-3.37-1.05c-1.55-1.09-4.03-1.83-6.25-2.31c-0.56-0.12-1.13-0.18-1.69-0.18 c-2.42,0-4.75,1.1-6.29,3.05c-2.95,3.74-6.98,9.54-6.98,13.4c0,3.77,4.32,6.57,4.32,8.5v8.61h104v-8.61 c0-1.64,3.78-4.22,3.78-8.5c0-3.83-3.97-9.58-6.92-13.32c-1.54-1.96-3.87-3.05-6.3-3.05c-0.62,0-1.24,0.07-1.86,0.22 c-2.28,0.54-4.82,1.34-6.42,2.48c-1.12,0.79-2.43,1.24-3.76,1.24c-0.61,0-1.21-0.09-1.81-0.28 C84.29,95.86,73.88,94.45,63.43,94.45L63.43,94.45z" style="fill:#90CAF9;"/>
      </g>
      <g>
        <path d="M41.12,111.24l-0.09-4.87c-0.17-3.06,3.86-6.5,7.92-8.56l3.85-1.95c0.12-0.06,0.24-0.15,0.32-0.26 l1.7-2.09c0.08-0.1,0.14-0.21,0.18-0.33c0.39-1.26,1.54-2.11,2.86-2.11h12.28c1.32,0,2.47,0.85,2.86,2.1 c0.04,0.12,0.1,0.24,0.18,0.33l1.5,1.84c0.09,0.11,0.19,0.19,0.32,0.26l4.12,2.13c3.73,1.93,8.02,5.3,7.86,8.47l-0.08,4.92 L64,118.56L41.12,111.24z" style="fill:#C48E6A;"/>
        <path d="M70.14,92.08c0.88,0,1.65,0.56,1.91,1.4c0.08,0.24,0.2,0.47,0.36,0.67l1.5,1.84 c0.17,0.21,0.39,0.39,0.63,0.51l4.12,2.13c3.62,1.87,7.45,5.02,7.32,7.53c0,0.02,0,0.05,0,0.07l-0.07,4.17L64,117.51l-21.89-7 l-0.07-4.15c0-0.02,0-0.05,0-0.07c-0.14-2.56,3.72-5.72,7.37-7.57l3.85-1.95c0.25-0.13,0.47-0.31,0.65-0.52l1.7-2.09 c0.16-0.2,0.28-0.42,0.36-0.67c0.26-0.84,1.03-1.4,1.91-1.4H70.14 M70.14,90.08H57.86c-1.75,0-3.3,1.14-3.82,2.81l-1.7,2.09 l-3.85,1.95c-3.54,1.79-8.68,5.51-8.46,9.46l0.1,5.59L64,119.61l23.88-7.74l0.09-5.6c0.21-3.93-4.9-7.61-8.4-9.41l-4.12-2.13 l-1.5-1.84C73.44,91.21,71.89,90.08,70.14,90.08L70.14,90.08z" style="fill:#B07853;"/>
      </g>
      <g>
        <linearGradient id="SVGID_5_" gradientUnits="userSpaceOnUse" x1="64" x2="64" y1="94.7081" y2="17.8854">
          <stop offset="0" style="stop-color:#CCA47A"/>
          <stop offset="0.2568" style="stop-color:#D6B088"/>
          <stop offset="0.5893" style="stop-color:#DEB892"/>
          <stop offset="1" style="stop-color:#E0BB95"/>
        </linearGradient>
        <path d="M64,95.27c-2.3,0-4.91-0.5-7.56-1.43C45.1,89.83,31.87,77.5,31.87,55.95 c0-28.72,17.31-38.91,32.13-38.91s32.13,10.19,32.13,38.91c0,21.58-13.26,33.9-24.61,37.9C68.89,94.78,66.29,95.27,64,95.27z" style="fill:url(#SVGID_5_);"/>
        <path d="M64,18.04L64,18.04c8.41,0,16.06,3.25,21.55,9.15c6.27,6.73,9.58,16.68,9.58,28.77 c0,21.06-12.9,33.07-23.94,36.96c-2.53,0.89-5.01,1.36-7.19,1.36c-2.19,0-4.69-0.48-7.23-1.38c-11.03-3.9-23.9-15.92-23.9-36.94 c0-12.09,3.31-22.03,9.58-28.77C47.94,21.29,55.59,18.04,64,18.04 M64,16.04L64,16.04L64,16.04c-17.2,0-33.13,12.79-33.13,39.91 c0,21.79,13.49,34.67,25.23,38.83c2.8,0.99,5.5,1.49,7.9,1.49c2.38,0,5.07-0.49,7.85-1.47c11.76-4.14,25.28-17.03,25.28-38.84 C97.13,28.83,81.2,16.04,64,16.04L64,16.04z" style="fill:#BA8F63;"/>
      </g>
      <g>
        <defs>
          <path id="SVGID_6_" d="M30.41,88.85l-1.5-51.44c0-16.95,15.78-29.85,32.73-29.85h4.93c16.95,0,32.54,12.9,32.54,29.85 l-1.5,51.18L30.41,88.85z"/>
        </defs>
        <clipPath id="SVGID_7_">
          <use style="overflow:visible;" xlink:href="#SVGID_6_"/>
        </clipPath>
        <g style="clip-path:url(#SVGID_7_);">
          <radialGradient id="SVGID_8_" cx="133.0845" cy="-89.2166" gradientTransform="matrix(0.796 0 0 0.796 -41.9393 70.598)" gradientUnits="userSpaceOnUse" r="48.2064">
            <stop offset="0" style="stop-color:#BFA055"/>
            <stop offset="1" style="stop-color:#AB872F"/>
          </radialGradient>
          <path d="M101.89,42.65c0,0,1.02-35.57-37.81-35.57S26.11,42.65,26.11,42.65s0.33,45.48,3.2,51.39 s7.2,5.71,7.2,5.71s-2.03-26.54-2.26-39.04c-0.06-2.92-0.94-13.73,5.16-15.09c22.36-5.02,35.01-16.89,35.01-16.89 c3.29,7.19,13.58,14.19,17.27,16.86c3.03,2.19,2.61,11.2,2.55,15.03l-3.05,39.06c0,0,4.68,0.37,7.65-5.64 C101.8,88.02,101.89,42.65,101.89,42.65z" style="fill:url(#SVGID_8_);"/>
        </g>
      </g>
      <g>
        <path d="M67.81,68.05c-0.1-0.04-0.21-0.07-0.32-0.08h-6.99c-0.11,0.01-0.21,0.04-0.32,0.08 c-0.63,0.26-0.98,0.91-0.68,1.61c0.3,0.7,1.69,2.66,4.49,2.66c2.8,0,4.19-1.96,4.49-2.66C68.79,68.97,68.45,68.31,67.81,68.05z" style="fill:#C48E6A;"/>
        <g>
          <ellipse cx="47.75" cy="58.87" rx="4.87" ry="5.04" style="fill:#5D4037;"/>
          <ellipse cx="80.25" cy="58.87" rx="4.87" ry="5.04" style="fill:#5D4037;"/>
          <path d="M54.98,49.82c-0.93-1.23-3.07-3.01-7.23-3.01s-6.31,1.79-7.23,3.01 c-0.41,0.54-0.31,1.17-0.02,1.55c0.26,0.35,1.04,0.68,1.9,0.39c0.86-0.29,2.54-1.16,5.35-1.18c2.81,0.02,4.49,0.89,5.35,1.18 c0.86,0.29,1.64-0.03,1.9-0.39C55.29,50.99,55.39,50.36,54.98,49.82z" style="fill:#AB872F;"/>
          <path d="M87.48,49.82c-0.93-1.23-3.07-3.01-7.23-3.01c-4.16,0-6.31,1.79-7.23,3.01 c-0.41,0.54-0.31,1.17-0.02,1.55c0.26,0.35,1.04,0.68,1.9,0.39c0.86-0.29,2.54-1.16,5.35-1.18c2.81,0.02,4.49,0.89,5.35,1.18 c0.86,0.29,1.64-0.03,1.9-0.39C87.79,50.99,87.89,50.36,87.48,49.82z" style="fill:#AB872F;"/>
        </g>
        <path d="M72.32,76.14c-3.15,1.87-13.46,1.87-16.61,0c-1.81-1.07-3.65,0.57-2.9,2.21 c0.74,1.61,6.37,5.36,11.23,5.36s10.42-3.75,11.16-5.36C75.95,76.71,74.12,75.06,72.32,76.14z" style="fill:#6D4C41;"/>
      </g>
    </g>
    <g style="clip-path:url(#SVGID_2_);">
      <linearGradient id="SVGID_9_" gradientUnits="userSpaceOnUse" x1="64" x2="64" y1="6.6062" y2="30.7323">
        <stop offset="0.1224" style="stop-color:#FFFF00"/>
        <stop offset="0.801" style="stop-color:#FFD600"/>
      </linearGradient>
      <path d="M87.81,21.26L83.27,9.53c-0.43-0.85-1.65-0.83-2.06,0.02l-7.06,9.1 c-0.21,0.42-0.81,0.43-1.03,0.01L64.78,4.63c-0.43-0.85-1.65-0.83-2.06,0.02l-7.94,13.99c-0.21,0.43-0.81,0.43-1.03,0.01 l-7.29-9.12c-0.43-0.85-1.65-0.83-2.06,0.02l-4.22,11.69c-0.19,0.4-8.68,6.96-8.68,6.96l-1.47,2.66c0,0.64,0.52,1.15,1.15,1.15 c0,0,7.47-3.68,32.37-3.68S96.82,32,96.82,32c0.64,0,1.15-0.52,1.15-1.15l-1.47-2.66C96.5,28.19,88.01,21.64,87.81,21.26z" style="fill:url(#SVGID_9_);"/>
      <ellipse cx="64" cy="18.1" rx="4.38" ry="5.75" style="fill:#FF1744;"/>
      <ellipse cx="47" cy="21.78" rx="2.88" ry="3.78" style="fill:#2196F3;"/>
      <ellipse cx="81" cy="21.78" rx="2.88" ry="3.78" style="fill:#2196F3;"/>
      <g style="opacity:0.2;">
        <path d="M64,13.34c1.86,0,3.38,2.13,3.38,4.75s-1.52,4.75-3.38,4.75s-3.38-2.13-3.38-4.75 S62.14,13.34,64,13.34 M64,12.34c-2.42,0-4.38,2.58-4.38,5.75c0,3.18,1.96,5.75,4.38,5.75s4.38-2.58,4.38-5.75 C68.38,14.92,66.42,12.34,64,12.34L64,12.34z" style="fill:#424242;"/>
      </g>
      <g style="opacity:0.2;">
        <path d="M47,19c1.02,0,1.88,1.27,1.88,2.78s-0.86,2.78-1.88,2.78c-1.02,0-1.88-1.27-1.88-2.78 S45.98,19,47,19 M47,18c-1.59,0-2.88,1.69-2.88,3.78s1.29,3.78,2.88,3.78s2.88-1.69,2.88-3.78S48.59,18,47,18L47,18z" style="fill:#424242;"/>
      </g>
      <g style="opacity:0.2;">
        <path d="M81,19c1.02,0,1.88,1.27,1.88,2.78s-0.86,2.78-1.88,2.78c-1.02,0-1.88-1.27-1.88-2.78 S79.98,19,81,19 M81,18c-1.59,0-2.88,1.69-2.88,3.78s1.29,3.78,2.88,3.78s2.88-1.69,2.88-3.78S82.59,18,81,18L81,18z" style="fill:#424242;"/>
      </g>
      <path d="M63.77,6.84l7.6,12.79c0.45,0.82,1.31,1.33,2.25,1.33c0.9,0,1.71-0.45,2.18-1.2l6.2-7.98 l3.95,10.19c0.03,0.06,0.05,0.13,0.09,0.19c0.23,0.46,0.39,0.76,8.47,7.01c-4.41-1.14-13.88-2.86-30.96-2.86 c-16.57,0-25.63,1.63-29.95,2.78c7.99-6.19,8.15-6.51,8.38-6.99c0.03-0.06,0.06-0.13,0.08-0.2l3.65-10.12l6.39,8 c0.47,0.73,1.28,1.17,2.16,1.17c0.96,0,1.83-0.52,2.28-1.37L63.77,6.84 M63.76,4c-0.41,0-0.83,0.22-1.04,0.65l-7.94,13.99 c-0.11,0.21-0.31,0.32-0.52,0.32c-0.2,0-0.41-0.1-0.51-0.31l-7.29-9.12c-0.21-0.42-0.62-0.63-1.03-0.63 c-0.41,0-0.83,0.22-1.04,0.65l-4.22,11.69c-0.19,0.4-8.68,6.96-8.68,6.96l-1.47,2.66c0,0.64,0.52,1.15,1.15,1.15 c0,0,7.47-3.68,32.37-3.68S96.82,32,96.82,32c0.64,0,1.15-0.52,1.15-1.15l-1.47-2.66c0,0-8.49-6.55-8.69-6.94L83.27,9.53 c-0.21-0.42-0.62-0.63-1.03-0.63c-0.41,0-0.83,0.22-1.04,0.65l-7.06,9.1c-0.11,0.21-0.31,0.32-0.52,0.32 c-0.2,0-0.41-0.1-0.51-0.31L64.78,4.63C64.57,4.21,64.16,4,63.76,4L63.76,4z" style="fill:#E6B000;"/>
    </g>
  </g>
  <g>
    <g>
      <circle cx="51" cy="96.83" r="3.5" style="fill:#FFF3E0;"/>
      <path d="M51,93.83c1.65,0,3,1.35,3,3s-1.35,3-3,3s-3-1.35-3-3S49.35,93.83,51,93.83 M51,92.83 c-2.21,0-4,1.79-4,4c0,2.21,1.79,4,4,4s4-1.79,4-4C55,94.62,53.21,92.83,51,92.83L51,92.83z" style="fill:#EDDBBE;"/>
    </g>
    <g>
      <circle cx="77" cy="96.83" r="3.5" style="fill:#FFF3E0;"/>
      <path d="M77,93.83c1.65,0,3,1.35,3,3s-1.35,3-3,3s-3-1.35-3-3S75.35,93.83,77,93.83 M77,92.83 c-2.21,0-4,1.79-4,4c0,2.21,1.79,4,4,4s4-1.79,4-4C81,94.62,79.21,92.83,77,92.83L77,92.83z" style="fill:#EDDBBE;"/>
    </g>
    <g>
      <circle cx="56.5" cy="102.83" r="3.5" style="fill:#FFF3E0;"/>
      <path d="M56.5,99.83c1.65,0,3,1.35,3,3s-1.35,3-3,3s-3-1.35-3-3S54.85,99.83,56.5,99.83 M56.5,98.83 c-2.21,0-4,1.79-4,4s1.79,4,4,4s4-1.79,4-4S58.71,98.83,56.5,98.83L56.5,98.83z" style="fill:#EDDBBE;"/>
    </g>
    <g>
      <circle cx="64.5" cy="105.83" r="3.5" style="fill:#FFF3E0;"/>
      <path d="M64.5,102.83c1.65,0,3,1.35,3,3s-1.35,3-3,3s-3-1.35-3-3S62.85,102.83,64.5,102.83 M64.5,101.83 c-2.21,0-4,1.79-4,4s1.79,4,4,4s4-1.79,4-4S66.71,101.83,64.5,101.83L64.5,101.83z" style="fill:#EDDBBE;"/>
    </g>
    <g>
      <circle cx="71.5" cy="102.83" r="3.5" style="fill:#FFF3E0;"/>
      <path d="M71.5,99.83c1.65,0,3,1.35,3,3s-1.35,3-3,3s-3-1.35-3-3S69.85,99.83,71.5,99.83 M71.5,98.83 c-2.21,0-4,1.79-4,4s1.79,4,4,4s4-1.79,4-4S73.71,98.83,71.5,98.83L71.5,98.83z" style="fill:#EDDBBE;"/>
    </g>
  </g>
</svg>