<svg enable-background="new 0 0 128 128" viewBox="0 0 128 128" xmlns="http://www.w3.org/2000/svg" xmlns:xlink="http://www.w3.org/1999/xlink"><radialGradient id="k" cx="67.968" cy="24.784" r="11.817" gradientTransform="matrix(.9554 -.2953 .2953 .9554 -4.7878 6.6522)" gradientUnits="userSpaceOnUse"><stop stop-color="#6D4C41" offset="0"/><stop stop-color="#543930" offset="1"/></radialGradient><path d="m61.3 8.1c1.77-1.17 7.43-1.77 9.09 3.6 2.99 9.68 3.79 11 6.61 12.48 4.06 2.14 5.93-1.57 5.93-1.57s0.91 4.77-1.51 7.4c-2.43 2.63-7.51 2.78-11.76-1.21-6-5.64-11.78-18.44-8.36-20.7z" fill="url(#k)"/><path d="m64.49 8.31c1.42 0 3.96 0.48 4.95 3.69 3.03 9.79 3.89 11.38 7.09 13.07 0.98 0.52 1.95 0.78 2.87 0.78 1.12 0 2.01-0.38 2.69-0.85-0.04 1.46-0.37 3.2-1.41 4.34-0.93 1.02-2.34 1.57-3.95 1.57-2.17 0-4.44-1.01-6.38-2.83-4.76-4.47-9.41-13.63-9.05-17.82 0.04-0.46 0.17-1.07 0.56-1.32 0.47-0.32 1.47-0.63 2.63-0.63m0-1c-1.33 0-2.53 0.36-3.19 0.79-3.42 2.26 2.36 15.06 8.36 20.7 2.29 2.16 4.83 3.1 7.07 3.1 1.9 0 3.58-0.69 4.69-1.9 2.42-2.63 1.51-7.4 1.51-7.4s-1.12 2.24-3.53 2.24c-0.69 0-1.49-0.19-2.4-0.67-2.81-1.49-3.61-2.8-6.61-12.48-1.03-3.37-3.65-4.38-5.9-4.38z" fill="#402821"/><linearGradient id="e" x1="112.28" x2="112.28" y1="89.566" y2="113.04" gradientTransform="matrix(.9716 -.2366 .2366 .9716 -82.578 -49.27)" gradientUnits="userSpaceOnUse"><stop stop-color="#FFCA28" offset=".5453"/><stop stop-color="#FFB300" offset=".834"/><stop stop-color="#E59600" offset=".9947"/></linearGradient><path d="m60.04 8.56c-2.98-3.76-8.84-4.59-13.5-3.43-5.22 1.3-7.76 5.34-8.12 10.24-0.13 1.77 0.06 3.52 0.46 4.73 0.05 0.15 0.43 1.2 0.48 1.54 0.3 1.29-2.11 2.79-2.29 4.25-0.14 1.1 2.18 1.61 2.37 1.79 0.96 0.9-0.06 5.68 6.17 5.6 2.17-0.03 3.22-0.45 3.94 1.07l2.32 3.36 6.93 0.16s-0.97-3.48-0.58-7.35c0.24-2.36 1.89-4.63 3.57-6.68 3.3-4.07 0.74-12.13-1.75-15.28z" fill="url(#e)"/><linearGradient id="d" x1="36.872" x2="63.829" y1="25.347" y2="18.783" gradientUnits="userSpaceOnUse"><stop stop-color="#EDA600" offset="0"/><stop stop-color="#D18900" offset=".8708"/></linearGradient><path d="m50.56 5.65c3.75 0 6.92 1.29 8.7 3.54 2.29 2.89 4.68 10.41 1.73 14.02-1.82 2.22-3.53 4.64-3.79 7.21-0.26 2.6 0.06 5 0.32 6.42l-5.14-0.12-1.99-2.88c-0.72-1.44-1.83-1.64-2.82-1.64-0.27 0-0.58 0.02-0.91 0.03-0.32 0.02-0.68 0.04-1.08 0.04h-0.14c-3.7 0-4.14-1.87-4.54-3.52-0.18-0.74-0.33-1.38-0.8-1.82-0.19-0.18-0.41-0.26-0.76-0.39-0.7-0.26-1.13-0.47-1.28-0.63 0.11-0.39 0.58-0.96 0.96-1.43 0.73-0.88 1.55-1.88 1.3-3.04-0.05-0.32-0.23-0.84-0.46-1.53l-0.04-0.13c-0.37-1.15-0.53-2.77-0.41-4.35 0.21-2.86 1.45-7.87 7.37-9.34 1.22-0.29 2.49-0.44 3.78-0.44m0-1c-1.38 0-2.75 0.17-4.03 0.49-5.22 1.3-7.76 5.34-8.12 10.24-0.13 1.77 0.06 3.52 0.46 4.73 0.05 0.15 0.43 1.2 0.48 1.54 0.3 1.29-2.11 2.79-2.29 4.25-0.14 1.1 2.18 1.61 2.37 1.79 0.96 0.89-0.05 5.6 6.02 5.6h0.16c0.8-0.01 1.45-0.07 1.98-0.07 0.92 0 1.5 0.19 1.95 1.15l2.32 3.36 6.93 0.16s-0.97-3.48-0.58-7.35c0.24-2.36 1.89-4.63 3.57-6.68 3.32-4.07 0.76-12.13-1.72-15.28-2.18-2.75-5.86-3.93-9.5-3.93z" fill="url(#d)"/><radialGradient id="c" cx="44.184" cy="12.759" r="13.186" gradientTransform="matrix(1.0362 -.0706 .0739 .9975 .7747 .7798)" gradientUnits="userSpaceOnUse"><stop stop-color="#6D4C41" offset="0"/><stop stop-color="#543930" offset="1"/></radialGradient><path d="m51.72 26.22 1.45-5.22s3.3 0.69 2.45 4.06c-0.6 2.37 0.87 5.05 1.95 5.28l0.62 0.18c1.1-3.54 5.48-4.64 6.13-13.91 0.58-8.04-6.47-12.5-13.23-12.6-6.47-0.1-13.73 4.21-13.11 13 0.02 0.3 8.45 0.99 10.45 3.06 1.96 2.04 0.38 5.88 3.29 6.15z" fill="url(#c)"/><defs><path id="b" d="m57.83 20.63-0.19 8.65-0.56 0.82s0.33 0.21 0.49 0.24l0.62 0.18c1.1-3.54 5.48-4.64 6.13-13.91 0.58-8.04-6.47-12.5-13.23-12.6-6.47-0.1-13.82 4.53-13.15 13.03 0 0.06 0.99 0.2 0.99 0.2l0.01-1.39 9.82 1.09 9.07 3.69z"/></defs><clipPath id="u"><use xlink:href="#b"/></clipPath><g clip-path="url(#u)"><path d="m50.88 5h0.19c3.83 0.06 7.47 1.57 9.74 4.05 1.85 2.02 2.72 4.61 2.52 7.49-0.41 5.83-2.29 8.15-3.95 10.2-0.66 0.82-1.29 1.6-1.75 2.52-0.54-0.47-1.47-2.25-1.04-3.95 0.33-1.29 0.19-2.42-0.4-3.36-0.93-1.49-2.62-1.88-2.81-1.92-0.07-0.01-0.14-0.02-0.2-0.02-0.44 0-0.84 0.29-0.96 0.73l-1.15 4.11c-0.19-0.29-0.3-0.8-0.45-1.72-0.18-1.18-0.41-2.64-1.48-3.75-1.51-1.57-5.38-2.33-9.21-2.97-0.35-0.06-0.72-0.12-1.02-0.17-0.06-2.89 0.87-5.44 2.7-7.4 2.22-2.41 5.69-3.84 9.27-3.84m0-1c-6.42 0-13.56 4.41-12.94 13 0.02 0.3 8.49 0.99 10.48 3.07 1.96 2.04 0.39 5.88 3.3 6.15l1.45-5.22s3.3 0.69 2.45 4.06c-0.6 2.37 0.87 5.05 1.95 5.28l0.62 0.18c1.1-3.54 5.48-4.64 6.13-13.91 0.58-8.04-6.47-12.5-13.23-12.6-0.07-0.01-0.14-0.01-0.21-0.01z" fill="#452B22"/></g><path d="m42.49 27.04-2.36 0.57s0.34 1.08 0.51 1.51c0.94 2.36 2.79 4.79 7.04 4.17 0.38-0.06-2.5-5.27-2.5-5.27l-2.69-0.98z" fill="none"/><defs><path id="t" d="m60.04 8.56c-2.98-3.76-8.84-4.59-13.5-3.43-6.46 1.61-9.03 6.9-8.24 13.31 0 0 0.62 2.65 0.79 3.78 0.52 2.21-1.38 1.89-1.71 3.59-0.31 1.6 1.86 1.69 2.05 1.87 0.96 0.9-0.06 5.68 6.17 5.6 2.17-0.03 3.22-0.45 3.94 1.07l1.36 4.21 5.82 0.1s0.16-8.81 5.06-14.81c3.31-4.08 0.75-12.14-1.74-15.29z"/></defs><clipPath id="s"><use xlink:href="#t"/></clipPath><g clip-path="url(#s)"><path d="m35.93 28.22c1.54 1.83 4.76 2.82 6.72 1.1 0.75-0.65 0.15-1.27-0.73-0.81-1.42 0.75-4.04 0.02-5.01-1.13-0.63-0.75-1.61 0.09-0.98 0.84z" fill="#795548"/></g><ellipse transform="matrix(.9994 -.0348 .0348 .9994 -.7786 1.4939)" cx="42.5" cy="23.1" rx="1.14" ry="1.75" fill="#404040"/><path d="m41.61 20.52c-1.13 0.27-1.35-0.48-0.95-1.05 0.3-0.42 0.99-0.75 2.27-0.43 1.21 0.3 1.68 1.03 1.98 1.48 0.31 0.44 0.25 0.87-0.04 0.89-0.38 0.03-1.87-1.22-3.26-0.89z" fill="#6D4C41"/><path d="m36.76 60.66s-11.86 1.61-12.59 2.27-0.09 1.53 0.62 1.63 1.98 0.1 1.98 0.1c-0.5 0.47-0.45 1.2 0.08 1.31 2.53 0.53 10.28-3.97 10.28-3.97l-0.37-1.34z" fill="#E59600" stroke="#D18100" stroke-linecap="round" stroke-linejoin="round" stroke-miterlimit="10"/><linearGradient id="r" x1="31.543" x2="54.636" y1="54.47" y2="54.47" gradientUnits="userSpaceOnUse"><stop stop-color="#FFCA28" offset="0"/><stop stop-color="#FFB300" offset="1"/></linearGradient><path d="m33.66 65.46c-0.73 0-1.69-1.31-2.02-2.74-0.17-0.77-0.17-1.68 0.38-1.94l10.76-5.71c0.04-0.02 0.08-0.05 0.12-0.09l-0.09 0.07c0.05-0.04 0.17-0.15 0.2-0.2l6.02-11.36 5.61 2.97-6.79 12.49c-0.05 0.04-0.09 0.08-0.12 0.14-0.33 0.61-0.86 1.08-1.52 1.38-0.04 0.02-0.07 0.04-0.1 0.06l-12.14 4.87c-0.13 0.04-0.22 0.06-0.31 0.06z" fill="url(#r)"/><path d="m49.23 44.16 4.72 2.5-6.51 11.96c-0.06 0.06-0.12 0.14-0.16 0.22-0.28 0.51-0.72 0.91-1.28 1.16-0.05 0.02-0.1 0.05-0.14 0.08l-12.09 4.84-0.06 0.03c-0.03 0.01-0.04 0.01-0.05 0.01-0.35 0-1.22-0.97-1.53-2.35-0.19-0.83-0.05-1.3 0.14-1.4l10.74-5.71 0.09-0.06c0.03-0.02 0.06-0.04 0.08-0.06 0.11-0.09 0.2-0.19 0.26-0.31l5.79-10.91m-0.42-1.35-6.25 11.81c-0.01 0-0.01 0.01-0.02 0.01l-10.74 5.71c-1.84 0.88-0.01 5.63 1.86 5.63 0.16 0 0.32-0.04 0.48-0.11l12.27-4.92-0.01-0.02c0.76-0.34 1.37-0.9 1.76-1.59l0.03 0.02 7.12-13.09-6.5-3.45z" fill="#EDA600"/><defs><path id="q" d="m33.59 59.76 1.4-0.77s-1.34-0.3-2.16-0.12c-0.43 0.1-0.84 0.25-1.31 0.42-0.88 0.32-1.98 0.71-3.75 0.93-2.66 0.31-5.92 0.19-5.95 0.19-0.05 0-0.1 0-0.14 0.01-0.58 0.15-1.01 0.54-1.16 1.06-0.14 0.48-0.01 0.98 0.33 1.35 1.01 1.06 4.63 1.25 6.81 1.12 0.62-0.04 1.71-0.08 2.6-0.12 0.16-0.01 0.23 0.1 0.25 0.15s0.06 0.17-0.04 0.28c-0.4 0.47-0.92 0.89-1.54 1.25-0.77 0.44-1.14 0.93-1.11 1.47 0.04 0.72 0.78 1.15 1.22 1.34 0.34 0.15 0.81 0.16 1.34 0.06 1.94-0.35 4.76-2.05 5.73-3 0.38-0.38 0.91-1.41 0.91-1.41l-1.33 0.43-2.1-4.64z"/></defs><clipPath id="p"><use xlink:href="#q"/></clipPath><linearGradient id="o" x1="50.431" x2="30.317" y1="46.31" y2="59.643" gradientTransform="matrix(.9843 .1766 -.1766 .9843 8.8004 -.2068)" gradientUnits="userSpaceOnUse"><stop stop-color="#FFB300" offset="0"/><stop stop-color="#FFCA28" offset="1"/></linearGradient><path d="m36.33 60.83c-1.08-1.27-1.81-1.22-3.03-0.95-1.17 0.26-2.46 0.72-5.09 1.03-2.64 0.31-5.81 0.18-5.81 0.18-0.82 0.21-1.03 1.04-0.57 1.53 0.73 0.77 3.74 1.07 6.18 0.93 0.6-0.04 1.66-0.08 2.51-0.11 0.64-0.02 1.01 0.72 0.59 1.21-0.35 0.41-0.87 0.88-1.61 1.31-1.7 0.97-0.34 1.68 0.06 1.86 1.23 0.54 4.36-1.21 5.54-2.37 1.09-1.08 2.19-3.5 1.23-4.62z" clip-path="url(#p)" fill="url(#o)" stroke="#EDA600" stroke-linecap="round" stroke-linejoin="round" stroke-miterlimit="10"/><path d="m43.27 50.09 4.68-9.24c0.8-1.58 2.4-2.56 4.17-2.56 0.74 0 1.45 0.17 2.11 0.51l1.07 0.54c1.11 0.56 1.94 1.53 2.33 2.71 0.39 1.19 0.29 2.45-0.27 3.56l-4.68 9.24-9.41-4.76z" fill="#4300D9"/><path d="m52.13 38.79c0.66 0 1.29 0.15 1.88 0.45l1.07 0.54c2.05 1.04 2.87 3.55 1.83 5.61l-4.46 8.8-8.51-4.31 4.46-8.8c0.72-1.41 2.15-2.29 3.73-2.29m0-1c-1.89 0-3.71 1.04-4.62 2.84l-4.91 9.69 10.29 5.22 4.91-9.69c1.29-2.55 0.27-5.66-2.27-6.95l-1.07-0.54c-0.75-0.39-1.55-0.57-2.33-0.57z" fill="#3B00BF"/><circle cx="65.86" cy="64.89" r="6.7" fill="#FBC11B"/><path d="m81.94 92.82c-0.06-0.04-0.12-0.07-0.19-0.08-1.42-0.19-2.66-0.93-3.49-2.07-0.02-0.03-0.04-0.05-0.07-0.08l-17.03-21.65 9.98-7.29 14.35 21.22c0.07 0.11 0.18 0.18 0.31 0.21l23.72 5.2-1.46 7.81-26.12-3.27z" fill="#E59600"/><path d="m71.02 62.37 14.06 20.79c0.14 0.21 0.36 0.36 0.61 0.42l23.25 5.1-1.28 6.87-25.53-3.2c-0.1-0.05-0.21-0.08-0.32-0.1-1.28-0.17-2.4-0.84-3.15-1.87-0.03-0.04-0.06-0.08-0.1-0.11l-16.69-21.23 9.15-6.67m0.24-1.42-10.82 7.9 17.4 22.12h0.01c0.95 1.3 2.35 2.07 3.83 2.27l-0.01 0.06 26.81 3.36 1.63-8.75-24.2-5.3-14.65-21.66z" fill="#D18100"/><polygon points="101.36 95.25 102.93 86.84 109.52 88.28 108.07 96.09" fill="#BDBDBD"/><path d="m103.33 87.44 5.61 1.23-1.28 6.87-5.71-0.71 1.38-7.39m-0.8-1.2-1.76 9.44 7.7 0.96 1.63-8.75-7.57-1.65z" fill="#ABA79F"/><circle cx="66.2" cy="65.1" r="6.7" fill="#FBC11B"/><linearGradient id="n" x1="45.932" x2="71.142" y1="89.95" y2="89.95" gradientUnits="userSpaceOnUse"><stop stop-color="#FFB300" offset="0"/><stop stop-color="#FFCA28" offset="1"/></linearGradient><path d="m48.73 117.68-2.69-24.33c-0.4-3.62 0.41-7.34 2.29-10.47l12.39-20.67 10.43 6.63-14.82 21.54c-0.05 0.08-0.08 0.17-0.09 0.27l-0.85 27.04-6.66-0.01z" fill="url(#n)"/><path d="m60.87 62.9 9.56 6.08-14.51 21.12c-0.11 0.16-0.17 0.34-0.18 0.54l-0.83 26.56-5.74-0.02-2.64-23.89c-0.39-3.52 0.4-7.12 2.22-10.16l12.12-20.23m-0.33-1.39-12.65 21.11c-1.94 3.24-2.77 7.03-2.35 10.78l2.74 24.78 7.61 0.02 0.86-27.53 15.1-21.97-11.31-7.19z" fill="#EDA600"/><polygon points="48.44 116.16 47.76 108.72 55.75 108.74 55.41 116.18" fill="#E0E0E0"/><path d="m48.31 109.22 6.91 0.02-0.29 6.43-6.03-0.02-0.59-6.43m-1.1-1 0.77 8.43 7.9 0.02 0.39-8.43-9.06-0.02z" fill="#CCC7BD"/><path d="m59.78 69.24c-0.01-0.02-0.02-0.04-0.03-0.05-1.18-1.61-1.66-3.58-1.35-5.55s1.36-3.7 2.98-4.88c1.29-0.94 2.81-1.44 4.4-1.44 2.38 0 4.64 1.15 6.04 3.06l8.08 11.69-11.48 8.38-8.64-11.21z" fill="#C62828"/><path d="m65.77 57.82c2.22 0 4.33 1.07 5.62 2.84l7.81 11.3-10.69 7.81-8.31-10.8c-0.01-0.02-0.03-0.05-0.05-0.07-2.27-3.1-1.58-7.47 1.52-9.73 1.2-0.89 2.62-1.35 4.1-1.35m0-1c-1.63 0-3.27 0.5-4.69 1.53-3.55 2.59-4.33 7.58-1.74 11.13l8.97 11.66 12.27-8.96-8.37-12.1c-1.56-2.13-3.98-3.26-6.44-3.26z" fill="#B31919"/><radialGradient id="m" cx="58.457" cy="72.724" r="11.084" gradientUnits="userSpaceOnUse"><stop stop-color="#EF5350" offset=".169"/><stop stop-color="#EA4643" offset=".6208"/><stop stop-color="#E53935" offset=".987"/></radialGradient><path d="m52.65 73.16 7.28-12.13c0.01-0.02 0.03-0.03 0.04-0.05 1.38-2.17 3.74-3.46 6.31-3.46 1.42 0 2.8 0.4 4 1.17 3.47 2.21 4.5 6.83 2.3 10.31l-7.93 11.79-12-7.63z" fill="url(#m)"/><path d="m66.28 58.02c1.32 0 2.61 0.38 3.73 1.09 3.24 2.06 4.2 6.38 2.16 9.6l-7.66 11.4-11.18-7.11 7.02-11.68c0.02-0.02 0.03-0.04 0.05-0.07 1.28-2.02 3.48-3.23 5.88-3.23m0-1c-2.63 0-5.21 1.31-6.73 3.69l-7.57 12.61 12.82 8.15 8.21-12.21c2.36-3.71 1.26-8.64-2.45-11-1.34-0.84-2.82-1.24-4.28-1.24z" fill="#D12724"/><linearGradient id="l" x1="49.026" x2="73.714" y1="50.486" y2="50.486" gradientUnits="userSpaceOnUse"><stop stop-color="#651FFF" offset="0"/><stop stop-color="#5914F2" offset=".7047"/><stop stop-color="#530EEB" offset="1"/></linearGradient><path d="m55.85 67.56c-0.79 0-1.45-0.57-1.53-1.32-0.86-8.05-3.06-16.24-5.18-24.16-0.59-2.2 1.06-6.46 4.46-7.6l2.03-0.54c0.81-0.36 1.62-0.53 2.47-0.53 2.84 0 5.66 1.9 6.69 4.52 3.59 8.02 6.97 15.84 8.87 23.55 0.19 0.78-0.29 1.58-1.08 1.78-2.6 0.69-5.34 1.39-8.08 2.09-2.81 0.72-5.61 1.44-8.24 2.14-0.12 0.05-0.27 0.07-0.41 0.07z" fill="url(#l)"/><path d="m58.11 33.92c2.64 0 5.26 1.77 6.24 4.24 3.71 8.29 6.94 15.77 8.84 23.44 0.13 0.51-0.2 1.04-0.72 1.18-2.59 0.69-5.32 1.39-8.04 2.08-2.77 0.71-5.64 1.45-8.28 2.15-0.1 0.03-0.19 0.04-0.29 0.04-0.54 0-0.98-0.37-1.03-0.87-0.86-8.08-2.97-15.93-5.19-24.23-0.54-2.02 0.98-5.91 4.11-6.99l1-0.26 1.03-0.27c0.05-0.01 0.1-0.03 0.15-0.05 0.66-0.31 1.4-0.46 2.18-0.46m0-1c-0.89 0-1.77 0.17-2.6 0.54-0.69 0.18-1.37 0.36-2.06 0.54-3.6 1.21-5.48 5.63-4.79 8.2 2.19 8.15 4.32 16.1 5.17 24.08 0.11 1.03 1.01 1.77 2.03 1.77 0.18 0 0.36-0.02 0.55-0.07 5.19-1.38 11.04-2.83 16.32-4.23 1.04-0.28 1.69-1.34 1.43-2.39-1.95-7.87-5.37-15.74-8.89-23.61-1.16-2.92-4.2-4.83-7.16-4.83z" fill="#4A00ED"/><linearGradient id="j" x1="63.254" x2="96.42" y1="51.045" y2="51.045" gradientUnits="userSpaceOnUse"><stop stop-color="#FFB300" offset=".0068012"/><stop stop-color="#FFCA28" offset="1"/></linearGradient><path d="m96.13 60.08c-0.31-0.78-0.8-1.58-1.37-2.52-0.55-0.9-4.34-5.09-5.37-5.34-0.19-0.7-7.94-10.28-7.94-10.28v0c-0.47-0.58-1.07-0.98-1.73-1.2l-14.28-4.5-2.18 7.08 13.16 4.06s8.05 7.75 8.06 7.78c0.8 2.45-0.24 6.1 0.5 7.08 0.64 0.86 1.45 0.15 1.75-0.58 0.58-1.42-0.23-3.04 0.83-2.58 1.82 0.78 1.08 6.5 2.5 6.75 0.67 0.12 0.74-1.77 0.56-3.22-0.08-0.67-0.42-1.74-0.37-1.84 0.13-0.21 0.99 0.93 1.39 2.41 0.32 1.21-0.04 2.53 0.92 2.56 0.73 0.03 0.65-1.7 0.25-3.25-0.31-1.22-0.92-2.13-0.75-2.16 0.31-0.05 0.85 0.69 1.26 1.74 0.47 1.21 0.77 2.46 1.18 2.33 0.61-0.2 0.6-1.89 0.12-3.06-0.38-0.94-0.92-1.75-0.78-1.71 1.39 0.33 1.74 3.15 2.08 3.02 0.57-0.2 0.67-1.4 0.21-2.57z" fill="url(#j)" stroke="#EDA602" stroke-linecap="round" stroke-linejoin="round" stroke-miterlimit="10"/><path d="m59.25 43.89c-1.2-0.35-2.19-1.14-2.79-2.23s-0.74-2.35-0.4-3.55l0.36-1.23c0.57-1.99 2.42-3.38 4.49-3.38 0.44 0 0.87 0.06 1.3 0.18l10.06 2.91-2.95 10.21-10.07-2.91z" fill="#4300D9"/><path d="m60.9 33.99c0.39 0 0.78 0.06 1.16 0.16l9.58 2.77-2.67 9.25-9.58-2.77c-1.07-0.31-1.96-1.02-2.5-1.99-0.54-0.98-0.66-2.1-0.36-3.17l0.36-1.23c0.51-1.78 2.16-3.02 4.01-3.02m0-1c-2.25 0-4.31 1.47-4.97 3.74l-0.36 1.23c-0.79 2.74 0.79 5.61 3.53 6.4l10.54 3.04 3.22-11.17-10.53-3.03c-0.47-0.14-0.96-0.21-1.43-0.21z" fill="#3B00BF"/><path d="m40.99 123.36c-0.14 0-0.27-0.05-0.37-0.15-0.09-0.09-0.15-0.22-0.15-0.35v-1.26c0.01-1.44 0.89-2.71 2.25-3.23l5.39-2.04h7.61c0.43 0.52 1.68 2.17 1.68 3.57v2.8c0 0.17-0.07 0.33-0.19 0.46-0.12 0.12-0.29 0.19-0.47 0.19l-15.75 0.01z" fill="#4568AD"/><path d="m55.49 116.82c0.54 0.7 1.42 2.04 1.42 3.07v2.8c0 0.04-0.01 0.07-0.04 0.1-0.02 0.02-0.06 0.05-0.12 0.05l-15.77 0.02 0.01-1.26c0.01-1.23 0.77-2.32 1.92-2.77l5.3-2.01h7.28m0.47-1h-7.93l-5.48 2.07c-1.54 0.6-2.55 2.06-2.57 3.69l-0.01 1.27c0 0.55 0.45 1 1.01 1l15.76-0.02c0.64 0 1.16-0.51 1.16-1.15v-2.8c0.01-1.89-1.94-4.06-1.94-4.06z" fill="#315499"/><path d="m113.22 104.6-1.24-0.24c-1.41-0.28-2.49-1.38-2.76-2.8l-1.01-5.67 1.4-7.48c0.52-0.28 2.01-1.04 3.31-1.04 0.17 0 0.34 0.01 0.51 0.04l2.75 0.51c0.35 0.07 0.58 0.41 0.52 0.77l-2.89 15.5c-0.05 0.24-0.25 0.42-0.49 0.42-0.03 0-0.06-0.01-0.1-0.01z" fill="#325599"/><path d="m112.92 87.87c0.15 0 0.29 0.01 0.42 0.04l2.75 0.51c0.04 0.01 0.07 0.03 0.09 0.06s0.04 0.07 0.02 0.12l-2.89 15.51-1.24-0.24c-1.21-0.24-2.14-1.18-2.37-2.4l-1-5.58 1.34-7.16c0.7-0.35 1.9-0.86 2.88-0.86m0-1c-1.76 0-3.76 1.22-3.76 1.22l-1.46 7.8 1.03 5.76c0.3 1.62 1.55 2.89 3.16 3.2l1.24 0.24c0.06 0.01 0.13 0.02 0.19 0.02 0.47 0 0.9-0.34 0.99-0.83l2.89-15.5c0.12-0.63-0.29-1.23-0.91-1.35l-2.75-0.51c-0.21-0.04-0.41-0.05-0.62-0.05z" fill="#224487"/><radialGradient id="i" cx="19.497" cy="77.152" r="12.221" gradientUnits="userSpaceOnUse"><stop stop-color="#FB8C00" offset=".0169"/><stop stop-color="#F47900" offset=".4423"/><stop stop-color="#EF6C00" offset=".8381"/></radialGradient><path d="m34.85 80.96c0 6.07-5.07 11-11.33 11-6.25 0-11.32-4.93-11.32-11s5.07-11 11.32-11c6.26 0 11.33 4.92 11.33 11z" fill="url(#i)"/><defs><path id="h" d="m34.85 80.96c0 6.07-5.07 11-11.33 11-6.25 0-11.32-4.93-11.32-11s5.07-11 11.32-11c6.26 0 11.33 4.92 11.33 11z"/></defs><clipPath id="g"><use xlink:href="#h"/></clipPath><g clip-path="url(#g)"><radialGradient id="a" cx="17.566" cy="75.77" r="15.891" gradientUnits="userSpaceOnUse"><stop stop-color="#FFA726" offset=".0169"/><stop stop-color="#FC950D" offset=".4938"/><stop stop-color="#FB8C00" offset=".8381"/></radialGradient><path d="m21.16 92.57s-6.61-7.09-4.01-17.33c1.08-4.26 4.56-5.5 4.56-5.5h2.4s-4.76 0.91-5.75 6.19c-1.81 9.69 6.36 16.92 6.36 16.92l-3.56-0.28z" fill="url(#a)"/><path d="m16.06 72.13s-0.24 1.88 2.27 1.88c5.27 0 8.21-3.43 12.43-2.35l-2.2-1.1s-1.26-0.24-2.37 0.11c-1.1 0.35-4.99 2.36-7.43 2.4-2.6 0.04-1.56-1.77-1.56-1.77l-1.14 0.83z" fill="url(#a)"/><path d="m11.81 84.37s0.98-5.86 5.45-6.34c3.77-0.41 6.44 1.37 8.99 3.22 4.61 3.34 6.78 7.58 6.78 7.58l-1.58 2.36s-1.21-3.8-6.55-8.77c-2.01-1.87-4.78-3.34-7.65-3.06-4.51 0.44-3.91 8.06-3.91 8.06l-1.53-3.05z" fill="url(#a)"/><radialGradient id="f" cx="18.536" cy="76.366" r="19.528" gradientUnits="userSpaceOnUse"><stop stop-color="#FFA726" offset=".0169"/><stop stop-color="#FC950D" offset=".4938"/><stop stop-color="#FB8C00" offset=".8381"/></radialGradient><path d="m11.41 77.72s1.7-2.24 6.32-2.63c10.79-0.93 18.23 6.74 18.23 6.74l0.58 3.65s-8.48-10.02-18.89-9.22c-5.03 0.39-6.24 3.47-6.24 3.47v-2.01z" fill="url(#f)"/></g><path d="m34.85 80.96c0 6.07-5.07 11-11.33 11-6.25 0-11.32-4.93-11.32-11s5.07-11 11.32-11c6.26 0 11.33 4.92 11.33 11z" fill="none" stroke="#D95A1E" stroke-linecap="round" stroke-linejoin="round" stroke-miterlimit="10"/></svg>
