<svg enable-background="new 0 0 128 128" viewBox="0 0 128 128" xmlns="http://www.w3.org/2000/svg" xmlns:xlink="http://www.w3.org/1999/xlink"><path d="m119.53 108.05h-111.31c-2.4 0-4.35-1.95-4.35-4.35v-67.46c0-2.41 1.95-4.37 4.37-4.37h111.27c2.41 0 4.37 1.95 4.37 4.37v67.46c0 2.41-1.95 4.35-4.35 4.35z" fill="#9E7E54"/><path d="m119.65 95.88h-111.55c-2.33 0-4.22-1.89-4.22-4.22v-55.42c0-2.41 1.95-4.37 4.37-4.37h111.27c2.41 0 4.37 1.95 4.37 4.37v55.41c-0.01 2.34-1.9 4.23-4.24 4.23z" fill="#F4C77F"/><linearGradient id="c" x1="63.875" x2="63.875" y1="94.375" y2="31.979" gradientUnits="userSpaceOnUse"><stop stop-color="#757575" offset=".00087691"/><stop stop-color="#BDBDBD" offset=".9988"/></linearGradient><path d="m119.65 95.88h-111.55c-2.33 0-4.22-1.89-4.22-4.22v-55.42c0-2.41 1.95-4.37 4.37-4.37h111.27c2.41 0 4.37 1.95 4.37 4.37v55.41c-0.01 2.34-1.9 4.23-4.24 4.23z" fill="url(#c)" opacity=".3"/><circle cx="84.65" cy="63.88" r="18.5" fill="#9E7E54" opacity=".5"/><path d="m106.33 39.06c0.86 5.4 5.14 9.68 10.54 10.54v28.54c-5.4 0.86-9.68 5.14-10.54 10.54h-85.03c-1.1-5.11-5.26-9.05-10.42-9.87v-28.54c5.63-0.89 10.03-5.49 10.63-11.21h84.82m1.84-2h-88.61c0.01 0.22 0.02 0.44 0.02 0.67 0 5.91-4.79 10.7-10.7 10.7v32.23c5.68 0 10.33 4.43 10.68 10.03h88.61c0-5.91 4.79-10.7 10.7-10.7v-32.23c-5.91 0-10.7-4.79-10.7-10.7z" fill="#9E7E54"/><rect x="52.87" y="31.88" width="22.01" height="76.18" fill="#FFECB3"/><g opacity=".2"><path d="m119.51 32.88c1.86 0 3.37 1.51 3.37 3.37v67.46c0 1.85-1.5 3.35-3.35 3.35h-111.31c-1.85 0-3.35-1.5-3.35-3.35v-67.47c0-1.86 1.51-3.37 3.37-3.37h111.27m0-0.99h-111.27c-2.41 0-4.37 1.95-4.37 4.37v67.46c0 2.4 1.95 4.35 4.35 4.35h111.3c2.4 0 4.35-1.95 4.35-4.35v-67.47c0.01-2.41-1.95-4.36-4.36-4.36z" fill="#424242"/></g><path d="m36.39 61.43 6.16-13.25c0.17-0.37 0.55-0.61 0.96-0.61h3.05c0.48 0 0.78 0.5 0.57 0.93l-7.3 14.31c-0.21 0.41 0.09 0.89 0.55 0.89h4.13c0.4 0 0.72 0.32 0.72 0.72v1.36c0 0.4-0.32 0.72-0.72 0.72h-5.92c-0.34 0-0.62 0.28-0.62 0.62v2.45c0 0.34 0.28 0.62 0.62 0.62h5.92c0.4 0 0.72 0.32 0.72 0.72v1.34c0 0.4-0.32 0.72-0.72 0.72h-5.92c-0.34 0-0.62 0.28-0.62 0.62v5.79c0 0.44-0.36 0.8-0.8 0.8h-2.72c-0.44 0-0.8-0.36-0.8-0.8v-5.79c0-0.34-0.28-0.62-0.62-0.62h-5.79c-0.4 0-0.72-0.32-0.72-0.72v-1.34c0-0.4 0.32-0.72 0.72-0.72h5.79c0.34 0 0.62-0.28 0.62-0.62v-2.45c0-0.34-0.28-0.62-0.62-0.62h-5.79c-0.4 0-0.72-0.32-0.72-0.72v-1.36c0-0.4 0.32-0.72 0.72-0.72h4.17c0.46 0 0.75-0.48 0.55-0.89l-7.3-14.31c-0.22-0.42 0.09-0.93 0.57-0.93h3.12c0.41 0 0.79 0.24 0.96 0.61l6.16 13.25c0.19 0.39 0.74 0.39 0.92 0z" fill="#fff"/><rect x="52.87" y="95.88" width="22.01" height="12.18" fill="#FFB74D" opacity=".5"/><g display="none"><g display="inline"><g opacity=".6"><circle cx="64" cy="64" r="28" fill="none" opacity=".61" stroke="#000" stroke-miterlimit="10" stroke-width=".2625"/><line x1="83.5" x2="83.5" y2="128" fill="none" opacity=".61" stroke="#000" stroke-miterlimit="10"/><line x1="43.5" x2="43.5" y2="128" fill="none" opacity=".61" stroke="#000" stroke-miterlimit="10"/><line x1="63.5" x2="63.5" y2="128" fill="none" opacity=".61" stroke="#000" stroke-miterlimit="10"/><line x1="128" y1="64.5" y2="64.5" fill="none" opacity=".61" stroke="#000" stroke-miterlimit="10"/><line x1="128" y1="44.5" y2="44.5" fill="none" opacity=".61" stroke="#000" stroke-miterlimit="10"/><line x1="128" y1="83.5" y2="83.5" fill="none" opacity=".61" stroke="#000" stroke-miterlimit="10"/><line x1="128" y1="128" fill="none" opacity=".61" stroke="#000" stroke-miterlimit="10" stroke-width=".25"/><line x2="128" y1="128" fill="none" opacity=".61" stroke="#000" stroke-miterlimit="10" stroke-width=".25"/><g opacity=".61"><path d="M64,4.26c32.94,0,59.74,26.8,59.74,59.74S96.94,123.74,64,123.74S4.26,96.94,4.26,64S31.06,4.26,64,4.26 M64,4 C30.86,4,4,30.86,4,64s26.86,60,60,60s60-26.86,60-60S97.14,4,64,4L64,4z"/></g><path d="m115.5 108.47c0 4.43-3.59 8.03-8.03 8.03h-87.94c-4.43 0-8.03-3.59-8.03-8.03v-87.94c0-4.43 3.59-8.03 8.03-8.03h87.94c4.43 0 8.03 3.59 8.03 8.03v87.94z" fill="none" opacity=".61" stroke="#000" stroke-miterlimit="10"/><path d="m107.5 116.5c0 4.42-3.58 8-8 8h-72c-4.42 0-8-3.58-8-8v-104c0-4.42 3.58-8 8-8h72c4.42 0 8 3.58 8 8v104z" fill="none" opacity=".61" stroke="#000" stroke-miterlimit="10"/><path d="M123.5,98.27c0,5.65-4.58,10.23-10.23,10.23H13.73 c-5.65,0-10.23-4.58-10.23-10.23V30.73c0-5.65,4.58-10.23,10.23-10.23h99.54c5.65,0,10.23,4.58,10.23,10.23V98.27z" fill="none" opacity=".61" stroke="#000" stroke-miterlimit="10"/></g><g opacity=".2"><defs><rect id="b" width="128" height="128" opacity=".2"/></defs><clipPath id="a"><use xlink:href="#b"/></clipPath><g clip-path="url(#a)"><g fill="none" stroke="#000" stroke-miterlimit="10"><line x1="-28.5" x2="-28.5" y1="160" y2="-32"/><line x1="-24.5" x2="-24.5" y1="160" y2="-32"/><line x1="-20.5" x2="-20.5" y1="160" y2="-32"/><line x1="-16.5" x2="-16.5" y1="160" y2="-32"/><line x1="-12.5" x2="-12.5" y1="160" y2="-32"/><line x1="-8.5" x2="-8.5" y1="160" y2="-32"/><line x1="-4.5" x2="-4.5" y1="160" y2="-32"/><line x1="-.5" x2="-.5" y1="160" y2="-32"/><line x1="3.5" x2="3.5" y1="160" y2="-32"/><line x1="7.5" x2="7.5" y1="160" y2="-32"/><line x1="11.5" x2="11.5" y1="160" y2="-32"/><line x1="15.5" x2="15.5" y1="160" y2="-32"/><line x1="19.5" x2="19.5" y1="160" y2="-32"/><line x1="23.5" x2="23.5" y1="160" y2="-32"/><line x1="27.5" x2="27.5" y1="160" y2="-32"/><line x1="31.5" x2="31.5" y1="160" y2="-32"/><line x1="35.5" x2="35.5" y1="160" y2="-32"/><line x1="39.5" x2="39.5" y1="160" y2="-32"/><line x1="43.5" x2="43.5" y1="160" y2="-32"/><line x1="47.5" x2="47.5" y1="160" y2="-32"/><line x1="51.5" x2="51.5" y1="160" y2="-32"/><line x1="55.5" x2="55.5" y1="160" y2="-32"/><line x1="59.5" x2="59.5" y1="160" y2="-32"/><line x1="63.5" x2="63.5" y1="160" y2="-32"/><line x1="67.5" x2="67.5" y1="160" y2="-32"/><line x1="71.5" x2="71.5" y1="160" y2="-32"/><line x1="75.5" x2="75.5" y1="160" y2="-32"/><line x1="79.5" x2="79.5" y1="160" y2="-32"/><line x1="83.5" x2="83.5" y1="160" y2="-32"/><line x1="87.5" x2="87.5" y1="160" y2="-32"/><line x1="91.5" x2="91.5" y1="160" y2="-32"/><line x1="95.5" x2="95.5" y1="160" y2="-32"/><line x1="99.5" x2="99.5" y1="160" y2="-32"/><line x1="103.5" x2="103.5" y1="160" y2="-32"/><line x1="107.5" x2="107.5" y1="160" y2="-32"/><line x1="111.5" x2="111.5" y1="160" y2="-32"/><line x1="115.5" x2="115.5" y1="160" y2="-32"/><line x1="119.5" x2="119.5" y1="160" y2="-32"/><line x1="123.5" x2="123.5" y1="160" y2="-32"/><line x1="127.5" x2="127.5" y1="160" y2="-32"/><line x1="131.5" x2="131.5" y1="160" y2="-32"/><line x1="135.5" x2="135.5" y1="160" y2="-32"/><line x1="136.5" x2="136.5" y1="166" y2="-26"/><line x1="143.5" x2="143.5" y1="160" y2="-32"/><line x1="147.5" x2="147.5" y1="160" y2="-32"/><line x1="151.5" x2="151.5" y1="160" y2="-32"/><line x1="155.5" x2="155.5" y1="160" y2="-32"/></g><g fill="none" stroke="#000" stroke-miterlimit="10"><line x1="-32" x2="160" y1="-27.5" y2="-27.5"/><line x1="-32" x2="160" y1="-23.5" y2="-23.5"/><line x1="-32" x2="160" y1="-19.5" y2="-19.5"/><line x1="-32" x2="160" y1="-15.5" y2="-15.5"/><line x1="-32" x2="160" y1="-11.5" y2="-11.5"/><line x1="-32" x2="160" y1="-7.5" y2="-7.5"/><line x1="-32" x2="160" y1="-3.5" y2="-3.5"/><line x1="-32" x2="160" y1=".5" y2=".5"/><line x1="-32" x2="160" y1="4.5" y2="4.5"/><line x1="-32" x2="160" y1="8.5" y2="8.5"/><line x1="-32" x2="160" y1="12.5" y2="12.5"/><line x1="-32" x2="160" y1="16.5" y2="16.5"/><line x1="-32" x2="160" y1="20.5" y2="20.5"/><line x1="-32" x2="160" y1="24.5" y2="24.5"/><line x1="-32" x2="160" y1="28.5" y2="28.5"/><line x1="-32" x2="160" y1="32.5" y2="32.5"/><line x1="-32" x2="160" y1="36.5" y2="36.5"/><line x1="-32" x2="160" y1="40.5" y2="40.5"/><line x1="-32" x2="160" y1="44.5" y2="44.5"/><line x1="-32" x2="160" y1="48.5" y2="48.5"/><line x1="-32" x2="160" y1="52.5" y2="52.5"/><line x1="-32" x2="160" y1="56.5" y2="56.5"/><line x1="-32" x2="160" y1="60.5" y2="60.5"/><line x1="-32" x2="160" y1="64.5" y2="64.5"/><line x1="-32" x2="160" y1="68.5" y2="68.5"/><line x1="-32" x2="160" y1="72.5" y2="72.5"/><line x1="-32" x2="160" y1="76.5" y2="76.5"/><line x1="-32" x2="160" y1="80.5" y2="80.5"/><line x1="-32" x2="160" y1="84.5" y2="84.5"/><line x1="-32" x2="160" y1="88.5" y2="88.5"/><line x1="-32" x2="160" y1="92.5" y2="92.5"/><line x1="-32" x2="160" y1="96.5" y2="96.5"/><line x1="-32" x2="160" y1="100.5" y2="100.5"/><line x1="-32" x2="160" y1="104.5" y2="104.5"/><line x1="-32" x2="160" y1="108.5" y2="108.5"/><line x1="-32" x2="160" y1="112.5" y2="112.5"/><line x1="-32" x2="160" y1="116.5" y2="116.5"/><line x1="-32" x2="160" y1="120.5" y2="120.5"/><line x1="-32" x2="160" y1="124.5" y2="124.5"/><line x1="-32" x2="160" y1="128.5" y2="128.5"/><line x1="-32" x2="160" y1="132.5" y2="132.5"/><line x1="-32" x2="160" y1="136.5" y2="136.5"/><line x1="-32" x2="160" y1="140.5" y2="140.5"/><line x1="-32" x2="160" y1="144.5" y2="144.5"/><line x1="-32" x2="160" y1="148.5" y2="148.5"/><line x1="-32" x2="160" y1="152.5" y2="152.5"/><line x1="-32" x2="160" y1="156.5" y2="156.5"/></g><path d="m160-32v192h-192v-192h192-192v192h192v-192z"/></g></g><g fill="#F44336"><rect width="4" height="128" opacity=".3"/><rect x="124" width="4" height="128" opacity=".3"/><rect transform="matrix(-1.837e-16 1 -1 -1.837e-16 66 -62)" x="62" y="-58" width="4" height="120" opacity=".3"/><rect transform="matrix(-1.837e-16 1 -1 -1.837e-16 190 62)" x="62" y="66" width="4" height="120" opacity=".3"/></g></g></g></svg>
