<svg xmlns="http://www.w3.org/2000/svg" width="128" height="128"><path d="M80.67 35.35c0 2.19-1.8 3.99-3.99 3.99H51.33c-2.2 0-3.99-1.8-3.99-3.99V24.56c0-2.2 1.8-3.99 3.99-3.99h25.34c2.19 0 3.99 1.79 3.99 3.99v10.79z" fill="#2f2f2f"/><g fill="#2f2f2f"><path d="M93.35 120.07c0 4.38 3.53 7.93 7.91 7.93 4.38 0 7.91-3.56 7.91-7.93V87.99c0-4.36-3.53-7.91-7.91-7.91-4.38 0-7.91 3.55-7.91 7.91zM19.37 120.07c0 4.38 3.54 7.93 7.91 7.93 4.38 0 7.91-3.56 7.91-7.93V87.99c0-4.36-3.54-7.91-7.91-7.91s-7.91 3.55-7.91 7.91z"/></g><path d="M106.23 72.54H21.76c-6.58 0-11.97 4.2-11.97 9.33v25.05c0 2.2 1.8 3.99 4 3.99h100.42c2.19 0 3.99-1.8 3.99-3.99V81.87c.01-5.13-5.38-9.33-11.97-9.33z" fill="#fcc21b"/><g fill="#fff"><circle r="7.59" cy="90.43" cx="27.67"/><path d="M93.75 90.43c0 4.19 3.4 7.59 7.6 7.59 4.18 0 7.59-3.4 7.59-7.59 0-4.19-3.4-7.59-7.59-7.59-4.2 0-7.6 3.4-7.6 7.59z"/></g><path d="M108.01 68.29v-.03l-6.53-24.12c-1.17-4.31-5.79-7.85-10.26-7.85H36.79c-4.48 0-9.1 3.54-10.27 7.85l-6.53 24.12c-.01.01-.01.03-.01.04l-2.12 7.81h92.28z" fill="#fcc21b"/><path d="M93.75 47.48c-.47-2.19-2.68-3.98-4.92-3.98H39.16c-2.24 0-4.45 1.79-4.92 3.98L29.83 68.2c-.47 2.19.99 3.98 3.22 3.98h61.9c2.24 0 3.69-1.79 3.22-3.98z" fill="#40c0e7"/><text style="line-height:1.25;-inkscape-font-specification:'Comic Neue';font-variant-ligatures:normal;font-variant-caps:normal;font-variant-numeric:normal;font-feature-settings:normal;text-align:start" x="51.544" y="32.879" font-weight="400" font-size="11.045" font-family="Comic Neue" letter-spacing="0" word-spacing="0" fill="#fff" stroke-width=".592"><tspan x="51.544" y="32.879" style="-inkscape-font-specification:'Comic Neue Bold'" font-weight="700">TAXI</tspan></text></svg>