<svg width="128" height="128" style="enable-background:new 0 0 128 128;" xmlns="http://www.w3.org/2000/svg" xmlns:xlink="http://www.w3.org/1999/xlink">
  <g>
    <linearGradient id="SVGID_1_" gradientUnits="userSpaceOnUse" x1="64" x2="64" y1="-0.3333" y2="128.0974">
      <stop offset="0" style="stop-color:#29B6F6"/>
      <stop offset="0.5369" style="stop-color:#169FE4"/>
      <stop offset="0.9954" style="stop-color:#0288D1"/>
    </linearGradient>
    <path d="M116,124H12c-4.42,0-8-3.58-8-8V12c0-4.42,3.58-8,8-8h104c4.42,0,8,3.58,8,8v104 C124,120.42,120.42,124,116,124z" style="fill:url(#SVGID_1_);"/>
    <g style="opacity:0.2;">
      <path d="M116,7c2.76,0,5,2.24,5,5v104c0,2.76-2.24,5-5,5H12c-2.76,0-5-2.24-5-5V12c0-2.76,2.24-5,5-5H116 M116,4H12c-4.42,0-8,3.58-8,8v104c0,4.42,3.58,8,8,8h104c4.42,0,8-3.58,8-8V12C124,7.58,120.42,4,116,4L116,4z" style="fill:#424242;"/>
    </g>
    <g style="opacity:0.2;">
      <path d="M38.61,36c4.44,0,8.38,1.07,11.81,3.2c3.43,2.13,6.08,5.2,7.96,9.21 c1.87,4.01,2.82,8.67,2.84,13.98v3.03c0,5.34-0.92,10.03-2.77,14.06c-1.85,4.03-4.49,7.13-7.92,9.28 C47.1,90.92,43.15,92,38.68,92c-4.42,0-8.35-1.08-11.81-3.24c-3.46-2.16-6.13-5.23-8.01-9.23c-1.88-3.99-2.84-8.6-2.86-13.81 v-3.07c0-5.32,0.94-10.01,2.83-14.07c1.88-4.07,4.54-7.18,7.97-9.34C30.23,37.08,34.17,36,38.61,36 M38.68,84.21 c4.19,0,7.42-1.6,9.68-4.79c2.26-3.19,3.39-7.86,3.39-14v-2.84c0-6.04-1.14-10.67-3.43-13.89c-2.28-3.22-5.52-4.83-9.71-4.83 c-4.09,0-7.29,1.6-9.6,4.81c-2.31,3.21-3.49,7.74-3.54,13.61v3.14c0,5.99,1.17,10.62,3.5,13.89 C31.3,82.58,34.54,84.21,38.68,84.21 M38.61,33c-4.99,0-9.51,1.24-13.41,3.7c-3.91,2.46-6.97,6.03-9.1,10.62 c-2.06,4.45-3.1,9.61-3.1,15.34v3.07c0.03,5.65,1.09,10.72,3.15,15.09c2.12,4.5,5.2,8.03,9.13,10.49 c3.92,2.45,8.43,3.69,13.4,3.69c5.02,0,9.54-1.24,13.45-3.7c3.92-2.46,6.96-6.02,9.05-10.57c2.02-4.41,3.04-9.56,3.04-15.31 v-3.03c-0.03-5.74-1.08-10.86-3.13-15.25c-2.12-4.52-5.17-8.05-9.09-10.49C48.11,34.23,43.6,33,38.61,33L38.61,33z M38.68,81.21 c-3.19,0-5.5-1.16-7.27-3.65c-1.95-2.73-2.94-6.82-2.94-12.15v-3.14c0.04-5.18,1.04-9.18,2.97-11.85 c1.75-2.43,4.03-3.56,7.17-3.56c3.23,0,5.54,1.13,7.27,3.56c1.91,2.69,2.87,6.78,2.87,12.15v2.84c0,5.48-0.95,9.61-2.84,12.27 C44.21,80.09,41.92,81.21,38.68,81.21L38.68,81.21z" style="fill:#424242;"/>
      <path d="M108.31,36c1.75,0,2.7,2.04,1.57,3.38L92.92,59.6c-0.6,0.71-0.64,1.74-0.1,2.51l18.8,26.66 c0.96,1.36-0.01,3.24-1.68,3.24h-6.5c-0.67,0-1.3-0.33-1.69-0.88L86.97,69.88C86.56,69.3,85.92,69,85.28,69 c-0.54,0-1.08,0.21-1.49,0.65l-4.05,4.3c-0.36,0.38-0.56,0.89-0.56,1.41v14.59c0,1.13-0.92,2.05-2.05,2.05H71.5 c-1.13,0-2.05-0.92-2.05-2.05V38.05c0-1.13,0.92-2.05,2.05-2.05h5.62c1.13,0,2.05,0.92,2.05,2.05v18.41 c0,1.26,1.02,2.06,2.07,2.06c0.57,0,1.15-0.24,1.58-0.77l1.73-2.14l15.77-18.88c0.39-0.47,0.97-0.74,1.58-0.74H108.31 M108.31,33 h-6.4c-1.5,0-2.92,0.66-3.88,1.81L82.26,53.69l-0.08,0.1V38.05c0-2.79-2.27-5.05-5.05-5.05H71.5c-2.79,0-5.05,2.27-5.05,5.05 v51.89c0,2.79,2.27,5.05,5.05,5.05h5.62c2.79,0,5.05-2.27,5.05-5.05V75.73l3-3.18l14.12,20.28c0.94,1.36,2.5,2.17,4.15,2.17h6.5 c1.9,0,3.62-1.05,4.49-2.73c0.87-1.68,0.74-3.69-0.36-5.24L95.69,60.97l16.49-19.66c1.28-1.52,1.55-3.59,0.71-5.39 C112.05,34.12,110.29,33,108.31,33L108.31,33z" style="fill:#424242;"/>
    </g>
    <g>
      <path d="M61.22,65.42c0,5.34-0.92,10.03-2.77,14.06c-1.85,4.03-4.49,7.13-7.92,9.28 C47.1,90.92,43.15,92,38.68,92c-4.42,0-8.35-1.08-11.81-3.24c-3.46-2.16-6.13-5.23-8.01-9.23c-1.88-3.99-2.84-8.6-2.86-13.81 v-3.07c0-5.32,0.94-10.01,2.83-14.07s4.54-7.18,7.97-9.34C30.23,37.08,34.17,36,38.61,36c4.44,0,8.38,1.07,11.81,3.2 c3.43,2.13,6.08,5.2,7.96,9.21c1.87,4.01,2.82,8.67,2.84,13.98V65.42z M51.75,62.58c0-6.04-1.14-10.67-3.43-13.89 c-2.28-3.22-5.52-4.83-9.71-4.83c-4.09,0-7.29,1.6-9.6,4.81c-2.31,3.21-3.49,7.74-3.54,13.61v3.14c0,5.99,1.17,10.62,3.5,13.89 c2.33,3.27,5.57,4.9,9.71,4.9c4.19,0,7.42-1.6,9.68-4.79c2.26-3.19,3.39-7.86,3.39-14V62.58z" style="fill:#FAFAFA;"/>
      <path d="M83.79,69.65l-4.05,4.3c-0.36,0.38-0.56,0.89-0.56,1.41v14.59c0,1.13-0.92,2.05-2.05,2.05H71.5 c-1.13,0-2.05-0.92-2.05-2.05V38.05c0-1.13,0.92-2.05,2.05-2.05h5.62c1.13,0,2.05,0.92,2.05,2.05v18.41c0,1.94,2.43,2.8,3.65,1.29 l1.73-2.14l15.77-18.88c0.39-0.47,0.97-0.74,1.58-0.74h6.4c1.75,0,2.7,2.04,1.57,3.38L92.92,59.6c-0.6,0.71-0.64,1.74-0.1,2.51 l18.8,26.66c0.96,1.36-0.01,3.24-1.68,3.24h-6.5c-0.67,0-1.3-0.33-1.69-0.88L86.97,69.88C86.22,68.81,84.68,68.7,83.79,69.65z" style="fill:#FAFAFA;"/>
    </g>
  </g>
</svg>