<?xml version="1.0" encoding="UTF-8" standalone="no"?>
<svg
   xmlns:dc="http://purl.org/dc/elements/1.1/"
   xmlns:cc="http://creativecommons.org/ns#"
   xmlns:rdf="http://www.w3.org/1999/02/22-rdf-syntax-ns#"
   xmlns:svg="http://www.w3.org/2000/svg"
   xmlns="http://www.w3.org/2000/svg"
   xmlns:xlink="http://www.w3.org/1999/xlink"
   xmlns:sodipodi="http://sodipodi.sourceforge.net/DTD/sodipodi-0.dtd"
   xmlns:inkscape="http://www.inkscape.org/namespaces/inkscape"
   inkscape:version="0.92.3 (2405546, 2018-03-11)"
   sodipodi:docname="emoji_u1f97e.svg"
   id="svg6"
   version="1.1"
   style="enable-background:new 0 0 128 128;"
   height="128"
   width="128">
  <sodipodi:namedview
     inkscape:snap-others="false"
     inkscape:object-paths="true"
     inkscape:snap-global="true"
     inkscape:snap-object-midpoints="false"
     inkscape:snap-bbox-midpoints="false"
     inkscape:snap-smooth-nodes="true"
     inkscape:bbox-paths="false"
     inkscape:snap-bbox-edge-midpoints="false"
     inkscape:bbox-nodes="true"
     inkscape:snap-bbox="true"
     inkscape:current-layer="g4534"
     inkscape:window-maximized="1"
     inkscape:window-y="-11"
     inkscape:window-x="-11"
     inkscape:cy="78.574617"
     inkscape:cx="9.8838507"
     inkscape:zoom="3.6874999"
     showgrid="false"
     id="namedview8"
     inkscape:window-height="1046"
     inkscape:window-width="1920"
     inkscape:pageshadow="2"
     inkscape:pageopacity="0"
     guidetolerance="10"
     gridtolerance="10"
     objecttolerance="10"
     borderopacity="1"
     bordercolor="#666666"
     pagecolor="#ffffff" />
  <metadata
     id="metadata12">
    <rdf:RDF>
      <cc:Work
         rdf:about="">
        <dc:format>image/svg+xml</dc:format>
        <dc:type
           rdf:resource="http://purl.org/dc/dcmitype/StillImage" />
        <dc:title />
      </cc:Work>
    </rdf:RDF>
  </metadata>
  <defs
     id="defs10">
    <linearGradient
       id="linearGradient1893"
       inkscape:collect="always">
      <stop
         id="stop1889"
         offset="0"
         style="stop-color:#000000;stop-opacity:1;" />
      <stop
         id="stop1891"
         offset="1"
         style="stop-color:#000000;stop-opacity:0;" />
    </linearGradient>
    <radialGradient
       gradientUnits="userSpaceOnUse"
       gradientTransform="matrix(1,0,0,0.44941011,0,43.495023)"
       r="46.716905"
       fy="78.997134"
       fx="63.853499"
       cy="78.997134"
       cx="63.853499"
       id="radialGradient1895"
       xlink:href="#linearGradient1893"
       inkscape:collect="always" />
    <clipPath
       clipPathUnits="userSpaceOnUse"
       id="clipPath2378">
      <path
         style="opacity:1;vector-effect:none;fill:#ab6208;fill-opacity:1;stroke:none;stroke-width:1.00000012px;stroke-linecap:butt;stroke-linejoin:miter;stroke-miterlimit:4;stroke-dasharray:none;stroke-dashoffset:0;stroke-opacity:1;paint-order:stroke fill markers"
         d="M 109.38065,48.822544 A 45.525349,10.583292 0 0 1 63.855301,59.405836 45.525349,10.583292 0 0 1 18.329952,48.822544 45.525349,10.583292 0 0 1 63.855301,38.239252 45.525349,10.583292 0 0 1 109.38065,48.822544 Z"
         id="path2380"
         inkscape:connector-curvature="0" />
    </clipPath>
    <clipPath
       clipPathUnits="userSpaceOnUse"
       id="clipPath1034">
      <path
         inkscape:connector-curvature="0"
         id="path1036"
         d="m 37.576449,20.359578 23.122416,35.059753 2.616323,-1.725503 0.07784,-0.04041 0.364783,0.04723 0.06431,0.128075 2.03506,-1.342151 -0.100882,-0.197435 0.175188,-0.320855 2.616323,-1.725504 0.07784,-0.04041 0.364782,0.04723 0.06431,0.128075 2.035059,-1.342151 -0.100889,-0.197447 0.175193,-0.320849 2.616323,-1.725504 0.07787,-0.04036 0.364781,0.04723 0.06431,0.128075 2.03506,-1.342152 -0.100889,-0.197446 0.175193,-0.32085 2.616323,-1.725503 0.07784,-0.04041 0.364786,0.04723 0.0643,0.128069 2.03506,-1.342152 -0.100885,-0.19744 0.175188,-0.320856 2.616324,-1.725503 0.07784,-0.04042 0.364782,0.04723 0.0643,0.12807 2.035059,-1.342152 -0.100881,-0.197434 0.175188,-0.320856 2.61632,-1.725501 0.07784,-0.04041 0.364783,0.04722 0.06433,0.12806 2.03506,-1.342151 -0.100876,-0.197439 0.175188,-0.320855 2.616325,-1.725504 0.07784,-0.04041 0.364783,0.04722 0.06433,0.12806 2.03506,-1.342151 -0.10088,-0.197444 0.175191,-0.320849 1.250672,-0.824837 -23.122202,-35.0594291 z"
         style="opacity:1;vector-effect:none;fill:#f8f8f8;fill-opacity:1;stroke:none;stroke-width:13.99999905;stroke-linecap:butt;stroke-linejoin:miter;stroke-miterlimit:4;stroke-dasharray:none;stroke-dashoffset:0;stroke-opacity:1;paint-order:stroke fill markers" />
    </clipPath>
    <clipPath
       clipPathUnits="userSpaceOnUse"
       id="clipPath1038">
      <path
         style="opacity:1;vector-effect:none;fill:#f8f8f8;fill-opacity:1;stroke:none;stroke-width:13.99999905;stroke-linecap:butt;stroke-linejoin:miter;stroke-miterlimit:4;stroke-dasharray:none;stroke-dashoffset:0;stroke-opacity:1;paint-order:stroke fill markers"
         d="M -0.60335241,8.4788686 38.885626,66.74113 l 4.347802,-2.946853 0.12958,-0.06937 0.612283,0.07142 0.110469,0.213261 3.381861,-2.292157 -0.173228,-0.328717 0.286784,-0.541378 4.347803,-2.946853 0.12958,-0.06937 0.612282,0.07142 0.11047,0.213262 3.38186,-2.292156 -0.173241,-0.328736 0.286791,-0.54137 4.347803,-2.946853 0.129644,-0.06928 0.612281,0.07142 0.11047,0.213261 3.381861,-2.292156 -0.173241,-0.328737 0.286792,-0.54137 4.347802,-2.946852 0.12958,-0.06937 0.612288,0.07143 0.110463,0.213252 3.38186,-2.292157 -0.173234,-0.328727 0.286785,-0.541379 4.347804,-2.946853 0.12958,-0.06937 0.612281,0.07142 0.110463,0.213252 3.38186,-2.292156 -0.173228,-0.328717 0.286784,-0.541379 4.347797,-2.946849 0.129582,-0.06937 0.612283,0.07142 0.110507,0.213236 3.38186,-2.292156 -0.173219,-0.328724 0.286783,-0.541378 4.347807,-2.946855 0.129581,-0.06937 0.612283,0.07142 0.110508,0.213236 3.38186,-2.292156 -0.173226,-0.328733 0.28679,-0.541368 2.078364,-1.408674 -39.488612,-58.261724 z"
         id="path1040"
         inkscape:connector-curvature="0" />
    </clipPath>
    <clipPath
       clipPathUnits="userSpaceOnUse"
       id="clipPath1042">
      <path
         inkscape:connector-curvature="0"
         id="path1044"
         d="m 47.380824,-21.467864 -23.978057,57.272265 4.273925,1.789355 0.113747,0.06223 0.242642,0.486653 -0.104208,0.184472 3.324396,1.391818 0.1592,-0.286522 0.538186,-0.04938 4.273925,1.789355 0.113747,0.06223 0.242641,0.486653 -0.104207,0.184472 3.324395,1.391817 0.159207,-0.286541 0.538183,-0.04937 4.273926,1.789355 0.113708,0.06233 0.24264,0.486652 -0.104208,0.184473 3.324396,1.391817 0.159208,-0.286541 0.538184,-0.04937 4.273924,1.789355 0.113748,0.06223 0.242636,0.486662 -0.104204,0.184463 3.324396,1.391818 0.159203,-0.286532 0.538187,-0.04938 4.273927,1.789355 0.113747,0.06223 0.24264,0.486653 -0.104204,0.184462 3.324395,1.391818 0.1592,-0.286523 0.538186,-0.04938 4.27392,1.789352 0.113749,0.06223 0.242642,0.486653 -0.104171,0.184488 3.324395,1.391817 0.159209,-0.286518 0.538185,-0.04938 4.273928,1.789356 0.113749,0.06223 0.242642,0.486653 -0.10417,0.184488 3.324395,1.391817 0.159212,-0.286528 0.538182,-0.04937 2.04305,0.85536 23.977832,-57.2717372 z"
         style="opacity:1;vector-effect:none;fill:#f8f8f8;fill-opacity:1;stroke:none;stroke-width:13.99999905;stroke-linecap:butt;stroke-linejoin:miter;stroke-miterlimit:4;stroke-dasharray:none;stroke-dashoffset:0;stroke-opacity:1;paint-order:stroke fill markers" />
    </clipPath>
    <filter
       inkscape:menu="Textures"
       inkscape:label="Watercolor"
       inkscape:menu-tooltip="Cloudy watercolor effect"
       height="2"
       y="-0.5"
       width="1.6"
       x="-0.3"
       style="color-interpolation-filters:sRGB;"
       id="filter1723">
      <feGaussianBlur
         stdDeviation="15"
         result="result8"
         id="feGaussianBlur1705" />
      <feTurbulence
         seed="27"
         result="result7"
         type="fractalNoise"
         numOctaves="5"
         baseFrequency="0.025"
         id="feTurbulence1707" />
      <feComposite
         in2="result8"
         result="result6"
         operator="over"
         in="result7"
         id="feComposite1709" />
      <feColorMatrix
         result="result9"
         values="1 0 0 0 0 0 1 0 0 0 0 0 1 0 0 0 0 0 6 -4 "
         id="feColorMatrix1711" />
      <feDisplacementMap
         in="result7"
         in2="result9"
         xChannelSelector="A"
         yChannelSelector="A"
         scale="45"
         result="result4"
         id="feDisplacementMap1713" />
      <feComposite
         in2="result4"
         result="result2"
         operator="in"
         in="result8"
         id="feComposite1715" />
      <feComposite
         result="fbSourceGraphic"
         in="result2"
         operator="in"
         in2="result9"
         id="feComposite1717" />
      <feComposite
         operator="arithmetic"
         k2="1"
         k1="0.5"
         in="fbSourceGraphic"
         in2="fbSourceGraphic"
         result="result91"
         id="feComposite1719" />
      <feBlend
         in="fbSourceGraphic"
         mode="multiply"
         in2="result91"
         id="feBlend1721" />
    </filter>
    <filter
       inkscape:menu="Textures"
       inkscape:label="Watercolor"
       inkscape:menu-tooltip="Cloudy watercolor effect"
       height="2"
       y="-0.5"
       width="1.6"
       x="-0.3"
       style="color-interpolation-filters:sRGB;"
       id="filter1743">
      <feGaussianBlur
         stdDeviation="15"
         result="result8"
         id="feGaussianBlur1725" />
      <feTurbulence
         seed="27"
         result="result7"
         type="fractalNoise"
         numOctaves="5"
         baseFrequency="0.025"
         id="feTurbulence1727" />
      <feComposite
         in2="result8"
         result="result6"
         operator="over"
         in="result7"
         id="feComposite1729" />
      <feColorMatrix
         result="result9"
         values="1 0 0 0 0 0 1 0 0 0 0 0 1 0 0 0 0 0 6 -4 "
         id="feColorMatrix1731" />
      <feDisplacementMap
         in="result7"
         in2="result9"
         xChannelSelector="A"
         yChannelSelector="A"
         scale="45"
         result="result4"
         id="feDisplacementMap1733" />
      <feComposite
         in2="result4"
         result="result2"
         operator="in"
         in="result8"
         id="feComposite1735" />
      <feComposite
         result="fbSourceGraphic"
         in="result2"
         operator="in"
         in2="result9"
         id="feComposite1737" />
      <feComposite
         operator="arithmetic"
         k2="1"
         k1="0.5"
         in="fbSourceGraphic"
         in2="fbSourceGraphic"
         result="result91"
         id="feComposite1739" />
      <feBlend
         in="fbSourceGraphic"
         mode="multiply"
         in2="result91"
         id="feBlend1741" />
    </filter>
    <filter
       inkscape:menu="Textures"
       inkscape:label="Watercolor"
       inkscape:menu-tooltip="Cloudy watercolor effect"
       height="2"
       y="-0.5"
       width="1.6"
       x="-0.3"
       style="color-interpolation-filters:sRGB;"
       id="filter1763">
      <feGaussianBlur
         stdDeviation="15"
         result="result8"
         id="feGaussianBlur1745" />
      <feTurbulence
         seed="27"
         result="result7"
         type="fractalNoise"
         numOctaves="5"
         baseFrequency="0.025"
         id="feTurbulence1747" />
      <feComposite
         in2="result8"
         result="result6"
         operator="over"
         in="result7"
         id="feComposite1749" />
      <feColorMatrix
         result="result9"
         values="1 0 0 0 0 0 1 0 0 0 0 0 1 0 0 0 0 0 6 -4 "
         id="feColorMatrix1751" />
      <feDisplacementMap
         in="result7"
         in2="result9"
         xChannelSelector="A"
         yChannelSelector="A"
         scale="45"
         result="result4"
         id="feDisplacementMap1753" />
      <feComposite
         in2="result4"
         result="result2"
         operator="in"
         in="result8"
         id="feComposite1755" />
      <feComposite
         result="fbSourceGraphic"
         in="result2"
         operator="in"
         in2="result9"
         id="feComposite1757" />
      <feComposite
         operator="arithmetic"
         k2="1"
         k1="0.5"
         in="fbSourceGraphic"
         in2="fbSourceGraphic"
         result="result91"
         id="feComposite1759" />
      <feBlend
         in="fbSourceGraphic"
         mode="multiply"
         in2="result91"
         id="feBlend1761" />
    </filter>
    <filter
       inkscape:menu="Textures"
       inkscape:label="Watercolor"
       inkscape:menu-tooltip="Cloudy watercolor effect"
       height="2"
       y="-0.5"
       width="1.6"
       x="-0.3"
       style="color-interpolation-filters:sRGB;"
       id="filter1783">
      <feGaussianBlur
         stdDeviation="15"
         result="result8"
         id="feGaussianBlur1765" />
      <feTurbulence
         seed="27"
         result="result7"
         type="fractalNoise"
         numOctaves="5"
         baseFrequency="0.025"
         id="feTurbulence1767" />
      <feComposite
         in2="result8"
         result="result6"
         operator="over"
         in="result7"
         id="feComposite1769" />
      <feColorMatrix
         result="result9"
         values="1 0 0 0 0 0 1 0 0 0 0 0 1 0 0 0 0 0 6 -4 "
         id="feColorMatrix1771" />
      <feDisplacementMap
         in="result7"
         in2="result9"
         xChannelSelector="A"
         yChannelSelector="A"
         scale="45"
         result="result4"
         id="feDisplacementMap1773" />
      <feComposite
         in2="result4"
         result="result2"
         operator="in"
         in="result8"
         id="feComposite1775" />
      <feComposite
         result="fbSourceGraphic"
         in="result2"
         operator="in"
         in2="result9"
         id="feComposite1777" />
      <feComposite
         operator="arithmetic"
         k2="1"
         k1="0.5"
         in="fbSourceGraphic"
         in2="fbSourceGraphic"
         result="result91"
         id="feComposite1779" />
      <feBlend
         in="fbSourceGraphic"
         mode="multiply"
         in2="result91"
         id="feBlend1781" />
    </filter>
    <filter
       inkscape:menu="Textures"
       inkscape:label="Watercolor"
       inkscape:menu-tooltip="Cloudy watercolor effect"
       height="2"
       y="-0.5"
       width="1.6"
       x="-0.3"
       style="color-interpolation-filters:sRGB;"
       id="filter1803">
      <feGaussianBlur
         stdDeviation="15"
         result="result8"
         id="feGaussianBlur1785" />
      <feTurbulence
         seed="27"
         result="result7"
         type="fractalNoise"
         numOctaves="5"
         baseFrequency="0.025"
         id="feTurbulence1787" />
      <feComposite
         in2="result8"
         result="result6"
         operator="over"
         in="result7"
         id="feComposite1789" />
      <feColorMatrix
         result="result9"
         values="1 0 0 0 0 0 1 0 0 0 0 0 1 0 0 0 0 0 6 -4 "
         id="feColorMatrix1791" />
      <feDisplacementMap
         in="result7"
         in2="result9"
         xChannelSelector="A"
         yChannelSelector="A"
         scale="45"
         result="result4"
         id="feDisplacementMap1793" />
      <feComposite
         in2="result4"
         result="result2"
         operator="in"
         in="result8"
         id="feComposite1795" />
      <feComposite
         result="fbSourceGraphic"
         in="result2"
         operator="in"
         in2="result9"
         id="feComposite1797" />
      <feComposite
         operator="arithmetic"
         k2="1"
         k1="0.5"
         in="fbSourceGraphic"
         in2="fbSourceGraphic"
         result="result91"
         id="feComposite1799" />
      <feBlend
         in="fbSourceGraphic"
         mode="multiply"
         in2="result91"
         id="feBlend1801" />
    </filter>
    <filter
       inkscape:menu="Textures"
       inkscape:label="Watercolor"
       inkscape:menu-tooltip="Cloudy watercolor effect"
       height="2"
       y="-0.5"
       width="1.6"
       x="-0.3"
       style="color-interpolation-filters:sRGB;"
       id="filter1823">
      <feGaussianBlur
         stdDeviation="15"
         result="result8"
         id="feGaussianBlur1805" />
      <feTurbulence
         seed="27"
         result="result7"
         type="fractalNoise"
         numOctaves="5"
         baseFrequency="0.025"
         id="feTurbulence1807" />
      <feComposite
         in2="result8"
         result="result6"
         operator="over"
         in="result7"
         id="feComposite1809" />
      <feColorMatrix
         result="result9"
         values="1 0 0 0 0 0 1 0 0 0 0 0 1 0 0 0 0 0 6 -4 "
         id="feColorMatrix1811" />
      <feDisplacementMap
         in="result7"
         in2="result9"
         xChannelSelector="A"
         yChannelSelector="A"
         scale="45"
         result="result4"
         id="feDisplacementMap1813" />
      <feComposite
         in2="result4"
         result="result2"
         operator="in"
         in="result8"
         id="feComposite1815" />
      <feComposite
         result="fbSourceGraphic"
         in="result2"
         operator="in"
         in2="result9"
         id="feComposite1817" />
      <feComposite
         operator="arithmetic"
         k2="1"
         k1="0.5"
         in="fbSourceGraphic"
         in2="fbSourceGraphic"
         result="result91"
         id="feComposite1819" />
      <feBlend
         in="fbSourceGraphic"
         mode="multiply"
         in2="result91"
         id="feBlend1821" />
    </filter>
    <clipPath
       clipPathUnits="userSpaceOnUse"
       id="clipPath995">
      <path
         sodipodi:nodetypes="szssssss"
         inkscape:connector-curvature="0"
         id="path997"
         d="m 27.108048,63.247941 c 0,0 31.436018,3.954419 45.39162,1.698922 13.955601,-2.255496 22.75392,2.372368 22.985594,14.196461 C 95.660427,88.083321 89.212033,95.2836 81.419727,95.2836 H 25.898618 c -7.792306,0 -13.964749,-2.688127 -13.964749,-11.62984 V 64.931694 c 0,-8.941714 7.385125,-1.942136 15.174179,-1.683753 z"
         style="opacity:1;vector-effect:none;fill:#a26b22;fill-opacity:1;stroke:none;stroke-width:1.18813229px;stroke-linecap:butt;stroke-linejoin:miter;stroke-miterlimit:4;stroke-dasharray:none;stroke-dashoffset:0;stroke-opacity:1;paint-order:stroke fill markers" />
    </clipPath>
    <clipPath
       clipPathUnits="userSpaceOnUse"
       id="clipPath999">
      <path
         sodipodi:nodetypes="szssssss"
         inkscape:connector-curvature="0"
         id="path1001"
         d="m 27.108048,63.247941 c 0,0 31.436018,3.954419 45.39162,1.698922 13.955601,-2.255496 22.75392,2.372368 22.985594,14.196461 C 95.660427,88.083321 89.212033,95.2836 81.419727,95.2836 H 25.898618 c -7.792306,0 -13.964749,-2.688127 -13.964749,-11.62984 V 64.931694 c 0,-8.941714 7.385125,-1.942136 15.174179,-1.683753 z"
         style="opacity:1;vector-effect:none;fill:#a26b22;fill-opacity:1;stroke:none;stroke-width:1.18813229px;stroke-linecap:butt;stroke-linejoin:miter;stroke-miterlimit:4;stroke-dasharray:none;stroke-dashoffset:0;stroke-opacity:1;paint-order:stroke fill markers" />
    </clipPath>
    <clipPath
       clipPathUnits="userSpaceOnUse"
       id="clipPath1003">
      <path
         sodipodi:nodetypes="szssssss"
         inkscape:connector-curvature="0"
         id="path1005"
         d="m 27.108048,63.247941 c 0,0 31.436018,3.954419 45.39162,1.698922 13.955601,-2.255496 22.75392,2.372368 22.985594,14.196461 C 95.660427,88.083321 89.212033,95.2836 81.419727,95.2836 H 25.898618 c -7.792306,0 -13.964749,-2.688127 -13.964749,-11.62984 V 64.931694 c 0,-8.941714 7.385125,-1.942136 15.174179,-1.683753 z"
         style="opacity:1;vector-effect:none;fill:#a26b22;fill-opacity:1;stroke:none;stroke-width:1.18813229px;stroke-linecap:butt;stroke-linejoin:miter;stroke-miterlimit:4;stroke-dasharray:none;stroke-dashoffset:0;stroke-opacity:1;paint-order:stroke fill markers" />
    </clipPath>
    <clipPath
       clipPathUnits="userSpaceOnUse"
       id="clipPath1007">
      <path
         sodipodi:nodetypes="szssssss"
         inkscape:connector-curvature="0"
         id="path1009"
         d="m 27.108048,63.247941 c 0,0 31.436018,3.954419 45.39162,1.698922 13.955601,-2.255496 22.75392,2.372368 22.985594,14.196461 C 95.660427,88.083321 89.212033,95.2836 81.419727,95.2836 H 25.898618 c -7.792306,0 -13.964749,-2.688127 -13.964749,-11.62984 V 64.931694 c 0,-8.941714 7.385125,-1.942136 15.174179,-1.683753 z"
         style="opacity:1;vector-effect:none;fill:#a26b22;fill-opacity:1;stroke:none;stroke-width:1.18813229px;stroke-linecap:butt;stroke-linejoin:miter;stroke-miterlimit:4;stroke-dasharray:none;stroke-dashoffset:0;stroke-opacity:1;paint-order:stroke fill markers" />
    </clipPath>
    <clipPath
       clipPathUnits="userSpaceOnUse"
       id="clipPath1011">
      <path
         sodipodi:nodetypes="szssssss"
         inkscape:connector-curvature="0"
         id="path1013"
         d="m 27.108048,63.247941 c 0,0 31.436018,3.954419 45.39162,1.698922 13.955601,-2.255496 22.75392,2.372368 22.985594,14.196461 C 95.660427,88.083321 89.212033,95.2836 81.419727,95.2836 H 25.898618 c -7.792306,0 -13.964749,-2.688127 -13.964749,-11.62984 V 64.931694 c 0,-8.941714 7.385125,-1.942136 15.174179,-1.683753 z"
         style="opacity:1;vector-effect:none;fill:#a26b22;fill-opacity:1;stroke:none;stroke-width:1.18813229px;stroke-linecap:butt;stroke-linejoin:miter;stroke-miterlimit:4;stroke-dasharray:none;stroke-dashoffset:0;stroke-opacity:1;paint-order:stroke fill markers" />
    </clipPath>
    <clipPath
       clipPathUnits="userSpaceOnUse"
       id="clipPath1015">
      <path
         sodipodi:nodetypes="szssssss"
         inkscape:connector-curvature="0"
         id="path1017"
         d="m 27.108048,63.247941 c 0,0 31.436018,3.954419 45.39162,1.698922 13.955601,-2.255496 22.75392,2.372368 22.985594,14.196461 C 95.660427,88.083321 89.212033,95.2836 81.419727,95.2836 H 25.898618 c -7.792306,0 -13.964749,-2.688127 -13.964749,-11.62984 V 64.931694 c 0,-8.941714 7.385125,-1.942136 15.174179,-1.683753 z"
         style="opacity:1;vector-effect:none;fill:#a26b22;fill-opacity:1;stroke:none;stroke-width:1.18813229px;stroke-linecap:butt;stroke-linejoin:miter;stroke-miterlimit:4;stroke-dasharray:none;stroke-dashoffset:0;stroke-opacity:1;paint-order:stroke fill markers" />
    </clipPath>
    <clipPath
       clipPathUnits="userSpaceOnUse"
       id="clipPath1019">
      <path
         sodipodi:nodetypes="szssssss"
         inkscape:connector-curvature="0"
         id="path1021"
         d="m 27.108048,63.247941 c 0,0 31.436018,3.954419 45.39162,1.698922 13.955601,-2.255496 22.75392,2.372368 22.985594,14.196461 C 95.660427,88.083321 89.212033,95.2836 81.419727,95.2836 H 25.898618 c -7.792306,0 -13.964749,-2.688127 -13.964749,-11.62984 V 64.931694 c 0,-8.941714 7.385125,-1.942136 15.174179,-1.683753 z"
         style="opacity:1;vector-effect:none;fill:#a26b22;fill-opacity:1;stroke:none;stroke-width:1.18813229px;stroke-linecap:butt;stroke-linejoin:miter;stroke-miterlimit:4;stroke-dasharray:none;stroke-dashoffset:0;stroke-opacity:1;paint-order:stroke fill markers" />
    </clipPath>
  </defs>
  <g
     transform="translate(0,-1.8)"
     id="g4534">
    <g
       id="g1047"
       transform="matrix(1.3890154,0.37218554,-0.37218554,1.3890154,25.29675,-45.964829)">
      <path
         sodipodi:nodetypes="sssssssssssssssssssssss"
         inkscape:connector-curvature="0"
         id="path947"
         d="m 15.471705,94.73287 c 0.314299,0.749809 0.663809,2.741599 1.594601,3.260065 0.372593,0.20754 1.057312,0.315472 1.427696,0.378919 1.855993,0.317933 5.374168,-2.06412 6.711196,-1.319375 0.980782,0.54631 1.391029,1.764356 2.368656,2.308908 1.041378,0.580063 3.087111,-0.785007 4.243844,-1.429324 2.057522,-1.14607 3.356503,0.770139 4.539926,1.429324 1.903594,1.060333 3.259318,-1.595592 4.539925,-2.308908 2.013635,-1.121624 3.848164,2.406588 5.329479,2.418856 1.847097,0.0153 2.783705,-0.642898 3.355597,-0.989532 0.509172,-0.308618 1.777436,-1.319376 3.552985,-1.319376 1.153095,0 1.366772,1.475973 2.269962,1.979063 2.158237,1.20217 3.83675,-1.532409 5.230785,-2.308908 2.574463,-1.434013 5.33608,4.500518 8.882463,0.549741 2.68451,-2.990622 2.495201,-0.09443 4.63862,1.09948 1.424043,0.79321 4.747484,-0.02266 5.329478,-1.319376 1.605736,-3.577669 5.06082,-7.591511 6.680597,-10.675793 C 86.933139,85.028778 68.27997,84.543006 67.051469,83.858713 63.597363,81.934726 58.522351,82.585119 54.813408,82.209493 44.237691,81.138433 34.85843,81.28068 26.290831,88.916324 c -1.833796,1.634321 -5.181213,1.639181 -7.402052,2.089013 -0.710019,0.143815 -6.376379,-3.655252 -6.369853,-2.847182 0.01825,2.259346 2.306255,5.03233 2.952779,6.574715 z"
         style="opacity:1;vector-effect:none;fill:#724f21;fill-opacity:1;stroke:none;stroke-width:1.29086554px;stroke-linecap:butt;stroke-linejoin:miter;stroke-miterlimit:4;stroke-dasharray:none;stroke-dashoffset:0;stroke-opacity:1;paint-order:stroke fill markers" />
      <path
         sodipodi:nodetypes="szssssss"
         inkscape:connector-curvature="0"
         id="rect910"
         d="m 25.646441,63.247941 c 0,0 28.427051,3.954419 41.046861,1.698922 C 79.313113,62.691367 87.269281,67.319231 87.47878,79.143324 87.637179,88.083321 81.806007,95.2836 74.759558,95.2836 H 24.552774 c -7.046448,0 -12.628082,-2.688127 -12.628082,-11.62984 V 64.931694 c 0,-8.941714 6.678241,-1.942136 13.721749,-1.683753 z"
         style="opacity:1;vector-effect:none;fill:#a26b22;fill-opacity:1;stroke:none;stroke-width:1.12984002px;stroke-linecap:butt;stroke-linejoin:miter;stroke-miterlimit:4;stroke-dasharray:none;stroke-dashoffset:0;stroke-opacity:1;paint-order:stroke fill markers" />
      <path
         transform="matrix(0.90428281,0,0,1,1.1330991,0)"
         clip-path="url(#clipPath1019)"
         sodipodi:nodetypes="aaaaaaaaaaaaa"
         inkscape:connector-curvature="0"
         id="path977"
         d="m 34.644069,72.850846 c 1.182455,2.072975 4.182456,2.449135 6.508474,2.983051 8.195587,1.881221 16.841158,1.246606 25.22034,0.542373 2.155291,-0.181143 4.375551,-0.39042 6.372881,-1.220339 1.111361,-0.461787 2.420712,-0.969875 2.983051,-2.033898 0.960918,-1.818191 1.016037,-4.381519 0,-6.169492 -1.221664,-2.149824 -4.039419,-2.978587 -6.372881,-3.79661 -1.248642,-0.437726 -2.614523,-0.422257 -3.932204,-0.542373 -3.018766,-0.275183 -6.054901,-0.313433 -9.084746,-0.40678 -4.021262,-0.123891 -8.059089,-0.544216 -12.067797,-0.20339 -2.428983,0.206515 -5.241105,-0.113175 -7.18644,1.355933 -1.088783,0.822244 -1.448266,2.351275 -1.830509,3.661017 -0.547463,1.875861 -1.578384,4.133119 -0.610169,5.830508 z"
         style="opacity:1;vector-effect:none;fill:#cb9042;fill-opacity:1;stroke:none;stroke-width:1.18813229px;stroke-linecap:butt;stroke-linejoin:miter;stroke-miterlimit:4;stroke-dasharray:none;stroke-dashoffset:0;stroke-opacity:1;paint-order:stroke fill markers" />
      <path
         transform="matrix(0.90428281,0,0,1,1.1330991,0)"
         clip-path="url(#clipPath1015)"
         inkscape:connector-curvature="0"
         id="path927"
         d="m 47.256364,65.005684 c 0,0 4.858507,2.140417 6.554143,6.549072"
         style="fill:none;stroke:#000000;stroke-width:1.25100005;stroke-linecap:round;stroke-linejoin:round;stroke-miterlimit:4;stroke-dasharray:none;stroke-opacity:1" />
      <path
         transform="matrix(0.90428281,0,0,1,1.1330991,0)"
         clip-path="url(#clipPath1011)"
         inkscape:connector-curvature="0"
         id="path935"
         d="m 49.73708,65.172116 c 0,0 1.205691,2.793926 0.965892,6.990412"
         style="fill:none;stroke:#000000;stroke-width:1.25100005;stroke-linecap:round;stroke-linejoin:round;stroke-miterlimit:4;stroke-dasharray:none;stroke-opacity:1" />
      <path
         transform="matrix(0.90428281,0,0,1,1.1330991,0)"
         clip-path="url(#clipPath1007)"
         style="fill:none;stroke:#000000;stroke-width:1.25100005;stroke-linecap:round;stroke-linejoin:round;stroke-miterlimit:4;stroke-dasharray:none;stroke-opacity:1"
         d="m 55.073866,65.457432 c 0,0 4.858507,2.140417 6.554143,6.549072"
         id="path937"
         inkscape:connector-curvature="0" />
      <path
         transform="matrix(0.90428281,0,0,1,1.1330991,0)"
         clip-path="url(#clipPath1003)"
         style="fill:none;stroke:#000000;stroke-width:1.25100005;stroke-linecap:round;stroke-linejoin:round;stroke-miterlimit:4;stroke-dasharray:none;stroke-opacity:1"
         d="m 57.653118,65.553637 c 0,0 1.205691,2.793926 0.965892,6.990412"
         id="path939"
         inkscape:connector-curvature="0" />
      <path
         transform="matrix(0.90428281,0,0,1,1.1330991,0)"
         clip-path="url(#clipPath999)"
         inkscape:connector-curvature="0"
         id="path941"
         d="m 63.813273,65.639592 c 0,0 4.858507,2.140417 6.554143,6.549072"
         style="fill:none;stroke:#000000;stroke-width:1.25100005;stroke-linecap:round;stroke-linejoin:round;stroke-miterlimit:4;stroke-dasharray:none;stroke-opacity:1" />
      <path
         transform="matrix(0.90428281,0,0,1,1.1330991,0)"
         clip-path="url(#clipPath995)"
         inkscape:connector-curvature="0"
         id="path943"
         d="m 66.467599,65.594586 c 0,0 1.205691,2.793926 0.965892,6.990412"
         style="fill:none;stroke:#000000;stroke-width:1.25100005;stroke-linecap:round;stroke-linejoin:round;stroke-miterlimit:4;stroke-dasharray:none;stroke-opacity:1" />
      <path
         sodipodi:nodetypes="ssccsss"
         inkscape:connector-curvature="0"
         d="M 39.170677,68.802093 C 38.708111,72.222228 34.519952,74.348 26.449975,74.348 18.379999,74.348 11.83799,72.385338 11.83799,69.964272 V 40.440876 c 0,-2.421066 6.542009,-4.383728 14.611985,-4.383728 8.069977,0 14.774304,1.969325 14.611986,4.383728 -0.836633,12.444467 -0.633685,19.062736 -1.891284,28.361217 z"
         style="opacity:1;vector-effect:none;fill:#a26b22;fill-opacity:1;stroke:none;stroke-width:1.12984002px;stroke-linecap:butt;stroke-linejoin:miter;stroke-miterlimit:4;stroke-dasharray:none;stroke-dashoffset:0;stroke-opacity:1;paint-order:stroke fill markers"
         id="ellipse905" />
      <ellipse
         style="opacity:1;vector-effect:none;fill:#a26b22;fill-opacity:1;stroke:none;stroke-width:1.17859089px;stroke-linecap:butt;stroke-linejoin:miter;stroke-miterlimit:4;stroke-dasharray:none;stroke-dashoffset:0;stroke-opacity:1;paint-order:stroke fill markers"
         id="ellipse896"
         cx="26.449976"
         cy="40.440876"
         rx="14.611985"
         ry="4.383728" />
      <ellipse
         ry="3.9310343"
         rx="13.84166"
         cy="40.440876"
         cx="26.449976"
         id="path894"
         style="opacity:1;vector-effect:none;fill:#3f2f2f;fill-opacity:1;stroke:none;stroke-width:1.08626091px;stroke-linecap:butt;stroke-linejoin:miter;stroke-miterlimit:4;stroke-dasharray:none;stroke-dashoffset:0;stroke-opacity:1;paint-order:stroke fill markers" />
      <path
         inkscape:connector-curvature="0"
         id="path898"
         d="m 27.238967,36.520703 c 5.240051,2.117489 6.654956,7.234375 6.654956,7.234375 a 13.84166,3.9310343 0 0 0 6.397094,-3.314453 13.84166,3.9310343 0 0 0 -13.05205,-3.919922 z"
         style="fill:#000000;fill-opacity:0.3415638;stroke:none;stroke-width:0.95093787px;stroke-linecap:butt;stroke-linejoin:miter;stroke-opacity:1" />
      <path
         inkscape:connector-curvature="0"
         id="path1023"
         d="m 77.138775,64.878125 a 11.401265,12.703953 0 0 0 -1.589559,6.445313 11.401265,12.703953 0 0 0 11.397142,12.703124 c 0.372045,-1.539951 0.561815,-3.178594 0.53162,-4.882812 C 87.334519,71.046919 83.557337,66.326574 77.138775,64.878125 Z"
         style="opacity:1;vector-effect:none;fill:#3a2810;fill-opacity:0.63991765;stroke:none;stroke-width:0.96802437px;stroke-linecap:butt;stroke-linejoin:miter;stroke-miterlimit:4;stroke-dasharray:none;stroke-dashoffset:0;stroke-opacity:1;paint-order:stroke fill markers" />
    </g>
  </g>
</svg>
