<?xml version="1.0" encoding="utf-8"?>
<!-- Generator: Adobe Illustrator 24.0.3, SVG Export Plug-In . SVG Version: 6.00 Build 0)  -->
<svg version="1.1" id="Layer_1" xmlns="http://www.w3.org/2000/svg" xmlns:xlink="http://www.w3.org/1999/xlink" x="0px" y="0px"
	 viewBox="0 0 128 128" style="enable-background:new 0 0 128 128;" xml:space="preserve">
<path style="fill:#504F4F;" d="M104.03,24.06l-80.02-0.13c-11.05,0-19.97,8.92-19.97,19.97v39.94c0,11.05,8.92,19.97,19.97,19.97
	l80.02,0.13c11.05,0,19.97-8.92,19.97-19.97V44.03C124,32.98,115.08,24.06,104.03,24.06z"/>
<path style="fill:#212121;" d="M117.34,68.66c0,7.59-6.39,13.71-14.11,13.71H24.94c-7.86,0-14.11-6.12-14.11-13.71v-20.9
	c0-7.59,6.39-13.71,14.11-13.71h78.29c7.86,0,14.11,6.12,14.11,13.71V68.66z"/>
<path style="fill:#353535;" d="M103.23,38.91c0-1.73-1.41-3.14-3.14-3.14H24.94c-6.92,0-12.52,5.46-12.52,11.98v20.9
	c0,6.66,5.59,11.98,12.52,11.98h75.15c1.73,0,3.14-1.41,3.14-3.14V38.91z"/>
<path style="fill:#353535;" d="M103.83,35.77c1.12,0.7,1.62,1.59,1.62,3.99v17.58h9.95v-9.59C115.41,42.16,110.15,37.1,103.83,35.77
	z"/>
<path style="fill:#353535;" d="M103.83,80.64c1.12-0.7,1.62-1.59,1.62-3.99V59.07h9.95v9.59C115.41,74.25,110.15,79.31,103.83,80.64
	z"/>
<path style="fill:#FAFAFA;" d="M107.91,53.47l1.98-7.41c0.15-0.55,0.92-0.55,1.07,0l1.98,7.41c0.09,0.35-0.17,0.7-0.54,0.7h-3.97
	C108.08,54.17,107.82,53.82,107.91,53.47z"/>
<path style="fill:#FAFAFA;" d="M108.45,62.25h3.97c0.36,0,0.63,0.35,0.54,0.7l-1.98,7.41c-0.15,0.55-0.92,0.55-1.07,0l-1.98-7.41
	C107.82,62.6,108.08,62.25,108.45,62.25z"/>
<g>
	<path style="fill:#FAFAFA;" d="M99.08,96.59h-6.17c-2.75,0-4.91-2.16-4.91-4.91s2.16-4.91,4.91-4.91h6.17
		c2.75,0,4.91,2.16,4.91,4.91C103.98,94.23,101.82,96.59,99.08,96.59z"/>
	<path style="fill:#FAFAFA;" d="M79.01,96.59h-6.17c-2.75,0-4.91-2.16-4.91-4.91s2.16-4.91,4.91-4.91h6.17
		c2.75,0,4.91,2.16,4.91,4.91C83.92,94.23,81.76,96.59,79.01,96.59z"/>
	<path style="fill:#FAFAFA;" d="M59.09,96.59h-6.17c-2.75,0-4.91-2.16-4.91-4.91s2.16-4.91,4.91-4.91h6.17
		c2.75,0,4.91,2.16,4.91,4.91C64,94.23,61.84,96.59,59.09,96.59z"/>
</g>
<linearGradient id="SVGID_1_" gradientUnits="userSpaceOnUse" x1="60.755" y1="55.64" x2="60.755" y2="83.94" gradientTransform="matrix(1 0 0 -1 0 128)">
	<stop  offset="2.730400e-03" style="stop-color:#7CB342"/>
	<stop  offset="1" style="stop-color:#558B2F"/>
</linearGradient>
<path style="fill:url(#SVGID_1_);" d="M100.7,69.03c0,1.86-1.46,3.33-3.33,3.33H24.14c-1.86,0-3.33-1.46-3.33-3.33V47.39
	c0-1.86,1.46-3.33,3.33-3.33h73.23c1.86,0,3.33,1.46,3.33,3.33L100.7,69.03z"/>
<path style="opacity:0.1;enable-background:new    ;" d="M30.73,55.84l-1.43,1.43c-0.22,0.22-0.58,0.22-0.8,0l-1.43-1.43
	c-0.11-0.11-0.17-0.25-0.17-0.4v-3.98c0-0.15,0.06-0.29,0.17-0.4l1.43-1.43c0.22-0.22,0.58-0.22,0.8,0l1.43,1.43
	c0.11,0.11,0.17,0.25,0.17,0.4v3.98C30.89,55.59,30.83,55.73,30.73,55.84z"/>
<path style="opacity:0.5;enable-background:new    ;" d="M41.16,55.84l-1.43,1.43c-0.22,0.22-0.58,0.22-0.8,0l-1.43-1.43
	c-0.11-0.11-0.17-0.25-0.17-0.4v-3.98c0-0.15,0.06-0.29,0.17-0.4l1.43-1.43c0.22-0.22,0.58-0.22,0.8,0l1.43,1.43
	c0.11,0.11,0.17,0.25,0.17,0.4v3.98C41.33,55.59,41.27,55.73,41.16,55.84z"/>
<path style="opacity:0.1;enable-background:new    ;" d="M30.73,65.36l-1.43,1.43c-0.22,0.22-0.58,0.22-0.8,0l-1.43-1.43
	c-0.11-0.11-0.17-0.25-0.17-0.4v-3.98c0-0.15,0.06-0.29,0.17-0.4l1.43-1.43c0.22-0.22,0.58-0.22,0.8,0l1.43,1.43
	c0.11,0.11,0.17,0.25,0.17,0.4v3.98C30.89,65.11,30.83,65.25,30.73,65.36z"/>
<path style="opacity:0.5;enable-background:new    ;" d="M41.16,65.36l-1.43,1.43c-0.22,0.22-0.58,0.22-0.8,0l-1.43-1.43
	c-0.11-0.11-0.17-0.25-0.17-0.4v-3.98c0-0.15,0.06-0.29,0.17-0.4l1.43-1.43c0.22-0.22,0.58-0.22,0.8,0l1.43,1.43
	c0.11,0.11,0.17,0.25,0.17,0.4v3.98C41.33,65.11,41.27,65.25,41.16,65.36z"/>
<path style="opacity:0.1;enable-background:new    ;" d="M31.73,50.52l-1.43-1.43c-0.22-0.22-0.22-0.58,0-0.8l1.43-1.43
	c0.11-0.11,0.25-0.17,0.4-0.17h3.99c0.15,0,0.29,0.06,0.4,0.17l1.43,1.43c0.22,0.22,0.22,0.58,0,0.8l-1.43,1.43
	c-0.11,0.11-0.25,0.17-0.4,0.17h-3.99C31.98,50.68,31.83,50.62,31.73,50.52z"/>
<path style="opacity:0.1;enable-background:new    ;" d="M31.73,60.04l-1.43-1.43c-0.22-0.22-0.22-0.58,0-0.8l1.43-1.43
	c0.11-0.11,0.25-0.17,0.4-0.17h3.99c0.15,0,0.29,0.06,0.4,0.17l1.43,1.43c0.22,0.22,0.22,0.58,0,0.8l-1.43,1.43
	c-0.11,0.11-0.25,0.17-0.4,0.17h-3.99C31.98,60.2,31.83,60.14,31.73,60.04z"/>
<path style="opacity:0.1;enable-background:new    ;" d="M31.73,69.56l-1.43-1.43c-0.22-0.22-0.22-0.58,0-0.8l1.43-1.43
	c0.11-0.11,0.25-0.17,0.4-0.17h3.99c0.15,0,0.29,0.06,0.4,0.17l1.43,1.43c0.22,0.22,0.22,0.58,0,0.8l-1.43,1.43
	c-0.11,0.11-0.25,0.17-0.4,0.17h-3.99C31.98,69.72,31.83,69.66,31.73,69.56z"/>
<path style="opacity:0.5;enable-background:new    ;" d="M48.49,55.84l-1.43,1.43c-0.22,0.22-0.58,0.22-0.8,0l-1.43-1.43
	c-0.11-0.11-0.17-0.25-0.17-0.4v-3.98c0-0.15,0.06-0.29,0.17-0.4l1.43-1.43c0.22-0.22,0.58-0.22,0.8,0l1.43,1.43
	c0.11,0.11,0.17,0.25,0.17,0.4v3.98C48.66,55.59,48.6,55.73,48.49,55.84z"/>
<path style="opacity:0.5;enable-background:new    ;" d="M58.92,55.84l-1.43,1.43c-0.22,0.22-0.58,0.22-0.8,0l-1.43-1.43
	c-0.11-0.11-0.17-0.25-0.17-0.4v-3.98c0-0.15,0.06-0.29,0.17-0.4l1.43-1.43c0.22-0.22,0.58-0.22,0.8,0l1.43,1.43
	c0.11,0.11,0.17,0.25,0.17,0.4v3.98C59.09,55.59,59.03,55.73,58.92,55.84z"/>
<path style="opacity:0.1;enable-background:new    ;" d="M48.49,65.36l-1.43,1.43c-0.22,0.22-0.58,0.22-0.8,0l-1.43-1.43
	c-0.11-0.11-0.17-0.25-0.17-0.4v-3.98c0-0.15,0.06-0.29,0.17-0.4l1.43-1.43c0.22-0.22,0.58-0.22,0.8,0l1.43,1.43
	c0.11,0.11,0.17,0.25,0.17,0.4v3.98C48.66,65.11,48.6,65.25,48.49,65.36z"/>
<path style="opacity:0.5;enable-background:new    ;" d="M58.92,65.36l-1.43,1.43c-0.22,0.22-0.58,0.22-0.8,0l-1.43-1.43
	c-0.11-0.11-0.17-0.25-0.17-0.4v-3.98c0-0.15,0.06-0.29,0.17-0.4l1.43-1.43c0.22-0.22,0.58-0.22,0.8,0l1.43,1.43
	c0.11,0.11,0.17,0.25,0.17,0.4v3.98C59.09,65.11,59.03,65.25,58.92,65.36z"/>
<path style="opacity:0.5;enable-background:new    ;" d="M49.49,50.52l-1.43-1.43c-0.22-0.22-0.22-0.58,0-0.8l1.43-1.43
	c0.11-0.11,0.25-0.17,0.4-0.17h3.99c0.15,0,0.29,0.06,0.4,0.17l1.43,1.43c0.22,0.22,0.22,0.58,0,0.8l-1.43,1.43
	c-0.11,0.11-0.25,0.17-0.4,0.17h-3.99C49.74,50.68,49.6,50.62,49.49,50.52z"/>
<path style="opacity:0.5;enable-background:new    ;" d="M49.49,60.04l-1.43-1.43c-0.22-0.22-0.22-0.58,0-0.8l1.43-1.43
	c0.11-0.11,0.25-0.17,0.4-0.17h3.99c0.15,0,0.29,0.06,0.4,0.17l1.43,1.43c0.22,0.22,0.22,0.58,0,0.8l-1.43,1.43
	c-0.11,0.11-0.25,0.17-0.4,0.17h-3.99C49.74,60.2,49.6,60.14,49.49,60.04z"/>
<path style="opacity:0.5;enable-background:new    ;" d="M49.49,69.56l-1.43-1.43c-0.22-0.22-0.22-0.58,0-0.8l1.43-1.43
	c0.11-0.11,0.25-0.17,0.4-0.17h3.99c0.15,0,0.29,0.06,0.4,0.17l1.43,1.43c0.22,0.22,0.22,0.58,0,0.8l-1.43,1.43
	c-0.11,0.11-0.25,0.17-0.4,0.17h-3.99C49.74,69.72,49.6,69.66,49.49,69.56z"/>
<path style="opacity:0.5;enable-background:new    ;" d="M66.25,55.84l-1.43,1.43c-0.22,0.22-0.58,0.22-0.8,0l-1.43-1.43
	c-0.11-0.11-0.17-0.25-0.17-0.4v-3.98c0-0.15,0.06-0.29,0.17-0.4l1.43-1.43c0.22-0.22,0.58-0.22,0.8,0l1.43,1.43
	c0.11,0.11,0.17,0.25,0.17,0.4v3.98C66.42,55.59,66.36,55.73,66.25,55.84z"/>
<path style="opacity:0.5;enable-background:new    ;" d="M76.69,55.84l-1.43,1.43c-0.22,0.22-0.58,0.22-0.8,0l-1.43-1.43
	c-0.11-0.11-0.17-0.25-0.17-0.4v-3.98c0-0.15,0.06-0.29,0.17-0.4l1.43-1.43c0.22-0.22,0.58-0.22,0.8,0l1.43,1.43
	c0.11,0.11,0.17,0.25,0.17,0.4v3.98C76.85,55.59,76.79,55.73,76.69,55.84z"/>
<path style="opacity:0.1;enable-background:new    ;" d="M66.25,65.36l-1.43,1.43c-0.22,0.22-0.58,0.22-0.8,0l-1.43-1.43
	c-0.11-0.11-0.17-0.25-0.17-0.4v-3.98c0-0.15,0.06-0.29,0.17-0.4l1.43-1.43c0.22-0.22,0.58-0.22,0.8,0l1.43,1.43
	c0.11,0.11,0.17,0.25,0.17,0.4v3.98C66.42,65.11,66.36,65.25,66.25,65.36z"/>
<path style="opacity:0.5;enable-background:new    ;" d="M76.69,65.36l-1.43,1.43c-0.22,0.22-0.58,0.22-0.8,0l-1.43-1.43
	c-0.11-0.11-0.17-0.25-0.17-0.4v-3.98c0-0.15,0.06-0.29,0.17-0.4l1.43-1.43c0.22-0.22,0.58-0.22,0.8,0l1.43,1.43
	c0.11,0.11,0.17,0.25,0.17,0.4v3.98C76.85,65.11,76.79,65.25,76.69,65.36z"/>
<path style="opacity:0.5;enable-background:new    ;" d="M67.25,50.52l-1.43-1.43c-0.22-0.22-0.22-0.58,0-0.8l1.43-1.43
	c0.11-0.11,0.25-0.17,0.4-0.17h3.99c0.15,0,0.29,0.06,0.4,0.17l1.43,1.43c0.22,0.22,0.22,0.58,0,0.8l-1.43,1.43
	c-0.11,0.11-0.25,0.17-0.4,0.17h-3.99C67.5,50.68,67.36,50.62,67.25,50.52z"/>
<path style="opacity:0.5;enable-background:new    ;" d="M67.25,60.04l-1.43-1.43c-0.22-0.22-0.22-0.58,0-0.8l1.43-1.43
	c0.11-0.11,0.25-0.17,0.4-0.17h3.99c0.15,0,0.29,0.06,0.4,0.17l1.43,1.43c0.22,0.22,0.22,0.58,0,0.8l-1.43,1.43
	c-0.11,0.11-0.25,0.17-0.4,0.17h-3.99C67.5,60.2,67.36,60.14,67.25,60.04z"/>
<path style="opacity:0.5;enable-background:new    ;" d="M67.25,69.56l-1.43-1.43c-0.22-0.22-0.22-0.58,0-0.8l1.43-1.43
	c0.11-0.11,0.25-0.17,0.4-0.17h3.99c0.15,0,0.29,0.06,0.4,0.17l1.43,1.43c0.22,0.22,0.22,0.58,0,0.8l-1.43,1.43
	c-0.11,0.11-0.25,0.17-0.4,0.17h-3.99C67.5,69.72,67.36,69.66,67.25,69.56z"/>
<path style="opacity:0.5;enable-background:new    ;" d="M84.02,55.84l-1.43,1.43c-0.22,0.22-0.58,0.22-0.8,0l-1.43-1.43
	c-0.11-0.11-0.17-0.25-0.17-0.4v-3.98c0-0.15,0.06-0.29,0.17-0.4l1.43-1.43c0.22-0.22,0.58-0.22,0.8,0l1.43,1.43
	c0.11,0.11,0.17,0.25,0.17,0.4v3.98C84.18,55.59,84.12,55.73,84.02,55.84z"/>
<path style="opacity:0.5;enable-background:new    ;" d="M94.45,55.84l-1.43,1.43c-0.22,0.22-0.58,0.22-0.8,0l-1.43-1.43
	c-0.11-0.11-0.17-0.25-0.17-0.4v-3.98c0-0.15,0.06-0.29,0.17-0.4l1.43-1.43c0.22-0.22,0.58-0.22,0.8,0l1.43,1.43
	c0.11,0.11,0.17,0.25,0.17,0.4v3.98C94.62,55.59,94.56,55.73,94.45,55.84z"/>
<path style="opacity:0.5;enable-background:new    ;" d="M84.02,65.36l-1.43,1.43c-0.22,0.22-0.58,0.22-0.8,0l-1.43-1.43
	c-0.11-0.11-0.17-0.25-0.17-0.4v-3.98c0-0.15,0.06-0.29,0.17-0.4l1.43-1.43c0.22-0.22,0.58-0.22,0.8,0l1.43,1.43
	c0.11,0.11,0.17,0.25,0.17,0.4v3.98C84.18,65.11,84.12,65.25,84.02,65.36z"/>
<path style="opacity:0.5;enable-background:new    ;" d="M94.45,65.36l-1.43,1.43c-0.22,0.22-0.58,0.22-0.8,0l-1.43-1.43
	c-0.11-0.11-0.17-0.25-0.17-0.4v-3.98c0-0.15,0.06-0.29,0.17-0.4l1.43-1.43c0.22-0.22,0.58-0.22,0.8,0l1.43,1.43
	c0.11,0.11,0.17,0.25,0.17,0.4v3.98C94.62,65.11,94.56,65.25,94.45,65.36z"/>
<path style="opacity:0.5;enable-background:new    ;" d="M85.02,50.52l-1.43-1.43c-0.22-0.22-0.22-0.58,0-0.8l1.43-1.43
	c0.11-0.11,0.25-0.17,0.4-0.17h3.99c0.15,0,0.29,0.06,0.4,0.17l1.43,1.43c0.22,0.22,0.22,0.58,0,0.8l-1.43,1.43
	c-0.11,0.11-0.25,0.17-0.4,0.17h-3.99C85.27,50.68,85.12,50.62,85.02,50.52z"/>
<path style="opacity:0.5;enable-background:new    ;" d="M85.02,60.04l-1.43-1.43c-0.22-0.22-0.22-0.58,0-0.8l1.43-1.43
	c0.11-0.11,0.25-0.17,0.4-0.17h3.99c0.15,0,0.29,0.06,0.4,0.17l1.43,1.43c0.22,0.22,0.22,0.58,0,0.8l-1.43,1.43
	c-0.11,0.11-0.25,0.17-0.4,0.17h-3.99C85.27,60.2,85.12,60.14,85.02,60.04z"/>
<path style="opacity:0.5;enable-background:new    ;" d="M85.02,69.56l-1.43-1.43c-0.22-0.22-0.22-0.58,0-0.8l1.43-1.43
	c0.11-0.11,0.25-0.17,0.4-0.17h3.99c0.15,0,0.29,0.06,0.4,0.17l1.43,1.43c0.22,0.22,0.22,0.58,0,0.8l-1.43,1.43
	c-0.11,0.11-0.25,0.17-0.4,0.17h-3.99C85.27,69.72,85.12,69.66,85.02,69.56z"/>
</svg>
