<svg width="128" height="128" style="enable-background:new 0 0 128 128;" xmlns="http://www.w3.org/2000/svg" xmlns:xlink="http://www.w3.org/1999/xlink">
  <radialGradient id="SVGID_1_" cx="40" cy="42" gradientTransform="matrix(-0.1861 0.9825 -0.7651 -0.1449 79.5802 8.7867)" gradientUnits="userSpaceOnUse" r="81.9042">
    <stop offset="0" style="stop-color:#FFD740"/>
    <stop offset="0.1731" style="stop-color:#FFD435"/>
    <stop offset="0.4779" style="stop-color:#FFCB17"/>
    <stop offset="0.6802" style="stop-color:#FFC400"/>
    <stop offset="1" style="stop-color:#FFAB00"/>
  </radialGradient>
  <path d="M110.86,23.9c0,0-1.17-2.34-3.53-3.7c-3.21-1.85-4.4-7.69-6.9-11 C97.41,5.21,92.58,4.02,90.32,4c-4.44-0.04-7.56,1.47-10.67,6.64c-0.87,1.45-24.91,52.96-33.88,72.21 c-0.31,0.67-0.83,0.27-1.13-0.41c-2.51-5.69,2.17-17.1,3.71-21.03c1.14-2.91,4.95-7.16,4.95-9.31c0-6.99-11.11-8.02-25.4-8.02 C5.68,44.09,4,47.94,4,51.86c0,4.07,6.61,5.17,7.54,12.26c0.39,2.95-1.87,12.96-3.01,18.52c-3.99,19.28,2.77,34.96,16.3,39.58 c13.75,4.69,29.8,0.4,37.08-16.47c5.05-11.71,19.01-63.46,21.46-70.01c2.19-5.86,5.43-17.64,8.15-17.93 c1.68-0.17,3.64,6.98,11.07,9.24c5.21,1.59,12.45,1.6,12.45,1.6L110.86,23.9z" style="fill:url(#SVGID_1_);"/>
  <g style="opacity:0.2;">
    <path d="M90.16,7l0.14,0c1.23,0.01,5.28,0.77,7.74,4.02c0.79,1.04,1.48,2.53,2.21,4.11 c1.38,2.99,2.81,6.07,5.59,7.68c1.29,0.75,2.09,2.01,2.29,2.35c-1.58-0.22-3.23-0.53-4.67-0.97c-3.8-1.16-5.86-3.99-7.36-6.06 c-1.24-1.71-2.41-3.32-4.52-3.32c-0.12,0-0.25,0.01-0.37,0.02c-3.66,0.38-5.59,4.99-9.11,15.43c-0.55,1.64-1.08,3.19-1.54,4.43 c-0.93,2.5-3.32,10.79-6.35,21.29c-5.03,17.44-11.92,41.32-15.05,48.59C54.65,115.01,45.97,121,35.35,121 c-3.19,0-6.4-0.54-9.55-1.62c-12.19-4.16-17.95-18.68-14.33-36.13c0.14-0.69,0.3-1.45,0.47-2.26c1.69-8.02,2.95-14.39,2.58-17.25 c-0.66-5-3.52-7.66-5.61-9.6C7.93,53.23,7,52.37,7,51.86c0-1.11,0-1.78,1.86-2.63c3.13-1.43,9.54-2.15,19.03-2.15 c6.67,0,22.23,0,22.4,4.93c-0.17,0.68-1.35,2.49-2.06,3.58c-1.03,1.57-2.09,3.19-2.68,4.72l-0.19,0.49 c-3.16,8.03-6.04,17.02-3.46,22.85c0.7,1.59,2,2.55,3.48,2.55c1.33,0,2.52-0.8,3.12-2.08c19.9-42.7,32.82-70.23,33.75-71.96 C84.86,7.82,87.05,7,90.16,7 M90.16,4c-4.36,0-7.43,1.53-10.51,6.64c-0.87,1.45-24.91,52.96-33.88,72.21 c-0.11,0.24-0.25,0.34-0.4,0.34c-0.26,0-0.54-0.32-0.73-0.76c-2.51-5.69,2.17-17.1,3.71-21.03c1.14-2.91,4.95-7.16,4.95-9.31 c0-6.99-11.11-8.02-25.4-8.02C5.68,44.09,4,47.94,4,51.86c0,4.07,6.61,5.17,7.54,12.26c0.39,2.95-1.87,12.96-3.01,18.52 c-3.99,19.28,2.77,34.96,16.3,39.58c3.42,1.17,6.98,1.78,10.52,1.78c10.68,0,21.09-5.57,26.56-18.25 c5.05-11.71,19.01-63.46,21.46-70.01c2.19-5.86,5.43-17.64,8.15-17.93c0.02,0,0.04,0,0.06,0c1.67,0,3.67,7.01,11.01,9.24 c5.21,1.59,12.45,1.6,12.45,1.6l-4.17-4.76c0,0-1.17-2.34-3.53-3.7c-3.21-1.85-4.4-7.69-6.9-11C97.41,5.21,92.58,4.02,90.32,4 C90.27,4,90.22,4,90.16,4L90.16,4z" style="fill:#424242;"/>
  </g>
  <linearGradient id="SVGID_2_" gradientUnits="userSpaceOnUse" x1="110.0882" x2="113.7549" y1="17.7758" y2="31.6091">
    <stop offset="0" style="stop-color:#757575"/>
    <stop offset="0.9954" style="stop-color:#424242"/>
  </linearGradient>
  <path d="M121.47,27.25c-0.4-0.37-0.47-0.53-0.72-1.12c-0.28-0.67-0.67-1.6-1.54-2.69 c-1.21-1.51-2.99-2.39-5.04-3.42c-1.08-0.54-2.2-1.09-3.35-1.8c-1.39-0.84-3.87-0.44-4.47,1.21c0.47,0.4,0.92,0.67,1.11,0.94 c0.95,1.4,0.55,3.13,0.05,4.4c-0.59,1.5-2.8,2.74-4.84,2.29c-0.1,0.37-0.13,0.94-0.14,1.33c-0.01,0.43,0.17,0.91,0.36,1.28 c0.43,0.81,1.2,1.41,2.09,1.62c1.97,0.46,3.97,0.95,5.96,1.44c2.02,0.49,4.03,0.98,6.02,1.45l1.91,0.45 c0.3,0.09,0.85,0.25,1.51,0.25c1.51,0,2.84-0.9,3.37-2.31C124.72,29.98,122.53,28.14,121.47,27.25z" style="fill:url(#SVGID_2_);"/>
  <path d="M67.54,32.43c-0.46,1-0.02,2.19,0.98,2.65l3.63,1.67c1,0.46,2.19,0.02,2.65-0.98l0,0 c0.46-1,0.02-2.19-0.98-2.65l-3.63-1.67C69.19,30.99,68.01,31.43,67.54,32.43L67.54,32.43z" style="fill:#F4511E;"/>
  <ellipse cx="68.96" cy="33.13" rx="6" ry="4" style="fill:#FF7043;" transform="matrix(0.418 -0.9084 0.9084 0.418 10.0337 81.9206)"/>
  <path d="M60.86,46.97c-0.46,1-0.02,2.19,0.98,2.65l3.63,1.67c1,0.46,2.19,0.02,2.65-0.98l0,0 c0.46-1,0.02-2.19-0.98-2.65l-3.63-1.67C62.5,45.52,61.32,45.96,60.86,46.97L60.86,46.97z" style="fill:#F4511E;"/>
  <ellipse cx="62.27" cy="47.66" rx="6" ry="4" style="fill:#FF7043;" transform="matrix(0.418 -0.9084 0.9084 0.418 -7.0627 84.3031)"/>
  <path d="M54.17,61.5c-0.46,1-0.02,2.19,0.98,2.65l3.63,1.67c1,0.46,2.19,0.02,2.65-0.98l0,0 c0.46-1,0.02-2.19-0.98-2.65l-3.63-1.67C55.82,60.06,54.63,60.5,54.17,61.5L54.17,61.5z" style="fill:#F4511E;"/>
  <ellipse cx="55.58" cy="62.2" rx="6" ry="4" style="fill:#FF7043;" transform="matrix(0.418 -0.9084 0.9084 0.418 -24.1591 86.6856)"/>
  <g style="opacity:0.2;">
    <path d="M109.45,19.84c0.15,0.03,0.26,0.07,0.33,0.11c1.19,0.73,2.32,1.29,3.41,1.83l0.1,0.05 c1.91,0.95,3.43,1.71,4.36,2.87c0.71,0.88,1.01,1.61,1.26,2.21c0.31,0.73,0.52,1.18,1.2,1.81c0.02,0.02,0.05,0.04,0.07,0.06 c1.38,1.16,2.1,2.03,1.71,3.09c-0.23,0.63-0.81,1.01-1.5,1.01c-0.37,0-0.72-0.11-0.93-0.17c-0.04-0.01-0.08-0.02-0.11-0.03 l-1.91-0.45c-1.69-0.4-3.4-0.81-5.12-1.23l-0.89-0.22c-2.01-0.49-4.01-0.98-5.98-1.44c-0.22-0.05-0.42-0.17-0.57-0.32 c2.03-0.42,3.81-1.77,4.5-3.52C110.23,23.33,110.26,21.43,109.45,19.84 M109.15,17.81c-1.18,0-2.4,0.54-2.8,1.64 c0.47,0.4,0.92,0.67,1.11,0.94c0.95,1.4,0.55,3.13,0.05,4.4c-0.51,1.29-2.2,2.38-3.96,2.38c-0.29,0-0.59-0.03-0.88-0.1 c-0.1,0.37-0.13,0.94-0.14,1.33c-0.01,0.43,0.17,0.91,0.36,1.28c0.43,0.81,1.2,1.41,2.09,1.62c1.97,0.46,3.97,0.95,5.96,1.44 c2.02,0.49,4.03,0.98,6.02,1.45l1.91,0.45c0.3,0.09,0.85,0.25,1.51,0.25c1.51,0,2.84-0.9,3.37-2.31c0.96-2.59-1.24-4.44-2.3-5.33 c-0.4-0.37-0.47-0.53-0.72-1.12c-0.28-0.67-0.67-1.6-1.54-2.69c-1.21-1.51-2.99-2.39-5.04-3.42c-1.08-0.54-2.2-1.09-3.35-1.8 C110.35,17.95,109.76,17.81,109.15,17.81L109.15,17.81z" style="fill:#EEEEEE;"/>
  </g>
</svg>