<svg width="128" height="128" xmlns="http://www.w3.org/2000/svg"><style>.st4{fill:#fcc21b}.st5{fill:#59342d}.st8{fill:#d3d1c5}</style><g id="图层_1"><ellipse cx="64" cy="80.8" rx="60.1" ry="37.1" fill="#fff"/><path d="M64 120.4c-34.4 0-62.3-17.8-62.3-39.6s28-39.6 62.3-39.6c34.4 0 62.3 17.8 62.3 39.6S98.4 120.4 64 120.4z" fill="#757576"/><path d="M64 116.5C29.1 116.5.8 98.5.8 76.3.8 54.2 29.2 36.1 64 36.1c34.9 0 63.2 18 63.2 40.2 0 22.2-28.3 40.2-63.2 40.2z" fill="#e0e0e0"/><path d="M52.3 39.6c-2 .6-4 1.3-5.6 2.6-1.3 1-3.3 4.6-3.1 6.5.4 3.3 2.8 7.3 4.7 8.7 4.1 3.1 7.2 10.6 8.7 12.7 1.3 1.9 2.7 18.5 1.9 22.2-.8 3.5.9 11.8 5.1 14.7 3.6 2.5 7.2 2.8 10.3 2.3 2.9-.5 5.9-1.4 8.8-2.1 2.6-.6 5.2-.9 7.8-1.5 3.2-.8 6.2-1.9 9.1-3.4 1.5-.8 3.3-1.4 4.6-2.4 1.1-.8 2.1-1.8 3.2-2.6 4.6-3.6 8.9-4 11.4-9.6 3.5-7.8 2.3-14.9-2-22-.8-1.3-1.5-2.6-2.5-3.8-.9-1.2-2.1-1.8-3.1-2.8-2.3-2-4.4-4.4-6.9-6.4-2.3-1.8-5.5-2.8-8.2-4.1-2.6-1.3-4.9-3-7.5-4.2-4-2-8.2-2.5-12.6-3.4-1.5-.3-2.8-1.1-4.3-1.5-2.2-.5-4.6-.8-6.9-1.1-4.2-.5-8.7-.1-12.9 1.2z" fill="#995920"/><path class="st4" d="M64.8 54.6c.9.5 1.8.8 2.6 1 2.1.5 4.1.9 6.1 1.3 1.5.3 3.2.6 4.7.3 3.3-.5 3-6.5 2-8.7-1.4-3.1-5.1-4.2-8.3-4.6-2.4-.3-6 0-7.7 1.8-1.3 1.4-2.8 4.6-1.9 6.5.5 1.1 1.4 1.9 2.5 2.4z"/><path class="st5" d="M103 55.2c-3.3-2-7.2-2.5-11.1-2-3.1.4-4.7 3.7-5.3 6.2-.7 3.1 1.1 5.8 3.9 7.6 1.2.8 2.2 1.6 3.7 1.8 2.2.3 4.6.4 6.7-.3 1.6-.5 4.7-1.4 5.5-2.8 1.4-2.3.4-7.1-1.5-8.9-.6-.7-1.3-1.2-1.9-1.6z"/><path d="M77.5 63.4c-.8.2-1.6.4-2.3.7-1.3.4-3 .9-4 1.8-1.3 1.3-1.6 3.4-1.8 5.1-.1 1.7.5 4.4 2 5.4 1.7 1.1 4.2.2 5.9-.2 2.6-.7 5.2-1.3 7.7-2.4 3.5-1.6.7-7.5-1.2-9.3-1.6-1.7-4.1-1.6-6.3-1.1z" fill="#ed6c30"/><path class="st4" d="M109.6 75c-.7-.8-1.7-1.4-3.3-1.7-1.9-.4-4.1-.5-6-.2-3.6.6-6.1 7.2-4.4 10.1 1.4 2.4 4.6 2.4 7.1 2.2 2.1-.2 4.4-.3 6.4-1.1 2.5-1.1 2-2.9 1.6-5.3-.2-1.6-.5-3-1.4-4z"/><path class="st5" d="M92.5 85.3c-.6-1.1-1.6-2-3.2-2.8-2.1-1-6.1-2.5-8.4-1.4-2.3 1.1-3.8 4.4-4 6.7-.5 5.9 8.4 9.4 13.3 7.8 2.6-.8 2.5-3.2 2.8-5.4.2-1.9.2-3.6-.5-4.9z"/><g><path d="M48.9 45.1c-2.1.1-4.4.6-6.3 1.4-1 .4-1.7 1-2.3 1.5h-3c-1.9 0-4.7.3-7.6 2.7-.5.4-.8.8-1.2 1.2h-.6c-.4 0-.8 0-1.1.1-3.1.4-7.2 2.5-9.2 6-.5.9-.8 1.7-1 2.4-.1 0-.2.1-.2.1-3.2 1.9-7.5 6.8-6.2 12.2.1.3.2.6.2.8v.1c-.4 1.8-.9 4.5 0 7.3.6 1.8 1.7 3 2.7 3.8.4.4.7.9.8 1.5.4 4 2.9 7.3 6.8 9 1.4.6 2.9.7 4.3.8.3 0 .6 0 .9.1.3.5.8 1.1 1.4 1.6 3.1 2.8 6.3 3.2 9 3.2h1.2c.5 0 1.1.1 1.5.5.8.6 1.6 1 2.3 1.4 1.4.8 3 1.1 4.8 1.1 1.5 0 3-.3 4.1-.5l.4-.1c1.4-.3 2.4-.8 3.2-1.2.1.1.2.1.4.2 1.7.7 3.5 1 5.2 1 3.3 0 6.3-1.2 8.9-3.6.3-.3.8-.5 1.2-.6.5-.1 1.1-.3 1.8-.6 4.5-2.1 7.4-5.9 5.6-10.9-.1-.2-.2-.5-.1-.7.1-.2.2-.3.4-.5 5-4.4 2.3-11.8-3.1-14.6-.3-.2-.7-.3-.9-.6-.3-.4-.3-.8-.3-1.3 0-2.5-.3-5.1-1.5-7.2-1-1.6-2.6-2.9-4.5-3.2-1-.2-1.7-.9-1.9-1.9-.7-4.1-4.1-7.7-8.2-8.4-.5-.1-2-2-2.6-2.4-1.1-.7-2.4-1.1-3.7-1.3-.4-.4-1-.4-1.6-.4z" fill="#f2f1eb"/><path class="st8" d="M50.6 82.9c.4-.6.7-1.4.7-2.2 0-1 .1-2.8-.7-3.6-.5-.5-1.8-.3-2.2.4-.2.4-.2 1.1-.3 1.5-.4 1.1-2.9 2.7-2.3 4 .3.7 1.4 1.3 2.1 1.3 1.1.2 2.1-.4 2.7-1.4zM64.1 79.8c.4-.6.7-1.4.7-2.2 0-1 .2-2.8-.7-3.6-.5-.5-1.8-.3-2.2.4-.2.4-.2 1.1-.3 1.5-.4 1.1-2.9 2.7-2.3 4 .3.7 1.4 1.3 2.1 1.3 1 .2 2-.4 2.7-1.4zM61 92.5c.4-.6.7-1.4.7-2.2 0-1 .2-2.8-.7-3.6-.5-.5-1.8-.3-2.2.4-.2.4-.2 1.1-.3 1.5-.4 1.1-2.9 2.7-2.3 4 .3.7 1.4 1.3 2.1 1.3 1.1.2 2.1-.4 2.7-1.4z"/></g></g></svg>