<svg xmlns="http://www.w3.org/2000/svg" viewBox="0 0 128 128"><circle cx="93.56" cy="39" r="7.45" fill="#fff"/><circle cx="104.26" cy="48.4" r="7.45" fill="#fff"/><circle cx="94.53" cy="58.77" r="7.45" fill="#fff"/><circle cx="83.52" cy="49.04" r="7.45" fill="#fff"/><circle cx="34.31" cy="49.34" r="19.44" fill-rule="evenodd" clip-rule="evenodd" fill="#2f2f2f"/><path d="M46.15 45.5h-8.26v-8.26c0-.3-.24-.54-.55-.54h-5.98c-.3 0-.54.24-.54.54v8.26h-8.26c-.3 0-.54.24-.54.54v5.99c0 .3.24.54.54.54h8.26v8.26c0 .3.25.55.54.55h5.98c.3 0 .55-.25.55-.55v-8.26h8.26c.3 0 .55-.25.55-.54v-5.99c0-.29-.25-.54-.55-.54z" fill="#fff"/><path d="M51.28 49.04c0 9.35-7.58 16.93-16.92 16.93-9.35 0-16.92-7.58-16.92-16.93s7.57-16.93 16.92-16.93c9.34 0 16.92 7.58 16.92 16.93zM34.35 32.11c-9.35 0-16.92 7.58-16.92 16.93S25 65.97 34.35 65.97c9.35 0 16.92-7.58 16.92-16.93.01-9.35-7.57-16.93-16.92-16.93zm59.3 1.59a4.97 4.97 0 1 0 0 9.94 4.97 4.97 0 0 0 0-9.94zM78.31 49.04a4.97 4.97 0 1 0 9.94 0 4.97 4.97 0 0 0-9.94 0zm15.34 15.34a4.97 4.97 0 1 0 0-9.94 4.97 4.97 0 0 0 0 9.94zm15.34-15.34a4.97 4.97 0 1 0-9.94 0c0 2.75 2.22 4.97 4.97 4.97a4.97 4.97 0 0 0 4.97-4.97zM34.35 32.11c-9.35 0-16.92 7.58-16.92 16.93S25 65.97 34.35 65.97c9.35 0 16.92-7.58 16.92-16.93.01-9.35-7.57-16.93-16.92-16.93zm92.32 53.76l-3.65-39.54c-1.38-15.01-13.99-26.77-29.36-26.77h-59.3c-15.37 0-27.99 11.76-29.37 26.77L1.33 85.87c-.85 10.2.2 18.84 8.26 21.8 5.98 2.19 12.14 0 20.98-9.12L47.5 80.09h32.98l16.93 18.46c8.84 9.12 15.01 11.31 20.98 9.12 8.07-2.97 9.13-11.6 8.28-21.8z" fill-rule="evenodd" clip-rule="evenodd" fill="#757f3f"/></svg>