<svg xmlns="http://www.w3.org/2000/svg" viewBox="0 0 128 128"><path d="M120.61 30.69c-.65-5.39-2.95-11.29-6.66-15.77-3.13-3.78-7.27-6.54-12.24-7.11-8.84-1.02-15.87 4.84-21.53 10.72-6.32 6.57-10.85 14.01-15.63 21.72-2.62 4.24-5.47 8.48-8.71 12.28-7.6 8.95-17.63 15.56-24.69 25-3.65 4.87-7.59 9.5-11.57 14.09-3.63 4.2-7.78 8.26-10.75 12.98-3.2 5.08-2.21 12.08 4 14.08l.37.17c15.57 5.56 35.59 4.36 50.21-3.57 6.22-3.38 11.36-8.3 15.26-14.18 6.19-9.31 7.75-20.81 13.08-30.58 1.16-2.11 2.53-4.54 4.58-5.9.69-.46 1.41-.72 2.25-.69 6.47.18 4.42 17.23 4.98 21.16.33 2.36 2.33 4.11 4.71 3.78 3.34-.47 3.87-3.5 4.14-6.33.18-1.9.06-3.82.2-5.73.52-6.97 1.32-14.02 3.37-20.74.65-2.16 1.43-4.29 2.37-6.34 2.61-5.75 3-12.86 2.26-19.04z" fill="#d7598b"/><path d="M101.73 32.24c-.86 2.15-2.29 4.1-3.43 6.1-3.02 5.29-6.23 10.48-9.44 15.64-.71 1.14-1.42 2.28-2.13 3.41-1.41 2.28-2.77 4.62-4.14 6.96-3.03 5.19-6.12 10.39-10.06 14.85-2.99 3.39-6.63 6.14-10.82 7.86a22.113 22.113 0 0 1-7.84 1.65c-.36.02-1.82.25-2.08-.03-.76-.8.87-2.72 1.37-3.22.85-.85 1.84-1.52 2.78-2.26 1.82-1.43 3.8-2.69 5.54-4.23 3.82-3.38 7.57-6.9 10.62-11 3.78-5.07 6.86-10.62 10.14-16.02 4.74-7.78 9.15-15.21 15.16-22.08.98-1.12 3.04-2.52 4.58-1.68 1.57.86.2 2.92-.25 4.05z" fill="#fff"/><path d="M103.85 23.16c-7.03-1.64-13.36 8.97-16.31 13.18-8.75 12.5-15.35 26.38-26.6 36.92-4.5 4.21-12.68 8.22-14.98 14.51-1.77-.5-3.02-1.17-3.85-1.97-.44-.84-.7-1.86-.7-3.11.03-5.94 5.78-10.35 9.44-14.35 4.36-4.77 8.9-9.74 12.83-14.88 7.71-10.11 21.73-42.92 37.46-36.16 2.19.94 2.93 3.04 2.71 5.86z" fill="#2f2f2f"/></svg>