<svg xmlns="http://www.w3.org/2000/svg" viewBox="0 0 128 128"><path d="M125.74 32.69c-5.95-13.91-16.05-21.26-29.42-21.26l-.32.01c-.39 0-.78 0-1.16.02-5.12.08-10.28 1.19-15.32 3.31-3.53 1.48-6.24 3.41-9.11 5.46-1.32.94-2.66 1.9-4.11 2.82-1.28.83-3.32.82-4.6 0-1.45-.91-2.8-1.88-4.12-2.82-2.86-2.04-5.57-3.97-9.11-5.46-5.04-2.12-10.19-3.23-15.3-3.31-.39-.02-.78-.02-1.17-.02l-.52-.01c-13.17 0-23.27 7.35-29.22 21.25C-.2 38.4-.28 47.05.73 53.08c.93 5.54 3.17 10.9 6.87 16.41 6.83 10.18 17.02 17.07 26.87 23.75 6.18 4.18 12.57 8.5 18 13.57.68.64 1.36 1.31 2.05 1.97.82.8 1.65 1.6 2.49 2.37.42.39.86.91 1.34 1.47 1.43 1.7 3.21 3.8 5.59 3.95h.13c2.39-.14 4.16-2.25 5.59-3.94.48-.57.92-1.09 1.34-1.48.84-.77 1.67-1.57 2.49-2.37.68-.67 1.36-1.33 2.05-1.97 5.43-5.07 11.82-9.39 18-13.57 9.85-6.68 20.04-13.56 26.87-23.75 3.69-5.49 5.93-10.86 6.87-16.41 1-6.03.92-14.68-1.54-20.39z" fill="#d7598b"/><path d="M116.64 67.05c-.26.25-.55.41-.77.07-.38-.58-2.85-5.6-1.3-5.35 1.21.2 2.49.32 3.69-.04.51-.14.99-.37 1.43-.66.33-.2.65-.51 1.04-.58.24-.05-.31 1.22-.32 1.23-.28.5-.68.93-.97 1.43-.7 1.19-1.43 2.32-2.35 3.36l-.45.54zM113.08 56.61c-1.97-.84-4.08-2.04-5.56-3.56-.95-.96-1.92-2.24-2.42-3.5-.44-1.1 1.14-2.58 2.17-2.64.93-.06 2.04.54 2.91.82.94.31 3.06 1.08 3.7-.16.92-1.78-1.92-2.64-2.99-3.37-.57-.39-1.11-.93-.82-1.67.98-2.51 4.64-1.24 6.51-.81 1.46.35 3.03.86 4.32 1.71 1.2.78 2.18 1.85 2.61 3.33 1.74 5.82-3.78 12.67-10.43 9.85zM89.05 33.44c.74 1.38.15 3.36-1.44 3.83-1.3.39-2.69-.49-3.77-1.09-2.17-1.23-4.14-2.64-5.81-4.5-4.9-5.44-.14-13 6.03-13.26 1.61-.06 2.92.52 4.04 1.42 1.76 1.44 8.51 8.86 3.63 10.58-.74.26-1.8-.69-2.25-1.13-.57-.55-1.16-1.35-2.03-1.39-.79-.04-1.35.55-1.35 1.32 0 1.87 2.19 2.77 2.95 4.22zM65.56 44.73c-.68-.26-1.43-.39-2.12-.61-.38-.11-1.02-.21-1.29-.53-2.23-2.59 5.11-4.78 6.35-5.13 3.1-.88 7.88-2.65 10.55-.11 1.64 1.56 3.47 2.44 5.54 3.27.54.21 4.45 1.89 2.83 2.68-.65.3-1.3.6-1.96.9-3.56 1.59-7.15 2.98-10.62 4.84-1.67.91-3.33 1.79-5.13 2.39-3.8 1.27-2.64-2.73-2.4-5.29.12-1.11-.74-2.04-1.75-2.41zM68.62 27.36c.46-.67 1.14-1.18 1.81-1.63.57-.37 1.39-1.08 2.13-.93.07.36-.26.91-.32 1.28-.13.99-.14 2.01-.05 3 .05.58.16 1.16.28 1.71.21 1.02-.33.85-.94.38-.73-.57-1.45-1.27-2.07-1.95-.25-.27-.59-.56-.8-.88-.21-.29-.29-.62-.04-.98zM92.28 39.03c.94-2.7 3.04-4.84 4.93-6.89l.52-.54c.87-.9 2.16-.42 3.21-.02 2.46.93 5.15 3.12 6.14 5.66.35.9.21 1.29-.32 2.08-1.64 2.45-3.69 5.34-6.32 6.77-1.37.75-2.75.78-4.15.1-3.08-1.51-5.3-3.47-4.01-7.16zM97.47 65.89c.61-3.7.75-7.37 1.08-11.07.07-.68.13-1.36.21-2.04.2-1.71 2.92 1.3 3.28 1.72 1.39 1.61 2.74 2.98 4.66 3.98 3.1 1.62 2.98 6.47 3.15 9.54.07 1.22.36 8.51-2.65 7.3-.37-.15-.67-.69-.89-1-.4-.57-.76-1.19-1.2-1.73-.64-.78-1.75-1.27-2.71-.84-2.23 1-5.47 3.29-5.5-.52-.02-1.79.27-3.56.57-5.34z" fill="#fcc21b"/></svg>