<?xml version="1.0" encoding="utf-8"?>
<!-- Generator: Adobe Illustrator 19.2.1, SVG Export Plug-In . SVG Version: 6.00 Build 0)  -->
<svg version="1.1" id="图层_1" xmlns="http://www.w3.org/2000/svg" xmlns:xlink="http://www.w3.org/1999/xlink" x="0px" y="0px"
	 viewBox="0 0 128 128" style="enable-background:new 0 0 128 128;" xml:space="preserve">
<g>
	<g>
		<g>
			<g>
				<path style="fill:#FCC21B;" d="M64,9.62c-62.41,0-63.88,69.96-63.88,83.8c0,13.86,28.59,25.08,63.88,25.08
					c35.28,0,63.88-11.22,63.88-25.08C127.88,79.58,126.4,9.62,64,9.62z"/>
			</g>
		</g>
	</g>
	<g>
		<path style="fill:#2F2F2F;" d="M41.99,65.5c-4.49,0.04-8.17-4.27-8.22-9.62c-0.05-5.37,3.55-9.75,8.04-9.79
			c4.48-0.04,8.17,4.27,8.22,9.64C50.08,61.09,46.47,65.46,41.99,65.5z"/>
		<path style="fill:#2F2F2F;" d="M86.1,65.5c4.48-0.01,8.11-4.36,8.1-9.71c-0.01-5.37-3.66-9.7-8.14-9.69
			c-4.49,0.01-8.13,4.36-8.12,9.73C77.95,61.18,81.61,65.51,86.1,65.5z"/>
	</g>
	<path style="fill:#ED6C30;" d="M43.08,97.67c1.99,1.34,4.5,0.46,6.71,0c6.18-1.28,11.6-1.33,14.2-1.33s8.03,0.05,14.2,1.33
		c2.21,0.46,4.72,1.34,6.71,0c2.52-1.71,0.66-7.83-3.31-11.97c-2.4-2.5-8.13-7.35-17.61-7.35c-9.48,0-15.2,4.85-17.61,7.35
		C42.42,89.85,40.56,95.97,43.08,97.67z"/>
</g>
</svg>
