<svg enable-background="new 0 0 128 128" viewBox="0 0 128 128" xmlns="http://www.w3.org/2000/svg"><path d="m25.12 53.18c-0.45 0-0.89-0.06-1.33-0.18-2.61-0.72-3.88-3.52-3.78-5.91 0.08-0.44 1.29-1.83 2.26-2.94 2.89-3.3 6.84-7.81 5.95-12.52-0.52-2.75-2.67-5.11-6.39-7.03-8.06-4.15-9.39-6.27-10.4-8.81-1.71-4.32 1.81-7.68 3.7-9.48l0.3-0.28c0.25-0.24 0.57-0.37 0.91-0.37 0.21 0 0.52 0.05 0.82 0.3 0.66 0.57 1.4 1.29 2.18 2.05 2.84 2.77 6.06 5.91 9.42 5.91 2.82 0 5.36-1.14 7.69-2.38 1.07-0.57 2.08-0.86 3.01-0.86 2.91 0 4.63 2.8 5.56 5.16 1.02 2.59 0.56 5.57-0.02 8.14-2.03 8.91-6.32 17.42-12.41 24.61-1.47 1.71-4.37 4.59-7.47 4.59z" fill="#EDD5BE"/><path d="m16.34 6.66c0.09 0 0.15 0.05 0.16 0.06 0.64 0.55 1.36 1.26 2.13 2.01 2.98 2.9 6.36 6.19 10.12 6.19 3.04 0 5.72-1.2 8.16-2.49 0.92-0.49 1.78-0.74 2.54-0.74 2.35 0 3.82 2.46 4.63 4.53 0.92 2.34 0.48 5.13-0.07 7.55-1.99 8.75-6.21 17.12-12.2 24.18-1.34 1.58-4 4.24-6.7 4.24-0.36 0-0.71-0.05-1.06-0.14-2.03-0.56-3.06-2.82-3.05-4.72 0.26-0.49 1.27-1.64 2.02-2.5 2.85-3.26 7.16-8.18 6.18-13.36-0.58-3.06-2.91-5.66-6.92-7.73-8.35-4.3-9.15-6.33-9.93-8.29-1.35-3.4 1.08-6.12 3.46-8.39l0.3-0.29c0.09-0.1 0.18-0.11 0.23-0.11m4.67 40.48m-4.67-42.48c-0.58 0-1.16 0.22-1.6 0.65-1.77 1.71-6.3 5.65-4.23 10.86 1.12 2.83 2.62 5.08 10.88 9.33 14.66 7.55-2.24 18.67-2.36 21.55-0.12 2.89 1.49 6.08 4.51 6.91 0.53 0.15 1.07 0.22 1.59 0.22 3.18 0 6.15-2.5 8.22-4.95 6.2-7.32 10.56-15.95 12.62-25.03 0.66-2.89 1.07-5.96-0.02-8.73-1.41-3.56-3.61-5.79-6.49-5.79-1.07 0-2.23 0.31-3.48 0.97-2 1.06-4.47 2.26-7.22 2.26-3.84 0-8-5.19-10.95-7.71-0.43-0.36-0.95-0.54-1.47-0.54z" fill="#A59898"/><path d="m22.42 120.07c-1.89 0.55-3.91 2.15-4.66 3.75 4.37 0.43 12.98-0.02 12.98-0.02s0.81-3.02 0.02-3.7c-1.8-1.53-6.29-0.62-8.34-0.03z" fill="#EDD5BE" stroke="#A59898" stroke-linecap="round" stroke-linejoin="round" stroke-miterlimit="10" stroke-width="1.9866"/><polygon points="35.76 95.05 40.66 96.81 32.8 119 29.57 119" fill="#EDD5BE" stroke="#A59898" stroke-linecap="round" stroke-linejoin="round" stroke-miterlimit="10" stroke-width="2"/><polygon points="99.29 49.06 103.81 51.59 99.07 60.63 96.31 58.86" fill="#EDD5BE" stroke="#A59898" stroke-linecap="round" stroke-linejoin="round" stroke-miterlimit="10" stroke-width="1.9866"/><polygon points="38.76 95.05 43.66 96.81 35.8 119 32.57 119" fill="#EDD5BE" stroke="#A59898" stroke-linecap="round" stroke-linejoin="round" stroke-miterlimit="10" stroke-width="2"/><polygon points="104.47 87.07 97.14 88.81 105.21 118.36 108.69 117.86" fill="#EDD5BE" stroke="#A59898" stroke-linecap="round" stroke-linejoin="round" stroke-miterlimit="10" stroke-width="1.9866"/><path d="m99.7 109.92c-1.35 2.03-1.31 4.9 0.11 6.89s4.11 2.97 6.48 2.36c1.63-0.42 3.02-1.51 4.07-2.82 0.91-1.15 1.6-2.51 1.77-3.96 0.79-6.91-9.5-6.87-12.43-2.47z" fill="#787878"/><polygon points="108.03 98.89 103.14 100.58 108.19 119.35 111.66 118.85" fill="#EDD5BE" stroke="#A59898" stroke-linecap="round" stroke-linejoin="round" stroke-miterlimit="10" stroke-width="1.9866"/><path d="m73.25 56.88s6.65 4.42 14.69 3.87l-4.44 20.87s-9.5 0.5-15-2.88c-4.01-2.45 4.75-21.86 4.75-21.86z" fill="#EDD5BE" stroke="#A59898" stroke-linecap="round" stroke-linejoin="round" stroke-miterlimit="10" stroke-width="1.9866"/><path d="m28.22 119.94c-2.17 0.56-4.48 2.21-5.34 3.86 5.02 0.45 14.89 0 14.89 0s0.93-3.12 0.01-3.81c-2.06-1.58-7.21-0.66-9.56-0.05z" fill="#EDD5BE" stroke="#A59898" stroke-linecap="round" stroke-linejoin="round" stroke-miterlimit="10" stroke-width="1.9866"/><path d="m97.63 120.58c-1.83 0.47-3.78 1.87-4.5 3.25 4.23 0.38 12.56 0 12.56 0s0.78-2.63 0.01-3.22c-1.75-1.33-6.09-0.54-8.07-0.03z" fill="#EDD5BE" stroke="#A59898" stroke-linecap="round" stroke-linejoin="round" stroke-miterlimit="10" stroke-width="1.9866"/><path d="m103.94 119.94c-1.94 0.57-4.01 2.22-4.79 3.87 4.49 0.44 13.33-0.02 13.33-0.02s0.83-3.13 0.02-3.82c-1.85-1.59-6.46-0.65-8.56-0.03z" fill="#EDD5BE" stroke="#A59898" stroke-linecap="round" stroke-linejoin="round" stroke-miterlimit="10" stroke-width="1.9866"/><path d="m31.84 15.42s-0.07 0.14-0.15 0.38c-0.08 0.22-0.17 0.56-0.24 0.94-0.06 0.38-0.09 0.83-0.05 1.27 0.03 0.44 0.15 0.87 0.34 1.17l0.06 0.1 0.13 0.16c0.08 0.08 0.11 0.13 0.2 0.21 0.15 0.14 0.31 0.27 0.49 0.37 0.35 0.22 0.74 0.34 1.12 0.41 0.37 0.06 0.72 0.07 0.97 0.06 0.26-0.01 0.41-0.02 0.41-0.02s-0.09 0.12-0.3 0.29-0.54 0.39-1.01 0.52-1.08 0.15-1.7-0.05c-0.31-0.1-0.62-0.26-0.89-0.48-0.13-0.09-0.29-0.25-0.41-0.37l-0.14-0.16c-0.09-0.11-0.12-0.17-0.18-0.25-0.41-0.66-0.47-1.4-0.38-2.01 0.03-0.31 0.12-0.59 0.22-0.85s0.22-0.49 0.36-0.69c0.26-0.4 0.56-0.66 0.8-0.81 0.2-0.15 0.35-0.18 0.35-0.19z" fill="#524049"/><linearGradient id="g" x1="41.447" x2="41.447" y1="39" y2="100.54" gradientUnits="userSpaceOnUse"><stop stop-color="#fff" offset=".0949"/><stop stop-color="#F6F6F6" offset=".2841"/><stop stop-color="#DCDCDC" offset=".5975"/><stop stop-color="#B4B4B4" offset=".9945"/><stop stop-color="#B3B3B3" offset="1"/></linearGradient><path d="m15.78 63.49c0.25 0.27 0.51 0.52 0.77 0.77-5.23 1.92-8.95 6.81-8.95 12.55 0 7.42 6.21 13.43 13.86 13.43 1.24 0 2.44-0.17 3.58-0.47 0.69 5.37 5.41 9.53 11.14 9.53 5.03 0 9.29-3.2 10.72-7.62 1.01 0.35 2.1 0.55 3.24 0.55 4.68 0 8.59-3.24 9.46-7.53 0.22 0.01 0.44 0.03 0.67 0.03 6.31 0 11.42-4.96 11.42-11.07 0-1.85-0.48-3.59-1.3-5.13 2.96-2.01 4.91-5.34 4.91-9.11 0-6.14-5.14-11.13-11.48-11.13-0.04 0-0.08 0.01-0.13 0.01-2.82-3.46-7.18-5.7-12.09-5.7-4.77 0-9.04 2.1-11.87 5.41-2.34-4.76-7.33-8.06-13.13-8.06-8.04 0-14.55 6.31-14.55 14.1 0 8.03 7.89 13.9 15.11 13.02" fill="url(#g)" stroke="#BDBDBD" stroke-linecap="round" stroke-linejoin="round" stroke-miterlimit="10" stroke-width="2"/><linearGradient id="f" x1="49.086" x2="49.086" y1="4.5074" y2="53.331" gradientUnits="userSpaceOnUse"><stop stop-color="#fff" offset=".0949"/><stop stop-color="#F6F6F6" offset=".2841"/><stop stop-color="#DCDCDC" offset=".5975"/><stop stop-color="#B4B4B4" offset=".9945"/><stop stop-color="#B3B3B3" offset="1"/></linearGradient><path d="m46.51 55.31c-6.29 0-11.41-5.4-11.41-12.03 0-3.04 1.07-5.94 3.02-8.17 0.24-0.27 0.31-0.64 0.21-0.98-0.25-0.79-0.37-1.63-0.37-2.51 0-1.58 0.42-3.1 1.23-4.42 0.24-0.39 0.19-0.9-0.13-1.24-1.18-1.26-1.83-2.94-1.83-4.72 0-2.68 1.5-5.1 3.81-6.16 0.48-0.22 0.72-0.78 0.54-1.28-0.06-0.16-0.1-0.33-0.15-0.5-0.1-0.37-0.4-0.66-0.78-0.73-1.74-0.36-3.01-1.92-3.01-3.7 0-2.08 1.7-3.78 3.78-3.78 0.54 0 1.07 0.12 1.59 0.36 0.14 0.06 0.29 0.1 0.43 0.1 0.22 0 0.44-0.07 0.62-0.21 1.18-0.89 2.57-1.36 4.01-1.36 2.84 0 5.35 1.8 6.41 4.59 0.16 0.41 0.54 0.66 0.96 0.66 0.09 0 0.19-0.01 0.28-0.04 0.54-0.15 1.1-0.23 1.66-0.23 3.15 0 5.71 2.4 5.71 5.34 0 1.61-0.77 3.13-2.12 4.15-0.27 0.2-0.42 0.52-0.41 0.86 0 0.01 0.01 0.12 0.01 0.13 0 1.17-0.3 2.22-0.88 3.11-0.26 0.4-0.21 0.93 0.13 1.28 1 1.02 1.54 2.39 1.54 3.85 0 2.95-2.26 5.35-5.05 5.35-0.31 0-0.6-0.03-0.87-0.09-0.08-0.02-0.15-0.03-0.23-0.03-0.37 0-0.71 0.2-0.9 0.53-0.22 0.4-0.16 0.89 0.16 1.22 2.22 2.29 3.45 5.35 3.45 8.62-0.01 6.64-5.12 12.03-11.41 12.03z" clip-rule="evenodd" fill="url(#f)" fill-rule="evenodd"/><path d="m48.06 5.02c2.4 0 4.54 1.54 5.45 3.93 0.31 0.82 1.09 1.33 1.92 1.33 0.19 0 0.37-0.03 0.56-0.08 0.45-0.13 0.91-0.19 1.38-0.19 2.58 0 4.68 1.93 4.68 4.31 0 1.29-0.62 2.5-1.71 3.33-0.53 0.41-0.84 1.05-0.81 1.72l0.01 0.17c0 0.89-0.25 1.74-0.72 2.47-0.52 0.81-0.42 1.87 0.25 2.55 0.81 0.83 1.25 1.94 1.25 3.13 0 2.38-1.8 4.32-4.02 4.32-0.24 0-0.45-0.02-0.64-0.06-0.15-0.03-0.3-0.05-0.45-0.05-0.73 0-1.42 0.39-1.79 1.05-0.44 0.79-0.32 1.79 0.32 2.44 2.03 2.1 3.15 4.9 3.15 7.9 0 6.06-4.66 11-10.38 11-5.73 0-10.39-4.93-10.39-11 0-2.79 0.98-5.45 2.77-7.49 0.47-0.54 0.63-1.29 0.41-1.97-0.22-0.69-0.33-1.43-0.33-2.2 0-1.39 0.37-2.73 1.08-3.88 0.48-0.79 0.38-1.8-0.25-2.48-1-1.07-1.55-2.5-1.55-4.02 0-2.28 1.26-4.33 3.21-5.22 0.96-0.44 1.43-1.55 1.08-2.55-0.05-0.14-0.09-0.28-0.13-0.43-0.2-0.75-0.81-1.32-1.57-1.47-1.27-0.26-2.19-1.39-2.19-2.69 0-1.52 1.23-2.75 2.75-2.75 0.38 0 0.77 0.09 1.15 0.27 0.28 0.13 0.57 0.19 0.87 0.19 0.44 0 0.88-0.14 1.24-0.42 1.01-0.76 2.19-1.16 3.4-1.16m0-2.06c-1.73 0-3.33 0.59-4.63 1.57-0.62-0.29-1.3-0.46-2.02-0.46-2.65 0-4.81 2.15-4.81 4.81 0 2.32 1.64 4.25 3.83 4.71 0.05 0.19 0.11 0.38 0.17 0.57-2.6 1.19-4.41 3.92-4.41 7.09 0 2.11 0.8 4.03 2.1 5.42-0.87 1.43-1.38 3.14-1.38 4.96 0 0.98 0.14 1.93 0.42 2.82-2.04 2.33-3.27 5.43-3.27 8.84 0 7.21 5.57 13.06 12.44 13.06s12.43-5.85 12.43-13.06c0-3.66-1.43-6.96-3.74-9.34 0.35 0.08 0.72 0.11 1.09 0.11 3.36 0 6.07-2.85 6.07-6.38 0-1.79-0.71-3.41-1.83-4.57 0.66-1.02 1.05-2.26 1.05-3.59 0-0.08-0.01-0.17-0.01-0.25 1.54-1.17 2.53-2.96 2.53-4.97 0-3.52-3.02-6.37-6.74-6.37-0.67 0-1.32 0.1-1.94 0.27-1.14-3.06-4-5.24-7.35-5.24z" fill="#BDBDBD"/><linearGradient id="e" x1="95.939" x2="95.939" y1="58.691" y2="105.1" gradientUnits="userSpaceOnUse"><stop stop-color="#fff" offset=".0949"/><stop stop-color="#F6F6F6" offset=".2841"/><stop stop-color="#DCDCDC" offset=".5975"/><stop stop-color="#B4B4B4" offset=".9945"/><stop stop-color="#B3B3B3" offset="1"/></linearGradient><path d="m102.17 102.95c-4.21 0-7.63-3.42-7.63-7.63 0-0.89 0.16-1.78 0.48-2.64 0.13-0.36 0.05-0.76-0.21-1.03-0.19-0.2-0.46-0.31-0.73-0.31-0.1 0-0.2 0.01-0.29 0.04-1.06 0.33-2.15 0.49-3.26 0.49-6.16 0-11.18-5.01-11.18-11.18 0-3.01 1.19-5.83 3.36-7.96 0.27-0.26 0.36-0.65 0.26-1-0.32-1.05-0.48-2.13-0.48-3.21 0-6.16 5.01-11.18 11.18-11.18s11.18 5.01 11.18 11.18c0 1.42-0.27 2.81-0.81 4.15-0.12 0.31-0.09 0.66 0.1 0.93 0.18 0.27 0.49 0.44 0.82 0.44 4.18 0.03 7.58 3.45 7.58 7.63 0 2.96-1.74 5.67-4.43 6.92-0.29 0.13-0.5 0.4-0.56 0.71s0.03 0.64 0.24 0.87c1.3 1.42 2.02 3.25 2.02 5.15-0.02 4.21-3.44 7.63-7.64 7.63z" fill="url(#e)"/><path d="m93.67 58.34c5.61 0 10.18 4.56 10.18 10.18 0 1.29-0.25 2.56-0.74 3.78-0.25 0.61-0.18 1.31 0.19 1.86s0.99 0.88 1.65 0.89c3.63 0.03 6.58 3 6.58 6.63 0 2.57-1.51 4.93-3.85 6.01-0.58 0.27-1 0.8-1.12 1.42-0.12 0.63 0.06 1.27 0.49 1.74 1.13 1.23 1.75 2.82 1.75 4.48 0 3.66-2.97 6.63-6.63 6.63s-6.63-2.97-6.63-6.63c0-0.77 0.14-1.55 0.42-2.3 0.26-0.71 0.1-1.52-0.42-2.07-0.38-0.41-0.91-0.63-1.45-0.63-0.2 0-0.39 0.03-0.59 0.09-0.96 0.3-1.96 0.45-2.96 0.45-5.61 0-10.18-4.56-10.18-10.18 0-2.74 1.09-5.31 3.06-7.25 0.53-0.52 0.73-1.29 0.51-2.01-0.29-0.96-0.44-1.94-0.44-2.92 0-5.61 4.57-10.17 10.18-10.17m0-2c-6.7 0-12.18 5.48-12.18 12.18 0 1.22 0.19 2.39 0.52 3.5-2.25 2.21-3.66 5.29-3.66 8.68 0 6.7 5.48 12.18 12.18 12.18 1.23 0 2.43-0.19 3.55-0.53-0.35 0.93-0.54 1.94-0.54 2.99 0 4.77 3.86 8.63 8.63 8.63s8.63-3.86 8.63-8.63c0-2.25-0.87-4.29-2.28-5.83 2.96-1.37 5.01-4.35 5.01-7.83 0-4.75-3.83-8.59-8.57-8.63 0.57-1.4 0.89-2.93 0.89-4.53-0.01-6.7-5.49-12.18-12.18-12.18z" fill="#BDBDBD"/><linearGradient id="d" x1="109.77" x2="109.77" y1="104.63" y2="118.02" gradientUnits="userSpaceOnUse"><stop stop-color="#fff" offset=".0949"/><stop stop-color="#F6F6F6" offset=".2841"/><stop stop-color="#DCDCDC" offset=".5975"/><stop stop-color="#B4B4B4" offset=".9945"/><stop stop-color="#B3B3B3" offset="1"/></linearGradient><path d="m109.14 118.08c-1.8 0-3.54-0.88-4.54-2.29-1.26-1.78-1.3-4.38-0.1-6.2 1.11-1.68 3.63-2.8 6.25-2.8 1.84 0 3.4 0.57 4.29 1.56 0.71 0.8 1 1.88 0.85 3.2-0.14 1.23-0.72 2.51-1.67 3.71-0.77 0.96-2.05 2.21-3.8 2.66-0.42 0.11-0.84 0.16-1.28 0.16z" fill="url(#d)"/><path d="m110.75 107.8c1.55 0 2.84 0.45 3.54 1.23 0.52 0.59 0.72 1.38 0.6 2.42-0.15 1.32-0.88 2.46-1.46 3.19-0.95 1.19-2.11 2.01-3.27 2.31-0.33 0.08-0.67 0.13-1.03 0.13-1.46 0-2.92-0.73-3.73-1.86-1.03-1.45-1.07-3.58-0.08-5.06 0.93-1.39 3.16-2.36 5.43-2.36m0-2c-2.76 0-5.7 1.16-7.09 3.25-1.44 2.16-1.39 5.21 0.12 7.33 1.21 1.7 3.29 2.7 5.36 2.7 0.51 0 1.03-0.06 1.53-0.19 1.73-0.45 3.22-1.6 4.33-3 0.97-1.22 1.7-2.67 1.88-4.21 0.46-4.08-2.7-5.88-6.13-5.88z" fill="#BDBDBD"/><linearGradient id="c" x1="104.42" x2="104.42" y1="36.75" y2="52.626" gradientUnits="userSpaceOnUse"><stop stop-color="#fff" offset=".0949"/><stop stop-color="#F6F6F6" offset=".2841"/><stop stop-color="#DCDCDC" offset=".5975"/><stop stop-color="#B4B4B4" offset=".9945"/><stop stop-color="#B3B3B3" offset="1"/></linearGradient><circle cx="104.42" cy="45.25" r="8.42" fill="url(#c)" stroke="#BDBDBD" stroke-linecap="round" stroke-linejoin="round" stroke-miterlimit="10" stroke-width="2"/><linearGradient id="b" x1="111.42" x2="111.42" y1="27.5" y2="37.859" gradientUnits="userSpaceOnUse"><stop stop-color="#fff" offset=".0949"/><stop stop-color="#F6F6F6" offset=".2841"/><stop stop-color="#DCDCDC" offset=".5975"/><stop stop-color="#B4B4B4" offset=".9945"/><stop stop-color="#B3B3B3" offset="1"/></linearGradient><circle cx="111.42" cy="33.42" r="4.92" fill="url(#b)" stroke="#BDBDBD" stroke-linecap="round" stroke-linejoin="round" stroke-miterlimit="10" stroke-width="2"/><path d="m26.42 107.48c-1.36 2.01-1.32 4.83 0.11 6.79s4.15 2.93 6.53 2.33c1.64-0.41 3.05-1.49 4.11-2.78 0.92-1.13 1.62-2.47 1.78-3.91 0.8-6.8-9.58-6.77-12.53-2.43z" fill="#787878"/><linearGradient id="a" x1="36.266" x2="36.266" y1="104.28" y2="117.78" gradientUnits="userSpaceOnUse"><stop stop-color="#fff" offset=".0949"/><stop stop-color="#F6F6F6" offset=".2841"/><stop stop-color="#DCDCDC" offset=".5975"/><stop stop-color="#B4B4B4" offset=".9945"/><stop stop-color="#B3B3B3" offset="1"/></linearGradient><path d="m35.6 116.44c-1.91 0-3.76-0.93-4.83-2.43-1.34-1.89-1.38-4.65-0.1-6.58 1.18-1.78 3.84-2.97 6.62-2.97 1.95 0 3.61 0.61 4.55 1.66 0.76 0.85 1.07 2 0.91 3.41-0.15 1.3-0.76 2.66-1.77 3.93-0.81 1.02-2.17 2.33-4.03 2.81-0.43 0.11-0.88 0.17-1.35 0.17z" fill="url(#a)"/><path d="m37.3 105.46c1.66 0 3.05 0.48 3.8 1.33 0.57 0.64 0.79 1.5 0.66 2.63-0.13 1.12-0.67 2.3-1.56 3.42-1.01 1.27-2.26 2.15-3.49 2.47-0.35 0.09-0.73 0.14-1.11 0.14-1.57 0-3.14-0.79-4.01-2.01-1.11-1.56-1.15-3.85-0.09-5.45 0.99-1.49 3.37-2.53 5.8-2.53m0-2c-2.9 0-6 1.22-7.46 3.42-1.51 2.28-1.46 5.49 0.12 7.71 1.27 1.78 3.46 2.85 5.64 2.85 0.54 0 1.08-0.07 1.61-0.2 1.82-0.47 3.38-1.69 4.56-3.16 1.02-1.28 1.79-2.81 1.98-4.44 0.49-4.28-2.84-6.18-6.45-6.18z" fill="#BDBDBD"/><ellipse transform="matrix(.6231 -.7821 .7821 .6231 2.022 14.952)" cx="16.53" cy="5.38" rx="2.31" ry="3.03" fill="#0D0703"/></svg>
