<svg enable-background="new 0 0 128 128" viewBox="0 0 128 128" xmlns="http://www.w3.org/2000/svg"><rect x="-270" y="-56.67" width="0" height=".67" fill="#F2F2F2"/><rect x="60" y="54" width="8" height="70" fill="#424242"/><g opacity=".2"><path d="m66 56v66h-4v-66h4m2-2h-8v70h8v-70z" fill="#eee"/></g><path d="m74.14 107.44h-20.28c-3.54 0-6.41-2.53-6.41-5.64v-30.1c0-3.12 2.87-5.64 6.41-5.64h20.29c3.54 0 6.41 2.53 6.41 5.64v30.1c-0.01 3.11-2.88 5.64-6.42 5.64z" fill="#689F38"/><path d="m64 4c-15.71 0-28.44 12.74-28.44 28.45s12.73 28.44 28.44 28.44 28.44-12.73 28.44-28.44-12.73-28.45-28.44-28.45zm-14.73 41h30.24-30.24z" fill="#2196F3"/><path d="m70.3 99.1h-12.55c-1.1 0-2-0.9-2-2v-0.14c0-1.1 0.9-2 2-2h12.55c1.1 0 2 0.9 2 2v0.14c0 1.1-0.9 2-2 2z" fill="#689F38"/><path d="m70.3 90.87h-12.55c-1.1 0-2-0.9-2-2v-0.14c0-1.1 0.9-2 2-2h12.55c1.1 0 2 0.9 2 2v0.14c0 1.1-0.9 2-2 2z" fill="#689F38"/><path d="m61.01 82.39h-4.21c-0.55 0-1-0.45-1-1v-6.04c0-0.55 0.45-1 1-1h4.21c0.55 0 1 0.45 1 1v6.04c0 0.55-0.45 1-1 1z" fill="#689F38"/><path d="m76.13 16h-1.98c-0.55 0-1.09-0.02-1.62-0.17l-3.02-0.84c-1.78-0.48-9.22-0.44-11 0.05l-2.98 0.77c-0.54 0.15-1.12 0.19-1.67 0.19h-1.98c-1.87 0-3.88 1.89-3.88 3.75v27.45c0 1.83 1.73 3.48 3.56 3.51 1.84 0.04 3.4-0.85 3.4-3.12 0-1.15 1.39-1.6 2.22-1.6h13.65c0.82 0 2.1 0.45 2.1 1.6 0 2.27 1.18 3.09 3.02 3.05 1.83-0.04 3.06-1.62 3.06-3.44v-27.45c-0.01-1.86-1.02-3.75-2.88-3.75z" fill="#fff"/><circle cx="56.4" cy="39.07" r="3.1" fill="#2196F3"/><circle cx="71.87" cy="39.07" r="3.1" fill="#2196F3"/><g opacity=".2"><path d="M64,7c14.03,0,25.44,11.41,25.44,25.44S78.03,57.89,64,57.89S38.56,46.48,38.56,32.45S49.97,7,64,7 M64,4C48.29,4,35.56,16.74,35.56,32.45S48.29,60.89,64,60.89s28.44-12.73,28.44-28.44S79.71,4,64,4L64,4z" fill="#424242"/></g><path d="m72.56 33.07h-16.85c-1.33 0-2.41-1.09-2.41-2.41v-7.93c0-1.33 1.09-2.41 2.41-2.41h16.85c1.33 0 2.41 1.09 2.41 2.41v7.93c0 1.32-1.08 2.41-2.41 2.41z" fill="#2196F3"/><g opacity=".2"><path d="m74.14 68.05c2.43 0 4.41 1.63 4.41 3.64v30.1c0 2.01-1.98 3.64-4.41 3.64h-20.28c-2.43 0-4.41-1.63-4.41-3.64v-30.09c0-2.01 1.98-3.64 4.41-3.64h20.28m0-2.01h-20.28c-3.54 0-6.41 2.53-6.41 5.64v30.1c0 3.12 2.87 5.64 6.41 5.64h20.29c3.54 0 6.41-2.53 6.41-5.64v-30.09c-0.01-3.12-2.88-5.65-6.42-5.65z" fill="#424242"/></g><path d="m70.3 99.1h-12.55c-1.1 0-2-0.9-2-2v-0.14c0-1.1 0.9-2 2-2h12.55c1.1 0 2 0.9 2 2v0.14c0 1.1-0.9 2-2 2z" fill="#C5E1A5"/><path d="m70.3 88.8h-12.55c-1.1 0-2-0.9-2-2v-0.14c0-1.1 0.9-2 2-2h12.55c1.1 0 2 0.9 2 2v0.14c0 1.11-0.9 2-2 2z" fill="#C5E1A5"/><path d="m70.3 78.51h-12.55c-1.1 0-2-0.9-2-2v-0.14c0-1.1 0.9-2 2-2h12.55c1.1 0 2 0.9 2 2v0.14c0 1.1-0.9 2-2 2z" fill="#C5E1A5"/><path d="M80.47,124h-33.1v-5.93c0-1.17,0.95-2.12,2.12-2.12h28.86c1.17,0,2.12,0.95,2.12,2.12V124z" fill="#9E9E9E"/><path d="M84,124H44v-1.89c0-1.17,0.95-2.12,2.12-2.12h35.76c1.17,0,2.12,0.95,2.12,2.12V124z" fill="#BDBDBD"/><g opacity=".2"><path d="m64.32 15.66c2.27 0 4.24 0.12 4.91 0.3l3.03 0.84c0.66 0.18 1.32 0.2 1.89 0.2h1.98c1.22 0 1.87 1.42 1.87 2.75v27.45c0 1.16-0.73 2.42-2.08 2.44h-0.1c-1.17 0-1.9-0.34-1.9-2.05 0-1.69-1.6-2.6-3.1-2.6h-13.64c-1.34 0-3.22 0.95-3.22 2.74 0 1.41-0.77 2.26-2.29 2.26h-0.09c-1.3 0-2.58-1.55-2.58-2.79v-27.45c0-1.28 1.53-2.75 2.87-2.75h1.98c0.72 0 1.37-0.07 1.91-0.22l3-0.78c0.76-0.2 3.05-0.34 5.56-0.34m0-1c-2.41 0-4.89 0.13-5.82 0.38l-2.98 0.77c-0.53 0.15-1.11 0.19-1.66 0.19h-1.98c-1.87 0-3.88 1.89-3.88 3.75v27.45c0 1.83 1.73 3.48 3.56 3.51h0.11c1.79 0 3.29-0.9 3.29-3.12 0-1.15 1.39-1.6 2.22-1.6h13.65c0.82 0 2.1 0.63 2.1 1.77 0 2.22 1.13 3.23 2.9 3.23h0.12c1.83 0 3.06-1.97 3.06-3.79v-27.45c0-1.86-1.01-3.75-2.87-3.75h-1.98c-0.55 0-1.09-0.02-1.62-0.17l-3.02-0.84c-0.87-0.23-3-0.33-5.2-0.33z" fill="#424242"/></g><g opacity=".2"><path d="m78.35 117c0.62 0 1.12 0.5 1.12 1.09l-0.03 1.9c0 0.27 0.1 0.53 0.29 0.72s0.44 0.29 0.71 0.29h0.01l1.43-0.01c0.62 0 1.12 0.5 1.12 1.12v0.89h-38v-0.89c0-0.62 0.5-1.11 1.12-1.11h1.26c0.55 0 1-0.45 1-1l0.02-1.89c0-0.62 0.48-1.11 1.1-1.11h28.5m0.35-1h-28.86c-1.17 0-2.1 0.95-2.1 2.11l-0.02 1.89h-1.26c-1.17 0-2.12 0.94-2.12 2.11v1.89h40.01v-1.89c0-1.17-0.95-2.12-2.12-2.12l-1.44 0.01 0.03-1.89c0-1.17-0.95-2.11-2.12-2.11z" fill="#424242"/></g></svg>
