<?xml version="1.0" encoding="utf-8"?>
<!-- Generator: Adobe Illustrator 16.0.0, SVG Export Plug-In . SVG Version: 6.00 Build 0)  -->
<!DOCTYPE svg PUBLIC "-//W3C//DTD SVG 1.1//EN" "http://www.w3.org/Graphics/SVG/1.1/DTD/svg11.dtd">
<svg version="1.1" id="レイヤー_1" xmlns="http://www.w3.org/2000/svg" xmlns:xlink="http://www.w3.org/1999/xlink" x="0px"
	 y="0px" width="128px" height="128px" viewBox="0 0 128 128" enable-background="new 0 0 128 128" xml:space="preserve">
<g>
	<g>
		<path fill="#FCC21B" d="M37.19,12.93C7.96,18.32-7.12,44.37,3.47,72.89c4.31,11.62-0.94,12.97-0.94,19.37
			c0,13.53,27.93,24.49,62.38,24.49c34.45,0,62.38-10.96,62.38-24.49C131.86,51.75,100.07,1.38,37.19,12.93z"/>
		<path fill="#ED6C30" d="M82.12,89.01c-0.73,7.74-5.22,13.2-15.16,13.26c-9.33,0.11-12.26-6.57-19.98-6.52
			c-8.21,0.02-8.12,2.33-14.57,3.22c-5.03,0.55-9.96-5.57-10.83-8.4c-1.59-5.45-2.74-10.59,4.05-14.4
			c6.46-3.91,15.54,3.86,19.43,3.76c7.4-0.03,12.31-10.72,22.44-9.36C76.98,71.84,82.35,81.79,82.12,89.01z"/>
	</g>
	<path fill="#2F2F2F" d="M75.67,63.66c1.68-0.44,2.67-2.14,2.24-3.82c-0.44-1.66-2.13-2.66-3.8-2.24
		c-0.52,0.14-12.74,3.07-20.89-6.63c-1.11-1.32-3.08-1.49-4.41-0.39c-1.31,1.11-1.49,3.08-0.37,4.41c5.55,6.6,12.44,8.73,17.92,9.24
		C71.49,64.69,75.35,63.73,75.67,63.66z"/>
	<path fill="#2F2F2F" d="M16.38,70.27c0.4,1.21,1.53,1.99,2.75,1.99c0.29,0,0.61-0.05,0.91-0.16c13.89-4.59,13.76-15.65,13.74-16.12
		c-0.03-1.6-1.28-2.98-2.95-2.81c-1.59,0.05-2.84,1.36-2.81,2.93c0,0.36-0.14,7.34-9.8,10.52C16.71,67.13,15.88,68.76,16.38,70.27z"
		/>
</g>
</svg>
