<?xml version="1.0" encoding="utf-8"?>
<!-- Generator: Adobe Illustrator 19.2.1, SVG Export Plug-In . SVG Version: 6.00 Build 0)  -->
<svg version="1.1" xmlns="http://www.w3.org/2000/svg" xmlns:xlink="http://www.w3.org/1999/xlink" x="0px" y="0px"
	 viewBox="0 0 128 128" style="enable-background:new 0 0 128 128;" xml:space="preserve">
<g id="Layer_1">
	<path style="display:none;fill:#E39E49;" d="M-1171.7,65.14c0,0,9.08-0.67,16.3,0.96l-0.12-3.1c0,0-6.36-1.17-13.24-0.79
		c-2.31,0.13-5.39,0.04-7.58,0.58c-3.73,0.91-7.12,2.58-9.26,4.71l-3.59-8.76c0,0-2.76,1.94-3.14,2.33
		c-0.48,0.48-1.18,0.22-1.18,0.22c-0.03,0-0.03,0.03-0.04,0.06c0.7,0.51,1.37,1.14,1.97,2c1.09,1.55,2.7,3.92,4.34,6.34
		c-0.13,0.26-0.28,0.52-0.37,0.79c0,0-2.21,5.66,2.75,9.71c0,0,1.55,1.49,5.83,1.63c2.2,3.95-0.76,6.59-0.76,6.59
		c-4.16,3.61-9.08-0.39-9.08-0.39c-0.95-0.57-4.31-4.34-5.67-5.9l-5.96-7.22c0,0,0.19,0.93-0.19,1.32
		c-0.48,0.48-1.18,0.22-1.18,0.22c-0.02,0-0.02,0.03-0.03,0.04c0.46,0.36,0.93,0.77,1.38,1.28c2.15,2.41,4.7,5.61,6.65,8.14
		l-0.01-0.03l0.93,1.23c3.47,4.37,3.18,5.78,3.18,5.78c0.14,3.69-3.93,4.96-3.93,4.96c-3.8,1.39-7.62-2.23-7.62-2.23
		c-1.29-1.2-6.24-6.2-6.24-6.2l3.31,6.1c3.03,3.5,5.79,4.41,5.79,4.41c5.79,2.12,9.63-2.14,9.63-2.14c1.4-1.67,1.41-3.46,1.41-3.46
		c0.03-1.06-0.23-2.09-0.64-3.06c5.56,2.93,9.77-0.44,9.77-0.44c3.51-3.15,2.59-7.24,1.91-9.08c0.61-0.05,1.25-0.12,1.95-0.23
		c3.47-0.53,5.64-0.87,7.86-0.78c0,0,6.12,0.22,7.5,3.87c0,0,0.48,1.69-0.04,3.99c0,0-0.11,1.81,1.04,1.91
		c0.6,0.05,1.86-0.64,2.48-1.6c0,0,0.78-1.01,0.67-3.07c0,0,0.19-3.18-3.4-5.57c0,0-2.5-1.82-5.56-2.1
		c-3.26-0.31-4.43-0.5-9.53,0.24c0,0-5.44,0.96-9.26-0.56c0,0-3.22-1.45-2.05-5.45C-1184.69,72.38-1182.99,66.25-1171.7,65.14z"/>
</g>
<g id="Layer_4">
</g>
<g id="Layer_3">
</g>
<g id="Layer_2">
	<g>
		<g>
			<g>
				<path style="fill:#70534A;" d="M90.09,57.69c1.46,0,1.43-1.6,1.43-1.6S91.63,30,91.9,28.59c0.38-1.99,1.66-5.75,6.69-5.51
					c2.09,0.1,6.12,0.91,6.57,7.87c0.1,1.5-0.18,42.02-0.29,44.29c0,0-0.84,17.96-3.3,26.73c-0.68,2.44-1.51,5.11-2.92,7.76
					c-1.4,2.64-3.28,5.31-5.74,7.62c-2.43,2.33-5.43,4.24-8.67,5.62c-3.24,1.37-6.71,2.18-10.15,2.59
					c-0.86,0.09-1.72,0.18-2.58,0.22l-2.43,0.16c-1.7,0.09-3.38,0.09-5.04,0.03c-3.32-0.1-6.58-0.49-9.7-1.08
					c-3.12-0.61-6.01-1.72-8.82-2.56c-4.85-1.45-9.45-4.74-12.67-7.57c-7.25-6.38-10.9-16.37-10.9-16.37l-0.87-3.68
					c-1.53-11.17-0.98-33.2-0.98-33.2c-0.17-7.5,3.96-10.67,6.5-11c7.31-0.95,9.83,4.33,10,11l-0.3,21.12
					c0.58,1.74,3.42,1.69,3.67-0.12c0.77-5.69,0.81-19.4,0.81-19.4c0.32-5.82,1.01-39.78,1.16-41.95c0.3-4.35,2.2-8.23,5.98-8.68
					c3.86-0.46,6.94,1.54,7.39,6.45c0.12,1.33-0.07,36.21-0.07,36.21c-0.02,2.03,2.6,2.41,2.75,0.32c0,0,0.51-43.09,0.5-45.08
					C58.45,5.88,61.53,2,65.51,2c3.89,0,6.83,3.24,6.91,7.86c0.02,1.47-0.15,32.02-0.09,44.4c0,0.83,0.24,1.72,1.38,1.72
					c0.01,0,1.25,0.09,1.25-1.5c0-3.34,0.41-36.31,0.46-38.12c0.11-4.15,2.01-7.84,6.27-7.89c3.89-0.05,7.36,2.98,7.16,7.6
					L88.64,56.3C88.64,56.3,88.72,57.69,90.09,57.69z"/>
			</g>
		</g>
		<g style="opacity:0.7;">
			<path style="opacity:0.5;fill:#70534A;" d="M57.99,64"/>
			<path style="fill:#35201A;" d="M45.08,65c0,0,0.75,2,3,2s3-2,3-2s-1-4-3-4S45.08,65,45.08,65z"/>
			<path style="fill:#35201A;" d="M95.08,68c0,0,0.75,2,3,2s3-2,3-2s-1-4-3-4S95.08,68,95.08,68z"/>
			<path style="fill:#35201A;" d="M61.08,63.33c0,0,1,2.67,4,2.67s4-2.67,4-2.67s-1.33-5.33-4-5.33
				C62.41,58,61.08,63.33,61.08,63.33z"/>
			<path style="fill:#35201A;" d="M78.08,64.67c0,0,0.88,2.33,3.5,2.33s3.5-2.33,3.5-2.33S83.91,60,81.58,60
				S78.08,64.67,78.08,64.67z"/>
			<path style="fill:#35201A;" d="M96.08,45c0,0,0.75,1,3,1s3-1,3-1s-1-2-3-2S96.08,45,96.08,45z"/>
			<path style="fill:#35201A;" d="M79.08,38c0,0,0.75,1,3,1s3-1,3-1s-1-2-3-2S79.08,38,79.08,38z"/>
			<path style="fill:#35201A;" d="M62.08,37c0,0,0.75,1,3,1s3-1,3-1s-1-2-3-2S62.08,37,62.08,37z"/>
			<path style="fill:#35201A;" d="M45.08,42c0,0,0.75,1,3,1s3-1,3-1s-1-2-3-2S45.08,42,45.08,42z"/>
		</g>
	</g>
</g>
</svg>
