<svg xmlns="http://www.w3.org/2000/svg" viewBox="0 0 128 128"><g fill="#cc4079"><path d="M56.12 52.86c2.23-1.58 4.93-2.53 7.88-2.53s5.66.95 7.89 2.53l16.87-16.87c3.94-3.94 3.94-10.33 0-14.28L71.14 4.11a10.103 10.103 0 0 0-14.28 0l-17.61 17.6c-3.94 3.94-3.95 10.34 0 14.28l16.87 16.87zM50.33 64c0-2.94.95-5.65 2.53-7.88L35.99 39.25c-3.94-3.94-10.33-3.94-14.28 0L4.11 56.86a10.103 10.103 0 0 0 0 14.28l17.61 17.61c3.94 3.94 10.34 3.95 14.28 0l16.87-16.87c-1.59-2.23-2.54-4.94-2.54-7.88zM123.89 56.86l-17.6-17.6c-3.94-3.94-10.34-3.95-14.28 0L75.14 56.12c1.58 2.23 2.53 4.94 2.53 7.88 0 2.94-.95 5.65-2.53 7.88l16.87 16.87c3.94 3.94 10.33 3.94 14.28 0l17.6-17.61c3.95-3.95 3.95-10.34 0-14.28zM71.89 75.14A13.613 13.613 0 0 1 64 77.67c-2.94 0-5.64-.95-7.87-2.53L39.25 92.01c-3.94 3.94-3.94 10.34 0 14.28l17.61 17.6c3.95 3.94 10.34 3.94 14.28 0l17.6-17.6c3.95-3.94 3.95-10.34.01-14.28L71.89 75.14z"/></g><path d="M73.67 64c0 5.34-4.33 9.67-9.67 9.67s-9.66-4.33-9.66-9.67c0-5.33 4.33-9.67 9.66-9.67 5.34 0 9.67 4.33 9.67 9.67z" fill="#fbb817"/></svg>