<svg xmlns="http://www.w3.org/2000/svg" xmlns:xlink="http://www.w3.org/1999/xlink" width="128" height="128"><defs><path id="a" d="M4 4h120v120H4z"/><clipPath id="b"><use xlink:href="#a" width="100%" height="100%" overflow="visible"/></clipPath></defs><g clip-path="url(#b)" transform="matrix(1.06667 0 0 1.06667 -4.267 -4.267)" opacity=".45" stroke-width=".938"><path d="M18.04 143.5c-11-1-23-1-32-10-5-5-9-11-11-18-2-8-4-16-3-24 1-7 3-14 6-21 2-4 5-8 8-11 7-6 14-11 22-15 16-8 15-28 3-39-1-1-2-1-3-2-1-2-3-5-2-6 2-10 15-3 23-4 5 0 10 3 14 6 12 9 18 23 18 38-1 7-1 15-4 22l-6 12c-1 2-2 3-4 5-5 4-9 8-14 11-8 4-18 8-20 18-3 13 8 22 14 32v3c-2 2-5 4-9 3z" fill="#83d3f7"/></g><g clip-path="url(#b)" transform="matrix(1.06667 0 0 1.06667 -4.267 -4.267)" opacity=".45" stroke-width=".938"><path d="M93.38-6.67c10 0 20 0 30 3 28 7 36 40 33 66-1 5-2 10-4 15-4 9-9 16-15 23-9 9-20 13-31 21-21 14-6 40 10 53 1 2 4 6 1 6-14 4-28 3-42-2-4-1-8-3-11-6-12-12-18-27-19-43 0-8 0-15 2-23 1-5 3-9 5-14 3-6 7-12 12-17 10-8 20-13 31-21 21-14 7-40-10-53-1-1-2-3-2-4 1-4 6-4 10-4z" fill="#3bbcf7"/></g><path d="M54.99 99.32C45.14 99.99 13 103.7 13 122.99V128h102.01v-5c0-15.16-22.62-22.22-41.99-23.66H54.99v-.02z" fill="#70534a"/><path d="M64.24 114.99c-10.09 0-19.5.39-27.97 1.15-6.159.558-10.832 5.618-11.04 11.86h77.702c-.196-6.114-4.596-11.216-10.412-11.95-1.36-.17-3.33-.38-4.99-.38-.87 0-3.29 1.01-4.74 1.72-.14.07-.29.1-.44.1-.18 0-.36-.05-.52-.15-.04-.02-3.52-2.12-7.07-2.12-1.89 0-3.28-.05-4.75-.11-1.61-.06-3.27-.12-5.77-.12z" fill="#eceff1"/><path style="line-height:normal;font-variant-ligatures:normal;font-variant-position:normal;font-variant-caps:normal;font-variant-numeric:normal;font-variant-alternates:normal;font-variant-east-asian:normal;font-feature-settings:normal;text-indent:0;text-align:start;text-decoration-line:none;text-decoration-style:solid;text-decoration-color:#000;text-transform:none;text-orientation:mixed;shape-padding:0;isolation:auto;mix-blend-mode:normal;filter-blend-mode:normal;filter-gaussianBlur-deviation:0" d="M81.29 117.045a1 1 0 0 0-.073.107 1 1 0 0 0 .385 1.36c.01.006.258.249.47.771.213.523.411 1.274.573 2.154.322 1.76.507 4.04.601 6.272.004.1.004.19.008.291h2c-.005-.13-.004-.245-.01-.375-.096-2.284-.278-4.622-.63-6.547-.177-.962-.393-1.82-.688-2.547-.2-.493-.436-.942-.78-1.306-.114.054-.252.114-.357.166-.14.07-.29.1-.44.1-.18 0-.359-.051-.519-.151-.009-.005-.243-.137-.54-.295z" color="#000" font-weight="400" font-family="sans-serif" white-space="normal" overflow="visible" fill="#b0bec5" stroke-width="2" stroke-linecap="round" stroke-linejoin="round" stroke-miterlimit="10"/><path style="line-height:normal;font-variant-ligatures:normal;font-variant-position:normal;font-variant-caps:normal;font-variant-numeric:normal;font-variant-alternates:normal;font-variant-east-asian:normal;font-feature-settings:normal;text-indent:0;text-align:start;text-decoration-line:none;text-decoration-style:solid;text-decoration-color:#000;text-transform:none;text-orientation:mixed;shape-padding:0;isolation:auto;mix-blend-mode:normal" d="M69.824 115.104a1 1 0 0 0 .742 1.23c1.213.28 2.156 1.224 2.922 2.703.766 1.48 1.285 3.43 1.608 5.36.23 1.373.383 2.481.543 3.603h1.746a24.058 24.058 0 0 0-.317-3.932c-.342-2.05-.883-4.171-1.804-5.95-.606-1.17-1.41-2.212-2.444-2.923-.982-.02-1.903-.049-2.81-.086l-.186-.005z" color="#000" font-weight="400" font-family="sans-serif" white-space="normal" overflow="visible" fill="#b0bec5" stroke-width="2" stroke-linecap="round" stroke-linejoin="round" stroke-miterlimit="10"/><path d="M63.143 107.388c-4.147 0-7.517-3.19-7.517-7.137v-8.932h16.748v8.932c0 3.927-3.37 7.137-7.517 7.137z" fill="#70534a"/><path d="M98.802 53.078l-34.15-1.496-.652-.014-.651.014-34.15 1.496s-.173 17.375 2.017 32.917c1.628 11.56 1.91 13.392 9.7 12.449 11.187-1.355 16.756-3.02 22.771-3.033.102 0 .21.007.313.007.102 0 .21-.007.313-.007 6.015.007 11.59 1.678 22.771 3.033 7.79.943 8.072-.89 9.7-12.449 2.19-15.542 2.018-32.917 2.018-32.917z" fill="#232020"/><ellipse ry="33.901" rx="34.802" cy="53.253" cx="64" fill="#232020"/><path d="M64.109 25.492c-21.143 0-27.427 15.744-27.427 39.704 0 23.967 17.152 32.594 27.427 32.594 10.274 0 27.209-8.856 27.209-32.816 0-23.967-6.066-39.482-27.21-39.482z" fill="#70534a"/><path d="M71.957 44.29c-2.772 2.81-16.54 15.905-35.518 19.329V36.767s8.193-17.153 27.848-17.153S92.135 37.2 92.135 37.2v26.42s-12.88-5.217-19.348-19.161c-.16-.344-.575-.432-.83-.169z" fill="#232020"/><path d="M67.819 76.121c-1.348.405-2.74.6-3.819.6-1.08 0-2.471-.195-3.819-.6-.574-.175-.798.405-.593.789.427.795 2.145 2.393 4.412 2.393s3.985-1.598 4.412-2.393c.211-.384-.019-.957-.593-.789z" fill="#563e37"/><path d="M71.957 44.29c-2.772 2.81-16.54 15.905-35.518 19.329V36.767s8.193-17.153 27.848-17.153S92.135 37.2 92.135 37.2v26.42s-12.88-5.217-19.348-19.161c-.16-.344-.575-.432-.83-.169z" fill="#232020"/><path d="M48.567 64.234s4.373 4.014 8.73 0M79.433 64.234s-4.373 4.014-8.73 0" fill="none" fill-rule="evenodd" stroke="#2f2f2f" stroke-width="1.48" stroke-linecap="round" stroke-linejoin="round"/><path d="M71.95 83.187S66.65 84.39 64 84.39c-2.65 0-7.95-1.203-7.95-1.203-.913 0-1.305.644-.7 1.613.84 1.356 3.975 3.965 8.65 3.965 4.675 0 7.81-2.61 8.65-3.965.605-.97.213-1.613-.7-1.613z" fill="#513f35"/><g clip-path="url(#b)" transform="matrix(1.06667 0 0 1.06667 -4.267 -4.267)" opacity=".35" stroke-width=".938"><path d="M97.04 156.5c-8-1-17 1-24-5-11-9-17-22-17-36 0-7 2-14 5-21 2-4 5-8 8-11 4.79-4.79 11.53-8.71 17.52-11.77 5.74-2.94 10.61-5.51 12.6-12.26 1.69-5.73.6-12.03-2.07-17.38-1.64-3.28-3.84-6.25-6.32-8.95-2.05-2.24-3.89-3.98-6.06-6.94-2.72-3.72 4.61-3.29 7.66-3.21 6.14.17 11.67 1.66 17.08 4.62 9.22 5.05 15.16 14.19 18.15 24.07 1.93 6.37 2.79 13.15 2.44 19.81-2.04 14.29-11.23 24.77-23.6 31.13-6.69 3.45-13.86 7.05-17.68 13.54-8.82 14.97 6.52 26.47 14.27 37.33 0 0-1 1-1 2-.99 1.01-2.99 1.01-4.99 1.01z" fill="#fff"/></g><g clip-path="url(#b)" transform="matrix(1.06667 0 0 1.06667 -4.267 -4.267)" opacity=".45" stroke-width=".938"><path d="M25.04 152.75c-12-2-22-11-24-23-3-9-2-18 4-27 4-5 8-10 13-13 2-1 3-1 5-2l6-6c5-8-2-15-4-23 0-1 1-2 2-3 7-5 15 0 21 5 5 4 9 10 10 16 3 10 1 19-4 28-1 2-3 3-4 5-6 6-15 8-20 15-4 7 0 14 3 20 2 5-3 10-8 8z" fill="#fff"/></g></svg>