<?xml version="1.0" encoding="utf-8"?>
<!-- Generator: Adobe Illustrator 24.0.3, SVG Export Plug-In . SVG Version: 6.00 Build 0)  -->
<svg version="1.1" id="Layer_1" xmlns="http://www.w3.org/2000/svg" xmlns:xlink="http://www.w3.org/1999/xlink" x="0px" y="0px"
	 viewBox="0 0 128 128" style="enable-background:new 0 0 128 128;" xml:space="preserve">
<g>
	<path style="fill:#E2E2E2;" d="M123.9,28H75.5c-4.6,0-6.9,2.5-11.6,7.4c-0.6,0.7-3.6,3.7-4.2,4.5l-12,14.5v0.1
		c-10.5,3.9-20.4,9.1-28,15.1C3.3,82.6-3.2,98,15.2,108H124V28H123.9z"/>
</g>
<g>
	
		<linearGradient id="SVGID_1_" gradientUnits="userSpaceOnUse" x1="3.6492" y1="12.65" x2="124" y2="12.65" gradientTransform="matrix(1 0 0 -1 0 128)">
		<stop  offset="0" style="stop-color:#616161"/>
		<stop  offset="1" style="stop-color:#303030"/>
	</linearGradient>
	<path style="fill:url(#SVGID_1_);" d="M124,108H15.2l-2.5-1.5c-1.4,1.4-18.1,17.7-2.3,17.7H124V108z"/>
</g>
<linearGradient id="SVGID_2_" gradientUnits="userSpaceOnUse" x1="9.4635" y1="39.0863" x2="124.0679" y2="46.9003" gradientTransform="matrix(1 0 0 -1 0 128)">
	<stop  offset="0" style="stop-color:#0288D1"/>
	<stop  offset="1" style="stop-color:#025CA0"/>
</linearGradient>
<path style="fill:url(#SVGID_2_);" d="M124,68H89.4c-5.2,0-9.8,2.9-13.4,8l-9.6,12.6c-3,4.4,0.2,8,4.6,8h53V68z"/>
<path style="fill:none;" d="M124,28H75.6c-4.6,0-6.9,2.5-11.6,7.4c-0.6,0.7-3.6,3.7-4.2,4.5l-12,14.5v0.1
	c-10.5,3.9-20.4,9.1-28,15.1C3.3,82.6-3.2,98,15.2,108H124V28z"/>
<path style="fill:#4FC3F7;" d="M100,39.9V50c0,2.1-1.4,3.9-3.6,3.9H48.3c2.1-2.7,4.4-5.4,6.5-8c4.6-5.5,8.5-9.9,8.5-9.9h32.8
	C98.3,36,100,37.8,100,39.9z"/>
<path style="fill:#0288D1;" d="M28.2,87.5c0,9.1-5.3,17.5-12.9,20.5h-0.1C-3.2,98,3.3,82.5,19.7,69.6C24.9,73.8,28.2,80.3,28.2,87.5
	z"/>
</svg>
