<?xml version="1.0" encoding="utf-8"?>
<!-- Generator: Adobe Illustrator 24.0.3, SVG Export Plug-In . SVG Version: 6.00 Build 0)  -->
<svg version="1.1" id="Layer_1" xmlns="http://www.w3.org/2000/svg" xmlns:xlink="http://www.w3.org/1999/xlink" x="0px" y="0px"
	 viewBox="0 0 128 128" style="enable-background:new 0 0 128 128;" xml:space="preserve">
<linearGradient id="SVGID_1_" gradientUnits="userSpaceOnUse" x1="64.1" y1="837.9999" x2="64.1" y2="765.3" gradientTransform="matrix(1 0 0 1 0 -714)">
	<stop  offset="0" style="stop-color:#795548"/>
	<stop  offset="1" style="stop-color:#5D4037"/>
</linearGradient>
<path style="fill:url(#SVGID_1_);" d="M20.6,59.4l87.4,0.3V74c0,23.2-17.6,42-39.2,42h-9.4c-21.6,0-39.1-18.8-39.2-41.9L20.6,59.4
	 M12.8,51.3L12.2,74c0,27.6,21.1,50,47.2,50h9.4c26.1,0,47.2-22.4,47.2-50V51.7L12.8,51.3z"/>
<path style="fill:#8D6E63;" d="M71.6,124H56.4c-4.7,0-8.4-3.8-8.4-8.4V115c0-1.7,1.3-3,3-3h26c1.7,0,3,1.3,3,3v0.6
	C80,120.2,76.2,124,71.6,124z"/>
<ellipse style="fill:#C62828;" cx="64.1" cy="63.3" rx="60" ry="16.7"/>
<ellipse style="fill:#E53935;" cx="64.1" cy="60.3" rx="60" ry="16.7"/>
<g>
	
		<linearGradient id="d_1_" gradientUnits="userSpaceOnUse" x1="64.15" y1="719.7689" x2="64.15" y2="778.318" gradientTransform="matrix(1 0 0 1 0 -714)">
		<stop  offset="0" style="stop-color:#E53935"/>
		<stop  offset="1" style="stop-color:#C62828"/>
	</linearGradient>
	<path id="d" style="fill:url(#d_1_);" d="M117.7,53.8c-0.9-18-13.6-48.1-52.5-48.9c0,0-0.7,0-1.1,0s-1,0-1,0
		C24.2,5.7,11.4,35.8,10.6,53.8C10.6,67.9,117.7,67.9,117.7,53.8z"/>
</g>
<linearGradient id="SVGID_2_" gradientUnits="userSpaceOnUse" x1="64.1" y1="718.8843" x2="64.1" y2="772.482" gradientTransform="matrix(1 0 0 1 0 -714)">
	<stop  offset="0" style="stop-color:#E53935"/>
	<stop  offset="1" style="stop-color:#C62828"/>
</linearGradient>
<path style="fill:url(#SVGID_2_);" d="M76.2,58.7H52c-1.5,0-2.7-1.2-2.7-2.7V6.7C49.3,5.2,50.5,4,52,4h24.2c1.5,0,2.7,1.2,2.7,2.7
	V56C78.9,57.5,77.7,58.7,76.2,58.7z"/>
<path style="fill:#FFFFFF;" d="M56,55.4v-38c0-1.7,1.3-3,3-3h10c1.7,0,3,1.3,3,3v38c0,1.7-1.3,3-3,3H59C57.3,58.4,56,57,56,55.4z"/>
<ellipse style="fill:#C62828;" cx="64.1" cy="63.3" rx="60" ry="16.7"/>
<ellipse style="fill:#E53935;" cx="64.1" cy="60.3" rx="60" ry="16.7"/>
<g>
	
		<linearGradient id="c_1_" gradientUnits="userSpaceOnUse" x1="64.15" y1="719.7689" x2="64.15" y2="778.318" gradientTransform="matrix(1 0 0 1 0 -714)">
		<stop  offset="0" style="stop-color:#E53935"/>
		<stop  offset="1" style="stop-color:#C62828"/>
	</linearGradient>
	<path id="c" style="fill:url(#c_1_);" d="M117.7,53.8c-0.9-18-13.6-48.1-52.5-48.9c0,0-0.7,0-1.1,0s-1,0-1,0
		C24.2,5.7,11.4,35.8,10.6,53.8C10.6,67.9,117.7,67.9,117.7,53.8z"/>
</g>
<linearGradient id="SVGID_3_" gradientUnits="userSpaceOnUse" x1="64.1" y1="718.8843" x2="64.1" y2="772.482" gradientTransform="matrix(1 0 0 1 0 -714)">
	<stop  offset="0" style="stop-color:#E53935"/>
	<stop  offset="1" style="stop-color:#C62828"/>
</linearGradient>
<path style="fill:url(#SVGID_3_);" d="M76.2,58.7H52c-1.5,0-2.7-1.2-2.7-2.7V6.7C49.3,5.2,50.5,4,52,4h24.2c1.5,0,2.7,1.2,2.7,2.7
	V56C78.9,57.5,77.7,58.7,76.2,58.7z"/>
<ellipse style="fill:#C62828;" cx="64.1" cy="63.3" rx="60" ry="16.7"/>
<radialGradient id="SVGID_4_" cx="64.1" cy="731.8765" r="43.8612" gradientTransform="matrix(1 0 0 1.0613 0 -716.4406)" gradientUnits="userSpaceOnUse">
	<stop  offset="0.3232" style="stop-color:#EF5350"/>
	<stop  offset="1" style="stop-color:#E53935"/>
</radialGradient>
<ellipse style="fill:url(#SVGID_4_);" cx="64.1" cy="60.3" rx="60" ry="16.7"/>
<g>
	
		<linearGradient id="b_1_" gradientUnits="userSpaceOnUse" x1="64.15" y1="719.7689" x2="64.15" y2="778.318" gradientTransform="matrix(1 0 0 1 0 -714)">
		<stop  offset="0" style="stop-color:#E53935"/>
		<stop  offset="1" style="stop-color:#C62828"/>
	</linearGradient>
	<path id="b" style="fill:url(#b_1_);" d="M117.7,53.8c-0.9-18-13.6-48.1-52.5-48.9c0,0-0.7,0-1.1,0s-1,0-1,0
		C24.2,5.7,11.4,35.8,10.6,53.8C10.6,67.9,117.7,67.9,117.7,53.8z"/>
</g>
<path style="fill:none;" d="M117.7,53.8c0,14.1-107.1,14.1-107.1,0c0.7-14,8.6-35.5,30.5-44.6c2.7-1.1,5.7-2.1,8.8-2.8
	c4-0.9,8.4-1.5,13.2-1.5c0,0,0.7,0,1,0c0.3,0,1,0,1,0C104.1,5.7,116.8,35.8,117.7,53.8z"/>
<path style="fill:#B71C1C;" d="M49.9,6.4v33.2C48,25.4,45.4,14.9,41,9.2C43.8,8.1,46.7,7.2,49.9,6.4z"/>
<path style="fill:#B71C1C;" d="M87.2,9.2c-4.4,5.7-7,16.2-8.8,30.4V6.4C81.5,7.2,84.5,8.1,87.2,9.2z"/>
<path style="fill:#FFFFFF;" d="M83,29H72V18.4c0-1.7-1.3-3.4-3-3.4H59c-1.7,0-3,1.7-3,3.4V29H45c-1.7,0-3,1.7-3,3.4v10
	c0,1.7,1.3,2.6,3,2.6h11v11.4c0,1.7,1.3,2.6,3,2.6h10c1.7,0,3-1,3-2.6V45h11c1.7,0,3-1,3-2.6v-10C86,30.7,84.7,29,83,29z"/>
<g style="opacity:0.2;">
	<path style="fill:#424242;" d="M69,18v11.4c0,1.7,1.3,2.6,3,2.6h11v10H72c-1.7,0-3,1.7-3,3.4V56H59V45.4c0-1.7-1.3-3.4-3-3.4H45V32
		h11c1.7,0,3-1,3-2.6V18H69 M69,15H59c-1.7,0-3,1.7-3,3.4V29H45c-1.7,0-3,1.7-3,3.4v10c0,1.7,1.3,2.6,3,2.6h11v11.4
		c0,1.7,1.3,2.6,3,2.6h10c1.7,0,3-1,3-2.6V45h11c1.7,0,3-1,3-2.6v-10c0-1.7-1.3-3.4-3-3.4H72V18.4C72,16.7,70.7,15,69,15L69,15z"/>
</g>
<g style="opacity:0.2;">
	<path style="fill:#424242;" d="M75.9,7c0.2,1.2,1.1,2.2,2.2,2.5c11.7,2.8,20.9,8.9,27.5,18.4c5,7.2,8.3,16.4,8.9,25
		c0.1,1,0.6,1.9,1.5,2.4c3.1,1.7,4.9,3.5,4.9,4.9v3c0,4.8-19.6,13.7-57,13.7S7,68.1,7,63.3v-3c0-1.4,1.9-3.2,5-4.9
		c0.9-0.5,1.5-1.4,1.6-2.4c0.6-8.7,3.9-17.8,8.9-25C29.1,18.4,38.4,12.2,50,9.5c1.2-0.3,2.1-1.3,2.3-2.5H75.9 M76.2,4H52
		c-1.4,0-2.5,1.1-2.7,2.6c-27.7,6.5-37.7,30.5-38.8,46.2C6.4,55,4,57.6,4,60.3v3C4,72.5,30.9,80,64,80s60-7.5,60-16.7v-3
		c0-2.7-2.3-5.3-6.4-7.5C116.4,37,106.5,13.1,78.8,6.6C78.7,5.1,77.6,4,76.2,4L76.2,4z"/>
</g>
<g style="opacity:0.2;">
	<path style="fill:#424242;" d="M77,114c0.6,0,1,0.4,1,1v0.6c0,3.5-2.9,6.4-6.4,6.4H56.4c-3.5,0-6.4-2.9-6.4-6.4V115
		c0-0.6,0.5-1,1-1H77 M77,112H51c-1.7,0-3,1.3-3,3v0.6c0,4.7,3.8,8.4,8.4,8.4h15.1c4.7,0,8.4-3.8,8.4-8.4V115
		C80,113.3,78.7,112,77,112z"/>
</g>
</svg>
