<svg enable-background="new 0 0 128 128" viewBox="0 0 128 128" xmlns="http://www.w3.org/2000/svg" xmlns:xlink="http://www.w3.org/1999/xlink"><linearGradient id="f" x1="51.005" x2="43.1" y1="49.168" y2="49.168" gradientUnits="userSpaceOnUse"><stop stop-color="#5C4037" offset="0"/><stop stop-color="#70534A" offset="1"/></linearGradient><path d="m50.46 57c-1.95 0-3.5-0.89-4.3-1.73l-0.37-0.38-0.03 0.03-8.32-8.06 3.71-3.97 9.03 6.87 5.41-8.41 6.23 4.99c-0.92 1.4-4.26 6.38-7 8.88-1.27 1.16-2.78 1.78-4.36 1.78z" fill="url(#f)"/><path d="m55.72 42.07 5.44 4.36c-1.16 1.75-4.18 6.14-6.67 8.41-1.21 1.1-2.56 1.66-4.03 1.66-1.79 0-3.24-0.85-3.94-1.58l-0.75-0.75-0.03 0.03-7.6-7.37 3.07-3.28 8.24 6.27 0.86 0.65 0.59-0.91 4.82-7.49m-0.24-1.47-5.42 8.42-8.96-6.82-4.36 4.66 9.04 8.76 0.01-0.01c0.99 1.03 2.72 1.88 4.66 1.88 1.53 0 3.19-0.53 4.71-1.92 3.28-2.99 7.33-9.36 7.33-9.36l-7.01-5.61z" fill="#4A2F27"/><defs><path id="e" d="m30.06 42.49s1.02 2.36 4.04 4.27c2.32 1.47 4.15 1.31 4.15 1.31l-0.27-0.89s1.49-0.36 2.92-1.51c0.82-0.66 1.61-1.48 1.61-1.48l0.6-0.29s1.56-1.9 1.18-3.18c-0.74-2.53-3.08-5.48-6.51-5.37-3.42 0.09-7.72 7.14-7.72 7.14z"/></defs><clipPath id="a"><use xlink:href="#e"/></clipPath><g clip-path="url(#a)"><radialGradient id="d" cx="-278.82" cy="-26.993" r="4.4224" gradientTransform="matrix(-.0186 .9998 -1.0092 -.0188 5.4202 320.13)" gradientUnits="userSpaceOnUse"><stop stop-color="#5C4037" offset=".4"/><stop stop-color="#70534A" offset="1"/></radialGradient><path d="m38.24 47.58c-1.31 0-2.62-0.59-3.59-1.62l-1.79-1.91c0.28-1.01 5.12-4.69 6.26-4.96 0.05-0.01 0.11-0.02 0.17-0.02 0.81 0 2.17 1.11 2.81 2.71 0.4 1 0.8 2.93-0.99 4.64-0.81 0.76-1.8 1.16-2.87 1.16z" fill="url(#d)"/><path d="m39.28 39.57c0.56 0 1.76 0.93 2.34 2.4 0.43 1.08 0.63 2.67-0.87 4.1-0.7 0.67-1.57 1.02-2.51 1.02-1.18 0-2.35-0.53-3.23-1.46l-1.54-1.64c0.83-1.09 4.56-4.1 5.75-4.41 0.02-0.01 0.04-0.01 0.06-0.01m0-1c-0.1 0-0.19 0.01-0.28 0.03-1.26 0.3-7.42 4.83-6.58 5.72l1.86 1.99c1.05 1.12 2.51 1.78 3.96 1.78 1.13 0 2.26-0.4 3.2-1.3 3.53-3.37-0.05-8.22-2.16-8.22z" fill="#4A2F27"/></g><linearGradient id="c" x1="8.9143" x2="15.619" y1="-28.737" y2="-28.737" gradientTransform="matrix(.9013 .4331 -.4331 .9013 12.737 61.885)" gradientUnits="userSpaceOnUse"><stop stop-color="#5C4037" offset="0"/><stop stop-color="#70534A" offset="1"/></linearGradient><path d="m40.13 39.26-1.81-2.06c-0.44-0.5-1.2-0.55-1.7-0.11s-0.63 1.08-0.11 1.7l1.84 2.09-2.09-2.33c-0.45-0.48-1.21-0.51-1.7-0.05-0.33 0.31-0.44 0.76-0.34 1.16 0.04 0.15-0.07 0.29-0.23 0.28-0.32 0-0.65 0.12-0.89 0.37l-0.01 0.01c-0.47 0.49-0.45 1.26 0.03 1.73-0.45-0.08-0.92 0.1-1.2 0.5-0.37 0.56-0.23 1.33 0.32 1.71l1.39 0.98c0.55 0.39 1.31 0.25 1.69-0.3 0.21-0.3 0.26-0.66 0.18-0.98 0.35 0.03 0.72-0.09 0.98-0.37l0.01-0.01c0.29-0.3 0.4-0.72 0.32-1.1 0.42 0.17 0.91 0.09 1.26-0.24 0.38-0.36 0.47-0.9 0.27-1.36 0.44 0.46 1.17 0.49 1.65 0.07 0.53-0.44 0.58-1.19 0.14-1.69z" clip-path="url(#a)" fill="url(#c)" stroke="#4A2F27" stroke-miterlimit="10"/><linearGradient id="b" x1="34.307" x2="37.081" y1="41.324" y2="41.324" gradientUnits="userSpaceOnUse"><stop stop-color="#5C4037" offset="0"/><stop stop-color="#70534A" offset="1"/></linearGradient><line x1="34.31" x2="37.08" y1="39.99" y2="42.66" clip-path="url(#a)" fill="url(#b)" stroke="#4A2F27" stroke-miterlimit="10"/><linearGradient id="p" x1="33.173" x2="35.456" y1="43.06" y2="43.06" gradientUnits="userSpaceOnUse"><stop stop-color="#5C4037" offset="0"/><stop stop-color="#70534A" offset="1"/></linearGradient><line x1="33.17" x2="35.46" y1="42.08" y2="44.04" clip-path="url(#a)" fill="url(#p)" stroke="#4A2F27" stroke-miterlimit="10"/><g clip-path="url(#a)"><linearGradient id="o" x1="47.671" x2="38.976" y1="-1.2634" y2="-4.9683" gradientTransform="matrix(.9889 .1485 -.1485 .9889 .9073 40.781)" gradientUnits="userSpaceOnUse"><stop stop-color="#5C4037" offset="0"/><stop stop-color="#64483F" offset=".1747"/><stop stop-color="#6D5047" offset=".5069"/><stop stop-color="#70534A" offset="1"/></linearGradient><path d="m37.27 38.01c0.25 0.02 1.16 0.04 1.73 0.1 0.22 0.03 0.79 0.12 0.99 0.19 0.65 0.23 2.13 1.43 2.53 3.01 0.34 1.37 0.31 5.17-2.16 3.72-1.58-0.86-0.42-3.25-0.65-3.87-0.17-0.47-0.47-1.19-2.15-1.18-0.47 0-1.17-0.28-1.3-0.73-0.21-0.79 0.28-1.31 1.01-1.24z" fill="url(#o)"/><path d="m36.05 38.08c0.26-0.34 0.69-0.51 1.18-0.46 0.08 0.01 1.69-0.05 2.96 0.4 2.16 0.78 2.62 1.85 2.9 2.84 0.24 0.83 0.01 4.09-1.07 3.38-0.58-0.38 1.04-3.07-0.24-4.43-0.58-0.62-1.39-1.01-1.95-1.22-0.37-0.13-0.71-0.15-0.94-0.18-0.37-0.05-0.9-0.07-1.28-0.09-0.21-0.01-0.38-0.02-0.47-0.03-0.27-0.03-0.49 0.04-0.61 0.19-0.1 0.13-0.2 0.41-0.13 0.65 0.07 0.25 0.68 0.54 1.11 0.55 0.61 0 1.28-0.04 1.79 0.33 0.38 0.27 0.77 0.78 0.77 1.3 0 0.51-0.58 1.62-0.22 2.56 0.15 0.39 0.69 1 0.69 1s-0.8-0.1-1.11-0.53c-0.44-0.6-0.4-1.56-0.25-2.29 0.06-0.33 0.28-0.86 0.23-0.99-0.15-0.39-0.28-0.93-1.82-0.94-0.53 0-1.52-0.18-1.7-0.83-0.14-0.46-0.08-0.89 0.16-1.21z" fill="#4A2F27"/></g><path d="m58.87 51.82c-1.21-0.14-5.79-1.03-7.99-6.67 0.6-0.43 1.79-1.54 3.74-4.4 2.02-2.94 3.55-4.25 4.97-4.25 0.53 0 1.1 0.18 1.74 0.55l0.83 0.49c1 0.59 1.72 1.53 2.01 2.65s0.13 2.3-0.45 3.3l-4.85 8.33z" fill="#DB5816"/><path d="m59.6 37c0.44 0 0.93 0.16 1.49 0.49l0.83 0.48c1.83 1.07 2.46 3.43 1.38 5.27l-4.69 8.04c-1.42-0.24-5.15-1.32-7.12-5.96 0.73-0.61 1.87-1.83 3.55-4.27 1.89-2.77 3.34-4.05 4.56-4.05m0-1c-1.57 0-3.19 1.27-5.38 4.47-2.8 4.08-3.94 4.46-3.94 4.46 2.57 7.19 8.87 7.41 8.87 7.41l5.02-8.6c1.35-2.31 0.57-5.29-1.74-6.64l-0.83-0.48c-0.69-0.4-1.34-0.62-2-0.62z" fill="#D15518"/><path d="m76.81 97.54h-0.07c-0.02 0-0.04-0.01-0.07-0.01-0.44-0.03-0.86-0.11-1.25-0.23-1.37-0.42-2.51-1.33-3.2-2.56-0.03-0.06-0.07-0.11-0.12-0.14l-8.77-17.61 11.5-7.7 4.98 17.21c0.06 0.22 0.26 0.36 0.48 0.36 0.03 0 0.07 0 0.1-0.01l18.15-3.63 2.15 5.7-22.45 8.53c-0.31 0.06-0.71 0.1-1.11 0.1-0.1 0-0.21 0-0.32-0.01z" fill="#646464"/><path d="m74.54 70.08 4.79 16.56c0.13 0.43 0.52 0.72 0.96 0.72 0.06 0 0.13-0.01 0.2-0.02l17.73-3.55 1.83 4.84-21.91 8.32c-0.33 0.06-0.67 0.1-1.01 0.1-0.1 0-0.19 0-0.29-0.01h-0.05-0.02-0.05c-0.4-0.03-0.78-0.1-1.14-0.21-1.25-0.38-2.29-1.21-2.91-2.33-0.04-0.07-0.09-0.13-0.14-0.19l-8.54-17.15 10.55-7.08m0.58-1.6-12.43 8.33 9.06 18.2 0.04-0.03c0.72 1.29 1.94 2.32 3.49 2.8 0.45 0.14 0.9 0.22 1.36 0.25v0.02l0.15-0.01c0.11 0.01 0.23 0.01 0.34 0.01 0.44 0 0.87-0.04 1.29-0.13l22.92-8.71-2.48-6.57-18.57 3.72-5.17-17.88z" fill="#4F4F4F"/><path d="m107.31 94.06c-0.76 0-1.51-0.26-2.11-0.72l-4.85-4.21-3.36-5.64c0.23-0.62 1-2.5 2.19-3.2l2.37-1.42c0.1-0.06 0.21-0.09 0.32-0.09 0.22 0 0.43 0.12 0.54 0.31l7.88 13.2c0.07 0.11 0.09 0.24 0.05 0.37-0.03 0.13-0.11 0.23-0.22 0.3l-1.08 0.63c-0.52 0.31-1.12 0.47-1.73 0.47z" fill="#325599"/><path d="m101.87 79.28c0.02 0 0.08 0 0.11 0.06l7.88 13.18-1.07 0.63c-0.45 0.26-0.97 0.4-1.49 0.4-0.64 0-1.28-0.21-1.79-0.6l-4.78-4.15-3.2-5.37c0.32-0.81 1.02-2.2 1.89-2.72l2.37-1.42c0.04-0.01 0.06-0.01 0.08-0.01m0-1c-0.2 0-0.4 0.05-0.58 0.16l-2.37 1.42c-1.61 0.96-2.48 3.69-2.48 3.69l3.52 5.91 4.93 4.28c0.71 0.55 1.56 0.83 2.42 0.83 0.69 0 1.38-0.18 1.99-0.54l1.08-0.63c0.47-0.28 0.63-0.89 0.35-1.36l-7.88-13.2c-0.22-0.37-0.59-0.56-0.98-0.56z" fill="#224487"/><path d="m38.74 112.29c0.86-2.8 4.77-15.63 6.4-21.29 1.76-6.13 4.12-8.14 4.15-8.16s0.05-0.05 0.08-0.08l8.1-10.27c0.1-0.12 0.13-0.28 0.09-0.43l-0.76-2.95 17.78-5.3c0.43 0.91 1.48 3.29 1.74 5.13 0.27 1.86 0.34 6.56-4.87 10.05-1.25 0.83-14.91 12.14-15.49 12.62-0.05 0.04-0.09 0.09-0.12 0.15l-11.24 21.48-5.86-0.95z" fill="#7C7C7C"/><path d="m74.3 64.41c0.48 1.06 1.29 3.04 1.52 4.6 0.26 1.77 0.32 6.23-4.66 9.56-1.24 0.83-14.07 11.45-15.53 12.65-0.1 0.08-0.19 0.19-0.25 0.31l-11.07 21.17-4.93-0.81c1.11-3.64 4.7-15.4 6.23-20.75 1.71-5.94 3.96-7.89 3.98-7.9 0.06-0.05 0.11-0.1 0.16-0.16l8.1-10.27c0.19-0.25 0.26-0.57 0.18-0.87l-0.64-2.48 16.91-5.05m0.54-1.2-18.65 5.56 0.88 3.42-8.1 10.27s-2.47 2-4.31 8.4-6.56 21.83-6.56 21.83l6.77 1.12 11.4-21.81s14.21-11.77 15.45-12.59c4.63-3.1 5.55-7.41 5.09-10.54-0.35-2.43-1.97-5.66-1.97-5.66z" fill="#5B5B5B"/><linearGradient id="n" x1="45.42" x2="70.721" y1="23.662" y2="23.662" gradientUnits="userSpaceOnUse"><stop stop-color="#70534A" offset=".55"/><stop stop-color="#5C4037" offset=".83"/><stop stop-color="#3C2B24" offset="1"/></linearGradient><path d="m70.21 13.01c-2.26-4.21-7.75-7.71-12.51-7.23-5.32 0.54-8.39 4.17-9.44 8.93-0.38 1.73-0.43 3.47-0.21 4.72 0.03 0.15 0.25 1.24 0.25 1.58 0.12 1.31-2.47 2.44-2.86 3.86-0.29 1.06 1.92 1.89 2.08 2.09 0.82 1.02-0.85 5.51 5.28 6.38 2.07 0.29 2.23 0.11 2.96 0.27 1.9 0.4 2.86 4.63 2.86 4.63s0.9 4.2 5.06 3.19c4.74-1.15 3.6-5.42 3.6-5.42s-3.02-3.9 0.12-8.76c2.41-3.73 4.26-11.53 2.81-14.24z" fill="url(#n)"/><linearGradient id="m" x1="45.42" x2="70.721" y1="23.662" y2="23.662" gradientUnits="userSpaceOnUse"><stop stop-color="#4A2F27" offset="0"/><stop stop-color="#291B16" offset="1"/></linearGradient><path d="m58.6 6.74c3.98 0 8.69 2.96 10.72 6.75 1.17 2.19-0.35 9.48-2.76 13.22-3.1 4.81-0.84 8.78-0.21 9.71 0.07 0.39 0.18 1.47-0.38 2.42-0.46 0.78-1.31 1.33-2.52 1.62-0.35 0.09-0.69 0.13-0.99 0.13-2.25 0-2.83-2.45-2.86-2.57-0.18-0.81-1.23-4.88-3.63-5.38-0.4-0.08-0.68-0.09-1-0.1-0.38-0.01-0.9-0.02-2.02-0.18-3.78-0.54-3.96-2.45-4.12-4.13-0.07-0.75-0.13-1.39-0.53-1.89-0.16-0.2-0.36-0.31-0.7-0.49-0.65-0.35-1.04-0.62-1.17-0.8 0.16-0.37 0.7-0.86 1.15-1.27 0.84-0.77 1.8-1.64 1.71-2.81-0.01-0.32-0.1-0.84-0.24-1.57l-0.03-0.13c-0.21-1.18-0.13-2.8 0.21-4.33 0.61-2.78 2.53-7.54 8.56-8.15 0.27-0.04 0.54-0.05 0.81-0.05m0-1c-0.3 0-0.6 0.01-0.9 0.04-5.32 0.54-8.39 4.17-9.44 8.93-0.38 1.73-0.43 3.47-0.21 4.72 0.03 0.15 0.25 1.24 0.25 1.58 0.12 1.31-2.47 2.44-2.86 3.86-0.29 1.06 1.92 1.89 2.08 2.09 0.82 1.02-0.85 5.51 5.28 6.38 2.07 0.29 2.23 0.11 2.96 0.27 1.9 0.4 2.86 4.63 2.86 4.63s0.72 3.34 3.83 3.34c0.37 0 0.78-0.05 1.23-0.16 4.74-1.15 3.6-5.42 3.6-5.42s-3.02-3.9 0.12-8.76c2.4-3.72 4.25-11.53 2.8-14.23-2.11-3.95-7.07-7.27-11.6-7.27z" fill="url(#m)"/><path d="m48 29.58c0.85 0.1 1.71-0.05 2.47-0.54 0.83-0.54 0.32-1.23-0.6-0.9-0.56 0.2-1.34 0.27-2.03 0.09l0.16 1.35z" fill="#1A1717"/><ellipse transform="matrix(.03 -.9995 .9995 .03 28.558 73.374)" cx="52.09" cy="21.97" rx="1.74" ry="1.13" fill="#1A1717"/><path d="m51.44 19.55c-1.09 0.36-1.38-0.35-1.03-0.95 0.26-0.44 0.91-0.83 2.21-0.63 1.22 0.19 1.75 0.87 2.09 1.29 0.34 0.41 0.32 0.84 0.04 0.89-0.38 0.06-1.96-1.05-3.31-0.6z" fill="#1A1717"/><radialGradient id="l" cx="54.838" cy="-19.264" r="13.248" gradientTransform="matrix(.9807 .1957 -.1957 .9807 -5.4655 13.382)" gradientUnits="userSpaceOnUse"><stop stop-color="#444140" offset="0"/><stop stop-color="#232020" offset="1"/></radialGradient><path d="m73.24 13.57c-1.25-3.8-4.54-4.63-4.54-4.63s-0.93-5.87-9.28-5.02c-2.56 0.26-4.27 1.79-5.82 2.41-1.33 0.54-2.7 0.33-2.83-1.95-1.8 0.82-2.64 2.2-1.84 4.64-1.67 0.3-2.36 1.72-2.8 3.36-0.49 1.82 0.4 3.6 2.05 4.45 0.49-1.81 2.63-2.49 4.29-2.39 1.46 0.09 2.96 0.47 4.35 0.01 0.53-0.18 1.03-0.47 1.55-0.69 0.12 0 0.18 0.01 0.18 0.01 1.72 1.06-0.88 5.12 0.95 7.7 0.36 0.51 0.7 0.35 0.7 0.35l0.87-1.12c0.65-0.76 1.24-1.42 1.98-1.21 2.19 0.62 1.54 4.55-1.14 5.27-0.27 0.07 0.81 2.26 0.91 2.38 1.42 1.63 1.88 2.06 3.93 2.27 1.89 0.19 3.56-1.46 3.56-1.46s-2.25-1.22 0.71-3.56c2.93-2.3 1.36-5.26 1.36-5.26s1.83-2.62 0.86-5.56z" fill="url(#l)"/><path d="m73.68 13.42c-1.11-3.39-3.73-4.55-4.6-4.85-0.34-1.23-2.13-5.89-9.71-5.12-1.85 0.19-3.24 0.98-4.46 1.67-0.53 0.3-1.03 0.58-1.49 0.77-0.37 0.15-1.08 0.36-1.55 0.06s-0.61-1.04-0.65-1.61l-0.04-0.67-0.61 0.28c-2.05 0.93-2.8 2.52-2.23 4.73-1.53 0.57-2.31 2.1-2.67 3.57-0.49 2 0.38 3.99 2.28 4.98l0.38-0.86c-1.19-0.84-2.08-2.47-1.76-3.89 0.42-1.87 1.22-2.81 2.44-3.03l0.52-0.09-0.17-0.51c-0.58-1.78-0.27-2.96 1.03-3.77 0.15 0.77 0.48 1.32 0.99 1.64 0.62 0.39 1.45 0.4 2.39 0.02 0.52-0.21 1.04-0.51 1.6-0.82 1.15-0.65 2.44-1.39 4.1-1.56 7.79-0.79 8.74 4.42 8.77 4.64l0.05 0.3 0.29 0.08c0.12 0.03 3.07 0.83 4.22 4.33 0.88 2.68-0.78 5.1-0.8 5.13l-0.16 0.23 0.13 0.25c0.06 0.11 1.34 2.65-1.24 4.68-1.76 1.38-1.85 2.49-1.62 3.18 0.1 0.31 0.29 0.58 0.49 0.78-0.97 1.19-3.65 1.07-3.65 1.07 0.53 0.45 1.56 0.45 1.69 0.45 2.91 0.11 3.72-1.99 3.72-1.99s-1.22 0.23-1.42-0.81c-0.1-0.54 0.43-1.22 1.35-1.95 2.68-2.1 1.92-4.76 1.59-5.58 0.46-0.73 1.67-3.08 0.8-5.73z" fill="#1F1D1B"/><radialGradient id="k" cx="48.516" cy="9.7007" r="15.311" gradientTransform="matrix(.9625 .2714 -.2714 .9625 13.746 23.767)" gradientUnits="userSpaceOnUse"><stop stop-color="#F78C1F" offset=".3666"/><stop stop-color="#F37F21" offset=".6798"/><stop stop-color="#ED6D23" offset="1"/></radialGradient><path d="m60.63 68.47c-1.82 0-3.37-0.11-4.04-0.17-2.18-8.75-2.9-15.68-2.28-21.77 0.63-6.12 3.42-10.62 7.46-12.05 0.93-0.33 1.81-0.49 2.64-0.49 2.75 0 4.81 1.8 5.82 5.07 0.47 1.54 0.46 2.23 0.44 3.18-0.01 0.72-0.03 1.62 0.17 3.08-0.05 0.77-0.37 7.91 5.26 16.88-0.24 0.73-1.73 3.86-9.63 5.72-1.51 0.37-3.48 0.55-5.84 0.55z" fill="url(#k)"/><path d="m64.42 34.49c3.38 0 4.8 2.96 5.34 4.72 0.45 1.46 0.44 2.08 0.42 3.03-0.01 0.73-0.03 1.64 0.17 3.11-0.06 1.04-0.24 8.11 5.21 16.92-0.14 0.3-0.44 0.83-1.08 1.45-1.12 1.09-3.44 2.62-8.11 3.72-1.49 0.35-3.43 0.53-5.75 0.53-1.53 0-2.87-0.08-3.64-0.14-2.1-8.53-2.79-15.3-2.18-21.25 0.61-5.92 3.27-10.26 7.13-11.63 0.89-0.3 1.72-0.46 2.49-0.46m0-1c-0.87 0-1.8 0.17-2.81 0.52-3.75 1.32-7.08 5.48-7.8 12.47-0.57 5.54-0.1 12.45 2.38 22.29 0 0 1.96 0.2 4.44 0.2 1.92 0 4.14-0.12 5.98-0.55 9.48-2.22 10.05-6.29 10.05-6.29-5.94-9.35-5.3-16.82-5.3-16.82-0.48-3.37 0.24-3.55-0.64-6.4-1.01-3.27-3.19-5.42-6.3-5.42z" fill="#DA6727"/><linearGradient id="j" x1="72.408" x2="76.408" y1="49.969" y2="54.969" gradientUnits="userSpaceOnUse"><stop stop-color="#5C4037" offset="0"/><stop stop-color="#63463D" offset=".1583"/><stop stop-color="#6D5047" offset=".533"/><stop stop-color="#70534A" offset=".9991"/></linearGradient><path d="m73.73 65.36 9.89-6.67v-0.01c3.79-5.18 0.6-7.58 0.6-7.58l-9.16-10.9-5.64 5.83 8.04 8.04-6.01 5.55 2.28 5.74z" fill="url(#j)"/><radialGradient id="i" cx="65.86" cy="59.767" r="5.4963" gradientUnits="userSpaceOnUse"><stop stop-color="#5C4037" offset=".4"/><stop stop-color="#70534A" offset="1"/></radialGradient><path d="m70.83 59.47-3.65-1.95c-0.04-0.03-0.07-0.07-0.11-0.09-0.55-0.29-1.23-0.09-1.52 0.46l-0.93 1.74c-0.29 0.55-0.09 1.23 0.46 1.52s1.23 0.09 1.52-0.46l0.39-0.72 2.78 1.48c0.55 0.3 1.23 0.09 1.53-0.45 0.29-0.55 0.08-1.23-0.47-1.53z" fill="url(#i)"/><radialGradient id="h" cx="66.512" cy="64.792" r="4.7001" gradientUnits="userSpaceOnUse"><stop stop-color="#5C4037" offset=".4"/><stop stop-color="#70534A" offset="1"/></radialGradient><path d="m69.54 60.41 2.5 4.9-2.68 3.58s-2.22 1.18-2.89 0.54c-0.22-0.21-0.23-0.78-0.34-0.91-0.29-0.33-0.85-0.19-1.19-0.64-0.17-0.22-0.17-0.82-0.16-1.15 0.01-0.22-0.23-0.5-0.45-0.54-0.46-0.09-0.7-0.22-0.89-0.55-0.19-0.34-0.2-0.75-0.08-1.14 0.11-0.39-0.06-0.9-0.43-1.07-0.32-0.14-0.66-0.75-0.36-1.33 0.33-0.64 2.21-1.68 2.21-1.68l4.76-0.01z" fill="url(#h)"/><linearGradient id="g" x1="20.004" x2="24.452" y1="-77.724" y2="-71.338" gradientTransform="matrix(-.3249 -.8091 -.8331 .3346 18.165 107.77)" gradientUnits="userSpaceOnUse"><stop stop-color="#5C4037" offset="0"/><stop stop-color="#70534A" offset=".4"/></linearGradient><path d="m70.06 58.93 2.67 0.75 1.83 5.05s-5.54 5.7-6.55 4.15c-0.08-0.12-0.2-0.59-0.24-0.77-0.05-0.22-0.2-0.29-0.41-0.39-0.33-0.15-0.71-0.36-0.83-0.65s-0.11-0.69-0.07-1.03c0.03-0.24-0.14-0.45-0.38-0.5-0.51-0.1-0.84-0.19-1.04-0.69-0.16-0.4-0.29-0.87-0.13-1.26 0.18-0.41-0.02-1.04-0.4-1.28-0.21-0.14-0.53-0.61-0.39-1.31 0.22-1.09 5.94-2.07 5.94-2.07z" fill="url(#g)"/><line x1="63.42" x2="64.79" y1="63.92" y2="63.03" fill="none"/><path d="m75 41.61c1.85 2.02 6.92 7.6 8.44 9.45 1 1.22 1.37 2.58 1.1 4.05-0.27 1.48-1.12 2.53-1.42 2.7l-0.06 0.04-0.99 0.68-8.29 5.59-0.08 0.05-0.07 0.07c-1.54 1.54-3.75 3.47-4.89 3.85l-0.06 0.02-0.05 0.02c-0.56 0.26-1.08 0.44-1.42 0.48-0.06-0.24-0.12-0.51-0.33-0.75-0.33-0.37-0.73-0.49-0.99-0.56-0.03-0.01-0.07-0.02-0.1-0.03-0.01-0.1-0.02-0.26-0.01-0.52 0.02-0.7-0.55-1.41-1.25-1.55-0.17-0.03-0.22-0.06-0.21-0.06-0.03-0.06-0.05-0.18 0.01-0.37 0.25-0.85-0.13-1.81-0.86-2.2 0.11-0.15 0.62-0.58 1.61-1.17l0.71-0.42-0.27-0.78c-0.01-0.04-0.01-0.07 0-0.1l0.93-1.74s0.02-0.02 0.07-0.04l0.08-0.04 0.01-0.01c0.02-0.01 0.04-0.01 0.06-0.01h0.02l3.39 1.57c0.33 0.21 0.73 0.31 1.19 0.31 0.47 0 0.9-0.11 1.08-0.16l0.25-0.05 0.21-0.2 5.35-4.95 0.79-0.73-0.78-0.73-7.84-7.39 4.67-4.32m0.06-1.41-6.22 5.75 8.62 8.12-5.35 4.95c-0.04 0.01-0.45 0.14-0.87 0.14-0.25 0-0.5-0.05-0.69-0.19l-3.53-1.63c-0.12-0.05-0.25-0.07-0.37-0.07-0.15 0-0.29 0.03-0.42 0.08-0.01 0-0.02 0-0.03 0.01-0.03 0.01-0.06 0.03-0.1 0.05-0.23 0.1-0.43 0.25-0.56 0.49l-0.93 1.74c-0.15 0.29-0.16 0.61-0.06 0.9-0.49 0.29-1.73 1.05-1.99 1.56-0.3 0.57 0.04 1.18 0.36 1.33 0.37 0.16 0.54 0.68 0.43 1.07-0.12 0.4-0.11 0.81 0.08 1.14s0.43 0.46 0.89 0.55c0.22 0.04 0.45 0.32 0.45 0.54-0.01 0.34-0.01 0.93 0.16 1.15 0.34 0.45 0.9 0.31 1.19 0.64 0.12 0.13 0.12 0.7 0.34 0.91 0.15 0.14 0.36 0.19 0.61 0.19 0.65 0 1.52-0.37 1.97-0.58 1.64-0.55 4.47-3.28 5.28-4.09l8.29-5.59 0.99-0.68c1.13-0.64 3.54-4.66 0.6-8.25-1.88-2.32-9.14-10.23-9.14-10.23z" fill="#4A2F27"/><path d="m73.86 51.36c-1.27-0.85-5.67-3.88-7.19-5.7-2.18-2.61-2.64-4.99-1.36-7.08 0.59-0.97 1.65-1.5 2.98-1.5s2.81 0.54 4.05 1.47c3.39 2.56 5.95 3.17 6.98 3.31-0.19 3.72-4.33 8.31-5.46 9.5z" fill="#ED6D23"/><path d="m68.3 37.58c1.23 0 2.59 0.5 3.75 1.37 3.03 2.29 5.44 3.06 6.74 3.32-0.42 2.95-3.32 6.63-4.99 8.43-1.57-1.07-5.37-3.73-6.74-5.37-2.03-2.43-2.47-4.61-1.32-6.5 0.64-1.03 1.75-1.25 2.56-1.25m0-1c-1.42 0-2.68 0.55-3.41 1.74-1.29 2.11-1.08 4.69 1.4 7.66 1.84 2.21 7.64 6.02 7.64 6.02s6.06-5.99 5.9-10.6c0 0-2.89-0.01-7.19-3.26-1.34-1.01-2.92-1.56-4.34-1.56z" fill="#DA6727"/><path d="m44.93 120.1-15.17-2.48c-0.13-0.02-0.24-0.09-0.32-0.2s-0.11-0.24-0.08-0.36l0.21-1.23c0.24-1.39 1.29-2.49 2.67-2.79l6.34-1 6.48 1.06c0.33 0.58 1.27 2.37 1.04 3.74l-0.44 2.73c-0.05 0.3-0.32 0.53-0.62 0.53h-0.11z" fill="#4568AD"/><path d="m38.58 112.55 6.17 1.01c0.42 0.78 1.03 2.19 0.87 3.2l-0.44 2.73c-0.01 0.07-0.07 0.11-0.15 0.11h-0.01l-15.16-2.46 0.21-1.23c0.2-1.18 1.09-2.11 2.26-2.38l6.25-0.98m0-1.01-6.45 1.01c-1.58 0.34-2.79 1.6-3.06 3.19l-0.21 1.23c-0.09 0.54 0.27 1.05 0.81 1.14l15.17 2.48c0.06 0.01 0.12 0.01 0.18 0.01 0.54 0 1.02-0.39 1.11-0.95l0.44-2.73c0.3-1.85-1.22-4.27-1.22-4.27l-6.77-1.11z" fill="#315499"/></svg>
