<svg xmlns="http://www.w3.org/2000/svg" viewBox="0 0 128 128"><path d="M48.18 74.22c.58-.62 1.17-1.22 1.81-1.77 1.85-1.6 6.67-5.33 9.33-3.85 1.57.87 1.39 3.88.84 5.14-1.38 3.11-4.97 5.77-7.15 8.37-1.72 2.07-3.8 3.92-5.67 5.85-3.02 3.1-5.89 6.59-9.15 9.43l-26.07 22.72-2.09-2.02 21.91-26.78c4.12-4.25 8.24-8.51 12.37-12.76 1.32-1.37 2.55-2.91 3.87-4.33z" fill="#78a3ad"/><circle cx="75.8" cy="50.05" r="42.17" fill="#fcc21b"/><g fill="#fff"><path d="M73.59 32.1c0 6.69-5.42 12.11-12.12 12.11-6.69 0-12.11-5.42-12.11-12.11s5.42-12.11 12.11-12.11c6.7-.01 12.12 5.42 12.12 12.11zM104.31 44.13c-2.49 1.75-2.61 6.12-3.33 8.86-4.15 15.83-18.1 27.86-34.75 27.86-2.47 0-3.82.92-1.24 2.35 3.02 1.66 7.48 1.84 10.81 1.84 2.95 0 5.9-.37 8.76-1.11 8.59-2.21 16.13-7.75 20.87-15.25 2.38-3.78 4.03-8.01 4.82-12.41.41-2.27.33-4.32.32-6.57-.02-2.13-.13-4.73-2.06-6.08-1.22-.83-3.08-.27-4.2.51z"/></g></svg>