<?xml version="1.0" encoding="utf-8"?>
<!-- Generator: Adobe Illustrator 19.2.1, SVG Export Plug-In . SVG Version: 6.00 Build 0)  -->
<svg version="1.1" id="图层_1" xmlns="http://www.w3.org/2000/svg" xmlns:xlink="http://www.w3.org/1999/xlink" x="0px" y="0px"
	 viewBox="0 0 128 128" style="enable-background:new 0 0 128 128;" xml:space="preserve">
<g>
	<path style="fill:#444444;" d="M63.92,30.48c-3.2,0-6.4,0-9.6,0c-4.73,0-7.6,3.5-6.95,7.88c1.51,10.12-1.88,24.18-4.46,34.16
		c0,3.6,32.59,2.54,32.59-1.06c2.58-9.98,0.11-22.98-1.4-33.1C73.44,33.97,68.64,30.48,63.92,30.48z"/>
	<g>
		<g>
			<path style="fill:#BF8F68;" d="M25.57,67.22l-0.09-0.2c-1.02-2.27,0-4.94,2.27-5.96l2.36-1.06c2.27-1.02,4.94,0,5.96,2.27
				l0.09,0.2c1.02,2.27,0,4.94-2.27,5.96l-2.36,1.06C29.26,70.51,26.59,69.49,25.57,67.22z"/>
			<polygon id="XMLID_195_" style="fill:#444444;" points="36.09,63.15 29.69,61.43 34.11,45.02 41.49,47 			"/>
			<polygon style="fill:#BF8F68;" points="35.73,42.7 39.93,49.08 55.5,40.37 50.73,33.13 			"/>
			
				<ellipse transform="matrix(0.8352 -0.5499 0.5499 0.8352 -18.9997 28.3651)" style="fill:#444444;" cx="37.83" cy="45.89" rx="3.82" ry="3.82"/>
			
				<ellipse transform="matrix(0.8352 -0.5499 0.5499 0.8352 -11.4582 35.2627)" style="fill:#BF8F68;" cx="53.11" cy="36.75" rx="4.33" ry="4.33"/>
			<path style="fill:#444444;" d="M57.8,33.67c1.59,2.41,0.92,5.66-1.49,7.24l0,0l-16.37,8.17l-4.2-6.38l14.82-10.52
				C52.97,30.59,56.21,31.25,57.8,33.67z"/>
			<polygon style="fill:#E0E0E0;" points="36.09,63.15 29.69,61.43 30.83,55.21 38.67,57.02 			"/>
		</g>
	</g>
	<g>
		<g>
			<polygon id="XMLID_194_" style="fill:#444444;" points="89.92,11 96.33,12.66 91.57,28.09 84.17,26.18 			"/>
			<polygon style="fill:#BF8F68;" points="89.21,31.62 86.31,24.55 69.51,30.79 72.8,38.81 			"/>
			
				<ellipse transform="matrix(0.9254 -0.379 0.379 0.9254 -4.0972 35.3599)" style="fill:#444444;" cx="87.76" cy="28.09" rx="3.82" ry="3.82"/>
			
				<ellipse transform="matrix(0.9254 -0.379 0.379 0.9254 -7.88 29.5673)" style="fill:#BF8F68;" cx="71.16" cy="34.8" rx="4.33" ry="4.33"/>
			<path style="fill:#444444;" d="M65.97,36.93c-1.09-2.67,0.18-5.73,2.86-6.82l0,0l17.49-5.55l2.9,7.07l-16.42,8.16
				C70.12,40.88,67.06,39.6,65.97,36.93z"/>
			<polygon style="fill:#E0E0E0;" points="89.93,10.99 96.34,12.63 94.91,18.88 87.11,17.08 			"/>
			<path style="fill:#BF8F68;" d="M101.75,3.75c0.5-0.12,0.93,0.04,1.12,0.65c0.19,0.62-0.21,0.95-0.73,1.11l-3.08,0.94
				c-0.2,0.06-0.28,0.29-0.16,0.46c0.15,0.22,0.32,0.49,0.33,0.69c0.03,0.33-0.22,0.75-0.17,1.03c0.04,0.22,0.4,0.68,0.45,1.01
				c0.06,0.42-0.16,0.97-0.13,1.19c0.04,0.25,0.38,0.63,0.36,1.02c-0.02,0.38-0.14,0.84-0.71,1.03s-3.16,1.28-4.77,1.22
				c-1.61-0.06-3.55-0.65-4.35-3.27s1.31-4.99,3-5.35S101.26,3.86,101.75,3.75z"/>
		</g>
	</g>
	<g>
		<g>
			<polygon style="fill:#BF8F68;" points="42.9,97.65 53.4,100.29 60.85,74.55 48.49,71.45 			"/>
			
				<ellipse transform="matrix(0.9899 -0.1419 0.1419 0.9899 -13.506 7.8417)" style="fill:#444444;" cx="48.23" cy="98.62" rx="5.41" ry="5.41"/>
			<polygon style="fill:#E0E0E0;" points="36.26,113.49 44.6,117.23 41.19,123.78 33.46,120.31 			"/>
			<path style="fill:#444444;" d="M56.54,65.52c4.06,1.02,6.53,5.14,5.51,9.2l0.01,0l-8.65,25.56l-10.5-2.64l4.44-26.62
				C48.36,66.97,52.48,64.5,56.54,65.52z"/>
			<polygon style="fill:#444444;" points="35.1,113.47 45.22,118.17 53.09,100.98 43.22,96.56 			"/>
		</g>
		<path d="M33.47,128l15.27-0.03l-0.01-2.42c-0.01-2.87-2.34-5.2-5.22-5.19l-10.07,0.02L33.47,128z"/>
	</g>
	<g>
		<g>
			<polygon style="fill:#BF8F68;" points="73.49,100.21 82.93,94.91 70.66,71.1 59.54,77.34 			"/>
			
				<ellipse transform="matrix(0.6216 -0.7834 0.7834 0.6216 -46.6549 97.9356)" style="fill:#444444;" cx="78.04" cy="97.26" rx="5.41" ry="5.41"/>
			<polygon style="fill:#E0E0E0;" points="79.55,116.28 88.19,113.27 90.2,120.37 82.21,123.16 			"/>
			<path style="fill:#444444;" d="M61.32,67.5c3.65-2.05,8.27-0.75,10.33,2.9l0,0l11.28,24.51l-9.44,5.3L58.43,77.82
				C56.37,74.17,57.67,69.55,61.32,67.5z"/>
			<polygon style="fill:#444444;" points="79.12,116.99 88.92,113.49 83.19,95.63 72.98,99.2 			"/>
		</g>
		<path d="M81.21,128l15.27-0.03l-0.01-2.42c-0.01-2.87-2.34-5.2-5.22-5.19l-10.07,0.02L81.21,128z"/>
	</g>
	<polygon style="fill:#00E676;" points="55.37,31.31 59.91,29.5 65.18,29.5 67.94,31.91 69.06,41.59 65.58,52.86 61.41,61.13 
		59.6,56.31 55.5,44.5 53.11,38.32 53.11,34.8 	"/>
	<path style="fill:#757575;" d="M55.56,31.24c0,0-0.89,1.42-0.95,4.11c-0.06,2.93,6.48,16.8,7.6,27.58l-1.61,0.07
		c0,0-9.88-15.15-11.69-25c0.56-0.81,2.71-1.96,2.71-1.96l-4.42-2.27c0,0,4.07-6.5,7.17-8.17c1.51-0.3,4.38-0.43,4.97-0.41
		l0.27,4.85L55.56,31.24z"/>
	<path style="fill:#757575;" d="M65.97,30.19c0,0,1.34,1.44,1.68,4.1c0.37,2.9-4.41,21.88-7.05,28.7l1.61-0.07
		c9.78-7.04,11.61-26.75,11.61-26.75l-2.9-1.6l3.84-2.9c0,0-4.68-5.84-7.93-7.1c-1.53-0.1-4.4,0.14-4.98,0.23l0.33,5.06L65.97,30.19
		z"/>
	<g>
		<g>
			<path id="XMLID_193_" style="fill:#99674F;" d="M61.38,35.18L61.38,35.18c-2.19,0.2-4.12-1.42-4.31-3.6l-0.3-3.38l7.92-0.71
				l0.3,3.38C65.18,33.05,63.56,34.99,61.38,35.18z"/>
		</g>
		<g id="XMLID_135_">
			<g id="XMLID_142_">
				<path id="XMLID_166_" style="fill:#99674F;" d="M69.91,16.64c0,0,1.88,0.16,2.06,2.15c0.16,1.76-1.13,2.58-2.48,2.7l-0.43-4.77
					L69.91,16.64z"/>
				<path id="XMLID_165_" style="fill:#99674F;" d="M49.69,18.45c0,0-1.83,0.49-1.65,2.48c0.16,1.76,1.57,2.34,2.92,2.21l-0.43-4.77
					L49.69,18.45z"/>
			</g>
			<path id="XMLID_141_" style="fill:#BF8F68;" d="M58.63,4.47c-7.99,0.72-9.53,7.1-8.75,15.8c0.81,9.02,6.82,10.84,11.1,10.45
				c4.22-0.38,9.88-3.17,9.06-12.26C69.26,9.76,66.62,3.75,58.63,4.47z"/>
			<g>
				<path id="XMLID_140_" style="fill:#704324;" d="M63.46,25.39c-0.41,0.04-2.92,0.27-2.92,0.27s-2.51,0.23-2.92,0.27
					c-0.33,0.03-0.46,0.27-0.21,0.59c0.35,0.44,1.59,1.24,3.3,1.08s2.78-1.17,3.05-1.67C63.96,25.57,63.8,25.36,63.46,25.39z"/>
			</g>
			<path id="XMLID_139_" style="fill:#704324;" d="M56.71,20.47c0.08,0.9-0.46,1.68-1.2,1.75c-0.74,0.07-1.41-0.61-1.49-1.51
				c-0.08-0.9,0.46-1.68,1.2-1.75C55.97,18.89,56.63,19.57,56.71,20.47"/>
			<path id="XMLID_138_" style="fill:#704324;" d="M63.35,19.87c0.08,0.9,0.75,1.57,1.49,1.51c0.74-0.07,1.28-0.85,1.2-1.75
				c-0.08-0.9-0.75-1.57-1.49-1.51C63.81,18.19,63.27,18.97,63.35,19.87"/>
			<path id="XMLID_137_" style="fill:#99674F;" d="M61.71,23.06c-0.48,0.19-0.99,0.3-1.39,0.34c-0.4,0.04-0.92,0.01-1.43-0.08
				c-0.22-0.04-0.28,0.17-0.2,0.29c0.18,0.26,0.87,0.77,1.7,0.69c0.84-0.08,1.42-0.69,1.55-0.98
				C62.02,23.18,61.92,22.98,61.71,23.06z"/>
			<path id="XMLID_136_" style="fill:#704324;" d="M58.77,3.31c0,0-0.16,0.01-0.22,0.02c-0.07,0.01-0.22,0.02-0.22,0.02
				c-8.61,0.94-10.74,6.36-10.42,9.96c0.31,3.5,0.55,6.06,0.55,6.06s0.12-0.15,0.36-0.37c0.25-0.23,0.54-0.38,0.54-0.38l0.7,2.88
				l2.34-6.26c0.01-0.04,0.05-0.06,0.09-0.06l1.72,0.04c1.73,0.04,3.46-0.03,5.18-0.17l0,0c0.07-0.01,0.15-0.02,0.22-0.02
				c0.07-0.01,0.15-0.01,0.22-0.02l0,0c1.72-0.16,3.43-0.41,5.12-0.75l1.69-0.34c0.04-0.01,0.08,0.01,0.1,0.05l3.41,5.74l0.17-2.96
				c0,0,0.31,0.09,0.6,0.28c0.27,0.17,0.42,0.3,0.42,0.3s-0.23-2.57-0.54-6.06C70.47,7.66,67.4,2.71,58.77,3.31z"/>
		</g>
	</g>
</g>
</svg>
