<svg xmlns="http://www.w3.org/2000/svg" width="128" height="128"><path fill="#2f2f2f" d="M30.098 63.31H98.25v19.2H30.098z"/><path d="M75.44 79.64c.25.1.51.15.78.15.85 0 1.65-.52 1.99-1.35.07-.18 1.78-4.31 6.91-5.14 5.12-.84 8.07 2.54 8.17 2.68.75.92 2.1 1.04 3 .29a2.13 2.13 0 0 0 .3-3c-.18-.23-4.54-5.42-12.16-4.18-7.6 1.23-10.1 7.54-10.2 7.81a2.12 2.12 0 0 0 1.21 2.74zM34.64 75.76c.13-.14 3.16-3.44 8.26-2.47 5.08.98 6.69 5.12 6.77 5.33.31.87 1.13 1.41 2.01 1.41a2.132 2.132 0 0 0 2.01-2.85c-.09-.27-2.42-6.64-9.98-8.09-7.57-1.43-12.08 3.62-12.28 3.84-.76.89-.66 2.22.21 2.99.88.8 2.22.71 3-.16z" fill="none"/><path d="M125.07 86.16l-8.26-1.48c.1-1.84.09-3.7 0-5.56l8.4-1.25a2.137 2.137 0 0 0 1.8-2.43c-.16-1.17-1.25-1.97-2.43-1.8l-8.18 1.22c-.89-5.98-3.2-11.94-6.67-17.3 1.04-10.02 3.05-37.19-5.09-42.65-6.5-4.36-21.96 11.83-26.94 17.63-1.15 1.34-2.2 2.54-3.16 3.65-3.48-.53-7.02-.83-10.55-.83-3.52 0-7.06.29-10.54.83-.96-1.11-2-2.31-3.15-3.65-4.98-5.81-20.45-21.99-26.93-17.63-8.15 5.47-6.13 32.64-5.09 42.65-3.48 5.36-5.78 11.33-6.68 17.3l-8.18-1.22c-1.16-.17-2.25.63-2.43 1.8a2.15 2.15 0 0 0 1.8 2.43l8.41 1.25c-.09 1.86-.1 3.72 0 5.56l-8.26 1.48c-1.16.22-1.94 1.32-1.73 2.48a2.14 2.14 0 0 0 2.1 1.75c.12 0 .25-.01.38-.03l7.94-1.43c.33 2.1.81 4.17 1.5 6.18l-6.47 2.06a2.138 2.138 0 0 0-1.39 2.68 2.148 2.148 0 0 0 2.69 1.39l6.85-2.18c1.98 3.89 4.88 7.47 8.97 10.53 6.04 4.51 13.58 7.57 21.33 9.23 2.95.63 10.57 2.1 18.55 2.1 7.99 0 16.35-1.47 19.3-2.1 7.75-1.66 15.28-4.72 21.32-9.23 4.11-3.06 7-6.63 8.98-10.53l6.84 2.18a2.124 2.124 0 0 0 2.67-1.39c.36-1.12-.26-2.33-1.38-2.68l-6.48-2.06c.69-2.01 1.17-4.08 1.5-6.18l7.95 1.43c.12.02.25.03.38.03 1.01 0 1.91-.72 2.09-1.75.18-1.15-.59-2.26-1.76-2.48zm-50.86-9.27c.1-.27 2.6-6.58 10.2-7.81 7.62-1.24 11.98 3.95 12.16 4.18.75.91.61 2.25-.3 3-.9.75-2.25.62-3-.29-.11-.13-3.06-3.52-8.17-2.68-5.13.83-6.84 4.97-6.91 5.14-.34.83-1.14 1.35-1.99 1.35a2.13 2.13 0 0 1-1.99-2.89zm-42.79-3.95c.2-.22 4.71-5.28 12.28-3.84 7.57 1.45 9.89 7.83 9.98 8.09a2.135 2.135 0 0 1-4.02 1.44c-.08-.22-1.69-4.36-6.77-5.33-5.1-.98-8.13 2.33-8.26 2.47-.78.87-2.12.96-3 .17-.88-.78-.97-2.1-.21-3z" fill="#fae1a7"/><path d="M53.46 36.19s1.907 20.197 4.817-.581M74.55 36.19s-3.382 19.114-4.508-.55M61.936 35.393s2.2 31.92 4.687.021" fill="#d38e52" fill-rule="evenodd" stroke-width="3.78" stroke-linecap="round" stroke-linejoin="round"/><path d="M24.536 52.592S13.248-7.495 47.134 39.226c0 0-14.233 5.357-22.598 13.366zM102.903 51.127s9.968-53.896-19.955-11.989c0 0 12.568 4.805 19.955 11.989z" fill="#f0c4b1" fill-rule="evenodd" stroke-width="3.78" stroke-linecap="round" stroke-linejoin="round"/><path d="M68.505 82.51C68.68 85.291 64 88.552 64 88.552s-4.68-3.26-4.505-6.042c.176-2.781 3.578-2.635 4.505-1.318.927-1.317 4.33-1.463 4.505 1.318z" fill="#f3aed7" stroke="#f0a0af" stroke-width="1.063" stroke-linecap="round" stroke-linejoin="round"/><path d="M35.356 90.69c1.636 0 2.857 1.01 4.062 1.7 1.134.66 2.57 1.03 3.927 1.38 1.653.44 3.313.9 5.037 1.17.663.1 1.341.14 2.035.14 1.262 0 2.539-.14 3.72-.34 2.634-.43 4.558-1.58 6.769-2.61 1.117-.52 2.346-.9 3.695-.9.304 0 .607.02.918.06.998.13 2.052.52 2.961.84 1.333.47 2.57 1.14 3.856 1.69 1.133.47 2.338.64 3.64.68 1.26.03 2.538.09 3.815.09 1.66 0 3.296-.1 4.909-.5 1.34-.33 2.626-.68 3.847-1.21 1.413-.62 3.448-1.73 4.685-1.73.822 0 1.285.49.982 1.95-.423 2.02-1.085 4.13-2.267 5.99-1.708 2.67-4.39 5.04-7.822 6.62-6.617 3.05-14.343 3.86-22.022 3.88h-.032c-11.725 0-23.427-4.77-27.226-13.12-.272-.59-.958-2.16-1.118-3.51-.143-1.19.128-2.23 1.445-2.29.056.02.12.02.184.02m0-2.56l-.264.01c-1.453.07-2.267.87-2.698 1.53-.439.67-.918 1.86-.694 3.71.2 1.7.95 3.49 1.38 4.41 4.526 9.93 17.824 14.39 28.991 14.39 9.626-.03 16.85-1.32 22.756-4.04 3.672-1.69 6.681-4.25 8.717-7.42 1.197-1.89 2.059-4.15 2.65-6.94.319-1.51.167-2.77-.431-3.76-.4-.64-1.158-1.41-2.523-1.41-1.333 0-2.953.76-4.39 1.43-.335.16-.662.31-.966.44-1.045.45-2.187.77-3.575 1.11-1.262.31-2.65.45-4.51.45-.83 0-1.66-.02-2.49-.05l-1.286-.04c-1.245-.03-2.21-.21-3.04-.55-.44-.19-.887-.4-1.342-.61-.822-.39-1.676-.79-2.602-1.11l-.303-.1c-.902-.32-1.932-.68-3.001-.82a8.882 8.882 0 0 0-1.134-.07c-1.42 0-2.857.35-4.406 1.06-.439.21-.862.41-1.277.61-1.692.83-3.16 1.55-5.052 1.86-1.262.21-2.427.31-3.457.31-.646 0-1.253-.04-1.788-.13-1.516-.23-2.977-.62-4.51-1.04l-.35-.09c-1.35-.36-2.61-.69-3.497-1.2-.231-.13-.447-.27-.67-.41-1.086-.68-2.45-1.53-4.238-1.53z" fill="#2f2f2f"/><path d="M34.999 89.765c-1.237-.072-2.243 1.47-2.06 2.97.27 2.217 1.16 4.258 2.225 6.032 2.526 3.985 6.223 6.474 9.962 8.244 5.023 2.305 10.38 3.34 15.713 3.522 7.28.04 14.668-.455 21.673-3.124 3.803-1.45 7.556-3.831 10.067-7.8 1.261-2.014 2.084-4.445 2.457-6.953.173-.952-.276-1.883-.932-2.338-1.395-.279-2.776.239-4.068.854-2.982 1.404-6.107 2.441-9.316 2.402-2.311.017-4.618.07-6.922-.292-2.192-.66-4.248-1.891-6.448-2.527-1.52-.522-3.14-.566-4.69-.247-2.781.79-5.317 2.626-8.152 3.177-2.037.4-4.12.497-6.175.276a64.217 64.217 0 0 1-7.299-1.861c-1.868-.675-3.506-2.375-5.525-2.323-.17-.007-.34-.015-.51-.012z" fill="#2f2f2f" stroke-width=".78" stroke-linejoin="round"/><path d="M34.999 89.766c-1.237-.073-2.242 1.468-2.06 2.968.218 1.781.842 3.44 1.628 4.948a50.8 17.823 0 0 0 29.34 3.287 50.8 17.823 0 0 0 29.737-3.399 19.477 19.477 0 0 0 1.392-4.914c.173-.952-.276-1.883-.932-2.338-1.394-.278-2.776.239-4.067.854-2.982 1.404-6.108 2.442-9.317 2.402-2.311.017-4.618.07-6.922-.293-2.192-.658-4.248-1.89-6.447-2.527-1.52-.522-3.142-.566-4.691-.246-2.782.789-5.317 2.626-8.152 3.178-2.038.4-4.12.496-6.175.275a64.22 64.22 0 0 1-7.3-1.861c-1.868-.675-3.506-2.375-5.524-2.323-.17-.007-.34-.014-.51-.011z" fill="#fff" stroke-width=".78" stroke-linejoin="round"/></svg>