<svg xmlns="http://www.w3.org/2000/svg" viewBox="0 0 128 128"><g fill="#40c0e7"><path d="M31.33 89.47c-.35.51-.32 1.18.06 1.66.27.36.69.54 1.11.54.17 0 .34-.03.5-.09.24-.09 23.53-9.46 14.35-45.37-8.45-33.08.8-38.54.86-38.58.67-.31.97-1.09.71-1.77a1.42 1.42 0 0 0-1.71-.85c-.42.12-10.32 3.1-16.01 13.62-4.77 8.84-5.09 20.16-.96 33.67 8.07 26.31 1.16 37.07 1.09 37.17zM57.21 89.47c-.35.51-.32 1.18.06 1.66.27.36.68.54 1.11.54.17 0 .34-.03.51-.09.24-.09 23.52-9.46 14.34-45.37-8.46-33.08.8-38.54.86-38.57.67-.32.97-1.1.71-1.78a1.42 1.42 0 0 0-1.71-.85c-.42.12-10.32 3.1-16.01 13.62-4.77 8.84-5.09 20.16-.96 33.67 8.07 26.31 1.16 37.07 1.09 37.17zM83.08 89.47c-.35.51-.32 1.18.06 1.66.27.36.68.54 1.11.54.17 0 .34-.03.51-.09.24-.09 23.52-9.46 14.35-45.37-8.47-33.07.79-38.53.85-38.57.66-.31.97-1.09.71-1.77-.26-.68-1-1.05-1.71-.85-.42.12-10.32 3.1-16.01 13.62-4.77 8.84-5.09 20.16-.96 33.67 8.04 26.2 1.21 36.99 1.09 37.16z"/><path d="M114.84 61.51c-2.79-2.27-6.41-.23-3.85 3.85 2.15 3.44 3.43 7.07 3.43 10.93 0 16.67-22.57 30.18-50.41 30.18-27.85 0-50.42-13.51-50.42-30.18 0-3.86 1.28-7.49 3.43-10.93 2.56-4.08-1.06-6.12-3.86-3.85C5.28 67.92.62 75.88.62 84.5c0 21.28 28.37 38.54 63.38 38.54 35 0 63.38-17.26 63.38-38.54 0-8.62-4.67-16.58-12.54-22.99z"/></g></svg>