<?xml version="1.0" encoding="utf-8"?>
<!-- Generator: Adobe Illustrator 19.2.1, SVG Export Plug-In . SVG Version: 6.00 Build 0)  -->
<svg version="1.1" id="レイヤー_1" xmlns="http://www.w3.org/2000/svg" xmlns:xlink="http://www.w3.org/1999/xlink" x="0px"
	 y="0px" viewBox="0 0 128 128" style="enable-background:new 0 0 128 128;" xml:space="preserve">
<g>
	<g>
		<g>
			<g>
				<g>
					<g>
						<path style="fill:#BDCF46;" d="M4.16,22.61c2.96,5.86,7.38,11.05,12.72,14.74c1.73,1.2,3.58,2.22,5.5,3.08
							c8.5-8.64,39.52-10.49,39.52-10.49s-2.02-5.85-2.67-7.16c-0.77-1.55-1.61-2.9-2.39-3.88c-4.68-5.79-12.75-8.86-19.76-10.67
							C26.6,5.55,15.17,5.82,4.51,7.16C3.68,7.27,2.83,7.23,1.98,7.32C-2.38,7.85,3.3,20.91,4.16,22.61z"/>
					</g>
					<g>
						<path style="fill:#BDCF46;" d="M105.65,35.44c1.29,0.95,2.48,2,3.62,3.1c0.63-0.38,1.25-0.77,1.86-1.19
							c5.35-3.69,9.76-8.88,12.72-14.74c0.85-1.69,6.54-14.76,2.17-15.29c-0.84-0.1-1.69-0.05-2.53-0.16
							c-10.66-1.35-22.08-1.61-32.56,1.08c-7,1.8-15.08,4.88-19.76,10.67c-1.06,1.31-2.15,3.32-3.14,5.54
							c-0.67,1.5-1.56,5.87-1.56,5.87S95.66,28.05,105.65,35.44z"/>
					</g>
				</g>
			</g>
		</g>
		<path style="fill:#855C52;" d="M70.24,28.45c0,0-3.14,0.38-5.44,0.02c-7.08-1.1-14.51-1.21-18.57-0.25l29.44,64.15l20.92-6.75
			l3.95-30.63L83.23,28.52C83.23,28.52,78.07,28.06,70.24,28.45z"/>
		<g>
			<defs>
				<path id="SVGID_1_" d="M13.3,77.89c4.32,15.44,16.37,27.41,29.68,36.26c4.3,2.87,8.81,5.43,13.55,7.52
					c4,1.77,8.15,3.21,12.49,4.22c2.69,0.63,5.9-2.01,8.07-3.24c3.58-2.04,7.17-4.09,10.75-6.19
					c20.32-11.93,39.31-35.93,31.79-60.77c-2.45-8.08-7.17-15.25-13.98-20.28c-6.76-5-14.79-6.53-22.97-6.94
					c-1.59,0.01-3.82,0.06-4.57,1.25c-1.16,1.83,0.73,3.24,1.51,4.68c0.2,0.36,0.55,0.86,0.82,1.38c0.09,0.14,0.2,0.27,0.3,0.41
					c7.06,10.9,9.27,24.38,6.58,37.04c-0.18,0.84-1.58,6.17-3.64,4.91c-0.04-0.03-0.09-0.06-0.13-0.1
					c-0.59-0.54-0.31-1.93-0.31-2.61c0-12-1.31-25.04-8.39-35.16c-1.93-2.75-4.54-5.46-7.28-7.39c-0.68-0.46-1.36-0.91-2.08-1.3
					c-5.8-3.21-12.09-4.03-18.59-3.5c-0.51,0.09-1.02,0.16-1.53,0.27c-0.38,0.1-0.76,0.18-1.15,0.26
					c-15.67,3.59-29.44,14.75-31.6,31.67C11.93,65.69,11.83,72.63,13.3,77.89z"/>
			</defs>
			<use xlink:href="#SVGID_1_"  style="overflow:visible;fill:#D7598B;"/>
			<clipPath id="SVGID_2_">
				<use xlink:href="#SVGID_1_"  style="overflow:visible;"/>
			</clipPath>
			<path style="clip-path:url(#SVGID_2_);fill:#855C52;" d="M83.66,41.45c0,0-2.26-5.51,3.24-7.31c6.76-2.22,18.76,0.27,24.21,6.27
				l-1.3-7.86c0,0-13.54-11.79-22.5-12.01c-8.96-0.22-14.64,3.5-14.64,3.5l-2.19,9.39L83.66,41.45z"/>
			<path style="clip-path:url(#SVGID_2_);fill:#855C52;" d="M77.82,45.37c0,0-3.31-6.23-13.25-8.52
				c-11.5-2.65-23.05,1.45-30.62,6.32c-15.19,9.76-22.71,37.77-8.1,56.54c0,0-17.41-4.23-21.12-16.9C1,70.13,7.31,29.54,37.93,25.12
				C76.87,19.5,77.82,45.37,77.82,45.37z"/>
		</g>
	</g>
	<path style="fill:#FFFFFF;" d="M85.81,108.94c2.87-0.99,6.94-4.23,8.9-5.89c4.14-3.51,7.85-7.88,9.72-13.05
		c1.35-3.76-0.71-5.29-1.35-5.54c-3.97-1.51-7.66,3.02-9.85,5.68c-2.01,2.43-3.73,5.04-5.46,7.66c-1.04,1.57-2.12,3.13-3.04,4.79
		c-0.75,1.39-2.08,3.63-1.6,5.27C83.49,109.11,84.68,109.33,85.81,108.94z"/>
</g>
</svg>
