<svg enable-background="new 0 0 128 128" viewBox="0 0 128 128" xmlns="http://www.w3.org/2000/svg" xmlns:xlink="http://www.w3.org/1999/xlink"><defs><rect id="h" x="4" y="4" width="120" height="120"/></defs><clipPath id="a"><use xlink:href="#h"/></clipPath><g clip-path="url(#a)"><linearGradient id="g" x1="64" x2="64" y1="77.943" y2="130.31" gradientUnits="userSpaceOnUse"><stop stop-color="#00BFA5" offset="0"/><stop stop-color="#00B29A" offset=".7047"/><stop stop-color="#00AB94" offset="1"/></linearGradient><path d="M13.5,130.5v-9.44c0-16.23,25.36-23.53,50.5-23.56h0.13c25.03,0,50.36,8.09,50.36,23.56 v9.44H13.5z" fill="url(#g)"/><path d="m64.13 99c12.9 0 25.42 2.19 34.36 6 6.62 2.83 14.51 7.91 14.51 16.05v7.95h-98v-7.94c0-15.2 24.61-22.03 49-22.06h0.13m0-3h-0.13c-25.49 0.03-52 7.28-52 25.06v10.94h104v-10.94c0-16.76-26.26-25.06-51.87-25.06z" fill="#009984"/></g><g clip-path="url(#a)"><path d="m63.17 107.23c-4 0-7.26-3.22-7.26-7.17v-8.98h16.16v8.98c0 3.96-3.26 7.17-7.26 7.17h-1.64z" fill="#7A4C32"/><path d="m71.08 92.08v7.98c0 3.4-2.81 6.17-6.26 6.17h-1.65c-3.45 0-6.26-2.77-6.26-6.17v-7.98h14.17m2-2h-18.16v9.98c0 4.51 3.7 8.17 8.26 8.17h1.65c4.56 0 8.26-3.66 8.26-8.17v-9.98h-0.01z" fill="#663B22"/></g><g clip-path="url(#a)"><path d="m36.67 72.26c-5.36 0-9.71-4.67-9.71-10.41s4.36-10.41 9.71-10.41h54.65c5.36 0 9.71 4.67 9.71 10.41s-4.36 10.41-9.71 10.41h-54.65z" fill="#7A4C32"/><path d="m91.33 52.43c4.8 0 8.71 4.22 8.71 9.41s-3.91 9.41-8.71 9.41h-54.66c-4.8 0-8.71-4.22-8.71-9.41s3.91-9.41 8.71-9.41h54.66m0-2h-54.66c-5.89 0-10.71 5.14-10.71 11.41 0 6.28 4.82 11.41 10.71 11.41h54.65c5.89 0 10.71-5.14 10.71-11.41 0.01-6.27-4.81-11.41-10.7-11.41z" fill="#663B22"/></g><g clip-path="url(#a)"><linearGradient id="f" x1="64" x2="64" y1="94.592" y2="12.826" gradientUnits="userSpaceOnUse"><stop stop-color="#8D5738" offset="0"/><stop stop-color="#97603D" offset=".2163"/><stop stop-color="#A26941" offset=".5728"/><stop stop-color="#A56C43" offset="1"/></linearGradient><path d="m64 95.27c-15.66 0-32.52-12.14-32.52-38.81 0-12.38 3.56-23.79 10.02-32.13 6.04-7.8 14.25-12.27 22.5-12.27s16.45 4.47 22.5 12.27c6.46 8.34 10.02 19.75 10.02 32.13 0 12.09-3.51 22.19-10.14 29.21-5.86 6.19-13.81 9.6-22.38 9.6z" fill="url(#f)"/><path d="m64 13.07c7.94 0 15.85 4.33 21.71 11.88 6.33 8.16 9.81 19.35 9.81 31.52 0 11.83-3.41 21.7-9.87 28.52-5.67 5.99-13.36 9.29-21.65 9.29s-15.98-3.3-21.65-9.29c-6.46-6.82-9.87-16.69-9.87-28.52 0-12.16 3.49-23.35 9.81-31.52 5.86-7.55 13.77-11.88 21.71-11.88m0-2c-17.4 0-33.52 18.61-33.52 45.39 0 26.64 16.61 39.81 33.52 39.81s33.52-13.17 33.52-39.81c0-26.78-16.12-45.39-33.52-45.39z" fill="#875334"/></g><g clip-path="url(#a)"><g fill="#42312C"><path d="m39.99 50.73s0.13-0.19 0.38-0.51c0.07-0.08 0.12-0.16 0.22-0.26 0.11-0.11 0.23-0.22 0.37-0.34s0.28-0.24 0.43-0.38c0.15-0.13 0.31-0.23 0.48-0.35 0.17-0.11 0.34-0.24 0.53-0.35 0.19-0.1 0.4-0.21 0.6-0.32 0.21-0.12 0.43-0.21 0.66-0.3s0.47-0.18 0.71-0.27c0.49-0.14 1-0.29 1.54-0.36 0.53-0.1 1.08-0.11 1.63-0.14 0.55 0.03 1.09 0.03 1.63 0.14 0.53 0.07 1.05 0.22 1.54 0.36 0.24 0.08 0.48 0.17 0.71 0.27 0.23 0.09 0.45 0.18 0.66 0.3 0.21 0.11 0.41 0.22 0.6 0.32 0.19 0.11 0.36 0.24 0.53 0.35 0.17 0.12 0.33 0.22 0.47 0.34s0.27 0.24 0.4 0.35c0.12 0.11 0.24 0.21 0.34 0.31s0.18 0.21 0.26 0.29c0.31 0.36 0.46 0.57 0.46 0.57 0.51 0.7 0.35 1.69-0.36 2.19-0.43 0.31-0.96 0.37-1.43 0.21l-0.29-0.1s-0.19-0.07-0.49-0.2c-0.08-0.03-0.15-0.07-0.25-0.11-0.1-0.03-0.19-0.07-0.3-0.11-0.21-0.08-0.44-0.17-0.7-0.25-0.13-0.04-0.26-0.09-0.4-0.13-0.14-0.03-0.28-0.07-0.43-0.11-0.07-0.02-0.15-0.04-0.22-0.06-0.08-0.01-0.15-0.03-0.23-0.04-0.16-0.03-0.31-0.07-0.47-0.1-0.33-0.04-0.66-0.11-1-0.12-0.34-0.04-0.69-0.03-1.03-0.05-0.35 0.02-0.7 0.01-1.03 0.05-0.34 0.02-0.67 0.09-1 0.12-0.16 0.03-0.31 0.07-0.47 0.1-0.08 0.01-0.16 0.03-0.23 0.04-0.07 0.02-0.15 0.04-0.22 0.06-0.15 0.04-0.29 0.07-0.43 0.11s-0.27 0.09-0.4 0.13-0.25 0.08-0.37 0.11c-0.1 0.04-0.2 0.07-0.29 0.1s-0.18 0.06-0.27 0.09c-0.1 0.04-0.2 0.1-0.29 0.14-0.36 0.18-0.57 0.27-0.57 0.27-0.83 0.34-1.77-0.05-2.11-0.87-0.24-0.48-0.16-1.06 0.13-1.49z"/><path d="m86.05 53.13s-0.22-0.09-0.57-0.27c-0.09-0.04-0.19-0.1-0.29-0.14-0.09-0.02-0.18-0.06-0.27-0.09s-0.19-0.07-0.29-0.1c-0.12-0.04-0.24-0.07-0.37-0.11s-0.26-0.09-0.4-0.13-0.28-0.07-0.43-0.11c-0.07-0.02-0.15-0.04-0.22-0.06-0.08-0.01-0.15-0.03-0.23-0.04-0.16-0.03-0.31-0.07-0.47-0.1-0.33-0.04-0.66-0.11-1-0.12-0.34-0.04-0.69-0.03-1.03-0.05-0.35 0.02-0.7 0.01-1.03 0.05-0.34 0.02-0.67 0.09-1 0.12-0.16 0.03-0.31 0.07-0.47 0.1-0.08 0.01-0.16 0.03-0.23 0.04-0.07 0.02-0.15 0.04-0.22 0.06-0.15 0.04-0.29 0.08-0.43 0.11-0.14 0.04-0.27 0.09-0.4 0.13-0.26 0.07-0.49 0.16-0.7 0.25-0.11 0.04-0.2 0.08-0.3 0.11-0.09 0.04-0.17 0.08-0.25 0.11-0.3 0.13-0.49 0.2-0.49 0.2l-0.28 0.1c-0.82 0.29-1.72-0.15-2-0.97-0.17-0.5-0.08-1.03 0.21-1.44 0 0 0.16-0.22 0.46-0.57 0.08-0.09 0.16-0.19 0.26-0.29s0.22-0.2 0.34-0.31 0.26-0.23 0.4-0.35 0.31-0.22 0.47-0.34c0.17-0.12 0.34-0.24 0.53-0.35 0.19-0.1 0.4-0.21 0.6-0.32 0.21-0.12 0.43-0.21 0.66-0.3s0.46-0.18 0.71-0.27c0.49-0.14 1-0.29 1.54-0.36 0.53-0.1 1.08-0.11 1.63-0.14 0.55 0.03 1.09 0.03 1.63 0.14 0.53 0.06 1.05 0.22 1.54 0.36 0.24 0.08 0.48 0.17 0.71 0.27 0.23 0.09 0.45 0.18 0.66 0.3 0.21 0.11 0.41 0.22 0.6 0.32 0.19 0.11 0.36 0.24 0.53 0.35 0.17 0.12 0.32 0.22 0.48 0.35 0.15 0.13 0.3 0.26 0.43 0.38s0.26 0.23 0.37 0.34c0.09 0.1 0.15 0.18 0.22 0.26 0.25 0.31 0.38 0.51 0.38 0.51 0.5 0.74 0.31 1.74-0.43 2.25-0.49 0.28-1.07 0.32-1.56 0.12z"/></g><path d="m67.86 68.06c-0.11-0.04-0.21-0.07-0.32-0.08h-7.07c-0.11 0.01-0.22 0.04-0.32 0.08-0.64 0.26-0.99 0.92-0.69 1.63s1.71 2.69 4.55 2.69 4.25-1.99 4.55-2.69c0.29-0.71-0.06-1.37-0.7-1.63z" fill="#E59600"/></g><g clip-path="url(#a)"><defs><path id="e" d="m64 4.03h-0.02s-0.01 0-0.02 0c-45.43 0.24-36.12 52.14-36.12 52.14s5.1 8.99 5.1 8.81c-0.03-1.41 0.46-6.89 0.46-6.89l-2.68-2.92s3.89-25.44 6.79-24.91c4.45 0.81 26.54 2 26.57 2 7.83 0 14.92-0.36 19.37-1.17 2.9-0.53 9.64 1.7 10.68 4.45 1.33 3.54 3.13 19.71 3.13 19.71l-2.68 2.83s0.49 5.51 0.46 6.89c0 0.18 5.1-8.81 5.1-8.81s9.3-51.89-36.14-52.13z"/></defs><clipPath><use xlink:href="#e"/></clipPath></g><g clip-path="url(#a)"><radialGradient id="d" cx="64.26" cy="4.244" r="48.85" gradientUnits="userSpaceOnUse"><stop stop-color="#554138" offset="0"/><stop stop-color="#3C2C23" offset="1"/></radialGradient><path d="m64.02 4h-0.02-0.02c-45.43 0.24-36.13 52.14-36.13 52.14s5.1 8.99 5.1 8.81c-0.16-7.25 2.74-20.09 4.8-25.55 1.04-2.76 3.9-4.36 6.79-3.83 4.45 0.81 11.55 1.81 19.37 1.81h0.08 0.08c7.83 0 14.92-1 19.37-1.81 2.9-0.53 5.76 1.08 6.79 3.83 2.06 5.47 4.96 18.3 4.8 25.55 0 0.18 5.1-8.81 5.1-8.81s9.32-51.9-36.11-52.14z" fill="url(#d)"/><path d="m64.02 4.03h-0.02-0.02c-45.43 0.24-36.13 52.14-36.13 52.14s5 8.81 5.1 8.81c-0.03-1.48 0.07-3.2 0.26-5.03-0.12-0.29-2.46-4.75-2.48-4.79-0.24-1.6-0.93-6.98-0.55-13.56 0.41-7.04 2.17-16.96 8.22-24.22 5.67-6.8 14.27-10.28 25.56-10.35h0.04c11.32 0.06 19.93 3.54 25.6 10.35 10.81 12.96 8.18 34.33 7.67 37.79-0.02 0.04-2.46 4.58-2.49 4.65 0.2 1.89 0.31 3.65 0.27 5.17 0.09 0 5.1-8.81 5.1-8.81s9.3-51.91-36.13-52.15z" fill="#291D15"/></g><g clip-path="url(#a)"><linearGradient id="c" x1="71.5" x2="71.5" y1="149.5" y2="182.5" gradientUnits="userSpaceOnUse"><stop stop-color="#651FFF" offset="0"/><stop stop-color="#5914F2" offset=".7047"/><stop stop-color="#530EEB" offset="1"/></linearGradient><path d="M21,182.5v-9.51c0-17.29,27.21-23.46,50.5-23.49h0.14c13.39,0,25.82,2.15,35.01,6.05 c7,2.98,15.35,8.42,15.35,17.44v9.51H21z" fill="url(#c)"/><path d="m71.64 151c24.28 0 48.86 7.55 48.86 21.99v8.01h-98v-8.01c0-6.95 4.88-12.47 14.52-16.42 8.75-3.58 20.99-5.56 34.49-5.57h0.13m0-3h-0.14c-25.65 0.03-52 7.1-52 24.99v11.01h104v-11.01c0-16.86-26.1-24.99-51.86-24.99z" fill="#4A00ED"/></g><path d="m82.02 128-17.8-48.34c1.99-0.87 4.4-2.02 5.39-2.49 8.83-4.24 5.13-11.17 4.73-15.77-0.25-2.83 0.56-8.35 2.23-9.95 1.66-1.59-0.19-3.56-1.1-3.9-1.08-0.41-2.83-0.01-4.37 1.86s-1.01 4.46-1.65 6.08c-0.21 0.52-0.94 0.52-1.15 0-1.4-3.44-6.7-16.01-6.7-16.01-0.69-1.71-2.29-2.66-3.87-1.79-1.26 0.69-1.48 2.26-0.91 3.69l4.29 11.51c0.06 0.15 0 0.32-0.13 0.38h-0.01c-0.14 0.07-0.32 0.01-0.4-0.14l-6.88-12.5c-0.71-1.36-1.94-2.27-3.3-1.81-1.69 0.57-2.06 2.41-1.21 4.05l6.22 12.72c0.16 0.31 0.07 0.67-0.21 0.84 0 0-0.01 0-0.01 0.01-0.28 0.17-0.66 0.06-0.84-0.25 0 0-5.46-8.63-6.22-9.89-0.77-1.26-2.22-2.41-3.78-1.49s-1.31 2.41-0.55 3.87c0.65 1.24 4.61 7.94 5.76 9.87 0.17 0.29 0.08 0.66-0.2 0.84-0.27 0.17-0.61 0.11-0.81-0.13l-4.17-5.05c-1.04-1.25-2.17-1.91-3.43-1.22-1.56 0.86-1.69 2.59-0.6 4.08l6.2 9.09s3.87 5.87 5.47 8.31c1.2 1.84 2.42 3.14 3.57 4.07l16.94 49.46h9.5z" clip-path="url(#a)" fill="#4E342E" opacity=".35"/><g clip-path="url(#a)"><path d="m67.81 68.05c-0.1-0.04-0.21-0.07-0.32-0.08h-6.99c-0.11 0.01-0.21 0.04-0.32 0.08-0.63 0.26-0.98 0.91-0.68 1.61s1.69 2.66 4.49 2.66 4.19-1.96 4.49-2.66c0.31-0.69-0.03-1.35-0.67-1.61z" fill="#E59600"/><g fill="#42312C"><path d="m47.63 60.3c-2.06 0-3.9-0.5-5.18-1.29-0.55-0.34-0.87-0.14-0.77 0.5 0.37 2.48 2.9 4.4 5.95 4.4 3.06 0 5.58-1.92 5.95-4.4 0.1-0.64-0.22-0.84-0.77-0.5-1.28 0.79-3.12 1.29-5.18 1.29z"/><path d="m80.25 60.3c-2.06 0-3.9-0.5-5.18-1.29-0.55-0.34-0.87-0.14-0.77 0.5 0.37 2.48 2.9 4.4 5.95 4.4 3.06 0 5.58-1.92 5.95-4.4 0.1-0.64-0.22-0.84-0.77-0.5-1.28 0.79-3.13 1.29-5.18 1.29z"/></g><path d="m73.85 81.76c0 1.01-4.46 1.22-9.95 1.22s-9.95-0.23-9.95-1.22c0-1.04 4.46-1.68 9.95-1.68s9.95 0.62 9.95 1.68z" fill="#473530"/></g><g clip-path="url(#a)"><path d="m80.21 44.3c-1.08-0.41-2.83-0.01-4.37 1.86s-1.01 4.46-1.65 6.08c-0.21 0.52-0.94 0.52-1.15 0-1.4-3.44-6.7-16.01-6.7-16.01-0.69-1.71-2.29-2.66-3.87-1.79-1.26 0.69-1.48 2.26-0.91 3.69l4.29 11.51c0.06 0.15 0 0.32-0.13 0.38h-0.01c-0.14 0.07-0.32 0.01-0.4-0.14l-6.88-12.5c-0.71-1.36-1.94-2.27-3.3-1.81-1.69 0.57-2.06 2.41-1.21 4.05l6.22 12.72c0.16 0.31 0.07 0.67-0.21 0.84 0 0-0.01 0-0.01 0.01-0.28 0.17-0.66 0.06-0.84-0.25 0 0-5.46-8.63-6.22-9.89-0.77-1.26-2.22-2.41-3.78-1.49s-1.31 2.41-0.55 3.87c0.65 1.24 4.61 7.94 5.76 9.87 0.17 0.29 0.08 0.66-0.2 0.84-0.27 0.17-0.61 0.11-0.81-0.13l-4.17-5.05c-1.04-1.25-2.17-1.91-3.43-1.22-1.56 0.86-1.69 2.59-0.6 4.08l6.2 9.09s3.87 5.87 5.47 8.31c4.19 6.42 8.65 6.46 9.52 6.26 1.3-0.29 6.52-2.78 8.09-3.54 8.83-4.24 5.13-11.17 4.73-15.77-0.25-2.83 0.56-8.35 2.23-9.95s-0.19-3.58-1.11-3.92z" fill="#A56C43"/><path d="m65.7 78.49c-1.69 0-5.83-0.69-9.79-6.75-1.59-2.44-5.46-8.31-5.47-8.31l-6.19-9.07c-0.75-1.02-1.05-2.19-0.81-3.26 0.21-0.95 0.83-1.75 1.75-2.25 1.09-0.6 2.79-0.83 4.68 1.46l1.11 1.34c-1.5-2.55-2.96-5.05-3.34-5.78-1.61-3.09-0.11-4.58 0.93-5.19 2.04-1.21 4.06 0.05 5.15 1.83 0.29 0.47 1.26 2.02 2.35 3.75l-3.04-6.22c-0.6-1.16-0.71-2.46-0.28-3.52 0.37-0.91 1.1-1.59 2.07-1.91 1.71-0.58 3.48 0.32 4.51 2.3l2.2 4.01-0.91-2.44c-0.8-2-0.24-4.03 1.37-4.91 0.9-0.49 1.9-0.58 2.82-0.25 1.07 0.38 1.97 1.31 2.46 2.55 0.04 0.1 4.42 10.49 6.25 14.9 0.03-0.24 0.06-0.49 0.08-0.75 0.14-1.37 0.32-3.08 1.48-4.48 1.96-2.38 4.18-2.65 5.49-2.16 0.8 0.3 2.06 1.37 2.36 2.82 0.21 1-0.12 1.98-0.92 2.74-1.27 1.22-2.17 6.26-1.92 9.14 0.07 0.82 0.26 1.75 0.46 2.73 0.88 4.33 2.1 10.25-5.76 14.02-3.12 1.5-7.08 3.34-8.3 3.61-0.02-0.01-0.3 0.05-0.79 0.05zm-19.02-28.06c-0.24 0-0.4 0.09-0.52 0.16-0.42 0.23-0.68 0.55-0.76 0.93-0.11 0.5 0.07 1.11 0.49 1.68l6.22 9.12c0.01 0.01 3.89 5.89 5.48 8.33 4.21 6.45 8.42 5.84 8.46 5.83 0.78-0.18 3.73-1.47 7.88-3.46 6.45-3.09 5.54-7.53 4.66-11.82-0.21-1.04-0.42-2.03-0.5-2.96-0.23-2.68 0.43-8.74 2.53-10.76 0.39-0.37 0.39-0.67 0.34-0.9-0.13-0.62-0.8-1.23-1.1-1.35-0.73-0.27-2.05 0.1-3.25 1.56-0.77 0.94-0.9 2.2-1.03 3.42-0.09 0.86-0.17 1.66-0.46 2.4-0.24 0.61-0.83 1.02-1.49 1.02h-0.01c-0.66 0-1.25-0.4-1.5-1.01-1.39-3.39-6.64-15.87-6.7-16-0.29-0.72-0.76-1.24-1.29-1.43-0.38-0.14-0.78-0.09-1.18 0.13-0.82 0.45-0.82 1.55-0.46 2.44l4.3 11.53c0.25 0.61-0.03 1.34-0.63 1.63-0.64 0.31-1.39 0.05-1.72-0.58l-6.87-12.48c-0.16-0.31-0.97-1.73-2.1-1.35-0.42 0.14-0.71 0.4-0.85 0.77-0.21 0.52-0.13 1.21 0.21 1.87l6.23 12.74c0.39 0.76 0.13 1.71-0.6 2.14-0.77 0.45-1.76 0.18-2.22-0.6-0.21-0.33-5.45-8.62-6.22-9.87-0.19-0.32-1.22-1.86-2.42-1.15-0.43 0.25-1.14 0.68-0.17 2.55 0.42 0.81 2.46 4.3 5.73 9.82 0.45 0.76 0.22 1.72-0.53 2.2-0.69 0.44-1.6 0.29-2.12-0.34l-4.17-5.05c-0.76-0.93-1.29-1.16-1.66-1.16zm12.58 2.34s0 0.01 0.01 0.01l-0.01-0.01zm0.67-0.4c0 0.01 0.01 0.01 0.01 0.01l-0.01-0.01zm4.97-2.4c0 0.01 0.01 0.02 0.01 0.03l-0.01-0.03zm1.27-0.61 0.01 0.02s0-0.01-0.01-0.02z" fill="#875334"/></g><g clip-path="url(#a)"><defs><path id="b" d="m109.36 128h-30.8l-17.02-46.59c-0.73-1.53-0.05-3.36 1.5-4.04l16.58-7.29c1.44-0.64 3.13-0.05 3.86 1.35l23.52 40.95-4.7 2.48 7.06 13.14z"/></defs><clipPath id="j"><use xlink:href="#b"/></clipPath><g clip-path="url(#j)"><linearGradient id="i" x1="88.059" x2="88.059" y1="75.914" y2="130.09" gradientUnits="userSpaceOnUse"><stop stop-color="#00BFA5" offset="0"/><stop stop-color="#00B29A" offset=".7047"/><stop stop-color="#00AB94" offset="1"/></linearGradient><path d="m79.6 126.5-16.65-45.6c-0.02-0.04-0.04-0.09-0.06-0.13-0.18-0.37-0.2-0.79-0.05-1.17s0.43-0.69 0.8-0.85l16.58-7.29c0.19-0.08 0.4-0.13 0.6-0.13 0.56 0 1.07 0.31 1.33 0.8l31.22 54.37h-33.77z" fill="url(#i)"/><path d="m80.82 72.83c0.02 0.03 0.03 0.06 0.05 0.1l29.91 52.07h-30.13l-16.3-44.62c-0.03-0.09-0.07-0.18-0.11-0.26l16.58-7.29m0-3c-0.4 0-0.82 0.08-1.21 0.26l-16.58 7.29c-1.55 0.68-2.23 2.51-1.5 4.04l17.03 46.58h37.41l-32.49-56.57c-0.54-1.02-1.58-1.6-2.66-1.6z" fill="#009984"/></g></g></svg>
