<?xml version="1.0" encoding="utf-8"?>
<!-- Generator: Adobe Illustrator 19.2.1, SVG Export Plug-In . SVG Version: 6.00 Build 0)  -->
<svg version="1.1" id="レイヤー_1" xmlns="http://www.w3.org/2000/svg" xmlns:xlink="http://www.w3.org/1999/xlink" x="0px"
	 y="0px" viewBox="0 0 128 128" style="enable-background:new 0 0 128 128;" xml:space="preserve">
<g>
	<path style="fill:#2F2F2F;" d="M40.1,37.83c0,0,2.55-1.48,3.98-2.12l22.24,8.18l35.97,0.97c0,0,2.7,2.8,3.5,3.76l6.53,18.74
		l5.27,2.11c0,0,1.21,3.62,1.55,4.99l-1.09,8.64L65.91,96.03L24.04,85.76l0.13-25.74l12.8-16.67L40.1,37.83z"/>
	<g>
		<g>
			<path style="fill:#757F3F;" d="M73.14,59.57c-0.1,5.06-0.38,19.6-0.28,28.04c1.67,0.04,3.5-0.05,5.52-0.26
				c2.7-0.27,5.52-0.81,8.24-1.33l1.73-0.33c2.79-0.53,5.37-1.19,7.89-2.02c3.89-1.28,8.19-2.93,12.07-5.32
				c-2.85-9.93-7.96-17.38-9.6-19.61C87.71,57.87,77.17,59.03,73.14,59.57z"/>
			<path style="fill:#757F3F;" d="M102.38,56.52c1.95,2.67,6.63,9.73,9.61,19.22c2.18-1.81,4.06-3.97,5.5-6.52
				c-1.34-3.73-2.96-7.35-4.9-10.8c-1.95-3.46-4.22-6.77-6.79-9.81C104.85,51.72,103.34,54.76,102.38,56.52z"/>
			<path style="fill:#757F3F;" d="M45.2,42.69c4.26,1.63,18.85,7.43,26.39,12.78c3.25-0.48,14.69-1.96,27.04-1.02
				c1.6-2.95,3.28-6.91,3.65-9.6c-0.15-0.15-0.28-0.31-0.43-0.45c-5.13-4.82-11.63-7.47-18.19-9.69c-9.16-3.1-19.13-4.19-28.68-2.48
				c-3.78,0.68-7.43,1.85-10.9,3.48L45.2,42.69z"/>
			<path style="fill:#757F3F;" d="M119.11,74.49c-1.99,2.55-4.4,4.67-6.98,6.43c-0.05,0.04-0.11,0.07-0.15,0.11
				c-4.74,3.2-10.03,5.26-14.4,6.69c-2.7,0.89-5.45,1.6-8.43,2.16l-1.73,0.33c-2.82,0.54-5.72,1.1-8.61,1.4
				c-1.7,0.17-3.46,0.31-5.23,0.31c-5.28,0-10.58-1.24-14.45-6.53c-1.56-2.15-3.3-3.96-5.15-5.38l-0.77-0.6
				c-1.17-0.93-3.36-2.67-4.49-2.7l0.11-4.27c2.56,0.07,5.15,2.12,7.04,3.62l0.7,0.55c2.17,1.66,4.2,3.76,6.01,6.25
				c1.63,2.23,3.62,3.5,6.01,4.17c-0.08-9.02,0.21-24.02,0.3-28.24c-7.32-5.13-22.04-10.92-25.55-12.26
				c-1.38,0.85-4.94,3.81-9.13,8.08c-0.42,0.43-0.98,0.64-1.53,0.64c-0.54,0-1.08-0.2-1.49-0.61c-0.84-0.82-0.86-2.17-0.03-3.02
				c2.65-2.69,6.85-6.76,9.79-8.58l-0.85-5.22c-7.16,4.28-14.23,10.92-18.48,18.64c-4.26,7.71-5.7,16.48-1.64,24.97
				c1.33,2.75,4,7.37,6.68,8.97c2.37,1.42,4.88,2.63,7.44,3.69c2.27,0.94,4.19,2.12,6.52,2.8c2.08,0.62,4.23,1.29,6.34,1.76
				c2.13,0.48,4.34,0.63,6.48,1.03c1.9,0.35,3.82,0.67,5.74,0.7c9.85,0.13,19.81,0.65,29.48-1.69c5.88-1.42,11.71-3.19,17.24-5.63
				c2.8-1.22,5.53-2.62,8.1-4.26c2.09-1.32,4.84-2.62,5.93-4.98c1.15-2.49,0.17-5.5-0.44-8.02
				C119.38,75.38,119.23,74.93,119.11,74.49z"/>
		</g>
		<g>
			<path style="fill:#BDCF46;" d="M29.95,98.37c-0.98-0.58-2.38-0.78-4.28-1.05c-2.5-0.35-5.22-1.05-7.72-0.6
				c-2.15,0.39-2.38,0.94-3.08,2.93c-1.09,3.13-4.26,12.51-1.8,15.47c0.61,0.73,2.03,0.99,2.9,1.25c2.51,0.76,5.18,0.93,7.82,1.11
				c2.25,0.15,4.47-0.26,6.62-0.86c1.61-0.45,2.32-0.83,2.45-2.61c0.29-3.8-0.56-7.55-0.9-11.32
				C31.72,100.25,31.12,99.05,29.95,98.37z"/>
			<g>
				<path style="fill:#BDCF46;" d="M116.78,87.1c-0.93,0.62-1.92,1.17-2.79,1.72c-2.57,1.63-5.3,3.03-8.1,4.26
					c-5.53,2.44-11.36,4.21-17.24,5.63c-9.67,2.34-19.63,1.82-29.48,1.69c-1.93-0.03-3.85-0.35-5.74-0.7
					c-0.53-0.1-1.05-0.18-1.58-0.26l0.52,5.55c0,0,1.88,0.14,5.24-0.07c-0.65,6.43-0.86,13.37,0.78,14.69
					c0.74,0.6,2.31,0.71,3.27,0.87c2.82,0.47,5.74,0.4,8.64,0.35c2.47-0.04,4.85-0.58,7.13-1.28c1.71-0.52,2.45-0.9,2.42-2.47
					c-0.03-2.01-0.71-8.47-1.4-14c6.34-0.83,14.15-2.4,21.21-5.33c0.1,2.22,0.19,4.12,0.18,4.51c-0.06,1.53-0.08,3.62,1.27,4.8
					c3.76,3.31,13.07,1.38,17.39-0.06c3.22-1.06,2.23-4.81,1.59-7C119.72,98.69,118.23,91.87,116.78,87.1z"/>
				<path style="fill:#BDCF46;" d="M127.07,64.28c-1.68-1.58-4.44,0.46-5.98,1.28c-1.38,0.74-2.75,1.47-4.15,2.16
					c1.01,2.65,1.89,5.35,2.55,8.11c0.3,1.23,0.68,2.58,0.87,3.93c0.05-0.06,0.1-0.12,0.15-0.17c0.51-0.58,0.97-1.17,1.42-1.8
					c1.75-2.48,3.08-5.22,4.51-7.88C127.13,68.58,128.4,65.54,127.07,64.28z"/>
			</g>
			<g>
				<g>
					<path style="fill:#BDCF46;" d="M52.38,104.99c-1.13,0.04-2.27,0.03-3.44,0.03c-8.33,0-16.27-0.22-24.47-2.08
						C12.02,100.13,2.32,92.68,0.63,79.36c-1.04-8.21,0.62-17.94,6.96-23.69c5.95-5.4,16.65-6.89,23.98-4.4
						c8.54,2.92,14.76,9.94,18.31,18.04c2.73,6.24,4.58,11.84,5.73,18.57c0.17,1.03,2.06,16.6-0.15,16.89
						C54.44,104.89,53.41,104.96,52.38,104.99z"/>
				</g>
				<path style="fill:#2F2F2F;" d="M30.25,63.47c2.46-0.44,4.87,1.46,5.38,4.26c0.51,2.79-1.07,5.43-3.53,5.88
					c-2.45,0.44-4.86-1.46-5.38-4.25C26.21,66.56,27.79,63.93,30.25,63.47z"/>
				<path style="fill:#2F2F2F;" d="M7.74,67.17c0.7-2.75,3.25-4.48,5.66-3.86c2.42,0.62,3.81,3.36,3.11,6.11
					c-0.71,2.75-3.24,4.48-5.66,3.86C8.44,72.65,7.04,69.92,7.74,67.17z"/>
				<g>
					<path style="fill:#2F2F2F;" d="M23.8,79.29c-1.14,0.62-2.12,1.28-3.45,0.79c-0.77-0.28-1.5-0.5-2.17-1
						c-0.48-0.35-1.02-0.64-1.5-0.99c-0.25-0.18-0.49-0.37-0.74-0.55c-0.28-0.21-0.38-0.3-0.74-0.35c-0.29-0.03-0.86-0.05-1.08,0.19
						c-0.94,1.05,0.38,2.61,1.09,3.32c1.06,1.03,2.57,2.2,3.96,2.8c1.36,0.59,2.71,1.3,4.16,0.58c1.59-0.8,2.97-1.96,4.37-3.03
						c0.92-0.7,2.98-1.93,2.62-3.3c-0.25-1-1.41-0.79-2.17-0.55c-0.96,0.29-1.82,0.78-2.71,1.23C24.89,78.7,24.35,79,23.8,79.29z"/>
				</g>
			</g>
		</g>
	</g>
</g>
</svg>
