<svg xmlns="http://www.w3.org/2000/svg" viewBox="0 0 128 128"><path d="M88.63 94.92v20.63s-.4 4.83 2.56 2.01c.52-.5 7.52-8.09 7.52-8.09l18.41-17.65s2.18-2.47 2.18-6.5V69.57s0-4.46-3.07-1.39c-3.06 3.07-24.25 20.63-24.25 20.63s-3.35 1.93-3.35 6.11zM86.3 87.23c-1.71.57-3.5.3-5.36.07-.12-.01-.23-.03-.35-.05-2.52-.44-5.13-.79-7.68-.7-2.21.07-4.58.55-6.19 2.17-2.54 2.54-5.3 8.27-9.27 8.47-4.98.24-10.25-1.11-15.21-1.59-2.06-.2-4.2-.26-6.21-.78-.78-.2-1.52-.49-2.2-.92-.34-.21-.69-.45-.97-.74-.35-.37-.66-.78-.25-1.26.28-.33.71-.51 1.06-.76.97-.66 15.93-12.31 16.77-13 .99-.81 2.41-.84 3.62-.73 1.59.15 3.17.29 4.75.42 3.17.26 30.4 3.48 31.65 3.56.43.03 1.37.03 1.54.57.21.62-3.6 4.56-5.7 5.27zM115.14 63.08c-.57.47-1.14.95-1.71 1.45-1.14.98-2.25 1.99-3.35 3-2.2 2.01-12.41 10.56-13.42 10.62-5.88.33-32.98-3.32-40.66-4.14-1.8-.19-3.58-.2-4.01-2.24-.26-1.22-.25-2.48-.32-3.73-.17-2.79-.3-5.58-.31-8.38 0-1.24-.18-2.74.13-3.94.18-.7.94-1.16 1.64-1.13.39.02 4.96.52 6.05.63l7.23.75c3.28.34 6.57.68 9.85 1.03 3.71.38 7.43.78 11.14 1.17 3.7.38 7.4.78 11.1 1.17 3.24.34 6.48.69 9.72 1.03l3.92.42c1.09.12 2.25.14 3.26.5.24.09.45.02.57.3.32.73-.35 1.1-.83 1.49z" fill="#fcc21b"/><path d="M83.27 116.01c.05 1.45.77 3.9-1 4.55-1.18.44-2.57.04-3.78-.1-8.88-1.05-66.12-8.07-67.22-9.22-1.19-1.23-.83-2.84-.88-4.4-.17-4.59.02-9.18.2-13.76.08-2.13-.11-4.46.25-6.56.18-1 .69-1.79 1.77-1.79.95 0 1.95.1 2.88.28 2.05.4 4.25.3 6.23 1.01 2.36.85 3.28 2.71 4.17 4.91.51 1.24.97 2.49 1.53 3.71.89 1.92 2.03 3.24 3.37 4.15 1.81 1.23 8.04 2.05 15.08 2.85 5.3.61 11.6 1.46 13.9 1.01 1.41-.27 2.75-.76 3.97-1.55 1.61-1.02 2.79-2.91 3.86-4.43.57-.8 1.11-1.62 1.66-2.43.3-.45.63-.89 1.16-1.05 1.65-.47 3.67.04 5.36.2 1.48.14 2.95.32 4.43.39.93.05 2.8-.08 3.14 1.08.28.95-.04 2.39-.06 3.38-.03 1.35-.06 2.69-.08 4.03-.05 4.58-.09 9.16.06 13.74z" fill="#fcc21b"/><path d="M14.43 79.79l10.01 1.15s6.35 1.35 6.93 5.2l.57 1.92 17.13-12.7s.77-.58.77-2.89v-12.7c0-2.7-2.12-2.5-3.65-1.54-1.55.97-31.76 21.56-31.76 21.56z" fill="#fcc21b"/><path d="M123.13 61.77c-.03-2.88-1.91-3.74-3.11-4.33-1.78-.88-4.2-1.11-6.57-1.42-8.37-1.08-49.45-5.37-59.99-6.29-1.52-.14-3.25.07-5.9 1.7C33.08 60.38 23.6 65.94 13 73.52c-1.61 1.15-3.09 2.4-4.71 3.54-1.78 1.24-2.64 2.45-2.66 4.6-.09 9.44-1.06 18.8-.59 28.17.06 1.14.13 2.28.24 3.42.23 2.58 4.23 3.39 6.18 3.61 1.95.21 3.8.74 5.73 1.07 5.26.88 10.55 1.6 15.82 2.42 6.15.96 12.33 1.83 18.51 2.61 6.02.76 12.03 1.5 18.05 2.19 3.87.44 14.89 2.03 15.31 2.03 2.73 0 4.11-1.33 5.57-2.64 6.98-6.29 25.45-25.07 31.07-31.57 1.26-1.45 1.53-2.61 1.55-4.53.06-7.2.13-18.14.06-26.67zm-70.32-5.62c.17-.67.9-1.11 1.58-1.08.37.02 4.75.5 5.79.6l6.93.72c3.15.33 6.3.65 9.44.98 3.56.37 7.13.74 10.69 1.12 3.55.37 7.1.74 10.65 1.12l9.32.99c1.25.13 2.51.27 3.76.4 1.04.11 2.16.13 3.12.47.22.08.44.02.55.28.3.71-.33 1.07-.79 1.45-.56.45-1.1.92-1.64 1.39-1.09.94-2.15 1.91-3.22 2.88-2.12 1.93-11.9 10.13-12.87 10.18-5.64.32-31.63-3.18-38.99-3.97-1.73-.18-3.43-.2-3.85-2.15-.24-1.17-.23-2.38-.3-3.58-.17-2.67-.29-5.35-.3-8.04 0-1.17-.16-2.6.13-3.76zm-7.11 2.58c1.49-.93 3.53-1.12 3.53 1.49v12.27c0 2.23-.75 2.79-.75 2.79L31.95 87.54l-.56-1.86c-.56-3.72-6.69-5.02-6.69-5.02l-9.67-1.11S44.21 59.67 45.7 58.73zm37.57 57.28c.05 1.45.77 3.9-1 4.55-1.18.44-2.57.04-3.78-.1-8.88-1.05-66.12-8.07-67.22-9.22-1.19-1.23-.83-2.84-.88-4.4-.17-4.59.02-9.18.2-13.76.08-2.13-.11-4.46.25-6.56.18-1 .69-1.79 1.77-1.79.95 0 1.95.1 2.88.28 2.05.4 4.25.3 6.23 1.01 2.36.85 3.28 2.71 4.17 4.91.51 1.24.97 2.49 1.53 3.71.89 1.92 2.03 3.24 3.37 4.15 1.81 1.23 8.04 2.05 15.08 2.85 5.3.61 11.6 1.46 13.9 1.01 1.41-.27 2.75-.76 3.97-1.55 1.61-1.02 2.79-2.91 3.86-4.43.57-.8 1.11-1.62 1.66-2.43.3-.45.63-.89 1.16-1.05 1.65-.47 3.67.04 5.36.2 1.48.14 2.95.32 4.43.39.93.05 2.8-.08 3.14 1.08.28.95-.04 2.39-.06 3.38-.03 1.35-.06 2.69-.08 4.03-.05 4.58-.09 9.16.06 13.74zM80.34 87.3a3.98 3.98 0 0 1-.34-.05c-2.44-.42-4.96-.76-7.44-.67-2.14.07-4.43.53-5.99 2.1-2.47 2.47-5.13 8.01-8.97 8.2-4.83.24-9.92-1.08-14.72-1.54-2-.19-4.06-.25-6.01-.76-.75-.2-1.48-.48-2.13-.89-.33-.2-.67-.44-.94-.71-.34-.36-.65-.75-.24-1.22.27-.32.68-.5 1.02-.73.94-.65 15.42-11.93 16.23-12.59.96-.79 2.33-.81 3.51-.71 1.53.14 3.07.28 4.6.4 3.06.25 29.43 3.37 30.64 3.44.42.03 1.33.03 1.49.55.2.61-3.49 4.42-5.52 5.1-1.65.56-3.39.31-5.19.08zm38.96-1.99c0 4.03-2.18 6.5-2.18 6.5l-18.41 17.65s-7 7.59-7.52 8.09c-2.96 2.83-2.56-2.01-2.56-2.01V94.92c0-4.18 3.34-6.13 3.34-6.13s21.19-17.56 24.25-20.63c3.07-3.07 3.07 1.39 3.07 1.39s.01 10.18.01 15.76z" fill="#855c52"/><g><path d="M66.68 78.4L41.99 44.73H57.4V13.3h18.42v31.43h15.56L66.68 78.4z" fill="#ed6c30"/></g></svg>