<svg enable-background="new 0 0 128 128" viewBox="0 0 128 128" xmlns="http://www.w3.org/2000/svg"><rect x="62.5" y="3.75" width="3" height="44.25" stroke="#666" stroke-miterlimit="10"/><path d="m109.22 52.17c-0.74-0.46-1.72-0.22-2.18 0.52l-11.77 19.13c-1.18 1.91-3.01 3.32-5.14 3.96l-14.21 4.09c-0.3-0.65-0.66-1.27-1.09-1.85l13.11-9.61c2.88-2.04 4.61-5.38 4.61-8.91l-4.28-26.85c0-0.88-0.71-1.58-1.58-1.58-0.88 0-1.58 0.71-1.58 1.58l4.28 26.85c0 2.51-1.22 4.88-3.29 6.34 0 0-13.48 9.88-13.49 9.89-0.72-0.57-1.5-1.08-2.35-1.49 5.9-3.39 10.07-11.4 10.07-20.72 0-12.38-7.34-22.45-16.37-22.45s-16.37 10.06-16.37 22.45c0 9.32 4.16 17.33 10.07 20.72-0.83 0.41-1.6 0.91-2.3 1.46l-13.47-9.87c-2.05-1.45-3.27-3.82-3.27-6.33l4.28-26.85c0-0.88-0.71-1.58-1.58-1.58s-1.58 0.71-1.58 1.58l-4.3 26.85c0 3.54 1.72 6.87 4.59 8.9l13.08 9.58c-0.44 0.59-0.81 1.21-1.11 1.87l-14.11-4.06c-2.15-0.65-3.98-2.05-5.16-3.97l-11.78-19.13c-0.46-0.74-1.44-0.98-2.18-0.52-0.75 0.46-0.98 1.44-0.52 2.18l11.77 19.13c1.58 2.58 4.05 4.47 6.96 5.35l14.16 4.08c-0.04 0.35-0.08 0.7-0.08 1.05 0 0.51 0.05 1.01 0.12 1.5l-13.43 5.22c-2.47 1.1-4.15 3.46-4.37 6.15l-1.45 17.44c-0.07 0.87 0.57 1.64 1.45 1.71 0.05 0 0.09 0.01 0.13 0.01 0.82 0 1.51-0.63 1.58-1.45l1.45-17.44c0.13-1.54 1.09-2.89 2.43-3.49l13.21-5.13c0.47 0.92 1.08 1.77 1.81 2.54l-4.84 4.59-0.13 0.13c-3.19 3.83-3.71 9.13-1.32 13.5l7.02 12.88c0.29 0.53 0.83 0.83 1.39 0.83 0.26 0 0.51-0.06 0.76-0.19 0.77-0.42 1.05-1.38 0.63-2.15l-7.02-12.88c-1.75-3.2-1.38-7.07 0.92-9.89l5.07-4.81c0.07 0.04 0.13 0.09 0.2 0.13-0.25 0.68-0.4 1.39-0.4 2.11 0 2.31 1.15 4.63 3.23 5.73 1.36 0.72 2.98 1.02 4.51 1.03 2.75 0.01 4.47-1.22 6.5-2.85 0.98-1.88 1.3-4.09 0.89-6.17 0.15 0.73 2.22 2.03 2.84 2.6 0.78 0.73 1.61 1.44 2.34 2.23 2.3 2.82 2.66 6.69 0.92 9.89l-7.02 12.88c-0.42 0.77-0.14 1.73 0.63 2.15 0.24 0.13 0.5 0.19 0.76 0.19 0.56 0 1.1-0.3 1.39-0.83l7.02-12.88c2.39-4.37 1.87-9.67-1.32-13.5l-5.01-4.77c0.72-0.77 1.32-1.61 1.79-2.52l13.22 5.14c1.41 0.63 2.37 1.98 2.5 3.52l1.45 17.44c0.07 0.83 0.76 1.45 1.58 1.45 0.04 0 0.09 0 0.13-0.01 0.87-0.07 1.52-0.84 1.45-1.71l-1.45-17.44c-0.22-2.69-1.9-5.05-4.44-6.18l-13.44-5.22c0.07-0.48 0.11-0.97 0.11-1.47 0-0.35-0.04-0.69-0.08-1.03l14.26-4.11c2.9-0.87 5.36-2.77 6.95-5.34l11.77-19.13c0.45-0.76 0.22-1.73-0.53-2.19z"/><path d="m109.22 52.34c-0.74-0.46-1.72-0.22-2.18 0.52l-11.77 19.13c-1.18 1.91-3.01 3.32-5.14 3.96l-14.21 4.09c-0.3-0.65-0.66-1.27-1.09-1.85l13.11-9.61c2.88-2.04 4.61-5.38 4.61-8.91l-4.28-26.85c0-0.88-0.71-1.58-1.58-1.58-0.88 0-1.58 0.71-1.58 1.58l4.28 26.85c0 2.51-1.22 4.88-3.29 6.34l-13.49 9.89-0.01 0.01c-0.72-0.57-1.5-1.08-2.35-1.49 5.9-3.39 10.07-11.4 10.07-20.72 0-12.38-7.34-22.45-16.37-22.45s-16.36 10.06-16.36 22.44c0 9.32 4.16 17.33 10.07 20.72-0.83 0.41-1.59 0.91-2.3 1.46l-13.48-9.87c-2.05-1.45-3.27-3.82-3.27-6.33l4.28-26.85c0-0.88-0.71-1.58-1.58-1.58s-1.58 0.71-1.58 1.58l-4.28 26.85c0 3.54 1.72 6.87 4.59 8.9l13.08 9.58c-0.44 0.59-0.81 1.21-1.11 1.87l-14.11-4.06c-2.15-0.65-3.98-2.05-5.16-3.97l-11.79-19.13c-0.46-0.74-1.44-0.98-2.18-0.52-0.75 0.46-0.98 1.44-0.52 2.18l11.77 19.13c1.58 2.58 4.05 4.47 6.96 5.35l14.16 4.08c-0.04 0.35-0.08 0.7-0.08 1.05 0 0.51 0.05 1.01 0.12 1.5l-13.43 5.22c-2.47 1.1-4.15 3.46-4.37 6.15l-1.45 17.44c-0.07 0.87 0.57 1.64 1.45 1.71 0.05 0 0.09 0.01 0.13 0.01 0.82 0 1.51-0.63 1.58-1.45l1.45-17.44c0.13-1.54 1.09-2.89 2.43-3.49l13.21-5.14c0.47 0.92 1.08 1.77 1.81 2.54l-4.84 4.59-0.13 0.13c-3.19 3.83-3.71 9.13-1.32 13.5l7.02 12.88c0.29 0.53 0.83 0.83 1.39 0.83 0.26 0 0.51-0.06 0.76-0.19 0.77-0.42 1.05-1.38 0.63-2.15l-7.02-12.88c-1.75-3.2-1.38-7.07 0.92-9.89l5.07-4.81c0.07 0.04 0.13 0.09 0.2 0.13-0.25 0.68-0.4 1.39-0.4 2.11 0 1.31 0.44 2.53 1.17 3.57-0.86 1.19-1.37 2.7-1.37 4.3 0 1.96 0.73-0.47 1.99 0.8 0.31 0.31 0.71 0.46 1.12 0.46s0.81-0.15 1.12-0.46c0.62-0.62 0.62 0.52 0-0.1-0.68-0.68-1.07 0.43-1.07-0.7 0-0.8 0.2-1.55 0.56-2.16 1.2 0.68 2.61 1.09 4.14 1.09s2.94-0.41 4.14-1.09c0.36 0.61 0.56 1.36 0.56 2.16 0 1.13-0.39 0.02-1.07 0.7-0.62 0.62-0.62-0.52 0 0.1 0.31 0.31 0.71 0.46 1.12 0.46s0.81-0.15 1.12-0.46c1.27-1.27 1.99 1.16 1.99-0.8 0-1.6-0.5-3.1-1.37-4.3 0.73-1.04 1.17-2.26 1.17-3.57 0-0.72-0.14-1.43-0.4-2.11 0.09-0.05 0.17-0.12 0.26-0.17l5.1 4.85c2.3 2.82 2.66 6.69 0.92 9.89l-7.02 12.88c-0.42 0.77-0.14 1.73 0.63 2.15 0.24 0.13 0.5 0.19 0.76 0.19 0.56 0 1.1-0.3 1.39-0.83l7.02-12.88c2.39-4.37 1.87-9.67-1.32-13.5l-5.01-4.77c0.72-0.77 1.32-1.61 1.79-2.52l13.22 5.14c1.41 0.63 2.37 1.98 2.5 3.52l1.45 17.44c0.07 0.83 0.76 1.45 1.58 1.45 0.04 0 0.09 0 0.13-0.01 0.87-0.07 1.52-0.84 1.45-1.71l-1.43-17.44c-0.22-2.69-1.9-5.05-4.44-6.18l-13.44-5.22c0.07-0.48 0.11-0.97 0.11-1.47 0-0.35-0.04-0.69-0.08-1.03l14.27-4.1c2.9-0.87 5.36-2.77 6.95-5.34l11.77-19.13c0.45-0.75 0.22-1.73-0.53-2.19z" fill="none" stroke="#666" stroke-miterlimit="10" stroke-width="2.1395"/><radialGradient id="a" cx="60.895" cy="41.715" r="9.6804" gradientTransform="matrix(-1 0 0 -1 128 128)" gradientUnits="userSpaceOnUse"><stop stop-color="#616161" offset=".003883"/><stop stop-color="#4B4B4B" stop-opacity=".7272" offset=".2755"/><stop stop-color="#111" stop-opacity=".1603" offset=".8402"/><stop stop-opacity="0" offset=".9998"/></radialGradient><circle cx="66.01" cy="84.19" r="9.68" fill="url(#a)"/><circle cx="57.36" cy="100.91" r="4.84" fill="#fff" stroke="#808080" stroke-miterlimit="10" stroke-width="1.0697"/><circle cx="57.36" cy="100.91" r="2.21"/><circle cx="70.64" cy="100.91" r="4.84" fill="#fff" stroke="#808080" stroke-miterlimit="10" stroke-width="1.0697"/><circle cx="70.64" cy="100.91" r="2.21"/></svg>
