<?xml version="1.0" encoding="utf-8"?>
<!-- Generator: Adobe Illustrator 19.2.1, SVG Export Plug-In . SVG Version: 6.00 Build 0)  -->
<svg version="1.1" id="图层_1" xmlns="http://www.w3.org/2000/svg" xmlns:xlink="http://www.w3.org/1999/xlink" x="0px" y="0px"
	 viewBox="0 0 128 128" style="enable-background:new 0 0 128 128;" xml:space="preserve">
<rect x="16.15" y="303.31" style="fill:#263238;" width="128" height="128"/>
<rect x="24.21" y="162.3" style="fill:#21272B;" width="128" height="128.88"/>
<rect x="-226.74" y="152.15" style="fill:#3C474C;" width="128" height="128.59"/>
<rect x="-102.61" y="-3.51" style="fill:#4DB6AC;" width="29.75" height="27.14"/>
<rect x="-102.61" y="31.16" style="fill:#80CBC4;" width="29.75" height="33.61"/>
<rect x="-115.57" y="115.38" style="fill:#D9DBDD;" width="27.5" height="34.68"/>
<rect x="-77.94" y="132.72" style="fill:#E4E7E9;" width="29.75" height="42.47"/>
<rect x="-63.07" y="-3.51" style="fill:#ECEFF1;" width="29.75" height="27.14"/>
<rect x="-63.07" y="31.16" style="fill:#F5F5F5;" width="29.75" height="33.61"/>
<rect x="-63.07" y="71.49" style="fill:#FFFFFF;" width="27.5" height="34.68"/>
<rect x="-214.94" y="282.53" style="fill:#080808;" width="128" height="128.25"/>
<g>
	<polygon id="XMLID_14_" style="fill:#201284;" points="40.65,42.99 39.61,50.49 63.27,54.95 64.62,45.38 	"/>
	
		<ellipse id="XMLID_13_" transform="matrix(0.7668 -0.6419 0.6419 0.7668 -20.6233 36.6551)" style="fill:#201284;" cx="40.14" cy="46.71" rx="3.84" ry="3.84"/>
	<polygon id="XMLID_12_" style="fill:#201284;" points="52.38,31.28 45.68,27.75 36.74,44.93 43.44,48.46 	"/>
	<path id="XMLID_11_" style="fill:#FFB300;" d="M55.27,23.62l-0.15-0.17c-1.69-1.89-4.59-2.04-6.47-0.35l-1.93,1.73
		c-1.89,1.69-2.04,4.59-0.35,6.47l0.15,0.17c1.69,1.89,4.59,2.04,6.47,0.35l1.93-1.73C56.8,28.4,56.96,25.5,55.27,23.62z"/>
	<path style="fill:#16A7DA;" d="M67.84,50.76c-0.43,2.79-3.1,4.42-5.16,4.1c-2.07-0.32-3.33-3.28-3.01-5.35s2.41-4.52,4.47-4.21
		C66.2,45.62,68.27,47.89,67.84,50.76z"/>
</g>
<g>
	
		<ellipse transform="matrix(0.7868 -0.6172 0.6172 0.7868 -45.8424 61.2337)" style="fill:#E5B35A;" cx="65.71" cy="96.97" rx="6" ry="6"/>
	<polygon style="fill:#E5B35A;" points="71.22,96.67 59.9,98.54 51.61,73.19 65.97,70.05 	"/>
	<polygon style="fill:#E5B35A;" points="88.66,106.74 84.29,115.96 62.28,101.93 68.54,92.41 	"/>
	<path style="fill:#E5B35A;" d="M55.63,65.56c6.03-1.04,11.76,3,12.8,9.03c1.04,6.03-3,11.76-9.03,12.8
		C53.37,88.43,49.6,66.6,55.63,65.56z"/>
	<g>
		<g>
			<path style="fill:#4568AD;" d="M92.52,109.84l-1.75,9.56c-0.34,1.85-2.12,3.08-3.97,2.74l-0.17-0.03
				c-1.85-0.34-3.08-2.12-2.74-3.97l1.75-9.56c0.34-1.85,2.12-3.08,3.97-2.74l0.17,0.03C91.64,106.21,92.86,107.99,92.52,109.84z"/>
			<path style="fill:#4568AD;" d="M93.14,106.48l-2.81,15.34c-0.09,0.52-0.59,0.86-1.11,0.77l-2.84-0.52l2.98-16.27L93.14,106.48z"
				/>
			<path style="fill:#4568AD;" d="M90.04,105.91l-1.03,5.62l-3.78-0.69l0.6-3.28c0.24-1.29,1.47-2.15,2.77-1.91L90.04,105.91z"/>
		</g>
		<path style="fill:#BABABA;" d="M91.25,106.13c-1.23-0.22-2.4,0.6-2.63,1.82L88,111.36l0,0l-1.33,7.29
			c-0.32,1.77,0.78,3.45,2.49,3.9l0,0.03l0,0c1.86,0.32,3.63-0.92,3.97-2.77l2.01-10.97c0.2-1.08-0.52-2.11-1.6-2.3L91.25,106.13z"
			/>
	</g>
</g>
<ellipse transform="matrix(0.9885 -0.1512 0.1512 0.9885 -13.7493 8.7118)" style="fill:#F4D598;" cx="50.4" cy="94.75" rx="5.98" ry="5.98"/>
<polygon style="fill:#F4D598;" points="55.81,96.97 44.51,93.61 49.74,67.45 64.31,71.2 "/>
<polygon style="fill:#F4D598;" points="55.31,120.27 44.72,120.29 44.42,94.89 56.58,93.93 "/>
<path style="fill:#F4D598;" d="M54.14,60.63c5.74-0.5,10.79,3.74,11.3,9.48c0.5,5.74-3.74,10.79-9.48,11.3
	C50.22,81.91,48.4,61.13,54.14,60.63z"/>
<g>
	<polygon id="XMLID_10_" style="fill:#FBC11B;" points="76.18,34.6 72.62,44.46 64.78,42.66 69.11,22.29 	"/>
	<g>
		<g>
			<g id="XMLID_7_">
				<path id="XMLID_9_" style="fill:#E49500;" d="M82.11,30.08c0,0,1.6,0.75,1.11,2.57c-0.44,1.6-1.84,1.89-3.07,1.56l1.19-4.34
					L82.11,30.08z"/>
				<path id="XMLID_8_" style="fill:#E49500;" d="M63.74,25.04c0,0-1.76-0.17-2.26,1.64c-0.44,1.6,0.62,2.57,1.84,2.91l1.19-4.34
					L63.74,25.04z"/>
			</g>
			<path id="XMLID_6_" style="fill:#FBC11B;" d="M76.18,15.69c-7.26-1.99-10.7,3.11-12.87,11.01c-2.25,8.19,2.44,11.76,6.32,12.83
				c3.83,1.05,9.72,0.45,11.99-7.8C83.8,23.83,83.44,17.68,76.18,15.69z"/>
			<path id="XMLID_5_" style="fill:#6D4C41;" d="M76.75,37.33c0.97-1.83,2.84-3.22,4.55-4.49l1.12-2.54c0,0,0.24,0.18,0.43,0.44
				c0.18,0.24,0.27,0.41,0.27,0.41s0.64-2.33,1.51-5.51c0.9-3.27-0.17-8.63-7.96-10.93c0,0-0.14-0.04-0.2-0.06
				c-0.06-0.02-0.2-0.05-0.2-0.05c-7.87-2-11.53,2.06-12.42,5.33c-0.87,3.17-1.51,5.51-1.51,5.51s0.16-0.1,0.44-0.21
				c0.3-0.12,0.6-0.16,0.6-0.16l-0.33,2.76c0.93,0.96,1.54,2.57,1.53,5.38C64.35,36.67,74.8,39.34,76.75,37.33z"/>
		</g>
		
			<ellipse transform="matrix(0.0682 -0.9977 0.9977 0.0682 50.9817 92.297)" style="fill:#FF5050;" cx="74.9" cy="18.86" rx="8.48" ry="10.43"/>
		<path style="fill:#DD170E;" d="M82.33,17.05c4.75,5.4,3.52,11.22-0.08,15.86c-3.83,4.94-13.58,3.04-17.75-1.82
			s-3.23-11.13,1.25-14.98S78.1,12.24,82.33,17.05z"/>
	</g>
	
		<ellipse transform="matrix(0.1791 -0.9838 0.9838 0.1791 42.2611 89.5624)" style="fill:#B5170F;" cx="74.8" cy="19.46" rx="1.18" ry="1.38"/>
</g>
<path style="fill:#651FFF;" d="M51.58,75.44c-2.37-0.71-3.71-3.2-3-5.56c2.25-8.49,5.36-18.12,9.34-25.28
	c1.27-3.1,5.15-6.9,8.87-5.55l5.84,1.89c2.53,0.89,3.77,6.27,2.43,9.56c-3.15,7.44-4.47,14.91-5.42,23.95
	C68.87,78.85,55.26,76.39,51.58,75.44z"/>
<path style="fill:#6D4C41;" d="M69.93,36.09c0,0,5.58-0.26,7.18,8.52c1.28,7,8.34,11.67,8.34,11.67s-8.57-0.38-14.15-6.43
	S69.93,36.09,69.93,36.09z"/>
<g>
	<path style="fill:#4568AD;" d="M52.4,126.91l-9.72,0c-1.89,0-3.41-1.53-3.41-3.41l0-0.17c0-1.89,1.53-3.41,3.41-3.41l9.72,0
		c1.89,0,3.41,1.53,3.41,3.41l0,0.17C55.81,125.38,54.28,126.91,52.4,126.91z"/>
	<rect x="39.27" y="123.07" style="fill:#4568AD;" width="16.54" height="4.73"/>
	<rect x="50.1" y="119.91" style="fill:#4568AD;" width="5.72" height="3.84"/>
</g>
<g>
	<g>
		<polygon style="fill:#898989;" points="102.87,65.72 104.03,64.05 42.37,21.88 41.21,23.55 		"/>
	</g>
	<g>
		<polygon style="fill:#4D5156;" points="53.38,32.43 55.08,29.97 41,20.31 39.3,22.77 		"/>
	</g>
	<g>
		<path style="fill:#4D5156;" d="M104.08,63.97L104.08,63.97c0,0,4.57,2.55,5.07,3.64c0.38,0.81,0.44,3.69,0.24,5.54
			c-0.2,1.85-1.08,2.24-1.08,2.24s-1.54,1.03-3.22,1.29c-1.67,0.27-1.75-1.25-1.75-1.25s-0.35-2.75-0.18-3.65
			c0.17-0.9,0.81-2.56,1.72-3.67c0.41-0.5-0.26-0.93-0.26-0.93l-1.82-1.39L104.08,63.97z"/>
	</g>
</g>
<g>
	<polygon id="XMLID_4_" style="fill:#3615AF;" points="38.91,42.62 39.02,50.19 63.07,51.02 62.96,41.35 	"/>
	
		<ellipse id="XMLID_3_" transform="matrix(0.661 -0.7504 0.7504 0.661 -21.5883 44.9581)" style="fill:#3615AF;" cx="38.96" cy="46.37" rx="3.84" ry="3.84"/>
	<polygon id="XMLID_2_" style="fill:#3615AF;" points="48.73,29.26 41.58,26.79 35.33,45.13 42.49,47.6 	"/>
	<path id="XMLID_1_" style="fill:#FBC11B;" d="M50.43,21.25l-0.18-0.15c-1.95-1.61-4.84-1.33-6.45,0.63l-1.64,2
		c-1.61,1.95-1.33,4.84,0.63,6.45l0.18,0.15c1.95,1.61,4.84,1.33,6.45-0.63l1.64-2C52.66,25.75,52.38,22.86,50.43,21.25z"/>
	<path style="fill:#3615AF;" d="M66.95,46.19c0,2.82-2.39,4.83-4.48,4.83c-2.09,0-3.79-2.74-3.79-4.83c0-2.09,1.69-4.83,3.79-4.83
		C64.56,41.35,66.95,43.28,66.95,46.19z"/>
</g>
</svg>
