<svg width="128" height="128" style="enable-background:new 0 0 128 128;" xmlns="http://www.w3.org/2000/svg" xmlns:xlink="http://www.w3.org/1999/xlink">
  <g id="_x31_">
    <g>
      <defs>
        <path id="SVGID_1_" d="M116,124H12c-4.42,0-8-3.58-8-8V12c0-4.42,3.58-8,8-8h104c4.42,0,8,3.58,8,8v104 C124,120.42,120.42,124,116,124z"/>
      </defs>
      <clipPath id="SVGID_2_">
        <use style="overflow:visible;" xlink:href="#SVGID_1_"/>
      </clipPath>
      <g style="clip-path:url(#SVGID_2_);">
        <linearGradient id="SVGID_3_" gradientUnits="userSpaceOnUse" x1="64" x2="64" y1="86" y2="3.6498">
          <stop offset="0" style="stop-color:#FFA726"/>
          <stop offset="0.497" style="stop-color:#F06292"/>
          <stop offset="0.6268" style="stop-color:#C3549C"/>
          <stop offset="0.8" style="stop-color:#8D43A7"/>
          <stop offset="0.9296" style="stop-color:#6B39AE"/>
          <stop offset="1" style="stop-color:#5E35B1"/>
        </linearGradient>
        <rect height="120" style="fill:url(#SVGID_3_);" width="120" x="4" y="4"/>
        <linearGradient id="SVGID_4_" gradientUnits="userSpaceOnUse" x1="22" x2="22" y1="83" y2="35.102">
          <stop offset="0" style="stop-color:#7B1FA2"/>
          <stop offset="0.2915" style="stop-color:#681B9A"/>
          <stop offset="0.7231" style="stop-color:#521690"/>
          <stop offset="1" style="stop-color:#4A148C"/>
        </linearGradient>
        <path d="M34,36h-2v-2c0-1.1-0.9-2-2-2h-6h-4h-6c-1.1,0-2,0.9-2,2v2h-2 c-1.1,0-2,0.9-2,2v70h28V38C36,36.9,35.1,36,34,36z" style="opacity:0.7;fill:url(#SVGID_4_);"/>
        <linearGradient id="SVGID_5_" gradientUnits="userSpaceOnUse" x1="82" x2="82" y1="105.3333" y2="17.6489">
          <stop offset="0" style="stop-color:#7B1FA2"/>
          <stop offset="0.2915" style="stop-color:#681B9A"/>
          <stop offset="0.7231" style="stop-color:#521690"/>
          <stop offset="1" style="stop-color:#4A148C"/>
        </linearGradient>
        <path d="M118,48h-2v-2c0-1.1-0.9-2-2-2H90c-1.1,0-2,0.9-2,2v2h-2c-1.1,0-2,0.9-2,2v54 H72V30c0-1.1-0.9-2-2-2h-2v-6c0-1.1-0.9-2-2-2h-4v-6c0-1.1-0.9-2-2-2h-4c-1.1,0-2,0.9-2,2v6h-4c-1.1,0-2,0.9-2,2v6h-2 c-1.1,0-2,0.9-2,2v86h28h12h36V50C120,48.9,119.1,48,118,48z" style="opacity:0.7;fill:url(#SVGID_5_);"/>
        <radialGradient id="SVGID_6_" cx="426.5981" cy="-627.6558" gradientTransform="matrix(1.900000e-03 -1 1 1.900000e-03 664.6792 539.621)" gradientUnits="userSpaceOnUse" r="37.835">
          <stop offset="0" style="stop-color:#FF8A80"/>
          <stop offset="0.0596" style="stop-color:#EC8076"/>
          <stop offset="0.3276" style="stop-color:#99534D"/>
          <stop offset="0.565" style="stop-color:#572F2C"/>
          <stop offset="0.7629" style="stop-color:#281614"/>
          <stop offset="0.9139" style="stop-color:#0B0605"/>
          <stop offset="1" style="stop-color:#000000"/>
        </radialGradient>
        <path d="M37.9,73.99C58.8,74.03,75.71,91,75.67,111.9c-0.04,20.89-17.01,37.8-37.9,37.77 c-20.89-0.04-37.8-17.01-37.76-37.9C0.04,90.86,17.01,73.96,37.9,73.99z" style="fill:url(#SVGID_6_);"/>
        <radialGradient id="SVGID_7_" cx="426.3788" cy="-561.6664" gradientTransform="matrix(1.900000e-03 -1 1 1.900000e-03 664.6792 539.621)" gradientUnits="userSpaceOnUse" r="31.8238">
          <stop offset="0" style="stop-color:#FF8A80"/>
          <stop offset="0.0596" style="stop-color:#EC8076"/>
          <stop offset="0.3276" style="stop-color:#99534D"/>
          <stop offset="0.565" style="stop-color:#572F2C"/>
          <stop offset="0.7629" style="stop-color:#281614"/>
          <stop offset="0.9139" style="stop-color:#0B0605"/>
          <stop offset="1" style="stop-color:#000000"/>
        </radialGradient>
        <path d="M103.88,80.35c17.58,0.03,31.8,14.31,31.77,31.88c-0.03,17.57-14.3,31.8-31.88,31.77 c-17.57-0.03-31.8-14.31-31.76-31.88C72.03,94.54,86.31,80.32,103.88,80.35z" style="fill:url(#SVGID_7_);"/>
        <linearGradient id="SVGID_8_" gradientUnits="userSpaceOnUse" x1="64" x2="64" y1="117.3333" y2="60.9753">
          <stop offset="0" style="stop-color:#6A1B9A"/>
          <stop offset="0.4278" style="stop-color:#361070"/>
          <stop offset="0.8042" style="stop-color:#0F084F"/>
          <stop offset="1" style="stop-color:#000543"/>
        </linearGradient>
        <path d="M122,60h-20c-1.1,0-2,0.9-2,2v42h-8V74c0-1.1-0.9-2-2-2H58c-1.1,0-2,0.9-2,2v38h-8V58 c0-1.1-0.9-2-2-2H18c-1.1,0-2,0.9-2,2v26H6c-1.1,0-2,0.9-2,2v30h32h8h12h20h8h8h32V62C124,60.9,123.1,60,122,60z" style="fill:url(#SVGID_8_);"/>
        <g>
          <linearGradient id="SVGID_9_" gradientUnits="userSpaceOnUse" x1="64" x2="64" y1="124.5" y2="95.5669">
            <stop offset="0" style="stop-color:#111762"/>
            <stop offset="0.2853" style="stop-color:#0B114D"/>
            <stop offset="0.7382" style="stop-color:#030831"/>
            <stop offset="1" style="stop-color:#000526"/>
          </linearGradient>
          <path d="M120.3,90.25c-4.06,2-7.41,5.21-9.59,9.17c-0.59,0.69-1.07,1.52-1.42,2.51 c-0.02,0.07-0.05,0.14-0.07,0.21c-0.17,0.51-0.7,0.78-1.23,0.65c-0.32-0.08-0.64-0.12-0.98-0.12c-1.34,0-2.57,0.63-3.57,1.7 c-0.71,0.76-1.91,0.79-2.73,0.15c-2.15-1.66-4.81-2.64-7.69-2.64c-2.2,0-4.27,0.58-6.08,1.58c-0.87,0.48-1.95,0.18-2.54-0.62 c-3.56-4.84-9.18-7.98-15.52-7.98c-4.8,0-9.18,1.8-12.58,4.77c-0.38,0.34-0.94,0.34-1.33,0.01c-0.9-0.78-1.95-1.23-3.08-1.23 c-1.1,0-2.13,0.43-3.01,1.17c-0.34,0.29-0.82,0.3-1.2,0.06c-2.19-1.41-4.77-2.23-7.54-2.23c-3.9,0-7.42,1.62-9.99,4.23 c-0.39,0.4-1.02,0.37-1.43-0.02c-0.95-0.92-2.1-1.47-3.34-1.47c-1.36,0-2.61,0.65-3.61,1.74c-0.39,0.43-1.06,0.47-1.45,0.05 c-3.57-3.84-8.59-6.24-14.15-6.22C4.96,95.76,4,96.77,4,97.98C4,104.5,4,124,4,124h109.03H124V92.57 C124,90.67,122,89.41,120.3,90.25z" style="fill:url(#SVGID_9_);"/>
        </g>
      </g>
    </g>
    <g>
      <defs>
        <path id="SVGID_10_" d="M-28,124h-104c-4.42,0-8-3.58-8-8V12c0-4.42,3.58-8,8-8h104c4.42,0,8,3.58,8,8v104 C-20,120.42-23.58,124-28,124z"/>
      </defs>
      <clipPath id="SVGID_11_">
        <use style="overflow:visible;" xlink:href="#SVGID_10_"/>
      </clipPath>
      <radialGradient id="SVGID_12_" cx="-80.1667" cy="89.8333" gradientUnits="userSpaceOnUse" r="97.6667">
        <stop offset="0.2753" style="stop-color:#FFCA28"/>
        <stop offset="1" style="stop-color:#DD2C00"/>
      </radialGradient>
      <rect height="120" style="clip-path:url(#SVGID_11_);fill:url(#SVGID_12_);" width="120" x="-140" y="4"/>
      <linearGradient id="SVGID_13_" gradientUnits="userSpaceOnUse" x1="-122" x2="-122" y1="107" y2="31">
        <stop offset="0" style="stop-color:#FF9800"/>
        <stop offset="0.0909" style="stop-color:#FD850C"/>
        <stop offset="0.2927" style="stop-color:#F86123"/>
        <stop offset="0.4569" style="stop-color:#F54B31"/>
        <stop offset="0.562" style="stop-color:#F44336"/>
        <stop offset="0.7248" style="stop-color:#D7312A"/>
        <stop offset="0.8944" style="stop-color:#C02220"/>
        <stop offset="1" style="stop-color:#B71C1C"/>
      </linearGradient>
      <path d="M-110,36h-2v-2c0-1.1-0.9-2-2-2h-6h-4h-6 c-1.1,0-2,0.9-2,2v2h-2c-1.1,0-2,0.9-2,2v70h28V38C-108,36.9-108.9,36-110,36z" style="opacity:0.7;clip-path:url(#SVGID_11_);fill:url(#SVGID_13_);"/>
      <linearGradient id="SVGID_14_" gradientUnits="userSpaceOnUse" x1="-62" x2="-62" y1="136.3333" y2="18.3479">
        <stop offset="0" style="stop-color:#FF9800"/>
        <stop offset="0.0909" style="stop-color:#FD850C"/>
        <stop offset="0.2927" style="stop-color:#F86123"/>
        <stop offset="0.4569" style="stop-color:#F54B31"/>
        <stop offset="0.562" style="stop-color:#F44336"/>
        <stop offset="0.7248" style="stop-color:#D7312A"/>
        <stop offset="0.8944" style="stop-color:#C02220"/>
        <stop offset="1" style="stop-color:#B71C1C"/>
      </linearGradient>
      <path d="M-26,48h-2v-2c0-1.1-0.9-2-2-2h-24 c-1.1,0-2,0.9-2,2v2h-2c-1.1,0-2,0.9-2,2v54h-12V30c0-1.1-0.9-2-2-2h-2v-6c0-1.1-0.9-2-2-2h-4v-6c0-1.1-0.9-2-2-2h-4 c-1.1,0-2,0.9-2,2v6h-4c-1.1,0-2,0.9-2,2v6h-2c-1.1,0-2,0.9-2,2v86h28h12h36V50C-24,48.9-24.9,48-26,48z" style="opacity:0.7;clip-path:url(#SVGID_11_);fill:url(#SVGID_14_);"/>
      <linearGradient id="SVGID_15_" gradientUnits="userSpaceOnUse" x1="-80" x2="-80" y1="126" y2="61.2475">
        <stop offset="0.236" style="stop-color:#F44336"/>
        <stop offset="0.355" style="stop-color:#D7312A"/>
        <stop offset="0.479" style="stop-color:#C02220"/>
        <stop offset="0.5562" style="stop-color:#B71C1C"/>
        <stop offset="0.6867" style="stop-color:#9E1818"/>
        <stop offset="0.89" style="stop-color:#7B1212"/>
        <stop offset="1" style="stop-color:#6E1010"/>
      </linearGradient>
      <path d="M-22,60h-20c-1.1,0-2,0.9-2,2v42h-8V74c0-1.1-0.9-2-2-2h-32 c-1.1,0-2,0.9-2,2v38h-8V58c0-1.1-0.9-2-2-2h-28c-1.1,0-2,0.9-2,2v26h-10c-1.1,0-2,0.9-2,2v30h32h8h12h20h8h8h32V62 C-20,60.9-20.9,60-22,60z" style="clip-path:url(#SVGID_11_);fill:url(#SVGID_15_);"/>
      <g style="clip-path:url(#SVGID_11_);">
        <linearGradient id="SVGID_16_" gradientUnits="userSpaceOnUse" x1="-80" x2="-80" y1="127" y2="95.6649">
          <stop offset="0" style="stop-color:#B71C1C"/>
          <stop offset="1" style="stop-color:#6E1010"/>
        </linearGradient>
        <path d="M-23.7,90.25c-4.06,2-7.41,5.21-9.59,9.17c-0.59,0.69-1.07,1.52-1.42,2.51 c-0.02,0.07-0.05,0.14-0.07,0.21c-0.17,0.51-0.7,0.78-1.23,0.65c-0.32-0.08-0.64-0.12-0.98-0.12c-1.34,0-2.57,0.63-3.57,1.7 c-0.71,0.76-1.91,0.79-2.73,0.15c-2.15-1.66-4.81-2.64-7.69-2.64c-2.2,0-4.27,0.58-6.08,1.58c-0.87,0.48-1.95,0.18-2.54-0.62 c-3.56-4.84-9.18-7.98-15.52-7.98c-4.8,0-9.18,1.8-12.58,4.77c-0.38,0.34-0.94,0.34-1.33,0.01c-0.9-0.78-1.95-1.23-3.08-1.23 c-1.1,0-2.13,0.43-3.01,1.17c-0.34,0.29-0.82,0.3-1.2,0.06c-2.19-1.41-4.77-2.23-7.54-2.23c-3.9,0-7.42,1.62-9.99,4.23 c-0.39,0.4-1.02,0.37-1.43-0.02c-0.95-0.92-2.1-1.47-3.34-1.47c-1.36,0-2.61,0.65-3.61,1.74c-0.39,0.43-1.06,0.47-1.45,0.05 c-3.57-3.84-8.59-6.24-14.15-6.22c-1.21,0-2.17,1.02-2.17,2.23c0,6.52,0,26.02,0,26.02h109.03H-20V92.57 C-20,90.67-22,89.41-23.7,90.25z" style="fill:url(#SVGID_16_);"/>
      </g>
    </g>
    <g style="opacity:0.2;">
      <path d="M116,7c2.76,0,5,2.24,5,5v104c0,2.76-2.24,5-5,5H12c-2.76,0-5-2.24-5-5V12c0-2.76,2.24-5,5-5H116 M116,4H12c-4.42,0-8,3.58-8,8v104c0,4.42,3.58,8,8,8h104c4.42,0,8-3.58,8-8V12C124,7.58,120.42,4,116,4L116,4z" style="fill:#EEEEEE;"/>
    </g>
    <g style="opacity:0.2;">
      <path d="M-28,7c2.76,0,5,2.24,5,5v104c0,2.76-2.24,5-5,5h-104c-2.76,0-5-2.24-5-5V12c0-2.76,2.24-5,5-5H-28 M-28,4h-104c-4.42,0-8,3.58-8,8v104c0,4.42,3.58,8,8,8h104c4.42,0,8-3.58,8-8V12C-20,7.58-23.58,4-28,4L-28,4z" style="fill:#EEEEEE;"/>
    </g>
  </g>
  <g id="windows">
    <g>
      <path d="M-74.75,88h-4.5c-0.41,0-0.75-0.34-0.75-0.75v-4.5c0-0.41,0.34-0.75,0.75-0.75h4.5 c0.41,0,0.75,0.34,0.75,0.75v4.5C-74,87.66-74.34,88-74.75,88z" style="fill:#FFC107;"/>
      <path d="M-58.75,84h-4.5c-0.41,0-0.75-0.34-0.75-0.75v-4.5c0-0.41,0.34-0.75,0.75-0.75h4.5 c0.41,0,0.75,0.34,0.75,0.75v4.5C-58,83.66-58.34,84-58.75,84z" style="fill:#FFC107;"/>
      <path d="M-32.75,72h-4.5c-0.41,0-0.75-0.34-0.75-0.75v-4.5c0-0.41,0.34-0.75,0.75-0.75h4.5 c0.41,0,0.75,0.34,0.75,0.75v4.5C-32,71.66-32.34,72-32.75,72z" style="fill:#FFC107;"/>
      <path d="M-26.75,84h-4.5c-0.41,0-0.75-0.34-0.75-0.75v-4.5c0-0.41,0.34-0.75,0.75-0.75h4.5 c0.41,0,0.75,0.34,0.75,0.75v4.5C-26,83.66-26.34,84-26.75,84z" style="fill:#FFC107;"/>
      <path d="M-102.75,70h-4.5c-0.41,0-0.75-0.34-0.75-0.75v-4.5c0-0.41,0.34-0.75,0.75-0.75h4.5 c0.41,0,0.75,0.34,0.75,0.75v4.5C-102,69.66-102.34,70-102.75,70z" style="fill:#FFC107;"/>
      <path d="M-116.75,78h-4.5c-0.41,0-0.75-0.34-0.75-0.75v-4.5c0-0.41,0.34-0.75,0.75-0.75h4.5 c0.41,0,0.75,0.34,0.75,0.75v4.5C-116,77.66-116.34,78-116.75,78z" style="fill:#FFC107;"/>
      <path d="M-104.75,88h-4.5c-0.41,0-0.75-0.34-0.75-0.75v-4.5c0-0.41,0.34-0.75,0.75-0.75h4.5 c0.41,0,0.75,0.34,0.75,0.75v4.5C-104,87.66-104.34,88-104.75,88z" style="fill:#FFC107;"/>
    </g>
    <g style="opacity:0.2;">
      <path d="M-124.75,54h-4.5c-0.41,0-0.75-0.34-0.75-0.75v-4.5c0-0.41,0.34-0.75,0.75-0.75h4.5 c0.41,0,0.75,0.34,0.75,0.75v4.5C-124,53.66-124.34,54-124.75,54z" style="fill:#E64A19;"/>
      <path d="M-114.75,50h-4.5c-0.41,0-0.75-0.34-0.75-0.75v-4.5c0-0.41,0.34-0.75,0.75-0.75h4.5 c0.41,0,0.75,0.34,0.75,0.75v4.5C-114,49.66-114.34,50-114.75,50z" style="fill:#E64A19;"/>
      <path d="M-88.75,42h-4.5c-0.41,0-0.75-0.34-0.75-0.75v-4.5c0-0.41,0.34-0.75,0.75-0.75h4.5 c0.41,0,0.75,0.34,0.75,0.75v4.5C-88,41.66-88.34,42-88.75,42z" style="fill:#E64A19;"/>
      <path d="M-78.75,49h-4.5c-0.41,0-0.75-0.34-0.75-0.75v-4.5c0-0.41,0.34-0.75,0.75-0.75h4.5 c0.41,0,0.75,0.34,0.75,0.75v4.5C-78,48.66-78.34,49-78.75,49z" style="fill:#E64A19;"/>
      <path d="M-78.75,60h-4.5c-0.41,0-0.75-0.34-0.75-0.75v-4.5c0-0.41,0.34-0.75,0.75-0.75h4.5 c0.41,0,0.75,0.34,0.75,0.75v4.5C-78,59.66-78.34,60-78.75,60z" style="fill:#E64A19;"/>
      <path d="M-38.75,58h-4.5c-0.41,0-0.75-0.34-0.75-0.75v-4.5c0-0.41,0.34-0.75,0.75-0.75h4.5 c0.41,0,0.75,0.34,0.75,0.75v4.5C-38,57.66-38.34,58-38.75,58z" style="fill:#E64A19;"/>
      <path d="M-48.75,64h-4.5c-0.41,0-0.75-0.34-0.75-0.75v-4.5c0-0.41,0.34-0.75,0.75-0.75h4.5 c0.41,0,0.75,0.34,0.75,0.75v4.5C-48,63.66-48.34,64-48.75,64z" style="fill:#E64A19;"/>
    </g>
    <g>
      <path d="M69.25,88h-4.5C64.34,88,64,87.66,64,87.25v-4.5c0-0.41,0.34-0.75,0.75-0.75h4.5 c0.41,0,0.75,0.34,0.75,0.75v4.5C70,87.66,69.66,88,69.25,88z" style="fill:#FFC107;"/>
      <path d="M85.25,84h-4.5C80.34,84,80,83.66,80,83.25v-4.5c0-0.41,0.34-0.75,0.75-0.75h4.5 c0.41,0,0.75,0.34,0.75,0.75v4.5C86,83.66,85.66,84,85.25,84z" style="fill:#FFC107;"/>
      <path d="M111.25,72h-4.5c-0.41,0-0.75-0.34-0.75-0.75v-4.5c0-0.41,0.34-0.75,0.75-0.75h4.5 c0.41,0,0.75,0.34,0.75,0.75v4.5C112,71.66,111.66,72,111.25,72z" style="fill:#FFC107;"/>
      <path d="M117.25,84h-4.5c-0.41,0-0.75-0.34-0.75-0.75v-4.5c0-0.41,0.34-0.75,0.75-0.75h4.5 c0.41,0,0.75,0.34,0.75,0.75v4.5C118,83.66,117.66,84,117.25,84z" style="fill:#FFC107;"/>
      <path d="M41.25,70h-4.5C36.34,70,36,69.66,36,69.25v-4.5c0-0.41,0.34-0.75,0.75-0.75h4.5 c0.41,0,0.75,0.34,0.75,0.75v4.5C42,69.66,41.66,70,41.25,70z" style="fill:#FFC107;"/>
      <path d="M27.25,78h-4.5C22.34,78,22,77.66,22,77.25v-4.5c0-0.41,0.34-0.75,0.75-0.75h4.5 c0.41,0,0.75,0.34,0.75,0.75v4.5C28,77.66,27.66,78,27.25,78z" style="fill:#FFC107;"/>
      <path d="M39.25,88h-4.5C34.34,88,34,87.66,34,87.25v-4.5c0-0.41,0.34-0.75,0.75-0.75h4.5 c0.41,0,0.75,0.34,0.75,0.75v4.5C40,87.66,39.66,88,39.25,88z" style="fill:#FFC107;"/>
    </g>
    <g style="opacity:0.2;">
      <path d="M19.25,54h-4.5C14.34,54,14,53.66,14,53.25v-4.5c0-0.41,0.34-0.75,0.75-0.75h4.5 c0.41,0,0.75,0.34,0.75,0.75v4.5C20,53.66,19.66,54,19.25,54z" style="fill:#7B1FA2;"/>
      <path d="M29.25,50h-4.5C24.34,50,24,49.66,24,49.25v-4.5c0-0.41,0.34-0.75,0.75-0.75h4.5 c0.41,0,0.75,0.34,0.75,0.75v4.5C30,49.66,29.66,50,29.25,50z" style="fill:#7B1FA2;"/>
      <path d="M55.25,42h-4.5C50.34,42,50,41.66,50,41.25v-4.5c0-0.41,0.34-0.75,0.75-0.75h4.5 c0.41,0,0.75,0.34,0.75,0.75v4.5C56,41.66,55.66,42,55.25,42z" style="fill:#7B1FA2;"/>
      <path d="M65.25,49h-4.5C60.34,49,60,48.66,60,48.25v-4.5c0-0.41,0.34-0.75,0.75-0.75h4.5 c0.41,0,0.75,0.34,0.75,0.75v4.5C66,48.66,65.66,49,65.25,49z" style="fill:#7B1FA2;"/>
      <path d="M65.25,60h-4.5C60.34,60,60,59.66,60,59.25v-4.5c0-0.41,0.34-0.75,0.75-0.75h4.5 c0.41,0,0.75,0.34,0.75,0.75v4.5C66,59.66,65.66,60,65.25,60z" style="fill:#7B1FA2;"/>
      <path d="M105.25,58h-4.5c-0.41,0-0.75-0.34-0.75-0.75v-4.5c0-0.41,0.34-0.75,0.75-0.75h4.5 c0.41,0,0.75,0.34,0.75,0.75v4.5C106,57.66,105.66,58,105.25,58z" style="fill:#7B1FA2;"/>
      <path d="M95.25,64h-4.5C90.34,64,90,63.66,90,63.25v-4.5c0-0.41,0.34-0.75,0.75-0.75h4.5 c0.41,0,0.75,0.34,0.75,0.75v4.5C96,63.66,95.66,64,95.25,64z" style="fill:#7B1FA2;"/>
    </g>
  </g>
</svg>