<svg xmlns="http://www.w3.org/2000/svg" viewBox="0 0 128 128"><path d="M61.74 74.52s-20.27 27.89-17.1 29.69c2.16 1.23 17.03 1.04 18.94 2.25 1.91 1.21-8.85 18.8-8.72 19.5.17.87 1.44 2.48 8.84-3.1 11.45-8.64 18.69-18.68 18.69-18.68s6.74-5.78-14.83-7.95c-2-1.98 16.76-18.83 16.76-18.83l-22.58-2.88z" fill="#ffca28"/><path d="M110.46 33.91h-.01c0-.07.01-.14.01-.21 0-9.67-7.84-17.5-17.5-17.5-1.24 0-2.46.13-3.63.38C85.86 8.14 77.57 2.19 67.88 2.19c-7.28 0-13.76 3.36-18.01 8.6a20.075 20.075 0 0 0-9.11-2.19c-10.47 0-19.07 7.98-20.07 18.19C9.29 27.39.15 36.72.01 48.3c-.16 12.07 9.5 21.98 21.57 22.13.94.01 1.86-.05 2.76-.16C29 80.11 39.01 86.91 50.61 86.91c7 0 13.42-2.48 18.44-6.6 3.84 2.84 8.57 4.54 13.71 4.54 10.54 0 19.42-7.08 22.18-16.73 1.74.58 3.59.9 5.52.9 9.7 0 17.55-7.86 17.55-17.55 0-9.7-7.86-17.56-17.55-17.56z" fill="#e3ebee"/><path d="M120.77 37.26c3.98 4.01 1.17 13.23-1.57 16.23-5.38 5.9-15.26 4.52-19.23 3.67-1.07-.23-1.25-.15-1.59.06-.31.19-.46.49-.79 1.22-1.28 2.75-4.57 8.09-11.53 10.23-7.25 2.24-14.09-1.17-17.3-3.21-1.21-.77-1.27-.79-1.81-.78-.56.01-1.11.41-1.76.93-2.89 2.28-9.5 6.29-19.69 5.71-9.99-.57-15.71-6.73-17.66-9.9-.38-.61-.78-1.12-1.24-1.16-.53-.06-1.13.5-1.58.94-4.25 4.14-17.62 5.38-22.06-1.67 4.51 7.24 11.48 10.82 18.63 10.91.94.01 1.86-.05 2.76-.16C29 80.11 39.01 86.91 50.61 86.91c7 0 13.42-2.48 18.44-6.6 3.84 2.84 8.57 4.54 13.71 4.54 10.54 0 19.42-7.08 22.18-16.73 1.74.58 3.59.9 5.52.9 9.7 0 17.55-7.86 17.55-17.55 0-5.17-2.59-10.99-7.24-14.21z" fill="#b9cdd2"/></svg>