<svg xmlns="http://www.w3.org/2000/svg" viewBox="0 0 128 128"><path d="M28.44 113.53c-6.51-22.34-6.51-68.14-6.51-68.14l84-.33s0 41.49-4.88 68.19l-72.61.28z" fill="#6d4c41"/><ellipse cx="63.93" cy="46.11" rx="42" ry="39.5" fill="#6d4c41"/><path fill="#424242" d="M73.77 128H54.08V95.7l9.85 12 9.84-12z"/><path d="M20.43 117.96v9.89h87.14v-9.89c0-15.17-21.39-22.87-43.24-22.84-21.72.02-43.9 6.78-43.9 22.84z" fill="#e0e0e0"/><path d="M63.93 90.25h-9.08v9.59c0 4.34 3.7 7.86 8.26 7.86h1.65c4.56 0 8.26-3.52 8.26-7.86v-9.59h-9.09z" fill="#e49500"/><path fill="#7ad1fc" d="M55.18 100.61h17.43l-7.15 27.24h-2.98z"/><path d="M86.3 113.32l-2.58-16.64s-1.09-7.66-8.93-7.66h-22.5c-7.84 0-8.93 7.66-8.93 7.66l-.84 5.23" fill="none" stroke="#11222d" stroke-width="3.5" stroke-miterlimit="10"/><path d="M63.93 13.57c-24.35 0-30.72 18.87-30.72 45.39 0 26.51 18.89 34.6 30.72 34.6 11.83 0 30.72-8.09 30.72-34.6-.01-26.51-6.38-45.39-30.72-45.39z" fill="#fbc11b"/><path d="M73.26 78.11h-9.23-9.23c-1.06 0-1.51.71-.81 1.78.98 1.49 4.61 4.36 10.04 4.36s9.06-2.87 10.04-4.36c.7-1.07.25-1.78-.81-1.78z" fill="#444"/><g fill="#444"><path d="M53.53 60.73c0 2.84-1.9 5.15-4.26 5.15-2.35 0-4.27-2.3-4.27-5.15 0-2.85 1.91-5.15 4.27-5.15 2.36-.01 4.26 2.3 4.26 5.15M74.53 60.73c0 2.84 1.9 5.15 4.27 5.15 2.35 0 4.26-2.3 4.26-5.15 0-2.85-1.91-5.15-4.26-5.15-2.37-.01-4.27 2.3-4.27 5.15"/></g><path d="M68.44 70.27c-1.57.44-3.2.66-4.46.66s-2.89-.22-4.46-.66c-.67-.19-.94.45-.69.87.5.88 2.5 2.64 5.15 2.64 2.65 0 4.65-1.77 5.15-2.64.24-.43-.02-1.06-.69-.87z" fill="#e49500"/><path d="M72.87 34.43c-3.23 3.11-19.29 17.58-41.42 21.35V26.11S41 7.16 63.92 7.16 96.4 26.59 96.4 26.59v29.19s-15.02-5.76-22.56-21.17c-.19-.37-.67-.47-.97-.18z" fill="#6d4c41"/><path fill="#eee" d="M54.87 94.27l-10 5.87 9.58 10.06-2.29 8 10.48 9.8zM73.03 94.27l9.33 5.73-8.91 10.2 2.29 8-10.48 9.8z"/><path d="M35.04 114.14v-5.13c0-3.93 3.19-7.12 7.12-7.12s7.12 3.19 7.12 7.12v5.13" fill="none" stroke="#11222d" stroke-width="3.5" stroke-miterlimit="10"/><circle cx="86.3" cy="115.69" r="6.66" fill="#9e9e9e"/><path d="M38.45 125.15c-1.33 0-2.49-.48-3.37-1.38-1.81-1.86-1.79-4.89-1.79-5.22v-5.2h3.5v5.24c-.01.65.17 2.11.79 2.74.16.16.38.32.87.32.97 0 1.75.78 1.75 1.75s-.79 1.75-1.75 1.75zM45.86 125.24c-.97 0-1.75-.78-1.75-1.75s.78-1.75 1.75-1.75c.49 0 .71-.16.87-.32.62-.64.81-2.12.79-2.7v-5.28h3.5v5.24c.01.3.03 3.33-1.79 5.18-.88.9-2.05 1.38-3.37 1.38z" fill="#9e9e9e"/></svg>