<?xml version="1.0" encoding="utf-8"?>
<!-- Generator: Adobe Illustrator 19.2.1, SVG Export Plug-In . SVG Version: 6.00 Build 0)  -->
<svg version="1.1" id="图层_1" xmlns="http://www.w3.org/2000/svg" xmlns:xlink="http://www.w3.org/1999/xlink" x="0px" y="0px"
	 viewBox="0 0 128 128" style="enable-background:new 0 0 128 128;" xml:space="preserve">
<g>
	<g>
		<g>
			<g>
				<g>
					<path style="fill:#474747;" d="M122.39,70.58l-17.96-56.65c-0.54-1.68-1.95-2.98-3.72-3.41c-0.42-0.1-0.84-0.14-1.26-0.14
						c-1.36,0-2.69,0.52-3.68,1.47c-8.37,8.09-15.71,9.62-26.34,9.62c-3.22,0-6.76-0.15-10.51-0.31c-2.94-0.13-5.99-0.26-9.3-0.34
						c-0.58-0.01-1.15-0.02-1.7-0.02c-26.87,0-35.46,15.71-35.82,16.38c-0.46,0.86-0.64,1.83-0.54,2.79l5.89,56.65
						c0.2,1.88,1.47,3.5,3.29,4.18c0.61,0.23,1.26,0.34,1.89,0.34c1.25,0,2.49-0.44,3.46-1.27c0.09-0.07,10.89-8.99,28.14-8.99
						c2.21,0,4.45,0.14,6.68,0.43c8.12,1.04,14.05,1.51,19.23,1.51c16.58,0,28.84-5.16,41-17.25
						C122.47,74.24,122.95,72.33,122.39,70.58z"/>
				</g>
			</g>
			<g>
				<polygon style="fill:#5DA5B0;" points="20.03,128 8.99,18.81 17.94,17.9 29.08,128 				"/>
			</g>
			<circle style="fill:#5DA5B0;" cx="13.46" cy="17.33" r="8.08"/>
		</g>
		<g>
			<path style="fill:#3A3A3A;" d="M26.15,99.74c1.27-1,11.78-8.89,28.01-8.89c2.21,0,4.45,0.14,6.68,0.43
				c8.12,1.04,14.05,1.51,19.23,1.51c16.58,0,28.84-5.16,41-17.25c1.33-1.32,1.8-3.22,1.25-4.98l-1.99-6.5
				c-1.27,3.74-3.81,8.5-8.02,12.28c-5.69,5.1-11.93,8.6-21.31,9.59c-14.51,1.53-25.6-4.55-36.44-8.68
				c-11.27-4.3-30.57,0.34-30.57,0.34L26.15,99.74z"/>
		</g>
	</g>
	<g>
		<path style="fill:#4F4F4F;" d="M43.42,21.41c11.52,0.46,25.57,5.55,38.12,4.39c10.72-0.99,11.3-5.11,15.19-7.93
			c1.87-1.35,4.6-1.3,5.25,0.95l17.22,47.9c0,0,0,0,0.45-1.03c0.45-1.03,0.6-1.64,0.6-1.64v0l-15.9-50.13
			c-0.54-1.68-1.95-2.98-3.72-3.41c-0.88-0.2-1.77-0.19-2.64,0.03c-0.92,0.24-1.74,0.77-2.42,1.42c-8.32,7.98-15.64,9.5-26.21,9.5
			c-3.22,0-6.76-0.15-10.51-0.31c-2.94-0.13-5.99-0.26-9.3-0.34c-0.58-0.01-1.15-0.02-1.7-0.02c-1.56,0-3.05,0-4.48,0.15
			C37.68,21.56,41.31,21.32,43.42,21.41z"/>
	</g>
</g>
</svg>
