<svg enable-background="new 0 0 128 128" viewBox="0 0 128 128" xmlns="http://www.w3.org/2000/svg"><linearGradient id="a" x1="64" x2="64" y1="4.25" y2="124.41" gradientUnits="userSpaceOnUse"><stop stop-color="#B388FF" offset="0"/><stop stop-color="#A175FF" offset=".3773"/><stop stop-color="#7C4DFF" offset="1"/></linearGradient><path d="m116 124h-104c-4.42 0-8-3.58-8-8v-104c0-4.42 3.58-8 8-8h104c4.42 0 8 3.58 8 8v104c0 4.42-3.58 8-8 8z" fill="url(#a)"/><g opacity=".2"><path d="m116 7c2.76 0 5 2.24 5 5v104c0 2.76-2.24 5-5 5h-104c-2.76 0-5-2.24-5-5v-104c0-2.76 2.24-5 5-5h104m0-3h-104c-4.42 0-8 3.58-8 8v104c0 4.42 3.58 8 8 8h104c4.42 0 8-3.58 8-8v-104c0-4.42-3.58-8-8-8z" fill="#424242"/></g><g fill="#424242" opacity=".2"><path d="m63.21 34c4.97 0 9 4.03 9 9s-4.03 9-9 9-9-4.03-9-9 4.03-9 9-9m0-3c-6.62 0-12 5.38-12 12s5.38 12 12 12 12-5.38 12-12-5.38-12-12-12z"/><path d="m70.61 54c3.46 0 6.63 2.29 7.6 5.79l7.8 27.09c1.05 3.81-1.07 7.42-4.47 9.23-0.06 0.03-9.57 5.64-9.57 5.64-0.49 0.3-0.28 1.05 0.29 1.05h15.24c2.4 0 4.55 1.76 4.78 4.15 0.26 2.74-1.89 5.05-4.58 5.05h-33.97c-0.04 0-0.07-0.01-0.11-0.01-0.16 0-0.32-0.03-0.48-0.05-0.14-0.02-0.29-0.03-0.43-0.06s-0.26-0.08-0.4-0.12c-0.15-0.05-0.31-0.09-0.45-0.16-0.12-0.05-0.24-0.13-0.36-0.19-0.14-0.08-0.28-0.15-0.41-0.24-0.11-0.08-0.21-0.17-0.32-0.26-0.12-0.1-0.25-0.2-0.36-0.32-0.09-0.09-0.16-0.2-0.24-0.29-0.11-0.14-0.22-0.28-0.32-0.43-0.02-0.03-0.04-0.05-0.06-0.08-0.05-0.08-0.07-0.17-0.12-0.25-0.08-0.16-0.16-0.31-0.23-0.48-0.05-0.13-0.09-0.27-0.13-0.41-0.04-0.15-0.09-0.3-0.11-0.45-0.03-0.16-0.04-0.32-0.05-0.49-0.01-0.1-0.03-0.2-0.03-0.3 0-0.04 0.01-0.07 0.01-0.11 0-0.16 0.03-0.32 0.05-0.49 0.02-0.14 0.03-0.29 0.06-0.42 0.03-0.14 0.08-0.27 0.13-0.41 0.05-0.15 0.09-0.29 0.15-0.43 0.06-0.13 0.13-0.25 0.21-0.38 0.07-0.13 0.14-0.26 0.23-0.39 0.08-0.12 0.19-0.23 0.28-0.34 0.1-0.11 0.19-0.23 0.3-0.33 0.1-0.09 0.21-0.18 0.32-0.26 0.13-0.11 0.26-0.21 0.4-0.3 0.03-0.02 0.06-0.05 0.09-0.07l17.14-10.38c1.42-0.86 2.09-2.56 1.63-4.16l-5.68-19.9c-0.12-0.42-0.5-0.67-0.89-0.67-0.23 0-0.46 0.08-0.64 0.27l-7.33 7.27c-0.17 0.24-0.37 0.46-0.6 0.66-0.67 0.56-1.48 0.82-2.29 0.84h-0.16-0.11c-0.09 0-0.18-0.01-0.27-0.03-0.81-0.09-1.59-0.42-2.21-1.04-0.22-0.22-0.39-0.46-0.54-0.71l-13.13-15.56c-1.3-1.56-1.09-3.88 0.47-5.18 0.69-0.58 1.53-0.86 2.36-0.86 1.05 0 2.1 0.45 2.83 1.32l9.62 11.4c0.37 0.43 0.89 0.65 1.41 0.65 0.47 0 0.93-0.18 1.29-0.53l10.23-10.14c0.24-0.24 0.49-0.47 0.75-0.68 1.34-1.07 2.29-1.48 3.28-1.76 0.7-0.2 1.4-0.29 2.1-0.29m0-3c-0.98 0-1.95 0.13-2.9 0.39-1.57 0.43-2.87 1.12-4.35 2.3-0.32 0.25-0.65 0.55-1 0.9l-9.34 9.26-8.81-10.44c-1.26-1.51-3.13-2.39-5.12-2.39-1.56 0-3.08 0.55-4.28 1.55-1.37 1.14-2.21 2.75-2.37 4.53s0.38 3.51 1.53 4.88l13.01 15.42c0.26 0.4 0.54 0.75 0.85 1.06 1.07 1.07 2.44 1.72 3.97 1.89 0.15 0.02 0.3 0.03 0.46 0.04h0.03 0.03 0.21 0.25c1.54-0.03 2.97-0.57 4.13-1.53 0.34-0.28 0.65-0.6 0.94-0.98l4.68-4.64 4.71 16.52c0.08 0.29-0.04 0.61-0.3 0.77l-17.14 10.37c-0.11 0.07-0.21 0.14-0.29 0.19-0.21 0.14-0.38 0.28-0.51 0.38l-0.08 0.06c-0.16 0.13-0.32 0.26-0.47 0.4-0.2 0.19-0.35 0.37-0.45 0.49l-0.1 0.12c-0.1 0.12-0.25 0.29-0.41 0.51s-0.27 0.43-0.34 0.56l-0.08 0.14c-0.07 0.13-0.19 0.32-0.29 0.57-0.11 0.25-0.19 0.49-0.24 0.64l-0.04 0.14c-0.07 0.2-0.13 0.4-0.18 0.61s-0.08 0.41-0.1 0.63l-0.01 0.07c-0.03 0.19-0.05 0.4-0.07 0.64-0.01 0.1-0.02 0.21-0.02 0.35 0 0.25 0.03 0.45 0.04 0.57 0.01 0.2 0.03 0.46 0.08 0.74 0.05 0.3 0.12 0.55 0.17 0.73l0.02 0.07c0.06 0.21 0.12 0.42 0.2 0.62 0.11 0.28 0.23 0.52 0.34 0.73 0.05 0.11 0.13 0.28 0.24 0.47 0.07 0.11 0.13 0.2 0.19 0.27 0.16 0.24 0.32 0.43 0.43 0.57l0.04 0.05c0.12 0.15 0.24 0.3 0.37 0.43 0.21 0.21 0.4 0.37 0.53 0.49l0.1 0.1c0.16 0.14 0.31 0.27 0.48 0.38 0.24 0.16 0.46 0.29 0.6 0.36l0.07 0.04 0.06 0.04c0.18 0.1 0.35 0.2 0.54 0.28 0.26 0.12 0.5 0.19 0.66 0.24l0.14 0.04c0.19 0.07 0.39 0.13 0.59 0.17 0.26 0.06 0.49 0.09 0.63 0.1l0.07 0.01c0.19 0.03 0.4 0.05 0.63 0.07 0.1 0.01 0.21 0.02 0.35 0.02h34.01c2.14 0 4.19-0.91 5.62-2.49 1.44-1.58 2.14-3.71 1.94-5.85-0.37-3.85-3.78-6.86-7.76-6.86h-6.32c0.96-0.57 1.64-0.97 1.82-1.07 4.9-2.63 7.27-7.7 5.91-12.64l-7.81-27.13c-1.3-4.66-5.61-7.95-10.49-7.95z"/></g><g opacity=".2"><path d="m64 16c1.22 0 2.45 0.15 3.64 0.45l42.09 11.27c1.61 0.4 2.58 2.03 2.18 3.64-0.34 1.36-1.56 2.27-2.91 2.27-0.24 0-0.48-0.03-0.73-0.09l-42.09-11.27c-0.71-0.18-1.45-0.27-2.18-0.27s-1.47 0.09-2.18 0.27l-42.09 11.27c-0.24 0.06-0.49 0.09-0.73 0.09-1.34 0-2.57-0.91-2.91-2.27-0.4-1.61 0.58-3.24 2.18-3.64l42.09-11.27c1.19-0.3 2.42-0.45 3.64-0.45m0-3c-1.47 0-2.94 0.18-4.37 0.54l-0.04 0.02-42.07 11.25c-1.54 0.39-2.84 1.36-3.66 2.73s-1.06 2.99-0.68 4.54c0.67 2.68 3.06 4.55 5.82 4.55 0.49 0 0.98-0.06 1.46-0.18l0.04-0.02 42.09-11.27c0.43-0.1 0.92-0.16 1.41-0.16s0.98 0.06 1.45 0.18l42.04 11.26 0.06 0.02c0.48 0.12 0.97 0.18 1.45 0.18 2.76 0 5.15-1.87 5.82-4.54 0.39-1.56 0.15-3.17-0.68-4.54-0.82-1.37-2.12-2.33-3.66-2.73l-42.07-11.28-0.04-0.02c-1.43-0.35-2.9-0.53-4.37-0.53z" fill="#424242"/></g><g fill="#FAFAFA"><circle cx="63.21" cy="43" r="9"/><path d="m87.5 102.8h-15.24c-0.57 0-0.78-0.75-0.29-1.05 0 0 9.51-5.61 9.57-5.64 3.4-1.8 5.53-5.42 4.47-9.23l-7.8-27.09c-1.16-4.2-5.5-6.66-9.7-5.5-1 0.27-1.94 0.69-3.28 1.76-0.26 0.21-0.51 0.44-0.75 0.68l-10.24 10.13c-0.76 0.76-2.01 0.7-2.7-0.12l-9.62-11.4c-1.3-1.56-3.62-1.77-5.18-0.47s-1.77 3.62-0.47 5.18l13.13 15.58c0.15 0.25 0.32 0.49 0.54 0.71 0.62 0.62 1.4 0.95 2.21 1.04 0.09 0.01 0.18 0.02 0.27 0.03h0.27c0.81-0.01 1.62-0.28 2.29-0.84 0.23-0.2 0.43-0.42 0.6-0.66l7.33-7.27c0.5-0.49 1.34-0.27 1.53 0.4l5.68 19.9c0.46 1.6-0.21 3.3-1.63 4.16l-17.14 10.37c-0.03 0.02-0.06 0.05-0.09 0.07-0.14 0.09-0.27 0.2-0.4 0.3-0.11 0.09-0.22 0.17-0.32 0.26-0.11 0.1-0.2 0.22-0.3 0.33s-0.2 0.22-0.28 0.34c-0.09 0.12-0.15 0.26-0.23 0.39-0.07 0.13-0.15 0.25-0.21 0.38-0.06 0.14-0.1 0.29-0.15 0.43-0.04 0.14-0.1 0.27-0.13 0.41s-0.04 0.28-0.06 0.42c-0.02 0.16-0.04 0.32-0.05 0.49 0 0.04-0.01 0.07-0.01 0.11 0 0.1 0.02 0.2 0.03 0.3 0.01 0.16 0.02 0.33 0.05 0.49s0.07 0.3 0.11 0.45c0.04 0.14 0.07 0.27 0.13 0.41 0.06 0.17 0.15 0.32 0.23 0.48 0.04 0.08 0.07 0.17 0.12 0.25 0.02 0.03 0.04 0.05 0.06 0.08 0.1 0.15 0.21 0.29 0.32 0.43 0.08 0.1 0.16 0.2 0.24 0.29 0.11 0.12 0.24 0.21 0.36 0.32 0.11 0.09 0.21 0.18 0.32 0.26 0.13 0.09 0.27 0.16 0.41 0.24 0.12 0.07 0.23 0.14 0.36 0.19 0.14 0.06 0.3 0.11 0.45 0.16 0.13 0.04 0.26 0.09 0.4 0.12s0.28 0.04 0.43 0.06c0.16 0.02 0.32 0.04 0.48 0.05 0.04 0 0.07 0.01 0.11 0.01h33.97c2.69 0 4.84-2.31 4.58-5.05-0.23-2.38-2.38-4.14-4.78-4.14z"/></g><path d="m19 33.63c-1.34 0-2.57-0.91-2.91-2.27-0.4-1.61 0.58-3.24 2.18-3.64l42.09-11.27c2.38-0.59 4.9-0.59 7.28 0l42.09 11.27c1.61 0.4 2.58 2.03 2.18 3.64s-2.03 2.58-3.64 2.18l-42.09-11.27c-1.43-0.36-2.94-0.36-4.37 0l-42.08 11.27c-0.25 0.06-0.49 0.09-0.73 0.09z" fill="#FAFAFA"/></svg>
