<?xml version="1.0" encoding="utf-8"?>
<!-- Generator: Adobe Illustrator 16.0.0, SVG Export Plug-In . SVG Version: 6.00 Build 0)  -->
<!DOCTYPE svg PUBLIC "-//W3C//DTD SVG 1.1//EN" "http://www.w3.org/Graphics/SVG/1.1/DTD/svg11.dtd">
<svg version="1.1" id="レイヤー_1" xmlns="http://www.w3.org/2000/svg" xmlns:xlink="http://www.w3.org/1999/xlink" x="0px"
	 y="0px" width="128px" height="128px" viewBox="0 0 128 128" enable-background="new 0 0 128 128" xml:space="preserve">
<g>
	<path fill="#FFFFFF" d="M71.22,15.17c3.15-0.88,6.53,0.08,7.7,4.09c0.55,1.85,2.42,7.49,4.31,13.15c0.32,0.98,2.15,7.97,2.31,8.36
		c1.04,2.47,1.91,5.02,2.53,7.62c0.53,2.27,0.75,4.48,0.67,6.62c-5.28-4.83-9.27-7.67-9.38-7.74c-2.38-1.64-4.67-2.83-6.44-3.34
		c-1.04-0.3-2.05-0.48-3.03-0.58c1.61-2.21,3.34-3.89,2.04-8.36c-2.04-5.45-3.85-10.53-4.12-11.6
		C67.23,21.03,67.73,16.15,71.22,15.17z"/>
	<path fill="#FFFFFF" d="M9.91,33.52c0.92-2.95,4.38-5.1,7.94-3.42c3.08,1.45,20.05,9.01,25.61,11.55
		c-0.22,0.38-0.45,0.77-0.66,1.15c-1.24,2.13-2.26,4.39-3.05,6.72c-7.12-2.08-24.18-8.06-25.96-8.99
		C11.78,39.47,8.95,36.67,9.91,33.52z"/>
	<path fill="#FFFFFF" d="M7.66,50.33c0.85-2.98,3.6-5.42,7.35-4.2c2.76,0.9,15.15,4.74,23.66,7.24c-0.5,2.2-0.79,4.45-0.9,6.7
		c-0.04,0.94-0.07,1.88-0.05,2.83c-5.3-1.18-24.03-5.39-25.41-5.9C10.17,56.19,6.79,53.42,7.66,50.33z"/>
	<path fill="#FFFFFF" d="M16.02,73.69c-2.22-0.56-5.74-2.54-5.42-5.95c0.28-3.08,3.05-5.95,6.9-5.15
		c2.29,0.47,11.56,2.45,20.56,4.01c0.21,1.12,1.02,4.63,2.51,3.38c0.53-0.45,0.43-1.44,0.47-2.07c0.07-0.97,0.15-1.93,0.27-2.89
		c0.31-2.8,0.82-5.57,1.49-8.3c0.72-2.97,1.6-5.89,2.61-8.77c1.05-3,2.24-5.82,3.72-8.61c0.3-0.58,1.17-2.28,0.6-2.88
		c-0.28-0.3-0.7-0.26-1.12-0.07c-0.81,0.35-1.71,1.25-2.05,1.55c-0.27,0.25-0.53,0.53-0.8,0.8c-6.75-3.19-22.69-11.64-24.31-12.79
		c-1.87-1.34-4.75-4.41-2.79-7.68c1.58-2.65,4.34-4.35,8.22-2.12c3.3,1.9,20.52,12.34,22.81,13.81c1.45,0.89,5.35,3.31,5.55,3.4
		c2.76,1.22,5.47,2.58,8.09,4.06c1.1,0.62,2.3,1.14,3.23,2.02c1.25,1.2-0.15,2.59-0.58,3.9c0,0.02-0.01,0.03-0.02,0.05
		c-3.17,0.52-5.74,2.2-7.27,4.85c-2.57,0.02-4.94,1.01-6.88,2.86c-1.03,0.99-3.49,3.8-3.2,7.98c-0.57,0.34-1.16,0.78-1.75,1.32
		c-3.77,3.49-3.75,8.75-1.94,13.14c-0.34,0.26-0.65,0.55-0.96,0.87c-0.72,0.76-1.31,1.73-1.74,2.87c-2.28-0.44-3.62-0.58-3.62-0.58
		C31.4,76,17.75,74.12,16.02,73.69z"/>
	<path fill="#FFFFFF" d="M112.54,105.31c-4.5,7.09-13.23,12-18.88,12.5c-12.46,1.1-19.1-3.42-21.03-4.52
		c-9.93-5.67-17.11-14.64-20.75-19.86c-1.99-2.88-3.12-5.5-3.67-7.73c-0.9-3.58-0.34-6.11,0.38-6.86l0,0
		c1.17-1.22,1.95-0.34,1.95-0.34h0c0.2,0.36,0.44,0.76,0.66,1.15c1.3,2.23,3.02,4.87,5.11,7.56c2.05,2.64,4.44,5.3,7.18,7.61
		c0.34,0.29,0.76,0.42,1.17,0.42c0.51,0,1.03-0.22,1.39-0.65c0.65-0.77,0.54-1.91-0.22-2.55c-1.74-1.47-3.36-3.11-4.82-4.81
		c-1.91-2.21-3.57-4.5-4.93-6.61c-2.89-4.43-4.51-7.99-4.54-8.06c0,0-3-5.01-0.35-7.46c1.36-1.27,2.23-0.84,2.67-0.41l0.33,0.41v0
		l0,0c2.07,2.59,7.19,8.94,12.45,14.93c1.62,1.85,3.26,3.66,4.83,5.32c0.35,0.38,0.82,0.56,1.3,0.56l0.02,0
		c0.26,0,0.51-0.08,0.76-0.19c0.17-0.08,0.34-0.17,0.48-0.3c0.73-0.69,0.76-1.84,0.08-2.57c-1.1-1.16-2.24-2.4-3.37-3.68
		c-6.36-7.12-12.9-15.32-14.34-17.14c-1.38-2.02-2.33-4.27-0.2-6.31c2.58-2.46,5.46,0,5.46,0c0.1,0.1,9.33,9.07,17.2,18.63
		c0.68,0.84,1.37,1.68,2.02,2.52c0.36,0.45,0.9,0.69,1.43,0.69c0.39,0,0.79-0.12,1.12-0.39c0.78-0.62,0.92-1.76,0.29-2.55
		c-0.74-0.95-1.5-1.89-2.27-2.83c-7.25-8.78-15.53-16.98-17.01-18.44c-0.38-0.52-0.64-1.18-0.29-1.83c0.35-0.65,0.93-1.21,1.75-1.56
		c0.36-0.15,0.76-0.26,1.21-0.33c1.06-0.16,2.37-0.07,4.01,0.4c0.79,0.23,2.45,0.98,4.6,2.47c0.1,0.06,5.28,3.76,11.58,9.92
		c0.51,0.51,1.04,1.02,1.57,1.57l3.82,4.09c0.17,0.18,0.33,0.38,0.49,0.56c3.18,3.64,6.35,7.75,9.05,12.26
		c0.34,0.57,0.94,0.88,1.56,0.88c0.32,0,0.64-0.08,0.92-0.26c0.85-0.52,1.14-1.63,0.63-2.49c-3.25-5.41-7.07-10.22-10.83-14.35
		c-0.32-0.36-0.65-0.75-0.97-1.1l0.02,0c-1.59-2.25-0.45-3.91,0.88-4.35c0.31-0.1,0.62-0.14,0.93-0.19c3.26-0.48,6.85,1.8,8.42,2.93
		c1.91,1.35,3.79,3.22,5.97,5.98c6.98,8.84,6.97,22.21,6.97,22.21S116.62,98.89,112.54,105.31z"/>
	<g>
		<path fill="#F79329" d="M97.07,26.16c0.51-0.23,0.87-0.81,1.17-1.37c0.16-0.3,0.31-0.59,0.46-0.82c0.92-1.48,1.85-2.95,2.76-4.43
			c2.08-3.36,4.13-6.75,6.34-10.01c1.43-2.1,4.41-5.23,0.62-6.55c-0.32-0.11-0.65-0.2-1-0.29c-2.78-0.73-5.52-1.88-8.41-2.19
			c-0.9-0.1-1.86,0.72-2.06,1.57c-0.76,3.38-0.83,6.85-0.89,10.3c-0.06,3.24-0.38,6.4-0.6,9.62c0,0.04-0.01,0.08-0.02,0.12
			c-0.06,0.91-0.19,1.98-0.03,2.86C95.56,25.68,96.3,26.52,97.07,26.16z"/>
		<path fill="#F79329" d="M126.74,38.97c-0.17-1.05-0.33-2.11-0.6-3.14c-0.28-1.08-0.97-1.75-1.54-2.67
			c-0.39-0.61-0.54-0.82-1.3-0.73c-0.64,0.08-1.23,0.25-1.81,0.49c-1.85,0.76-3.45,2.16-5.19,3.09c-2.24,1.2-4.29,2.75-6.57,3.88
			c-1.55,0.76-3.16,1.78-4.54,2.78c-1.05,0.76-0.85,2.24,0.56,2.33c2.26,0.13,4.59-0.07,6.85-0.07c2.15,0,4.16-0.36,6.28-0.54
			c1.8-0.15,3.57-0.38,5.33-0.71c0.63-0.12,1.38-0.11,1.95-0.35C127.81,42.64,126.96,40.28,126.74,38.97z"/>
		<path fill="#F79329" d="M32.65,89l-0.18-0.12c-0.53-0.28-1.55-0.05-2.11,0.04c-2.67,0.4-5.25,1.04-7.88,1.65
			c-4.76,1.1-9.53,1.88-14.14,3.57c-1.02,0.37-1.43,1.24-1.41,2.1c-0.06,0.29-0.05,0.61,0.11,0.95c1.12,2.52,2.5,9,6.31,9
			c1.63,0,3.39-1.85,4.58-2.79c0.98-0.79,2.05-1.46,3-2.29c1.02-0.89,1.9-1.91,2.95-2.76c2.06-1.65,4.14-3.28,6.13-5
			C30.6,92.83,34.16,90.12,32.65,89z"/>
		<path fill="#F79329" d="M43.08,102.66c-0.81-0.08-1.78,1.01-2.28,1.52c-2.93,3.03-5.38,6.48-7.78,9.94c-1.1,1.6-6.23,7.1-4.07,9.1
			c2.33,2.16,5.67,3.23,8.72,3.86c1.15,0.24,3.47,0.98,4.28-0.27c0.3-0.46,0.25-1.34,0.36-1.88c0.13-0.6,0.03-1.23,0.13-1.83
			c0.15-0.75,0.21-1.51,0.32-2.27c0.22-1.62,0.32-3.24,0.53-4.85c0.45-3.36,0.68-6.75,0.73-10.15c0.02-0.4,0.1-1.18,0.02-1.86
			C43.96,103.29,43.72,102.72,43.08,102.66z"/>
		<path fill="#D7598B" d="M107.5,56.79c-4.23-3.02-8.35-4.4-12.08-4.15c-0.02-0.39-0.03-0.78-0.07-1.16
			c-0.1-1.12-0.28-2.24-0.51-3.35c-0.74-3.66-3.83-13.8-4.34-15.72c-1.57-5.96-4.72-13.53-5.17-15.03
			c-2.05-7.01-8.74-10.65-15.91-8.63c-2.38,0.67-4.41,2.1-5.88,4.13c-2.68,3.68-3.04,8.74-2.19,12.11c0.16,0.63,0.57,1.87,1.08,3.34
			c0.56,1.62-1.43,0.29-4.15-0.93c-0.96-0.57-3.88-2.38-4.98-3.06c-2.34-1.52-19.58-11.96-23.08-13.98
			c-4.72-2.71-9.71-2.55-13.69,0.43c-1.4,1.05-2.6,2.4-3.58,4.04c-1.59,2.67-1.96,5.67-1.21,8.53c-3.69,1.15-6.99,4.35-8.18,8.19
			c-1.17,3.79-0.16,7.46,1.93,10.36c-1.98,1.66-3.48,3.98-4.23,6.58c-1.41,4.96,1.07,9.69,4.9,12.61c-1.22,1.77-2,3.84-2.2,6.03
			C3.3,74.11,8.91,78.78,14.4,80.16c2.48,0.62,16.94,2.54,23.53,3.2c0,0,1.36,0.15,3.53,0.6c0.36,3.92,1.94,8.49,5.18,13.14
			c4.6,6.6,12.29,15.74,22.83,21.76l0.34,0.2c2.47,1.45,9.01,5.33,20.05,5.33c1.42,0,2.9-0.06,4.36-0.2
			c7.16-0.63,17.91-6.26,23.73-15.45c4.91-7.73,5.18-17.38,5.2-18.54c0-0.63-0.06-15.71-8.35-26.18
			C112.26,60.81,109.93,58.52,107.5,56.79z M71.22,15.17c3.15-0.88,6.53,0.08,7.7,4.09c0.55,1.85,2.42,7.49,4.31,13.15
			c0.32,0.98,2.15,7.97,2.31,8.36c1.04,2.47,1.91,5.02,2.53,7.62c0.53,2.27,0.75,4.48,0.67,6.62c-5.28-4.83-9.27-7.67-9.38-7.74
			c-2.38-1.64-4.67-2.83-6.44-3.34c-1.04-0.3-2.05-0.48-3.03-0.58c1.61-2.21,3.34-3.89,2.04-8.36c-2.04-5.45-3.85-10.53-4.12-11.6
			C67.23,21.03,67.73,16.15,71.22,15.17z M9.91,33.52c0.92-2.95,4.38-5.1,7.94-3.42c3.08,1.45,20.05,9.01,25.61,11.55
			c-0.22,0.38-0.45,0.77-0.66,1.15c-1.24,2.13-2.26,4.39-3.05,6.72c-7.12-2.08-24.18-8.06-25.96-8.99
			C11.78,39.47,8.95,36.67,9.91,33.52z M7.66,50.33c0.85-2.98,3.6-5.42,7.35-4.2c2.76,0.9,15.15,4.74,23.66,7.24
			c-0.5,2.2-0.79,4.45-0.9,6.7c-0.04,0.94-0.07,1.88-0.05,2.83c-5.3-1.18-24.03-5.39-25.41-5.9C10.17,56.19,6.79,53.42,7.66,50.33z
			 M16.02,73.69c-2.22-0.56-5.74-2.54-5.42-5.95c0.28-3.08,3.05-5.95,6.9-5.15c2.29,0.47,11.56,2.45,20.56,4.01
			c0.21,1.12,1.02,4.63,2.51,3.38c0.53-0.45,0.43-1.44,0.47-2.07c0.07-0.97,0.15-1.93,0.27-2.89c0.31-2.8,0.82-5.57,1.49-8.3
			c0.72-2.97,1.6-5.89,2.61-8.77c1.05-3,2.24-5.82,3.72-8.61c0.3-0.58,1.17-2.28,0.6-2.88c-0.28-0.3-0.7-0.26-1.12-0.07
			c-0.81,0.35-1.71,1.25-2.05,1.55c-0.27,0.25-0.53,0.53-0.8,0.8c-6.75-3.19-22.69-11.64-24.31-12.79
			c-1.87-1.34-4.75-4.41-2.79-7.68c1.58-2.65,4.34-4.35,8.22-2.12c3.3,1.9,20.52,12.34,22.81,13.81c1.45,0.89,5.35,3.31,5.55,3.4
			c2.76,1.22,5.47,2.58,8.09,4.06c1.1,0.62,2.3,1.14,3.23,2.02c1.25,1.2-0.15,2.59-0.58,3.9c0,0.02-0.01,0.03-0.02,0.05
			c-3.17,0.52-5.74,2.2-7.27,4.85c-2.57,0.02-4.94,1.01-6.88,2.86c-1.03,0.99-3.49,3.8-3.2,7.98c-0.57,0.34-1.16,0.78-1.75,1.32
			c-3.77,3.49-3.75,8.75-1.94,13.14c-0.34,0.26-0.65,0.55-0.96,0.87c-0.72,0.76-1.31,1.73-1.74,2.87c-2.28-0.44-3.62-0.58-3.62-0.58
			C31.4,76,17.75,74.12,16.02,73.69z M112.54,105.31c-4.5,7.09-13.23,12-18.88,12.5c-12.46,1.1-19.1-3.42-21.03-4.52
			c-9.93-5.67-17.11-14.64-20.75-19.86c-1.99-2.88-3.12-5.5-3.67-7.73c-0.9-3.58-0.34-6.11,0.38-6.86l0,0
			c1.17-1.22,1.95-0.34,1.95-0.34h0c0.2,0.36,0.44,0.76,0.66,1.15c1.3,2.23,3.02,4.87,5.11,7.56c2.05,2.64,4.44,5.3,7.18,7.61
			c0.34,0.29,0.76,0.42,1.17,0.42c0.51,0,1.03-0.22,1.39-0.65c0.65-0.77,0.54-1.91-0.22-2.55c-1.74-1.47-3.36-3.11-4.82-4.81
			c-1.91-2.21-3.57-4.5-4.93-6.61c-2.89-4.43-4.51-7.99-4.54-8.06c0,0-3-5.01-0.35-7.46c1.36-1.27,2.23-0.84,2.67-0.41l0.33,0.41v0
			l0,0c2.07,2.59,7.19,8.94,12.45,14.93c1.62,1.85,3.26,3.66,4.83,5.32c0.35,0.38,0.82,0.56,1.3,0.56l0.02,0
			c0.26,0,0.51-0.08,0.76-0.19c0.17-0.08,0.34-0.17,0.48-0.3c0.73-0.69,0.76-1.84,0.08-2.57c-1.1-1.16-2.24-2.4-3.37-3.68
			c-6.36-7.12-12.9-15.32-14.34-17.14c-1.38-2.02-2.33-4.27-0.2-6.31c2.58-2.46,5.46,0,5.46,0c0.1,0.1,9.33,9.07,17.2,18.63
			c0.68,0.84,1.37,1.68,2.02,2.52c0.36,0.45,0.9,0.69,1.43,0.69c0.39,0,0.79-0.12,1.12-0.39c0.78-0.62,0.92-1.76,0.29-2.55
			c-0.74-0.95-1.5-1.89-2.27-2.83c-7.25-8.78-15.53-16.98-17.01-18.44c-0.38-0.52-0.64-1.18-0.29-1.83
			c0.35-0.65,0.93-1.21,1.75-1.56c0.36-0.15,0.76-0.26,1.21-0.33c1.06-0.16,2.37-0.07,4.01,0.4c0.79,0.23,2.45,0.98,4.6,2.47
			c0.1,0.06,5.28,3.76,11.58,9.92c0.51,0.51,1.04,1.02,1.57,1.57l3.82,4.09c0.17,0.18,0.33,0.38,0.49,0.56
			c3.18,3.64,6.35,7.75,9.05,12.26c0.34,0.57,0.94,0.88,1.56,0.88c0.32,0,0.64-0.08,0.92-0.26c0.85-0.52,1.14-1.63,0.63-2.49
			c-3.25-5.41-7.07-10.22-10.83-14.35c-0.32-0.36-0.65-0.75-0.97-1.1l0.02,0c-1.59-2.25-0.45-3.91,0.88-4.35
			c0.31-0.1,0.62-0.14,0.93-0.19c3.26-0.48,6.85,1.8,8.42,2.93c1.91,1.35,3.79,3.22,5.97,5.98c6.98,8.84,6.97,22.21,6.97,22.21
			S116.62,98.89,112.54,105.31z"/>
	</g>
</g>
</svg>
