<svg enable-background="new 0 0 128 128" viewBox="0 0 128 128" xmlns="http://www.w3.org/2000/svg"><radialGradient id="a" cx="67.851" cy="4325.4" r="76.735" gradientTransform="matrix(.9985 0 0 .9337 -4.3355 -4037.2)" gradientUnits="userSpaceOnUse"><stop stop-color="#fff" offset=".4763"/><stop stop-color="#E0E0E0" offset=".8779"/></radialGradient><path d="m93.9 9.1c-21.9 0-30 26.2-30 26.2s-8-26.2-30-26.2c-16.6 0-35.5 13.1-28.5 43s58.3 67 58.3 67 0.3-0.1 0.3-0.3c0 0.2 0.2 0.2 0.2 0.2s51.3-37.1 58.3-66.9c6.9-29.9-12-43-28.6-43z" fill="url(#a)"/><g opacity=".2"><path d="m93.9 12.1c8.4 0 16.4 3.7 21.2 9.8 5.7 7.1 7.2 17.4 4.3 29.5-6 25.6-47.1 57.7-55.6 64.1-8.4-6.4-49.5-38.5-55.5-64.1-2.8-12.1-1.3-22.3 4.3-29.5 4.9-6.1 12.8-9.8 21.3-9.8 19.5 0 27.1 23.8 27.2 24.1l2.8 9.4 2.9-9.3c0.1-0.4 7.7-24.2 27.1-24.2m0-3c-21.9 0-30 26.2-30 26.2s-8-26.2-30-26.2c-16.6 0-35.5 13.1-28.5 43s58.3 67 58.3 67 0.3-0.1 0.3-0.3c0 0.2 0.2 0.2 0.2 0.2s51.3-37.1 58.3-66.9c6.9-29.9-12-43-28.6-43z" fill="#424242"/></g></svg>
