<svg width="128" height="128" style="enable-background:new 0 0 128 128;" xmlns="http://www.w3.org/2000/svg" xmlns:xlink="http://www.w3.org/1999/xlink">
  <g>
    <linearGradient id="SVGID_1_" gradientUnits="userSpaceOnUse" x1="64" x2="64" y1="4.25" y2="123.9133">
      <stop offset="0" style="stop-color:#FFAB40"/>
      <stop offset="1" style="stop-color:#FF6D00"/>
    </linearGradient>
    <path d="M116,124H12c-4.42,0-8-3.58-8-8V12c0-4.42,3.58-8,8-8h104c4.42,0,8,3.58,8,8v104 C124,120.42,120.42,124,116,124z" style="fill:url(#SVGID_1_);"/>
    <g style="opacity:0.2;">
      <path d="M116,7c2.76,0,5,2.24,5,5v104c0,2.76-2.24,5-5,5H12c-2.76,0-5-2.24-5-5V12c0-2.76,2.24-5,5-5H116 M116,4H12c-4.42,0-8,3.58-8,8v104c0,4.42,3.58,8,8,8h104c4.42,0,8-3.58,8-8V12C124,7.58,120.42,4,116,4L116,4z" style="fill:#424242;"/>
    </g>
    <g style="opacity:0.2;">
      <path d="M101.96,36c1.06,0,2.04,0.98,2.04,2.34V64v25.66c0,1.36-0.98,2.34-2.04,2.34 c-0.34,0-0.68-0.1-1.01-0.31L62.03,66.03c-1.37-0.9-1.37-3.16,0-4.05l38.93-25.66C101.28,36.1,101.62,36,101.96,36 M101.96,33 c-0.93,0-1.85,0.28-2.65,0.8L60.38,59.47C58.89,60.44,58,62.14,58,64s0.89,3.56,2.38,4.54L99.3,94.19 c0.81,0.53,1.73,0.81,2.66,0.81c2.78,0,5.04-2.39,5.04-5.34V64V38.34C107,35.39,104.74,33,101.96,33L101.96,33z" style="fill:#424242;"/>
      <path d="M61.91,36C63,36,64,36.98,64,38.34V64v25.66c0,1.36-1,2.34-2.09,2.34c-0.34,0-0.7-0.1-1.03-0.31 L21.05,66.03c-1.4-0.9-1.4-3.16,0-4.05l39.83-25.66C61.21,36.1,61.57,36,61.91,36 M61.91,33c-0.93,0-1.85,0.27-2.65,0.78 L19.43,59.45C17.91,60.42,17,62.12,17,64s0.91,3.58,2.43,4.55l39.82,25.66c0.81,0.52,1.73,0.79,2.66,0.79 c2.81,0,5.09-2.39,5.09-5.34V64V38.34C67,35.39,64.72,33,61.91,33L61.91,33z" style="fill:#424242;"/>
    </g>
    <g>
      <path d="M104,64V38.34c0-1.79-1.69-2.91-3.05-2.03L62.03,61.97c-1.37,0.9-1.37,3.16,0,4.05l38.93,25.66 c1.36,0.89,3.05-0.23,3.05-2.03V64z" style="fill:#FAFAFA;"/>
      <path d="M64,64V38.34c0-1.79-1.73-2.91-3.12-2.03L21.05,61.97c-1.4,0.9-1.4,3.16,0,4.05l39.83,25.66 c1.39,0.89,3.12-0.23,3.12-2.03V64z" style="fill:#FAFAFA;"/>
    </g>
  </g>
</svg>