<svg enable-background="new 0 0 128 128" viewBox="0 0 128 128" xmlns="http://www.w3.org/2000/svg"><linearGradient id="b" x1="68.237" x2="81.487" y1="46.34" y2="121.84" gradientUnits="userSpaceOnUse"><stop stop-color="#8D6E63" offset="0"/><stop stop-color="#5D4037" offset=".9977"/></linearGradient><path d="m58.67 37c19.6 34.92 10.83 84 10.83 84s1.74 2.79 9.17 3.04c6.17 0.21 9.33-2.69 9.33-2.71 3.95-42.91-11.75-77.17-22.33-86.33 0.04 0-5.76 0.61-7 2z" fill="url(#b)"/><g opacity=".2"><path d="m64.67 38.17c9.35 9.33 23.83 40.84 20.47 81.51-1.02 0.57-2.98 1.38-5.83 1.38-0.18 0-0.35 0-0.54-0.01-3.28-0.11-5.11-0.76-6.04-1.25 0.59-3.99 1.91-14.45 1.7-27.74-0.23-14.72-2.46-35.6-11.56-53.56 0.5-0.11 1.09-0.23 1.8-0.33m1-3.17zm0 0c-0.03 0.01-5.77 0.62-7 2 19.6 34.92 10.83 84 10.83 84s1.74 2.79 9.17 3.04c0.22 0.01 0.43 0.01 0.64 0.01 5.75 0 8.69-2.7 8.7-2.72 3.94-42.91-11.76-77.17-22.34-86.33z" fill="#424242"/></g><linearGradient id="a" x1="18.21" x2="108.08" y1="9.8531" y2="89.347" gradientUnits="userSpaceOnUse"><stop stop-color="#9CCC65" offset="0"/><stop stop-color="#689F38" offset=".9952"/></linearGradient><path d="m68.5 29c25.02-21.31 54 4.75 54 4.75 0-5.75-10.38-27.14-32.38-27-19.37 0.13-22.29 11.08-26.45 16.25-5-30.5-40.04-14.5-37.17-10.67 2.54 3.39 21.75-1.29 29.25 12.54-5.29-3.85-17.91-8.83-33.25-3.5-15.83 5.51-18.27 26.44-16.83 28.8 0 0 21.02-25.6 48.83-19.17-63.62 9.25-35.75 56.75-35.75 56.75 5.75-25.25 27.63-44.25 39.5-50.63-28.88 27-15.38 61 7.25 61.38-3.12-10.62-11.25-34.25 0.5-61 1.25 0.5 29.25 7.5 50 40.75 0 0 16.5-55.13-47.5-49.25z" fill="url(#a)"/><g opacity=".2"><path d="m44.12 7.72c9.29 0 14.87 5.31 16.58 15.77 0.19 1.17 1.05 2.11 2.19 2.42 0.25 0.07 0.51 0.1 0.77 0.1 0.89 0 1.76-0.4 2.34-1.12 0.83-1.03 1.57-2.19 2.36-3.42 3.48-5.45 7.43-11.62 21.79-11.72h0.2c10.69 0 17.87 5.62 22.02 10.33 1.64 1.87 2.98 3.78 4.03 5.58-6.25-3.8-15.55-8.04-25.91-8.04-8.79 0-16.84 3.06-23.93 9.1-1 0.85-1.33 2.24-0.82 3.45 0.47 1.11 1.56 1.83 2.76 1.83 0.09 0 0.18 0 0.28-0.01 3.08-0.28 6.05-0.43 8.83-0.43 14.94 0 25.54 4.05 31.5 12.04 6.33 8.48 6.25 19.79 5.34 26.93-17.45-24.34-38.4-33.03-47.05-35.73-0.15-0.05-0.27-0.08-0.34-0.11-0.35-0.13-0.71-0.19-1.06-0.19-1.16 0-2.26 0.67-2.75 1.79-10.75 24.47-5.47 46.52-1.94 58.66-6.46-1.6-11.85-6.56-14.6-13.7-2.3-5.98-2.53-12.78-0.66-19.65 2.15-7.87 7.07-15.57 14.24-22.28 1.1-1.03 1.27-2.72 0.39-3.94-0.58-0.81-1.5-1.25-2.44-1.25-0.48 0-0.97 0.12-1.42 0.36-11.88 6.38-30.61 22.93-38.63 44.62-2.28-6.52-4.29-16.47-0.03-25.31 4.98-10.33 17.35-17 36.75-19.82 1.43-0.21 2.51-1.4 2.57-2.84s-0.92-2.72-2.32-3.05c-3.2-0.74-6.46-1.11-9.71-1.11-16.34 0-29.39 9.2-36.43 15.52 1.45-6.26 5.37-15.12 14.45-18.27 4.13-1.43 8.32-2.16 12.47-2.16 7.98 0 14.54 2.71 18.03 5.25 0.53 0.38 1.15 0.58 1.77 0.58 0.71 0 1.41-0.25 1.98-0.74 1.06-0.92 1.33-2.45 0.66-3.69-5.8-10.7-17.64-11.78-24.71-12.43-0.62-0.06-1.32-0.12-2-0.19 2.76-1.48 7.38-3.13 12.45-3.13m0-3c-9.79 0-19.16 5.56-17.62 7.62 2.54 3.39 21.75-1.29 29.25 12.54-3.63-2.65-10.73-5.83-19.79-5.83-4.13 0-8.66 0.66-13.46 2.33-15.83 5.5-18.27 26.43-16.83 28.79 0 0 16.59-20.2 39.8-20.2 2.92 0 5.93 0.32 9.04 1.04-63.62 9.25-35.75 56.75-35.75 56.75 5.74-25.26 27.62-44.26 39.49-50.64-28.88 27-15.38 61 7.25 61.38-3.12-10.62-11.25-34.25 0.5-61 1.25 0.5 29.25 7.5 50 40.75 0 0 14.87-49.69-38.39-49.69-2.84 0-5.87 0.14-9.11 0.44 7.26-6.18 14.86-8.38 21.98-8.38 17.42 0 32.02 13.13 32.02 13.13 0-5.73-10.31-27-32.16-27h-0.22c-19.37 0.13-22.29 11.08-26.45 16.25-2.32-14.13-11.09-18.28-19.55-18.28z" fill="#424242"/></g><path d="m73 76c0.15-0.09 0.27-0.08 0.44-0.14 0.24-0.07 0.47-0.25 0.69-0.37 0.71-0.39 1.45-0.72 2.21-1 0.84-0.31 1.73-0.44 2.56-0.75 0.18-0.07 0.38-0.18 0.48-0.33-0.2 0.11-0.35 0.32-0.49 0.48-0.54 0.63-1.11 1.24-1.64 1.89-0.22 0.22-0.4 0.48-0.53 0.76-0.08 0.15-0.15 0.3-0.21 0.46-0.17 0.2-0.29 0.13-0.49 0.03-0.59-0.28-1.24-0.61-1.87-0.76-0.27-0.06-0.96-0.19-1.15-0.27z" fill="none"/><polygon points="70.09 56.49 76.42 56.48 72.64 58.86" fill="#A1887F"/><polygon points="71.86 67.5 79.36 67.17 74.99 70.17" fill="#A1887F"/><polygon points="76.02 78.85 81.98 76.69 79.22 80.22" fill="#A1887F"/><polygon points="73.86 87.28 80.2 87.09 76.47 89.58" fill="#A1887F"/><polygon points="78.47 95.8 84.42 93.64 81.67 97.17" fill="#A1887F"/><polygon points="79.23 106.27 85.19 104.11 82.43 107.64" fill="#6D4C41"/><polygon points="73.84 105.36 80.32 104.9 76.33 107.9" fill="#A1887F"/><polygon points="78.5 112.69 84.99 112.24 81 115.24" fill="#A1887F"/></svg>
