<svg width="128" height="128" style="enable-background:new 0 0 128 128;" xmlns="http://www.w3.org/2000/svg" xmlns:xlink="http://www.w3.org/1999/xlink">
  <g>
    <g>
      <defs>
        <path id="SVGID_1_" d="M127.38,51.82c0-7.55-4.09-14.64-22.55-14.64H75.7H52.3H23.27c-18.47,0-22.56,7.09-22.56,14.64 c0,5.69,0,11.81,0,15.57c0,0.04,0.02,0.06,0.02,0.1c-0.08,1.07-0.11,2.15-0.11,3.23c0,13.04,0,27.06,0,35.68 c0,1.81,1.45,3.26,3.26,3.26h120.24c1.8,0,3.26-1.45,3.26-3.26c0-8.62,0-22.65,0-35.68c0-0.96-0.03-1.91-0.09-2.86 c0.05-0.15,0.09-0.3,0.09-0.48C127.38,63.63,127.38,57.51,127.38,51.82z"/>
      </defs>
      <use style="overflow:visible;fill:#FCC21B;" xlink:href="#SVGID_1_"/>
      <clipPath id="SVGID_2_">
        <use style="overflow:visible;" xlink:href="#SVGID_1_"/>
      </clipPath>
      <rect height="30.46" style="clip-path:url(#SVGID_2_);fill:#F79329;" width="133.89" x="-2.52" y="51.88"/>
    </g>
    <path d="M39,108.81c0,6.62-5.37,11.97-11.98,11.97c-6.62,0-11.99-5.36-11.99-11.97 c0-6.63,5.37-11.97,11.99-11.97C33.63,96.84,39,102.19,39,108.81z" style="fill:#2F2F2F;"/>
    <path d="M110.21,108.81c0,6.62-5.37,11.97-11.98,11.97c-6.62,0-11.99-5.36-11.99-11.97 c0-6.63,5.37-11.97,11.99-11.97C104.85,96.84,110.21,102.19,110.21,108.81z" style="fill:#2F2F2F;"/>
    <path d="M35.33,75.08c0,1.75-1.41,3.16-3.17,3.16h-10.3c-1.75,0-3.17-1.41-3.17-3.16V58.29 c0-1.75,1.42-3.17,3.17-3.17h10.3c1.75,0,3.17,1.42,3.17,3.17V75.08z M63.78,58.29c0-1.75-1.42-3.17-3.18-3.17H50.3 c-1.75,0-3.16,1.42-3.16,3.17v16.79c0,1.75,1.41,3.16,3.16,3.16H60.6c1.75,0,3.18-1.41,3.18-3.16V58.29z M86.83,58.29 c0-1.75-1.43-3.17-3.18-3.17H73.35c-1.75,0-3.17,1.42-3.17,3.17v16.79c0,1.75,1.42,3.16,3.17,3.16h10.31 c1.75,0,3.18-1.41,3.18-3.16V58.29z M109.15,58.29c0-1.75-1.41-3.17-3.18-3.17H95.67c-1.75,0-3.17,1.42-3.17,3.17v16.79 c0,1.75,1.42,3.16,3.17,3.16h10.29c1.77,0,3.18-1.41,3.18-3.16V58.29z" style="fill:#FFFFFF;"/>
  </g>
</svg>