<svg width="128" height="128" style="enable-background:new 0 0 128 128;" xmlns="http://www.w3.org/2000/svg" xmlns:xlink="http://www.w3.org/1999/xlink">
  <g>
    <radialGradient id="SVGID_1_" cx="63.75" cy="7.25" gradientUnits="userSpaceOnUse" r="121.9849">
      <stop offset="0" style="stop-color:#616161"/>
      <stop offset="0.3419" style="stop-color:#4F4F4F"/>
      <stop offset="1" style="stop-color:#212121"/>
    </radialGradient>
    <path d="M116,4H12c-4.42,0-8,3.58-8,8v104c0,4.42,3.58,8,8,8h104c4.42,0,8-3.58,8-8V12 C124,7.58,120.42,4,116,4L116,4z" style="fill:url(#SVGID_1_);"/>
    <g style="opacity:0.2;">
      <path d="M116,7c2.76,0,5,2.24,5,5v104c0,2.76-2.24,5-5,5H12c-2.76,0-5-2.24-5-5V12c0-2.76,2.24-5,5-5H116 M116,4H12c-4.42,0-8,3.58-8,8v104c0,4.42,3.58,8,8,8h104c4.42,0,8-3.58,8-8V12C124,7.58,120.42,4,116,4L116,4z" style="fill:#EEEEEE;"/>
    </g>
    <linearGradient id="SVGID_2_" gradientUnits="userSpaceOnUse" x1="64" x2="64" y1="12.25" y2="116.1406">
      <stop offset="0" style="stop-color:#FAFAFA"/>
      <stop offset="0.9779" style="stop-color:#F5F5F5"/>
      <stop offset="1" style="stop-color:#F5F5F5"/>
    </linearGradient>
    <path d="M113,116H15c-1.66,0-3-1.34-3-3V15c0-1.66,1.34-3,3-3h98c1.66,0,3,1.34,3,3v98 C116,114.66,114.66,116,113,116z" style="fill:url(#SVGID_2_);"/>
    <g>
      <linearGradient id="SVGID_3_" gradientUnits="userSpaceOnUse" x1="64" x2="64" y1="16.4764" y2="110.5435">
        <stop offset="0" style="stop-color:#FF5252"/>
        <stop offset="0.4455" style="stop-color:#EE3030"/>
        <stop offset="1" style="stop-color:#D50000"/>
      </linearGradient>
      <path d="M40.48,109.52c-0.63,0-1.26-0.05-1.89-0.16c-3.94-0.69-7.18-3.49-8.45-7.28L16.56,60.14 c-1.9-5.71,1.18-11.88,6.89-13.78c5.71-1.9,11.88,1.18,13.78,6.89l7.22,22.82l48.12-53.46c3.73-4.72,10.58-5.51,15.3-1.78 c4.72,3.73,5.51,10.59,1.78,15.3l-60.62,69.26C46.94,108.03,43.78,109.52,40.48,109.52z" style="fill:url(#SVGID_3_);"/>
    </g>
    <g style="opacity:0.2;">
      <path d="M101.12,21.48L101.12,21.48c1.79,0,3.48,0.59,4.89,1.7c1.65,1.31,2.7,3.18,2.94,5.28 c0.24,2.07-0.33,4.11-1.61,5.76l-60.57,69.2c-0.03,0.04-0.06,0.07-0.09,0.11c-1.51,1.9-3.76,2.99-6.19,2.99 c-0.46,0-0.92-0.04-1.37-0.12c-2.86-0.5-5.2-2.52-6.11-5.25L19.41,59.19c-1.38-4.13,0.86-8.61,4.99-9.98 c0.81-0.27,1.65-0.41,2.5-0.41c3.4,0,6.41,2.17,7.47,5.36l7.22,22.82c0.32,1.03,1.17,1.8,2.23,2.03 c0.21,0.05,0.42,0.07,0.64,0.07c0.84,0,1.65-0.35,2.23-0.99L94.8,24.62c0.04-0.05,0.08-0.1,0.12-0.14 C96.43,22.57,98.68,21.48,101.12,21.48 M101.12,18.48c-3.21,0-6.4,1.42-8.55,4.13L44.45,76.07l-7.22-22.82 c-1.52-4.56-5.77-7.45-10.33-7.45c-1.14,0-2.3,0.18-3.45,0.56c-5.71,1.9-8.79,8.07-6.89,13.78l13.59,41.93 c1.26,3.79,4.51,6.59,8.45,7.28c0.63,0.11,1.26,0.16,1.89,0.16c3.29,0,6.45-1.5,8.54-4.13l60.62-69.26 c3.73-4.72,2.94-11.57-1.78-15.3C105.87,19.25,103.48,18.48,101.12,18.48L101.12,18.48z" style="fill:#424242;"/>
    </g>
  </g>
</svg>