<?xml version="1.0" encoding="utf-8"?>
<!-- Generator: Adobe Illustrator 19.2.1, SVG Export Plug-In . SVG Version: 6.00 Build 0)  -->
<svg version="1.1" id="レイヤー_1" xmlns="http://www.w3.org/2000/svg" xmlns:xlink="http://www.w3.org/1999/xlink" x="0px"
	 y="0px" viewBox="0 0 128 128" style="enable-background:new 0 0 128 128;" xml:space="preserve">
<g>
	<g>
		<g>
			<defs>
				<path id="SVGID_1_" d="M62.23,126.8c-4.21,0-7.79-0.1-9.34-0.26c-14.56-1.52-33.87-8.75-44.37-24.46
					c-6.69-10-8.99-22.07-7.24-37.98C4.39,35.87,21.9,10.96,27.79,4.46c1.33-1.46,2.66-2.2,3.96-2.2c1.41,0,2.36,0.9,2.62,1.18
					c1.6,1.73,2.41,4.56,3.27,7.56c1.39,4.89,2.96,10.43,8.75,10.85c0.12,0.01,0.23,0.01,0.35,0.01c2.88,0,5.48-2.66,7.73-7.9
					c1.52-3.56,3.25-7.27,5.53-10.26c1.29-1.69,2.45-2.51,3.55-2.51c3.73,0.08,5.5,3.44,7.12,7.17c0.28,0.66,0.56,1.33,0.84,1.99
					c1.41,3.37,2.86,6.84,5.52,9.61c1.45,1.5,2.91,2.26,4.35,2.26c4.42,0,7.37-7.16,9.53-12.38c0.81-1.97,1.51-3.68,2.1-4.54
					c1.14-1.68,2.55-2.6,3.98-2.6c1.14,0,2.3,0.61,3.35,1.76c3.65,4.03,24.06,32.15,26.5,59.63c1.48,16.59-0.75,28.3-7.24,37.99
					c-8.25,12.33-23.61,21.31-41.1,24.03C75.23,126.62,67.69,126.8,62.23,126.8L62.23,126.8z"/>
			</defs>
			<use xlink:href="#SVGID_1_"  style="overflow:visible;fill:#ED6C30;"/>
			<clipPath id="SVGID_2_">
				<use xlink:href="#SVGID_1_"  style="overflow:visible;"/>
			</clipPath>
		</g>
		<path style="fill:#FFFFFF;" d="M102.78,80.69c0,3.6-2.94,6.54-6.54,6.54H31.89c-3.6,0-6.54-2.94-6.54-6.54V51.74
			c0-3.6,2.94-6.54,6.54-6.54h64.35c3.6,0,6.54,2.94,6.54,6.54V80.69z"/>
	</g>
</g>
</svg>
