<?xml version="1.0" encoding="utf-8"?>
<!-- Generator: Adobe Illustrator 16.0.0, SVG Export Plug-In . SVG Version: 6.00 Build 0)  -->
<!DOCTYPE svg PUBLIC "-//W3C//DTD SVG 1.1//EN" "http://www.w3.org/Graphics/SVG/1.1/DTD/svg11.dtd">
<svg version="1.1" id="レイヤー_1" xmlns="http://www.w3.org/2000/svg" xmlns:xlink="http://www.w3.org/1999/xlink" x="0px"
	 y="0px" width="128px" height="128px" viewBox="0 0 128 128" enable-background="new 0 0 128 128" xml:space="preserve">
<g>
	<g>
		<path fill="#B89278" d="M96.41,12.04c-0.22-0.5-0.77-0.76-1.3-0.64c-9.79,2.34-14.83,6.36-20.16,10.61
			c-3.63,2.9-7.39,5.9-12.92,8.47c-7.07,3.29-14.01,3.56-20.49,3.56l-3.16-0.01c-7.44,0-17.37,3.73-17.79,3.89
			c-0.3,0.11-0.53,0.34-0.65,0.63c-0.12,0.29-0.12,0.62,0.02,0.91l30.66,67.8c0.19,0.42,0.6,0.67,1.04,0.67
			c0.13,0,0.27-0.02,0.41-0.08c0.1-0.04,9.96-3.74,16.98-3.74l3.16,0.01c6.75,0,13.97-0.29,21.46-3.77
			c5.77-2.68,9.65-5.77,13.39-8.76c5.12-4.09,9.97-7.96,19.25-10.17c0.34-0.08,0.61-0.3,0.76-0.61c0.15-0.31,0.16-0.67,0.01-0.98
			L96.41,12.04z"/>
		<path fill="#FFFFFF" d="M115.17,74.16L92.16,22.87c-0.26-0.58-0.94-0.84-1.51-0.58c-5.08,2.25-8.58,5.04-12.29,7.99
			c-3.63,2.9-7.4,5.9-12.92,8.46c-7.08,3.28-14,3.56-20.48,3.56l-3.19-0.01c-7.43,0-17.37,3.73-17.79,3.89
			c-0.29,0.11-0.53,0.34-0.65,0.63c-0.12,0.29-0.12,0.62,0.02,0.91l23.17,51.22c0.16,0.34,0.47,0.59,0.84,0.66
			c0.07,0.01,0.14,0.02,0.2,0.02c0.15,0,0.29-0.03,0.42-0.08c0.21-0.08,10.02-3.73,16.96-3.73l3.15,0.01
			c6.75,0,13.97-0.29,21.47-3.77c5.79-2.68,9.65-5.77,13.4-8.76c3.54-2.83,6.89-5.5,11.63-7.62c0.28-0.13,0.49-0.36,0.6-0.64
			C115.3,74.75,115.29,74.43,115.17,74.16z"/>
	</g>
	<g>
		<g>
			<g>
				<g>
					<g>
						<path fill="#855C52" d="M14.51,29.18c0.58,1.37-1.01,3.35-3.56,4.42c-2.54,1.07-5.07,0.82-5.65-0.55
							c-0.57-1.37,1.02-3.35,3.56-4.42C11.41,27.57,13.93,27.81,14.51,29.18z"/>
						
							<rect x="6.21" y="30.86" transform="matrix(0.9216 -0.388 0.388 0.9216 -12.4014 7.0309)" fill="#855C52" width="9.99" height="6.73"/>
					</g>
					<path fill="#855C52" d="M17.12,35.39c0.58,1.37-1.01,3.35-3.56,4.42c-2.55,1.07-5.07,0.83-5.65-0.54
						c-0.57-1.38,1.02-3.35,3.56-4.42C14.01,33.77,16.55,34.01,17.12,35.39z"/>
				</g>
				<g>
					<path fill="#FCC21B" d="M10.7,33C3.87,35.87-0.4,41.19,1.14,44.87l28.16,66.87c1.54,3.68,8.33,4.34,15.16,1.47
						c6.82-2.87,11.1-8.19,9.56-11.88L25.86,34.47C24.32,30.78,17.52,30.12,10.7,33z"/>
					<path fill="#FFFFFF" d="M50.7,102.73c0.94,2.24-2.35,5.76-7.34,7.87c-5,2.1-9.81,1.99-10.76-0.25
						c-0.94-2.24,2.35-5.76,7.34-7.86C44.93,100.38,49.76,100.49,50.7,102.73z"/>
					<g>
						<path fill="#757F3F" d="M36.07,93.26c5.95-2.51,11.66-2.84,14.1-1.06L28.73,41.3c-1.55-3.68-8.33-4.34-15.15-1.47
							c-6.84,2.88-11.11,8.19-9.57,11.87l21.43,50.9C25.88,99.63,30.1,95.77,36.07,93.26z"/>
					</g>
				</g>
				<g>
					<g>
						<path fill="#855C52" d="M46.56,105.33c0.58,1.37-1.02,3.36-3.56,4.43c-2.54,1.07-5.09,0.82-5.65-0.55
							c-0.58-1.37,1.02-3.35,3.56-4.43C43.46,103.71,45.98,103.96,46.56,105.33z"/>
						<polygon fill="#855C52" points="49.17,111.53 39.96,115.41 37.36,109.21 46.56,105.33 						"/>
					</g>
					<path fill="#855C52" d="M49.17,111.53c0.58,1.37-1.01,3.35-3.56,4.42c-2.54,1.07-5.06,0.83-5.65-0.55
						c-0.57-1.37,1.01-3.35,3.56-4.42C46.06,109.91,48.59,110.16,49.17,111.53z"/>
				</g>
			</g>
			<g>
				<g>
					<defs>
						<path id="SVGID_1_" d="M32.77,85.43c5.96-2.5,11.67-2.83,14.1-1.06L31.75,48.47c-1.54-3.68-8.33-4.34-15.16-1.47
							c-6.82,2.87-11.1,8.19-9.55,11.87l15.12,35.91C22.58,91.8,26.81,87.94,32.77,85.43z"/>
					</defs>
					<clipPath id="SVGID_2_">
						<use xlink:href="#SVGID_1_"  overflow="visible"/>
					</clipPath>
					<polygon clip-path="url(#SVGID_2_)" fill="#FFFFFF" points="42.88,96.96 33.93,100.73 7.79,38.62 16.76,34.85 					"/>
				</g>
			</g>
		</g>
	</g>
</g>
</svg>
