<?xml version="1.0" encoding="utf-8"?>
<!-- Generator: Adobe Illustrator 24.0.3, SVG Export Plug-In . SVG Version: 6.00 Build 0)  -->
<svg version="1.1" id="Layer_1" xmlns="http://www.w3.org/2000/svg" xmlns:xlink="http://www.w3.org/1999/xlink" x="0px" y="0px"
	 viewBox="0 0 128 128" style="enable-background:new 0 0 128 128;" xml:space="preserve">
<linearGradient id="SVGID_1_" gradientUnits="userSpaceOnUse" x1="63.9565" y1="724.6108" x2="63.9565" y2="837.5398" gradientTransform="matrix(1 0 0 1 0 -713.8898)">
	<stop  offset="0" style="stop-color:#FFFFFF"/>
	<stop  offset="0.3903" style="stop-color:#F8FCFF"/>
	<stop  offset="0.9561" style="stop-color:#E5F3FD"/>
	<stop  offset="0.999" style="stop-color:#E3F2FD"/>
</linearGradient>
<path style="fill:url(#SVGID_1_);" d="M101.7,84.9l15.5-5.8c0.5-0.2,0.7-0.7,0.5-1.2c-3-7.7-23.6-58.1-26.2-60.1
	C89,16,74.3,12.2,70.6,11.5c-0.5-0.1-6.3,21-6.3,21c-0.2,0.9-1.6,0.9-1.8,0c0,0-5.6-21.1-6.1-21c-3.6,0.8-17.5,4.1-20,6
	c-2.7,2-23.3,51.4-26.2,59c-0.2,0.5,0.1,1,0.5,1.2l15.5,5.8c0.5,0.2,1-0.1,1.2-0.5c0,0,10.4-25.5,10.4-24.5v58.3
	c0,0.3,0.1,0.6,0.4,0.8c1.8,1.2,9.6,6.2,19.8,6.2c26,0,30.9-4.9,31.7-6.2c0.1-0.2,0.2-0.3,0.2-0.5V58.5c0-1,10.4,25.9,10.4,25.9
	C100.7,84.9,101.2,85.1,101.7,84.9z"/>
<path style="fill:#90A4AE;" d="M56.2,6h14.6l0.9,11.7l-8.4,20l-8-19.4C55.3,18.2,56.2,6.1,56.2,6z"/>
<path style="fill:none;stroke:#CFD8DC;stroke-width:2;stroke-miterlimit:10;" d="M38,103.8c0.1,0,0.3,0,0.4,0h9.8
	c1.6,0,2.8-1.3,2.8-2.9v-16H38"/>
<line style="fill:none;stroke:#CFD8DC;stroke-miterlimit:10;" x1="50.5" y1="88.2" x2="38" y2="88.2"/>
<path style="fill:none;stroke:#CFD8DC;stroke-width:2;stroke-miterlimit:10;" d="M90,103.8H79c-1.6,0-2.9-1.3-2.9-2.9v-16H90"/>
<line style="fill:none;stroke:#CFD8DC;stroke-miterlimit:10;" x1="90" y1="88.2" x2="75.7" y2="88.2"/>
<line style="fill:none;stroke:#E2E7EA;stroke-width:0.75;stroke-miterlimit:10;" x1="29.4" y1="78.7" x2="12.1" y2="72.4"/>
<line style="fill:none;stroke:#E2E7EA;stroke-width:0.75;stroke-miterlimit:10;" x1="115.9" y1="73.8" x2="98.7" y2="80"/>
<path style="fill:none;stroke:#CFD8DC;stroke-width:1.0223;stroke-miterlimit:10;" d="M79.4,53.9h-3.1c-1.9,0-3.5-1.5-3.5-3.5v-7.9
	h10.1v7.9C82.8,52.3,81.3,53.9,79.4,53.9z"/>
<path style="fill:none;" d="M57.4,20.1c0,0.1,0,0.2,0.1,0.3l6,15.7l6.3-15.7c0-0.1,0.1-0.2,0.1-0.3l1-8.2H56.4L57.4,20.1z"/>
<linearGradient id="SVGID_2_" gradientUnits="userSpaceOnUse" x1="63.4" y1="749.9897" x2="63.4" y2="749.9897" gradientTransform="matrix(1 0 0 1 0 -713.8898)">
	<stop  offset="0" style="stop-color:#D5ECFD"/>
	<stop  offset="1" style="stop-color:#A9C9E3"/>
</linearGradient>
<path style="fill:url(#SVGID_2_);" d="M63.4,36.1"/>
<path style="fill:#CDD6DA;" d="M78.6,12.8c0-0.2-0.1-0.3-0.2-0.5l-6.8-7.9l-0.9,7.4l0,0l-1,8.2c0,0.1,0,0.2-0.1,0.3l-6.6,15
	l-5.6-14.9c0-0.1-0.1-0.2-0.1-0.3l-1-8.2h-0.1l-0.9-7.3l-6.7,7.8c-0.1,0.1-0.2,0.3-0.2,0.5L47,22.5c-0.1,0.6,0.4,1.1,0.9,1l3.9-0.1
	c0.8,0,1.2,1,0.7,1.6L50,27.5c-0.4,0.4-0.3,1,0,1.3l11,9.6c0.3,0.3-1.4,4.1-1.4,4.1l0.2,80.2h1l-0.2-80.2l16.3-13.8
	c0.4-0.3,0.4-1,0.1-1.3l-2.4-2.5c-0.6-0.6-0.1-1.6,0.7-1.6l3.8,0.1c0.6,0,1-0.5,0.9-1C80,22.4,78.6,12.8,78.6,12.8z"/>
<linearGradient id="SVGID_3_" gradientUnits="userSpaceOnUse" x1="63.55" y1="718.0948" x2="63.55" y2="752.4037" gradientTransform="matrix(1 0 0 1 0 -713.8898)">
	<stop  offset="0" style="stop-color:#D5ECFD"/>
	<stop  offset="1" style="stop-color:#A9C9E3"/>
</linearGradient>
<path style="fill:url(#SVGID_3_);" d="M56.4,11.9l-0.1-1.1c0-0.5,0.4-0.9,0.9-0.9h12.7c0.5,0,0.9,0.4,0.9,0.9l-0.1,1.1l0,0l0.9-7.4
	l-0.2-0.2C71.3,4.1,71,4,70.8,4h-7.1c0,0-0.1,0-0.1,0.1c0-0.1,0-0.1-0.1-0.1h-7.1c-0.3,0-0.5,0.1-0.7,0.3l-0.2,0.3L56.4,11.9
	L56.4,11.9L56.4,11.9z"/>
<path style="fill:#ECEFF1;" d="M71.5,4.3C71.3,4.1,71,4,70.8,4h-7.1c0,0-0.1,0-0.1,0.1c0-0.1,0-0.1-0.1-0.1h-7.1
	c-0.3,0-0.5,0.1-0.7,0.3l-0.2,0.3l0.9,7.3h14.5l0.9-7.4L71.5,4.3z"/>
<circle style="fill:#CFD8DC;" cx="64" cy="56.6" r="1.3"/>
<circle style="fill:#CFD8DC;" cx="64" cy="76.5" r="1.3"/>
<circle style="fill:#CFD8DC;" cx="64" cy="96.4" r="1.3"/>
<rect x="72.7" y="42.2" style="fill:#CFD8DC;" width="10.3" height="2.6"/>
<g style="opacity:0.2;">
	<path style="fill:#424242;" d="M69.8,6.9l5.9,6.9l0,0l0.3,1.9l1.9,0.5c7.4,2,10.7,3.3,11.6,3.8c3,4.3,19.5,44,24.6,56.9l-11.6,4.3
		c-0.9-2.4-2.6-6.8-4.3-11.1c-1.5-3.8-2.7-6.8-3.6-9c-2-4.9-2.4-5.9-4.6-5.9h-3v60.7c-1.4,1.1-7.5,4.5-28.9,4.5
		c-8.1,0-14.7-3.5-17.2-5V58.5v-3h-3c-2.1,0-2.6,1.1-4.5,5.6c-0.9,2-2.1,4.9-3.6,8.5c-1.7,4.1-3.4,8.2-4.3,10.4l-11.6-4.4
		C19,62.7,35.5,24,38.5,19.8c0.6-0.3,2.9-1.4,10.7-3.4l1.9-0.5l0.3-2l0,0L57.3,7L69.8,6.9 M70.8,3.9H56.3c-0.3,0-0.5,0.1-0.7,0.3
		l-0.2,0.3l-6.7,7.8c-0.1,0.1-0.2,0.3-0.2,0.5l-0.1,0.6c-5,1.3-10.4,2.9-11.9,4c-2.7,2-23.3,51.4-26.2,59c-0.2,0.5,0.1,1,0.5,1.2
		l15.5,5.8c0.1,0,0.2,0.1,0.3,0.1c0.4,0,0.7-0.2,0.9-0.6c0,0,10-24.5,10.4-24.5l0,0v58.3c0,0.3,0.1,0.6,0.4,0.8
		c1.8,1.2,9.6,6.2,19.8,6.2c26,0,30.9-4.9,31.7-6.2c0.1-0.2,0.2-0.3,0.2-0.5V58.5l0,0c0.4,0,10.4,25.9,10.4,25.9
		c0.1,0.4,0.5,0.6,0.9,0.6c0.1,0,0.2,0,0.3-0.1l15.5-5.8c0.5-0.2,0.7-0.7,0.5-1.2c-3-7.7-23.6-58.1-26.2-60.1
		c-1.5-1.1-7.5-3-12.8-4.4l-0.1-0.6c0-0.2-0.1-0.3-0.2-0.5l-6.8-7.9l-0.2-0.2C71.3,4.1,71,3.9,70.8,3.9z"/>
</g>
</svg>
