<svg xmlns="http://www.w3.org/2000/svg" viewBox="0 0 128 128"><path fill="#fbc11b" d="M27.26 77.96l8.46 7.23 6.29-5.78-14.69-16.52z"/><path d="M17.72 72.58L33.3 82.66l6.66-10.12c3.1-4.7 1.63-11.04-3.22-13.9l-5.88-3.47c-5.43-3.21-12.45-1.02-15.1 4.7l-1.05 2.27a8.275 8.275 0 0 0 3.01 10.44z" fill="#fbc11b"/><path d="M28.06 79.78l2.23-5.3-3.17-2.41a3.658 3.658 0 0 1-1.4-3.47l4.4 1.25c.52-1.23.36-2.64-.43-3.72l-1.55-2.16c-.67-.93-.85-2.14-.48-3.23l2.09-6.15s-7.39-4.72-12.98 1.97c-.97 1.16-1.85 2.34-2.64 3.52-3.7 5.45-1.7 12.91 4.22 15.8 3.13 1.55 6.38 2.85 9.71 3.9z" fill="#6d4c41"/><path d="M32.03 61.26c.7.43 1.56.32 1.92-.27.36-.58.08-1.4-.62-1.84-.7-.43-1.56-.32-1.92.26-.36.59-.09 1.41.62 1.85" fill="#c07b47"/><path d="M27.79 107.81l-.3.21c-2.04 1.55-1.26 4.89-3.11 6.4-1.58 1.28-4.27-.06-5.86 1.23-3.34 2.71-2.24 7.21 1.48 8.79 6.51 2.76 14.22-3.41 17.29-8.67 1.16-1.98 2.55-5.53.58-7.27-1-.89-2.4-.62-3.59-.75-2.55-.27-4.06-1.53-6.49.06zM100.21 107.81c.1.07.2.14.29.21 2.06 1.55 1.26 4.89 3.13 6.4 1.57 1.28 4.25-.06 5.85 1.23 3.34 2.71 2.23 7.21-1.48 8.79-6.52 2.76-14.22-3.41-17.29-8.67-1.16-1.98-2.56-5.53-.59-7.27 1-.89 2.4-.62 3.6-.75 2.54-.27 4.06-1.53 6.49.06z" fill="#78a2ac"/><path d="M67.6 117.58c-4.06 0-8.1-.12-12.01-.24l-.51-.01c-9.07-.27-20.86-1.31-31.53-6.96-4.49-2.37-7.81-5.6-10.14-9.86-1.05-1.91-1.7-4.3-2.33-6.62-.72-2.67-1.46-5.42-2.64-6.74-.44-.49-1.13-.86-1.94-1.3-1.75-.93-4.13-2.2-4.96-5.56-.86-3.56-.47-6.41 1.16-8.48 2.41-3.08 6.77-3.47 10.28-3.47 1.28 0 2.57.05 3.81.11 3.78.17 7.7.19 11.75.1 6.37-.13 13.34-.19 21.29-.19 7.16 0 14.33.05 21.49.1 5.33.04 10.66.07 15.99.09l5.57.03c2.69.02 5.37.03 8.05.03 5.03 0 9.1-.06 12.82-.19 3.34-.1 6.09.25 8.15 1.12 2.43 1.03 6.25 3.79 4.56 10.75-.82 3.36-3.2 4.63-4.95 5.56-.8.43-1.5.8-1.94 1.3-1.17 1.32-1.92 4.07-2.65 6.74-.63 2.32-1.27 4.71-2.32 6.62-2.33 4.26-5.65 7.48-10.14 9.86-12 6.35-25.37 7.21-36.86 7.21z" fill="#e2eaed"/><path d="M112.55 85.58c-3.74.85-7.05 3.44-9.92 6.89-4.75 5.7-6.84 11.58-12.14 16.44-5.85 5.37-24.08 7.96-36.37 8.38l.97.03.51.01c3.91.12 7.95.24 12 .24h.01c11.49 0 24.86-.86 36.87-7.21 4.5-2.38 7.81-5.6 10.14-9.86 1.05-1.91 1.69-4.3 2.32-6.62.73-2.67 1.47-5.42 2.65-6.74.44-.5 1.13-.86 1.94-1.3 1.75-.93 4.13-2.21 4.95-5.56.2-.83.32-1.6.38-2.31-1.43 4.53-9.31 6.47-14.31 7.61z" fill="#d2dde1"/><g><path fill="#78a2ac" d="M110.79 17.83h4v50.72h-4zM114.79 17.83h-4c0-5.69-4.63-10.32-10.32-10.32s-10.32 4.63-10.32 10.32h-4c0-7.9 6.43-14.32 14.32-14.32s14.32 6.42 14.32 14.32z"/><g fill="#78a2ac"><path d="M96.75 26.58H79.54c-1.21 0-2.21-.99-2.21-2.21 0-1.21.99-2.21 2.21-2.21h17.21c1.21 0 2.21.99 2.21 2.21s-1 2.21-2.21 2.21z"/><path d="M79.54 22.17c3.52-.6 6.61-2.77 6.61-4.33h2v4.33h-8.61z"/><path d="M96.75 22.17c-3.52-.6-6.61-2.77-6.61-4.33h-2v4.33h8.61z"/></g></g></svg>