<svg xmlns="http://www.w3.org/2000/svg" width="128" height="128"><g transform="matrix(1.05517 0 0 1.05517 4.587 -14.535)" stroke-width=".948" stroke-linecap="round"><path d="M82.109 79.254c16.947-2.49 10.644-27.13-14.293-23.014-28.41 4.69-43.456-2.845-59.924-2.342" fill="none" stroke="#005acb" stroke-width="1.895"/><path d="M74.88 75.129a2.852 2.852 0 0 0-2.403 1.314A136.946 136.946 0 0 1 74.727 85c.052.003.1.016.154.016h5.213a2.859 2.859 0 0 0 2.865-2.866v-4.156a2.859 2.859 0 0 0-2.865-2.865z" fill="#ff0a0a" stroke-width="30.836" stroke-linejoin="round" paint-order="stroke fill markers"/><path d="M106.998 46.295v12.139a4.502 4.502 0 0 0 3.379-4.362v-3.418a4.5 4.5 0 0 0-3.379-4.36z" fill="#f66d00" stroke-width="30.836" stroke-linejoin="round" paint-order="stroke fill markers"/><path d="M65.041 74.377a1.4 1.4 0 0 0-1.379 1.42v8.525a1.4 1.4 0 1 0 2.799 0V81.46h7.402c-.242-.942-.486-1.876-.744-2.799h-6.658v-2.863a1.4 1.4 0 0 0-1.42-1.42z" style="line-height:normal;font-variant-ligatures:normal;font-variant-position:normal;font-variant-caps:normal;font-variant-numeric:normal;font-variant-alternates:normal;font-feature-settings:normal;text-indent:0;text-align:start;text-decoration-line:none;text-decoration-style:solid;text-decoration-color:#000;text-transform:none;text-orientation:mixed;shape-padding:0;isolation:auto;mix-blend-mode:normal" color="#000" font-weight="400" font-family="sans-serif" white-space="normal" overflow="visible" fill="#ff4d0a" stroke-width="2.654" stroke-linejoin="round"/><path d="M43.148 71.457c.011 2.378.159 5.608.704 9.04 1.092 6.876 3.745 15.69 12.101 19.169 8.249 3.435 15.873 1.597 21.283-.926-.343-2.399-.763-5.13-1.359-8.302-.127-.675-.29-1.392-.432-2.086-3.5 2.097-9.536 4.629-15.648 2.084-3.038-1.265-5.196-6.012-6.068-11.508-.447-2.812-.565-5.495-.575-7.471z" style="line-height:normal;font-variant-ligatures:normal;font-variant-position:normal;font-variant-caps:normal;font-variant-numeric:normal;font-variant-alternates:normal;font-feature-settings:normal;text-indent:0;text-align:start;text-decoration-line:none;text-decoration-style:solid;text-decoration-color:#000;text-transform:none;text-orientation:mixed;shape-padding:0;isolation:auto;mix-blend-mode:normal" color="#000" font-weight="400" font-family="sans-serif" white-space="normal" overflow="visible" fill="#0ae01f" fill-opacity=".969" stroke-width="9.477" stroke-linejoin="round"/><path d="M4.36 51.186a2.118 2.118 0 0 0-2.124 2.123v1.177c0 1.176.947 2.123 2.123 2.123h5.946v-5.423z" fill="#ff330d" stroke-width="30.836" stroke-linejoin="round" paint-order="stroke fill markers"/><path d="M9.676 39.613a4.512 4.512 0 0 0-4.524 4.522V63.66a4.514 4.514 0 0 0 4.524 4.524h.955a5.005 5.005 0 0 1-.326-1.743V41.084c0-.516.099-1.003.242-1.47z" fill="#f66d00" stroke-width="30.836" stroke-linejoin="round" paint-order="stroke fill markers"/><path d="M102.375 71.438c-.13.01-.26.019-.393.019H70.84c1.999 5.493 3.863 12.727 5.037 18.98 1.61 8.57 2.23 15.176 2.23 15.176a15.002 15.002 0 1 0 29.87-2.797s-.743-7.944-2.616-17.916c-.788-4.197-1.742-8.776-2.986-13.463z" style="line-height:normal;font-variant-ligatures:normal;font-variant-position:normal;font-variant-caps:normal;font-variant-numeric:normal;font-variant-alternates:normal;font-feature-settings:normal;text-indent:0;text-align:start;text-decoration-line:none;text-decoration-style:solid;text-decoration-color:#000;text-transform:none;text-orientation:mixed;shape-padding:0;isolation:auto;mix-blend-mode:normal" color="#000" font-weight="400" font-family="sans-serif" white-space="normal" overflow="visible" fill="#0bec21" fill-opacity=".886" stroke-width="28.431" stroke-linejoin="round"/><path d="M23.672 29.424a3.325 3.325 0 0 0-3.332 3.334v3.31h64.27v-3.31a3.325 3.325 0 0 0-3.333-3.334z" fill="#09bd1a" stroke-width="30.836" stroke-linejoin="round" paint-order="stroke fill markers"/><rect width="96.693" height="35.39" x="10.305" y="36.068" rx="5.015" fill="#22f537" fill-opacity=".887" stroke-width="30.836" stroke-linejoin="round" paint-order="stroke fill markers"/><rect rx="4.083" y="38.752" x="19.095" height="9.886" width="78.728" fill="#fff" fill-opacity=".605" stroke-width="30.836" stroke-linejoin="round" paint-order="stroke fill markers"/></g></svg>