<svg width="128" height="128" style="enable-background:new 0 0 128 128;" xmlns="http://www.w3.org/2000/svg" xmlns:xlink="http://www.w3.org/1999/xlink">
  <g id="_x31_">
    <g>
      <defs>
        <rect id="SVGID_1_" height="120" width="16" x="64" y="4"/>
      </defs>
      <clipPath id="SVGID_2_">
        <use style="overflow:visible;" xlink:href="#SVGID_1_"/>
      </clipPath>
      <g style="clip-path:url(#SVGID_2_);">
        <g>
          <g>
            <path d="M76.72,6.62c0,0,3.46,3.96-0.12,8.08l-8.08,4c0,0-3.29-4.79,0-8.08L76.72,6.62z" style="fill:#E0E0E0;"/>
            <path d="M76.72,22.42c0,0,3.46,3.96-0.12,8.08l-8.08,4c0,0-3.29-4.79,0-8.08L76.72,22.42z" style="fill:#E0E0E0;"/>
            <path d="M76.72,38.21c0,0,3.46,3.96-0.12,8.08l-8.08,4c0,0-3.29-4.79,0-8.08L76.72,38.21z" style="fill:#E0E0E0;"/>
            <path d="M76.72,54c0,0,3.46,3.96-0.12,8.08l-8.08,4c0,0-3.29-4.79,0-8.08L76.72,54z" style="fill:#E0E0E0;"/>
            <path d="M76.72,69.79c0,0,3.46,3.96-0.12,8.08l-8.08,4c0,0-3.29-4.79,0-8.08L76.72,69.79z" style="fill:#E0E0E0;"/>
            <path d="M76.72,85.58c0,0,3.46,3.96-0.12,8.08l-8.08,4c0,0-3.29-4.79,0-8.08L76.72,85.58z" style="fill:#E0E0E0;"/>
            <path d="M76.72,101.38c0,0,3.46,3.96-0.12,8.08l-8.08,4c0,0-3.29-4.79,0-8.08L76.72,101.38z" style="fill:#E0E0E0;"/>
            <path d="M76.72,117.29c0,0,3.46,3.96-0.12,8.08l-8.08,4c0,0-3.29-4.79,0-8.08L76.72,117.29z" style="fill:#E0E0E0;"/>
          </g>
          <g>
            <path d="M76.72-1.25c0,0,3.46,3.96-0.12,8.08l-8.08,4c0,0-3.29-4.79,0-8.08L76.72-1.25z" style="fill:#EC407A;"/>
            <path d="M76.72,14.54c0,0,3.46,3.96-0.12,8.08l-8.08,4c0,0-3.29-4.79,0-8.08L76.72,14.54z" style="fill:#EC407A;"/>
            <path d="M76.72,30.33c0,0,3.46,3.96-0.12,8.08l-8.08,4c0,0-3.29-4.79,0-8.08L76.72,30.33z" style="fill:#EC407A;"/>
            <path d="M76.72,46.12c0,0,3.46,3.96-0.12,8.08l-8.08,4c0,0-3.29-4.79,0-8.08L76.72,46.12z" style="fill:#EC407A;"/>
            <path d="M76.72,61.92c0,0,3.46,3.96-0.12,8.08l-8.08,4c0,0-3.29-4.79,0-8.08L76.72,61.92z" style="fill:#EC407A;"/>
            <path d="M76.72,77.71c0,0,3.46,3.96-0.12,8.08l-8.08,4c0,0-3.29-4.79,0-8.08L76.72,77.71z" style="fill:#EC407A;"/>
            <path d="M76.72,93.5c0,0,3.46,3.96-0.12,8.08l-8.08,4c0,0-3.29-4.79,0-8.08L76.72,93.5z" style="fill:#EC407A;"/>
            <path d="M76.72,109.29c0,0,3.46,3.96-0.12,8.08l-8.08,4c0,0-3.29-4.79,0-8.08L76.72,109.29z" style="fill:#EC407A;"/>
          </g>
        </g>
        <g style="opacity:0.2;">
          <path d="M76.19,0.68c0.55,1.09,1.04,3-0.62,5.02c-0.46,0.56-0.45,1.37,0.02,1.92 c0.25,0.3,2.41,3.02-0.03,5.97c-0.46,0.56-0.45,1.38,0.02,1.93c0.25,0.3,2.41,3.02-0.01,5.97c-0.46,0.56-0.45,1.37,0.02,1.92 c0.25,0.3,2.41,3.02-0.03,5.97c-0.46,0.56-0.45,1.38,0.02,1.93c0.25,0.3,2.41,3.02-0.01,5.97c-0.46,0.56-0.45,1.37,0.02,1.92 c0.25,0.3,2.41,3.02-0.03,5.97c-0.46,0.56-0.45,1.38,0.02,1.93c0.25,0.3,2.41,3.02-0.01,5.97c-0.46,0.56-0.45,1.37,0.02,1.92 c0.25,0.3,2.41,3.02-0.03,5.97c-0.46,0.56-0.45,1.38,0.02,1.93c0.25,0.3,2.41,3.02-0.01,5.97c-0.46,0.56-0.45,1.37,0.02,1.92 c0.25,0.3,2.41,3.02-0.03,5.97c-0.46,0.56-0.45,1.38,0.02,1.93c0.25,0.3,2.41,3.02-0.01,5.97c-0.46,0.56-0.45,1.37,0.02,1.92 c0.25,0.3,2.41,3.02-0.03,5.97c-0.46,0.56-0.45,1.38,0.02,1.93c0.25,0.3,2.41,3.02-0.01,5.97c-0.46,0.56-0.45,1.37,0.02,1.92 c0.25,0.3,2.41,3.02-0.03,5.97c-0.46,0.56-0.45,1.38,0.02,1.93c0.26,0.31,2.48,3.09-0.1,6.09c-0.46,0.54-0.48,1.33-0.05,1.89 c0.12,0.15,0.26,0.27,0.41,0.37c0.59,0.87,1.72,3.12-0.2,5.55l-6.51,3.22c-0.57-1.3-1.13-3.44,0.41-5.01 c0.49-0.5,0.57-1.28,0.19-1.87c-0.25-0.39-2.4-3.83-0.21-6.1c0.48-0.5,0.56-1.26,0.18-1.85c-0.4-0.63-2.29-3.86-0.2-6.05 c0.48-0.5,0.55-1.26,0.18-1.84c-0.4-0.63-2.27-3.87-0.17-6.05c0.48-0.5,0.56-1.26,0.18-1.85c-0.4-0.63-2.29-3.86-0.2-6.05 c0.48-0.5,0.55-1.26,0.18-1.84c-0.4-0.63-2.27-3.87-0.17-6.05c0.48-0.5,0.56-1.26,0.18-1.85c-0.4-0.63-2.29-3.86-0.2-6.05 c0.48-0.5,0.55-1.26,0.18-1.84c-0.4-0.63-2.27-3.87-0.17-6.05c0.48-0.5,0.56-1.26,0.18-1.85c-0.4-0.63-2.29-3.86-0.2-6.05 c0.48-0.5,0.55-1.26,0.18-1.84c-0.4-0.63-2.27-3.87-0.17-6.05c0.48-0.5,0.56-1.26,0.18-1.85c-0.4-0.63-2.29-3.86-0.2-6.05 c0.48-0.5,0.55-1.26,0.18-1.84c-0.4-0.63-2.27-3.87-0.17-6.05c0.48-0.5,0.56-1.26,0.18-1.85c-0.4-0.63-2.29-3.86-0.2-6.05 c0.48-0.5,0.55-1.26,0.18-1.84c-0.4-0.63-2.27-3.87-0.17-6.05c0.48-0.5,0.56-1.26,0.18-1.85c-0.4-0.63-2.29-3.86-0.2-6.05 c0.48-0.5,0.55-1.26,0.18-1.84c-0.39-0.62-2.21-3.76-0.29-5.93L76.19,0.68 M76.72-1.25l-8.21,4c-3,3-0.54,7.24-0.08,7.96 c-2.9,3.03-0.4,7.25,0.02,7.9c-2.89,3-0.47,7.17-0.02,7.89c-2.9,3.03-0.4,7.25,0.02,7.9c-2.89,3-0.47,7.17-0.02,7.89 c-2.9,3.03-0.4,7.25,0.02,7.9c-2.89,3-0.47,7.17-0.02,7.89c-2.9,3.03-0.4,7.25,0.02,7.9c-2.89,3-0.47,7.17-0.02,7.89 c-2.9,3.03-0.4,7.25,0.02,7.9c-2.89,3-0.47,7.17-0.02,7.89c-2.9,3.03-0.4,7.25,0.02,7.9c-2.89,3-0.47,7.17-0.02,7.89 c-2.9,3.03-0.4,7.25,0.02,7.9c-3,3.11-0.28,7.5,0.03,7.96c-3.23,3.29,0.03,8.05,0.03,8.05l8.08-4 c3.58-4.12,0.12-8.08,0.12-8.08l-0.1,0.05c3.52-4.1,0.12-8.03,0.1-8.05c3.25-3.94,0.21-7.67,0.02-7.9 c3.31-4.05,0-7.87-0.02-7.89c3.25-3.94,0.21-7.67,0.02-7.9c3.31-4.05,0-7.87-0.02-7.89c3.25-3.94,0.21-7.67,0.02-7.9 c3.31-4.05,0-7.87-0.02-7.89c3.25-3.94,0.21-7.67,0.02-7.9c3.31-4.05,0-7.87-0.02-7.89c3.25-3.94,0.21-7.67,0.02-7.9 c3.31-4.05,0-7.87-0.02-7.89c3.25-3.94,0.21-7.67,0.02-7.9c3.31-4.05,0-7.87-0.02-7.89c3.25-3.94,0.21-7.67,0.02-7.9 C80.06,2.59,76.72-1.25,76.72-1.25L76.72-1.25z" style="fill:#424242;"/>
        </g>
      </g>
    </g>
  </g>
  <g id="_x32__1_">
    <linearGradient id="SVGID_3_" gradientUnits="userSpaceOnUse" x1="107.048" x2="107.048" y1="45.25" y2="102.0138">
      <stop offset="0" style="stop-color:#D1C4E9"/>
      <stop offset="0.4182" style="stop-color:#B39CDB"/>
      <stop offset="0.7827" style="stop-color:#9D80D1"/>
      <stop offset="0.9928" style="stop-color:#9575CD"/>
    </linearGradient>
    <path d="M90.63,55.78c0,0,7.1-10.31,18.47-6.1c11.66,4.32,7.49,17.27,8.97,23.97 c0.76,3.49,3.07,6.91,5.37,9.37c1.36,1.45,0.08,3.8-1.87,3.44c-5.3-0.96-11.91-4.16-13.46-13.95 c-2.69-16.91-11.09-15.58-13.77-13.84C94.33,58.67,88.31,62.68,90.63,55.78z" style="fill:url(#SVGID_3_);"/>
    <g style="opacity:0.2;">
      <path d="M103.69,50.17c1.6,0,3.24,0.31,4.88,0.92c7.62,2.82,7.61,9.65,7.6,16.26c0,2.42,0,4.7,0.42,6.62 c0.72,3.27,2.81,6.94,5.74,10.07c0.17,0.18,0.21,0.38,0.11,0.6c-0.04,0.08-0.18,0.35-0.49,0.35c-0.04,0-0.08,0-0.13-0.01 c-6.99-1.27-11.11-5.54-12.25-12.71c-2.23-13.99-8.32-16.08-11.75-16.08c-1.55,0-3.12,0.44-4.33,1.23 c-0.47,0.31-1.32,0.74-1.9,0.87c0.01-0.3,0.08-0.86,0.38-1.82C92.73,55.48,97.05,50.17,103.69,50.17 M103.69,48.67 c-8.17,0-13.07,7.11-13.07,7.11c-1.07,3.19-0.36,4.05,0.71,4.05c1.25,0,2.99-1.16,2.99-1.16c0.78-0.5,2.04-0.98,3.5-0.98 c3.58,0,8.36,2.81,10.27,14.82c1.56,9.78,8.16,12.99,13.46,13.95c0.14,0.02,0.27,0.04,0.39,0.04c1.73,0,2.74-2.13,1.48-3.48 c-2.3-2.46-4.61-5.88-5.37-9.37c-1.47-6.7,2.69-19.65-8.97-23.97C107.17,48.97,105.36,48.67,103.69,48.67L103.69,48.67z" style="fill:#424242;"/>
    </g>
    <linearGradient id="SVGID_4_" gradientUnits="userSpaceOnUse" x1="38.7356" x2="38.7356" y1="5.6667" y2="129.9928">
      <stop offset="0" style="stop-color:#F8BBD0"/>
      <stop offset="0.0379" style="stop-color:#F8B7CD"/>
      <stop offset="0.4722" style="stop-color:#F389AD"/>
      <stop offset="0.8071" style="stop-color:#F16D99"/>
      <stop offset="1" style="stop-color:#F06292"/>
    </linearGradient>
    <path d="M60,64.08c-0.99-2.32-4.21-3.94-7.85-3.94c-3.22,0-5.76,1.3-6.97,3.57 c-0.45,0.83-0.84,1.41-1.3,1.87c-2.03,2.08-3.91,3.38-5.04,3.46c-0.08,0.01-0.18,0.01-0.29,0.01c-1.82,0-6.77-0.73-8.94-1.05 c-0.45-0.12-0.85-0.18-1.25-0.18c-2.09,0-3.84,1.4-4.82,3.83c-0.97,2.43-2.84,6.34-4.34,9.49c-1.88,3.93-2.36,4.97-2.42,5.41 c-0.01,0.07-0.02,0.14-0.04,0.22c-0.18,1-0.51,2.87,2.11,5.81c2.47,2.78,6.04,7.31,6.07,7.36c0.96,1.27,2.6,1.97,4.75,2h0 c1.4,0,2.51-1.11,2.51-2.47v-7.61c0-0.43-0.1-0.84-0.3-1.19c-1.29-2.31-3.33-2.79-4.82-2.79c-0.52,0-1.04,0.06-1.56,0.17l0,0 c0,0-0.12,0.02-0.27,0.02c-0.59,0-0.78-0.21-0.78-0.88c0-0.23,0.21-1.68,4.33-8.47c0.38-0.16,0.65-0.27,1.02-0.43 c2.63,0.64,9.2,2.07,15.17,2.07c4.38,0,7.59-0.79,9.53-2.36C60.38,73.26,62.08,68.97,60,64.08z" style="fill:url(#SVGID_4_);"/>
    <linearGradient id="SVGID_5_" gradientUnits="userSpaceOnUse" x1="38.7356" x2="38.7356" y1="86.294" y2="97.2638">
      <stop offset="0" style="stop-color:#F8BBD0"/>
      <stop offset="1" style="stop-color:#F8BBD0;stop-opacity:0"/>
    </linearGradient>
    <path d="M60,64.08c-0.99-2.32-4.21-3.94-7.85-3.94c-3.22,0-5.76,1.3-6.97,3.57 c-0.45,0.83-0.84,1.41-1.3,1.87c-2.03,2.08-3.91,3.38-5.04,3.46c-0.08,0.01-0.18,0.01-0.29,0.01c-1.82,0-6.77-0.73-8.94-1.05 c-0.45-0.12-0.85-0.18-1.25-0.18c-2.09,0-3.84,1.4-4.82,3.83c-0.97,2.43-2.84,6.34-4.34,9.49c-1.88,3.93-2.36,4.97-2.42,5.41 c-0.01,0.07-0.02,0.14-0.04,0.22c-0.18,1-0.51,2.87,2.11,5.81c2.47,2.78,6.04,7.31,6.07,7.36c0.96,1.27,2.6,1.97,4.75,2h0 c1.4,0,2.51-1.11,2.51-2.47v-7.61c0-0.43-0.1-0.84-0.3-1.19c-1.29-2.31-3.33-2.79-4.82-2.79c-0.52,0-1.04,0.06-1.56,0.17l0,0 c0,0-0.12,0.02-0.27,0.02c-0.59,0-0.78-0.21-0.78-0.88c0-0.23,0.21-1.68,4.33-8.47c0.38-0.16,0.65-0.27,1.02-0.43 c2.63,0.64,9.2,2.07,15.17,2.07c4.38,0,7.59-0.79,9.53-2.36C60.38,73.26,62.08,68.97,60,64.08z" style="fill:url(#SVGID_5_);"/>
    <g style="opacity:0.2;">
      <path d="M52.15,62.64c2.83,0,5.05,1.23,5.55,2.42c1.18,2.77,1.41,6.02-4.78,11.01 c-1.02,0.82-3.23,1.81-7.96,1.81c-5.68,0-12.09-1.4-14.58-2c-0.19-0.05-0.39-0.07-0.59-0.07c-0.33,0-0.66,0.07-0.97,0.2l-0.46,0.2 l-0.56,0.24c-0.48,0.2-0.89,0.56-1.16,1.01c-4.7,7.74-4.7,9.11-4.7,9.77c0,2.05,1.29,3.38,3.28,3.38c0.28,0,0.51-0.03,0.66-0.05 c0.05-0.01,0.1-0.02,0.15-0.03c0.35-0.08,0.69-0.11,1.03-0.11c1.58,0,2.25,0.83,2.62,1.48l0,0l0.03,7.58 c-0.77-0.01-2.15-0.16-2.78-1c-0.01-0.01-0.02-0.03-0.03-0.04c-0.15-0.19-3.66-4.65-6.17-7.47c-1.81-2.04-1.64-3.01-1.51-3.73 c0.01-0.06,0.02-0.12,0.03-0.18c0.18-0.52,1.22-2.69,2.22-4.8c1.52-3.18,3.41-7.13,4.4-9.63c0.34-0.84,1.11-2.26,2.5-2.26 c0.18,0,0.37,0.03,0.61,0.09c0.09,0.02,0.18,0.04,0.27,0.06c3.6,0.53,7.52,1.07,9.3,1.07c0.18,0,0.35-0.01,0.49-0.02 c1.82-0.14,4.05-1.56,6.64-4.21c0.62-0.64,1.15-1.39,1.71-2.44C48.14,63.46,49.88,62.64,52.15,62.64 M52.15,60.14 c-3.22,0-5.76,1.3-6.97,3.57c-0.45,0.83-0.84,1.41-1.3,1.87c-2.03,2.08-3.91,3.38-5.04,3.46c-0.08,0.01-0.18,0.01-0.29,0.01 c-1.82,0-6.77-0.73-8.94-1.05c-0.45-0.12-0.85-0.18-1.25-0.18c-2.09,0-3.84,1.4-4.82,3.83c-0.97,2.43-2.84,6.34-4.34,9.49 c-1.88,3.93-2.36,4.97-2.42,5.41c-0.01,0.07-0.02,0.14-0.04,0.22c-0.18,1-0.51,2.87,2.11,5.81c2.47,2.78,6.04,7.31,6.07,7.36 c0.96,1.27,2.6,1.97,4.75,2h0c1.4,0,2.51-1.11,2.51-2.47v-7.61c0-0.43-0.1-0.84-0.3-1.19c-1.29-2.31-3.33-2.79-4.82-2.79 c-0.52,0-1.04,0.06-1.56,0.17l0,0c0,0-0.12,0.02-0.27,0.02c-0.59,0-0.78-0.21-0.78-0.88c0-0.23,0.21-1.68,4.33-8.47 c0.38-0.16,0.65-0.27,1.02-0.43c2.63,0.64,9.2,2.07,15.17,2.07c4.38,0,7.59-0.79,9.53-2.36c5.89-4.75,7.58-9.05,5.51-13.94 C59.01,61.76,55.78,60.14,52.15,60.14L52.15,60.14z" style="fill:#424242;"/>
    </g>
    <path d="M37.99,14.43c-0.82-0.87-1.83-1.54-2.96-1.91c-2.24-0.73-6.14-1.56-9.95-0.31 c-0.73,0.24-1.39,0.44-1.95,0.6c-1.2,0.35-1.44,1.95-0.4,2.64c1.68,1.13,4.14,2.27,6.99,2.02c0,0,9.17-1.29,9.75-1.14 C39.89,16.44,38.92,15.43,37.99,14.43z" style="fill:#B39DDB;"/>
    <g style="opacity:0.2;">
      <path d="M29.28,13.07L29.28,13.07c2.12,0,4.04,0.48,5.28,0.88c0.7,0.23,1.36,0.61,1.94,1.12 c-2.68,0.31-6.26,0.81-6.95,0.91c-0.21,0.02-0.42,0.03-0.64,0.03c-2.21,0-4.13-0.98-5.37-1.76c0.64-0.19,1.31-0.39,2-0.62 C26.69,13.26,27.95,13.07,29.28,13.07 M29.28,11.57c-1.35,0-2.78,0.18-4.2,0.64c-0.73,0.24-1.39,0.44-1.95,0.6 c-1.2,0.35-1.44,1.95-0.4,2.64c1.52,1.02,3.68,2.05,6.19,2.05c0.26,0,0.53-0.01,0.8-0.04c0,0,8.19-1.15,9.58-1.15 c0.08,0,0.14,0,0.17,0.01c0.02,0.01,0.04,0.01,0.05,0.01c0.27,0-0.65-0.96-1.54-1.91c-0.82-0.87-1.83-1.54-2.96-1.91 C33.62,12.07,31.56,11.57,29.28,11.57L29.28,11.57z" style="fill:#424242;"/>
    </g>
    <linearGradient id="SVGID_6_" gradientUnits="userSpaceOnUse" x1="50.7114" x2="50.7114" y1="6.9055" y2="121.7547">
      <stop offset="0" style="stop-color:#F8BBD0"/>
      <stop offset="0.0379" style="stop-color:#F8B7CD"/>
      <stop offset="0.4722" style="stop-color:#F389AD"/>
      <stop offset="0.8071" style="stop-color:#F16D99"/>
      <stop offset="1" style="stop-color:#F06292"/>
    </linearGradient>
    <path d="M96.06,58.4c-1.12-1.85-2.93-3.19-5.03-3.72C81,52.16,78.06,56.07,65.97,55.54 c-13.2-0.57-15.42-8.32-15.42-8.32c-0.01,0-0.01-0.01-0.02-0.01c-0.17-26.81-18-32.2-18-32.2c-1.41-4.5-3.72-6.38-5.33-6.96 c-0.61-0.22-1.24,0.27-1.18,0.92c0.15,1.48,0.4,4.22,0.55,5.73c0.07,0.68-0.44,1.24-1.11,1.33c-0.83,0.11-1.67,0.38-2.5,0.86 c0,0-1.91,0.85-5.17,4.13c-0.66,0.67-1.4,1.27-2.19,1.77c-1.9,1.22-5.44,3.32-7.68,3.7c-3.18,0.54-2.83,1.06-3.29,2.15 c-0.46,1.09-1.43,3.35,0.63,5.16c0,0,1.47-0.13,1.55,0.88c0.06,0.67,1.18,1.63,2.61,2.17c1.45,0.55,3.12,0.4,4.4-0.48 c0.55-0.38,1.07-0.91,1.34-1.64c0.75-2.05,4.28-0.38,5.28,0c0.55,0.21,3.76,0.77,7.18,0.7c0.6-0.01,1.07,0.52,0.98,1.11 c-1.73,11.86-5.98,18.27-7.57,25.79C18.88,72.55,32.93,87.61,47.88,89c18.75,1.75,25.54-6.81,30.25-8.62 C97.88,72.75,99.35,63.81,96.06,58.4z" style="fill:url(#SVGID_6_);"/>
    <linearGradient id="SVGID_7_" gradientUnits="userSpaceOnUse" x1="50.7114" x2="50.7114" y1="93.2557" y2="68.7267">
      <stop offset="0" style="stop-color:#F8BBD0"/>
      <stop offset="1" style="stop-color:#F8BBD0;stop-opacity:0"/>
    </linearGradient>
    <path d="M96.06,58.4c-1.12-1.85-2.93-3.19-5.03-3.72C81,52.16,78.06,56.07,65.97,55.54 c-13.2-0.57-15.42-8.32-15.42-8.32c-0.01,0-0.01-0.01-0.02-0.01c-0.17-26.81-18-32.2-18-32.2c-1.41-4.5-3.72-6.38-5.33-6.96 c-0.61-0.22-1.24,0.27-1.18,0.92c0.15,1.48,0.4,4.22,0.55,5.73c0.07,0.68-0.44,1.24-1.11,1.33c-0.83,0.11-1.67,0.38-2.5,0.86 c0,0-1.91,0.85-5.17,4.13c-0.66,0.67-1.4,1.27-2.19,1.77c-1.9,1.22-5.44,3.32-7.68,3.7c-3.18,0.54-2.83,1.06-3.29,2.15 c-0.46,1.09-1.43,3.35,0.63,5.16c0,0,1.47-0.13,1.55,0.88c0.06,0.67,1.18,1.63,2.61,2.17c1.45,0.55,3.12,0.4,4.4-0.48 c0.55-0.38,1.07-0.91,1.34-1.64c0.75-2.05,4.28-0.38,5.28,0c0.55,0.21,3.76,0.77,7.18,0.7c0.6-0.01,1.07,0.52,0.98,1.11 c-1.73,11.86-5.98,18.27-7.57,25.79C18.88,72.55,32.93,87.61,47.88,89c18.75,1.75,25.54-6.81,30.25-8.62 C97.88,72.75,99.35,63.81,96.06,58.4z" style="fill:url(#SVGID_7_);"/>
    <g>
      <defs>
        <path id="SVGID_8_" d="M96.06,58.4c-1.12-1.85-2.93-3.19-5.03-3.72C81,52.16,78.06,56.07,65.97,55.54 c-13.2-0.57-15.42-8.32-15.42-8.32c-0.01,0-0.01-0.01-0.02-0.01c-0.17-26.81-18-32.2-18-32.2c-1.41-4.5-3.72-6.38-5.33-6.96 c-0.61-0.22-1.24,0.27-1.18,0.92c0.15,1.48,0.4,4.22,0.55,5.73c0.07,0.68-0.44,1.24-1.11,1.33c-0.83,0.11-1.67,0.38-2.5,0.86 c0,0-1.91,0.85-5.17,4.13c-0.66,0.67-1.4,1.27-2.19,1.77c-1.9,1.22-5.44,3.32-7.68,3.7c-3.18,0.54-2.83,1.06-3.29,2.15 c-0.46,1.09-1.43,3.35,0.63,5.16c0,0,1.47-0.13,1.55,0.88c0.06,0.67,1.18,1.63,2.61,2.17c1.45,0.55,3.12,0.4,4.4-0.48 c0.55-0.38,1.07-0.91,1.34-1.64c0.75-2.05,4.28-0.38,5.28,0c0.55,0.21,3.76,0.77,7.18,0.7c0.6-0.01,1.07,0.52,0.98,1.11 c-1.73,11.86-5.98,18.27-7.57,25.79C18.88,72.55,32.93,87.61,47.88,89c18.75,1.75,25.54-6.81,30.25-8.62 C97.88,72.75,99.35,63.81,96.06,58.4z"/>
      </defs>
      <clipPath id="SVGID_9_">
        <use style="overflow:visible;" xlink:href="#SVGID_8_"/>
      </clipPath>
    </g>
    <linearGradient id="SVGID_10_" gradientUnits="userSpaceOnUse" x1="26.2356" x2="26.2356" y1="6.9055" y2="121.7547">
      <stop offset="0" style="stop-color:#F8BBD0"/>
      <stop offset="0.0379" style="stop-color:#F8B7CD"/>
      <stop offset="0.4722" style="stop-color:#F389AD"/>
      <stop offset="0.8071" style="stop-color:#F16D99"/>
      <stop offset="1" style="stop-color:#F06292"/>
    </linearGradient>
    <path d="M47.5,67.74c-0.99-2.32-4.21-3.94-7.85-3.94c-3.22,0-5.76,1.3-6.97,3.57 c-0.45,0.83-0.84,1.41-1.3,1.87c-2.03,2.08-3.91,3.38-5.04,3.46c-0.08,0.01-0.18,0.01-0.29,0.01c-1.82,0-6.77-0.73-8.94-1.05 c-0.45-0.12-0.85-0.18-1.25-0.18c-2.09,0-3.84,1.4-4.82,3.83c-0.97,2.43-2.84,6.34-4.34,9.49c-1.88,3.93-2.36,4.97-2.42,5.41 c-0.01,0.07-0.02,0.14-0.04,0.22c-0.18,1-0.51,2.87,2.11,5.81c2.47,2.78,6.04,7.31,6.07,7.36c0.96,1.27,2.6,1.97,4.75,2h0 c1.4,0,2.51-1.11,2.51-2.47v-7.61c0-0.43-0.1-0.84-0.3-1.19c-1.29-2.31-3.33-2.79-4.82-2.79c-0.52,0-1.04,0.06-1.56,0.17l0,0 c0,0-0.12,0.02-0.27,0.02c-0.59,0-0.78-0.21-0.78-0.88c0-0.23,0.21-1.68,4.33-8.47c0.38-0.16,0.65-0.27,1.02-0.43 c2.63,0.64,9.2,2.07,15.17,2.07c4.38,0,7.59-0.79,9.53-2.36C47.88,76.93,49.58,72.63,47.5,67.74z" style="fill:url(#SVGID_10_);"/>
    <g>
      <defs>
        <path id="SVGID_11_" d="M96.06,58.4c-1.12-1.85-2.93-3.19-5.03-3.72C81,52.16,78.06,56.07,65.97,55.54 c-13.2-0.57-15.42-8.32-15.42-8.32c-0.01,0-0.01-0.01-0.02-0.01c-0.17-26.81-18-32.2-18-32.2c-1.41-4.5-3.72-6.38-5.33-6.96 c-0.61-0.22-1.24,0.27-1.18,0.92c0.15,1.48,0.4,4.22,0.55,5.73c0.07,0.68-0.44,1.24-1.11,1.33c-0.83,0.11-1.67,0.38-2.5,0.86 c0,0-1.91,0.85-5.17,4.13c-0.66,0.67-1.4,1.27-2.19,1.77c-1.9,1.22-5.44,3.32-7.68,3.7c-3.18,0.54-2.83,1.06-3.29,2.15 c-0.46,1.09-1.43,3.35,0.63,5.16c0,0,1.47-0.13,1.55,0.88c0.06,0.67,1.18,1.63,2.61,2.17c1.45,0.55,3.12,0.4,4.4-0.48 c0.55-0.38,1.07-0.91,1.34-1.64c0.75-2.05,4.28-0.38,5.28,0c0.55,0.21,3.76,0.77,7.18,0.7c0.6-0.01,1.07,0.52,0.98,1.11 c-1.73,11.86-5.98,18.27-7.57,25.79C18.88,72.55,32.93,87.61,47.88,89c18.75,1.75,25.54-6.81,30.25-8.62 C97.88,72.75,99.35,63.81,96.06,58.4z"/>
      </defs>
      <clipPath id="SVGID_12_">
        <use style="overflow:visible;" xlink:href="#SVGID_11_"/>
      </clipPath>
    </g>
    <linearGradient id="SVGID_13_" gradientUnits="userSpaceOnUse" x1="92.948" x2="92.948" y1="6.9055" y2="121.7547">
      <stop offset="0" style="stop-color:#F8BBD0"/>
      <stop offset="0.0379" style="stop-color:#F8B7CD"/>
      <stop offset="0.4722" style="stop-color:#F389AD"/>
      <stop offset="0.8071" style="stop-color:#F16D99"/>
      <stop offset="1" style="stop-color:#F06292"/>
    </linearGradient>
    <path d="M114.07,97.24c-0.56-0.16-1.09-0.4-1.57-0.74c-3.43-2.43,1.12-9.62-10.25-15.25 c-0.61-0.3-0.97-0.95-0.59-1.52c4.44-6.49,3.96-23.8-12.16-26.36c-5.92-0.94-20.82-2.04-23.25,14.38 C63.62,85.5,80.31,91.78,88.5,91.25c5.75-0.38,10.3-0.08,11,0.62c3.68,3.69,5.11,7.84,5.92,9.85c0.25,0.62,0.45,1.27,0.57,1.93 c0.87,4.93,3.63,7.12,5.66,8.08c2.78,1.51,5.97,1.85,7.45,1.93c0.45,0.02,0.83-0.33,0.83-0.79c0-1.92-0.01-8.33-0.01-10.17 c0-0.58-0.1-1.15-0.29-1.7C118.4,97.54,114.81,97.45,114.07,97.24z" style="fill:url(#SVGID_13_);"/>
    <g style="opacity:0.2;">
      <path d="M28.91,12.91c0.43,0.73,0.86,1.66,1.24,2.85c0.24,0.78,0.87,1.39,1.65,1.64 c0.66,0.21,16.08,5.34,16.23,29.83c0,0.39,0.09,0.76,0.26,1.1c0.72,1.85,4.36,9.14,17.57,9.72c0.78,0.03,1.56,0.05,2.31,0.05 c2.05,0,4.05-0.13,6.1-0.39c0.32-0.04,0.63-0.14,0.91-0.3c2.34-1.32,5.3-1.98,8.8-1.98c1.6,0,3.32,0.14,5.11,0.43 c6.77,1.07,9.79,5.01,11.13,8.12c2.22,5.15,1.42,11.35-0.64,14.36c-0.56,0.82-0.74,1.8-0.49,2.76c0.27,1.03,1.01,1.91,2.03,2.41 c6.23,3.08,6.72,6.27,7.2,9.36c0.31,1.98,0.65,4.23,2.71,5.69c0.69,0.49,1.47,0.86,2.33,1.1c0.23,0.07,0.46,0.11,0.72,0.15 c1.64,0.28,2.69,0.71,3.16,2.04c0.1,0.28,0.15,0.57,0.15,0.86l0,5l0,3.27c-1.34-0.21-3.06-0.62-4.59-1.45 c-0.04-0.02-0.08-0.04-0.12-0.06c-1.57-0.74-3.59-2.43-4.26-6.25c-0.14-0.79-0.37-1.58-0.71-2.42l-0.2-0.5 c-0.88-2.24-2.52-6.41-6.27-10.18c-0.57-0.57-1.52-1.52-8.05-1.52c-1.53,0-3.17,0.06-4.89,0.17c-0.26,0.02-0.54,0.03-0.82,0.03 c-4.26,0-10.4-1.87-14.53-6.05c-0.48-0.49-1.13-0.74-1.78-0.74c-0.43,0-0.86,0.11-1.25,0.33c-3.28,1.89-8.64,4.41-17.21,4.41 c-1.49,0-3.05-0.08-4.64-0.22c-4.16-0.39-8.5-1.98-12.55-4.62c-0.41-0.26-0.88-0.4-1.36-0.4c-0.04,0-0.09,0-0.13,0 c-0.56,0.03-1.08,0.04-1.6,0.04c-5.68,0-12.09-1.4-14.58-2c-0.19-0.05-0.39-0.07-0.59-0.07c-0.33,0-0.66,0.07-0.97,0.2l-0.74,0.31 L15.3,80.1c-0.48,0.2-0.89,0.56-1.16,1.01c-4.7,7.74-4.7,9.11-4.7,9.77c0,2.05,1.29,3.38,3.28,3.38c0.28,0,0.51-0.03,0.65-0.05 c0.05-0.01,0.1-0.02,0.15-0.03c0.35-0.08,0.69-0.11,1.03-0.11c1.58,0,2.25,0.83,2.62,1.48l0,0l0.03,7.58 c-0.77-0.01-2.15-0.16-2.78-1c-0.01-0.01-0.02-0.03-0.03-0.04c-0.04-0.05-3.64-4.63-6.17-7.47c-1.81-2.04-1.64-3.01-1.51-3.73 c0.01-0.06,0.02-0.12,0.03-0.18c0.18-0.52,1.22-2.69,2.22-4.8c1.52-3.18,3.41-7.13,4.4-9.63c0.34-0.84,1.11-2.26,2.5-2.26 c0.18,0,0.37,0.03,0.61,0.09c0.09,0.02,0.18,0.04,0.27,0.06c1.27,0.19,3.93,0.58,6.13,0.83c0.09,0.01,0.19,0.02,0.28,0.02 c0.83,0,1.61-0.41,2.08-1.11c0.52-0.78,0.56-1.78,0.11-2.6c-1.72-3.13-2.36-6.04-1.86-8.43c0.6-2.84,1.61-5.52,2.77-8.61 c1.76-4.68,3.76-9.99,4.83-17.34c0.15-1-0.15-2.01-0.81-2.77c-0.66-0.76-1.62-1.2-2.62-1.2c-0.02,0-0.06,0-0.07,0 c-0.19,0-0.37,0.01-0.56,0.01c-2.83,0-5.27-0.43-5.74-0.56c-0.08-0.03-0.17-0.07-0.27-0.11c-1.25-0.5-2.7-1.04-4.18-1.04 c-1.91,0-3.42,0.99-4.02,2.64c-0.05,0.15-0.19,0.3-0.41,0.44c-0.34,0.24-0.77,0.36-1.23,0.36c-0.3,0-0.6-0.05-0.88-0.16 c-0.51-0.19-0.89-0.44-1.09-0.61c-0.32-1.26-1.3-2.16-2.67-2.48c-0.11-0.34-0.01-0.84,0.39-1.8c0.06-0.14,0.11-0.27,0.15-0.39 c0.23-0.07,0.62-0.16,1.26-0.27c2.03-0.35,4.93-1.71,8.6-4.06c0.93-0.59,1.81-1.31,2.62-2.11c2.78-2.8,4.42-3.62,4.42-3.62l0,0 c0.08-0.04,0.16-0.08,0.23-0.12c0.51-0.3,1.03-0.48,1.57-0.55c2.04-0.26,3.48-2.05,3.28-4.06C29.02,14.02,28.97,13.49,28.91,12.91 M26.9,8c-0.5,0-0.93,0.44-0.88,0.98c0.15,1.48,0.4,4.22,0.55,5.73c0.07,0.68-0.44,1.24-1.11,1.33c-0.83,0.11-1.67,0.38-2.5,0.86 c0,0-1.91,0.85-5.17,4.13c-0.66,0.67-1.4,1.27-2.19,1.77c-1.9,1.22-5.44,3.32-7.68,3.7c-3.18,0.54-2.83,1.06-3.29,2.15 c-0.46,1.09-1.43,3.35,0.63,5.16c0,0,0.06-0.01,0.15-0.01c0.38,0,1.33,0.08,1.4,0.89c0.06,0.67,1.18,1.63,2.61,2.17 c0.57,0.21,1.16,0.32,1.76,0.32c0.93,0,1.86-0.26,2.64-0.8c0.55-0.38,1.07-0.91,1.34-1.64c0.28-0.75,0.92-1,1.68-1 c1.32,0,2.97,0.76,3.61,1c0.52,0.2,3.38,0.71,6.57,0.71c0.2,0,0.41,0,0.61-0.01c0.01,0,0.01,0,0.02,0c0.59,0,1.04,0.53,0.96,1.11 c-1.73,11.86-5.98,18.27-7.57,25.79c-0.66,3.11,0.2,6.67,2.11,10.15c-2.12-0.24-4.65-0.61-6.04-0.82 c-0.45-0.12-0.85-0.18-1.25-0.18c-2.09,0-3.84,1.4-4.82,3.83c-0.97,2.43-2.84,6.34-4.34,9.49c-1.88,3.93-2.36,4.97-2.42,5.41 c-0.01,0.07-0.02,0.14-0.04,0.22c-0.18,1-0.51,2.87,2.11,5.81c2.47,2.78,6.04,7.31,6.07,7.36c0.96,1.27,2.6,1.97,4.75,2h0 c1.4,0,2.51-1.11,2.51-2.47v-7.61c0-0.43-0.1-0.84-0.3-1.19c-1.29-2.31-3.33-2.79-4.82-2.79c-0.52,0-1.04,0.06-1.56,0.17l0,0 c0,0-0.12,0.02-0.27,0.02c-0.59,0-0.78-0.21-0.78-0.88c0-0.23,0.21-1.68,4.33-8.47c0.38-0.16,0.65-0.27,1.02-0.43 c2.63,0.64,9.2,2.07,15.17,2.07c0.6,0,1.18-0.02,1.73-0.05c4.12,2.68,8.85,4.56,13.68,5.01c1.72,0.16,3.35,0.23,4.87,0.23 c8.72,0,14.39-2.4,18.46-4.75c4.7,4.77,11.58,6.79,16.31,6.79c0.34,0,0.67-0.01,0.98-0.03c1.7-0.11,3.3-0.16,4.73-0.16 c3.38,0,5.78,0.29,6.27,0.79c3.68,3.69,5.11,7.84,5.92,9.85c0.25,0.62,0.45,1.27,0.57,1.93c0.87,4.93,3.63,7.12,5.66,8.08 c2.78,1.51,5.97,1.85,7.45,1.93c0.01,0,0.03,0,0.04,0c0.43,0,0.79-0.35,0.79-0.79c0-1.92-0.01-8.33-0.01-10.17 c0-0.58-0.1-1.15-0.29-1.7c-1.23-3.46-4.81-3.55-5.56-3.76c-0.56-0.16-1.09-0.4-1.57-0.74c-3.43-2.43,1.12-9.62-10.25-15.25 c-0.61-0.3-0.97-0.95-0.59-1.52c4.44-6.49,3.96-23.8-12.16-26.36c-1.42-0.22-3.35-0.46-5.51-0.46c-3.18,0-6.84,0.51-10.03,2.31 c-1.69,0.21-3.57,0.37-5.79,0.37c-0.7,0-1.43-0.02-2.21-0.05c-13.2-0.57-15.42-8.32-15.42-8.32c-0.01,0-0.01-0.01-0.02-0.01 c-0.17-26.81-18-32.2-18-32.2c-1.41-4.5-3.72-6.38-5.33-6.96C27.11,8.02,27,8,26.9,8L26.9,8z" style="fill:#424242;"/>
    </g>
    <linearGradient id="SVGID_14_" gradientUnits="userSpaceOnUse" x1="59.1548" x2="59.1548" y1="101.5" y2="72.2896">
      <stop offset="0" style="stop-color:#D1C4E9"/>
      <stop offset="0.4182" style="stop-color:#B39CDB"/>
      <stop offset="0.7827" style="stop-color:#9D80D1"/>
      <stop offset="0.9928" style="stop-color:#9575CD"/>
    </linearGradient>
    <path d="M58.38,64.5c0,0,0.56,13.25-5.31,24.75c0,0,3.69,0.38,8.5-0.75c0,0,4.81-13.12,3.44-24.88 L58.38,64.5z" style="fill:url(#SVGID_14_);"/>
    <path d="M52.33,50.42c0,0-3.5-1-3.32,18.66c0.01,1.57,1.35,2.8,2.92,2.84c5.14,0.13,19.77,1.67,26.99,3.33 c1.5,0.35,3-0.78,2.98-2.32c-0.15-14.52,6.02-19.77,6.02-19.77S62.25,56.17,52.33,50.42z" style="fill:#B39DDB;"/>
    <linearGradient id="SVGID_15_" gradientUnits="userSpaceOnUse" x1="69.4471" x2="69.4471" y1="52.5" y2="68.6976">
      <stop offset="0" style="stop-color:#EDE7F6"/>
      <stop offset="0.1962" style="stop-color:#E6DEF3"/>
      <stop offset="0.5137" style="stop-color:#D3C6EA"/>
      <stop offset="0.5391" style="stop-color:#D1C4E9"/>
      <stop offset="0.7953" style="stop-color:#C2B0E2"/>
      <stop offset="1" style="stop-color:#B39DDB"/>
    </linearGradient>
    <path d="M86.1,48.41c-19.57,8.44-27.38,4.03-33.02,1.71c-1.24-0.51-1.61,0.36-1.61,0.36 c-2.21,4.08-1.39,10.78,0.74,12.25c7.42,5.1,16.95,4.47,24.28,2.35s12.53-12.41,12.24-14.74C88.42,47.99,86.1,48.41,86.1,48.41z" style="fill:url(#SVGID_15_);"/>
    <g style="opacity:0.2;">
      <path d="M86.5,49.88c0.6,0,0.68,0.24,0.73,0.63c0.07,0.82-1.35,4.61-4.42,8.24 c-0.11,0.13-0.2,0.28-0.26,0.44c-1.48,3.95-2.21,8.58-2.15,13.75c0,0.27-0.13,0.46-0.24,0.58c-0.18,0.18-0.43,0.29-0.69,0.29 c-0.07,0-0.14-0.01-0.22-0.02c-7.11-1.64-21.82-3.23-27.29-3.37c-0.8-0.02-1.45-0.63-1.46-1.36c-0.1-11.6,1.08-15.51,1.8-16.81 c0.03-0.06,0.06-0.12,0.09-0.18c0.08-0.2,0.15-0.37,0.22-0.53c0.31,0.13,0.62,0.26,0.94,0.4c3.06,1.3,6.87,2.92,12.67,2.92 c5.81,0,12.44-1.63,20.26-4.98C86.48,49.88,86.49,49.88,86.5,49.88 M86.5,48.38c-0.24,0-0.4,0.03-0.4,0.03 c-8.65,3.73-15,4.95-19.88,4.95c-6.17,0-9.99-1.95-13.14-3.25c-0.28-0.12-0.52-0.16-0.72-0.16c-0.67,0-0.89,0.52-0.89,0.52 c-0.18,0.33-0.33,0.69-0.48,1.06c-0.97,1.75-2.09,6.22-1.98,17.55c0.01,1.57,1.35,2.8,2.92,2.84c5.14,0.13,19.77,1.67,26.99,3.33 c0.19,0.04,0.37,0.06,0.55,0.06c1.3,0,2.44-1.03,2.43-2.38c-0.06-5.81,0.89-10.11,2.06-13.21c3.1-3.66,4.94-7.98,4.76-9.39 C88.5,48.61,87.18,48.38,86.5,48.38L86.5,48.38z" style="fill:#424242;"/>
    </g>
    <linearGradient id="SVGID_16_" gradientUnits="userSpaceOnUse" x1="57.2674" x2="37.4991" y1="23.4569" y2="40.6412">
      <stop offset="0" style="stop-color:#D1C4E9"/>
      <stop offset="0.4182" style="stop-color:#B39CDB"/>
      <stop offset="0.7827" style="stop-color:#9D80D1"/>
      <stop offset="0.9928" style="stop-color:#9575CD"/>
    </linearGradient>
    <path d="M30.85,11.31c0,0,22.66-1.97,26.91,24.82c0.23,1.46,0.32,2.94,0.36,4.42 c0.09,2.81,1.2,8.03,4.37,11.7c0.82,0.95,0.04,2.35-1.21,2.16c-9.12-1.36-26.68-7.88-26.59-28.03c0.01-1.78-0.13-3.55-0.5-5.29 C33.66,18.58,32.73,14.86,30.85,11.31z" style="fill:url(#SVGID_16_);"/>
    <linearGradient id="SVGID_17_" gradientUnits="userSpaceOnUse" x1="45.6392" x2="45.6392" y1="-6.5" y2="67.8593">
      <stop offset="0" style="stop-color:#B39DDB"/>
      <stop offset="0.3662" style="stop-color:#9B7ED0"/>
      <stop offset="0.7678" style="stop-color:#8662C6"/>
      <stop offset="1" style="stop-color:#7E57C2"/>
    </linearGradient>
    <path d="M36.42,16.16c-0.36-0.4-0.07-1.04,0.47-1c3.46,0.28,11.87,2.36,13.89,15.68 c0.64,4.2,0.26,10.21,4.13,16.67c0.31,0.52-0.19,1.15-0.77,0.94c-3.49-1.28-14.26-7.23-14.18-20.87 C40.01,21.65,39.21,19.22,36.42,16.16z" style="fill:url(#SVGID_17_);"/>
    <g style="opacity:0.2;">
      <path d="M33.23,12.82c5.96,0.36,19.85,3.4,23.05,23.55c0.23,1.47,0.31,2.96,0.35,4.23 c0.11,3.32,1.33,8.45,4.42,12.26c-3.06-0.5-9.81-2.07-15.59-6.6c-6.19-4.84-9.3-11.52-9.26-19.87c0.01-2.06-0.16-3.89-0.53-5.61 C35.23,18.71,34.52,15.81,33.23,12.82 M31.88,11.28c-0.66,0-1.03,0.03-1.03,0.03c1.88,3.54,2.81,7.26,3.35,9.78 c0.37,1.74,0.51,3.51,0.5,5.29c-0.1,20.14,17.47,26.67,26.59,28.03c0.08,0.01,0.15,0.02,0.22,0.02c1.11,0,1.76-1.28,0.99-2.18 c-3.17-3.67-4.28-8.89-4.37-11.7c-0.05-1.48-0.13-2.96-0.36-4.42C54.06,12.78,36.35,11.28,31.88,11.28L31.88,11.28z" style="fill:#424242;"/>
    </g>
  </g>
</svg>