<svg width="128" height="128" style="enable-background:new 0 0 128 128;" xmlns="http://www.w3.org/2000/svg" xmlns:xlink="http://www.w3.org/1999/xlink">
  <g>
    <g style="opacity:0.2;">
      <path d="M69.77,28c1.09,0,1.96,0.91,1.91,2l-1.05,24.48c-0.05,1.13,0.87,2,1.91,2 c0.23,0,0.46-0.04,0.69-0.13l20.34-7.87c0.23-0.09,0.46-0.13,0.69-0.13c0.81,0,1.57,0.52,1.83,1.34l3.34,10.62 c0.32,1.03-0.27,2.12-1.3,2.41l-21.48,6.09c-1.29,0.37-1.81,1.92-1.01,2.99L89.6,90.38c0.64,0.85,0.46,2.06-0.4,2.69l-8.96,6.55 C79.9,99.88,79.5,100,79.11,100c-0.64,0-1.26-0.32-1.62-0.9L65.05,79.2c-0.37-0.6-1-0.9-1.62-0.9c-0.62,0-1.24,0.29-1.61,0.88 L49.55,98.41c-0.37,0.57-0.98,0.88-1.61,0.88c-0.38,0-0.76-0.11-1.09-0.35l-9.01-6.29c-0.89-0.62-1.09-1.86-0.43-2.73l14.5-19.06 c0.81-1.07,0.3-2.62-0.99-3l-21.05-6.07c-1.04-0.3-1.62-1.4-1.29-2.43l3.38-10.39c0.26-0.81,1.02-1.32,1.82-1.32 c0.23,0,0.46,0.04,0.69,0.13l20.78,8.04c0.23,0.09,0.47,0.13,0.69,0.13c1.04,0,1.96-0.87,1.91-2L56.81,30 c-0.05-1.09,0.82-2,1.91-2H69.77 M69.77,25H58.72c-1.33,0-2.63,0.55-3.55,1.52c-0.92,0.96-1.42,2.28-1.36,3.61l0.97,22.31 L35.56,45c-0.57-0.22-1.17-0.33-1.77-0.33c-2.13,0-4.01,1.36-4.67,3.39l-3.38,10.39c-0.41,1.26-0.29,2.65,0.33,3.82 c0.62,1.17,1.71,2.05,2.98,2.42l19.53,5.63L35.03,88.11c-0.81,1.06-1.15,2.42-0.94,3.73c0.21,1.31,0.95,2.51,2.04,3.27l9.01,6.29 c0.83,0.58,1.8,0.89,2.81,0.89c1.69,0,3.24-0.85,4.14-2.27l11.34-17.77l11.52,18.44c0.9,1.45,2.46,2.31,4.17,2.31 c1.05,0,2.05-0.33,2.9-0.95l8.96-6.55c1.07-0.78,1.77-1.93,1.96-3.24c0.19-1.31-0.14-2.62-0.93-3.67L78.98,71.26l19.96-5.66 c1.29-0.37,2.35-1.21,2.98-2.39c0.64-1.18,0.77-2.53,0.36-3.81l-3.34-10.62c-0.65-2.06-2.53-3.44-4.69-3.44 c-0.61,0-1.2,0.11-1.77,0.33L73.7,52.94l0.98-22.82c0.06-1.33-0.44-2.65-1.36-3.61C72.4,25.55,71.1,25,69.77,25L69.77,25z" style="fill:#424242;"/>
    </g>
    <path d="M50.92,67.87l-21.05-6.07c-1.04-0.3-1.62-1.4-1.29-2.43l3.38-10.39c0.34-1.04,1.49-1.59,2.51-1.19 l20.78,8.04c1.29,0.5,2.66-0.49,2.6-1.87L56.81,30c-0.05-1.09,0.82-2,1.91-2h11.05c1.09,0,1.96,0.91,1.91,2l-1.05,24.48 c-0.06,1.38,1.32,2.36,2.6,1.87l20.34-7.87c1.03-0.4,2.18,0.16,2.52,1.21l3.34,10.62c0.32,1.03-0.27,2.12-1.3,2.41l-21.48,6.09 c-1.29,0.37-1.81,1.92-1.01,2.99L89.6,90.38c0.64,0.85,0.46,2.06-0.4,2.69l-8.96,6.55c-0.9,0.66-2.16,0.41-2.75-0.53L65.05,79.2 c-0.75-1.19-2.48-1.2-3.23-0.02L49.55,98.41c-0.59,0.92-1.82,1.16-2.71,0.54l-9.01-6.29c-0.89-0.62-1.09-1.86-0.43-2.73 l14.5-19.06C52.73,69.8,52.22,68.25,50.92,67.87z" style="fill:#FAFAFA;"/>
  </g>
</svg>