<?xml version="1.0" encoding="UTF-8" standalone="no"?>
<!DOCTYPE svg PUBLIC "-//W3C//DTD SVG 1.1//EN" "http://www.w3.org/Graphics/SVG/1.1/DTD/svg11.dtd">
<svg width="100%" height="100%" viewBox="0 0 128 128" version="1.1" xmlns="http://www.w3.org/2000/svg" xmlns:xlink="http://www.w3.org/1999/xlink" xml:space="preserve" xmlns:serif="http://www.serif.com/" style="fill-rule:evenodd;clip-rule:evenodd;stroke-linecap:round;stroke-linejoin:round;stroke-miterlimit:10;">
    <path d="M83.59,121.86C79.85,121.86 76.55,121.22 73.77,119.97C70.28,118.39 66.18,116.09 62.21,113.87C54.81,109.73 47.16,105.44 41.95,104.86C40.1,104.66 37.61,104.59 34.74,104.52C26.21,104.3 13.31,103.98 9.42,99.09C3.17,91.23 4.35,84.21 8.72,74.01C14.26,61.09 14.38,52.73 14.11,39.06C13.95,30.88 13.42,21.72 13.01,15.48C12.93,14.2 13.36,12.99 14.23,12.05C15.11,11.11 16.29,10.6 17.58,10.6L46.86,10.61C48.1,10.61 49.26,11.1 50.13,11.98C51,12.86 51.46,14.03 51.44,15.26C51.18,29.66 51.33,54.79 55.22,61.38C60.44,70.22 69.01,79.1 73.96,82.27C76.3,83.77 78.41,85.82 80.45,87.82C81.25,88.61 82.06,89.39 82.87,90.13C86.09,93.1 89.3,95.02 93.95,96.76C94.37,96.92 94.77,97.07 95.17,97.23C97.2,98.02 99.11,98.77 101.47,98.97C101.94,99.01 102.56,99.03 103.4,99.03C104.15,99.03 105,99.01 105.87,99C106.76,98.98 107.67,98.97 108.51,98.97C109.75,98.97 110.61,99.01 111.13,99.09C112.8,99.34 114.27,100.12 115.57,100.81C116.9,101.51 118.04,102.12 119.25,102.12C119.77,102.12 120.27,102 120.71,101.77C120.82,101.8 121.11,101.9 121.62,102.27C122.57,102.96 123.07,105.06 122.5,105.94L122.11,106.55C121.54,107.44 121.16,108.45 120.99,109.57C120.77,111 120.12,112.92 118.28,113.96C117.62,114.33 117.01,114.81 116.49,115.38C115.91,116 114.88,116.8 113.2,117.07C112.4,117.2 111.66,117.44 111.01,117.78C110.24,118.17 109.01,118.69 107.5,118.89C106.19,119.07 104.93,119.59 103.84,120.41C102.99,121.05 101.67,121.82 100.17,121.82C99.94,121.82 99.7,121.8 99.47,121.76C98.43,121.59 97.83,121.39 97.51,121.25C96.44,120.79 95.35,120.55 94.27,120.55C93.72,120.55 93.17,120.61 92.65,120.74C90.5,121.26 87.21,121.86 83.59,121.86Z" style="fill:rgb(252,194,27);fill-rule:nonzero;"/>
    <g>
        <clipPath id="_clip1">
            <path d="M83.59,121.86C79.85,121.86 76.55,121.22 73.77,119.97C70.28,118.39 66.18,116.09 62.21,113.87C54.81,109.73 47.16,105.44 41.95,104.86C40.1,104.66 37.61,104.59 34.74,104.52C26.21,104.3 13.31,103.98 9.42,99.09C3.17,91.23 4.35,84.21 8.72,74.01C14.26,61.09 14.38,52.73 14.11,39.06C13.95,30.88 13.42,21.72 13.01,15.48C12.93,14.2 13.36,12.99 14.23,12.05C15.11,11.11 16.29,10.6 17.58,10.6L46.86,10.61C48.1,10.61 49.26,11.1 50.13,11.98C51,12.86 51.46,14.03 51.44,15.26C51.18,29.66 51.33,54.79 55.22,61.38C60.44,70.22 69.01,79.1 73.96,82.27C76.3,83.77 78.41,85.82 80.45,87.82C81.25,88.61 82.06,89.39 82.87,90.13C86.09,93.1 89.3,95.02 93.95,96.76C94.37,96.92 94.77,97.07 95.17,97.23C97.2,98.02 99.11,98.77 101.47,98.97C101.94,99.01 102.56,99.03 103.4,99.03C104.15,99.03 105,99.01 105.87,99C106.76,98.98 107.67,98.97 108.51,98.97C109.75,98.97 110.61,99.01 111.13,99.09C112.8,99.34 114.27,100.12 115.57,100.81C116.9,101.51 118.04,102.12 119.25,102.12C119.77,102.12 120.27,102 120.71,101.77C120.82,101.8 121.11,101.9 121.62,102.27C122.57,102.96 123.07,105.06 122.5,105.94L122.11,106.55C121.54,107.44 121.16,108.45 120.99,109.57C120.77,111 120.12,112.92 118.28,113.96C117.62,114.33 117.01,114.81 116.49,115.38C115.91,116 114.88,116.8 113.2,117.07C112.4,117.2 111.66,117.44 111.01,117.78C110.24,118.17 109.01,118.69 107.5,118.89C106.19,119.07 104.93,119.59 103.84,120.41C102.99,121.05 101.67,121.82 100.17,121.82C99.94,121.82 99.7,121.8 99.47,121.76C98.43,121.59 97.83,121.39 97.51,121.25C96.44,120.79 95.35,120.55 94.27,120.55C93.72,120.55 93.17,120.61 92.65,120.74C90.5,121.26 87.21,121.86 83.59,121.86Z" clip-rule="nonzero"/>
        </clipPath>
        <g clip-path="url(#_clip1)">
            <path d="M121.151,108.258C120.593,107.541 119.331,106.466 117.827,105.533C116.574,104.757 115.153,104.098 113.837,103.806C113.36,103.719 112.903,104.036 112.816,104.513C112.729,104.99 113.046,105.447 113.523,105.534C114.691,105.7 115.97,106.193 117.116,106.786C118.526,107.517 119.741,108.379 120.289,108.982C120.489,109.22 120.845,109.251 121.082,109.051C121.32,108.851 121.351,108.495 121.151,108.258Z" style="fill:rgb(255,143,0);"/>
            <path d="M118.086,113.836C117.592,112.945 114.897,110.024 112.015,107.76C110.209,106.341 108.318,105.202 106.844,104.887C106.368,104.797 105.908,105.11 105.817,105.586C105.727,106.062 106.04,106.522 106.516,106.613C107.814,106.829 109.482,107.797 111.113,108.963C113.924,110.974 116.611,113.585 117.114,114.404C117.271,114.672 117.616,114.763 117.884,114.606C118.152,114.449 118.243,114.104 118.086,113.836Z" style="fill:rgb(255,143,0);"/>
            <path d="M112.913,117.006C112.924,116.647 112.703,116.121 112.236,115.514C111.482,114.537 110.055,113.232 108.406,111.928C105.423,109.57 101.707,107.247 99.97,106.805C99.498,106.695 99.025,106.988 98.915,107.46C98.805,107.932 99.098,108.405 99.57,108.515C100.963,108.812 103.728,110.378 106.287,112.121C108.265,113.468 110.119,114.923 111.124,116.029C111.501,116.444 111.785,116.753 111.787,116.994C111.784,117.304 112.033,117.559 112.344,117.563C112.654,117.566 112.909,117.317 112.913,117.006Z" style="fill:rgb(255,143,0);"/>
            <path d="M105.742,119.351C105.762,119.015 105.363,118.235 104.714,117.387C103.685,116.042 102.114,114.401 101.681,114.081C101.255,113.77 99.13,112.427 96.999,111.42C95.691,110.802 94.375,110.326 93.415,110.234C92.932,110.198 92.51,110.561 92.474,111.045C92.438,111.528 92.801,111.95 93.285,111.986C94.097,112.029 95.217,112.413 96.343,112.888C98.402,113.757 100.472,114.94 100.884,115.215C101.189,115.421 102.116,116.308 102.979,117.24C103.585,117.895 104.162,118.569 104.464,119.055C104.536,119.172 104.619,119.246 104.618,119.309C104.606,119.619 104.848,119.881 105.159,119.892C105.469,119.904 105.731,119.662 105.742,119.351Z" style="fill:rgb(255,143,0);"/>
        </g>
    </g>
    <path d="M24.06,68.69C21.93,71.21 20.91,74.65 21.34,77.93C21.77,81.21 23.62,84.27 26.33,86.17" style="fill:none;fill-rule:nonzero;stroke:rgb(255,143,0);stroke-width:3px;"/>
</svg>
