<?xml version="1.0" encoding="utf-8"?>
<!-- Generator: Adobe Illustrator 25.2.3, SVG Export Plug-In . SVG Version: 6.00 Build 0)  -->
<svg version="1.1" id="Layer_1" xmlns="http://www.w3.org/2000/svg" xmlns:xlink="http://www.w3.org/1999/xlink" x="0px" y="0px"
	 viewBox="0 0 128 128" style="enable-background:new 0 0 128 128;" xml:space="preserve">
<linearGradient id="hand_1_" gradientUnits="userSpaceOnUse" x1="35.4746" y1="70.1994" x2="-0.2643" y2="96.7244">
	<stop  offset="0.1685" style="stop-color:#70534A"/>
	<stop  offset="0.8723" style="stop-color:#5C4037"/>
</linearGradient>
<path id="hand" style="fill:url(#hand_1_);" d="M3.23,104.13c0,0,7.73-10.22,16.38-11.43c8.65-1.21,22.02,1.21,26.95,3.35
	c4.93,2.14,9.58,7.53,11.53,8c1.95,0.47,3.91-1.3,3.91-1.3c3.16-11.26-10.12-17.02-14.98-19.07C22.75,73.45,27.45,56.39,29.07,52.7
	c4.29-9.77,14.88-10.33,14.88-10.33s6.84,0.05,9.34,4.14c1.51,2.47,2.7,5.41,3.75,7.22c1.39,2.38,7.07,3.25,7.07,0.04
	c0-4.26-2.28-22.74-5.44-25.26s-14.39-10.9-17.33-9.95c-3.8,1.22-24.6,12.95-28.65,16.3S3.23,45.68,3.23,45.68V104.13z"/>
<linearGradient id="hand_2_" gradientUnits="userSpaceOnUse" x1="138.2533" y1="70.1994" x2="102.5144" y2="96.7244" gradientTransform="matrix(-1 0 0 1 230.7787 0)">
	<stop  offset="0.1685" style="stop-color:#70534A"/>
	<stop  offset="0.8723" style="stop-color:#5C4037"/>
</linearGradient>
<path id="hand_5_" style="fill:url(#hand_2_);" d="M124.77,104.13c0,0-7.73-10.22-16.38-11.43c-8.65-1.21-22.02,1.21-26.95,3.35
	c-4.93,2.14-9.58,7.53-11.53,8c-1.95,0.47-3.91-1.3-3.91-1.3C62.84,91.5,76.12,85.73,80.98,83.68
	c24.28-10.23,19.57-27.29,17.95-30.98c-4.29-9.77-14.88-10.33-14.88-10.33s-6.84,0.05-9.34,4.14c-1.51,2.47-2.7,5.41-3.75,7.22
	c-1.39,2.38-7.07,3.25-7.07,0.04c0-4.26,2.28-22.74,5.44-25.26c3.16-2.51,14.39-10.9,17.33-9.95c3.8,1.22,24.6,12.95,28.65,16.3
	c4.05,3.35,9.47,10.81,9.47,10.81V104.13z"/>
<path id="tone" style="fill:#4A2F27;" d="M64.74,54.61l0.01-9.2c0-2.26-2.33-14.05-5.1-17.5c-1.78-2.2-6.57-5.24-11.33-8.15
	c-0.88-0.54-1.61-0.98-2.07-1.29c-2.26-1.48-5.25-1.39-8.88,0.27c-7.89,3.6-21.81,12.19-24.22,14.13
	c-4.08,3.28-7.07,7.53-9.92,11.68v4.34c3.34-4.12,8.06-10.68,11.8-13.69c2.27-1.82,16.03-10.3,23.58-13.74
	c2.64-1.2,4.65-1.36,6-0.49c0.48,0.31,1.23,0.78,2.14,1.33c3.13,1.92,8.96,5.49,10.56,7.48c0.92,1.14,1.73,3.09,2.35,5.03
	c-1.33-0.96-3.18-2.23-5-3.49c-2.19-1.51-4.26-2.94-5.17-3.63c-4.98-3.76-10.92-2.03-13.24-1.11c-2.47,0.98-9.99,6.17-11.43,7.05
	c-2.41,1.48-3.9,3.39-3.99,3.85c-0.09,0.47,3.12-1.26,3.12-1.26c0.12-0.07,10.39-5.67,13.41-6.86c2.3-0.91,6.7-2.02,10.33,0.72
	c0.96,0.73,3.06,2.17,5.27,3.7c2.59,1.79,5.52,3.81,6.4,4.53c0.99,0.81,2.08,1.21,2.59,5.35l1.07,8.93c0,1.72-1.93,1.86-2.56,1.64
	c-3.81-1.36-4.01-4.47-4.45-5.86c-0.49-1.53-0.95-2.97-1.9-3.88c-1.82-1.74-8.8-3.86-11.49-3.5c-3.39,0.46-13.6,4.11-15.96,14.52
	c-1.43,6.3,0.37,15.38,6.56,20.57c6.28,5.26,11.43,7.93,15.98,10.29l1.33,0.69c3.71,1.89,7.91,4.04,10.2,9.55
	c0.72,1.72,0.82,4.12-0.38,5.38c-0.48,0.5-1.39,0.53-1.94,0.06c-5.92-4.97-15.77-11.51-32.83-10.92c-3.47,0.12-9.98,0.96-15.43-4.15
	c-0.98-0.92-1.79-1.87-2.3-2.5c-0.19-0.23-0.57-0.12-0.58,0.18c-0.18,3.54,4.63,7.79,6.98,8.23c-4.89,2.45-8.9,6.59-11.01,9.06v4.54
	c3.2-3.75,10.64-11.64,17.22-12.49c1.96,0.17,3.78,0.17,5.23,0.12c16.05-0.53,25.26,5.57,30.8,10.22c0.82,0.69,1.85,1.03,2.88,1.03
	c1.17,0,2.33-0.44,3.16-1.31c2.2-2.3,2.08-5.98,0.98-8.61c-2.72-6.52-7.86-9.15-11.61-11.06l-1.31-0.68
	c-4.63-2.4-9.41-4.88-15.44-9.93c-5.21-4.36-6.76-12.33-5.56-17.6C31.91,45.93,42.91,44,43.02,43.99c1.92-0.25,7.92,1.7,9.02,2.7
	c0.99,0.9,1.55,5.32,4.06,7.74C60.64,58.81,64.74,56.01,64.74,54.61z"/>
<path id="tone_9_" style="fill:#4A2F27;" d="M63.26,54.61l-0.01-9.2c0-2.26,2.33-14.05,5.1-17.5c1.78-2.2,6.57-5.24,11.33-8.15
	c0.88-0.54,1.61-0.98,2.07-1.29c2.26-1.48,5.25-1.39,8.88,0.27c7.89,3.6,21.81,12.19,24.22,14.13c4.08,3.28,7.07,7.53,9.92,11.68
	v4.34c-3.34-4.12-8.06-10.68-11.8-13.69c-2.27-1.82-16.03-10.3-23.58-13.74c-2.64-1.2-4.65-1.36-6-0.49
	c-0.48,0.31-1.23,0.78-2.14,1.33c-3.13,1.92-8.96,5.49-10.56,7.48c-0.92,1.14-1.73,3.09-2.35,5.03c1.33-0.96,3.18-2.23,5-3.49
	c2.19-1.51,4.26-2.94,5.17-3.63c4.98-3.76,10.92-2.03,13.24-1.11c2.47,0.98,9.99,6.17,11.43,7.05c2.41,1.48,3.9,3.39,3.99,3.85
	c0.09,0.47-3.12-1.26-3.12-1.26c-0.12-0.07-10.39-5.67-13.41-6.86c-2.3-0.91-6.7-2.02-10.33,0.72c-0.96,0.73-3.06,2.17-5.27,3.7
	c-2.59,1.79-5.52,3.81-6.4,4.53c-0.99,0.81-2.08,1.21-2.59,5.35l-1.07,8.93c0,1.72,1.93,1.86,2.56,1.64
	c3.81-1.36,4.01-4.47,4.45-5.86c0.49-1.53,0.95-2.97,1.9-3.88c1.82-1.74,8.8-3.86,11.49-3.5c3.39,0.46,13.6,4.11,15.96,14.52
	c1.43,6.3-0.37,15.38-6.56,20.57c-6.28,5.26-11.43,7.93-15.98,10.29l-1.33,0.69c-3.71,1.89-7.91,4.04-10.2,9.55
	c-0.72,1.72-0.82,4.12,0.38,5.38c0.48,0.5,1.39,0.53,1.94,0.06c5.92-4.97,15.77-11.51,32.83-10.92c3.47,0.12,9.98,0.96,15.43-4.15
	c0.98-0.92,1.79-1.87,2.3-2.5c0.19-0.23,0.57-0.12,0.58,0.18c0.18,3.54-4.63,7.79-6.98,8.23c4.89,2.45,8.9,6.59,11.01,9.06v4.54
	c-3.2-3.75-10.64-11.64-17.22-12.49c-1.96,0.17-3.78,0.17-5.23,0.12c-16.05-0.53-25.26,5.57-30.8,10.22
	c-0.82,0.69-1.85,1.03-2.88,1.03c-1.17,0-2.33-0.44-3.16-1.31c-2.2-2.3-2.08-5.98-0.98-8.61c2.72-6.52,7.86-9.15,11.61-11.06
	l1.31-0.68c4.63-2.4,9.41-4.88,15.44-9.93c5.21-4.36,6.76-12.33,5.56-17.6C96.09,45.93,85.09,44,84.98,43.99
	c-1.92-0.25-7.92,1.7-9.02,2.7c-0.99,0.9-1.55,5.32-4.06,7.74C67.36,58.81,63.26,56.01,63.26,54.61z"/>
</svg>
