<svg enable-background="new 0 0 128 128" viewBox="0 0 128 128" xmlns="http://www.w3.org/2000/svg" xmlns:xlink="http://www.w3.org/1999/xlink"><linearGradient id="l" x1="64" x2="64" y1="5.25" y2="69.504" gradientUnits="userSpaceOnUse"><stop stop-color="#EF5350" offset=".2579"/><stop stop-color="#E53935" offset=".89"/></linearGradient><path d="M74.33,70.42H53.67l-16.92-13.2c-1.94-1.52-3.08-3.84-3.08-6.31V10.11c0-3.31,2.69-6,6-6 h48.65c3.31,0,6,2.69,6,6v40.67c0,2.45-1.12,4.77-3.05,6.28L74.33,70.42z" fill="url(#l)"/><defs><path id="g" d="M74.33,70.67H53.67l-16.92-13.2c-1.94-1.52-3.08-3.84-3.08-6.31V10.36c0-3.31,2.69-6.29,6-6.29h48.65 c3.31,0,6,2.98,6,6.29v40.67c0,2.45-1.12,4.77-3.05,6.28L74.33,70.67z"/></defs><clipPath id="c"><use xlink:href="#g"/></clipPath><linearGradient id="f" x1="64.831" x2="64.831" y1="11.5" y2="74.004" gradientUnits="userSpaceOnUse"><stop stop-color="#FAFAFA" offset=".2104"/><stop stop-color="#E0E0E0" offset=".7737"/></linearGradient><rect x="46.13" y="2.36" width="37.4" height="70.14" clip-path="url(#c)" fill="url(#f)"/><linearGradient id="e" x1="64.417" x2="64.417" y1="7.25" y2="69.513" gradientUnits="userSpaceOnUse"><stop stop-color="#64B5F6" offset=".1355"/><stop stop-color="#2196F3" offset=".9462"/></linearGradient><rect x="52.39" y="2.36" width="24.06" height="70.14" clip-path="url(#c)" fill="url(#e)"/><defs><path id="d" d="M74.33,70.67H53.67l-16.92-13.2c-1.94-1.52-3.08-3.84-3.08-6.31V10.36c0-3.31,2.69-6.29,6-6.29h48.65 c3.31,0,6,2.98,6,6.29v40.67c0,2.45-1.12,4.77-3.05,6.28L74.33,70.67z"/></defs><clipPath id="b"><use xlink:href="#d"/></clipPath><rect x="43.76" y="2.36" width="42.13" height="70.14" clip-path="url(#b)" fill="none"/><rect x="49.71" y="2.36" width="29.42" height="70.14" clip-path="url(#b)" fill="none"/><g opacity=".2"><path d="m88.33 7.11c1.65 0 3 1.35 3 3v40.67c0 1.54-0.69 2.97-1.9 3.93l-16.14 12.71h-18.58l-16.11-12.56c-1.22-0.95-1.92-2.39-1.92-3.94v-40.81c0-1.65 1.35-3 3-3h48.65m0-3h-48.66c-3.31 0-6 2.69-6 6v40.81c0 2.46 1.14 4.79 3.08 6.31l16.92 13.2h20.65l16.95-13.37c1.92-1.52 3.05-3.83 3.05-6.28v-40.67c0.01-3.32-2.68-6-5.99-6z" fill="#424242"/></g><radialGradient id="a" cx="49.165" cy="74.438" r="54.048" gradientUnits="userSpaceOnUse"><stop stop-color="#FFEB3B" offset=".2972"/><stop stop-color="#FBC02D" offset=".9544"/></radialGradient><circle cx="64" cy="95.75" r="28.25" fill="url(#a)"/><path d="m78.65 71.56h-29.08v-3.34c0-1.66 1.34-3 3-3h23.07c1.66 0 3 1.34 3 3v3.34z" fill="url(#a)"/><radialGradient id="q" cx="52.559" cy="76.209" r="44.592" gradientTransform="matrix(.9369 0 0 .9369 4.036 6.0941)" gradientUnits="userSpaceOnUse"><stop stop-color="#FDD835" offset=".0977"/><stop stop-color="#F9A825" offset=".9508"/></radialGradient><g fill="url(#q)"><path d="m65.69 74.36 5.27 10.68c0.27 0.55 0.8 0.94 1.41 1.03l11.78 1.71c0.17 0.02 0.32 0.08 0.47 0.14-3.1-7.77-10.46-13.37-19.19-13.92 0.1 0.1 0.19 0.22 0.26 0.36z"/><path d="m43.85 87.77 11.78-1.71c0.61-0.09 1.14-0.47 1.41-1.03l5.27-10.68c0.07-0.14 0.16-0.26 0.25-0.37-8.73 0.56-16.09 6.16-19.19 13.92 0.16-0.05 0.31-0.1 0.48-0.13z"/><path d="m49.87 112.69 2.01-11.74c0.1-0.61-0.1-1.23-0.54-1.66l-8.53-8.31c-0.13-0.12-0.22-0.26-0.31-0.4-0.46 1.78-0.7 3.64-0.7 5.56 0 6.88 3.13 13.03 8.05 17.1-0.02-0.18-0.02-0.36 0.02-0.55z"/><path d="m85.5 90.58c-0.08 0.14-0.18 0.28-0.31 0.4l-8.53 8.31c-0.44 0.43-0.64 1.05-0.54 1.66l2.01 11.74c0.03 0.19 0.04 0.38 0.02 0.55 4.91-4.07 8.05-10.22 8.05-17.1 0-1.92-0.24-3.79-0.7-5.56z"/><path d="m75.42 114.67-10.54-5.54c-0.55-0.29-1.2-0.29-1.75 0l-10.54 5.54c-0.17 0.09-0.35 0.15-0.52 0.18 3.45 2.2 7.54 3.48 11.93 3.48s8.49-1.28 11.93-3.48c-0.17-0.03-0.34-0.09-0.51-0.18z"/></g><g opacity=".2"><path d="m69.01 76.57c4.95 1.28 9.28 4.41 12.03 8.73l-8.32-1.21-3.71-7.52m-3.57-2.58c0.09 0.11 0.18 0.23 0.25 0.37l5.27 10.68c0.27 0.55 0.8 0.94 1.41 1.03l11.78 1.71c0.17 0.02 0.32 0.08 0.47 0.14-3.1-7.77-10.45-13.38-19.18-13.93z" fill="#424242"/></g><g opacity=".2"><path d="m59 76.57-3.71 7.52-8.32 1.21c2.75-4.31 7.07-7.45 12.03-8.73m3.57-2.57zm0-0.01c-8.73 0.56-16.09 6.16-19.19 13.92 0.15-0.06 0.3-0.11 0.47-0.14l11.78-1.71c0.61-0.09 1.14-0.47 1.41-1.03l5.27-10.68c0.08-0.13 0.17-0.25 0.26-0.36z" fill="#424242"/></g><g opacity=".2"><path d="m43.85 94.78 6.05 5.89-1.43 8.36c-2.99-3.6-4.66-8.14-4.66-12.9 0-0.45 0.01-0.9 0.04-1.35m-1.34-4.2c-0.46 1.78-0.7 3.64-0.7 5.56 0 6.88 3.13 13.03 8.05 17.1-0.02-0.18-0.02-0.36 0.02-0.55l2.01-11.74c0.1-0.61-0.1-1.23-0.54-1.66l-8.53-8.31c-0.13-0.13-0.23-0.26-0.31-0.4z" fill="#424242"/></g><g opacity=".2"><path d="m84.16 94.78c0.03 0.45 0.04 0.9 0.04 1.36 0 4.77-1.66 9.31-4.66 12.9l-1.43-8.36 6.05-5.9m1.34-4.2c-0.08 0.14-0.18 0.28-0.31 0.4l-8.53 8.31c-0.44 0.43-0.64 1.05-0.54 1.66l2.01 11.74c0.03 0.19 0.04 0.38 0.02 0.55 4.91-4.07 8.05-10.22 8.05-17.1 0-1.92-0.24-3.79-0.7-5.56z" fill="#424242"/></g><g opacity=".2"><path d="m64 110.93 7.53 3.96c-2.38 0.96-4.93 1.45-7.53 1.45s-5.15-0.5-7.53-1.45l7.53-3.96m0-2.02c-0.3 0-0.6 0.07-0.87 0.22l-10.54 5.54c-0.17 0.09-0.35 0.15-0.52 0.18 3.45 2.2 7.54 3.48 11.93 3.48s8.49-1.28 11.93-3.48c-0.17-0.03-0.35-0.09-0.52-0.18l-10.54-5.54c-0.27-0.15-0.57-0.22-0.87-0.22z" fill="#424242"/></g><g opacity=".2"><path d="m75.42 68c0.15 0 0.58 0.24 0.58 0.39v1.72c0 0.08-0.17 0.17-0.19 0.25-0.38 1.28 0.08 2.65 1.2 3.37 7.79 5.02 12.23 12.98 12.23 21.85 0 14.02-11.36 25.42-25.3 25.42-13.97 0-25.34-11.33-25.34-25.25 0-9.14 4.54-17.25 12.15-21.69 0.92-0.54 1.49-1.52 1.49-2.59v-2.98c0.04-0.19 0.38-0.5 0.52-0.5h22.24m0.48-2.99h-22.74c-1.75 0-3.74 1.64-3.74 3.39v3.09c-8 4.93-13.53 13.95-13.53 24.28 0 15.6 12.79 28.25 28.39 28.25s28.32-12.92 28.32-28.52c0-10.27-5.41-19.48-13.6-24.48h0.42v-2.61c0-1.76-1.77-3.4-3.52-3.4z" fill="#424242"/></g></svg>
