<svg width="128" height="128" style="enable-background:new 0 0 128 128;" xmlns="http://www.w3.org/2000/svg" xmlns:xlink="http://www.w3.org/1999/xlink">
  <g>
    <linearGradient id="SVGID_1_" gradientUnits="userSpaceOnUse" x1="64" x2="64" y1="0.6667" y2="128.396">
      <stop offset="0" style="stop-color:#29B6F6"/>
      <stop offset="0.5369" style="stop-color:#169FE4"/>
      <stop offset="0.9954" style="stop-color:#0288D1"/>
    </linearGradient>
    <path d="M116,124H12c-4.42,0-8-3.58-8-8V12c0-4.42,3.58-8,8-8h104c4.42,0,8,3.58,8,8v104 C124,120.42,120.42,124,116,124z" style="fill:url(#SVGID_1_);"/>
    <g style="opacity:0.2;">
      <path d="M116,7c2.76,0,5,2.24,5,5v104c0,2.76-2.24,5-5,5H12c-2.76,0-5-2.24-5-5V12c0-2.76,2.24-5,5-5H116 M116,4H12c-4.42,0-8,3.58-8,8v104c0,4.42,3.58,8,8,8h104c4.42,0,8-3.58,8-8V12C124,7.58,120.42,4,116,4L116,4z" style="fill:#424242;"/>
    </g>
    <g style="opacity:0.2;">
      <path d="M42.8,23.64c0.83,0,1.58,0.52,1.88,1.3l10.59,27.99c0.5,1.31-0.47,2.71-1.88,2.71h-1.48 c-0.85,0-1.61-0.54-1.89-1.34l-1.67-4.77c-0.28-0.8-1.04-1.34-1.89-1.34H36.9c-0.85,0-1.61,0.54-1.89,1.35l-1.66,4.76 c-0.28,0.81-1.04,1.35-1.89,1.35h-1.45c-1.4,0-2.37-1.4-1.88-2.71L38.7,24.94c0.29-0.78,1.04-1.3,1.88-1.3H42.8 M39.86,43.71 h3.63c1.38,0,2.35-1.36,1.89-2.67l-1.81-5.19c-0.31-0.9-1.1-1.34-1.89-1.34s-1.58,0.45-1.89,1.34l-1.81,5.19 C37.52,42.34,38.48,43.71,39.86,43.71 M42.8,20.64h-2.22c-2.07,0-3.95,1.3-4.68,3.24L25.32,51.87c-0.58,1.54-0.37,3.26,0.56,4.61 c0.93,1.35,2.47,2.16,4.12,2.16h1.45c2.13,0,4.03-1.35,4.73-3.36l1.42-4.09h8.14l1.44,4.1c0.7,2,2.6,3.35,4.72,3.35h1.48 c1.64,0,3.18-0.81,4.12-2.16s1.14-3.08,0.56-4.62L47.48,23.87C46.75,21.94,44.87,20.64,42.8,20.64L42.8,20.64z M41.27,40.71 l0.41-1.18l0.41,1.18H41.27L41.27,40.71z" style="fill:#424242;"/>
    </g>
    <g style="opacity:0.2;">
      <path d="M87.48,24c3.62,0,6.37,0.73,8.26,2.18c1.89,1.45,2.84,3.61,2.84,6.48c0,1.47-0.4,2.78-1.19,3.96 c-0.26,0.39-0.57,0.75-0.91,1.08c-0.86,0.82-0.73,2.25,0.21,2.99c0.47,0.37,0.89,0.81,1.25,1.3c0.95,1.3,1.42,2.85,1.42,4.67 c0,3-0.96,5.31-2.89,6.92C94.53,55.19,91.78,56,88.19,56h-9.67c-1.11,0-2.01-0.9-2.01-2.01V26.01c0-1.11,0.9-2.01,2.01-2.01 H87.48 M84.08,37.47h3.45c1.73,0,3.08-0.39,4.05-1.18c0.97-0.78,1.46-1.89,1.46-3.33c0-1.58-0.45-2.73-1.35-3.43 c-0.9-0.7-2.3-1.05-4.21-1.05h-3.4c-1.11,0-2.01,0.9-2.01,2.01v4.98C82.08,36.57,82.97,37.47,84.08,37.47 M84.08,51.52h4.17 c1.74,0,3.11-0.43,4.09-1.29c0.98-0.86,1.47-2.06,1.47-3.59c0-3.31-1.7-5-5.1-5.08h-4.63c-1.11,0-2.01,0.9-2.01,2.01v5.95 C82.08,50.62,82.97,51.52,84.08,51.52 M87.48,21h-8.96c-2.76,0-5.01,2.25-5.01,5.01v27.99c0,2.76,2.25,5.01,5.01,5.01h9.67 c4.3,0,7.73-1.05,10.2-3.12c2.63-2.2,3.96-5.3,3.96-9.22c0-2.46-0.67-4.62-1.99-6.44c-0.31-0.43-0.65-0.82-1.03-1.19 c0.2-0.24,0.38-0.48,0.55-0.74c1.13-1.67,1.7-3.57,1.7-5.63c0-4.78-2.18-7.46-4.01-8.86C95.16,21.94,91.76,21,87.48,21L87.48,21z M85.08,31.48h2.41c1.77,0,2.31,0.38,2.36,0.42c0.04,0.03,0.2,0.32,0.2,1.06c0,0.72-0.21,0.89-0.34,0.99 c-0.42,0.34-1.17,0.51-2.17,0.51h-2.45V31.48L85.08,31.48z M85.08,44.56h3.6c1.65,0.04,2.13,0.32,2.13,2.08 c0,0.94-0.31,1.21-0.45,1.33c-0.51,0.45-1.43,0.55-2.11,0.55h-3.18V44.56L85.08,44.56z" style="fill:#424242;"/>
    </g>
    <g style="opacity:0.2;">
      <path d="M40.79,72c3.44,0,6.2,0.93,8.3,2.79c1.56,1.39,2.64,3.21,3.23,5.46c0.32,1.23-0.62,2.45-1.9,2.45 H49c-0.93,0-1.7-0.66-1.91-1.56c-0.34-1.45-0.9-2.54-1.69-3.28c-1.05-0.99-2.58-1.49-4.61-1.49c-2.35,0-4.16,0.86-5.42,2.58 c-1.26,1.72-1.91,4.24-1.94,7.57v2.76c0,3.37,0.6,5.94,1.81,7.71c1.2,1.77,2.97,2.65,5.29,2.65c2.12,0,3.72-0.48,4.79-1.43 c0.8-0.72,1.39-1.8,1.75-3.23c0.22-0.89,0.99-1.54,1.91-1.54h1.44c1.28,0,2.23,1.21,1.89,2.45c-0.58,2.18-1.67,3.95-3.25,5.33 c-2.14,1.86-4.98,2.79-8.53,2.79c-2.48,0-4.67-0.59-6.56-1.76c-1.89-1.18-3.35-2.85-4.37-5.02c-1.03-2.17-1.56-4.68-1.6-7.55 v-2.91c0-2.94,0.52-5.53,1.56-7.76c1.04-2.24,2.53-3.96,4.48-5.18C35.99,72.61,38.24,72,40.79,72 M40.79,69 c-3.11,0-5.91,0.76-8.33,2.27c-2.44,1.52-4.33,3.69-5.62,6.46C25.62,80.36,25,83.39,25,86.76v2.91c0.05,3.33,0.69,6.29,1.89,8.84 c1.27,2.69,3.12,4.8,5.5,6.28c2.36,1.47,5.1,2.22,8.14,2.22c4.28,0,7.81-1.19,10.5-3.53c2.03-1.77,3.44-4.06,4.18-6.81 c0.4-1.49,0.09-3.05-0.85-4.28c-0.95-1.24-2.38-1.94-3.94-1.94h-1.44c-2.27,0-4.25,1.57-4.82,3.81c-0.2,0.81-0.5,1.43-0.84,1.73 c-0.48,0.43-1.48,0.67-2.79,0.67c-1.67,0-2.36-0.68-2.81-1.34c-0.84-1.24-1.29-3.32-1.29-6.02v-2.76 c0.02-2.6,0.49-4.62,1.35-5.79c0.46-0.63,1.22-1.35,3-1.35c0.84,0,1.97,0.12,2.55,0.67c0.24,0.23,0.58,0.72,0.83,1.79 C44.71,84.1,46.7,85.7,49,85.7h1.42c1.55,0,2.98-0.7,3.92-1.93c0.95-1.22,1.26-2.78,0.87-4.27c-0.74-2.82-2.13-5.16-4.14-6.94 C48.43,70.19,44.97,69,40.79,69L40.79,69z" style="fill:#424242;"/>
    </g>
    <g style="opacity:0.2;">
      <path d="M85.45,72c2.83,0,5.34,0.63,7.53,1.89c2.19,1.26,3.89,3.05,5.09,5.36c1.2,2.31,1.8,4.97,1.8,7.96 v1.6c0,3.03-0.6,5.7-1.81,8c-1.21,2.3-2.93,4.07-5.16,5.32c-2.23,1.25-4.8,1.87-7.68,1.87h-7.2c-1.11,0-2.01-0.9-2.01-2.01V74.01 C76,72.9,76.9,72,78.01,72H85.45 M83.57,99.52h1.62c2.92,0,5.15-0.91,6.71-2.73c1.56-1.82,2.35-4.43,2.38-7.84v-1.78 c0-3.47-0.76-6.11-2.26-7.94c-1.51-1.83-3.7-2.74-6.57-2.74h-1.89c-1.11,0-2.01,0.9-2.01,2.01v19.02 C81.56,98.62,82.46,99.52,83.57,99.52 M85.45,69h-7.45C75.25,69,73,71.25,73,74.01v27.99c0,2.76,2.25,5.01,5.01,5.01h7.2 c3.39,0,6.47-0.76,9.14-2.25c2.74-1.53,4.88-3.73,6.36-6.54c1.43-2.72,2.16-5.88,2.16-9.4v-1.6c0-3.46-0.72-6.6-2.14-9.34 c-1.47-2.82-3.57-5.04-6.25-6.58C91.83,69.77,88.8,69,85.45,69L85.45,69z M84.56,79.48h0.89c2.59,0,3.67,0.94,4.26,1.65 c1.05,1.27,1.58,3.3,1.58,6.03v1.78c-0.02,2.64-0.58,4.63-1.66,5.89c-0.62,0.72-1.75,1.68-4.44,1.68h-0.63V79.48L84.56,79.48z" style="fill:#424242;"/>
    </g>
    <path d="M46.45,48.19H36.9c-0.85,0-1.61,0.54-1.89,1.35l-1.66,4.76c-0.28,0.81-1.04,1.35-1.89,1.35h-1.45 c-1.4,0-2.37-1.4-1.88-2.71L38.7,24.94c0.29-0.78,1.04-1.3,1.88-1.3h2.22c0.83,0,1.58,0.52,1.88,1.3l10.59,27.99 c0.5,1.31-0.47,2.71-1.88,2.71h-1.48c-0.85,0-1.61-0.54-1.89-1.34l-1.67-4.77C48.06,48.73,47.31,48.19,46.45,48.19z M39.86,43.71 h3.63c1.38,0,2.35-1.36,1.89-2.67l-1.81-5.19c-0.63-1.79-3.16-1.79-3.79,0l-1.81,5.19C37.52,42.34,38.48,43.71,39.86,43.71z" style="fill:#FAFAFA;"/>
    <path d="M76.52,53.99V26.01c0-1.11,0.9-2.01,2.01-2.01h8.96c3.62,0,6.37,0.73,8.26,2.18 c1.89,1.45,2.84,3.61,2.84,6.48c0,1.47-0.4,2.78-1.19,3.96c-0.26,0.39-0.57,0.75-0.91,1.08c-0.86,0.82-0.73,2.25,0.21,2.99 c0.47,0.37,0.89,0.81,1.25,1.3c0.95,1.3,1.42,2.85,1.42,4.67c0,3-0.96,5.31-2.89,6.92C94.53,55.19,91.78,56,88.19,56h-9.67 C77.41,56,76.52,55.1,76.52,53.99z M82.08,35.47c0,1.11,0.9,2.01,2.01,2.01h3.45c1.73,0,3.08-0.39,4.05-1.18 c0.97-0.78,1.46-1.89,1.46-3.33c0-1.58-0.45-2.73-1.35-3.43s-2.3-1.05-4.21-1.05h-3.4c-1.11,0-2.01,0.9-2.01,2.01V35.47z M82.08,43.57v5.95c0,1.11,0.9,2.01,2.01,2.01h4.17c1.74,0,3.11-0.43,4.09-1.29c0.98-0.86,1.47-2.06,1.47-3.59 c0-3.31-1.7-5-5.1-5.08h-4.63C82.97,41.56,82.08,42.46,82.08,43.57z" style="fill:#FAFAFA;"/>
    <path d="M50.42,93.43c1.28,0,2.23,1.21,1.89,2.45c-0.58,2.18-1.67,3.95-3.25,5.33 c-2.14,1.86-4.98,2.79-8.53,2.79c-2.48,0-4.67-0.59-6.56-1.76c-1.89-1.18-3.35-2.85-4.37-5.02c-1.03-2.17-1.56-4.68-1.6-7.55 v-2.91c0-2.94,0.52-5.53,1.56-7.76c1.04-2.24,2.53-3.96,4.48-5.18c1.95-1.21,4.2-1.82,6.75-1.82c3.44,0,6.2,0.93,8.3,2.79 c1.56,1.39,2.64,3.21,3.23,5.46c0.32,1.23-0.62,2.45-1.9,2.45H49c-0.93,0-1.7-0.66-1.91-1.56c-0.34-1.45-0.9-2.54-1.69-3.28 c-1.05-0.99-2.58-1.49-4.61-1.49c-2.35,0-4.16,0.86-5.42,2.58c-1.26,1.72-1.91,4.24-1.94,7.57v2.76c0,3.37,0.6,5.94,1.81,7.71 c1.2,1.77,2.97,2.65,5.29,2.65c2.12,0,3.72-0.48,4.79-1.43c0.8-0.72,1.39-1.8,1.75-3.23c0.22-0.89,0.99-1.54,1.91-1.54H50.42z" style="fill:#FAFAFA;"/>
    <path d="M76,101.99V74.01C76,72.9,76.9,72,78.01,72h7.45c2.83,0,5.34,0.63,7.53,1.89 c2.19,1.26,3.89,3.05,5.09,5.36c1.2,2.31,1.8,4.97,1.8,7.96v1.6c0,3.03-0.6,5.7-1.81,8c-1.21,2.3-2.93,4.07-5.16,5.32 c-2.23,1.25-4.8,1.87-7.68,1.87h-7.2C76.9,104,76,103.1,76,101.99z M81.56,78.49v19.02c0,1.11,0.9,2.01,2.01,2.01h1.62 c2.92,0,5.15-0.91,6.71-2.73c1.56-1.82,2.35-4.43,2.38-7.84v-1.78c0-3.47-0.76-6.11-2.26-7.94c-1.51-1.83-3.7-2.74-6.57-2.74 h-1.89C82.46,76.48,81.56,77.38,81.56,78.49z" style="fill:#FAFAFA;"/>
  </g>
</svg>