<?xml version="1.0" encoding="utf-8"?>
<!-- Generator: Adobe Illustrator 16.0.0, SVG Export Plug-In . SVG Version: 6.00 Build 0)  -->
<!DOCTYPE svg PUBLIC "-//W3C//DTD SVG 1.1//EN" "http://www.w3.org/Graphics/SVG/1.1/DTD/svg11.dtd">
<svg version="1.1" id="レイヤー_1" xmlns="http://www.w3.org/2000/svg" xmlns:xlink="http://www.w3.org/1999/xlink" x="0px"
	 y="0px" width="128px" height="128px" viewBox="0 0 128 128" enable-background="new 0 0 128 128" xml:space="preserve">
<g>
	<path fill="#426369" d="M67.662,73.354c-0.262,0.111,0.322,1.954,0.387,2.105c0.53,1.327,1.761,2.206,2.36,3.5
		c0.73,1.58,0.778,3.385,0.133,5.005c-0.409,1.032-1.339,1.784,0.096,2.471c0.873,0.415,1.337-0.497,1.828-1.057
		c0.497-0.574,0.928-1.212,1.268-1.892c0.982-1.984,1.02-4.23,0.231-6.288c-0.091-0.243-0.193-0.48-0.303-0.709
		c0,0,3.812-2.192,0.016-5.756C73.679,70.734,67.677,73.348,67.662,73.354z"/>
	<g>
		<g>
			<path fill="#426369" d="M92.25,48.101h-0.006c-1.462-0.052-2.008-0.637-2.008-2.158c0-0.468,0.15-1.24,0.48-1.832
				c0.332-0.592,1.395-0.717,2.23-0.717c1.006,0,1.778-0.296,2.295-0.884c0.688-0.782,0.589-1.742,0.576-1.849
				c-0.063-0.492-0.481-0.862-0.979-0.862h-4.521c-0.545,0-0.986,0.441-0.986,0.987c0,0.385-1.111,0.861-1.89,0.986
				c-1.447,0-2.244-1.275-2.273-1.323c-0.177-0.3-0.5-0.485-0.849-0.485H80.62c-0.476,0-0.884,0.339-0.971,0.807l-2.63,14.219
				c-0.052,0.28,0.02,0.567,0.195,0.79c0.175,0.224,0.439,0.358,0.722,0.374l18.577,0.986c0.018,0.002,0.035,0.002,0.052,0.002
				c0.252,0,0.495-0.096,0.678-0.271c0.196-0.185,0.308-0.445,0.308-0.715V52.95C97.552,49.602,94.916,48.101,92.25,48.101z"/>
		</g>
		<path fill="#66949E" d="M2.408,40.842c0,0,0.123-2.778,1.85-2.631c1.726,0.146,6.535,0,6.535,0l7.891,1.608h23.796
			c0,0,2.219-1.755,5.671-2.048c3.453-0.293,30.578,0,30.578,0s2.917-1.169,2.917,3.071c0,0,0.905,9.365,13.975,11.091h4.192
			c0,0,2.227,0.146,2.227,1.121c0,0.973,0,0,0,0l-1.117,24.812l-20.392,1.096c0,0-2.664-4.913-7.35-4.913H58.754
			c0,0-2.82,0.638-2.835,2.707c-0.014,2.069,0,0,0,0H51.62c0,0-0.387-1.603-2.853-1.603s-4.685-0.493-4.685-3.452
			s-0.493-10.382-2.219-12.723v-1.316H3.641c0,0-1.233-2.234-1.233-5.213s0-0.345,0-0.345V41.135"/>
		<g>
			<path fill="#66949E" d="M47.642,72.897c0,0,2.248,0.079,3.753,3.192c0.512,1.059,0.47,6.785,4.269,11.383
				c1.955,2.366,5.689,4.248,10.542,4.857c8.866,1.115,15.769-1.314,18.34-8.024c1.088-2.845,1.699-4.233,3.915-4.098l0.345-2.341
				l-8.983-1.52c0,0,0.888,2.903,1.123,4.716c0.493,3.772-4.514,9.823-14.871,8.05c-9.65-1.652-9.7-6.842-10.07-9.303
				c-0.368-2.458,0.042-6.565,1.32-6.49l-0.181-1.724l-9.323-0.181L47.642,72.897z"/>
		</g>
		<path fill="#5E3832" d="M85.492,82.085v-4.913c0,0-0.045-3.561,2.73-5.718c3.425-2.665,8.384-9.02,9.041-14.938
			c0,0-0.33-1.973,3.945-1.973s3.762,0.869,5.918,3.945c1.757,2.507,7.3,4.68,12.056,12.11c4.648,7.263,8.565,24.262,7.569,35.367
			c0,0-0.57,4.412-5.41,4.412s-12.407,0-12.407,0s-4.104-0.035-4.939-0.948c-0.944-1.031-0.399-1.861-1.295-3.206
			c-0.585-0.879-1.098-1.042-1.751-1.434c-1.516-0.909-1.776-1.903-1.776-2.988c0-0.929-0.102-3.741-0.102-5.374
			c0-1.672-0.212-7.64-2.796-11.166C94.552,82.909,90.852,80.659,85.492,82.085z"/>
		<g>
			<ellipse fill="#66949E" cx="2.408" cy="46.708" rx="1.316" ry="5.866"/>
			<rect x="2.408" y="40.842" fill="#66949E" width="79.237" height="11.607"/>
		</g>
		<path fill="#FFFFFF" d="M41.801,45.99H3.038c0,0-0.081-1.549,0.245-2.501c0.299-0.871,0.727-0.722,0.727-0.722h37.792V45.99z"/>
		<rect x="44.286" y="42.767" fill="#FFFFFF" width="4.789" height="3.223"/>
		<g>
			<g>
				<rect x="52.514" y="42.299" fill="#66949E" width="25.351" height="22.555"/>
				<path fill="#426369" d="M77.865,65.838H52.514c-0.545,0-0.986-0.441-0.986-0.986V42.299c0-0.545,0.441-0.986,0.986-0.986h25.351
					c0.545,0,0.986,0.441,0.986,0.986v22.553C78.852,65.397,78.41,65.838,77.865,65.838z M53.5,63.866h23.378V43.285H53.5V63.866z"
					/>
			</g>
			<g>
				<rect x="52.514" y="51.199" fill="#426369" width="13.422" height="4.731"/>
				<path fill="#426369" d="M65.936,56.917H52.514c-0.545,0-0.986-0.441-0.986-0.986v-4.733c0-0.545,0.441-0.986,0.986-0.986h13.422
					c0.545,0,0.986,0.441,0.986,0.986v4.733C66.922,56.476,66.481,56.917,65.936,56.917z M53.5,54.944H64.95v-2.761H53.5V54.944z"/>
			</g>
			<g>
				<ellipse fill="#426369" cx="65.935" cy="53.565" rx="4.727" ry="2.366"/>
				<path fill="#426369" d="M65.936,56.917c-3.258,0-5.714-1.441-5.714-3.352c0-1.913,2.456-3.354,5.714-3.354
					c3.256,0,5.712,1.441,5.712,3.354C71.648,55.476,69.192,56.917,65.936,56.917z M65.936,52.184c-2.322,0-3.741,0.894-3.741,1.381
					c0,0.485,1.419,1.379,3.741,1.379c2.319,0,3.739-0.894,3.739-1.379C69.675,53.078,68.255,52.184,65.936,52.184z"/>
			</g>
		</g>
	</g>
</g>
</svg>
