<?xml version="1.0" encoding="utf-8"?>
<!-- Generator: Adobe Illustrator 19.2.1, SVG Export Plug-In . SVG Version: 6.00 Build 0)  -->
<svg version="1.1" id="レイヤー_1" xmlns="http://www.w3.org/2000/svg" xmlns:xlink="http://www.w3.org/1999/xlink" x="0px"
	 y="0px" viewBox="0 0 128 128" style="enable-background:new 0 0 128 128;" xml:space="preserve">
<g>
	<g>
		<g>
			<g>
				<g>
					<g>
						<path style="fill:#FFFFFF;" d="M48.72,30.91c0.64,3.08-0.67,5.76-2.29,7.86c-0.67,0.86-1.06,2.31-0.19,3.14
							c1.03,0.99,2.95-0.02,3.97-0.75c2.13-1.52,3.72-4.3,4.32-7.34c0.64-3.21-0.13-6.27-1.24-9.12c-1.04-2.64-2.79-5.32-2.75-8.43
							c0.03-3.18,1.26-6,2.54-8.61c0.16-0.35,0.27-0.76,0.22-1.18c-0.12-1.02-0.83-1.16-1.46-0.95c-0.27,0.1-0.56,0.23-0.84,0.39
							c-1.6,0.92-2.98,2.5-4.08,4.26c-1.56,2.48-2.49,5.87-2.39,9.07c0.07,2.27,0.76,4.32,1.68,6.21
							C47.06,27.23,48.29,28.86,48.72,30.91z"/>
						<path style="fill:#78A3AD;" d="M47.35,47.36c-1.74,0-3.37-0.64-4.59-1.8c-2.61-2.48-2.75-6.73-0.32-9.87
							c1.5-1.94,1.48-3.07,1.34-3.75c-0.13-0.65-0.59-1.46-1.11-2.4c-0.35-0.62-0.7-1.24-1-1.87c-1.39-2.87-2.1-5.57-2.18-8.26
							c-0.12-4.17,1.03-8.5,3.16-11.89c1.69-2.68,3.65-4.69,5.83-5.95c0.54-0.32,1.13-0.58,1.72-0.79c0.7-0.24,1.42-0.36,2.13-0.36
							c3.15,0,5.6,2.26,5.97,5.49c0.16,1.32-0.09,2.68-0.69,3.94c-1.02,2.09-2.02,4.29-2.04,6.47c-0.02,1.18,0.66,2.65,1.38,4.21
							c0.36,0.78,0.71,1.55,1.01,2.31c1.1,2.81,2.46,7.1,1.5,11.95c-0.88,4.4-3.18,8.22-6.35,10.46
							C51.79,46.22,49.7,47.36,47.35,47.36z"/>
					</g>
					<g>
						<path style="fill:#FFFFFF;" d="M62.43,30.91c0.66,3.08-0.68,5.76-2.34,7.86c-0.68,0.86-1.08,2.31-0.19,3.14
							c1.05,0.99,3.01-0.02,4.05-0.75c2.18-1.52,3.79-4.3,4.4-7.34c0.65-3.21-0.13-6.27-1.27-9.12c-1.06-2.64-2.83-5.32-2.8-8.43
							c0.04-3.18,1.29-6,2.59-8.61c0.17-0.35,0.28-0.76,0.23-1.18c-0.11-1.02-0.84-1.16-1.49-0.95c-0.27,0.1-0.57,0.23-0.86,0.39
							c-1.63,0.92-3.03,2.5-4.16,4.26c-1.58,2.48-2.52,5.87-2.43,9.07c0.07,2.27,0.78,4.32,1.71,6.21
							C60.74,27.23,62,28.86,62.43,30.91z"/>
						<path style="fill:#78A3AD;" d="M61.04,47.36c-1.74,0-3.36-0.63-4.58-1.77c-2.67-2.5-2.81-6.77-0.31-9.94
							c1.69-2.15,1.46-3.26,1.36-3.69c-0.14-0.65-0.6-1.45-1.13-2.39c-0.35-0.62-0.7-1.23-1.01-1.86c-1.42-2.87-2.14-5.58-2.22-8.29
							c-0.12-4.2,1.05-8.55,3.22-11.94c1.71-2.69,3.71-4.68,5.91-5.93c0.55-0.31,1.14-0.58,1.74-0.79c0.68-0.23,1.39-0.34,2.1-0.34
							c3.16,0,5.62,2.26,5.99,5.48c0.16,1.35-0.09,2.74-0.72,4c-1.03,2.07-2.04,4.27-2.07,6.42c-0.01,1.16,0.67,2.62,1.4,4.18
							c0.37,0.78,0.73,1.55,1.04,2.32c1.12,2.81,2.51,7.12,1.53,11.98c-0.89,4.42-3.24,8.22-6.46,10.48
							C65.49,46.23,63.38,47.36,61.04,47.36z"/>
					</g>
					<g>
						<path style="fill:#FFFFFF;" d="M76.18,30.91c0.64,3.08-0.66,5.76-2.27,7.86c-0.66,0.86-1.06,2.31-0.19,3.14
							c1.03,0.99,2.93-0.02,3.94-0.75c2.12-1.52,3.69-4.3,4.29-7.34c0.63-3.21-0.12-6.27-1.24-9.12c-1.03-2.64-2.76-5.32-2.73-8.43
							c0.04-3.18,1.25-6,2.52-8.61c0.17-0.35,0.27-0.76,0.22-1.18c-0.11-1.02-0.82-1.16-1.45-0.95c-0.28,0.1-0.56,0.23-0.84,0.39
							c-1.59,0.92-2.95,2.5-4.05,4.26c-1.54,2.48-2.46,5.87-2.37,9.07c0.07,2.27,0.75,4.32,1.66,6.21
							C74.53,27.23,75.76,28.86,76.18,30.91z"/>
						<path style="fill:#78A3AD;" d="M74.82,47.36c-1.75,0-3.38-0.65-4.6-1.82c-2.58-2.48-2.72-6.71-0.31-9.85
							c1.49-1.94,1.48-3.08,1.34-3.77c-0.14-0.65-0.59-1.46-1.12-2.41c-0.34-0.61-0.68-1.22-0.98-1.86
							c-1.38-2.86-2.08-5.56-2.16-8.25c-0.12-4.17,1.02-8.5,3.12-11.88c1.68-2.69,3.62-4.69,5.79-5.95c0.53-0.32,1.12-0.6,1.72-0.8
							c0.69-0.24,1.41-0.36,2.13-0.36c3.15,0,5.6,2.26,5.97,5.5c0.15,1.34-0.09,2.7-0.7,3.94c-1,2.08-1.99,4.29-2.01,6.48
							c-0.01,1.17,0.66,2.65,1.37,4.21c0.35,0.78,0.7,1.56,1.01,2.32c1.09,2.8,2.44,7.08,1.48,11.92c-0.87,4.4-3.16,8.21-6.29,10.46
							C79.26,46.22,77.17,47.36,74.82,47.36z"/>
					</g>
				</g>
			</g>
		</g>
	</g>
	<g>
		<path style="fill:#B89278;" d="M103.45,46.62c0-0.1,0.02-0.2,0.02-0.3c0.06-5.24-3.45-10.63-7.74-13.43
			c-1.75-1.16-4.27-2.37-6.55-2.87c-6.55-2.69-15.19-4.35-24.67-4.35c-9.56,0-18.23,1.68-24.79,4.39c-0.01,0-0.02,0-0.02,0
			c-10.01,2.31-15.59,9.28-15.14,16.43c0,0.05-0.95,41.63,2.32,52.61c1.75,5.88,4.23,14.16,14.5,19.08
			c-0.1,0.49-0.16,0.96-0.16,1.32c0,4.46,10.2,8.07,22.78,8.07c12.59,0,22.78-3.61,22.78-8.07c0-0.35-0.04-0.84-0.14-1.33
			c10.27-4.92,12.73-13.2,14.49-19.07C104.3,88.46,103.49,49.09,103.45,46.62z"/>
		<g>
			<defs>
				<ellipse id="SVGID_1_" cx="64.51" cy="42.6" rx="36.99" ry="16.92"/>
			</defs>
			<clipPath id="SVGID_2_">
				<use xlink:href="#SVGID_1_"  style="overflow:visible;"/>
			</clipPath>
			<path style="clip-path:url(#SVGID_2_);fill:#757F3F;" d="M92.83,56.4c0,6.88-13.17,11.13-29.42,11.13
				c-16.25,0-29.42-4.25-29.42-11.13c0-6.88,13.18-11.13,29.42-11.13C79.66,45.27,92.83,49.52,92.83,56.4z"/>
		</g>
	</g>
	<g>
		<g>
			<path style="fill:#FFFFFF;" d="M48.72,30.91c0.64,3.08-0.67,5.76-2.29,7.86c-0.67,0.86-1.06,2.31-0.19,3.14
				c1.03,0.99,2.95-0.02,3.97-0.75c2.13-1.52,3.72-4.3,4.32-7.34c0.64-3.21-0.13-6.27-1.24-9.12c-1.04-2.64-2.79-5.32-2.75-8.43
				c0.03-3.18,1.26-6,2.54-8.61c0.16-0.35,0.27-0.76,0.22-1.18c-0.12-1.02-0.83-1.16-1.46-0.95c-0.27,0.1-0.56,0.23-0.84,0.39
				c-1.6,0.92-2.98,2.5-4.08,4.26c-1.56,2.48-2.49,5.87-2.39,9.07c0.07,2.27,0.76,4.32,1.68,6.21
				C47.06,27.23,48.29,28.86,48.72,30.91z"/>
			<path style="fill:#FFFFFF;" d="M62.43,30.91c0.66,3.08-0.68,5.76-2.34,7.86c-0.68,0.86-1.08,2.31-0.19,3.14
				c1.05,0.99,3.01-0.02,4.05-0.75c2.18-1.52,3.79-4.3,4.4-7.34c0.65-3.21-0.13-6.27-1.27-9.12c-1.06-2.64-2.83-5.32-2.8-8.43
				c0.04-3.18,1.29-6,2.59-8.61c0.17-0.35,0.28-0.76,0.23-1.18c-0.11-1.02-0.84-1.16-1.49-0.95c-0.27,0.1-0.57,0.23-0.86,0.39
				c-1.63,0.92-3.03,2.5-4.16,4.26c-1.58,2.48-2.52,5.87-2.43,9.07c0.07,2.27,0.78,4.32,1.71,6.21C60.74,27.23,62,28.86,62.43,30.91
				z"/>
			<path style="fill:#FFFFFF;" d="M76.18,30.91c0.64,3.08-0.66,5.76-2.27,7.86c-0.66,0.86-1.06,2.31-0.19,3.14
				c1.03,0.99,2.93-0.02,3.94-0.75c2.12-1.52,3.69-4.3,4.29-7.34c0.63-3.21-0.12-6.27-1.24-9.12c-1.03-2.64-2.76-5.32-2.73-8.43
				c0.04-3.18,1.25-6,2.52-8.61c0.17-0.35,0.27-0.76,0.22-1.18c-0.11-1.02-0.82-1.16-1.45-0.95c-0.28,0.1-0.56,0.23-0.84,0.39
				c-1.59,0.92-2.95,2.5-4.05,4.26c-1.54,2.48-2.46,5.87-2.37,9.07c0.07,2.27,0.75,4.32,1.66,6.21
				C74.53,27.23,75.76,28.86,76.18,30.91z"/>
		</g>
	</g>
</g>
</svg>
