<?xml version="1.0" encoding="utf-8"?>
<!-- Generator: Adobe Illustrator 19.2.1, SVG Export Plug-In . SVG Version: 6.00 Build 0)  -->
<svg version="1.1" xmlns="http://www.w3.org/2000/svg" xmlns:xlink="http://www.w3.org/1999/xlink" x="0px" y="0px"
	 viewBox="0 0 128 128" style="enable-background:new 0 0 128 128;" xml:space="preserve">
<g id="Layer_2">
</g>
<g id="图层_1">
	<g>
		<path style="fill:#E0E0E0;" d="M115.5,126.36h-103c-5.52,0-10-4.48-10-10V26.84c0-5.76,4.67-10.43,10.43-10.43h102.13
			c5.76,0,10.43,4.67,10.43,10.43v89.52C125.5,121.89,121.02,126.36,115.5,126.36z"/>
		<path style="fill:#1E88E5;" d="M125.5,51.44H2.5V9.78c0-4.42,3.58-8,8-8h107c4.42,0,8,3.58,8,8V51.44z"/>
		<g>
			<g>
				<g>
					<g>
						<rect x="83.64" y="83.6" style="fill:#9E9E9E;" width="4.51" height="4.38"/>
						<rect x="98" y="83.6" style="fill:#9E9E9E;" width="4.51" height="4.38"/>
						<rect x="112.36" y="83.6" style="fill:#9E9E9E;" width="4.51" height="4.38"/>
					</g>
					<rect x="83.64" y="94.47" style="fill:#9E9E9E;" width="4.51" height="4.38"/>
					<rect x="98" y="94.47" style="fill:#9E9E9E;" width="4.51" height="4.38"/>
					<rect x="112.36" y="94.47" style="fill:#9E9E9E;" width="4.51" height="4.38"/>
					<rect x="83.64" y="105.34" style="fill:#9E9E9E;" width="4.51" height="4.38"/>
					<rect x="98" y="105.34" style="fill:#9E9E9E;" width="4.51" height="4.38"/>
					<rect x="112.36" y="105.34" style="fill:#9E9E9E;" width="4.51" height="4.38"/>
				</g>
			</g>
		</g>
		<g>
			<path style="fill:#FFFFFF;" d="M42.94,12.84h4.69v15.75c0,1.45-0.32,2.73-0.96,3.84c-0.64,1.11-1.54,1.97-2.71,2.57
				c-1.17,0.6-2.48,0.91-3.95,0.91c-2.41,0-4.28-0.61-5.62-1.84c-1.34-1.22-2.02-2.96-2.02-5.2h4.72c0,1.12,0.23,1.94,0.7,2.47
				s1.21,0.8,2.22,0.8c0.9,0,1.61-0.31,2.14-0.92c0.53-0.61,0.8-1.49,0.8-2.62V12.84z"/>
			<path style="fill:#FFFFFF;" d="M61.48,33.87c-1.12,1.35-2.66,2.03-4.62,2.03c-1.81,0-3.2-0.52-4.15-1.56
				c-0.95-1.04-1.44-2.57-1.46-4.58V18.69h4.52v10.93c0,1.76,0.8,2.64,2.41,2.64c1.53,0,2.58-0.53,3.16-1.6V18.69h4.53v16.91H61.6
				L61.48,33.87z"/>
			<path style="fill:#FFFFFF;" d="M74.02,35.59h-4.53v-24h4.53V35.59z"/>
			<path style="fill:#FFFFFF;" d="M84.05,29.2l3.12-10.52h4.84l-6.8,19.53l-0.38,0.89c-1.01,2.21-2.68,3.31-5,3.31
				c-0.66,0-1.32-0.1-2-0.3V38.7l0.69,0.02c0.85,0,1.49-0.13,1.91-0.39c0.42-0.26,0.75-0.69,0.99-1.3l0.53-1.39l-5.92-16.95h4.86
				L84.05,29.2z"/>
		</g>
	</g>
	<g>
		<path style="fill:#2F2F2F;" d="M32.05,111.27h-8.47V78.58L13.48,81.7v-6.83l17.67-6.33h0.91V111.27z"/>
		<path style="fill:#2F2F2F;" d="M74.91,73.33l-16.49,37.93h-8.94l16.52-35.83H44.8v-6.83h30.12V73.33z"/>
	</g>
	<g>
		<g>
			<g>
				<g>
					<g>
						<path style="fill:#E0E0E0;" d="M269.28,67.75L251.31,11.1c-0.54-1.68-1.95-2.98-3.72-3.41c-0.42-0.1-0.84-0.14-1.26-0.14
							c-1.36,0-2.69,0.52-3.68,1.47c-8.37,8.09-15.71,9.62-26.34,9.62c-3.22,0-6.76-0.15-10.51-0.31c-2.94-0.13-5.99-0.26-9.3-0.34
							c-0.58-0.01-1.15-0.02-1.7-0.02c-26.87,0-35.46,15.71-35.82,16.38c-0.46,0.86-0.64,1.83-0.54,2.79l5.89,56.65
							c0.2,1.88,1.47,3.5,3.29,4.18c0.61,0.23,1.26,0.34,1.89,0.34c1.25,0,2.49-0.44,3.46-1.27c0.09-0.07,10.89-8.99,28.14-8.99
							c2.21,0,4.45,0.14,6.68,0.43c8.12,1.04,14.05,1.51,19.23,1.51c16.58,0,28.84-5.16,41-17.25
							C269.36,71.42,269.83,69.51,269.28,67.75z"/>
					</g>
				</g>
				<g>
					<polygon style="fill:#5DA5B0;" points="166.91,125.17 155.87,15.98 164.83,15.08 175.97,125.17 					"/>
				</g>
				<circle style="fill:#5DA5B0;" cx="160.35" cy="14.51" r="8.08"/>
			</g>
			<g>
				<path style="fill:#D3D3D3;" d="M173.03,96.91c1.27-1,11.78-8.89,28.01-8.89c2.21,0,4.45,0.14,6.68,0.43
					c8.12,1.04,14.05,1.51,19.23,1.51c16.58,0,28.84-5.16,41-17.25c1.33-1.32,1.8-3.22,1.25-4.98l-1.99-6.5
					c-1.27,3.74-3.81,8.5-8.02,12.28c-5.69,5.1-11.93,8.6-21.31,9.59c-14.51,1.53-25.6-4.55-36.44-8.68
					c-11.27-4.3-30.57,0.34-30.57,0.34L173.03,96.91z"/>
			</g>
		</g>
		<g>
			<path style="fill:#EAEAEA;" d="M190.31,18.58c11.52,0.46,25.57,5.55,38.12,4.39c10.72-0.99,11.3-5.11,15.19-7.93
				c1.87-1.35,4.6-1.3,5.25,0.95l17.22,47.9c0,0,0,0,0.45-1.03s0.6-1.64,0.6-1.64v0l-15.9-50.13c-0.54-1.68-1.95-2.98-3.72-3.41
				c-0.88-0.2-1.77-0.19-2.64,0.03c-0.92,0.24-1.74,0.77-2.42,1.42c-8.32,7.98-15.64,9.5-26.21,9.5c-3.22,0-6.76-0.15-10.51-0.31
				c-2.94-0.13-5.99-0.26-9.3-0.34c-0.58-0.01-1.15-0.02-1.7-0.02c-1.56,0-3.05,0-4.48,0.15C184.57,18.73,188.2,18.5,190.31,18.58z"
				/>
		</g>
	</g>
</g>
</svg>
