<?xml version="1.0" encoding="utf-8"?>
<!-- Generator: Adobe Illustrator 19.2.1, SVG Export Plug-In . SVG Version: 6.00 Build 0)  -->
<svg version="1.1" xmlns="http://www.w3.org/2000/svg" xmlns:xlink="http://www.w3.org/1999/xlink" x="0px" y="0px"
	 viewBox="0 0 128 128" style="enable-background:new 0 0 128 128;" xml:space="preserve">
<g id="Layer_2">
</g>
<g id="图层_1">
	<path id="XMLID_12_" style="fill:#E53935;" d="M20.68,118.08V128h86.91v-9.92c0-15.22-21.66-22.95-43.45-22.93
		C42.48,95.18,20.68,101.95,20.68,118.08z"/>
	<path id="XMLID_11_" style="fill:#7A4C32;" d="M64,97.66h-7.18v6.9c0,3.12,2.92,5.65,6.53,5.65h1.31c3.61,0,6.53-2.53,6.53-5.65
		v-6.9H64z"/>
	<g>
		<path style="fill:#FFFFFF;" d="M65.29,128h-2v-23.88c0-0.55,0.45-1,1-1l0,0c0.55,0,1,0.45,1,1V128z"/>
	</g>
	<g>
		<path style="fill:#444444;" d="M49.96,105.5c7.83-3.5,3.85-11.63-4-9.67c-5.33,1.33-16.32,3.52-20.67,3.33
			c-7.83-0.33-10.08,7.03-7.83,10.5C23.62,119.17,42.31,108.91,49.96,105.5z"/>
		<path style="fill:#444444;" d="M78.04,105.5c-7.83-3.5-3.85-11.63,4-9.67c5.33,1.33,16.32,3.52,20.67,3.33
			c7.83-0.33,10.08,7.03,7.83,10.5C104.38,119.17,85.69,108.91,78.04,105.5z"/>
		<path style="fill:#444444;" d="M74.35,98.27c-2.29,0.79-5.6,1.62-7.69,1.97c-1.29,0.22-2.32,1.36-2.66,2.66
			c-0.34-1.3-1.36-2.44-2.66-2.66c-2.09-0.36-5.36-1.46-7.7-2.08c-1.33-0.35-2.74-0.89-2.74,2.1v8.16c0,0.68,0.39,1.32,1.03,1.66
			c2.32,1.21,21.81,1.21,24.13,0c0.65-0.34,1.03-0.98,1.03-1.66v-8.16C77.1,95.72,75.79,97.77,74.35,98.27z"/>
	</g>
	<path id="XMLID_464_" style="fill:#E39400;" d="M62.74,67.13c0,0,4.66,0.81,4.66,5.83c0,4.43-3.4,6.17-6.8,6.17v-12H62.74z"/>
	<path id="XMLID_463_" style="fill:#E39400;" d="M65.26,67.13c0,0-4.66,0.81-4.66,5.83c0,4.43,3.4,6.17,6.8,6.17v-12H65.26z"/>
	<path id="XMLID_461_" style="fill:#FAC01B;" d="M64,34.26c-20.08,0-25.34,15.57-25.34,37.44c0,22.68,14.58,28.54,25.34,28.54
		c10.6,0,25.34-5.7,25.34-28.54C89.34,49.83,84.08,34.26,64,34.26z"/>
	<path id="XMLID_460_" style="fill:#444444;" d="M67.39,73.73c0,2.26-1.51,4.09-3.38,4.09c-1.87,0-3.39-1.83-3.39-4.09
		c0-2.26,1.52-4.09,3.39-4.09C65.88,69.64,67.39,71.47,67.39,73.73"/>
	<path id="XMLID_459_" style="fill:#444444;" d="M60.61,73.73c0,2.26,1.51,4.09,3.39,4.09c1.87,0,3.39-1.83,3.39-4.09
		c0-2.26-1.52-4.09-3.39-4.09C62.12,69.64,60.61,71.47,60.61,73.73"/>
	<path id="XMLID_458_" style="fill:#513F35;" d="M71.33,87.55c-1.03,0-7.33,0-7.33,0s-6.31,0-7.33,0c-0.84,0-1.2,0.57-0.65,1.41
		c0.78,1.19,3.67,3.46,7.98,3.46s7.2-2.28,7.98-3.46C72.53,88.11,72.17,87.55,71.33,87.55z"/>
	<path id="XMLID_457_" style="fill:#E39400;" d="M67.54,81.32C66.29,81.67,65,81.84,64,81.84c-1,0-2.29-0.17-3.54-0.53
		c-0.53-0.15-0.74,0.35-0.55,0.69c0.4,0.7,1.99,2.1,4.09,2.1c2.1,0,3.7-1.41,4.09-2.1C68.29,81.67,68.08,81.16,67.54,81.32z"/>
	<path id="XMLID_456_" style="fill:#6D4C41;" d="M64.56,31.41c0,0-0.39-0.01-0.56-0.01c-0.17,0-0.56,0.01-0.56,0.01
		c-21.67,0.42-28.2,13.46-28.2,22.5c0,8.79,0.01,15.24,0.01,15.24s0.34-0.36,0.98-0.85c0.68-0.53,1.43-0.83,1.43-0.83l1.09,7.34
		l7.22-15.09c0.04-0.09,0.14-0.15,0.25-0.14l4.28,0.48c4.3,0.48,8.62,0.71,12.94,0.72v0.01c0.19,0,0.37,0,0.56,0
		c0.19,0,0.37,0.01,0.56,0v-0.01c4.32-0.01,8.64-0.24,12.94-0.72l4.28-0.48c0.1-0.01,0.2,0.04,0.25,0.14l7.22,15.09l1.09-7.34
		c0,0,0.75,0.3,1.43,0.83c0.64,0.5,0.98,0.85,0.98,0.85s0.01-6.46,0.01-15.24C92.77,44.86,86.23,31.83,64.56,31.41z"/>
	<g id="XMLID_640_">
		<path id="XMLID_672_" style="fill:#444444;" d="M64,5.91c-6.33,0-30.87,0.27-34.7,18.45c-2.16,10.27-3.09,38.67-2.65,44.28
			c0.88,11.27,5.26,14.85,18.6,19.32C62.09,93.6,64,92.74,64,92.74L64,5.91z"/>
		<path id="XMLID_671_" style="fill:#444444;" d="M64,5.91c6.33,0,30.87,0.27,34.7,18.45c2.16,10.27,3.09,38.67,2.65,44.28
			c-0.88,11.27-5.26,14.85-18.6,19.32C65.91,93.6,64,92.74,64,92.74L64,5.91z"/>
		<path id="XMLID_637_" style="fill:#6D4C41;" d="M34.53,68.3c0,0-0.01-6.65-0.01-15.71c0-9.47,6.94-22.58,30.17-22.58
			c16.21,0,22.27,6.41,22.27,10.69c0,0,6.02,1.08,6.61,8.79c0.41,5.42-0.12,18.44-0.12,18.44s-0.65-0.58-1.39-0.92
			c-0.39-0.18-0.79-0.26-0.79-0.26l-1.09,7.43l-8.06-15.61c-0.05-0.09-0.15-0.15-0.25-0.13l-3.27,0.39
			c-9.41,1.11-18.93,1.15-28.35,0.1l-4.41-0.49c-0.11-0.01-0.21,0.05-0.25,0.14l-7.44,15.55l-1.13-7.57c0,0-0.77,0.31-1.47,0.85
			C34.88,67.93,34.53,68.3,34.53,68.3z"/>
		<g id="XMLID_630_">
			<path id="XMLID_634_" style="fill:#7A4C32;" d="M90.32,66.22c0,0,4.8,0.83,4.8,6c0,4.56-3.5,6.36-7.01,6.36V66.22H90.32z"/>
			<path id="XMLID_632_" style="fill:#7A4C32;" d="M37.93,66.22c0,0-4.8,0.83-4.8,6c0,4.56,3.5,6.36,7.01,6.36V66.22H37.93z"/>
		</g>
		<path id="XMLID_629_" style="fill:#9B643C;" d="M64.12,32.35c-20.7,0-26.12,16.05-26.12,38.59c0,23.37,15.02,29.42,26.12,29.42
			c10.93,0,26.12-5.87,26.12-29.42C90.24,48.39,84.82,32.35,64.12,32.35z"/>
		<path id="XMLID_627_" style="fill:#4C3734;" d="M71.6,86.5c-1.05,0-7.48,0-7.48,0s-6.43,0-7.48,0c-0.86,0-1.23,0.58-0.66,1.44
			c0.79,1.21,3.74,3.53,8.14,3.53s7.35-2.33,8.14-3.53C72.83,87.08,72.46,86.5,71.6,86.5z"/>
		<path id="XMLID_626_" style="fill:#42312C;" d="M71.6,86.5c-1.05,0-7.48,0-7.48,0s-6.43,0-7.48,0c-0.86,0-1.23,0.58-0.66,1.44
			c0.79,1.21,3.74,3.53,8.14,3.53s7.35-2.33,8.14-3.53C72.83,87.08,72.46,86.5,71.6,86.5z"/>
		<path id="XMLID_625_" style="fill:#7A4C32;" d="M67.74,80.14c-1.27,0.36-2.59,0.54-3.61,0.54s-2.34-0.18-3.61-0.54
			c-0.54-0.15-0.76,0.36-0.56,0.7c0.4,0.71,2.03,2.14,4.18,2.14c2.15,0,3.77-1.43,4.18-2.14C68.5,80.5,68.28,79.99,67.74,80.14z"/>
		<path id="XMLID_624_" style="fill:#42312C;" d="M55.61,72.41c0,2.3-1.54,4.17-3.45,4.17c-1.91,0-3.46-1.87-3.46-4.17
			c0-2.31,1.55-4.18,3.46-4.18C54.07,68.23,55.61,70.1,55.61,72.41"/>
		<path id="XMLID_623_" style="fill:#42312C;" d="M72.63,72.41c0,2.3,1.54,4.17,3.46,4.17c1.91,0,3.46-1.87,3.46-4.17
			c0-2.31-1.55-4.18-3.46-4.18C74.17,68.23,72.63,70.1,72.63,72.41"/>
		<path id="XMLID_622_" style="fill:#6D4C41;" d="M38.01,72.4l-1.38-8.5c0,0-2.99-32.75,28.2-32.75s26.34,34.17,26.34,34.17
			l-0.95,7.07l-8.1-13.72c0,0-15.4,1.24-35.4-0.26L38.01,72.4z"/>
		<g id="XMLID_645_">
			<path id="XMLID_650_" style="fill:none;stroke:#444444;stroke-width:4;stroke-miterlimit:10;" d="M38.01,68.93
				c0,0,6.84,27.21,26.12,27.21"/>
			<path id="XMLID_649_" style="fill:none;stroke:#444444;stroke-width:4;stroke-miterlimit:10;" d="M90.24,68.93
				c0,0-6.84,27.21-26.12,27.21"/>
		</g>
		<path id="XMLID_643_" style="fill:#444444;" d="M45.9,10.12c-5.95,2.67-11.53,7.23-11.53,15.03l-2.92,46.3
			c0,2.45,1.95,3.95,4.38,3.45c9.29-1.92,18.73-2.88,28.17-2.88V5.91C56.69,5.91,52.57,7.13,45.9,10.12z"/>
		<path id="XMLID_641_" style="fill:#444444;" d="M82.1,10.12c5.95,2.67,11.53,7.23,11.53,15.03l2.92,46.3
			c0,2.45-1.95,3.95-4.38,3.45c-9.29-1.92-18.73-2.88-28.17-2.88V5.91C71.31,5.91,75.43,7.13,82.1,10.12z"/>
	</g>
	<circle style="fill:#FFFFFF;" cx="70.46" cy="118.3" r="2.38"/>
	<path style="fill:#FFFFFF;" d="M72.83,127.97c0-1.31-1.06-2.38-2.38-2.38s-2.38,1.06-2.38,2.38c0,0.01,0,0.02,0,0.03h4.74
		C72.83,127.99,72.83,127.98,72.83,127.97z"/>
	<g>
		<rect id="XMLID_2_" x="90.18" y="121.43" style="opacity:0.54;" width="2.33" height="6.57"/>
		<rect id="XMLID_4_" x="35.49" y="121.43" style="opacity:0.54;" width="2.33" height="6.57"/>
	</g>
</g>
</svg>
