<svg enable-background="new 0 0 128 128" viewBox="0 0 128 128" xmlns="http://www.w3.org/2000/svg" xmlns:xlink="http://www.w3.org/1999/xlink"><linearGradient id="e" x1="53.329" x2="53.329" y1="29.629" y2="71.392" gradientUnits="userSpaceOnUse"><stop stop-color="#A56C43" offset="0"/><stop stop-color="#8D5738" offset="1"/></linearGradient><path d="m90.42 61.75s-3.17-16.08-6.75-18.92c-4.1-3.24-13.04-3.33-13.04-3.33l-0.04-9.67-10.96-1.02 0.21 10.52s-6.17 0.25-9.17 2.08-11 9.67-11 9.67-14.98 4.04-16.6 4.23c-5.38-2.12-10.23 6.02-8.4 7.6s25.17-1.83 28.5-3.5 8.02-5.81 9.33-6.92v18.92l9.58 12.75 13.92-11.47s1.44-6.38 1.88-20.19l5 11.25s3.38 10.66 3.31 12.22c-0.09 2.23-1.16 2.45-2.09 3.27-2.88 2.54-1 4.25-0.67 4.47s0.81 0.22 0.81 0.22l-0.21 1.73c0.04 0.6 0.42 1.59 1.03 1.59l4.94-0.25c1.23-0.14 2.28-3.8 2.38-7.19 0.18-6.5-1.96-18.06-1.96-18.06z" fill="url(#e)" stroke="#875334" stroke-miterlimit="10"/><path d="m55.18 28.14c-1.85 0-3.35-1.62-3.35-3.6 0-1.99 1.5-3.6 3.35-3.6h19.64c1.85 0 3.35 1.62 3.35 3.6s-1.5 3.6-3.35 3.6h-19.64z" fill="#7A4C32"/><path d="m74.82 21.44c1.57 0 2.85 1.39 2.85 3.1s-1.28 3.1-2.85 3.1h-19.64c-1.57 0-2.85-1.39-2.85-3.1s1.28-3.1 2.85-3.1h19.64m0-1h-19.64c-2.12 0-3.85 1.85-3.85 4.1 0 2.26 1.73 4.1 3.85 4.1h19.64c2.12 0 3.85-1.85 3.85-4.1 0-2.26-1.74-4.1-3.85-4.1z" fill="#663B22"/><linearGradient id="d" x1="65" x2="65" y1="36.166" y2="7.065" gradientUnits="userSpaceOnUse"><stop stop-color="#8D5738" offset="0"/><stop stop-color="#97603D" offset=".2163"/><stop stop-color="#A26941" offset=".5728"/><stop stop-color="#A56C43" offset="1"/></linearGradient><path d="m65 36.41c-5.56 0-11.54-4.32-11.54-13.8 0-7.61 4.41-15.81 11.54-15.82 7.13 0 11.54 8.21 11.54 15.81 0 9.49-5.98 13.81-11.54 13.81z" fill="url(#d)"/><path d="m65 7.3c2.76 0 5.53 1.52 7.58 4.16 2.24 2.88 3.47 6.84 3.47 11.15 0 4.18-1.2 7.65-3.47 10.05-1.98 2.1-4.67 3.25-7.57 3.25s-5.59-1.15-7.57-3.25c-2.27-2.4-3.47-5.88-3.47-10.05 0-4.31 1.23-8.27 3.47-11.15 2.03-2.65 4.8-4.16 7.56-4.16m0-1c-6.25 0-12.04 6.69-12.04 16.31 0 9.57 5.97 14.3 12.04 14.3s12.04-4.73 12.04-14.3c0-9.63-5.79-16.31-12.04-16.31z" fill="#875334"/><path d="m56.37 20.54s0.05-0.07 0.14-0.18c0.02-0.03 0.04-0.06 0.08-0.09 0.04-0.04 0.08-0.08 0.13-0.12s0.1-0.09 0.15-0.14 0.11-0.08 0.17-0.12 0.12-0.09 0.19-0.13 0.14-0.08 0.22-0.12c0.07-0.04 0.15-0.08 0.24-0.11 0.08-0.03 0.17-0.07 0.25-0.1 0.18-0.05 0.36-0.11 0.55-0.13 0.19-0.04 0.39-0.04 0.58-0.05 0.2 0.01 0.39 0.01 0.58 0.05 0.19 0.02 0.38 0.08 0.55 0.13 0.09 0.03 0.17 0.06 0.25 0.1 0.08 0.03 0.16 0.07 0.24 0.11 0.07 0.04 0.15 0.08 0.22 0.12s0.13 0.09 0.19 0.13 0.12 0.08 0.17 0.12 0.1 0.09 0.14 0.13 0.09 0.08 0.12 0.11c0.04 0.04 0.07 0.07 0.09 0.11 0.11 0.13 0.17 0.21 0.17 0.21 0.18 0.25 0.12 0.61-0.13 0.79-0.15 0.11-0.35 0.13-0.51 0.08l-0.1-0.04s-0.07-0.02-0.18-0.07c-0.03-0.01-0.06-0.03-0.09-0.04s-0.07-0.03-0.11-0.04c-0.07-0.03-0.16-0.06-0.25-0.09-0.05-0.01-0.09-0.03-0.14-0.05-0.05-0.01-0.1-0.03-0.15-0.04-0.03-0.01-0.05-0.01-0.08-0.02s-0.06-0.01-0.08-0.02c-0.06-0.01-0.11-0.02-0.17-0.04-0.12-0.01-0.24-0.04-0.36-0.04-0.12-0.02-0.25-0.01-0.37-0.02-0.12 0.01-0.25 0-0.37 0.02-0.12 0.01-0.24 0.03-0.36 0.04-0.06 0.01-0.11 0.03-0.17 0.04-0.03 0.01-0.06 0.01-0.08 0.02-0.03 0.01-0.05 0.01-0.08 0.02-0.05 0.01-0.1 0.03-0.15 0.04s-0.1 0.03-0.14 0.05c-0.05 0.01-0.09 0.03-0.13 0.04s-0.07 0.03-0.11 0.04c-0.03 0.01-0.07 0.02-0.1 0.03s-0.07 0.04-0.1 0.05c-0.13 0.06-0.21 0.1-0.21 0.1-0.3 0.12-0.64-0.02-0.76-0.31-0.07-0.2-0.04-0.41 0.06-0.57z" fill="#42312C"/><ellipse cx="59.09" cy="23.45" rx="1.77" ry="1.83" fill="#42312C"/><path d="m72.92 21.41s-0.08-0.03-0.21-0.1c-0.03-0.02-0.07-0.04-0.1-0.05s-0.06-0.02-0.1-0.03c-0.03-0.01-0.07-0.02-0.11-0.04-0.04-0.01-0.09-0.03-0.13-0.04-0.05-0.01-0.09-0.03-0.14-0.05-0.05-0.01-0.1-0.03-0.15-0.04-0.03-0.01-0.05-0.01-0.08-0.02s-0.06-0.01-0.08-0.02c-0.06-0.01-0.11-0.03-0.17-0.04-0.12-0.01-0.24-0.04-0.36-0.04-0.12-0.02-0.25-0.01-0.37-0.02-0.12 0.01-0.25 0-0.37 0.02-0.12 0.01-0.24 0.03-0.36 0.04-0.06 0.01-0.11 0.03-0.17 0.04-0.03 0.01-0.06 0.01-0.08 0.02-0.03 0.01-0.05 0.01-0.08 0.02-0.05 0.01-0.1 0.03-0.15 0.04s-0.1 0.03-0.14 0.05c-0.09 0.03-0.18 0.06-0.25 0.09-0.04 0.01-0.07 0.03-0.11 0.04-0.03 0.01-0.06 0.03-0.09 0.04-0.11 0.05-0.18 0.07-0.18 0.07l-0.1 0.04c-0.29 0.1-0.62-0.05-0.72-0.35-0.06-0.18-0.03-0.37 0.07-0.52 0 0 0.06-0.08 0.17-0.21 0.03-0.03 0.06-0.07 0.09-0.11 0.04-0.04 0.08-0.07 0.12-0.11s0.09-0.08 0.14-0.13c0.05-0.04 0.11-0.08 0.17-0.12s0.12-0.09 0.19-0.13 0.14-0.08 0.22-0.12c0.07-0.04 0.15-0.08 0.24-0.11 0.08-0.03 0.17-0.07 0.25-0.1 0.18-0.05 0.36-0.1 0.55-0.13 0.19-0.04 0.39-0.04 0.58-0.05 0.2 0.01 0.39 0.01 0.58 0.05 0.19 0.02 0.38 0.08 0.55 0.13 0.09 0.03 0.17 0.06 0.25 0.1 0.08 0.03 0.16 0.07 0.24 0.11 0.07 0.04 0.15 0.08 0.22 0.12s0.13 0.09 0.19 0.13 0.12 0.08 0.17 0.12c0.05 0.05 0.11 0.09 0.15 0.14 0.05 0.04 0.09 0.08 0.13 0.12 0.03 0.04 0.05 0.07 0.08 0.09 0.09 0.11 0.14 0.18 0.14 0.18 0.18 0.27 0.11 0.63-0.15 0.81-0.15 0.13-0.36 0.14-0.54 0.07z" fill="#42312C"/><ellipse cx="70.91" cy="23.45" rx="1.77" ry="1.83" fill="#42312C"/><path d="m66.39 26.77c-0.04-0.02-0.08-0.02-0.12-0.03h-2.54c-0.04 0-0.08 0.01-0.12 0.03-0.23 0.09-0.36 0.33-0.25 0.59 0.11 0.25 0.61 0.97 1.63 0.97s1.53-0.71 1.63-0.97c0.12-0.26 0-0.5-0.23-0.59z" fill="#875334"/><path d="m68.02 29.68c-1.14 0.68-4.9 0.68-6.04 0-0.66-0.39-1.33 0.21-1.06 0.8s2.32 1.95 4.09 1.95 3.79-1.36 4.06-1.95c0.27-0.6-0.39-1.19-1.05-0.8z" fill="#473530"/><defs><path id="c" d="m65 3.77h-0.01c-16.33 0.08-12.98 18.73-12.98 18.73s1.83 3.23 1.83 3.16c-0.01-0.5 0.16-2.47 0.16-2.47l-0.96-1.05s1.4-9.14 2.44-8.95c1.6 0.29 9.54 0.72 9.55 0.72 2.81 0 5.36-0.13 6.96-0.42 1.04-0.19 3.47 0.61 3.84 1.6 0.48 1.27 1.12 7.08 1.12 7.08l-0.96 1.02s0.18 1.98 0.16 2.48c0 0.06 1.83-3.16 1.83-3.16s3.35-18.66-12.98-18.74z"/></defs><clipPath><use xlink:href="#c"/></clipPath><radialGradient id="b" cx="65.093" cy="3.8548" r="17.551" gradientUnits="userSpaceOnUse"><stop stop-color="#40D7BC" offset="0"/><stop stop-color="#17A6A4" offset="1"/></radialGradient><path d="m65.01 3.77c-0.01 0-0.01 0 0 0h-0.01c-16.33 0.08-12.99 18.73-12.99 18.73s1.83 3.23 1.83 3.16c-0.06-2.61 0.99-7.22 1.72-9.18 0.37-0.99 1.4-1.57 2.44-1.38 1.6 0.29 4.15 0.65 6.96 0.65h0.03 0.03c2.81 0 5.36-0.36 6.96-0.65 1.04-0.19 2.07 0.39 2.44 1.38 0.74 1.96 1.78 6.58 1.72 9.18 0 0.06 1.83-3.16 1.83-3.16s3.36-18.65-12.96-18.73z" fill="url(#b)"/><path d="m65.01 3.77c-0.01 0-0.01 0 0 0h-0.01c-16.33 0.08-12.99 18.73-12.99 18.73s1.8 3.17 1.83 3.17c-0.01-0.53 0.02-1.15 0.09-1.81-0.04-0.1-0.88-1.71-0.89-1.72-0.09-0.57-0.33-2.51-0.2-4.87 0.15-2.53 0.78-6.09 2.95-8.7 2.04-2.44 5.13-3.69 9.18-3.72h0.01c4.07 0.02 7.16 1.27 9.2 3.72 3.88 4.66 2.94 12.33 2.76 13.58-0.01 0.01-0.88 1.65-0.9 1.67 0.07 0.68 0.11 1.31 0.1 1.86 0.03 0 1.83-3.17 1.83-3.17s3.36-18.66-12.96-18.74z" fill="#117876"/><linearGradient id="a" x1="55.09" x2="87.947" y1="69.773" y2="126.22" gradientUnits="userSpaceOnUse"><stop stop-color="#00ECDA" offset="0"/><stop stop-color="#00E6D4" offset=".114"/><stop stop-color="#00D6C1" offset=".2734"/><stop stop-color="#00BBA4" offset=".4589"/><stop stop-color="#00B49C" offset=".5004"/><stop stop-color="#00D9C5" offset="1"/></linearGradient><path d="m66.21 124.48c-3.06 0-5.86-0.63-8.09-1.81-9.57-5.09-13.16-19.51-9.61-38.58 0.74-3.96 1.81-8.9 3.62-12.6 0.84 1.24 3.09 3.98 9.43 4.27 0.36 0.02 0.71 0.02 1.06 0.02 5.02 0 9.23-1.57 11.75-2.5 0.66-0.24 1.29-0.48 1.65-0.57 0.94 10.64-1.89 14.82-4.88 19.25-2.78 4.12-5.66 8.38-5.66 17.92 0 6.43 2.34 8 6.1 8.44 0.23 0.03 0.46 0.04 0.69 0.04 2.01 0 4.21-0.99 6.72-3.02l0.38-0.3-0.28-0.39c-1.65-2.31-3.4-5.08-3.87-8.1-0.48-3.09 0.21-6.82 1.91-10.24 0.62-1.25 1.51-2.84 2.83-3.96 0.36-0.31 0.75-0.59 1.17-0.84-0.24 0.69-0.42 1.38-0.46 1.58-0.28 1.27-0.09 2.74 0.52 4.13 0.55 1.25 1.36 2.31 2.14 3.34 0.88 1.16 1.71 2.25 2.21 3.58 0.26 0.7 0.45 1.42 0.57 2.14 0.03 0.17 0.03 0.39 0.04 0.61 0.02 0.57 0.04 1.33 0.33 1.74l0.15 0.38h0.27c0.14 0 0.15-0.17 1.58-0.75 0.57-0.23 1.13-0.54 1.25-0.58 0.94-0.28 1.97-0.46 2.97-0.59l0.18-0.04c1.52-0.21 3.07-0.32 4.6-0.32 0.62 0 1.24 0.01 1.86 0.05l0.8 0.05c0.66 0.04 1.31 0.08 1.97 0.08 0.76 0 1.42-0.06 2.02-0.18 0.22-0.04 0.43-0.1 0.65-0.17 0.7-0.22 1.32-0.53 1.84-0.93-1.46 4.75-6.35 13.37-16.23 13.37-2.45 0-5.09-0.54-7.84-1.6l-0.37-0.14-0.23 0.32c-2.95 4.13-9.28 6.9-15.74 6.9z" fill="url(#a)"/><path d="m52.23 72.49c1.19 1.43 3.74 3.54 9.3 3.79 0.36 0.02 0.72 0.02 1.08 0.02 5.11 0 9.38-1.59 11.93-2.54 0.34-0.13 0.71-0.26 1.02-0.37 0.76 9.99-1.97 14.02-4.84 18.28-2.83 4.18-5.75 8.5-5.75 18.2 0 5.89 1.84 8.4 6.56 8.95 0.25 0.03 0.5 0.04 0.75 0.04 2.13 0 4.43-1.02 7.04-3.13l0.75-0.61-0.56-0.79c-1.62-2.26-3.33-4.97-3.78-7.88-0.47-2.99 0.21-6.61 1.86-9.93 0.59-1.19 1.42-2.67 2.62-3.74-0.03 0.11-0.04 0.17-0.04 0.18-0.3 1.38-0.1 2.95 0.55 4.45 0.57 1.3 1.4 2.39 2.2 3.44 0.86 1.13 1.67 2.19 2.13 3.45 0.25 0.67 0.43 1.35 0.55 2.05 0.02 0.12 0.03 0.34 0.04 0.54 0.02 0.62 0.05 1.23 0.42 1.76l0.31 0.35h0.53c0.25 0 0.25 0.09 1.78-0.53 0.46-0.19 1.09-0.39 1.2-0.43 0.91-0.27 1.93-0.38 2.91-0.51l0.16-0.01c1.5-0.2 3.02-0.3 4.54-0.3 0.61 0 1.22 0.02 1.83 0.05 0.26 0.01 0.52 0.03 0.79 0.05 0.65 0.04 1.33 0.09 2 0.09 0.79 0 1.49-0.06 2.13-0.19 0.24-0.05 0.47-0.11 0.7-0.18 0.26-0.08 0.51-0.18 0.76-0.28-1.82 4.72-6.53 11.72-15.3 11.72-2.39 0-4.97-0.53-7.66-1.56l-0.74-0.29-0.46 0.65c-2.87 4-9.03 6.69-15.33 6.69-2.98 0-5.69-0.61-7.85-1.75-9.36-4.98-12.85-19.19-9.35-38.03 0.68-3.66 1.65-8.16 3.22-11.7m-0.16-1.92c-0.02 0-0.05 0.02-0.07 0.06-2.06 3.82-3.21 9.12-4 13.38-3.25 17.46-0.78 33.46 9.88 39.12 2.39 1.27 5.31 1.87 8.33 1.87 6.25 0 12.91-2.58 16.17-7.12 2.97 1.14 5.64 1.63 8.03 1.63 11.86 0 16.87-12.02 17.21-15.99-0.45 1.27-1.66 2.14-2.97 2.54-0.2 0.06-0.4 0.11-0.6 0.15-0.63 0.13-1.28 0.17-1.92 0.17-0.91 0-1.83-0.08-2.74-0.13-0.63-0.03-1.25-0.05-1.88-0.05-1.56 0-3.12 0.11-4.67 0.31-1.07 0.14-2.19 0.21-3.22 0.51-0.26 0.08-2.6 0.98-2.69 0.98-0.3 0-0.19-1.34-0.28-1.9-0.13-0.76-0.33-1.47-0.6-2.19-0.98-2.65-3.24-4.39-4.36-6.93-0.52-1.18-0.77-2.53-0.49-3.8 0.15-0.68 0.68-2.43 1.05-2.83-0.18 0.2-0.58 0.29-0.82 0.41-0.64 0.32-1.24 0.72-1.78 1.18-1.29 1.11-2.2 2.61-2.95 4.13-1.56 3.13-2.51 7.04-1.96 10.55 0.48 3.05 2.2 5.85 3.96 8.32-1.87 1.51-4.11 2.91-6.4 2.91-0.21 0-0.42-0.01-0.63-0.04-3.67-0.44-5.67-1.94-5.67-7.94 0-19.75 12.5-16.44 10.5-37.56-0.01-0.11-0.09-0.15-0.24-0.15-1.19 0-6.69 3.11-13.65 3.11-0.34 0-0.69-0.01-1.03-0.02-8.04-0.36-9.13-4.68-9.51-4.68z" fill="#009984"/><path d="m51.4 78.01s0.03 0.15 0.1 0.37c0.07 0.2 0.2 0.47 0.37 0.72 0.18 0.26 0.4 0.51 0.67 0.76 0.12 0.13 0.29 0.23 0.42 0.36 0.14 0.12 0.3 0.23 0.46 0.32 0.01 0.01 0.22 0.14 0.22 0.13 0.04 0.03 0.12 0.06 0.19 0.09 0.15 0.04 0.3 0.13 0.47 0.16 0.33 0.08 0.67 0.12 0.99 0.12 0.32-0.01 0.62-0.04 0.84-0.09 0.23-0.05 0.37-0.09 0.37-0.09l0.08 0.08s-0.08 0.1-0.25 0.24c-0.17 0.15-0.43 0.34-0.79 0.49-0.35 0.15-0.8 0.25-1.29 0.24-0.48-0.01-1.01-0.15-1.44-0.43-0.87-0.56-1.46-1.48-1.6-2.24-0.15-0.77 0.11-1.28 0.08-1.26l0.11 0.03z" fill="#009984"/><path d="m58.49 81.36s0.12 0.06 0.32 0.17c0.18 0.09 0.45 0.22 0.73 0.34 0.29 0.12 0.6 0.22 0.91 0.31 0.16 0.05 0.32 0.06 0.48 0.1 0.16 0.03 0.31 0.05 0.47 0.06 0.01 0.01 0.24 0.03 0.25 0.02 0.05 0.01 0.14 0 0.22 0 0.16-0.02 0.32 0 0.48-0.02 0.32-0.03 0.64-0.09 0.94-0.16 0.59-0.15 1.1-0.36 1.1-0.36l0.09 0.06s-0.06 0.1-0.19 0.25c-0.13 0.16-0.32 0.37-0.6 0.58s-0.63 0.41-1.04 0.56c-0.41 0.14-0.89 0.21-1.35 0.18-0.94-0.09-1.77-0.61-2.24-1.11-0.24-0.25-0.41-0.48-0.51-0.66-0.1-0.17-0.15-0.27-0.15-0.27l0.09-0.05z" fill="#009984"/><path d="m60.46 85.12s0.1 0.08 0.29 0.22c0.16 0.12 0.41 0.29 0.66 0.45 0.27 0.16 0.56 0.31 0.85 0.45 0.15 0.07 0.31 0.11 0.45 0.18 0.15 0.06 0.3 0.1 0.45 0.13 0.01 0.01 0.23 0.06 0.25 0.06 0.05 0.01 0.13 0.02 0.21 0.03 0.16 0.01 0.32 0.05 0.48 0.05 0.32 0.02 0.65 0.01 0.96-0.01 0.6-0.05 1.14-0.18 1.14-0.18l0.08 0.08s-0.08 0.09-0.23 0.22c-0.15 0.14-0.38 0.31-0.68 0.48-0.3 0.16-0.69 0.31-1.12 0.39s-0.91 0.07-1.36-0.03c-0.92-0.23-1.65-0.88-2.04-1.45-0.2-0.28-0.33-0.54-0.4-0.73-0.08-0.19-0.11-0.29-0.11-0.29l0.12-0.05z" fill="#009984"/><path d="m65.42 82.33s0.13 0.03 0.35 0.08c0.2 0.04 0.49 0.09 0.79 0.13 0.31 0.03 0.64 0.04 0.96 0.04 0.16 0 0.33-0.04 0.49-0.04 0.16-0.01 0.32-0.04 0.46-0.08 0.01 0 0.24-0.04 0.25-0.05 0.05-0.01 0.13-0.04 0.2-0.06 0.14-0.06 0.31-0.09 0.45-0.17 0.3-0.13 0.58-0.28 0.85-0.44 0.25-0.16 0.49-0.33 0.65-0.46 0.17-0.14 0.27-0.22 0.27-0.22l0.11 0.03s-0.03 0.11-0.1 0.3-0.19 0.46-0.38 0.75c-0.2 0.29-0.47 0.59-0.83 0.85-0.35 0.26-0.79 0.47-1.24 0.57-0.93 0.2-1.88-0.07-2.48-0.42-0.3-0.17-0.53-0.36-0.67-0.5-0.15-0.14-0.22-0.23-0.22-0.23l0.09-0.08z" fill="#009984"/><path d="m49.4 84.55c0.01-0.01 0.01 0.17 0.08 0.39 0.06 0.21 0.19 0.49 0.37 0.75 0.09 0.13 0.21 0.26 0.32 0.39 0.13 0.12 0.27 0.26 0.41 0.39 0.15 0.13 0.31 0.25 0.47 0.38 0.15 0.13 0.36 0.25 0.51 0.34 0.13 0.09 0.18 0.11 0.25 0.15 0.08 0.03 0.17 0.08 0.26 0.11 0.17 0.08 0.36 0.15 0.55 0.2 0.19 0.03 0.38 0.11 0.57 0.13s0.37 0.05 0.55 0.06c0.35 0.02 0.67 0 0.91-0.03s0.39-0.06 0.39-0.06l0.07 0.09s-0.1 0.09-0.3 0.23-0.5 0.3-0.89 0.42-0.87 0.18-1.38 0.14-1.06-0.18-1.53-0.46c-0.94-0.57-1.65-1.49-1.82-2.31-0.1-0.4-0.06-0.76 0-0.99 0.06-0.24 0.12-0.35 0.12-0.35l0.09 0.03z" fill="#009984"/><path d="m55.53 87.8s0.1 0.08 0.28 0.23c0.16 0.13 0.39 0.31 0.64 0.48 0.26 0.17 0.54 0.34 0.83 0.5 0.14 0.08 0.3 0.13 0.44 0.2 0.15 0.07 0.3 0.12 0.45 0.16 0.01 0.01 0.23 0.08 0.24 0.08 0.05 0.02 0.13 0.03 0.21 0.05 0.16 0.02 0.31 0.07 0.48 0.08 0.32 0.04 0.65 0.05 0.96 0.04 0.3-0.01 0.59-0.04 0.8-0.07 0.22-0.03 0.35-0.05 0.35-0.05l0.08 0.08s-0.08 0.08-0.24 0.21-0.39 0.29-0.71 0.44c-0.62 0.3-1.58 0.49-2.49 0.21-0.9-0.28-1.6-0.97-1.96-1.56-0.18-0.29-0.3-0.56-0.36-0.75-0.07-0.19-0.09-0.3-0.09-0.3l0.09-0.03z" fill="#009984"/><path d="m62.25 89.85s0.11 0.07 0.3 0.19c0.17 0.1 0.42 0.24 0.68 0.37 0.27 0.12 0.57 0.24 0.86 0.33 0.15 0.05 0.3 0.06 0.45 0.11 0.15 0.03 0.29 0.05 0.44 0.06 0.19 0.02 0.28 0.03 0.44 0.03 0.15-0.02 0.3 0 0.46-0.02 0.31-0.03 0.62-0.09 0.91-0.16 0.57-0.15 1.07-0.36 1.07-0.36l0.09 0.06s-0.06 0.1-0.18 0.25c-0.12 0.16-0.31 0.37-0.57 0.58s-0.61 0.42-1.01 0.56-0.86 0.21-1.32 0.18c-0.93-0.1-1.71-0.65-2.14-1.17-0.22-0.26-0.36-0.5-0.45-0.68s-0.13-0.28-0.13-0.28l0.1-0.05z" fill="#009984"/><path d="m48.38 93.55s0.03 0.15 0.09 0.35c0.06 0.18 0.18 0.44 0.33 0.67 0.17 0.24 0.36 0.47 0.59 0.7 0.11 0.12 0.26 0.22 0.37 0.34 0.13 0.11 0.26 0.22 0.4 0.31 0 0 0.19 0.14 0.19 0.13 0.03 0.02 0.1 0.06 0.16 0.09 0.13 0.05 0.26 0.14 0.4 0.17 0.29 0.09 0.59 0.16 0.89 0.19 0.29 0.02 0.58 0.01 0.78-0.02 0.22-0.03 0.35-0.05 0.35-0.05l0.08 0.08s-0.08 0.09-0.25 0.21c-0.16 0.13-0.42 0.29-0.75 0.41-0.34 0.12-0.75 0.19-1.2 0.15-0.44-0.03-0.92-0.19-1.32-0.47-0.77-0.57-1.28-1.44-1.37-2.15-0.1-0.72 0.16-1.18 0.14-1.17l0.12 0.06z" fill="#009984"/><path d="m53.13 96.56s0.1 0.08 0.27 0.21c0.15 0.11 0.38 0.27 0.61 0.43 0.24 0.15 0.51 0.3 0.77 0.43 0.13 0.07 0.28 0.11 0.4 0.18 0.13 0.06 0.27 0.1 0.4 0.14 0 0.01 0.21 0.07 0.22 0.07 0.04 0.02 0.11 0.03 0.19 0.04 0.14 0.01 0.28 0.07 0.43 0.08 0.29 0.04 0.59 0.06 0.87 0.07 0.56 0 1.08-0.07 1.08-0.07l0.08 0.08s-0.08 0.08-0.22 0.19c-0.14 0.12-0.36 0.27-0.65 0.41-0.57 0.28-1.47 0.45-2.31 0.2-0.84-0.26-1.48-0.9-1.81-1.44-0.17-0.27-0.28-0.52-0.34-0.7s-0.09-0.28-0.09-0.28l0.1-0.04z" fill="#009984"/><path d="m58.55 98.31s0.1 0.07 0.28 0.18c0.16 0.1 0.39 0.23 0.63 0.35 0.25 0.12 0.52 0.23 0.78 0.32 0.13 0.05 0.27 0.06 0.4 0.11 0.13 0.04 0.26 0.06 0.38 0.07 0.18 0.03 0.24 0.04 0.39 0.05 0.13-0.01 0.27 0.02 0.41 0.01 0.28-0.01 0.56-0.03 0.84-0.07 0.53-0.09 1.02-0.25 1.02-0.25l0.09 0.07s-0.06 0.09-0.18 0.22c-0.12 0.14-0.3 0.33-0.55 0.51s-0.58 0.36-0.96 0.47-0.81 0.15-1.23 0.1c-0.85-0.14-1.55-0.7-1.92-1.19-0.19-0.25-0.31-0.48-0.38-0.65s-0.1-0.26-0.1-0.26l0.1-0.04z" fill="#009984"/><path d="m55.28 76.17s0.11 0.1 0.29 0.26c0.17 0.15 0.42 0.35 0.69 0.56 0.28 0.2 0.6 0.4 0.93 0.58 0.16 0.09 0.35 0.15 0.51 0.24 0.17 0.07 0.34 0.13 0.52 0.17 0.02 0.01 0.25 0.08 0.28 0.08 0.06 0.02 0.16 0.03 0.25 0.05 0.18 0.01 0.37 0.06 0.55 0.07 0.37 0.02 0.74 0.01 1.08-0.02 0.34-0.04 0.65-0.09 0.88-0.14 0.24-0.05 0.37-0.08 0.37-0.08l0.08 0.08s-0.09 0.09-0.26 0.24-0.43 0.34-0.77 0.51-0.78 0.32-1.26 0.39-1.01 0.05-1.51-0.09c-1.01-0.29-1.8-1.05-2.21-1.69-0.21-0.32-0.34-0.62-0.42-0.83s-0.11-0.33-0.11-0.33l0.11-0.05z" fill="#009984"/><path d="m64.25 78.03s0.14 0.01 0.36 0.04c0.21 0.03 0.52 0.08 0.83 0.15 0.32 0.05 0.65 0.1 0.97 0.12 0.16 0.02 0.33 0 0.49 0.01s0.36-0.01 0.51-0.01c0.12 0 0.22 0 0.27-0.01 0.07 0 0.16-0.02 0.23-0.03 0.16-0.02 0.31-0.03 0.46-0.07 0.14-0.05 0.3-0.06 0.44-0.11s0.28-0.1 0.42-0.16c0.26-0.12 0.51-0.27 0.69-0.38 0.19-0.12 0.29-0.19 0.29-0.19l0.1 0.04s-0.04 0.11-0.13 0.28c-0.09 0.18-0.23 0.43-0.46 0.69-0.22 0.26-0.54 0.52-0.93 0.71s-0.85 0.3-1.31 0.33c-0.93 0.06-1.84-0.26-2.4-0.65-0.57-0.38-0.9-0.69-0.9-0.69l0.07-0.07z" fill="#009984"/><path d="m53.05 83.23s0.11 0.1 0.29 0.26c0.17 0.15 0.42 0.35 0.69 0.56 0.28 0.2 0.6 0.4 0.93 0.58 0.16 0.09 0.35 0.15 0.51 0.24 0.17 0.07 0.34 0.13 0.52 0.17 0.02 0.01 0.25 0.08 0.28 0.08 0.06 0.02 0.16 0.03 0.25 0.05 0.18 0.01 0.37 0.06 0.55 0.07 0.37 0.02 0.74 0.01 1.08-0.02 0.34-0.04 0.65-0.09 0.88-0.14 0.24-0.05 0.37-0.08 0.37-0.08l0.08 0.08s-0.09 0.09-0.26 0.24-0.43 0.34-0.77 0.51-0.78 0.32-1.26 0.39-1.01 0.05-1.51-0.09c-1.01-0.29-1.8-1.05-2.21-1.69-0.21-0.32-0.34-0.62-0.42-0.83s-0.11-0.33-0.11-0.33l0.11-0.05z" fill="#009984"/><path d="m58.28 93.16s0.1 0.08 0.29 0.22c0.16 0.12 0.41 0.29 0.66 0.45 0.27 0.16 0.56 0.31 0.85 0.45 0.15 0.07 0.31 0.11 0.45 0.18 0.15 0.06 0.3 0.1 0.45 0.13 0.01 0.01 0.23 0.06 0.25 0.06 0.05 0.01 0.13 0.02 0.21 0.03 0.16 0.01 0.32 0.05 0.48 0.05 0.32 0.02 0.65 0.01 0.96-0.01 0.6-0.05 1.14-0.18 1.14-0.18l0.08 0.08s-0.08 0.09-0.23 0.22c-0.15 0.14-0.38 0.31-0.68 0.48-0.3 0.16-0.69 0.31-1.12 0.39s-0.91 0.07-1.36-0.03c-0.92-0.23-1.65-0.88-2.04-1.45-0.2-0.28-0.33-0.54-0.4-0.73-0.08-0.19-0.11-0.29-0.11-0.29l0.12-0.05z" fill="#009984"/><path d="m51.05 89.99s0.1 0.1 0.27 0.29c0.15 0.16 0.39 0.39 0.64 0.61 0.26 0.23 0.57 0.45 0.88 0.66 0.15 0.11 0.33 0.18 0.49 0.28 0.16 0.09 0.33 0.17 0.5 0.22 0.01 0.01 0.25 0.1 0.28 0.1 0.06 0.02 0.15 0.05 0.24 0.07 0.18 0.03 0.36 0.1 0.54 0.11 0.37 0.05 0.74 0.07 1.08 0.07 0.34-0.01 0.65-0.03 0.88-0.07 0.24-0.03 0.38-0.05 0.38-0.05l0.07 0.09s-0.1 0.09-0.28 0.22-0.46 0.3-0.82 0.45c-0.36 0.14-0.8 0.26-1.29 0.28-0.48 0.03-1.01-0.05-1.5-0.22-0.98-0.38-1.71-1.2-2.06-1.88-0.18-0.34-0.29-0.64-0.35-0.86s-0.08-0.34-0.08-0.34l0.13-0.03z" fill="#009984"/><path d="m56.28 102.16s0.1 0.08 0.29 0.22c0.16 0.12 0.41 0.29 0.66 0.45 0.27 0.16 0.56 0.31 0.85 0.45 0.15 0.07 0.31 0.11 0.45 0.18 0.15 0.06 0.3 0.1 0.45 0.13 0.01 0.01 0.23 0.06 0.25 0.06 0.05 0.01 0.13 0.02 0.21 0.03 0.16 0.01 0.32 0.05 0.48 0.05 0.32 0.02 0.65 0.01 0.96-0.01 0.6-0.05 1.14-0.18 1.14-0.18l0.08 0.08s-0.08 0.09-0.23 0.22c-0.15 0.14-0.38 0.31-0.68 0.48-0.3 0.16-0.69 0.31-1.12 0.39s-0.91 0.07-1.36-0.03c-0.92-0.23-1.65-0.88-2.04-1.45-0.2-0.28-0.33-0.54-0.4-0.73-0.08-0.19-0.11-0.29-0.11-0.29l0.12-0.05z" fill="#009984"/><path d="m49.05 99.99s0.1 0.1 0.27 0.29c0.15 0.16 0.39 0.39 0.64 0.61 0.26 0.23 0.57 0.45 0.88 0.66 0.15 0.11 0.33 0.18 0.49 0.28 0.16 0.09 0.33 0.17 0.5 0.22 0.01 0.01 0.25 0.1 0.28 0.1 0.06 0.02 0.15 0.05 0.24 0.07 0.18 0.03 0.36 0.1 0.54 0.11 0.37 0.05 0.74 0.07 1.08 0.07 0.34-0.01 0.65-0.03 0.88-0.07 0.24-0.03 0.38-0.05 0.38-0.05l0.07 0.09s-0.1 0.09-0.28 0.22-0.46 0.3-0.82 0.45c-0.36 0.14-0.8 0.26-1.29 0.28-0.48 0.03-1.01-0.05-1.5-0.22-0.98-0.38-1.71-1.2-2.06-1.88-0.18-0.34-0.29-0.64-0.35-0.86s-0.08-0.34-0.08-0.34l0.13-0.03z" fill="#009984"/><path d="m52.69 104.69s0.12 0.08 0.32 0.22c0.19 0.12 0.47 0.29 0.76 0.46 0.31 0.16 0.65 0.31 1 0.45 0.17 0.07 0.36 0.1 0.54 0.16 0.18 0.05 0.36 0.09 0.54 0.1 0.02 0.01 0.26 0.04 0.29 0.04 0.07 0.01 0.16 0.01 0.25 0.01 0.18-0.01 0.37 0.02 0.56-0.01 0.37-0.03 0.73-0.09 1.07-0.17 0.33-0.09 0.63-0.18 0.85-0.26 0.23-0.09 0.36-0.13 0.36-0.13l0.09 0.07s-0.07 0.1-0.22 0.27-0.38 0.4-0.7 0.62-0.72 0.43-1.19 0.56c-0.46 0.13-1 0.18-1.51 0.12-1.04-0.15-1.93-0.79-2.43-1.37-0.25-0.29-0.43-0.56-0.53-0.76-0.11-0.2-0.15-0.31-0.15-0.31l0.1-0.07z" fill="#009984"/><path d="m84.24 115.05s0.28-0.45 0.82-1.01 1.35-1.22 2.23-1.75c0.89-0.52 1.86-0.92 2.61-1.11 0.75-0.21 1.28-0.23 1.28-0.23s-0.41 0.34-1.05 0.75c-0.63 0.42-1.48 0.94-2.34 1.45-0.86 0.5-1.72 0.99-2.4 1.34-0.65 0.36-1.15 0.56-1.15 0.56z" fill="#009984"/><path d="m90.36 114.72s0.37-0.33 0.9-0.74c0.54-0.42 1.23-0.97 1.9-1.54 0.68-0.56 1.34-1.15 1.85-1.6s0.89-0.75 0.89-0.75-0.1 0.48-0.44 1.11c-0.33 0.63-0.93 1.4-1.66 2.01-0.37 0.3-0.76 0.58-1.16 0.79-0.39 0.21-0.77 0.38-1.12 0.49-0.67 0.21-1.16 0.23-1.16 0.23z" fill="#009984"/><path d="m96.21 114.34s0.07-0.09 0.21-0.24c0.13-0.14 0.32-0.35 0.55-0.6 0.44-0.48 0.99-1.12 1.49-1.8 0.5-0.67 0.96-1.38 1.29-1.94s0.58-0.97 0.58-0.97 0.08 0.47-0.04 1.16c-0.05 0.35-0.17 0.74-0.34 1.15s-0.42 0.81-0.68 1.2c-0.29 0.37-0.61 0.72-0.95 1s-0.68 0.51-1 0.66c-0.65 0.33-1.11 0.38-1.11 0.38z" fill="#009984"/><path d="m80.63 113.2s0.03-0.13 0.11-0.34c0.07-0.21 0.16-0.5 0.28-0.86 0.23-0.7 0.49-1.62 0.68-2.55 0.2-0.93 0.32-1.87 0.39-2.61 0.07-0.73 0.13-1.25 0.13-1.25s0.27 0.45 0.45 1.22c0.1 0.38 0.15 0.83 0.16 1.32s-0.05 1.01-0.14 1.53c-0.12 0.51-0.27 1.01-0.48 1.46-0.21 0.44-0.43 0.84-0.67 1.15-0.49 0.63-0.91 0.93-0.91 0.93z" fill="#009984"/><path d="m79.59 110.75s-0.16-0.12-0.39-0.39-0.52-0.71-0.71-1.3c-0.2-0.59-0.31-1.31-0.3-2.08 0.01-0.39 0.04-0.77 0.1-1.17 0.06-0.39 0.13-0.78 0.21-1.17 0.17-0.77 0.35-1.51 0.48-2.21 0.12-0.69 0.18-1.34 0.18-1.9-0.01-0.56-0.08-1.03-0.16-1.36s-0.15-0.52-0.15-0.52 0.14 0.14 0.33 0.44 0.42 0.77 0.55 1.37c0.14 0.6 0.19 1.32 0.13 2.09-0.05 0.76-0.22 1.54-0.37 2.3-0.09 0.38-0.17 0.75-0.24 1.12-0.06 0.36-0.14 0.73-0.18 1.07-0.08 0.69-0.09 1.34-0.02 1.89 0.06 0.55 0.2 1.01 0.32 1.33 0.12 0.3 0.22 0.49 0.22 0.49z" fill="#009984"/><path d="m84.12 84 2.81-1.44s1.25-0.25 1.12 0.75-0.12 1-0.12 1" fill="none" stroke="#875334" stroke-linecap="round" stroke-linejoin="round" stroke-miterlimit="10"/><path d="m16.06 63.92c-0.63-1.05 0.47-9.14 1.2-10.33 0.22-0.36 0.79-0.57 1.51-0.57 1.37 0 2.94 0.71 4 1.8 1.11 1.14 1.68 2.65 1.63 4.38-0.06 2.87-2.14 4.8-5.15 4.8l-3.19-0.08z" fill="#9C643F"/><path d="m18.77 53.52c0.94 0 2.46 0.43 3.64 1.65 1.02 1.04 1.53 2.43 1.49 4.01-0.07 2.98-2.4 4.32-4.67 4.32h-0.15l-2.66-0.07c-0.36-1.79 0.7-8.61 1.26-9.58 0.11-0.16 0.48-0.33 1.09-0.33m0-1c-0.89 0-1.61 0.27-1.94 0.81-0.78 1.27-2.29 11.05-0.88 11.09l3.12 0.08h0.18c3.06 0 5.58-1.97 5.67-5.29 0.1-4.53-3.66-6.69-6.15-6.69z" fill="#875334"/><path d="m26.49 121.02-9.72-85.3c0.47-0.08 0.87-0.16 1.04-0.23 2.96-0.55 4.62-3.08 4.32-6.61 0-0.78-0.21-1.77-0.24-2.02l-0.01-0.05-1.11-4.27 0.67-0.19 0.07-0.02c0.12-0.06 0.21-0.16 0.25-0.29 0.08-0.25-0.06-0.52-0.14-0.65l-1.91-3.09c-0.26-0.43-0.6-0.3-0.66-0.27-0.11 0.05-0.28 0.18-0.29 0.54l-0.02 3.64c0 0.17 0.03 0.49 0.25 0.66 0.12 0.09 0.27 0.12 0.41 0.08l0.6-0.17 1.1 4.23c0.19 1.58-0.07 3.04-0.71 4.12-0.69 1.15-3.76 2.31-3.76 2.31l-2.09-12.97 0.66-0.09 0.07-0.02c0.13-0.04 0.23-0.13 0.29-0.25 0.11-0.24 0.02-0.52-0.05-0.67l-1.46-3.33c-0.2-0.46-0.55-0.38-0.62-0.36-0.11 0.03-0.31 0.14-0.36 0.49l-0.53 3.59c-0.03 0.17-0.04 0.49 0.16 0.68 0.11 0.11 0.25 0.16 0.39 0.13l0.6-0.08 1.06 13.11s-3.26-0.17-4.2-1.12c-0.88-0.89-1.48-2.38-1.67-3.96l0.06-4.45 0.7-0.03 0.06-0.01c0.13-0.02 0.25-0.1 0.32-0.22 0.14-0.22 0.09-0.52 0.05-0.67l-0.97-3.5c-0.13-0.49-0.49-0.46-0.56-0.45-0.12 0.02-0.33 0.1-0.43 0.44l-1.03 3.49c-0.05 0.17-0.11 0.48 0.06 0.7 0.08 0.11 0.22 0.18 0.36 0.18l0.62 0.01-0.06 4.4v0.06c0.03 0.24 0.06 1.26 0.25 2.01 0.55 3.5 2.77 5.56 5.77 5.39 0.21 0.03 0.56 0.02 0.95-0.01l9.72 85.28 1.74-0.19z" fill="#A35B21"/><path d="m24.31 121.77-9.72-85.31c-0.23 0.01-0.42 0-0.57-0.02-3.22 0.17-5.61-2.04-6.2-5.81-0.15-0.58-0.2-1.33-0.23-1.78-0.01-0.11-0.01-0.2-0.02-0.25l-0.01 0.09 0.05-3.69h-0.11c-0.3 0-0.58-0.35-0.76-0.6-0.22-0.3-0.27-0.81-0.14-1.25l1.03-3.54c0.18-0.62 0.64-0.79 0.83-0.82 0.43-0.06 0.94 0.15 1.12 0.79l0.97 3.5c0.07 0.23 0.14 0.69-0.11 1.07-0.15 0.24-0.4 0.4-0.67 0.44l-0.13 0.03-0.23 0.01-0.05 3.97c0.18 1.45 0.76 2.82 1.53 3.6 0.5 0.51 2.11 0.81 3.31 0.93l-0.97-12.01-0.08 0.01c-0.28 0.04-0.59-0.06-0.81-0.28-0.26-0.26-0.37-0.66-0.3-1.11l0.53-3.59c0.1-0.65 0.53-0.84 0.71-0.9 0.4-0.13 0.96 0.02 1.23 0.64l1.46 3.33c0.17 0.39 0.19 0.77 0.04 1.08-0.11 0.25-0.33 0.44-0.6 0.52l-0.3 0.05 1.91 11.84c1.12-0.48 2.57-1.25 2.93-1.87 0.59-0.98 0.82-2.33 0.65-3.8l-0.96-3.67-0.11 0.03c-0.28 0.08-0.6 0.03-0.84-0.16-0.29-0.22-0.45-0.59-0.45-1.05l0.02-3.64c0.01-0.65 0.4-0.91 0.58-0.99 0.38-0.18 0.95-0.11 1.3 0.46l1.91 3.09c0.22 0.36 0.29 0.74 0.19 1.06-0.08 0.26-0.27 0.48-0.51 0.6l-0.34 0.11 1.01 3.92c0.01 0.05 0.02 0.14 0.04 0.26 0.07 0.44 0.2 1.18 0.2 1.82 0.31 3.76-1.5 6.5-4.73 7.1-0.1 0.04-0.33 0.09-0.58 0.14l9.73 85.33-2.75 0.32zm-8.84-86.37 9.72 85.26 0.75-0.08-9.72-85.28 0.47-0.08c0.55-0.09 0.85-0.16 0.94-0.2 2.77-0.52 4.27-2.85 4-6.1 0-0.09 0-0.19-0.01-0.28-0.08 1.04-0.36 1.97-0.81 2.72-0.76 1.26-3.68 2.39-4.01 2.52l-0.57 0.22-1.9-11.79 0.96 11.89-0.57-0.03c-0.35-0.02-3.48-0.21-4.53-1.27-0.56-0.56-1.02-1.34-1.35-2.25 0.57 3.12 2.55 4.93 5.22 4.79 0.18 0.01 0.41 0.03 0.94-0.01l0.47-0.03zm-7.16-11.82h0.69v0.08l0.82-0.06c-0.01-0.02-0.09-0.12-0.13-0.26l-1.02-3.5c0-0.02-0.03-0.03-0.04-0.04 0 0.01-0.02 0.03-0.03 0.04l-1.04 3.49c-0.04 0.15 0.06 0.24 0.07 0.26l0.68-0.01zm10.69-5.06v0.04l0.1 3.63c0 0.16 0.1 0.24 0.12 0.25l2.05-0.58c-0.02 0-0.02-0.09-0.1-0.23l-2.03-3.09s-0.14-0.01-0.14-0.02zm-5.44-2.27c0 0.01-0.01 0.03-0.01 0.05l-0.53 3.59c-0.02 0.16-0.07 0.25-0.05 0.26l1.03-0.16 1.06-0.13c-0.02-0.01 0.02-0.1-0.05-0.24l-1.45-3.33c0-0.01 0.01-0.02 0-0.04z" fill="#7A2B00"/><path d="m18.19 56.02 2.77-0.05s-0.47 2.88-0.53 2.8-2.16-1.25-2.16-1.25l-0.08-1.5z" fill="#9C643F"/><path d="m17.51 62.56v0c0.12 0.76-0.4 1.48-1.16 1.6l-1.95 0.31c-0.76 0.12-1.48-0.4-1.6-1.16v0c-0.12-0.76 0.4-1.48 1.16-1.6l1.95-0.31c0.76-0.13 1.48 0.39 1.6 1.16z" fill="#9C643F" stroke="#875334" stroke-linecap="round" stroke-linejoin="round" stroke-miterlimit="10"/><path d="m16.97 56.7c0.41 1.56 1.77 2.57 3.36 2.65 0.34 0.02 0.74-0.13 0.94-0.42 0.17-0.24 0.09-0.51-0.23-0.53-1.37-0.07-2.4-0.99-2.74-2.3-0.13-0.49-1.48 0.04-1.33 0.6z" fill="#875334"/><path d="m17.3 60.29v0c0.02 0.78-0.59 1.42-1.37 1.44l-2.58 0.07c-0.78 0.02-1.42-0.59-1.44-1.37v0c-0.02-0.78 0.59-1.42 1.37-1.44l2.58-0.07c0.77-0.02 1.41 0.59 1.44 1.37z" fill="#9C643F" stroke="#875334" stroke-linecap="round" stroke-linejoin="round" stroke-miterlimit="10"/><path d="m17.43 57.42v0.11c-0.02 0.76-0.65 1.36-1.41 1.34l-2.87-0.07c-0.76-0.02-1.36-0.65-1.34-1.41v-0.11c0.02-0.76 0.65-1.36 1.41-1.34l2.87 0.07c0.76 0.02 1.36 0.65 1.34 1.41z" fill="#9C643F" stroke="#875334" stroke-linecap="round" stroke-linejoin="round" stroke-miterlimit="10" stroke-width=".9969"/><path d="m17.98 55.08v0c-0.16 0.74-0.88 1.22-1.63 1.07l-3.07-0.64c-0.74-0.16-1.22-0.88-1.07-1.63v0c0.16-0.74 0.88-1.22 1.63-1.07l3.07 0.64c0.75 0.15 1.22 0.88 1.07 1.63z" fill="#9C643F" stroke="#875334" stroke-linecap="round" stroke-linejoin="round" stroke-miterlimit="10"/><path d="m14.14 57.94c-0.48 0.92 0.69 1.7 1.36 1.77 0.66 0.07 1.09-0.51 1.34-1.13 0.9-2.19 1.53-2.04 2.24-2.02 0.98 0.03 2.82 0.02 2.73-1.31-0.09-1.34-2.36-1.85-3.65-1.65-2.78 0.45-3.79 3.9-4.02 4.34z" fill="#9C643F"/><path d="m16.38 58.39c-0.16 0.39-0.44 0.83-0.83 0.82-0.27-0.03-0.78-0.28-0.96-0.62-0.08-0.14-0.08-0.27 0-0.41 0.04-0.07 0.09-0.22 0.17-0.42 0.29-0.78 0.53-2.36 1.68-3.36 1.33-0.84 1.8-0.86 3.66-0.67 0.66 0.07-1.17-1.2-0.38-1.06-0.5-0.15-1.03-0.2-1.55-0.12-2.69 0.43-3.89 3.65-4.35 4.86-0.05 0.15-0.09 0.25-0.12 0.31-0.23 0.44-0.22 0.92 0.01 1.35 0.36 0.67 1.17 1.08 1.74 1.14 0.05 0 0.1 0.01 0.15 0.01 0.47 0 1.21-0.22 1.71-1.44 0.55-1.33 0.93-1.86 1.22-2.08-0.16-0.31-0.27-0.64-0.3-0.98-0.67 0.32-1.21 1.12-1.85 2.67z" fill="#875334"/><path d="m14.14 57.94z" fill="#EDA600"/><ellipse transform="matrix(.0644 -.9979 .9979 .0644 1.485 107.83)" cx="58.25" cy="53.12" rx=".88" ry=".75" fill="#875334"/><ellipse transform="matrix(.0644 -.9979 .9979 .0644 15.09 122.35)" cx="72.79" cy="53.12" rx=".88" ry=".75" fill="#875334"/></svg>
