<svg enable-background="new 0 0 128 128" viewBox="0 0 128 128" xmlns="http://www.w3.org/2000/svg" xmlns:xlink="http://www.w3.org/1999/xlink"><path d="M108.82,124H21.97c-3.31,0-6-2.69-6-6V26.05c0-3.31,2.69-6,6-6h86.85V124z" fill="#424242"/><linearGradient id="d" x1="64" x2="64" y1="4.2679" y2="111.72" gradientUnits="userSpaceOnUse"><stop stop-color="#66BB6A" offset=".0079465"/><stop stop-color="#2E7D32" offset="1"/></linearGradient><path d="M112.03,111.14H21.97c-3.31,0-6-2.69-6-6V10c0-3.31,2.69-6,6-6h90.05V111.14z" fill="url(#d)"/><g opacity=".2"><path d="m109.03 7v101.14h-0.2c-1.66 0-3 1.34-3 3v9.86h-83.43c-1.89 0-3.43-1.54-3.43-3.43v-107.14c0-1.89 1.54-3.43 3.43-3.43h86.63m3-3h-89.63c-3.55 0-6.43 2.88-6.43 6.43v107.14c0 3.55 2.88 6.43 6.43 6.43h86.42v-12.86h3.2v-107.14h0.01z" fill="#424242"/></g><g fill="#388E3C"><path d="m89.06 21.34h-46.19c-1.03 0-1.71 0.7-1.71 1.75v26.3c0 1.05 0.68 1.75 1.71 1.75h46.18c1.03 0 1.71-0.7 1.71-1.75v-26.3c0.01-1.05-0.68-1.75-1.7-1.75zm-1.72 26.3h-42.76v-22.79h42.76v22.79z"/><path d="m58.27 35.37h15.39c1.03 0 1.71-0.7 1.71-1.75s-0.68-1.75-1.71-1.75h-15.39c-1.03 0-1.71 0.7-1.71 1.75 0 1.04 0.68 1.75 1.71 1.75z"/><path d="m53.14 42.38h25.66c1.03 0 1.71-0.7 1.71-1.75s-0.68-1.75-1.71-1.75h-25.66c-1.03 0-1.71 0.7-1.71 1.75s0.68 1.75 1.71 1.75z"/></g><linearGradient id="c" x1="19.096" x2="104.54" y1="115.96" y2="115.96" gradientUnits="userSpaceOnUse"><stop stop-color="#BDBDBD" offset=".0102"/><stop stop-color="#F5F5F5" offset=".9869"/></linearGradient><path d="m104.54 120.79h-80.94c-2.47 0-4.5-2.02-4.5-4.5v-0.64c0-2.47 2.02-4.5 4.5-4.5h80.94v9.64z" fill="url(#c)"/><defs><path id="b" d="M112.03,111.14H21.97c-3.31,0-6-2.69-6-6V10c0-3.31,2.69-6,6-6h90.05V111.14z"/></defs><clipPath id="a"><use xlink:href="#b"/></clipPath><rect x="10.25" y="-.29" width="12.86" height="128.57" clip-path="url(#a)" fill="#424242"/></svg>
