<?xml version="1.0" encoding="utf-8"?>
<!-- Generator: Adobe Illustrator 16.0.0, SVG Export Plug-In . SVG Version: 6.00 Build 0)  -->
<!DOCTYPE svg PUBLIC "-//W3C//DTD SVG 1.1//EN" "http://www.w3.org/Graphics/SVG/1.1/DTD/svg11.dtd">
<svg version="1.1" id="レイヤー_1" xmlns="http://www.w3.org/2000/svg" xmlns:xlink="http://www.w3.org/1999/xlink" x="0px"
	 y="0px" width="128px" height="128px" viewBox="0 0 128 128" enable-background="new 0 0 128 128" xml:space="preserve">
<g>
	<g>
		<g>
			<g>
				<g>
					<g>
						<path fill="#FBB817" d="M28.478,48.097c12.347-23.27,37.972-30.76,60.659-17.203c15.167,9.077,20.72,31.051,14.552,57.061
							c-2.533,10.732,4.233,12.448,3.877,18.122c-0.688,11.125-18.47,20.486-41.618,20.817s-41.432-8.482-42.209-19.603
							c-1.57-22.404-4.476-41.942,3.416-56.806L28.478,48.097"/>
					</g>
				</g>
			</g>
		</g>
		<g>
			<path fill="#724941" d="M104.692,22.105C96.861,8.533,80.014,1.222,63.883,1.103c-15.9-0.227-32.966,7.715-40.808,21.289
				c-4.007,6.952-5.577,16.404-4.464,25.095c0.976,7.624,3.695,12.506,5.136,12.152c1.101-0.273,22.999-16.807,26.094-19.312
				c1.319-1.071,8.28-6.147,9.284-6.603c1.258-0.575,1.918,0.516,1.303,1.72c-0.299,0.591-4.929,5.592-5.682,6.518
				c-0.534,0.643-1.457,1.568-1.076,2.531c0.364,0.921,1.646,1.073,2.444,1.095c2.064,0.062,6.864-1.176,14.12-4.891
				c3.565-1.825,6.827-4.205,10.429-6.325c0.522-0.31,0.967-0.617,1.594-0.566c1.817,0.142,5.666,2.562,9.381,7.009
				c4.443,5.309,9.089,11.857,11.89,16.774c3.177,5.579,4.524-1.192,5.164-4.188C110.839,43.427,109.763,30.883,104.692,22.105z"/>
		</g>
	</g>
	<g>
		<path fill="#2F2F2F" d="M52.111,59.859c0,3.349-2.465,6.062-5.516,6.062c-3.043,0-5.52-2.713-5.52-6.062
			c0-3.355,2.477-6.07,5.52-6.07C49.646,53.789,52.111,56.504,52.111,59.859"/>
		<path fill="#2F2F2F" d="M73.649,59.859c0,3.349,2.464,6.062,5.523,6.062c3.043,0,5.52-2.713,5.52-6.062
			c0-3.355-2.477-6.07-5.52-6.07C76.113,53.789,73.649,56.504,73.649,59.859"/>
		<path fill="#2F2F2F" d="M64.559,84.893c-0.433,0-0.886-0.016-1.348-0.039c-10.748-0.643-14.828-6.475-14.998-6.724
			c-0.595-0.88-0.364-2.074,0.51-2.673c0.866-0.593,2.056-0.366,2.659,0.5c0.149,0.216,3.347,4.539,12.067,5.05
			c8.689,0.501,12.473-5.172,12.521-5.229c0.563-0.89,1.769-1.147,2.655-0.571c0.887,0.579,1.146,1.765,0.563,2.657
			C79.003,78.167,74.535,84.893,64.559,84.893z"/>
	</g>
</g>
</svg>
