<?xml version="1.0" encoding="utf-8"?>
<!-- Generator: Adobe Illustrator 26.3.1, SVG Export Plug-In . SVG Version: 6.00 Build 0)  -->
<svg version="1.1" id="Layer_2_00000048483601402746947890000012411600116109648548_"
	 xmlns="http://www.w3.org/2000/svg" xmlns:xlink="http://www.w3.org/1999/xlink" x="0px" y="0px" viewBox="0 0 128 128"
	 style="enable-background:new 0 0 128 128;" xml:space="preserve">
<path style="fill:#FFCA28;" d="M58.7,41.1c10.8,0.1,53.3,0.4,54.9,0.4c12.8,0.3,12.7,16.7,0.7,16.9c-1.5,0-25,1.1-32.2,1.3
	c5.2,2,7.5,11.9-3.1,14.9c5,2.6,6.4,12.9-4.2,14.7c3.8,2.5,4.3,10.9-6,14.2c-8.4,2.7-28.2,2-40.3-2.3c-9.1-3.3-8.4-5.8-16.7-5.6
	c-1.4,0-2.1-1.1-2.4-2.4c-1.3-5.9-1.9-26.3-0.3-33.8c0.4-1.6,1.7-1.8,2.2-1.9c2.1-0.4,4.2-2.5,5-4.3c3.2-6.4,12.8-12.8,23.4-18.2
	c5.5-2.8,9.2-8.8,10.4-18.3c0.8-6.3,8.6-7.7,11.8-2.5c2.2,3.6,2.9,7,2.9,10.4C65,30.8,63.2,34.7,58.7,41.1z"/>
<g>
	<g>
		<defs>
			<path id="SVGID_1_" d="M58.7,41.1c10.8,0.1,53.3,0.4,54.9,0.4c12.8,0.3,12.7,16.7,0.7,16.9c-1.5,0-25,1.1-32.2,1.3
				c5.2,2,7.5,11.9-3.1,14.9c5,2.6,6.4,12.9-4.2,14.7c3.8,2.5,4.3,10.9-6,14.2c-8.4,2.7-28.2,2-40.3-2.3c-9.1-3.3-8.4-5.8-16.7-5.6
				c-1.4,0-2.1-1.1-2.4-2.4c-1.3-5.9-1.9-26.3-0.3-33.8c0.4-1.6,1.7-1.8,2.2-1.9c2.1-0.4,4.2-2.5,5-4.3c3.2-6.4,12.8-12.8,23.4-18.2
				c5.5-2.8,9.2-8.8,10.4-18.3c0.8-6.3,8.6-7.7,11.8-2.5c2.2,3.6,2.9,7,2.9,10.4C65,30.8,63.2,34.7,58.7,41.1z"/>
		</defs>
		<clipPath id="SVGID_00000152261105642092277400000002765839071150255287_">
			<use xlink:href="#SVGID_1_"  style="overflow:visible;"/>
		</clipPath>
		<g style="clip-path:url(#SVGID_00000152261105642092277400000002765839071150255287_);">
			<path style="fill:#FAA700;" d="M73.3,59.5c0.1,1.6,2.8,2.9,2.8,6.4c0,3.7-3,4.7-3.1,7.5c-0.1,2.7,2,3.8,1.5,7.7
				c-0.6,4.5-4.1,4-4.2,7.1c0,2.7,1.8,3.2,1.8,6.6c0,3.1-3,5.8-5.5,7s-1.2,3.4,0,3.4s11.9-1.3,14.5-8.2c3-8,11-29.6,8.8-36.9
				c-7.1-1-11.5-1.6-13.7-1.8C75.5,58.2,73.3,57.7,73.3,59.5z"/>
			<path style="fill:#FAA700;" d="M60.1,40.7c0,0.9,0.1,1.5,1,1.5c1,0,43.6,2.1,51.6,2.3c9.2,0.2,8.7,7.6,5.9,10.1
				c-1.9,1.7,0.6,4,2.2,2.6s4.4-3.4,4.3-8.4s-4.4-8.6-8.4-8.9C112.9,39.6,60.1,40.7,60.1,40.7z"/>
			<path style="fill:#FAA700;" d="M8.2,61.7c15.9,0,14.1-11.7,25.2-18.9c15.4-10.1,16.3-11.1,19.7-25.2c1.2-4.9,5.7-4.4,7.7-2.1
				s4.9-1.3,3.6-2.7s-7.8-7.7-14.8-1.1s-42,46.2-42,46.2L8.2,61.7z"/>
		</g>
	</g>
</g>
<g>
	<g>
		<defs>
			<path id="SVGID_00000112601218592022420030000001500658003167106970_" d="M58.7,41.1c10.8,0.1,53.3,0.4,54.9,0.4
				c12.8,0.3,12.7,16.7,0.7,16.9c-1.5,0-25,1.1-32.2,1.3c5.2,2,7.5,11.9-3.1,14.9c5,2.6,6.4,12.9-4.2,14.7c3.8,2.5,4.3,10.9-6,14.2
				c-8.4,2.7-28.2,2-40.3-2.3c-9.1-3.3-8.4-5.8-16.7-5.6c-1.4,0-2.1-1.1-2.4-2.4c-1.3-5.9-1.9-26.3-0.3-33.8
				c0.4-1.6,1.7-1.8,2.2-1.9c2.1-0.4,4.2-2.5,5-4.3c3.2-6.4,12.8-12.8,23.4-18.2c5.5-2.8,9.2-8.8,10.4-18.3
				c0.8-6.3,8.6-7.7,11.8-2.5c2.2,3.6,2.9,7,2.9,10.4C65,30.8,63.2,34.7,58.7,41.1z"/>
		</defs>
		<clipPath id="SVGID_00000034770976202378362760000016053485923194235280_">
			<use xlink:href="#SVGID_00000112601218592022420030000001500658003167106970_"  style="overflow:visible;"/>
		</clipPath>
		<g style="clip-path:url(#SVGID_00000034770976202378362760000016053485923194235280_);">
			<path style="fill:#B55E19;" d="M58.7,41.1c-0.6,0-1.5,0-1.9,0s-0.8-0.4-0.2-1.3c0.6-0.9,5.8-8,5.8-15c0-3.2-0.5-7.7-3.4-12.4
				c-0.6-0.9,0.2-1.4,0.9-1c0.7,0.5,6.4,3.2,6.5,13.4S58.7,41.1,58.7,41.1z"/>
			<path style="fill:#B55E19;" d="M123.8,49.9c-0.5,0-1.1-0.2-1.7,1c-0.7,1.5-3.1,4.4-8.4,4.7s-38.1,2.5-38.9,2.5
				c-1.1,0-1.2,1.9,0.1,1.8c1.7-0.1,7.2-0.2,7.2-0.2s30.9,1.8,36.9-0.6C125.1,56.7,123.8,49.9,123.8,49.9z"/>
			<path style="fill:#B55E19;" d="M86.6,68.5c-0.3-0.1-0.7-0.1-1,0.3c-1.5,2-4.6,3.5-10.6,3.3c-1.4,0-1.6,2.7,0.1,2.7
				c0.7,0,4-0.1,4-0.1l6.6-0.2L86.6,68.5z"/>
			<path style="fill:#B55E19;" d="M83,83.5c-0.3-0.1-0.7-0.1-1.1,0.4c-1.5,2-3.5,2.8-9.7,3c-1.5,0.1-1.4,2.6,0.2,2.6
				c1.1,0,2.4-0.1,2.4-0.1l7-0.6L83,83.5z"/>
			<path style="fill:#B55E19;" d="M77.6,96.2c-0.3-0.1-0.8-0.2-1.2,0.4c-0.8,1.1-2.9,3-7.5,4.4c-3.7,1.1-21.3,1.9-32.5-0.7
				c-2.3-0.5-9.9-3-13.6-5.3s-7.3-1.6-8.3-1.4s-6.3,0.7-6.3,0.7l2.5,3.7l27,8.6l38.5-0.6L77.6,96.2z"/>
		</g>
	</g>
</g>
</svg>
