<svg xmlns="http://www.w3.org/2000/svg" width="128" height="128"><g stroke-width="1.212" fill="#2f2f2f"><path d="M76.4 121.554c0 3.004 1.342 5.446 2.996 5.446 1.655 0 2.996-2.442 2.996-5.446V99.508c0-2.995-1.341-5.437-2.996-5.437-1.654 0-2.995 2.442-2.995 5.437zM40.628 121.554c0 3.004-1.445 5.446-3.227 5.446-1.782 0-3.227-2.442-3.227-5.446V99.508c0-2.995 1.445-5.437 3.227-5.437 1.782 0 3.227 2.442 3.227 5.437z"/></g><path d="M50.147 24.865c-11.519 0-18.328 5.125-22.363 12.232V72.62a3.786 3.786 0 0 0 3.795 3.796h53.432a3.786 3.786 0 0 0 3.795-3.796V35.41a30.671 30.671 0 0 1 2.726 5.159c-3.693-8.85-10.723-15.704-24.131-15.704zm-22.372 12.25zm-1.088 2.116zm64.847 1.346zm-65.71.644zm66.44 1.254zm.604 1.83zM25.09 43.224a50.316 50.316 0 0 0-1.682 6.486c.426-2.203.975-4.384 1.682-6.486zm68.334 3.066zm.456 1.921zm.392 1.958zm.33 1.986zm.271 1.987zm-71.485-4.329zm-.404 2.36zm-.308 2.23zm-.232 2.11c-.029.298-.05.59-.076.885.026-.295.047-.588.076-.884zm72.854 2.23zm-73.13 1.42c-.011.198-.028.398-.038.595.01-.196.027-.398.038-.596zm73.325 2.173zm.09 3.205v9.41a7.574 7.574 0 0 1-7.59 7.591H29.52a7.574 7.574 0 0 1-7.59-7.591v13.206c0 15.517 12.584 28.009 28.217 28.009H67.4c15.632 0 28.218-12.492 28.218-28.01v-17.6c0-1.533-.008-3.239-.037-5.015zm-73.561-2.05zm-.077 3.678z" fill="#1a237e" stroke-width="3.78" stroke-linejoin="round"/><g fill="#fff" stroke-width="1.212"><path d="M47.033 91.21a4.94 4.94 0 0 1-4.935 4.929 4.93 4.93 0 0 1 0-9.857 4.93 4.93 0 0 1 4.935 4.928zM69.533 91.21a4.935 4.935 0 0 0 4.935 4.929 4.934 4.934 0 0 0 4.928-4.929 4.93 4.93 0 0 0-4.928-4.928 4.93 4.93 0 0 0-4.935 4.928z"/></g><rect width="21.277" height="12.601" x="47.645" y="98.284" rx="5.7" ry="5.7" fill="#1b1b1b" stroke-width="3.78" stroke-linejoin="round"/><path d="M88.806 35.41V72.62a3.786 3.786 0 0 1-3.795 3.796H31.579a3.786 3.786 0 0 1-3.795-3.796V37.097c-5.758 10.146-5.854 24.334-5.854 33.458v4.395a7.574 7.574 0 0 0 7.59 7.591h58.472a7.574 7.574 0 0 0 7.59-7.591v-9.41c-.15-9.391-1.085-21.557-6.776-30.13z" fill="#81ff64" stroke-width="3.78" stroke-linejoin="round"/><path d="M36.598 42.025c-3.053 0-5.614 2.17-5.692 4.817l-3.122 20.123v5.654a3.786 3.786 0 0 0 3.795 3.796h53.432a3.786 3.786 0 0 0 3.795-3.796v-5.654L85.71 46.842c-.405-2.63-2.646-4.817-5.691-4.817zm-7.29 28.342zm57.973 0zm-56.718.831zm54.988.203z" fill="#19ceff" stroke-width="3.78" stroke-linejoin="round"/><path d="M72.594 36.136H42.84a2.604 2.604 0 0 1-2.602-2.601 2.604 2.604 0 0 1 2.602-2.601h29.754a2.595 2.595 0 0 1 2.595 2.6 2.59 2.59 0 0 1-2.595 2.602z" fill="#fff"/><path d="M127.89 100.05v-65.1c0-1.78-.9-3.42-2.39-4.37L80.11 1.35C77.7-.2 74.49.5 72.93 2.9c-1.55 2.42-.86 5.63 1.56 7.18l43.01 27.69v58.11h-12.22c-2.84 0-5.16 2.32-5.16 5.15V127H128v-25.97c0-.33-.05-.66-.11-.98z" fill="#78a3ad"/></svg>