<?xml version="1.0" encoding="utf-8"?>
<!-- Generator: Adobe Illustrator 26.3.1, SVG Export Plug-In . SVG Version: 6.00 Build 0)  -->
<svg version="1.1" id="Layer_1" xmlns="http://www.w3.org/2000/svg" xmlns:xlink="http://www.w3.org/1999/xlink" x="0px" y="0px"
	 viewBox="0 0 128 128" style="enable-background:new 0 0 128 128;" xml:space="preserve">
<path style="fill:#4568AC;" d="M25.34,116.59c0,0,4.03-1.6,6.04-3.14c1.88-1.44,3.58-3.4,4.75-4.44c0.76-0.69,1.43-1,2.02-1
	c0.6,0,1.13,0.31,1.58,0.86l2.58,3.24c1.08,1.78,0.16,4.11,0.16,4.11s2.7,2.86-1.8,3.84c-4.61,1.01-10.13,1.56-10.13,1.56
	c-0.29,0.05-0.64,0.08-1.02,0.08c-1.9,0-4.6-0.69-5.46-2.66C24.06,119.04,22.77,117.61,25.34,116.59z"/>
<path style="fill:#616161;" d="M42.74,111.53l15.18-1.84c0.01,0-5.13-15.82-6.64-23.31c0,0,12.54,3.72,18.98,3.72
	c0,0,0.78,13.4,1.05,19.78c0.36,8.44-2.25,10.91-6.28,11.81c-0.92,0.21-2.01,0.3-3.21,0.3c-5.32,0-12.92-1.74-19.04-2.46
	C40.43,119.25,41.06,112.62,42.74,111.53z"/>
<path style="fill:#4568AC;" d="M80.91,119.62c0.01-2.07,2.12-4.43,2.12-4.43l7.62,0.01l6.85,2.28c1.66,0.66,2.75,2.25,2.76,4.04
	v1.38c0,0.6-0.49,1.09-1.09,1.09l-17.02-0.05c-0.69,0-1.25-0.56-1.25-1.26L80.91,119.62z"/>
<path style="fill:#7C7C7C;" d="M50.57,77.58c0.03-0.27,0.24-0.47,0.53-0.44l18.07,1.23c0.1,0.01,10.31,1.42,16.59,1.96
	c7.44,0.64,8.14,8.01,7.84,15.13c-0.25,5.96-1.91,19.67-1.93,19.81c-0.02,0.15-0.11,0.29-0.24,0.37c-0.07,0.04-1.82,1.06-4.94,1.06
	c-3.14,0-4.71-1.05-4.76-1.1c-0.11-0.08-0.19-0.21-0.21-0.35l-2.57-20.71c-1.31-0.06-5.43-0.25-8.76-0.12
	c-6.45,0.26-12.94-0.08-16.78-4.26C50.84,87.37,49.88,83.13,50.57,77.58z"/>
<path style="fill:#E0BB95;" d="M59.07,28.98c-1.09-3.72-1.69-8.33-1.19-11.1c0.11-0.62,0.27-1.16,0.49-1.57
	c0.63-1.11,1.47-2.18,2.46-3.14c0.02-0.02,0.04-0.04,0.06-0.05c0.22-0.22,0.45-0.43,0.69-0.63c0.04-0.03,0.08-0.07,0.12-0.1
	c0.22-0.19,0.44-0.37,0.67-0.54c0.05-0.04,0.11-0.08,0.16-0.12c0.22-0.17,0.45-0.33,0.68-0.48c0.06-0.04,0.12-0.08,0.18-0.12
	c0.23-0.15,0.47-0.3,0.71-0.44c0.06-0.04,0.12-0.07,0.18-0.11c0.25-0.14,0.5-0.27,0.75-0.4c0.05-0.03,0.11-0.06,0.16-0.08
	c0.27-0.13,0.55-0.26,0.83-0.38c0.03-0.01,0.07-0.03,0.1-0.04c1.55-0.63,3.17-1,4.74-1c0.04,0,0.08,0.01,0.11,0.01
	c0.35,0,0.69,0.02,1.03,0.06c5.74,0.68,8.99,4.65,10.04,9.81c0.38,1.87,0.41,3.76,0.15,5.1c-0.03,0.16-0.29,1.34-0.3,1.7
	c-0.15,1.41,2.63,2.68,3.02,4.22c0.29,1.15-2.11,2.01-2.29,2.22c-0.91,1.09,0.83,6-5.82,6.8c-2.56,0.31-2.8,0.24-3.6,0.35
	c-1.59,0.23-1.12,6.68-1.12,6.68h-0.01l-11.52-2.31c0,0,1.53-7.45-0.12-10.7C59.94,31.62,59.47,30.36,59.07,28.98z"/>
<path style="fill:#6D4C41;" d="M82.07,34.63c-0.92,0.09-1.85-0.08-2.66-0.62c-0.88-0.6-0.33-1.33,0.67-0.96
	c0.6,0.23,1.44,0.31,2.2,0.13L82.07,34.63z"/>
<path style="fill:#5D4037;" d="M76.57,26.34c-0.01-1.04,0.52-1.89,1.19-1.9c0.67-0.01,1.23,0.82,1.25,1.86
	c0.01,1.04-0.52,1.89-1.19,1.9C77.14,28.22,76.59,27.38,76.57,26.34z"/>
<path style="fill:#AB872F;" d="M78.62,23.51c1.22,0.23,1.42-0.58,0.96-1.17c-0.34-0.44-1.1-0.75-2.46-0.34
	c-1.28,0.39-1.75,1.19-2.05,1.69c-0.3,0.5-0.22,0.95,0.09,0.95C75.58,24.65,77.11,23.23,78.62,23.51z"/>
<radialGradient id="SVGID_1_" cx="-947.5355" cy="632.882" r="1" gradientTransform="matrix(-17.0361 0 0 17.0361 -16076.3291 -10726.0752)" gradientUnits="userSpaceOnUse">
	<stop  offset="0.3666" style="stop-color:#F58B21"/>
	<stop  offset="0.6967" style="stop-color:#F17E22"/>
	<stop  offset="1" style="stop-color:#EC6E24"/>
</radialGradient>
<path style="fill:url(#SVGID_1_);" d="M56.73,48.75c1.86-6.37,5.03-8,7.8-8c2.88,0,5.32,1.78,5.32,1.78
	c4.9,3.37,4.91,8.51,5.36,15.42C75.67,64.86,76,78.94,76,78.94s-5.44,2.25-13.71,2.25h-0.65C53,81.07,49.8,78.08,49.8,78.08
	S54.4,56.71,56.73,48.75z"/>
<linearGradient id="SVGID_00000017477547009330477330000012941143743346428342_" gradientUnits="userSpaceOnUse" x1="74.8608" y1="49.9467" x2="76.9858" y2="64.3217" gradientTransform="matrix(1 0 0 -1 0 130)">
	<stop  offset="0.5" style="stop-color:#E0BB95"/>
	<stop  offset="1" style="stop-color:#CCA47A"/>
</linearGradient>
<path style="fill:url(#SVGID_00000017477547009330477330000012941143743346428342_);" d="M56.57,66.86
	c0.48-3.02,2.76-14.41,2.78-14.52c0.05-0.25,0.28-0.42,0.54-0.4l10.25,0.98c0.14,0.01,0.27,0.09,0.36,0.21
	c0.08,0.12,0.11,0.26,0.08,0.4l-3.56,15.21c1.75,1.05,10.38,6.15,12.85,6.67c1.67,0.35,4.53,0.75,7.83,1.19
	c2.64,0.36,5.28,3.82,6.62,5.85c0.4,0.61,0.36,1.4-0.08,1.96c-0.33,0.43-0.83,0.65-1.33,0.65c-0.33,0-0.66-0.1-0.94-0.3l-3.57-2.12
	c-0.51,0.07-2.01,0.25-4.05,0.16c-2.52-0.11-4.97-1.19-5.05-1.23c-0.91-0.35-5.26-1.12-9.47-1.87c-3.14-0.56-6.38-1.13-8.57-1.59
	C55,76.81,56.14,69.58,56.57,66.86z"/>
<path style="fill:#EC6E24;" d="M58.32,52.87c0.5-2.91,2.88-6.55,6.78-6.55c0.34,0,0.7,0.03,1.07,0.09c4.53,0.74,5.87,5.57,5.32,8.73
	l-1.92,9.63L56.4,62.5L58.32,52.87z"/>
<path style="fill:#AB872F;" d="M54.42,16.58c1.3-3.65,4.17-4.84,5.11-5.14c0.4-1.32,2.46-6.34,10.67-5.3c2,0.25,3.49,1.15,4.8,1.93
	c0.56,0.34,1.1,0.66,1.6,0.87c0.4,0.17,1.11,0.32,1.68,0.1c1.3-0.48,0.81-2.46,0.81-2.46s4.85,0.77,2.95,5.51
	c1.64,0.65,2.46,2.34,2.81,3.94c0.48,2.19-0.52,4.32-2.6,5.35c0,0,0.29-3.55-4.81-3.16c-1.58,0.12-3.23,0.43-4.72-0.1
	c-0.57-0.21-1.11-0.54-1.66-0.79c-0.12,0-0.2,0-0.2,0c-1.9,1.11,0.82,5.58-1.24,8.33c-0.41,0.54-0.77,0.36-0.77,0.36l-0.91-1.24
	c-0.69-0.84-1.31-1.58-2.12-1.37c-2.39,0.62-1.79,4.9,1.1,5.74c0.29,0.08-0.19,4.9-6.11,5.12c-3.06,0.12-4.23-2.39-4.23-2.39
	s1.32,0.28,1.56-0.84c0.13-0.58-0.43-1.34-1.42-2.15c-2.85-2.35-1.96-5.21-1.58-6.1C54.66,22.01,53.4,19.43,54.42,16.58z"/>
<radialGradient id="SVGID_00000161630507435944003660000009080526926799474840_" cx="-978.5288" cy="675.0387" r="1" gradientTransform="matrix(-7.1528 2.9501 4.2482 10.3002 -9804.1807 -4038.1558)" gradientUnits="userSpaceOnUse">
	<stop  offset="0.45" style="stop-color:#BFA055;stop-opacity:0"/>
	<stop  offset="1" style="stop-color:#BFA055"/>
</radialGradient>
<path style="fill:url(#SVGID_00000161630507435944003660000009080526926799474840_);" d="M55.11,22.81
	c-0.05-0.09,0.93,2.15,4.83,1.63c1.61-0.06,3.99,3.73,1.74,6.38c-2,2.34-5.12,1.09-5.12,1.09s0.43,0.11,1.04-0.13
	c0.39-0.16,0.52-0.69,0.52-0.71c0.13-0.58-0.43-1.34-1.42-2.15C53.85,26.56,54.74,23.7,55.11,22.81z"/>
<radialGradient id="SVGID_00000067938975805426388620000014071913357146344859_" cx="-1014.4619" cy="643.9905" r="1" gradientTransform="matrix(-7.8055 -0.7615 -0.9609 9.8493 -7238.1333 -7094.9546)" gradientUnits="userSpaceOnUse">
	<stop  offset="0.45" style="stop-color:#BFA055;stop-opacity:0"/>
	<stop  offset="1" style="stop-color:#BFA055"/>
</radialGradient>
<path style="fill:url(#SVGID_00000067938975805426388620000014071913357146344859_);" d="M54.42,16.58c0.68-1.92,2-3.57,3.79-4.56
	c0.26-0.15,0.89-0.48,1.34-0.58c-0.18,0.85-0.12,1.74,0.27,2.66c0.01,0.03,0.47,1.39,1.7,2.45c-0.82,1.22-1.2,2.69-1.55,4.12
	c-0.31,1.25-0.6,2.63-0.01,3.77c-0.75-0.02-1.93,0.24-3.27-0.3c-1.28-0.52-1.99-1.94-2.35-3.24C53.93,19.48,53.92,17.97,54.42,16.58
	z"/>
<radialGradient id="SVGID_00000045592082202729448160000001957440096035973292_" cx="-953.4936" cy="635.3116" r="1" gradientTransform="matrix(-16.0315 -1.8756 -1.4099 12.0511 -14320.0059 -9427.1934)" gradientUnits="userSpaceOnUse">
	<stop  offset="0.45" style="stop-color:#BFA055;stop-opacity:0"/>
	<stop  offset="1" style="stop-color:#BFA055"/>
</radialGradient>
<path style="fill:url(#SVGID_00000045592082202729448160000001957440096035973292_);" d="M59.81,14.1
	c-1.03-2.39,0.21-4.67,2.17-6.24c2.3-1.83,5.4-2.09,8.22-1.73c2,0.25,3.49,1.15,4.8,1.93c0.56,0.34,1.1,0.66,1.6,0.87
	c0.4,0.17,1.11,0.32,1.68,0.1c1.3-0.48,0.81-2.46,0.81-2.46s4.85,0.77,2.95,5.51c1.64,0.65,2.46,2.34,2.81,3.94
	c0.48,2.19-0.52,4.32-2.6,5.35c0,0,0.29-3.55-4.81-3.16c-1.58,0.12-3.23,0.43-4.72-0.1c-1.32-0.48-1.79-1.16-3.24-1.03
	c-1.57,0.15-3.64,0.82-5.27,0.64C60.9,17.35,59.83,14.14,59.81,14.1z"/>
<radialGradient id="SVGID_00000026126717444898055800000014358567616630092421_" cx="-978.3591" cy="731.8261" r="1" gradientTransform="matrix(-8.3357 2.4548 1.5781 5.3587 -9249.2588 -1490.8225)" gradientUnits="userSpaceOnUse">
	<stop  offset="0.45" style="stop-color:#BFA055;stop-opacity:0"/>
	<stop  offset="1" style="stop-color:#BFA055"/>
</radialGradient>
<path style="fill:url(#SVGID_00000026126717444898055800000014358567616630092421_);" d="M61.68,30.81
	c1.01-1.16,1.22-3.01,2.84-4.06c0.34,1.06,1.16,2.05,2.39,2.41c0.29,0.08-0.19,4.9-6.11,5.12c-3.06,0.12-4.23-2.39-4.23-2.39
	S59.64,33.14,61.68,30.81z"/>
</svg>
