<svg enable-background="new 0 0 128 128" viewBox="0 0 128 128" xmlns="http://www.w3.org/2000/svg"><linearGradient id="c" x1="-8.6543" x2="86.118" y1="24.514" y2="123.46" gradientTransform="matrix(.9992 -.04 .04 .9992 -2.7318 2.5186)" gradientUnits="userSpaceOnUse"><stop stop-color="#238D45" offset=".00082131"/><stop stop-color="#146349" offset=".9783"/></linearGradient><path d="m89.28 101.69s-19.29-1.38-34.74-1.87c-15.45-0.5-24.58-1.48-29.22-11.52-4.65-10.03-6.29-12.15-12.5-17.75-6.22-5.6-15-20.63-3.28-25.98s46.11 24.09 46.11 24.09 35.69 20.55 33.63 33.03z" fill="url(#c)"/><linearGradient id="b" x1="23.097" x2="119.14" y1="-4.2071" y2="96.067" gradientTransform="matrix(.9992 -.04 .04 .9992 -2.7318 2.5186)" gradientUnits="userSpaceOnUse"><stop stop-color="#238D45" offset=".00082131"/><stop stop-color="#146349" offset=".9783"/></linearGradient><path d="m98.65 95.17s-3.22-8.32-9.67-14.76-8.83-8.74-10.88-13.84-2.29-22.65-5.53-26.23-57.85-25.01-57.85-25.01 13.64-12.76 21.47-10.26 11.51 8.77 15.54 10.62 12.03-0.22 18.46 6.73 9.33 15.71 14.09 18.24 12.38 6.36 14.02 18.86 7.8 43.8 7.8 43.8l-7.45-8.15z" fill="url(#b)"/><linearGradient id="a" x1="8.6807" x2="93.383" y1="9.5868" y2="110.87" gradientTransform="matrix(.9992 -.04 .04 .9992 -2.7318 2.5186)" gradientUnits="userSpaceOnUse"><stop stop-color="#4BBC45" offset="0"/><stop stop-color="#3D8749" offset=".9773"/></linearGradient><path d="m105.53 100.45c-12.64-11.66-13.73-20.21-19.15-34.82-4.77-12.86-0.06-22.02-16.46-28.32-19.92-7.65-9.78-14.14-27.03-22.34-10.02-4.76-18.37-13.74-27.89-9.49-10.38 4.62-7.72 13.7-8.06 24.08-0.25 7.46-8.47 17.81 5.6 24.24 14.08 6.43 6.18 22.2 15.11 30.44 11.97 11.05 27.46-0.54 43.47 7.82 21.54 11.25 37.36 11.12 34.41 8.39z" fill="url(#a)"/><path d="m32.54 35.07c12.36 12.68 24.27 25.83 34.66 39.93 2.62 3.5 5.05 7.12 7.43 10.75 2.56 3.87 5.41 7.62 8.67 11.06 3.25 3.45 15.01 18.7 22.44 23.5 10.04 6.49 30.11 4.28 9.61-13.57-3.53-1.85-22.43-14.15-25.53-16.83s-5.95-5.7-8.61-8.93c-2.86-3.52-5.76-6.99-8.8-10.29-12.1-13.29-25.38-25.2-38.99-36.57-1.22-1-1.96-0.19-0.88 0.95z" fill="#E9E8D8"/><path d="m30.45 73.84c3.08 3.69 7.84 5.51 12.45 6.48 4.68 0.99 9.45 1.25 14.02 2.18 9.15 1.81 17.78 6.07 24.48 12.34l2.02-2.29c-7.46-6.33-16.7-10.3-26.22-11.71-4.77-0.73-9.51-0.76-14.12-1.51-4.55-0.73-9.22-2.26-12.39-5.71-0.54-0.6-0.76-0.44-0.24 0.22z" fill="#E9E8D8"/><path d="m12.11 46.93c6.7 6.41 15.66 10.35 24.91 11.71 4.61 0.72 9.23 1.07 13.61 2.11 4.32 1.04 8.56 2.91 11.02 6.24l2.4-1.89c-1.64-2-3.78-3.48-6-4.52-2.24-1.05-4.58-1.7-6.92-2.14-4.69-0.87-9.34-0.98-13.88-1.47-9.04-0.88-17.94-4.25-24.91-10.28-0.63-0.53-0.82-0.33-0.23 0.24z" fill="#E9E8D8"/><path d="m67.98 40.25c3.68 4.27 7.35 8.61 10.15 13.47 2.84 4.85 4.58 10.22 4.77 15.81 0.17 2.79 0.35 5.69 0.93 8.53 0.57 2.83 1.44 5.61 2.58 8.28 2.27 5.35 5.74 10.21 10.12 14.14l1.98-2.33c-4.17-3.45-7.6-7.85-9.94-12.8-1.18-2.47-2.11-5.07-2.76-7.74-0.66-2.67-0.95-5.4-1.23-8.24-0.28-2.82-0.8-5.74-1.79-8.46-0.96-2.73-2.28-5.31-3.81-7.73-3.06-4.85-6.92-9.05-10.77-13.17-0.67-0.7-0.88-0.51-0.23 0.24z" fill="#E9E8D8"/><path d="m28.24 12.13c6.3 7.49 11.53 15.83 15.5 24.7 2.04 4.4 3.37 9.09 5.71 13.61 2.36 4.48 5.66 8.42 9.44 11.76l1.97-2.34c-3.69-2.97-6.94-6.51-9.33-10.58-2.37-4.06-3.97-8.79-6.25-13.18-4.44-8.82-10.12-16.98-16.78-24.19-0.61-0.63-0.81-0.45-0.26 0.22z" fill="#E9E8D8"/><path d="m66.21 45.55c2.09 6.24 5.16 12.23 6.2 18.63l0.71 4.91c0.29 1.67 0.71 3.33 1.27 4.94 1.1 3.24 2.75 6.32 4.9 9.06l2.33-1.98c-2.09-2.31-3.79-5-5.01-7.93-0.62-1.46-1.12-2.97-1.5-4.52l-1.04-4.82c-1.57-6.64-5.06-12.35-7.55-18.4-0.23-0.54-0.49-0.44-0.31 0.11z" fill="#E9E8D8"/><path d="m30.5 69.25c4.46 0.74 8.97 1.21 13.49 1.45 2.26 0.12 4.53 0.18 6.8 0.19 2.27 0.02 4.54-0.11 6.65 0.23 2.1 0.32 3.99 1.32 5.6 2.73 1.63 1.39 3.03 3.12 4.55 4.83 3.06 3.5 6.87 6.41 11.07 8.53l1.31-2.76c-3.97-1.76-7.59-4.24-10.65-7.39-1.56-1.57-3.11-3.31-5-4.78-1.87-1.48-4.22-2.58-6.65-2.82-2.4-0.25-4.68 0.01-6.91 0.1-2.24 0.11-4.49 0.16-6.74 0.15-4.5-0.01-9-0.25-13.47-0.76-0.8-0.1-0.84 0.17-0.05 0.3z" fill="#E9E8D8"/><path d="m75.14 77.69-0.65 1.91 2.64-1.54-1.7-0.54c-0.04 0-0.28 0.14-0.29 0.17z" fill="#E9E8D8"/><path d="m56.18 32.91c3.14 7.62 3.62 15.87 5.94 23.85 1.09 3.99 2.97 7.9 5.23 11.35l6.56 10.4 2.53-1.71-7.12-10.01c-2.4-3.28-4.29-6.72-5.59-10.56-2.68-7.59-3.66-15.96-7.25-23.46-0.32-0.65-0.57-0.53-0.3 0.14z" fill="#E9E8D8"/><path d="m13.71 32.23c5.18 6.24 11.9 11.26 19.41 14.61 1.88 0.83 3.8 1.58 5.77 2.21 1.96 0.64 3.93 1.15 5.81 1.77s3.67 1.35 5.22 2.37 2.82 2.32 3.55 3.86l2.71-1.42c-1.15-2.08-2.94-3.65-4.84-4.75-1.92-1.11-3.97-1.8-5.97-2.33-2.01-0.54-4-0.94-5.92-1.44-1.93-0.5-3.82-1.12-5.69-1.82-7.45-2.83-14.31-7.36-19.81-13.26-0.49-0.52-0.7-0.35-0.24 0.2z" fill="#E9E8D8"/><path d="m25.54 49.43c1.41 0.58 2.82 1.18 4.13 1.97 0.65 0.4 1.27 0.83 1.83 1.34l1.63 1.61c2.14 2.25 5.07 3.63 8.04 4.47l0.19-0.74c-2.92-0.71-5.76-1.91-7.95-4.04l-1.69-1.55c-0.59-0.5-1.25-0.92-1.92-1.3-1.35-0.75-2.79-1.29-4.22-1.82-0.26-0.11-0.29-0.04-0.04 0.06z" fill="#E9E8D8"/><path d="m36.57 65.06c2.7 0.33 5.31 1.19 7.71 2.42 1.2 0.61 2.35 1.34 3.62 1.9 1.29 0.58 2.59 0.84 3.88 1.28l0.25-0.72c-1.3-0.38-2.69-0.61-3.9-1.1-1.24-0.49-2.42-1.17-3.67-1.74-2.49-1.14-5.16-1.9-7.88-2.12-0.25-0.02-0.25 0.05-0.01 0.08z" fill="#E9E8D8"/><path d="m38.53 84.82c3.58-0.11 7-1.37 10.46-2.09 3.46-0.74 7.06-0.79 10.5-0.09l0.14-0.75c-3.57-0.61-7.24-0.44-10.73 0.43-3.48 0.84-6.81 2.19-10.37 2.42-0.31 0.02-0.31 0.09 0 0.08z" fill="#E9E8D8"/><path d="m49.02 31.75c1.41 1.69 2.5 3.61 3.55 5.53l3.14 5.79 6.29 11.59 0.67-0.37-9.87-17.13c-1.1-1.9-2.25-3.8-3.71-5.46-0.27-0.3-0.32-0.25-0.07 0.05z" fill="#E9E8D8"/><path d="m66.01 53.73c1.74 4.41 5.44 7.68 7.55 11.76l0.67-0.37c-2.41-4.13-6.2-7.13-8.14-11.42-0.09-0.19-0.16-0.16-0.08 0.03z" fill="#E9E8D8"/><path d="m74.82 57.12c3.78 4.1 6.8 8.87 8.9 13.99l0.7-0.31c-2.34-5.11-5.58-9.8-9.54-13.75-0.17-0.16-0.22-0.11-0.06 0.07z" fill="#E9E8D8"/><g opacity=".2"><path d="m20.11 7.37c1.88 0 3.89 0.54 6.35 1.69 0.4 0.19 0.84 0.29 1.28 0.29 0.42 0 0.84-0.09 1.23-0.26 1.97-0.89 3.65-1.34 5-1.34 0.49 0 0.93 0.06 1.31 0.18 4.19 1.34 7.11 4 9.68 6.34 1.82 1.66 3.54 3.24 5.52 4.15 1.74 0.8 3.75 1.03 5.88 1.26 3.95 0.44 8.04 0.89 11.64 4.78 2.69 2.9 4.79 6.28 6.65 9.25 2.62 4.2 4.89 7.82 8.22 9.6l0.28 0.15c4.55 2.42 10.77 5.72 12.18 16.45 1.33 10.14 5.53 32.14 7.27 41.13 0.1 0.53 0.34 1.02 0.7 1.42 0.23 0.36 0.54 0.67 0.9 0.9 2.15 1.39 7.21 4.63 9.44 5.86 8.47 7.45 7.56 10.23 7.55 10.26-0.17 0.45-1.42 1.17-4.06 1.17-3.25 0-7.07-1.12-9.76-2.85-5.24-3.38-13.33-12.99-17.68-18.15-0.52-0.62-1.28-1-2.09-1.06-5.77-0.39-20.52-1.35-32.96-1.75-15.58-0.5-22.8-1.58-26.6-9.78-4.65-10.03-6.5-12.66-13.22-18.72-5.07-4.59-10.31-14.17-6.99-18.78 0.66-0.92 0.75-2.13 0.23-3.13-1.44-2.78-0.48-6.28 0.54-9.97 0.62-2.24 1.26-4.55 1.33-6.8 0.07-2.06 0.03-4.03-0.02-5.93-0.19-8.5 0-12.71 6.3-15.52 1.29-0.57 2.56-0.84 3.9-0.84m0-3c-1.68 0-3.37 0.33-5.11 1.11-10.38 4.62-7.72 13.7-8.07 24.08-0.18 5.43-4.58 12.38-1.54 18.25-4.82 6.69 2.2 18.04 7.41 22.74 6.21 5.6 7.86 7.72 12.5 17.75 4.65 10.03 13.77 11.02 29.22 11.52 12.55 0.4 27.63 1.39 32.85 1.74 5.04 5.98 12.87 15.2 18.35 18.74 3.31 2.14 7.71 3.33 11.38 3.33 7.48 0 11.97-4.94-1.78-16.91-1.4-0.74-5.23-3.12-9.53-5.9-0.05-0.12-0.14-0.24-0.28-0.37-1.55-8-5.9-30.74-7.24-40.95-1.64-12.5-9.26-16.32-14.02-18.86-4.76-2.53-7.66-11.29-14.09-18.24s-14.43-4.87-18.46-6.73-7.68-8.1-15.51-10.6c-0.7-0.22-1.44-0.32-2.22-0.32-1.95 0-4.1 0.64-6.23 1.6-2.54-1.2-5.06-1.98-7.63-1.98z" fill="#424242"/></g></svg>
