<svg enable-background="new 0 0 128 128" viewBox="0 0 128 128" xmlns="http://www.w3.org/2000/svg"><radialGradient id="h" cx="33.249" cy="107.47" r="38.353" gradientTransform="matrix(1 0 0 .9913 0 .9352)" gradientUnits="userSpaceOnUse"><stop stop-color="#29B6F6" offset="0"/><stop stop-color="#0277BD" offset="1"/></radialGradient><path d="m58.68 62.42c0 6.72-0.77 11.82-10.54 21.28-3.88 3.76-10.54 6.96-11.9 11.89-0.45 1.65-0.75 3.41 0.72 5.6 1.68 2.52 13.54 8.51 24.79-7.46 1.15-1.63 7.52-11.3 9.25-13.91 4.26-6.43 8.9-12.1 16-15.64 25-12.48 36.92 13.78 24.17 23.05-1.61 1.17-13.65 3.19-6.15-1.04 4.93-2.78 7.47-12.01-3.68-14.8-11.41-2.83-23.6 17.07-25.34 21.24-4.13 9.89-9.85 18.2-21.58 24.17-10.49 5.35-20.28 5.85-32.53-0.08-9.98-4.83-13.16-13.96-11.79-25.88 1.5-13.04 4.25-11.62 1.62-23.18l46.96-5.24z" fill="url(#h)" stroke="#005584" stroke-linecap="round" stroke-linejoin="round" stroke-miterlimit="10"/><linearGradient id="g" x1="44.981" x2="19.981" y1="80.366" y2="107.7" gradientUnits="userSpaceOnUse"><stop stop-color="#005584" stop-opacity="0" offset="0"/><stop stop-color="#005584" offset=".8412"/></linearGradient><path d="m42.91 64.81c-0.14 4.19-2.04 11.98-5.12 14.82-3.48 3.22-7.56 5.71-11.37 8.54s-7.45 6.11-9.57 10.35-2.46 9.63 0.15 13.59c1.16 1.76 3.43 5.72 12.49 7.12 0 0-12.83-5.94-5.13-16.98 2.44-3.5 10.3-6.99 13.54-9.76s3.81-3.5 6.77-6.57c3.37-3.49 8.56-9.16 10.31-13.68 1.23-3.18-0.58-5.49-2.41-8.37-2.07-3.24-6.78-3.95-10.3-2.43l0.64 3.37z" fill="url(#g)"/><linearGradient id="f" x1="88.48" x2="116.42" y1="88.447" y2="88.447" gradientUnits="userSpaceOnUse"><stop stop-color="#FFD54F" offset="0"/><stop stop-color="#FEC846" offset=".0951"/><stop stop-color="#FAA630" offset=".2707"/><stop stop-color="#F78C1F" offset=".3849"/><stop stop-color="#F37F21" offset=".6891"/><stop stop-color="#ED6D23" offset="1"/></linearGradient><path d="m91.05 103.88c-0.61-0.2-1.31-0.42-1.49-0.78-2.36-4.79-0.74-10.09 3.95-12.9 1.65-0.98 4.67-1.87 6.88-2.51 0.53-0.15 1.02-0.3 1.45-0.43 6.59-2.02 10.95-5.1 12.95-9.16 0.94-1.91 1.2-3.71 1.19-5.13 0.25 1.08 0.44 2.62 0.44 4.81 0 6.35-3.71 9.17-7.73 11.26-2.2 1.15-4.47 1.58-6.87 2.03-2.35 0.45-4.79 0.91-7.11 2.11-2.33 1.21-3.8 2.77-4.35 4.66-0.52 1.76-0.24 3.8 0.82 6.09-0.05-0.02-0.09-0.03-0.13-0.05z" fill="url(#f)"/><path d="m115.9 76.69c0.01 0.34 0.02 0.7 0.02 1.09 0 6.09-3.59 8.8-7.46 10.82-2.13 1.11-4.37 1.54-6.73 1.98-2.39 0.45-4.86 0.92-7.25 2.15-2.46 1.27-4.01 2.94-4.6 4.96-0.47 1.6-0.34 3.4 0.4 5.37-0.14-0.06-0.24-0.13-0.27-0.19-2.28-4.62-0.77-9.54 3.75-12.24 1.59-0.95 4.58-1.83 6.77-2.46 0.53-0.15 1.02-0.3 1.46-0.43 6.73-2.06 11.19-5.23 13.25-9.42 0.27-0.55 0.49-1.1 0.66-1.63m-0.87-6.63s4.22 11.34-13.34 16.72c-2.33 0.71-6.35 1.75-8.44 2.99-5.05 3.02-6.58 8.6-4.14 13.55 0.47 0.96 2.43 0.99 3.18 1.66-2.48-4.33-2.73-8.58 2.65-11.36 4.53-2.34 9.47-1.78 13.98-4.14 3.67-1.91 8-4.81 8-11.71 0-6.89-1.89-7.71-1.89-7.71z" fill="#DA6727"/><linearGradient id="e" x1="78.136" x2="63.433" y1="71.092" y2="108.24" gradientUnits="userSpaceOnUse"><stop stop-color="#F78C1F" offset=".3666"/><stop stop-color="#F37F21" offset=".6798"/><stop stop-color="#ED6D23" offset="1"/></linearGradient><path d="m49.3 119.19c3.15-3.02 10.48-10.7 13.3-18.99 6.64-19.59 9.45-22.73 13.71-27.5l0.07-0.08c4.68-5.23 9.93-8.85 15.08-10.43-5.02 3.77-7.37 10.22-10.25 18.09-2.86 7.84-6.11 16.74-12.89 26.01-4.28 5.85-11.59 10.77-19.02 12.9z" fill="url(#e)"/><path d="m89.13 63.59c-3.79 3.93-5.9 9.7-8.39 16.53-2.85 7.81-6.09 16.67-12.83 25.88-3.84 5.25-10.16 9.74-16.78 12.09 3.6-3.67 9.48-10.46 11.94-17.72 6.61-19.49 9.24-22.44 13.61-27.32l0.07-0.08c3.86-4.34 8.13-7.55 12.38-9.38m5.22-2.57zm0 0c-6.9 1.04-13.37 5.7-18.35 11.27-4.4 4.92-7.17 7.96-13.88 27.75-3.54 10.45-14.6 20.12-14.6 20.12 7.45-1.64 16.11-6.62 21.2-13.57 14.86-20.32 13.12-39.56 25.63-45.57z" fill="#DA6727"/><path d="m53.33 118.15c0.65-0.2 1.2-0.62 1.74-1.02 0.53-0.42 1.05-0.86 1.54-1.32 0.98-0.93 1.92-1.9 2.81-2.92 1.77-2.04 3.39-4.2 4.88-6.44 2.95-4.51 5.44-9.3 7.39-14.3 1-2.49 1.87-5.03 2.62-7.6l0.54-1.94c0.19-0.67 0.35-1.35 0.57-2.01 0.41-1.33 0.89-2.64 1.41-3.93 2.06-5.19 4.94-9.97 8.25-14.43 0.86-1.15 1.84-2.23 2.91-3.22 1.09-0.97 2.28-1.85 3.56-2.58 2.58-1.44 5.53-2.26 8.49-2.29 2.97-0.02 5.9 0.75 8.49 2.12 2.57 1.39 4.91 3.38 6.36 6.04 0.74 1.32 1.18 2.83 1.37 4.25 0.21 1.44 0.23 2.9 0.09 4.33-0.32 2.86-1.28 5.63-2.9 7.99-0.81 1.17-1.82 2.22-2.87 3.11-1.05 0.91-2.15 1.73-3.29 2.5-2.28 1.52-4.68 2.92-7.29 3.71 1.26-0.52 2.43-1.21 3.55-1.96 1.13-0.74 2.22-1.55 3.26-2.4 2.05-1.72 4.16-3.49 5.4-5.75 1.29-2.24 1.98-4.81 2.08-7.36 0.11-2.53-0.31-5.18-1.54-7.2-1.26-2.08-3.24-3.75-5.47-4.87s-4.74-1.68-7.21-1.63c-2.48 0.04-4.91 0.74-7.07 1.97-1.07 0.63-2.07 1.38-3.01 2.22-0.91 0.87-1.77 1.8-2.55 2.81-3.21 4.23-6 8.82-8.15 13.66-0.53 1.21-1.03 2.45-1.46 3.7l-0.64 1.88-0.63 1.97c-0.87 2.61-1.85 5.19-2.97 7.71-2.25 5.02-4.99 9.83-8.3 14.21-1.66 2.19-3.44 4.28-5.4 6.2-0.98 0.96-1.99 1.89-3.07 2.72-0.54 0.43-1.1 0.82-1.67 1.19-0.55 0.37-1.15 0.74-1.82 0.88z" fill="#FFD54F"/><linearGradient id="d" x1="37.069" x2="37.069" y1="63.451" y2="51.658" gradientUnits="userSpaceOnUse"><stop stop-color="#4FC3F7" offset=".2632"/><stop stop-color="#039BE5" offset=".9994"/></linearGradient><path d="m10.71 67.29c1.89-8.99 7.08-10.46 11.66-11.76 3.79-1.07 7.37-2.08 7.72-7.33l10.75-0.57c-0.02 5.59 4.55 6.76 9.37 8.01 5.76 1.49 12.26 3.17 13.22 12.58l-52.72-0.93z" fill="url(#d)"/><path d="m40.35 48.16c0.27 5.52 5.08 6.76 9.73 7.97 5.74 1.48 11.68 3.02 12.79 11.58l-51.54-0.91c1.91-8.17 6.62-9.5 11.18-10.79 3.69-1.04 7.49-2.12 8.05-7.34l9.79-0.51m1-1.06-11.74 0.62c-0.36 11.68-16.15 2.12-19.51 20.05l53.88 0.95c-1.44-18.74-23.3-9.14-22.63-21.62z" fill="#005584"/><path d="m44.57 85.34c-2.23-2.42-6.03-6.29-7.06-11.91-1.12-6.18 2.04-11.87 6.45-17.46 1.1-1.41 1.93-2.37 1.93-2.37-1.11-0.74-1.98-1.42-1.98-1.42-22.28 21.89 0 35.81 0 35.81s1.78 1.04 2.96-0.69c0.01-0.01-1.36-1.03-2.3-1.96z" fill="#212121" opacity=".35"/><radialGradient id="c" cx="47.509" cy="70.865" r="14.881" gradientUnits="userSpaceOnUse"><stop stop-color="#F78C1F" offset=".3666"/><stop stop-color="#F37F21" offset=".6798"/><stop stop-color="#ED6D23" offset="1"/></radialGradient><path d="m46.22 89.21c-1.67-1.42-7.89-7.27-8.89-16.01-0.77-6.77 1.71-13.73 7.38-20.68 0.66 0.57 2.07 1.66 4.02 2.44 1.56 0.62 3.48 1.1 5.18 1.52 1.23 0.3 2.39 0.59 2.94 0.83 0.61 1.15 1.98 11.43-0.27 16.2-0.79 1.68-1.97 3.36-3.1 4.98l-0.32 0.46c-1.75 2.5-5.79 8.55-6.94 10.26z" fill="url(#c)"/><path d="m44.78 53.23c0.78 0.63 2.09 1.53 3.77 2.2 1.59 0.64 3.53 1.12 5.25 1.54 1.08 0.27 2.11 0.52 2.67 0.73 0.58 1.71 1.74 11.2-0.34 15.61-0.77 1.64-1.93 3.3-3.06 4.91l-0.33 0.47c-1.61 2.3-5.18 7.62-6.62 9.78-2.06-1.85-7.38-7.35-8.29-15.3-0.75-6.52 1.59-13.22 6.95-19.94m-0.12-1.43c-18.85 22.62 1.68 38.15 1.68 38.15s5.18-7.77 7.23-10.7c1.23-1.76 2.59-3.64 3.47-5.52 2.38-5.06 0.82-16.47 0.12-16.82-1.21-0.6-5.43-1.28-8.24-2.41-2.62-1.05-4.26-2.7-4.26-2.7z" fill="#DA6727"/><path d="m45.81 85.34c-2.23-2.42-6.03-6.29-7.06-11.91-1.12-6.18 2.04-11.87 6.45-17.46 1.1-1.41 1.93-2.37 1.93-2.37-1.11-0.74-2.48-1.8-2.48-1.8-22.28 21.89 1.68 38.15 1.68 38.15s0.61-0.92 1.78-2.65c0.01-0.01-1.36-1.03-2.3-1.96z" fill="#FCB316"/><g fill="#F09300"><path d="m45.64 89.34 0.7 0.6s0.61-0.92 1.78-2.65l-0.79-0.62c-1.28 1.73-1.69 2.67-1.69 2.67z"/><path d="m46.46 54.4c0.46-0.55 0.67-0.8 0.67-0.8-1.11-0.74-2.48-1.8-2.48-1.8-0.41 0.49-0.74 0.93-0.74 0.93 0.49 0.55 2.55 1.67 2.55 1.67z"/></g><path d="m32.13 60.84c-0.43-1.44-1.84-6.26-4.3-8.33 0 0-0.43-0.36-1.81 0.55 0 0 0.76 1.53 1.32 2.72 0.31 0.66 1.1 2.9 1.68 5.05 0.1 0.36 0.18 0.66 0.24 0.87 0.71 2.36 1.25 6.04-0.17 10.17-1.71 5-5.13 10.65-16.12 11.8-2.54 0.21-2.87 3.19-2.87 3.19 16.94 0 20.18-9.27 22.08-14.8 1.73-5.03 0.73-8.63-0.05-11.22z" fill="#212121" opacity=".35"/><radialGradient id="b" cx="19.204" cy="69.085" r="14.813" gradientUnits="userSpaceOnUse"><stop stop-color="#F78C1F" offset=".3666"/><stop stop-color="#F37F21" offset=".6798"/><stop stop-color="#ED6D23" offset="1"/></radialGradient><path d="m7.13 86.21c1.97-2.51 5.64-9.33 6.46-14.65l0.05-0.3c0.65-4.23 1.26-8.22 2.9-12.21 0.03-0.08 0.09-0.26 0.18-0.51 0.17-0.5 0.66-1.97 0.92-2.33 5.57-1.14 8.24-3.33 9.14-4.24 1.81 1.91 2.95 6.16 3.46 8.05 0.09 0.33 0.16 0.6 0.22 0.8 0.81 2.71 1.43 6.94-0.2 11.7-2.02 5.88-6.57 13.7-22.76 13.7-0.12-0.01-0.25-0.01-0.37-0.01z" fill="url(#b)"/><path d="m26.74 52.68c1.54 1.95 2.55 5.73 3.01 7.45 0.09 0.34 0.17 0.62 0.22 0.81 0.79 2.64 1.4 6.76-0.19 11.39-1.24 3.61-4.51 13.14-21.69 13.36 0.68-1.01 1.42-2.23 2.09-3.47 1.45-2.67 3.3-6.67 3.91-10.6l0.05-0.3c0.64-4.2 1.25-8.16 2.86-12.09 0.03-0.08 0.1-0.28 0.19-0.54 0.35-1.03 0.61-1.72 0.77-2.05 4.89-1.03 7.57-2.88 8.78-3.96m0.01-1.43s-2.33 3.08-9.32 4.49c-0.41 0.08-1.21 2.76-1.35 3.12-1.69 4.14-2.3 8.22-2.97 12.62-1.1 7.15-6.67 15.2-7.06 15.21 0.5 0.01 0.98 0.02 1.46 0.02 16.94 0 21.34-8.51 23.23-14.04 1.73-5.04 0.98-9.42 0.2-12-0.44-1.45-1.73-7.35-4.19-9.42z" fill="#DA6727"/><path d="m30.93 60.66c-0.43-1.44-1.72-7.35-4.18-9.41 0 0-0.55 0.73-1.93 1.64 0 0 0.76 1.53 1.32 2.72 0.31 0.66 1.1 2.9 1.68 5.05 0.1 0.36 0.18 0.66 0.24 0.87 0.71 2.36 1.25 6.04-0.17 10.17-1.71 5-5.13 10.65-16.12 11.8-2.54 0.21-3.53 0.12-3.53 0.12-1.43 2.24-2.03 3.06-2.2 3.07 0.5 0.01 0.98 0.02 1.46 0.02 16.94 0 21.34-8.51 23.23-14.04 1.73-5.04 0.98-9.42 0.2-12.01z" fill="#FCB316"/><path d="m57.93 72.85-7.99-3.65s-22.85-0.23-23.32-0.23-12.95 0.86-13.48 3.05c-0.37 1.51-1.16 3.72-1.62 4.94 8.54 2.35 20.27-2.64 24.82-4.17l1.64 0.71c3.82 2.4 10.36 4.27 16.43 4.28l3.52-4.93z" fill="#212121" opacity=".35"/><g fill="#F09300"><path d="m27.54 52.09c-0.28-0.38-0.47-0.57-0.79-0.84 0 0-0.55 0.73-1.93 1.64 0 0 0.19 0.38 0.44 0.9 0.27-0.11 2.02-1.27 2.28-1.7z"/><path d="m9.4 83.63c-0.18 0-0.34 0.01-0.47 0.01-0.48 0-0.69-0.02-0.69-0.02-1.43 2.24-2.03 3.06-2.2 3.07 0.46 0.01 0.91 0.01 1.35 0.01l2.01-3.07z"/></g><linearGradient id="a" x1="38.032" x2="63.782" y1="65.175" y2="75.341" gradientUnits="userSpaceOnUse"><stop stop-color="#4FC3F7" offset=".2632"/><stop stop-color="#039BE5" offset=".9994"/></linearGradient><path d="m65.55 65.39c1.23 1.45 0.42 5.28 0.42 5.28-4.05 7.6-21.06 4.71-27.99 0.34-6.99-4.4-11.74-6.99-11.74-6.99-6.14 1.3-11.25-1.74-11.25-1.74s-6.67 1.28-7.78 1.25c-1.75-0.04-2.18-2.4-0.73-2.9 2.86-0.99 9.7-5.02 12.36-4.87 1.45 0.08 16.13 2.9 20.35 4.1 1.36 0.39 9.53 1.85 9.53 1.85" fill="url(#a)"/><linearGradient id="q" x1="56.004" x2="42.879" y1="61.713" y2="64.775" gradientUnits="userSpaceOnUse"><stop stop-color="#4FC3F7" offset=".2632"/><stop stop-color="#039BE5" offset=".9994"/></linearGradient><path d="m39.38 60s12.92-4.3 15.81-3.66c7.22 1.6 10.66 7.25 10.77 8.28-0.4 1.21-2.99 1.99-5.55 1.36-3.42-0.84-6.79-3.91-11.7-4.27" fill="url(#q)"/><linearGradient id="p" x1="7.3531" x2="29.978" y1="70.32" y2="66.484" gradientUnits="userSpaceOnUse"><stop stop-color="#4FC3F7" offset=".2632"/><stop stop-color="#039BE5" offset=".9994"/></linearGradient><path d="m36.34 70.31c-5.58 1.87-21.94 8.95-29.99 1.34-1.16-1.1 1.11-5.83 2.74-8.32l5.9-1.04 5.11 1.92 6.66 0.11 9.58 5.99z" fill="url(#p)"/><path d="m65.55 65.39c1.29 2.95 0.42 5.28 0.42 5.28-4.05 7.6-21.06 4.71-27.99 0.34-6.99-4.4-11.74-6.99-11.74-6.99-6.14 1.3-11.25-1.74-11.25-1.74s-6.67 1.28-7.78 1.25c-1.75-0.04-2.18-2.4-0.73-2.9 2.86-0.99 9.7-5.02 12.36-4.87 1.45 0.08 16.13 2.9 20.35 4.1 1.36 0.39 9.53 1.85 9.53 1.85" fill="none" stroke="#005584" stroke-linecap="round" stroke-linejoin="round" stroke-miterlimit="10"/><path d="m36.34 70.31c-5.58 1.87-21.94 8.95-29.99 1.34-1.16-1.1 1.11-5.83 2.74-8.32" fill="none" stroke="#005584" stroke-linecap="round" stroke-linejoin="round" stroke-miterlimit="10"/><path d="m39.38 60s12.92-4.3 15.81-3.66c7.22 1.6 10.66 7.25 10.77 8.28-0.4 1.21-2.99 1.99-5.55 1.36-3.42-0.84-6.79-3.91-11.7-4.27" fill="none" stroke="#005584" stroke-linecap="round" stroke-linejoin="round" stroke-miterlimit="10"/><linearGradient id="o" x1="97.596" x2="97.842" y1="22.475" y2="34.723" gradientTransform="matrix(-.9999 -.0148 -.0148 .9999 115.46 4.236)" gradientUnits="userSpaceOnUse"><stop stop-color="#32AACF" offset=".261"/><stop stop-color="#166B9D" offset=".9994"/></linearGradient><path d="m20.16 39.18c-0.87-0.23-2.4-0.76-3.43-1.92-1.89-2.14-2.33-6.32-2.43-7.83 1.1 0.14 3.55 0.61 4.76 2.16l1.1 7.59z" fill="url(#o)"/><path d="m14.84 30.01c1.12 0.2 2.8 0.67 3.74 1.78l0.97 6.68c-0.78-0.28-1.75-0.76-2.45-1.55-1.58-1.79-2.09-5.14-2.26-6.91m-1.07-1.14s0.12 5.92 2.59 8.72c1.64 1.86 4.4 2.23 4.4 2.23l-1.22-8.43c-1.7-2.35-5.77-2.52-5.77-2.52z" fill="#005584"/><linearGradient id="n" x1="9.3777" x2="9.624" y1="22.731" y2="34.983" gradientTransform="matrix(.9998 .0206 -.0206 .9998 44.465 2.9806)" gradientUnits="userSpaceOnUse"><stop stop-color="#32AACF" offset=".261"/><stop stop-color="#166B9D" offset=".9994"/></linearGradient><path d="m51.63 32.15c1.27-1.51 3.74-1.89 4.83-1.99-0.15 1.51-0.75 5.67-2.71 7.74-1.07 1.13-2.62 1.61-3.5 1.8l1.38-7.55z" fill="url(#n)"/><path d="m55.9 30.73c-0.23 1.76-0.86 5.1-2.5 6.83-0.73 0.76-1.71 1.21-2.5 1.46l1.2-6.65c0.97-1.06 2.67-1.48 3.8-1.64m1.12-1.1zm0 0s-4.07 0.03-5.85 2.31l-1.52 8.39s2.77-0.27 4.48-2.07c2.56-2.72 2.89-8.63 2.89-8.63z" fill="#005584"/><linearGradient id="m" x1="24.697" x2="24.779" y1="35.094" y2="7.2587" gradientTransform="matrix(-.9999 -.0148 .0148 -.9999 59.487 60.969)" gradientUnits="userSpaceOnUse"><stop stop-color="#4FC3F7" offset=".2632"/><stop stop-color="#039BE5" offset=".9994"/></linearGradient><path d="m33.71 51.72 1.2 0.08h1.59c8.83-0.59 14.74-8.76 14.93-21.7 0.19-12.87-7.74-19.36-15.91-19.48s-16.29 6.13-16.48 19c-0.2 12.95 6.29 21.42 14.67 22.1z" fill="url(#m)" stroke="#005584" stroke-linecap="round" stroke-linejoin="round" stroke-miterlimit="10" stroke-width="1.0116"/><g fill="#005584"><path d="m30.76 29.8c-0.31 0.28-0.79 0.09-1.23-0.08-0.98-0.37-1.44-0.66-2.53-0.87-0.91-0.17-2.05-0.22-2.94 0.05-0.81 0.24-0.72-0.05-0.17-0.52 1.15-0.98 2.14-1.15 3.63-1.09 2.19 0.1 4.28 1.57 3.24 2.51z"/><path d="m39.7 29.8c0.31 0.28 0.79 0.09 1.23-0.08 0.98-0.37 1.44-0.66 2.53-0.87 0.91-0.17 2.05-0.22 2.94 0.05 0.81 0.24 0.72-0.05 0.17-0.52-1.15-0.98-2.14-1.15-3.63-1.09-2.18 0.1-4.27 1.57-3.24 2.51z"/></g><path d="m37.11 38.19c-0.05-0.02-0.1-0.03-0.15-0.04l-3.42-0.05c-0.05 0.01-0.1 0.02-0.16 0.04-0.31 0.12-0.49 0.44-0.35 0.78s0.81 1.31 2.18 1.33 2.07-0.93 2.22-1.27-0.02-0.66-0.32-0.79z" fill="#005584"/><path d="m39.31 42.13c-1.55 0.89-6.6 0.82-8.12-0.12-0.88-0.54-1.79 0.25-1.44 1.06 0.35 0.79 3.08 2.67 5.46 2.7s5.13-1.76 5.5-2.54c0.37-0.8-0.51-1.61-1.4-1.1z" fill="#3E2723"/><path d="m17.48 35.37c-0.59-0.88-1.26-0.22-0.9 0.67 0.22 0.53 0.34 0.82 0.31 1.76-0.03 1.14-0.66 1.92-1.21 1.91-0.56-0.01-1.17-0.81-1.15-1.95 0.02-0.86 0.38-1.51 0.81-1.78l-0.43-0.98c-0.82 0.44-1.42 1.49-1.44 2.74-0.03 1.65 0.95 3.01 2.2 3.03 1.24 0.02 2.11-1.31 2.3-2.95 0.18-1.59-0.49-2.45-0.49-2.45z" fill="#FCB316"/><path d="m53.07 36c0.62-0.86 1.27-0.18 0.88 0.7-0.24 0.52-0.37 0.81-0.38 1.75-0.01 1.14 0.59 1.94 1.15 1.95s1.19-0.77 1.21-1.91c0.02-0.86-0.33-1.53-0.74-1.81l0.47-0.97c0.81 0.46 1.36 1.54 1.34 2.79-0.03 1.65-1.06 2.98-2.3 2.95-1.24-0.02-2.06-1.39-2.2-3.03-0.13-1.58 0.57-2.42 0.57-2.42z" fill="#FCB316"/><g fill="#1A1A1A"><circle cx="27.29" cy="33.6" r="2.38"/><circle cx="43.17" cy="33.6" r="2.38"/></g><linearGradient id="l" x1="106.09" x2="102.1" y1="111.04" y2="122.78" gradientUnits="userSpaceOnUse"><stop stop-color="#EA6100" offset="0"/><stop stop-color="#ED6D23" offset="1"/></linearGradient><path d="m116.24 113.57c-5.58-0.89-5.1-2.6-5.63-4.19l-5.33-1.56c-1.22 1.05-2.38 3.23-6.97 0.99-1.41-0.69-6.17-4.72-6.17-4.72l-3.59-0.91c0.46 0.42 4.37 5.45 7.7 9.66 4.16 5.27 6.65 6.25 8.48 6.78 2.74 0.8 5.92 0.4 5.92 0.4s5.34 0.58 9-0.76c3.8-1.39 5.53-4.9 5.53-4.9s-6.42-0.55-8.94-0.79zm2.81 4.06c-1.38 0.5-3.06 0.7-4.54 0.76 1.28-0.93 2.13-2.06 2.66-2.98 1.02 0.09 2.51 0.23 4.71 0.42-0.72 0.69-1.66 1.38-2.83 1.8z" fill="url(#l)"/><radialGradient id="k" cx="109.97" cy="112.87" r="8.6992" gradientTransform="matrix(.9726 -.2326 .2175 .9094 -21.89 37.246)" gradientUnits="userSpaceOnUse"><stop stop-color="#FEBC12" offset=".2716"/><stop stop-color="#FEA709" offset=".4999"/><stop stop-color="#FF9000" offset=".809"/></radialGradient><path d="m121.88 115.84c-0.72 0.69-1.66 1.37-2.83 1.8-1.38 0.5-3.06 0.7-4.54 0.76 1.08-0.79 2.13-2.16 2.66-2.98-3 0.16-6.87-0.14-10.79-1.29-7.36-2.16-13.58-8.93-14.64-10.14l-3.19-0.81c0.46 0.42 4.37 5.45 7.7 9.66 2.81 3.55 4.85 5.15 6.45 5.98-3.41-0.11-5.44 1.97-5.44 1.97l13.17 3.86s-0.59-2.87-3.56-4.62c2.03 0.22 3.78 0 3.78 0s5.34 0.58 9-0.76c3.8-1.39 5.53-4.9 5.53-4.9l-3.3 1.47z" fill="url(#k)"/><radialGradient id="j" cx="106.87" cy="100.7" r="3.7747" gradientTransform="matrix(.9596 .2812 -.2812 .9596 35.815 -24.923)" gradientUnits="userSpaceOnUse"><stop stop-color="#FEBC12" offset="0"/><stop stop-color="#FF8F00" offset="1"/></radialGradient><path d="m108.34 104.94-3.27 3.12 5.65 1.66-1.5-4.48 1.16-0.95c0.33-0.27 0.5-0.68 0.46-1.1l-0.21-2.42c-0.04-0.48-0.64-0.68-0.96-0.31l-1.61 1.85c-0.31 0.35-0.4 0.85-0.23 1.29l0.51 1.34z" fill="url(#j)"/><radialGradient id="i" cx="106.82" cy="121.06" r="4.3874" gradientTransform="matrix(.9596 .2812 -.2812 .9596 35.815 -24.923)" gradientUnits="userSpaceOnUse"><stop stop-color="#FEF59F" offset="0"/><stop stop-color="#FAC537" offset=".9044"/><stop stop-color="#F9BF2C" offset="1"/></radialGradient><polygon points="110.04 123.59 98.19 120.11 99.67 119.33 109.18 122.12" fill="url(#i)"/><g opacity=".2"><path d="m109.98 101.13 0.18 2.11c0.02 0.2-0.06 0.39-0.22 0.52l-1.02 0.84-0.47-1.24c-0.08-0.21-0.04-0.44 0.11-0.61l1.42-1.62m-19.57 3.22 1.42 0.36c0.86 0.72 4.82 4.04 6.19 4.71 1.44 0.7 2.66 1.04 3.74 1.04 1.81 0 2.8-0.98 3.52-1.7l0.19-0.19 0.04 0.01 0.28-0.27 2.85-2.72 1.38 4.12 0.04 0.17c0.03 0.11 0.06 0.23 0.09 0.34 0.43 1.8 1.15 3.24 6.04 4.02 1.87 0.18 5.91 0.53 7.86 0.71-0.74 1.07-2.25 2.82-4.62 3.69-1.91 0.7-4.33 0.84-6.03 0.84-1.54 0-2.66-0.12-2.67-0.12l-0.08-0.01-0.08 0.01c-0.01 0-0.77 0.09-1.84 0.09-0.62 0-1.22-0.03-1.79-0.09l-2.2-0.23-1.73-0.9c-1.88-0.98-3.91-2.88-6.23-5.8-0.89-1.12-1.82-2.3-2.71-3.44-1.58-2.02-2.81-3.57-3.66-4.64m21.89 14.8 2.23-0.09c1.91-0.08 3.51-0.34 4.75-0.8 1.1-0.4 2.13-1.06 3.06-1.94l1.08-1.03-1.49-0.13c-2.2-0.19-3.69-0.33-4.71-0.42l-0.43-0.04-0.22 0.38c-0.44 0.76-1.23 1.86-2.47 2.77l-1.8 1.3m-9.87 0.35h0.24l2.07 0.07 1.79 1.05c1.52 0.89 2.36 2.11 2.8 3.01l-10.59-3.1c0.8-0.49 2.06-1.03 3.69-1.03m7.65-19.24c-0.15 0-0.3 0.06-0.41 0.19l-1.61 1.85c-0.31 0.35-0.4 0.85-0.23 1.29l0.51 1.34-3.03 2.89-0.03-0.01c-0.83 0.72-1.64 1.96-3.54 1.96-0.88 0-1.99-0.27-3.44-0.97-1.41-0.69-6.17-4.72-6.17-4.72l-3.59-0.91c0.46 0.42 4.37 5.45 7.7 9.66 2.81 3.55 4.85 5.15 6.45 5.98h-0.26c-3.25 0-5.17 1.97-5.17 1.97l13.17 3.86s-0.59-2.87-3.56-4.62c0.67 0.07 1.31 0.09 1.86 0.09 1.13 0 1.92-0.1 1.92-0.1s1.15 0.12 2.74 0.12c1.85 0 4.29-0.17 6.26-0.88 3.8-1.39 5.53-4.9 5.53-4.9s-6.43-0.56-8.94-0.8c-5.2-0.83-5.13-2.37-5.53-3.87h0.01l-1.5-4.48 1.16-0.95c0.33-0.27 0.5-0.68 0.46-1.1l-0.21-2.42c-0.02-0.27-0.28-0.47-0.55-0.47zm4.43 18.13c1.28-0.93 2.13-2.06 2.66-2.98 1.02 0.09 2.51 0.23 4.71 0.42-0.72 0.69-1.66 1.37-2.83 1.8-1.37 0.5-3.06 0.7-4.54 0.76z" fill="#212121"/></g><path d="m19.03 47.1" fill="#FCB316"/><path d="m46.04 22.63c-3.84 0-7.52-1.38-10.94-4.11-3.87-3.09-6.95-3.74-8.84-3.74-1.03 0-1.86 0.18-2.49 0.4 0.38-3.46 2.4-6.75 5.31-8.54 2.31-1.43 4.89-2.15 7.68-2.15 2.19 0 4.02 0.47 4.92 0.87 3.22 1.44 5.28 2 7.34 2 1.34 0 2.72-0.25 4.37-0.79-0.36 1.47-1.36 2.8-2.7 3.5l-1.08 0.57 1.18 0.36c0.61 0.18 1.27 0.27 1.95 0.27 4.05 0 8.14-3.21 9.79-4.68 0.18 3.19-0.29 13.06-12.46 15.57-0.79 0.17-2.26 0.47-4.03 0.47z" fill="#1A1A1A"/><path d="m36.75 5c2.11 0 3.86 0.45 4.72 0.83 2.75 1.22 5.08 2.04 7.55 2.04 1.13 0 2.28-0.17 3.58-0.53-0.44 0.97-1.2 1.8-2.14 2.3l-2.17 1.15 2.35 0.69c0.66 0.19 1.36 0.29 2.09 0.29 3.65 0 7.3-2.48 9.32-4.12-0.04 3.78-1.42 11.83-12.08 14.02-1.06 0.22-2.33 0.45-3.93 0.45-3.72 0-7.3-1.35-10.63-4-3.99-3.18-7.18-3.84-9.15-3.84-0.72 0-1.35 0.08-1.88 0.21 0.55-3.03 2.4-5.84 4.97-7.42 2.22-1.37 4.71-2.07 7.4-2.07m0-1c-2.36 0-5.19 0.52-7.94 2.22-3.32 2.05-5.47 5.86-5.6 9.76 0.71-0.38 1.73-0.69 3.05-0.69 2.14 0 5.03 0.84 8.53 3.63 4.28 3.41 8.26 4.22 11.25 4.22 1.76 0 3.18-0.28 4.13-0.47 14.91-3.09 12.76-17.13 12.76-17.13s-5.21 5.23-10.2 5.23c-0.61 0-1.21-0.08-1.8-0.25 1.73-0.91 2.93-2.75 3.09-4.69-1.89 0.69-3.45 1.04-5 1.04-2.12 0-4.22-0.65-7.14-1.95-0.89-0.4-2.77-0.92-5.13-0.92z" fill="#424242"/></svg>
