<svg enable-background="new 0 0 128 128" viewBox="0 0 128 128" xmlns="http://www.w3.org/2000/svg" xmlns:xlink="http://www.w3.org/1999/xlink"><defs><rect id="m" x="4" y="4" width="120" height="120"/></defs><clipPath id="a"><use xlink:href="#m"/></clipPath><g clip-path="url(#a)"><linearGradient id="l" x1="64" x2="64" y1="97.281" y2="136.1" gradientUnits="userSpaceOnUse"><stop stop-color="#448AFF" offset=".0032478"/><stop stop-color="#3B7DFF" offset=".4042"/><stop stop-color="#2962FF" offset="1"/></linearGradient><path d="M13.5,136.1v-15.26c0-16.23,25.36-23.53,50.5-23.56h0.13c25.03,0,50.36,8.09,50.36,23.56 v15.26H13.5z" fill="url(#l)"/><path d="m64.13 98.78c12.9 0 25.42 2.19 34.36 6 6.62 2.83 14.51 7.91 14.51 16.05v13.76h-98v-13.76c0-15.2 24.61-22.03 49-22.06l0.13 0.01m0-3h-0.13c-25.49 0.03-52 7.28-52 25.06v16.76h104v-16.76c0-16.76-26.26-25.06-51.87-25.06z" fill="#4073D4"/></g><g clip-path="url(#a)"><path d="m63.17 109.56c-4 0-7.26-3.22-7.26-7.17v-8.98h16.16v8.98c0 3.95-3.25 7.17-7.26 7.17h-1.64z" fill="#EDC391"/><path d="m71.08 94.41v7.98c0 3.4-2.81 6.17-6.26 6.17h-1.65c-3.45 0-6.26-2.77-6.26-6.17v-7.98h14.17m2-2h-18.16v9.98c0 4.51 3.7 8.17 8.26 8.17h1.65c4.56 0 8.26-3.66 8.26-8.17v-9.98h-0.01z" fill="#D9AC77"/></g><g clip-path="url(#a)"><defs><path id="f" d="m12 120.84v16.76h104v-16.76c0-16.79-26.35-25.09-52-25.06-25.49 0.03-52 7.28-52 25.06z"/></defs><clipPath id="e"><use xlink:href="#f"/></clipPath><g clip-path="url(#e)"><linearGradient id="k" x1="45.928" x2="45.928" y1="95.94" y2="136.89" gradientUnits="userSpaceOnUse"><stop stop-color="#FF9100" offset=".0032478"/><stop stop-color="#FF8400" offset=".4399"/><stop stop-color="#FF6D00" offset="1"/></linearGradient><path d="m29.55 100.57v37.03h32.76l-12.13-43.49c-7.72 1.24-14.88 3.35-20.63 6.46z" fill="url(#k)"/><linearGradient id="j" x1="44.757" x2="44.757" y1="96.019" y2="137.59" gradientUnits="userSpaceOnUse"><stop stop-color="#ff0" offset=".0032478"/><stop stop-color="#FFF200" offset=".6783"/><stop stop-color="#FFEA00" offset="1"/></linearGradient><path d="m35.13 98.03 1.77 39.57h17.48l-10.58-42.22c-3.05 0.72-5.96 1.61-8.67 2.65z" fill="url(#j)"/><linearGradient id="i" x1="44.169" x2="44.169" y1="95.94" y2="136.89" gradientTransform="matrix(-1 0 0 1 126.24 0)" gradientUnits="userSpaceOnUse"><stop stop-color="#FF9100" offset=".0032478"/><stop stop-color="#FF8400" offset=".4399"/><stop stop-color="#FF6D00" offset="1"/></linearGradient><path d="m98.45 100.57v37.03h-32.76l12.12-43.48c7.73 1.23 14.89 3.34 20.64 6.45z" fill="url(#i)"/><linearGradient id="h" x1="42.998" x2="42.998" y1="96.019" y2="137.59" gradientTransform="matrix(-1 0 0 1 126.24 0)" gradientUnits="userSpaceOnUse"><stop stop-color="#ff0" offset=".0032478"/><stop stop-color="#FFF200" offset=".6783"/><stop stop-color="#FFEA00" offset="1"/></linearGradient><path d="m92.87 98.03-1.77 39.57h-17.48l10.58-42.22c3.05 0.72 5.96 1.61 8.67 2.65z" fill="url(#h)"/></g></g><g clip-path="url(#a)"><path d="m18 52.5c0 9.34 20.59 16.92 46 16.92s46-7.57 46-16.92-92-9.35-92 0z" fill="#FFEA00"/><path d="m105.38 52.49c-8.12-5.32-19.54-9.71-41.38-9.72-21.85 0.01-33.27 4.4-41.38 9.72-0.62 0.41-0.78 1.21-0.32 1.8 4.45 5.83 23.46 11.57 41.7 11.59 18.24-0.02 38-6.62 41.71-11.58 0.44-0.6 0.3-1.4-0.33-1.81z" fill="#EDBF00"/><rect x="25" y="20.08" width="78" height="84" fill="none"/><defs><rect id="g" x="16.25" y="39" width="95.5" height="63"/></defs><clipPath id="v"><use xlink:href="#g"/></clipPath><g clip-path="url(#v)"><radialGradient id="u" cx="68.784" cy="67.648" r="23.359" gradientUnits="userSpaceOnUse"><stop stop-color="#454140" offset="0"/><stop stop-color="#312D2D" offset="1"/></radialGradient><path d="m93.38 87.11c0.53-0.58 1.11-1.11 1.91-1.13 1.32-0.03 3.36-0.25 4.97-1.22 0.47-0.28 0.87-0.67 1.17-1.14-1.13-0.23-2.68-0.89-3.73-2.93-1.6-3.1 0.25-5.95 3.32-9.12 3.46-3.57 9.21-15.82 3.1-26.74-1.15-0.17-17.81 0.08-22.03 0.08h-17.99l0.18 50.27c19.76 0.01 23.49-1.85 29.1-8.07z" fill="url(#u)"/><radialGradient id="t" cx="50.819" cy="67.032" r="23.25" gradientUnits="userSpaceOnUse"><stop stop-color="#454140" offset="0"/><stop stop-color="#312D2D" offset="1"/></radialGradient><path d="m34.82 87.11c-0.53-0.58-1.11-1.11-1.91-1.13-1.32-0.03-3.36-0.25-4.97-1.22-0.47-0.28-0.87-0.67-1.17-1.14 1.13-0.23 2.75-0.86 3.73-2.93 1.6-3.35-0.67-6.33-3.32-9.12-4.33-4.57-9.21-15.82-3.1-26.74 1.15-0.17 17.81 0.08 22.03 0.08h17.99v49.71c-19.76 0-23.67-1.29-29.28-7.51z" fill="url(#t)"/><defs><rect id="s" x="4" y="4" width="120" height="120"/></defs><clipPath><use xlink:href="#s"/></clipPath><path d="m102.88 46.67 0.26 0.5c5.42 10.4-0.55 20.63-3.19 23.36-2.96 3.05-5.7 6.73-3.58 10.85 0.55 1.07 1.27 1.93 2.13 2.56-1.18 0.42-2.47 0.52-3.24 0.54-1.56 0.04-2.56 1.15-2.99 1.63-3.4 3.77-5.97 5.63-13.09 6.45 0 0-3.53 1.84-6.08 2.48v0.91c12.46-0.45 16.3-2.18 21.4-7.83 0.39-0.44 0.65-0.63 0.83-0.64 1.58-0.04 3.84-0.32 5.7-1.43 0.67-0.4 1.24-0.96 1.67-1.63l1.17-1.85-2.14-0.43c-1.19-0.24-2.07-0.94-2.69-2.14-1.04-2.01-0.2-4.01 3.07-7.39 4.05-4.18 9.28-14.94 3.97-25.89 0 0 0-0.02 0.01-0.05h-3.21z" fill="#402720"/><path d="m26.09 72.6c2.71 2.86 4.17 5.1 3.06 7.44-0.56 1.17-1.43 1.86-2.67 2.1l-2.14 0.43 1.17 1.85c0.42 0.67 1 1.23 1.67 1.63 1.86 1.11 4.13 1.39 5.7 1.43 0.18 0 0.44 0.2 0.83 0.64 5.07 5.62 8.96 7.32 21.3 7.78v-0.95c-2.15-0.6-5.98-2.38-5.98-2.38-7.12-0.82-9.69-2.68-13.09-6.45-0.43-0.48-1.43-1.59-2.99-1.63-0.76-0.02-2.04-0.12-3.21-0.53 0.89-0.65 1.61-1.53 2.13-2.61 2.22-4.67-1.56-8.66-3.59-10.8-3.34-3.52-6.93-11.15-5.05-19.36 0.28-1.25-2.86-1.15-3.14 0.42-1.6 8.93 2.34 17.12 6 20.99z" fill="#1F1A1A"/><path d="m36.67 72.26c-5.36 0-9.71-4.67-9.71-10.41s4.36-10.41 9.71-10.41h54.65c5.36 0 9.71 4.67 9.71 10.41s-4.36 10.41-9.71 10.41h-54.65z" fill="#EDC391"/><path d="m91.33 52.43c4.8 0 8.71 4.22 8.71 9.41s-3.91 9.41-8.71 9.41h-54.66c-4.8 0-8.71-4.22-8.71-9.41s3.91-9.41 8.71-9.41h54.66m0-2h-54.66c-5.89 0-10.71 5.14-10.71 11.41 0 6.28 4.82 11.41 10.71 11.41h54.65c5.89 0 10.71-5.14 10.71-11.41 0.01-6.27-4.81-11.41-10.7-11.41z" fill="#D9AC77"/><linearGradient id="r" x1="64" x2="64" y1="94.591" y2="12.825" gradientUnits="userSpaceOnUse"><stop stop-color="#FFD29C" offset="0"/><stop stop-color="#FFD39E" offset=".0237"/><stop stop-color="#FCD8AF" offset=".3158"/><stop stop-color="#FADCBA" offset=".6295"/><stop stop-color="#F9DDBD" offset="1"/></linearGradient><path d="m64 95.27c-15.66 0-32.52-12.14-32.52-38.81 0-12.38 3.56-23.79 10.02-32.13 6.05-7.8 14.25-12.27 22.5-12.27s16.45 4.47 22.5 12.27c6.46 8.34 10.02 19.75 10.02 32.13 0 12.09-3.51 22.19-10.14 29.21-5.86 6.19-13.81 9.6-22.38 9.6z" fill="url(#r)"/><path d="m64 13.07c7.94 0 15.85 4.33 21.71 11.88 6.33 8.16 9.81 19.35 9.81 31.52 0 11.83-3.41 21.7-9.87 28.52-5.67 5.99-13.36 9.29-21.65 9.29s-15.98-3.3-21.65-9.29c-6.46-6.82-9.87-16.69-9.87-28.52 0-12.16 3.49-23.35 9.81-31.52 5.86-7.55 13.77-11.88 21.71-11.88m0-2c-17.4 0-33.52 18.61-33.52 45.39 0 26.64 16.61 39.81 33.52 39.81s33.52-13.17 33.52-39.81c0-26.78-16.12-45.39-33.52-45.39z" fill="#EDBD82"/><ellipse cx="48.16" cy="58.81" rx="4.93" ry="5.1" fill="#312D2D"/><ellipse cx="79.35" cy="58.81" rx="4.93" ry="5.1" fill="#312D2D"/><radialGradient id="q" cx="48.16" cy="49.333" r="5.5998" gradientUnits="userSpaceOnUse"><stop stop-color="#454140" offset=".0905"/><stop stop-color="#454140" offset="1"/></radialGradient><path d="m55.39 49.82c-0.93-1.23-3.07-3.01-7.23-3.01s-6.31 1.79-7.23 3.01c-0.41 0.54-0.31 1.17-0.02 1.55 0.26 0.35 1.04 0.68 1.9 0.39s2.54-1.16 5.35-1.18c2.81 0.02 4.49 0.89 5.35 1.18s1.64-0.03 1.9-0.39c0.29-0.38 0.39-1.01-0.02-1.55z" fill="url(#q)"/><radialGradient id="p" cx="79.352" cy="49.333" r="5.5998" gradientUnits="userSpaceOnUse"><stop stop-color="#454140" offset=".0905"/><stop stop-color="#454140" offset="1"/></radialGradient><path d="m86.58 49.82c-0.93-1.23-3.07-3.01-7.23-3.01s-6.31 1.79-7.23 3.01c-0.41 0.54-0.31 1.17-0.02 1.55 0.26 0.35 1.04 0.68 1.9 0.39s2.54-1.16 5.35-1.18c2.81 0.02 4.49 0.89 5.35 1.18s1.64-0.03 1.9-0.39c0.29-0.38 0.39-1.01-0.02-1.55z" fill="url(#p)"/><path d="m67.86 68.06c-0.11-0.04-0.21-0.07-0.32-0.08h-7.07c-0.11 0.01-0.22 0.04-0.32 0.08-0.64 0.26-0.99 0.92-0.69 1.63s1.71 2.69 4.55 2.69 4.25-1.99 4.55-2.69c0.29-0.71-0.06-1.37-0.7-1.63z" fill="#DBA689"/><path d="m72.42 76.14c-3.19 1.89-13.63 1.89-16.81 0-1.83-1.09-3.7 0.58-2.94 2.24 0.75 1.63 6.45 5.42 11.37 5.42s10.55-3.79 11.3-5.42c0.75-1.66-1.09-3.33-2.92-2.24z" fill="#312D2D"/><radialGradient id="o" cx="64.801" cy="33.52" r="35.908" gradientTransform="matrix(1 0 0 .8642 0 4.5518)" gradientUnits="userSpaceOnUse"><stop stop-color="#454140" offset="0"/><stop stop-color="#312D2D" offset="1"/></radialGradient><path d="m52.25 10.65c-12.27 4.35-13.49-3.35-13.49-3.35-6.66 3.32-2.28 10.45-2.28 10.45s-6.75-0.5-9.64 5.34c-3.02 6.11-0.36 10.78-0.36 10.78s-4.95 3.45-2.4 10.96c1.69 4.98 5.21 7.65 5.21 7.65-0.62 10.74 2.77 15.95 2.77 15.95s4.21-18.45 3.81-21.27c0 0 7.76-1.54 16.57-6.58 5.95-3.41 10.02-7.41 16.71-8.91 10.18-2.29 12.45 5.08 12.45 5.08s9.42-1.81 12.26 11.27c1.17 5.38 1.67 14.37 2.31 19.84-0.06-0.48 3.5-6.4 4.12-12.4 0.23-2.23 3.98-7.6 4.63-11.72 1.17-7.5-0.69-15.74-2.06-17.81-2.5-3.79-8.49-9-12.97-8.24 0.23-4.8-3.55-9.25-8.1-10.78-12.46-4.18-25.88 2.44-29.54 3.74z" fill="url(#o)"/></g><radialGradient id="d" cx="64" cy="31.676" r="34.638" gradientTransform="matrix(1 0 0 .9806 0 .0776)" gradientUnits="userSpaceOnUse"><stop stop-color="#ff0" offset="0"/><stop stop-color="#FFF600" offset=".325"/><stop stop-color="#FFDE00" offset=".8535"/><stop stop-color="#FFD600" offset=".9978"/></radialGradient><path d="m64.41 7.92c-46.76 0-43.24 46.43-43.24 46.43s12.21-10.8 43.5-10.8 42.09 9.8 42.09 9.8 4.41-45.43-42.35-45.43z" fill="url(#d)"/><linearGradient id="n" x1="64.321" x2="64.321" y1="4.7354" y2="41.773" gradientUnits="userSpaceOnUse"><stop stop-color="#ff0" offset="0"/><stop stop-color="#FFF900" offset=".4462"/><stop stop-color="#FFEA00" offset="1"/></linearGradient><path d="m74.72 42.15h-20.8v-33.1c0-2.79 2.26-5.05 5.05-5.05h10.7c2.79 0 5.05 2.26 5.05 5.05v33.1z" fill="url(#n)"/><defs><path id="c" d="m64.41 7.92c-46.76 0-43.24 46.43-43.24 46.43s12.21-10.8 43.5-10.8 42.09 9.8 42.09 9.8 4.41-45.43-42.35-45.43z"/></defs><clipPath id="b"><use xlink:href="#c"/></clipPath><path d="m47.12 10.23 6.95-2.3v23.29c-1.41-10.07-3.43-17.35-6.95-20.99z" clip-path="url(#b)" fill="#EDBF00" opacity=".5"/><path d="m81.71 10.23-6.95-2.3v23.29c1.41-10.07 3.43-17.35 6.95-20.99z" clip-path="url(#b)" fill="#EDBF00" opacity=".5"/><path d="m69.62 7c1.11 0 2.03 0.84 2.08 1.91 0.07 1.4 1.1 2.57 2.49 2.8 13.61 2.34 22.72 9.9 27.07 22.45 1.8 5.19 2.4 10.24 2.56 13.81-6.1-3.12-18.28-7.41-39.14-7.41-21.22 0-34.04 4.85-40.44 8.27 0.24-3.65 0.94-8.76 2.82-14.03 4.58-12.85 13.81-20.6 27.42-23.04 1.39-0.25 2.41-1.43 2.47-2.83 0.03-1.08 0.95-1.93 2.07-1.93h10.6m0-3h-10.6c-2.75 0-4.97 2.14-5.08 4.81-35.73 6.4-32.76 45.55-32.76 45.55s12.21-10.8 43.5-10.8 42.09 9.8 42.09 9.8 3.72-38.44-32.08-44.6c-0.13-2.65-2.34-4.76-5.07-4.76z" fill="#EDBF00"/><path d="m109.53 50.99c-0.25-0.42-0.63-0.74-1.07-0.99-18.1-10.41-44.46-10.07-44.46-10.07s-26.36-0.34-44.46 10.07c-0.44 0.25-0.82 0.57-1.07 0.99-0.53 0.9-0.97 2.61 0.75 5.08 0 0 10.95-10.85 44.78-11.54 33.82 0.68 44.78 11.54 44.78 11.54 1.72-2.47 1.28-4.18 0.75-5.08z" fill="#FFEA00"/></g></svg>
