<svg enable-background="new 0 0 128 128" viewBox="0 0 128 128" xmlns="http://www.w3.org/2000/svg" xmlns:xlink="http://www.w3.org/1999/xlink"><linearGradient id="f" x1="57.07" x2="74.073" y1="108.5" y2="108.5" gradientUnits="userSpaceOnUse"><stop stop-color="#70534A" offset="0"/><stop stop-color="#5C4037" offset="1"/></linearGradient><path d="M58.96,124c-1.04,0-1.89-0.81-1.89-1.27c0-0.62,1.09-1.14,2-1.36l8.97-1.01 c0.26-0.03,0.46-0.03,0.45-0.29L67.68,93h6.39l-0.87,28.48c0,1.4-1.07,2.52-2.33,2.52H58.96z" fill="url(#f)"/><path d="m73.92 93-0.92 28v0.07c0 1.05-1.13 1.93-2.13 1.93h-11.91c-0.8 0-1.34-0.38-1.39-0.52 0-0.08 0.27-0.42 1.56-0.73l8.97-0.96c0.52-0.06 0.91-0.5 0.89-1.02l-0.8-26.77h5.81m0.59-1zh-7.43l0.83 27.79-9.03 0.96c-1.44 0.34-2.39 0.86-2.39 1.72s1.16 1.52 2.39 1.52h11.92c1.56 0 3.13-1.35 3.13-2.93v-0.06l0.73-29h-0.15z" fill="#4A2F27"/><linearGradient id="e" x1="88.316" x2="121.54" y1="78.73" y2="90.662" gradientUnits="userSpaceOnUse"><stop stop-color="#FFB300" offset="0"/><stop stop-color="#FFCA28" offset=".754"/></linearGradient><path d="m85.83 73.88c2.01 0.43 3.29 2.42 2.87 4.45s-2.39 3.33-4.4 2.9-3.29-2.42-2.87-4.45c0.42-2.02 2.39-3.32 4.4-2.9z" fill="url(#e)"/><path d="m113.56 87.74c-0.15-0.14-0.29 0.02-0.14 0.16 0.94 0.85 1.34 2.14 1.11 3.39-0.02 0.13 0.11 0.15 0.13 0.06 0.04-0.13 0.14-0.11 0.42-0.13 0.07-1.24-0.57-2.62-1.52-3.48z" fill="#EDA600"/><linearGradient id="d" x1="81.195" x2="122.99" y1="84.195" y2="84.195" gradientUnits="userSpaceOnUse"><stop stop-color="#5C4037" offset="0"/><stop stop-color="#70534A" offset="1"/></linearGradient><path d="m122.33 88.09c-0.39-0.19-2.64-1.09-3.29-1.35-0.1-0.04-0.15-0.15-0.11-0.25 0.03-0.1 0.13-0.15 0.23-0.13l1.99 0.45c0.49 0.11 0.9 0.05 1.08-0.37 0.23-0.53-0.07-0.99-0.62-1.15l-3.25-1.07s-2.07-0.72-2.92-1.01c-0.47-0.16-1.25-0.25-2.06 0.16l-9.88-5.1c-0.28-0.15-0.57-0.28-0.89-0.35l-16.77-4.03c-2.01-0.43-4.12 0.87-4.55 2.9s0.71 4.02 2.71 4.45l16.82 3.11 9.96 3.89c0.1 1.49 1.17 2.17 1.56 2.7 0.54 0.72 1.39 2.29 1.3 2.96-0.06 0.43 0.65 0.76 0.94 0.67 0.35-0.11 0.69-0.62 0.79-1.27 0.06-0.38-0.56-1.3-0.71-1.84-0.02-0.08 0.01-0.15 0.06-0.2 0.04-0.02 0.11-0.03 0.21-0.03h0.02c1 0.59 4.68 2.72 4.68 2.72 0.49 0.3 1.07 0.22 1.3-0.32 0.18-0.42-0.06-0.87-0.47-1.11 0 0-2.88-2.14-2.88-2.18l3.9 1.75c0.43 0.2 0.86 0.19 1.11-0.2 0.31-0.48 0.03-1.02-0.49-1.26l-3.96-1.98c-0.1-0.05-0.15-0.16-0.11-0.25 0.04-0.1 0.15-0.14 0.25-0.1 0 0 2.98 1.1 3.41 1.26s1.01 0.17 1.22-0.37c0.23-0.55-0.12-0.88-0.58-1.1z" fill="url(#d)"/><path d="m114.47 95.09c-0.34 0-0.69-0.17-0.92-0.36-0.29-0.25-0.44-0.57-0.39-0.9 0.05-0.4-0.58-1.78-1.19-2.59-0.08-0.1-0.19-0.21-0.31-0.34-0.46-0.47-1.12-1.16-1.3-2.31l-9.65-3.78-16.66-3.08c-0.02 0-0.05-0.01-0.07-0.02-2.19-0.51-3.59-2.75-3.11-5.03 0.23-1.1 0.88-2.05 1.84-2.68 0.97-0.63 2.12-0.85 3.23-0.61l16.78 4.04c0.32 0.07 0.66 0.2 1.02 0.4l9.65 4.98c1-0.4 1.86-0.19 2.21-0.08 0.86 0.29 2.93 1.02 2.93 1.02l3.24 1.06c0.42 0.12 0.75 0.39 0.92 0.75 0.16 0.33 0.16 0.71 0 1.08-0.11 0.25-0.35 0.61-0.87 0.7 0.34 0.14 0.61 0.25 0.72 0.31 1.16 0.55 0.98 1.39 0.84 1.72-0.19 0.48-0.61 0.76-1.12 0.79l0.07 0.04c0.42 0.2 0.73 0.54 0.85 0.95 0.1 0.35 0.04 0.72-0.17 1.04-0.37 0.57-1.04 0.71-1.74 0.38l-0.05-0.02c0.29 0.38 0.37 0.87 0.18 1.31-0.15 0.36-0.43 0.62-0.78 0.73-0.39 0.12-0.84 0.06-1.24-0.18 0 0-2.43-1.4-3.88-2.24 0.23 0.47 0.42 0.89 0.36 1.24-0.13 0.82-0.58 1.49-1.13 1.67-0.08 0-0.17 0.01-0.26 0.01zm-30.19-14.33 16.7 3.1 10.02 3.92c0.18 0.07 0.3 0.24 0.32 0.43 0.07 0.98 0.62 1.54 1.06 2 0.15 0.16 0.29 0.3 0.39 0.43 0.42 0.55 1.52 2.32 1.39 3.28 0.03 0.01 0.23 0.07 0.32 0.07 0.06 0 0.33-0.27 0.41-0.82-0.01-0.1-0.21-0.49-0.32-0.73-0.15-0.3-0.3-0.6-0.37-0.87-0.07-0.25 0.01-0.51 0.2-0.69 0.04-0.04 0.09-0.06 0.14-0.09 0.12-0.06 0.26-0.07 0.38-0.07 0.05-0.01 0.1 0 0.15 0.02 0.06 0.01 0.12 0.04 0.17 0.07 0.97 0.57 4.66 2.7 4.66 2.7 0.16 0.09 0.31 0.13 0.42 0.09 0.03-0.01 0.11-0.04 0.17-0.17 0.08-0.18-0.08-0.38-0.27-0.49-3.13-2.31-3.13-2.31-3.13-2.61 0-0.17 0.09-0.33 0.23-0.42s0.32-0.11 0.48-0.04l3.9 1.75c0.37 0.17 0.46 0.04 0.49-0.01 0.06-0.1 0.05-0.17 0.04-0.22-0.04-0.12-0.16-0.25-0.32-0.32l-3.97-1.99c-0.3-0.14-0.46-0.48-0.38-0.79 0.01-0.03 0.01-0.06 0.03-0.1 0.07-0.17 0.2-0.3 0.37-0.38 0.17-0.07 0.36-0.08 0.54-0.01 0 0 2.98 1.09 3.4 1.26 0.11 0.04 0.47 0.16 0.58-0.09 0.05-0.12 0.1-0.25-0.34-0.45-0.31-0.15-1.95-0.81-3.26-1.34-0.35-0.14-0.52-0.53-0.39-0.88 0.12-0.33 0.46-0.53 0.81-0.45l1.99 0.45c0.43 0.1 0.48-0.02 0.51-0.08 0.06-0.15 0.03-0.23 0.01-0.25-0.04-0.09-0.16-0.17-0.31-0.22l-3.27-1.07c-0.01 0-2.07-0.73-2.93-1.02-0.25-0.09-0.92-0.25-1.68 0.13-0.14 0.07-0.31 0.07-0.45 0l-9.88-5.1c-0.29-0.16-0.53-0.26-0.77-0.31l-16.78-4.04c-0.84-0.18-1.72-0.01-2.46 0.47s-1.24 1.21-1.41 2.04c-0.37 1.76 0.71 3.5 2.4 3.86-0.02 0.04-0.01 0.05 0.01 0.05z" fill="#4A2F27"/><linearGradient id="z" x1="43.669" x2="88.245" y1="31.078" y2="97.942" gradientUnits="userSpaceOnUse"><stop stop-color="#00BFA5" offset="0"/><stop stop-color="#00B29A" offset=".7047"/><stop stop-color="#00AB94" offset="1"/></linearGradient><path d="m67.09 96-0.2-8.19c0-0.6 0.13-1.39 0.3-1.81 0.07-0.17 0.04-0.37-0.08-0.51-0.16-0.19-0.32-0.39-0.46-0.61l-13.06-19.12 17.42-12.2 13.05 19.11c0.12 0.17 0.22 0.35 0.32 0.52 0.09 0.15 0.25 0.25 0.43 0.25 0.27 0 0.52 0.03 0.76 0.08l7.48 1.82-1.63 7.52-7.51-1.4c-0.03 0.01 0.09 0 0.09-0.01v0.01s-0.25-0.01-0.28-0.01c-0.14 0-0.35 0.06-0.44 0.16-0.12 0.12-0.26 0.25-0.36 0.37-0.19 0.23-0.37 0.42-0.6 0.58l-6 4.27c-0.12 0.09-0.26 0.19-0.39 0.29-0.26 0.2-0.53 0.4-0.77 0.51-0.18 0.08-0.29 0.25-0.3 0.44l-0.2 7.93h-7.57z" fill="url(#z)"/><path d="m70.88 54.27 12.76 18.7c0.11 0.16 0.2 0.32 0.3 0.49 0.17 0.31 0.5 0.5 0.85 0.51 0.24 0 0.46 0.03 0.64 0.07l7.02 1.71-1.43 6.57-7.16-1.31c-0.05-0.02-0.1-0.03-0.16-0.04-0.07-0.01-0.16-0.02-0.2-0.02-0.41 0-0.77 0.25-0.93 0.61-0.03 0.04-0.06 0.07-0.09 0.11-0.17 0.21-0.31 0.37-0.49 0.5l-5.98 4.26c-0.13 0.09-0.27 0.2-0.4 0.3-0.24 0.18-0.48 0.37-0.67 0.45-0.35 0.16-0.58 0.75-0.59 1.14l-0.18 7.68h-6.59l-0.19-7.93c0-0.54 0.12-1.4 0.26-1.76 0.14-0.35 0.07-0.8-0.17-1.08-0.16-0.19-0.31-0.41-0.43-0.59l-12.77-18.73 16.6-11.64m0.26-1.4-18.24 12.77 13.33 19.53c0.16 0.23 0.32 0.44 0.5 0.65-0.21 0.53-0.33 1.65-0.33 2.26l0.2 8.92h8.55l0.2-8.67c0.43-0.19 0.84-0.69 1.24-0.97l5.99-4.33c0.42-0.29 0.39-0.69 0.73-1.05l-0.31-0.04s0.25 0.03 0.26 0.03 0.17 0.04 0.18 0.04h0.06c0.01 0 0.04-0.03 0.04-0.03s0.01-0.02 0.01-0.02l8.24 1.5 1.84-8.47-7.97-1.94c-0.29-0.06-0.57-0.09-0.86-0.09-0.11-0.19-0.22-0.38-0.34-0.56l-13.32-19.53z" fill="#009984"/><path d="m60.67 56c0.84-3.27 4.13-5.23 7.36-4.39s5.17 4.18 4.33 7.45-4.13 5.23-7.36 4.39-5.17-4.18-4.33-7.45z" fill="#FAC01B"/><linearGradient id="y" x1="36.69" x2="85.094" y1="-5.3042" y2="43.1" gradientUnits="userSpaceOnUse"><stop stop-color="#70534A" offset="0"/><stop stop-color="#5C4037" offset="1"/></linearGradient><path d="m85.49 6.65c0.02-0.97-0.7-1.05-1.95-1.16l-9.64-0.85c-1.62-0.14-3.06 1.08-3.2 2.74l-0.4 3.7h-0.03l-2.87 22.22-6.73 22.7 11.69 3.07 5.04-23.38 1.5-22.35 0.95-0.32c0.51 0.04 2.05 0.49 2.42-0.24 0.29-0.58-0.12-0.88-0.28-0.93 0.17 0.05 0.83 0.17 1.05-0.36 0.28-0.69-0.44-0.97-0.44-0.97s0.94 0.23 1.22-0.43c0.31-0.72-0.61-1.02-0.61-1.02s1.15 0.26 1.34-0.44c0.16-0.57-0.17-0.84-0.48-0.96 0.71 0.08 1.4-0.19 1.42-1.02z" fill="url(#y)"/><path d="m72.36 59.57c-0.04 0-0.08-0.01-0.13-0.02l-11.69-3.07c-0.13-0.03-0.24-0.12-0.31-0.24s-0.08-0.26-0.04-0.39l6.74-22.7 2.84-22.14c0.01-0.06 0.02-0.11 0.05-0.16l0.38-3.53c0.17-1.92 1.84-3.35 3.75-3.18l9.64 0.85c1.2 0.11 2.44 0.21 2.41 1.67-0.01 0.59-0.27 0.93-0.49 1.12-0.13 0.11-0.28 0.2-0.45 0.27 0.05 0.22 0.05 0.46-0.02 0.71-0.11 0.4-0.37 0.62-0.69 0.74 0.06 0.2 0.07 0.46-0.07 0.78-0.15 0.35-0.42 0.55-0.7 0.66 0.04 0.19 0.04 0.44-0.08 0.73-0.13 0.32-0.36 0.52-0.63 0.63 0.02 0.19-0.01 0.43-0.15 0.7-0.47 0.93-1.79 0.7-2.57 0.57-0.09-0.02-0.17-0.03-0.24-0.04l-0.52 0.18-1.49 22.01-5.05 23.45c-0.03 0.13-0.11 0.25-0.23 0.32-0.08 0.05-0.17 0.08-0.26 0.08zm-11.06-3.92 10.68 2.8 4.93-22.87 1.49-22.28c0.01-0.2 0.15-0.37 0.34-0.44l0.95-0.33c0.07-0.02 0.13-0.03 0.21-0.03 0.1 0.01 0.25 0.03 0.42 0.06 0.92 0.16 1.42 0.15 1.51-0.03s0.03-0.22-0.01-0.23c-0.26-0.08-0.4-0.36-0.32-0.62s0.37-0.41 0.63-0.33c0 0 0.38 0.09 0.45-0.07 0.03-0.08 0.09-0.22-0.16-0.32-0.24-0.1-0.36-0.37-0.28-0.62s0.34-0.39 0.59-0.33c0 0 0.53 0.11 0.64-0.14 0.03-0.08 0.02-0.1 0.02-0.11-0.04-0.09-0.24-0.2-0.32-0.23-0.25-0.08-0.4-0.35-0.33-0.61s0.33-0.41 0.59-0.36c0.27 0.06 0.71 0.05 0.75-0.08 0.05-0.19 0.04-0.28-0.18-0.37-0.23-0.09-0.36-0.34-0.3-0.59 0.06-0.24 0.29-0.41 0.54-0.37 0.31 0.03 0.57-0.02 0.71-0.14 0.04-0.03 0.14-0.12 0.15-0.39 0.01-0.42-0.05-0.53-1.5-0.66l-9.64-0.85c-1.35-0.12-2.54 0.91-2.66 2.28l-0.4 3.71c-0.01 0.06-0.03 0.12-0.05 0.18l-2.85 22.08-6.6 22.29zm24.19-49z" fill="#4A2F27"/><path d="m60.48 56.93c-3.19-0.99-6.56 0.83-7.54 4.06s0.82 6.65 4 7.64 6.56-0.83 7.54-4.06c0.99-3.23-0.81-6.65-4-7.64z" fill="#FAC01B"/><linearGradient id="x" x1="4.5202" x2="52.924" y1="26.866" y2="75.27" gradientUnits="userSpaceOnUse"><stop stop-color="#70534A" offset="0"/><stop stop-color="#5C4037" offset="1"/></linearGradient><path d="m36.64 50.79-21.14-8.22v0l-2.98-1.74c-1.5-0.67-2.79 0.02-3.45 1.53l-3.69 8.99c-0.51 1.16-0.67 1.85 0.18 2.3 0.72 0.39 1.29 0.22 1.56-0.46-0.04 0.34 0.11 0.44 0.68 0.58 0.69 0.16 1.04-0.85 1.04-0.85s-0.19 0.83 0.58 0.9c0.71 0.06 0.98-0.97 0.98-0.97s-0.16 0.84 0.58 0.92c0.56 0.06 0.79-0.82 0.83-1-0.03 0.17-0.12 0.84 0.52 0.86 0.81 0.02 0.98-1.67 1.19-2.15l0.36-0.83 20.29 9.93 0.02-0.05c0.16 0.07 0.3 0.15 0.47 0.2v0 0.01l22.31 7.88 3.47-11.69c-0.02 0-23.77-6.13-23.8-6.14z" fill="url(#x)" stroke="#4A2F27" stroke-linecap="round" stroke-linejoin="round" stroke-miterlimit="10"/><path d="m76.61 85.81c-0.88-1.06-0.75-2.64 0.29-3.53 0.44-0.38 1-0.59 1.58-0.59 0.72 0 1.41 0.32 1.88 0.89l1.43 1.72-3.75 3.22-1.43-1.71z" fill="#3C2B24"/><path d="m78.47 82.19c0.57 0 1.12 0.26 1.49 0.71l1.12 1.35-2.99 2.57-1.1-1.32c-0.7-0.85-0.6-2.12 0.23-2.83 0.36-0.32 0.79-0.48 1.25-0.48m0-1c-0.67 0-1.35 0.23-1.9 0.71-1.25 1.07-1.4 2.96-0.35 4.23l1.75 2.1 4.51-3.87-1.75-2.1c-0.58-0.7-1.42-1.07-2.26-1.07z" fill="#291B16"/><defs><polygon id="w" points="69.52 93.44 88.95 76.78 105.34 96.52 85.92 113.18"/></defs><clipPath id="v"><use xlink:href="#w"/></clipPath><g clip-path="url(#v)"><path d="m79.62 99.97c-0.8 0-1.56-0.37-2.09-1.01-0.96-1.15-0.88-2.82 0.17-3.72l11.63-9.97c0.42-0.37 0.95-0.56 1.53-0.56 0.8 0 1.56 0.37 2.09 1.01 0.96 1.15 0.88 2.82-0.17 3.72l-11.63 9.97c-0.42 0.37-0.95 0.56-1.53 0.56z" fill="#3C2B24"/><path d="m90.86 85.21c0.65 0 1.27 0.3 1.71 0.83 0.78 0.94 0.73 2.3-0.11 3.03l-1.57 1.35-8.49 7.28-1.57 1.34c-0.33 0.29-0.75 0.44-1.2 0.44-0.65 0-1.27-0.3-1.71-0.83-0.78-0.94-0.73-2.3 0.11-3.03l1.57-1.34 8.49-7.28 1.57-1.35c0.33-0.29 0.75-0.44 1.2-0.44m0-1c-0.67 0-1.32 0.22-1.85 0.68l-1.57 1.34-8.49 7.28-1.57 1.34c-1.25 1.08-1.36 3.07-0.23 4.42 0.65 0.78 1.57 1.19 2.48 1.19 0.67 0 1.32-0.22 1.85-0.68l1.57-1.34 8.49-7.28 1.57-1.34c1.25-1.08 1.36-3.07 0.23-4.42-0.65-0.78-1.57-1.19-2.48-1.19z" fill="#291B16"/><linearGradient id="u" x1="-31.568" x2="-31.568" y1="-335.78" y2="-311.72" gradientTransform="matrix(-.7642 .6449 -.6449 -.7642 -145.98 -132.73)" gradientUnits="userSpaceOnUse"><stop stop-color="#3C2B24" offset="0"/><stop stop-color="#5C4037" offset=".17"/><stop stop-color="#70534A" offset=".45"/></linearGradient><path d="m94.56 103.52c3.7-3.18 3.79-10.14-1.02-15.94-4.78-5.76-10.68-5.58-14.28-2.49s-4.77 8.97 0.02 14.73c4.81 5.79 11.58 6.88 15.28 3.7z" fill="url(#u)"/><linearGradient id="t" x1="76.113" x2="97.257" y1="94.119" y2="94.119" gradientUnits="userSpaceOnUse"><stop stop-color="#4A2F27" offset="0"/><stop stop-color="#291B16" offset="1"/></linearGradient><path d="m84.96 83.96c1.95 0 4.89 0.74 7.82 4.26 3.62 4.36 5.08 11.15 1.14 14.54-1.15 0.99-2.67 1.51-4.4 1.51-3.28 0-6.82-1.9-9.47-5.09-2.05-2.47-3.06-5.13-2.92-7.67 0.12-2.21 1.11-4.22 2.79-5.66 1.41-1.22 3.21-1.89 5.04-1.89m0-1c-2.14 0-4.14 0.79-5.69 2.13-3.6 3.09-4.77 8.97 0.02 14.73 3.05 3.67 6.89 5.45 10.24 5.45 1.93 0 3.69-0.59 5.05-1.75 3.7-3.18 3.79-10.14-1.02-15.94-2.73-3.26-5.8-4.62-8.6-4.62z" fill="url(#t)"/><g fill="#1A1717"><path d="m92.35 90.36s0.01 0.07 0.01 0.18v0.1c0 0.04-0.01 0.09-0.02 0.14s-0.02 0.1-0.02 0.16c-0.01 0.06-0.03 0.11-0.04 0.16-0.02 0.06-0.03 0.11-0.05 0.17s-0.05 0.12-0.07 0.18-0.05 0.12-0.09 0.18c-0.03 0.06-0.07 0.12-0.1 0.19-0.08 0.12-0.16 0.25-0.26 0.36-0.09 0.12-0.21 0.22-0.32 0.33-0.12 0.09-0.24 0.19-0.37 0.27s-0.26 0.14-0.39 0.2c-0.07 0.03-0.13 0.05-0.2 0.07-0.06 0.02-0.13 0.04-0.19 0.06-0.06 0.01-0.13 0.03-0.19 0.04s-0.12 0.02-0.18 0.02-0.11 0.01-0.16 0.01h-0.15c-0.05 0-0.09 0-0.13-0.01-0.04 0-0.08-0.01-0.11-0.02-0.13-0.02-0.2-0.04-0.2-0.04-0.23-0.06-0.38-0.3-0.32-0.54 0.04-0.15 0.14-0.26 0.27-0.31l0.08-0.03s0.05-0.02 0.14-0.05c0.02-0.01 0.05-0.01 0.07-0.02 0.03-0.01 0.05-0.02 0.08-0.03 0.06-0.02 0.12-0.04 0.19-0.07 0.03-0.02 0.07-0.03 0.11-0.04 0.04-0.02 0.07-0.04 0.11-0.05l0.24-0.12c0.08-0.05 0.16-0.1 0.23-0.16 0.08-0.05 0.15-0.12 0.23-0.18 0.07-0.07 0.15-0.13 0.21-0.2 0.07-0.07 0.13-0.14 0.19-0.21 0.03-0.04 0.05-0.07 0.08-0.11 0.01-0.02 0.03-0.03 0.04-0.05s0.02-0.04 0.04-0.05c0.02-0.04 0.05-0.07 0.07-0.1s0.04-0.07 0.06-0.1l0.06-0.09c0.02-0.03 0.03-0.05 0.04-0.08 0.01-0.02 0.03-0.05 0.04-0.07 0.01-0.03 0.03-0.06 0.04-0.08 0.04-0.1 0.07-0.16 0.07-0.16 0.11-0.22 0.39-0.31 0.61-0.2 0.15 0.07 0.23 0.21 0.25 0.35z"/><path d="m82.11 98.25s0.06-0.02 0.17-0.05c0.03-0.01 0.06-0.01 0.09-0.02 0.02-0.01 0.05-0.02 0.07-0.03 0.03-0.01 0.05-0.02 0.08-0.03s0.06-0.03 0.1-0.04c0.03-0.02 0.07-0.03 0.11-0.04 0.04-0.02 0.07-0.04 0.11-0.05l0.24-0.12c0.08-0.05 0.16-0.1 0.23-0.16 0.08-0.05 0.15-0.12 0.23-0.18 0.07-0.07 0.15-0.13 0.21-0.2 0.07-0.07 0.13-0.14 0.19-0.21 0.03-0.04 0.05-0.07 0.08-0.11 0.01-0.02 0.03-0.03 0.04-0.05s0.02-0.04 0.04-0.05c0.02-0.03 0.05-0.07 0.07-0.1s0.04-0.07 0.06-0.1c0.04-0.06 0.08-0.13 0.11-0.18 0.02-0.03 0.03-0.05 0.04-0.08 0.01-0.02 0.02-0.05 0.03-0.07 0.04-0.08 0.07-0.13 0.07-0.13l0.04-0.07c0.12-0.21 0.39-0.28 0.6-0.16 0.13 0.08 0.2 0.21 0.21 0.35 0 0 0.01 0.07 0 0.21v0.11c0 0.04-0.01 0.08-0.02 0.13s-0.01 0.1-0.02 0.15-0.03 0.1-0.04 0.16c-0.02 0.06-0.03 0.11-0.05 0.17s-0.05 0.12-0.07 0.18-0.05 0.12-0.09 0.18c-0.03 0.06-0.07 0.12-0.1 0.19-0.08 0.12-0.16 0.25-0.26 0.36-0.09 0.12-0.21 0.22-0.32 0.33-0.12 0.09-0.24 0.19-0.37 0.27s-0.26 0.14-0.39 0.2c-0.07 0.03-0.13 0.05-0.2 0.07-0.06 0.02-0.13 0.04-0.19 0.06-0.06 0.01-0.13 0.03-0.19 0.04s-0.12 0.02-0.18 0.02-0.11 0.01-0.16 0.01h-0.16c-0.05 0-0.1 0-0.14-0.01-0.04 0-0.06-0.01-0.09-0.02-0.11-0.02-0.17-0.04-0.17-0.04-0.24-0.07-0.38-0.32-0.31-0.56 0.05-0.17 0.17-0.28 0.3-0.33z"/></g><g fill="#1A1717"><path d="m88.06 90.69c-0.51-0.61-0.45-1.51 0.13-2 0.58-0.5 1.46-0.41 1.97 0.2s0.45 1.51-0.13 2c-0.58 0.5-1.46 0.4-1.97-0.2z"/><path d="m81.06 96.68c-0.51-0.61-0.45-1.51 0.13-2s1.46-0.41 1.97 0.2 0.45 1.51-0.13 2c-0.58 0.51-1.46 0.41-1.97-0.2z"/></g><radialGradient id="s" cx="-33.502" cy="-338.44" r="8.6005" gradientTransform="matrix(-.752 .6449 -.6346 -.7642 -144.82 -132.73)" gradientUnits="userSpaceOnUse"><stop stop-color="#444140" offset="0"/><stop stop-color="#232020" offset="1"/></radialGradient><path d="m95.57 104.9c9.75-8.36-1.75-17.98-1.75-17.98s-2.55-0.96-2.52-0.92c1.34 1.54 3.02 4.85 3.57 6.4 0.27 0.79-0.05 1.65-0.76 2.07-1.09 0.64-2.78 1.72-4.45 3.14-1.6 1.37-2.9 2.83-3.72 3.83-0.56 0.68-1.55 0.82-2.27 0.31l-5.68-4.34 0.63 2.82s7.32 12.93 16.95 4.67z" fill="url(#s)"/><defs><path id="r" d="m95.57 104.9c9.75-8.36-1.4-17.81-1.4-17.81s-2.91-1.13-2.88-1.09c0.29 0.33 1.22 1.9 1.22 1.9 0.98 0.4 2.56 2.45 2.56 2.45l1.37 2.17 0.67 1.84-3.11 8.55-9.13 1.41-1.54-0.97-1.55-1.39s-1.67-2.23-1.96-3.14l-1.82-1.41 0.69 2.94c-0.01-0.01 7.25 12.81 16.88 4.55z"/></defs><clipPath id="q"><use xlink:href="#r"/></clipPath><g clip-path="url(#q)"><path d="m94 88.26c1.24 1.21 4.56 4.83 4.57 8.97 0 2.5-1.22 4.82-3.65 6.91-1.95 1.67-3.92 2.51-5.86 2.51-5.1 0-8.85-5.76-9.47-6.77l3.51 2.68c0.46 0.32 0.99 0.49 1.54 0.49 0.8 0 1.56-0.36 2.07-0.98 0.79-0.96 2.05-2.38 3.6-3.7 1.6-1.37 3.22-2.41 4.3-3.04 1.12-0.66 1.63-2.03 1.2-3.26-0.33-0.92-1.02-2.4-1.81-3.81m-2.71-2.27c1.34 1.54 3.02 4.85 3.57 6.4 0.27 0.79-0.05 1.65-0.76 2.07-1.09 0.64-2.78 1.72-4.45 3.14-1.6 1.37-2.9 2.83-3.72 3.83-0.33 0.4-0.81 0.62-1.3 0.62-0.33 0-0.67-0.1-0.97-0.31l-5.68-4.34 0.63 2.82s4.2 7.43 10.43 7.43c1.99 0 4.18-0.76 6.51-2.76 9.75-8.36-1.38-17.83-1.38-17.83s-2.82-1.07-2.88-1.07z" fill="#1F1D1B"/></g><path d="m80.31 90.58c0.34-0.99 2.56-2.9 3.58-3.07 0.58-0.1 0.68-0.8 0.22-1.02-0.45-0.22-2.35 0-3.39 0.9-1.05 0.9-1.56 2.75-1.43 3.23 0.14 0.51 0.83 0.53 1.02-0.04z" fill="#1A1717"/><path d="m83.31 91.41c0.03-0.01 0.06-0.02 0.08-0.04l1.51-1.29c0.02-0.02 0.04-0.05 0.05-0.08 0.09-0.17 0.05-0.38-0.15-0.48-0.19-0.1-0.85-0.27-1.45 0.25s-0.55 1.2-0.48 1.41c0.06 0.21 0.26 0.29 0.44 0.23z" fill="#33251F"/></g><linearGradient id="o" x1="55.67" x2="71.896" y1="51.337" y2="67.564" gradientUnits="userSpaceOnUse"><stop stop-color="#FFA000" offset="0"/><stop stop-color="#FF6F00" offset=".9994"/></linearGradient><path d="m55.8 69.04c-0.06-0.09-0.15-0.16-0.25-0.19l-10.79-3.65 3.73-12.33 11 3.1c0.04 0.01 0.09 0.02 0.14 0.02 0.22 0 0.42-0.14 0.48-0.36l3.42-12.09 12.32 3.23-2.33 10.18c-0.03 0.14 0 0.28 0.08 0.39l2.96 4.32-17.69 11.89-3.07-4.51z" fill="url(#o)"/><path d="m63.87 44.13 11.37 2.98-2.22 9.71c-0.06 0.27-0.01 0.56 0.15 0.79l2.67 3.9-16.84 11.35-2.78-4.11c-0.12-0.18-0.3-0.32-0.51-0.39l-10.33-3.5 3.45-11.4 10.52 2.97c0.09 0.03 0.18 0.04 0.27 0.04 0.44 0 0.84-0.29 0.96-0.73l3.29-11.61m-0.69-1.22-3.55 12.57-11.47-3.24-4.01 13.26 11.24 3.81 3.34 4.93 18.5-12.47-3.23-4.72 2.44-10.65-13.26-3.49z" fill="#E66400"/><g display="none"><g display="inline"><g opacity=".6"><circle cx="-73" cy="-91" r="28" fill="none" opacity=".61" stroke="#000" stroke-miterlimit="10" stroke-width=".2625"/><line x1="-53" x2="-53" y1="-155" y2="-27" fill="none" opacity=".61" stroke="#000" stroke-miterlimit="10" stroke-width=".25"/><line x1="-93" x2="-93" y1="-155" y2="-27" fill="none" opacity=".61" stroke="#000" stroke-miterlimit="10" stroke-width=".25"/><line x1="-73" x2="-73" y1="-155" y2="-27" fill="none" opacity=".61" stroke="#000" stroke-miterlimit="10" stroke-width=".25"/><line x1="-9" x2="-137" y1="-91" y2="-91" fill="none" opacity=".61" stroke="#000" stroke-miterlimit="10" stroke-width=".25"/><line x1="-9" x2="-137" y1="-111" y2="-111" fill="none" opacity=".61" stroke="#000" stroke-miterlimit="10" stroke-width=".25"/><line x1="-9" x2="-137" y1="-71.25" y2="-71.25" fill="none" opacity=".61" stroke="#000" stroke-miterlimit="10" stroke-width=".25"/><line x1="-9" x2="-137" y1="-27" y2="-155" fill="none" opacity=".61" stroke="#000" stroke-miterlimit="10" stroke-width=".25"/><line x1="-137" x2="-9" y1="-27" y2="-155" fill="none" opacity=".61" stroke="#000" stroke-miterlimit="10" stroke-width=".25"/><g opacity=".61"><path d="m-73-150.74c32.94 0 59.74 26.8 59.74 59.74s-26.8 59.74-59.74 59.74-59.74-26.8-59.74-59.74 26.8-59.74 59.74-59.74m0-0.26c-33.14 0-60 26.86-60 60s26.86 60 60 60 60-26.86 60-60-26.86-60-60-60z"/></g><path d="m-29.03-39.03h-87.94c-4.42 0-8.03-3.61-8.03-8.03v-87.91c0-4.42 3.61-8.03 8.03-8.03h87.94c4.42 0 8.03 3.61 8.03 8.03v87.91c0 4.42-3.61 8.03-8.03 8.03z" fill="none" opacity=".61" stroke="#000" stroke-miterlimit="10" stroke-width=".2578"/><path d="m-37-31h-72c-4.4 0-8-3.6-8-8v-104c0-4.4 3.6-8 8-8h72c4.4 0 8 3.6 8 8v104c0 4.4-3.6 8-8 8z" fill="none" opacity=".61" stroke="#000" stroke-miterlimit="10" stroke-width=".2628"/><path d="M-23.23-47h-99.54 C-128.4-47-133-51.6-133-57.23v-67.48c0-5.63,4.6-10.23,10.23-10.23h99.54c5.63,0,10.23,4.6,10.23,10.23v67.48 C-13-51.6-17.6-47-23.23-47z" fill="none" opacity=".61" stroke="#000" stroke-miterlimit="10" stroke-width=".2627"/></g><g opacity=".2"><defs><rect id="c" x="-137" y="-155" width="128" height="128" opacity=".2"/></defs><clipPath id="n"><use xlink:href="#c"/></clipPath><g clip-path="url(#n)"><g fill="none" stroke="#000" stroke-miterlimit="10" stroke-width=".25"><line x1="-165" x2="-165" y1="5" y2="-187"/><line x1="-161" x2="-161" y1="5" y2="-187"/><line x1="-157" x2="-157" y1="5" y2="-187"/><line x1="-153" x2="-153" y1="5" y2="-187"/><line x1="-149" x2="-149" y1="5" y2="-187"/><line x1="-145" x2="-145" y1="5" y2="-187"/><line x1="-141" x2="-141" y1="5" y2="-187"/><line x1="-137" x2="-137" y1="5" y2="-187"/><line x1="-133" x2="-133" y1="5" y2="-187"/><line x1="-129" x2="-129" y1="5" y2="-187"/><line x1="-125" x2="-125" y1="5" y2="-187"/><line x1="-121" x2="-121" y1="5" y2="-187"/><line x1="-117" x2="-117" y1="5" y2="-187"/><line x1="-113" x2="-113" y1="5" y2="-187"/><line x1="-109" x2="-109" y1="5" y2="-187"/><line x1="-105" x2="-105" y1="5" y2="-187"/><line x1="-101" x2="-101" y1="5" y2="-187"/><line x1="-97" x2="-97" y1="5" y2="-187"/><line x1="-93" x2="-93" y1="5" y2="-187"/><line x1="-89" x2="-89" y1="5" y2="-187"/><line x1="-85" x2="-85" y1="5" y2="-187"/><line x1="-81" x2="-81" y1="5" y2="-187"/><line x1="-77" x2="-77" y1="5" y2="-187"/><line x1="-73" x2="-73" y1="5" y2="-187"/><line x1="-69" x2="-69" y1="5" y2="-187"/><line x1="-65" x2="-65" y1="5" y2="-187"/><line x1="-61" x2="-61" y1="5" y2="-187"/><line x1="-57" x2="-57" y1="5" y2="-187"/><line x1="-53" x2="-53" y1="5" y2="-187"/><line x1="-49" x2="-49" y1="5" y2="-187"/><line x1="-45" x2="-45" y1="5" y2="-187"/><line x1="-41" x2="-41" y1="5" y2="-187"/><line x1="-37" x2="-37" y1="5" y2="-187"/><line x1="-33" x2="-33" y1="5" y2="-187"/><line x1="-29" x2="-29" y1="5" y2="-187"/><line x1="-25" x2="-25" y1="5" y2="-187"/><line x1="-21" x2="-21" y1="5" y2="-187"/><line x1="-17" x2="-17" y1="5" y2="-187"/><line x1="-13" x2="-13" y1="5" y2="-187"/><line x1="-9" x2="-9" y1="5" y2="-187"/><line x1="-5" x2="-5" y1="5" y2="-187"/><line x1="-1" x2="-1" y1="5" y2="-187"/><line y1="11.05" y2="-180.95"/><line x1="7" x2="7" y1="5" y2="-187"/><line x1="11" x2="11" y1="5" y2="-187"/><line x1="15" x2="15" y1="5" y2="-187"/><line x1="19" x2="19" y1="5" y2="-187"/></g><g fill="none" stroke="#000" stroke-miterlimit="10" stroke-width=".25"><line x1="-169" x2="23" y1="-183" y2="-183"/><line x1="-169" x2="23" y1="-179" y2="-179"/><line x1="-169" x2="23" y1="-175" y2="-175"/><line x1="-169" x2="23" y1="-171" y2="-171"/><line x1="-169" x2="23" y1="-167" y2="-167"/><line x1="-169" x2="23" y1="-163" y2="-163"/><line x1="-169" x2="23" y1="-159" y2="-159"/><line x1="-169" x2="23" y1="-155" y2="-155"/><line x1="-169" x2="23" y1="-151" y2="-151"/><line x1="-169" x2="23" y1="-147" y2="-147"/><line x1="-169" x2="23" y1="-143" y2="-143"/><line x1="-169" x2="23" y1="-139" y2="-139"/><line x1="-169" x2="23" y1="-135" y2="-135"/><line x1="-169" x2="23" y1="-131" y2="-131"/><line x1="-169" x2="23" y1="-127" y2="-127"/><line x1="-169" x2="23" y1="-123" y2="-123"/><line x1="-169" x2="23" y1="-119" y2="-119"/><line x1="-169" x2="23" y1="-115" y2="-115"/><line x1="-169" x2="23" y1="-111" y2="-111"/><line x1="-169" x2="23" y1="-107" y2="-107"/><line x1="-169" x2="23" y1="-103" y2="-103"/><line x1="-169" x2="23" y1="-99" y2="-99"/><line x1="-169" x2="23" y1="-95" y2="-95"/><line x1="-169" x2="23" y1="-91" y2="-91"/><line x1="-169" x2="23" y1="-87" y2="-87"/><line x1="-169" x2="23" y1="-83" y2="-83"/><line x1="-169" x2="23" y1="-79" y2="-79"/><line x1="-169" x2="23" y1="-75" y2="-75"/><line x1="-169" x2="23" y1="-71" y2="-71"/><line x1="-169" x2="23" y1="-67" y2="-67"/><line x1="-169" x2="23" y1="-63" y2="-63"/><line x1="-169" x2="23" y1="-59" y2="-59"/><line x1="-169" x2="23" y1="-55" y2="-55"/><line x1="-169" x2="23" y1="-51" y2="-51"/><line x1="-169" x2="23" y1="-47" y2="-47"/><line x1="-169" x2="23" y1="-43" y2="-43"/><line x1="-169" x2="23" y1="-39" y2="-39"/><line x1="-169" x2="23" y1="-35" y2="-35"/><line x1="-169" x2="23" y1="-31" y2="-31"/><line x1="-169" x2="23" y1="-27" y2="-27"/><line x1="-169" x2="23" y1="-23" y2="-23"/><line x1="-169" x2="23" y1="-19" y2="-19"/><line x1="-169" x2="23" y1="-15" y2="-15"/><line x1="-169" x2="23" y1="-11" y2="-11"/><line x1="-169" x2="23" y1="-7" y2="-7"/><line x1="-169" x2="23" y1="-3" y2="-3"/><line x1="-169" x2="23" y1="1" y2="1"/></g><path d="m22.75-186.75v191.5h-191.5v-191.5h191.5m0.25-0.25h-192v192h192v-192z"/></g></g><g fill="#F44336"><rect x="-137" y="-155" width="4" height="128" opacity=".3"/><rect x="-13" y="-155" width="4" height="128" opacity=".3"/><rect transform="matrix(-1.837e-16 1 -1 -1.837e-16 -226 -80)" x="-75" y="-213" width="4" height="120" opacity=".3"/><rect transform="matrix(-1.837e-16 1 -1 -1.837e-16 -102 44)" x="-75" y="-89" width="4" height="120" opacity=".3"/></g></g><g display="inline"><g opacity=".6"><circle cx="-73" cy="64" r="28" fill="none" opacity=".61" stroke="#000" stroke-miterlimit="10" stroke-width=".2625"/><line x1="-53" x2="-53" y2="128" fill="none" opacity=".61" stroke="#000" stroke-miterlimit="10" stroke-width=".25"/><line x1="-93" x2="-93" y2="128" fill="none" opacity=".61" stroke="#000" stroke-miterlimit="10" stroke-width=".25"/><line x1="-73" x2="-73" y2="128" fill="none" opacity=".61" stroke="#000" stroke-miterlimit="10" stroke-width=".25"/><line x1="-9" x2="-137" y1="64" y2="64" fill="none" opacity=".61" stroke="#000" stroke-miterlimit="10" stroke-width=".25"/><line x1="-9" x2="-137" y1="44" y2="44" fill="none" opacity=".61" stroke="#000" stroke-miterlimit="10" stroke-width=".25"/><line x1="-9" x2="-137" y1="83.75" y2="83.75" fill="none" opacity=".61" stroke="#000" stroke-miterlimit="10" stroke-width=".25"/><line x1="-9" x2="-137" y1="128" fill="none" opacity=".61" stroke="#000" stroke-miterlimit="10" stroke-width=".25"/><line x1="-137" x2="-9" y1="128" fill="none" opacity=".61" stroke="#000" stroke-miterlimit="10" stroke-width=".25"/><g opacity=".61"><path d="m-73 4.26c32.94 0 59.74 26.8 59.74 59.74s-26.8 59.74-59.74 59.74-59.74-26.8-59.74-59.74 26.8-59.74 59.74-59.74m0-0.26c-33.14 0-60 26.86-60 60s26.86 60 60 60 60-26.86 60-60-26.86-60-60-60z"/></g><path d="m-29.03 115.97h-87.94c-4.42 0-8.03-3.61-8.03-8.03v-87.91c0-4.42 3.61-8.03 8.03-8.03h87.94c4.42 0 8.03 3.61 8.03 8.03v87.91c0 4.42-3.61 8.03-8.03 8.03z" fill="none" opacity=".61" stroke="#000" stroke-miterlimit="10" stroke-width=".2578"/><path d="m-37 124h-72c-4.4 0-8-3.6-8-8v-104c0-4.4 3.6-8 8-8h72c4.4 0 8 3.6 8 8v104c0 4.4-3.6 8-8 8z" fill="none" opacity=".61" stroke="#000" stroke-miterlimit="10" stroke-width=".2628"/><path d="m-23.23 108h-99.54c-5.63 0-10.23-4.6-10.23-10.23v-67.49c0-5.63 4.6-10.23 10.23-10.23h99.54c5.63 0 10.23 4.6 10.23 10.23v67.48c0 5.64-4.6 10.24-10.23 10.24z" fill="none" opacity=".61" stroke="#000" stroke-miterlimit="10" stroke-width=".2627"/></g><g opacity=".2"><defs><rect id="p" x="-137" width="128" height="128" opacity=".2"/></defs><clipPath id="m"><use xlink:href="#p"/></clipPath><g clip-path="url(#m)"><g fill="none" stroke="#000" stroke-miterlimit="10" stroke-width=".25"><line x1="-165" x2="-165" y1="160" y2="-32"/><line x1="-161" x2="-161" y1="160" y2="-32"/><line x1="-157" x2="-157" y1="160" y2="-32"/><line x1="-153" x2="-153" y1="160" y2="-32"/><line x1="-149" x2="-149" y1="160" y2="-32"/><line x1="-145" x2="-145" y1="160" y2="-32"/><line x1="-141" x2="-141" y1="160" y2="-32"/><line x1="-137" x2="-137" y1="160" y2="-32"/><line x1="-133" x2="-133" y1="160" y2="-32"/><line x1="-129" x2="-129" y1="160" y2="-32"/><line x1="-125" x2="-125" y1="160" y2="-32"/><line x1="-121" x2="-121" y1="160" y2="-32"/><line x1="-117" x2="-117" y1="160" y2="-32"/><line x1="-113" x2="-113" y1="160" y2="-32"/><line x1="-109" x2="-109" y1="160" y2="-32"/><line x1="-105" x2="-105" y1="160" y2="-32"/><line x1="-101" x2="-101" y1="160" y2="-32"/><line x1="-97" x2="-97" y1="160" y2="-32"/><line x1="-93" x2="-93" y1="160" y2="-32"/><line x1="-89" x2="-89" y1="160" y2="-32"/><line x1="-85" x2="-85" y1="160" y2="-32"/><line x1="-81" x2="-81" y1="160" y2="-32"/><line x1="-77" x2="-77" y1="160" y2="-32"/><line x1="-73" x2="-73" y1="160" y2="-32"/><line x1="-69" x2="-69" y1="160" y2="-32"/><line x1="-65" x2="-65" y1="160" y2="-32"/><line x1="-61" x2="-61" y1="160" y2="-32"/><line x1="-57" x2="-57" y1="160" y2="-32"/><line x1="-53" x2="-53" y1="160" y2="-32"/><line x1="-49" x2="-49" y1="160" y2="-32"/><line x1="-45" x2="-45" y1="160" y2="-32"/><line x1="-41" x2="-41" y1="160" y2="-32"/><line x1="-37" x2="-37" y1="160" y2="-32"/><line x1="-33" x2="-33" y1="160" y2="-32"/><line x1="-29" x2="-29" y1="160" y2="-32"/><line x1="-25" x2="-25" y1="160" y2="-32"/><line x1="-21" x2="-21" y1="160" y2="-32"/><line x1="-17" x2="-17" y1="160" y2="-32"/><line x1="-13" x2="-13" y1="160" y2="-32"/><line x1="-9" x2="-9" y1="160" y2="-32"/><line x1="-5" x2="-5" y1="160" y2="-32"/><line x1="-1" x2="-1" y1="160" y2="-32"/><line y1="166.05" y2="-25.95"/><line x1="7" x2="7" y1="160" y2="-32"/><line x1="11" x2="11" y1="160" y2="-32"/><line x1="15" x2="15" y1="160" y2="-32"/><line x1="19" x2="19" y1="160" y2="-32"/></g><g fill="none" stroke="#000" stroke-miterlimit="10" stroke-width=".25"><line x1="-169" x2="23" y1="-28" y2="-28"/><line x1="-169" x2="23" y1="-24" y2="-24"/><line x1="-169" x2="23" y1="-20" y2="-20"/><line x1="-169" x2="23" y1="-16" y2="-16"/><line x1="-169" x2="23" y1="-12" y2="-12"/><line x1="-169" x2="23" y1="-8" y2="-8"/><line x1="-169" x2="23" y1="-4" y2="-4"/><line x1="-169" x2="23"/><line x1="-169" x2="23" y1="4" y2="4"/><line x1="-169" x2="23" y1="8" y2="8"/><line x1="-169" x2="23" y1="12" y2="12"/><line x1="-169" x2="23" y1="16" y2="16"/><line x1="-169" x2="23" y1="20" y2="20"/><line x1="-169" x2="23" y1="24" y2="24"/><line x1="-169" x2="23" y1="28" y2="28"/><line x1="-169" x2="23" y1="32" y2="32"/><line x1="-169" x2="23" y1="36" y2="36"/><line x1="-169" x2="23" y1="40" y2="40"/><line x1="-169" x2="23" y1="44" y2="44"/><line x1="-169" x2="23" y1="48" y2="48"/><line x1="-169" x2="23" y1="52" y2="52"/><line x1="-169" x2="23" y1="56" y2="56"/><line x1="-169" x2="23" y1="60" y2="60"/><line x1="-169" x2="23" y1="64" y2="64"/><line x1="-169" x2="23" y1="68" y2="68"/><line x1="-169" x2="23" y1="72" y2="72"/><line x1="-169" x2="23" y1="76" y2="76"/><line x1="-169" x2="23" y1="80" y2="80"/><line x1="-169" x2="23" y1="84" y2="84"/><line x1="-169" x2="23" y1="88" y2="88"/><line x1="-169" x2="23" y1="92" y2="92"/><line x1="-169" x2="23" y1="96" y2="96"/><line x1="-169" x2="23" y1="100" y2="100"/><line x1="-169" x2="23" y1="104" y2="104"/><line x1="-169" x2="23" y1="108" y2="108"/><line x1="-169" x2="23" y1="112" y2="112"/><line x1="-169" x2="23" y1="116" y2="116"/><line x1="-169" x2="23" y1="120" y2="120"/><line x1="-169" x2="23" y1="124" y2="124"/><line x1="-169" x2="23" y1="128" y2="128"/><line x1="-169" x2="23" y1="132" y2="132"/><line x1="-169" x2="23" y1="136" y2="136"/><line x1="-169" x2="23" y1="140" y2="140"/><line x1="-169" x2="23" y1="144" y2="144"/><line x1="-169" x2="23" y1="148" y2="148"/><line x1="-169" x2="23" y1="152" y2="152"/><line x1="-169" x2="23" y1="156" y2="156"/></g><path d="m22.75-31.75v191.5h-191.5v-191.5h191.5m0.25-0.25h-192v192h192v-192z"/></g></g><g fill="#F44336"><rect x="-137" width="4" height="128" opacity=".3"/><rect x="-13" width="4" height="128" opacity=".3"/><rect transform="matrix(-1.837e-16 1 -1 -1.837e-16 -71 75)" x="-75" y="-58" width="4" height="120" opacity=".3"/><rect transform="matrix(-1.837e-16 1 -1 -1.837e-16 53 199)" x="-75" y="66" width="4" height="120" opacity=".3"/></g></g><g display="inline"><g opacity=".6"><circle cx="64" cy="-91" r="28" fill="none" opacity=".61" stroke="#000" stroke-miterlimit="10" stroke-width=".2625"/><line x1="84" x2="84" y1="-155" y2="-27" fill="none" opacity=".61" stroke="#000" stroke-miterlimit="10" stroke-width=".25"/><line x1="44" x2="44" y1="-155" y2="-27" fill="none" opacity=".61" stroke="#000" stroke-miterlimit="10" stroke-width=".25"/><line x1="64" x2="64" y1="-155" y2="-27" fill="none" opacity=".61" stroke="#000" stroke-miterlimit="10" stroke-width=".25"/><line x1="128" y1="-91" y2="-91" fill="none" opacity=".61" stroke="#000" stroke-miterlimit="10" stroke-width=".25"/><line x1="128" y1="-111" y2="-111" fill="none" opacity=".61" stroke="#000" stroke-miterlimit="10" stroke-width=".25"/><line x1="128" y1="-71.25" y2="-71.25" fill="none" opacity=".61" stroke="#000" stroke-miterlimit="10" stroke-width=".25"/><line x1="128" y1="-27" y2="-155" fill="none" opacity=".61" stroke="#000" stroke-miterlimit="10" stroke-width=".25"/><line x2="128" y1="-27" y2="-155" fill="none" opacity=".61" stroke="#000" stroke-miterlimit="10" stroke-width=".25"/><g opacity=".61"><path d="m64-150.74c32.94 0 59.74 26.8 59.74 59.74s-26.8 59.74-59.74 59.74-59.74-26.8-59.74-59.74 26.8-59.74 59.74-59.74m0-0.26c-33.14 0-60 26.86-60 60s26.86 60 60 60 60-26.86 60-60-26.86-60-60-60z"/></g><path d="m107.97-39.03h-87.94c-4.42 0-8.03-3.61-8.03-8.03v-87.91c0-4.42 3.61-8.03 8.03-8.03h87.94c4.42 0 8.03 3.61 8.03 8.03v87.91c0 4.42-3.61 8.03-8.03 8.03z" fill="none" opacity=".61" stroke="#000" stroke-miterlimit="10" stroke-width=".2578"/><path d="m100-31h-72c-4.4 0-8-3.6-8-8v-104c0-4.4 3.6-8 8-8h72c4.4 0 8 3.6 8 8v104c0 4.4-3.6 8-8 8z" fill="none" opacity=".61" stroke="#000" stroke-miterlimit="10" stroke-width=".2628"/><path d="M113.77-47H14.23 C8.6-47,4-51.6,4-57.23v-67.48c0-5.63,4.6-10.23,10.23-10.23h99.54c5.63,0,10.23,4.6,10.23,10.23v67.48 C124-51.6,119.4-47,113.77-47z" fill="none" opacity=".61" stroke="#000" stroke-miterlimit="10" stroke-width=".2627"/></g><g opacity=".2"><defs><rect id="b" y="-155" width="128" height="128" opacity=".2"/></defs><clipPath id="l"><use xlink:href="#b"/></clipPath><g clip-path="url(#l)"><g fill="none" stroke="#000" stroke-miterlimit="10" stroke-width=".25"><line x1="-28" x2="-28" y1="5" y2="-187"/><line x1="-24" x2="-24" y1="5" y2="-187"/><line x1="-20" x2="-20" y1="5" y2="-187"/><line x1="-16" x2="-16" y1="5" y2="-187"/><line x1="-12" x2="-12" y1="5" y2="-187"/><line x1="-8" x2="-8" y1="5" y2="-187"/><line x1="-4" x2="-4" y1="5" y2="-187"/><line y1="5" y2="-187"/><line x1="4" x2="4" y1="5" y2="-187"/><line x1="8" x2="8" y1="5" y2="-187"/><line x1="12" x2="12" y1="5" y2="-187"/><line x1="16" x2="16" y1="5" y2="-187"/><line x1="20" x2="20" y1="5" y2="-187"/><line x1="24" x2="24" y1="5" y2="-187"/><line x1="28" x2="28" y1="5" y2="-187"/><line x1="32" x2="32" y1="5" y2="-187"/><line x1="36" x2="36" y1="5" y2="-187"/><line x1="40" x2="40" y1="5" y2="-187"/><line x1="44" x2="44" y1="5" y2="-187"/><line x1="48" x2="48" y1="5" y2="-187"/><line x1="52" x2="52" y1="5" y2="-187"/><line x1="56" x2="56" y1="5" y2="-187"/><line x1="60" x2="60" y1="5" y2="-187"/><line x1="64" x2="64" y1="5" y2="-187"/><line x1="68" x2="68" y1="5" y2="-187"/><line x1="72" x2="72" y1="5" y2="-187"/><line x1="76" x2="76" y1="5" y2="-187"/><line x1="80" x2="80" y1="5" y2="-187"/><line x1="84" x2="84" y1="5" y2="-187"/><line x1="88" x2="88" y1="5" y2="-187"/><line x1="92" x2="92" y1="5" y2="-187"/><line x1="96" x2="96" y1="5" y2="-187"/><line x1="100" x2="100" y1="5" y2="-187"/><line x1="104" x2="104" y1="5" y2="-187"/><line x1="108" x2="108" y1="5" y2="-187"/><line x1="112" x2="112" y1="5" y2="-187"/><line x1="116" x2="116" y1="5" y2="-187"/><line x1="120" x2="120" y1="5" y2="-187"/><line x1="124" x2="124" y1="5" y2="-187"/><line x1="128" x2="128" y1="5" y2="-187"/><line x1="132" x2="132" y1="5" y2="-187"/><line x1="136" x2="136" y1="5" y2="-187"/><line x1="137" x2="137" y1="11.05" y2="-180.95"/><line x1="144" x2="144" y1="5" y2="-187"/><line x1="148" x2="148" y1="5" y2="-187"/><line x1="152" x2="152" y1="5" y2="-187"/><line x1="156" x2="156" y1="5" y2="-187"/></g><g fill="none" stroke="#000" stroke-miterlimit="10" stroke-width=".25"><line x1="-32" x2="160" y1="-183" y2="-183"/><line x1="-32" x2="160" y1="-179" y2="-179"/><line x1="-32" x2="160" y1="-175" y2="-175"/><line x1="-32" x2="160" y1="-171" y2="-171"/><line x1="-32" x2="160" y1="-167" y2="-167"/><line x1="-32" x2="160" y1="-163" y2="-163"/><line x1="-32" x2="160" y1="-159" y2="-159"/><line x1="-32" x2="160" y1="-155" y2="-155"/><line x1="-32" x2="160" y1="-151" y2="-151"/><line x1="-32" x2="160" y1="-147" y2="-147"/><line x1="-32" x2="160" y1="-143" y2="-143"/><line x1="-32" x2="160" y1="-139" y2="-139"/><line x1="-32" x2="160" y1="-135" y2="-135"/><line x1="-32" x2="160" y1="-131" y2="-131"/><line x1="-32" x2="160" y1="-127" y2="-127"/><line x1="-32" x2="160" y1="-123" y2="-123"/><line x1="-32" x2="160" y1="-119" y2="-119"/><line x1="-32" x2="160" y1="-115" y2="-115"/><line x1="-32" x2="160" y1="-111" y2="-111"/><line x1="-32" x2="160" y1="-107" y2="-107"/><line x1="-32" x2="160" y1="-103" y2="-103"/><line x1="-32" x2="160" y1="-99" y2="-99"/><line x1="-32" x2="160" y1="-95" y2="-95"/><line x1="-32" x2="160" y1="-91" y2="-91"/><line x1="-32" x2="160" y1="-87" y2="-87"/><line x1="-32" x2="160" y1="-83" y2="-83"/><line x1="-32" x2="160" y1="-79" y2="-79"/><line x1="-32" x2="160" y1="-75" y2="-75"/><line x1="-32" x2="160" y1="-71" y2="-71"/><line x1="-32" x2="160" y1="-67" y2="-67"/><line x1="-32" x2="160" y1="-63" y2="-63"/><line x1="-32" x2="160" y1="-59" y2="-59"/><line x1="-32" x2="160" y1="-55" y2="-55"/><line x1="-32" x2="160" y1="-51" y2="-51"/><line x1="-32" x2="160" y1="-47" y2="-47"/><line x1="-32" x2="160" y1="-43" y2="-43"/><line x1="-32" x2="160" y1="-39" y2="-39"/><line x1="-32" x2="160" y1="-35" y2="-35"/><line x1="-32" x2="160" y1="-31" y2="-31"/><line x1="-32" x2="160" y1="-27" y2="-27"/><line x1="-32" x2="160" y1="-23" y2="-23"/><line x1="-32" x2="160" y1="-19" y2="-19"/><line x1="-32" x2="160" y1="-15" y2="-15"/><line x1="-32" x2="160" y1="-11" y2="-11"/><line x1="-32" x2="160" y1="-7" y2="-7"/><line x1="-32" x2="160" y1="-3" y2="-3"/><line x1="-32" x2="160" y1="1" y2="1"/></g><path d="m159.75-186.75v191.5h-191.5v-191.5h191.5m0.25-0.25h-192v192h192v-192z"/></g></g><g fill="#F44336"><rect y="-155" width="4" height="128" opacity=".3"/><rect x="124" y="-155" width="4" height="128" opacity=".3"/><rect transform="matrix(-1.837e-16 1 -1 -1.837e-16 -89 -217)" x="62" y="-213" width="4" height="120" opacity=".3"/><rect transform="matrix(-1.837e-16 1 -1 -1.837e-16 35 -93)" x="62" y="-89" width="4" height="120" opacity=".3"/></g></g><g display="inline"><g opacity=".6"><circle cx="64" cy="64" r="28" fill="none" opacity=".61" stroke="#000" stroke-miterlimit="10" stroke-width=".2625"/><line x1="84" x2="84" y2="128" fill="none" opacity=".61" stroke="#000" stroke-miterlimit="10" stroke-width=".25"/><line x1="44" x2="44" y2="128" fill="none" opacity=".61" stroke="#000" stroke-miterlimit="10" stroke-width=".25"/><line x1="64" x2="64" y2="128" fill="none" opacity=".61" stroke="#000" stroke-miterlimit="10" stroke-width=".25"/><line x1="128" y1="64" y2="64" fill="none" opacity=".61" stroke="#000" stroke-miterlimit="10" stroke-width=".25"/><line x1="128" y1="44" y2="44" fill="none" opacity=".61" stroke="#000" stroke-miterlimit="10" stroke-width=".25"/><line x1="128" y1="83.75" y2="83.75" fill="none" opacity=".61" stroke="#000" stroke-miterlimit="10" stroke-width=".25"/><line x1="128" y1="128" fill="none" opacity=".61" stroke="#000" stroke-miterlimit="10" stroke-width=".25"/><line x2="128" y1="128" fill="none" opacity=".61" stroke="#000" stroke-miterlimit="10" stroke-width=".25"/><g opacity=".61"><path d="M64,4.26c32.94,0,59.74,26.8,59.74,59.74S96.94,123.74,64,123.74S4.26,96.94,4.26,64S31.06,4.26,64,4.26 M64,4 C30.86,4,4,30.86,4,64s26.86,60,60,60c33.14,0,60-26.86,60-60S97.14,4,64,4L64,4z"/></g><path d="m107.97 115.97h-87.94c-4.42 0-8.03-3.61-8.03-8.03v-87.91c0-4.42 3.61-8.03 8.03-8.03h87.94c4.42 0 8.03 3.61 8.03 8.03v87.91c0 4.42-3.61 8.03-8.03 8.03z" fill="none" opacity=".61" stroke="#000" stroke-miterlimit="10" stroke-width=".2578"/><path d="m100 124h-72c-4.4 0-8-3.6-8-8v-104c0-4.4 3.6-8 8-8h72c4.4 0 8 3.6 8 8v104c0 4.4-3.6 8-8 8z" fill="none" opacity=".61" stroke="#000" stroke-miterlimit="10" stroke-width=".2628"/><path d="M113.77,108H14.23 C8.6,108,4,103.4,4,97.77V30.28c0-5.63,4.6-10.23,10.23-10.23h99.54c5.63,0,10.23,4.6,10.23,10.23v67.48 C124,103.4,119.4,108,113.77,108z" fill="none" opacity=".61" stroke="#000" stroke-miterlimit="10" stroke-width=".2627"/></g><g opacity=".2"><defs><rect id="h" width="128" height="128" opacity=".2"/></defs><clipPath id="k"><use xlink:href="#h"/></clipPath><g clip-path="url(#k)"><g fill="none" stroke="#000" stroke-miterlimit="10" stroke-width=".25"><line x1="-28" x2="-28" y1="160" y2="-32"/><line x1="-24" x2="-24" y1="160" y2="-32"/><line x1="-20" x2="-20" y1="160" y2="-32"/><line x1="-16" x2="-16" y1="160" y2="-32"/><line x1="-12" x2="-12" y1="160" y2="-32"/><line x1="-8" x2="-8" y1="160" y2="-32"/><line x1="-4" x2="-4" y1="160" y2="-32"/><line y1="160" y2="-32"/><line x1="4" x2="4" y1="160" y2="-32"/><line x1="8" x2="8" y1="160" y2="-32"/><line x1="12" x2="12" y1="160" y2="-32"/><line x1="16" x2="16" y1="160" y2="-32"/><line x1="20" x2="20" y1="160" y2="-32"/><line x1="24" x2="24" y1="160" y2="-32"/><line x1="28" x2="28" y1="160" y2="-32"/><line x1="32" x2="32" y1="160" y2="-32"/><line x1="36" x2="36" y1="160" y2="-32"/><line x1="40" x2="40" y1="160" y2="-32"/><line x1="44" x2="44" y1="160" y2="-32"/><line x1="48" x2="48" y1="160" y2="-32"/><line x1="52" x2="52" y1="160" y2="-32"/><line x1="56" x2="56" y1="160" y2="-32"/><line x1="60" x2="60" y1="160" y2="-32"/><line x1="64" x2="64" y1="160" y2="-32"/><line x1="68" x2="68" y1="160" y2="-32"/><line x1="72" x2="72" y1="160" y2="-32"/><line x1="76" x2="76" y1="160" y2="-32"/><line x1="80" x2="80" y1="160" y2="-32"/><line x1="84" x2="84" y1="160" y2="-32"/><line x1="88" x2="88" y1="160" y2="-32"/><line x1="92" x2="92" y1="160" y2="-32"/><line x1="96" x2="96" y1="160" y2="-32"/><line x1="100" x2="100" y1="160" y2="-32"/><line x1="104" x2="104" y1="160" y2="-32"/><line x1="108" x2="108" y1="160" y2="-32"/><line x1="112" x2="112" y1="160" y2="-32"/><line x1="116" x2="116" y1="160" y2="-32"/><line x1="120" x2="120" y1="160" y2="-32"/><line x1="124" x2="124" y1="160" y2="-32"/><line x1="128" x2="128" y1="160" y2="-32"/><line x1="132" x2="132" y1="160" y2="-32"/><line x1="136" x2="136" y1="160" y2="-32"/><line x1="137" x2="137" y1="166.05" y2="-25.95"/><line x1="144" x2="144" y1="160" y2="-32"/><line x1="148" x2="148" y1="160" y2="-32"/><line x1="152" x2="152" y1="160" y2="-32"/><line x1="156" x2="156" y1="160" y2="-32"/></g><g fill="none" stroke="#000" stroke-miterlimit="10" stroke-width=".25"><line x1="-32" x2="160" y1="-28" y2="-28"/><line x1="-32" x2="160" y1="-24" y2="-24"/><line x1="-32" x2="160" y1="-20" y2="-20"/><line x1="-32" x2="160" y1="-16" y2="-16"/><line x1="-32" x2="160" y1="-12" y2="-12"/><line x1="-32" x2="160" y1="-8" y2="-8"/><line x1="-32" x2="160" y1="-4" y2="-4"/><line x1="-32" x2="160"/><line x1="-32" x2="160" y1="4" y2="4"/><line x1="-32" x2="160" y1="8" y2="8"/><line x1="-32" x2="160" y1="12" y2="12"/><line x1="-32" x2="160" y1="16" y2="16"/><line x1="-32" x2="160" y1="20" y2="20"/><line x1="-32" x2="160" y1="24" y2="24"/><line x1="-32" x2="160" y1="28" y2="28"/><line x1="-32" x2="160" y1="32" y2="32"/><line x1="-32" x2="160" y1="36" y2="36"/><line x1="-32" x2="160" y1="40" y2="40"/><line x1="-32" x2="160" y1="44" y2="44"/><line x1="-32" x2="160" y1="48" y2="48"/><line x1="-32" x2="160" y1="52" y2="52"/><line x1="-32" x2="160" y1="56" y2="56"/><line x1="-32" x2="160" y1="60" y2="60"/><line x1="-32" x2="160" y1="64" y2="64"/><line x1="-32" x2="160" y1="68" y2="68"/><line x1="-32" x2="160" y1="72" y2="72"/><line x1="-32" x2="160" y1="76" y2="76"/><line x1="-32" x2="160" y1="80" y2="80"/><line x1="-32" x2="160" y1="84" y2="84"/><line x1="-32" x2="160" y1="88" y2="88"/><line x1="-32" x2="160" y1="92" y2="92"/><line x1="-32" x2="160" y1="96" y2="96"/><line x1="-32" x2="160" y1="100" y2="100"/><line x1="-32" x2="160" y1="104" y2="104"/><line x1="-32" x2="160" y1="108" y2="108"/><line x1="-32" x2="160" y1="112" y2="112"/><line x1="-32" x2="160" y1="116" y2="116"/><line x1="-32" x2="160" y1="120" y2="120"/><line x1="-32" x2="160" y1="124" y2="124"/><line x1="-32" x2="160" y1="128" y2="128"/><line x1="-32" x2="160" y1="132" y2="132"/><line x1="-32" x2="160" y1="136" y2="136"/><line x1="-32" x2="160" y1="140" y2="140"/><line x1="-32" x2="160" y1="144" y2="144"/><line x1="-32" x2="160" y1="148" y2="148"/><line x1="-32" x2="160" y1="152" y2="152"/><line x1="-32" x2="160" y1="156" y2="156"/></g><path d="m159.75-31.75v191.5h-191.5v-191.5h191.5m0.25-0.25h-192v192h192v-192z"/></g></g><g fill="#F44336"><rect width="4" height="128" opacity=".3"/><rect x="124" width="4" height="128" opacity=".3"/><rect transform="matrix(-1.837e-16 1 -1 -1.837e-16 66 -62)" x="62" y="-58" width="4" height="120" opacity=".3"/><rect transform="matrix(-1.837e-16 1 -1 -1.837e-16 190 62)" x="62" y="66" width="4" height="120" opacity=".3"/></g></g><g display="inline"><g opacity=".6"><circle cx="199" cy="-91" r="28" fill="none" opacity=".61" stroke="#000" stroke-miterlimit="10" stroke-width=".2625"/><line x1="219" x2="219" y1="-155" y2="-27" fill="none" opacity=".61" stroke="#000" stroke-miterlimit="10" stroke-width=".25"/><line x1="179" x2="179" y1="-155" y2="-27" fill="none" opacity=".61" stroke="#000" stroke-miterlimit="10" stroke-width=".25"/><line x1="199" x2="199" y1="-155" y2="-27" fill="none" opacity=".61" stroke="#000" stroke-miterlimit="10" stroke-width=".25"/><line x1="263" x2="135" y1="-91" y2="-91" fill="none" opacity=".61" stroke="#000" stroke-miterlimit="10" stroke-width=".25"/><line x1="263" x2="135" y1="-111" y2="-111" fill="none" opacity=".61" stroke="#000" stroke-miterlimit="10" stroke-width=".25"/><line x1="263" x2="135" y1="-71.25" y2="-71.25" fill="none" opacity=".61" stroke="#000" stroke-miterlimit="10" stroke-width=".25"/><line x1="263" x2="135" y1="-27" y2="-155" fill="none" opacity=".61" stroke="#000" stroke-miterlimit="10" stroke-width=".25"/><line x1="135" x2="263" y1="-27" y2="-155" fill="none" opacity=".61" stroke="#000" stroke-miterlimit="10" stroke-width=".25"/><g opacity=".61"><path d="m199-150.74c32.94 0 59.74 26.8 59.74 59.74s-26.8 59.74-59.74 59.74-59.74-26.8-59.74-59.74 26.8-59.74 59.74-59.74m0-0.26c-33.14 0-60 26.86-60 60s26.86 60 60 60 60-26.86 60-60-26.86-60-60-60z"/></g><path d="m242.97-39.03h-87.94c-4.42 0-8.03-3.61-8.03-8.03v-87.91c0-4.42 3.61-8.03 8.03-8.03h87.94c4.42 0 8.03 3.61 8.03 8.03v87.91c0 4.42-3.61 8.03-8.03 8.03z" fill="none" opacity=".61" stroke="#000" stroke-miterlimit="10" stroke-width=".2578"/><path d="m235-31h-72c-4.4 0-8-3.6-8-8v-104c0-4.4 3.6-8 8-8h72c4.4 0 8 3.6 8 8v104c0 4.4-3.6 8-8 8z" fill="none" opacity=".61" stroke="#000" stroke-miterlimit="10" stroke-width=".2628"/><path d="M248.77-47h-99.54 C143.6-47,139-51.6,139-57.23v-67.48c0-5.63,4.6-10.23,10.23-10.23h99.54c5.63,0,10.23,4.6,10.23,10.23v67.48 C259-51.6,254.4-47,248.77-47z" fill="none" opacity=".61" stroke="#000" stroke-miterlimit="10" stroke-width=".2627"/></g><g opacity=".2"><defs><rect id="g" x="135" y="-155" width="128" height="128" opacity=".2"/></defs><clipPath id="j"><use xlink:href="#g"/></clipPath><g clip-path="url(#j)"><g fill="none" stroke="#000" stroke-miterlimit="10" stroke-width=".25"><line x1="107" x2="107" y1="5" y2="-187"/><line x1="111" x2="111" y1="5" y2="-187"/><line x1="115" x2="115" y1="5" y2="-187"/><line x1="119" x2="119" y1="5" y2="-187"/><line x1="123" x2="123" y1="5" y2="-187"/><line x1="127" x2="127" y1="5" y2="-187"/><line x1="131" x2="131" y1="5" y2="-187"/><line x1="135" x2="135" y1="5" y2="-187"/><line x1="139" x2="139" y1="5" y2="-187"/><line x1="143" x2="143" y1="5" y2="-187"/><line x1="147" x2="147" y1="5" y2="-187"/><line x1="151" x2="151" y1="5" y2="-187"/><line x1="155" x2="155" y1="5" y2="-187"/><line x1="159" x2="159" y1="5" y2="-187"/><line x1="163" x2="163" y1="5" y2="-187"/><line x1="167" x2="167" y1="5" y2="-187"/><line x1="171" x2="171" y1="5" y2="-187"/><line x1="175" x2="175" y1="5" y2="-187"/><line x1="179" x2="179" y1="5" y2="-187"/><line x1="183" x2="183" y1="5" y2="-187"/><line x1="187" x2="187" y1="5" y2="-187"/><line x1="191" x2="191" y1="5" y2="-187"/><line x1="195" x2="195" y1="5" y2="-187"/><line x1="199" x2="199" y1="5" y2="-187"/><line x1="203" x2="203" y1="5" y2="-187"/><line x1="207" x2="207" y1="5" y2="-187"/><line x1="211" x2="211" y1="5" y2="-187"/><line x1="215" x2="215" y1="5" y2="-187"/><line x1="219" x2="219" y1="5" y2="-187"/><line x1="223" x2="223" y1="5" y2="-187"/><line x1="227" x2="227" y1="5" y2="-187"/><line x1="231" x2="231" y1="5" y2="-187"/><line x1="235" x2="235" y1="5" y2="-187"/><line x1="239" x2="239" y1="5" y2="-187"/><line x1="243" x2="243" y1="5" y2="-187"/><line x1="247" x2="247" y1="5" y2="-187"/><line x1="251" x2="251" y1="5" y2="-187"/><line x1="255" x2="255" y1="5" y2="-187"/><line x1="259" x2="259" y1="5" y2="-187"/><line x1="263" x2="263" y1="5" y2="-187"/><line x1="267" x2="267" y1="5" y2="-187"/><line x1="271" x2="271" y1="5" y2="-187"/><line x1="272" x2="272" y1="11.05" y2="-180.95"/><line x1="279" x2="279" y1="5" y2="-187"/><line x1="283" x2="283" y1="5" y2="-187"/><line x1="287" x2="287" y1="5" y2="-187"/><line x1="291" x2="291" y1="5" y2="-187"/></g><g fill="none" stroke="#000" stroke-miterlimit="10" stroke-width=".25"><line x1="103" x2="295" y1="-183" y2="-183"/><line x1="103" x2="295" y1="-179" y2="-179"/><line x1="103" x2="295" y1="-175" y2="-175"/><line x1="103" x2="295" y1="-171" y2="-171"/><line x1="103" x2="295" y1="-167" y2="-167"/><line x1="103" x2="295" y1="-163" y2="-163"/><line x1="103" x2="295" y1="-159" y2="-159"/><line x1="103" x2="295" y1="-155" y2="-155"/><line x1="103" x2="295" y1="-151" y2="-151"/><line x1="103" x2="295" y1="-147" y2="-147"/><line x1="103" x2="295" y1="-143" y2="-143"/><line x1="103" x2="295" y1="-139" y2="-139"/><line x1="103" x2="295" y1="-135" y2="-135"/><line x1="103" x2="295" y1="-131" y2="-131"/><line x1="103" x2="295" y1="-127" y2="-127"/><line x1="103" x2="295" y1="-123" y2="-123"/><line x1="103" x2="295" y1="-119" y2="-119"/><line x1="103" x2="295" y1="-115" y2="-115"/><line x1="103" x2="295" y1="-111" y2="-111"/><line x1="103" x2="295" y1="-107" y2="-107"/><line x1="103" x2="295" y1="-103" y2="-103"/><line x1="103" x2="295" y1="-99" y2="-99"/><line x1="103" x2="295" y1="-95" y2="-95"/><line x1="103" x2="295" y1="-91" y2="-91"/><line x1="103" x2="295" y1="-87" y2="-87"/><line x1="103" x2="295" y1="-83" y2="-83"/><line x1="103" x2="295" y1="-79" y2="-79"/><line x1="103" x2="295" y1="-75" y2="-75"/><line x1="103" x2="295" y1="-71" y2="-71"/><line x1="103" x2="295" y1="-67" y2="-67"/><line x1="103" x2="295" y1="-63" y2="-63"/><line x1="103" x2="295" y1="-59" y2="-59"/><line x1="103" x2="295" y1="-55" y2="-55"/><line x1="103" x2="295" y1="-51" y2="-51"/><line x1="103" x2="295" y1="-47" y2="-47"/><line x1="103" x2="295" y1="-43" y2="-43"/><line x1="103" x2="295" y1="-39" y2="-39"/><line x1="103" x2="295" y1="-35" y2="-35"/><line x1="103" x2="295" y1="-31" y2="-31"/><line x1="103" x2="295" y1="-27" y2="-27"/><line x1="103" x2="295" y1="-23" y2="-23"/><line x1="103" x2="295" y1="-19" y2="-19"/><line x1="103" x2="295" y1="-15" y2="-15"/><line x1="103" x2="295" y1="-11" y2="-11"/><line x1="103" x2="295" y1="-7" y2="-7"/><line x1="103" x2="295" y1="-3" y2="-3"/><line x1="103" x2="295" y1="1" y2="1"/></g><path d="m294.75-186.75v191.5h-191.5v-191.5h191.5m0.25-0.25h-192v192h192v-192z"/></g></g><g fill="#F44336"><rect x="135" y="-155" width="4" height="128" opacity=".3"/><rect x="259" y="-155" width="4" height="128" opacity=".3"/><rect transform="matrix(-1.837e-16 1 -1 -1.837e-16 46 -352)" x="197" y="-213" width="4" height="120" opacity=".3"/><rect transform="matrix(-1.837e-16 1 -1 -1.837e-16 170 -228)" x="197" y="-89" width="4" height="120" opacity=".3"/></g></g><g display="inline"><g opacity=".6"><circle cx="199" cy="64" r="28" fill="none" opacity=".61" stroke="#000" stroke-miterlimit="10" stroke-width=".2625"/><line x1="219" x2="219" y2="128" fill="none" opacity=".61" stroke="#000" stroke-miterlimit="10" stroke-width=".25"/><line x1="179" x2="179" y2="128" fill="none" opacity=".61" stroke="#000" stroke-miterlimit="10" stroke-width=".25"/><line x1="199" x2="199" y2="128" fill="none" opacity=".61" stroke="#000" stroke-miterlimit="10" stroke-width=".25"/><line x1="263" x2="135" y1="64" y2="64" fill="none" opacity=".61" stroke="#000" stroke-miterlimit="10" stroke-width=".25"/><line x1="263" x2="135" y1="44" y2="44" fill="none" opacity=".61" stroke="#000" stroke-miterlimit="10" stroke-width=".25"/><line x1="263" x2="135" y1="83.75" y2="83.75" fill="none" opacity=".61" stroke="#000" stroke-miterlimit="10" stroke-width=".25"/><line x1="263" x2="135" y1="128" fill="none" opacity=".61" stroke="#000" stroke-miterlimit="10" stroke-width=".25"/><line x1="135" x2="263" y1="128" fill="none" opacity=".61" stroke="#000" stroke-miterlimit="10" stroke-width=".25"/><g opacity=".61"><path d="m199 4.26c32.94 0 59.74 26.8 59.74 59.74s-26.8 59.74-59.74 59.74-59.74-26.8-59.74-59.74 26.8-59.74 59.74-59.74m0-0.26c-33.14 0-60 26.86-60 60s26.86 60 60 60 60-26.86 60-60-26.86-60-60-60z"/></g><path d="m242.97 115.97h-87.94c-4.42 0-8.03-3.61-8.03-8.03v-87.91c0-4.42 3.61-8.03 8.03-8.03h87.94c4.42 0 8.03 3.61 8.03 8.03v87.91c0 4.42-3.61 8.03-8.03 8.03z" fill="none" opacity=".61" stroke="#000" stroke-miterlimit="10" stroke-width=".2578"/><path d="m235 124h-72c-4.4 0-8-3.6-8-8v-104c0-4.4 3.6-8 8-8h72c4.4 0 8 3.6 8 8v104c0 4.4-3.6 8-8 8z" fill="none" opacity=".61" stroke="#000" stroke-miterlimit="10" stroke-width=".2628"/><path d="m248.77 108h-99.54c-5.63 0-10.23-4.6-10.23-10.23v-67.49c0-5.63 4.6-10.23 10.23-10.23h99.54c5.63 0 10.23 4.6 10.23 10.23v67.48c0 5.64-4.6 10.24-10.23 10.24z" fill="none" opacity=".61" stroke="#000" stroke-miterlimit="10" stroke-width=".2627"/></g><g opacity=".2"><defs><rect id="a" x="135" width="128" height="128" opacity=".2"/></defs><clipPath id="i"><use xlink:href="#a"/></clipPath><g clip-path="url(#i)"><g fill="none" stroke="#000" stroke-miterlimit="10" stroke-width=".25"><line x1="107" x2="107" y1="160" y2="-32"/><line x1="111" x2="111" y1="160" y2="-32"/><line x1="115" x2="115" y1="160" y2="-32"/><line x1="119" x2="119" y1="160" y2="-32"/><line x1="123" x2="123" y1="160" y2="-32"/><line x1="127" x2="127" y1="160" y2="-32"/><line x1="131" x2="131" y1="160" y2="-32"/><line x1="135" x2="135" y1="160" y2="-32"/><line x1="139" x2="139" y1="160" y2="-32"/><line x1="143" x2="143" y1="160" y2="-32"/><line x1="147" x2="147" y1="160" y2="-32"/><line x1="151" x2="151" y1="160" y2="-32"/><line x1="155" x2="155" y1="160" y2="-32"/><line x1="159" x2="159" y1="160" y2="-32"/><line x1="163" x2="163" y1="160" y2="-32"/><line x1="167" x2="167" y1="160" y2="-32"/><line x1="171" x2="171" y1="160" y2="-32"/><line x1="175" x2="175" y1="160" y2="-32"/><line x1="179" x2="179" y1="160" y2="-32"/><line x1="183" x2="183" y1="160" y2="-32"/><line x1="187" x2="187" y1="160" y2="-32"/><line x1="191" x2="191" y1="160" y2="-32"/><line x1="195" x2="195" y1="160" y2="-32"/><line x1="199" x2="199" y1="160" y2="-32"/><line x1="203" x2="203" y1="160" y2="-32"/><line x1="207" x2="207" y1="160" y2="-32"/><line x1="211" x2="211" y1="160" y2="-32"/><line x1="215" x2="215" y1="160" y2="-32"/><line x1="219" x2="219" y1="160" y2="-32"/><line x1="223" x2="223" y1="160" y2="-32"/><line x1="227" x2="227" y1="160" y2="-32"/><line x1="231" x2="231" y1="160" y2="-32"/><line x1="235" x2="235" y1="160" y2="-32"/><line x1="239" x2="239" y1="160" y2="-32"/><line x1="243" x2="243" y1="160" y2="-32"/><line x1="247" x2="247" y1="160" y2="-32"/><line x1="251" x2="251" y1="160" y2="-32"/><line x1="255" x2="255" y1="160" y2="-32"/><line x1="259" x2="259" y1="160" y2="-32"/><line x1="263" x2="263" y1="160" y2="-32"/><line x1="267" x2="267" y1="160" y2="-32"/><line x1="271" x2="271" y1="160" y2="-32"/><line x1="272" x2="272" y1="166.05" y2="-25.95"/><line x1="279" x2="279" y1="160" y2="-32"/><line x1="283" x2="283" y1="160" y2="-32"/><line x1="287" x2="287" y1="160" y2="-32"/><line x1="291" x2="291" y1="160" y2="-32"/></g><g fill="none" stroke="#000" stroke-miterlimit="10" stroke-width=".25"><line x1="103" x2="295" y1="-28" y2="-28"/><line x1="103" x2="295" y1="-24" y2="-24"/><line x1="103" x2="295" y1="-20" y2="-20"/><line x1="103" x2="295" y1="-16" y2="-16"/><line x1="103" x2="295" y1="-12" y2="-12"/><line x1="103" x2="295" y1="-8" y2="-8"/><line x1="103" x2="295" y1="-4" y2="-4"/><line x1="103" x2="295"/><line x1="103" x2="295" y1="4" y2="4"/><line x1="103" x2="295" y1="8" y2="8"/><line x1="103" x2="295" y1="12" y2="12"/><line x1="103" x2="295" y1="16" y2="16"/><line x1="103" x2="295" y1="20" y2="20"/><line x1="103" x2="295" y1="24" y2="24"/><line x1="103" x2="295" y1="28" y2="28"/><line x1="103" x2="295" y1="32" y2="32"/><line x1="103" x2="295" y1="36" y2="36"/><line x1="103" x2="295" y1="40" y2="40"/><line x1="103" x2="295" y1="44" y2="44"/><line x1="103" x2="295" y1="48" y2="48"/><line x1="103" x2="295" y1="52" y2="52"/><line x1="103" x2="295" y1="56" y2="56"/><line x1="103" x2="295" y1="60" y2="60"/><line x1="103" x2="295" y1="64" y2="64"/><line x1="103" x2="295" y1="68" y2="68"/><line x1="103" x2="295" y1="72" y2="72"/><line x1="103" x2="295" y1="76" y2="76"/><line x1="103" x2="295" y1="80" y2="80"/><line x1="103" x2="295" y1="84" y2="84"/><line x1="103" x2="295" y1="88" y2="88"/><line x1="103" x2="295" y1="92" y2="92"/><line x1="103" x2="295" y1="96" y2="96"/><line x1="103" x2="295" y1="100" y2="100"/><line x1="103" x2="295" y1="104" y2="104"/><line x1="103" x2="295" y1="108" y2="108"/><line x1="103" x2="295" y1="112" y2="112"/><line x1="103" x2="295" y1="116" y2="116"/><line x1="103" x2="295" y1="120" y2="120"/><line x1="103" x2="295" y1="124" y2="124"/><line x1="103" x2="295" y1="128" y2="128"/><line x1="103" x2="295" y1="132" y2="132"/><line x1="103" x2="295" y1="136" y2="136"/><line x1="103" x2="295" y1="140" y2="140"/><line x1="103" x2="295" y1="144" y2="144"/><line x1="103" x2="295" y1="148" y2="148"/><line x1="103" x2="295" y1="152" y2="152"/><line x1="103" x2="295" y1="156" y2="156"/></g><path d="m294.75-31.75v191.5h-191.5v-191.5h191.5m0.25-0.25h-192v192h192v-192z"/></g></g><g fill="#F44336"><rect x="135" width="4" height="128" opacity=".3"/><rect x="259" width="4" height="128" opacity=".3"/><rect transform="matrix(-1.837e-16 1 -1 -1.837e-16 201 -197)" x="197" y="-58" width="4" height="120" opacity=".3"/><rect transform="matrix(-1.837e-16 1 -1 -1.837e-16 325 -73)" x="197" y="66" width="4" height="120" opacity=".3"/></g></g></g></svg>
