<svg width="128" height="128" style="enable-background:new 0 0 128 128;" xmlns="http://www.w3.org/2000/svg" xmlns:xlink="http://www.w3.org/1999/xlink">
  <g id="图层_1">
    <g>
      <g>
        <polygon id="XMLID_127_" points="31.67,37.31 30.61,44.97 54.76,49.53 56.15,39.75 " style="fill:#201284;"/>
        <ellipse id="XMLID_126_" cx="31.15" cy="41.11" rx="3.92" ry="3.92" style="fill:#04846C;" transform="matrix(0.7668 -0.6419 0.6419 0.7668 -19.1251 29.5796)"/>
        <path d="M59.43,45.25c-0.43,2.84-3.16,4.51-5.27,4.19c-2.11-0.32-3.4-3.35-3.07-5.46 c0.32-2.11,2.46-4.62,4.57-4.29C57.76,40,59.88,42.31,59.43,45.25z" style="fill:#16A7DA;"/>
      </g>
      <g>
        <path d="M46.71,60.35c6.15-1.06,12.01,3.06,13.07,9.22c1.06,6.15-3.06,12.01-9.22,13.07 S40.55,61.42,46.71,60.35z" style="fill:#444444;"/>
        <g>
          <path d="M54.64,97.91c-1.14-0.41-2.08-1.08-2.78-1.97c-0.5-0.64-0.86-1.36-1.07-2.13L42.4,68.16 c1.02-2.69,3.08-6.92,4.45-7.32c1.25-0.36,2.44-0.55,3.54-0.55c2.84,0,5.12,1.19,6.78,3.52c2.39,3.37,2.7,8.15,1.99,10.16 c-0.03,0.08-0.03,0.16-0.02,0.23l1.58,11.19c0.21,1.49,0.96,2.84,2.11,3.8l16.39,13.77l-3.25,6.2L54.64,97.91z" style="fill:#444444;"/>
          <path d="M50.39,60.79c2.67,0,4.81,1.11,6.37,3.31c2.3,3.24,2.6,7.8,1.93,9.71 c-0.05,0.15-0.07,0.31-0.05,0.47l1.58,11.18c0.23,1.61,1.04,3.07,2.28,4.12l16.08,13.51l-2.83,5.4L54.87,97.47 c-0.04-0.02-0.09-0.04-0.13-0.06c-0.98-0.35-1.84-0.97-2.48-1.78c-0.46-0.59-0.79-1.24-0.98-1.96c0-0.02-0.01-0.03-0.01-0.05 l-8.33-25.46c1.21-3.15,3.09-6.57,4.06-6.86C48.19,60.96,49.34,60.79,50.39,60.79 M50.39,59.79c-1.11,0-2.34,0.18-3.68,0.57 c-2.17,0.63-4.84,7.79-4.84,7.79l8.44,25.79c0.22,0.82,0.61,1.6,1.16,2.31c0.79,1,1.82,1.71,2.94,2.11l21.76,11.49l3.67-7 L63.14,88.82c-1.05-0.89-1.74-2.13-1.93-3.49l-1.58-11.18C60.91,70.48,59.06,59.79,50.39,59.79L50.39,59.79z" style="fill:#2D2E30;"/>
        </g>
        <g>
          <path d="M74.45,117.5c-0.11,0-0.21-0.03-0.3-0.09l-1.09-0.74c-1.24-0.85-1.83-2.36-1.5-3.83l1.86-6.52 l3.9-5.75c0.21-0.02,0.54-0.04,0.95-0.04c0.95,0,2.27,0.12,3.12,0.7l2.42,1.63c0.15,0.1,0.26,0.26,0.29,0.44 c0.04,0.18,0,0.37-0.11,0.52l-9.1,13.45C74.8,117.42,74.63,117.5,74.45,117.5z" style="fill:#325599;"/>
          <path d="M78.27,101.02c1.25,0,2.26,0.22,2.84,0.62l2.42,1.63c0.06,0.04,0.07,0.09,0.08,0.12 c0.01,0.04,0.01,0.09-0.03,0.15l-9.1,13.45l0.83,0.56L74.43,117l-1.09-0.74c-1.06-0.73-1.57-2.02-1.3-3.28l1.83-6.44l3.72-5.49 C77.78,101.03,78.01,101.02,78.27,101.02 M78.27,100.02c-0.72,0-1.23,0.07-1.23,0.07l-4.08,6.02l-1.88,6.63 c-0.37,1.66,0.3,3.38,1.7,4.35l1.09,0.74c0.18,0.12,0.38,0.18,0.59,0.18c0.33,0,0.66-0.16,0.86-0.46l9.1-13.45 c0.37-0.55,0.23-1.29-0.32-1.66l-2.42-1.63C80.71,100.15,79.29,100.02,78.27,100.02L78.27,100.02z" style="fill:#224487;"/>
        </g>
      </g>
      <path d="M45,54.87c6.22-0.54,11.71,4.06,12.25,10.28c0.54,6.22-4.06,11.71-10.28,12.25 S38.78,55.42,45,54.87z" style="fill:#616161;"/>
      <path d="M37.13,37.86 l4.53-8.74l-6.84-3.6l-5.85,11.29c-0.81,1.56-0.81,3.42,0,4.98l0,0c1.04,2.01,2.95,3.43,5.17,3.85l20.62,3.89l1.38-9.78 L37.13,37.86z" style="fill:#04846C;stroke:#007861;stroke-linecap:round;stroke-linejoin:round;stroke-miterlimit:10;"/>
      <g>
        <path d="M36.3,95.47c-0.48-3.62-0.34-7.26,0.42-10.83l4.62-21.74l15.26,4.15 c-0.24,1.22-1.02,4.67-2.5,6.23l-0.28,0.39c-0.03,0.04-0.05,0.08-0.06,0.13L47.5,92.78c-0.03,0.07-0.04,0.08-1.88,24.42 l-6.43,0.02L36.3,95.47z" style="fill:#616161;"/>
        <path d="M41.71,63.53l14.3,3.89c-0.35,1.62-1.12,4.3-2.28,5.53c-0.03,0.04-0.07,0.08-0.09,0.12l-0.23,0.33 c-0.05,0.08-0.1,0.17-0.13,0.26l-6.26,18.98l0,0c-0.07,0.32-0.22,2.29-1.87,24.08l-5.53,0.02L36.79,95.4 c-0.47-3.56-0.33-7.14,0.41-10.66L41.71,63.53 M40.95,62.28l-4.72,22.26c-0.77,3.61-0.91,7.33-0.42,11l2.95,22.18l7.33-0.02 c0,0,1.87-24.72,1.89-24.76l0,0l6.26-18.98l0.23-0.33c1.93-2.05,2.71-6.93,2.71-6.93L40.95,62.28L40.95,62.28z" style="fill:#4F4F4F;"/>
      </g>
      <g>
        <g id="XMLID_122_">
          <path id="XMLID_124_" d="M74,24.13c0,0,1.64,0.77,1.13,2.62c-0.45,1.63-1.88,1.93-3.13,1.59l1.21-4.43 L74,24.13z" style="fill:#E49500;"/>
          <path id="XMLID_123_" d="M55.25,18.99c0,0-1.8-0.17-2.31,1.68c-0.45,1.63,0.63,2.62,1.88,2.97l1.21-4.43 L55.25,18.99z" style="fill:#E49500;"/>
        </g>
        <g id="XMLID_117_">
          <g id="XMLID_120_">
            <path d="M72.9,27.97c-0.09,0-0.19,0-0.28-0.02l0.94-3.42l0.31,0.08c0.04,0.03,1.16,0.62,0.78,2.01 C74.34,27.74,73.53,27.97,72.9,27.97z" style="fill:#E49500;"/>
            <path d="M73.88,25.26c0.23,0.23,0.45,0.62,0.29,1.23c-0.1,0.35-0.29,0.81-0.88,0.94L73.88,25.26 M73.21,23.92L72,28.34c0.3,0.08,0.6,0.13,0.91,0.13c0.97,0,1.89-0.47,2.23-1.72C75.64,24.9,74,24.13,74,24.13L73.21,23.92 L73.21,23.92z" style="fill:#D17A00;"/>
          </g>
          <g id="XMLID_118_">
            <path d="M54.49,22.98c-0.61-0.28-1.41-0.91-1.06-2.18c0.33-1.19,1.3-1.31,1.7-1.31l0.3,0.08L54.49,22.98 z" style="fill:#E49500;"/>
            <path d="M54.78,20.02l-0.59,2.17c-0.05-0.05-0.1-0.1-0.14-0.16c-0.22-0.29-0.26-0.65-0.14-1.1 C54.07,20.35,54.42,20.11,54.78,20.02 M55.13,18.98c-0.41,0-1.76,0.12-2.19,1.68c-0.45,1.63,0.63,2.62,1.88,2.97l1.21-4.43 l-0.79-0.22C55.25,18.99,55.21,18.98,55.13,18.98L55.13,18.98z" style="fill:#D17A00;"/>
          </g>
        </g>
        <polygon id="XMLID_116_" points=" 67.94,28.75 64.32,38.81 56.31,36.97 60.73,16.18 " style="fill:#E59600;stroke:#D18100;stroke-linecap:round;stroke-linejoin:round;stroke-miterlimit:10;"/>
        <linearGradient id="XMLID_2_" gradientUnits="userSpaceOnUse" x1="53.7182" x2="75.2011" y1="21.5863" y2="21.5863">
          <stop offset="0" style="stop-color:#EDA600"/>
          <stop offset="0.8708" style="stop-color:#D18900"/>
        </linearGradient>
        <path id="XMLID_115_" d="M67.95,9.44 c-7.41-2.03-10.92,3.18-13.14,11.25c-2.3,8.37,2.49,12.01,6.46,13.1c3.91,1.07,9.92,0.46,12.24-7.96 C75.73,17.75,75.36,11.47,67.95,9.44z" style="fill:#FBC11B;stroke:url(#XMLID_2_);stroke-miterlimit:10;"/>
        <radialGradient id="XMLID_3_" cx="65.3473" cy="20.0152" gradientUnits="userSpaceOnUse" r="11.8774">
          <stop offset="0" style="stop-color:#6D4C41"/>
          <stop offset="1" style="stop-color:#543930"/>
        </radialGradient>
        <path id="XMLID_49_" d="M68.53,31.54 c0.99-1.86,2.9-3.29,4.65-4.58l1.15-2.6c0,0,0.25,0.19,0.44,0.45c0.18,0.25,0.28,0.41,0.28,0.41s0.66-2.38,1.55-5.62 c0.92-3.34-0.17-8.81-8.13-11.16c0,0-0.14-0.04-0.21-0.06c-0.06-0.02-0.21-0.05-0.21-0.05c-8.04-2.04-11.77,2.11-12.68,5.44 c-0.89,3.24-1.54,5.62-1.54,5.62s0.16-0.1,0.45-0.22c0.3-0.13,0.61-0.16,0.61-0.16l-0.34,2.82c0.95,0.98,1.57,2.63,1.56,5.49 C55.87,30.86,66.54,33.58,68.53,31.54z" style="fill:url(#XMLID_3_);stroke:#402821;stroke-miterlimit:10;"/>
      </g>
      <radialGradient id="SVGID_1_" cx="53.4717" cy="52.5121" gradientUnits="userSpaceOnUse" r="16.9392">
        <stop offset="0.3637" style="stop-color:#00BFA5"/>
        <stop offset="0.8121" style="stop-color:#00B29A"/>
        <stop offset="1" style="stop-color:#00AB94"/>
      </radialGradient>
      <path d=" M42.83,70.44c-2.41-0.72-3.79-3.27-3.06-5.68c2.3-8.67,5.48-18.5,9.54-25.81c1.29-3.17,5.26-7.04,9.06-5.67l5.96,1.93 c2.58,0.91,3.85,6.4,2.48,9.76c-3.22,7.6-4.56,15.22-5.53,24.45C60.49,73.93,46.59,71.42,42.83,70.44z" style="fill:url(#SVGID_1_);stroke:#009984;stroke-linecap:round;stroke-linejoin:round;stroke-miterlimit:10;"/>
      <path d="M67.63,43.98l-15.42-9.69c0,0,2.75-1.86,3.68-1.81c0.94,0.05,11.75,7.16,12.05,7.56 C68.25,40.43,67.63,43.98,67.63,43.98z" style="opacity:0.4;fill:#212121;"/>
      <g>
        <path d="M67.8,42.9l-14.42-9.42c0,0,1.56-1.01,2.49-0.96c0.94,0.05,12.09,8.99,12.09,8.99 L67.8,42.9z" style="opacity:0.4;fill:#212121;"/>
        <polygon points="95.21,60.52 96.38,58.81 33.43,15.76 32.25,17.46 " style="fill:#7C7D7D;"/>
        <path d="M44.67,26.53l1.73-2.51L31.23,13.61c-0.69-0.47-1.64-0.3-2.11,0.39v0 c-0.48,0.69-0.3,1.65,0.39,2.12L44.67,26.53z" style="fill:#2E2F2F;"/>
        <path d="M96.43,58.74L96.43,58.74c0,0,4.66,2.6,5.18,3.72c0.38,0.83,0.45,3.77,0.24,5.65 c-0.2,1.89-1.1,2.29-1.1,2.29s-1.58,1.05-3.28,1.32c-1.71,0.27-1.79-1.27-1.79-1.27s-0.35-2.81-0.18-3.73 c0.17-0.92,0.83-2.61,1.76-3.75c0.42-0.51-0.26-0.95-0.26-0.95l-1.86-1.42L96.43,58.74z" style="fill:#2E2F2F;"/>
      </g>
      <linearGradient id="SVGID_2_" gradientUnits="userSpaceOnUse" x1="38.8624" x2="44.2696" y1="20.4043" y2="20.4043">
        <stop offset="0" style="stop-color:#FFB300"/>
        <stop offset="1" style="stop-color:#FFCA28"/>
      </linearGradient>
      <linearGradient id="SVGID_3_" gradientUnits="userSpaceOnUse" x1="38.3624" x2="44.7696" y1="20.4043" y2="20.4043">
        <stop offset="0" style="stop-color:#EDA600"/>
        <stop offset="0.8708" style="stop-color:#D18900"/>
      </linearGradient>
      <path d=" M41.4,22.09l-2.53-1.57l1.42-2.31c0,0,3.62,1.62,3.92,2.21c0.29,0.58-0.38,1.38-0.38,1.38C42.95,23.08,42.2,22.58,41.4,22.09z" style="fill:url(#SVGID_2_);stroke:url(#SVGID_3_);stroke-linecap:round;stroke-linejoin:round;stroke-miterlimit:10;"/>
      <g>
        <path d="M30.16,123.5c-0.17,0-0.33-0.07-0.44-0.18c-0.12-0.12-0.18-0.28-0.18-0.44l0-1.42 c0.01-1.64,1.01-3.09,2.53-3.69l6.96-2.3h7.53c0.46,0.57,1.9,2.46,1.9,4.08l0,3.15c0,0.21-0.08,0.41-0.23,0.56 c-0.15,0.15-0.35,0.23-0.56,0.23L30.16,123.5L30.16,123.5z" style="fill:#4568AD;"/>
        <path d="M46.32,115.97c0.63,0.8,1.64,2.35,1.64,3.58l0,3.15c0,0.1-0.05,0.17-0.08,0.2 c-0.04,0.04-0.11,0.08-0.2,0.08L30.16,123c-0.03,0-0.06-0.01-0.09-0.04c-0.02-0.02-0.04-0.05-0.04-0.09l0.01-1.42 c0.01-1.43,0.87-2.69,2.19-3.22l6.88-2.27H46.32 M46.79,114.97h-7.84l-7.06,2.33c-1.71,0.67-2.84,2.32-2.85,4.15l-0.01,1.42 c0,0.62,0.5,1.13,1.12,1.13c0,0,0,0,0,0l17.51-0.02c0.71,0,1.29-0.58,1.29-1.29l0-3.15C48.96,117.4,46.79,114.97,46.79,114.97 L46.79,114.97z" style="fill:#315499;"/>
      </g>
      <path d="M96.43,58.74L96.43,58.74c0,0,4.66,2.6,5.18,3.72c0.38,0.83,0.45,3.77,0.24,5.65 c-0.2,1.89-1.1,2.29-1.1,2.29s-1.58,1.05-3.28,1.32c-1.71,0.27-1.79-1.27-1.79-1.27s-0.35-2.81-0.18-3.73 c0.17-0.92,0.83-2.61,1.76-3.75c0.42-0.51-0.26-0.95-0.26-0.95l-1.86-1.42L96.43,58.74z" style="fill:#444444;"/>
      <polygon points="95.21,60.52 96.38,58.81 33.43,15.76 32.25,17.46 " style="fill:#7C7D7D;"/>
      <path d="M44.67,26.53l1.73-2.51L31.23,13.61c-0.69-0.47-1.64-0.3-2.11,0.39v0 c-0.48,0.69-0.3,1.65,0.39,2.12L44.67,26.53z" style="fill:#444444;"/>
      <path d="M97.08,72.25c-0.48,0-0.88-0.13-1.21-0.4c-0.63-0.51-0.69-1.29-0.69-1.38 c-0.03-0.26-0.35-2.88-0.17-3.85c0.2-1.06,0.91-2.81,1.86-3.97c0.02-0.07-0.07-0.16-0.15-0.21L45.07,26.83 c-0.16,0.21-0.46,0.26-0.68,0.11l-15.17-10.4c-0.52-0.36-0.84-0.92-0.88-1.55c-0.04-0.63,0.21-1.23,0.69-1.66 c0.67-0.6,1.74-0.64,2.52-0.1l15.13,10.37c0.11,0.08,0.18,0.19,0.21,0.32c0.02,0.13,0,0.27-0.08,0.38l0,0l53.71,36.62 c1.15,0.78,1.85,2.08,1.89,3.46l0,0c0.05,1.67,0.02,2.94-0.07,3.77c-0.22,2.11-1.28,2.64-1.4,2.69c0,0.01-1.61,1.07-3.41,1.36 C97.39,72.24,97.23,72.25,97.08,72.25z M44.94,25.64c0.1,0,0.2,0.03,0.28,0.09l52.06,35.88c0.07,0.05,0.52,0.35,0.6,0.86 c0.03,0.2,0.02,0.5-0.24,0.82c-0.89,1.09-1.5,2.71-1.65,3.52c-0.13,0.69,0.09,2.82,0.19,3.58c0,0.04,0.04,0.46,0.33,0.7 c0.2,0.16,0.5,0.21,0.88,0.14c1.58-0.25,3.07-1.23,3.09-1.24c0.07-0.04,0.72-0.4,0.88-1.93c0.08-0.78,0.1-2.03,0.06-3.64l0,0 c-0.03-1.06-0.57-2.06-1.46-2.66l-54.13-36.9c-0.11-0.08-0.19-0.19-0.21-0.32s0-0.27,0.08-0.38l0,0L30.99,14.06 c-0.41-0.28-0.96-0.27-1.29,0.03c-0.25,0.22-0.38,0.52-0.36,0.85c0.02,0.32,0.18,0.6,0.44,0.78l14.76,10.12 C44.64,25.71,44.79,25.64,44.94,25.64z" style="fill:#2D3030;"/>
      <path d="M44.79,25.2c0,0-1.13,0.2-2.17,0.79c-0.31,0.18-1.16,2.56-1.32,2.65c-0.38,0.22-2.15-1.01-2.29-1.5 l0.08-2.12l3.08-1.38c0.48-0.14,2.02-0.51,2.47-0.26C45.56,23.88,45.27,25.06,44.79,25.2z" style="fill:#FFB300;"/>
      <linearGradient id="SVGID_4_" gradientUnits="userSpaceOnUse" x1="39.8263" x2="37.4513" y1="16.9056" y2="21.1556">
        <stop offset="0" style="stop-color:#FFCA28"/>
        <stop offset="1" style="stop-color:#FFB300"/>
      </linearGradient>
      <path d="M43.46,17.93c-0.86-0.74-1.13,0.07-1.69-0.21s-0.29-0.65-0.81-0.85 c-0.85-0.34-1.17,0.21-1.62,0.04c-0.47-0.17-0.23-0.51-0.88-0.65c-0.73-0.16-0.91,0.38-1.42,0.15c-0.5-0.23-0.42-0.42-0.96-0.54 c-0.57-0.13-1,0.01-1.56,0.83c-1.46,2.15-2.13,5.33-2.13,5.33l7.34,3.36c0,0,2.96-3.95,3.49-4.8 C43.73,19.75,44.33,18.68,43.46,17.93z" style="fill:url(#SVGID_4_);"/>
      <path d="M46.16,22.71c0,0-0.56,0.68-0.85,1.55c-0.29,0.87-0.21,1.01-0.7,0.69l-0.45-0.22 c-0.49-0.32-0.56-0.53-0.53-1.07c0.03-0.54,0.54-1.19,0.54-1.19c0.21-0.32,0.51-0.71,0.91-0.79 C45.9,21.53,46.37,22.39,46.16,22.71z" style="fill:#FFB300;"/>
      <g>
        <path d="M45.08,21.68c-0.4,0.07-0.7,0.47-0.91,0.79c0,0-0.32,0.41-0.47,0.85 c-0.58,0.07-1.25,0.23-1.54,0.32l-3.08,1.38L39,27.14c0.14,0.49,1.91,1.72,2.29,1.5c0.16-0.09,1.01-2.48,1.32-2.65 c1.04-0.59,2.17-0.79,2.17-0.79c0.06-0.02,0.12-0.05,0.17-0.1c0.05-0.01,0.09-0.07,0.13-0.16c0.07-0.11,0.11-0.25,0.13-0.39 c0.03-0.08,0.06-0.18,0.09-0.28c0.29-0.87,0.85-1.55,0.85-1.55C46.37,22.39,45.9,21.53,45.08,21.68z" style="fill:#E59600;"/>
        <path d="M41.17,29.16c-0.2,0-0.4-0.07-0.56-0.13c-0.64-0.26-1.92-1.12-2.1-1.76 c-0.01-0.05-0.02-0.1-0.02-0.16l0.08-2.12c0.01-0.19,0.12-0.36,0.3-0.44l3.08-1.38c0.32-0.1,0.86-0.23,1.39-0.31 c0.17-0.37,0.39-0.66,0.42-0.7c0.22-0.35,0.62-0.86,1.22-0.97l0,0c0.58-0.11,1.16,0.13,1.49,0.63c0.26,0.39,0.3,0.85,0.1,1.16 c-0.04,0.05-0.54,0.67-0.8,1.44l-0.09,0.27c-0.02,0.15-0.08,0.34-0.17,0.5c0,0.02-0.08,0.23-0.3,0.34 c-0.09,0.07-0.19,0.12-0.3,0.15c-0.06,0.01-1.12,0.21-2.06,0.74c-0.07,0.11-0.44,0.96-0.63,1.42c-0.4,0.93-0.48,1.11-0.69,1.23 C41.42,29.14,41.3,29.16,41.17,29.16z M39.5,27.04c0.19,0.29,1.07,0.91,1.51,1.08c0.08-0.19,0.2-0.46,0.29-0.67 c0.57-1.33,0.77-1.74,1.06-1.9c0.98-0.55,2.02-0.78,2.27-0.83c0.05-0.1,0.07-0.17,0.08-0.25l0.11-0.37 c0.26-0.76,0.7-1.39,0.87-1.62c-0.02-0.05-0.06-0.14-0.15-0.22c-0.11-0.09-0.23-0.12-0.38-0.09l0,0 c-0.11,0.02-0.3,0.13-0.58,0.57c-0.03,0.04-0.29,0.39-0.41,0.74c-0.06,0.18-0.22,0.31-0.42,0.34c-0.55,0.06-1.19,0.22-1.46,0.3 l-2.73,1.22L39.5,27.04z" style="fill:#D18100;"/>
      </g>
      <ellipse cx="66.64" cy="12.67" rx="8.66" ry="10.64" style="fill:#FFA726;" transform="matrix(0.0682 -0.9977 0.9977 0.0682 49.4583 78.2942)"/>
      <path d="M66.33,5L66.33,5c0.28,0,0.55,0.01,0.83,0.03c2.61,0.18,5,1.16,6.72,2.78 c1.67,1.56,2.51,3.52,2.38,5.52c-0.27,3.93-4.36,7.01-9.31,7.01c-0.28,0-0.55-0.01-0.83-0.03c-5.31-0.36-9.39-4.09-9.1-8.3 C57.29,8.08,61.38,5,66.33,5 M66.33,4c-5.47,0-10,3.42-10.31,7.95c-0.33,4.77,4.16,8.96,10.03,9.37c0.3,0.02,0.6,0.03,0.9,0.03 c5.47,0,10-3.42,10.31-7.95c0.33-4.77-4.16-8.96-10.03-9.37C66.93,4.01,66.63,4,66.33,4L66.33,4z" style="fill:#ED9513;"/>
      <radialGradient id="SVGID_5_" cx="67.102" cy="11.9988" gradientUnits="userSpaceOnUse" r="15.401">
        <stop offset="0.1712" style="stop-color:#FB8C00"/>
        <stop offset="0.5625" style="stop-color:#F67F00"/>
        <stop offset="0.9831" style="stop-color:#EF6C00"/>
      </radialGradient>
      <path d="M74.23,10.83c4.85,5.52,3.59,11.46-0.08,16.19c-3.91,5.05-13.87,3.1-18.13-1.86 s-3.3-11.37,1.28-15.3S69.91,5.91,74.23,10.83z" style="fill:url(#SVGID_5_);"/>
      <path d="M65.36,7.79L65.36,7.79c3.29,0,6.31,1.29,8.29,3.54c5.41,6.15,2.25,12.2-0.12,15.25 c-1.31,1.7-3.57,2.63-6.36,2.63c-3.98,0-8.24-1.84-10.58-4.57c-1.91-2.22-2.77-4.79-2.49-7.44c0.26-2.53,1.57-4.93,3.69-6.75 C59.76,8.76,62.52,7.79,65.36,7.79 M65.36,6.79c-3.01,0-6.01,1-8.22,2.9c-4.67,4.01-5.65,10.54-1.3,15.61 c2.57,3,7.18,4.91,11.34,4.91c2.87,0,5.53-0.91,7.16-3.02c3.74-4.83,5.03-10.89,0.08-16.52C72.08,8.03,68.71,6.79,65.36,6.79 L65.36,6.79z" style="fill:#DB6300;"/>
      <ellipse cx="66.54" cy="13.28" rx="1.21" ry="1.4" style="fill:#BF360C;" transform="matrix(0.1791 -0.9838 0.9838 0.1791 41.554 76.3684)"/>
    </g>
    <linearGradient id="SVGID_6_" gradientUnits="userSpaceOnUse" x1="32.2484" x2="43.9026" y1="21.176" y2="21.176">
      <stop offset="0" style="stop-color:#FFCA28"/>
      <stop offset="1" style="stop-color:#FFB300"/>
    </linearGradient>
    <linearGradient id="SVGID_8_" gradientUnits="userSpaceOnUse" x1="40.5221" x2="35.0648" y1="15.6715" y2="25.4373">
      <stop offset="0" style="stop-color:#EDA600"/>
      <stop offset="0.8708" style="stop-color:#D18900"/>
    </linearGradient>
    <path d=" M43.46,17.93c-0.86-0.74-1.13,0.07-1.69-0.21s-0.29-0.65-0.81-0.85c-0.85-0.34-1.17,0.21-1.62,0.04c-0.47-0.17-0.23-0.51-0.88-0.65 c-0.73-0.16-0.91,0.38-1.42,0.15c-0.5-0.23-0.42-0.42-0.96-0.54c-0.57-0.13-1,0.01-1.56,0.83c-1.46,2.15-2.27,6.59-2.27,6.59 l6.35,3.24c0,0,4.08-5.09,4.61-5.93C43.73,19.75,44.33,18.68,43.46,17.93z" style="fill:url(#SVGID_6_);stroke:url(#SVGID_8_);stroke-linecap:round;stroke-linejoin:round;stroke-miterlimit:10;"/>
    <g>
      <path d="M58.53,40.57c0-2.73-2.08-4.62-4.07-4.9l0-0.04l-0.26,0.01c-0.08-0.01-0.16-0.01-0.24-0.01 c-0.16,0-0.32,0.02-0.48,0.05l-17.89,0.94l3.75-10.51l-7.63-3.52l-5.46,16.89l0,0c-0.5,1.46-0.11,3.13,1.11,4.21 c0.82,0.72,1.86,1.04,2.87,0.96l23.31,0.81c0.13,0.02,0.27,0.04,0.41,0.04c0.07,0,0.15-0.01,0.23-0.01l0.39,0.01l0-0.06 C56.53,45.11,58.53,43.18,58.53,40.57z" style="fill:#04A287;"/>
      <path d="M53.95,46.01c-0.17,0-0.33-0.02-0.5-0.04l-23.24-0.8c-1.14,0.08-2.29-0.3-3.18-1.09 c-1.35-1.18-1.84-3.05-1.26-4.75l5.46-16.88c0.04-0.14,0.14-0.25,0.27-0.3s0.28-0.06,0.41,0l7.63,3.52 c0.24,0.11,0.35,0.38,0.26,0.62l-3.5,9.8l17.14-0.9c0.16-0.04,0.46-0.06,0.74-0.04l0.24-0.01c0.1-0.01,0.21,0.02,0.29,0.08 c2.15,0.4,4.31,2.46,4.31,5.36c0,2.8-2.1,4.87-4.2,5.33c-0.08,0.06-0.18,0.11-0.29,0.1L54.16,46 C54.08,46.01,54.02,46.01,53.95,46.01z M30.2,44.17l23.36,0.8c0.17,0.03,0.28,0.04,0.39,0.04L54.07,45c0.02,0,0.12,0,0.13-0.01 L54.35,45c0.04-0.02,0.08-0.04,0.13-0.04c1.75-0.3,3.55-2.03,3.55-4.38c0-2.44-1.85-4.15-3.64-4.4c-0.03,0-0.07-0.01-0.1-0.02 l-0.07,0c-0.02,0-0.09,0-0.11,0c-0.18-0.01-0.36,0-0.53,0.03l-17.96,0.95c-0.16,0.03-0.33-0.07-0.43-0.2 c-0.1-0.13-0.13-0.31-0.07-0.47l3.6-10.07l-6.71-3.09l-5.29,16.35c-0.45,1.32-0.07,2.77,0.97,3.68 C28.38,43.94,29.26,44.23,30.2,44.17z" style="fill:#008C74;"/>
    </g>
  </g>
  <g id="Layer_2" style="display:none;">
    <g style="display:inline;">
      <g style="opacity:0.6;">
        <circle cx="64" cy="64" r="28" style="opacity:0.61;fill:none;stroke:#000000;stroke-width:0.2625;stroke-miterlimit:10;"/>
        <line style="opacity:0.61;fill:none;stroke:#000000;stroke-width:0.25;stroke-miterlimit:10;" x1="84" x2="84" y1="0" y2="128"/>
        <line style="opacity:0.61;fill:none;stroke:#000000;stroke-width:0.25;stroke-miterlimit:10;" x1="44" x2="44" y1="0" y2="128"/>
        <line style="opacity:0.61;fill:none;stroke:#000000;stroke-width:0.25;stroke-miterlimit:10;" x1="64" x2="64" y1="0" y2="128"/>
        <line style="opacity:0.61;fill:none;stroke:#000000;stroke-width:0.25;stroke-miterlimit:10;" x1="128" x2="0" y1="64" y2="64"/>
        <line style="opacity:0.61;fill:none;stroke:#000000;stroke-width:0.25;stroke-miterlimit:10;" x1="128" x2="0" y1="44" y2="44"/>
        <line style="opacity:0.61;fill:none;stroke:#000000;stroke-width:0.25;stroke-miterlimit:10;" x1="128" x2="0" y1="83.75" y2="83.75"/>
        <line style="opacity:0.61;fill:none;stroke:#000000;stroke-width:0.25;stroke-miterlimit:10;" x1="128" x2="0" y1="128" y2="0"/>
        <line style="opacity:0.61;fill:none;stroke:#000000;stroke-width:0.25;stroke-miterlimit:10;" x1="0" x2="128" y1="128" y2="0"/>
        <g style="opacity:0.61;">
          <path d="M64,4.26c32.94,0,59.74,26.8,59.74,59.74S96.94,123.74,64,123.74S4.26,96.94,4.26,64S31.06,4.26,64,4.26 M64,4 C30.86,4,4,30.86,4,64s26.86,60,60,60s60-26.86,60-60S97.14,4,64,4L64,4z"/>
        </g>
        <path d="M107.97,115.97H20.03 c-4.42,0-8.03-3.61-8.03-8.03V20.03c0-4.42,3.61-8.03,8.03-8.03h87.94c4.42,0,8.03,3.61,8.03,8.03v87.91 C116,112.36,112.39,115.97,107.97,115.97z" style="opacity:0.61;fill:none;stroke:#000000;stroke-width:0.2578;stroke-miterlimit:10;"/>
        <path d="M100,124H28c-4.4,0-8-3.6-8-8 V12c0-4.4,3.6-8,8-8h72c4.4,0,8,3.6,8,8v104C108,120.4,104.4,124,100,124z" style="opacity:0.61;fill:none;stroke:#000000;stroke-width:0.2628;stroke-miterlimit:10;"/>
        <path d="M113.77,108H14.23 C8.6,108,4,103.4,4,97.77V30.28c0-5.63,4.6-10.23,10.23-10.23h99.54c5.63,0,10.23,4.6,10.23,10.23v67.48 C124,103.4,119.4,108,113.77,108z" style="opacity:0.61;fill:none;stroke:#000000;stroke-width:0.2627;stroke-miterlimit:10;"/>
      </g>
      <g>
        <g style="opacity:0.2;">
          <defs>
            <rect id="SVGID_7_" height="128" style="opacity:0.2;" width="128" x="0" y="0"/>
          </defs>
          <clipPath id="SVGID_9_">
            <use style="overflow:visible;" xlink:href="#SVGID_7_"/>
          </clipPath>
          <g style="clip-path:url(#SVGID_9_);">
            <g>
              <line style="fill:none;stroke:#000000;stroke-width:0.25;stroke-miterlimit:10;" x1="-28" x2="-28" y1="160" y2="-32"/>
              <line style="fill:none;stroke:#000000;stroke-width:0.25;stroke-miterlimit:10;" x1="-24" x2="-24" y1="160" y2="-32"/>
              <line style="fill:none;stroke:#000000;stroke-width:0.25;stroke-miterlimit:10;" x1="-20" x2="-20" y1="160" y2="-32"/>
              <line style="fill:none;stroke:#000000;stroke-width:0.25;stroke-miterlimit:10;" x1="-16" x2="-16" y1="160" y2="-32"/>
              <line style="fill:none;stroke:#000000;stroke-width:0.25;stroke-miterlimit:10;" x1="-12" x2="-12" y1="160" y2="-32"/>
              <line style="fill:none;stroke:#000000;stroke-width:0.25;stroke-miterlimit:10;" x1="-8" x2="-8" y1="160" y2="-32"/>
              <line style="fill:none;stroke:#000000;stroke-width:0.25;stroke-miterlimit:10;" x1="-4" x2="-4" y1="160" y2="-32"/>
              <line style="fill:none;stroke:#000000;stroke-width:0.25;stroke-miterlimit:10;" x1="0" x2="0" y1="160" y2="-32"/>
              <line style="fill:none;stroke:#000000;stroke-width:0.25;stroke-miterlimit:10;" x1="4" x2="4" y1="160" y2="-32"/>
              <line style="fill:none;stroke:#000000;stroke-width:0.25;stroke-miterlimit:10;" x1="8" x2="8" y1="160" y2="-32"/>
              <line style="fill:none;stroke:#000000;stroke-width:0.25;stroke-miterlimit:10;" x1="12" x2="12" y1="160" y2="-32"/>
              <line style="fill:none;stroke:#000000;stroke-width:0.25;stroke-miterlimit:10;" x1="16" x2="16" y1="160" y2="-32"/>
              <line style="fill:none;stroke:#000000;stroke-width:0.25;stroke-miterlimit:10;" x1="20" x2="20" y1="160" y2="-32"/>
              <line style="fill:none;stroke:#000000;stroke-width:0.25;stroke-miterlimit:10;" x1="24" x2="24" y1="160" y2="-32"/>
              <line style="fill:none;stroke:#000000;stroke-width:0.25;stroke-miterlimit:10;" x1="28" x2="28" y1="160" y2="-32"/>
              <line style="fill:none;stroke:#000000;stroke-width:0.25;stroke-miterlimit:10;" x1="32" x2="32" y1="160" y2="-32"/>
              <line style="fill:none;stroke:#000000;stroke-width:0.25;stroke-miterlimit:10;" x1="36" x2="36" y1="160" y2="-32"/>
              <line style="fill:none;stroke:#000000;stroke-width:0.25;stroke-miterlimit:10;" x1="40" x2="40" y1="160" y2="-32"/>
              <line style="fill:none;stroke:#000000;stroke-width:0.25;stroke-miterlimit:10;" x1="44" x2="44" y1="160" y2="-32"/>
              <line style="fill:none;stroke:#000000;stroke-width:0.25;stroke-miterlimit:10;" x1="48" x2="48" y1="160" y2="-32"/>
              <line style="fill:none;stroke:#000000;stroke-width:0.25;stroke-miterlimit:10;" x1="52" x2="52" y1="160" y2="-32"/>
              <line style="fill:none;stroke:#000000;stroke-width:0.25;stroke-miterlimit:10;" x1="56" x2="56" y1="160" y2="-32"/>
              <line style="fill:none;stroke:#000000;stroke-width:0.25;stroke-miterlimit:10;" x1="60" x2="60" y1="160" y2="-32"/>
              <line style="fill:none;stroke:#000000;stroke-width:0.25;stroke-miterlimit:10;" x1="64" x2="64" y1="160" y2="-32"/>
              <line style="fill:none;stroke:#000000;stroke-width:0.25;stroke-miterlimit:10;" x1="68" x2="68" y1="160" y2="-32"/>
              <line style="fill:none;stroke:#000000;stroke-width:0.25;stroke-miterlimit:10;" x1="72" x2="72" y1="160" y2="-32"/>
              <line style="fill:none;stroke:#000000;stroke-width:0.25;stroke-miterlimit:10;" x1="76" x2="76" y1="160" y2="-32"/>
              <line style="fill:none;stroke:#000000;stroke-width:0.25;stroke-miterlimit:10;" x1="80" x2="80" y1="160" y2="-32"/>
              <line style="fill:none;stroke:#000000;stroke-width:0.25;stroke-miterlimit:10;" x1="84" x2="84" y1="160" y2="-32"/>
              <line style="fill:none;stroke:#000000;stroke-width:0.25;stroke-miterlimit:10;" x1="88" x2="88" y1="160" y2="-32"/>
              <line style="fill:none;stroke:#000000;stroke-width:0.25;stroke-miterlimit:10;" x1="92" x2="92" y1="160" y2="-32"/>
              <line style="fill:none;stroke:#000000;stroke-width:0.25;stroke-miterlimit:10;" x1="96" x2="96" y1="160" y2="-32"/>
              <line style="fill:none;stroke:#000000;stroke-width:0.25;stroke-miterlimit:10;" x1="100" x2="100" y1="160" y2="-32"/>
              <line style="fill:none;stroke:#000000;stroke-width:0.25;stroke-miterlimit:10;" x1="104" x2="104" y1="160" y2="-32"/>
              <line style="fill:none;stroke:#000000;stroke-width:0.25;stroke-miterlimit:10;" x1="108" x2="108" y1="160" y2="-32"/>
              <line style="fill:none;stroke:#000000;stroke-width:0.25;stroke-miterlimit:10;" x1="112" x2="112" y1="160" y2="-32"/>
              <line style="fill:none;stroke:#000000;stroke-width:0.25;stroke-miterlimit:10;" x1="116" x2="116" y1="160" y2="-32"/>
              <line style="fill:none;stroke:#000000;stroke-width:0.25;stroke-miterlimit:10;" x1="120" x2="120" y1="160" y2="-32"/>
              <line style="fill:none;stroke:#000000;stroke-width:0.25;stroke-miterlimit:10;" x1="124" x2="124" y1="160" y2="-32"/>
              <line style="fill:none;stroke:#000000;stroke-width:0.25;stroke-miterlimit:10;" x1="128" x2="128" y1="160" y2="-32"/>
              <line style="fill:none;stroke:#000000;stroke-width:0.25;stroke-miterlimit:10;" x1="132" x2="132" y1="160" y2="-32"/>
              <line style="fill:none;stroke:#000000;stroke-width:0.25;stroke-miterlimit:10;" x1="136" x2="136" y1="160" y2="-32"/>
              <line style="fill:none;stroke:#000000;stroke-width:0.25;stroke-miterlimit:10;" x1="137" x2="137" y1="166.05" y2="-25.95"/>
              <line style="fill:none;stroke:#000000;stroke-width:0.25;stroke-miterlimit:10;" x1="144" x2="144" y1="160" y2="-32"/>
              <line style="fill:none;stroke:#000000;stroke-width:0.25;stroke-miterlimit:10;" x1="148" x2="148" y1="160" y2="-32"/>
              <line style="fill:none;stroke:#000000;stroke-width:0.25;stroke-miterlimit:10;" x1="152" x2="152" y1="160" y2="-32"/>
              <line style="fill:none;stroke:#000000;stroke-width:0.25;stroke-miterlimit:10;" x1="156" x2="156" y1="160" y2="-32"/>
            </g>
            <g>
              <line style="fill:none;stroke:#000000;stroke-width:0.25;stroke-miterlimit:10;" x1="-32" x2="160" y1="-28" y2="-28"/>
              <line style="fill:none;stroke:#000000;stroke-width:0.25;stroke-miterlimit:10;" x1="-32" x2="160" y1="-24" y2="-24"/>
              <line style="fill:none;stroke:#000000;stroke-width:0.25;stroke-miterlimit:10;" x1="-32" x2="160" y1="-20" y2="-20"/>
              <line style="fill:none;stroke:#000000;stroke-width:0.25;stroke-miterlimit:10;" x1="-32" x2="160" y1="-16" y2="-16"/>
              <line style="fill:none;stroke:#000000;stroke-width:0.25;stroke-miterlimit:10;" x1="-32" x2="160" y1="-12" y2="-12"/>
              <line style="fill:none;stroke:#000000;stroke-width:0.25;stroke-miterlimit:10;" x1="-32" x2="160" y1="-8" y2="-8"/>
              <line style="fill:none;stroke:#000000;stroke-width:0.25;stroke-miterlimit:10;" x1="-32" x2="160" y1="-4" y2="-4"/>
              <line style="fill:none;stroke:#000000;stroke-width:0.25;stroke-miterlimit:10;" x1="-32" x2="160" y1="0" y2="0"/>
              <line style="fill:none;stroke:#000000;stroke-width:0.25;stroke-miterlimit:10;" x1="-32" x2="160" y1="4" y2="4"/>
              <line style="fill:none;stroke:#000000;stroke-width:0.25;stroke-miterlimit:10;" x1="-32" x2="160" y1="8" y2="8"/>
              <line style="fill:none;stroke:#000000;stroke-width:0.25;stroke-miterlimit:10;" x1="-32" x2="160" y1="12" y2="12"/>
              <line style="fill:none;stroke:#000000;stroke-width:0.25;stroke-miterlimit:10;" x1="-32" x2="160" y1="16" y2="16"/>
              <line style="fill:none;stroke:#000000;stroke-width:0.25;stroke-miterlimit:10;" x1="-32" x2="160" y1="20" y2="20"/>
              <line style="fill:none;stroke:#000000;stroke-width:0.25;stroke-miterlimit:10;" x1="-32" x2="160" y1="24" y2="24"/>
              <line style="fill:none;stroke:#000000;stroke-width:0.25;stroke-miterlimit:10;" x1="-32" x2="160" y1="28" y2="28"/>
              <line style="fill:none;stroke:#000000;stroke-width:0.25;stroke-miterlimit:10;" x1="-32" x2="160" y1="32" y2="32"/>
              <line style="fill:none;stroke:#000000;stroke-width:0.25;stroke-miterlimit:10;" x1="-32" x2="160" y1="36" y2="36"/>
              <line style="fill:none;stroke:#000000;stroke-width:0.25;stroke-miterlimit:10;" x1="-32" x2="160" y1="40" y2="40"/>
              <line style="fill:none;stroke:#000000;stroke-width:0.25;stroke-miterlimit:10;" x1="-32" x2="160" y1="44" y2="44"/>
              <line style="fill:none;stroke:#000000;stroke-width:0.25;stroke-miterlimit:10;" x1="-32" x2="160" y1="48" y2="48"/>
              <line style="fill:none;stroke:#000000;stroke-width:0.25;stroke-miterlimit:10;" x1="-32" x2="160" y1="52" y2="52"/>
              <line style="fill:none;stroke:#000000;stroke-width:0.25;stroke-miterlimit:10;" x1="-32" x2="160" y1="56" y2="56"/>
              <line style="fill:none;stroke:#000000;stroke-width:0.25;stroke-miterlimit:10;" x1="-32" x2="160" y1="60" y2="60"/>
              <line style="fill:none;stroke:#000000;stroke-width:0.25;stroke-miterlimit:10;" x1="-32" x2="160" y1="64" y2="64"/>
              <line style="fill:none;stroke:#000000;stroke-width:0.25;stroke-miterlimit:10;" x1="-32" x2="160" y1="68" y2="68"/>
              <line style="fill:none;stroke:#000000;stroke-width:0.25;stroke-miterlimit:10;" x1="-32" x2="160" y1="72" y2="72"/>
              <line style="fill:none;stroke:#000000;stroke-width:0.25;stroke-miterlimit:10;" x1="-32" x2="160" y1="76" y2="76"/>
              <line style="fill:none;stroke:#000000;stroke-width:0.25;stroke-miterlimit:10;" x1="-32" x2="160" y1="80" y2="80"/>
              <line style="fill:none;stroke:#000000;stroke-width:0.25;stroke-miterlimit:10;" x1="-32" x2="160" y1="84" y2="84"/>
              <line style="fill:none;stroke:#000000;stroke-width:0.25;stroke-miterlimit:10;" x1="-32" x2="160" y1="88" y2="88"/>
              <line style="fill:none;stroke:#000000;stroke-width:0.25;stroke-miterlimit:10;" x1="-32" x2="160" y1="92" y2="92"/>
              <line style="fill:none;stroke:#000000;stroke-width:0.25;stroke-miterlimit:10;" x1="-32" x2="160" y1="96" y2="96"/>
              <line style="fill:none;stroke:#000000;stroke-width:0.25;stroke-miterlimit:10;" x1="-32" x2="160" y1="100" y2="100"/>
              <line style="fill:none;stroke:#000000;stroke-width:0.25;stroke-miterlimit:10;" x1="-32" x2="160" y1="104" y2="104"/>
              <line style="fill:none;stroke:#000000;stroke-width:0.25;stroke-miterlimit:10;" x1="-32" x2="160" y1="108" y2="108"/>
              <line style="fill:none;stroke:#000000;stroke-width:0.25;stroke-miterlimit:10;" x1="-32" x2="160" y1="112" y2="112"/>
              <line style="fill:none;stroke:#000000;stroke-width:0.25;stroke-miterlimit:10;" x1="-32" x2="160" y1="116" y2="116"/>
              <line style="fill:none;stroke:#000000;stroke-width:0.25;stroke-miterlimit:10;" x1="-32" x2="160" y1="120" y2="120"/>
              <line style="fill:none;stroke:#000000;stroke-width:0.25;stroke-miterlimit:10;" x1="-32" x2="160" y1="124" y2="124"/>
              <line style="fill:none;stroke:#000000;stroke-width:0.25;stroke-miterlimit:10;" x1="-32" x2="160" y1="128" y2="128"/>
              <line style="fill:none;stroke:#000000;stroke-width:0.25;stroke-miterlimit:10;" x1="-32" x2="160" y1="132" y2="132"/>
              <line style="fill:none;stroke:#000000;stroke-width:0.25;stroke-miterlimit:10;" x1="-32" x2="160" y1="136" y2="136"/>
              <line style="fill:none;stroke:#000000;stroke-width:0.25;stroke-miterlimit:10;" x1="-32" x2="160" y1="140" y2="140"/>
              <line style="fill:none;stroke:#000000;stroke-width:0.25;stroke-miterlimit:10;" x1="-32" x2="160" y1="144" y2="144"/>
              <line style="fill:none;stroke:#000000;stroke-width:0.25;stroke-miterlimit:10;" x1="-32" x2="160" y1="148" y2="148"/>
              <line style="fill:none;stroke:#000000;stroke-width:0.25;stroke-miterlimit:10;" x1="-32" x2="160" y1="152" y2="152"/>
              <line style="fill:none;stroke:#000000;stroke-width:0.25;stroke-miterlimit:10;" x1="-32" x2="160" y1="156" y2="156"/>
            </g>
            <path d="M159.75-31.75v191.5h-191.5v-191.5H159.75 M160-32H-32v192h192V-32L160-32z"/>
          </g>
        </g>
        <g>
          <rect height="128" style="opacity:0.3;fill:#F44336;" width="4" x="0" y="0"/>
          <rect height="128" style="opacity:0.3;fill:#F44336;" width="4" x="124" y="0"/>
          <rect height="120" style="opacity:0.3;fill:#F44336;" transform="matrix(-1.836970e-16 1 -1 -1.836970e-16 65.9999 -61.9999)" width="4" x="62" y="-58"/>
          <rect height="120" style="opacity:0.3;fill:#F44336;" transform="matrix(-1.836970e-16 1 -1 -1.836970e-16 189.9999 62.0001)" width="4" x="62" y="66"/>
        </g>
      </g>
    </g>
  </g>
</svg>