<?xml version="1.0" encoding="utf-8"?>
<!-- Generator: Adobe Illustrator 24.0.3, SVG Export Plug-In . SVG Version: 6.00 Build 0)  -->
<svg version="1.1" id="Layer_1" xmlns="http://www.w3.org/2000/svg" xmlns:xlink="http://www.w3.org/1999/xlink" x="0px" y="0px"
	 viewBox="0 0 128 128" style="enable-background:new 0 0 128 128;" xml:space="preserve">
<g id="hat_x5F_back">
	<g>
		<path style="fill:#E59600;" d="M51.49,63.52c-0.33,0-0.63,0.01-0.93,0.01c-21.7,0-39.04-9.73-44.18-24.8
			c-2.55-7.47-2.2-10.28-1.46-11.31c0.25-0.35,0.75-0.81,2.21-0.81c3.17,0,8.44,2.13,14.54,4.59c8.72,3.52,19.58,7.9,29.76,8.17
			c10.26-0.27,21.11-4.65,29.84-8.17c6.1-2.46,11.37-4.59,14.54-4.59c1.47,0,1.96,0.46,2.21,0.81c0.74,1.04,1.09,3.84-1.46,11.31
			c-5.14,15.06-22.49,24.8-44.18,24.8C52.38,63.53,51.79,63.53,51.49,63.52z"/>
		<g>
			<path style="fill:#D18100;" d="M7.13,25.17l0,2.88c2.89,0,8.29,2.18,14,4.48c8.83,3.56,19.82,8,30.26,8.27c0.03,0,0.05,0,0.08,0
				s0.05,0,0.08,0c10.44-0.28,21.43-4.71,30.26-8.27c5.71-2.31,11.11-4.48,14-4.48c0.59,0,0.97,0.1,1.04,0.2
				c0.12,0.17,1.12,1.9-1.65,10.01C92.68,45.65,87.1,51.78,79.09,56c-7.47,3.93-16.95,6.09-26.7,6.09c-0.29,0-0.58,0-0.87-0.01
				c-0.01,0-0.03,0-0.04,0c-0.01,0-0.03,0-0.04,0c-0.29,0-0.58,0.01-0.87,0.01c-9.75,0-19.23-2.16-26.7-6.09
				c-8.02-4.22-13.59-10.35-16.11-17.73c-2.77-8.1-1.78-9.84-1.65-10.01c0.06-0.08,0.38-0.2,1.04-0.2L7.13,25.17 M95.81,25.17
				c-8.25,0-27.28,12.31-44.34,12.76C34.41,37.48,15.38,25.17,7.13,25.17c-4.38,0-5.72,3.47-2.12,14.03
				c5.89,17.24,25.6,25.77,45.54,25.77c0.3,0,0.61,0,0.91-0.01c0.3,0,0.61,0.01,0.91,0.01c19.95,0,39.66-8.53,45.54-25.77
				C101.53,28.64,100.19,25.17,95.81,25.17L95.81,25.17z"/>
		</g>
	</g>
</g>
<g id="neck">
	<path style="fill:#C48E6A;" d="M50.91,109.1c-3.92,0-7.11-3.47-7.11-7.74v-9.68h15.84v9.68c0,4.27-3.19,7.74-7.11,7.74H50.91z"/>
	<g>
		<path style="fill:#B07853;" d="M58.64,92.68v8.68c0,3.72-2.74,6.74-6.11,6.74h-1.62c-3.37,0-6.11-3.03-6.11-6.74v-8.68h6.92H58.64
			 M60.64,90.68h-8.92H42.8v10.68c0,4.83,3.63,8.74,8.11,8.74h1.62c4.48,0,8.11-3.91,8.11-8.74V90.68L60.64,90.68z"/>
	</g>
</g>
<g id="ears">
	<path style="fill:#C48E6A;" d="M24.63,73.2c-5.25,0-9.52-4.58-9.52-10.21s4.27-10.21,9.52-10.21h53.69c5.25,0,9.52,4.58,9.52,10.21
		S83.56,73.2,78.31,73.2H24.63z"/>
	<g>
		<path style="fill:#B07853;" d="M78.31,53.78c4.7,0,8.52,4.13,8.52,9.21c0,5.08-3.82,9.21-8.52,9.21h-7.24H31.87h-7.24
			c-4.7,0-8.52-4.13-8.52-9.21c0-5.08,3.82-9.21,8.52-9.21h7.24h39.21H78.31 M78.31,51.78h-7.24H31.87h-7.24
			c-5.79,0-10.52,5.04-10.52,11.21c0,6.17,4.74,11.21,10.52,11.21h7.24h39.21h7.24c5.79,0,10.52-5.04,10.52-11.21
			C88.84,56.82,84.1,51.78,78.31,51.78L78.31,51.78z"/>
	</g>
</g>
<g id="head">
	<linearGradient id="SVGID_1_" gradientUnits="userSpaceOnUse" x1="51.4709" y1="95.1409" x2="51.4709" y2="14.8574">
		<stop  offset="0" style="stop-color:#CCA47A"/>
		<stop  offset="0.5" style="stop-color:#E0BB95"/>
	</linearGradient>
	<path style="fill:url(#SVGID_1_);" d="M51.47,95.81c-8.41,0-16.22-3.35-21.97-9.43c-6.52-6.89-9.96-16.8-9.96-28.68
		c0-12.16,3.5-23.36,9.84-31.55c5.94-7.65,13.98-12.04,22.08-12.04s16.15,4.39,22.08,12.04c6.35,8.18,9.84,19.39,9.84,31.55
		c0,11.87-3.44,21.79-9.96,28.68C67.69,92.46,59.89,95.81,51.47,95.81z"/>
	<g>
		<path style="fill:#BA8F63;" d="M51.47,15.11L51.47,15.11c7.79,0,15.55,4.25,21.29,11.66c6.21,8.01,9.63,19,9.63,30.94
			c0,11.61-3.35,21.29-9.69,27.99c-5.56,5.88-13.1,9.11-21.24,9.11c-8.14,0-15.68-3.24-21.24-9.11c-6.34-6.7-9.69-16.38-9.69-27.99
			c0-11.94,3.42-22.93,9.63-30.94C35.92,19.36,43.68,15.11,51.47,15.11 M51.47,13.11L51.47,13.11L51.47,13.11
			c-17.1,0-32.93,18.28-32.93,44.59c0,26.17,16.31,39.1,32.93,39.1c16.61,0,32.93-12.94,32.93-39.1
			C84.4,31.39,68.57,13.11,51.47,13.11L51.47,13.11z"/>
	</g>
</g>
<g id="eyebrows">
	<path style="fill:#AB872F;" d="M28.67,51.84c2.96-4.19,9.68-4.58,13.53-1.47c0.61,0.49,1.42,1.19,1.67,1.96
		c0.39,1.26-0.81,2.24-1.99,1.94c-0.75-0.19-1.45-0.59-2.2-0.82c-1.35-0.43-2.33-0.54-3.55-0.55c-1.8-0.01-2.96,0.22-4.67,0.91
		c-0.7,0.29-1.28,0.74-2.08,0.41C28.46,53.84,28.12,52.67,28.67,51.84z"/>
	<path style="fill:#AB872F;" d="M72.31,54.22c-0.29-0.12-0.56-0.29-0.85-0.41c-1.76-0.74-2.76-0.92-4.67-0.91
		c-1.68,0.01-2.69,0.24-3.99,0.69c-0.81,0.28-1.82,0.97-2.71,0.7c-1.3-0.4-1.26-1.82-0.55-2.73c0.85-1.07,2.01-1.88,3.26-2.42
		c2.87-1.24,6.38-1.07,9.08,0.54c0.89,0.53,1.84,1.25,2.38,2.16C75.01,53.13,73.84,54.84,72.31,54.22z"/>
</g>
<g id="eyes">
	<ellipse style="fill:#5D4037;" cx="36.17" cy="60.01" rx="4.84" ry="5.01"/>
	<ellipse style="fill:#5D4037;" cx="66.77" cy="60.01" rx="4.84" ry="5.01"/>
</g>
<path id="mouth" style="fill:#6D4C41;" d="M59.85,77.04c-3.13,1.86-13.39,1.86-16.52,0c-1.8-1.07-3.63,0.57-2.89,2.2
	c0.73,1.6,6.33,5.33,11.17,5.33s10.36-3.72,11.1-5.33C63.46,77.6,61.65,75.97,59.85,77.04z"/>
<path id="nose" style="fill:#C48E6A;" d="M55.26,69.09c-0.1-0.04-0.21-0.07-0.32-0.08H48c-0.11,0.01-0.21,0.04-0.32,0.08
	C47.05,69.35,46.7,70,47,70.7c0.3,0.69,1.68,2.65,4.47,2.65c2.79,0,4.17-1.95,4.47-2.65C56.24,70,55.89,69.35,55.26,69.09z"/>
<g id="hair">
	<radialGradient id="SVGID_2_" cx="52.0201" cy="27.1058" r="36.4312" gradientUnits="userSpaceOnUse">
		<stop  offset="0" style="stop-color:#BFA055"/>
		<stop  offset="1" style="stop-color:#AB872F"/>
	</radialGradient>
	<path style="fill:url(#SVGID_2_);" d="M51.79,29.17c-13.44-0.23-26.61-1.46-33.63-2.22c-5.07,14.1-2.26,29.81-2.26,29.81
		s5.06,8.92,5.06,8.74c-0.16-7.19,2.72-19.93,4.76-25.35c1.03-2.73,3.87-4.33,6.74-3.8c4.42,0.8,11.46,1.79,19.22,1.79
		c0.03,0,0.06,0,0.08,0c0.03,0,0.06,0,0.08,0c7.76,0,14.8-0.99,19.22-1.79c2.87-0.52,5.71,1.07,6.74,3.8
		c2.04,5.42,4.92,18.16,4.76,25.35c0,0.18,5.06-8.74,5.06-8.74s2.8-15.64-2.23-29.72C78.65,27.94,65.5,29.4,51.79,29.17z"/>
	<path style="fill:#8F7635;" d="M85.4,27.04H18.96c-0.27-0.03-0.55-0.06-0.8-0.08c-5.07,14.1-2.26,29.81-2.26,29.81
		s4.96,8.74,5.06,8.74c0,0,0,0,0,0c-0.03-1.47,0.07-3.17,0.26-4.99c-0.12-0.29-2.44-4.71-2.46-4.75c-0.24-1.58-0.92-6.93-0.55-13.46
		c0.22-3.84,0.86-8.55,2.37-13.2h62.36c3.76,11.54,2.21,24.09,1.82,26.66c-0.02,0.04-2.44,4.55-2.47,4.61
		c0.2,1.87,0.3,3.62,0.27,5.13c0,0,0,0,0,0c0.09,0,5.06-8.74,5.06-8.74S90.43,41.12,85.4,27.04z"/>
</g>
<g id="farmer_x5F_overall">
	<linearGradient id="SVGID_3_" gradientUnits="userSpaceOnUse" x1="51.7198" y1="98.0191" x2="51.7198" y2="124">
		<stop  offset="0.1279" style="stop-color:#9CCC65"/>
		<stop  offset="0.3998" style="stop-color:#99C962"/>
		<stop  offset="0.6207" style="stop-color:#8FC059"/>
		<stop  offset="0.823" style="stop-color:#7EB24B"/>
		<stop  offset="1" style="stop-color:#689F38"/>
	</linearGradient>
	<path style="fill:url(#SVGID_3_);" d="M95.73,120.81c0-17.79-25.56-21.89-34.66-22.78l-7.67,10.54l-3.33,0l-7.55-10.56
		c-9.85,0.93-18.23,3.27-24.28,6.78c-6.98,4.05-10.51,9.44-10.51,16.01V124h88.02V120.81z"/>
	<path style="fill:#74B534;" d="M9.1,120.81c0-6.04,3.3-11.03,9.82-14.81c5.72-3.32,13.62-5.56,22.92-6.52l6.5,9.09h6.76l6.61-9.08
		c9.28,0.97,17.15,3.22,22.84,6.54c6.49,3.78,9.78,8.75,9.78,14.78V124h2.78v-3.19c0-15.19-17.51-22.56-36.71-24.24l-8.69,11.93
		l-8.55-11.94c-19.26,1.66-36.85,9.02-36.85,24.25V124H9.1V120.81z"/>
	<g>
		<linearGradient id="SVGID_4_" gradientUnits="userSpaceOnUse" x1="51.7905" y1="114.1656" x2="51.7905" y2="124">
			<stop  offset="0" style="stop-color:#1E88E5"/>
			<stop  offset="1" style="stop-color:#1565C0"/>
		</linearGradient>
		<polygon style="fill:url(#SVGID_4_);" points="83.64,120.08 76.47,114.56 76.72,114.17 50.73,114.66 26.86,114.17 27.11,114.56 
			19.95,120.08 19.77,124 83.81,124 		"/>
		<linearGradient id="SVGID_5_" gradientUnits="userSpaceOnUse" x1="75.2473" y1="98.5506" x2="75.2473" y2="113.8768">
			<stop  offset="0" style="stop-color:#1E88E5"/>
			<stop  offset="1" style="stop-color:#1565C0"/>
		</linearGradient>
		<polygon style="fill:url(#SVGID_5_);" points="80.69,108.01 77.4,99.8 69.92,98.55 69.8,107.13 76.91,113.88 		"/>
		<linearGradient id="SVGID_6_" gradientUnits="userSpaceOnUse" x1="28.3338" y1="98.5506" x2="28.3338" y2="113.8759">
			<stop  offset="0" style="stop-color:#1E88E5"/>
			<stop  offset="1" style="stop-color:#1565C0"/>
		</linearGradient>
		<polygon style="fill:url(#SVGID_6_);" points="33.78,107.13 33.66,98.55 26.18,99.8 22.89,108.01 26.67,113.88 		"/>
		<g>
			<path style="fill:#0D47A1;" d="M20.91,120.58l6.09-4.69l0.94-0.72l0.81,0.02l21.96,0.45l0.04,0l0.04,0l24.04-0.46l0.82-0.02
				l0.94,0.72l6.09,4.69l0.15,3.42h1.97l-0.2-4.42l-6.81-5.25l4.01-6.21l-3.68-9.2l-9.16-1.52l-0.14,10.15l5.98,5.67l-24.04,0.46
				l-21.96-0.45l5.98-5.68l-0.14-10.15l-9.16,1.52l-3.68,9.2l4.01,6.21l-6.81,5.25l-0.2,4.42h1.97L20.91,120.58z M70.79,106.71
				l0.1-7.01l5.81,0.97l2.9,7.23l-2.87,4.44l-0.58-0.55L70.79,106.71z M23.99,107.91l2.9-7.23l5.81-0.97l0.1,7.01l-5.36,5.08
				l-0.58,0.55L23.99,107.91z"/>
		</g>
	</g>
	<g>
		<path style="fill:#BDBDBD;" d="M78.62,115.65c-0.1,0-0.2-0.01-0.29-0.03l-5.17-0.98c-0.41-0.08-0.77-0.31-1-0.66
			c-0.24-0.34-0.32-0.76-0.25-1.17c0.14-0.74,0.79-1.28,1.54-1.28c0.1,0,0.2,0.01,0.29,0.03l5.17,0.98
			c0.85,0.16,1.41,0.98,1.25,1.83C80.01,115.11,79.37,115.65,78.62,115.65L78.62,115.65z"/>
		<path style="fill:#78909C;" d="M73.44,112.52c0.04,0,0.07,0,0.11,0.01l5.17,0.98c0.2,0.04,0.31,0.15,0.37,0.24
			c0.06,0.09,0.13,0.24,0.09,0.44c-0.06,0.31-0.33,0.48-0.57,0.48c-0.04,0-0.07,0-0.11-0.01l-5.17-0.98
			c-0.2-0.04-0.31-0.15-0.37-0.24c-0.06-0.09-0.13-0.24-0.09-0.44C72.93,112.69,73.2,112.52,73.44,112.52 M73.44,110.56
			c-1.2,0-2.27,0.85-2.5,2.08v0c-0.26,1.38,0.65,2.72,2.03,2.98l5.17,0.98c0.16,0.03,0.32,0.04,0.48,0.04c1.2,0,2.27-0.85,2.5-2.08
			v0c0.26-1.38-0.65-2.72-2.03-2.98l-5.17-0.98C73.75,110.57,73.59,110.56,73.44,110.56L73.44,110.56z"/>
	</g>
	<g>
		<path style="fill:#BDBDBD;" d="M24.96,115.65c-0.75,0-1.4-0.54-1.54-1.28c-0.16-0.85,0.4-1.67,1.25-1.83l5.17-0.98
			c0.1-0.02,0.2-0.03,0.29-0.03c0.75,0,1.4,0.54,1.54,1.28c0.08,0.41-0.01,0.83-0.25,1.17s-0.59,0.58-1,0.66l-5.17,0.98
			C25.16,115.64,25.06,115.65,24.96,115.65z"/>
		<path style="fill:#78909C;" d="M30.14,112.52c0.24,0,0.51,0.16,0.57,0.48c0.04,0.2-0.03,0.35-0.09,0.44
			c-0.06,0.09-0.18,0.21-0.37,0.24l-5.17,0.98c-0.04,0.01-0.07,0.01-0.11,0.01c-0.24,0-0.51-0.16-0.57-0.48
			c-0.04-0.2,0.03-0.35,0.09-0.44c0.06-0.09,0.18-0.21,0.37-0.24l5.17-0.98C30.07,112.53,30.11,112.52,30.14,112.52 M30.14,110.56
			c-0.16,0-0.32,0.01-0.48,0.04l-5.17,0.98c-1.38,0.26-2.29,1.59-2.03,2.98v0c0.23,1.22,1.3,2.08,2.5,2.08
			c0.16,0,0.32-0.01,0.48-0.04l5.17-0.98c1.38-0.26,2.29-1.59,2.03-2.98v0C32.41,111.41,31.34,110.56,30.14,110.56L30.14,110.56z"/>
	</g>
	<g>
		<polygon style="fill:#AED581;" points="35.86,98.08 42.28,97.36 50.3,108.23 35.63,117.26 		"/>
		<path style="fill:#85BD53;" d="M41.83,98.4l7.04,9.56l-12.24,7.54l0.2-16.54L41.83,98.4 M42.74,96.32l-7.85,0.88l-0.26,21.84
			l17.09-10.53L42.74,96.32L42.74,96.32z"/>
	</g>
	<g>
		<polygon style="fill:#AED581;" points="53.14,108.23 61.16,97.36 67.58,98.08 67.81,117.26 		"/>
		<path style="fill:#85BD53;" d="M61.61,98.4l4.99,0.56l0.2,16.54l-12.24-7.54L61.61,98.4 M60.7,96.32l-8.98,12.19l17.09,10.53
			L68.55,97.2L60.7,96.32L60.7,96.32z"/>
	</g>
</g>
<g id="hat_front">
	<g>
		<linearGradient id="SVGID_7_" gradientUnits="userSpaceOnUse" x1="51.4712" y1="8.8603" x2="51.4712" y2="30.1866">
			<stop  offset="2.802890e-03" style="stop-color:#FFF59D"/>
			<stop  offset="0.5532" style="stop-color:#FEE565"/>
			<stop  offset="0.9964" style="stop-color:#FDD835"/>
		</linearGradient>
		<path style="fill:url(#SVGID_7_);" d="M51.47,32.47c-15.04,0-23.41-1.79-24.62-3.07c4.28-10.6,8.98-20.47,14.41-21.12
			c1.66-0.2,6.07-0.73,10.41-0.73c4.03,0,8.04,0.49,9.76,0.69l0.26,0.03C67.11,8.94,71.82,18.8,76.09,29.4
			C74.88,30.68,66.51,32.47,51.47,32.47z"/>
		<path style="fill:#E6C22D;" d="M51.66,6.12L51.71,9c3.9,0,7.85,0.48,9.54,0.68l0.27,0.03c4.99,0.6,10.16,12.61,12.77,19.05
			c-2.71,1.04-10.67,2.28-22.81,2.28s-20.1-1.23-22.81-2.28c2.61-6.43,7.78-18.45,12.78-19.05C43.07,9.52,47.41,9,51.66,9V6.12
			 M51.66,6.12c-4.43,0-8.91,0.54-10.58,0.74c-6.07,0.73-10.81,10.19-15.64,22.17c-1.31,3.25,12.36,4.87,26.02,4.87
			s27.33-1.62,26.02-4.87C72.67,17.05,67.93,7.59,61.86,6.86C60.24,6.67,56,6.13,51.71,6.13C51.69,6.12,51.68,6.12,51.66,6.12
			L51.66,6.12z"/>
	</g>
	<g>
		<linearGradient id="SVGID_8_" gradientUnits="userSpaceOnUse" x1="51.4678" y1="27.7243" x2="51.4678" y2="53.1551">
			<stop  offset="2.802890e-03" style="stop-color:#FFF59D"/>
			<stop  offset="0.5532" style="stop-color:#FEE565"/>
			<stop  offset="0.9964" style="stop-color:#FDD835"/>
		</linearGradient>
		<path style="fill:url(#SVGID_8_);" d="M51.48,46.18l-0.63,0.01c-22.03-0.1-33.15-10.95-39.8-17.44c-1.45-1.42-2.9-2.29-4.32-2.61
			c0.54-0.16,1.19-0.26,2-0.26c0.72,0,1.52,0.08,2.38,0.24c9.85,1.79,25.47,3.72,39.78,3.78c0,0,1.16,0,1.16,0
			c14.31-0.06,29.93-2,39.78-3.78c0.86-0.16,1.67-0.24,2.38-0.24c0.8,0,1.46,0.1,1.99,0.26c-1.42,0.32-2.86,1.2-4.31,2.61
			c-6.65,6.48-17.77,17.34-39.78,17.44l-0.02,0L51.48,46.18z"/>
		<path style="fill:#E6C22D;" d="M12.08,27.76c9.95,1.73,24.98,3.53,38.8,3.59l0.1,0l0.25,0l0.24,0l0.22,0l0.25,0l0.1,0
			c13.82-0.06,28.86-1.85,38.8-3.59c-6.49,6.34-17.36,16.9-38.77,17c-0.09,0-0.17,0-0.25,0c-0.12,0-0.24-0.01-0.38-0.01
			c-0.12,0-0.24,0-0.36,0.01c-0.08,0-0.17,0-0.26,0c0,0,0,0,0,0C29.44,44.66,18.58,34.1,12.08,27.76 M94.21,24.46
			c-0.77,0-1.65,0.08-2.64,0.26c-9.43,1.71-25.18,3.7-39.53,3.76c-0.03,0-0.06,0-0.09,0c-0.16,0-0.32,0-0.48,0c0,0,0,0-0.01,0
			c0,0,0,0-0.01,0c-0.16,0-0.32,0-0.48,0c-0.03,0-0.06,0-0.09,0c-14.35-0.06-30.1-2.05-39.53-3.76c-0.99-0.18-1.87-0.26-2.64-0.26
			c-5.56,0-5.79,4.1-5.79,4.1s0.9-1.11,2.57-1.11c1.16,0,2.68,0.53,4.54,2.34c7.03,6.86,18.48,17.74,40.77,17.84
			c0.01,0,0.02,0,0.03,0c0.21,0,0.41-0.01,0.62-0.01c0.21,0,0.41,0.01,0.62,0.01c0.01,0,0.02,0,0.03,0
			c22.29-0.1,33.74-10.98,40.77-17.84c1.85-1.81,3.38-2.34,4.54-2.34c1.67,0,2.57,1.11,2.57,1.11S99.78,24.46,94.21,24.46
			L94.21,24.46z"/>
	</g>
	<g>
		<path style="fill:#78909C;" d="M51.47,27.43c-7.54,0-17.02-0.75-21.84-1.17c3.86-1.89,11.67-4.92,21.84-4.92
			s17.97,3.04,21.84,4.92C68.49,26.68,59.01,27.43,51.47,27.43z"/>
		<path style="fill:#90A4AE;" d="M51.47,22.29c7.54,0,13.75,1.7,17.96,3.32c-5.09,0.4-12.11,0.85-17.96,0.85
			c-5.84,0-12.87-0.45-17.96-0.85C37.73,23.99,43.93,22.29,51.47,22.29 M51.47,20.37c-15.18,0-25.05,6.55-25.05,6.55
			s14.37,1.47,25.05,1.47s25.05-1.47,25.05-1.47S66.65,20.37,51.47,20.37L51.47,20.37z"/>
	</g>
</g>
<g id="fork">
	<line style="fill:none;stroke:#D18100;stroke-width:5;stroke-miterlimit:10;" x1="107.48" y1="109.01" x2="107.48" y2="124"/>
	<path style="fill:#636363;" d="M108.64,116.76h-2.32c-1.38,0-2.51,0-2.51-2.51v-12.01h7.33v12.01
		C111.15,116.38,110.02,116.76,108.64,116.76z"/>
	<path style="fill:#616161;" d="M116.73,99.5c-1.84,0-7.74,0.06-9.07,0.06c-2.12,0-7.74-0.19-10.03-0.19
		c-7.48,0-7.54-26.69-7.54-26.69v24.71c0,6.69,3.42,8.83,9.42,9.05h15.38c5.42,0,7.35-3.71,7.35-8.15l-0.38-4.86
		C121.84,93.44,120.39,99.5,116.73,99.5z"/>
	<linearGradient id="SVGID_9_" gradientUnits="userSpaceOnUse" x1="106.7775" y1="108.468" x2="106.7775" y2="49.7976">
		<stop  offset="0" style="stop-color:#757575"/>
		<stop  offset="0.4818" style="stop-color:#9E9E9E"/>
	</linearGradient>
	<path style="fill:url(#SVGID_9_);" d="M123.37,38.4c-0.11-0.42-0.73-0.41-0.83,0.01l-1.15,4.68l-2,52.18c0,0-0.01,0.27-0.01,0.41
		c0,1.54-1.19,2.64-2.73,2.64s-2.81-1.12-2.81-2.66c0-0.22,0.6-52.39,0.6-52.39l-1.19-5.13c-0.11-0.42-0.72-0.42-0.83,0l-1.34,5.05
		l-0.62,52.15c0,1.7-1.02,2.99-2.73,2.99c-1.7,0-3.08-1.38-3.08-3.08l-0.3-52.17l-1.18-4.94c-0.11-0.41-0.71-0.41-0.83,0l-1.5,5.15
		l0.03,51.86c0,1.76-1.22,3.19-2.98,3.19c-1.96,0-3.41-1.43-3.41-3.19l-2.04-52.06l-1.34-4.97c-0.1-0.42-0.6-0.34-0.72,0.07l-1.37,5
		l1.6,53.63c0,4.52,2.88,7.95,8.88,8.17h15.38c5.42,0,7.5-3.73,7.5-8.17l2.16-53.4L123.37,38.4z"/>
</g>
</svg>
