<svg xmlns="http://www.w3.org/2000/svg" viewBox="0 0 128 128"><path d="M97.38 85.78c10.86-13.89 27.03-38.64 27.03-38.64s3.33-4.27 2.79-6.85c-.68-3.23-4.6-5.01-6.91-6.91-1.22-1.01-2.45-1.86-3.74-2.75-2.84-1.96-5.66-3.91-8.47-5.84-5.97-4.1-11.91-8.12-17.87-11.99-5.88-3.83-11.91-7.2-17.9-10.65-3.01-1.74-5.53-2.72-8.54-.58-3.65 2.6-6.71 6.28-9.89 9.63-3.49 3.67-21.26 22.66-25.07 26.52-5.01 5.08-10.08 10.23-15.24 15.46-2.27 2.3-4.59 4.58-6.84 6.96-2.78 2.93-7.61 7.26-5.45 11.32 2.25 4.23 6.65 7.52 10.06 10.83 9.14 8.86 18.43 17.96 28 27.13 4 3.83 8.06 7.69 12.06 11.68 2.81 2.81 7.51 7.11 11.71 6.49 2.46-.37 6.36-4.73 6.36-4.73s17.05-23.18 27.91-37.08z" fill="#855c52"/><path d="M89.25 77.87c6.34-8.53 12.58-17.14 18.46-25.99 1.29-1.94 4.85-5.99 4.77-8.49-.05-1.37-2.16-2.33-3.08-3.12-1.69-1.46-3.87-2.64-5.74-3.93-2.13-1.47-4.25-2.94-6.37-4.39-5.27-3.62-10.63-7.15-15.94-10.72-2.74-1.84-5.46-3.69-8.17-5.58-1.65-1.15-4.19-3.78-6.28-3.92-.47-.03-.38-.11-.89.19-1.57.91-3.02 2.66-4.24 4-1.76 1.93-3.47 3.9-5.27 5.8-2.63 2.76-16.01 17.05-18.88 19.96-3.76 3.81-7.71 7.44-11.5 11.23-3.5 3.5-6.47 7.37-9.78 11.02-1.39 1.52-.98 2.22.08 3.69 2.68 3.73 7.25 6.51 10.79 9.46 6.84 5.71 13.26 11.76 19.56 18.04 4.69 4.67 10.03 8.61 14.96 13 .75.66 1.41 1.45 2.54 1.1.4-.12.75-.56 1.03-.82 4.63-4.31 8.36-9.85 12.15-14.87 3.94-5.21 7.89-10.42 11.8-15.66z" fill="#fff"/><path d="M112.7 15.6c-.24-.88-.65-1.75-1.21-2.58-1.47-2.21-3.53-3.88-5.6-5.48-3.03-2.34-7.09-4.31-10.95-4.46-1.96-.07-3.41 1.11-4.7 2.43-.58.59-1.08 1.15-1.96 1.12-.83-.03-1.59-.51-2.39-.64-2.43-.4-4.49 1.22-6.02 2.91-1.67 1.83-3.31 3.79-4.75 5.77-1.03 1.41-1.97 2.94-2.53 4.6-.88 2.63-.56 5.08 1.6 6.89 2.25 1.89 4.23 4.14 6.5 5.99 3.11 2.53 6.67 4.4 10.03 6.56 4.78 3.07 8.66 4.26 13.28.12.17-.15.33-.31.5-.47 1.93-1.86 3.64-4 4.9-6.37.35-.67.53-1.4.78-2.1.18-.5.53-.96.68-1.44.4-1.24.05-3.01.04-4.3-.02-1.47.94-2.49 1.47-3.79.67-1.64.75-3.24.33-4.76z" fill="#78a3ad"/><path d="M114.62 14.96c-.27-.97-.71-1.91-1.32-2.82-1.61-2.42-3.87-4.25-6.15-6-3.32-2.57-7.77-4.72-11.98-4.88-2.15-.08-3.74 1.21-5.16 2.66-.62.64-1.18 1.26-2.15 1.23-.9-.04-1.73-.56-2.62-.7-2.66-.44-4.91 1.34-6.59 3.18-1.82 2-3.62 4.15-5.2 6.32-1.13 1.55-2.16 3.22-2.77 5.04-.97 2.88-.62 5.56 1.75 7.54 2.46 2.07 4.63 4.53 7.12 6.56 3.41 2.77 7.31 4.82 10.99 7.18 5.24 3.36 9.49 4.67 14.54.13.19-.17.38-.34.56-.52 2.11-2.03 3.99-4.38 5.37-6.98.39-.73.58-1.53.85-2.3.19-.54.57-1.05.75-1.58.44-1.36.05-3.29.04-4.71-.01-1.61 1.03-2.73 1.6-4.15.75-1.78.83-3.53.37-5.2zM97.33 6.24c2.21.45 4.28 1.53 6.17 2.74 2.06 1.32 6.63 4.66 3.6 7.4-1.3 1.18-1.85-.32-2.79-1.04-1.88-1.45-3.81-2.87-5.73-4.27-.92-.67-5.01-2.27-4.72-3.68.25-1.26 1.65-1.52 3.47-1.15zm3.33 29.7c-2.66 1.72-5.16.63-7.75-.97-2.47-1.52-5.09-2.8-7.43-4.51-2.83-2.05-5.65-4.41-8.34-6.64-2.81-2.33-.11-7.14 1.73-9.16 1.11-1.22 2.8-2.99 4.28-3.76 2.16-1.12 4.27.29 6.24 1.31 4.82 2.47 9.46 5.37 13.57 8.92 1.4 1.21 4.12 3.41 3.79 5.55-.12.77-.62 1.83-.91 2.54-1.01 2.45-2.74 5.01-4.92 6.56-.1.06-.18.11-.26.16z" fill="#2f2f2f"/><path d="M81.31 14.07s2.35-3.31 4.34-2.34c1.6.77 10.06 5.83 11.65 7.02 1.59 1.19.07 1.11-1.72.63-1.79-.48-7.43-3.42-9.42-3.02-1.99.4-6.9 3.43-8.1 3.43-1.19 0 1.94-4 3.25-5.72z" fill="#fff"/></svg>