<?xml version="1.0" encoding="utf-8"?>
<!-- Generator: Adobe Illustrator 24.0.3, SVG Export Plug-In . SVG Version: 6.00 Build 0)  -->
<svg version="1.1" id="elevator" xmlns="http://www.w3.org/2000/svg" xmlns:xlink="http://www.w3.org/1999/xlink" x="0px" y="0px"
	 viewBox="0 0 128 128" style="enable-background:new 0 0 128 128;" xml:space="preserve">
<g>
	<linearGradient id="SVGID_1_" gradientUnits="userSpaceOnUse" x1="64" y1="4.25" x2="64" y2="124.4088">
		<stop  offset="0" style="stop-color:#82B1FF"/>
		<stop  offset="0.2644" style="stop-color:#6FA0FF"/>
		<stop  offset="0.7989" style="stop-color:#3D74FF"/>
		<stop  offset="1" style="stop-color:#2962FF"/>
	</linearGradient>
	<path style="fill:url(#SVGID_1_);" d="M116,124H12c-4.42,0-8-3.58-8-8V12c0-4.42,3.58-8,8-8h104c4.42,0,8,3.58,8,8v104
		C124,120.42,120.42,124,116,124z"/>
</g>
<g>
	<polygon style="fill:none;" points="43.26,25.55 43.47,25.55 43.47,25.29 	"/>
	<polygon style="fill:none;" points="51.92,25.29 51.92,25.55 52.13,25.55 	"/>
	<g>
		<path style="fill:#FAFAFA;" d="M51.64,37.7l0.05-12.15h5.96c2.06,0,3.18-2.41,1.86-3.98l-7.74-9.24
			c-0.13-0.15-0.28-0.28-0.44-0.39c-0.39-0.42-0.88-0.76-1.45-0.95c-1.58-0.55-3.31,0.01-4.2,1.26c-0.05,0.05-0.1,0.09-0.15,0.15
			l-7.6,9.18c-1.31,1.58-0.18,3.97,1.87,3.97h5.9l-0.05,12.13c-0.01,1.66,1.34,3,2.99,3h0C50.29,40.68,51.63,39.35,51.64,37.7z"/>
	</g>
	<g>
		<path style="fill:#FAFAFA;" d="M83.76,13.75l0.05,12.15h5.96c2.06,0,3.18,2.41,1.86,3.98l-7.74,9.24
			c-0.13,0.15-0.28,0.28-0.44,0.39c-0.39,0.42-0.88,0.76-1.45,0.95c-1.58,0.55-3.31-0.01-4.2-1.26c-0.05-0.05-0.1-0.09-0.15-0.15
			l-7.6-9.18c-1.31-1.58-0.18-3.97,1.87-3.97h5.9l-0.05-12.13c-0.01-1.66,1.34-3,2.99-3h0C82.42,10.77,83.76,12.1,83.76,13.75z"/>
	</g>
</g>
<path style="fill:#FAFAFA;" d="M103.37,46.03H26.38c-4.36,0-7.9,3.54-7.9,7.9v54.63c0,4.36,3.54,7.9,7.9,7.9h76.99
	c4.36,0,7.9-3.54,7.9-7.9V53.93C111.27,49.57,107.74,46.03,103.37,46.03z M102.42,107.61H27.6V55.06h74.82V107.61z"/>
<g>
	<path style="fill:#FAFAFA;" d="M44.74,65.15c1.72-1.03,2.3-3.3,1.3-5.07s-3.21-2.37-4.92-1.34l1.81,3.21l-1.82-3.2
		c-1.71,1.03-2.29,3.3-1.29,5.07C40.82,65.58,43.02,66.18,44.74,65.15z"/>
	<path style="fill:#FAFAFA;" d="M36.93,84.75h0.87v18.06c0,1.3,1.05,2.35,2.35,2.35s2.35-1.05,2.35-2.35V84.75h0.79v18.11
		c0,1.3,1.05,2.35,2.35,2.35s2.35-1.05,2.35-2.35V84.75h0.85c1.21,0,2.18-0.98,2.18-2.18V68.81c0-1.21-0.98-2.18-2.18-2.18h-11.9
		c-1.21,0-2.18,0.98-2.18,2.18v13.75C34.74,83.77,35.72,84.75,36.93,84.75z"/>
	<polygon style="fill:#FAFAFA;" points="40.15,105.16 40.15,105.16 40.15,105.16 	"/>
	<path style="fill:#FAFAFA;" d="M66.63,65.14c1.72-1.03,2.3-3.3,1.3-5.07s-3.21-2.37-4.92-1.34l1.81,3.21L63,58.73
		c-1.71,1.03-2.29,3.3-1.29,5.07C62.71,65.57,64.91,66.17,66.63,65.14z"/>
	<path style="fill:#FAFAFA;" d="M58.87,84.74h0.76v18.12c0,1.3,1.05,2.35,2.35,2.35c1.3,0,2.35-1.05,2.35-2.35V84.74h0.76v18.12
		c0,1.3,1.05,2.35,2.35,2.35s2.35-1.05,2.35-2.35V84.74h0.98c1.21,0,2.18-0.98,2.18-2.18V68.81c0-1.21-0.98-2.18-2.18-2.18h-11.9
		c-1.21,0-2.18,0.98-2.18,2.18v13.75C56.69,83.76,57.66,84.74,58.87,84.74z"/>
	<polygon style="fill:#FAFAFA;" points="67.44,105.2 67.44,105.2 67.44,105.2 	"/>
	<path style="fill:#FAFAFA;" d="M88.55,65.14c1.72-1.03,2.3-3.3,1.3-5.07c-1-1.77-3.21-2.37-4.92-1.34l1.81,3.21l-1.82-3.2
		c-1.71,1.03-2.29,3.3-1.29,5.07C84.62,65.57,86.83,66.17,88.55,65.14z"/>
	<path style="fill:#FAFAFA;" d="M80.68,84.74h0.87v18.01c0,1.3,1.05,2.35,2.35,2.35c1.3,0,2.35-1.05,2.35-2.35V84.74h0.76v18.12
		c0,1.3,1.05,2.35,2.35,2.35c1.3,0,2.35-1.05,2.35-2.35V84.74h0.87c1.21,0,2.18-0.98,2.18-2.18V68.81c0-1.21-0.98-2.18-2.18-2.18
		h-11.9c-1.21,0-2.18,0.98-2.18,2.18v13.75C78.5,83.76,79.47,84.74,80.68,84.74z"/>
</g>
</svg>
