<?xml version="1.0" encoding="utf-8"?>
<!-- Generator: Adobe Illustrator 19.2.1, SVG Export Plug-In . SVG Version: 6.00 Build 0)  -->
<svg version="1.1" xmlns="http://www.w3.org/2000/svg" xmlns:xlink="http://www.w3.org/1999/xlink" x="0px" y="0px"
	 viewBox="0 0 128 128" style="enable-background:new 0 0 128 128;" xml:space="preserve">
<g id="图层_1">
</g>
<g id="图层_2">
	<g>
		<g>
			<defs>
				<path id="SVGID_1_" d="M55.76,9.65c19.68,0.54,44.36,9.83,55.72,21.29c13.25,13.36,17.33,35.9,12.58,54.51
					c-1.99,7.76-9.8,20.55-25.82,26.99c-11.5,4.63-39.07,7.43-51.47,5.32c0,0,1.4-18.66-0.57-27.71c-3.99-18.28,2.15-20.2,5-38.48
					c2.15-13.75-2.4-28.69,2.79-41.6C53.98,9.98,53.89,9.6,55.76,9.65z"/>
			</defs>
			<use xlink:href="#SVGID_1_"  style="overflow:visible;fill:#6C4828;"/>
			<clipPath id="SVGID_2_">
				<use xlink:href="#SVGID_1_"  style="overflow:visible;"/>
			</clipPath>
			<path style="clip-path:url(#SVGID_2_);fill:#906E41;" d="M52.13,6.36C62.5,9.06,72.1,8.08,96.65,17.77
				c17.74,7,24.32,21.12,26.67,26.91s4.07,11.37,3.42,17.59c-0.76,7.25-1.96,11.94-5.16,16.98c-1.46,2.3-3.88,5.75-5.87,7.61
				c-4.5,4.18-9.99,6.05-12.69,8.28c-3.2,2.65-8.65,6.65-12.25,8.73c-3.2,1.85-6.93,2.57-10.62,2.85
				c-13.78,1.08-27.93-3.69-38.25-12.89c-1.12-1-2.21-2.06-3.06-3.31c-1.18-1.75-1.85-3.8-2.25-5.87
				c-2.05-10.51,2.26-21.11,3.18-31.78c0.75-8.8-0.82-17.68-0.13-26.48S44.21,10.28,52.13,6.36z"/>
		</g>
		<g>
			<path style="fill:#B3BF42;" d="M53.76,115.73c-2.28,0-4.63-0.16-6.97-0.48c-15.61-2.12-27.7-8.67-34.97-18.95
				c-6.82-9.63-8.9-22.08-6.02-36c5.97-28.88,24.82-48.28,46.92-48.28c2.58,0,5.2,0.28,7.78,0.83c27.98,5.94,40.78,23.06,39.1,52.34
				C97.86,95.42,79.44,115.73,53.76,115.73z"/>
			<path style="fill:#A5AB3B;" d="M52.7,14.53L52.7,14.53c2.41,0,4.85,0.26,7.26,0.77c26.94,5.72,38.74,21.53,37.13,49.75
				c-0.83,14.51-5.51,26.75-13.53,35.42c-7.74,8.35-18.04,12.76-29.81,12.76c-2.17,0-4.4-0.15-6.64-0.46
				c-14.9-2.02-26.41-8.22-33.27-17.91C7.44,85.81,5.5,74.04,8.23,60.81C11.08,47.02,17,35.28,25.35,26.85
				C33.33,18.79,42.79,14.53,52.7,14.53 M52.7,9.53C29.86,9.53,9.58,29.58,3.34,59.8c-6.52,31.54,11.74,53.67,43.11,57.93
				c2.49,0.34,4.92,0.5,7.31,0.5c26.66,0,46.49-20.68,48.33-52.89c1.7-29.85-11.04-48.55-41.08-54.93
				C58.21,9.82,55.44,9.53,52.7,9.53L52.7,9.53z"/>
		</g>
		<path style="fill:#A5AB3B;" d="M43.94,43.84c1.19-0.14,2.22-1.47,3.66-1.21c0.23,0.3,0.12,0.96,0.45,1.14
			c0.39,0.22,1.33-0.25,1.68-0.44c0.54-0.31,0.89-0.79,1.4-1.15c1.12,0.15,1.44,1.36,3.05,1.07c0.88-0.16,0.56-0.07,1.11,0.31
			c0.48,0.32,1.27,0.93,2.13,0.93c0.63,0,0.92-0.23,1.44-0.08c-0.05-0.02,0.29,0.32,0.37,0.35c0.35,0.15,0.87,0.13,1.24,0.12
			c0.78-0.01,1.49-0.39,2.25-0.43c0.37-0.02,0.58,0.6,0.96,0.59c0.29,0.77,0.22,1.09,0.37,1.83c0.08,0.39-0.18,0.33,0.14,0.69
			c0.31,0.36,1.19,0.07,1.54,0.36c0.48,0.39,0.2,0.82,0.35,1.34c0.32,1.12,1.95,1.37,3,1.81c-0.11,0.42-0.25,0.97-0.09,1.39
			c0.29,0.74,1.19,0.68,1.55,1.27c0.55,0.91-0.55,1.86-0.79,2.73c-0.4,1.45,0.4,1.41,1.34,2.07c0.75,0.53,0.33,0.38,0.47,1.26
			c0.12,0.76,0.95,1.2,1.06,1.85c0.06,0.35-0.24,0.68-0.32,1.03c-0.14,0.62-0.03,1.2-0.32,1.8c-0.18,0.37-0.52,0.63-0.67,1.02
			c-0.2,0.52,0.03,1.08-0.13,1.56c-0.13,0.4-0.54,0.55-0.64,0.95c-0.17,0.67,0.55,1.21,0.22,1.9c-0.41,0.86-0.8,0.42-1.01,1.5
			c-0.17,0.9-0.13,1.94-0.56,2.83c-0.37,0.77-1.88,0.73-2.1,1.58c-0.15,0.59,0.14,1.6,0.35,2.13c-0.43,1.06-1.49,0.19-1.85,1.51
			c-0.14,0.5,0.39,1.05,0.3,1.56c-0.44,0.79-1.3,1.29-1.78,1.24c-0.3,1.32-1.34,1.19-1.1,2.58c-0.26,0.67-5.54,1.12-5.78,1.65
			c-0.9,1.68-1.66,1.09-3.82,1.75c-0.35,0.11-0.62,0.02-0.8,0.01c-0.75-0.02-1.51,0.11-2.34,0.24c-0.84,0.13-1.47,0.75-2.31,0.64
			c-1.25-0.59-0.87-0.88-1.8-1.85c-0.6-0.65-1.72-1.03-2.16-0.52c-0.37,0.43-0.45,0.82-0.98,1.05c-1.08,0.45-2.68-1.47-4.09-1.45
			c-1.1,0.02-1.77,0.26-2.98-0.24c-0.7-0.29-1.12-0.54-1.9-0.68c-0.01-0.6-0.55-0.98-0.75-1.53c-0.04-0.1,0.13-0.47,0.07-0.68
			c-0.23-0.72-0.77-1.33-1.28-1.87c-0.28-0.29-1.16-0.85-1.21-1.26c-0.12-0.82-0.22-1.32,0.32-1.99c-0.19-1.16,0.18-1.24-1.22-1.59
			c-1.33-0.33-1.61-0.64-0.83-1.78c0.24-0.36,0.92-0.83,1.07-1.17c0.32-0.75-0.27-0.78-0.54-1.45c-0.23-0.55,0.05-0.69,0.04-1.03
			c-0.04-0.88-1.29-3.02-0.99-3.69c0.16-0.37,0.46-0.26,0.77-0.59c0.28-0.29,0.5-1.01,0.49-1.41c1.79-0.05,1.36-2.68,1.38-3.78
			c0.01-0.82,0.29-1.58,0.2-2.41c-0.09-0.83-0.25-1.23-0.51-2.02c0.06-1.03,2.5-1.19,2.98-1.62c-0.03,0.03,1.26-2.68,1.27-2.79
			c0.27-2.19-0.44-3.18,1.01-4.02c0.51,0.17,0.89,0.03,1.31-0.27c0.42-0.3,0.48-0.96,0.81-1.19c0.57-0.39,1.56,0.14,2.22-0.18
			c0.52-0.26,0.62-0.55,0.83-1.08c0.07-0.18,0.12-1.09,0.28-1.2c0.27-0.2,0.89,0.07,1.24-0.08C43.36,44.58,43.54,44.26,43.94,43.84z
			"/>
		<path style="fill:#F5EA96;" d="M55.65,82.64c-1.46,1.83-4.26-4.83-5.69-6.2c-3.05-2.91-6.07,7.55-8.24,6.67
			c-0.78-0.57,1.24-5.85,0.8-7.93c-0.43-2.08-6.32,1.42-6.7-0.31c-0.45-1.99,5.13-4.13,5.3-6.86c0.16-2.49-6.32-5.14-5.73-6.88
			c0.4-1.63,6.86,1.37,7.92-0.17c0.78-1.13-1.45-5.36-0.29-6.74c0.84-0.61,3.89,3.21,5.02,2.87c1.82-0.56,3.72-8.99,5.63-9.42
			c1.86-0.42-0.95,10.05,1.57,11.95c2.83,2.13,9.49-5.31,11.75-3.56c1.61,1.02-7.08,8.08-6.92,10.93c0.14,2.53,5.19,6.74,3.96,7.5
			c-0.63,1.37-7.59-4.97-9.06-3.23C53.73,72.72,56.41,81.68,55.65,82.64z"/>
		<path style="fill:#A5AB3B;" d="M59.2,44.79c1.99,0,9.77-14.6,18.34-21.38c0.57-0.45,0.62-0.23,0.21,0.39
			c-1.48,2.25-2.71,3.59-4.29,5.83c-1.49,2.11-10.85,13.99-10.1,15.28l-3.18,0.84L59.2,44.79z"/>
		<path style="fill:#A5AB3B;" d="M52.67,43.01c-1.44-1.38,2.87-18.74,1.41-29.58c-0.1-0.72-0.29-0.59-0.43,0.13
			c-0.5,2.65-0.74,9.2-1.16,11.92c-0.39,2.56-2.22,17.83-3.66,18.25l1.28,2.03L52.67,43.01z"/>
		<path style="fill:#A5AB3B;" d="M60.3,85.66c1.46-0.34,10.83,12.67,12.42,14.72c1.68,2.17,2.6,3.74,4.32,5.82
			c0.47,0.57,0.7,0.59,0.44-0.09C73.5,95.92,62.61,85.58,63.2,83.67L61.42,84L60.3,85.66z"/>
		<path style="fill:#A5AB3B;" d="M70.65,54.05c-0.22-1.65,14.98-10.55,17.44-12.06c2.6-1.6,3.54-1.66,6.04-3.31
			c0.69-0.45,0.73-0.71-0.05-0.5c-11.8,3.16-23.67,13.5-25.73,12.62l0.35,2.07L70.65,54.05z"/>
		<path style="fill:#A5AB3B;" d="M50.62,88.42c-1.39,0.54-1.84,16.71-2,19.29c-0.17,2.74-0.04,4.56-0.3,7.24
			c-0.07,0.74-0.25,0.88-0.41,0.17c-2.44-10.66,0.75-25.3-0.81-26.55l1.66-0.76L50.62,88.42z"/>
		<path style="fill:#A5AB3B;" d="M31.05,77.15c0.01,1.49-12.76,6.76-15.1,7.86c-2.48,1.16-4.22,1.71-6.62,2.94
			c-0.66,0.34-0.73,0.56-0.01,0.45c10.81-1.65,19.97-8.97,21.7-7.98l1.12-1.98L31.05,77.15z"/>
		<path style="fill:#A5AB3B;" d="M70.54,69.2c0.69-1.12,18.34,1.22,20.65,1.34c2.45,0.13,4.04,0.41,6.45,0.46
			c0.66,0.01,0.82-0.12,0.22-0.33c-9.05-3.12-25.79-3.29-26.65-4.73l-2.27,0.38L70.54,69.2z"/>
		<path style="fill:#A5AB3B;" d="M31.59,56.46c-0.7,0.69-10.41-1.57-12.35-1.93c-2.06-0.38-3.37-0.81-5.4-1.12
			c-0.56-0.09-0.7,0.01-0.21,0.26c7.35,3.71,17.33,4.39,17.92,5.73l0.71-1.26L31.59,56.46z"/>
		<path style="fill:#A5AB3B;" d="M35.31,50.74c-1.1,0.73-12.73-7.23-14.78-8.31c-2.17-1.14-3.49-2.06-5.66-3.12
			c-0.6-0.29-0.8-0.23-0.34,0.21c6.92,6.62,20.16,12.5,20.34,14.17l1.08-0.85L35.31,50.74z"/>
		<path style="fill:#A5AB3B;" d="M29.04,69.13c-0.41,1.25-3.83,1.23-6.14,1.51c-2.43,0.29-7.53,0.51-9.88,1.02
			c-0.65,0.14-0.77,0.31-0.13,0.37c9.53,0.94,15.5-1.43,16.67-0.23l0.87-1.3L29.04,69.13z"/>
		<path style="fill:#A5AB3B;" d="M69.64,72.03c0.43,1.77,6.84,2.64,15.43,8.79c0.57,0.41,0.36,0.5-0.34,0.27
			c-2.55-0.83-6.64-3.58-9.2-4.5c-2.42-0.87-6.61-2.43-7.73-1.49"/>
		<path style="fill:#A5AB3B;" d="M43.29,87.63c-1.28,0.51-2.34,4.28-3.17,6.71c-0.89,2.58-3,8.94-3.95,11.45
			c-0.26,0.69-0.47,0.8-0.43,0.1c0.57-10.55,5.63-17.67,4.52-19.11l0.98-0.41L43.29,87.63z"/>
		<path style="fill:#A5AB3B;" d="M45.28,43.3c-1.46-0.07-4.48-6.79-5.66-9.08c-1.25-2.42-1.64-4.29-2.94-6.64
			c-0.36-0.65-0.58-0.72-0.44-0.03c2.1,10.36,7.6,15.61,6.71,17.2l1.38,0.09L45.28,43.3z"/>
		<path style="fill:#A5AB3B;" d="M71.1,58.7c0.03-1.31,10.05-5.09,12.11-6.08c2.18-1.05,3.7-1.56,5.82-2.66
			c0.58-0.3,0.65-0.5,0.02-0.39c-9.43,1.58-17.72,7.43-19.2,6.58l-1.38,1.54L71.1,58.7z"/>
		<path d="M71.22,63.68c0.09,0.61,1.37,1.07,2.27,1.2c0.77,0.11,2.41,0.06,2.49-0.74c0.08-0.83-1.48-1.27-2.37-1.31
			C72.69,62.79,71.16,63.08,71.22,63.68z"/>
		<path d="M79.39,55.69c0.25,0.6,1.69,0.76,2.65,0.68c0.82-0.07,2.51-0.54,2.39-1.39c-0.13-0.88-1.86-0.94-2.78-0.77
			C80.69,54.39,79.18,55.08,79.39,55.69z"/>
		<path d="M64.45,47.7c0.61,0.16,1.56-0.85,2.06-1.65c0.42-0.67,1.04-2.25,0.32-2.65c-0.75-0.41-1.8,0.88-2.2,1.7
			C64.2,45.95,63.86,47.51,64.45,47.7z"/>
		<path d="M71.69,47.58c0.45,0.39,1.68-0.06,2.43-0.52c0.64-0.39,1.83-1.45,1.39-2.09c-0.46-0.67-1.89-0.02-2.57,0.5
			C72.22,46,71.28,47.17,71.69,47.58z"/>
		<path d="M55.83,38.02c0.65-0.03,1.28-1.32,1.52-2.25c0.21-0.79,0.33-2.53-0.5-2.7c-0.86-0.18-1.5,1.42-1.65,2.34
			C55.04,36.38,55.19,38.02,55.83,38.02z"/>
		<path d="M44.55,38.71c0.61-0.3,0.68-1.8,0.52-2.79c-0.13-0.85-0.73-2.57-1.6-2.38c-0.9,0.19-0.85,1.99-0.61,2.93
			C43.12,37.45,43.93,38.97,44.55,38.71z"/>
		<path d="M41.46,48.18c0.43-0.38,0.15-1.6-0.2-2.37c-0.3-0.65-1.16-1.91-1.83-1.57c-0.69,0.35-0.24,1.79,0.16,2.51
			C40.02,47.48,41.01,48.53,41.46,48.18z"/>
		<path d="M24.58,53.71c-0.04-0.69-1.42-1.34-2.41-1.58c-0.84-0.21-2.69-0.32-2.86,0.57c-0.18,0.92,1.52,1.57,2.51,1.72
			C22.84,54.56,24.58,54.38,24.58,53.71z"/>
		<path d="M31.85,43.99c0.27-0.55-0.51-1.65-1.16-2.28c-0.56-0.53-1.93-1.43-2.45-0.82c-0.54,0.63,0.49,1.88,1.18,2.42
			C30.14,43.89,31.56,44.52,31.85,43.99z"/>
		<path d="M31.31,61.26c-0.19-0.65-1.66-0.98-2.67-1c-0.86-0.02-2.66,0.28-2.63,1.17c0.03,0.92,1.81,1.18,2.79,1.11
			C29.83,62.46,31.46,61.92,31.31,61.26z"/>
		<path d="M29.81,74.65c-0.35-0.5-1.7-0.35-2.57-0.07c-0.74,0.24-2.19,1.02-1.9,1.77c0.3,0.78,1.89,0.48,2.71,0.12
			C28.89,76.11,30.12,75.16,29.81,74.65z"/>
		<path d="M34.02,82.24c-0.49-0.38-1.74,0.16-2.5,0.69c-0.64,0.45-1.81,1.62-1.32,2.26c0.51,0.67,1.96-0.09,2.65-0.67
			C33.56,83.91,34.48,82.64,34.02,82.24z"/>
		<path d="M35.56,89.09c-0.63-0.2-1.69,0.81-2.26,1.61c-0.48,0.69-1.23,2.3-0.49,2.76c0.76,0.48,1.94-0.82,2.41-1.65
			C35.71,90.95,36.17,89.33,35.56,89.09z"/>
		<path d="M46.64,86.7c-0.72,0.07-1.36,1.54-1.58,2.59c-0.19,0.9-0.25,2.84,0.69,2.99c0.97,0.15,1.6-1.66,1.72-2.7
			C47.59,88.49,47.35,86.67,46.64,86.7z"/>
		<path d="M50.35,92.91c-0.68,0.21-1.01,1.74-1.02,2.8c-0.01,0.9,0.31,2.78,1.25,2.74c0.97-0.04,1.22-1.9,1.13-2.93
			C51.62,94.45,51.03,92.75,50.35,92.91z"/>
		<path d="M61.01,88.8c-0.46,0.51,0.03,1.95,0.54,2.84c0.44,0.75,1.64,2.16,2.4,1.66c0.78-0.51,0.07-2.19-0.51-3
			C62.83,89.46,61.49,88.33,61.01,88.8z"/>
		<path d="M72.42,80.66c-0.27,0.62,0.66,1.8,1.43,2.45c0.65,0.55,2.23,1.47,2.77,0.76c0.56-0.73-0.65-2.06-1.45-2.61
			C74.33,80.67,72.72,80.06,72.42,80.66z"/>
		<path d="M69.83,73.88c-0.12,0.53,0.79,1.33,1.49,1.73c0.6,0.34,1.98,0.83,2.3,0.19c0.34-0.66-0.82-1.53-1.54-1.86
			C71.34,73.61,69.98,73.36,69.83,73.88z"/>
	</g>
</g>
</svg>
