<?xml version="1.0" encoding="UTF-8" standalone="no"?>
<svg
   xmlns:dc="http://purl.org/dc/elements/1.1/"
   xmlns:cc="http://creativecommons.org/ns#"
   xmlns:rdf="http://www.w3.org/1999/02/22-rdf-syntax-ns#"
   xmlns:svg="http://www.w3.org/2000/svg"
   xmlns="http://www.w3.org/2000/svg"
   xmlns:xlink="http://www.w3.org/1999/xlink"
   xmlns:sodipodi="http://sodipodi.sourceforge.net/DTD/sodipodi-0.dtd"
   xmlns:inkscape="http://www.inkscape.org/namespaces/inkscape"
   width="128"
   height="128"
   style="enable-background:new 0 0 128 128;"
   version="1.1"
   id="svg14"
   sodipodi:docname="emoji_u1f4d9.svg"
   inkscape:version="0.92+devel unknown">
  <metadata
     id="metadata20">
    <rdf:RDF>
      <cc:Work
         rdf:about="">
        <dc:format>image/svg+xml</dc:format>
        <dc:type
           rdf:resource="http://purl.org/dc/dcmitype/StillImage" />
      </cc:Work>
    </rdf:RDF>
  </metadata>
  <defs
     id="defs18">
    <linearGradient
       gradientTransform="translate(2.2219988,-8.5173698)"
       inkscape:collect="always"
       xlink:href="#linearGradient4365"
       id="linearGradient4367"
       x1="95.742714"
       y1="70.877846"
       x2="95.742714"
       y2="82.46875"
       gradientUnits="userSpaceOnUse" />
    <linearGradient
       inkscape:collect="always"
       id="linearGradient4365">
      <stop
         style="stop-color:#ffffff;stop-opacity:1;"
         offset="0"
         id="stop4361" />
      <stop
         style="stop-color:#ffffff;stop-opacity:0.7872622"
         offset="1"
         id="stop4363" />
    </linearGradient>
  </defs>
  <sodipodi:namedview
     pagecolor="#ffffff"
     bordercolor="#666666"
     inkscape:document-rotation="0"
     borderopacity="1"
     objecttolerance="10"
     gridtolerance="10"
     guidetolerance="10"
     inkscape:pageopacity="0"
     inkscape:pageshadow="2"
     inkscape:window-width="1680"
     inkscape:window-height="986"
     id="namedview16"
     showgrid="false"
     inkscape:zoom="5.4453125"
     inkscape:cx="64"
     inkscape:cy="64"
     inkscape:window-x="0"
     inkscape:window-y="27"
     inkscape:window-maximized="1"
     inkscape:current-layer="svg14" />
  <g
     id="g6"
     transform="translate(9.8865478e-5,0.00449985)">
    <path
       inkscape:connector-curvature="0"
       id="path2"
       style="fill:#ffffff"
       d="m 110.03,113.94 c -2.81,0.43 -83.36,1.85 -86.74,0.18 -4.51,-2.22 -5.26,-8.47 -2.92,-12.88 1.92,-3.62 6.84,-3.71 10.25,-3.77 5.16,-0.09 74.56,-0.05 78.96,0.59 0.98,0.15 1.76,0.01 1.95,1.15 0.22,1.36 -0.36,3.04 -0.41,4.43 -0.07,1.68 0.16,3.34 0.36,5 0.14,1.19 0.91,2.64 0.81,3.82 -0.09,1.13 -1.32,1.34 -2.26,1.48 z" />
    <path
       inkscape:connector-curvature="0"
       id="path4"
       style="fill:#2f2f2f"
       d="m 121.73,87.8 c -0.23,-1.95 -0.23,-3.95 -0.45,-5.92 -0.85,-7.63 -1.62,-15.26 -2.4,-22.89 -1.03,-10.22 -2.04,-20.43 -3.22,-30.63 -0.5,-4.37 -0.75,-8.86 -2.09,-13.07 C 111.24,7.97 102.57,8.57 96.46,8.11 86.45,7.36 76.54,6.96 66.49,7.01 60.79,7.04 55.08,7.11 49.38,7.22 44.18,7.32 38.97,7.35 33.76,7.58 31.15,7.7 28.51,7.98 25.9,8.21 20.12,8.73 14.3,11.43 11.47,16.63 10.22,18.94 9.62,21.61 9.24,24.19 8.2,31.25 7.57,38.36 7.12,45.48 6.66,52.57 6.61,59.67 6.58,66.77 6.55,75.35 6.04,83.92 6.04,92.49 c -0.01,8.47 -0.68,17.62 6.34,23.73 2.36,2.05 5.09,3.27 8,4.02 4.86,1.26 82.24,0.63 87.28,0.33 4.37,-0.26 12.47,0.98 12.93,-5.45 0.14,-2.05 -1.12,-4.11 -2.04,-5.87 -0.97,-1.84 -1.77,-3.85 -1.88,-5.95 -0.1,-2.03 0.49,-4.01 0.75,-6 1.61,0.06 3.17,-1.01 3.92,-2.4 0.96,-1.75 0.62,-5.15 0.39,-7.1 z m -12.38,26.14 c -2.8,0.43 -83.36,1.85 -86.74,0.18 -4.51,-2.22 -5.26,-8.47 -2.91,-12.88 1.91,-3.62 6.84,-4.84 10.25,-4.9 5.16,-0.09 74.9,-2.78 79.3,-2.14 0.63,0.09 1.46,0.02 1.81,0.68 0.2,0.39 0.19,0.76 0.05,1.15 -0.53,1.46 -0.8,3 -0.92,4.54 -0.16,2.05 -0.36,4.11 -0.18,6.17 0.1,1.07 0.29,2.12 0.65,3.14 0.29,0.82 1.04,1.7 0.96,2.59 -0.11,1.12 -1.33,1.33 -2.27,1.47 z m 4,-26.98 c -0.03,0.34 -0.09,0.66 -0.21,0.96 -0.91,2.3 -7.04,0.93 -8.85,0.9 C 99.64,88.74 94.98,88.66 90.33,88.58 84.59,88.48 78.85,88.39 73.1,88.29 67.23,88.2 61.36,88.1 55.5,88.01 50.47,87.93 45.46,87.86 40.45,87.78 c -3.2,-0.05 -6.4,-0.09 -9.59,-0.12 -0.42,-0.01 -0.85,-0.01 -1.28,-0.01 -7.8,0 -11.83,4.39 -11.83,4.39 -0.25,0.54 -0.29,1.85 -0.97,2.08 -0.73,0.25 -1.01,-0.76 -1.16,-1.31 -0.35,-1.34 -0.26,-2.84 -0.24,-4.21 0.03,-2.51 0.2,-5 0.24,-7.51 0.14,-8.03 0.42,-16.05 0.71,-24.07 0.3,-8.09 0.64,-16.17 1.02,-24.25 0.14,-3 0.28,-5.99 0.45,-8.98 0.21,-3.81 -0.01,-7.21 3.99,-8.8 10.41,-4.14 23.17,-2.79 34.17,-2.97 10.49,-0.16 20.95,0.87 31.42,1.15 3.28,0.09 6.53,0.66 9.85,0.71 3.19,0.04 6.74,0.32 9.01,2.87 1.17,1.31 1.78,2.98 2.08,4.69 0.31,1.77 0.84,3.45 1.03,5.27 1.07,10.07 1.67,20.18 2.39,30.28 0.33,4.47 0.68,8.93 1.12,13.38 0.52,5.41 0.93,11.18 0.49,16.59 z" />
  </g>
  <path
     inkscape:connector-curvature="0"
     id="path8"
     style="fill:#d97336;fill-opacity:1"
     d="m 8.3600989,110.8645 c 2.3900001,2.99 3.5900001,-0.6 3.5900001,-0.6 0.6,-11.97 14.36,-12.57 14.36,-12.57 8.08,-1.5 91.110001,-0.39 91.110001,-0.39 1.61,0.06 3.17,-1.01 3.92,-2.4 0.96,-1.76 0.62,-5.16 0.39,-7.11 -0.23,-1.95 -0.23,-3.95 -0.45,-5.92 -0.85,-7.63 -1.62,-15.26 -2.4,-22.89 -1.03,-10.22 -2.04,-20.43 -3.22,-30.63 -0.5,-4.37 -0.75,-8.86 -2.09,-13.07 -2.33,-7.3200002 -11,-6.7200001 -17.110001,-7.1800001 -10.01,-0.7500001 -19.92,-1.15 -29.97,-1.1000001 -5.7,0.03 -11.41,0.1 -17.11,0.21 -5.2,0.1 -10.41,0.13 -15.62,0.3600001 -2.61,0.12 -5.25,0.3999999 -7.86,0.63 -5.78,0.52 -11.6,3.2200001 -14.43,8.4200001 -1.25,2.31 -1.8500001,4.98 -2.2300001,7.56 -1.04,7.07 -1.67,14.18 -2.12,21.3 -0.46,7.09 -0.51,14.19 -0.54,21.29 -0.03,8.58 -0.54,17.15 -0.54,25.72 -0.01,6.27 -0.37,12.9 2.28,18.41 z" />
  <path
     style="fill:none;fill-opacity:1;stroke:#ffffff;stroke-width:1.60000002;stroke-miterlimit:4;stroke-dasharray:none;stroke-opacity:1"
     d="m 61.929787,22.553328 c -25.446415,0 -26.528984,28.910481 -26.634766,35.197266 -0.109198,6.48988 12.956038,12.031272 29.287109,12.175781 C 81.008771,70.071729 93.689286,64.703828 92.83799,58.131453 92.014222,51.771669 87.616401,22.553328 61.929787,22.553328 Z"
     id="path4337"
     inkscape:connector-curvature="0" />
  <g
     id="g4314"
     transform="matrix(0.44236988,0,0,0.44236988,33.632568,19.747537)"
     style="stroke-width:2.26055169">
    <path
       inkscape:connector-curvature="0"
       id="path4505"
       d="m 96.388171,57.458463 c 0.993353,0.01459 1.797601,0.214294 2.565917,0.682985 0,0 0.0021,9e-6 0.0021,9e-6 0.317159,0.193381 0.589339,0.498031 0.794499,1.368366 0.205578,0.872114 0.209261,2.200284 -0.102207,3.710635 -0.358732,1.739403 -1.131737,3.70856 -2.222621,5.627958 -6.809057,1.100064 -27.672526,3.561615 -60.125615,-0.490624 -1.232506,-1.864173 -2.172995,-3.761973 -2.703243,-5.442319 -0.475228,-1.505995 -0.619139,-2.828388 -0.512554,-3.695353 0.106373,-0.865241 0.342758,-1.16437 0.632718,-1.352961 0.944367,-0.612336 2.00806,-0.751258 3.522896,-0.605889 1.516547,0.145533 3.334131,0.632027 5.25178,1.015742 0,0 -0.0021,-0.002 -0.0021,-0.002 10.242749,2.052288 19.175392,2.168587 23.397973,2.187475 4.22553,0.0189 13.173302,-0.01758 23.252668,-1.986848 0,0 1.64e-4,0.002 1.64e-4,0.002 1.890883,-0.368904 3.670383,-0.842184 5.18527,-0.975552 0.378704,-0.03334 0.731319,-0.04849 1.062394,-0.04362 0,0 0,2e-6 0,2e-6"
       style="fill:#ffffff;fill-opacity:1;stroke:none;stroke-width:2.93871713;stroke-miterlimit:4;stroke-dasharray:none;stroke-opacity:1" />
    <path
       id="path2-3"
       style="fill:#fcc21b;stroke-width:2.26055169"
       d="m 63.968179,6.3416531 c 58.065921,0 68.007221,66.0505719 69.869391,80.4271919 1.9244,14.857195 -26.73994,26.990145 -63.873211,26.661565 C 33.047127,113.10374 3.5093498,100.57962 3.7561991,85.908909 3.9953236,71.697307 6.4452414,6.3416531 63.968179,6.3416531 c 0,0 0,0 0,0"
       inkscape:connector-curvature="0" />
    <path
       inkscape:connector-curvature="0"
       id="path32"
       style="fill:#2f2f2f;stroke-width:2.26055169"
       d="m 97.228614,44.899945 c 0.876747,1.229331 2.539438,1.638068 3.730766,0.902879 1.18949,-0.734061 1.44399,-2.310273 0.59148,-3.541687 -0.20425,-0.295364 -5.147444,-7.198938 -14.571357,-7.221254 -9.418904,-0.0223 -13.222285,6.844888 -13.387381,7.138489 -0.658432,1.223956 -0.127511,2.827503 1.176004,3.558411 0.445233,0.250366 0.910993,0.366829 1.378876,0.368366 0.896876,0.0029 1.752698,-0.444325 2.192498,-1.255697 0.111752,-0.209765 2.689844,-4.704654 9.057807,-4.686883 6.373819,0.0083 9.67597,4.536007 9.831307,4.737376 0,0 0,0 0,0" />
    <path
       inkscape:connector-curvature="0"
       id="path34"
       style="fill:#2f2f2f;stroke-width:2.26055169"
       d="m 31.147213,45.585309 c 0.419646,0.249379 0.885859,0.365427 1.331013,0.366888 0.909768,0.003 1.782046,-0.46167 2.26016,-1.269938 0.102706,-0.189996 2.873033,-4.668038 9.204974,-4.650373 6.444609,0.01798 9.498078,4.662137 9.529124,4.709897 0.798358,1.234154 2.429238,1.660463 3.659515,0.928057 1.219139,-0.721777 1.570541,-2.320587 0.767674,-3.5474 -0.187703,-0.294249 -4.742974,-7.171963 -14.109294,-7.194135 -9.342259,-0.02211 -13.460015,6.819516 -13.629308,7.112043 -0.716144,1.228837 -0.270903,2.816837 0.986142,3.544961 0,0 0,0 0,0" />
    <path
       id="path10"
       style="fill:#ec6c31;fill-opacity:1;stroke:none;stroke-width:11.30275822;stroke-miterlimit:4;stroke-dasharray:none;stroke-opacity:1"
       d="m 34.748999,55.173266 c 2.97946,-2.022447 6.816233,-0.664867 10.205968,0.0413 9.479114,1.9774 17.774454,2.090882 21.757114,2.107663 3.985284,0.01679 12.294168,-0.02689 21.609135,-1.932173 3.338176,-0.681815 7.058238,-2.01566 10.296827,0.04167 4.133087,2.62427 2.159717,12.093001 -3.457786,18.584575 C 91.725937,77.983713 83.300746,85.769173 68.295743,85.670803 53.327861,85.572676 44.084717,77.702196 40.236588,73.709809 33.951969,67.187745 30.96072,57.750055 34.748999,55.173266 c 0,0 0,0 0,0"
       inkscape:connector-curvature="0" />
    <path
       id="path4314"
       d="m 94.970897,56.781582 c 0.947077,0.01434 1.714321,0.213503 2.44797,0.681225 0,0 0.002,9e-6 0.002,9e-6 0.302846,0.192979 0.562911,0.495126 0.760662,1.363951 0.198153,0.870598 0.204966,2.196535 -0.08823,3.704427 -0.07927,0.407645 -0.182932,0.828777 -0.303589,1.258124 -8.008377,2.871346 -18.952626,4.454147 -30.468315,4.401814 -11.481103,-0.05928 -22.54086,-1.739106 -30.81095,-4.666776 -0.170721,-0.43655 -0.324536,-0.864706 -0.450341,-1.278571 -0.457095,-1.503723 -0.597703,-2.824196 -0.498229,-3.689956 0.09911,-0.862566 0.32272,-1.162747 0.598173,-1.3512 0.899596,-0.61256 1.91456,-0.750747 3.360597,-0.605872 1.446316,0.144903 3.180446,0.628449 5.009667,1.011069 9.773977,2.046702 18.292864,2.158631 22.319602,2.176418 4.029419,0.0178 12.56143,-0.01897 22.166824,-1.987565 1.801884,-0.368762 3.497456,-0.839773 4.94141,-0.973289 0.360969,-0.03337 0.697109,-0.04858 1.012763,-0.04381 0,0 0,2e-6 0,2e-6"
       style="vector-effect:none;fill:url(#linearGradient4367);fill-opacity:1;stroke:none;stroke-width:1.7632302;stroke-linejoin:round;stroke-miterlimit:4;stroke-dasharray:none"
       inkscape:connector-curvature="0" />
  </g>
  <g
     id="text4436"
     style="font-style:normal;font-weight:normal;font-size:10.66666698px;line-height:89.80000019%;font-family:Sans;letter-spacing:0px;word-spacing:0px;fill:#ffffff;fill-opacity:1;stroke:none;stroke-width:0.2;stroke-linecap:butt;stroke-linejoin:miter;stroke-miterlimit:4;stroke-dasharray:none;stroke-opacity:1"
     aria-label="Emojipedia The Book"
     transform="translate(0.19131471,-0.48589526)">
    <path
       id="path4444"
       style="font-style:normal;font-variant:normal;font-weight:bold;font-stretch:normal;font-size:10.66666698px;line-height:89.80000019%;font-family:'Comic Neue';-inkscape-font-specification:'Comic Neue Bold';fill:#ffffff;fill-opacity:1;stroke:none;stroke-width:0.2;stroke-miterlimit:4;stroke-dasharray:none;stroke-opacity:1"
       d="m 36.970684,81.537441 c 0,0 -0.09357,-2.292607 -0.09357,-2.292607 0,0 3.74762,-0.01742 3.74762,-0.01742 0.343638,-0.0016 0.589629,-0.250444 0.574916,-0.565392 -0.0147,-0.314677 -0.282904,-0.549627 -0.626043,-0.548449 0,0 -3.742139,0.01284 -3.742139,0.01284 0,0 -0.0831,-2.036032 -0.0831,-2.036032 0,0 4.294258,-0.0052 4.294258,-0.0052 0.341809,-4.16e-4 0.585817,-0.25727 0.571528,-0.558198 -0.01481,-0.311814 -0.282244,-0.556625 -0.623554,-0.556625 0,0 -4.891466,0 -4.891466,0 -0.345224,0 -0.607006,0.246445 -0.594718,0.560342 0,0 0.257826,6.586012 0.257826,6.586012 0.01252,0.319837 0.296566,0.569034 0.645309,0.56611 0,0 4.916402,-0.04122 4.916402,-0.04122 0.344766,-0.0029 0.591317,-0.254858 0.576243,-0.572541 -0.01506,-0.317412 -0.284908,-0.564772 -0.629166,-0.562313 0,0 -4.30035,0.03072 -4.30035,0.03072"
       inkscape:connector-curvature="0" />
    <path
       id="path4446"
       style="font-style:normal;font-variant:normal;font-weight:bold;font-stretch:normal;font-size:10.66666698px;line-height:89.80000019%;font-family:'Comic Neue';-inkscape-font-specification:'Comic Neue Bold';fill:#ffffff;fill-opacity:1;stroke:none;stroke-width:0.2;stroke-miterlimit:4;stroke-dasharray:none;stroke-opacity:1"
       d="m 49.734944,76.871779 c -0.564107,0.0012 -1.218871,0.3246 -1.742178,0.871013 -0.374775,-0.666521 -1.000914,-0.86526 -1.544277,-0.864121 -0.652892,0.0014 -1.258619,0.459699 -1.774587,1.041907 0,0 -0.01956,-0.379851 -0.01956,-0.379851 -0.01437,-0.279051 -0.28243,-0.535023 -0.610308,-0.534292 -0.303801,6.78e-4 -0.570658,0.258173 -0.556715,0.537582 0,0 0.226793,4.54491 0.226793,4.54491 0.01469,0.294419 0.308292,0.530029 0.614319,0.527464 0.318049,-0.0027 0.574759,-0.242584 0.559619,-0.536621 0,0 -0.119527,-2.321445 -0.119527,-2.321445 -0.01272,-0.24706 0.0076,-0.325755 0.06379,-0.415824 0.616964,-0.988526 1.282999,-1.460072 1.67029,-1.461311 0.253981,-8.13e-4 0.597899,0.09844 0.649887,1.047418 0,0 0.171591,3.132162 0.171591,3.132162 0.01606,0.293243 0.30855,0.52792 0.612159,0.525375 0.327671,-0.0027 0.569022,-0.241596 0.552516,-0.53446 0,0 -0.141032,-2.502383 -0.141032,-2.502383 -0.05539,-0.982835 0.928869,-1.676987 1.445608,-1.67864 0.240144,-7.68e-4 0.606046,0.09805 0.662087,1.043567 0,0 0.184961,3.120674 0.184961,3.120674 0.01732,0.292163 0.296715,0.526084 0.610174,0.523457 0.301198,-0.0025 0.563775,-0.240689 0.546024,-0.532475 0,0 -0.185538,-3.04992 -0.185538,-3.04992 -0.10601,-1.742618 -1.085129,-2.105845 -1.876097,-2.104186 0,0 -4e-6,0 -4e-6,0"
       inkscape:connector-curvature="0" />
    <path
       id="path4448"
       style="font-style:normal;font-variant:normal;font-weight:bold;font-stretch:normal;font-size:10.66666698px;line-height:89.80000019%;font-family:'Comic Neue';-inkscape-font-specification:'Comic Neue Bold';fill:#ffffff;fill-opacity:1;stroke:none;stroke-width:0.2;stroke-miterlimit:4;stroke-dasharray:none;stroke-opacity:1"
       d="m 56.1393,82.517375 c 1.511559,-0.01267 2.697394,-1.380614 2.583449,-2.998274 -0.09638,-1.368349 -1.240118,-2.553651 -2.621968,-2.550584 -1.504772,0.0033 -2.690301,1.366973 -2.588292,2.97767 0.09042,1.427728 1.229765,2.5829 2.626811,2.571188 0,0 0,0 0,0 m -0.02005,-4.567592 c 0.733792,-0.0024 1.377108,0.756969 1.437258,1.630602 0.07099,1.031114 -0.63885,1.937153 -1.483449,1.943301 -0.774617,0.0056 -1.347513,-0.726781 -1.403862,-1.594996 -0.06845,-1.054687 0.596403,-1.976082 1.450053,-1.978907 0,0 0,0 0,0"
       inkscape:connector-curvature="0" />
    <path
       id="path4450"
       style="font-style:normal;font-variant:normal;font-weight:bold;font-stretch:normal;font-size:10.66666698px;line-height:89.80000019%;font-family:'Comic Neue';-inkscape-font-specification:'Comic Neue Bold';fill:#ffffff;fill-opacity:1;stroke:none;stroke-width:0.2;stroke-miterlimit:4;stroke-dasharray:none;stroke-opacity:1"
       d="m 60.738951,82.356415 c -0.08698,-0.221739 -0.27526,-0.3759 -0.570341,-0.373591 -0.342537,0.0027 -0.560658,0.260407 -0.540792,0.538736 0.0048,0.06683 0.034,0.144611 0.04902,0.189076 0.112987,0.255525 0.802,1.600855 2.031499,1.588036 1.296763,-0.01352 1.41965,-1.340051 1.363944,-2.072444 -0.0118,-0.15517 -0.120319,-1.581892 -0.234233,-2.772013 -0.08687,-0.988918 -0.179353,-1.898557 -0.186006,-1.986123 -0.02161,-0.284445 -0.308105,-0.524366 -0.599829,-0.523722 -0.338638,7.47e-4 -0.54353,0.231103 -0.520694,0.537815 0.01224,0.164415 0.124788,1.361275 0.225149,2.551009 0.09243,1.082871 0.193587,2.124409 0.203516,2.257603 0.02153,0.288754 0.0502,0.989579 -0.350529,0.993302 -0.35388,0.0033 -0.700684,-0.539559 -0.870695,-0.927684 0,0 -4e-6,0 -4e-6,0 m 1.858541,-6.831342 c 0.0034,-0.261168 -0.228281,-0.554742 -0.588994,-0.554742 -0.267814,0 -0.511948,0.163268 -0.526607,0.435559 0,0 -0.01171,0.468852 -0.01171,0.468852 -0.003,0.27288 0.250844,0.545563 0.577556,0.545033 0.244878,-3.97e-4 0.537093,-0.142729 0.538828,-0.426272 0,0 0.01093,-0.46843 0.01093,-0.46843"
       inkscape:connector-curvature="0" />
    <path
       id="path4452"
       style="font-style:normal;font-variant:normal;font-weight:bold;font-stretch:normal;font-size:10.66666698px;line-height:89.80000019%;font-family:'Comic Neue';-inkscape-font-specification:'Comic Neue Bold';fill:#ffffff;fill-opacity:1;stroke:none;stroke-width:0.2;stroke-miterlimit:4;stroke-dasharray:none;stroke-opacity:1"
       d="m 65.568621,77.525413 c -0.02354,-0.294468 -0.286022,-0.53368 -0.610647,-0.532943 -0.313255,7.1e-4 -0.549843,0.24136 -0.526728,0.536206 0,0 0.284462,4.374315 0.284462,4.374315 0.02339,0.298625 0.299671,0.539972 0.615139,0.537327 0.315244,-0.0026 0.552523,-0.247982 0.528704,-0.54622 0,0 -0.29093,-4.368685 -0.29093,-4.368685 m -0.64946,-1.023193 c 0.31284,-5.38e-4 0.527047,-0.218482 0.515164,-0.511977 0,0 -0.02142,-0.412654 -0.02142,-0.412654 -0.0093,-0.260381 -0.28433,-0.520544 -0.585018,-0.520515 -0.289313,2.8e-5 -0.526181,0.227988 -0.515615,0.510398 0,0 0.01995,0.402274 0.01995,0.402274 0.01059,0.282954 0.28547,0.532992 0.586931,0.532474 0,0 0,0 0,0"
       inkscape:connector-curvature="0" />
    <path
       id="path4454"
       style="font-style:normal;font-variant:normal;font-weight:bold;font-stretch:normal;font-size:10.66666698px;line-height:89.80000019%;font-family:'Comic Neue';-inkscape-font-specification:'Comic Neue Bold';fill:#ffffff;fill-opacity:1;stroke:none;stroke-width:0.2;stroke-miterlimit:4;stroke-dasharray:none;stroke-opacity:1"
       d="m 69.949643,76.937779 c -0.734542,0.0016 -1.282205,0.187463 -1.687152,0.438495 -0.07757,-0.238991 -0.301212,-0.434081 -0.566233,-0.433493 -0.322847,7.16e-4 -0.546376,0.229674 -0.521344,0.534454 0,0 0.523246,6.370677 0.523246,6.370677 0.02276,0.277083 0.299926,0.529467 0.602539,0.526263 0.290777,-0.0031 0.536817,-0.260683 0.513671,-0.537413 0,0 -0.141277,-1.689096 -0.141277,-1.689096 0.321097,0.09658 0.710563,0.181532 1.115418,0.178173 2.053269,-0.01704 2.41094,-1.696513 2.301759,-2.928947 -0.103048,-1.163208 -0.869536,-2.461934 -2.140627,-2.459113 0,0 0,0 0,0 m -0.182613,4.32148 c -0.438915,0.0031 -0.915241,-0.158347 -1.189601,-0.255348 0,0 -0.198657,-2.375138 -0.198657,-2.375138 0.186565,-0.251643 0.666308,-0.710886 1.562986,-0.713864 0.768777,-0.0026 1.058483,0.953434 1.105014,1.487207 0.09136,1.048005 -0.207382,1.849536 -1.279742,1.857143 0,0 0,0 0,0"
       inkscape:connector-curvature="0" />
    <path
       id="path4456"
       style="font-style:normal;font-variant:normal;font-weight:bold;font-stretch:normal;font-size:10.66666698px;line-height:89.80000019%;font-family:'Comic Neue';-inkscape-font-specification:'Comic Neue Bold';fill:#ffffff;fill-opacity:1;stroke:none;stroke-width:0.2;stroke-miterlimit:4;stroke-dasharray:none;stroke-opacity:1"
       d="m 77.560191,80.866741 c -0.225607,0.251755 -0.705552,0.462085 -1.080686,0.464797 -0.648713,0.0047 -1.159967,-0.220765 -1.531904,-0.665311 0,0 2.884064,-1.687459 2.884064,-1.687459 0.22467,-0.130688 0.319781,-0.314692 0.302006,-0.498107 -0.0491,-0.506612 -0.826387,-1.548461 -2.317649,-1.545133 -1.55311,0.0035 -2.44462,1.336413 -2.310021,2.82425 0.123285,1.362775 1.334946,2.600813 3.069171,2.586274 0.705425,-0.0059 1.454521,-0.372176 1.819471,-0.821625 0.0719,-0.07671 0.116906,-0.196704 0.104251,-0.327106 -0.02846,-0.293236 -0.275809,-0.508826 -0.581476,-0.506835 -0.147249,9.59e-4 -0.264588,0.0778 -0.357227,0.176255 0,0 0,0 0,0 m -3.023906,-1.199539 c -0.04222,-0.955218 0.501617,-1.715169 1.37497,-1.718124 0.520916,-0.0018 0.860292,0.115802 1.063868,0.352582 0,0 -2.438838,1.365542 -2.438838,1.365542"
       inkscape:connector-curvature="0" />
    <path
       id="path4458"
       style="font-style:normal;font-variant:normal;font-weight:bold;font-stretch:normal;font-size:10.66666698px;line-height:89.80000019%;font-family:'Comic Neue';-inkscape-font-specification:'Comic Neue Bold';fill:#ffffff;fill-opacity:1;stroke:none;stroke-width:0.2;stroke-miterlimit:4;stroke-dasharray:none;stroke-opacity:1"
       d="m 83.987653,75.543674 c -0.01911,-0.286787 -0.31187,-0.541505 -0.589056,-0.541495 -0.299559,1.1e-5 -0.508418,0.233801 -0.489719,0.520926 0,0 0.109247,1.588676 0.109247,1.588676 -0.321841,-0.09542 -0.731927,-0.180002 -1.155874,-0.179051 -1.767145,0.004 -2.303056,1.391444 -2.152687,2.912335 0.118814,1.201728 0.883739,2.423774 2.258037,2.412321 0.61815,-0.0052 1.090812,-0.215185 1.436093,-0.456369 0.04821,0.248836 0.263422,0.48558 0.588221,0.482858 0.30218,-0.0025 0.514329,-0.220919 0.495965,-0.50216 0,0 -0.500227,-6.238041 -0.500227,-6.238041 m -3.201232,4.263001 c -0.07574,-0.754835 0.02714,-1.8527 1.190964,-1.856666 0.413308,-0.0014 0.888566,0.168473 1.145042,0.274751 0,0 0.186084,2.225547 0.186084,2.225547 0.0246,0.237305 -0.531073,0.824876 -1.440041,0.831436 -0.730788,0.0053 -1.020267,-0.859274 -1.082053,-1.475068 0,0 4e-6,0 4e-6,0"
       inkscape:connector-curvature="0" />
    <path
       id="path4460"
       style="font-style:normal;font-variant:normal;font-weight:bold;font-stretch:normal;font-size:10.66666698px;line-height:89.80000019%;font-family:'Comic Neue';-inkscape-font-specification:'Comic Neue Bold';fill:#ffffff;fill-opacity:1;stroke:none;stroke-width:0.2;stroke-miterlimit:4;stroke-dasharray:none;stroke-opacity:1"
       d="m 86.999929,77.463942 c -0.03135,-0.287363 -0.288637,-0.520819 -0.597834,-0.520117 -0.298362,6.76e-4 -0.516408,0.235502 -0.485439,0.523224 0,0 0.403702,4.267965 0.403702,4.267965 0.03133,0.291321 0.301777,0.52681 0.602139,0.524292 0.300154,-0.0025 0.518703,-0.241807 0.48698,-0.53276 0,0 -0.409548,-4.262604 -0.409548,-4.262604 m -0.649682,-0.99855 c 0.297981,-5.12e-4 0.495418,-0.213201 0.475195,-0.499637 0,0 -0.03292,-0.402738 -0.03292,-0.402738 -0.01671,-0.25413 -0.286648,-0.508052 -0.573082,-0.508024 -0.275594,2.6e-5 -0.494304,0.222511 -0.475662,0.498133 0,0 0.03122,0.392596 0.03122,0.392596 0.01868,0.276141 0.288104,0.520163 0.575243,0.51967 0,0 0,0 0,0"
       inkscape:connector-curvature="0" />
    <path
       id="path4462"
       style="font-style:normal;font-variant:normal;font-weight:bold;font-stretch:normal;font-size:10.66666698px;line-height:89.80000019%;font-family:'Comic Neue';-inkscape-font-specification:'Comic Neue Bold';fill:#ffffff;fill-opacity:1;stroke:none;stroke-width:0.2;stroke-miterlimit:4;stroke-dasharray:none;stroke-opacity:1"
       d="m 92.724708,77.246554 c -0.207198,-0.09463 -1.015797,-0.483948 -1.801998,-0.482318 -1.916881,0.004 -2.414985,1.952316 -2.292881,3.052637 0.155825,1.4042 1.178602,2.342872 2.39193,2.332805 0.440369,-0.0037 0.853255,-0.146667 1.197227,-0.310394 0.07967,0.213935 0.273963,0.373323 0.559313,0.37093 0.307089,-0.0026 0.496247,-0.261458 0.463709,-0.539723 0,0 -0.5173,-4.423937 -0.5173,-4.423937 m -0.673339,3.426726 c -0.254519,0.172828 -0.718013,0.443716 -1.157839,0.446841 -0.770774,0.0055 -1.131891,-0.753158 -1.196807,-1.33059 -0.0804,-0.715189 0.19073,-2.015264 1.363149,-2.019058 0.229729,-7.43e-4 0.509166,0.05138 0.703515,0.124975 0,0 0.287982,2.777832 0.287982,2.777832"
       inkscape:connector-curvature="0" />
    <path
       id="path4464"
       style="font-style:normal;font-variant:normal;font-weight:bold;font-stretch:normal;font-size:10.66666698px;line-height:89.80000019%;font-family:'Comic Neue';-inkscape-font-specification:'Comic Neue Bold';fill:#ffffff;fill-opacity:1;stroke:none;stroke-width:0.2;stroke-miterlimit:4;stroke-dasharray:none;stroke-opacity:1"
       d="m 41.017758,85.631185 c 0,0 -5.153145,0.06002 -5.153145,0.06002 -0.325565,0.0038 -0.604482,0.249498 -0.592106,0.572877 0.01194,0.312097 0.310749,0.574445 0.636798,0.570243 0,0 1.889041,-0.02435 1.889041,-0.02435 0,0 0.258238,6.202241 0.258238,6.202241 0.01271,0.305195 0.313535,0.569509 0.653242,0.562622 0.339455,-0.0069 0.604182,-0.282296 0.590987,-0.587067 0,0 -0.268159,-6.193705 -0.268159,-6.193705 0,0 2.037428,-0.02626 2.037428,-0.02626 0.34695,-0.0045 0.594612,-0.27202 0.580093,-0.581922 -0.01504,-0.321107 -0.285977,-0.558732 -0.632417,-0.554697 0,0 0,0 0,0"
       inkscape:connector-curvature="0" />
    <path
       id="path4466"
       style="font-style:normal;font-variant:normal;font-weight:bold;font-stretch:normal;font-size:10.66666698px;line-height:89.80000019%;font-family:'Comic Neue';-inkscape-font-specification:'Comic Neue Bold';fill:#ffffff;fill-opacity:1;stroke:none;stroke-width:0.2;stroke-miterlimit:4;stroke-dasharray:none;stroke-opacity:1"
       d="m 47.966587,92.863984 c 0.01911,-0.325522 -0.0038,-0.7427 -0.04254,-1.448528 -0.139781,-2.546087 -0.637334,-3.80097 -1.961595,-3.782552 -0.725069,0.01009 -1.415713,0.479646 -1.903222,1.097351 0,0 -0.123266,-2.469326 -0.123266,-2.469326 -0.01485,-0.297508 -0.261764,-0.557741 -0.618822,-0.553542 -0.332686,0.0039 -0.578883,0.270285 -0.564486,0.568185 0,0 0.321926,6.661414 0.321926,6.661414 0.0141,0.291826 0.313513,0.554698 0.624641,0.548386 0.323349,-0.0066 0.586289,-0.222113 0.567667,-0.59517 0,0 -0.08647,-1.732169 -0.08647,-1.732169 -0.01563,-0.313027 0.0076,-0.591689 0.107411,-0.825086 0.156856,-0.326704 0.858031,-1.596045 1.65815,-1.608133 0.282783,-0.0043 0.67959,0.288867 0.813146,2.792843 0.03894,0.730111 0.03098,1.043928 0.04707,1.34592 0.01611,0.302234 0.251475,0.542016 0.609463,0.534758 0.320715,-0.0065 0.554525,-0.24386 0.550925,-0.534351 0,0 -4e-6,0 -4e-6,0"
       inkscape:connector-curvature="0" />
    <path
       id="path4468"
       style="font-style:normal;font-variant:normal;font-weight:bold;font-stretch:normal;font-size:10.66666698px;line-height:89.80000019%;font-family:'Comic Neue';-inkscape-font-specification:'Comic Neue Bold';fill:#ffffff;fill-opacity:1;stroke:none;stroke-width:0.2;stroke-miterlimit:4;stroke-dasharray:none;stroke-opacity:1"
       d="m 53.644964,91.714574 c -0.250809,0.269592 -0.772531,0.498562 -1.174437,0.506232 -0.695044,0.01327 -1.234448,-0.219078 -1.61659,-0.685333 0,0 3.150581,-1.824192 3.150581,-1.824192 0.245339,-0.141257 0.353884,-0.337334 0.341531,-0.531356 -0.03412,-0.535885 -0.828412,-1.629346 -2.42539,-1.607094 -1.663457,0.02318 -2.667328,1.446196 -2.57781,3.020639 0.08201,1.442339 1.334717,2.738734 3.193074,2.701058 0.755827,-0.01532 1.571509,-0.413007 1.978734,-0.893858 0.07979,-0.08219 0.132359,-0.209886 0.123554,-0.347871 -0.0198,-0.31028 -0.276832,-0.535506 -0.604248,-0.5295 -0.157728,0.0029 -0.286194,0.08579 -0.388999,0.191275 0,0 0,0 0,0 m -3.19501,-1.232272 c -0.01019,-1.011348 0.60016,-1.823154 1.535622,-1.837299 0.557924,-0.0084 0.917061,0.11179 1.126418,0.359985 0,0 -2.66204,1.477314 -2.66204,1.477314"
       inkscape:connector-curvature="0" />
    <path
       id="path4470"
       style="font-style:normal;font-variant:normal;font-weight:bold;font-stretch:normal;font-size:10.66666698px;line-height:89.80000019%;font-family:'Comic Neue';-inkscape-font-specification:'Comic Neue Bold';fill:#ffffff;fill-opacity:1;stroke:none;stroke-width:0.2;stroke-miterlimit:4;stroke-dasharray:none;stroke-opacity:1"
       d="m 61.301654,93.139742 c 3.563538,-0.07234 5.186347,-1.004592 5.063693,-2.545256 -0.06922,-0.869483 -0.504403,-1.44934 -1.334212,-1.797255 0.281834,-0.319948 0.481112,-0.78445 0.429845,-1.435525 -0.02825,-0.358728 -0.428397,-2.010215 -2.829109,-1.982254 0,0 -2.010494,0.02341 -2.010494,0.02341 -0.308286,0.0036 -0.562676,0.264962 -0.541747,0.557048 0,0 0.47037,6.56456 0.47037,6.56456 0.03773,0.52651 0.332654,0.623772 0.751654,0.615267 0,0 0,0 0,0 m 0.232578,-3.528771 c 0,0 1.994763,-0.03264 1.994763,-0.03264 0.722089,-0.01181 1.608493,0.278977 1.667628,1.036668 0.069,0.884026 -1.536873,1.312475 -3.487483,1.383794 0,0 -0.174908,-2.387826 -0.174908,-2.387826 m -0.226544,-3.092763 c 0,0 1.408389,-0.01817 1.408389,-0.01817 1.415743,-0.01827 1.570555,0.765592 1.581821,0.911574 0.03903,0.505764 -0.358033,1.030074 -0.961117,1.039178 0,0 -1.885447,0.02846 -1.885447,0.02846 0,0 -0.143646,-1.961043 -0.143646,-1.961043"
       inkscape:connector-curvature="0" />
    <path
       id="path4472"
       style="font-style:normal;font-variant:normal;font-weight:bold;font-stretch:normal;font-size:10.66666698px;line-height:89.80000019%;font-family:'Comic Neue';-inkscape-font-specification:'Comic Neue Bold';fill:#ffffff;fill-opacity:1;stroke:none;stroke-width:0.2;stroke-miterlimit:4;stroke-dasharray:none;stroke-opacity:1"
       d="m 70.336376,92.933645 c 1.486589,-0.03014 2.625396,-1.430888 2.480627,-3.070009 -0.122458,-1.386506 -1.271452,-2.575407 -2.630654,-2.556485 -1.480107,0.0206 -2.618691,1.416993 -2.485795,3.049186 0.117799,1.446777 1.261857,2.605164 2.635822,2.577308 0,0 0,0 0,0 m -0.11203,-4.631627 c 0.721748,-0.01086 1.369895,0.751868 1.446716,1.637107 0.09067,1.044811 -0.58926,1.971717 -1.419926,1.987612 -0.761837,0.01458 -1.340168,-0.721591 -1.413143,-1.601375 -0.08865,-1.068744 0.546715,-2.010712 1.386353,-2.023344 0,0 0,0 0,0"
       inkscape:connector-curvature="0" />
    <path
       id="path4474"
       style="font-style:normal;font-variant:normal;font-weight:bold;font-stretch:normal;font-size:10.66666698px;line-height:89.80000019%;font-family:'Comic Neue';-inkscape-font-specification:'Comic Neue Bold';fill:#ffffff;fill-opacity:1;stroke:none;stroke-width:0.2;stroke-miterlimit:4;stroke-dasharray:none;stroke-opacity:1"
       d="m 76.86045,92.801378 c 1.464795,-0.0297 2.57425,-1.419758 2.416478,-3.046631 -0.133462,-1.376187 -1.27686,-2.556373 -2.61629,-2.537727 -1.458541,0.0203 -2.567725,1.406149 -2.42164,3.026113 0.129487,1.435895 1.267662,2.585691 2.621452,2.558245 0,0 0,0 0,0 m -0.153176,-4.596893 c 0.711231,-0.0107 1.357063,0.746412 1.440937,1.625049 0.09899,1.036999 -0.562563,1.956853 -1.381063,1.972515 -0.75067,0.01436 -1.327426,-0.716337 -1.40748,-1.589517 -0.09725,-1.060742 0.520215,-1.995599 1.347606,-2.008047 0,0 0,0 0,0"
       inkscape:connector-curvature="0" />
    <path
       id="path4476"
       style="font-style:normal;font-variant:normal;font-weight:bold;font-stretch:normal;font-size:10.66666698px;line-height:89.80000019%;font-family:'Comic Neue';-inkscape-font-specification:'Comic Neue Bold';fill:#ffffff;fill-opacity:1;stroke:none;stroke-width:0.2;stroke-miterlimit:4;stroke-dasharray:none;stroke-opacity:1"
       d="m 85.473475,91.691065 c -0.44714,-0.480779 -1.238848,-1.332612 -2.105914,-2.26013 0.420974,-0.427431 1.026913,-1.132636 1.387878,-1.677868 0.04942,-0.06675 0.09424,-0.177413 0.07929,-0.320158 -0.02989,-0.285325 -0.277956,-0.501569 -0.582022,-0.497397 -0.202829,0.0028 -0.327868,0.103422 -0.416868,0.22561 -0.525995,0.712377 -1.391807,1.675782 -1.963861,2.205832 0,0 -0.370221,-3.570869 -0.370221,-3.570869 -0.02865,-0.285086 -0.268913,-0.534568 -0.597184,-0.530707 -0.294523,0.0035 -0.532417,0.236911 -0.504157,0.522344 0,0 0.65566,6.390887 0.65566,6.390887 0.02767,0.279399 0.316228,0.531296 0.602005,0.525503 0.31985,-0.0065 0.53376,-0.268243 0.505712,-0.54728 0,0 -0.162271,-1.614329 -0.162271,-1.614329 0.149262,-0.102789 0.383788,-0.262599 0.614709,-0.455515 0.369959,0.393516 1.395366,1.520734 2.104602,2.331823 0.114823,0.120431 0.280558,0.184039 0.450619,0.180598 0.328598,-0.0066 0.516839,-0.266825 0.485271,-0.566915 -0.01636,-0.155508 -0.107219,-0.265018 -0.183251,-0.341429 0,0 7e-6,0 7e-6,0"
       inkscape:connector-curvature="0" />
  </g>
</svg>
