<?xml version="1.0" encoding="utf-8"?>
<!-- Generator: Adobe Illustrator 19.2.1, SVG Export Plug-In . SVG Version: 6.00 Build 0)  -->
<svg version="1.1" id="レイヤー_1" xmlns="http://www.w3.org/2000/svg" xmlns:xlink="http://www.w3.org/1999/xlink" x="0px"
	 y="0px" viewBox="0 0 128 128" style="enable-background:new 0 0 128 128;" xml:space="preserve">
<g>
	<polygon style="fill:#FCC21B;" points="81.49,75.3 88.4,103.45 64,88 39.61,103.45 46.53,75.3 24.53,57.04 53.2,54.74 64,28.36 
		74.81,54.74 103.47,57.04 	"/>
	<path style="fill:#F79329;" d="M127.19,49.52c-0.4-1.26-1.52-2.16-2.84-2.27l-41.64-3.32L67.03,5.62C66.52,4.39,65.33,3.6,64,3.6
		c-1.32,0-2.51,0.79-3.02,2.02L45.3,43.93L3.65,47.25c-1.32,0.11-2.44,1.01-2.85,2.27c-0.38,1.27,0.01,2.65,1.03,3.5l31.9,26.49
		l-10.03,40.85c-0.32,1.29,0.18,2.65,1.26,3.42c0.57,0.42,1.23,0.62,1.9,0.62c0.61,0,1.22-0.17,1.75-0.5L64,101.5l35.39,22.39
		c1.13,0.72,2.57,0.67,3.65-0.11c1.08-0.77,1.58-2.13,1.26-3.42L94.27,79.51l31.9-26.5C127.19,52.17,127.6,50.79,127.19,49.52z
		 M81.49,75.3l6.92,28.15L64,88l-24.4,15.44l6.92-28.15l-22-18.26l28.67-2.29L64,28.36l10.81,26.38l28.66,2.29L81.49,75.3z"/>
</g>
</svg>
