<svg enable-background="new 0 0 128 128" viewBox="0 0 128 128" xmlns="http://www.w3.org/2000/svg"><symbol viewBox="-64.5 -64.5 129 129"><g fill="none" stroke="#4285F4" stroke-miterlimit="10"><rect x="-64" y="-64" width="128" height="128"/><path d="M36.95,37.82C27.32,46.32,14.2,51,0,51 c-14.27,0-27.39-4.62-36.96-13.01C-47.45,28.79-53,15.65-53,0c0-15.58,5.55-28.69,16.04-37.92C-27.36-46.35-14.24-51,0-51 c14.17,0,27.29,4.71,36.95,13.25C47.45-28.45,53-15.4,53,0C53,15.47,47.45,28.55,36.95,37.82z"/><path d="m0 55c-29.59 0-57-19.01-57-55 0-35.8 27.41-55 57-55s57 19.69 57 55c0 35.51-27.41 55-57 55z"/><path d="M0-43c-12.29,0-23.54,3.94-31.68,11.09 C-40.39-24.25-45-13.21-45,0c0,29.7,22.6,43,45,43c21.67,0,45-13.46,45-43S21.67-43,0-43L0-43z"/><line x1="-.01" x2="-.01" y1="51" y2="-51"/><line x1="-16" x2="-16" y1="48.95" y2="-48.93"/><line x1="15.99" x2="15.99" y1="48.91" y2="-48.93"/><line x1="53" x2="-53" y1=".08" y2=".08"/></g></symbol><linearGradient id="b" x1="64" x2="64" y1="20.717" y2="108.7" gradientUnits="userSpaceOnUse"><stop stop-color="#FEE133" offset=".4506"/><stop stop-color="#FDD831" offset=".5441"/><stop stop-color="#FABF2A" offset=".6975"/><stop stop-color="#F6A323" offset=".837"/></linearGradient><path d="M64,120.89C36.07,120.89,6,103.4,6,65S36.07,9.11,64,9.11c15.48,0,29.81,5.12,40.36,14.43 C115.9,33.72,122,48.06,122,65c0,16.86-6.1,31.17-17.64,41.39C93.78,115.74,79.45,120.89,64,120.89z" fill="url(#b)"/><path d="m64 11.11c14.99 0 28.86 4.95 39.03 13.93 11.1 9.79 16.97 23.61 16.97 39.96 0 16.27-5.87 30.07-16.97 39.89-10.21 9.03-24.07 14-39.03 14-15.04 0-28.9-4.91-39.04-13.82-11.1-9.75-16.96-23.61-16.96-40.07 0-16.54 5.86-30.42 16.96-40.15 10.11-8.86 23.97-13.74 39.04-13.74m0-4c-31.15 0-60 20-60 57.89 0 37.68 28.85 57.89 60 57.89s60-20.73 60-57.89c0-37.37-28.85-57.89-60-57.89z" fill="#EB8F00"/><path d="m39.64 10.69c-0.45-0.76-0.52-1.67-0.17-2.44 0.35-0.76 1.05-1.28 1.98-1.45 5.29-0.9 10.95 0.39 15.54 3.53 1.71 1.16 3.22 2.56 4.48 4.15 0.09 0.12 0.16 0.22 0.22 0.33 0.67 1.13 0.46 2.43-0.52 3.25-0.89 0.74-2.41 0.96-3.58-0.06l0.41-0.68-0.51 0.6c-4.31-3.64-9.98-5.79-15.54-5.91-0.97-0.02-1.82-0.5-2.31-1.32z" fill="#EB8F00" stroke="#EB8F00" stroke-miterlimit="10"/><path d="m90.67 18.28c0.81 0.36 1.39 1.07 1.55 1.89s-0.11 1.65-0.77 2.33c-3.8 3.8-9.16 6.02-14.72 6.11-2.07 0.04-4.11-0.23-6.06-0.8-0.14-0.04-0.26-0.09-0.37-0.14-1.2-0.53-1.78-1.72-1.45-2.95 0.3-1.12 1.41-2.18 2.96-2.02l0.06 0.8 0.07-0.79c5.62 0.47 11.49-1.04 16.09-4.16 0.79-0.56 1.76-0.66 2.64-0.27z" fill="#EB8F00" stroke="#EB8F00" stroke-miterlimit="10"/><path d="m76.11 69.49c-0.32-0.06-0.62-0.21-0.87-0.43-4.26-3.68-9.59-6.3-15.51-7.63-5.91-1.33-11.85-1.26-17.28 0.24-0.32 0.09-0.66 0.09-0.97 0.01-0.69-0.18-1.23-0.75-1.36-1.46-0.13-0.69 0.16-1.38 0.75-1.79 5.92-4.08 13.28-5.47 20.4-3.86 7.12 1.6 13.18 6.01 16.77 12.24 0.36 0.62 0.33 1.37-0.09 1.94-0.41 0.59-1.14 0.87-1.84 0.74z" fill="#242424"/><linearGradient id="a" x1="14.615" x2="46.992" y1="115.8" y2="64.922" gradientUnits="userSpaceOnUse"><stop stop-color="#F6A323" offset=".0076054"/><stop stop-color="#F7A724" offset=".0255"/><stop stop-color="#FAC12B" offset=".1452"/><stop stop-color="#FCD32F" offset=".2697"/><stop stop-color="#FEDE32" offset=".4008"/><stop stop-color="#FEE133" offset=".5494"/></linearGradient><path d="m27.2 123.52c-4.08 0-7.68-1.15-11.01-3.52-6.22-4.43-7.28-11.71-8.2-18.13-0.52-3.58-0.11-5.85 0.25-7.85 0.38-2.12 0.71-3.96-0.08-7.41-0.18-0.78-0.72-2.01-1.23-3.2-1.46-3.35-3.12-7.15-1.1-9.6 1.07-1.3 2.92-2.05 5.06-2.05 1.93 0 3.77 0.63 5.04 1.73 2.73 2.36 4.02 4.88 5.52 10.8 0.61 2.42 1.45 3.15 2.78 3.66 0.27 0.11 0.59 0.16 0.97 0.16 1.51 0 4.02-0.8 8.39-2.67 1.65-0.71 3.75-1.73 5.97-2.82 6.85-3.36 14.62-7.16 19.91-7.16 0.87 0 1.67 0.1 2.38 0.31 2.45 0.71 4.11 2.35 4.57 4.49 0.45 2.14-0.41 4.49-2.2 6-1.84 1.55-9.99 5.37-14.96 7.22 0.41 0.38 0.75 0.83 1.01 1.33 0.77 1.49 0.77 3.34 0 5.65-0.15 0.44-0.33 0.81-0.52 1.11 1.43 1.78 1.81 3.93 1.1 6.25-0.16 0.53-0.38 0.96-0.66 1.34 0.66 0.73 1.38 1.95 1.06 3.97-0.75 4.69-5.75 6.16-12.67 8.19-0.71 0.21-1.44 0.42-2.2 0.65-3.47 1.05-6.46 1.55-9.18 1.55z" fill="url(#a)"/><path d="m10.88 73.78c1.35 0 2.76 0.4 3.73 1.24 2.4 2.08 3.48 4.24 4.89 9.78 0.76 2.98 2.01 4.27 4.01 5.04 0.5 0.19 1.05 0.29 1.68 0.29 1.92 0 4.64-0.89 9.18-2.82 6.48-2.76 18.54-9.82 25.09-9.82 0.67 0 1.28 0.07 1.82 0.23 4.08 1.19 3.94 5.09 1.63 7.04-1.59 1.34-10.65 5.64-15.59 7.31-3.56 1.2-4.25 1.6-4.21 1.87 0.01 0.07 0.1 0.09 0.23 0.09 0.32 0 0.93-0.12 1.62-0.12 0.4 0 0.83 0.04 1.25 0.17 3.2 0.98 2.82 3.69 2.13 5.78-0.5 1.5-1.43 1.26-1.28 2.01 0.06 0.32 0.73 0.55 0.95 0.81 0.98 1.12 1.5 2.61 0.89 4.57-0.17 0.55-0.37 0.88-0.93 1.23-0.53 0.33-0.58 0.76-0.17 1.23 0.53 0.61 1.77 1.03 1.44 3.12-0.61 3.81-5.67 4.91-13.47 7.24-3.19 0.96-6.01 1.45-8.58 1.45-3.7 0-6.86-1.02-9.85-3.15-5.33-3.79-6.37-9.8-7.38-16.79s1.79-8.2 0.13-15.42c-0.69-3-4.56-8.87-2.74-11.08 0.73-0.85 2.1-1.3 3.53-1.3m0-4c-2.74 0-5.15 1.01-6.6 2.77-2.8 3.4-0.8 7.99 0.81 11.67 0.46 1.05 0.98 2.25 1.12 2.85 0.7 3.05 0.43 4.54 0.06 6.61-0.37 2.04-0.82 4.58-0.26 8.49 0.99 6.82 2.1 14.55 9.03 19.48 3.68 2.61 7.66 3.89 12.17 3.89 2.91 0 6.09-0.53 9.72-1.62 0.76-0.23 1.48-0.44 2.19-0.65 7.34-2.16 13.14-3.86 14.09-9.8 0.31-1.93-0.1-3.38-0.68-4.42 0.09-0.22 0.16-0.43 0.22-0.62 0.77-2.49 0.51-4.92-0.71-7 0.04-0.1 0.07-0.2 0.11-0.31 0.33-0.98 1.28-3.86 0.13-6.66 4.91-2.02 11.4-5.11 13.22-6.64 2.38-2.01 3.48-5.05 2.87-7.94-0.61-2.88-2.78-5.07-5.96-6-0.89-0.26-1.88-0.39-2.94-0.39-5.76 0-13.75 3.91-20.79 7.36-2.19 1.07-4.27 2.09-5.87 2.77-2.52 1.07-6.05 2.5-7.61 2.5-0.15 0-0.23-0.02-0.25-0.02-0.63-0.24-1.08-0.41-1.56-2.29-1.43-5.64-2.72-8.85-6.15-11.82-1.64-1.41-3.95-2.21-6.36-2.21z" fill="#EB8F00"/><path d="m80.77 31.11c4.19 0 8 3.54 8 9.42s-3.81 9.42-8 9.42-8-3.54-8-9.42 3.81-9.42 8-9.42z" fill="#242424"/><path d="m46.14 22.03c-4.19 0-8 3.54-8 9.42s3.81 9.42 8 9.42 8-3.54 8-9.42-3.8-9.42-8-9.42z" fill="#242424"/></svg>
