<svg enable-background="new 0 0 128 128" viewBox="0 0 128 128" xmlns="http://www.w3.org/2000/svg" xmlns:xlink="http://www.w3.org/1999/xlink"><defs><rect id="ab" x="-138" y="4" width="120" height="120"/></defs><clipPath id="a"><use xlink:href="#ab"/></clipPath><g clip-path="url(#a)"><defs><rect id="p" x="-142" width="128" height="128"/></defs><clipPath id="c"><use xlink:href="#p"/></clipPath><g clip-path="url(#c)"><radialGradient id="o" cx="-1360.5" cy="-480.32" r="137.58" gradientTransform="matrix(-.7071 -.7071 -.7071 .7071 -1401.2 -553.49)" gradientUnits="userSpaceOnUse"><stop stop-color="#E0BB95" offset=".3582"/><stop stop-color="#CCA47A" offset=".8723"/></radialGradient><path d="m-162.27 186.77c-11.49 0-22.52-5.2-32.79-15.47-28.1-28.1-34.45-44.27-26.13-66.52 3.4-9.11 17.58-32.15 18.86-34.21 1.07-1.08 8.9-8.95 15.12-15.83 6.47-7.15 11.55-16.06 12.16-17.14 0.74-0.94 1.87-1.5 3.06-1.5 0.67 0 1.31 0.18 1.87 0.53 7 4.32 9.36 9.53 7.23 15.93-1.55 4.66-5.81 9.55-9.24 13.48-3.98 4.57-6.61 7.59-5.63 10.13 0.16 0.4 0.3 0.83 0.44 1.24 0.64 1.88 1.31 3.83 3.11 3.83 0.75 0 1.46-0.39 2.1-1.17 1.06-1.12 34.54-32.64 52.09-49.14 3.27-3.27 6.56-4.98 9.55-4.98 2.15 0 4.14 0.91 5.93 2.7 2.2 2.2 3.06 4.71 2.56 7.44-0.47 2.57-2.13 5.34-4.8 8.01l-36.58 39.81c-0.54 0.58-0.53 1.49 0.03 2.06 0.29 0.3 0.68 0.46 1.08 0.46 0.35 0 0.7-0.12 0.98-0.37l54.86-47.41c0.03-0.02 0.05-0.05 0.08-0.07 3.23-3.23 6.53-4.94 9.52-4.94 2.15 0 4.14 0.91 5.93 2.7 5.75 5.75 1.06 12.15-2.24 15.45l-8.21 7.79c-0.59 0.56-0.62 1.5-0.07 2.11 0.3 0.32 0.7 0.48 1.1 0.48 0.36 0 0.72-0.13 1-0.38 2.92-2.63 5.87-4.01 8.54-4.01 2.15 0 4.14 0.91 5.93 2.7 2.2 2.2 3.06 4.71 2.56 7.44-0.47 2.57-2.13 5.34-4.8 8.01-0.03 0.03-0.05 0.06-0.08 0.09l-39.28 46.02c-0.51 0.6-0.47 1.49 0.09 2.04 0.29 0.29 0.67 0.43 1.05 0.43 0.35 0 0.71-0.12 0.99-0.37l26.96-23.74c3.3-3.3 6.6-5.01 9.59-5.01 2.15 0 4.14 0.91 5.93 2.7 3.91 3.91 2.94 8.07-3.35 14.35-0.59 0.56-61.17 58.51-71.75 65.83-5.58 3.87-14.53 8.5-25.35 8.5z" fill="url(#o)"/><path d="m-110.47 27.45c1.76 0 3.35 0.74 4.87 2.26 2.53 2.53 4.19 6.89-2.24 13.33l-0.09 0.09-36.53 39.77c-1.08 1.17-1.05 2.98 0.06 4.12 0.59 0.6 1.37 0.91 2.15 0.91 0.7 0 1.4-0.24 1.96-0.73l54.86-47.41c0.06-0.05 0.11-0.1 0.16-0.15 2.9-2.9 5.91-4.5 8.46-4.5 1.76 0 3.35 0.74 4.87 2.26 2.53 2.53 4.19 6.88-2.22 13.3l-8.18 7.77c-0.37 0.34-0.75 0.7-1.12 1.06-1.16 1.16-1.17 3.04-0.03 4.22 0.59 0.6 1.37 0.91 2.15 0.91 0.74 0 1.49-0.27 2.07-0.82l1-0.95c2.63-2.36 5.22-3.6 7.51-3.6 1.76 0 3.35 0.74 4.87 2.26 1.86 1.86 2.56 3.86 2.14 6.11-0.42 2.27-1.94 4.77-4.39 7.22-0.06 0.06-0.11 0.11-0.16 0.17l-39.28 46.02c-1.02 1.2-0.94 2.98 0.18 4.09 0.58 0.57 1.34 0.86 2.11 0.86 0.71 0 1.41-0.25 1.98-0.75l26.97-23.74c0.05-0.04 0.09-0.09 0.14-0.13 2.9-2.9 5.91-4.5 8.46-4.5 1.76 0 3.35 0.74 4.87 2.26 2.25 2.25 3.84 5.04-3.32 12.21-1.5 1.43-61.16 58.48-71.57 65.69-5.43 3.76-14.08 8.23-24.52 8.23-11.08 0-21.75-5.06-31.73-15.03-14.27-14.27-22.36-24.88-26.22-34.4-3.95-9.75-3.82-19.16 0.43-30.53 3.29-8.79 16.91-31 18.64-33.8 1.46-1.46 9-9.08 15.05-15.76 6.38-7.06 11.43-15.79 12.29-17.3 0.45-0.54 1.12-0.85 1.81-0.85 0.39 0 0.76 0.1 1.09 0.31 6.4 3.96 8.5 8.46 6.59 14.18-1.46 4.37-5.61 9.14-8.94 12.97-4.18 4.8-7.21 8.28-5.9 11.66 0.15 0.38 0.29 0.79 0.42 1.18 0.7 2.04 1.65 4.84 4.53 4.84 0.82 0 2.03-0.28 3.18-1.62 1.7-1.72 31.96-30.21 52.04-49.09 0.02-0.02 0.04-0.04 0.07-0.06 2.9-2.94 5.91-4.54 8.46-4.54m0-3c-3.61 0-7.31 2.11-10.58 5.38 0 0-51.53 48.45-52.22 49.27-0.36 0.44-0.67 0.62-0.95 0.62-0.95 0-1.44-2.26-2.15-4.11-1.36-3.52 11.71-13.06 14.89-22.6 3.39-10.18-4.46-15.57-7.86-17.68-0.83-0.51-1.75-0.75-2.66-0.75-1.64 0-3.27 0.78-4.31 2.18 0 0-5.3 9.54-12.01 16.96s-15.19 15.9-15.19 15.9-15.44 24.88-19.08 34.62c-8.92 23.87-0.97 40.66 26.48 68.11 11.76 11.76 23.42 15.91 33.85 15.91 10.29 0 19.38-4.03 26.22-8.77 10.81-7.48 71.96-66.01 71.96-66.01 5.47-5.47 8.79-11.03 3.35-16.47-2.19-2.19-4.57-3.14-6.99-3.14-3.61 0-7.31 2.11-10.58 5.38l-26.98 23.75 39.28-46.01c5.47-5.47 7.69-12.13 2.24-17.57-2.19-2.19-4.57-3.14-6.99-3.14-3.23 0-6.54 1.69-9.55 4.4l-1.03 0.98c0.34-0.34 0.69-0.67 1.03-0.98l8.24-7.82c5.47-5.47 7.69-12.13 2.24-17.57-2.19-2.19-4.57-3.14-6.99-3.14-3.61 0-7.31 2.11-10.58 5.38l-54.86 47.41 36.53-39.77c5.47-5.47 7.69-12.13 2.24-17.57-2.19-2.19-4.57-3.15-6.99-3.15z" fill="#BA8F63"/><linearGradient id="n" x1="-85.69" x2="-53.664" y1="50.544" y2="20.375" gradientUnits="userSpaceOnUse"><stop stop-color="#D32F2F" offset=".0794"/><stop stop-color="#F44336" offset=".79"/></linearGradient><path d="m-68.05 47.31c-8.49 8.49-11.74 5.57-15.54 1.77s-6.72-7.06 1.77-15.54 18.45-12.28 22.26-8.48c3.79 3.8 0 13.76-8.49 22.25z" fill="url(#n)"/><linearGradient id="k" x1="-122.94" x2="-93.704" y1="31.662" y2="31.662" gradientUnits="userSpaceOnUse"><stop stop-color="#D32F2F" offset="0"/><stop stop-color="#F44336" offset=".6444"/></linearGradient><path d="m-103.66 40.78c-8.49 8.49-11.74 5.57-15.54 1.77s-6.72-7.06 1.77-15.54 18.45-12.28 22.26-8.48 0 13.76-8.49 22.25z" fill="url(#k)"/><linearGradient id="g" x1="-79.066" x2="-49.686" y1="100.02" y2="100.02" gradientUnits="userSpaceOnUse"><stop stop-color="#D32F2F" offset="0"/><stop stop-color="#F44336" offset=".6444"/></linearGradient><path d="m-60.41 109.09c-8.77 7.86-11.8 4.83-15.32 0.9s-6.21-7.27 2.56-15.13 18.73-11.05 22.25-7.12c3.52 3.92-0.73 13.48-9.49 21.35z" fill="url(#g)"/><path d="m-131.67 108.83c-0.4 0-0.8-0.16-1.1-0.48-0.56-0.61-0.53-1.56 0.08-2.12l48.89-45.83c0.61-0.56 2.34-0.7 2.9-0.09s0.3 1.94-0.3 2.5l-49.44 45.62c-0.3 0.27-0.66 0.4-1.03 0.4z" fill="#BA8F63"/><linearGradient id="e" x1="-82.307" x2="-54.735" y1="63.768" y2="63.768" gradientUnits="userSpaceOnUse"><stop stop-color="#D32F2F" offset="0"/><stop stop-color="#F44336" offset=".6444"/></linearGradient><path d="m-64.12 72.36c-8 8-11.07 5.25-14.66 1.67-3.59-3.59-6.34-6.66 1.67-14.66s17.4-11.58 20.99-8c3.58 3.59 0 12.99-8 20.99z" fill="url(#e)"/></g><g clip-path="url(#c)"><rect transform="matrix(.9243 .3817 -.3817 .9243 13.815 17.022)" x="-39" y="28.33" width="6" height="30" fill="#C62828"/><linearGradient id="aj" x1="264.99" x2="265.05" y1="-179.65" y2="-204.99" gradientTransform="matrix(1.142 .4716 -.3817 .9243 -401.11 69.474)" gradientUnits="userSpaceOnUse"><stop stop-color="#F44336" offset=".1671"/><stop stop-color="#D32F2F" offset=".6964"/></linearGradient><path d="m-21.46 33.99-18.26-7.54c-2.95-1.22-4.35-4.59-3.13-7.54l16.97-41.09c1.22-2.95 4.59-4.35 7.54-3.13l18.26 7.54c2.95 1.22 4.35 4.59 3.13 7.54l-16.97 41.09c-1.21 2.95-4.59 4.35-7.54 3.13z" fill="url(#aj)"/><radialGradient id="ai" cx="400.01" cy="-127.59" r="12.201" gradientTransform="matrix(.9243 .3817 -.3817 .9243 -469.44 41.254)" gradientUnits="userSpaceOnUse"><stop stop-color="#EF5350" offset="0"/><stop stop-color="#E53935" offset="1"/></radialGradient><path d="m-61.74 80.33s3.93-1.87 6.32-4.34c3.51-3.64-0.29-8.52 4.68-15.87 2.76-4.08 6.42-4.53 6.42-4.53l5.9 2.56s5.65 6.78-3.54 17.62c-8.58 10.11-19.78 4.56-19.78 4.56z" fill="url(#ai)"/><linearGradient id="ah" x1="264.99" x2="265.05" y1="-179.65" y2="-204.99" gradientTransform="matrix(1.142 .4716 -.3817 .9243 -401.11 69.474)" gradientUnits="userSpaceOnUse"><stop stop-color="#F44336" offset="0"/><stop stop-color="#E53A33" offset=".2857"/><stop stop-color="#D83230" offset=".6599"/><stop stop-color="#D32F2F" offset="1"/></linearGradient><path d="m-21.46 33.99-18.26-7.54c-2.95-1.22-4.35-4.59-3.13-7.54l16.97-41.09c1.22-2.95 4.59-4.35 7.54-3.13l18.26 7.54c2.95 1.22 4.35 4.59 3.13 7.54l-16.97 41.09c-1.21 2.95-4.59 4.35-7.54 3.13z" fill="url(#ah)"/><g opacity=".2"><path d="m-20.54-22.75c0.36 0 0.72 0.07 1.06 0.21l18.26 7.54c1.41 0.58 2.09 2.21 1.5 3.62l-16.97 41.09c-0.43 1.04-1.44 1.72-2.56 1.72-0.36 0-0.72-0.07-1.06-0.21l-18.26-7.54c-1.41-0.58-2.09-2.21-1.5-3.62l16.97-41.09c0.42-1.04 1.43-1.72 2.56-1.72m0-3c-2.27 0-4.42 1.34-5.34 3.57l-16.97 41.09c-1.22 2.95 0.19 6.32 3.13 7.54l18.26 7.54c0.72 0.3 1.47 0.44 2.2 0.44 2.27 0 4.42-1.34 5.34-3.57l16.97-41.09c1.22-2.95-0.19-6.32-3.13-7.54l-18.26-7.54c-0.72-0.29-1.47-0.44-2.2-0.44z" fill="#424242"/></g><g opacity=".2"><path d="m-44.58 58.75 4.13 1.79c0.74 1.44 2.26 6.12-3.81 13.29-2.72 3.2-6.02 4.89-9.81 5.01 0.28-0.25 0.54-0.51 0.8-0.77 2.41-2.49 2.51-5.36 2.61-7.88 0.09-2.52 0.19-5.12 2.4-8.39 1.3-1.93 2.83-2.73 3.68-3.05m0.25-3.16s-3.67 0.45-6.42 4.53c-4.97 7.35-1.17 12.23-4.68 15.87-2.39 2.47-6.32 4.34-6.32 4.34s3.07 1.52 7.22 1.52c3.78 0 8.47-1.26 12.55-6.08 9.19-10.84 3.54-17.62 3.54-17.62l-5.89-2.56z" fill="#424242"/></g></g></g><g clip-path="url(#a)" opacity=".2"><path d="m-63.72 26.57c0.65 0 1.54 0.1 2.03 0.6 0.9 0.9 0.78 3.33-0.31 6.18-1.43 3.76-4.41 8.07-8.17 11.83-3.82 3.82-5.96 4.62-7.08 4.62-1.27 0-2.5-1.13-4.22-2.86-1.62-1.62-2.78-2.87-2.85-4.08-0.07-1.12 0.68-3.28 4.62-7.22 6.26-6.26 12.54-9.07 15.98-9.07m-0.01-3c-4.8 0-11.85 3.71-18.1 9.96-8.49 8.49-5.57 11.74-1.77 15.54 1.99 1.99 3.83 3.74 6.34 3.74 2.29 0 5.15-1.45 9.2-5.5 8.49-8.49 12.28-18.45 8.48-22.26-1-1-2.43-1.48-4.15-1.48z" fill="#424242"/></g><g clip-path="url(#a)" opacity=".2"><path d="m-99.33 20.04c0.65 0 1.54 0.1 2.03 0.6 1.9 1.9-0.52 10.05-8.48 18.01-3.82 3.82-5.96 4.62-7.08 4.62-1.27 0-2.5-1.13-4.22-2.86-1.62-1.62-2.78-2.87-2.85-4.08-0.07-1.12 0.68-3.28 4.62-7.22 6.26-6.26 12.54-9.07 15.98-9.07m0-3c-4.8 0-11.85 3.71-18.1 9.96-8.49 8.49-5.57 11.74-1.77 15.54 1.99 1.99 3.83 3.74 6.34 3.74 2.29 0 5.15-1.45 9.2-5.5 8.49-8.49 12.28-18.45 8.48-22.26-1-1-2.43-1.48-4.15-1.48z" fill="#424242"/></g><g clip-path="url(#a)" opacity=".2"><path d="m-55.44 89.05c0.76 0 1.77 0.12 2.28 0.69 0.82 0.91 0.56 3.26-0.64 5.98-1.6 3.6-4.74 7.66-8.62 11.14-3.82 3.42-5.92 4.14-7.01 4.14-1.18 0-2.21-0.93-4.08-3.01-1.5-1.67-2.56-2.94-2.56-4.11-0.01-1.09 0.83-3.15 4.89-6.79 5.45-4.88 11.62-8.04 15.74-8.04m0-3c-4.7 0-11.52 3.23-17.74 8.8-8.77 7.86-6.08 11.2-2.56 15.13 1.92 2.14 3.68 4.01 6.31 4.01 2.2 0 5.01-1.32 9.01-4.91 8.77-7.86 13.01-17.42 9.49-21.35-1.02-1.14-2.59-1.68-4.51-1.68z" fill="#424242"/></g><g clip-path="url(#a)" opacity=".2"><path d="m-60.04 52.98c0.58 0 1.37 0.09 1.79 0.51 1.74 1.74-0.56 9.31-8 16.75-3.56 3.56-5.53 4.31-6.56 4.31-1.13 0-2.26-1.05-3.86-2.64-1.5-1.5-2.57-2.65-2.64-3.74-0.06-1.02 0.63-3.01 4.31-6.68 5.88-5.88 11.75-8.51 14.96-8.51m0-3c-4.53 0-11.18 3.5-17.07 9.39-8 8-5.25 11.07-1.67 14.66 1.88 1.88 3.61 3.52 5.98 3.52 2.16 0 4.86-1.37 8.68-5.19 8-8 11.58-17.4 8-20.99-0.95-0.94-2.3-1.39-3.92-1.39z" fill="#424242"/></g><defs><rect id="ag" x="4" y="4" width="120" height="120"/></defs><clipPath id="b"><use xlink:href="#ag"/></clipPath><g clip-path="url(#b)"><defs><rect id="af" width="128" height="128"/></defs><clipPath id="d"><use xlink:href="#af"/></clipPath><g clip-path="url(#d)"><radialGradient id="ae" cx="-1460.9" cy="-580.73" r="137.58" gradientTransform="matrix(-.7071 -.7071 -.7071 .7071 -1401.2 -553.49)" gradientUnits="userSpaceOnUse"><stop stop-color="#F9DDBD" offset=".3588"/><stop stop-color="#EDC391" offset=".8824"/></radialGradient><path d="m-20.27 186.77c-11.49 0-22.52-5.2-32.79-15.47-28.1-28.1-34.45-44.27-26.13-66.52 3.4-9.11 17.58-32.15 18.86-34.21 1.07-1.08 8.9-8.95 15.12-15.83 6.47-7.15 11.55-16.06 12.16-17.14 0.74-0.94 1.87-1.5 3.06-1.5 0.67 0 1.31 0.18 1.87 0.53 7 4.32 9.36 9.53 7.23 15.93-1.55 4.66-5.81 9.55-9.24 13.48-3.98 4.57-6.61 7.59-5.63 10.13 0.16 0.4 0.3 0.83 0.44 1.24 0.64 1.88 1.31 3.83 3.11 3.83 0.75 0 1.46-0.39 2.1-1.17 1.06-1.12 34.54-32.64 52.09-49.14 3.27-3.27 6.56-4.98 9.55-4.98 2.15 0 4.14 0.91 5.93 2.7 2.2 2.2 3.06 4.71 2.56 7.44-0.47 2.57-2.13 5.34-4.8 8.01l-36.58 39.82c-0.54 0.58-0.53 1.49 0.03 2.06 0.29 0.3 0.68 0.46 1.08 0.46 0.35 0 0.7-0.12 0.98-0.37l54.86-47.41c0.03-0.02 0.05-0.05 0.08-0.07 3.23-3.23 6.53-4.94 9.52-4.94 2.15 0 4.14 0.91 5.93 2.7 5.75 5.75 1.06 12.15-2.24 15.45l-8.21 7.79c-0.59 0.56-0.62 1.5-0.07 2.11 0.3 0.32 0.7 0.48 1.1 0.48 0.36 0 0.72-0.13 1-0.38 2.92-2.63 5.87-4.01 8.54-4.01 2.15 0 4.14 0.91 5.93 2.7 2.2 2.2 3.06 4.71 2.56 7.44-0.47 2.57-2.13 5.34-4.8 8.01-0.03 0.03-0.05 0.06-0.08 0.09l-39.28 46.02c-0.51 0.6-0.47 1.49 0.09 2.04 0.29 0.29 0.67 0.43 1.05 0.43 0.35 0 0.71-0.12 0.99-0.37l26.96-23.74c3.3-3.3 6.6-5.01 9.59-5.01 2.15 0 4.14 0.91 5.93 2.7 3.91 3.91 2.94 8.07-3.35 14.35-0.59 0.56-61.17 58.51-71.75 65.83-5.58 3.86-14.53 8.49-25.35 8.49z" fill="url(#ae)"/><path d="m31.53 27.45c1.76 0 3.35 0.74 4.87 2.26 2.53 2.53 4.19 6.89-2.24 13.33l-0.09 0.09-36.53 39.77c-1.08 1.17-1.05 2.98 0.06 4.12 0.59 0.6 1.37 0.91 2.15 0.91 0.7 0 1.4-0.24 1.96-0.73l54.86-47.41c0.06-0.05 0.11-0.1 0.16-0.15 2.9-2.9 5.91-4.5 8.46-4.5 1.76 0 3.35 0.74 4.87 2.26 2.53 2.53 4.19 6.88-2.22 13.3l-8.18 7.77c-0.37 0.34-0.75 0.7-1.12 1.06-1.16 1.16-1.17 3.04-0.03 4.22 0.59 0.6 1.37 0.91 2.15 0.91 0.74 0 1.49-0.27 2.07-0.82l1-0.95c2.63-2.36 5.22-3.6 7.51-3.6 1.76 0 3.35 0.74 4.87 2.26 1.86 1.86 2.56 3.86 2.14 6.11-0.42 2.27-1.94 4.77-4.39 7.22-0.06 0.06-0.11 0.11-0.16 0.17l-39.28 46.02c-1.02 1.2-0.94 2.98 0.18 4.09 0.58 0.57 1.34 0.86 2.11 0.86 0.71 0 1.41-0.25 1.98-0.75l26.97-23.74c0.05-0.04 0.09-0.09 0.14-0.13 2.9-2.9 5.91-4.5 8.46-4.5 1.76 0 3.35 0.74 4.87 2.26 2.25 2.25 3.84 5.04-3.32 12.21-1.5 1.43-61.16 58.48-71.57 65.69-5.43 3.76-14.08 8.23-24.52 8.23-11.08 0-21.75-5.06-31.73-15.03-14.27-14.27-22.36-24.88-26.22-34.4-3.95-9.75-3.82-19.16 0.43-30.53 3.29-8.79 16.91-31 18.64-33.8 1.46-1.46 9-9.08 15.05-15.76 6.38-7.06 11.43-15.79 12.29-17.3 0.45-0.54 1.12-0.85 1.81-0.85 0.39 0 0.76 0.1 1.09 0.31 6.4 3.96 8.5 8.46 6.59 14.18-1.46 4.37-5.61 9.14-8.94 12.97-4.18 4.8-7.21 8.28-5.9 11.66 0.15 0.38 0.29 0.79 0.42 1.18 0.7 2.04 1.65 4.84 4.53 4.84 0.82 0 2.03-0.28 3.18-1.62 1.71-1.75 31.96-30.24 52.04-49.12 0.02-0.02 0.04-0.04 0.07-0.06 2.9-2.91 5.91-4.51 8.46-4.51m0-3c-3.61 0-7.31 2.11-10.58 5.38 0 0-51.53 48.45-52.22 49.27-0.36 0.44-0.67 0.62-0.95 0.62-0.95 0-1.44-2.26-2.15-4.11-1.36-3.52 11.71-13.06 14.89-22.6 3.39-10.18-4.46-15.57-7.86-17.68-0.83-0.51-1.75-0.75-2.66-0.75-1.64 0-3.27 0.78-4.31 2.18 0 0-5.3 9.54-12.01 16.96s-15.19 15.9-15.19 15.9-15.44 24.88-19.08 34.62c-8.92 23.87-0.97 40.66 26.48 68.11 11.76 11.76 23.42 15.91 33.85 15.91 10.29 0 19.38-4.03 26.22-8.77 10.81-7.48 71.96-66.01 71.96-66.01 5.47-5.47 8.79-11.03 3.35-16.47-2.19-2.19-4.57-3.14-6.99-3.14-3.61 0-7.31 2.11-10.58 5.38l-26.98 23.75 39.28-46.01c5.47-5.47 7.69-12.13 2.24-17.57-2.19-2.19-4.57-3.14-6.99-3.14-3.23 0-6.54 1.69-9.55 4.4l-1.03 0.98c0.34-0.34 0.69-0.67 1.03-0.98l8.24-7.82c5.47-5.47 7.69-12.13 2.24-17.57-2.19-2.19-4.57-3.14-6.99-3.14-3.61 0-7.31 2.11-10.58 5.38l-54.86 47.4 36.53-39.77c5.47-5.47 7.69-12.13 2.24-17.57-2.19-2.18-4.57-3.14-6.99-3.14z" fill="#E6B77E"/><linearGradient id="ad" x1="56.31" x2="88.336" y1="50.544" y2="20.375" gradientUnits="userSpaceOnUse"><stop stop-color="#D32F2F" offset=".0794"/><stop stop-color="#F44336" offset=".79"/></linearGradient><path d="m73.95 47.31c-8.49 8.49-11.74 5.57-15.54 1.77s-6.72-7.06 1.77-15.54 18.45-12.28 22.26-8.48 0 13.76-8.49 22.25z" fill="url(#ad)"/><linearGradient id="ac" x1="19.06" x2="48.296" y1="31.662" y2="31.662" gradientUnits="userSpaceOnUse"><stop stop-color="#D32F2F" offset="0"/><stop stop-color="#F44336" offset=".6444"/></linearGradient><path d="m38.34 40.78c-8.49 8.49-11.74 5.57-15.54 1.77s-6.72-7.06 1.77-15.54 18.45-12.28 22.26-8.48c3.79 3.8 0 13.76-8.49 22.25z" fill="url(#ac)"/><linearGradient id="aa" x1="62.934" x2="92.314" y1="100.02" y2="100.02" gradientUnits="userSpaceOnUse"><stop stop-color="#D32F2F" offset="0"/><stop stop-color="#F44336" offset=".6444"/></linearGradient><path d="m81.59 109.09c-8.77 7.86-11.8 4.83-15.32 0.9s-6.21-7.27 2.56-15.13 18.73-11.05 22.25-7.12c3.52 3.92-0.73 13.48-9.49 21.35z" fill="url(#aa)"/><path d="m10.33 108.83c-0.4 0-0.8-0.16-1.1-0.48-0.56-0.61-0.53-1.56 0.08-2.12l48.89-45.83c0.61-0.56 2.34-0.7 2.9-0.09s0.3 1.94-0.3 2.5l-49.44 45.62c-0.3 0.27-0.66 0.4-1.03 0.4z" fill="#E6B77E"/><linearGradient id="z" x1="59.693" x2="87.265" y1="63.768" y2="63.768" gradientUnits="userSpaceOnUse"><stop stop-color="#D32F2F" offset="0"/><stop stop-color="#F44336" offset=".6444"/></linearGradient><path d="m77.88 72.36c-8 8-11.07 5.25-14.66 1.67-3.59-3.59-6.34-6.66 1.67-14.66 8-8 17.4-11.58 20.99-8 3.58 3.59 0 12.99-8 20.99z" fill="url(#z)"/></g><g clip-path="url(#d)"><rect transform="matrix(.9243 .3817 -.3817 .9243 24.566 -37.179)" x="103" y="28.33" width="6" height="30" fill="#C62828"/><linearGradient id="y" x1="371.22" x2="371.28" y1="-233.85" y2="-259.19" gradientTransform="matrix(1.142 .4716 -.3817 .9243 -401.11 69.474)" gradientUnits="userSpaceOnUse"><stop stop-color="#F44336" offset=".1671"/><stop stop-color="#D32F2F" offset=".6964"/></linearGradient><path d="m120.54 33.99-18.26-7.54c-2.95-1.22-4.35-4.59-3.13-7.54l16.97-41.09c1.22-2.95 4.59-4.35 7.54-3.13l18.26 7.54c2.95 1.22 4.35 4.59 3.13 7.54l-16.97 41.09c-1.21 2.95-4.59 4.35-7.54 3.13z" fill="url(#y)"/><radialGradient id="x" cx="531.26" cy="-181.79" r="12.201" gradientTransform="matrix(.9243 .3817 -.3817 .9243 -469.44 41.254)" gradientUnits="userSpaceOnUse"><stop stop-color="#EF5350" offset="0"/><stop stop-color="#E53935" offset="1"/></radialGradient><path d="m80.26 80.33s3.93-1.87 6.32-4.34c3.51-3.64-0.29-8.52 4.68-15.87 2.76-4.08 6.42-4.53 6.42-4.53l5.9 2.56s5.65 6.78-3.54 17.62c-8.58 10.11-19.78 4.56-19.78 4.56z" fill="url(#x)"/><linearGradient id="w" x1="371.22" x2="371.28" y1="-233.85" y2="-259.19" gradientTransform="matrix(1.142 .4716 -.3817 .9243 -401.11 69.474)" gradientUnits="userSpaceOnUse"><stop stop-color="#F44336" offset="0"/><stop stop-color="#E53A33" offset=".2857"/><stop stop-color="#D83230" offset=".6599"/><stop stop-color="#D32F2F" offset="1"/></linearGradient><path d="m120.54 33.99-18.26-7.54c-2.95-1.22-4.35-4.59-3.13-7.54l16.97-41.09c1.22-2.95 4.59-4.35 7.54-3.13l18.26 7.54c2.95 1.22 4.35 4.59 3.13 7.54l-16.97 41.09c-1.21 2.95-4.59 4.35-7.54 3.13z" fill="url(#w)"/><g opacity=".2"><path d="m121.46-22.75c0.36 0 0.72 0.07 1.06 0.21l18.26 7.54c1.41 0.58 2.09 2.21 1.5 3.62l-16.97 41.09c-0.43 1.04-1.44 1.72-2.56 1.72-0.36 0-0.72-0.07-1.06-0.21l-18.26-7.54c-1.41-0.58-2.09-2.21-1.5-3.62l16.97-41.09c0.42-1.04 1.43-1.72 2.56-1.72m0-3c-2.27 0-4.42 1.34-5.34 3.57l-16.97 41.1c-1.22 2.95 0.19 6.32 3.13 7.54l18.26 7.54c0.72 0.3 1.47 0.44 2.2 0.44 2.27 0 4.42-1.34 5.34-3.57l16.97-41.09c1.22-2.95-0.19-6.32-3.13-7.54l-18.26-7.54c-0.72-0.3-1.47-0.45-2.2-0.45z" fill="#424242"/></g><g opacity=".2"><path d="m97.42 58.75 4.13 1.79c0.74 1.44 2.26 6.12-3.81 13.29-2.72 3.2-6.02 4.89-9.81 5.01 0.28-0.25 0.54-0.51 0.8-0.77 2.41-2.49 2.51-5.36 2.61-7.88 0.09-2.52 0.19-5.12 2.4-8.39 1.3-1.93 2.83-2.73 3.68-3.05m0.25-3.16s-3.67 0.45-6.42 4.53c-4.97 7.35-1.17 12.23-4.68 15.87-2.39 2.47-6.32 4.34-6.32 4.34s3.07 1.52 7.22 1.52c3.78 0 8.47-1.26 12.55-6.08 9.19-10.84 3.54-17.62 3.54-17.62l-5.89-2.56z" fill="#424242"/></g></g></g><g clip-path="url(#b)" opacity=".2"><path d="m78.28 26.57c0.65 0 1.54 0.1 2.03 0.6 0.9 0.9 0.78 3.33-0.31 6.18-1.43 3.76-4.41 8.07-8.17 11.83-3.82 3.82-5.96 4.62-7.08 4.62-1.27 0-2.5-1.13-4.22-2.86-1.62-1.62-2.78-2.87-2.85-4.08-0.07-1.12 0.68-3.28 4.62-7.22 6.26-6.26 12.54-9.07 15.98-9.07m-0.01-3c-4.8 0-11.85 3.71-18.1 9.96-8.49 8.49-5.57 11.74-1.77 15.54 1.99 1.99 3.83 3.74 6.34 3.74 2.29 0 5.15-1.45 9.2-5.5 8.49-8.49 12.28-18.45 8.48-22.26-1-1-2.43-1.48-4.15-1.48z" fill="#424242"/></g><g clip-path="url(#b)" opacity=".2"><path d="m42.67 20.04c0.65 0 1.54 0.1 2.03 0.6 1.9 1.9-0.52 10.05-8.48 18.01-3.82 3.82-5.96 4.62-7.08 4.62-1.27 0-2.5-1.13-4.22-2.86-1.62-1.62-2.78-2.87-2.85-4.08-0.07-1.12 0.68-3.28 4.62-7.22 6.26-6.26 12.54-9.07 15.98-9.07m0-3c-4.8 0-11.85 3.71-18.1 9.96-8.49 8.49-5.57 11.74-1.77 15.54 1.99 1.99 3.83 3.74 6.34 3.74 2.29 0 5.15-1.45 9.2-5.5 8.49-8.49 12.28-18.45 8.48-22.26-1-1-2.43-1.48-4.15-1.48z" fill="#424242"/></g><g clip-path="url(#b)" opacity=".2"><path d="m86.56 89.05c0.76 0 1.77 0.12 2.28 0.69 0.82 0.91 0.56 3.26-0.64 5.98-1.6 3.6-4.74 7.66-8.62 11.14-3.82 3.42-5.92 4.14-7.01 4.14-1.18 0-2.21-0.93-4.08-3.01-1.5-1.67-2.56-2.94-2.56-4.11-0.01-1.09 0.83-3.15 4.89-6.79 5.45-4.88 11.62-8.04 15.74-8.04m0-3c-4.7 0-11.52 3.23-17.74 8.8-8.77 7.86-6.08 11.2-2.56 15.13 1.92 2.14 3.68 4.01 6.31 4.01 2.2 0 5.01-1.32 9.01-4.91 8.77-7.86 13.01-17.42 9.49-21.35-1.02-1.14-2.59-1.68-4.51-1.68z" fill="#424242"/></g><g clip-path="url(#b)" opacity=".2"><path d="m81.96 52.98c0.58 0 1.37 0.09 1.79 0.51 1.74 1.74-0.56 9.31-8 16.75-3.56 3.56-5.53 4.31-6.56 4.31-1.13 0-2.26-1.05-3.86-2.64-1.5-1.5-2.57-2.65-2.64-3.74-0.06-1.02 0.63-3.01 4.31-6.68 5.88-5.88 11.75-8.51 14.96-8.51m0-3c-4.53 0-11.18 3.5-17.07 9.39-8 8-5.25 11.07-1.67 14.66 1.88 1.88 3.61 3.52 5.98 3.52 2.16 0 4.86-1.37 8.68-5.19 8-8 11.58-17.4 8-20.99-0.95-0.94-2.3-1.39-3.92-1.39z" fill="#424242"/></g><g display="none"><g display="inline"><g opacity=".6"><circle cx="-78" cy="204" r="28" fill="none" opacity=".61" stroke="#000" stroke-miterlimit="10" stroke-width=".2625"/><line x1="-58" x2="-58" y1="140" y2="268" fill="none" opacity=".61" stroke="#000" stroke-miterlimit="10" stroke-width=".25"/><line x1="-98" x2="-98" y1="140" y2="268" fill="none" opacity=".61" stroke="#000" stroke-miterlimit="10" stroke-width=".25"/><line x1="-78" x2="-78" y1="140" y2="268" fill="none" opacity=".61" stroke="#000" stroke-miterlimit="10" stroke-width=".25"/><line x1="-14" x2="-142" y1="204" y2="204" fill="none" opacity=".61" stroke="#000" stroke-miterlimit="10" stroke-width=".25"/><line x1="-14" x2="-142" y1="184" y2="184" fill="none" opacity=".61" stroke="#000" stroke-miterlimit="10" stroke-width=".25"/><line x1="-14" x2="-142" y1="223.75" y2="223.75" fill="none" opacity=".61" stroke="#000" stroke-miterlimit="10" stroke-width=".25"/><line x1="-14" x2="-142" y1="268" y2="140" fill="none" opacity=".61" stroke="#000" stroke-miterlimit="10" stroke-width=".25"/><line x1="-142" x2="-14" y1="268" y2="140" fill="none" opacity=".61" stroke="#000" stroke-miterlimit="10" stroke-width=".25"/><g opacity=".61"><path d="m-78 144.26c32.94 0 59.74 26.8 59.74 59.74s-26.8 59.74-59.74 59.74-59.74-26.8-59.74-59.74 26.8-59.74 59.74-59.74m0-0.26c-33.14 0-60 26.86-60 60s26.86 60 60 60 60-26.86 60-60-26.86-60-60-60z"/></g><path d="m-34.03 255.97h-87.94c-4.42 0-8.03-3.61-8.03-8.03v-87.91c0-4.42 3.61-8.03 8.03-8.03h87.94c4.42 0 8.03 3.61 8.03 8.03v87.91c0 4.42-3.61 8.03-8.03 8.03z" fill="none" opacity=".61" stroke="#000" stroke-miterlimit="10" stroke-width=".2578"/><path d="m-42 264h-72c-4.4 0-8-3.6-8-8v-104c0-4.4 3.6-8 8-8h72c4.4 0 8 3.6 8 8v104c0 4.4-3.6 8-8 8z" fill="none" opacity=".61" stroke="#000" stroke-miterlimit="10" stroke-width=".2628"/><path d="m-28.23 248h-99.54c-5.63 0-10.23-4.6-10.23-10.23v-67.48c0-5.63 4.6-10.23 10.23-10.23h99.54c5.63 0 10.23 4.6 10.23 10.23v67.48c0 5.63-4.6 10.23-10.23 10.23z" fill="none" opacity=".61" stroke="#000" stroke-miterlimit="10" stroke-width=".2627"/></g><g opacity=".2"><defs><rect id="h" x="-142" y="140" width="128" height="128" opacity=".2"/></defs><clipPath id="v"><use xlink:href="#h"/></clipPath><g clip-path="url(#v)"><g fill="none" stroke="#000" stroke-miterlimit="10" stroke-width=".25"><line x1="-170" x2="-170" y1="300" y2="108"/><line x1="-166" x2="-166" y1="300" y2="108"/><line x1="-162" x2="-162" y1="300" y2="108"/><line x1="-158" x2="-158" y1="300" y2="108"/><line x1="-154" x2="-154" y1="300" y2="108"/><line x1="-150" x2="-150" y1="300" y2="108"/><line x1="-146" x2="-146" y1="300" y2="108"/><line x1="-142" x2="-142" y1="300" y2="108"/><line x1="-138" x2="-138" y1="300" y2="108"/><line x1="-134" x2="-134" y1="300" y2="108"/><line x1="-130" x2="-130" y1="300" y2="108"/><line x1="-126" x2="-126" y1="300" y2="108"/><line x1="-122" x2="-122" y1="300" y2="108"/><line x1="-118" x2="-118" y1="300" y2="108"/><line x1="-114" x2="-114" y1="300" y2="108"/><line x1="-110" x2="-110" y1="300" y2="108"/><line x1="-106" x2="-106" y1="300" y2="108"/><line x1="-102" x2="-102" y1="300" y2="108"/><line x1="-98" x2="-98" y1="300" y2="108"/><line x1="-94" x2="-94" y1="300" y2="108"/><line x1="-90" x2="-90" y1="300" y2="108"/><line x1="-86" x2="-86" y1="300" y2="108"/><line x1="-82" x2="-82" y1="300" y2="108"/><line x1="-78" x2="-78" y1="300" y2="108"/><line x1="-74" x2="-74" y1="300" y2="108"/><line x1="-70" x2="-70" y1="300" y2="108"/><line x1="-66" x2="-66" y1="300" y2="108"/><line x1="-62" x2="-62" y1="300" y2="108"/><line x1="-58" x2="-58" y1="300" y2="108"/><line x1="-54" x2="-54" y1="300" y2="108"/><line x1="-50" x2="-50" y1="300" y2="108"/><line x1="-46" x2="-46" y1="300" y2="108"/><line x1="-42" x2="-42" y1="300" y2="108"/><line x1="-38" x2="-38" y1="300" y2="108"/><line x1="-34" x2="-34" y1="300" y2="108"/><line x1="-30" x2="-30" y1="300" y2="108"/><line x1="-26" x2="-26" y1="300" y2="108"/><line x1="-22" x2="-22" y1="300" y2="108"/><line x1="-18" x2="-18" y1="300" y2="108"/><line x1="-14" x2="-14" y1="300" y2="108"/><line x1="-10" x2="-10" y1="300" y2="108"/><line x1="-6" x2="-6" y1="300" y2="108"/><line x1="-5" x2="-5" y1="306.05" y2="114.05"/><line x1="2" x2="2" y1="300" y2="108"/><line x1="6" x2="6" y1="300" y2="108"/><line x1="10" x2="10" y1="300" y2="108"/><line x1="14" x2="14" y1="300" y2="108"/></g><g fill="none" stroke="#000" stroke-miterlimit="10" stroke-width=".25"><line x1="-174" x2="18" y1="112" y2="112"/><line x1="-174" x2="18" y1="116" y2="116"/><line x1="-174" x2="18" y1="120" y2="120"/><line x1="-174" x2="18" y1="124" y2="124"/><line x1="-174" x2="18" y1="128" y2="128"/><line x1="-174" x2="18" y1="132" y2="132"/><line x1="-174" x2="18" y1="136" y2="136"/><line x1="-174" x2="18" y1="140" y2="140"/><line x1="-174" x2="18" y1="144" y2="144"/><line x1="-174" x2="18" y1="148" y2="148"/><line x1="-174" x2="18" y1="152" y2="152"/><line x1="-174" x2="18" y1="156" y2="156"/><line x1="-174" x2="18" y1="160" y2="160"/><line x1="-174" x2="18" y1="164" y2="164"/><line x1="-174" x2="18" y1="168" y2="168"/><line x1="-174" x2="18" y1="172" y2="172"/><line x1="-174" x2="18" y1="176" y2="176"/><line x1="-174" x2="18" y1="180" y2="180"/><line x1="-174" x2="18" y1="184" y2="184"/><line x1="-174" x2="18" y1="188" y2="188"/><line x1="-174" x2="18" y1="192" y2="192"/><line x1="-174" x2="18" y1="196" y2="196"/><line x1="-174" x2="18" y1="200" y2="200"/><line x1="-174" x2="18" y1="204" y2="204"/><line x1="-174" x2="18" y1="208" y2="208"/><line x1="-174" x2="18" y1="212" y2="212"/><line x1="-174" x2="18" y1="216" y2="216"/><line x1="-174" x2="18" y1="220" y2="220"/><line x1="-174" x2="18" y1="224" y2="224"/><line x1="-174" x2="18" y1="228" y2="228"/><line x1="-174" x2="18" y1="232" y2="232"/><line x1="-174" x2="18" y1="236" y2="236"/><line x1="-174" x2="18" y1="240" y2="240"/><line x1="-174" x2="18" y1="244" y2="244"/><line x1="-174" x2="18" y1="248" y2="248"/><line x1="-174" x2="18" y1="252" y2="252"/><line x1="-174" x2="18" y1="256" y2="256"/><line x1="-174" x2="18" y1="260" y2="260"/><line x1="-174" x2="18" y1="264" y2="264"/><line x1="-174" x2="18" y1="268" y2="268"/><line x1="-174" x2="18" y1="272" y2="272"/><line x1="-174" x2="18" y1="276" y2="276"/><line x1="-174" x2="18" y1="280" y2="280"/><line x1="-174" x2="18" y1="284" y2="284"/><line x1="-174" x2="18" y1="288" y2="288"/><line x1="-174" x2="18" y1="292" y2="292"/><line x1="-174" x2="18" y1="296" y2="296"/></g><path d="m17.75 108.25v191.5h-191.5v-191.5h191.5m0.25-0.25h-192v192h192v-192z"/></g></g><g fill="#F44336"><rect x="-142" y="140" width="4" height="128" opacity=".3"/><rect x="-18" y="140" width="4" height="128" opacity=".3"/><rect transform="matrix(-1.837e-16 1 -1 -1.837e-16 64 220)" x="-80" y="82" width="4" height="120" opacity=".3"/><rect transform="matrix(-1.837e-16 1 -1 -1.837e-16 188 344)" x="-80" y="206" width="4" height="120" opacity=".3"/></g></g><g display="inline"><g opacity=".6"><circle cx="64" cy="204" r="28" fill="none" opacity=".61" stroke="#000" stroke-miterlimit="10" stroke-width=".2625"/><line x1="84" x2="84" y1="140" y2="268" fill="none" opacity=".61" stroke="#000" stroke-miterlimit="10" stroke-width=".25"/><line x1="44" x2="44" y1="140" y2="268" fill="none" opacity=".61" stroke="#000" stroke-miterlimit="10" stroke-width=".25"/><line x1="64" x2="64" y1="140" y2="268" fill="none" opacity=".61" stroke="#000" stroke-miterlimit="10" stroke-width=".25"/><line x1="128" y1="204" y2="204" fill="none" opacity=".61" stroke="#000" stroke-miterlimit="10" stroke-width=".25"/><line x1="128" y1="184" y2="184" fill="none" opacity=".61" stroke="#000" stroke-miterlimit="10" stroke-width=".25"/><line x1="128" y1="223.75" y2="223.75" fill="none" opacity=".61" stroke="#000" stroke-miterlimit="10" stroke-width=".25"/><line x1="128" y1="268" y2="140" fill="none" opacity=".61" stroke="#000" stroke-miterlimit="10" stroke-width=".25"/><line x2="128" y1="268" y2="140" fill="none" opacity=".61" stroke="#000" stroke-miterlimit="10" stroke-width=".25"/><g opacity=".61"><path d="m64 144.26c32.94 0 59.74 26.8 59.74 59.74s-26.8 59.74-59.74 59.74-59.74-26.8-59.74-59.74 26.8-59.74 59.74-59.74m0-0.26c-33.14 0-60 26.86-60 60s26.86 60 60 60 60-26.86 60-60-26.86-60-60-60z"/></g><path d="m107.97 255.97h-87.94c-4.42 0-8.03-3.61-8.03-8.03v-87.91c0-4.42 3.61-8.03 8.03-8.03h87.94c4.42 0 8.03 3.61 8.03 8.03v87.91c0 4.42-3.61 8.03-8.03 8.03z" fill="none" opacity=".61" stroke="#000" stroke-miterlimit="10" stroke-width=".2578"/><path d="m100 264h-72c-4.4 0-8-3.6-8-8v-104c0-4.4 3.6-8 8-8h72c4.4 0 8 3.6 8 8v104c0 4.4-3.6 8-8 8z" fill="none" opacity=".61" stroke="#000" stroke-miterlimit="10" stroke-width=".2628"/><path d="M113.77,248H14.23 C8.6,248,4,243.4,4,237.77v-67.48c0-5.63,4.6-10.23,10.23-10.23h99.54c5.63,0,10.23,4.6,10.23,10.23v67.48 C124,243.4,119.4,248,113.77,248z" fill="none" opacity=".61" stroke="#000" stroke-miterlimit="10" stroke-width=".2627"/></g><g opacity=".2"><defs><rect id="f" y="140" width="128" height="128" opacity=".2"/></defs><clipPath id="u"><use xlink:href="#f"/></clipPath><g clip-path="url(#u)"><g fill="none" stroke="#000" stroke-miterlimit="10" stroke-width=".25"><line x1="-28" x2="-28" y1="300" y2="108"/><line x1="-24" x2="-24" y1="300" y2="108"/><line x1="-20" x2="-20" y1="300" y2="108"/><line x1="-16" x2="-16" y1="300" y2="108"/><line x1="-12" x2="-12" y1="300" y2="108"/><line x1="-8" x2="-8" y1="300" y2="108"/><line x1="-4" x2="-4" y1="300" y2="108"/><line y1="300" y2="108"/><line x1="4" x2="4" y1="300" y2="108"/><line x1="8" x2="8" y1="300" y2="108"/><line x1="12" x2="12" y1="300" y2="108"/><line x1="16" x2="16" y1="300" y2="108"/><line x1="20" x2="20" y1="300" y2="108"/><line x1="24" x2="24" y1="300" y2="108"/><line x1="28" x2="28" y1="300" y2="108"/><line x1="32" x2="32" y1="300" y2="108"/><line x1="36" x2="36" y1="300" y2="108"/><line x1="40" x2="40" y1="300" y2="108"/><line x1="44" x2="44" y1="300" y2="108"/><line x1="48" x2="48" y1="300" y2="108"/><line x1="52" x2="52" y1="300" y2="108"/><line x1="56" x2="56" y1="300" y2="108"/><line x1="60" x2="60" y1="300" y2="108"/><line x1="64" x2="64" y1="300" y2="108"/><line x1="68" x2="68" y1="300" y2="108"/><line x1="72" x2="72" y1="300" y2="108"/><line x1="76" x2="76" y1="300" y2="108"/><line x1="80" x2="80" y1="300" y2="108"/><line x1="84" x2="84" y1="300" y2="108"/><line x1="88" x2="88" y1="300" y2="108"/><line x1="92" x2="92" y1="300" y2="108"/><line x1="96" x2="96" y1="300" y2="108"/><line x1="100" x2="100" y1="300" y2="108"/><line x1="104" x2="104" y1="300" y2="108"/><line x1="108" x2="108" y1="300" y2="108"/><line x1="112" x2="112" y1="300" y2="108"/><line x1="116" x2="116" y1="300" y2="108"/><line x1="120" x2="120" y1="300" y2="108"/><line x1="124" x2="124" y1="300" y2="108"/><line x1="128" x2="128" y1="300" y2="108"/><line x1="132" x2="132" y1="300" y2="108"/><line x1="136" x2="136" y1="300" y2="108"/><line x1="137" x2="137" y1="306.05" y2="114.05"/><line x1="144" x2="144" y1="300" y2="108"/><line x1="148" x2="148" y1="300" y2="108"/><line x1="152" x2="152" y1="300" y2="108"/><line x1="156" x2="156" y1="300" y2="108"/></g><g fill="none" stroke="#000" stroke-miterlimit="10" stroke-width=".25"><line x1="-32" x2="160" y1="112" y2="112"/><line x1="-32" x2="160" y1="116" y2="116"/><line x1="-32" x2="160" y1="120" y2="120"/><line x1="-32" x2="160" y1="124" y2="124"/><line x1="-32" x2="160" y1="128" y2="128"/><line x1="-32" x2="160" y1="132" y2="132"/><line x1="-32" x2="160" y1="136" y2="136"/><line x1="-32" x2="160" y1="140" y2="140"/><line x1="-32" x2="160" y1="144" y2="144"/><line x1="-32" x2="160" y1="148" y2="148"/><line x1="-32" x2="160" y1="152" y2="152"/><line x1="-32" x2="160" y1="156" y2="156"/><line x1="-32" x2="160" y1="160" y2="160"/><line x1="-32" x2="160" y1="164" y2="164"/><line x1="-32" x2="160" y1="168" y2="168"/><line x1="-32" x2="160" y1="172" y2="172"/><line x1="-32" x2="160" y1="176" y2="176"/><line x1="-32" x2="160" y1="180" y2="180"/><line x1="-32" x2="160" y1="184" y2="184"/><line x1="-32" x2="160" y1="188" y2="188"/><line x1="-32" x2="160" y1="192" y2="192"/><line x1="-32" x2="160" y1="196" y2="196"/><line x1="-32" x2="160" y1="200" y2="200"/><line x1="-32" x2="160" y1="204" y2="204"/><line x1="-32" x2="160" y1="208" y2="208"/><line x1="-32" x2="160" y1="212" y2="212"/><line x1="-32" x2="160" y1="216" y2="216"/><line x1="-32" x2="160" y1="220" y2="220"/><line x1="-32" x2="160" y1="224" y2="224"/><line x1="-32" x2="160" y1="228" y2="228"/><line x1="-32" x2="160" y1="232" y2="232"/><line x1="-32" x2="160" y1="236" y2="236"/><line x1="-32" x2="160" y1="240" y2="240"/><line x1="-32" x2="160" y1="244" y2="244"/><line x1="-32" x2="160" y1="248" y2="248"/><line x1="-32" x2="160" y1="252" y2="252"/><line x1="-32" x2="160" y1="256" y2="256"/><line x1="-32" x2="160" y1="260" y2="260"/><line x1="-32" x2="160" y1="264" y2="264"/><line x1="-32" x2="160" y1="268" y2="268"/><line x1="-32" x2="160" y1="272" y2="272"/><line x1="-32" x2="160" y1="276" y2="276"/><line x1="-32" x2="160" y1="280" y2="280"/><line x1="-32" x2="160" y1="284" y2="284"/><line x1="-32" x2="160" y1="288" y2="288"/><line x1="-32" x2="160" y1="292" y2="292"/><line x1="-32" x2="160" y1="296" y2="296"/></g><path d="m159.75 108.25v191.5h-191.5v-191.5h191.5m0.25-0.25h-192v192h192v-192z"/></g></g><g fill="#F44336"><rect y="140" width="4" height="128" opacity=".3"/><rect x="124" y="140" width="4" height="128" opacity=".3"/><rect transform="matrix(-1.837e-16 1 -1 -1.837e-16 206 78)" x="62" y="82" width="4" height="120" opacity=".3"/><rect transform="matrix(-1.837e-16 1 -1 -1.837e-16 330 202)" x="62" y="206" width="4" height="120" opacity=".3"/></g></g><g display="inline"><g opacity=".6"><circle cx="-78" cy="64" r="28" fill="none" opacity=".61" stroke="#000" stroke-miterlimit="10" stroke-width=".2625"/><line x1="-58" x2="-58" y2="128" fill="none" opacity=".61" stroke="#000" stroke-miterlimit="10" stroke-width=".25"/><line x1="-98" x2="-98" y2="128" fill="none" opacity=".61" stroke="#000" stroke-miterlimit="10" stroke-width=".25"/><line x1="-78" x2="-78" y2="128" fill="none" opacity=".61" stroke="#000" stroke-miterlimit="10" stroke-width=".25"/><line x1="-14" x2="-142" y1="64" y2="64" fill="none" opacity=".61" stroke="#000" stroke-miterlimit="10" stroke-width=".25"/><line x1="-14" x2="-142" y1="44" y2="44" fill="none" opacity=".61" stroke="#000" stroke-miterlimit="10" stroke-width=".25"/><line x1="-14" x2="-142" y1="83.75" y2="83.75" fill="none" opacity=".61" stroke="#000" stroke-miterlimit="10" stroke-width=".25"/><line x1="-14" x2="-142" y1="128" fill="none" opacity=".61" stroke="#000" stroke-miterlimit="10" stroke-width=".25"/><line x1="-142" x2="-14" y1="128" fill="none" opacity=".61" stroke="#000" stroke-miterlimit="10" stroke-width=".25"/><g opacity=".61"><path d="m-78 4.26c32.94 0 59.74 26.8 59.74 59.74s-26.8 59.74-59.74 59.74-59.74-26.8-59.74-59.74 26.8-59.74 59.74-59.74m0-0.26c-33.14 0-60 26.86-60 60s26.86 60 60 60 60-26.86 60-60-26.86-60-60-60z"/></g><path d="m-34.03 115.97h-87.94c-4.42 0-8.03-3.61-8.03-8.03v-87.91c0-4.42 3.61-8.03 8.03-8.03h87.94c4.42 0 8.03 3.61 8.03 8.03v87.91c0 4.42-3.61 8.03-8.03 8.03z" fill="none" opacity=".61" stroke="#000" stroke-miterlimit="10" stroke-width=".2578"/><path d="m-42 124h-72c-4.4 0-8-3.6-8-8v-104c0-4.4 3.6-8 8-8h72c4.4 0 8 3.6 8 8v104c0 4.4-3.6 8-8 8z" fill="none" opacity=".61" stroke="#000" stroke-miterlimit="10" stroke-width=".2628"/><path d="m-28.23 108h-99.54c-5.63 0-10.23-4.6-10.23-10.23v-67.49c0-5.63 4.6-10.23 10.23-10.23h99.54c5.63 0 10.23 4.6 10.23 10.23v67.48c0 5.64-4.6 10.24-10.23 10.24z" fill="none" opacity=".61" stroke="#000" stroke-miterlimit="10" stroke-width=".2627"/></g><g opacity=".2"><defs><rect id="j" x="-142" width="128" height="128" opacity=".2"/></defs><clipPath id="t"><use xlink:href="#j"/></clipPath><g clip-path="url(#t)"><g fill="none" stroke="#000" stroke-miterlimit="10" stroke-width=".25"><line x1="-170" x2="-170" y1="160" y2="-32"/><line x1="-166" x2="-166" y1="160" y2="-32"/><line x1="-162" x2="-162" y1="160" y2="-32"/><line x1="-158" x2="-158" y1="160" y2="-32"/><line x1="-154" x2="-154" y1="160" y2="-32"/><line x1="-150" x2="-150" y1="160" y2="-32"/><line x1="-146" x2="-146" y1="160" y2="-32"/><line x1="-142" x2="-142" y1="160" y2="-32"/><line x1="-138" x2="-138" y1="160" y2="-32"/><line x1="-134" x2="-134" y1="160" y2="-32"/><line x1="-130" x2="-130" y1="160" y2="-32"/><line x1="-126" x2="-126" y1="160" y2="-32"/><line x1="-122" x2="-122" y1="160" y2="-32"/><line x1="-118" x2="-118" y1="160" y2="-32"/><line x1="-114" x2="-114" y1="160" y2="-32"/><line x1="-110" x2="-110" y1="160" y2="-32"/><line x1="-106" x2="-106" y1="160" y2="-32"/><line x1="-102" x2="-102" y1="160" y2="-32"/><line x1="-98" x2="-98" y1="160" y2="-32"/><line x1="-94" x2="-94" y1="160" y2="-32"/><line x1="-90" x2="-90" y1="160" y2="-32"/><line x1="-86" x2="-86" y1="160" y2="-32"/><line x1="-82" x2="-82" y1="160" y2="-32"/><line x1="-78" x2="-78" y1="160" y2="-32"/><line x1="-74" x2="-74" y1="160" y2="-32"/><line x1="-70" x2="-70" y1="160" y2="-32"/><line x1="-66" x2="-66" y1="160" y2="-32"/><line x1="-62" x2="-62" y1="160" y2="-32"/><line x1="-58" x2="-58" y1="160" y2="-32"/><line x1="-54" x2="-54" y1="160" y2="-32"/><line x1="-50" x2="-50" y1="160" y2="-32"/><line x1="-46" x2="-46" y1="160" y2="-32"/><line x1="-42" x2="-42" y1="160" y2="-32"/><line x1="-38" x2="-38" y1="160" y2="-32"/><line x1="-34" x2="-34" y1="160" y2="-32"/><line x1="-30" x2="-30" y1="160" y2="-32"/><line x1="-26" x2="-26" y1="160" y2="-32"/><line x1="-22" x2="-22" y1="160" y2="-32"/><line x1="-18" x2="-18" y1="160" y2="-32"/><line x1="-14" x2="-14" y1="160" y2="-32"/><line x1="-10" x2="-10" y1="160" y2="-32"/><line x1="-6" x2="-6" y1="160" y2="-32"/><line x1="-5" x2="-5" y1="166.05" y2="-25.95"/><line x1="2" x2="2" y1="160" y2="-32"/><line x1="6" x2="6" y1="160" y2="-32"/><line x1="10" x2="10" y1="160" y2="-32"/><line x1="14" x2="14" y1="160" y2="-32"/></g><g fill="none" stroke="#000" stroke-miterlimit="10" stroke-width=".25"><line x1="-174" x2="18" y1="-28" y2="-28"/><line x1="-174" x2="18" y1="-24" y2="-24"/><line x1="-174" x2="18" y1="-20" y2="-20"/><line x1="-174" x2="18" y1="-16" y2="-16"/><line x1="-174" x2="18" y1="-12" y2="-12"/><line x1="-174" x2="18" y1="-8" y2="-8"/><line x1="-174" x2="18" y1="-4" y2="-4"/><line x1="-174" x2="18"/><line x1="-174" x2="18" y1="4" y2="4"/><line x1="-174" x2="18" y1="8" y2="8"/><line x1="-174" x2="18" y1="12" y2="12"/><line x1="-174" x2="18" y1="16" y2="16"/><line x1="-174" x2="18" y1="20" y2="20"/><line x1="-174" x2="18" y1="24" y2="24"/><line x1="-174" x2="18" y1="28" y2="28"/><line x1="-174" x2="18" y1="32" y2="32"/><line x1="-174" x2="18" y1="36" y2="36"/><line x1="-174" x2="18" y1="40" y2="40"/><line x1="-174" x2="18" y1="44" y2="44"/><line x1="-174" x2="18" y1="48" y2="48"/><line x1="-174" x2="18" y1="52" y2="52"/><line x1="-174" x2="18" y1="56" y2="56"/><line x1="-174" x2="18" y1="60" y2="60"/><line x1="-174" x2="18" y1="64" y2="64"/><line x1="-174" x2="18" y1="68" y2="68"/><line x1="-174" x2="18" y1="72" y2="72"/><line x1="-174" x2="18" y1="76" y2="76"/><line x1="-174" x2="18" y1="80" y2="80"/><line x1="-174" x2="18" y1="84" y2="84"/><line x1="-174" x2="18" y1="88" y2="88"/><line x1="-174" x2="18" y1="92" y2="92"/><line x1="-174" x2="18" y1="96" y2="96"/><line x1="-174" x2="18" y1="100" y2="100"/><line x1="-174" x2="18" y1="104" y2="104"/><line x1="-174" x2="18" y1="108" y2="108"/><line x1="-174" x2="18" y1="112" y2="112"/><line x1="-174" x2="18" y1="116" y2="116"/><line x1="-174" x2="18" y1="120" y2="120"/><line x1="-174" x2="18" y1="124" y2="124"/><line x1="-174" x2="18" y1="128" y2="128"/><line x1="-174" x2="18" y1="132" y2="132"/><line x1="-174" x2="18" y1="136" y2="136"/><line x1="-174" x2="18" y1="140" y2="140"/><line x1="-174" x2="18" y1="144" y2="144"/><line x1="-174" x2="18" y1="148" y2="148"/><line x1="-174" x2="18" y1="152" y2="152"/><line x1="-174" x2="18" y1="156" y2="156"/></g><path d="m17.75-31.75v191.5h-191.5v-191.5h191.5m0.25-0.25h-192v192h192v-192z"/></g></g><g fill="#F44336"><rect x="-142" width="4" height="128" opacity=".3"/><rect x="-18" width="4" height="128" opacity=".3"/><rect transform="matrix(-1.837e-16 1 -1 -1.837e-16 -76 80)" x="-80" y="-58" width="4" height="120" opacity=".3"/><rect transform="matrix(-1.837e-16 1 -1 -1.837e-16 48 204)" x="-80" y="66" width="4" height="120" opacity=".3"/></g></g><g display="inline"><g opacity=".6"><circle cx="64" cy="64" r="28" fill="none" opacity=".61" stroke="#000" stroke-miterlimit="10" stroke-width=".2625"/><line x1="84" x2="84" y2="128" fill="none" opacity=".61" stroke="#000" stroke-miterlimit="10" stroke-width=".25"/><line x1="44" x2="44" y2="128" fill="none" opacity=".61" stroke="#000" stroke-miterlimit="10" stroke-width=".25"/><line x1="64" x2="64" y2="128" fill="none" opacity=".61" stroke="#000" stroke-miterlimit="10" stroke-width=".25"/><line x1="128" y1="64" y2="64" fill="none" opacity=".61" stroke="#000" stroke-miterlimit="10" stroke-width=".25"/><line x1="128" y1="44" y2="44" fill="none" opacity=".61" stroke="#000" stroke-miterlimit="10" stroke-width=".25"/><line x1="128" y1="83.75" y2="83.75" fill="none" opacity=".61" stroke="#000" stroke-miterlimit="10" stroke-width=".25"/><line x1="128" y1="128" fill="none" opacity=".61" stroke="#000" stroke-miterlimit="10" stroke-width=".25"/><line x2="128" y1="128" fill="none" opacity=".61" stroke="#000" stroke-miterlimit="10" stroke-width=".25"/><g opacity=".61"><path d="M64,4.26c32.94,0,59.74,26.8,59.74,59.74S96.94,123.74,64,123.74S4.26,96.94,4.26,64S31.06,4.26,64,4.26 M64,4 C30.86,4,4,30.86,4,64s26.86,60,60,60s60-26.86,60-60S97.14,4,64,4L64,4z"/></g><path d="m107.97 115.97h-87.94c-4.42 0-8.03-3.61-8.03-8.03v-87.91c0-4.42 3.61-8.03 8.03-8.03h87.94c4.42 0 8.03 3.61 8.03 8.03v87.91c0 4.42-3.61 8.03-8.03 8.03z" fill="none" opacity=".61" stroke="#000" stroke-miterlimit="10" stroke-width=".2578"/><path d="m100 124h-72c-4.4 0-8-3.6-8-8v-104c0-4.4 3.6-8 8-8h72c4.4 0 8 3.6 8 8v104c0 4.4-3.6 8-8 8z" fill="none" opacity=".61" stroke="#000" stroke-miterlimit="10" stroke-width=".2628"/><path d="M113.77,108H14.23 C8.6,108,4,103.4,4,97.77V30.28c0-5.63,4.6-10.23,10.23-10.23h99.54c5.63,0,10.23,4.6,10.23,10.23v67.48 C124,103.4,119.4,108,113.77,108z" fill="none" opacity=".61" stroke="#000" stroke-miterlimit="10" stroke-width=".2627"/></g><g opacity=".2"><defs><rect id="i" width="128" height="128" opacity=".2"/></defs><clipPath id="s"><use xlink:href="#i"/></clipPath><g clip-path="url(#s)"><g fill="none" stroke="#000" stroke-miterlimit="10" stroke-width=".25"><line x1="-28" x2="-28" y1="160" y2="-32"/><line x1="-24" x2="-24" y1="160" y2="-32"/><line x1="-20" x2="-20" y1="160" y2="-32"/><line x1="-16" x2="-16" y1="160" y2="-32"/><line x1="-12" x2="-12" y1="160" y2="-32"/><line x1="-8" x2="-8" y1="160" y2="-32"/><line x1="-4" x2="-4" y1="160" y2="-32"/><line y1="160" y2="-32"/><line x1="4" x2="4" y1="160" y2="-32"/><line x1="8" x2="8" y1="160" y2="-32"/><line x1="12" x2="12" y1="160" y2="-32"/><line x1="16" x2="16" y1="160" y2="-32"/><line x1="20" x2="20" y1="160" y2="-32"/><line x1="24" x2="24" y1="160" y2="-32"/><line x1="28" x2="28" y1="160" y2="-32"/><line x1="32" x2="32" y1="160" y2="-32"/><line x1="36" x2="36" y1="160" y2="-32"/><line x1="40" x2="40" y1="160" y2="-32"/><line x1="44" x2="44" y1="160" y2="-32"/><line x1="48" x2="48" y1="160" y2="-32"/><line x1="52" x2="52" y1="160" y2="-32"/><line x1="56" x2="56" y1="160" y2="-32"/><line x1="60" x2="60" y1="160" y2="-32"/><line x1="64" x2="64" y1="160" y2="-32"/><line x1="68" x2="68" y1="160" y2="-32"/><line x1="72" x2="72" y1="160" y2="-32"/><line x1="76" x2="76" y1="160" y2="-32"/><line x1="80" x2="80" y1="160" y2="-32"/><line x1="84" x2="84" y1="160" y2="-32"/><line x1="88" x2="88" y1="160" y2="-32"/><line x1="92" x2="92" y1="160" y2="-32"/><line x1="96" x2="96" y1="160" y2="-32"/><line x1="100" x2="100" y1="160" y2="-32"/><line x1="104" x2="104" y1="160" y2="-32"/><line x1="108" x2="108" y1="160" y2="-32"/><line x1="112" x2="112" y1="160" y2="-32"/><line x1="116" x2="116" y1="160" y2="-32"/><line x1="120" x2="120" y1="160" y2="-32"/><line x1="124" x2="124" y1="160" y2="-32"/><line x1="128" x2="128" y1="160" y2="-32"/><line x1="132" x2="132" y1="160" y2="-32"/><line x1="136" x2="136" y1="160" y2="-32"/><line x1="137" x2="137" y1="166.05" y2="-25.95"/><line x1="144" x2="144" y1="160" y2="-32"/><line x1="148" x2="148" y1="160" y2="-32"/><line x1="152" x2="152" y1="160" y2="-32"/><line x1="156" x2="156" y1="160" y2="-32"/></g><g fill="none" stroke="#000" stroke-miterlimit="10" stroke-width=".25"><line x1="-32" x2="160" y1="-28" y2="-28"/><line x1="-32" x2="160" y1="-24" y2="-24"/><line x1="-32" x2="160" y1="-20" y2="-20"/><line x1="-32" x2="160" y1="-16" y2="-16"/><line x1="-32" x2="160" y1="-12" y2="-12"/><line x1="-32" x2="160" y1="-8" y2="-8"/><line x1="-32" x2="160" y1="-4" y2="-4"/><line x1="-32" x2="160"/><line x1="-32" x2="160" y1="4" y2="4"/><line x1="-32" x2="160" y1="8" y2="8"/><line x1="-32" x2="160" y1="12" y2="12"/><line x1="-32" x2="160" y1="16" y2="16"/><line x1="-32" x2="160" y1="20" y2="20"/><line x1="-32" x2="160" y1="24" y2="24"/><line x1="-32" x2="160" y1="28" y2="28"/><line x1="-32" x2="160" y1="32" y2="32"/><line x1="-32" x2="160" y1="36" y2="36"/><line x1="-32" x2="160" y1="40" y2="40"/><line x1="-32" x2="160" y1="44" y2="44"/><line x1="-32" x2="160" y1="48" y2="48"/><line x1="-32" x2="160" y1="52" y2="52"/><line x1="-32" x2="160" y1="56" y2="56"/><line x1="-32" x2="160" y1="60" y2="60"/><line x1="-32" x2="160" y1="64" y2="64"/><line x1="-32" x2="160" y1="68" y2="68"/><line x1="-32" x2="160" y1="72" y2="72"/><line x1="-32" x2="160" y1="76" y2="76"/><line x1="-32" x2="160" y1="80" y2="80"/><line x1="-32" x2="160" y1="84" y2="84"/><line x1="-32" x2="160" y1="88" y2="88"/><line x1="-32" x2="160" y1="92" y2="92"/><line x1="-32" x2="160" y1="96" y2="96"/><line x1="-32" x2="160" y1="100" y2="100"/><line x1="-32" x2="160" y1="104" y2="104"/><line x1="-32" x2="160" y1="108" y2="108"/><line x1="-32" x2="160" y1="112" y2="112"/><line x1="-32" x2="160" y1="116" y2="116"/><line x1="-32" x2="160" y1="120" y2="120"/><line x1="-32" x2="160" y1="124" y2="124"/><line x1="-32" x2="160" y1="128" y2="128"/><line x1="-32" x2="160" y1="132" y2="132"/><line x1="-32" x2="160" y1="136" y2="136"/><line x1="-32" x2="160" y1="140" y2="140"/><line x1="-32" x2="160" y1="144" y2="144"/><line x1="-32" x2="160" y1="148" y2="148"/><line x1="-32" x2="160" y1="152" y2="152"/><line x1="-32" x2="160" y1="156" y2="156"/></g><path d="m159.75-31.75v191.5h-191.5v-191.5h191.5m0.25-0.25h-192v192h192v-192z"/></g></g><g fill="#F44336"><rect width="4" height="128" opacity=".3"/><rect x="124" width="4" height="128" opacity=".3"/><rect transform="matrix(-1.837e-16 1 -1 -1.837e-16 66 -62)" x="62" y="-58" width="4" height="120" opacity=".3"/><rect transform="matrix(-1.837e-16 1 -1 -1.837e-16 190 62)" x="62" y="66" width="4" height="120" opacity=".3"/></g></g><g display="inline"><g opacity=".6"><circle cx="-78" cy="-95" r="28" fill="none" opacity=".61" stroke="#000" stroke-miterlimit="10" stroke-width=".2625"/><line x1="-58" x2="-58" y1="-159" y2="-31" fill="none" opacity=".61" stroke="#000" stroke-miterlimit="10" stroke-width=".25"/><line x1="-98" x2="-98" y1="-159" y2="-31" fill="none" opacity=".61" stroke="#000" stroke-miterlimit="10" stroke-width=".25"/><line x1="-78" x2="-78" y1="-159" y2="-31" fill="none" opacity=".61" stroke="#000" stroke-miterlimit="10" stroke-width=".25"/><line x1="-14" x2="-142" y1="-95" y2="-95" fill="none" opacity=".61" stroke="#000" stroke-miterlimit="10" stroke-width=".25"/><line x1="-14" x2="-142" y1="-115" y2="-115" fill="none" opacity=".61" stroke="#000" stroke-miterlimit="10" stroke-width=".25"/><line x1="-14" x2="-142" y1="-75.25" y2="-75.25" fill="none" opacity=".61" stroke="#000" stroke-miterlimit="10" stroke-width=".25"/><line x1="-14" x2="-142" y1="-31" y2="-159" fill="none" opacity=".61" stroke="#000" stroke-miterlimit="10" stroke-width=".25"/><line x1="-142" x2="-14" y1="-31" y2="-159" fill="none" opacity=".61" stroke="#000" stroke-miterlimit="10" stroke-width=".25"/><g opacity=".61"><path d="m-78-154.74c32.94 0 59.74 26.8 59.74 59.74s-26.8 59.74-59.74 59.74-59.74-26.8-59.74-59.74 26.8-59.74 59.74-59.74m0-0.26c-33.14 0-60 26.86-60 60s26.86 60 60 60 60-26.86 60-60-26.86-60-60-60z"/></g><path d="m-34.03-43.03h-87.94c-4.42 0-8.03-3.61-8.03-8.03v-87.91c0-4.42 3.61-8.03 8.03-8.03h87.94c4.42 0 8.03 3.61 8.03 8.03v87.91c0 4.42-3.61 8.03-8.03 8.03z" fill="none" opacity=".61" stroke="#000" stroke-miterlimit="10" stroke-width=".2578"/><path d="m-42-35h-72c-4.4 0-8-3.6-8-8v-104c0-4.4 3.6-8 8-8h72c4.4 0 8 3.6 8 8v104c0 4.4-3.6 8-8 8z" fill="none" opacity=".61" stroke="#000" stroke-miterlimit="10" stroke-width=".2628"/><path d="M-28.23-51h-99.54 C-133.4-51-138-55.6-138-61.23v-67.48c0-5.63,4.6-10.23,10.23-10.23h99.54c5.63,0,10.23,4.6,10.23,10.23v67.48 C-18-55.6-22.6-51-28.23-51z" fill="none" opacity=".61" stroke="#000" stroke-miterlimit="10" stroke-width=".2627"/></g><g opacity=".2"><defs><rect id="m" x="-142" y="-159" width="128" height="128" opacity=".2"/></defs><clipPath id="r"><use xlink:href="#m"/></clipPath><g clip-path="url(#r)"><g fill="none" stroke="#000" stroke-miterlimit="10" stroke-width=".25"><line x1="-170" x2="-170" y1="1" y2="-191"/><line x1="-166" x2="-166" y1="1" y2="-191"/><line x1="-162" x2="-162" y1="1" y2="-191"/><line x1="-158" x2="-158" y1="1" y2="-191"/><line x1="-154" x2="-154" y1="1" y2="-191"/><line x1="-150" x2="-150" y1="1" y2="-191"/><line x1="-146" x2="-146" y1="1" y2="-191"/><line x1="-142" x2="-142" y1="1" y2="-191"/><line x1="-138" x2="-138" y1="1" y2="-191"/><line x1="-134" x2="-134" y1="1" y2="-191"/><line x1="-130" x2="-130" y1="1" y2="-191"/><line x1="-126" x2="-126" y1="1" y2="-191"/><line x1="-122" x2="-122" y1="1" y2="-191"/><line x1="-118" x2="-118" y1="1" y2="-191"/><line x1="-114" x2="-114" y1="1" y2="-191"/><line x1="-110" x2="-110" y1="1" y2="-191"/><line x1="-106" x2="-106" y1="1" y2="-191"/><line x1="-102" x2="-102" y1="1" y2="-191"/><line x1="-98" x2="-98" y1="1" y2="-191"/><line x1="-94" x2="-94" y1="1" y2="-191"/><line x1="-90" x2="-90" y1="1" y2="-191"/><line x1="-86" x2="-86" y1="1" y2="-191"/><line x1="-82" x2="-82" y1="1" y2="-191"/><line x1="-78" x2="-78" y1="1" y2="-191"/><line x1="-74" x2="-74" y1="1" y2="-191"/><line x1="-70" x2="-70" y1="1" y2="-191"/><line x1="-66" x2="-66" y1="1" y2="-191"/><line x1="-62" x2="-62" y1="1" y2="-191"/><line x1="-58" x2="-58" y1="1" y2="-191"/><line x1="-54" x2="-54" y1="1" y2="-191"/><line x1="-50" x2="-50" y1="1" y2="-191"/><line x1="-46" x2="-46" y1="1" y2="-191"/><line x1="-42" x2="-42" y1="1" y2="-191"/><line x1="-38" x2="-38" y1="1" y2="-191"/><line x1="-34" x2="-34" y1="1" y2="-191"/><line x1="-30" x2="-30" y1="1" y2="-191"/><line x1="-26" x2="-26" y1="1" y2="-191"/><line x1="-22" x2="-22" y1="1" y2="-191"/><line x1="-18" x2="-18" y1="1" y2="-191"/><line x1="-14" x2="-14" y1="1" y2="-191"/><line x1="-10" x2="-10" y1="1" y2="-191"/><line x1="-6" x2="-6" y1="1" y2="-191"/><line x1="-5" x2="-5" y1="7.05" y2="-184.95"/><line x1="2" x2="2" y1="1" y2="-191"/><line x1="6" x2="6" y1="1" y2="-191"/><line x1="10" x2="10" y1="1" y2="-191"/><line x1="14" x2="14" y1="1" y2="-191"/></g><g fill="none" stroke="#000" stroke-miterlimit="10" stroke-width=".25"><line x1="-174" x2="18" y1="-187" y2="-187"/><line x1="-174" x2="18" y1="-183" y2="-183"/><line x1="-174" x2="18" y1="-179" y2="-179"/><line x1="-174" x2="18" y1="-175" y2="-175"/><line x1="-174" x2="18" y1="-171" y2="-171"/><line x1="-174" x2="18" y1="-167" y2="-167"/><line x1="-174" x2="18" y1="-163" y2="-163"/><line x1="-174" x2="18" y1="-159" y2="-159"/><line x1="-174" x2="18" y1="-155" y2="-155"/><line x1="-174" x2="18" y1="-151" y2="-151"/><line x1="-174" x2="18" y1="-147" y2="-147"/><line x1="-174" x2="18" y1="-143" y2="-143"/><line x1="-174" x2="18" y1="-139" y2="-139"/><line x1="-174" x2="18" y1="-135" y2="-135"/><line x1="-174" x2="18" y1="-131" y2="-131"/><line x1="-174" x2="18" y1="-127" y2="-127"/><line x1="-174" x2="18" y1="-123" y2="-123"/><line x1="-174" x2="18" y1="-119" y2="-119"/><line x1="-174" x2="18" y1="-115" y2="-115"/><line x1="-174" x2="18" y1="-111" y2="-111"/><line x1="-174" x2="18" y1="-107" y2="-107"/><line x1="-174" x2="18" y1="-103" y2="-103"/><line x1="-174" x2="18" y1="-99" y2="-99"/><line x1="-174" x2="18" y1="-95" y2="-95"/><line x1="-174" x2="18" y1="-91" y2="-91"/><line x1="-174" x2="18" y1="-87" y2="-87"/><line x1="-174" x2="18" y1="-83" y2="-83"/><line x1="-174" x2="18" y1="-79" y2="-79"/><line x1="-174" x2="18" y1="-75" y2="-75"/><line x1="-174" x2="18" y1="-71" y2="-71"/><line x1="-174" x2="18" y1="-67" y2="-67"/><line x1="-174" x2="18" y1="-63" y2="-63"/><line x1="-174" x2="18" y1="-59" y2="-59"/><line x1="-174" x2="18" y1="-55" y2="-55"/><line x1="-174" x2="18" y1="-51" y2="-51"/><line x1="-174" x2="18" y1="-47" y2="-47"/><line x1="-174" x2="18" y1="-43" y2="-43"/><line x1="-174" x2="18" y1="-39" y2="-39"/><line x1="-174" x2="18" y1="-35" y2="-35"/><line x1="-174" x2="18" y1="-31" y2="-31"/><line x1="-174" x2="18" y1="-27" y2="-27"/><line x1="-174" x2="18" y1="-23" y2="-23"/><line x1="-174" x2="18" y1="-19" y2="-19"/><line x1="-174" x2="18" y1="-15" y2="-15"/><line x1="-174" x2="18" y1="-11" y2="-11"/><line x1="-174" x2="18" y1="-7" y2="-7"/><line x1="-174" x2="18" y1="-3" y2="-3"/></g><path d="m17.75-190.75v191.5h-191.5v-191.5h191.5m0.25-0.25h-192v192h192v-192z"/></g></g><g fill="#F44336"><rect x="-142" y="-159" width="4" height="128" opacity=".3"/><rect x="-18" y="-159" width="4" height="128" opacity=".3"/><rect transform="matrix(-1.837e-16 1 -1 -1.837e-16 -235 -79)" x="-80" y="-217" width="4" height="120" opacity=".3"/><rect transform="matrix(-1.837e-16 1 -1 -1.837e-16 -111 45)" x="-80" y="-93" width="4" height="120" opacity=".3"/></g></g><g display="inline"><g opacity=".6"><circle cx="64" cy="-95" r="28" fill="none" opacity=".61" stroke="#000" stroke-miterlimit="10" stroke-width=".2625"/><line x1="84" x2="84" y1="-159" y2="-31" fill="none" opacity=".61" stroke="#000" stroke-miterlimit="10" stroke-width=".25"/><line x1="44" x2="44" y1="-159" y2="-31" fill="none" opacity=".61" stroke="#000" stroke-miterlimit="10" stroke-width=".25"/><line x1="64" x2="64" y1="-159" y2="-31" fill="none" opacity=".61" stroke="#000" stroke-miterlimit="10" stroke-width=".25"/><line x1="128" y1="-95" y2="-95" fill="none" opacity=".61" stroke="#000" stroke-miterlimit="10" stroke-width=".25"/><line x1="128" y1="-115" y2="-115" fill="none" opacity=".61" stroke="#000" stroke-miterlimit="10" stroke-width=".25"/><line x1="128" y1="-75.25" y2="-75.25" fill="none" opacity=".61" stroke="#000" stroke-miterlimit="10" stroke-width=".25"/><line x1="128" y1="-31" y2="-159" fill="none" opacity=".61" stroke="#000" stroke-miterlimit="10" stroke-width=".25"/><line x2="128" y1="-31" y2="-159" fill="none" opacity=".61" stroke="#000" stroke-miterlimit="10" stroke-width=".25"/><g opacity=".61"><path d="m64-154.74c32.94 0 59.74 26.8 59.74 59.74s-26.8 59.74-59.74 59.74-59.74-26.8-59.74-59.74 26.8-59.74 59.74-59.74m0-0.26c-33.14 0-60 26.86-60 60s26.86 60 60 60 60-26.86 60-60-26.86-60-60-60z"/></g><path d="m107.97-43.03h-87.94c-4.42 0-8.03-3.61-8.03-8.03v-87.91c0-4.42 3.61-8.03 8.03-8.03h87.94c4.42 0 8.03 3.61 8.03 8.03v87.91c0 4.42-3.61 8.03-8.03 8.03z" fill="none" opacity=".61" stroke="#000" stroke-miterlimit="10" stroke-width=".2578"/><path d="m100-35h-72c-4.4 0-8-3.6-8-8v-104c0-4.4 3.6-8 8-8h72c4.4 0 8 3.6 8 8v104c0 4.4-3.6 8-8 8z" fill="none" opacity=".61" stroke="#000" stroke-miterlimit="10" stroke-width=".2628"/><path d="M113.77-51H14.23 C8.6-51,4-55.6,4-61.23v-67.48c0-5.63,4.6-10.23,10.23-10.23h99.54c5.63,0,10.23,4.6,10.23,10.23v67.48 C124-55.6,119.4-51,113.77-51z" fill="none" opacity=".61" stroke="#000" stroke-miterlimit="10" stroke-width=".2627"/></g><g opacity=".2"><defs><rect id="l" y="-159" width="128" height="128" opacity=".2"/></defs><clipPath id="q"><use xlink:href="#l"/></clipPath><g clip-path="url(#q)"><g fill="none" stroke="#000" stroke-miterlimit="10" stroke-width=".25"><line x1="-28" x2="-28" y1="1" y2="-191"/><line x1="-24" x2="-24" y1="1" y2="-191"/><line x1="-20" x2="-20" y1="1" y2="-191"/><line x1="-16" x2="-16" y1="1" y2="-191"/><line x1="-12" x2="-12" y1="1" y2="-191"/><line x1="-8" x2="-8" y1="1" y2="-191"/><line x1="-4" x2="-4" y1="1" y2="-191"/><line y1="1" y2="-191"/><line x1="4" x2="4" y1="1" y2="-191"/><line x1="8" x2="8" y1="1" y2="-191"/><line x1="12" x2="12" y1="1" y2="-191"/><line x1="16" x2="16" y1="1" y2="-191"/><line x1="20" x2="20" y1="1" y2="-191"/><line x1="24" x2="24" y1="1" y2="-191"/><line x1="28" x2="28" y1="1" y2="-191"/><line x1="32" x2="32" y1="1" y2="-191"/><line x1="36" x2="36" y1="1" y2="-191"/><line x1="40" x2="40" y1="1" y2="-191"/><line x1="44" x2="44" y1="1" y2="-191"/><line x1="48" x2="48" y1="1" y2="-191"/><line x1="52" x2="52" y1="1" y2="-191"/><line x1="56" x2="56" y1="1" y2="-191"/><line x1="60" x2="60" y1="1" y2="-191"/><line x1="64" x2="64" y1="1" y2="-191"/><line x1="68" x2="68" y1="1" y2="-191"/><line x1="72" x2="72" y1="1" y2="-191"/><line x1="76" x2="76" y1="1" y2="-191"/><line x1="80" x2="80" y1="1" y2="-191"/><line x1="84" x2="84" y1="1" y2="-191"/><line x1="88" x2="88" y1="1" y2="-191"/><line x1="92" x2="92" y1="1" y2="-191"/><line x1="96" x2="96" y1="1" y2="-191"/><line x1="100" x2="100" y1="1" y2="-191"/><line x1="104" x2="104" y1="1" y2="-191"/><line x1="108" x2="108" y1="1" y2="-191"/><line x1="112" x2="112" y1="1" y2="-191"/><line x1="116" x2="116" y1="1" y2="-191"/><line x1="120" x2="120" y1="1" y2="-191"/><line x1="124" x2="124" y1="1" y2="-191"/><line x1="128" x2="128" y1="1" y2="-191"/><line x1="132" x2="132" y1="1" y2="-191"/><line x1="136" x2="136" y1="1" y2="-191"/><line x1="137" x2="137" y1="7.05" y2="-184.95"/><line x1="144" x2="144" y1="1" y2="-191"/><line x1="148" x2="148" y1="1" y2="-191"/><line x1="152" x2="152" y1="1" y2="-191"/><line x1="156" x2="156" y1="1" y2="-191"/></g><g fill="none" stroke="#000" stroke-miterlimit="10" stroke-width=".25"><line x1="-32" x2="160" y1="-187" y2="-187"/><line x1="-32" x2="160" y1="-183" y2="-183"/><line x1="-32" x2="160" y1="-179" y2="-179"/><line x1="-32" x2="160" y1="-175" y2="-175"/><line x1="-32" x2="160" y1="-171" y2="-171"/><line x1="-32" x2="160" y1="-167" y2="-167"/><line x1="-32" x2="160" y1="-163" y2="-163"/><line x1="-32" x2="160" y1="-159" y2="-159"/><line x1="-32" x2="160" y1="-155" y2="-155"/><line x1="-32" x2="160" y1="-151" y2="-151"/><line x1="-32" x2="160" y1="-147" y2="-147"/><line x1="-32" x2="160" y1="-143" y2="-143"/><line x1="-32" x2="160" y1="-139" y2="-139"/><line x1="-32" x2="160" y1="-135" y2="-135"/><line x1="-32" x2="160" y1="-131" y2="-131"/><line x1="-32" x2="160" y1="-127" y2="-127"/><line x1="-32" x2="160" y1="-123" y2="-123"/><line x1="-32" x2="160" y1="-119" y2="-119"/><line x1="-32" x2="160" y1="-115" y2="-115"/><line x1="-32" x2="160" y1="-111" y2="-111"/><line x1="-32" x2="160" y1="-107" y2="-107"/><line x1="-32" x2="160" y1="-103" y2="-103"/><line x1="-32" x2="160" y1="-99" y2="-99"/><line x1="-32" x2="160" y1="-95" y2="-95"/><line x1="-32" x2="160" y1="-91" y2="-91"/><line x1="-32" x2="160" y1="-87" y2="-87"/><line x1="-32" x2="160" y1="-83" y2="-83"/><line x1="-32" x2="160" y1="-79" y2="-79"/><line x1="-32" x2="160" y1="-75" y2="-75"/><line x1="-32" x2="160" y1="-71" y2="-71"/><line x1="-32" x2="160" y1="-67" y2="-67"/><line x1="-32" x2="160" y1="-63" y2="-63"/><line x1="-32" x2="160" y1="-59" y2="-59"/><line x1="-32" x2="160" y1="-55" y2="-55"/><line x1="-32" x2="160" y1="-51" y2="-51"/><line x1="-32" x2="160" y1="-47" y2="-47"/><line x1="-32" x2="160" y1="-43" y2="-43"/><line x1="-32" x2="160" y1="-39" y2="-39"/><line x1="-32" x2="160" y1="-35" y2="-35"/><line x1="-32" x2="160" y1="-31" y2="-31"/><line x1="-32" x2="160" y1="-27" y2="-27"/><line x1="-32" x2="160" y1="-23" y2="-23"/><line x1="-32" x2="160" y1="-19" y2="-19"/><line x1="-32" x2="160" y1="-15" y2="-15"/><line x1="-32" x2="160" y1="-11" y2="-11"/><line x1="-32" x2="160" y1="-7" y2="-7"/><line x1="-32" x2="160" y1="-3" y2="-3"/></g><path d="m159.75-190.75v191.5h-191.5v-191.5h191.5m0.25-0.25h-192v192h192v-192z"/></g></g><g fill="#F44336"><rect y="-159" width="4" height="128" opacity=".3"/><rect x="124" y="-159" width="4" height="128" opacity=".3"/><rect transform="matrix(-1.837e-16 1 -1 -1.837e-16 -93 -221)" x="62" y="-217" width="4" height="120" opacity=".3"/><rect transform="matrix(-1.837e-16 1 -1 -1.837e-16 31 -97)" x="62" y="-93" width="4" height="120" opacity=".3"/></g></g></g></svg>
