<?xml version="1.0" encoding="utf-8"?>
<!-- Generator: Adobe Illustrator 19.2.1, SVG Export Plug-In . SVG Version: 6.00 Build 0)  -->
<svg version="1.1" xmlns="http://www.w3.org/2000/svg" xmlns:xlink="http://www.w3.org/1999/xlink" x="0px" y="0px"
	 viewBox="0 0 128 128" style="enable-background:new 0 0 128 128;" xml:space="preserve">
<g id="Layer_2">
</g>
<g id="图层_1">
	<path id="XMLID_12_" style="fill:#C4C6C7;" d="M17.5,118.15v10.3h93.87v-10.3c0-15.8-23.4-23.83-46.94-23.8
		C41.05,94.37,17.5,101.41,17.5,118.15z"/>
	<path style="fill:#A8A8A8;" d="M62.76,112.53h2.48c6.84,0,12.39-5.28,12.39-11.79v-5.55c-4.28-0.57-8.73-0.85-13.18-0.85
		c-4.75,0.01-9.5,0.31-14.07,0.91v5.48C50.37,107.25,55.92,112.53,62.76,112.53z"/>
	<path id="XMLID_1_" style="fill:#35201A;" d="M64,90.08h-9.08v9.59c0,4.34,3.7,7.86,8.26,7.86h1.65c4.56,0,8.26-3.52,8.26-7.86
		v-9.59H64z"/>
	<g id="XMLID_30_">
		<path id="XMLID_581_" style="fill:#6D4C41;" d="M28.01,53.89c0,0,0.03-8.08,0.03-19.2c0-11.63,8.53-27.73,37.05-27.73
			c19.91,0,27.35,7.88,27.35,13.13c0,0,7.39,1.33,8.12,10.8c0.51,6.65-0.15,22.64-0.15,22.64s-0.8-0.72-1.71-1.13
			c-0.48-0.22-0.97-0.32-0.97-0.32l-1.34,9.13l-9.9-19.17c-0.06-0.11-0.18-0.18-0.31-0.17l-4.01,0.47
			c-11.56,1.37-23.24,1.41-34.81,0.13l-5.42-0.6c-0.13-0.01-0.26,0.06-0.31,0.17l-9.14,19.1l-1.39-9.29c0,0-0.95,0.38-1.81,1.05
			C28.48,53.53,28.01,53.89,28.01,53.89z"/>
		<g id="XMLID_578_">
			<path id="XMLID_580_" style="fill:#563E37;" d="M96.56,51.43c0,0,5.9,1.02,5.9,7.37c0,5.6-4.3,7.82-8.61,7.82V51.43H96.56z"/>
			<path id="XMLID_579_" style="fill:#563E37;" d="M32.23,51.43c0,0-5.9,1.02-5.9,7.37c0,5.6,4.3,7.82,8.61,7.82V51.43H32.23z"/>
		</g>
		<path id="XMLID_577_" style="fill:#70534A;" d="M64.39,9.83c-25.42,0-32.07,19.71-32.07,47.39c0,28.7,18.45,36.13,32.07,36.13
			c13.42,0,32.07-7.21,32.07-36.13C96.47,29.54,89.81,9.83,64.39,9.83z"/>
		<path id="XMLID_576_" style="fill:#4C3734;" d="M73.58,76.34c-1.29,0-9.19,0-9.19,0s-7.9,0-9.19,0c-1.05,0-1.51,0.71-0.81,1.77
			c0.98,1.49,4.59,4.34,10,4.34s9.02-2.86,10-4.34C75.09,77.05,74.63,76.34,73.58,76.34z"/>
		<path id="XMLID_575_" style="fill:#232020;" d="M73.58,76.34c-1.29,0-9.19,0-9.19,0s-7.9,0-9.19,0c-1.05,0-1.51,0.71-0.81,1.77
			c0.98,1.49,4.59,4.34,10,4.34s9.02-2.86,10-4.34C75.09,77.05,74.63,76.34,73.58,76.34z"/>
		<path id="XMLID_574_" style="fill:#3C2B24;" d="M68.83,68.53c-1.56,0.44-3.19,0.66-4.44,0.66c-1.25,0-2.87-0.22-4.44-0.66
			c-0.67-0.19-0.93,0.44-0.69,0.87c0.5,0.87,2.49,2.63,5.13,2.63c2.64,0,4.63-1.76,5.13-2.63C69.76,68.97,69.5,68.34,68.83,68.53z"
			/>
		<path id="XMLID_573_" style="fill:#232020;" d="M53.94,59.03c0,2.83-1.89,5.12-4.24,5.12c-2.34,0-4.25-2.29-4.25-5.12
			c0-2.84,1.91-5.13,4.25-5.13C52.05,53.9,53.94,56.19,53.94,59.03"/>
		<path id="XMLID_572_" style="fill:#232020;" d="M74.84,59.03c0,2.83,1.9,5.12,4.25,5.12c2.34,0,4.24-2.29,4.24-5.12
			c0-2.84-1.9-5.13-4.24-5.13C76.74,53.9,74.84,56.19,74.84,59.03"/>
		<path id="XMLID_571_" style="fill:#232020;" d="M32.32,59.03l-1.69-10.43c0,0-3.67-40.22,34.64-40.22s32.35,41.97,32.35,41.97
			l-1.17,8.68l-9.95-16.85c-4.63-7.78-28.89-15.25-43.48-0.32L32.32,59.03z"/>
		<g id="XMLID_32_">
			<defs>
				<path id="SVGID_1_" d="M65.36,38.04c-22.96-5.1-37.23-6.41-41.74-1.87c-0.61-6.69,1.07-11.28,2.85-13.89
					c2.05-3.01,4-4.6,6.9-6.69C42.37,9.1,54.32,2.86,64.46,2.86c9.93,0,22.09,6.24,31.11,12.73c2.9,2.09,4.85,3.69,6.9,6.69
					c7.77,11.42-0.3,34.26-0.3,34.26s-1.06-3.53-4.74-4.86C97.52,48.04,92.23,44.01,65.36,38.04z"/>
			</defs>
			<use xlink:href="#SVGID_1_"  style="overflow:visible;fill:#C4C6C7;"/>
			<clipPath id="SVGID_2_">
				<use xlink:href="#SVGID_1_"  style="overflow:visible;"/>
			</clipPath>
			<path id="XMLID_33_" style="clip-path:url(#SVGID_2_);fill:#A8A8A8;" d="M65.62,40.24c22.96-5.1,37.8-5.86,42.31-1.31
				c0.61-6.69-1.5-11.83-3.27-14.45c-2.05-3.01-4-4.6-6.9-6.69C88.74,11.3,76.66,5.06,66.52,5.06c-9.93,0-22.09,6.24-31.11,12.73
				c-2.9,2.09-4.85,3.69-6.9,6.69c-7.77,11.42,0.3,34.26,0.3,34.26s0.78-3.39,4.46-4.73C33.19,50.38,38.75,46.2,65.62,40.24z"/>
			<path style="clip-path:url(#SVGID_2_);fill:#A8A8A8;" d="M105.36,42.75c0,0-5.7-8.44-30.77-16.69
				c-19.82-6.52-39.21-6.31-47.26-5.19c0,0-0.25,0.23-0.91,1.25c0,0,23.75-2.79,50.27,7.57c9.74,3.81,22.74,8.57,28.12,16.47
				L105.36,42.75z"/>
		</g>
		<g id="XMLID_34_">
			<path id="XMLID_36_" style="fill:#C4C6C7;" d="M63.43,38.04c22.96-5.1,35.12-6.05,42.41-1.73c0.61-6.69-1.6-11.42-3.37-14.03
				c-2.05-3.01-4-4.6-6.9-6.69C86.55,9.1,74.46,2.86,64.32,2.86c-9.93,0-22.09,6.24-31.11,12.73c-2.9,2.09-4.85,3.69-6.9,6.69
				c-7.77,11.42,0.3,34.26,0.3,34.26s0.78-3.39,4.46-4.73C30.99,48.18,36.56,44.01,63.43,38.04z"/>
			<path style="fill:#A8A8A8;" d="M23.42,42.75c0,0,5.7-8.44,30.77-16.69c19.82-6.52,39.21-6.31,47.26-5.19c0,0,0.25,0.23,0.91,1.25
				c0,0-23.75-2.79-50.27,7.57c-9.74,3.81-22.74,8.57-28.12,16.47L23.42,42.75z"/>
			<path style="fill:#A8A8A8;" d="M23.51,29.44c0,0,6.22-7.86,22.66-14.71C61.84,8.2,78.59,7.22,83.64,8.38l1.71,0.83
				c-7.45-0.17-23.28,1-37.61,7.37c-7.34,3.26-22.58,12.59-24.7,16.61C23.11,31.92,23.28,30.6,23.51,29.44z"/>
		</g>
	</g>
	<rect x="62.17" y="110.5" style="fill:#A8A8A8;" width="4.54" height="17.95"/>
	<g>
		<g id="XMLID_118_">
			<defs>
				<rect id="XMLID_119_" x="140" y="-26" width="128" height="128"/>
			</defs>
			<clipPath id="XMLID_3_">
				<use xlink:href="#XMLID_119_"  style="overflow:visible;"/>
			</clipPath>
			<g style="clip-path:url(#XMLID_3_);">
				<path id="XMLID_613_" d="M220.74,72.86c-5.7-1.08-27.77-1.08-33.47,0C169.22,76.29,156,84.25,156,101.22v20.9l48,0.01l48-0.01
					v-20.9C252,84.25,238.78,76.29,220.74,72.86z"/>
				<polygon style="fill:#FFFFFF;" points="203.52,72.05 219.54,74.27 219.54,109.17 203.52,109.17 				"/>
				<path style="fill:#444444;" d="M214.04,74.13c0,0,4.42,3.24,4.58,10.16c0.18,7.55-6.16,36.54-15.58,53.11l14.68-2.22
					l15.98-38.55l-7.65-5.04l6.47-4.99c0,0-6.22-11-14.96-15.3c-4.25-0.76-12.37-1.1-14.03-1.05l-0.02,1.8L214.04,74.13z"/>
				<polygon style="fill:#FFFFFF;" points="203.52,72.05 187.5,74.27 187.5,109.17 203.52,109.17 				"/>
				<path style="fill:#444444;" d="M193,74.13c0,0-4.42,3.24-4.58,10.16c-0.18,7.55,6.16,36.54,15.58,53.11l-14.68-2.22
					l-15.98-38.55l7.65-5.04l-6.47-4.99c0,0,6.22-11,14.96-15.3c4.25-0.76,12.37-1.1,14.03-1.05l0.02,1.8L193,74.13z"/>
				<path id="XMLID_612_" style="fill:#35201A;" d="M203.54,85.35L203.54,85.35c-6.08,0-10.5-4.93-10.5-11.01V65.5h21v8.84
					C214.04,80.42,209.62,85.35,203.54,85.35z"/>
				<g>
					<g id="XMLID_609_">
						<path id="XMLID_125_" style="fill:#563E37;" d="M237.56,26.91c0,0,6.1,1.06,6.1,7.62c0,5.79-4.45,8.08-8.9,8.08v-15.7H237.56z
							"/>
						<path id="XMLID_610_" style="fill:#563E37;" d="M171.05,26.91c0,0-6.1,1.06-6.1,7.62c0,5.79,4.45,8.08,8.9,8.08v-15.7H171.05z
							"/>
					</g>
					<path id="XMLID_608_" style="fill:#70534A;" d="M204.31-16.09c-26.28,0-33.16,20.37-33.16,48.99
						c0,29.68,19.07,37.35,33.16,37.35c13.88,0,33.16-7.45,33.16-37.35C237.46,4.28,230.59-16.09,204.31-16.09z"/>
					<path id="XMLID_124_" style="fill:#232020;" d="M193.39,35.55c0,2.95-1.98,5.35-4.43,5.35c-2.45,0-4.44-2.4-4.44-5.35
						c0-2.96,1.99-5.36,4.44-5.36C191.41,30.2,193.39,32.59,193.39,35.55"/>
					<path id="XMLID_123_" style="fill:#232020;" d="M215.22,35.55c0,2.95,1.98,5.35,4.44,5.35c2.44,0,4.43-2.4,4.43-5.35
						c0-2.96-1.99-5.36-4.43-5.36C217.2,30.2,215.22,32.59,215.22,35.55"/>
					<path id="XMLID_122_" style="fill:#261819;" d="M213.9,53.63c-1.34,0-9.6,0-9.6,0s-8.25,0-9.6,0c-1.1,0-1.57,0.74-0.85,1.85
						c1.02,1.55,4.8,4.53,10.44,4.53c5.64,0,9.42-2.98,10.44-4.53C215.47,54.37,215,53.63,213.9,53.63z"/>
					<path id="XMLID_121_" style="fill:#35201A;" d="M208.94,45.48c-1.63,0.46-3.33,0.69-4.64,0.69c-1.31,0-3-0.23-4.64-0.69
						c-0.7-0.2-0.97,0.46-0.72,0.9c0.52,0.91,2.6,2.75,5.36,2.75c2.75,0,4.84-1.84,5.36-2.75
						C209.91,45.94,209.64,45.28,208.94,45.48z"/>
					<path id="XMLID_120_" style="fill:#211E1E;" d="M205.1-19.83c0,0-0.51-0.02-0.73-0.01c-0.22,0-0.73,0.01-0.73,0.01
						c-28.36,0.55-36.91,17.61-36.91,29.44c0,11.5,0.01,19.94,0.01,19.94s0.45-0.47,1.28-1.12c0.89-0.69,1.87-1.08,1.87-1.08
						l1.43,9.61l9.45-19.74c0.06-0.12,0.19-0.2,0.32-0.18l5.6,0.62c5.63,0.63,11.28,0.93,16.94,0.94v0.01
						c0.24,0,0.49-0.01,0.73-0.01c0.24,0,0.49,0.01,0.73,0.01V18.6c5.65-0.02,11.31-0.32,16.94-0.94l5.6-0.62
						c0.13-0.01,0.26,0.06,0.32,0.18l9.45,19.74l1.43-9.61c0,0,0.98,0.39,1.87,1.08c0.83,0.65,1.28,1.12,1.28,1.12
						s0.01-8.45,0.01-19.94C242.01-2.22,233.46-19.29,205.1-19.83z"/>
				</g>
			</g>
			<g style="clip-path:url(#XMLID_3_);">
				<g>
					<g>
						<path d="M205.37,83.13c1.55-1.07,3.01-1.84,4.5-2.79c1.19-0.76,3.2-2.17,5.09-1.45c1.6,0.61,1.03,2.8,1.03,5.66
							c0,3.36,0.57,5.31-0.7,5.87c-1.71,0.76-3.96-0.58-5.84-1.4c-1.07-0.46-4.13-1.86-4.65-2.67
							C204.29,85.55,204.31,83.66,205.37,83.13z"/>
						<path style="fill:#444444;" d="M213.28,82.84c0.03,0.24-1.66,0.78-3.79,1.22c-2.13,0.44-3.88,0.6-3.91,0.36
							c-0.03-0.24,1.66-0.78,3.79-1.22C211.49,82.77,213.25,82.6,213.28,82.84z"/>
						<path style="fill:#444444;" d="M213.31,86.83c-0.02,0.24-1.78,0.18-3.92-0.13c-2.14-0.31-3.86-0.75-3.84-0.99
							s1.78-0.18,3.92,0.13C211.61,86.15,213.33,86.59,213.31,86.83z"/>
					</g>
					<g>
						<path d="M201.63,83.13c-1.55-1.07-3.01-1.84-4.5-2.79c-1.19-0.76-3.2-2.17-5.09-1.45c-1.6,0.61-1.03,2.8-1.03,5.66
							c0,3.36-0.57,5.31,0.7,5.87c1.71,0.76,3.96-0.58,5.84-1.4c1.07-0.46,4.13-1.86,4.65-2.67
							C202.71,85.55,202.69,83.66,201.63,83.13z"/>
						<path style="fill:#444444;" d="M193.72,82.84c-0.03,0.24,1.66,0.78,3.79,1.22c2.13,0.44,3.88,0.6,3.91,0.36
							s-1.66-0.78-3.79-1.22C195.51,82.77,193.75,82.6,193.72,82.84z"/>
						<path style="fill:#444444;" d="M193.69,86.83c0.02,0.24,1.78,0.18,3.92-0.13c2.14-0.31,3.86-0.75,3.84-0.99
							c-0.02-0.24-1.78-0.18-3.92,0.13C195.39,86.15,193.67,86.59,193.69,86.83z"/>
					</g>
				</g>
				<path d="M206.92,85.16c0,1.95-1.53,3.07-3.42,3.07s-3.42-1.12-3.42-3.07s0.85-3.52,3.42-3.52
					C205.96,81.64,206.92,83.22,206.92,85.16z"/>
			</g>
		</g>
		<circle style="fill:#232020;" cx="203.5" cy="92.63" r="1.59"/>
		<circle style="fill:#232020;" cx="203.5" cy="98.08" r="1.59"/>
	</g>
</g>
</svg>
