<?xml version="1.0" encoding="utf-8"?>
<!-- Generator: Adobe Illustrator 16.0.0, SVG Export Plug-In . SVG Version: 6.00 Build 0)  -->
<!DOCTYPE svg PUBLIC "-//W3C//DTD SVG 1.1//EN" "http://www.w3.org/Graphics/SVG/1.1/DTD/svg11.dtd">
<svg version="1.1" id="レイヤー_1" xmlns="http://www.w3.org/2000/svg" xmlns:xlink="http://www.w3.org/1999/xlink" x="0px"
	 y="0px" width="128px" height="128px" viewBox="0 0 128 128" enable-background="new 0 0 128 128" xml:space="preserve">
<g>
	<g>
		<path fill="#B89278" d="M17.27,84.55c-2.16,0.1-9.43-1.91-11.97-5.17c-1.21-1.56-1.97-7.81,0.91-11.23
			c3.12-3.7,9.96-4.53,9.96-4.53L17.27,84.55z"/>
		<path fill="#B89278" d="M111.26,84.22c2.16,0.1,9.43-1.91,11.97-5.17c1.22-1.56,1.98-7.81-0.91-11.23
			c-3.12-3.7-9.97-4.53-9.97-4.53L111.26,84.22z"/>
	</g>
	<g>
		<g>
			<g>
				<g>
					<g>
						<g>
							<g>
								<g>
									<path fill="#FCD4B5" d="M111.35,60.52c2.59-0.63,5.95-0.28,8.48,0.62c6.51,2.31,8.66,9.05,7.79,14.93
										c-0.69,4.68-3.52,8.4-9.94,10.34c-3.86,1.17-7,0.04-7,0.04s1.2-4.17,1.58-5.63c6.18,1.98,9.55-1.6,9.61-7.24
										c0.1-9.12-10.51-7.13-10.51-7.13S111.12,62.18,111.35,60.52z"/>
								</g>
								<g>
									<path fill="#FCD4B5" d="M16.66,60.52c-2.6-0.63-5.95-0.28-8.48,0.62c-6.52,2.31-8.66,9.05-7.8,14.93
										c0.69,4.68,3.53,8.4,9.94,10.34c3.87,1.17,7,0.04,7,0.04s-1.2-4.17-1.58-5.63c-6.17,1.98-9.54-1.6-9.61-7.24
										c-0.09-9.12,10.51-7.13,10.51-7.13S16.89,62.18,16.66,60.52z"/>
								</g>
								<g>
									<g>
										<path fill="#FCD4B5" d="M114.45,69.19c-0.8-15-3.2-30.44-14.94-40.04c-9.47-7.76-22.85-11.73-35.93-11.69
											c-13.09-0.04-26.45,3.93-35.94,11.69C15.9,38.75,13.51,54.19,12.7,69.19c-0.76,14.24,4.35,28.6,14.28,38.5
											c5.5,5.49,12.34,9.21,19.39,11.23c2.68,0.76,9.6,2.55,16.87,2.55c7.27,0,14.86-1.78,17.54-2.55
											c7.05-2.02,13.9-5.74,19.4-11.23C110.1,97.79,115.21,83.44,114.45,69.19z"/>
									</g>
								</g>
							</g>
						</g>
						<g>
							<path fill="#2F2F2F" d="M64.66,100.83c-2.99,0.03-6.04-0.63-8.5-1.85c-1.23-0.61-2.5-1.45-3.49-2.4
								c-1-0.97-1.95-2.69-0.79-3.88c0.94-0.96,2.33,0.01,3.23,0.5c2.57,1.4,5.5,2.43,8.48,2.56c3.31,0.15,5.98-0.86,8.81-2.36
								c0.81-0.43,2.41-1.48,3.38-0.9c2.36,1.44-0.45,4.02-1.67,5.06C71.49,99.78,68.12,100.8,64.66,100.83z"/>
						</g>
						<g>
							<path fill="#78A3AD" d="M111.39,29.06c-9.18-14.81-30-23.36-47.82-22.46c-17.81-0.9-38.63,7.65-47.81,22.46
								c-4.43,7.13-6.33,13.26-7,21.46c-0.44,5.4,0.14,9.85,0.9,13.93c0.73,4.02,3.04,9.43,3.04,9.43s4.71-23.61,35.9-30.49
								c31.19-6.88,38.78-18.9,38.78-18.9s4.91,15.44,10.51,25.58c5.6,10.15,16.56,19.11,16.56,19.11s2.15-6.8,2.63-8.75
								c2.29-9.17,0.58-17.95-3.25-26.74C113.13,32.1,112.31,30.55,111.39,29.06z"/>
						</g>
					</g>
					<g>
						<path fill="#B89278" d="M76.52,88.19c-0.06,0.21-0.05,0.43,0.02,0.67c0.06,0.23,0.21,0.41,0.33,0.6
							c0.32,0.56,0.92,0.98,1.33,1.47c0.98,1.18,1.79,2.56,2.19,4.06c0.31,1.23,0.47,2.44,0.73,3.66c0.09,0.46,0.35,0.82,0.81,0.96
							c1.12,0.35,1.69-0.53,1.95-1.48c0.91-3.19-0.45-7.32-3.08-9.34c-0.72-0.56-1.77-1.16-2.68-1.34
							c-0.44-0.09-0.97-0.08-1.31,0.26C76.66,87.86,76.57,88.02,76.52,88.19z"/>
					</g>
					<g>
						<path fill="#B89278" d="M50.74,88.19c0.06,0.21,0.06,0.43-0.01,0.67c-0.06,0.23-0.22,0.41-0.33,0.6
							c-0.33,0.56-0.92,0.98-1.33,1.47c-1,1.18-1.79,2.56-2.19,4.06c-0.32,1.23-0.48,2.44-0.73,3.66c-0.09,0.46-0.36,0.82-0.82,0.96
							c-1.11,0.35-1.68-0.53-1.95-1.48c-0.91-3.19,0.44-7.32,3.07-9.34c0.73-0.56,1.78-1.16,2.68-1.34c0.45-0.09,0.97-0.08,1.3,0.26
							C50.6,87.86,50.7,88.02,50.74,88.19z"/>
					</g>
				</g>
			</g>
			<g>
				<g>
					<g>
						<path fill="#2F2F2F" d="M46.98,72.21c0,3.78-2.79,6.84-6.22,6.84c-3.41,0-6.2-3.07-6.2-6.84c0-3.78,2.79-6.84,6.2-6.84
							C44.19,65.36,46.98,68.43,46.98,72.21z"/>
					</g>
				</g>
				<g>
					<g>
						<path fill="#2F2F2F" d="M79.94,72.21c0,3.78,2.79,6.84,6.21,6.84c3.42,0,6.2-3.07,6.2-6.84c0-3.78-2.78-6.84-6.2-6.84
							C82.73,65.36,79.94,68.43,79.94,72.21z"/>
					</g>
				</g>
			</g>
		</g>
		<path fill="#2F2F2F" d="M63.58,88.64c5.49,0,8.52-4.56,6.46-5.57c-2.06-1.01-2.25,2.68-6.46,2.68c-4.21,0-4.4-3.69-6.46-2.68
			C55.07,84.07,58.09,88.64,63.58,88.64z"/>
	</g>
</g>
</svg>
