<svg enable-background="new 0 0 128 128" viewBox="0 0 128 128" xmlns="http://www.w3.org/2000/svg" xmlns:xlink="http://www.w3.org/1999/xlink"><path d="m39.74 30.96c1.53 0.75 3.38 0.21 4.29-1.23v-0.01c0.73-1.17 1.57-2.26 2.52-3.28 1.17-1.26 2.49-2.38 3.91-3.35 1.4-0.95 2.91-1.76 4.49-2.38 1.57-0.63 3.22-1.08 4.89-1.36 1.68-0.28 3.4-0.37 5.1-0.27 1.74 0.1 3.46 0.4 5.13 0.89 0.85 0.25 1.67 0.57 2.48 0.91l-1.02 2.09-3.51 7.18c-0.86 1.77 0.76 3.72 2.66 3.21l18.36-6.3c1.34-0.36 2.05-1.82 1.51-3.09l-6.3-18.35c-0.76-1.81-3.3-1.89-4.16-0.12l-3.51 7.19-0.59 1.2c-14.09-6.11-30.45-0.96-38.53 11.86-1.05 1.67-0.4 3.89 1.37 4.76l0.91 0.45z" fill="#78909C"/><g opacity=".2"><path d="m82.13 6.23c0.15 0 0.22 0.08 0.25 0.14l6.27 18.27c0.01 0.04 0.03 0.08 0.05 0.12 0.03 0.08 0.03 0.16-0.01 0.24s-0.1 0.13-0.18 0.15c-0.04 0.01-0.09 0.02-0.13 0.04l-18.27 6.27h-0.05c-0.14 0-0.22-0.12-0.23-0.15-0.07-0.11-0.05-0.19-0.01-0.27l3.5-7.18 1.02-2.09c0.24-0.49 0.27-1.06 0.08-1.58-0.19-0.51-0.59-0.93-1.09-1.14-1.02-0.44-1.89-0.75-2.71-0.99-1.81-0.53-3.69-0.85-5.58-0.96-0.48-0.03-0.98-0.04-1.46-0.04-1.36 0-2.73 0.11-4.08 0.33-1.81 0.3-3.6 0.79-5.3 1.47-1.71 0.68-3.35 1.55-4.87 2.59-1.54 1.05-2.97 2.27-4.24 3.64-1.03 1.1-1.95 2.3-2.75 3.59-0.25 0.39-0.67 0.63-1.13 0.63-0.2 0-0.39-0.05-0.58-0.13l-0.91-0.44c-0.47-0.23-0.65-0.63-0.71-0.85-0.06-0.21-0.12-0.63 0.15-1.05 5.32-8.45 14.48-13.49 24.51-13.49 3.98 0 7.85 0.81 11.52 2.4 0.26 0.11 0.53 0.17 0.8 0.17 0.74 0 1.45-0.41 1.8-1.12l0.59-1.2 3.51-7.19c0.01-0.07 0.06-0.18 0.24-0.18m0-2c-0.82 0-1.63 0.42-2.05 1.28l-3.51 7.19-0.59 1.2c-4-1.74-8.19-2.57-12.32-2.57-10.39 0-20.42 5.25-26.2 14.42-1.05 1.67-0.4 3.89 1.37 4.76l0.91 0.44c0.47 0.23 0.96 0.34 1.46 0.34 1.12 0 2.2-0.57 2.83-1.57v-0.01c0.73-1.17 1.57-2.26 2.52-3.28 1.17-1.26 2.49-2.38 3.91-3.35 1.4-0.95 2.91-1.76 4.49-2.38 1.57-0.63 3.22-1.08 4.89-1.36 1.24-0.2 2.5-0.31 3.76-0.31 0.45 0 0.9 0.01 1.34 0.04 1.74 0.1 3.46 0.4 5.13 0.89 0.85 0.25 1.67 0.57 2.48 0.91l-1.02 2.09-3.51 7.18c-0.77 1.57 0.43 3.29 2.04 3.29 0.2 0 0.41-0.03 0.61-0.08l18.36-6.3c1.34-0.36 2.05-1.82 1.51-3.09l-6.3-18.35c-0.39-0.91-1.25-1.38-2.11-1.38z" fill="#424242"/></g><path d="m89.3 101.46c-1.48-0.97-3.45-0.67-4.57 0.7v0.01c-0.91 1.11-1.91 2.12-3.02 3.04-1.37 1.14-2.87 2.12-4.46 2.93-1.57 0.8-3.23 1.42-4.93 1.86s-3.45 0.69-5.21 0.75c-1.77 0.06-3.54-0.07-5.28-0.4-1.77-0.33-3.51-0.87-5.16-1.59-0.84-0.37-1.65-0.8-2.44-1.27l1.33-2.01 4.55-6.93c1.12-1.7-0.29-3.93-2.31-3.65l-19.71 4.06c-1.42 0.2-2.35 1.6-1.96 2.98l4.06 19.71c0.54 1.96 3.15 2.37 4.27 0.67l4.56-6.93 0.76-1.16c13.67 8.15 31.18 5.01 41.18-7.12 1.3-1.58 0.92-3.95-0.79-5.08l-0.87-0.57z" fill="#78909C"/><g opacity=".2"><path d="m58.14 96.87c0.18 0 0.27 0.13 0.32 0.21 0.1 0.19 0.01 0.32-0.02 0.37l-4.55 6.92-1.33 2.01c-0.3 0.46-0.4 1.02-0.28 1.55s0.46 0.99 0.94 1.27c0.99 0.58 1.84 1.02 2.65 1.37 1.79 0.78 3.67 1.36 5.59 1.72 1.58 0.3 3.2 0.45 4.81 0.45 0.3 0 0.6-0.01 0.91-0.02 1.9-0.07 3.79-0.34 5.63-0.81 1.85-0.48 3.64-1.15 5.34-2.01 1.72-0.87 3.35-1.94 4.83-3.17 1.2-0.99 2.3-2.11 3.3-3.32 0.28-0.34 0.69-0.54 1.13-0.54 0.28 0 0.55 0.08 0.79 0.24l0.87 0.58c0.48 0.32 0.61 0.77 0.65 1.02 0.04 0.24 0.04 0.7-0.3 1.12-5.72 6.94-14.19 10.92-23.23 10.92-5.41 0-10.73-1.47-15.39-4.24-0.32-0.19-0.67-0.28-1.02-0.28-0.65 0-1.29 0.32-1.67 0.9l-0.77 1.16-4.56 6.93c-0.05 0.08-0.13 0.17-0.3 0.17-0.1 0-0.28-0.03-0.36-0.23l-4.04-19.62c-0.01-0.04-0.02-0.09-0.03-0.13-0.04-0.13 0.01-0.24 0.05-0.3s0.12-0.15 0.26-0.16c0.04-0.01 0.09-0.01 0.13-0.02l19.62-4.04c0.01-0.02 0.02-0.02 0.03-0.02m0-2c-0.11 0-0.22 0.01-0.34 0.02l-19.71 4.06c-1.42 0.2-2.35 1.6-1.96 2.98l4.06 19.71c0.31 1.13 1.3 1.74 2.3 1.74 0.74 0 1.49-0.34 1.97-1.07l4.56-6.93 0.76-1.16c5.13 3.06 10.8 4.52 16.41 4.52 9.34 0 18.52-4.07 24.77-11.64 1.3-1.58 0.92-3.95-0.79-5.08l-0.87-0.58c-0.58-0.38-1.24-0.57-1.89-0.57-1.01 0-2 0.44-2.68 1.27v0.01c-0.91 1.11-1.91 2.12-3.02 3.04-1.37 1.14-2.87 2.12-4.46 2.93-1.57 0.8-3.23 1.42-4.93 1.86s-3.45 0.69-5.21 0.75c-0.28 0.01-0.56 0.01-0.84 0.01-1.49 0-2.98-0.14-4.45-0.41-1.77-0.33-3.51-0.87-5.16-1.59-0.84-0.37-1.65-0.8-2.44-1.27l1.33-2.01 4.55-6.93c1.06-1.58-0.13-3.66-1.96-3.66z" fill="#424242"/></g><linearGradient id="d" x1="31.557" x2="31.557" y1="35.721" y2="99.875" gradientUnits="userSpaceOnUse"><stop stop-color="#8BC34A" offset="0"/><stop stop-color="#87BF48" offset=".3346"/><stop stop-color="#7CB342" offset=".664"/><stop stop-color="#69A038" offset=".9904"/><stop stop-color="#689F38" offset=".998"/></linearGradient><path d="m38.68 75.69c0-1.9-0.53-3.42-1.59-4.55s-2.85-2.17-5.38-3.12-4.72-1.9-6.55-2.84c-1.84-0.94-3.41-2.02-4.72-3.24s-2.34-2.65-3.07-4.3-1.1-3.61-1.1-5.89c0-3.93 1.25-7.14 3.76-9.65s5.84-3.97 10-4.39v-7.46h5.58v7.56c4.11 0.58 7.33 2.29 9.65 5.14s3.49 6.53 3.49 11.06h-10.07c0-2.79-0.58-4.87-1.73-6.26-1.15-1.38-2.69-2.07-4.62-2.07-1.91 0-3.38 0.54-4.43 1.62s-1.57 2.57-1.57 4.48c0 1.77 0.51 3.18 1.53 4.25s2.92 2.16 5.7 3.28c2.78 1.11 5.06 2.17 6.85 3.15 1.79 0.99 3.3 2.1 4.53 3.35 1.23 1.24 2.17 2.66 2.82 4.25s0.98 3.44 0.98 5.56c0 3.95-1.23 7.16-3.69 9.62s-5.85 3.91-10.18 4.36v6.93h-5.54v-6.9c-4.76-0.51-8.45-2.2-11.06-5.07s-3.92-6.69-3.92-11.45h10.07c0 2.76 0.66 4.88 1.97 6.36s3.2 2.21 5.66 2.21c2.04 0 3.66-0.54 4.84-1.62 1.2-1.07 1.79-2.53 1.79-4.37z" fill="url(#d)"/><g opacity=".2"><path d="m33.62 32.25v5.56c0 1 0.73 1.84 1.72 1.98 3.63 0.51 6.37 1.96 8.38 4.42 1.67 2.05 2.66 4.66 2.95 7.8h-6.08c-0.25-2.31-0.95-4.17-2.09-5.53-1.52-1.83-3.65-2.79-6.15-2.79-2.46 0-4.43 0.75-5.86 2.23-1.41 1.46-2.13 3.44-2.13 5.87 0 2.29 0.7 4.19 2.09 5.63 1.23 1.29 3.32 2.52 6.4 3.75 2.69 1.08 4.92 2.11 6.63 3.05 1.61 0.89 2.99 1.9 4.08 3 1.04 1.05 1.84 2.26 2.39 3.6s0.83 2.96 0.83 4.8c0 3.43-1.02 6.11-3.11 8.2-2.12 2.12-5.13 3.39-8.97 3.78-1.02 0.1-1.8 0.96-1.8 1.99v4.93h-1.54v-4.9c0-1.02-0.77-1.88-1.79-1.99-4.3-0.46-7.51-1.91-9.8-4.43-1.92-2.11-3.01-4.77-3.31-8.1h6.1c0.28 2.33 1.07 4.24 2.36 5.69 1.7 1.91 4.11 2.88 7.16 2.88 2.55 0 4.63-0.72 6.19-2.14 1.61-1.47 2.43-3.44 2.43-5.85 0-2.42-0.72-4.41-2.13-5.92-1.28-1.37-3.29-2.55-6.14-3.62-2.45-0.92-4.59-1.85-6.34-2.75-1.66-0.85-3.1-1.84-4.27-2.93-1.11-1.03-1.98-2.26-2.6-3.65-0.61-1.38-0.93-3.09-0.93-5.08 0-3.41 1.04-6.1 3.18-8.24 2.19-2.19 5.07-3.44 8.79-3.82 1.02-0.1 1.8-0.96 1.8-1.99v-5.46h1.56m2-1.97h-5.58v7.46c-4.16 0.42-7.49 1.88-10 4.39s-3.76 5.73-3.76 9.65c0 2.28 0.37 4.24 1.1 5.89s1.75 3.08 3.07 4.3c1.31 1.22 2.89 2.3 4.72 3.24s4.02 1.89 6.55 2.84 4.33 1.99 5.38 3.12c1.06 1.13 1.59 2.64 1.59 4.55 0 1.84-0.59 3.29-1.78 4.37s-2.8 1.62-4.84 1.62c-2.46 0-4.35-0.74-5.66-2.21-1.31-1.48-1.97-3.6-1.97-6.36h-10.08c0 4.76 1.31 8.58 3.92 11.45s6.3 4.56 11.06 5.07v6.9h5.54v-6.93c4.32-0.44 7.71-1.89 10.18-4.36 2.46-2.46 3.69-5.67 3.69-9.62 0-2.11-0.33-3.97-0.98-5.56s-1.59-3.01-2.82-4.25-2.74-2.36-4.53-3.35-4.07-2.04-6.85-3.15c-2.78-1.12-4.68-2.21-5.7-3.28s-1.53-2.49-1.53-4.25c0-1.9 0.52-3.4 1.57-4.48s2.52-1.62 4.43-1.62c1.93 0 3.47 0.69 4.62 2.07s1.73 3.47 1.73 6.26h10.07c0-4.53-1.16-8.22-3.49-11.06-2.32-2.85-5.54-4.56-9.65-5.14v-7.56z" fill="#37474F"/></g><linearGradient id="b" x1="93.561" x2="93.561" y1="34.808" y2="92.15" gradientUnits="userSpaceOnUse"><stop stop-color="#03A9F4" offset="0"/><stop stop-color="#0288D1" offset=".998"/></linearGradient><path d="M93.62,58.1l8.96-22.57h12.53L102.22,64.1h8.72v7H99.42v4.6h11.53v6.96H99.42v11.12h-12 V82.67H75.17V75.7h12.25v-4.6H75.17v-7h9.76L72.01,35.53h12.6L93.62,58.1z" fill="url(#b)"/><g opacity=".2"><path d="m112.01 37.53-11.61 25.75c-0.28 0.62-0.23 1.34 0.14 1.91s1 0.91 1.68 0.91h6.72v3h-9.53c-1.1 0-2 0.9-2 2v4.6c0 1.1 0.9 2 2 2h9.53v2.96h-9.53c-1.1 0-2 0.9-2 2v9.12h-8v-9.12c0-1.1-0.9-2-2-2h-10.24v-2.96h10.25c1.1 0 2-0.9 2-2v-4.6c0-1.1-0.9-2-2-2h-10.25v-3h7.76c0.68 0 1.31-0.34 1.68-0.92s0.42-1.29 0.14-1.91l-11.64-25.74h8.15l8.5 21.31c0.3 0.76 1.04 1.26 1.86 1.26s1.55-0.5 1.86-1.26l8.46-21.31h8.07m3.1-2zh-12.53l-8.96 22.57-9-22.57h-12.6l12.92 28.57h-9.76v7h12.25v4.6h-12.26v6.96h12.25v11.12h12v-11.11h11.53v-6.97h-11.53v-4.6h11.53v-7h-8.72l12.88-28.57z" fill="#37474F"/></g><g display="none"><g display="inline"><g opacity=".6"><circle cx="64" cy="64" r="28" fill="none" opacity=".61" stroke="#000" stroke-miterlimit="10" stroke-width=".2625"/><line x1="83.5" x2="83.5" y2="128" fill="none" opacity=".61" stroke="#000" stroke-miterlimit="10"/><line x1="43.5" x2="43.5" y2="128" fill="none" opacity=".61" stroke="#000" stroke-miterlimit="10"/><line x1="63.5" x2="63.5" y2="128" fill="none" opacity=".61" stroke="#000" stroke-miterlimit="10"/><line x1="128" y1="64.5" y2="64.5" fill="none" opacity=".61" stroke="#000" stroke-miterlimit="10"/><line x1="128" y1="44.5" y2="44.5" fill="none" opacity=".61" stroke="#000" stroke-miterlimit="10"/><line x1="128" y1="83.5" y2="83.5" fill="none" opacity=".61" stroke="#000" stroke-miterlimit="10"/><line x1="128" y1="128" fill="none" opacity=".61" stroke="#000" stroke-miterlimit="10" stroke-width=".25"/><line x2="128" y1="128" fill="none" opacity=".61" stroke="#000" stroke-miterlimit="10" stroke-width=".25"/><g opacity=".61"><path d="M64,4.26c32.94,0,59.74,26.8,59.74,59.74S96.94,123.74,64,123.74S4.26,96.94,4.26,64S31.06,4.26,64,4.26 M64,4 C30.86,4,4,30.86,4,64s26.86,60,60,60s60-26.86,60-60S97.14,4,64,4L64,4z"/></g><path d="m115.5 108.47c0 4.43-3.59 8.03-8.03 8.03h-87.94c-4.43 0-8.03-3.59-8.03-8.03v-87.94c0-4.43 3.59-8.03 8.03-8.03h87.94c4.43 0 8.03 3.59 8.03 8.03v87.94z" fill="none" opacity=".61" stroke="#000" stroke-miterlimit="10"/><path d="m107.5 116.5c0 4.42-3.58 8-8 8h-72c-4.42 0-8-3.58-8-8v-104c0-4.42 3.58-8 8-8h72c4.42 0 8 3.58 8 8v104z" fill="none" opacity=".61" stroke="#000" stroke-miterlimit="10"/><path d="M123.5,98.27c0,5.65-4.58,10.23-10.23,10.23H13.73 c-5.65,0-10.23-4.58-10.23-10.23V30.73c0-5.65,4.58-10.23,10.23-10.23h99.54c5.65,0,10.23,4.58,10.23,10.23V98.27z" fill="none" opacity=".61" stroke="#000" stroke-miterlimit="10"/></g><g opacity=".2"><defs><rect id="c" width="128" height="128" opacity=".2"/></defs><clipPath id="a"><use xlink:href="#c"/></clipPath><g clip-path="url(#a)"><g fill="none" stroke="#000" stroke-miterlimit="10"><line x1="-28.5" x2="-28.5" y1="160" y2="-32"/><line x1="-24.5" x2="-24.5" y1="160" y2="-32"/><line x1="-20.5" x2="-20.5" y1="160" y2="-32"/><line x1="-16.5" x2="-16.5" y1="160" y2="-32"/><line x1="-12.5" x2="-12.5" y1="160" y2="-32"/><line x1="-8.5" x2="-8.5" y1="160" y2="-32"/><line x1="-4.5" x2="-4.5" y1="160" y2="-32"/><line x1="-.5" x2="-.5" y1="160" y2="-32"/><line x1="3.5" x2="3.5" y1="160" y2="-32"/><line x1="7.5" x2="7.5" y1="160" y2="-32"/><line x1="11.5" x2="11.5" y1="160" y2="-32"/><line x1="15.5" x2="15.5" y1="160" y2="-32"/><line x1="19.5" x2="19.5" y1="160" y2="-32"/><line x1="23.5" x2="23.5" y1="160" y2="-32"/><line x1="27.5" x2="27.5" y1="160" y2="-32"/><line x1="31.5" x2="31.5" y1="160" y2="-32"/><line x1="35.5" x2="35.5" y1="160" y2="-32"/><line x1="39.5" x2="39.5" y1="160" y2="-32"/><line x1="43.5" x2="43.5" y1="160" y2="-32"/><line x1="47.5" x2="47.5" y1="160" y2="-32"/><line x1="51.5" x2="51.5" y1="160" y2="-32"/><line x1="55.5" x2="55.5" y1="160" y2="-32"/><line x1="59.5" x2="59.5" y1="160" y2="-32"/><line x1="63.5" x2="63.5" y1="160" y2="-32"/><line x1="67.5" x2="67.5" y1="160" y2="-32"/><line x1="71.5" x2="71.5" y1="160" y2="-32"/><line x1="75.5" x2="75.5" y1="160" y2="-32"/><line x1="79.5" x2="79.5" y1="160" y2="-32"/><line x1="83.5" x2="83.5" y1="160" y2="-32"/><line x1="87.5" x2="87.5" y1="160" y2="-32"/><line x1="91.5" x2="91.5" y1="160" y2="-32"/><line x1="95.5" x2="95.5" y1="160" y2="-32"/><line x1="99.5" x2="99.5" y1="160" y2="-32"/><line x1="103.5" x2="103.5" y1="160" y2="-32"/><line x1="107.5" x2="107.5" y1="160" y2="-32"/><line x1="111.5" x2="111.5" y1="160" y2="-32"/><line x1="115.5" x2="115.5" y1="160" y2="-32"/><line x1="119.5" x2="119.5" y1="160" y2="-32"/><line x1="123.5" x2="123.5" y1="160" y2="-32"/><line x1="127.5" x2="127.5" y1="160" y2="-32"/><line x1="131.5" x2="131.5" y1="160" y2="-32"/><line x1="135.5" x2="135.5" y1="160" y2="-32"/><line x1="136.5" x2="136.5" y1="166" y2="-26"/><line x1="143.5" x2="143.5" y1="160" y2="-32"/><line x1="147.5" x2="147.5" y1="160" y2="-32"/><line x1="151.5" x2="151.5" y1="160" y2="-32"/><line x1="155.5" x2="155.5" y1="160" y2="-32"/></g><g fill="none" stroke="#000" stroke-miterlimit="10"><line x1="-32" x2="160" y1="-27.5" y2="-27.5"/><line x1="-32" x2="160" y1="-23.5" y2="-23.5"/><line x1="-32" x2="160" y1="-19.5" y2="-19.5"/><line x1="-32" x2="160" y1="-15.5" y2="-15.5"/><line x1="-32" x2="160" y1="-11.5" y2="-11.5"/><line x1="-32" x2="160" y1="-7.5" y2="-7.5"/><line x1="-32" x2="160" y1="-3.5" y2="-3.5"/><line x1="-32" x2="160" y1=".5" y2=".5"/><line x1="-32" x2="160" y1="4.5" y2="4.5"/><line x1="-32" x2="160" y1="8.5" y2="8.5"/><line x1="-32" x2="160" y1="12.5" y2="12.5"/><line x1="-32" x2="160" y1="16.5" y2="16.5"/><line x1="-32" x2="160" y1="20.5" y2="20.5"/><line x1="-32" x2="160" y1="24.5" y2="24.5"/><line x1="-32" x2="160" y1="28.5" y2="28.5"/><line x1="-32" x2="160" y1="32.5" y2="32.5"/><line x1="-32" x2="160" y1="36.5" y2="36.5"/><line x1="-32" x2="160" y1="40.5" y2="40.5"/><line x1="-32" x2="160" y1="44.5" y2="44.5"/><line x1="-32" x2="160" y1="48.5" y2="48.5"/><line x1="-32" x2="160" y1="52.5" y2="52.5"/><line x1="-32" x2="160" y1="56.5" y2="56.5"/><line x1="-32" x2="160" y1="60.5" y2="60.5"/><line x1="-32" x2="160" y1="64.5" y2="64.5"/><line x1="-32" x2="160" y1="68.5" y2="68.5"/><line x1="-32" x2="160" y1="72.5" y2="72.5"/><line x1="-32" x2="160" y1="76.5" y2="76.5"/><line x1="-32" x2="160" y1="80.5" y2="80.5"/><line x1="-32" x2="160" y1="84.5" y2="84.5"/><line x1="-32" x2="160" y1="88.5" y2="88.5"/><line x1="-32" x2="160" y1="92.5" y2="92.5"/><line x1="-32" x2="160" y1="96.5" y2="96.5"/><line x1="-32" x2="160" y1="100.5" y2="100.5"/><line x1="-32" x2="160" y1="104.5" y2="104.5"/><line x1="-32" x2="160" y1="108.5" y2="108.5"/><line x1="-32" x2="160" y1="112.5" y2="112.5"/><line x1="-32" x2="160" y1="116.5" y2="116.5"/><line x1="-32" x2="160" y1="120.5" y2="120.5"/><line x1="-32" x2="160" y1="124.5" y2="124.5"/><line x1="-32" x2="160" y1="128.5" y2="128.5"/><line x1="-32" x2="160" y1="132.5" y2="132.5"/><line x1="-32" x2="160" y1="136.5" y2="136.5"/><line x1="-32" x2="160" y1="140.5" y2="140.5"/><line x1="-32" x2="160" y1="144.5" y2="144.5"/><line x1="-32" x2="160" y1="148.5" y2="148.5"/><line x1="-32" x2="160" y1="152.5" y2="152.5"/><line x1="-32" x2="160" y1="156.5" y2="156.5"/></g><path d="m160-32v192h-192v-192h192-192v192h192v-192z"/></g></g><g fill="#F44336"><rect width="4" height="128" opacity=".3"/><rect x="124" width="4" height="128" opacity=".3"/><rect transform="matrix(-1.837e-16 1 -1 -1.837e-16 66 -62)" x="62" y="-58" width="4" height="120" opacity=".3"/><rect transform="matrix(-1.837e-16 1 -1 -1.837e-16 190 62)" x="62" y="66" width="4" height="120" opacity=".3"/></g></g></g></svg>
