<svg enable-background="new 0 0 128 128" viewBox="0 0 128 128" xmlns="http://www.w3.org/2000/svg"><radialGradient id="e" cx="50.092" cy="26.669" r="96.592" gradientTransform="matrix(-.9691 .2465 .2465 .9691 109.53 -13.719)" gradientUnits="userSpaceOnUse"><stop stop-color="#FFF157" offset=".282"/><stop stop-color="#FEEE54" offset=".5225"/><stop stop-color="#FAE44A" offset=".7208"/><stop stop-color="#F4D538" offset=".9035"/><stop stop-color="#F0C92C" offset="1"/></radialGradient><path d="m89.47 28.93c-2.46-9.66-7.29-18.09-13.69-24.84 20.75 5.42 38.01 21.66 43.67 43.91 8.29 32.59-11.41 65.72-43.99 74.01-27.79 7.07-55.96-6.22-68.8-30.49 12.29 7.12 27.26 9.64 42.12 5.86 30.14-7.65 48.36-38.31 40.69-68.45z" fill="url(#e)"/><radialGradient id="d" cx="28.004" cy="84.875" r="14.313" gradientTransform="matrix(-.9691 .2465 .2465 .9691 109.53 -13.719)" gradientUnits="userSpaceOnUse"><stop stop-color="#E0A800" offset=".0061135"/><stop stop-color="#E0A800" stop-opacity=".1074" offset=".6098"/><stop stop-color="#E0A800" stop-opacity="0" offset=".6825"/></radialGradient><path d="m91.78 80.3c0.61 6.13 6.41 10.57 12.96 9.92 6.54-0.65 11.35-6.15 10.74-12.28s-6.41-10.57-12.96-9.92c-6.54 0.65-11.35 6.15-10.74 12.28z" fill="url(#d)"/><radialGradient id="c" cx="40.105" cy="99.22" r="13.447" gradientTransform="matrix(-.9691 .2465 .2465 .9691 109.53 -13.719)" gradientUnits="userSpaceOnUse"><stop stop-color="#E0A800" offset=".0061135"/><stop stop-color="#E0A800" stop-opacity=".1074" offset=".6098"/><stop stop-color="#E0A800" stop-opacity="0" offset=".6825"/></radialGradient><path d="m89.42 103.89c1.77 3.82 6.29 5.48 10.09 3.72 3.8-1.77 5.44-6.29 3.67-10.11s-6.29-5.48-10.09-3.72c-3.8 1.77-5.44 6.3-3.67 10.11z" fill="url(#c)"/><radialGradient id="b" cx="14.981" cy="66.226" r="9.2048" gradientTransform="matrix(-.9691 .2465 .2465 .9691 109.53 -13.719)" gradientUnits="userSpaceOnUse"><stop stop-color="#E0A800" offset=".0061135"/><stop stop-color="#E0A800" stop-opacity=".1074" offset=".6098"/><stop stop-color="#E0A800" stop-opacity="0" offset=".6825"/></radialGradient><path d="m107.44 62.08c1.21 2.61 4.31 3.75 6.91 2.54s3.73-4.31 2.51-6.92c-1.21-2.61-4.31-3.75-6.91-2.54-2.6 1.2-3.73 4.3-2.51 6.92z" fill="url(#b)"/><radialGradient id="a" cx="64.793" cy="106.56" r="15.244" gradientTransform="matrix(-.9691 .2465 .2465 .9691 109.53 -13.719)" gradientUnits="userSpaceOnUse"><stop stop-color="#E0A800" offset=".0061135"/><stop stop-color="#E0A800" stop-opacity=".1074" offset=".6098"/><stop stop-color="#E0A800" stop-opacity="0" offset=".6825"/></radialGradient><circle cx="73.24" cy="109.06" r="8.97" fill="url(#a)"/><g opacity=".2"><path d="m84.57 10.4c15.75 7.23 27.62 21.23 31.98 38.34 7.87 30.93-10.89 62.5-41.83 70.37-4.7 1.19-9.51 1.8-14.31 1.8-18.06 0-34.78-8.35-45.62-22.3 6.43 2.32 13.23 3.53 20.08 3.53 4.91 0 9.84-0.62 14.65-1.84 31.7-8.06 50.93-40.41 42.86-72.11-1.61-6.33-4.27-12.35-7.81-17.79m-8.79-6.31c6.41 6.75 11.23 15.18 13.69 24.84 7.67 30.14-10.55 60.79-40.69 68.46-4.65 1.18-9.32 1.75-13.91 1.75-10.06 0-19.77-2.72-28.21-7.61 10.51 19.87 31.31 32.38 53.75 32.38 4.97 0 10.01-0.61 15.05-1.89 32.59-8.29 52.28-41.43 43.99-74.01-5.66-22.26-22.92-38.5-43.67-43.92z" fill="#424242"/></g></svg>
