<svg enable-background="new 0 0 128 128" viewBox="0 0 128 128" xmlns="http://www.w3.org/2000/svg" xmlns:xlink="http://www.w3.org/1999/xlink"><rect x="4" y="101" width="119.8" height="22" fill="#8D6E63"/><rect x="4" y="101" width="119.9" height="7" fill="#424242"/><g opacity=".2"><path d="M122,103v18H6v-18H122 M124,101H4v22h120V101z" fill="#eee"/></g><g fill="#212121"><circle cx="18" cy="99" r="6"/><circle cx="34" cy="99" r="6"/><circle cx="94" cy="99" r="6"/><circle cx="110" cy="99" r="6"/></g><linearGradient id="i" x1="64.05" x2="64.05" y1="4152" y2="4223" gradientTransform="translate(0 -4124)" gradientUnits="userSpaceOnUse"><stop stop-color="#FF7043" offset="0"/><stop stop-color="#F15A2B" offset=".6132"/><stop stop-color="#E64A19" offset="1"/></linearGradient><path d="m115.9 99h-103.7c-3.3 0-6-2.7-6-6v-59c0-3.3 2.7-6 6-6h103.7c3.3 0 6 2.7 6 6v59c0 3.3-2.7 6-6 6z" fill="url(#i)"/><linearGradient id="h" x1="6.1" x2="121.9" y1="45.12" y2="45.12" gradientTransform="matrix(1 0 0 -1 0 127.97)" gradientUnits="userSpaceOnUse"><stop stop-color="#FFEB3B" offset=".0038323"/><stop stop-color="#FCC830" offset=".8197"/><stop stop-color="#FBC02D" offset="1"/></linearGradient><rect x="6.1" y="79.7" width="115.8" height="6.3" fill="url(#h)"/><defs><path id="g" d="m115.9 99h-103.7c-3.3 0-6-2.7-6-6v-59c0-3.3 2.7-6 6-6h103.7c3.3 0 6 2.7 6 6v59c0 3.3-2.7 6-6 6z"/></defs><clipPath id="f"><use xlink:href="#g"/></clipPath><rect x="3.8" y="18.8" width="120.5" height="17.2" clip-path="url(#f)" fill="#689F38"/><defs><path id="e" d="m115.9 99h-103.7c-3.3 0-6-2.7-6-6v-59c0-3.3 2.7-6 6-6h103.7c3.3 0 6 2.7 6 6v59c0 3.3-2.7 6-6 6z"/></defs><clipPath id="d"><use xlink:href="#e"/></clipPath><g clip-path="url(#d)"><path d="m21 74h-15.4c-2.2 0-4-1.8-4-4v-20.2c0-2.2 1.8-4 4-4h15.4c2.2 0 4 1.8 4 4v20.2c0 2.2-1.8 4-4 4z" fill="#4FC3F7"/></g><defs><path id="c" d="m115.9 99h-103.7c-3.3 0-6-2.7-6-6v-59c0-3.3 2.7-6 6-6h103.7c3.3 0 6 2.7 6 6v59c0 3.3-2.7 6-6 6z"/></defs><clipPath id="b"><use xlink:href="#c"/></clipPath><g clip-path="url(#b)" opacity=".2"><path d="m21 47.8c1.1 0 2 0.9 2 2v20.2c0 1.1-0.9 2-2 2h-15.4c-1.1 0-2-0.9-2-2v-20.2c0-1.1 0.9-2 2-2h15.4m0-2h-15.4c-2.2 0-4 1.8-4 4v20.2c0 2.2 1.8 4 4 4h15.4c2.2 0 4-1.8 4-4v-20.2c0-2.3-1.8-4-4-4z" fill="#424242"/></g><path d="m44.2 69.1h-9.2c-2.2 0-4-1.8-4-4v-15.3c0-2.2 1.8-4 4-4h9.1c2.2 0 4 1.8 4 4v15.3c0.1 2.2-1.6 4-3.9 4z" fill="#4FC3F7"/><g opacity=".2"><path d="m44.2 47.8c1.1 0 2 0.9 2 2v15.3c0 1.1-0.9 2-2 2h-9.2c-1.1 0-2-0.9-2-2v-15.3c0-1.1 0.9-2 2-2h9.2m0-2h-9.2c-2.2 0-4 1.8-4 4v15.3c0 2.2 1.8 4 4 4h9.1c2.2 0 4-1.8 4-4v-15.3c0.1-2.3-1.6-4-3.9-4z" fill="#424242"/></g><path d="m66.4 68.9h-9.1c-2.2 0-4-1.8-4-4v-15.4c0-2.2 1.8-4 4-4h9.1c2.2 0 4 1.8 4 4v15.3c0 2.3-1.8 4.1-4 4.1z" fill="#4FC3F7"/><g opacity=".2"><path d="m66.4 47.5c1.1 0 2 0.9 2 2v15.3c0 1.1-0.9 2-2 2h-9.1c-1.1 0-2-0.9-2-2v-15.3c0-1.1 0.9-2 2-2h9.1m0-2h-9.1c-2.2 0-4 1.8-4 4v15.3c0 2.2 1.8 4 4 4h9.1c2.2 0 4-1.8 4-4v-15.3c0-2.2-1.8-4-4-4z" fill="#424242"/></g><path d="m88.5 69.1h-9.1c-2.2 0-4-1.8-4-4v-15.3c0-2.2 1.8-4 4-4h9.1c2.2 0 4 1.8 4 4v15.3c0 2.2-1.8 4-4 4z" fill="#4FC3F7"/><g opacity=".2"><path d="m88.5 47.8c1.1 0 2 0.9 2 2v15.3c0 1.1-0.9 2-2 2h-9.1c-1.1 0-2-0.9-2-2v-15.3c0-1.1 0.9-2 2-2h9.1m0-2h-9.1c-2.2 0-4 1.8-4 4v15.3c0 2.2 1.8 4 4 4h9.1c2.2 0 4-1.8 4-4v-15.3c0-2.3-1.8-4-4-4z" fill="#424242"/></g><path d="m110.6 69h-9.1c-2.2 0-4-1.8-4-4v-15.3c0-2.2 1.8-4 4-4h9.1c2.2 0 4 1.8 4 4v15.3c0 2.2-1.8 4-4 4z" fill="#4FC3F7"/><g opacity=".2"><path d="m110.6 47.7c1.1 0 2 0.9 2 2v15.3c0 1.1-0.9 2-2 2h-9.1c-1.1 0-2-0.9-2-2v-15.3c0-1.1 0.9-2 2-2h9.1m0-2h-9.1c-2.2 0-4 1.8-4 4v15.3c0 2.2 1.8 4 4 4h9.1c2.2 0 4-1.8 4-4v-15.3c0-2.2-1.8-4-4-4z" fill="#424242"/></g><defs><path id="a" d="m115.9 99h-103.7c-3.3 0-6-2.7-6-6v-59c0-3.3 2.7-6 6-6h103.7c3.3 0 6 2.7 6 6v59c0 3.3-2.7 6-6 6z"/></defs><clipPath id="o"><use xlink:href="#a"/></clipPath><linearGradient id="n" x1="64.05" x2="64.05" y1="91.97" y2="99.97" gradientTransform="matrix(1 0 0 -1 0 127.97)" gradientUnits="userSpaceOnUse"><stop stop-color="#FFEB3B" offset=".0038323"/><stop stop-color="#FCC830" offset=".8197"/><stop stop-color="#FBC02D" offset="1"/></linearGradient><rect x="3.8" y="28" width="120.5" height="8" clip-path="url(#o)" fill="url(#n)"/><defs><path id="m" d="m115.9 99h-103.7c-3.3 0-6-2.7-6-6v-59c0-3.3 2.7-6 6-6h103.7c3.3 0 6 2.7 6 6v59c0 3.3-2.7 6-6 6z"/></defs><clipPath id="l"><use xlink:href="#m"/></clipPath><g clip-path="url(#l)"><path d="m21 74h-15.4c-2.2 0-4-1.8-4-4v-20.2c0-2.2 1.8-4 4-4h15.4c2.2 0 4 1.8 4 4v20.2c0 2.2-1.8 4-4 4z" fill="#4FC3F7"/></g><defs><path id="k" d="m115.9 99h-103.7c-3.3 0-6-2.7-6-6v-59c0-3.3 2.7-6 6-6h103.7c3.3 0 6 2.7 6 6v59c0 3.3-2.7 6-6 6z"/></defs><clipPath id="j"><use xlink:href="#k"/></clipPath><g clip-path="url(#j)" opacity=".2"><path d="m21 48.4c0.7 0 1.3 0.6 1.3 1.3v20.3c0 0.7-0.6 1.3-1.3 1.3h-15.4c-0.7 0-1.3-0.6-1.3-1.3v-20.2c0-0.7 0.6-1.3 1.3-1.3h15.4m0-2.7h-15.4c-2.2 0-4 1.8-4 4v20.2c0 2.2 1.8 4 4 4h15.4c2.2 0 4-1.8 4-4v-20.2c0-2.3-1.8-4-4-4z" fill="#616161"/></g><g opacity=".2"><path d="m115.9 31c1.7 0 3 1.3 3 3v59c0 1.7-1.3 3-3 3h-103.7c-1.6 0-3-1.3-3-3v-59c0-1.7 1.4-3 3-3h103.7m0-3h-103.7c-3.3 0-6 2.7-6 6v59c0 3.3 2.7 6 6 6h103.7c3.3 0 6-2.7 6-6v-59c0-3.3-2.7-6-6-6z" fill="#424242"/></g></svg>
