<svg enable-background="new 0 0 128 128" viewBox="0 0 128 128" xmlns="http://www.w3.org/2000/svg" xmlns:xlink="http://www.w3.org/1999/xlink"><defs><rect id="g" x="4" y="4" width="120" height="120"/></defs><clipPath id="a"><use xlink:href="#g"/></clipPath><g clip-path="url(#a)"><linearGradient id="f" x1="64" x2="64" y1="97.5" y2="130.5" gradientUnits="userSpaceOnUse"><stop stop-color="#F78C1F" offset="0"/><stop stop-color="#F37F20" offset=".4936"/><stop stop-color="#ED6D23" offset="1"/></linearGradient><path d="m13.5 130.5v-9.44c0-16.24 25.36-23.53 50.5-23.56h0.13c25.03 0 50.37 8.09 50.37 23.56v9.44h-101z" fill="url(#f)"/><path d="m64.13 99c12.9 0 25.42 2.19 34.36 6 6.62 2.83 14.51 7.91 14.51 16.05v7.95h-98v-7.94c0-15.2 24.61-22.03 49-22.06h0.13m0-3h-0.13c-25.49 0.03-52 7.28-52 25.06v10.94h104v-10.94c0-16.76-26.26-25.06-51.87-25.06z" fill="#DA6727"/></g><g clip-path="url(#a)"><path d="m63.17 107.23c-4 0-7.26-3.22-7.26-7.17v-8.98h16.16v8.98c0 3.96-3.26 7.17-7.26 7.17h-1.64z" fill="#C48E6A"/><path d="m71.08 92.08v7.98c0 3.4-2.81 6.17-6.26 6.17h-1.65c-3.45 0-6.26-2.77-6.26-6.17v-7.98h14.17m2-2h-18.16v9.98c0 4.51 3.7 8.17 8.26 8.17h1.65c4.56 0 8.26-3.66 8.26-8.17v-9.98h-0.01z" fill="#B07853"/></g><g clip-path="url(#a)"><radialGradient id="e" cx="66.45" cy="45.699" r="23.207" gradientUnits="userSpaceOnUse"><stop stop-color="#BFA055" offset="0"/><stop stop-color="#AB872F" offset="1"/></radialGradient><path d="m93.38 87.11c0.53-0.58 1.11-1.11 1.91-1.13 1.32-0.03 3.36-0.25 4.97-1.22 0.47-0.28 0.87-0.67 1.17-1.14-1.13-0.23-2.68-0.89-3.73-2.93-1.6-3.1 0.25-5.95 3.32-9.12 3.46-3.57 9.21-15.82 3.1-26.74-1.15-0.17-17.81 0.08-22.03 0.08h-17.99v49.71c19.76 0 23.67-1.29 29.28-7.51z" fill="url(#e)"/><radialGradient id="d" cx="63.152" cy="46.532" r="23.25" gradientUnits="userSpaceOnUse"><stop stop-color="#BFA055" offset="0"/><stop stop-color="#AB872F" offset="1"/></radialGradient><path d="m34.82 87.11c-0.53-0.58-1.11-1.11-1.91-1.13-1.32-0.03-3.36-0.25-4.97-1.22-0.47-0.28-0.87-0.67-1.17-1.14 1.13-0.23 2.75-0.86 3.73-2.93 1.6-3.35-0.67-6.33-3.32-9.12-4.33-4.57-9.21-15.82-3.1-26.74 1.15-0.17 17.81 0.08 22.03 0.08h17.99v49.71c-19.76 0-23.67-1.29-29.28-7.51z" fill="url(#d)"/><path d="m102.88 46.67 0.26 0.5c5.42 10.4-0.55 20.63-3.19 23.36-2.96 3.05-5.7 6.73-3.58 10.85 0.55 1.07 1.27 1.93 2.13 2.56-1.18 0.42-2.47 0.52-3.24 0.54-1.56 0.04-2.56 1.15-2.99 1.63-3.4 3.77-5.97 5.63-13.09 6.45 0 0-3.69 1.89-6.24 2.53v0.91c12.46-0.45 16.47-2.23 21.56-7.88 0.39-0.44 0.65-0.63 0.83-0.64 1.58-0.04 3.84-0.32 5.7-1.43 0.67-0.4 1.24-0.96 1.67-1.63l1.17-1.85-2.14-0.43c-1.19-0.24-2.07-0.94-2.69-2.14-1.04-2.01-0.2-4.01 3.07-7.39 4.05-4.18 9.28-14.94 3.97-25.89 0 0 0-0.02 0.01-0.05h-3.21z" fill="#8F7635"/><path d="m26.09 72.6c2.71 2.86 4.17 5.1 3.06 7.44-0.56 1.17-1.43 1.86-2.67 2.1l-2.14 0.43 1.17 1.85c0.42 0.67 1 1.23 1.67 1.63 1.86 1.11 4.13 1.39 5.7 1.43 0.18 0 0.44 0.2 0.83 0.64 5.07 5.62 9.06 7.42 21.39 7.88v-0.95c-2.15-0.6-6.08-2.48-6.08-2.48-7.12-0.82-9.69-2.68-13.09-6.45-0.43-0.48-1.43-1.59-2.99-1.63-0.76-0.02-2.04-0.12-3.21-0.53 0.89-0.65 1.61-1.53 2.13-2.61 2.22-4.67-1.56-8.66-3.59-10.8-3.84-4.05-8.03-13.55-3.8-23.12l0.29-0.65-0.05-0.09h-3.32c0.02 0.06 0.04 0.11 0.07 0.17-4.37 10.67 0.32 21.2 4.63 25.74z" fill="#8F7635"/><path d="m36.67 72.26c-5.36 0-9.71-4.67-9.71-10.41s4.36-10.41 9.71-10.41h54.65c5.36 0 9.71 4.67 9.71 10.41s-4.36 10.41-9.71 10.41h-54.65z" fill="#C48E6A"/><path d="m91.33 52.43c4.8 0 8.71 4.22 8.71 9.41s-3.91 9.41-8.71 9.41h-54.66c-4.8 0-8.71-4.22-8.71-9.41s3.91-9.41 8.71-9.41h54.66m0-2h-54.66c-5.89 0-10.71 5.14-10.71 11.41 0 6.28 4.82 11.41 10.71 11.41h54.65c5.89 0 10.71-5.14 10.71-11.41 0.01-6.27-4.81-11.41-10.7-11.41z" fill="#B07853"/><linearGradient id="c" x1="64" x2="64" y1="94.591" y2="12.825" gradientUnits="userSpaceOnUse"><stop stop-color="#CCA47A" offset="0"/><stop stop-color="#D6B088" offset=".2568"/><stop stop-color="#DEB892" offset=".5893"/><stop stop-color="#E0BB95" offset="1"/></linearGradient><path d="m64 95.27c-15.66 0-32.52-12.14-32.52-38.81 0-12.38 3.56-23.79 10.02-32.13 6.04-7.8 14.25-12.27 22.5-12.27s16.45 4.47 22.5 12.27c6.46 8.33 10.02 19.75 10.02 32.13 0 12.09-3.51 22.19-10.14 29.21-5.86 6.19-13.81 9.6-22.38 9.6z" fill="url(#c)"/><path d="m64 13.07c7.94 0 15.85 4.33 21.71 11.88 6.33 8.16 9.81 19.35 9.81 31.52 0 11.83-3.41 21.7-9.87 28.52-5.67 5.99-13.36 9.29-21.65 9.29s-15.98-3.3-21.65-9.29c-6.46-6.82-9.87-16.69-9.87-28.52 0-12.16 3.49-23.35 9.81-31.52 5.86-7.55 13.77-11.88 21.71-11.88m0-2c-17.4 0-33.52 18.61-33.52 45.39 0 26.64 16.61 39.81 33.52 39.81s33.52-13.17 33.52-39.81c0-26.78-16.12-45.39-33.52-45.39z" fill="#BA8F63"/><g fill="#5D4037"><path d="m77.26 63h6.35c1.06-1 1.75-2.47 1.75-4.03 0-2.82-2.21-5.18-4.93-5.18s-4.93 2.4-4.93 5.22c0.01 1.56 0.7 2.99 1.76 3.99z"/><path d="m44.39 63h6.35c1.06-1 1.75-2.47 1.75-4.03 0-2.82-2.21-5.18-4.93-5.18s-4.93 2.4-4.93 5.22c0.01 1.56 0.7 2.99 1.76 3.99z"/></g><defs><path id="b" d="m64 4.03h-0.02s-0.01 0-0.02 0c-45.43 0.24-36.12 52.14-36.12 52.14s5.1 8.99 5.1 8.81c-0.03-1.41 0.46-6.89 0.46-6.89l-2.68-2.92s3.89-25.44 6.79-24.91c4.45 0.81 26.54 2 26.57 2 7.83 0 14.92-0.36 19.37-1.17 2.9-0.53 9.64 1.7 10.68 4.45 1.33 3.54 3.13 19.71 3.13 19.71l-2.68 2.83s0.49 5.51 0.46 6.89c0 0.18 5.1-8.81 5.1-8.81s9.3-51.89-36.14-52.13z"/></defs><clipPath><use xlink:href="#b"/></clipPath><radialGradient id="h" cx="64.326" cy="33.52" r="36.373" gradientTransform="matrix(1 0 0 .8642 0 4.5518)" gradientUnits="userSpaceOnUse"><stop stop-color="#BFA055" offset="0"/><stop stop-color="#AB872F" offset="1"/></radialGradient><path d="m52.25 10.65c-12.27 4.35-13.49-3.35-13.49-3.35-6.66 3.32-2.28 10.45-2.28 10.45s-6.75-0.5-9.64 5.34c-3.02 6.11-0.36 10.78-0.36 10.78s-6.5 4.13-3.95 11.63c1.69 4.98 6.75 6.98 6.75 6.98-0.62 10.74 2.77 15.95 2.77 15.95s4.21-18.45 3.81-21.27c0 0 7.76-1.54 16.57-6.58 5.95-3.41 10.02-7.41 16.71-8.91 10.18-2.29 12.45 5.08 12.45 5.08s9.42-1.81 12.26 11.27c1.17 5.38 1.67 14.37 2.31 19.84-0.06-0.48 3.5-6.4 4.12-12.4 0.23-2.23 3.61-7.67 4.63-11.72 2.21-8.8-0.69-15.74-2.06-17.81-2.5-3.79-8.49-9-12.97-8.24 0.23-4.8-3.55-9.25-8.1-10.78-12.45-4.18-25.87 2.44-29.53 3.74z" fill="url(#h)"/><path d="m21.11 45.98c0.08 0.22 0.17 0.45 0.27 0.68l2.28 2.89 1.1-2.79-0.32-0.63c-0.21-0.42-0.36-0.77-0.48-1.11-2.13-6.26 3.11-9.73 3.33-9.88l1.18-0.76-0.68-1.23c-0.09-0.17-2.21-4.12 0.4-9.38 2.33-4.71 7.75-3.73 7.98-3.69l2.95 0.59-1.31-2.71c-0.1-0.22-2.19-4.67 0.33-8.01 0.55 1.01 1.43 2.15 2.84 3 2.85 1.73 6.8 1.72 11.75-0.03 0.79-0.28 1.68-0.76 2.8-1.38 4.53-2.47 12.11-6.61 24.12-2.81 4.34 1.38 8.92 5.17 8.74 8.89l-0.09 1.87 1.84-0.31c3.6-0.6 9.1 4.01 11.47 7.59 1.22 1.84 3.98 9.5 1.92 17.71-0.11 0.45-0.26 0.94-0.46 1.5l-0.22 0.62 0.04 0.08 1.09 1.9 2.11-1.9c0.05-0.23 0.27-1.14 0.35-1.46 2.24-8.93-0.56-17.42-2.32-20.09-2.44-3.7-7.91-8.64-12.82-8.97-0.79-4.72-5.84-8.72-10.73-10.27-13.25-4.21-21.86 0.49-26.49 3.02-0.96 0.53-1.79 0.98-2.36 1.18-3.97 1.41-7.13 1.52-9.15 0.32-1.97-1.17-2.32-3.23-2.33-3.31l-0.34-2.44-2.01 1.41c-4.24 2.99-4.4 7.63-3.6 10.88-2.93 0.12-6.77 1.36-8.8 5.47-2.42 4.9-1.56 8.99-0.86 10.95-2.52 2.15-5.54 6.65-3.52 12.61z" fill="#8F7635"/><path d="m67.81 68.05c-0.1-0.04-0.21-0.07-0.32-0.08h-6.99c-0.11 0.01-0.21 0.04-0.32 0.08-0.63 0.26-0.98 0.91-0.68 1.61s1.69 2.66 4.49 2.66 4.19-1.96 4.49-2.66c0.31-0.69-0.03-1.35-0.67-1.61z" fill="#C48E6A"/><path d="m54.98 49.82c-0.93-1.23-3.07-3.01-7.23-3.01s-6.31 1.79-7.23 3.01c-0.41 0.54-0.31 1.17-0.02 1.55 0.26 0.35 1.04 0.68 1.9 0.39s2.54-1.16 5.35-1.18c2.81 0.02 4.49 0.89 5.35 1.18s1.64-0.03 1.9-0.39c0.29-0.38 0.39-1.01-0.02-1.55z" fill="#AB872F"/><path d="m87.48 49.82c-0.93-1.23-3.07-3.01-7.23-3.01s-6.31 1.79-7.23 3.01c-0.41 0.54-0.31 1.17-0.02 1.55 0.26 0.35 1.04 0.68 1.9 0.39s2.54-1.16 5.35-1.18c2.81 0.02 4.49 0.89 5.35 1.18s1.64-0.03 1.9-0.39c0.29-0.38 0.39-1.01-0.02-1.55z" fill="#AB872F"/></g><path d="m63.8 78.65c5.31 0 10.01 4.88 9.58 3.33-0.44-1.57-4.6-5.43-9.67-5.43s-8.65 4.13-9.08 5.43c-0.44 1.31 3.86-3.33 9.17-3.33z" fill="#6D4C41"/><path d="m63.78 82.94c2.86 0 5.39 2.62 5.16 1.79-0.24-0.84-2.48-2.92-5.21-2.92s-4.66 2.22-4.89 2.92 2.08-1.79 4.94-1.79z" fill="#B07853"/></svg>
