<svg width="128" height="128" style="enable-background:new 0 0 128 128;" xmlns="http://www.w3.org/2000/svg" xmlns:xlink="http://www.w3.org/1999/xlink">
  <g id="图层_1">
    <ellipse cx="63.83" cy="17.2" rx="25.07" ry="15.35" style="fill:#BDBDBD;"/>
    <g id="XMLID_578_">
      <path id="XMLID_635_" d="M106.91,66.04c0,0,7.87,1.36,7.87,9.84c0,7.48-5.74,10.43-11.48,10.43V66.04 H106.91z" style="fill:#E49500;"/>
      <path id="XMLID_634_" d="M21.09,66.04c0,0-7.87,1.36-7.87,9.84c0,7.48,5.74,10.43,11.48,10.43V66.04H21.09z " style="fill:#E49500;"/>
    </g>
    <path id="XMLID_577_" d="M64,14.87c-33.11,0-42.95,23.36-42.95,58.91c0,35.56,26.86,48.36,42.95,48.36 c16.09,0,42.61-13.14,42.61-48.69C106.62,37.89,97.11,14.87,64,14.87z" style="fill:#E1F5FE;"/>
    <path id="XMLID_576_" d="M49.91,77.19c0,3.81-2.55,6.9-5.71,6.9c-3.16,0-5.73-3.09-5.73-6.9 c0-3.82,2.57-6.91,5.73-6.91C47.36,70.28,49.91,73.37,49.91,77.19" style="fill:#E1F5FE;"/>
    <path id="XMLID_575_" d="M78.08,77.19c0,3.81,2.56,6.9,5.72,6.9c3.15,0,5.72-3.09,5.72-6.9 c0-3.82-2.57-6.91-5.72-6.91C80.64,70.28,78.08,73.37,78.08,77.19" style="fill:#E1F5FE;"/>
    <path id="XMLID_573_" d="M76.38,100.52c-1.73,0-12.38,0-12.38,0s-10.65,0-12.38,0 c-1.42,0-2.03,0.95-1.09,2.38c1.31,2,6.19,5.85,13.47,5.85s12.16-3.85,13.47-5.85C78.41,101.47,77.8,100.52,76.38,100.52z" style="fill:#E1F5FE;"/>
    <path id="XMLID_572_" d="M69.98,89.99c-2.11,0.6-4.29,0.89-5.98,0.89c-1.69,0-3.87-0.29-5.98-0.89 c-0.9-0.26-1.25,0.6-0.93,1.17c0.67,1.18,3.36,3.55,6.91,3.55c3.55,0,6.24-2.37,6.91-3.55C71.24,90.59,70.88,89.74,69.98,89.99z" style="fill:#E1F5FE;"/>
    <path id="XMLID_571_" d="M64,14.87c-33.11,0-42.95,23.36-42.95,58.91c0,35.56,26.86,48.36,42.95,48.36 c16.09,0,42.61-13.14,42.61-48.69C106.62,37.89,97.11,14.87,64,14.87z" style="fill:#FBC11B;"/>
    <path id="XMLID_570_" d="M49.91,77.19c0,3.81-2.55,6.9-5.71,6.9c-3.16,0-5.73-3.09-5.73-6.9 c0-3.82,2.57-6.91,5.73-6.91C47.36,70.28,49.91,73.37,49.91,77.19" style="fill:#444444;"/>
    <path id="XMLID_569_" d="M78.08,77.19c0,3.81,2.56,6.9,5.72,6.9c3.15,0,5.72-3.09,5.72-6.9 c0-3.82-2.57-6.91-5.72-6.91C80.64,70.28,78.08,73.37,78.08,77.19" style="fill:#444444;"/>
    <path id="XMLID_568_" d="M76.38,100.52c-1.73,0-12.38,0-12.38,0s-10.65,0-12.38,0 c-1.42,0-2.03,0.95-1.09,2.38c1.31,2,6.19,5.85,13.47,5.85s12.16-3.85,13.47-5.85C78.41,101.47,77.8,100.52,76.38,100.52z" style="fill:#513F35;"/>
    <path id="XMLID_559_" d="M69.98,89.99c-2.11,0.6-4.29,0.89-5.98,0.89c-1.69,0-3.87-0.29-5.98-0.89 c-0.9-0.26-1.25,0.6-0.93,1.17c0.67,1.18,3.36,3.55,6.91,3.55c3.55,0,6.24-2.37,6.91-3.55C71.24,90.59,70.88,89.74,69.98,89.99z" style="fill:#E49500;"/>
    <path d="M22.09,72.23c-0.31,1.61-2.6,1.63-2.95,0.03c-3.79-17.4-1.56-38.08,8.24-49.96 C37.37,10.17,65,3.49,65,13.56c0,3.69,0,13.91,0,16.02c0,12.17-15.72,13.96-22.25,16.01C31.26,49.18,24.27,60.94,22.09,72.23z" style="fill:#E0E0E0;"/>
    <path d="M105.91,72.23c0.31,1.61,2.6,1.63,2.95,0.03c3.79-17.4,1.56-38.08-8.24-49.96 C90.63,10.17,63,3.49,63,13.56c0,3.69,0,13.91,0,16.02c0,12.17,15.72,13.96,22.25,16.01C96.74,49.18,103.73,60.94,105.91,72.23z" style="fill:#E0E0E0;"/>
    <g style="opacity:0.5;">
      <path d=" M49.74,53.21c9.26-2.22,18.92-2.22,28.18,0" style="fill:none;stroke:#E49500;stroke-width:3;stroke-linecap:round;stroke-linejoin:round;stroke-miterlimit:10;"/>
    </g>
    <g style="opacity:0.5;">
      <path d=" M48.17,62.38c10.3-2.47,21.04-2.47,31.33,0" style="fill:none;stroke:#E49500;stroke-width:3;stroke-linecap:round;stroke-linejoin:round;stroke-miterlimit:10;"/>
    </g>
    <g>
      <g>
        <path d=" M50.77,92.89c0,0-8.35,4.42-10.52,15.25" style="opacity:0.5;fill:none;stroke:#E49500;stroke-width:3;stroke-linecap:round;stroke-linejoin:round;stroke-miterlimit:10;"/>
        <path d=" M51.75,84.1c0,0-2.67,4.95-9,4.95" style="opacity:0.5;fill:none;stroke:#E49500;stroke-width:3;stroke-linecap:round;stroke-linejoin:round;stroke-miterlimit:10;"/>
      </g>
      <g>
        <path d=" M76.9,92.89c0,0,8.35,4.42,10.52,15.25" style="opacity:0.5;fill:none;stroke:#E49500;stroke-width:3;stroke-linecap:round;stroke-linejoin:round;stroke-miterlimit:10;"/>
        <path d=" M75.92,84.1c0,0,2.67,4.95,9,4.95" style="opacity:0.5;fill:none;stroke:#E49500;stroke-width:3;stroke-linecap:round;stroke-linejoin:round;stroke-miterlimit:10;"/>
      </g>
    </g>
  </g>
</svg>