<svg xmlns="http://www.w3.org/2000/svg" viewBox="0 0 128 128"><path d="M97.65 77.25s5.12-5.04 9.14-7.63l-1.3-22.83-16.87 5.19 1.3 22.7 7.73 2.57z" fill="#2f2f2f"/><path d="M49.37 91.48c-.87.96-2.48 1.58-4.11 1.58-.05 0-.1-.02-.15-.02-.92-.02-1.75-.25-2.44-.67-.33-.2-.64-.43-.91-.71-5.21-7.38-2.38-15.95-2.25-16.31.14-.41.52-.69.95-.72.45-.03.84.21 1.03.61 2.18 4.59 4.9 6.52 6.88 7.94.81.58 1.51 1.07 2 1.64 1.83 2.14.07 5.47-1 6.66z" fill="#fff"/><path d="M27.07 83.86c-2.26 1.86-5.06 2.26-7.03 2.26-2.31 0-4.73-.52-7.01-1.49-1.07-.46-2.07-1.01-2.96-1.62-3.19-2.19-6.05-6.4-3.66-11.06 1.34-2.6 3.79-3.92 7.28-3.92 5.46 0 11.39 3.22 13.96 6.33 2.37 2.85 2.09 7.29-.58 9.5z" fill="#fcd4b5"/><g fill="#855c52"><path d="M126.79 62.03c-1.46-1.75-3.4-3.18-5.35-4.34-2.19-1.29-4.02-.48-6.19-1.26-2.39-.86-1.97-6.58-2.12-8.56-.36-4.82-1.77-8.77-4.2-11.9 1.72-1.15 3.63-2.43 4.66-4.21.62-1.08 1.04-2.17 1.04-3.42 0-1.05-.13-2.53-1.47-2.23-1.91.43-3.02 2.38-4.7 3.28-1.76.95-3.89 1.15-5.84.85-.45-.07-.99-.23-1.55-.42-.92-.3-1.94-.64-2.86-.71-.35-.1-.66-.24-1.03-.34-13.91-3.57-31.65-12.27-45.83-5.81-3.6 1.64-6.88 3.92-9.82 6.57-.53.48-1.03.97-1.53 1.47-.33-.61-.71-1.23-1.21-1.77-.92-1.01-2.1-1.79-3.39-1.89-2.75-.21-5.15 1.24-4.62 4.25.46 2.62 1.92 4.64 3.09 6.88-1.63 2.39-3.12 4.88-4.55 7.44-3.3 5.89-6.82 12.03-12.61 15.82-1.01.66-1.82.72-3.01 1-.44.11-.86.21-1.27.32-4.77.35-8.47 2.64-10.51 6.6C-1.24 75.79.89 82.84 7.2 87.19c1.17.8 2.45 1.5 3.83 2.09.27.11.55.2.82.3 2.33 1.22 4.83 2.16 7.31 2.9 2.44.73 4.92 1.34 7.42 1.9-.39.96-.63 1.96-1.1 2.88-1.7 3.35-2.84 6.84-4.33 10.08-.49 1.08-.9 2.16.28 3.13.88.72 2.2 1.18 3.33 1.43 3.27.69 6.88 1.07 9.98 0 4.12-1.43 4.62-4.19 6.29-7.48.62-1.22 1.36-2.38 1.68-3.72.27-1.18.73-2.35 1.18-3.53 3.15.34 6.31.69 9.49.86 1.7.09 5.84.11 6.04 2.43.2 2.31-.8 4.41-1.04 6.66-.24 2.4-1.38 4.66-1.89 7.02-.49 2.23-1.66 4.34.83 5.72 1.79.98 4.35.87 6.32.88 3.41.03 8.9-.08 10.51-3.88 3.2-7.53 2.46-16.66 7.65-23.37.81-1.05 1.65-1.98 2.6-2.91 1.14-1.15 2.02-2.54 3.29-3.55 1.19-.96 2.03-2.16 3.13-3.24 1.79-1.75 3.69-3.39 5.49-5.11.47-.45.91-.95 1.34-1.45-.85-.83-1.49-2.08-1.94-3.46-1.34-4.11-1.38-8.54.33-12.59.42-.99 1.77-4.56 2.99-4.64 1.46-.11-.03 3.23-.15 3.82-.94 4.32-1.75 11.84 3.94 13.04 4.05-.11 7.84.63 11.51-2.11 1.92-1.43 4.03-5.76 6.93-4.55 1.29.54 3.01.66 4.29.03 1.92-.93 2.64-3.06 1.24-4.74zM27.07 83.86c-2.26 1.86-5.06 2.26-7.03 2.26-2.31 0-4.73-.52-7.01-1.49-1.07-.46-2.07-1.01-2.96-1.62-3.19-2.19-6.05-6.4-3.66-11.06 1.34-2.6 3.79-3.92 7.28-3.92 5.46 0 11.39 3.22 13.96 6.33 2.37 2.85 2.09 7.29-.58 9.5zm22.3 7.62c-.87.96-2.48 1.58-4.11 1.58-.05 0-.1-.02-.15-.02-.92-.02-1.75-.25-2.44-.67-.33-.2-.64-.43-.91-.71-5.21-7.38-2.38-15.95-2.25-16.31.14-.41.52-.69.95-.72.45-.03.84.21 1.03.61 2.18 4.59 4.9 6.52 6.88 7.94.81.58 1.51 1.07 2 1.64 1.83 2.14.07 5.47-1 6.66z"/><path d="M12.01 72.55c-1.08 1.28-2.51 4.05-1.78 5.77.94 2.26 2.81 1.33 4.02-.11 1.2-1.41 2.44-4.96.62-6.44-1.06-.82-2.11-.11-2.86.78zM19.13 76.26c-.77 1.21-1.42 4.1-.43 5.52.25.35.59.61 1.06.74 3.14.82 4.81-5.06 3.21-7.06-1.27-1.58-2.89-.7-3.84.8z"/></g><path d="M26.8 56.31c1.11-2.32 3.56-3.44 5.46-2.49 1.91.95 2.56 3.62 1.46 5.95-1.11 2.33-3.56 3.44-5.46 2.49-1.91-.94-2.57-3.61-1.46-5.95zM55.67 67.6c-2.18.56-4.47-1.12-5.12-3.78-.63-2.66.62-5.29 2.81-5.86 2.19-.57 4.48 1.13 5.12 3.78.63 2.67-.63 5.29-2.81 5.86zM81.09 46.64c-.67 3.47-3.87 5.38-7.15 6.01-.52.1-1.2.33-1.72.18-.93-.28-.3-1.1.22-1.55 2.06-1.78 6.01-3.22 4.86-6.84-.21-.65-.7-1.22-1.25-1.59-.92-.61-2-.79-3.11-.8-1.36 0-2.61.52-3.75 1.23-.68.43-1.98 1.74-2.76.7l-.08-.12c-.54-.97 1.85-2.68 2.51-3.13 2.44-1.68 5.96-2.68 8.79-1.42 2.85 1.28 4 4.39 3.44 7.33z" fill="#2f2f2f"/><g fill="#b89278"><path d="M61.78 27.83s5.32-.77 9.22.79l-7.9 2.3s-2.93-.61-1.32-3.09zM77.86 67.44s4.32-3.2 8.48-3.67l-5.87 5.77s-2.86.86-2.61-2.1zM80.95 55.39s3.57-1.53 6.62-.78l-5.05 3.27s-2.18-.06-1.57-2.49zM77.17 31.71s3.85.5 6.1 2.7l-6.01.25c-.01-.01-1.85-1.17-.09-2.95zM86.49 43.37s3.81-.74 6.64.63l-5.63 2.14c.01 0-2.11-.52-1.01-2.77zM93.42 51.58s3.31-2.04 6.44-1.74l-4.52 3.97c-.01 0-2.17.26-1.92-2.23zM91.94 33.97s3.81.76 5.9 3.1l-6.01-.16c0 .01-1.77-1.28.11-2.94zM101.05 41.36s3.17.13 5.31 2.08l-4.81.82c0 .01-1.66-.97-.5-2.9z"/></g></svg>