<?xml version="1.0" encoding="utf-8"?>
<!-- Generator: Adobe Illustrator 19.2.1, SVG Export Plug-In . SVG Version: 6.00 Build 0)  -->
<svg version="1.1" id="レイヤー_1" xmlns="http://www.w3.org/2000/svg" xmlns:xlink="http://www.w3.org/1999/xlink" x="0px"
	 y="0px" viewBox="0 0 128 128" style="enable-background:new 0 0 128 128;" xml:space="preserve">
<g>
	<path style="fill:#855C52;" d="M1.01,68.92c0.31,6.69,0.81,12.1,6.52,16.37c4.51,3.38,10.15,5.16,15.75,5.44
		c2.72,0.15,6.55-0.02,6.62-3.67c0.03-1.38,0.14-2.82,0.19-4.27c1.99,1.65,3.82,3.56,5.47,6.05c2.07,3.11,3.94,6.41,6.37,9.26
		c7.52,8.8,16.96,15.27,28.11,18.56c6.84,2.02,13.95,3.32,21.08,3.65c11.36,0.54,26.52-1.45,33.45-11.86
		c2.89-4.32,3.35-10.89,1.36-15.66c-1.18-2.84-3.46-4.81-5.11-7.32c-1.87-2.85-0.98-4.77-1.3-7.81c-0.24-2.26-0.83-4.54-1.69-6.65
		c-3.94-9.55-13.87-14.55-22.5-19.01c-2.6-1.34-5.32-2.61-8.21-3.15c-1.42-0.26-2.89-0.35-4.31-0.06
		c-6.55,1.32-11.49,7.36-16.52,11.25c-4.06,3.14-5.44,1.48-9.21-1.24c-1.93-1.4-3.78-2.9-5.62-4.43c-3.73-3.13-7.36-6.39-11.28-9.26
		c-3.11-2.29-7.1-4.1-10.71-5.45C17.59,35.19,3.24,37.55,1.44,52.04c-0.37,3-0.43,6.05-0.54,8.61C0.79,63.46,0.89,66.28,1.01,68.92z
		"/>
	<path style="fill:#FCC21B;" d="M90.21,108.39c0.53,0.32,1.21,0.54,2.05,0.65c1.85,0.23,3.75,0.22,5.65,0.19
		c9.26-0.19,24.93-0.54,22.68-13.76c-0.96-5.63-6.03-8.99-10.48-11.96c-2.11-1.42-4.45-2.42-6.76-3.47
		c-11.01-4.95-12.73,14.94-14.45,21.06C88.12,103.92,87.92,107.02,90.21,108.39z"/>
	<path style="fill:#FCC21B;" d="M9.69,54.3c1.15,4.53,5.75,7,9.38,9.31c0.48,0.3,0.97,0.62,1.45,0.92
		c5.65,3.6,11.43,7.24,16.56,11.51c0.54,0.45,1.08,1.15,1.79,1.31c0.68,0.16,1.66-0.08,2.32-0.24c1.72-0.4,3.28-1.25,4.88-1.96
		c2.37-1.03,4.64-2.28,6.82-3.67c1.11-0.7,2.17-1.48,3.26-2.21c0.67-0.43,1.98-0.91,2.32-1.7c0.48-1.12-0.8-1.61-1.59-1.96
		c-1.24-0.54-2.39-1.25-3.53-1.98c-2.69-1.73-5.15-3.79-7.6-5.85c-3.71-3.13-6.79-6.21-11.03-8.82c-4.91-3.02-10.78-4.59-16.53-3.86
		C13.65,45.67,8.28,48.71,9.69,54.3z"/>
	<path style="fill:#BDCF46;" d="M50.32,90.41c0.37,0.34,0.7,0.64,0.93,0.88c3.82,3.9,7.82,7.68,12.37,10.7
		c3.74,2.49,9.79,6.3,14.44,4.55c1.72-0.65,1.24-3.03,1.51-4.5c0.38-2.1,0.85-4.19,1.42-6.25c1.17-4.18,2.74-8.24,4.61-12.16
		c2.07-4.35,4.18-8.75,7.13-12.58c1.42-1.85,3.05-3.55,4.9-4.98c0.95-0.73,1.97-1.43,3.04-1.98c0.73-0.38,1.12-0.68,0.53-1.61
		c-0.46-0.71-1.54-1.06-2.27-1.47c-2.3-1.28-4.67-2.44-7.06-3.55c-2.04-0.94-4.66-2.31-6.92-2.47c-2.47-0.17-5.49,2.53-7.13,4.11
		c-5.05,4.86-10.18,9.75-15.6,14.2c-3.16,2.59-6.52,4.96-10.12,6.9c-1.49,0.8-2.9,1.24-4.46,1.77
		C42.95,83.56,47.81,88.07,50.32,90.41z"/>
</g>
</svg>
