<svg enable-background="new 0 0 128 128" viewBox="0 0 128 128" xmlns="http://www.w3.org/2000/svg"><linearGradient id="a" x1="64" x2="64" y1="5.3328" y2="123.64" gradientUnits="userSpaceOnUse"><stop stop-color="#FFEB3B" offset="0"/><stop stop-color="#FCC930" offset=".5344"/><stop stop-color="#F9A825" offset="1"/></linearGradient><path d="m84.58 22.74c0.01-1.15 0.02-2.15 0-3.01-0.05-3.75-0.73-8.3-5.53-10.17-3.79-1.48-7.68-0.03-11.79 4.47l-12.25 13.42c-1.07 1.17-3.01 0.69-3.41-0.84l-3.88-14.73c-1.2-4.22-2.87-6.32-5.95-7.49-2.97-1.13-7.27 0.26-10.37 3.3l-26.15 23.5c-1.49 1.41-1.67 3.72-0.41 5.35l6.7 8.67c1.46 1.89 4.24 2.09 5.95 0.42l13.43-11.71c1.11-1.08 2.98-0.54 3.34 0.97l4.19 17.58c0.83 3.48 3.5 6.16 6.97 7.01 3.42 0.82 7.12-0.37 9.41-3.03l9.13-10.63c0.57-0.66 1.64-0.33 1.75 0.53 2.49 20.62 17.37 54.88 39.18 76.51 1.58 1.56 4.13 1.52 5.68-0.07l12.31-12.66c1.54-1.59 1.5-4.13-0.1-5.66-30.06-28.98-38.33-68.47-38.2-81.73z" fill="url(#a)"/><g opacity=".2"><path d="m39.5 7c0.46 0 0.86 0.07 1.21 0.2 1.86 0.7 3.07 1.78 4.12 5.48l3.87 14.7c0.58 2.19 2.57 3.73 4.84 3.73 1.4 0 2.74-0.59 3.68-1.63l12.25-13.42c2.46-2.69 4.71-4.05 6.7-4.05 0.59 0 1.18 0.12 1.79 0.35 2.55 1 3.56 3.08 3.62 7.43 0.01 0.78 0 1.7 0 2.76v0.17c-0.06 6.87 1.99 20.43 7.98 36.07 4.94 12.9 14.36 31.67 31.14 47.83 0.26 0.25 0.31 0.55 0.31 0.71 0 0.19-0.04 0.46-0.28 0.7l-12.31 12.66c-0.26 0.27-0.57 0.31-0.73 0.31-0.18 0-0.45-0.05-0.69-0.28-20.84-20.66-35.84-54.22-38.32-74.74-0.24-2.01-1.95-3.52-3.97-3.52-1.16 0-2.27 0.51-3.03 1.4l-9.13 10.63c-1.21 1.4-3.06 2.24-4.96 2.24-0.5 0-1-0.06-1.47-0.17-2.38-0.58-4.2-2.41-4.77-4.79l-4.18-17.57c-0.54-2.26-2.54-3.84-4.87-3.84-1.27 0-2.47 0.48-3.4 1.35l-13.39 11.66-0.06 0.05-0.06 0.06c-0.24 0.23-0.51 0.28-0.69 0.28s-0.53-0.05-0.79-0.39l-6.7-8.67c-0.31-0.4-0.27-0.96 0.08-1.32l26.11-23.46 0.05-0.04 0.05-0.05c1.75-1.72 4.1-2.83 6-2.83m0-3c-2.65 0-5.73 1.36-8.1 3.69l-26.15 23.5c-1.49 1.41-1.67 3.72-0.41 5.35l6.7 8.67c0.79 1.03 1.98 1.55 3.17 1.55 1 0 2-0.37 2.78-1.13l13.43-11.71c0.4-0.39 0.9-0.57 1.39-0.57 0.87 0 1.72 0.57 1.95 1.54l4.19 17.58c0.83 3.48 3.5 6.16 6.97 7.01 0.72 0.17 1.45 0.26 2.18 0.26 2.74 0 5.42-1.18 7.24-3.29l9.13-10.63c0.21-0.24 0.48-0.35 0.75-0.35 0.47 0 0.93 0.33 1 0.88 2.49 20.62 17.37 54.88 39.18 76.51 0.77 0.77 1.79 1.15 2.8 1.15 1.05 0 2.09-0.41 2.88-1.22l12.31-12.66c1.54-1.59 1.5-4.13-0.1-5.66-30.07-28.98-38.34-68.47-38.21-81.73 0.01-1.15 0.02-2.15 0-3.01-0.05-3.75-0.73-8.3-5.53-10.17-0.95-0.37-1.91-0.56-2.88-0.56-2.88 0-5.84 1.66-8.92 5.03l-12.24 13.42c-0.41 0.45-0.94 0.65-1.47 0.65-0.86 0-1.69-0.54-1.94-1.49l-3.88-14.73c-1.2-4.22-2.87-6.32-5.95-7.49-0.7-0.26-1.47-0.39-2.27-0.39z" fill="#424242"/></g></svg>
