<?xml version="1.0" encoding="utf-8"?>
<!-- Generator: Adobe Illustrator 19.2.1, SVG Export Plug-In . SVG Version: 6.00 Build 0)  -->
<svg version="1.1" id="レイヤー_1" xmlns="http://www.w3.org/2000/svg" xmlns:xlink="http://www.w3.org/1999/xlink" x="0px"
	 y="0px" viewBox="0 0 128 128" style="enable-background:new 0 0 128 128;" xml:space="preserve">
<g>
	<path style="fill:#FCC21B;" d="M91.88,51.85c-4.58,0-8.89,1.08-12.75,2.96V37.82c0-16.34-13.29-29.63-29.63-29.63
		c-8.38,0-15.95,3.52-21.34,9.13c-5.4-5.61-12.96-9.13-21.35-9.13v16.56c7.21,0,13.07,5.86,13.07,13.07v43.35h16.57V37.82
		c0-7.21,5.86-13.07,13.06-13.07c7.21,0,13.07,5.86,13.07,13.07v43.35v11c0,7.21-5.86,13.07-13.07,13.07v16.57
		c11.47,0,21.42-6.56,26.34-16.13c4.61,3.03,10.12,4.82,16.04,4.82c16.17,0,29.32-13.15,29.32-29.32
		C121.2,65.01,108.05,51.85,91.88,51.85z M91.88,93.93c-7.03,0-12.75-5.72-12.75-12.76c0-7.04,5.72-12.76,12.75-12.76
		c7.03,0,12.75,5.72,12.75,12.76C104.63,88.21,98.91,93.93,91.88,93.93z"/>
</g>
</svg>
