<?xml version="1.0" encoding="utf-8"?>
<!-- Generator: Adobe Illustrator 19.2.1, SVG Export Plug-In . SVG Version: 6.00 Build 0)  -->
<svg version="1.1" id="レイヤー_1" xmlns="http://www.w3.org/2000/svg" xmlns:xlink="http://www.w3.org/1999/xlink" x="0px"
	 y="0px" viewBox="0 0 128 128" style="enable-background:new 0 0 128 128;" xml:space="preserve">
<g>
	<g>
		<g>
			<path style="fill:#40C0E7;" d="M121,0H6.99C3.21,0,0.12,3.1,0.12,6.88v114.01c0,3.79,3.1,6.88,6.88,6.88H121
				c3.78,0,6.88-3.1,6.88-6.88V6.88C127.88,3.1,124.78,0,121,0z"/>
		</g>
	</g>
	<g>
		<path style="fill:#FFFFFF;" d="M116.23,59.92H95.24c-0.43,0-0.78,0.35-0.78,0.78v15.49c0,0.2,0.08,0.4,0.23,0.55
			c0.15,0.15,0.35,0.23,0.55,0.23l0,0l6.63-0.02c-0.43,8.27-5.63,13.77-10.41,13.77c-8.18,0-13.25-13.6-13.25-26.21
			c0-12.39,4.95-25.22,13.25-25.22c3.48,0,8.16,3.87,10.5,7.47c0.15,0.23,0.42,0.36,0.7,0.35c0.28-0.02,0.53-0.18,0.65-0.44
			l7.8-15.88c0.12-0.24,0.1-0.53-0.03-0.75c-5.03-8.23-11.82-12.58-19.63-12.58c-16.37,0-27.81,19.35-27.81,47.06
			c0,27.72,11.44,47.07,27.81,47.07c23.7,0,25.55-38.94,25.55-50.87C117.01,60.27,116.66,59.92,116.23,59.92z"/>
		<path style="fill:#FFFFFF;" d="M58.08,19.12H47.3c-0.85,0-1.54,0.69-1.54,1.55v52.86l-19.3-53.39c-0.22-0.61-0.8-1.01-1.46-1.01
			H14.22c-0.85,0-1.55,0.69-1.55,1.55v87.7c0,0.85,0.69,1.54,1.55,1.54H25c0.85,0,1.55-0.69,1.55-1.54V55.5l19.3,53.39
			c0.22,0.61,0.81,1.01,1.46,1.01h10.78c0.85,0,1.55-0.69,1.55-1.54v-87.7C59.62,19.81,58.93,19.12,58.08,19.12z"/>
	</g>
</g>
</svg>
