<?xml version="1.0" encoding="UTF-8" standalone="no"?>
<!-- Generator: Adobe Illustrator 25.2.3, SVG Export Plug-In . SVG Version: 6.00 Build 0)  -->

<svg
   version="1.1"
   id="Raised-Hand"
   x="0px"
   y="0px"
   viewBox="0 0 128 128"
   style="enable-background:new 0 0 128 128;"
   xml:space="preserve"
   sodipodi:docname="emoji_u1fae4.svg"
   inkscape:version="1.3.2 (091e20e, 2023-11-25, custom)"
   xmlns:inkscape="http://www.inkscape.org/namespaces/inkscape"
   xmlns:sodipodi="http://sodipodi.sourceforge.net/DTD/sodipodi-0.dtd"
   xmlns="http://www.w3.org/2000/svg"
   xmlns:svg="http://www.w3.org/2000/svg"><defs
   id="defs7" /><sodipodi:namedview
   id="namedview7"
   pagecolor="#ffffff"
   bordercolor="#000000"
   borderopacity="0.25"
   inkscape:showpageshadow="2"
   inkscape:pageopacity="0.0"
   inkscape:pagecheckerboard="0"
   inkscape:deskcolor="#d1d1d1"
   inkscape:zoom="6.0234375"
   inkscape:cx="63.916991"
   inkscape:cy="64"
   inkscape:window-width="1920"
   inkscape:window-height="991"
   inkscape:window-x="-9"
   inkscape:window-y="-9"
   inkscape:window-maximized="1"
   inkscape:current-layer="Raised-Hand" />
<radialGradient
   id="face_1_"
   cx="63.6"
   cy="-7019.4609"
   r="56.9597"
   gradientTransform="matrix(1 0 0 -1 0 -6956.5605)"
   gradientUnits="userSpaceOnUse">
	<stop
   offset="0.5"
   style="stop-color:#FDE030"
   id="stop1" />
	<stop
   offset="0.9188"
   style="stop-color:#F7C02B"
   id="stop2" />
	<stop
   offset="1"
   style="stop-color:#F4A223"
   id="stop3" />
</radialGradient>
<path
   id="face_73_"
   style="fill:url(#face_1_);"
   d="M63.6,118.8c-27.9,0-58-17.5-58-55.9S35.7,7,63.6,7c15.5,0,29.8,5.1,40.4,14.4  c11.5,10.2,17.6,24.6,17.6,41.5s-6.1,31.2-17.6,41.4C93.4,113.6,79,118.8,63.6,118.8z" />

<path
   style="fill:#422B0D;"
   d="M44.67,45.94L44.67,45.94c-4.19,0-8,3.54-8,9.42s3.81,9.42,8,9.42l0,0c4.19,0,8-3.54,8-9.42  S48.86,45.94,44.67,45.94z"
   id="path4" />
<g
   id="g5">
	<g
   id="peepers_57_">
		
	</g>
</g>
<path
   style="fill:#422B0D;"
   d="M83.02,45.94L83.02,45.94c-4.19,0-8,3.54-8,9.42s3.81,9.42,8,9.42l0,0c4.19,0,8-3.54,8-9.42  S87.21,45.94,83.02,45.94z"
   id="path6" />

<g
   id="neutral-face_3_">
	<path
   id="mouth_22_"
   style="fill:#422B0D;"
   d="M91.22,81.79L42.73,93.97c-2.14,0.54-4.32-0.76-4.85-2.9   c-0.54-2.14,0.76-4.32,2.9-4.85l48.49-12.18c2.14-0.54,4.32,0.76,4.85,2.9C94.66,79.08,93.36,81.25,91.22,81.79z" />
</g>
</svg>
