<?xml version="1.0" encoding="UTF-8" standalone="no"?>
<svg
   xmlns:dc="http://purl.org/dc/elements/1.1/"
   xmlns:cc="http://creativecommons.org/ns#"
   xmlns:rdf="http://www.w3.org/1999/02/22-rdf-syntax-ns#"
   xmlns:svg="http://www.w3.org/2000/svg"
   xmlns="http://www.w3.org/2000/svg"
   xmlns:xlink="http://www.w3.org/1999/xlink"
   xmlns:sodipodi="http://sodipodi.sourceforge.net/DTD/sodipodi-0.dtd"
   xmlns:inkscape="http://www.inkscape.org/namespaces/inkscape"
   width="128"
   height="128"
   style="enable-background:new 0 0 128 128;"
   version="1.1"
   id="svg12"
   sodipodi:docname="emoji_u1f9c2 .svg"
   inkscape:version="0.92+devel unknown">
  <metadata
     id="metadata18">
    <rdf:RDF>
      <cc:Work
         rdf:about="">
        <dc:format>image/svg+xml</dc:format>
        <dc:type
           rdf:resource="http://purl.org/dc/dcmitype/StillImage" />
      </cc:Work>
    </rdf:RDF>
  </metadata>
  <defs
     id="defs16">
    <linearGradient
       inkscape:collect="always"
       id="linearGradient4650">
      <stop
         style="stop-color:#ffffff;stop-opacity:1"
         offset="0"
         id="stop4646" />
      <stop
         style="stop-color:#ffffff;stop-opacity:0.75120598"
         offset="1"
         id="stop4648" />
    </linearGradient>
    <linearGradient
       inkscape:collect="always"
       xlink:href="#linearGradient4650"
       id="linearGradient4652"
       x1="46.303253"
       y1="25.722656"
       x2="54.430206"
       y2="25.722656"
       gradientUnits="userSpaceOnUse"
       gradientTransform="rotate(36.171028,71.677764,64.959763)" />
  </defs>
  <sodipodi:namedview
     pagecolor="#ffffff"
     bordercolor="#666666"
     inkscape:document-rotation="0"
     borderopacity="1"
     objecttolerance="10"
     gridtolerance="10"
     guidetolerance="10"
     inkscape:pageopacity="0"
     inkscape:pageshadow="2"
     inkscape:window-width="1680"
     inkscape:window-height="986"
     id="namedview14"
     showgrid="false"
     inkscape:snap-bbox="true"
     inkscape:bbox-nodes="true"
     showguides="true"
     inkscape:guide-bbox="true"
     inkscape:zoom="4"
     inkscape:cx="11.004974"
     inkscape:cy="62.655704"
     inkscape:window-x="0"
     inkscape:window-y="27"
     inkscape:window-maximized="1"
     inkscape:current-layer="svg12"
     inkscape:snap-smooth-nodes="true"
     inkscape:snap-bbox-edge-midpoints="true"
     inkscape:bbox-paths="false"
     inkscape:object-paths="true"
     inkscape:snap-page="true"
     inkscape:snap-intersection-paths="false">
    <inkscape:grid
       type="xygrid"
       id="grid4281" />
    <sodipodi:guide
       position="64,64"
       orientation="1,0"
       id="guide4298"
       inkscape:locked="false" />
    <sodipodi:guide
       position="128,128"
       orientation="-0.70710678,0.70710678"
       id="guide4300"
       inkscape:locked="false" />
    <sodipodi:guide
       position="0,128"
       orientation="0.70710678,0.70710678"
       id="guide4302"
       inkscape:locked="false" />
    <sodipodi:guide
       position="34.404739,5.8101"
       orientation="1,0"
       id="guide4577"
       inkscape:locked="false" />
    <sodipodi:guide
       position="64,30.052038"
       orientation="0,1"
       id="guide4587"
       inkscape:locked="false" />
    <sodipodi:guide
       position="93.595261,5.8101"
       orientation="1,0"
       id="guide4589"
       inkscape:locked="false" />
    <sodipodi:guide
       position="93.595261,34.404739"
       orientation="-0.70710678,0.70710678"
       id="guide4591"
       inkscape:locked="false" />
    <sodipodi:guide
       position="34.404739,34.404739"
       orientation="0.70710678,0.70710678"
       id="guide4593"
       inkscape:locked="false" />
    <sodipodi:guide
       position="32.734375,7.19336"
       orientation="1,0"
       id="guide4673"
       inkscape:locked="false" />
    <sodipodi:guide
       position="95.259766,7.23828"
       orientation="1,0"
       id="guide4675"
       inkscape:locked="false" />
  </sodipodi:namedview>
  <path
     style="opacity:1;vector-effect:none;fill:#262626;fill-opacity:1;stroke:none;stroke-width:1;stroke-miterlimit:4;stroke-dasharray:none;stroke-opacity:1;paint-order:stroke fill markers"
     d="M 90.728516 17.742188 A 0.45059669 0.45059669 0 0 0 90.382812 17.927734 A 0.45059669 0.45059669 0 0 0 90.480469 18.558594 A 0.45059669 0.45059669 0 0 0 91.109375 18.458984 A 0.45059669 0.45059669 0 0 0 91.013672 17.830078 A 0.45059669 0.45059669 0 0 0 90.728516 17.742188 z M 88.962891 17.929688 A 0.45059669 0.45059669 0 0 0 88.615234 18.115234 A 0.45059669 0.45059669 0 0 0 88.712891 18.744141 A 0.45059669 0.45059669 0 0 0 89.34375 18.646484 A 0.45059669 0.45059669 0 0 0 89.246094 18.017578 A 0.45059669 0.45059669 0 0 0 89.220703 18 A 0.45059669 0.45059669 0 0 0 88.962891 17.929688 z M 92.398438 18.529297 A 0.45059669 0.45059669 0 0 0 92.052734 18.712891 A 0.45059669 0.45059669 0 0 0 92.150391 19.341797 A 0.45059669 0.45059669 0 0 0 92.78125 19.246094 A 0.45059669 0.45059669 0 0 0 92.681641 18.615234 A 0.45059669 0.45059669 0 0 0 92.398438 18.529297 z M 90.535156 19.080078 A 0.45059669 0.45059669 0 0 0 90.189453 19.265625 A 0.45059669 0.45059669 0 0 0 90.287109 19.894531 A 0.45059669 0.45059669 0 0 0 90.916016 19.796875 A 0.45059669 0.45059669 0 0 0 90.818359 19.167969 A 0.45059669 0.45059669 0 0 0 90.791016 19.148438 A 0.45059669 0.45059669 0 0 0 90.535156 19.080078 z M 88.759766 19.478516 A 0.45059669 0.45059669 0 0 0 88.414062 19.664062 A 0.45059669 0.45059669 0 0 0 88.513672 20.292969 A 0.45059669 0.45059669 0 0 0 89.142578 20.195312 A 0.45059669 0.45059669 0 0 0 89.044922 19.564453 A 0.45059669 0.45059669 0 0 0 88.759766 19.478516 z M 93.861328 19.597656 A 0.45059669 0.45059669 0 0 0 93.515625 19.783203 A 0.45059669 0.45059669 0 0 0 93.613281 20.412109 A 0.45059669 0.45059669 0 0 0 94.244141 20.314453 A 0.45059669 0.45059669 0 0 0 94.146484 19.683594 A 0.45059669 0.45059669 0 0 0 93.861328 19.597656 z M 92.109375 20.230469 A 0.45059669 0.45059669 0 0 0 91.763672 20.416016 A 0.45059669 0.45059669 0 0 0 91.859375 21.044922 A 0.45059669 0.45059669 0 0 0 92.490234 20.947266 A 0.45059669 0.45059669 0 0 0 92.390625 20.318359 A 0.45059669 0.45059669 0 0 0 92.365234 20.298828 A 0.45059669 0.45059669 0 0 0 92.109375 20.230469 z M 95.324219 20.667969 A 0.45059669 0.45059669 0 0 0 94.978516 20.851562 A 0.45059669 0.45059669 0 0 0 95.078125 21.480469 A 0.45059669 0.45059669 0 0 0 95.707031 21.384766 A 0.45059669 0.45059669 0 0 0 95.609375 20.753906 A 0.45059669 0.45059669 0 0 0 95.324219 20.667969 z M 90.40625 20.681641 A 0.45059669 0.45059669 0 0 0 90.060547 20.867188 A 0.45059669 0.45059669 0 0 0 90.158203 21.496094 A 0.45059669 0.45059669 0 0 0 90.787109 21.398438 A 0.45059669 0.45059669 0 0 0 90.689453 20.767578 A 0.45059669 0.45059669 0 0 0 90.40625 20.681641 z M 89.164062 21.191406 A 0.45059669 0.45059669 0 0 0 88.818359 21.375 A 0.45059669 0.45059669 0 0 0 88.914062 22.005859 A 0.45059669 0.45059669 0 0 0 89.544922 21.90625 A 0.45059669 0.45059669 0 0 0 89.447266 21.277344 A 0.45059669 0.45059669 0 0 0 89.164062 21.191406 z M 93.681641 21.380859 A 0.45059669 0.45059669 0 0 0 93.333984 21.564453 A 0.45059669 0.45059669 0 0 0 93.433594 22.195312 A 0.45059669 0.45059669 0 0 0 94.0625 22.097656 A 0.45059669 0.45059669 0 0 0 93.964844 21.46875 A 0.45059669 0.45059669 0 0 0 93.939453 21.449219 A 0.45059669 0.45059669 0 0 0 93.681641 21.380859 z M 96.787109 21.736328 A 0.45059669 0.45059669 0 0 0 96.441406 21.921875 A 0.45059669 0.45059669 0 0 0 96.541016 22.550781 A 0.45059669 0.45059669 0 0 0 97.167969 22.453125 A 0.45059669 0.45059669 0 0 0 97.072266 21.824219 A 0.45059669 0.45059669 0 0 0 96.787109 21.736328 z M 92.050781 21.884766 A 0.45059669 0.45059669 0 0 0 91.705078 22.068359 A 0.45059669 0.45059669 0 0 0 91.800781 22.699219 A 0.45059669 0.45059669 0 0 0 92.431641 22.599609 A 0.45059669 0.45059669 0 0 0 92.333984 21.970703 A 0.45059669 0.45059669 0 0 0 92.050781 21.884766 z M 90.679688 22.300781 A 0.45059669 0.45059669 0 0 0 90.333984 22.484375 A 0.45059669 0.45059669 0 0 0 90.431641 23.115234 A 0.45059669 0.45059669 0 0 0 91.060547 23.015625 A 0.45059669 0.45059669 0 0 0 90.964844 22.386719 A 0.45059669 0.45059669 0 0 0 90.679688 22.300781 z M 95.253906 22.53125 A 0.45059669 0.45059669 0 0 0 94.908203 22.714844 A 0.45059669 0.45059669 0 0 0 95.005859 23.345703 A 0.45059669 0.45059669 0 0 0 95.634766 23.246094 A 0.45059669 0.45059669 0 0 0 95.537109 22.619141 A 0.45059669 0.45059669 0 0 0 95.511719 22.599609 A 0.45059669 0.45059669 0 0 0 95.253906 22.53125 z M 93.695312 23.085938 A 0.45059669 0.45059669 0 0 0 93.349609 23.271484 A 0.45059669 0.45059669 0 0 0 93.447266 23.902344 A 0.45059669 0.45059669 0 0 0 94.076172 23.802734 A 0.45059669 0.45059669 0 0 0 93.980469 23.173828 A 0.45059669 0.45059669 0 0 0 93.695312 23.085938 z M 98.042969 23.089844 A 0.45059669 0.45059669 0 0 0 97.697266 23.275391 A 0.45059669 0.45059669 0 0 0 97.792969 23.904297 A 0.45059669 0.45059669 0 0 0 98.423828 23.806641 A 0.45059669 0.45059669 0 0 0 98.326172 23.175781 A 0.45059669 0.45059669 0 0 0 98.042969 23.089844 z M 92.197266 23.408203 A 0.45059669 0.45059669 0 0 0 91.851562 23.59375 A 0.45059669 0.45059669 0 0 0 91.949219 24.224609 A 0.45059669 0.45059669 0 0 0 92.580078 24.126953 A 0.45059669 0.45059669 0 0 0 92.482422 23.496094 A 0.45059669 0.45059669 0 0 0 92.197266 23.408203 z M 96.828125 23.681641 A 0.45059669 0.45059669 0 0 0 96.482422 23.865234 A 0.45059669 0.45059669 0 0 0 96.578125 24.494141 A 0.45059669 0.45059669 0 0 0 97.208984 24.396484 A 0.45059669 0.45059669 0 0 0 97.109375 23.767578 A 0.45059669 0.45059669 0 0 0 97.083984 23.75 A 0.45059669 0.45059669 0 0 0 96.828125 23.681641 z M 95.339844 24.289062 A 0.45059669 0.45059669 0 0 0 94.994141 24.474609 A 0.45059669 0.45059669 0 0 0 95.091797 25.103516 A 0.45059669 0.45059669 0 0 0 95.720703 25.005859 A 0.45059669 0.45059669 0 0 0 95.625 24.375 A 0.45059669 0.45059669 0 0 0 95.339844 24.289062 z M 93.714844 24.519531 A 0.45059669 0.45059669 0 0 0 93.369141 24.703125 A 0.45059669 0.45059669 0 0 0 93.466797 25.332031 A 0.45059669 0.45059669 0 0 0 94.095703 25.234375 A 0.45059669 0.45059669 0 0 0 93.998047 24.605469 A 0.45059669 0.45059669 0 0 0 93.714844 24.519531 z M 98.400391 24.830078 A 0.45059669 0.45059669 0 0 0 98.054688 25.013672 A 0.45059669 0.45059669 0 0 0 98.152344 25.644531 A 0.45059669 0.45059669 0 0 0 98.783203 25.546875 A 0.45059669 0.45059669 0 0 0 98.683594 24.917969 A 0.45059669 0.45059669 0 0 0 98.658203 24.900391 A 0.45059669 0.45059669 0 0 0 98.400391 24.830078 z M 96.984375 25.492188 A 0.45059669 0.45059669 0 0 0 96.638672 25.675781 A 0.45059669 0.45059669 0 0 0 96.736328 26.306641 A 0.45059669 0.45059669 0 0 0 97.367188 26.208984 A 0.45059669 0.45059669 0 0 0 97.269531 25.578125 A 0.45059669 0.45059669 0 0 0 96.984375 25.492188 z M 95.232422 25.626953 A 0.45059669 0.45059669 0 0 0 94.886719 25.8125 A 0.45059669 0.45059669 0 0 0 94.984375 26.443359 A 0.45059669 0.45059669 0 0 0 95.613281 26.34375 A 0.45059669 0.45059669 0 0 0 95.517578 25.714844 A 0.45059669 0.45059669 0 0 0 95.232422 25.626953 z "
     id="path4761" />
  <path
     id="path4568"
     d="M 67.261069,26.812592 7.8116981,89.16085 c 0,0 1.9504589,4.773247 22.4612369,19.42429 20.510766,14.65105 25.320835,15.50981 25.320836,15.50981 L 96.971454,48.534245 C 93.781252,47.404842 85.186246,42.683639 81.19277,39.763957 L 80.40586,39.188636 C 76.412384,36.268954 69.304955,29.5099 67.261069,26.812592 Z"
     style="opacity:1;vector-effect:none;fill:#8fc2e6;fill-opacity:1;fill-rule:evenodd;stroke:none;stroke-width:3.77952766;stroke-linecap:round;stroke-linejoin:round;stroke-miterlimit:4;stroke-dasharray:none;stroke-dashoffset:0;stroke-opacity:1"
     inkscape:connector-curvature="0" />
  <path
     id="path4601"
     style="opacity:1;vector-effect:none;fill:#ffffff;fill-opacity:1;fill-rule:evenodd;stroke:none;stroke-width:3.77952766;stroke-linecap:round;stroke-linejoin:round;stroke-miterlimit:4;stroke-dasharray:none;stroke-dashoffset:0;stroke-opacity:1"
     d="M 65.08246,92.945637 C 57.751945,82.892247 7.8116069,89.160226 7.8116069,89.160226 c 0,0 1.950077,4.772931 22.4608551,19.423974 20.492565,14.63805 25.311818,15.50796 25.320355,15.5095 l 0.0028,-4.4e-4 c 0,0 10.693178,-26.145298 9.486916,-31.147635 z"
     inkscape:connector-curvature="0"
     sodipodi:nodetypes="ccscccc" />
  <path
     inkscape:connector-curvature="0"
     style="opacity:1;vector-effect:none;fill:#808080;fill-opacity:1;stroke:none;stroke-width:1;stroke-miterlimit:4;stroke-dasharray:none;stroke-opacity:1;paint-order:stroke fill markers"
     d="M 94.816532,19.441866 C 86.495018,13.357899 74.374813,15.774861 69.916594,21.872711 l -2.192491,2.998841 c 2.129501,2.810295 9.534649,9.852475 13.695406,12.894459 l 0.819871,0.599419 c 4.160757,3.041984 13.115795,7.96095 16.439631,9.137662 l 2.192489,-2.998841 c 4.45822,-6.09785 3.08642,-18.378998 -5.235097,-24.462966 z m -2.134077,-0.827157 a 0.45059669,0.45059669 0 0 1 0.09793,0.630493 0.45059669,0.45059669 0 0 1 -0.629341,0.09636 0.45059669,0.45059669 0 0 1 -0.09751,-0.627764 0.45059669,0.45059669 0 0 1 0.628916,-0.09908 z m 1.463157,1.069733 a 0.45059669,0.45059669 0 0 1 0.09793,0.630493 0.45059669,0.45059669 0 0 1 -0.62934,0.09636 0.45059669,0.45059669 0 0 1 -0.09909,-0.628916 0.45059669,0.45059669 0 0 1 0.630493,-0.09793 z m 1.463157,1.069734 a 0.45059669,0.45059669 0 0 1 0.09793,0.630492 0.45059669,0.45059669 0 0 1 -0.62934,0.09635 0.45059669,0.45059669 0 0 1 -0.09909,-0.628916 0.45059669,0.45059669 0 0 1 0.630493,-0.09793 z m 1.463156,1.069733 a 0.45059669,0.45059669 0 0 1 0.09636,0.629339 0.45059669,0.45059669 0 0 1 -0.627764,0.09751 0.45059669,0.45059669 0 0 1 -0.09908,-0.628916 0.45059669,0.45059669 0 0 1 0.630492,-0.09793 z m -6.058541,-3.993978 a 0.45059669,0.45059669 0 0 1 0.09636,0.62934 0.45059669,0.45059669 0 0 1 -0.628916,0.09908 0.45059669,0.45059669 0 0 1 -0.09793,-0.630493 0.45059669,0.45059669 0 0 1 0.630493,-0.09793 z m 7.31263,5.34636 a 0.45059669,0.45059669 0 0 1 0.09793,0.630493 0.45059669,0.45059669 0 0 1 -0.630493,0.09793 0.45059669,0.45059669 0 0 1 -0.09636,-0.629341 0.45059669,0.45059669 0 0 1 0.628916,-0.09908 z m -9.106008,-5.176817 a 0.45059669,0.45059669 0 0 1 0.02523,0.01844 0.45059669,0.45059669 0 0 1 0.09909,0.628916 0.45059669,0.45059669 0 0 1 -0.630493,0.09793 0.45059669,0.45059669 0 0 1 -0.09793,-0.630493 0.45059669,0.45059669 0 0 1 0.604113,-0.114799 z m 1.571947,1.149271 a 0.45059669,0.45059669 0 0 1 0.0268,0.01959 0.45059669,0.45059669 0 0 1 0.09751,0.627762 0.45059669,0.45059669 0 0 1 -0.628916,0.09909 0.45059669,0.45059669 0 0 1 -0.09793,-0.630493 0.45059669,0.45059669 0 0 1 0.602536,-0.115952 z m 1.573524,1.150425 a 0.45059669,0.45059669 0 0 1 0.02523,0.01844 0.45059669,0.45059669 0 0 1 0.09909,0.628916 0.45059669,0.45059669 0 0 1 -0.630493,0.09793 0.45059669,0.45059669 0 0 1 -0.09636,-0.62934 0.45059669,0.45059669 0 0 1 0.602536,-0.115951 z m 1.573525,1.150424 a 0.45059669,0.45059669 0 0 1 0.02523,0.01844 0.45059669,0.45059669 0 0 1 0.09909,0.628915 0.45059669,0.45059669 0 0 1 -0.630494,0.09793 0.45059669,0.45059669 0 0 1 -0.09793,-0.630493 0.45059669,0.45059669 0 0 1 0.604114,-0.114798 z m 1.571947,1.149272 a 0.45059669,0.45059669 0 0 1 0.0268,0.01959 0.45059669,0.45059669 0 0 1 0.09751,0.627763 0.45059669,0.45059669 0 0 1 -0.628917,0.09908 0.45059669,0.45059669 0 0 1 -0.09793,-0.630493 0.45059669,0.45059669 0 0 1 0.602537,-0.115951 z m 1.573524,1.150423 a 0.45059669,0.45059669 0 0 1 0.02523,0.01844 0.45059669,0.45059669 0 0 1 0.09909,0.628916 0.45059669,0.45059669 0 0 1 -0.630493,0.09793 0.45059669,0.45059669 0 0 1 -0.09636,-0.62934 0.45059669,0.45059669 0 0 1 0.602536,-0.115952 z m 1.573524,1.150424 a 0.45059669,0.45059669 0 0 1 0.02523,0.01844 0.45059669,0.45059669 0 0 1 0.09909,0.628916 0.45059669,0.45059669 0 0 1 -0.630493,0.09793 0.45059669,0.45059669 0 0 1 -0.09793,-0.630493 0.45059669,0.45059669 0 0 1 0.604113,-0.114799 z m -9.612654,-5.33432 a 0.45059669,0.45059669 0 0 1 0.09793,0.630493 0.45059669,0.45059669 0 0 1 -0.630493,0.09793 0.45059669,0.45059669 0 0 1 -0.09793,-0.630493 0.45059669,0.45059669 0 0 1 0.630493,-0.09793 z m 1.644474,1.202296 a 0.45059669,0.45059669 0 0 1 0.09793,0.630494 0.45059669,0.45059669 0 0 1 -0.630493,0.09793 0.45059669,0.45059669 0 0 1 -0.09635,-0.62934 0.45059669,0.45059669 0 0 1 0.628915,-0.09909 z m 1.644476,1.202298 a 0.45059669,0.45059669 0 0 1 0.09793,0.630493 0.45059669,0.45059669 0 0 1 -0.630494,0.09793 0.45059669,0.45059669 0 0 1 -0.09636,-0.629341 0.45059669,0.45059669 0 0 1 0.628917,-0.09908 z m 1.64605,1.203449 a 0.45059669,0.45059669 0 0 1 0.09636,0.629341 0.45059669,0.45059669 0 0 1 -0.628917,0.09908 0.45059669,0.45059669 0 0 1 -0.09793,-0.630493 0.45059669,0.45059669 0 0 1 0.630493,-0.09793 z m 1.644475,1.202297 a 0.45059669,0.45059669 0 0 1 0.09635,0.62934 0.45059669,0.45059669 0 0 1 -0.628916,0.09909 0.45059669,0.45059669 0 0 1 -0.09793,-0.630494 0.45059669,0.45059669 0 0 1 0.630493,-0.09793 z m 1.644475,1.202297 a 0.45059669,0.45059669 0 0 1 0.09793,0.630493 0.45059669,0.45059669 0 0 1 -0.630493,0.09793 0.45059669,0.45059669 0 0 1 -0.09793,-0.630493 0.45059669,0.45059669 0 0 1 0.630493,-0.09793 z m -7.822579,-4.301391 a 0.45059669,0.45059669 0 0 1 0.09793,0.630494 0.45059669,0.45059669 0 0 1 -0.630493,0.09793 0.45059669,0.45059669 0 0 1 -0.09636,-0.62934 0.45059669,0.45059669 0 0 1 0.628916,-0.09909 z m 1.518341,1.110079 a 0.45059669,0.45059669 0 0 1 0.09635,0.62934 0.45059669,0.45059669 0 0 1 -0.628916,0.09909 0.45059669,0.45059669 0 0 1 -0.09793,-0.630494 0.45059669,0.45059669 0 0 1 0.630493,-0.09793 z m 1.516764,1.108926 a 0.45059669,0.45059669 0 0 1 0.09793,0.630493 0.45059669,0.45059669 0 0 1 -0.630494,0.09793 0.45059669,0.45059669 0 0 1 -0.09793,-0.630493 0.45059669,0.45059669 0 0 1 0.630494,-0.09793 z m 1.516763,1.108926 a 0.45059669,0.45059669 0 0 1 0.09793,0.630493 0.45059669,0.45059669 0 0 1 -0.630493,0.09793 0.45059669,0.45059669 0 0 1 -0.09636,-0.62934 0.45059669,0.45059669 0 0 1 0.628916,-0.09909 z m 1.518341,1.110079 a 0.45059669,0.45059669 0 0 1 0.09635,0.62934 0.45059669,0.45059669 0 0 1 -0.628916,0.09908 0.45059669,0.45059669 0 0 1 -0.09793,-0.630493 0.45059669,0.45059669 0 0 1 0.630493,-0.09793 z"
     id="path4293" />
  <path
     inkscape:connector-curvature="0"
     style="opacity:0.85;vector-effect:none;fill:#808080;fill-opacity:0.33696026;stroke:none;stroke-width:1;stroke-miterlimit:4;stroke-dasharray:none;stroke-opacity:1;paint-order:stroke fill markers"
     d="m 92.657228,18.596266 a 0.45059669,0.45059669 0 0 0 -0.602536,0.115951 0.45059669,0.45059669 0 0 0 0.09636,0.62934 0.45059669,0.45059669 0 0 0 0.0496,0.03143 0.45059669,0.45059669 0 0 1 -0.05294,-0.592758 0.45059669,0.45059669 0 0 1 0.576581,-0.130089 0.45059669,0.45059669 0 0 0 -0.04185,-0.03543 0.45059669,0.45059669 0 0 0 -0.02523,-0.01844 z m 1.463157,1.069733 a 0.45059669,0.45059669 0 0 0 -0.604113,0.114798 0.45059669,0.45059669 0 0 0 0.09793,0.630493 0.45059669,0.45059669 0 0 0 0.0496,0.03143 0.45059669,0.45059669 0 0 1 -0.05294,-0.592758 0.45059669,0.45059669 0 0 1 0.576581,-0.130089 0.45059669,0.45059669 0 0 0 -0.04185,-0.03543 0.45059669,0.45059669 0 0 0 -0.02523,-0.01844 z m 1.463157,1.069733 a 0.45059669,0.45059669 0 0 0 -0.604113,0.114798 0.45059669,0.45059669 0 0 0 0.09793,0.630493 0.45059669,0.45059669 0 0 0 0.0496,0.03143 0.45059669,0.45059669 0 0 1 -0.05294,-0.592758 0.45059669,0.45059669 0 0 1 0.576581,-0.130089 0.45059669,0.45059669 0 0 0 -0.04185,-0.03543 0.45059669,0.45059669 0 0 0 -0.02523,-0.01844 z m 1.46158,1.06858 a 0.45059669,0.45059669 0 0 0 -0.602537,0.115951 0.45059669,0.45059669 0 0 0 0.09793,0.630493 0.45059669,0.45059669 0 0 0 0.0496,0.03143 0.45059669,0.45059669 0 0 1 -0.05294,-0.592758 0.45059669,0.45059669 0 0 1 0.575003,-0.131242 0.45059669,0.45059669 0 0 0 -0.04027,-0.03427 0.45059669,0.45059669 0 0 0 -0.0268,-0.01959 z m -6.031738,-3.974381 a 0.45059669,0.45059669 0 0 0 -0.630493,0.09793 0.45059669,0.45059669 0 0 0 0.09909,0.628916 0.45059669,0.45059669 0 0 0 0.0496,0.03143 0.45059669,0.45059669 0 0 1 -0.05409,-0.591182 0.45059669,0.45059669 0 0 1 0.579311,-0.130513 0.45059669,0.45059669 0 0 0 -0.04342,-0.03658 z m 7.31263,5.34636 a 0.45059669,0.45059669 0 0 0 -0.628916,0.09908 0.45059669,0.45059669 0 0 0 0.09751,0.627764 0.45059669,0.45059669 0 0 0 0.0496,0.03143 0.45059669,0.45059669 0 0 1 -0.05409,-0.591183 0.45059669,0.45059669 0 0 1 0.580888,-0.12936 0.45059669,0.45059669 0 0 0 -0.045,-0.03773 z m -9.079628,-5.15995 a 0.45059669,0.45059669 0 0 0 -0.630493,0.09793 0.45059669,0.45059669 0 0 0 0.09793,0.630493 0.45059669,0.45059669 0 0 0 0.0496,0.03143 0.45059669,0.45059669 0 0 1 -0.05294,-0.592758 0.45059669,0.45059669 0 0 1 0.580888,-0.12936 0.45059669,0.45059669 0 0 0 -0.045,-0.03773 z m 1.573524,1.150424 a 0.45059669,0.45059669 0 0 0 -0.630493,0.09793 0.45059669,0.45059669 0 0 0 0.09793,0.630493 0.45059669,0.45059669 0 0 0 0.0496,0.03143 0.45059669,0.45059669 0 0 1 -0.05294,-0.592758 0.45059669,0.45059669 0 0 1 0.57931,-0.130512 0.45059669,0.45059669 0 0 0 -0.04342,-0.03658 z m 1.571947,1.149271 a 0.45059669,0.45059669 0 0 0 -0.628916,0.09908 0.45059669,0.45059669 0 0 0 0.09636,0.62934 0.45059669,0.45059669 0 0 0 0.0496,0.03143 0.45059669,0.45059669 0 0 1 -0.05294,-0.592758 0.45059669,0.45059669 0 0 1 0.580887,-0.12936 0.45059669,0.45059669 0 0 0 -0.045,-0.03773 z m 1.573525,1.150424 a 0.45059669,0.45059669 0 0 0 -0.630494,0.09793 0.45059669,0.45059669 0 0 0 0.09793,0.630493 0.45059669,0.45059669 0 0 0 0.04961,0.03143 0.45059669,0.45059669 0 0 1 -0.05294,-0.592758 0.45059669,0.45059669 0 0 1 0.580887,-0.12936 0.45059669,0.45059669 0 0 0 -0.04499,-0.03774 z m 1.573524,1.150424 a 0.45059669,0.45059669 0 0 0 -0.630493,0.09793 0.45059669,0.45059669 0 0 0 0.09793,0.630494 0.45059669,0.45059669 0 0 0 0.0496,0.03143 0.45059669,0.45059669 0 0 1 -0.05294,-0.592758 0.45059669,0.45059669 0 0 1 0.57931,-0.130513 0.45059669,0.45059669 0 0 0 -0.04342,-0.03658 z m 1.571947,1.149271 a 0.45059669,0.45059669 0 0 0 -0.628916,0.09909 0.45059669,0.45059669 0 0 0 0.09636,0.62934 0.45059669,0.45059669 0 0 0 0.0496,0.03143 0.45059669,0.45059669 0 0 1 -0.05294,-0.592758 0.45059669,0.45059669 0 0 1 0.580887,-0.12936 0.45059669,0.45059669 0 0 0 -0.045,-0.03773 z m 1.573524,1.150425 a 0.45059669,0.45059669 0 0 0 -0.630493,0.09793 0.45059669,0.45059669 0 0 0 0.09793,0.630493 0.45059669,0.45059669 0 0 0 0.0496,0.03143 0.45059669,0.45059669 0 0 1 -0.05294,-0.592758 0.45059669,0.45059669 0 0 1 0.580887,-0.12936 0.45059669,0.45059669 0 0 0 -0.045,-0.03773 z m -9.639034,-5.351187 a 0.45059669,0.45059669 0 0 0 -0.630493,0.09793 0.45059669,0.45059669 0 0 0 0.09909,0.628916 0.45059669,0.45059669 0 0 0 0.0496,0.03143 0.45059669,0.45059669 0 0 1 -0.05409,-0.591182 0.45059669,0.45059669 0 0 1 0.580888,-0.129361 0.45059669,0.45059669 0 0 0 -0.045,-0.03773 z m 1.644474,1.202296 a 0.45059669,0.45059669 0 0 0 -0.628915,0.09909 0.45059669,0.45059669 0 0 0 0.09751,0.627763 0.45059669,0.45059669 0 0 0 0.0496,0.03143 0.45059669,0.45059669 0 0 1 -0.05409,-0.591181 0.45059669,0.45059669 0 0 1 0.580887,-0.129361 0.45059669,0.45059669 0 0 0 -0.045,-0.03773 z m 1.644476,1.202298 a 0.45059669,0.45059669 0 0 0 -0.628917,0.09908 0.45059669,0.45059669 0 0 0 0.09751,0.627764 0.45059669,0.45059669 0 0 0 0.0496,0.03143 0.45059669,0.45059669 0 0 1 -0.05409,-0.591182 0.45059669,0.45059669 0 0 1 0.580887,-0.129361 0.45059669,0.45059669 0 0 0 -0.045,-0.03773 z m 1.64605,1.203449 a 0.45059669,0.45059669 0 0 0 -0.630493,0.09793 0.45059669,0.45059669 0 0 0 0.09909,0.628917 0.45059669,0.45059669 0 0 0 0.0496,0.03143 0.45059669,0.45059669 0 0 1 -0.05567,-0.592334 0.45059669,0.45059669 0 0 1 0.580887,-0.129361 0.45059669,0.45059669 0 0 0 -0.04342,-0.03658 z m 1.644475,1.202297 a 0.45059669,0.45059669 0 0 0 -0.630493,0.09793 0.45059669,0.45059669 0 0 0 0.09909,0.628917 0.45059669,0.45059669 0 0 0 0.0496,0.03143 0.45059669,0.45059669 0 0 1 -0.05409,-0.591181 0.45059669,0.45059669 0 0 1 0.57931,-0.130514 0.45059669,0.45059669 0 0 0 -0.04342,-0.03658 z m 1.644475,1.202297 a 0.45059669,0.45059669 0 0 0 -0.630493,0.09793 0.45059669,0.45059669 0 0 0 0.09908,0.628917 0.45059669,0.45059669 0 0 0 0.0496,0.03143 0.45059669,0.45059669 0 0 1 -0.05409,-0.591181 0.45059669,0.45059669 0 0 1 0.580887,-0.129361 0.45059669,0.45059669 0 0 0 -0.045,-0.03773 z m -7.822579,-4.301391 a 0.45059669,0.45059669 0 0 0 -0.628916,0.09909 0.45059669,0.45059669 0 0 0 0.09751,0.627763 0.45059669,0.45059669 0 0 0 0.0496,0.03143 0.45059669,0.45059669 0 0 1 -0.05409,-0.591181 0.45059669,0.45059669 0 0 1 0.580887,-0.12936 0.45059669,0.45059669 0 0 0 -0.045,-0.03773 z m 1.518341,1.110079 a 0.45059669,0.45059669 0 0 0 -0.630493,0.09793 0.45059669,0.45059669 0 0 0 0.09908,0.628917 0.45059669,0.45059669 0 0 0 0.0496,0.03143 0.45059669,0.45059669 0 0 1 -0.05409,-0.591182 0.45059669,0.45059669 0 0 1 0.579311,-0.130512 0.45059669,0.45059669 0 0 0 -0.04342,-0.03658 z m 1.516764,1.108926 a 0.45059669,0.45059669 0 0 0 -0.630494,0.09793 0.45059669,0.45059669 0 0 0 0.09909,0.628917 0.45059669,0.45059669 0 0 0 0.0496,0.03143 0.45059669,0.45059669 0 0 1 -0.05409,-0.591181 0.45059669,0.45059669 0 0 1 0.580886,-0.12936 0.45059669,0.45059669 0 0 0 -0.04499,-0.03774 z m 1.516763,1.108926 a 0.45059669,0.45059669 0 0 0 -0.628916,0.09909 0.45059669,0.45059669 0 0 0 0.09751,0.627763 0.45059669,0.45059669 0 0 0 0.0496,0.03143 0.45059669,0.45059669 0 0 1 -0.05409,-0.591182 0.45059669,0.45059669 0 0 1 0.580887,-0.12936 0.45059669,0.45059669 0 0 0 -0.045,-0.03773 z m 1.518341,1.110079 a 0.45059669,0.45059669 0 0 0 -0.630493,0.09793 0.45059669,0.45059669 0 0 0 0.09908,0.628916 0.45059669,0.45059669 0 0 0 0.0496,0.03143 0.45059669,0.45059669 0 0 1 -0.05567,-0.592334 0.45059669,0.45059669 0 0 1 0.580887,-0.12936 0.45059669,0.45059669 0 0 0 -0.04342,-0.03658 z"
     id="circle4390" />
  <path
     style="opacity:1;vector-effect:none;fill:url(#linearGradient4652);fill-opacity:1;stroke:none;stroke-width:1;stroke-miterlimit:4;stroke-dasharray:none;stroke-opacity:1;paint-order:stroke fill markers"
     d="m 81.026681,17.121531 c -3.958307,0.72884 -7.453729,2.572989 -9.566117,5.142063 l 2.781258,2.033415 c 2.111785,-2.569593 5.603407,-4.420492 9.561388,-5.145521 z"
     id="path4620"
     inkscape:connector-curvature="0" />
  <path
     inkscape:connector-curvature="0"
     style="opacity:1;vector-effect:none;fill:#a9e2f7;fill-opacity:0.2861796;fill-rule:evenodd;stroke:none;stroke-width:3.77952766;stroke-linecap:round;stroke-linejoin:round;stroke-miterlimit:4;stroke-dasharray:none;stroke-dashoffset:0;stroke-opacity:1"
     d="M 67.72489,24.872128 5.7852763,89.832061 c 0,0 2.0321645,4.973186 23.4021037,20.237939 21.369928,15.26477 26.381486,16.1595 26.381487,16.1595 L 98.679799,47.503668 C 95.355963,46.326956 86.400926,41.40799 82.240169,38.366006 L 81.420297,37.766587 C 77.25954,34.724603 69.854392,27.682423 67.72489,24.872128 Z"
     id="path4279" />
  <g
     id="g4705">
    <path
       id="path4668"
       d="M 57.780366,123.92443 C 56.008479,123.31529 49.389503,120.46367 31.127057,107.41861 12.844078,94.358908 8.316253,88.657179 7.2796787,87.058356 L 4.1044392,90.38874 c 0,0 2.1010592,5.139578 24.1834428,20.91323 C 50.370247,127.07564 55.54827,128 55.548271,128 Z"
       style="opacity:1;vector-effect:none;fill:#6bbbfb;fill-opacity:1;fill-rule:evenodd;stroke:none;stroke-width:3.7795279;stroke-linecap:round;stroke-linejoin:round;stroke-miterlimit:4;stroke-dasharray:none;stroke-dashoffset:0;stroke-opacity:1"
       inkscape:connector-curvature="0" />
    <path
       id="path4677"
       d="m 8.4501924,87.035878 a 31.262695,2.9828041 36.171028 0 0 -1.1705137,0.02248 c 0.1116702,0.172197 0.2884737,0.416281 0.4939733,0.687774 z m 48.9712126,35.810932 -0.424549,0.77593 c 0.30371,0.12419 0.580094,0.2307 0.768512,0.29573 a 31.262695,2.9828041 36.171028 0 0 -0.343963,-1.07166 z"
       style="opacity:1;vector-effect:none;fill:#3da6fa;fill-opacity:1;stroke:none;stroke-width:1;stroke-miterlimit:4;stroke-dasharray:none;stroke-opacity:1;paint-order:stroke fill markers"
       inkscape:connector-curvature="0" />
  </g>
</svg>
