<svg width="128" height="128" style="enable-background:new 0 0 128 128;" xmlns="http://www.w3.org/2000/svg" xmlns:xlink="http://www.w3.org/1999/xlink">
  <g id="Layer_1">
    <g>
      <linearGradient id="SVGID_1_" gradientUnits="userSpaceOnUse" x1="53.0544" x2="100.4198" y1="64.1458" y2="64.1458">
        <stop offset="0" style="stop-color:#FFFFFF"/>
        <stop offset="0.7194" style="stop-color:#CEC3AB"/>
        <stop offset="1" style="stop-color:#D0C4AF"/>
      </linearGradient>
      <path d="M100.01,54.74C99.14,37.31,91.5,28.6,88.88,25c-2.62-3.6-2.38-5.66,0.02-8.32 s8.48-6.61,6.08-8.6c-4.41-3.66-18.18-3.7-18.18-3.7s-13.85,0.05-18.27,3.7c-2.4,1.99,3.64,5.95,6.04,8.6 c2.4,2.65,2.62,4.71,0,8.32c-2.62,3.6-10.26,12.31-11.14,29.75c-0.69,13.71-0.29,44.85-0.09,57.56c0.07,4.22,3.1,7.97,7.66,9.44 c3.67,1.18,8.82,2.17,15.8,2.17c6.95,0,12.11-1.01,15.78-2.21c4.53-1.48,7.53-5.23,7.59-9.43 C100.35,99.56,100.7,68.44,100.01,54.74z" style="fill:url(#SVGID_1_);"/>
    </g>
    <linearGradient id="SVGID_3_" gradientUnits="userSpaceOnUse" x1="76.7004" x2="76.7004" y1="5.8291" y2="17.6152">
      <stop offset="0" style="stop-color:#E3D7BC"/>
      <stop offset="1" style="stop-color:#8C8377"/>
    </linearGradient>
    <ellipse cx="76.7" cy="9.58" rx="16.63" ry="3.92" style="fill:url(#SVGID_3_);"/>
    <linearGradient id="SVGID_4_" gradientUnits="userSpaceOnUse" x1="76.7004" x2="76.7004" y1="5.8291" y2="17.6152">
      <stop offset="0" style="stop-color:#E3D7BC"/>
      <stop offset="1" style="stop-color:#8C8377"/>
    </linearGradient>
    <ellipse cx="76.7" cy="9.58" rx="16.63" ry="3.92" style="fill:url(#SVGID_4_);"/>
    <g style="opacity:0.2;">
      <path d="M76.81,6.38C81.69,6.4,90.32,7.24,93.42,9.4c-0.51,0.9-2.37,2.56-3.43,3.5 c-0.96,0.86-1.87,1.66-2.57,2.44c-3.17,3.5-3.21,6.64-0.16,10.83c0.22,0.3,0.47,0.63,0.74,0.99c3,3.98,9.23,12.25,10,27.67 c0.68,13.63,0.34,44.69,0.16,57.41c-0.05,3.38-2.49,6.34-6.21,7.56c-4.29,1.4-9.39,2.11-15.16,2.11c-5.8,0-10.91-0.7-15.19-2.08 c-3.76-1.21-6.22-4.18-6.27-7.56c-0.2-12.72-0.59-43.79,0.09-57.43c0.77-15.42,7.01-23.69,10.01-27.67c0.28-0.37,0.53-0.7,0.75-1 c3.06-4.21,3.02-7.35-0.13-10.83c-0.69-0.76-1.59-1.57-2.54-2.41c-1.06-0.94-2.92-2.61-3.43-3.52 C63.19,7.24,71.88,6.4,76.81,6.38 M76.81,4.38c0,0-13.85,0.05-18.27,3.7c-2.4,1.99,3.64,5.95,6.04,8.6c2.4,2.65,2.62,4.71,0,8.32 c-2.62,3.6-10.26,12.31-11.14,29.75c-0.69,13.71-0.29,44.85-0.09,57.56c0.07,4.22,3.1,7.97,7.66,9.44 c3.67,1.18,8.82,2.17,15.8,2.17c6.95,0,12.11-1.01,15.78-2.21c4.53-1.48,7.53-5.23,7.59-9.43c0.18-12.72,0.52-43.84-0.16-57.53 C99.14,37.31,91.5,28.6,88.88,25c-2.62-3.6-2.38-5.66,0.02-8.32c2.4-2.65,8.48-6.61,6.08-8.6C90.58,4.43,76.81,4.38,76.81,4.38 L76.81,4.38z" style="fill:#424242;"/>
    </g>
    <g>
      <g>
        <linearGradient id="SVGID_5_" gradientUnits="userSpaceOnUse" x1="34.5614" x2="57.6574" y1="112.7868" y2="112.7868">
          <stop offset="0" style="stop-color:#CEC3AB"/>
          <stop offset="0.2784" style="stop-color:#CBC0A8"/>
          <stop offset="0.4959" style="stop-color:#C1B7A1"/>
          <stop offset="0.6927" style="stop-color:#B0A793"/>
          <stop offset="0.8763" style="stop-color:#999080"/>
          <stop offset="1" style="stop-color:#857D70"/>
        </linearGradient>
        <path d="M56.93,119.38V105.2c0-0.72-0.37-1.38-0.99-1.75c-4.34-2.62-15.7-3.2-21.24-0.75 c-2.94,1.3-2.59,2.07-2.59,3.74l0,12.94c0,0-0.83,5.06,12.41,5.06S56.93,119.38,56.93,119.38z" style="fill:url(#SVGID_5_);"/>
        <g style="opacity:0.2;">
          <path d="M44.18,103.14c4.41,0,8.72,0.81,10.75,2.06v14.18c0,0.11,0.01,0.22,0.03,0.32 c0,0-0.21,0.31-0.31,0.43c-0.59,0.69-2.75,2.3-10.12,2.3c-8.15,0-10.26-2-10.41-2.81c0.04-0.11,0-0.06,0-0.25l0-12.94 c0-0.18,0-0.35-0.01-0.52c0-0.2-0.01-0.47,0-0.6c0.09-0.09,0.41-0.35,1.4-0.79C37.5,103.65,40.66,103.14,44.18,103.14 M34.11,105.28L34.11,105.28L34.11,105.28 M44.18,101.14c-3.56,0-7.07,0.49-9.48,1.56c-2.94,1.3-2.59,2.07-2.59,3.74l0,12.94 c0,0-0.83,5.06,12.41,5.06s12.41-5.06,12.41-5.06V105.2c0-0.72-0.37-1.38-0.99-1.75C53.49,101.97,48.8,101.14,44.18,101.14 L44.18,101.14z" style="fill:#424242;"/>
        </g>
      </g>
      <linearGradient id="SVGID_6_" gradientUnits="userSpaceOnUse" x1="44.5166" x2="44.5166" y1="89.9667" y2="120.5334">
        <stop offset="0" style="stop-color:#FFFFFF"/>
        <stop offset="0.1256" style="stop-color:#FAF8F6"/>
        <stop offset="0.3332" style="stop-color:#EBE6DD"/>
        <stop offset="0.5957" style="stop-color:#D3C9B4"/>
        <stop offset="0.648" style="stop-color:#CEC3AB"/>
        <stop offset="1" style="stop-color:#D0C4AF"/>
      </linearGradient>
      <path d="M61.27,113.86V94.73c0-0.97-0.51-1.86-1.33-2.36c-5.85-3.54-21.19-4.32-28.67-1.01 c-3.96,1.75-3.5,2.8-3.5,5.04l0,17.46c0,0-1.12,6.82,16.75,6.82S61.27,113.86,61.27,113.86z" style="fill:url(#SVGID_6_);"/>
      <g>
        <linearGradient id="SVGID_7_" gradientUnits="userSpaceOnUse" x1="27.7517" x2="61.2207" y1="104.9703" y2="104.9703">
          <stop offset="0" style="stop-color:#FFFFFF"/>
          <stop offset="0.1454" style="stop-color:#FBF9F6"/>
          <stop offset="0.3857" style="stop-color:#F0EADD"/>
          <stop offset="0.648" style="stop-color:#E0D4BA"/>
          <stop offset="0.883" style="stop-color:#E4D7BE"/>
          <stop offset="1" style="stop-color:#E8DBC3"/>
        </linearGradient>
        <path d="M61.27,113.86V94.73c0-0.97-0.51-1.86-1.33-2.36c-5.85-3.54-21.19-4.32-28.67-1.01 c-3.96,1.75-3.5,2.8-3.5,5.04l0,17.46c0,0-1.12,6.82,16.75,6.82S61.27,113.86,61.27,113.86z" style="fill:url(#SVGID_7_);"/>
        <g style="opacity:0.2;">
          <path d="M44.06,91.25c6.17,0,11.99,1.11,14.84,2.83c0.23,0.14,0.37,0.38,0.37,0.65v19.13 c0,0.16-0.02,0.15,0.01,0.27c-0.01,0.16-0.09,0.7-0.71,1.36c-1.14,1.19-4.48,3.19-14.05,3.19c-9.57,0-12.91-2-14.05-3.19 c-0.63-0.66-0.71-1.2-0.71-1.36c0.03-0.12,0.01-0.11,0.01-0.27l0-17.46c0-0.24,0-0.47-0.01-0.68c-0.03-1.35-0.03-1.49,2.32-2.53 C34.85,91.96,39.22,91.25,44.06,91.25 M29.75,114.09L29.75,114.09L29.75,114.09 M44.06,89.25c-4.8,0-9.55,0.67-12.8,2.11 c-3.96,1.75-3.5,2.8-3.5,5.04l0,17.46c0,0-1.12,6.82,16.75,6.82s16.75-6.82,16.75-6.82V94.73c0-0.97-0.51-1.86-1.33-2.36 C56.63,90.37,50.3,89.25,44.06,89.25L44.06,89.25z" style="fill:#424242;"/>
        </g>
      </g>
    </g>
    <linearGradient id="SVGID_8_" gradientUnits="userSpaceOnUse" x1="44.1778" x2="44.1778" y1="91.8345" y2="103.1309">
      <stop offset="0" style="stop-color:#E3D7BC"/>
      <stop offset="0.2432" style="stop-color:#D3C7AF"/>
      <stop offset="0.7189" style="stop-color:#A89E8D"/>
      <stop offset="1" style="stop-color:#8C8377"/>
    </linearGradient>
    <ellipse cx="44.18" cy="95.43" rx="13.58" ry="3.76" style="fill:url(#SVGID_8_);"/>
  </g>
  <g id="Layer_2" style="display:none;">
    <g style="display:inline;">
      <g style="opacity:0.6;">
        <circle cx="64" cy="64" r="28" style="opacity:0.61;fill:none;stroke:#000000;stroke-width:0.2625;stroke-miterlimit:10;"/>
        <line style="opacity:0.61;fill:none;stroke:#000000;stroke-miterlimit:10;" x1="83.5" x2="83.5" y1="0" y2="128"/>
        <line style="opacity:0.61;fill:none;stroke:#000000;stroke-miterlimit:10;" x1="43.5" x2="43.5" y1="0" y2="128"/>
        <line style="opacity:0.61;fill:none;stroke:#000000;stroke-miterlimit:10;" x1="63.5" x2="63.5" y1="0" y2="128"/>
        <line style="opacity:0.61;fill:none;stroke:#000000;stroke-miterlimit:10;" x1="128" x2="0" y1="64.5" y2="64.5"/>
        <line style="opacity:0.61;fill:none;stroke:#000000;stroke-miterlimit:10;" x1="128" x2="0" y1="44.5" y2="44.5"/>
        <line style="opacity:0.61;fill:none;stroke:#000000;stroke-miterlimit:10;" x1="128" x2="0" y1="83.5" y2="83.5"/>
        <line style="opacity:0.61;fill:none;stroke:#000000;stroke-width:0.25;stroke-miterlimit:10;" x1="128" x2="0" y1="128" y2="0"/>
        <line style="opacity:0.61;fill:none;stroke:#000000;stroke-width:0.25;stroke-miterlimit:10;" x1="0" x2="128" y1="128" y2="0"/>
        <g style="opacity:0.61;">
          <path d="M64,4.26c32.94,0,59.74,26.8,59.74,59.74S96.94,123.74,64,123.74S4.26,96.94,4.26,64S31.06,4.26,64,4.26 M64,4 C30.86,4,4,30.86,4,64s26.86,60,60,60s60-26.86,60-60S97.14,4,64,4L64,4z"/>
        </g>
        <path d="M115.5,108.47c0,4.43-3.59,8.03-8.03,8.03H19.53 c-4.43,0-8.03-3.59-8.03-8.03V20.53c0-4.43,3.59-8.03,8.03-8.03h87.94c4.43,0,8.03,3.59,8.03,8.03V108.47z" style="opacity:0.61;fill:none;stroke:#000000;stroke-miterlimit:10;"/>
        <path d="M107.5,116.5c0,4.42-3.58,8-8,8h-72 c-4.42,0-8-3.58-8-8v-104c0-4.42,3.58-8,8-8h72c4.42,0,8,3.58,8,8V116.5z" style="opacity:0.61;fill:none;stroke:#000000;stroke-miterlimit:10;"/>
        <path d="M123.5,98.27c0,5.65-4.58,10.23-10.23,10.23H13.73 c-5.65,0-10.23-4.58-10.23-10.23V30.73c0-5.65,4.58-10.23,10.23-10.23h99.54c5.65,0,10.23,4.58,10.23,10.23V98.27z" style="opacity:0.61;fill:none;stroke:#000000;stroke-miterlimit:10;"/>
      </g>
      <g>
        <g style="opacity:0.2;">
          <defs>
            <rect id="SVGID_2_" height="128" style="opacity:0.2;" width="128" x="0"/>
          </defs>
          <clipPath id="SVGID_9_">
            <use style="overflow:visible;" xlink:href="#SVGID_2_"/>
          </clipPath>
          <g style="clip-path:url(#SVGID_9_);">
            <g>
              <line style="fill:none;stroke:#000000;stroke-miterlimit:10;" x1="-28.5" x2="-28.5" y1="160" y2="-32"/>
              <line style="fill:none;stroke:#000000;stroke-miterlimit:10;" x1="-24.5" x2="-24.5" y1="160" y2="-32"/>
              <line style="fill:none;stroke:#000000;stroke-miterlimit:10;" x1="-20.5" x2="-20.5" y1="160" y2="-32"/>
              <line style="fill:none;stroke:#000000;stroke-miterlimit:10;" x1="-16.5" x2="-16.5" y1="160" y2="-32"/>
              <line style="fill:none;stroke:#000000;stroke-miterlimit:10;" x1="-12.5" x2="-12.5" y1="160" y2="-32"/>
              <line style="fill:none;stroke:#000000;stroke-miterlimit:10;" x1="-8.5" x2="-8.5" y1="160" y2="-32"/>
              <line style="fill:none;stroke:#000000;stroke-miterlimit:10;" x1="-4.5" x2="-4.5" y1="160" y2="-32"/>
              <line style="fill:none;stroke:#000000;stroke-miterlimit:10;" x1="-0.5" x2="-0.5" y1="160" y2="-32"/>
              <line style="fill:none;stroke:#000000;stroke-miterlimit:10;" x1="3.5" x2="3.5" y1="160" y2="-32"/>
              <line style="fill:none;stroke:#000000;stroke-miterlimit:10;" x1="7.5" x2="7.5" y1="160" y2="-32"/>
              <line style="fill:none;stroke:#000000;stroke-miterlimit:10;" x1="11.5" x2="11.5" y1="160" y2="-32"/>
              <line style="fill:none;stroke:#000000;stroke-miterlimit:10;" x1="15.5" x2="15.5" y1="160" y2="-32"/>
              <line style="fill:none;stroke:#000000;stroke-miterlimit:10;" x1="19.5" x2="19.5" y1="160" y2="-32"/>
              <line style="fill:none;stroke:#000000;stroke-miterlimit:10;" x1="23.5" x2="23.5" y1="160" y2="-32"/>
              <line style="fill:none;stroke:#000000;stroke-miterlimit:10;" x1="27.5" x2="27.5" y1="160" y2="-32"/>
              <line style="fill:none;stroke:#000000;stroke-miterlimit:10;" x1="31.5" x2="31.5" y1="160" y2="-32"/>
              <line style="fill:none;stroke:#000000;stroke-miterlimit:10;" x1="35.5" x2="35.5" y1="160" y2="-32"/>
              <line style="fill:none;stroke:#000000;stroke-miterlimit:10;" x1="39.5" x2="39.5" y1="160" y2="-32"/>
              <line style="fill:none;stroke:#000000;stroke-miterlimit:10;" x1="43.5" x2="43.5" y1="160" y2="-32"/>
              <line style="fill:none;stroke:#000000;stroke-miterlimit:10;" x1="47.5" x2="47.5" y1="160" y2="-32"/>
              <line style="fill:none;stroke:#000000;stroke-miterlimit:10;" x1="51.5" x2="51.5" y1="160" y2="-32"/>
              <line style="fill:none;stroke:#000000;stroke-miterlimit:10;" x1="55.5" x2="55.5" y1="160" y2="-32"/>
              <line style="fill:none;stroke:#000000;stroke-miterlimit:10;" x1="59.5" x2="59.5" y1="160" y2="-32"/>
              <line style="fill:none;stroke:#000000;stroke-miterlimit:10;" x1="63.5" x2="63.5" y1="160" y2="-32"/>
              <line style="fill:none;stroke:#000000;stroke-miterlimit:10;" x1="67.5" x2="67.5" y1="160" y2="-32"/>
              <line style="fill:none;stroke:#000000;stroke-miterlimit:10;" x1="71.5" x2="71.5" y1="160" y2="-32"/>
              <line style="fill:none;stroke:#000000;stroke-miterlimit:10;" x1="75.5" x2="75.5" y1="160" y2="-32"/>
              <line style="fill:none;stroke:#000000;stroke-miterlimit:10;" x1="79.5" x2="79.5" y1="160" y2="-32"/>
              <line style="fill:none;stroke:#000000;stroke-miterlimit:10;" x1="83.5" x2="83.5" y1="160" y2="-32"/>
              <line style="fill:none;stroke:#000000;stroke-miterlimit:10;" x1="87.5" x2="87.5" y1="160" y2="-32"/>
              <line style="fill:none;stroke:#000000;stroke-miterlimit:10;" x1="91.5" x2="91.5" y1="160" y2="-32"/>
              <line style="fill:none;stroke:#000000;stroke-miterlimit:10;" x1="95.5" x2="95.5" y1="160" y2="-32"/>
              <line style="fill:none;stroke:#000000;stroke-miterlimit:10;" x1="99.5" x2="99.5" y1="160" y2="-32"/>
              <line style="fill:none;stroke:#000000;stroke-miterlimit:10;" x1="103.5" x2="103.5" y1="160" y2="-32"/>
              <line style="fill:none;stroke:#000000;stroke-miterlimit:10;" x1="107.5" x2="107.5" y1="160" y2="-32"/>
              <line style="fill:none;stroke:#000000;stroke-miterlimit:10;" x1="111.5" x2="111.5" y1="160" y2="-32"/>
              <line style="fill:none;stroke:#000000;stroke-miterlimit:10;" x1="115.5" x2="115.5" y1="160" y2="-32"/>
              <line style="fill:none;stroke:#000000;stroke-miterlimit:10;" x1="119.5" x2="119.5" y1="160" y2="-32"/>
              <line style="fill:none;stroke:#000000;stroke-miterlimit:10;" x1="123.5" x2="123.5" y1="160" y2="-32"/>
              <line style="fill:none;stroke:#000000;stroke-miterlimit:10;" x1="127.5" x2="127.5" y1="160" y2="-32"/>
              <line style="fill:none;stroke:#000000;stroke-miterlimit:10;" x1="131.5" x2="131.5" y1="160" y2="-32"/>
              <line style="fill:none;stroke:#000000;stroke-miterlimit:10;" x1="135.5" x2="135.5" y1="160" y2="-32"/>
              <line style="fill:none;stroke:#000000;stroke-miterlimit:10;" x1="136.5" x2="136.5" y1="166" y2="-26"/>
              <line style="fill:none;stroke:#000000;stroke-miterlimit:10;" x1="143.5" x2="143.5" y1="160" y2="-32"/>
              <line style="fill:none;stroke:#000000;stroke-miterlimit:10;" x1="147.5" x2="147.5" y1="160" y2="-32"/>
              <line style="fill:none;stroke:#000000;stroke-miterlimit:10;" x1="151.5" x2="151.5" y1="160" y2="-32"/>
              <line style="fill:none;stroke:#000000;stroke-miterlimit:10;" x1="155.5" x2="155.5" y1="160" y2="-32"/>
            </g>
            <g>
              <line style="fill:none;stroke:#000000;stroke-miterlimit:10;" x1="-32" x2="160" y1="-27.5" y2="-27.5"/>
              <line style="fill:none;stroke:#000000;stroke-miterlimit:10;" x1="-32" x2="160" y1="-23.5" y2="-23.5"/>
              <line style="fill:none;stroke:#000000;stroke-miterlimit:10;" x1="-32" x2="160" y1="-19.5" y2="-19.5"/>
              <line style="fill:none;stroke:#000000;stroke-miterlimit:10;" x1="-32" x2="160" y1="-15.5" y2="-15.5"/>
              <line style="fill:none;stroke:#000000;stroke-miterlimit:10;" x1="-32" x2="160" y1="-11.5" y2="-11.5"/>
              <line style="fill:none;stroke:#000000;stroke-miterlimit:10;" x1="-32" x2="160" y1="-7.5" y2="-7.5"/>
              <line style="fill:none;stroke:#000000;stroke-miterlimit:10;" x1="-32" x2="160" y1="-3.5" y2="-3.5"/>
              <line style="fill:none;stroke:#000000;stroke-miterlimit:10;" x1="-32" x2="160" y1="0.5" y2="0.5"/>
              <line style="fill:none;stroke:#000000;stroke-miterlimit:10;" x1="-32" x2="160" y1="4.5" y2="4.5"/>
              <line style="fill:none;stroke:#000000;stroke-miterlimit:10;" x1="-32" x2="160" y1="8.5" y2="8.5"/>
              <line style="fill:none;stroke:#000000;stroke-miterlimit:10;" x1="-32" x2="160" y1="12.5" y2="12.5"/>
              <line style="fill:none;stroke:#000000;stroke-miterlimit:10;" x1="-32" x2="160" y1="16.5" y2="16.5"/>
              <line style="fill:none;stroke:#000000;stroke-miterlimit:10;" x1="-32" x2="160" y1="20.5" y2="20.5"/>
              <line style="fill:none;stroke:#000000;stroke-miterlimit:10;" x1="-32" x2="160" y1="24.5" y2="24.5"/>
              <line style="fill:none;stroke:#000000;stroke-miterlimit:10;" x1="-32" x2="160" y1="28.5" y2="28.5"/>
              <line style="fill:none;stroke:#000000;stroke-miterlimit:10;" x1="-32" x2="160" y1="32.5" y2="32.5"/>
              <line style="fill:none;stroke:#000000;stroke-miterlimit:10;" x1="-32" x2="160" y1="36.5" y2="36.5"/>
              <line style="fill:none;stroke:#000000;stroke-miterlimit:10;" x1="-32" x2="160" y1="40.5" y2="40.5"/>
              <line style="fill:none;stroke:#000000;stroke-miterlimit:10;" x1="-32" x2="160" y1="44.5" y2="44.5"/>
              <line style="fill:none;stroke:#000000;stroke-miterlimit:10;" x1="-32" x2="160" y1="48.5" y2="48.5"/>
              <line style="fill:none;stroke:#000000;stroke-miterlimit:10;" x1="-32" x2="160" y1="52.5" y2="52.5"/>
              <line style="fill:none;stroke:#000000;stroke-miterlimit:10;" x1="-32" x2="160" y1="56.5" y2="56.5"/>
              <line style="fill:none;stroke:#000000;stroke-miterlimit:10;" x1="-32" x2="160" y1="60.5" y2="60.5"/>
              <line style="fill:none;stroke:#000000;stroke-miterlimit:10;" x1="-32" x2="160" y1="64.5" y2="64.5"/>
              <line style="fill:none;stroke:#000000;stroke-miterlimit:10;" x1="-32" x2="160" y1="68.5" y2="68.5"/>
              <line style="fill:none;stroke:#000000;stroke-miterlimit:10;" x1="-32" x2="160" y1="72.5" y2="72.5"/>
              <line style="fill:none;stroke:#000000;stroke-miterlimit:10;" x1="-32" x2="160" y1="76.5" y2="76.5"/>
              <line style="fill:none;stroke:#000000;stroke-miterlimit:10;" x1="-32" x2="160" y1="80.5" y2="80.5"/>
              <line style="fill:none;stroke:#000000;stroke-miterlimit:10;" x1="-32" x2="160" y1="84.5" y2="84.5"/>
              <line style="fill:none;stroke:#000000;stroke-miterlimit:10;" x1="-32" x2="160" y1="88.5" y2="88.5"/>
              <line style="fill:none;stroke:#000000;stroke-miterlimit:10;" x1="-32" x2="160" y1="92.5" y2="92.5"/>
              <line style="fill:none;stroke:#000000;stroke-miterlimit:10;" x1="-32" x2="160" y1="96.5" y2="96.5"/>
              <line style="fill:none;stroke:#000000;stroke-miterlimit:10;" x1="-32" x2="160" y1="100.5" y2="100.5"/>
              <line style="fill:none;stroke:#000000;stroke-miterlimit:10;" x1="-32" x2="160" y1="104.5" y2="104.5"/>
              <line style="fill:none;stroke:#000000;stroke-miterlimit:10;" x1="-32" x2="160" y1="108.5" y2="108.5"/>
              <line style="fill:none;stroke:#000000;stroke-miterlimit:10;" x1="-32" x2="160" y1="112.5" y2="112.5"/>
              <line style="fill:none;stroke:#000000;stroke-miterlimit:10;" x1="-32" x2="160" y1="116.5" y2="116.5"/>
              <line style="fill:none;stroke:#000000;stroke-miterlimit:10;" x1="-32" x2="160" y1="120.5" y2="120.5"/>
              <line style="fill:none;stroke:#000000;stroke-miterlimit:10;" x1="-32" x2="160" y1="124.5" y2="124.5"/>
              <line style="fill:none;stroke:#000000;stroke-miterlimit:10;" x1="-32" x2="160" y1="128.5" y2="128.5"/>
              <line style="fill:none;stroke:#000000;stroke-miterlimit:10;" x1="-32" x2="160" y1="132.5" y2="132.5"/>
              <line style="fill:none;stroke:#000000;stroke-miterlimit:10;" x1="-32" x2="160" y1="136.5" y2="136.5"/>
              <line style="fill:none;stroke:#000000;stroke-miterlimit:10;" x1="-32" x2="160" y1="140.5" y2="140.5"/>
              <line style="fill:none;stroke:#000000;stroke-miterlimit:10;" x1="-32" x2="160" y1="144.5" y2="144.5"/>
              <line style="fill:none;stroke:#000000;stroke-miterlimit:10;" x1="-32" x2="160" y1="148.5" y2="148.5"/>
              <line style="fill:none;stroke:#000000;stroke-miterlimit:10;" x1="-32" x2="160" y1="152.5" y2="152.5"/>
              <line style="fill:none;stroke:#000000;stroke-miterlimit:10;" x1="-32" x2="160" y1="156.5" y2="156.5"/>
            </g>
            <path d="M160-32v192H-32V-32H160 M160-32H-32v192h192V-32L160-32z"/>
          </g>
        </g>
        <g>
          <rect height="128" style="opacity:0.3;fill:#F44336;" width="4" x="0"/>
          <rect height="128" style="opacity:0.3;fill:#F44336;" width="4" x="124"/>
          <rect height="120" style="opacity:0.3;fill:#F44336;" transform="matrix(-1.836970e-16 1 -1 -1.836970e-16 66 -62)" width="4" x="62" y="-58"/>
          <rect height="120" style="opacity:0.3;fill:#F44336;" transform="matrix(-1.836970e-16 1 -1 -1.836970e-16 190 62)" width="4" x="62" y="66"/>
        </g>
      </g>
    </g>
  </g>
</svg>