<?xml version="1.0" encoding="utf-8"?>
<!-- Generator: Adobe Illustrator 16.0.0, SVG Export Plug-In . SVG Version: 6.00 Build 0)  -->
<!DOCTYPE svg PUBLIC "-//W3C//DTD SVG 1.1//EN" "http://www.w3.org/Graphics/SVG/1.1/DTD/svg11.dtd">
<svg version="1.1" id="レイヤー_1" xmlns="http://www.w3.org/2000/svg" xmlns:xlink="http://www.w3.org/1999/xlink" x="0px"
	 y="0px" width="128px" height="128px" viewBox="0 0 128 128" enable-background="new 0 0 128 128" xml:space="preserve">
<g>
	<path fill="#757F3F" d="M123.85,31.44H4.16c-1.82,0-3.29,1.47-3.29,3.29v58.54c0,1.81,1.47,3.29,3.29,3.29h119.69
		c1.81,0,3.29-1.47,3.29-3.29V34.73C127.13,32.92,125.66,31.44,123.85,31.44z"/>
	<g>
		<g>
			<path fill="#FFFFFF" d="M24.49,82.1c0.85,0.26,2.11,0.6,3.62,0.89v2.89c0,0.42,0.35,0.77,0.77,0.77h6.16
				c0.43,0,0.77-0.35,0.77-0.77v-2.4c5.47-0.45,9.57-2.82,11.9-6.95c2.25-3.98,1.39-8.11-2.38-11.35c-2.38-1.89-6.09-3.53-9.52-4.86
				v-6.33c2.29,0.74,4.35,1.48,6.02,2.19c0.28,0.11,0.59,0.02,0.76-0.23l3.39-5.13l0.09-0.49l-0.31-0.4
				c-1.93-1.04-5.88-2.64-9.94-3.67v-3.71c0-0.42-0.34-0.77-0.77-0.77h-6.16c-0.43,0-0.77,0.35-0.77,0.77v2.78
				c-5.71,0.27-9.6,2.25-11.83,6.08c-1.75,3.01-1.75,6.4,0,8.85c1.84,2.61,4.83,3.78,8.61,5.25l0.5,0.19
				c0.87,0.33,1.8,0.68,2.72,1.01v7.7c-4.02-0.96-7.77-2.9-8.45-3.36c-0.27-0.18-0.64-0.13-0.84,0.13l-4.11,5.35l-0.12,0.46
				l0.24,0.41C17.32,79.25,20.93,81.01,24.49,82.1z M28.11,52.9v4.66c-1.73-0.56-2.82-1.13-2.71-2.48
				C25.52,53.69,26.85,53.13,28.11,52.9z M38.4,73.05c-0.4,1.04-1.42,1.57-2.59,1.84v-5.31c1.3,0.58,2.28,1.19,2.64,1.96
				C38.65,71.96,38.63,72.46,38.4,73.05z"/>
		</g>
	</g>
</g>
</svg>
