<?xml version="1.0" encoding="UTF-8" standalone="no"?>
<svg
   xmlns:dc="http://purl.org/dc/elements/1.1/"
   xmlns:cc="http://creativecommons.org/ns#"
   xmlns:rdf="http://www.w3.org/1999/02/22-rdf-syntax-ns#"
   xmlns:svg="http://www.w3.org/2000/svg"
   xmlns="http://www.w3.org/2000/svg"
   xmlns:xlink="http://www.w3.org/1999/xlink"
   xmlns:sodipodi="http://sodipodi.sourceforge.net/DTD/sodipodi-0.dtd"
   xmlns:inkscape="http://www.inkscape.org/namespaces/inkscape"
   width="128"
   height="128"
   style="enable-background:new 0 0 128 128;"
   version="1.1"
   id="svg26"
   sodipodi:docname="emoji_u1f947.svg"
   inkscape:version="0.92.2 (5c3e80d, 2017-08-06)">
  <metadata
     id="metadata32">
    <rdf:RDF>
      <cc:Work
         rdf:about="">
        <dc:format>image/svg+xml</dc:format>
        <dc:type
           rdf:resource="http://purl.org/dc/dcmitype/StillImage" />
      </cc:Work>
    </rdf:RDF>
  </metadata>
  <defs
     id="defs30">
    <defs
       id="defs3">
      <rect
         width="128"
         height="128"
         id="SVGID_1_" />
    </defs>
    <clipPath
       id="SVGID_2_">
      <use
         id="use5"
         xlink:href="#SVGID_1_"
         style="overflow:visible;" />
    </clipPath>
  </defs>
  <sodipodi:namedview
     pagecolor="#ffffff"
     bordercolor="#666666"
     borderopacity="1"
     objecttolerance="10"
     gridtolerance="10"
     guidetolerance="10"
     inkscape:pageopacity="0"
     inkscape:pageshadow="2"
     inkscape:window-width="1920"
     inkscape:window-height="1046"
     id="namedview28"
     showgrid="false"
     inkscape:zoom="5.2149125"
     inkscape:cx="64.724612"
     inkscape:cy="37.877722"
     inkscape:window-x="-11"
     inkscape:window-y="-11"
     inkscape:window-maximized="1"
     inkscape:current-layer="svg26" />
  <polygon
     points="48.87,61.82 74.45,61.82 106.43,0 80.85,0 "
     style="fill:#006ca2"
     id="polygon8" />
  <polygon
     points="77.65,55.64 64.86,30.91 52.07,55.64 55.27,61.82 74.45,61.82 "
     style="fill:#2f2f2f"
     id="polygon10" />
  <path
     d="M 76.5,76.75 H 50.92 V 61.82 H 76.5 Z m 0,-21.32 H 50.92 c -3.53,0 -6.4,2.86 -6.4,6.4 v 14.92 c 0,3.53 2.86,6.4 6.4,6.4 H 76.5 c 3.53,0 6.39,-2.86 6.39,-6.4 V 61.82 c 0,-3.53 -2.86,-6.39 -6.39,-6.39"
     style="fill:#fcc21b"
     id="path12"
     inkscape:connector-curvature="0" />
  <path
     d="m 95.68,95.93 c 0,17.66 -14.32,31.98 -31.98,31.98 -17.66,0 -31.98,-14.31 -31.98,-31.98 0,-17.67 14.32,-31.98 31.98,-31.98 17.67,0 31.98,14.32 31.98,31.98"
     style="fill:#fcc21b"
     id="path14"
     inkscape:connector-curvature="0" />
  <path
     d="m 42.27,88.15 c -0.42,0 -0.84,-0.08 -1.24,-0.26 -1.54,-0.66 -2.28,-2.45 -1.68,-4 0.01,-0.02 0.02,-0.05 0.02,-0.07 0.01,-0.05 0.02,-0.04 0.04,-0.08 2.83,-6.74 8.76,-11.72 15.88,-13.37 0.35,-0.08 0.72,0.09 0.88,0.42 0.16,0.33 0.07,0.73 -0.22,0.96 -4.67,3.71 -8.4,8.71 -10.78,14.47 0,0.01 -0.01,0.02 -0.01,0.02 0,0 0,0.01 -0.01,0.01 -0.33,0.77 -0.94,1.37 -1.72,1.67 -0.37,0.16 -0.77,0.23 -1.16,0.23"
     style="fill:#ffffff"
     id="path16"
     inkscape:connector-curvature="0" />
  <polygon
     points="76.59,61.82 51,61.82 19.03,0 44.61,0 "
     style="fill:#006ca2"
     id="polygon18" />
  <text
     xml:space="preserve"
     style="font-style:normal;font-weight:normal;font-size:40px;line-height:1.25;font-family:sans-serif;letter-spacing:0px;word-spacing:0px;fill:#f79329;fill-opacity:1;stroke:none;"
     x="55.560001"
     y="109.19502"
     id="text841"><tspan
       sodipodi:role="line"
       id="tspan839"
       x="55.560001"
       y="109.19502"
       style="font-style:normal;font-variant:normal;font-weight:bold;font-stretch:normal;font-family:'Comic Neue';-inkscape-font-specification:'Comic Neue Bold';fill:#f79329;fill-opacity:1;">1</tspan></text>
</svg>
