<?xml version="1.0" encoding="utf-8"?>
<!-- Generator: Adobe Illustrator 19.2.1, SVG Export Plug-In . SVG Version: 6.00 Build 0)  -->
<svg version="1.1" id="图层_1" xmlns="http://www.w3.org/2000/svg" xmlns:xlink="http://www.w3.org/1999/xlink" x="0px" y="0px"
	 viewBox="0 0 128 128" style="enable-background:new 0 0 128 128;" xml:space="preserve">
<g>
	<linearGradient id="SVGID_1_" gradientUnits="userSpaceOnUse" x1="63.79" y1="65.6666" x2="63.79" y2="3.2762">
		<stop  offset="0" style="stop-color:#FCC21B"/>
		<stop  offset="0.1512" style="stop-color:#E5BF34"/>
		<stop  offset="0.4726" style="stop-color:#ABB973"/>
		<stop  offset="0.9352" style="stop-color:#4FAFD8"/>
		<stop  offset="1" style="stop-color:#42ADE7"/>
	</linearGradient>
	<path style="fill:url(#SVGID_1_);" d="M63.79,8.64C1.48,8.64,0,78.5,0,92.33c0,13.83,28.56,25.03,63.79,25.03
		c35.24,0,63.79-11.21,63.79-25.03C127.58,78.5,126.11,8.64,63.79,8.64z"/>
</g>
<path style="fill:#ED6C30;" d="M86.34,90.53c0,13.17-10,18.72-22.34,18.72s-22.34-5.55-22.34-18.72s10-28.96,22.34-28.96
	S86.34,77.37,86.34,90.53z"/>
<g>
	<path style="fill:#FFFFFF;" d="M119.4,68.7c-1.51,4.55-4.85,7.13-7.49,7.67c-2.96,0.59-5.52-0.1-7.2-1.95
		c-2.14-2.33-2.57-6.12-1.24-10.67c2.41-8.17,2.82-22.96,2.83-23.1c0.01-0.57,0.35-1.06,0.89-1.24c0.52-0.21,1.11-0.05,1.49,0.37
		C121.58,54.19,120.95,64.08,119.4,68.7z"/>
</g>
<g>
	<g>
		<defs>
			<path id="SVGID_2_" d="M57.71,40.71c-0.29-3.83-1.78-7.26-4.03-9.91c-11.8,0.13-22.02,4.42-26.37,6.55
				c-0.46,1.8-0.66,3.72-0.51,5.69c0.69,9.15,8.17,16.04,16.7,15.4S58.39,49.86,57.71,40.71z"/>
		</defs>
		<use xlink:href="#SVGID_2_"  style="overflow:visible;fill:#FFFFFF;"/>
		<clipPath id="SVGID_3_">
			<use xlink:href="#SVGID_2_"  style="overflow:visible;"/>
		</clipPath>
		<path style="clip-path:url(#SVGID_3_);fill:#2F2F2F;" d="M54.68,33.48c0.3,3.33-2.36,6.46-5.96,7.01
			c-3.6,0.55-6.76-1.71-7.07-5.03c-0.32-3.33,2.35-6.46,5.95-7.01C51.19,27.9,54.37,30.15,54.68,33.48"/>
	</g>
	<g>
		<defs>
			<path id="SVGID_4_" d="M70.29,40.71c0.29-3.83,1.78-7.26,4.03-9.91c11.8,0.13,22.02,4.42,26.37,6.55
				c0.46,1.8,0.66,3.72,0.51,5.69c-0.69,9.15-8.17,16.04-16.7,15.4S69.61,49.86,70.29,40.71z"/>
		</defs>
		<use xlink:href="#SVGID_4_"  style="overflow:visible;fill:#FFFFFF;"/>
		<clipPath id="SVGID_5_">
			<use xlink:href="#SVGID_4_"  style="overflow:visible;"/>
		</clipPath>
		<path style="clip-path:url(#SVGID_5_);fill:#2F2F2F;" d="M73.32,33.48c-0.3,3.33,2.36,6.46,5.96,7.01
			c3.6,0.55,6.76-1.71,7.07-5.03c0.32-3.33-2.35-6.46-5.95-7.01C76.81,27.9,73.63,30.15,73.32,33.48"/>
	</g>
</g>
</svg>
