<?xml version="1.0" encoding="utf-8"?>
<!-- Generator: Adobe Illustrator 19.2.1, SVG Export Plug-In . SVG Version: 6.00 Build 0)  -->
<svg version="1.1" id="レイヤー_1" xmlns="http://www.w3.org/2000/svg" xmlns:xlink="http://www.w3.org/1999/xlink" x="0px"
	 y="0px" viewBox="0 0 128 128" style="enable-background:new 0 0 128 128;" xml:space="preserve">
<g>
	<path style="fill:#FFFFFF;" d="M88.96,82.84H61.82c4.27-2.62,11.75-7.79,20.24-16.28c7.95-7.95,10.62-22.42,1.1-31.95
		c-5.51-5.5-11.77-8.29-18.63-8.29c-15.14,0-27.77,13.39-28.31,13.96c-0.34,0.37-0.39,0.91-0.13,1.34l6.83,11.14
		c0.18,0.29,0.47,0.47,0.8,0.52c0.33,0.05,0.66-0.05,0.91-0.29c0.08-0.07,8.32-7.71,15.54-7.71c2.91,0,5.18,1.22,6.95,3.74
		c1.45,2.05,1.87,4.32,1.3,6.9c-2.76,12.33-27.09,26.29-27.34,26.42c-0.34,0.2-0.56,0.57-0.56,0.97V97.9c0,0.62,0.5,1.12,1.12,1.12
		h47.32c0.61,0,1.1-0.5,1.1-1.12V83.95C90.06,83.33,89.57,82.84,88.96,82.84z"/>
</g>
</svg>
