<svg xmlns="http://www.w3.org/2000/svg" viewBox="0 0 128 128"><path d="M120.95 98.69L4.39 98.67c-1.08.25-1.84.55-2.21.89-4.98 4.56 7.45 14.97 9.94 17.43 2.78 2.73 5.76 5.19 8.88 7.37 1.05.73 3.02 2.09 7.28 2.09h84.01c4.22 0 7.48-.97 8.82-5.36 1.14-3.73 3.92-9.54 5.39-15.36 1.56-6.09-.76-7.04-5.55-7.04z" fill="#fff"/><path d="M7.12 103.96l113.83.02h.53c-.03.14-.06.29-.1.46-.83 3.23-2.14 6.59-3.29 9.55-.79 2.02-1.53 3.92-2.03 5.57-.32 1.04-.49 1.62-3.76 1.62H28.29c-2.61 0-3.57-.66-4.26-1.14a63.482 63.482 0 0 1-8.19-6.79c-.31-.3-.75-.72-1.29-1.22-4.35-4.06-6.44-6.55-7.43-8.07M4.4 98.67c-1.08.25-1.84.55-2.21.89-4.98 4.56 7.45 14.97 9.94 17.43 2.78 2.73 5.76 5.19 8.88 7.37 1.05.73 3.02 2.09 7.28 2.09h84.01c4.22 0 7.48-.97 8.82-5.36 1.14-3.73 3.92-9.54 5.39-15.36 1.55-6.1-.76-7.05-5.55-7.05-.17.01-116.56-.01-116.56-.01z" fill="#fcc21b"/><path d="M60.5 66.42c-2.12 13.37-5.81 22.24-5.81 22.24 23.15 0 65.14-.7 64.06-.7-.3 0 .46-9.41-1.42-21.54-1.68-10.78-5.43-23.7-13.85-34.11C82.31 6.09 49.5 1.55 49.5 1.55c13.84 22.87 13.73 47.62 11 64.87zM45.98 66.42l.84-58.27c-.79 0-16.96 25.9-27.56 58.27-2.65 8.1-4.96 16.6-6.58 25.2l32.98-3.33.32-21.87z" fill="#40c0e7"/><path d="M87.71 36.4c-.06.35-.12.69-.18 1-.5 2.83-.81 5.64-1.81 8.35-1.05 2.83-2.44 5.51-3.94 8.13-.86 1.49-2.48 3.29-2.12 5.15 1.07 5.29 9.91-2.73 12.2-3.32 3.79-.96 1.88 6.03 1.27 7.61-2.59 6.74-9.8 10.6-15.76 13.91-.92.51-1.89.93-2.75 1.53-.96.67-1.62 2.12-.89 3.17.99 1.42 3.07 1.17 4.59 1.12 17.07-.57 22.6-4.79 26.46-9.31 6.29-7.36 3.27-18.25-.41-26.05-1.89-4.02-3.94-8.18-6.86-11.57-1.49-1.73-3.38-3.48-5.39-4.6-.75-.42-1.61-.5-2.31.07-1.29 1.07-1.78 3.09-2.1 4.81z" fill="#fff"/><path fill="#fcc21b" d="M14.88 115.31h105.35l-3.75 7.49H24.79z"/></svg>