<?xml version="1.0" encoding="utf-8"?>
<!-- Generator: Adobe Illustrator 24.1.2, SVG Export Plug-In . SVG Version: 6.00 Build 0)  -->
<svg version="1.1" id="Layer_1" xmlns="http://www.w3.org/2000/svg" xmlns:xlink="http://www.w3.org/1999/xlink" x="0px" y="0px"
	 viewBox="0 0 128 128" style="enable-background:new 0 0 128 128;" xml:space="preserve">
<g id="handGroup">
	
		<radialGradient id="hand_1_" cx="-779.8681" cy="686.6891" r="91.0084" gradientTransform="matrix(0.7071 -0.7071 -0.7071 -0.7071 1081.0488 -27.887)" gradientUnits="userSpaceOnUse">
		<stop  offset="0.3533" style="stop-color:#E0BB95"/>
		<stop  offset="0.8723" style="stop-color:#CCA47A"/>
	</radialGradient>
	<path id="hand" style="fill:url(#hand_1_);" d="M59.53,107.44c-3.95-3.17-40.63-38.84-41.04-39.23c-1.62-1.62-2.64-3.3-2.92-4.84
		c-0.29-1.6,0.2-3,1.5-4.3c1.21-1.21,2.69-1.85,4.28-1.85c1.94,0,3.93,0.92,5.59,2.59l16.63,15.98c0.29,0.28,0.67,0.42,1.04,0.42
		c0.39,0,0.77-0.15,1.06-0.44c0.58-0.58,0.58-1.52,0.01-2.1L19.13,46.25c-2.66-2.66-3.91-6.73-0.75-9.89
		c1.21-1.21,2.69-1.85,4.28-1.85c1.94,0,3.93,0.92,5.59,2.59l27.16,26.48c0.29,0.28,0.67,0.43,1.05,0.43s0.77-0.15,1.06-0.44
		c0.58-0.58,0.59-1.52,0.01-2.11L24.91,28.02c-1.51-1.51-2.42-3.32-2.58-5.08c-0.15-1.79,0.48-3.45,1.83-4.8
		c1.21-1.21,2.69-1.85,4.28-1.85c1.94,0,3.93,0.92,5.59,2.58L67.3,51.31c0.29,0.28,0.67,0.43,1.05,0.43s0.77-0.15,1.06-0.44
		c0.58-0.58,0.59-1.52,0.01-2.11L45.26,24.36c-1.52-1.52-2.43-3.32-2.58-5.08c-0.15-1.79,0.48-3.45,1.83-4.8
		c1.21-1.21,2.69-1.85,4.28-1.85c1.94,0,3.93,0.92,5.59,2.59c8.86,8.7,31.99,31.45,32.77,32.29c2.97,2.05,3.57-1.05,3.72-3.06
		c0.17-2.34-2.51-10.51-0.95-17.86c2.62-9.77,10.17-8.17,10.34-8.09c4.14,1.94,3.35,4.84,1.88,10.67l-0.15,1.15
		c-1.54,7.62,9.04,30.2,9.82,31.89c4.15,9.08,8.93,27.49-6.9,43.32C87.56,122.88,66.08,113.99,59.53,107.44z"/>
	<g id="tone">
		<path style="fill:#BA8F63;" d="M81.79,117.18c-10.64,0-19.69-5.09-23.26-8.62c-3.21-2.62-23.47-22.18-39.97-38.19
			c-0.67-0.65-1.06-1.02-1.1-1.07c-1.87-1.87-3.03-3.82-3.36-5.66c-0.38-2.09,0.27-3.98,1.91-5.63c1.5-1.5,3.34-2.29,5.34-2.29
			c2.35,0,4.71,1.08,6.65,3.03l16.61,15.96L18.05,47.29c-3.06-3.06-4.6-8.13-0.73-11.99c1.5-1.5,3.34-2.29,5.34-2.29
			c2.35,0,4.71,1.08,6.65,3.03l27.14,26.46L23.84,29.07c-1.74-1.74-2.81-3.87-3-5.99c-0.19-2.26,0.59-4.33,2.26-6
			c1.5-1.5,3.34-2.29,5.34-2.29c2.34,0,4.7,1.07,6.65,3.02l33.26,32.43L44.19,25.41c-1.75-1.75-2.82-3.88-3-6
			c-0.19-2.25,0.59-4.32,2.26-5.99c1.5-1.5,3.34-2.29,5.34-2.29c2.35,0,4.71,1.08,6.65,3.03l7.21,7.07
			c12.85,12.6,23.59,23.15,24.74,24.33c0.56,0.45,1.29,0.62,1.6,0.47c0.2-0.1,0.42-0.56,0.38-1.53c-0.06-1.7-0.3-3.81-0.55-6.04
			c-0.5-4.48-1.02-9.12-0.37-12.18c1.42-5.31,4.21-7.56,6.29-8.53c2.86-1.32,5.63-0.86,6.16-0.61c5.2,2.44,4.17,6.52,2.75,12.18
			l-0.03,0.14l-0.16,1.17c-1.04,5.12,4.3,19.27,9.64,30.8l0.08,0.16c3.57,7.8,10,27.81-7.2,45.01
			C98.07,114.49,89.51,117.18,81.79,117.18z M21.35,58.72c-1.18,0-2.3,0.49-3.22,1.41c-0.95,0.95-1.28,1.87-1.08,2.97
			c0.22,1.21,1.11,2.65,2.5,4.05c0.01,0.01,0.41,0.4,1.1,1.06c23.42,22.73,37.56,36.24,39.82,38.06l0.12,0.11
			c5.52,5.52,26.03,15.32,43.26-1.91c15.87-15.87,9.9-34.4,6.59-41.64l-0.07-0.15c-3.44-7.42-11.26-25.42-9.87-32.6l0.23-1.5
			c1.54-6.12,1.63-7.4-0.98-8.66c-0.77-0.14-6.29-0.81-8.4,7.06c-0.53,2.51-0.02,7.1,0.43,11.15c0.26,2.29,0.5,4.46,0.56,6.27
			c0.1,2.85-1.25,3.94-2.07,4.34c-1.67,0.81-3.66,0.12-4.9-0.92l-0.13-0.12c-0.61-0.66-15.12-14.89-24.72-24.31l-7.22-7.09
			c-2.46-2.47-5.63-2.88-7.76-0.75c-1.04,1.04-1.51,2.26-1.4,3.61c0.12,1.41,0.88,2.88,2.15,4.15L70.5,48.14
			c1.14,1.16,1.14,3.06-0.02,4.22c-1.11,1.11-3.07,1.13-4.21,0.03L32.98,19.94c-2.46-2.46-5.64-2.87-7.76-0.74
			c-1.04,1.04-1.51,2.26-1.4,3.61c0.13,1.41,0.89,2.89,2.15,4.14L58.6,60.41c1.15,1.16,1.14,3.06-0.02,4.22
			c-1.11,1.11-3.07,1.13-4.21,0.03L27.2,38.17c-2.46-2.48-5.64-2.88-7.76-0.75c-2.59,2.59-1.21,5.8,0.75,7.77l26.57,27.44
			c1.14,1.16,1.13,3.05-0.03,4.2c-1.12,1.12-3.06,1.13-4.2,0.04L25.9,60.89C24.5,59.48,22.89,58.72,21.35,58.72z"/>
	</g>
	<path id="tone_1_" style="fill:#BA8F63;" d="M84.76,46.54c-5.49,11.21-4.78,26.9,3.46,39.49c0.93,1.7,2.52,0.87,1.71-0.88
		c-9.95-21.29,0.48-36.63,0.48-36.63L84.76,46.54z"/>
</g>
<g>
	<g>
		<path style="fill:#B0BEC5;" d="M63.17,4.5c3.02-0.79,6.24-0.72,9.37,0.01c3.11,0.75,6.22,2.33,8.53,4.91
			c2.26,2.56,3.65,5.67,4.12,8.93c0.44,3.23,0.03,6.56-1.5,9.32c-0.18-3.1-0.72-5.95-1.63-8.58c-0.47-1.31-1.02-2.56-1.69-3.74
			c-0.66-1.17-1.44-2.33-2.27-3.28c-1.69-1.95-3.98-3.47-6.55-4.65C68.97,6.2,66.16,5.3,63.17,4.5z"/>
	</g>
	<g>
		<path style="fill:#90A4AE;" d="M64,13.98c1.67-1.06,3.76-1.28,5.73-0.93c1.99,0.35,3.89,1.34,5.39,2.71
			c1.49,1.39,2.55,3.14,3.21,4.96c0.32,0.91,0.48,1.87,0.63,2.8c0.05,0.96,0.05,1.92-0.1,2.88c-0.69-0.73-1.23-1.46-1.74-2.17
			c-0.59-0.67-1.05-1.38-1.58-2.03c-1.04-1.29-2.05-2.46-3.14-3.5c-1.12-1.01-2.3-1.9-3.67-2.67C67.37,15.24,65.84,14.58,64,13.98z"
			/>
	</g>
</g>
<g>
	<g>
		<path style="fill:#B0BEC5;" d="M6.83,77.34c1.41,2.76,2.88,5.32,4.59,7.58c1.7,2.26,3.65,4.18,5.92,5.43
			c1.1,0.61,2.41,1.14,3.69,1.54c1.29,0.41,2.63,0.69,4.01,0.88c2.76,0.34,5.66,0.28,8.73-0.19c-2.38,2.07-5.56,3.17-8.8,3.41
			c-3.28,0.22-6.61-0.49-9.59-2.17c-3-1.71-5.2-4.43-6.58-7.32C7.42,83.59,6.68,80.46,6.83,77.34z"/>
	</g>
	<g>
		<path style="fill:#90A4AE;" d="M16.28,76.17c0.97,1.68,1.93,3.03,2.98,4.21c1.04,1.18,2.16,2.15,3.38,3.03
			c1.24,0.85,2.6,1.6,4.08,2.35c0.74,0.38,1.53,0.68,2.31,1.12c0.81,0.35,1.63,0.72,2.49,1.25c-0.91,0.34-1.84,0.54-2.79,0.69
			c-0.94,0.04-1.91,0.09-2.87-0.04c-1.92-0.26-3.84-0.93-5.52-2.1c-1.65-1.19-3.02-2.84-3.77-4.71
			C15.81,80.11,15.59,78.03,16.28,76.17z"/>
	</g>
</g>
</svg>
