<?xml version="1.0" encoding="utf-8"?>
<!-- Generator: Adobe Illustrator 25.2.3, SVG Export Plug-In . SVG Version: 6.00 Build 0)  -->
<svg version="1.1" id="Layer_2" xmlns="http://www.w3.org/2000/svg" xmlns:xlink="http://www.w3.org/1999/xlink" x="0px" y="0px"
	 viewBox="0 0 128 128" style="enable-background:new 0 0 128 128;" xml:space="preserve">
<g>
	<path style="fill:#194FA5;" d="M116,4H12c-4.42,0-8,3.58-8,8v104c0,4.42,3.58,8,8,8h104c4.42,0,8-3.58,8-8V12
		C124,7.58,120.42,4,116,4z"/>
	<path style="fill:#2262DD;" d="M109.7,4H11.5C7.37,4.03,4.03,7.37,4,11.5v97.9c-0.01,4.14,3.34,7.49,7.48,7.5c0.01,0,0.01,0,0.02,0
		h98.1c4.14,0.01,7.49-3.34,7.5-7.48c0-0.01,0-0.01,0-0.02V11.5c0.09-4.05-3.13-7.41-7.18-7.5C109.85,4,109.77,4,109.7,4z"/>
	<path style="opacity:0.65;fill:#68ABE6;enable-background:new    ;" d="M39.7,12.9c0-2.3-1.6-3-10.8-2.7c-7.7,0.3-11.5,1.2-13.8,4
		c-1.9,2.3-2.3,5.6-2.6,8.4c-0.2,2.2-2.2,14.9,3.5,11.2c0.68-0.45,1.23-1.07,1.6-1.8c1.2-2.1,1.9-3.5,3.3-5.6
		C26.2,17.8,39.7,15.9,39.7,12.9z"/>
	<g>
		<circle style="fill:#FAFAFA;" cx="19" cy="104" r="6"/>
		<circle style="fill:#FAFAFA;" cx="40" cy="104" r="6"/>
		<circle style="fill:#FAFAFA;" cx="61" cy="104" r="6"/>
		<circle style="fill:#FAFAFA;" cx="103" cy="104" r="6"/>
		<circle style="fill:#FAFAFA;" cx="82" cy="104" r="6"/>
		<path style="fill:#FAFAFA;" d="M78,23c0-4.97-4.03-9-9-9H53c-4.97,0-9,4.03-9,9v2c0,0.55-0.45,1-1,1h-4c-1.1,0-2,0.9-2,2v60
			c0,1.1,0.9,2,2,2h44c1.1,0,2-0.9,2-2V28c0-1.1-0.9-2-2-2h-4c-0.55,0-1-0.45-1-1V23z M49,23c0-2.21,1.79-4,4-4h16
			c2.21,0,4,1.79,4,4v2c0,0.55-0.45,1-1,1H50c-0.55,0-1-0.45-1-1V23z"/>
		<path style="fill:#FAFAFA;" d="M13,34v48c0,4.42,3.58,8,8,8h6c1.1,0,2-0.9,2-2V28c0-1.1-0.9-2-2-2h-6C16.58,26,13,29.58,13,34z"/>
		<path style="fill:#FAFAFA;" d="M101,26h-6c-1.1,0-2,0.9-2,2v60c0,1.1,0.9,2,2,2h6c4.42,0,8-3.58,8-8V34
			C109,29.58,105.42,26,101,26z"/>
	</g>
	<path style="opacity:0.3;fill:#68ABE6;enable-background:new    ;" d="M39.7,12.9c0-2.3-1.6-3-10.8-2.7c-7.7,0.3-11.5,1.2-13.8,4
		c-1.9,2.3-2.3,5.6-2.6,8.4c-0.2,2.2-2.2,14.9,3.5,11.2c0.68-0.45,1.23-1.07,1.6-1.8c1.2-2.1,1.9-3.5,3.3-5.6
		C26.2,17.8,39.7,15.9,39.7,12.9z"/>
</g>
</svg>
