<svg enable-background="new 0 0 128 128" viewBox="0 0 128 128" xmlns="http://www.w3.org/2000/svg" xmlns:xlink="http://www.w3.org/1999/xlink"><path d="m88.61 122.78c-0.05 0-0.09-0.01-0.14-0.04-0.12-0.07-0.16-0.23-0.09-0.35 0.03-0.06 0.18-0.3 0.49-0.71 0.48-0.59 1.06-1.11 1.74-1.54 0.88-0.57 2.01-1.06 3.29-1.41 1.17-0.33 2.6-0.61 4.5-0.86 0.51-0.07 1.03-0.13 1.55-0.2 1.21-0.15 2.46-0.3 3.72-0.54 2.61-0.49 4.12-1.31 4.6-2.5 0.29-0.65 0.32-1.6 0.07-2.67-0.22-0.94-0.68-1.78-1.37-2.5-1.17-1.22-3.01-2.12-5.49-2.67-1.82-0.4-3.85-0.61-6.4-0.65h-0.62c-1.79 0-3.65 0.09-5.68 0.27-3.5 0.32-7.14 0.87-11.1 1.67-3.4 0.69-6.08 1.39-7.73 1.85-0.92 0.26-1.64 0.48-2.12 0.63l-0.75 0.24c-0.11 0.04-0.21 0.05-0.32 0.05-0.44 0-0.82-0.28-0.95-0.69-0.08-0.25-0.06-0.53 0.06-0.76s0.33-0.41 0.58-0.49l0.79-0.24c0.51-0.15 1.25-0.36 2.19-0.61 1.68-0.44 4.41-1.11 7.89-1.76 4.05-0.75 7.75-1.25 11.32-1.52 1.77-0.13 3.4-0.2 4.97-0.2 0.5 0 1 0.01 1.5 0.02 2.69 0.08 4.75 0.33 6.69 0.79 1.91 0.47 4.34 1.25 6.15 3.16 0.82 0.88 1.4 1.98 1.64 3.12 0.07 0.28 0.1 0.55 0.14 0.82 0.02 0.19 0.03 0.26 0.03 0.33l0.12 0.16c0.01 0.08 0.11 0.22 0.11 0.34v0.12c0 0.61-0.27 1.22-0.52 1.75-0.57 1.22-1.77 1.88-2.62 2.22-1.02 0.41-2.05 0.61-2.98 0.76-1.33 0.21-2.59 0.32-3.79 0.43-0.54 0.05-1.07 0.1-1.58 0.15-1.86 0.19-3.26 0.41-4.41 0.7-1.22 0.3-2.31 0.72-3.15 1.23-0.64 0.38-1.18 0.83-1.64 1.37-0.33 0.39-0.47 0.62-0.47 0.62-0.04 0.06-0.13 0.11-0.22 0.11z" fill="#FFBDBD"/><path d="m93.63 105c0.49 0 0.98 0.03 1.47 0.05 2.65 0.08 4.69 0.34 6.59 0.79 1.85 0.45 4.19 1.21 5.9 3.03 0.75 0.8 1.3 1.85 1.53 2.92 0.06 0.23 0.09 0.48 0.12 0.74l0.01 0.06c0.01 0.11 0.02 0.16 0.02 0.22 0 0.05-0.13 0.11-0.13 0.16 0 0.09-0.14 0.21-0.14 0.33v0.08c0 0.56-0.01 1.1-0.23 1.56-0.51 1.07-1.46 1.67-2.23 1.98-0.92 0.37-1.76 0.56-2.8 0.73-0.36 0.06-0.7 0.1-1.04 0.15 0.35-0.05 0.7-0.11 1.06-0.18 2.8-0.52 4.43-1.44 4.96-2.77 0.45-0.98 0.31-2.18 0.11-3.01-0.24-1.03-0.74-1.95-1.49-2.74-1.24-1.3-3.17-2.24-5.74-2.81-1.85-0.41-3.92-0.62-6.5-0.66h-0.61c-1.81 0-3.69 0.09-5.74 0.28-3.52 0.32-7.17 0.87-11.16 1.68-3.42 0.7-6.11 1.4-7.76 1.86-0.95 0.26-1.68 0.49-2.14 0.63l-0.76 0.24c-0.05 0.02-0.1 0.02-0.15 0.02-0.18 0-0.4-0.11-0.48-0.35-0.08-0.26 0.06-0.54 0.33-0.63l0.77-0.23c0.67-0.2 1.41-0.4 2.18-0.61 1.68-0.44 4.4-1.11 7.85-1.75 4.03-0.75 7.72-1.28 11.27-1.54 1.74-0.14 3.36-0.23 4.93-0.23h0.37m-0.37-0.95c-1.71 0-3.39 0.08-5.02 0.2-4.2 0.32-8.08 0.92-11.38 1.53-3.3 0.62-6.02 1.27-7.92 1.77-0.95 0.25-1.69 0.46-2.21 0.62-0.5 0.15-0.77 0.23-0.77 0.23l-0.02 0.01c-0.79 0.25-1.22 1.1-0.97 1.89 0.2 0.64 0.79 1.04 1.43 1.04 0.15 0 0.31-0.02 0.46-0.07h0.01s0.26-0.08 0.75-0.24c0.48-0.15 1.19-0.37 2.11-0.62 1.83-0.51 4.48-1.19 7.69-1.84s6.99-1.29 11.05-1.66c1.84-0.17 3.73-0.27 5.65-0.27h0.6c2.11 0.03 4.26 0.18 6.3 0.64 2.02 0.45 3.98 1.22 5.23 2.52 0.62 0.65 1.05 1.42 1.24 2.27 0.21 0.88 0.23 1.76-0.04 2.37-0.51 1.26-2.49 1.87-4.23 2.2-1.8 0.34-3.59 0.51-5.25 0.74-1.66 0.22-3.21 0.49-4.57 0.87s-2.53 0.89-3.42 1.47c-0.9 0.57-1.5 1.2-1.86 1.66s-0.51 0.73-0.51 0.73l-0.02 0.04c-0.2 0.36-0.08 0.81 0.27 1.02 0.12 0.08 0.26 0.11 0.4 0.11 0.26 0 0.51-0.13 0.65-0.37 0 0 0.13-0.21 0.42-0.56 0.3-0.34 0.77-0.82 1.52-1.27s1.76-0.87 3.01-1.17c1.25-0.31 2.71-0.52 4.34-0.69s3.43-0.28 5.38-0.59c0.98-0.16 2-0.37 3.06-0.79 1.03-0.41 2.22-1.18 2.83-2.48 0.3-0.63 0.44-1.31 0.46-1.96 0-0.16 0.01-0.37 0-0.5-0.01-0.15 0-0.22-0.03-0.44-0.04-0.31-0.08-0.61-0.15-0.92-0.26-1.23-0.89-2.43-1.77-3.36-1.78-1.89-4.15-2.76-6.4-3.31-2.28-0.54-4.56-0.73-6.8-0.8-0.52-0.01-1.02-0.02-1.52-0.02z" fill="#D9A0A0"/><path d="m46.43 123c-0.68 0-1.38-0.05-2.06-0.1-0.64-0.05-1.25-0.09-1.78-0.09 0 0-1.04 0.02-1.24 0.02-1.17 0-1.8-0.14-2.44-0.98-0.29-0.38-0.39-0.84-0.26-1.14 0.11-0.26 0.45-0.5 0.86-0.59 0.2-0.05 0.42-0.07 0.68-0.07 0.33 0 0.65 0.03 0.98 0.07 0.56 0.06 1.11 0.14 1.66 0.23 0.05 0.01 0.1 0.01 0.16 0.01 0.38 0 0.73-0.21 0.9-0.56 0.19-0.39 0.11-0.87-0.21-1.17-2.48-2.33-4.92-5.05-5.83-6.33-2.4-3.34-3.25-5.98-2.66-8.29 0.83-3.26 3.48-4.42 5.69-4.42 2.31 0 5.42 1.33 6.57 5.08 0.79 2.57 1.27 5.29 1.64 7.62l0.03 0.19c0.24 1.48 0.48 3.02 0.55 4.5 0.02 0.44 0.06 0.9 0.11 1.37 0.1 1.04 0.21 2.11-0.01 2.98-0.21 0.87-0.76 1.67-3.34 1.67z" fill="#A3A3A3"/><path d="m40.88 100.58c1.97 0 4.62 1.15 5.61 4.38 0.77 2.51 1.25 5.19 1.61 7.49l0.03 0.19c0.23 1.46 0.47 2.96 0.53 4.38 0.02 0.48 0.07 0.96 0.11 1.43 0.09 0.95 0.19 1.94 0.02 2.65-0.08 0.34-0.22 0.9-2.37 0.9-0.64 0-1.32 0.05-1.98 0-0.65-0.05-1.27 0-1.85 0h-0.11c-0.18 0-0.35-0.09-0.52-0.09-0.21 0-0.41-0.04-0.61-0.04-1.05 0-1.29-0.15-1.64-0.61-0.03-0.04-0.06-0.1-0.08-0.14 0.03-0.01 0.07-0.03 0.1-0.04 0.12-0.03 0.27-0.05 0.45-0.05 0.25 0 0.52 0.02 0.86 0.06 0.48 0.06 1.01 0.13 1.62 0.22 0.11 0.02 0.21 0.02 0.31 0.02 0.75 0 1.46-0.43 1.79-1.12 0.39-0.79 0.21-1.74-0.43-2.34-2.44-2.29-4.82-4.94-5.71-6.18-2.22-3.08-3.01-5.46-2.5-7.47 0.72-2.67 2.92-3.64 4.76-3.64m0-2c-2.95 0-5.79 1.73-6.66 5.17-0.82 3.22 0.88 6.43 2.81 9.12 0.98 1.36 3.44 4.1 5.96 6.48-0.57-0.09-1.13-0.17-1.7-0.24-0.36-0.04-0.73-0.08-1.09-0.08-0.31 0-0.61 0.03-0.91 0.1-0.65 0.15-1.28 0.55-1.55 1.17-0.3 0.7-0.08 1.54 0.38 2.14 0.92 1.23 1.98 1.48 3.24 1.48 0.37 0 0.75 0.08 1.15 0.08h0.09c1.08 0 2.49 0.1 3.84 0.1 1.98 0 3.83-0.46 4.32-2.48 0.36-1.46-0.01-3.18-0.08-4.66-0.07-1.6-0.34-3.23-0.59-4.82-0.41-2.6-0.9-5.24-1.67-7.77-1.2-3.86-4.43-5.79-7.54-5.79z" fill="#7D7D7D"/><path d="m76.47 123c-2.58 0-3.13-0.8-3.34-1.66-0.21-0.88-0.11-1.95 0-2.98 0.05-0.47 0.09-0.93 0.11-1.37 0.07-1.48 0.31-3.02 0.55-4.5l0.03-0.19c0.37-2.33 0.86-5.06 1.64-7.62 1.15-3.75 4.26-5.08 6.57-5.08 2.21 0 4.87 1.16 5.7 4.42 0.59 2.32-0.25 4.95-2.66 8.29-0.92 1.28-3.36 4-5.83 6.33-0.32 0.3-0.41 0.77-0.21 1.17 0.17 0.35 0.52 0.56 0.9 0.56 0.05 0 0.1 0 0.16-0.01 0.55-0.09 1.11-0.17 1.66-0.23 0.33-0.04 0.65-0.07 0.98-0.07 0.26 0 0.48 0.02 0.68 0.07 0.41 0.1 0.74 0.33 0.86 0.59 0.13 0.3 0.03 0.76-0.26 1.14-0.63 0.84-1.26 0.98-2.44 0.98-0.2 0-1.24-0.02-1.24-0.02-0.53 0-1.14 0.04-1.78 0.09-0.7 0.04-1.4 0.09-2.08 0.09z" fill="#A3A3A3"/><path d="m82.02 100.58c1.83 0 4.04 0.96 4.73 3.66 0.51 2.01-0.28 4.38-2.5 7.47-0.89 1.24-3.27 3.89-5.71 6.18-0.64 0.6-0.81 1.55-0.43 2.34 0.34 0.69 1.04 1.12 1.79 1.12 0.1 0 0.21-0.01 0.31-0.02 0.61-0.1 1.14-0.17 1.62-0.23 0.34-0.04 0.61-0.06 0.86-0.06 0.18 0 0.33 0.01 0.45 0.04 0.04 0.01 0.07 0.02 0.1 0.03-0.02 0.04-0.04 0.08-0.07 0.13-0.35 0.46-0.59 0.59-1.64 0.59-0.2 0-0.4 0.09-0.61 0.09-0.17 0-0.34 0.09-0.52 0.09h-0.11c-0.58 0-1.2-0.05-1.85 0-0.66 0.05-1.34 0.05-1.98 0.05-2.15 0-2.29-0.59-2.37-0.92-0.17-0.71-0.08-1.71 0.02-2.66 0.05-0.47 0.09-0.95 0.11-1.43 0.06-1.42 0.3-2.93 0.53-4.39l0.03-0.2c0.37-2.3 0.84-4.98 1.61-7.49 1.01-3.24 3.66-4.39 5.63-4.39m0-2c-3.11 0-6.34 1.92-7.53 5.79-0.77 2.52-1.26 5.16-1.67 7.76-0.25 1.58-0.52 3.2-0.59 4.8-0.07 1.48-0.43 3.17-0.08 4.64 0.49 2.02 2.34 2.52 4.32 2.52 1.35 0 2.76-0.1 3.84-0.1h0.09c0.4 0 0.78-0.08 1.15-0.08 1.26 0 2.31-0.2 3.24-1.43 0.46-0.61 0.68-1.47 0.38-2.17-0.27-0.61-0.9-1.03-1.55-1.18-0.3-0.07-0.6-0.1-0.91-0.1-0.36 0-0.73 0.03-1.09 0.07-0.57 0.07-1.14 0.15-1.7 0.24 2.52-2.37 4.98-5.11 5.96-6.48 1.94-2.7 3.63-5.91 2.81-9.13-0.88-3.42-3.72-5.15-6.67-5.15z" fill="#7D7D7D"/><linearGradient id="g" x1="61.45" x2="61.45" y1="121.05" y2="65.955" gradientUnits="userSpaceOnUse"><stop stop-color="#B3B3B3" offset=".1101"/><stop stop-color="#CACACA" offset=".2228"/><stop stop-color="#E7E7E7" offset=".3923"/><stop stop-color="#F2F2F2" offset=".4892"/></linearGradient><path d="m61.45 121.05c-11.8 0-18.85-7.27-18.85-19.45 0-11.83 14.61-30.49 18.85-35.64 4.23 5.16 18.85 23.82 18.85 35.64 0 12.18-7.05 19.45-18.85 19.45z" fill="url(#g)"/><path d="m61.45 68.31c6.34 7.9 17.35 23.62 17.35 33.29 0 11.41-6.32 17.95-17.35 17.95s-17.35-6.55-17.35-17.95c0-9.65 11.01-25.38 17.35-33.29m0-4.69s-20.35 23.5-20.35 37.98 9.11 20.95 20.35 20.95 20.35-6.47 20.35-20.95-20.35-37.98-20.35-37.98z" fill="#A3A3A3"/><path d="m45.86 95.86c1.05 2.36 2.81 4.37 5.13 5.52 2.49 1.23 5.47 1.39 8 0.33 0.7-0.29 1.43-0.78 1.53-1.57 0.09-0.7-0.39-1.39-0.98-1.74-0.96-0.55-2.09-0.4-3.06-0.96-1.41-0.82-1.88-2.72-1.93-4.41-0.08-2.54-0.12-4.5-1.39-6.77-0.78-1.39-2.23-2.33-3.75-2.41-1.72-0.09-2.92 0.73-3.64 2.29-1.4 3.06-1.25 6.68 0.09 9.72z" fill="#A3A3A3"/><path d="m77.44 95.86c-1.06 2.36-2.85 4.37-5.21 5.5-2.54 1.22-5.58 1.37-8.16 0.29-0.71-0.3-1.46-0.79-1.57-1.58-0.1-0.7 0.39-1.39 1-1.73 0.97-0.55 2.13-0.39 3.12-0.95 1.44-0.82 1.9-2.72 1.95-4.4 0.07-2.55 0.1-4.51 1.39-6.77 0.79-1.39 2.26-2.32 3.82-2.39 1.76-0.08 2.98 0.74 3.72 2.31 1.44 3.06 1.3 6.68-0.06 9.72z" fill="#A3A3A3"/><linearGradient id="e" x1="35.178" x2="35.178" y1="10.722" y2="46.03" gradientUnits="userSpaceOnUse"><stop stop-color="#F2F2F2" offset=".5108"/><stop stop-color="#E7E7E7" offset=".6077"/><stop stop-color="#CACACA" offset=".7772"/><stop stop-color="#B3B3B3" offset=".8899"/></linearGradient><path d="m35.18 42.36c-9.07 0-16.46-7.38-16.46-16.46s7.38-16.46 16.46-16.46 16.46 7.38 16.46 16.46-7.39 16.46-16.46 16.46z" fill="url(#e)"/><path d="m35.18 10.44c8.52 0 15.46 6.93 15.46 15.46s-6.94 15.46-15.46 15.46-15.46-6.94-15.46-15.46 6.93-15.46 15.46-15.46m0-2c-9.64 0-17.46 7.82-17.46 17.46s7.82 17.46 17.46 17.46 17.46-7.82 17.46-17.46-7.82-17.46-17.46-17.46z" fill="#A3A3A3"/><circle cx="35.18" cy="25.9" r="10.09" fill="#FFBDBD"/><linearGradient id="d" x1="87.817" x2="87.817" y1="10.722" y2="46.03" gradientUnits="userSpaceOnUse"><stop stop-color="#F2F2F2" offset=".5108"/><stop stop-color="#E7E7E7" offset=".6077"/><stop stop-color="#CACACA" offset=".7772"/><stop stop-color="#B3B3B3" offset=".8899"/></linearGradient><path d="m87.82 42.36c-9.07 0-16.46-7.38-16.46-16.46s7.38-16.46 16.46-16.46 16.46 7.38 16.46 16.46-7.39 16.46-16.46 16.46z" fill="url(#d)"/><path d="m87.82 10.44c8.52 0 15.46 6.93 15.46 15.46s-6.93 15.46-15.46 15.46-15.46-6.94-15.46-15.46 6.93-15.46 15.46-15.46m0-2c-9.64 0-17.46 7.82-17.46 17.46s7.82 17.46 17.46 17.46 17.46-7.82 17.46-17.46-7.82-17.46-17.46-17.46z" fill="#A3A3A3"/><circle cx="87.82" cy="25.9" r="10.09" fill="#FFBDBD"/><linearGradient id="c" x1="61.499" x2="61.499" y1="89.106" y2="22.515" gradientUnits="userSpaceOnUse"><stop stop-color="#B3B3B3" offset=".1101"/><stop stop-color="#CACACA" offset=".2228"/><stop stop-color="#E7E7E7" offset=".3923"/><stop stop-color="#F2F2F2" offset=".4892"/></linearGradient><path d="m61.5 89.11c-5.49 0-14.65-2.41-22.72-7.8-8.71-5.81-13.51-13.42-13.51-21.42 0-17.97 13.85-37.37 36.23-37.37s36.23 19.4 36.23 37.37c0 8-4.8 15.61-13.51 21.42-8.07 5.39-17.23 7.8-22.72 7.8z" fill="url(#c)"/><path d="m61.5 23.52c9.94 0 19.04 4.04 25.63 11.38 6.1 6.8 9.6 15.91 9.6 25 0 17.23-23.14 28.22-35.23 28.22s-35.23-11-35.23-28.23c0-9.09 3.5-18.2 9.6-25 6.58-7.33 15.69-11.37 25.63-11.37m0-2c-22.67 0-37.23 19.32-37.23 38.37s24.8 30.22 37.23 30.22 37.23-11.17 37.23-30.22-14.56-38.37-37.23-38.37z" fill="#A3A3A3"/><path d="m65.16 71.4-3.19-3.16c-0.5-0.46-1.13-0.46-1.63 0l-3.69 3.16c-0.28 0.25-0.65 0.6-0.65 0.98v-0.05c0 2.57 2.66 5.68 5.22 5.68h0.3c2.57 0 3.47-3.11 3.47-5.68v0.03c0.01-0.38 0.44-0.71 0.17-0.96z" fill="#fff"/><g fill="#404040"><ellipse cx="41.02" cy="49.91" rx="6.12" ry="6.92"/><ellipse cx="81.97" cy="49.91" rx="6.12" ry="6.92"/></g><g fill="none" stroke="#808080" stroke-linecap="round" stroke-linejoin="round" stroke-miterlimit="10" stroke-width="2.1888"><path d="m61.04 65.3c0 3.1-2.52 5.62-5.62 5.62s-5.62-2.52-5.62-5.62"/><path d="m72.63 65.3c0 3.1-2.52 5.62-5.62 5.62s-5.61-2.52-5.61-5.62"/></g><linearGradient id="b" x1="61.499" x2="61.499" y1="56.312" y2="66.528" gradientUnits="userSpaceOnUse"><stop stop-color="#575757" offset=".1628"/><stop stop-color="#262626" offset=".6453"/><stop offset="1"/></linearGradient><ellipse cx="61.5" cy="61.11" rx="7.75" ry="4.84" fill="url(#b)"/><g fill="none" stroke="#404040" stroke-linecap="round" stroke-linejoin="round" stroke-miterlimit="10"><line x1="29.52" x2="39.12" y1="80.87" y2="71.98" stroke-width="2.1888"/><line x1="37.96" x2="26.05" y1="68.03" y2="72.78" stroke-width="2.1888"/><line x1="23" x2="37" y1="65" y2="65" stroke-width="2"/><line x1="93.6" x2="83.99" y1="80.87" y2="71.98" stroke-width="2.1888"/><line x1="85.16" x2="97.07" y1="68.03" y2="72.78" stroke-width="2.1888"/><line x1="99" x2="87" y1="65" y2="65" stroke-width="2"/></g><g display="none"><g display="inline"><g opacity=".6"><circle cx="64" cy="64" r="28" fill="none" opacity=".61" stroke="#000" stroke-miterlimit="10" stroke-width=".2625"/><line x1="84" x2="84" y2="128" fill="none" opacity=".61" stroke="#000" stroke-miterlimit="10" stroke-width=".25"/><line x1="44" x2="44" y2="128" fill="none" opacity=".61" stroke="#000" stroke-miterlimit="10" stroke-width=".25"/><line x1="64" x2="64" y2="128" fill="none" opacity=".61" stroke="#000" stroke-miterlimit="10" stroke-width=".25"/><line x1="128" y1="64" y2="64" fill="none" opacity=".61" stroke="#000" stroke-miterlimit="10" stroke-width=".25"/><line x1="128" y1="44" y2="44" fill="none" opacity=".61" stroke="#000" stroke-miterlimit="10" stroke-width=".25"/><line x1="128" y1="83.75" y2="83.75" fill="none" opacity=".61" stroke="#000" stroke-miterlimit="10" stroke-width=".25"/><line x1="128" y1="128" fill="none" opacity=".61" stroke="#000" stroke-miterlimit="10" stroke-width=".25"/><line x2="128" y1="128" fill="none" opacity=".61" stroke="#000" stroke-miterlimit="10" stroke-width=".25"/><g opacity=".61"><path d="M64,4.26c32.94,0,59.74,26.8,59.74,59.74S96.94,123.74,64,123.74S4.26,96.94,4.26,64S31.06,4.26,64,4.26 M64,4 C30.86,4,4,30.86,4,64s26.86,60,60,60s60-26.86,60-60S97.14,4,64,4L64,4z"/></g><path d="m107.97 115.97h-87.94c-4.42 0-8.03-3.61-8.03-8.03v-87.91c0-4.42 3.61-8.03 8.03-8.03h87.94c4.42 0 8.03 3.61 8.03 8.03v87.91c0 4.42-3.61 8.03-8.03 8.03z" fill="none" opacity=".61" stroke="#000" stroke-miterlimit="10" stroke-width=".2578"/><path d="m100 124h-72c-4.4 0-8-3.6-8-8v-104c0-4.4 3.6-8 8-8h72c4.4 0 8 3.6 8 8v104c0 4.4-3.6 8-8 8z" fill="none" opacity=".61" stroke="#000" stroke-miterlimit="10" stroke-width=".2628"/><path d="M113.77,108H14.23 C8.6,108,4,103.4,4,97.77V30.28c0-5.63,4.6-10.23,10.23-10.23h99.54c5.63,0,10.23,4.6,10.23,10.23v67.48 C124,103.4,119.4,108,113.77,108z" fill="none" opacity=".61" stroke="#000" stroke-miterlimit="10" stroke-width=".2627"/></g><g opacity=".2"><defs><rect id="f" width="128" height="128" opacity=".2"/></defs><clipPath id="a"><use xlink:href="#f"/></clipPath><g clip-path="url(#a)"><g fill="none" stroke="#000" stroke-miterlimit="10" stroke-width=".25"><line x1="-28" x2="-28" y1="160" y2="-32"/><line x1="-24" x2="-24" y1="160" y2="-32"/><line x1="-20" x2="-20" y1="160" y2="-32"/><line x1="-16" x2="-16" y1="160" y2="-32"/><line x1="-12" x2="-12" y1="160" y2="-32"/><line x1="-8" x2="-8" y1="160" y2="-32"/><line x1="-4" x2="-4" y1="160" y2="-32"/><line y1="160" y2="-32"/><line x1="4" x2="4" y1="160" y2="-32"/><line x1="8" x2="8" y1="160" y2="-32"/><line x1="12" x2="12" y1="160" y2="-32"/><line x1="16" x2="16" y1="160" y2="-32"/><line x1="20" x2="20" y1="160" y2="-32"/><line x1="24" x2="24" y1="160" y2="-32"/><line x1="28" x2="28" y1="160" y2="-32"/><line x1="32" x2="32" y1="160" y2="-32"/><line x1="36" x2="36" y1="160" y2="-32"/><line x1="40" x2="40" y1="160" y2="-32"/><line x1="44" x2="44" y1="160" y2="-32"/><line x1="48" x2="48" y1="160" y2="-32"/><line x1="52" x2="52" y1="160" y2="-32"/><line x1="56" x2="56" y1="160" y2="-32"/><line x1="60" x2="60" y1="160" y2="-32"/><line x1="64" x2="64" y1="160" y2="-32"/><line x1="68" x2="68" y1="160" y2="-32"/><line x1="72" x2="72" y1="160" y2="-32"/><line x1="76" x2="76" y1="160" y2="-32"/><line x1="80" x2="80" y1="160" y2="-32"/><line x1="84" x2="84" y1="160" y2="-32"/><line x1="88" x2="88" y1="160" y2="-32"/><line x1="92" x2="92" y1="160" y2="-32"/><line x1="96" x2="96" y1="160" y2="-32"/><line x1="100" x2="100" y1="160" y2="-32"/><line x1="104" x2="104" y1="160" y2="-32"/><line x1="108" x2="108" y1="160" y2="-32"/><line x1="112" x2="112" y1="160" y2="-32"/><line x1="116" x2="116" y1="160" y2="-32"/><line x1="120" x2="120" y1="160" y2="-32"/><line x1="124" x2="124" y1="160" y2="-32"/><line x1="128" x2="128" y1="160" y2="-32"/><line x1="132" x2="132" y1="160" y2="-32"/><line x1="136" x2="136" y1="160" y2="-32"/><line x1="137" x2="137" y1="166.05" y2="-25.95"/><line x1="144" x2="144" y1="160" y2="-32"/><line x1="148" x2="148" y1="160" y2="-32"/><line x1="152" x2="152" y1="160" y2="-32"/><line x1="156" x2="156" y1="160" y2="-32"/></g><g fill="none" stroke="#000" stroke-miterlimit="10" stroke-width=".25"><line x1="-32" x2="160" y1="-28" y2="-28"/><line x1="-32" x2="160" y1="-24" y2="-24"/><line x1="-32" x2="160" y1="-20" y2="-20"/><line x1="-32" x2="160" y1="-16" y2="-16"/><line x1="-32" x2="160" y1="-12" y2="-12"/><line x1="-32" x2="160" y1="-8" y2="-8"/><line x1="-32" x2="160" y1="-4" y2="-4"/><line x1="-32" x2="160"/><line x1="-32" x2="160" y1="4" y2="4"/><line x1="-32" x2="160" y1="8" y2="8"/><line x1="-32" x2="160" y1="12" y2="12"/><line x1="-32" x2="160" y1="16" y2="16"/><line x1="-32" x2="160" y1="20" y2="20"/><line x1="-32" x2="160" y1="24" y2="24"/><line x1="-32" x2="160" y1="28" y2="28"/><line x1="-32" x2="160" y1="32" y2="32"/><line x1="-32" x2="160" y1="36" y2="36"/><line x1="-32" x2="160" y1="40" y2="40"/><line x1="-32" x2="160" y1="44" y2="44"/><line x1="-32" x2="160" y1="48" y2="48"/><line x1="-32" x2="160" y1="52" y2="52"/><line x1="-32" x2="160" y1="56" y2="56"/><line x1="-32" x2="160" y1="60" y2="60"/><line x1="-32" x2="160" y1="64" y2="64"/><line x1="-32" x2="160" y1="68" y2="68"/><line x1="-32" x2="160" y1="72" y2="72"/><line x1="-32" x2="160" y1="76" y2="76"/><line x1="-32" x2="160" y1="80" y2="80"/><line x1="-32" x2="160" y1="84" y2="84"/><line x1="-32" x2="160" y1="88" y2="88"/><line x1="-32" x2="160" y1="92" y2="92"/><line x1="-32" x2="160" y1="96" y2="96"/><line x1="-32" x2="160" y1="100" y2="100"/><line x1="-32" x2="160" y1="104" y2="104"/><line x1="-32" x2="160" y1="108" y2="108"/><line x1="-32" x2="160" y1="112" y2="112"/><line x1="-32" x2="160" y1="116" y2="116"/><line x1="-32" x2="160" y1="120" y2="120"/><line x1="-32" x2="160" y1="124" y2="124"/><line x1="-32" x2="160" y1="128" y2="128"/><line x1="-32" x2="160" y1="132" y2="132"/><line x1="-32" x2="160" y1="136" y2="136"/><line x1="-32" x2="160" y1="140" y2="140"/><line x1="-32" x2="160" y1="144" y2="144"/><line x1="-32" x2="160" y1="148" y2="148"/><line x1="-32" x2="160" y1="152" y2="152"/><line x1="-32" x2="160" y1="156" y2="156"/></g><path d="m159.75-31.75v191.5h-191.5v-191.5h191.5m0.25-0.25h-192v192h192v-192z"/></g></g><g fill="#F44336"><rect width="4" height="128" opacity=".3"/><rect x="124" width="4" height="128" opacity=".3"/><rect transform="matrix(-1.837e-16 1 -1 -1.837e-16 66 -62)" x="62" y="-58" width="4" height="120" opacity=".3"/><rect transform="matrix(-1.837e-16 1 -1 -1.837e-16 190 62)" x="62" y="66" width="4" height="120" opacity=".3"/></g></g></g></svg>
