<svg xmlns="http://www.w3.org/2000/svg" viewBox="0 0 128 128"><path d="M33.58 81.24c.04.34.1.67.15 1.01.05.33.09.65.15.99l.06.29c.07.36.15.73.23 1.08.1.43.22.85.34 1.27C37.87 97.29 49.06 105 63.61 105h.03c17.46-.01 30.14-11.12 30.14-26.43S81.09 52.14 63.62 52.14c-2.22 0-4.37.18-6.42.53 6.71-11.7 17.03-18.38 17.13-18.45.28-.17.45-.45.48-.75.03-.31-.08-.62-.29-.84l-10.07-10.3c-.32-.32-.81-.4-1.21-.2-.55.28-13.55 7.02-22.22 22.24-4.39 7.67-9.81 19.77-7.44 36.87zm30.03-13.88c6.86 0 11.85 4.71 11.85 11.2 0 6.49-4.99 11.2-11.85 11.2-6.87 0-11.85-4.71-11.85-11.2 0-6.49 4.98-11.2 11.85-11.2z" fill="#fff"/></svg>