<?xml version="1.0" encoding="utf-8"?>
<!-- Generator: Adobe Illustrator 26.3.1, SVG Export Plug-In . SVG Version: 6.00 Build 0)  -->
<svg version="1.1" id="ROOT_x5F_VEGETABLE" xmlns="http://www.w3.org/2000/svg" xmlns:xlink="http://www.w3.org/1999/xlink" x="0px"
	 y="0px" viewBox="0 0 128 128" style="enable-background:new 0 0 128 128;" xml:space="preserve">
<path style="fill:#729A24;" d="M83.3,63.5c4.2-2.1,7.6,0.3,9.9,4.8c5,10.2,23.2,5.9,22.3-7.4c12.3-3.6,14.2-21.7,0.2-25.6
	C127.2,8.9,93.4-6,81.1,14.1c-15.4-9-28.9,9-17.1,23c3.1,3.7,10.3,6.6,9.9,12.2C73.5,56.5,79.1,65.6,83.3,63.5z"/>
<g>
	<g>
		<defs>
			<path id="SVGID_1_" d="M83.3,63.5c4.2-2.1,7.6,0.3,9.9,4.8c5,10.2,23.2,5.9,22.3-7.4c12.3-3.6,14.2-21.7,0.2-25.6
				C127.2,8.9,93.4-6,81.1,14.1c-15.4-9-28.9,9-17.1,23c3.1,3.7,10.3,6.6,9.9,12.2C73.5,56.5,79.1,65.6,83.3,63.5z"/>
		</defs>
		<clipPath id="SVGID_00000171706539701485197120000011959841576439802010_">
			<use xlink:href="#SVGID_1_"  style="overflow:visible;"/>
		</clipPath>
		<path style="clip-path:url(#SVGID_00000171706539701485197120000011959841576439802010_);fill:#327E33;" d="M125.4,52.4
			c0.2-1.1-1.4-2.5-2.6-1.4c0,0-4.8,6.6-13.1,2.8c-2.5-1.2-4-0.6-5.1,0.2c-5.1,3.7-21.8,5.1-26.9-15.4c-0.5-1.9-2.1-1.8-2.8-1.8
			c-0.7,0-10-1.4-12.7-8.9c-0.8-2.3-3.1-1.4-3.1-1.4l-4.2,11.3l46.9,48.6L126.3,59L125.4,52.4z"/>
	</g>
</g>
<path style="fill:#CC1A36;" d="M80.1,66.3c11.5,11.2,15.5,32.2,5.4,43.4c-14.8,16.4-33.8,10.1-41,7.4c-6.9-2.5-12.2-2.7-18.8,1.1
	s-14.6,6-19.4,4.9c-3.9-0.8-4-7.2,0-7.7c14.6-1.8,16.3-14.2,12-24.6c-6.9-16.7-3.6-30.3,2.5-36.5c18.3-18.5,39.5-6.9,47.6,0.3
	c3.8-3.8,6.4-6.2,7-6.9c0.8-1,2-0.8,2.5,0.3c1.5,3.4,6.1,8.1,9.9,9.7c0.9,0.4,1,1.7,0.2,2.3C87.5,60.3,80.1,66.3,80.1,66.3z"/>
<g>
	<g>
		<defs>
			<path id="SVGID_00000094583870388176752550000002591399879033663125_" d="M80.1,66.3c11.5,11.2,15.5,32.2,5.4,43.4
				c-14.8,16.4-33.8,10.1-41,7.4c-6.9-2.5-12.2-2.7-18.8,1.1s-14.6,6-19.4,4.9c-3.9-0.8-4-7.2,0-7.7c14.6-1.8,16.3-14.2,12-24.6
				c-6.9-16.7-3.6-30.3,2.5-36.5c18.3-18.5,39.5-6.9,47.6,0.3c3.8-3.8,6.4-6.2,7-6.9c0.8-1,2-0.8,2.5,0.3c1.5,3.4,6.1,8.1,9.9,9.7
				c0.9,0.4,1,1.7,0.2,2.3C87.5,60.3,80.1,66.3,80.1,66.3z"/>
		</defs>
		<clipPath id="SVGID_00000016050719550302446310000013442886126749395356_">
			<use xlink:href="#SVGID_00000094583870388176752550000002591399879033663125_"  style="overflow:visible;"/>
		</clipPath>
		<path style="clip-path:url(#SVGID_00000016050719550302446310000013442886126749395356_);fill:#891E0E;" d="M26.2,82.6
			c-1.6-2.9,2.5-5.8,4.9-2.8c2.1,2.8,6.3,8.1,10.4,11.5c3.5,3-0.7,6.9-3.7,4.7C33.2,92.7,28.3,86.4,26.2,82.6z M64.8,100.5
			c2.7,1.9,6.1-2.3,3.6-4.4c-3.1-2.6-6.9-6.3-9.4-8.7c-2.1-2-6.3,1-4.2,3.8C56.7,93.7,62.6,99,64.8,100.5z M82.7,41.8
			C74.5,41.6,71,44,68.9,48.5l-0.4,6.1c0,0-2.1,3.3,1.7,7.7C72,64.4,74.6,65,77,70c5.9,12.6,4.3,24.5-4.6,32.6
			c-8.1,7.4-15.3,8.1-20.7,7.4c-3.4-0.4-9.6-4.5-13.5-8.4c-2.8-2.7-7.1,0.5-5.2,3.6c1.2,2,4.2,4.4,5.8,5.6c-5.9,0.1-10.4,0.9-16,4.1
			c-7.7,4.4-12.5,4.5-14.8,4.2c-1.6-0.2-2.9-2.8-1.6-4.5c1.3-1.8,0.3-2.8-0.7-3.2c-1-0.3-5.4,1.9-4.9,6.9s3.2,6.5,4.7,7.2
			c1.5,0.8,68.6,0,68.6,0s24.2-17,25.7-20.1C121.9,58.2,82.7,41.8,82.7,41.8z"/>
	</g>
	<g>
		<defs>
			<path id="SVGID_00000136403297894716907620000000296933451238514057_" d="M80.1,66.3c11.5,11.2,15.5,32.2,5.4,43.4
				c-14.8,16.4-33.8,10.1-41,7.4c-6.9-2.5-12.2-2.7-18.8,1.1s-14.6,6-19.4,4.9c-3.9-0.8-4-7.2,0-7.7c14.6-1.8,16.3-14.2,12-24.6
				c-6.9-16.7-3.6-30.3,2.5-36.5c18.3-18.5,39.5-6.9,47.6,0.3c3.8-3.8,6.4-6.2,7-6.9c0.8-1,2-0.8,2.5,0.3c1.5,3.4,6.1,8.1,9.9,9.7
				c0.9,0.4,1,1.7,0.2,2.3C87.5,60.3,80.1,66.3,80.1,66.3z"/>
		</defs>
		<clipPath id="SVGID_00000027571026086225301260000005040016496015093925_">
			<use xlink:href="#SVGID_00000136403297894716907620000000296933451238514057_"  style="overflow:visible;"/>
		</clipPath>
		<path style="clip-path:url(#SVGID_00000027571026086225301260000005040016496015093925_);fill:#AF0D1A;" d="M79.4,48.6
			c0-2-2.9-4-2.9-4c-3.2,1.4-8,10-8,10s-1.1,1.7-0.3,4.3C68.2,59,76.7,51.1,79.4,48.6z"/>
	</g>
	<g>
		<defs>
			<path id="SVGID_00000027594858673220124660000003356026117100134066_" d="M80.1,66.3c11.5,11.2,15.5,32.2,5.4,43.4
				c-14.8,16.4-33.8,10.1-41,7.4c-6.9-2.5-12.2-2.7-18.8,1.1s-14.6,6-19.4,4.9c-3.9-0.8-4-7.2,0-7.7c14.6-1.8,16.3-14.2,12-24.6
				c-6.9-16.7-3.6-30.3,2.5-36.5c18.3-18.5,39.5-6.9,47.6,0.3c3.8-3.8,6.4-6.2,7-6.9c0.8-1,2-0.8,2.5,0.3c1.5,3.4,6.1,8.1,9.9,9.7
				c0.9,0.4,1,1.7,0.2,2.3C87.5,60.3,80.1,66.3,80.1,66.3z"/>
		</defs>
		<clipPath id="SVGID_00000049901620560073947970000006717732577929743263_">
			<use xlink:href="#SVGID_00000027594858673220124660000003356026117100134066_"  style="overflow:visible;"/>
		</clipPath>
		<path style="clip-path:url(#SVGID_00000049901620560073947970000006717732577929743263_);fill:#AF0D1A;" d="M70.2,62.3
			c0.6,0.7,1.4,1.3,2.1,1.9c4.5-3.8,7.4-6.2,12.1-10.2c-0.4-0.3-2.7-2.4-3.4-2.8c-5,4.4-7.8,6.9-11.5,10.3
			C69.7,61.7,69.9,62,70.2,62.3z"/>
	</g>
</g>
</svg>
