<svg enable-background="new 0 0 128 128" viewBox="0 0 128 128" xmlns="http://www.w3.org/2000/svg" xmlns:xlink="http://www.w3.org/1999/xlink"><defs><rect id="i" x="4" y="4" width="120" height="120"/></defs><clipPath id="a"><use xlink:href="#i"/></clipPath><g clip-path="url(#a)"><radialGradient id="h" cx="64.45" cy="45.831" r="22.307" gradientUnits="userSpaceOnUse"><stop stop-color="#554138" offset="0"/><stop stop-color="#3C2C23" offset="1"/></radialGradient><path d="m93.38 84.22c0.53-0.54 1.11-1.04 1.91-1.05 1.32-0.03 3.36-0.24 4.97-1.13 0.47-0.26 0.87-0.63 1.17-1.07-1.13-0.21-2.68-0.83-3.73-2.73-1.6-2.89 0.25-5.54 3.32-8.5 3.46-3.32 9.21-14.74 3.1-24.91-1.15-0.15-17.81 0.08-22.03 0.08h-17.99v46.32c19.76-0.01 23.67-1.21 29.28-7.01z" fill="url(#h)"/><radialGradient id="g" cx="64.819" cy="46.831" r="22.353" gradientUnits="userSpaceOnUse"><stop stop-color="#554138" offset="0"/><stop stop-color="#3C2C23" offset="1"/></radialGradient><path d="m34.82 84.22c-0.53-0.54-1.11-1.04-1.91-1.05-1.32-0.03-3.36-0.24-4.97-1.13-0.47-0.26-0.87-0.63-1.17-1.07 1.13-0.21 2.75-0.8 3.73-2.73 1.6-3.13-0.67-5.9-3.32-8.5-4.33-4.26-9.21-14.74-3.1-24.91 1.15-0.15 17.81 0.08 22.03 0.08h17.99v46.32c-19.76-0.01-23.67-1.21-29.28-7.01z" fill="url(#g)"/><path d="m102.88 46.54 0.26 0.46c5.42 9.69-0.55 19.22-3.19 21.77-2.96 2.85-5.7 6.27-3.58 10.11 0.55 0.99 1.27 1.8 2.13 2.39-1.18 0.39-2.47 0.49-3.24 0.5-1.56 0.04-2.56 1.07-2.99 1.52-3.4 3.52-5.97 5.24-13.09 6.01 0 0-3.69 1.76-6.24 2.36v0.85c12.46-0.42 16.47-2.08 21.56-7.34 0.39-0.41 0.65-0.59 0.83-0.59 1.58-0.04 3.84-0.29 5.7-1.33 0.67-0.37 1.24-0.9 1.67-1.52l1.17-1.72-2.14-0.4c-1.19-0.22-2.07-0.88-2.69-2-1.04-1.87-0.2-3.74 3.07-6.89 4.05-3.9 9.28-13.92 3.97-24.13 0 0 0-0.02 0.01-0.05h-3.21z" fill="#291D15"/><path d="m26.09 70.7c2.71 2.67 4.17 4.76 3.06 6.94-0.56 1.09-1.43 1.73-2.67 1.96l-2.14 0.4 1.17 1.72c0.42 0.62 1 1.15 1.67 1.52 1.86 1.04 4.13 1.29 5.7 1.33 0.18 0 0.44 0.19 0.83 0.59 5.07 5.24 9.06 6.91 21.39 7.34v-0.89c-2.15-0.56-6.08-2.31-6.08-2.31-7.12-0.77-9.69-2.49-13.09-6.01-0.43-0.44-1.43-1.48-2.99-1.52-0.76-0.02-2.04-0.11-3.21-0.49 0.89-0.6 1.61-1.42 2.13-2.43 2.22-4.35-1.56-8.06-3.59-10.06-3.84-3.78-8.03-12.63-3.8-21.55l0.29-0.61-0.05-0.09h-3.32c0.02 0.05 0.04 0.11 0.07 0.16-4.37 9.96 0.32 19.77 4.63 24z" fill="#291D15"/></g><g clip-path="url(#a)"><path d="m63.17 107.23c-4 0-7.26-3.22-7.26-7.17v-8.98h16.16v8.98c0 3.96-3.26 7.17-7.26 7.17h-1.64z" fill="#E59600"/><path d="m71.08 92.08v7.98c0 3.4-2.81 6.17-6.26 6.17h-1.65c-3.45 0-6.26-2.77-6.26-6.17v-7.98h14.17m2-2h-18.16v9.98c0 4.51 3.7 8.17 8.26 8.17h1.65c4.56 0 8.26-3.66 8.26-8.17v-9.98h-0.01z" fill="#D18100"/></g><g clip-path="url(#a)"><path d="m36.67 72.26c-5.36 0-9.71-4.67-9.71-10.41s4.36-10.41 9.71-10.41h54.65c5.36 0 9.71 4.67 9.71 10.41s-4.36 10.41-9.71 10.41h-54.65z" fill="#7A4C32"/><path d="m91.33 52.43c4.8 0 8.71 4.22 8.71 9.41s-3.91 9.41-8.71 9.41h-54.66c-4.8 0-8.71-4.22-8.71-9.41s3.91-9.41 8.71-9.41h54.66m0-2h-54.66c-5.89 0-10.71 5.14-10.71 11.41 0 6.28 4.82 11.41 10.71 11.41h54.65c5.89 0 10.71-5.14 10.71-11.41 0.01-6.27-4.81-11.41-10.7-11.41z" fill="#663B22"/></g><g clip-path="url(#a)"><linearGradient id="f" x1="64" x2="64" y1="94.591" y2="12.825" gradientUnits="userSpaceOnUse"><stop stop-color="#8D5738" offset="0"/><stop stop-color="#97603D" offset=".2163"/><stop stop-color="#A26941" offset=".5728"/><stop stop-color="#A56C43" offset="1"/></linearGradient><path d="m64 95.27c-15.66 0-32.52-12.14-32.52-38.81 0-12.38 3.56-23.79 10.02-32.13 6.04-7.8 14.25-12.27 22.5-12.27s16.45 4.47 22.5 12.27c6.46 8.33 10.02 19.75 10.02 32.13 0 12.09-3.51 22.19-10.14 29.21-5.86 6.19-13.81 9.6-22.38 9.6z" fill="url(#f)"/><path d="m64 13.07c7.94 0 15.85 4.33 21.71 11.88 6.33 8.16 9.81 19.35 9.81 31.52 0 11.83-3.41 21.7-9.87 28.52-5.67 5.99-13.36 9.29-21.65 9.29s-15.98-3.3-21.65-9.29c-6.46-6.82-9.87-16.69-9.87-28.52 0-12.16 3.49-23.35 9.81-31.52 5.86-7.55 13.77-11.88 21.71-11.88m0-2c-17.4 0-33.52 18.61-33.52 45.39 0 26.64 16.61 39.81 33.52 39.81s33.52-13.17 33.52-39.81c0-26.78-16.12-45.39-33.52-45.39z" fill="#875334"/></g><g clip-path="url(#a)"><g fill="#42312C"><ellipse cx="47.56" cy="58.81" rx="4.93" ry="5.1"/><path d="m54.98 49.82c-0.93-1.23-3.07-3.01-7.23-3.01s-6.31 1.79-7.23 3.01c-0.41 0.54-0.31 1.17-0.02 1.55 0.26 0.35 1.04 0.68 1.9 0.39s2.54-1.16 5.35-1.18c2.81 0.02 4.49 0.89 5.35 1.18s1.64-0.03 1.9-0.39c0.29-0.38 0.39-1.01-0.02-1.55z"/><path d="m87.48 49.82c-0.93-1.23-3.07-3.01-7.23-3.01s-6.31 1.79-7.23 3.01c-0.41 0.54-0.31 1.17-0.02 1.55 0.26 0.35 1.04 0.68 1.9 0.39s2.54-1.16 5.35-1.18c2.81 0.02 4.49 0.89 5.35 1.18s1.64-0.03 1.9-0.39c0.29-0.38 0.39-1.01-0.02-1.55z"/><ellipse cx="80.44" cy="58.81" rx="4.93" ry="5.1"/></g><path d="m67.86 68.06c-0.11-0.04-0.21-0.07-0.32-0.08h-7.07c-0.11 0.01-0.22 0.04-0.32 0.08-0.64 0.26-0.99 0.92-0.69 1.63s1.71 2.69 4.55 2.69 4.25-1.99 4.55-2.69c0.29-0.71-0.06-1.37-0.7-1.63z" fill="#875334"/></g><g clip-path="url(#a)"><defs><path id="e" d="m64 4.03h-0.02s-0.01 0-0.02 0c-45.43 0.24-36.12 52.14-36.12 52.14s5.1 8.99 5.1 8.81c-0.03-1.41 0.46-6.89 0.46-6.89l-2.68-2.92s3.89-25.44 6.79-24.91c4.45 0.81 26.54 2 26.57 2 7.83 0 14.92-0.36 19.37-1.17 2.9-0.53 9.64 1.7 10.68 4.45 1.33 3.54 3.13 19.71 3.13 19.71l-2.68 2.83s0.49 5.51 0.46 6.89c0 0.18 5.1-8.81 5.1-8.81s9.3-51.89-36.14-52.13z"/></defs><clipPath><use xlink:href="#e"/></clipPath></g><g clip-path="url(#a)"><radialGradient id="d" cx="64.326" cy="33.52" r="36.373" gradientTransform="matrix(1 0 0 .8642 0 4.5518)" gradientUnits="userSpaceOnUse"><stop stop-color="#554138" offset="0"/><stop stop-color="#3C2C23" offset="1"/></radialGradient><path d="m52.25 10.65c-12.27 4.35-13.49-3.35-13.49-3.35-6.66 3.32-2.28 10.45-2.28 10.45s-6.75-0.5-9.64 5.34c-3.02 6.11-0.36 10.78-0.36 10.78s-6.5 4.13-3.95 11.63c1.69 4.98 6.75 6.98 6.75 6.98-0.62 10.74 2.77 15.95 2.77 15.95s4.21-18.45 3.81-21.27c0 0 7.76-1.54 16.57-6.58 5.95-3.41 10.02-7.41 16.71-8.91 10.18-2.29 12.45 5.08 12.45 5.08s9.42-1.81 12.26 11.27c1.17 5.38 1.67 14.37 2.31 19.84-0.06-0.48 3.5-6.4 4.12-12.4 0.23-2.23 3.61-7.67 4.63-11.72 2.21-8.8-0.69-15.74-2.06-17.81-2.5-3.79-8.49-9-12.97-8.24 0.23-4.8-3.55-9.25-8.1-10.78-12.45-4.18-25.87 2.44-29.53 3.74z" fill="url(#d)"/></g><path d="m21.11 45.98c0.08 0.22 0.17 0.45 0.27 0.68l2.28 2.89 1.1-2.79-0.32-0.63c-0.21-0.42-0.36-0.77-0.48-1.11-2.13-6.26 3.11-9.73 3.33-9.88l1.18-0.76-0.68-1.23c-0.09-0.17-2.21-4.12 0.4-9.38 2.33-4.71 7.75-3.73 7.98-3.69l2.95 0.59-1.31-2.71c-0.1-0.22-2.19-4.67 0.33-8.01 0.55 1.01 1.43 2.15 2.84 3 2.85 1.73 6.8 1.72 11.75-0.03 0.79-0.28 1.68-0.76 2.8-1.38 4.53-2.47 12.11-6.61 24.12-2.81 4.34 1.38 8.92 5.17 8.74 8.89l-0.09 1.87 1.84-0.31c3.6-0.6 9.1 4.01 11.47 7.59 1.22 1.84 3.98 9.5 1.92 17.71-0.11 0.45-0.26 0.94-0.46 1.5l-0.22 0.62 0.04 0.08 1.09 1.9 2.11-1.9c0.05-0.23 0.27-1.14 0.35-1.46 2.24-8.93-0.56-17.42-2.32-20.09-2.44-3.7-7.91-8.64-12.82-8.97-0.79-4.72-5.84-8.72-10.73-10.27-13.25-4.21-21.86 0.49-26.49 3.02-0.96 0.53-1.79 0.98-2.36 1.18-3.97 1.41-7.13 1.52-9.15 0.32-1.97-1.17-2.32-3.23-2.33-3.31l-0.34-2.44-2.01 1.41c-4.24 2.99-4.4 7.63-3.6 10.88-2.93 0.12-6.77 1.36-8.8 5.47-2.42 4.9-1.56 8.99-0.86 10.95-2.52 2.15-5.54 6.65-3.52 12.61z" clip-path="url(#a)" fill="#291D15"/><g clip-path="url(#a)"><path d="m23.13 81.3c-0.3 0-0.6-0.06-0.88-0.18l-11.89-5.06c-1.15-0.49-1.68-1.82-1.19-2.97l0.09-0.22c0.36-0.83 1.17-1.37 2.08-1.37 0.3 0 0.6 0.06 0.88 0.18l11.89 5.06c0.56 0.24 0.99 0.68 1.21 1.24 0.23 0.56 0.22 1.18-0.02 1.73l-0.09 0.21c-0.36 0.84-1.17 1.38-2.08 1.38z" fill="#7A4C32"/><path d="m11.33 72.49c0.17 0 0.33 0.03 0.49 0.1l11.89 5.06c0.64 0.27 0.94 1.02 0.67 1.66l-0.09 0.21c-0.2 0.47-0.66 0.77-1.16 0.77-0.17 0-0.33-0.03-0.49-0.1l-11.89-5.06c-0.64-0.27-0.94-1.02-0.67-1.66l0.09-0.21c0.19-0.46 0.65-0.77 1.16-0.77m0-2c-1.27 0-2.47 0.74-3 1.99l-0.09 0.21c-0.71 1.66 0.07 3.57 1.72 4.28l11.89 5.06c0.42 0.18 0.85 0.26 1.28 0.26 1.27 0 2.47-0.74 3-1.99l0.09-0.21c0.71-1.66-0.07-3.57-1.72-4.28l-11.89-5.06c-0.42-0.17-0.85-0.26-1.28-0.26z" fill="#663B22"/><path d="m39.08 76.23s-18.03-11.35-22.44-15.1c-2.61-2.21-5.48-6.03-6.97-7.86-1.35-1.66-5.13 0.22-5.37 2.35-0.14 1.25 0.11 2.78 1.14 4.59 0 0 6.69 15.98 14.72 21.37l10.97 4.82 7.95-10.17z" fill="#A56C43"/><path d="m8.17 54.64h0.02c0.21 0.26 0.45 0.57 0.72 0.9 1.63 2.05 4.09 5.14 6.43 7.13 3.66 3.11 16.03 11.05 20.8 14.08l-5.64 7.21-9.38-4.12c-7.37-5.1-13.77-20.24-13.84-20.4-0.03-0.07-0.07-0.15-0.11-0.22-0.7-1.23-1-2.37-0.89-3.38 0.06-0.36 1.08-1.2 1.89-1.2m0-2c-1.63 0-3.7 1.43-3.87 2.99-0.14 1.25 0.11 2.78 1.14 4.59 0 0 6.69 15.98 14.72 21.37l10.97 4.82 7.96-10.17s-18.03-11.35-22.44-15.1c-2.61-2.21-5.48-6.03-6.97-7.86-0.38-0.45-0.92-0.64-1.51-0.64z" fill="#875334"/></g><g clip-path="url(#a)"><path d="m105.04 81.3c-0.91 0-1.73-0.54-2.08-1.38l-0.09-0.21c-0.24-0.55-0.24-1.17-0.02-1.73s0.66-1 1.21-1.24l11.89-5.06c0.28-0.12 0.58-0.18 0.89-0.18 0.91 0 1.73 0.54 2.08 1.38l0.09 0.21c0.24 0.56 0.24 1.17 0.02 1.73-0.23 0.56-0.66 1-1.21 1.24l-11.89 5.06c-0.28 0.12-0.58 0.18-0.89 0.18z" fill="#7A4C32"/><path d="m116.84 72.49c0.51 0 0.96 0.3 1.16 0.77l0.09 0.21c0.27 0.64-0.03 1.38-0.67 1.66l-11.89 5.06c-0.16 0.07-0.32 0.1-0.49 0.1-0.51 0-0.96-0.3-1.16-0.77l-0.09-0.21c-0.27-0.64 0.03-1.38 0.67-1.66l11.89-5.06c0.16-0.06 0.32-0.1 0.49-0.1m0-2c-0.43 0-0.86 0.08-1.28 0.26l-11.89 5.06c-1.66 0.71-2.43 2.62-1.72 4.28l0.09 0.21c0.53 1.24 1.73 1.99 3 1.99 0.43 0 0.86-0.08 1.28-0.26l11.89-5.06c1.66-0.71 2.43-2.62 1.72-4.28l-0.09-0.21c-0.52-1.24-1.73-1.99-3-1.99z" fill="#663B22"/><path d="m89.1 76.23s18.03-11.35 22.44-15.1c2.61-2.21 5.48-6.03 6.97-7.86 1.35-1.66 5.13 0.22 5.37 2.35 0.14 1.25-0.11 2.78-1.14 4.59 0 0-6.69 15.98-14.72 21.37l-10.97 4.82-7.95-10.17z" fill="#A56C43"/><path d="m120.06 54.53m-0.06 0.11c0.81 0 1.83 0.85 1.88 1.21 0.12 1.01-0.18 2.15-0.88 3.37-0.04 0.07-0.08 0.14-0.11 0.22-0.06 0.15-6.46 15.29-13.84 20.38l-9.38 4.12-5.64-7.21c4.77-3.03 17.14-10.97 20.8-14.08 2.34-1.99 4.8-5.08 6.43-7.13 0.26-0.33 0.5-0.63 0.72-0.9 0.01 0.02 0.02 0.02 0.02 0.02m0-2c-0.6 0-1.13 0.19-1.49 0.64-1.49 1.83-4.36 5.65-6.97 7.86-4.42 3.75-22.44 15.1-22.44 15.1l7.96 10.17 10.97-4.82c8.03-5.39 14.72-21.37 14.72-21.37 1.03-1.8 1.28-3.34 1.14-4.59-0.18-1.56-2.26-2.99-3.89-2.99z" fill="#875334"/></g><path d="m70.35 83.26c0 3.18-2.84 3.85-6.35 3.85s-6.35-0.73-6.35-3.85c0-3.28 2.84-5.3 6.35-5.3s6.35 1.95 6.35 5.3z" clip-path="url(#a)" fill="#473530"/><rect x="16.98" y="5.25" width="94.03" height="94.03" clip-path="url(#a)" fill="none"/><rect x="4" y="4" width="120" height="120" clip-path="url(#a)" fill="none"/><path d="m63.95 90.25h-9.08v9.59c0 4.34 3.7 7.86 8.26 7.86h1.65c4.56 0 8.26-3.52 8.26-7.86v-9.59h-9.09z" clip-path="url(#a)" fill="#E59900"/><g clip-path="url(#a)"><path d="m21.6 131.25v-9.17c0-7.44 4.34-13.31 12.9-17.46 7.54-3.65 18.01-5.67 29.5-5.68h0.11c21.01 0 42.29 7.95 42.29 23.14v9.17h-84.8z" fill="#F78C1F"/><path d="m64.11 100.44c20.27 0 40.79 7.43 40.79 21.64v7.67h-81.8v-7.67c0-6.82 4.05-12.24 12.05-16.11 7.34-3.55 17.58-5.52 28.85-5.53h0.11m0-3h-0.11c-21.88 0.03-43.9 7.31-43.9 24.64v10.67h87.8v-10.67c0-16.33-21.81-24.64-43.79-24.64z" fill="#DA6727"/></g><linearGradient id="c" x1="71.293" x2="71.293" y1="116.34" y2="135.5" gradientUnits="userSpaceOnUse"><stop stop-color="#C44E14" offset="0"/><stop stop-color="#C44E14" stop-opacity="0" offset="1"/></linearGradient><polygon points="53.24 97.28 100.78 131.61 42.45 131.78 41.8 103.15" clip-path="url(#a)" fill="url(#c)"/><g clip-path="url(#a)"><path d="m63.12 110.68c-4.3 0-7.81-3.56-7.81-7.94v-9.92h17.37v9.92c0 4.38-3.5 7.94-7.81 7.94h-1.75z" fill="#E49800"/><path d="m71.69 93.81v8.92c0 3.83-3.05 6.94-6.81 6.94h-1.76c-3.75 0-6.81-3.11-6.81-6.94v-8.92h15.38m2-2h-19.38v10.92c0 4.94 3.94 8.94 8.81 8.94h1.76c4.86 0 8.81-4 8.81-8.94v-10.92z" fill="#C78500"/></g><g clip-path="url(#a)"><linearGradient id="k" x1="34.032" x2="112" y1="80.624" y2="125.79" gradientUnits="userSpaceOnUse"><stop stop-color="#F78C1F" offset="0"/><stop stop-color="#F37F20" offset=".4936"/><stop stop-color="#ED6D23" offset="1"/></linearGradient><path d="m97.13 131.34-68.17-44.99c-0.15-0.09-0.19-0.27-0.11-0.41l6.5-11.4c0.07-0.12 0.21-0.14 0.25-0.14s0.08 0.01 0.12 0.03l65.92 31.22c7.81 4.15 12.74 12.28 12.8 21.19l0.04 4.79-17.35-0.29z" fill="url(#k)"/><path d="m36.64 75.31m-0.55 0.96 64.85 30.72c7.35 3.93 11.95 11.54 12.01 19.88l0.03 3.25-15.39-0.27-66.88-44.14 5.38-9.44m-0.49-3.36c-0.62 0-1.22 0.32-1.55 0.89l-6.49 11.39c-0.48 0.83-0.23 1.9 0.58 2.42l68.53 45.23 19.33 0.33-0.05-6.33c-0.07-9.45-5.32-18.1-13.66-22.54l-65.94-31.23c-0.24-0.11-0.5-0.16-0.75-0.16z" fill="#DA6727"/></g><linearGradient id="b" x1="53.415" x2="79.311" y1="82.759" y2="113.62" gradientUnits="userSpaceOnUse"><stop stop-color="#C44E14" stop-opacity="0" offset="0"/><stop stop-color="#C44E14" offset=".5036"/><stop stop-color="#C44E14" stop-opacity="0" offset="1"/></linearGradient><polygon points="91.46 99.28 68.94 114.62 39.69 95.22 60.4 84.47" clip-path="url(#a)" fill="url(#b)"/><g clip-path="url(#a)"><linearGradient id="j" x1="-815.16" x2="-737.2" y1="80.626" y2="125.8" gradientTransform="matrix(-1 0 0 1 -721.19 0)" gradientUnits="userSpaceOnUse"><stop stop-color="#F78C1F" offset="0"/><stop stop-color="#F37F20" offset=".4936"/><stop stop-color="#ED6D23" offset="1"/></linearGradient><path d="m13.55 126.85c0.07-8.91 5-17.04 12.87-21.22l65.88-31.2c0.02-0.01 0.06-0.02 0.1-0.02s0.18 0.01 0.26 0.15l6.49 11.38c0.09 0.15 0.05 0.33-0.09 0.41l-68.18 45-17.36 0.3 0.03-4.8z" fill="url(#j)"/><path d="m92.9 75.8m-0.99 0.47 5.38 9.44-66.88 44.14-15.39 0.27 0.03-3.25c0.06-8.34 4.66-15.95 12.01-19.88l64.85-30.72m0.49-3.36c-0.25 0-0.51 0.05-0.75 0.16l-65.94 31.23c-8.35 4.43-13.59 13.09-13.66 22.54l-0.05 6.33 19.33-0.33 68.53-45.23c0.81-0.52 1.06-1.59 0.58-2.42l-6.49-11.39c-0.33-0.57-0.93-0.89-1.55-0.89z" fill="#DA6727"/></g></svg>
