<svg enable-background="new 0 0 128 128" viewBox="0 0 128 128" xmlns="http://www.w3.org/2000/svg"><path d="m20.21 120.5c-2.13 0-3.64-1-5.89-2.51-0.67-1.55-5.82-14-6.32-29.47-0.49-15.12 3.52-36.32 25.35-51.42 18.76-12.98 35.49-19.55 49.74-19.55 10.18 0 16.54 3.45 19.59 5.1l0.12 0.06c5.49 2.98 9.52 7.79 10.59 9.15-3.85 5.06-44.84 58.56-67.75 74.51-15.36 10.69-21.54 14.13-25.43 14.13z" fill="#C48129"/><path d="m83.09 18.17c10.02 0 16.05 3.27 19.29 5.03l0.12 0.06c4.96 2.69 8.71 6.93 10.09 8.61-5.28 6.92-44.97 58.43-67.31 73.98-15.23 10.6-21.32 14.01-25.06 14.01-1.89 0-3.31-0.91-5.39-2.3-0.88-2.09-5.7-14.13-6.19-29.03-0.31-9.55 1.2-18.37 4.49-26.21 4.11-9.79 11.04-18.11 20.58-24.71 18.64-12.89 35.26-19.44 49.38-19.44m-0.01-1.25c-11.44 0-27.77 4.22-50.09 19.67-42.74 29.56-19.18 81.82-19.18 81.82 2.34 1.57 4.02 2.72 6.39 2.72 4.13 0 10.34-3.48 25.78-14.23 24.29-16.91 68.18-75.02 68.18-75.02s-4.47-6.12-11.08-9.7c-3.15-1.73-9.53-5.26-20-5.26z" fill="#C69C6D"/><polygon points="9.44 71.67 10.64 78.85 14.2 79.58 18.26 77.78 17.25 72.88 13.38 70.1" fill="#C3E1CD"/><path d="m66.87 17.61c0.05-0.65 0.02-1.34 0.34-1.9 0.68-1.18 2.37-0.96 3.67-0.6-0.51-0.9-1.05-1.88-0.92-2.9s1.29-1.87 2.11-1.27c0.78 0.57 0.79 2.04 1.7 2.3 0.69 0.19 1.26-0.5 1.67-1.09s1.09-1.22 1.73-0.87c0.41 0.22 0.58 0.78 0.49 1.25s-0.36 0.86-0.63 1.24c0.45-0.13 0.92-0.26 1.38-0.14 0.46 0.13 0.87 0.61 0.76 1.08-0.13 0.54-0.78 0.68-1.31 0.79s-1.16 0.48-1.03 1.03c0.14 0.61 1.06 0.72 1.22 1.32 0.17 0.62-0.61 1.02-1.22 0.99s-1.31-0.22-1.76 0.18c-0.71 0.64-0.08 2-0.62 2.8-0.4 0.58-1.22 0.59-1.91 0.46-0.69-0.14-1.43-0.35-2.05-0.03-0.49 0.26-0.77 0.8-1.12 1.25-0.87 1.12-4.43 2.59-4.79 0.23-0.31-2.01 2.12-4.01 2.29-6.12z" fill="#73BD0E"/><path d="m10.87 104.63s-14.34-17.41 2.08-28.38 25.15 6.52 25.15 6.52l-26.87 22.36" fill="#D12328"/><path d="m51.02 49.56s-14.34-17.41 2.08-28.38 25.15 6.52 25.15 6.52l-26.86 22.35" fill="#D12328"/><path d="m78.19 25.5c-4.28-2.8-9.32-4.25-14.29-3.93-2.94 0.19-6.2 0.99-8.46 2.91-0.2 0.12-0.39 0.24-0.57 0.36-1.49 0.88-2.69 2.19-3.51 3.79-2.73 3.52-3.51 8.42-1.94 12.69-0.02 1.44 0.16 2.9 0.56 4.36-0.5 0.52-0.41 1.3-0.03 1.8l-2.38 1.61c-1.3 0.88-0.07 3.07 1.28 2.23 1.14-0.71 2.29-1.42 3.43-2.14 0.03-0.02 0.07-0.03 0.1-0.06 0.03-0.02 0.06-0.04 0.09-0.07 0.12-0.07 0.24-0.15 0.36-0.22 0.25 0.05 0.52 0.01 0.79-0.17 4.79-3.09 9.57-6.17 14.36-9.26 0.37-0.24 0.53-0.58 0.55-0.94 2.53-1.95 5.05-3.9 7.58-5.86 0.18-0.14 0.34-0.34 0.45-0.57 0.5-0.36 0.78-1.07 0.36-1.68-0.02-0.03-0.04-0.05-0.06-0.08 0.02-0.03 0.05-0.05 0.07-0.08 0.91 0.15 1.44-1 1.13-1.83-0.02-0.2-0.08-0.4-0.19-0.58 0.94-0.23 1.41-1.57 0.32-2.28z" fill="#EF4549"/><path d="m16.1 77.92s-14.34-17.41 2.08-28.38 25.15 6.52 25.15 6.52l-26.87 22.35" fill="#D12328"/><path d="m42.96 55.37c-0.39-0.46-0.8-0.9-1.23-1.31-2.53-3.45-6.36-5.62-10.52-5.92-0.15-0.01-0.29 0.01-0.42 0.05-3.92-0.52-7.98 0.41-11.35 3.02-4.12 3.19-6.25 8.04-6.32 13.04-0.18 1.64-0.15 3.32 0.1 4.99 0.3 2.94 1.19 5.84 2.64 8.49 0.42 0.76 1.37 0.82 1.94 0.29 0.5-0.47 0.82-1.05 0.99-1.67 0.21 0.01 0.43-0.05 0.64-0.19 0.14-0.09 0.27-0.18 0.41-0.28 0.64-0.34 1.31-0.76 1.89-1.28 0.82-0.56 1.63-1.11 2.45-1.67 0.4-0.27 0.59-0.72 0.57-1.16 0.83-0.58 1.63-1.2 2.4-1.85 1.5-1.01 2.99-2.01 4.49-3.02 1.83-1.23 3.88-2.33 5.51-3.84 0.43-0.4 0.81-0.86 1.09-1.38 0.76-0.38 1.42-0.91 1.98-1.62 0.1-0.12 0.16-0.25 0.21-0.37 0.11-0.11 0.23-0.22 0.34-0.33 0.25-0.24 0.35-0.52 0.35-0.8 0.87 0.64 2.12-0.23 1.83-1.38 0.43-0.42 0.57-1.14 0.01-1.81zm-3.1 1.79c-0.7-0.1-1.4-0.2-2.1-0.3-0.2-0.03-0.37-0.01-0.51 0.04-0.44-0.3-0.96-0.48-1.53-0.5h-0.05c-0.21-0.46-0.63-0.81-1.1-0.8 0.08-0.42 0.14-0.84 0.2-1.26 0.16-1.23-1.12-1.96-1.89-1.46-0.64-0.43-1.72-0.27-1.94 0.65-0.17 0.71-0.34 1.42-0.49 2.14-0.03-0.31-0.05-0.63-0.08-0.94-0.14-1.64-2.38-1.72-2.46-0.06-0.02 0.48-0.05 0.97-0.07 1.45-0.36-1.28-2.52-1-2.38 0.4 0.03 0.27 0.05 0.54 0.08 0.81-0.71-0.81-2.27-0.64-2.15 0.71 0 0.05 0.01 0.11 0.02 0.16-0.04-0.04-0.09-0.07-0.14-0.1l-0.02-0.02c-0.91-1.06-2.21 0.07-2.03 1.21 0.21 1.31 0.54 2.59 0.99 3.81-0.02 0.17-0.01 0.34 0.04 0.51-0.56 0.55-1.11 1.11-1.67 1.66-0.67-0.55-1.37-1.06-2.1-1.53-1.04-0.67-1.99 0.42-1.74 1.42-0.07 0.11-0.14 0.22-0.18 0.34-0.18-0.09-0.36-0.13-0.52-0.12 0.05-1.65 0.28-3.3 0.71-4.91 0.05-0.18 0.06-0.34 0.04-0.5 0.99-2.25 2.53-4.25 4.6-5.77 4.38-3.21 9.96-3.42 14.66-1.13 1.57 1.11 2.96 2.51 4.1 4.15-0.1-0.02-0.19-0.05-0.29-0.06z" fill="#EF4549"/><path d="m40.54 56.43c-5.9-6.15-15.38-6.64-21.32-0.88-6.21 6.01-6.03 16.45 0.04 22.92 0.85 0.9 2.02 0.11 2.06-0.86 1.02-0.73 1.88-1.65 2.54-2.71 2.22-1.87 4.33-3.86 6.31-6 1.39-1.51 2.7-3.1 3.98-4.71 0.1-0.13 0.2-0.26 0.31-0.39 0.54 0.05 1.09-0.21 1.25-0.88 0.05-0.22 0.1-0.44 0.15-0.65 0.41-0.08 0.78-0.35 0.88-0.86v-0.02c0.26-0.21 0.52-0.4 0.81-0.57 0.56 0.24 1.23-0.1 1.51-0.65 0.65-0.18 1.06-0.96 0.82-1.63 0.88-0.16 1.51-1.22 0.66-2.11zm-8.5-0.24c-0.1-0.04-0.21-0.07-0.32-0.08-0.03-0.1-0.08-0.2-0.13-0.29 0.19-0.01 0.37-0.02 0.56-0.02-0.03 0.13-0.07 0.26-0.11 0.39z" fill="#EF4549"/><path d="m11.93 68.01c-0.14-1.66-0.21-3.55 0.9-4.7 1.03-1.07 2.84-1.2 3.57-2.51 0.62-1.11 0.2-2.63 0.77-3.77 0.74-1.48 2.67-1.62 4.07-2.41 0.83-0.46 1.5-1.17 2.15-1.87 1.16-1.24 2.33-2.49 3.49-3.73 0.66-0.7 1.34-1.44 1.64-2.38 0.33-1 0.19-2.1 0.22-3.16 0.07-2.46 1.06-4.85 2.73-6.54-0.28-1 0.23-2.15 1.13-2.55 0.4 0.46 1.08-0.08 1.4-0.58 0.91-1.41 1.82-2.82 2.74-4.23 0.41 0.45 0.82 0.9 1.24 1.36 0.25-0.77 0.5-1.56 1-2.18 0.49-0.62 1.28-1.06 2.05-0.89 0.78 0.17 1.41 1.09 1.12 1.84 0.62-0.02 1.13-0.45 1.59-0.86s0.94-0.87 1.55-0.96 1.35 0.38 1.31 1.02c-0.05 0.79-1.12 1.04-1.4 1.78-0.27 0.69 0.31 1.49 0.97 1.83s1.42 0.4 2.08 0.73c0.67 0.32 1.27 1.08 1.04 1.8-0.6 0.04-1.21 0.09-1.75 0.36s-0.98 0.82-0.96 1.44c0.04 1.41 2.03 1.8 2.75 3.02 0.8 1.35-0.25 3.01-1.38 3.98-1.13 0.98-2.53 2.01-2.56 3.57-0.02 1.23 0.86 2.43 0.59 3.62-0.19 0.85-0.94 1.42-1.72 1.71s-1.63 0.37-2.43 0.61c-1.9 0.57-3.48 2.11-4.15 4.05-0.81 2.34-0.49 5.38-2.39 6.85-1.33 1.03-3.26 0.82-4.7 1.67-2.47 1.46-2.95 5.66-5.75 6.25-1.1 0.23-2.38-0.18-3.31 0.46-0.81 0.55-1.02 1.68-1.52 2.54-0.74 1.28-2.26 2-3.71 1.76-3.89-0.65-4.13-5.87-4.37-8.93z" fill="#73BD0E"/><g fill="none" stroke="#F3B100" stroke-linecap="round" stroke-linejoin="round" stroke-miterlimit="10"><path d="m38.52 75.48c2.29 6.67-1.34 13.97-8.11 16.29s-12.65-1.92-14.95-8.59c-2.29-6.67-0.13-13.23 6.64-15.56s14.12 1.19 16.42 7.86z" stroke-width="1.5671"/><path d="m62.83 37.83c2.29 6.67-1.34 13.97-8.11 16.29s-12.65-1.92-14.95-8.59c-2.29-6.67-0.13-13.23 6.64-15.56s14.13 1.19 16.42 7.86z" stroke-width="1.5671"/><path d="m41.41 63.25c2.29 6.67-1.34 13.97-8.11 16.29s-14.12-1.19-16.41-7.86 3.3-13.73 10.07-16.06 12.15 0.96 14.45 7.63z" stroke-width="1.2536"/></g><linearGradient id="e" x1="28.74" x2="36.933" y1="49.918" y2="49.918" gradientTransform="matrix(.9456 -.3252 .3252 .9456 -23.619 25.388)" gradientUnits="userSpaceOnUse"><stop stop-color="#FFFDF2" offset="0"/><stop stop-color="#BAE0C2" offset="1"/></linearGradient><polygon points="19.49 58.68 20.69 65.86 24.25 66.59 28.31 64.79 27.3 59.89 23.43 57.11" fill="url(#e)"/><path d="m14.45 104.8c-1.33-1.2-1.74-3.54-0.56-4.82-1.12-0.67-1.4-2.49-0.52-3.42-1.12-0.24-2.2-0.87-2.87-1.85-0.66-0.98-0.85-2.34-0.32-3.37s1.82-1.6 2.88-1.15c-0.62-1.27 0.21-3.01 1.54-3.21-0.64 0.29-1.45-0.24-1.66-0.95s0.07-1.48 0.53-2.01c0.46-0.54 1.09-0.88 1.7-1.22-1.32-0.04-2.14-1.86-1.62-3.11s1.91-1.86 3.23-1.89c0.4-1.74 2.28-2.91 3.98-2.46-0.31-1.17 0.13-2.5 1.07-3.17 0.93-0.68 2.29-0.67 3.26 0.03 0.31-1.04 1.26-1.81 2.31-1.88s2.13 0.56 2.63 1.54c0.63-1.57 1.78-3.04 3.38-3.43s3.6 0.69 3.8 2.42c1.2-0.17 2.34 0.87 2.87 2.03 0.53 1.17 0.65 2.47 1.03 3.7 0.3 1 0.77 1.95 1.04 2.96s0.33 2.14-0.17 3.03c-0.36 0.64-0.97 1.09-1.32 1.73-1.15 2.09 0.82 5.16-0.51 7.12-0.96 1.4-3.12 1.4-4.11 2.77-0.66 0.92-0.61 2.19-0.93 3.29-0.52 1.8-1.99 3.08-3.38 4.26-0.95 0.8-1.98 1.63-3.21 1.68-1.06 0.05-2.11-0.49-3.16-0.36-0.62 0.07-1.18 0.37-1.73 0.67-1.45 0.78-3.08 2.05-4.72 2.32-0.69 0.11-1.54 0.01-2.23-0.13-0.62-0.16-1.77-1.13-2.23-1.12z" fill="#653700"/><path d="m8.36 120.62c-1.2-1.35-1.36-3.71-0.05-4.84-1.05-0.79-1.13-2.63-0.16-3.45-1.09-0.37-2.1-1.12-2.66-2.17s-0.6-2.41 0.04-3.37 1.98-1.37 3-0.81c-0.49-1.33 0.53-2.95 1.88-3-0.67 0.21-1.42-0.41-1.55-1.13s0.23-1.46 0.74-1.93c0.52-0.48 1.18-0.75 1.83-1.01-1.31-0.2-1.94-2.09-1.28-3.27 0.65-1.17 2.11-1.62 3.42-1.5 0.59-1.68 2.59-2.61 4.23-1.97-0.19-1.2 0.4-2.46 1.4-3.02s2.36-0.4 3.25 0.41c0.42-0.99 1.45-1.64 2.5-1.6s2.06 0.8 2.46 1.83c0.8-1.48 2.1-2.8 3.74-3 1.64-0.21 3.51 1.1 3.53 2.83 1.22-0.03 2.24 1.13 2.65 2.34 0.41 1.22 0.39 2.52 0.63 3.78 0.2 1.03 0.56 2.02 0.72 3.05s0.1 2.16-0.49 2.98c-0.43 0.59-1.08 0.96-1.5 1.56-1.37 1.93 0.27 5.21-1.27 7-1.1 1.28-3.26 1.02-4.39 2.27-0.75 0.83-0.84 2.09-1.28 3.15-0.71 1.73-2.31 2.82-3.83 3.82-1.03 0.68-2.15 1.38-3.38 1.29-1.06-0.07-2.05-0.73-3.11-0.73-0.62 0-1.22 0.23-1.79 0.46-1.53 0.6-3.29 1.68-4.96 1.75-0.7 0.03-1.54-0.17-2.21-0.39-0.61-0.19-1.65-1.28-2.11-1.33z" fill="#653700"/><linearGradient id="d" x1="11.097" x2="19.29" y1="82.868" y2="82.868" gradientTransform="matrix(.9456 -.3252 .3252 .9456 -23.619 25.388)" gradientUnits="userSpaceOnUse"><stop stop-color="#FFFDF2" offset="0"/><stop stop-color="#BAE0C2" offset="1"/></linearGradient><polygon points="13.52 95.57 14.73 102.76 18.29 103.49 22.34 101.68 21.34 96.79 17.46 94.01" fill="url(#d)"/><path d="m17.38 120.32s-11.91-14.46 1.73-23.58 20.89 5.41 20.89 5.41l-22.32 18.57" fill="#D12328"/><path d="m40.29 102.52c-5.01-4.3-12.5-4.89-17.62-0.92-5.22 4.05-6.71 11.8-3.94 18.04 0.6 1.34 2.31 0.49 2.22-0.77 0.27 0.04 0.55-0.01 0.82-0.19 0.89-0.19 1.58-0.87 2.12-1.66 0.6 0.43 1.39 0.59 2.29 0.22 1.18-0.49 1.72-1.82 1.34-3.1-0.07-0.22-0.15-0.41-0.26-0.58 0.44-0.13 0.79-0.56 0.88-1.06 0.05-0.06 0.09-0.12 0.13-0.19 0.51 0.03 1.01-0.24 1.16-0.81 0.14 0.01 0.3-0.01 0.46-0.08 1.32-0.48 2.77-1.17 3.43-2.45 0.83-0.6 1.67-1.2 2.5-1.8 0.24-0.17 0.4-0.43 0.49-0.71 0.17-0.01 0.34-0.03 0.52-0.04 1.55-0.12 1.58-2.44-0.02-2.56l-4.1-0.31c-0.31-0.02-0.56 0.07-0.76 0.24-1.14-0.66-2.55-0.5-3.89-0.01-0.62 0.04-1.21 0.3-1.67 0.78-0.01-0.01-0.02-0.01-0.02-0.02-0.66-0.53-1.6 0.03-1.79 0.74-0.1 0.36-0.19 0.72-0.29 1.09-0.16 0.63 0.09 1.1 0.5 1.36 0.05 0.23 0.09 0.46 0.14 0.69-0.38 0.06-0.72 0.29-0.88 0.68-0.13-0.09-0.25-0.17-0.38-0.26-0.86-0.58-1.63 0.08-1.75 0.88-0.38 0.47-0.46 1.15 0.13 1.63 0.06 0.05 0.13 0.1 0.19 0.15 0.05 0.18 0.14 0.35 0.27 0.5 0.12 0.14 0.35 0.44 0.62 0.8l-0.3 0.12c-0.03-0.01-0.05-0.02-0.08-0.03-0.97-0.25-1.94-0.5-2.91-0.74h-0.03c0.28-3.38 1.84-6.62 4.47-8.58 4.13-3.07 10.27-2.73 14.31 0.74 1.23 1.05 2.94-0.73 1.7-1.79z" fill="#EF4549"/><path d="m20.61 69.3c-1.7-0.31-3.01-2.21-2.75-3.96 0.26-1.76 2.06-3.04 3.75-2.68 0.85 0.18 1.84 0.68 2.48 0.11 0.84-0.75-0.01-2.15-0.36-3.28-0.38-1.27 0.05-2.74 1.04-3.52s2.48-0.83 3.56-0.11c-0.55-0.32-0.28-1.26 0.28-1.53s1.22-0.15 1.82-0.26 1.25-0.66 1.05-1.28c-0.18-0.57-0.87-0.71-1.38-1-1.28-0.72-1.4-2.78-0.48-3.89s2.51-1.39 3.93-1.16c-0.78-2.3 0.86-5.06 3.16-5.3 1.42-0.15 3.01 0.5 4.23-0.26 1.08-0.67 1.35-2.14 1.81-3.37 0.45-1.23 1.59-2.5 2.8-2.01 0.6 0.24 1.01 0.86 1.6 1.1 0.88 0.36 1.85-0.23 2.36-1.03s0.68-1.77 1.01-2.67c0.72-1.95 2.21-3.56 4.05-4.38 0.44-0.2 1.02-0.32 1.36 0.06 0.2 0.22 0.23 0.54 0.37 0.81 0.37 0.75 1.41 0.85 2.12 0.49s1.19-1.05 1.76-1.61 1.34-1.04 2.12-0.83c1.51 0.39 1.56 2.63 2.51 3.93 0.79 1.08 2.2 1.45 3.09 2.44 1.1 1.22 1.15 3.19 0.43 4.63s-2.06 2.44-3.47 3.13c-1.41 0.7-2.93 1.15-4.35 1.82-3.63 1.71-6.56 4.89-8.07 8.73-0.73 1.86-1.21 3.98-2.71 5.21-1.34 1.1-3.17 1.22-4.83 1.67-3.84 1.04-7.06 4.09-8.41 7.97-0.58 1.67-0.92 3.61-2.31 4.62-1.35 0.98-3.19 0.71-4.84 0.98-2.12 0.34-4.13 2.87-6.33 2.39-2.55-0.56-4.04-3.81-2.4-5.96z" fill="#653700"/><path d="m36.78 70.74s-11.91-14.46 1.73-23.58 20.89 5.41 20.89 5.41l-22.32 18.58" fill="#D12328"/><linearGradient id="c" x1="66.996" x2="71.214" y1="30.188" y2="93.259" gradientTransform="matrix(.9456 -.3252 .3252 .9456 -23.619 25.388)" gradientUnits="userSpaceOnUse"><stop stop-color="#FFE35E" offset=".0049454"/><stop stop-color="#FEE15C" offset=".3663"/><stop stop-color="#FCDC54" offset=".5532"/><stop stop-color="#F9D247" offset=".7002"/><stop stop-color="#F3C534" offset=".8264"/><stop stop-color="#EDB31B" offset=".938"/><stop stop-color="#E8A70A" offset="1"/></linearGradient><path d="m22.78 121.5c-1.23 0-2.81-0.53-3.81-0.92 1.09-1.61 3.04-5.72 4.83-15.92l0.23-1.33c2.66-15.29 8.9-51.11 31.25-69.05 12.08-9.69 23.73-14.61 34.64-14.61 5.55 0 10.72 1.27 15.37 3.78 9.75 5.25 18.92 16.66 17.42 30.29-0.16 1.43-0.89 2.73-2.01 3.56-5.96 4.43-23.19 16.85-54.51 36.34-12.45 7.75-22.6 14.54-30.01 19.51-6.89 4.61-12.33 8.25-13.31 8.35h-0.09z" fill="url(#c)"/><path d="m89.92 18.89v1.57c5.42 0 10.46 1.24 15 3.68 9.52 5.13 18.48 16.24 17.02 29.52-0.13 1.21-0.75 2.31-1.7 3.02-5.95 4.43-23.16 16.82-54.46 36.3-12.46 7.75-22.62 14.55-30.03 19.52-6.3 4.22-11.76 7.87-12.97 8.22-0.77 0-1.76-0.25-2.63-0.54 1.22-2.18 2.88-6.58 4.42-15.38l0.23-1.33c2.65-15.21 8.85-50.82 30.97-68.57 11.94-9.58 23.42-14.44 34.15-14.44v-1.57m0 0c-9.43 0-21.27 3.66-35.13 14.78-23.26 18.67-29.22 56.36-31.76 70.85s-5.34 16.36-5.34 16.36 2.97 1.39 5.09 1.39h0.12c2.13-0.05 18.05-12 43.72-27.97 31.73-19.74 49.11-32.31 54.57-36.37 1.29-0.96 2.14-2.44 2.32-4.1 1.58-14.4-8.38-25.97-17.83-31.07-4.08-2.18-9.36-3.87-15.76-3.87z" fill="#D49913"/><linearGradient id="b" x1="52.267" x2="52.749" y1="30.941" y2="38.156" gradientTransform="matrix(.9456 -.3252 .3252 .9456 -23.619 25.388)" gradientUnits="userSpaceOnUse"><stop stop-color="#FFFDF2" offset="0"/><stop stop-color="#BAE0C2" offset="1"/></linearGradient><polygon points="34.02 38.42 34.98 44.11 37.79 44.68 41 43.26 40.21 39.39 37.14 37.19" fill="url(#b)"/><linearGradient id="a" x1="497.89" x2="498.36" y1="263.54" y2="270.57" gradientTransform="matrix(.5261 -.8504 .8504 .5261 -410.48 303.82)" gradientUnits="userSpaceOnUse"><stop stop-color="#FFFDF2" offset="0"/><stop stop-color="#BAE0C2" offset="1"/></linearGradient><polygon points="74.67 20.77 78.84 24.66 81.31 23.26 82.86 20 79.91 17.45 76.27 17.73" fill="url(#a)"/><path d="m52.3 33.83c0.77-0.22 1.63-0.17 2.31-0.61 1.15-0.74 1.28-2.53 2.36-3.38 0.65-0.51 1.52-0.59 2.32-0.78 1.01-0.25 1.96-0.72 2.89-1.18 3.94-1.96 7.88-3.91 11.82-5.87 0.73-0.36 1.54-0.73 2.33-0.47 0.23 0.08 0.45 0.2 0.68 0.25 0.57 0.1 1.09-0.32 1.42-0.8s0.57-1.04 0.99-1.43c0.65-0.6 1.72-0.66 2.46-0.13s1.09 1.6 0.8 2.46c1.4-0.27 2.91 0.02 4.15 0.82-0.4 0.29-0.79 0.58-1.19 0.87 0.45 0.7 0.89 1.4 1.34 2.1-0.9-0.06-1.81-0.13-2.71-0.19 0 0.63-0.01 1.25-0.01 1.88-1.96-1.04-4.23-1.39-6.34-0.98l0.24 1.05c-0.64-0.27-1.24 0.59-1.07 1.28s0.77 1.17 1.34 1.59c-0.49-0.51-1.36-0.28-1.82 0.23-0.47 0.51-0.7 1.2-1.09 1.77s-1.09 1.04-1.74 0.77c0.47 0.64-0.06 1.62-0.79 1.82s-1.51-0.12-2.2-0.48c-0.97-0.51-1.95-1.13-3.03-1.18s-2.26 0.74-2.19 1.86c0.02 0.35 0.16 0.72 0.01 1.03-0.23 0.49-0.95 0.39-1.41 0.1s-0.93-0.7-1.45-0.63c-0.73 0.1-0.99 1.04-1.58 1.49-0.88 0.67-2.17 0.04-3.02-0.74-0.84-0.78-1.67-1.78-2.78-1.9-2.43-0.27-3.07 3.86-5.17 3.36-2.4-0.57 1.11-3.69 2.13-3.98z" fill="#73BD0E"/><path d="m39.54 90.69s-5.26 0.49-1.77 3.23c3.48 2.74 3.77-1.47 3.77-1.47s0.26-1.5-2-1.76z" fill="#F2C957"/><path d="m65.23 63.26s-2.41 2.6-0.06 4c2.92 1.75 3.57-1.23 3.57-1.23s-0.22-5.67-3.51-2.77z" fill="#E8A70A"/><path d="m51.19 66.8c0.25 0.72-0.5 1.47-1.18 1.7s-1.44-0.16-1.68-0.88c-0.25-0.72-0.39-2.36 0.61-2.7 0.9-0.31 2.01 1.16 2.25 1.88z" opacity=".1"/><path d="m92.56 57.03c-0.12 0.84-1.26 1.15-2.08 1-0.81-0.15-1.38-0.96-1.25-1.81 0.12-0.84 0.82-2.53 2.02-2.3 1.08 0.2 1.44 2.26 1.31 3.11z" fill="#F2C957"/><path d="m52.53 84.03c-0.66-0.04-1.04-0.97-1.03-1.67 0.02-0.69 0.57-1.22 1.23-1.18s2.04 0.51 2.02 1.52c-0.02 0.93-1.56 1.37-2.22 1.33z" opacity=".1"/><path d="m51.63 53.7c0.06 0.69-0.78 1.16-1.44 1.2s-1.24-0.49-1.3-1.19c-0.06-0.69 0.19-2.16 1.16-2.22 0.88-0.04 1.52 1.52 1.58 2.21z" fill="#F2C957"/><path d="m91.4 42.66c0.34 1-1.75 1.84-2.72 2.96-0.67 0.77-1.99-0.22-2.34-1.22-0.34-1 0.14-2.8 1.09-3.13 0.95-0.32 3.63 0.39 3.97 1.39z" fill="#E8A70A"/><ellipse transform="matrix(.9456 -.3252 .3252 .9456 -18.067 30.805)" cx="83.11" cy="69.45" rx="1.82" ry="1.92" fill="#E8A70A"/><path d="m74.22 44.09c0.41 1.19 0.67 2.16-0.45 2.55s-2.37-0.26-2.77-1.45 0.3-3.53 1.42-3.92 1.39 1.63 1.8 2.82z" opacity=".1"/><g opacity=".2"><path d="m78.24 14.17m0.03 2.87m-7.97 0.09m3.3 0.11c0.01 0.06 0.02 0.12 0.04 0.18 0.36 1.6 1.56 2.41 2.04 2.73 0.55 0.37 1.2 0.57 1.86 0.57 0.12 0 0.25-0.01 0.37-0.02 1.78-0.2 3.54-0.3 5.23-0.3 5.29 0 10.02 0.94 14.47 2.87 0.15 0.06 0.3 0.12 0.45 0.16 2.14 0.58 4.18 1.39 6.06 2.41 9 4.85 17.47 15.31 16.1 27.77-0.08 0.73-0.44 1.38-1 1.8-5.93 4.41-23.09 16.78-54.34 36.22-12.49 7.77-22.66 14.58-30.08 19.55-5.48 3.67-10.67 7.15-12.29 7.9-0.63-0.07-1.51-0.33-2.27-0.61-0.34-0.33-0.75-0.59-1.21-0.75-0.01 0-0.07-0.03-0.08-0.03-0.05-0.02-0.1-0.04-0.15-0.05-0.37-0.14-0.76-0.21-1.16-0.21-0.41 0-0.83 0.08-1.23 0.24-0.49 0.19-0.97 0.41-1.43 0.63-0.82 0.38-1.85 0.85-2.41 0.87-0.1 0-0.37-0.03-0.76-0.14-0.1-0.07-0.23-0.17-0.32-0.24-0.23-0.17-0.46-0.36-0.71-0.53v-0.03c0.61-0.64 0.94-1.51 0.91-2.4-0.02-0.63-0.22-1.23-0.56-1.74 0.36-0.66 0.49-1.44 0.35-2.21-0.22-1.14-1.01-2.09-2.09-2.5 0.49-0.12 0.95-0.35 1.35-0.69 0.87-0.74 1.29-1.86 1.15-2.96 0.62-0.77 0.87-1.79 0.66-2.77-0.09-0.41-0.17-0.83-0.26-1.26-0.02-0.11-0.05-0.23-0.08-0.34-0.06-0.44-0.21-0.86-0.44-1.24-2.2-3.67-5.31-10.69-1.45-16.55 0.32-0.49 0.51-1.05 0.54-1.63 0.33-5.29 1.3-10.35 2.87-15.03 0.17-0.51 0.22-1.05 0.13-1.58-0.83-5.3 1.2-9.51 6.22-12.86 0.5-0.33 1.02-0.65 1.66-1 0.37-0.2 0.69-0.48 0.96-0.8 2.69-3.3 5.9-6.39 9.53-9.18 0.33-0.25 0.61-0.57 0.82-0.93 0.26-0.43 0.54-0.8 0.83-1.1 0.49-0.5 0.81-1.13 0.92-1.8 0.79-0.39 1.51-1.02 2.04-1.86l0.88-1.37c0.1 0.01 0.19 0.01 0.29 0.01 0.24 0 0.47-0.02 0.71-0.08 0.87-0.19 1.62-0.72 2.09-1.45 0.43 0.19 0.89 0.3 1.37 0.3h0.1c1.64-0.05 2.82-0.93 3.48-1.51 0.2 0.04 0.4 0.06 0.6 0.06 0.55 0 1.11-0.14 1.62-0.42l0.17-0.09 0.24-0.14c0.59-0.33 1.07-0.82 1.37-1.43 1.03-2.07 2.8-3.94 5.23-5.57 3.03-2.02 5.91-3.05 8.56-3.05 0.83 0 1.66 0.1 2.47 0.3 0.27 0.07 0.54 0.1 0.81 0.1 0.63 0 1.25-0.18 1.79-0.52 0.77-0.49 1.31-1.27 1.48-2.17v0.02c0.02-0.07 0.04-0.16 0.06-0.27 0.25 0.06 0.51 0.09 0.76 0.09 1.01 0 1.99-0.46 2.63-1.29 0.02-0.05 0.03-0.06 0.05-0.08m-31.98 13.72m-33.18 77.61m2.33 9.52m60.74-107.21c-0.7 0-1.41 0.69-1.51 1.47-0.13 1.02 0.41 2 0.92 2.9-0.57-0.16-1.21-0.29-1.8-0.29-0.78 0-1.48 0.22-1.86 0.88-0.32 0.55-0.29 1.25-0.34 1.9-0.01 0.12-0.05 0.24-0.07 0.36-1.02-0.26-2.12-0.4-3.27-0.4-3.03 0-6.5 0.99-10.42 3.61-3.15 2.1-5.16 4.44-6.36 6.85-0.14 0.08-0.28 0.16-0.42 0.23-0.23-0.24-0.57-0.39-0.9-0.39-0.05 0-0.1 0-0.15 0.01-0.61 0.09-1.09 0.54-1.55 0.96s-0.97 0.85-1.59 0.86c0.29-0.75-0.35-1.68-1.12-1.84-0.11-0.02-0.23-0.04-0.34-0.04-0.66 0-1.29 0.39-1.71 0.93-0.49 0.62-0.75 1.41-1 2.18-0.41-0.45-0.82-0.9-1.24-1.36-0.91 1.41-1.82 2.82-2.74 4.23-0.24 0.37-0.66 0.75-1.03 0.75-0.14 0-0.26-0.05-0.37-0.18-0.9 0.4-1.41 1.55-1.13 2.55-0.51 0.51-0.94 1.1-1.32 1.72-3.97 3.05-7.3 6.32-10.08 9.71-0.62 0.34-1.24 0.72-1.88 1.14-7.2 4.82-8.49 10.87-7.66 16.15-1.8 5.35-2.71 10.72-3.04 15.88-4.87 7.38-1.23 15.76 1.37 20.1 0 0.06-0.01 0.12 0 0.18 0.02 0.11 0.06 0.22 0.11 0.33 0.09 0.44 0.18 0.88 0.27 1.31-0.67 0.59-1.03 1.61-0.7 2.5-0.31-0.18-0.66-0.26-1.01-0.26-0.77 0-1.55 0.4-1.99 1.06-0.64 0.96-0.6 2.32-0.04 3.37s1.57 1.8 2.66 2.17c-0.98 0.82-0.89 2.66 0.16 3.45-1.31 1.13-1.15 3.49 0.05 4.84 0.46 0.05 1.5 1.14 2.1 1.34 0.62 0.21 1.39 0.39 2.06 0.39h0.15c1.66-0.07 3.41-1.13 4.93-1.73l0.08 0.11 0.07-0.06c0.04 0.02 0.09 0.03 0.13 0.05-0.13 0.13-0.19 0.18-0.19 0.18s2.97 1.39 5.09 1.39h0.12c2.13-0.05 18.05-12 43.72-27.97 31.73-19.74 49.11-32.31 54.57-36.37 1.29-0.96 2.14-2.44 2.32-4.1 1.58-14.4-8.38-25.97-17.83-31.07-1.97-1.06-4.23-2-6.77-2.69-3.6-1.56-8.79-3.14-15.8-3.14-1.75 0-3.62 0.1-5.6 0.32-0.28-0.19-0.58-0.37-0.65-0.7-0.12-0.55 0.5-0.92 1.03-1.03s1.18-0.25 1.31-0.79c0.11-0.47-0.3-0.96-0.76-1.08-0.13-0.04-0.26-0.05-0.4-0.05-0.33 0-0.66 0.09-0.99 0.19 0.27-0.38 0.54-0.78 0.62-1.24 0.08-0.47-0.08-1.03-0.49-1.25-0.13-0.07-0.25-0.1-0.38-0.1-0.52 0-1.02 0.5-1.35 0.97-0.36 0.52-0.85 1.12-1.43 1.12-0.08 0-0.16-0.01-0.24-0.03-0.92-0.26-0.92-1.73-1.7-2.3-0.2-0.12-0.41-0.18-0.62-0.18z" fill="#424242"/></g></svg>
