<?xml version="1.0" encoding="UTF-8" standalone="no"?>
<svg
   xmlns:dc="http://purl.org/dc/elements/1.1/"
   xmlns:cc="http://creativecommons.org/ns#"
   xmlns:rdf="http://www.w3.org/1999/02/22-rdf-syntax-ns#"
   xmlns:svg="http://www.w3.org/2000/svg"
   xmlns="http://www.w3.org/2000/svg"
   xmlns:sodipodi="http://sodipodi.sourceforge.net/DTD/sodipodi-0.dtd"
   xmlns:inkscape="http://www.inkscape.org/namespaces/inkscape"
   width="128"
   height="128"
   style="enable-background:new 0 0 128 128;"
   version="1.1"
   id="svg17"
   sodipodi:docname="emoji_u1f9d5.svg"
   inkscape:version="0.92+devel unknown">
  <metadata
     id="metadata23">
    <rdf:RDF>
      <cc:Work
         rdf:about="">
        <dc:format>image/svg+xml</dc:format>
        <dc:type
           rdf:resource="http://purl.org/dc/dcmitype/StillImage" />
      </cc:Work>
    </rdf:RDF>
  </metadata>
  <defs
     id="defs21" />
  <sodipodi:namedview
     pagecolor="#ffffff"
     bordercolor="#666666"
     inkscape:document-rotation="0"
     borderopacity="1"
     objecttolerance="10"
     gridtolerance="10"
     guidetolerance="10"
     inkscape:pageopacity="0"
     inkscape:pageshadow="2"
     inkscape:window-width="1349"
     inkscape:window-height="940"
     id="namedview19"
     showgrid="false"
     inkscape:object-paths="true"
     inkscape:snap-page="true"
     inkscape:zoom="3.8504174"
     inkscape:cx="112.46074"
     inkscape:cy="80.743006"
     inkscape:window-x="331"
     inkscape:window-y="154"
     inkscape:window-maximized="0"
     inkscape:current-layer="svg17" />
  <path
     style="fill:#60416d;fill-opacity:1"
     d="M 64 53.560547 L 62.980469 53.580078 L 9.5 55.800781 C 9.5 55.800781 9.2301562 81.580625 12.660156 104.64062 C 14.133844 114.5519 14.927087 122.60526 17.673828 128 L 110.35547 128 C 113.0824 122.59579 113.87023 114.52448 115.33984 104.64062 C 118.76984 81.580625 118.5 55.800781 118.5 55.800781 L 65.019531 53.580078 L 64 53.560547 z "
     id="XMLID_1762_" />
  <ellipse
     style="fill:#60416d;fill-opacity:1"
     ry="50.299999"
     rx="54.5"
     cy="56.060001"
     cx="64"
     id="XMLID_201_" />
  <path
     inkscape:connector-curvature="0"
     style="fill:#9b643c;fill-opacity:1"
     d="m 64.17,14.87 c -33.11,0 -42.95,23.36 -42.95,58.91 0,35.56 26.86,48.36 42.95,48.36 16.09,0 42.61,-13.14 42.61,-48.69 0,-35.56 -9.5,-58.58 -42.61,-58.58 z"
     id="XMLID_200_" />
  <path
     inkscape:connector-curvature="0"
     style="fill:#444444"
     d="m 49.91,77.19 c 0,3.81 -2.55,6.9 -5.71,6.9 -3.16,0 -5.73,-3.09 -5.73,-6.9 0,-3.82 2.57,-6.91 5.73,-6.91 3.16,0 5.71,3.09 5.71,6.91"
     id="XMLID_196_" />
  <path
     inkscape:connector-curvature="0"
     style="fill:#444444"
     d="m 78.08,77.19 c 0,3.81 2.56,6.9 5.72,6.9 3.15,0 5.72,-3.09 5.72,-6.9 0,-3.82 -2.57,-6.91 -5.72,-6.91 -3.16,0 -5.72,3.09 -5.72,6.91"
     id="XMLID_195_" />
  <path
     inkscape:connector-curvature="0"
     style="opacity:1;vector-effect:none;fill:#60416d;fill-opacity:1;stroke-width:1;stroke-linecap:butt;stroke-linejoin:miter;stroke-miterlimit:4;stroke-dasharray:none;stroke-dashoffset:0;stroke-opacity:1"
     d="M 20.84,71.44 V 31.6 c 0,0 12.83,-25.45 43.61,-25.45 30.78,0 43.61,26.09 43.61,26.09 v 39.2 C 93.625925,62.225544 83.973312,50.748473 64.757774,43.796632 46.113289,49.327675 44.6816,56.798358 20.84,71.44 Z"
     id="XMLID_194_"
     sodipodi:nodetypes="ccscccc" />
  <path
     inkscape:connector-curvature="0"
     style="fill:#513f35"
     d="m 76.38,100.52 c -1.73,0 -12.38,0 -12.38,0 0,0 -10.65,0 -12.38,0 -1.42,0 -2.03,0.95 -1.09,2.38 1.31,2 6.19,5.85 13.47,5.85 7.28,0 12.16,-3.85 13.47,-5.85 0.94,-1.43 0.33,-2.38 -1.09,-2.38 z"
     id="XMLID_192_" />
  <path
     inkscape:connector-curvature="0"
     style="fill:#e59600"
     d="m 69.98,89.99 c -2.11,0.6 -4.29,0.89 -5.98,0.89 -1.69,0 -3.87,-0.29 -5.98,-0.89 -0.9,-0.26 -1.25,0.6 -0.93,1.17 0.67,1.18 3.36,3.55 6.91,3.55 3.55,0 6.24,-2.37 6.91,-3.55 0.33,-0.57 -0.03,-1.42 -0.93,-1.17 z"
     id="XMLID_160_" />
  <path
     id="XMLID_806_"
     d="m 49.91,77.19 c 0,3.81 -2.55,6.9 -5.71,6.9 -3.16,0 -5.73,-3.09 -5.73,-6.9 0,-3.82 2.57,-6.91 5.73,-6.91 3.16,0 5.71,3.09 5.71,6.91"
     style="fill:#444444"
     inkscape:connector-curvature="0" />
  <path
     id="XMLID_803_"
     d="m 78.08,77.19 c 0,3.81 2.56,6.9 5.72,6.9 3.15,0 5.72,-3.09 5.72,-6.9 0,-3.82 -2.57,-6.91 -5.72,-6.91 -3.16,0 -5.72,3.09 -5.72,6.91"
     style="fill:#444444"
     inkscape:connector-curvature="0" />
  <path
     id="XMLID_798_"
     d="m 76.38,100.52 c -1.73,0 -12.38,0 -12.38,0 0,0 -10.65,0 -12.38,0 -1.42,0 -2.03,0.95 -1.09,2.38 1.31,2 6.19,5.85 13.47,5.85 7.28,0 12.16,-3.85 13.47,-5.85 0.94,-1.43 0.33,-2.38 -1.09,-2.38 z"
     style="fill:#513f35"
     inkscape:connector-curvature="0" />
  <path
     id="XMLID_793_"
     d="m 69.98,89.99 c -2.11,0.6 -4.29,0.89 -5.98,0.89 -1.69,0 -3.87,-0.29 -5.98,-0.89 -0.9,-0.26 -1.25,0.6 -0.93,1.17 0.67,1.18 3.36,3.55 6.91,3.55 3.55,0 6.24,-2.37 6.91,-3.55 0.33,-0.57 -0.03,-1.42 -0.93,-1.17 z"
     style="fill:#7a4c32;fill-opacity:1"
     inkscape:connector-curvature="0" />
  <path
     style="fill:#4b2c56;stroke-width:1;fill-opacity:1"
     d="M 21.300781 77.107422 C 21.251691 78.922287 21.220703 80.757747 21.220703 82.632812 C 21.220703 104.90608 30.387096 119.4025 41.720703 128 L 96.115234 128 C 101.08913 121.12962 104.09375 109.86749 104.09375 91.558594 C 104.08673 91.569345 104.07929 91.579097 104.07227 91.589844 C 96.921162 113.57448 77.153991 122.14063 64.169922 122.14062 C 63.667096 122.14062 63.153572 122.12687 62.630859 122.10156 C 62.123444 122.07699 61.606054 122.04117 61.082031 121.99219 C 60.86074 121.97151 60.634143 121.93917 60.410156 121.91406 C 60.100411 121.87934 59.793055 121.84796 59.478516 121.80469 C 59.226689 121.77004 58.969502 121.72574 58.714844 121.68555 C 58.417249 121.63857 58.121457 121.59565 57.820312 121.54102 C 57.55491 121.49287 57.285487 121.43306 57.017578 121.37891 C 56.718378 121.31841 56.421156 121.25949 56.119141 121.19141 C 55.89119 121.14003 55.661033 121.08113 55.431641 121.02539 C 55.076546 120.9391 54.7214 120.85468 54.363281 120.75781 C 54.143395 120.69834 53.922039 120.62991 53.701172 120.56641 C 53.350226 120.4655 52.999514 120.36508 52.646484 120.25391 C 52.39908 120.176 52.15057 120.09082 51.902344 120.00781 C 51.555002 119.89166 51.207934 119.77468 50.859375 119.64844 C 50.620218 119.56182 50.380174 119.46836 50.140625 119.37695 C 49.803813 119.24842 49.468095 119.11858 49.130859 118.98047 C 48.857408 118.8685 48.584033 118.74919 48.310547 118.63086 C 47.99208 118.49305 47.673662 118.35551 47.355469 118.20898 C 47.080237 118.08226 46.806036 117.94775 46.53125 117.81445 C 46.22012 117.6635 45.909863 117.51103 45.599609 117.35156 C 45.319477 117.2076 45.040886 117.05722 44.761719 116.90625 C 44.458263 116.74212 44.155537 116.57679 43.853516 116.4043 C 43.56935 116.24202 43.286538 116.07404 43.003906 115.9043 C 42.710098 115.72782 42.41687 115.54986 42.125 115.36523 C 41.84838 115.19028 41.573457 115.01047 41.298828 114.82812 C 40.984602 114.61948 40.672605 114.40591 40.361328 114.1875 C 40.121809 114.01946 39.884066 113.8477 39.646484 113.67383 C 39.325337 113.43878 39.006702 113.19892 38.689453 112.95312 C 38.439244 112.75929 38.190914 112.5619 37.943359 112.36133 C 37.650272 112.12384 37.359372 111.88179 37.070312 111.63477 C 36.818163 111.4193 36.567205 111.2013 36.318359 110.97852 C 36.035952 110.72567 35.756361 110.46743 35.478516 110.20508 C 35.221269 109.96221 34.965959 109.71593 34.712891 109.46484 C 34.456138 109.21007 34.203357 108.94886 33.951172 108.68555 C 33.69698 108.42018 33.444589 108.15302 33.195312 107.87891 C 32.943965 107.60249 32.69724 107.31858 32.451172 107.0332 C 32.212873 106.75686 31.975274 106.48013 31.742188 106.19531 C 31.50535 105.9059 31.274158 105.60877 31.042969 105.31055 C 30.799282 104.99622 30.555464 104.68163 30.318359 104.35742 C 30.109717 104.07211 29.908394 103.7774 29.705078 103.48438 C 29.471529 103.14781 29.237936 102.81166 29.011719 102.46484 C 28.800574 102.14111 28.597061 101.80734 28.392578 101.47461 C 28.189474 101.14413 27.985334 100.816 27.789062 100.47656 C 27.572098 100.10134 27.364531 99.714374 27.15625 99.328125 C 26.981226 99.003552 26.80343 98.682031 26.634766 98.349609 C 26.440785 97.967285 26.257538 97.572472 26.072266 97.179688 C 25.901673 96.818039 25.727405 96.460427 25.564453 96.089844 C 25.394268 95.702795 25.237747 95.301165 25.076172 94.904297 C 24.91648 94.51206 24.752571 94.124558 24.601562 93.722656 C 24.449208 93.317187 24.309254 92.897801 24.166016 92.482422 C 24.025278 92.074288 23.879717 91.671679 23.748047 91.253906 C 23.614253 90.829395 23.49525 90.389614 23.371094 89.955078 C 23.247499 89.522506 23.117675 89.096876 23.003906 88.654297 C 22.887159 88.200141 22.789702 87.728442 22.683594 87.263672 C 22.58337 86.824657 22.47524 86.393866 22.384766 85.945312 C 22.298399 85.51716 22.229606 85.071669 22.152344 84.634766 C 22.061007 84.118253 21.961094 83.608908 21.882812 83.080078 C 21.810505 82.591603 21.760093 82.083046 21.699219 81.583984 C 21.641283 81.108934 21.570764 80.644865 21.523438 80.160156 C 21.426034 79.162943 21.351701 78.145932 21.300781 77.107422 z "
     id="path4324" />
  <path
     sodipodi:nodetypes="ccsccc"
     id="path4352"
     d="m 20.84,71.44 v 0 c 0,0 22.301252,-45.888981 52.989001,-43.507704 13.16951,1.021914 25.43592,8.554346 25.43592,8.554346 0,0 -9.130102,1.411263 -34.507147,7.30999 C 46.113289,49.327675 44.6816,56.798358 20.84,71.44 Z"
     style="opacity:1;vector-effect:none;fill:#51375c;fill-opacity:1;stroke-width:1;stroke-linecap:butt;stroke-linejoin:miter;stroke-miterlimit:4;stroke-dasharray:none;stroke-dashoffset:0;stroke-opacity:1"
     inkscape:connector-curvature="0" />
</svg>
