<?xml version="1.0" encoding="utf-8"?>
<!-- Generator: Adobe Illustrator 16.0.0, SVG Export Plug-In . SVG Version: 6.00 Build 0)  -->
<!DOCTYPE svg PUBLIC "-//W3C//DTD SVG 1.1//EN" "http://www.w3.org/Graphics/SVG/1.1/DTD/svg11.dtd">
<svg version="1.1" id="レイヤー_1" xmlns="http://www.w3.org/2000/svg" xmlns:xlink="http://www.w3.org/1999/xlink" x="0px"
	 y="0px" width="128px" height="128px" viewBox="0 0 128 128" enable-background="new 0 0 128 128" xml:space="preserve">
<g>
	<g>
		<g>
			<path fill="#FCC21B" d="M15.88,32.75C35.16,3.87,67.36-9.3,101.5,8.06c22.84,11.63,30.78,39.22,20.85,71.64
				c-4.08,13.38,6.15,15.65,5.49,22.74c-1.29,13.9-28.49,25.28-63.64,25.28c-35.15,0-62.73-11.36-63.66-25.28
				C-1.36,74.4,3.58,51.2,15.88,32.75"/>
		</g>
	</g>
	<g>
		<path fill="#ED6C30" d="M62.61,98.08c6.34,5.58,16.18,7.81,23.71,2.22c8.51-6.06,6.88-19.74,1.89-28.11
			c-6.15-9.94-18.33-18.04-28.69-19.06c-10.27-0.94-20.97,2.67-26.96,10.92c-2.5,2.95-4.07,6.63-4.66,10.12
			c-1.11,4.53-0.16,8.61,2.75,11.04c3.52,2.97,6.23,2.08,12.48,1.68C49.86,86.51,56.4,92.4,62.61,98.08z"/>
		<g>
			<g>
				<g>
					<g>
						<path fill="#2F2F2F" d="M34.13,27.47c0.25-0.93,0.63-1.76,1.05-2.55c1.81,0.23,3.78,0.38,6,0.3c3.28-0.08,5.9-0.97,8.06-2.11
							c1.51,2.31,2.04,5.46,1.17,8.66c-1.47,5.38-6.29,8.79-10.79,7.6C35.12,38.18,32.67,32.84,34.13,27.47z"/>
						<path fill="#2F2F2F" d="M90.5,42.62c-1.48,5.37-6.32,8.78-10.8,7.58c-4.5-1.17-6.96-6.51-5.49-11.9
							c0.9-3.36,3.12-5.95,5.75-7.12c1.31,2.16,3.18,4.37,6.12,6.17c1.7,1.01,3.27,1.78,4.8,2.45
							C90.84,40.71,90.75,41.66,90.5,42.62z"/>
					</g>
					<path fill="#2F2F2F" d="M57.31,30.23c-0.23-0.01-0.46-0.08-0.66-0.22c-0.6-0.39-0.76-1.19-0.37-1.79
						c2.05-3.13-0.58-7.01-0.61-7.05c-0.4-0.57-0.27-1.38,0.32-1.79c0.58-0.42,1.39-0.27,1.79,0.31c0.15,0.22,3.68,5.35,0.64,9.95
						C58.18,30.04,57.75,30.24,57.31,30.23z"/>
					<path fill="#2F2F2F" d="M69.91,33.48c-0.67-0.03-1.21-0.57-1.23-1.25c0-0.27-0.08-6.49,4.99-8.64c0.65-0.27,1.4,0.04,1.69,0.69
						c0.28,0.65-0.03,1.41-0.69,1.68c-3.45,1.45-3.41,6.16-3.42,6.2c0.01,0.72-0.54,1.3-1.26,1.31
						C69.97,33.48,69.94,33.48,69.91,33.48z"/>
				</g>
			</g>
		</g>
	</g>
</g>
</svg>
