<?xml version="1.0" encoding="UTF-8" standalone="no"?>
<!DOCTYPE svg PUBLIC "-//W3C//DTD SVG 1.1//EN" "http://www.w3.org/Graphics/SVG/1.1/DTD/svg11.dtd">
<svg width="100%" height="100%" viewBox="0 0 128 128" version="1.1" xmlns="http://www.w3.org/2000/svg" xmlns:xlink="http://www.w3.org/1999/xlink" xml:space="preserve" xmlns:serif="http://www.serif.com/" style="fill-rule:evenodd;clip-rule:evenodd;stroke-linecap:round;stroke-linejoin:round;stroke-miterlimit:1.5;">
    <g transform="matrix(0.982003,0,0,0.953535,21.409,-13.894)">
        <path d="M54.632,78.62C58.236,73.035 61.066,67.002 64.684,61.434C68.105,56.168 72.297,51.323 75.412,45.873C76.661,43.689 77.378,41.278 78.555,39.079C79.91,36.547 81.661,34.225 83.141,31.763C85.578,27.707 87.848,23.469 90.731,19.703" style="fill:none;stroke:rgb(117,127,63);stroke-width:4.22px;"/>
    </g>
    <g transform="matrix(0.757265,0,0,0.757265,10.4314,30.6779)">
        <path d="M59.93,10.84C59.93,10.84 62.94,11.78 64.03,12.27L90.87,40.57C90.87,40.57 91.81,41.86 93.88,42.48L93.01,50.93L75.84,54.9L51.59,37.17L47.05,18.73L59.93,10.84ZM7.29,47.96C7.29,47.96 6.62,42.28 7.61,37.88L30.41,11.93C30.41,11.93 31.25,11.37 34.64,10.6L44.21,14.48L40.95,41.57L13.86,63.41L7.29,47.96Z" style="fill:rgb(133,92,82);fill-rule:nonzero;"/>
    </g>
    <g transform="matrix(0.757265,0,0,0.757265,10.4314,30.6779)">
        <path d="M126.17,44.5C124.75,43.77 123.12,44.88 121.89,45.48C115.52,48.53 110.21,50.59 102.97,48.91C101.01,46.61 98.56,44.72 95.84,43.28C95.04,42.86 94.04,42.32 93.1,42.46C92.75,42.52 92.58,42.8 92.36,43.06C91.47,44.13 90.82,45.42 89.82,46.38C88.86,47.29 87.37,47.94 85.9,48.15C85.76,48.16 85.62,48.18 85.48,48.18C78.95,48.18 76.26,41.46 74.65,37.45C74.39,36.81 74.16,36.23 73.94,35.75C72.86,33.45 70.79,32.24 67.51,30.44C66.97,30.14 66.43,29.85 65.89,29.54C63.86,28.39 62.29,27.19 61.08,25.86C58.72,23.27 57.68,20.19 58,16.71C58.19,14.61 58.88,12.62 59.93,10.84C57.71,10.19 52.54,8.86 47.1,8.86C42.29,8.86 37.29,9.91 34.64,10.6C35.77,12.44 36.5,14.53 36.7,16.72C37.01,20.19 35.97,23.27 33.61,25.87C32.4,27.19 30.83,28.4 28.81,29.54C28.27,29.85 27.73,30.14 27.19,30.44C23.91,32.24 21.84,33.46 20.76,35.76C20.53,36.24 20.3,36.82 20.05,37.46C18.44,41.47 15.74,48.18 9.17,48.18C8.52,48.17 7.9,48.09 7.29,47.96C7.27,48.91 7.25,49.86 7.29,50.82C7.92,62.86 11.83,75.25 20.45,82.96C22.29,84.61 24.38,85.97 26.57,87.18C26.57,87.18 26.44,102.38 26.29,106.51C26.17,110.08 24.53,117.69 28.47,119.96C33.34,122.77 43.31,123.3 46.77,118.11C48.24,115.89 48.54,113.18 48.54,110.61C48.54,107.66 48.71,106.5 48.71,103.54C48.71,102.29 48.24,99.97 49.18,98.99C49.74,98.4 50.48,98.54 51.19,98.54C52.32,98.54 53.47,98.42 54.6,98.31C60.96,97.66 60.44,100.7 60.98,105.2C61.37,108.47 60.76,111.72 60.5,115.01C60.16,119.33 64.15,120.91 68.01,121.1C72.11,121.3 77.2,120.85 80.83,118.79C84.63,116.62 83.15,113.21 83.01,109.68C82.91,107.22 82.71,104.76 82.52,102.31C82.37,100.31 82.01,98.32 82.11,96.31C82.21,94.56 81.82,91.52 84.04,90.79C85.61,90.27 87.37,90.79 89,90.48C91.4,90.04 91.23,94.82 91.3,96.1C91.47,99.19 91.02,101.42 93.88,103.3C97.28,105.54 102.94,104.95 106.62,103.87C113.3,101.9 111.08,96.17 111.4,90.92C111.72,85.85 111.7,80.83 111.36,75.76C111.01,70.49 110.32,65.13 108.78,60.11C111.8,60.93 115.09,60.95 118.03,60.08C121.94,58.92 124.99,56.28 126.46,52.56C127.15,50.81 128.55,45.71 126.17,44.5Z" style="fill:rgb(247,147,41);fill-rule:nonzero;"/>
    </g>
    <g transform="matrix(0.757265,0,0,0.757265,10.4314,30.6779)">
        <path d="M27.46,62.56C24.67,62.54 22.42,59.93 22.44,56.71C22.46,53.51 24.73,50.92 27.51,50.93C30.29,50.94 32.54,53.57 32.52,56.78C32.51,60 30.23,62.57 27.46,62.56ZM57.38,81.53C57.14,82.13 56.54,82.48 56.1,82.74L55.9,82.86C53.76,84.15 50.53,83.97 48.32,82.93L48.09,82.82C47.78,82.67 47.65,82.61 47.45,82.61C47.14,82.64 46.85,82.76 46.59,82.88C46.38,82.97 46.17,83.05 45.99,83.11C43.84,83.79 41.49,84.24 39.32,83.42C38.72,83.19 37.91,82.73 37.46,82.1C37.14,81.66 37.02,81.06 37.15,80.57C37.26,80.15 37.54,79.81 37.93,79.61C38.71,79.24 39.57,79.57 40.12,79.86C41.5,80.6 43.88,80.65 45.03,79.43C45.42,79.01 45.61,78.4 45.57,77.62L45.57,77.42C44.41,77.37 43.3,77.18 42.2,76.78C38.83,75.57 37.89,72.49 39.24,69.61C39.44,69.18 39.68,68.79 39.95,68.43C41.39,66.56 43.74,65.71 46.45,65.58C49.58,65.43 53.68,66.57 55.32,69.28C56.38,71.05 55.9,73.77 54.54,75.29C53.29,76.71 51.04,77.11 48.98,77.28C48.97,78.01 48.96,78.79 49.25,79.29L49.71,79.66C51.03,80.56 53.1,80.74 54.53,79.93L54.78,79.79C55,79.66 55.21,79.54 55.46,79.45C56.13,79.2 56.87,79.4 57.25,79.97C57.54,80.42 57.59,81.01 57.38,81.53ZM67.16,62.56C64.39,62.57 62.12,59.99 62.11,56.78C62.09,53.57 64.34,50.95 67.12,50.93C69.89,50.92 72.17,53.51 72.19,56.71C72.21,59.93 69.95,62.54 67.16,62.56Z" style="fill:rgb(47,47,47);fill-rule:nonzero;"/>
    </g>
    <g transform="matrix(0.757265,0,0,0.757265,10.4314,30.6779)">
        <path d="M74.18,87.56C70.12,90.99 64.05,95.28 50.98,95.28C38.96,95.28 31.83,89.73 31.83,89.73C31.83,89.73 39.99,92.34 47.61,92.34C52.05,92.34 55.75,91.99 59.52,90.95C65.34,89.36 69.76,86.24 71.85,84.75C74.9,82.58 81.14,77.34 84.9,64.95C84.9,64.96 84.35,78.97 74.18,87.56Z" style="fill:rgb(0,108,162);fill-rule:nonzero;"/>
    </g>
    <g transform="matrix(1.2908,0,0,1.2908,10.171,-34.4435)">
        <path d="M49.756,92.805C49.838,92.506 49.773,91.995 49.565,91.55C49.962,89.77 49.827,89.547 50.009,88.554C50.941,83.474 51.679,74.004 51.679,74.004C51.679,74.004 55.208,73.667 59.324,77.835C58.982,79.46 58.485,80.997 57.893,82.321C56.526,85.373 54.227,88.066 51.426,90.233C51.15,90.445 50.943,90.735 50.831,91.064C50.801,91.148 50.769,91.235 50.734,91.326C49.893,93.476 49.416,95.356 48.447,97.451C47.383,99.753 46.374,101.883 44.369,103.54C43.072,104.611 41.732,105.737 40.153,106.347C36.079,107.922 32.779,108.211 27.191,107.52C18.223,106.411 15.783,102.314 15.783,102.314C18.14,103.461 19.547,104.702 21.567,105.286C24.325,106.083 26.879,106.893 29.755,106.937C35.68,107.027 36.579,106.302 37.914,105.957C39.867,105.453 41.685,104.351 43.252,103.109C44.875,101.823 45.898,100.222 46.97,98.486C48.121,96.622 49.176,94.922 49.756,92.805Z" style="fill:rgb(189,207,70);"/>
    </g>
    <g transform="matrix(0.757265,0,0,0.757265,10.4314,30.6779)">
        <path d="M6.3,43.05C7.16,43.6 8.12,43.95 9.18,43.95L9.2,43.95C9.36,43.95 9.51,43.92 9.66,43.91C9.79,43.89 9.9,43.9 10,43.88C10.21,43.84 10.4,43.77 10.59,43.71C10.64,43.69 10.7,43.68 10.74,43.66C10.98,43.57 11.21,43.45 11.42,43.31L11.43,43.31C14.33,41.51 15.76,36.46 16.93,33.97C18.92,29.73 22.91,28.03 26.71,25.88C28.16,25.06 29.47,24.12 30.48,23.03C31.88,21.49 32.7,19.59 32.49,17.12L32.49,17.1C32.45,16.6 32.36,16.12 32.24,15.65C32.18,15.41 32.08,15.18 32.01,14.94C31.94,14.73 31.88,14.52 31.8,14.32C31.66,13.98 31.49,13.65 31.31,13.33C31.27,13.25 31.23,13.17 31.19,13.1C30.969,12.719 30.725,12.352 30.46,12C30.45,11.98 30.43,11.97 30.42,11.96C30.1,11.54 29.75,11.15 29.37,10.78L29.26,10.67C28.91,10.33 28.52,10.02 28.12,9.73L27.9,9.57C27.54,9.33 27.15,9.11 26.76,8.91C26.63,8.85 26.52,8.77 26.4,8.72C25.97,8.53 25.52,8.37 25.07,8.24C24.99,8.21 24.91,8.17 24.83,8.15C23.88,7.91 22.95,7.75 22.03,7.64C21.74,7.6 21.45,7.6 21.16,7.58C20.67,7.54 20.16,7.48 19.68,7.48C19.57,7.48 19.46,7.5 19.36,7.5C19.02,7.51 18.7,7.54 18.36,7.56C17.84,7.6 17.32,7.64 16.82,7.72C16.47,7.78 16.13,7.85 15.79,7.93C15.33,8.03 14.87,8.14 14.42,8.28C14.08,8.39 13.74,8.5 13.41,8.63C12.98,8.78 12.57,8.96 12.16,9.15C11.84,9.3 11.51,9.46 11.2,9.62C10.81,9.83 10.44,10.06 10.07,10.3C9.77,10.49 9.46,10.68 9.17,10.88C8.81,11.14 8.46,11.43 8.12,11.72C7.85,11.95 7.58,12.16 7.32,12.39C6.96,12.74 6.62,13.11 6.28,13.48C5.88,13.91 5.51,14.37 5.15,14.84C4.86,15.21 4.57,15.58 4.31,15.97C4.08,16.31 3.89,16.68 3.68,17.03C3.48,17.37 3.27,17.7 3.09,18.06C2.89,18.44 2.72,18.84 2.54,19.24C2.39,19.59 2.23,19.94 2.09,20.3C1.93,20.71 1.79,21.14 1.66,21.56C1.54,21.92 1.43,22.28 1.33,22.65C1.2,23.06 1.09,23.51 1,23.96C0.92,24.32 0.86,24.7 0.8,25.07C0.73,25.53 0.66,26 0.61,26.47C0.57,26.83 0.56,27.21 0.54,27.58C0.51,28.07 0.48,28.55 0.49,29.04C0.49,29.4 0.53,29.75 0.54,30.1C0.57,30.61 0.59,31.13 0.65,31.65C0.68,31.92 0.74,32.19 0.79,32.47C0.88,33.04 0.95,33.6 1.07,34.17C1.7,36.95 3.44,41.19 6.27,43.03C6.28,43.04 6.29,43.05 6.3,43.05ZM63.28,13.5C63.12,13.81 62.98,14.11 62.85,14.43C62.78,14.6 62.73,14.77 62.67,14.94C62.59,15.19 62.5,15.44 62.43,15.7C62.33,16.11 62.26,16.52 62.21,16.95C62.21,16.99 62.19,17.04 62.19,17.08C61.96,19.57 62.78,21.47 64.19,23.01C65.21,24.11 66.53,25.04 67.97,25.86C70.05,27.04 72.18,28.09 74.02,29.49C75.54,30.65 76.86,32.03 77.76,33.95C78.83,36.25 80.14,40.73 82.61,42.82C82.64,42.85 82.67,42.86 82.7,42.89C82.88,43.03 83.06,43.17 83.24,43.29C83.31,43.33 83.38,43.36 83.44,43.39C83.6,43.48 83.76,43.57 83.93,43.64C84.03,43.68 84.13,43.7 84.24,43.73C84.39,43.77 84.53,43.83 84.68,43.86C84.81,43.89 84.94,43.89 85.07,43.9C85.21,43.92 85.34,43.94 85.47,43.94L85.5,43.94C90.08,43.92 92.77,37.79 93.6,34.16C93.67,33.84 93.7,33.52 93.76,33.19C93.86,32.65 93.96,32.11 94.03,31.57C94.08,31.18 94.09,30.8 94.11,30.42C94.14,29.92 94.18,29.43 94.18,28.93C94.18,28.55 94.16,28.18 94.15,27.8C94.13,27.31 94.1,26.82 94.05,26.33C94.01,25.96 93.96,25.6 93.91,25.23C93.84,24.74 93.75,24.26 93.65,23.78C93.58,23.43 93.5,23.09 93.41,22.75C93.29,22.26 93.14,21.78 92.99,21.31C92.88,21 92.78,20.68 92.66,20.37C92.48,19.87 92.26,19.39 92.04,18.92C91.92,18.65 91.8,18.37 91.67,18.11C91.4,17.58 91.1,17.07 90.79,16.57C90.67,16.38 90.57,16.19 90.45,16C89.55,14.63 88.5,13.39 87.33,12.3C87.17,12.15 86.99,12.01 86.82,11.87C86.38,11.5 85.95,11.13 85.49,10.8L84.78,10.33C84.35,10.05 83.92,9.78 83.46,9.54C83.18,9.39 82.91,9.26 82.62,9.13C82.18,8.92 81.72,8.73 81.25,8.55C80.95,8.44 80.64,8.33 80.33,8.24C79.85,8.12 79.36,8 78.87,7.89C78.55,7.82 78.23,7.75 77.9,7.7C77.38,7.62 76.86,7.57 76.32,7.54C76,7.52 75.68,7.48 75.35,7.48C75.24,7.48 75.14,7.46 75.03,7.46C74.55,7.46 74.06,7.52 73.57,7.55C73.27,7.58 72.97,7.58 72.67,7.61C71.76,7.72 70.83,7.89 69.88,8.12C69.32,8.27 68.77,8.48 68.25,8.71C68.12,8.77 68,8.85 67.88,8.91C67.48,9.12 67.09,9.35 66.71,9.6C66.61,9.67 66.51,9.75 66.41,9.82C66.02,10.12 65.64,10.44 65.29,10.79C65.24,10.84 65.18,10.89 65.13,10.95C64.74,11.36 64.38,11.79 64.05,12.25L64.03,12.27C64.03,12.27 64.03,12.28 64.02,12.29C63.8,12.61 63.6,12.94 63.42,13.28C63.36,13.36 63.32,13.43 63.28,13.5Z" style="fill:rgb(247,147,41);fill-rule:nonzero;"/>
    </g>
    <g transform="matrix(0.982003,0,0,0.953535,28.1014,-7.92727)">
        <path d="M54.632,78.62C58.236,73.035 61.066,67.002 64.684,61.434C68.105,56.168 72.297,51.323 75.412,45.873C76.661,43.689 77.378,41.278 78.555,39.079C79.91,36.547 81.661,34.225 83.141,31.763C85.578,27.707 87.848,23.469 90.731,19.703" style="fill:none;stroke:rgb(117,127,63);stroke-width:4.22px;"/>
    </g>
    <path d="M73.802,99.542C73.842,99.385 73.912,99.222 74.03,99.069C76.822,95.342 77.749,90.016 77.375,86.466C77.149,84.325 76.631,82.235 76.219,80.108L76.554,78.812L77.716,78.128C78.145,78.241 78.573,78.353 79.002,78.465L79.683,79.607C80.308,84.019 80.206,88.454 78.676,93.199C77.966,95.366 77.07,97.484 75.682,99.247C75.132,99.237 74.588,99.259 74.072,99.43C73.976,99.462 73.886,99.499 73.802,99.542Z" style="fill:rgb(189,207,70);fill-rule:nonzero;"/>
</svg>
