<svg enable-background="new 0 0 128 128" viewBox="0 0 128 128" xmlns="http://www.w3.org/2000/svg" xmlns:xlink="http://www.w3.org/1999/xlink"><defs><rect id="g" x="4" y="4" width="120" height="120"/></defs><clipPath id="a"><use xlink:href="#g"/></clipPath><g clip-path="url(#a)"><linearGradient id="f" x1="64" x2="64" y1="9.9906" y2="86.57" gradientUnits="userSpaceOnUse"><stop stop-color="#424242" offset=".0032478"/><stop stop-color="#353535" offset=".2705"/><stop stop-color="#131313" offset=".7639"/><stop offset="1"/></linearGradient><path d="M8,86.5c-1.38,0-2.5-1.12-2.5-2.5V12c0-1.38,1.12-2.5,2.5-2.5h112 c1.38,0,2.5,1.12,2.5,2.5v72c0,1.38-1.12,2.5-2.5,2.5H8z" fill="url(#f)"/><path d="m120 11c0.55 0 1 0.45 1 1v72c0 0.55-0.45 1-1 1h-112c-0.55 0-1-0.45-1-1v-72c0-0.55 0.45-1 1-1h112m0-3h-112c-2.21 0-4 1.79-4 4v72c0 2.21 1.79 4 4 4h112c2.21 0 4-1.79 4-4v-72c0-2.21-1.79-4-4-4z"/><g fill="#76FF03"><rect x="12" y="16" width="24" height="4"/><rect x="86" y="16" width="16" height="4"/><rect x="108" y="16" width="8" height="4"/><rect x="20" y="28" width="8" height="4"/><rect x="12" y="40" width="16" height="4"/><rect x="12" y="52" width="8" height="4"/><rect x="98" y="52" width="12" height="4"/><rect x="104" y="40" width="12" height="4"/><rect x="12" y="64" width="16" height="4"/><rect x="96" y="64" width="20" height="4"/><rect x="100" y="28" width="12" height="4"/></g></g><g clip-path="url(#a)"><path d="m36.67 72.26c-5.36 0-9.71-4.67-9.71-10.41s4.36-10.41 9.71-10.41h54.65c5.36 0 9.71 4.67 9.71 10.41s-4.36 10.41-9.71 10.41h-54.65z" fill="#E59600"/><path d="m91.33 52.43c4.8 0 8.71 4.22 8.71 9.41s-3.91 9.41-8.71 9.41h-54.66c-4.8 0-8.71-4.22-8.71-9.41s3.91-9.41 8.71-9.41h54.66m0-2h-54.66c-5.89 0-10.71 5.14-10.71 11.41 0 6.28 4.82 11.41 10.71 11.41h54.65c5.89 0 10.71-5.14 10.71-11.41 0.01-6.27-4.81-11.41-10.7-11.41z" fill="#D18100"/><linearGradient id="e" x1="64" x2="64" y1="94.591" y2="12.825" gradientUnits="userSpaceOnUse"><stop stop-color="#FFB300" offset="0"/><stop stop-color="#FFB809" offset=".102"/><stop stop-color="#FFC21A" offset=".3707"/><stop stop-color="#FFC825" offset=".6592"/><stop stop-color="#FFCA28" offset="1"/></linearGradient><path d="m64 95.27c-15.66 0-32.52-12.14-32.52-38.81 0-12.38 3.56-23.79 10.02-32.13 6.05-7.8 14.25-12.27 22.5-12.27s16.45 4.47 22.5 12.27c6.46 8.34 10.02 19.75 10.02 32.13 0 12.09-3.51 22.19-10.14 29.21-5.86 6.19-13.81 9.6-22.38 9.6z" fill="url(#e)"/><path d="m64 13.07c7.94 0 15.85 4.33 21.71 11.88 6.33 8.16 9.81 19.35 9.81 31.52 0 11.83-3.41 21.7-9.87 28.52-5.67 5.99-13.36 9.29-21.65 9.29s-15.98-3.3-21.65-9.29c-6.46-6.82-9.87-16.69-9.87-28.52 0-12.16 3.49-23.35 9.81-31.52 5.86-7.55 13.77-11.88 21.71-11.88m0-2c-17.4 0-33.52 18.61-33.52 45.39 0 26.64 16.61 39.81 33.52 39.81s33.52-13.17 33.52-39.81c0-26.78-16.12-45.39-33.52-45.39z" fill="#ED9E00"/><path d="m39.99 50.73s0.13-0.19 0.38-0.51c0.07-0.08 0.12-0.16 0.22-0.26 0.11-0.11 0.23-0.22 0.37-0.34s0.28-0.24 0.43-0.38c0.15-0.13 0.31-0.23 0.48-0.35 0.17-0.11 0.34-0.24 0.53-0.35 0.19-0.1 0.4-0.21 0.6-0.32 0.21-0.12 0.43-0.21 0.66-0.3s0.47-0.18 0.71-0.27c0.49-0.14 1-0.29 1.54-0.36 0.53-0.1 1.08-0.11 1.63-0.14 0.55 0.03 1.09 0.03 1.63 0.14 0.53 0.07 1.05 0.22 1.54 0.36 0.24 0.08 0.48 0.17 0.71 0.27 0.23 0.09 0.45 0.18 0.66 0.3 0.21 0.11 0.41 0.22 0.6 0.32 0.19 0.11 0.36 0.24 0.53 0.35 0.17 0.12 0.33 0.22 0.47 0.34s0.27 0.24 0.4 0.35c0.12 0.11 0.24 0.21 0.34 0.31s0.18 0.21 0.26 0.29c0.31 0.36 0.46 0.57 0.46 0.57 0.51 0.7 0.35 1.69-0.36 2.19-0.43 0.31-0.96 0.37-1.43 0.21l-0.29-0.1s-0.19-0.07-0.49-0.2c-0.08-0.03-0.15-0.07-0.25-0.11-0.1-0.03-0.19-0.07-0.3-0.11-0.21-0.08-0.44-0.17-0.7-0.25-0.13-0.04-0.26-0.09-0.4-0.13-0.14-0.03-0.28-0.07-0.43-0.11-0.07-0.02-0.15-0.04-0.22-0.06-0.08-0.01-0.15-0.03-0.23-0.04-0.16-0.03-0.31-0.07-0.47-0.1-0.33-0.04-0.66-0.11-1-0.12-0.34-0.04-0.69-0.03-1.03-0.05-0.35 0.02-0.7 0.01-1.03 0.05-0.34 0.02-0.67 0.09-1 0.12-0.16 0.03-0.31 0.07-0.47 0.1-0.08 0.01-0.16 0.03-0.23 0.04-0.07 0.02-0.15 0.04-0.22 0.06-0.15 0.04-0.29 0.07-0.43 0.11s-0.27 0.09-0.4 0.13-0.25 0.08-0.37 0.11c-0.1 0.04-0.2 0.07-0.29 0.1s-0.18 0.06-0.27 0.09c-0.1 0.04-0.2 0.1-0.29 0.14-0.36 0.18-0.57 0.27-0.57 0.27-0.83 0.34-1.77-0.05-2.11-0.87-0.24-0.48-0.16-1.06 0.13-1.49z" fill="#6D4C41"/><ellipse cx="47.56" cy="58.81" rx="4.93" ry="5.1" fill="#404040"/><path d="m86.05 53.13s-0.22-0.09-0.57-0.27c-0.09-0.04-0.19-0.1-0.29-0.14-0.09-0.02-0.18-0.06-0.27-0.09s-0.19-0.07-0.29-0.1c-0.12-0.04-0.24-0.07-0.37-0.11s-0.26-0.09-0.4-0.13-0.28-0.07-0.43-0.11c-0.07-0.02-0.15-0.04-0.22-0.06-0.08-0.01-0.15-0.03-0.23-0.04-0.16-0.03-0.31-0.07-0.47-0.1-0.33-0.04-0.66-0.11-1-0.12-0.34-0.04-0.69-0.03-1.03-0.05-0.35 0.02-0.7 0.01-1.03 0.05-0.34 0.02-0.67 0.09-1 0.12-0.16 0.03-0.31 0.07-0.47 0.1-0.08 0.01-0.16 0.03-0.23 0.04-0.07 0.02-0.15 0.04-0.22 0.06-0.15 0.04-0.29 0.08-0.43 0.11-0.14 0.04-0.27 0.09-0.4 0.13-0.26 0.07-0.49 0.16-0.7 0.25-0.11 0.04-0.2 0.08-0.3 0.11-0.09 0.04-0.17 0.08-0.25 0.11-0.3 0.13-0.49 0.2-0.49 0.2l-0.28 0.1c-0.82 0.29-1.72-0.15-2-0.97-0.17-0.5-0.08-1.03 0.21-1.44 0 0 0.16-0.22 0.46-0.57 0.08-0.09 0.16-0.19 0.26-0.29s0.22-0.2 0.34-0.31 0.26-0.23 0.4-0.35 0.31-0.22 0.47-0.34c0.17-0.12 0.34-0.24 0.53-0.35 0.19-0.1 0.4-0.21 0.6-0.32 0.21-0.12 0.43-0.21 0.66-0.3s0.46-0.18 0.71-0.27c0.49-0.14 1-0.29 1.54-0.36 0.53-0.1 1.08-0.11 1.63-0.14 0.55 0.03 1.09 0.03 1.63 0.14 0.53 0.06 1.05 0.22 1.54 0.36 0.24 0.08 0.48 0.17 0.71 0.27 0.23 0.09 0.45 0.18 0.66 0.3 0.21 0.11 0.41 0.22 0.6 0.32 0.19 0.11 0.36 0.24 0.53 0.35 0.17 0.12 0.32 0.22 0.48 0.35 0.15 0.13 0.3 0.26 0.43 0.38s0.26 0.23 0.37 0.34c0.09 0.1 0.15 0.18 0.22 0.26 0.25 0.31 0.38 0.51 0.38 0.51 0.5 0.74 0.31 1.74-0.43 2.25-0.49 0.28-1.07 0.32-1.56 0.12z" fill="#6D4C41"/><ellipse cx="80.44" cy="58.81" rx="4.93" ry="5.1" fill="#404040"/><path d="m67.86 68.06c-0.11-0.04-0.21-0.07-0.32-0.08h-7.07c-0.11 0.01-0.22 0.04-0.32 0.08-0.64 0.26-0.99 0.92-0.69 1.63s1.71 2.69 4.55 2.69 4.25-1.99 4.55-2.69c0.29-0.71-0.06-1.37-0.7-1.63z" fill="#E59600"/><path d="m72.42 76.14c-3.19 1.89-13.63 1.89-16.81 0-1.83-1.09-3.7 0.58-2.94 2.24 0.75 1.63 6.45 5.42 11.37 5.42s10.55-3.79 11.3-5.42c0.75-1.66-1.09-3.33-2.92-2.24z" fill="#795548"/><defs><path id="d" d="m64 4.03h-0.02s-0.01 0-0.02 0c-45.43 0.24-36.12 52.14-36.12 52.14s5.1 8.99 5.1 8.81c-0.03-1.41 0.46-6.89 0.46-6.89l-2.68-2.92s3.89-25.44 6.79-24.91c4.45 0.81 26.54 2 26.57 2 7.83 0 14.92-0.36 19.37-1.17 2.9-0.53 9.64 1.7 10.68 4.45 1.33 3.54 3.13 19.71 3.13 19.71l-2.68 2.83s0.49 5.51 0.46 6.89c0 0.18 5.1-8.81 5.1-8.81s9.3-51.89-36.14-52.13z"/></defs><clipPath><use xlink:href="#d"/></clipPath><radialGradient id="c" cx="64.26" cy="4.2736" r="48.85" gradientUnits="userSpaceOnUse"><stop stop-color="#6D4C41" offset="0"/><stop stop-color="#543930" offset="1"/></radialGradient><path d="m64.02 4.03h-0.02s-0.01 0-0.02 0c-45.43 0.24-36.13 52.14-36.13 52.14s5.1 8.99 5.1 8.81c-0.16-7.25 2.74-20.09 4.8-25.55 1.04-2.76 3.9-4.36 6.79-3.83 4.46 0.8 11.55 1.8 19.38 1.8h0.08 0.08c7.83 0 14.92-1 19.37-1.81 2.9-0.53 5.76 1.08 6.79 3.83 2.06 5.47 4.96 18.3 4.8 25.55 0 0.18 5.1-8.81 5.1-8.81s9.31-51.89-36.12-52.13z" fill="url(#c)"/><path d="m64.02 4.03h-0.02s-0.01 0-0.02 0c-45.43 0.24-36.13 52.14-36.13 52.14s5 8.81 5.1 8.81c-0.03-1.48 0.07-3.2 0.26-5.03-0.12-0.29-2.46-4.75-2.48-4.79-0.24-1.6-0.93-6.98-0.55-13.56 0.41-7.04 2.17-16.96 8.22-24.22 5.67-6.8 14.27-10.28 25.56-10.35h0.04c11.32 0.06 19.93 3.54 25.6 10.35 10.81 12.96 8.18 34.33 7.67 37.79-0.02 0.04-2.46 4.58-2.49 4.65 0.2 1.89 0.31 3.65 0.27 5.17 0.09 0 5.1-8.81 5.1-8.81s9.3-51.91-36.13-52.15z" fill="#3F2720"/></g><radialGradient id="b" cx="84.8" cy="71.209" r="27.001" gradientTransform="matrix(9.0766e-14 -.9556 1.0212 1.1376e-13 -8.7188 158.21)" gradientUnits="userSpaceOnUse"><stop stop-color="#fff" stop-opacity=".9" offset="0"/><stop stop-color="#fff" stop-opacity=".8" offset=".1228"/><stop stop-color="#fff" stop-opacity=".65" offset=".3833"/><stop stop-color="#fff" stop-opacity=".25" offset=".7569"/><stop stop-color="#fff" stop-opacity="0" offset="1"/></radialGradient><ellipse cx="64" cy="72.83" rx="30" ry="21.5" clip-path="url(#a)" fill="url(#b)"/><g clip-path="url(#a)"><path d="m18.45 112.37c0.01 0.15 0.01 0.3 0.01 0.45 0 4.1-1.98 7.42-4.41 7.42-2.44 0-4.41-3.32-4.41-7.42 0-0.15 0.01-0.3 0.01-0.45-2.41 1.75-4.02 4.87-4.02 8.45v0.65c0 1.4 0.96 2.54 2.15 2.54h12.54c1.19 0 2.15-1.13 2.15-2.54v-0.65c0-3.58-1.61-6.71-4.02-8.45z" fill="#26A69A"/><path d="m14.05 120.24c9 0 4.41-3.32 4.41-7.42 0-0.15-0.01-0.3-0.01-0.45-1.28-0.93-2.79-1.48-4.4-1.48-1.62 0-3.12 0.55-4.4 1.48-0.01 0.15-0.01 0.3-0.01 0.45-0.01 4.1-4.64 7.42 4.41 7.42z" fill="#00796B"/></g><g clip-path="url(#a)"><linearGradient id="k" x1="20.428" x2="10.748" y1="112.92" y2="99.14" gradientUnits="userSpaceOnUse"><stop stop-color="#FFCA28" offset="0"/><stop stop-color="#FFC825" offset=".3408"/><stop stop-color="#FFC21A" offset=".6293"/><stop stop-color="#FFB809" offset=".898"/><stop stop-color="#FFB300" offset="1"/></linearGradient><path d="m27.98 106.8c-0.11-2.84-2.23-8.7-5-9.19-0.17-0.03-0.32-0.11-0.41-0.25-0.44-0.67-1.85-2.47-4.43-1.05-0.96 0.53-1.3 1-1.14 1.68-0.12 0.14-0.34 0.31-0.66 0.18-1.04-1.16-2.32-1.4-3.81-0.24-1.69 1.32-1.69 2.26-1.38 3.19l-0.01 0.01s-0.08 0.65-0.56 0.59c-0.51-0.44-1.13-0.44-2.09 0.26-2.6 1.88-1.53 3.66-1.09 4.71-0.06 0.1-0.16 0.17-0.32 0.16-0.34-0.18-0.77-0.18-1.35 0.15-1.38 0.79-1.18 3.39-0.79 4.24 0.43 0.93 2.8 4.19 3.62 5.11 0.19 0.21 0.42 0.36 0.67 0.46-0.03-0.01-0.06-0.02-0.08-0.03 0.71 0.44 1.95 0.97 3.16 0.22 0 0 0.77-0.56 0.84-1.15 1.31 0.73 3.12-0.63 3.12-0.63 0.85-0.65 1.07-1.38 1.04-2.01 0.43 0.26 0.9 0.36 1.35 0.37 1.36 0.04 2.61-0.76 2.61-0.76 1.95-1.11 2.34-2.27 2.33-3.04 1.01 0.63 2.26 0.16 2.26 0.16 2.19-0.99 2.12-3.14 2.12-3.14z" fill="url(#k)"/><path d="m28.62 106.78v0c-0.12-3.05-2.36-9.23-5.51-9.77-1.25-1.91-3.22-2.38-5.27-1.26-0.62 0.34-1.3 0.81-1.47 1.55-1.26-1.07-2.74-1.04-4.22 0.12-1.75 1.36-1.92 2.51-1.72 3.47-1-0.38-1.96 0.31-2.31 0.57-2.36 1.7-2.08 3.48-1.66 4.63-0.33 0.03-0.68 0.14-1.04 0.35-1.78 1.01-1.54 4.01-1.05 5.06 0.47 1.01 2.86 4.31 3.72 5.26 0.19 0.21 0.43 0.39 0.7 0.54 0.01 0 0.01 0.01 0.02 0.01 0.73 0.46 1.47 0.69 2.18 0.69 0.59 0 1.17-0.16 1.7-0.5 0.11-0.08 0.53-0.41 0.82-0.87 1.5 0.3 3.07-0.87 3.14-0.93 0.68-0.52 1.02-1.09 1.18-1.61 0.26 0.07 0.53 0.1 0.82 0.11 1.52 0.03 2.91-0.83 2.94-0.85 1.59-0.9 2.27-1.88 2.52-2.71 1 0.23 1.93-0.11 2.01-0.14 2.55-1.13 2.51-3.62 2.5-3.72zm-2.7 1.52c-0.79 0.59-1.5 0.68-2.08 0.44-0.57-0.47-1.08-1.42-1.08-1.42-2.25-4.13-3.8-6.2-3.8-6.2-0.15-0.18-0.48-0.75-0.95-1.04-0.59-0.36-0.42 0.28-0.42 0.28 2.62 4.08 4.21 7.34 4.21 7.34 0.68 1.24 0.56 2.11 0.36 2.6-0.22 0.59-1.53 1.43-1.53 1.43-2.64 1.58-3.86-0.53-3.86-0.53s-1.55-1.94-4.14-6.78c0 0-0.41-0.67-0.65-0.21 0 0 0.14 0.82 0.52 1.6 0 0 1.18 2.8 3.46 6.03 0.02 0.05 0.03 0.1 0.05 0.15 0.04 0.11 0.08 0.23 0.11 0.34 0.01 0.04 0.01 0.08 0.02 0.13 0.02 0.11 0.04 0.22 0.04 0.33 0 0.04-0.01 0.07-0.01 0.1 0 0.11-0.01 0.21-0.03 0.31l-0.03 0.09c-0.02 0.1-0.05 0.2-0.09 0.29-0.01 0.03-0.03 0.06-0.04 0.09-0.04 0.09-0.08 0.17-0.13 0.25-0.02 0.03-0.05 0.06-0.07 0.1-0.05 0.07-0.09 0.13-0.15 0.19-0.04 0.04-0.09 0.08-0.13 0.12s-0.08 0.08-0.13 0.12c-0.09 0.07-0.19 0.14-0.28 0.19-0.22 0.13-0.42 0.2-0.63 0.26-0.06 0.02-0.12 0.02-0.18 0.03-0.14 0.02-0.27 0.04-0.4 0.04-0.06 0-0.13-0.01-0.19-0.02-0.12-0.02-0.24-0.04-0.35-0.08-0.05-0.02-0.11-0.03-0.16-0.06-0.12-0.05-0.24-0.12-0.36-0.19-0.03-0.02-0.06-0.03-0.09-0.05-0.59-0.58-1.95-2.14-3.93-5.71 0 0-0.39-0.9-0.58-0.59 0 0-0.2 0.24 0.35 1.62 0 0 0.79 1.98 2.79 4.63 0.73 1.01 0.66 1.5 0.37 1.81-0.02 0.02-0.05 0.04-0.07 0.07-0.14 0.13-0.31 0.23-0.48 0.32-0.56 0.06-1.1-0.13-1.54-0.37-0.05-0.05-0.12-0.09-0.19-0.12-0.19-0.08-0.34-0.18-0.44-0.3-0.85-0.95-3.13-4.12-3.51-4.95-0.33-0.72-0.42-2.88 0.52-3.42 0.48-0.28 0.67-0.18 0.73-0.14 0.08 0.05 0.18 0.07 0.27 0.08 0.37 0.02 0.71-0.15 0.9-0.47 0.1-0.17 0.12-0.38 0.04-0.57l-0.12-0.27c-0.46-1.05-0.98-2.24 1-3.67 0.89-0.65 1.15-0.43 1.3-0.29 0.1 0.08 0.22 0.14 0.34 0.15 0.69 0.08 1.13-0.44 1.25-1.02 0.04-0.13 0.05-0.27 0-0.41-0.18-0.56-0.41-1.26 1.17-2.49 1.12-0.87 2.06-0.82 2.94 0.16 0.07 0.07 0.15 0.13 0.24 0.17 0.51 0.2 1.02 0.07 1.39-0.36 0.13-0.16 0.18-0.36 0.13-0.56-0.05-0.19-0.11-0.46 0.82-0.97 1.48-0.81 2.69-0.53 3.59 0.84 0.18 0.28 0.48 0.46 0.83 0.53 0.11 0.02 0.22 0.06 0.33 0.1 1.13 1.8 2.32 4.06 2.84 5.05 0.98 1.8 1.62 3.59-0.09 4.88z" fill="#ED9E00"/></g><g clip-path="url(#a)"><linearGradient id="j" x1="-170.95" x2="-180.63" y1="118.92" y2="105.14" gradientTransform="matrix(-1 0 0 1 -63.361 0)" gradientUnits="userSpaceOnUse"><stop stop-color="#FFCA28" offset="0"/><stop stop-color="#FFC825" offset=".3408"/><stop stop-color="#FFC21A" offset=".6293"/><stop stop-color="#FFB809" offset=".898"/><stop stop-color="#FFB300" offset="1"/></linearGradient><path d="m100.03 112.8c0.11-2.84 2.23-8.7 5-9.19 0.17-0.03 0.32-0.11 0.41-0.25 0.44-0.67 1.85-2.47 4.43-1.05 0.96 0.53 1.3 1 1.14 1.68 0.12 0.14 0.34 0.31 0.66 0.18 1.04-1.16 2.32-1.4 3.81-0.24 1.69 1.32 1.69 2.26 1.38 3.19l0.01 0.01s0.08 0.65 0.56 0.59c0.51-0.44 1.13-0.44 2.09 0.26 2.6 1.88 1.53 3.66 1.09 4.71 0.06 0.1 0.16 0.17 0.32 0.16 0.34-0.18 0.77-0.18 1.35 0.15 1.38 0.79 1.18 3.39 0.79 4.24-0.43 0.93-2.8 4.19-3.62 5.11-0.19 0.21-0.42 0.36-0.67 0.46 0.03-0.01 0.06-0.02 0.08-0.03-0.71 0.44-1.95 0.97-3.16 0.22 0 0-0.77-0.56-0.84-1.15-1.31 0.73-3.12-0.63-3.12-0.63-0.85-0.65-1.07-1.38-1.04-2.01-0.43 0.26-0.9 0.36-1.35 0.37-1.36 0.04-2.61-0.76-2.61-0.76-1.95-1.11-2.34-2.27-2.33-3.04-1.01 0.63-2.26 0.16-2.26 0.16-2.19-0.99-2.12-3.14-2.12-3.14z" fill="url(#j)"/><path d="m99.39 112.78v0c0.12-3.05 2.36-9.23 5.51-9.77 1.25-1.91 3.22-2.38 5.27-1.26 0.62 0.34 1.3 0.81 1.47 1.55 1.26-1.07 2.74-1.04 4.22 0.12 1.75 1.36 1.92 2.51 1.72 3.47 1-0.38 1.96 0.31 2.31 0.57 2.36 1.7 2.08 3.48 1.66 4.63 0.33 0.03 0.68 0.14 1.04 0.35 1.78 1.01 1.54 4.01 1.05 5.06-0.47 1.01-2.86 4.31-3.72 5.26-0.19 0.21-0.43 0.39-0.7 0.54-0.01 0-0.01 0.01-0.02 0.01-0.73 0.46-1.47 0.69-2.18 0.69-0.59 0-1.17-0.16-1.7-0.5-0.11-0.08-0.53-0.41-0.82-0.87-1.5 0.3-3.07-0.87-3.14-0.93-0.68-0.52-1.02-1.09-1.18-1.61-0.26 0.07-0.53 0.1-0.82 0.11-1.52 0.03-2.91-0.83-2.94-0.85-1.59-0.9-2.27-1.88-2.52-2.71-1 0.23-1.93-0.11-2.01-0.14-2.55-1.13-2.5-3.62-2.5-3.72zm2.7 1.52c0.79 0.59 1.5 0.68 2.08 0.44 0.57-0.47 1.08-1.42 1.08-1.42 2.25-4.13 3.8-6.2 3.8-6.2 0.15-0.18 0.48-0.75 0.95-1.04 0.59-0.36 0.42 0.28 0.42 0.28-2.62 4.08-4.21 7.34-4.21 7.34-0.68 1.24-0.56 2.11-0.36 2.6 0.22 0.59 1.53 1.43 1.53 1.43 2.64 1.58 3.86-0.53 3.86-0.53s1.55-1.94 4.14-6.78c0 0 0.41-0.67 0.65-0.21 0 0-0.14 0.82-0.52 1.6 0 0-1.18 2.8-3.46 6.03-0.02 0.05-0.03 0.1-0.05 0.15-0.04 0.11-0.08 0.23-0.11 0.34-0.01 0.04-0.01 0.08-0.02 0.13-0.02 0.11-0.04 0.22-0.04 0.33 0 0.04 0.01 0.07 0.01 0.1 0 0.11 0.01 0.21 0.03 0.31l0.03 0.09c0.02 0.1 0.05 0.2 0.09 0.29 0.01 0.03 0.03 0.06 0.04 0.09 0.04 0.09 0.08 0.17 0.13 0.25 0.02 0.03 0.05 0.06 0.07 0.1 0.05 0.07 0.09 0.13 0.15 0.19 0.04 0.04 0.09 0.08 0.13 0.12s0.08 0.08 0.13 0.12c0.09 0.07 0.19 0.14 0.28 0.19 0.22 0.13 0.42 0.2 0.63 0.26 0.06 0.02 0.12 0.02 0.18 0.03 0.14 0.02 0.27 0.04 0.4 0.04 0.06 0 0.13-0.01 0.19-0.02 0.12-0.02 0.24-0.04 0.35-0.08 0.05-0.02 0.11-0.03 0.16-0.06 0.12-0.05 0.24-0.12 0.36-0.19 0.03-0.02 0.06-0.03 0.09-0.05 0.59-0.58 1.95-2.14 3.93-5.71 0 0 0.39-0.9 0.58-0.59 0 0 0.2 0.24-0.35 1.62 0 0-0.79 1.98-2.79 4.63-0.73 1.01-0.66 1.5-0.37 1.81 0.02 0.02 0.05 0.04 0.07 0.07 0.14 0.13 0.31 0.23 0.48 0.32 0.56 0.06 1.1-0.13 1.54-0.37 0.05-0.05 0.12-0.09 0.19-0.12 0.19-0.08 0.34-0.18 0.44-0.3 0.85-0.95 3.13-4.12 3.51-4.95 0.33-0.72 0.42-2.88-0.52-3.42-0.48-0.28-0.67-0.18-0.73-0.14-0.08 0.05-0.18 0.07-0.27 0.08-0.37 0.02-0.71-0.15-0.9-0.47-0.1-0.17-0.12-0.38-0.04-0.57l0.12-0.27c0.46-1.05 0.98-2.24-1-3.67-0.89-0.65-1.15-0.43-1.3-0.29-0.1 0.08-0.22 0.14-0.34 0.15-0.69 0.08-1.13-0.44-1.25-1.02-0.04-0.13-0.05-0.27 0-0.41 0.18-0.56 0.41-1.26-1.17-2.49-1.12-0.87-2.06-0.82-2.94 0.16-0.07 0.07-0.15 0.13-0.24 0.17-0.51 0.2-1.02 0.07-1.39-0.36-0.13-0.16-0.18-0.36-0.13-0.56 0.05-0.19 0.11-0.46-0.82-0.97-1.48-0.81-2.69-0.53-3.59 0.84-0.18 0.28-0.48 0.46-0.83 0.53-0.11 0.02-0.22 0.06-0.33 0.1-1.13 1.8-2.32 4.06-2.84 5.05-0.98 1.8-1.61 3.59 0.09 4.88z" fill="#ED9E00"/></g><g clip-path="url(#a)"><linearGradient id="i" x1="64" x2="64" y1="74.526" y2="142.94" gradientUnits="userSpaceOnUse"><stop stop-color="#4DD0E1" offset="0"/><stop stop-color="#00BCD4" offset="1"/></linearGradient><path d="M24.5,142.5c-3.58,0-6.5-2.92-6.5-6.5V81.17c0-3.58,2.92-6.5,6.5-6.5h79 c3.58,0,6.5,2.92,6.5,6.5V136c0,3.58-2.92,6.5-6.5,6.5H24.5z" fill="url(#i)"/><path d="m103.5 76.17c2.76 0 5 2.24 5 5v54.83c0 2.76-2.24 5-5 5h-79c-2.76 0-5-2.24-5-5v-54.83c0-2.76 2.24-5 5-5h79m0-3h-79c-4.42 0-8 3.58-8 8v54.83c0 4.42 3.58 8 8 8h79c4.42 0 8-3.58 8-8v-54.83c0-4.42-3.58-8-8-8z" fill="#00B3C1"/></g><linearGradient id="h" x1="64" x2="64" y1="92.596" y2="131.87" gradientUnits="userSpaceOnUse"><stop stop-color="#00BCD4" offset="0"/><stop stop-color="#0097A7" offset="1"/></linearGradient><path d="m76.91 117.56c-1.37-4.66-1.94-12.44-2.18-17.87-0.15-3.43-2.99-6.13-6.45-6.13h-8.55c-3.46 0-6.3 2.7-6.45 6.13-0.24 5.44-0.81 13.21-2.18 17.87-2.27 7.72-5.81 13.99 0.34 13.99h12.18 0.77 12.18c6.15 0 2.6-6.27 0.34-13.99z" clip-path="url(#a)" fill="url(#h)"/></svg>
