<?xml version="1.0" encoding="utf-8"?>
<!-- Generator: Adobe Illustrator 24.0.3, SVG Export Plug-In . SVG Version: 6.00 Build 0)  -->
<svg version="1.1" id="Layer_1" xmlns="http://www.w3.org/2000/svg" xmlns:xlink="http://www.w3.org/1999/xlink" x="0px" y="0px"
	 viewBox="0 0 128 128" style="enable-background:new 0 0 128 128;" xml:space="preserve">
<g id="shirt_1_">
	<linearGradient id="SVGID_1_" gradientUnits="userSpaceOnUse" x1="64" y1="96.1797" x2="64" y2="124">
		<stop  offset="0" style="stop-color:#F78C1F"/>
		<stop  offset="0.4945" style="stop-color:#F37F21"/>
		<stop  offset="1" style="stop-color:#ED6D23"/>
	</linearGradient>
	<path style="fill:url(#SVGID_1_);" d="M113.63,119.96c0-15.61-24.9-23.78-49.5-23.78H64c-13.44,0.01-25.71,2.1-34.54,5.86
		c-10.02,4.27-15.1,10.3-15.1,17.92V124h99.27V119.96z"/>
	<g>
		<path style="fill:#DA6727;" d="M15.87,119.96c0-15.35,24.18-22.25,48.14-22.28l0.12,0c12.78,0,25.13,2.22,33.89,6.1
			c6.44,2.85,14.12,7.97,14.12,16.18V124h3v-4.04c0-16.76-25.4-25.28-51-25.28c-0.04,0-0.09,0-0.13,0
			c-25.49,0.03-51.13,7.5-51.13,25.28V124h3V119.96z"/>
	</g>
</g>
<g id="neck_1_">
	<path style="fill:#99674F;" d="M63.17,107.23c-4,0-7.26-3.22-7.26-7.17v-8.98h16.16v8.98c0,3.96-3.25,7.17-7.26,7.17H63.17z"/>
	<g>
		<path style="fill:#875740;" d="M71.08,92.08v7.98c0,3.4-2.81,6.17-6.26,6.17h-1.65c-3.45,0-6.26-2.77-6.26-6.17v-7.98H71.08
			 M73.08,90.08H54.92v9.98c0,4.51,3.7,8.17,8.26,8.17h1.65c4.56,0,8.26-3.66,8.26-8.17V90.08L73.08,90.08z"/>
	</g>
</g>
<g id="ears_1_">
	<path style="fill:#99674F;" d="M36.67,72.26c-5.36,0-9.71-4.67-9.71-10.41s4.36-10.41,9.71-10.41h54.65
		c5.36,0,9.71,4.67,9.71,10.41s-4.36,10.41-9.71,10.41H36.67z"/>
	<g>
		<path style="fill:#875740;" d="M91.33,52.43c4.8,0,8.71,4.22,8.71,9.41s-3.91,9.41-8.71,9.41H36.67c-4.8,0-8.71-4.22-8.71-9.41
			s3.91-9.41,8.71-9.41H91.33 M91.33,50.43H36.67c-5.89,0-10.71,5.14-10.71,11.41c0,6.28,4.82,11.41,10.71,11.41h54.65
			c5.89,0,10.71-5.14,10.71-11.41C102.04,55.57,97.22,50.43,91.33,50.43L91.33,50.43z"/>
	</g>
</g>
<g id="head">
	<linearGradient id="SVGID_2_" gradientUnits="userSpaceOnUse" x1="64.0002" y1="94.5914" x2="64.0002" y2="12.8253">
		<stop  offset="0" style="stop-color:#A47B62"/>
		<stop  offset="0.5" style="stop-color:#BA8D68"/>
	</linearGradient>
	<path style="fill:url(#SVGID_2_);" d="M64,95.27c-15.66,0-32.52-12.14-32.52-38.81c0-27.38,12.46-44.4,32.52-44.4
		c20.06,0,32.52,17.01,32.52,44.4c0,12.09-3.51,22.19-10.14,29.21C80.52,91.86,72.57,95.27,64,95.27z"/>
	<g>
		<path style="fill:#91674D;" d="M64,13.07c19.44,0,31.52,16.63,31.52,43.39c0,11.83-3.41,21.7-9.87,28.52
			c-5.67,5.99-13.36,9.29-21.65,9.29c-8.29,0-15.98-3.3-21.65-9.29c-6.46-6.82-9.87-16.69-9.87-28.52
			C32.48,29.69,44.56,13.07,64,13.07 M64,11.07c-21.36,0-33.52,18.61-33.52,45.39c0,26.64,16.61,39.81,33.52,39.81
			S97.52,83.1,97.52,56.46C97.52,29.68,85.36,11.07,64,11.07L64,11.07z"/>
	</g>
</g>
<g id="eyes_1_">
	<ellipse style="fill:#49362E;" cx="47.56" cy="58.81" rx="4.93" ry="5.1"/>
	<ellipse style="fill:#49362E;" cx="80.44" cy="58.81" rx="4.93" ry="5.1"/>
</g>
<g id="eyebrows_1_">
	<path style="fill:#613E31;" d="M54.98,49.82c-0.93-1.23-3.07-3.01-7.23-3.01s-6.31,1.79-7.23,3.01c-0.41,0.54-0.31,1.17-0.02,1.55
		c0.26,0.35,1.04,0.68,1.9,0.39c0.86-0.29,2.54-1.16,5.35-1.18c2.81,0.02,4.49,0.89,5.35,1.18c0.86,0.29,1.64-0.03,1.9-0.39
		C55.29,50.99,55.39,50.36,54.98,49.82z"/>
	<path style="fill:#613E31;" d="M87.48,49.82c-0.93-1.23-3.07-3.01-7.23-3.01c-4.16,0-6.31,1.79-7.23,3.01
		c-0.41,0.54-0.31,1.17-0.02,1.55c0.26,0.35,1.04,0.68,1.9,0.39c0.86-0.29,2.54-1.16,5.35-1.18c2.81,0.02,4.49,0.89,5.35,1.18
		c0.86,0.29,1.64-0.03,1.9-0.39C87.79,50.99,87.89,50.36,87.48,49.82z"/>
</g>
<path id="nose_1_" style="fill:#99674F;" d="M67.86,68.06c-0.11-0.04-0.21-0.07-0.32-0.08h-7.07c-0.11,0.01-0.22,0.04-0.32,0.08
	c-0.64,0.26-0.99,0.92-0.69,1.63c0.3,0.71,1.71,2.69,4.55,2.69c2.84,0,4.25-1.99,4.55-2.69C68.85,68.98,68.5,68.32,67.86,68.06z"/>
<path id="mouth_1_" style="fill:#5D4037;" d="M72.42,76.14c-3.19,1.89-13.63,1.89-16.81,0c-1.83-1.09-3.7,0.58-2.94,2.24
	c0.75,1.63,6.45,5.42,11.37,5.42s10.55-3.79,11.3-5.42C76.09,76.72,74.25,75.05,72.42,76.14z"/>
</svg>
