<svg width="128" height="128" style="enable-background:new 0 0 128 128;" xmlns="http://www.w3.org/2000/svg" xmlns:xlink="http://www.w3.org/1999/xlink">
  <g>
    <g>
      <path d="M27.91,86.37C15.83,86.37,6,75.32,6,61.74C6,48.15,15.83,37.1,27.91,37.1s21.91,11.05,21.91,24.64 C49.82,75.32,39.99,86.37,27.91,86.37z" style="fill:#E6B175;"/>
      <path d="M27.91,39.1c10.98,0,19.91,10.15,19.91,22.64s-8.93,22.64-19.91,22.64S8,74.22,8,61.74 S16.93,39.1,27.91,39.1 M27.91,35.1C14.71,35.1,4,47.02,4,61.74s10.71,26.64,23.91,26.64s23.91-11.93,23.91-26.64 S41.12,35.1,27.91,35.1L27.91,35.1z" style="fill:#8B5E3C;"/>
    </g>
    <g>
      <path d="M100.09,86.37c-12.08,0-21.91-11.05-21.91-24.64c0-13.58,9.83-24.64,21.91-24.64 S122,48.15,122,61.74C122,75.32,112.17,86.37,100.09,86.37z" style="fill:#E6B175;"/>
      <path d="M100.09,39.1c10.98,0,19.91,10.15,19.91,22.64s-8.93,22.64-19.91,22.64S80.18,74.22,80.18,61.74 S89.11,39.1,100.09,39.1 M100.09,35.1c-13.21,0-23.91,11.93-23.91,26.64s10.71,26.64,23.91,26.64S124,76.45,124,61.74 S113.29,35.1,100.09,35.1L100.09,35.1z" style="fill:#8B5E3C;"/>
    </g>
  </g>
  <g>
    <linearGradient id="SVGID_1_" gradientUnits="userSpaceOnUse" x1="64" x2="64" y1="109.6006" y2="9.6001">
      <stop offset="0" style="stop-color:#825C40"/>
      <stop offset="0.1672" style="stop-color:#855F41"/>
      <stop offset="0.3105" style="stop-color:#906746"/>
      <stop offset="0.4445" style="stop-color:#A2764D"/>
      <stop offset="0.4881" style="stop-color:#A97C50"/>
    </linearGradient>
    <path d="M64,109.6c-14.34,0-26.67-5.46-35.64-15.79C20.07,84.27,15.5,71.51,15.5,57.88 C15.5,33.85,30.5,9.6,64,9.6c33.5,0,48.5,24.25,48.5,48.28c0,13.63-4.57,26.39-12.86,35.94C90.67,104.14,78.34,109.6,64,109.6z" style="fill:url(#SVGID_1_);"/>
    <path d="M64,11.1c14.34,0,26.38,4.72,34.8,13.64c7.87,8.33,12.2,20.1,12.2,33.14 c0,13.27-4.44,25.68-12.49,34.95C89.83,102.82,77.9,108.1,64,108.1s-25.83-5.28-34.51-15.27C21.44,83.56,17,71.15,17,57.88 c0-13.04,4.33-24.81,12.2-33.14C37.62,15.82,49.66,11.1,64,11.1 M64,8.1c-31.96,0-50,22.29-50,49.78s18.6,53.22,50,53.22 s50-25.73,50-53.22S95.96,8.1,64,8.1L64,8.1z" style="fill:#8B5E3C;"/>
  </g>
  <linearGradient id="SVGID_2_" gradientUnits="userSpaceOnUse" x1="64" x2="64" y1="32.3953" y2="105.4957">
    <stop offset="0.2592" style="stop-color:#E6B175"/>
    <stop offset="0.4545" style="stop-color:#E2AC70"/>
    <stop offset="0.6859" style="stop-color:#D59E62"/>
    <stop offset="0.9346" style="stop-color:#C0884A"/>
    <stop offset="0.9692" style="stop-color:#BD8446"/>
  </linearGradient>
  <path d="M105.12,52.21c0-10.94-9.23-19.81-20.61-19.81c-10.14,0-18.55,7.04-20.27,16.31 c-0.1,0-0.21-0.01-0.31-0.01c-0.06,0-0.11,0-0.17,0C62.03,39.43,53.62,32.4,43.49,32.4c-11.38,0-20.61,8.87-20.61,19.81 c0,5.88,2.68,11.14,6.91,14.77c-1.15,2.59-1.78,5.36-1.78,8.24c0,14.65,16.08,30.28,35.92,30.28c19.84,0,35.92-15.63,35.92-30.28 c0-2.84-0.61-5.58-1.73-8.15C102.4,63.44,105.12,58.13,105.12,52.21z" style="fill:url(#SVGID_2_);"/>
  <g>
    <path d="M90.61,57.28l-7.95-1.82l8.16-3.85c0.09-0.05,0.18-0.11,0.27-0.17c1.7-1.19,1.97-3.65,0.44-5.19 c-1.18-1.19-3.11-1.22-4.49-0.26c-3.23,2.27-10.84,7.6-13.81,9.68c-0.53,0.37-0.45,1.18,0.15,1.45l14.98,6.55 c0.1,0.04,0.21,0.09,0.32,0.12c1.98,0.64,4.12-0.64,4.41-2.8C93.32,59.33,92.2,57.79,90.61,57.28z" style="fill:#404040;"/>
    <path d="M37.39,57.28l7.95-1.82l-8.16-3.85c-0.09-0.05-0.18-0.11-0.27-0.17c-1.7-1.19-1.97-3.65-0.44-5.19 c1.18-1.19,3.11-1.22,4.49-0.26c3.23,2.27,10.84,7.6,13.81,9.68c0.53,0.37,0.45,1.18-0.15,1.45l-14.98,6.55 c-0.1,0.04-0.21,0.09-0.32,0.12c-1.98,0.64-4.12-0.64-4.41-2.8C34.68,59.33,35.8,57.79,37.39,57.28z" style="fill:#404040;"/>
  </g>
  <g>
    <ellipse cx="58.75" cy="65.85" rx="2.44" ry="3.91" style="fill:#404040;"/>
    <ellipse cx="69.25" cy="65.85" rx="2.44" ry="3.91" style="fill:#404040;"/>
  </g>
  <g>
    <g>
      <linearGradient id="SVGID_3_" gradientUnits="userSpaceOnUse" x1="15.8037" x2="15.8037" y1="119.1178" y2="76.4699">
        <stop offset="0" style="stop-color:#825C40"/>
        <stop offset="0.0448" style="stop-color:#876042"/>
        <stop offset="0.2788" style="stop-color:#9A6F4A"/>
        <stop offset="0.5183" style="stop-color:#A5794E"/>
        <stop offset="0.7696" style="stop-color:#A97C50"/>
      </linearGradient>
      <path d="M7.81,118.4c-0.4,0-0.78-0.16-1.06-0.45c-0.29-0.29-0.45-0.69-0.44-1.1 c0.08-4.97,0.27-14.63,0.62-23.45c0.26-6.53,0.29-10.44,0.27-12.57c-0.01-0.84,0.63-1.52,1.46-1.54l11.68-0.34 c0.82,0,1.46,0.59,1.53,1.38l3.42,36.4c0.04,0.44-0.1,0.86-0.39,1.18c-0.29,0.32-0.68,0.49-1.1,0.49H7.81z" style="fill:url(#SVGID_3_);"/>
      <path d="M20.38,80.45l0,0.02l3.42,36.43l-15.99-0.03c0.08-4.96,0.27-14.6,0.62-23.42 c0.21-5.19,0.3-9.57,0.27-12.68L20.38,80.45L20.38,80.45 M20.38,77.45c-0.03,0-0.06,0-0.09,0L8.61,77.78 c-1.64,0.05-2.93,1.4-2.91,3.06c0.02,2.3-0.02,6.19-0.27,12.5c-0.36,8.9-0.54,18.65-0.62,23.49c-0.03,1.69,1.32,3.07,3,3.07H23.8 c1.77,0,3.15-1.54,2.99-3.31l-3.42-36.4C23.22,78.63,21.92,77.45,20.38,77.45L20.38,77.45z" style="fill:#8B5E3C;"/>
    </g>
    <g>
      <path d="M14.54,84.47c-0.65,0-1.13-0.08-1.41-0.16c-5.78-1.46-5.99-3.53-6.84-12.23l-0.02-0.25 C4.48,53.6,5.6,46.11,11.52,36.99c2.55-3.93,9.26-11.63,13.22-11.63c0.46,0,1.68,0,2.62,2.44c0.79,2.07-1.34,5.43-3.61,8.99 c-2.71,4.26-5.77,9.09-5.99,14.45c-0.08,2.12,0.29,3.52,0.87,5.65c0.77,2.86,1.94,7.18,2.97,16.93c0.4,3.79-0.23,6.64-1.88,8.47 C17.95,84.26,15.51,84.47,14.54,84.47z" style="fill:#FFC1AD;"/>
      <path d="M24.74,26.86c0.16,0,0.65,0,1.22,1.48c0.52,1.36-1.69,4.85-3.47,7.65 c-2.81,4.42-5.99,9.43-6.22,15.19c-0.09,2.35,0.33,3.92,0.92,6.1c0.76,2.81,1.91,7.06,2.93,16.7c0.35,3.3-0.17,5.83-1.51,7.31 c-1.37,1.52-3.3,1.68-4.07,1.68c-0.52,0-0.88-0.07-1.04-0.11c-4.63-1.17-4.84-2.02-5.71-10.92l-0.02-0.25 c-1.75-17.83-0.67-25.11,5.02-33.88c0.77-1.18,2.93-4.12,5.66-6.81C21.53,27.94,23.72,26.86,24.74,26.86 M24.74,23.86 c-5.13,0-12.48,9.24-14.48,12.32c-6,9.25-7.34,16.96-5.49,35.81C5.66,81,5.89,84.04,12.76,85.77c0.5,0.13,1.11,0.2,1.78,0.2 c3.81,0,9.6-2.46,8.56-12.31c-1.78-16.9-4.02-17.82-3.83-22.36c0.4-9.84,11.64-18.46,9.5-24.04 C27.83,24.82,26.4,23.86,24.74,23.86L24.74,23.86z" style="fill:#E39581;"/>
    </g>
  </g>
  <g>
    <g>
      <linearGradient id="SVGID_4_" gradientTransform="matrix(-1 0 0 1 352.5596 0)" gradientUnits="userSpaceOnUse" x1="240.3628" x2="240.3628" y1="119.1178" y2="76.4699">
        <stop offset="0" style="stop-color:#825C40"/>
        <stop offset="0.0448" style="stop-color:#876042"/>
        <stop offset="0.2788" style="stop-color:#9A6F4A"/>
        <stop offset="0.5183" style="stop-color:#A5794E"/>
        <stop offset="0.7696" style="stop-color:#A97C50"/>
      </linearGradient>
      <path d="M104.2,118.4c-0.42,0-0.81-0.17-1.1-0.49c-0.29-0.32-0.43-0.74-0.39-1.18l3.42-36.4 c0.07-0.79,0.72-1.38,1.49-1.38l11.72,0.34c0.83,0.02,1.47,0.7,1.46,1.54c-0.02,2.13,0.01,6.04,0.27,12.57 c0.36,8.87,0.54,18.5,0.62,23.45c0.01,0.42-0.15,0.81-0.44,1.1c-0.28,0.29-0.66,0.45-1.06,0.45H104.2z" style="fill:url(#SVGID_4_);"/>
      <path d="M107.64,80.45l11.66,0.36c-0.03,3.08,0.06,7.45,0.27,12.65c0.35,8.81,0.54,18.45,0.62,23.44 l-15.99-0.03L107.64,80.45 M107.62,77.45c-1.54,0-2.84,1.18-2.99,2.74l-3.42,36.4c-0.17,1.78,1.22,3.31,2.99,3.31h15.99 c1.68,0,3.03-1.38,3-3.07c-0.08-4.84-0.26-14.59-0.62-23.49c-0.25-6.31-0.29-10.2-0.27-12.5c0.02-1.65-1.28-3.01-2.91-3.06 l-11.68-0.34C107.68,77.45,107.65,77.45,107.62,77.45L107.62,77.45z" style="fill:#8B5E3C;"/>
    </g>
    <g>
      <path d="M113.46,84.47c-0.97,0-3.41-0.21-5.18-2.18c-1.65-1.83-2.28-4.68-1.88-8.47 c1.03-9.75,2.2-14.07,2.97-16.93c0.57-2.13,0.95-3.53,0.87-5.65c-0.22-5.36-3.28-10.19-5.99-14.45c-2.26-3.56-4.4-6.93-3.61-8.99 c0.94-2.44,2.16-2.44,2.62-2.44c3.96,0,10.67,7.7,13.22,11.63c5.92,9.12,7.05,16.61,5.26,34.85l-0.02,0.25 c-0.85,8.71-1.06,10.77-6.84,12.23C114.59,84.39,114.11,84.47,113.46,84.47L113.46,84.47z" style="fill:#FFC1AD;"/>
      <path d="M103.26,26.86c1.02,0,3.22,1.09,6.31,4.14c2.72,2.69,4.89,5.63,5.66,6.81 c5.69,8.77,6.77,16.06,5.02,33.88l-0.02,0.25c-0.87,8.9-1.09,9.76-5.71,10.92c-0.16,0.04-0.52,0.11-1.04,0.11 c-0.77,0-2.7-0.16-4.07-1.68c-1.33-1.48-1.86-4.01-1.51-7.31c1.02-9.63,2.17-13.88,2.93-16.7c0.59-2.18,1.01-3.75,0.92-6.1 c-0.23-5.76-3.42-10.77-6.22-15.19c-1.78-2.8-4-6.29-3.47-7.65C102.61,26.86,103.1,26.86,103.26,26.86 M103.26,23.86 c-1.66,0-3.08,0.96-4.02,3.41c-2.14,5.59,9.1,14.2,9.5,24.04c0.18,4.54-2.05,5.46-3.83,22.36c-1.04,9.84,4.75,12.31,8.56,12.31 c0.67,0,1.28-0.08,1.78-0.2c6.87-1.73,7.11-4.77,7.99-13.79c1.85-18.85,0.51-26.56-5.49-35.81 C115.74,33.09,108.39,23.86,103.26,23.86L103.26,23.86z" style="fill:#E39581;"/>
    </g>
  </g>
  <g>
    <defs>
      <path id="SVGID_5_" d="M63.99,76.54c-9.23,0-17.8-0.77-24.96-2.1c-1.77-0.33-3.34,1.23-2.98,3c2.38,11.64,13.83,21.19,27.93,21.19 c15.43,0,25.81-9.87,27.97-21.23c0.33-1.76-1.23-3.29-2.99-2.96C81.81,75.76,73.23,76.54,63.99,76.54z"/>
    </defs>
    <clipPath id="SVGID_6_">
      <use style="overflow:visible;" xlink:href="#SVGID_5_"/>
    </clipPath>
    <path d="M63.99,76.54c-9.23,0-17.8-0.77-24.96-2.1c-1.77-0.33-3.34,1.23-2.98,3 c2.38,11.64,13.83,21.19,27.93,21.19c15.43,0,25.81-9.87,27.97-21.23c0.33-1.76-1.23-3.29-2.99-2.96 C81.81,75.76,73.23,76.54,63.99,76.54z" style="clip-path:url(#SVGID_6_);fill:#242424;"/>
    <path d="M95.28,75.86v-8.75H32.72v8.75c9.62,5.65,20.18,8.8,31.28,8.8 S85.65,81.51,95.28,75.86z" style="clip-path:url(#SVGID_6_);fill:#FFFFFF;"/>
    <path d="M64,90.57c-6.92,0-12.95,3.77-16.17,9.37c4.18,2.28,9.88,3.69,16.17,3.69 s11.99-1.41,16.17-3.69C76.95,94.34,70.92,90.57,64,90.57z" style="clip-path:url(#SVGID_6_);fill:#FF4F4F;"/>
    <g style="clip-path:url(#SVGID_6_);">
      <defs>
        <path id="SVGID_7_" d="M32.72,67.11v8.75c9.62,5.65,20.18,8.8,31.28,8.8c11.09,0,21.65-3.14,31.28-8.8v-8.75H32.72z M64,90.57 c-6.92,0-12.95,3.77-16.17,9.37c4.18,2.28,9.88,3.69,16.17,3.69c6.29,0,11.99-1.41,16.17-3.69C76.95,94.34,70.92,90.57,64,90.57z "/>
      </defs>
      <clipPath id="SVGID_8_">
        <use style="overflow:visible;" xlink:href="#SVGID_7_"/>
      </clipPath>
      <g style="clip-path:url(#SVGID_8_);">
        <path d="M88.87,77.5c-1.08,4.82-3.83,9.21-7.81,12.44c-4.59,3.72-10.49,5.68-17.07,5.68 c-11.81,0-22.36-7.74-24.85-18.12c7.44,1.33,16.02,2.03,24.85,2.03C72.84,79.54,81.43,78.83,88.87,77.5 M89.44,74.39 c-0.16,0-0.32,0.01-0.48,0.04c-7.16,1.33-15.74,2.1-24.97,2.1c-9.23,0-17.8-0.77-24.96-2.1c-0.16-0.03-0.32-0.04-0.48-0.04 c-1.57,0-2.84,1.44-2.51,3.04c2.38,11.64,13.83,21.19,27.93,21.19c15.43,0,25.81-9.87,27.97-21.23 C92.26,75.8,90.99,74.39,89.44,74.39L89.44,74.39z" style="fill:#A87249;"/>
      </g>
    </g>
  </g>
</svg>