<?xml version="1.0" encoding="utf-8"?>
<!-- Generator: Adobe Illustrator 24.0.3, SVG Export Plug-In . SVG Version: 6.00 Build 0)  -->
<svg version="1.1" id="Layer_1" xmlns="http://www.w3.org/2000/svg" xmlns:xlink="http://www.w3.org/1999/xlink" x="0px" y="0px"
	 viewBox="0 0 128 128" style="enable-background:new 0 0 128 128;" xml:space="preserve">
<linearGradient id="SVGID_1_" gradientUnits="userSpaceOnUse" x1="64" y1="718.2499" x2="64" y2="837.91" gradientTransform="matrix(1 0 0 1 0 -714)">
	<stop  offset="0" style="stop-color:#FFAB40"/>
	<stop  offset="1" style="stop-color:#FF6D00"/>
</linearGradient>
<path style="fill:url(#SVGID_1_);" d="M116,124H12c-4.4,0-8-3.6-8-8V12c0-4.4,3.6-8,8-8h104c4.4,0,8,3.6,8,8v104
	C124,120.4,120.4,124,116,124z"/>
<g style="opacity:0.2;">
	<path style="fill:#424242;" d="M116,7c2.8,0,5,2.2,5,5v104c0,2.8-2.2,5-5,5H12c-2.8,0-5-2.2-5-5V12c0-2.8,2.2-5,5-5H116 M116,4H12
		c-4.4,0-8,3.6-8,8v104c0,4.4,3.6,8,8,8h104c4.4,0,8-3.6,8-8V12C124,7.6,120.4,4,116,4z"/>
</g>
<path style="fill:#FAFAFA;" d="M67.3,66h22.3c1.8,0,2.9-1.7,2-3.1L66,23c-0.9-1.4-3.2-1.4-4,0L36.3,62.9c-0.9,1.4,0.2,3.1,2,3.1
	h22.3l-24.4,37c-0.9,1.4,0.2,3,2,3H64h25.7c1.8,0,2.9-1.7,2-3L67.3,66z"/>
<path style="opacity:0.2;fill:#424242;enable-background:new    ;" d="M94.2,101.3L72.9,69h16.8c2,0,3.8-1,4.7-2.7
	c0.9-1.6,0.8-3.5-0.2-5L68.5,21.4c-1-1.5-2.7-2.4-4.5-2.4s-3.6,0.9-4.5,2.4L33.8,61.3c-1,1.5-1.1,3.4-0.2,5c0.9,1.7,2.7,2.7,4.7,2.7
	h16.8l-21.3,32.3c-1,1.5-1.1,3.4-0.2,5c0.9,1.7,2.7,2.7,4.8,2.7h51.3c2,0,3.8-1,4.8-2.7C95.3,104.7,95.2,102.8,94.2,101.3z
	 M89.7,106H38.3c-1.3,0-2.3-1-2.3-2c0-0.4,0.1-0.7,0.3-1.1l24.4-37h-3.6H38.3c-1.8,0-2.9-1.7-2-3.1L62,23c0.5-0.7,1.2-1.1,2-1l0,0
	c0.8,0,1.6,0.3,2,1l25.7,39.8c0.9,1.4-0.2,3.1-2,3.1l0,0H70.9h-3.6l0,0l2,3l0,0l22.4,34C92.6,104.3,91.5,106,89.7,106z"/>
</svg>
