<?xml version="1.0" encoding="utf-8"?>
<!-- Generator: Adobe Illustrator 16.0.0, SVG Export Plug-In . SVG Version: 6.00 Build 0)  -->
<!DOCTYPE svg PUBLIC "-//W3C//DTD SVG 1.1//EN" "http://www.w3.org/Graphics/SVG/1.1/DTD/svg11.dtd">
<svg version="1.1" id="レイヤー_1" xmlns="http://www.w3.org/2000/svg" xmlns:xlink="http://www.w3.org/1999/xlink" x="0px"
	 y="0px" width="128px" height="128px" viewBox="0 0 128 128" enable-background="new 0 0 128 128" xml:space="preserve">
<g>
	<path fill="#40C0E7" d="M127.61,95.13c0-0.19-0.01-0.39-0.05-0.58c-0.03-0.11-0.04-0.22-0.07-0.32c0.04-0.33,0.06-0.67,0.05-1.01
		l-1.23-31.56c-0.05-1.26-0.44-2.47-1.12-3.52l-17.83-27.29c-0.59-0.9-1.38-1.65-2.31-2.2L71.44,8.99
		c-0.93-0.54-1.97-0.86-3.04-0.94L35.88,5.89l-0.46-0.02c-1.1,0-2.18,0.26-3.16,0.76L4.14,21.02c-2.94,1.5-4.41,4.87-3.52,8.04
		l24.56,87.99c0.85,3.06,3.64,5.07,6.68,5.07c0.55,0,1.1-0.06,1.65-0.2l88.74-21.7c1.59-0.39,2.94-1.31,3.88-2.54
		c0.04-0.02,0.07-0.03,0.11-0.05c0.08-0.04,0.12-0.12,0.19-0.17c0.17-0.13,0.33-0.27,0.47-0.42c0.11-0.12,0.21-0.24,0.29-0.37
		c0.1-0.17,0.18-0.34,0.25-0.52c0.06-0.16,0.11-0.32,0.14-0.49c0.01-0.07,0.05-0.13,0.06-0.21
		C127.65,95.34,127.61,95.24,127.61,95.13z"/>
	<g>
		<polygon fill="#FFFFFF" points="119.49,65.13 120.14,81.6 110.76,65.68 		"/>
		<path fill="#FFFFFF" d="M61.54,73.2c2.13-2.94,4.66-5.88,6.55-8.96c1.11-1.81,2.23-3.58,3.39-5.36c0.06-0.09,0.18-0.32,0.33-0.58
			l6,26.86l-18.34-9.33C60.17,74.96,60.88,74.11,61.54,73.2z"/>
		<path fill="#FFFFFF" d="M103.4,89.93c0.42-1.03,0.36-2.64,0.47-3.46c0.79-5.85,0.87-11.94,1.96-17.77l13.52,22.95L103.4,89.93z"/>
		<polygon fill="#FFFFFF" points="83.55,84.31 77.75,58.35 100.67,64.66 		"/>
		<polygon fill="#FFFFFF" points="40.79,63.39 44.47,37.03 67.72,53.47 		"/>
		<path fill="#FFFFFF" d="M30.29,39.56c2.54-1.74,5.13-3.5,7.66-5.32L39,34.39l-3.7,26.42l-12.68-15.6
			C25.2,43.34,27.67,41.34,30.29,39.56z"/>
		<polygon fill="#FFFFFF" points="39.66,72.24 75.52,90.48 35.33,110.26 		"/>
		<polygon fill="#FFFFFF" points="67.94,14.98 101.54,34.64 117.75,59.44 106.18,60.17 75.14,51.63 44.75,30.14 39.61,13.09 		"/>
		<polygon fill="#FFFFFF" points="33.75,13.67 38.19,28.44 12.03,24.77 		"/>
		<polygon fill="#FFFFFF" points="10.84,39.87 34.24,68.66 29.79,107.78 		"/>
	</g>
</g>
</svg>
