<svg enable-background="new 0 0 128 128" viewBox="0 0 128 128" xmlns="http://www.w3.org/2000/svg"><linearGradient id="a" x1="25.756" x2="90.861" y1="16.42" y2="104.65" gradientTransform="matrix(.9948 -.1017 .1017 .9948 -6.2302 6.5452)" gradientUnits="userSpaceOnUse"><stop stop-color="#EF5350" offset=".00026808"/><stop stop-color="#EB4F4C" offset=".2753"/><stop stop-color="#E04442" offset=".5363"/><stop stop-color="#CD3130" offset=".7909"/><stop stop-color="#B71C1C" offset="1"/></linearGradient><path d="m18.1 47 60.26 76.88 5.09-32.05 32.34 2.71-60.26-76.88c-1.74-2.22-4.94-2.6-7.15-0.87l-29.4 23.05c-2.23 1.74-2.62 4.94-0.88 7.16zm20.42-3.52c-1.9-2.43-1.48-5.94 0.95-7.84s5.94-1.48 7.84 0.95 1.48 5.94-0.95 7.84-5.94 1.47-7.84-0.95z" fill="url(#a)"/><g opacity=".2"><path d="m51.51 18.02c0.86 0 1.66 0.39 2.19 1.06l56.98 72.69-27.04-2.27c-0.07-0.01-0.13-0.01-0.2-0.01-1.13 0-2.11 0.82-2.29 1.95l-4.26 26.8-56.97-72.67c-0.46-0.58-0.66-1.31-0.57-2.05s0.46-1.4 1.04-1.85l29.4-23.05c0.51-0.39 1.1-0.6 1.72-0.6m-8.59 29.91c1.76 0 3.49-0.6 4.87-1.68 3.43-2.69 4.03-7.67 1.34-11.1-1.51-1.92-3.78-3.03-6.22-3.03-1.76 0-3.49 0.6-4.87 1.68-1.66 1.3-2.72 3.17-2.97 5.27s0.32 4.16 1.63 5.83c1.5 1.93 3.77 3.03 6.22 3.03m8.59-32.22c-1.1 0-2.21 0.35-3.14 1.09l-29.4 23.05c-2.22 1.74-2.6 4.94-0.87 7.15l60.26 76.88 5.09-32.05 32.34 2.71-60.26-76.88c-1.01-1.28-2.5-1.95-4.02-1.95zm-8.59 29.91c-1.66 0-3.3-0.73-4.4-2.14-1.9-2.43-1.48-5.94 0.95-7.84 1.02-0.8 2.24-1.19 3.44-1.19 1.66 0 3.3 0.73 4.4 2.14 1.9 2.43 1.48 5.94-0.95 7.84-1.02 0.8-2.24 1.19-3.44 1.19z" fill="#424242"/></g><path d="m32.46 29.21c0.56-0.06 1.03-0.48 1.13-1.06 0.54-3.18 0.11-5.64-1.43-8.24-0.86-1.46-1.97-2.7-3.04-3.9l-0.67-0.76c-1.15-1.31-2.28-2.75-2.82-4.36-0.53-1.6-0.37-3.24 0.44-4.29 0.43-0.56 0.32-1.36-0.24-1.79s-1.36-0.32-1.79 0.24c-1.33 1.74-1.65 4.23-0.83 6.65 0.68 2.04 2 3.72 3.32 5.23l0.69 0.78c1.04 1.16 2.01 2.26 2.75 3.5 1.24 2.09 1.55 3.92 1.11 6.52-0.12 0.69 0.35 1.35 1.04 1.47 0.11 0.02 0.22 0.03 0.34 0.01z" fill="#B28146"/><g opacity=".2"><path d="m25.05 5.53c0.06 0 0.12 0.02 0.18 0.06 0.13 0.1 0.15 0.28 0.05 0.41-1 1.31-1.23 3.3-0.59 5.2 0.6 1.78 1.8 3.31 3.02 4.7l0.68 0.77c1.04 1.16 2.11 2.37 2.92 3.74 1.43 2.42 1.81 4.61 1.3 7.58-0.03 0.15-0.15 0.23-0.28 0.24h-0.05c-0.16-0.03-0.27-0.18-0.24-0.34 0.48-2.82 0.12-4.9-1.23-7.19-0.78-1.33-1.79-2.46-2.86-3.65l-0.69-0.77c-1.25-1.43-2.5-3.02-3.13-4.9-0.71-2.11-0.45-4.26 0.68-5.74 0.09-0.1 0.2-0.11 0.24-0.11m0-0.99c-0.38 0-0.76 0.17-1.01 0.5-1.33 1.74-1.65 4.23-0.83 6.65 0.68 2.04 2 3.72 3.32 5.23l0.69 0.78c1.04 1.16 2.01 2.26 2.75 3.5 1.24 2.09 1.55 3.92 1.11 6.52-0.12 0.69 0.35 1.35 1.04 1.47 0.07 0.01 0.14 0.02 0.22 0.02 0.04 0 0.09 0 0.13-0.01 0.56-0.06 1.03-0.48 1.13-1.06 0.54-3.18 0.11-5.64-1.43-8.24-0.86-1.46-1.97-2.7-3.04-3.9l-0.67-0.76c-1.15-1.31-2.28-2.75-2.82-4.36-0.53-1.6-0.37-3.24 0.44-4.29 0.43-0.56 0.32-1.36-0.24-1.79-0.25-0.17-0.52-0.26-0.79-0.26z" fill="#424242"/></g><path d="m42.18 36.05c0.57-0.06 1.04-0.51 1.11-1.12 0.04-0.39 0.16-0.8 0.28-1.24 0.43-1.55 1.02-3.66-1.09-6.43-2.64-3.45-6.32-3.22-8.66-1.97-0.61 0.33-0.85 1.1-0.53 1.73s1.08 0.88 1.69 0.55c0.54-0.29 3.35-1.58 5.53 1.27 1.32 1.73 1.04 2.74 0.65 4.13-0.15 0.52-0.3 1.06-0.36 1.65-0.08 0.7 0.41 1.35 1.1 1.43 0.09 0.01 0.19 0.01 0.28 0z" fill="#C79F62"/><g opacity=".2"><path d="m37.14 25.42c1.24 0 3.03 0.42 4.56 2.43 1.82 2.38 1.35 4.08 0.93 5.57-0.13 0.46-0.26 0.93-0.31 1.39-0.02 0.16-0.13 0.25-0.24 0.26l0.1 0.97-0.16-0.98c-0.15-0.02-0.27-0.18-0.25-0.35 0.06-0.51 0.19-0.99 0.33-1.5 0.41-1.48 0.8-2.87-0.82-4.99-1.39-1.81-3.02-2.2-4.15-2.2-1.25 0-2.25 0.46-2.62 0.66-0.03 0.02-0.07 0.03-0.11 0.03-0.08 0-0.19-0.04-0.25-0.16-0.08-0.15-0.03-0.35 0.12-0.42 0.89-0.45 1.9-0.71 2.87-0.71m0-0.98c-1.22 0-2.37 0.34-3.32 0.84-0.61 0.33-0.85 1.1-0.53 1.73 0.23 0.44 0.67 0.7 1.12 0.7 0.19 0 0.39-0.05 0.57-0.14 0.27-0.14 1.11-0.54 2.16-0.54 1.04 0 2.28 0.39 3.37 1.81 1.32 1.73 1.04 2.74 0.65 4.13-0.15 0.52-0.3 1.06-0.36 1.65-0.08 0.7 0.41 1.35 1.1 1.43 0.05 0.01 0.1 0.01 0.15 0.01 0.04 0 0.08 0 0.12-0.01 0.57-0.06 1.04-0.51 1.11-1.12 0.04-0.39 0.16-0.8 0.28-1.24 0.43-1.55 1.02-3.66-1.09-6.43-1.57-2.07-3.52-2.82-5.33-2.82z" fill="#424242"/></g><path d="m37.69 39.35c0.66-0.07 1.19-0.59 1.22-1.23 0.03-0.71-0.54-1.3-1.29-1.33-1.78-0.06-3.05-0.22-4.42-1.87-1.78-2.16-1.47-4.59-0.65-6.01 0.36-0.63 0.11-1.4-0.54-1.73-0.66-0.33-1.48-0.09-1.84 0.53-1.2 2.11-1.69 5.68 0.89 8.81 2.06 2.5 4.31 2.77 6.44 2.84 0.06 0 0.13 0 0.19-0.01z" fill="#C79F62"/><g opacity=".2"><path d="m31.38 28.04c0.06 0 0.12 0.01 0.17 0.04 0.09 0.05 0.13 0.11 0.14 0.15 0.02 0.06 0.01 0.11-0.02 0.17-0.97 1.71-1.36 4.6 0.75 7.16 1.63 1.97 3.24 2.18 5.17 2.24 0.14 0 0.21 0.07 0.25 0.11 0.04 0.05 0.06 0.1 0.06 0.15-0.01 0.13-0.14 0.25-0.31 0.27l0.1 1.01-0.16-1.01c-1.97-0.07-3.89-0.3-5.68-2.47-2.25-2.73-1.83-5.83-0.79-7.65 0.05-0.1 0.18-0.17 0.32-0.17m0-1.02c-0.49 0-0.96 0.25-1.21 0.68-1.2 2.11-1.69 5.68 0.89 8.81 2.06 2.5 4.31 2.77 6.44 2.84h0.05c0.05 0 0.1 0 0.15-0.01 0.66-0.07 1.19-0.59 1.22-1.23 0.03-0.71-0.54-1.3-1.29-1.33-1.78-0.06-3.05-0.22-4.42-1.87-1.78-2.16-1.47-4.59-0.65-6.01 0.36-0.63 0.11-1.4-0.54-1.73-0.21-0.1-0.43-0.15-0.64-0.15z" fill="#424242"/></g><path d="m34.15 31.95c0.81-0.08 1.42-0.79 1.37-1.61-0.23-4.45-2.96-6.64-5.38-8.57l-0.68-0.54c-1.58-1.29-3.29-1.88-4.94-2.45-1.35-0.46-2.62-0.9-3.74-1.7-3.71-2.63-4.46-4.43-5.48-7.38-0.28-0.8-1.15-1.22-1.95-0.95-0.8 0.28-1.23 1.15-0.95 1.95 1.16 3.35 2.24 5.78 6.61 8.88 1.48 1.05 3.02 1.58 4.51 2.09 1.47 0.51 2.85 0.98 4 1.92l0.7 0.56c2.27 1.82 4.07 3.26 4.23 6.33 0.04 0.85 0.77 1.49 1.61 1.45 0.04 0.02 0.07 0.02 0.09 0.02z" fill="#F7B52C"/><g opacity=".2"><path d="m13.87 9.86c0.12 0 0.28 0.07 0.33 0.24 1.07 3.09 1.92 5.12 5.92 7.96 1.26 0.89 2.67 1.38 4.04 1.85 1.63 0.56 3.17 1.09 4.58 2.25l0.68 0.55c2.32 1.86 4.73 3.79 4.93 7.71 0.01 0.19-0.13 0.35-0.35 0.37-0.19 0-0.34-0.14-0.35-0.33-0.19-3.6-2.37-5.35-4.67-7.19l-0.69-0.56c-1.32-1.07-2.86-1.61-4.37-2.12-1.41-0.49-2.87-0.99-4.21-1.94-4.08-2.9-5.06-5.07-6.17-8.3-0.04-0.11-0.01-0.21 0.02-0.27s0.09-0.14 0.2-0.18c0.03-0.03 0.07-0.04 0.11-0.04m0-1.18c-0.17 0-0.33 0.03-0.5 0.08-0.8 0.28-1.23 1.15-0.95 1.95 1.16 3.35 2.24 5.78 6.61 8.88 1.48 1.05 3.02 1.58 4.51 2.09 1.47 0.51 2.85 0.98 4 1.92l0.7 0.56c2.27 1.82 4.07 3.26 4.23 6.33 0.04 0.82 0.72 1.45 1.53 1.45h0.08c0.03 0 0.05 0 0.08-0.01 0.81-0.08 1.42-0.79 1.37-1.6-0.23-4.45-2.96-6.64-5.38-8.57l-0.68-0.54c-1.58-1.29-3.29-1.88-4.94-2.45-1.35-0.46-2.62-0.9-3.74-1.7-3.71-2.63-4.46-4.43-5.48-7.38-0.21-0.61-0.81-1.01-1.44-1.01z" fill="#424242"/></g><polygon points="62.84 65.18 69.81 68.52 76.52 64.67 75.5 72.34 81.24 77.53 73.63 78.92 70.46 85.98 66.78 79.18 59.09 78.35 64.43 72.75" fill="#fff" opacity=".8"/></svg>
