<svg xmlns="http://www.w3.org/2000/svg" xmlns:xlink="http://www.w3.org/1999/xlink" width="128" height="128" id="svg26"><defs id="defs30"><linearGradient id="linearGradient4580"><stop offset="0" id="stop4576" stop-color="#ff470d"/><stop id="stop4584" offset=".25" stop-color="#ff470d" stop-opacity=".937"/><stop offset=".5" id="stop4588" stop-color="#ff470d" stop-opacity=".75"/><stop offset=".75" id="stop4586" stop-color="#ff470d" stop-opacity=".437"/><stop offset="1" id="stop4578" stop-color="#ff470d" stop-opacity="0"/></linearGradient><radialGradient xlink:href="#linearGradient4580" id="radialGradient4582" cx="57.649" cy="50.55" fx="57.649" fy="50.55" r="48.528" gradientUnits="userSpaceOnUse" gradientTransform="matrix(1.54657 0 0 1.54657 -40.267 -31.627)"/><clipPath id="SVGID_2_"><path id="use15" d="M13.3 77.89c4.32 15.44 16.37 27.41 29.68 36.26 4.3 2.87 8.81 5.43 13.55 7.52 4 1.77 8.15 3.21 12.49 4.22 2.69.63 5.9-2.01 8.07-3.24 3.58-2.04 7.17-4.09 10.75-6.19 20.32-11.93 39.31-35.93 31.79-60.77-2.45-8.08-7.17-15.25-13.98-20.28-6.76-5-14.79-6.53-22.97-6.94-1.59.01-3.82.06-4.57 1.25-1.16 1.83.73 3.24 1.51 4.68.2.36.55.86.82 1.38.09.14.2.27.3.41 7.06 10.9 9.27 24.38 6.58 37.04-.18.84-1.58 6.17-3.64 4.91-.04-.03-.09-.06-.13-.1-.59-.54-.31-1.93-.31-2.61 0-12-1.31-25.04-8.39-35.16-1.93-2.75-4.54-5.46-7.28-7.39-.68-.46-1.36-.91-2.08-1.3-5.8-3.21-12.09-4.03-18.59-3.5-.51.09-1.02.16-1.53.27-.38.1-.76.18-1.15.26-15.67 3.59-29.44 14.75-31.6 31.67-.69 5.41-.79 12.35.68 17.61z"/></clipPath><clipPath id="clipPath4360"><path id="use4358" d="M13.3 77.89c4.32 15.44 16.37 27.41 29.68 36.26 4.3 2.87 8.81 5.43 13.55 7.52 4 1.77 8.15 3.21 12.49 4.22 2.69.63 5.9-2.01 8.07-3.24 3.58-2.04 7.17-4.09 10.75-6.19 20.32-11.93 39.31-35.93 31.79-60.77-2.45-8.08-7.17-15.25-13.98-20.28-6.76-5-14.79-6.53-22.97-6.94-1.59.01-3.82.06-4.57 1.25-1.16 1.83.73 3.24 1.51 4.68.2.36.55.86.82 1.38.09.14.2.27.3.41 7.06 10.9 9.27 24.38 6.58 37.04-.18.84-1.58 6.17-3.64 4.91-.04-.03-.09-.06-.13-.1-.59-.54-.31-1.93-.31-2.61 0-12-1.31-25.04-8.39-35.16-1.93-2.75-4.54-5.46-7.28-7.39-.68-.46-1.36-.91-2.08-1.3-5.8-3.21-12.09-4.03-18.59-3.5-.51.09-1.02.16-1.53.27-.38.1-.76.18-1.15.26-15.67 3.59-29.44 14.75-31.6 31.67-.69 5.41-.79 12.35.68 17.61z"/></clipPath></defs><style id="style2"></style><path d="M102.962 58.056c8.446 26.312.414 63.364-36.56 66.768-26.285 2.42-44.818-36.018-44.42-63.65.163-11.377 7.174-29.44 33.243-33.592 20.2-3.218 38.533 1.805 47.737 30.474z" id="path4274" fill="#ffc80d" stroke-width="3.5" paint-order="stroke fill markers"/><path d="M64.53 26.736c-3.038.041-6.148.344-9.305.847-26.068 4.151-33.08 22.214-33.243 33.591-.315 21.896 11.264 50.557 29.161 60.317a75.051 75.051 0 0 0 50.725-21.845c5.41-12.905 5.276-28.562 1.094-41.59-7.765-24.189-22.03-31.545-38.432-31.32z" id="path4574" fill="url(#radialGradient4582)" stroke-width="3.5" paint-order="stroke fill markers"/><path d="M99.782 98.79c-1.571 9.128-12.456 16.955-17.124 16.955-4.668 0 7.68-9.664 9.273-17.495 1.718-8.446 3.59-12.606 7.062-13.495 2.986-.764 2.145 6.16.789 14.036z" id="path4629" fill="#fff" stroke-width="5.5" paint-order="stroke fill markers"/><path id="path2-3" d="M88.318 7.504c-5.304-1.876-11.215-2.705-16.902-2.278-1.845.136-3.705.334-5.451.838C54.221 9.456 46 18.984 45.198 30.148c3.172 1.919 4.663 2.304 5.84 2.729 1.395.502 2.724.86 3.803 1.042 6.426 1.042 13.606-.99 19.36-3.23 8.588-3.364 16.153-8.799 22.595-14.47.498-.445 1.095-.816 1.618-1.259 2.645-2.31-8.556-6.913-10.096-7.456z" fill="#479526"/></svg>