<?xml version="1.0" encoding="utf-8"?>
<!-- Generator: Adobe Illustrator 19.2.1, SVG Export Plug-In . SVG Version: 6.00 Build 0)  -->
<svg version="1.1" id="图层_1" xmlns="http://www.w3.org/2000/svg" xmlns:xlink="http://www.w3.org/1999/xlink" x="0px" y="0px"
	 viewBox="0 0 128 128" style="enable-background:new 0 0 128 128;" xml:space="preserve">
<g>
	<g>
		<path style="fill:#FCC21B;" d="M64,9.64C1.69,9.64,0.21,79.5,0.21,93.33c0,13.83,28.56,25.03,63.79,25.03
			c35.24,0,63.79-11.21,63.79-25.03C127.79,79.5,126.32,9.64,64,9.64z"/>
	</g>
	<g>
		<g>
			<g>
				<path style="fill:#FCC21B;" d="M109.54,76.27c-9.5,3.41-19.98-1.4-23.44-10.78c-3.44-9.37,1.43-19.74,10.93-23.17
					c9.47-3.41,19.98,1.42,23.45,10.79C123.92,62.49,119.02,72.86,109.54,76.27z"/>
				<path style="fill:#FCC01C;" d="M109.31,75.63c-9.15,3.29-19.24-1.35-22.56-10.37c-3.31-9.02,1.38-19,10.52-22.3
					c9.12-3.28,19.23,1.37,22.57,10.39C123.15,62.37,118.43,72.36,109.31,75.63z"/>
				<path style="fill:#FCBE1C;" d="M109.07,75c-8.79,3.16-18.49-1.29-21.69-9.97c-3.18-8.67,1.33-18.26,10.11-21.43
					c8.77-3.15,18.48,1.31,21.69,9.98C122.37,62.25,117.84,71.85,109.07,75z"/>
				<path style="fill:#FBBB1D;" d="M108.84,74.36c-8.44,3.03-17.74-1.24-20.81-9.57c-3.06-8.32,1.27-17.53,9.7-20.57
					c8.41-3.03,17.74,1.26,20.82,9.58C121.6,62.13,117.26,71.34,108.84,74.36z"/>
				<path style="fill:#FBB91E;" d="M108.61,73.73c-8.08,2.9-17-1.19-19.93-9.17c-2.93-7.97,1.22-16.79,9.3-19.7
					c8.06-2.9,16.99,1.21,19.94,9.18C120.83,62.01,116.67,70.83,108.61,73.73z"/>
				<path style="fill:#FBB71E;" d="M108.37,73.09c-7.73,2.78-16.25-1.14-19.06-8.76c-2.8-7.62,1.17-16.05,8.89-18.84
					c7.7-2.77,16.24,1.15,19.06,8.77C120.06,61.89,116.08,70.33,108.37,73.09z"/>
				<path style="fill:#FBB51F;" d="M108.14,72.46c-7.37,2.65-15.5-1.09-18.18-8.36c-2.67-7.27,1.11-15.31,8.48-17.97
					c7.35-2.64,15.5,1.1,18.19,8.37C119.29,61.77,115.49,69.82,108.14,72.46z"/>
				<path style="fill:#FAB220;" d="M107.9,71.82c-7.02,2.52-14.75-1.03-17.3-7.96c-2.54-6.92,1.06-14.57,8.07-17.1
					c7-2.52,14.75,1.05,17.31,7.97C118.52,61.65,114.9,69.31,107.9,71.82z"/>
				<path style="fill:#FAB020;" d="M107.67,71.19c-6.66,2.39-14.01-0.98-16.43-7.55c-2.41-6.57,1.01-13.84,7.66-16.24
					c6.64-2.39,14,1,16.43,7.56C117.75,61.53,114.31,68.81,107.67,71.19z"/>
				<path style="fill:#FAAE21;" d="M107.44,70.56c-6.31,2.26-13.26-0.93-15.55-7.15c-2.28-6.22,0.95-13.1,7.25-15.37
					c6.29-2.26,13.26,0.94,15.56,7.16C116.98,61.41,113.73,68.3,107.44,70.56z"/>
				<path style="fill:#FAAC22;" d="M107.2,69.92c-5.95,2.14-12.51-0.88-14.68-6.75c-2.15-5.87,0.9-12.36,6.84-14.5
					c5.93-2.13,12.51,0.89,14.68,6.76C116.2,61.29,113.14,67.79,107.2,69.92z"/>
				<path style="fill:#F9A922;" d="M106.97,69.29c-5.59,2.01-11.77-0.82-13.8-6.35c-2.03-5.51,0.85-11.62,6.44-13.64
					c5.58-2.01,11.76,0.84,13.8,6.35C115.43,61.17,112.55,67.28,106.97,69.29z"/>
				<path style="fill:#F9A723;" d="M106.74,68.65c-5.24,1.88-11.02-0.77-12.92-5.94c-1.9-5.16,0.79-10.88,6.03-12.77
					c5.23-1.88,11.02,0.78,12.93,5.95C114.66,61.05,111.96,66.78,106.74,68.65z"/>
				<path style="fill:#F9A524;" d="M106.5,68.02c-4.88,1.75-10.27-0.72-12.05-5.54c-1.77-4.81,0.74-10.14,5.62-11.91
					c4.87-1.75,10.27,0.73,12.05,5.55C113.89,60.93,111.37,66.27,106.5,68.02z"/>
				<path style="fill:#F9A324;" d="M106.27,67.38c-4.53,1.63-9.53-0.67-11.17-5.14c-1.64-4.46,0.68-9.41,5.21-11.04
					c4.52-1.62,9.52,0.68,11.17,5.14C113.12,60.82,110.79,65.76,106.27,67.38z"/>
				<path style="fill:#F8A025;" d="M106.03,66.75c-4.17,1.5-8.78-0.62-10.29-4.74c-1.51-4.11,0.63-8.67,4.8-10.17
					c4.16-1.5,8.77,0.63,10.3,4.74C112.35,60.7,110.2,65.25,106.03,66.75z"/>
				<path style="fill:#F89E26;" d="M105.8,66.11c-3.82,1.37-8.03-0.56-9.42-4.33c-1.38-3.76,0.58-7.93,4.39-9.31
					c3.81-1.37,8.03,0.57,9.42,4.34C111.58,60.58,109.61,64.75,105.8,66.11z"/>
				<path style="fill:#F89C26;" d="M105.57,65.48c-3.46,1.24-7.28-0.51-8.54-3.93c-1.25-3.41,0.52-7.19,3.98-8.44
					c3.46-1.24,7.28,0.52,8.55,3.93C110.81,60.46,109.02,64.24,105.57,65.48z"/>
				<path style="fill:#F89A27;" d="M105.33,64.85c-3.11,1.12-6.54-0.46-7.67-3.53c-1.13-3.06,0.47-6.45,3.57-7.58
					c3.1-1.11,6.53,0.47,7.67,3.53C110.04,60.34,108.43,63.73,105.33,64.85z"/>
				<path style="fill:#F79728;" d="M105.1,64.21c-2.75,0.99-5.79-0.41-6.79-3.12c-1-2.71,0.42-5.72,3.17-6.71
					c2.75-0.99,5.79,0.41,6.79,3.13C109.26,60.22,107.84,63.23,105.1,64.21z"/>
				<path style="fill:#F79528;" d="M104.87,63.58c-2.4,0.86-5.04-0.35-5.91-2.72c-0.87-2.36,0.36-4.98,2.76-5.84
					c2.39-0.86,5.04,0.36,5.92,2.72C108.49,60.1,107.26,62.72,104.87,63.58z"/>
				<path style="fill:#F79329;" d="M104.63,62.94c-2.04,0.73-4.3-0.3-5.04-2.32c-0.74-2.01,0.31-4.24,2.35-4.98
					c2.04-0.73,4.29,0.31,5.04,2.32C107.72,59.98,106.67,62.21,104.63,62.94z"/>
			</g>
		</g>
		<g>
			<g>
				<path style="fill:#FCC21B;" d="M31.54,76.27c-9.5,3.41-19.98-1.4-23.44-10.78c-3.44-9.37,1.43-19.74,10.93-23.17
					c9.47-3.41,19.98,1.42,23.45,10.79C45.92,62.49,41.02,72.86,31.54,76.27z"/>
				<path style="fill:#FCC01C;" d="M31.31,75.63c-9.15,3.29-19.24-1.35-22.56-10.37c-3.31-9.02,1.38-19,10.52-22.3
					c9.12-3.28,19.23,1.37,22.57,10.39C45.15,62.37,40.43,72.36,31.31,75.63z"/>
				<path style="fill:#FCBE1C;" d="M31.07,75c-8.79,3.16-18.49-1.29-21.69-9.97C6.2,56.36,10.72,46.76,19.5,43.59
					c8.77-3.15,18.48,1.31,21.69,9.98C44.37,62.25,39.84,71.85,31.07,75z"/>
				<path style="fill:#FBBB1D;" d="M30.84,74.36c-8.44,3.03-17.74-1.24-20.81-9.57c-3.06-8.32,1.27-17.53,9.7-20.57
					c8.41-3.03,17.74,1.26,20.82,9.58C43.6,62.13,39.26,71.34,30.84,74.36z"/>
				<path style="fill:#FBB91E;" d="M30.61,73.73c-8.08,2.9-17-1.19-19.93-9.17c-2.93-7.97,1.22-16.79,9.3-19.7
					c8.06-2.9,16.99,1.21,19.94,9.18C42.83,62.01,38.67,70.83,30.61,73.73z"/>
				<path style="fill:#FBB71E;" d="M30.37,73.09c-7.73,2.78-16.25-1.14-19.06-8.76c-2.8-7.62,1.17-16.05,8.89-18.84
					c7.7-2.77,16.24,1.15,19.06,8.77C42.06,61.89,38.08,70.33,30.37,73.09z"/>
				<path style="fill:#FBB51F;" d="M30.14,72.46c-7.37,2.65-15.5-1.09-18.18-8.36c-2.67-7.27,1.11-15.31,8.48-17.97
					c7.35-2.64,15.5,1.1,18.19,8.37C41.29,61.77,37.49,69.82,30.14,72.46z"/>
				<path style="fill:#FAB220;" d="M29.9,71.82c-7.02,2.52-14.76-1.03-17.3-7.96c-2.54-6.92,1.06-14.57,8.07-17.1
					c7-2.52,14.75,1.05,17.31,7.97C40.52,61.65,36.9,69.31,29.9,71.82z"/>
				<path style="fill:#FAB020;" d="M29.67,71.19c-6.66,2.39-14.01-0.98-16.43-7.55c-2.41-6.57,1.01-13.84,7.66-16.24
					c6.64-2.39,14,1,16.43,7.56C39.75,61.53,36.31,68.81,29.67,71.19z"/>
				<path style="fill:#FAAE21;" d="M29.44,70.56c-6.31,2.26-13.26-0.93-15.55-7.15c-2.28-6.22,0.95-13.1,7.25-15.37
					c6.29-2.26,13.26,0.94,15.56,7.16C38.98,61.41,35.73,68.3,29.44,70.56z"/>
				<path style="fill:#FAAC22;" d="M29.2,69.92c-5.95,2.14-12.51-0.88-14.68-6.75c-2.15-5.87,0.9-12.36,6.84-14.5
					c5.93-2.13,12.51,0.89,14.68,6.76C38.2,61.29,35.14,67.79,29.2,69.92z"/>
				<path style="fill:#F9A922;" d="M28.97,69.29c-5.59,2.01-11.77-0.82-13.8-6.35c-2.03-5.51,0.85-11.62,6.44-13.64
					c5.58-2.01,11.76,0.84,13.8,6.35C37.43,61.17,34.55,67.28,28.97,69.29z"/>
				<path style="fill:#F9A723;" d="M28.74,68.65c-5.24,1.88-11.02-0.77-12.92-5.94c-1.9-5.16,0.79-10.88,6.03-12.77
					c5.23-1.88,11.02,0.78,12.93,5.95C36.66,61.05,33.96,66.78,28.74,68.65z"/>
				<path style="fill:#F9A524;" d="M28.5,68.02c-4.88,1.75-10.27-0.72-12.05-5.54c-1.77-4.81,0.74-10.14,5.62-11.91
					c4.87-1.75,10.27,0.73,12.05,5.55C35.89,60.93,33.37,66.27,28.5,68.02z"/>
				<path style="fill:#F9A324;" d="M28.27,67.38c-4.53,1.63-9.53-0.67-11.17-5.14c-1.64-4.46,0.68-9.41,5.21-11.04
					c4.52-1.62,9.52,0.68,11.17,5.14C35.12,60.82,32.79,65.76,28.27,67.38z"/>
				<path style="fill:#F8A025;" d="M28.03,66.75c-4.17,1.5-8.78-0.62-10.29-4.74c-1.51-4.11,0.63-8.67,4.8-10.17
					c4.16-1.5,8.77,0.63,10.3,4.74C34.35,60.7,32.2,65.25,28.03,66.75z"/>
				<path style="fill:#F89E26;" d="M27.8,66.11c-3.82,1.37-8.03-0.56-9.42-4.33c-1.38-3.76,0.58-7.93,4.39-9.31
					c3.81-1.37,8.03,0.57,9.42,4.34C33.58,60.58,31.61,64.75,27.8,66.11z"/>
				<path style="fill:#F89C26;" d="M27.57,65.48c-3.46,1.24-7.28-0.51-8.54-3.93c-1.25-3.41,0.52-7.19,3.98-8.44
					c3.46-1.24,7.28,0.52,8.55,3.93C32.81,60.46,31.02,64.24,27.57,65.48z"/>
				<path style="fill:#F89A27;" d="M27.33,64.85c-3.11,1.12-6.54-0.46-7.67-3.53c-1.13-3.06,0.47-6.45,3.57-7.58
					c3.1-1.11,6.53,0.47,7.67,3.53C32.04,60.34,30.43,63.73,27.33,64.85z"/>
				<path style="fill:#F79728;" d="M27.1,64.21c-2.75,0.99-5.79-0.41-6.79-3.12c-1-2.71,0.42-5.72,3.17-6.71
					c2.75-0.99,5.79,0.41,6.79,3.13C31.26,60.22,29.84,63.23,27.1,64.21z"/>
				<path style="fill:#F79528;" d="M26.87,63.58c-2.4,0.86-5.04-0.35-5.91-2.72c-0.87-2.36,0.36-4.98,2.76-5.84
					c2.39-0.86,5.04,0.36,5.92,2.72C30.49,60.1,29.26,62.72,26.87,63.58z"/>
				<path style="fill:#F79329;" d="M26.63,62.94c-2.04,0.73-4.3-0.3-5.04-2.32c-0.74-2.01,0.31-4.24,2.35-4.98
					c2.04-0.73,4.29,0.31,5.04,2.32C29.72,59.98,28.67,62.21,26.63,62.94z"/>
			</g>
		</g>
	</g>
	<path style="fill:#FFFFFF;" d="M37.92,95.6c-3.29,5.74-10.63,7.77-16.45,4.53c-0.33-0.19-0.61-0.43-0.91-0.64
		c-3.63,2.2-8.29,2.49-12.26,0.29c-5.8-3.24-7.84-10.54-4.56-16.27c0.07-0.13,0.18-0.23,0.26-0.35c-1.91-3.49-2.04-7.82,0.09-11.53
		c3.28-5.74,10.66-7.76,16.45-4.53c2.38,1.33,4.08,3.35,5.09,5.64c8-2.09,21.07-10.5,27.49-16.84c0,0-9.53,15.02-19.64,23.52
		C39.17,82.7,41.17,89.91,37.92,95.6z"/>
	<path style="fill:#FFFFFF;" d="M90.08,95.6c3.29,5.74,10.63,7.77,16.45,4.53c0.33-0.19,0.61-0.43,0.91-0.64
		c3.63,2.2,8.29,2.49,12.26,0.29c5.8-3.24,7.84-10.54,4.56-16.27c-0.07-0.13-0.18-0.23-0.26-0.35c1.91-3.49,2.04-7.82-0.09-11.53
		c-3.28-5.74-10.66-7.76-16.45-4.53c-2.38,1.33-4.08,3.35-5.09,5.64c-8-2.09-21.07-10.5-27.49-16.84c0,0,9.53,15.02,19.64,23.52
		C88.83,82.7,86.83,89.91,90.08,95.6z"/>
	<g>
		<g>
			<path style="fill:#2F2F2F;" d="M80.04,48.65c0-0.88,0.12-1.71,0.3-2.51c1.72-0.47,3.52-1.13,5.35-2.22
				c1.85-1.11,3.39-2.23,4.77-3.37c2.19,1.58,3.67,4.59,3.67,8.1c0,5.11-3.14,9.25-7.04,9.25C83.19,57.91,80.04,53.76,80.04,48.65z"
				/>
		</g>
		<g>
			<path style="fill:#2F2F2F;" d="M48.38,48.65c0-0.88-0.12-1.71-0.3-2.51c-1.72-0.47-3.52-1.13-5.34-2.22
				c-1.86-1.11-3.39-2.23-4.77-3.37c-2.19,1.58-3.67,4.59-3.67,8.1c0,5.11,3.14,9.25,7.04,9.25C45.22,57.91,48.38,53.76,48.38,48.65
				z"/>
		</g>
	</g>
	<g>
		<path style="fill:#2F2F2F;" d="M42.87,79.15c-0.67,0-1.35-0.25-1.88-0.75c-1.11-1.04-1.16-2.78-0.12-3.89
			c5.8-6.18,14.24-9.73,23.13-9.73h0c8.9,0,17.33,3.55,23.13,9.73c1.04,1.11,0.98,2.85-0.12,3.89c-1.11,1.04-2.85,0.98-3.89-0.12
			C78.35,73.2,71.38,70.29,64,70.29c-7.38,0-14.35,2.91-19.12,7.99C44.33,78.86,43.6,79.15,42.87,79.15z"/>
	</g>
</g>
</svg>
