<svg enable-background="new 0 0 128 128" viewBox="0 0 128 128" xmlns="http://www.w3.org/2000/svg" xmlns:xlink="http://www.w3.org/1999/xlink"><linearGradient id="h" x1="81.324" x2="83.578" y1="116.66" y2="112.32" gradientUnits="userSpaceOnUse"><stop stop-color="#4E342E" offset=".00078899"/><stop stop-color="#795548" offset=".9968"/></linearGradient><path d="m79.85 114.21c0.17-1.86 1.48-3.26 2.93-3.13s2.48 1.75 2.31 3.61-1.48 3.26-2.93 3.13c-1.44-0.13-2.48-1.74-2.31-3.61z" fill="url(#h)"/><linearGradient id="f" x1="76.151" x2="82.89" y1="117.99" y2="117.99" gradientUnits="userSpaceOnUse"><stop stop-color="#4E342E" offset=".00078899"/><stop stop-color="#795548" offset=".9968"/></linearGradient><path d="m79.14 115.39c1.85-0.27 3.52 0.67 3.73 2.11s-1.11 2.82-2.96 3.1-3.52-0.67-3.73-2.11c-0.22-1.44 1.11-2.83 2.96-3.1z" fill="url(#f)"/><linearGradient id="e" x1="69.65" x2="78.432" y1="119.89" y2="119.89" gradientUnits="userSpaceOnUse"><stop stop-color="#4E342E" offset=".00078899"/><stop stop-color="#795548" offset=".9968"/></linearGradient><path d="m73.59 116.85c2.41-0.36 4.57 0.72 4.82 2.4s-1.51 3.34-3.92 3.69-4.57-0.72-4.82-2.4c-0.25-1.69 1.51-3.34 3.92-3.69z" fill="url(#e)"/><linearGradient id="d" x1="62.694" x2="70.637" y1="117.73" y2="117.73" gradientUnits="userSpaceOnUse"><stop stop-color="#4E342E" offset=".00078899"/><stop stop-color="#795548" offset=".9968"/></linearGradient><path d="m68.55 115.29c1.93 1.49 2.65 3.79 1.62 5.14-1.04 1.35-3.45 1.23-5.38-0.26s-2.65-3.79-1.62-5.14c1.04-1.34 3.44-1.23 5.38 0.26z" fill="url(#d)"/><linearGradient id="c" x1="82.858" x2="81.747" y1="113.79" y2="110.22" gradientUnits="userSpaceOnUse"><stop stop-color="#4E342E" offset=".00078899"/><stop stop-color="#795548" offset=".9968"/></linearGradient><path d="m80.22 113.24c-0.58-1.24-0.04-2.57 1.21-2.96s2.73 0.31 3.3 1.56c0.56 1.24 0.01 2.56-1.23 2.94s-2.71-0.31-3.28-1.54z" fill="url(#c)"/><linearGradient id="b" x1="58.212" x2="66.218" y1="114.62" y2="114.62" gradientUnits="userSpaceOnUse"><stop stop-color="#4E342E" offset=".00078899"/><stop stop-color="#795548" offset=".9968"/></linearGradient><path d="m64.88 112.82c1.65 1.5 1.8 3.51 0.34 4.5-1.45 0.99-3.96 0.6-5.62-0.87-1.67-1.48-1.86-3.5-0.4-4.52s4.01-0.62 5.68 0.89z" fill="url(#b)"/><linearGradient id="a" x1="55.605" x2="64.117" y1="108.21" y2="108.21" gradientUnits="userSpaceOnUse"><stop stop-color="#4E342E" offset=".00078899"/><stop stop-color="#88685C" offset=".9968"/></linearGradient><path d="m63.9 107.51c0.74 2.5-0.46 4.83-2.66 5.24s-4.6-1.25-5.39-3.73c-0.79-2.51 0.37-4.91 2.61-5.34 2.25-0.43 4.69 1.3 5.44 3.83z" fill="url(#a)"/><linearGradient id="an" x1="41.758" x2="51.1" y1="54.849" y2="54.849" gradientUnits="userSpaceOnUse"><stop stop-color="#4E342E" offset=".00078899"/><stop stop-color="#795548" offset=".9968"/></linearGradient><path d="m50.84 57.45c-0.84 1.18-3.48 0.99-5.9-0.42-2.44-1.42-3.76-3.56-2.93-4.77s3.51-1.02 5.97 0.43c2.43 1.45 3.71 3.58 2.86 4.76z" fill="url(#an)"/><linearGradient id="am" x1="55.852" x2="64.775" y1="100.97" y2="100.97" gradientUnits="userSpaceOnUse"><stop stop-color="#4E342E" offset=".00078899"/><stop stop-color="#88685C" offset=".9968"/></linearGradient><path d="m64.55 101.82c-0.76 2.62-3.24 4.38-5.56 3.95-2.33-0.43-3.65-2.9-2.95-5.55 0.71-2.68 3.23-4.51 5.61-4.06 2.38 0.46 3.67 3 2.9 5.66z" fill="url(#am)"/><linearGradient id="al" x1="62.69" x2="62.69" y1="99.636" y2="88.396" gradientUnits="userSpaceOnUse"><stop stop-color="#4E342E" offset=".00078899"/><stop stop-color="#88685C" offset=".9968"/></linearGradient><path d="m68.6 94.33c-0.58 3.59-2.89 5.38-6.28 5.3-3.85-0.09-6.14-2.82-5.57-6.12 0.54-3.1 2.86-5.12 6.21-5.12 5.05 0 6.15 2.84 5.64 5.94z" fill="url(#al)"/><linearGradient id="ak" x1="81.12" x2="79.555" y1="109.66" y2="105.94" gradientUnits="userSpaceOnUse"><stop stop-color="#4E342E" offset=".00078899"/><stop stop-color="#795548" offset=".9968"/></linearGradient><path d="m78.5 109.07c-0.65-1.26-0.25-2.61 0.9-3.01s2.61 0.3 3.25 1.57c0.64 1.26 0.23 2.59-0.92 2.99-1.14 0.39-2.59-0.3-3.23-1.55z" fill="url(#ak)"/><linearGradient id="aj" x1="34.977" x2="44.007" y1="50.253" y2="50.253" gradientUnits="userSpaceOnUse"><stop stop-color="#4E342E" offset=".00078899"/><stop stop-color="#795548" offset=".9968"/></linearGradient><path d="m43.77 52.78c-0.79 1.15-3.33 0.96-5.68-0.41-2.36-1.38-3.66-3.46-2.88-4.63 0.78-1.18 3.36-0.99 5.74 0.42 2.36 1.4 3.61 3.47 2.82 4.62z" fill="url(#aj)"/><radialGradient id="ai" cx="75.535" cy="97.799" r="9.0304" gradientUnits="userSpaceOnUse"><stop stop-color="#795548" offset=".0031714"/><stop stop-color="#4E342E" offset=".9992"/></radialGradient><path d="m80.64 91.14s-8.01 3.02-8.77 7.97c-0.94 6.12 2.92 7.6 5.58 7.76s5.47-3.05 2.32-7.08c-3.2-4.1 0.87-8.65 0.87-8.65z" fill="url(#ai)"/><linearGradient id="ah" x1="22.829" x2="38.356" y1="42.859" y2="42.859" gradientUnits="userSpaceOnUse"><stop stop-color="#4E342E" offset=".00078899"/><stop stop-color="#795548" offset=".9968"/></linearGradient><path d="m23.34 36.24s-4.12 9.72 11.01 14.33c0 0 3.52 0.32 3.98-1.81 0.47-2.15-5.77-5.85-7.06-10.84-1.32-5.09-7.93-1.68-7.93-1.68z" fill="url(#ah)"/><linearGradient id="ag" x1="89.964" x2="105.51" y1="42.859" y2="42.859" gradientUnits="userSpaceOnUse"><stop stop-color="#4E342E" offset=".00078899"/><stop stop-color="#795548" offset=".9968"/></linearGradient><path d="m105 36.24s4.11 9.72-11.03 14.33c0 0-3.52 0.32-3.98-1.81-0.47-2.15 5.78-5.85 7.08-10.84 1.32-5.09 7.93-1.68 7.93-1.68z" fill="url(#ag)"/><linearGradient id="af" x1="84.308" x2="93.343" y1="50.253" y2="50.253" gradientUnits="userSpaceOnUse"><stop stop-color="#4E342E" offset=".00078899"/><stop stop-color="#795548" offset=".9968"/></linearGradient><path d="m84.55 52.78c0.79 1.15 3.33 0.96 5.68-0.41 2.37-1.38 3.67-3.46 2.89-4.63-0.78-1.18-3.36-0.99-5.74 0.42-2.37 1.4-3.63 3.47-2.83 4.62z" fill="url(#af)"/><linearGradient id="ae" x1="77.207" x2="86.554" y1="54.849" y2="54.849" gradientUnits="userSpaceOnUse"><stop stop-color="#4E342E" offset=".00078899"/><stop stop-color="#795548" offset=".9968"/></linearGradient><path d="m77.47 57.45c0.84 1.18 3.48 0.99 5.9-0.42 2.44-1.42 3.76-3.56 2.94-4.77-0.83-1.21-3.51-1.02-5.97 0.43-2.44 1.45-3.72 3.58-2.87 4.76z" fill="url(#ae)"/><linearGradient id="ac" x1="94.796" x2="106.12" y1="57.215" y2="57.215" gradientUnits="userSpaceOnUse"><stop stop-color="#4E342E" offset=".00078899"/><stop stop-color="#795548" offset=".9968"/></linearGradient><path d="m105.97 50.59s2.05 9.49-9.05 13.24c0 0-1.77-0.03-2.08-0.98-0.31-0.96 0.92-4.19 4.01-5.14 3.11-0.94 6.71-1.91 7.12-7.12z" fill="url(#ac)"/><linearGradient id="ab" x1="75.976" x2="97.694" y1="64.83" y2="64.83" gradientUnits="userSpaceOnUse"><stop stop-color="#4E342E" offset=".00078899"/><stop stop-color="#795548" offset=".9968"/></linearGradient><path d="m96.36 61.18c-0.68 0.09-9.4 4.84-15.81 4.56-3.57-0.16-3.71-0.52-3.71-0.52l-0.87 3.22s15.61 1.25 21.45-5.92c0.01 0 1.07-1.63-1.06-1.34z" fill="url(#ab)"/><linearGradient id="aa" x1="92.9" x2="106.01" y1="72.253" y2="72.253" gradientUnits="userSpaceOnUse"><stop stop-color="#4E342E" offset=".00078899"/><stop stop-color="#795548" offset=".9968"/></linearGradient><path d="m106.01 67.35s-0.75 8.8-11.53 9.82c0 0-1.56-0.39-1.58-1.31-0.01-0.92 1.95-3.53 4.94-3.72s6.41-0.29 8.17-4.79z" fill="url(#aa)"/><linearGradient id="z" x1="75.903" x2="97.739" y1="76.34" y2="76.34" gradientUnits="userSpaceOnUse"><stop stop-color="#4E342E" offset=".00078899"/><stop stop-color="#795548" offset=".9968"/></linearGradient><path d="m96.51 74c-0.67 0.02-9.87 2.84-16.01 1.93-3.43-0.51-3.6-1.21-3.6-1.21l-1 3.05s14.95 3.39 21.5-2.82c0 0 1.19-1.02-0.89-0.95z" fill="url(#z)"/><linearGradient id="y" x1="88.718" x2="103.62" y1="86.655" y2="86.655" gradientUnits="userSpaceOnUse"><stop stop-color="#4E342E" offset=".00078899"/><stop stop-color="#795548" offset=".9968"/></linearGradient><path d="m103.62 83.65s-3.95 7.72-13.93 5.67c0 0-1.25-0.79-0.92-1.62 0.33-0.84 3.08-2.66 5.82-2s5.8 1.51 9.03-2.05z" fill="url(#y)"/><linearGradient id="x" x1="72.6" x2="93.674" y1="85.821" y2="85.821" gradientUnits="userSpaceOnUse"><stop stop-color="#4E342E" offset=".00078899"/><stop stop-color="#795548" offset=".9968"/></linearGradient><path d="m92.71 87.01c-0.6-0.17-9.95-0.17-15.19-2.73-2.94-1.44-2.83-2.13-2.83-2.13l-2.09 2.52s16.32 7.96 20.55 3.45c0 0 1.43-0.59-0.44-1.11z" fill="url(#x)"/><linearGradient id="w" x1="-427.97" x2="-416.64" y1="57.215" y2="57.215" gradientTransform="matrix(-1 0 0 1 -395.21 0)" gradientUnits="userSpaceOnUse"><stop stop-color="#4E342E" offset=".00078899"/><stop stop-color="#795548" offset=".9968"/></linearGradient><path d="m21.59 50.59s-2.05 9.49 9.05 13.24c0 0 1.77-0.03 2.08-0.98 0.31-0.96-0.92-4.19-4.01-5.14-3.11-0.94-6.71-1.91-7.12-7.12z" fill="url(#w)"/><linearGradient id="v" x1="-446.79" x2="-425.07" y1="64.83" y2="64.83" gradientTransform="matrix(-1 0 0 1 -395.21 0)" gradientUnits="userSpaceOnUse"><stop stop-color="#4E342E" offset=".00078899"/><stop stop-color="#795548" offset=".9968"/></linearGradient><path d="m31.2 61.18c0.68 0.09 9.4 4.84 15.81 4.56 3.57-0.16 3.71-0.52 3.71-0.52l0.87 3.22s-15.61 1.25-21.45-5.92c-0.01 0-1.07-1.63 1.06-1.34z" fill="url(#v)"/><linearGradient id="u" x1="-429.86" x2="-416.75" y1="72.253" y2="72.253" gradientTransform="matrix(-1 0 0 1 -395.21 0)" gradientUnits="userSpaceOnUse"><stop stop-color="#4E342E" offset=".00078899"/><stop stop-color="#795548" offset=".9968"/></linearGradient><path d="m21.55 67.35s0.75 8.8 11.53 9.82c0 0 1.56-0.39 1.58-1.31 0.01-0.92-1.95-3.53-4.94-3.72-3-0.19-6.42-0.29-8.17-4.79z" fill="url(#u)"/><linearGradient id="t" x1="-446.86" x2="-425.02" y1="76.34" y2="76.34" gradientTransform="matrix(-1 0 0 1 -395.21 0)" gradientUnits="userSpaceOnUse"><stop stop-color="#4E342E" offset=".00078899"/><stop stop-color="#795548" offset=".9968"/></linearGradient><path d="m31.05 74c0.67 0.02 9.87 2.84 16.01 1.93 3.43-0.51 3.6-1.21 3.6-1.21l1 3.05s-14.95 3.39-21.5-2.82c-0.01 0-1.19-1.02 0.89-0.95z" fill="url(#t)"/><linearGradient id="r" x1="-434.05" x2="-419.14" y1="86.655" y2="86.655" gradientTransform="matrix(-1 0 0 1 -395.21 0)" gradientUnits="userSpaceOnUse"><stop stop-color="#4E342E" offset=".00078899"/><stop stop-color="#795548" offset=".9968"/></linearGradient><path d="m23.93 83.65s3.95 7.72 13.93 5.67c0 0 1.25-0.79 0.92-1.62-0.33-0.84-3.08-2.66-5.82-2-2.73 0.66-5.79 1.51-9.03-2.05z" fill="url(#r)"/><linearGradient id="q" x1="-450.16" x2="-429.09" y1="85.821" y2="85.821" gradientTransform="matrix(-1 0 0 1 -395.21 0)" gradientUnits="userSpaceOnUse"><stop stop-color="#4E342E" offset=".00078899"/><stop stop-color="#795548" offset=".9968"/></linearGradient><path d="m34.85 87.01c0.6-0.17 9.95-0.17 15.19-2.73 2.95-1.44 2.83-2.13 2.83-2.13l2.09 2.52s-16.32 7.96-20.55 3.45c0 0-1.44-0.59 0.44-1.11z" fill="url(#q)"/><linearGradient id="p" x1="64.124" x2="64.124" y1="55.993" y2="35.14" gradientUnits="userSpaceOnUse"><stop stop-color="#4E342E" offset=".00078899"/><stop stop-color="#88685C" offset=".9968"/></linearGradient><path d="m77.25 53.65c-0.81-3.07-1.95-5.59-3.34-7.59 5-8.12-5.19-12.36-5.19-12.36 3.58 4.47 2.8 6.9 1.69 8.8-0.51-0.36-1.04-0.66-1.59-0.92-0.1-0.51-0.36-1.17-0.97-1.92-0.62-0.77-2.05-1.25-3.11-1.46 0.62 0.7 1 1.56 1.13 2.45-0.63-0.1-1.26-0.16-1.91-0.16-1.06 0-2.1 0.16-3.1 0.46 0.08-0.99 0.48-1.96 1.16-2.73-1.05 0.2-2.48 0.68-3.1 1.46-1.01 1.26-1.07 2.24-1.02 2.72-0.3 0.2-0.59 0.44-0.88 0.68-1.24-1.98-2.6-4.44 1.34-9.37 0 0-10.88 4.53-4.64 13.17-1.09 1.73-2.02 3.79-2.73 6.16 8.48 4.38 18.52 4.58 26.26 0.61z" fill="url(#p)"/><linearGradient id="o" x1="63.963" x2="63.963" y1="67.03" y2="53.944" gradientUnits="userSpaceOnUse"><stop stop-color="#4E342E" offset=".00078899"/><stop stop-color="#88685C" offset=".9968"/></linearGradient><path d="m78.59 63.67c-0.11-3.8-0.57-7.14-1.33-10.02-7.74 3.97-17.78 3.76-26.26-0.61-0.95 3.15-1.53 6.85-1.66 11.04 9.42 4.47 20.84 4.34 29.25-0.41z" fill="url(#o)"/><linearGradient id="n" x1="63.828" x2="63.828" y1="91.931" y2="87.449" gradientUnits="userSpaceOnUse"><stop stop-color="#4E342E" offset=".00078899"/><stop stop-color="#795548" offset=".9968"/></linearGradient><path d="m54.84 87.21c2.32 3.03 5.36 4.82 9.11 4.82 3.52 0 6.53-1.94 8.87-4.89-6.19 1.86-11.76 2.02-17.98 0.07z" fill="url(#n)"/><linearGradient id="m" x1="63.892" x2="63.892" y1="88.375" y2="77.08" gradientUnits="userSpaceOnUse"><stop stop-color="#4E342E" offset=".00078899"/><stop stop-color="#88685C" offset=".9968"/></linearGradient><path d="m50.23 76.3c0.9 4.63 2.45 8.09 4.61 10.91 6.22 1.95 11.75 1.86 17.94 0 2.16-2.74 3.8-6.41 4.77-10.91-8.54 3.98-19.45 4.44-27.32 0z" fill="url(#m)"/><linearGradient id="l" x1="63.963" x2="63.963" y1="80.093" y2="64.727" gradientUnits="userSpaceOnUse"><stop stop-color="#4E342E" offset=".00078899"/><stop stop-color="#88685C" offset=".9968"/></linearGradient><path d="m78.59 63.67c-8.41 4.75-19.83 4.88-29.25 0.42-0.03 1.18-0.04 2.4 0 3.66 0.09 2.86 0.42 6.4 0.9 8.9 6.03 5.01 20.1 5.25 27.31-0.35 0.57-2.64 0.92-5.51 1.02-8.55 0.05-1.41 0.06-2.77 0.02-4.08z" fill="url(#l)"/><radialGradient id="k" cx="29.051" cy="21.796" r="13.653" gradientUnits="userSpaceOnUse"><stop stop-color="#795548" offset=".0031714"/><stop stop-color="#4E342E" offset=".9992"/></radialGradient><path d="m33.12 4.99s-8.82 3.43-12.35 15.52c-4.34 14.88 3.9 18.15 8.52 18.09 8.72-0.11 12.41-19.42 6.15-33.48 0 0 1.68 16.71-2.95 18.03-3.96 1.12-6.79-7.99 0.63-18.16z" fill="url(#k)"/><radialGradient id="j" cx="99.309" cy="21.796" r="13.65" gradientUnits="userSpaceOnUse"><stop stop-color="#795548" offset=".0031714"/><stop stop-color="#4E342E" offset=".9992"/></radialGradient><path d="m95.28 4.99s8.82 3.43 12.32 15.52c4.31 14.88-3.93 18.15-8.55 18.09-8.72-0.11-12.38-19.42-6.09-33.48 0 0-1.7 16.71 2.92 18.03 3.95 1.12 6.8-7.99-0.6-18.16z" fill="url(#j)"/><path d="m94.6 85.69c-1.94-0.47-3.88 0.31-4.97 1.1-3.34-0.24-8.62-0.81-12.11-2.51-1.09-0.53-1.76-0.96-2.17-1.29 0.7-1.5 1.31-3.16 1.8-4.98 3.08 0.54 11.24 1.61 17.01-0.95 0.19 0.07 0.32 0.11 0.32 0.11 10.79-1.01 11.53-9.82 11.53-9.82-1.76 4.5-5.18 4.6-8.17 4.79-2.12 0.13-3.72 1.48-4.47 2.58-3.38 0.77-8.79 1.81-12.87 1.21-1.38-0.2-2.22-0.44-2.75-0.65 0.41-2.12 0.67-4.39 0.79-6.76 4.29 0.02 12.93-0.52 17.7-4.76 0.38 0.07 0.68 0.08 0.68 0.08 11.1-3.76 9.05-13.24 9.05-13.24-0.42 5.21-4.01 6.17-7.12 7.13-2.32 0.71-3.6 2.72-3.95 4.07-2.88 1.29-9.31 4.16-14.35 3.95-0.81-0.04-1.44-0.08-1.94-0.13 0-0.66-0.01-1.3-0.03-1.93-0.06-2.04-0.23-3.94-0.49-5.72 1.17 0.57 3.28 0.25 5.27-0.91 1.73-1.01 2.88-2.37 3.12-3.51 1.09-0.01 2.43-0.39 3.74-1.15 0.93-0.54 1.69-1.19 2.23-1.85 0.81 0.12 1.51 0.06 1.51 0.06 13.23-4.03 11.77-11.94 11.18-13.9 3.04-2.28 5.11-7 2.45-16.17-3.5-12.11-12.31-15.55-12.31-15.55 7.4 10.17 4.55 19.28 0.6 18.15-4.62-1.31-2.92-18.03-2.92-18.03-5.77 12.92-3.15 30.27 4.02 33.07-1.1 3.71-4.86 6.69-6.37 8.83-0.99 0.11-2.13 0.49-3.24 1.14-1.63 0.96-2.71 2.24-2.98 3.32-1.17-0.03-2.64 0.38-4.05 1.21-1.27 0.75-2.21 1.68-2.72 2.57-0.12-0.55-0.23-1.1-0.37-1.62-0.81-3.07-1.95-5.59-3.34-7.59 5-8.12-5.19-12.36-5.19-12.36 3.58 4.47 2.8 6.9 1.69 8.8-0.51-0.36-1.04-0.66-1.59-0.92-0.11-0.51-0.36-1.17-0.97-1.92-0.62-0.77-2.05-1.25-3.11-1.46 0.62 0.7 1 1.56 1.13 2.45-0.63-0.1-1.26-0.16-1.91-0.16-1.06 0-2.1 0.16-3.1 0.46 0.08-0.99 0.48-1.96 1.16-2.73-1.05 0.2-2.48 0.68-3.1 1.46-1.01 1.26-1.07 2.24-1.02 2.72-0.3 0.2-0.59 0.44-0.88 0.68-1.24-1.98-2.6-4.44 1.34-9.37 0 0-10.88 4.53-4.64 13.17-1.09 1.73-2.02 3.79-2.73 6.16-0.19 0.61-0.35 1.27-0.5 1.92-0.54-0.8-1.4-1.61-2.52-2.27-1.41-0.83-2.88-1.24-4.05-1.21-0.27-1.08-1.35-2.36-2.98-3.32-1.1-0.65-2.24-1.03-3.23-1.14-1.51-2.14-5.26-5.12-6.36-8.83 7.18-2.8 9.83-20.15 4.07-33.07 0 0 1.68 16.71-2.95 18.03-3.95 1.12-6.79-7.99 0.63-18.15 0 0-8.82 3.43-12.35 15.52-2.67 9.16-0.61 13.88 2.42 16.17-0.59 1.95-2.06 9.87 11.16 13.9 0 0 0.7 0.06 1.51-0.06 0.54 0.66 1.29 1.31 2.22 1.85 1.3 0.76 2.65 1.14 3.74 1.15 0.24 1.14 1.38 2.5 3.11 3.51 1.81 1.05 3.73 1.43 4.94 1.06-0.29 1.87-0.47 3.87-0.53 5.99-0.01 0.49-0.02 0.98-0.02 1.48-0.54 0.07-1.28 0.13-2.31 0.17-5.04 0.22-11.47-2.65-14.35-3.95-0.36-1.36-1.63-3.36-3.95-4.07-3.11-0.95-6.7-1.92-7.12-7.13 0 0-2.05 9.49 9.05 13.24 0 0 0.31-0.01 0.68-0.08 4.91 4.37 13.9 4.81 18.05 4.76 0.1 2.17 0.31 4.62 0.63 6.68-0.5 0.23-1.38 0.5-2.94 0.73-4.09 0.6-9.49-0.43-12.87-1.21-0.75-1.1-2.35-2.45-4.47-2.58-2.99-0.19-6.41-0.29-8.17-4.79 0 0 0.75 8.8 11.53 9.82 0 0 0.14-0.04 0.32-0.11 5.88 2.61 14.26 1.45 17.19 0.92 0.45 1.83 1.02 3.46 1.69 4.95-0.4 0.34-1.09 0.79-2.25 1.36-3.49 1.7-8.77 2.27-12.11 2.51-1.09-0.79-3.03-1.57-4.97-1.1-2.73 0.66-5.8 1.52-9.03-2.05 0 0 3.8 7.41 13.34 5.77 4.84 0.68 13-2.65 16.27-4.11 0.4 0.66 0.83 1.3 1.29 1.9 1 1.3 2.14 2.36 3.39 3.16-0.75 0.84-1.27 1.9-1.48 3.14-0.26 1.52 0.08 2.91 0.9 3.98-0.75 0.71-1.33 1.65-1.61 2.72-0.44 1.65-0.09 3.22 0.79 4.28-1.11 1.01-1.55 2.73-0.98 4.52 0.48 1.53 1.58 2.74 2.86 3.35-0.9 1.09-0.57 2.79 0.88 4.08 0.89 0.79 2.02 1.25 3.1 1.37-0.07 0.99 0.69 2.16 2.09 3 1.72 1.02 3.8 1.2 4.99 0.5 0.42 1.17 2.43 1.89 4.71 1.64 1.81-0.2 3.27-0.97 3.81-1.89 0.51 0.11 1.08 0.14 1.68 0.08 1.76-0.2 3.07-1.17 3.09-2.22 1.17-0.23 2.16-1.19 2.37-2.41 0.17-0.99-0.23-1.89-0.95-2.42 0.47-0.59 0.6-1.44 0.22-2.26-0.42-0.93-1.35-1.55-2.31-1.66 0.59-0.6 0.72-1.6 0.23-2.56-0.54-1.06-1.64-1.71-2.66-1.67 1.34-1.21 1.86-3.5-0.21-6.16-3.21-4.11 0.87-8.65 0.87-8.65s-8.01 3.02-8.77 7.97c-0.94 6.12 2.92 7.6 5.58 7.76 0.35 0.02 0.7-0.02 1.03-0.11-0.39 0.61-0.42 1.47 0 2.3 0.46 0.89 1.32 1.48 2.19 1.62-0.69 0.59-0.91 1.59-0.47 2.55 0.21 0.45 0.54 0.83 0.94 1.11-0.53 0.45-0.91 1.08-1.02 1.79-0.05 0.31-0.03 0.62 0.02 0.9-0.26-0.01-0.52 0-0.79 0.03-1.27 0.15-2.3 0.69-2.79 1.38-0.82-0.25-1.81-0.35-2.87-0.23-1.28 0.15-2.37 0.57-3.1 1.13-0.2-0.82-0.89-1.69-1.99-2.36-0.8-0.48-1.68-0.77-2.51-0.89 0.3-1.01-0.1-2.26-1.23-3.28-0.53-0.48-1.16-0.84-1.81-1.08 0.94-1 1.32-2.57 0.83-4.23-0.3-1-0.86-1.87-1.57-2.54 1.02-0.71 1.85-1.81 2.23-3.14 0.25-0.86 0.28-1.71 0.12-2.49 2.09-0.64 3.49-2.32 3.93-5 0.2-1.22 0.14-2.39-0.3-3.37 1.66-0.84 3.15-2.13 4.44-3.74 0.01 0 0.02-0.01 0.03-0.01 0.46-0.58 0.89-1.21 1.29-1.87 3.32 1.47 11.39 4.76 16.2 4.08 9.55 1.64 13.34-5.77 13.34-5.77-3.14 3.6-6.2 2.75-8.93 2.08z" fill="none" stroke="#3E2723" stroke-linecap="round" stroke-linejoin="round" stroke-miterlimit="10" stroke-width="2.9504"/><circle cx="57.06" cy="48.12" r="4.53" fill="#fff"/><ellipse transform="matrix(.5421 -.8403 .8403 .5421 -14.312 69.985)" cx="57.06" cy="48.12" rx="2.07" ry="2.07"/><circle cx="70.94" cy="48.12" r="4.53" fill="#fff"/><ellipse transform="matrix(.5421 -.8403 .8403 .5421 -7.9588 81.644)" cx="70.94" cy="48.12" rx="2.07" ry="2.07"/><g display="none"><g display="inline"><g opacity=".6"><circle cx="-168.5" cy="64" r="28" fill="none" opacity=".61" stroke="#000" stroke-miterlimit="10" stroke-width=".2625"/><line x1="-148.5" x2="-148.5" y2="128" fill="none" opacity=".61" stroke="#000" stroke-miterlimit="10" stroke-width=".25"/><line x1="-188.5" x2="-188.5" y2="128" fill="none" opacity=".61" stroke="#000" stroke-miterlimit="10" stroke-width=".25"/><line x1="-168.5" x2="-168.5" y2="128" fill="none" opacity=".61" stroke="#000" stroke-miterlimit="10" stroke-width=".25"/><line x1="-104.5" x2="-232.5" y1="64" y2="64" fill="none" opacity=".61" stroke="#000" stroke-miterlimit="10" stroke-width=".25"/><line x1="-104.5" x2="-232.5" y1="44" y2="44" fill="none" opacity=".61" stroke="#000" stroke-miterlimit="10" stroke-width=".25"/><line x1="-104.5" x2="-232.5" y1="83.75" y2="83.75" fill="none" opacity=".61" stroke="#000" stroke-miterlimit="10" stroke-width=".25"/><line x1="-104.5" x2="-232.5" y1="128" fill="none" opacity=".61" stroke="#000" stroke-miterlimit="10" stroke-width=".25"/><line x1="-232.5" x2="-104.5" y1="128" fill="none" opacity=".61" stroke="#000" stroke-miterlimit="10" stroke-width=".25"/><g opacity=".61"><path d="m-168.5 4.26c32.94 0 59.74 26.8 59.74 59.74s-26.8 59.74-59.74 59.74-59.74-26.8-59.74-59.74 26.8-59.74 59.74-59.74m0-0.26c-33.14 0-60 26.86-60 60s26.86 60 60 60 60-26.86 60-60-26.86-60-60-60z"/></g><path d="m-124.53 115.97h-87.94c-4.42 0-8.03-3.61-8.03-8.03v-87.91c0-4.42 3.61-8.03 8.03-8.03h87.94c4.42 0 8.03 3.61 8.03 8.03v87.91c0 4.42-3.61 8.03-8.03 8.03z" fill="none" opacity=".61" stroke="#000" stroke-miterlimit="10" stroke-width=".2578"/><path d="m-132.5 124h-72c-4.4 0-8-3.6-8-8v-104c0-4.4 3.6-8 8-8h72c4.4 0 8 3.6 8 8v104c0 4.4-3.6 8-8 8z" fill="none" opacity=".61" stroke="#000" stroke-miterlimit="10" stroke-width=".2628"/><path d="m-118.73 108h-99.54c-5.63 0-10.23-4.6-10.23-10.23v-67.49c0-5.63 4.6-10.23 10.23-10.23h99.54c5.63 0 10.23 4.6 10.23 10.23v67.48c0 5.64-4.6 10.24-10.23 10.24z" fill="none" opacity=".61" stroke="#000" stroke-miterlimit="10" stroke-width=".2627"/></g><g opacity=".2"><defs><rect id="s" x="-232.5" width="128" height="128" opacity=".2"/></defs><clipPath id="i"><use xlink:href="#s"/></clipPath><g clip-path="url(#i)"><g fill="none" stroke="#000" stroke-miterlimit="10" stroke-width=".25"><line x1="-260.5" x2="-260.5" y1="160" y2="-32"/><line x1="-256.5" x2="-256.5" y1="160" y2="-32"/><line x1="-252.5" x2="-252.5" y1="160" y2="-32"/><line x1="-248.5" x2="-248.5" y1="160" y2="-32"/><line x1="-244.5" x2="-244.5" y1="160" y2="-32"/><line x1="-240.5" x2="-240.5" y1="160" y2="-32"/><line x1="-236.5" x2="-236.5" y1="160" y2="-32"/><line x1="-232.5" x2="-232.5" y1="160" y2="-32"/><line x1="-228.5" x2="-228.5" y1="160" y2="-32"/><line x1="-224.5" x2="-224.5" y1="160" y2="-32"/><line x1="-220.5" x2="-220.5" y1="160" y2="-32"/><line x1="-216.5" x2="-216.5" y1="160" y2="-32"/><line x1="-212.5" x2="-212.5" y1="160" y2="-32"/><line x1="-208.5" x2="-208.5" y1="160" y2="-32"/><line x1="-204.5" x2="-204.5" y1="160" y2="-32"/><line x1="-200.5" x2="-200.5" y1="160" y2="-32"/><line x1="-196.5" x2="-196.5" y1="160" y2="-32"/><line x1="-192.5" x2="-192.5" y1="160" y2="-32"/><line x1="-188.5" x2="-188.5" y1="160" y2="-32"/><line x1="-184.5" x2="-184.5" y1="160" y2="-32"/><line x1="-180.5" x2="-180.5" y1="160" y2="-32"/><line x1="-176.5" x2="-176.5" y1="160" y2="-32"/><line x1="-172.5" x2="-172.5" y1="160" y2="-32"/><line x1="-168.5" x2="-168.5" y1="160" y2="-32"/><line x1="-164.5" x2="-164.5" y1="160" y2="-32"/><line x1="-160.5" x2="-160.5" y1="160" y2="-32"/><line x1="-156.5" x2="-156.5" y1="160" y2="-32"/><line x1="-152.5" x2="-152.5" y1="160" y2="-32"/><line x1="-148.5" x2="-148.5" y1="160" y2="-32"/><line x1="-144.5" x2="-144.5" y1="160" y2="-32"/><line x1="-140.5" x2="-140.5" y1="160" y2="-32"/><line x1="-136.5" x2="-136.5" y1="160" y2="-32"/><line x1="-132.5" x2="-132.5" y1="160" y2="-32"/><line x1="-128.5" x2="-128.5" y1="160" y2="-32"/><line x1="-124.5" x2="-124.5" y1="160" y2="-32"/><line x1="-120.5" x2="-120.5" y1="160" y2="-32"/><line x1="-116.5" x2="-116.5" y1="160" y2="-32"/><line x1="-112.5" x2="-112.5" y1="160" y2="-32"/><line x1="-108.5" x2="-108.5" y1="160" y2="-32"/><line x1="-104.5" x2="-104.5" y1="160" y2="-32"/><line x1="-100.5" x2="-100.5" y1="160" y2="-32"/><line x1="-96.5" x2="-96.5" y1="160" y2="-32"/><line x1="-95.5" x2="-95.5" y1="166.05" y2="-25.95"/><line x1="-88.5" x2="-88.5" y1="160" y2="-32"/><line x1="-84.5" x2="-84.5" y1="160" y2="-32"/><line x1="-80.5" x2="-80.5" y1="160" y2="-32"/><line x1="-76.5" x2="-76.5" y1="160" y2="-32"/></g><g fill="none" stroke="#000" stroke-miterlimit="10" stroke-width=".25"><line x1="-264.5" x2="-72.5" y1="-28" y2="-28"/><line x1="-264.5" x2="-72.5" y1="-24" y2="-24"/><line x1="-264.5" x2="-72.5" y1="-20" y2="-20"/><line x1="-264.5" x2="-72.5" y1="-16" y2="-16"/><line x1="-264.5" x2="-72.5" y1="-12" y2="-12"/><line x1="-264.5" x2="-72.5" y1="-8" y2="-8"/><line x1="-264.5" x2="-72.5" y1="-4" y2="-4"/><line x1="-264.5" x2="-72.5"/><line x1="-264.5" x2="-72.5" y1="4" y2="4"/><line x1="-264.5" x2="-72.5" y1="8" y2="8"/><line x1="-264.5" x2="-72.5" y1="12" y2="12"/><line x1="-264.5" x2="-72.5" y1="16" y2="16"/><line x1="-264.5" x2="-72.5" y1="20" y2="20"/><line x1="-264.5" x2="-72.5" y1="24" y2="24"/><line x1="-264.5" x2="-72.5" y1="28" y2="28"/><line x1="-264.5" x2="-72.5" y1="32" y2="32"/><line x1="-264.5" x2="-72.5" y1="36" y2="36"/><line x1="-264.5" x2="-72.5" y1="40" y2="40"/><line x1="-264.5" x2="-72.5" y1="44" y2="44"/><line x1="-264.5" x2="-72.5" y1="48" y2="48"/><line x1="-264.5" x2="-72.5" y1="52" y2="52"/><line x1="-264.5" x2="-72.5" y1="56" y2="56"/><line x1="-264.5" x2="-72.5" y1="60" y2="60"/><line x1="-264.5" x2="-72.5" y1="64" y2="64"/><line x1="-264.5" x2="-72.5" y1="68" y2="68"/><line x1="-264.5" x2="-72.5" y1="72" y2="72"/><line x1="-264.5" x2="-72.5" y1="76" y2="76"/><line x1="-264.5" x2="-72.5" y1="80" y2="80"/><line x1="-264.5" x2="-72.5" y1="84" y2="84"/><line x1="-264.5" x2="-72.5" y1="88" y2="88"/><line x1="-264.5" x2="-72.5" y1="92" y2="92"/><line x1="-264.5" x2="-72.5" y1="96" y2="96"/><line x1="-264.5" x2="-72.5" y1="100" y2="100"/><line x1="-264.5" x2="-72.5" y1="104" y2="104"/><line x1="-264.5" x2="-72.5" y1="108" y2="108"/><line x1="-264.5" x2="-72.5" y1="112" y2="112"/><line x1="-264.5" x2="-72.5" y1="116" y2="116"/><line x1="-264.5" x2="-72.5" y1="120" y2="120"/><line x1="-264.5" x2="-72.5" y1="124" y2="124"/><line x1="-264.5" x2="-72.5" y1="128" y2="128"/><line x1="-264.5" x2="-72.5" y1="132" y2="132"/><line x1="-264.5" x2="-72.5" y1="136" y2="136"/><line x1="-264.5" x2="-72.5" y1="140" y2="140"/><line x1="-264.5" x2="-72.5" y1="144" y2="144"/><line x1="-264.5" x2="-72.5" y1="148" y2="148"/><line x1="-264.5" x2="-72.5" y1="152" y2="152"/><line x1="-264.5" x2="-72.5" y1="156" y2="156"/></g><path d="m-72.75-31.75v191.5h-191.5v-191.5h191.5m0.25-0.25h-192v192h192v-192z"/></g></g><g fill="#F44336"><rect x="-232.5" width="4" height="128" opacity=".3"/><rect x="-108.5" width="4" height="128" opacity=".3"/><rect transform="matrix(-1.837e-16 1 -1 -1.837e-16 -166.5 170.5)" x="-170.5" y="-58" width="4" height="120" opacity=".3"/><rect transform="matrix(-1.837e-16 1 -1 -1.837e-16 -42.5 294.5)" x="-170.5" y="66" width="4" height="120" opacity=".3"/></g></g><g display="inline"><g opacity=".6"><circle cx="64" cy="64" r="28" fill="none" opacity=".61" stroke="#000" stroke-miterlimit="10" stroke-width=".2625"/><line x1="84" x2="84" y2="128" fill="none" opacity=".61" stroke="#000" stroke-miterlimit="10" stroke-width=".25"/><line x1="44" x2="44" y2="128" fill="none" opacity=".61" stroke="#000" stroke-miterlimit="10" stroke-width=".25"/><line x1="64" x2="64" y2="128" fill="none" opacity=".61" stroke="#000" stroke-miterlimit="10" stroke-width=".25"/><line x1="128" y1="64" y2="64" fill="none" opacity=".61" stroke="#000" stroke-miterlimit="10" stroke-width=".25"/><line x1="128" y1="44" y2="44" fill="none" opacity=".61" stroke="#000" stroke-miterlimit="10" stroke-width=".25"/><line x1="128" y1="83.75" y2="83.75" fill="none" opacity=".61" stroke="#000" stroke-miterlimit="10" stroke-width=".25"/><line x1="128" y1="128" fill="none" opacity=".61" stroke="#000" stroke-miterlimit="10" stroke-width=".25"/><line x2="128" y1="128" fill="none" opacity=".61" stroke="#000" stroke-miterlimit="10" stroke-width=".25"/><g opacity=".61"><path d="M64,4.26c32.94,0,59.74,26.8,59.74,59.74S96.94,123.74,64,123.74S4.26,96.94,4.26,64S31.06,4.26,64,4.26 M64,4 C30.86,4,4,30.86,4,64s26.86,60,60,60s60-26.86,60-60S97.14,4,64,4L64,4z"/></g><path d="m107.97 115.97h-87.94c-4.42 0-8.03-3.61-8.03-8.03v-87.91c0-4.42 3.61-8.03 8.03-8.03h87.94c4.42 0 8.03 3.61 8.03 8.03v87.91c0 4.42-3.61 8.03-8.03 8.03z" fill="none" opacity=".61" stroke="#000" stroke-miterlimit="10" stroke-width=".2578"/><path d="m100 124h-72c-4.4 0-8-3.6-8-8v-104c0-4.4 3.6-8 8-8h72c4.4 0 8 3.6 8 8v104c0 4.4-3.6 8-8 8z" fill="none" opacity=".61" stroke="#000" stroke-miterlimit="10" stroke-width=".2628"/><path d="M113.77,108H14.23 C8.6,108,4,103.4,4,97.77V30.28c0-5.63,4.6-10.23,10.23-10.23h99.54c5.63,0,10.23,4.6,10.23,10.23v67.48 C124,103.4,119.4,108,113.77,108z" fill="none" opacity=".61" stroke="#000" stroke-miterlimit="10" stroke-width=".2627"/></g><g opacity=".2"><defs><rect id="ad" width="128" height="128" opacity=".2"/></defs><clipPath id="g"><use xlink:href="#ad"/></clipPath><g clip-path="url(#g)"><g fill="none" stroke="#000" stroke-miterlimit="10" stroke-width=".25"><line x1="-28" x2="-28" y1="160" y2="-32"/><line x1="-24" x2="-24" y1="160" y2="-32"/><line x1="-20" x2="-20" y1="160" y2="-32"/><line x1="-16" x2="-16" y1="160" y2="-32"/><line x1="-12" x2="-12" y1="160" y2="-32"/><line x1="-8" x2="-8" y1="160" y2="-32"/><line x1="-4" x2="-4" y1="160" y2="-32"/><line y1="160" y2="-32"/><line x1="4" x2="4" y1="160" y2="-32"/><line x1="8" x2="8" y1="160" y2="-32"/><line x1="12" x2="12" y1="160" y2="-32"/><line x1="16" x2="16" y1="160" y2="-32"/><line x1="20" x2="20" y1="160" y2="-32"/><line x1="24" x2="24" y1="160" y2="-32"/><line x1="28" x2="28" y1="160" y2="-32"/><line x1="32" x2="32" y1="160" y2="-32"/><line x1="36" x2="36" y1="160" y2="-32"/><line x1="40" x2="40" y1="160" y2="-32"/><line x1="44" x2="44" y1="160" y2="-32"/><line x1="48" x2="48" y1="160" y2="-32"/><line x1="52" x2="52" y1="160" y2="-32"/><line x1="56" x2="56" y1="160" y2="-32"/><line x1="60" x2="60" y1="160" y2="-32"/><line x1="64" x2="64" y1="160" y2="-32"/><line x1="68" x2="68" y1="160" y2="-32"/><line x1="72" x2="72" y1="160" y2="-32"/><line x1="76" x2="76" y1="160" y2="-32"/><line x1="80" x2="80" y1="160" y2="-32"/><line x1="84" x2="84" y1="160" y2="-32"/><line x1="88" x2="88" y1="160" y2="-32"/><line x1="92" x2="92" y1="160" y2="-32"/><line x1="96" x2="96" y1="160" y2="-32"/><line x1="100" x2="100" y1="160" y2="-32"/><line x1="104" x2="104" y1="160" y2="-32"/><line x1="108" x2="108" y1="160" y2="-32"/><line x1="112" x2="112" y1="160" y2="-32"/><line x1="116" x2="116" y1="160" y2="-32"/><line x1="120" x2="120" y1="160" y2="-32"/><line x1="124" x2="124" y1="160" y2="-32"/><line x1="128" x2="128" y1="160" y2="-32"/><line x1="132" x2="132" y1="160" y2="-32"/><line x1="136" x2="136" y1="160" y2="-32"/><line x1="137" x2="137" y1="166.05" y2="-25.95"/><line x1="144" x2="144" y1="160" y2="-32"/><line x1="148" x2="148" y1="160" y2="-32"/><line x1="152" x2="152" y1="160" y2="-32"/><line x1="156" x2="156" y1="160" y2="-32"/></g><g fill="none" stroke="#000" stroke-miterlimit="10" stroke-width=".25"><line x1="-32" x2="160" y1="-28" y2="-28"/><line x1="-32" x2="160" y1="-24" y2="-24"/><line x1="-32" x2="160" y1="-20" y2="-20"/><line x1="-32" x2="160" y1="-16" y2="-16"/><line x1="-32" x2="160" y1="-12" y2="-12"/><line x1="-32" x2="160" y1="-8" y2="-8"/><line x1="-32" x2="160" y1="-4" y2="-4"/><line x1="-32" x2="160"/><line x1="-32" x2="160" y1="4" y2="4"/><line x1="-32" x2="160" y1="8" y2="8"/><line x1="-32" x2="160" y1="12" y2="12"/><line x1="-32" x2="160" y1="16" y2="16"/><line x1="-32" x2="160" y1="20" y2="20"/><line x1="-32" x2="160" y1="24" y2="24"/><line x1="-32" x2="160" y1="28" y2="28"/><line x1="-32" x2="160" y1="32" y2="32"/><line x1="-32" x2="160" y1="36" y2="36"/><line x1="-32" x2="160" y1="40" y2="40"/><line x1="-32" x2="160" y1="44" y2="44"/><line x1="-32" x2="160" y1="48" y2="48"/><line x1="-32" x2="160" y1="52" y2="52"/><line x1="-32" x2="160" y1="56" y2="56"/><line x1="-32" x2="160" y1="60" y2="60"/><line x1="-32" x2="160" y1="64" y2="64"/><line x1="-32" x2="160" y1="68" y2="68"/><line x1="-32" x2="160" y1="72" y2="72"/><line x1="-32" x2="160" y1="76" y2="76"/><line x1="-32" x2="160" y1="80" y2="80"/><line x1="-32" x2="160" y1="84" y2="84"/><line x1="-32" x2="160" y1="88" y2="88"/><line x1="-32" x2="160" y1="92" y2="92"/><line x1="-32" x2="160" y1="96" y2="96"/><line x1="-32" x2="160" y1="100" y2="100"/><line x1="-32" x2="160" y1="104" y2="104"/><line x1="-32" x2="160" y1="108" y2="108"/><line x1="-32" x2="160" y1="112" y2="112"/><line x1="-32" x2="160" y1="116" y2="116"/><line x1="-32" x2="160" y1="120" y2="120"/><line x1="-32" x2="160" y1="124" y2="124"/><line x1="-32" x2="160" y1="128" y2="128"/><line x1="-32" x2="160" y1="132" y2="132"/><line x1="-32" x2="160" y1="136" y2="136"/><line x1="-32" x2="160" y1="140" y2="140"/><line x1="-32" x2="160" y1="144" y2="144"/><line x1="-32" x2="160" y1="148" y2="148"/><line x1="-32" x2="160" y1="152" y2="152"/><line x1="-32" x2="160" y1="156" y2="156"/></g><path d="m159.75-31.75v191.5h-191.5v-191.5h191.5m0.25-0.25h-192v192h192v-192z"/></g></g><g fill="#F44336"><rect width="4" height="128" opacity=".3"/><rect x="124" width="4" height="128" opacity=".3"/><rect transform="matrix(-1.837e-16 1 -1 -1.837e-16 66 -62)" x="62" y="-58" width="4" height="120" opacity=".3"/><rect transform="matrix(-1.837e-16 1 -1 -1.837e-16 190 62)" x="62" y="66" width="4" height="120" opacity=".3"/></g></g></g></svg>
