<svg enable-background="new 0 0 128 128" viewBox="0 0 128 128" xmlns="http://www.w3.org/2000/svg"><rect x="3.77" y="108.02" width="120.31" height="15.98" fill="#BDBDBD"/><path d="m46 12h-36c-1.1 0-2 0.9-2 2s0.9 2 2 2h16.49l-11.45 9.53c-0.35 0.29-0.55 0.73-0.54 1.18 0.01 0.46 0.22 0.88 0.58 1.16l12.08 9.32c0.27 0.21 0.59 0.31 0.92 0.31s0.65-0.11 0.92-0.32l11.92-9.32c0.36-0.28 0.57-0.7 0.58-1.15s-0.19-0.88-0.53-1.17l-11.3-9.54h16.33c1.1 0 2-0.9 2-2s-0.9-2-2-2zm-17.92 22.1-9.68-7.46 9.68-8.06 9.55 8.06-9.55 7.46z" fill="#757575"/><g opacity=".2"><path d="m46 13c0.55 0 1 0.45 1 1s-0.45 1-1 1h-16.33c-0.42 0-0.8 0.26-0.94 0.66-0.14 0.39-0.03 0.84 0.29 1.11l11.3 9.54c0.12 0.1 0.18 0.24 0.18 0.39s-0.07 0.29-0.19 0.38l-11.92 9.32c-0.11 0.09-0.23 0.11-0.31 0.11s-0.19-0.02-0.31-0.1l-12.08-9.32c-0.12-0.09-0.19-0.23-0.19-0.38s0.06-0.3 0.18-0.4l11.45-9.53c0.32-0.27 0.44-0.71 0.3-1.11s-0.52-0.66-0.94-0.66h-16.49c-0.55 0-1-0.45-1-1s0.45-1 1-1h36m-17.92 22.09c0.22 0 0.43-0.07 0.62-0.21l9.55-7.46c0.24-0.19 0.38-0.47 0.38-0.77s-0.12-0.59-0.35-0.78l-9.55-8.06c-0.19-0.16-0.42-0.24-0.65-0.24s-0.45 0.08-0.64 0.23l-9.68 8.06c-0.23 0.19-0.37 0.48-0.36 0.79 0.01 0.3 0.15 0.59 0.39 0.77l9.68 7.46c0.18 0.14 0.39 0.21 0.61 0.21m17.92-23.1h-36c-1.1 0-2 0.9-2 2s0.9 2 2 2h16.49l-11.45 9.53c-0.35 0.29-0.55 0.73-0.54 1.18 0.01 0.46 0.22 0.88 0.58 1.16l12.08 9.32c0.27 0.21 0.59 0.31 0.92 0.31s0.65-0.11 0.92-0.32l11.92-9.32c0.36-0.28 0.57-0.7 0.58-1.15s-0.19-0.88-0.53-1.17l-11.3-9.54h16.33c1.1 0 2-0.9 2-2s-0.9-2-2-2zm-17.92 22.1-9.68-7.46 9.68-8.06 9.55 8.06-9.55 7.46z" fill="#424242"/></g><path d="m119 12h-36c-1.1 0-2 0.9-2 2s0.9 2 2 2h16.49l-11.45 9.53c-0.35 0.29-0.55 0.73-0.54 1.18 0.01 0.46 0.22 0.88 0.58 1.16l12.08 9.32c0.27 0.21 0.59 0.31 0.92 0.31s0.65-0.11 0.92-0.32l11.92-9.32c0.36-0.28 0.57-0.7 0.58-1.15s-0.19-0.88-0.53-1.17l-11.3-9.54h16.33c1.1 0 2-0.9 2-2s-0.9-2-2-2zm-17.92 22.1-9.68-7.46 9.68-8.06 9.55 8.06-9.55 7.46z" fill="#757575"/><g opacity=".2"><path d="m119 13c0.55 0 1 0.45 1 1s-0.45 1-1 1h-16.33c-0.42 0-0.8 0.26-0.94 0.66-0.14 0.39-0.03 0.84 0.29 1.11l11.3 9.54c0.12 0.1 0.18 0.24 0.18 0.39s-0.07 0.29-0.19 0.38l-11.92 9.32c-0.11 0.09-0.23 0.11-0.31 0.11s-0.19-0.02-0.31-0.1l-12.08-9.32c-0.12-0.09-0.19-0.23-0.19-0.38s0.06-0.3 0.18-0.4l11.45-9.53c0.32-0.27 0.44-0.71 0.3-1.11s-0.52-0.66-0.94-0.66h-16.49c-0.55 0-1-0.45-1-1s0.45-1 1-1h36m-17.92 22.09c0.22 0 0.43-0.07 0.62-0.21l9.55-7.46c0.24-0.19 0.38-0.47 0.38-0.77s-0.12-0.59-0.35-0.78l-9.55-8.06c-0.19-0.16-0.42-0.24-0.65-0.24s-0.45 0.08-0.64 0.23l-9.68 8.06c-0.23 0.19-0.37 0.48-0.36 0.79 0.01 0.3 0.15 0.59 0.39 0.77l9.68 7.46c0.18 0.14 0.39 0.21 0.61 0.21m17.92-23.1h-36c-1.1 0-2 0.9-2 2s0.9 2 2 2h16.49l-11.45 9.53c-0.35 0.29-0.55 0.73-0.54 1.18 0.01 0.46 0.22 0.88 0.58 1.16l12.08 9.32c0.27 0.21 0.59 0.31 0.92 0.31s0.65-0.11 0.92-0.32l11.92-9.32c0.36-0.28 0.57-0.7 0.58-1.15s-0.19-0.88-0.53-1.17l-11.3-9.54h16.33c1.1 0 2-0.9 2-2s-0.9-2-2-2zm-17.92 22.1-9.68-7.46 9.68-8.06 9.55 8.06-9.55 7.46z" fill="#424242"/></g><rect x="3.77" y="108" width="120.31" height="7.98" fill="#424242"/><g opacity=".2"><path d="m122 110v12h-116v-12h116m2-2h-120v16h120v-16z" fill="#424242"/></g><circle cx="18" cy="105" r="6"/><circle cx="30" cy="105" r="6"/><circle cx="42" cy="105" r="6"/><circle cx="86" cy="105" r="6"/><circle cx="98" cy="105" r="6"/><circle cx="110" cy="105" r="6"/><path d="M124,42c0-3.3-2.7-6-6-6H10c-3.3,0-6,2.7-6,6v1.75h120V42z" fill="#6D4C41"/><linearGradient id="b" x1="64" x2="64" y1="121.92" y2="61" gradientUnits="userSpaceOnUse"><stop stop-color="#FBC02D" offset=".005989"/><stop stop-color="#FFEB3B" offset=".9833"/></linearGradient><path d="M4,43.75v54.92c0,3.3,2.7,6,6,6h108c3.3,0,6-2.7,6-6V43.75H4z" fill="url(#b)"/><rect x="4" y="43.75" width="120" height="32.25" fill="#eee"/><path d="m46.72 72.12h-10.41c-2.21 0-4-1.79-4-4v-16.08c0-2.21 1.79-4 4-4h10.41c2.21 0 4 1.79 4 4v16.08c0 2.21-1.79 4-4 4z" fill="#4FC3F7"/><g opacity=".2"><path d="m118 39c1.49 0 3 0.91 3 2.67v56.95c0 1.79-1.51 3.38-3 3.38h-107.71c-1.58 0-3.29-1.69-3.29-3.38v-56.95c0-1.76 1.51-2.67 3-2.67h108m0-3h-108c-3.3 0-6 2.69-6 5.67v56.95c0 3.32 2.99 6.13 6.29 6.13l107.71-0.08c3.3 0 6-2.73 6-6.05v-56.62c0-3.32-2.7-6-6-6z" fill="#424242"/></g><path d="m23.09 72.12h-10.18c-2.19 0-3.97-1.78-3.97-3.97v-16.14c0-2.19 1.78-3.97 3.97-3.97h10.19c2.19 0 3.97 1.78 3.97 3.97v16.15c-0.01 2.19-1.78 3.96-3.98 3.96z" fill="#4FC3F7"/><g opacity=".2"><path d="m23.09 50.03c1.09 0 1.98 0.89 1.98 1.98v16.15c0 1.09-0.89 1.98-1.98 1.98h-10.18c-1.09 0-1.98-0.89-1.98-1.98v-16.15c0-1.09 0.89-1.98 1.98-1.98h10.18m0-1.99h-10.18c-2.19 0-3.97 1.78-3.97 3.97v16.15c0 2.19 1.78 3.97 3.97 3.97h10.19c2.19 0 3.97-1.78 3.97-3.97v-16.15c-0.01-2.19-1.78-3.97-3.98-3.97z" fill="#424242"/></g><g opacity=".2"><path d="m46.72 50.04c1.1 0 2 0.9 2 2v16.08c0 1.1-0.9 2-2 2h-10.41c-1.1 0-2-0.9-2-2v-16.08c0-1.1 0.9-2 2-2h10.41m0-2h-10.41c-2.21 0-4 1.79-4 4v16.08c0 2.21 1.79 4 4 4h10.41c2.21 0 4-1.79 4-4v-16.08c0-2.21-1.79-4-4-4z" fill="#424242"/></g><path d="m71.94 72.12h-10.19c-2.19 0-3.97-1.78-3.97-3.97v-16.14c0-2.19 1.78-3.97 3.97-3.97h10.19c2.19 0 3.97 1.78 3.97 3.97v16.15c0 2.19-1.78 3.96-3.97 3.96z" fill="#4FC3F7"/><g opacity=".2"><path d="m71.94 50.03c1.09 0 1.98 0.89 1.98 1.98v16.15c0 1.09-0.89 1.98-1.98 1.98h-10.19c-1.09 0-1.98-0.89-1.98-1.98v-16.15c0-1.09 0.89-1.98 1.98-1.98h10.19m0-1.99h-10.19c-2.19 0-3.97 1.78-3.97 3.97v16.15c0 2.19 1.78 3.97 3.97 3.97h10.19c2.19 0 3.97-1.78 3.97-3.97v-16.15c0-2.19-1.78-3.97-3.97-3.97z" fill="#424242"/></g><path d="m93.23 72.12h-10.18c-2.19 0-3.97-1.78-3.97-3.97v-16.14c0-2.19 1.78-3.97 3.97-3.97h10.19c2.19 0 3.97 1.78 3.97 3.97v16.15c-0.01 2.19-1.78 3.96-3.98 3.96z" fill="#4FC3F7"/><g opacity=".2"><path d="m93.23 50.03c1.09 0 1.98 0.89 1.98 1.98v16.15c0 1.09-0.89 1.98-1.98 1.98h-10.18c-1.09 0-1.98-0.89-1.98-1.98v-16.15c0-1.09 0.89-1.98 1.98-1.98h10.18m0-1.99h-10.18c-2.19 0-3.97 1.78-3.97 3.97v16.15c0 2.19 1.78 3.97 3.97 3.97h10.19c2.19 0 3.97-1.78 3.97-3.97v-16.15c-0.01-2.19-1.78-3.97-3.98-3.97z" fill="#424242"/></g><path d="m114.53 72.12h-10.19c-2.19 0-3.97-1.78-3.97-3.97v-16.14c0-2.19 1.78-3.97 3.97-3.97h10.19c2.19 0 3.97 1.78 3.97 3.97v16.15c0 2.19-1.78 3.96-3.97 3.96z" fill="#4FC3F7"/><g opacity=".2"><path d="m114.53 50.03c1.09 0 1.98 0.89 1.98 1.98v16.15c0 1.09-0.89 1.98-1.98 1.98h-10.19c-1.09 0-1.98-0.89-1.98-1.98v-16.15c0-1.09 0.89-1.98 1.98-1.98h10.19m0-1.99h-10.19c-2.19 0-3.97 1.78-3.97 3.97v16.15c0 2.19 1.78 3.97 3.97 3.97h10.19c2.19 0 3.97-1.78 3.97-3.97v-16.15c0-2.19-1.78-3.97-3.97-3.97z" fill="#424242"/></g><rect x="29.28" y="90.69" width="26" height="5.88" fill="#757575"/><linearGradient id="a" x1="42.276" x2="42.276" y1="103.46" y2="64.196" gradientUnits="userSpaceOnUse"><stop stop-color="#FBC02D" offset=".005989"/><stop stop-color="#FFEB3B" offset=".9833"/></linearGradient><path d="m50.6 96.06h-16.65c-2.58 0-4.68-2.09-4.68-4.68v-38.64c0-2.58 2.09-4.68 4.68-4.68h16.65c2.58 0 4.68 2.09 4.68 4.68v38.65c0 2.58-2.1 4.67-4.68 4.67z" fill="url(#a)"/><path d="m37.83 92.64h-3.19c-1.03 0-1.86-0.83-1.86-1.86v-37.28c0-1.03 0.83-1.86 1.86-1.86h3.19c1.03 0 1.86 0.83 1.86 1.86v37.29c0 1.02-0.83 1.85-1.86 1.85z" fill="#4FC3F7"/><g opacity=".2"><path d="m37.85 52.54c0.52 0 0.94 0.42 0.94 0.94v37.32c0 0.52-0.42 0.94-0.94 0.94h-3.23c-0.52 0-0.94-0.42-0.94-0.94v-37.32c0-0.52 0.42-0.94 0.94-0.94h3.23m0-0.91h-3.23c-1.02 0-1.84 0.83-1.84 1.84v37.33c0 1.02 0.83 1.84 1.84 1.84h3.23c1.02 0 1.84-0.83 1.84-1.84v-37.32c0-1.02-0.82-1.85-1.84-1.85z" fill="#424242"/></g><path d="m50 92.64h-3.2c-1.03 0-1.86-0.83-1.86-1.86v-37.28c0-1.03 0.83-1.86 1.86-1.86h3.2c1.03 0 1.86 0.83 1.86 1.86v37.29c0 1.02-0.83 1.85-1.86 1.85z" fill="#4FC3F7"/><g opacity=".2"><path d="m50.02 52.54c0.52 0 0.94 0.42 0.94 0.94v37.32c0 0.52-0.42 0.94-0.94 0.94h-3.23c-0.52 0-0.94-0.42-0.94-0.94v-37.32c0-0.52 0.42-0.94 0.94-0.94h3.23m0-0.91h-3.23c-1.02 0-1.84 0.83-1.84 1.84v37.33c0 1.02 0.83 1.84 1.84 1.84h3.23c1.02 0 1.84-0.83 1.84-1.84v-37.32c0-1.02-0.83-1.85-1.84-1.85z" fill="#424242"/></g><rect x="29.28" y="96.06" width="26" height="4.57" fill="#939393"/><rect x="29.28" y="99.44" width="26" height="1.74" fill="#757575"/><rect x="29.28" y="100.9" width="26" height="3.77" fill="#BDBDBD"/><path d="m54.24 97.1v6.53h-23.93v-6.53h23.93m1.04-1.04h-26v8.6h26v-8.6z" fill="#757575"/><path d="m50.8 48.06h-17.06c-2.71 0-4.47 2.02-4.47 4.51v38.97c0 2.49 2.17 4.51 4.84 4.51h16.32c2.67 0 4.84-2.02 4.84-4.51v-38.96c0.01-2.5-1.76-4.52-4.47-4.52zm-9.52 42.88v0.16c0 0.55 0 3.11-2.84 3.11h-4.31c-1.57 0-2.84-1.19-2.84-2.65v-38.98c0-1.46 1.28-2.65 2.84-2.65h4.31c2.84 0 2.84 2.74 2.84 3.26v37.75zm12 0.61c0 1.46-1.28 2.65-2.84 2.65h-4.31c-2.84 0-2.84-2.55-2.84-3.11v-37.9c0-0.52 0-3.26 2.84-3.26h4.31c1.57 0 2.84 1.19 2.84 2.65v38.97z" fill="#F2A600"/></svg>
