<svg width="128" height="128" style="enable-background:new 0 0 128 128;" xmlns="http://www.w3.org/2000/svg" xmlns:xlink="http://www.w3.org/1999/xlink">
  <g>
    <path d="M90.32,62.5c-5.16-32.75-6.83-53-6.83-53H64.32h-0.43H44.72c0,0-1.66,20.25-6.83,53 c-2.7,17.1-13.73,11.12-14,38.9c-0.16,16.52,18.76,11.75,25.88,12.82c9.27,1.4,5.79,4.18,14.12,4.27v0c0.08,0,0.14,0,0.22,0 c0.07,0,0.14,0,0.22,0v0c8.33-0.09,4.85-2.87,14.12-4.27c7.12-1.08,26.04,3.7,25.88-12.82C104.05,73.62,93.02,79.6,90.32,62.5z" style="fill:#F9C035;"/>
    <path d="M35.18,103.18c0,0,9.89-12.13,18.76-0.94c7.8,9.84-3.19,6.56-8.51,5.62 C36.14,106.23,32.23,111.68,35.18,103.18z" style="fill:#E28C25;"/>
    <path d="M93.04,103.18c0,0-9.89-12.13-18.76-0.94c-7.8,9.84,3.19,6.56,8.51,5.62 C92.08,106.23,95.99,111.68,93.04,103.18z" style="fill:#E28C25;"/>
  </g>
</svg>