<svg xmlns="http://www.w3.org/2000/svg" viewBox="0 0 128 128"><path d="M119.71.43H8.28C3.96.43.42 3.96.42 8.29v111.43c0 4.32 3.53 7.86 7.86 7.86h111.43c4.32 0 7.86-3.54 7.86-7.86V8.29c0-4.33-3.53-7.86-7.86-7.86z" fill="#ed6c30"/><path d="M104.87 26.72H94.58c-.42 0-.82.16-1.11.46-.29.29-.46.7-.46 1.11v65.53h-8.13c-.45 0-.88.2-1.18.53-.3.34-.44.79-.38 1.24l1.39 10.76c.1.79.77 1.37 1.56 1.37h12.89c.08 0 .85 0 1.88-.25 1.02-.25 2.35-.73 3.41-1.9 1.07-1.22 1.52-2.62 1.76-3.72.23-1.1.23-1.91.23-1.99V28.29c0-.41-.17-.82-.46-1.11-.29-.3-.7-.46-1.11-.46z" fill="#fff"/><path d="M87.57 84.6c.29-.29.46-.7.46-1.11v-55.2c0-.41-.17-.82-.46-1.11-.29-.29-.7-.46-1.11-.46h-10.3c-.41 0-.82.16-1.11.46-.29.29-.46.7-.46 1.11v55.2c0 .41.17.82.46 1.11.29.29.7.46 1.11.46h10.29c.42 0 .82-.17 1.12-.46zM67.41 83.89H25.14c-.41 0-.82.17-1.11.46-.29.29-.46.7-.46 1.11v20.94c0 .41.17.82.46 1.11.29.29.7.46 1.11.46h42.27c.41 0 .82-.17 1.11-.46.29-.29.46-.7.46-1.11V85.46c0-.41-.17-.82-.46-1.11-.29-.29-.7-.46-1.11-.46zm-10.49 9.15v5.77l-.17.41-.41.16H36.2l-.4-.16-.17-.41v-5.77l.17-.4.4-.17h20.14l.41.17.17.4zM69.94 31.24H52.06v-5.66c0-.42-.17-.82-.46-1.12-.29-.29-.7-.46-1.11-.46h-8.43c-.42 0-.82.17-1.11.46-.29.3-.46.7-.46 1.12v5.66H22.61c-.41 0-.82.17-1.11.46-.29.29-.46.7-.46 1.11v8.59c0 .22.06.43.15.63v7.29c0 .41.17.82.46 1.11.29.29.7.46 1.11.46h7.1c.41 0 .82-.17 1.11-.46.29-.29.46-.7.46-1.11v-6.35h9.06v3.9h-4.85c-.41 0-.82.17-1.11.46-.29.29-.46.7-.46 1.11v6.21c0 .41.17.82.46 1.11.29.29.7.46 1.11.46h4.85v2.76h-9.71c-.41 0-.82.17-1.11.46-.29.29-.46.69-.46 1.11v6.21c0 .42.17.81.46 1.11.29.29.7.46 1.11.46h9.71v2.76H25.14c-.41 0-.82.17-1.11.46-.29.29-.46.7-.46 1.11v6.21c0 .42.17.82.46 1.11.29.29.7.46 1.11.46h42.27c.41 0 .82-.17 1.11-.46.29-.29.46-.7.46-1.11v-6.21c0-.41-.17-.82-.46-1.11-.29-.29-.7-.46-1.11-.46H52.06v-2.76h9.71a1.574 1.574 0 0 0 1.57-1.57v-6.21c0-.41-.17-.81-.46-1.11-.29-.29-.7-.46-1.11-.46h-9.71v-2.76h4.85c.41 0 .82-.17 1.11-.46.29-.29.46-.7.46-1.11v-6.21c0-.41-.17-.82-.46-1.11-.29-.29-.7-.46-1.11-.46h-4.85v-3.9h9.2v6.35c0 .41.17.82.46 1.11.29.29.7.46 1.11.46h7.1c.42 0 .82-.17 1.11-.46.29-.29.46-.7.46-1.11v-16.5c0-.41-.17-.82-.46-1.11-.28-.3-.69-.47-1.1-.47z" fill="#fff"/></svg>