<svg xmlns="http://www.w3.org/2000/svg" viewBox="0 0 128 128"><path d="M70.88 13.42c-3.35-.31-6.69 2.5-9.28 4.46-1.25.95-2.62 2-3.56 3.36-.89 1.29-1.08 3.12-2.25 4.1-1.83 1.55-5.4 1.27-7.66 2.44-2.67 1.38-5.33 3.25-6.93 5.7-1.68 2.56-2.71 4.45-2.32 7.67.33 2.75 2.83 5.13 2.89 7.82.09 3.39-3.05 3.09-5.72 3.4-3.15.37-5.99.89-9.25.87-4.7-.03-9.43 1.05-13.88 2.52-3.51 1.16-8.22 1.89-10.38 5.25C.47 64.22 1.2 68.83 1.2 72.44c0 3.13.23 7.07 2.13 9.71 2.24 3.1 7.85 3 11.37 3.1 4.1.11 7.94.04 11.93.71 2.88.49 5.83 1.03 8.71 1.58 2.27.44 4.68.26 7 .66.89 2.63-2.5 5.68-2.75 8.43-.33 3.52 1.79 5.11 4.11 7.27 5.39 5.03 10.09 4.82 17.24 4.82 1.4 0 2.89-.15 4.27 0 1.99.22 2.46.85 4.27 1.63 2.66 1.14 6.51 1.69 9.4 1.92 7.02.54 15.47-.29 21.16-4.76 3.04-2.39 4.01-5.45 5.7-8.78 1.42-2.79 3.54-2.96 6.25-4.41 3.04-1.62 3.72-3.86 4.38-6.93.83-3.82.31-5-.87-8.5-2.57-7.66 5.01-9.88 6.62-16.39 1.46-5.92.92-11.63-3-16.32-1.09-1.3-2.11-3.15-3.35-4.3-1.57-1.47-4.11-2.21-5.92-3.38-2.6-1.69-6.59-4.98-9.69-5.28-.81-4.65.94-9.38-2.4-13.38-3.17-3.8-9.62-5.4-14.06-7.11l-12.82.69z" fill="#fff"/><g fill="#78a3ad"><path d="M9.92 73.53c6.96-.02 13.92-.32 20.88-.23 5.49.08 10.96.25 16.44.16 2.56-.04 9.14 1.18 8.81-3.2-.08-1.11-.61-1.78-1.38-2.2-1.5-.82-3.85-.67-5.41-.85-4.26-.48-8.56-.26-12.82-.11-11.63.4-23.21 1.65-34.75 3.03-1.91.23-1.59 3.55.32 3.37 2.6-.23 5.29.03 7.91.03z"/><path d="M126.59 61.99c1.27-4.23 1.33-8.8.21-13.06-.95-3.58-2.75-6.92-5.38-9.6-2.32-2.36-5.59-4.95-8.65-6.26-1.81-.77-3.88-.89-5.62-1.83-2.46-1.33-1.75-3.3-2.12-5.73-1.05-6.95-4.94-9.94-10.65-13.4-2.87-1.73-6-2.86-9.3-3.38-9.98-1.58-24.27.5-29.33 10.61-1.47 2.94-2.01 4.37-5.43 5.25-6.05 1.57-11.65 4.33-14.54 10.17-2.48 5.02-2.68 11.1.58 15.78-.7.09-1.4.17-2.09.27-5.74.84-11.5 1.58-17.19 2.72-2.79.56-5.57 1.2-8.3 2-2.05.6-5.07 1.12-6.73 2.57-1.25 1.09.23 2.51 1.57 2.3 14.43-2.3 29.19-2.98 43.77-3.84 2.27-.13 5.89.2 7.78-1.31 2.59-2.08-.39-4.34-2.54-4.99-1.38-.42-2.77-.63-3.47-.62-2.17.02-4.31.12-6.45.27-.01-.02-.03-.04-.03-.05-3.38-6.49-1.22-14.12 5.48-17.25 2.98-1.39 6.4-1.73 9.63-1.2.6.1 1.86.58 2.49.3 1.31-.58 1.45-3.14 1.65-4.34.21-1.26.6-2.43 1.23-3.55 1.18-2.11 3.04-3.76 5.17-4.9 8.99-4.83 23.33-2.24 27.83 7.68.39.86.69 1.77.9 2.69.11.51.7 2.59.36 3.01-1.1 1.35-1.41 4.18.64 4.89.73.26 1.69.21 2.46.35 5.4.98 11.04 2.43 14.65 6.84 6 7.3 5.52 19.88-3.17 25.04-1.83 1.09-1.57 3.72-.33 5.22 3.37 4.05 4.51 9.89 1.78 14.59-1.73 3-4.79 4.94-8.18 5.55-1.07.19-1.75.12-2.75-.12-.75-.18-1.52-.05-2.08.5-1.35 1.32-1.43 4.35-2.09 6.05-.75 1.93-2.08 3.55-3.63 4.9-5.1 4.45-12.89 5.78-19.28 3.73-1.59-.51-3.26-1.25-4.52-2.38-1.02-.9-1.77-2.75-3.35-2.68-.82.04-1.49.34-2.25.58-2.33.75-4.94 1.2-7.4 1.03-4.45-.3-9.37-2.02-12.44-5.38-1.49-1.64-2.38-3.62-2.44-5.85-.04-1.78.67-3.34 1.2-4.93 3.7.51 14.18 2.83 14.55-1.98.13-1.71-1.14-2.76-2.95-3.42-2.98-1.08-7.41-1.09-9.42-1.23-7-.48-13.99-.77-21-1.09-6.53-.31-13.08-.86-19.59-.52-1.06.05-2.31.12-2.54 1.26-.13.63.36 1.63 1.18 1.74 11.48 1.46 22.9 3.25 34.39 4.61-.66 1.63-1.12 3.38-1.33 5.05-.56 4.78 1.19 11.85 4.72 15.23 3.56 3.43 9.66 4.53 14.41 4.79 3.09.17 6.13-1.3 9.19-.85 1.73.25 3.22 1.25 4.6 2.27 1.3.96 2.69 1.75 4.23 2.29 2.75.97 5.68 1.38 8.58 1.38 5.05 0 10.58-1.43 14.56-4.66 2.9-2.35 4.9-6.16 6.83-9.3 2.05-3.32 6.84-3.19 10.05-5.3 3.05-2 5.4-4.93 7.05-8.16.86-1.66 1.16-3.46 1.41-5.3.26-1.91.22-3.74.08-5.65-.18-2.3-.54-3.68-1.76-5.62-1.58-2.52-.42-4.76 1.2-6.88 1.7-2.24 3.09-4.17 3.91-6.9z"/></g></svg>