<?xml version="1.0" encoding="UTF-8" standalone="no"?>
<svg
   xmlns:dc="http://purl.org/dc/elements/1.1/"
   xmlns:cc="http://creativecommons.org/ns#"
   xmlns:rdf="http://www.w3.org/1999/02/22-rdf-syntax-ns#"
   xmlns:svg="http://www.w3.org/2000/svg"
   xmlns="http://www.w3.org/2000/svg"
   xmlns:xlink="http://www.w3.org/1999/xlink"
   xmlns:sodipodi="http://sodipodi.sourceforge.net/DTD/sodipodi-0.dtd"
   xmlns:inkscape="http://www.inkscape.org/namespaces/inkscape"
   width="128"
   height="128"
   style="enable-background:new 0 0 128 128;"
   version="1.1"
   id="svg6"
   sodipodi:docname="emoji_u1f9c1.svg"
   inkscape:version="0.92.3 (2405546, 2018-03-11)">
  <sodipodi:namedview
     inkscape:snap-nodes="false"
     inkscape:object-nodes="false"
     pagecolor="#ffffff"
     bordercolor="#666666"
     borderopacity="1"
     objecttolerance="10"
     gridtolerance="10"
     guidetolerance="10"
     inkscape:pageopacity="0"
     inkscape:pageshadow="2"
     inkscape:window-width="1920"
     inkscape:window-height="1046"
     id="namedview8"
     showgrid="false"
     inkscape:zoom="1.84375"
     inkscape:cx="-135.90657"
     inkscape:cy="60.685896"
     inkscape:window-x="-11"
     inkscape:window-y="-11"
     inkscape:window-maximized="1"
     inkscape:current-layer="g952"
     inkscape:snap-bbox="true"
     inkscape:bbox-nodes="true"
     inkscape:snap-bbox-edge-midpoints="false"
     inkscape:bbox-paths="true"
     inkscape:snap-smooth-nodes="true"
     inkscape:snap-bbox-midpoints="false"
     inkscape:snap-object-midpoints="false"
     inkscape:snap-global="false"
     inkscape:object-paths="false"
     inkscape:snap-others="false" />
  <metadata
     id="metadata12">
    <rdf:RDF>
      <cc:Work
         rdf:about="">
        <dc:format>image/svg+xml</dc:format>
        <dc:type
           rdf:resource="http://purl.org/dc/dcmitype/StillImage" />
        <dc:title />
      </cc:Work>
    </rdf:RDF>
  </metadata>
  <defs
     id="defs10">
    <linearGradient
       id="linearGradient1893"
       inkscape:collect="always">
      <stop
         id="stop1889"
         offset="0"
         style="stop-color:#000000;stop-opacity:1;" />
      <stop
         id="stop1891"
         offset="1"
         style="stop-color:#000000;stop-opacity:0;" />
    </linearGradient>
    <radialGradient
       gradientUnits="userSpaceOnUse"
       gradientTransform="matrix(1,0,0,0.44941011,0,43.495023)"
       r="46.716905"
       fy="78.997134"
       fx="63.853499"
       cy="78.997134"
       cx="63.853499"
       id="radialGradient1895"
       xlink:href="#linearGradient1893"
       inkscape:collect="always" />
    <clipPath
       clipPathUnits="userSpaceOnUse"
       id="clipPath2378">
      <path
         style="opacity:1;vector-effect:none;fill:#ab6208;fill-opacity:1;stroke:none;stroke-width:1.00000012px;stroke-linecap:butt;stroke-linejoin:miter;stroke-miterlimit:4;stroke-dasharray:none;stroke-dashoffset:0;stroke-opacity:1;paint-order:stroke fill markers"
         d="M 109.38065,48.822544 A 45.525349,10.583292 0 0 1 63.855301,59.405836 45.525349,10.583292 0 0 1 18.329952,48.822544 45.525349,10.583292 0 0 1 63.855301,38.239252 45.525349,10.583292 0 0 1 109.38065,48.822544 Z"
         id="path2380"
         inkscape:connector-curvature="0" />
    </clipPath>
    <clipPath
       clipPathUnits="userSpaceOnUse"
       id="clipPath1034">
      <path
         inkscape:connector-curvature="0"
         id="path1036"
         d="m 37.576449,20.359578 23.122416,35.059753 2.616323,-1.725503 0.07784,-0.04041 0.364783,0.04723 0.06431,0.128075 2.03506,-1.342151 -0.100882,-0.197435 0.175188,-0.320855 2.616323,-1.725504 0.07784,-0.04041 0.364782,0.04723 0.06431,0.128075 2.035059,-1.342151 -0.100889,-0.197447 0.175193,-0.320849 2.616323,-1.725504 0.07787,-0.04036 0.364781,0.04723 0.06431,0.128075 2.03506,-1.342152 -0.100889,-0.197446 0.175193,-0.32085 2.616323,-1.725503 0.07784,-0.04041 0.364786,0.04723 0.0643,0.128069 2.03506,-1.342152 -0.100885,-0.19744 0.175188,-0.320856 2.616324,-1.725503 0.07784,-0.04042 0.364782,0.04723 0.0643,0.12807 2.035059,-1.342152 -0.100881,-0.197434 0.175188,-0.320856 2.61632,-1.725501 0.07784,-0.04041 0.364783,0.04722 0.06433,0.12806 2.03506,-1.342151 -0.100876,-0.197439 0.175188,-0.320855 2.616325,-1.725504 0.07784,-0.04041 0.364783,0.04722 0.06433,0.12806 2.03506,-1.342151 -0.10088,-0.197444 0.175191,-0.320849 1.250672,-0.824837 -23.122202,-35.0594291 z"
         style="opacity:1;vector-effect:none;fill:#f8f8f8;fill-opacity:1;stroke:none;stroke-width:13.99999905;stroke-linecap:butt;stroke-linejoin:miter;stroke-miterlimit:4;stroke-dasharray:none;stroke-dashoffset:0;stroke-opacity:1;paint-order:stroke fill markers" />
    </clipPath>
    <clipPath
       clipPathUnits="userSpaceOnUse"
       id="clipPath1038">
      <path
         style="opacity:1;vector-effect:none;fill:#f8f8f8;fill-opacity:1;stroke:none;stroke-width:13.99999905;stroke-linecap:butt;stroke-linejoin:miter;stroke-miterlimit:4;stroke-dasharray:none;stroke-dashoffset:0;stroke-opacity:1;paint-order:stroke fill markers"
         d="M -0.60335241,8.4788686 38.885626,66.74113 l 4.347802,-2.946853 0.12958,-0.06937 0.612283,0.07142 0.110469,0.213261 3.381861,-2.292157 -0.173228,-0.328717 0.286784,-0.541378 4.347803,-2.946853 0.12958,-0.06937 0.612282,0.07142 0.11047,0.213262 3.38186,-2.292156 -0.173241,-0.328736 0.286791,-0.54137 4.347803,-2.946853 0.129644,-0.06928 0.612281,0.07142 0.11047,0.213261 3.381861,-2.292156 -0.173241,-0.328737 0.286792,-0.54137 4.347802,-2.946852 0.12958,-0.06937 0.612288,0.07143 0.110463,0.213252 3.38186,-2.292157 -0.173234,-0.328727 0.286785,-0.541379 4.347804,-2.946853 0.12958,-0.06937 0.612281,0.07142 0.110463,0.213252 3.38186,-2.292156 -0.173228,-0.328717 0.286784,-0.541379 4.347797,-2.946849 0.129582,-0.06937 0.612283,0.07142 0.110507,0.213236 3.38186,-2.292156 -0.173219,-0.328724 0.286783,-0.541378 4.347807,-2.946855 0.129581,-0.06937 0.612283,0.07142 0.110508,0.213236 3.38186,-2.292156 -0.173226,-0.328733 0.28679,-0.541368 2.078364,-1.408674 -39.488612,-58.261724 z"
         id="path1040"
         inkscape:connector-curvature="0" />
    </clipPath>
    <clipPath
       clipPathUnits="userSpaceOnUse"
       id="clipPath1042">
      <path
         inkscape:connector-curvature="0"
         id="path1044"
         d="m 47.380824,-21.467864 -23.978057,57.272265 4.273925,1.789355 0.113747,0.06223 0.242642,0.486653 -0.104208,0.184472 3.324396,1.391818 0.1592,-0.286522 0.538186,-0.04938 4.273925,1.789355 0.113747,0.06223 0.242641,0.486653 -0.104207,0.184472 3.324395,1.391817 0.159207,-0.286541 0.538183,-0.04937 4.273926,1.789355 0.113708,0.06233 0.24264,0.486652 -0.104208,0.184473 3.324396,1.391817 0.159208,-0.286541 0.538184,-0.04937 4.273924,1.789355 0.113748,0.06223 0.242636,0.486662 -0.104204,0.184463 3.324396,1.391818 0.159203,-0.286532 0.538187,-0.04938 4.273927,1.789355 0.113747,0.06223 0.24264,0.486653 -0.104204,0.184462 3.324395,1.391818 0.1592,-0.286523 0.538186,-0.04938 4.27392,1.789352 0.113749,0.06223 0.242642,0.486653 -0.104171,0.184488 3.324395,1.391817 0.159209,-0.286518 0.538185,-0.04938 4.273928,1.789356 0.113749,0.06223 0.242642,0.486653 -0.10417,0.184488 3.324395,1.391817 0.159212,-0.286528 0.538182,-0.04937 2.04305,0.85536 23.977832,-57.2717372 z"
         style="opacity:1;vector-effect:none;fill:#f8f8f8;fill-opacity:1;stroke:none;stroke-width:13.99999905;stroke-linecap:butt;stroke-linejoin:miter;stroke-miterlimit:4;stroke-dasharray:none;stroke-dashoffset:0;stroke-opacity:1;paint-order:stroke fill markers" />
    </clipPath>
    <filter
       inkscape:menu="Textures"
       inkscape:label="Watercolor"
       inkscape:menu-tooltip="Cloudy watercolor effect"
       height="2"
       y="-0.5"
       width="1.6"
       x="-0.3"
       style="color-interpolation-filters:sRGB;"
       id="filter1723">
      <feGaussianBlur
         stdDeviation="15"
         result="result8"
         id="feGaussianBlur1705" />
      <feTurbulence
         seed="27"
         result="result7"
         type="fractalNoise"
         numOctaves="5"
         baseFrequency="0.025"
         id="feTurbulence1707" />
      <feComposite
         in2="result8"
         result="result6"
         operator="over"
         in="result7"
         id="feComposite1709" />
      <feColorMatrix
         result="result9"
         values="1 0 0 0 0 0 1 0 0 0 0 0 1 0 0 0 0 0 6 -4 "
         id="feColorMatrix1711" />
      <feDisplacementMap
         in="result7"
         in2="result9"
         xChannelSelector="A"
         yChannelSelector="A"
         scale="45"
         result="result4"
         id="feDisplacementMap1713" />
      <feComposite
         in2="result4"
         result="result2"
         operator="in"
         in="result8"
         id="feComposite1715" />
      <feComposite
         result="fbSourceGraphic"
         in="result2"
         operator="in"
         in2="result9"
         id="feComposite1717" />
      <feComposite
         operator="arithmetic"
         k2="1"
         k1="0.5"
         in="fbSourceGraphic"
         in2="fbSourceGraphic"
         result="result91"
         id="feComposite1719" />
      <feBlend
         in="fbSourceGraphic"
         mode="multiply"
         in2="result91"
         id="feBlend1721" />
    </filter>
    <filter
       inkscape:menu="Textures"
       inkscape:label="Watercolor"
       inkscape:menu-tooltip="Cloudy watercolor effect"
       height="2"
       y="-0.5"
       width="1.6"
       x="-0.3"
       style="color-interpolation-filters:sRGB;"
       id="filter1743">
      <feGaussianBlur
         stdDeviation="15"
         result="result8"
         id="feGaussianBlur1725" />
      <feTurbulence
         seed="27"
         result="result7"
         type="fractalNoise"
         numOctaves="5"
         baseFrequency="0.025"
         id="feTurbulence1727" />
      <feComposite
         in2="result8"
         result="result6"
         operator="over"
         in="result7"
         id="feComposite1729" />
      <feColorMatrix
         result="result9"
         values="1 0 0 0 0 0 1 0 0 0 0 0 1 0 0 0 0 0 6 -4 "
         id="feColorMatrix1731" />
      <feDisplacementMap
         in="result7"
         in2="result9"
         xChannelSelector="A"
         yChannelSelector="A"
         scale="45"
         result="result4"
         id="feDisplacementMap1733" />
      <feComposite
         in2="result4"
         result="result2"
         operator="in"
         in="result8"
         id="feComposite1735" />
      <feComposite
         result="fbSourceGraphic"
         in="result2"
         operator="in"
         in2="result9"
         id="feComposite1737" />
      <feComposite
         operator="arithmetic"
         k2="1"
         k1="0.5"
         in="fbSourceGraphic"
         in2="fbSourceGraphic"
         result="result91"
         id="feComposite1739" />
      <feBlend
         in="fbSourceGraphic"
         mode="multiply"
         in2="result91"
         id="feBlend1741" />
    </filter>
    <filter
       inkscape:menu="Textures"
       inkscape:label="Watercolor"
       inkscape:menu-tooltip="Cloudy watercolor effect"
       height="2"
       y="-0.5"
       width="1.6"
       x="-0.3"
       style="color-interpolation-filters:sRGB;"
       id="filter1763">
      <feGaussianBlur
         stdDeviation="15"
         result="result8"
         id="feGaussianBlur1745" />
      <feTurbulence
         seed="27"
         result="result7"
         type="fractalNoise"
         numOctaves="5"
         baseFrequency="0.025"
         id="feTurbulence1747" />
      <feComposite
         in2="result8"
         result="result6"
         operator="over"
         in="result7"
         id="feComposite1749" />
      <feColorMatrix
         result="result9"
         values="1 0 0 0 0 0 1 0 0 0 0 0 1 0 0 0 0 0 6 -4 "
         id="feColorMatrix1751" />
      <feDisplacementMap
         in="result7"
         in2="result9"
         xChannelSelector="A"
         yChannelSelector="A"
         scale="45"
         result="result4"
         id="feDisplacementMap1753" />
      <feComposite
         in2="result4"
         result="result2"
         operator="in"
         in="result8"
         id="feComposite1755" />
      <feComposite
         result="fbSourceGraphic"
         in="result2"
         operator="in"
         in2="result9"
         id="feComposite1757" />
      <feComposite
         operator="arithmetic"
         k2="1"
         k1="0.5"
         in="fbSourceGraphic"
         in2="fbSourceGraphic"
         result="result91"
         id="feComposite1759" />
      <feBlend
         in="fbSourceGraphic"
         mode="multiply"
         in2="result91"
         id="feBlend1761" />
    </filter>
    <filter
       inkscape:menu="Textures"
       inkscape:label="Watercolor"
       inkscape:menu-tooltip="Cloudy watercolor effect"
       height="2"
       y="-0.5"
       width="1.6"
       x="-0.3"
       style="color-interpolation-filters:sRGB;"
       id="filter1783">
      <feGaussianBlur
         stdDeviation="15"
         result="result8"
         id="feGaussianBlur1765" />
      <feTurbulence
         seed="27"
         result="result7"
         type="fractalNoise"
         numOctaves="5"
         baseFrequency="0.025"
         id="feTurbulence1767" />
      <feComposite
         in2="result8"
         result="result6"
         operator="over"
         in="result7"
         id="feComposite1769" />
      <feColorMatrix
         result="result9"
         values="1 0 0 0 0 0 1 0 0 0 0 0 1 0 0 0 0 0 6 -4 "
         id="feColorMatrix1771" />
      <feDisplacementMap
         in="result7"
         in2="result9"
         xChannelSelector="A"
         yChannelSelector="A"
         scale="45"
         result="result4"
         id="feDisplacementMap1773" />
      <feComposite
         in2="result4"
         result="result2"
         operator="in"
         in="result8"
         id="feComposite1775" />
      <feComposite
         result="fbSourceGraphic"
         in="result2"
         operator="in"
         in2="result9"
         id="feComposite1777" />
      <feComposite
         operator="arithmetic"
         k2="1"
         k1="0.5"
         in="fbSourceGraphic"
         in2="fbSourceGraphic"
         result="result91"
         id="feComposite1779" />
      <feBlend
         in="fbSourceGraphic"
         mode="multiply"
         in2="result91"
         id="feBlend1781" />
    </filter>
    <filter
       inkscape:menu="Textures"
       inkscape:label="Watercolor"
       inkscape:menu-tooltip="Cloudy watercolor effect"
       height="2"
       y="-0.5"
       width="1.6"
       x="-0.3"
       style="color-interpolation-filters:sRGB;"
       id="filter1803">
      <feGaussianBlur
         stdDeviation="15"
         result="result8"
         id="feGaussianBlur1785" />
      <feTurbulence
         seed="27"
         result="result7"
         type="fractalNoise"
         numOctaves="5"
         baseFrequency="0.025"
         id="feTurbulence1787" />
      <feComposite
         in2="result8"
         result="result6"
         operator="over"
         in="result7"
         id="feComposite1789" />
      <feColorMatrix
         result="result9"
         values="1 0 0 0 0 0 1 0 0 0 0 0 1 0 0 0 0 0 6 -4 "
         id="feColorMatrix1791" />
      <feDisplacementMap
         in="result7"
         in2="result9"
         xChannelSelector="A"
         yChannelSelector="A"
         scale="45"
         result="result4"
         id="feDisplacementMap1793" />
      <feComposite
         in2="result4"
         result="result2"
         operator="in"
         in="result8"
         id="feComposite1795" />
      <feComposite
         result="fbSourceGraphic"
         in="result2"
         operator="in"
         in2="result9"
         id="feComposite1797" />
      <feComposite
         operator="arithmetic"
         k2="1"
         k1="0.5"
         in="fbSourceGraphic"
         in2="fbSourceGraphic"
         result="result91"
         id="feComposite1799" />
      <feBlend
         in="fbSourceGraphic"
         mode="multiply"
         in2="result91"
         id="feBlend1801" />
    </filter>
    <filter
       inkscape:menu="Textures"
       inkscape:label="Watercolor"
       inkscape:menu-tooltip="Cloudy watercolor effect"
       height="2"
       y="-0.5"
       width="1.6"
       x="-0.3"
       style="color-interpolation-filters:sRGB;"
       id="filter1823">
      <feGaussianBlur
         stdDeviation="15"
         result="result8"
         id="feGaussianBlur1805" />
      <feTurbulence
         seed="27"
         result="result7"
         type="fractalNoise"
         numOctaves="5"
         baseFrequency="0.025"
         id="feTurbulence1807" />
      <feComposite
         in2="result8"
         result="result6"
         operator="over"
         in="result7"
         id="feComposite1809" />
      <feColorMatrix
         result="result9"
         values="1 0 0 0 0 0 1 0 0 0 0 0 1 0 0 0 0 0 6 -4 "
         id="feColorMatrix1811" />
      <feDisplacementMap
         in="result7"
         in2="result9"
         xChannelSelector="A"
         yChannelSelector="A"
         scale="45"
         result="result4"
         id="feDisplacementMap1813" />
      <feComposite
         in2="result4"
         result="result2"
         operator="in"
         in="result8"
         id="feComposite1815" />
      <feComposite
         result="fbSourceGraphic"
         in="result2"
         operator="in"
         in2="result9"
         id="feComposite1817" />
      <feComposite
         operator="arithmetic"
         k2="1"
         k1="0.5"
         in="fbSourceGraphic"
         in2="fbSourceGraphic"
         result="result91"
         id="feComposite1819" />
      <feBlend
         in="fbSourceGraphic"
         mode="multiply"
         in2="result91"
         id="feBlend1821" />
    </filter>
    <clipPath
       clipPathUnits="userSpaceOnUse"
       id="clipPath933">
      <path
         id="path935"
         style="opacity:1;vector-effect:none;fill:#ffe9c6;fill-opacity:1;stroke:none;stroke-width:9.99999905;stroke-linecap:round;stroke-linejoin:miter;stroke-miterlimit:4;stroke-dasharray:none;stroke-dashoffset:0;stroke-opacity:1;paint-order:stroke fill markers"
         d="m 101.07658,80.077464 c -0.81994,6.35446 -16.697218,11.60117 -37.294264,11.60117 -20.597047,0 -36.474328,-5.24671 -37.294259,-11.60117 L 20.905532,36.812891 c -0.819931,-6.354471 19.19659,-11.601173 42.876784,-11.601173 23.680195,0 43.696714,5.246702 42.876784,11.601173 z"
         inkscape:connector-curvature="0"
         sodipodi:nodetypes="sssssss" />
    </clipPath>
    <clipPath
       clipPathUnits="userSpaceOnUse"
       id="clipPath943">
      <path
         style="opacity:1;vector-effect:none;fill:#ffe9c6;fill-opacity:1;stroke:none;stroke-width:9.99999905;stroke-linecap:round;stroke-linejoin:miter;stroke-miterlimit:4;stroke-dasharray:none;stroke-dashoffset:0;stroke-opacity:1;paint-order:stroke fill markers"
         d="m 60.082031,25.262891 c -0.725039,0.01687 -1.438664,0.04378 -2.154297,0.07031 a 42.895901,11.606344 0 0 1 2.154297,-0.07031 z m -4.257812,0.158203 c -0.783934,0.03978 -1.552578,0.08955 -2.322266,0.140625 a 42.895901,11.606344 0 0 1 2.322266,-0.140625 z m 16.535156,0.02539 a 42.895901,11.606344 0 0 1 34.302735,11.248047 c 0.48665,-5.517139 -14.7134,-10.1747 -34.302735,-11.248047 z m -20.537109,0.230469 c -1.028798,0.08019 -2.033694,0.175628 -3.03125,0.275391 a 42.895901,11.606344 0 0 1 3.03125,-0.275391 z m -3.791016,0.349609 c -1.263548,0.133613 -2.494772,0.281704 -3.699219,0.445313 a 42.895901,11.606344 0 0 1 3.699219,-0.445313 z m -3.708984,0.447266 C 30.255624,28.385791 20.463942,32.274204 20.904297,36.725781 A 42.895901,11.606344 0 0 1 44.322266,26.473828 Z M 106.60938,37.184766 A 42.895901,11.606344 0 0 1 63.783203,48.425 42.895901,11.606344 0 0 1 21.019531,37.698438 l 5.46875,42.378906 c 0.819931,6.35446 16.697875,11.601562 37.294922,11.601562 20.597046,0 36.473027,-5.247102 37.292967,-11.601562 z"
         id="path945"
         inkscape:connector-curvature="0" />
    </clipPath>
  </defs>
  <g
     transform="translate(0,-1.8)"
     id="g4534">
    <g
       id="g952"
       transform="translate(-0.7670311,24.544995)">
      <path
         sodipodi:nodetypes="sssssss"
         inkscape:connector-curvature="0"
         d="m 101.00045,80.333607 c -0.79662,6.17371 -16.222262,11.27117 -36.233418,11.27117 -20.011156,0 -35.436802,-5.09746 -36.23341,-11.27117 L 23.109894,38.299714 C 22.313286,32.125999 41.76043,27.028541 64.767032,27.028541 c 23.006603,0 42.453758,5.097458 41.657148,11.271173 z"
         style="opacity:1;vector-effect:none;fill:#ffae31;fill-opacity:1;stroke:none;stroke-width:10;stroke-linecap:round;stroke-linejoin:miter;stroke-miterlimit:4;stroke-dasharray:none;stroke-dashoffset:0;stroke-opacity:1;paint-order:stroke fill markers"
         id="ellipse898" />
      <path
         id="path903"
         style="opacity:1;vector-effect:none;fill:#ffe9c6;fill-opacity:1;stroke:none;stroke-width:9.99999905;stroke-linecap:round;stroke-linejoin:miter;stroke-miterlimit:4;stroke-dasharray:none;stroke-dashoffset:0;stroke-opacity:1;paint-order:stroke fill markers"
         d="m 102.0613,80.948947 c -0.81994,6.35446 -16.697223,11.60117 -37.294269,11.60117 -20.597047,0 -36.474328,-5.24671 -37.294259,-11.60117 L 21.890247,37.684374 c -0.819931,-6.354471 19.19659,-11.601173 42.876784,-11.601173 23.680195,0 43.696719,5.246702 42.876789,11.601173 z"
         inkscape:connector-curvature="0"
         sodipodi:nodetypes="sssssss" />
      <ellipse
         style="opacity:1;vector-effect:none;fill:#000000;fill-opacity:0.11728396;stroke:none;stroke-width:10;stroke-linecap:round;stroke-linejoin:miter;stroke-miterlimit:4;stroke-dasharray:none;stroke-dashoffset:0;stroke-opacity:1;paint-order:stroke fill markers"
         id="ellipse905"
         cx="64.767036"
         cy="37.689545"
         rx="42.895901"
         ry="11.606344" />
      <ellipse
         ry="11.271173"
         rx="41.657139"
         cy="38.299713"
         cx="64.767036"
         id="path894"
         style="opacity:1;vector-effect:none;fill:#ef9100;fill-opacity:1;stroke:none;stroke-width:10;stroke-linecap:round;stroke-linejoin:miter;stroke-miterlimit:4;stroke-dasharray:none;stroke-dashoffset:0;stroke-opacity:1;paint-order:stroke fill markers" />
      <path
         clip-path="url(#clipPath943)"
         sodipodi:nodetypes="cccccccccccccc"
         inkscape:connector-curvature="0"
         d="M 73.779097,110.19748 73.106776,22.101231 M 83.54181,108.52782 85.91834,24.154402 m 8.274156,83.798148 5.177458,-83.414633 M 62.337225,108.08814 60.348202,22.157395 M 52.303327,108.08814 48.948735,23.635293 M 42.540614,107.95255 37.287717,23.770886 m -4.439,84.181664 -7.286795,-84.181664"
         style="fill:none;stroke:#000000;stroke-width:5;stroke-linecap:butt;stroke-linejoin:miter;stroke-miterlimit:4;stroke-dasharray:none;stroke-opacity:0.03921569"
         id="path928"
         transform="translate(0.98471513,0.87148348)" />
    </g>
    <g
       id="g2707"
       transform="translate(0.98471513,0.87148348)">
      <path
         sodipodi:nodetypes="saaaaaaaaaaaaaaaaaaaaaaaaaaaaaaaac"
         inkscape:connector-curvature="0"
         id="path954"
         d="m 62.733311,45.487679 c -4.689282,0 -8.86585,0.424429 -13.28089,0.856883 -3.725924,0.364955 -7.48325,0.641649 -11.135258,1.465385 -1.509269,0.340426 -2.955353,0.919079 -4.416266,1.428506 -1.306233,0.45549 -2.602455,0.940765 -3.886707,1.454977 -0.668343,0.267603 -1.376593,0.465247 -1.986333,0.848015 -0.548823,0.344529 -1.0397,0.789096 -1.46451,1.278425 -0.54534,0.628165 -1.034967,1.326523 -1.360813,2.091906 -0.409042,0.960804 -0.70438,2.007266 -0.708828,3.051507 -0.0036,0.856498 0.241784,1.712562 0.560046,2.507742 0.338321,0.845299 0.843038,1.626662 1.408332,2.340408 0.463421,0.58512 0.977646,1.156091 1.603194,1.563296 0.548753,0.357214 1.217314,0.482852 1.823258,0.730976 1.286415,0.526764 2.530272,1.164556 3.847516,1.608644 1.410058,0.475378 2.86086,0.833873 4.320512,1.123125 3.804735,0.753965 7.662074,1.264373 11.527231,1.588461 4.231389,0.354797 8.486615,0.376395 12.732841,0.386787 4.580003,0.01121 9.173902,0.05933 13.735594,-0.349957 3.737955,-0.335382 7.470701,-0.873092 11.126538,-1.721407 1.409841,-0.327144 2.76052,-0.870903 4.144724,-1.293578 1.313908,-0.401209 2.697962,-0.611812 3.949061,-1.179328 0.534169,-0.242307 1.048006,-0.550762 1.489483,-0.93696 0.593769,-0.519421 0.99072,-1.228782 1.515384,-1.817923 0.491256,-0.551631 1.197011,-0.945017 1.52708,-1.605841 0.5021,-1.005236 0.55587,-2.200861 0.55768,-3.324515 0.002,-0.896461 -0.10886,-1.81925 -0.43636,-2.653749 -0.263436,-0.671258 -0.724478,-1.256757 -1.194542,-1.803591 -0.534564,-0.621869 -1.143972,-1.192514 -1.823881,-1.650994 -0.51847,-0.349617 -1.113793,-0.57105 -1.688518,-0.817494 -1.258236,-0.539538 -2.544117,-1.017084 -3.844854,-1.444101 -1.473906,-0.483867 -2.96703,-0.916655 -4.47888,-1.264274 -3.61674,-0.831596 -7.270561,-1.55509 -10.959619,-1.959086 -4.46618,-0.489101 -10.253125,-3.695496 -13.467168,-0.556083 -0.101281,0.09893 0.0076,0.424671 0.0076,0.424671"
         style="opacity:1;vector-effect:none;fill:#ff6ec4;fill-opacity:1;stroke:none;stroke-width:10.00190639;stroke-linecap:round;stroke-linejoin:miter;stroke-miterlimit:4;stroke-dasharray:none;stroke-dashoffset:0;stroke-opacity:1;paint-order:stroke fill markers" />
      <path
         sodipodi:nodetypes="saaaaaaaaaaaaaaaaaaaaaaaaaaaaaaaac"
         inkscape:connector-curvature="0"
         style="opacity:1;vector-effect:none;fill:#ff83c3;fill-opacity:1;stroke:none;stroke-width:9.10700798;stroke-linecap:round;stroke-linejoin:miter;stroke-miterlimit:4;stroke-dasharray:none;stroke-dashoffset:0;stroke-opacity:1;paint-order:stroke fill markers"
         d="m 62.803335,39.494533 c -4.269718,0 -8.101484,-0.154822 -12.122477,0.2539 -3.512898,0.357075 -6.931853,1.357065 -10.418699,1.91372 -1.354295,0.216205 -2.771725,0.132481 -4.076917,0.553588 -1.130761,0.364829 -2.120867,1.075016 -3.146342,1.675116 -0.552264,0.323181 -1.062601,0.714946 -1.616456,1.035392 -0.565527,0.327199 -1.319163,0.403511 -1.739175,0.90398 -0.535397,0.637959 -0.513212,1.584846 -0.750223,2.383261 -0.20709,0.697624 -0.531449,1.377182 -0.58686,2.102781 -0.07341,0.96133 0.01064,1.967559 0.345467,2.871681 0.263461,0.711412 0.758546,1.327238 1.265504,1.891607 0.341599,0.380284 0.762137,0.684257 1.176174,0.984055 0.528064,0.382361 1.073175,0.750535 1.660532,1.033491 1.0805,0.520525 2.254906,0.818515 3.390674,1.203819 1.462155,0.49603 2.898822,1.095459 4.407002,1.426118 3.229297,0.708005 6.553938,0.896312 9.848219,1.174414 4.015559,0.338993 8.044749,0.588729 12.074573,0.601201 3.985594,0.01234 7.972554,-0.203125 11.945497,-0.520677 3.511016,-0.280632 7.054697,-0.470457 10.495678,-1.222544 1.330503,-0.290805 2.612671,-0.778938 3.885454,-1.263534 1.174415,-0.447145 2.330742,-0.947746 3.452736,-1.513714 0.563,-0.283994 1.105107,-0.60886 1.640542,-0.941922 0.518812,-0.322721 1.117834,-0.563636 1.52133,-1.022447 0.535734,-0.609173 0.787035,-1.423591 1.088329,-2.1768 0.330824,-0.827033 0.7893,-1.664194 0.783096,-2.554918 -0.0054,-0.784647 -0.384911,-1.531837 -0.721123,-2.240823 -0.326459,-0.688418 -0.734638,-1.350339 -1.241648,-1.919053 -0.473813,-0.531477 -1.036683,-0.99437 -1.648958,-1.357805 -0.484835,-0.28779 -1.058117,-0.393272 -1.56921,-0.631332 -1.090278,-0.507836 -2.071243,-1.241525 -3.184862,-1.695897 -1.340223,-0.54683 -2.748909,-0.931235 -4.166692,-1.222976 -3.358474,-0.691082 -6.795306,-0.947815 -10.212067,-1.235357 -3.948435,-0.332286 -8.711057,1.822228 -11.873751,-0.564803 -0.03525,-0.0266 -0.04233,-0.125516 -0.04233,-0.125516"
         id="path969" />
      <path
         sodipodi:nodetypes="saaaaaaaaaaaaaaaaaaaaaaaaaaaaaaaac"
         id="path971"
         d="m 61.387644,32.274011 c -3.665548,0 -6.878859,0.418137 -10.303243,0.789745 -2.800913,0.303951 -5.591621,0.708278 -8.369742,1.176838 -1.190463,0.200784 -2.392916,0.367624 -3.553549,0.699962 -1.077467,0.308524 -2.167784,0.642198 -3.142879,1.194751 -0.415459,0.235425 -0.759952,0.579101 -1.124821,0.887162 -0.406763,0.343431 -0.822556,0.680734 -1.185251,1.070417 -0.470746,0.505774 -0.996184,1.001969 -1.275514,1.633938 -0.310791,0.703145 -0.447104,1.506659 -0.389141,2.27324 0.05075,0.671121 0.378115,1.294663 0.63606,1.916308 0.254442,0.613203 0.488109,1.254725 0.89518,1.779178 0.337031,0.434216 0.832207,0.71836 1.243135,1.083422 0.370719,0.329341 0.680149,0.73906 1.102719,0.998544 0.996008,0.61161 2.151488,0.930282 3.274759,1.253334 1.018527,0.292928 2.077653,0.420125 3.119454,0.614688 2.957137,0.552262 5.894912,1.261163 8.887422,1.56863 3.417705,0.351153 6.866844,0.337285 10.302433,0.309904 3.504979,-0.02794 7.012307,-0.179096 10.504141,-0.483645 2.898674,-0.252815 5.80029,-0.564793 8.657641,-1.114131 1.115335,-0.214427 2.224513,-0.483424 3.299757,-0.84921 1.023708,-0.348253 2.020128,-0.78273 2.982911,-1.274976 0.538302,-0.27522 1.082534,-0.556627 1.554417,-0.934572 0.421206,-0.337356 0.758901,-0.768163 1.117102,-1.171793 0.396462,-0.446741 0.903881,-0.833505 1.140831,-1.381788 0.292823,-0.677569 0.259079,-1.459039 0.277583,-2.196943 0.0172,-0.685948 0.04608,-1.396688 -0.155352,-2.05262 -0.238303,-0.776013 -0.675855,-1.50243 -1.210812,-2.113008 -0.344245,-0.392906 -0.795503,-0.685831 -1.245495,-0.951136 -0.359816,-0.21214 -0.769416,-0.325907 -1.147604,-0.503234 -1.123647,-0.526862 -2.159305,-1.25329 -3.330058,-1.664997 -1.077553,-0.378932 -2.226603,-0.514061 -3.34952,-0.723267 -2.962847,-0.551994 -5.931162,-1.123631 -8.932082,-1.402266 -3.375446,-0.31341 -8.852802,2.826059 -10.165484,-0.299437 -0.03915,-0.09321 0.205881,-0.222731 0.205881,-0.222731"
         style="opacity:1;vector-effect:none;fill:#ff7ec7;fill-opacity:1;stroke:none;stroke-width:7.81835461;stroke-linecap:round;stroke-linejoin:miter;stroke-miterlimit:4;stroke-dasharray:none;stroke-dashoffset:0;stroke-opacity:1;paint-order:stroke fill markers"
         inkscape:connector-curvature="0" />
      <path
         sodipodi:nodetypes="saaaaaaaaaaaaaaaaaaaaaaaaaaaaaaaac"
         inkscape:connector-curvature="0"
         style="opacity:1;vector-effect:none;fill:#ff93c5;fill-opacity:1;stroke:none;stroke-width:6.74447632;stroke-linecap:round;stroke-linejoin:miter;stroke-miterlimit:4;stroke-dasharray:none;stroke-dashoffset:0;stroke-opacity:1;paint-order:stroke fill markers"
         d="m 61.668199,27.100632 c -3.162072,0 -6.201709,-0.09888 -9.277471,0.23148 -2.395027,0.257242 -4.716799,0.992171 -7.097657,1.358018 -1.038923,0.159642 -2.123769,0.06811 -3.132199,0.364624 -0.930792,0.273682 -1.716803,0.910488 -2.613114,1.281845 -0.328366,0.136047 -0.710784,0.151548 -1.008932,0.345044 -0.443503,0.287829 -0.722711,0.77194 -1.080001,1.161662 -0.419204,0.457256 -0.961337,0.830387 -1.248012,1.380506 -0.330788,0.634769 -0.494627,1.377221 -0.480679,2.092873 0.01128,0.578691 0.200706,1.155636 0.454332,1.675909 0.284269,0.583129 0.717114,1.089896 1.166063,1.558184 0.24248,0.252925 0.536831,0.450736 0.81429,0.664707 0.404438,0.311895 0.784704,0.667881 1.238749,0.901742 0.918521,0.473095 1.960322,0.653558 2.940279,0.980947 1.026698,0.343005 2.026945,0.778224 3.079665,1.030294 2.393421,0.573097 4.853611,0.84731 7.303387,1.082897 2.870252,0.276021 5.758499,0.408193 8.641902,0.385183 3.007283,-0.024 6.010862,-0.27039 9.005629,-0.545519 2.575636,-0.236623 5.165014,-0.441729 7.701089,-0.949878 1.057937,-0.211977 2.098589,-0.516281 3.117215,-0.872038 0.81126,-0.283334 1.62009,-0.59194 2.375203,-1.002093 0.389491,-0.211558 0.739527,-0.489137 1.100512,-0.746334 0.425815,-0.303388 0.926084,-0.5339 1.256047,-0.939469 0.318776,-0.39182 0.448208,-0.906178 0.641783,-1.372728 0.299529,-0.721922 0.822035,-1.421881 0.802365,-2.203228 -0.01603,-0.636675 -0.409301,-1.217847 -0.743306,-1.760111 -0.248777,-0.403891 -0.621758,-0.71677 -0.921705,-1.08426 -0.300096,-0.367671 -0.517038,-0.812723 -0.878054,-1.120791 -0.436267,-0.372281 -0.984495,-0.59281 -1.504441,-0.83484 -0.742214,-0.345492 -1.522583,-0.60332 -2.294516,-0.876022 -0.984262,-0.347711 -1.962802,-0.72588 -2.97806,-0.968626 -2.546228,-0.608799 -5.154196,-0.958808 -7.759931,-1.211907 -2.866459,-0.278423 -7.14857,-2.802245 -8.633367,-0.334557 -0.06573,0.10924 0.192096,0.330732 0.192096,0.330732"
         id="path973" />
      <path
         sodipodi:nodetypes="saaaaaaaaaaaaaaaaaaaaaaaaaaaaaaaac"
         id="path975"
         d="m 63.320108,23.036336 c -2.339729,0 -4.588562,-0.08082 -6.874766,0.07833 -1.770373,0.123242 -3.557504,0.253211 -5.280683,0.677547 -0.763126,0.187921 -1.473945,0.546071 -2.210521,0.820171 -0.656245,0.244206 -1.344812,0.415306 -1.968029,0.734515 -0.368067,0.188523 -0.718343,0.419306 -1.031222,0.689715 -0.240798,0.208114 -0.477948,0.434578 -0.640186,0.708392 -0.20128,0.339704 -0.218289,0.76288 -0.389371,1.118749 -0.234202,0.487171 -0.836163,0.832932 -0.863189,1.372797 -0.01891,0.377765 0.331783,0.679903 0.505048,1.016122 0.253109,0.491155 0.412994,1.049836 0.780708,1.462247 0.278155,0.311965 0.65548,0.530373 1.031418,0.713028 0.185901,0.09032 0.393789,0.125888 0.59241,0.183048 0.693065,0.199454 1.394436,0.368866 2.09045,0.55777 0.746073,0.202489 1.481014,0.449028 2.235599,0.617041 1.71951,0.382862 3.45865,0.695369 5.209683,0.888191 2.163427,0.238233 4.345793,0.260204 6.521192,0.329526 2.240952,0.07141 4.49425,0.307302 6.72568,0.08893 1.829908,-0.179078 3.621332,-0.662542 5.396688,-1.140813 0.795502,-0.214304 1.557935,-0.538124 2.347692,-0.772716 0.705409,-0.209537 1.468997,-0.250766 2.133693,-0.566497 0.263241,-0.12504 0.480229,-0.331173 0.707792,-0.513232 0.281116,-0.224903 0.566701,-0.44895 0.810447,-0.713895 0.290142,-0.315376 0.61558,-0.631013 0.766569,-1.03207 0.156462,-0.415591 0.133195,-0.884442 0.108174,-1.327805 -0.03027,-0.536378 -0.115138,-1.081106 -0.310777,-1.581449 -0.151378,-0.387147 -0.39942,-0.733104 -0.653339,-1.062228 -0.125896,-0.163183 -0.260255,-0.326147 -0.427228,-0.44697 -0.336212,-0.243285 -0.733023,-0.39615 -1.123856,-0.535704 -0.595121,-0.2125 -1.246481,-0.238287 -1.840924,-0.452673 -0.818012,-0.295018 -1.507937,-0.911792 -2.347739,-1.137429 -1.708098,-0.458931 -3.52879,-0.247122 -5.291582,-0.391268 -2.254578,-0.184362 -4.798009,-1.73298 -6.759224,-0.605707 -0.130548,0.07503 -0.191625,0.409071 -0.191625,0.409071"
         style="opacity:1;vector-effect:none;fill:#ffa0cd;fill-opacity:1;stroke:none;stroke-width:4.9904747;stroke-linecap:round;stroke-linejoin:miter;stroke-miterlimit:4;stroke-dasharray:none;stroke-dashoffset:0;stroke-opacity:1;paint-order:stroke fill markers"
         inkscape:connector-curvature="0" />
      <path
         sodipodi:nodetypes="saaaaaaaaaaaaaaaaaaaaaaaaaaaaaaaac"
         inkscape:connector-curvature="0"
         style="opacity:1;vector-effect:none;fill:#ffa6cc;fill-opacity:1;stroke:none;stroke-width:3.80920863;stroke-linecap:round;stroke-linejoin:miter;stroke-miterlimit:4;stroke-dasharray:none;stroke-dashoffset:0;stroke-opacity:1;paint-order:stroke fill markers"
         d="m 60.377968,18.379746 c -1.785906,0 -3.34531,0.212357 -5.012708,0.378562 -1.32533,0.132108 -2.646565,0.305063 -3.965348,0.491518 -0.540469,0.07641 -1.106575,0.0642 -1.617242,0.25698 -0.64493,0.243468 -1.07511,0.953619 -1.747379,1.106148 -0.21652,0.04912 -0.473736,-0.197106 -0.661426,-0.0785 -0.165947,0.104865 -0.0898,0.388202 -0.188353,0.557976 -0.210083,0.361917 -0.711368,0.538402 -0.833747,0.938579 -0.114038,0.372899 0.14044,0.769866 0.154844,1.159548 0.01168,0.315936 -0.159676,0.648215 -0.05579,0.946813 0.0796,0.228823 0.314384,0.369224 0.483857,0.542358 0.276577,0.282551 0.590203,0.527066 0.868042,0.808376 0.103226,0.104515 0.183337,0.232316 0.296311,0.326209 0.41703,0.346596 0.878849,0.657721 1.383914,0.855082 0.574091,0.224333 1.207999,0.246581 1.815268,0.352084 1.500856,0.260751 2.99935,0.562578 4.517006,0.694032 1.533748,0.132848 3.078029,0.09704 4.617516,0.09396 1.727555,-0.0034 3.468085,0.09719 5.181139,-0.126205 1.369392,-0.178576 2.687397,-0.637558 4.029091,-0.964633 0.72176,-0.175949 1.472761,-0.262268 2.163085,-0.536762 0.360349,-0.143286 0.635274,-0.484879 1.013226,-0.571677 0.353833,-0.08126 0.774279,0.252081 1.087023,0.06771 0.24416,-0.143937 0.193214,-0.542424 0.364654,-0.768124 0.19281,-0.25383 0.614749,-0.326701 0.722201,-0.6268 0.119933,-0.334959 -0.132052,-0.699567 -0.17883,-1.052261 -0.05886,-0.443803 0.05343,-0.927646 -0.12791,-1.336963 -0.09363,-0.21135 -0.294944,-0.358293 -0.466959,-0.51272 -0.169179,-0.151879 -0.363886,-0.272817 -0.55068,-0.402409 -0.252471,-0.175156 -0.524508,-0.322021 -0.770076,-0.506732 -0.363653,-0.273533 -0.620044,-0.705822 -1.037224,-0.887548 -0.567937,-0.247394 -1.231614,-0.135079 -1.846411,-0.211112 -1.386352,-0.171451 -2.767522,-0.383382 -4.154146,-0.552612 -1.679676,-0.204995 -3.353252,-0.567021 -5.045378,-0.560497 -0.01862,7.1e-5 -0.05546,0.0066 -0.05546,0.0066"
         id="path977" />
      <path
         sodipodi:nodetypes="saaaaaaaaaaaaaaaaaaaaaaaaaaaaaaaac"
         id="path979"
         d="m 60.73414,14.496042 c -0.968047,0 -1.755621,-0.02912 -2.621856,0.09064 -0.826311,0.114243 -1.649236,0.303445 -2.430657,0.595374 -0.245604,0.09175 -0.489867,0.202189 -0.699527,0.359614 -0.384572,0.288757 -0.535507,0.894978 -0.991364,1.048178 -0.131316,0.04413 -0.282033,-0.121334 -0.409968,-0.06819 -0.27678,0.114968 -0.422773,0.449496 -0.521386,0.732516 -0.07615,0.218568 -0.01301,0.463126 -0.03607,0.693431 -0.03368,0.33636 -0.108418,0.667519 -0.149147,1.003099 -0.04194,0.345507 -0.141058,0.694159 -0.09795,1.039521 0.05283,0.423247 0.288912,0.802662 0.429504,1.205356 0.05356,0.153399 0.02864,0.362536 0.157719,0.461219 0.101171,0.07735 0.260581,-0.01617 0.381266,0.0245 0.266409,0.08976 0.452156,0.338875 0.702743,0.466301 0.46539,0.236657 0.983373,0.35183 1.468636,0.54448 0.678905,0.269524 1.312162,0.665754 2.017677,0.854975 0.879901,0.235992 1.802459,0.382775 2.712259,0.336036 0.927072,-0.04762 1.796658,-0.482392 2.714115,-0.623829 0.7835,-0.120786 1.645347,0.129924 2.370663,-0.190043 0.299521,-0.132132 0.457637,-0.471632 0.717974,-0.670116 0.321944,-0.245452 0.800698,-0.306038 1.034225,-0.636734 0.04747,-0.06722 0.0082,-0.171481 0.05165,-0.241404 0.130072,-0.20963 0.434187,-0.260898 0.579718,-0.460108 0.141302,-0.19342 0.212887,-0.436149 0.254451,-0.672052 0.06255,-0.355026 0.01856,-0.722388 -0.01421,-1.081389 -0.03134,-0.343356 -0.161857,-0.675055 -0.173876,-1.019629 -0.01446,-0.414542 0.328502,-0.87784 0.123208,-1.23827 -0.110606,-0.19419 -0.43226,-0.144759 -0.607688,-0.283211 -0.232297,-0.183336 -0.307788,-0.528011 -0.551747,-0.695516 -0.2378,-0.163276 -0.603911,-0.07418 -0.825896,-0.258387 -0.229063,-0.190073 -0.176099,-0.61673 -0.419242,-0.788423 -0.721308,-0.509345 -1.740288,-0.316152 -2.620246,-0.389574 -0.879864,-0.07342 -2.053666,0.602622 -2.648292,-0.05004 -0.09192,-0.100898 0.03031,-0.408361 0.03031,-0.408361"
         style="opacity:1;vector-effect:none;fill:#ffb3d1;fill-opacity:1;stroke:none;stroke-width:2.80449009;stroke-linecap:round;stroke-linejoin:miter;stroke-miterlimit:4;stroke-dasharray:none;stroke-dashoffset:0;stroke-opacity:1;paint-order:stroke fill markers"
         inkscape:connector-curvature="0" />
      <path
         sodipodi:nodetypes="saaaaaaaaaaaaaaaaaaaaaaaaaaaaaaaac"
         inkscape:connector-curvature="0"
         style="opacity:1;vector-effect:none;fill:#ffbee1;fill-opacity:1;stroke:none;stroke-width:1.22490323;stroke-linecap:round;stroke-linejoin:miter;stroke-miterlimit:4;stroke-dasharray:none;stroke-dashoffset:0;stroke-opacity:1;paint-order:stroke fill markers"
         d="m 59.520701,13.742645 c -0.422809,0 -0.976781,-0.171323 -1.454935,-0.0854 -0.372973,0.06702 -0.754507,0.705961 -1.040694,0.457568 -0.02439,-0.02117 0.05446,-0.07779 0.02613,-0.0933 -0.224068,-0.122618 -0.259351,0.620644 -0.510071,0.571844 -0.05638,-0.01098 -0.006,-0.138045 -0.0581,-0.162232 -0.143127,-0.06644 -0.348225,0.03989 -0.443439,0.165722 -0.122727,0.162198 -0.02067,0.406878 -0.05018,0.608123 -0.01172,0.07991 -0.0547,0.156383 -0.05023,0.237021 0.01687,0.304024 -0.01733,0.873458 0.287096,0.867186 0.04049,-8.35e-4 -0.0062,-0.108197 0.0334,-0.116817 0.157812,-0.03438 0.322604,0.20691 0.314926,0.368241 -0.0082,0.173452 -0.451815,0.2064 -0.374653,0.361964 0.04686,0.09447 0.208768,-0.06611 0.312679,-0.04813 0.281622,0.04871 0.50316,0.271238 0.754368,0.407543 0.225882,0.122562 0.433698,0.286096 0.676977,0.368919 0.385794,0.13134 0.800478,0.211694 1.207519,0.191539 0.544795,-0.02698 1.039291,-0.370429 1.582948,-0.414778 0.313447,-0.02557 0.701867,0.29423 0.939348,0.08806 0.154972,-0.134541 -0.102889,-0.457915 0.0292,-0.614985 0.200164,-0.238024 0.882621,0.106305 0.91055,-0.203438 0.0054,-0.06077 -0.157047,-0.01133 -0.168633,-0.07123 -0.0056,-0.02897 0.05205,-0.03488 0.06281,-0.06235 0.03692,-0.09422 -0.03684,-0.205026 -0.01281,-0.303329 0.05209,-0.21302 0.288634,-0.354587 0.327929,-0.570333 0.03987,-0.218903 0.0052,-0.466874 -0.107336,-0.658826 -0.05692,-0.09711 -0.279751,-0.09869 -0.264299,-0.210189 0.01175,-0.08479 0.195477,-0.02423 0.236877,-0.09915 0.07443,-0.134704 0.03092,-0.344481 -0.07571,-0.455455 -0.155015,-0.161326 -0.442232,-0.07435 -0.657191,-0.136388 -0.152849,-0.04411 -0.293548,-0.125397 -0.447121,-0.166916 -0.385045,-0.104097 -0.780571,-0.189451 -1.179196,-0.20337 -0.251085,-0.0088 -0.703459,-0.170933 -0.749876,0.07598 -0.0048,0.02557 0.0695,0.03553 0.0695,0.03553"
         id="path981" />
    </g>
    <path
       style="opacity:1;vector-effect:none;fill:#d80000;fill-opacity:1;stroke:none;stroke-width:2.52940369;stroke-linecap:round;stroke-linejoin:miter;stroke-miterlimit:4;stroke-dasharray:none;stroke-dashoffset:0;stroke-opacity:1;paint-order:stroke fill markers"
       d="m 34.193306,57.501219 c -0.120817,0.0085 -0.08485,0.14051 -0.205669,0.149055 -0.120818,0.0085 -0.229343,-0.07856 -0.350161,-0.07001 -0.114928,0.0081 -0.267539,0.03844 -0.347837,-0.03125 -0.0803,-0.06969 -0.08859,-0.263979 -0.09672,-0.378908 -0.01194,-0.168852 -0.107134,-0.138123 -0.119076,-0.306975 -0.01194,-0.168852 1.48e-4,-0.402025 -0.01179,-0.570877 -0.0081,-0.114929 -0.04563,-0.279556 0.02405,-0.359853 0.06969,-0.0803 0.301519,-0.05369 0.416447,-0.06182 0.120818,-0.0085 0.269761,-0.07143 0.390578,-0.07998 0.120817,-0.0085 -0.0013,-0.07965 0.119468,-0.08819 0.114928,-0.0081 0.2595,-0.04489 0.339798,0.0248 0.0803,0.06969 0.135814,0.174561 0.143942,0.28949 0.01194,0.168852 0.04651,0.546416 0.05846,0.715268 0.01194,0.168852 0.0095,0.22613 0.02149,0.394982 0.0081,0.114929 0.12787,0.183841 0.05818,0.264139 -0.06969,0.0803 -0.132143,0.3187 -0.247071,0.326829 0,0 -0.21129,-0.08058 -0.21129,-0.08058"
       id="use2647"
       inkscape:connector-curvature="0"
       sodipodi:nodetypes="sssssssssssssssss" />
    <path
       style="opacity:1;vector-effect:none;fill:#d80000;fill-opacity:1;stroke:none;stroke-width:4.50287914;stroke-linecap:round;stroke-linejoin:miter;stroke-miterlimit:4;stroke-dasharray:none;stroke-dashoffset:0;stroke-opacity:1;paint-order:stroke fill markers"
       d="m 38.273575,51.380021 c -0.208337,0.05556 -0.101096,0.274164 -0.309433,0.329722 -0.208337,0.05556 -0.427344,-0.06022 -0.635681,-0.0047 -0.198183,0.05285 -0.454782,0.157149 -0.618589,0.06231 -0.163807,-0.09483 -0.243621,-0.431698 -0.296471,-0.62988 -0.07765,-0.291168 -0.233727,-0.205445 -0.311374,-0.496613 -0.07765,-0.291168 -0.134905,-0.702862 -0.212552,-0.99403 -0.05285,-0.198183 -0.173761,-0.473371 -0.07893,-0.637175 0.09483,-0.163806 0.509057,-0.195238 0.70724,-0.248088 0.208337,-0.05556 0.447572,-0.215577 0.655909,-0.271136 0.208337,-0.05556 -0.02911,-0.138792 0.1792,-0.194345 0.198181,-0.05285 0.438558,-0.165725 0.602365,-0.07089 0.163806,0.09483 0.296116,0.259504 0.348966,0.457686 0.07765,0.291168 0.265023,0.939595 0.34267,1.230763 0.07765,0.291168 0.09272,0.392105 0.170365,0.683273 0.05285,0.198182 0.285349,0.278396 0.190517,0.442201 -0.09483,0.163807 -0.123861,0.601572 -0.322042,0.654422 0,0 -0.396464,-0.06983 -0.396464,-0.06983"
       id="use2649"
       inkscape:connector-curvature="0"
       sodipodi:nodetypes="sssssssssssssssss" />
    <path
       style="opacity:1;vector-effect:none;fill:#d80000;fill-opacity:1;stroke:none;stroke-width:5.3150363;stroke-linecap:round;stroke-linejoin:miter;stroke-miterlimit:4;stroke-dasharray:none;stroke-dashoffset:0;stroke-opacity:1;paint-order:stroke fill markers"
       d="m 45.33642,40.58338 c -0.225883,0.117266 -0.04644,0.341774 -0.272318,0.459039 -0.225883,0.117265 -0.507847,0.03981 -0.73373,0.157078 -0.214873,0.111549 -0.483916,0.297314 -0.696919,0.229885 -0.213,-0.06742 -0.391063,-0.435217 -0.502612,-0.65009 -0.163887,-0.31569 -0.321842,-0.177018 -0.485729,-0.492708 -0.163888,-0.315689 -0.33508,-0.775479 -0.498967,-1.091169 -0.111549,-0.214873 -0.321208,-0.501092 -0.253791,-0.714088 0.06742,-0.213 0.536726,-0.355077 0.751599,-0.466626 0.225883,-0.117266 0.460676,-0.362804 0.686559,-0.480069 0.225883,-0.117265 -0.06902,-0.1525 0.156838,-0.269752 0.214872,-0.111549 0.463029,-0.303052 0.676032,-0.235623 0.212999,0.06742 0.40755,0.22337 0.5191,0.438243 0.163887,0.31569 0.545521,1.015031 0.709409,1.33072 0.163887,0.31569 0.207049,0.428154 0.370936,0.743844 0.11155,0.214873 0.399972,0.247893 0.332552,0.460891 -0.06742,0.213 0.011,0.724885 -0.203871,0.836433 0,0 -0.474716,0.02085 -0.474716,0.02085"
       id="use2651"
       inkscape:connector-curvature="0"
       sodipodi:nodetypes="sssssssssssssssss" />
    <path
       style="opacity:1;vector-effect:none;fill:#d80000;fill-opacity:1;stroke:none;stroke-width:3.80888534;stroke-linecap:round;stroke-linejoin:miter;stroke-miterlimit:4;stroke-dasharray:none;stroke-dashoffset:0;stroke-opacity:1;paint-order:stroke fill markers"
       d="m 62.320169,55.284215 c 0.104505,0.149478 0.247172,9.24e-4 0.351677,0.150401 0.104505,0.149478 0.07593,0.357068 0.180439,0.506545 0.09941,0.142192 0.256632,0.315906 0.228712,0.473562 -0.02792,0.157653 -0.272511,0.318667 -0.414702,0.418078 -0.208907,0.146054 -0.09557,0.245263 -0.304474,0.391318 -0.208906,0.146054 -0.519505,0.310818 -0.728412,0.456872 -0.142191,0.09941 -0.325866,0.27522 -0.483516,0.247308 -0.157653,-0.02792 -0.302625,-0.348005 -0.402036,-0.490197 -0.104505,-0.149478 -0.300979,-0.29325 -0.405484,-0.442727 -0.104505,-0.149478 -0.101869,0.06334 -0.206362,-0.08612 -0.09941,-0.142191 -0.258749,-0.300528 -0.230829,-0.458184 0.02792,-0.157652 0.120456,-0.310504 0.262648,-0.409916 0.208906,-0.146054 0.66995,-0.482804 0.878857,-0.628859 0.208907,-0.146054 0.284758,-0.187271 0.493665,-0.333325 0.142192,-0.09941 0.138589,-0.307421 0.296241,-0.279506 0.157653,0.02791 0.513966,-0.07583 0.613377,0.06636 0,0 0.05936,0.335309 0.05936,0.335309"
       id="use2653"
       inkscape:connector-curvature="0"
       sodipodi:nodetypes="sssssssssssssssss" />
    <path
       style="opacity:1;vector-effect:none;fill:#d80000;fill-opacity:1;stroke:none;stroke-width:4.30351257;stroke-linecap:round;stroke-linejoin:miter;stroke-miterlimit:4;stroke-dasharray:none;stroke-dashoffset:0;stroke-opacity:1;paint-order:stroke fill markers"
       d="m 55.717243,45.766983 c -0.116614,0.169901 0.09718,0.261819 -0.01944,0.431721 -0.116614,0.169902 -0.347544,0.222115 -0.464158,0.392017 -0.11093,0.161621 -0.232247,0.396908 -0.410099,0.429981 -0.177847,0.03308 -0.445295,-0.16171 -0.606915,-0.272641 -0.237452,-0.162977 -0.297384,-0.0037 -0.534836,-0.166669 -0.237451,-0.162977 -0.535076,-0.426092 -0.772528,-0.58907 -0.16162,-0.11093 -0.420524,-0.235402 -0.453603,-0.413244 -0.03308,-0.177847 0.247936,-0.458306 0.358867,-0.619926 0.116614,-0.169902 0.190671,-0.43482 0.307285,-0.604722 0.116615,-0.169902 -0.107457,-0.0826 0.0091,-0.252483 0.110929,-0.16162 0.21514,-0.393041 0.392992,-0.426114 0.177846,-0.03308 0.376279,0.0041 0.537899,0.115042 0.237452,0.162978 0.776742,0.516933 1.014194,0.679911 0.237451,0.162977 0.311171,0.226843 0.548622,0.389821 0.161621,0.11093 0.380218,0.02452 0.413295,0.202363 0.03308,0.177847 0.284309,0.51355 0.17338,0.675169 0,0 -0.331111,0.195938 -0.331111,0.195938"
       id="use2655"
       inkscape:connector-curvature="0"
       sodipodi:nodetypes="sssssssssssssssss" />
    <path
       style="opacity:1;vector-effect:none;fill:#d80000;fill-opacity:1;stroke:none;stroke-width:2.33939004;stroke-linecap:round;stroke-linejoin:miter;stroke-miterlimit:4;stroke-dasharray:none;stroke-dashoffset:0;stroke-opacity:1;paint-order:stroke fill markers"
       d="m 56.414814,53.256501 c 0.106429,-0.03495 0.04437,-0.145183 0.150799,-0.180133 0.106429,-0.03495 0.223434,0.01866 0.329863,-0.01629 0.101242,-0.03325 0.23127,-0.0949 0.319027,-0.05052 0.08776,0.04437 0.139071,0.216751 0.172316,0.317993 0.04885,0.148743 0.12728,0.09969 0.176125,0.248428 0.04884,0.148743 0.09066,0.360603 0.139504,0.509346 0.03325,0.101241 0.104061,0.240422 0.05969,0.328178 -0.04437,0.08776 -0.2583,0.116251 -0.359542,0.149497 -0.106429,0.03495 -0.22581,0.124991 -0.332239,0.15994 -0.106429,0.03495 0.01919,0.07114 -0.08723,0.106081 -0.101241,0.03325 -0.222602,0.09887 -0.31036,0.0545 -0.08776,-0.04437 -0.161231,-0.125889 -0.194477,-0.227131 -0.04884,-0.148743 -0.165119,-0.479566 -0.213964,-0.628309 -0.04884,-0.148743 -0.05963,-0.200655 -0.108476,-0.349398 -0.03325,-0.101242 -0.156203,-0.136006 -0.111835,-0.223762 0.04437,-0.08776 0.04654,-0.315679 0.147783,-0.348925 0,0 0.2077,0.02455 0.2077,0.02455"
       id="use2657"
       inkscape:connector-curvature="0"
       sodipodi:nodetypes="sssssssssssssssss" />
    <path
       style="opacity:1;vector-effect:none;fill:#d80000;fill-opacity:1;stroke:none;stroke-width:4.17356253;stroke-linecap:round;stroke-linejoin:miter;stroke-miterlimit:4;stroke-dasharray:none;stroke-dashoffset:0;stroke-opacity:1;paint-order:stroke fill markers"
       d="m 52.012158,63.483638 c 0.123573,-0.157065 -0.07752,-0.259507 0.04605,-0.416572 0.123573,-0.157064 0.350349,-0.193024 0.473922,-0.350088 0.11755,-0.14941 0.249799,-0.369455 0.424002,-0.39024 0.174198,-0.02079 0.420731,0.184591 0.57014,0.302141 0.219511,0.172702 0.28756,0.02233 0.507071,0.195038 0.21951,0.172703 0.490936,0.446111 0.710447,0.618814 0.149409,0.11755 0.392109,0.254342 0.412901,0.428536 0.02079,0.174198 -0.268857,0.427882 -0.386406,0.577291 -0.123573,0.157065 -0.211957,0.408767 -0.33553,0.565831 -0.123573,0.157065 0.09878,0.08672 -0.02478,0.243764 -0.117549,0.149408 -0.233,0.366791 -0.407202,0.387575 -0.174198,0.02079 -0.363884,-0.02772 -0.513294,-0.145269 -0.21951,-0.172703 -0.719076,-0.549269 -0.938587,-0.721972 -0.21951,-0.172703 -0.286823,-0.239161 -0.506333,-0.411864 -0.149409,-0.11755 -0.366408,-0.04772 -0.387198,-0.221913 -0.02079,-0.174198 -0.242739,-0.514925 -0.12519,-0.664334 0,0 0.332795,-0.168727 0.332795,-0.168727"
       id="use2659"
       inkscape:connector-curvature="0"
       sodipodi:nodetypes="sssssssssssssssss" />
    <path
       style="opacity:1;vector-effect:none;fill:#d80000;fill-opacity:1;stroke:none;stroke-width:5.24020815;stroke-linecap:round;stroke-linejoin:miter;stroke-miterlimit:4;stroke-dasharray:none;stroke-dashoffset:0;stroke-opacity:1;paint-order:stroke fill markers"
       d="m 44.069483,47.470321 c 0.02906,-0.249235 -0.25341,-0.226766 -0.224346,-0.476002 0.02906,-0.249236 0.248109,-0.43667 0.277173,-0.685906 0.02765,-0.237087 0.02463,-0.559415 0.197382,-0.696079 0.172747,-0.136667 0.571453,-0.07883 0.808541,-0.05118 0.348327,0.04062 0.322377,-0.16498 0.670704,-0.124361 0.348327,0.04062 0.818352,0.154899 1.166679,0.195518 0.237088,0.02765 0.586642,0.01461 0.723308,0.187349 0.136667,0.172747 -0.0066,0.634454 -0.03429,0.871542 -0.02906,0.249235 0.04169,0.576625 0.01262,0.825861 -0.02906,0.249236 0.162658,0.02791 0.133597,0.277117 -0.02765,0.237086 -0.0084,0.545531 -0.181156,0.682195 -0.172746,0.136665 -0.407584,0.209351 -0.644672,0.181703 -0.348327,-0.04062 -1.130235,-0.115432 -1.478562,-0.156052 -0.348326,-0.04062 -0.464007,-0.06752 -0.812334,-0.108139 -0.237087,-0.02765 -0.42342,0.189612 -0.560085,0.01687 -0.136666,-0.172746 -0.597967,-0.39156 -0.57032,-0.628646 0,0 0.245284,-0.399141 0.245284,-0.399141"
       id="use2661"
       inkscape:connector-curvature="0"
       sodipodi:nodetypes="sssssssssssssssss" />
    <path
       style="opacity:1;vector-effect:none;fill:#d80000;fill-opacity:1;stroke:none;stroke-width:5.01123571;stroke-linecap:round;stroke-linejoin:miter;stroke-miterlimit:4;stroke-dasharray:none;stroke-dashoffset:0;stroke-opacity:1;paint-order:stroke fill markers"
       d="m 43.334892,62.181619 c -0.198919,-0.134209 -0.303964,0.115586 -0.502883,-0.01862 -0.19892,-0.134209 -0.261862,-0.402622 -0.460781,-0.536832 -0.189224,-0.127668 -0.464323,-0.266746 -0.504485,-0.473533 -0.04017,-0.206781 0.184164,-0.52001 0.311832,-0.709233 0.187568,-0.278006 0.0015,-0.346313 0.189106,-0.624318 0.187569,-0.278006 0.49118,-0.627008 0.678748,-0.905013 0.127669,-0.189224 0.270201,-0.491851 0.476977,-0.532021 0.20678,-0.04017 0.53596,0.284446 0.725183,0.412114 0.19892,0.13421 0.508082,0.217984 0.707001,0.352193 0.198919,0.13421 0.09518,-0.125891 0.294081,0.0083 0.189222,0.127667 0.45966,0.246862 0.499822,0.453649 0.04017,0.20678 -0.0013,0.438183 -0.128962,0.627406 -0.187569,0.278006 -0.594713,0.909251 -0.782281,1.187256 -0.187569,0.278006 -0.261251,0.364439 -0.44882,0.642444 -0.127668,0.189224 -0.02502,0.442959 -0.231797,0.483126 -0.20678,0.04017 -0.595345,0.335823 -0.784567,0.208156 0,0 -0.231227,-0.383732 -0.231227,-0.383732"
       id="use2663"
       inkscape:connector-curvature="0"
       sodipodi:nodetypes="sssssssssssssssss" />
    <path
       style="opacity:1;vector-effect:none;fill:#d80000;fill-opacity:1;stroke:none;stroke-width:5.14932871;stroke-linecap:round;stroke-linejoin:miter;stroke-miterlimit:4;stroke-dasharray:none;stroke-dashoffset:0;stroke-opacity:1;paint-order:stroke fill markers"
       d="m 56.622395,35.900366 c -0.20621,-0.135188 -0.31074,0.122898 -0.516949,-0.01229 -0.20621,-0.135189 -0.274535,-0.410117 -0.480744,-0.545306 -0.196159,-0.128598 -0.480707,-0.267752 -0.524787,-0.479672 -0.04409,-0.211913 0.182143,-0.536799 0.310742,-0.732958 0.188937,-0.288194 -0.0031,-0.355846 0.185803,-0.64404 0.188936,-0.288194 0.496136,-0.650915 0.685072,-0.93911 0.128599,-0.196158 0.270928,-0.509038 0.482835,-0.553125 0.211914,-0.04409 0.554553,0.284963 0.750712,0.413562 0.20621,0.135188 0.525004,0.217055 0.731214,0.352243 0.206209,0.135188 0.09608,-0.130645 0.30227,0.0045 0.196158,0.128598 0.475646,0.247386 0.519726,0.459306 0.04408,0.211912 0.0046,0.450235 -0.123964,0.646394 -0.188936,0.288194 -0.598671,0.94232 -0.787607,1.230514 -0.188936,0.288194 -0.263466,0.378004 -0.452402,0.666199 -0.128599,0.196158 -0.01968,0.455466 -0.231587,0.499551 -0.211914,0.04408 -0.607127,0.35315 -0.803284,0.224552 0,0 -0.242802,-0.391124 -0.242802,-0.391124"
       id="use2665"
       inkscape:connector-curvature="0"
       sodipodi:nodetypes="sssssssssssssssss" />
    <path
       style="opacity:1;vector-effect:none;fill:#d80000;fill-opacity:1;stroke:none;stroke-width:4.73400545;stroke-linecap:round;stroke-linejoin:miter;stroke-miterlimit:4;stroke-dasharray:none;stroke-dashoffset:0;stroke-opacity:1;paint-order:stroke fill markers"
       d="m 66.722885,29.244067 c -0.178075,-0.140269 -0.294405,0.08777 -0.47248,-0.0525 -0.178076,-0.140269 -0.218716,-0.397521 -0.396791,-0.53779 -0.169396,-0.133433 -0.418904,-0.283584 -0.442366,-0.481193 -0.02347,-0.197604 0.209652,-0.477108 0.343084,-0.646504 0.196038,-0.248875 0.02552,-0.32616 0.221561,-0.575035 0.196037,-0.248875 0.506335,-0.55657 0.702373,-0.805445 0.133432,-0.169396 0.288752,-0.444598 0.486351,-0.468068 0.197604,-0.02347 0.485164,0.305239 0.654559,0.438671 0.178076,0.140269 0.46352,0.240686 0.641595,0.380955 0.178076,0.140269 0.09843,-0.111988 0.276481,0.02827 0.169395,0.133431 0.415893,0.264527 0.439355,0.462136 0.02347,0.197603 -0.03168,0.412729 -0.165111,0.582125 -0.196038,0.248875 -0.623496,0.815279 -0.819533,1.064154 -0.196038,0.248875 -0.271464,0.325182 -0.467501,0.574057 -0.133432,0.169396 -0.05436,0.41558 -0.251964,0.439048 -0.197604,0.02347 -0.58423,0.274999 -0.753625,0.141567 0,0 -0.191168,-0.377594 -0.191168,-0.377594"
       id="use2667"
       inkscape:connector-curvature="0"
       sodipodi:nodetypes="sssssssssssssssss" />
    <path
       style="opacity:1;vector-effect:none;fill:#d80000;fill-opacity:1;stroke:none;stroke-width:3.99632931;stroke-linecap:round;stroke-linejoin:miter;stroke-miterlimit:4;stroke-dasharray:none;stroke-dashoffset:0;stroke-opacity:1;paint-order:stroke fill markers"
       d="m 55.182278,26.039607 c 0.04461,0.186091 0.24097,0.09586 0.285576,0.281953 0.04461,0.186091 -0.06304,0.377793 -0.01844,0.563884 0.04243,0.17702 0.129195,0.407027 0.04137,0.550227 -0.08782,0.143199 -0.388492,0.206433 -0.565512,0.248865 -0.260077,0.06234 -0.187533,0.202746 -0.44761,0.265086 -0.260077,0.06234 -0.626628,0.103879 -0.886705,0.166219 -0.17702,0.04243 -0.423892,0.143516 -0.56709,0.0557 -0.143199,-0.08782 -0.161767,-0.456037 -0.204199,-0.633057 -0.04461,-0.186091 -0.181196,-0.401945 -0.225802,-0.588036 -0.04461,-0.18609 -0.123795,0.02271 -0.168396,-0.163361 -0.04243,-0.177019 -0.137169,-0.392826 -0.04934,-0.536026 0.08782,-0.143198 0.236898,-0.256881 0.413919,-0.299313 0.260076,-0.06234 0.839589,-0.213998 1.099666,-0.276338 0.260077,-0.06234 0.349968,-0.07344 0.610045,-0.135781 0.177021,-0.04243 0.253418,-0.246904 0.396616,-0.159082 0.143199,0.08782 0.53094,0.123424 0.573371,0.300443 0,0 -0.07087,0.35018 -0.07087,0.35018"
       id="use2669"
       inkscape:connector-curvature="0"
       sodipodi:nodetypes="sssssssssssssssss" />
    <path
       style="opacity:1;vector-effect:none;fill:#d80000;fill-opacity:1;stroke:none;stroke-width:2.75946712;stroke-linecap:round;stroke-linejoin:miter;stroke-miterlimit:4;stroke-dasharray:none;stroke-dashoffset:0;stroke-opacity:1;paint-order:stroke fill markers"
       d="m 68.174315,36.072344 c 0.132116,0.0023 0.105643,-0.144592 0.237759,-0.142332 0.132116,0.0023 0.241734,0.107289 0.37385,0.109549 0.125677,0.0022 0.294425,-0.01621 0.375029,0.06721 0.08061,0.08341 0.07105,0.295348 0.0689,0.421025 -0.0032,0.184643 0.103228,0.160346 0.10007,0.344989 -0.0032,0.184643 -0.03858,0.436892 -0.04174,0.621535 -0.0022,0.125677 0.02287,0.308171 -0.06053,0.388775 -0.08341,0.08061 -0.33281,0.02954 -0.458487,0.02739 -0.132116,-0.0023 -0.299992,0.05185 -0.432108,0.04959 -0.132117,-0.0023 -0.0062,0.08669 -0.138262,0.08443 -0.125676,-0.0022 -0.286305,0.02399 -0.366909,-0.05943 -0.0806,-0.08341 -0.130914,-0.202686 -0.128765,-0.328363 0.0032,-0.184643 0.0017,-0.59827 0.0048,-0.782913 0.0032,-0.184643 0.01123,-0.246661 0.01439,-0.431305 0.0022,-0.125676 -0.121394,-0.212012 -0.03799,-0.292616 0.08341,-0.08061 0.174067,-0.333722 0.299743,-0.331572 0,0 0.221921,0.107762 0.221921,0.107762"
       id="use2671"
       inkscape:connector-curvature="0"
       sodipodi:nodetypes="sssssssssssssssss" />
    <path
       style="opacity:1;vector-effect:none;fill:#d80000;fill-opacity:1;stroke:none;stroke-width:4.1068325;stroke-linecap:round;stroke-linejoin:miter;stroke-miterlimit:4;stroke-dasharray:none;stroke-dashoffset:0;stroke-opacity:1;paint-order:stroke fill markers"
       d="m 58.770587,39.073475 c 0.19578,-0.01851 0.132328,-0.231336 0.328108,-0.249851 0.19578,-0.01852 0.375286,0.118693 0.571066,0.100178 0.186238,-0.01761 0.432787,-0.07268 0.565805,0.03736 0.133018,0.110032 0.153944,0.425081 0.171556,0.611318 0.02588,0.273618 0.179208,0.220081 0.205084,0.493699 0.02588,0.273618 0.01521,0.652566 0.04109,0.926184 0.01761,0.186238 0.08481,0.452015 -0.02521,0.585032 -0.110032,0.133018 -0.487356,0.09874 -0.673593,0.116357 -0.19578,0.01852 -0.435124,0.126324 -0.630904,0.144839 -0.19578,0.01852 0.0052,0.129234 -0.190528,0.147748 -0.186236,0.01761 -0.419489,0.08284 -0.552507,-0.02719 -0.133018,-0.110032 -0.227161,-0.278124 -0.244774,-0.464362 -0.02588,-0.273618 -0.09651,-0.885145 -0.122382,-1.158763 -0.02588,-0.273618 -0.02419,-0.366682 -0.05007,-0.6403 -0.01761,-0.186238 -0.214623,-0.293492 -0.104592,-0.426509 0.110031,-0.133019 0.20224,-0.522388 0.388477,-0.540001 0,0 0.346059,0.12267 0.346059,0.12267"
       id="use2673"
       inkscape:connector-curvature="0"
       sodipodi:nodetypes="sssssssssssssssss" />
    <path
       style="opacity:1;vector-effect:none;fill:#d80000;fill-opacity:1;stroke:none;stroke-width:2.26402521;stroke-linecap:round;stroke-linejoin:miter;stroke-miterlimit:4;stroke-dasharray:none;stroke-dashoffset:0;stroke-opacity:1;paint-order:stroke fill markers"
       d="m 75.388835,36.222843 c -0.07765,0.07565 0.02319,0.14508 -0.05446,0.220733 -0.07765,0.07565 -0.202166,0.07882 -0.279817,0.154478 -0.07387,0.07197 -0.160672,0.180869 -0.255834,0.179627 -0.09516,-0.0012 -0.213093,-0.129261 -0.285059,-0.203127 -0.105733,-0.108523 -0.153047,-0.03251 -0.258779,-0.141035 -0.105732,-0.108523 -0.232203,-0.274903 -0.337935,-0.383425 -0.07197,-0.07387 -0.192729,-0.164731 -0.191491,-0.259889 0.0012,-0.09516 0.175086,-0.210931 0.248952,-0.282897 0.07765,-0.07565 0.143125,-0.204708 0.220775,-0.280362 0.07765,-0.07565 -0.04694,-0.05367 0.0307,-0.12932 0.07386,-0.07197 0.151448,-0.180636 0.24661,-0.179393 0.09516,0.0012 0.193707,0.04085 0.265673,0.114715 0.105732,0.108523 0.347534,0.346642 0.453266,0.455165 0.105732,0.108523 0.137192,0.14906 0.242924,0.257583 0.07197,0.07387 0.193639,0.05178 0.1924,0.146941 -0.0012,0.09516 0.09382,0.294214 0.01996,0.36618 0,0 -0.190994,0.06701 -0.190994,0.06701"
       id="use2675"
       inkscape:connector-curvature="0"
       sodipodi:nodetypes="sssssssssssssssss" />
    <path
       style="opacity:1;vector-effect:none;fill:#d80000;fill-opacity:1;stroke:none;stroke-width:3.10789752;stroke-linecap:round;stroke-linejoin:miter;stroke-miterlimit:4;stroke-dasharray:none;stroke-dashoffset:0;stroke-opacity:1;paint-order:stroke fill markers"
       d="m 67.039442,32.526456 c 0.126302,0.07871 0.185792,-0.07847 0.312095,2.38e-4 0.126302,0.07871 0.171347,0.24365 0.297649,0.322359 0.120147,0.07487 0.293774,0.154886 0.323314,0.282145 0.02954,0.127255 -0.102451,0.32643 -0.177323,0.446577 -0.110001,0.176518 0.0068,0.214672 -0.103169,0.39119 -0.110001,0.176518 -0.290328,0.399648 -0.400329,0.576166 -0.07487,0.120146 -0.156408,0.310912 -0.28366,0.340457 -0.127255,0.02954 -0.338571,-0.164245 -0.458717,-0.239117 -0.126303,-0.07871 -0.319799,-0.12368 -0.446101,-0.202389 -0.126303,-0.07871 -0.05616,0.08017 -0.182452,0.0015 -0.120145,-0.07487 -0.290436,-0.142667 -0.319976,-0.269926 -0.02954,-0.127255 -0.009,-0.271605 0.06582,-0.391752 0.110002,-0.176518 0.34815,-0.576903 0.458151,-0.753421 0.110002,-0.176518 0.153726,-0.231744 0.263727,-0.408262 0.07487,-0.120147 0.0055,-0.275099 0.132802,-0.304642 0.127255,-0.02954 0.361433,-0.221519 0.481579,-0.146648 0,0 0.151936,0.232631 0.151936,0.232631"
       id="use2677"
       inkscape:connector-curvature="0"
       sodipodi:nodetypes="sssssssssssssssss" />
    <path
       style="opacity:1;vector-effect:none;fill:#d80000;fill-opacity:1;stroke:none;stroke-width:3.28207016;stroke-linecap:round;stroke-linejoin:miter;stroke-miterlimit:4;stroke-dasharray:none;stroke-dashoffset:0;stroke-opacity:1;paint-order:stroke fill markers"
       d="m 73.264842,52.11264 c -0.01721,0.156215 0.159613,0.141021 0.142399,0.297236 -0.01721,0.156214 -0.15366,0.274476 -0.170874,0.43069 -0.01638,0.148601 -0.01321,0.350466 -0.120861,0.436746 -0.107651,0.08628 -0.357595,0.05164 -0.506195,0.03527 -0.218323,-0.02406 -0.201254,0.104608 -0.419577,0.08055 -0.218322,-0.02406 -0.513158,-0.09377 -0.731481,-0.117826 -0.1486,-0.01638 -0.367479,-0.0068 -0.45376,-0.114468 -0.08628,-0.107651 0.0016,-0.397393 0.01802,-0.545993 0.01721,-0.156215 -0.0284,-0.360982 -0.01118,-0.517197 0.01721,-0.156214 -0.101985,-0.01683 -0.08477,-0.173031 0.01637,-0.1486 0.0031,-0.341706 0.110753,-0.427986 0.107651,-0.08628 0.254444,-0.132736 0.403045,-0.116361 0.218322,0.02406 0.708337,0.06781 0.92666,0.09187 0.218322,0.02406 0.290881,0.04045 0.509203,0.06451 0.148601,0.01637 0.264441,-0.120436 0.350721,-0.01279 0.08628,0.107651 0.376068,0.242866 0.359693,0.391466 0,0 -0.15204,0.25096 -0.15204,0.25096"
       id="use2679"
       inkscape:connector-curvature="0"
       sodipodi:nodetypes="sssssssssssssssss" />
    <path
       style="opacity:1;vector-effect:none;fill:#d80000;fill-opacity:1;stroke:none;stroke-width:3.43763661;stroke-linecap:round;stroke-linejoin:miter;stroke-miterlimit:4;stroke-dasharray:none;stroke-dashoffset:0;stroke-opacity:1;paint-order:stroke fill markers"
       d="m 83.935773,44.636688 c -0.05184,-0.156233 -0.213542,-0.06454 -0.265383,-0.220771 -0.05184,-0.156234 0.0264,-0.328411 -0.02544,-0.484645 -0.04931,-0.148618 -0.140498,-0.339407 -0.07569,-0.468565 0.0648,-0.129156 0.317873,-0.205343 0.466491,-0.254657 0.218349,-0.07245 0.145904,-0.187485 0.364252,-0.259936 0.218349,-0.07245 0.529476,-0.134861 0.747825,-0.207312 0.148618,-0.04931 0.352815,-0.154006 0.48197,-0.08921 0.129156,0.0648 0.172,0.379031 0.221314,0.527649 0.05184,0.156234 0.184696,0.331249 0.236536,0.487482 0.05184,0.156233 0.104442,-0.02852 0.156277,0.127699 0.04931,0.148618 0.146294,0.326653 0.08149,0.455811 -0.0648,0.129155 -0.184254,0.237494 -0.332873,0.286808 -0.218348,0.07245 -0.703948,0.244816 -0.922296,0.317267 -0.218349,0.07245 -0.294582,0.08854 -0.51293,0.160991 -0.148619,0.04931 -0.199144,0.230151 -0.328299,0.165353 -0.129156,-0.0648 -0.464087,-0.06696 -0.5134,-0.215572 0,0 0.03513,-0.305317 0.03513,-0.305317"
       id="use2681"
       inkscape:connector-curvature="0"
       sodipodi:nodetypes="sssssssssssssssss" />
    <path
       style="opacity:1;vector-effect:none;fill:#d80000;fill-opacity:1;stroke:none;stroke-width:2.99154878;stroke-linecap:round;stroke-linejoin:miter;stroke-miterlimit:4;stroke-dasharray:none;stroke-dashoffset:0;stroke-opacity:1;paint-order:stroke fill markers"
       d="m 77.426827,43.208124 c 0.108978,0.09297 0.18807,-0.04814 0.297048,0.04483 0.108977,0.09297 0.12828,0.256419 0.237258,0.349392 0.103666,0.08844 0.257504,0.189422 0.267435,0.314781 0.0099,0.125356 -0.144177,0.296085 -0.232619,0.399751 -0.129938,0.152304 -0.02418,0.205321 -0.154116,0.357626 -0.129938,0.152304 -0.33348,0.338927 -0.463418,0.491232 -0.08844,0.103665 -0.193321,0.273601 -0.318674,0.283537 -0.125355,0.0099 -0.298809,-0.204733 -0.402474,-0.293176 -0.108978,-0.09297 -0.286738,-0.163436 -0.395715,-0.25641 -0.108978,-0.09297 -0.06492,0.06828 -0.173884,-0.02468 -0.103665,-0.08844 -0.256074,-0.177314 -0.266005,-0.302673 -0.0099,-0.125355 0.03021,-0.259832 0.118648,-0.363498 0.129938,-0.152305 0.413855,-0.499391 0.543793,-0.651696 0.129938,-0.152305 0.179451,-0.198625 0.30939,-0.35093 0.08844,-0.103665 0.0446,-0.261071 0.169953,-0.271006 0.125356,-0.0099 0.375706,-0.159205 0.479372,-0.07076 0,0 0.111378,0.243155 0.111378,0.243155"
       id="use2683"
       inkscape:connector-curvature="0"
       sodipodi:nodetypes="sssssssssssssssss" />
    <path
       style="opacity:1;vector-effect:none;fill:#d80000;fill-opacity:1;stroke:none;stroke-width:3.75402474;stroke-linecap:round;stroke-linejoin:miter;stroke-miterlimit:4;stroke-dasharray:none;stroke-dashoffset:0;stroke-opacity:1;paint-order:stroke fill markers"
       d="m 79.940908,66.144962 c -0.169295,0.06044 -0.06521,0.234723 -0.234507,0.295161 -0.169295,0.06044 -0.359195,-0.02075 -0.52849,0.03968 -0.161043,0.05749 -0.367098,0.161734 -0.5097,0.09416 -0.1426,-0.06757 -0.231999,-0.341993 -0.28949,-0.503037 -0.08447,-0.236603 -0.208276,-0.154683 -0.292742,-0.391286 -0.08447,-0.236603 -0.160251,-0.574745 -0.244718,-0.811348 -0.05749,-0.161044 -0.176809,-0.381405 -0.109243,-0.524003 0.06757,-0.142601 0.409583,-0.1971 0.570626,-0.254592 0.169295,-0.06044 0.357104,-0.209786 0.526399,-0.270224 0.169295,-0.06044 -0.0337,-0.113324 0.135575,-0.173755 0.161043,-0.05749 0.353031,-0.167748 0.495633,-0.100173 0.1426,0.06757 0.263816,0.195324 0.321308,0.356368 0.08447,0.236603 0.284584,0.762524 0.369051,0.999127 0.08447,0.236603 0.103905,0.319436 0.188371,0.556039 0.05749,0.161044 0.256165,0.21176 0.188596,0.354359 -0.06757,0.142601 -0.06169,0.508317 -0.222733,0.565809 0,0 -0.334196,-0.03085 -0.334196,-0.03085"
       id="use2685"
       inkscape:connector-curvature="0"
       sodipodi:nodetypes="sssssssssssssssss" />
    <path
       style="opacity:1;vector-effect:none;fill:#d80000;fill-opacity:1;stroke:none;stroke-width:2.79777074;stroke-linecap:round;stroke-linejoin:miter;stroke-miterlimit:4;stroke-dasharray:none;stroke-dashoffset:0;stroke-opacity:1;paint-order:stroke fill markers"
       d="m 87.678956,54.111412 c 0.08231,-0.105702 -0.05284,-0.1737 0.02947,-0.279402 0.08231,-0.105701 0.23421,-0.130565 0.316521,-0.236267 0.0783,-0.100549 0.166216,-0.248498 0.282923,-0.263014 0.116703,-0.01452 0.282653,0.122332 0.383202,0.200631 0.147726,0.115036 0.19284,0.01401 0.340566,0.129047 0.147727,0.115037 0.330591,0.297406 0.478317,0.412443 0.100549,0.0783 0.263701,0.169186 0.278221,0.285886 0.01452,0.116704 -0.178796,0.287729 -0.257095,0.388278 -0.08231,0.105702 -0.140717,0.274725 -0.223028,0.380427 -0.08231,0.105701 0.06651,0.0578 -0.01579,0.163489 -0.0783,0.100548 -0.154964,0.246656 -0.271671,0.261172 -0.116703,0.01452 -0.244021,-0.01736 -0.34457,-0.09566 -0.147726,-0.115037 -0.483869,-0.365795 -0.631595,-0.480832 -0.147726,-0.115036 -0.193071,-0.159361 -0.340797,-0.274397 -0.10055,-0.0783 -0.245781,-0.03076 -0.2603,-0.147463 -0.01452,-0.116704 -0.164442,-0.344367 -0.08614,-0.444916 0,0 0.222523,-0.114219 0.222523,-0.114219"
       id="use2687"
       inkscape:connector-curvature="0"
       sodipodi:nodetypes="sssssssssssssssss" />
    <path
       style="opacity:1;vector-effect:none;fill:#d80000;fill-opacity:1;stroke:none;stroke-width:4.32299185;stroke-linecap:round;stroke-linejoin:miter;stroke-miterlimit:4;stroke-dasharray:none;stroke-dashoffset:0;stroke-opacity:1;paint-order:stroke fill markers"
       d="m 92.136475,64.653897 c -0.146215,-0.146533 -0.276471,0.04758 -0.422686,-0.09895 -0.146216,-0.146533 -0.155106,-0.384197 -0.301321,-0.53073 -0.139089,-0.139391 -0.348996,-0.302648 -0.348794,-0.484367 1.97e-4,-0.181716 0.24194,-0.409804 0.381331,-0.548893 0.204791,-0.204347 0.05859,-0.292952 0.263378,-0.497299 0.204792,-0.204347 0.519576,-0.449609 0.724367,-0.653956 0.139391,-0.139088 0.310126,-0.371731 0.491837,-0.371537 0.181716,1.96e-4 0.40672,0.329482 0.545809,0.468873 0.146215,0.146533 0.394111,0.268601 0.540326,0.415134 0.146215,0.146533 0.101411,-0.09084 0.24761,0.05567 0.139087,0.13939 0.348337,0.285042 0.348135,0.466761 -1.98e-4,0.181715 -0.07358,0.370775 -0.212968,0.509863 -0.204792,0.204347 -0.653919,0.671445 -0.85871,0.875792 -0.204792,0.204347 -0.281473,0.265338 -0.486264,0.469685 -0.139391,0.139088 -0.09445,0.370894 -0.276168,0.370697 -0.181715,-1.96e-4 -0.5596,0.185846 -0.698688,0.04646 0,0 -0.132294,-0.363136 -0.132294,-0.363136"
       id="use2689"
       inkscape:connector-curvature="0"
       sodipodi:nodetypes="sssssssssssssssss" />
    <path
       style="opacity:1;vector-effect:none;fill:#d80000;fill-opacity:1;stroke:none;stroke-width:2.15384579;stroke-linecap:round;stroke-linejoin:miter;stroke-miterlimit:4;stroke-dasharray:none;stroke-dashoffset:0;stroke-opacity:1;paint-order:stroke fill markers"
       d="m 76.082449,60.363867 c -0.09866,-0.03005 -0.110308,0.08584 -0.20897,0.05579 -0.09866,-0.03005 -0.158385,-0.13239 -0.257047,-0.162438 -0.09385,-0.02858 -0.224429,-0.05102 -0.267018,-0.130916 -0.04259,-0.07989 0.01006,-0.236891 0.03865,-0.330743 0.04199,-0.137888 -0.04306,-0.142484 -0.0011,-0.280372 0.04199,-0.137888 0.122709,-0.319586 0.164703,-0.457473 0.02858,-0.09385 0.04897,-0.236176 0.128857,-0.278767 0.07989,-0.04259 0.256096,0.04926 0.349948,0.07784 0.09866,0.03005 0.236257,0.02546 0.334919,0.05551 0.09866,0.03005 0.02322,-0.06373 0.121876,-0.03369 0.09385,0.02858 0.220005,0.04344 0.262594,0.123334 0.04259,0.07989 0.05475,0.1802 0.02617,0.274053 -0.04199,0.137888 -0.12964,0.448613 -0.171634,0.5865 -0.04199,0.137888 -0.06136,0.182697 -0.103357,0.320584 -0.02858,0.09385 0.0456,0.185155 -0.03429,0.227746 -0.07989,0.04259 -0.202243,0.213088 -0.296095,0.184505 0,0 -0.143416,-0.128493 -0.143416,-0.128493"
       id="use2691"
       inkscape:connector-curvature="0"
       sodipodi:nodetypes="sssssssssssssssss" />
    <path
       style="opacity:1;vector-effect:none;fill:#d80000;fill-opacity:1;stroke:none;stroke-width:3.5374074;stroke-linecap:round;stroke-linejoin:miter;stroke-miterlimit:4;stroke-dasharray:none;stroke-dashoffset:0;stroke-opacity:1;paint-order:stroke fill markers"
       d="m 79.042673,56.679596 c -0.163327,-0.0449 -0.177248,0.145874 -0.340575,0.100969 -0.163326,-0.0449 -0.265969,-0.210247 -0.429295,-0.255151 -0.155366,-0.04272 -0.370746,-0.0737 -0.444251,-0.202954 -0.07351,-0.129254 0.0059,-0.389368 0.04861,-0.544734 0.06276,-0.228262 -0.07708,-0.231992 -0.01432,-0.460254 0.06276,-0.228261 0.187123,-0.530186 0.249881,-0.758447 0.04272,-0.155366 0.0698,-0.389939 0.199046,-0.463447 0.129254,-0.07351 0.422656,0.06938 0.578022,0.112092 0.163326,0.0449 0.389017,0.03121 0.552344,0.07611 0.163326,0.0449 0.03527,-0.105676 0.19858,-0.06078 0.155365,0.04272 0.363143,0.06145 0.436648,0.190705 0.07351,0.129254 0.09797,0.293388 0.05525,0.448754 -0.06276,0.228262 -0.192713,0.742328 -0.255471,0.970589 -0.06276,0.228262 -0.09255,0.302695 -0.155307,0.530957 -0.04272,0.155366 0.08318,0.301934 -0.04608,0.375441 -0.129254,0.07351 -0.322475,0.35891 -0.47784,0.316194 0,0 -0.241217,-0.204521 -0.241217,-0.204521"
       id="use2693"
       inkscape:connector-curvature="0"
       sodipodi:nodetypes="sssssssssssssssss" />
    <rect
       rx="0.18597004"
       y="-12.228572"
       x="61.460289"
       height="2.1559415"
       width="0.69121784"
       id="use7406"
       style="opacity:1;vector-effect:none;fill:#532400;fill-opacity:1;stroke:none;stroke-width:6.52004433;stroke-linecap:round;stroke-linejoin:miter;stroke-miterlimit:4;stroke-dasharray:none;stroke-dashoffset:0;stroke-opacity:1;paint-order:stroke fill markers"
       transform="rotate(60.183356)" />
    <rect
       rx="0.24222477"
       y="67.097885"
       x="13.035044"
       height="2.8081"
       width="0.90030676"
       id="use7408"
       style="opacity:1;vector-effect:none;fill:#532400;fill-opacity:1;stroke:none;stroke-width:8.49231529;stroke-linecap:round;stroke-linejoin:miter;stroke-miterlimit:4;stroke-dasharray:none;stroke-dashoffset:0;stroke-opacity:1;paint-order:stroke fill markers"
       transform="rotate(-27.645426)" />
    <rect
       rx="0.16769692"
       y="66.651306"
       x="34.572834"
       height="1.9441022"
       width="0.6232999"
       id="use7410"
       style="opacity:1;vector-effect:none;fill:#532400;fill-opacity:1;stroke:none;stroke-width:5.87939501;stroke-linecap:round;stroke-linejoin:miter;stroke-miterlimit:4;stroke-dasharray:none;stroke-dashoffset:0;stroke-opacity:1;paint-order:stroke fill markers"
       transform="rotate(-29.300176)" />
    <rect
       rx="0.25048351"
       y="-53.611965"
       x="-38.695457"
       height="2.9038432"
       width="0.93100309"
       id="use7412"
       style="opacity:1;vector-effect:none;fill:#532400;fill-opacity:1;stroke:none;stroke-width:8.78186417;stroke-linecap:round;stroke-linejoin:miter;stroke-miterlimit:4;stroke-dasharray:none;stroke-dashoffset:0;stroke-opacity:1;paint-order:stroke fill markers"
       transform="rotate(151.30288)" />
    <rect
       rx="0.24188632"
       y="-76.879951"
       x="-30.663361"
       height="2.8041763"
       width="0.89904881"
       id="use7414"
       style="opacity:1;vector-effect:none;fill:#532400;fill-opacity:1;stroke:none;stroke-width:8.48044968;stroke-linecap:round;stroke-linejoin:miter;stroke-miterlimit:4;stroke-dasharray:none;stroke-dashoffset:0;stroke-opacity:1;paint-order:stroke fill markers"
       transform="rotate(141.89741)" />
    <rect
       rx="0.15452495"
       y="83.868034"
       x="-38.604099"
       height="1.7914002"
       width="0.57434201"
       id="use7416"
       style="opacity:1;vector-effect:none;fill:#532400;fill-opacity:1;stroke:none;stroke-width:5.41759062;stroke-linecap:round;stroke-linejoin:miter;stroke-miterlimit:4;stroke-dasharray:none;stroke-dashoffset:0;stroke-opacity:1;paint-order:stroke fill markers"
       transform="rotate(-78.570954)" />
    <rect
       rx="0.30720586"
       y="6.8284678"
       x="-92.390335"
       height="3.5614226"
       width="1.14183"
       id="use7418"
       style="opacity:1;vector-effect:none;fill:#532400;fill-opacity:1;stroke:none;stroke-width:10.77052975;stroke-linecap:round;stroke-linejoin:miter;stroke-miterlimit:4;stroke-dasharray:none;stroke-dashoffset:0;stroke-opacity:1;paint-order:stroke fill markers"
       transform="rotate(-143.281)" />
    <rect
       rx="0.17474543"
       y="-87.684578"
       x="-12.10807"
       height="2.0258152"
       width="0.64949793"
       id="use7420"
       style="opacity:1;vector-effect:none;fill:#532400;fill-opacity:1;stroke:none;stroke-width:6.12651348;stroke-linecap:round;stroke-linejoin:miter;stroke-miterlimit:4;stroke-dasharray:none;stroke-dashoffset:0;stroke-opacity:1;paint-order:stroke fill markers"
       transform="rotate(131.15454)" />
    <rect
       rx="0.25781733"
       y="77.826668"
       x="-24.779427"
       height="2.9888635"
       width="0.95826155"
       id="use7422"
       style="opacity:1;vector-effect:none;fill:#532400;fill-opacity:1;stroke:none;stroke-width:9.0389843;stroke-linecap:round;stroke-linejoin:miter;stroke-miterlimit:4;stroke-dasharray:none;stroke-dashoffset:0;stroke-opacity:1;paint-order:stroke fill markers"
       transform="rotate(-61.555773)" />
    <rect
       rx="0.28971255"
       y="-2.0054023"
       x="-86.040123"
       height="3.3586235"
       width="1.0768105"
       id="use7424"
       style="opacity:1;vector-effect:none;fill:#532400;fill-opacity:1;stroke:none;stroke-width:10.15721989;stroke-linecap:round;stroke-linejoin:miter;stroke-miterlimit:4;stroke-dasharray:none;stroke-dashoffset:0;stroke-opacity:1;paint-order:stroke fill markers"
       transform="rotate(-132.27868)" />
    <rect
       rx="0.30742547"
       y="-17.269894"
       x="-75.043518"
       height="3.5639684"
       width="1.1426463"
       id="use7426"
       style="opacity:1;vector-effect:none;fill:#532400;fill-opacity:1;stroke:none;stroke-width:10.77822876;stroke-linecap:round;stroke-linejoin:miter;stroke-miterlimit:4;stroke-dasharray:none;stroke-dashoffset:0;stroke-opacity:1;paint-order:stroke fill markers"
       transform="rotate(-147.43524)" />
    <rect
       rx="0.32359999"
       y="-55.631397"
       x="-28.099751"
       height="3.7514789"
       width="1.2027642"
       id="use7428"
       style="opacity:1;vector-effect:none;fill:#532400;fill-opacity:1;stroke:none;stroke-width:11.34530258;stroke-linecap:round;stroke-linejoin:miter;stroke-miterlimit:4;stroke-dasharray:none;stroke-dashoffset:0;stroke-opacity:1;paint-order:stroke fill markers"
       transform="rotate(149.44341)" />
    <rect
       rx="0.29894009"
       y="-4.1272783"
       x="-56.974129"
       height="3.4655979"
       width="1.1111076"
       id="use7430"
       style="opacity:1;vector-effect:none;fill:#532400;fill-opacity:1;stroke:none;stroke-width:10.48073483;stroke-linecap:round;stroke-linejoin:miter;stroke-miterlimit:4;stroke-dasharray:none;stroke-dashoffset:0;stroke-opacity:1;paint-order:stroke fill markers"
       transform="rotate(-144.12799)" />
    <rect
       rx="0.27112341"
       y="-76.23996"
       x="32.057201"
       height="3.1431203"
       width="1.0077178"
       id="use7432"
       style="opacity:1;vector-effect:none;fill:#532400;fill-opacity:1;stroke:none;stroke-width:9.50549126;stroke-linecap:round;stroke-linejoin:miter;stroke-miterlimit:4;stroke-dasharray:none;stroke-dashoffset:0;stroke-opacity:1;paint-order:stroke fill markers"
       transform="rotate(104.93825)" />
    <rect
       rx="0.24397643"
       y="-2.1297338"
       x="-70.710091"
       height="2.8284068"
       width="0.90681738"
       id="use7434"
       style="opacity:1;vector-effect:none;fill:#532400;fill-opacity:1;stroke:none;stroke-width:8.5537281;stroke-linecap:round;stroke-linejoin:miter;stroke-miterlimit:4;stroke-dasharray:none;stroke-dashoffset:0;stroke-opacity:1;paint-order:stroke fill markers"
       transform="rotate(-149.52728)" />
    <rect
       rx="0.34760988"
       y="-78.535339"
       x="-35.565979"
       height="3.925185"
       width="1.2920047"
       id="use7436"
       style="opacity:1;vector-effect:none;fill:#532400;fill-opacity:1;stroke:none;stroke-width:12.02781296;stroke-linecap:round;stroke-linejoin:miter;stroke-miterlimit:4;stroke-dasharray:none;stroke-dashoffset:0;stroke-opacity:1;paint-order:stroke fill markers"
       transform="matrix(-0.81548445,0.57877899,-0.67075974,-0.74167471,0,0)" />
    <rect
       rx="0.39652109"
       y="-76.769554"
       x="31.428925"
       height="4.5968494"
       width="1.473799"
       id="use7438"
       style="opacity:1;vector-effect:none;fill:#532400;fill-opacity:1;stroke:none;stroke-width:13.90189075;stroke-linecap:round;stroke-linejoin:miter;stroke-miterlimit:4;stroke-dasharray:none;stroke-dashoffset:0;stroke-opacity:1;paint-order:stroke fill markers"
       transform="rotate(88.399207)" />
    <rect
       rx="0.38318112"
       y="-61.952858"
       x="-17.61348"
       height="4.4422002"
       width="1.4242166"
       id="use7440"
       style="opacity:1;vector-effect:none;fill:#532400;fill-opacity:1;stroke:none;stroke-width:13.43419552;stroke-linecap:round;stroke-linejoin:miter;stroke-miterlimit:4;stroke-dasharray:none;stroke-dashoffset:0;stroke-opacity:1;paint-order:stroke fill markers"
       transform="rotate(121.48755)" />
    <rect
       rx="0.34241644"
       y="-54.712635"
       x="-46.243649"
       height="3.9696169"
       width="1.2727015"
       id="use7442"
       style="opacity:1;vector-effect:none;fill:#532400;fill-opacity:1;stroke:none;stroke-width:12.00499916;stroke-linecap:round;stroke-linejoin:miter;stroke-miterlimit:4;stroke-dasharray:none;stroke-dashoffset:0;stroke-opacity:1;paint-order:stroke fill markers"
       transform="rotate(148.86776)" />
    <rect
       rx="0.30657387"
       y="-47.695892"
       x="29.947104"
       height="3.5540957"
       width="1.1394809"
       id="use7444"
       style="opacity:1;vector-effect:none;fill:#532400;fill-opacity:1;stroke:none;stroke-width:10.74837208;stroke-linecap:round;stroke-linejoin:miter;stroke-miterlimit:4;stroke-dasharray:none;stroke-dashoffset:0;stroke-opacity:1;paint-order:stroke fill markers"
       transform="rotate(84.076875)" />
  </g>
</svg>
