<?xml version="1.0" encoding="utf-8"?>
<!-- Generator: Adobe Illustrator 19.2.1, SVG Export Plug-In . SVG Version: 6.00 Build 0)  -->
<svg version="1.1" id="レイヤー_1" xmlns="http://www.w3.org/2000/svg" xmlns:xlink="http://www.w3.org/1999/xlink" x="0px"
	 y="0px" viewBox="0 0 128 128" style="enable-background:new 0 0 128 128;" xml:space="preserve">
<path style="fill:#40C0E7;" d="M119.87,72.84c-0.72-1.29-1.64-3.29-3.69-4.1c-0.94-0.38-2.32-0.31-3.43,0.19
	c-2.38,1.05-9.99,5.8-13.25,9.12c-1.29,1.31-1.4,2.39-1.02,3.08c0.45,0.8,1.18,1.1,2.77,1.22c1.32,0.1,2.74-0.26,3.72,0.67
	c1.96,1.86-5.6,10.27-6.28,11c-3.12,3.34-6.59,6.44-10.74,8.64c-3.31,1.74-9.85,3.15-12.41-0.27c-2.16-2.85-2.12-7.38-2.56-10.71
	c-0.69-5.26-1.28-10.48-1.82-15.77c-0.23-2.22-0.86-5.25,0.53-7.26c2.04-2.96,13.72-4.55,14.98-4.88c2.49-0.66,3.57-1.87,3.57-4.36
	c0-2.19-1.12-4.26-3.62-4.62c-2.66-0.39-5.56-0.3-8.27-0.3c-2.06,0.01-6.6-0.49-7.96-2.01c-0.45-0.52-0.68-1.28-0.76-1.92
	c-0.31-2.5-1.12-5.97,0.42-8.27c0.86-1.28,2.49-1.83,3.76-2.69c0.71-0.31,1.41-0.66,2.09-1.05c7.74-4.56,12.02-13.86,10.2-22.21
	C84.03,6.84,74.35,0.89,64,0.55C53.65,0.89,43.97,6.84,41.91,16.33c-1.81,8.35,2.46,17.65,10.2,22.21c0.67,0.4,1.38,0.74,2.09,1.05
	c1.27,0.86,2.9,1.42,3.76,2.69c1.54,2.3,0.73,5.77,0.42,8.27c-0.08,0.65-0.31,1.41-0.76,1.92c-1.36,1.53-5.9,2.02-7.95,2.01
	c-2.71,0-5.61-0.09-8.27,0.3c-2.5,0.36-3.62,2.43-3.62,4.62c0,2.49,1.08,3.7,3.56,4.36c1.26,0.34,12.94,1.92,14.98,4.88
	c1.39,2,0.76,5.04,0.53,7.26c-0.54,5.28-1.14,10.51-1.83,15.77c-0.43,3.33-0.4,7.87-2.55,10.71c-2.57,3.42-9.1,2.01-12.41,0.27
	c-4.16-2.2-7.63-5.3-10.74-8.64c-0.68-0.73-8.24-9.14-6.28-11c0.98-0.93,2.39-0.57,3.72-0.67c1.59-0.12,2.32-0.42,2.77-1.22
	c0.38-0.69,0.27-1.77-1.02-3.08c-3.26-3.32-10.87-8.07-13.25-9.12c-1.11-0.5-2.5-0.57-3.43-0.19c-2.05,0.81-2.97,2.82-3.69,4.1
	c-1.46,2.64-5.34,13.78-4.66,16.59c0.31,1.28,1.85,1.84,3.37,1.18c1.43-0.62,2.82-3.8,5.07-2.51c0.66,0.39,0.98,1.68,1.21,2.27
	c0.34,0.86,0.76,1.74,1.09,2.57c4.48,11.04,12.16,21.4,23.32,27.45c7.88,4.27,17.18,6.81,26.46,7.07
	c9.28-0.26,18.58-2.79,26.46-7.07c11.15-6.06,18.83-16.41,23.31-27.45c0.34-0.83,0.75-1.71,1.1-2.57c0.23-0.58,0.54-1.88,1.21-2.27
	c2.26-1.29,3.64,1.89,5.07,2.51c1.52,0.66,3.06,0.1,3.37-1.18C125.21,86.61,121.33,75.47,119.87,72.84z M55.34,20.81
	c0-4.79,3.88-8.66,8.66-8.66c4.78,0,8.66,3.88,8.66,8.66c0,4.78-3.88,8.66-8.66,8.66C59.22,29.48,55.34,25.59,55.34,20.81z"/>
</svg>
