<?xml version="1.0" encoding="UTF-8" standalone="no"?>
<svg
   xmlns:dc="http://purl.org/dc/elements/1.1/"
   xmlns:cc="http://creativecommons.org/ns#"
   xmlns:rdf="http://www.w3.org/1999/02/22-rdf-syntax-ns#"
   xmlns:svg="http://www.w3.org/2000/svg"
   xmlns="http://www.w3.org/2000/svg"
   xmlns:sodipodi="http://sodipodi.sourceforge.net/DTD/sodipodi-0.dtd"
   xmlns:inkscape="http://www.inkscape.org/namespaces/inkscape"
   width="128"
   height="128"
   style="enable-background:new 0 0 128 128;"
   version="1.1"
   id="svg18"
   sodipodi:docname="emoji_u1f9b8.svg"
   inkscape:version="0.92.3 (2405546, 2018-03-11)">
  <metadata
     id="metadata24">
    <rdf:RDF>
      <cc:Work
         rdf:about="">
        <dc:format>image/svg+xml</dc:format>
        <dc:type
           rdf:resource="http://purl.org/dc/dcmitype/StillImage" />
        <dc:title></dc:title>
      </cc:Work>
    </rdf:RDF>
  </metadata>
  <defs
     id="defs22" />
  <sodipodi:namedview
     pagecolor="#ffffff"
     bordercolor="#666666"
     borderopacity="1"
     objecttolerance="10"
     gridtolerance="10"
     guidetolerance="10"
     inkscape:pageopacity="0"
     inkscape:pageshadow="2"
     inkscape:window-width="1920"
     inkscape:window-height="1046"
     id="namedview20"
     showgrid="false"
     inkscape:object-paths="true"
     inkscape:zoom="2.6074563"
     inkscape:cx="105.33048"
     inkscape:cy="86.427631"
     inkscape:window-x="-11"
     inkscape:window-y="-11"
     inkscape:window-maximized="1"
     inkscape:current-layer="svg18" />
  <path
     d="M63.79,8.64C1.48,8.64,0,78.5,0,92.33c0,13.83,28.56,25.03,63.79,25.03 c35.24,0,63.79-11.21,63.79-25.03C127.58,78.5,126.11,8.64,63.79,8.64z"
     style="fill:#FCC21B;"
     id="path2" />
  <path
     d="M96.46,70.26c-3.09-2.09-6.98-0.71-10.42,0c-9.58,1.98-18,2.06-22.04,2.06s-12.46-0.08-22.04-2.06 c-3.44-0.71-7.33-2.09-10.42,0c-3.92,2.65-1.03,12.15,5.14,18.57c3.73,3.88,12.61,11.41,27.32,11.41c14.71,0,23.59-7.53,27.32-11.41 C97.49,82.41,100.37,72.91,96.46,70.26z"
     style="fill:#ED6C30;"
     id="path10" />
  <path
     style="opacity:1;vector-effect:none;fill:#34d400;fill-opacity:0.82304526;stroke:none;stroke-width:0.97736496;stroke-linecap:butt;stroke-linejoin:miter;stroke-miterlimit:4;stroke-dasharray:none;stroke-dashoffset:0;stroke-opacity:1;paint-order:normal"
     d="m 64,40.153514 c -5.706153,0.0029 -20.716753,-3.086862 -30.093037,-1.718731 -9.376283,1.36813 -17.895057,3.369327 -24.9479786,5.914826 -2.5915781,5.889176 -4.4354988,11.954435 -5.7441406,17.761719 7.2469602,0.986119 16.6392612,1.771283 27.2912502,2.310645 10.651988,0.539362 23.000872,-1.063176 34.849375,-1.062466 11.848503,7.1e-4 22.526715,1.644352 32.619541,1.174748 10.09283,-0.469605 19.16306,-1.156357 26.48397,-2.026443 C 123.12584,56.491381 121.21459,50.184417 118.5,44.076172 111.43799,41.603815 102.97572,39.665695 93.697593,38.344998 84.419462,37.0243 69.706153,40.150618 64,40.153514 Z"
     id="path845"
     inkscape:connector-curvature="0"
     sodipodi:nodetypes="zsccszsccsz" />
  <g
     id="g16"
     style="fill:#272727;fill-opacity:1">
    <path
       d="M42.21,61.3c-4.49,0.04-8.17-4.27-8.22-9.62c-0.05-5.37,3.55-9.75,8.04-9.79 c4.48-0.04,8.17,4.27,8.22,9.64C50.3,56.88,46.7,61.25,42.21,61.3z"
       style="fill:#272727;fill-opacity:1"
       id="path12" />
    <path
       d="M86.32,61.3c4.48-0.01,8.11-4.36,8.1-9.71c-0.01-5.37-3.66-9.7-8.14-9.69 c-4.49,0.01-8.13,4.36-8.12,9.73C78.18,56.98,81.83,61.31,86.32,61.3z"
       style="fill:#272727;fill-opacity:1"
       id="path14" />
  </g>
</svg>
