<svg enable-background="new 0 0 128 128" viewBox="0 0 128 128" xmlns="http://www.w3.org/2000/svg" xmlns:xlink="http://www.w3.org/1999/xlink"><defs><rect id="i" x="4" y="4" width="120" height="120"/></defs><clipPath id="b"><use xlink:href="#i"/></clipPath><g clip-path="url(#b)"><defs><rect id="h" x="33.32" y="5" width="154" height="154"/></defs><clipPath id="a"><use xlink:href="#h"/></clipPath><g clip-path="url(#a)"><path d="m79.06 96.18c-6.52 0-11.82-5.69-11.82-12.69s5.3-12.69 11.82-12.69h67.95c6.52 0 11.82 5.69 11.82 12.69s-5.3 12.69-11.82 12.69h-67.95z" fill="#E59600"/><path d="m147.01 72.3c5.69 0 10.32 5.02 10.32 11.19s-4.63 11.19-10.32 11.19h-67.95c-5.69 0-10.32-5.02-10.32-11.19s4.62-11.19 10.32-11.19h67.95m0-3h-67.95c-7.33 0-13.32 6.39-13.32 14.19s5.99 14.19 13.32 14.19h67.95c7.33 0 13.32-6.39 13.32-14.19s-5.99-14.19-13.32-14.19z" fill="#CC8600"/><linearGradient id="g" x1="109.19" x2="109.19" y1="-8.2341" y2="95.157" gradientTransform="matrix(.9963 .0859 -.0859 .9963 5.2852 19.24)" gradientUnits="userSpaceOnUse"><stop stop-color="#FFCA28" offset=".5993"/><stop stop-color="#FFB300" offset="1"/></linearGradient><path d="m109.24 123.5c-1.11 0-2.23-0.05-3.34-0.14-10.55-0.91-19.96-5.95-26.52-14.19-7.43-9.34-10.67-22.17-9.39-37.08 1.26-14.65 6.51-27.95 14.79-37.47 7.81-8.98 17.57-13.93 27.47-13.93 0.83 0 1.67 0.04 2.49 0.11 10.14 0.88 19.75 7.25 26.36 17.48 7.09 10.97 10.26 25.43 8.95 40.71-1.22 14.12-6.15 25.77-14.27 33.69-7.15 6.98-16.58 10.82-26.54 10.82z" fill="url(#g)"/><path d="m112.25 22.19c0.79 0 1.58 0.03 2.36 0.1 9.68 0.83 18.87 6.96 25.23 16.8 6.91 10.69 10 24.81 8.71 39.77-1.19 13.75-5.97 25.08-13.83 32.75-6.87 6.7-15.92 10.4-25.49 10.4-1.07 0-2.15-0.05-3.21-0.14-10.13-0.87-19.18-5.71-25.47-13.63-7.19-9.04-10.32-21.49-9.07-36.02 1.24-14.33 6.36-27.33 14.42-36.61 7.53-8.65 16.89-13.42 26.35-13.42m0-3c-20.69 0-41.01 20.93-43.75 52.77-2.85 33 16.32 51.09 37.27 52.9 1.15 0.1 2.31 0.15 3.47 0.15 19.85 0 39.62-14.7 42.31-45.88 2.86-33.18-15.12-57.96-36.68-59.81-0.87-0.09-1.75-0.13-2.62-0.13z" fill="#EDA600"/><path d="m80.86 63.21c1.37-1.31 4.29-3.04 9.14-2.13 4.86 0.91 6.95 3.59 7.75 5.3 0.35 0.76 0.09 1.51-0.33 1.91-0.39 0.38-1.37 0.61-2.31 0.06s-2.7-1.99-5.98-2.63c-3.29-0.59-5.45 0.11-6.53 0.28-1.07 0.17-1.9-0.4-2.13-0.89-0.24-0.53-0.21-1.32 0.39-1.9z" fill="#6D4C41"/><path d="m117.26 67.05c1.37-1.31 4.29-3.04 9.14-2.13 4.86 0.91 6.95 3.59 7.75 5.3 0.35 0.76 0.09 1.51-0.33 1.91-0.39 0.38-1.37 0.61-2.31 0.06s-2.7-1.99-5.98-2.63c-3.29-0.59-5.45 0.11-6.53 0.28-1.07 0.17-1.9-0.4-2.13-0.89-0.24-0.52-0.22-1.32 0.39-1.9z" fill="#6D4C41"/><radialGradient id="f" cx="-345.91" cy="103.48" r="19.862" gradientTransform="matrix(.9957 -.0921 .0921 .9957 461.7 -33.138)" gradientUnits="userSpaceOnUse"><stop stop-color="#EC407A" stop-opacity=".4" offset=".0686"/><stop stop-color="#EC407A" stop-opacity=".15" offset=".5468"/><stop stop-color="#FFB300" stop-opacity="0" offset=".7782"/><stop stop-color="#FFB300" stop-opacity="0" offset=".9712"/></radialGradient><circle cx="126.79" cy="101.76" r="17.82" fill="url(#f)"/><radialGradient id="e" cx="-387.26" cy="92.643" r="19.862" gradientTransform="matrix(.9957 -.0921 .0921 .9957 461.7 -33.138)" gradientUnits="userSpaceOnUse"><stop stop-color="#EC407A" stop-opacity=".4" offset=".0686"/><stop stop-color="#EC407A" stop-opacity=".15" offset=".5468"/><stop stop-color="#FFB300" stop-opacity="0" offset=".7782"/><stop stop-color="#FFB300" stop-opacity="0" offset=".9712"/></radialGradient><circle cx="84.63" cy="94.78" r="17.82" fill="url(#e)"/><path d="m78.93 73.42c-0.58 0.08-1.01 1.53-0.5 4.09 0.61 3.09 2.76 5.43 4.71 6.39 2.44 1.21 7.29 2.04 11.14-0.66 4.43-3.09 3.12-5.65 1.52-5.07-1.63 0.6-4.58 1.23-7.01 1.08-2.53-0.16-5.26-1.38-7.02-3-1.3-1.18-2.21-2.92-2.84-2.83z" fill="#444"/><path d="m115.06 79.9c-0.58 0.08-1.01 1.53-0.5 4.09 0.61 3.09 2.76 5.43 4.71 6.39 2.44 1.21 7.29 2.04 11.14-0.66 4.43-3.09 3.12-5.65 1.52-5.07-1.63 0.6-4.58 1.23-7.01 1.08-2.53-0.16-5.26-1.38-7.02-3-1.3-1.18-2.21-2.91-2.84-2.83z" fill="#444"/><path d="m97.05 93.27c2.84 0.21 2.82-1.48 3.75-0.45 1.81 2 2.21 3.31 1.86 3.95-0.53 0.97-1.53 0.97-4.44 0.35s-5.9-1.87-5.99-2.97c-0.06-0.74 0.11-1.99 1.18-3.24 0.53-0.61 0.81 2.15 3.64 2.36z" fill="#E59600"/><radialGradient id="d" cx="-64.184" cy="84.247" r="9.3801" gradientTransform="matrix(-.7326 -.1212 -.0816 .6179 55.012 43.89)" gradientUnits="userSpaceOnUse"><stop stop-color="#543930" offset="0"/><stop stop-color="#543930" offset=".9916"/></radialGradient><path d="m99.55 100.91c-0.22-0.06-5.9-1.97-7.22 0.96-1.2 2.66 3.44 3.95 3.44 3.95s-4.53-0.9-5.21 2.39c-0.69 3.28 6.45 4.78 6.45 4.78" fill="none" stroke="url(#d)" stroke-linecap="round" stroke-linejoin="round" stroke-miterlimit="10" stroke-width="3"/><radialGradient id="q" cx="106.45" cy="31.897" r="45.167" gradientTransform="matrix(-1.0193 -.0197 0 .9956 219.34 -.6374)" gradientUnits="userSpaceOnUse"><stop stop-color="#6D4C41" offset="0"/><stop stop-color="#543930" offset="1"/></radialGradient><path d="m109.94 9.1c22.83 0.52 25.21 11.12 25.82 11.01 6.57-1.2 15.61 3.94 20.56 12.62 12.79 22.43-2.86 39.63-3.19 41.58-1.71 10.05-2.55 11.78-2.55 11.78s-0.51-13.87-8.25-23.04c-4.94-5.86-9.68-18.63-9.68-18.63s-13.89 4.7-24.46 10.58c-8.92 4.96-14.5 11.55-14.5 11.55s-1.67-5.17-0.36-10.51c2.82-11.48 13.91-16.47 13.91-16.47s-5.54 1.44-13.07 7.96c-16.63 14.38-21.05 41.03-21.05 41.03-5.7-5.29-15.18-18.04-14.02-36.7 0.57-9.31 9.48-43.7 50.84-42.76z" fill="url(#q)"/><path d="m132.83 20.86c-3.37-5.7-11.08-8.84-22.91-9.07h-0.24c-16.64-0.32-29.5 5.31-38.2 16.59-6.91 8.96-9.25 19.59-9.6 24.17-1.08 14.28 6.45 26.63 12.01 32.57-0.2 1.11-0.72 2.81-0.78 3.55-6.41-5.49-15.1-19.45-14.02-36.83 0.58-9.29 9.45-43.64 50.59-42.84h0.25c22.7 0.44 25.18 11.07 25.81 11.09l0.01 0.04c0.8-0.15 1.68-0.19 2.6-0.17 6.6 0.13 12.65 4.32 17.32 11.76 13.87 22.06-2.22 40.7-2.55 42.65-1.71 10.05-2.55 11.78-2.55 11.78s-0.12-3.15-1.07-7.43c0.36-2.09 0.69-3.81 1.13-6.14 0.27-0.45 14.68-19.82 2.81-38.96-4.08-6.57-9.47-10.73-15.09-10.84-0.73-0.01-1.41 0.03-2.02 0.15-0.19 0.03-0.39 0.05-0.59 0.05-1.73-0.05-2.52-1.47-2.91-2.12z" fill="#3F2720"/></g><rect x="55.85" y="13.09" width="108.94" height="108.94" clip-path="url(#a)" fill="none"/></g><g clip-path="url(#b)"><defs><rect id="p" transform="matrix(-1 4.4896e-11 -4.4896e-11 -1 32.36 164)" x="-60.82" y="5" width="154" height="154"/></defs><clipPath id="c"><use xlink:href="#p"/></clipPath><g clip-path="url(#c)"><path d="m-20.51 96.18c-6.52 0-11.82-5.69-11.82-12.69s5.3-12.69 11.82-12.69h67.95c6.52 0 11.82 5.69 11.82 12.69s-5.3 12.69-11.82 12.69h-67.95z" fill="#E59600"/><path d="m47.44 72.3c5.69 0 10.32 5.02 10.32 11.19s-4.63 11.19-10.32 11.19h-67.95c-5.69 0-10.32-5.02-10.32-11.19s4.63-11.19 10.32-11.19h67.95m0-3h-67.95c-7.33 0-13.32 6.39-13.32 14.19s5.99 14.19 13.32 14.19h67.95c7.33 0 13.32-6.39 13.32-14.19s-5.99-14.19-13.32-14.19z" fill="#CC8600"/><linearGradient id="o" x1="15.394" x2="15.394" y1="-.1469" y2="103.24" gradientTransform="matrix(-.9963 .0859 .0859 .9963 27.074 19.24)" gradientUnits="userSpaceOnUse"><stop stop-color="#FFCA28" offset=".5993"/><stop stop-color="#FFB300" offset="1"/></linearGradient><path d="m17.26 123.5c-9.96 0-19.39-3.84-26.54-10.82-8.12-7.92-13.06-19.58-14.27-33.69-1.32-15.28 1.86-29.74 8.95-40.71 6.61-10.23 16.22-16.61 26.36-17.48 0.82-0.07 1.66-0.11 2.49-0.11 9.91 0 19.66 4.95 27.47 13.93 8.27 9.51 13.52 22.82 14.79 37.47 1.29 14.92-1.96 27.74-9.39 37.08-6.55 8.24-15.97 13.28-26.52 14.19-1.11 0.1-2.23 0.14-3.34 0.14z" fill="url(#o)"/><path d="m14.25 22.19c9.47 0 18.82 4.76 26.34 13.41 8.07 9.28 13.19 22.28 14.42 36.61 1.25 14.53-1.88 26.98-9.07 36.02-6.29 7.91-15.34 12.75-25.47 13.63-1.06 0.09-2.14 0.14-3.21 0.14-9.57 0-18.63-3.69-25.49-10.4-7.86-7.67-12.64-18.99-13.83-32.75-1.29-14.95 1.8-29.08 8.71-39.77 6.36-9.84 15.56-15.97 25.23-16.8 0.79-0.05 1.58-0.09 2.37-0.09m0-3c-0.87 0-1.75 0.04-2.62 0.11-21.56 1.86-39.54 26.64-36.67 59.81 2.68 31.19 22.45 45.89 42.3 45.89 1.16 0 2.31-0.05 3.47-0.15 20.95-1.81 40.12-19.9 37.27-52.9-2.74-31.83-23.07-52.76-43.75-52.76z" fill="#EDA600"/><path d="m45.64 63.21c-1.37-1.31-4.29-3.04-9.14-2.13-4.86 0.91-6.95 3.59-7.75 5.3-0.35 0.76-0.09 1.51 0.33 1.91 0.39 0.38 1.37 0.61 2.31 0.06s2.7-1.99 5.98-2.63c3.29-0.59 5.45 0.11 6.53 0.28 1.07 0.17 1.9-0.4 2.13-0.89 0.24-0.53 0.21-1.32-0.39-1.9z" fill="#6D4C41"/><path d="m9.24 67.05c-1.37-1.31-4.29-3.04-9.14-2.13-4.86 0.91-6.95 3.59-7.75 5.3-0.35 0.76-0.09 1.51 0.33 1.91 0.39 0.38 1.37 0.61 2.31 0.06s2.7-1.99 5.98-2.63c3.29-0.59 5.45 0.11 6.53 0.28 1.07 0.17 1.9-0.4 2.13-0.89 0.24-0.52 0.22-1.32-0.39-1.9z" fill="#6D4C41"/><radialGradient id="n" cx="-439.65" cy="94.811" r="19.862" gradientTransform="matrix(-.9957 -.0921 -.0921 .9957 -429.34 -33.138)" gradientUnits="userSpaceOnUse"><stop stop-color="#EC407A" stop-opacity=".4" offset=".0686"/><stop stop-color="#EC407A" stop-opacity=".15" offset=".5468"/><stop stop-color="#FFB300" stop-opacity="0" offset=".7782"/><stop stop-color="#FFB300" stop-opacity="0" offset=".9712"/></radialGradient><circle cx="-.29" cy="101.76" r="17.82" fill="url(#n)"/><radialGradient id="m" cx="-481" cy="83.972" r="19.862" gradientTransform="matrix(-.9957 -.0921 -.0921 .9957 -429.34 -33.138)" gradientUnits="userSpaceOnUse"><stop stop-color="#EC407A" stop-opacity=".4" offset=".0686"/><stop stop-color="#EC407A" stop-opacity=".15" offset=".5468"/><stop stop-color="#FFB300" stop-opacity="0" offset=".7782"/><stop stop-color="#FFB300" stop-opacity="0" offset=".9712"/></radialGradient><circle cx="41.87" cy="94.78" r="17.82" fill="url(#m)"/><path d="m47.57 73.42c0.58 0.08 1.01 1.53 0.5 4.09-0.61 3.09-2.76 5.43-4.71 6.39-2.44 1.21-7.29 2.04-11.14-0.66-4.43-3.09-3.12-5.65-1.52-5.07 1.63 0.6 4.58 1.23 7.01 1.08 2.53-0.16 5.26-1.38 7.02-3 1.3-1.18 2.21-2.92 2.84-2.83z" fill="#444"/><path d="m11.44 79.9c0.58 0.08 1.01 1.53 0.5 4.09-0.61 3.09-2.76 5.43-4.71 6.39-2.44 1.21-7.29 2.04-11.14-0.66-4.43-3.09-3.12-5.65-1.52-5.07 1.63 0.6 4.58 1.23 7.01 1.08 2.53-0.16 5.26-1.38 7.02-3 1.3-1.18 2.21-2.91 2.84-2.83z" fill="#444"/><path d="m29.45 93.27c-2.84 0.21-2.82-1.48-3.75-0.45-1.81 2-2.21 3.31-1.86 3.95 0.53 0.97 1.53 0.97 4.44 0.35s5.9-1.87 5.99-2.97c0.06-0.74-0.11-1.99-1.18-3.24-0.53-0.61-0.81 2.15-3.64 2.36z" fill="#E59600"/><radialGradient id="l" cx="61.568" cy="108.51" r="9.3801" gradientTransform="matrix(.7326 -.1212 .0816 .6179 -22.652 43.89)" gradientUnits="userSpaceOnUse"><stop stop-color="#543930" offset="0"/><stop stop-color="#543930" offset=".9916"/></radialGradient><path d="m26.95 100.91c0.22-0.06 5.9-1.97 7.22 0.96 1.2 2.66-3.44 3.95-3.44 3.95s4.53-0.9 5.21 2.39c0.69 3.28-6.45 4.78-6.45 4.78" fill="none" stroke="url(#l)" stroke-linecap="round" stroke-linejoin="round" stroke-miterlimit="10" stroke-width="3"/><radialGradient id="k" cx="15.544" cy="30.096" r="45.167" gradientTransform="matrix(1.0193 -.0197 0 .9956 .9905 -.6374)" gradientUnits="userSpaceOnUse"><stop stop-color="#6D4C41" offset="0"/><stop stop-color="#543930" offset="1"/></radialGradient><path d="m17.73 9.1c-22.83 0.52-25.21 11.12-25.82 11.01-6.57-1.2-15.61 3.94-20.56 12.62-12.79 22.43 2.86 39.63 3.19 41.58 1.71 10.05 2.55 11.78 2.55 11.78s0.51-13.87 8.25-23.04c4.94-5.86 9.68-18.63 9.68-18.63s13.89 4.7 24.46 10.58c8.92 4.96 14.5 11.55 14.5 11.55s1.67-5.17 0.36-10.51c-2.82-11.48-13.91-16.47-13.91-16.47s5.54 1.44 13.07 7.96c16.61 14.39 21.04 41.04 21.04 41.04 5.7-5.29 15.18-18.04 14.02-36.7-0.57-9.32-9.47-43.71-50.83-42.77z" fill="url(#k)"/><path d="m-5.17 20.86c3.37-5.7 11.08-8.84 22.91-9.07h0.24c16.64-0.32 29.5 5.31 38.2 16.59 6.91 8.96 9.25 19.59 9.6 24.17 1.08 14.28-6.45 26.63-12.01 32.57 0.2 1.11 0.72 2.81 0.78 3.55 6.41-5.49 15.1-19.45 14.02-36.83-0.58-9.29-9.45-43.64-50.59-42.84h-0.25c-22.7 0.43-25.18 11.07-25.81 11.08l-0.01 0.04c-0.8-0.15-1.68-0.19-2.6-0.17-6.6 0.13-12.65 4.32-17.32 11.76-13.87 22.06 2.22 40.7 2.55 42.65 1.71 10.05 2.55 11.78 2.55 11.78s0.12-3.15 1.07-7.43c-0.36-2.09-0.69-3.81-1.13-6.14-0.27-0.45-14.68-19.82-2.81-38.96 4.08-6.57 9.47-10.73 15.09-10.84 0.73-0.01 1.41 0.03 2.02 0.15 0.19 0.03 0.39 0.05 0.59 0.05 1.74-0.04 2.53-1.46 2.91-2.11z" fill="#3F2720"/></g><rect transform="matrix(-1 4.4897e-11 -4.4897e-11 -1 32.36 135.12)" x="-38.29" y="13.09" width="108.94" height="108.94" clip-path="url(#c)" fill="none"/></g><linearGradient id="j" x1="64.22" x2="64.22" y1="-4.3801" y2="54.603" gradientUnits="userSpaceOnUse"><stop stop-color="#F48FB1" offset="0"/><stop stop-color="#EC407A" offset="1"/></linearGradient><path d="m64.22 70.89c-0.66 0-1.28-0.26-1.75-0.73-1.16-1.17-2.64-2.66-4.33-4.36-8.42-8.45-22.51-22.58-26.83-29-2.03-3.03-3.26-5.96-3.76-8.95-0.55-3.29-0.52-7.96 0.77-10.97 3.05-7.13 9.21-11.38 16.47-11.38l0.94 0.02c2.79 0.05 5.6 0.65 8.37 1.81 1.88 0.79 3.4 1.87 5 3.01 0.81 0.58 1.66 1.18 2.57 1.76 0.74 0.47 1.62 0.72 2.55 0.72s1.8-0.25 2.54-0.72c0.91-0.58 1.74-1.17 2.55-1.75 1.61-1.15 3.14-2.24 5.03-3.03 2.76-1.15 5.57-1.76 8.35-1.8l0.96-0.02c7.26 0 13.42 4.25 16.47 11.38 1.29 3.01 1.32 7.68 0.77 10.97-0.51 3.02-1.75 5.95-3.76 8.94-4.31 6.43-18.43 20.58-26.86 29.03-1.68 1.69-3.15 3.16-4.3 4.33-0.47 0.48-1.09 0.74-1.75 0.74z" fill="url(#j)"/><path d="m44.79 7h0.06c0.15 0 0.3 0.01 0.45 0.01 0.13 0 0.26 0 0.42 0.01 2.58 0.04 5.21 0.61 7.79 1.69 1.73 0.73 3.11 1.71 4.71 2.85 0.83 0.59 1.69 1.2 2.64 1.81 0.98 0.62 2.14 0.95 3.35 0.95s2.37-0.33 3.35-0.95c0.94-0.6 1.79-1.2 2.61-1.79 1.61-1.15 3-2.14 4.73-2.87 2.59-1.08 5.21-1.65 7.83-1.69 0.13 0 0.26-0.01 0.39-0.01 0.15 0 0.3 0 0.45-0.01h0.06c6.74 0 12.24 3.82 15.09 10.47 1.16 2.72 1.16 7.16 0.67 10.12-0.48 2.81-1.63 5.55-3.54 8.37-4.23 6.3-18.27 20.38-26.67 28.8-1.69 1.69-3.16 3.17-4.31 4.34-0.23 0.24-0.5 0.29-0.68 0.29s-0.44-0.05-0.68-0.29c-1.16-1.17-2.64-2.66-4.33-4.36-8.39-8.41-22.42-22.48-26.65-28.78-1.91-2.86-3.06-5.59-3.53-8.36-0.5-2.98-0.5-7.42 0.67-10.14 2.88-6.64 8.38-10.46 15.12-10.46m38.86-3h-0.11c-0.3 0.01-0.58 0.01-0.88 0.02-3.08 0.05-6.07 0.74-8.9 1.92-3.03 1.27-5.11 3.18-7.8 4.89-0.51 0.32-1.12 0.48-1.74 0.48s-1.24-0.16-1.74-0.48c-2.7-1.71-4.77-3.62-7.8-4.89-2.83-1.18-5.82-1.87-8.9-1.92-0.29-0.01-0.59-0.01-0.88-0.02h-0.11c-7.83 0-14.51 4.48-17.85 12.29-1.42 3.32-1.45 8.32-0.87 11.81 0.58 3.47 2.04 6.61 3.99 9.54 5.26 7.82 24.32 26.44 31.33 33.57 0.77 0.79 1.79 1.18 2.81 1.18s2.04-0.39 2.81-1.18c7.01-7.13 26.08-25.75 31.33-33.57 1.97-2.92 3.41-6.06 4-9.54 0.58-3.49 0.56-8.49-0.87-11.81-3.32-7.81-10-12.29-17.82-12.29z" fill="#D92E67"/></svg>
