<?xml version="1.0" encoding="utf-8"?>
<!-- Generator: Adobe Illustrator 19.2.1, SVG Export Plug-In . SVG Version: 6.00 Build 0)  -->
<svg version="1.1" id="レイヤー_1" xmlns="http://www.w3.org/2000/svg" xmlns:xlink="http://www.w3.org/1999/xlink" x="0px"
	 y="0px" viewBox="0 0 128 128" style="enable-background:new 0 0 128 128;" xml:space="preserve">
<path style="fill:none;stroke:#2F2F2F;stroke-width:5;stroke-linecap:round;stroke-linejoin:round;stroke-miterlimit:10;" d="
	M17.67,3v2.46c0,8.82,7.15,15.97,15.97,15.97h14.74c8.82,0,15.97,7.15,15.97,15.97v12.42"/>
<path style="fill:#FCC21B;" d="M42.72,128h42.03c7.73,0,14-6.27,14-14V69.98H28.72V114C28.72,121.73,34.99,128,42.72,128z"/>
<circle style="fill:#FCC21B;" cx="63.74" cy="69.98" r="35.02"/>
<g>
	<path style="fill:none;stroke:#FFFFFF;stroke-width:3;stroke-miterlimit:10;" d="M63.74,46.69c12.86,0,23.29,10.43,23.29,23.29
		S76.61,93.28,63.74,93.28S40.45,82.85,40.45,69.98S50.88,46.69,63.74,46.69z"/>
	<circle style="fill:none;stroke:#FFFFFF;stroke-width:4;stroke-miterlimit:10;" cx="63.74" cy="69.98" r="23.29"/>
</g>
<circle style="fill:#2F2F2F;" cx="63.74" cy="69.98" r="21.34"/>
<circle style="fill:#40C0E7;" cx="63.74" cy="69.98" r="16.55"/>
<path style="fill:none;stroke:#FFFFFF;stroke-width:2;stroke-linecap:round;stroke-miterlimit:10;" d="M53.44,72.28
	c0,0-0.69-4.46,3.03-8.52"/>
<line style="fill:none;stroke:#FFFFFF;stroke-width:2;stroke-linecap:round;stroke-miterlimit:10;" x1="60.3" y1="59.91" x2="61.22" y2="59.41"/>
<path style="fill:#ED6C30;" d="M57.41,41.35l-1.18-5.45c-8.71,1.9-16.2,7.05-21.16,14.11l4.54,3.24
	C43.77,47.29,50.08,42.96,57.41,41.35z"/>
<path style="fill:#ED6C30;" d="M71.25,35.9l-1.18,5.45c7.33,1.61,13.64,5.95,17.8,11.9l4.54-3.24C87.46,42.95,79.96,37.8,71.25,35.9
	z"/>
</svg>
