<?xml version="1.0" encoding="utf-8"?>
<!-- Generator: Adobe Illustrator 19.2.1, SVG Export Plug-In . SVG Version: 6.00 Build 0)  -->
<svg version="1.1" id="图层_1" xmlns="http://www.w3.org/2000/svg" xmlns:xlink="http://www.w3.org/1999/xlink" x="0px" y="0px"
	 viewBox="0 0 128 128" style="enable-background:new 0 0 128 128;" xml:space="preserve">
<g>
	<path style="fill:#A1887F;" d="M103.31,110.19H24.78c-6.64,0-12.08-5.44-12.08-12.08l-2.42-49.49c0-6.64,5.44-12.08,12.08-12.08
		h83.36c6.64,0,12.08,5.44,12.08,12.08l-2.42,49.49C115.39,104.75,109.95,110.19,103.31,110.19z"/>
	<path id="XMLID_11_" style="fill:#BFA055;" d="M30.37,105.01c-6.18-21.2-6.18-64.66-6.18-64.66l79.71-0.32c0,0,0,39.37-4.63,64.71
		L30.37,105.01z"/>
	<path style="fill:#231815;" d="M115.43,109.33c-4.72-18.14-31.19-21.45-51.31-21.66v0c-0.03,0-0.05,0-0.08,0c-0.03,0-0.05,0-0.08,0
		v0c-20.12,0.22-47.64,3.52-52.37,21.66l-2.83,11.28h55.2h0.16h54.14L115.43,109.33z"/>
	<g id="XMLID_9_">
		<ellipse id="XMLID_10_" style="fill:#BFA055;" cx="64.04" cy="41.03" rx="39.86" ry="37.48"/>
	</g>
	<path id="XMLID_8_" style="fill:#C48E6A;" d="M63.99,82.91h-8.62v9.1c0,4.12,3.51,7.45,7.84,7.45h1.57c4.33,0,7.84-3.34,7.84-7.45
		v-9.1H63.99z"/>
	<path id="XMLID_7_" style="fill:#E0BB95;" d="M63.94,10.15c-23.1,0-29.15,17.91-29.15,43.07c0,25.16,17.92,32.84,29.15,32.84
		c11.23,0,29.15-7.68,29.15-32.84C93.09,28.06,87.05,10.15,63.94,10.15z"/>
	<path id="XMLID_6_" style="fill:#5D4037;" d="M72.8,71.39c-1.23,0-8.76,0-8.76,0s-7.53,0-8.76,0c-1,0-1.44,0.67-0.77,1.69
		c0.93,1.42,4.38,4.14,9.53,4.14c5.15,0,8.6-2.72,9.53-4.14C74.23,72.07,73.8,71.39,72.8,71.39z"/>
	<g id="XMLID_3_">
		<path id="XMLID_5_" style="fill:#5D4037;" d="M54.08,54.9c0,2.7-1.8,4.88-4.04,4.88c-2.23,0-4.05-2.19-4.05-4.88
			c0-2.7,1.82-4.89,4.05-4.89C52.27,50.01,54.08,52.19,54.08,54.9"/>
		<path id="XMLID_4_" style="fill:#5D4037;" d="M74,54.9c0,2.7,1.81,4.88,4.05,4.88c2.23,0,4.05-2.19,4.05-4.88
			c0-2.7-1.82-4.89-4.05-4.89C75.81,50.01,74,52.19,74,54.9"/>
	</g>
	<path id="XMLID_2_" style="fill:#C48E6A;" d="M68.22,63.95c-1.49,0.42-3.04,0.63-4.23,0.63c-1.19,0-2.74-0.21-4.23-0.63
		c-0.64-0.18-0.89,0.42-0.66,0.82c0.47,0.83,2.38,2.51,4.89,2.51c2.51,0,4.42-1.68,4.89-2.51C69.11,64.37,68.86,63.77,68.22,63.95z"
		/>
	<path id="XMLID_1_" style="fill:#BFA055;" d="M72.65,29.94c-3.07,2.95-18.31,16.68-39.3,20.26V22.05c0,0,9.06-17.98,30.82-17.98
		S94.98,22.5,94.98,22.5v27.7c0,0-14.25-5.47-21.41-20.09C73.4,29.76,72.94,29.67,72.65,29.94z"/>
	<rect x="-4.11" y="119.67" style="fill:#6D4C41;" width="136.01" height="12.33"/>
	<polygon style="fill:#D8D8D8;" points="72.07,115.57 55.73,115.94 55.73,97.43 72.07,97.43 	"/>
	<g>
		<polygon style="fill:#FFFFFF;" points="51.73,88.22 54.85,110.12 63.98,97.44 55.33,87.96 		"/>
		<polygon style="fill:#FFFFFF;" points="76.36,88.22 73.24,110.12 64.1,97.44 72.76,87.96 		"/>
	</g>
	<path style="fill:#231815;" d="M47.15,89.12c0.47-0.32,5.44-1,5.44-1l11.39,31.54l-21.43-0.08L47.15,89.12z"/>
	<path style="fill:#231815;" d="M81.46,89.12c-0.47-0.32-5.44-1-5.44-1l-12.05,31.54l22.32-0.08L81.46,89.12z"/>
</g>
</svg>
