<svg enable-background="new 0 0 128 128" viewBox="0 0 128 128" xmlns="http://www.w3.org/2000/svg" xmlns:xlink="http://www.w3.org/1999/xlink"><path d="m41.42 111.18" fill="#B42002"/><path d="m48.15 104.34" fill="#B42002"/><radialGradient id="n" cx="64" cy="119.99" r="23.787" gradientTransform="matrix(1 0 0 .305 0 83.4)" gradientUnits="userSpaceOnUse"><stop stop-color="#212121" stop-opacity=".8" offset=".1396"/><stop stop-color="#616161" stop-opacity=".3" offset=".5461"/><stop stop-color="#616161" stop-opacity="0" offset=".8722"/></radialGradient><path d="m79.3 120c0 2.21-6.85 4-15.3 4s-15.3-1.79-15.3-4 6.85-4.01 15.3-4.01 15.3 1.79 15.3 4.01z" fill="url(#n)"/><linearGradient id="f" x1="60.545" x2="60.545" y1="100.43" y2="111.79" gradientUnits="userSpaceOnUse"><stop stop-color="#212121" offset="0"/><stop stop-color="#616161" offset=".7876"/></linearGradient><path d="m63.88 108.48c-0.01 1.54-0.07 3.64-2.34 3.64-2.66 0-4.01-5.86-4.19-7.31-0.18-1.44-0.18-4.14-0.18-4.14l6.77-0.01-0.06 7.82z" fill="url(#f)"/><linearGradient id="e" x1="60.638" x2="60.638" y1="100.67" y2="107.52" gradientUnits="userSpaceOnUse"><stop stop-color="#BDBDBD" offset=".1222"/><stop stop-color="#eee" offset=".7213"/></linearGradient><path d="m62.98 105.25c-0.01 1.09-0.79 2.56-1.65 2.56-1.87 0-2.83-4.13-2.95-5.14-0.13-1.02-0.13-2.2-0.13-2.2l4.77-0.01-0.04 4.79z" fill="url(#e)"/><linearGradient id="d" x1="67.192" x2="67.192" y1="100.43" y2="111.79" gradientUnits="userSpaceOnUse"><stop stop-color="#212121" offset="0"/><stop stop-color="#616161" offset=".7876"/></linearGradient><path d="m63.86 108.48c0.01 1.54 0.19 3.64 2.34 3.64 2.66 0 4.01-5.86 4.19-7.31s0.18-4.14 0.18-4.14l-6.77-0.01 0.06 7.82z" fill="url(#d)"/><linearGradient id="c" x1="67.099" x2="67.099" y1="100.67" y2="107.52" gradientUnits="userSpaceOnUse"><stop stop-color="#BDBDBD" offset=".1222"/><stop stop-color="#eee" offset=".7213"/></linearGradient><path d="m64.75 105.25c0.01 1.09 0.79 2.56 1.65 2.56 1.87 0 2.83-4.13 2.95-5.14 0.13-1.02 0.13-2.2 0.13-2.2l-4.77-0.01 0.04 4.79z" fill="url(#c)"/><g opacity=".2"><path d="m69.37 102c-0.02 0-0.06 1.92-0.16 2.72-0.28 2.27-1.71 6.42-3.2 6.42-0.71 0-1.35-0.15-1.4-2.18-0.01-0.54-0.46-0.96-1-0.96s-0.99 0.42-1 0.96c-0.03 1.9-0.32 2.17-1.27 2.17-1.49 0-2.89-3.99-3.16-6.18-0.1-0.82-0.16-1.96-0.18-2.96h11m1.39-0.99zm0 0h-13.42s0.04 2.63 0.22 4.07 1.5 7.06 4.16 7.06c2.13 0 2.25-1.67 2.27-3.17 0.04 1.5 0.39 3.17 2.4 3.17 2.66 0 4.01-5.84 4.19-7.28 0.18-1.45 0.18-3.85 0.18-3.85z" fill="#424242"/></g><linearGradient id="b" x1="72.803" x2="79.189" y1="69.716" y2="69.716" gradientUnits="userSpaceOnUse"><stop stop-color="#FFB300" offset="0"/><stop stop-color="#FFCA28" offset=".4007"/></linearGradient><path d="m74.13 74.6c-0.27 0-0.48-0.09-0.66-0.28-0.57-0.59-0.71-1.95-0.66-3.02 0-0.1 0.02-0.2 0.04-0.3l0.75-4.26c0.17-0.98 1.99-1.9 3.28-1.9 0.72 0.01 1.36 0.32 1.79 0.85s0.6 1.21 0.48 1.88l-0.52 2.78c-0.24 1.3-0.8 2.42-1.62 3.24-0.56 0.56-2.23 1.01-2.86 1.03h-0.02z" fill="url(#b)"/><path d="m76.88 65.33h0.03c0.53 0.01 1.03 0.25 1.37 0.66s0.47 0.95 0.38 1.47l-0.52 2.78c-0.22 1.2-0.73 2.23-1.48 2.97-0.42 0.42-1.91 0.87-2.53 0.88-0.13 0-0.21-0.03-0.3-0.13-0.37-0.39-0.58-1.45-0.52-2.65 0-0.08 0.02-0.16 0.03-0.24l0.75-4.26c0.12-0.66 1.66-1.48 2.79-1.48m0-1c-1.38 0-3.53 0.97-3.77 2.32l-0.75 4.26c-0.02 0.12-0.04 0.24-0.04 0.37-0.08 1.62 0.26 3.82 1.82 3.82h0.04c0.72-0.02 2.52-0.49 3.2-1.18 0.94-0.94 1.51-2.19 1.76-3.5l0.52-2.78c0.32-1.7-0.97-3.29-2.71-3.32-0.03 0.01-0.05 0.01-0.07 0.01z" fill="#EDA600"/><linearGradient id="a" x1="48.622" x2="54.995" y1="69.672" y2="69.672" gradientUnits="userSpaceOnUse"><stop stop-color="#FFB300" offset="0"/><stop stop-color="#FFCA28" offset=".4007"/></linearGradient><path d="m53.64 74.5c-0.8-0.02-2.53-0.64-3.14-1.38-0.68-0.82-1.14-1.86-1.37-3.09l-0.46-2.45c-0.12-0.67 0.05-1.35 0.47-1.88 0.43-0.53 1.06-0.84 1.74-0.85 3.7 0 4.07 5.92 4.07 5.98 0.03 0.17 0.04 0.27 0.04 0.38 0.05 1.06-0.09 2.42-0.66 3.01-0.18 0.19-0.39 0.28-0.66 0.28h-0.03z" fill="url(#a)"/><path d="m50.87 65.35c3.23 0.01 3.57 5.45 3.57 5.5 0 0.04 0.01 0.08 0.01 0.12 0.01 0.08 0.03 0.16 0.03 0.25 0.06 1.19-0.15 2.26-0.52 2.65-0.09 0.09-0.17 0.13-0.31 0.13-0.68-0.01-2.27-0.6-2.77-1.2-0.62-0.74-1.05-1.73-1.27-2.86l-0.46-2.45c-0.1-0.52 0.04-1.06 0.37-1.47s0.82-0.66 1.35-0.67m-0.01-1c-1.73 0.04-3.01 1.62-2.69 3.32l0.46 2.45c0.23 1.21 0.7 2.37 1.48 3.32 0.75 0.9 2.65 1.54 3.52 1.56h0.04c1.56 0 1.9-2.2 1.82-3.82-0.01-0.13-0.02-0.25-0.04-0.37-0.01-0.01-0.35-6.46-4.59-6.46z" fill="#EDA600"/><linearGradient id="v" x1="63.93" x2="63.93" y1="64.635" y2="98.639" gradientUnits="userSpaceOnUse"><stop stop-color="#212121" offset="0"/><stop stop-color="#616161" offset=".8778"/></linearGradient><path d="m69.61 101.96h-11.37c-1.04 0-1.91-0.79-2.01-1.83l-3.06-32.41h21.52l-3.07 32.41c-0.1 1.04-0.97 1.83-2.01 1.83z" fill="url(#v)"/><linearGradient id="u" x1="63.859" x2="63.859" y1="100.95" y2="71.865" gradientUnits="userSpaceOnUse"><stop stop-color="#616161" stop-opacity=".2" offset="0"/><stop stop-color="#212121" offset=".7537"/></linearGradient><path d="m63.11 72.07c-0.45 0.27-0.72 0.77-0.71 1.29l0.95 27.58h1.19l0.78-27.59c0.01-0.52-0.26-1.02-0.71-1.29h-0.01c-0.46-0.26-1.03-0.26-1.49 0.01z" fill="url(#u)" opacity=".5"/><path d="m73.36 68.86h5.56c1.05 0 1.92-0.8 2.01-1.84l0.26-2.88h-7.83v4.72z" fill="#fff"/><g opacity=".2"><path d="m80.1 65.14-0.16 1.79c-0.05 0.53-0.48 0.93-1.02 0.93h-4.56v-2.72h5.74m1.09-1zm0 0h-7.83v4.72h5.56c1.05 0 1.92-0.8 2.01-1.84l0.26-2.88z" fill="#424242"/></g><path d="M54.83,68.86h-5.56c-1.05,0-1.92-0.8-2.01-1.84L47,64.14h7.83V68.86z" fill="#fff"/><g opacity=".2"><path d="m53.83 65.14v2.72h-4.56c-0.53 0-0.97-0.4-1.02-0.93l-0.16-1.79h5.74m1-1h-7.83l0.26 2.88c0.09 1.04 0.97 1.84 2.01 1.84h5.56v-4.72z" fill="#424242"/></g><linearGradient id="t" x1="64" x2="64" y1="39.26" y2="77.495" gradientUnits="userSpaceOnUse"><stop stop-color="#5F5F5F" offset=".3285"/><stop stop-color="#212121" offset="1"/></linearGradient><path d="m80.63 38.16-6.2-1.57c-7.09-1.79-14.51-1.77-21.59 0.07l-5.47 1.42c-2.15 0.51-2.58 3.59-2.58 5.46l2.02 21.96h6.12l0.7 7.3 10.29 0.12 10.17-0.08 0.81-7.34h6.27l2.02-21.92c0.02-1.87-0.42-4.92-2.56-5.42z" fill="url(#t)"/><rect x="61.87" y="42.12" width="3.47" height="11.52" fill="#fff"/><path d="m63.56 43.14c-1.75 0-3.18-1.35-3.18-3.01v-3.78h7.09v3.78c0 1.66-1.42 3.01-3.17 3.01h-0.74z" fill="#E49800"/><path d="m66.97 36.85v3.28c0 1.38-1.2 2.51-2.68 2.51h-0.74c-1.48 0-2.68-1.12-2.68-2.51v-3.28h6.1m1-1h-8.08v4.28c0 1.94 1.65 3.51 3.68 3.51h0.74c2.03 0 3.68-1.57 3.68-3.51v-4.28h-0.02z" fill="#C78500"/><polygon points="68.56 50.48 63.98 56.55 59.86 50.48 59.86 41.48 68.56 41.48" fill="#E5E5E5"/><polygon points="64.05 57.11 61.7 53.21 62.95 43.8 65.14 43.8 66.39 53.2" fill="#D32F2F"/><polygon points="65.14 43.88 62.95 43.88 61.99 41.67 62.4 40.47 65.7 40.47 66.11 41.67" fill="#D32F2F"/><path d="m59.7 34.81 4.19 5.59-4.56 4.05c-0.32 0.37-0.92 0.29-1.14-0.15l-1.94-7.03c-0.15-0.38-0.02-0.82 0.31-1.06l3.14-1.4z" fill="#fff"/><path d="m68.2 34.81-4.19 5.59 4.56 4.05c0.32 0.37 0.92 0.29 1.14-0.15l1.94-7.03c0.15-0.38 0.02-0.82-0.31-1.06l-3.14-1.4z" fill="#fff"/><polygon points="74.34 50.92 69.19 50.92 69.19 50.29 71.76 48.27 74.34 50.29" fill="#D32F2F"/><linearGradient id="s" x1="57.621" x2="57.621" y1="29.104" y2="55.47" gradientUnits="userSpaceOnUse"><stop stop-color="#616161" offset=".1709"/><stop stop-color="#212121" offset=".8364"/></linearGradient><polygon points="52.69 36.85 54.69 40.5 51.3 40.94 63.95 59.09 63.94 55.09 57.73 35.63" fill="url(#s)"/><linearGradient id="r" x1="70.318" x2="70.318" y1="29.097" y2="55.492" gradientUnits="userSpaceOnUse"><stop stop-color="#616161" offset=".1709"/><stop stop-color="#212121" offset=".8364"/></linearGradient><polygon points="75.31 36.85 73.31 40.5 76.7 40.94 63.93 59.12 63.94 55.12 70.27 35.63" fill="url(#r)"/><linearGradient id="q" x1="52.717" x2="52.717" y1="64.519" y2="46.606" gradientUnits="userSpaceOnUse"><stop stop-color="#616161" stop-opacity=".2" offset="0"/><stop stop-color="#212121" offset=".7537"/></linearGradient><path d="m51.61 47.57 1.01 16.94h1.2l-0.31-17.14c-0.02-0.33-0.36-0.83-1.06-0.76s-0.88 0.64-0.84 0.96z" fill="url(#q)" opacity=".5"/><linearGradient id="p" x1="75.261" x2="75.261" y1="64.507" y2="46.606" gradientUnits="userSpaceOnUse"><stop stop-color="#616161" stop-opacity=".2" offset="0"/><stop stop-color="#212121" offset=".7537"/></linearGradient><path d="m76.33 47.57-1.04 16.89-1.1 0.04 0.24-17.13c0.02-0.33 0.36-0.83 1.06-0.76s0.89 0.64 0.84 0.96z" fill="url(#p)" opacity=".5"/><circle cx="64.18" cy="63.24" r="2.02" fill="#212121"/><g opacity=".2"><path d="m63.49 36.28c3.68 0 7.36 0.46 10.94 1.36l5.78 1.49c1.68 0.4 1.8 3.39 1.81 4.15l-1.94 20.72h-5.36c-0.52 0-0.95 0.64-1 1.15l-3.29 34.78c-0.02 0.22-0.14 1.07-0.83 1.07h-11.55c-0.53 0-0.97-0.42-1.02-0.94l-3.29-34.9c-0.05-0.51-0.48-1.16-1-1.16h-5.21l-1.93-20.76c0.01-1.86 0.48-4 1.83-4.32l5.69-1.41c3.31-0.86 6.8-1.23 10.37-1.23m0-1c-3.59 0-7.17 0.43-10.61 1.32l-5.69 1.47c-2.15 0.51-2.58 3.35-2.58 5.21l2.02 21.72h6.12l3.29 34.91c0.1 1.04 0.97 2.09 2.01 2.09h11.55c1.04 0 1.73-1.06 1.83-2.09l3.29-34.91h6.27l2.02-21.67c0-1.86-0.43-4.79-2.58-5.29l-5.76-1.42c-3.63-0.93-7.41-1.34-11.18-1.34z" fill="#424242"/></g><defs><rect id="o" x="47.75" y="4.85" width="32.34" height="32.34"/></defs><clipPath id="m"><use xlink:href="#o"/></clipPath><g clip-path="url(#m)"><path d="m54.51 28.88c-1.82 0-3.29-1.59-3.29-3.54s1.48-3.54 3.29-3.54h19.36c1.82 0 3.29 1.59 3.29 3.54s-1.48 3.54-3.29 3.54h-19.36z" fill="#E59600"/><path d="m73.87 22.3c1.54 0 2.8 1.36 2.8 3.04s-1.25 3.04-2.8 3.04h-19.36c-1.54 0-2.8-1.36-2.8-3.04s1.25-3.04 2.8-3.04h19.36m0-1h-19.36c-2.09 0-3.8 1.82-3.8 4.04s1.71 4.04 3.8 4.04h19.36c2.09 0 3.8-1.82 3.8-4.04s-1.71-4.04-3.8-4.04z" fill="#CC8600"/><linearGradient id="l" x1="64.19" x2="64.19" y1="7.3868" y2="36.699" gradientUnits="userSpaceOnUse"><stop stop-color="#FFB300" offset="0"/><stop stop-color="#FFCA28" offset="1"/></linearGradient><path d="m64.19 36.68c-5.48 0-11.38-4.26-11.38-13.6 0-7.49 4.35-15.58 11.38-15.58s11.38 8.09 11.38 15.58c-0.01 9.34-5.9 13.6-11.38 13.6z" fill="url(#l)"/><path d="m64.19 8c2.72 0 5.44 1.49 7.46 4.1 2.2 2.84 3.42 6.74 3.42 10.99 0 4.12-1.18 7.54-3.42 9.9-1.95 2.06-4.6 3.2-7.46 3.2s-5.51-1.14-7.46-3.2c-2.24-2.36-3.42-5.79-3.42-9.9 0-4.24 1.21-8.15 3.42-10.99 2.02-2.61 4.74-4.1 7.46-4.1m0-1c-6.17 0-11.88 6.59-11.88 16.08 0 9.44 5.88 14.1 11.88 14.1s11.87-4.67 11.87-14.1c0-9.49-5.71-16.08-11.87-16.08z" fill="#EDA600"/><g fill="#6D4C41"><path d="m55.68 21.4s0.05-0.07 0.13-0.18c0.02-0.03 0.04-0.06 0.08-0.09 0.04-0.04 0.08-0.08 0.13-0.12s0.1-0.09 0.15-0.13 0.11-0.08 0.17-0.12 0.12-0.08 0.19-0.13c0.07-0.04 0.14-0.07 0.21-0.11s0.15-0.07 0.23-0.11c0.08-0.03 0.16-0.06 0.25-0.09 0.17-0.05 0.36-0.1 0.55-0.13 0.19-0.04 0.38-0.04 0.58-0.05 0.19 0.01 0.39 0.01 0.58 0.05 0.19 0.02 0.37 0.08 0.54 0.13 0.09 0.03 0.17 0.06 0.25 0.09s0.16 0.06 0.23 0.11c0.07 0.04 0.14 0.08 0.21 0.11 0.07 0.04 0.13 0.08 0.19 0.12s0.12 0.08 0.17 0.12 0.1 0.09 0.14 0.12c0.04 0.04 0.08 0.07 0.12 0.11 0.03 0.04 0.06 0.07 0.09 0.1 0.11 0.13 0.16 0.2 0.16 0.2 0.18 0.25 0.12 0.6-0.13 0.78-0.15 0.11-0.34 0.13-0.51 0.08l-0.1-0.04s-0.07-0.02-0.17-0.07c-0.03-0.01-0.05-0.03-0.09-0.04-0.03-0.01-0.07-0.03-0.11-0.04-0.07-0.03-0.16-0.06-0.25-0.09-0.05-0.01-0.09-0.03-0.14-0.05-0.05-0.01-0.1-0.03-0.15-0.04-0.03-0.01-0.05-0.01-0.08-0.02s-0.05-0.01-0.08-0.02c-0.06-0.01-0.11-0.02-0.17-0.03-0.12-0.01-0.23-0.04-0.35-0.04-0.12-0.02-0.24-0.01-0.37-0.02-0.12 0.01-0.25 0-0.37 0.02-0.12 0.01-0.24 0.03-0.35 0.04-0.06 0.01-0.11 0.03-0.17 0.03-0.03 0.01-0.06 0.01-0.08 0.02-0.03 0.01-0.05 0.01-0.08 0.02-0.05 0.01-0.1 0.03-0.15 0.04s-0.09 0.03-0.14 0.05c-0.05 0.01-0.09 0.03-0.13 0.04s-0.07 0.02-0.1 0.04c-0.03 0.01-0.06 0.02-0.1 0.03-0.03 0.01-0.07 0.04-0.1 0.05-0.13 0.06-0.2 0.1-0.2 0.1-0.29 0.12-0.63-0.02-0.75-0.31-0.06-0.17-0.03-0.38 0.07-0.53z"/><path d="m72 22.25s-0.08-0.03-0.2-0.1c-0.03-0.01-0.07-0.04-0.1-0.05s-0.06-0.02-0.1-0.03c-0.03-0.01-0.07-0.02-0.1-0.04-0.04-0.01-0.08-0.03-0.13-0.04s-0.09-0.03-0.14-0.05c-0.05-0.01-0.1-0.03-0.15-0.04-0.03-0.01-0.05-0.01-0.08-0.02s-0.05-0.01-0.08-0.02c-0.06-0.01-0.11-0.02-0.17-0.03-0.12-0.01-0.23-0.04-0.35-0.04-0.12-0.02-0.24-0.01-0.37-0.02-0.12 0.01-0.25 0-0.37 0.02-0.12 0.01-0.24 0.03-0.35 0.04-0.06 0.01-0.11 0.03-0.17 0.03-0.03 0.01-0.06 0.01-0.08 0.02-0.03 0.01-0.05 0.01-0.08 0.02-0.05 0.01-0.1 0.03-0.15 0.04s-0.09 0.03-0.14 0.05c-0.09 0.03-0.18 0.06-0.25 0.09-0.04 0.01-0.07 0.03-0.11 0.04-0.03 0.01-0.06 0.03-0.09 0.04-0.11 0.05-0.17 0.07-0.17 0.07l-0.1 0.03c-0.29 0.1-0.61-0.05-0.71-0.34-0.06-0.18-0.03-0.37 0.07-0.51 0 0 0.05-0.08 0.16-0.2 0.03-0.03 0.06-0.07 0.09-0.1 0.04-0.04 0.08-0.07 0.12-0.11s0.09-0.08 0.14-0.12 0.11-0.08 0.17-0.12 0.12-0.08 0.19-0.12 0.14-0.07 0.21-0.11 0.15-0.07 0.23-0.11c0.08-0.03 0.16-0.06 0.25-0.09 0.17-0.05 0.36-0.1 0.54-0.13 0.19-0.04 0.38-0.04 0.58-0.05 0.19 0.01 0.39 0.01 0.58 0.05 0.19 0.02 0.37 0.08 0.55 0.13 0.09 0.03 0.17 0.06 0.25 0.09s0.16 0.06 0.23 0.11c0.07 0.04 0.14 0.08 0.21 0.11 0.07 0.04 0.13 0.08 0.19 0.13 0.06 0.04 0.12 0.08 0.17 0.12 0.05 0.05 0.1 0.09 0.15 0.13s0.09 0.08 0.13 0.12c0.03 0.04 0.05 0.06 0.08 0.09 0.09 0.11 0.13 0.18 0.13 0.18 0.18 0.26 0.11 0.62-0.15 0.8-0.15 0.1-0.36 0.11-0.53 0.04z"/></g><g fill="#404040"><ellipse cx="58.37" cy="24.61" rx="1.75" ry="1.81"/><ellipse cx="70.01" cy="24.61" rx="1.75" ry="1.81"/></g><radialGradient id="k" cx="64.189" cy="5.7706" r="10.767" gradientUnits="userSpaceOnUse"><stop stop-color="#6D4C41" offset="0"/><stop stop-color="#543930" offset="1"/></radialGradient><path d="m64.25 4.86c-16.23 0-12.81 18.64-12.81 18.64s1.71 3.01 1.71 2.95c-0.06-2.57 0.97-7.12 1.7-9.05 0.37-0.98 1.38-1.54 2.41-1.36 1.58 0.29 4.09 0.64 6.86 0.64 2.66 0 5.11-0.33 6.71-0.61 1.1-0.19 2.16 0.49 2.45 1.56l2.01 8.81 1.66-3.22c0 0.01 3.33-18.36-12.7-18.36z" fill="url(#k)"/><defs><path id="j" d="m64.32 4.86c-16.23 0-13.02 18.18-13.02 18.18s1.92 3.47 1.92 3.41c-0.01-0.55 0.34-2.82 0.34-2.82-0.63-1.19-0.95-2.52-0.95-3.86v-0.4l0.95-3.54 10.68-6.59 10.53 6.54 0.89 4.08 0.03 0.37c-0.15 1.19-0.51 2.27-0.96 3.38l0.63 2.85 1.71-3.38c-0.01-0.01 3.27-18.22-12.75-18.22z"/></defs><clipPath id="i"><use xlink:href="#j"/></clipPath><g clip-path="url(#i)"><path d="m64.32 5.86c4 0 7.04 1.21 9.04 3.61 3.87 4.62 2.87 12.32 2.7 13.45l-0.33 0.65-1.41-6.18c-0.37-1.38-1.62-2.34-3.05-2.34-0.18 0-0.36 0.02-0.54 0.05-1.55 0.27-3.94 0.59-6.54 0.59-2.68 0-5.11-0.34-6.68-0.62-0.2-0.05-0.39-0.07-0.58-0.07-1.31 0-2.49 0.82-2.95 2.04-0.5 1.33-1.13 3.81-1.49 6.13-0.09-0.16-0.18-0.31-0.26-0.47-0.17-1.18-1.05-8.61 2.78-13.16 2.06-2.44 5.19-3.68 9.31-3.68m0-1c-16.23 0-13.06 18.18-13.06 18.18s1.92 3.41 1.95 3.41c-0.06-2.57 0.97-7.12 1.7-9.05 0.32-0.85 1.13-1.39 2.02-1.39 0.13 0 0.26 0.01 0.39 0.04 1.58 0.29 4.09 0.64 6.86 0.64 2.66 0 5.11-0.33 6.71-0.61 0.12-0.02 0.25-0.03 0.37-0.03 0.96 0 1.82 0.64 2.08 1.6l2.01 8.81 1.66-3.22c0.01-0.01 3.33-18.38-12.69-18.38z" fill="#402821"/></g><path d="m67.04 31.15c-1.13 0.67-4.83 0.67-5.96 0-0.65-0.39-1.31 0.2-1.04 0.79 0.26 0.58 2.28 1.92 4.03 1.92s3.74-1.34 4-1.92c0.27-0.58-0.38-1.17-1.03-0.79z" fill="#795548"/><path d="m65.5 27.81c-0.04-0.02-0.08-0.02-0.11-0.03h-2.51c-0.04 0-0.08 0.01-0.11 0.03-0.23 0.09-0.35 0.33-0.24 0.58s0.61 0.95 1.61 0.95c1.01 0 1.5-0.7 1.61-0.95 0.1-0.25-0.02-0.48-0.25-0.58z" fill="#E59600"/></g><linearGradient id="h" x1="64.189" x2="64.189" y1="2.6618" y2="16.677" gradientUnits="userSpaceOnUse"><stop stop-color="#616161" offset="0"/><stop stop-color="#212121" offset="1"/></linearGradient><path d="m77.28 14.88s-1.24-7.34-2.68-8.99c-1.43-1.63-7.04-1.88-10.41-1.89-3.37 0.01-8.98 0.26-10.41 1.89-1.45 1.65-2.68 8.99-2.68 8.99s-5.5 1.63-3.11 3.03c1.17 0.68 6.28 1.11 16.2 1.12 9.92-0.01 15.03-0.43 16.2-1.12 2.39-1.4-3.11-3.03-3.11-3.03z" fill="url(#h)"/><g opacity=".2"><path d="m64.19 5c6.13 0.01 9.01 0.81 9.66 1.55 0.87 0.99 1.95 5.57 2.45 8.5 0.06 0.38 0.34 0.68 0.7 0.79 1.13 0.34 2.31 0.87 2.81 1.25-0.58 0.26-3.27 0.93-15.62 0.94-12.35-0.01-15.04-0.68-15.62-0.94 0.5-0.38 1.68-0.91 2.81-1.25 0.37-0.11 0.64-0.42 0.7-0.79 0.49-2.93 1.58-7.51 2.45-8.5 0.65-0.74 3.52-1.54 9.66-1.55m0-1c-3.37 0.01-8.99 0.26-10.41 1.89-1.45 1.65-2.68 8.99-2.68 8.99s-5.5 1.63-3.11 3.03c1.17 0.68 6.28 1.11 16.2 1.12 9.92-0.01 15.03-0.43 16.2-1.12 2.4-1.4-3.11-3.03-3.11-3.03s-1.24-7.34-2.68-8.99c-1.43-1.63-7.04-1.88-10.41-1.89z" fill="#eee"/></g><linearGradient id="g" x1="64" x2="64" y1="21.264" y2="30.286" gradientUnits="userSpaceOnUse"><stop stop-color="#616161" offset=".0049825"/><stop stop-color="#212121" offset=".4"/></linearGradient><path d="m75.73 22.12-0.21-0.06c-3.31-0.77-6.75-0.78-10.06-0.01l-0.3 0.07c-0.17 0.04-0.3 0.16-0.34 0.32-0.42-0.04-0.84-0.04-1.26 0-0.05-0.15-0.17-0.28-0.35-0.32l-0.31-0.07c-3.31-0.76-6.78-0.76-10.09 0.01l-0.34 0.06c-0.23 0.05-0.47 0.23-0.47 0.44v1.08c0 0.27 0.35 0.48 0.64 0.44l0.48 2.77c0.29 1.89 1.97 3.58 4.77 3.58 3.29 0 4.71-3.4 5.3-5.72 0.66-0.1 1.34-0.1 2 0 0.58 2.33 2 5.72 5.29 5.72 2.81 0 4.46-1.69 4.76-3.58l0.33-2.77c0.28 0.03 0.45-0.17 0.45-0.44v-1.08c-0.02-0.21-0.07-0.39-0.29-0.44z" fill="url(#g)"/><g opacity=".2"><path d="m70.41 22.48c1.58 0 3.59 0.18 4.59 0.52v0.18c0 0.14-0.39 0.41-0.44 0.74l-0.37 2.77c-0.19 1.26-1.27 2.73-3.74 2.73-2.54 0-3.73-2.7-4.3-4.96-0.1-0.39-0.42-0.69-0.82-0.75-0.38-0.06-0.77-0.09-1.16-0.09-0.38 0-0.75 0.03-1.13 0.08-0.4 0.06-0.73 0.35-0.83 0.75-0.57 2.27-1.78 4.97-4.31 4.97-2.47 0-3.57-1.47-3.77-2.73l-0.52-2.77c-0.05-0.33-0.63-0.6-0.63-0.74v-0.17c2-0.35 3.21-0.53 4.79-0.53 1.62 0 3.27 0.18 4.84 0.54l0.11 0.02c0.19 0.24 0.49 0.39 0.81 0.39h0.1c0.18-0.02 0.36-0.02 0.54-0.02s0.36 0.01 0.55 0.03h0.1c0.32 0 0.61-0.15 0.8-0.4l0.04-0.02c1.57-0.36 3.13-0.54 4.75-0.54m0.09-1c-1.69 0-3.37 0.19-5.02 0.57l-0.31 0.07c-0.17 0.04-0.3 0.16-0.35 0.32-0.21-0.02-0.43-0.03-0.64-0.03s-0.42 0.01-0.63 0.03c-0.05-0.15-0.18-0.28-0.35-0.32l-0.31-0.07c-1.65-0.38-3.33-0.57-5.02-0.57-1.7 0-3.41 0.19-5.07 0.58l-0.34 0.06c-0.22 0.05-0.46 0.23-0.46 0.44v1.08c0 0.25 0.31 0.45 0.57 0.45h0.1l0.46 2.77c0.29 1.89 1.96 3.58 4.76 3.58 3.29 0 4.71-3.4 5.29-5.72 0.33-0.05 0.66-0.07 0.99-0.07 0.34 0 0.68 0.03 1.01 0.08 0.58 2.33 2 5.72 5.29 5.72 2.81 0 4.46-1.69 4.75-3.58l0.42-2.77h-0.03c0.26 0 0.38-0.19 0.38-0.45v-1.08c0-0.21-0.05-0.38-0.27-0.43l-0.21-0.06c-1.65-0.41-3.31-0.6-5.01-0.6z" fill="#eee"/></g></svg>
