<svg xmlns="http://www.w3.org/2000/svg" viewBox="0 0 128 128"><path d="M59.15 26.26c.12 1.07.38 2.12.71 3.19.13-.59.24-1.18.32-1.77.17-1.19.16-2.32.06-3.38-.17-1.03-.46-1.96-.93-2.74l-.06-.09c-.31 1.49-.33 3.13-.1 4.79zM58.37 52.61c-3.66 10.13-7.21 19.92-10.57 29.2-.84 2.32-1.67 4.61-2.49 6.86-.2.56-.41 1.12-.61 1.68l-.3.85c-.15.37-.3.75-.48 1.11-.71 1.44-1.74 2.71-2.97 3.7-2.45 1.99-5.66 2.86-8.71 2.36-2.98-.45-5.71-2.21-7.35-4.61-1.66-2.4-2.31-5.33-1.83-8.14l.12-.58c.04-.18.09-.42.12-.51l.27-.87c.17-.48.35-.95.52-1.43.35-.95.69-1.88 1.03-2.8 1.36-3.69 2.64-7.18 3.85-10.47 2.42-6.57 4.52-12.3 6.26-17.02 3.47-9.43 5.45-14.83 5.45-14.83a2.447 2.447 0 0 1 3.13-1.45c1.25.46 1.9 1.84 1.46 3.09 0 0-1.89 5.42-5.21 14.91-1.66 4.75-3.67 10.51-5.98 17.12-1.15 3.3-2.38 6.82-3.68 10.53-.32.93-.65 1.86-.99 2.81-.17.47-.34.95-.51 1.43l-.18.6c-.05.15-.03.17-.05.24l-.03.18c-.2 1.25.11 2.74.93 3.88a5.25 5.25 0 0 0 3.54 2.17c1.39.22 2.96-.22 4.11-1.17.58-.47 1.05-1.07 1.38-1.75l.22-.52.3-.83c.2-.56.4-1.12.6-1.69.8-2.26 1.61-4.56 2.43-6.88 3.3-9.3 6.79-19.11 10.39-29.26 1.36-3.79 2.74-7.65 4.12-11.53-.38-1-.75-1.99-1.13-2.99l-.71-2-.38-1.03-.39-1.13c-.49-1.52-.88-3.09-1.09-4.73-.4-2.86-.3-6 .77-8.99h-.02l-.35-.05c-.24-.03-.45-.1-.71-.12-.53-.03-1.07-.09-1.58-.02-1.04.07-2.04.3-2.98.79-1.9.9-3.59 2.59-4.88 4.67-1.37 2.06-2.13 4.43-3.14 7.25-7.82 21.59-15.63 43.2-22.95 63.46l-.69 1.9-.25.82c-.08.3-.23.69-.25.91-.17.9-.37 2.03-.32 3.12.01 2.17.57 4.32 1.57 6.22 1.95 3.86 5.72 6.46 9.81 7.16 3.98.73 8.22-.58 11.17-3.06 1.49-1.24 2.69-2.78 3.51-4.46.18-.43.37-.86.55-1.29.19-.52.38-1.03.57-1.55.38-1.03.75-2.05 1.12-3.07 5.97-16.17 10.94-29.64 14.42-39.07 1.39-3.76 2.54-6.87 3.43-9.26-.57-1.5-1.13-3.01-1.7-4.52-.57 1.54-1.13 3.11-1.69 4.66z" fill="none"/><path d="M104.2 78.45c-.1-.39-.23-.77-.35-1.15l-.31-.84c-.21-.56-.41-1.12-.62-1.68-.83-2.25-1.67-4.53-2.53-6.85-3.43-9.26-7.04-19.02-10.78-29.12-1.88-5.05-3.79-10.18-5.73-15.37-.94-2.56-2.03-5.48-3.74-8.17-.85-1.36-1.92-2.67-3.19-3.88-1.33-1.17-2.91-2.2-4.73-2.81-1.81-.54-3.78-.76-5.55-.46-.45.06-.9.11-1.34.2l-1.25.36-.62.19-.31.1c-.11.03.05-.05-.29.09l-.12.05-.98.42c-.18.08-.3.12-.52.24l-.62.34c-.41.24-.85.46-1.21.72-.72.52-1.45 1.04-2.09 1.7-.04.04-.07.08-.11.11-1.25 1.23-2.32 2.71-3.02 4.33-.17.38-.32.76-.45 1.14.11.01.31.09.46.13 2.32.68 4.08 1.72 5.06 3.23.14-.68.34-1.33.62-1.93.41-.98 1.03-1.8 1.77-2.53.33-.36.76-.65 1.16-.96.02-.01.04-.03.06-.04.21-.16.42-.24.62-.37l.3-.19c.09-.06.3-.14.45-.21 2.25-1 4.31-1.34 6.05-.78.87.29 1.69.81 2.48 1.49.76.75 1.5 1.6 2.13 2.62 1.3 2.04 2.21 4.37 3.18 7.01 1.94 5.19 3.86 10.32 5.75 15.36C87.63 51.02 91.3 60.76 94.78 70a6503422325869349 6503422325869349 0 0 0 3.21 8.51l.31.83.17.54c.19.73.21 1.49.07 2.22-.26 1.47-1.18 2.82-2.38 3.55-1.26.78-2.74.99-4.11.63-1.36-.34-2.56-1.27-3.21-2.36l-.09-.16c-.04-.06-.06-.07-.12-.21l-.25-.57c-.18-.48-.36-.95-.54-1.42-.36-.94-.71-1.87-1.06-2.79-1.4-3.67-2.74-7.15-3.99-10.41-2.5-6.54-4.69-12.24-6.48-16.93-3.6-9.39-5.65-14.75-5.65-14.75a2.446 2.446 0 0 0-3.11-1.42 2.44 2.44 0 0 0-1.46 3.12s1.97 5.4 5.4 14.84c1.72 4.72 3.81 10.46 6.2 17.04 1.2 3.29 2.47 6.79 3.82 10.48.34.92.68 1.86 1.02 2.8.17.47.35.95.53 1.43l.35.84c.03.09.15.3.23.47l.28.52c1.45 2.46 3.84 4.28 6.65 5.04 2.79.78 6.02.36 8.59-1.22 2.65-1.59 4.54-4.33 5.13-7.42.33-1.56.3-3.19-.09-4.75z" fill="#3bb2de"/><g fill="#67939c"><path d="M28.71 86.41c.01-.07 0-.09.05-.24l.18-.6c.17-.48.34-.96.51-1.43.33-.95.66-1.89.99-2.81 1.29-3.71 2.52-7.22 3.68-10.53 2.31-6.61 4.32-12.37 5.98-17.12 3.31-9.49 5.21-14.91 5.21-14.91a2.437 2.437 0 0 0-4.59-1.64l-5.45 14.83c-1.74 4.72-3.84 10.45-6.26 17.02-1.21 3.29-2.49 6.78-3.85 10.47-.34.92-.68 1.86-1.03 2.8-.17.47-.34.95-.52 1.43l-.27.87c-.03.09-.08.33-.12.51l-.12.58c-.48 2.81.17 5.75 1.83 8.14 1.63 2.4 4.37 4.16 7.35 4.61 3.05.5 6.26-.37 8.71-2.36 1.22-.99 2.25-2.26 2.97-3.7.17-.36.32-.74.48-1.11l.31-.84c.2-.56.41-1.12.61-1.68.82-2.25 1.65-4.54 2.49-6.86 3.36-9.28 6.9-19.07 10.57-29.2.56-1.55 1.12-3.12 1.68-4.68-1.12-2.97-2.24-5.95-3.36-8.93-1.39 3.88-2.77 7.73-4.12 11.53-3.6 10.15-7.09 19.96-10.39 29.26-.82 2.33-1.63 4.62-2.43 6.88-.2.57-.4 1.13-.6 1.69l-.3.83-.22.52c-.33.68-.8 1.27-1.38 1.75-1.14.96-2.72 1.39-4.11 1.17a5.25 5.25 0 0 1-3.54-2.17c-.82-1.14-1.13-2.62-.93-3.88l-.01-.2z"/><path d="M66.49 45.66c-.23-.09-.47-.12-.71-.12-.85-.01-1.65.51-1.96 1.35 0 0-.72 1.96-2.06 5.56-.88 2.39-2.03 5.49-3.43 9.26-3.48 9.43-8.45 22.9-14.42 39.07-.37 1.01-.74 2.03-1.12 3.07-.19.51-.38 1.03-.57 1.55-.18.43-.37.86-.55 1.29-.83 1.69-2.02 3.22-3.51 4.46-2.95 2.49-7.19 3.8-11.17 3.06-4.09-.7-7.86-3.3-9.81-7.16-1-1.9-1.56-4.05-1.57-6.22-.05-1.08.15-2.21.32-3.12.02-.22.17-.61.25-.91l.25-.82.69-1.9c7.32-20.26 15.13-41.86 22.94-63.47 1.01-2.82 1.77-5.19 3.14-7.25 1.3-2.07 2.98-3.77 4.88-4.67.94-.48 1.95-.71 2.98-.79.51-.06 1.05 0 1.58.02.26.02.47.09.71.12l.35.05h.02c.11.01.31.09.46.13 2.32.68 4.08 1.72 5.06 3.23l.06.09c.47.79.77 1.71.93 2.74.1 1.06.11 2.19-.06 3.38-.08.59-.19 1.18-.32 1.77.43 1.38.98 2.8 1.57 4.37.62 1.68 1.25 3.37 1.87 5.05.2-.57.41-1.13.61-1.7.93-2.56 1.99-5.49 2.42-8.66.23-1.59.26-3.28.07-5.02-.26-1.75-.8-3.56-1.8-5.2-.52-.8-1.13-1.56-1.8-2.23-.66-.66-1.38-1.25-2.15-1.7-.38-.24-.76-.5-1.15-.71l-1.18-.53-.6-.26-.3-.13c-.11-.04 0-.01-.23-.09-.03-.01-.04-.01-.07-.02l-.11-.01-1.02-.31c-.19-.05-.3-.1-.55-.15l-.7-.14c-.46-.08-.95-.19-1.39-.23-.89-.07-1.78-.14-2.69-.05-1.8.12-3.63.57-5.25 1.37-3.29 1.57-5.73 4.19-7.47 6.95-.89 1.38-1.61 2.84-2.22 4.32l-.44 1.11-.38 1.03-.73 2.03c-7.7 21.65-15.39 43.3-22.6 63.59L10.89 94l-.12.38-.07.24-.14.48c-.09.35-.2.58-.28 1.02-.16.82-.38 1.69-.41 2.45l-.1 1.17c-.01.39 0 .78 0 1.17 0 1.56.26 3.1.61 4.59.43 1.47.95 2.92 1.7 4.25 1.43 2.68 3.47 5 5.92 6.7.62.42 1.22.84 1.89 1.17l.98.52 1.02.42.51.21.25.1c.01.01.34.11.25.08l.11.03.9.26c.52.18 1.41.33 2.14.47 5.8.97 11.56-.94 15.65-4.45 2.05-1.76 3.69-3.92 4.81-6.28.25-.6.5-1.2.74-1.79.19-.53.37-1.05.55-1.57.36-1.04.73-2.06 1.08-3.08 5.66-16.28 10.38-29.84 13.69-39.33.56-1.63 1.08-3.12 1.56-4.51 1.52-4.39 2.6-7.5 3.16-9.12.29-.85.45-1.3.45-1.3.36-1.05-.19-2.22-1.25-2.62z"/></g><path d="M116.93 89.54c-.2-.62-.4-1.24-.59-1.85-.2-.52-.39-1.04-.59-1.56-.39-1.03-.78-2.04-1.16-3.05-6.18-16.09-11.33-29.49-14.93-38.88-3.61-9.38-5.68-14.74-5.68-14.74a2.091 2.091 0 0 0-2.65-1.21 2.078 2.078 0 0 0-1.25 2.66s1.95 5.4 5.37 14.85l14.21 39.15c.37 1.01.74 2.03 1.12 3.06.19.51.38 1.03.56 1.55.14.45.27.89.41 1.34.46 1.82.53 3.77.2 5.68-.65 3.81-3.04 7.54-6.56 9.55-3.58 2.11-8.13 2.55-12.11.86-1.99-.8-3.8-2.08-5.21-3.74-.74-.79-1.32-1.78-1.77-2.58-.12-.18-.26-.58-.39-.86l-.33-.77-.7-1.89c-5.65-15.26-11.59-31.3-17.6-47.52l-1.5-4.05c-.82-2.22-1.65-4.44-2.47-6.67-.62-1.68-1.25-3.37-1.87-5.05-.59-1.58-1.14-3-1.57-4.37-.33-1.07-.59-2.12-.71-3.19-.24-1.66-.21-3.3.1-4.79-.98-1.5-2.74-2.55-5.06-3.23-.15-.04-.35-.11-.46-.13-1.07 2.99-1.17 6.12-.77 8.99.21 1.63.6 3.21 1.09 4.73l.39 1.13.37 1.04.75 2.02c.38 1 .75 1.99 1.13 2.99 1.12 2.98 2.24 5.95 3.36 8.93.57 1.51 1.14 3.02 1.7 4.52.79 2.09 1.57 4.18 2.36 6.26 5.2 13.81 10.32 27.42 15.24 40.46l.71 1.89.15.37.1.23.2.46c.15.33.22.57.44.96.41.72.8 1.54 1.27 2.14l.68.96c.24.31.5.6.76.89 1.01 1.19 2.2 2.2 3.43 3.11 1.28.85 2.61 1.62 4.04 2.15 2.82 1.12 5.88 1.58 8.84 1.3.74-.08 1.48-.15 2.2-.33l1.08-.24 1.05-.33.52-.17.26-.09c.02 0 .33-.13.25-.1l.11-.05.85-.38c.51-.19 1.29-.66 1.94-1.02 5.06-3.01 8.22-8.18 9.08-13.51.42-2.65.28-5.36-.39-7.88z" fill="#3bb2de"/></svg>