<?xml version="1.0" encoding="UTF-8" standalone="no"?>
<!-- Generator: Adobe Illustrator 24.1.2, SVG Export Plug-In . SVG Version: 6.00 Build 0)  -->

<svg
   version="1.1"
   id="Layer_1"
   x="0px"
   y="0px"
   viewBox="0 0 128 128"
   style="enable-background:new 0 0 128 128;"
   xml:space="preserve"
   sodipodi:docname="emoji_u1f635.svg"
   inkscape:version="1.3.2 (091e20e, 2023-11-25, custom)"
   xmlns:inkscape="http://www.inkscape.org/namespaces/inkscape"
   xmlns:sodipodi="http://sodipodi.sourceforge.net/DTD/sodipodi-0.dtd"
   xmlns="http://www.w3.org/2000/svg"
   xmlns:svg="http://www.w3.org/2000/svg"><defs
   id="defs7" /><sodipodi:namedview
   id="namedview7"
   pagecolor="#ffffff"
   bordercolor="#000000"
   borderopacity="0.25"
   inkscape:showpageshadow="2"
   inkscape:pageopacity="0.0"
   inkscape:pagecheckerboard="0"
   inkscape:deskcolor="#d1d1d1"
   inkscape:zoom="6.0234375"
   inkscape:cx="63.916991"
   inkscape:cy="64"
   inkscape:window-width="1920"
   inkscape:window-height="991"
   inkscape:window-x="-9"
   inkscape:window-y="-9"
   inkscape:window-maximized="1"
   inkscape:current-layer="Layer_1" />
<g
   id="gold">
	
		<radialGradient
   id="face_1_"
   cx="63.6"
   cy="1992.9"
   r="56.9597"
   gradientTransform="matrix(1 0 0 1 0 -1930)"
   gradientUnits="userSpaceOnUse">
		<stop
   offset="0.5"
   style="stop-color:#FDE030"
   id="stop1" />
		<stop
   offset="0.92"
   style="stop-color:#F7C02B"
   id="stop2" />
		<stop
   offset="1"
   style="stop-color:#F4A223"
   id="stop3" />
	</radialGradient>
	<path
   id="face"
   style="fill:url(#face_1_);"
   d="M63.6,118.8c-27.9,0-58-17.5-58-55.9S35.7,7,63.6,7c15.5,0,29.8,5.1,40.4,14.4   c11.5,10.2,17.6,24.6,17.6,41.5s-6.1,31.2-17.6,41.4C93.4,113.6,79,118.8,63.6,118.8z" />
	
</g>
<g
   id="facial_expressions">
	<path
   id="mouth"
   style="fill:#422B0D;"
   d="M82.56,92.85c0,7.58-8.31,12-18.56,12s-18.56-4.45-18.56-12S53.75,77,64,77   S82.56,85.27,82.56,92.85z" />
	<path
   style="fill:#422B0D;"
   d="M46.27,56.6l8.46-7.87c1.2-1.49,1.38-3.5,0.17-4.7c-1.59-1.6-4.41-1.21-5.94,0.61   c-0.08,0.15-0.14,0.19-0.22,0.34l-6,8.72l-8.12-7.57c-0.12-0.13-0.19-0.15-0.3-0.28c-1.89-1.44-4.73-1.2-5.92,0.71   c-0.93,1.44-0.31,3.35,1.19,4.55L40,57.28l-8.82,8.25C30,67,29.78,69,31,70.23c1.58,1.61,4.4,1.24,5.94-0.57   c0.08-0.15,0.14-0.19,0.23-0.34l6.32-9.14l7.68,7.24c0.12,0.13,0.19,0.16,0.3,0.29c1.88,1.45,4.72,1.23,5.93-0.67   c0.93-1.44,0.32-3.36-1.17-4.56L46.27,56.6z"
   id="path4" />
	<path
   style="fill:#422B0D;"
   d="M84.75,56.6l-8.46-7.87c-1.2-1.49-1.38-3.5-0.16-4.7c1.59-1.6,4.4-1.21,5.93,0.61   c0.08,0.15,0.15,0.19,0.23,0.34l6,8.72l8.13-7.57c0.11-0.13,0.18-0.15,0.29-0.28c1.9-1.44,4.73-1.2,5.93,0.71   c0.92,1.44,0.3,3.35-1.2,4.55L91,57.28l8.82,8.25c1.21,1.49,1.41,3.49,0.19,4.7c-1.57,1.61-4.39,1.24-5.93-0.57   c-0.09-0.15-0.15-0.19-0.23-0.34l-6.32-9.14l-7.69,7.24c-0.11,0.13-0.18,0.16-0.3,0.29c-1.88,1.45-4.71,1.23-5.92-0.67   c-0.94-1.44-0.33-3.36,1.16-4.56L84.75,56.6z"
   id="path5" />
	<g
   id="eyebrows">
		<path
   style="fill:#422B0D;"
   d="M45.6,28.9L45.6,28.9c2.3,0.2,3.2-2.9,0.8-3.6c-1.89-0.51-3.85-0.71-5.8-0.6    c-5.29,0.2-10.3,2.42-14,6.2c-1.7,1.8,0.7,4,2.5,2.7C33.92,30.23,39.73,28.57,45.6,28.9z"
   id="path6" />
		<path
   style="fill:#422B0D;"
   d="M82.2,28.9L82.2,28.9c5.9-0.34,11.75,1.31,16.6,4.7c1.8,1.3,4.2-0.9,2.5-2.7    c-3.71-3.76-8.72-5.98-14-6.2c-1.95-0.11-3.91,0.09-5.8,0.6c-0.98,0.28-1.55,1.29-1.27,2.27C80.47,28.44,81.31,29,82.2,28.9"
   id="path7" />
	</g>
</g>
</svg>
