<svg xmlns="http://www.w3.org/2000/svg" viewBox="0 0 128 128"><path d="M116 128H12c-6.6 0-12-5.4-12-12V12C0 5.4 5.4 0 12 0h104c6.6 0 12 5.4 12 12v104c0 6.6-5.4 12-12 12z" fill="#fcc21b"/><path d="M124.48 3.52L3.52 124.48C5.7 126.65 8.7 128 12 128h104c6.6 0 12-5.4 12-12V12c0-3.3-1.35-6.3-3.52-8.48z" fill="#f79329"/><path d="M112 101c0 6.63-5.37 12-12 12H27.89c-6.6 0-12-5.4-12-12V28.9c0-6.6 5.4-12 12-12H100c6.63 0 12 5.37 12 12V101z" fill="#fcc21b"/><path d="M63.41 101.77h.4c4.59-.07 13.28-1.07 19.9-7.03 5.52-4.97 8.08-11.75 7.02-18.62-.98-6.4-5.01-11.86-11.16-15.2 5.9-4.44 9.44-9.98 10.06-15.74.6-5.59-1.58-11.16-6.32-16.12-4.76-4.98-11.18-7.61-18.55-7.61-11.35 0-21.8 6.01-24.98 10.34a1.1 1.1 0 0 0-.02 1.25l7.05 10.2c.17.25.43.41.74.46.29.04.6-.04.84-.23.08-.07 7.75-6.34 14.28-6.34 2.99 0 5.2 1.31 6.75 4 1.29 2.25 1.54 4.31.75 6.26-2.15 5.33-11.26 8.01-11.35 8.04-.46.13-.78.55-.78 1.04v8.98c0 .49.33.93.82 1.04.09.02 8.75 2.17 10.73 7.14.77 1.95.38 4.15-1.17 6.56-1.64 2.54-4.13 3.83-7.39 3.83-6.32 0-14.06-4.8-17.47-7.82-.24-.2-.53-.31-.85-.27-.31.04-.58.2-.76.46l-7.05 10.2c-.27.4-.25.94.07 1.31.51.55 12.06 13.87 28.44 13.87z" fill="#fff"/></svg>