<?xml version="1.0" encoding="utf-8"?>
<!-- Generator: Adobe Illustrator 19.2.1, SVG Export Plug-In . SVG Version: 6.00 Build 0)  -->
<svg version="1.1" id="レイヤー_1" xmlns="http://www.w3.org/2000/svg" xmlns:xlink="http://www.w3.org/1999/xlink" x="0px"
	 y="0px" viewBox="0 0 128 128" style="enable-background:new 0 0 128 128;" xml:space="preserve">
<path style="fill:#FCC21B;" d="M125,97.14L99.45,71.58v16.69h-6.57c-4.04,0-7.33-3.29-7.33-7.33V30.38
	c0-13.82-11.25-25.07-25.07-25.07c-6.17,0-11.83,2.26-16.2,5.97c-4.38-3.72-10.02-5.97-16.2-5.97C14.25,5.31,3,16.56,3,30.38v54.03
	h17.75V30.38c0-4.04,3.29-7.33,7.33-7.33c4.04,0,7.33,3.29,7.33,7.33v54.03h17.75V30.38c0-4.04,3.29-7.33,7.33-7.33
	s7.33,3.29,7.33,7.33v50.55c0,13.83,11.25,25.08,25.07,25.08h6.57v16.68L125,97.14z"/>
</svg>
