<svg width="128" height="128" style="enable-background:new 0 0 128 128;" xmlns="http://www.w3.org/2000/svg" xmlns:xlink="http://www.w3.org/1999/xlink">
  <g>
    <radialGradient id="SVGID_1_" cx="225.758" cy="598.2119" gradientTransform="matrix(1.012 6.240933e-03 -6.214931e-03 1.0162 -160.7461 -547.5832)" gradientUnits="userSpaceOnUse" r="52.6201">
      <stop offset="0.3864" style="stop-color:#FF8F00"/>
      <stop offset="0.8182" style="stop-color:#FFB300"/>
    </radialGradient>
    <path d="M68.82,29.58L84.46,9.03c0.99-1.3,3.06-0.43,2.83,1.2l-3.73,25.59 c-0.56,3.82,2.69,7.12,6.5,6.61l25.53-3.43c1.62-0.22,2.47,1.87,1.16,2.85L96.09,57.29c-3.09,2.31-3.11,6.94-0.06,9.29l20.46,15.7 c1.3,1,0.43,3.08-1.19,2.84l-25.48-3.74c-3.81-0.56-7.09,2.7-6.58,6.53l3.41,25.63c0.22,1.63-1.86,2.48-2.84,1.16L68.43,93.96 c-2.3-3.1-6.91-3.13-9.25-0.06l-15.64,20.55c-0.99,1.3-3.06,0.43-2.83-1.2l3.73-25.59c0.56-3.82-2.69-7.12-6.5-6.61l-25.53,3.43 c-1.62,0.22-2.47-1.87-1.16-2.85l20.65-15.45c3.09-2.31,3.11-6.94,0.06-9.29L11.51,41.2c-1.3-1-0.43-3.08,1.19-2.84l25.48,3.74 c3.81,0.56,7.09-2.7,6.58-6.53L41.35,9.94c-0.22-1.63,1.86-2.48,2.84-1.16l15.38,20.74C61.87,32.62,66.48,32.65,68.82,29.58z" style="fill:url(#SVGID_1_);"/>
    <radialGradient id="SVGID_2_" cx="227.1891" cy="597.9149" gradientTransform="matrix(0.9309 0.3986 -0.397 0.9348 89.8634 -587.7499)" gradientUnits="userSpaceOnUse" r="52.6201">
      <stop offset="0.3864" style="stop-color:#FF8F00"/>
      <stop offset="0.8182" style="stop-color:#FFB300"/>
    </radialGradient>
    <path d="M80.83,33.95l22.33-12.88c1.42-0.82,2.99,0.79,2.15,2.2L92.02,45.42 c-1.99,3.31-0.26,7.61,3.45,8.62l24.86,6.75c1.58,0.43,1.55,2.68-0.03,3.08L95.3,70.1c-3.73,0.93-5.54,5.19-3.63,8.54l12.83,22.42 c0.81,1.42-0.79,3-2.19,2.15L80.25,89.88c-3.3-1.99-7.58-0.27-8.58,3.46l-6.72,24.96c-0.43,1.58-2.67,1.56-3.07-0.03l-6.2-25.1 c-0.93-3.75-5.17-5.57-8.51-3.64l-22.33,12.88c-1.42,0.82-2.99-0.79-2.15-2.2l13.29-22.15c1.99-3.31,0.26-7.61-3.45-8.62 L7.67,62.69c-1.58-0.43-1.55-2.68,0.03-3.08l24.99-6.23c3.73-0.93,5.54-5.19,3.63-8.54L23.5,22.42c-0.81-1.42,0.79-3,2.19-2.15 L47.75,33.6c3.3,1.99,7.58,0.27,8.58-3.46l6.72-24.96c0.43-1.58,2.67-1.56,3.07,0.03l6.2,25.1C73.25,34.06,77.49,35.87,80.83,33.95 z" style="fill:url(#SVGID_2_);"/>
    <path d="M75.28,35.1c-14.61-6.21-31.53,0.68-37.72,15.35s0.67,31.67,15.29,37.87s31.53-0.68,37.72-15.35 C96.76,58.3,89.9,41.31,75.28,35.1z" style="fill:#FFEB3B;"/>
    <g style="opacity:0.2;">
      <path d="M64.11,35.86c3.44,0,6.8,0.69,9.99,2.04c13.07,5.56,19.21,20.76,13.67,33.89 c-4.04,9.58-13.36,15.78-23.74,15.78c-3.44,0-6.8-0.69-9.99-2.04c-13.07-5.56-19.21-20.76-13.67-33.89 C44.41,42.05,53.73,35.86,64.11,35.86 M64.11,32.86c-11.2,0-21.87,6.62-26.5,17.61c-6.17,14.65,0.67,31.62,15.27,37.82 c3.64,1.55,7.43,2.28,11.16,2.28c11.2,0,21.87-6.62,26.5-17.61c6.17-14.65-0.67-31.62-15.27-37.82 C71.62,33.59,67.84,32.86,64.11,32.86L64.11,32.86z" style="fill:#EEEEEE;"/>
    </g>
    <g style="opacity:0.2;">
      <path d="M64.52,11.25L68.41,27c0.28,1.12,1.17,1.98,2.3,2.22c0.2,0.04,0.41,0.06,0.61,0.06 c0.93,0,1.81-0.43,2.39-1.18l9.81-12.89l-2.39,16.42c-0.17,1.14,0.33,2.27,1.28,2.91c0.51,0.34,1.09,0.52,1.68,0.52 c0.52,0,1.03-0.13,1.5-0.4l14.33-8.27l-8.36,13.93c-0.59,0.99-0.57,2.23,0.07,3.19c0.56,0.85,1.51,1.35,2.51,1.35 c0.13,0,0.27-0.01,0.4-0.03l16.06-2.16l-13.28,9.94c-0.92,0.69-1.36,1.84-1.15,2.96c0.22,1.13,1.05,2.03,2.16,2.33l15.99,4.34 l-15.74,3.92c-1.12,0.28-1.98,1.17-2.21,2.3c-0.23,1.13,0.2,2.29,1.11,2.99l12.88,9.89l-16.37-2.4c-0.15-0.02-0.29-0.03-0.44-0.03 c-0.98,0-1.91,0.48-2.48,1.31c-0.65,0.95-0.7,2.18-0.13,3.18l8.24,14.41l-13.86-8.38c-0.48-0.29-1.02-0.43-1.55-0.43 c-0.57,0-1.14,0.16-1.64,0.49c-0.97,0.63-1.48,1.76-1.33,2.91l2.14,16.1l-9.86-13.3C72.52,94.44,71.62,94,70.68,94 c-0.19,0-0.37,0.02-0.56,0.05c-1.13,0.21-2.04,1.06-2.34,2.17l-4.31,16l-3.89-15.75c-0.28-1.12-1.17-1.98-2.3-2.22 c-0.2-0.04-0.41-0.06-0.61-0.06c-0.93,0-1.81,0.43-2.39,1.18l-9.81,12.89l2.39-16.42c0.17-1.14-0.33-2.27-1.28-2.91 c-0.51-0.34-1.09-0.52-1.68-0.52c-0.52,0-1.03,0.13-1.5,0.4l-14.33,8.27l8.36-13.93c0.59-0.99,0.57-2.23-0.07-3.19 c-0.56-0.85-1.51-1.35-2.51-1.35c-0.13,0-0.27,0.01-0.4,0.03L17.4,80.79l13.28-9.94c0.92-0.69,1.36-1.84,1.15-2.96 c-0.22-1.13-1.05-2.03-2.16-2.33l-15.99-4.34l15.74-3.92c1.12-0.28,1.98-1.17,2.21-2.3c0.23-1.13-0.2-2.29-1.11-2.99l-12.88-9.89 l16.37,2.4c0.15,0.02,0.29,0.03,0.44,0.03c0.98,0,1.91-0.48,2.48-1.31c0.65-0.95,0.7-2.18,0.13-3.18l-8.24-14.41l13.86,8.38 c0.48,0.29,1.02,0.43,1.55,0.43c0.57,0,1.14-0.16,1.64-0.49c0.97-0.63,1.48-1.76,1.33-2.91l-2.14-16.1l9.86,13.3 c0.57,0.77,1.47,1.21,2.41,1.21c0.19,0,0.37-0.02,0.56-0.05c1.13-0.21,2.04-1.06,2.34-2.17L64.52,11.25 M64.58,4 c-0.66,0-1.32,0.39-1.53,1.18l-5.74,21.3L44.19,8.78c-0.33-0.45-0.79-0.65-1.25-0.65c-0.88,0-1.73,0.73-1.59,1.81l2.87,21.52 l-18.52-11.2c-0.27-0.16-0.55-0.24-0.82-0.24c-1.11,0-2.02,1.25-1.37,2.39l10.94,19.14L12.7,38.36c-0.09-0.01-0.17-0.02-0.25-0.02 c-1.45,0-2.17,1.91-0.94,2.86l17.18,13.19L7.7,59.61c-1.59,0.4-1.61,2.65-0.03,3.08l21.21,5.76L11.26,81.63 c-1.25,0.93-0.54,2.87,0.92,2.87c0.08,0,0.15-0.01,0.23-0.02l21.43-2.88l-11.16,18.6c-0.69,1.14,0.22,2.42,1.35,2.42 c0.26,0,0.53-0.07,0.8-0.22L43.9,91.42l-3.18,21.84c-0.16,1.08,0.7,1.83,1.59,1.83c0.45,0,0.9-0.19,1.24-0.63L56.67,97.2 l5.21,21.08c0.2,0.8,0.87,1.21,1.54,1.21c0.66,0,1.32-0.39,1.53-1.18L70.68,97l13.13,17.7c0.33,0.45,0.79,0.65,1.25,0.65 c0.88,0,1.73-0.73,1.59-1.81l-2.87-21.52l18.52,11.2c0.27,0.16,0.55,0.24,0.82,0.24c1.11,0,2.02-1.25,1.37-2.39L93.56,81.93 l21.74,3.19c0.09,0.01,0.17,0.02,0.25,0.02c1.45,0,2.17-1.91,0.94-2.86L99.31,69.1l20.99-5.23c1.59-0.4,1.61-2.65,0.03-3.08 l-21.21-5.76l17.62-13.18c1.25-0.93,0.54-2.87-0.92-2.87c-0.08,0-0.15,0.01-0.23,0.02l-21.43,2.88l11.16-18.6 c0.69-1.14-0.22-2.42-1.35-2.42c-0.26,0-0.53,0.07-0.8,0.22L84.1,32.06l3.18-21.84c0.16-1.08-0.7-1.83-1.59-1.83 c-0.45,0-0.9,0.19-1.24,0.63L71.33,26.28L66.12,5.21C65.92,4.4,65.25,4,64.58,4L64.58,4z" style="fill:#EEEEEE;"/>
    </g>
  </g>
  <g>
    <linearGradient id="SVGID_3_" gradientUnits="userSpaceOnUse" x1="64" x2="64" y1="64.455" y2="123.8302">
      <stop offset="0" style="stop-color:#FFF9C3"/>
      <stop offset="0.0984" style="stop-color:#E4EDC5"/>
      <stop offset="0.549" style="stop-color:#6CB7CB"/>
      <stop offset="0.8582" style="stop-color:#2095CF"/>
      <stop offset="1" style="stop-color:#0288D1"/>
    </linearGradient>
    <rect height="60.25" style="fill:url(#SVGID_3_);" width="120" x="4" y="63.75"/>
    <g style="opacity:0.2;">
      <path d="M121,66.75V121H7V66.75H121 M124,63.75H4V124h120V63.75L124,63.75z" style="fill:#424242;"/>
    </g>
  </g>
  <g>
    <defs>
      <rect id="SVGID_4_" height="60.25" width="120" x="4" y="63.75"/>
    </defs>
    <clipPath id="SVGID_5_">
      <use style="overflow:visible;" xlink:href="#SVGID_4_"/>
    </clipPath>
    <g style="clip-path:url(#SVGID_5_);">
      <path d="M-19.97,74.4c0,0-30.21,1.28-14.62,3.83c0,0,23.87,2.13,12.51,3.83 c-11.37,1.7-9.91,5.11,3.25,4.26c13.16-0.85,16.08,1.28,6.17,3.41c-9.91,2.13-7.31,2.55,7.15,1.7 c14.46-0.85,11.69,3.83,3.25,5.53c-8.44,1.7-2.42,3.73,10.12,2.84c12.49-0.89,12.82-2.3,4.9-2.82c-6.7-0.44-5.76-5.13,4.8-6.41 c10.56-1.28,6.5-3.41-5.52-3.41s-16.73-3.4-0.81-4.68c15.92-1.28,17.38-1.7,7.15-2.13c-10.23-0.43-3.57-2.13,7.8-3.83 c0,0,18.35-2.55,2.44-2.98L-19.97,74.4z" style="opacity:0.2;fill:#E1F5FE;"/>
      <path d="M45.07,65.22c0,0-47.8,1.83-23.13,5.49c0,0,37.78,3.05,19.79,5.49 c-17.99,2.44-15.68,7.32,5.14,6.1c20.82-1.22,25.44,1.83,9.77,4.88c-15.68,3.05-11.57,3.66,11.31,2.44s17.85,4.5,4.48,6.94 c-13.36,2.44-4.02,3.31,15.77,1.48s17.74-3.45,8.79-4.15c-10.58-0.82-9.25-3.66,7.45-5.49c16.7-1.83,10.28-4.88-8.74-4.88 s-26.47-4.88-1.29-6.71c25.18-1.83,27.5-2.44,11.31-3.05c-16.19-0.61-5.65-3.05,12.34-5.49c0,0,29.04-3.66,3.85-4.27L45.07,65.22 z" style="opacity:0.33;fill:#FFF9C4;"/>
      <ellipse cx="29.36" cy="95.75" rx="7.57" ry="1.79" style="opacity:0.2;fill:#E1F5FE;" transform="matrix(1 -3.814156e-03 3.814156e-03 1 -0.365 0.1127)"/>
    </g>
  </g>
</svg>