<svg enable-background="new 0 0 128 128" viewBox="0 0 128 128" xmlns="http://www.w3.org/2000/svg" xmlns:xlink="http://www.w3.org/1999/xlink"><g fill="#F9A825"><rect transform="matrix(-.9579 .2872 -.2872 -.9579 122.14 59.033)" x="52.58" y="30.02" width="8.32" height="16.91"/><circle cx="53.45" cy="27.52" r="9.7"/></g><radialGradient id="f" cx="64.084" cy="53.752" r="40.47" gradientUnits="userSpaceOnUse"><stop stop-color="#FDD835" offset=".4158"/><stop stop-color="#F9A825" offset="1"/></radialGradient><path d="m89.79 43.26c-5.97-1.97-8.41-3.14-14.95-3.6l1.83-6.09-7.97-2.39-2.48 8.28c-6.05-0.54-15.82-0.24-23.52 2.52-9.65 3.46-19.54 7.36-25.68 15.78-2.94 4.03-5.22 9.04-5.53 14.09-0.35 5.67 8.26 5.75 8.95 0.33 0.12-0.63 0.23-1.26 0.39-1.88 0.59-2.34 14.83-20.53 43.17-20.53s43.51 21.51 43.67 22.29v0.02c0.46 5.67 9.37 5.69 8.99-0.08-0.95-14.36-14.27-24.57-26.87-28.74z" fill="url(#f)"/><radialGradient id="e" cx="72.004" cy="22.205" r="14.373" gradientUnits="userSpaceOnUse"><stop stop-color="#FDD835" offset=".3991"/><stop stop-color="#FDD534" offset=".5153"/><stop stop-color="#F9A825" offset="1"/></radialGradient><circle cx="74.55" cy="27.52" r="9.7" fill="url(#e)"/><g opacity=".2"><path d="m74.54 19.81c0.75 0 1.49 0.11 2.22 0.33 4.07 1.22 6.39 5.52 5.17 9.59-0.89 2.97-3.46 5.11-6.55 5.45-0.8 0.09-1.47 0.64-1.7 1.41l-0.75 2.49c-0.17 0.58-0.08 1.21 0.27 1.71s0.9 0.82 1.5 0.86c5.23 0.37 7.57 1.17 11.82 2.62 0.81 0.28 1.68 0.57 2.64 0.89 6.49 2.15 12.54 5.73 17.04 10.08 5.13 4.98 8.06 10.82 8.47 16.89 0.04 0.66-0.1 1.18-0.44 1.54-0.39 0.41-1.03 0.65-1.76 0.65-0.97 0-2.65-0.51-2.8-2.41-0.01-0.09-0.02-0.19-0.04-0.28l-0.04-0.2c-0.15-0.72-0.31-1.47-0.54-2.24-0.79-2.69-1.79-4.72-3.58-7.22-4.52-6.33-11.95-10.79-22.08-13.26-4.8-1.17-9.88-1.9-15.1-2.18h-0.11c-0.63 0-1.21 0.3-1.58 0.78l-2.7-1.02c-0.19-0.06-0.38-0.3-0.57-0.3h-0.01c-8.23 0-16.3 1.5-23.32 3.81-5.99 1.97-14.1 6.1-18.71 14.08-1.23 2.13-1.75 3.32-2.39 5.85-0.13 0.52-0.23 1.04-0.32 1.52l-0.09 0.51c-0.01 0.05-0.02 0.1-0.02 0.14-0.21 1.66-1.61 2.25-2.75 2.25-0.73 0-1.37-0.24-1.76-0.65-0.34-0.36-0.49-0.88-0.45-1.55 0.26-4.21 2.08-8.83 5.15-13.03 5.66-7.76 14.93-11.56 24.74-15.07 2.75-0.99 5.99-1.71 9.63-2.15 0.59-0.07 1.11-0.4 1.43-0.89s0.41-1.1 0.24-1.67l-0.78-2.61c-0.22-0.74-0.85-1.28-1.61-1.4-2.93-0.45-5.37-2.57-6.22-5.39-1.22-4.07 1.1-8.37 5.17-9.59 0.72-0.22 1.47-0.33 2.22-0.33 3.37 0 6.41 2.26 7.38 5.49 0.85 2.83-0.03 5.94-2.22 7.92-0.57 0.52-0.8 1.32-0.57 2.06l1.36 4.52c0.25 0.84 1.02 1.42 1.9 1.43 1.69 0.01 3.29 0.08 4.75 0.21 0.06 0.01 0.12 0.01 0.18 0.01 0.88 0 1.66-0.57 1.91-1.43l1.48-5.03c0.21-0.71 0.02-1.48-0.51-2-2.04-2.01-2.79-4.96-1.97-7.7 0.97-3.23 4-5.49 7.37-5.49m0-2c-4.17 0-8.03 2.72-9.29 6.92-1.07 3.56 0.01 7.25 2.48 9.69l-1.51 5.03c-1.45-0.13-3.12-0.21-4.92-0.22l-1.36-4.52c2.69-2.43 3.91-6.28 2.8-9.98-1.26-4.2-5.12-6.92-9.29-6.92-0.92 0-1.86 0.13-2.79 0.41-5.13 1.54-8.05 6.95-6.51 12.08 1.11 3.71 4.24 6.24 7.83 6.8l0.78 2.61c-3.44 0.42-6.92 1.13-10.06 2.25-9.65 3.46-19.54 7.36-25.68 15.78-2.94 4.03-5.22 9.04-5.53 14.09-0.18 2.89 1.97 4.32 4.21 4.32 2.16 0 4.4-1.33 4.74-3.99 0.12-0.63 0.23-1.26 0.39-1.88 0.59-2.32 1.02-3.27 2.18-5.29 3.79-6.57 10.54-10.75 17.6-13.07 7.09-2.34 14.91-3.46 22.71-3.5l4.49 1.35 0.37-1.23c5.05 0.27 10.03 0.98 14.73 2.12 7.96 1.94 16.03 5.63 20.92 12.47 1.69 2.37 2.57 4.18 3.29 6.62 0.22 0.76 0.38 1.52 0.54 2.29v0.02c0.23 2.83 2.56 4.25 4.79 4.25 2.24 0 4.39-1.44 4.19-4.33-0.96-14.36-14.27-24.57-26.87-28.74-5.97-1.97-8.41-3.14-14.95-3.6l0.75-2.49c3.76-0.41 7.09-3.01 8.25-6.86 1.54-5.13-1.37-10.54-6.51-12.08-0.91-0.26-1.85-0.4-2.77-0.4z" fill="#424242"/></g><radialGradient id="d" cx="63.774" cy="58.107" r="50.595" gradientUnits="userSpaceOnUse"><stop stop-color="#D32F2F" offset=".5095"/><stop stop-color="#B71C1C" offset="1"/></radialGradient><path d="m113.84 122c-7.17 1.33-7.51 2.17-49.84 2.17s-43.08-0.83-49.95-2.17-9.99-4.47-10-9.99c0 0-4.2-65.85 59.88-65.85s59.92 65.85 59.92 65.85c-0.02 5.52-2.84 8.66-10.01 9.99z" fill="url(#d)"/><defs><path id="c" d="m113.84 122c-7.17 1.33-7.51 2.17-49.84 2.17s-43.08-0.83-49.95-2.17-9.99-4.47-10-9.99c0 0-4.2-65.85 59.88-65.85s59.92 65.85 59.92 65.85c-0.02 5.52-2.84 8.66-10.01 9.99z"/></defs><clipPath id="b"><use xlink:href="#c"/></clipPath><radialGradient id="a" cx="101.68" cy="74.248" r="69.492" gradientTransform="matrix(.7803 0 0 .5516 -15.393 33.296)" gradientUnits="userSpaceOnUse"><stop stop-color="#F44336" offset=".5256"/><stop stop-color="#D32F2F" offset=".8872"/></radialGradient><path d="M92.87,124H35.01c-4.31,0-23.82-9.92-23.82-28.79 s7.5-49.04,52.74-49.04s52.77,29.4,52.77,49.12S97.18,124,92.87,124z" clip-path="url(#b)" fill="url(#a)"/><g fill="#E53935"><path d="m50.64 64.26c-1.69 5.6-4.21 4.98-4.83 4.79s-3.06-1.06-1.37-6.66 7.7-14.28 7.7-14.28 0.19 10.55-1.5 16.15z"/><path d="m77.36 64.26c1.69 5.6 4.21 4.98 4.83 4.79s3.06-1.06 1.37-6.66-7.7-14.28-7.7-14.28-0.19 10.55 1.5 16.15z"/><path d="m68.65 70.58c-0.14 8.41-3.87 8.54-4.8 8.52s-4.65-0.27-4.51-8.68 5.04-22.76 5.04-22.76 4.42 14.52 4.27 22.92z"/></g><g opacity=".2"><path d="m64.04 49.23c1.05 0 5.32 0.11 5.65 0.13 12.64 0.79 22.71 4.25 29.92 10.31 0.03 0.03 0.07 0.06 0.1 0.08 22.96 17.57 21.15 51.8 21.13 52.14 0 0.06-0.01 0.12-0.01 0.18-0.01 3.55-1.22 5.74-7.63 7.12-4.43 0.95-16.47 2.08-48.68 2.08-8.65 0-16.26-0.08-21.29-0.13-2.28-0.02-3.96-0.04-4.82-0.04-6.58 0-19.39-1.19-23.8-2.04-6.28-1.22-7.57-3.69-7.57-7.04 0-0.06 0-0.12-0.01-0.19-0.02-0.37-2.06-37.4 24.18-54.23 0.03-0.02 0.05-0.03 0.08-0.05 6.8-4.66 15.74-7.4 26.56-8.13 0.42-0.02 5.26-0.19 6.19-0.19m0-3c-1.01 0-6.06 0.18-6.38 0.2-12.2 0.83-21.32 4.03-28.06 8.65-28.04 17.98-25.55 56.94-25.55 56.94 0.01 5.52 3.12 8.65 10 9.98 4.64 0.9 17.7 2.1 24.37 2.1 2.72 0 13.43 0.17 26.11 0.17 18.42 0 41-0.36 49.31-2.15 7.13-1.53 9.99-4.53 10-10.05 0 0 2.26-35.92-22.3-54.71-7.03-5.9-17.18-10.1-31.67-11-0.11 0-4.68-0.13-5.83-0.13z" fill="#424242"/></g></svg>
