<svg width="128" height="128" style="enable-background:new 0 0 128 128;" xmlns="http://www.w3.org/2000/svg" xmlns:xlink="http://www.w3.org/1999/xlink">
  <g>
    <g>
      <g>
        <path d="M71.39,66.52c-1.64,0-3.12-1.07-3.16-2.29l-0.52-15.06c-0.01-0.25-0.04-0.5-0.11-0.75l-1.67-9.03 c-0.13-0.55-0.28-1.04-0.42-1.52c-0.56-1.87-0.96-3.23,0.37-4.82c0.43-0.52,1.21-0.84,2.02-0.84c1.6,0,2.89,1.13,3.45,3.02 l4.64,12.57c0.09,0.2,0.14,0.34,0.16,0.47l3.02,14.8c0.2,0.97-0.53,1.85-1.78,2.14l-5.16,1.21 C71.96,66.49,71.68,66.52,71.39,66.52z" style="fill:#FFCA28;"/>
        <path d="M67.9,33.22c0.54,0,1.88,0.22,2.49,2.3c0.01,0.04,0.03,0.09,0.04,0.13l4.62,12.5 c0.02,0.05,0.04,0.1,0.06,0.15c0.03,0.06,0.05,0.12,0.06,0.17l3.02,14.8c0.09,0.45-0.45,0.83-1.03,0.97l-5.16,1.21 c-0.2,0.05-0.41,0.07-0.62,0.07c-1.17,0-2.14-0.73-2.16-1.33l-0.52-15.06c-0.01-0.3-0.05-0.59-0.12-0.89l-1.68-9.04 c-0.01-0.03-0.01-0.07-0.02-0.1c-0.13-0.54-0.28-1.04-0.42-1.53c-0.58-1.93-0.77-2.76,0.18-3.89 C66.89,33.4,67.38,33.22,67.9,33.22 M67.9,31.22c-1.12,0-2.16,0.45-2.79,1.19c-2.07,2.47-0.77,4.61-0.17,7.16l1.69,9.09 c0.04,0.18,0.07,0.36,0.08,0.54l0.52,15.06c0.06,1.83,2.02,3.26,4.16,3.26c0.36,0,0.72-0.04,1.07-0.12l5.16-1.21 c1.77-0.42,2.83-1.81,2.53-3.31l-3.02-14.8c-0.04-0.21-0.11-0.42-0.21-0.62l-4.62-12.5C71.52,32.28,69.63,31.22,67.9,31.22 L67.9,31.22z" style="fill:#EDA600;"/>
      </g>
      <g>
        <path d="M79.77,62.43c-2.71,0-5.1-1.78-5.33-3.96l-1.59-15.48c-0.05-0.46-0.16-0.92-0.32-1.36l-4.85-12.41 c-0.54-1.72-0.34-3.76,0.54-5.26c0.46-0.78,1.31-1.78,2.76-2.08c0.12-0.03,0.26-0.04,0.41-0.04c1.71,0,4.31,1.53,5.32,3.72 l5.82,12.64c0.14,0.3,0.24,0.62,0.28,0.93l2.93,18.99c0.14,0.91-0.1,1.79-0.7,2.53c-0.79,0.98-2.09,1.59-3.57,1.67l-1.34,0.08 C80.01,62.42,79.89,62.43,79.77,62.43z" style="fill:#FFCA28;"/>
        <path d="M71.39,22.84L71.39,22.84c1.21,0,3.53,1.22,4.41,3.14l5.82,12.64c0.1,0.22,0.17,0.44,0.2,0.67 l2.93,18.99c0.12,0.79-0.2,1.39-0.49,1.75c-0.61,0.76-1.65,1.23-2.85,1.3l-1.34,0.08c-0.1,0.01-0.21,0.01-0.31,0.01 c-2.18,0-4.16-1.4-4.33-3.06l-1.59-15.48c-0.06-0.54-0.18-1.09-0.39-1.63l-4.82-12.33c-0.46-1.51-0.29-3.21,0.45-4.46 c0.36-0.61,1.01-1.38,2.1-1.61C71.23,22.85,71.29,22.84,71.39,22.84 M71.39,20.84c-0.22,0-0.42,0.02-0.61,0.06 c-3.53,0.73-5.19,5.02-4.04,8.69l4.85,12.39c0.14,0.36,0.22,0.73,0.26,1.11l1.59,15.48c0.28,2.72,3.1,4.86,6.32,4.86 c0.14,0,0.29,0,0.43-0.01l1.34-0.08c3.3-0.2,5.63-2.59,5.2-5.35l-2.93-18.99c-0.06-0.41-0.18-0.81-0.36-1.2l-5.82-12.64 C76.42,22.53,73.41,20.84,71.39,20.84L71.39,20.84z" style="fill:#EDA600;"/>
      </g>
      <g>
        <path d="M90.29,60.99c-2.6,0-5.57-0.85-6.02-2.44l-1.85-16.2c0-0.04-0.01-0.08-0.02-0.12 c-0.09-0.35-0.21-0.71-0.38-1.05L76.9,29.25c-0.01-0.03-0.03-0.07-0.05-0.1l-2.95-5.23l-0.14-0.46c-1.1-3.56-1.66-5.83,0.74-7.51 c0.63-0.44,1.4-0.67,2.29-0.67c2.11,0,4.56,1.32,5.58,3.01l9.79,16.16c0.11,0.17,0.2,0.35,0.27,0.54l7.89,19.85 c0.36,0.9,0.31,1.83-0.14,2.69c-0.58,1.09-1.73,1.9-3.17,2.22l-4.41,0.99C91.92,60.91,91.12,60.99,90.29,60.99z" style="fill:#FFCA28;"/>
        <path d="M76.79,16.29L76.79,16.29c1.76,0,3.88,1.13,4.73,2.53l9.79,16.16c0.08,0.13,0.14,0.26,0.2,0.39 l7.89,19.85c0.31,0.79,0.12,1.44-0.1,1.86c-0.44,0.83-1.35,1.46-2.5,1.71l-4.41,0.99c-0.61,0.14-1.33,0.21-2.08,0.21 c-2.64,0-4.72-0.86-5.04-1.65l-1.84-16.1c-0.01-0.08-0.02-0.17-0.05-0.25c-0.1-0.41-0.24-0.81-0.43-1.2l-5.12-11.93 c-0.03-0.07-0.06-0.13-0.1-0.19l-2.89-5.13l-0.11-0.35c-1.13-3.66-1.4-5.17,0.36-6.4C75.53,16.45,76.11,16.29,76.79,16.29 M76.79,14.29c-1.02,0-2.02,0.26-2.86,0.85c-3.28,2.31-2.03,5.65-0.94,9.18l3,5.32l5.14,11.97c0.13,0.28,0.24,0.56,0.31,0.86 l1.86,16.27c0.55,2.22,3.93,3.25,7.01,3.25c0.89,0,1.76-0.09,2.52-0.26l4.41-0.99c3.27-0.73,5.09-3.57,4.02-6.26l-7.89-19.85 c-0.09-0.24-0.21-0.47-0.34-0.69l-9.79-16.16C82.06,15.86,79.32,14.29,76.79,14.29L76.79,14.29z" style="fill:#EDA600;"/>
      </g>
      <g>
        <path d="M99.36,58.65c-2.77,0-5.15-1.55-5.53-3.61l-2.8-14.91c-0.07-0.4-0.2-0.79-0.37-1.17l-4.73-10.63 c-0.03-0.06-0.06-0.11-0.09-0.17c-2.47-3.55-2.96-6.4-1.56-8.99c0.79-1.47,2.31-1.69,3.15-1.69c2.39,0,4.81,1.55,5.88,3.76 c0.02,0.03,0.03,0.06,0.05,0.09l8.55,13.6c0.09,0.15,0.18,0.35,0.25,0.55l6.06,17.51c0.3,0.87,0.21,1.75-0.26,2.57 c-0.66,1.13-1.95,1.96-3.55,2.26l-3.71,0.71C100.25,58.61,99.81,58.65,99.36,58.65z" style="fill:#FFCA28;"/>
        <path d="M87.42,18.48L87.42,18.48c1.7,0,3.96,1.1,4.98,3.2c0.03,0.07,0.07,0.13,0.11,0.19l8.53,13.56 c0.07,0.13,0.13,0.26,0.17,0.39l6.06,17.51c0.21,0.59,0.15,1.18-0.18,1.74c-0.5,0.87-1.58,1.53-2.88,1.78l-3.71,0.71 c-0.37,0.07-0.76,0.11-1.14,0.11c-2.26,0-4.25-1.23-4.55-2.8l-2.8-14.91c-0.09-0.48-0.24-0.95-0.44-1.39l-4.73-10.63 c-0.05-0.12-0.11-0.23-0.19-0.33c-2.23-3.2-2.71-5.72-1.5-7.95C85.67,18.68,86.67,18.48,87.42,18.48 M87.42,16.48 c-1.68,0-3.2,0.69-4.03,2.21c-1.87,3.46-0.54,6.93,1.62,10.04l4.73,10.63c0.14,0.31,0.24,0.63,0.3,0.95l2.8,14.91 c0.49,2.58,3.35,4.43,6.52,4.43c0.5,0,1.01-0.05,1.52-0.14l3.71-0.71c3.46-0.66,5.51-3.41,4.57-6.14l-6.06-17.51 c-0.09-0.26-0.21-0.51-0.35-0.76L94.2,20.8C92.88,18.07,89.97,16.48,87.42,16.48L87.42,16.48z" style="fill:#EDA600;"/>
      </g>
      <g>
        <radialGradient id="SVGID_1_" cx="113.7139" cy="47.6759" gradientTransform="matrix(-0.9955 -0.0948 -0.0948 0.9955 194.5779 9.0531)" gradientUnits="userSpaceOnUse" r="57.3871">
          <stop offset="0.6592" style="stop-color:#FFCA28"/>
          <stop offset="1" style="stop-color:#FFB300"/>
        </radialGradient>
        <path d="M113.08,44.23c-1.26-3.43-6.11-3.42-7.41-0.01c-0.86,2.27-1.66,4.33-1.71,5.43 c-0.13,2.94,0.75,4.63,0.75,4.63s-3.52-3.14-16.69-0.1c-15.39,3.55-21.42,7.28-21.88,11.85c-0.91,8.95-3.1,19.02-1.83,28.08 c1.43,10.22,8.05,19.6,8.05,19.6h36.74c0,0-1.93-8.82,3.78-14.25c0,0,8.96-10.82,9.58-16.03l1.43-16.12 c0.49-3.96-0.77-7.93-3.45-10.88c-1.23-1.36-2.62-2.98-3.98-4.8C115.5,50.36,114.24,47.37,113.08,44.23z" style="fill:url(#SVGID_1_);"/>
      </g>
      <linearGradient id="SVGID_2_" gradientUnits="userSpaceOnUse" x1="98.1917" x2="107.4417" y1="44.8975" y2="93.8975">
        <stop offset="0.6488" style="stop-color:#FFCA28"/>
        <stop offset="1" style="stop-color:#FFB300"/>
      </linearGradient>
      <path d="M85.3,79.47c-1,7.31,6.25,13.7,13.73,14.62c16.47,2.02,19.37-7.89,21.38-14.98 c6.27-22.05-6.16-22.94-8.77-32.17c-1.04-3.68-2.81-4.87-4.29-2.95c-3,3.89-1.58,8.19,0.46,16.83c0.77,3.25-1.8,5.14-5.46,5.33 C94.86,66.52,86.23,72.62,85.3,79.47z" style="fill:url(#SVGID_2_);"/>
      <g>
        <path d="M87.79,56.4c-0.14-0.69-0.3-1.37-0.5-2.04c-2.12,0.5-4.04,0.98-5.8,1.46 c0.04,0.71,0.14,1.41,0.28,2.1C83.56,57.42,85.56,56.92,87.79,56.4z" style="fill:#EDA600;"/>
        <path d="M120.45,56.44c-1.23-1.36-2.62-2.98-3.98-4.8c-0.97-1.28-2.22-4.27-3.38-7.41 c-0.63-1.71-2.16-2.57-3.69-2.57c-1.53,0-3.07,0.85-3.72,2.56c-0.86,2.27-1.66,4.33-1.71,5.43c-0.13,2.94,0.75,4.63,0.75,4.63 s-1.6-1.43-6.67-1.43c-1.79,0-4.02,0.18-6.75,0.66c0.19,0.68,0.35,1.36,0.49,2.06c2.32-0.4,4.42-0.62,6.27-0.62 c3.57,0,5.04,0.77,5.31,0.93c0.39,0.41,0.89,0.61,1.41,0.61c0.42,0,0.86-0.14,1.24-0.4c0.87-0.61,1.08-1.82,0.59-2.76 c-0.01-0.01-0.63-1.33-0.53-3.59c0.03-0.72,0.83-2.82,1.48-4.51l0.1-0.27c0.43-1.12,1.45-1.21,1.75-1.21 c0.3,0,1.31,0.09,1.72,1.19c1.5,4.06,2.7,6.66,3.67,7.95c1.25,1.65,2.63,3.31,4.11,4.94c2.27,2.51,3.34,5.86,2.92,9.21 c0,0.02-0.01,0.05-0.01,0.07l-1.43,16.09c-0.42,3.33-5.73,10.8-9.03,14.82c-4.44,4.3-4.82,10.23-4.61,13.58H73.55 c-1.59-2.77-5.96-10.93-7.06-18.83c-1.04-7.42,0.08-15.07,1.16-22.46c0.2-1.33,0.39-2.67,0.57-3.99 c0.41-2.98,2.99-5.07,9.63-7.24c-0.15-0.69-0.26-1.39-0.34-2.09C69.9,59.45,66.69,62,66.14,66.03 c-1.22,8.91-3,17.97-1.73,27.04c1.43,10.22,7.95,20.65,7.95,20.65h36.74c0,0-1.93-8.82,3.78-14.25c0,0,8.96-10.82,9.58-16.03 l1.43-16.12C124.39,63.36,123.13,59.39,120.45,56.44z" style="fill:#EDA600;"/>
      </g>
      <path d="M84.28,83.86c1.83-11.11,8.01-15.99,17.45-16.57c1.89-0.12,3.74-0.04,4.82-1.19 c2.92-3.09,1.81-6.72,0.92-9.63c-0.33-1.07-0.64-2.08-0.74-2.97c-0.06-0.58-0.58-1-1.16-0.93c-0.58,0.06-0.99,0.58-0.93,1.16 c0.12,1.09,0.46,2.19,0.81,3.35c0.85,2.76,1.65,5.38-0.43,7.57c-0.52,0.55-1.91,0.66-3.38,0.76c-1.47,0.11-3.13,0.23-4.65,0.83 c-6.44,2.56-10.81,5.15-12.81,17.32C84.08,84.15,84.19,84.41,84.28,83.86z" style="fill:#EDA600;"/>
    </g>
    <g>
      <g>
        <path d="M56.61,66.52c-0.29,0-0.57-0.03-0.85-0.1l-5.16-1.21c-1.24-0.29-1.97-1.17-1.78-2.14l3.02-14.8 c0.03-0.13,0.07-0.27,0.13-0.39l4.65-12.58c0.58-1.95,1.86-3.08,3.47-3.08c0.82,0,1.59,0.32,2.02,0.84 c1.33,1.59,0.93,2.95,0.37,4.82c-0.14,0.48-0.29,0.97-0.41,1.47l-1.7,9.14c-0.05,0.19-0.08,0.44-0.09,0.69l-0.52,15.06 C59.73,65.45,58.25,66.52,56.61,66.52L56.61,66.52z" style="fill:#FFCA28;"/>
        <path d="M60.1,33.22c0.52,0,1.01,0.19,1.26,0.48c0.95,1.13,0.75,1.96,0.18,3.89 c-0.14,0.48-0.29,0.99-0.42,1.53c-0.01,0.03-0.01,0.07-0.02,0.1l-1.68,9.04c-0.07,0.29-0.11,0.59-0.12,0.89l-0.52,15.06 c-0.02,0.6-0.99,1.33-2.16,1.33c-0.21,0-0.42-0.02-0.62-0.07l-5.16-1.21c-0.58-0.14-1.12-0.51-1.03-0.97l3.02-14.8 c0.01-0.06,0.03-0.11,0.06-0.17c0.02-0.05,0.04-0.1,0.06-0.15l4.62-12.5c0.02-0.04,0.03-0.09,0.04-0.13 C58.22,33.44,59.55,33.22,60.1,33.22 M60.1,31.22c-1.72,0-3.62,1.06-4.41,3.73l-4.62,12.5c-0.09,0.2-0.16,0.41-0.21,0.62 l-3.02,14.8c-0.31,1.5,0.76,2.9,2.53,3.31l5.16,1.21c0.36,0.08,0.72,0.12,1.07,0.12c2.14,0,4.1-1.43,4.16-3.26l0.52-15.06 c0.01-0.18,0.03-0.36,0.08-0.54l1.69-9.09c0.61-2.55,1.9-4.69-0.17-7.16C62.26,31.66,61.21,31.22,60.1,31.22L60.1,31.22z" style="fill:#EDA600;"/>
      </g>
      <g>
        <path d="M48.23,62.43c-0.12,0-0.25,0-0.37-0.01l-1.34-0.08c-1.48-0.09-2.78-0.7-3.57-1.67 c-0.6-0.74-0.84-1.62-0.7-2.53l2.93-18.99c0.05-0.31,0.14-0.63,0.28-0.93l5.82-12.65c1.01-2.2,3.62-3.72,5.32-3.72 c0.15,0,0.29,0.01,0.41,0.04c1.45,0.3,2.3,1.3,2.76,2.08c0.88,1.51,1.08,3.55,0.52,5.33l-4.82,12.33 c-0.17,0.45-0.28,0.91-0.33,1.37l-1.59,15.48C53.34,60.65,50.95,62.43,48.23,62.43L48.23,62.43z" style="fill:#FFCA28;"/>
        <path d="M56.61,22.84c0.1,0,0.17,0.01,0.21,0.02c1.09,0.23,1.75,1,2.1,1.61 c0.73,1.25,0.91,2.96,0.45,4.46l-4.83,12.35c-0.2,0.52-0.33,1.06-0.38,1.61l-1.59,15.48c-0.17,1.66-2.15,3.06-4.33,3.06 c-0.1,0-0.21,0-0.31-0.01l-1.34-0.08c-1.2-0.07-2.24-0.55-2.85-1.3c-0.29-0.36-0.61-0.96-0.49-1.75l2.93-18.99 c0.03-0.22,0.1-0.45,0.2-0.67l5.82-12.64C53.08,24.07,55.4,22.84,56.61,22.84 M56.61,20.84c-2.02,0-5.02,1.69-6.23,4.31 l-5.82,12.64c-0.18,0.39-0.3,0.79-0.36,1.2l-2.93,18.99c-0.43,2.76,1.9,5.16,5.2,5.35l1.34,0.08c0.14,0.01,0.29,0.01,0.43,0.01 c3.22,0,6.04-2.13,6.32-4.86l1.59-15.48c0.04-0.37,0.13-0.74,0.26-1.11l4.85-12.39c1.15-3.67-0.51-7.96-4.04-8.69 C57.03,20.86,56.82,20.84,56.61,20.84L56.61,20.84z" style="fill:#EDA600;"/>
      </g>
      <g>
        <path d="M37.71,60.99c-0.82,0-1.62-0.08-2.3-0.23l-4.41-0.99c-1.44-0.32-2.59-1.13-3.17-2.22 c-0.45-0.86-0.5-1.79-0.14-2.69l7.89-19.85c0.07-0.19,0.16-0.37,0.27-0.54l9.79-16.15c1.02-1.69,3.48-3.01,5.58-3.01 c0.89,0,1.66,0.22,2.29,0.67c2.39,1.68,1.84,3.95,0.74,7.51l-0.14,0.46l-2.95,5.23c-0.02,0.03-0.03,0.06-0.05,0.1l-5.14,11.97 c-0.15,0.31-0.27,0.66-0.36,1.01c-0.01,0.04-0.02,0.08-0.02,0.12l-1.85,16.2C43.27,60.14,40.3,60.99,37.71,60.99L37.71,60.99z" style="fill:#FFCA28;"/>
        <path d="M51.21,16.29c0.68,0,1.25,0.16,1.71,0.49c1.75,1.23,1.49,2.73,0.36,6.4l-0.11,0.35l-2.89,5.13 c-0.04,0.06-0.07,0.13-0.1,0.19l-5.12,11.93c-0.18,0.39-0.33,0.79-0.43,1.2c-0.02,0.08-0.04,0.17-0.05,0.25l-1.84,16.1 c-0.31,0.8-2.39,1.65-5.04,1.65c-0.75,0-1.47-0.07-2.08-0.21l-4.41-0.99c-1.15-0.26-2.06-0.88-2.5-1.71 c-0.22-0.41-0.41-1.07-0.1-1.86l7.89-19.85c0.05-0.13,0.12-0.27,0.2-0.39l9.79-16.16C47.33,17.42,49.45,16.29,51.21,16.29 M51.21,14.29c-2.54,0-5.27,1.57-6.44,3.49l-9.79,16.16c-0.14,0.22-0.25,0.45-0.34,0.69l-7.89,19.85 c-1.07,2.69,0.75,5.53,4.02,6.26l4.41,0.99c0.76,0.17,1.63,0.26,2.52,0.26c3.07,0,6.46-1.03,7.01-3.25l1.86-16.27 c0.07-0.29,0.17-0.58,0.31-0.86l5.14-11.97l3-5.32c1.08-3.54,2.34-6.88-0.94-9.18C53.23,14.54,52.24,14.29,51.21,14.29 L51.21,14.29z" style="fill:#EDA600;"/>
      </g>
      <g>
        <path d="M28.64,58.65c-0.45,0-0.89-0.04-1.33-0.12l-3.71-0.71c-1.6-0.3-2.9-1.13-3.55-2.26 c-0.47-0.81-0.56-1.7-0.26-2.57l6.06-17.51c0.07-0.2,0.16-0.4,0.27-0.59l8.53-13.57c0.02-0.03,0.04-0.06,0.05-0.09 c1.08-2.21,3.5-3.76,5.88-3.76c0.83,0,2.35,0.22,3.15,1.69c1.4,2.59,0.91,5.45-1.56,8.99c-0.04,0.05-0.07,0.11-0.09,0.17 l-4.73,10.63c-0.17,0.38-0.29,0.77-0.37,1.17l-2.8,14.91C33.79,57.09,31.41,58.65,28.64,58.65 C28.64,58.65,28.64,58.65,28.64,58.65z" style="fill:#FFCA28;"/>
        <path d="M40.58,18.48c0.75,0,1.75,0.2,2.27,1.16c1.2,2.22,0.73,4.75-1.5,7.95 c-0.07,0.1-0.13,0.21-0.19,0.33l-4.73,10.63c-0.2,0.45-0.35,0.92-0.44,1.4l-2.8,14.91c-0.29,1.57-2.29,2.8-4.55,2.8 c-0.38,0-0.77-0.04-1.14-0.11l-3.71-0.71c-1.3-0.25-2.37-0.91-2.88-1.78c-0.32-0.56-0.38-1.14-0.18-1.74l6.06-17.51 c0.05-0.13,0.1-0.26,0.17-0.39l8.53-13.56c0.04-0.06,0.07-0.13,0.11-0.19C36.62,19.57,38.88,18.48,40.58,18.48 M40.58,16.48 c-2.55,0-5.46,1.6-6.78,4.32l-8.55,13.6c-0.14,0.25-0.26,0.5-0.35,0.76l-6.06,17.51c-0.94,2.72,1.11,5.48,4.57,6.14l3.71,0.71 c0.51,0.1,1.02,0.14,1.52,0.14c3.17,0,6.03-1.84,6.52-4.43l2.8-14.91c0.06-0.32,0.16-0.64,0.3-0.95l4.73-10.63 c2.16-3.11,3.49-6.58,1.62-10.04C43.78,17.17,42.26,16.48,40.58,16.48L40.58,16.48z" style="fill:#EDA600;"/>
      </g>
      <g>
        <radialGradient id="SVGID_3_" cx="167.9044" cy="52.8361" gradientTransform="matrix(0.9955 -0.0948 0.0948 0.9955 -121.0135 9.0531)" gradientUnits="userSpaceOnUse" r="57.3871">
          <stop offset="0.6592" style="stop-color:#FFCA28"/>
          <stop offset="1" style="stop-color:#FFB300"/>
        </radialGradient>
        <path d="M14.92,44.23c1.26-3.43,6.11-3.42,7.41-0.01c0.86,2.27,1.66,4.33,1.71,5.43 c0.13,2.94-0.75,4.63-0.75,4.63s3.52-3.14,16.69-0.1c15.39,3.55,21.42,7.28,21.88,11.85c0.91,8.95,3.1,19.02,1.83,28.08 c-1.43,10.22-8.05,19.6-8.05,19.6H18.9c0,0,1.93-8.82-3.78-14.25c0,0-8.96-10.82-9.58-16.03L4.11,67.32 c-0.49-3.96,0.77-7.93,3.45-10.88c1.23-1.36,2.62-2.98,3.98-4.8C12.5,50.36,13.76,47.37,14.92,44.23z" style="fill:url(#SVGID_3_);"/>
      </g>
      <linearGradient id="SVGID_4_" gradientUnits="userSpaceOnUse" x1="27.2491" x2="22.2491" y1="43.0234" y2="96.2734">
        <stop offset="0.6488" style="stop-color:#FFCA28"/>
        <stop offset="1" style="stop-color:#FFB300"/>
      </linearGradient>
      <path d="M42.7,79.47c1,7.31-6.25,13.7-13.73,14.62C12.51,96.11,9.61,86.2,7.59,79.11 c-6.27-22.05,6.16-22.94,8.77-32.17c1.04-3.68,2.81-4.87,4.29-2.95c3,3.89,1.58,8.19-0.46,16.83c-0.77,3.25,1.8,5.14,5.46,5.33 C33.14,66.52,41.77,72.62,42.7,79.47z" style="fill:url(#SVGID_4_);"/>
      <g>
        <path d="M40.21,56.4c0.14-0.69,0.3-1.37,0.5-2.04c2.12,0.5,4.04,0.98,5.8,1.46 c-0.04,0.71-0.14,1.41-0.28,2.1C44.44,57.42,42.44,56.92,40.21,56.4z" style="fill:#EDA600;"/>
        <path d="M7.55,56.44c1.23-1.36,2.62-2.98,3.98-4.8c0.97-1.28,2.22-4.27,3.38-7.41 c0.63-1.71,2.16-2.57,3.69-2.57c1.53,0,3.07,0.85,3.72,2.56c0.86,2.27,1.66,4.33,1.71,5.43c0.13,2.94-0.75,4.63-0.75,4.63 s1.6-1.43,6.67-1.43c1.79,0,4.02,0.18,6.75,0.66c-0.19,0.68-0.35,1.36-0.49,2.06c-2.32-0.4-4.42-0.62-6.27-0.62 c-3.57,0-5.04,0.77-5.31,0.93c-0.39,0.41-0.89,0.61-1.41,0.61c-0.42,0-0.86-0.14-1.24-0.4c-0.87-0.61-1.08-1.82-0.59-2.76 c0.01-0.01,0.63-1.33,0.53-3.59c-0.03-0.72-0.83-2.82-1.48-4.51l-0.1-0.27c-0.43-1.12-1.45-1.21-1.75-1.21 c-0.3,0-1.31,0.09-1.72,1.19c-1.5,4.06-2.7,6.66-3.67,7.95c-1.25,1.65-2.63,3.31-4.11,4.94c-2.27,2.51-3.34,5.86-2.92,9.21 c0,0.02,0.01,0.05,0.01,0.07l1.43,16.09c0.42,3.33,5.73,10.8,9.03,14.82c4.44,4.3,4.82,10.23,4.61,13.58h33.17 c1.59-2.77,5.96-10.93,7.06-18.83c1.04-7.42-0.08-15.07-1.16-22.46c-0.2-1.33-0.39-2.67-0.57-3.99 c-0.41-2.98-2.99-5.07-9.63-7.24c0.15-0.69,0.26-1.39,0.34-2.09c7.62,2.46,10.82,5.02,11.38,9.05c1.22,8.91,3,17.97,1.73,27.04 c-1.43,10.22-7.95,20.65-7.95,20.65H18.9c0,0,1.93-8.82-3.78-14.25c0,0-8.96-10.82-9.58-16.03L4.11,67.32 C3.61,63.36,4.87,59.39,7.55,56.44z" style="fill:#EDA600;"/>
      </g>
      <path d="M43.72,83.86c-1.83-11.11-8.01-15.99-17.45-16.57c-1.89-0.12-3.74-0.04-4.82-1.19 c-2.92-3.09-1.81-6.72-0.92-9.63c0.33-1.07,0.64-2.08,0.74-2.97c0.06-0.58,0.58-1,1.16-0.93c0.58,0.06,0.99,0.58,0.93,1.16 c-0.12,1.09-0.46,2.19-0.81,3.35c-0.85,2.76-1.65,5.38,0.43,7.57c0.52,0.55,1.91,0.66,3.38,0.76c1.47,0.11,3.13,0.23,4.65,0.83 c6.44,2.56,10.81,5.15,12.81,17.32C43.92,84.15,43.81,84.41,43.72,83.86z" style="fill:#EDA600;"/>
    </g>
  </g>
</svg>