<?xml version="1.0" encoding="UTF-8" standalone="no"?>
<!DOCTYPE svg PUBLIC "-//W3C//DTD SVG 1.1//EN" "http://www.w3.org/Graphics/SVG/1.1/DTD/svg11.dtd">
<svg width="100%" height="100%" viewBox="0 0 128 128" version="1.1" xmlns="http://www.w3.org/2000/svg" xmlns:xlink="http://www.w3.org/1999/xlink" xml:space="preserve" xmlns:serif="http://www.serif.com/" style="fill-rule:evenodd;clip-rule:evenodd;stroke-linejoin:round;stroke-miterlimit:1.41421;">
    <g transform="matrix(1.62509,0.938249,-0.5,0.866025,-7.55414,-51.0276)">
        <g transform="matrix(0.788218,0,0,4.17175,46.6318,-59.2219)">
            <path d="M24,22.325C24,22.08 23.44,21.881 22.75,21.881L20.25,21.881C19.56,21.881 19,22.08 19,22.325L19,42.09C19,42.335 19.56,42.534 20.25,42.534L22.75,42.534C23.44,42.534 24,42.335 24,42.09L24,22.325Z" style="fill:rgb(224,224,224);"/>
        </g>
        <g transform="matrix(0.788218,-1.7502e-16,5.36113e-17,1.5808,46.6318,50.9801)">
            <path d="M24,23.051C24,22.405 23.44,21.881 22.75,21.881L20.25,21.881C19.56,21.881 19,22.405 19,23.051L19,41.364C19,42.01 19.56,42.534 20.25,42.534L22.75,42.534C23.44,42.534 24,42.01 24,41.364L24,23.051Z" style="fill:rgb(234,124,113);"/>
        </g>
        <g transform="matrix(1.57644,0,0,1.57644,29.6851,-27.6559)">
            <path d="M24,24.227C24,22.932 23.44,21.881 22.75,21.881L20.25,21.881C19.56,21.881 19,22.932 19,24.227L19,40.188C19,41.483 19.56,42.534 20.25,42.534L22.75,42.534C23.44,42.534 24,41.483 24,40.188L24,24.227Z" style="fill:rgb(76,76,76);"/>
        </g>
    </g>
    <g transform="matrix(2.26269,1.30636,-1.30636,2.26269,108.893,-126.457)">
        <circle cx="21.5" cy="92.534" r="2.346" style="fill:rgb(211,211,211);"/>
    </g>
</svg>
