<svg width="128" height="128" style="enable-background:new 0 0 128 128;" xmlns="http://www.w3.org/2000/svg" xmlns:xlink="http://www.w3.org/1999/xlink">
  <style type="text/css">
.st0{fill:#FE9040;}
.st1{fill:#FAFAFA;}
.st2{fill:#2F2F2F;}
.st3{fill:#FFE0B2;}
.st4{fill:none;stroke:#2F2F2F;stroke-width:3;stroke-miterlimit:10;}
.st5{fill:none;stroke:#2F2F2F;stroke-width:3;stroke-linecap:round;stroke-miterlimit:10;}
.st6{fill:#E1E1E1;}
  </style>
  <g>
    <path class="st0" d="M122.7,71.1c-2.2-2.3-4.6-3.6-6.3-4.3c-0.9-0.4,1.9-0.2,4.1-1.3c0.7-0.4,1.3-0.9,1.6-1.4 c0.5-0.6,0.1-1.6-0.7-1.6c-0.9,0-2.1-0.2-3.1-0.6c-2.5-1-3.3-2.9-3.3-2.9v-0.8c0,0,5.3-10.2,6.4-25.4c1.1-15.2-4.1-28.5-7.7-30.3 c-3.6-1.7-11.4-0.3-20.2,6.8C86.7,14.8,81.3,21.5,80,24.5c-0.2,0.5-0.8,0.7-1.3,0.5c-1.7-0.7-6.5-2-14.2-2.1v0v0c0,0-0.1,0-0.1,0 c-0.1,0-0.2,0-0.3,0v0c0,0-0.1,0-0.1,0c0,0-0.1,0-0.1,0v0c-0.1,0-0.2,0-0.3,0c0,0-0.1,0-0.1,0v0v0C55.8,23,51,24.3,49.3,25 c-0.5,0.2-1.1,0-1.3-0.5c-1.4-3-6.7-9.7-13.4-15.1C25.8,2.3,18,0.9,14.3,2.6c-3.6,1.7-8.8,15-7.7,30.3C7.7,48.1,13,58.3,13,58.3 v0.8c0,0-0.8,1.9-3.3,2.9c-1,0.4-2.2,0.5-3.1,0.6c-0.8,0-1.2,1-0.7,1.6c0.4,0.5,0.9,1,1.6,1.4c2.1,1.1,4.9,0.9,4.1,1.3 c-1.7,0.7-4.1,2-6.3,4.3C3.1,73.4,2.2,77,2,79.6c-0.1,0.8,0.8,1.3,1.5,1c1.5-0.8,3.9-1.8,6.3-1.7c3.9,0.1,8.9,6.6,11.2,11.1 c2.3,4.4,26.8,29,42.5,30.1v0.1v0c0,0,0.1,0,0.1,0c0.1,0,0.2,0,0.3,0v0c0,0,0.1,0,0.1,0c0,0,0.1,0,0.1,0v0c0.1,0,0.2,0,0.3,0 c0,0,0.1,0,0.1,0v0V120c15.7-1,40.2-25.7,42.5-30.1c2.4-4.5,7.4-11,11.2-11.1c2.4-0.1,4.8,0.9,6.3,1.7c0.7,0.4,1.5-0.2,1.5-1 C125.8,77,124.9,73.4,122.7,71.1z"/>
    <path class="st0" d="M123.8,87.9c-2.9-4-7.3-4.3-7.3-4.3c0.5-0.4,1.2-0.6,1.9-0.6c0.8-0.1,1.2-1.1,0.6-1.7 c-1.1-1.1-2.4-1.5-2.9-1.7c-0.1,0-0.3-0.1-0.4-0.2c-12.7-12.2-47.5,17-51.4,20.3c-0.1,0.1-0.3,0.2-0.5,0.4 c-0.1-0.1-0.3-0.3-0.4-0.4c-3.8-3.3-38.7-32.4-51.4-20.3c-0.1,0.1-0.2,0.2-0.4,0.2c-0.5,0.1-1.8,0.6-2.9,1.7 c-0.6,0.6-0.2,1.6,0.6,1.7c0.7,0.1,1.4,0.3,1.9,0.6c0,0-4.4,0.3-7.3,4.3c-0.5,0.7,0,1.6,0.8,1.6c1.9-0.1,4.9,0.4,6.8,3.2 c3.1,4.5,4.9,9.2,11.8,13.2c7.2,4.1,11.5,4.9,18.8,9.3c6.7,4,12,10.7,21.3,10.9v0c0.1,0,0.1,0,0.2,0c0.1,0,0.1,0,0.2,0v0 c9.3-0.2,14.8-6.8,21.5-10.9c7.4-4.4,11.7-5.2,18.8-9.3c6.9-4,8.7-8.7,11.8-13.2c1.9-2.8,4.9-3.3,6.8-3.2 C123.8,89.5,124.3,88.6,123.8,87.9z"/>
    <path class="st1" d="M119.6,86.2c-1-0.6-2.2-1.1-3.6-1.2c-1-0.1-1.9-0.1-2.7,0c-1.1,0.2-1.6-1.3-0.6-1.9c0.1-0.1,0.2-0.1,0.3-0.2 c0.2-0.1,0.4-0.2,0.6-0.2c1-0.3,0.9-1.7-0.1-1.9c-1.5-0.3-3.4-0.4-5.4,0.2c-3,0.8-5.4,2.9-6,3c-1.3,0.2-1-1-1-1s0.2-1,1.6-2.1 c0.8-0.6,0.2-1.9-0.7-1.8c-2.3,0.2-5.2,0.7-7.8,1.9c-6.5,2.8-15.6,9.3-22.4,15.9c-2.7,2.6-6,3.6-7.6,3.9c-1.7-0.3-5-1.3-7.5-3.9 C50,90.1,40.5,83.8,34,80.9c-2.6-1.1-5.5-1.6-7.8-1.9c-1-0.1-1.5,1.1-0.7,1.8c1.3,1.1,1.6,2.1,1.6,2.1s0.3,1.2-1,1 c-0.6-0.1-3-2.2-6-3c-2-0.5-3.9-0.4-5.4-0.2c-1,0.2-1.1,1.6-0.1,1.9c0.2,0.1,0.4,0.2,0.6,0.2c0.1,0.1,0.2,0.1,0.3,0.2 c1,0.6,0.5,2-0.6,1.9c-0.8-0.1-1.7-0.2-2.7,0c-1.4,0.2-2.6,0.7-3.6,1.2c-0.8,0.5-0.6,1.7,0.3,1.8c0.7,0.2,1.5,0.4,2.3,0.9 c4.5,2.7,5.2,8.2,10.4,12.5c7.2,6,17.7,7.2,27,14.8c8.6,7,12.5,7.7,15.1,7.7v0c0,0,0,0,0,0c0.2,0,0.4,0,0.6,0l0,0 c2.6-0.1,6.8-0.7,15.4-7.7c9.3-7.6,19.8-8.9,27-14.8c5.2-4.3,5.9-9.7,10.4-12.5c0.8-0.5,1.6-0.8,2.3-0.9 C120.2,87.8,120.4,86.6,119.6,86.2z"/>
    <path class="st2" d="M64,93.8c-5.2,0-9.3,2-8.7,5.1c0.8,3.7,5.5,6.9,8.8,6.9c3.2,0,7.7-3,8.5-6.9C73.2,96.3,69.6,93.8,64,93.8z"/>
    <g>
      <path class="st2" d="M91.2,67.1c-0.6-1.9-5.3-4.4-10.1-1.1c-4.7,3.2-4.3,10.6-3.8,10.9c0.7,0.4,0.9-0.8,3.2-1.1 c1.5-0.2,4.3,0.9,7.8-1.6C91.3,72.1,91.6,68.4,91.2,67.1z"/>
      <path class="st2" d="M36.8,67.1c0.6-1.9,5.3-4.4,10.1-1.1c4.7,3.2,4.3,10.6,3.8,10.9c-0.7,0.4-0.9-0.8-3.2-1.1 c-1.5-0.2-4.3,0.9-7.8-1.6C36.7,72.1,36.4,68.4,36.8,67.1z"/>
    </g>
    <path class="st3" d="M16.2,7.1c1.8-2,9,0.8,17.1,12.8c4.2,6.2,4.7,14.4,4.7,14.4s-1.9-2.8-5.7-2.3c-0.3,0-0.6,0.4-0.4,0.7 c0.5,1.2,1.6,4.2,0.5,5.9c0,0-1.4-4-6.4-3.7c-0.4,0-0.6,0.5-0.4,0.8c0.8,1.1,2.3,3.5,2.7,6.3c0,0-2-0.1-3.9-2 c-0.3-0.3-0.8-0.1-0.9,0.3c-0.1,1.2,0.1,3,1.1,4.2c0,0-0.8,0.4-1.8-0.1c-0.4-0.2-0.8,0.1-0.7,0.5c0.1,0.6,0.2,1.4,0.6,2.1 c0,0-0.5,0.2-1.4-0.1c-0.3-0.1-0.6,0-0.7,0.4c-0.1,0.5-0.2,1.2,0,1.7c0,0-2.2,3.5-5,8.1c0,0-5.8-9.3-5.8-26 C10,16.4,13.3,10.2,16.2,7.1z"/>
    <path class="st3" d="M111.8,7.1c-1.8-2-9,0.8-17.1,12.8C90.5,26.2,90,34.3,90,34.3s1.9-2.8,5.7-2.3c0.3,0,0.6,0.4,0.4,0.7 c-0.5,1.2-1.6,4.2-0.5,5.9c0,0,1.4-4,6.4-3.7c0.4,0,0.6,0.5,0.4,0.8c-0.8,1.1-2.3,3.5-2.7,6.3c0,0,2-0.1,3.9-2 c0.3-0.3,0.8-0.1,0.9,0.3c0.1,1.2-0.1,3-1.1,4.2c0,0,0.8,0.4,1.8-0.1c0.4-0.2,0.8,0.1,0.7,0.5c-0.1,0.6-0.2,1.4-0.6,2.1 c0,0,0.5,0.2,1.4-0.1c0.3-0.1,0.6,0,0.7,0.4c0.1,0.5,0.2,1.2,0,1.7c0,0,2.2,3.5,5,8.1c0,0,5.8-9.3,5.8-26 C118,16.4,114.7,10.2,111.8,7.1z"/>
    <line class="st4" x1="64.1" x2="64.1" y1="110.8" y2="103.9"/>
    <path class="st5" d="M53,115.1c1.7,0.1,6.2,0.7,11.2-5.1"/>
    <path class="st5" d="M75.3,115.1c-1.7,0.1-6.2,0.7-11.2-5.1"/>
    <path class="st2" d="M59.7,115.6c0,0,1.9-0.8,4.5-0.8s4.8,0.9,4.8,0.9l-4.8-4.5L59.7,115.6z"/>
    <circle class="st6" cx="43.8" cy="67" r="1"/>
    <circle class="st6" cx="84.2" cy="67" r="1"/>
  </g>
</svg>