<svg width="128" height="128" style="enable-background:new 0 0 128 128;" xmlns="http://www.w3.org/2000/svg" xmlns:xlink="http://www.w3.org/1999/xlink">
  <g id="Layer_2">
    <g>
      <g>
        <polygon points="17.47,110.09 32.21,97.57 10.65,95.34 27.07,81.39 9.44,77.35 24.74,69.23 11.05,58.4 29.43,55.34 18.77,41.27 37.65,44.11 33.96,25.51 48.44,35.98 52.79,16.63 62.06,25.71 62.06,122.15 " style="fill:#6B4230;"/>
        <path d="M53.92,20.46l6.19,6.07v93.09l-38.57-10.43L30,102l6.94-5.89l-9.05-0.94l-12.51-1.29l10-8.49 l5.91-5.02l-7.56-1.73l-8.77-2.01l8.06-4.28l5.26-2.79l-4.67-3.69l-7.92-6.26l10.89-1.82l6.34-1.06l-3.88-5.12l-5.84-7.7 l11.42,1.72l5.47,0.82l-1.08-5.42l-2.19-11.04l8.09,5.85l4.78,3.45l1.29-5.75L53.92,20.46 M51.66,12.81l-4.47,19.87l-16.1-11.64 l4.11,20.74l-20.86-3.14l11.61,15.32L6.4,57.21l14.8,11.7L3.93,78.08l18.93,4.34L5.92,96.81l21.57,2.23L13.4,111L64,124.69v-99.8 L51.66,12.81L51.66,12.81z" style="fill:#4F3124;"/>
      </g>
      <g>
        <polygon points="65.87,25.71 75.14,16.63 79.49,35.98 93.97,25.51 90.28,44.11 109.16,41.27 98.49,55.34 116.88,58.4 103.18,69.23 118.48,77.35 100.86,81.39 117.28,95.34 95.71,97.57 110.46,110.09 65.87,122.15 " style="fill:#6B4230;"/>
        <path d="M74.01,20.46l2.94,13.07l1.29,5.75l4.78-3.45l8.09-5.85l-2.19,11.04l-1.08,5.42l5.47-0.82 l11.42-1.72l-5.84,7.7L95,56.73l6.34,1.06l10.89,1.82l-7.92,6.26l-4.67,3.69l5.26,2.79l8.06,4.28l-8.77,2.01l-7.56,1.73 l5.91,5.02l10,8.49l-12.51,1.29l-9.05,0.94l6.94,5.89l8.46,7.19l-38.57,10.43V26.53L74.01,20.46 M76.27,12.81L63.93,24.89v99.8 l50.6-13.68l-14.09-11.97l21.57-2.23l-16.94-14.39L124,78.08l-17.28-9.17l14.8-11.7l-19.54-3.26l11.61-15.32l-20.86,3.14 l4.11-20.74l-16.1,11.64L76.27,12.81L76.27,12.81z" style="fill:#4F3124;"/>
      </g>
    </g>
    <g>
      <polygon points="20.98,119.96 30.82,106.27 13.86,101.22 29.48,90.14 9.88,86.15 20.05,76.78 9.68,69.16 23.7,61.69 14.69,48.86 30.31,49.14 24.23,31.35 45.42,37.81 40.76,20.57 56.28,29.05 64,13.99 71.72,29.05 87.24,20.57 82.58,37.81 103.77,31.35 97.69,49.14 113.32,48.86 104.3,61.69 118.32,69.16 107.95,76.78 118.13,86.15 98.53,90.14 114.14,101.22 97.24,106.26 106.44,119.63 63.99,123.93 " style="fill:#6B4230;"/>
      <path d="M64,18.15l5.15,10.03l1.78,3.47l3.42-1.87l9.91-5.41l-2.61,9.64l-1.79,6.62l6.56-2l14.36-4.38 l-4.01,11.72l-1.75,5.12l5.41-0.1l9.19-0.16l-5.64,8.02l-2.47,3.51l3.79,2.02l9.46,5.04l-6.08,4.47l-3.71,2.73l3.39,3.12l5.75,5.3 l-11.68,2.38l-8.58,1.75l7.14,5.07l8.87,6.29l-10.67,3.18l-5,1.49l2.96,4.3l5.91,8.59l-39.08,3.95l-39.53-3.65l6.35-8.83 l3.12-4.33l-5.11-1.52l-10.67-3.18l8.87-6.29l7.14-5.07l-8.58-1.75l-11.68-2.38l5.75-5.3l3.39-3.12l-3.71-2.73l-6.08-4.47 l9.46-5.04l3.79-2.02l-2.47-3.51l-5.64-8.02l9.19,0.16l5.41,0.1l-1.75-5.12l-4.01-11.72l14.36,4.38l6.56,2l-1.79-6.62l-2.61-9.64 l9.91,5.41l3.42,1.87l1.78-3.47L64,18.15 M64,9.83l-8.52,16.62l-17.71-9.68L42.7,35l-21.46-6.54l6.41,18.74l-16.66-0.3l9.93,14.13 L6.13,68.91l10.94,8.04L5.86,87.27l18.95,3.86l-15.22,10.8l18.14,5.4L17.5,121.54l46.5,4.29l45.82-4.63l-9.54-13.87l18.14-5.4 l-15.22-10.8l18.95-3.86l-11.21-10.33l10.94-8.04l-14.79-7.88l9.93-14.13l-16.66,0.3l6.41-18.74L85.31,35l4.93-18.23l-17.71,9.68 L64,9.83L64,9.83z" style="fill:#4F3124;"/>
    </g>
    <g>
      <linearGradient id="SVGID_1_" gradientUnits="userSpaceOnUse" x1="64" x2="64" y1="41.459" y2="122.4893">
        <stop offset="0" style="stop-color:#FFDB99"/>
        <stop offset="0.0584" style="stop-color:#FED894"/>
        <stop offset="0.6501" style="stop-color:#F5BB67"/>
        <stop offset="0.9488" style="stop-color:#F2B056"/>
      </linearGradient>
      <path d="M63.86,122.48c-14.37-0.49-23.3-3.67-28.1-10.02c-6.46-8.55-6.37-23.73,0.3-50.74 c3.7-14.96,13.36-20.26,20.52-20.26c2.69,0,5.01,0.77,6.36,2.12L64,44.63l1.06-1.05c1.36-1.35,3.68-2.12,6.36-2.12 c7.15,0,16.82,5.31,20.52,20.26c6.68,27.01,6.77,42.19,0.3,50.74c-4.8,6.35-13.73,9.53-28.1,10.02l-0.16,0.01L63.86,122.48z" style="fill:url(#SVGID_1_);"/>
      <path d="M71.42,42.96c6.61,0,15.57,5.01,19.06,19.12c6.56,26.53,6.73,41.32,0.56,49.47 c-4.5,5.96-13.07,8.95-26.96,9.43l-0.08,0l-0.1,0c-13.89-0.47-22.45-3.47-26.96-9.43c-6.16-8.15-5.99-22.95,0.56-49.47 c3.49-14.12,12.45-19.12,19.06-19.12c2.26,0,4.24,0.63,5.31,1.68L64,46.74l2.11-2.09C67.18,43.59,69.16,42.96,71.42,42.96 M71.42,39.96c-3.12,0-5.8,0.94-7.42,2.55c-1.63-1.61-4.3-2.55-7.42-2.55c-7.71,0-18.01,5.76-21.88,21.4 C23.57,106.41,29,122.81,64,123.98V124c0,0-0.07-0.01,0-0.01c0.07,0,0,0.01,0,0.01v-0.02c35-1.18,40.43-17.57,29.3-62.62 C89.43,45.72,79.13,39.96,71.42,39.96L71.42,39.96z" style="fill:#F7A11E;"/>
    </g>
    <g>
      <g>
        <circle cx="48.83" cy="59.83" r="5.17"/>
        <path d="M48.83,55.67c2.3,0,4.17,1.87,4.17,4.17S51.13,64,48.83,64s-4.17-1.87-4.17-4.17 S46.53,55.67,48.83,55.67 M48.83,53.67c-3.4,0-6.17,2.77-6.17,6.17S45.43,66,48.83,66S55,63.23,55,59.83 S52.23,53.67,48.83,53.67L48.83,53.67z" style="fill:#FEEDC9;"/>
      </g>
      <g>
        <circle cx="79.17" cy="59.83" r="5.17"/>
        <path d="M79.17,55.67c2.3,0,4.17,1.87,4.17,4.17S81.47,64,79.17,64S75,62.13,75,59.83 S76.87,55.67,79.17,55.67 M79.17,53.67c-3.4,0-6.17,2.77-6.17,6.17S75.77,66,79.17,66c3.4,0,6.17-2.77,6.17-6.17 S82.57,53.67,79.17,53.67L79.17,53.67z" style="fill:#FEEDC9;"/>
      </g>
    </g>
    <g>
      <defs>
        <path id="SVGID_2_" d="M93.3,60.56c-5.43-21.16-23.7-23.53-29.34-18.14c-5.64-5.38-23.84-3.01-29.27,18.14 C23.55,103.92,29,119.7,64,120.83v0.02c0,0-0.07-0.01,0-0.01c0.07,0,0,0.01,0,0.01v-0.02C99,119.7,104.43,103.92,93.3,60.56z"/>
      </defs>
      <clipPath id="SVGID_3_">
        <use style="overflow:visible;" xlink:href="#SVGID_2_"/>
      </clipPath>
      <ellipse cx="64" cy="113.71" rx="21.88" ry="22.38" style="clip-path:url(#SVGID_3_);fill:#FEE7B4;"/>
    </g>
    <g>
      <g>
        <defs>
          <path id="SVGID_4_" d="M71.77,78.07l0.01,0.48c0.02,1.34-0.3,2.61-0.88,3.72c-0.23,0.44-0.51,0.86-0.82,1.25 c-0.31,0.39-0.66,0.75-1.04,1.07c-1.33,1.13-3.04,1.83-4.92,1.86l0,0c-0.23,0-0.47,0-0.7-0.02c-0.23-0.02-0.46-0.04-0.68-0.08 c-0.67-0.11-1.32-0.3-1.92-0.57c-0.6-0.27-1.17-0.61-1.68-1.02c-0.39-0.31-0.75-0.66-1.07-1.04c-0.32-0.38-0.61-0.79-0.86-1.23 c-0.62-1.09-0.98-2.35-1-3.69l-0.01-0.48c3.46-0.06,7.74-1.97,7.68-5.85v0h0v0C63.97,76.36,68.31,78.13,71.77,78.07z"/>
        </defs>
        <defs>
          <path id="SVGID_5_" d="M71.77,78.07l0.01,0.48c0.02,1.34-0.3,2.61-0.88,3.72c-0.23,0.44-0.51,0.86-0.82,1.25 c-0.31,0.39-0.66,0.75-1.04,1.07c-1.33,1.13-3.04,1.83-4.92,1.86l0,0c-0.23,0-0.47,0-0.7-0.02c-0.23-0.02-0.46-0.04-0.68-0.08 c-0.67-0.11-1.32-0.3-1.92-0.57c-0.6-0.27-1.17-0.61-1.68-1.02c-0.39-0.31-0.75-0.66-1.07-1.04c-0.32-0.38-0.61-0.79-0.86-1.23 c-0.62-1.09-0.98-2.35-1-3.69l-0.01-0.48c3.46-0.06,7.74-1.97,7.68-5.85v0h0v0C63.97,76.36,68.31,78.13,71.77,78.07z"/>
        </defs>
        <use style="overflow:visible;fill:#6B4230;" xlink:href="#SVGID_5_"/>
        <clipPath id="SVGID_6_">
          <use style="overflow:visible;" xlink:href="#SVGID_4_"/>
        </clipPath>
        <clipPath id="SVGID_7_" style="clip-path:url(#SVGID_6_);">
          <use style="overflow:visible;" xlink:href="#SVGID_5_"/>
        </clipPath>
        <path d="M57.68,87.68c-0.06-3.56,2.78-6.49,6.34-6.55 c3.56-0.06,6.49,2.78,6.55,6.34" style="clip-path:url(#SVGID_7_);fill:#ED7770;"/>
      </g>
      <path d=" M63.93,71.18c0.06,3.71-2.9,6.78-6.61,6.84c-1.7,0.03-3.26-0.58-4.46-1.59" style="fill:none;stroke:#6B4230;stroke-width:1.6965;stroke-linecap:round;stroke-linejoin:round;stroke-miterlimit:10;"/>
      <path d=" M63.9,71.18c0.06,3.71,3.12,6.68,6.84,6.61c1.7-0.03,3.24-0.68,4.4-1.74" style="fill:none;stroke:#6B4230;stroke-width:1.6965;stroke-linecap:round;stroke-linejoin:round;stroke-miterlimit:10;"/>
    </g>
    <path d="M51.23,90.66c1.84,0.62,3.8,0.99,5.46,1.99c1.66,1.01,3,2.91,2.59,4.81 c-0.54,2.5-3.57,3.48-6.12,3.71c-2.75,0.24-5.52,0.15-8.24-0.29c-2.61-0.42-5.34-1.24-7.05-3.26c-2.02-2.37-2.17-5.75-2.22-8.86 c-0.06-3.98,1.6-9.42,5.85-5.27C44.57,86.51,46.97,89.22,51.23,90.66z" style="fill:#C49D6B;"/>
    <path d="M76.77,90.66c-1.84,0.62-3.8,0.99-5.46,1.99c-1.66,1.01-3,2.91-2.59,4.81 c0.54,2.5,3.57,3.48,6.12,3.71c2.75,0.24,5.52,0.15,8.24-0.29c2.61-0.42,5.34-1.24,7.05-3.26c2.02-2.37,2.17-5.75,2.22-8.86 c0.06-3.98-1.6-9.42-5.85-5.27C83.43,86.51,81.03,89.22,76.77,90.66z" style="fill:#C49D6B;"/>
    <path d="M47.8,105.56c2.71,0.82,5.3,2.53,6.59,5.11c0.87,1.74,1.04,4.03-0.17,5.52 c-1.09,1.35-2.96,1.7-4.67,1.73c-2.76,0.04-5.83-0.26-8.23-1.67c-2.72-1.6-7.57-7.54-4.36-10.87 C39,103.27,45.45,104.85,47.8,105.56z" style="fill:#F3B55E;"/>
    <path d="M80.2,105.56c-2.71,0.82-5.3,2.53-6.59,5.11c-0.87,1.74-1.04,4.03,0.17,5.52 c1.09,1.35,2.96,1.7,4.67,1.73c2.76,0.04,5.83-0.26,8.23-1.67c2.72-1.6,7.57-7.54,4.36-10.87C89,103.27,82.55,104.85,80.2,105.56z" style="fill:#F3B55E;"/>
    <radialGradient id="SVGID_8_" cx="63.8646" cy="66.5031" gradientUnits="userSpaceOnUse" r="5.2605">
      <stop offset="4.651163e-03" style="stop-color:#73450B"/>
      <stop offset="0.1548" style="stop-color:#673E0D"/>
      <stop offset="0.7111" style="stop-color:#3F2713"/>
      <stop offset="1" style="stop-color:#301E16"/>
    </radialGradient>
    <path d="M63.93,72.76c2.19,0,3.48-1.95,4.23-3.57c0.75-1.62-0.1-4.19-1.46-4.19h-5.55 c-1.36,0-2.2,2.57-1.46,4.19C60.44,70.81,61.73,72.76,63.93,72.76z" style="fill:url(#SVGID_8_);"/>
  </g>
  <g id="Layer_1" style="display:none;">
    <g style="display:inline;">
      <g style="opacity:0.6;">
        <circle cx="64" cy="64" r="28" style="opacity:0.61;fill:none;stroke:#000000;stroke-width:0.2625;stroke-miterlimit:10;"/>
        <line style="opacity:0.61;fill:none;stroke:#000000;stroke-width:0.25;stroke-miterlimit:10;" x1="84" x2="84" y1="0" y2="128"/>
        <line style="opacity:0.61;fill:none;stroke:#000000;stroke-width:0.25;stroke-miterlimit:10;" x1="44" x2="44" y1="0" y2="128"/>
        <line style="opacity:0.61;fill:none;stroke:#000000;stroke-width:0.25;stroke-miterlimit:10;" x1="64" x2="64" y1="0" y2="128"/>
        <line style="opacity:0.61;fill:none;stroke:#000000;stroke-width:0.25;stroke-miterlimit:10;" x1="128" x2="0" y1="64" y2="64"/>
        <line style="opacity:0.61;fill:none;stroke:#000000;stroke-width:0.25;stroke-miterlimit:10;" x1="128" x2="0" y1="44" y2="44"/>
        <line style="opacity:0.61;fill:none;stroke:#000000;stroke-width:0.25;stroke-miterlimit:10;" x1="128" x2="0" y1="83.75" y2="83.75"/>
        <line style="opacity:0.61;fill:none;stroke:#000000;stroke-width:0.25;stroke-miterlimit:10;" x1="128" x2="0" y1="128" y2="0"/>
        <line style="opacity:0.61;fill:none;stroke:#000000;stroke-width:0.25;stroke-miterlimit:10;" x1="0" x2="128" y1="128" y2="0"/>
        <g style="opacity:0.61;">
          <path d="M64,4.26c32.94,0,59.74,26.8,59.74,59.74S96.94,123.74,64,123.74S4.26,96.94,4.26,64S31.06,4.26,64,4.26 M64,4 C30.86,4,4,30.86,4,64s26.86,60,60,60s60-26.86,60-60S97.14,4,64,4L64,4z"/>
        </g>
        <path d="M107.97,115.97H20.03 c-4.42,0-8.03-3.61-8.03-8.03V20.03c0-4.42,3.61-8.03,8.03-8.03h87.94c4.42,0,8.03,3.61,8.03,8.03v87.91 C116,112.36,112.39,115.97,107.97,115.97z" style="opacity:0.61;fill:none;stroke:#000000;stroke-width:0.2578;stroke-miterlimit:10;"/>
        <path d="M100,124H28c-4.4,0-8-3.6-8-8 V12c0-4.4,3.6-8,8-8h72c4.4,0,8,3.6,8,8v104C108,120.4,104.4,124,100,124z" style="opacity:0.61;fill:none;stroke:#000000;stroke-width:0.2628;stroke-miterlimit:10;"/>
        <path d="M113.77,108H14.23 C8.6,108,4,103.4,4,97.77V30.28c0-5.63,4.6-10.23,10.23-10.23h99.54c5.63,0,10.23,4.6,10.23,10.23v67.48 C124,103.4,119.4,108,113.77,108z" style="opacity:0.61;fill:none;stroke:#000000;stroke-width:0.2627;stroke-miterlimit:10;"/>
      </g>
      <g>
        <g style="opacity:0.2;">
          <defs>
            <rect id="SVGID_24_" height="128" style="opacity:0.2;" width="128" x="0" y="0"/>
          </defs>
          <clipPath id="SVGID_9_">
            <use style="overflow:visible;" xlink:href="#SVGID_24_"/>
          </clipPath>
          <g style="clip-path:url(#SVGID_9_);">
            <g>
              <line style="fill:none;stroke:#000000;stroke-width:0.25;stroke-miterlimit:10;" x1="-28" x2="-28" y1="160" y2="-32"/>
              <line style="fill:none;stroke:#000000;stroke-width:0.25;stroke-miterlimit:10;" x1="-24" x2="-24" y1="160" y2="-32"/>
              <line style="fill:none;stroke:#000000;stroke-width:0.25;stroke-miterlimit:10;" x1="-20" x2="-20" y1="160" y2="-32"/>
              <line style="fill:none;stroke:#000000;stroke-width:0.25;stroke-miterlimit:10;" x1="-16" x2="-16" y1="160" y2="-32"/>
              <line style="fill:none;stroke:#000000;stroke-width:0.25;stroke-miterlimit:10;" x1="-12" x2="-12" y1="160" y2="-32"/>
              <line style="fill:none;stroke:#000000;stroke-width:0.25;stroke-miterlimit:10;" x1="-8" x2="-8" y1="160" y2="-32"/>
              <line style="fill:none;stroke:#000000;stroke-width:0.25;stroke-miterlimit:10;" x1="-4" x2="-4" y1="160" y2="-32"/>
              <line style="fill:none;stroke:#000000;stroke-width:0.25;stroke-miterlimit:10;" x1="0" x2="0" y1="160" y2="-32"/>
              <line style="fill:none;stroke:#000000;stroke-width:0.25;stroke-miterlimit:10;" x1="4" x2="4" y1="160" y2="-32"/>
              <line style="fill:none;stroke:#000000;stroke-width:0.25;stroke-miterlimit:10;" x1="8" x2="8" y1="160" y2="-32"/>
              <line style="fill:none;stroke:#000000;stroke-width:0.25;stroke-miterlimit:10;" x1="12" x2="12" y1="160" y2="-32"/>
              <line style="fill:none;stroke:#000000;stroke-width:0.25;stroke-miterlimit:10;" x1="16" x2="16" y1="160" y2="-32"/>
              <line style="fill:none;stroke:#000000;stroke-width:0.25;stroke-miterlimit:10;" x1="20" x2="20" y1="160" y2="-32"/>
              <line style="fill:none;stroke:#000000;stroke-width:0.25;stroke-miterlimit:10;" x1="24" x2="24" y1="160" y2="-32"/>
              <line style="fill:none;stroke:#000000;stroke-width:0.25;stroke-miterlimit:10;" x1="28" x2="28" y1="160" y2="-32"/>
              <line style="fill:none;stroke:#000000;stroke-width:0.25;stroke-miterlimit:10;" x1="32" x2="32" y1="160" y2="-32"/>
              <line style="fill:none;stroke:#000000;stroke-width:0.25;stroke-miterlimit:10;" x1="36" x2="36" y1="160" y2="-32"/>
              <line style="fill:none;stroke:#000000;stroke-width:0.25;stroke-miterlimit:10;" x1="40" x2="40" y1="160" y2="-32"/>
              <line style="fill:none;stroke:#000000;stroke-width:0.25;stroke-miterlimit:10;" x1="44" x2="44" y1="160" y2="-32"/>
              <line style="fill:none;stroke:#000000;stroke-width:0.25;stroke-miterlimit:10;" x1="48" x2="48" y1="160" y2="-32"/>
              <line style="fill:none;stroke:#000000;stroke-width:0.25;stroke-miterlimit:10;" x1="52" x2="52" y1="160" y2="-32"/>
              <line style="fill:none;stroke:#000000;stroke-width:0.25;stroke-miterlimit:10;" x1="56" x2="56" y1="160" y2="-32"/>
              <line style="fill:none;stroke:#000000;stroke-width:0.25;stroke-miterlimit:10;" x1="60" x2="60" y1="160" y2="-32"/>
              <line style="fill:none;stroke:#000000;stroke-width:0.25;stroke-miterlimit:10;" x1="64" x2="64" y1="160" y2="-32"/>
              <line style="fill:none;stroke:#000000;stroke-width:0.25;stroke-miterlimit:10;" x1="68" x2="68" y1="160" y2="-32"/>
              <line style="fill:none;stroke:#000000;stroke-width:0.25;stroke-miterlimit:10;" x1="72" x2="72" y1="160" y2="-32"/>
              <line style="fill:none;stroke:#000000;stroke-width:0.25;stroke-miterlimit:10;" x1="76" x2="76" y1="160" y2="-32"/>
              <line style="fill:none;stroke:#000000;stroke-width:0.25;stroke-miterlimit:10;" x1="80" x2="80" y1="160" y2="-32"/>
              <line style="fill:none;stroke:#000000;stroke-width:0.25;stroke-miterlimit:10;" x1="84" x2="84" y1="160" y2="-32"/>
              <line style="fill:none;stroke:#000000;stroke-width:0.25;stroke-miterlimit:10;" x1="88" x2="88" y1="160" y2="-32"/>
              <line style="fill:none;stroke:#000000;stroke-width:0.25;stroke-miterlimit:10;" x1="92" x2="92" y1="160" y2="-32"/>
              <line style="fill:none;stroke:#000000;stroke-width:0.25;stroke-miterlimit:10;" x1="96" x2="96" y1="160" y2="-32"/>
              <line style="fill:none;stroke:#000000;stroke-width:0.25;stroke-miterlimit:10;" x1="100" x2="100" y1="160" y2="-32"/>
              <line style="fill:none;stroke:#000000;stroke-width:0.25;stroke-miterlimit:10;" x1="104" x2="104" y1="160" y2="-32"/>
              <line style="fill:none;stroke:#000000;stroke-width:0.25;stroke-miterlimit:10;" x1="108" x2="108" y1="160" y2="-32"/>
              <line style="fill:none;stroke:#000000;stroke-width:0.25;stroke-miterlimit:10;" x1="112" x2="112" y1="160" y2="-32"/>
              <line style="fill:none;stroke:#000000;stroke-width:0.25;stroke-miterlimit:10;" x1="116" x2="116" y1="160" y2="-32"/>
              <line style="fill:none;stroke:#000000;stroke-width:0.25;stroke-miterlimit:10;" x1="120" x2="120" y1="160" y2="-32"/>
              <line style="fill:none;stroke:#000000;stroke-width:0.25;stroke-miterlimit:10;" x1="124" x2="124" y1="160" y2="-32"/>
              <line style="fill:none;stroke:#000000;stroke-width:0.25;stroke-miterlimit:10;" x1="128" x2="128" y1="160" y2="-32"/>
              <line style="fill:none;stroke:#000000;stroke-width:0.25;stroke-miterlimit:10;" x1="132" x2="132" y1="160" y2="-32"/>
              <line style="fill:none;stroke:#000000;stroke-width:0.25;stroke-miterlimit:10;" x1="136" x2="136" y1="160" y2="-32"/>
              <line style="fill:none;stroke:#000000;stroke-width:0.25;stroke-miterlimit:10;" x1="137" x2="137" y1="166.05" y2="-25.95"/>
              <line style="fill:none;stroke:#000000;stroke-width:0.25;stroke-miterlimit:10;" x1="144" x2="144" y1="160" y2="-32"/>
              <line style="fill:none;stroke:#000000;stroke-width:0.25;stroke-miterlimit:10;" x1="148" x2="148" y1="160" y2="-32"/>
              <line style="fill:none;stroke:#000000;stroke-width:0.25;stroke-miterlimit:10;" x1="152" x2="152" y1="160" y2="-32"/>
              <line style="fill:none;stroke:#000000;stroke-width:0.25;stroke-miterlimit:10;" x1="156" x2="156" y1="160" y2="-32"/>
            </g>
            <g>
              <line style="fill:none;stroke:#000000;stroke-width:0.25;stroke-miterlimit:10;" x1="-32" x2="160" y1="-28" y2="-28"/>
              <line style="fill:none;stroke:#000000;stroke-width:0.25;stroke-miterlimit:10;" x1="-32" x2="160" y1="-24" y2="-24"/>
              <line style="fill:none;stroke:#000000;stroke-width:0.25;stroke-miterlimit:10;" x1="-32" x2="160" y1="-20" y2="-20"/>
              <line style="fill:none;stroke:#000000;stroke-width:0.25;stroke-miterlimit:10;" x1="-32" x2="160" y1="-16" y2="-16"/>
              <line style="fill:none;stroke:#000000;stroke-width:0.25;stroke-miterlimit:10;" x1="-32" x2="160" y1="-12" y2="-12"/>
              <line style="fill:none;stroke:#000000;stroke-width:0.25;stroke-miterlimit:10;" x1="-32" x2="160" y1="-8" y2="-8"/>
              <line style="fill:none;stroke:#000000;stroke-width:0.25;stroke-miterlimit:10;" x1="-32" x2="160" y1="-4" y2="-4"/>
              <line style="fill:none;stroke:#000000;stroke-width:0.25;stroke-miterlimit:10;" x1="-32" x2="160" y1="0" y2="0"/>
              <line style="fill:none;stroke:#000000;stroke-width:0.25;stroke-miterlimit:10;" x1="-32" x2="160" y1="4" y2="4"/>
              <line style="fill:none;stroke:#000000;stroke-width:0.25;stroke-miterlimit:10;" x1="-32" x2="160" y1="8" y2="8"/>
              <line style="fill:none;stroke:#000000;stroke-width:0.25;stroke-miterlimit:10;" x1="-32" x2="160" y1="12" y2="12"/>
              <line style="fill:none;stroke:#000000;stroke-width:0.25;stroke-miterlimit:10;" x1="-32" x2="160" y1="16" y2="16"/>
              <line style="fill:none;stroke:#000000;stroke-width:0.25;stroke-miterlimit:10;" x1="-32" x2="160" y1="20" y2="20"/>
              <line style="fill:none;stroke:#000000;stroke-width:0.25;stroke-miterlimit:10;" x1="-32" x2="160" y1="24" y2="24"/>
              <line style="fill:none;stroke:#000000;stroke-width:0.25;stroke-miterlimit:10;" x1="-32" x2="160" y1="28" y2="28"/>
              <line style="fill:none;stroke:#000000;stroke-width:0.25;stroke-miterlimit:10;" x1="-32" x2="160" y1="32" y2="32"/>
              <line style="fill:none;stroke:#000000;stroke-width:0.25;stroke-miterlimit:10;" x1="-32" x2="160" y1="36" y2="36"/>
              <line style="fill:none;stroke:#000000;stroke-width:0.25;stroke-miterlimit:10;" x1="-32" x2="160" y1="40" y2="40"/>
              <line style="fill:none;stroke:#000000;stroke-width:0.25;stroke-miterlimit:10;" x1="-32" x2="160" y1="44" y2="44"/>
              <line style="fill:none;stroke:#000000;stroke-width:0.25;stroke-miterlimit:10;" x1="-32" x2="160" y1="48" y2="48"/>
              <line style="fill:none;stroke:#000000;stroke-width:0.25;stroke-miterlimit:10;" x1="-32" x2="160" y1="52" y2="52"/>
              <line style="fill:none;stroke:#000000;stroke-width:0.25;stroke-miterlimit:10;" x1="-32" x2="160" y1="56" y2="56"/>
              <line style="fill:none;stroke:#000000;stroke-width:0.25;stroke-miterlimit:10;" x1="-32" x2="160" y1="60" y2="60"/>
              <line style="fill:none;stroke:#000000;stroke-width:0.25;stroke-miterlimit:10;" x1="-32" x2="160" y1="64" y2="64"/>
              <line style="fill:none;stroke:#000000;stroke-width:0.25;stroke-miterlimit:10;" x1="-32" x2="160" y1="68" y2="68"/>
              <line style="fill:none;stroke:#000000;stroke-width:0.25;stroke-miterlimit:10;" x1="-32" x2="160" y1="72" y2="72"/>
              <line style="fill:none;stroke:#000000;stroke-width:0.25;stroke-miterlimit:10;" x1="-32" x2="160" y1="76" y2="76"/>
              <line style="fill:none;stroke:#000000;stroke-width:0.25;stroke-miterlimit:10;" x1="-32" x2="160" y1="80" y2="80"/>
              <line style="fill:none;stroke:#000000;stroke-width:0.25;stroke-miterlimit:10;" x1="-32" x2="160" y1="84" y2="84"/>
              <line style="fill:none;stroke:#000000;stroke-width:0.25;stroke-miterlimit:10;" x1="-32" x2="160" y1="88" y2="88"/>
              <line style="fill:none;stroke:#000000;stroke-width:0.25;stroke-miterlimit:10;" x1="-32" x2="160" y1="92" y2="92"/>
              <line style="fill:none;stroke:#000000;stroke-width:0.25;stroke-miterlimit:10;" x1="-32" x2="160" y1="96" y2="96"/>
              <line style="fill:none;stroke:#000000;stroke-width:0.25;stroke-miterlimit:10;" x1="-32" x2="160" y1="100" y2="100"/>
              <line style="fill:none;stroke:#000000;stroke-width:0.25;stroke-miterlimit:10;" x1="-32" x2="160" y1="104" y2="104"/>
              <line style="fill:none;stroke:#000000;stroke-width:0.25;stroke-miterlimit:10;" x1="-32" x2="160" y1="108" y2="108"/>
              <line style="fill:none;stroke:#000000;stroke-width:0.25;stroke-miterlimit:10;" x1="-32" x2="160" y1="112" y2="112"/>
              <line style="fill:none;stroke:#000000;stroke-width:0.25;stroke-miterlimit:10;" x1="-32" x2="160" y1="116" y2="116"/>
              <line style="fill:none;stroke:#000000;stroke-width:0.25;stroke-miterlimit:10;" x1="-32" x2="160" y1="120" y2="120"/>
              <line style="fill:none;stroke:#000000;stroke-width:0.25;stroke-miterlimit:10;" x1="-32" x2="160" y1="124" y2="124"/>
              <line style="fill:none;stroke:#000000;stroke-width:0.25;stroke-miterlimit:10;" x1="-32" x2="160" y1="128" y2="128"/>
              <line style="fill:none;stroke:#000000;stroke-width:0.25;stroke-miterlimit:10;" x1="-32" x2="160" y1="132" y2="132"/>
              <line style="fill:none;stroke:#000000;stroke-width:0.25;stroke-miterlimit:10;" x1="-32" x2="160" y1="136" y2="136"/>
              <line style="fill:none;stroke:#000000;stroke-width:0.25;stroke-miterlimit:10;" x1="-32" x2="160" y1="140" y2="140"/>
              <line style="fill:none;stroke:#000000;stroke-width:0.25;stroke-miterlimit:10;" x1="-32" x2="160" y1="144" y2="144"/>
              <line style="fill:none;stroke:#000000;stroke-width:0.25;stroke-miterlimit:10;" x1="-32" x2="160" y1="148" y2="148"/>
              <line style="fill:none;stroke:#000000;stroke-width:0.25;stroke-miterlimit:10;" x1="-32" x2="160" y1="152" y2="152"/>
              <line style="fill:none;stroke:#000000;stroke-width:0.25;stroke-miterlimit:10;" x1="-32" x2="160" y1="156" y2="156"/>
            </g>
            <path d="M159.75-31.75v191.5h-191.5v-191.5H159.75 M160-32H-32v192h192V-32L160-32z"/>
          </g>
        </g>
        <g>
          <rect height="128" style="opacity:0.3;fill:#F44336;" width="4" x="0" y="0"/>
          <rect height="128" style="opacity:0.3;fill:#F44336;" width="4" x="124" y="0"/>
          <rect height="120" style="opacity:0.3;fill:#F44336;" transform="matrix(-1.836970e-16 1 -1 -1.836970e-16 66 -62)" width="4" x="62" y="-58"/>
          <rect height="120" style="opacity:0.3;fill:#F44336;" transform="matrix(-1.836970e-16 1 -1 -1.836970e-16 190 62)" width="4" x="62" y="66"/>
        </g>
      </g>
    </g>
  </g>
</svg>