<svg enable-background="new 0 0 128 128" viewBox="0 0 128 128" xmlns="http://www.w3.org/2000/svg" xmlns:xlink="http://www.w3.org/1999/xlink"><radialGradient id="i" cx="141.81" cy="-34.234" r="57.507" gradientTransform="matrix(.826 0 0 .826 -60.658 20.546)" gradientUnits="userSpaceOnUse"><stop stop-color="#554138" offset="0"/><stop stop-color="#3C2C23" offset="1"/></radialGradient><path d="m39.58 119.76s-6.8-0.35-10.21-5.09c-8.61-11.95-8.48-41.65-8.37-65.52 0.01-2.51 0.02-4.95 0.02-7.3 0-0.03 0-0.11-0.01-0.23-0.22-3.77-0.26-16.78 8.55-26.13 6.17-6.55 15.45-9.87 27.56-9.87 11.87 0 20.85 3.26 26.68 9.7 8.54 9.43 7.94 23.02 7.55 26.96-0.02 0.2-0.03 0.32-0.03 0.36 0 3.38 0.04 6.96 0.08 10.65 0.23 22.28 0.52 50.01-7.67 61.38-3.3 4.59-9.79 5.06-10.25 5.09l-16.93-0.03-16.97 0.03z" fill="url(#i)"/><path d="m57.13 7.12c11.43 0 20.04 3.1 25.57 9.21 8.13 8.97 7.54 22.02 7.17 25.81-0.03 0.28-0.03 0.46-0.03 0.51 0 3.4 0.04 6.93 0.08 10.67 0.23 22.06 0.51 49.51-7.39 60.48-2.84 3.94-8.55 4.43-9.08 4.46l-16.9-0.03-16.88 0.03c-0.58-0.04-6.25-0.54-9.08-4.46-8.32-11.56-8.19-42.24-8.09-64.64 0.01-2.51 0.02-4.96 0.02-7.3 0-0.04 0-0.15-0.01-0.32-0.15-2.57-0.47-15.87 8.15-25.01 5.88-6.24 14.78-9.41 26.47-9.41m0-3c-41.01 0-37.6 37.13-37.6 37.73 0 24.56-1.2 60.04 8.63 73.69 3.9 5.41 11.43 5.71 11.43 5.71l16.97-0.03 16.97 0.03s7.53-0.3 11.43-5.71c9.83-13.65 7.88-48.34 7.88-72.9-0.01-0.6 5.29-38.52-35.71-38.52z" fill="#291D15"/><defs><rect id="h" x="4" y="4" width="120" height="120"/></defs><clipPath id="a"><use xlink:href="#h"/></clipPath><g clip-path="url(#a)"><linearGradient id="g" x1="56.25" x2="56.25" y1="97.009" y2="135.83" gradientUnits="userSpaceOnUse"><stop stop-color="#E3E3E3" offset=".00051609"/><stop stop-color="#C9C9C9" offset="1"/></linearGradient><path d="M5.75,135.83v-15.26c0-16.24,25.36-23.53,50.5-23.56h0.13c25.03,0,50.36,8.09,50.36,23.56 v15.26H5.75z" fill="url(#g)"/><path d="m56.38 98.51c12.9 0 25.42 2.19 34.36 6 6.62 2.83 14.51 7.91 14.51 16.05v13.76h-98v-13.76c0-15.2 24.61-22.03 49-22.06l0.13 0.01m0-3h-0.13c-25.49 0.03-52 7.28-52 25.06v16.76h104v-16.76c0-16.76-26.26-25.06-51.87-25.06z" fill="#BBBDBF"/></g><g clip-path="url(#a)"><path d="M55.4,106.23c-4,0-7.26-3.22-7.26-7.17v-8.98H64.3v8.98c0,3.96-3.26,7.17-7.26,7.17H55.4z" fill="#7A4C32"/><path d="m63.3 91.08v7.98c0 3.4-2.81 6.17-6.26 6.17h-1.64c-3.45 0-6.26-2.77-6.26-6.17v-7.98h14.16m2-2h-18.16v9.98c0 4.51 3.7 8.17 8.26 8.17h1.65c4.56 0 8.26-3.66 8.26-8.17v-9.98h-0.01z" fill="#663B22"/></g><g clip-path="url(#a)"><path d="m100.82 129.79-8-0.25c-6.96-0.71-11.7-4.77-10.79-13.12 1.97-18.12 21.83-12.18 23.64-6.3 2.7 8.8-1.75 19.98-4.85 19.67z" fill="#A56C43"/><path d="m100.94 130.76c-0.06 0-0.13 0-0.19-0.01l-7.97-0.25c-4.16-0.42-7.38-1.95-9.39-4.43-1.98-2.45-2.77-5.74-2.33-9.76 0.83-7.61 5.03-12.33 11.52-12.95 5.89-0.56 12.83 2.64 14 6.47 2.27 7.38-0.28 16.1-2.91 19.3-1.07 1.32-2.04 1.63-2.73 1.63zm-6.93-25.52c-0.41 0-0.83 0.02-1.24 0.06-3.23 0.31-8.79 2.17-9.78 11.23-0.38 3.49 0.26 6.3 1.91 8.33 1.67 2.07 4.45 3.35 8.01 3.72l7.93 0.25h0.07c0.2 0.02 0.68-0.2 1.27-0.92 2.41-2.94 4.55-11.02 2.56-17.5-0.76-2.48-5.76-5.17-10.73-5.17z" fill="#875334"/><path d="m93.5 126c-0.27 1.7 0.89 3.29 2.59 3.57l4.33 0.69c1.7 0.27 3.29-0.89 3.57-2.59 0.27-1.7-0.89-3.29-2.59-3.57l-4.33-0.69c-1.7-0.27-3.3 0.89-3.57 2.59z" fill="#A56C43"/><path d="m94.71 121.54c-0.26 1.71 0.91 3.31 2.62 3.58l5.68 0.87c1.71 0.26 3.31-0.91 3.58-2.62 0.26-1.71-0.91-3.31-2.62-3.58l-5.68-0.87c-1.71-0.26-3.32 0.91-3.58 2.62z" fill="#A56C43"/><path d="m103.5 127c-0.21 0-0.42-0.02-0.63-0.05l-5.68-0.87c-1.08-0.17-2.04-0.75-2.69-1.63s-0.91-1.97-0.75-3.05c0.34-2.24 2.44-3.78 4.68-3.43l5.69 0.88c1.08 0.17 2.04 0.74 2.69 1.63 0.65 0.88 0.91 1.97 0.75 3.05-0.17 1.08-0.74 2.04-1.63 2.68-0.72 0.51-1.56 0.79-2.43 0.79zm-5.69-7.15c-1.05 0-1.98 0.77-2.14 1.84-0.18 1.18 0.63 2.29 1.81 2.47l5.68 0.87c0.57 0.09 1.15-0.05 1.61-0.39 0.47-0.34 0.77-0.85 0.86-1.42s-0.05-1.14-0.39-1.61-0.85-0.77-1.42-0.86l-5.69-0.88c-0.1-0.01-0.21-0.02-0.32-0.02zm-3.1 1.69z" fill="#875334"/><path d="m94.97 117.26c-0.17 1.68 1.05 3.19 2.74 3.36l6.95 0.71c1.68 0.17 3.19-1.05 3.36-2.74 0.17-1.68-1.05-3.19-2.74-3.36l-6.95-0.71c-1.69-0.17-3.19 1.05-3.36 2.74z" fill="#A56C43"/><path d="m104.97 122.31c-0.14 0-0.28-0.01-0.42-0.02l-6.95-0.71c-1.07-0.11-2.04-0.63-2.72-1.46s-1-1.88-0.89-2.96c0.23-2.21 2.21-3.83 4.42-3.6l6.95 0.71c1.07 0.11 2.04 0.63 2.72 1.46s1 1.88 0.89 2.96c-0.11 1.07-0.63 2.04-1.46 2.72-0.72 0.58-1.61 0.9-2.54 0.9zm-9.04-4.95c-0.06 0.56 0.11 1.1 0.46 1.54 0.35 0.43 0.86 0.71 1.41 0.76l6.95 0.71c0.56 0.06 1.1-0.11 1.54-0.46 0.43-0.35 0.7-0.86 0.76-1.41 0.06-0.56-0.11-1.1-0.46-1.54-0.35-0.43-0.86-0.7-1.41-0.76l-6.95-0.71c-1.15-0.13-2.18 0.72-2.3 1.87z" fill="#875334"/><path d="m94.89 111.78c-0.08 1.69 1.23 3.13 2.92 3.21l6.98 0.33c1.69 0.08 3.13-1.23 3.21-2.92s-1.23-3.13-2.92-3.21l-6.98-0.33c-1.69-0.08-3.13 1.23-3.21 2.92z" fill="#A56C43"/><path d="m104.94 116.28h-0.2l-6.98-0.33c-1.08-0.05-2.07-0.52-2.79-1.31-0.73-0.8-1.1-1.83-1.05-2.9 0.11-2.22 2-3.93 4.22-3.84l6.98 0.33c2.22 0.11 3.94 2 3.84 4.22-0.05 1.08-0.52 2.07-1.32 2.79-0.74 0.68-1.7 1.04-2.7 1.04zm-9.08-4.46c-0.03 0.56 0.17 1.1 0.54 1.51s0.89 0.66 1.45 0.68l6.98 0.33c0.54 0.03 1.09-0.17 1.51-0.54 0.41-0.38 0.66-0.89 0.68-1.45 0.05-1.15-0.84-2.14-2-2.19l-6.98-0.33c-1.11-0.07-2.12 0.84-2.18 1.99z" fill="#875334"/><path d="m105.57 104.92c-0.77-0.19-3.45-1.06-5.22-1.45-0.67-0.15-2.45-0.48-3.13-0.49-2.18-0.04-9.12 2.5-10.74 4.1-0.79 0.78-5.75 12.15 4.03 10.37 4.09-0.52 3.01-5.45 4.36-6.82 1.03-1.05 2.7-2.6 7.64-0.91 1.38 0.47 3.76 0.45 4.63-0.6 1.51-1.83 0.67-3.64-1.57-4.2z" fill="#A56C43"/><path d="m109.09 106.31c-0.38-1.13-1.46-1.99-2.96-2.35-0.26-0.06-0.74-0.2-1.32-0.37-1.17-0.34-2.78-0.8-4-1.07-0.62-0.14-2.52-0.49-3.38-0.51-6.63-0.15-9.7 2.08-11.66 4.3-1.29 1.45-0.98 4.03-0.63 3.54 0.69-0.95 3.8-3.73 6.56-4.78 2.42-0.92 3.83-1.2 5.72-1.17 0.58 0.01 2.26 0.31 2.97 0.46 1.15 0.25 2.72 0.71 3.87 1.04 0.62 0.18 1.13 0.33 1.4 0.39 0.83 0.2 1.41 0.6 1.57 1.1 0.14 0.43 0.13 1.25-0.34 1.79-0.49 0.57-2.61 0.73-3.88 0.3-1.8-0.6-3.74-1.37-5.64-0.94-1.44 0.33-3.14 1.25-3.71 2.6-0.56 1.32-0.09 4.75-2.2 6.8-0.87 0.84-3.13 1.89-3.13 1.89s2.47 0.54 3.86-0.25c1.96-1.12 2.9-3.62 3.29-5.64 0.17-0.9 0.14-2.5 0.42-2.76 0.87-0.86 1.88-2.12 6.41-0.61 1.58 0.52 4.68 1.03 5.95-0.45 0.89-1.06 1.19-2.24 0.83-3.31z" fill="#875334"/></g><linearGradient id="f" x1="56.556" x2="56.556" y1="94.708" y2="17.885" gradientUnits="userSpaceOnUse"><stop stop-color="#8D5738" offset="0"/><stop stop-color="#97603D" offset=".2163"/><stop stop-color="#A26941" offset=".5728"/><stop stop-color="#A56C43" offset="1"/></linearGradient><path d="m56.56 95.27c-2.3 0-4.91-0.5-7.56-1.43-11.34-4.01-24.58-16.34-24.58-37.89 0-28.72 17.31-38.91 32.13-38.91s32.13 10.19 32.13 38.91c0 21.58-13.26 33.9-24.61 37.9-2.63 0.93-5.23 1.42-7.51 1.42z" fill="url(#f)"/><path d="m56.56 18.04c8.41 0 16.06 3.25 21.55 9.15 6.27 6.73 9.58 16.68 9.58 28.77 0 21.06-12.9 33.07-23.94 36.96-2.53 0.89-5.01 1.36-7.19 1.36-2.19 0-4.69-0.48-7.23-1.38-11.03-3.9-23.9-15.92-23.9-36.94 0-12.09 3.31-22.03 9.58-28.77 5.48-5.9 13.14-9.15 21.55-9.15m0-2c-17.2 0-33.13 12.79-33.13 39.91 0 21.79 13.49 34.67 25.23 38.83 2.8 0.99 5.5 1.49 7.9 1.49 2.38 0 5.07-0.49 7.85-1.47 11.76-4.14 25.28-17.03 25.28-38.84 0-27.13-15.93-39.92-33.13-39.92z" fill="#875334"/><defs><path id="e" d="m23.42 88.84-2.27-51.44c0-16.95 15.78-29.85 32.73-29.85h4.93c16.95 0 32.54 12.9 32.54 29.85l-3.15 51.19-64.78 0.25z"/></defs><clipPath id="d"><use xlink:href="#e"/></clipPath><g clip-path="url(#d)"><radialGradient id="c" cx="172.75" cy="-25.385" r="48.206" gradientTransform="matrix(.796 0 0 .796 -81.265 19.786)" gradientUnits="userSpaceOnUse"><stop stop-color="#554138" offset="0"/><stop stop-color="#3C2C23" offset="1"/></radialGradient><path d="m94.14 42.65s1.02-35.57-37.81-35.57-37.97 35.57-37.97 35.57 0.33 45.48 3.2 51.39 7.2 5.71 7.2 5.71-2.03-26.54-2.26-39.04c-0.06-2.92-0.94-13.73 5.16-15.09 22.36-5.02 35.01-16.89 35.01-16.89 3.29 7.19 13.58 14.19 17.27 16.86 3.03 2.19 2.61 11.2 2.55 15.03l-3.05 39.06s4.68 0.37 7.65-5.64c2.96-6.02 3.05-51.39 3.05-51.39z" fill="url(#c)"/></g><path d="m60.62 68.05c-0.1-0.04-0.21-0.07-0.32-0.08h-6.99c-0.11 0.01-0.21 0.04-0.32 0.08-0.63 0.26-0.98 0.91-0.68 1.61s1.69 2.66 4.49 2.66 4.19-1.96 4.49-2.66c0.31-0.69-0.04-1.35-0.67-1.61z" fill="#875334"/><g fill="#42312C"><ellipse cx="40.56" cy="58.87" rx="4.87" ry="5.04"/><ellipse cx="73.05" cy="58.87" rx="4.87" ry="5.04"/><path d="m47.79 49.82c-0.93-1.23-3.07-3.01-7.23-3.01s-6.31 1.79-7.23 3.01c-0.41 0.54-0.31 1.17-0.02 1.55 0.26 0.35 1.04 0.68 1.9 0.39s2.54-1.16 5.35-1.18c2.81 0.02 4.49 0.89 5.35 1.18s1.64-0.03 1.9-0.39c0.29-0.38 0.39-1.01-0.02-1.55z"/><path d="m80.29 49.82c-0.93-1.23-3.07-3.01-7.23-3.01s-6.31 1.79-7.23 3.01c-0.41 0.54-0.31 1.17-0.02 1.55 0.26 0.35 1.04 0.68 1.9 0.39s2.54-1.16 5.35-1.18c2.81 0.02 4.49 0.89 5.35 1.18s1.64-0.03 1.9-0.39c0.28-0.38 0.39-1.01-0.02-1.55z"/></g><path d="m64.87 76.14c-3.15 1.87-13.46 1.87-16.61 0-1.81-1.07-3.65 0.57-2.9 2.21 0.74 1.61 6.37 5.36 11.23 5.36s10.42-3.75 11.16-5.36c0.75-1.64-1.07-3.29-2.88-2.21z" fill="#473530"/><path d="m57.85 124.12h-3v-19.11c0-0.53 0.67-0.95 1.5-0.95s1.5 0.43 1.5 0.95v19.11z" fill="#757575"/><circle cx="62.81" cy="112.3" r="2" fill="#757575"/><circle cx="62.81" cy="120.32" r="2" fill="#757575"/><path d="m73.24 93.31-10.28 2.17c-3.41 0.75-6.07 3.73-6.61 8.58-0.54-4.85-3.3-7.83-6.61-8.58l-10.28-2.17c-0.63 0-1.15 0.66-1.15 1.47v8.5c0 0.81 0.51 1.47 1.15 1.47 0 0 5.8 2.35 16.89 2.35s16.9-2.35 16.9-2.35c0.63 0 1.15-0.66 1.15-1.47v-8.5c-0.01-0.81-0.53-1.47-1.16-1.47z" fill="#1565C0"/><defs><path id="b" d="m97.43 102.01s0.72 0.01 1.72 0.2c1.27 0.24 3.09 0.66 4.8 1.14 0.33 0.09 0.65 0.19 0.98 0.28 0.85 0.25 1.09 0.3 1.6 0.44 3.6 0.98 13.59-9.19 13.59-9.19l6.38-7.54-2-22.5-23.92-9.5-13.16 10.16-2 20.25 6.33 13.67 5.68 2.59z"/></defs><clipPath id="n"><use xlink:href="#b"/></clipPath><g clip-path="url(#n)"><linearGradient id="m" x1="107.68" x2="102.18" y1="70.043" y2="119.67" gradientTransform="matrix(.9997 -.0232 .0232 .9997 -2.3162 -7.924)" gradientUnits="userSpaceOnUse"><stop stop-color="#616161" offset="0"/><stop stop-color="#5C5C5C" offset=".0593"/><stop stop-color="#4C4C4C" offset=".3124"/><stop stop-color="#434343" offset=".6003"/><stop stop-color="#404040" offset=".9959"/></linearGradient><path d="m99.7 104.61 1.48-8.97c0.06-0.38-0.17-0.75-0.55-0.86-8.55-2.36-14.01-10.46-12.98-19.27 1.05-9 8.67-15.79 17.72-15.79 0.7 0 1.4 0.04 2.1 0.12 4.74 0.55 8.98 2.92 11.94 6.66s4.28 8.41 3.73 13.15c-0.97 8.33-7.73 14.93-16.07 15.71-0.36 0.03-0.64 0.31-0.69 0.67l-1.08 9.41c-1.41-0.2-4.24-0.62-5.6-0.83z" fill="url(#m)"/><path d="m105.37 60.49c0.67 0 1.34 0.04 2.01 0.12 9.37 1.09 16.09 9.6 15 18.97-0.93 7.97-7.4 14.3-15.39 15.04-0.72 0.07-1.29 0.63-1.37 1.34l-0.99 8.63c-0.83-0.13-2.1-0.32-4.04-0.61l1.35-8.21c0.13-0.77-0.35-1.51-1.1-1.71-8.19-2.26-13.41-10.01-12.43-18.44 1-8.63 8.29-15.13 16.96-15.13m0-1.52c-9.32 0-17.36 6.98-18.47 16.46-1.08 9.25 4.83 17.69 13.54 20.09l-1.6 9.73c0.01 0 7.04 1.06 7.12 1.08l1.18-10.19c8.57-0.8 15.72-7.48 16.76-16.38 1.19-10.21-6.12-19.46-16.33-20.66-0.75-0.09-1.48-0.13-2.2-0.13z" fill="#2B2B2E"/><path d="m116.41 77.81c1.83 7.54-3.84 15.13-10.79 10.19-6.94-4.95-13.26-4-10.77-10.6 2.5-6.6 4.49-12.41 9.7-11.04s10.04 3.91 11.86 11.45z" fill="#fff"/><linearGradient id="l" x1="105.69" x2="105.69" y1="82.521" y2="92.079" gradientTransform="matrix(.9997 -.0232 .0232 .9997 -2.3162 -7.924)" gradientUnits="userSpaceOnUse"><stop stop-color="#FFCA28" offset="0"/><stop stop-color="#FFC825" offset=".3408"/><stop stop-color="#FFC21A" offset=".6293"/><stop stop-color="#FFB809" offset=".898"/><stop stop-color="#FFB300" offset="1"/></linearGradient><circle cx="105.38" cy="77.23" r="5.16" fill="url(#l)"/></g><linearGradient id="k" x1="56.351" x2="56.351" y1="5.8389" y2="45.116" gradientUnits="userSpaceOnUse"><stop stop-color="#E6E6E6" offset=".0041376"/><stop stop-color="#D9D9D9" offset=".3332"/><stop stop-color="#B7B7B7" offset=".9409"/><stop stop-color="#B3B3B3" offset="1"/></linearGradient><path d="m19.38 36.33c-0.07-0.6-0.47-1.09-1-1.31-4.65-2.79-6.82-6.33-6.82-11.12v-2.04c0-13.54 17.14-16.26 44.8-16.26 30.14 0 44.8 5.32 44.8 16.26v2.04c0 5.2-1.93 8.55-6.44 11.22-0.46 0.27-0.74 0.74-0.78 1.25-0.11 0.76-1.32 7.53-2.27 12.83-4.26-0.99-16.3-3.35-34.58-3.35-18.37 0-31.48 2.87-36.14 4.06l-1.57-13.58z" fill="url(#k)"/><path d="m56.35 7.2c29.07 0 43.2 4.8 43.2 14.66v2.04c0 4.62-1.64 7.47-5.66 9.84-0.89 0.53-1.46 1.44-1.56 2.44-0.13 0.84-1.11 6.33-1.96 11.11-5.37-1.13-16.85-3.03-33.31-3.03-16.56 0-28.93 2.32-34.75 3.68l-1.35-11.79c-0.13-1.15-0.86-2.1-1.87-2.55-4.11-2.5-5.95-5.5-5.95-9.7v-2.04c0.01-12.21 16.54-14.66 43.21-14.66m0-3.2c-25.15 0-46.4 1.93-46.4 17.86v2.04c0 5.61 2.67 9.59 7.76 12.59-0.05 0.01 0.08 0.02 0.08 0.02l1.77 15.43s14.79-4.5 37.51-4.5 35.86 3.72 35.86 3.72 2.64-14.67 2.59-14.68c5.09-3.01 7.23-6.98 7.23-12.59v-2.04c0-14.33-21.25-17.85-46.4-17.85z" fill="#A5A7B3"/><path d="m19.94 38.67c-0.83 0-1.6-0.54-1.87-1.39-0.33-1.05 0.24-2.18 1.27-2.51 0.55-0.18 13.81-4.42 36.93-4.42 23.13 0 35.84 4.24 36.37 4.42 1.03 0.35 1.58 1.48 1.24 2.53s-1.45 1.61-2.48 1.27c-0.12-0.04-12.71-4.22-35.13-4.22-22.45 0-35.61 4.18-35.74 4.23-0.2 0.06-0.4 0.09-0.59 0.09z" fill="#A5A7B3"/><linearGradient id="j" x1="56.351" x2="56.351" y1="5.8389" y2="45.116" gradientUnits="userSpaceOnUse"><stop stop-color="#E6E6E6" offset=".0041376"/><stop stop-color="#E3E3E3" offset=".349"/><stop stop-color="#DADADA" offset=".5889"/><stop stop-color="#CBCBCB" offset=".7963"/><stop stop-color="#B5B5B5" offset=".9852"/><stop stop-color="#B3B3B3" offset="1"/></linearGradient><path d="m19.38 36.33c-0.07-0.6-0.47-1.09-1-1.31-4.65-2.79-6.82-6.33-6.82-11.12v-2.04c0-13.54 17.14-16.26 44.8-16.26 30.14 0 44.8 5.32 44.8 16.26v2.04c0 5.2-1.93 8.55-6.44 11.22-0.46 0.27-0.74 0.74-0.78 1.25-0.11 0.76-1.32 7.53-2.27 12.83-4.26-0.99-16.3-3.35-34.58-3.35-18.37 0-31.48 2.87-36.14 4.06l-1.57-13.58z" fill="url(#j)"/><path d="m56.35 7.2c29.07 0 43.2 4.8 43.2 14.66v2.04c0 4.62-1.64 7.47-5.66 9.84-0.89 0.53-1.46 1.44-1.56 2.44-0.13 0.84-1.11 6.33-1.96 11.11-5.37-1.13-16.85-3.03-33.31-3.03-16.56 0-28.93 2.32-34.75 3.68l-1.35-11.79c-0.13-1.15-0.86-2.1-1.87-2.55-4.11-2.5-5.95-5.5-5.95-9.7v-2.04c0.01-12.21 16.54-14.66 43.21-14.66m0-3.2c-25.15 0-46.4 1.93-46.4 17.86v2.04c0 5.61 2.67 9.59 7.76 12.59-0.05 0.01 0.08 0.02 0.08 0.02l1.77 15.43s14.79-4.5 37.51-4.5 35.86 3.72 35.86 3.72 2.64-14.67 2.59-14.68c5.09-3.01 7.23-6.98 7.23-12.59v-2.04c0-14.33-21.25-17.85-46.4-17.85z" fill="#B9BBBD"/><path d="m19.94 38.67c-0.83 0-1.6-0.54-1.87-1.39-0.33-1.05 0.24-2.18 1.27-2.51 0.55-0.18 13.81-4.42 36.93-4.42 23.13 0 35.84 4.24 36.37 4.42 1.03 0.35 1.58 1.48 1.24 2.53s-1.45 1.61-2.48 1.27c-0.12-0.04-12.71-4.22-35.13-4.22-22.45 0-35.61 4.18-35.74 4.23-0.2 0.06-0.4 0.09-0.59 0.09z" fill="#B9BBBD"/></svg>
