<?xml version="1.0" encoding="UTF-8" standalone="no"?>
<svg
   xmlns:dc="http://purl.org/dc/elements/1.1/"
   xmlns:cc="http://creativecommons.org/ns#"
   xmlns:rdf="http://www.w3.org/1999/02/22-rdf-syntax-ns#"
   xmlns:svg="http://www.w3.org/2000/svg"
   xmlns="http://www.w3.org/2000/svg"
   xmlns:xlink="http://www.w3.org/1999/xlink"
   xmlns:sodipodi="http://sodipodi.sourceforge.net/DTD/sodipodi-0.dtd"
   xmlns:inkscape="http://www.inkscape.org/namespaces/inkscape"
   width="128"
   height="128"
   style="enable-background:new 0 0 128 128;"
   version="1.1"
   id="svg42"
   sodipodi:docname="emoji_u1f4da.svg"
   inkscape:version="0.92.2 (5c3e80d, 2017-08-06)">
  <sodipodi:namedview
     pagecolor="#ffffff"
     bordercolor="#666666"
     inkscape:document-rotation="0"
     borderopacity="1"
     objecttolerance="10"
     gridtolerance="10"
     guidetolerance="10"
     inkscape:pageopacity="0"
     inkscape:pageshadow="2"
     inkscape:window-width="1680"
     inkscape:window-height="987"
     id="namedview44"
     showgrid="false"
     inkscape:snap-global="false"
     inkscape:zoom="11.313708"
     inkscape:cx="63.66142"
     inkscape:cy="63.431151"
     inkscape:window-x="0"
     inkscape:window-y="27"
     inkscape:window-maximized="1"
     inkscape:current-layer="text4436" />
  <metadata
     id="metadata48">
    <rdf:RDF>
      <cc:Work
         rdf:about="">
        <dc:format>image/svg+xml</dc:format>
        <dc:type
           rdf:resource="http://purl.org/dc/dcmitype/StillImage" />
      </cc:Work>
    </rdf:RDF>
  </metadata>
  <defs
     id="defs46">
    <linearGradient
       gradientUnits="userSpaceOnUse"
       y2="82.46875"
       x2="95.742714"
       y1="70.877846"
       x1="95.742714"
       id="linearGradient4367"
       xlink:href="#linearGradient4365"
       inkscape:collect="always"
       gradientTransform="translate(2.2219988,-8.5173698)" />
    <linearGradient
       id="linearGradient4365"
       inkscape:collect="always">
      <stop
         id="stop4361"
         offset="0"
         style="stop-color:#ffffff;stop-opacity:1;" />
      <stop
         id="stop4363"
         offset="1"
         style="stop-color:#ffffff;stop-opacity:0.7872622" />
    </linearGradient>
    <linearGradient
       inkscape:collect="always"
       xlink:href="#linearGradient4365"
       id="linearGradient4436"
       gradientUnits="userSpaceOnUse"
       gradientTransform="translate(2.2219988,-8.5173698)"
       x1="95.742714"
       y1="70.877846"
       x2="95.742714"
       y2="82.46875" />
  </defs>
  <path
     style="color:#000000;font-style:normal;font-variant:normal;font-weight:normal;font-stretch:normal;font-size:medium;line-height:normal;font-family:sans-serif;font-variant-ligatures:normal;font-variant-position:normal;font-variant-caps:normal;font-variant-numeric:normal;font-variant-alternates:normal;font-variant-east-asian:normal;font-feature-settings:normal;text-indent:0;text-align:start;text-decoration:none;text-decoration-line:none;text-decoration-style:solid;text-decoration-color:#000000;letter-spacing:normal;word-spacing:normal;text-transform:none;writing-mode:lr-tb;direction:ltr;text-orientation:mixed;dominant-baseline:auto;baseline-shift:baseline;text-anchor:start;white-space:normal;shape-padding:0;clip-rule:nonzero;display:inline;overflow:visible;visibility:visible;isolation:auto;mix-blend-mode:normal;color-interpolation:sRGB;color-interpolation-filters:linearRGB;solid-color:#000000;solid-opacity:1;vector-effect:none;fill:#467917;fill-opacity:1;fill-rule:nonzero;stroke:none;stroke-width:3;stroke-linecap:round;stroke-linejoin:round;stroke-miterlimit:4;stroke-dasharray:none;stroke-dashoffset:0;stroke-opacity:1;color-rendering:auto;image-rendering:auto;shape-rendering:auto;text-rendering:auto;enable-background:accumulate"
     d="m 46.995876,48.972656 c -2.039047,-0.0078 -4.137059,0.169911 -6.306641,0.417969 -10.745261,1.228605 -20.92608,1.597289 -30.9043,5.007813 -1.36485,0.469416 -2.61875,1.012774 -3.53125,1.728515 -0.91089,0.714484 -1.51552,1.537817 -1.77929,2.898438 v 0.002 c -0.0524,0.282573 0.005,1.098906 0.20312,1.917968 0.19752,0.81561 0.4937,1.662204 0.72266,2.240235 0.19606,0.482624 0.14498,0.672131 0.14062,0.898437 -0.004,0.226307 -0.0259,0.445148 -0.0566,0.689454 -0.0615,0.488608 -0.16445,1.06744 -0.29883,1.730468 -0.26876,1.326057 -0.66053,2.976989 -1.08007,4.642578 -0.8391,3.33118 -1.72848,6.547192 -2.05469,7.50586 -0.99067,2.915156 0.38819,5.493977 2.67773,8.007812 a 1.50015,1.50015 0 0 1 0.004,0.0039 c -0.0938,-0.103639 0.17668,0.161937 0.51367,0.445313 0.33699,0.283376 0.80621,0.667178 1.38281,1.132813 1.1532,0.931269 2.73739,2.189172 4.60547,3.660156 3.73617,2.941967 8.60776,6.739087 13.4668,10.509765 4.859079,3.77068 9.706942,7.51683 13.398436,10.36328 1.845747,1.42322 3.401085,2.62093 4.525391,3.48438 1.124306,0.86344 1.90455,1.45603 1.90625,1.45703 a 1.50015,1.50015 0 0 1 0.0078,0.006 c 3.557539,2.61874 6.263183,4.30817 9.025391,5.10546 h 0.002 c 3.487152,1.00231 7.262974,0.66571 13.529297,-1.46874 l -0.002,0.002 c 0.803499,-0.27513 2.508524,-0.73417 4.990234,-1.41016 2.48171,-0.67599 5.664007,-1.53954 9.121094,-2.51758 6.914174,-1.95606 14.945272,-4.37648 20.593752,-6.60937 3.6758,-1.45344 5.74269,-3.38606 6.5332,-4.25391 a 1.50015,1.50015 0 0 1 0.004,-0.004 c 0.90855,-0.98967 1.53214,-2.30337 1.875,-3.73633 a 1.50015,1.50015 0 0 1 0.002,-0.004 c 0.21085,-0.86975 0.31913,-1.79132 0.32813,-2.68164 a 1.50015,1.50015 0 0 1 0.0117,-0.16992 c 0,-0.02419 -0.002,-0.05756 -0.004,-0.121093 -0.005,-0.157779 -0.0182,-0.40449 -0.041,-0.701172 -0.0456,-0.593365 -0.12459,-1.396896 -0.23047,-2.25 -0.21175,-1.706209 -0.58752,-3.709619 -0.84961,-4.398438 -0.89337,-2.349235 -3.23435,-4.503501 -5.56445,-6.662109 -10.484506,-9.68106 -21.53992,-17.62415 -33.181639,-26.025391 -2.982286,-2.154427 -5.887809,-4.217572 -8.957032,-6.18164 -1.3897,-0.884355 -3.26054,-1.705466 -4.955078,-2.552735 -2.510651,-1.255326 -5.085066,-1.843464 -7.753906,-2.035156 -0.66721,-0.04792 -1.339849,-0.07162 -2.019531,-0.07422 z M 8.044705,65.130859 a 1.50015,1.50015 0 0 1 0.97461,0.330079 c 2.06364,1.655712 13.20526,10.203487 24.054686,18.357421 5.424715,4.076968 10.790995,8.069089 14.947265,11.078125 2.078135,1.504518 3.855991,2.763337 5.173828,3.658204 0.658921,0.44743 1.205306,0.8042 1.601563,1.046874 0.396257,0.242672 0.788261,0.384691 0.515625,0.306641 a 1.50015,1.50015 0 0 1 1.015625,0.982417 c 1.64899,5.12785 1.676053,10.85479 -0.167969,15.96876 a 1.50015,1.50015 0 0 1 0,0.004 c -0.22046,0.60627 -0.418783,1.27921 -0.746094,2.02734 a 1.50015,1.50015 0 0 1 -1.898437,0.80469 c -1.232725,-0.45947 -2.396265,-1.08964 -3.599609,-1.82617 a 1.50015,1.50015 0 0 1 -0.0098,-0.006 c -0.379782,-0.23685 -1.071022,-0.72825 -2.25,-1.56445 -1.178978,-0.8362 -2.759885,-1.96753 -4.615234,-3.30274 -3.7107,-2.6704 -8.516511,-6.15422 -13.365235,-9.70507 -4.848728,-3.550864 -9.741068,-7.168146 -13.630858,-10.107426 -3.8898,-2.93928 -6.63157,-5.03945 -7.7207,-6.138672 -0.49286,-0.497937 -5.54668,-3.768963 -4.09961,-8.199219 1.0595,-3.254185 2.13187,-8.835528 2.35937,-12.314453 a 1.50015,1.50015 0 0 1 1.46094,-1.400391 z m 92.054685,26.330079 a 1.50015,1.50015 0 0 0 0.002,0 c 2.55938,-0.04899 4.403,1.089022 5.31055,1.839843 2.45219,2.012397 2.86217,5.337269 2.31641,7.978519 -0.51875,2.61226 -2.15602,4.57799 -4.12891,5.98242 -4.026167,2.87355 -9.617209,3.85908 -13.035155,4.86719 -7.644937,2.26736 -15.35294,4.33199 -23.064453,6.29492 a 1.50015,1.50015 0 0 0 -0.002,0 c -2.245287,0.56867 -4.603754,1.28389 -7.072266,1.69531 a 1.50015,1.50015 0 0 1 -1.613281,-2.09766 c 0.403493,-0.89143 0.740048,-1.78749 0.972656,-2.70898 a 1.50015,1.50015 0 0 0 0,-0.002 c 0.63766,-2.51368 0.766747,-5.2627 0.484375,-7.89453 -0.178587,-1.59613 -0.272546,-4.23995 -0.515625,-5.22657 a 1.50015,1.50015 0 0 1 1.34375,-1.85547 c -0.210983,0.0157 -0.07953,0.01 -0.002,-0.006 0.07758,-0.0154 0.197463,-0.0415 0.347656,-0.0742 0.300387,-0.0653 0.726994,-0.16055 1.251953,-0.281254 1.049926,-0.241406 2.495893,-0.581851 4.16211,-0.980468 3.332434,-0.797241 7.547402,-1.828116 11.261719,-2.775391 7.528143,-1.916796 16.238948,-4.63602 21.980471,-4.755859 z"
     id="path4473"
     inkscape:connector-curvature="0" />
  <path
     style="opacity:1;vector-effect:none;fill:#85d936;fill-opacity:1;stroke-width:1;stroke-linecap:butt;stroke-linejoin:miter;stroke-miterlimit:4;stroke-dasharray:none;stroke-dashoffset:0;stroke-opacity:1"
     d="m 49.296657,50.722656 c -1.001793,-0.01555 -2.018544,0.02034 -3.025391,0.08594 -2.013692,0.13119 -3.985837,0.382947 -5.71289,0.582031 -2.134701,0.245308 -7.769125,1.080547 -13.537111,2.113281 -5.76798,1.032735 -11.46488,2.166337 -14.23437,3.333985 a 1.50015,1.50015 0 0 0 -0.002,0 c -1.20075,0.507624 -2.23689,1.059897 -3.02339,1.908201 -0.78531,0.847006 -1.18385,2.35383 -0.60743,3.53125 0.3084,0.63638 0.50694,0.713669 0.84571,1.046875 0.34084,0.335246 0.7796,0.733631 1.3164,1.205078 1.0736,0.942893 2.53759,2.167894 4.28321,3.59375 3.49123,2.851711 8.10228,6.504695 12.861325,10.220703 9.518084,7.432015 19.540865,15.058444 22.460937,17.095703 2.850457,1.998725 6.071546,3.26336 9.808594,2.5 1.122679,-0.222469 5.271137,-0.986634 6.966797,-1.402344 3.913023,-0.958291 10.187196,-2.466221 15.845703,-3.77539 5.656751,-1.308763 10.898981,-2.437143 12.039062,-2.572266 1.683359,-0.194608 3.370994,-0.308148 5.041017,-0.289062 0.44961,0.0052 1.12314,-0.0905 1.60937,-0.695313 0.48624,-0.604817 0.42032,-1.313305 0.3125,-1.707031 -0.21562,-0.787453 -0.59126,-1.208814 -0.98828,-1.703125 -0.79405,-0.988623 -1.765804,-1.902791 -2.015622,-2.134766 a 1.50015,1.50015 0 0 0 -0.0059,-0.0059 C 99.204676,83.351204 98.688175,82.94863 97.827867,82.279256 96.967559,81.609882 95.821558,80.731623 94.462633,79.699178 91.744782,77.634288 88.175948,74.954275 84.359117,72.117147 76.725455,66.442885 68.120747,60.155726 63.333726,56.90035 60.975737,55.296102 58.667102,53.903034 56.745836,52.8691 54.824569,51.835165 53.498576,51.155173 52.253648,50.949178 a 1.50015,1.50015 0 0 0 -0.02344,-0.0039 C 51.285285,50.805217 50.29845,50.73821 49.296657,50.722656 Z"
     id="path4564"
     inkscape:connector-curvature="0" />
  <path
     style="fill:#ffffff"
     d="m 8.044705,65.130859 a 1.50015,1.50015 0 0 0 -1.46094,1.400391 c -0.2275,3.478925 -1.29987,9.060268 -2.35937,12.314453 -1.44707,4.430256 3.60675,7.701282 4.09961,8.199219 1.08913,1.099222 3.8309,3.199392 7.7207,6.138672 3.88979,2.93928 8.78213,6.556562 13.630858,10.107426 4.848724,3.55085 9.654535,7.03467 13.365235,9.70507 1.855349,1.33521 3.436256,2.46654 4.615234,3.30274 1.178978,0.8362 1.870218,1.3276 2.25,1.56445 a 1.50015,1.50015 0 0 0 0.0098,0.006 c 1.203344,0.73653 2.366884,1.3667 3.599609,1.82617 a 1.50015,1.50015 0 0 0 1.898437,-0.80469 c 0.327311,-0.74813 0.525634,-1.42107 0.746094,-2.02734 a 1.50015,1.50015 0 0 0 0,-0.004 c 1.844022,-5.11397 1.816959,-10.84091 0.167969,-15.96876 a 1.50015,1.50015 0 0 0 -1.015659,-0.982457 c 0.272636,0.07805 -0.119368,-0.06397 -0.515625,-0.306641 C 54.4004,99.358888 53.854015,99.002118 53.195094,98.554688 51.877257,97.659821 50.099401,96.401002 48.021266,94.896484 43.864996,91.887448 38.498716,87.895327 33.074001,83.818359 22.224575,75.664425 11.082955,67.11665 9.019315,65.460938 a 1.50015,1.50015 0 0 0 -0.97461,-0.330079 z"
     id="path4351"
     inkscape:connector-curvature="0" />
  <path
     style="fill:#ffffff"
     d="m 100.09939,91.460938 c -5.741519,0.119839 -14.452324,2.839063 -21.980467,4.755859 -3.714317,0.947275 -7.929285,1.97815 -11.261719,2.775391 -1.666217,0.398617 -3.112184,0.739062 -4.16211,0.980468 -0.524959,0.120704 -0.951566,0.215934 -1.251953,0.281254 -0.150193,0.0327 -0.270076,0.0588 -0.347656,0.0742 -0.07758,0.0154 -0.20903,0.0216 0.002,0.006 a 1.50015,1.50015 0 0 0 -1.34375,1.85547 c 0.243079,0.98662 0.337038,3.63044 0.515625,5.22657 0.282372,2.63183 0.153285,5.38085 -0.484375,7.89453 a 1.50015,1.50015 0 0 0 0,0.002 c -0.232608,0.92149 -0.569163,1.81755 -0.972656,2.70898 a 1.50015,1.50015 0 0 0 1.613281,2.09766 c 2.468512,-0.41142 4.826979,-1.12664 7.072266,-1.69531 a 1.50015,1.50015 0 0 0 0.002,0 c 7.711513,-1.96293 15.419516,-4.02756 23.064453,-6.29492 3.417946,-1.00811 9.008988,-1.99364 13.035161,-4.86719 1.97289,-1.40443 3.61016,-3.37016 4.12891,-5.98242 0.54576,-2.64125 0.13578,-5.966122 -2.31641,-7.978519 -0.90755,-0.750821 -2.75117,-1.888829 -5.31055,-1.839843 a 1.50015,1.50015 0 0 0 -0.002,0 z"
     id="path4347"
     inkscape:connector-curvature="0" />
  <g
     id="g4446"
     transform="translate(-2.149897e-4)">
    <path
       id="path4420"
       d="m 34.044279,58.928533 c -20.304431,3.726498 -3.993173,17.606762 -0.264528,20.666375 3.877611,3.181848 17.666022,3.460533 30.179315,0.607641 C 75.96959,77.464284 81.646414,72.990385 77.215175,70.20686 72.945611,67.524898 53.119737,55.42759 34.044279,58.928533 c 0,0 0,0 0,0"
       style="fill:none;fill-opacity:1;stroke:#ffffff;stroke-width:1.60000002;stroke-miterlimit:4;stroke-dasharray:none;stroke-opacity:1"
       inkscape:connector-curvature="0" />
    <g
       style="stroke-width:2.26055169"
       transform="matrix(0.44236988,0,0,0.44236988,101.83691,9.8957281)"
       id="g4434">
      <path
         style="fill:#ffffff;fill-opacity:1;stroke:none;stroke-width:2.93871713;stroke-miterlimit:4;stroke-dasharray:none;stroke-opacity:1"
         d="m -99.35476,128.98867 c 0.733043,-0.1436 1.435312,-0.17565 2.267461,-0.0819 0,0 0.0015,-3.1e-4 0.0015,-3.1e-4 0.343277,0.0386 0.718564,0.13379 1.374621,0.49211 0.657493,0.3591 1.43447,0.95307 2.089531,1.67705 0.755256,0.83474 1.345064,1.83739 1.675874,2.86865 -4.323273,1.55453 -18.352697,5.98765 -45.670887,9.42219 -2.08016,-0.67029 -3.95201,-1.40524 -5.37154,-2.10617 -1.27209,-0.62813 -2.17329,-1.22459 -2.60536,-1.64847 -0.43097,-0.42281 -0.42243,-0.6016 -0.30591,-0.73733 0.38023,-0.44075 1.13501,-0.67907 2.41187,-0.85771 1.27591,-0.1785 2.98713,-0.24664 4.71183,-0.37866 0,0 -0.003,-5.9e-4 -0.003,-5.9e-4 9.14817,-0.69886 16.04926,-2.07057 19.26341,-2.73019 3.19941,-0.6566 9.87394,-2.0703 16.17697,-4.51239 0,0 0.001,8.8e-4 0.001,8.8e-4 1.17338,-0.45426 2.20139,-0.93733 3.2317,-1.22681 0.257256,-0.0723 0.50594,-0.13243 0.750459,-0.18032 0,0 10e-7,0 10e-7,0"
         id="path4422"
         inkscape:connector-curvature="0" />
      <path
         inkscape:connector-curvature="0"
         d="m -153.24866,110.84063 c 43.12102,-7.91403 87.938842,19.433 97.59041,25.49571 10.017044,6.2923 -2.816132,16.405 -29.966509,22.59497 -28.286911,6.44907 -59.457311,5.82088 -68.222861,-1.37187 -8.42881,-6.91643 -45.30022,-38.29489 0.59896,-46.71881 0,0 0,0 0,0"
         style="fill:#fcc21b;stroke-width:2.26055169"
         id="path4424" />
      <path
         d="m -106.03674,123.25476 c 1.35302,0.41812 2.80301,0.35503 3.24516,-0.14689 0.44067,-0.50025 -0.28551,-1.2365 -1.6173,-1.65818 -0.31937,-0.10121 -7.91877,-2.44566 -14.88961,-1.08756 -7.04848,1.37323 -5.91665,5.03452 -5.86994,5.19208 0.21741,0.65289 1.55335,1.29816 2.96102,1.43126 0.48081,0.0457 0.89867,0.0278 1.25084,-0.0424 0.67448,-0.13445 1.05497,-0.46574 0.91135,-0.89816 -0.0386,-0.11143 -0.72574,-2.52028 4.02365,-3.45537 4.71108,-0.93285 9.75455,0.59842 9.98483,0.6652 0,0 0,0 0,0"
         style="fill:#2f2f2f;stroke-width:2.26055169"
         id="path4426"
         inkscape:connector-curvature="0" />
      <path
         d="m -156.01232,133.71249 c 0.48093,0.0491 0.91971,0.0286 1.27372,-0.0419 0.7229,-0.14407 1.13872,-0.49971 1.0392,-0.95199 -0.031,-0.1047 -0.48464,-2.6208 4.50188,-3.60256 5.03434,-0.99117 10.12562,0.66742 10.17765,0.68452 1.34143,0.44232 2.84868,0.38424 3.36497,-0.14235 0.51301,-0.51901 -0.15468,-1.30421 -1.49031,-1.74138 -0.3167,-0.10563 -7.85805,-2.55202 -15.16931,-1.12762 -7.37933,1.43766 -6.61721,5.2643 -6.57908,5.42756 0.15631,0.68727 1.45062,1.35724 2.88128,1.49575 0,0 0,0 0,0"
         style="fill:#2f2f2f;stroke-width:2.26055169"
         id="path4428"
         inkscape:connector-curvature="0" />
      <path
         inkscape:connector-curvature="0"
         d="m -147.4754,137.60909 c 1.14695,-1.4266 4.96096,-1.41293 8.02511,-1.62982 8.50587,-0.60075 14.91968,-1.86299 17.95321,-2.4816 3.02041,-0.61593 9.22339,-1.92595 15.01741,-4.21441 2.0595,-0.81278 4.00984,-1.9712 7.570528,-1.5375 4.52769,0.55099 8.620205,5.08728 8.346677,8.8813 -0.169323,2.33756 -1.744428,7.24044 -12.954395,9.66021 -11.39527,2.45977 -23.2241,0.32998 -28.60513,-0.89806 -8.82434,-2.01448 -16.81648,-5.95389 -15.35341,-7.78012 0,0 0,0 0,0"
         style="fill:#ec6c31;fill-opacity:1;stroke:none;stroke-width:11.30275822;stroke-miterlimit:4;stroke-dasharray:none;stroke-opacity:1"
         id="path4430" />
      <path
         inkscape:connector-curvature="0"
         style="vector-effect:none;fill:url(#linearGradient4436);fill-opacity:1;stroke:none;stroke-width:1.7632302;stroke-linejoin:round;stroke-miterlimit:4;stroke-dasharray:none"
         d="m -100.7846,128.89969 c 0.7005,-0.13677 1.376634,-0.16346 2.184135,-0.0648 0,0 0.0015,-3e-4 0.0015,-3e-4 0.333113,0.0406 0.698568,0.13661 1.348769,0.49566 0.651627,0.35983 1.429744,0.95279 2.096362,1.67343 0.180329,0.19495 0.350845,0.39973 0.513853,0.61087 -4.171049,2.52773 -11.327449,4.96079 -19.985709,6.76937 -8.76203,1.82607 -18.28982,2.85292 -26.49425,2.84588 -0.3943,-0.17645 -0.77031,-0.35176 -1.11578,-0.52498 -1.25512,-0.62932 -2.15174,-1.22464 -2.58843,-1.64617 -0.43483,-0.41975 -0.43716,-0.59664 -0.33228,-0.72966 0.34392,-0.43269 1.05957,-0.66213 2.28028,-0.82916 1.21877,-0.16677 2.86092,-0.22221 4.51406,-0.33979 8.77464,-0.62298 15.35475,-1.9282 18.41999,-2.5564 3.05183,-0.62546 9.4197,-1.97326 15.38162,-4.34189 1.11023,-0.44073 2.08018,-0.91018 3.06043,-1.18907 0.24477,-0.0696 0.48186,-0.12733 0.7155,-0.17296 0,0 0,0 0,0"
         id="path4432" />
    </g>
  </g>
  <path
     style="fill:#ffffff"
     d="m 23.761505,40.541016 a 1.50015,1.50015 0 0 0 -1.45899,1.40625 c -0.2178,3.484813 -1.28984,9.053595 -2.34961,12.308593 -1.44651,4.436893 3.61223,7.704835 4.10157,8.199219 1.08913,1.099222 3.83106,3.199545 7.720698,6.138672 3.889642,2.939127 8.780797,6.557188 13.628906,10.107422 4.848109,3.550234 9.651997,7.032143 13.361328,9.701172 1.854666,1.334514 3.435193,2.465493 4.613281,3.300781 1.178089,0.835288 1.867217,1.3226 2.25,1.560547 a 1.50015,1.50015 0 0 0 0.0078,0.0059 c 1.203344,0.73653 2.366885,1.366702 3.599609,1.826172 a 1.50015,1.50015 0 0 0 1.894531,-0.796875 c 0.333235,-0.749778 0.52925,-1.435418 0.748047,-2.037109 a 1.50015,1.50015 0 0 0 0.002,-0.002 c 1.844712,-5.105133 1.816959,-10.831158 0.167969,-15.958985 a 1.50015,1.50015 0 0 0 -1.015625,-0.982422 c 0.27286,0.07812 -0.121329,-0.06391 -0.517578,-0.30664 -0.396249,-0.242736 -0.94069,-0.599317 -1.599609,-1.046875 -1.317873,-0.89511 -3.095687,-2.155245 -5.173828,-3.660156 C 59.585686,67.294864 54.217496,63.302224 48.792751,59.224609 37.94326,51.069379 26.805165,42.524386 24.736115,40.869141 a 1.50015,1.50015 0 0 0 -0.97461,-0.328125 z"
     id="path4335"
     inkscape:connector-curvature="0" />
  <path
     style="fill:#ffffff"
     d="m 115.84939,66.880859 c -5.75991,0.119772 -14.4624,2.839141 -21.990233,4.75586 -3.714316,0.947275 -7.929285,1.978151 -11.261719,2.77539 -1.666217,0.39862 -3.112186,0.739063 -4.162109,0.980469 -0.524962,0.120703 -0.951566,0.217884 -1.251953,0.283203 -0.150194,0.03266 -0.270077,0.05686 -0.347656,0.07227 -0.07758,0.01541 -0.209031,0.02164 0.002,0.0059 a 1.50015,1.50015 0 0 0 -1.345703,1.851563 c 0.246546,1.007943 0.3484,3.629162 0.52539,5.21875 0.274012,2.636183 0.145917,5.377441 -0.492187,7.904297 -3.12e-4,0.0012 3.12e-4,0.0027 0,0.0039 -0.245853,0.934392 -0.574728,1.829839 -0.972657,2.708984 a 1.50015,1.50015 0 0 0 1.613282,2.097656 c 2.465093,-0.410848 4.814672,-1.115188 7.076172,-1.695312 7.709748,-1.972494 15.417765,-4.027007 23.064453,-6.294922 a 1.50015,1.50015 0 0 0 0.002,-0.002 c 3.40593,-1.016982 8.99731,-2.013359 13.02149,-4.875 1.97564,-1.406393 3.60925,-3.366744 4.14844,-5.966797 0.54834,-2.646352 0.12566,-5.972274 -2.32618,-7.984375 -0.89162,-0.735876 -2.73519,-1.888946 -5.30078,-1.839844 a 1.50015,1.50015 0 0 0 -0.002,0 z"
     id="path14"
     inkscape:connector-curvature="0" />
  <path
     d="m 29.099782,31.65 c 4.72,-1.99 23.26,-4.87 27.36,-5.34 3.47,-0.4 7.83,-0.96 11.28,-0.45 1.39,0.23 5.85,2.56 10.48,5.71 9.47,6.44 34.449998,25.17 36.019998,26.62 0.42,0.39 3.86,3.66 2.13,3.64 -1.75,-0.02 -3.49,0.1 -5.23,0.3 -2.95,0.35 -20.229998,4.46 -28.069998,6.38 -1.55,0.38 -5.75,1.16 -6.91,1.39 -3.28,0.67 -5.97,-0.38 -8.66,-2.26 -5.59,-3.9 -40.369997,-30.7 -41.279997,-32.59 -0.65,-1.34 0.68,-2.47 2.879997,-3.4 z"
     style="fill:#bdcf46"
     id="path16"
     inkscape:connector-curvature="0" />
  <path
     style="color:#000000;font-style:normal;font-variant:normal;font-weight:normal;font-stretch:normal;font-size:medium;line-height:normal;font-family:sans-serif;font-variant-ligatures:normal;font-variant-position:normal;font-variant-caps:normal;font-variant-numeric:normal;font-variant-alternates:normal;font-variant-east-asian:normal;font-feature-settings:normal;text-indent:0;text-align:start;text-decoration:none;text-decoration-line:none;text-decoration-style:solid;text-decoration-color:#000000;letter-spacing:normal;word-spacing:normal;text-transform:none;writing-mode:lr-tb;direction:ltr;text-orientation:mixed;dominant-baseline:auto;baseline-shift:baseline;text-anchor:start;white-space:normal;shape-padding:0;clip-rule:nonzero;display:inline;overflow:visible;visibility:visible;isolation:auto;mix-blend-mode:normal;color-interpolation:sRGB;color-interpolation-filters:linearRGB;solid-color:#000000;solid-opacity:1;vector-effect:none;fill:#173479;fill-opacity:1;fill-rule:nonzero;stroke:none;stroke-width:3;stroke-linecap:round;stroke-linejoin:round;stroke-miterlimit:4;stroke-dasharray:none;stroke-dashoffset:0;stroke-opacity:1;color-rendering:auto;image-rendering:auto;shape-rendering:auto;text-rendering:auto;enable-background:accumulate"
     d="m 62.718532,24.402344 c -2.038178,-0.0078 -4.135004,0.169876 -6.308594,0.417968 -10.735431,1.228633 -20.916916,1.59947 -30.894533,5.019532 -1.3665,0.470028 -2.62468,1.01071 -3.53711,1.724609 -0.91194,0.713518 -1.51423,1.534278 -1.77343,2.900391 -0.10664,0.570072 0.46288,3.020182 0.92382,4.160156 0.19607,0.482624 0.14698,0.672131 0.14258,0.898438 -0.004,0.226305 -0.0259,0.445154 -0.0566,0.689453 -0.0615,0.488598 -0.16444,1.067507 -0.29883,1.730468 -0.26876,1.325922 -0.66247,2.977567 -1.08203,4.642579 -0.83871,3.328408 -1.72423,6.531107 -2.05469,7.496093 v 0.0039 c -0.98809,2.913547 0.39126,5.491529 2.68165,8.015624 a 1.50015,1.50015 0 0 0 0.002,0.002 c -0.0938,-0.103642 0.17472,0.161937 0.51172,0.445312 0.33699,0.283376 0.80621,0.669131 1.38281,1.134766 1.1532,0.931269 2.73934,2.189173 4.60742,3.660156 3.736166,2.941967 8.607718,6.737138 13.466798,10.507812 4.85908,3.770679 9.70499,7.516834 13.396484,10.363282 1.845747,1.423224 3.403079,2.620921 4.527344,3.484375 1.124305,0.863447 1.90455,1.455731 1.90625,1.457031 a 1.50015,1.50015 0 0 1 0.0059,0.0039 c 3.56067,2.611158 6.267269,4.31142 9.023438,5.097656 a 1.50015,1.50015 0 0 0 0.002,0 c 3.479163,0.994048 7.266932,0.66676 13.53125,-1.466796 0.803498,-0.275128 2.508484,-0.73431 4.990234,-1.410157 2.481751,-0.675846 5.661988,-1.54015 9.119141,-2.517578 6.914306,-1.954856 14.946696,-4.371417 20.595706,-6.599609 v 0.002 c 3.672,-1.451941 5.73432,-3.38958 6.53515,-4.259766 0.90855,-0.989668 1.53552,-2.305005 1.88867,-3.74414 0.21027,-0.868647 0.31718,-1.786744 0.32618,-2.675781 a 1.50015,1.50015 0 0 1 0.01,-0.132813 c 1e-5,-5e-4 0,-0.0034 0,-0.0039 0,-0.0213 0.001,-0.08044 -0.002,-0.160157 -0.006,-0.163323 -0.0214,-0.411486 -0.0449,-0.710937 -0.0471,-0.598901 -0.12785,-1.406441 -0.23438,-2.261719 -0.21306,-1.710555 -0.58752,-3.713525 -0.84961,-4.402344 a 1.50015,1.50015 0 0 0 0,-0.002 c -0.89437,-2.360141 -3.23544,-4.512627 -5.56445,-6.660156 a 1.50015,1.50015 0 0 0 -0.002,0 C 109.11675,51.580595 98.064354,43.626695 86.413844,35.236328 c -2.994512,-2.156049 -5.889428,-4.215987 -8.955078,-6.167969 -1.405354,-0.888546 -3.266627,-1.710462 -4.958984,-2.55664 -2.521744,-1.255925 -5.094656,-1.843552 -7.761719,-2.035157 -0.666915,-0.04791 -1.340138,-0.07162 -2.019531,-0.07422 z M 23.761505,40.541016 a 1.50015,1.50015 0 0 1 0.97461,0.328125 c 2.06905,1.655245 13.207145,10.200238 24.056636,18.355468 5.424745,4.077615 10.792935,8.070255 14.949219,11.080079 2.078141,1.504911 3.855955,2.765046 5.173828,3.660156 0.658919,0.447558 1.20336,0.804139 1.599609,1.046875 0.396249,0.24273 0.790438,0.38476 0.517578,0.30664 a 1.50015,1.50015 0 0 1 1.015625,0.982422 c 1.64899,5.127827 1.676743,10.853852 -0.167969,15.958985 a 1.50015,1.50015 0 0 0 -0.002,0.002 c -0.218797,0.601691 -0.414812,1.287331 -0.748047,2.037109 a 1.50015,1.50015 0 0 1 -1.894531,0.796875 c -1.232724,-0.45947 -2.396265,-1.089642 -3.599609,-1.826172 a 1.50015,1.50015 0 0 1 -0.0078,-0.0059 c -0.382783,-0.237947 -1.071911,-0.725259 -2.25,-1.560547 -1.178088,-0.835288 -2.758615,-1.966267 -4.613281,-3.300781 -3.709331,-2.669029 -8.513219,-6.150938 -13.361328,-9.701172 -4.848109,-3.550234 -9.739264,-7.168295 -13.628906,-10.107422 -3.889638,-2.939127 -6.631568,-5.03945 -7.720698,-6.138672 -0.48934,-0.494384 -5.54808,-3.762326 -4.10157,-8.199219 1.05977,-3.254998 2.13181,-8.82378 2.34961,-12.308593 a 1.50015,1.50015 0 0 1 1.45899,-1.40625 z m 92.087885,26.339843 a 1.50015,1.50015 0 0 0 0.002,0 c 2.56559,-0.0491 4.40916,1.103968 5.30078,1.839844 2.45184,2.012101 2.87452,5.338023 2.32618,7.984375 -0.53919,2.600053 -2.1728,4.560404 -4.14844,5.966797 -4.02418,2.861641 -9.61556,3.858018 -13.02149,4.875 a 1.50015,1.50015 0 0 0 -0.002,0.002 c -7.646685,2.267915 -15.354702,4.322428 -23.06445,6.294922 -2.2615,0.580124 -4.611079,1.284464 -7.076172,1.695312 a 1.50015,1.50015 0 0 1 -1.613282,-2.097656 c 0.397929,-0.879145 0.726804,-1.774592 0.972657,-2.708984 3.12e-4,-0.0012 -3.12e-4,-0.0027 0,-0.0039 0.638104,-2.526856 0.766199,-5.268114 0.492187,-7.904297 -0.17699,-1.589588 -0.278844,-4.210807 -0.52539,-5.21875 a 1.50015,1.50015 0 0 1 1.345703,-1.851563 c -0.210984,0.01578 -0.07953,0.0096 -0.002,-0.0059 0.07758,-0.01541 0.197462,-0.03961 0.347656,-0.07227 0.300387,-0.06532 0.726991,-0.1625 1.251953,-0.283203 1.04997,-0.241414 2.495939,-0.581857 4.162156,-0.980477 3.332434,-0.797239 7.547403,-1.828115 11.261719,-2.77539 7.527833,-1.916719 16.230323,-4.636088 21.990233,-4.75586 z"
     id="path4481"
     inkscape:connector-curvature="0" />
  <path
     style="opacity:1;vector-effect:none;fill:#3666d9;fill-opacity:1;stroke-width:1;stroke-linecap:butt;stroke-linejoin:miter;stroke-miterlimit:4;stroke-dasharray:none;stroke-dashoffset:0;stroke-opacity:1"
     d="m 65.025173,26.130859 c -1.001526,-0.01642 -2.018805,0.01904 -3.025391,0.08398 -2.013171,0.129898 -3.986714,0.381518 -5.716797,0.585937 -2.134262,0.249915 -7.769393,1.085882 -13.535156,2.117188 -5.766575,1.03145 -11.460494,2.162228 -14.230469,3.330078 a 1.50015,1.50015 0 0 0 -0.002,0 c -1.200835,0.507626 -2.236325,1.061349 -3.023435,1.910156 -0.78711,0.848807 -1.19249,2.350512 -0.62305,3.533203 0.31165,0.647263 0.51072,0.717489 0.85156,1.052735 0.34085,0.335246 0.77766,0.733631 1.31446,1.205078 1.073596,0.942893 2.537584,2.167894 4.283199,3.59375 3.491232,2.851711 8.104239,6.504695 12.863282,10.220703 9.518085,7.432015 19.540865,15.058444 22.460937,17.095703 a 1.50015,1.50015 0 0 0 0.002,0.002 c 2.858748,1.987308 6.077763,3.251968 9.816407,2.488281 a 1.50015,1.50015 0 0 0 0.0039,0 c 1.079592,-0.223364 5.256572,-0.984641 6.960937,-1.402343 3.914748,-0.953721 10.191535,-2.461004 15.851563,-3.771485 5.66003,-1.31048 10.90761,-2.441931 12.03907,-2.576172 a 1.50015,1.50015 0 0 0 0.004,0 c 1.68376,-0.203212 3.35741,-0.308214 5.03321,-0.289062 0.4496,0.0052 1.12315,-0.09013 1.60937,-0.697266 0.48622,-0.60714 0.41744,-1.315838 0.30859,-1.708984 -0.21768,-0.786293 -0.59398,-1.207165 -0.99218,-1.701172 -0.79642,-0.988014 -1.77407,-1.904877 -2.01953,-2.132813 a 1.50015,1.50015 0 0 0 -0.002,-0.002 c -0.33326,-0.307791 -0.84747,-0.707412 -1.70703,-1.376953 -0.85956,-0.669541 -2.00304,-1.547583 -3.36133,-2.580078 -2.71657,-2.06499 -6.28532,-4.746828 -10.10156,-7.583984 C 92.455141,41.85303 83.851256,35.565923 79.064235,32.310547 76.706246,30.706299 74.397612,29.313231 72.476344,28.279297 70.555078,27.245362 69.229085,26.56537 67.984157,26.359375 a 1.50015,1.50015 0 0 0 -0.02539,-0.0039 c -0.946298,-0.139891 -1.932068,-0.208187 -2.933593,-0.22461 z"
     id="path4553"
     inkscape:connector-curvature="0" />
  <path
     d="m 19.319785,14.65 c 4.72,-1.99 23.269997,-4.87 27.359997,-5.34 3.47,-0.4 7.84,-0.96 11.28,-0.45 1.38,0.23 5.85,2.56 10.48,5.71 9.47,6.44 34.449998,25.17 36.019998,26.62 0.42,0.39 3.85,3.66 2.12,3.64 -1.75,-0.02 -3.49,0.1 -5.23,0.3 -2.959998,0.35 -20.229998,4.46 -28.069998,6.38 -1.55,0.38 -5.75,1.16 -6.91,1.39 -3.28,0.67 -5.97,-0.38 -8.66,-2.26 -5.59,-3.9 -40.369997,-30.7 -41.279997,-32.59 -0.63,-1.35 0.69,-2.48 2.89,-3.4 z"
     style="fill:#bdcf46"
     id="path28"
     inkscape:connector-curvature="0" />
  <path
     style="color:#000000;font-style:normal;font-variant:normal;font-weight:normal;font-stretch:normal;font-size:medium;line-height:normal;font-family:sans-serif;font-variant-ligatures:normal;font-variant-position:normal;font-variant-caps:normal;font-variant-numeric:normal;font-variant-alternates:normal;font-variant-east-asian:normal;font-feature-settings:normal;text-indent:0;text-align:start;text-decoration:none;text-decoration-line:none;text-decoration-style:solid;text-decoration-color:#000000;letter-spacing:normal;word-spacing:normal;text-transform:none;writing-mode:lr-tb;direction:ltr;text-orientation:mixed;dominant-baseline:auto;baseline-shift:baseline;text-anchor:start;white-space:normal;shape-padding:0;clip-rule:nonzero;display:inline;overflow:visible;visibility:visible;isolation:auto;mix-blend-mode:normal;color-interpolation:sRGB;color-interpolation-filters:linearRGB;solid-color:#000000;solid-opacity:1;vector-effect:none;fill:#7a1717;fill-opacity:1;fill-rule:nonzero;stroke:none;stroke-width:3;stroke-linecap:round;stroke-linejoin:round;stroke-miterlimit:4;stroke-dasharray:none;stroke-dashoffset:0;stroke-opacity:1;color-rendering:auto;image-rendering:auto;shape-rendering:auto;text-rendering:auto;enable-background:accumulate"
     d="m 52.943141,5.4023438 c -2.037753,-0.00779 -4.13308,0.1699025 -6.302734,0.4179687 -10.745156,1.2285933 -20.915942,1.5991271 -30.904292,5.0195315 -1.36651,0.470028 -2.62469,1.01071 -3.53711,1.724609 -0.91258,0.714014 -1.51649,1.534523 -1.77539,2.902344 v 0.002 c -0.10534,0.572983 0.46521,3.01746 0.92578,4.15625 v 0.002 c 0.19482,0.480874 0.14707,0.670571 0.14258,0.896485 -0.004,0.226393 -0.0277,0.447085 -0.0586,0.691406 -0.0618,0.488641 -0.16405,1.06747 -0.29883,1.730468 -0.26955,1.326001 -0.66385,2.975214 -1.08398,4.640626 -0.84027,3.330821 -1.73605,6.565581 -2.04688,7.498046 a 1.50015,1.50015 0 0 1 -0.004,0.0078 c -0.99067,2.915157 0.39018,5.493976 2.67969,8.007812 a 1.50015,1.50015 0 0 1 0.002,0.0039 c -0.0938,-0.103642 0.17668,0.161937 0.51367,0.445312 0.33699,0.283376 0.80621,0.669131 1.38281,1.134766 1.1532,0.931269 2.73739,2.189173 4.60547,3.660156 3.73617,2.941967 8.60772,6.737136 13.466798,10.507812 4.85908,3.770677 9.706943,7.516834 13.398437,10.363282 1.845747,1.423224 3.403079,2.620968 4.527344,3.484375 1.124306,0.863447 1.90455,1.455731 1.90625,1.457031 a 1.50015,1.50015 0 0 1 0.0059,0.0059 c 3.558227,2.619251 6.264141,4.308629 9.023438,5.095703 a 1.50015,1.50015 0 0 1 0.0039,0 c 3.475123,1.00192 7.263654,0.667213 13.529297,-1.466796 0.803034,-0.273903 2.512053,-0.73419 4.99414,-1.410157 2.48209,-0.675967 5.6627,-1.539551 9.119141,-2.517578 6.912898,-1.956168 14.94124,-4.374593 20.58986,-6.607537 3.67579,-1.45344 5.74268,-3.388011 6.5332,-4.255859 a 1.50015,1.50015 0 0 1 0.004,-0.0039 c 0.90764,-0.98868 1.53335,-2.302788 1.88672,-3.740235 0.2086,-0.860476 0.30992,-1.784659 0.32812,-2.695312 a 1.50015,1.50015 0 0 1 0.01,-0.121094 c 0,-0.0201 -9.1e-4,-0.07231 -0.004,-0.148437 -0.006,-0.160273 -0.0214,-0.407569 -0.0449,-0.705078 -0.0471,-0.595023 -0.12588,-1.399726 -0.23242,-2.253907 -0.21309,-1.708361 -0.58766,-3.713183 -0.85157,-4.410156 -0.89538,-2.351894 -3.22774,-4.504741 -5.56445,-6.660156 C 99.33786,32.590714 88.284029,24.647112 76.632624,16.2461 a 1.50015,1.50015 0 0 0 -0.002,0 C 73.647899,14.091355 70.743317,12.030742 67.673593,10.066412 66.283892,9.1820578 64.413053,8.3589939 62.718515,7.5117248 60.202584,6.2563886 57.629665,5.6681956 54.962656,5.4765685 54.295753,5.4286505 53.622375,5.4049485 52.943124,5.4023495 Z M 13.995875,21.560547 a 1.50015,1.50015 0 0 1 0.97461,0.330078 c 2.05455,1.652258 13.195581,10.203554 24.044922,18.357422 5.424671,4.076934 10.793743,8.069152 14.951172,11.078125 2.078714,1.504486 3.855185,2.763417 5.173828,3.658203 0.659321,0.447393 1.206791,0.804236 1.603516,1.046875 0.396632,0.242601 0.789287,0.384111 0.517578,0.306641 a 1.50015,1.50015 0 0 1 1.015625,0.982421 c 1.64899,5.127829 1.678006,10.854807 -0.166016,15.96875 a 1.50015,1.50015 0 0 1 -0.002,0.0039 c -0.22046,0.606265 -0.418784,1.279207 -0.746094,2.027343 a 1.50015,1.50015 0 0 1 -1.892578,0.806641 c -1.247405,-0.460753 -2.403447,-1.093599 -3.603515,-1.828125 a 1.50015,1.50015 0 0 1 -0.01367,-0.0078 c -0.373795,-0.23438 -1.066004,-0.726158 -2.244141,-1.5625 C 52.430975,71.892178 50.848939,70.761343 48.993878,69.425786 45.283754,66.754672 40.479886,63.268236 35.630596,59.716802 30.781307,56.165368 25.88824,52.548097 21.99778,49.60938 18.10733,46.670663 15.36254,44.570695 14.27513,43.476567 a 1.50015,1.50015 0 0 0 -0.002,-0.002 c -0.49286,-0.497936 -5.54669,-3.768962 -4.09961,-8.199218 1.0595,-3.254185 2.13187,-8.833576 2.35937,-12.3125 a 1.50015,1.50015 0 0 1 1.46289,-1.402344 z m 92.072265,26.320312 a 1.50015,1.50015 0 0 1 0.004,0 c 2.55937,-0.04898 4.40104,1.089023 5.30859,1.839844 2.45332,2.013327 2.86526,5.340593 2.31836,7.982422 v 0.002 c -0.53876,2.607179 -2.17005,4.578957 -4.14063,5.978516 -4.03151,2.858914 -9.613606,3.856071 -13.03515,4.865234 -7.644346,2.267151 -15.351597,4.332146 -23.0625,6.294922 a 1.50015,1.50015 0 0 0 -0.002,0 c -2.245287,0.568675 -4.603754,1.283895 -7.072265,1.695312 a 1.50015,1.50015 0 0 1 -1.613281,-2.097656 c 0.403491,-0.891438 0.740048,-1.787499 0.972656,-2.708984 a 1.50015,1.50015 0 0 0 0,-0.002 c 0.63766,-2.513674 0.764794,-5.262703 0.482422,-7.894531 -0.178587,-1.596123 -0.270528,-4.23822 -0.515625,-5.240235 a 1.50015,1.50015 0 0 1 1.345703,-1.851562 c -0.210983,0.01578 -0.07955,0.0096 -0.002,-0.0059 0.0776,-0.01541 0.195492,-0.04157 0.345703,-0.07422 0.300422,-0.06531 0.726949,-0.160614 1.251953,-0.28125 1.050008,-0.241269 2.497719,-0.580489 4.164062,-0.978515 3.332141,-0.795922 7.547083,-1.825221 11.261719,-2.767578 7.528143,-1.916797 16.237593,-4.636054 21.988283,-4.75586 z"
     id="path4489"
     inkscape:connector-curvature="0" />
  <path
     style="opacity:1;vector-effect:none;fill:#d93636;fill-opacity:1;stroke-width:1;stroke-linecap:butt;stroke-linejoin:miter;stroke-miterlimit:4;stroke-dasharray:none;stroke-dashoffset:0;stroke-opacity:1"
     d="m 55.247829,7.1542969 c -1.001306,-0.016042 -2.018545,0.018389 -3.025391,0.083984 -2.013692,0.1311899 -3.987788,0.3829474 -5.714844,0.5820313 -2.1347,0.245308 -7.767171,1.0805468 -13.535156,2.1132813 -5.765133,1.0322235 -11.459453,2.1649955 -14.230463,3.3320315 -1.20316,0.503137 -2.24068,1.055882 -3.02735,1.902344 -0.78667,0.846462 -1.19712,2.331494 -0.64453,3.515625 a 1.50015,1.50015 0 0 0 0.008,0.01758 c 0.31164,0.647263 0.51072,0.717488 0.85156,1.052734 0.34084,0.335246 0.77961,0.735584 1.31641,1.207032 1.0736,0.942893 2.53759,2.165941 4.2832,3.591796 3.49123,2.851712 8.104239,6.504695 12.863282,10.220704 9.518085,7.432014 19.538913,15.060396 22.458984,17.097656 v -0.002 c 2.859916,1.99875 6.079716,3.263686 9.81836,2.5 1.122679,-0.22247 5.271137,-0.986634 6.966797,-1.402344 3.912823,-0.958291 10.186997,-2.464268 15.845503,-3.773438 5.656563,-1.308719 10.898749,-2.437081 12.039059,-2.572265 1.69492,-0.194819 3.37094,-0.310103 5.04102,-0.291016 0.44961,0.0052 1.12314,-0.0905 1.60938,-0.695312 0.48622,-0.604817 0.42029,-1.313305 0.3125,-1.707032 -0.21565,-0.787453 -0.59126,-1.208813 -0.98829,-1.703125 -0.79404,-0.988623 -1.7658,-1.902791 -2.01562,-2.134765 a 1.50015,1.50015 0 0 0 -0.002,-0.002 c -0.33327,-0.307792 -0.84748,-0.707412 -1.70704,-1.376953 -0.85955,-0.669542 -2.00499,-1.547583 -3.36328,-2.580079 C 97.691478,34.065961 94.122664,31.384032 90.306423,28.546875 82.673939,22.872562 74.070006,16.585455 69.282985,13.330078 66.92458,11.725548 64.613501,10.332634 62.691188,9.2988281 60.768876,8.2650227 59.447965,7.587718 58.206813,7.3808594 a 1.50015,1.50015 0 0 0 -0.02734,-0.00391 C 57.234503,7.2368584 56.249134,7.170339 55.247829,7.1542969 Z"
     id="path4542"
     inkscape:connector-curvature="0" />
  <path
     id="path4337"
     d="m 41.522576,16.271659 c -18.744801,3.437633 -3.686447,16.241947 -0.244209,19.06439 3.579763,2.935202 16.309053,3.192285 27.86117,0.560539 11.087967,-2.526005 16.32874,-6.653103 12.237875,-9.220858 -3.941608,-2.474066 -22.244609,-13.633633 -39.854836,-10.404071 0,0 0,0 0,0"
     style="fill:none;fill-opacity:1;stroke:#ffffff;stroke-width:1.60000002;stroke-miterlimit:4;stroke-dasharray:none;stroke-opacity:1"
     inkscape:connector-curvature="0" />
  <g
     style="stroke-width:2.44957161"
     transform="matrix(0.40839039,0,0,0.40807892,104.10789,-28.960295)"
     id="g4314">
    <path
       style="fill:#ffffff;fill-opacity:1;stroke:none;stroke-width:3.18444324;stroke-miterlimit:4;stroke-dasharray:none;stroke-opacity:1"
       d="m -99.35476,128.98867 c 0.733043,-0.1436 1.435312,-0.17565 2.267461,-0.0819 0,0 0.0015,-3.1e-4 0.0015,-3.1e-4 0.343277,0.0386 0.718564,0.13379 1.374621,0.49211 0.657493,0.3591 1.43447,0.95307 2.089531,1.67705 0.755256,0.83474 1.345064,1.83739 1.675874,2.86865 -4.323273,1.55453 -18.352697,5.98765 -45.670887,9.42219 -2.08016,-0.67029 -3.95201,-1.40524 -5.37154,-2.10617 -1.27209,-0.62813 -2.17329,-1.22459 -2.60536,-1.64847 -0.43097,-0.42281 -0.42243,-0.6016 -0.30591,-0.73733 0.38023,-0.44075 1.13501,-0.67907 2.41187,-0.85771 1.27591,-0.1785 2.98713,-0.24664 4.71183,-0.37866 0,0 -0.003,-5.9e-4 -0.003,-5.9e-4 9.14817,-0.69886 16.04926,-2.07057 19.26341,-2.73019 3.19941,-0.6566 9.87394,-2.0703 16.17697,-4.51239 0,0 0.001,8.8e-4 0.001,8.8e-4 1.17338,-0.45426 2.20139,-0.93733 3.2317,-1.22681 0.257256,-0.0723 0.50594,-0.13243 0.750459,-0.18032 0,0 10e-7,0 10e-7,0"
       id="path4505"
       inkscape:connector-curvature="0" />
    <path
       inkscape:connector-curvature="0"
       d="m -153.24866,110.84063 c 43.12102,-7.91403 87.938842,19.433 97.59041,25.49571 10.017044,6.2923 -2.816132,16.405 -29.966509,22.59497 -28.286911,6.44907 -59.457311,5.82088 -68.222861,-1.37187 -8.42881,-6.91643 -45.30022,-38.29489 0.59896,-46.71881 0,0 0,0 0,0"
       style="fill:#fcc21b;stroke-width:2.44957161"
       id="path2-3" />
    <path
       d="m -106.03674,123.25476 c 1.35302,0.41812 2.80301,0.35503 3.24516,-0.14689 0.44067,-0.50025 -0.28551,-1.2365 -1.6173,-1.65818 -0.31937,-0.10121 -7.91877,-2.44566 -14.88961,-1.08756 -7.04848,1.37323 -5.91665,5.03452 -5.86994,5.19208 0.21741,0.65289 1.55335,1.29816 2.96102,1.43126 0.48081,0.0457 0.89867,0.0278 1.25084,-0.0424 0.67448,-0.13445 1.05497,-0.46574 0.91135,-0.89816 -0.0386,-0.11143 -0.72574,-2.52028 4.02365,-3.45537 4.71108,-0.93285 9.75455,0.59842 9.98483,0.6652 0,0 0,0 0,0"
       style="fill:#2f2f2f;stroke-width:2.44957161"
       id="path32"
       inkscape:connector-curvature="0" />
    <path
       d="m -156.01232,133.71249 c 0.48093,0.0491 0.91971,0.0286 1.27372,-0.0419 0.7229,-0.14407 1.13872,-0.49971 1.0392,-0.95199 -0.031,-0.1047 -0.48464,-2.6208 4.50188,-3.60256 5.03434,-0.99117 10.12562,0.66742 10.17765,0.68452 1.34143,0.44232 2.84868,0.38424 3.36497,-0.14235 0.51301,-0.51901 -0.15468,-1.30421 -1.49031,-1.74138 -0.3167,-0.10563 -7.85805,-2.55202 -15.16931,-1.12762 -7.37933,1.43766 -6.61721,5.2643 -6.57908,5.42756 0.15631,0.68727 1.45062,1.35724 2.88128,1.49575 0,0 0,0 0,0"
       style="fill:#2f2f2f;stroke-width:2.44957161"
       id="path34-3"
       inkscape:connector-curvature="0" />
    <path
       inkscape:connector-curvature="0"
       d="m -147.4754,137.60909 c 1.14695,-1.4266 4.96096,-1.41293 8.02511,-1.62982 8.50587,-0.60075 14.91968,-1.86299 17.95321,-2.4816 3.02041,-0.61593 9.22339,-1.92595 15.01741,-4.21441 2.0595,-0.81278 4.00984,-1.9712 7.570528,-1.5375 4.52769,0.55099 8.620205,5.08728 8.346677,8.8813 -0.169323,2.33756 -1.744428,7.24044 -12.954395,9.66021 -11.39527,2.45977 -23.2241,0.32998 -28.60513,-0.89806 -8.82434,-2.01448 -16.81648,-5.95389 -15.35341,-7.78012 0,0 0,0 0,0"
       style="fill:#ec6c31;fill-opacity:1;stroke:none;stroke-width:12.24785805;stroke-miterlimit:4;stroke-dasharray:none;stroke-opacity:1"
       id="path10-6" />
    <path
       inkscape:connector-curvature="0"
       style="vector-effect:none;fill:url(#linearGradient4367);fill-opacity:1;stroke:none;stroke-width:1.91066575;stroke-linejoin:round;stroke-miterlimit:4;stroke-dasharray:none"
       d="m -100.7846,128.89969 c 0.7005,-0.13677 1.376634,-0.16346 2.184135,-0.0648 0,0 0.0015,-3e-4 0.0015,-3e-4 0.333113,0.0406 0.698568,0.13661 1.348769,0.49566 0.651627,0.35983 1.429744,0.95279 2.096362,1.67343 0.180329,0.19495 0.350845,0.39973 0.513853,0.61087 -4.171049,2.52773 -11.327449,4.96079 -19.985709,6.76937 -8.76203,1.82607 -18.28982,2.85292 -26.49425,2.84588 -0.3943,-0.17645 -0.77031,-0.35176 -1.11578,-0.52498 -1.25512,-0.62932 -2.15174,-1.22464 -2.58843,-1.64617 -0.43483,-0.41975 -0.43716,-0.59664 -0.33228,-0.72966 0.34392,-0.43269 1.05957,-0.66213 2.28028,-0.82916 1.21877,-0.16677 2.86092,-0.22221 4.51406,-0.33979 8.77464,-0.62298 15.35475,-1.9282 18.41999,-2.5564 3.05183,-0.62546 9.4197,-1.97326 15.38162,-4.34189 1.11023,-0.44073 2.08018,-0.91018 3.06043,-1.18907 0.24477,-0.0696 0.48186,-0.12733 0.7155,-0.17296 0,0 0,0 0,0"
       id="path4314" />
  </g>
  <g
     transform="matrix(0.9231876,0,0,0.92248351,73.235345,-47.625303)"
     aria-label="Emojipedia The Book"
     style="font-style:normal;font-weight:normal;font-size:10.66666698px;line-height:89.80000019%;font-family:Sans;letter-spacing:0px;word-spacing:0px;fill:#ffffff;fill-opacity:1;stroke:none;stroke-width:0.21672335;stroke-linecap:butt;stroke-linejoin:miter;stroke-miterlimit:4;stroke-dasharray:none;stroke-opacity:1"
     id="text4436">
    <path
       inkscape:connector-curvature="0"
       d="m -18.74416,101.0184 c 0,0 -1.503782,-1.11851 -1.503782,-1.11851 0,0 2.974485,-0.742284 2.974485,-0.742284 0.271077,-0.06765 0.311313,-0.237803 0.104382,-0.389732 -0.206691,-0.151753 -0.564616,-0.215257 -0.835788,-0.148224 0,0 -2.975439,0.735511 -2.975439,0.735511 0,0 -1.331145,-0.990103 -1.331145,-0.990103 0,0 3.422622,-0.831477 3.422622,-0.831477 0.270547,-0.06573 0.304984,-0.238205 0.107782,-0.38275 -0.204279,-0.149729 -0.567276,-0.21849 -0.837911,-0.153369 0,0 -3.909014,0.940589 -3.909014,0.940589 -0.278052,0.06691 -0.336226,0.23949 -0.131554,0.39229 0,0 4.309137,3.217049 4.309137,3.217049 0.209988,0.15677 0.593538,0.22398 0.871028,0.1527 0,0 3.881056,-0.99693 3.881056,-0.99693 0.270012,-0.0694 0.307435,-0.24208 0.09794,-0.39565 -0.209255,-0.15339 -0.575775,-0.22233 -0.845898,-0.1536 0,0 -3.397883,0.86451 -3.397883,0.86451"
       style="font-style:normal;font-variant:normal;font-weight:bold;font-stretch:normal;font-size:10.66666698px;line-height:89.80000019%;font-family:'Comic Neue';-inkscape-font-specification:'Comic Neue Bold';fill:#ffffff;fill-opacity:1;stroke:none;stroke-width:0.21672335;stroke-miterlimit:4;stroke-dasharray:none;stroke-opacity:1"
       id="path4444" />
    <path
       inkscape:connector-curvature="0"
       d="m -11.603431,96.267804 c -0.435209,0.106474 -0.743128,0.386276 -0.812371,0.750064 -0.701468,-0.252554 -1.310793,-0.230684 -1.733402,-0.127304 -0.508678,0.124455 -0.699526,0.462793 -0.743947,0.845223 0,0 -0.249943,-0.181624 -0.249943,-0.181624 -0.183559,-0.133385 -0.551753,-0.207129 -0.808623,-0.144226 -0.238231,0.05834 -0.288948,0.235162 -0.105306,0.369065 0,0 2.994036,2.183112 2.994036,2.183112 0.194401,0.141746 0.57065,0.200076 0.808415,0.139006 0.246855,-0.0634 0.298365,-0.231148 0.104061,-0.372342 0,0 -1.532136,-1.113355 -1.532136,-1.113355 -0.162858,-0.118344 -0.195658,-0.160725 -0.207429,-0.215558 -0.128786,-0.600898 0.10001,-0.95774 0.401147,-1.032044 0.197294,-0.04868 0.526096,-0.06576 1.15199,0.385868 0,0 2.069757,1.49349 2.069757,1.49349 0.194084,0.14005 0.5660249,0.198043 0.7993917,0.138099 0.2516551,-0.06461 0.2902119,-0.227619 0.09623,-0.367126 0,0 -1.6553297,-1.190472 -1.6553297,-1.190472 -0.649092,-0.466812 -0.315185,-0.989586 0.08279,-1.087785 0.184746,-0.04559 0.527483,-0.06665 1.152451,0.380072 0,0 2.0665575,1.477154 2.0665575,1.477154 0.1937811,0.138511 0.5526244,0.198558 0.7912135,0.137272 0.2290637,-0.05882 0.2828856,-0.224435 0.08922,-0.362413 0,0 -2.0212197,-1.44004 -2.0212197,-1.44004 -1.1523333,-0.820992 -2.1285243,-0.81312 -2.7375563,-0.664136 0,0 -3e-6,10e-7 -3e-6,10e-7"
       style="font-style:normal;font-variant:normal;font-weight:bold;font-stretch:normal;font-size:10.66666698px;line-height:89.80000019%;font-family:'Comic Neue';-inkscape-font-specification:'Comic Neue Bold';fill:#ffffff;fill-opacity:1;stroke:none;stroke-width:0.21672335;stroke-miterlimit:4;stroke-dasharray:none;stroke-opacity:1"
       id="path4446" />
    <path
       inkscape:connector-curvature="0"
       d="m -3.2411944,97.785855 c 1.1310596,-0.290533 1.1817344,-1.167531 0.1053209,-1.91948 -0.9093266,-0.63523 -2.4952033,-0.990682 -3.538482,-0.735225 -1.1409,0.279335 -1.208435,1.154684 -0.1411032,1.911188 0.9473845,0.671488 2.5244268,1.013189 3.5742643,0.743517 0,0 0,0 0,0 m -2.818682,-2.18854 c 0.5536767,-0.136717 1.504024,0.107559 2.0843558,0.514266 0.6855155,0.480424 0.7069001,1.04746 0.073182,1.208863 -0.5826129,0.148362 -1.4673841,-0.09639 -2.0437474,-0.503585 -0.6995481,-0.494225 -0.759379,-1.060111 -0.1137906,-1.219544 0,0 0,0 0,0"
       style="font-style:normal;font-variant:normal;font-weight:bold;font-stretch:normal;font-size:10.66666698px;line-height:89.80000019%;font-family:'Comic Neue';-inkscape-font-specification:'Comic Neue Bold';fill:#ffffff;fill-opacity:1;stroke:none;stroke-width:0.21672335;stroke-miterlimit:4;stroke-dasharray:none;stroke-opacity:1"
       id="path4448" />
    <path
       inkscape:connector-curvature="0"
       d="m 0.11009457,96.847303 c -0.20072619,-0.08968 -0.43559416,-0.128287 -0.65437333,-0.07233 -0.25418796,0.06502 -0.25917479,0.228869 -0.073566,0.358285 0.0445959,0.03107 0.11414971,0.06283 0.1526615,0.0813 0.2412389,0.101136 1.58126246,0.615857 2.48739956,0.37942 C 2.974417,97.345517 2.2525972,96.691008 1.7631899,96.35295 1.6595416,96.28135 0.70716629,95.623501 -0.10374022,95.079627 -0.77118718,94.626677 -1.3939979,94.212642 -1.4522568,94.172393 -1.641471,94.041671 -2.0006198,93.979934 -2.2174425,94.03302 c -0.2519212,0.06168 -0.2644323,0.208018 -0.060531,0.349313 0.1093235,0.07576 0.9230749,0.623276 1.72418745,1.170171 0.73065027,0.498042 1.44313136,0.975227 1.53205458,1.036836 0.19281697,0.133587 0.64349827,0.462336 0.34829727,0.538695 -0.2609681,0.06751 -0.85189899,-0.127069 -1.21646403,-0.280733 0,0 -2.98e-6,0 -2.98e-6,0 M -2.6745564,93.263355 c -0.1561242,-0.12398 -0.5069955,-0.221087 -0.7759263,-0.156377 -0.1998507,0.04809 -0.2829333,0.169192 -0.1283478,0.300672 0,0 0.2764019,0.224052 0.2764019,0.224052 0.1637876,0.129769 0.5191473,0.213037 0.7623939,0.153755 0.1821683,-0.0444 0.3131171,-0.164415 0.1420218,-0.298775 0,0 -0.2765413,-0.223328 -0.2765413,-0.223328"
       style="font-style:normal;font-variant:normal;font-weight:bold;font-stretch:normal;font-size:10.66666698px;line-height:89.80000019%;font-family:'Comic Neue';-inkscape-font-specification:'Comic Neue Bold';fill:#ffffff;fill-opacity:1;stroke:none;stroke-width:0.21672335;stroke-miterlimit:4;stroke-dasharray:none;stroke-opacity:1"
       id="path4450" />
    <path
       inkscape:connector-curvature="0"
       d="m 0.74154849,93.67342 c -0.19620148,-0.134493 -0.53508153,-0.200089 -0.77431171,-0.141488 -0.23106394,0.0566 -0.25978878,0.212675 -0.06345385,0.347668 0,0 2.87548347,2.017432 2.87548347,2.017432 0.1996333,0.137281 0.5504902,0.200947 0.7809259,0.141755 0.2300885,-0.05908 0.2545441,-0.218724 0.055056,-0.355489 0,0 -2.87370031,-2.009878 -2.87370031,-2.009878 m -1.10068962,-0.365554 c 0.23075316,-0.05628 0.25661528,-0.197194 0.0698081,-0.333175 0,0 -0.26604226,-0.190285 -0.26604226,-0.190285 -0.16470494,-0.120781 -0.52559661,-0.194161 -0.74795231,-0.140617 -0.2141253,0.05156 -0.2513179,0.201155 -0.072155,0.332301 0,0 0.258917,0.185992 0.258917,0.185992 0.1796279,0.131484 0.53486197,0.200067 0.75741881,0.145786 0,0 0,0 0,0"
       style="font-style:normal;font-variant:normal;font-weight:bold;font-stretch:normal;font-size:10.66666698px;line-height:89.80000019%;font-family:'Comic Neue';-inkscape-font-specification:'Comic Neue Bold';fill:#ffffff;fill-opacity:1;stroke:none;stroke-width:0.21672335;stroke-miterlimit:4;stroke-dasharray:none;stroke-opacity:1"
       id="path4452" />
    <path
       inkscape:connector-curvature="0"
       d="m -12.974905,102.24199 c 0,0 -4.054885,1.06794 -4.054885,1.06794 -0.258302,0.068 -0.327571,0.2477 -0.114544,0.40705 0.205657,0.15384 0.609826,0.2242 0.868039,0.15555 0,0 1.491,-0.39642 1.491,-0.39642 0,0 4.108709,3.05048 4.108709,3.05048 0.202835,0.15059 0.607704,0.22063 0.8716981,0.14643 0.2635151,-0.0741 0.2983964,-0.26711 0.095683,-0.41706 0,0 -4.1064551,-3.03765 -4.1064551,-3.03765 0,0 1.592661,-0.42345 1.592661,-0.42345 0.270221,-0.0719 0.29768,-0.25404 0.09256,-0.4046 -0.21247,-0.15595 -0.574111,-0.21948 -0.844463,-0.14827 0,0 0,0 0,0"
       style="font-style:normal;font-variant:normal;font-weight:bold;font-stretch:normal;font-size:10.66666698px;line-height:89.80000019%;font-family:'Comic Neue';-inkscape-font-specification:'Comic Neue Bold';fill:#ffffff;fill-opacity:1;stroke:none;stroke-width:0.21672335;stroke-miterlimit:4;stroke-dasharray:none;stroke-opacity:1"
       id="path4464" />
    <path
       inkscape:connector-curvature="0"
       d="m -3.0425428,104.422 c -0.1891885,-0.16444 -0.467964,-0.36554 -0.9393615,-0.70562 -1.6978705,-1.22484 -2.8641247,-1.7427 -3.8776249,-1.47114 -0.5566177,0.14914 -0.8006126,0.51853 -0.7941925,0.92136 0,0 -1.6387303,-1.19484 -1.6387303,-1.19484 -0.197174,-0.14376 -0.552414,-0.2231 -0.829089,-0.15017 -0.258063,0.068 -0.284734,0.24857 -0.08745,0.39291 0,0 4.4263395,3.23847 4.4263395,3.23847 0.1945615,0.14235 0.5931794,0.21177 0.8313223,0.14483 0.2472351,-0.0695 0.3159993,-0.23041 0.067095,-0.4119 0,0 -1.1545393,-0.8418 -1.1545393,-0.8418 -0.2084391,-0.15197 -0.3650367,-0.29474 -0.4336245,-0.43049 -0.082609,-0.19336 -0.3316361,-0.96144 0.2816535,-1.12726 0.216384,-0.0585 0.7065075,0.007 2.3753077,1.21463 0.4873338,0.35273 0.6778594,0.50941 0.8795832,0.65544 0.2019488,0.14618 0.5336769,0.21702 0.8046637,0.14085 0.2425265,-0.0682 0.2734069,-0.23264 0.088646,-0.37527 0,0 -3e-6,0 -3e-6,0"
       style="font-style:normal;font-variant:normal;font-weight:bold;font-stretch:normal;font-size:10.66666698px;line-height:89.80000019%;font-family:'Comic Neue';-inkscape-font-specification:'Comic Neue Bold';fill:#ffffff;fill-opacity:1;stroke:none;stroke-width:0.21672335;stroke-miterlimit:4;stroke-dasharray:none;stroke-opacity:1"
       id="path4466" />
    <path
       inkscape:connector-curvature="0"
       d="m 0.56731016,102.72415 c -0.0217485,0.18121 -0.27398337,0.39647 -0.57383521,0.48 -0.51939803,0.1447 -1.07470005,0.13824 -1.65682505,-0.0143 0,0 1.25654015,-1.51276 1.25654015,-1.51276 0.0977477,-0.1167 0.0580339,-0.23325 -0.0717376,-0.32517 -0.35830905,-0.25378 -1.63791355,-0.63069 -2.83813665,-0.30904 -1.2562408,0.33666 -1.1400715,1.23087 -0.089561,1.98558 0.9637246,0.69236 2.73088224,1.07851 4.11933841,0.68827 0.56251669,-0.15811 0.93053599,-0.51448 0.93803469,-0.82972 0.00896,-0.0558 -0.030934,-0.12847 -0.1234684,-0.19399 -0.208036,-0.14731 -0.54204417,-0.20644 -0.7854798,-0.13899 -0.11735189,0.0325 -0.1628365,0.0983 -0.17486953,0.17007 0,0 0,0 0,0 m -3.19588997,0.0298 c -0.6380281,-0.49331 -0.6770518,-1.01055 0.027308,-1.20101 0.4191841,-0.11333 0.7666511,-0.12501 1.0796956,-0.0451 0,0 -1.1070041,1.24607 -1.1070041,1.24607"
       style="font-style:normal;font-variant:normal;font-weight:bold;font-stretch:normal;font-size:10.66666698px;line-height:89.80000019%;font-family:'Comic Neue';-inkscape-font-specification:'Comic Neue Bold';fill:#ffffff;fill-opacity:1;stroke:none;stroke-width:0.21672335;stroke-miterlimit:4;stroke-dasharray:none;stroke-opacity:1"
       id="path4468" />
    <path
       inkscape:connector-curvature="0"
       d="m 7.1742922,101.91581 c 2.5735552,-0.72348 3.1819058,-1.4804 2.1433484,-2.192768 C 8.7321209,99.321418 8.0577313,99.127053 7.2365167,99.11762 7.2462282,98.911837 7.1066885,98.652922 6.6692955,98.35239 6.4284023,98.186874 5.122045,97.475756 3.3698655,97.937232 c 0,0 -1.4768319,0.388952 -1.4768319,0.388952 -0.2272158,0.05985 -0.2558511,0.233192 -0.060462,0.369351 0,0 4.4044881,3.069315 4.4044881,3.069315 0.3543612,0.24694 0.632859,0.23652 0.9372297,0.15096 0,0 0,0 0,0 m -2.0110232,-1.744 c 0,0 1.4513837,-0.396159 1.4513837,-0.396159 0.5233114,-0.142835 1.3521457,-0.171934 1.8621398,0.178963 0.5954479,0.409686 -0.3163822,0.922336 -1.7082786,1.332246 0,0 -1.6052473,-1.11506 -1.6052473,-1.11506 M 3.0890526,98.730994 c 0,0 1.0315055,-0.274277 1.0315055,-0.274277 1.0326294,-0.274579 1.6279577,0.07024 1.7259441,0.137773 0.339573,0.234045 0.3702658,0.55944 -0.067935,0.677911 0,0 -1.3749556,0.371726 -1.3749556,0.371726 0,0 -1.3145592,-0.913134 -1.3145592,-0.913134"
       style="font-style:normal;font-variant:normal;font-weight:bold;font-stretch:normal;font-size:10.66666698px;line-height:89.80000019%;font-family:'Comic Neue';-inkscape-font-specification:'Comic Neue Bold';fill:#ffffff;fill-opacity:1;stroke:none;stroke-width:0.21672335;stroke-miterlimit:4;stroke-dasharray:none;stroke-opacity:1"
       id="path4470" />
    <path
       inkscape:connector-curvature="0"
       d="m 13.63335,100.08533 c 1.048904,-0.294808 1.004345,-1.171146 -0.103076,-1.918042 -0.935601,-0.631012 -2.487441,-0.97966 -3.456233,-0.720057 -1.0593031,0.283853 -1.0305345,1.158667 0.06871,1.909999 0.975628,0.66684 2.517129,1.00171 3.490598,0.7281 0,0 0,0 0,0 M 10.71023,97.910498 c 0.513995,-0.13891 1.447235,0.101269 2.044454,0.505253 0.705429,0.477181 0.785997,1.043572 0.198184,1.207388 -0.54035,0.150591 -1.410894,-0.0903 -2.004316,-0.494697 -0.720296,-0.49086 -0.837624,-1.055982 -0.238322,-1.217944 0,0 0,0 0,0"
       style="font-style:normal;font-variant:normal;font-weight:bold;font-stretch:normal;font-size:10.66666698px;line-height:89.80000019%;font-family:'Comic Neue';-inkscape-font-specification:'Comic Neue Bold';fill:#ffffff;fill-opacity:1;stroke:none;stroke-width:0.21672335;stroke-miterlimit:4;stroke-dasharray:none;stroke-opacity:1"
       id="path4472" />
    <path
       inkscape:connector-curvature="0"
       d="m 18.203277,98.800885 c 1.014292,-0.285085 0.945381,-1.1399 -0.156455,-1.870982 -0.930964,-0.617706 -2.454727,-0.961318 -3.391879,-0.710195 -1.024582,0.27455 -0.970599,1.127915 0.123399,1.86315 0.970885,0.652495 2.483702,0.982575 3.424935,0.718027 0,0 0,0 0,0 M 15.28902,96.67307 c 0.497165,-0.13436 1.414359,0.102034 2.008633,0.497463 0.70191,0.46705 0.797004,1.01965 0.22857,1.178066 -0.522505,0.145613 -1.378416,-0.09129 -1.968936,-0.487024 -0.716813,-0.480371 -0.847906,-1.031857 -0.268267,-1.188505 0,0 0,0 0,0"
       style="font-style:normal;font-variant:normal;font-weight:bold;font-stretch:normal;font-size:10.66666698px;line-height:89.80000019%;font-family:'Comic Neue';-inkscape-font-specification:'Comic Neue Bold';fill:#ffffff;fill-opacity:1;stroke:none;stroke-width:0.21672335;stroke-miterlimit:4;stroke-dasharray:none;stroke-opacity:1"
       id="path4474" />
    <path
       inkscape:connector-curvature="0"
       d="m 23.53874,96.708137 c -0.600434,-0.14209 -1.665022,-0.394201 -2.829306,-0.668195 0.03335,-0.273487 0.02681,-0.707939 -0.05276,-1.024015 -0.0061,-0.03959 -0.04195,-0.09862 -0.138603,-0.16184 -0.193167,-0.126346 -0.495912,-0.182171 -0.704484,-0.126366 -0.139219,0.03726 -0.165289,0.10592 -0.15327,0.178174 0.06521,0.423067 0.04597,1.024453 -0.03143,1.373464 0,0 -2.423177,-1.590084 -2.423177,-1.590084 -0.19254,-0.126923 -0.511865,-0.199779 -0.739849,-0.139683 -0.204704,0.05398 -0.230592,0.204557 -0.0379,0.331929 0,0 4.341491,2.855027 4.341491,2.855027 0.189591,0.125316 0.544454,0.190044 0.740131,0.135046 0.218808,-0.06151 0.20827,-0.222537 0.01885,-0.347395 0,0 -1.095047,-0.721824 -1.095047,-0.721824 0.04157,-0.07482 0.107882,-0.191502 0.151521,-0.322814 0.496365,0.115944 1.892676,0.453869 2.876156,0.701844 0.152503,0.03507 0.305591,0.03455 0.420864,0.0022 0.222605,-0.06252 0.194313,-0.217099 -0.0096,-0.350377 -0.105661,-0.06905 -0.234768,-0.103379 -0.33358,-0.125057 0,0 5e-6,-10e-7 5e-6,-10e-7"
       style="font-style:normal;font-variant:normal;font-weight:bold;font-stretch:normal;font-size:10.66666698px;line-height:89.80000019%;font-family:'Comic Neue';-inkscape-font-specification:'Comic Neue Bold';fill:#ffffff;fill-opacity:1;stroke:none;stroke-width:0.21672335;stroke-miterlimit:4;stroke-dasharray:none;stroke-opacity:1"
       id="path4476" />
  </g>
  <path
     style="fill:#ffffff"
     d="m 13.995875,21.560547 a 1.50015,1.50015 0 0 0 -1.46289,1.402344 c -0.2275,3.478924 -1.29987,9.058315 -2.35937,12.3125 -1.44708,4.430256 3.60675,7.701282 4.09961,8.199218 a 1.50015,1.50015 0 0 0 0.002,0.002 c 1.08741,1.094128 3.8322,3.194096 7.72265,6.132813 3.89046,2.938717 8.783524,6.555988 13.632813,10.107422 4.84929,3.551434 9.653158,7.03787 13.363282,9.708984 1.855061,1.335557 3.437097,2.466392 4.615234,3.302735 1.178137,0.836342 1.870346,1.32812 2.244141,1.5625 a 1.50015,1.50015 0 0 0 0.01367,0.0078 c 1.200068,0.734526 2.35611,1.367372 3.603515,1.828125 a 1.50015,1.50015 0 0 0 1.892578,-0.806641 c 0.32731,-0.748136 0.525634,-1.421078 0.746094,-2.027343 a 1.50015,1.50015 0 0 0 0.002,-0.0039 c 1.844022,-5.113943 1.815006,-10.840921 0.166016,-15.96875 a 1.50015,1.50015 0 0 0 -1.015625,-0.982421 c 0.271709,0.07747 -0.120946,-0.06404 -0.517578,-0.306641 C 60.347198,55.788611 59.799728,55.431768 59.140407,54.984375 57.821764,54.089589 56.045293,52.830658 53.966579,51.326172 49.80915,48.317199 44.440078,44.324981 39.015407,40.248047 28.166066,32.094179 17.025035,23.542883 14.970485,21.890625 a 1.50015,1.50015 0 0 0 -0.97461,-0.330078 z"
     id="path4324"
     inkscape:connector-curvature="0" />
  <path
     style="fill:#ffffff"
     d="m 106.06814,47.880859 c -5.75069,0.119806 -14.460137,2.839063 -21.98828,4.75586 -3.714636,0.942357 -7.929578,1.971656 -11.261719,2.767578 -1.666343,0.398026 -3.114054,0.737246 -4.164062,0.978515 -0.525004,0.120636 -0.951531,0.215942 -1.251953,0.28125 -0.150211,0.03265 -0.268107,0.05881 -0.345703,0.07422 -0.0776,0.01541 -0.20903,0.02164 0.002,0.0059 a 1.50015,1.50015 0 0 0 -1.345703,1.851562 c 0.245097,1.002015 0.337038,3.644112 0.515625,5.240235 0.282372,2.631828 0.155238,5.380857 -0.482422,7.894531 a 1.50015,1.50015 0 0 0 0,0.002 c -0.232608,0.921485 -0.569165,1.817546 -0.972656,2.708984 a 1.50015,1.50015 0 0 0 1.613281,2.097656 c 2.468511,-0.411417 4.826978,-1.126637 7.072265,-1.695312 a 1.50015,1.50015 0 0 0 0.002,0 c 7.710903,-1.962776 15.418154,-4.027771 23.0625,-6.294922 3.421544,-1.009163 9.003647,-2.00632 13.035157,-4.865234 1.97058,-1.399559 3.60187,-3.371337 4.14063,-5.978516 v -0.002 c 0.5469,-2.641829 0.13496,-5.969095 -2.31836,-7.982422 -0.90755,-0.750821 -2.74922,-1.888827 -5.30859,-1.839844 a 1.50015,1.50015 0 0 0 -0.004,0 z"
     id="path4320"
     inkscape:connector-curvature="0" />
</svg>
