<?xml version="1.0" encoding="utf-8"?>
<!-- Generator: Adobe Illustrator 16.0.0, SVG Export Plug-In . SVG Version: 6.00 Build 0)  -->
<!DOCTYPE svg PUBLIC "-//W3C//DTD SVG 1.1//EN" "http://www.w3.org/Graphics/SVG/1.1/DTD/svg11.dtd">
<svg version="1.1" id="レイヤー_1" xmlns="http://www.w3.org/2000/svg" xmlns:xlink="http://www.w3.org/1999/xlink" x="0px"
	 y="0px" width="128px" height="128px" viewBox="0 0 128 128" enable-background="new 0 0 128 128" xml:space="preserve">
<g>
	<g>
		<path fill="#FFFFFF" d="M106.75,75.11c-1.59-0.78-3.24-1.59-5.03-2.15c-2.95-0.93-5.96-1.37-9.22-1.37
			c-0.67,0-1.33,0.02-1.99,0.06c-0.08-1.57,0-3.22,0.32-4.74c0.47-2.2,1.62-3.8,2.98-5.34c7.9,1.85,15.87,7.78,17.12,15.29
			C109.81,76.6,108.21,75.81,106.75,75.11z"/>
		<path fill="#FFFFFF" d="M100.95,104.34c-1.95,8.9-6.1,9.78-7.46,10.06c-0.27,0.05-0.51,0.08-0.73,0.08c-1.64,0-2.4-2.74-2.57-4.19
			c-0.27-2.33-0.54-4.26-0.88-6.09c-0.94-5.24-2.81-12.87-8.1-18.61c-1.65-1.8-3.42-3.14-5.26-4.16c1.35-0.19,2.7-0.29,4.04-0.29
			c3.72,0,7.32,0.74,10.4,2.13c3.94,1.78,8.98,5.51,10.63,13.18C101.56,98.94,101.55,101.67,100.95,104.34z"/>
		<path fill="#FFFFFF" d="M6.92,58.83c-0.17-0.22-0.7-0.9-0.14-3.14c0.7-2.8,3.1-5.04,7.8-7.29c3.25-1.56,8.76-2.56,14.04-2.56h0.07
			c1.19,0,2.42,0.09,3.65,0.26c1.42,0.19,2.85,0.5,4.28,0.91c1.2,0.34,2.38,0.77,3.57,1.25c1.15,0.46,2.28,1,3.4,1.59
			c1.24,0.66,2.45,1.39,3.62,2.19c2.26,1.57,4.37,3.42,6.24,5.48c0.54,0.6,1.06,1.22,1.56,1.86c0.15,0.19,0.31,0.39,0.45,0.59
			c0.65,0.87,1.25,1.78,1.81,2.72c0.26,0.43,0.49,0.86,0.73,1.3c0.53,1.03,1.01,2.1,1.42,3.19c0.2,0.57,0.42,1.13,0.59,1.71
			c-1.21-0.91-2.49-1.67-3.81-2.37c-0.32-0.17-0.63-0.3-0.95-0.46c-0.31-0.15-0.61-0.29-0.91-0.43c-1.11-0.5-2.23-0.93-3.38-1.31
			c-1.42-0.47-2.87-0.88-4.35-1.2c-1.24-0.27-2.5-0.49-3.76-0.66c-1.03-0.15-2.07-0.26-3.12-0.35c-1.04-0.1-2.06-0.17-3.09-0.22
			c-1.54-0.08-3.06-0.13-4.55-0.13c-0.37,0-0.74-0.02-1.1-0.02c-1.21,0-2.38,0.02-3.56,0.04c-0.69,0.01-1.42,0.01-2.1,0.02
			c-1.66,0.03-3.27,0.06-4.8,0.06h-0.21C9.82,61.86,7.32,59.34,6.92,58.83z"/>
		<path fill="#FFFFFF" d="M25.73,24.86c-0.42-0.54-0.59-1.12-0.48-1.57c0.04-0.2,0.17-0.46,0.65-0.69c1.06-0.52,2.44-0.78,4.11-0.78
			c2.59,0,5.82,0.65,9.35,1.87c5.9,2.06,12.69,8.32,16.1,15.19c-1.66,1.59-3.27,3.23-4.73,5c-0.57,0.67-1.07,1.37-1.59,2.06
			c-2.47-1.56-5.08-2.85-7.75-3.86c-0.87-1.96-1.9-3.87-3.18-5.66c-2.3-3.2-5.15-5.35-7.66-7.25
			C28.58,27.67,26.88,26.38,25.73,24.86z"/>
		<path fill="#FFFFFF" d="M86.69,58.01c-1.65,1.43-3.27,2.89-4.88,4.36c-4.23,3.9-8.33,7.95-12.29,12.14
			c-0.48,0.51-0.97,1.02-1.45,1.54l-0.04,0.03c-0.19-0.15-0.45-0.39-0.75-0.74c-0.02-0.65-0.02-1.3-0.08-1.94
			c-0.03-0.36-0.11-0.71-0.16-1.07c-0.2-1.64-0.54-3.25-0.99-4.8c-1.08-3.75-2.81-7.21-5-10.36c-0.66-0.94-1.37-1.85-2.11-2.74
			c-0.72-0.86-1.49-1.69-2.28-2.49c-0.8-0.81-1.65-1.59-2.53-2.34c0.44-0.58,0.86-1.16,1.37-1.77c0.65-0.78,1.35-1.55,2.08-2.32
			c0.84-0.89,1.72-1.78,2.66-2.65c0.68-0.63,1.39-1.27,2.12-1.9c0.14-0.13,0.3-0.25,0.45-0.37c7.85-6.58,17.71-11.89,29.35-15.78
			c4.89-1.64,9.99-2.5,14.71-2.5c7.47,0,13.4,2.24,14.38,5.44c1.09,3.49-2.56,6.64-10.13,11.58c-0.99,0.64-1.92,1.25-2.78,1.85
			c-6.17,4.25-12.13,8.82-17.9,13.64C89.19,55.87,87.94,56.93,86.69,58.01z"/>
		<path fill="#F79329" d="M127.17,25.9c-1.97-6.34-10.14-9.8-20.31-9.8c-5.22,0-10.98,0.92-16.68,2.82
			c-10.71,3.58-21.07,8.69-29.94,15.77c-4.44-7.94-12.21-14.56-18.85-16.87c-3.36-1.16-7.46-2.21-11.39-2.21
			c-2.42,0-4.77,0.4-6.83,1.4c-4.52,2.2-5.44,7.59-2.4,11.6c3.44,4.52,8.92,6.66,12.33,11.34c-1.48-0.2-2.96-0.31-4.42-0.31h-0.07
			c-5.19,0-11.94,0.88-16.73,3.17c-4.75,2.27-9.7,5.6-11.13,11.38C-2.4,66.87,12.67,68.07,20.31,68.08h0.22
			c0.85,0,1.77-0.02,2.67-0.03c-0.78,1.44-1.49,2.89-2.07,4.25c-3.24,7.37-4.67,15.51-4.38,23.55c0.21,5.71,3.22,11.34,1.11,17
			c-0.61,1.63,0.12,2.07,1.25,3.3c2.27,2.5,6.17,4.84,8.69,6.37c0.49,0.3,2.65,1.2,3.22,1.21c1.77,0.01,2.75-1.5,3.67-2.81
			c0.5-0.72,0.73-1.66,1.42-2.22c0.82-0.66,2.02-0.73,3-0.97c8.28-2.01,15.36-7.15,21.34-13.06c3.51-3.47,6.16-8.22,10.46-10.83
			c3.19-1.93,6.32-0.4,8.7,1.99c0.62,0.63,1.18,1.34,1.7,2.07c0.85,2.41,1.45,4.92,1.9,7.39c0.34,1.89,0.6,3.8,0.81,5.71
			c0.6,5.21,3.65,9.68,8.73,9.68c0.64,0,1.3-0.07,2-0.21c7.29-1.54,10.75-7.97,12.25-14.8c0.75-3.46,0.83-7.06,0.09-10.53
			c-1.82-8.46-7.08-14.19-13.76-17.34c2.17,0.07,4.35,0.37,6.54,1.06c3.66,1.15,7.72,4.27,11.73,4.27c0.4,0,0.82-0.03,1.23-0.11
			c3.28-0.57,4.73-4.06,4.24-7.13c-1.52-9.3-9.68-16.42-18.71-19.5c4.39-3.51,8.85-6.92,13.49-10.13
			C118.41,41.76,130.22,35.73,127.17,25.9z M106.75,75.11c-1.59-0.78-3.24-1.59-5.03-2.15c-2.95-0.93-5.96-1.37-9.22-1.37
			c-0.67,0-1.33,0.02-1.99,0.06c-0.08-1.57,0-3.22,0.32-4.74c0.47-2.2,1.62-3.8,2.98-5.34c7.9,1.85,15.87,7.78,17.12,15.29
			C109.81,76.6,108.21,75.81,106.75,75.11z M100.95,104.34c-1.95,8.9-6.1,9.78-7.46,10.06c-0.27,0.05-0.51,0.08-0.73,0.08
			c-1.64,0-2.4-2.74-2.57-4.19c-0.27-2.33-0.54-4.26-0.88-6.09c-0.94-5.24-2.81-12.87-8.1-18.61c-1.65-1.8-3.42-3.14-5.26-4.16
			c1.35-0.19,2.7-0.29,4.04-0.29c3.72,0,7.32,0.74,10.4,2.13c3.94,1.78,8.98,5.51,10.63,13.18
			C101.56,98.94,101.55,101.67,100.95,104.34z M6.92,58.83c-0.17-0.22-0.7-0.9-0.14-3.14c0.7-2.8,3.1-5.04,7.8-7.29
			c3.25-1.56,8.76-2.56,14.04-2.56h0.07c1.19,0,2.42,0.09,3.65,0.26c1.42,0.19,2.85,0.5,4.28,0.91c1.2,0.34,2.38,0.77,3.57,1.25
			c1.15,0.46,2.28,1,3.4,1.59c1.24,0.66,2.45,1.39,3.62,2.19c2.26,1.57,4.37,3.42,6.24,5.48c0.54,0.6,1.06,1.22,1.56,1.86
			c0.15,0.19,0.31,0.39,0.45,0.59c0.65,0.87,1.25,1.78,1.81,2.72c0.26,0.43,0.49,0.86,0.73,1.3c0.53,1.03,1.01,2.1,1.42,3.19
			c0.2,0.57,0.42,1.13,0.59,1.71c-1.21-0.91-2.49-1.67-3.81-2.37c-0.32-0.17-0.63-0.3-0.95-0.46c-0.31-0.15-0.61-0.29-0.91-0.43
			c-1.11-0.5-2.23-0.93-3.38-1.31c-1.42-0.47-2.87-0.88-4.35-1.2c-1.24-0.27-2.5-0.49-3.76-0.66c-1.03-0.15-2.07-0.26-3.12-0.35
			c-1.04-0.1-2.06-0.17-3.09-0.22c-1.54-0.08-3.06-0.13-4.55-0.13c-0.37,0-0.74-0.02-1.1-0.02c-1.21,0-2.38,0.02-3.56,0.04
			c-0.69,0.01-1.42,0.01-2.1,0.02c-1.66,0.03-3.27,0.06-4.8,0.06h-0.21C9.82,61.86,7.32,59.34,6.92,58.83z M25.73,24.86
			c-0.42-0.54-0.59-1.12-0.48-1.57c0.04-0.2,0.17-0.46,0.65-0.69c1.06-0.52,2.44-0.78,4.11-0.78c2.59,0,5.82,0.65,9.35,1.87
			c5.9,2.06,12.69,8.32,16.1,15.19c-1.66,1.59-3.27,3.23-4.73,5c-0.57,0.67-1.07,1.37-1.59,2.06c-2.47-1.56-5.08-2.85-7.75-3.86
			c-0.87-1.96-1.9-3.87-3.18-5.66c-2.3-3.2-5.15-5.35-7.66-7.25C28.58,27.67,26.88,26.38,25.73,24.86z M86.69,58.01
			c-1.65,1.43-3.27,2.89-4.88,4.36c-4.23,3.9-8.33,7.95-12.29,12.14c-0.48,0.51-0.97,1.02-1.45,1.54l-0.04,0.03
			c-0.19-0.15-0.45-0.39-0.75-0.74c-0.02-0.65-0.02-1.3-0.08-1.94c-0.03-0.36-0.11-0.71-0.16-1.07c-0.2-1.64-0.54-3.25-0.99-4.8
			c-1.08-3.75-2.81-7.21-5-10.36c-0.66-0.94-1.37-1.85-2.11-2.74c-0.72-0.86-1.49-1.69-2.28-2.49c-0.8-0.81-1.65-1.59-2.53-2.34
			c0.44-0.58,0.86-1.16,1.37-1.77c0.65-0.78,1.35-1.55,2.08-2.32c0.84-0.89,1.72-1.78,2.66-2.65c0.68-0.63,1.39-1.27,2.12-1.9
			c0.14-0.13,0.3-0.25,0.45-0.37c7.85-6.58,17.71-11.89,29.35-15.78c4.89-1.64,9.99-2.5,14.71-2.5c7.47,0,13.4,2.24,14.38,5.44
			c1.09,3.49-2.56,6.64-10.13,11.58c-0.99,0.64-1.92,1.25-2.78,1.85c-6.17,4.25-12.13,8.82-17.9,13.64
			C89.19,55.87,87.94,56.93,86.69,58.01z"/>
	</g>
	<linearGradient id="SVGID_1_" gradientUnits="userSpaceOnUse" x1="40.0991" y1="82.2812" x2="21.9545" y2="110.4986">
		<stop  offset="0" style="stop-color:#FDCA21"/>
		<stop  offset="0.2526" style="stop-color:#FACA23"/>
		<stop  offset="0.4377" style="stop-color:#F1C92A"/>
		<stop  offset="0.6012" style="stop-color:#E1C835"/>
		<stop  offset="0.7514" style="stop-color:#CAC645"/>
		<stop  offset="0.8927" style="stop-color:#AEC459"/>
		<stop  offset="0.8957" style="stop-color:#ADC45A"/>
	</linearGradient>
	<path fill="url(#SVGID_1_)" d="M25.78,113.72c-2.73-2.31-1.1-2.2-1-4.11c0.15-3.04-0.4-6.03-1.04-9c-0.38-1.8-0.74-3.5-0.8-4.99
		c-0.26-7.28,1.09-14.48,3.86-20.83c0.91-2.09,1.73-3.73,2.59-5.17c0.35-0.6,0.71-1.14,1.06-1.65c0.18,0,0.35,0,0.54,0
		c2.45,0,4.94,0.06,7.41,0.25c4.37,0.34,7.42,1.68,11.17,3.74c3.29,1.79,7.49,3.49,8.78,7.37c1.47,4.4-2.33,6.76-5.06,9.62
		c-1.86,1.95-3.5,4.12-5.16,6.43c-0.74,1.03-8.09,12.62-14.79,18.62c-0.93,0.83-1.42,1.98-2.07,2.53
		C30.24,117.4,27.12,114.84,25.78,113.72z"/>
</g>
</svg>
