<svg enable-background="new 0 0 128 128" viewBox="0 0 128 128" xmlns="http://www.w3.org/2000/svg" xmlns:xlink="http://www.w3.org/1999/xlink"><defs><rect id="t" x="4" y="4" width="120" height="120"/></defs><clipPath id="a"><use xlink:href="#t"/></clipPath><g clip-path="url(#a)"><radialGradient id="d" cx="61.218" cy="5.1433" r="15.514" gradientUnits="userSpaceOnUse"><stop stop-color="#6D4C41" offset="0"/><stop stop-color="#523329" offset="1"/></radialGradient><path d="m50.19 11.82c-0.94-1.64-3.71-2.25-1.17-5.47 1.32-1.67 8.09-3.83 11.08 1.04 7.99 13.03 27.12 7.95 27.12 7.95s-7.6 12.4-24.17 8.03c-7.98-2.1-11.47-9.12-12.86-11.55z" fill="url(#d)"/></g><g clip-path="url(#a)"><path d="m54.48 5.4c1.47 0 3.49 0.44 4.76 2.52 4.77 7.77 13.24 9.4 19.51 9.4 2.36 0 4.44-0.23 5.98-0.46-2.35 2.51-7.24 6.45-14.84 6.45-2.11 0-4.32-0.3-6.59-0.9-7.08-1.87-10.5-7.98-11.96-10.59l-0.28-0.5c-0.32-0.56-0.78-1-1.18-1.39-1-0.96-1.38-1.32-0.08-2.97 0.44-0.56 2.39-1.56 4.68-1.56m0-1c-2.44 0-4.75 1.05-5.46 1.95-2.54 3.22 0.23 3.83 1.17 5.47 1.39 2.43 4.88 9.46 12.86 11.56 2.48 0.65 4.76 0.93 6.84 0.93 11.83 0 17.33-8.96 17.33-8.96s-3.67 0.97-8.47 0.97c-6.15 0-14.16-1.6-18.65-8.93-1.38-2.24-3.55-2.99-5.62-2.99z" fill="#402821"/></g><linearGradient id="c" x1="151.28" x2="56.878" y1="38.374" y2="123.77" gradientUnits="userSpaceOnUse"><stop stop-color="#0288D1" offset=".0174"/><stop stop-color="#29B6F6" offset="1"/></linearGradient><path d="M128,128H0l0-21.35C54.56,86.49,102.17,45.41,128,4.95L128,128z" clip-path="url(#a)" fill="url(#c)"/><g clip-path="url(#a)"><path d="m127 8.32v118.68h-126v-19.65c49.79-18.57 97.71-56.29 126-99.03m1-3.37c-25.83 40.46-73.44 81.54-128 101.7v21.35h128v-123.05z" fill="#007ABD"/></g><g clip-path="url(#a)"><path d="m112.9 91.31c-0.27-1.53-1.39-2.66-2.79-3.2-0.69-0.26-1.44-0.44-2.19-0.41-0.43 0.02-0.9 0.09-1.3 0.24-0.2 0.07-0.44 0.27-0.67 0.2 0.06-0.28 0.32-0.65 0.48-0.88 0.94-1.31 2.26-2.44 2.97-3.94 0.87-1.84 0.68-3.57-0.51-4.74-0.8-0.78-1.85-1.2-2.96-1.23-1.19-0.03-5.1 1.89-4.32-0.7 0.31-1.02 0.79-2.57-0.38-3.38-2.84-1.97-6.54 1.14-8.48 3.07-0.29 0.28-0.62 0.62-1.03 0.66-0.61 0.05-0.48-0.85-0.71-1.19-0.9-1.36-2.61-1.44-4.02-0.94-1.4 0.5-2.52 1.72-3.48 2.8-0.21 0.24-0.62 0.48-0.89 0.17-0.48-0.57-0.16-1.57-0.59-2.2-0.43-0.62-1.02-0.95-1.71-0.95-1.49 0-3.14 1.5-3.88 2.51-0.72 0.98-1.56 2.04-2.61 3.35-0.73 0.9-1.41 1.64-2.08 2.27-0.15 0.14-0.31 0.29-0.47 0.43-0.69 0.62-1.44 1.24-2.36 1.94-0.08 0.05-0.19 0.13-0.32 0.23-1.46 1.03-2.24 1.72-2.17 2.37l0.03 0.35 0.33 0.06c1.53 0.28 3.42 0.07 4.89-0.16 0.33-0.05 0.67-0.12 1.02-0.19 1.04-0.21 2.18-0.41 3.02-0.23 2.61 0.54 5.33 1.64 7.66 3.11 1.04 0.65 2.11 1.4 3.03 2.06 1.2 0.85 3.19 2.68 3.15 5.41-0.04 2.92-1.48 5.52-2.68 7.19-0.57 0.79-1.34 1.41-2.16 1.92-0.7 0.44-1.65 0.6-2.21 1.23-0.16 0.18-0.24 0.42-0.4 0.59-0.12 0.14-0.32 0.27-0.4 0.43-0.42 0.76-0.9 1.53-1.64 2.02-0.34 0.22-0.71 0.14-1.07 0.28-0.27 0.1-0.53 0.31-0.79 0.45-0.27 0.15-1.33 0.67-0.85 1.09 0.4 0.35 1.18 0.07 1.63-0.01 1.42-0.26 2.82-0.33 4.26-0.2 1.3 0.12 2.59 0.32 3.84 0.68 0.34 0.1 0.69 0.14 1.02 0.21 1.67 0.35 3.31 0.58 4.85 0.12 0.85-0.25 1.75-0.63 2.51-1.6 0.75-0.97 0.6-1.57 0.37-2.48-0.07-0.25-0.16-0.49-0.22-0.74-0.06-0.24-0.07-0.48-0.12-0.72-0.08-0.35-0.16-0.92 0.11-1.21 0.86-0.92 2.21-0.41 3.22-0.1 1.32 0.41 2.74 0.7 4.12 0.63 1.35-0.08 2.55-0.65 3.38-1.73 0.68-0.89 1-2.02 0.65-3.12-0.28-0.89-0.71-1.75-1.3-2.48-0.59-0.76-2.68-1.71-1.11-2.51 1.47-0.75 3.11-1 4.64-1.58 1.66-0.63 3.24-1.82 3.63-3.62 0.14-0.59 0.15-1.12 0.06-1.63z" fill="#0277BD"/><path d="m104.05 96.29c1.72-0.64 3.97-0.54 5.29-1.98 0.78-0.86 1.13-1.65 0.78-2.76-0.35-1.1-0.89-1.68-1.98-1.96-1.7-0.43-3.4 0-5.02 0.86 0.13-0.81 0.26-1.62 0.66-2.32 0.87-1.53 2.31-2.64 3.09-4.22 0.67-1.35 0.72-2.81-0.4-3.84-1.26-1.16-2.93-0.97-4.4-0.37-1.23 0.5-3.31 0.78-2.92-1.13 0.19-0.93 1.11-2.6 0-3.33-1.82-1.2-4.26 1.08-5.44 2.25-0.8 0.79-2.15 2.31-3.43 1.84-0.78-0.29-0.67-1.29-1.07-1.87-0.85-1.22-2.66-1.13-3.64-0.13-0.91 0.93-2.11 3.22-3.77 2.7-1.16-0.36-0.68-1.96-1.23-2.72-1.28-1.79-3.83 0.32-4.7 1.44-0.81 1.04-1.67 2.07-2.53 3.08-0.64 0.76-1.32 1.48-2.04 2.12-0.15 0.13-0.31 0.27-0.46 0.4-0.75 0.64-1.51 1.22-2.3 1.8-0.45 0.33-2.28 1.44-2.22 1.99 1.52 0.26 3.06 0.08 4.57-0.14 1.28-0.19 2.76-0.63 4.04-0.38 2.59 0.51 5.24 1.54 7.5 2.89 0.99 0.59 1.99 1.26 2.94 1.89 1.8 1.21 3.25 3.06 3.22 5.31-0.04 2.49-1.19 4.87-2.67 6.83-1.52 2.02-4.34 2.8-6.46 4.13-1.41 0.88-3.33 1.94-4.29 3.33-2.08 3.01 2.83 0.51 3.82 0.25 2.21-0.58 4.59-1 6.86-0.6 1.92 0.34 3.53 0.86 5.46 0.31 0.91-0.26 1.61-0.6 2.21-1.33 0.58-0.71 0.49-1.07 0.27-1.9-0.32-1.23-1.51-2.76 0.26-3.28 0.9-0.27 1.89-0.32 2.81-0.32 1.24 0 2.33 0.68 3.56 0.76 1.94 0.12 4.88-1.19 4.08-3.53-0.36-1.08-0.91-1.78-1.97-2.28-0.58-0.28-1.29-0.36-1.48-1.02-0.34-1.28 2.05-2.42 3-2.77z" fill="#E3F2FD"/><g fill="#0277BD"><path d="m81.4 121.15c0.01 0.01 0.02 0.02 0.04 0.02 1.78 1.16 4.13-0.63 3.19-2.66-0.02-0.05-0.05-0.1-0.08-0.16-0.64-1.14-1.92-1.66-3.17-1.68-0.65-0.01-1.29 0.01-1.94 0.06-0.32 0.02-0.65 0.03-0.96 0.09-0.18 0.03-0.46 0.22-0.45 0.42 0.01 0.31 0.41 0.76 0.57 1 0.77 1.13 1.66 2.17 2.8 2.91z"/><path d="m83.52 68.27c0.01-0.01 0.01-0.02 0.01-0.04 0.68-1.69-1.22-3.38-2.77-2.25l-0.12 0.09c-0.85 0.72-1.09 1.89-0.9 2.96 0.1 0.55 0.22 1.09 0.37 1.62 0.08 0.26 0.14 0.54 0.24 0.79 0.06 0.14 0.26 0.35 0.43 0.31 0.26-0.06 0.57-0.46 0.75-0.65 0.82-0.82 1.56-1.75 1.99-2.83z"/><path d="m95.61 68.11 0.03-0.03c1.37-1.48 0.07-3.96-1.97-3.41-0.05 0.01-0.11 0.03-0.16 0.05-1.16 0.41-1.86 1.53-2.08 2.7-0.11 0.6-0.2 1.21-0.25 1.82-0.03 0.3-0.07 0.61-0.07 0.91 0.01 0.16 0.13 0.46 0.32 0.48 0.29 0.04 0.78-0.25 1.03-0.37 1.16-0.54 2.27-1.21 3.15-2.15z"/></g><path d="m100.08 89.61c-1.89-2.87-6.07-4.27-12.77-4.27-6.27 0-13.42 1.22-17.12 1.95-10.57 2.08-25.62 6.45-37.25 15.5-4.08 3.17-8.45 6.92-8.64 11.2-0.06 1.33 0.27 3.3 2.22 5.12 2.65 2.47 7.71 3.63 15.95 3.63h0.04c10.19 0 18.69-2.78 26.52-5.28 7.9-2.51 14.79-6.27 19.91-9.25 3.95-2.31 9.11-6.1 11.27-11.07 1.57-3.66 0.79-6.11-0.13-7.53zm-57.58 30.55z" fill="#00796B"/><linearGradient id="b" x1="23.451" x2="100.28" y1="101.79" y2="101.79" gradientUnits="userSpaceOnUse"><stop stop-color="#FFF176" offset="0"/><stop stop-color="#FFEB3B" offset="1"/></linearGradient><path d="m99.24 87.36c-1.89-2.87-6.07-4.27-12.77-4.27-6.27 0-13.42 1.22-17.12 1.95-10.57 2.08-25.62 6.45-37.25 15.5-4.08 3.17-8.45 6.92-8.64 11.2-0.06 1.33 0.27 3.3 2.22 5.12 2.65 2.47 7.71 3.63 15.95 3.63h0.04c9.19 0 17.79-2.49 26.52-5.28 7.9-2.51 14.79-6.27 19.91-9.25 3.95-2.31 9.11-6.1 11.27-11.07 1.58-3.65 0.8-6.11-0.13-7.53z" fill="url(#b)"/><defs><path id="ab" d="m99.24 87.36c-1.89-2.87-6.07-4.27-12.77-4.27-6.27 0-13.42 1.22-17.12 1.95-10.57 2.08-25.62 6.45-37.25 15.5-4.08 3.17-8.45 6.92-8.64 11.2-0.06 1.33 0.27 3.3 2.22 5.12 2.65 2.47 7.71 3.63 15.95 3.63h0.04c9.19 0 17.79-2.49 26.52-5.28 7.9-2.51 14.79-6.27 19.91-9.25 3.95-2.31 9.11-6.1 11.27-11.07 1.58-3.65 0.8-6.11-0.13-7.53z"/></defs><clipPath id="aa"><use xlink:href="#ab"/></clipPath><linearGradient id="z" x1="90.367" x2="40.701" y1="79.172" y2="115.84" gradientUnits="userSpaceOnUse"><stop stop-color="#689F38" offset="0"/><stop stop-color="#8BC34A" offset="1"/></linearGradient><polygon points="103.37 88.81 27.76 120.92 18.67 112.86 95.47 82.67" clip-path="url(#aa)" fill="url(#z)"/><path d="m86.47 84.09c6.35 0 10.25 1.25 11.94 3.82 0.79 1.22 1.45 3.34 0.04 6.57-2.05 4.72-7.03 8.38-10.85 10.61-5.07 2.96-11.9 6.68-19.71 9.16-8.65 2.76-17.16 5.23-26.26 5.23-7.96 0-12.81-1.07-15.27-3.36-1.67-1.56-1.96-3.22-1.9-4.34 0.17-3.85 4.35-7.42 8.26-10.45 11.48-8.92 26.36-13.25 36.83-15.31 3.66-0.72 10.74-1.93 16.92-1.93m0-1c-6.27 0-13.42 1.22-17.12 1.95-10.57 2.08-25.62 6.45-37.25 15.5-4.08 3.17-8.45 6.92-8.64 11.2-0.06 1.33 0.27 3.3 2.22 5.12 2.65 2.47 7.71 3.63 15.95 3.63h0.04c9.19 0 17.79-2.49 26.52-5.28 7.9-2.51 14.79-6.27 19.91-9.25 3.95-2.31 9.11-6.1 11.27-11.07 1.58-3.64 0.8-6.1-0.12-7.52-1.89-2.88-6.07-4.28-12.78-4.28z" fill="#EDCB23"/></g><g clip-path="url(#a)"><radialGradient id="y" cx="62.226" cy="100.27" r="22.962" gradientUnits="userSpaceOnUse"><stop stop-color="#D84315" stop-opacity=".5" offset=".3842"/><stop stop-color="#F4511E" stop-opacity="0" offset="1"/></radialGradient><path d="m85.08 92.2c-1.22-1.86-3.93-2.77-8.28-2.77-4.06 0-8.69 0.79-11.09 1.26-6.85 1.35-16.59 4.18-24.13 10.04-2.64 2.06-5.47 4.48-5.6 7.25-0.04 0.86 0.18 2.14 1.44 3.32 1.72 1.6 5 2.35 10.33 2.35h0.02c5.95 0 11.53-1.62 17.18-3.42 5.12-1.63 9.58-4.06 12.9-5.99 2.56-1.5 5.9-3.95 7.3-7.17 1.04-2.36 0.53-3.96-0.07-4.87z" fill="url(#y)" opacity=".5"/><linearGradient id="x" x1="55.107" x2="55.107" y1="54.56" y2="112.79" gradientUnits="userSpaceOnUse"><stop stop-color="#A47B62" offset="0"/><stop stop-color="#BA8D68" offset="1"/></linearGradient><path d="m41.84 112.79c-1.12 0-2.04-0.91-2.06-2.04-0.03-2.6 1.89-4.3 4.88-4.33h2.75c0.16 0 0.3-0.07 0.4-0.2s0.13-0.29 0.08-0.43l-5.85-21.5c-0.89-3.28-1.24-5.31 1.97-9.09l17.11-20.64 9.3 8.27-18.91 20.2c-0.11 0.12-0.16 0.28-0.12 0.44l5.48 26.44c0 0.68-0.29 1.41-0.83 1.96s-1.26 0.86-2.03 0.87l-12.17 0.05z" fill="url(#x)"/><path d="m61.18 55.28 8.53 7.58-18.56 19.82c-0.22 0.24-0.32 0.57-0.25 0.89l5.45 26.33c-0.02 0.61-0.26 1.17-0.68 1.61-0.45 0.46-1.04 0.71-1.68 0.72l-12.15 0.06c-0.85 0-1.55-0.69-1.56-1.54-0.03-2.79 2.34-3.8 4.37-3.83h2.75c0.31 0 0.61-0.15 0.79-0.39 0.19-0.25 0.25-0.57 0.17-0.87l-5.85-21.5c-0.87-3.2-1.18-5.04 1.87-8.65l16.8-20.23m-0.11-1.44-17.44 21.03c-3.39 3.99-2.97 6.22-2.07 9.55l5.85 21.5h-2.75c-3.04 0.03-5.4 1.8-5.37 4.84 0.01 1.4 1.16 2.53 2.56 2.53h0.03l12.12-0.06c1.87-0.02 3.37-1.55 3.35-3.43l-5.48-26.44 19.26-20.57-10.06-8.95z" fill="#91674D"/><linearGradient id="w" x1="84.294" x2="77.47" y1="220.8" y2="243" gradientTransform="matrix(.9559 -.2938 .2938 .9559 -105.54 -174.88)" gradientUnits="userSpaceOnUse"><stop stop-color="#BA8D68" offset=".55"/><stop stop-color="#A47B62" offset=".83"/><stop stop-color="#99674F" offset="1"/></linearGradient><path d="m49.41 8.74c-3.25-3.64-9.23-4.11-13.88-2.66-5.21 1.63-7.53 5.88-7.61 10.85-0.03 1.8 0.28 3.56 0.75 4.76 0.06 0.14 0.5 1.19 0.57 1.53 0.39 1.29-1.97 2.95-2.07 4.44-0.07 1.12 2.3 1.5 2.51 1.67 1.03 0.85 0.28 5.75 6.58 5.3 2.2-0.16 4.24-0.65 5.06 0.85l3.61 4.18 4.87-0.25s-3.35-8.93 1.24-15.3c3.14-4.33 1.07-12.34-1.63-15.37z" fill="url(#w)"/><linearGradient id="v" x1="27.179" x2="52.624" y1="22.484" y2="22.484" gradientUnits="userSpaceOnUse"><stop stop-color="#91674D" offset="0"/><stop stop-color="#875740" offset="1"/></linearGradient><path d="m40.57 6.32c3.44 0 6.31 1.1 8.09 3.09 2.57 2.88 4.3 10.34 1.59 14.11-3.84 5.32-2.55 12.14-1.77 14.95l-3.09 0.16-3.23-3.74c-0.78-1.32-2.17-1.47-3.16-1.47-0.58 0-1.18 0.06-1.81 0.12-0.32 0.03-0.65 0.06-0.99 0.09-0.25 0.02-0.5 0.03-0.73 0.03-3.24 0-3.77-1.76-4.24-3.31-0.22-0.74-0.41-1.37-0.91-1.78-0.2-0.17-0.42-0.24-0.79-0.35-0.73-0.22-1.18-0.42-1.35-0.57 0.08-0.4 0.51-0.99 0.89-1.52 0.68-0.94 1.45-1.99 1.13-3.14-0.07-0.32-0.28-0.84-0.56-1.52l-0.05-0.13c-0.45-1.14-0.7-2.78-0.68-4.38 0.04-2.91 0.99-8.06 6.9-9.91 1.52-0.48 3.16-0.73 4.76-0.73m0-1c-1.73 0-3.46 0.27-5.04 0.77-5.21 1.63-7.53 5.88-7.61 10.85-0.03 1.8 0.28 3.56 0.75 4.76 0.06 0.14 0.5 1.19 0.57 1.53 0.39 1.29-1.97 2.95-2.07 4.44-0.07 1.12 2.3 1.5 2.51 1.67 0.98 0.81 0.34 5.33 5.78 5.33 0.25 0 0.52-0.01 0.8-0.03 0.97-0.07 1.91-0.2 2.72-0.2 1.04 0 1.88 0.22 2.34 1.05l3.61 4.18 4.87-0.25s-3.35-8.93 1.24-15.3c3.12-4.32 1.06-12.33-1.65-15.36-2.13-2.42-5.46-3.44-8.82-3.44z" fill="url(#v)"/><radialGradient id="u" cx="14.226" cy="74.934" r="13.371" gradientTransform="matrix(1.0302 -.1319 .1329 .9914 12.206 -61.066)" gradientUnits="userSpaceOnUse"><stop stop-color="#6D4C41" offset="0"/><stop stop-color="#523329" offset="1"/></radialGradient><path d="m42.05 27.11 1.16-5.36s3.38 0.5 2.72 3.96c-0.46 2.44 1.19 5.06 2.29 5.22l0.64 0.15c0.9-3.65 5.26-5.03 5.37-14.45 0.09-8.17-7.32-12.27-14.17-11.96-6.56 0.29-13.65 5.09-12.49 13.95 0.04 0.31 8.61 0.5 10.76 2.47 2.12 1.94 0.75 5.92 3.72 6.02z" fill="url(#u)"/><defs><path id="s" d="m47.9 21.09 0.33 8.77-0.51 0.86s0.35 0.19 0.51 0.22l0.64 0.15c0.9-3.65 5.26-5.03 5.37-14.45 0.09-8.17-7.32-12.27-14.17-11.96-6.56 0.29-13.72 5.41-12.53 13.98 0.01 0.06 1.01 0.14 1.01 0.14l-0.07-1.41 10.01 0.51 9.41 3.19z"/></defs><clipPath id="r"><use xlink:href="#s"/></clipPath><g clip-path="url(#r)"><path d="m40.79 5.65c3.73 0 7.32 1.38 9.61 3.69 1.92 1.94 2.87 4.39 2.84 7.27-0.07 5.93-1.83 8.39-3.39 10.57-0.62 0.87-1.22 1.7-1.62 2.67-0.57-0.42-1.65-2.18-1.31-3.96 0.25-1.32 0.05-2.45-0.61-3.37-1.03-1.45-2.76-1.74-2.95-1.77l-0.93-0.14-0.2 0.91-0.92 4.26c-0.22-0.28-0.37-0.8-0.58-1.74-0.26-1.18-0.58-2.65-1.72-3.7-1.62-1.5-5.58-2.03-9.5-2.44-0.36-0.04-0.75-0.08-1.06-0.12-0.24-2.96 0.57-5.62 2.34-7.74 2.16-2.58 5.65-4.22 9.32-4.39 0.23 0.01 0.45 0 0.68 0m0-1c-0.24 0-0.48 0.01-0.72 0.02-6.56 0.29-13.68 5.2-12.53 13.95 0.04 0.31 8.65 0.5 10.79 2.47 2.11 1.95 0.75 5.93 3.71 6.02l1.16-5.36s3.38 0.5 2.72 3.96c-0.46 2.44 1.19 5.06 2.29 5.22l0.64 0.15c0.9-3.65 5.26-5.03 5.37-14.45 0.1-7.89-6.8-11.98-13.43-11.98z" fill="#402821"/></g><path d="m31.47 21.95c-1.12 0.34-1.4-0.4-1.02-1 0.27-0.44 0.95-0.82 2.27-0.57 1.24 0.23 1.76 0.94 2.1 1.37s0.3 0.86 0.02 0.9c-0.4 0.06-1.98-1.12-3.37-0.7z" fill="#613E31"/><path d="m32.81 57.83s-11.96-0.51-12.79 0.01c-0.84 0.52-0.36 1.49 0.32 1.72s1.93 0.45 1.93 0.45c-0.58 0.37-0.65 1.1-0.15 1.3 2.39 0.97 10.82-2.09 10.82-2.09l-0.13-1.39z" fill="#99674F" stroke="#875740" stroke-linecap="round" stroke-linejoin="round" stroke-miterlimit="10"/><linearGradient id="q" x1="45.446" x2="29.61" y1="54.978" y2="49.832" gradientUnits="userSpaceOnUse"><stop stop-color="#A47B62" offset="0"/><stop stop-color="#AD8264" offset=".1914"/><stop stop-color="#B78A67" offset=".5512"/><stop stop-color="#BA8D68" offset="1"/></linearGradient><path d="m28.5 62.11c-0.2 0-0.25 0-0.35-0.89-0.05-0.42-0.11-0.94-0.27-1.52-0.16-0.57-0.36-1.03-0.52-1.4-0.12-0.27-0.28-0.64-0.25-0.74 0 0 0.08-0.14 0.75-0.33l11.06-3.64c0.15-0.05 0.27-0.17 0.32-0.32l3.9-11.72 6.03 2-4.66 13.5c-0.02 0.03-0.04 0.07-0.05 0.11-0.35 1.07-1.21 1.86-2.3 2.13-0.04 0.01-0.08 0.02-0.12 0.04l-12.89 2.67c-0.29 0.08-0.5 0.11-0.65 0.11z" fill="url(#q)"/><path d="m43.45 42.19 5.07 1.69-4.48 12.98c-0.03 0.05-0.05 0.11-0.07 0.17-0.29 0.9-1.02 1.57-1.94 1.8-0.05 0.01-0.1 0.03-0.15 0.05l-12.82 2.64c-0.02 0-0.04 0.01-0.06 0.02-0.12 0.03-0.21 0.05-0.29 0.07-0.02-0.13-0.04-0.3-0.06-0.43-0.05-0.44-0.12-0.98-0.29-1.6-0.17-0.61-0.38-1.08-0.54-1.47-0.04-0.09-0.09-0.2-0.12-0.29 0.08-0.03 0.2-0.07 0.35-0.11l11.04-3.63c0.3-0.1 0.54-0.33 0.64-0.63l3.72-11.26m-0.64-1.27-4.05 12.19-11.04 3.63c-1.96 0.54-0.87 1.12-0.33 3.08 0.45 1.65 0.08 2.79 1.11 2.79 0.2 0 0.44-0.04 0.75-0.13l13.01-2.68-0.01-0.02c1.27-0.31 2.27-1.25 2.66-2.46h0.01l4.86-14.09-6.97-2.31z" fill="#91674D"/><defs><path id="p" d="m29.86 56.38 1.52-0.51s-1.27-0.53-2.1-0.5c-0.44 0.02-0.87 0.09-1.37 0.18-0.92 0.16-2.08 0.35-3.85 0.25-2.68-0.16-5.86-0.86-5.89-0.87-0.05-0.01-0.1-0.01-0.14-0.01-0.59 0.04-1.09 0.36-1.33 0.84-0.22 0.45-0.19 0.96 0.09 1.38 0.81 1.22 4.33 2.05 6.51 2.3 0.61 0.07 1.7 0.22 2.58 0.35 0.16 0.02 0.21 0.14 0.22 0.19s0.03 0.18-0.09 0.27c-0.48 0.39-1.06 0.71-1.74 0.96-0.83 0.3-1.29 0.72-1.35 1.25-0.09 0.71 0.57 1.27 0.96 1.54 0.31 0.21 0.76 0.3 1.31 0.3 1.97 0 5.05-1.18 6.17-1.94 0.45-0.3 1.15-1.22 1.15-1.22l-1.38 0.18-1.27-4.94z"/></defs><clipPath id="o"><use xlink:href="#p"/></clipPath><linearGradient id="n" x1="16.994" x2="-3.1204" y1="-101.72" y2="-88.384" gradientTransform="matrix(.9375 .348 -.348 .9375 -4.0997 143.39)" gradientUnits="userSpaceOnUse"><stop stop-color="#A47B62" offset="0"/><stop stop-color="#AD8264" offset=".1914"/><stop stop-color="#B78A67" offset=".5512"/><stop stop-color="#BA8D68" offset="1"/></linearGradient><path d="m32.36 57.92c-0.84-1.44-1.57-1.53-2.81-1.47-1.2 0.05-2.55 0.28-5.2 0.12s-5.75-0.85-5.75-0.85c-0.84 0.06-1.2 0.84-0.83 1.4 0.59 0.89 3.49 1.72 5.92 2.01 0.59 0.07 1.65 0.22 2.49 0.33 0.63 0.09 0.86 0.89 0.37 1.29-0.42 0.35-1.01 0.71-1.82 1-1.84 0.66-0.63 1.59-0.27 1.84 1.12 0.75 4.5-0.42 5.88-1.35 1.26-0.85 2.77-3.04 2.02-4.32z" clip-path="url(#o)" fill="url(#n)" stroke="#91674D" stroke-linecap="round" stroke-linejoin="round" stroke-miterlimit="10"/><path d="m48.52 52.15-9.87-3.09c-0.04-0.01-0.08-0.08-0.07-0.12l2.88-9.22c0.69-2.21 2.71-3.7 5.03-3.7 0.53 0 1.06 0.08 1.57 0.24 2.77 0.87 4.32 3.83 3.46 6.6l-2.88 9.22c-0.01 0.05-0.06 0.07-0.09 0.07h-0.03z" fill="#3615AF"/><path d="m46.49 36.51c0.48 0 0.96 0.07 1.43 0.22 2.51 0.79 3.91 3.47 3.13 5.98l-2.76 8.84-9.11-2.85 2.76-8.84c0.63-2 2.46-3.35 4.55-3.35m0-1c-2.46 0-4.73 1.58-5.51 4.05l-2.88 9.22c-0.1 0.32 0.08 0.65 0.39 0.75l9.87 3.09c0.06 0.02 0.12 0.03 0.18 0.03 0.26 0 0.49-0.16 0.57-0.42l2.89-9.23c0.95-3.04-0.74-6.28-3.78-7.23-0.57-0.17-1.16-0.26-1.73-0.26z" fill="#27089C"/><path d="m67.16 94.74c-0.81 0-1.49-0.64-1.54-1.45-0.08-1.29 0.48-2.34 1.58-2.97 0.15-0.09 0.25-0.24 0.25-0.42 0.01-0.17-0.08-0.34-0.22-0.43l-9.36-6.27c-0.02-0.02-0.04-0.04-0.07-0.05-1.6-1.04-2.27-3.01-1.62-4.8 0.01-0.03 0.02-0.06 0.02-0.09l6.77-20.99 9.15 3.32-7.1 17.59c-0.08 0.2-0.02 0.43 0.14 0.57l12.24 10.44c0.07 0.06 0.15 0.1 0.24 0.11 0.02 0.02 0.07 0.12 0.07 0.12 0.33 0.63 0.69 2.08 0.8 2.59 0.06 1.14-0.86 2.19-2.08 2.27l-9.27 0.46z" fill="#99674F"/><path d="m63.3 57.91 8.18 2.97-6.91 17.11c-0.16 0.4-0.05 0.86 0.28 1.14l12.24 10.44c0.07 0.06 0.14 0.11 0.22 0.14 0.25 0.52 0.56 1.65 0.71 2.32 0.01 0.43-0.14 0.84-0.43 1.17-0.3 0.34-0.72 0.55-1.17 0.57l-9.2 0.47h-0.07c-0.55 0-1.01-0.43-1.04-0.98-0.09-1.39 0.68-2.13 1.33-2.5 0.3-0.17 0.49-0.49 0.5-0.83 0.01-0.35-0.16-0.67-0.44-0.87l-9.33-6.25c-0.03-0.03-0.07-0.05-0.1-0.07-1.41-0.91-1.99-2.64-1.42-4.21 0.02-0.04 0.03-0.09 0.04-0.14l6.61-20.48m-0.63-1.29-6.95 21.55h0.01c-0.74 2.04 0.07 4.26 1.82 5.39l0.08 0.06 0.01 0.01 9.33 6.25c-1.19 0.68-1.93 1.86-1.83 3.43 0.07 1.08 0.97 1.92 2.04 1.92h0.13l9.19-0.46c1.49-0.09 2.63-1.38 2.54-2.87 0 0-0.41-1.89-0.85-2.72l0.01-0.01-0.02 0.09c-0.14-0.22-0.26-0.26-0.38-0.26h-0.01l-0.06-0.1-12.23-10.49 7.3-18.09-10.13-3.7z" fill="#875740"/><circle cx="67.73" cy="58.46" r="5.39" fill="#FBC11B"/><linearGradient id="m" x1="57.055" x2="72.442" y1="64.167" y2="64.167" gradientUnits="userSpaceOnUse"><stop stop-color="#E53935" offset=".1833"/><stop stop-color="#D83230" offset=".4833"/><stop stop-color="#C62828" offset=".7899"/></linearGradient><path d="m57.05 72.08 3.92-15.37c0.85-2.33 3.08-3.9 5.56-3.9 0.69 0 1.36 0.12 2.01 0.36 3.06 1.11 4.65 4.51 3.54 7.57l-5.46 14.79-9.57-3.45z" fill="url(#m)"/><path d="m66.53 53.31c0.63 0 1.25 0.11 1.84 0.33 2.8 1.02 4.26 4.13 3.24 6.93l-5.29 14.32-8.68-3.13 3.8-14.89c0.78-2.13 2.83-3.56 5.09-3.56m0-1c-2.62 0-5.08 1.62-6.03 4.23l-4.05 15.86 10.47 3.77 5.63-15.25c1.21-3.33-0.51-7.01-3.84-8.21-0.71-0.28-1.45-0.4-2.18-0.4z" fill="#C62828"/><ellipse cx="66.11" cy="58.32" rx="6.74" ry="6.74" fill="#FBC11B"/><linearGradient id="l" x1="72.238" x2="46.886" y1="63.738" y2="66.466" gradientUnits="userSpaceOnUse"><stop stop-color="#E53935" offset=".013"/><stop stop-color="#EA4643" offset=".3792"/><stop stop-color="#EF5350" offset=".831"/></linearGradient><path d="m47.48 70.25 12.08-16 0.02-0.02c1.42-1.6 3.47-2.53 5.62-2.53 1.84 0 3.61 0.67 4.99 1.9 3.1 2.75 3.38 7.51 0.63 10.61l-14.1 14.04-9.24-8z" fill="url(#l)"/><path d="m65.21 52.2c1.72 0 3.37 0.63 4.66 1.77 2.88 2.56 3.15 6.99 0.61 9.88l-13.79 13.72-8.53-7.39 11.78-15.6 0.02-0.02c1.33-1.51 3.24-2.36 5.25-2.36m0-1c-2.21 0-4.41 0.91-5.99 2.69l-12.42 16.43 9.94 8.61 14.46-14.4c2.94-3.31 2.64-8.38-0.67-11.32-1.53-1.35-3.43-2.01-5.32-2.01z" fill="#D12724"/><linearGradient id="k" x1="53.056" x2="82.916" y1="63.203" y2="63.203" gradientTransform="matrix(.9709 -.0402 -.0402 .9445 -8.057 -11.125)" gradientUnits="userSpaceOnUse"><stop stop-color="#651FFF" offset="0"/><stop stop-color="#5914F2" offset=".7047"/><stop stop-color="#530EEB" offset="1"/></linearGradient><path d="m44.06 41.92c-1.52-3.82-1.42-6.37 0.35-7.72l2.9-1.92c0.47-0.24 1.29-0.4 2.16-0.4 1.23 0 3.6 0.32 5.67 2.49l16.06 20.26-16.66 5.45-10.48-18.16z" fill="url(#k)"/><path d="m49.48 32.38c1.15 0 3.35 0.3 5.28 2.3l15.6 19.7-15.59 5.1-10.24-17.75c-1.43-3.6-1.37-5.92 0.16-7.11l2.85-1.89c0.36-0.17 1.04-0.35 1.94-0.35m0-1c-1.04 0-1.91 0.21-2.44 0.49l-2.93 1.94c-2.28 1.73-1.86 4.91-0.48 8.37l10.68 18.51 17.72-5.8-16.52-20.87c-1.92-2.01-4.23-2.64-6.03-2.64z" fill="#4A00ED"/><linearGradient id="j" x1="55.835" x2="84.83" y1="35.851" y2="42.395" gradientUnits="userSpaceOnUse"><stop stop-color="#A47B62" offset="0"/><stop stop-color="#AD8264" offset=".1914"/><stop stop-color="#B78A67" offset=".5512"/><stop stop-color="#BA8D68" offset="1"/></linearGradient><path d="m81.83 40.77-8.55-6.05c-0.12-0.08-0.27-0.16-0.42-0.24-0.7-0.34-1.47-0.49-2.25-0.5l-14.3-0.29-0.24 7.41 13.72 0.24c0.04 0.01 9.1 4.77 9.1 4.77 1.76 1.04 4.05 1.16 5.09-0.6 1.06-1.76-0.36-3.6-2.15-4.74z" fill="url(#j)" stroke="#91674D" stroke-linecap="round" stroke-linejoin="round" stroke-miterlimit="10"/><defs><path id="i" d="m94.31 47.71c0.14-0.37 0.12-0.7-0.04-1-0.17-0.31-0.48-0.54-0.95-0.73 0.31-0.27 0.5-0.61 0.56-0.99 0.04-0.27-0.02-0.51-0.18-0.71-0.37-0.47-1.11-0.53-2.24-0.63-0.78-0.07-1.65-0.15-2.55-0.37-1.21-0.3-2.2-0.8-3-1.2-0.38-0.19-0.72-0.36-1.08-0.5l-0.06-0.03c-0.75-0.31-2.28-0.31-2.28-0.31l0.64 0.94-3.39 4.14-1.07-0.44s0.35 1.58 0.89 2.25c0.65 0.83 0.76 1.03 0.77 1.05 0.35 0.94 0.56 1.74 0.71 2.33 0.2 0.76 0.31 1.18 0.57 1.42 0.23 0.21 0.46 0.31 0.65 0.35 0.25 0.05 0.46 0 0.6-0.06 0.9-0.37 1.18-1.84 1.21-2.32 0.03-0.5-0.01-1.17-0.05-1.66 0.37 0.15 0.88 0.44 1.3 0.88l0.27 0.28c0.97 1.01 1.73 1.8 2.65 2.4 0.45 0.29 0.98 0.57 1.5 0.39 0.37-0.13 0.64-0.45 0.83-0.98 0.15-0.44-0.01-0.94-0.35-1.48 1.09 0.41 2.17 0.57 2.71-0.03 0.39-0.42 0.39-0.84 0.33-1.11-0.07-0.31-0.27-0.59-0.51-0.82 0.69-0.17 1.36-0.52 1.56-1.06z"/></defs><clipPath id="h"><use xlink:href="#i"/></clipPath><g clip-path="url(#h)" stroke="#91674D" stroke-linecap="round" stroke-linejoin="round" stroke-miterlimit="10"><linearGradient id="g" x1="74.273" x2="92.664" y1="39.52" y2="52.01" gradientUnits="userSpaceOnUse"><stop stop-color="#A47B62" offset="0"/><stop stop-color="#AD8264" offset=".1914"/><stop stop-color="#B78A67" offset=".5512"/><stop stop-color="#BA8D68" offset="1"/></linearGradient><path d="m91.37 45.98c0.4 0.29 1.86-0.09 2-1.05s-2.18-0.55-4.6-1.15c-1.89-0.47-3.24-1.38-4.21-1.75h-0.01c-1.39-0.57-2.97-0.36-4.06 0.68l-0.22 0.21c-1.37 1.31-1.53 3.44-0.35 4.92 0.44 0.55 0.78 1.02 0.85 1.19 0.73 1.97 0.85 3.28 1.15 3.55 0.97 0.88 1.57-0.85 1.63-1.69s-0.11-2.25-0.11-2.25c0.34-0.09 1.46 0.36 2.22 1.15 1.09 1.13 1.88 1.99 2.83 2.6 0.72 0.47 1.25 0.62 1.58-0.33 0.3-0.85-1.73-2.66-1.84-2.83 0 0 3.47 2.08 4.31 1.15 0.98-1.08-1.49-2.04-1.46-2.03 0.73 0.24 2.51-0.15 2.76-0.82 0.31-0.83-0.59-1.16-2.47-1.55z" fill="url(#g)"/><line x1="91.2" x2="88.35" y1="48.41" y2="47.25" fill="none"/><line x1="91.71" x2="89.59" y1="46.05" y2="45.48" fill="none"/></g><path d="m52.93 42.75c-2.93 0-5.31-2.38-5.31-5.31s2.38-5.31 5.31-5.32h9.69c0.08 0 0.14 0.06 0.14 0.14v10.34c0 0.08-0.06 0.14-0.14 0.14l-9.69 0.01z" fill="#3615AF"/><path d="m62.25 32.62v9.63h-9.33c-2.65 0-4.81-2.16-4.81-4.81s2.16-4.81 4.81-4.82h9.33m0.36-1h-9.69c-3.21 0-5.81 2.61-5.81 5.82s2.6 5.81 5.81 5.81h9.69c0.35 0 0.64-0.29 0.64-0.64v-10.34c0-0.37-0.28-0.65-0.64-0.65z" fill="#27089C"/><ellipse transform="matrix(.9956 -.0941 .0941 .9956 -2.1808 3.1529)" cx="32.36" cy="24.71" rx="1.17" ry="1.79" fill="#49362E"/><defs><path id="f" d="m49.41 8.74c-3.25-3.64-9.23-4.11-13.88-2.66-5.21 1.63-7.53 5.88-7.61 10.85-0.03 1.8 0.28 3.56 0.75 4.76 0.06 0.14 0.5 1.19 0.57 1.53 0.39 1.29-1.97 2.95-2.07 4.44-0.07 1.12 2.3 1.5 2.51 1.67 1.03 0.85 0.28 5.75 6.58 5.3 2.2-0.16 4.24-0.65 5.06 0.85l3.61 4.18 4.87-0.25s-3.35-8.93 1.24-15.3c3.14-4.33 1.07-12.34-1.63-15.37z"/></defs><clipPath id="e"><use xlink:href="#f"/></clipPath><g clip-path="url(#e)"><path d="m26.19 30.09c1.67 1.76 4.99 2.56 6.87 0.71 0.72-0.71 0.07-1.29-0.78-0.77-1.39 0.84-4.09 0.26-5.14-0.85-0.7-0.72-1.64 0.19-0.95 0.91z" fill="#5D4037"/></g></g></svg>
