<svg enable-background="new 0 0 128 128" viewBox="0 0 128 128" xmlns="http://www.w3.org/2000/svg" xmlns:xlink="http://www.w3.org/1999/xlink"><radialGradient id="i" cx="63.352" cy="29.132" r="73.336" gradientTransform="matrix(1 0 0 1.0729 0 -2.1236)" gradientUnits="userSpaceOnUse"><stop stop-color="#F5F5F5" offset=".4585"/><stop stop-color="#D0D8DC" offset="1"/></radialGradient><path d="m123.8 99.44c0.07-0.31 0.07-7.88-1.51-10.86-0.6-1.13-0.69-2.49-0.28-3.7 0.29-0.86 0.52-1.76 0.66-2.68 0.87-5.51-1.09-10.8-4.85-14.51-1.15-1.13-1.67-2.72-1.42-4.28v-0.03c0.64-4.04-0.66-7.92-3.24-10.79-2.55-2.84-4.56-6.15-5.58-9.82-1.11-4.01-3.63-8.87-9.27-11.38-1.34-0.59-2.35-1.65-2.82-2.99-1.28-3.7-6.6-8.6-10.88-9.22-0.52-0.08-1.04-0.12-1.55-0.12-1.39-0.01-3.7-0.55-4.59-1.57-3.18-3.62-6.44-5.53-14.05-5.79v-0.02c-0.14 0-0.28 0.01-0.42 0.01s-0.28-0.01-0.42-0.01v0.02c-7.6 0.26-10.71 2.17-13.89 5.79-0.89 1.02-3.2 1.56-4.59 1.57-0.51 0-1.03 0.04-1.55 0.12-4.28 0.63-9.61 5.52-10.88 9.22-0.46 1.34-1.47 2.4-2.82 2.99-5.65 2.5-8.16 7.37-9.27 11.38-1.02 3.68-3.03 6.99-5.58 9.82-2.57 2.86-3.88 6.75-3.24 10.79v0.03c0.25 1.56-0.27 3.15-1.42 4.28-3.76 3.7-5.73 9-4.85 14.51 0.15 0.93 0.37 1.82 0.66 2.68 0.41 1.21 0.32 2.57-0.28 3.7-1.58 2.98-1.58 10.55-1.51 10.86 0.14 0.6-0.41 5.44-0.11 7.31 0.91 5.72 4.86 9.89 10.02 12.44 1.63 1.11 3.54 1.84 5.7 2.06 0.99 0.24 2 0.45 3.03 0.59 1.97 0.28 3.68 0.39 5.19 0.35 6 0.51 16.85 1.05 35.8 1.05 19.03 0 29.86-0.55 35.83-1.06 1.55 0.05 3.31-0.06 5.34-0.35 1.16-0.17 2.3-0.4 3.42-0.69 1.56-0.24 2.98-0.74 4.25-1.47 5.68-2.49 10.11-6.83 11.08-12.94 0.3-1.85-0.25-6.69-0.11-7.29z" fill="url(#i)"/><ellipse transform="matrix(.1661 -.9861 .9861 .1661 -43.562 81.916)" cx="26.66" cy="66.72" rx="3" ry="6.86" fill="#B0BEC5" opacity=".5"/><linearGradient id="h" x1="64.064" x2="64.064" y1="124.04" y2="72.041" gradientUnits="userSpaceOnUse"><stop stop-color="#212E26" offset="0"/><stop stop-color="#334038" offset=".5046"/><stop stop-color="#48534C" offset=".9089"/></linearGradient><path d="m88.25 72.04h-48.37c-2.21 0-4 1.79-4 4v45c0 1.1 0.9 2 2 2 0 0 6.17 1 26.07 1s26.3-1 26.3-1c1.1 0 2-0.9 2-2v-45c0-2.21-1.79-4-4-4z" fill="url(#h)"/><path d="m53.55 78.64c0 0.72-0.58 1.3-1.3 1.3s-1.3-0.58-1.3-1.3 0.58-3.37 1.3-3.37 1.3 2.66 1.3 3.37z" fill="#47524B" opacity=".5"/><path d="m43.68 83.89c0 0.72-0.58 1.3-1.3 1.3s-1.3-0.58-1.3-1.3 0.58-3.37 1.3-3.37 1.3 2.66 1.3 3.37z" fill="#47524B" opacity=".8"/><path d="m65.33 83.89c0 0.72-0.58 1.3-1.3 1.3s-1.3-0.58-1.3-1.3 0.58-3.37 1.3-3.37 1.3 2.66 1.3 3.37z" fill="#47524B" opacity=".8"/><path d="m53.55 93.99c0 0.72-0.58 1.3-1.3 1.3s-1.3-0.58-1.3-1.3 0.58-3.37 1.3-3.37 1.3 2.65 1.3 3.37z" fill="#47524B" opacity=".8"/><path d="m86.98 83.89c0 0.72-0.58 1.3-1.3 1.3s-1.3-0.58-1.3-1.3 0.58-3.37 1.3-3.37 1.3 2.66 1.3 3.37z" fill="#47524B" opacity=".8"/><path d="m43.68 104.92c0 0.72-0.58 1.3-1.3 1.3s-1.3-0.58-1.3-1.3 0.58-3.37 1.3-3.37 1.3 2.65 1.3 3.37z" fill="#47524B" opacity=".2"/><path d="m65.33 104.92c0 0.72-0.58 1.3-1.3 1.3s-1.3-0.58-1.3-1.3 0.58-3.37 1.3-3.37 1.3 2.65 1.3 3.37z" fill="#47524B" opacity=".2"/><path d="m53.55 113.34c0 0.72-0.58 1.3-1.3 1.3s-1.3-0.58-1.3-1.3 0.58-3.37 1.3-3.37 1.3 2.65 1.3 3.37z" fill="#47524B" opacity=".2"/><path d="m77.41 78.64c0 0.72-0.58 1.3-1.3 1.3s-1.3-0.58-1.3-1.3 0.58-3.37 1.3-3.37 1.3 2.66 1.3 3.37z" fill="#47524B" opacity=".5"/><path d="m77.41 93.99c0 0.72-0.58 1.3-1.3 1.3s-1.3-0.58-1.3-1.3 0.58-3.37 1.3-3.37 1.3 2.65 1.3 3.37z" fill="#47524B" opacity=".8"/><path d="m77.41 113.34c0 0.72-0.58 1.3-1.3 1.3s-1.3-0.58-1.3-1.3 0.58-3.37 1.3-3.37 1.3 2.65 1.3 3.37z" fill="#47524B" opacity=".2"/><path d="m86.98 104.92c0 0.72-0.58 1.3-1.3 1.3s-1.3-0.58-1.3-1.3 0.58-3.37 1.3-3.37 1.3 2.65 1.3 3.37z" fill="#47524B" opacity=".2"/><ellipse transform="matrix(.7733 -.634 .634 .7733 -20.278 34.64)" cx="38.3" cy="45.68" rx="3" ry="6.86" fill="#B0BEC5" opacity=".3"/><ellipse transform="matrix(.2162 -.9764 .9764 .2162 28.362 125.49)" cx="92.34" cy="45.08" rx="3" ry="6.86" fill="#B0BEC5" opacity=".5"/><ellipse transform="matrix(.8671 -.4981 .4981 .8671 -6.0871 38.247)" cx="68.65" cy="30.53" rx="6.86" ry="3" fill="#B0BEC5" opacity=".3"/><ellipse transform="matrix(.9228 -.3854 .3854 .9228 -34.097 47.49)" cx="101.41" cy="108.8" rx="6.86" ry="3" fill="#B0BEC5"/><ellipse transform="matrix(.4677 -.8839 .8839 .4677 -23.181 144.53)" cx="108.41" cy="91.51" rx="3" ry="6.86" fill="#B0BEC5"/><ellipse transform="matrix(.4677 -.8839 .8839 .4677 -81.562 80.818)" cx="26.32" cy="108.13" rx="3" ry="6.86" fill="#B0BEC5"/><ellipse transform="matrix(.9636 -.2673 .2673 .9636 -23.292 8.6676)" cx="20.19" cy="89.88" rx="6.86" ry="3" fill="#B0BEC5"/><ellipse transform="matrix(.7882 -.6154 .6154 .7882 -24.214 51.915)" cx="63.32" cy="61.14" rx="6.86" ry="3" fill="#B0BEC5" opacity=".5"/><ellipse transform="matrix(.7317 -.6817 .6817 .7317 -17.117 76.86)" cx="89.07" cy="60.17" rx="3" ry="6.86" fill="#B0BEC5" opacity=".5"/><ellipse transform="matrix(.7509 -.6604 .6604 .7509 -25.696 85.705)" cx="100.76" cy="76.92" rx="6.86" ry="3" fill="#B0BEC5"/><g opacity=".2"><path d="m63.88 14.68h0.08 0.05 0.05 0.08c0.06 0.01 0.13 0.01 0.19 0.01 6.72 0.23 9.28 1.78 11.9 4.77 1.78 2.02 5.24 2.58 6.82 2.59 0.38 0 0.77 0.03 1.14 0.09 3.13 0.46 7.57 4.6 8.48 7.23 0.73 2.13 2.31 3.82 4.44 4.76 3.77 1.67 6.33 4.84 7.6 9.43 1.09 3.92 3.19 7.63 6.24 11.03 2.07 2.3 2.98 5.33 2.5 8.33-0.4 2.51 0.45 5.09 2.27 6.89 3.23 3.19 4.69 7.53 3.99 11.9-0.12 0.74-0.3 1.47-0.54 2.19-0.68 2.01-0.51 4.22 0.47 6.07 0.96 1.8 1.25 7.46 1.18 9.09-0.08 0.55-0.04 1.23 0.05 2.79 0.08 1.35 0.21 3.6 0.08 4.42-0.98 6.15-6.26 9.32-9.32 10.66-0.1 0.04-0.19 0.09-0.29 0.15-0.98 0.56-2.06 0.93-3.21 1.11l-0.3 0.06c-1.02 0.26-2.06 0.47-3.09 0.62-1.51 0.22-2.92 0.33-4.19 0.33-0.22 0-0.43 0-0.64-0.01h-0.09c-0.09 0-0.17 0-0.26 0.01-5.58 0.48-16.28 1.05-35.57 1.05-19.23 0-29.94-0.57-35.54-1.04-0.08-0.01-0.17-0.01-0.25-0.01h-0.07c-0.16 0-0.33 0.01-0.49 0.01-1.27 0-2.68-0.11-4.2-0.33-0.88-0.13-1.8-0.31-2.74-0.54-0.14-0.03-0.27-0.06-0.41-0.07-1.58-0.16-3.03-0.68-4.31-1.56-0.11-0.08-0.24-0.15-0.36-0.21-3.35-1.66-7.52-4.78-8.39-10.23-0.13-0.81 0-3.07 0.08-4.42 0.09-1.56 0.12-2.24 0.05-2.79-0.07-1.64 0.23-7.29 1.18-9.09 0.98-1.85 1.15-4.06 0.47-6.07-0.24-0.72-0.43-1.45-0.54-2.19-0.69-4.38 0.76-8.71 3.99-11.9 1.83-1.8 2.68-4.38 2.27-6.91-0.47-2.98 0.44-6.01 2.5-8.31 3.05-3.39 5.15-7.11 6.24-11.03 1.27-4.59 3.83-7.76 7.6-9.43 2.13-0.94 3.7-2.63 4.44-4.76 0.91-2.64 5.35-6.77 8.48-7.23 0.38-0.06 0.76-0.08 1.14-0.09 1.58-0.01 5.05-0.57 6.82-2.59 2.68-3.05 5.12-4.55 11.73-4.77 0.07 0 0.13-0.01 0.2-0.01m0.54-3.01c-0.14 0-0.28 0.01-0.42 0.01s-0.27-0.01-0.42-0.01h-0.01v0.02c-7.6 0.26-10.71 2.17-13.89 5.79-0.89 1.02-3.2 1.56-4.59 1.57-0.51 0-1.03 0.04-1.55 0.12-4.28 0.63-9.61 5.52-10.88 9.22-0.46 1.34-1.47 2.4-2.82 2.99-5.65 2.5-8.16 7.37-9.27 11.38-1.02 3.68-3.03 6.99-5.58 9.82-2.57 2.86-3.88 6.75-3.24 10.79v0.03c0.25 1.56-0.27 3.15-1.42 4.28-3.76 3.7-5.73 9-4.85 14.51 0.15 0.93 0.37 1.82 0.66 2.68 0.41 1.21 0.32 2.57-0.28 3.7-1.58 2.98-1.58 10.55-1.51 10.86 0.14 0.6-0.41 5.44-0.11 7.31 0.91 5.72 4.86 9.89 10.02 12.44 1.63 1.11 3.54 1.84 5.7 2.06 0.99 0.24 2 0.45 3.03 0.59 1.73 0.25 3.26 0.36 4.63 0.36 0.19 0 0.38 0 0.56-0.01 6 0.51 16.85 1.05 35.8 1.05 19.03 0 29.86-0.55 35.83-1.06 0.24 0.01 0.48 0.01 0.73 0.01 1.37 0 2.89-0.11 4.61-0.36 1.16-0.17 2.3-0.4 3.42-0.69 1.56-0.24 2.98-0.74 4.25-1.47 5.68-2.49 10.11-6.83 11.08-12.94 0.3-1.87-0.25-6.71-0.11-7.31 0.07-0.31 0.07-7.88-1.51-10.86-0.6-1.13-0.69-2.49-0.28-3.7 0.29-0.86 0.52-1.76 0.66-2.68 0.87-5.51-1.09-10.8-4.85-14.51-1.15-1.13-1.67-2.72-1.42-4.28v-0.03c0.64-4.04-0.66-7.92-3.24-10.79-2.55-2.84-4.56-6.15-5.58-9.82-1.11-4.01-3.63-8.87-9.27-11.38-1.34-0.59-2.35-1.65-2.82-2.99-1.28-3.7-6.6-8.6-10.88-9.22-0.52-0.08-1.04-0.12-1.55-0.12-1.39-0.01-3.7-0.55-4.59-1.57-3.18-3.62-6.44-5.53-14.05-5.79h0.01c0.01 0 0 0 0 0z" fill="#434343"/></g><g opacity=".2"><path d="m88.25 75.04c0.55 0 1 0.45 1 1v44.1c-1.91 0.22-9.09 0.9-25.3 0.9-16.2 0-23.22-0.68-25.07-0.89v-44.1c0-0.55 0.45-1 1-1h48.37m0-3.01h-48.37c-2.21 0-4 1.79-4 4v45c0 1.1 0.9 2 2 2 0 0 6.17 1 26.07 1s26.3-1 26.3-1c1.1 0 2-0.9 2-2v-45c0-2.21-1.79-4-4-4z" fill="#eee"/></g><g display="none"><g display="inline"><g opacity=".6"><circle cx="-86" cy="197.37" r="28" fill="none" opacity=".61" stroke="#010101" stroke-miterlimit="10" stroke-width=".2625"/><line x1="-66" x2="-66" y1="133.37" y2="261.37" fill="none" opacity=".61" stroke="#010101" stroke-miterlimit="10" stroke-width=".25"/><line x1="-106" x2="-106" y1="133.37" y2="261.37" fill="none" opacity=".61" stroke="#010101" stroke-miterlimit="10" stroke-width=".25"/><line x1="-86" x2="-86" y1="133.37" y2="261.37" fill="none" opacity=".61" stroke="#010101" stroke-miterlimit="10" stroke-width=".25"/><line x1="-22" x2="-150" y1="197.37" y2="197.37" fill="none" opacity=".61" stroke="#010101" stroke-miterlimit="10" stroke-width=".25"/><line x1="-22" x2="-150" y1="177.37" y2="177.37" fill="none" opacity=".61" stroke="#010101" stroke-miterlimit="10" stroke-width=".25"/><line x1="-22" x2="-150" y1="217.12" y2="217.12" fill="none" opacity=".61" stroke="#010101" stroke-miterlimit="10" stroke-width=".25"/><line x1="-22" x2="-150" y1="261.37" y2="133.37" fill="none" opacity=".61" stroke="#010101" stroke-miterlimit="10" stroke-width=".25"/><line x1="-150" x2="-22" y1="261.37" y2="133.37" fill="none" opacity=".61" stroke="#010101" stroke-miterlimit="10" stroke-width=".25"/><g opacity=".61"><path d="m-86 137.63c32.94 0 59.74 26.8 59.74 59.74s-26.8 59.74-59.74 59.74-59.74-26.8-59.74-59.74 26.8-59.74 59.74-59.74m0-0.26c-33.14 0-60 26.86-60 60s26.86 60 60 60 60-26.86 60-60-26.86-60-60-60z" fill="#010101"/></g><path d="m-42.03 249.34h-87.94c-4.42 0-8.03-3.61-8.03-8.03v-87.91c0-4.42 3.61-8.03 8.03-8.03h87.94c4.42 0 8.03 3.61 8.03 8.03v87.91c0 4.42-3.61 8.03-8.03 8.03z" fill="none" opacity=".61" stroke="#010101" stroke-miterlimit="10" stroke-width=".2578"/><path d="m-50 257.37h-72c-4.4 0-8-3.6-8-8v-104c0-4.4 3.6-8 8-8h72c4.4 0 8 3.6 8 8v104c0 4.4-3.6 8-8 8z" fill="none" opacity=".61" stroke="#010101" stroke-miterlimit="10" stroke-width=".2628"/><path d="m-36.23 241.37h-99.54c-5.63 0-10.23-4.6-10.23-10.23v-67.48c0-5.63 4.6-10.23 10.23-10.23h99.54c5.63 0 10.23 4.6 10.23 10.23v67.48c0 5.63-4.6 10.23-10.23 10.23z" fill="none" opacity=".61" stroke="#010101" stroke-miterlimit="10" stroke-width=".2627"/></g><g opacity=".2"><defs><rect id="g" x="-150" y="133.37" width="128" height="128" opacity=".2"/></defs><clipPath id="f"><use xlink:href="#g"/></clipPath><g clip-path="url(#f)"><g fill="none" stroke="#010101" stroke-miterlimit="10" stroke-width=".25"><line x1="-178" x2="-178" y1="293.37" y2="101.37"/><line x1="-174" x2="-174" y1="293.37" y2="101.37"/><line x1="-170" x2="-170" y1="293.37" y2="101.37"/><line x1="-166" x2="-166" y1="293.37" y2="101.37"/><line x1="-162" x2="-162" y1="293.37" y2="101.37"/><line x1="-158" x2="-158" y1="293.37" y2="101.37"/><line x1="-154" x2="-154" y1="293.37" y2="101.37"/><line x1="-150" x2="-150" y1="293.37" y2="101.37"/><line x1="-146" x2="-146" y1="293.37" y2="101.37"/><line x1="-142" x2="-142" y1="293.37" y2="101.37"/><line x1="-138" x2="-138" y1="293.37" y2="101.37"/><line x1="-134" x2="-134" y1="293.37" y2="101.37"/><line x1="-130" x2="-130" y1="293.37" y2="101.37"/><line x1="-126" x2="-126" y1="293.37" y2="101.37"/><line x1="-122" x2="-122" y1="293.37" y2="101.37"/><line x1="-118" x2="-118" y1="293.37" y2="101.37"/><line x1="-114" x2="-114" y1="293.37" y2="101.37"/><line x1="-110" x2="-110" y1="293.37" y2="101.37"/><line x1="-106" x2="-106" y1="293.37" y2="101.37"/><line x1="-102" x2="-102" y1="293.37" y2="101.37"/><line x1="-98" x2="-98" y1="293.37" y2="101.37"/><line x1="-94" x2="-94" y1="293.37" y2="101.37"/><line x1="-90" x2="-90" y1="293.37" y2="101.37"/><line x1="-86" x2="-86" y1="293.37" y2="101.37"/><line x1="-82" x2="-82" y1="293.37" y2="101.37"/><line x1="-78" x2="-78" y1="293.37" y2="101.37"/><line x1="-74" x2="-74" y1="293.37" y2="101.37"/><line x1="-70" x2="-70" y1="293.37" y2="101.37"/><line x1="-66" x2="-66" y1="293.37" y2="101.37"/><line x1="-62" x2="-62" y1="293.37" y2="101.37"/><line x1="-58" x2="-58" y1="293.37" y2="101.37"/><line x1="-54" x2="-54" y1="293.37" y2="101.37"/><line x1="-50" x2="-50" y1="293.37" y2="101.37"/><line x1="-46" x2="-46" y1="293.37" y2="101.37"/><line x1="-42" x2="-42" y1="293.37" y2="101.37"/><line x1="-38" x2="-38" y1="293.37" y2="101.37"/><line x1="-34" x2="-34" y1="293.37" y2="101.37"/><line x1="-30" x2="-30" y1="293.37" y2="101.37"/><line x1="-26" x2="-26" y1="293.37" y2="101.37"/><line x1="-22" x2="-22" y1="293.37" y2="101.37"/><line x1="-18" x2="-18" y1="293.37" y2="101.37"/><line x1="-14" x2="-14" y1="293.37" y2="101.37"/><line x1="-13" x2="-13" y1="299.42" y2="107.42"/><line x1="-6" x2="-6" y1="293.37" y2="101.37"/><line x1="-2" x2="-2" y1="293.37" y2="101.37"/><line x1="2" x2="2" y1="293.37" y2="101.37"/><line x1="6" x2="6" y1="293.37" y2="101.37"/></g><g fill="none" stroke="#010101" stroke-miterlimit="10" stroke-width=".25"><line x1="-182" x2="10" y1="105.37" y2="105.37"/><line x1="-182" x2="10" y1="109.37" y2="109.37"/><line x1="-182" x2="10" y1="113.37" y2="113.37"/><line x1="-182" x2="10" y1="117.37" y2="117.37"/><line x1="-182" x2="10" y1="121.37" y2="121.37"/><line x1="-182" x2="10" y1="125.37" y2="125.37"/><line x1="-182" x2="10" y1="129.37" y2="129.37"/><line x1="-182" x2="10" y1="133.37" y2="133.37"/><line x1="-182" x2="10" y1="137.37" y2="137.37"/><line x1="-182" x2="10" y1="141.37" y2="141.37"/><line x1="-182" x2="10" y1="145.37" y2="145.37"/><line x1="-182" x2="10" y1="149.37" y2="149.37"/><line x1="-182" x2="10" y1="153.37" y2="153.37"/><line x1="-182" x2="10" y1="157.37" y2="157.37"/><line x1="-182" x2="10" y1="161.37" y2="161.37"/><line x1="-182" x2="10" y1="165.37" y2="165.37"/><line x1="-182" x2="10" y1="169.37" y2="169.37"/><line x1="-182" x2="10" y1="173.37" y2="173.37"/><line x1="-182" x2="10" y1="177.37" y2="177.37"/><line x1="-182" x2="10" y1="181.37" y2="181.37"/><line x1="-182" x2="10" y1="185.37" y2="185.37"/><line x1="-182" x2="10" y1="189.37" y2="189.37"/><line x1="-182" x2="10" y1="193.37" y2="193.37"/><line x1="-182" x2="10" y1="197.37" y2="197.37"/><line x1="-182" x2="10" y1="201.37" y2="201.37"/><line x1="-182" x2="10" y1="205.37" y2="205.37"/><line x1="-182" x2="10" y1="209.37" y2="209.37"/><line x1="-182" x2="10" y1="213.37" y2="213.37"/><line x1="-182" x2="10" y1="217.37" y2="217.37"/><line x1="-182" x2="10" y1="221.37" y2="221.37"/><line x1="-182" x2="10" y1="225.37" y2="225.37"/><line x1="-182" x2="10" y1="229.37" y2="229.37"/><line x1="-182" x2="10" y1="233.37" y2="233.37"/><line x1="-182" x2="10" y1="237.37" y2="237.37"/><line x1="-182" x2="10" y1="241.37" y2="241.37"/><line x1="-182" x2="10" y1="245.37" y2="245.37"/><line x1="-182" x2="10" y1="249.37" y2="249.37"/><line x1="-182" x2="10" y1="253.37" y2="253.37"/><line x1="-182" x2="10" y1="257.37" y2="257.37"/><line x1="-182" x2="10" y1="261.37" y2="261.37"/><line x1="-182" x2="10" y1="265.37" y2="265.37"/><line x1="-182" x2="10" y1="269.37" y2="269.37"/><line x1="-182" x2="10" y1="273.37" y2="273.37"/><line x1="-182" x2="10" y1="277.37" y2="277.37"/><line x1="-182" x2="10" y1="281.37" y2="281.37"/><line x1="-182" x2="10" y1="285.37" y2="285.37"/><line x1="-182" x2="10" y1="289.37" y2="289.37"/></g><path d="m9.75 101.62v191.5h-191.5v-191.5h191.5m0.25-0.25h-192v192h192v-192z" fill="#010101"/></g></g><g fill="#EF4438"><rect x="-150" y="133.37" width="4" height="128" opacity=".3"/><rect x="-26" y="133.37" width="4" height="128" opacity=".3"/><rect transform="matrix(-1.837e-16 1 -1 -1.837e-16 49.371 221.37)" x="-88" y="75.37" width="4" height="120" opacity=".3"/><rect transform="matrix(-1.837e-16 1 -1 -1.837e-16 173.37 345.37)" x="-88" y="199.37" width="4" height="120" opacity=".3"/></g></g><g display="inline"><g opacity=".6"><circle cx="-86" cy="64" r="28" fill="none" opacity=".61" stroke="#010101" stroke-miterlimit="10" stroke-width=".2625"/><line x1="-66" x2="-66" y2="128" fill="none" opacity=".61" stroke="#010101" stroke-miterlimit="10" stroke-width=".25"/><line x1="-106" x2="-106" y2="128" fill="none" opacity=".61" stroke="#010101" stroke-miterlimit="10" stroke-width=".25"/><line x1="-86" x2="-86" y2="128" fill="none" opacity=".61" stroke="#010101" stroke-miterlimit="10" stroke-width=".25"/><line x1="-22" x2="-150" y1="64" y2="64" fill="none" opacity=".61" stroke="#010101" stroke-miterlimit="10" stroke-width=".25"/><line x1="-22" x2="-150" y1="44" y2="44" fill="none" opacity=".61" stroke="#010101" stroke-miterlimit="10" stroke-width=".25"/><line x1="-22" x2="-150" y1="83.75" y2="83.75" fill="none" opacity=".61" stroke="#010101" stroke-miterlimit="10" stroke-width=".25"/><line x1="-22" x2="-150" y1="128" fill="none" opacity=".61" stroke="#010101" stroke-miterlimit="10" stroke-width=".25"/><line x1="-150" x2="-22" y1="128" fill="none" opacity=".61" stroke="#010101" stroke-miterlimit="10" stroke-width=".25"/><g opacity=".61"><path d="m-86 4.26c32.94 0 59.74 26.8 59.74 59.74s-26.8 59.74-59.74 59.74-59.74-26.8-59.74-59.74 26.8-59.74 59.74-59.74m0-0.26c-33.14 0-60 26.86-60 60s26.86 60 60 60 60-26.86 60-60-26.86-60-60-60z" fill="#010101"/></g><path d="m-42.03 115.97h-87.94c-4.42 0-8.03-3.61-8.03-8.03v-87.91c0-4.42 3.61-8.03 8.03-8.03h87.94c4.42 0 8.03 3.61 8.03 8.03v87.91c0 4.42-3.61 8.03-8.03 8.03z" fill="none" opacity=".61" stroke="#010101" stroke-miterlimit="10" stroke-width=".2578"/><path d="m-50 124h-72c-4.4 0-8-3.6-8-8v-104c0-4.4 3.6-8 8-8h72c4.4 0 8 3.6 8 8v104c0 4.4-3.6 8-8 8z" fill="none" opacity=".61" stroke="#010101" stroke-miterlimit="10" stroke-width=".2628"/><path d="m-36.23 108h-99.54c-5.63 0-10.23-4.6-10.23-10.23v-67.49c0-5.63 4.6-10.23 10.23-10.23h99.54c5.63 0 10.23 4.6 10.23 10.23v67.48c0 5.64-4.6 10.24-10.23 10.24z" fill="none" opacity=".61" stroke="#010101" stroke-miterlimit="10" stroke-width=".2627"/></g><g opacity=".2"><defs><rect id="e" x="-150" width="128" height="128" opacity=".2"/></defs><clipPath id="c"><use xlink:href="#e"/></clipPath><g clip-path="url(#c)"><g fill="none" stroke="#010101" stroke-miterlimit="10" stroke-width=".25"><line x1="-178" x2="-178" y1="160" y2="-32"/><line x1="-174" x2="-174" y1="160" y2="-32"/><line x1="-170" x2="-170" y1="160" y2="-32"/><line x1="-166" x2="-166" y1="160" y2="-32"/><line x1="-162" x2="-162" y1="160" y2="-32"/><line x1="-158" x2="-158" y1="160" y2="-32"/><line x1="-154" x2="-154" y1="160" y2="-32"/><line x1="-150" x2="-150" y1="160" y2="-32"/><line x1="-146" x2="-146" y1="160" y2="-32"/><line x1="-142" x2="-142" y1="160" y2="-32"/><line x1="-138" x2="-138" y1="160" y2="-32"/><line x1="-134" x2="-134" y1="160" y2="-32"/><line x1="-130" x2="-130" y1="160" y2="-32"/><line x1="-126" x2="-126" y1="160" y2="-32"/><line x1="-122" x2="-122" y1="160" y2="-32"/><line x1="-118" x2="-118" y1="160" y2="-32"/><line x1="-114" x2="-114" y1="160" y2="-32"/><line x1="-110" x2="-110" y1="160" y2="-32"/><line x1="-106" x2="-106" y1="160" y2="-32"/><line x1="-102" x2="-102" y1="160" y2="-32"/><line x1="-98" x2="-98" y1="160" y2="-32"/><line x1="-94" x2="-94" y1="160" y2="-32"/><line x1="-90" x2="-90" y1="160" y2="-32"/><line x1="-86" x2="-86" y1="160" y2="-32"/><line x1="-82" x2="-82" y1="160" y2="-32"/><line x1="-78" x2="-78" y1="160" y2="-32"/><line x1="-74" x2="-74" y1="160" y2="-32"/><line x1="-70" x2="-70" y1="160" y2="-32"/><line x1="-66" x2="-66" y1="160" y2="-32"/><line x1="-62" x2="-62" y1="160" y2="-32"/><line x1="-58" x2="-58" y1="160" y2="-32"/><line x1="-54" x2="-54" y1="160" y2="-32"/><line x1="-50" x2="-50" y1="160" y2="-32"/><line x1="-46" x2="-46" y1="160" y2="-32"/><line x1="-42" x2="-42" y1="160" y2="-32"/><line x1="-38" x2="-38" y1="160" y2="-32"/><line x1="-34" x2="-34" y1="160" y2="-32"/><line x1="-30" x2="-30" y1="160" y2="-32"/><line x1="-26" x2="-26" y1="160" y2="-32"/><line x1="-22" x2="-22" y1="160" y2="-32"/><line x1="-18" x2="-18" y1="160" y2="-32"/><line x1="-14" x2="-14" y1="160" y2="-32"/><line x1="-13" x2="-13" y1="166.05" y2="-25.95"/><line x1="-6" x2="-6" y1="160" y2="-32"/><line x1="-2" x2="-2" y1="160" y2="-32"/><line x1="2" x2="2" y1="160" y2="-32"/><line x1="6" x2="6" y1="160" y2="-32"/></g><g fill="none" stroke="#010101" stroke-miterlimit="10" stroke-width=".25"><line x1="-182" x2="10" y1="-28" y2="-28"/><line x1="-182" x2="10" y1="-24" y2="-24"/><line x1="-182" x2="10" y1="-20" y2="-20"/><line x1="-182" x2="10" y1="-16" y2="-16"/><line x1="-182" x2="10" y1="-12" y2="-12"/><line x1="-182" x2="10" y1="-8" y2="-8"/><line x1="-182" x2="10" y1="-4" y2="-4"/><line x1="-182" x2="10"/><line x1="-182" x2="10" y1="4" y2="4"/><line x1="-182" x2="10" y1="8" y2="8"/><line x1="-182" x2="10" y1="12" y2="12"/><line x1="-182" x2="10" y1="16" y2="16"/><line x1="-182" x2="10" y1="20" y2="20"/><line x1="-182" x2="10" y1="24" y2="24"/><line x1="-182" x2="10" y1="28" y2="28"/><line x1="-182" x2="10" y1="32" y2="32"/><line x1="-182" x2="10" y1="36" y2="36"/><line x1="-182" x2="10" y1="40" y2="40"/><line x1="-182" x2="10" y1="44" y2="44"/><line x1="-182" x2="10" y1="48" y2="48"/><line x1="-182" x2="10" y1="52" y2="52"/><line x1="-182" x2="10" y1="56" y2="56"/><line x1="-182" x2="10" y1="60" y2="60"/><line x1="-182" x2="10" y1="64" y2="64"/><line x1="-182" x2="10" y1="68" y2="68"/><line x1="-182" x2="10" y1="72" y2="72"/><line x1="-182" x2="10" y1="76" y2="76"/><line x1="-182" x2="10" y1="80" y2="80"/><line x1="-182" x2="10" y1="84" y2="84"/><line x1="-182" x2="10" y1="88" y2="88"/><line x1="-182" x2="10" y1="92" y2="92"/><line x1="-182" x2="10" y1="96" y2="96"/><line x1="-182" x2="10" y1="100" y2="100"/><line x1="-182" x2="10" y1="104" y2="104"/><line x1="-182" x2="10" y1="108" y2="108"/><line x1="-182" x2="10" y1="112" y2="112"/><line x1="-182" x2="10" y1="116" y2="116"/><line x1="-182" x2="10" y1="120" y2="120"/><line x1="-182" x2="10" y1="124" y2="124"/><line x1="-182" x2="10" y1="128" y2="128"/><line x1="-182" x2="10" y1="132" y2="132"/><line x1="-182" x2="10" y1="136" y2="136"/><line x1="-182" x2="10" y1="140" y2="140"/><line x1="-182" x2="10" y1="144" y2="144"/><line x1="-182" x2="10" y1="148" y2="148"/><line x1="-182" x2="10" y1="152" y2="152"/><line x1="-182" x2="10" y1="156" y2="156"/></g><path d="m9.75-31.75v191.5h-191.5v-191.5h191.5m0.25-0.25h-192v192h192v-192z" fill="#010101"/></g></g><g fill="#EF4438"><rect x="-150" width="4" height="128" opacity=".3"/><rect x="-26" width="4" height="128" opacity=".3"/><rect transform="matrix(-1.837e-16 1 -1 -1.837e-16 -84 88)" x="-88" y="-58" width="4" height="120" opacity=".3"/><rect transform="matrix(-1.837e-16 1 -1 -1.837e-16 40 212)" x="-88" y="66" width="4" height="120" opacity=".3"/></g></g><g display="inline"><g opacity=".6"><circle cx="64" cy="64" r="28" fill="none" opacity=".61" stroke="#010101" stroke-miterlimit="10" stroke-width=".2625"/><line x1="84" x2="84" y2="128" fill="none" opacity=".61" stroke="#010101" stroke-miterlimit="10" stroke-width=".25"/><line x1="44" x2="44" y2="128" fill="none" opacity=".61" stroke="#010101" stroke-miterlimit="10" stroke-width=".25"/><line x1="64" x2="64" y2="128" fill="none" opacity=".61" stroke="#010101" stroke-miterlimit="10" stroke-width=".25"/><line x1="128" y1="64" y2="64" fill="none" opacity=".61" stroke="#010101" stroke-miterlimit="10" stroke-width=".25"/><line x1="128" y1="44" y2="44" fill="none" opacity=".61" stroke="#010101" stroke-miterlimit="10" stroke-width=".25"/><line x1="128" y1="83.75" y2="83.75" fill="none" opacity=".61" stroke="#010101" stroke-miterlimit="10" stroke-width=".25"/><line x1="128" y1="128" fill="none" opacity=".61" stroke="#010101" stroke-miterlimit="10" stroke-width=".25"/><line x2="128" y1="128" fill="none" opacity=".61" stroke="#010101" stroke-miterlimit="10" stroke-width=".25"/><g opacity=".61"><path d="M64,4.26c32.94,0,59.74,26.8,59.74,59.74S96.94,123.74,64,123.74S4.26,96.94,4.26,64 S31.06,4.26,64,4.26 M64,4C30.86,4,4,30.86,4,64s26.86,60,60,60s60-26.86,60-60S97.14,4,64,4L64,4z" fill="#010101"/></g><path d="m107.97 115.97h-87.94c-4.42 0-8.03-3.61-8.03-8.03v-87.91c0-4.42 3.61-8.03 8.03-8.03h87.94c4.42 0 8.03 3.61 8.03 8.03v87.91c0 4.42-3.61 8.03-8.03 8.03z" fill="none" opacity=".61" stroke="#010101" stroke-miterlimit="10" stroke-width=".2578"/><path d="m100 124h-72c-4.4 0-8-3.6-8-8v-104c0-4.4 3.6-8 8-8h72c4.4 0 8 3.6 8 8v104c0 4.4-3.6 8-8 8z" fill="none" opacity=".61" stroke="#010101" stroke-miterlimit="10" stroke-width=".2628"/><path d="M113.77,108H14.23 C8.6,108,4,103.4,4,97.77V30.28c0-5.63,4.6-10.23,10.23-10.23h99.54c5.63,0,10.23,4.6,10.23,10.23v67.48 C124,103.4,119.4,108,113.77,108z" fill="none" opacity=".61" stroke="#010101" stroke-miterlimit="10" stroke-width=".2627"/></g><g opacity=".2"><defs><rect id="d" width="128" height="128" opacity=".2"/></defs><clipPath id="a"><use xlink:href="#d"/></clipPath><g clip-path="url(#a)"><g fill="none" stroke="#010101" stroke-miterlimit="10" stroke-width=".25"><line x1="-28" x2="-28" y1="160" y2="-32"/><line x1="-24" x2="-24" y1="160" y2="-32"/><line x1="-20" x2="-20" y1="160" y2="-32"/><line x1="-16" x2="-16" y1="160" y2="-32"/><line x1="-12" x2="-12" y1="160" y2="-32"/><line x1="-8" x2="-8" y1="160" y2="-32"/><line x1="-4" x2="-4" y1="160" y2="-32"/><line y1="160" y2="-32"/><line x1="4" x2="4" y1="160" y2="-32"/><line x1="8" x2="8" y1="160" y2="-32"/><line x1="12" x2="12" y1="160" y2="-32"/><line x1="16" x2="16" y1="160" y2="-32"/><line x1="20" x2="20" y1="160" y2="-32"/><line x1="24" x2="24" y1="160" y2="-32"/><line x1="28" x2="28" y1="160" y2="-32"/><line x1="32" x2="32" y1="160" y2="-32"/><line x1="36" x2="36" y1="160" y2="-32"/><line x1="40" x2="40" y1="160" y2="-32"/><line x1="44" x2="44" y1="160" y2="-32"/><line x1="48" x2="48" y1="160" y2="-32"/><line x1="52" x2="52" y1="160" y2="-32"/><line x1="56" x2="56" y1="160" y2="-32"/><line x1="60" x2="60" y1="160" y2="-32"/><line x1="64" x2="64" y1="160" y2="-32"/><line x1="68" x2="68" y1="160" y2="-32"/><line x1="72" x2="72" y1="160" y2="-32"/><line x1="76" x2="76" y1="160" y2="-32"/><line x1="80" x2="80" y1="160" y2="-32"/><line x1="84" x2="84" y1="160" y2="-32"/><line x1="88" x2="88" y1="160" y2="-32"/><line x1="92" x2="92" y1="160" y2="-32"/><line x1="96" x2="96" y1="160" y2="-32"/><line x1="100" x2="100" y1="160" y2="-32"/><line x1="104" x2="104" y1="160" y2="-32"/><line x1="108" x2="108" y1="160" y2="-32"/><line x1="112" x2="112" y1="160" y2="-32"/><line x1="116" x2="116" y1="160" y2="-32"/><line x1="120" x2="120" y1="160" y2="-32"/><line x1="124" x2="124" y1="160" y2="-32"/><line x1="128" x2="128" y1="160" y2="-32"/><line x1="132" x2="132" y1="160" y2="-32"/><line x1="136" x2="136" y1="160" y2="-32"/><line x1="137" x2="137" y1="166.05" y2="-25.95"/><line x1="144" x2="144" y1="160" y2="-32"/><line x1="148" x2="148" y1="160" y2="-32"/><line x1="152" x2="152" y1="160" y2="-32"/><line x1="156" x2="156" y1="160" y2="-32"/></g><g fill="none" stroke="#010101" stroke-miterlimit="10" stroke-width=".25"><line x1="-32" x2="160" y1="-28" y2="-28"/><line x1="-32" x2="160" y1="-24" y2="-24"/><line x1="-32" x2="160" y1="-20" y2="-20"/><line x1="-32" x2="160" y1="-16" y2="-16"/><line x1="-32" x2="160" y1="-12" y2="-12"/><line x1="-32" x2="160" y1="-8" y2="-8"/><line x1="-32" x2="160" y1="-4" y2="-4"/><line x1="-32" x2="160"/><line x1="-32" x2="160" y1="4" y2="4"/><line x1="-32" x2="160" y1="8" y2="8"/><line x1="-32" x2="160" y1="12" y2="12"/><line x1="-32" x2="160" y1="16" y2="16"/><line x1="-32" x2="160" y1="20" y2="20"/><line x1="-32" x2="160" y1="24" y2="24"/><line x1="-32" x2="160" y1="28" y2="28"/><line x1="-32" x2="160" y1="32" y2="32"/><line x1="-32" x2="160" y1="36" y2="36"/><line x1="-32" x2="160" y1="40" y2="40"/><line x1="-32" x2="160" y1="44" y2="44"/><line x1="-32" x2="160" y1="48" y2="48"/><line x1="-32" x2="160" y1="52" y2="52"/><line x1="-32" x2="160" y1="56" y2="56"/><line x1="-32" x2="160" y1="60" y2="60"/><line x1="-32" x2="160" y1="64" y2="64"/><line x1="-32" x2="160" y1="68" y2="68"/><line x1="-32" x2="160" y1="72" y2="72"/><line x1="-32" x2="160" y1="76" y2="76"/><line x1="-32" x2="160" y1="80" y2="80"/><line x1="-32" x2="160" y1="84" y2="84"/><line x1="-32" x2="160" y1="88" y2="88"/><line x1="-32" x2="160" y1="92" y2="92"/><line x1="-32" x2="160" y1="96" y2="96"/><line x1="-32" x2="160" y1="100" y2="100"/><line x1="-32" x2="160" y1="104" y2="104"/><line x1="-32" x2="160" y1="108" y2="108"/><line x1="-32" x2="160" y1="112" y2="112"/><line x1="-32" x2="160" y1="116" y2="116"/><line x1="-32" x2="160" y1="120" y2="120"/><line x1="-32" x2="160" y1="124" y2="124"/><line x1="-32" x2="160" y1="128" y2="128"/><line x1="-32" x2="160" y1="132" y2="132"/><line x1="-32" x2="160" y1="136" y2="136"/><line x1="-32" x2="160" y1="140" y2="140"/><line x1="-32" x2="160" y1="144" y2="144"/><line x1="-32" x2="160" y1="148" y2="148"/><line x1="-32" x2="160" y1="152" y2="152"/><line x1="-32" x2="160" y1="156" y2="156"/></g><path d="m159.75-31.75v191.5h-191.5v-191.5h191.5m0.25-0.25h-192v192h192v-192z" fill="#010101"/></g></g><g fill="#EF4438"><rect width="4" height="128" opacity=".3"/><rect x="124" width="4" height="128" opacity=".3"/><rect transform="matrix(-1.837e-16 1 -1 -1.837e-16 66 -62)" x="62" y="-58" width="4" height="120" opacity=".3"/><rect transform="matrix(-1.837e-16 1 -1 -1.837e-16 190 62)" x="62" y="66" width="4" height="120" opacity=".3"/></g></g><g display="inline"><g opacity=".6"><circle cx="215.33" cy="64" r="28" fill="none" opacity=".61" stroke="#010101" stroke-miterlimit="10" stroke-width=".2625"/><line x1="235.33" x2="235.33" y2="128" fill="none" opacity=".61" stroke="#010101" stroke-miterlimit="10" stroke-width=".25"/><line x1="195.33" x2="195.33" y2="128" fill="none" opacity=".61" stroke="#010101" stroke-miterlimit="10" stroke-width=".25"/><line x1="215.33" x2="215.33" y2="128" fill="none" opacity=".61" stroke="#010101" stroke-miterlimit="10" stroke-width=".25"/><line x1="279.33" x2="151.33" y1="64" y2="64" fill="none" opacity=".61" stroke="#010101" stroke-miterlimit="10" stroke-width=".25"/><line x1="279.33" x2="151.33" y1="44" y2="44" fill="none" opacity=".61" stroke="#010101" stroke-miterlimit="10" stroke-width=".25"/><line x1="279.33" x2="151.33" y1="83.75" y2="83.75" fill="none" opacity=".61" stroke="#010101" stroke-miterlimit="10" stroke-width=".25"/><line x1="279.33" x2="151.33" y1="128" fill="none" opacity=".61" stroke="#010101" stroke-miterlimit="10" stroke-width=".25"/><line x1="151.33" x2="279.33" y1="128" fill="none" opacity=".61" stroke="#010101" stroke-miterlimit="10" stroke-width=".25"/><g opacity=".61"><path d="m215.33 4.26c32.94 0 59.74 26.8 59.74 59.74s-26.8 59.74-59.74 59.74-59.74-26.8-59.74-59.74 26.8-59.74 59.74-59.74m0-0.26c-33.14 0-60 26.86-60 60s26.86 60 60 60 60-26.86 60-60-26.86-60-60-60z" fill="#010101"/></g><path d="m259.3 115.97h-87.94c-4.42 0-8.03-3.61-8.03-8.03v-87.91c0-4.42 3.61-8.03 8.03-8.03h87.94c4.42 0 8.03 3.61 8.03 8.03v87.91c0 4.42-3.61 8.03-8.03 8.03z" fill="none" opacity=".61" stroke="#010101" stroke-miterlimit="10" stroke-width=".2578"/><path d="m251.33 124h-72c-4.4 0-8-3.6-8-8v-104c0-4.4 3.6-8 8-8h72c4.4 0 8 3.6 8 8v104c0 4.4-3.6 8-8 8z" fill="none" opacity=".61" stroke="#010101" stroke-miterlimit="10" stroke-width=".2628"/><path d="m265.1 108h-99.54c-5.63 0-10.23-4.6-10.23-10.23v-67.49c0-5.63 4.6-10.23 10.23-10.23h99.54c5.63 0 10.23 4.6 10.23 10.23v67.48c0 5.64-4.6 10.24-10.23 10.24z" fill="none" opacity=".61" stroke="#010101" stroke-miterlimit="10" stroke-width=".2627"/></g><g opacity=".2"><defs><rect id="l" x="151.33" width="128" height="128" opacity=".2"/></defs><clipPath id="n"><use xlink:href="#l"/></clipPath><g clip-path="url(#n)"><g fill="none" stroke="#010101" stroke-miterlimit="10" stroke-width=".25"><line x1="123.33" x2="123.33" y1="160" y2="-32"/><line x1="127.33" x2="127.33" y1="160" y2="-32"/><line x1="131.33" x2="131.33" y1="160" y2="-32"/><line x1="135.33" x2="135.33" y1="160" y2="-32"/><line x1="139.33" x2="139.33" y1="160" y2="-32"/><line x1="143.33" x2="143.33" y1="160" y2="-32"/><line x1="147.33" x2="147.33" y1="160" y2="-32"/><line x1="151.33" x2="151.33" y1="160" y2="-32"/><line x1="155.33" x2="155.33" y1="160" y2="-32"/><line x1="159.33" x2="159.33" y1="160" y2="-32"/><line x1="163.33" x2="163.33" y1="160" y2="-32"/><line x1="167.33" x2="167.33" y1="160" y2="-32"/><line x1="171.33" x2="171.33" y1="160" y2="-32"/><line x1="175.33" x2="175.33" y1="160" y2="-32"/><line x1="179.33" x2="179.33" y1="160" y2="-32"/><line x1="183.33" x2="183.33" y1="160" y2="-32"/><line x1="187.33" x2="187.33" y1="160" y2="-32"/><line x1="191.33" x2="191.33" y1="160" y2="-32"/><line x1="195.33" x2="195.33" y1="160" y2="-32"/><line x1="199.33" x2="199.33" y1="160" y2="-32"/><line x1="203.33" x2="203.33" y1="160" y2="-32"/><line x1="207.33" x2="207.33" y1="160" y2="-32"/><line x1="211.33" x2="211.33" y1="160" y2="-32"/><line x1="215.33" x2="215.33" y1="160" y2="-32"/><line x1="219.33" x2="219.33" y1="160" y2="-32"/><line x1="223.33" x2="223.33" y1="160" y2="-32"/><line x1="227.33" x2="227.33" y1="160" y2="-32"/><line x1="231.33" x2="231.33" y1="160" y2="-32"/><line x1="235.33" x2="235.33" y1="160" y2="-32"/><line x1="239.33" x2="239.33" y1="160" y2="-32"/><line x1="243.33" x2="243.33" y1="160" y2="-32"/><line x1="247.33" x2="247.33" y1="160" y2="-32"/><line x1="251.33" x2="251.33" y1="160" y2="-32"/><line x1="255.33" x2="255.33" y1="160" y2="-32"/><line x1="259.33" x2="259.33" y1="160" y2="-32"/><line x1="263.33" x2="263.33" y1="160" y2="-32"/><line x1="267.33" x2="267.33" y1="160" y2="-32"/><line x1="271.33" x2="271.33" y1="160" y2="-32"/><line x1="275.33" x2="275.33" y1="160" y2="-32"/><line x1="279.33" x2="279.33" y1="160" y2="-32"/><line x1="283.33" x2="283.33" y1="160" y2="-32"/><line x1="287.33" x2="287.33" y1="160" y2="-32"/><line x1="288.33" x2="288.33" y1="166.05" y2="-25.95"/><line x1="295.33" x2="295.33" y1="160" y2="-32"/><line x1="299.33" x2="299.33" y1="160" y2="-32"/><line x1="303.33" x2="303.33" y1="160" y2="-32"/><line x1="307.33" x2="307.33" y1="160" y2="-32"/></g><g fill="none" stroke="#010101" stroke-miterlimit="10" stroke-width=".25"><line x1="119.33" x2="311.33" y1="-28" y2="-28"/><line x1="119.33" x2="311.33" y1="-24" y2="-24"/><line x1="119.33" x2="311.33" y1="-20" y2="-20"/><line x1="119.33" x2="311.33" y1="-16" y2="-16"/><line x1="119.33" x2="311.33" y1="-12" y2="-12"/><line x1="119.33" x2="311.33" y1="-8" y2="-8"/><line x1="119.33" x2="311.33" y1="-4" y2="-4"/><line x1="119.33" x2="311.33"/><line x1="119.33" x2="311.33" y1="4" y2="4"/><line x1="119.33" x2="311.33" y1="8" y2="8"/><line x1="119.33" x2="311.33" y1="12" y2="12"/><line x1="119.33" x2="311.33" y1="16" y2="16"/><line x1="119.33" x2="311.33" y1="20" y2="20"/><line x1="119.33" x2="311.33" y1="24" y2="24"/><line x1="119.33" x2="311.33" y1="28" y2="28"/><line x1="119.33" x2="311.33" y1="32" y2="32"/><line x1="119.33" x2="311.33" y1="36" y2="36"/><line x1="119.33" x2="311.33" y1="40" y2="40"/><line x1="119.33" x2="311.33" y1="44" y2="44"/><line x1="119.33" x2="311.33" y1="48" y2="48"/><line x1="119.33" x2="311.33" y1="52" y2="52"/><line x1="119.33" x2="311.33" y1="56" y2="56"/><line x1="119.33" x2="311.33" y1="60" y2="60"/><line x1="119.33" x2="311.33" y1="64" y2="64"/><line x1="119.33" x2="311.33" y1="68" y2="68"/><line x1="119.33" x2="311.33" y1="72" y2="72"/><line x1="119.33" x2="311.33" y1="76" y2="76"/><line x1="119.33" x2="311.33" y1="80" y2="80"/><line x1="119.33" x2="311.33" y1="84" y2="84"/><line x1="119.33" x2="311.33" y1="88" y2="88"/><line x1="119.33" x2="311.33" y1="92" y2="92"/><line x1="119.33" x2="311.33" y1="96" y2="96"/><line x1="119.33" x2="311.33" y1="100" y2="100"/><line x1="119.33" x2="311.33" y1="104" y2="104"/><line x1="119.33" x2="311.33" y1="108" y2="108"/><line x1="119.33" x2="311.33" y1="112" y2="112"/><line x1="119.33" x2="311.33" y1="116" y2="116"/><line x1="119.33" x2="311.33" y1="120" y2="120"/><line x1="119.33" x2="311.33" y1="124" y2="124"/><line x1="119.33" x2="311.33" y1="128" y2="128"/><line x1="119.33" x2="311.33" y1="132" y2="132"/><line x1="119.33" x2="311.33" y1="136" y2="136"/><line x1="119.33" x2="311.33" y1="140" y2="140"/><line x1="119.33" x2="311.33" y1="144" y2="144"/><line x1="119.33" x2="311.33" y1="148" y2="148"/><line x1="119.33" x2="311.33" y1="152" y2="152"/><line x1="119.33" x2="311.33" y1="156" y2="156"/></g><path d="m311.08-31.75v191.5h-191.5v-191.5h191.5m0.25-0.25h-192v192h192v-192z" fill="#010101"/></g></g><g fill="#EF4438"><rect x="151.33" width="4" height="128" opacity=".3"/><rect x="275.33" width="4" height="128" opacity=".3"/><rect transform="matrix(-1.837e-16 1 -1 -1.837e-16 217.33 -213.33)" x="213.33" y="-58" width="4" height="120" opacity=".3"/><rect transform="matrix(-1.837e-16 1 -1 -1.837e-16 341.33 -89.333)" x="213.33" y="66" width="4" height="120" opacity=".3"/></g></g><g display="inline"><g opacity=".6"><circle cx="215.33" cy="197.12" r="28" fill="none" opacity=".61" stroke="#010101" stroke-miterlimit="10" stroke-width=".2625"/><line x1="235.33" x2="235.33" y1="133.12" y2="261.12" fill="none" opacity=".61" stroke="#010101" stroke-miterlimit="10" stroke-width=".25"/><line x1="195.33" x2="195.33" y1="133.12" y2="261.12" fill="none" opacity=".61" stroke="#010101" stroke-miterlimit="10" stroke-width=".25"/><line x1="215.33" x2="215.33" y1="133.12" y2="261.12" fill="none" opacity=".61" stroke="#010101" stroke-miterlimit="10" stroke-width=".25"/><line x1="279.33" x2="151.33" y1="197.12" y2="197.12" fill="none" opacity=".61" stroke="#010101" stroke-miterlimit="10" stroke-width=".25"/><line x1="279.33" x2="151.33" y1="177.12" y2="177.12" fill="none" opacity=".61" stroke="#010101" stroke-miterlimit="10" stroke-width=".25"/><line x1="279.33" x2="151.33" y1="216.87" y2="216.87" fill="none" opacity=".61" stroke="#010101" stroke-miterlimit="10" stroke-width=".25"/><line x1="279.33" x2="151.33" y1="261.12" y2="133.12" fill="none" opacity=".61" stroke="#010101" stroke-miterlimit="10" stroke-width=".25"/><line x1="151.33" x2="279.33" y1="261.12" y2="133.12" fill="none" opacity=".61" stroke="#010101" stroke-miterlimit="10" stroke-width=".25"/><g opacity=".61"><path d="m215.33 137.37c32.94 0 59.74 26.8 59.74 59.74s-26.8 59.74-59.74 59.74-59.74-26.8-59.74-59.74 26.8-59.74 59.74-59.74m0-0.25c-33.14 0-60 26.86-60 60s26.86 60 60 60 60-26.86 60-60-26.86-60-60-60z" fill="#010101"/></g><path d="m259.3 249.09h-87.94c-4.42 0-8.03-3.61-8.03-8.03v-87.91c0-4.42 3.61-8.03 8.03-8.03h87.94c4.42 0 8.03 3.61 8.03 8.03v87.91c0 4.41-3.61 8.03-8.03 8.03z" fill="none" opacity=".61" stroke="#010101" stroke-miterlimit="10" stroke-width=".2578"/><path d="m251.33 257.12h-72c-4.4 0-8-3.6-8-8v-104c0-4.4 3.6-8 8-8h72c4.4 0 8 3.6 8 8v104c0 4.4-3.6 8-8 8z" fill="none" opacity=".61" stroke="#010101" stroke-miterlimit="10" stroke-width=".2628"/><path d="m265.1 241.12h-99.54c-5.63 0-10.23-4.6-10.23-10.23v-67.49c0-5.63 4.6-10.23 10.23-10.23h99.54c5.63 0 10.23 4.6 10.23 10.23v67.48c0 5.63-4.6 10.24-10.23 10.24z" fill="none" opacity=".61" stroke="#010101" stroke-miterlimit="10" stroke-width=".2627"/></g><g opacity=".2"><defs><rect id="m" x="151.33" y="133.12" width="128" height="128" opacity=".2"/></defs><clipPath id="k"><use xlink:href="#m"/></clipPath><g clip-path="url(#k)"><g fill="none" stroke="#010101" stroke-miterlimit="10" stroke-width=".25"><line x1="123.33" x2="123.33" y1="293.12" y2="101.12"/><line x1="127.33" x2="127.33" y1="293.12" y2="101.12"/><line x1="131.33" x2="131.33" y1="293.12" y2="101.12"/><line x1="135.33" x2="135.33" y1="293.12" y2="101.12"/><line x1="139.33" x2="139.33" y1="293.12" y2="101.12"/><line x1="143.33" x2="143.33" y1="293.12" y2="101.12"/><line x1="147.33" x2="147.33" y1="293.12" y2="101.12"/><line x1="151.33" x2="151.33" y1="293.12" y2="101.12"/><line x1="155.33" x2="155.33" y1="293.12" y2="101.12"/><line x1="159.33" x2="159.33" y1="293.12" y2="101.12"/><line x1="163.33" x2="163.33" y1="293.12" y2="101.12"/><line x1="167.33" x2="167.33" y1="293.12" y2="101.12"/><line x1="171.33" x2="171.33" y1="293.12" y2="101.12"/><line x1="175.33" x2="175.33" y1="293.12" y2="101.12"/><line x1="179.33" x2="179.33" y1="293.12" y2="101.12"/><line x1="183.33" x2="183.33" y1="293.12" y2="101.12"/><line x1="187.33" x2="187.33" y1="293.12" y2="101.12"/><line x1="191.33" x2="191.33" y1="293.12" y2="101.12"/><line x1="195.33" x2="195.33" y1="293.12" y2="101.12"/><line x1="199.33" x2="199.33" y1="293.12" y2="101.12"/><line x1="203.33" x2="203.33" y1="293.12" y2="101.12"/><line x1="207.33" x2="207.33" y1="293.12" y2="101.12"/><line x1="211.33" x2="211.33" y1="293.12" y2="101.12"/><line x1="215.33" x2="215.33" y1="293.12" y2="101.12"/><line x1="219.33" x2="219.33" y1="293.12" y2="101.12"/><line x1="223.33" x2="223.33" y1="293.12" y2="101.12"/><line x1="227.33" x2="227.33" y1="293.12" y2="101.12"/><line x1="231.33" x2="231.33" y1="293.12" y2="101.12"/><line x1="235.33" x2="235.33" y1="293.12" y2="101.12"/><line x1="239.33" x2="239.33" y1="293.12" y2="101.12"/><line x1="243.33" x2="243.33" y1="293.12" y2="101.12"/><line x1="247.33" x2="247.33" y1="293.12" y2="101.12"/><line x1="251.33" x2="251.33" y1="293.12" y2="101.12"/><line x1="255.33" x2="255.33" y1="293.12" y2="101.12"/><line x1="259.33" x2="259.33" y1="293.12" y2="101.12"/><line x1="263.33" x2="263.33" y1="293.12" y2="101.12"/><line x1="267.33" x2="267.33" y1="293.12" y2="101.12"/><line x1="271.33" x2="271.33" y1="293.12" y2="101.12"/><line x1="275.33" x2="275.33" y1="293.12" y2="101.12"/><line x1="279.33" x2="279.33" y1="293.12" y2="101.12"/><line x1="283.33" x2="283.33" y1="293.12" y2="101.12"/><line x1="287.33" x2="287.33" y1="293.12" y2="101.12"/><line x1="288.33" x2="288.33" y1="299.17" y2="107.17"/><line x1="295.33" x2="295.33" y1="293.12" y2="101.12"/><line x1="299.33" x2="299.33" y1="293.12" y2="101.12"/><line x1="303.33" x2="303.33" y1="293.12" y2="101.12"/><line x1="307.33" x2="307.33" y1="293.12" y2="101.12"/></g><g fill="none" stroke="#010101" stroke-miterlimit="10" stroke-width=".25"><line x1="119.33" x2="311.33" y1="105.12" y2="105.12"/><line x1="119.33" x2="311.33" y1="109.12" y2="109.12"/><line x1="119.33" x2="311.33" y1="113.12" y2="113.12"/><line x1="119.33" x2="311.33" y1="117.12" y2="117.12"/><line x1="119.33" x2="311.33" y1="121.12" y2="121.12"/><line x1="119.33" x2="311.33" y1="125.12" y2="125.12"/><line x1="119.33" x2="311.33" y1="129.12" y2="129.12"/><line x1="119.33" x2="311.33" y1="133.12" y2="133.12"/><line x1="119.33" x2="311.33" y1="137.12" y2="137.12"/><line x1="119.33" x2="311.33" y1="141.12" y2="141.12"/><line x1="119.33" x2="311.33" y1="145.12" y2="145.12"/><line x1="119.33" x2="311.33" y1="149.12" y2="149.12"/><line x1="119.33" x2="311.33" y1="153.12" y2="153.12"/><line x1="119.33" x2="311.33" y1="157.12" y2="157.12"/><line x1="119.33" x2="311.33" y1="161.12" y2="161.12"/><line x1="119.33" x2="311.33" y1="165.12" y2="165.12"/><line x1="119.33" x2="311.33" y1="169.12" y2="169.12"/><line x1="119.33" x2="311.33" y1="173.12" y2="173.12"/><line x1="119.33" x2="311.33" y1="177.12" y2="177.12"/><line x1="119.33" x2="311.33" y1="181.12" y2="181.12"/><line x1="119.33" x2="311.33" y1="185.12" y2="185.12"/><line x1="119.33" x2="311.33" y1="189.12" y2="189.12"/><line x1="119.33" x2="311.33" y1="193.12" y2="193.12"/><line x1="119.33" x2="311.33" y1="197.12" y2="197.12"/><line x1="119.33" x2="311.33" y1="201.12" y2="201.12"/><line x1="119.33" x2="311.33" y1="205.12" y2="205.12"/><line x1="119.33" x2="311.33" y1="209.12" y2="209.12"/><line x1="119.33" x2="311.33" y1="213.12" y2="213.12"/><line x1="119.33" x2="311.33" y1="217.12" y2="217.12"/><line x1="119.33" x2="311.33" y1="221.12" y2="221.12"/><line x1="119.33" x2="311.33" y1="225.12" y2="225.12"/><line x1="119.33" x2="311.33" y1="229.12" y2="229.12"/><line x1="119.33" x2="311.33" y1="233.12" y2="233.12"/><line x1="119.33" x2="311.33" y1="237.12" y2="237.12"/><line x1="119.33" x2="311.33" y1="241.12" y2="241.12"/><line x1="119.33" x2="311.33" y1="245.12" y2="245.12"/><line x1="119.33" x2="311.33" y1="249.12" y2="249.12"/><line x1="119.33" x2="311.33" y1="253.12" y2="253.12"/><line x1="119.33" x2="311.33" y1="257.12" y2="257.12"/><line x1="119.33" x2="311.33" y1="261.12" y2="261.12"/><line x1="119.33" x2="311.33" y1="265.12" y2="265.12"/><line x1="119.33" x2="311.33" y1="269.12" y2="269.12"/><line x1="119.33" x2="311.33" y1="273.12" y2="273.12"/><line x1="119.33" x2="311.33" y1="277.12" y2="277.12"/><line x1="119.33" x2="311.33" y1="281.12" y2="281.12"/><line x1="119.33" x2="311.33" y1="285.12" y2="285.12"/><line x1="119.33" x2="311.33" y1="289.12" y2="289.12"/></g><path d="m311.08 101.37v191.5h-191.5v-191.5h191.5m0.25-0.25h-192v192h192v-192z" fill="#010101"/></g></g><g fill="#EF4438"><rect x="151.33" y="133.12" width="4" height="128" opacity=".3"/><rect x="275.33" y="133.12" width="4" height="128" opacity=".3"/><rect transform="matrix(-1.837e-16 1 -1 -1.837e-16 350.45 -80.215)" x="213.33" y="75.12" width="4" height="120" opacity=".3"/><rect transform="matrix(-1.837e-16 1 -1 -1.837e-16 474.45 43.785)" x="213.33" y="199.12" width="4" height="120" opacity=".3"/></g></g><g display="inline"><g opacity=".6"><circle cx="64" cy="196" r="28" fill="none" opacity=".61" stroke="#010101" stroke-miterlimit="10" stroke-width=".2625"/><line x1="84" x2="84" y1="132" y2="260" fill="none" opacity=".61" stroke="#010101" stroke-miterlimit="10" stroke-width=".25"/><line x1="44" x2="44" y1="132" y2="260" fill="none" opacity=".61" stroke="#010101" stroke-miterlimit="10" stroke-width=".25"/><line x1="64" x2="64" y1="132" y2="260" fill="none" opacity=".61" stroke="#010101" stroke-miterlimit="10" stroke-width=".25"/><line x1="128" y1="196" y2="196" fill="none" opacity=".61" stroke="#010101" stroke-miterlimit="10" stroke-width=".25"/><line x1="128" y1="176" y2="176" fill="none" opacity=".61" stroke="#010101" stroke-miterlimit="10" stroke-width=".25"/><line x1="128" y1="215.75" y2="215.75" fill="none" opacity=".61" stroke="#010101" stroke-miterlimit="10" stroke-width=".25"/><line x1="128" y1="260" y2="132" fill="none" opacity=".61" stroke="#010101" stroke-miterlimit="10" stroke-width=".25"/><line x2="128" y1="260" y2="132" fill="none" opacity=".61" stroke="#010101" stroke-miterlimit="10" stroke-width=".25"/><g opacity=".61"><path d="m64 136.26c32.94 0 59.74 26.8 59.74 59.74s-26.8 59.74-59.74 59.74-59.74-26.8-59.74-59.74 26.8-59.74 59.74-59.74m0-0.26c-33.14 0-60 26.86-60 60s26.86 60 60 60 60-26.86 60-60-26.86-60-60-60z" fill="#010101"/></g><path d="m107.97 247.97h-87.94c-4.42 0-8.03-3.61-8.03-8.03v-87.91c0-4.42 3.61-8.03 8.03-8.03h87.94c4.42 0 8.03 3.61 8.03 8.03v87.91c0 4.42-3.61 8.03-8.03 8.03z" fill="none" opacity=".61" stroke="#010101" stroke-miterlimit="10" stroke-width=".2578"/><path d="m100 256h-72c-4.4 0-8-3.6-8-8v-104c0-4.4 3.6-8 8-8h72c4.4 0 8 3.6 8 8v104c0 4.4-3.6 8-8 8z" fill="none" opacity=".61" stroke="#010101" stroke-miterlimit="10" stroke-width=".2628"/><path d="M113.77,240H14.23 C8.6,240,4,235.4,4,229.77v-67.48c0-5.63,4.6-10.23,10.23-10.23h99.54c5.63,0,10.23,4.6,10.23,10.23v67.48 C124,235.4,119.4,240,113.77,240z" fill="none" opacity=".61" stroke="#010101" stroke-miterlimit="10" stroke-width=".2627"/></g><g opacity=".2"><defs><rect id="b" y="132" width="128" height="128" opacity=".2"/></defs><clipPath id="j"><use xlink:href="#b"/></clipPath><g clip-path="url(#j)"><g fill="none" stroke="#010101" stroke-miterlimit="10" stroke-width=".25"><line x1="-28" x2="-28" y1="292" y2="100"/><line x1="-24" x2="-24" y1="292" y2="100"/><line x1="-20" x2="-20" y1="292" y2="100"/><line x1="-16" x2="-16" y1="292" y2="100"/><line x1="-12" x2="-12" y1="292" y2="100"/><line x1="-8" x2="-8" y1="292" y2="100"/><line x1="-4" x2="-4" y1="292" y2="100"/><line y1="292" y2="100"/><line x1="4" x2="4" y1="292" y2="100"/><line x1="8" x2="8" y1="292" y2="100"/><line x1="12" x2="12" y1="292" y2="100"/><line x1="16" x2="16" y1="292" y2="100"/><line x1="20" x2="20" y1="292" y2="100"/><line x1="24" x2="24" y1="292" y2="100"/><line x1="28" x2="28" y1="292" y2="100"/><line x1="32" x2="32" y1="292" y2="100"/><line x1="36" x2="36" y1="292" y2="100"/><line x1="40" x2="40" y1="292" y2="100"/><line x1="44" x2="44" y1="292" y2="100"/><line x1="48" x2="48" y1="292" y2="100"/><line x1="52" x2="52" y1="292" y2="100"/><line x1="56" x2="56" y1="292" y2="100"/><line x1="60" x2="60" y1="292" y2="100"/><line x1="64" x2="64" y1="292" y2="100"/><line x1="68" x2="68" y1="292" y2="100"/><line x1="72" x2="72" y1="292" y2="100"/><line x1="76" x2="76" y1="292" y2="100"/><line x1="80" x2="80" y1="292" y2="100"/><line x1="84" x2="84" y1="292" y2="100"/><line x1="88" x2="88" y1="292" y2="100"/><line x1="92" x2="92" y1="292" y2="100"/><line x1="96" x2="96" y1="292" y2="100"/><line x1="100" x2="100" y1="292" y2="100"/><line x1="104" x2="104" y1="292" y2="100"/><line x1="108" x2="108" y1="292" y2="100"/><line x1="112" x2="112" y1="292" y2="100"/><line x1="116" x2="116" y1="292" y2="100"/><line x1="120" x2="120" y1="292" y2="100"/><line x1="124" x2="124" y1="292" y2="100"/><line x1="128" x2="128" y1="292" y2="100"/><line x1="132" x2="132" y1="292" y2="100"/><line x1="136" x2="136" y1="292" y2="100"/><line x1="137" x2="137" y1="298.05" y2="106.05"/><line x1="144" x2="144" y1="292" y2="100"/><line x1="148" x2="148" y1="292" y2="100"/><line x1="152" x2="152" y1="292" y2="100"/><line x1="156" x2="156" y1="292" y2="100"/></g><g fill="none" stroke="#010101" stroke-miterlimit="10" stroke-width=".25"><line x1="-32" x2="160" y1="104" y2="104"/><line x1="-32" x2="160" y1="108" y2="108"/><line x1="-32" x2="160" y1="112" y2="112"/><line x1="-32" x2="160" y1="116" y2="116"/><line x1="-32" x2="160" y1="120" y2="120"/><line x1="-32" x2="160" y1="124" y2="124"/><line x1="-32" x2="160" y1="128" y2="128"/><line x1="-32" x2="160" y1="132" y2="132"/><line x1="-32" x2="160" y1="136" y2="136"/><line x1="-32" x2="160" y1="140" y2="140"/><line x1="-32" x2="160" y1="144" y2="144"/><line x1="-32" x2="160" y1="148" y2="148"/><line x1="-32" x2="160" y1="152" y2="152"/><line x1="-32" x2="160" y1="156" y2="156"/><line x1="-32" x2="160" y1="160" y2="160"/><line x1="-32" x2="160" y1="164" y2="164"/><line x1="-32" x2="160" y1="168" y2="168"/><line x1="-32" x2="160" y1="172" y2="172"/><line x1="-32" x2="160" y1="176" y2="176"/><line x1="-32" x2="160" y1="180" y2="180"/><line x1="-32" x2="160" y1="184" y2="184"/><line x1="-32" x2="160" y1="188" y2="188"/><line x1="-32" x2="160" y1="192" y2="192"/><line x1="-32" x2="160" y1="196" y2="196"/><line x1="-32" x2="160" y1="200" y2="200"/><line x1="-32" x2="160" y1="204" y2="204"/><line x1="-32" x2="160" y1="208" y2="208"/><line x1="-32" x2="160" y1="212" y2="212"/><line x1="-32" x2="160" y1="216" y2="216"/><line x1="-32" x2="160" y1="220" y2="220"/><line x1="-32" x2="160" y1="224" y2="224"/><line x1="-32" x2="160" y1="228" y2="228"/><line x1="-32" x2="160" y1="232" y2="232"/><line x1="-32" x2="160" y1="236" y2="236"/><line x1="-32" x2="160" y1="240" y2="240"/><line x1="-32" x2="160" y1="244" y2="244"/><line x1="-32" x2="160" y1="248" y2="248"/><line x1="-32" x2="160" y1="252" y2="252"/><line x1="-32" x2="160" y1="256" y2="256"/><line x1="-32" x2="160" y1="260" y2="260"/><line x1="-32" x2="160" y1="264" y2="264"/><line x1="-32" x2="160" y1="268" y2="268"/><line x1="-32" x2="160" y1="272" y2="272"/><line x1="-32" x2="160" y1="276" y2="276"/><line x1="-32" x2="160" y1="280" y2="280"/><line x1="-32" x2="160" y1="284" y2="284"/><line x1="-32" x2="160" y1="288" y2="288"/></g><path d="m159.75 100.25v191.5h-191.5v-191.5h191.5m0.25-0.25h-192v192h192v-192z" fill="#010101"/></g></g><g fill="#EF4438"><rect y="132" width="4" height="128" opacity=".3"/><rect x="124" y="132" width="4" height="128" opacity=".3"/><rect transform="matrix(-1.837e-16 1 -1 -1.837e-16 198 70)" x="62" y="74" width="4" height="120" opacity=".3"/><rect transform="matrix(-1.837e-16 1 -1 -1.837e-16 322 194)" x="62" y="198" width="4" height="120" opacity=".3"/></g></g></g></svg>
