<svg enable-background="new 0 0 128 128" viewBox="0 0 128 128" xmlns="http://www.w3.org/2000/svg" xmlns:xlink="http://www.w3.org/1999/xlink"><path d="m33.79 4.25-0.06 0.05c-1.69-0.56-8.93 4.9-16.7 12.67s-13.23 15.01-12.67 16.7l-0.06 0.06 5.92 5.92 0.01-0.01c0.16 0.12 0.41 0.15 0.73 0.1 2.62-0.47 5.57 0.36 7.76 2.56l74.1 74.1c10.18 10.18 19.9 8.63 26.07 2.46s7.7-15.91-2.46-26.07l-74.1-74.1c-2.2-2.2-3.03-5.15-2.56-7.77 0.06-0.33 0.03-0.57-0.1-0.73l0.01-0.01-5.89-5.93z" fill="#E6E6E6"/><linearGradient id="e" x1="51.553" x2="83.165" y1="79.197" y2="79.197" gradientTransform="matrix(.7071 -.7071 .7071 .7071 -29.682 64.948)" gradientUnits="userSpaceOnUse"><stop stop-color="#4CAF50" offset="0"/><stop stop-color="#A4E849" offset=".6933"/><stop stop-color="#9CDE47" offset=".7603"/><stop stop-color="#86C441" offset=".873"/><stop stop-color="#689F38" offset="1"/></linearGradient><path d="m18.66 40.39 74.35 74.35c9.9 9.9 19.11 8.62 24.85 2.89 5.74-5.74 6.99-14.97-2.89-24.84l-48.02-48.03-48.29-4.37z" fill="url(#e)"/><path d="m115.58 103.39c-0.63 0.63-1.65 0.63-2.28 0l-74.84-74.84c-0.63-0.63-0.63-1.65 0-2.28s1.65-0.63 2.28 0l74.84 74.84c0.62 0.63 0.62 1.65 0 2.28z" fill="#fff" opacity=".55"/><g opacity=".2"><path d="m32.68 9.3 2.63 2.63c-0.12 3.59 1.29 7.17 3.95 9.83l74.1 74.1c3.88 3.88 5.98 7.88 6.08 11.56 0.1 3.81-1.91 6.64-3.62 8.34-1.66 1.66-4.4 3.63-8.07 3.63-3.76 0-7.85-2.11-11.83-6.09l-74.1-74.1c-2.55-2.55-5.89-3.96-9.4-3.96-0.14 0-0.28 0-0.42 0.01l-2.64-2.64c1.42-2.24 4.81-6.64 10.75-12.57s10.34-9.32 12.57-10.74m1.11-5.06-0.06 0.06c-0.08-0.03-0.17-0.04-0.28-0.04-2.1 0-9.02 5.31-16.42 12.71-7.77 7.77-13.23 15.01-12.67 16.7l-0.06 0.06 5.92 5.92 0.01-0.01c0.11 0.08 0.25 0.12 0.44 0.12 0.09 0 0.19-0.01 0.3-0.03 0.47-0.08 0.95-0.13 1.44-0.13 2.21 0 4.52 0.88 6.32 2.68l74.1 74.1c5.23 5.23 10.35 7.37 14.92 7.37 4.32 0 8.16-1.91 11.16-4.91 6.17-6.17 7.7-15.91-2.46-26.07l-74.1-74.1c-2.2-2.2-3.03-5.15-2.56-7.77 0.06-0.33 0.03-0.57-0.1-0.73l0.01-0.01-5.91-5.92z" fill="#424242"/></g><circle cx="45.04" cy="52.22" r="4.54" fill="#fff" opacity=".69"/><circle cx="31" cy="33.96" r="4.54" fill="#9CCC65"/><circle cx="55.69" cy="58.77" r="2.2" fill="#fff" opacity=".69"/><circle cx="17.46" cy="9.28" r="3.16" fill="#9CCC65"/><circle cx="11.25" cy="15.25" r="1.47" fill="#9CCC65"/><circle cx="69.25" cy="72.71" r="3.81" fill="#fff" opacity=".69"/><circle cx="63.33" cy="62.38" r="1.47" fill="#fff" opacity=".69"/></svg>
