<?xml version="1.0" encoding="utf-8"?>
<!-- Generator: Adobe Illustrator 16.0.0, SVG Export Plug-In . SVG Version: 6.00 Build 0)  -->
<!DOCTYPE svg PUBLIC "-//W3C//DTD SVG 1.1//EN" "http://www.w3.org/Graphics/SVG/1.1/DTD/svg11.dtd">
<svg version="1.1" id="レイヤー_1" xmlns="http://www.w3.org/2000/svg" xmlns:xlink="http://www.w3.org/1999/xlink" x="0px"
	 y="0px" width="128px" height="128px" viewBox="0 0 128 128" enable-background="new 0 0 128 128" xml:space="preserve">
<g>
	<path fill="#FCC21B" d="M86.27,50.71c-6.41-7.95-11.44-6.98-11.44-9.32s8.53-4.89,8.79-17.03C83.89,12.32,74.28,5.05,64,5.05
		c-10.27,0-19.88,7.28-19.61,19.32c0.27,12.14,8.79,14.68,8.79,17.03s-5.03,1.36-11.44,9.32c-6.41,7.95-13.53,25.88-10.63,34.69
		c2.9,8.82,13.01,5.66,13.01,0c0-5.66-1.49-8.96,0.55-14.96c2.04-6,2.44-5.79,3.83-5.5c1.92,0.4-0.76,8.41-1.27,15.18
		c-0.38,5.05,1.13,8.9,2.28,10.77c1.53,2.52,2.51,20.86-0.61,23.21c-1.84,1.39-3.67,3.23-3.67,5.7c0,4.19,3.86,5.68,9.59,4.97
		c4.99-0.62,8.42-2.9,8.03-10.08c-0.41-7.17-2.2-19.68,1.16-19.68c3.38,0,1.58,12.51,1.17,19.68c-0.4,7.17,3.04,9.46,8.02,10.08
		c5.73,0.71,9.6-0.77,9.6-4.97c0-2.46-1.84-4.31-3.68-5.7c-3.11-2.35-2.14-20.69-0.59-23.21c1.13-1.87,2.65-5.72,2.27-10.77
		c-0.51-6.76-3.2-14.77-1.28-15.18c1.39-0.3,1.79-0.5,3.83,5.5c2.04,6,0.55,9.3,0.55,14.96c0,5.66,10.1,8.82,13,0
		C99.79,76.59,92.68,58.66,86.27,50.71z"/>
</g>
</svg>
