<svg xmlns="http://www.w3.org/2000/svg" viewBox="0 0 128 128"><path d="M71.34 55.18c-4.04-1.75-10.64-1.75-14.68 0L11.34 74.82C7.3 76.57 4 81.6 4 86v8c0 4.4 3.3 9.43 7.34 11.18l45.32 19.64c4.04 1.75 10.64 1.75 14.68 0l45.32-19.64C120.7 103.43 124 98.4 124 94v-8c0-4.4-3.3-9.43-7.34-11.18L71.34 55.18z" fill="#006ca2"/><path d="M71.34 100.82c-4.04 1.75-10.64 1.75-14.68 0L11.34 81.18c-4.04-1.75-4.04-4.61 0-6.36l45.32-19.64c4.04-1.75 10.64-1.75 14.68 0l45.32 19.64c4.04 1.75 4.04 4.61 0 6.36l-45.32 19.64z" fill="#40c0e7"/><path d="M64 59.4c-9.94 0-18 8.06-18 18 0 3.98 8.06 7.2 18 7.2s18-3.22 18-7.2c0-9.94-8.06-18-18-18z" fill="#2f2f2f"/><path d="M58 30v34c0 1.1 2.69 2 6 2s6-.9 6-2V30H58z" fill="#78a3ad"/><path d="M58 44.83a15.956 15.956 0 0 0 12 0V30H58v14.83z" fill="#2f2f2f"/><circle cx="64" cy="23" r="19" fill="#ed6c30"/><path d="M52.63 13.75c-1.78.87-2.48 3.22-2 5.04 1.08 4.04 8.08 1.42 5.78-3.11-1.07-2.14-2.56-2.52-3.78-1.93z" fill="#fff"/><g><ellipse cx="32" cy="79" rx="10" ry="5" fill="#006ca2"/></g><g><path d="M256.66 74.69l-45.32-19.64c-4.04-1.75-10.64-1.75-14.68 0l-45.32 19.64c-4.04 1.75-7.34 6.78-7.34 11.18v8c0 4.4 3.3 9.43 7.34 11.18l45.32 19.64c4.04 1.75 10.64 1.75 14.68 0l45.32-19.64c4.04-1.75 7.34-6.78 7.34-11.18v-8c0-4.4-3.3-9.43-7.34-11.18zm-.31 10.62l-45.32 19.64c-4.04 1.75-10.64 1.75-14.68 0l-45.32-19.64c-4.04-1.75-4.04-4.61 0-6.36l45.32-19.64c4.04-1.75 10.64-1.75 14.68 0l45.32 19.64c4.03 1.75 4.03 4.61 0 6.36z" fill="#40c0e7"/><path d="M204 63.6c-8.84 0-16 7.16-16 16 0 3.53 7.16 6.4 16 6.4s16-2.87 16-6.4c0-8.84-7.16-16-16-16z" fill="#2f2f2f"/><path d="M198 34v34c0 1.1 2.69 2 6 2s6-.9 6-2V34h-12z" fill="#78a3ad"/><path d="M198 48.83a15.956 15.956 0 0 0 12 0V34h-12v14.83z" fill="#2f2f2f"/><circle cx="204" cy="27" r="19" fill="#ed6c30"/><path d="M192.63 17.75c-1.78.87-2.48 3.22-2 5.04 1.08 4.04 8.08 1.42 5.78-3.11-1.07-2.14-2.56-2.52-3.78-1.93z" fill="#fff"/><ellipse cx="172" cy="81" rx="10" ry="5" fill="#fcc21b"/></g></svg>