<?xml version="1.0" encoding="utf-8"?>
<!-- Generator: Adobe Illustrator 19.2.1, SVG Export Plug-In . SVG Version: 6.00 Build 0)  -->
<svg version="1.1" id="レイヤー_1" xmlns="http://www.w3.org/2000/svg" xmlns:xlink="http://www.w3.org/1999/xlink" x="0px"
	 y="0px" viewBox="0 0 128 128" style="enable-background:new 0 0 128 128;" xml:space="preserve">
<g>
	<g>
		<path style="fill:#ED6C30;" d="M53.41,19.81c0-8.33,2.49-15.07,10.36-15.07c7.87,0,10.36,6.75,10.36,15.07H53.41z"/>
		<path style="fill:#2F2F2F;" d="M73.15,23.06H54.39c-1.95,0-3.54,1.59-3.54,3.54v6.71c0,1.95,1.58,3.54,3.54,3.54h18.76
			c1.95,0,3.54-1.59,3.54-3.54V26.6C76.69,24.65,75.1,23.06,73.15,23.06z"/>
		<g>
			<g>
				<g>
					<g>
						<path style="fill:#ED6C30;" d="M46.51,10.8L30.56,3.49c-0.52-0.24-1.13-0.22-1.64,0.06c-0.51,0.27-0.85,0.78-0.93,1.35
							L26.6,14.91c-0.08,0.57,0.12,1.16,0.53,1.56c0.34,0.34,0.81,0.52,1.29,0.52c0.09,0,0.19,0,0.27-0.02l17.34-2.69
							c0.8-0.12,1.42-0.76,1.52-1.56C47.68,11.92,47.25,11.14,46.51,10.8z"/>
						<path style="fill:#ED6C30;" d="M99.56,4.9c-0.09-0.57-0.43-1.08-0.93-1.35c-0.51-0.28-1.12-0.3-1.64-0.06L81.04,10.8
							c-0.74,0.34-1.17,1.12-1.05,1.91c0.1,0.8,0.73,1.44,1.53,1.56l17.33,2.69c0.09,0.02,0.18,0.02,0.28,0.02
							c0.47,0,0.94-0.18,1.29-0.52c0.41-0.41,0.6-0.99,0.53-1.56L99.56,4.9z"/>
					</g>
				</g>
			</g>
		</g>
	</g>
	<g>
		<g>
			<path style="fill:#2F2F2F;" d="M93.36,120.08c0,4.37,3.53,7.92,7.9,7.92l0,0c4.38,0,7.92-3.55,7.92-7.92V88
				c0-4.37-3.54-7.91-7.92-7.91l0,0c-4.37,0-7.9,3.54-7.9,7.91V120.08z"/>
			<path style="fill:#2F2F2F;" d="M19.38,120.08c0,4.37,3.54,7.92,7.91,7.92l0,0c4.37,0,7.9-3.55,7.9-7.92V88
				c0-4.37-3.53-7.91-7.9-7.91l0,0c-4.37,0-7.91,3.54-7.91,7.91V120.08z"/>
		</g>
		<g>
			<g>
				<g>
					<path style="fill:#FFFFFF;" d="M109.27,69.13l-1.25-4.59c0-0.01,0-0.02-0.01-0.03l-6.52-24.12c-1.18-4.31-5.8-7.86-10.27-7.86
						H36.79c-4.47,0-9.09,3.54-10.26,7.86L20,64.51c0,0.01,0,0.03,0,0.04l-1.25,4.58c-5.13,1.06-8.95,4.68-8.95,8.99v25.05
						c0,2.2,1.8,3.99,3.99,3.99h100.43c2.2,0,4-1.79,4-3.99V78.12C118.21,73.81,114.39,70.2,109.27,69.13z"/>
					<path style="fill:#2F2F2F;" d="M114.21,110.67H13.79c-4.14,0-7.51-3.37-7.51-7.51V78.12c0-5.26,3.85-9.89,9.6-11.85l0.68-2.5
						c0.02-0.06,0.03-0.13,0.04-0.19l6.55-24.11c1.59-5.86,7.58-10.46,13.65-10.46h54.43c6.08,0,12.08,4.6,13.67,10.46l6.52,24.09
						c0.01,0.03,0.02,0.07,0.03,0.11l0.71,2.6c5.74,1.96,9.58,6.59,9.58,11.85v25.05C121.73,107.31,118.36,110.67,114.21,110.67z
						 M23.43,65.29c-0.02,0.07-0.03,0.13-0.05,0.19l-1.24,4.58c-0.34,1.28-1.38,2.25-2.69,2.53c-3.55,0.73-6.14,3.06-6.14,5.53
						v25.05c0,0.25,0.23,0.47,0.47,0.47h100.43c0.26,0,0.47-0.22,0.47-0.47V78.12c0-2.48-2.57-4.79-6.13-5.53
						c-1.3-0.27-2.34-1.25-2.68-2.53l-1.24-4.59c-0.01-0.02-0.01-0.03-0.02-0.04l-6.52-24.11c-0.76-2.8-3.97-5.26-6.88-5.26H36.79
						c-2.89,0-6.1,2.46-6.86,5.26L23.43,65.29z"/>
				</g>
				<path style="fill:#40C0E7;" d="M92.68,45.41c-0.46-2.07-2.57-3.77-4.69-3.77H40.02c-2.12,0-4.23,1.69-4.68,3.77l-4.23,19.26
					c-0.46,2.07,0.91,3.77,3.03,3.77h59.73c2.12,0,3.49-1.69,3.03-3.77L92.68,45.41z"/>
				<rect x="9.16" y="77.47" style="fill:#2F2F2F;" width="109.23" height="27.42"/>
				<g>
					<circle style="fill:#FFFFFF;" cx="27.68" cy="89.21" r="7.59"/>
					<circle style="fill:#FFFFFF;" cx="101.35" cy="89.21" r="7.59"/>
				</g>
			</g>
		</g>
	</g>
</g>
</svg>
