<?xml version="1.0" encoding="utf-8"?>
<!-- Generator: Adobe Illustrator 19.2.1, SVG Export Plug-In . SVG Version: 6.00 Build 0)  -->
<svg version="1.1" xmlns="http://www.w3.org/2000/svg" xmlns:xlink="http://www.w3.org/1999/xlink" x="0px" y="0px"
	 viewBox="0 0 128 128" style="enable-background:new 0 0 128 128;" xml:space="preserve">
<g id="Layer_2">
</g>
<g id="图层_1">
	<g>
		<ellipse id="XMLID_1014_" style="fill:#47352D;" cx="64" cy="56.06" rx="54.5" ry="50.3"/>
		<g id="XMLID_449_">
			<path id="XMLID_451_" style="fill:#7A4C32;" d="M108.63,69.78c0,0,8.3,1.44,8.3,10.38c0,7.89-6.06,11-12.11,11V69.78H108.63z"/>
			<path id="XMLID_450_" style="fill:#7A4C32;" d="M19.37,69.78c0,0-8.3,1.44-8.3,10.38c0,7.89,6.06,11,12.11,11V69.78H19.37z"/>
		</g>
		<g id="XMLID_1007_">
			<g id="XMLID_1009_">
				<path style="fill:#47352D;" d="M99.78,94.04c4.45,0.17,8.46,2.02,10.73,6.04c1.04,1.85,1.76,4.1,2.14,6.19
					c0.33,1.82,0.02,5.49,1.61,6.81c0.72,0.6,2.19,0.71,2.6,1.61c1.13,2.49-4.43,5.16-5.86,5.61c-9.46,3.01-22.63-0.43-25.09-11.45
					C84.03,100.49,91.57,93.72,99.78,94.04z"/>
			</g>
			<g id="XMLID_1008_">
				<path style="fill:#47352D;" d="M28.59,94.07c-4.46,0.09-8.49,1.87-10.83,5.85c-1.07,1.83-1.83,4.06-2.25,6.15
					c-0.36,1.81-0.12,5.48-1.73,6.78c-0.73,0.59-2.2,0.67-2.63,1.57c-1.17,2.47,4.34,5.24,5.76,5.72
					c9.41,3.17,22.64-0.04,25.29-11.01C44.23,100.79,36.8,93.9,28.59,94.07z"/>
			</g>
		</g>
		<g id="XMLID_1006_">
			<path style="fill:#9B643C;" d="M95.59,42.95C88.03,33.53,75.02,29.5,64,29.5c-11.01,0-24.03,4.04-31.58,13.45
				c-7.39,9.2-11.26,21.09-11.2,37.04c0.06,12.86,3.36,22.75,12.69,30.53c8.64,7.21,18.63,11.1,29.45,11.1
				c10.64,0,22.38-3.72,30.7-11.04c9.13-8.03,12.67-17.73,12.73-30.59C106.85,64.03,102.96,52.15,95.59,42.95z"/>
		</g>
		<path id="XMLID_1005_" style="fill:#7A4C32;" d="M70.25,89.64c-2.2,0.62-4.48,0.93-6.25,0.93s-4.05-0.3-6.25-0.93
			c-0.94-0.27-1.31,0.63-0.97,1.22c0.7,1.23,3.51,3.71,7.22,3.71c3.71,0,6.52-2.48,7.22-3.71C71.56,90.27,71.19,89.38,70.25,89.64z"
			/>
		<path id="XMLID_991_" style="fill:#352620;" d="M76.93,99.8c-1.81,0-12.93,0-12.93,0s-11.12,0-12.93,0c-1.48,0-2.12,1-1.14,2.49
			c1.37,2.09,6.47,6.11,14.07,6.11c7.6,0,12.7-4.02,14.07-6.11C79.05,100.8,78.42,99.8,76.93,99.8z"/>
		<path id="XMLID_990_" style="fill:#47352D;" d="M111.79,35.81L76.21,12.1H63.97H63.9h-0.06H51.59L16.01,35.81l-4.66,16.77
			l4.9,15.06l3.47,6.67c18.77-4.27,37.62-17.4,43.56-24.77c0.33-0.4,0.93-0.4,1.26,0c5.94,7.37,24.35,20.32,43.56,24.77l3.46-6.67
			l4.9-15.06L111.79,35.81z"/>
		<g id="XMLID_1512_">
			<path id="XMLID_1435_" style="fill:#42312C;" d="M46.88,80.36c0,3.81-2.55,6.9-5.71,6.9c-3.16,0-5.73-3.09-5.73-6.9
				c0-3.82,2.57-6.91,5.73-6.91C44.33,73.45,46.88,76.54,46.88,80.36"/>
			<path id="XMLID_1436_" style="fill:#42312C;" d="M92.56,80.36c0,3.81-2.55,6.9-5.71,6.9c-3.16,0-5.73-3.09-5.73-6.9
				c0-3.82,2.57-6.91,5.73-6.91C90,73.45,92.56,76.54,92.56,80.36"/>
		</g>
	</g>
</g>
</svg>
