<svg width="128" height="128" style="enable-background:new 0 0 128 128;" xmlns="http://www.w3.org/2000/svg" xmlns:xlink="http://www.w3.org/1999/xlink">
  <g>
    <linearGradient id="SVGID_1_" gradientUnits="userSpaceOnUse" x1="64" x2="64" y1="4.25" y2="124.4088">
      <stop offset="0" style="stop-color:#40C4FF"/>
      <stop offset="0.3517" style="stop-color:#2DB5F9"/>
      <stop offset="1" style="stop-color:#0091EA"/>
    </linearGradient>
    <path d="M116,124H12c-4.42,0-8-3.58-8-8V12c0-4.42,3.58-8,8-8h104c4.42,0,8,3.58,8,8v104 C124,120.42,120.42,124,116,124z" style="fill:url(#SVGID_1_);"/>
    <g style="opacity:0.2;">
      <path d="M116,7c2.76,0,5,2.24,5,5v104c0,2.76-2.24,5-5,5H12c-2.76,0-5-2.24-5-5V12c0-2.76,2.24-5,5-5H116 M116,4H12c-4.42,0-8,3.58-8,8v104c0,4.42,3.58,8,8,8h104c4.42,0,8-3.58,8-8V12C124,7.58,120.42,4,116,4L116,4z" style="fill:#424242;"/>
    </g>
    <g style="opacity:0.2;">
      <path d="M25.43,84.38c3.11,0,5.48,0.62,7.11,1.87c1.63,1.25,2.44,3.11,2.44,5.58 c0,1.26-0.34,2.39-1.02,3.4c-0.68,1.01-1.68,1.79-2.99,2.34c1.49,0.4,2.64,1.16,3.45,2.28c0.81,1.12,1.22,2.45,1.22,4.02 c0,2.58-0.83,4.57-2.49,5.96c-1.66,1.39-4.03,2.08-7.12,2.08h-9.03c-0.56,0-1.01-0.45-1.01-1.01V85.39 c0-0.56,0.45-1.01,1.01-1.01H25.43 M21.79,95.97h3.68c1.49,0,2.65-0.34,3.49-1.01c0.84-0.67,1.26-1.63,1.26-2.86 c0-1.36-0.39-2.34-1.16-2.95c-0.77-0.61-1.98-0.91-3.62-0.91h-3.64c-0.56,0-1.01,0.45-1.01,1.01v5.72 C20.78,95.52,21.24,95.97,21.79,95.97 M21.79,108.05h4.3c1.5,0,2.67-0.37,3.52-1.11c0.84-0.74,1.27-1.77,1.27-3.09 c0-2.85-1.46-4.3-4.39-4.37h-4.7c-0.56,0-1.01,0.45-1.01,1.01v6.55C20.78,107.6,21.24,108.05,21.79,108.05 M25.43,81.38h-8.43 c-2.21,0-4.01,1.8-4.01,4.01v25.51c0,2.21,1.8,4.01,4.01,4.01h9.03c3.8,0,6.84-0.93,9.04-2.78c1.63-1.36,3.56-3.9,3.56-8.26 c0-2.2-0.6-4.15-1.79-5.78c-0.21-0.28-0.43-0.55-0.67-0.81c0.09-0.12,0.18-0.24,0.26-0.37c1.02-1.51,1.53-3.22,1.53-5.08 c0-4.29-1.96-6.69-3.61-7.96C32.22,82.22,29.21,81.38,25.43,81.38L25.43,81.38z M23.78,91.24h1.65c1.09,0,1.56,0.17,1.72,0.24 c0.03,0.09,0.07,0.28,0.07,0.62c0,0.42-0.09,0.49-0.14,0.53c-0.27,0.22-0.86,0.35-1.61,0.35h-1.69V91.24L23.78,91.24z M23.78,102.48h2.68c1.37,0.03,1.42,0.27,1.42,1.37c0,0.62-0.16,0.76-0.24,0.83c-0.27,0.24-0.82,0.37-1.54,0.37h-2.31V102.48 L23.78,102.48z" style="fill:#424242;"/>
      <path d="M51.96,84.38c0.42,0,0.79,0.26,0.94,0.65l9.65,25.51c0.25,0.66-0.24,1.37-0.94,1.37H58.8 c-0.43,0-0.81-0.27-0.95-0.67l-1.78-5.06c-0.14-0.4-0.52-0.67-0.95-0.67h-9.23c-0.43,0-0.81,0.27-0.95,0.68l-1.76,5.06 c-0.14,0.41-0.52,0.68-0.95,0.68h-2.8c-0.71,0-1.19-0.71-0.94-1.36l9.64-25.51c0.15-0.39,0.52-0.65,0.94-0.65H51.96 M47.94,101.64h5.14c0.69,0,1.18-0.69,0.95-1.34l-2.57-7.35c-0.16-0.45-0.55-0.68-0.95-0.68c-0.4,0-0.79,0.23-0.95,0.68 l-2.57,7.35C46.75,100.95,47.24,101.64,47.94,101.64 M51.96,81.38h-2.9c-1.66,0-3.16,1.04-3.75,2.59l-9.64,25.51 c-0.47,1.23-0.3,2.61,0.45,3.7c0.75,1.08,1.98,1.73,3.3,1.73h2.8c1.7,0,3.23-1.08,3.79-2.69l1.29-3.72h6.4l1.31,3.73 c0.56,1.6,2.08,2.68,3.78,2.68h2.82c1.32,0,2.55-0.65,3.3-1.73c0.75-1.08,0.92-2.47,0.45-3.7l-9.65-25.51 C55.13,82.42,53.62,81.38,51.96,81.38L51.96,81.38z" style="fill:#424242;"/>
      <path d="M76.24,84c3.04,0,5.48,0.82,7.34,2.47c1.6,1.42,2.62,3.34,3.06,5.77 c0.11,0.63-0.36,1.21-0.99,1.21h-2.71c-0.49,0-0.92-0.34-1.01-0.81c-0.28-1.56-0.82-2.72-1.61-3.47 c-0.93-0.88-2.28-1.31-4.07-1.31c-2.08,0-3.68,0.76-4.79,2.28c-1.12,1.52-1.69,3.75-1.71,6.69v2.44c0,2.98,0.53,5.25,1.6,6.81 c1.06,1.56,2.62,2.35,4.68,2.35c1.88,0,3.29-0.42,4.24-1.27c0.81-0.73,1.37-1.87,1.67-3.42c0.09-0.47,0.51-0.8,0.98-0.8h2.75 c0.64,0,1.11,0.59,0.99,1.21c-0.43,2.36-1.46,4.25-3.08,5.66c-1.89,1.65-4.41,2.47-7.54,2.47c-2.19,0-4.12-0.52-5.79-1.56 c-1.67-1.04-2.96-2.52-3.87-4.43c-0.91-1.92-1.38-4.14-1.42-6.67v-2.57c0-2.6,0.46-4.88,1.38-6.86c0.92-1.98,2.24-3.5,3.96-4.58 C71.99,84.54,73.98,84,76.24,84 M76.24,81c-2.81,0-5.35,0.69-7.55,2.06c-2.22,1.38-3.93,3.35-5.1,5.86 c-1.1,2.37-1.66,5.1-1.66,8.13v2.57c0.04,3,0.62,5.66,1.71,7.96c1.15,2.44,2.83,4.35,4.99,5.7c2.15,1.34,4.63,2.01,7.38,2.01 c3.87,0,7.07-1.08,9.51-3.2c2.14-1.86,3.51-4.35,4.07-7.38c0.22-1.18-0.1-2.39-0.87-3.31c-0.76-0.92-1.89-1.44-3.08-1.44H82.9 c-1.92,0-3.57,1.36-3.93,3.23c-0.23,1.21-0.58,1.63-0.72,1.75c-0.17,0.15-0.73,0.5-2.24,0.5c-1.31,0-1.83-0.5-2.2-1.03 c-0.49-0.72-1.08-2.2-1.08-5.12v-2.44c0.02-2.23,0.41-3.93,1.13-4.91c0.38-0.52,0.96-1.06,2.37-1.06c0.96,0,1.68,0.18,2.01,0.49 c0.14,0.14,0.5,0.58,0.72,1.82c0.34,1.9,2.01,3.28,3.96,3.28h2.71c1.19,0,2.31-0.53,3.08-1.44c0.77-0.92,1.09-2.13,0.87-3.31 c-0.57-3.1-1.92-5.61-4.02-7.48C83.16,82.08,80.02,81,76.24,81L76.24,81z" style="fill:#424242;"/>
      <path d="M110.19,84.38c0.86,0,1.32,1,0.77,1.66l-8.34,9.94c-0.29,0.35-0.32,0.86-0.05,1.23l9.25,13.11 c0.47,0.67-0.01,1.59-0.82,1.59h-3.2c-0.33,0-0.64-0.16-0.83-0.43l-7.27-10.44c-0.2-0.29-0.51-0.43-0.83-0.43 c-0.27,0-0.53,0.1-0.73,0.32l-1.99,2.11c-0.18,0.19-0.27,0.43-0.27,0.69v7.17c0,0.56-0.45,1.01-1.01,1.01h-2.77 c-0.56,0-1.01-0.45-1.01-1.01V85.39c0-0.56,0.45-1.01,1.01-1.01h2.77c0.56,0,1.01,0.45,1.01,1.01v9.06c0,0.62,0.5,1.01,1.02,1.01 c0.28,0,0.56-0.12,0.77-0.38l0.85-1.06l7.75-9.28c0.19-0.23,0.48-0.36,0.77-0.36H110.19 M110.19,81.38h-3.15 c-1.19,0-2.31,0.52-3.08,1.44l-5.1,6.1v-3.53c0-2.21-1.8-4.01-4.01-4.01h-2.77c-2.21,0-4.01,1.8-4.01,4.01v25.51 c0,2.21,1.8,4.01,4.01,4.01h2.77c2.21,0,4.01-1.8,4.01-4.01v-5.81l5.64,8.1c0.75,1.08,1.98,1.72,3.29,1.72h3.2 c1.5,0,2.87-0.83,3.56-2.16s0.58-2.93-0.28-4.15l-8.36-11.86l7.35-8.77c1.01-1.21,1.23-2.84,0.56-4.27 C113.15,82.26,111.76,81.38,110.19,81.38L110.19,81.38z" style="fill:#424242;"/>
    </g>
    <g>
      <path d="M16,110.9V85.39c0-0.56,0.45-1.01,1.01-1.01h8.43c3.11,0,5.48,0.62,7.11,1.87 c1.63,1.25,2.44,3.11,2.44,5.58c0,1.26-0.34,2.39-1.02,3.4s-1.68,1.79-2.99,2.34c1.49,0.4,2.64,1.16,3.45,2.28 c0.81,1.12,1.22,2.45,1.22,4.02c0,2.58-0.83,4.57-2.49,5.96c-1.66,1.39-4.03,2.08-7.12,2.08h-9.03 C16.45,111.91,16,111.46,16,110.9z M20.78,94.96c0,0.56,0.45,1.01,1.01,1.01h3.68c1.49,0,2.65-0.34,3.49-1.01 c0.84-0.67,1.26-1.63,1.26-2.86c0-1.36-0.39-2.34-1.16-2.95c-0.77-0.61-1.98-0.91-3.62-0.91h-3.64c-0.56,0-1.01,0.45-1.01,1.01 V94.96z M20.78,100.49v6.55c0,0.56,0.45,1.01,1.01,1.01h4.3c1.5,0,2.67-0.37,3.52-1.11c0.84-0.74,1.27-1.77,1.27-3.09 c0-2.85-1.46-4.3-4.39-4.37h-4.7C21.24,99.48,20.78,99.94,20.78,100.49z" style="fill:#FAFAFA;"/>
      <path d="M55.12,105.5h-9.23c-0.43,0-0.81,0.27-0.95,0.68l-1.76,5.06c-0.14,0.41-0.52,0.68-0.95,0.68h-2.8 c-0.71,0-1.19-0.71-0.94-1.36l9.64-25.51c0.15-0.39,0.52-0.65,0.94-0.65h2.9c0.42,0,0.79,0.26,0.94,0.65l9.65,25.51 c0.25,0.66-0.24,1.37-0.94,1.37H58.8c-0.43,0-0.81-0.27-0.95-0.67l-1.78-5.06C55.93,105.77,55.55,105.5,55.12,105.5z M47.94,101.64h5.14c0.69,0,1.18-0.69,0.95-1.34l-2.57-7.35c-0.31-0.9-1.59-0.9-1.9,0l-2.57,7.35 C46.75,100.95,47.24,101.64,47.94,101.64z" style="fill:#FAFAFA;"/>
      <path d="M85.64,102.94c0.64,0,1.11,0.59,0.99,1.21c-0.43,2.36-1.46,4.25-3.08,5.66 c-1.89,1.65-4.41,2.47-7.54,2.47c-2.19,0-4.12-0.52-5.79-1.56s-2.96-2.52-3.87-4.43c-0.91-1.92-1.38-4.14-1.42-6.67v-2.57 c0-2.6,0.46-4.88,1.38-6.86c0.92-1.98,2.24-3.5,3.96-4.58c1.72-1.07,3.71-1.61,5.96-1.61c3.04,0,5.48,0.82,7.34,2.47 c1.6,1.42,2.62,3.34,3.06,5.77c0.11,0.63-0.36,1.21-0.99,1.21h-2.71c-0.49,0-0.92-0.34-1.01-0.81c-0.28-1.56-0.82-2.72-1.61-3.47 c-0.93-0.88-2.28-1.31-4.07-1.31c-2.08,0-3.68,0.76-4.79,2.28c-1.12,1.52-1.69,3.75-1.71,6.69v2.44c0,2.98,0.53,5.25,1.6,6.81 c1.06,1.56,2.62,2.35,4.68,2.35c1.88,0,3.29-0.42,4.24-1.27c0.81-0.73,1.37-1.87,1.67-3.42c0.09-0.47,0.51-0.8,0.98-0.8H85.64z" style="fill:#FAFAFA;"/>
      <path d="M98.13,100.92l-1.99,2.11c-0.18,0.19-0.27,0.43-0.27,0.69v7.17c0,0.56-0.45,1.01-1.01,1.01h-2.77 c-0.56,0-1.01-0.45-1.01-1.01V85.39c0-0.56,0.45-1.01,1.01-1.01h2.77c0.56,0,1.01,0.45,1.01,1.01v9.06c0,0.95,1.19,1.37,1.79,0.63 l0.85-1.06l7.75-9.28c0.19-0.23,0.48-0.36,0.77-0.36h3.15c0.86,0,1.32,1,0.77,1.66l-8.34,9.94c-0.29,0.35-0.32,0.86-0.05,1.23 l9.25,13.11c0.47,0.67-0.01,1.59-0.82,1.59h-3.2c-0.33,0-0.64-0.16-0.83-0.43l-7.27-10.44C99.33,100.51,98.57,100.45,98.13,100.92 z" style="fill:#FAFAFA;"/>
    </g>
    <g style="opacity:0.2;">
      <path d="M49.98,16c2.06,0,4.02,1.62,4.02,4.01V34c0,1.1,0.9,2,2,2h46c2.21,0,4,1.79,4,4v8 c0,2.21-1.79,4-4,4H56c-1.1,0-2,0.9-2,2v13.99c0,2.39-1.96,4.01-4.02,4.01c-0.9,0-1.82-0.31-2.61-1l-24-23.99 c-1.82-1.59-1.82-4.43,0-6.02l24-23.99C48.15,16.31,49.07,16,49.98,16 M49.98,13c-1.68,0-3.3,0.62-4.59,1.74l-0.07,0.07 l-0.07,0.07L21.31,38.81C19.84,40.13,19,42.02,19,44c0,1.98,0.84,3.87,2.31,5.19l23.94,23.93l0.07,0.07l0.07,0.07 C46.67,74.38,48.3,75,49.98,75c3.87,0,7.02-3.14,7.02-7.01V55h45c3.86,0,7-3.14,7-7v-8c0-3.86-3.14-7-7-7H57V20.01 C57,16.14,53.85,13,49.98,13L49.98,13z" style="fill:#424242;"/>
    </g>
    <path d="M47.37,71l-24-23.99c-1.82-1.59-1.82-4.43,0-6.02l24-23.99c2.59-2.26,6.63-0.43,6.63,3.01V34 c0,1.1,0.9,2,2,2h46c2.21,0,4,1.79,4,4v8c0,2.21-1.79,4-4,4H56c-1.1,0-2,0.9-2,2v13.99C54,71.43,49.95,73.27,47.37,71z" style="fill:#FAFAFA;"/>
  </g>
</svg>