<svg xmlns="http://www.w3.org/2000/svg" viewBox="0 0 128 128"><g fill="#006ca2"><path d="M121.99 21.29h-7.58c-2.58 0-4.69 2.11-4.69 4.69v89.81c0 2.58 2.11 4.69 4.69 4.69h7.58c2.58 0 4.68-2.11 4.68-4.69V25.98c0-2.58-2.11-4.69-4.68-4.69zM96.6 49.37h-7.57c-2.58 0-4.68 2.11-4.68 4.69v61.73c0 2.58 2.1 4.69 4.68 4.69h7.57c2.58 0 4.69-2.11 4.69-4.69V54.06c0-2.58-2.11-4.69-4.69-4.69zM71.22 70.88h-7.58c-2.58 0-4.69 2.11-4.69 4.69v40.22c0 2.58 2.11 4.69 4.69 4.69h7.58c2.58 0 4.69-2.11 4.69-4.69V75.56c-.01-2.57-2.11-4.68-4.69-4.68z"/><path d="M73.05 21.29H5.13c-2.09 0-3.8 1.71-3.8 3.81v6.15c0 .16.03.32.05.48.03.29-.4 2.82 1.64 5.34l27.6 33.99v44.72c0 2.58 2.11 4.69 4.69 4.69h7.58c2.58 0 4.69-2.11 4.69-4.69V71.06l27.6-34c2.04-2.51 1.61-5.04 1.65-5.34h-.01c.02-.16.05-.31.05-.47V25.1c-.01-2.1-1.73-3.81-3.82-3.81zM19.12 35.06h11.49v14.16L19.12 35.06zm28.45 14.16V35.06h11.5l-11.5 14.16z"/></g></svg>