<svg enable-background="new 0 0 128 128" viewBox="0 0 128 128" xmlns="http://www.w3.org/2000/svg" xmlns:xlink="http://www.w3.org/1999/xlink"><linearGradient id="b" x1="-93.047" x2="-93.047" y1="-73.413" y2="-17.291" gradientUnits="userSpaceOnUse"><stop stop-color="#eee" offset=".0051299"/><stop stop-color="#EAEAEA" offset=".2817"/><stop stop-color="#ddd" offset=".5766"/><stop stop-color="#C8C8C8" offset=".8789"/><stop stop-color="#BDBDBD" offset=".9998"/></linearGradient><path d="m-42.13-44.72c-0.91-4.33-4.3-20.11-5.87-27.41-0.47-2.21-2.11-3.82-3.99-3.81-5.36 0-15.39-0.05-16.6-0.05h-44.08c-0.61 0-2.56 0.06-4.11 1.79-4.7 5.27-12.54 20.52-13.76 22.07-0.08 0.1-6.27 2.31-9.09 4-1.12 0.67-1.74 2.13-1.9 3.63l-2.46 20.75c-0.64 4.1 1.7 5.76 5.37 5.76h91.51c2.8 0 5.11-0.68 5.11-5.69v-19.79c0-0.43-0.05-0.85-0.13-1.25z" fill="url(#b)"/><defs><path id="c" d="m-42.13-44.78c-0.91-4.32-4.3-20.06-5.87-27.34-0.47-2.21-2.11-3.82-3.99-3.82-5.36 0-15.39-0.06-16.6-0.06h-44.08c-0.61 0-2.56 0.07-4.11 1.8-4.7 5.26-12.54 20.51-13.76 22.05-0.08 0.1-6.27 2.28-9.09 3.96-1.12 0.67-1.74 2.13-1.9 3.62l-2.46 20.76c-0.64 4.09 1.7 5.81 5.37 5.81h91.51c2.8 0 5.11-0.79 5.11-5.8v-19.74c0-0.42-0.05-0.83-0.13-1.24z"/></defs><clipPath><use xlink:href="#c"/></clipPath><g opacity=".2"><path d="m-51.98-73c0.36 0 0.87 0.59 1.05 1.44 1.46 6.78 4.95 23.06 5.86 27.43 0.04 0.2 0.07 0.44 0.07 0.66v19.79c0 2.81-0.49 2.69-2.11 2.69h-91.51c-1.3 0-2.02-0.23-2.25-0.5s-0.3-0.92-0.16-1.77c0.01-0.04 0.01-0.06 0.02-0.09l2.47-20.83c0.08-0.8 0.36-1.28 0.46-1.36 1.87-1.12 5.83-2.66 7.51-3.31 1.46-0.57 1.86-0.72 2.39-1.39 0.5-0.63 1.28-2 2.99-5.03 2.85-5.03 7.61-13.53 10.65-16.93 0.57-0.64 1.22-0.79 1.87-0.79h44.08 9.21 7.4-0.02m0.02-3.01s-0.01 0 0 0h-16.6-44.08-0.02c-0.63 0-2.55 0.08-4.08 1.79-4.7 5.27-12.54 20.52-13.76 22.07-0.08 0.1-6.27 2.31-9.09 4-1.12 0.67-1.74 2.13-1.9 3.63l-2.46 20.75c-0.64 4.1 1.7 5.76 5.37 5.76h91.51c2.8 0 5.11-0.68 5.11-5.69v-19.79c0-0.42-0.05-0.84-0.13-1.24-0.91-4.33-4.3-20.17-5.87-27.47-0.49-2.21-2.13-3.81-4-3.81z" fill="#424242"/></g><linearGradient id="a" x1="46.43" x2="46.43" y1="-117.5" y2="-61.374" gradientUnits="userSpaceOnUse"><stop stop-color="#616161" offset=".0106"/><stop stop-color="#5D5D5D" offset=".2496"/><stop stop-color="#505050" offset=".5044"/><stop stop-color="#3B3B3B" offset=".7657"/><stop stop-color="#212121" offset="1"/></linearGradient><path d="m97.35-88.93c-0.91-4.33-4.3-20.11-5.86-27.41-0.47-2.21-2.11-3.75-3.99-3.75-5.36 0-15.39 0.01-16.6 0.01h-44.08c-0.61 0-2.56-0.01-4.11 1.73-4.71 5.28-12.55 20.49-13.76 22.04-0.08 0.1-6.27 2.3-9.09 3.99-1.12 0.67-1.74 2.12-1.9 3.62l-2.46 20.8c-0.64 4.1 1.7 5.82 5.37 5.82h91.51c2.8 0 5.1-0.8 5.1-5.81v-19.79c-0.01-0.43-0.05-0.84-0.13-1.25z" fill="url(#a)"/><defs><path id="d" d="m97.35-88.98c-0.91-4.32-4.3-20.06-5.86-27.34-0.47-2.21-2.11-3.74-3.99-3.74-5.36 0-15.39 0.01-16.6 0.01h-44.08c-0.61 0-2.56-0.01-4.11 1.72-4.71 5.27-12.55 20.48-13.76 22.02-0.08 0.1-6.27 2.26-9.09 3.94-1.12 0.67-1.74 2.12-1.9 3.61l-2.47 20.76c-0.64 4.09 1.7 5.8 5.37 5.8h91.51c2.8 0 5.1-0.79 5.1-5.8v-19.74c0-0.42-0.04-0.84-0.12-1.24z"/></defs><clipPath><use xlink:href="#d"/></clipPath><g opacity=".2"><path d="m87.5-117.08c0.36 0 0.87 0.53 1.05 1.38 1.46 6.78 4.94 23.03 5.86 27.4 0.04 0.2 0.06 0.41 0.06 0.63v19.79c0 2.81-0.49 2.81-2.1 2.81h-91.51c-1.3 0-2.02-0.29-2.25-0.56s-0.3-0.95-0.16-1.8l0.02-0.1 2.47-20.84c0.08-0.8 0.36-1.28 0.46-1.36 1.87-1.12 5.83-2.66 7.51-3.31 1.46-0.57 1.86-0.72 2.39-1.39 0.5-0.63 1.28-2 2.99-5.03 2.85-5.03 7.61-13.46 10.65-16.87 0.57-0.64 1.22-0.72 1.87-0.72h44.08c0.75 0 4.89 0 9.21-0.01l7.4-0.02m0-3c-5.36 0-15.39 0.01-16.6 0.01h-44.08-0.02c-0.63 0-2.55 0.01-4.08 1.73-4.72 5.27-12.56 20.48-13.77 22.03-0.08 0.1-6.27 2.3-9.09 3.99-1.12 0.67-1.74 2.12-1.9 3.62l-2.46 20.8c-0.64 4.1 1.7 5.82 5.37 5.82h91.51c2.8 0 5.1-0.8 5.1-5.81v-19.79c0-0.42-0.04-0.84-0.13-1.24-0.91-4.33-4.3-20.11-5.86-27.41-0.48-2.22-2.12-3.75-3.99-3.75z" fill="#eee"/></g><path d="m110.33 123.93h-93.19c-7.37 0-13.34-5.97-13.34-13.34v-93.18c0-7.37 5.97-13.34 13.34-13.34h93.19c7.37 0 13.34 5.97 13.34 13.34v93.19c0 7.36-5.97 13.33-13.34 13.33z" fill="#616161"/><linearGradient id="e" x1="63.736" x2="63.736" y1="7.9475" y2="120.05" gradientUnits="userSpaceOnUse"><stop stop-color="#F5F5F5" offset="0"/><stop stop-color="#E0E0E0" offset=".9998"/></linearGradient><path d="m63.74 7.95c-30.93 0-56.06 25.12-56.06 56.05s25.13 56.05 56.05 56.05c30.93 0 56.05-25.13 56.05-56.05 0.01-30.93-25.12-56.05-56.04-56.05zm0 70.08c-7.77 0-14.03-6.25-14.03-14.03 0-7.77 6.25-14.03 14.03-14.03 7.77 0 14.03 6.25 14.03 14.03-0.01 7.77-6.26 14.03-14.03 14.03z" fill="url(#e)"/><path d="m98.82 99.08c5.98-5.98 10.1-13.11 12.39-20.68l-33.74-17.27c0.94 4.47-0.33 9.31-3.82 12.79-3.49 3.49-8.32 4.75-12.79 3.82l17.27 33.73c7.57-2.29 14.71-6.41 20.69-12.39z" fill="#fff" opacity=".7"/><path d="M28.66,28.92c-5.98,5.98-10.1,13.11-12.39,20.68L50,66.87 c-0.94-4.47,0.33-9.31,3.82-12.79c3.49-3.49,8.32-4.75,12.79-3.82L49.34,16.53C41.77,18.82,34.63,22.94,28.66,28.92z" fill="#fff" opacity=".7"/><path d="m63.66 41.66c-12.43 0-22.42 9.99-22.42 22.42s9.99 22.42 22.42 22.42 22.42-9.99 22.42-22.42-9.99-22.42-22.42-22.42zm0.08 36.37c-7.77 0-14.03-6.25-14.03-14.03 0-7.77 6.25-14.03 14.03-14.03 7.77 0 14.03 6.25 14.03 14.03-0.01 7.77-6.26 14.03-14.03 14.03z" fill="#BDBDBD"/><path d="M120.62,79.02H83.27c-1.73,0-3.13-1.4-3.13-3.13V52.11c0-1.73,1.4-3.13,3.13-3.13h37.36V79.02z" fill="#616161"/><path d="M120.62,75.94H84.86c-0.83,0-1.5-0.67-1.5-1.5V53.5c0-0.83,0.67-1.5,1.5-1.5h35.77V75.94z" fill="#F5F5F5"/><g opacity=".2"><path d="m110.33 7.07c5.7 0 10.34 4.64 10.34 10.34v93.19c0 5.7-4.64 10.34-10.34 10.34h-93.19c-5.7 0-10.34-4.64-10.34-10.34v-93.19c0-5.7 4.64-10.34 10.34-10.34h93.19m0-3h-93.19c-7.37 0-13.34 5.97-13.34 13.34v93.19c0 7.37 5.97 13.34 13.34 13.34h93.19c7.37 0 13.34-5.97 13.34-13.34v-93.19c0-7.37-5.97-13.34-13.34-13.34z" fill="#eee"/></g></svg>
