<svg xmlns="http://www.w3.org/2000/svg" viewBox="0 0 128 128"><path d="M.21 92.33c0 13.83 28.55 25.03 63.79 25.03 35.23 0 63.79-11.21 63.79-25.03 0-13.83-1.48-83.68-63.79-83.68C1.68 8.64.21 78.5.21 92.33z" fill="#fcc21b"/><path d="M83.9 94.94c-30.25 4.92-63.61-2.02-74.6-15.52-10.95-13.49 4.57-28.43 34.79-33.36 30.15-4.91 63.59 2.04 74.62 15.54 10.94 13.5-4.64 28.44-34.81 33.34z" fill="#fcc21b"/><path d="M83.16 94.02c-29.12 4.73-61.23-1.94-71.81-14.94C.8 66.1 15.74 51.72 44.84 46.97c29.03-4.72 61.24 1.94 71.83 14.96 10.56 12.97-4.47 27.38-33.51 32.09z" fill="#fcc01c"/><path d="M82.41 93.11c-27.99 4.55-58.85-1.86-69.02-14.36-10.13-12.48 4.22-26.3 32.19-30.87 27.9-4.54 58.86 1.87 69.04 14.38 10.15 12.47-4.29 26.32-32.21 30.85z" fill="#fcbe1c"/><path d="M81.67 92.2c-26.86 4.36-56.47-1.79-66.23-13.78-9.73-11.98 4.05-25.24 30.88-29.62 26.77-4.36 56.48 1.79 66.25 13.8 9.75 11.96-4.12 25.25-30.9 29.6z" fill="#fbbb1d"/><path d="M80.92 91.28c-25.72 4.18-54.1-1.71-63.44-13.2-9.31-11.47 3.88-24.17 29.59-28.37 25.65-4.17 54.1 1.72 63.46 13.22 9.33 11.46-3.95 24.18-29.61 28.35z" fill="#fbb91e"/><path d="M80.18 90.37c-24.59 4-51.72-1.64-60.66-12.62-8.9-10.97 3.71-23.11 28.29-27.12 24.52-3.99 51.73 1.64 60.68 12.63 8.92 10.96-3.78 23.12-28.31 27.11z" fill="#fbb71e"/><path d="M79.44 89.45c-23.46 3.81-49.34-1.56-57.87-12.04-8.5-10.46 3.54-22.05 26.99-25.88 23.39-3.81 49.35 1.57 57.89 12.05 8.5 10.46-3.61 22.07-27.01 25.87z" fill="#fbb51f"/><path d="M78.69 88.54c-22.33 3.63-46.96-1.49-55.08-11.46-8.09-9.96 3.37-20.99 25.69-24.63 22.27-3.62 46.97 1.49 55.1 11.47 8.09 9.95-3.44 21-25.71 24.62z" fill="#fab220"/><path d="M77.95 87.63c-21.2 3.44-44.58-1.41-52.29-10.88-7.68-9.45 3.2-19.92 24.38-23.38 21.14-3.44 44.59 1.42 52.31 10.89 7.69 9.44-3.26 19.93-24.4 23.37z" fill="#fab020"/><path d="M77.2 86.71c-20.07 3.26-42.2-1.33-49.5-10.3-7.27-8.95 3.03-18.86 23.08-22.13C70.8 51.02 93 55.62 100.3 64.59c7.28 8.94-3.08 18.87-23.1 22.12z" fill="#faae21"/><path d="M76.46 85.8c-18.94 3.08-39.83-1.26-46.71-9.72-6.86-8.45 2.86-17.8 21.78-20.89 18.89-3.07 39.83 1.27 46.73 9.73 6.87 8.44-2.91 17.81-21.8 20.88z" fill="#faac22"/><path d="M75.71 84.89c-17.81 2.89-37.45-1.19-43.92-9.14-6.45-7.94 2.69-16.73 20.48-19.64 17.76-2.89 37.46 1.19 43.94 9.15 6.46 7.93-2.73 16.74-20.5 19.63z" fill="#f9a922"/><path d="M74.97 83.97c-16.68 2.71-35.07-1.11-41.13-8.56-6.04-7.44 2.52-15.67 19.18-18.39 16.63-2.71 35.08 1.11 41.15 8.57 6.05 7.43-2.57 15.68-19.2 18.38z" fill="#f9a723"/><path d="M74.23 83.06c-15.54 2.53-32.69-1.04-38.34-7.98-5.63-6.93 2.35-14.61 17.88-17.15 15.51-2.52 32.7 1.04 38.36 7.99 5.63 6.93-2.4 14.62-17.9 17.14z" fill="#f9a524"/><path d="M73.48 82.15c-14.41 2.34-30.32-.96-35.55-7.4-5.22-6.43 2.18-13.55 16.58-15.9 14.38-2.34 30.32.96 35.57 7.41 5.22 6.41-2.22 13.55-16.6 15.89z" fill="#f9a324"/><path d="M72.74 81.23c-13.28 2.16-27.94-.89-32.76-6.82-4.81-5.92 2.01-12.48 15.28-14.65 13.25-2.16 27.94.89 32.78 6.83 4.81 5.91-2.05 12.49-15.3 14.64z" fill="#f8a025"/><path d="M71.99 80.32c-12.15 1.97-25.56-.81-29.98-6.24-4.4-5.42 1.84-11.42 13.98-13.4 12.12-1.97 25.56.81 29.99 6.25 4.41 5.4-1.87 11.42-13.99 13.39z" fill="#f89e26"/><path d="M71.25 79.4c-11.02 1.79-23.18-.74-27.19-5.66-3.99-4.92 1.67-10.36 12.68-12.16 11-1.79 23.19.74 27.2 5.66 4 4.92-1.7 10.38-12.69 12.16z" fill="#f89c26"/><path d="M70.51 78.49c-9.89 1.61-20.81-.66-24.4-5.08-3.58-4.41 1.5-9.29 11.38-10.91 9.87-1.6 20.81.66 24.41 5.08 3.58 4.41-1.53 9.31-11.39 10.91z" fill="#f89a27"/><path d="M69.76 77.58C61 79 51.33 76.99 48.15 73.08c-3.17-3.91 1.33-8.23 10.08-9.66 8.74-1.42 18.43.59 21.62 4.5 3.18 3.9-1.35 8.24-10.09 9.66z" fill="#f79728"/><path d="M69.02 76.66c-7.63 1.24-16.05-.51-18.82-3.92-2.76-3.4 1.16-7.17 8.77-8.41 7.62-1.24 16.05.51 18.83 3.92 2.77 3.4-1.17 7.18-8.78 8.41z" fill="#f79528"/><path d="M68.27 75.75c-6.49 1.05-13.67-.44-16.03-3.34-2.35-2.9.99-6.11 7.47-7.17 6.49-1.05 13.67.44 16.04 3.34 2.36 2.9-1 6.12-7.48 7.17z" fill="#f79329"/><g fill="#2f2f2f"><path d="M99.19 61.36a2.627 2.627 0 0 1-2.72 1.76c-.21-.02-.42-.06-.63-.13-8.11-2.79-18.7-1.77-18.79-1.76-1.21.12-2.3-.58-2.73-1.68-.43-1.11-.04-2.37.91-3.07 8.51-6.17 21-9.13 21.52-9.24 1.43-.33 2.84.55 3.17 1.97.32 1.41-.56 2.83-1.97 3.16-.07.01-5.19 1.22-10.85 3.61 3.28.19 7.04.87 10.45 2.03 1.38.48 2.11 1.98 1.64 3.35zM29.65 61.36c.4 1.17 1.54 1.86 2.72 1.76.21-.02.42-.06.63-.13 8.11-2.79 18.7-1.77 18.79-1.76 1.21.12 2.3-.58 2.73-1.68.43-1.11.04-2.37-.91-3.07-8.51-6.17-21-9.13-21.52-9.24-1.43-.33-2.84.55-3.17 1.97-.32 1.41.56 2.83 1.97 3.16.07.01 5.19 1.22 10.85 3.61-3.28.19-7.04.87-10.45 2.03a2.628 2.628 0 0 0-1.64 3.35z"/></g><g><path d="M62.34 98.77c-.77 0-1.54-.29-2.12-.88a3 3 0 0 1 0-4.24c10.08-10.07 25.27-15.27 34.81-5.73a3 3 0 0 1 0 4.24 3 3 0 0 1-4.24 0c-6.69-6.69-18.56-2.04-26.33 5.73-.59.59-1.36.88-2.12.88z" fill="#2f2f2f"/></g><path d="M37.64 70.2C25.04 73.83.71 75.54 1.36 80.18c.58 4.09 4.33 6 5.9 9.09 2.14 4.21.51 8.26 1.67 11.62 1.47 4.24 4.84 6.53 6.26 8.69 3.02 4.59.62 10.79 4.44 14.65 2.33 2.35 21.85-10.17 29.58-19.05C60.07 92.7 73.4 68.02 66.95 62.28c-5.18-4.61-12.73 3.14-29.31 7.92z" fill="#eee"/><path d="M47.99 76.63c-3.84 2.35-9.01 4.88-14.39 7.51-4.27 2.09-8.91 4.24-14.08 5.47-1.05.25-2.16 1.68.16 1.59 5.27-.2 9.82-1.92 14.49-4.06 4.34-1.99 10.72-5.76 15.07-9.72 1.55-1.42.33-1.76-1.25-.79zM48.73 87.92c-2.88 2.97-6.91 6.4-11.1 9.96-3.33 2.83-6.97 5.81-11.29 8.08-.88.46-1.54 1.99.5 1.38 4.64-1.38 8.31-3.95 11.98-6.92 3.41-2.76 8.24-7.57 11.21-12.09 1.05-1.61-.11-1.64-1.3-.41z" fill="#e0e0e0"/></svg>