<?xml version="1.0" encoding="UTF-8" standalone="no"?>
<svg
   xmlns:dc="http://purl.org/dc/elements/1.1/"
   xmlns:cc="http://creativecommons.org/ns#"
   xmlns:rdf="http://www.w3.org/1999/02/22-rdf-syntax-ns#"
   xmlns:svg="http://www.w3.org/2000/svg"
   xmlns="http://www.w3.org/2000/svg"
   xmlns:xlink="http://www.w3.org/1999/xlink"
   xmlns:sodipodi="http://sodipodi.sourceforge.net/DTD/sodipodi-0.dtd"
   xmlns:inkscape="http://www.inkscape.org/namespaces/inkscape"
   width="128"
   height="128"
   style="enable-background:new 0 0 128 128;"
   version="1.1"
   id="svg42"
   sodipodi:docname="emoji_u1f4da.svg"
   inkscape:version="0.92+devel unknown">
  <sodipodi:namedview
     pagecolor="#ffffff"
     bordercolor="#666666"
     inkscape:document-rotation="0"
     borderopacity="1"
     objecttolerance="10"
     gridtolerance="10"
     guidetolerance="10"
     inkscape:pageopacity="0"
     inkscape:pageshadow="2"
     inkscape:window-width="1680"
     inkscape:window-height="986"
     id="namedview44"
     showgrid="false"
     inkscape:snap-global="false"
     inkscape:zoom="2"
     inkscape:cx="-50.952903"
     inkscape:cy="102.61512"
     inkscape:window-x="0"
     inkscape:window-y="27"
     inkscape:window-maximized="1"
     inkscape:current-layer="svg42" />
  <metadata
     id="metadata48">
    <rdf:RDF>
      <cc:Work
         rdf:about="">
        <dc:format>image/svg+xml</dc:format>
        <dc:type
           rdf:resource="http://purl.org/dc/dcmitype/StillImage" />
      </cc:Work>
    </rdf:RDF>
  </metadata>
  <defs
     id="defs46">
    <linearGradient
       gradientUnits="userSpaceOnUse"
       y2="82.46875"
       x2="95.742714"
       y1="70.877846"
       x1="95.742714"
       id="linearGradient4367"
       xlink:href="#linearGradient4365"
       inkscape:collect="always"
       gradientTransform="translate(2.2219988,-8.5173698)" />
    <linearGradient
       id="linearGradient4365"
       inkscape:collect="always">
      <stop
         id="stop4361"
         offset="0"
         style="stop-color:#ffffff;stop-opacity:1;" />
      <stop
         id="stop4363"
         offset="1"
         style="stop-color:#ffffff;stop-opacity:0.7872622" />
    </linearGradient>
    <linearGradient
       inkscape:collect="always"
       xlink:href="#linearGradient4365"
       id="linearGradient4436"
       gradientUnits="userSpaceOnUse"
       gradientTransform="translate(2.2219988,-8.5173698)"
       x1="95.742714"
       y1="70.877846"
       x2="95.742714"
       y2="82.46875" />
  </defs>
  <path
     d="M 109.98,98.53 C 109.7,92.28 107.59,88.22 103.77,84.7 94.23,75.89 82.73,67.48 72.14,59.95 67.23,56.46 61.77,51.85 56.08,49.72 48.06,46.71 39,47.78 30.41,49 26.66,49.53 22.89,50.13 19.19,51 14.91,52.02 9.83,53.23 6.2,55.8 2.94,58.11 3.34,61 4.94,63.68 c 0.24,1.23 0.01,2.4 0.02,3.65 0.02,2.36 -0.25,4.72 -0.82,7 -0.36,1.41 -0.85,2.77 -1.31,4.15 -1.83,5.34 3.22,9.82 6.96,12.91 2.1,1.73 4.34,3.29 6.45,5.01 8.2,6.67 16.6,12.7 24.99,19.05 9.83,7.45 13.58,10.04 25.85,5.85 3.31,-1.13 6.7,-2.03 10.09,-2.9 4.8,-1.23 11.18,-2.4 15.85,-4.04 4.73,-1.66 10.84,-3.86 14.31,-7.65 1.74,-1.89 2.48,-4.6 2.49,-7.12 0.12,-0.31 0.18,-0.65 0.16,-1.06 z"
     style="fill:#ffffff"
     id="path2"
     inkscape:connector-curvature="0" />
  <path
     d="m 13.37,58.22 c 4.72,-1.99 23.27,-4.87 27.36,-5.34 3.47,-0.4 7.84,-0.96 11.28,-0.45 1.39,0.23 5.85,2.56 10.48,5.71 9.47,6.44 34.45,25.17 36.03,26.62 0.42,0.39 3.85,3.66 2.12,3.64 -1.75,-0.02 -3.5,0.1 -5.23,0.3 -2.96,0.35 -20.23,4.46 -28.07,6.38 -1.55,0.38 -5.75,1.16 -6.91,1.39 -3.28,0.67 -5.97,-0.38 -8.65,-2.26 -5.59,-3.9 -40.37,-30.7 -41.28,-32.59 -0.66,-1.34 0.67,-2.47 2.87,-3.4 z"
     style="fill:#bdcf46"
     id="path4"
     inkscape:connector-curvature="0" />
  <path
     style="color:#000000;font-style:normal;font-variant:normal;font-weight:normal;font-stretch:normal;font-size:medium;line-height:normal;font-family:sans-serif;font-variant-ligatures:normal;font-variant-position:normal;font-variant-caps:normal;font-variant-numeric:normal;font-variant-alternates:normal;font-variant-east-asian:normal;font-feature-settings:normal;text-indent:0;text-align:start;text-decoration:none;text-decoration-line:none;text-decoration-style:solid;text-decoration-color:#000000;letter-spacing:normal;word-spacing:normal;text-transform:none;writing-mode:lr-tb;direction:ltr;text-orientation:mixed;dominant-baseline:auto;baseline-shift:baseline;text-anchor:start;white-space:normal;shape-padding:0;clip-rule:nonzero;display:inline;overflow:visible;visibility:visible;isolation:auto;mix-blend-mode:normal;color-interpolation:sRGB;color-interpolation-filters:linearRGB;solid-color:#000000;solid-opacity:1;vector-effect:none;fill:#467917;fill-opacity:1;fill-rule:nonzero;stroke:none;stroke-width:3;stroke-linecap:round;stroke-linejoin:round;stroke-miterlimit:4;stroke-dasharray:none;stroke-dashoffset:0;stroke-opacity:1;color-rendering:auto;image-rendering:auto;shape-rendering:auto;text-rendering:auto;enable-background:accumulate"
     d="M 46.996094 48.972656 C 44.957047 48.964861 42.859035 49.142567 40.689453 49.390625 C 29.944192 50.61923 19.763369 50.987915 9.7851562 54.398438 C 8.4203028 54.867854 7.1664009 55.411212 6.2539062 56.126953 C 5.3430141 56.841437 4.7383831 57.66477 4.4746094 59.025391 C 4.4746094 59.025391 4.4746094 59.027344 4.4746094 59.027344 C 4.4221773 59.309917 4.479376 60.12625 4.6777344 60.945312 C 4.875256 61.760922 5.1714305 62.607516 5.4003906 63.185547 C 5.5964566 63.668171 5.5453756 63.857678 5.5410156 64.083984 C 5.5366536 64.310291 5.515144 64.529132 5.484375 64.773438 C 5.4228365 65.262047 5.3199271 65.840878 5.1855469 66.503906 C 4.9167865 67.829963 4.5250158 69.480895 4.1054688 71.146484 C 3.2663744 74.477664 2.3769947 77.693676 2.0507812 78.652344 C 1.0601153 81.5675 2.4389721 84.146321 4.7285156 86.660156 A 1.50015 1.50015 0 0 1 4.7324219 86.664062 C 4.6385844 86.560422 4.909101 86.825999 5.2460938 87.109375 C 5.5830865 87.392751 6.052307 87.776553 6.6289062 88.242188 C 7.7821047 89.173457 9.3662924 90.43136 11.234375 91.902344 C 14.97054 94.844311 19.84213 98.641432 24.701172 102.41211 C 29.560252 106.18279 34.408115 109.92894 38.099609 112.77539 C 39.945356 114.19861 41.500694 115.39632 42.625 116.25977 C 43.749306 117.12321 44.52955 117.7158 44.53125 117.7168 A 1.50015 1.50015 0 0 1 44.539062 117.72266 C 48.0966 120.3414 50.802245 122.03082 53.564453 122.82812 L 53.566406 122.82812 C 57.053558 123.83042 60.82938 123.49384 67.095703 121.35938 L 67.09375 121.36133 C 67.897249 121.0862 69.602274 120.62716 72.083984 119.95117 C 74.565694 119.27518 77.747991 118.41163 81.205078 117.43359 C 88.119252 115.47753 96.150352 113.05711 101.79883 110.82422 C 105.47463 109.37078 107.54152 107.43816 108.33203 106.57031 A 1.50015 1.50015 0 0 1 108.33594 106.56641 C 109.24449 105.57674 109.86808 104.26304 110.21094 102.83008 A 1.50015 1.50015 0 0 1 110.21289 102.82617 C 110.42374 101.95642 110.53202 101.03485 110.54102 100.14453 A 1.50015 1.50015 0 0 1 110.55273 99.974609 C 110.55273 99.950416 110.55083 99.917046 110.54883 99.853516 C 110.54353 99.695737 110.53061 99.449026 110.50781 99.152344 C 110.46221 98.558979 110.38322 97.755448 110.27734 96.902344 C 110.06559 95.196135 109.68982 93.192725 109.42773 92.503906 C 108.53436 90.154671 106.19338 88.000405 103.86328 85.841797 C 93.378773 76.160737 82.32336 68.217647 70.681641 59.816406 C 67.699355 57.661979 64.793832 55.598834 61.724609 53.634766 C 60.334909 52.750411 58.464069 51.9293 56.769531 51.082031 C 54.25888 49.826705 51.684465 49.238567 49.015625 49.046875 C 48.348415 48.998952 47.675776 48.975255 46.996094 48.972656 z M 49.296875 50.722656 C 50.298668 50.73821 51.285503 50.805216 52.230469 50.945312 A 1.50015 1.50015 0 0 1 52.253906 50.949219 C 53.498834 51.155214 54.824827 51.835206 56.746094 52.869141 C 58.66736 53.903075 60.975995 55.296143 63.333984 56.900391 C 68.121005 60.155767 76.725713 66.442927 84.359375 72.117188 C 88.176206 74.954316 91.74504 77.634329 94.462891 79.699219 C 95.821816 80.731664 96.967817 81.609923 97.828125 82.279297 C 98.688433 82.948671 99.204934 83.351245 99.535156 83.654297 A 1.50015 1.50015 0 0 1 99.541016 83.660156 C 99.790834 83.892131 100.76259 84.806299 101.55664 85.794922 C 101.95366 86.289233 102.3293 86.710594 102.54492 87.498047 C 102.65274 87.891773 102.71866 88.600261 102.23242 89.205078 C 101.74619 89.809891 101.07266 89.905591 100.62305 89.900391 C 98.953028 89.881305 97.26539 89.994845 95.582031 90.189453 C 94.44195 90.324576 89.19972 91.452956 83.542969 92.761719 C 77.884462 94.070888 71.610289 95.578818 67.697266 96.537109 C 66.001606 96.952819 61.853148 97.716984 60.730469 97.939453 C 56.993421 98.702813 53.772332 97.438178 50.921875 95.439453 C 48.001803 93.402194 37.979022 85.775765 28.460938 78.34375 C 23.701895 74.627742 19.090841 70.974758 15.599609 68.123047 C 13.853994 66.697191 12.390006 65.47219 11.316406 64.529297 C 10.779606 64.05785 10.340844 63.659465 10 63.324219 C 9.6612306 62.991013 9.4626957 62.913724 9.1542969 62.277344 C 8.57787 61.099924 8.9764151 59.5931 9.7617188 58.746094 C 10.548225 57.89779 11.584367 57.345517 12.785156 56.837891 A 1.50015 1.50015 0 0 0 12.787109 56.837891 C 15.556605 55.670243 21.2535 54.536641 27.021484 53.503906 C 32.789469 52.471172 38.423893 51.635933 40.558594 51.390625 C 42.285647 51.191541 44.257792 50.939784 46.271484 50.808594 C 47.278331 50.742999 48.295082 50.707102 49.296875 50.722656 z M 8.0449219 65.130859 A 1.50015 1.50015 0 0 1 9.0195312 65.460938 C 11.083173 67.11665 22.224789 75.664425 33.074219 83.818359 C 38.498934 87.895327 43.865214 91.887448 48.021484 94.896484 C 50.099619 96.401002 51.877474 97.659822 53.195312 98.554688 C 53.854232 99.002119 54.400618 99.358888 54.796875 99.601562 C 55.193132 99.844233 55.585136 99.986253 55.3125 99.908203 A 1.50015 1.50015 0 0 1 56.328125 100.89062 C 57.977115 106.01846 58.004178 111.74542 56.160156 116.85938 A 1.50015 1.50015 0 0 1 56.160156 116.86328 C 55.939696 117.46955 55.741372 118.14249 55.414062 118.89062 A 1.50015 1.50015 0 0 1 53.515625 119.69531 C 52.2829 119.23584 51.11936 118.60567 49.916016 117.86914 A 1.50015 1.50015 0 0 1 49.90625 117.86328 C 49.526468 117.62643 48.835228 117.13503 47.65625 116.29883 C 46.477272 115.46263 44.896365 114.3313 43.041016 112.99609 C 39.330316 110.32569 34.524505 106.84187 29.675781 103.29102 C 24.827057 99.74016 19.934717 96.122874 16.044922 93.183594 C 12.155127 90.244314 9.4133561 88.144144 8.3242188 87.044922 C 7.8313633 86.546985 2.777538 83.275959 4.2246094 78.845703 C 5.2841114 75.591518 6.3564798 70.010175 6.5839844 66.53125 A 1.50015 1.50015 0 0 1 8.0449219 65.130859 z M 100.09961 91.460938 A 1.50015 1.50015 0 0 0 100.10156 91.460938 C 102.66094 91.411953 104.50456 92.54996 105.41211 93.300781 C 107.8643 95.313178 108.27428 98.638053 107.72852 101.2793 C 107.20977 103.89156 105.5725 105.85729 103.59961 107.26172 C 99.573442 110.13527 93.982399 111.1208 90.564453 112.12891 C 82.919516 114.39627 75.211513 116.4609 67.5 118.42383 A 1.50015 1.50015 0 0 0 67.498047 118.42383 C 65.25276 118.9925 62.894293 119.70772 60.425781 120.11914 A 1.50015 1.50015 0 0 1 58.8125 118.02148 C 59.215993 117.13005 59.552548 116.23399 59.785156 115.3125 A 1.50015 1.50015 0 0 0 59.785156 115.31055 C 60.422816 112.79687 60.551903 110.04785 60.269531 107.41602 C 60.090944 105.81989 59.996985 103.17607 59.753906 102.18945 A 1.50015 1.50015 0 0 1 61.097656 100.33398 C 60.886673 100.34968 61.018123 100.34352 61.095703 100.32812 C 61.173283 100.31273 61.293166 100.28661 61.443359 100.25391 C 61.743746 100.18859 62.170352 100.09336 62.695312 99.972656 C 63.745237 99.73125 65.191205 99.390806 66.857422 98.992188 C 70.189856 98.194948 74.404824 97.164072 78.119141 96.216797 C 85.647284 94.300001 94.35809 91.580778 100.09961 91.460938 z "
     id="path4473" />
  <path
     style="fill:#85d936;opacity:1;vector-effect:none;fill-opacity:1;stroke-width:1;stroke-linecap:butt;stroke-linejoin:miter;stroke-miterlimit:4;stroke-dasharray:none;stroke-dashoffset:0;stroke-opacity:1"
     d="m 49.296875,50.722656 c -1.001793,-0.01555 -2.018544,0.02034 -3.025391,0.08594 -2.013692,0.13119 -3.985837,0.382947 -5.71289,0.582031 -2.134701,0.245308 -7.769125,1.080547 -13.53711,2.113281 -5.767984,1.032735 -11.464879,2.166337 -14.234375,3.333985 a 1.50015,1.50015 0 0 0 -0.002,0 C 11.584367,57.345517 10.548225,57.89779 9.7617188,58.746094 8.9764151,59.5931 8.57787,61.099924 9.1542969,62.277344 9.4626957,62.913724 9.6612306,62.991013 10,63.324219 c 0.340844,0.335246 0.779606,0.733631 1.316406,1.205078 1.0736,0.942893 2.537588,2.167894 4.283203,3.59375 3.491232,2.851711 8.102286,6.504695 12.861329,10.220703 9.518084,7.432015 19.540865,15.058444 22.460937,17.095703 2.850457,1.998725 6.071546,3.26336 9.808594,2.5 1.122679,-0.222469 5.271137,-0.986634 6.966797,-1.402344 3.913023,-0.958291 10.187196,-2.466221 15.845703,-3.77539 5.656751,-1.308763 10.898981,-2.437143 12.039062,-2.572266 1.683359,-0.194608 3.370994,-0.308148 5.041019,-0.289062 0.44961,0.0052 1.12314,-0.0905 1.60937,-0.695313 0.48624,-0.604817 0.42032,-1.313305 0.3125,-1.707031 -0.21562,-0.787453 -0.59126,-1.208814 -0.98828,-1.703125 -0.79405,-0.988623 -1.765806,-1.902791 -2.015624,-2.134766 a 1.50015,1.50015 0 0 0 -0.0059,-0.0059 c -0.330222,-0.303052 -0.846723,-0.705626 -1.707031,-1.375 -0.860308,-0.669374 -2.006309,-1.547633 -3.365234,-2.580078 -2.717851,-2.06489 -6.286685,-4.744903 -10.103516,-7.582031 -7.633662,-5.674262 -16.23837,-11.961421 -21.025391,-15.216797 -2.357989,-1.604248 -4.666624,-2.997316 -6.58789,-4.03125 -1.921267,-1.033935 -3.24726,-1.713927 -4.492188,-1.919922 a 1.50015,1.50015 0 0 0 -0.02344,-0.0039 C 51.285503,50.805217 50.298668,50.73821 49.296875,50.722656 Z"
     id="path4564" />
  <g
     id="g4446">
    <path
       id="path4420"
       d="m 34.044279,58.928533 c -20.304431,3.726498 -3.993173,17.606762 -0.264528,20.666375 3.877611,3.181848 17.666022,3.460533 30.179315,0.607641 C 75.96959,77.464284 81.646414,72.990385 77.215175,70.20686 72.945611,67.524898 53.119737,55.42759 34.044279,58.928533 c 0,0 0,0 0,0"
       style="fill:none;fill-opacity:1;stroke:#ffffff;stroke-width:1.60000002;stroke-miterlimit:4;stroke-dasharray:none;stroke-opacity:1"
       inkscape:connector-curvature="0" />
    <g
       style="stroke-width:2.26055169"
       transform="matrix(0.44236988,0,0,0.44236988,101.83691,9.8957281)"
       id="g4434">
      <path
         style="fill:#ffffff;fill-opacity:1;stroke:none;stroke-width:2.93871713;stroke-miterlimit:4;stroke-dasharray:none;stroke-opacity:1"
         d="m -99.35476,128.98867 c 0.733043,-0.1436 1.435312,-0.17565 2.267461,-0.0819 0,0 0.0015,-3.1e-4 0.0015,-3.1e-4 0.343277,0.0386 0.718564,0.13379 1.374621,0.49211 0.657493,0.3591 1.43447,0.95307 2.089531,1.67705 0.755256,0.83474 1.345064,1.83739 1.675874,2.86865 -4.323273,1.55453 -18.352697,5.98765 -45.670887,9.42219 -2.08016,-0.67029 -3.95201,-1.40524 -5.37154,-2.10617 -1.27209,-0.62813 -2.17329,-1.22459 -2.60536,-1.64847 -0.43097,-0.42281 -0.42243,-0.6016 -0.30591,-0.73733 0.38023,-0.44075 1.13501,-0.67907 2.41187,-0.85771 1.27591,-0.1785 2.98713,-0.24664 4.71183,-0.37866 0,0 -0.003,-5.9e-4 -0.003,-5.9e-4 9.14817,-0.69886 16.04926,-2.07057 19.26341,-2.73019 3.19941,-0.6566 9.87394,-2.0703 16.17697,-4.51239 0,0 0.001,8.8e-4 0.001,8.8e-4 1.17338,-0.45426 2.20139,-0.93733 3.2317,-1.22681 0.257256,-0.0723 0.50594,-0.13243 0.750459,-0.18032 0,0 10e-7,0 10e-7,0"
         id="path4422"
         inkscape:connector-curvature="0" />
      <path
         inkscape:connector-curvature="0"
         d="m -153.24866,110.84063 c 43.12102,-7.91403 87.938842,19.433 97.59041,25.49571 10.017044,6.2923 -2.816132,16.405 -29.966509,22.59497 -28.286911,6.44907 -59.457311,5.82088 -68.222861,-1.37187 -8.42881,-6.91643 -45.30022,-38.29489 0.59896,-46.71881 0,0 0,0 0,0"
         style="fill:#fcc21b;stroke-width:2.26055169"
         id="path4424" />
      <path
         d="m -106.03674,123.25476 c 1.35302,0.41812 2.80301,0.35503 3.24516,-0.14689 0.44067,-0.50025 -0.28551,-1.2365 -1.6173,-1.65818 -0.31937,-0.10121 -7.91877,-2.44566 -14.88961,-1.08756 -7.04848,1.37323 -5.91665,5.03452 -5.86994,5.19208 0.21741,0.65289 1.55335,1.29816 2.96102,1.43126 0.48081,0.0457 0.89867,0.0278 1.25084,-0.0424 0.67448,-0.13445 1.05497,-0.46574 0.91135,-0.89816 -0.0386,-0.11143 -0.72574,-2.52028 4.02365,-3.45537 4.71108,-0.93285 9.75455,0.59842 9.98483,0.6652 0,0 0,0 0,0"
         style="fill:#2f2f2f;stroke-width:2.26055169"
         id="path4426"
         inkscape:connector-curvature="0" />
      <path
         d="m -156.01232,133.71249 c 0.48093,0.0491 0.91971,0.0286 1.27372,-0.0419 0.7229,-0.14407 1.13872,-0.49971 1.0392,-0.95199 -0.031,-0.1047 -0.48464,-2.6208 4.50188,-3.60256 5.03434,-0.99117 10.12562,0.66742 10.17765,0.68452 1.34143,0.44232 2.84868,0.38424 3.36497,-0.14235 0.51301,-0.51901 -0.15468,-1.30421 -1.49031,-1.74138 -0.3167,-0.10563 -7.85805,-2.55202 -15.16931,-1.12762 -7.37933,1.43766 -6.61721,5.2643 -6.57908,5.42756 0.15631,0.68727 1.45062,1.35724 2.88128,1.49575 0,0 0,0 0,0"
         style="fill:#2f2f2f;stroke-width:2.26055169"
         id="path4428"
         inkscape:connector-curvature="0" />
      <path
         inkscape:connector-curvature="0"
         d="m -147.4754,137.60909 c 1.14695,-1.4266 4.96096,-1.41293 8.02511,-1.62982 8.50587,-0.60075 14.91968,-1.86299 17.95321,-2.4816 3.02041,-0.61593 9.22339,-1.92595 15.01741,-4.21441 2.0595,-0.81278 4.00984,-1.9712 7.570528,-1.5375 4.52769,0.55099 8.620205,5.08728 8.346677,8.8813 -0.169323,2.33756 -1.744428,7.24044 -12.954395,9.66021 -11.39527,2.45977 -23.2241,0.32998 -28.60513,-0.89806 -8.82434,-2.01448 -16.81648,-5.95389 -15.35341,-7.78012 0,0 0,0 0,0"
         style="fill:#ec6c31;fill-opacity:1;stroke:none;stroke-width:11.30275822;stroke-miterlimit:4;stroke-dasharray:none;stroke-opacity:1"
         id="path4430" />
      <path
         inkscape:connector-curvature="0"
         style="vector-effect:none;fill:url(#linearGradient4436);fill-opacity:1;stroke:none;stroke-width:1.7632302;stroke-linejoin:round;stroke-miterlimit:4;stroke-dasharray:none"
         d="m -100.7846,128.89969 c 0.7005,-0.13677 1.376634,-0.16346 2.184135,-0.0648 0,0 0.0015,-3e-4 0.0015,-3e-4 0.333113,0.0406 0.698568,0.13661 1.348769,0.49566 0.651627,0.35983 1.429744,0.95279 2.096362,1.67343 0.180329,0.19495 0.350845,0.39973 0.513853,0.61087 -4.171049,2.52773 -11.327449,4.96079 -19.985709,6.76937 -8.76203,1.82607 -18.28982,2.85292 -26.49425,2.84588 -0.3943,-0.17645 -0.77031,-0.35176 -1.11578,-0.52498 -1.25512,-0.62932 -2.15174,-1.22464 -2.58843,-1.64617 -0.43483,-0.41975 -0.43716,-0.59664 -0.33228,-0.72966 0.34392,-0.43269 1.05957,-0.66213 2.28028,-0.82916 1.21877,-0.16677 2.86092,-0.22221 4.51406,-0.33979 8.77464,-0.62298 15.35475,-1.9282 18.41999,-2.5564 3.05183,-0.62546 9.4197,-1.97326 15.38162,-4.34189 1.11023,-0.44073 2.08018,-0.91018 3.06043,-1.18907 0.24477,-0.0696 0.48186,-0.12733 0.7155,-0.17296 0,0 0,0 0,0"
         id="path4432" />
    </g>
  </g>
  <path
     d="M 125.71,71.96 C 125.43,65.71 123.32,61.65 119.5,58.13 109.96,49.32 98.46,40.91 87.86,33.38 82.95,29.89 77.49,25.28 71.8,23.15 63.78,20.14 54.72,21.21 46.12,22.43 c -3.75,0.53 -7.52,1.13 -11.21,2 -4.28,1.01 -9.37,2.23 -13,4.8 -3.26,2.31 -2.86,5.21 -1.26,7.88 0.24,1.23 0.01,2.4 0.02,3.65 0.02,2.36 -0.25,4.72 -0.82,7 -0.36,1.41 -0.85,2.77 -1.31,4.15 -1.82,5.34 3.23,9.81 6.98,12.91 2.1,1.73 4.34,3.29 6.45,5.01 8.19,6.67 16.6,12.7 24.98,19.05 9.83,7.45 13.58,10.04 25.85,5.85 3.31,-1.13 6.7,-2.03 10.09,-2.9 4.8,-1.23 11.17,-2.4 15.85,-4.04 4.73,-1.66 10.84,-3.86 14.31,-7.65 1.73,-1.89 2.48,-4.6 2.5,-7.12 0.12,-0.31 0.18,-0.66 0.16,-1.06 z"
     style="fill:#ffffff"
     id="path14"
     inkscape:connector-curvature="0" />
  <path
     d="m 29.1,31.65 c 4.72,-1.99 23.26,-4.87 27.36,-5.34 3.47,-0.4 7.83,-0.96 11.28,-0.45 1.39,0.23 5.85,2.56 10.48,5.71 9.47,6.44 34.45,25.17 36.02,26.62 0.42,0.39 3.86,3.66 2.13,3.64 -1.75,-0.02 -3.49,0.1 -5.23,0.3 -2.95,0.35 -20.23,4.46 -28.07,6.38 -1.55,0.38 -5.75,1.16 -6.91,1.39 -3.28,0.67 -5.97,-0.38 -8.66,-2.26 -5.59,-3.9 -40.37,-30.7 -41.28,-32.59 -0.65,-1.34 0.68,-2.47 2.88,-3.4 z"
     style="fill:#bdcf46"
     id="path16"
     inkscape:connector-curvature="0" />
  <path
     style="color:#000000;font-style:normal;font-variant:normal;font-weight:normal;font-stretch:normal;font-size:medium;line-height:normal;font-family:sans-serif;font-variant-ligatures:normal;font-variant-position:normal;font-variant-caps:normal;font-variant-numeric:normal;font-variant-alternates:normal;font-variant-east-asian:normal;font-feature-settings:normal;text-indent:0;text-align:start;text-decoration:none;text-decoration-line:none;text-decoration-style:solid;text-decoration-color:#000000;letter-spacing:normal;word-spacing:normal;text-transform:none;writing-mode:lr-tb;direction:ltr;text-orientation:mixed;dominant-baseline:auto;baseline-shift:baseline;text-anchor:start;white-space:normal;shape-padding:0;clip-rule:nonzero;display:inline;overflow:visible;visibility:visible;isolation:auto;mix-blend-mode:normal;color-interpolation:sRGB;color-interpolation-filters:linearRGB;solid-color:#000000;solid-opacity:1;vector-effect:none;fill:#173479;fill-opacity:1;fill-rule:nonzero;stroke:none;stroke-width:3;stroke-linecap:round;stroke-linejoin:round;stroke-miterlimit:4;stroke-dasharray:none;stroke-dashoffset:0;stroke-opacity:1;color-rendering:auto;image-rendering:auto;shape-rendering:auto;text-rendering:auto;enable-background:accumulate"
     d="M 62.71875 24.402344 C 60.680572 24.394544 58.583746 24.57222 56.410156 24.820312 C 45.674725 26.048945 35.49324 26.419782 25.515625 29.839844 C 24.149122 30.309872 22.890943 30.850554 21.978516 31.564453 C 21.066576 32.277971 20.464282 33.098731 20.205078 34.464844 C 20.098446 35.034916 20.667958 37.485026 21.128906 38.625 C 21.324974 39.107624 21.275884 39.297131 21.271484 39.523438 C 21.267124 39.749743 21.245614 39.968592 21.214844 40.212891 C 21.153304 40.701489 21.050399 41.280398 20.916016 41.943359 C 20.64725 43.269281 20.253545 44.920926 19.833984 46.585938 C 18.995271 49.914346 18.10975 53.117045 17.779297 54.082031 L 17.779297 54.085938 C 16.791201 56.999485 18.170552 59.577466 20.460938 62.101562 A 1.50015 1.50015 0 0 0 20.462891 62.103516 C 20.369053 61.999874 20.637617 62.265453 20.974609 62.548828 C 21.311602 62.832204 21.780823 63.217959 22.357422 63.683594 C 23.51062 64.614863 25.096761 65.872767 26.964844 67.34375 C 30.701009 70.285717 35.572561 74.080887 40.431641 77.851562 C 45.290721 81.62224 50.136631 85.368396 53.828125 88.214844 C 55.673872 89.638068 57.231204 90.835765 58.355469 91.699219 C 59.479774 92.562666 60.260019 93.15495 60.261719 93.15625 A 1.50015 1.50015 0 0 1 60.267578 93.160156 C 63.828248 95.771314 66.534847 97.471575 69.291016 98.257812 A 1.50015 1.50015 0 0 0 69.292969 98.257812 C 72.772132 99.25186 76.559901 98.924572 82.824219 96.791016 C 83.627717 96.515888 85.332703 96.056706 87.814453 95.380859 C 90.296204 94.705013 93.476441 93.840709 96.933594 92.863281 C 103.8479 90.908425 111.88029 88.491864 117.5293 86.263672 L 117.5293 86.265625 C 121.2013 84.813684 123.26362 82.876045 124.06445 82.005859 C 124.973 81.016191 125.59996 79.700854 125.95312 78.261719 C 126.16338 77.393072 126.2703 76.474975 126.2793 75.585938 A 1.50015 1.50015 0 0 1 126.28906 75.453125 C 126.28907 75.452625 126.28906 75.449738 126.28906 75.449219 C 126.28906 75.427916 126.29011 75.368782 126.28711 75.289062 C 126.28101 75.125739 126.26569 74.877576 126.24219 74.578125 C 126.19513 73.979224 126.11434 73.171684 126.00781 72.316406 C 125.79475 70.605851 125.42029 68.602881 125.1582 67.914062 A 1.50015 1.50015 0 0 0 125.1582 67.912109 C 124.26383 65.551968 121.92276 63.399482 119.59375 61.251953 A 1.50015 1.50015 0 0 0 119.5918 61.251953 C 109.11697 51.580595 98.064572 43.626695 86.414062 35.236328 C 83.41955 33.080279 80.524634 31.020341 77.458984 29.068359 C 76.05363 28.179813 74.192357 27.357897 72.5 26.511719 C 69.978256 25.255794 67.405344 24.668167 64.738281 24.476562 C 64.071366 24.428651 63.398143 24.404944 62.71875 24.402344 z M 65.025391 26.130859 C 66.026916 26.147282 67.012686 26.215578 67.958984 26.355469 A 1.50015 1.50015 0 0 1 67.984375 26.359375 C 69.229303 26.56537 70.555296 27.245362 72.476562 28.279297 C 74.397829 29.313231 76.706464 30.706299 79.064453 32.310547 C 83.851474 35.565923 92.455358 41.85303 100.08789 47.527344 C 103.90413 50.3645 107.47288 53.046338 110.18945 55.111328 C 111.54774 56.143823 112.69122 57.021865 113.55078 57.691406 C 114.41034 58.360947 114.92455 58.760568 115.25781 59.068359 A 1.50015 1.50015 0 0 0 115.25977 59.070312 C 115.50523 59.298248 116.48288 60.215111 117.2793 61.203125 C 117.6775 61.697132 118.0538 62.118004 118.27148 62.904297 C 118.38033 63.297443 118.44911 64.006141 117.96289 64.613281 C 117.47667 65.220417 116.80312 65.315747 116.35352 65.310547 C 114.67772 65.291395 113.00407 65.396397 111.32031 65.599609 A 1.50015 1.50015 0 0 1 111.31641 65.599609 C 110.18495 65.73385 104.93737 66.865301 99.277344 68.175781 C 93.617316 69.486262 87.340529 70.993545 83.425781 71.947266 C 81.721416 72.364968 77.544436 73.126245 76.464844 73.349609 A 1.50015 1.50015 0 0 1 76.460938 73.349609 C 72.722294 74.113296 69.503279 72.848636 66.644531 70.861328 A 1.50015 1.50015 0 0 0 66.642578 70.859375 C 63.722506 68.822116 53.699726 61.195687 44.181641 53.763672 C 39.422598 50.047664 34.809591 46.39468 31.318359 43.542969 C 29.572744 42.117113 28.108756 40.892112 27.035156 39.949219 C 26.498356 39.477772 26.061547 39.079387 25.720703 38.744141 C 25.379859 38.408895 25.180786 38.338669 24.869141 37.691406 C 24.299697 36.508715 24.705078 35.00701 25.492188 34.158203 C 26.279297 33.309396 27.314788 32.755673 28.515625 32.248047 A 1.50015 1.50015 0 0 0 28.517578 32.248047 C 31.287553 31.080197 36.981472 29.949419 42.748047 28.917969 C 48.51381 27.886663 54.148941 27.050696 56.283203 26.800781 C 58.013286 26.596362 59.986829 26.344742 62 26.214844 C 63.006586 26.149895 64.023865 26.114437 65.025391 26.130859 z M 23.761719 40.541016 A 1.50015 1.50015 0 0 1 24.736328 40.869141 C 26.805384 42.524386 37.943478 51.069379 48.792969 59.224609 C 54.217714 63.302224 59.585904 67.294864 63.742188 70.304688 C 65.820329 71.809599 67.598143 73.069734 68.916016 73.964844 C 69.574935 74.412402 70.119376 74.768983 70.515625 75.011719 C 70.911874 75.254449 71.306063 75.396479 71.033203 75.318359 A 1.50015 1.50015 0 0 1 72.048828 76.300781 C 73.697818 81.428608 73.725571 87.154633 71.880859 92.259766 A 1.50015 1.50015 0 0 0 71.878906 92.261719 C 71.660109 92.86341 71.464094 93.54905 71.130859 94.298828 A 1.50015 1.50015 0 0 1 69.236328 95.095703 C 68.003604 94.636233 66.840063 94.006061 65.636719 93.269531 A 1.50015 1.50015 0 0 1 65.628906 93.263672 C 65.246123 93.025725 64.556995 92.538413 63.378906 91.703125 C 62.200818 90.867837 60.620291 89.736858 58.765625 88.402344 C 55.056294 85.733315 50.252406 82.251406 45.404297 78.701172 C 40.556188 75.150938 35.665033 71.532877 31.775391 68.59375 C 27.885748 65.654623 25.143825 63.5543 24.054688 62.455078 C 23.565348 61.960694 18.506615 58.692752 19.953125 54.255859 C 21.012892 51.000861 22.084934 45.432079 22.302734 41.947266 A 1.50015 1.50015 0 0 1 23.761719 40.541016 z M 115.84961 66.880859 A 1.50015 1.50015 0 0 0 115.85156 66.880859 C 118.41715 66.831757 120.26072 67.984827 121.15234 68.720703 C 123.60418 70.732804 124.02686 74.058726 123.47852 76.705078 C 122.93933 79.305131 121.30572 81.265482 119.33008 82.671875 C 115.3059 85.533516 109.71452 86.529893 106.30859 87.546875 A 1.50015 1.50015 0 0 0 106.30664 87.548828 C 98.659952 89.816743 90.951937 91.871256 83.242188 93.84375 C 80.980688 94.423874 78.631109 95.128214 76.166016 95.539062 A 1.50015 1.50015 0 0 1 74.552734 93.441406 C 74.950663 92.562261 75.279538 91.666814 75.525391 90.732422 C 75.525703 90.731222 75.525079 90.729716 75.525391 90.728516 C 76.163495 88.20166 76.29159 85.460402 76.017578 82.824219 C 75.840588 81.234631 75.738735 78.613412 75.492188 77.605469 A 1.50015 1.50015 0 0 1 76.837891 75.753906 C 76.626907 75.769686 76.758358 75.763457 76.835938 75.748047 C 76.913517 75.732637 77.0334 75.708441 77.183594 75.675781 C 77.483981 75.610462 77.910585 75.513281 78.435547 75.392578 C 79.48547 75.151172 80.931439 74.810729 82.597656 74.412109 C 85.93009 73.61487 90.145059 72.583994 93.859375 71.636719 C 101.38721 69.72 110.0897 67.000631 115.84961 66.880859 z "
     id="path4481" />
  <path
     style="fill:#3666d9;opacity:1;vector-effect:none;fill-opacity:1;stroke-width:1;stroke-linecap:butt;stroke-linejoin:miter;stroke-miterlimit:4;stroke-dasharray:none;stroke-dashoffset:0;stroke-opacity:1"
     d="m 65.025391,26.130859 c -1.001526,-0.01642 -2.018805,0.01904 -3.025391,0.08398 -2.013171,0.129898 -3.986714,0.381518 -5.716797,0.585937 -2.134262,0.249915 -7.769393,1.085882 -13.535156,2.117188 -5.766575,1.03145 -11.460494,2.162228 -14.230469,3.330078 a 1.50015,1.50015 0 0 0 -0.002,0 c -1.200837,0.507626 -2.236328,1.061349 -3.023437,1.910156 -0.787111,0.848807 -1.192491,2.350512 -0.623047,3.533203 0.311645,0.647263 0.510718,0.717489 0.851562,1.052735 0.340844,0.335246 0.777653,0.733631 1.314453,1.205078 1.0736,0.942893 2.537588,2.167894 4.283203,3.59375 3.491232,2.851711 8.104239,6.504695 12.863282,10.220703 9.518085,7.432015 19.540865,15.058444 22.460937,17.095703 a 1.50015,1.50015 0 0 0 0.002,0.002 c 2.858748,1.987308 6.077763,3.251968 9.816407,2.488281 a 1.50015,1.50015 0 0 0 0.0039,0 c 1.079592,-0.223364 5.256572,-0.984641 6.960937,-1.402343 3.914748,-0.953721 10.191535,-2.461004 15.851563,-3.771485 5.660026,-1.31048 10.907606,-2.441931 12.039066,-2.576172 a 1.50015,1.50015 0 0 0 0.004,0 c 1.68376,-0.203212 3.35741,-0.308214 5.03321,-0.289062 0.4496,0.0052 1.12315,-0.09013 1.60937,-0.697266 0.48622,-0.60714 0.41744,-1.315838 0.30859,-1.708984 -0.21768,-0.786293 -0.59398,-1.207165 -0.99218,-1.701172 -0.79642,-0.988014 -1.77407,-1.904877 -2.01953,-2.132813 a 1.50015,1.50015 0 0 0 -0.002,-0.002 c -0.33326,-0.307791 -0.84747,-0.707412 -1.70703,-1.376953 -0.85956,-0.669541 -2.00304,-1.547583 -3.36133,-2.580078 -2.71657,-2.06499 -6.28532,-4.746828 -10.10156,-7.583984 C 92.455359,41.85303 83.851474,35.565923 79.064453,32.310547 76.706464,30.706299 74.39783,29.313231 72.476562,28.279297 70.555296,27.245362 69.229303,26.56537 67.984375,26.359375 a 1.50015,1.50015 0 0 0 -0.02539,-0.0039 c -0.946298,-0.139891 -1.932068,-0.208187 -2.933593,-0.22461 z"
     id="path4553" />
  <path
     d="M 115.93,54.96 C 115.65,48.71 113.55,44.65 109.72,41.13 100.18,32.32 88.68,23.91 78.09,16.38 73.18,12.89 67.72,8.28 62.03,6.15 54.01,3.14 44.94,4.21 36.36,5.43 c -3.76,0.53 -7.53,1.13 -11.22,2 -4.28,1.02 -9.37,2.23 -13,4.8 -3.26,2.31 -2.86,5.21 -1.26,7.88 0.23,1.23 0.01,2.4 0.02,3.65 0.02,2.36 -0.25,4.72 -0.83,7 -0.35,1.41 -0.84,2.77 -1.31,4.15 -1.82,5.34 3.23,9.81 6.98,12.91 2.1,1.73 4.34,3.29 6.45,5.01 8.19,6.67 16.6,12.7 24.98,19.05 9.83,7.45 13.59,10.04 25.86,5.85 3.31,-1.13 6.69,-2.03 10.09,-2.9 4.8,-1.23 11.17,-2.4 15.84,-4.04 4.74,-1.66 10.84,-3.86 14.32,-7.65 1.73,-1.89 2.48,-4.6 2.5,-7.12 0.11,-0.31 0.17,-0.66 0.15,-1.06 z"
     style="fill:#ffffff"
     id="path26"
     inkscape:connector-curvature="0" />
  <path
     d="m 19.32,14.65 c 4.72,-1.99 23.27,-4.87 27.36,-5.34 3.47,-0.4 7.84,-0.96 11.28,-0.45 1.38,0.23 5.85,2.56 10.48,5.71 9.47,6.44 34.45,25.17 36.02,26.62 0.42,0.39 3.85,3.66 2.12,3.64 -1.75,-0.02 -3.49,0.1 -5.23,0.3 -2.96,0.35 -20.23,4.46 -28.07,6.38 -1.55,0.38 -5.75,1.16 -6.91,1.39 -3.28,0.67 -5.97,-0.38 -8.66,-2.26 -5.59,-3.9 -40.37,-30.7 -41.28,-32.59 -0.63,-1.35 0.69,-2.48 2.89,-3.4 z"
     style="fill:#bdcf46"
     id="path28"
     inkscape:connector-curvature="0" />
  <path
     style="color:#000000;font-style:normal;font-variant:normal;font-weight:normal;font-stretch:normal;font-size:medium;line-height:normal;font-family:sans-serif;font-variant-ligatures:normal;font-variant-position:normal;font-variant-caps:normal;font-variant-numeric:normal;font-variant-alternates:normal;font-variant-east-asian:normal;font-feature-settings:normal;text-indent:0;text-align:start;text-decoration:none;text-decoration-line:none;text-decoration-style:solid;text-decoration-color:#000000;letter-spacing:normal;word-spacing:normal;text-transform:none;writing-mode:lr-tb;direction:ltr;text-orientation:mixed;dominant-baseline:auto;baseline-shift:baseline;text-anchor:start;white-space:normal;shape-padding:0;clip-rule:nonzero;display:inline;overflow:visible;visibility:visible;isolation:auto;mix-blend-mode:normal;color-interpolation:sRGB;color-interpolation-filters:linearRGB;solid-color:#000000;solid-opacity:1;vector-effect:none;fill:#7a1717;fill-opacity:1;fill-rule:nonzero;stroke:none;stroke-width:3;stroke-linecap:round;stroke-linejoin:round;stroke-miterlimit:4;stroke-dasharray:none;stroke-dashoffset:0;stroke-opacity:1;color-rendering:auto;image-rendering:auto;shape-rendering:auto;text-rendering:auto;enable-background:accumulate"
     d="M 52.943359 5.4023438 C 50.905606 5.3945491 48.810279 5.5722463 46.640625 5.8203125 C 35.895469 7.0489058 25.724686 7.4194398 15.736328 10.839844 C 14.369825 11.309872 13.111646 11.850554 12.199219 12.564453 C 11.286645 13.278467 10.682734 14.098976 10.423828 15.466797 L 10.423828 15.46875 C 10.318491 16.041733 10.889046 18.48621 11.349609 19.625 L 11.349609 19.626953 C 11.544428 20.107827 11.496688 20.297524 11.492188 20.523438 C 11.487717 20.749831 11.464514 20.970523 11.433594 21.214844 C 11.371758 21.703485 11.269543 22.282314 11.134766 22.945312 C 10.86521 24.271313 10.470913 25.920527 10.050781 27.585938 C 9.2105173 30.916759 8.3147282 34.151519 8.0039062 35.083984 A 1.50015 1.50015 0 0 1 8 35.091797 C 7.0093339 38.006954 8.3901868 40.585773 10.679688 43.099609 A 1.50015 1.50015 0 0 1 10.681641 43.103516 C 10.587803 42.999874 10.858321 43.265453 11.195312 43.548828 C 11.532306 43.832204 12.001526 44.217959 12.578125 44.683594 C 13.731323 45.614863 15.315511 46.872767 17.183594 48.34375 C 20.919759 51.285717 25.791311 55.080886 30.650391 58.851562 C 35.509471 62.622239 40.357334 66.368396 44.048828 69.214844 C 45.894575 70.638068 47.451907 71.835812 48.576172 72.699219 C 49.700478 73.562666 50.480722 74.15495 50.482422 74.15625 A 1.50015 1.50015 0 0 1 50.488281 74.162109 C 54.046508 76.78136 56.752422 78.470737 59.511719 79.257812 A 1.50015 1.50015 0 0 1 59.515625 79.257812 C 62.990748 80.259732 66.779279 79.925025 73.044922 77.791016 C 73.847956 77.517113 75.556974 77.056826 78.039062 76.380859 C 80.521151 75.704892 83.701762 74.841308 87.158203 73.863281 C 94.071086 71.907228 102.09943 69.488803 107.74805 67.255859 C 111.42384 65.802419 113.49073 63.867848 114.28125 63 A 1.50015 1.50015 0 0 1 114.28516 62.996094 C 115.1928 62.007414 115.81852 60.693306 116.17188 59.255859 C 116.38048 58.395383 116.4818 57.4712 116.5 56.560547 A 1.50015 1.50015 0 0 1 116.50977 56.439453 C 116.50977 56.419349 116.50886 56.367146 116.50586 56.291016 C 116.49976 56.130743 116.48444 55.883448 116.46094 55.585938 C 116.41388 54.990915 116.33506 54.186212 116.22852 53.332031 C 116.01543 51.62367 115.64086 49.618848 115.37695 48.921875 C 114.48157 46.569981 112.14921 44.417134 109.8125 42.261719 C 99.338048 32.590708 88.284216 24.647106 76.632812 16.246094 A 1.50015 1.50015 0 0 0 76.630859 16.246094 C 73.648134 14.091349 70.743552 12.030736 67.673828 10.066406 C 66.284127 9.1820516 64.413288 8.3589879 62.71875 7.5117188 C 60.202819 6.2563826 57.6299 5.6681896 54.962891 5.4765625 C 54.295988 5.4286449 53.62261 5.404942 52.943359 5.4023438 z M 55.248047 7.1542969 C 56.249352 7.170339 57.234721 7.2368584 58.179688 7.3769531 A 1.50015 1.50015 0 0 1 58.207031 7.3808594 C 59.448183 7.587718 60.769094 8.2650227 62.691406 9.2988281 C 64.613719 10.332634 66.924798 11.725548 69.283203 13.330078 C 74.070224 16.585455 82.674157 22.872562 90.306641 28.546875 C 94.122882 31.384032 97.691693 34.065961 100.4082 36.130859 C 101.76649 37.163355 102.91193 38.041396 103.77148 38.710938 C 104.63104 39.380479 105.14525 39.780099 105.47852 40.087891 A 1.50015 1.50015 0 0 0 105.48047 40.089844 C 105.73029 40.321818 106.70205 41.235986 107.49609 42.224609 C 107.89312 42.718921 108.26874 43.140281 108.48438 43.927734 C 108.59218 44.321461 108.65811 45.029949 108.17188 45.634766 C 107.68564 46.239578 107.01211 46.335278 106.5625 46.330078 C 104.89242 46.310991 103.2164 46.426275 101.52148 46.621094 C 100.38117 46.756278 95.138985 47.88464 89.482422 49.193359 C 83.823916 50.502529 77.549742 52.008506 73.636719 52.966797 C 71.941059 53.382507 67.792601 54.146671 66.669922 54.369141 C 62.931278 55.132827 59.711477 53.867891 56.851562 51.869141 L 56.851562 51.871094 C 53.931491 49.833834 43.910663 42.205452 34.392578 34.773438 C 29.633535 31.057429 25.020529 27.404446 21.529297 24.552734 C 19.783681 23.126879 18.319694 21.903831 17.246094 20.960938 C 16.709294 20.48949 16.27053 20.089152 15.929688 19.753906 C 15.588844 19.41866 15.38977 19.348435 15.078125 18.701172 A 1.50015 1.50015 0 0 1 15.070312 18.683594 C 14.517719 17.499463 14.928176 16.014431 15.714844 15.167969 C 16.501511 14.321507 17.539033 13.768762 18.742188 13.265625 C 21.513207 12.098589 27.207526 10.965817 32.972656 9.9335938 C 38.740641 8.9008594 44.373112 8.0656205 46.507812 7.8203125 C 48.234867 7.6212286 50.208964 7.369471 52.222656 7.2382812 C 53.229502 7.1726864 54.246741 7.1382548 55.248047 7.1542969 z M 13.996094 21.560547 A 1.50015 1.50015 0 0 1 14.970703 21.890625 C 17.02525 23.542883 28.166284 32.094179 39.015625 40.248047 C 44.440296 44.324981 49.809368 48.317199 53.966797 51.326172 C 56.045511 52.830658 57.821982 54.089589 59.140625 54.984375 C 59.799946 55.431768 60.347416 55.788611 60.744141 56.03125 C 61.140773 56.273851 61.533428 56.415361 61.261719 56.337891 A 1.50015 1.50015 0 0 1 62.277344 57.320312 C 63.926334 62.448141 63.95535 68.175118 62.111328 73.289062 A 1.50015 1.50015 0 0 1 62.109375 73.292969 C 61.888915 73.899234 61.690591 74.572176 61.363281 75.320312 A 1.50015 1.50015 0 0 1 59.470703 76.126953 C 58.223298 75.6662 57.067257 75.033354 55.867188 74.298828 A 1.50015 1.50015 0 0 1 55.853516 74.291016 C 55.479721 74.056636 54.787512 73.564858 53.609375 72.728516 C 52.431238 71.892173 50.849202 70.761338 48.994141 69.425781 C 45.284017 66.754667 40.480149 63.268231 35.630859 59.716797 C 30.78157 56.165363 25.888502 52.548092 21.998047 49.609375 C 18.107592 46.670658 15.362804 44.570689 14.275391 43.476562 A 1.50015 1.50015 0 0 0 14.273438 43.474609 C 13.780581 42.976673 8.7267543 39.705647 10.173828 35.275391 C 11.23333 32.021206 12.305699 26.441815 12.533203 22.962891 A 1.50015 1.50015 0 0 1 13.996094 21.560547 z M 106.06836 47.880859 A 1.50015 1.50015 0 0 1 106.07227 47.880859 C 108.63164 47.831876 110.47331 48.969882 111.38086 49.720703 C 113.83418 51.73403 114.24612 55.061296 113.69922 57.703125 L 113.69922 57.705078 C 113.16046 60.312257 111.52917 62.284035 109.55859 63.683594 C 105.52708 66.542508 99.944982 67.539665 96.523438 68.548828 C 88.879092 70.815979 81.171842 72.880974 73.460938 74.84375 A 1.50015 1.50015 0 0 0 73.458984 74.84375 C 71.213697 75.412425 68.85523 76.127645 66.386719 76.539062 A 1.50015 1.50015 0 0 1 64.773438 74.441406 C 65.176929 73.549968 65.513486 72.653907 65.746094 71.732422 A 1.50015 1.50015 0 0 0 65.746094 71.730469 C 66.383754 69.216795 66.510888 66.467767 66.228516 63.835938 C 66.049929 62.239816 65.957988 59.597718 65.712891 58.595703 A 1.50015 1.50015 0 0 1 67.058594 56.744141 C 66.847611 56.759921 66.979041 56.753691 67.056641 56.738281 C 67.134237 56.722871 67.252133 56.696712 67.402344 56.664062 C 67.702766 56.598754 68.129293 56.503448 68.654297 56.382812 C 69.704305 56.141543 71.152016 55.802323 72.818359 55.404297 C 76.1505 54.608375 80.365442 53.579076 84.080078 52.636719 C 91.608221 50.719922 100.31767 48.000665 106.06836 47.880859 z "
     id="path4489" />
  <path
     style="fill:#d93636;opacity:1;vector-effect:none;fill-opacity:1;stroke-width:1;stroke-linecap:butt;stroke-linejoin:miter;stroke-miterlimit:4;stroke-dasharray:none;stroke-dashoffset:0;stroke-opacity:1"
     d="m 55.248047,7.1542969 c -1.001306,-0.016042 -2.018545,0.018389 -3.025391,0.083984 -2.013692,0.1311899 -3.987788,0.3829474 -5.714844,0.5820313 -2.1347,0.245308 -7.767171,1.0805468 -13.535156,2.1132813 -5.76513,1.0322232 -11.459449,2.1649952 -14.230468,3.3320312 -1.203155,0.503137 -2.240677,1.055882 -3.027344,1.902344 -0.786668,0.846462 -1.197124,2.331494 -0.644532,3.515625 a 1.50015,1.50015 0 0 0 0.0078,0.01758 c 0.311645,0.647263 0.510718,0.717488 0.851563,1.052734 0.340842,0.335246 0.779606,0.735584 1.316406,1.207032 1.0736,0.942893 2.537587,2.165941 4.283203,3.591796 3.491232,2.851712 8.104238,6.504695 12.863281,10.220704 9.518085,7.432014 19.538913,15.060396 22.458984,17.097656 v -0.002 c 2.859916,1.99875 6.079716,3.263686 9.81836,2.5 1.122679,-0.22247 5.271137,-0.986634 6.966797,-1.402344 3.913023,-0.958291 10.187197,-2.464268 15.845703,-3.773438 5.656563,-1.308719 10.898748,-2.437081 12.039058,-2.572265 1.69492,-0.194819 3.37094,-0.310103 5.04102,-0.291016 0.44961,0.0052 1.12314,-0.0905 1.60938,-0.695312 0.48622,-0.604817 0.42029,-1.313305 0.3125,-1.707032 -0.21565,-0.787453 -0.59126,-1.208813 -0.98829,-1.703125 -0.79404,-0.988623 -1.7658,-1.902791 -2.01562,-2.134765 a 1.50015,1.50015 0 0 0 -0.002,-0.002 c -0.33327,-0.307792 -0.84748,-0.707412 -1.70704,-1.376953 -0.85955,-0.669542 -2.00499,-1.547583 -3.36328,-2.580079 C 97.691696,34.065961 94.122882,31.384032 90.306641,28.546875 82.674157,22.872562 74.070224,16.585455 69.283203,13.330078 66.924798,11.725548 64.613719,10.332634 62.691406,9.2988281 60.769094,8.2650227 59.448183,7.587718 58.207031,7.3808594 a 1.50015,1.50015 0 0 0 -0.02734,-0.00391 C 57.234721,7.2368584 56.249352,7.170339 55.248047,7.1542969 Z"
     id="path4542" />
  <path
     id="path4337"
     d="m 41.522794,16.271659 c -18.744798,3.437633 -3.686447,16.241947 -0.244209,19.06439 3.579763,2.935202 16.309053,3.192285 27.86117,0.560539 C 80.227722,33.370583 85.468495,29.243485 81.37763,26.67573 77.436022,24.201664 59.133021,13.042097 41.522794,16.271659 c 0,0 0,0 0,0"
     style="fill:none;fill-opacity:1;stroke:#ffffff;stroke-width:1.60000002;stroke-miterlimit:4;stroke-dasharray:none;stroke-opacity:1"
     inkscape:connector-curvature="0" />
  <g
     style="stroke-width:2.44957161"
     transform="matrix(0.40839039,0,0,0.40807892,104.10811,-28.960295)"
     id="g4314">
    <path
       style="fill:#ffffff;fill-opacity:1;stroke:none;stroke-width:3.18444324;stroke-miterlimit:4;stroke-dasharray:none;stroke-opacity:1"
       d="m -99.35476,128.98867 c 0.733043,-0.1436 1.435312,-0.17565 2.267461,-0.0819 0,0 0.0015,-3.1e-4 0.0015,-3.1e-4 0.343277,0.0386 0.718564,0.13379 1.374621,0.49211 0.657493,0.3591 1.43447,0.95307 2.089531,1.67705 0.755256,0.83474 1.345064,1.83739 1.675874,2.86865 -4.323273,1.55453 -18.352697,5.98765 -45.670887,9.42219 -2.08016,-0.67029 -3.95201,-1.40524 -5.37154,-2.10617 -1.27209,-0.62813 -2.17329,-1.22459 -2.60536,-1.64847 -0.43097,-0.42281 -0.42243,-0.6016 -0.30591,-0.73733 0.38023,-0.44075 1.13501,-0.67907 2.41187,-0.85771 1.27591,-0.1785 2.98713,-0.24664 4.71183,-0.37866 0,0 -0.003,-5.9e-4 -0.003,-5.9e-4 9.14817,-0.69886 16.04926,-2.07057 19.26341,-2.73019 3.19941,-0.6566 9.87394,-2.0703 16.17697,-4.51239 0,0 0.001,8.8e-4 0.001,8.8e-4 1.17338,-0.45426 2.20139,-0.93733 3.2317,-1.22681 0.257256,-0.0723 0.50594,-0.13243 0.750459,-0.18032 0,0 10e-7,0 10e-7,0"
       id="path4505"
       inkscape:connector-curvature="0" />
    <path
       inkscape:connector-curvature="0"
       d="m -153.24866,110.84063 c 43.12102,-7.91403 87.938842,19.433 97.59041,25.49571 10.017044,6.2923 -2.816132,16.405 -29.966509,22.59497 -28.286911,6.44907 -59.457311,5.82088 -68.222861,-1.37187 -8.42881,-6.91643 -45.30022,-38.29489 0.59896,-46.71881 0,0 0,0 0,0"
       style="fill:#fcc21b;stroke-width:2.44957161"
       id="path2-3" />
    <path
       d="m -106.03674,123.25476 c 1.35302,0.41812 2.80301,0.35503 3.24516,-0.14689 0.44067,-0.50025 -0.28551,-1.2365 -1.6173,-1.65818 -0.31937,-0.10121 -7.91877,-2.44566 -14.88961,-1.08756 -7.04848,1.37323 -5.91665,5.03452 -5.86994,5.19208 0.21741,0.65289 1.55335,1.29816 2.96102,1.43126 0.48081,0.0457 0.89867,0.0278 1.25084,-0.0424 0.67448,-0.13445 1.05497,-0.46574 0.91135,-0.89816 -0.0386,-0.11143 -0.72574,-2.52028 4.02365,-3.45537 4.71108,-0.93285 9.75455,0.59842 9.98483,0.6652 0,0 0,0 0,0"
       style="fill:#2f2f2f;stroke-width:2.44957161"
       id="path32"
       inkscape:connector-curvature="0" />
    <path
       d="m -156.01232,133.71249 c 0.48093,0.0491 0.91971,0.0286 1.27372,-0.0419 0.7229,-0.14407 1.13872,-0.49971 1.0392,-0.95199 -0.031,-0.1047 -0.48464,-2.6208 4.50188,-3.60256 5.03434,-0.99117 10.12562,0.66742 10.17765,0.68452 1.34143,0.44232 2.84868,0.38424 3.36497,-0.14235 0.51301,-0.51901 -0.15468,-1.30421 -1.49031,-1.74138 -0.3167,-0.10563 -7.85805,-2.55202 -15.16931,-1.12762 -7.37933,1.43766 -6.61721,5.2643 -6.57908,5.42756 0.15631,0.68727 1.45062,1.35724 2.88128,1.49575 0,0 0,0 0,0"
       style="fill:#2f2f2f;stroke-width:2.44957161"
       id="path34-3"
       inkscape:connector-curvature="0" />
    <path
       inkscape:connector-curvature="0"
       d="m -147.4754,137.60909 c 1.14695,-1.4266 4.96096,-1.41293 8.02511,-1.62982 8.50587,-0.60075 14.91968,-1.86299 17.95321,-2.4816 3.02041,-0.61593 9.22339,-1.92595 15.01741,-4.21441 2.0595,-0.81278 4.00984,-1.9712 7.570528,-1.5375 4.52769,0.55099 8.620205,5.08728 8.346677,8.8813 -0.169323,2.33756 -1.744428,7.24044 -12.954395,9.66021 -11.39527,2.45977 -23.2241,0.32998 -28.60513,-0.89806 -8.82434,-2.01448 -16.81648,-5.95389 -15.35341,-7.78012 0,0 0,0 0,0"
       style="fill:#ec6c31;fill-opacity:1;stroke:none;stroke-width:12.24785805;stroke-miterlimit:4;stroke-dasharray:none;stroke-opacity:1"
       id="path10-6" />
    <path
       inkscape:connector-curvature="0"
       style="vector-effect:none;fill:url(#linearGradient4367);fill-opacity:1;stroke:none;stroke-width:1.91066575;stroke-linejoin:round;stroke-miterlimit:4;stroke-dasharray:none"
       d="m -100.7846,128.89969 c 0.7005,-0.13677 1.376634,-0.16346 2.184135,-0.0648 0,0 0.0015,-3e-4 0.0015,-3e-4 0.333113,0.0406 0.698568,0.13661 1.348769,0.49566 0.651627,0.35983 1.429744,0.95279 2.096362,1.67343 0.180329,0.19495 0.350845,0.39973 0.513853,0.61087 -4.171049,2.52773 -11.327449,4.96079 -19.985709,6.76937 -8.76203,1.82607 -18.28982,2.85292 -26.49425,2.84588 -0.3943,-0.17645 -0.77031,-0.35176 -1.11578,-0.52498 -1.25512,-0.62932 -2.15174,-1.22464 -2.58843,-1.64617 -0.43483,-0.41975 -0.43716,-0.59664 -0.33228,-0.72966 0.34392,-0.43269 1.05957,-0.66213 2.28028,-0.82916 1.21877,-0.16677 2.86092,-0.22221 4.51406,-0.33979 8.77464,-0.62298 15.35475,-1.9282 18.41999,-2.5564 3.05183,-0.62546 9.4197,-1.97326 15.38162,-4.34189 1.11023,-0.44073 2.08018,-0.91018 3.06043,-1.18907 0.24477,-0.0696 0.48186,-0.12733 0.7155,-0.17296 0,0 0,0 0,0"
       id="path4314" />
  </g>
  <g
     transform="matrix(0.9231876,0,0,0.92248351,73.235563,-47.625303)"
     aria-label="Emojipedia The Book"
     style="font-style:normal;font-weight:normal;font-size:10.66666698px;line-height:89.80000019%;font-family:Sans;letter-spacing:0px;word-spacing:0px;fill:#ffffff;fill-opacity:1;stroke:none;stroke-width:0.21672335;stroke-linecap:butt;stroke-linejoin:miter;stroke-miterlimit:4;stroke-dasharray:none;stroke-opacity:1"
     id="text4436">
    <path
       inkscape:connector-curvature="0"
       d="m -18.74416,101.0184 c 0,0 -1.503782,-1.11851 -1.503782,-1.11851 0,0 2.974485,-0.742284 2.974485,-0.742284 0.271077,-0.06765 0.311313,-0.237803 0.104382,-0.389732 -0.206691,-0.151753 -0.564616,-0.215257 -0.835788,-0.148224 0,0 -2.975439,0.735511 -2.975439,0.735511 0,0 -1.331145,-0.990103 -1.331145,-0.990103 0,0 3.422622,-0.831477 3.422622,-0.831477 0.270547,-0.06573 0.304984,-0.238205 0.107782,-0.38275 -0.204279,-0.149729 -0.567276,-0.21849 -0.837911,-0.153369 0,0 -3.909014,0.940589 -3.909014,0.940589 -0.278052,0.06691 -0.336226,0.23949 -0.131554,0.39229 0,0 4.309137,3.217049 4.309137,3.217049 0.209988,0.15677 0.593538,0.22398 0.871028,0.1527 0,0 3.881056,-0.99693 3.881056,-0.99693 0.270012,-0.0694 0.307435,-0.24208 0.09794,-0.39565 -0.209255,-0.15339 -0.575775,-0.22233 -0.845898,-0.1536 0,0 -3.397883,0.86451 -3.397883,0.86451"
       style="font-style:normal;font-variant:normal;font-weight:bold;font-stretch:normal;font-size:10.66666698px;line-height:89.80000019%;font-family:'Comic Neue';-inkscape-font-specification:'Comic Neue Bold';fill:#ffffff;fill-opacity:1;stroke:none;stroke-width:0.21672335;stroke-miterlimit:4;stroke-dasharray:none;stroke-opacity:1"
       id="path4444" />
    <path
       inkscape:connector-curvature="0"
       d="m -11.603431,96.267804 c -0.435209,0.106474 -0.743128,0.386276 -0.812371,0.750064 -0.701468,-0.252554 -1.310793,-0.230684 -1.733402,-0.127304 -0.508678,0.124455 -0.699526,0.462793 -0.743947,0.845223 0,0 -0.249943,-0.181624 -0.249943,-0.181624 -0.183559,-0.133385 -0.551753,-0.207129 -0.808623,-0.144226 -0.238231,0.05834 -0.288948,0.235162 -0.105306,0.369065 0,0 2.994036,2.183112 2.994036,2.183112 0.194401,0.141746 0.57065,0.200076 0.808415,0.139006 0.246855,-0.0634 0.298365,-0.231148 0.104061,-0.372342 0,0 -1.532136,-1.113355 -1.532136,-1.113355 -0.162858,-0.118344 -0.195658,-0.160725 -0.207429,-0.215558 -0.128786,-0.600898 0.10001,-0.95774 0.401147,-1.032044 0.197294,-0.04868 0.526096,-0.06576 1.15199,0.385868 0,0 2.069757,1.49349 2.069757,1.49349 0.194084,0.14005 0.5660249,0.198043 0.7993917,0.138099 0.2516551,-0.06461 0.2902119,-0.227619 0.09623,-0.367126 0,0 -1.6553297,-1.190472 -1.6553297,-1.190472 -0.649092,-0.466812 -0.315185,-0.989586 0.08279,-1.087785 0.184746,-0.04559 0.527483,-0.06665 1.152451,0.380072 0,0 2.0665575,1.477154 2.0665575,1.477154 0.1937811,0.138511 0.5526244,0.198558 0.7912135,0.137272 0.2290637,-0.05882 0.2828856,-0.224435 0.08922,-0.362413 0,0 -2.0212197,-1.44004 -2.0212197,-1.44004 -1.1523333,-0.820992 -2.1285243,-0.81312 -2.7375563,-0.664136 0,0 -3e-6,10e-7 -3e-6,10e-7"
       style="font-style:normal;font-variant:normal;font-weight:bold;font-stretch:normal;font-size:10.66666698px;line-height:89.80000019%;font-family:'Comic Neue';-inkscape-font-specification:'Comic Neue Bold';fill:#ffffff;fill-opacity:1;stroke:none;stroke-width:0.21672335;stroke-miterlimit:4;stroke-dasharray:none;stroke-opacity:1"
       id="path4446" />
    <path
       inkscape:connector-curvature="0"
       d="m -3.2411944,97.785855 c 1.1310596,-0.290533 1.1817344,-1.167531 0.1053209,-1.91948 -0.9093266,-0.63523 -2.4952033,-0.990682 -3.538482,-0.735225 -1.1409,0.279335 -1.208435,1.154684 -0.1411032,1.911188 0.9473845,0.671488 2.5244268,1.013189 3.5742643,0.743517 0,0 0,0 0,0 m -2.818682,-2.18854 c 0.5536767,-0.136717 1.504024,0.107559 2.0843558,0.514266 0.6855155,0.480424 0.7069001,1.04746 0.073182,1.208863 -0.5826129,0.148362 -1.4673841,-0.09639 -2.0437474,-0.503585 -0.6995481,-0.494225 -0.759379,-1.060111 -0.1137906,-1.219544 0,0 0,0 0,0"
       style="font-style:normal;font-variant:normal;font-weight:bold;font-stretch:normal;font-size:10.66666698px;line-height:89.80000019%;font-family:'Comic Neue';-inkscape-font-specification:'Comic Neue Bold';fill:#ffffff;fill-opacity:1;stroke:none;stroke-width:0.21672335;stroke-miterlimit:4;stroke-dasharray:none;stroke-opacity:1"
       id="path4448" />
    <path
       inkscape:connector-curvature="0"
       d="m 0.11009457,96.847303 c -0.20072619,-0.08968 -0.43559416,-0.128287 -0.65437333,-0.07233 -0.25418796,0.06502 -0.25917479,0.228869 -0.073566,0.358285 0.0445959,0.03107 0.11414971,0.06283 0.1526615,0.0813 0.2412389,0.101136 1.58126246,0.615857 2.48739956,0.37942 C 2.974417,97.345517 2.2525972,96.691008 1.7631899,96.35295 1.6595416,96.28135 0.70716629,95.623501 -0.10374022,95.079627 -0.77118718,94.626677 -1.3939979,94.212642 -1.4522568,94.172393 -1.641471,94.041671 -2.0006198,93.979934 -2.2174425,94.03302 c -0.2519212,0.06168 -0.2644323,0.208018 -0.060531,0.349313 0.1093235,0.07576 0.9230749,0.623276 1.72418745,1.170171 0.73065027,0.498042 1.44313136,0.975227 1.53205458,1.036836 0.19281697,0.133587 0.64349827,0.462336 0.34829727,0.538695 -0.2609681,0.06751 -0.85189899,-0.127069 -1.21646403,-0.280733 0,0 -2.98e-6,0 -2.98e-6,0 M -2.6745564,93.263355 c -0.1561242,-0.12398 -0.5069955,-0.221087 -0.7759263,-0.156377 -0.1998507,0.04809 -0.2829333,0.169192 -0.1283478,0.300672 0,0 0.2764019,0.224052 0.2764019,0.224052 0.1637876,0.129769 0.5191473,0.213037 0.7623939,0.153755 0.1821683,-0.0444 0.3131171,-0.164415 0.1420218,-0.298775 0,0 -0.2765413,-0.223328 -0.2765413,-0.223328"
       style="font-style:normal;font-variant:normal;font-weight:bold;font-stretch:normal;font-size:10.66666698px;line-height:89.80000019%;font-family:'Comic Neue';-inkscape-font-specification:'Comic Neue Bold';fill:#ffffff;fill-opacity:1;stroke:none;stroke-width:0.21672335;stroke-miterlimit:4;stroke-dasharray:none;stroke-opacity:1"
       id="path4450" />
    <path
       inkscape:connector-curvature="0"
       d="m 0.74154849,93.67342 c -0.19620148,-0.134493 -0.53508153,-0.200089 -0.77431171,-0.141488 -0.23106394,0.0566 -0.25978878,0.212675 -0.06345385,0.347668 0,0 2.87548347,2.017432 2.87548347,2.017432 0.1996333,0.137281 0.5504902,0.200947 0.7809259,0.141755 0.2300885,-0.05908 0.2545441,-0.218724 0.055056,-0.355489 0,0 -2.87370031,-2.009878 -2.87370031,-2.009878 m -1.10068962,-0.365554 c 0.23075316,-0.05628 0.25661528,-0.197194 0.0698081,-0.333175 0,0 -0.26604226,-0.190285 -0.26604226,-0.190285 -0.16470494,-0.120781 -0.52559661,-0.194161 -0.74795231,-0.140617 -0.2141253,0.05156 -0.2513179,0.201155 -0.072155,0.332301 0,0 0.258917,0.185992 0.258917,0.185992 0.1796279,0.131484 0.53486197,0.200067 0.75741881,0.145786 0,0 0,0 0,0"
       style="font-style:normal;font-variant:normal;font-weight:bold;font-stretch:normal;font-size:10.66666698px;line-height:89.80000019%;font-family:'Comic Neue';-inkscape-font-specification:'Comic Neue Bold';fill:#ffffff;fill-opacity:1;stroke:none;stroke-width:0.21672335;stroke-miterlimit:4;stroke-dasharray:none;stroke-opacity:1"
       id="path4452" />
    <path
       inkscape:connector-curvature="0"
       d="M 3.5950426,92.616585 C 3.0605571,92.74744 2.7731661,92.931704 2.6291864,93.121437 2.4276033,93.023169 2.1456704,92.971479 1.951865,93.018934 c -0.2362918,0.05786 -0.2614843,0.205256 -0.058249,0.343974 0,0 4.2599422,2.907624 4.2599422,2.907624 0.185794,0.126812 0.5419908,0.195228 0.7604458,0.138156 0.209718,-0.0548 0.2314486,-0.221478 0.045795,-0.347825 0,0 -1.1322631,-0.770565 -1.1322631,-0.770565 0.292564,-0.01281 0.6275042,-0.04348 0.9195301,-0.118441 1.4758245,-0.378843 0.7147137,-1.229252 -0.110858,-1.78577 -0.7784466,-0.524752 -2.1189414,-0.995318 -3.0411658,-0.769502 0,0 0,0 0,0 m 2.4877475,2.057819 c -0.3171876,0.08066 -0.7621079,0.09078 -1.021058,0.09472 0,0 -1.5879724,-1.080701 -1.5879724,-1.080701 -0.016377,-0.151496 0.0554,-0.452474 0.7069874,-0.613403 0.557288,-0.137669 1.3463562,0.257849 1.7034837,0.499243 0.7016323,0.474253 0.9718153,0.903478 0.1985593,1.100138 0,0 0,0 0,0"
       style="font-style:normal;font-variant:normal;font-weight:bold;font-stretch:normal;font-size:10.66666698px;line-height:89.80000019%;font-family:'Comic Neue';-inkscape-font-specification:'Comic Neue Bold';fill:#ffffff;fill-opacity:1;stroke:none;stroke-width:0.21672335;stroke-miterlimit:4;stroke-dasharray:none;stroke-opacity:1"
       id="path4454" />
    <path
       inkscape:connector-curvature="0"
       d="m 11.444986,93.102459 c -0.0083,0.15653 -0.222722,0.338917 -0.488299,0.406531 -0.45992,0.1171 -0.9616636,0.102852 -1.4967941,-0.03814 0,0 1.0393251,-1.290335 1.0393251,-1.290335 0.08099,-0.09963 0.03777,-0.201252 -0.0853,-0.282919 -0.339834,-0.22551 -1.5201258,-0.571917 -2.58384,-0.311431 -1.1126008,0.272478 -0.9499186,1.048603 0.046588,1.717951 0.9137848,0.613784 2.532863,0.975281 3.761894,0.659581 0.498204,-0.127965 0.808558,-0.430598 0.795808,-0.703356 0.0046,-0.04821 -0.03591,-0.111712 -0.123595,-0.169883 -0.197141,-0.130788 -0.50265,-0.187172 -0.718412,-0.132544 -0.104006,0.02633 -0.140989,0.08259 -0.14738,0.144542 0,0 0,0 0,0 M 8.5609149,93.078647 C 7.953444,92.641779 7.8850344,92.19327 8.5088868,92.039116 c 0.3713421,-0.09178 0.6845253,-0.09653 0.9724097,-0.02243 0,0 -0.9203816,1.061965 -0.9203816,1.061965"
       style="font-style:normal;font-variant:normal;font-weight:bold;font-stretch:normal;font-size:10.66666698px;line-height:89.80000019%;font-family:'Comic Neue';-inkscape-font-specification:'Comic Neue Bold';fill:#ffffff;fill-opacity:1;stroke:none;stroke-width:0.21672335;stroke-miterlimit:4;stroke-dasharray:none;stroke-opacity:1"
       id="path4456" />
    <path
       inkscape:connector-curvature="0"
       d="m 12.783108,89.544819 c -0.184699,-0.127636 -0.542064,-0.194441 -0.736546,-0.147631 -0.21035,0.05063 -0.217388,0.192786 -0.03259,0.320859 0,0 1.02736,0.708219 1.02736,0.708219 -0.283085,0.01124 -0.621952,0.04253 -0.919682,0.115444 -1.244838,0.30489 -0.790689,1.036176 0.230824,1.711586 0.807991,0.534231 2.084273,0.964778 3.043012,0.718601 0.429993,-0.110439 0.63426,-0.289563 0.730461,-0.460604 0.183398,0.106035 0.476123,0.177435 0.70107,0.119653 0.209115,-0.05369 0.225538,-0.190847 0.04368,-0.316762 0,0 -4.087582,-2.769365 -4.087582,-2.769365 m 0.306373,2.503418 c -0.507355,-0.334545 -1.094379,-0.8575 -0.276866,-1.059547 0.289684,-0.07159 0.725178,-0.0752 0.968742,-0.07046 0,0 1.465983,0.988919 1.465983,0.988919 0.159797,0.104728 0.124246,0.471194 -0.509046,0.632411 -0.510315,0.129927 -1.234702,-0.21826 -1.648816,-0.491325 0,0 3e-6,0 3e-6,0"
       style="font-style:normal;font-variant:normal;font-weight:bold;font-stretch:normal;font-size:10.66666698px;line-height:89.80000019%;font-family:'Comic Neue';-inkscape-font-specification:'Comic Neue Bold';fill:#ffffff;fill-opacity:1;stroke:none;stroke-width:0.21672335;stroke-miterlimit:4;stroke-dasharray:none;stroke-opacity:1"
       id="path4458" />
    <path
       inkscape:connector-curvature="0"
       d="m 16.030028,89.91081 c -0.193339,-0.125468 -0.511337,-0.188269 -0.725762,-0.135744 -0.207087,0.05073 -0.218531,0.194614 -0.02503,0.320519 0,0 2.836594,1.880373 2.836594,1.880373 0.196576,0.127925 0.525236,0.189013 0.731544,0.136019 0.206,-0.05291 0.213421,-0.199928 0.01701,-0.327402 0,0 -2.834362,-1.873765 -2.834362,-1.873765 m -1.047446,-0.344774 c 0.206846,-0.05045 0.21712,-0.180407 0.03223,-0.307216 0,0 -0.263002,-0.177493 -0.263002,-0.177493 -0.163088,-0.11265 -0.502159,-0.18278 -0.701532,-0.13477 -0.19198,0.04623 -0.211767,0.18415 -0.03435,0.306437 0,0 0.256029,0.173449 0.256029,0.173449 0.177847,0.122586 0.511143,0.188247 0.710626,0.139594 0,0 0,0 0,0"
       style="font-style:normal;font-variant:normal;font-weight:bold;font-stretch:normal;font-size:10.66666698px;line-height:89.80000019%;font-family:'Comic Neue';-inkscape-font-specification:'Comic Neue Bold';fill:#ffffff;fill-opacity:1;stroke:none;stroke-width:0.21672335;stroke-miterlimit:4;stroke-dasharray:none;stroke-opacity:1"
       id="path4460" />
    <path
       inkscape:connector-curvature="0"
       d="m 19.840866,88.852908 c -0.197786,-0.0082 -0.982459,-0.04946 -1.520663,0.08218 -1.317144,0.322161 -0.498708,1.290504 0.243039,1.770244 0.947459,0.612789 2.212421,0.865424 3.037465,0.653637 0.298727,-0.07671 0.495096,-0.211846 0.631837,-0.344525 0.182117,0.08348 0.409705,0.122751 0.602516,0.07322 0.207314,-0.05327 0.181329,-0.202531 -0.0069,-0.322981 0,0 -2.98731,-1.911773 -2.98731,-1.911773 m 1.581131,1.661492 c -0.07061,0.12134 -0.225556,0.32269 -0.524581,0.398747 -0.524897,0.133522 -1.226357,-0.149922 -1.615995,-0.401276 -0.482365,-0.311174 -1.071303,-0.946511 -0.268202,-1.14473 0.157057,-0.03876 0.379526,-0.06191 0.556386,-0.06113 0,0 1.852392,1.208391 1.852392,1.208391"
       style="font-style:normal;font-variant:normal;font-weight:bold;font-stretch:normal;font-size:10.66666698px;line-height:89.80000019%;font-family:'Comic Neue';-inkscape-font-specification:'Comic Neue Bold';fill:#ffffff;fill-opacity:1;stroke:none;stroke-width:0.21672335;stroke-miterlimit:4;stroke-dasharray:none;stroke-opacity:1"
       id="path4462" />
    <path
       inkscape:connector-curvature="0"
       d="m -12.974905,102.24199 c 0,0 -4.054885,1.06794 -4.054885,1.06794 -0.258302,0.068 -0.327571,0.2477 -0.114544,0.40705 0.205657,0.15384 0.609826,0.2242 0.868039,0.15555 0,0 1.491,-0.39642 1.491,-0.39642 0,0 4.108709,3.05048 4.108709,3.05048 0.202835,0.15059 0.607704,0.22063 0.8716981,0.14643 0.2635151,-0.0741 0.2983964,-0.26711 0.095683,-0.41706 0,0 -4.1064551,-3.03765 -4.1064551,-3.03765 0,0 1.592661,-0.42345 1.592661,-0.42345 0.270221,-0.0719 0.29768,-0.25404 0.09256,-0.4046 -0.21247,-0.15595 -0.574111,-0.21948 -0.844463,-0.14827 0,0 0,0 0,0"
       style="font-style:normal;font-variant:normal;font-weight:bold;font-stretch:normal;font-size:10.66666698px;line-height:89.80000019%;font-family:'Comic Neue';-inkscape-font-specification:'Comic Neue Bold';fill:#ffffff;fill-opacity:1;stroke:none;stroke-width:0.21672335;stroke-miterlimit:4;stroke-dasharray:none;stroke-opacity:1"
       id="path4464" />
    <path
       inkscape:connector-curvature="0"
       d="m -3.0425428,104.422 c -0.1891885,-0.16444 -0.467964,-0.36554 -0.9393615,-0.70562 -1.6978705,-1.22484 -2.8641247,-1.7427 -3.8776249,-1.47114 -0.5566177,0.14914 -0.8006126,0.51853 -0.7941925,0.92136 0,0 -1.6387303,-1.19484 -1.6387303,-1.19484 -0.197174,-0.14376 -0.552414,-0.2231 -0.829089,-0.15017 -0.258063,0.068 -0.284734,0.24857 -0.08745,0.39291 0,0 4.4263395,3.23847 4.4263395,3.23847 0.1945615,0.14235 0.5931794,0.21177 0.8313223,0.14483 0.2472351,-0.0695 0.3159993,-0.23041 0.067095,-0.4119 0,0 -1.1545393,-0.8418 -1.1545393,-0.8418 -0.2084391,-0.15197 -0.3650367,-0.29474 -0.4336245,-0.43049 -0.082609,-0.19336 -0.3316361,-0.96144 0.2816535,-1.12726 0.216384,-0.0585 0.7065075,0.007 2.3753077,1.21463 0.4873338,0.35273 0.6778594,0.50941 0.8795832,0.65544 0.2019488,0.14618 0.5336769,0.21702 0.8046637,0.14085 0.2425265,-0.0682 0.2734069,-0.23264 0.088646,-0.37527 0,0 -3e-6,0 -3e-6,0"
       style="font-style:normal;font-variant:normal;font-weight:bold;font-stretch:normal;font-size:10.66666698px;line-height:89.80000019%;font-family:'Comic Neue';-inkscape-font-specification:'Comic Neue Bold';fill:#ffffff;fill-opacity:1;stroke:none;stroke-width:0.21672335;stroke-miterlimit:4;stroke-dasharray:none;stroke-opacity:1"
       id="path4466" />
    <path
       inkscape:connector-curvature="0"
       d="m 0.56731016,102.72415 c -0.0217485,0.18121 -0.27398337,0.39647 -0.57383521,0.48 -0.51939803,0.1447 -1.07470005,0.13824 -1.65682505,-0.0143 0,0 1.25654015,-1.51276 1.25654015,-1.51276 0.0977477,-0.1167 0.0580339,-0.23325 -0.0717376,-0.32517 -0.35830905,-0.25378 -1.63791355,-0.63069 -2.83813665,-0.30904 -1.2562408,0.33666 -1.1400715,1.23087 -0.089561,1.98558 0.9637246,0.69236 2.73088224,1.07851 4.11933841,0.68827 0.56251669,-0.15811 0.93053599,-0.51448 0.93803469,-0.82972 0.00896,-0.0558 -0.030934,-0.12847 -0.1234684,-0.19399 -0.208036,-0.14731 -0.54204417,-0.20644 -0.7854798,-0.13899 -0.11735189,0.0325 -0.1628365,0.0983 -0.17486953,0.17007 0,0 0,0 0,0 m -3.19588997,0.0298 c -0.6380281,-0.49331 -0.6770518,-1.01055 0.027308,-1.20101 0.4191841,-0.11333 0.7666511,-0.12501 1.0796956,-0.0451 0,0 -1.1070041,1.24607 -1.1070041,1.24607"
       style="font-style:normal;font-variant:normal;font-weight:bold;font-stretch:normal;font-size:10.66666698px;line-height:89.80000019%;font-family:'Comic Neue';-inkscape-font-specification:'Comic Neue Bold';fill:#ffffff;fill-opacity:1;stroke:none;stroke-width:0.21672335;stroke-miterlimit:4;stroke-dasharray:none;stroke-opacity:1"
       id="path4468" />
    <path
       inkscape:connector-curvature="0"
       d="m 7.1742922,101.91581 c 2.5735552,-0.72348 3.1819058,-1.4804 2.1433484,-2.192768 C 8.7321209,99.321418 8.0577313,99.127053 7.2365167,99.11762 7.2462282,98.911837 7.1066885,98.652922 6.6692955,98.35239 6.4284023,98.186874 5.122045,97.475756 3.3698655,97.937232 c 0,0 -1.4768319,0.388952 -1.4768319,0.388952 -0.2272158,0.05985 -0.2558511,0.233192 -0.060462,0.369351 0,0 4.4044881,3.069315 4.4044881,3.069315 0.3543612,0.24694 0.632859,0.23652 0.9372297,0.15096 0,0 0,0 0,0 m -2.0110232,-1.744 c 0,0 1.4513837,-0.396159 1.4513837,-0.396159 0.5233114,-0.142835 1.3521457,-0.171934 1.8621398,0.178963 0.5954479,0.409686 -0.3163822,0.922336 -1.7082786,1.332246 0,0 -1.6052473,-1.11506 -1.6052473,-1.11506 M 3.0890526,98.730994 c 0,0 1.0315055,-0.274277 1.0315055,-0.274277 1.0326294,-0.274579 1.6279577,0.07024 1.7259441,0.137773 0.339573,0.234045 0.3702658,0.55944 -0.067935,0.677911 0,0 -1.3749556,0.371726 -1.3749556,0.371726 0,0 -1.3145592,-0.913134 -1.3145592,-0.913134"
       style="font-style:normal;font-variant:normal;font-weight:bold;font-stretch:normal;font-size:10.66666698px;line-height:89.80000019%;font-family:'Comic Neue';-inkscape-font-specification:'Comic Neue Bold';fill:#ffffff;fill-opacity:1;stroke:none;stroke-width:0.21672335;stroke-miterlimit:4;stroke-dasharray:none;stroke-opacity:1"
       id="path4470" />
    <path
       inkscape:connector-curvature="0"
       d="m 13.63335,100.08533 c 1.048904,-0.294808 1.004345,-1.171146 -0.103076,-1.918042 -0.935601,-0.631012 -2.487441,-0.97966 -3.456233,-0.720057 -1.0593031,0.283853 -1.0305345,1.158667 0.06871,1.909999 0.975628,0.66684 2.517129,1.00171 3.490598,0.7281 0,0 0,0 0,0 M 10.71023,97.910498 c 0.513995,-0.13891 1.447235,0.101269 2.044454,0.505253 0.705429,0.477181 0.785997,1.043572 0.198184,1.207388 -0.54035,0.150591 -1.410894,-0.0903 -2.004316,-0.494697 -0.720296,-0.49086 -0.837624,-1.055982 -0.238322,-1.217944 0,0 0,0 0,0"
       style="font-style:normal;font-variant:normal;font-weight:bold;font-stretch:normal;font-size:10.66666698px;line-height:89.80000019%;font-family:'Comic Neue';-inkscape-font-specification:'Comic Neue Bold';fill:#ffffff;fill-opacity:1;stroke:none;stroke-width:0.21672335;stroke-miterlimit:4;stroke-dasharray:none;stroke-opacity:1"
       id="path4472" />
    <path
       inkscape:connector-curvature="0"
       d="m 18.203277,98.800885 c 1.014292,-0.285085 0.945381,-1.1399 -0.156455,-1.870982 -0.930964,-0.617706 -2.454727,-0.961318 -3.391879,-0.710195 -1.024582,0.27455 -0.970599,1.127915 0.123399,1.86315 0.970885,0.652495 2.483702,0.982575 3.424935,0.718027 0,0 0,0 0,0 M 15.28902,96.67307 c 0.497165,-0.13436 1.414359,0.102034 2.008633,0.497463 0.70191,0.46705 0.797004,1.01965 0.22857,1.178066 -0.522505,0.145613 -1.378416,-0.09129 -1.968936,-0.487024 -0.716813,-0.480371 -0.847906,-1.031857 -0.268267,-1.188505 0,0 0,0 0,0"
       style="font-style:normal;font-variant:normal;font-weight:bold;font-stretch:normal;font-size:10.66666698px;line-height:89.80000019%;font-family:'Comic Neue';-inkscape-font-specification:'Comic Neue Bold';fill:#ffffff;fill-opacity:1;stroke:none;stroke-width:0.21672335;stroke-miterlimit:4;stroke-dasharray:none;stroke-opacity:1"
       id="path4474" />
    <path
       inkscape:connector-curvature="0"
       d="m 23.53874,96.708137 c -0.600434,-0.14209 -1.665022,-0.394201 -2.829306,-0.668195 0.03335,-0.273487 0.02681,-0.707939 -0.05276,-1.024015 -0.0061,-0.03959 -0.04195,-0.09862 -0.138603,-0.16184 -0.193167,-0.126346 -0.495912,-0.182171 -0.704484,-0.126366 -0.139219,0.03726 -0.165289,0.10592 -0.15327,0.178174 0.06521,0.423067 0.04597,1.024453 -0.03143,1.373464 0,0 -2.423177,-1.590084 -2.423177,-1.590084 -0.19254,-0.126923 -0.511865,-0.199779 -0.739849,-0.139683 -0.204704,0.05398 -0.230592,0.204557 -0.0379,0.331929 0,0 4.341491,2.855027 4.341491,2.855027 0.189591,0.125316 0.544454,0.190044 0.740131,0.135046 0.218808,-0.06151 0.20827,-0.222537 0.01885,-0.347395 0,0 -1.095047,-0.721824 -1.095047,-0.721824 0.04157,-0.07482 0.107882,-0.191502 0.151521,-0.322814 0.496365,0.115944 1.892676,0.453869 2.876156,0.701844 0.152503,0.03507 0.305591,0.03455 0.420864,0.0022 0.222605,-0.06252 0.194313,-0.217099 -0.0096,-0.350377 -0.105661,-0.06905 -0.234768,-0.103379 -0.33358,-0.125057 0,0 5e-6,-10e-7 5e-6,-10e-7"
       style="font-style:normal;font-variant:normal;font-weight:bold;font-stretch:normal;font-size:10.66666698px;line-height:89.80000019%;font-family:'Comic Neue';-inkscape-font-specification:'Comic Neue Bold';fill:#ffffff;fill-opacity:1;stroke:none;stroke-width:0.21672335;stroke-miterlimit:4;stroke-dasharray:none;stroke-opacity:1"
       id="path4476" />
  </g>
</svg>
