<?xml version="1.0" encoding="UTF-8" standalone="no"?>
<!-- Generator: Adobe Illustrator 24.1.2, SVG Export Plug-In . SVG Version: 6.00 Build 0)  -->

<svg
   version="1.1"
   id="Layer_1"
   x="0px"
   y="0px"
   viewBox="0 0 128 128"
   style="enable-background:new 0 0 128 128;"
   xml:space="preserve"
   sodipodi:docname="emoji_u1f928.svg"
   inkscape:version="1.3.2 (091e20e, 2023-11-25, custom)"
   xmlns:inkscape="http://www.inkscape.org/namespaces/inkscape"
   xmlns:sodipodi="http://sodipodi.sourceforge.net/DTD/sodipodi-0.dtd"
   xmlns="http://www.w3.org/2000/svg"
   xmlns:svg="http://www.w3.org/2000/svg"><defs
   id="defs9" /><sodipodi:namedview
   id="namedview9"
   pagecolor="#ffffff"
   bordercolor="#000000"
   borderopacity="0.25"
   inkscape:showpageshadow="2"
   inkscape:pageopacity="0.0"
   inkscape:pagecheckerboard="0"
   inkscape:deskcolor="#d1d1d1"
   inkscape:zoom="6.0234375"
   inkscape:cx="63.916991"
   inkscape:cy="64"
   inkscape:window-width="1920"
   inkscape:window-height="991"
   inkscape:window-x="-9"
   inkscape:window-y="-9"
   inkscape:window-maximized="1"
   inkscape:current-layer="Layer_1" />
<g
   id="gold">
	
		<radialGradient
   id="face_1_"
   cx="63.6"
   cy="1104.9"
   r="56.9597"
   gradientTransform="matrix(1 0 0 1 0 -1042)"
   gradientUnits="userSpaceOnUse">
		<stop
   offset="0.5"
   style="stop-color:#FDE030"
   id="stop1" />
		<stop
   offset="0.92"
   style="stop-color:#F7C02B"
   id="stop2" />
		<stop
   offset="1"
   style="stop-color:#F4A223"
   id="stop3" />
	</radialGradient>
	<path
   id="face"
   style="fill:url(#face_1_);"
   d="M63.6,118.8c-27.9,0-58-17.5-58-55.9S35.7,7,63.6,7c15.5,0,29.8,5.1,40.4,14.4   c11.5,10.2,17.6,24.6,17.6,41.5s-6.1,31.2-17.6,41.4C93.4,113.6,79,118.8,63.6,118.8z" />
	
</g>
<g
   id="facial_expressions">
	<g
   id="face-with-one-eyebrow-raised">
		<path
   id="mouth"
   style="fill:#422B0D;"
   d="M75,96H53c-2.21,0-4-1.79-4-4s1.79-4,4-4h22c2.21,0,4,1.79,4,4S77.21,96,75,96z" />
		<g
   id="eyes">
			<g
   id="peepers">
				<path
   style="fill:#422B0D;"
   d="M83.5,46c3.7,0,7,4.3,7,11.5S87.2,69,83.5,69s-7-4.3-7-11.5S79.8,46.1,83.5,46z"
   id="path4" />
			</g>
			<g
   id="eyebrows">
				<path
   style="fill:#422B0D;"
   d="M27.1,45.6c0.4-0.8,0.7-1.4,1.1-2.1c0.44-0.62,0.9-1.22,1.4-1.8c1.14-1.21,2.5-2.19,4-2.9      c1.59-0.74,3.34-1.09,5.1-1c1.66,0.08,3.3,0.49,4.8,1.2l1,0.5c0.3,0.1,0.5,0.3,0.8,0.4c0.5,0.2,1.1,0.5,1.6,0.7      c1.04,0.41,2.11,0.74,3.2,1c0.52,0.12,1.06,0.19,1.6,0.2H53c0.42-0.06,0.83-0.19,1.2-0.4c0.44-0.21,0.84-0.48,1.2-0.8l0.2-0.2      c1-0.71,2.38-0.49,3.1,0.5c0.64,0.89,0.56,2.11-0.2,2.9c-0.58,0.59-1.22,1.13-1.9,1.6c-0.74,0.49-1.55,0.86-2.4,1.1      c-0.4,0.1-1,0.2-1.4,0.3c-0.38,0.16-0.79,0.23-1.2,0.2c-0.77,0.02-1.54-0.01-2.3-0.1c-1.47-0.17-2.91-0.5-4.3-1      c-0.69-0.21-1.36-0.47-2-0.8c-0.62-0.23-1.22-0.5-1.8-0.8c-1.67-0.74-3.56-0.85-5.3-0.3c-0.89,0.35-1.73,0.82-2.5,1.4      c-0.4,0.3-0.8,0.7-1.2,1c-0.39,0.34-0.76,0.71-1.1,1.1L30.7,48c-0.8,0.86-2.14,0.9-3,0.1c-0.04-0.03-0.07-0.07-0.1-0.1      C26.95,47.38,26.75,46.43,27.1,45.6z"
   id="path5" />
				<path
   style="fill:#422B0D;"
   d="M94.6,35.7c-0.8-1.1-1.3-2.1-1.9-3c-0.44-0.79-1.01-1.51-1.7-2.1c-0.3-0.2-0.5-0.4-0.7-0.5      c-0.21-0.13-0.45-0.19-0.7-0.2c-0.71-0.08-1.44,0.02-2.1,0.3c-0.92,0.32-1.82,0.68-2.7,1.1c-0.9,0.5-1.8,1-2.8,1.6      c-1.8,1.2-3.7,2.5-5.6,3.8l0,0c-1.02,0.68-2.4,0.41-3.1-0.6c-0.6-0.83-0.51-1.97,0.2-2.7c1.59-1.84,3.37-3.52,5.3-5      c2.08-1.65,4.41-2.97,6.9-3.9c1.55-0.5,3.19-0.63,4.8-0.4c0.92,0.18,1.8,0.52,2.6,1c0.77,0.43,1.45,1.01,2,1.7      c0.95,1.09,1.7,2.34,2.2,3.7c0.5,1.2,0.9,2.3,1.2,3.2v0.1c0.42,1.18-0.2,2.48-1.39,2.9c0,0-0.01,0-0.01,0      C96.14,36.88,95.17,36.49,94.6,35.7z"
   id="path6" />
			</g>
		</g>
	</g>
	<path
   style="fill:#422B0D;"
   d="M43.67,50.94L43.67,50.94c-4.19,0-8,3.54-8,9.42s3.81,9.41,8,9.41l0,0c4.19,0,8-3.54,8-9.41   S47.86,50.94,43.67,50.94z"
   id="path7" />
	
	
</g>
</svg>
