<svg enable-background="new 0 0 128 128" viewBox="0 0 128 128" xmlns="http://www.w3.org/2000/svg"><g fill="#2B2B2B"><path d="m82.68 42.08 3.32 3.32c5.85 5.85 15.42 5.85 21.27 0l12.41-12.41c5.85-5.85 5.85-15.42 0-21.27l-3.32-3.32c-5.85-5.85-15.42-5.85-21.27 0l-12.41 12.4c-5.85 5.85-5.85 15.43 0 21.28zm10.57-9.01c-3.11-3.11-3.08-8.24 0.07-11.39l6.69-6.69c3.15-3.15 8.28-3.18 11.39-0.07l1.77 1.77c3.11 3.11 3.08 8.24-0.07 11.39l-6.69 6.69c-3.15 3.15-8.28 3.18-11.39 0.07l-1.77-1.77z"/><path d="m20.85 82.64-12.41 12.41c-5.85 5.85-5.85 15.42 0 21.27l3.32 3.32c5.85 5.85 15.42 5.85 21.27 0l12.41-12.41c5.85-5.85 5.85-15.42 0-21.27l-3.32-3.32c-5.85-5.85-15.42-5.85-21.27 0zm14.03 12.33c3.11 3.11 3.08 8.24-0.07 11.39l-6.69 6.69c-3.15 3.15-8.28 3.18-11.39 0.07l-1.77-1.77c-3.11-3.11-3.08-8.24 0.07-11.39l6.69-6.69c3.15-3.15 8.28-3.18 11.39-0.07l1.77 1.77z"/></g><radialGradient id="h" cx="65.944" cy="63.19" r="59.75" gradientTransform="matrix(.7071 -.7071 .7071 .7071 -27.249 65.969)" gradientUnits="userSpaceOnUse"><stop offset=".596"/><stop stop-color="#060606" offset=".6762"/><stop stop-color="#171717" offset=".7843"/><stop stop-color="#333" offset=".9078"/><stop stop-color="#4D4D4D" offset=".9999"/></radialGradient><circle cx="64.06" cy="64.02" r="59.75" fill="url(#h)"/><g opacity=".2"><path d="m105.73 6.01c3.5 0 6.77 1.35 9.22 3.8l3.32 3.32c5.09 5.09 5.09 13.36 0 18.44l-2.91 2.91c-0.62 0.62-0.76 1.58-0.35 2.36 4.44 8.31 6.79 17.71 6.79 27.18 0 31.84-25.91 57.75-57.75 57.75-9.47 0-18.87-2.35-27.18-6.79-0.3-0.16-0.62-0.24-0.94-0.24-0.52 0-1.03 0.2-1.41 0.59l-2.91 2.91c-2.45 2.45-5.73 3.8-9.22 3.8s-6.77-1.35-9.22-3.8l-3.32-3.32c-5.09-5.09-5.09-13.36 0-18.44l2.91-2.91c0.62-0.62 0.76-1.58 0.35-2.36-4.44-8.31-6.79-17.71-6.79-27.18 0-31.84 25.91-57.75 57.75-57.75 9.47 0 18.87 2.35 27.18 6.79 0.3 0.16 0.62 0.24 0.94 0.24 0.52 0 1.03-0.2 1.41-0.59l2.91-2.91c2.45-2.45 5.72-3.8 9.22-3.8m6.61 24.83c0.53 0 1.04-0.21 1.41-0.59l0.75-0.75c1.9-1.9 2.95-4.43 2.97-7.11 0.02-2.7-1.01-5.22-2.9-7.11l-1.77-1.77c-1.87-1.87-4.38-2.9-7.05-2.9-2.71 0-5.26 1.05-7.17 2.97l-0.75 0.75c-0.41 0.41-0.62 0.99-0.58 1.57 0.05 0.58 0.34 1.12 0.81 1.46 4.86 3.54 9.12 7.8 12.66 12.66 0.34 0.47 0.88 0.77 1.46 0.81 0.06 0 0.11 0.01 0.16 0.01m-89.97 86.6c2.71 0 5.26-1.05 7.17-2.97l0.75-0.75c0.41-0.41 0.62-0.99 0.58-1.57-0.05-0.58-0.34-1.12-0.81-1.46-4.86-3.54-9.12-7.8-12.66-12.66-0.34-0.47-0.88-0.77-1.46-0.81-0.05 0-0.1-0.01-0.15-0.01-0.53 0-1.04 0.21-1.41 0.59l-0.75 0.75c-1.9 1.9-2.95 4.43-2.97 7.11-0.02 2.7 1.01 5.22 2.9 7.11l1.77 1.77c1.86 1.87 4.36 2.9 7.04 2.9m83.36-113.43c-3.86 0-7.71 1.46-10.64 4.39l-2.91 2.91c-8.38-4.49-17.95-7.04-28.12-7.04-33 0-59.75 26.75-59.75 59.75 0 10.17 2.55 19.74 7.03 28.12l-2.91 2.91c-5.85 5.85-5.85 15.42 0 21.27l3.32 3.32c2.92 2.92 6.78 4.39 10.64 4.39s7.71-1.46 10.64-4.39l2.91-2.91c8.38 4.48 17.95 7.03 28.12 7.03 33 0 59.75-26.75 59.75-59.75 0-10.17-2.55-19.74-7.03-28.12l2.91-2.91c5.85-5.85 5.85-15.42 0-21.27l-3.32-3.32c-2.93-2.92-6.79-4.38-10.64-4.38zm6.61 24.83c-3.66-5.01-8.08-9.44-13.1-13.1l0.75-0.75c1.59-1.59 3.68-2.38 5.76-2.38 2.05 0 4.09 0.77 5.64 2.32l1.77 1.77c3.11 3.11 3.08 8.24-0.07 11.39l-0.75 0.75zm-89.97 86.6c-2.05 0-4.09-0.77-5.64-2.32l-1.77-1.77c-3.11-3.11-3.08-8.24 0.07-11.39l0.75-0.75c3.66 5.02 8.08 9.44 13.1 13.1l-0.75 0.75c-1.59 1.58-3.68 2.38-5.76 2.38z" fill="#eee"/></g><radialGradient id="g" cx="64.005" cy="63.809" r="54.63" gradientUnits="userSpaceOnUse"><stop stop-color="#EFC700" offset="0"/><stop stop-color="#FF8D03" offset="1"/></radialGradient><path d="m118.76 64c0 0.45-0.09 0.92-0.1 1.36-0.01 0.45-1.45 0.85-1.48 1.29-0.02 0.45 0.91 0.95 0.88 1.4s-0.14 0.9-0.18 1.34c-0.04 0.45 0.6 0.98 0.54 1.43s-1.46 0.71-1.52 1.16c-0.07 0.44-0.3 0.85-0.38 1.29s-0.42 0.82-0.51 1.25c-0.09 0.44 0.17 0.94 0.07 1.37-0.1 0.44 0.35 1 0.24 1.44-0.11 0.43-0.83 0.7-0.95 1.13s-0.3 0.83-0.43 1.26 0.92 1.24 0.78 1.66-0.43 0.82-0.58 1.24-1.5 0.39-1.66 0.81 1.11 1.42 0.93 1.83c-0.17 0.41-0.88 0.61-1.07 1.01-0.18 0.41 0.01 1.01-0.18 1.41s-1.23 0.4-1.43 0.8-0.31 0.84-0.53 1.24c-0.21 0.39-0.29 0.87-0.51 1.25-0.22 0.39-0.59 0.69-0.83 1.07-0.23 0.38-0.87 0.5-1.12 0.87-0.24 0.38 0.81 1.62 0.55 1.99-0.25 0.37-1.17 0.29-1.43 0.66-0.26 0.36-0.56 0.71-0.83 1.06-0.27 0.36-0.52 0.73-0.8 1.08s-0.98 0.35-1.27 0.69 0.39 1.52 0.09 1.86-0.7 0.61-1 0.93c-0.3 0.33-1.3 0.01-1.61 0.33s-0.51 0.76-0.83 1.07-0.79 0.47-1.11 0.77c-0.33 0.3-0.9 0.32-1.24 0.62s-0.86 0.35-1.2 0.63c-0.34 0.29-0.12 1.26-0.47 1.54s-1.11 0.02-1.47 0.29 0.25 1.85-0.11 2.11-0.77 0.51-1.14 0.76-1.18-0.13-1.55 0.11c-0.38 0.24-0.35 1.16-0.73 1.39s-1.48-0.72-1.87-0.49c-0.39 0.22-0.17 1.53-0.57 1.75-0.39 0.21-1.24-0.4-1.63-0.2-0.4 0.2-0.4 1.22-0.81 1.41-0.4 0.19-1.39-0.86-1.8-0.67-0.41 0.18-0.69 0.62-1.11 0.79-0.41 0.17-1.04-0.21-1.45-0.05-0.42 0.16-0.2 1.99-0.62 2.15-0.42 0.15-0.87 0.3-1.29 0.44s-1.23-0.87-1.66-0.73c-0.43 0.13-0.53 1.4-0.96 1.52s-1.27-1.27-1.7-1.16-0.64 1.12-1.08 1.22-0.83 0.43-1.27 0.52-0.81 0.62-1.25 0.7-0.93-0.04-1.38 0.03c-0.44 0.07-1.06-1.16-1.51-1.1-0.44 0.05-0.91-0.29-1.36-0.24-0.44 0.04-0.8 1-1.25 1.04-0.45 0.03-0.93-0.75-1.38-0.73s-0.86 0.75-1.31 0.76-0.89-0.04-1.34-0.04-0.91 0.61-1.35 0.6c-0.45-0.01-0.9-0.23-1.34-0.25-0.45-0.02-0.81-1.28-1.26-1.32-0.45-0.03-1 1.25-1.44 1.21-0.45-0.04-0.8-0.89-1.24-0.95-0.45-0.06-1.05 1.02-1.49 0.96-0.44-0.07-0.7-1.3-1.14-1.38s-0.89-0.04-1.33-0.13-1.08 0.75-1.52 0.65-0.91-0.14-1.34-0.25-0.69-0.91-1.12-1.03-0.92-0.07-1.34-0.2c-0.43-0.13-0.87-0.24-1.29-0.39-0.42-0.14-0.88-0.22-1.3-0.37s-1 0.07-1.41-0.09c-0.42-0.16-0.78-0.5-1.19-0.67s-0.29-1.55-0.7-1.74c-0.41-0.18-1.15 0.37-1.55 0.18s-0.63-0.73-1.03-0.93-0.9-0.2-1.29-0.42c-0.39-0.21-0.49-0.94-0.88-1.16s-1.51 0.78-1.89 0.55-0.53-0.87-0.9-1.11c-0.38-0.24-0.28-1.19-0.65-1.45-0.37-0.25-1.62 0.75-1.99 0.48-0.36-0.26-0.45-0.93-0.81-1.2s-0.35-1.02-0.7-1.3-0.4-0.91-0.74-1.2-1.43 0.29-1.76-0.01c-0.34-0.3-0.25-1.07-0.58-1.37s-1.14-0.11-1.46-0.42 0.1-1.37-0.22-1.69c-0.31-0.32-1.4 0.09-1.7-0.24s-0.21-1.03-0.5-1.37c-0.3-0.34-0.34-0.89-0.63-1.23s-0.13-1.04-0.41-1.39-1.85 0.31-2.12-0.05 0.54-1.52 0.28-1.88-0.1-1-0.35-1.37-1.82 0.14-2.07-0.23c-0.24-0.38 0.33-1.27 0.1-1.65s-1.47-0.17-1.7-0.56c-0.22-0.39 0.45-1.29 0.24-1.68s-1.05-0.46-1.26-0.86c-0.2-0.4-0.26-0.88-0.46-1.28-0.19-0.4-0.13-0.93-0.31-1.34s-0.55-0.74-0.72-1.15-0.9-0.62-1.06-1.03c-0.16-0.42 0.86-1.29 0.7-1.71-0.15-0.42-1.17-0.54-1.32-0.96-0.14-0.42-0.68-0.74-0.81-1.17s0.85-1.19 0.73-1.62-0.21-0.86-0.32-1.3c-0.11-0.43-0.73-0.75-0.83-1.18-0.1-0.44-0.5-0.82-0.58-1.26-0.09-0.44 0.38-0.99 0.31-1.43-0.08-0.44 0.5-0.98 0.44-1.42-0.07-0.44-0.3-0.85-0.36-1.29-0.05-0.44 0.06-0.89 0.02-1.34-0.05-0.47-0.31-0.89-0.35-1.33-0.03-0.45 0.46-0.91 0.44-1.36s-1.67-0.83-1.68-1.28-0.22-0.91-0.22-1.36 0.78-0.9 0.79-1.35 0.79-0.86 0.81-1.31 0-0.88 0.03-1.33-0.72-0.96-0.68-1.4c0.04-0.45 0.74-0.82 0.79-1.26 0.06-0.45 0.32-0.85 0.38-1.29 0.07-0.44 0.03-0.89 0.11-1.33s0.44-0.81 0.53-1.25-1.2-1.17-1.11-1.61c0.1-0.44-0.16-0.98-0.05-1.41s1.39-0.56 1.51-1c0.12-0.43-0.49-1.08-0.36-1.51s1.14-0.58 1.28-1 0.07-0.92 0.23-1.34c0.15-0.42-0.16-1.02 0.01-1.44 0.16-0.42 0.62-0.72 0.79-1.13s0.75-0.65 0.93-1.05c0.18-0.41 0.7-0.65 0.89-1.05s0.15-0.91 0.36-1.31c0.2-0.4 0.25-0.87 0.47-1.26 0.21-0.39 0.58-0.69 0.8-1.08s-0.23-1.17 0.01-1.56c0.23-0.38 1.46-0.13 1.7-0.51s-0.06-1.1 0.19-1.47 0.5-0.74 0.76-1.1-0.38-1.4-0.1-1.76c0.27-0.36 1.04-0.34 1.32-0.69s0.19-1.02 0.48-1.36 0.75-0.56 1.05-0.89c0.3-0.34 0.57-0.71 0.88-1.04 0.3-0.33 0.95-0.35 1.26-0.67s0.41-0.87 0.73-1.18 0.93-0.33 1.26-0.63 0.94-0.29 1.28-0.58c0.34-0.3 0.28-1.05 0.62-1.34s1.11-0.06 1.46-0.34 0.61-0.66 0.96-0.93c0.36-0.27 0.74-0.49 1.11-0.75 0.36-0.26 1.01-0.09 1.38-0.35 0.37-0.25 0.6-0.69 0.97-0.93 0.38-0.24 0.53-0.81 0.92-1.05 0.38-0.23 0.45-1 0.84-1.22s1.07 0.07 1.46-0.15c0.39-0.21 0.51-0.95 0.91-1.16 0.4-0.2 1.11 0.21 1.51 0.01 0.4-0.19 0.93-0.1 1.34-0.28s0.47-1.16 0.88-1.33 1.06 0.22 1.48 0.06 1.01 0.17 1.43 0.02 0.75-0.5 1.18-0.65c0.42-0.14 0.62-0.98 1.05-1.11s1 0.24 1.43 0.12 0.82-0.37 1.25-0.48 0.74-0.74 1.18-0.84 1.03 0.56 1.47 0.47 0.74-0.9 1.18-0.98 0.96 0.31 1.4 0.25c0.44-0.07 0.77-1.05 1.21-1.11 0.44-0.05 1.06 1.41 1.5 1.37s0.83-0.71 1.27-0.74c0.45-0.03 0.88-0.19 1.33-0.21s0.9 0.26 1.35 0.24c0.45-0.01 0.89-0.44 1.34-0.44s0.87 1.11 1.32 1.12 0.9-0.64 1.35-0.61c0.45 0.02 0.98-1.24 1.43-1.21s0.91 0.16 1.35 0.2c0.45 0.04 0.82 0.86 1.26 0.92 0.45 0.06 0.99-0.52 1.43-0.46 0.44 0.07 0.76 0.98 1.2 1.05 0.44 0.08 0.99-0.39 1.43-0.3s0.58 1.53 1.02 1.63 1.12-0.84 1.55-0.73 0.92 0.06 1.35 0.18 0.65 0.97 1.07 1.1c0.43 0.13 1.18-0.74 1.61-0.6s0.58 1.08 1 1.23 0.64 0.82 1.05 0.98c0.42 0.16 1.21-0.6 1.62-0.43s1.03-0.1 1.44 0.09c0.41 0.18 0.31 1.46 0.72 1.65 0.4 0.19 0.83 0.33 1.23 0.53s0.79 0.41 1.18 0.62 0.59 0.74 0.98 0.97c0.39 0.22 1.01 0.04 1.39 0.27s1.11-0.08 1.49 0.16 0.95 0.22 1.32 0.47 0.45 0.94 0.81 1.2 0.99 0.18 1.35 0.46c0.36 0.27 0.42 0.94 0.77 1.22s1.05 0.15 1.39 0.44-0.45 1.89-0.12 2.19c0.34 0.3 1.25-0.06 1.57 0.24 0.33 0.3 0.71 0.55 1.03 0.87 0.32 0.31 0.14 1.11 0.45 1.43s1 0.27 1.3 0.6 1.21 0.12 1.5 0.46c0.3 0.34 0.88 0.45 1.16 0.8 0.29 0.34-0.59 1.65-0.31 2s1.48-0.01 1.75 0.34c0.27 0.36 0.08 1.06 0.34 1.43 0.26 0.36-0.13 1.17 0.12 1.54s1.17 0.29 1.41 0.66c0.24 0.38-0.25 1.21-0.02 1.59s1.97-0.13 2.19 0.26-1.15 1.68-0.94 2.07 0.64 0.65 0.85 1.05c0.2 0.4 1.8 0.11 1.99 0.51s-1.28 1.59-1.1 2 1.76 0.2 1.93 0.62c0.17 0.41-0.72 1.26-0.56 1.68s1.25 0.48 1.41 0.9c0.15 0.42 0.11 0.92 0.25 1.35 0.14 0.42-0.17 1-0.04 1.42 0.13 0.43-0.26 1-0.14 1.43s0.93 0.67 1.04 1.1-0.48 1.03-0.38 1.46c0.1 0.44 1.47 0.6 1.56 1.04s-1.27 1.14-1.19 1.59c0.08 0.44 0.68 0.78 0.75 1.22s1 0.77 1.06 1.21c0.05 0.44 0.5 0.86 0.55 1.31 0.04 0.44-1.49 1.03-1.46 1.48s0.21 0.87 0.23 1.32 1.46 0.85 1.48 1.3c0.03 0.46 0.01 0.93 0.01 1.38z" fill="url(#g)"/><path d="m20.65 58.14s15.81 12.14 16.03 12.86-7.9 8.31-15.73 1.29c-6.76-6.04-0.96-13.99-0.3-14.15z" fill="#FCDA00"/><path d="m20.87 58.53s15.29 11.49 15.51 12.16-7.33 7.46-14.92 0.85c-6.54-5.7-1.21-12.88-0.59-13.01z" fill="#FFF59D"/><linearGradient id="f" x1="-112.87" x2="-103.11" y1="321.89" y2="324.68" gradientTransform="matrix(.4498 -.8931 .8931 .4498 -219.06 -177.08)" gradientUnits="userSpaceOnUse"><stop stop-color="#FABD00" offset=".0049069"/><stop stop-color="#FAC300" offset=".2442"/><stop stop-color="#FAD400" offset=".5667"/><stop stop-color="#FAF000" offset=".9352"/><stop stop-color="#FAF600" offset="1"/></linearGradient><path d="m25.81 64.73-5.83 0.38c-0.45 0.03-0.83-0.31-0.86-0.76-0.05-0.72-0.01-1.79 0.46-2.73 0.37-0.73 0.72-1.26 1-1.63 0.27-0.36 0.78-0.42 1.13-0.15l4.54 3.44c0.59 0.45 0.31 1.4-0.44 1.45z" fill="url(#f)"/><linearGradient id="e" x1="-113.7" x2="-103.94" y1="324.78" y2="327.57" gradientTransform="matrix(.4498 -.8931 .8931 .4498 -219.06 -177.08)" gradientUnits="userSpaceOnUse"><stop stop-color="#FABD00" offset=".0049069"/><stop stop-color="#FAC300" offset=".2442"/><stop stop-color="#FAD400" offset=".5667"/><stop stop-color="#FAF000" offset=".9352"/><stop stop-color="#FAF600" offset="1"/></linearGradient><path d="m22.88 71.27s-1.22-0.57-2.27-2.01c-0.62-0.85-0.77-1.8-0.79-2.43-0.01-0.41 0.27-0.76 0.67-0.83l5.77-1c0.74-0.13 1.24 0.73 0.77 1.31l-4.03 4.98-0.12-0.02z" fill="url(#e)"/><linearGradient id="d" x1="-115.28" x2="-105.52" y1="330.31" y2="333.1" gradientTransform="matrix(.4498 -.8931 .8931 .4498 -219.06 -177.08)" gradientUnits="userSpaceOnUse"><stop stop-color="#FABD00" offset=".0049069"/><stop stop-color="#FAC300" offset=".2442"/><stop stop-color="#FAD400" offset=".5667"/><stop stop-color="#FAF000" offset=".9352"/><stop stop-color="#FAF600" offset="1"/></linearGradient><path d="m24.03 72.56c0.62 0.56 1.87 1.3 4.12 1.02 0.41-0.05 0.72-0.42 0.7-0.84l-0.24-4.94c-0.04-0.75-0.98-1.05-1.44-0.46l-3.23 4.12c-0.26 0.34-0.23 0.82 0.09 1.1z" fill="url(#d)"/><linearGradient id="c" x1="-115.9" x2="-106.14" y1="332.49" y2="335.27" gradientTransform="matrix(.4498 -.8931 .8931 .4498 -219.06 -177.08)" gradientUnits="userSpaceOnUse"><stop stop-color="#FABD00" offset=".0049069"/><stop stop-color="#FAC300" offset=".2442"/><stop stop-color="#FAD400" offset=".5667"/><stop stop-color="#FAF000" offset=".9352"/><stop stop-color="#FAF600" offset="1"/></linearGradient><path d="m29.03 67.96 0.58 4.56c0.07 0.52 0.56 0.87 1.07 0.74 0.96-0.23 2.52-0.76 4.03-1.93 0.46-0.35 0.47-1.04 0.01-1.4l-3.9-3.01c-0.79-0.59-1.92 0.05-1.79 1.04z" fill="url(#c)"/><path d="m86.67 91.48s9.73-22.71 10.53-23.19 12.4 6.93 6.38 18.49c-5.19 9.96-16.51 5.44-16.91 4.7z" fill="#FCDA00"/><path d="m87.08 91.08s9.11-21.88 9.84-22.35c0.74-0.47 11.21 6.51 5.59 17.66-4.83 9.6-15.08 5.4-15.43 4.69z" fill="#FFF59D"/><linearGradient id="b" x1="-127.17" x2="-115.07" y1="409.52" y2="412.98" gradientTransform="matrix(-.9767 -.2148 .2148 -.9767 -112.11 464.52)" gradientUnits="userSpaceOnUse"><stop stop-color="#FABD00" offset=".0049069"/><stop stop-color="#FAC300" offset=".2442"/><stop stop-color="#FAD400" offset=".5667"/><stop stop-color="#FAF000" offset=".9352"/><stop stop-color="#FAF600" offset="1"/></linearGradient><path d="m93.01 83.26 2.25 6.89c0.17 0.53-0.12 1.09-0.65 1.27-0.85 0.28-2.15 0.56-3.42 0.28-0.99-0.22-1.74-0.48-2.26-0.7-0.51-0.21-0.75-0.8-0.53-1.31l2.73-6.5c0.36-0.86 1.59-0.81 1.88 0.07z" fill="url(#b)"/><linearGradient id="a" x1="-128.19" x2="-116.09" y1="413.1" y2="416.55" gradientTransform="matrix(-.9767 -.2148 .2148 -.9767 -112.11 464.52)" gradientUnits="userSpaceOnUse"><stop stop-color="#FABD00" offset=".0049069"/><stop stop-color="#FAC300" offset=".2442"/><stop stop-color="#FAD400" offset=".5667"/><stop stop-color="#FAF000" offset=".9352"/><stop stop-color="#FAF600" offset="1"/></linearGradient><path d="m101.75 84.76s-0.31 1.63-1.72 3.34c-0.83 1.01-1.92 1.48-2.67 1.69-0.49 0.14-1-0.09-1.2-0.55l-2.97-6.62c-0.38-0.85 0.5-1.72 1.34-1.33l7.21 3.33 0.01 0.14z" fill="url(#a)"/><linearGradient id="r" x1="-130.15" x2="-118.05" y1="419.95" y2="423.41" gradientTransform="matrix(-.9767 -.2148 .2148 -.9767 -112.11 464.52)" gradientUnits="userSpaceOnUse"><stop stop-color="#FABD00" offset=".0049069"/><stop stop-color="#FAC300" offset=".2442"/><stop stop-color="#FAD400" offset=".5667"/><stop stop-color="#FAF000" offset=".9352"/><stop stop-color="#FAF600" offset="1"/></linearGradient><path d="m102.95 83c0.49-0.91 0.99-2.64-0.04-5.26-0.19-0.48-0.73-0.73-1.22-0.58l-5.86 1.8c-0.89 0.27-0.96 1.5-0.11 1.87l5.94 2.62c0.49 0.2 1.05 0.01 1.29-0.45z" fill="url(#r)"/><linearGradient id="q" x1="-130.92" x2="-118.82" y1="422.64" y2="426.1" gradientTransform="matrix(-.9767 -.2148 .2148 -.9767 -112.11 464.52)" gradientUnits="userSpaceOnUse"><stop stop-color="#FABD00" offset=".0049069"/><stop stop-color="#FAC300" offset=".2442"/><stop stop-color="#FAD400" offset=".5667"/><stop stop-color="#FAF000" offset=".9352"/><stop stop-color="#FAF600" offset="1"/></linearGradient><path d="m95.9 78.4 5.3-2.1c0.6-0.24 0.87-0.94 0.57-1.51-0.57-1.08-1.69-2.79-3.55-4.25-0.57-0.44-1.4-0.25-1.68 0.41l-2.42 5.61c-0.5 1.14 0.63 2.3 1.78 1.84z" fill="url(#q)"/><path d="m101.42 40.52s-22.24-6.18-22.79-6.86 4.87-12.35 16.33-8.21c9.87 3.56 7.1 14.61 6.46 15.07z" fill="#FCDA00"/><path d="m101.01 40.19s-21.4-5.71-21.93-6.33 4.63-11.19 15.66-7.39c9.49 3.29 6.88 13.31 6.27 13.72z" fill="#FFF59D"/><linearGradient id="p" x1="-80.179" x2="-68.875" y1="343.21" y2="346.44" gradientTransform="matrix(-.0825 .9966 -.9966 -.0825 435.54 136.29)" gradientUnits="userSpaceOnUse"><stop stop-color="#FABD00" offset=".0049069"/><stop stop-color="#FAC300" offset=".2442"/><stop stop-color="#FAD400" offset=".5667"/><stop stop-color="#FAF000" offset=".9352"/><stop stop-color="#FAF600" offset="1"/></linearGradient><path d="m93.02 35.68 6.1-2.94c0.47-0.23 1.03-0.03 1.25 0.44 0.36 0.75 0.79 1.92 0.69 3.13-0.08 0.94-0.23 1.67-0.36 2.18-0.13 0.5-0.65 0.79-1.15 0.66l-6.37-1.72c-0.84-0.23-0.94-1.38-0.16-1.75z" fill="url(#p)"/><linearGradient id="o" x1="-81.134" x2="-69.83" y1="346.55" y2="349.78" gradientTransform="matrix(-.0825 .9966 -.9966 -.0825 435.54 136.29)" gradientUnits="userSpaceOnUse"><stop stop-color="#FABD00" offset=".0049069"/><stop stop-color="#FAC300" offset=".2442"/><stop stop-color="#FAD400" offset=".5667"/><stop stop-color="#FAF000" offset=".9352"/><stop stop-color="#FAF600" offset="1"/></linearGradient><path d="m93.32 27.39s1.55 0.09 3.31 1.18c1.04 0.64 1.61 1.59 1.9 2.26 0.19 0.43 0.04 0.94-0.36 1.18l-5.76 3.57c-0.74 0.46-1.65-0.25-1.4-1.08l2.18-7.09 0.13-0.02z" fill="url(#o)"/><linearGradient id="n" x1="-82.964" x2="-71.66" y1="352.96" y2="356.19" gradientTransform="matrix(-.0825 .9966 -.9966 -.0825 435.54 136.29)" gradientUnits="userSpaceOnUse"><stop stop-color="#FABD00" offset=".0049069"/><stop stop-color="#FAC300" offset=".2442"/><stop stop-color="#FAD400" offset=".5667"/><stop stop-color="#FAF000" offset=".9352"/><stop stop-color="#FAF600" offset="1"/></linearGradient><path d="m91.53 26.5c-0.91-0.34-2.57-0.59-4.87 0.69-0.42 0.24-0.59 0.77-0.38 1.2l2.39 5.2c0.36 0.79 1.51 0.7 1.75-0.13l1.68-5.83c0.14-0.47-0.11-0.96-0.57-1.13z" fill="url(#n)"/><linearGradient id="m" x1="-83.684" x2="-72.38" y1="355.47" y2="358.7" gradientTransform="matrix(-.0825 .9966 -.9966 -.0825 435.54 136.29)" gradientUnits="userSpaceOnUse"><stop stop-color="#FABD00" offset=".0049069"/><stop stop-color="#FAC300" offset=".2442"/><stop stop-color="#FAD400" offset=".5667"/><stop stop-color="#FAF000" offset=".9352"/><stop stop-color="#FAF600" offset="1"/></linearGradient><path d="m88.16 33.61-2.6-4.65c-0.29-0.52-0.98-0.69-1.47-0.34-0.93 0.67-2.37 1.91-3.5 3.82-0.34 0.58-0.06 1.33 0.59 1.51l5.49 1.54c1.12 0.31 2.05-0.88 1.49-1.88z" fill="url(#m)"/><path d="m55.74 46.21c-1.11-0.58-2.47-0.62-3.67-0.26-0.92 0.28-1.79 0.8-2.39 1.55s-0.93 1.75-0.77 2.7c0.2 1.25 1.21 2.29 2.42 2.67 1.2 0.39 2.55 0.17 3.67-0.43 2.59-1.4 4-4.52 0.74-6.23zm-1.6 4.74c-0.57 0.31-1.26 0.42-1.87 0.22s-1.13-0.73-1.23-1.37c-0.08-0.49 0.09-0.99 0.4-1.38s0.75-0.65 1.22-0.79c0.62-0.19 1.31-0.17 1.88 0.13 1.65 0.88 0.93 2.47-0.4 3.19z"/><path d="m88.22 75.7c-1.11-0.58-2.47-0.62-3.67-0.26-0.92 0.28-1.79 0.8-2.39 1.55s-0.93 1.75-0.77 2.7c0.2 1.25 1.21 2.29 2.42 2.67 1.2 0.39 2.55 0.17 3.67-0.43 2.58-1.41 3.99-4.53 0.74-6.23zm-1.61 4.73c-0.57 0.31-1.26 0.42-1.87 0.22s-1.13-0.73-1.23-1.37c-0.08-0.49 0.09-0.99 0.4-1.38 0.31-0.38 0.75-0.65 1.22-0.79 0.62-0.19 1.31-0.17 1.88 0.13 1.65 0.88 0.93 2.48-0.4 3.19z"/><path d="m59.22 19.45c-1.11-0.58-2.47-0.62-3.67-0.26-0.92 0.28-1.79 0.8-2.39 1.55s-0.93 1.75-0.77 2.7c0.2 1.25 1.21 2.29 2.42 2.67 1.2 0.39 2.55 0.17 3.67-0.43 2.58-1.41 3.99-4.53 0.74-6.23zm-1.61 4.73c-0.57 0.31-1.26 0.42-1.87 0.22s-1.13-0.73-1.23-1.37c-0.08-0.49 0.09-0.99 0.4-1.38 0.31-0.38 0.75-0.65 1.22-0.79 0.61-0.18 1.3-0.16 1.87 0.14 1.66 0.87 0.94 2.47-0.39 3.18z"/><path d="m95.72 41.7c-0.16-1.23-1.12-2.29-2.3-2.7-1.17-0.41-2.51-0.24-3.62 0.32-2.6 1.31-4.08 4.33-0.92 6.1 1.08 0.61 2.41 0.68 3.6 0.36 0.91-0.25 1.78-0.73 2.39-1.45 0.62-0.72 0.97-1.69 0.85-2.63zm-2.53 1.67c-0.31 0.37-0.76 0.61-1.22 0.74-0.61 0.17-1.29 0.13-1.84-0.18-1.61-0.91-0.86-2.45 0.47-3.12 0.57-0.29 1.25-0.37 1.85-0.16s1.09 0.75 1.17 1.38c0.06 0.48-0.12 0.97-0.43 1.34z"/><path d="m38.92 78.7c-2.57-2.15-6.44-2.34-6.88 1.81-0.15 1.42 0.38 2.86 1.26 3.98 0.68 0.85 1.58 1.55 2.63 1.87 1.04 0.32 2.23 0.25 3.16-0.31 1.23-0.73 1.91-2.23 1.81-3.66-0.09-1.44-0.88-2.77-1.98-3.69zm-1.13 5.26c-0.48 0.28-1.08 0.32-1.62 0.16-0.53-0.16-1-0.52-1.34-0.96-0.45-0.57-0.72-1.31-0.65-2.03 0.22-2.12 2.2-2.02 3.51-0.92 0.56 0.47 0.97 1.15 1.01 1.88 0.07 0.73-0.28 1.5-0.91 1.87z"/><linearGradient id="l" x1="7.2819" x2="19.046" y1="199.95" y2="228.57" gradientTransform="matrix(.6522 -.758 .758 .6522 -138.2 -71.551)" gradientUnits="userSpaceOnUse"><stop offset=".4039"/><stop stop-color="#0F0F0F" offset=".4933"/><stop stop-color="#2A2A2A" offset=".691"/><stop stop-color="#3A3A3A" offset=".8663"/><stop stop-color="#404040" offset=".9999"/></linearGradient><path d="m17.79 55.27c-0.57-4.55 5.77-9.52 13.75-5.76s17.99 9.96 17.03 13.27-28.94 7.18-30.78-7.51z" fill="url(#l)"/><path d="m23.54 58.96c0.87 0.68 1.94 1.18 2.96 1.57 2.19 0.85 4.41 1.58 6.66 2.21 1.64 0.46 5.7 0.93 8.09-0.02-6.19-0.85-12.51-0.93-17.71-3.76z" fill="#EE9565"/><path d="m22.76 58.21c0.23 0.27 0.49 0.52 0.78 0.75 5.2 2.82 11.53 2.91 17.7 3.76 0.13-0.05 0.25-0.11 0.37-0.17-6.23-1.51-13.2-1.18-18.85-4.34z" fill="#BA6E4C"/><path d="m29.7 52.15c-1.77-0.33-3.64-0.5-5.27 0.16s-2.91 2.38-2.57 4.17c0.13 0.67 0.45 1.23 0.89 1.73 5.66 3.16 13.13 1.84 18.86 4.34 1.33-0.68 1.97-1.91 0.97-4.02-0.68-1.45-2.12-2.38-3.53-3.12-2.95-1.55-6.11-2.66-9.35-3.26z" fill="#F6A67D"/><linearGradient id="k" x1="24.394" x2="37.642" y1="226.34" y2="258.58" gradientTransform="matrix(.8134 .5817 -.5817 .8134 182.85 -182.99)" gradientUnits="userSpaceOnUse"><stop offset=".4039"/><stop stop-color="#0F0F0F" offset=".4933"/><stop stop-color="#2A2A2A" offset=".691"/><stop stop-color="#3A3A3A" offset=".8663"/><stop stop-color="#404040" offset=".9999"/></linearGradient><path d="m68.83 15.12c5.05-1.1 11.26 5.52 7.85 14.84s-9.36 21.18-13.18 20.44-10.97-31.73 5.33-35.28z" fill="url(#k)"/><path d="m65.26 21.94c-0.67 1.04-1.13 2.3-1.47 3.47-0.73 2.54-1.33 5.1-1.81 7.69-0.35 1.88-0.47 6.49 0.84 9.07 0.34-7.01-0.2-14.11 2.44-20.23z" fill="#EE9565"/><path d="m66.02 20.99c-0.28 0.29-0.54 0.6-0.76 0.95-2.64 6.12-2.1 13.22-2.44 20.23 0.07 0.14 0.15 0.27 0.23 0.4 1.08-7.13 0-14.91 2.97-21.58z" fill="#BA6E4C"/><path d="m73.52 28.17c0.19-2.02 0.19-4.13-0.71-5.89-0.91-1.76-2.96-3.02-4.93-2.46-0.73 0.21-1.34 0.63-1.85 1.17-2.98 6.66-0.74 14.91-2.97 21.59 0.89 1.43 2.34 2.02 4.61 0.68 1.56-0.91 2.46-2.62 3.14-4.28 1.44-3.46 2.36-7.12 2.71-10.81z" fill="#F6A67D"/><linearGradient id="j" x1="54.126" x2="65.781" y1="203.47" y2="231.83" gradientTransform="matrix(.2149 .9766 -.9766 .2149 296.73 -50.29)" gradientUnits="userSpaceOnUse"><stop offset=".4039"/><stop stop-color="#0F0F0F" offset=".4933"/><stop stop-color="#2A2A2A" offset=".691"/><stop stop-color="#3A3A3A" offset=".8663"/><stop stop-color="#404040" offset=".9999"/></linearGradient><path d="m108.31 44.89c3.95 2.25 4.11 10.23-3.61 14.32s-18.59 8.33-20.64 5.6c-2.06-2.73 11.51-27.19 24.25-19.92z" fill="url(#j)"/><path d="m101.96 47.25c-1.05 0.28-2.09 0.84-3 1.41-1.97 1.23-3.88 2.55-5.71 3.96-1.33 1.02-4.13 3.96-4.79 6.42 4.35-4.39 8.17-9.35 13.5-11.79z" fill="#EE9565"/><path d="m103.02 47.08c-0.35 0.03-0.71 0.08-1.06 0.17-5.33 2.45-9.15 7.41-13.51 11.79-0.04 0.13-0.06 0.27-0.09 0.4 4.92-4.04 8.79-9.76 14.66-12.36z" fill="#BA6E4C"/><path d="m103.7 56.18c1.31-1.21 2.56-2.59 3-4.27s-0.15-3.72-1.78-4.51c-0.6-0.3-1.25-0.37-1.9-0.33-5.87 2.6-9.26 9.31-14.65 12.36-0.26 1.46 0.34 2.69 2.61 3.16 1.55 0.32 3.15-0.27 4.57-0.94 2.99-1.41 5.75-3.26 8.15-5.47z" fill="#F6A67D"/><linearGradient id="i" x1="83.254" x2="96.426" y1="224.97" y2="257.02" gradientTransform="matrix(-.9441 .3298 -.3298 -.9441 238.53 293.34)" gradientUnits="userSpaceOnUse"><stop offset=".4039"/><stop stop-color="#0F0F0F" offset=".4933"/><stop stop-color="#2A2A2A" offset=".691"/><stop stop-color="#3A3A3A" offset=".8663"/><stop stop-color="#404040" offset=".9999"/></linearGradient><path d="m87.14 106.73c-2 4.73-10.93 5.99-16.55-2.12s-11.86-19.74-9.07-22.41c2.78-2.68 32.07 9.26 25.62 24.53z" fill="url(#i)"/><path d="m83.64 99.92c-0.46-1.14-1.22-2.23-1.98-3.18-1.65-2.04-3.39-4.01-5.21-5.87-1.33-1.36-5-4.1-7.85-4.51 5.5 4.29 11.58 7.91 15.04 13.56z" fill="#EE9565"/><path d="m83.98 101.09c-0.08-0.39-0.18-0.78-0.33-1.17-3.46-5.65-9.54-9.28-15.05-13.57-0.16-0.02-0.31-0.04-0.46-0.04 5.18 4.97 12.13 8.55 15.84 14.78z" fill="#BA6E4C"/><path d="m73.85 103.07c1.53 1.31 3.25 2.53 5.2 2.79 1.95 0.27 4.15-0.67 4.82-2.6 0.25-0.72 0.25-1.45 0.11-2.17-3.71-6.23-11.7-9.14-15.84-14.78-1.67-0.09-2.98 0.74-3.2 3.36-0.15 1.79 0.72 3.5 1.67 5 1.99 3.16 4.44 6.01 7.24 8.4z" fill="#F6A67D"/><path d="m48.58 45.42c-0.11 0.07-3.52-1.07-5.25-1.41-1.73-0.35-4.15-0.07-4 0.49s1.1 0.86 1.1 0.86-1.22 0.89-0.15 1.2 5.31 0.71 5.31 0.71-3.28 0.29-2 0.55c1.27 0.26 4.54 0.34 5.21 0 0.67-0.35 0.35-0.26 0.35-0.26l-0.57-2.14z" fill="#ED0000"/><path d="m52.8 41.77s-3.23 2.04-4.1 2.82-0.79 3.1 0.76 3.74 3.33 0.37 4.99-0.48 2.26-2.91 2.26-2.91l-3.91-3.17z" fill="#ED0000"/><path d="m43.37 35.5c0.04 0.1 0.08 0.16 0.11 0.24 0.04 0.09 0.07 0.17 0.1 0.26 0.06 0.18 0.11 0.36 0.16 0.54 0.09 0.36 0.16 0.73 0.23 1.09 0.14 0.73 0.26 1.47 0.32 2.22l-0.1-0.12c0.43 0.12 0.85 0.28 1.26 0.45s0.82 0.36 1.19 0.62l-0.09-0.01 0.88-0.14c0.09-0.01 0.18 0.05 0.19 0.14s-0.05 0.18-0.14 0.19l-0.88 0.14h-0.04l-0.05-0.01c-0.45-0.09-0.86-0.27-1.26-0.45-0.41-0.18-0.81-0.38-1.19-0.62l-0.02-0.01c-0.04-0.02-0.07-0.06-0.08-0.11-0.26-0.71-0.47-1.43-0.65-2.15-0.09-0.36-0.18-0.73-0.24-1.1-0.03-0.19-0.05-0.37-0.07-0.56 0-0.09-0.01-0.19-0.01-0.29s0-0.22 0.02-0.31 0.11-0.15 0.21-0.13c0.08 0.03 0.13 0.07 0.15 0.12z" fill="#E53935"/><path d="m42.47 35.91 0.2 3.44-0.02-0.13 0.54 2.98-0.12-0.13 1.41 0.5c0.1 0.03 0.15 0.14 0.11 0.24-0.03 0.1-0.14 0.15-0.24 0.11l-1.41-0.5c-0.05-0.02-0.09-0.06-0.11-0.11l-0.01-0.02-1.05-2.84c-0.01-0.04-0.02-0.08-0.02-0.12l0.32-3.43c0.01-0.1 0.1-0.18 0.21-0.17s0.18 0.09 0.19 0.18z" fill="#E53935"/><path d="m41.26 36.85c-0.04 0.32-0.1 0.63-0.17 0.94s-0.14 0.62-0.22 0.92c-0.08 0.31-0.17 0.61-0.26 0.91-0.05 0.15-0.11 0.3-0.18 0.44s-0.16 0.28-0.27 0.41v-0.09c0.18 0.35 0.3 0.71 0.4 1.08s0.18 0.74 0.2 1.14c0 0.09-0.07 0.17-0.16 0.18-0.07 0-0.13-0.03-0.16-0.09-0.18-0.35-0.3-0.71-0.4-1.08s-0.18-0.75-0.2-1.14v-0.09c-0.02-0.17-0.02-0.33 0-0.49s0.05-0.31 0.09-0.47c0.09-0.3 0.18-0.6 0.29-0.9 0.1-0.3 0.21-0.59 0.33-0.89 0.12-0.29 0.24-0.58 0.38-0.87 0.04-0.08 0.14-0.12 0.23-0.08 0.07 0.03 0.11 0.1 0.1 0.17z" fill="#E53935"/><path d="m41.37 36.05c-0.49 0.57-1.03 1.09-1.59 1.59-0.28 0.25-0.56 0.5-0.85 0.73-0.3 0.23-0.61 0.44-0.98 0.58l0.06-0.1c-0.06 0.66-0.17 1.32-0.31 1.97-0.03 0.16-0.07 0.33-0.11 0.49l-0.06 0.24c-0.03 0.1-0.03 0.09-0.03 0.15-0.02 0.14-0.02 0.31-0.03 0.47s-0.02 0.32-0.05 0.49c-0.01 0.1-0.1 0.17-0.2 0.16-0.08-0.01-0.13-0.07-0.15-0.13-0.04-0.16-0.07-0.33-0.1-0.49-0.02-0.17-0.04-0.33-0.05-0.51-0.01-0.11 0.04-0.27 0.05-0.33l0.05-0.24c0.03-0.16 0.07-0.31 0.1-0.47 0.15-0.63 0.31-1.24 0.54-1.86l0.06-0.1c0.2-0.34 0.46-0.61 0.73-0.87 0.28-0.25 0.57-0.48 0.86-0.72 0.58-0.47 1.18-0.92 1.83-1.31 0.08-0.05 0.2-0.03 0.25 0.06 0.04 0.05 0.03 0.14-0.02 0.2z" fill="#E53935"/><path d="m52.73 35.41c-0.81-0.29-1.7 0.72-2.24 1.18-0.79 0.67-1.51 1.4-2.18 2.18-0.04 0.04-0.08 0.07-0.12 0.11-0.03 0.03-0.05 0.07-0.05 0.1-0.06 0.07-0.13 0.14-0.19 0.22-0.14 0.17 0.14 0.35 0.27 0.19 0.09-0.11 0.19-0.22 0.28-0.33 1.43-1.12 2.86-2.24 4.28-3.36 0.11-0.09 0.07-0.25-0.05-0.29z" fill="#E53935"/><path d="m54.7 36.87c-0.86-0.59-2.22 0.36-3 0.75-1.13 0.57-2.2 1.23-3.22 1.97-0.06 0.03-0.12 0.06-0.17 0.09s-0.08 0.06-0.09 0.1c-0.09 0.07-0.19 0.14-0.29 0.21-0.21 0.16 0.06 0.46 0.27 0.31 0.14-0.11 0.29-0.21 0.43-0.31 2.02-0.92 4.04-1.84 6.06-2.76 0.13-0.07 0.14-0.27 0.01-0.36z" fill="#E53935"/><path d="m55.65 38.56c-0.73-0.76-2.27-0.05-3.13 0.21-1.24 0.37-2.44 0.85-3.61 1.41-0.06 0.02-0.13 0.04-0.19 0.06s-0.09 0.05-0.12 0.09c-0.11 0.05-0.22 0.1-0.33 0.16-0.24 0.12-0.04 0.48 0.2 0.36 0.16-0.08 0.33-0.16 0.49-0.24 2.2-0.56 4.4-1.13 6.59-1.69 0.16-0.04 0.21-0.25 0.1-0.36z" fill="#E53935"/><path d="m56.68 40.19c-0.69-0.91-2.43-0.39-3.38-0.25-1.37 0.2-2.72 0.53-4.05 0.95-0.07 0.01-0.14 0.02-0.21 0.03-0.06 0.01-0.1 0.04-0.13 0.08-0.12 0.04-0.25 0.08-0.37 0.12-0.27 0.09-0.1 0.51 0.17 0.41 0.18-0.06 0.37-0.12 0.56-0.18 2.42-0.26 4.85-0.53 7.27-0.79 0.16-0.02 0.24-0.24 0.14-0.37z" fill="#E53935"/><path d="m59.96 41.38s0.09 1.73-1.02 2.85c-1.12 1.12-2.07 1.73-3.2 1.21s-2.43-1.49-3.34-3.57l2.15-2.21 5.41 1.72z" fill="#ED0000"/><path d="m61.58 37.19s0.12 4.52-1.04 4.78c-1.17 0.25-6.29-1.97-6.29-1.97l0.86-2.21 6.47-0.6z" fill="#ED0000"/><path d="m58.82 31.48s1.55 1.24 2.34 3.14c0.8 1.9 1.01 2.7 1.01 2.7s-1.36 0.84-3.8 1.21-3.55 0.41-3.55 0.41l-0.88-2.3 4.88-5.16z" fill="#ED0000"/><path d="m54.52 28.65s3.45 1.3 4.29 2.15c0.83 0.85-0.11 2.97-1.75 4.48s-2.3 1.83-3.14 2.06-1.78-1.49-1.78-1.49l2.38-7.2z" fill="#ED0000"/><path d="m49.95 28.78s3.14-0.94 4.01-0.45 1.38 2.38 0.56 5.23c-0.76 2.66-1.13 2.97-2.24 2.85-1.32-0.15-3.25-0.26-4.03-1.37-0.77-1.11 1.7-6.26 1.7-6.26z" fill="#ED0000"/><path d="m49.95 28.78s0.8 2.79-0.14 4.86-3.06 2.96-10.09 3.61c-7.29 0.67-9.62-0.31-9.62-0.31l0.62-1.03-2.37 0.13 1.14-1.17-1.49-0.11 6.12-2.83-3-0.13s6.77-1.91 10.77-2.5 5.83-0.65 8.06-0.52z" fill="#ED0000"/><circle cx="35.68" cy="32.13" r=".9"/><path d="m81.04 70.65c-0.02 0.12-2.84 1.65-4.11 2.57-1.28 0.92-2.57 2.67-2.11 2.91s1.23-0.19 1.23-0.19-0.16 1.34 0.7 0.83 3.69-3.05 3.69-3.05-1.8 2.32-0.86 1.64 2.99-2.76 3.17-3.41 0.04-0.39 0.04-0.39l-1.75-0.91z" fill="#ED0000"/><path d="m81.22 65.68s-0.63 3.35-0.65 4.39c-0.01 1.04 1.55 2.4 2.91 1.78s2.27-1.95 2.72-3.55-0.53-3.25-0.53-3.25l-4.45 0.63z" fill="#ED0000"/><path d="m71.39 68.03c0.09 0.03 0.15 0.05 0.23 0.08s0.15 0.06 0.23 0.09c0.15 0.07 0.3 0.14 0.45 0.22 0.29 0.16 0.57 0.34 0.86 0.51 0.56 0.35 1.12 0.72 1.65 1.14l-0.13-0.01c0.34-0.21 0.7-0.39 1.06-0.55 0.36-0.17 0.73-0.32 1.13-0.4l-0.06 0.05 0.44-0.66c0.05-0.07 0.14-0.09 0.21-0.04s0.09 0.14 0.04 0.21l-0.44 0.66c-0.01 0.01-0.01 0.02-0.02 0.02l-0.04 0.03c-0.33 0.23-0.7 0.4-1.06 0.55-0.37 0.15-0.74 0.29-1.13 0.4h-0.02c-0.04 0.01-0.08 0.01-0.12-0.01-0.62-0.26-1.22-0.56-1.8-0.89-0.29-0.17-0.58-0.33-0.86-0.51-0.14-0.09-0.28-0.19-0.41-0.3-0.06-0.05-0.13-0.11-0.19-0.17-0.07-0.06-0.14-0.13-0.19-0.2s-0.03-0.17 0.04-0.22c0.03-0.01 0.08-0.02 0.13 0z" fill="#E53935"/><path d="m71.11 68.87 2.37 1.96-0.09-0.07 2.28 1.46h-0.16l1.18-0.62c0.08-0.04 0.18-0.01 0.23 0.07 0.04 0.08 0.01 0.18-0.07 0.23l-1.18 0.62c-0.05 0.02-0.1 0.02-0.14 0.01l-0.02-0.01-2.49-1.04c-0.04-0.01-0.07-0.04-0.09-0.06l-2.05-2.3c-0.06-0.07-0.06-0.18 0.01-0.24 0.06-0.07 0.15-0.07 0.22-0.01z" fill="#E53935"/><path d="m70.99 70.23c0.18 0.22 0.35 0.45 0.51 0.68s0.32 0.47 0.47 0.7c0.15 0.24 0.29 0.48 0.44 0.72 0.07 0.12 0.13 0.25 0.18 0.39 0.05 0.13 0.09 0.27 0.1 0.43l-0.06-0.06c0.34 0.1 0.65 0.24 0.95 0.4s0.6 0.33 0.87 0.56c0.06 0.05 0.07 0.15 0.02 0.21-0.04 0.05-0.1 0.06-0.16 0.05-0.34-0.09-0.65-0.24-0.95-0.4s-0.6-0.34-0.87-0.56l-0.06-0.06c-0.13-0.09-0.23-0.19-0.32-0.3s-0.17-0.22-0.25-0.34c-0.14-0.24-0.28-0.49-0.41-0.74s-0.26-0.5-0.38-0.75-0.23-0.51-0.34-0.78c-0.03-0.08 0.01-0.16 0.09-0.19 0.06-0.03 0.13-0.01 0.17 0.04z" fill="#E53935"/><path d="m70.53 69.67c0.07 0.67 0.09 1.34 0.08 2.01-0.01 0.33-0.01 0.67-0.04 1s-0.08 0.66-0.21 0.99l-0.03-0.1c0.4 0.44 0.76 0.91 1.1 1.4 0.09 0.12 0.17 0.24 0.25 0.37l0.12 0.19c0.05 0.08 0.04 0.07 0.08 0.11 0.08 0.1 0.19 0.2 0.29 0.31s0.2 0.21 0.29 0.33c0.06 0.07 0.05 0.17-0.02 0.23-0.05 0.04-0.12 0.05-0.18 0.02-0.13-0.07-0.26-0.15-0.38-0.23-0.12-0.09-0.24-0.17-0.36-0.28-0.07-0.06-0.15-0.19-0.19-0.23l-0.13-0.17c-0.08-0.12-0.16-0.24-0.24-0.35-0.32-0.48-0.62-0.96-0.89-1.48l-0.03-0.1c-0.1-0.34-0.12-0.67-0.13-1.01 0-0.33 0.03-0.67 0.05-1 0.05-0.67 0.12-1.33 0.25-1.99 0.02-0.09 0.1-0.14 0.19-0.13 0.07-0.01 0.12 0.04 0.13 0.11z" fill="#E53935"/><path d="m77.02 61.85c-0.68 0.35-0.56 1.55-0.59 2.19-0.04 0.92 0 1.84 0.1 2.75v0.14c0 0.04 0.01 0.07 0.03 0.1 0.01 0.08 0.02 0.17 0.03 0.25 0.03 0.19 0.32 0.12 0.29-0.06-0.02-0.13-0.03-0.26-0.05-0.38 0.14-1.62 0.27-3.23 0.41-4.85 0.01-0.12-0.12-0.19-0.22-0.14z" fill="#E53935"/><path d="m79.18 61.45c-0.91 0.21-1.11 1.67-1.33 2.42-0.31 1.08-0.53 2.19-0.67 3.31-0.02 0.06-0.03 0.11-0.05 0.17-0.01 0.05-0.01 0.09 0.01 0.12-0.01 0.1-0.03 0.21-0.04 0.31-0.02 0.23 0.34 0.24 0.36 0.01 0.02-0.16 0.04-0.31 0.06-0.47 0.63-1.88 1.25-3.76 1.88-5.64 0.04-0.13-0.09-0.26-0.22-0.23z" fill="#E53935"/><path d="m80.86 61.85c-0.94 0.01-1.41 1.46-1.77 2.17-0.51 1.03-0.93 2.11-1.27 3.22-0.03 0.05-0.05 0.11-0.08 0.16-0.02 0.05-0.02 0.09-0.01 0.13-0.03 0.1-0.07 0.21-0.1 0.31-0.07 0.23 0.29 0.32 0.36 0.09 0.05-0.16 0.09-0.31 0.14-0.47 0.97-1.78 1.94-3.56 2.9-5.34 0.07-0.11-0.04-0.27-0.17-0.27z" fill="#E53935"/><path d="m82.55 62.17c-1.02-0.1-1.74 1.35-2.22 2.06-0.7 1.02-1.31 2.1-1.84 3.22-0.04 0.05-0.07 0.11-0.11 0.16-0.03 0.05-0.04 0.09-0.03 0.13-0.05 0.1-0.1 0.21-0.15 0.31-0.11 0.24 0.27 0.38 0.37 0.14 0.07-0.16 0.15-0.32 0.22-0.47 1.3-1.75 2.6-3.49 3.9-5.24 0.1-0.11 0-0.29-0.14-0.31z" fill="#E53935"/><path d="m85.32 60.76s1.19 0.99 1.24 2.4c0.06 1.41-0.13 2.4-1.15 2.83s-2.45 0.68-4.36 0.01l-0.13-2.75 4.4-2.49z" fill="#ED0000"/><path d="m83.56 57.15s3.03 2.67 2.49 3.59c-0.54 0.91-5.11 2.91-5.11 2.91l-0.92-1.91 3.54-4.59z" fill="#ED0000"/><path d="m78.15 55.48s1.75-0.26 3.48 0.38 2.38 0.98 2.38 0.98-0.28 1.4-1.52 3.22-1.89 2.57-1.89 2.57l-2.04-0.82-0.41-6.33z" fill="#ED0000"/><path d="m73.69 56.57s2.95-1.47 4.01-1.5 1.87 1.88 1.87 3.87c-0.01 1.99-0.2 2.62-0.57 3.3s-2.06 0.26-2.06 0.26l-3.25-5.93z" fill="#ED0000"/><path d="m70.99 59.64s1.3-2.63 2.15-2.89c0.85-0.27 2.39 0.54 3.76 2.81 1.28 2.12 1.26 2.55 0.5 3.19-0.9 0.77-2.15 1.97-3.34 1.81s-3.07-4.92-3.07-4.92z" fill="#ED0000"/><path d="m70.99 59.64s2.32 1.17 3.09 3.05c0.78 1.87 0.07 3.8-3.78 8.8-3.99 5.18-6.05 6.11-6.05 6.11l-0.3-1.03-1.36 1.63-0.07-1.46-0.98 0.91 1.87-5.72-1.91 1.89s2.87-5.59 4.91-8.56 3.14-4.24 4.58-5.62z" fill="#ED0000"/><circle cx="64.51" cy="71.01" r=".8"/><path d="m42.88 91.76c-0.04-0.11 1.58-2.87 2.21-4.32 0.62-1.45 0.84-3.61 0.32-3.58s-0.96 0.8-0.96 0.8-0.55-1.23-1.02-0.35-1.6 4.51-1.6 4.51 0.36-2.92-0.1-1.85-1.14 3.9-0.96 4.55 0.16 0.36 0.16 0.36l1.95-0.12z" fill="#ED0000"/><path d="m45.28 96.12s-1.18-3.2-1.7-4.1-2.56-1.27-3.41-0.03-0.95 2.84-0.51 4.45 2.12 2.52 2.12 2.52l3.5-2.84z" fill="#ED0000"/><path d="m52.51 89.05c-0.09 0.02-0.16 0.04-0.23 0.05-0.08 0.02-0.16 0.03-0.25 0.04-0.17 0.02-0.33 0.03-0.5 0.04-0.33 0.01-0.67 0-1 0-0.67-0.01-1.33-0.04-2-0.13l0.12-0.05c-0.19 0.36-0.4 0.69-0.63 1.02s-0.46 0.65-0.76 0.93l0.03-0.08-0.04 0.8c0 0.08-0.07 0.14-0.16 0.14-0.08 0-0.14-0.07-0.14-0.16l0.04-0.8c0-0.01 0-0.02 0.01-0.03l0.02-0.05c0.16-0.37 0.39-0.7 0.63-1.02s0.48-0.63 0.76-0.93l0.01-0.01c0.03-0.03 0.07-0.05 0.11-0.05 0.67-0.1 1.33-0.14 2-0.16 0.33-0.01 0.67-0.02 1-0.01 0.17 0.01 0.33 0.02 0.5 0.05 0.08 0.01 0.17 0.03 0.25 0.05 0.09 0.02 0.19 0.04 0.26 0.07 0.08 0.03 0.11 0.13 0.08 0.2-0.01 0.05-0.06 0.08-0.11 0.09z" fill="#E53935"/><path d="m52.32 88.19-3.04-0.46 0.11 0.01-2.7-0.08 0.13-0.08-0.7 1.14c-0.05 0.08-0.15 0.1-0.23 0.06-0.08-0.05-0.1-0.15-0.06-0.23l0.7-1.14c0.03-0.04 0.07-0.07 0.12-0.08h0.02l2.68-0.39c0.04-0.01 0.08 0 0.11 0.01l2.94 0.92c0.09 0.03 0.14 0.12 0.11 0.21-0.02 0.07-0.1 0.12-0.19 0.11z" fill="#E53935"/><path d="m51.73 86.96c-0.27-0.09-0.53-0.2-0.79-0.32s-0.51-0.24-0.76-0.37c-0.25-0.12-0.5-0.26-0.75-0.4-0.12-0.07-0.24-0.15-0.35-0.24s-0.22-0.19-0.31-0.31l0.08 0.02c-0.34 0.09-0.68 0.13-1.02 0.15s-0.68 0.02-1.03-0.04c-0.08-0.01-0.14-0.09-0.12-0.18 0.01-0.06 0.05-0.11 0.11-0.12 0.34-0.1 0.68-0.13 1.02-0.15 0.34-0.01 0.68-0.02 1.03 0.04l0.08 0.02c0.15 0.01 0.29 0.05 0.43 0.09 0.14 0.05 0.26 0.1 0.39 0.17 0.24 0.14 0.49 0.27 0.73 0.42 0.24 0.14 0.48 0.3 0.71 0.45 0.24 0.16 0.47 0.32 0.69 0.5 0.07 0.05 0.08 0.15 0.02 0.21-0.03 0.06-0.1 0.08-0.16 0.06z" fill="#E53935"/><path d="m52.41 87.2c-0.41-0.54-0.76-1.11-1.1-1.68-0.16-0.29-0.33-0.58-0.48-0.88-0.14-0.3-0.27-0.61-0.33-0.96l0.08 0.07c-0.57-0.17-1.12-0.4-1.66-0.64-0.14-0.06-0.27-0.12-0.4-0.18l-0.2-0.1c-0.08-0.04-0.07-0.04-0.13-0.06-0.12-0.04-0.26-0.08-0.4-0.12s-0.28-0.08-0.42-0.13c-0.08-0.03-0.13-0.12-0.1-0.21 0.02-0.06 0.08-0.11 0.15-0.11 0.15-0.01 0.3 0 0.45 0.01s0.29 0.02 0.46 0.06c0.09 0.01 0.23 0.09 0.28 0.1l0.2 0.09 0.39 0.18c0.52 0.24 1.03 0.51 1.52 0.82l0.08 0.07c0.26 0.24 0.45 0.51 0.63 0.8 0.17 0.29 0.32 0.59 0.47 0.88 0.3 0.6 0.58 1.2 0.81 1.84 0.03 0.08-0.01 0.18-0.1 0.21-0.09 0.02-0.16-0.01-0.2-0.06z" fill="#E53935"/><path d="m50.86 97.25c0.4-0.65-0.31-1.62-0.61-2.18-0.44-0.81-0.95-1.58-1.5-2.31-0.02-0.04-0.05-0.08-0.07-0.13-0.02-0.04-0.05-0.06-0.08-0.07-0.05-0.07-0.1-0.14-0.16-0.2-0.12-0.15-0.33 0.06-0.22 0.2 0.08 0.1 0.16 0.2 0.24 0.31 0.71 1.46 1.43 2.91 2.14 4.37 0.05 0.1 0.2 0.1 0.26 0.01z" fill="#E53935"/><path d="m49.21 98.7c0.67-0.65 0.1-2.01-0.1-2.76-0.29-1.09-0.67-2.15-1.12-3.18-0.02-0.06-0.03-0.11-0.05-0.17-0.01-0.05-0.04-0.08-0.07-0.1-0.04-0.1-0.08-0.19-0.13-0.29-0.1-0.21-0.42-0.04-0.32 0.18 0.07 0.14 0.13 0.29 0.19 0.43 0.43 1.94 0.86 3.87 1.29 5.81 0.03 0.13 0.21 0.17 0.31 0.08z" fill="#E53935"/><path d="m47.56 99.21c0.8-0.5 0.47-1.98 0.4-2.77-0.09-1.15-0.29-2.29-0.56-3.42-0.01-0.06-0.01-0.12-0.02-0.18 0-0.05-0.03-0.09-0.06-0.12-0.03-0.1-0.05-0.21-0.08-0.32-0.06-0.23-0.42-0.13-0.35 0.1 0.04 0.16 0.08 0.32 0.12 0.47 0.08 2.02 0.17 4.05 0.25 6.07 0.01 0.16 0.18 0.24 0.3 0.17z" fill="#E53935"/><path d="m45.94 99.81c0.93-0.43 0.8-2.05 0.85-2.91 0.08-1.24 0.04-2.48-0.07-3.71 0-0.06 0.01-0.13 0.01-0.19s-0.02-0.1-0.04-0.13c-0.01-0.11-0.02-0.23-0.03-0.35-0.03-0.26-0.42-0.19-0.39 0.07 0.02 0.17 0.04 0.35 0.05 0.52-0.22 2.17-0.44 4.34-0.66 6.5-0.02 0.15 0.15 0.26 0.28 0.2z" fill="#E53935"/><path d="m44.29 102.45s-1.53-0.24-2.3-1.43-1.12-2.13-0.47-3.02c0.66-0.89 1.75-1.84 3.74-2.25l1.53 2.29-2.5 4.41z" fill="#ED0000"/><path d="m47.66 104.64s-3.97-0.74-3.98-1.8 2.89-5.12 2.89-5.12l1.77 1.16-0.68 5.76z" fill="#ED0000"/><path d="m53.15 103.29s-1.37 1.12-3.18 1.46-2.55 0.38-2.55 0.38-0.48-1.35-0.35-3.55c0.14-2.2 0.3-3.17 0.3-3.17l2.17-0.34 3.61 5.22z" fill="#ED0000"/><path d="m56.43 100.06s-1.78 2.78-2.67 3.35c-0.9 0.57-2.57-0.65-3.59-2.36s-1.17-2.35-1.21-3.13 1.64-1.28 1.64-1.28l5.83 3.42z" fill="#ED0000"/><path d="m57.17 96.05s0.24 2.92-0.36 3.59c-0.59 0.66-2.33 0.76-4.67-0.48-2.18-1.16-2.39-1.54-2.07-2.48 0.38-1.12 0.83-2.8 1.94-3.27 1.12-0.48 5.16 2.64 5.16 2.64z" fill="#ED0000"/><path d="m57.17 96.05s-2.59 0.18-4.22-1.03-2.01-3.22-1.28-9.49c0.77-6.49 2.06-8.35 2.06-8.35l0.78 0.74 0.33-2.1 0.81 1.22 0.37-1.28 1.33 5.87 0.67-2.6s0.41 6.27 0.18 9.87c-0.21 3.59-0.51 5.22-1.03 7.15z" fill="#ED0000"/><circle cx="56.89" cy="82.96" r=".8"/></svg>
