<?xml version="1.0" encoding="utf-8"?>
<!-- Generator: Adobe Illustrator 19.2.1, SVG Export Plug-In . SVG Version: 6.00 Build 0)  -->
<svg version="1.1" xmlns="http://www.w3.org/2000/svg" xmlns:xlink="http://www.w3.org/1999/xlink" x="0px" y="0px"
	 viewBox="0 0 128 128" style="enable-background:new 0 0 128 128;" xml:space="preserve">
<g id="Layer_1">
	<path style="display:none;fill:#E39E49;" d="M-1171.7,65.14c0,0,9.08-0.67,16.3,0.96l-0.12-3.1c0,0-6.36-1.17-13.24-0.79
		c-2.31,0.13-5.39,0.04-7.58,0.58c-3.73,0.91-7.12,2.58-9.26,4.71l-3.59-8.76c0,0-2.76,1.94-3.14,2.33
		c-0.48,0.48-1.18,0.22-1.18,0.22c-0.03,0-0.03,0.03-0.04,0.06c0.7,0.51,1.37,1.14,1.97,2c1.09,1.55,2.7,3.92,4.34,6.34
		c-0.13,0.26-0.28,0.52-0.37,0.79c0,0-2.21,5.66,2.75,9.71c0,0,1.55,1.49,5.83,1.63c2.2,3.95-0.76,6.59-0.76,6.59
		c-4.16,3.61-9.08-0.39-9.08-0.39c-0.95-0.57-4.31-4.34-5.67-5.9l-5.96-7.22c0,0,0.19,0.93-0.19,1.32
		c-0.48,0.48-1.18,0.22-1.18,0.22c-0.02,0-0.02,0.03-0.03,0.04c0.46,0.36,0.93,0.77,1.38,1.28c2.15,2.41,4.7,5.61,6.65,8.14
		l-0.01-0.03l0.93,1.23c3.47,4.37,3.18,5.78,3.18,5.78c0.14,3.69-3.93,4.96-3.93,4.96c-3.8,1.39-7.62-2.23-7.62-2.23
		c-1.29-1.2-6.24-6.2-6.24-6.2l3.31,6.1c3.03,3.5,5.79,4.41,5.79,4.41c5.79,2.12,9.63-2.14,9.63-2.14c1.4-1.67,1.41-3.46,1.41-3.46
		c0.03-1.06-0.23-2.09-0.64-3.06c5.56,2.93,9.77-0.44,9.77-0.44c3.51-3.15,2.59-7.24,1.91-9.08c0.61-0.05,1.25-0.12,1.95-0.23
		c3.47-0.53,5.64-0.87,7.86-0.78c0,0,6.12,0.22,7.5,3.87c0,0,0.48,1.69-0.04,3.99c0,0-0.11,1.81,1.04,1.91
		c0.6,0.05,1.86-0.64,2.48-1.6c0,0,0.78-1.01,0.67-3.07c0,0,0.19-3.18-3.4-5.57c0,0-2.5-1.82-5.56-2.1
		c-3.26-0.31-4.43-0.5-9.53,0.24c0,0-5.44,0.96-9.26-0.56c0,0-3.22-1.45-2.05-5.45C-1184.69,72.38-1182.99,66.25-1171.7,65.14z"/>
</g>
<g id="Layer_4">
</g>
<g id="Layer_3">
</g>
<g id="Layer_2">
	<g>
		<g>
			<path style="fill:#9B643C;" d="M51.78,85.86c-0.96,0.92-1.94-0.15-1.94-0.15S33.37,68.67,32.31,67.92
				c-1.5-1.07-4.7-2.73-7.85,0.59c-1.31,1.38-3.45,4.44,0.64,9.28c0.88,1.04,26.53,27.44,28.02,28.86c0,0,11.84,11.25,18.96,15.45
				c1.98,1.17,4.2,2.4,6.79,3.25c2.58,0.85,5.49,1.42,8.55,1.39c3.06,0,6.23-0.63,9.22-1.76c2.99-1.14,5.77-2.79,8.29-4.68
				c0.62-0.48,1.24-0.97,1.83-1.48l1.69-1.43c1.18-1.01,2.27-2.06,3.32-3.15c2.11-2.16,4.01-4.45,5.68-6.8
				c1.66-2.36,3.07-4.8,4.18-7.22c1.11-2.42,1.89-4.85,2.34-7.15c0.48-2.29,0.6-4.45,0.5-6.32c-0.04-1.88-0.43-3.49-0.76-4.77
				c-0.37-1.28-0.75-2.24-1.06-2.87c-0.3-0.63-0.46-0.97-0.46-0.97l0,0c-0.42-1.13-0.81-2.21-1.18-3.18c-1-2.74-2.15-5.82-3.35-8.98
				c-0.51-1.34-0.74-1.95-0.74-1.95l0.01,0.02c-4.4-11.53-9.13-23.42-9.13-23.42c-0.72-2.09-3.28-2.8-5.16-1.42
				c-5.39,3.97-6.99,9.69-5,15.75l5.08,13.42c0.71,1.5-1.18,3.26-2.48,2.23c-4.08-3.24-12.73-12.21-12.73-12.21
				c-3.86-3.62-25.66-25.45-27.13-26.78c-2.93-2.67-6.61-4.02-9.38-1.93c-2.82,2.12-3.58,5.37-0.79,8.87
				c0.76,0.95,22.8,23.7,22.8,23.7c1.29,1.32-0.19,3.21-1.6,1.94c0,0-27.42-27.94-28.66-29.25c-2.81-2.97-7.27-3.58-9.88-1.08
				c-2.55,2.45-2.44,6.42,0.41,9.5c0.91,0.98,20.22,20.9,27.96,29.06c0.52,0.55,0.92,1.28,0.18,1.99c-0.01,0.01-0.76,0.85-1.76-0.2
				c-2.1-2.19-23.09-23.55-24.26-24.71c-2.68-2.65-6.25-3.88-9.07-1.23c-2.58,2.42-2.95,6.58,0.08,9.49l25.43,26.26
				C51.86,84.04,52.68,85,51.78,85.86z"/>
		</g>
		<g>
			<path style="fill:#9B643C;" d="M42.37,79.54c-0.52,1.22-1.85,0.61-1.85,0.61s-21.8-9.29-23.07-9.57c-1.8-0.4-5.39-0.68-7,3.6
				c-0.67,1.78-1.45,5.43,4.2,8.3c1.22,0.62,35.11,14.95,37.04,15.69c0,0,15.28,5.76,23.48,6.85c2.28,0.3,4.81,0.58,7.52,0.35
				c2.71-0.22,5.61-0.82,8.42-2.05c2.82-1.19,5.49-3.01,7.8-5.21c2.31-2.21,4.23-4.81,5.81-7.53c0.39-0.68,0.77-1.37,1.11-2.07
				l1.01-1.97c0.69-1.39,1.29-2.79,1.84-4.19c1.11-2.81,1.96-5.66,2.59-8.48c0.61-2.82,0.96-5.61,1.04-8.28
				c0.08-2.67-0.15-5.21-0.62-7.5c-0.44-2.3-1.18-4.33-2-6.02c-0.77-1.72-1.76-3.04-2.55-4.1c-0.84-1.03-1.56-1.77-2.09-2.23
				c-0.52-0.46-0.8-0.71-0.8-0.71l0,0c-0.82-0.88-1.61-1.72-2.32-2.47c-1.99-2.14-4.25-4.52-6.58-6.96c-0.99-1.04-1.44-1.5-1.44-1.5
				l0.02,0.02C85.37,25.21,76.39,16.1,76.39,16.1c-1.47-1.65-4.11-1.3-5.3,0.7c-3.42,5.76-2.67,11.64,1.52,16.45l9.9,10.39
				c1.24,1.1,0.18,3.46-1.42,3.02c-5.02-1.4-16.47-6.3-16.47-6.3C59.65,38.53,31.07,26.9,29.2,26.24c-3.74-1.32-7.65-1.13-9.39,1.87
				c-1.77,3.05-1.21,6.34,2.73,8.48c1.07,0.58,30.22,12.96,30.22,12.96c1.7,0.71,1.07,3.03-0.72,2.41c0,0-36.13-15.07-37.78-15.8
				c-3.74-1.65-8.09-0.47-9.52,2.85C3.35,42.26,5,45.88,8.82,47.6c1.21,0.55,26.76,11.39,37.06,15.89c0.69,0.3,1.34,0.82,0.94,1.77
				c0,0.01-0.37,1.08-1.7,0.5c-2.79-1.2-30.43-12.72-31.96-13.33c-3.5-1.4-7.26-1.14-8.84,2.39c-1.44,3.23-0.16,7.21,3.76,8.71
				l33.64,14.3C41.72,77.83,42.86,78.4,42.37,79.54z"/>
		</g>
		<g>
			<g>
				<path style="fill:#7A4C32;" d="M101.45,64.4c1.13,2.62,2.93,4.52,0.24,6.47c-3.66,2.65-11.15-6.43-14.15-9.48
					c-3.73-3.81-7.36-7.84-11.16-11.6c-5.17-5.13-12.26-12.09-17.31-17.36c-5.85-6.1-11.7,1.18-8.93,6.84
					c0.26,0.56,0.64,1.11,1.13,1.69c1.5,1.71,3.12,3.3,4.71,4.93c0.02,0.02,12.45,11.92,16.52,16.03c1.85,1.92,0.85,4.29-0.33,3.22
					s-9.16-8.2-12.78-11.89c-5.69-5.8-12.95-13.04-19.45-18.45c-3.68-3.07-12.33,3.15-4.17,11.16c0.31,0.31,24.38,23.9,27.43,26.91
					c0.99,0.97-0.6,1.99-0.6,1.99c-0.66,0.58-26.59-24.01-27.56-24.98c-5.31-5.33-14.45,1.26-6.97,8.89
					c2.73,2.78,11.38,11.67,17,17.48c1.86,1.93,6.43,6.07,9.17,8.46c0.57,0.5-0.83,1.09-1.17,1.55c-0.5,0.69-19.11-16.16-21.03-17.7
					c-4.27-3.42-11.67,2.6-7.33,8.39c2.23,2.97,17.73,17.63,19.97,19.76c11.63,11.05,13.86,13.79,28.01,23.8
					c1.8,1.28,6.93,5.24,5.42,4.6c-19.87-8.52-37.36-28.24-52.48-42.02c-4.42-4.03-7.82-11.53-2.59-16.53
					c2.06-1.96,3.47-2.38,6.14-2.22c0,0-0.16-0.19-2.49-2.67c-2.25-2.39-7.43-9.59-2.62-14.24c3.78-3.66,8.01-2.06,7.69-2.42
					c-3.59-4.29-3.15-9.04-0.09-11.91c3.68-3.46,8.68-3.61,15.17,3.09c-0.4-1.2-1.33-4.16,1.77-6.97c6-5.46,11.08-1.54,22.51,10.76
					C80.62,50.17,95.35,65.2,95.35,65.2c0.84,0.75,3.03,3.38,4.4,2.55c0.8-0.49-0.46-1.96-1.78-4.98
					c-4.74-10.81-4.84-20.2,5.75-24.07c0.68-0.63-4.02,3.49-5.44,8.13C96.91,51.29,98.85,58.35,101.45,64.4z"/>
			</g>
		</g>
		
			<line style="fill:none;stroke:#444444;stroke-width:4;stroke-linecap:round;stroke-miterlimit:10;" x1="101.28" y1="3.12" x2="94.87" y2="23.23"/>
		
			<line style="fill:none;stroke:#444444;stroke-width:4;stroke-linecap:round;stroke-miterlimit:10;" x1="42.49" y1="22.7" x2="31.79" y2="9.97"/>
		
			<line style="fill:none;stroke:#444444;stroke-width:4;stroke-linecap:round;stroke-miterlimit:10;" x1="52.79" y1="3.12" x2="50.42" y2="21.68"/>
		
			<line style="fill:none;stroke:#444444;stroke-width:4;stroke-linecap:round;stroke-miterlimit:10;" x1="112.7" y1="21.36" x2="100.35" y2="31.28"/>
	</g>
</g>
</svg>
