<?xml version="1.0" encoding="utf-8"?>
<!-- Generator: Adobe Illustrator 24.0.3, SVG Export Plug-In . SVG Version: 6.00 Build 0)  -->
<svg version="1.1" id="Layer_1" xmlns="http://www.w3.org/2000/svg" xmlns:xlink="http://www.w3.org/1999/xlink" x="0px" y="0px"
	 viewBox="0 0 128 128" style="enable-background:new 0 0 128 128;" xml:space="preserve">
<linearGradient id="SVGID_1_" gradientUnits="userSpaceOnUse" x1="10.2003" y1="729.8859" x2="107.7183" y2="827.4058" gradientTransform="matrix(1 0 0 1 0 -712.6141)">
	<stop  offset="0" style="stop-color:#9CCC65"/>
	<stop  offset="7.898900e-03" style="stop-color:#9BCB64"/>
	<stop  offset="0.5276" style="stop-color:#76AB44"/>
	<stop  offset="0.8023" style="stop-color:#689F38"/>
</linearGradient>
<path style="fill:url(#SVGID_1_);" d="M107.5,32.6c-2.4-0.6-4-3-3.7-5.4c1.3-10.1-8-14.2-10.4-15c-0.3-0.1-0.7-0.2-1-0.2
	C75.4,9.4,71.7,33.6,71,46.2c-0.2,2.9-2.8,5-5.6,4.6c-0.4,0-0.8-0.1-1.2-0.2c-3-0.5-4.7-3.6-3.8-6.5c4-12,9.5-35.8-7.2-39.8
	c-0.3-0.1-0.7-0.1-1-0.1C49.7,4.1,39.6,4.5,37,14.3c-0.6,2.4-3,4-5.4,3.7c-10.1-1.3-14.2,8.1-15,10.4c-0.1,0.3-0.2,0.6-0.2,1
	c-2.3,16.1,19.2,20.3,32.2,21.3c2.7,0.2,4.8,2.5,4.6,5.2c0,0.2,0,0.3,0,0.5c-0.3,3.1-3.4,5.1-6.4,4.2c-12.4-3.9-34.1-8-37.9,7.8
	c-0.1,0.3-0.1,0.7-0.1,1c-0.1,2.5,0.3,12.7,10.1,15.2c2.4,0.6,4,3,3.7,5.4c-1.3,10.1,8,14.2,10.4,15c0.3,0.1,0.7,0.2,1,0.2
	C49.7,107.5,54.1,87,55.2,74c0.2-2.2,1.8-3.9,3.8-4.4c-0.5,5.9-3.1,27.9-18.9,39.4c-0.7,0.5-1.4,0.9-2.1,1.4c-0.7,0.4-1.3,0.8-2,1.2
	c-1.3,0.8-2.5,1.2-3.6,1.7c-1.1,0.4-2.1,0.8-2.9,1c-1.6,0.5-2.6,0.7-2.6,0.7l-0.3,0.1c-0.3,0.1-0.7,0.2-1,0.4
	c-1.4,0.8-2.5,2.9-2.3,4.5c0.4,3,3.4,4.1,6.1,3.7c0,0,2.9-0.3,4.9-1.1C61.5,113.5,62,77.4,63.5,70c1.6,1.2,2.1,3.9,1.5,5.9
	c-3.8,12.6-7.3,33.2,8.1,36.9c0.3,0.1,0.7,0.1,1,0.1c2.5,0.1,12.6-0.3,15.2-10.1c0.6-2.4,3-4,5.4-3.7c10.1,1.3,14.2-8,15-10.4
	c0.1-0.3,0.2-0.7,0.2-1c2.4-16.6-20.5-20.5-33.4-21.4c-3.1-0.2-5.3-3.2-4.5-6.3c0.1-0.2,0.1-0.5,0.2-0.7c0.8-2.6,3.7-4,6.2-3.1
	c12.2,4,35,8.8,38.9-7.5c0.1-0.3,0.1-0.7,0.1-1C117.7,45.3,117.4,35.1,107.5,32.6L107.5,32.6z"/>
<g style="opacity:0.2;">
	<path style="fill:#424242;" d="M51.8,7.3h0.4c0.1,0,0.3,0,0.4,0.1c3.2,0.8,5.5,2.5,7,5.2c4.7,8.5,0.2,24.4-2,30.8
		c-0.7,2.2-0.5,4.6,0.7,6.6s3.1,3.4,5.4,3.8c0.4,0.1,0.9,0.2,1.3,0.2c0.3,0,0.7,0.1,1,0.1c4.2,0,7.8-3.3,8-7.5
		c0.2-4.7,1.1-13.6,3.9-20.8c2.9-7.3,6.8-10.9,12.1-10.9c0.6,0,1.3,0.1,1.9,0.1c0.1,0,0.3,0.1,0.4,0.1c1,0.4,3.4,1.4,5.5,3.4
		c2.4,2.3,3.4,5.1,2.9,8.4c-0.5,4,2,7.7,5.9,8.7c7.6,2,7.9,9.8,7.9,12.2c0,0.1,0,0.3-0.1,0.4c-0.5,2.2-2.2,9.1-15,9.1
		c-7.1,0-14.8-2-20-3.7c-0.8-0.3-1.6-0.4-2.5-0.4c-3.5,0-6.5,2.2-7.6,5.5c-0.1,0.3-0.2,0.5-0.2,0.8c-0.7,2.3-0.2,4.8,1.2,6.7
		c1.4,2,3.6,3.2,6,3.4c13.9,0.9,24.2,4.4,28.4,9.5c1.9,2.4,2.6,5.1,2.2,8.4c0,0.1-0.1,0.3-0.1,0.4c-0.7,2-3.7,8.5-10.3,8.5
		c-0.5,0-1,0-1.5-0.1c-0.3,0-0.7-0.1-1-0.1c-3.6,0-6.8,2.5-7.7,6c-0.6,2.4-3,7.9-11.8,7.9h-0.4c-0.1,0-0.3,0-0.4-0.1
		c-3.2-0.8-5.5-2.4-6.9-5c-4.3-7.5-1.2-20.8,1-28.1c0.9-2.9,0.3-7-2.5-9.2c-0.5-0.4-1.2-0.6-1.8-0.6c-0.4,0-0.7,0.1-1.1,0.2
		c-0.4,0.2-0.8,0.4-1.1,0.7c-0.1-0.2-0.3-0.4-0.5-0.5c-0.5-0.5-1.2-0.7-1.9-0.7c-0.2,0-0.5,0-0.7,0.1c-3.3,0.8-5.7,3.7-6,7.1
		c-0.5,5.4-1.6,13.2-4.4,19.4c-2.8,6.2-6.6,9.3-11.5,9.3c-0.6,0-1.3-0.1-1.9-0.1c-0.1,0-0.3-0.1-0.4-0.1c-1-0.3-3.4-1.4-5.5-3.4
		c-2.4-2.3-3.4-5.1-2.9-8.4c0.5-4-2-7.7-5.9-8.7c-7.6-1.9-7.9-9.8-7.9-12.2c0-0.1,0-0.3,0.1-0.4c0.5-2.2,2.2-9.1,15-9.1
		c6.7,0,14.1,1.9,19,3.4c0.8,0.2,1.6,0.4,2.4,0.4c4.1,0,7.5-3.1,7.9-7.1c0-0.2,0-0.3,0-0.5c0.3-4.3-3-8.1-7.4-8.4
		c-7.8-1-21.8-3-27.3-9.9c-1.9-2.3-2.6-5.1-2.1-8.4c0-0.1,0-0.2,0.1-0.4c0.7-2,3.6-8.5,10.4-8.5c0.5,0,1,0,1.5,0.1
		c0.3,0,0.7,0.1,1,0.1c3.6,0,6.8-2.5,7.7-6C40.6,12.8,43,7.3,51.8,7.3 M56.3,92.6c-3.3,11.1-9.8,22.8-23,27.3h-0.1
		c-1.3,0.5-3.5,0.8-4.2,0.9h-0.1c-0.2,0-0.5,0.1-0.7,0.1c-0.8,0-1.9-0.2-2-1.2c-0.1-0.4,0.4-1.3,0.8-1.5c0.1-0.1,0.2-0.1,0.3-0.1
		l0.3-0.1l2.6-0.7h0.1c0.7-0.2,1.5-0.5,2.4-0.8l0.6-0.2c0.1,0,0.2-0.1,0.2-0.1c0.3-0.1,0.6-0.3,0.9-0.4c0.9-0.4,1.8-0.8,2.9-1.4
		c0.7-0.3,1.4-0.8,2.2-1.3c0.2-0.1,0.3-0.2,0.5-0.3c0.5-0.3,1.1-0.7,1.7-1.2C48.8,106.4,53.3,99.5,56.3,92.6 M51.8,4.3
		c-3.1,0-12.3,0.8-14.7,10.1c-0.6,2.2-2.6,3.7-4.8,3.7c-0.2,0-0.4,0-0.6,0C31,18,30.4,18,29.8,18c-8.8,0-12.4,8.3-13.2,10.5
		c-0.1,0.3-0.2,0.6-0.2,1C14,45.6,35.6,49.7,48.6,50.7c2.7,0.2,4.8,2.5,4.6,5.2c0,0.2,0,0.3,0,0.5c-0.2,2.6-2.5,4.4-4.9,4.4
		c-0.5,0-1-0.1-1.5-0.2c-5.6-1.8-13.1-3.6-20-3.6C18.5,57,11,59.7,8.9,68.4c-0.1,0.3-0.1,0.7-0.1,1C8.7,71.9,9,82.1,18.9,84.6
		c2.4,0.6,4,3,3.7,5.4c-1.3,10.1,8,14.2,10.4,15c0.3,0.1,0.7,0.2,1,0.2c0.8,0.1,1.6,0.2,2.3,0.2c13.8,0,17.8-19,18.9-31.4
		c0.2-2.2,1.8-3.9,3.8-4.4c-0.5,5.9-3.1,27.9-18.9,39.5c-0.7,0.5-1.4,0.9-2.1,1.4c-0.7,0.4-1.3,0.8-2,1.2c-1.3,0.8-2.5,1.2-3.6,1.7
		c-1.1,0.4-2.1,0.8-2.9,1c-1.6,0.5-2.6,0.7-2.6,0.7l-0.3,0.1c-0.3,0.1-0.7,0.2-1,0.4c-1.4,0.8-2.5,2.9-2.3,4.5
		c0.4,2.6,2.6,3.7,5,3.7c0.4,0,0.8,0,1.1-0.1c0,0,2.9-0.3,4.9-1.1C61.5,113.5,62,77.4,63.5,70c1.6,1.2,2.1,3.9,1.5,5.9
		c-3.8,12.6-7.3,33.2,8.1,36.9c0.3,0.1,0.7,0.1,1,0.1c0.1,0,0.3,0,0.4,0c3.1,0,12.3-0.8,14.7-10.1c0.6-2.2,2.6-3.7,4.8-3.7
		c0.2,0,0.4,0,0.6,0c0.6,0.1,1.3,0.1,1.9,0.1c8.7,0,12.4-8.3,13.2-10.5c0.1-0.3,0.2-0.7,0.2-1c2.4-16.6-20.5-20.5-33.4-21.4
		c-3.1-0.2-5.3-3.2-4.5-6.3c0.1-0.2,0.1-0.5,0.2-0.7c0.7-2.1,2.6-3.4,4.7-3.4c0.5,0,1,0.1,1.6,0.2c5.7,1.8,13.6,3.9,20.9,3.9
		c8.4,0,15.8-2.7,17.9-11.4c0.1-0.3,0.1-0.7,0.1-1c0.1-2.5-0.3-12.6-10.1-15.2c-2.4-0.6-4-3-3.7-5.4c1.3-10.1-8-14.2-10.4-15
		c-0.3-0.1-0.7-0.2-1-0.2c-0.8-0.1-1.6-0.2-2.3-0.2c-15,0-18.4,22.5-19.1,34.5c-0.1,2.7-2.4,4.7-5,4.7c-0.2,0-0.4,0-0.6,0
		c-0.4,0-0.8-0.1-1.2-0.2c-3-0.5-4.7-3.6-3.8-6.5c4-12,9.5-35.8-7.2-39.8c-0.3-0.1-0.7-0.1-1-0.1C52.1,4.3,52,4.3,51.8,4.3z"/>
</g>
</svg>
