<svg width="128" height="128" style="enable-background:new 0 0 128 128;" xmlns="http://www.w3.org/2000/svg" xmlns:xlink="http://www.w3.org/1999/xlink">
  <g id="Layer_4">
    <g>
      <radialGradient id="SVGID_1_" cx="183.0519" cy="-33.357" gradientTransform="matrix(0.826 0 0 0.826 -86.9483 19.8213)" gradientUnits="userSpaceOnUse" r="57.9038">
        <stop offset="0" style="stop-color:#6D4C41"/>
        <stop offset="1" style="stop-color:#523329"/>
      </radialGradient>
      <path d="M47.02,119.76c0,0-6.8-0.35-10.21-5.09c-7.37-10.23-11.42-35.81-11.42-72.02 c0-1.66,0.26-16.41,10.66-26.83C42.8,9.05,52.4,5.62,64.57,5.62c12.08,0,21.52,3.38,28.05,10.04 c9.82,10.02,10.04,24.16,9.99,26.89c0,36.31-4.06,61.89-11.42,72.12c-3.3,4.59-9.8,5.06-10.25,5.09L64,119.73L47.02,119.76z" style="fill:url(#SVGID_1_);"/>
      <path d="M64.57,7.12c11.66,0,20.74,3.23,26.98,9.59c9.6,9.8,9.59,24.2,9.56,25.81l0,0.12 c0,35.9-3.96,61.17-11.14,71.15c-2.84,3.94-8.55,4.43-9.08,4.46l-16.9-0.03l-16.89,0.03c-0.54-0.04-6.24-0.53-9.08-4.46 c-7.18-9.98-11.14-35.24-11.14-71.17c0-0.63,0.08-15.58,10.22-25.75C43.57,10.41,52.81,7.12,64.57,7.12 M64.57,4.12 c-41.01,0-40.68,37.92-40.68,38.52c0,24.56,1.88,59.25,11.71,72.9c3.9,5.41,11.43,5.71,11.43,5.71L64,121.23l16.97,0.03 c0,0,7.53-0.3,11.43-5.71c9.83-13.65,11.71-48.34,11.71-72.9C104.1,42.04,105.58,4.12,64.57,4.12L64.57,4.12z" style="fill:#402821;"/>
    </g>
  </g>
  <g id="Layer_1">
    <g>
      <defs>
        <rect id="SVGID_2_" height="120" width="120" x="4" y="4"/>
      </defs>
      <clipPath id="SVGID_3_">
        <use style="overflow:visible;" xlink:href="#SVGID_2_"/>
      </clipPath>
      <g id="XMLID_18_" style="clip-path:url(#SVGID_3_);">
        <linearGradient id="SVGID_4_" gradientUnits="userSpaceOnUse" x1="63.9997" x2="63.9997" y1="97.5003" y2="130.5003">
          <stop offset="3.247793e-03" style="stop-color:#616161"/>
          <stop offset="0.2772" style="stop-color:#545454"/>
          <stop offset="0.7831" style="stop-color:#323232"/>
          <stop offset="1" style="stop-color:#212121"/>
        </linearGradient>
        <path d="M13.5,130.5v-9.51c0-17.29,27.21-23.46,50.5-23.49h0.14c13.39,0,25.82,2.15,35.01,6.05 c7,2.98,15.35,8.42,15.35,17.44v9.51H13.5z" style="fill:url(#SVGID_4_);"/>
        <path d="M64.14,99c24.28,0,48.86,7.55,48.86,21.99V129H15v-8.01c0-6.95,4.88-12.47,14.52-16.42 C38.26,100.99,50.51,99.02,64,99L64.14,99 M64.14,96c-0.05,0-0.09,0-0.14,0c-25.65,0.03-52,7.1-52,24.99V132h104v-11.01 C116,104.13,89.9,96,64.14,96L64.14,96z" style="fill:#404042;"/>
      </g>
      <g id="XMLID_16_" style="clip-path:url(#SVGID_3_);">
        <path d="M63.17,107.23c-4,0-7.26-3.22-7.26-7.17v-8.98h16.16v8.98c0,3.95-3.25,7.17-7.26,7.17H63.17z" style="fill:#99674F;"/>
        <path d="M71.08,92.08v7.98c0,3.4-2.81,6.17-6.26,6.17h-1.65c-3.45,0-6.26-2.77-6.26-6.17v-7.98H64H71.08 M73.08,90.08H64h-9.08v9.98c0,4.51,3.7,8.17,8.26,8.17h1.65c4.56,0,8.26-3.66,8.26-8.17V90.08L73.08,90.08z" style="fill:#875740;"/>
      </g>
      <path id="XMLID_15_" d="M12.54,121.29v11.01h102.93v-11.01 c0-16.89-25.69-25.65-51.55-25.6C38.29,95.75,12.54,103.4,12.54,121.29z" style="clip-path:url(#SVGID_3_);fill:none;"/>
      <g style="clip-path:url(#SVGID_3_);">
        <defs>
          <path id="XMLID_14_" d="M12,120.99V132h104v-11.01c0-16.89-26.19-25.02-52-24.99C38.35,96.03,12,103.1,12,120.99z"/>
        </defs>
        <clipPath id="XMLID_3_">
          <use style="overflow:visible;" xlink:href="#XMLID_14_"/>
        </clipPath>
        <g style="clip-path:url(#XMLID_3_);">
          <polygon points="52.66,105.83 56.51,125.83 71.9,125.83 75.34,105.83 63.99,106 " style="fill:#BBDEFB;"/>
          <g>
            <path d="M54.73,94.49c0.04,1.79,0.32,3.64,3.15,7.32c3.17,4.13,6.11,4.19,6.11,4.19l-10.27,8.54 l-3.86-19.71L54.73,94.49z" style="fill:#FFFFFF;"/>
            <path d="M73.3,94.49c-0.04,1.88-0.35,3.64-3.17,7.32c-3.17,4.13-6.13,4.19-6.13,4.19l10.29,8.54 l3.86-19.71L73.3,94.49z" style="fill:#FFFFFF;"/>
          </g>
          <g>
            <circle cx="64" cy="112.31" r="1.69" style="fill:#64B5F6;"/>
            <circle cx="64" cy="120.31" r="1.69" style="fill:#64B5F6;"/>
          </g>
        </g>
      </g>
      <g style="clip-path:url(#SVGID_3_);">
        <g>
          <path d="M50.98,125.09l-10.51-10.24l4.89-6.29l-7.19-4.4l3.44-5.13c1.13-0.21,4.56-0.84,8.9-1.37 l6.11,27.41H50.98z" style="fill:#303030;"/>
          <path d="M49.73,98.79l5.64,25.3h-3.99l-9.58-9.33l3.65-4.7l1.37-1.77l-1.91-1.17l-5.34-3.27l2.63-3.91 C43.5,99.71,46.27,99.23,49.73,98.79 M51.29,96.58c-5.88,0.68-10.28,1.56-10.28,1.56l-4.25,6.34l7.12,4.36l-4.75,6.11 l11.44,11.14h7.29L51.29,96.58L51.29,96.58z" style="fill:#404042;"/>
        </g>
        <g>
          <path d="M71.38,125.09l6.1-27.36c4.33,0.47,7.86,1.21,8.99,1.46l3.36,4.99l-7.19,4.4l4.89,6.29 l-10.51,10.24H71.38z" style="fill:#303030;"/>
          <path d="M78.26,98.83c3.47,0.41,6.31,0.98,7.6,1.25l2.56,3.79l-5.34,3.27l-1.91,1.17l1.37,1.77l3.65,4.7 l-9.58,9.33h-3.99L78.26,98.83 M76.7,96.65l-6.57,29.45h7.29l11.44-11.14l-4.75-6.11l7.12-4.36l-4.17-6.18 C87.07,98.3,82.49,97.21,76.7,96.65L76.7,96.65z" style="fill:#404042;"/>
        </g>
      </g>
    </g>
  </g>
  <g id="Layer_3">
    <g>
      <linearGradient id="SVGID_5_" gradientUnits="userSpaceOnUse" x1="64.0001" x2="64.0001" y1="94.7084" y2="17.8858">
        <stop offset="0" style="stop-color:#A47B62"/>
        <stop offset="0.1914" style="stop-color:#AD8264"/>
        <stop offset="0.5512" style="stop-color:#B78A67"/>
        <stop offset="1" style="stop-color:#BA8D68"/>
      </linearGradient>
      <path d="M64,95.27c-2.3,0-4.91-0.5-7.56-1.43C45.1,89.83,31.87,77.5,31.87,55.95 c0-28.72,17.31-38.91,32.13-38.91s32.13,10.19,32.13,38.91c0,21.58-13.26,33.9-24.61,37.9C68.89,94.78,66.29,95.27,64,95.27z" style="fill:url(#SVGID_5_);"/>
      <path d="M64,18.04L64,18.04c8.41,0,16.06,3.25,21.55,9.15c6.27,6.73,9.58,16.68,9.58,28.77 c0,21.06-12.9,33.07-23.94,36.96c-2.53,0.89-5.01,1.36-7.19,1.36c-2.19,0-4.69-0.48-7.23-1.38c-11.03-3.9-23.9-15.92-23.9-36.94 c0-12.09,3.31-22.03,9.58-28.77C47.94,21.29,55.59,18.04,64,18.04 M64,16.04L64,16.04L64,16.04c-17.2,0-33.13,12.79-33.13,39.91 c0,21.79,13.49,34.67,25.23,38.83c2.8,0.99,5.5,1.49,7.9,1.49c2.38,0,5.07-0.49,7.85-1.47c11.76-4.14,25.28-17.03,25.28-38.84 C97.13,28.83,81.2,16.04,64,16.04L64,16.04z" style="fill:#91674D;"/>
    </g>
    <g>
      <defs>
        <path id="SVGID_6_" d="M30.41,88.85l-2.96-51.01c0-16.95,17.14-30.67,34.09-30.67h4.93C86.19,8,100.44,21.05,100.44,38 l-2.17,50.58L30.41,88.85z"/>
      </defs>
      <clipPath id="SVGID_7_">
        <use style="overflow:visible;" xlink:href="#SVGID_6_"/>
      </clipPath>
      <g style="clip-path:url(#SVGID_7_);">
        <radialGradient id="SVGID_8_" cx="221.2006" cy="-24.5068" gradientTransform="matrix(0.796 0 0 0.796 -112.0823 19.0871)" gradientUnits="userSpaceOnUse" r="48.2064">
          <stop offset="0" style="stop-color:#6D4C41"/>
          <stop offset="1" style="stop-color:#523329"/>
        </radialGradient>
        <path d="M101.89,42.65c0,0,1.02-35.57-37.81-35.57S26.11,42.65,26.11,42.65s0.33,45.48,3.2,51.39 s7.2,5.71,7.2,5.71s-2.03-26.54-2.26-39.04c-0.06-2.92-0.94-13.73,5.16-15.09c22.36-5.02,35.01-16.89,35.01-16.89 c3.29,7.19,13.58,14.19,17.27,16.86c3.03,2.19,2.61,11.2,2.55,15.03l-3.05,39.06c0,0,4.68,0.37,7.65-5.64 C101.8,88.02,101.89,42.65,101.89,42.65z" style="fill:url(#SVGID_8_);"/>
      </g>
    </g>
    <g>
      <path d="M67.81,68.05c-0.1-0.04-0.21-0.07-0.32-0.08h-6.99c-0.11,0.01-0.21,0.04-0.32,0.08 c-0.63,0.26-0.98,0.91-0.68,1.61c0.3,0.7,1.69,2.66,4.49,2.66c2.8,0,4.19-1.96,4.49-2.66C68.79,68.97,68.45,68.31,67.81,68.05z" style="fill:#99674F;"/>
      <g>
        <ellipse cx="47.75" cy="58.87" rx="4.87" ry="5.04" style="fill:#49362E;"/>
        <ellipse cx="80.25" cy="58.87" rx="4.87" ry="5.04" style="fill:#49362E;"/>
        <path d="M54.98,49.82c-0.93-1.23-3.07-3.01-7.23-3.01s-6.31,1.79-7.23,3.01 c-0.41,0.54-0.31,1.17-0.02,1.55c0.26,0.35,1.04,0.68,1.9,0.39c0.86-0.29,2.54-1.16,5.35-1.18c2.81,0.02,4.49,0.89,5.35,1.18 c0.86,0.29,1.64-0.03,1.9-0.39C55.29,50.99,55.39,50.36,54.98,49.82z" style="fill:#613E31;"/>
        <path d="M87.48,49.82c-0.93-1.23-3.07-3.01-7.23-3.01c-4.16,0-6.31,1.79-7.23,3.01 c-0.41,0.54-0.31,1.17-0.02,1.55c0.26,0.35,1.04,0.68,1.9,0.39c0.86-0.29,2.54-1.16,5.35-1.18c2.81,0.02,4.49,0.89,5.35,1.18 c0.86,0.29,1.64-0.03,1.9-0.39C87.79,50.99,87.89,50.36,87.48,49.82z" style="fill:#613E31;"/>
      </g>
      <path d="M72.32,76.14c-3.15,1.87-13.46,1.87-16.61,0c-1.81-1.07-3.65,0.57-2.9,2.21 c0.74,1.61,6.37,5.36,11.23,5.36s10.42-3.75,11.16-5.36C75.95,76.71,74.12,75.06,72.32,76.14z" style="fill:#5D4037;"/>
    </g>
  </g>
</svg>