<svg width="128" height="128" xmlns="http://www.w3.org/2000/svg" xmlns:xlink="http://www.w3.org/1999/xlink"><style>.st0,.st1{clip-path:url(#SVGID_2_);fill:#b0bec5}.st1{clip-path:url(#SVGID_4_)}.st2{fill:#6d4c41}.st3{fill:#99674f}.st6{fill:#5d4037}</style><g id="图层_1"><defs><path id="SVGID_1_" d="M50.5 103.5c-2.8-4.7-6.4-12.8-8.4-15.6-3.2-4.6-8.8-5.9-13.6-2.9-8.6 5.4-14.6 7-20.6 7.5-1.9.2-4.1.3-5.2 1.9-1 1.4-.6 3.4.5 4.7 3 3.7 9.6 4.4 13.2 4.8-1.1.6-3 1.8-2.4 3.4 1.2 3.3 10.2 4.2 14.5 4.4-.6.3-2.7 2.1-2.1 3.3 1.5 2.6 9.9 3.5 14.1 2.8 0 0-2.5 2.3-1 3.8 2.9 2.6 10.8 2.8 14.9 1.6 4.1-1.3 5.2-3.2 5.6-5.3.6-3.2-5.5-7.7-9.5-14.4z"/></defs><use xlink:href="#SVGID_1_" overflow="visible" fill="#e0e0e0"/><clipPath id="SVGID_2_"><use xlink:href="#SVGID_1_" overflow="visible"/></clipPath><path class="st0" d="M16.3 103.8c6.4 0 14.7-2.5 15.7-2.8-1.2 1-5.9 2.9-7.3 3.4-3.2 1.1-7.4 1.6-10.8 1.3.7-.8 1.4-1.4 2.4-1.9zM28 111.5c2.3.1 4.9-.4 7.2-1.2 1.8-.7 3.8-1.4 5.6-2.2-1.1.8-4.1 3-6.1 3.8-4.9 1.8-7.7 1.5-8.6 1.4.5-.5 1.3-1.5 1.9-1.8zM40.2 117.7c3.7-.6 5.9-1.3 8.8-2.3-1 .7-3 2.1-4.5 2.6-1.3.4-3.4 1.1-5.5 1.3.2-.4.9-1.2 1.2-1.6z"/><g><defs><path id="SVGID_3_" d="M77.5 103.5c2.8-4.7 6.4-12.8 8.4-15.6 3.2-4.6 8.8-5.9 13.6-2.9 8.6 5.4 14.6 7 20.6 7.5 1.9.2 4.1.3 5.2 1.9 1 1.4.6 3.4-.5 4.7-3 3.7-9.6 4.4-13.2 4.8 1.1.6 3 1.8 2.4 3.4-1.2 3.3-10.2 4.2-14.5 4.4.6.3 2.7 2.1 2.1 3.3-1.5 2.6-9.9 3.5-14.1 2.8 0 0 2.5 2.3 1 3.8-2.9 2.6-10.8 2.8-14.9 1.6-4.1-1.3-5.2-3.2-5.6-5.3-.6-3.2 5.5-7.7 9.5-14.4z"/></defs><use xlink:href="#SVGID_3_" overflow="visible" fill="#e0e0e0"/><clipPath id="SVGID_4_"><use xlink:href="#SVGID_3_" overflow="visible"/></clipPath><path class="st1" d="M111.7 103.8c-6.4 0-14.7-2.5-15.7-2.8 1.2 1 5.9 2.9 7.3 3.4 3.2 1.1 7.4 1.6 10.8 1.3-.7-.8-1.4-1.4-2.4-1.9zM100 111.5c-2.3.1-4.9-.4-7.2-1.2-1.8-.7-3.8-1.4-5.6-2.2 1.1.8 4.1 3 6.1 3.8 4.9 1.8 7.7 1.5 8.6 1.4-.5-.5-1.3-1.5-1.9-1.8zM87.8 117.7c-3.7-.6-5.9-1.3-8.8-2.3 1 .7 3 2.1 4.5 2.6 1.3.4 3.4 1.1 5.5 1.3-.2-.4-.9-1.2-1.2-1.6z"/></g><g><ellipse id="XMLID_167_" class="st2" cx="64" cy="58.1" rx="49" ry="46.2"/><g id="XMLID_164_"><path id="XMLID_166_" class="st3" d="M104.2 69.5s7.5 1.3 7.5 9.3c0 7.1-5.5 9.9-10.9 9.9V69.5h3.4z"/><path id="XMLID_165_" class="st3" d="M23.8 69.5s-7.5 1.3-7.5 9.3c0 7.1 5.5 9.9 10.9 9.9V69.5h-3.4z"/></g><path d="M92.4 45.3C85.6 36.9 73.9 33.2 64 33.2c-9.9 0-21.6 3.6-28.4 12.1-6.6 8.3-10.1 19-10.1 33.3.1 11.6 3 20.5 11.4 27.5 7.8 6.5 16.8 10 26.5 10 9.6 0 20.1-3.3 27.6-9.9 8.2-7.2 11.4-16 11.5-27.5.1-14.4-3.4-25.1-10.1-33.4z" fill="#bf8f68" id="XMLID_163_"/><path id="XMLID_162_" class="st3" d="M69.6 87.4c-2 .6-4 .8-5.6.8-1.6 0-3.6-.3-5.6-.8-.8-.2-1.2.6-.9 1.1.6 1.1 3.2 3.3 6.5 3.3s5.9-2.2 6.5-3.3c.3-.6 0-1.4-.9-1.1z"/><path id="XMLID_161_" d="M75.6 96.5H64 52.4c-1.3 0-1.9.9-1 2.2 1.2 1.9 5.8 5.5 12.7 5.5 6.8 0 11.4-3.6 12.7-5.5.7-1.3.2-2.2-1.2-2.2z" fill="#49362e"/><g id="XMLID_158_"><path id="XMLID_160_" class="st6" d="M48.6 79c0 3.4-2.3 6.2-5.1 6.2s-5.2-2.8-5.2-6.2c0-3.4 2.3-6.2 5.2-6.2 2.8 0 5.1 2.8 5.1 6.2"/><path id="XMLID_159_" class="st6" d="M89.7 79c0 3.4-2.3 6.2-5.1 6.2s-5.2-2.8-5.2-6.2c0-3.4 2.3-6.2 5.2-6.2 2.8 0 5.1 2.8 5.1 6.2"/></g><path id="XMLID_156_" class="st2" d="M23.4 76.3s11.2-11.7 15.3-15.6c.3-.2.7 0 .6.3-.2 1.6-.3 3.4-.4 4.5 0 .5.4.9.9.8 8-1.5 15.7-4.9 17.8-5.8.3-.1.5.1.5.4v3.8c0 .5.4.8.9.8 7.4-1.1 13.5-4.2 15.5-5.2.5-.3 1-.3 1.5-.1 3.8 1.4 8.4 4.1 10.1 5.1.4.2.8.1 1.1-.3.6-1.2 1.5-2.9 1.9-3.8.1-.2.4-.3.6-.1 6 5.9 14.7 15.4 14.7 15.4l6.2-19.9s-10-35.3-44.8-35.3S18 58.8 18 58.8l5.4 17.5z"/></g><g><radialGradient id="SVGID_5_" cx="64" cy="16.929" gradientTransform="matrix(1 0 0 .3778 0 10.533)" gradientUnits="userSpaceOnUse" r="43.043"><stop offset=".312" stop-color="#009eff"/><stop offset=".534" stop-color="#029fff"/><stop offset=".633" stop-color="#09a2ff"/><stop offset=".707" stop-color="#16a6ff"/><stop offset=".769" stop-color="#28adff"/><stop offset=".823" stop-color="#3fb6ff"/><stop offset=".872" stop-color="#5cc1ff"/><stop offset=".917" stop-color="#7fceff"/><stop offset=".959" stop-color="#a6ddff"/><stop offset=".997" stop-color="#d2edff"/><stop offset="1" stop-color="#d6efff"/></radialGradient><path d="M64 1C40 1 20.5 8.1 20.5 16.9S40 32.8 64 32.8s43.5-7.1 43.5-15.9S88 1 64 1zm0 18.5c-13.6 0-24.7-3.7-24.7-8.3 0-4.6 11-8.3 24.7-8.3 13.6 0 24.6 3.7 24.6 8.3 0 4.5-11 8.3-24.6 8.3z" fill="url(#SVGID_5_)"/><path d="M64 1C45.7 1 30.8 6 30.8 12.2c0 6.2 14.9 11.2 33.2 11.2 18.3 0 33.2-5 33.2-11.2C97.2 6 82.3 1 64 1zm0 18.5c-13.6 0-24.7-3.7-24.7-8.3 0-4.6 11-8.3 24.7-8.3 13.6 0 24.6 3.7 24.6 8.3 0 4.5-11 8.3-24.6 8.3z" fill="#cce8ff"/></g></g></svg>