<?xml version="1.0" encoding="utf-8"?>
<!-- Generator: Adobe Illustrator 19.2.1, SVG Export Plug-In . SVG Version: 6.00 Build 0)  -->
<svg version="1.1" id="レイヤー_1" xmlns="http://www.w3.org/2000/svg" xmlns:xlink="http://www.w3.org/1999/xlink" x="0px"
	 y="0px" viewBox="0 0 128 128" style="enable-background:new 0 0 128 128;" xml:space="preserve">
<g>
	<g>
		<g>
			<g>
				<g>
					<path style="fill:#F79329;" d="M33.94,29.91l-8.38,28.77c-5.88,0-9.88,0-10.77,0c-6.58,0-11.11,4.35-11.11,10.74
						c0,6.39,0,29.88,0,29.88h104.93V67.6v-8.92V29.91H33.94z"/>
				</g>
				<path style="fill:#2F2F2F;" d="M127.43,83.35c0,2.89-2.37,5.26-5.26,5.26h-6.32c-2.89,0-5.26-2.37-5.26-5.26v-31.5
					c0-2.9,2.37-5.26,5.26-5.26h6.32c2.89,0,5.26,2.37,5.26,5.26V83.35z"/>
				<path style="fill:#78A3AD;" d="M3.91,94.35c-1.83,0-3.33-1.5-3.33-3.33v-3.99c0-1.83,1.5-3.33,3.33-3.33h3.31
					c1.83,0,3.33,1.5,3.33,3.33v3.99c0,1.83-1.5,3.33-3.33,3.33H3.91z"/>
			</g>
		</g>
		<g>
			<path style="fill:#2F2F2F;" d="M51.05,103.82c0,9.62-7.8,17.4-17.41,17.4c-9.62,0-17.42-7.79-17.42-17.4
				c0-9.62,7.8-17.4,17.42-17.4C43.25,86.42,51.05,94.2,51.05,103.82z"/>
			<ellipse style="fill:#78A3AD;" cx="33.64" cy="103.82" rx="6.98" ry="6.97"/>
		</g>
		<g>
			<path style="fill:#2F2F2F;" d="M100.45,103.82c0,9.62-7.81,17.4-17.41,17.4c-9.62,0-17.42-7.79-17.42-17.4
				c0-9.62,7.8-17.4,17.42-17.4C92.64,86.42,100.45,94.2,100.45,103.82z"/>
			<ellipse style="fill:#78A3AD;" cx="83.03" cy="103.82" rx="6.98" ry="6.97"/>
		</g>
	</g>
	<rect x="78.82" y="37.51" style="fill:#40C0E7;" width="21.62" height="25.77"/>
	<polygon style="fill:#40C0E7;" points="40.52,37.51 63.99,37.51 63.99,63.28 33.36,63.28 34.74,57.83 	"/>
</g>
</svg>
