<?xml version="1.0" encoding="utf-8"?>
<!-- Generator: Adobe Illustrator 19.2.1, SVG Export Plug-In . SVG Version: 6.00 Build 0)  -->
<svg version="1.1" xmlns="http://www.w3.org/2000/svg" xmlns:xlink="http://www.w3.org/1999/xlink" x="0px" y="0px"
	 viewBox="0 0 128 128" style="enable-background:new 0 0 128 128;" xml:space="preserve">
<g id="レイヤー_1">
	<g>
		<path style="fill:#FCC21B;" d="M-96,10.92c-62.12,0-63.59,69.65-63.59,83.44c0,13.77,28.47,24.94,63.59,24.94
			c35.12,0,63.59-11.17,63.59-24.94C-32.41,80.57-33.87,10.92-96,10.92z"/>
		<path style="display:none;fill:#2F2F2F;" d="M-111.71,59.69c-0.17,0.26-4.25,6.53-13.16,6.53c-8.91,0-12.99-6.25-13.16-6.53
			c-0.81-1.29-0.44-3,0.85-3.81c1.28-0.83,2.98-0.44,3.81,0.84c0.09,0.15,2.71,3.97,8.5,3.97c5.81,0,8.47-3.93,8.49-3.96
			c0.82-1.29,2.53-1.68,3.81-0.85C-111.27,56.69-110.89,58.39-111.71,59.69z"/>
		<path style="display:none;fill:#ED6C30;" d="M-92.88,91.59c-1.01,4.78-3.81,7.57-6.62,7.87c-2.8,0.31-6.27-1.91-8.38-6.77
			c-3.63-8.32-2.34-20.87,5.73-20.85C-94.51,71.85-91.23,83.49-92.88,91.59z"/>
		<path style="display:none;fill:#2F2F2F;" d="M-64.97,59.75c-0.18,0.27-4.33,6.65-13.4,6.65c-9.09,0-13.22-6.4-13.39-6.65
			c-0.83-1.32-0.44-3.05,0.86-3.88c1.31-0.83,3.05-0.45,3.88,0.87c0.09,0.15,2.74,4.04,8.64,4.04c5.93,0,8.64-4,8.66-4.04
			c0.83-1.32,2.57-1.7,3.88-0.87C-64.53,56.71-64.14,58.43-64.97,59.75z"/>
		<path style="fill:#2F2F2F;" d="M-108.46,59.69c-0.17,0.26-4.25,6.53-13.16,6.53c-8.91,0-12.99-6.25-13.16-6.53
			c-0.81-1.29-0.44-3,0.85-3.81c1.28-0.83,2.98-0.44,3.81,0.84c0.09,0.15,2.71,3.97,8.5,3.97c5.81,0,8.47-3.93,8.49-3.96
			c0.82-1.29,2.53-1.68,3.81-0.85C-108.02,56.69-107.64,58.39-108.46,59.69z"/>
		<path style="fill:#2F2F2F;" d="M-56.76,59.75c-0.18,0.27-4.33,6.65-13.4,6.65c-9.09,0-13.22-6.4-13.39-6.65
			c-0.83-1.32-0.44-3.05,0.86-3.88c1.31-0.83,3.05-0.45,3.88,0.87c0.09,0.15,2.74,4.04,8.64,4.04c5.93,0,8.64-4,8.66-4.04
			c0.83-1.32,2.57-1.7,3.88-0.87C-56.32,56.71-55.93,58.43-56.76,59.75z"/>
	</g>
	<path style="display:none;fill:#2F2F2F;" d="M-116.41,45.73c-0.22-0.01-0.44-0.08-0.64-0.21c-0.58-0.38-0.73-1.16-0.35-1.73
		c1.99-3.03-0.56-6.78-0.59-6.82c-0.4-0.56-0.26-1.34,0.31-1.73c0.56-0.4,1.34-0.26,1.74,0.3c0.14,0.21,3.56,5.18,0.62,9.63
		C-115.56,45.55-115.98,45.75-116.41,45.73z"/>
	<path style="display:none;fill:#2F2F2F;" d="M-78.26,39.31c-0.65-0.03-1.17-0.55-1.18-1.21c-0.01-0.26-0.09-6.28,4.82-8.36
		c0.63-0.26,1.36,0.04,1.64,0.67c0.27,0.63-0.03,1.36-0.66,1.63c-3.35,1.4-3.31,5.96-3.32,6c0.01,0.7-0.52,1.26-1.22,1.27
		C-78.2,39.31-78.23,39.31-78.26,39.31z"/>
	<path style="display:none;fill:#2F2F2F;" d="M-76.99,80.77c-1.1,0-2.05,0.64-2.51,1.57c-0.36,0.69-7.25,13.41-20.48,13.41
		c-12.33,0-20.96-12.73-21.05-12.86c-0.85-1.28-2.58-1.62-3.85-0.77c-1.29,0.85-1.62,2.58-0.77,3.86
		c0.4,0.62,10.39,15.33,25.67,15.33c16.82,0,25.76-15.85,25.76-17.76C-74.21,82.02-75.46,80.77-76.99,80.77z"/>
	<path style="fill:#2F2F2F;" d="M-72.97,80.77c-1.1,0-2.05,0.64-2.51,1.57c-0.36,0.69-7.25,13.41-20.48,13.41
		c-12.33,0-20.96-12.73-21.05-12.86c-0.85-1.28-2.58-1.62-3.85-0.77c-1.29,0.85-1.62,2.58-0.77,3.86
		c0.4,0.62,10.39,15.33,25.67,15.33c16.82,0,25.76-15.85,25.76-17.76C-70.19,82.02-71.44,80.77-72.97,80.77z"/>
	<path style="fill:#FFFFFF;" d="M-68.64,39.67c2.08,3.42,6.32,6.5,10.18,3.68c3.88-2.83,4.05-7.76,0.68-12.4
		c-4.99-6.92-15.47-11.19-16.44-10.47C-75.18,21.19-73.68,31.5-68.64,39.67"/>
</g>
<g id="Layer_2">
	<g>
		<path style="fill:#FCC21B;" d="M64,10.81c-62.12,0-63.59,69.65-63.59,83.44c0,13.77,28.47,24.94,63.59,24.94
			c35.12,0,63.59-11.17,63.59-24.94C127.59,80.46,126.13,10.81,64,10.81z"/>
		<path style="display:none;fill:#2F2F2F;" d="M48.29,59.58c-0.17,0.26-4.25,6.53-13.16,6.53c-8.91,0-12.99-6.25-13.16-6.53
			c-0.81-1.29-0.44-3,0.85-3.81c1.28-0.83,2.98-0.44,3.81,0.84c0.09,0.15,2.71,3.97,8.5,3.97c5.81,0,8.47-3.93,8.49-3.96
			c0.82-1.29,2.53-1.68,3.81-0.85C48.73,56.58,49.11,58.29,48.29,59.58z"/>
		<path style="display:none;fill:#ED6C30;" d="M67.12,91.48c-1.01,4.78-3.81,7.57-6.62,7.87c-2.8,0.31-6.27-1.91-8.38-6.77
			c-3.63-8.32-2.34-20.87,5.73-20.85C65.49,71.74,68.77,83.39,67.12,91.48z"/>
		<path style="display:none;fill:#2F2F2F;" d="M95.03,59.65c-0.18,0.27-4.33,6.65-13.4,6.65c-9.09,0-13.22-6.4-13.39-6.65
			c-0.83-1.32-0.44-3.05,0.86-3.88c1.31-0.83,3.05-0.45,3.88,0.87c0.09,0.15,2.74,4.04,8.64,4.04c5.93,0,8.64-4,8.66-4.04
			c0.83-1.32,2.57-1.7,3.88-0.87C95.47,56.6,95.86,58.33,95.03,59.65z"/>
	</g>
	<path style="fill:#2F2F2F;" d="M87.07,80.67c-1.1,0-2.05,0.64-2.51,1.57c-0.36,0.69-7.25,13.41-20.48,13.41
		c-12.33,0-20.96-12.73-21.05-12.86c-0.85-1.28-2.58-1.62-3.85-0.77c-1.29,0.85-1.62,2.58-0.77,3.86
		c0.4,0.62,10.39,15.33,25.67,15.33c16.82,0,25.76-15.85,25.76-17.76C89.85,81.92,88.61,80.67,87.07,80.67z"/>
	<path style="fill:#FFFFFF;" d="M91.36,39.67c2.08,3.42,6.32,6.5,10.18,3.68c3.88-2.83,4.05-7.76,0.68-12.4
		c-4.99-6.92-15.47-11.19-16.44-10.47C84.82,21.19,86.32,31.5,91.36,39.67"/>
	<g>
		<defs>
			<path id="SVGID_1_" d="M76.04,44.64c-1.99,2.67-3.89,6.93-4.02,10.61c-0.35,9.08,6.18,16.7,14.58,17.01
				c8.37,0.31,15.44-6.8,15.78-15.88c0.02-0.7-0.12-1.85-0.17-2.53C98.2,50.66,87.91,46.09,76.04,44.64z"/>
		</defs>
		<use xlink:href="#SVGID_1_"  style="overflow:visible;fill:#FFFFFF;"/>
		<clipPath id="SVGID_2_">
			<use xlink:href="#SVGID_1_"  style="overflow:visible;"/>
		</clipPath>
		<path style="clip-path:url(#SVGID_2_);fill:#2F2F2F;" d="M86.04,43.85c3.46,1.49,5.32,5.07,4.13,8.03
			c-1.17,2.96-4.92,4.14-8.38,2.66c-3.46-1.48-5.31-5.09-4.13-8.04C78.83,43.56,82.58,42.37,86.04,43.85"/>
	</g>
	<g>
		<defs>
			<path id="SVGID_3_" d="M51.86,44.64c1.99,2.67,3.89,6.93,4.02,10.61c0.35,9.08-6.18,16.7-14.58,17.01
				c-8.37,0.31-15.44-6.8-15.78-15.88c-0.02-0.7,0.12-1.85,0.17-2.53C29.7,50.66,39.99,46.09,51.86,44.64z"/>
		</defs>
		<use xlink:href="#SVGID_3_"  style="overflow:visible;fill:#FFFFFF;"/>
		<clipPath id="SVGID_4_">
			<use xlink:href="#SVGID_3_"  style="overflow:visible;"/>
		</clipPath>
		<path style="clip-path:url(#SVGID_4_);fill:#2F2F2F;" d="M41.86,43.85c-3.46,1.49-5.32,5.07-4.13,8.03
			c1.17,2.96,4.92,4.14,8.38,2.66c3.46-1.48,5.31-5.09,4.13-8.04C49.07,43.56,45.32,42.37,41.86,43.85"/>
	</g>
</g>
</svg>
