<svg width="128" height="128" style="enable-background:new 0 0 128 128;" xmlns="http://www.w3.org/2000/svg" xmlns:xlink="http://www.w3.org/1999/xlink">
  <g>
    <linearGradient id="SVGID_1_" gradientUnits="userSpaceOnUse" x1="63.6445" x2="65.2452" y1="62.7755" y2="82.7842">
      <stop offset="0" style="stop-color:#A1887F"/>
      <stop offset="0.9951" style="stop-color:#EED1C2"/>
    </linearGradient>
    <path d="M24,74.62c7.13,2.88,14.97,2.51,22.46,1.77c7.68-0.75,15.4-2.1,23.13-1.24 c4.46,0.5,8.89,1.19,13.38,1.52c6.98,0.51,15.76,0.58,22.16-2.8C88.01,59.92,29.67,61.46,24,74.62z" style="fill:url(#SVGID_1_);"/>
  </g>
  <g style="opacity:0.2;">
    <path d="M64.3,7.22c3.55,0,7.05,0.47,10.43,1.4c20.99,5.79,36.12,25.04,36.8,46.8 c0.15,4.83-0.76,11.35-5.97,14.94c-0.45,0.31-0.96,0.61-1.6,0.95c-3.36,1.78-7.76,2.64-13.46,2.64c-1.86,0-3.83-0.08-6.4-0.27 c-2.83-0.2-5.73-0.57-8.53-0.93c-1.55-0.2-3.15-0.4-4.74-0.58c-1.79-0.2-3.63-0.3-5.62-0.3c-4.51,0-9,0.51-13.35,1.01 c-1.58,0.18-3.2,0.37-4.79,0.52c-3,0.29-6.21,0.57-9.4,0.57c-4.84,0-8.79-0.65-12.09-1.97c-0.06-0.03-0.13-0.05-0.2-0.08 c-8.09-3.36-9.06-11.78-8.91-16.5c0.25-8.13,2.45-16.06,6.36-22.96C31.4,17.36,48.06,7.22,64.3,7.22 M64.3,4.22 c-17.92,0-35.2,11.12-44.07,26.77c-4.21,7.42-6.49,15.82-6.75,24.35c-0.26,8.3,2.71,16.03,10.76,19.37 c0.08,0.03,0.15,0.06,0.23,0.09c4.14,1.67,8.67,2.19,13.21,2.19c3.28,0,6.56-0.27,9.7-0.58c5.93-0.58,11.88-1.51,17.84-1.51 c1.76,0,3.53,0.08,5.29,0.28c4.46,0.5,8.89,1.19,13.38,1.52c2.13,0.15,4.36,0.28,6.61,0.28c5.15,0,10.42-0.64,14.87-2.99 c0.65-0.34,1.29-0.71,1.9-1.13c5.75-3.96,7.48-10.84,7.27-17.5c-0.72-22.95-16.83-43.48-39-49.6C71.8,4.7,68.04,4.22,64.3,4.22 L64.3,4.22z" style="fill:#424242;"/>
  </g>
  <g>
    <g>
      <linearGradient id="SVGID_2_" gradientUnits="userSpaceOnUse" x1="64" x2="64" y1="61.1496" y2="113.4166">
        <stop offset="4.926108e-03" style="stop-color:#EED1C2"/>
        <stop offset="1" style="stop-color:#EECB92"/>
      </linearGradient>
      <path d="M76.29,82.53c-1-4.01-2-12.45-2-12.45s-3.49-2.53-10.97-2.49 c-4.38-0.09-9.75,2.45-9.75,2.45s-0.1,3.84-1.97,12.5c-1.93,8.98-4.99,18.57-3.64,27.83c0.05,0.32,0.13,0.63,0.19,0.94 c5.44,1.43,12.71-2.27,19.04-2.27c1.07,0,3.21,2.14,5.35,4.28c1.98,1.24,4.02,1.84,5.97,1.91 C82.83,105.88,78.53,91.49,76.29,82.53z" style="fill:url(#SVGID_2_);"/>
    </g>
    <path d="M67.2,109.03c-6.34,0-13.6,3.71-19.04,2.27c2.01,9.89,12.18,15.11,21.96,11.51 c4.24-1.56,6.87-4.26,8.41-7.6c-1.95-0.07-3.99-0.67-5.97-1.91C70.41,111.17,68.27,109.03,67.2,109.03z" style="fill:#EFEBE9;"/>
  </g>
  <g style="opacity:0.2;">
    <path d="M63.11,70.58l0.16,0c0.02,0,0.04,0,0.06,0c0.01,0,0.01,0,0.02,0l0.15,0c4.04,0,6.69,0.84,8.02,1.41 c0.34,2.68,1.09,8.15,1.87,11.27c0.19,0.75,0.39,1.55,0.6,2.37c2.12,8.26,5.32,20.74,1.81,28.33c-1.33,2.89-3.53,4.86-6.72,6.04 c-1.72,0.63-3.48,0.96-5.24,0.96c-6.38,0-11.5-4.12-12.74-10.25c-0.03-0.13-0.05-0.25-0.08-0.37c-0.03-0.13-0.06-0.27-0.08-0.4 c-1.02-6.99,0.74-14.46,2.45-21.69c0.39-1.67,0.8-3.4,1.16-5.08c1.17-5.42,1.67-9.05,1.88-11.07 C58.22,71.41,60.91,70.58,63.11,70.58L63.11,70.58 M63.11,67.58c-4.34,0-9.53,2.45-9.53,2.45s-0.1,3.84-1.97,12.5 c-1.93,8.98-4.99,18.57-3.64,27.83c0.05,0.32,0.13,0.63,0.19,0.94c1.58,7.76,8.19,12.65,15.68,12.65c2.05,0,4.17-0.37,6.27-1.14 c4.24-1.56,6.87-4.26,8.41-7.6c4.31-9.33,0.01-23.72-2.23-32.68c-1-4.01-2-12.45-2-12.45s-3.43-2.49-10.8-2.49 c-0.06,0-0.11,0-0.17,0C63.25,67.58,63.18,67.58,63.11,67.58L63.11,67.58z" style="fill:#424242;"/>
  </g>
  <path d="M75.65,41c-3.47-6-8.4-12.55-14.74-18.13c-11.21-0.25-8.2,8.99-8.2,8.99 S56.05,44,75.65,41C75.65,41,75.65,41,75.65,41z" style="opacity:0.5;fill:#FFFFFF;"/>
  <radialGradient id="SVGID_3_" cx="46.2446" cy="27.8944" gradientUnits="userSpaceOnUse" r="62.3555">
    <stop offset="4.926108e-03" style="stop-color:#FF7A86"/>
    <stop offset="0.8128" style="stop-color:#DE121C"/>
    <stop offset="1" style="stop-color:#EE000C"/>
  </radialGradient>
  <path d="M105.36,73.96c0.65-0.34,1.29-0.71,1.9-1.13c5.75-3.96,7.48-10.84,7.27-17.5 c-0.72-22.95-16.83-43.48-39-49.6c-21.58-5.95-44.58,6.35-55.3,25.26c-4.21,7.42-6.49,15.82-6.75,24.35 c-0.26,8.3,2.71,16.03,10.76,19.37c0.08,0.03,0.15,0.06,0.23,0.09C30.49,63.58,86.99,60.9,105.36,73.96z" style="fill:url(#SVGID_3_);"/>
  <g>
    <defs>
      <path id="SVGID_4_" d="M105.36,73.96c0.65-0.34,1.29-0.71,1.9-1.13c5.75-3.96,7.48-10.84,7.27-17.5 c-0.72-22.95-16.83-43.48-39-49.6c-21.58-5.95-44.58,6.35-55.3,25.26c-4.21,7.42-6.49,15.82-6.75,24.35 c-0.26,8.3,2.71,16.03,10.76,19.37c0.08,0.03,0.15,0.06,0.23,0.09C30.49,63.58,86.99,60.9,105.36,73.96z"/>
    </defs>
    <clipPath id="SVGID_5_">
      <use style="overflow:visible;" xlink:href="#SVGID_4_"/>
    </clipPath>
    <g style="clip-path:url(#SVGID_5_);">
      <ellipse cx="61.92" cy="35.14" rx="12.58" ry="8.77" style="fill:#FFD9CF;"/>
      <ellipse cx="28.4" cy="29.13" rx="9.93" ry="7.17" style="fill:#FFD9CF;"/>
      <ellipse cx="29.1" cy="56.07" rx="9.76" ry="8.04" style="fill:#FFD9CF;"/>
      <ellipse cx="95.46" cy="54.29" rx="8.19" ry="7.15" style="fill:#FFD9CF;"/>
      <ellipse cx="98.87" cy="24.51" rx="10" ry="14.49" style="fill:#FFD9CF;" transform="matrix(0.1869 -0.9824 0.9824 0.1869 56.3135 117.0533)"/>
      <ellipse cx="54.14" cy="8.71" rx="10.68" ry="7.78" style="fill:#FFD9CF;" transform="matrix(0.9288 -0.3707 0.3707 0.9288 0.63 20.6908)"/>
    </g>
  </g>
  <g style="opacity:0.2;">
    <path d="M64.3,7.22c3.55,0,7.06,0.47,10.43,1.4c20.99,5.79,36.12,25.04,36.8,46.8 c0.15,4.83-0.76,11.35-5.97,14.94c-0.04,0.03-0.08,0.05-0.12,0.08c-8.59-5.16-23.84-8.21-41.47-8.21 c-15.02,0-33.57,2.36-40.35,8.83c-6.48-3.78-7.29-11.28-7.15-15.63c0.25-8.13,2.45-16.06,6.36-22.96 C31.4,17.36,48.06,7.22,64.3,7.22 M64.3,4.22c-17.92,0-35.2,11.12-44.07,26.77c-4.21,7.42-6.49,15.82-6.75,24.35 c-0.26,8.3,2.71,16.03,10.76,19.37c0.08,0.03,0.15,0.06,0.23,0.09c3.23-6,20.94-9.56,39.52-9.56c16.1,0,32.85,2.67,41.38,8.74 c0.65-0.34,1.29-0.71,1.9-1.13c5.75-3.96,7.48-10.84,7.27-17.5c-0.72-22.95-16.83-43.48-39-49.6C71.8,4.7,68.04,4.22,64.3,4.22 L64.3,4.22z" style="fill:#424242;"/>
  </g>
</svg>