<?xml version="1.0" encoding="utf-8"?>
<!-- Generator: Adobe Illustrator 19.2.1, SVG Export Plug-In . SVG Version: 6.00 Build 0)  -->
<svg version="1.1" id="レイヤー_1" xmlns="http://www.w3.org/2000/svg" xmlns:xlink="http://www.w3.org/1999/xlink" x="0px"
	 y="0px" viewBox="0 0 128 128" style="enable-background:new 0 0 128 128;" xml:space="preserve">
<g>
	<g>
		<g>
			<g>
				<path style="fill:#FCC21B;" d="M127.49,76.49c0,27.54-20.01,49.86-63.5,49.86c-43.49,0-63.49-22.32-63.49-49.86
					c0-27.53,23.03-53.99,63.49-53.99S127.49,48.96,127.49,76.49z"/>
			</g>
		</g>
		<path style="fill:#757F3F;" d="M70.2,34.37c0,3.83-3.92,6.94-8.74,6.94c-4.84,0-8.75-3.1-8.75-6.94c0-3.84,3.91-6.95,8.75-6.95
			C66.29,27.43,70.2,30.53,70.2,34.37z"/>
	</g>
	<path style="fill:#757F3F;" d="M86.5,2.27c8.01-1.67,16.71,0.25,24.17,3.41c0.92,0.39,2.53,0.82,3.07,1.58
		c0.88,1.25,0.31,2.9-0.02,4.25c-4.83,19.3-28.67,32.09-46.99,22.86c-2.39-1.2-1.74-4.02-1.7-6.35c0.22-9.32,5.67-17.93,13.59-22.69
		C81.11,3.83,83.76,2.84,86.5,2.27z"/>
	<path style="fill:#FFFFFF;" d="M37.78,57.81c-5.43-1.58-7.7,4.87-4.38,6.96c0.67,0.42,1.58,0.67,2.75,0.63
		C40.79,65.23,42.96,59.32,37.78,57.81z"/>
	<path style="fill:#FFFFFF;" d="M84.25,74.35c-3.04-2.79-8.79-0.19-7.03,4.12l0.07,0.17C79.66,83.82,89.55,79.21,84.25,74.35z"/>
	<path style="fill:#FFFFFF;" d="M85.33,55.31l-0.01,0.18c-0.33,5.69,10.58,6.21,8.14-0.56C92.07,51.05,85.78,50.67,85.33,55.31z"/>
	<path style="fill:#FFFFFF;" d="M23.56,86.91l-0.05,0.17c-1.49,5.51,9.06,8.27,8.08,1.14C31.04,84.14,24.95,82.47,23.56,86.91z"/>
	<path style="fill:#FFFFFF;" d="M102.38,78.32l0.09,0.16c2.57,4.65,10.91-0.77,5.86-4.95C105.34,71.05,100.42,74.2,102.38,78.32z"/>
	<path style="fill:#FFFFFF;" d="M51.54,105.16l0.01,0.18c0.35,5.3,10.2,3.97,7.42-1.97C57.33,99.85,51.54,100.6,51.54,105.16z"/>
	<path style="fill:#FFFFFF;" d="M85.58,102.01l0.08,0.16c2.57,4.65,10.91-0.76,5.87-4.95C88.54,94.75,83.61,97.9,85.58,102.01z"/>
	<path style="fill:#FFFFFF;" d="M55.71,71.25c-2.98-2.47-7.91,0.68-5.96,4.79l0.09,0.16C52.43,80.84,60.76,75.44,55.71,71.25z"/>
</g>
</svg>
