<?xml version="1.0" encoding="utf-8"?>
<!-- Generator: Adobe Illustrator 19.2.1, SVG Export Plug-In . SVG Version: 6.00 Build 0)  -->
<svg version="1.1" id="レイヤー_1" xmlns="http://www.w3.org/2000/svg" xmlns:xlink="http://www.w3.org/1999/xlink" x="0px"
	 y="0px" viewBox="0 0 128 128" style="enable-background:new 0 0 128 128;" xml:space="preserve">
<g>
	<path style="fill:#40C0E7;" d="M126.01,59.7h-13.46l10.57-10.57c0.26-0.26,0.41-0.62,0.41-0.98c0-0.37-0.15-0.73-0.41-0.99
		L119,43.04c-0.55-0.54-1.43-0.54-1.97,0L100.38,59.7H74.39l18.38-18.38h23.55c0.77,0,1.39-0.62,1.39-1.39V34.1
		c0-0.36-0.14-0.72-0.41-0.98c-0.26-0.27-0.61-0.41-0.98-0.41h-14.95l9.52-9.51c0.26-0.26,0.41-0.62,0.41-0.98
		c0-0.37-0.15-0.73-0.41-0.99l-4.12-4.12c-0.54-0.54-1.43-0.54-1.97,0l-9.52,9.53V11.68c0-0.36-0.14-0.72-0.41-0.98
		c-0.26-0.27-0.61-0.41-0.98-0.41h-5.82c-0.77,0-1.39,0.62-1.39,1.39v23.55L68.3,53.61V27.62l16.66-16.65
		c0.54-0.55,0.54-1.42,0-1.97l-4.12-4.12c-0.26-0.26-0.61-0.41-0.98-0.41s-0.73,0.15-0.98,0.41L68.3,15.45V1.99
		c0-0.77-0.62-1.39-1.39-1.39h-5.82c-0.77,0-1.39,0.62-1.39,1.39v13.46L49.13,4.88c-0.52-0.53-1.45-0.53-1.97,0L43.04,9
		c-0.54,0.55-0.54,1.42,0,1.97l16.65,16.65v25.99L41.32,35.23V11.68c0-0.77-0.62-1.39-1.39-1.39H34.1c-0.37,0-0.72,0.14-0.98,0.41
		c-0.26,0.26-0.41,0.61-0.41,0.98v14.94L23.2,17.1c-0.54-0.54-1.43-0.54-1.97,0l-4.12,4.12c-0.54,0.55-0.54,1.43,0,1.97l9.52,9.51
		H11.68c-0.77,0-1.39,0.62-1.39,1.39v5.83c0,0.37,0.14,0.72,0.41,0.98c0.26,0.27,0.62,0.41,0.98,0.41h23.55L53.61,59.7H27.62
		L10.97,43.04c-0.54-0.54-1.43-0.54-1.97,0l-4.12,4.12c-0.26,0.26-0.41,0.61-0.41,0.99c0,0.36,0.14,0.72,0.41,0.98L15.45,59.7H1.99
		c-0.77,0-1.39,0.63-1.39,1.39v5.82c0,0.77,0.62,1.39,1.39,1.39h13.46L4.88,78.86c-0.26,0.27-0.41,0.61-0.41,0.99
		c0,0.36,0.14,0.72,0.41,0.98L9,84.95c0.27,0.28,0.63,0.41,0.98,0.41c0.35,0,0.71-0.13,0.98-0.41L27.62,68.3h25.99L35.23,86.68
		H11.68c-0.77,0-1.39,0.62-1.39,1.39l0,5.82c0,0.37,0.15,0.73,0.41,0.99c0.26,0.26,0.61,0.4,0.98,0.4h14.95l-9.52,9.51
		c-0.54,0.55-0.54,1.43,0,1.97l4.12,4.12c0.27,0.27,0.62,0.41,0.98,0.41c0.35,0,0.71-0.14,0.98-0.41l9.52-9.52v14.95
		c0,0.37,0.14,0.72,0.41,0.98c0.26,0.26,0.61,0.41,0.98,0.41l5.82-0.01c0.77,0,1.39-0.62,1.39-1.39V92.77l18.37-18.38v25.99
		l-16.65,16.65c-0.54,0.54-0.54,1.42,0,1.97l4.12,4.12c0.26,0.26,0.61,0.4,0.98,0.4c0.37,0,0.73-0.14,0.98-0.4l10.57-10.57v13.46
		c0,0.77,0.62,1.39,1.39,1.39h5.82c0.77,0,1.39-0.63,1.39-1.39v-13.46l10.57,10.57c0.26,0.26,0.61,0.4,0.98,0.4s0.72-0.14,0.98-0.4
		l4.12-4.12c0.54-0.55,0.54-1.43,0-1.97L68.3,100.38v-26l18.38,18.38v23.55c0,0.77,0.62,1.39,1.39,1.39h5.82
		c0.37,0,0.73-0.14,0.98-0.4c0.26-0.26,0.41-0.61,0.41-0.99v-14.94l9.52,9.52c0.27,0.27,0.62,0.41,0.98,0.41
		c0.36,0,0.71-0.14,0.98-0.41l4.11-4.12c0.26-0.26,0.41-0.61,0.41-0.98c0-0.38-0.14-0.72-0.41-0.99l-9.52-9.51h14.94
		c0.77,0,1.39-0.63,1.39-1.39v-5.82c0-0.77-0.62-1.39-1.39-1.39H92.77L74.39,68.3h25.99l16.65,16.65c0.27,0.28,0.63,0.41,0.98,0.41
		c0.35,0,0.71-0.13,0.98-0.41l4.12-4.12c0.26-0.26,0.41-0.61,0.41-0.98c0-0.38-0.15-0.72-0.41-0.99L112.55,68.3h13.46
		c0.77,0,1.39-0.62,1.39-1.39v-5.82C127.4,60.32,126.78,59.7,126.01,59.7z"/>
</g>
</svg>
