<?xml version="1.0" encoding="utf-8"?>
<!-- Generator: Adobe Illustrator 16.0.0, SVG Export Plug-In . SVG Version: 6.00 Build 0)  -->
<!DOCTYPE svg PUBLIC "-//W3C//DTD SVG 1.1//EN" "http://www.w3.org/Graphics/SVG/1.1/DTD/svg11.dtd">
<svg version="1.1" id="レイヤー_1" xmlns="http://www.w3.org/2000/svg" xmlns:xlink="http://www.w3.org/1999/xlink" x="0px"
	 y="0px" width="128px" height="128px" viewBox="0 0 128 128" enable-background="new 0 0 128 128" xml:space="preserve">
<g>
	<g>
		<path fill="#B89278" d="M17.3,89.84c-2.25,0.1-9.82-2.02-12.46-5.46c-1.27-1.65-2.06-8.25,0.94-11.85
			c3.25-3.91,10.37-4.78,10.37-4.78L17.3,89.84z"/>
		<path fill="#B89278" d="M106.56,89.84c2.25,0.1,9.82-2.02,12.46-5.46c1.27-1.65,2.06-8.25-0.94-11.85
			c-3.25-3.91-10.37-4.78-10.37-4.78L106.56,89.84z"/>
	</g>
	<g>
		<g>
			<path fill="#855C52" d="M108.64,93.9c5.13,0.47,9.64,2.84,12.01,7.62c1.09,2.2,1.78,4.84,2.09,7.27
				c0.27,2.12-0.31,6.34,1.44,7.96c0.79,0.74,2.49,0.95,2.91,2.02c1.15,2.94-5.42,5.69-7.1,6.13c-11.1,2.9-26.08-1.87-28.25-14.75
				C90.09,100.4,99.2,93.04,108.64,93.9z"/>
		</g>
		<g>
			<g>
				<g>
					<path fill="#855C52" d="M19.36,95.29c-5.13,0.47-9.63,2.84-12,7.62c-1.1,2.21-1.78,4.84-2.09,7.28
						c-0.27,2.12,0.3,6.34-1.45,7.96c-0.8,0.74-2.49,0.96-2.91,2.03c-1.14,2.94,5.42,5.69,7.1,6.13
						c11.09,2.91,26.07-1.87,28.25-14.75C37.91,101.78,28.79,94.43,19.36,95.29z"/>
				</g>
				<g>
					<g>
						<g>
							<path fill="#FCD4B5" d="M97,37.95c-8.34-9.85-22.7-14.07-34.86-14.07c-12.15,0-26.51,4.22-34.85,14.07
								c-8.15,9.63-12.43,22.06-12.37,38.75c0.06,13.46,2.91,23.18,13.21,31.32c9.53,7.54,22.06,11.05,34.01,11.05
								c11.95,0,24.83-3.39,34.02-11.05c10.07-8.4,13.14-17.87,13.2-31.32C109.42,60.01,105.14,47.57,97,37.95z"/>
						</g>
						<g>
							<g>
								<g>
									<g>
										<path fill="#FCD4B5" d="M106.92,65.16c2.55-0.63,5.84-0.28,8.34,0.61c6.39,2.31,8.51,9.02,7.66,14.88
											c-0.68,4.66-3.47,8.36-9.77,10.3c-3.79,1.16-6.88,0.04-6.88,0.04s1.18-4.15,1.56-5.61c6.08,1.97,9.39-1.59,9.44-7.22
											c0.09-9.08-10.33-7.1-10.33-7.1S106.69,66.82,106.92,65.16z"/>
									</g>
									<g>
										<path fill="#FCD4B5" d="M17.57,65.16c-2.55-0.63-5.84-0.28-8.33,0.61c-6.42,2.31-8.52,9.02-7.67,14.88
											c0.68,4.66,3.45,8.36,9.76,10.3c3.8,1.16,6.88,0.04,6.88,0.04s-1.17-4.15-1.55-5.61c-6.08,1.97-9.39-1.59-9.44-7.22
											c-0.11-9.08,10.33-7.1,10.33-7.1S17.79,66.82,17.57,65.16z"/>
									</g>
								</g>
								<g>
									<path fill="#2F2F2F" d="M68,91.01c-0.14-0.12-0.33-0.2-0.55-0.23c-0.2-0.03-0.41,0.03-0.61,0.05
										c-0.56,0.07-1.12,0.4-1.66,0.57c-1.3,0.38-2.71,0.56-4.06,0.33c-1.12-0.18-2.14-0.48-3.23-0.72
										c-0.41-0.09-0.79-0.01-1.08,0.32c-0.68,0.79-0.16,1.57,0.51,2.13c2.27,1.89,6.08,2.27,8.65,0.83
										c0.71-0.4,1.57-1.04,2.03-1.73c0.23-0.33,0.42-0.76,0.26-1.16C68.22,91.24,68.12,91.11,68,91.01z"/>
								</g>
							</g>
							<g>
								<path fill="#2F2F2F" d="M63.05,106.76c-2.64,0.03-5.33-0.59-7.5-1.72c-1.09-0.57-2.22-1.36-3.09-2.25
									c-0.87-0.9-1.71-2.51-0.7-3.62c0.83-0.89,2.07,0.01,2.85,0.46c2.28,1.31,4.88,2.27,7.5,2.39c2.92,0.14,5.28-0.81,7.79-2.2
									c0.71-0.4,2.13-1.38,2.97-0.84c2.1,1.34-0.39,3.75-1.47,4.72C69.1,105.79,66.11,106.74,63.05,106.76z"/>
							</g>
							<g>
								<g>
									<path fill="#2F2F2F" d="M45.04,81.96c0,4.16-3.02,7.54-6.75,7.54c-3.72,0-6.75-3.38-6.75-7.54s3.03-7.53,6.75-7.53
										C42.02,74.43,45.04,77.8,45.04,81.96z"/>
								</g>
							</g>
							<g>
								<g>
									<path fill="#2F2F2F" d="M78.96,81.96c0,4.16,3.02,7.54,6.75,7.54c3.72,0,6.75-3.38,6.75-7.54s-3.02-7.53-6.75-7.53
										C81.99,74.43,78.96,77.8,78.96,81.96z"/>
								</g>
							</g>
						</g>
					</g>
				</g>
				<g>
					<path fill="#855C52" d="M19.72,18.58c-5.8,6.14-10.59,13.77-12.51,22.1c-0.93,4.02-1.07,8.19-0.64,12.28
						c0.36,3.4,1.06,6.76,2.27,9.96c0.82,2.19,1.95,4.18,3.08,6.21c0.54,1,2.43,5.54,4.14,4.39c0.96-0.64,1.76-1.73,2.49-2.62
						c2-2.47,3.57-5.4,6.01-7.49c1.66-1.42,3.11-0.73,4.92,0.12c2.1,0.98,4.33,2.51,6.74,1.79c3.33-0.99,5.38-5.67,9.23-4.17
						c4.02,1.56,8.07,4.54,12.3,2.23c1.5-0.82,2.93-1.7,4.52-2.35c1.24-0.51,2.38-1.35,3.81-1.08c1.36,0.26,2.5,1.23,3.7,1.88
						c1.65,0.89,3.78,2.22,5.64,2.44c2.32,0.28,4.46-0.71,6.56-1.55c1.78-0.71,3.49-2.1,5.43-2.32c2.04-0.23,4.33,1.1,5.95,2.25
						c1.33,0.96,2.65,1.82,4.37,1.62c1.62-0.19,2.86-1.53,4.44-1.71c2.02-0.24,3.09,1.8,3.97,3.38c0.59,1.08,0.79,2.35,1.4,3.44
						c1.55,2.72,2.87,0.93,4.27-0.74c1.88-2.26,3.53-4.73,4.45-7.55c0.99-3.07,1.5-6.28,1.74-9.49c0.23-2.98,0.23-5.99-0.01-8.97
						c-0.71-8.72-4.51-16.83-10.22-23.32C96.61,6.63,79.28,0.55,62.82,0.89c-8.26,0.17-18.46,1.58-26.01,5.17
						C30.67,8.96,24.71,13.29,19.72,18.58z"/>
				</g>
			</g>
		</g>
	</g>
</g>
</svg>
