<svg xmlns="http://www.w3.org/2000/svg" viewBox="0 0 128 128"><g fill="#70b2e2"><path d="M29.8 78.53c-.23-.09-.47-.13-.72-.11-1.43.1-8.9 6.76-10.86 11.57-1.33 3.27.25 7.03 3.53 8.36a6.437 6.437 0 0 0 8.37-3.53c1.46-3.63 1.87-15.39-.32-16.29M42.06 102.06c-.23-.1-.48-.14-.73-.12-1.43.1-8.9 6.76-10.86 11.58-1.33 3.27.25 7.03 3.53 8.36a6.437 6.437 0 0 0 8.37-3.53c1.48-3.64 1.88-15.4-.31-16.29M66.71 82.67c-.23-.09-.47-.13-.72-.11-1.43.1-8.9 6.76-10.86 11.57-1.33 3.28.25 7.03 3.53 8.36 3.28 1.33 7.03-.25 8.36-3.53 1.48-3.63 1.88-15.39-.31-16.29M80.3 104.08c-.23-.09-.47-.13-.72-.11-1.43.1-8.91 6.76-10.87 11.57-1.33 3.27.25 7.03 3.53 8.36 3.28 1.33 7.04-.25 8.37-3.53 1.48-3.63 1.88-15.39-.31-16.29M101.54 83.67c-.23-.09-.48-.13-.73-.11-1.43.1-8.91 6.76-10.87 11.57-1.33 3.28.25 7.03 3.53 8.36 3.28 1.33 7.03-.25 8.36-3.53 1.49-3.64 1.89-15.4-.29-16.29"/></g><path d="M107.92 29.99s-.01 0 0 0c-.01-.07 0-.13 0-.2 0-9.09-7.37-16.47-16.47-16.47-1.17 0-2.31.13-3.41.36C84.78 5.74 76.98.14 67.86.14c-6.85 0-12.95 3.16-16.95 8.09a18.848 18.848 0 0 0-8.57-2.06c-9.85 0-17.95 7.51-18.89 17.11C12.73 23.85 4.14 32.63 4 43.53c-.15 11.35 8.94 20.67 20.29 20.82.88.01 1.75-.05 2.6-.15 4.39 9.25 13.8 15.65 24.72 15.65 6.59 0 12.63-2.33 17.35-6.21 3.61 2.67 8.06 4.27 12.9 4.27 9.92 0 18.27-6.66 20.87-15.74 1.64.54 3.38.85 5.2.85 9.12 0 16.52-7.39 16.52-16.52-.01-9.12-7.41-16.51-16.53-16.51z" fill="#e3ebee"/><path d="M117.62 33.14c3.74 3.78 1.1 12.45-1.48 15.27-5.06 5.55-14.36 4.25-18.09 3.45-1.01-.22-1.17-.14-1.5.06-.29.18-.43.47-.75 1.15-1.2 2.59-4.3 7.61-10.85 9.63-6.82 2.11-13.26-1.1-16.27-3.02-1.14-.73-1.19-.74-1.71-.74s-1.04.39-1.66.88c-2.72 2.14-8.94 5.92-18.53 5.37-9.4-.54-14.78-6.34-16.62-9.31-.35-.57-.74-1.05-1.17-1.1-.5-.05-1.06.47-1.49.88-4 3.9-16.58 5.06-20.76-1.57 4.24 6.81 10.8 10.18 17.53 10.26.88.01 1.75-.05 2.6-.15 4.39 9.25 13.8 15.65 24.72 15.65 6.59 0 12.63-2.33 17.35-6.21 3.61 2.67 8.06 4.27 12.9 4.27 9.92 0 18.27-6.66 20.87-15.74 1.64.54 3.38.85 5.2.85 9.12 0 16.52-7.39 16.52-16.52.01-4.86-2.44-10.34-6.81-13.36z" fill="#b9cdd2"/></svg>