<?xml version="1.0" encoding="utf-8"?>
<!-- Generator: Adobe Illustrator 24.1.2, SVG Export Plug-In . SVG Version: 6.00 Build 0)  -->
<svg version="1.1" id="Layer_2" xmlns="http://www.w3.org/2000/svg" xmlns:xlink="http://www.w3.org/1999/xlink" x="0px" y="0px"
	 viewBox="0 0 128 128" style="enable-background:new 0 0 128 128;" xml:space="preserve">
<g>
	<path style="fill:#A06841;" d="M77.37,19.32C46.83,3.21,19.03,14.69,9.01,30.38c-3.28,5.13-5.09,13.85-5,21.24
		c0.18,15.23,8.1,32.82,26.29,49.94c22.38,21.06,45.22,19.22,52.48,17.45c9.14-2.23,15.36-4.35,14.42-12.86
		c-0.52-4.69-15.56-5.98-21.55-14.9c-6.64-9.89,1.62-10.39,9.53-6.16c8.47,4.53,13.31,7.36,21.81,6.58c4.45-0.41,10.34-2,14.19-7.17
		c1.91-2.56,2.85-5.2,2.83-11.24C123.97,63.68,110.73,36.92,77.37,19.32z M92.45,73.23c-2.28,2.45-7.2,1.72-10.99-1.64
		c-3.79-3.36-5.02-8.08-2.74-10.53c2.28-2.45,7.2-1.72,10.99,1.64C93.49,66.06,94.72,70.77,92.45,73.23z"/>
	<path style="fill:#E6A467;" d="M79.01,15.52c-30.54-16.11-58.4-3.65-68.43,12.04C0.56,43.25,4.92,72.33,31.94,97.75
		c22.38,21.06,45.22,19.22,52.48,17.45c9.14-2.23,15.59-6.58,11.57-12.13c-2.77-3.83-12.7-6.72-18.69-15.64
		c-6.64-9.89,1.62-10.39,9.53-6.16c8.47,4.53,13.31,7.36,21.81,6.58c6.23-0.57,15.65-5.39,15.37-15.13
		C123.71,63.15,112.38,33.12,79.01,15.52z M94.09,69.42c-2.28,2.45-7.2,1.72-10.99-1.64c-3.79-3.36-5.02-8.08-2.74-10.53
		c2.28-2.45,7.2-1.72,10.99,1.64C95.14,62.26,96.37,66.97,94.09,69.42z"/>
	<g style="opacity:0.36;">
		<path style="fill:#DE7340;" d="M41.97,49.6c6.54,4.25,13.54,8.29,21.29,9.16c2.52,0.28,5.34,0.12,7.19-1.62
			c3.04-2.87,1.64-7.94-0.38-11.59C60.48,29.29,41.89,8.63,41.89,8.63l-3.9,0.76c0,0,6.78,11.85,7.99,14.29
			c2.35,4.74,4.53,9.57,6.53,14.47c0.51,1.26,0.5,2.57,0.07,3.86c-0.39,1.16-3.42,1.56-5.53,0.6c-1.65-0.75-20.66-10.58-21.35-10.95
			c-2.63-1.43-12.31-7.9-12.31-7.9s-2.4,2.93-3.16,4.36c1.52,1.66,3.11,2.73,4.88,4.06c6.06,4.57,12.23,7.36,18.44,11.73
			C36.34,45.86,39.14,47.76,41.97,49.6z"/>
		<path style="fill:#DE7340;" d="M41.23,27.41c0-4.14-6.84-15.57-8.31-16.54l-1.48,0.54l-1.5,0.6c0,0,4.17,4.74,4.31,9.53
			c0.01,0.47,0.38,2.26-2.68,1.32c-2.84-0.87-6.75-4.22-11.33-5.38l-2.35,1.85c0,0,5.34,2.67,6.55,3.55
			c4.63,3.39,7.75,5.95,11.34,7.28C39.37,31.49,41.23,30.47,41.23,27.41z"/>
		<path style="fill:#DE7340;" d="M30.4,52.83c9.7,5.65,20.75,14.22,25.91,21.85c21.34,31.51,30.11,40.03,30.11,40.03
			c-3.15,1.07-8.29,1.5-8.29,1.5c-0.79-0.54-3.34-3.97-4.85-6.05c-7.99-10.99-13.79-23.61-23.13-33.48
			C38.66,64.53,20.43,56.32,5.65,48.5c0,0-0.51-5.8,1.34-12.68C6.99,35.81,27.78,51.3,30.4,52.83z"/>
		<path style="fill:#DE7340;" d="M66.72,29.89c7.3,6.84,15.7,12.45,24.52,17.19c10.37,5.56,16.98,11.31,21.98,19.98
			c-1.59-8.56-7.76-15.59-14.63-20.94c-6.87-5.35-14.65-9.48-21.37-15.01c-3.03-2.49-5.81-5.36-7.69-8.81
			c-3.23-5.9-2.73-11.81-2.73-11.81c-5.15-1.62-11.02-2.2-11.02-2.2C56.67,13.58,57.88,21.61,66.72,29.89z"/>
		<path style="fill:#DE7340;" d="M52.12,96.69c-8.23-10.08-16.97-11.9-23.72-18.24c-5.29-4.96-17.66-18.72-18.67-20.46
			c1.76-0.04,15.31,7,18.39,9.37c3.25,2.49,11.51,10.21,16.98,17.54C49.93,91.38,51.9,96.23,52.12,96.69z"/>
		<g>
			<path style="fill:#DE7340;" d="M86.41,56.14c0,0-6.76-4.84-12.93-14.07c1.35,5.51,3.54,10.54,7.71,14.49
				C83.8,55.19,86.41,56.14,86.41,56.14z"/>
			<path style="fill:#DE7340;" d="M113.22,76.45c-4.73-5.3-13.49-11.07-18.92-12.56c0,0,0.77,3.25,0,5.04
				c2.45,0.5,8.69,4.35,11.68,8.3c4.82,6.35,7.75,9.38,7.75,9.38s1.42-0.41,3.36-1.62c0.31-0.19,2.49-1.87,2.73-2.15
				C120.08,82.56,119.16,83.11,113.22,76.45z"/>
		</g>
	</g>
	<path style="fill:#EEEEEE;" d="M47.48,85.31c1.24-1.86,3.05-1.33,5.1-1.88c1.5-0.4,2.73-1.09,3.75-1.3
		c3.26-0.55,3.83,4.08,5.01,5.78c1.18,1.7,4.09,2.52,3.94,6.56C64.8,107.65,39.52,97.22,47.48,85.31z"/>
	<path style="fill:#2686C6;" d="M24.36,60.93c1.38-1.56,3.7-2.1,5.68-1.93c1.11,0.09,2.81-1.03,5.93,0.19
		c2.92,1.15,3.31,3.53,4.78,4.61c1.98,1.56,4.07,0.53,5.27,3.86c1.01,2.78-3.2,3.04-3.69,5.54c-0.36,0.66-1.24,2.67-5.07,2.94
		s-4.85-0.62-8.43-3.01C24.85,70.47,21.24,64.46,24.36,60.93z"/>
	<path style="fill:#F44336;" d="M24.11,32.7c0.5-3.3,2.86-3.58,3.75-3.48c3.06,0.32,2.59,1.64,4.28,0.69c0.74-0.46,1.72-2.3,4-2.31
		c2.28-0.02,3.81,2.68,5.71,6.33c1.28,2.47,2.43,1.58,4.16,3.77C48,39.91,47.17,42.2,44,43c-1.74,0.44-2.39,2.05-3.9,2.79
		C31.91,49.83,22.81,41.33,24.11,32.7z"/>
	<path style="fill:#FFEE58;" d="M52.5,21.07c1.1-3.24,6.99-3.81,10.49-1.78c0.76,0.44,2.29,1.31,4.47,5.29
		c0.58,1.46,2.04,1.93,3.1,2.92c1.77,1.65,2.79,3.75-0.52,6.92c-4.84,4.64-14.04,3.11-16.02-1.72c-1.99-4.83,2.43-4.45-1-9.11
		C52.61,22.81,52.3,21.92,52.5,21.07z"/>
	<path style="fill:#7CB342;" d="M82.91,33.97c2.04,0.14,2.79,0.72,3.96,0.59c1.64-0.18,2.61-1.95,4.12-2.61
		c1.18-0.51,2.66-0.24,3.57,0.67c1.32,1.3,1.31,3.45,2.3,5.02c0.81,1.28,2.45,1.47,3.61,2.44c1.96,1.81,1.4,4.68,0.24,6.58
		s-3.2,3.49-6.4,3.76c-5.42,0.46-6.15-4.02-10.01-5.23c-3.24-1.02-4.55-4.33-4.32-7.57C80.4,34.31,82.22,33.93,82.91,33.97z"/>
	<path style="fill:#B0BEC5;" d="M64.09,96.99c-2.89,4.01-8.76,3.04-12.83,0.08c-3.87-2.81-6.23-8.38-2.65-11.24
		c1.54-1.23,2.71-0.16,5.73-2.13c2.01-1.31,3.56-1.39,3.56-1.39c-2.21-1.08-5.38,1.38-7.62,1.38c-2.91,0.09-5,2.11-5.24,5
		C42.67,99.75,66.4,108.53,65.39,94C65.1,95.05,64.7,96.09,64.09,96.99z"/>
	<path style="fill:#01579B;" d="M45.35,66.33c1.15,3.16-2.13,3.45-3.38,5.53c-4.4,9.83-22.57-3.98-16.38-11.25
		c0.43-0.51,1.67-1.42,1.67-1.42c-1.29,0.18-2.88,1.25-3.65,2.26c-5.83,7.76,14.27,22.92,19.78,11.86
		C44.56,70.78,47.98,69.45,45.35,66.33z"/>
	<path style="fill:#01579B;" d="M37.37,61.95c0.09,1.28-1.61,2.37-1.27,3.52c1.83,1.25,3.48-1.15,5.22-1.14
		c-1.88-1.64-2.62-4.57-5.41-5.14C36.94,59.74,37.59,60.76,37.37,61.95z"/>
	<g>
		<path style="fill:#C62828;" d="M33.08,31.1c2.21-0.43,2.53-1.64,3.85-1.68s0.85-1.35,0.33-1.61c-0.52-0.26-1.11-0.22-1.11-0.22
			c-1.56-0.03-2.63,0.87-3.59,1.98c-0.34,0.25-0.58,0.5-1.34,0.64c-0.17,0.03-0.17,0.21-0.04,0.31
			C31.69,30.98,32.41,31.23,33.08,31.1z"/>
		<path style="fill:#C62828;" d="M46.29,40.6c-0.83,0.8-2.05,0.77-3.09,1.09c-2.71,1.13-4.95,3.4-9.11,2.92
			c-4.4-0.5-9.84-6.61-8.36-13.14c0.35-1.56,1.93-2.27,1.93-2.27c-1.98-0.29-3.35,1.79-3.54,3.5c-1.36,8.73,8.03,17.14,15.98,13.1
			c1.51-0.74,2.16-2.35,3.9-2.79c2.21-0.56,3.28-1.84,3.06-3.32C46.82,40.02,46.61,40.33,46.29,40.6z"/>
	</g>
	<path style="fill:#FBC02D;" d="M69.03,33.23c-1.52,1.43-4.04,1.98-6.47,1.98c-3.1,0-5.92-1.38-6.71-3.28
		c-0.61-1.48-0.4-2.01-0.05-2.87c0.22-0.54,0.67-1.89,0.3-2.92c-0.78-2.17-3.59-3.85-1.95-7.02c-0.78,0.48-1.38,1.12-1.66,1.95
		c-0.21,0.85,0.11,1.74,0.52,2.51c3.44,4.66-0.98,4.28,1,9.11c1.16,2.82,4.78,4.52,8.55,4.52c2.69,0,5.46-0.86,7.47-2.79
		c2.57-2.46,2.52-4.27,1.55-5.73C71.72,29.8,71.74,30.69,69.03,33.23z"/>
	<path style="fill:#558B2F;" d="M100.46,40.07c-0.12-0.1-0.26-0.19-0.39-0.28c0.55,1.07,1.66,2.85-0.66,5.97
		c-1.17,1.58-5.45,4.68-10.11,0.48c-1.17-1.05-2.47-2.19-4.4-2.96c-5.55-2.21-3.49-8.19-2.82-9.18c-0.8,0.3-1.8,1.17-2.1,3.5
		c-0.23,3.25,1.08,6.56,4.32,7.57c3.66,1.15,4.51,5.27,9.25,5.27c0.24,0,0.5-0.01,0.76-0.03c3.2-0.27,5.23-1.85,6.4-3.76
		C101.86,44.75,102.43,41.88,100.46,40.07z"/>
</g>
</svg>
