<svg width="128" height="128" style="enable-background:new 0 0 128 128;" xmlns="http://www.w3.org/2000/svg" xmlns:xlink="http://www.w3.org/1999/xlink">
  <g id="Layer_3">
    <g>
      <linearGradient id="SVGID_1_" gradientUnits="userSpaceOnUse" x1="64" x2="64" y1="10.6112" y2="85.7464">
        <stop offset="0" style="stop-color:#7BC9C1"/>
        <stop offset="1" style="stop-color:#26A69A"/>
      </linearGradient>
      <rect height="75.55" style="fill:url(#SVGID_1_);" width="115.11" x="6.45" y="10.13"/>
      <path d="M119.11,12.58v70.65H8.89V12.58H119.11 M124,7.68H4v80.44h120V7.68L124,7.68z" style="fill:#5D4037;"/>
    </g>
  </g>
  <g id="Layer_9">
    <g>
      <radialGradient id="SVGID_2_" cx="47.4524" cy="-33.1805" gradientTransform="matrix(0.826 0 0 0.826 17.6117 19.6763)" gradientUnits="userSpaceOnUse" r="57.9033">
        <stop offset="0" style="stop-color:#6D4C41"/>
        <stop offset="1" style="stop-color:#543930"/>
      </radialGradient>
      <path d="M39.58,119.76c0,0-6.8-0.35-10.21-5.09C22,104.44,17.95,78.87,17.95,42.65 c0-1.66,0.26-16.41,10.66-26.83C35.36,9.05,44.95,5.62,57.13,5.62c12.08,0,21.52,3.38,28.05,10.04 c9.82,10.02,10.04,24.16,9.99,26.89c0,36.31-4.06,61.89-11.42,72.12c-3.3,4.59-9.79,5.06-10.25,5.09l-16.93-0.03L39.58,119.76z" style="fill:url(#SVGID_2_);"/>
      <path d="M57.13,7.12c11.66,0,20.74,3.23,26.98,9.59c9.6,9.8,9.59,24.2,9.56,25.81l0,0.12 c0,35.9-3.96,61.17-11.14,71.15c-2.84,3.94-8.55,4.43-9.08,4.46l-16.9-0.03l-16.88,0.03c-0.58-0.04-6.25-0.54-9.08-4.46 c-7.18-9.98-11.14-35.24-11.14-71.17c0-0.63,0.08-15.58,10.22-25.75C36.13,10.41,45.36,7.12,57.13,7.12 M57.13,4.12 c-41.01,0-40.68,37.92-40.68,38.52c0,24.56,1.88,59.25,11.71,72.9c3.9,5.41,11.43,5.71,11.43,5.71l16.97-0.03l16.97,0.03 c0,0,7.53-0.3,11.43-5.71c9.83-13.65,11.71-48.34,11.71-72.9C96.66,42.04,98.13,4.12,57.13,4.12L57.13,4.12z" style="fill:#3F2720;"/>
    </g>
    <path d="M102.77,111.32l-1.28-0.19c-0.55-0.08-0.93-0.6-0.84-1.15l13.42-81.62c0,0,0.17-0.68,0.67-0.62 c0.53,0.06,0.49,0.71,0.49,0.71l-11.32,82.03C103.83,111.02,103.32,111.4,102.77,111.32z" style="fill:#FF6F00;"/>
  </g>
  <g id="Layer_8">
    <g>
      <defs>
        <rect id="SVGID_3_" height="120" width="120" x="4" y="4"/>
      </defs>
      <clipPath id="SVGID_4_">
        <use style="overflow:visible;" xlink:href="#SVGID_3_"/>
      </clipPath>
      <g id="XMLID_5_" style="clip-path:url(#SVGID_4_);">
        <linearGradient id="SVGID_5_" gradientUnits="userSpaceOnUse" x1="56.2227" x2="56.2227" y1="97.1963" y2="136.0127">
          <stop offset="5.160877e-04" style="stop-color:#80A8BA"/>
          <stop offset="1" style="stop-color:#546E7A"/>
        </linearGradient>
        <path d="M5.72,136.01v-15.26c0-16.24,25.36-23.53,50.5-23.56h0.13c25.03,0,50.36,8.09,50.36,23.56 v15.26H5.72z" style="fill:url(#SVGID_5_);"/>
        <path d="M56.36,98.7c12.9,0,25.42,2.19,34.36,6c6.62,2.83,14.51,7.91,14.51,16.05v13.76h-98v-13.76 c0-15.2,24.61-22.03,49-22.06L56.36,98.7 M56.36,95.7c-0.05,0-0.09,0-0.13,0c-25.49,0.03-52,7.28-52,25.06v16.76h104v-16.76 C108.22,104,81.96,95.7,56.36,95.7L56.36,95.7z" style="fill:#62889C;"/>
      </g>
      <g id="XMLID_2_" style="clip-path:url(#SVGID_4_);">
        <path d="M55.44,109.48c-4,0-7.26-3.22-7.26-7.17v-8.98h16.17v8.98c0,3.96-3.26,7.17-7.26,7.17H55.44z" style="fill:#E59600;"/>
        <path d="M63.34,94.33v7.98c0,3.4-2.81,6.17-6.26,6.17h-1.65c-3.45,0-6.26-2.77-6.26-6.17v-7.98h7.08 H63.34 M65.34,92.33h-9.08h-9.08v9.98c0,4.51,3.7,8.17,8.26,8.17h1.65c4.56,0,8.26-3.66,8.26-8.17V92.33L65.34,92.33z" style="fill:#D18100;"/>
      </g>
      <polygon points="45.73,105 49.32,133 56.5,133 56.91,133 63.67,133 66.87,105 " style="clip-path:url(#SVGID_4_);fill:#405966;"/>
      <g style="clip-path:url(#SVGID_4_);">
        <g>
          <linearGradient id="SVGID_6_" gradientUnits="userSpaceOnUse" x1="45.2778" x2="45.2778" y1="97.8427" y2="129.6975">
            <stop offset="4.538013e-03" style="stop-color:#E6E6E6"/>
            <stop offset="0.3196" style="stop-color:#E3E3E3"/>
            <stop offset="0.5726" style="stop-color:#D9D9D9"/>
            <stop offset="0.8035" style="stop-color:#C8C8C8"/>
            <stop offset="1" style="stop-color:#B3B3B3"/>
          </linearGradient>
          <polygon points="49.25,131.12 37.27,113.77 43.55,107.36 36.76,102.11 46.5,97.49 53.8,131.12 " style="fill:url(#SVGID_6_);"/>
          <path d="M45.79,98.94l6.76,31.19h-2.78l-11.22-16.25l4.91-5.01l1.57-1.61l-1.78-1.38l-4.61-3.57 L45.79,98.94 M47.21,96.05l-12.35,5.85l7.19,5.57l-6.07,6.19l12.75,18.47h6.31L47.21,96.05L47.21,96.05z" style="fill:#B3B3B3;"/>
        </g>
        <g>
          <linearGradient id="SVGID_7_" gradientTransform="matrix(-1 0 0 1 121.5729 0)" gradientUnits="userSpaceOnUse" x1="54.3278" x2="54.3278" y1="97.6864" y2="129.5412">
            <stop offset="4.538013e-03" style="stop-color:#E6E6E6"/>
            <stop offset="0.3196" style="stop-color:#E3E3E3"/>
            <stop offset="0.5726" style="stop-color:#D9D9D9"/>
            <stop offset="0.8035" style="stop-color:#C8C8C8"/>
            <stop offset="1" style="stop-color:#B3B3B3"/>
          </linearGradient>
          <polygon points="58.73,130.97 66.02,97.34 75.76,101.95 68.98,107.21 75.25,113.61 63.27,130.97 " style="fill:url(#SVGID_7_);"/>
          <path d="M66.73,98.78l7.13,3.38l-4.61,3.57l-1.78,1.38l1.57,1.61l4.91,5.01l-11.22,16.25h-2.78 L66.73,98.78 M65.31,95.89l-7.82,36.07h6.31l12.75-18.47l-6.07-6.19l7.19-5.57L65.31,95.89L65.31,95.89z" style="fill:#B3B3B3;"/>
        </g>
      </g>
      <g style="clip-path:url(#SVGID_4_);">
        <path d=" M100.82,129.79l-8-0.25c-6.96-0.71-11.7-4.77-10.79-13.12c1.97-18.12,21.83-12.18,23.64-6.3 C108.37,118.92,103.92,130.1,100.82,129.79z" style="fill:#FFCA28;stroke:#EDA600;stroke-width:1.9369;stroke-linecap:round;stroke-linejoin:round;stroke-miterlimit:10;"/>
        <path d=" M93.5,126L93.5,126c-0.27,1.7,0.89,3.29,2.59,3.57l4.33,0.69c1.7,0.27,3.29-0.89,3.57-2.59v0c0.27-1.7-0.89-3.29-2.59-3.57 l-4.33-0.69C95.37,123.14,93.77,124.3,93.5,126z" style="fill:#FFCA28;stroke:#EDA600;stroke-width:1.6686;stroke-linecap:round;stroke-linejoin:round;stroke-miterlimit:10;"/>
        <path d=" M94.71,121.54L94.71,121.54c-0.26,1.71,0.91,3.31,2.62,3.58l5.68,0.87c1.71,0.26,3.31-0.91,3.58-2.62l0,0 c0.26-1.71-0.91-3.31-2.62-3.58l-5.68-0.87C96.58,118.66,94.97,119.83,94.71,121.54z" style="fill:#FFCA28;stroke:#EDA600;stroke-width:1.9369;stroke-linecap:round;stroke-linejoin:round;stroke-miterlimit:10;"/>
        <path d=" M94.97,117.26L94.97,117.26c-0.17,1.68,1.05,3.19,2.74,3.36l6.95,0.71c1.68,0.17,3.19-1.05,3.36-2.74v0 c0.17-1.68-1.05-3.19-2.74-3.36l-6.95-0.71C96.64,114.35,95.14,115.57,94.97,117.26z" style="fill:#FFCA28;stroke:#EDA600;stroke-width:1.9369;stroke-linecap:round;stroke-linejoin:round;stroke-miterlimit:10;"/>
        <path d=" M94.89,111.78L94.89,111.78c-0.08,1.69,1.23,3.13,2.92,3.21l6.98,0.33c1.69,0.08,3.13-1.23,3.21-2.92v0 c0.08-1.69-1.23-3.13-2.92-3.21l-6.98-0.33C96.41,108.78,94.97,110.09,94.89,111.78z" style="fill:#FFCA28;stroke:#EDA600;stroke-width:1.9369;stroke-linecap:round;stroke-linejoin:round;stroke-miterlimit:10;"/>
        <g>
          <path d="M105.57,104.92c-0.77-0.19-3.45-1.06-5.22-1.45c-0.67-0.15-2.45-0.48-3.13-0.49 c-2.18-0.04-9.12,2.5-10.74,4.1c-0.79,0.78-5.75,12.15,4.03,10.37c4.09-0.52,3.01-5.45,4.36-6.82c1.03-1.05,2.7-2.6,7.64-0.91 c1.38,0.47,3.76,0.45,4.63-0.6C108.65,107.29,107.81,105.48,105.57,104.92z" style="fill:#FFCA28;"/>
          <path d="M109.09,106.31c-0.38-1.13-1.46-1.99-2.96-2.35c-0.26-0.06-0.74-0.2-1.32-0.37 c-1.17-0.34-2.78-0.8-4-1.07c-0.62-0.14-2.52-0.49-3.38-0.51c-6.63-0.15-9.7,2.08-11.66,4.3c-1.29,1.45-0.98,4.03-0.63,3.54 c0.69-0.95,3.8-3.73,6.56-4.78c2.42-0.92,3.83-1.2,5.72-1.17c0.58,0.01,2.26,0.31,2.97,0.46c1.15,0.25,2.72,0.71,3.87,1.04 c0.62,0.18,1.13,0.33,1.4,0.39c0.83,0.2,1.41,0.6,1.57,1.1c0.14,0.43,0.13,1.25-0.34,1.79c-0.49,0.57-2.61,0.73-3.88,0.3 c-1.8-0.6-3.74-1.37-5.64-0.94c-1.44,0.33-3.14,1.25-3.71,2.6c-0.56,1.32-0.09,4.75-2.2,6.8c-0.87,0.84-3.13,1.89-3.13,1.89 s2.47,0.54,3.86-0.25c1.96-1.12,2.9-3.62,3.29-5.64c0.17-0.9,0.14-2.5,0.42-2.76c0.87-0.86,1.88-2.12,6.41-0.61 c1.58,0.52,4.68,1.03,5.95-0.45C109.15,108.56,109.45,107.38,109.09,106.31z" style="fill:#EDA600;"/>
        </g>
      </g>
    </g>
  </g>
  <g id="Layer_1">
    <g>
      <g>
        <linearGradient id="SVGID_8_" gradientUnits="userSpaceOnUse" x1="56.5557" x2="56.5557" y1="94.7081" y2="17.8854">
          <stop offset="0" style="stop-color:#FFB300"/>
          <stop offset="0.102" style="stop-color:#FFB809"/>
          <stop offset="0.3707" style="stop-color:#FFC21A"/>
          <stop offset="0.6592" style="stop-color:#FFC825"/>
          <stop offset="1" style="stop-color:#FFCA28"/>
        </linearGradient>
        <path d="M56.56,95.27c-2.3,0-4.91-0.5-7.56-1.43C37.66,89.83,24.42,77.5,24.42,55.95 c0-28.72,17.31-38.91,32.13-38.91s32.13,10.19,32.13,38.91c0,21.58-13.26,33.9-24.61,37.9C61.44,94.78,58.84,95.27,56.56,95.27z" style="fill:url(#SVGID_8_);"/>
        <path d="M56.56,18.04L56.56,18.04c8.41,0,16.06,3.25,21.55,9.15c6.27,6.73,9.58,16.68,9.58,28.77 c0,21.06-12.9,33.07-23.94,36.96c-2.53,0.89-5.01,1.36-7.19,1.36c-2.19,0-4.69-0.48-7.23-1.38c-11.03-3.9-23.9-15.92-23.9-36.94 c0-12.09,3.31-22.03,9.58-28.77C40.49,21.29,48.15,18.04,56.56,18.04 M56.56,16.04L56.56,16.04L56.56,16.04 c-17.2,0-33.13,12.79-33.13,39.91c0,21.79,13.49,34.67,25.23,38.83c2.8,0.99,5.5,1.49,7.9,1.49c2.38,0,5.07-0.49,7.85-1.47 c11.76-4.14,25.28-17.03,25.28-38.84C89.69,28.83,73.76,16.04,56.56,16.04L56.56,16.04z" style="fill:#ED9E00;"/>
      </g>
      <g>
        <defs>
          <path id="SVGID_9_" d="M22.66,88.85l-1.5-51.44c0-16.95,15.78-29.85,32.73-29.85h4.93c16.95,0,32.54,12.9,32.54,29.85 l-1.5,51.18L22.66,88.85z"/>
        </defs>
        <clipPath id="SVGID_10_">
          <use style="overflow:visible;" xlink:href="#SVGID_9_"/>
        </clipPath>
        <g style="clip-path:url(#SVGID_10_);">
          <radialGradient id="SVGID_11_" cx="57.4966" cy="-24.3312" gradientTransform="matrix(0.796 0 0 0.796 10.481 18.9473)" gradientUnits="userSpaceOnUse" r="48.2064">
            <stop offset="0" style="stop-color:#6D4C41"/>
            <stop offset="1" style="stop-color:#543930"/>
          </radialGradient>
          <path d="M94.14,42.65c0,0,1.02-35.57-37.81-35.57S18.36,42.65,18.36,42.65s0.33,45.48,3.2,51.39 s7.2,5.71,7.2,5.71s-2.03-26.54-2.26-39.04c-0.06-2.92-0.94-13.73,5.16-15.09c22.36-5.02,35.01-16.89,35.01-16.89 c3.29,7.19,13.58,14.19,17.27,16.86c3.03,2.19,2.61,11.2,2.55,15.03l-3.05,39.06c0,0,4.68,0.37,7.65-5.64 C94.05,88.02,94.14,42.65,94.14,42.65z" style="fill:url(#SVGID_11_);"/>
        </g>
      </g>
      <g>
        <path d="M60.62,68.05c-0.1-0.04-0.21-0.07-0.32-0.08h-6.99c-0.11,0.01-0.21,0.04-0.32,0.08 c-0.63,0.26-0.98,0.91-0.68,1.61c0.3,0.7,1.69,2.66,4.49,2.66c2.8,0,4.19-1.96,4.49-2.66C61.6,68.97,61.25,68.31,60.62,68.05z" style="fill:#E59600;"/>
        <g>
          <ellipse cx="41.56" cy="58.87" rx="4.87" ry="5.04" style="fill:#404040;"/>
          <ellipse cx="72.05" cy="58.87" rx="4.87" ry="5.04" style="fill:#404040;"/>
          <path d="M47.79,49.82c-0.93-1.23-3.07-3.01-7.23-3.01s-6.31,1.79-7.23,3.01 c-0.41,0.54-0.31,1.17-0.02,1.55c0.26,0.35,1.04,0.68,1.9,0.39c0.86-0.29,2.54-1.16,5.35-1.18c2.81,0.02,4.49,0.89,5.35,1.18 c0.86,0.29,1.64-0.03,1.9-0.39C48.1,50.99,48.2,50.36,47.79,49.82z" style="fill:#6D4C41;"/>
          <path d="M80.29,49.82c-0.93-1.23-3.07-3.01-7.23-3.01s-6.31,1.79-7.23,3.01 c-0.41,0.54-0.31,1.17-0.02,1.55c0.26,0.35,1.04,0.68,1.9,0.39c0.86-0.29,2.54-1.16,5.35-1.18c2.81,0.02,4.49,0.89,5.35,1.18 c0.86,0.29,1.64-0.03,1.9-0.39C80.59,50.99,80.7,50.36,80.29,49.82z" style="fill:#6D4C41;"/>
        </g>
        <path d="M64.87,76.14c-3.15,1.87-13.46,1.87-16.61,0c-1.81-1.07-3.65,0.57-2.9,2.21 c0.74,1.61,6.37,5.36,11.23,5.36s10.42-3.75,11.16-5.36C68.5,76.71,66.68,75.06,64.87,76.14z" style="fill:#795548;"/>
      </g>
    </g>
  </g>
  <g id="Layer_5">
    <path d="M86.26,52.93 c-0.07-1.19-0.12-1.31-1.69-1.81c-1.23-0.39-7.95-0.94-13.01-0.66c-0.36,0.02-0.71,0.04-1.04,0.07c-4.59,0.39-10.1,2.24-14.24,2.34 c-1.76,0.04-9.01-1.86-14.14-2.26c-0.33-0.02-0.66-0.05-1-0.06c-5.07-0.26-11.82,0.34-13.05,0.73c-1.57,0.5-1.62,0.63-1.68,1.82 c-0.07,1.19,0.13,2.2,1.06,2.51c1.27,0.41,1.28,2,2.13,6.54c0.77,4.14,2.62,7.41,10.57,7.98c0.34,0.02,0.66,0.04,0.98,0.04 c7.03,0.1,9.45-4.53,10.25-6.07c1.5-2.86,1.02-6.8,4.96-6.81c3.94-0.01,3.55,3.86,5.07,6.71c0.81,1.53,3.17,6.18,10.14,6.08 c0.34-0.01,0.69-0.02,1.05-0.05c7.94-0.62,9.78-3.9,10.52-8.04c0.82-4.55,0.83-6.13,2.09-6.56C86.14,55.13,86.34,54.12,86.26,52.93 z M45.7,68.17c-1.21,0.57-2.85,0.86-4.57,0.85c-3.59-0.01-7.57-1.27-9.01-3.81c-2.04-3.62-2.57-10.94,0.03-12.47 c1.14-0.67,4.99-1.13,8.97-0.96c4.13,0.18,8.41,1.04,9.94,3.06C53.62,58.18,49.57,66.35,45.7,68.17z M80.6,65.07 c-1.43,2.56-5.44,3.85-9.05,3.86c-1.7,0.01-3.31-0.27-4.51-0.83c-3.87-1.8-7.97-9.94-5.45-13.3c1.53-2.04,5.82-2.92,9.96-3.12 c3.97-0.19,7.81,0.25,8.94,0.91C83.11,54.12,82.62,61.44,80.6,65.07z" style="fill:#212121;stroke:#212121;stroke-width:0.5499;stroke-miterlimit:10;"/>
  </g>
  <g id="Layer_2" style="display:none;">
    <g style="display:inline;">
      <g style="opacity:0.6;">
        <circle cx="64" cy="64" r="28" style="opacity:0.61;fill:none;stroke:#000000;stroke-width:0.2625;stroke-miterlimit:10;"/>
        <line style="opacity:0.61;fill:none;stroke:#000000;stroke-width:0.25;stroke-miterlimit:10;" x1="84" x2="84" y1="0" y2="128"/>
        <line style="opacity:0.61;fill:none;stroke:#000000;stroke-width:0.25;stroke-miterlimit:10;" x1="44" x2="44" y1="0" y2="128"/>
        <line style="opacity:0.61;fill:none;stroke:#000000;stroke-width:0.25;stroke-miterlimit:10;" x1="64" x2="64" y1="0" y2="128"/>
        <line style="opacity:0.61;fill:none;stroke:#000000;stroke-width:0.25;stroke-miterlimit:10;" x1="128" x2="0" y1="64" y2="64"/>
        <line style="opacity:0.61;fill:none;stroke:#000000;stroke-width:0.25;stroke-miterlimit:10;" x1="128" x2="0" y1="44" y2="44"/>
        <line style="opacity:0.61;fill:none;stroke:#000000;stroke-width:0.25;stroke-miterlimit:10;" x1="128" x2="0" y1="83.75" y2="83.75"/>
        <line style="opacity:0.61;fill:none;stroke:#000000;stroke-width:0.25;stroke-miterlimit:10;" x1="128" x2="0" y1="128" y2="0"/>
        <line style="opacity:0.61;fill:none;stroke:#000000;stroke-width:0.25;stroke-miterlimit:10;" x1="0" x2="128" y1="128" y2="0"/>
        <g style="opacity:0.61;">
          <path d="M64,4.26c32.94,0,59.74,26.8,59.74,59.74S96.94,123.74,64,123.74S4.26,96.94,4.26,64S31.06,4.26,64,4.26 M64,4 C30.86,4,4,30.86,4,64s26.86,60,60,60s60-26.86,60-60S97.14,4,64,4L64,4z"/>
        </g>
        <path d="M107.97,115.97H20.03 c-4.42,0-8.03-3.61-8.03-8.03V20.03c0-4.42,3.61-8.03,8.03-8.03h87.94c4.42,0,8.03,3.61,8.03,8.03v87.91 C116,112.36,112.39,115.97,107.97,115.97z" style="opacity:0.61;fill:none;stroke:#000000;stroke-width:0.2578;stroke-miterlimit:10;"/>
        <path d="M100,124H28c-4.4,0-8-3.6-8-8 V12c0-4.4,3.6-8,8-8h72c4.4,0,8,3.6,8,8v104C108,120.4,104.4,124,100,124z" style="opacity:0.61;fill:none;stroke:#000000;stroke-width:0.2628;stroke-miterlimit:10;"/>
        <path d="M113.77,108H14.23 C8.6,108,4,103.4,4,97.77V30.28c0-5.63,4.6-10.23,10.23-10.23h99.54c5.63,0,10.23,4.6,10.23,10.23v67.48 C124,103.4,119.4,108,113.77,108z" style="opacity:0.61;fill:none;stroke:#000000;stroke-width:0.2627;stroke-miterlimit:10;"/>
      </g>
      <g>
        <g style="opacity:0.2;">
          <defs>
            <rect id="SVGID_24_" height="128" style="opacity:0.2;" width="128" x="0" y="0"/>
          </defs>
          <clipPath id="SVGID_12_">
            <use style="overflow:visible;" xlink:href="#SVGID_24_"/>
          </clipPath>
          <g style="clip-path:url(#SVGID_12_);">
            <g>
              <line style="fill:none;stroke:#000000;stroke-width:0.25;stroke-miterlimit:10;" x1="-28" x2="-28" y1="160" y2="-32"/>
              <line style="fill:none;stroke:#000000;stroke-width:0.25;stroke-miterlimit:10;" x1="-24" x2="-24" y1="160" y2="-32"/>
              <line style="fill:none;stroke:#000000;stroke-width:0.25;stroke-miterlimit:10;" x1="-20" x2="-20" y1="160" y2="-32"/>
              <line style="fill:none;stroke:#000000;stroke-width:0.25;stroke-miterlimit:10;" x1="-16" x2="-16" y1="160" y2="-32"/>
              <line style="fill:none;stroke:#000000;stroke-width:0.25;stroke-miterlimit:10;" x1="-12" x2="-12" y1="160" y2="-32"/>
              <line style="fill:none;stroke:#000000;stroke-width:0.25;stroke-miterlimit:10;" x1="-8" x2="-8" y1="160" y2="-32"/>
              <line style="fill:none;stroke:#000000;stroke-width:0.25;stroke-miterlimit:10;" x1="-4" x2="-4" y1="160" y2="-32"/>
              <line style="fill:none;stroke:#000000;stroke-width:0.25;stroke-miterlimit:10;" x1="0" x2="0" y1="160" y2="-32"/>
              <line style="fill:none;stroke:#000000;stroke-width:0.25;stroke-miterlimit:10;" x1="4" x2="4" y1="160" y2="-32"/>
              <line style="fill:none;stroke:#000000;stroke-width:0.25;stroke-miterlimit:10;" x1="8" x2="8" y1="160" y2="-32"/>
              <line style="fill:none;stroke:#000000;stroke-width:0.25;stroke-miterlimit:10;" x1="12" x2="12" y1="160" y2="-32"/>
              <line style="fill:none;stroke:#000000;stroke-width:0.25;stroke-miterlimit:10;" x1="16" x2="16" y1="160" y2="-32"/>
              <line style="fill:none;stroke:#000000;stroke-width:0.25;stroke-miterlimit:10;" x1="20" x2="20" y1="160" y2="-32"/>
              <line style="fill:none;stroke:#000000;stroke-width:0.25;stroke-miterlimit:10;" x1="24" x2="24" y1="160" y2="-32"/>
              <line style="fill:none;stroke:#000000;stroke-width:0.25;stroke-miterlimit:10;" x1="28" x2="28" y1="160" y2="-32"/>
              <line style="fill:none;stroke:#000000;stroke-width:0.25;stroke-miterlimit:10;" x1="32" x2="32" y1="160" y2="-32"/>
              <line style="fill:none;stroke:#000000;stroke-width:0.25;stroke-miterlimit:10;" x1="36" x2="36" y1="160" y2="-32"/>
              <line style="fill:none;stroke:#000000;stroke-width:0.25;stroke-miterlimit:10;" x1="40" x2="40" y1="160" y2="-32"/>
              <line style="fill:none;stroke:#000000;stroke-width:0.25;stroke-miterlimit:10;" x1="44" x2="44" y1="160" y2="-32"/>
              <line style="fill:none;stroke:#000000;stroke-width:0.25;stroke-miterlimit:10;" x1="48" x2="48" y1="160" y2="-32"/>
              <line style="fill:none;stroke:#000000;stroke-width:0.25;stroke-miterlimit:10;" x1="52" x2="52" y1="160" y2="-32"/>
              <line style="fill:none;stroke:#000000;stroke-width:0.25;stroke-miterlimit:10;" x1="56" x2="56" y1="160" y2="-32"/>
              <line style="fill:none;stroke:#000000;stroke-width:0.25;stroke-miterlimit:10;" x1="60" x2="60" y1="160" y2="-32"/>
              <line style="fill:none;stroke:#000000;stroke-width:0.25;stroke-miterlimit:10;" x1="64" x2="64" y1="160" y2="-32"/>
              <line style="fill:none;stroke:#000000;stroke-width:0.25;stroke-miterlimit:10;" x1="68" x2="68" y1="160" y2="-32"/>
              <line style="fill:none;stroke:#000000;stroke-width:0.25;stroke-miterlimit:10;" x1="72" x2="72" y1="160" y2="-32"/>
              <line style="fill:none;stroke:#000000;stroke-width:0.25;stroke-miterlimit:10;" x1="76" x2="76" y1="160" y2="-32"/>
              <line style="fill:none;stroke:#000000;stroke-width:0.25;stroke-miterlimit:10;" x1="80" x2="80" y1="160" y2="-32"/>
              <line style="fill:none;stroke:#000000;stroke-width:0.25;stroke-miterlimit:10;" x1="84" x2="84" y1="160" y2="-32"/>
              <line style="fill:none;stroke:#000000;stroke-width:0.25;stroke-miterlimit:10;" x1="88" x2="88" y1="160" y2="-32"/>
              <line style="fill:none;stroke:#000000;stroke-width:0.25;stroke-miterlimit:10;" x1="92" x2="92" y1="160" y2="-32"/>
              <line style="fill:none;stroke:#000000;stroke-width:0.25;stroke-miterlimit:10;" x1="96" x2="96" y1="160" y2="-32"/>
              <line style="fill:none;stroke:#000000;stroke-width:0.25;stroke-miterlimit:10;" x1="100" x2="100" y1="160" y2="-32"/>
              <line style="fill:none;stroke:#000000;stroke-width:0.25;stroke-miterlimit:10;" x1="104" x2="104" y1="160" y2="-32"/>
              <line style="fill:none;stroke:#000000;stroke-width:0.25;stroke-miterlimit:10;" x1="108" x2="108" y1="160" y2="-32"/>
              <line style="fill:none;stroke:#000000;stroke-width:0.25;stroke-miterlimit:10;" x1="112" x2="112" y1="160" y2="-32"/>
              <line style="fill:none;stroke:#000000;stroke-width:0.25;stroke-miterlimit:10;" x1="116" x2="116" y1="160" y2="-32"/>
              <line style="fill:none;stroke:#000000;stroke-width:0.25;stroke-miterlimit:10;" x1="120" x2="120" y1="160" y2="-32"/>
              <line style="fill:none;stroke:#000000;stroke-width:0.25;stroke-miterlimit:10;" x1="124" x2="124" y1="160" y2="-32"/>
              <line style="fill:none;stroke:#000000;stroke-width:0.25;stroke-miterlimit:10;" x1="128" x2="128" y1="160" y2="-32"/>
              <line style="fill:none;stroke:#000000;stroke-width:0.25;stroke-miterlimit:10;" x1="132" x2="132" y1="160" y2="-32"/>
              <line style="fill:none;stroke:#000000;stroke-width:0.25;stroke-miterlimit:10;" x1="136" x2="136" y1="160" y2="-32"/>
              <line style="fill:none;stroke:#000000;stroke-width:0.25;stroke-miterlimit:10;" x1="137" x2="137" y1="166.05" y2="-25.95"/>
              <line style="fill:none;stroke:#000000;stroke-width:0.25;stroke-miterlimit:10;" x1="144" x2="144" y1="160" y2="-32"/>
              <line style="fill:none;stroke:#000000;stroke-width:0.25;stroke-miterlimit:10;" x1="148" x2="148" y1="160" y2="-32"/>
              <line style="fill:none;stroke:#000000;stroke-width:0.25;stroke-miterlimit:10;" x1="152" x2="152" y1="160" y2="-32"/>
              <line style="fill:none;stroke:#000000;stroke-width:0.25;stroke-miterlimit:10;" x1="156" x2="156" y1="160" y2="-32"/>
            </g>
            <g>
              <line style="fill:none;stroke:#000000;stroke-width:0.25;stroke-miterlimit:10;" x1="-32" x2="160" y1="-28" y2="-28"/>
              <line style="fill:none;stroke:#000000;stroke-width:0.25;stroke-miterlimit:10;" x1="-32" x2="160" y1="-24" y2="-24"/>
              <line style="fill:none;stroke:#000000;stroke-width:0.25;stroke-miterlimit:10;" x1="-32" x2="160" y1="-20" y2="-20"/>
              <line style="fill:none;stroke:#000000;stroke-width:0.25;stroke-miterlimit:10;" x1="-32" x2="160" y1="-16" y2="-16"/>
              <line style="fill:none;stroke:#000000;stroke-width:0.25;stroke-miterlimit:10;" x1="-32" x2="160" y1="-12" y2="-12"/>
              <line style="fill:none;stroke:#000000;stroke-width:0.25;stroke-miterlimit:10;" x1="-32" x2="160" y1="-8" y2="-8"/>
              <line style="fill:none;stroke:#000000;stroke-width:0.25;stroke-miterlimit:10;" x1="-32" x2="160" y1="-4" y2="-4"/>
              <line style="fill:none;stroke:#000000;stroke-width:0.25;stroke-miterlimit:10;" x1="-32" x2="160" y1="0" y2="0"/>
              <line style="fill:none;stroke:#000000;stroke-width:0.25;stroke-miterlimit:10;" x1="-32" x2="160" y1="4" y2="4"/>
              <line style="fill:none;stroke:#000000;stroke-width:0.25;stroke-miterlimit:10;" x1="-32" x2="160" y1="8" y2="8"/>
              <line style="fill:none;stroke:#000000;stroke-width:0.25;stroke-miterlimit:10;" x1="-32" x2="160" y1="12" y2="12"/>
              <line style="fill:none;stroke:#000000;stroke-width:0.25;stroke-miterlimit:10;" x1="-32" x2="160" y1="16" y2="16"/>
              <line style="fill:none;stroke:#000000;stroke-width:0.25;stroke-miterlimit:10;" x1="-32" x2="160" y1="20" y2="20"/>
              <line style="fill:none;stroke:#000000;stroke-width:0.25;stroke-miterlimit:10;" x1="-32" x2="160" y1="24" y2="24"/>
              <line style="fill:none;stroke:#000000;stroke-width:0.25;stroke-miterlimit:10;" x1="-32" x2="160" y1="28" y2="28"/>
              <line style="fill:none;stroke:#000000;stroke-width:0.25;stroke-miterlimit:10;" x1="-32" x2="160" y1="32" y2="32"/>
              <line style="fill:none;stroke:#000000;stroke-width:0.25;stroke-miterlimit:10;" x1="-32" x2="160" y1="36" y2="36"/>
              <line style="fill:none;stroke:#000000;stroke-width:0.25;stroke-miterlimit:10;" x1="-32" x2="160" y1="40" y2="40"/>
              <line style="fill:none;stroke:#000000;stroke-width:0.25;stroke-miterlimit:10;" x1="-32" x2="160" y1="44" y2="44"/>
              <line style="fill:none;stroke:#000000;stroke-width:0.25;stroke-miterlimit:10;" x1="-32" x2="160" y1="48" y2="48"/>
              <line style="fill:none;stroke:#000000;stroke-width:0.25;stroke-miterlimit:10;" x1="-32" x2="160" y1="52" y2="52"/>
              <line style="fill:none;stroke:#000000;stroke-width:0.25;stroke-miterlimit:10;" x1="-32" x2="160" y1="56" y2="56"/>
              <line style="fill:none;stroke:#000000;stroke-width:0.25;stroke-miterlimit:10;" x1="-32" x2="160" y1="60" y2="60"/>
              <line style="fill:none;stroke:#000000;stroke-width:0.25;stroke-miterlimit:10;" x1="-32" x2="160" y1="64" y2="64"/>
              <line style="fill:none;stroke:#000000;stroke-width:0.25;stroke-miterlimit:10;" x1="-32" x2="160" y1="68" y2="68"/>
              <line style="fill:none;stroke:#000000;stroke-width:0.25;stroke-miterlimit:10;" x1="-32" x2="160" y1="72" y2="72"/>
              <line style="fill:none;stroke:#000000;stroke-width:0.25;stroke-miterlimit:10;" x1="-32" x2="160" y1="76" y2="76"/>
              <line style="fill:none;stroke:#000000;stroke-width:0.25;stroke-miterlimit:10;" x1="-32" x2="160" y1="80" y2="80"/>
              <line style="fill:none;stroke:#000000;stroke-width:0.25;stroke-miterlimit:10;" x1="-32" x2="160" y1="84" y2="84"/>
              <line style="fill:none;stroke:#000000;stroke-width:0.25;stroke-miterlimit:10;" x1="-32" x2="160" y1="88" y2="88"/>
              <line style="fill:none;stroke:#000000;stroke-width:0.25;stroke-miterlimit:10;" x1="-32" x2="160" y1="92" y2="92"/>
              <line style="fill:none;stroke:#000000;stroke-width:0.25;stroke-miterlimit:10;" x1="-32" x2="160" y1="96" y2="96"/>
              <line style="fill:none;stroke:#000000;stroke-width:0.25;stroke-miterlimit:10;" x1="-32" x2="160" y1="100" y2="100"/>
              <line style="fill:none;stroke:#000000;stroke-width:0.25;stroke-miterlimit:10;" x1="-32" x2="160" y1="104" y2="104"/>
              <line style="fill:none;stroke:#000000;stroke-width:0.25;stroke-miterlimit:10;" x1="-32" x2="160" y1="108" y2="108"/>
              <line style="fill:none;stroke:#000000;stroke-width:0.25;stroke-miterlimit:10;" x1="-32" x2="160" y1="112" y2="112"/>
              <line style="fill:none;stroke:#000000;stroke-width:0.25;stroke-miterlimit:10;" x1="-32" x2="160" y1="116" y2="116"/>
              <line style="fill:none;stroke:#000000;stroke-width:0.25;stroke-miterlimit:10;" x1="-32" x2="160" y1="120" y2="120"/>
              <line style="fill:none;stroke:#000000;stroke-width:0.25;stroke-miterlimit:10;" x1="-32" x2="160" y1="124" y2="124"/>
              <line style="fill:none;stroke:#000000;stroke-width:0.25;stroke-miterlimit:10;" x1="-32" x2="160" y1="128" y2="128"/>
              <line style="fill:none;stroke:#000000;stroke-width:0.25;stroke-miterlimit:10;" x1="-32" x2="160" y1="132" y2="132"/>
              <line style="fill:none;stroke:#000000;stroke-width:0.25;stroke-miterlimit:10;" x1="-32" x2="160" y1="136" y2="136"/>
              <line style="fill:none;stroke:#000000;stroke-width:0.25;stroke-miterlimit:10;" x1="-32" x2="160" y1="140" y2="140"/>
              <line style="fill:none;stroke:#000000;stroke-width:0.25;stroke-miterlimit:10;" x1="-32" x2="160" y1="144" y2="144"/>
              <line style="fill:none;stroke:#000000;stroke-width:0.25;stroke-miterlimit:10;" x1="-32" x2="160" y1="148" y2="148"/>
              <line style="fill:none;stroke:#000000;stroke-width:0.25;stroke-miterlimit:10;" x1="-32" x2="160" y1="152" y2="152"/>
              <line style="fill:none;stroke:#000000;stroke-width:0.25;stroke-miterlimit:10;" x1="-32" x2="160" y1="156" y2="156"/>
            </g>
            <path d="M159.75-31.75v191.5h-191.5v-191.5H159.75 M160-32H-32v192h192V-32L160-32z"/>
          </g>
        </g>
        <g>
          <rect height="128" style="opacity:0.3;fill:#F44336;" width="4" x="0" y="0"/>
          <rect height="128" style="opacity:0.3;fill:#F44336;" width="4" x="124" y="0"/>
          <rect height="120" style="opacity:0.3;fill:#F44336;" transform="matrix(-1.836970e-16 1 -1 -1.836970e-16 66 -62)" width="4" x="62" y="-58"/>
          <rect height="120" style="opacity:0.3;fill:#F44336;" transform="matrix(-1.836970e-16 1 -1 -1.836970e-16 190 62)" width="4" x="62" y="66"/>
        </g>
      </g>
    </g>
  </g>
</svg>