<svg enable-background="new 0 0 128 128" viewBox="0 0 128 128" xmlns="http://www.w3.org/2000/svg" xmlns:xlink="http://www.w3.org/1999/xlink"><symbol viewBox="-64.5 -64.5 129 129"><g fill="none" stroke="#4285F4" stroke-miterlimit="10"><rect x="-64" y="-64" width="128" height="128"/><path d="M36.95,37.82C27.32,46.32,14.2,51,0,51 c-14.27,0-27.39-4.62-36.96-13.01C-47.45,28.79-53,15.65-53,0c0-15.58,5.55-28.69,16.04-37.92C-27.36-46.35-14.24-51,0-51 c14.17,0,27.29,4.71,36.95,13.25C47.45-28.45,53-15.4,53,0C53,15.47,47.45,28.55,36.95,37.82z"/><path d="m0 55c-29.59 0-57-19.01-57-55 0-35.8 27.41-55 57-55s57 19.69 57 55c0 35.51-27.41 55-57 55z"/><path d="M0-43c-12.29,0-23.54,3.94-31.68,11.09 C-40.39-24.25-45-13.21-45,0c0,29.7,22.6,43,45,43c21.67,0,45-13.46,45-43S21.67-43,0-43L0-43z"/><line x1="-.01" x2="-.01" y1="51" y2="-51"/><line x1="-16" x2="-16" y1="48.95" y2="-48.93"/><line x1="15.99" x2="15.99" y1="48.91" y2="-48.93"/><line x1="53" x2="-53" y1=".08" y2=".08"/></g></symbol><linearGradient id="e" x1="64.01" x2="64.01" y1="19.984" y2="107.63" gradientUnits="userSpaceOnUse"><stop stop-color="#FEE133" offset=".5"/><stop stop-color="#FEDE32" offset=".6118"/><stop stop-color="#FCD32F" offset=".7076"/><stop stop-color="#FAC12B" offset=".7975"/><stop stop-color="#F7A924" offset=".8834"/><stop stop-color="#F6A323" offset=".9"/></linearGradient><path d="m64.01 119.78c-27.83 0-57.78-17.43-57.78-55.68s29.95-55.68 57.78-55.68c15.42 0 29.7 5.11 40.21 14.38 11.5 10.15 17.57 24.43 17.57 41.3 0 16.8-6.08 31.05-17.58 41.23-10.53 9.32-24.81 14.45-40.2 14.45z" fill="url(#e)"/><path d="m64.01 10.42c14.93 0 28.74 4.93 38.88 13.88 11.05 9.76 16.9 23.52 16.9 39.81 0 16.21-5.84 29.95-16.9 39.73-10.17 9-23.97 13.95-38.88 13.95-14.98 0-28.79-4.89-38.89-13.77-11.05-9.72-16.89-23.52-16.89-39.92 0-16.47 5.84-30.3 16.89-39.99 10.07-8.83 23.88-13.69 38.89-13.69m0-4c-31.04 0-59.78 19.93-59.78 57.68 0 37.54 28.74 57.68 59.78 57.68s59.78-20.65 59.78-57.68c0-37.24-28.74-57.68-59.78-57.68z" fill="#EB8F00"/><defs><path id="d" d="m103.02 67.51c-3.31 17.46-19.27 32.62-42.97 32.62-21.66 0-39.26-14.68-42.91-32.56l-12.7 45.76 93.14 15.67 22.86-5.25 4.23-29.3-21.65-26.94z"/></defs><clipPath id="c"><use xlink:href="#d"/></clipPath><g clip-path="url(#c)"><defs><path id="b" d="m57.83 109.17 31.29 31.29 48.21-48.21-31.29-31.29c-5.92 8.42-13.48 17.29-21.94 25.75-8.45 8.45-17.3 16-25.71 21.92"/></defs><clipPath id="a"><use xlink:href="#b"/></clipPath><path d="m114.91 114.15-2.32 2.32c-6.73 6.73-17.65 6.73-24.39 0l-27.47-27.46 26.72-26.71 27.46 27.46c6.73 6.74 6.73 17.66 0 24.39z" clip-path="url(#a)" fill="#E04C74"/><g clip-path="url(#a)" opacity=".3"><path d="m87.45 67.96 24.63 24.63c2.5 2.5 3.88 5.83 3.88 9.37s-1.38 6.86-3.88 9.37l-2.32 2.32c-2.5 2.5-5.83 3.88-9.37 3.88s-6.86-1.38-9.37-3.88l-24.63-24.64 21.06-21.05m0-5.66-26.72 26.71 27.46 27.46c3.37 3.37 7.78 5.05 12.19 5.05s8.83-1.68 12.19-5.05l2.32-2.32c6.73-6.73 6.73-17.65 0-24.39l-27.44-27.46z" fill="#AB3F2E"/></g><line x1="74.09" x2="98.27" y1="75.66" y2="99.84" clip-path="url(#a)" fill="none" opacity=".3" stroke="#AB3F2E" stroke-linecap="round" stroke-miterlimit="10" stroke-width="4.2184"/></g><path d="m23.08 72.75" fill="none" stroke="#404040" stroke-miterlimit="10" stroke-width="5"/><path d="m104.92 72.75" fill="none" stroke="#404040" stroke-miterlimit="10" stroke-width="5"/><path d="m25.12 70.49s0.18 0.37 0.52 1.05c0.34 0.66 0.83 1.77 1.51 2.85 0.35 0.56 0.67 1.2 1.12 1.87 0.46 0.67 0.96 1.4 1.49 2.17 0.58 0.73 1.2 1.52 1.86 2.34 0.71 0.78 1.44 1.61 2.22 2.45 1.65 1.6 3.48 3.31 5.65 4.8 2.12 1.56 4.56 2.9 7.14 4.12 2.58 1.24 5.43 2.1 8.34 2.79l2.22 0.42c0.74 0.16 1.5 0.18 2.25 0.28 0.75 0.09 1.51 0.18 2.27 0.18l2.17 0.08 2.45-0.08c0.4-0.02 0.84-0.01 1.2-0.06l1.09-0.13c0.73-0.1 1.44-0.12 2.19-0.28l2.22-0.42c2.91-0.69 5.76-1.55 8.34-2.79 2.58-1.22 5.02-2.56 7.14-4.12 2.18-1.49 4-3.2 5.65-4.8 0.79-0.84 1.52-1.67 2.22-2.45 0.65-0.82 1.28-1.61 1.86-2.34 0.53-0.78 1.03-1.5 1.49-2.17 0.45-0.68 0.8-1.34 1.15-1.92 0.71-1.15 1.13-2.13 1.47-2.78 0.33-0.65 0.5-1 0.5-1l0.08-0.16c0.55-1.1 1.9-1.55 3-1 1.05 0.53 1.51 1.78 1.07 2.85 0 0-0.16 0.4-0.47 1.14-0.33 0.73-0.7 1.87-1.43 3.19-0.35 0.66-0.7 1.43-1.17 2.21s-0.99 1.62-1.53 2.51c-0.61 0.86-1.26 1.77-1.95 2.73-0.74 0.92-1.55 1.87-2.41 2.84-1.8 1.87-3.81 3.86-6.21 5.63-2.35 1.84-5.06 3.49-8.01 4.88-2.94 1.44-6.17 2.47-9.5 3.29-0.84 0.17-1.69 0.34-2.53 0.5-0.84 0.18-1.76 0.24-2.64 0.36l-1.34 0.15c-0.45 0.06-0.83 0.05-1.24 0.07l-2.45 0.11-2.73-0.11c-0.87-0.01-1.73-0.12-2.6-0.23-0.86-0.12-1.73-0.17-2.57-0.35-0.85-0.17-1.69-0.34-2.53-0.5-3.33-0.82-6.56-1.85-9.5-3.29-2.95-1.39-5.66-3.04-8.01-4.88-2.41-1.77-4.42-3.76-6.21-5.63-0.86-0.98-1.66-1.92-2.41-2.84-0.69-0.96-1.34-1.87-1.95-2.73-0.55-0.9-1.06-1.74-1.53-2.51-0.47-0.78-0.83-1.58-1.19-2.26-0.76-1.39-1.08-2.4-1.4-3.12-0.29-0.71-0.45-1.09-0.45-1.09-0.47-1.14 0.07-2.45 1.22-2.93 1.09-0.41 2.34 0.07 2.86 1.11z" fill="#242424"/><g fill="#242424"><path d="m49.56 47.79s-0.05-0.07-0.16-0.2c-0.1-0.13-0.24-0.31-0.42-0.54-0.15-0.16-0.33-0.35-0.54-0.57-0.21-0.24-0.47-0.49-0.73-0.75-0.27-0.25-0.55-0.51-0.84-0.72-0.28-0.23-0.59-0.4-0.84-0.54-0.26-0.16-0.5-0.2-0.65-0.25-0.08-0.03-0.15-0.03-0.21-0.04-0.03 0.01-0.06-0.01-0.09 0l-0.04 0.01h-0.02-0.01c0.12 0-0.27 0.01 0.27-0.01l-0.55 0.02c-0.14 0-0.05 0.01-0.04 0.01 0.03 0 0.05 0 0.07-0.01 0.08-0.03 0 0-0.02 0-0.03 0-0.07 0.01-0.11 0.03-0.16 0.05-0.4 0.09-0.65 0.25-0.25 0.14-0.56 0.31-0.84 0.54-0.28 0.22-0.57 0.47-0.84 0.72-0.52 0.51-0.98 1.02-1.3 1.39-0.33 0.38-0.51 0.6-0.51 0.6l-0.23 0.27c-1.37 1.6-3.89 1.87-5.62 0.61-1.18-0.86-1.69-2.2-1.47-3.48 0 0 0.07-0.41 0.27-1.12 0.21-0.71 0.56-1.72 1.25-2.91 0.69-1.18 1.69-2.57 3.38-3.84 0.83-0.62 1.84-1.24 3.04-1.66 0.29-0.11 0.6-0.21 0.92-0.29 0.33-0.08 0.59-0.17 1.04-0.23l0.62-0.09c0.19-0.02 0.47-0.05 0.51-0.05l0.55-0.04 0.31-0.01h0.03 0.06l0.13 0.01 0.26 0.01 0.51 0.03c0.34 0.03 0.67 0.09 1 0.14 0.65 0.12 1.3 0.29 1.89 0.51 1.2 0.42 2.21 1.03 3.04 1.66 1.69 1.27 2.69 2.66 3.38 3.84 0.35 0.59 0.61 1.15 0.8 1.64 0.21 0.47 0.36 0.97 0.48 1.34 0.11 0.36 0.11 0.55 0.16 0.72 0.03 0.16 0.04 0.25 0.04 0.25 0.37 2.02-1.12 3.93-3.31 4.26-1.59 0.24-3.1-0.39-3.97-1.51z"/><path d="m87.06 47.79s-0.05-0.07-0.16-0.2c-0.1-0.13-0.24-0.31-0.42-0.54-0.15-0.16-0.33-0.35-0.54-0.57-0.21-0.24-0.47-0.49-0.73-0.75-0.27-0.25-0.55-0.51-0.84-0.72-0.28-0.23-0.59-0.4-0.84-0.54-0.26-0.16-0.5-0.2-0.65-0.25-0.08-0.03-0.15-0.03-0.21-0.04-0.03 0.01-0.06-0.01-0.09 0l-0.04 0.01h-0.02-0.01-0.01c0.12 0-0.27 0.01 0.27-0.01l-0.55 0.02c-0.14 0-0.05 0.01-0.04 0.01 0.03 0 0.05 0 0.07-0.01 0.08-0.03 0 0-0.02 0-0.03 0-0.07 0.01-0.11 0.03-0.16 0.05-0.4 0.09-0.65 0.25-0.25 0.14-0.56 0.31-0.84 0.54-0.28 0.22-0.57 0.47-0.84 0.72-0.52 0.51-0.98 1.02-1.3 1.39-0.33 0.38-0.51 0.6-0.51 0.6l-0.23 0.27c-1.37 1.6-3.89 1.87-5.62 0.61-1.18-0.86-1.69-2.2-1.47-3.48 0 0 0.07-0.41 0.27-1.12 0.21-0.71 0.56-1.72 1.25-2.91 0.69-1.18 1.69-2.57 3.38-3.84 0.83-0.62 1.84-1.24 3.04-1.66 0.29-0.11 0.6-0.21 0.92-0.29 0.33-0.08 0.59-0.17 1.04-0.23l0.62-0.09c0.19-0.02 0.47-0.05 0.51-0.05l0.55-0.04 0.31-0.01h0.03 0.06l0.13 0.01 0.26 0.01 0.51 0.03c0.34 0.03 0.67 0.09 1 0.14 0.65 0.12 1.3 0.29 1.89 0.51 1.2 0.42 2.21 1.03 3.04 1.66 1.69 1.27 2.69 2.66 3.38 3.84 0.35 0.59 0.61 1.15 0.8 1.64 0.21 0.47 0.36 0.97 0.48 1.34 0.11 0.36 0.11 0.55 0.16 0.72 0.03 0.16 0.04 0.25 0.04 0.25 0.37 2.02-1.12 3.93-3.31 4.26-1.59 0.24-3.1-0.39-3.96-1.51z"/></g></svg>
