<svg width="128" height="128" style="enable-background:new 0 0 128 128;" xmlns="http://www.w3.org/2000/svg" xmlns:xlink="http://www.w3.org/1999/xlink">
  <style type="text/css">
.st0{fill:#2F2F2F;}
.st1{fill:#65878D;}
.st2{fill:#ED6C30;}
.st3{fill:#FCC21B;}
.st4{fill:#FCC21B;stroke:#FCC21B;stroke-width:2;stroke-miterlimit:10;}
  </style>
  <g>
    <circle class="st0" cx="16.3" cy="107.1" r="14"/>
    <circle class="st1" cx="16.3" cy="107.1" r="7.7"/>
    <circle class="st0" cx="111.4" cy="107.1" r="14"/>
    <circle class="st1" cx="111.4" cy="107.1" r="7.7"/>
    <path class="st2" d="M76.9,98.9H39.5c-1.1,0-2,0.9-2,2v2.2c0,1.1,0.9,2,2,2h37.5c1.1,0,2-0.9,2-2v-2.2 C78.9,99.8,78,98.9,76.9,98.9z"/>
    <g>
      <path class="st3" d="M36.6,110.2c-1.7,0-3.1-1.3-3.1-2.9s1.4-2.9,3.1-2.9h73.9c1.7,0,3.1,1.3,3.1,2.9s-1.4,2.9-3.1,2.9H36.6z"/>
      <path class="st3" d="M110.5,105c1.4,0,2.6,1.1,2.6,2.4s-1.2,2.4-2.6,2.4H36.6c-1.4,0-2.6-1.1-2.6-2.4s1.2-2.4,2.6-2.4H110.5 M110.5,104H36.6c-2,0-3.6,1.5-3.6,3.4s1.6,3.4,3.6,3.4h73.9c2,0,3.6-1.5,3.6-3.4S112.4,104,110.5,104L110.5,104z"/>
    </g>
    <path class="st0" d="M18.7,77l-4.9,29.5c-0.2,1.3,0.7,2.5,1.9,2.7h0c1.3,0.2,2.5-0.7,2.7-1.9l4.9-29.6L18.7,77z"/>
    <path class="st0" d="M34.7,11.5l-8.6,51.2l-4.7-0.6L30,10.7c0.2-1.3,1.4-2.2,2.7-1.9h0C34,9,34.9,10.2,34.7,11.5z"/>
    <g>
      <path class="st3" d="M23,89.3c-0.1,0-0.3,0-0.4,0L16,88.1c-1.4-0.2-2.3-1.5-2.1-2.9l5.9-35.4c0.2-1.2,1.2-2.1,2.5-2.1 c0.1,0,0.3,0,0.4,0l6.6,1.1c0.7,0.1,1.2,0.5,1.6,1c0.4,0.5,0.5,1.2,0.4,1.9l-5.9,35.4C25.3,88.4,24.2,89.3,23,89.3z"/>
      <path class="st3" d="M22.3,48.3c0.1,0,0.2,0,0.3,0l6.6,1.1c1.1,0.2,1.8,1.2,1.6,2.3L25,87.1c-0.2,1-1,1.7-2,1.7 c-0.1,0-0.2,0-0.3,0l-6.6-1.1c-1.1-0.2-1.8-1.2-1.6-2.3L20.3,50C20.5,49,21.4,48.3,22.3,48.3 M22.3,47.3L22.3,47.3 c-1.5,0-2.7,1.1-3,2.5l-5.9,35.4c-0.3,1.6,0.8,3.2,2.5,3.5l6.6,1.1c0.2,0,0.3,0,0.5,0c1.5,0,2.7-1.1,3-2.5l5.9-35.4 c0.3-1.6-0.8-3.2-2.5-3.5l-6.6-1.1C22.7,47.3,22.5,47.3,22.3,47.3L22.3,47.3z"/>
    </g>
    <g>
      <path class="st3" d="M36.7,110.2c-1.8,0-3.2-1.4-3.2-3.2c0-0.1,0-0.1,0-0.2c-0.1-9.3-7.2-16.9-16.4-17.6l-0.1,0 c-1.7,0-3.2-1.4-3.2-3.2c0-1.7,1.3-3.1,3-3.2l0,0l0.5,0C30,83.8,40,94.4,40,107.1v0.5h-0.1C39.6,109.1,38.3,110.2,36.7,110.2z"/>
      <path class="st3" d="M17.3,83.4c12.4,0.9,22.1,11.2,22.1,23.8h0c0,1.4-1.2,2.6-2.7,2.6c-1.5,0-2.7-1.2-2.7-2.7c0-0.1,0-0.1,0-0.2 c-0.1-9.5-7.5-17.3-16.9-18.1l0,0c0,0-0.1,0-0.1,0c-1.5,0-2.7-1.2-2.7-2.7c0-1.5,1.2-2.7,2.7-2.7C17.2,83.4,17.2,83.4,17.3,83.4 L17.3,83.4 M16.4,82.3l0,0.1c-1.7,0.3-3,1.8-3,3.6c0,1.7,1.2,3.1,2.7,3.6l0,0l0.3,0c0.2,0,0.4,0.1,0.6,0.1l0,0 c9,0.7,15.8,8.1,16,17.1c0,0.1,0,0.2,0,0.2c0,2,1.7,3.7,3.7,3.7c1.7,0,3.1-1.1,3.5-2.6h0.2l0-1c0-13-10.1-23.9-23.1-24.8 L16.4,82.3L16.4,82.3z"/>
    </g>
    <circle class="st4" cx="32.3" cy="11.6" r="6.1"/>
    <circle class="st0" cx="32.3" cy="11.6" r="2.8"/>
    <path class="st3" d="M122.4,90.1c0.8-1.8,0.1-4-1.6-4.8c-2.9-1.4-7.1-1.8-10.5-1.8C97.8,83.9,88,93.9,88,106.6v1H89h4.9h0.9v-1 c0-8.8,6.9-15.6,15.5-15.9c2.8-0.1,5.4,0.1,8,0.9C120.5,92.1,121.7,91.9,122.4,90.1L122.4,90.1z"/>
  </g>
</svg>