<svg xmlns="http://www.w3.org/2000/svg" xmlns:xlink="http://www.w3.org/1999/xlink" viewBox="0 0 128 128"><path d="M26.74 64.14s-2.79-7.18-2.99-10.31l11.93-1.37L38.41 64l-11.67.14z" fill="#b89278"/><defs><path id="a" d="M126.7 78.38c-.41-.46-.94-.82-1.55-1.08v-1.36c.02-4.3-2.43-8.11-5.59-10.76-2.93-2.46-6.34-4.29-9.85-5.79-.63-2.57-1.6-5.09-2.7-7.52-.95-2.12-2-4.18-3-6.15-1.6-3.15-2.96-6.36-4.39-9.6-2.07-4.69-5.45-14.09-11.45-13.48-.13.02-.27.03-.41.05-2.87.5-5.14 3.27-6.93 6.69-2.1 4-3.97-.81-5.48-2.5-1.48-1.67-3.53-3.08-5.94-2.87-.16.01-.3.03-.45.06-5.25.85-8.65 8.45-10.72 14.45-1.17 3.35-2.28 6.62-3.8 9.78-.46.96-.99 1.98-1.79 2.7-1.5 1.38-3.26-.1-3.97-1.49-.88-1.75-.75-3.53-.3-5.38.35-1.45.42-2.79.36-4.27-.07-2.17-.49-4.34-1.15-6.41-.38-1.18-.9-2.27-1.49-3.3 2.04-1.06 3.67-2.75 3.38-5.11-.4-2.94-4.03-4.81-6.77-3.75-1.03.39-2.05 1.45-2.87 2.75-1.76-.93-3.7-1.58-5.83-1.79-2.41-.24-4.89.04-7.3.75-.52-2.11-1.79-4.04-3.62-4.25-3.37-.4-5.42 3.79-3.91 6.59.22.4.5.76.82 1.09-.78.61-1.5 1.28-2.1 2.05-1.39 1.81-1.82 4.11-2.86 6.11-1.13 2.15-2.96 3.7-4.89 5.1C6.37 42.43 1.53 44.73.41 49.7c-1.13 4.98 2.67 9.12 6.66 11.23 4.73 2.49 9.49 2.86 14.48.9.68-.27 1.33-.61 1.98-.95.84-.44 1.95-1.11 3.3-1.92.73-.43 1.36-.95 2.15-1.26.39-.15.7-.17.88.25.59 1.38-1.76 2.86-2.56 3.63-.26.25-.5.56-.63.91-.38 1.05.3 2.25.7 3.19.36.87.72 1.73 1.12 2.57 1.46 3.09 3.15 6.05 5.23 8.76a42.82 42.82 0 0 0 4.18 4.64c2.4 2.3 4.91 4.55 7.88 6.11 2.34 1.23 4.86 2.02 7.39 2.79.27.5.59.99.81 1.53.65 1.56 1.47 2.87 1.83 4.55.37 1.75.49 3.53.73 5.29.18 1.36.44 2.83.01 4.17-.27.83-.92 1.44-1.25 2.22-.47 1.12-.61 3.76.45 4.61 1.73 1.36 5.03.8 6.67-.41 1.95-1.44.92-7.09.92-9.17-.01-2.77.06-5.54.12-8.32 1.36 1.14 2.4 2.59 3.44 4.06 1.79 2.52 3.2 4.61 4.01 7.6.09.33.2.69.33 1.04.05.5.1 1 .17 1.49.18 1.36.46 2.83.02 4.18-.27.82-.93 1.43-1.25 2.22-.48 1.12-.62 3.76.44 4.61 1.73 1.36 5.04.8 6.68-.41 1.94-1.44.92-7.09.91-9.17-.03-4.61.2-9.24.2-13.85.12-1.69.32-3.36.64-5.02.56-2.79 1.5-6.21 3.77-8.13.91-.77 2.2-1.42 3.44-1.63.32.3.65.63.98 1.06 2.22 3.02 1.97 9.68 1.32 13.2-.36 1.95-1.25 3.78-1.28 5.79-.04 2.1 2.1 1.98 3.75 1.93 3.33-.1 3.22-2.14 3.57-4.77.15-1.15.35-2.3.37-3.46.08-2.85.46-5.68.91-8.49.14-.91.29-1.82.45-2.73 2.49.73 4.91 1.73 6.01 3.98.25.5.46 1.01.66 1.53.29 2.03.19 4.25.22 6.16.02 1.22.25 2.47.02 3.68-.4 2.03-1.26 3.78-1.3 5.9-.04 2.1 2.11 1.98 3.76 1.93 3.33-.1 3.21-2.14 3.56-4.77.16-1.15.36-2.3.4-3.46.08-2.85.45-5.68.89-8.49.37-2.31.79-4.61 1.14-6.93.35-2.25.46-4.4.46-6.54.06-.54.11-1.08.16-1.59.32-3.77-.41-7.91-1.49-11.92.37.15.74.31 1.1.45 1.18.46 2.33 1.06 3.37 1.8 1.02.72 2.2 1.46 3.11 2.29.61.54.99 1.05 1.38 1.78 1.25 2.26 2.07 4.19 2.04 6.7-.72.2-1.38.55-1.87 1.12-2.18 2.55-.93 5.85.03 8.57.21.6.21 1.45.16 2.14-.06.67-.75 1.61-.5 2.28 1.5.72 3.3-.56 4.42-1.53 1.58-1.37 2.58-3.05 3.24-5.02.63-1.92.85-4.56-.6-6.22z"/></defs><use xlink:href="#a" overflow="visible" fill="#fcc21b"/><clipPath id="b"><use xlink:href="#a" overflow="visible"/></clipPath><g fill="#b89278" clip-path="url(#b)"><path d="M4.81 53.01c-.68-.68-1.43-1.42-1.67-2.38-.26-1.05.26-2.24 1.38-1.33.69.56.94 1.52 1.65 2.04 1.27.93 2.98-.11 4.23-.54.72-.24 1.91-.38 2.59-.04.48.23 1.1.78.74 1.37-1.52 2.45-6.91 2.89-8.92.88z"/><path d="M5.71 53.38s-.87 6.83 3.23 9.94l2.11-.12s-4.34-2.36-3.48-9.69l-1.86-.13z"/></g><g><path d="M36.58 37.37c.22.53.33 1.11.28 1.73-.19 2.1-2.05 3.74-4.15 3.67-2.09-.08-3.62-1.84-3.44-3.93.06-.53.21-1.03.45-1.48l6.86.01z" fill="#2f2f2f"/></g><g fill="#757f3f"><path d="M74.14 68.32l-1.32 6.77s1.98 1.49 4.3.83c2.31-.66 1.48-1.98 1.48-1.98l-1.98-6.61-2.48.99zM83.06 66.84l-1.32 6.77s1.98 1.48 4.3.82c2.31-.66 1.49-1.98 1.49-1.98l-1.98-6.61-2.49 1zM92.32 65.51L91 72.28s1.99 1.49 4.29.82c2.31-.66 1.49-1.98 1.49-1.98l-1.98-6.61-2.48 1zM100.91 64.03l-1.33 6.77s1.99 1.49 4.3.82c2.31-.66 1.49-1.98 1.49-1.98l-1.98-6.61-2.48 1z"/></g><g><defs><path id="c" d="M104.88 44.44c-.43-1.78-2.89-8.76-3.65-10.48l-.6-1.39C98.39 27.32 95 19.4 88.72 19.4c-.24 0-.49.01-.79.04-.03 0-.45.06-.48.06-3.11.54-5.79 3.03-8.18 7.61-.09.16-.17.29-.23.39-.39-.41-.88-1.16-1.19-1.61-.42-.62-.82-1.21-1.2-1.64-2.2-2.47-4.71-3.67-7.41-3.45-.21.02-.42.04-.58.07-6.36 1.03-9.95 9.41-12.24 16.03-1.11 3.21-2.16 6.24-3.58 9.19-.14.3-.3.6-.47.89 0 0-1.5 2.62-1.96 4.34 0 0 .93.68 2.24-.31 0 0 1.74-1.48 3.32-2.14.72-.24 1.71-.42 2.61-.04 7.03 2.95 9.32 9.73 10.75 19.72.06.47.32.88.69 1.17a1.744 1.744 0 0 0 1.31.33l34.55-5.29c.79-.12 1.4-.76 1.48-1.56.04-.24.59-6.08-2.48-18.76z"/></defs><use xlink:href="#c" overflow="visible" fill="#757f3f"/><clipPath id="d"><use xlink:href="#c" overflow="visible"/></clipPath><path d="M79.05 27.5s.52.87 1.15 1.84c.8 1.22 1.38 2.73 2 2.7.26-.01.47-.02.52-.5.09-.83.11-2.12-.53-3.73-.39-1.04-1.06-2.21-2.13-3.49l-1.01 3.18z" clip-path="url(#d)" fill="#2f2f2f"/><path d="M101.97 39.66c.33 2.32.42 4.67.41 7.02-.01 2.01.13 4.22-.42 6.17-.11.37-.33.64-.69.78-1.55.62-3.33.68-4.98.92-1.38.21-2.79.27-4.17.47l-6.02.87-5.65.81c-.07.01-.13.01-.19.01-.28 0-.53-.08-.75-.24-.27-.2-.45-.5-.5-.83-.64-4.49-2.25-8.7-4.52-12.61-3.78-6.52-11.76-9.21-18.37-4.94-.95.61-1.87 1.24-2.67 1.98-.74.68-1.03 1.49-1.56 2.3-.31.48-.52.82-.71 1.37-.13.4-.3.8-.46 1.19-.17.4-.2.78-.29 1.18-.05.23-.24.7-.08.95.49.79 1.6-.33 1.93-.66 3.52-3.49 8.22-5.48 12.75-2.44 2.9 1.94 4.67 5.21 5.87 8.39 1.24 3.23 1.98 6.64 2.47 10.05l.06.39c.06.47.32.88.69 1.17.31.23.67.35 1.04.35.09 0 .18-.01.27-.02 1.5-.23 2.98-.46 4.47-.68 3.73-.57 7.47-1.14 11.2-1.72 1.78-.27 3.57-.54 5.35-.82 1.39-.21 2.8-.31 4.18-.65 1.02-.25 4.03-.53 4.52-1.59.3-.67.12-1.66.14-2.37.08-2.66.12-5.17-.08-7.83-.24-3.49-.77-6.98-1.58-10.39-.74-3.12-2.04-6.04-3.16-9.03-.29-.79-.42-1.61-.77-2.37-.12-.24-.29-1.17-.58-1.26-.4-.11-.47.42-.5.69-.06.63.17 1.26.32 1.86.07.3.18.63.25.9.82 3.51 2.22 6.83 2.74 10.41.02.06.03.14.04.22z" clip-path="url(#d)" fill="#f79329"/></g></svg>