<svg xmlns="http://www.w3.org/2000/svg" viewBox="0 0 128 128"><path fill="#e0e0e0" d="M86.32 35.01l6.04 4.46-2.83 12.79-8.24-7.14z"/><path d="M125.52 67.52c-1.12.19-1.93.33-3.11.4-2.39.12-4.07-.06-6.03-1.36-2.27-1.5-4.58-3.16-7.03-4.37-4.44-2.21-9.9-2.67-14.36-.29-2.37 1.26-4.45 3.43-5.76 5.66-.93 1.57-1.96 3.34-.37 4.83 3.79 3.57 8.96.22 13.41 1.67 4.77 1.55 7.43 5.58 13.06 5.35 3.96-.16 7.39-2.26 9.61-5.32.41-.55.77-1.14 1.1-1.73.63-1.14 2.58-5.36-.52-4.84z" fill="#2f2f2f"/><path d="M97.26 82.05c-1.46-4.59-.15-10.34-3.39-14.07-1.33-1.54-3.14-3.44-5.23-3.73-2.25-.31-4.81-.99-7.14-.88-5.79.29-10.9 2.73-16.74 1.98-2.18-.28-4.37-.17-6.33-1.24-1.3-.72-2.27-1.79-3.52-2.58-3.46-2.2-6.65-4.27-9.38-7.4-2.74-3.14-4.06-7.35-6.57-10.63-.68-.9-1.33-1.69-2.13-2.52-.7-.74-1.16-1.64-1.77-2.45-1.29-1.7-2.86-3.21-4.26-4.84-.72-.83-1.65-1.16-2.51-1.78-.8-.57-1.38-.63-2.35-.75-1.27-.16-2.36-.48-3.67-.49-1.3-.01-2.56.47-3.86.53-.97.05-1.86.4-2.66.97-1.58 1.14-2.56 2.93-3.67 4.5-2.51 3.54-3.85 6.14-6.54 9.53-1.42 1.79-4.3 4.27-4.71 6.69-.47 2.79 2.88 6.04 5.28 6.78 3.67 1.11 9.65-3.05 12.41-5 1.01-.71 2.23-.86 3.33-1.36.64-.29.89-.49 1.57-.01 3.12 2.19 4.16 6.4 4.44 9.98.34 4.37-.92 7.42-2.26 11.45-1.39 4.18-1.49 9.16-.95 13.48.39 3.12 2.08 4.93-1.36 6.93-2.23 1.29-4.5 2.66-5.27 5.29-.66 2.25-.42 4.67-.35 6.98.12 4.65.26 9.17 2.57 13.2.45.79 1.01 1.23 1.76 1.93 1.85 1.75 3.25 3.33 5.95 2.75 1.76-.37 1.47-1.71 1.58-3.11.12-1.64.43-2.66-.25-4.3-.73-1.75-3.05-1.32-3.64-3.3-.74-2.51-.76-5.61-.27-8.16 1.04-5.38 7.06-4.47 11.34-4.53 3.71-.04 7.43.07 11.13-.32 4.62-.5 9.19-1.42 13.68-2.58 4.23-1.1 8.35-2.65 12.67-3.41 1.45-.25 3.52-.65 4.97-.56 1.76.12 3.17 1.93 4.44 2.97 8.37 6.87 29.71 10.39 24.94-.91-1.11-2.62-4.3-3.88-6.24-5.78-2.39-2.37-4.05-6.12-5.04-9.25z" fill="#855c52"/><path d="M24.02 32.84c.12-.64.3-1.3.32-1.95.02-.46-.25-1.01-.11-1.46.73-.13 1.59.04 2.3.19.87.19 1.56.32 2.47.32.78 0 1.41-.15 1.61.71.09.4-.13.69.17 1.03.23.26.75.32 1.08.39.55.13 1.12.19 1.64.4.21.09.39.06.61.08.27.03.69.18.94.32.6.33.35.88.61 1.38.12.24.39.3.62.43.34.19.64.37 1 .51.67.25 1.38.58 1.99.95.57.35.57 1.09.97 1.57.38.45.96.73 1.48 1.02.47.26 1.01.6 1.1 1.17.03.28-.1.57-.08.82.03.22.31.43.5.53 1 .52 2.8 1.12 2.78 2.54-.01.77.55 1.04 1.16 1.42.3.19.58.36.89.56.26.18.65.25.85.51.17.21.27.45.45.66.41.49.59 1.01.62 1.66.03 1.04.16 1.09.89 1.77 1.2 1.12 1.92 1.88 1.95 3.56.03 1.35 1.51 2.01 2.01 3.19.36.88.13 1.88.33 2.79.14.62.35 1.19.02 1.79-.66 1.22-2.76 1.3-3.96 1.3-.75 0-1.55.07-2.28-.04-1.59-.23-2.23-1.08-2.74-2.47-.57-1.57-.89-3.23-1.52-4.78-2.01-4.95-5.72-9.07-9.78-12.44-1.35-1.12-2.58-2.3-3.99-3.38-1.03-.79-2.2-1.38-3.17-2.27-.44-.41-.88-.97-1.46-1.19-.6-.23-1.07-.3-1.68-.64-1.14-.63-1.12-1.11-.72-2.38.04-.14.1-.35.13-.57z" fill="#2f2f2f"/><path d="M24.93 28.68c.01-.12.02-.24.02-.36.02-1.34-.73-2.45-2.15-2.71-1.67-.3-2.01 1.35-2.59 2.57-.46.96-.78 1.49-1.8 1.91-1.79.75-2.98 2.24-3.98 3.86-1.01 1.65-2.15 3.14-2.9 4.94 3.55-.58 7.55.34 10.9 1.54 1.34.48 3.01 2.21 4.48 2.05 2.9-.33 1.56-4.27.47-5.67-.87-1.13-3.61-2.76-3.5-4.34.07-1.3.89-2.54 1.05-3.79z" fill="#855c52"/><path d="M80.22 61.81c-3-2.18-8.11-.22-11.75-.22-2.56 0-4.98-.07-7.47-.43-1.62-.24-3.48-1.77-5.17-1.31-2.04.56-1.46 4.25-1.59 5.92-.18 2.27-.35 4.47-.35 6.77 0 3.36.42 7.37 3.91 8.6 4.81 1.7 10.78 1.36 15.76.96 3.39-.27 8.65-.76 10.2-4.32 1.52-3.47-.44-10.54-1.91-13.86-.42-.96-.98-1.63-1.63-2.11z" fill="#fcc21b"/><path d="M106.88 105.62c1.12.57 2.18 1.33 2.96 2.14 1.12 1.15 2.06 2.46 3.05 3.71 1.68 2.13 3.17 4.5 5.5 5.98 1.72 1.08 6.45 2.53 7.53-.1.53-1.3-.57-3.9-1.14-5.2-.74-1.7-2.36-3.91-4.33-4.19-.99-.15-1.31.05-2.17-.62-.54-.41-1.17-.92-1.62-1.42-1.46-1.56-2.3-3.91-3.4-5.73-1.72-2.81-4.43-8.29-8.04-9.1-3.05-.68-7.19.85-8.38 3.89-.73 1.89.42 3.08 1.52 4.5.98 1.27 1.43 3 2.48 4.19.91 1.01 2.2.74 3.41.98.85.19 1.76.52 2.63.97z" fill="#855c52"/><path d="M47.91 53l-1.76-2.67c-5.69 3.76-24.12 4.93-31.64 5.1-.2-.42-.42-.82-.65-1.21 1.23-.8 2.48-1.59 3.72-2.39.68-.44 1.36-.88 2.05-1.31.28-.19 1.1-.91 1.47-.8.58.17-.4 3.6-.31 4.11.5.09 1.02-.04 1.52-.06.23-.01.43-.04.67-.06 1.35-.16 1.1-3.71 1.19-4.65.15-1.48.27-2.95.38-4.43.1-1.45.2-2.9.28-4.35.01-.12.64-.5.74-.57.53-.43 1.01-.94 1.57-1.35.37-.28 1.06-.54 1.15-1.05.06-.3-.24-.66-.41-.88-.35-.45-.87-.98-1.44-1.13-.46-.12-.85.33-1.19.59-.62.49-1.25.98-1.88 1.46-.02.02-2.28-2.61-2.43-2.78l-2.33-2.66c-.67-.77-1.17-1.84-2.31-1.08-.36.24-.67.55-.95.87-.11.11-.23.27-.31.4-.15.24-.29.54-.04.76.27.24.58.44.82.71.33.36.64.73.96 1.1.66.75 1.31 1.5 1.96 2.25.1.1.18.21.28.31.87.99 1.73 1.98 2.6 2.97-.1 1.6-.22 3.57-.38 5.46l-9.23 5.93c-.38-.45-.77-.89-1.17-1.32-.6-.64-1.25-1.25-1.92-1.83-.83-.72-2.59-2.3-3.82-2.08-.6.11-.96.74-1.34 1.16-.3.34-.67.66-.58 1.15.1.28 1.41.65 1.69.78.85.42 1.58 1.07 2.29 1.7 1.25 1.11 2.4 2.35 3.35 3.73.32.46.61.94.88 1.43.24.44.53.85.66 1.33.08.27 0 .75.2.96.16.16.57.08.79.08 1.03 0 2.08-.08 3.11-.12l2.3-.09c2.06-.1 4.11-.23 6.17-.39 2.44-.19 4.88-.44 7.32-.75 2.45-.32 4.9-.71 7.33-1.24 2.1-.46 4.2-1.01 6.2-1.84.19-.07 2.49-1.17 2.44-1.25z" fill="#f79329"/><path fill="#e0e0e0" d="M71.79 63.67l-5.39-8.81 16.44-14.64 8.95 10.66z"/><ellipse transform="rotate(-80.294 87.577 44.968)" cx="87.58" cy="44.97" rx="7.29" ry="7.29" fill="#e0e0e0"/><ellipse transform="rotate(-65.216 69.752 58.808)" cx="69.75" cy="58.81" rx="5.18" ry="5.18" fill="#e0e0e0"/><path fill="#e0e0e0" d="M75.72 78.7l-7.66.72L64.61 59l10.05-.77z"/><path d="M73.82 86.32l-7.87.72a2.78 2.78 0 0 1-3.02-2.51l-.01-.14a2.78 2.78 0 0 1 2.51-3.02l7.87-.72a2.78 2.78 0 0 1 3.02 2.51l.01.14c.15 1.53-.98 2.88-2.51 3.02z"/><path d="M62.913 84.181l13.395-1.22.348 3.825-13.395 1.22z"/><path d="M71.447 80.82l4.631-.421.284 3.117-4.631.422z"/><path fill="#fbc11b" d="M55.36 25.04l6.54 5.46-3.56 5.49-14.35-8.98z"/><path d="M50.08 18.52L59.68 29l-6.79 6.32a7.542 7.542 0 0 1-10.91-.66l-3.37-3.99c-3.11-3.69-2.36-9.26 1.62-12l1.58-1.09c2.62-1.79 6.14-1.39 8.27.94z" fill="#fbc11b"/><path d="M56.84 25.4l-3.71 2.36-2.22-2.09c-.75-.7-1.82-.94-2.8-.61l1.51 3.17c-.86.55-1.95.61-2.87.15l-1.83-.9c-.79-.39-1.72-.37-2.5.05l-4.38 2.36s-4.51-4.97-.17-10.05c.75-.88 1.53-1.69 2.32-2.44 3.64-3.49 9.53-2.93 12.47 1.17 1.56 2.17 2.96 4.46 4.18 6.83z" fill="#6d4c41"/><path d="M43.36 30.77c.42.47.44 1.14.04 1.48-.39.34-1.05.24-1.46-.23-.42-.47-.44-1.14-.05-1.48.4-.35 1.05-.25 1.47.23" fill="#c07b47"/><path d="M38.71 16.17c-.25.19-.48.4-.69.62-1.19 1.22-2.43 3.22-2.86 4.88-.61 2.38.04 4.33.19 6.68.08 1.19-2.34 3.9-1.01 4.76 2.65 1.72 4.95-3.75 6.82-4.85 1.39-.83 2.98-1.25 4.43-1.98 2.6-1.3 5.09-2.77 7.54-4.33.35-.22.67-.47.99-.74.5-.42.91-.73.6-1.39-.33-.71-.84-1.38-1.3-2.01-3.08-4.25-9.47-5.62-14.71-1.64z" fill="#8d6e63"/><path d="M48.44 25.57c1.24 2.52 2.46 5.78 2.37 8.67-.01.23-.07.69.01.89 1.53-.59.81-5.24.56-6.51a16.68 16.68 0 0 0-1.93-5.15c-.21-.37-.27-.41-.66-.29-.56.16-.84.63-1.35.85.04.35.56.8.74 1.09.1.14.18.3.26.45z" fill="#8d6e63"/><path d="M68.51 81.52l-3.06-16.03 10.16-.73.48 15.75z"/><path d="M55.36 35.5c-.84-2.22-1.06-6.01.71-7.87 1.77-1.86 8.65-2.07 18.68 1.31 4.58 1.55 8.69 3.32 11.26 4.5 1.4.64 1.73 2.47.66 3.57l-10.56 9.2S57.88 42.19 55.36 35.5z" fill="#01bea4"/><g><ellipse transform="rotate(-87.719 61.475 49.187)" cx="61.47" cy="49.19" rx="3.24" ry="3.24" fill="#05a287"/><path d="M58.79 50.11l5.9-1.25-1.04-15.44a3.904 3.904 0 0 0-4.63-3.01l-.19.04a3.904 3.904 0 0 0-3.01 4.63l2.97 15.03z" fill="#05a287"/><path fill="#05a287" d="M50.17 49.1l1.04 6.54 11.74-3.57-4.75-5.17z"/><path d="M44.2 53.71l.04.18a3.724 3.724 0 0 0 4.43 2.85l2.06-.45a3.724 3.724 0 0 0 2.85-4.43l-.04-.18a3.724 3.724 0 0 0-4.43-2.85l-2.06.45a3.72 3.72 0 0 0-2.85 4.43z" fill="#fbc11b"/></g></svg>