<svg enable-background="new 0 0 128 128" viewBox="0 0 128 128" xmlns="http://www.w3.org/2000/svg" xmlns:xlink="http://www.w3.org/1999/xlink"><defs><rect id="g" x="4" y="4" width="120" height="120"/></defs><clipPath id="a"><use xlink:href="#g"/></clipPath><g clip-path="url(#a)"><linearGradient id="f" x1="119.87" x2="119.87" y1="97.471" y2="130.47" gradientUnits="userSpaceOnUse"><stop stop-color="#00BFA5" offset="0"/><stop stop-color="#00B29A" offset=".7047"/><stop stop-color="#00AB94" offset="1"/></linearGradient><path d="M69.37,130.47v-9.44c0-16.23,25.36-23.53,50.5-23.56H120c25.03,0,50.36,8.09,50.36,23.56 v9.44H69.37z" fill="url(#f)"/><path d="m120 98.97c12.9 0 25.42 2.19 34.36 6 6.62 2.83 14.51 7.91 14.51 16.05v7.94h-98v-7.94c0-15.2 24.61-22.03 49-22.06l0.13 0.01m0-3h-0.13c-25.49 0.03-52 7.28-52 25.06v10.94h104v-10.94c0-16.76-26.27-25.06-51.87-25.06z" fill="#009984"/><path d="m119.04 107.2c-4 0-7.26-3.22-7.26-7.17v-8.98h16.16v8.98c0 3.95-3.26 7.17-7.26 7.17h-1.64z" fill="#E59600"/><path d="m126.95 92.05v7.98c0 3.4-2.81 6.17-6.26 6.17h-1.65c-3.45 0-6.26-2.77-6.26-6.17v-7.98h14.17m2-2h-18.16v9.98c0 4.51 3.7 8.17 8.26 8.17h1.65c4.56 0 8.26-3.66 8.26-8.17v-9.98h-0.01z" fill="#D18100"/><path d="m92.54 72.23c-5.36 0-9.71-4.67-9.71-10.41s4.36-10.41 9.71-10.41h54.65c5.36 0 9.71 4.67 9.71 10.41s-4.36 10.41-9.71 10.41h-54.65z" fill="#E59600"/><path d="m147.19 52.4c4.8 0 8.71 4.22 8.71 9.41s-3.91 9.41-8.71 9.41h-54.65c-4.8 0-8.71-4.22-8.71-9.41s3.91-9.41 8.71-9.41h54.65m0-2h-54.65c-5.89 0-10.71 5.14-10.71 11.41 0 6.28 4.82 11.41 10.71 11.41h54.65c5.89 0 10.71-5.14 10.71-11.41 0.01-6.27-4.82-11.41-10.71-11.41z" fill="#D18100"/><linearGradient id="e" x1="119.87" x2="119.87" y1="94.562" y2="12.796" gradientUnits="userSpaceOnUse"><stop stop-color="#FFB300" offset="0"/><stop stop-color="#FFB809" offset=".102"/><stop stop-color="#FFC21A" offset=".3707"/><stop stop-color="#FFC825" offset=".6592"/><stop stop-color="#FFCA28" offset="1"/></linearGradient><path d="m119.87 95.24c-15.66 0-32.52-12.14-32.52-38.81 0-12.38 3.56-23.79 10.02-32.13 6.04-7.8 14.25-12.27 22.5-12.27s16.45 4.47 22.5 12.27c6.46 8.33 10.02 19.75 10.02 32.13 0 12.09-3.51 22.19-10.14 29.21-5.87 6.19-13.81 9.6-22.38 9.6z" fill="url(#e)"/><path d="m119.87 13.04c7.94 0 15.85 4.33 21.71 11.88 6.33 8.16 9.81 19.35 9.81 31.52 0 11.83-3.41 21.7-9.87 28.52-5.67 5.99-13.36 9.29-21.65 9.29s-15.98-3.3-21.65-9.29c-6.46-6.82-9.87-16.69-9.87-28.52 0-12.16 3.49-23.35 9.81-31.52 5.85-7.55 13.77-11.88 21.71-11.88m0-2c-17.4 0-33.52 18.61-33.52 45.39 0 26.64 16.61 39.81 33.52 39.81s33.52-13.17 33.52-39.81c0-26.78-16.12-45.39-33.52-45.39z" fill="#ED9E00"/><path d="m95.86 50.7s0.13-0.19 0.38-0.51c0.07-0.08 0.12-0.16 0.22-0.26 0.11-0.11 0.23-0.22 0.37-0.34s0.28-0.24 0.43-0.38c0.15-0.13 0.31-0.23 0.48-0.35 0.17-0.11 0.34-0.24 0.53-0.35 0.19-0.1 0.4-0.21 0.6-0.32 0.21-0.12 0.43-0.21 0.66-0.3s0.47-0.18 0.71-0.27c0.49-0.14 1-0.29 1.54-0.36 0.53-0.1 1.08-0.11 1.63-0.14 0.55 0.03 1.09 0.03 1.63 0.14 0.53 0.07 1.05 0.22 1.54 0.36 0.24 0.08 0.48 0.17 0.71 0.27 0.23 0.09 0.45 0.18 0.66 0.3 0.21 0.11 0.41 0.22 0.6 0.32 0.19 0.11 0.36 0.24 0.53 0.35 0.17 0.12 0.33 0.22 0.47 0.34s0.27 0.24 0.4 0.35c0.12 0.11 0.24 0.21 0.34 0.31s0.18 0.21 0.26 0.29c0.31 0.36 0.46 0.57 0.46 0.57 0.51 0.7 0.35 1.69-0.36 2.19-0.43 0.31-0.96 0.37-1.43 0.21l-0.29-0.1s-0.19-0.07-0.49-0.2c-0.08-0.03-0.15-0.07-0.25-0.11-0.1-0.03-0.19-0.07-0.3-0.11-0.21-0.08-0.44-0.17-0.7-0.25-0.13-0.04-0.26-0.09-0.4-0.13-0.14-0.03-0.28-0.07-0.43-0.11-0.07-0.02-0.15-0.04-0.22-0.06-0.08-0.01-0.15-0.03-0.23-0.04-0.16-0.03-0.31-0.07-0.47-0.1-0.33-0.04-0.66-0.11-1-0.12-0.34-0.04-0.69-0.03-1.03-0.05-0.35 0.02-0.7 0.01-1.03 0.05-0.34 0.02-0.67 0.09-1 0.12-0.16 0.03-0.31 0.07-0.47 0.1-0.08 0.01-0.16 0.03-0.23 0.04-0.07 0.02-0.15 0.04-0.22 0.06-0.15 0.04-0.29 0.07-0.43 0.11s-0.27 0.09-0.4 0.13-0.25 0.08-0.37 0.11c-0.1 0.04-0.2 0.07-0.29 0.1s-0.18 0.06-0.27 0.09c-0.1 0.04-0.2 0.1-0.29 0.14-0.36 0.18-0.57 0.27-0.57 0.27-0.83 0.34-1.77-0.05-2.11-0.87-0.25-0.48-0.17-1.06 0.13-1.49z" fill="#6D4C41"/><ellipse cx="103.43" cy="58.78" rx="4.93" ry="5.1" fill="#404040"/><path d="m141.92 53.1s-0.22-0.09-0.57-0.27c-0.09-0.04-0.19-0.1-0.29-0.14-0.09-0.02-0.18-0.06-0.27-0.09s-0.19-0.07-0.29-0.1c-0.12-0.04-0.24-0.07-0.37-0.11s-0.26-0.09-0.4-0.13-0.28-0.07-0.43-0.11c-0.07-0.02-0.15-0.04-0.22-0.06-0.08-0.01-0.15-0.03-0.23-0.04-0.16-0.03-0.31-0.07-0.47-0.1-0.33-0.04-0.66-0.11-1-0.12-0.34-0.04-0.69-0.03-1.03-0.05-0.35 0.02-0.7 0.01-1.03 0.05-0.34 0.02-0.67 0.09-1 0.12-0.16 0.03-0.31 0.07-0.47 0.1-0.08 0.01-0.16 0.03-0.23 0.04-0.07 0.02-0.15 0.04-0.22 0.06-0.15 0.04-0.29 0.08-0.43 0.11-0.14 0.04-0.27 0.09-0.4 0.13-0.26 0.07-0.49 0.16-0.7 0.25-0.11 0.04-0.2 0.08-0.3 0.11-0.09 0.04-0.17 0.08-0.25 0.11-0.3 0.13-0.49 0.2-0.49 0.2l-0.28 0.1c-0.82 0.29-1.72-0.15-2-0.97-0.17-0.5-0.08-1.03 0.21-1.44 0 0 0.16-0.22 0.46-0.57 0.08-0.09 0.16-0.19 0.26-0.29s0.22-0.2 0.34-0.31 0.26-0.23 0.4-0.35 0.31-0.22 0.47-0.34c0.17-0.12 0.34-0.24 0.53-0.35 0.19-0.1 0.4-0.21 0.6-0.32 0.21-0.12 0.43-0.21 0.66-0.3s0.46-0.18 0.71-0.27c0.49-0.14 1-0.29 1.54-0.36 0.53-0.1 1.08-0.11 1.63-0.14 0.55 0.03 1.09 0.03 1.63 0.14 0.53 0.06 1.05 0.22 1.54 0.36 0.24 0.08 0.48 0.17 0.71 0.27 0.23 0.09 0.45 0.18 0.66 0.3 0.21 0.11 0.41 0.22 0.6 0.32 0.19 0.11 0.36 0.24 0.53 0.35 0.17 0.12 0.32 0.22 0.48 0.35 0.15 0.13 0.3 0.26 0.43 0.38s0.26 0.23 0.37 0.34c0.09 0.1 0.15 0.18 0.22 0.26 0.25 0.31 0.38 0.51 0.38 0.51 0.5 0.74 0.31 1.74-0.43 2.25-0.5 0.28-1.08 0.32-1.56 0.12z" fill="#6D4C41"/><ellipse cx="136.3" cy="58.78" rx="4.93" ry="5.1" fill="#404040"/><path d="m123.73 68.03c-0.11-0.04-0.21-0.07-0.32-0.08h-7.07c-0.11 0.01-0.22 0.04-0.32 0.08-0.64 0.26-0.99 0.92-0.69 1.63s1.71 2.69 4.55 2.69 4.25-1.99 4.55-2.69c0.29-0.71-0.06-1.37-0.7-1.63z" fill="#E59600"/><path d="m128.29 76.11c-3.19 1.89-13.63 1.89-16.81 0-1.83-1.09-3.7 0.58-2.94 2.24 0.75 1.63 6.45 5.42 11.37 5.42s10.55-3.79 11.3-5.42c0.75-1.66-1.1-3.33-2.92-2.24z" fill="#795548"/><defs><path id="d" d="m119.87 4h-0.02s-0.01 0-0.02 0c-45.44 0.24-36.13 52.14-36.13 52.14s5.1 8.99 5.1 8.81c-0.03-1.41 0.46-6.89 0.46-6.89l-2.68-2.92s3.89-25.44 6.79-24.91c4.45 0.81 26.54 2 26.57 2 7.83 0 14.92-0.36 19.37-1.17 2.9-0.53 9.64 1.7 10.68 4.45 1.33 3.54 3.13 19.71 3.13 19.71l-2.68 2.83s0.49 5.51 0.46 6.89c0 0.18 5.1-8.81 5.1-8.81s9.3-51.89-36.13-52.13z"/></defs><clipPath><use xlink:href="#d"/></clipPath><radialGradient id="c" cx="120.13" cy="4.244" r="48.85" gradientUnits="userSpaceOnUse"><stop stop-color="#6D4C41" offset="0"/><stop stop-color="#543930" offset="1"/></radialGradient><path d="m119.88 4h-0.02s-0.01 0-0.02 0c-45.43 0.24-36.12 52.14-36.12 52.14s5.1 8.99 5.1 8.81c-0.16-7.25 2.74-20.09 4.8-25.55 1.04-2.76 3.9-4.36 6.79-3.83 4.45 0.81 11.55 1.81 19.37 1.81h0.08 0.08c7.83 0 14.92-1 19.37-1.81 2.9-0.53 5.76 1.08 6.79 3.83 2.06 5.47 4.96 18.3 4.8 25.55 0 0.18 5.1-8.81 5.1-8.81s9.32-51.9-36.12-52.14z" fill="url(#c)"/><path d="m119.88 4h-0.02s-0.01 0-0.02 0c-45.43 0.24-36.12 52.14-36.12 52.14s5 8.81 5.1 8.81c-0.03-1.48 0.07-3.2 0.26-5.03-0.12-0.29-2.46-4.75-2.48-4.79-0.24-1.6-0.93-6.98-0.55-13.56 0.41-7.04 2.17-16.96 8.22-24.22 5.67-6.8 14.27-10.28 25.56-10.35h0.04c11.32 0.06 19.93 3.54 25.6 10.35 10.81 12.96 8.18 34.33 7.67 37.79-0.02 0.04-2.46 4.58-2.49 4.65 0.2 1.89 0.31 3.65 0.27 5.17 0.09 0 5.1-8.81 5.1-8.81s9.3-51.91-36.14-52.15z" fill="#3F2720"/></g><g clip-path="url(#a)"><radialGradient id="b" cx="18.81" cy="-98.066" r="57.903" gradientTransform="matrix(.826 0 0 .826 -6.7495 73.271)" gradientUnits="userSpaceOnUse"><stop stop-color="#6D4C41" offset="0"/><stop stop-color="#543930" offset="1"/></radialGradient><path d="m-8.44 119.76s-6.8-0.35-10.21-5.09c-7.37-10.23-11.42-35.81-11.42-72.02 0-1.66 0.26-16.41 10.66-26.83 6.75-6.77 16.34-10.2 28.52-10.2 12.08 0 21.52 3.38 28.05 10.04 9.82 10.02 10.04 24.16 9.99 26.89 0 36.31-4.06 61.89-11.42 72.12-3.3 4.59-9.79 5.06-10.25 5.09l-16.93-0.03-16.99 0.03z" fill="url(#b)"/><path d="m9.11 7.12c11.66 0 20.74 3.23 26.98 9.59 9.6 9.8 9.59 24.2 9.56 25.81v0.12c0 35.9-3.96 61.17-11.14 71.15-2.84 3.94-8.55 4.43-9.08 4.46l-16.9-0.03-16.88 0.03c-0.58-0.04-6.25-0.54-9.08-4.46-7.18-9.98-11.14-35.24-11.14-71.17 0-0.63 0.08-15.58 10.22-25.75 6.46-6.46 15.7-9.75 27.46-9.75m0-3c-41.01 0-40.68 37.92-40.68 38.52 0 24.56 1.88 59.25 11.71 72.9 3.9 5.41 11.43 5.71 11.43 5.71l16.97-0.03 16.97 0.03s7.53-0.3 11.43-5.71c9.83-13.65 11.71-48.34 11.71-72.9-0.01-0.6 1.46-38.52-39.54-38.52z" fill="#3F2720"/><linearGradient id="m" x1="8.5361" x2="8.5361" y1="97.5" y2="130.5" gradientUnits="userSpaceOnUse"><stop stop-color="#651FFF" offset="0"/><stop stop-color="#5914F2" offset=".7047"/><stop stop-color="#530EEB" offset="1"/></linearGradient><path d="m-41.96 130.5v-9.51c0-17.29 27.21-23.46 50.5-23.49h0.14c13.39 0 25.82 2.15 35.01 6.05 7 2.98 15.35 8.42 15.35 17.44v9.51h-101z" fill="url(#m)"/><path d="m8.67 99c24.28 0 48.86 7.55 48.86 21.99v8.01h-98v-8.01c0-6.95 4.88-12.47 14.52-16.42 8.75-3.58 20.99-5.56 34.49-5.57h0.13m0-3h-0.14c-25.65 0.03-52 7.1-52 24.99v11.01h104v-11.01c0.01-16.86-26.09-24.99-51.86-24.99z" fill="#4A00ED"/><path d="M7.71,107.23c-4,0-7.26-3.22-7.26-7.17v-8.98h16.16v8.98c0,3.96-3.25,7.17-7.26,7.17H7.71z" fill="#E59600"/><path d="m15.62 92.08v7.98c0 3.4-2.81 6.17-6.26 6.17h-1.65c-3.45 0-6.26-2.77-6.26-6.17v-7.98h14.17m2-2h-18.16v9.98c0 4.51 3.7 8.17 8.26 8.17h1.65c4.56 0 8.26-3.66 8.26-8.17v-9.98h-0.01z" fill="#D18100"/><linearGradient id="l" x1="8.5361" x2="8.5361" y1="94.708" y2="17.885" gradientUnits="userSpaceOnUse"><stop stop-color="#FFB300" offset="0"/><stop stop-color="#FFB809" offset=".102"/><stop stop-color="#FFC21A" offset=".3707"/><stop stop-color="#FFC825" offset=".6592"/><stop stop-color="#FFCA28" offset="1"/></linearGradient><path d="m8.54 95.27c-2.3 0-4.91-0.5-7.56-1.43-11.33-4.01-24.57-16.34-24.57-37.88 0-28.72 17.31-38.91 32.13-38.91s32.13 10.19 32.13 38.91c0 21.58-13.26 33.9-24.61 37.9-2.64 0.92-5.24 1.41-7.52 1.41z" fill="url(#l)"/><path d="m8.54 18.04c8.41 0 16.06 3.25 21.55 9.15 6.27 6.73 9.58 16.68 9.58 28.77 0 21.06-12.9 33.07-23.94 36.96-2.53 0.89-5.01 1.36-7.19 1.36-2.19 0-4.69-0.48-7.23-1.38-11.03-3.9-23.9-15.92-23.9-36.94 0-12.09 3.31-22.03 9.58-28.77 5.49-5.9 13.14-9.15 21.55-9.15m0-2c-17.2 0-33.13 12.79-33.13 39.91 0 21.79 13.49 34.67 25.23 38.83 2.8 0.99 5.5 1.49 7.9 1.49 2.38 0 5.07-0.49 7.85-1.47 11.76-4.14 25.28-17.03 25.28-38.84 0-27.13-15.93-39.92-33.13-39.92z" fill="#ED9E00"/><defs><path id="k" d="m-25.06 88.85-1.5-51.44c0-16.95 15.78-29.85 32.73-29.85h4.93c16.95 0 32.54 12.9 32.54 29.85l-1.5 51.18-67.2 0.26z"/></defs><clipPath id="j"><use xlink:href="#k"/></clipPath><g clip-path="url(#j)"><radialGradient id="i" cx="33.43" cy="-89.217" r="48.206" gradientTransform="matrix(.796 0 0 .796 -18.075 70.598)" gradientUnits="userSpaceOnUse"><stop stop-color="#6D4C41" offset="0"/><stop stop-color="#543930" offset="1"/></radialGradient><path d="m46.43 42.65s1.02-35.57-37.81-35.57-37.97 35.57-37.97 35.57 0.33 45.48 3.2 51.39 7.2 5.71 7.2 5.71-2.03-26.54-2.26-39.04c-0.06-2.92-0.94-13.73 5.16-15.09 22.36-5.02 35.01-16.89 35.01-16.89 3.29 7.19 13.58 14.19 17.27 16.86 3.03 2.19 2.61 11.2 2.55 15.03l-3.05 39.06s4.68 0.37 7.65-5.64c2.95-6.02 3.05-51.39 3.05-51.39z" fill="url(#i)"/></g><path d="m12.35 68.05c-0.1-0.04-0.21-0.07-0.32-0.08h-6.99c-0.11 0.01-0.21 0.04-0.32 0.08-0.63 0.26-0.98 0.91-0.68 1.61s1.69 2.66 4.49 2.66 4.19-1.96 4.49-2.66c0.31-0.69-0.04-1.35-0.67-1.61z" fill="#E59600"/><ellipse cx="-7.71" cy="58.87" rx="4.87" ry="5.04" fill="#404040"/><ellipse cx="24.78" cy="58.87" rx="4.87" ry="5.04" fill="#404040"/><path d="m-0.48 49.82c-0.93-1.23-3.07-3.01-7.23-3.01s-6.31 1.79-7.23 3.01c-0.41 0.54-0.31 1.17-0.02 1.55 0.26 0.35 1.04 0.68 1.9 0.39s2.54-1.16 5.35-1.18c2.81 0.02 4.49 0.89 5.35 1.18s1.64-0.03 1.9-0.39c0.29-0.38 0.39-1.01-0.02-1.55z" fill="#6D4C41"/><path d="m32.02 49.82c-0.93-1.23-3.07-3.01-7.23-3.01s-6.31 1.79-7.23 3.01c-0.41 0.54-0.31 1.17-0.02 1.55 0.26 0.35 1.04 0.68 1.9 0.39s2.54-1.16 5.35-1.18c2.81 0.02 4.49 0.89 5.35 1.18s1.64-0.03 1.9-0.39c0.28-0.38 0.39-1.01-0.02-1.55z" fill="#6D4C41"/><path d="m16.85 76.14c-3.15 1.87-13.46 1.87-16.61 0-1.81-1.07-3.65 0.57-2.9 2.21 0.74 1.61 6.37 5.36 11.23 5.36s10.43-3.75 11.16-5.36c0.75-1.64-1.07-3.29-2.88-2.21z" fill="#795548"/></g><g clip-path="url(#a)"><linearGradient id="h" x1="64.22" x2="64.22" y1="-4.3801" y2="54.603" gradientUnits="userSpaceOnUse"><stop stop-color="#F48FB1" offset="0"/><stop stop-color="#EC407A" offset="1"/></linearGradient><path d="m64.22 70.89c-0.66 0-1.28-0.26-1.75-0.73-1.16-1.17-2.64-2.66-4.33-4.36-8.42-8.45-22.51-22.58-26.83-29-2.03-3.03-3.26-5.96-3.76-8.95-0.55-3.29-0.52-7.96 0.77-10.97 3.05-7.13 9.21-11.38 16.47-11.38l0.94 0.02c2.79 0.05 5.6 0.65 8.37 1.81 1.88 0.79 3.4 1.87 5 3.01 0.81 0.58 1.66 1.18 2.57 1.76 0.74 0.47 1.62 0.72 2.55 0.72s1.8-0.25 2.54-0.72c0.91-0.58 1.74-1.17 2.55-1.75 1.61-1.15 3.14-2.24 5.03-3.03 2.76-1.15 5.57-1.76 8.35-1.8l0.96-0.02c7.26 0 13.42 4.25 16.47 11.38 1.29 3.01 1.32 7.68 0.77 10.97-0.51 3.02-1.75 5.95-3.76 8.94-4.31 6.43-18.43 20.58-26.86 29.03-1.68 1.69-3.15 3.16-4.3 4.33-0.47 0.48-1.09 0.74-1.75 0.74z" fill="url(#h)"/><path d="m44.79 7h0.06c0.15 0 0.3 0.01 0.45 0.01 0.13 0 0.26 0 0.42 0.01 2.58 0.04 5.21 0.61 7.79 1.69 1.73 0.73 3.11 1.71 4.71 2.85 0.83 0.59 1.69 1.2 2.64 1.81 0.98 0.62 2.14 0.95 3.35 0.95s2.37-0.33 3.35-0.95c0.94-0.6 1.79-1.2 2.61-1.79 1.61-1.15 3-2.14 4.73-2.87 2.59-1.08 5.21-1.65 7.83-1.69 0.13 0 0.26-0.01 0.39-0.01 0.15 0 0.3 0 0.45-0.01h0.06c6.74 0 12.24 3.82 15.09 10.47 1.16 2.72 1.16 7.16 0.67 10.12-0.48 2.81-1.63 5.55-3.53 8.37-4.23 6.3-18.27 20.38-26.67 28.8-1.69 1.69-3.16 3.17-4.31 4.34-0.23 0.24-0.5 0.29-0.68 0.29s-0.44-0.05-0.68-0.29c-1.16-1.17-2.64-2.66-4.33-4.36-8.39-8.41-22.42-22.48-26.65-28.78-1.91-2.86-3.06-5.59-3.53-8.36-0.5-2.98-0.5-7.42 0.67-10.14 2.87-6.64 8.37-10.46 15.11-10.46m38.86-3h-0.11c-0.3 0.01-0.58 0.01-0.88 0.02-3.08 0.05-6.07 0.74-8.9 1.92-3.03 1.27-5.11 3.18-7.8 4.89-0.51 0.32-1.12 0.48-1.74 0.48s-1.24-0.16-1.74-0.48c-2.7-1.71-4.77-3.62-7.8-4.89-2.83-1.18-5.82-1.87-8.9-1.92-0.29-0.01-0.59-0.01-0.88-0.02h-0.11c-7.83 0-14.51 4.48-17.85 12.29-1.42 3.32-1.45 8.32-0.87 11.81 0.58 3.47 2.04 6.61 3.99 9.54 5.26 7.82 24.32 26.44 31.33 33.57 0.77 0.79 1.79 1.18 2.81 1.18s2.04-0.39 2.81-1.18c7.01-7.13 26.08-25.75 31.33-33.57 1.97-2.92 3.41-6.06 4-9.54 0.58-3.49 0.56-8.49-0.87-11.81-3.32-7.81-10-12.29-17.82-12.29z" fill="#D92E67"/></g></svg>
