<svg xmlns="http://www.w3.org/2000/svg" width="128" height="128"><path d="M72.453 58.6c14.569 5.09 37.382 7.926 49.353 23.123 8.768 11.12 4.425 24.513-8.924 29.257-9.919 3.526-24.822 3.825-42.817-1.796C22.16 94.22 16.03 53.614 16.03 53.614l-3.956-17.343 30.04-3.977S55.01 52.514 72.453 58.6z" fill="#901dc9"/><path d="M1.785 56.743c.162-.345.494-.655.807-.96.116-.112.229-.214.313-.305C6.119 51.88 6.37 47.266 6.631 42.38c.258-4.792.525-9.742 3.782-13.746.401-.49.888-.966 1.361-1.418 1.042-1.012 2.126-2.05 2.339-3.329.12-.698-.11-1.46-.358-2.265-.345-1.106-.727-2.363-.149-3.64.972-2.11 3.995-2.821 5.998-3.292l.305-.08c.103-.02.18-.047.247-.067.173-.049.376-.118.637-.049.193.052.356.152.65.344.086.051.157.09.22.125.277.15.462.275.743.672.93 1.356 1.888 2.132 3.101 2.512.365.116.743.217 1.121.317 1.234.329 2.51.593 3.755.839 1.243.255 2.538.514 3.789.847 2.502.666 4.441 1.524 6.09 2.702.674.473 1.339.982 2.015 1.484 1.758 1.32 3.577 2.686 5.485 3.677.795.411 1.572.712 2.386.93 1.595.424 3.124.452 4.891.487.428 0 .855.01 1.306.025.23.005.445.043.638.094.823.22 1.162.783 1.303 1.21.36 1.118-.241 2.683-.962 3.656-1.714 2.349-4.631 3.855-8.91 4.592-2.717.47-5.337.38-7.788-.273a15.929 15.929 0 0 1-3.382-1.326c-.27-.139-.535-.266-.8-.393-.312-.15-.608-.295-.925-.465l-.205-.111c-.3-.165-.756-.429-1.117-.525-.201-.054-.279-.027-.279-.027-.153.045-.223.111-.141.9.04.324.134.605.255.921.08.23.157.469.225.714.144.56.18 1.128.22 1.67.015.24.032.472.06.697.358 3.431-.733 6.087-1.977 8.447-.553 1.056-1.234 2.012-1.93 2.689-.13.136-.268.27-.399.405-.592.62-1.264 1.312-2.066 1.648-.676.294-1.281.36-1.844.21-1.133-.301-1.823-1.46-2.379-2.395-.868-1.463-1.463-3.213-2.035-4.91l-.255-.77c-.296-.864-.883-2.574-1.577-3.375-1.274 3.015-5.442 10.916-5.497 10.996-3.124 4.275-7.049 6.045-11.07 4.974a4.509 4.509 0 0 0-.364-.087 6.592 6.592 0 0 1-.415-.092c-.328-.087-.779-.255-.974-.714-.18-.294-.163-.669.03-1.072zm55.12-26.523c-.032-.018-.061-.045-.095-.054a2.09 2.09 0 0 0-.51-.069c.24.007.433.058.605.123zM40.74 38.13c.647.172 1.304.3 1.971.383-.814-.103-1.616-.298-2.41-.528.152.04.288.105.44.145zm-14.31 15.481c.034.01.071 0 .105.01-.067-.018-.12-.023-.176-.048.025.007.046.032.07.038zm7.879-32.76c-.099-.036-.208-.065-.309-.092-.109-.03-.228-.052-.338-.08l.647.171zM20.64 15.097c-.008-.002-.019.005-.036 0 .042.012.084.023.132.045a.503.503 0 0 0-.096-.045zM3.611 58.12c.268.071.533.085.797.136-.283-.047-.562-.074-.848-.15l.05.014zm-.779-.18c.059.016.11.03.17.036a2.005 2.005 0 0 1-.392-.113c.073.029.138.055.222.078z" fill="#bdcf46"/><path d="M107.31 72.996c3.93 1.633 7.975 3.472 12.026 9.998 6.284 10.123-2.602 14.626-7.368 6.537-6.458-10.96-17.39-16.375-13.837-17.938 1.477-.65 6.221.175 9.18 1.403z" fill="#fff"/></svg>