<?xml version="1.0" encoding="UTF-8" standalone="no"?>
<!-- Generator: Adobe Illustrator 24.1.2, SVG Export Plug-In . SVG Version: 6.00 Build 0)  -->

<svg
   version="1.1"
   id="Layer_1"
   x="0px"
   y="0px"
   viewBox="0 0 128 128"
   style="enable-background:new 0 0 128 128;"
   xml:space="preserve"
   sodipodi:docname="emoji_u1f972.svg"
   inkscape:version="1.3.2 (091e20e, 2023-11-25, custom)"
   xmlns:inkscape="http://www.inkscape.org/namespaces/inkscape"
   xmlns:sodipodi="http://sodipodi.sourceforge.net/DTD/sodipodi-0.dtd"
   xmlns="http://www.w3.org/2000/svg"
   xmlns:svg="http://www.w3.org/2000/svg"><defs
   id="defs9" /><sodipodi:namedview
   id="namedview9"
   pagecolor="#ffffff"
   bordercolor="#000000"
   borderopacity="0.25"
   inkscape:showpageshadow="2"
   inkscape:pageopacity="0.0"
   inkscape:pagecheckerboard="0"
   inkscape:deskcolor="#d1d1d1"
   inkscape:zoom="6.0234375"
   inkscape:cx="55.948119"
   inkscape:cy="62.1738"
   inkscape:window-width="1920"
   inkscape:window-height="991"
   inkscape:window-x="-9"
   inkscape:window-y="-9"
   inkscape:window-maximized="1"
   inkscape:current-layer="Layer_1" />
<g
   id="facial_expressions">
	
		<radialGradient
   id="face_1_"
   cx="63.6"
   cy="-62.06"
   r="56.9597"
   gradientTransform="matrix(1 0 0 1 0 124.96)"
   gradientUnits="userSpaceOnUse">
		<stop
   offset="0.5"
   style="stop-color:#FDE030"
   id="stop1" />
		<stop
   offset="0.92"
   style="stop-color:#F7C02B"
   id="stop2" />
		<stop
   offset="1"
   style="stop-color:#F4A223"
   id="stop3" />
	</radialGradient>
	<path
   id="face"
   style="fill:url(#face_1_);"
   d="M63.6,118.8c-27.9,0-58-17.5-58-55.9S35.7,7,63.6,7c15.5,0,29.8,5.1,40.4,14.4   c11.5,10.2,17.6,24.6,17.6,41.5s-6.1,31.2-17.6,41.4C93.4,113.6,79,118.8,63.6,118.8z" />
	<path
   id="mouth"
   style="fill:#422B0D;"
   d="M63,91.61c-9.07,0.07-17.73-3.74-23.8-10.48c-0.46-0.53-0.57-1.28-0.28-1.92   c0.29-0.65,0.93-1.07,1.64-1.08l0,0c0.32,0,0.64,0.09,0.92,0.25c4.82,2.77,12.88,6.21,21.52,6.21h0.14c8.63,0,16.7-3.44,21.51-6.21   c0.28-0.16,0.6-0.25,0.92-0.25l0,0c0.71,0.01,1.35,0.43,1.64,1.08c0.3,0.64,0.19,1.39-0.28,1.92   c-6.07,6.74-14.75,10.56-23.82,10.48" />
	<path
   style="fill:#422B0D;"
   d="M44,40.94L44,40.94c-4.19,0-8,3.54-8,9.42s3.81,9.41,8,9.41l0,0c4.2,0,8-3.54,8-9.41   S48.24,40.94,44,40.94z"
   id="path3" />
	
	<path
   style="fill:#422B0D;"
   d="M82.4,40.94L82.4,40.94c-4.19,0-8,3.54-8,9.42s3.81,9.41,8,9.41l0,0c4.19,0,8-3.54,8-9.41   S86.59,40.94,82.4,40.94z"
   id="path5" />
	
	
		<radialGradient
   id="SVGID_1_"
   cx="37.82"
   cy="-769.175"
   r="26.42"
   gradientTransform="matrix(1 0 0 -1.54 0 -1115.13)"
   gradientUnits="userSpaceOnUse">
		<stop
   offset="0.46"
   style="stop-color:#29B6F6"
   id="stop6" />
		<stop
   offset="1"
   style="stop-color:#1E88E5"
   id="stop7" />
	</radialGradient>
	<path
   style="fill:#5f7aff;fill-opacity:1"
   d="m 85.4,104.5 c -6.5,0 -11.5,-6.3 -11.5,-11.7 0,-3.8 1.7,-8.2 4.1,-14.3 0.3,-0.9 0.7,-1.8 1.1,-2.8 1.4,-3.62 3,-7.16 4.8,-10.6 0.36,-0.69 1.18,-0.99 1.9,-0.7 0.3,0.15 0.55,0.4 0.7,0.7 1.5,3.1 3.2,6.9 4.9,10.8 4.2,9.4 5.4,13.2 5.4,17 0.1,5.3 -5,11.6 -11.4,11.6 z"
   id="path7" />
	
	
</g>
</svg>
