<svg xmlns="http://www.w3.org/2000/svg" viewBox="0 0 128 128"><path d="M63.41 101.77h.4c4.59-.07 13.28-1.07 19.9-7.03 5.52-4.97 8.08-11.75 7.02-18.62-.98-6.4-5.01-11.86-11.16-15.2 5.9-4.44 9.44-9.98 10.06-15.74.6-5.59-1.58-11.16-6.32-16.12-4.76-4.98-11.18-7.61-18.55-7.61-11.35 0-21.8 6.01-24.98 10.34a1.1 1.1 0 0 0-.02 1.25l7.05 10.2c.17.25.43.41.74.46.29.04.6-.04.84-.23.08-.07 7.75-6.34 14.28-6.34 2.99 0 5.2 1.31 6.75 4 1.29 2.25 1.54 4.31.75 6.26-2.15 5.33-11.26 8.01-11.35 8.04-.46.13-.78.55-.78 1.04v8.98c0 .49.33.93.82 1.04.09.02 8.75 2.17 10.73 7.14.77 1.95.38 4.15-1.17 6.56-1.64 2.54-4.13 3.83-7.39 3.83-6.32 0-14.06-4.8-17.47-7.82-.24-.2-.53-.31-.85-.27-.31.04-.58.2-.76.46l-7.05 10.2c-.27.4-.25.94.07 1.31.51.55 12.06 13.87 28.44 13.87z" fill="#fff"/></svg>