<svg enable-background="new 0 0 128 128" viewBox="0 0 128 128" xmlns="http://www.w3.org/2000/svg"><linearGradient id="a" x1="64" x2="64" y1="25.5" y2="103.28" gradientUnits="userSpaceOnUse"><stop stop-color="#616161" offset="0"/><stop stop-color="#5B5B5B" offset=".2231"/><stop stop-color="#484848" offset=".5356"/><stop stop-color="#2B2B2B" offset=".8994"/><stop stop-color="#212121" offset="1"/></linearGradient><path d="m65.02 80.77h-7.74c-0.96 0-1.79 0.69-1.97 1.64l-3.4 18.35c-0.18 0.95-1 1.64-1.97 1.64h-4.79c-1.25 0-2.19-1.13-1.97-2.36l3.13-16.89c0.23-1.23-0.72-2.36-1.97-2.36h-7.78c-1.1 0-2-0.9-2-2v-4.33c0-1.1 0.9-2 2-2h10.1c0.96 0 1.79-0.69 1.97-1.64l2.32-12.56c0.23-1.23-0.72-2.36-1.97-2.36h-8.41c-1.1 0-2-0.9-2-2v-4.33c0-1.1 0.9-2 2-2h10.74c0.96 0 1.79-0.69 1.97-1.63l3.5-18.67c0.18-0.95 1-1.63 1.97-1.63h4.74c1.25 0 2.2 1.14 1.97 2.37l-3.23 17.2c-0.23 1.23 0.71 2.37 1.97 2.37h7.8c0.96 0 1.79-0.69 1.97-1.63l3.5-18.67c0.18-0.95 1-1.63 1.97-1.63h4.74c1.25 0 2.2 1.14 1.97 2.37l-3.23 17.2c-0.23 1.23 0.71 2.37 1.97 2.37h6.56c1.1 0 2 0.9 2 2v4.33c0 1.1-0.9 2-2 2h-8.89c-0.96 0-1.79 0.69-1.97 1.64l-2.32 12.56c-0.23 1.23 0.72 2.36 1.97 2.36h7.25c1.1 0 2 0.9 2 2v4.33c0 1.1-0.9 2-2 2h-9.59c-0.96 0-1.79 0.69-1.97 1.64l-3.4 18.35c-0.18 0.95-1 1.64-1.97 1.64h-4.74c-1.25 0-2.19-1.13-1.97-2.36l3.13-16.89c0.24-1.29-0.71-2.42-1.96-2.42zm-5.42-8.33h7.75c0.96 0 1.79-0.69 1.97-1.64l2.32-12.56c0.23-1.23-0.72-2.36-1.97-2.36h-7.75c-0.96 0-1.79 0.69-1.97 1.64l-2.32 12.56c-0.22 1.22 0.72 2.36 1.97 2.36z" fill="url(#a)"/><g opacity=".2"><path d="m82.96 28.61-3 16.02c-0.28 1.47 0.11 2.97 1.07 4.11 0.95 1.15 2.36 1.81 3.85 1.81h5.56v2.33h-7.89c-2.41 0-4.48 1.72-4.92 4.09l-2.33 12.56c-0.27 1.46 0.12 2.96 1.07 4.11s2.35 1.8 3.84 1.8h6.25v2.33h-8.56c-2.41 0-4.48 1.72-4.92 4.09l-3.25 17.53h-2.7l2.91-15.71c0.27-1.47-0.12-2.96-1.07-4.11s-2.35-1.8-3.84-1.8h-7.74c-2.41 0-4.48 1.72-4.92 4.09l-3.25 17.53h-2.76l2.91-15.71c0.27-1.47-0.12-2.96-1.07-4.11s-2.35-1.8-3.84-1.8h-6.78v-2.33h9.1c2.41 0 4.48-1.72 4.92-4.09l2.32-12.56c0.27-1.46-0.12-2.96-1.07-4.11-0.95-1.14-2.35-1.8-3.84-1.8h-7.41v-2.33h9.74c2.4 0 4.47-1.72 4.91-4.08l3.35-17.86h2.7l-3 16.02c-0.27 1.47 0.11 2.97 1.07 4.11 0.95 1.15 2.36 1.81 3.85 1.81h7.8c2.4 0 4.47-1.72 4.91-4.08l3.35-17.86h2.68m-23.36 46.83h7.75c2.41 0 4.48-1.72 4.92-4.09l2.32-12.56c0.27-1.46-0.12-2.96-1.07-4.11-0.95-1.14-2.35-1.8-3.84-1.8h-7.75c-2.41 0-4.48 1.72-4.92 4.09l-2.32 12.56c-0.27 1.46 0.12 2.96 1.07 4.11s2.35 1.8 3.84 1.8m24.56-49.83h-4.74c-0.96 0-1.79 0.69-1.97 1.63l-3.5 18.67c-0.18 0.95-1 1.63-1.97 1.63h-7.8c-1.25 0-2.2-1.14-1.97-2.37l3.23-17.2c0.23-1.23-0.71-2.37-1.97-2.37h-4.74c-0.96 0-1.79 0.69-1.97 1.63l-3.5 18.67c-0.18 0.95-1 1.63-1.97 1.63h-10.71c-1.1 0-2 0.9-2 2v4.33c0 1.1 0.9 2 2 2h8.41c1.25 0 2.19 1.13 1.97 2.36l-2.32 12.58c-0.18 0.95-1 1.64-1.97 1.64h-10.1c-1.1 0-2 0.9-2 2v4.33c0 1.1 0.9 2 2 2h7.78c1.25 0 2.19 1.13 1.97 2.36l-3.13 16.89c-0.23 1.23 0.72 2.36 1.97 2.36h4.79c0.96 0 1.79-0.69 1.97-1.64l3.4-18.35c0.18-0.95 1-1.64 1.97-1.64h7.74c1.25 0 2.19 1.13 1.97 2.36l-3.13 16.89c-0.23 1.23 0.72 2.36 1.97 2.36h4.74c0.96 0 1.79-0.69 1.97-1.64l3.4-18.35c0.18-0.95 1-1.64 1.97-1.64h9.57c1.1 0 2-0.9 2-2v-4.33c0-1.1-0.9-2-2-2h-7.25c-1.25 0-2.19-1.13-1.97-2.36l2.32-12.56c0.18-0.95 1-1.64 1.97-1.64h8.89c1.1 0 2-0.9 2-2v-4.33c0-1.1-0.9-2-2-2h-6.56c-1.25 0-2.2-1.14-1.97-2.37l3.23-17.2c0.21-1.19-0.74-2.33-1.99-2.33zm-24.56 46.83c-1.25 0-2.19-1.13-1.97-2.36l2.32-12.56c0.18-0.95 1-1.64 1.97-1.64h7.75c1.25 0 2.19 1.13 1.97 2.36l-2.33 12.56c-0.18 0.95-1 1.64-1.97 1.64h-7.74z" fill="#eee"/></g></svg>
