<svg width="128" height="128" style="enable-background:new 0 0 128 128;" xmlns="http://www.w3.org/2000/svg" xmlns:xlink="http://www.w3.org/1999/xlink">
  <style type="text/css">
.st0{fill:#FCC21B;}
.st1{fill:#865A3D;}
.st2{clip-path:url(#SVGID_2_);}
.st3{fill:#ED6C30;}
  </style>
  <g>
    <path class="st0" d="M88.1,64.1C88.1,64,88.1,64,88.1,64.1L88.1,64.1c0-21.2-13.9-49.4-20.6-61.8c-1.5-2.8-5.5-2.8-7,0 C53.8,14.6,39.9,42.9,39.9,64h0c0,0,0,0,0,0.1s0,0,0,0.1h0c0,21.1,13.9,49.4,20.6,61.7c1.5,2.8,5.5,2.8,7,0 C74.2,113.5,88.1,85.2,88.1,64.1L88.1,64.1C88.1,64.1,88.1,64.1,88.1,64.1z"/>
    <path class="st1" d="M84.1,64.1C84.1,64,84.1,64,84.1,64.1L84.1,64.1c0-13.2-6.4-29.5-12-41.3c-3.2-6.9-13-6.9-16.3,0 c-5.6,11.8-12,28.2-12,41.3h0c0,0,0,0,0,0c0,0,0,0,0,0h0c0,13.1,6.4,29.5,12,41.3c3.3,6.9,13,6.9,16.3,0 C77.7,93.6,84.1,77.2,84.1,64.1L84.1,64.1C84.1,64.1,84.1,64.1,84.1,64.1z"/>
    <g>
      <defs>
        <path id="SVGID_1_" d="M84.1,64.1C84.1,64,84.1,64,84.1,64.1L84.1,64.1c0-13.2-6.4-29.5-12-41.3c-3.2-6.9-13-6.9-16.3,0 c-5.6,11.8-12,28.2-12,41.3h0c0,0,0,0,0,0c0,0,0,0,0,0h0c0,13.1,6.4,29.5,12,41.3c3.3,6.9,13,6.9,16.3,0 C77.7,93.6,84.1,77.2,84.1,64.1L84.1,64.1C84.1,64.1,84.1,64.1,84.1,64.1z"/>
      </defs>
      <clipPath id="SVGID_2_">
        <use style="overflow:visible;" xlink:href="#SVGID_1_"/>
      </clipPath>
      <g class="st2">
        <rect class="st3" height="8.9" width="32.1" x="47.9" y="29.3"/>
        <rect class="st3" height="8.9" width="32.1" x="47.9" y="90.7"/>
        <g>
          <rect class="st1" height="1.2" width="42.8" x="43" y="52.8"/>
          <rect class="st1" height="1.2" width="42.8" x="43" y="74"/>
        </g>
      </g>
    </g>
    <g>
      <rect class="st0" height="65.8" transform="matrix(0.7292 0.6843 -0.6843 0.7292 61.3897 -26.4526)" width="5.4" x="61.4" y="31.4"/>
      <path class="st3" d="M111.3,11.3l2.3,2.1c2.3,2.2,2.5,5.8,0.4,8.2l-11.3,13.1c-3.2,3.8-7.6,6.4-12.4,7.5L82.7,44l1.5-8.1 c0.9-4.8,3.2-9.2,6.7-12.6l12.2-12C105.4,9.2,109,9.1,111.3,11.3z"/>
      <path class="st3" d="M14.4,114.6l2.3,2.1c2.3,2.2,5.9,2.1,8.2-0.1l12.3-12.1c3.5-3.5,5.9-8,6.7-12.9l1.3-7.7l-8,2 c-4.7,1.2-9,3.8-12.2,7.5L14,106.4C11.9,108.8,12.1,112.4,14.4,114.6z"/>
      <polygon class="st3" points="81.9,49.3 78,45.6 84.6,38.1 88.8,42.2 "/>
      <polygon class="st3" points="43.9,90.5 39.3,86.4 46.3,79.4 50.2,83 "/>
      <polygon class="st3" points="78,45.6 79.4,44 83.4,47.8 81.9,49.3 "/>
      <polygon class="st3" points="64.7,59.8 68.5,63.5 64.4,68 60.4,64.3 "/>
      <polygon class="st3" points="50.2,83 48.7,84.8 44.7,81 46.3,79.4 "/>
    </g>
  </g>
</svg>