<?xml version="1.0" encoding="utf-8"?>
<!-- Generator: Adobe Illustrator 19.2.1, SVG Export Plug-In . SVG Version: 6.00 Build 0)  -->
<svg version="1.1" id="レイヤー_1" xmlns="http://www.w3.org/2000/svg" xmlns:xlink="http://www.w3.org/1999/xlink" x="0px"
	 y="0px" viewBox="0 0 128 128" style="enable-background:new 0 0 128 128;" xml:space="preserve">
<g>
	<path style="fill:#F79229;" d="M-111.8,48.58c-0.54-1.48,0.16-3.14,1.6-3.78c6.59-2.95,13.26-4.42,20-4.42
		c5.01,0,9.32,0.89,12.94,2.67c3.61,1.78,6.32,4.2,8.13,7.26c1.81,3.06,2.71,6.52,2.71,10.37c0,3.95-0.93,7.5-2.78,10.66
		c-1.85,3.16-4.61,5.77-8.27,7.84c1.54,1.35,3.05,2.33,4.52,2.93c1.47,0.6,3.02,0.9,4.66,0.9c1.98,0,3.75-0.55,5.31-1.66
		c1.56-1.11,3.24-3.08,5.02-5.93l4.41-7.08c2.6-4.19,5.06-7.35,7.37-9.47c2.31-2.12,4.74-3.62,7.3-4.52
		c2.55-0.89,5.52-1.34,8.89-1.34c4.14,0,7.99,1.05,11.53,3.14s6.29,5.16,8.24,9.18c1.95,4.02,2.93,8.76,2.93,14.2
		c0,4.92-0.94,9.29-2.81,13.11c-1.95,3.98-5.05,7.34-8.9,9.55c-4.06,2.33-8.83,3.5-14.31,3.5c-4,0-7.7-0.76-11.09-2.28
		c-2.6-1.16-5.26-2.83-7.96-5c-1.37-1.1-1.55-3.13-0.35-4.41c0.98-1.05,2.13-2.28,3.1-3.31c1.07-1.14,2.85-1.31,4.08-0.34
		c1.72,1.37,3.4,2.44,5.03,3.19c2.29,1.06,4.83,1.59,7.62,1.59c2.36,0,4.58-0.57,6.65-1.7c2.07-1.13,3.76-2.9,5.06-5.31
		c1.3-2.41,1.95-5.32,1.95-8.74c0-4.87-1.01-8.72-3.04-11.56c-2.02-2.84-4.75-4.26-8.17-4.26c-1.83,0-3.47,0.35-4.91,1.05
		c-1.45,0.7-2.84,1.82-4.19,3.36c-1.35,1.54-2.87,3.73-4.55,6.58l-3.9,6.58c-1.35,2.26-2.88,4.34-4.59,6.21
		c-1.71,1.88-3.72,3.36-6.03,4.44s-5.01,1.63-8.09,1.63h-0.07c1.3,2.7,1.95,5.44,1.95,8.24c0,4.53-1.05,8.35-3.14,11.45
		s-4.89,5.4-8.38,6.87c-3.49,1.47-7.43,2.2-11.82,2.2c-5.78,0-11.06-1.4-15.83-4.19c-4.77-2.79-9.26-7.17-13.48-13.12
		c-3.79-5.34-7.54-12.25-11.27-20.71c-0.7-1.59,0.09-3.44,1.72-4.03c1.49-0.54,3.28-1.18,4.73-1.71c1.49-0.54,3.15,0.18,3.77,1.64
		c4.33,10.2,8.79,17.84,13.37,22.93c4.96,5.52,10.29,8.27,15.97,8.27c4,0,7.11-0.92,9.32-2.75c2.22-1.83,3.32-4.53,3.32-8.09
		c0-3.18-0.87-6.21-2.6-9.11s-4.48-5.78-8.24-8.67c-1.73,0.32-3.56,0.56-5.5,0.7c-1.66,0.13-3.11-1.15-3.22-2.81l-0.27-4.39
		c-0.1-1.62,1.1-3.06,2.72-3.19c4.65-0.37,8.28-1.38,10.89-3.03c3.13-1.97,4.7-5.01,4.7-9.11c0-2.31-0.54-4.21-1.63-5.71
		c-1.08-1.49-2.49-2.58-4.23-3.25c-1.73-0.67-3.64-1.01-5.71-1.01c-3.13,0-6.12,0.39-8.96,1.16c-2.14,0.58-4.63,1.53-7.48,2.84
		c-1.59,0.73-3.47-0.05-4.07-1.69L-111.8,48.58z M-24.59,9.84c1.49,0.51,2.34,2.11,1.92,3.63c-2.13,7.7-5.44,13.57-9.93,17.61
		c-5.01,4.5-11.66,6.76-19.95,6.76c-13.87,0-24.05-8.05-30.54-24.16c-0.64-1.59,0.19-3.4,1.8-3.96l4.52-1.57
		c1.52-0.53,3.17,0.24,3.77,1.74c2.36,5.86,5.03,10.22,8.01,13.1c3.42,3.3,7.68,4.95,12.79,4.95c3.56,0,6.56-0.76,9-2.28
		c2.43-1.52,4.43-3.72,6-6.61c1.24-2.3,2.41-5.31,3.48-9.04c0.47-1.64,2.24-2.54,3.85-1.98L-24.59,9.84z M-52.69,5.83
		c1.98,0,3.7,0.71,5.17,2.13c1.47,1.42,2.2,3.17,2.2,5.24c0,2.07-0.73,3.82-2.2,5.24c-1.47,1.42-3.19,2.13-5.17,2.13
		c-1.98,0-3.7-0.71-5.17-2.13c-1.47-1.42-2.2-3.17-2.2-5.24c0-2.07,0.73-3.82,2.2-5.24C-56.39,6.54-54.67,5.83-52.69,5.83z"/>
</g>
<g>
	<path style="fill:#F79229;" d="M76.52,39.24c16.29-0.25,24.83-7.42,31.32-23.45c0.39-0.95-0.02-2.04-0.95-2.49l-6.37-3.06
		c-1.01-0.49-2.23-0.01-2.63,1.04c-4.23,10.85-10.98,20.07-24.7,20.07c-9.08,0-16.22-5.89-20.55-15.29
		c-0.23-0.49-0.81-0.71-1.3-0.48l-1.95,0.94c-0.48,0.23-0.68,0.82-0.45,1.3C55.3,30.85,62.21,39.46,76.52,39.24z"/>
	<path style="fill:#F79229;" d="M104.07,52.49c-7.82-0.47-16.84,2.56-23.91,13.49c-4.72,7.3-9.84,18.59-16.37,18.86
		c-5.34,0.22-6.87-0.82-10.84-4.72c4.83-2.99,10.36-9.33,10.65-15.56c0.43-9.3-1.1-18.7-11.01-22.6
		c-11.02-4.7-23.51,0.09-33.87,5.44c-0.95,0.49-1.33,1.66-0.84,2.61l3.66,7.1c0.53,1.03,1.83,1.36,2.79,0.73
		c1.16-0.77,2.8-1.8,4.65-2.78c6.25-3.32,11.51-4.02,18.32-2.43c5.88,1.38,11.35,9.13,7.74,14.75c-4.02,6.26-11.98,6.53-18.9,6.68
		c-1.13,0.02-1.99,1-1.88,2.12l0.65,6.58c0.11,1.11,1.13,1.9,2.23,1.72c2.02-0.33,5.09-0.8,7.02-0.93
		c5.65-0.38,10.18,7.09,10.18,12.22c0.01,7.86-4.98,15.49-13.54,15.74c-11.52,0.33-22.99-7.58-31.66-20.53
		c-0.26-0.39-0.76-0.54-1.19-0.35l-2.92,1.28c-0.5,0.22-0.73,0.82-0.49,1.32c7.8,16.02,19.19,29.18,38.55,29.35
		c14.28,0.13,21.66-7.3,22.09-17.29c0.17-3.95-2.05-9.68-4.84-13.78c3.09,1.67,5.32,2,8.42,1.95c6.71-0.1,12.03-6.01,17.57-16
		C94.67,62.47,98,58.31,105.57,58.39c7.14,0.07,11.45,6.99,10.91,19.51c-0.62,14.27-7.55,22.95-18.46,23.19
		c-7.67,0.16-13.49-1.45-17.4-6.85c-0.33-0.45-0.95-0.56-1.39-0.22l-1.86,1.42c-0.41,0.32-0.5,0.91-0.2,1.34
		c5.6,7.85,10.59,13.4,19.82,14.61c15.92,0.37,26.95-10.3,26.89-28.95C123.82,63.78,115.67,53.18,104.07,52.49z"/>
	<path style="fill:#F79229;" d="M75.25,22.54c0.31,0.26,0.69,0.38,1.07,0.38c0.47,0,0.94-0.19,1.27-0.57l7.56-8.58
		c0.3-0.34,0.45-0.79,0.42-1.24c-0.03-0.45-0.25-0.87-0.59-1.17L76.4,4.09c-0.69-0.59-1.73-0.52-2.34,0.15l-7.85,8.58
		c-0.31,0.34-0.47,0.8-0.44,1.26c0.03,0.46,0.26,0.89,0.62,1.19L75.25,22.54z"/>
</g>
</svg>
