<svg width="128" height="128" style="enable-background:new 0 0 128 128;" xmlns="http://www.w3.org/2000/svg" xmlns:xlink="http://www.w3.org/1999/xlink">
  <symbol id="Grid" viewBox="-64.5 -64.5 129 129">
    <g id="XMLID_102_">
      <rect id="XMLID_110_" height="128" style="fill:none;stroke:#4285F4;stroke-miterlimit:10;" width="128" x="-64" y="-64"/>
      <path id="XMLID_109_" d="M36.95,37.82C27.32,46.32,14.2,51,0,51 c-14.27,0-27.39-4.62-36.96-13.01C-47.45,28.79-53,15.65-53,0c0-15.58,5.55-28.69,16.04-37.92C-27.36-46.35-14.24-51,0-51 c14.17,0,27.29,4.71,36.95,13.25C47.45-28.45,53-15.4,53,0C53,15.47,47.45,28.55,36.95,37.82z" style="fill:none;stroke:#4285F4;stroke-miterlimit:10;"/>
      <path id="XMLID_108_" d="M0,55L0,55L0,55c-29.59,0-57-19.01-57-55 c0-35.8,27.41-55,57-55h0h0c29.59,0,57,19.69,57,55C57,35.51,29.59,55,0,55z" style="fill:none;stroke:#4285F4;stroke-miterlimit:10;"/>
      <path id="XMLID_107_" d="M0-43c-12.29,0-23.54,3.94-31.68,11.09 C-40.39-24.25-45-13.21-45,0c0,29.7,22.6,43,45,43c21.67,0,45-13.46,45-43S21.67-43,0-43L0-43z" style="fill:none;stroke:#4285F4;stroke-miterlimit:10;"/>
      <line id="XMLID_106_" style="fill:none;stroke:#4285F4;stroke-miterlimit:10;" x1="-0.01" x2="-0.01" y1="51" y2="-51"/>
      <line id="XMLID_105_" style="fill:none;stroke:#4285F4;stroke-miterlimit:10;" x1="-16" x2="-16" y1="48.95" y2="-48.93"/>
      <line id="XMLID_104_" style="fill:none;stroke:#4285F4;stroke-miterlimit:10;" x1="15.99" x2="15.99" y1="48.91" y2="-48.93"/>
      <line id="XMLID_103_" style="fill:none;stroke:#4285F4;stroke-miterlimit:10;" x1="53" x2="-53" y1="0.08" y2="0.08"/>
    </g>
  </symbol>
  <g id="Layer_1">
    <g>
      <linearGradient id="SVGID_1_" gradientTransform="matrix(-1 0 0 -1 -9952 -3126.0005)" gradientUnits="userSpaceOnUse" x1="-10016" x2="-10016" y1="-3234.2839" y2="-3146.2983">
        <stop offset="0.05" style="stop-color:#FEE133"/>
        <stop offset="0.1556" style="stop-color:#D5DA5A"/>
        <stop offset="0.2902" style="stop-color:#A8D285"/>
        <stop offset="0.4258" style="stop-color:#82CCA8"/>
        <stop offset="0.5602" style="stop-color:#65C6C4"/>
        <stop offset="0.6931" style="stop-color:#51C3D7"/>
        <stop offset="0.8239" style="stop-color:#44C1E3"/>
        <stop offset="0.95" style="stop-color:#40C0E7"/>
      </linearGradient>
      <path d="M64,119.89c-15.48,0-29.81-5.12-40.36-14.43C12.1,95.28,6,80.94,6,64 c0-16.86,6.1-31.17,17.64-41.39C34.22,13.26,48.55,8.11,64,8.11c27.94,0,58,17.49,58,55.89S91.93,119.89,64,119.89z" style="fill:url(#SVGID_1_);"/>
      <path d="M64,10.11L64,10.11c15.04,0,28.9,4.91,39.04,13.82C114.14,33.68,120,47.54,120,64 c0,16.54-5.86,30.42-16.96,40.15c-10.11,8.86-23.98,13.75-39.04,13.75c-14.99,0-28.86-4.95-39.03-13.93C13.87,94.17,8,80.35,8,64 c0-16.27,5.87-30.07,16.97-39.89C35.17,15.08,49.04,10.11,64,10.11 M64,6.11L64,6.11L64,6.11L64,6.11C32.85,6.11,4,26.83,4,64 c0,37.37,28.85,57.89,60,57.89h0h0h0c31.15,0,60-20.01,60-57.89C124,26.32,95.15,6.11,64,6.11L64,6.11z" style="fill:#47A9B0;"/>
    </g>
    <g>
      <g>
        <path d="M40.17,74.98c-2.4,0-4.77-0.69-6.83-2c-8.01-5.07-8.12-15.81-4.15-23.33 c3.24-6.16,8.52-9.83,14.1-9.83c2.4,0,4.77,0.69,6.83,2c8.01,5.07,8.12,15.8,4.15,23.33C51.03,71.31,45.75,74.98,40.17,74.98 L40.17,74.98z" style="fill:#FFFFFF;"/>
        <path d="M43.29,41.82c2.03,0,4,0.57,5.76,1.69c5.64,3.57,8.02,12.04,3.45,20.71 c-3.14,5.97-7.86,8.77-12.33,8.77c-2.03,0-4-0.57-5.76-1.69c-5.64-3.57-8.02-12.04-3.45-20.71 C34.1,44.62,38.81,41.82,43.29,41.82 M43.29,37.82c-6.34,0-12.28,4.08-15.87,10.9c-5.16,9.79-3.07,20.94,4.85,25.96 c2.38,1.51,5.12,2.31,7.9,2.31c6.34,0,12.28-4.08,15.87-10.9c5.16-9.79,3.07-20.94-4.85-25.96 C48.8,38.62,46.07,37.82,43.29,37.82L43.29,37.82z" style="fill:#47A9B0;"/>
      </g>
      <g>
        <path d="M87.8,74.98c-5.59,0-10.86-3.68-14.1-9.83c-3.97-7.53-3.86-18.27,4.15-23.33 c2.06-1.31,4.43-2,6.83-2c5.59,0,10.86,3.68,14.1,9.83c3.97,7.53,3.86,18.26-4.15,23.33C92.57,74.29,90.21,74.98,87.8,74.98 L87.8,74.98z" style="fill:#FFFFFF;"/>
        <path d="M84.68,41.82c4.48,0,9.19,2.8,12.33,8.77c4.57,8.67,2.19,17.14-3.45,20.71 c-1.76,1.11-3.73,1.69-5.76,1.69c-4.48,0-9.19-2.8-12.33-8.77c-4.57-8.67-2.19-17.14,3.45-20.71 C80.68,42.39,82.65,41.82,84.68,41.82 M84.68,37.82c-2.78,0-5.51,0.8-7.9,2.31c-7.92,5.01-10.01,16.17-4.85,25.96 c3.6,6.83,9.53,10.9,15.87,10.9c2.78,0,5.51-0.8,7.9-2.31c7.92-5.01,10.01-16.17,4.85-25.96C96.96,41.9,91.02,37.82,84.68,37.82 L84.68,37.82z" style="fill:#47A9B0;"/>
      </g>
    </g>
    <linearGradient id="SVGID_3_" gradientUnits="userSpaceOnUse" x1="102.8112" x2="102.8112" y1="82.5227" y2="125.5627">
      <stop offset="0.1509" style="stop-color:#FEE133"/>
      <stop offset="0.2967" style="stop-color:#FDDC32"/>
      <stop offset="0.4634" style="stop-color:#FCCE2E"/>
      <stop offset="0.6396" style="stop-color:#F9B828"/>
      <stop offset="0.7637" style="stop-color:#F6A323"/>
    </linearGradient>
    <path d="M115.83,100.83 c-6.33,8.67-10.15,6.67-10.45,13.86C105.17,120,104,126,104,126s-17.68,0-21.5,0c0,0-0.49-7.32-0.56-9.54 c-0.23-8.18,0.61-16.79,7.39-22.96c13-11.83,17.17-3.87,27.5-18.33c2.5-3.5,6.92-6.2,6.88,1.48 C123.68,82.65,122.91,91.15,115.83,100.83z" style="fill:url(#SVGID_3_);stroke:#47A9B0;stroke-width:4;stroke-miterlimit:10;"/>
    <linearGradient id="SVGID_4_" gradientTransform="matrix(-1 0 0 1 75.6223 0)" gradientUnits="userSpaceOnUse" x1="50.8112" x2="50.8112" y1="82.5227" y2="125.5627">
      <stop offset="0.1509" style="stop-color:#FEE133"/>
      <stop offset="0.2967" style="stop-color:#FDDC32"/>
      <stop offset="0.4634" style="stop-color:#FCCE2E"/>
      <stop offset="0.6396" style="stop-color:#F9B828"/>
      <stop offset="0.7637" style="stop-color:#F6A323"/>
    </linearGradient>
    <path d="M11.79,100.83 c6.33,8.67,10.15,6.67,10.45,13.86c0.22,5.3,1.39,11.3,1.39,11.3s17.68,0,21.5,0c0,0,0.49-7.32,0.56-9.54 c0.23-8.18-0.61-16.79-7.39-22.96c-13-11.83-17.17-3.87-27.5-18.33c-2.5-3.5-6.92-6.2-6.88,1.48 C3.94,82.65,4.71,91.15,11.79,100.83z" style="fill:url(#SVGID_4_);stroke:#47A9B0;stroke-width:4;stroke-miterlimit:10;"/>
    <path d="M55.9,103.96c-2.4,0-8.67-8.45-5.83-20.29c2.1-8.79,8.06-11.8,13.86-11.8 c5.81,0,11.64,3.3,14.14,12.63c2.49,9.29-3.71,19.45-6.11,19.45c-0.74,0-1.49-0.24-2.22-0.71c-1.89-1.22-3.84-1.83-5.81-1.83 c-1.97,0-3.92,0.62-5.81,1.83C57.39,103.73,56.65,103.96,55.9,103.96L55.9,103.96z" style="fill:#242424;"/>
    <g>
      <g id="XMLID_6_" style="opacity:0.5;">
        <path id="XMLID_12_" d="M51.1,23.55c0,0-0.01,0.28-0.05,0.77 c-0.02,0.13-0.01,0.24-0.05,0.42c-0.03,0.18-0.09,0.37-0.14,0.58c-0.05,0.21-0.11,0.43-0.17,0.67c-0.07,0.22-0.16,0.43-0.24,0.66 c-0.16,0.47-0.39,0.95-0.66,1.44c-0.26,0.5-0.59,0.99-0.95,1.49c-0.39,0.47-0.77,0.99-1.24,1.42c-0.45,0.47-0.96,0.87-1.47,1.29 c-0.55,0.36-1.08,0.74-1.65,1.04c-0.55,0.33-1.16,0.55-1.72,0.79c-0.58,0.2-1.15,0.38-1.7,0.49c-0.55,0.12-1.08,0.2-1.57,0.23 c-0.49,0.06-0.94,0.05-1.34,0.02c-0.4-0.01-0.74-0.05-1.03-0.1c-0.57-0.1-0.88-0.18-0.88-0.18c-0.95-0.24-1.54-1.2-1.3-2.15 c0.15-0.62,0.62-1.09,1.19-1.27l0.3-0.09c0,0,0.24-0.07,0.64-0.17c0.2-0.04,0.44-0.12,0.71-0.2c0.27-0.07,0.57-0.17,0.89-0.29 c0.32-0.1,0.66-0.26,1.02-0.4c0.36-0.13,0.71-0.35,1.09-0.52c0.37-0.21,0.75-0.41,1.12-0.65c0.39-0.21,0.73-0.5,1.1-0.75 c0.35-0.28,0.72-0.53,1.03-0.84c0.33-0.29,0.64-0.59,0.94-0.88c0.26-0.32,0.58-0.6,0.81-0.9c0.24-0.3,0.48-0.58,0.67-0.86 c0.21-0.29,0.38-0.52,0.51-0.72c0.07-0.1,0.14-0.2,0.21-0.29c0.07-0.1,0.13-0.24,0.19-0.34c0.23-0.43,0.38-0.68,0.38-0.68 c0.52-0.86,1.64-1.14,2.5-0.62C50.8,22.29,51.12,22.92,51.1,23.55z" style="fill:#6D4C41;stroke:#6D4C41;stroke-miterlimit:10;"/>
      </g>
      <g id="XMLID_7_" style="opacity:0.5;">
        <path id="XMLID_11_" d="M80.28,22.56c0,0,0.15,0.24,0.38,0.68 c0.06,0.1,0.12,0.25,0.19,0.34c0.07,0.09,0.14,0.19,0.21,0.29c0.13,0.2,0.3,0.43,0.51,0.72c0.19,0.28,0.43,0.56,0.67,0.86 c0.23,0.31,0.54,0.58,0.81,0.9c0.3,0.29,0.61,0.6,0.94,0.88c0.31,0.31,0.68,0.56,1.03,0.84c0.37,0.25,0.72,0.54,1.1,0.75 c0.37,0.24,0.75,0.45,1.12,0.65c0.38,0.16,0.74,0.38,1.09,0.52c0.36,0.14,0.69,0.3,1.02,0.4c0.32,0.12,0.62,0.22,0.89,0.29 c0.27,0.08,0.51,0.16,0.71,0.2c0.4,0.1,0.64,0.17,0.64,0.17l0.29,0.09c0.94,0.29,1.46,1.29,1.16,2.23 c-0.19,0.61-0.69,1.05-1.27,1.19c0,0-0.31,0.08-0.88,0.18c-0.28,0.06-0.63,0.09-1.03,0.1c-0.4,0.03-0.85,0.04-1.34-0.02 c-0.5-0.02-1.02-0.1-1.57-0.23c-0.56-0.1-1.12-0.29-1.7-0.49c-0.56-0.24-1.17-0.45-1.72-0.79c-0.57-0.3-1.11-0.68-1.65-1.04 c-0.5-0.42-1.02-0.82-1.47-1.29c-0.48-0.43-0.85-0.95-1.24-1.42c-0.36-0.5-0.7-0.99-0.95-1.49c-0.27-0.49-0.5-0.97-0.66-1.44 c-0.09-0.23-0.18-0.44-0.24-0.66c-0.06-0.23-0.12-0.46-0.17-0.67c-0.05-0.21-0.1-0.4-0.14-0.58c-0.03-0.17-0.03-0.29-0.05-0.42 c-0.04-0.49-0.05-0.77-0.05-0.77c-0.03-1.01,0.77-1.84,1.77-1.87C79.35,21.66,79.95,22.02,80.28,22.56z" style="fill:#6D4C41;stroke:#6D4C41;stroke-miterlimit:10;"/>
      </g>
    </g>
  </g>
  <g id="Layer_2" style="display:none;">
    <g style="display:inline;">
      <g style="opacity:0.6;">
        <circle cx="64" cy="64" r="28" style="opacity:0.61;fill:none;stroke:#000000;stroke-width:0.2625;stroke-miterlimit:10;"/>
        <line style="opacity:0.61;fill:none;stroke:#000000;stroke-width:0.25;stroke-miterlimit:10;" x1="84" x2="84" y1="0" y2="128"/>
        <line style="opacity:0.61;fill:none;stroke:#000000;stroke-width:0.25;stroke-miterlimit:10;" x1="44" x2="44" y1="0" y2="128"/>
        <line style="opacity:0.61;fill:none;stroke:#000000;stroke-width:0.25;stroke-miterlimit:10;" x1="64" x2="64" y1="0" y2="128"/>
        <line style="opacity:0.61;fill:none;stroke:#000000;stroke-width:0.25;stroke-miterlimit:10;" x1="128" x2="0" y1="64" y2="64"/>
        <line style="opacity:0.61;fill:none;stroke:#000000;stroke-width:0.25;stroke-miterlimit:10;" x1="128" x2="0" y1="44" y2="44"/>
        <line style="opacity:0.61;fill:none;stroke:#000000;stroke-width:0.25;stroke-miterlimit:10;" x1="128" x2="0" y1="83.75" y2="83.75"/>
        <line style="opacity:0.61;fill:none;stroke:#000000;stroke-width:0.25;stroke-miterlimit:10;" x1="128" x2="0" y1="128" y2="0"/>
        <line style="opacity:0.61;fill:none;stroke:#000000;stroke-width:0.25;stroke-miterlimit:10;" x1="0" x2="128" y1="128" y2="0"/>
        <g style="opacity:0.61;">
          <path d="M64,4.26c32.94,0,59.74,26.8,59.74,59.74S96.94,123.74,64,123.74S4.26,96.94,4.26,64S31.06,4.26,64,4.26 M64,4 C30.86,4,4,30.86,4,64s26.86,60,60,60s60-26.86,60-60S97.14,4,64,4L64,4z"/>
        </g>
        <path d="M107.97,115.97H20.03 c-4.42,0-8.03-3.61-8.03-8.03V20.03c0-4.42,3.61-8.03,8.03-8.03h87.94c4.42,0,8.03,3.61,8.03,8.03v87.91 C116,112.36,112.39,115.97,107.97,115.97z" style="opacity:0.61;fill:none;stroke:#000000;stroke-width:0.2578;stroke-miterlimit:10;"/>
        <path d="M100,124H28c-4.4,0-8-3.6-8-8 V12c0-4.4,3.6-8,8-8h72c4.4,0,8,3.6,8,8v104C108,120.4,104.4,124,100,124z" style="opacity:0.61;fill:none;stroke:#000000;stroke-width:0.2628;stroke-miterlimit:10;"/>
        <path d="M113.77,108H14.23 C8.6,108,4,103.4,4,97.77V30.28c0-5.63,4.6-10.23,10.23-10.23h99.54c5.63,0,10.23,4.6,10.23,10.23v67.48 C124,103.4,119.4,108,113.77,108z" style="opacity:0.61;fill:none;stroke:#000000;stroke-width:0.2627;stroke-miterlimit:10;"/>
      </g>
      <g>
        <g style="opacity:0.2;">
          <defs>
            <rect id="SVGID_2_" height="128" style="opacity:0.2;" width="128" x="0" y="0"/>
          </defs>
          <clipPath id="SVGID_5_">
            <use style="overflow:visible;" xlink:href="#SVGID_2_"/>
          </clipPath>
          <g style="clip-path:url(#SVGID_5_);">
            <g>
              <line style="fill:none;stroke:#000000;stroke-width:0.25;stroke-miterlimit:10;" x1="-28" x2="-28" y1="160" y2="-32"/>
              <line style="fill:none;stroke:#000000;stroke-width:0.25;stroke-miterlimit:10;" x1="-24" x2="-24" y1="160" y2="-32"/>
              <line style="fill:none;stroke:#000000;stroke-width:0.25;stroke-miterlimit:10;" x1="-20" x2="-20" y1="160" y2="-32"/>
              <line style="fill:none;stroke:#000000;stroke-width:0.25;stroke-miterlimit:10;" x1="-16" x2="-16" y1="160" y2="-32"/>
              <line style="fill:none;stroke:#000000;stroke-width:0.25;stroke-miterlimit:10;" x1="-12" x2="-12" y1="160" y2="-32"/>
              <line style="fill:none;stroke:#000000;stroke-width:0.25;stroke-miterlimit:10;" x1="-8" x2="-8" y1="160" y2="-32"/>
              <line style="fill:none;stroke:#000000;stroke-width:0.25;stroke-miterlimit:10;" x1="-4" x2="-4" y1="160" y2="-32"/>
              <line style="fill:none;stroke:#000000;stroke-width:0.25;stroke-miterlimit:10;" x1="0" x2="0" y1="160" y2="-32"/>
              <line style="fill:none;stroke:#000000;stroke-width:0.25;stroke-miterlimit:10;" x1="4" x2="4" y1="160" y2="-32"/>
              <line style="fill:none;stroke:#000000;stroke-width:0.25;stroke-miterlimit:10;" x1="8" x2="8" y1="160" y2="-32"/>
              <line style="fill:none;stroke:#000000;stroke-width:0.25;stroke-miterlimit:10;" x1="12" x2="12" y1="160" y2="-32"/>
              <line style="fill:none;stroke:#000000;stroke-width:0.25;stroke-miterlimit:10;" x1="16" x2="16" y1="160" y2="-32"/>
              <line style="fill:none;stroke:#000000;stroke-width:0.25;stroke-miterlimit:10;" x1="20" x2="20" y1="160" y2="-32"/>
              <line style="fill:none;stroke:#000000;stroke-width:0.25;stroke-miterlimit:10;" x1="24" x2="24" y1="160" y2="-32"/>
              <line style="fill:none;stroke:#000000;stroke-width:0.25;stroke-miterlimit:10;" x1="28" x2="28" y1="160" y2="-32"/>
              <line style="fill:none;stroke:#000000;stroke-width:0.25;stroke-miterlimit:10;" x1="32" x2="32" y1="160" y2="-32"/>
              <line style="fill:none;stroke:#000000;stroke-width:0.25;stroke-miterlimit:10;" x1="36" x2="36" y1="160" y2="-32"/>
              <line style="fill:none;stroke:#000000;stroke-width:0.25;stroke-miterlimit:10;" x1="40" x2="40" y1="160" y2="-32"/>
              <line style="fill:none;stroke:#000000;stroke-width:0.25;stroke-miterlimit:10;" x1="44" x2="44" y1="160" y2="-32"/>
              <line style="fill:none;stroke:#000000;stroke-width:0.25;stroke-miterlimit:10;" x1="48" x2="48" y1="160" y2="-32"/>
              <line style="fill:none;stroke:#000000;stroke-width:0.25;stroke-miterlimit:10;" x1="52" x2="52" y1="160" y2="-32"/>
              <line style="fill:none;stroke:#000000;stroke-width:0.25;stroke-miterlimit:10;" x1="56" x2="56" y1="160" y2="-32"/>
              <line style="fill:none;stroke:#000000;stroke-width:0.25;stroke-miterlimit:10;" x1="60" x2="60" y1="160" y2="-32"/>
              <line style="fill:none;stroke:#000000;stroke-width:0.25;stroke-miterlimit:10;" x1="64" x2="64" y1="160" y2="-32"/>
              <line style="fill:none;stroke:#000000;stroke-width:0.25;stroke-miterlimit:10;" x1="68" x2="68" y1="160" y2="-32"/>
              <line style="fill:none;stroke:#000000;stroke-width:0.25;stroke-miterlimit:10;" x1="72" x2="72" y1="160" y2="-32"/>
              <line style="fill:none;stroke:#000000;stroke-width:0.25;stroke-miterlimit:10;" x1="76" x2="76" y1="160" y2="-32"/>
              <line style="fill:none;stroke:#000000;stroke-width:0.25;stroke-miterlimit:10;" x1="80" x2="80" y1="160" y2="-32"/>
              <line style="fill:none;stroke:#000000;stroke-width:0.25;stroke-miterlimit:10;" x1="84" x2="84" y1="160" y2="-32"/>
              <line style="fill:none;stroke:#000000;stroke-width:0.25;stroke-miterlimit:10;" x1="88" x2="88" y1="160" y2="-32"/>
              <line style="fill:none;stroke:#000000;stroke-width:0.25;stroke-miterlimit:10;" x1="92" x2="92" y1="160" y2="-32"/>
              <line style="fill:none;stroke:#000000;stroke-width:0.25;stroke-miterlimit:10;" x1="96" x2="96" y1="160" y2="-32"/>
              <line style="fill:none;stroke:#000000;stroke-width:0.25;stroke-miterlimit:10;" x1="100" x2="100" y1="160" y2="-32"/>
              <line style="fill:none;stroke:#000000;stroke-width:0.25;stroke-miterlimit:10;" x1="104" x2="104" y1="160" y2="-32"/>
              <line style="fill:none;stroke:#000000;stroke-width:0.25;stroke-miterlimit:10;" x1="108" x2="108" y1="160" y2="-32"/>
              <line style="fill:none;stroke:#000000;stroke-width:0.25;stroke-miterlimit:10;" x1="112" x2="112" y1="160" y2="-32"/>
              <line style="fill:none;stroke:#000000;stroke-width:0.25;stroke-miterlimit:10;" x1="116" x2="116" y1="160" y2="-32"/>
              <line style="fill:none;stroke:#000000;stroke-width:0.25;stroke-miterlimit:10;" x1="120" x2="120" y1="160" y2="-32"/>
              <line style="fill:none;stroke:#000000;stroke-width:0.25;stroke-miterlimit:10;" x1="124" x2="124" y1="160" y2="-32"/>
              <line style="fill:none;stroke:#000000;stroke-width:0.25;stroke-miterlimit:10;" x1="128" x2="128" y1="160" y2="-32"/>
              <line style="fill:none;stroke:#000000;stroke-width:0.25;stroke-miterlimit:10;" x1="132" x2="132" y1="160" y2="-32"/>
              <line style="fill:none;stroke:#000000;stroke-width:0.25;stroke-miterlimit:10;" x1="136" x2="136" y1="160" y2="-32"/>
              <line style="fill:none;stroke:#000000;stroke-width:0.25;stroke-miterlimit:10;" x1="137" x2="137" y1="166.05" y2="-25.95"/>
              <line style="fill:none;stroke:#000000;stroke-width:0.25;stroke-miterlimit:10;" x1="144" x2="144" y1="160" y2="-32"/>
              <line style="fill:none;stroke:#000000;stroke-width:0.25;stroke-miterlimit:10;" x1="148" x2="148" y1="160" y2="-32"/>
              <line style="fill:none;stroke:#000000;stroke-width:0.25;stroke-miterlimit:10;" x1="152" x2="152" y1="160" y2="-32"/>
              <line style="fill:none;stroke:#000000;stroke-width:0.25;stroke-miterlimit:10;" x1="156" x2="156" y1="160" y2="-32"/>
            </g>
            <g>
              <line style="fill:none;stroke:#000000;stroke-width:0.25;stroke-miterlimit:10;" x1="-32" x2="160" y1="-28" y2="-28"/>
              <line style="fill:none;stroke:#000000;stroke-width:0.25;stroke-miterlimit:10;" x1="-32" x2="160" y1="-24" y2="-24"/>
              <line style="fill:none;stroke:#000000;stroke-width:0.25;stroke-miterlimit:10;" x1="-32" x2="160" y1="-20" y2="-20"/>
              <line style="fill:none;stroke:#000000;stroke-width:0.25;stroke-miterlimit:10;" x1="-32" x2="160" y1="-16" y2="-16"/>
              <line style="fill:none;stroke:#000000;stroke-width:0.25;stroke-miterlimit:10;" x1="-32" x2="160" y1="-12" y2="-12"/>
              <line style="fill:none;stroke:#000000;stroke-width:0.25;stroke-miterlimit:10;" x1="-32" x2="160" y1="-8" y2="-8"/>
              <line style="fill:none;stroke:#000000;stroke-width:0.25;stroke-miterlimit:10;" x1="-32" x2="160" y1="-4" y2="-4"/>
              <line style="fill:none;stroke:#000000;stroke-width:0.25;stroke-miterlimit:10;" x1="-32" x2="160" y1="0" y2="0"/>
              <line style="fill:none;stroke:#000000;stroke-width:0.25;stroke-miterlimit:10;" x1="-32" x2="160" y1="4" y2="4"/>
              <line style="fill:none;stroke:#000000;stroke-width:0.25;stroke-miterlimit:10;" x1="-32" x2="160" y1="8" y2="8"/>
              <line style="fill:none;stroke:#000000;stroke-width:0.25;stroke-miterlimit:10;" x1="-32" x2="160" y1="12" y2="12"/>
              <line style="fill:none;stroke:#000000;stroke-width:0.25;stroke-miterlimit:10;" x1="-32" x2="160" y1="16" y2="16"/>
              <line style="fill:none;stroke:#000000;stroke-width:0.25;stroke-miterlimit:10;" x1="-32" x2="160" y1="20" y2="20"/>
              <line style="fill:none;stroke:#000000;stroke-width:0.25;stroke-miterlimit:10;" x1="-32" x2="160" y1="24" y2="24"/>
              <line style="fill:none;stroke:#000000;stroke-width:0.25;stroke-miterlimit:10;" x1="-32" x2="160" y1="28" y2="28"/>
              <line style="fill:none;stroke:#000000;stroke-width:0.25;stroke-miterlimit:10;" x1="-32" x2="160" y1="32" y2="32"/>
              <line style="fill:none;stroke:#000000;stroke-width:0.25;stroke-miterlimit:10;" x1="-32" x2="160" y1="36" y2="36"/>
              <line style="fill:none;stroke:#000000;stroke-width:0.25;stroke-miterlimit:10;" x1="-32" x2="160" y1="40" y2="40"/>
              <line style="fill:none;stroke:#000000;stroke-width:0.25;stroke-miterlimit:10;" x1="-32" x2="160" y1="44" y2="44"/>
              <line style="fill:none;stroke:#000000;stroke-width:0.25;stroke-miterlimit:10;" x1="-32" x2="160" y1="48" y2="48"/>
              <line style="fill:none;stroke:#000000;stroke-width:0.25;stroke-miterlimit:10;" x1="-32" x2="160" y1="52" y2="52"/>
              <line style="fill:none;stroke:#000000;stroke-width:0.25;stroke-miterlimit:10;" x1="-32" x2="160" y1="56" y2="56"/>
              <line style="fill:none;stroke:#000000;stroke-width:0.25;stroke-miterlimit:10;" x1="-32" x2="160" y1="60" y2="60"/>
              <line style="fill:none;stroke:#000000;stroke-width:0.25;stroke-miterlimit:10;" x1="-32" x2="160" y1="64" y2="64"/>
              <line style="fill:none;stroke:#000000;stroke-width:0.25;stroke-miterlimit:10;" x1="-32" x2="160" y1="68" y2="68"/>
              <line style="fill:none;stroke:#000000;stroke-width:0.25;stroke-miterlimit:10;" x1="-32" x2="160" y1="72" y2="72"/>
              <line style="fill:none;stroke:#000000;stroke-width:0.25;stroke-miterlimit:10;" x1="-32" x2="160" y1="76" y2="76"/>
              <line style="fill:none;stroke:#000000;stroke-width:0.25;stroke-miterlimit:10;" x1="-32" x2="160" y1="80" y2="80"/>
              <line style="fill:none;stroke:#000000;stroke-width:0.25;stroke-miterlimit:10;" x1="-32" x2="160" y1="84" y2="84"/>
              <line style="fill:none;stroke:#000000;stroke-width:0.25;stroke-miterlimit:10;" x1="-32" x2="160" y1="88" y2="88"/>
              <line style="fill:none;stroke:#000000;stroke-width:0.25;stroke-miterlimit:10;" x1="-32" x2="160" y1="92" y2="92"/>
              <line style="fill:none;stroke:#000000;stroke-width:0.25;stroke-miterlimit:10;" x1="-32" x2="160" y1="96" y2="96"/>
              <line style="fill:none;stroke:#000000;stroke-width:0.25;stroke-miterlimit:10;" x1="-32" x2="160" y1="100" y2="100"/>
              <line style="fill:none;stroke:#000000;stroke-width:0.25;stroke-miterlimit:10;" x1="-32" x2="160" y1="104" y2="104"/>
              <line style="fill:none;stroke:#000000;stroke-width:0.25;stroke-miterlimit:10;" x1="-32" x2="160" y1="108" y2="108"/>
              <line style="fill:none;stroke:#000000;stroke-width:0.25;stroke-miterlimit:10;" x1="-32" x2="160" y1="112" y2="112"/>
              <line style="fill:none;stroke:#000000;stroke-width:0.25;stroke-miterlimit:10;" x1="-32" x2="160" y1="116" y2="116"/>
              <line style="fill:none;stroke:#000000;stroke-width:0.25;stroke-miterlimit:10;" x1="-32" x2="160" y1="120" y2="120"/>
              <line style="fill:none;stroke:#000000;stroke-width:0.25;stroke-miterlimit:10;" x1="-32" x2="160" y1="124" y2="124"/>
              <line style="fill:none;stroke:#000000;stroke-width:0.25;stroke-miterlimit:10;" x1="-32" x2="160" y1="128" y2="128"/>
              <line style="fill:none;stroke:#000000;stroke-width:0.25;stroke-miterlimit:10;" x1="-32" x2="160" y1="132" y2="132"/>
              <line style="fill:none;stroke:#000000;stroke-width:0.25;stroke-miterlimit:10;" x1="-32" x2="160" y1="136" y2="136"/>
              <line style="fill:none;stroke:#000000;stroke-width:0.25;stroke-miterlimit:10;" x1="-32" x2="160" y1="140" y2="140"/>
              <line style="fill:none;stroke:#000000;stroke-width:0.25;stroke-miterlimit:10;" x1="-32" x2="160" y1="144" y2="144"/>
              <line style="fill:none;stroke:#000000;stroke-width:0.25;stroke-miterlimit:10;" x1="-32" x2="160" y1="148" y2="148"/>
              <line style="fill:none;stroke:#000000;stroke-width:0.25;stroke-miterlimit:10;" x1="-32" x2="160" y1="152" y2="152"/>
              <line style="fill:none;stroke:#000000;stroke-width:0.25;stroke-miterlimit:10;" x1="-32" x2="160" y1="156" y2="156"/>
            </g>
            <path d="M159.75-31.75v191.5h-191.5v-191.5H159.75 M160-32H-32v192h192V-32L160-32z"/>
          </g>
        </g>
        <g>
          <rect height="128" style="opacity:0.3;fill:#F44336;" width="4" x="0" y="0"/>
          <rect height="128" style="opacity:0.3;fill:#F44336;" width="4" x="124" y="0"/>
          <rect height="120" style="opacity:0.3;fill:#F44336;" transform="matrix(-1.836970e-16 1 -1 -1.836970e-16 66 -62)" width="4" x="62" y="-58"/>
          <rect height="120" style="opacity:0.3;fill:#F44336;" transform="matrix(-1.836970e-16 1 -1 -1.836970e-16 190 62)" width="4" x="62" y="66"/>
        </g>
      </g>
    </g>
  </g>
  <g id="Layer_3" style="display:none;">
    <rect id="XMLID_46_" height="128" style="display:inline;fill:none;stroke:#616161;stroke-width:0.25;stroke-miterlimit:10;" transform="matrix(-1.346904e-10 -1 1 -1.346904e-10 8.631098e-09 128)" width="128" x="0"/>
    <g id="XMLID_9_" style="display:inline;">
      <rect id="XMLID_45_" height="128" style="fill:none;stroke:#E0E0E0;stroke-width:0.25;stroke-miterlimit:10;" width="128" x="0"/>
      <line id="XMLID_44_" style="fill:none;stroke:#E0E0E0;stroke-width:0.25;stroke-miterlimit:10;" x1="8" x2="8" y1="0" y2="128"/>
      <line id="XMLID_43_" style="fill:none;stroke:#E0E0E0;stroke-width:0.25;stroke-miterlimit:10;" x1="16" x2="16" y1="0" y2="128"/>
      <line id="XMLID_42_" style="fill:none;stroke:#E0E0E0;stroke-width:0.25;stroke-miterlimit:10;" x1="24" x2="24" y1="0" y2="128"/>
      <line id="XMLID_41_" style="fill:none;stroke:#E0E0E0;stroke-width:0.25;stroke-miterlimit:10;" x1="32" x2="32" y1="0" y2="128"/>
      <line id="XMLID_40_" style="fill:none;stroke:#E0E0E0;stroke-width:0.25;stroke-miterlimit:10;" x1="40" x2="40" y1="0" y2="128"/>
      <line id="XMLID_39_" style="fill:none;stroke:#E0E0E0;stroke-width:0.25;stroke-miterlimit:10;" x1="48" x2="48" y1="0" y2="128"/>
      <line id="XMLID_38_" style="fill:none;stroke:#E0E0E0;stroke-width:0.25;stroke-miterlimit:10;" x1="56" x2="56" y1="0" y2="128"/>
      <line id="XMLID_37_" style="fill:none;stroke:#E0E0E0;stroke-width:0.25;stroke-miterlimit:10;" x1="63.99" x2="63.99" y1="0" y2="128"/>
      <line id="XMLID_36_" style="fill:none;stroke:#E0E0E0;stroke-width:0.25;stroke-miterlimit:10;" x1="71.99" x2="71.99" y1="0" y2="128"/>
      <line id="XMLID_35_" style="fill:none;stroke:#E0E0E0;stroke-width:0.25;stroke-miterlimit:10;" x1="79.99" x2="79.99" y1="0" y2="128"/>
      <line id="XMLID_34_" style="fill:none;stroke:#E0E0E0;stroke-width:0.25;stroke-miterlimit:10;" x1="87.99" x2="87.99" y1="0" y2="128"/>
      <line id="XMLID_33_" style="fill:none;stroke:#E0E0E0;stroke-width:0.25;stroke-miterlimit:10;" x1="95.99" x2="95.99" y1="0" y2="128"/>
      <line id="XMLID_32_" style="fill:none;stroke:#E0E0E0;stroke-width:0.25;stroke-miterlimit:10;" x1="103.99" x2="103.99" y1="0" y2="128"/>
      <line id="XMLID_47_" style="fill:none;stroke:#E0E0E0;stroke-width:0.25;stroke-miterlimit:10;" x1="111.99" x2="111.99" y1="0" y2="128"/>
      <line id="XMLID_48_" style="fill:none;stroke:#E0E0E0;stroke-width:0.25;stroke-miterlimit:10;" x1="119.99" x2="119.99" y1="0" y2="128"/>
      <line id="XMLID_49_" style="fill:none;stroke:#E0E0E0;stroke-width:0.25;stroke-miterlimit:10;" x1="128" x2="0" y1="120" y2="120"/>
      <line id="XMLID_50_" style="fill:none;stroke:#E0E0E0;stroke-width:0.25;stroke-miterlimit:10;" x1="128" x2="0" y1="112" y2="112"/>
      <line id="XMLID_51_" style="fill:none;stroke:#E0E0E0;stroke-width:0.25;stroke-miterlimit:10;" x1="128" x2="0" y1="104" y2="104"/>
      <line id="XMLID_52_" style="fill:none;stroke:#E0E0E0;stroke-width:0.25;stroke-miterlimit:10;" x1="128" x2="0" y1="96" y2="96"/>
      <line id="XMLID_53_" style="fill:none;stroke:#E0E0E0;stroke-width:0.25;stroke-miterlimit:10;" x1="128" x2="0" y1="88" y2="88"/>
      <line id="XMLID_54_" style="fill:none;stroke:#E0E0E0;stroke-width:0.25;stroke-miterlimit:10;" x1="128" x2="0" y1="80" y2="80"/>
      <line id="XMLID_55_" style="fill:none;stroke:#E0E0E0;stroke-width:0.25;stroke-miterlimit:10;" x1="128" x2="0" y1="72" y2="72"/>
      <line id="XMLID_56_" style="fill:none;stroke:#E0E0E0;stroke-width:0.25;stroke-miterlimit:10;" x1="128" x2="0" y1="64.01" y2="64.01"/>
      <line id="XMLID_57_" style="fill:none;stroke:#E0E0E0;stroke-width:0.25;stroke-miterlimit:10;" x1="128" x2="0" y1="56.01" y2="56.01"/>
      <line id="XMLID_58_" style="fill:none;stroke:#E0E0E0;stroke-width:0.25;stroke-miterlimit:10;" x1="128" x2="0" y1="48.01" y2="48.01"/>
      <line id="XMLID_60_" style="fill:none;stroke:#E0E0E0;stroke-width:0.25;stroke-miterlimit:10;" x1="128" x2="0" y1="40.01" y2="40.01"/>
      <line id="XMLID_61_" style="fill:none;stroke:#E0E0E0;stroke-width:0.25;stroke-miterlimit:10;" x1="128" x2="0" y1="32.01" y2="32.01"/>
      <line id="XMLID_62_" style="fill:none;stroke:#E0E0E0;stroke-width:0.25;stroke-miterlimit:10;" x1="128" x2="0" y1="24.01" y2="24.01"/>
      <line id="XMLID_63_" style="fill:none;stroke:#E0E0E0;stroke-width:0.25;stroke-miterlimit:10;" x1="128" x2="0" y1="16.01" y2="16.01"/>
      <line id="XMLID_64_" style="fill:none;stroke:#E0E0E0;stroke-width:0.25;stroke-miterlimit:10;" x1="128" x2="0" y1="8.01" y2="8.01"/>
    </g>
    <use id="XMLID_31_" height="129" style="display:inline;overflow:visible;" transform="matrix(1 0 0 -1 64 64)" width="129" x="-64.5" xlink:href="#Grid" y="-64.5"/>
  </g>
</svg>