<svg xmlns="http://www.w3.org/2000/svg" viewBox="0 0 128 128"><path d="M109.05 16.65H84.42c-1.24 0-2.24 1-2.24 2.24v49.74c0 .07-.1 6.96-.36 11.03C80.24 89.6 74.73 94.04 64 94.04s-16.23-4.43-17.79-14.17c-.29-4.28-.38-11.17-.38-11.21V18.89c0-1.24-1.01-2.24-2.24-2.24H18.95c-1.23 0-2.24 1-2.24 2.24v49.76c0 .32.02 7.82 1.09 16.76 1.64 10.26 7 19.63 11.59 24.37 2.99 3.07 14.3 13.11 34.61 13.11 20.32 0 31.62-10.04 34.61-13.11 4.59-4.73 9.95-14.1 11.6-24.45 1.08-8.87 1.09-16.37 1.09-16.68V18.89a2.251 2.251 0 0 0-2.25-2.24z" fill="#40c0e7"/></svg>