<svg xmlns="http://www.w3.org/2000/svg" viewBox="0 0 128 128"><path d="M57.16 86.69c-.3.36-.59.72-.89 1.06-.36.41-.75.87-1.17 1.37-.65.77-1.35 1.61-2.11 2.46.05.15.11.3.16.45.04.1.06.2.1.3.08.27.16.54.21.81.02.11.05.21.07.31.07.34.12.68.15 1 .12 1.61-.28 3.55-.9 5.43 3.86-3.43 7.19-7.58 9.09-9.96l.38-.47c.32-.4.64-.81.96-1.21-.1 0-.19 0-.29-.01-2.21-.13-4.05-.71-5.76-1.54zM28.06 95.89c.38 1.47 1.17 2.7 2.15 3.78.84.93 1.8 1.78 2.76 2.59.01 0 .02.01.03.02.17.15.38.3.6.45.07.04.16.1.24.15.17.11.34.22.54.32.1.06.21.12.32.17.04.02.09.05.13.06.14.08.29.15.44.22.12.06.25.12.38.17.16.07.31.14.47.2 1.71-2.22 2.86-4.35 3.23-6.82v-.01c.05-.38.11-.74.13-1.13-.06-.05-.13-.1-.19-.15-.62-.51-1.13-1.1-1.52-1.76-.41-.71-.65-1.5-.68-2.35-.01-.32 0-.65.05-.99.27-1.71 1.15-3.27 2.18-4.71.54-.76 1.12-1.48 1.67-2.16.45-.56.91-1.11 1.36-1.67 0-.01 0-.01.01-.01 1.25-1.52 2.54-3 3.88-4.42.91-.96 1.83-1.89 2.81-2.78 1.72-1.55 3.64-3.19 5.84-4 .41-.16.85-.22 1.29-.23.03 0 .06-.02.09-.02.02 0 .04.01.06.01.19 0 .37.03.55.05.08.02.17.02.25.04.2.05.38.12.57.2.06.02.13.04.19.07.33.16.61.41.89.67.07.01.13.03.21.04.21.04.41.08.61.12.03.01.07.02.11.03.35.08.67.15 1 .21.16.03.3.06.45.09.2.03.4.06.59.07.09.01.18.02.27.02.11.01.2.02.31.02.03 0 .06.01.1.01.36 0 .73-.04 1.1-.12.59-.13 1.2-.38 1.89-.79.68-.41 1.33-.91 1.97-1.44.22-.18.43-.37.64-.56-.84-1.83-2.15-3.29-3.63-4.63-.17-.15-.33-.31-.5-.46-.36-.32-.74-.6-1.13-.89-1.66-1.24-3.56-2.2-5.6-2.58-.41-.07-.84-.07-1.26-.12-.35-.03-.69-.09-1.03-.09-.2-.01-.4-.01-.6-.01-.44.01-.87.05-1.31.1-.21.02-.41.04-.61.07-.22.04-.44.12-.67.17-.39.09-.79.16-1.17.29-2.99 1.04-5.62 2.92-7.98 5.04-.95.85-1.87 1.75-2.75 2.65-.25.26-.5.54-.75.8-3.91 4.13-7.63 8.92-9.72 14.29-.45 1.17-.86 2.35-1.14 3.58-.18.78-.3 1.58-.38 2.38-.19 1.72-.16 3.47.18 5.24-.02.18.04.34.08.51z" fill="#78a3ad"/><path d="M113.01 27.88c-.21-1.11-.62-2.13-1.05-3.14-.44-1.03-.9-2.05-1.2-3.14-.41-1.48-.07-3.11-.78-4.5-1.1-2.17-3.45-3.03-5.23-4.49-1.71-1.4-2.95-3.34-4.93-4.4-.7-.37-1.46-.42-2.17-.76-.41-.21-.76-.39-1.2-.54-.44-.15-.86-.21-1.28-.23-.21-.09-.42-.21-.62-.3-2.93-1.2-5.93-1.81-8.93-1.81-7.67 0-15.06 4.07-20.3 11.19-4.71 6.4-8.81 13.25-12.2 20.37-.48 1.01-1.04 2.15-1.66 3.4-2.51 5.09-6.92 14.04-8.48 21.13 1.83-1.3 3.84-2.44 6.1-3.23 1.01-.35 2.08-.57 3.18-.71.5-1.36 1.19-2.57 1.81-3.63l.1-.18.33-.56c3.08-5.31 9.48-16.37 13.03-20.73 1.29-1.58 2.87-3.37 4.86-4.57 1.06-.64 2.36-1.35 3.97-1.77 1.02-.26 2.05-.39 3.08-.39.09 0 .17.01.25.02.02.03.03.06.05.08.89 1.12 3.15 1.47 4.44 1.95.97.36 2.05.6 2.98 1.06 1.02.51 2.01 1.02 2.72 1.9.75.94 1.35 1.98 1.78 3.1.79 2.08.9 4.34.57 6.53-.96 6.28-5.43 12.51-7.9 15.94l-.19.26c-.95 1.32-1.85 2.67-2.81 4.11-2.1 3.14-4.27 6.39-6.97 9.31-.5.54-1 1.08-1.51 1.61l-.26.26c-.54.55-1.09 1.08-1.66 1.6-.59.53-1.19 1.03-1.82 1.5-.5.38-1.01.74-1.54 1.07-1.48.9-3.8 1.99-5.54 1.21-.74-.34-1.36-.94-2.06-1.36-1.04-.62-2.2-1.19-3.35-1.56-.6-.2-1.25-.62-1.93-.58-1.1.06-2.78 1.38-3.48 2.16-.74.82-1.39 2.06-1.41 3.17-.02 1.37.61 1.83 1.71 2.65 1.32.98 2.95 1.43 4.39 2.23 1.56.87 3.59 1.66 5.41 1.4 1.68-.24 3.32-.37 5.02-.55.93-.09 1.85-.24 2.74-.47.33-.08.66-.2 1-.3.62-.19 1.24-.4 1.84-.65 3.76-1.57 7.33-4.27 11.44-7.95 4.45-3.96 8.38-8.35 12.56-12.99l.7-.78c2.52-2.8 4.87-6.04 7.15-9.18.88-1.22 1.76-2.43 2.65-3.62.79-1.06 1.5-2.11 2.17-3.16 3.16-5.02 5.58-11.01 4.43-16.98z" fill="#78a3ad"/><path d="M68.67 87.8c.05-.01.1-.01.14-.02.43-.08.85-.16 1.27-.26-.41.1-.84.17-1.26.26-.05 0-.1.01-.15.02zM65.42 88.17h.5c.34-.02.68-.06 1.01-.1-.32.04-.66.05-.99.07-.17.02-.35.03-.52.03zM20.24 110.19c-.1.02-.21.05-.32.04H20c.08 0 .16-.02.24-.04zM25.09 113.36c-.05 0-.1-.01-.15-.01.03 0 .07.01.1.01h.05z" fill="#8cd5f5"/><path d="M48.84 90.33c-.22-.44-.45-.87-.7-1.3-.66-1.21-1.85-4.05-3.59-3.87-.62.06-1.48.37-1.96.78-.71.59-1.19 1.57-1.52 2.41-.28.73-.24.74.1 1.36.58 1.02 1.4 1.86 1.94 2.91.51.99.57 1.89.57 3 0 .11-.01.21-.01.32-.02.7-.07 1.38-.17 2.02-.01.03-.01.06-.02.09-.14.86-.35 1.68-.61 2.48-.56 1.66-1.37 3.17-2.34 4.6l-.17.26c-.44.64-.92 1.26-1.41 1.87-.45.56-.92 1.12-1.4 1.67-.02.03-.05.05-.07.09l-.22.25c-.41.47-.82.97-1.23 1.47-1.47 1.79-3.28 3.99-5.71 5.41-1.16.68-2.49 1.15-3.98 1.34-.42.05-.85.12-1.31.12-.48 0-.97-.04-1.46-.11-.44-.41-.94-.78-1.29-1.11-.92-.87-1.86-1.75-2.51-2.86-.23-.4-.67-1.03-.72-1.5-.07-.55.31-1.12.39-1.66.07-.48-.08-.84-.08-1.31 0-1.11.6-2.39 1.05-3.37.54-1.19 1.21-2.31 1.95-3.39.23-.33 2.5-2.95 2.43-3.1-.44-.91-.81-1.9-1.01-3-.11-.52-.16-1.06-.22-1.59-2.78 3.34-5.29 7.01-6.98 11.03-.53 1.25-.84 2.59-1.25 3.87-.11.35-.24.7-.37 1.05-.73 1.89-1.08 4.1-.16 5.98.73 1.51.9 3.25 2.23 4.43.71.63 1.46.73 2.29.73.07.05.13.1.21.15 1.87 1.08 4.11 1.61 6.04 1.61 1.09 0 2.16-.16 3.07-.45.24-.08.47-.2.7-.29 5.45-2.07 9.75-7.35 12.54-11.24.42-.58.8-1.22 1.2-1.83.12-.18.24-.36.35-.54.41-.63.83-1.24 1.22-1.89.54-.92 1.04-1.89 1.54-2.85.22-.44.48-.85.7-1.29 1.53-3.12 2.95-6.68 2.71-10.23-.05-.91-.36-1.73-.76-2.52z" fill="#78a3ad"/><path d="M33.31 107.39c.07-.09.16-.18.23-.27.19-.22.38-.44.56-.66-.19.21-.37.43-.56.65-.08.1-.16.19-.23.28z" fill="#8cd5f5"/><path d="M116.05 23.27c-1.55-5.57-5.17-10.88-9.98-14.8-2.99-2.44-6.33-4.53-9.91-6-.84-.35-1.69-.64-2.53-.91-.28-.09-.56-.15-.84-.22-.56-.16-1.13-.31-1.69-.43-.33-.07-.66-.11-1-.17-.51-.08-1.02-.17-1.53-.23-.35-.04-.7-.06-1.04-.08-.49-.04-.98-.06-1.47-.07-.14 0-.28-.02-.43-.02-.15 0-.3.03-.45.03-.86.01-1.71.06-2.56.16-.18.02-.35.03-.53.05-.99.13-1.97.33-2.94.58-.23.05-.46.13-.69.19-.79.22-1.58.49-2.35.78-.21.08-.43.16-.64.24-.93.38-1.84.81-2.73 1.29-.18.1-.36.21-.54.31-.74.42-1.46.87-2.17 1.36-.22.15-.44.29-.65.45-.84.61-1.66 1.26-2.45 1.95-.11.1-.22.21-.32.31-.69.63-1.36 1.3-2.01 1.99-.19.21-.39.42-.58.64-.73.81-1.43 1.67-2.1 2.57-4.87 6.61-9.1 13.66-12.62 21.06-3.31 6.97-10.79 20.65-11.08 30.35-.52.51-1.03 1.02-1.51 1.52-4.47 4.6-10.64 11.75-12.7 20.66-.09.39-.14.79-.21 1.19l-.03.03c-5.42 5.54-11.28 13.58-12.76 21.32-.8 4.2-1.04 7.75 1.32 11.5 1.12 1.79 3.14 3.84 5.32 4.79-.11-.06-.2-.15-.3-.21.13.08.25.16.38.24.01.01.04.02.06.03.68.37 1.39.69 2.12.95.18.06.37.11.55.17.57.18 1.14.34 1.72.46.25.05.5.09.75.14.56.09 1.12.15 1.68.18.22.01.44.03.66.04.1 0 .2.02.3.02.45 0 .9-.06 1.35-.1.25-.02.51-.02.75-.06.78-.11 1.54-.27 2.26-.5 6.52-2.09 11.51-7.69 15.38-13.09 1.44-2.01 2.71-4.15 3.91-6.32a.3.3 0 0 1 .08-.04c6.82-3.69 12.92-11.35 15.85-15.03l.38-.47c1.06-1.32 2.19-2.76 3.27-4.29-.04.01-.1.01-.14.02l.15-.03c.42-.08.85-.15 1.26-.26.56-.14 1.11-.32 1.65-.5.44-.14.89-.28 1.31-.44.54-.22 1.07-.47 1.6-.71.4-.19.82-.37 1.22-.58.53-.28 1.04-.59 1.56-.91.38-.22.75-.43 1.12-.68.54-.35 1.06-.72 1.58-1.1.33-.25.68-.47 1.01-.72.58-.44 1.14-.9 1.71-1.36.27-.22.55-.43.82-.66.83-.7 1.66-1.42 2.49-2.16 4.88-4.35 9.22-9.24 13.58-14.09 3.64-4.05 6.77-8.73 10.03-13.1 5.87-7.81 10.2-17.67 6.3-27.23zm-88.3 66.88c.08-.8.21-1.6.38-2.38.28-1.23.69-2.41 1.14-3.58 2.09-5.37 5.81-10.16 9.72-14.29.25-.27.5-.54.75-.8.88-.9 1.79-1.79 2.75-2.65 2.37-2.12 4.99-4 7.98-5.04.38-.14.78-.2 1.17-.29.23-.05.45-.13.67-.17.2-.03.4-.05.61-.07.43-.05.87-.09 1.31-.1.2 0 .4 0 .6.01.35 0 .69.06 1.03.09.42.04.85.04 1.26.12 2.05.37 3.94 1.34 5.6 2.58.39.29.77.58 1.13.89.17.15.33.31.5.46 1.48 1.34 2.79 2.8 3.63 4.63-.21.19-.42.38-.64.56-.64.53-1.29 1.03-1.97 1.44-.68.41-1.3.66-1.89.79-.38.08-.74.12-1.1.12-.03 0-.06-.01-.1-.01-.11 0-.21-.01-.31-.02-.09 0-.18-.01-.27-.02-.19-.02-.39-.04-.59-.07-.15-.03-.3-.05-.45-.09-.32-.07-.66-.14-1-.21l-.11-.03c-.2-.04-.4-.08-.61-.12-.07-.01-.14-.03-.21-.04-.27-.26-.55-.51-.89-.67-.06-.03-.13-.05-.19-.07-.19-.08-.38-.15-.57-.2-.08-.02-.16-.02-.25-.04-.18-.03-.37-.05-.55-.05-.02 0-.04-.01-.06-.01-.03 0-.06.02-.09.02-.44.01-.88.07-1.29.23-2.2.81-4.12 2.45-5.84 4-.98.88-1.9 1.82-2.81 2.78a81.73 81.73 0 0 0-3.88 4.42c-.01 0-.01.01-.01.01-.46.55-.91 1.11-1.36 1.67-.55.69-1.13 1.41-1.67 2.16-1.03 1.44-1.91 3.01-2.18 4.71-.05.34-.06.67-.05.99.03.85.27 1.64.68 2.35.38.66.9 1.25 1.52 1.76.06.05.13.1.19.15-.02.39-.08.76-.13 1.13v.01c-.37 2.47-1.52 4.6-3.23 6.82-.16-.06-.31-.13-.47-.2-.12-.05-.25-.11-.38-.17-.15-.07-.3-.15-.44-.22-.05-.02-.09-.04-.13-.06-.11-.05-.22-.11-.32-.17-.19-.11-.37-.21-.54-.32-.08-.05-.17-.1-.24-.15-.22-.15-.42-.3-.6-.45-.01-.01-.02-.01-.03-.02-.96-.82-1.92-1.66-2.76-2.59-.98-1.08-1.77-2.3-2.15-3.78-.05-.16-.1-.33-.13-.5-.29-1.78-.32-3.53-.13-5.25zM56.9 56.69c.29-.57.62-1.13.93-1.67 2.75-4.74 9.52-16.49 12.98-20.75 1.05-1.29 2.32-2.75 3.78-3.62.92-.55 1.8-1.03 2.84-1.3.46-.12.91-.18 1.35-.22l.34-.03c.11 0 .22-.02.33-.02.21 0 .41.03.61.04.15.01.29.02.43.04.4.05.79.14 1.18.25.03.01.06.01.09.02.41.13.81.28 1.21.47.13.06.26.13.39.2.27.13.53.27.78.43.15.09.28.18.43.27a17.836 17.836 0 0 1 1.11.79c.13.11.27.21.4.32.01.01.02.03.03.05 5.67 6.13-1.65 16.11-5.38 21.29-3.12 4.33-5.81 9.08-9.45 13.02-.04.04-.08.09-.12.13-1.23-2.06-2.86-3.68-4.49-5.12-2.68-2.36-5.71-3.89-8.77-4.45-.33-.06-.67-.1-1-.14zm-26.67 48.77c.77.66 1.85 1.33 3.08 1.93.07-.09.15-.19.23-.28.19-.22.37-.44.56-.65-.18.21-.37.44-.56.66-.07.1-.16.18-.23.27-.04.06-.1.11-.15.17l-.15.18c-.01.02-.03.04-.05.06-.21.26-.43.53-.65.79-.07.09-.15.18-.22.27-.29.34-.58.69-.87 1.02-.05.05-.1.11-.15.16-.31.34-.62.67-.95.98-.02.02-.04.03-.05.05-.32.3-.65.58-1 .84-.03.03-.07.06-.11.08-.34.25-.7.46-1.07.65-.06.04-.12.07-.18.1-.36.17-.74.31-1.13.41-5.39-.75-2.98-5.94.72-10.39 1 1.04 2.03 1.93 2.93 2.7zm-5.14 7.9h-.05c-.03 0-.07-.01-.1-.01.05 0 .1.01.15.01zm23.87-18.27c.18 2.66-.69 5.2-2.06 7.98-.22.44-.48.86-.7 1.29-.5.96-1 1.92-1.54 2.85-.38.65-.81 1.26-1.22 1.89-.11.18-.23.37-.35.54-.4.61-.77 1.24-1.2 1.83-2.79 3.89-7.08 9.17-12.54 11.24-.23.09-.46.21-.7.29-.91.29-1.98.45-3.07.45-1.93 0-4.17-.53-6.04-1.61-1.39-.81-2.58-1.9-3.26-3.35-.1-.22-.18-.42-.27-.63-.04-.06-.09-.12-.13-.18-2-3.1-.93-7.72.26-10.91.8-2.13 1.82-4.15 3.01-6.08.66-1.08 1.37-2.13 2.12-3.16.34-.47 2.34-2.44 2.29-2.93.06.53.11 1.07.22 1.59.21 1.1.57 2.09 1.01 3 .06.13-2.47 3.25-2.67 3.55-1.01 1.56-1.97 3.19-2.56 4.96-1.16 3.51-1.11 7.42 2.56 9.37.19.1.39.18.61.26.78.17 1.56.26 2.31.26.46 0 .88-.06 1.31-.12 1.49-.19 2.82-.66 3.98-1.34 2.44-1.42 4.24-3.62 5.71-5.41.41-.5.81-1 1.23-1.47l.22-.25a.55.55 0 0 0 .07-.09c.48-.55.95-1.11 1.4-1.67.49-.61.96-1.23 1.41-1.87.06-.08.11-.17.17-.26.97-1.43 1.78-2.94 2.34-4.61.26-.79.47-1.61.61-2.47 0-.03.01-.05.02-.09.38-2.62.88-5.97-1.32-7.99-.22-.21-.5-.29-.71-.51.16-.37.17-.66.37-1 .17-.29.36-.58.57-.85 2.27-2.95 4.82 1.99 5.56 3.68.59 1.32.9 2.58.98 3.82zm1.92-7.51c-.06-.08-.12-.17-.18-.25a2.8 2.8 0 0 0-.16-.2c-.2-.26-.41-.52-.63-.77-.08-.09-.17-.18-.25-.27a8.47 8.47 0 0 0-.67-.67l-.18-.18c-.29-.25-.58-.49-.88-.69-.06-.05-.14-.09-.21-.13-.24-.16-.48-.29-.72-.41-.09-.05-.18-.09-.27-.13-.06-.03-.11-.06-.17-.08.75-.89 1.53-1.77 2.33-2.63.15.06.3.12.42.21.46.34.88.72 1.35 1.05.98.71 1.91 1.41 2.83 2.06-.14.17-.27.33-.42.49-.37.43-.78.91-1.21 1.42-.3.37-.64.77-.98 1.18zm11.36 1.86l-.38.47c-1.9 2.38-5.23 6.53-9.09 9.96.61-1.89 1.02-3.82.9-5.43-.03-.32-.08-.66-.15-1-.02-.1-.04-.21-.07-.31-.06-.26-.13-.53-.21-.81-.03-.1-.06-.2-.1-.3-.05-.15-.1-.3-.16-.45.75-.85 1.46-1.69 2.11-2.46.42-.49.81-.96 1.17-1.37.3-.34.6-.71.89-1.06 1.71.84 3.55 1.41 5.76 1.53.1 0 .19 0 .29.01-.32.41-.64.82-.96 1.22zm3.68-1.27c-.17.01-.33 0-.5 0 .17 0 .35-.02.52-.03.33-.02.67-.03.99-.07-.34.04-.67.08-1.01.1zm42.65-43.34c-.66 1.03-1.37 2.08-2.16 3.14-.89 1.19-1.77 2.4-2.65 3.62-2.28 3.14-4.63 6.38-7.15 9.18l-.7.78c-4.17 4.64-8.11 9.03-12.56 12.99-4.11 3.67-7.68 6.38-11.44 7.95-.6.25-1.22.46-1.84.65-.33.1-.66.22-1 .3-.89.22-1.8.38-2.74.47-.68.07-1.36.13-2.08.13-.37 0-.75-.01-1.13-.03-1.28-.06-2.41-.35-3.5-.81-2.38-.99-5.62-2.59-7.52-4.36-.45-.42-.89-.7-.53-1.22.41-.6 1.12-1.47 1.71-1.95 1.41-1.16 2.24-.66 3.78-.06.99.38 2.03.63 3.08.83.38.07.78.11 1.19.15.35.04.68.09 1.05.09.69 0 1.37-.07 2.03-.22 1.07-.24 2.11-.67 3.15-1.3.53-.33 1.04-.69 1.55-1.07.62-.47 1.23-.97 1.81-1.49.56-.51 1.12-1.04 1.66-1.6.08-.09.17-.17.26-.26.51-.53 1.01-1.06 1.51-1.61 2.71-2.92 4.88-6.17 6.97-9.31.96-1.43 1.86-2.79 2.81-4.11l.19-.26c2.47-3.43 6.94-9.67 7.9-15.94.9-5.87-2.03-10.77-7.17-13.34-1.59-.8-3.85-1.3-5.62-1.3-1.03 0-2.06.13-3.08.39-1.61.42-2.91 1.13-3.97 1.77-1.99 1.2-3.58 2.99-4.86 4.57-3.55 4.36-9.96 15.42-13.03 20.73l-.33.56-.1.18c-.62 1.06-1.31 2.27-1.81 3.63-1.09.15-2.17.36-3.18.71-2.25.78-4.27 1.93-6.1 3.23 1.56-7.09 5.96-16.04 8.48-21.13.62-1.25 1.18-2.39 1.66-3.4 3.39-7.12 7.49-13.97 12.2-20.37 5.23-7.11 12.63-11.19 20.3-11.19 2.99 0 6 .61 8.93 1.81 1.62.67 3.23 1.55 4.8 2.54 5.69 3.55 9.53 9.01 12.42 15.06.11.24.17.5.27.73 2.47 5.86 1.33 12.6-3.46 20.14z" fill="#2f2f2f"/></svg>