<svg width="128" height="128" style="enable-background:new 0 0 128 128;" xmlns="http://www.w3.org/2000/svg" xmlns:xlink="http://www.w3.org/1999/xlink">
  <g>
    <linearGradient id="SVGID_1_" gradientUnits="userSpaceOnUse" x1="64" x2="64" y1="5.6667" y2="121.9197">
      <stop offset="0" style="stop-color:#FFAB40"/>
      <stop offset="1" style="stop-color:#FF6D00"/>
    </linearGradient>
    <path d="M116,124H12c-4.42,0-8-3.58-8-8V12c0-4.42,3.58-8,8-8h104c4.42,0,8,3.58,8,8v104 C124,120.42,120.42,124,116,124z" style="fill:url(#SVGID_1_);"/>
    <g style="opacity:0.2;">
      <path d="M116,7c2.76,0,5,2.24,5,5v104c0,2.76-2.24,5-5,5H12c-2.76,0-5-2.24-5-5V12c0-2.76,2.24-5,5-5H116 M116,4H12c-4.42,0-8,3.58-8,8v104c0,4.42,3.58,8,8,8h104c4.42,0,8-3.58,8-8V12C124,7.58,120.42,4,116,4L116,4z" style="fill:#424242;"/>
    </g>
    <g style="opacity:0.2;">
      <path d="M60.55,21.8c0.63,0,1.24,0.3,1.63,0.84c2.35,3.3,4.73,7.41,5.95,10.42 c0.19,0.48-0.04,1.02-0.52,1.21h0c-0.95,0.37-0.69,1.78,0.34,1.78l10.73,0c0.29,0,0.55-0.13,0.73-0.35 c2.64-3.41,5.7-8.09,7.79-11.91c0.36-0.65,1.03-1.04,1.74-1.04c0.2,0,0.4,0.03,0.6,0.09c1.32,0.41,3.24,1.01,4.81,1.5 c1.33,0.42,1.83,2.02,0.99,3.13c-1.88,2.45-3.8,4.87-5.64,7.07c-0.5,0.6-0.07,1.51,0.71,1.51c3.01,0,8.61,0,10.8,0 c0.51,0,0.92,0.41,0.92,0.92v15.65c0,1.1-0.9,2-2,2h-4.18c-1.1,0-2-0.9-2-2v-8.39c0-0.51-0.41-0.92-0.92-0.92H34.72 c-0.51,0-0.92,0.41-0.92,0.92v8.39c0,1.1-0.9,2-2,2h-3.91c-1.1,0-2-0.9-2-2V36.97c0-0.51,0.41-0.92,0.92-0.92h9.64 c0.71,0,1.16-0.77,0.8-1.39c-1.24-2.11-2.85-4.43-4.48-6.51c-0.81-1.04-0.4-2.55,0.81-3.06l3.66-1.54 c0.25-0.11,0.51-0.16,0.77-0.16c0.57,0,1.13,0.25,1.52,0.7c2.62,3.05,5.42,6.83,6.97,9.78c0.25,0.47,0.05,1.06-0.44,1.28 c-0.84,0.38-1.98,0.89-1.98,0.89l14.91,0c0.66,0,1.11-0.67,0.85-1.28c-1.13-2.65-2.88-5.84-4.65-8.66 c-0.68-1.09-0.17-2.52,1.04-2.94c1.21-0.42,2.62-0.91,3.64-1.26C60.11,21.83,60.33,21.8,60.55,21.8 M85.95,49.29c1.1,0,2,0.9,2,2 v17.61c0,1.1-0.9,2-2,2H67.61c-0.38,0-0.72,0.23-0.86,0.58c-0.65,1.64-1.3,3.26-1.92,4.77c-0.25,0.61,0.2,1.27,0.85,1.27 c4.99,0,22.2,0,28.08,0c1.1,0,1.99,0.9,1.99,2v24.6c0,1.1-0.9,2-2,2h-4.55c-1.1,0-2-0.9-2-2v-0.3c0-0.51-0.41-0.92-0.92-0.92 H42.07c-0.51,0-0.92,0.41-0.92,0.92v0.39c0,1.1-0.9,2-2,2h-4.18c-1.1,0-2-0.9-2-2V79.52c0-1.1,0.9-2,2-2l20.29,0 c0.41,0,0.77-0.26,0.89-0.66c0.45-1.56,0.86-3.23,1.26-4.81c0.15-0.58-0.29-1.15-0.89-1.15c-3,0-10.93,0-14.66,0 c-1.1,0-2-0.9-2-2V51.29c0-1.1,0.9-2,2-2H85.95 M48.69,64.46h29.97c0.51,0,0.92-0.41,0.92-0.92v-6.98c0-0.51-0.41-0.92-0.92-0.92 H48.69c-0.51,0-0.92,0.41-0.92,0.92v6.98C47.77,64.05,48.18,64.46,48.69,64.46 M42.07,95.54h44.22c0.51,0,0.92-0.41,0.92-0.92 v-8.73c0-0.51-0.41-0.92-0.92-0.92H42.07c-0.51,0-0.92,0.41-0.92,0.92v8.73C41.15,95.12,41.56,95.54,42.07,95.54 M60.55,18.8 c-0.56,0-1.11,0.09-1.63,0.27l-0.73,0.25l-2.92,1.01c-1.45,0.5-2.57,1.62-3.08,3.06c-0.51,1.44-0.33,3.01,0.48,4.31 c1.13,1.81,2.19,3.65,3.06,5.34l-6.32,0c-0.06-0.19-0.14-0.38-0.24-0.56c-1.49-2.85-4.24-6.72-7.35-10.34 c-0.95-1.11-2.34-1.75-3.8-1.75c-0.67,0-1.32,0.13-1.94,0.39l-3.66,1.54c-1.45,0.61-2.51,1.83-2.9,3.35 c-0.4,1.51-0.07,3.09,0.89,4.32c0.79,1.01,1.55,2.05,2.25,3.06h-5.84c-2.16,0-3.92,1.76-3.92,3.92v15.65c0,2.76,2.24,5,5,5h3.91 c2.76,0,5-2.24,5-5v-6.31h4.59c-2.53,0.24-4.52,2.38-4.52,4.98v17.61c0,2.76,2.24,5,5,5h11.99c-0.05,0.21-0.11,0.42-0.16,0.62 l-18.72,0c-2.76,0-5,2.24-5,5v24.69c0,2.76,2.24,5,5,5h4.18c2.16,0,4.01-1.38,4.71-3.31h40.69c0.72,1.88,2.54,3.22,4.67,3.22 h4.55c2.76,0,5-2.24,5-5v-24.6c0-2.76-2.24-5-4.99-5l-25.01,0c0.08-0.21,0.17-0.41,0.25-0.62h16.93c2.76,0,5-2.24,5-5V53.11 c0.25,2.53,2.38,4.51,4.98,4.51h4.18c2.76,0,5-2.24,5-5V36.97c0-2.16-1.76-3.92-3.92-3.92h-6.43c0.94-1.18,1.92-2.43,2.93-3.75 c1-1.29,1.3-3,0.81-4.55c-0.49-1.56-1.71-2.78-3.27-3.26l-2.77-0.87l-2.04-0.64c-0.49-0.15-0.99-0.23-1.49-0.23 c-1.82,0-3.5,0.99-4.37,2.6c-1.87,3.42-4.52,7.51-6.91,10.7l-6.46,0c-0.04-0.38-0.13-0.75-0.27-1.12 c-1.27-3.14-3.68-7.36-6.29-11.03C63.68,19.58,62.16,18.8,60.55,18.8L60.55,18.8z M86.43,46.31h4.5v4.49 C90.7,48.43,88.81,46.54,86.43,46.31L86.43,46.31z M50.77,58.63h25.81v2.83H50.77V58.63L50.77,58.63z M44.15,87.96h40.07v4.57 H44.15V87.96L44.15,87.96z" style="fill:#424242;"/>
    </g>
    <path d="M102.11,36.97v15.65c0,1.1-0.9,2-2,2h-4.18c-1.1,0-2-0.9-2-2v-8.39c0-0.51-0.41-0.92-0.92-0.92 H34.72c-0.51,0-0.92,0.41-0.92,0.92v8.39c0,1.1-0.9,2-2,2h-3.91c-1.1,0-2-0.9-2-2V36.97c0-0.51,0.41-0.92,0.92-0.92l9.64,0 c0.71,0,1.16-0.77,0.8-1.39c-1.24-2.11-2.85-4.43-4.48-6.51c-0.81-1.04-0.4-2.55,0.81-3.06l3.66-1.54c0.8-0.34,1.73-0.12,2.3,0.55 c2.62,3.05,5.42,6.83,6.97,9.78c0.25,0.47,0.05,1.06-0.44,1.28c-0.84,0.38-1.98,0.89-1.98,0.89l14.91,0 c0.66,0,1.11-0.67,0.85-1.28c-1.13-2.65-2.88-5.84-4.65-8.66c-0.68-1.09-0.17-2.52,1.04-2.94c1.21-0.42,2.62-0.91,3.64-1.26 c0.84-0.29,1.76,0.01,2.28,0.73c2.35,3.3,4.73,7.41,5.95,10.42c0.19,0.48-0.04,1.02-0.52,1.21h0c-0.95,0.37-0.69,1.78,0.34,1.78 l10.73,0c0.29,0,0.55-0.13,0.73-0.35c2.64-3.41,5.7-8.09,7.79-11.91c0.46-0.84,1.43-1.23,2.34-0.95c1.32,0.41,3.24,1.01,4.81,1.5 c1.33,0.42,1.83,2.02,0.99,3.13c-1.88,2.45-3.8,4.87-5.64,7.07c-0.5,0.6-0.07,1.51,0.71,1.51c3.01,0,8.61,0,10.8,0 C101.7,36.05,102.11,36.46,102.11,36.97z M66.76,71.48c-0.65,1.64-1.3,3.26-1.92,4.77c-0.25,0.61,0.2,1.27,0.85,1.27 c4.99,0,22.2,0,28.08,0c1.1,0,1.99,0.9,1.99,2v24.6c0,1.1-0.9,2-2,2h-4.55c-1.1,0-2-0.9-2-2v-0.3c0-0.51-0.41-0.92-0.92-0.92 H42.07c-0.51,0-0.92,0.41-0.92,0.92v0.39c0,1.1-0.9,2-2,2h-4.18c-1.1,0-2-0.9-2-2V79.52c0-1.1,0.9-2,2-2l20.29,0 c0.41,0,0.77-0.26,0.89-0.66c0.45-1.56,0.86-3.23,1.26-4.81c0.15-0.58-0.29-1.15-0.89-1.15c-3,0-10.93,0-14.66,0c-1.1,0-2-0.9-2-2 V51.29c0-1.1,0.9-2,2-2h44.09c1.1,0,2,0.9,2,2v17.61c0,1.1-0.9,2-2,2H67.61C67.24,70.89,66.9,71.12,66.76,71.48z M86.29,84.96 H42.07c-0.51,0-0.92,0.41-0.92,0.92v8.73c0,0.51,0.41,0.92,0.92,0.92h44.22c0.51,0,0.92-0.41,0.92-0.92v-8.73 C87.22,85.38,86.8,84.96,86.29,84.96z M48.69,64.46h29.97c0.51,0,0.92-0.41,0.92-0.92v-6.98c0-0.51-0.41-0.92-0.92-0.92H48.69 c-0.51,0-0.92,0.41-0.92,0.92v6.98C47.77,64.05,48.18,64.46,48.69,64.46z" style="fill:#FAFAFA;"/>
  </g>
</svg>