<?xml version="1.0" encoding="utf-8"?>
<!-- Generator: Adobe Illustrator 26.3.1, SVG Export Plug-In . SVG Version: 6.00 Build 0)  -->
<svg version="1.1" id="Layer_2_00000006679643975617956870000003938177726765210240_"
	 xmlns="http://www.w3.org/2000/svg" xmlns:xlink="http://www.w3.org/1999/xlink" x="0px" y="0px" viewBox="0 0 128 128"
	 style="enable-background:new 0 0 128 128;" xml:space="preserve">
<path style="fill:#BA8D68;" d="M102.7,92.7c2-0.1,6.1-0.3,8-0.3c3.6-0.1,6.4-3.3,6.4-6.7c0-15.4-1.6-31.9-1.9-34.4
	c-0.5-5.3,2.2-17.6-12.5-20.3c-21.8-4-70.8-1.7-90.1,0.5c-1.5,0.2-2.2,0.6-2.9,2.4C5.3,45.2,7.1,64.5,9.4,73.3c0.5,2,1.8,3.1,4,3.4
	s10.4,1.5,12.6,1.8c4.4,0.6,8.6,2.6,11.2,5.4c10.2,10.7,13.9,16.1,32.7,17.3c16.3,1.1,14.6,4.6,21,5.9
	C94.5,107.9,106.1,106.6,102.7,92.7z"/>
<g>
	<g>
		<defs>
			<path id="SVGID_1_" d="M102.7,92.7c2-0.1,6.1-0.3,8-0.3c3.6-0.1,6.4-3.3,6.4-6.7c0-15.4-1.6-31.9-1.9-34.4
				c-0.5-5.3,2.2-17.6-12.5-20.3c-21.8-4-70.8-1.7-90.1,0.5c-1.5,0.2-2.2,0.6-2.9,2.4C5.3,45.2,7.1,64.5,9.4,73.3
				c0.5,2,1.8,3.1,4,3.4s10.4,1.5,12.6,1.8c4.4,0.6,8.6,2.6,11.2,5.4c10.2,10.7,13.9,16.1,32.7,17.3c16.3,1.1,14.6,4.6,21,5.9
				C94.5,107.9,106.1,106.6,102.7,92.7z"/>
		</defs>
		<clipPath id="SVGID_00000134233081910615021510000004073044484470625186_">
			<use xlink:href="#SVGID_1_"  style="overflow:visible;"/>
		</clipPath>
		<g style="clip-path:url(#SVGID_00000134233081910615021510000004073044484470625186_);">
			<path style="fill:#9A6648;" d="M7,69.3c32.7-2,45.9,5.8,52,17.5c6,11.6,17.9,6.1,23.5,11c3.3,2.8,8.7,5.6,11.6,1.2
				s5.4-7.2,2.6-9.7c0.8-0.8,1.6-0.1,2.1,0.4s9.4,8.9,9.4,8.9s-10.6,13.2-10.6,13S49.3,101,49.3,101S8.1,76.3,8,76.2
				C7.9,76,7,69.3,7,69.3z"/>
			<path style="fill:#9A6648;" d="M8,34.3c37.3-2.6,67.5-3.4,93.5-0.5c5.5,0.6,10.6,4.1,11.1,9.7c0.6,5.8,5.4,3.5,5.3,0.4
				c-0.1-3,0.8-14.2-11.5-16.3S8,28.8,8,28.8V34.3z"/>
			<path style="fill:#9A6648;" d="M101.3,53.3c-3,4.6-3,8.4-1.1,10.7s8.1,12,8.7,13.2c1.6,3.4-2.6,4.7-5.5,2.7
				c-1.9-1.3-6-2.1-8.5,1.3c-1.1,1.5-1.6-0.4-1.9-1.4c-2.2-8.2-9.2-8.3-11.8-6c-1.9,1.6-7.7-0.7-10.1-2.9c-2.2-2-1.8-6,1.3-7
				c3.1-0.9,16.2-3.1,18.7-5s7.9-5.5,8.7-6.6C100.7,53,101.3,53.3,101.3,53.3z"/>
		</g>
	</g>
</g>
<g>
	<g>
		<defs>
			<path id="SVGID_00000136373609574254934240000000058390524597944750_" d="M102.7,92.7c2-0.1,6.1-0.3,8-0.3
				c3.6-0.1,6.4-3.3,6.4-6.7c0-15.4-1.6-31.9-1.9-34.4c-0.5-5.3,2.2-17.6-12.5-20.3c-21.8-4-70.8-1.7-90.1,0.5
				c-1.5,0.2-2.2,0.6-2.9,2.4C5.3,45.2,7.1,64.5,9.4,73.3c0.5,2,1.8,3.1,4,3.4s10.4,1.5,12.6,1.8c4.4,0.6,8.6,2.6,11.2,5.4
				c10.2,10.7,13.9,16.1,32.7,17.3c16.3,1.1,14.6,4.6,21,5.9C94.5,107.9,106.1,106.6,102.7,92.7z"/>
		</defs>
		<clipPath id="SVGID_00000127730323934944080140000004152723636531922590_">
			<use xlink:href="#SVGID_00000136373609574254934240000000058390524597944750_"  style="overflow:visible;"/>
		</clipPath>
		<g style="clip-path:url(#SVGID_00000127730323934944080140000004152723636531922590_);">
			<path style="fill:#62392B;" d="M18,78.4c-0.1-0.6,0.3-1.6,1.4-1.6c5.6-0.4,14.7-1.2,20.5,5c22.2,23.6,29.3,13.3,39.7,19.8
				c1.2,0.8,1.1,2.1,1.1,2.1S52,101.2,51.8,101C51.6,100.9,18,78.4,18,78.4z"/>
			<path style="fill:#62392B;" d="M92.9,108.3c0-0.4-0.2-1,1.3-1.6c10.9-5.2,7.8-17.9-3.9-19.7c-10-1.5-11.1-8.6-19.7-16.1
				c-1-0.9-0.3-1.7,0.5-1.7c1.1,0,3.5,0.8,6.1,3c9.7-14.1,14-9.6,24.6-23.4c0.7-0.9,1.8-0.1,1.5,0.7c-1.1,3.6-4.7,8.9-8.8,12.4
				c-1.1,0.9-1.4,2.4-0.6,3.5c0.9,1.1,11.7,12.4,13.5,14.3c0.7,0.7-0.1,1.9-0.9,1.3s-8.2-6.2-8.6-6.5c-0.3-0.2-1-0.6-1.5,0.1
				c-0.9,1.1-1.4,4-0.9,6.9c0.3,1.6-1.1,1.8-1.8,0.6c-0.7-1.1-1.3-4.8-0.5-7.5c0.2-0.6,0.2-1.3-0.2-2.2c-0.7-1.2-1.7-3.3-4.2-4
				c-0.9-0.2-1.4,0.2-2,0.6c-1.7,1.2-3.9,3.7-5.5,5.7c-0.5,0.6-0.4,1.1-0.1,1.6c6.2,10.1,14.5,6.6,19,13.2c0.3,0.4,0.7,0.7,1.2,0.6
				c2.8,0,7.8,0,8.8,0c1.1,0,4.4-1.2,4.3-4c-0.2-14.7-1.8-41.2-1.9-43.1c-0.1-2,1.3-4.1,2.9-4.5s3.2-0.1,3.2,1.5
				c0,1.5,1.1,52,1.1,52l-20.4,19L92.9,108.3z"/>
		</g>
	</g>
</g>
</svg>
