<?xml version="1.0" encoding="utf-8"?>
<!-- Generator: Adobe Illustrator 16.0.0, SVG Export Plug-In . SVG Version: 6.00 Build 0)  -->
<!DOCTYPE svg PUBLIC "-//W3C//DTD SVG 1.1//EN" "http://www.w3.org/Graphics/SVG/1.1/DTD/svg11.dtd">
<svg version="1.1" id="レイヤー_1" xmlns="http://www.w3.org/2000/svg" xmlns:xlink="http://www.w3.org/1999/xlink" x="0px"
	 y="0px" width="128px" height="128px" viewBox="0 0 128 128" enable-background="new 0 0 128 128" xml:space="preserve">
<g>
	<g>
		<g>
			<defs>
				<path id="SVGID_1_" d="M120.84,91.8c-0.26,9.44-0.15,16.49-7.9,17.52c-20.48,2.73-64.2,4.18-76.89,4.85
					c-0.78,0.04-1.52,0.04-2.2,0.01c-0.73-0.09-1.44-0.17-2.16-0.26c-8.07-1.61-6.55-9.86-6.37-16.73
					c0.19-6.93,0.8-35.98,0.96-49.92c0.62-9.13,10.66-8.67,13.72-8.89c16.19-1.12,67.05,0.48,71.57,0.47
					c3.46-0.01,8.23,1.9,8.52,7.68C120.55,55.51,120.96,87.46,120.84,91.8z"/>
			</defs>
			<use xlink:href="#SVGID_1_"  overflow="visible" fill="#78A3AD"/>
			<clipPath id="SVGID_2_">
				<use xlink:href="#SVGID_1_"  overflow="visible"/>
			</clipPath>
			<path clip-path="url(#SVGID_2_)" fill="#FFFFFF" d="M26.24,53.44c0.78,2.16,3.35,3.28,5.47,2.43c2.9-1.16,2.25-4.53,3.62-6.78
				c2.72-4.44,9.33-3.75,13.87-3.84c6.43-0.12,12.88-0.07,19.32-0.1c3.69-0.01,7.37-0.06,11.05-0.15
				c5.77-0.14,11.54-0.16,17.31-0.29c4.94-0.06,9.89-0.42,14.79,0.35c2.66,0.42,8.46,1.5,8.57,5.07l3.27-1.92
				c0,0-0.38-13.12-10.81-13.12c-10.42,0-78.35,0-78.35,0c-1.83,0.85-4.25,1.8-5.67,3.24c-0.63,0.64-0.71,1.38-0.93,2.21
				c-0.34,1.28-0.88,2.4-1.07,3.73c-0.11,0.73-0.36,1.32-0.38,2.1c-0.03,1.56,0.03,3.01-0.27,4.53
				C25.89,51.74,25.95,52.64,26.24,53.44z"/>
		</g>
		<g>
			<path fill="#2F2F2F" d="M112.62,52.17c-2.46-0.36-5.5-0.05-7.19-0.01c-21.4,0.45-42.99,0.09-64.33,1.53
				c-2.27,0.15-8.77-0.03-9.94,2.29c-0.5,1,0.47,2.28,1.64,2.46c0.7,0.11,1.76-0.04,2.47-0.04c3.46,0,6.91-0.16,10.35-0.16
				c18,0,36.08-0.1,54.08-0.7c5.03-0.17,10.1-0.55,14.98-1.63c1.31-0.29,2.11-1.11,1.27-2.22C115.3,52.82,114.06,52.39,112.62,52.17
				z"/>
			<path fill="#2F2F2F" d="M34.23,70.97c0.86,0.1,1.73,0.18,2.6,0.24c3.37,0.22,6.75,0.13,10.13,0c14.02-0.53,28.06-0.79,42.09-1.27
				c8.12-0.28,16.53-0.3,24.59-1.21c1.6-0.18,3.12-1.11,2.17-2.7c-1.35-2.26-7.83-1.7-10.09-1.72c-21.42-0.22-42.92,1.38-64.32,2.15
				c-1.7,0.05-4.76-0.08-7.17,0.42c-0.77,0.16-2.17,0.42-2.45,1.16c-0.27,0.71,0.08,2.08,0.82,2.57
				C33.03,70.89,33.71,70.91,34.23,70.97z"/>
			<path fill="#2F2F2F" d="M112.62,80.54c-2.46-0.36-5.5-0.05-7.19-0.01c-21.4,0.45-42.99,0.08-64.33,1.53
				c-2.27,0.15-8.77-0.03-9.94,2.29c-0.5,1,0.47,2.28,1.64,2.45c0.7,0.11,1.76-0.04,2.47-0.04c3.46,0,6.91-0.16,10.35-0.16
				c18,0,36.08-0.09,54.08-0.7c5.03-0.17,10.1-0.56,14.98-1.64c1.31-0.28,2.11-1.1,1.27-2.22C115.3,81.19,114.06,80.76,112.62,80.54
				z"/>
			<path fill="#2F2F2F" d="M105.64,91.86c-21.42,0.02-42.9,1.85-64.28,2.86c-1.7,0.07-4.75-0.03-7.17,0.5
				c-0.76,0.17-2.16,0.45-2.42,1.19c-0.26,0.71,0.11,2.08,0.86,2.56c0.44,0.28,1.11,0.28,1.63,0.33c0.86,0.1,1.74,0.17,2.61,0.21
				c3.37,0.19,6.76,0.06,10.12-0.1c14.02-0.69,28.05-1.1,42.07-1.74c8.12-0.37,16.53-0.49,24.57-1.48c1.61-0.19,3.1-1.15,2.13-2.72
				C114.37,91.24,107.91,91.86,105.64,91.86z"/>
		</g>
	</g>
	<path fill="#2F2F2F" d="M126.27,44.69c-0.07-0.84-0.16-1.65-0.3-2.44c-0.82-5-3.01-8.86-9.1-10.32c-3.37-0.81-6.87-1.05-10.33-1.23
		c-3.15-0.18-13.55-1.49-41.01-1.49c-20.77,0-41.83,1.68-44.78,1.97C7.78,32.45,3.21,36.04,2.17,47.89C1.99,50,0.69,99,0.79,99.88
		L0.77,100c0.39,5.35,1.28,10.09,6.26,13.01c4.1,2.4,17.24,7.49,24.03,7.53c1.08,0.08,2.19,0.15,3.31,0.19
		c8.9,0.33,78.24-3.36,81.17-4.3c2.39-0.76,5.88-1.38,7.3-3.69c3.36-5.45,3.18-11.1,3.58-17.27
		C127.48,79.39,127.57,59.61,126.27,44.69z M120.84,91.8c-0.26,9.44-0.15,16.49-7.9,17.52c-20.48,2.73-64.2,4.18-76.89,4.85
		c-0.78,0.04-1.52,0.04-2.2,0.01c-0.73-0.09-1.44-0.17-2.16-0.26c-8.07-1.61-6.55-9.86-6.37-16.73c0.19-6.93,0.8-35.98,0.96-49.92
		c0.62-9.13,10.66-8.67,13.72-8.89c16.19-1.12,67.05,0.48,71.57,0.47c3.46-0.01,8.23,1.9,8.52,7.68
		C120.55,55.51,120.96,87.46,120.84,91.8z"/>
	<g>
		<path fill="#78A3AD" d="M58.86,20.66c0,0,18.02-0.73,20.44,0.48c0,0,1.87,2.2,1.97,12.72l11.76,0.08
			c0.38-13.89-5.36-21.42-5.36-21.42c-6.54-3.86-36.72-2.08-36.72-2.08c-8.02,5.05-7.73,23.18-7.73,23.18l12.8,0.08
			C56.14,29.77,56.63,21.85,58.86,20.66z"/>
		<path fill="#FFFFFF" d="M57.13,11.16c-3.1,0.02-6.73,0.74-8.88,2.99c-3.13,3.26-3.22,8.36,1.28,10.37
			c6.08,2.72,6.91-4.6,11.85-5.26c2.84-0.38,6.81-0.38,9.65,0.01c2.52,0.35,5.7-0.34,7.98,1.04c1.22,0.74,1.13,1.69,1.86,2.74
			c0.86,1.23,2.32,1.76,3.75,1.92c3.78,0.41,7-1.09,6.86-5.32c-0.46-13.56-21.55-8.49-30.1-8.49c-0.13,0-0.26,0-0.39,0H57.13z"/>
		<path fill="#2F2F2F" d="M95.74,36.74l-17.22-0.11l-0.02-2.73c-0.06-6.11-0.75-9.11-1.15-10.38c-0.99-0.12-3.19-0.29-7.78-0.29
			c-3.81,0-7.69,0.12-9.52,0.18c-0.36,1.03-1.07,4.41-1.23,10.38l-0.07,2.72L40.5,36.38l-0.04-2.72
			c-0.04-2.02-0.06-19.86,9.02-25.58l0.6-0.38l0.71-0.04c0.07,0,7.12-0.41,15.06-0.41c18.36,0,22.03,2.16,23.23,2.88l0.79,0.71
			c0.26,0.34,6.34,8.48,5.93,23.18L95.74,36.74z M83.98,31.1l6.26,0.04c-0.31-9.16-3.45-14.85-4.47-16.47
			c-1.65-0.7-6.42-1.86-19.92-1.86c-6.25,0-11.94,0.26-13.96,0.36c-4.16,3.27-5.52,12.34-5.82,17.69l7.3,0.05
			c0.64-10.81,3.09-12.11,4.18-12.69l0.56-0.3l0.63-0.03c0,0,5.47-0.22,10.82-0.22c8.3,0,10.02,0.51,10.98,0.99l0.87,0.69
			C82.1,20.15,83.62,22.85,83.98,31.1z"/>
	</g>
	<g>
		<defs>
			<path id="SVGID_3_" d="M24.91,37.79c0,0-3.42,0.7-4.64,4.25c-2.13,6.17-1.81,21.43-2.1,33.96c-0.34,14.27-0.95,29.7,0.66,33.1
				c1.01,2.12,2.38,2.86,3.65,3.67c0,0-9.78-3.45-13.32-5.6C5,104.63,6.08,96.64,6.08,91.23c0,0,0.74-17.28,0.74-29.3
				c0-10.41-0.43-21.43,4.97-23.36C15.78,37.14,24.91,37.79,24.91,37.79z"/>
		</defs>
		<use xlink:href="#SVGID_3_"  overflow="visible" fill="#FFFFFF"/>
		<clipPath id="SVGID_4_">
			<use xlink:href="#SVGID_3_"  overflow="visible"/>
		</clipPath>
	</g>
</g>
</svg>
