<svg enable-background="new 0 0 128 128" viewBox="0 0 128 128" xmlns="http://www.w3.org/2000/svg" xmlns:xlink="http://www.w3.org/1999/xlink"><path d="m81.56 73.92c0.24 3.11-1.7 5.91-4.74 6.68-1.87 0.47-1.08 3.37 0.8 2.89 4.25-1.08 7.28-5.18 6.95-9.57-0.16-1.92-3.16-1.93-3.01 0z" fill="#EDA600"/><radialGradient id="c" cx="-346.44" cy="-2706.4" r="43.387" gradientTransform="matrix(.2322 -.8128 -.625 -.2796 -1533.6 -974.8)" gradientUnits="userSpaceOnUse"><stop stop-color="#BA8D68" offset=".3"/><stop stop-color="#A47B62" offset=".8"/></radialGradient><path d="m72.67 113.56c-0.88 0-1.67-0.1-2.43-0.3-0.12-0.03-0.24-0.05-0.36-0.05-2.77-0.04-4.88-1.95-6.16-3.54-2.7-3.34-4.15-8.34-3.45-11.89 0.91-4.6 3.63-10.09 11.41-10.09 0.74 0 1.51 0.05 2.31 0.15 4.12 0.51 7.79 0.76 10.89 0.76 12.38 0 16.27-3.96 18.3-9.9 2.43-7.13 4.81-33.31 5.74-44.5 2.17 4.47 5.42 12.27 7.85 22.99 1.4 6.19 2.72 12.69 3.93 19.34 1.84 10.11 0.16 20.41-4.73 28.99-2.95 5.19-5.26 6.68-6.68 7.01-1.38 0.32-2.53 0.48-3.53 0.48-1.56 0-2.64-0.39-4-0.87-2.03-0.72-4.55-1.63-9.47-1.63h-0.54c-4.83 0.06-8.71 1.02-12.14 1.86-2.61 0.64-4.86 1.19-6.94 1.19z" fill="url(#c)"/><path d="m109.91 40.13c1.78 4.38 3.77 10.22 5.39 17.39 1.39 6.15 2.71 12.64 3.91 19.27 1.77 9.76 0.16 19.7-4.56 27.98-2.93 5.16-4.98 6.12-5.72 6.29-1.26 0.3-2.31 0.44-3.19 0.44-1.3 0-2.17-0.31-3.5-0.79-2.14-0.76-4.8-1.72-9.98-1.72h-0.55c-5 0.06-9.15 1.08-12.48 1.9-2.51 0.62-4.68 1.15-6.57 1.15-0.74 0-1.41-0.08-2.05-0.25-0.23-0.06-0.47-0.1-0.72-0.1-2.3-0.04-4.13-1.89-5.02-2.98-2.41-2.98-3.76-7.56-3.14-10.66 1.17-5.89 4.51-8.88 9.94-8.88 0.68 0 1.39 0.05 2.13 0.14 4.24 0.52 7.86 0.77 11.07 0.77 11.36 0 17.07-3.16 19.72-10.92 2.12-6.18 4.18-26.28 5.32-39.03m-2.09-11.11s-3.05 40.32-6.07 49.2c-1.75 5.13-5.02 8.89-16.88 8.89-2.99 0-6.52-0.24-10.7-0.75-0.87-0.11-1.7-0.16-2.49-0.16-7.4 0-11.53 4.52-12.88 11.29-1.32 6.64 3.84 17.11 11.06 17.22 0.93 0.25 1.86 0.35 2.82 0.35 5.08 0 10.71-2.94 19.09-3.05h0.52c8.07 0 9.16 2.5 13.47 2.5 1.05 0 2.29-0.15 3.87-0.52 2.82-0.66 5.43-3.84 7.64-7.73 5.16-9.07 6.77-19.73 4.9-30-0.98-5.42-2.31-12.17-3.94-19.4-4.09-18.04-10.41-27.84-10.41-27.84z" fill="#91674D"/><radialGradient id="b" cx="49.155" cy="32.937" r="91.087" gradientUnits="userSpaceOnUse"><stop stop-color="#BA8D68" offset=".4175"/><stop stop-color="#A47B62" offset="1"/></radialGradient><path d="m113.17 60.73c-1.57-19.41-1.88-42.43-17.89-42.46-2.6-0.01-5.05 0.7-7.18 1.75-2.3 1.14-5.05 0.6-6.66-1.4-2.78-3.46-7.1-5.68-11.97-5.68-5.21 0-9.81 2.55-12.55 6.45-1.51 2.15-4.37 2.74-6.63 1.39-1.71-1.02-3.62-1.64-5.66-1.75-4.11-0.22-8 1.63-11.03 4.83-0.84 0.89-2.06 1.29-3.25 1.03-11.12-2.47-14.42 5.77-17.3 15.65 0 0-15.72 43.69 3.28 47.36 1.45 0.28 5.11 0.87 6.43 0.73 2.38-0.26 4.72 0.66 6.47 2.29 2.78 2.59 6.2 4.21 9.67 4.4 3.42 0.19 7-0.59 10.13-2.28 2.21-1.19 4.9-0.4 6.3 1.69 2.98 4.45 7.68 6.85 13.33 6.85 4.52 0 9.73-1.32 12.85-4.36 3.34-3.26 8.44-3.7 12.32-1.11 2.15 1.43 5.5 2.35 11.17 1.14 11.67-2.52 10.09-12.77 8.17-36.52z" fill="url(#b)"/><defs><path id="a" d="m117.15 81.34-6.05-48.22c-1.65-11.12-7.44-15.22-15.82-14.86-2.6 0.11-5.05 0.7-7.18 1.75-2.3 1.14-5.05 0.6-6.66-1.4-2.78-3.46-7.1-5.68-11.97-5.68-5.23 0-9.84 2.57-12.57 6.48-1.49 2.14-4.33 2.73-6.57 1.38-1.72-1.03-3.64-1.65-5.69-1.77-4.12-0.23-8.01 1.63-11.04 4.84-0.83 0.88-2.04 1.28-3.22 1.02h-0.02c-11.12-2.47-14.42 5.77-17.3 15.65l-7.83 30.5c-1.18 10.37 4.84 16.93 13.34 17.63 1.48 0.12 2.89 0.11 4.22-0.03 2.37-0.26 4.7 0.66 6.45 2.28 2.78 2.59 6.2 4.22 9.68 4.41 3.42 0.19 7-0.59 10.13-2.28 2.21-1.19 4.9-0.4 6.3 1.69 2.98 4.45 8.47 7.45 14.12 7.45 4.41 0 8.73-1.83 11.83-4.75 3.49-3.29 8.82-3.61 12.9-1.1 2.13 1.31 5.17 2.22 10.61 1.48 11.71-1.59 13.61-6.34 12.34-16.47z"/></defs><clipPath><use xlink:href="#a"/></clipPath><path d="m56.16 92.98c1.31 2.8 4.45 6.39 13.51 7.76 8.16 1.24 13.44-4.18 15.17-5.1 6.66-3.53 12.69 3.19 20.15 2.13 11.04-1.58 12.25-11.34 8.83-31.53" fill="none" stroke="#91674D" stroke-linecap="round" stroke-linejoin="round" stroke-miterlimit="10" stroke-width="3"/><path d="m69.47 15.94c3.74 0 7.21 1.62 9.54 4.45 1.67 2.03 4.11 3.19 6.7 3.19 1.3 0 2.55-0.29 3.72-0.87 1.94-0.96 3.9-1.44 5.85-1.44 5.46 0.01 9.07 3.58 12.08 11.93 0.49 1.35 1.03 2.75 1.61 4.23 1.92 4.94 4.31 11.09 6.34 20.09 1.39 6.15 2.71 12.64 3.92 19.27 1.77 9.76 0.16 19.7-4.56 27.98-2.93 5.16-4.98 6.12-5.72 6.29-1.26 0.3-2.31 0.44-3.19 0.44-1.3 0-2.17-0.31-3.49-0.79-2.14-0.76-4.79-1.72-9.98-1.72h-0.55c-5 0.06-9.15 1.08-12.48 1.9-2.51 0.62-4.68 1.15-6.57 1.15-0.74 0-1.41-0.08-2.05-0.25-0.23-0.06-0.47-0.1-0.72-0.1-2.03-0.03-3.69-1.45-4.72-2.62-2.43-2.78-3.92-7.18-3.53-10.45 0.12-1.04-0.31-2.07-1.13-2.72-1.06-0.83-1.96-1.8-2.68-2.87-1.5-2.24-3.97-3.57-6.6-3.57-1.26 0-2.51 0.32-3.62 0.92-2.35 1.27-5.02 1.94-7.7 1.94-0.28 0-0.56-0.01-0.84-0.02-2.69-0.15-5.46-1.42-7.79-3.6-2.18-2.03-4.91-3.14-7.71-3.14-0.38 0-0.76 0.02-1.13 0.06-0.05 0-0.11 0.01-0.17 0.01-1.21 0-3.91-0.41-5.36-0.69-2.23-0.43-3.81-1.57-4.95-3.57-5.22-9.17 1.06-31.86 3.92-39.82 0.02-0.06 0.04-0.12 0.06-0.17 2.7-9.24 5.09-13.94 10.7-13.94 0.93 0 1.97 0.13 3.07 0.37 0.21 0.05 0.43 0.07 0.65 0.07h0.12c1.93 0 4.29-0.99 5.73-2.4 2.33-2.27 5.01-3.48 7.75-3.48 0.17 0 0.34 0 0.51 0.01 1.5 0.08 2.95 0.53 4.29 1.33 1.25 0.75 2.68 1.14 4.12 1.14 2.58 0 5.01-1.27 6.5-3.39 2.24-3.22 6.01-5.15 10.06-5.15m0-3c-5.21 0-9.81 2.55-12.55 6.45-0.97 1.38-2.48 2.11-4.04 2.11-0.88 0-1.77-0.23-2.58-0.72-1.71-1.02-3.62-1.64-5.66-1.75-0.22-0.01-0.45-0.02-0.67-0.02-3.64 0-7.07 1.62-9.85 4.33-0.84 0.82-2.45 1.54-3.63 1.54h-0.12c-1.35-0.3-2.59-0.44-3.72-0.44-8.19 0-11.04 7.41-13.58 16.1 0 0-15.72 43.69 3.28 47.36 1.3 0.25 4.35 0.75 5.93 0.75 0.19 0 0.36-0.01 0.5-0.02 0.27-0.03 0.54-0.04 0.81-0.04 2.1 0 4.11 0.89 5.67 2.34 2.78 2.59 6.2 4.21 9.67 4.4 0.33 0.02 0.67 0.03 1 0.03 3.11 0 6.3-0.78 9.12-2.3 0.7-0.38 1.45-0.56 2.19-0.56 1.6 0 3.16 0.82 4.11 2.24 0.94 1.4 2.07 2.58 3.33 3.56-0.79 6.65 4.24 16.32 11.18 16.43 0.93 0.25 1.86 0.35 2.82 0.35 5.08 0 10.71-2.94 19.09-3.05h0.52c8.07 0 9.16 2.5 13.47 2.5 1.05 0 2.29-0.15 3.87-0.52 2.82-0.66 5.43-3.84 7.64-7.73 5.16-9.07 6.77-19.73 4.9-30-0.98-5.42-2.31-12.17-3.94-19.4-2.7-11.92-5.96-18.87-8.05-24.68-2.8-7.77-6.85-13.9-14.89-13.91h-0.03c-2.59 0-5.03 0.7-7.15 1.75-0.76 0.38-1.58 0.56-2.39 0.56-1.65 0-3.28-0.75-4.38-2.09-2.79-3.4-7.07-5.57-11.87-5.57z" fill="#91674D"/><path d="m30.32 49.85c-3.13 12.11-4.35 24.72-3.59 37.21" fill="none" stroke="#91674D" stroke-linecap="round" stroke-linejoin="round" stroke-miterlimit="10" stroke-width="3"/><path d="m53.83 48.86c-1.44 10.6-1.5 39.33-0.01 42.65" fill="none" stroke="#91674D" stroke-linecap="round" stroke-linejoin="round" stroke-miterlimit="10" stroke-width="3"/><path d="m81.84 44.5c2.85 17.29 3.99 31.96 4.23 49.49" fill="none" stroke="#91674D" stroke-linecap="round" stroke-linejoin="round" stroke-miterlimit="10" stroke-width="3"/></svg>
