<?xml version="1.0" encoding="utf-8"?>
<!-- Generator: Adobe Illustrator 19.2.1, SVG Export Plug-In . SVG Version: 6.00 Build 0)  -->
<svg version="1.1" id="レイヤー_1" xmlns="http://www.w3.org/2000/svg" xmlns:xlink="http://www.w3.org/1999/xlink" x="0px"
	 y="0px" viewBox="0 0 128 128" style="enable-background:new 0 0 128 128;" xml:space="preserve">
<g>
	<g>
		<g>
			<defs>
				<path id="SVGID_1_" d="M100.96,10.37c-1.56,0-3.08,0.61-4.2,1.74c-9.56,9.56-17.94,11.37-30.07,11.37c-3.68,0-7.72-0.18-12-0.37
					c-3.37-0.15-6.85-0.31-10.61-0.4c-0.66-0.02-1.3-0.02-1.94-0.02c-30.68,0-40.49,18.56-40.89,19.35
					c-0.52,1.01-0.73,2.16-0.62,3.29l6.72,66.95c0.22,2.22,1.67,4.13,3.75,4.95c0.7,0.27,1.43,0.4,2.16,0.4
					c1.43,0,2.84-0.51,3.95-1.5c0.1-0.09,12.42-10.63,32.12-10.63c2.52,0,5.09,0.17,7.63,0.51c9.26,1.23,16.04,1.78,21.95,1.78
					c18.93,0,32.93-6.1,46.82-20.38c1.51-1.55,2.06-3.81,1.42-5.88l-20.51-66.94c-0.61-2-2.22-3.53-4.25-4.03
					C101.92,10.43,101.44,10.37,100.96,10.37L100.96,10.37z"/>
			</defs>
			<use xlink:href="#SVGID_1_"  style="overflow:visible;fill:#2F2F2F;"/>
			<clipPath id="SVGID_2_">
				<use xlink:href="#SVGID_1_"  style="overflow:visible;"/>
			</clipPath>
			<g style="clip-path:url(#SVGID_2_);">
				<g>
					<defs>
						<path id="SVGID_3_" d="M60.11,110.71c26.61,2.07,44.56,6.93,69.48-21.69l-9.36-37.68C97.91,76.41,83.88,76.46,53.61,73.46
							C28,70.93,10.24,87.41,3.76,93.19l4.23,37.17C18.5,121.62,34.31,108.7,60.11,110.71z"/>
					</defs>
					<use xlink:href="#SVGID_3_"  style="overflow:visible;fill:#FFE000;"/>
					<clipPath id="SVGID_4_">
						<use xlink:href="#SVGID_3_"  style="overflow:visible;"/>
					</clipPath>
				</g>
			</g>
			<g style="clip-path:url(#SVGID_2_);">
				<g>
					<defs>
						<path id="SVGID_5_" d="M54.6,77.18c25.85,2.07,43.29,6.93,67.49-21.7l-7.93-29.24C92.47,51.32,78.85,51.37,49.44,48.38
							C24.56,45.84,7.3,62.33,1.01,68.11l2.96,28.72C14.17,88.1,29.54,75.17,54.6,77.18z"/>
					</defs>
					<use xlink:href="#SVGID_5_"  style="overflow:visible;fill:#F64E3D;"/>
					<clipPath id="SVGID_6_">
						<use xlink:href="#SVGID_5_"  style="overflow:visible;"/>
					</clipPath>
				</g>
			</g>
		</g>
	</g>
</g>
</svg>
