<svg width="128" height="128" xmlns="http://www.w3.org/2000/svg"><path d="M10.32 24.75s.54 3.58 1.36 8.95c.21 1.32.44 2.75.68 4.26.21 1.51.57 3.08.8 4.72.27 1.63.68 3.3.95 5 .38 1.69.66 3.43 1.13 5.11.38 1.71.74 3.43 1.24 5.07.24.83.45 1.65.65 2.48.22.81.49 1.6.73 2.39s.5 1.55.69 2.32c.24.75.51 1.48.75 2.19.52 1.42.9 2.81 1.43 4.03.5 1.23.92 2.38 1.29 3.42.46.98.82 1.87 1.13 2.6.32.72.52 1.33.69 1.73.16.4.24.62.24.62l.02.04c.03.08-.01.16-.08.19s-.14 0-.18-.06l-1.37-2.08c-.43-.66-.96-1.46-1.57-2.39-.53-.97-1.12-2.06-1.77-3.25-.69-1.17-1.26-2.53-1.9-3.94-.31-.71-.66-1.43-.97-2.19-.29-.76-.58-1.55-.87-2.34-.29-.8-.61-1.6-.89-2.43-.26-.83-.51-1.68-.77-2.53-.56-1.69-.96-3.46-1.4-5.21-.23-.88-.4-1.76-.56-2.65-.16-.89-.33-1.77-.49-2.64-.27-1.76-.53-3.49-.73-5.18-.17-1.69-.37-3.31-.45-4.87-.12-1.55-.19-3.02-.22-4.37-.06-1.35-.04-2.6-.05-3.7.03-1.1.02-2.06.07-2.85.05-1.58.14-2.48.14-2.48.01-.08.08-.14.16-.13.07.01.12.06.13.13l-.01.04zM30.37 20.1s-.41 3.6-1.02 8.99l-.45 4.29c-.19 1.51-.25 3.12-.46 4.76-.17 1.65-.21 3.36-.39 5.08-.07 1.73-.26 3.48-.24 5.23-.07 1.75-.18 3.5-.12 5.22.02.86 0 1.72-.02 2.56 0 .84.05 1.67.08 2.5.02.82.08 1.63.06 2.42.03.79.1 1.56.15 2.31.13 1.5.14 2.95.33 4.26.17 1.31.26 2.54.35 3.64.19 1.07.31 2.02.42 2.8.12.78.16 1.42.21 1.85.05.43.07.66.07.66v.04c.01.08-.05.15-.13.16-.07.01-.13-.04-.15-.1 0 0-.28-.86-.78-2.36-.25-.75-.55-1.66-.89-2.71-.26-1.07-.55-2.28-.86-3.6-.36-1.31-.55-2.77-.81-4.3-.12-.77-.26-1.55-.37-2.36-.08-.81-.15-1.64-.23-2.49-.07-.84-.17-1.7-.23-2.57l-.09-2.65c-.1-1.78-.03-3.59.01-5.4.01-.91.07-1.81.15-2.71l.21-2.68c.19-1.77.4-3.51.64-5.19.28-1.67.51-3.29.84-4.81.29-1.53.61-2.96.92-4.28.29-1.32.64-2.52.91-3.58.31-1.06.56-1.98.81-2.74.46-1.51.78-2.36.78-2.36.03-.08.11-.12.19-.09.06.02.1.09.1.16l.01.05z" fill="#4a963e"/><path d="M26.44 85.58c-.32-.06-9.35 3.52-9.5 3.82-.28.56-.33 1.35-.46 1.96l-.84 3.93c-.4 1.86-.77 3.73-1.24 5.57-.09.37-.15.82-.36 1.14-.35.54-4.84-.29-5.95-.16-.02-.01-.03-.01-.05-.02-.31-.07-.84.24-1.12.35-.29.12-.57.25-.78.48-.23.24-.34.57-.44.88-.21.63-.4 1.27-.41 1.93 0 .21.05.46.24.52.1.03.21 0 .32-.04.71-.27 1.26-.86 1.85-1.34 1.77 1.13 8.22.98 8.77-.57.32-.91.45-1.9.6-2.85.39-2.58.45-5.19 1.05-7.76.2-.86.3-2.03.87-2.75.13-.16.28-.31.46-.42.82-.51 1.76-.73 2.7-.89 1.86-.31 4.15-.23 5.73-1.4 1.66-1.22 1.3-1.86-1.44-2.38zM82.27 70.2c1.67-.72 3.42-1.62 5.23-1.39 1.79.22 2.1 3.26 2.45 5.04 1.02 5.32 1.52 9.06 1.7 14.47-.32.3-.87.22-1.2-.07-.34-.28-.52-.71-.68-1.11-1.13-2.76-2.66-3.67-3.51-6.53-.96-3.26-.53-3.69-.72-4.36-.3-1.05-14.07 13-22.16 6.66-1.7-1.33-1.6-2.45-.55-3.09 3.8-2.32 16.49-8.35 19.44-9.62z" fill="none" stroke="#4a963e" stroke-width="3" stroke-linecap="round" stroke-linejoin="round" stroke-miterlimit="10"/><path d="M30.67 93.7s7.48 12.23 28.63 12.37 41.58-8.06 47.76-14.82c6.19-6.76-68.48-9.49-73.66-8.34S30.67 93.7 30.67 93.7z" fill="none" stroke="#4a963e" stroke-width="3" stroke-linecap="round" stroke-linejoin="round" stroke-miterlimit="10"/><path d="M90.09 93.41c-3.74-1.15-7.19-2.88-10.93-4.32-5.47-1.44-10.65-3.45-16.4-4.89-4.87-1.06-9.58-1.8-14.37-1.55-.8 1.76-.94 3.77.58 4.9.83.62 1.84.84 2.82 1.05 11.46 2.43 22.92 4.87 34.37 7.3 3.41.73 6.85 1.45 10.32 1.45 2.03 0 4.05-.26 6.05-.63 2.69-.5 5.36-1.22 7.93-2.29 2.58-1.07 5.04-2.49 7.32-4.23 1.01-.77 2.06-1.77 2.44-3.02-7.47 7.47-19.65 9.5-30.13 6.23z" fill="none" stroke="#4a963e" stroke-width="3" stroke-linecap="round" stroke-linejoin="round" stroke-miterlimit="10"/><path d="M118.17 82.67c-3.14-2.3-6.98-2.9-10.69-3.32-5.41-.62-10.84-.98-16.27-1.16-9.59-.32-19.19-.07-28.78.35-3.35.15-8.66-.79-11.68 1.16-.89.57-1.8 1.7-2.37 2.96 4.79-.25 9.5.49 14.37 1.55 5.75 1.44 10.93 3.45 16.4 4.89 3.74 1.44 7.19 3.16 10.93 4.32 10.49 3.26 22.67 1.24 30.13-6.22.11-.35.16-.72.15-1.11-.06-1.47-1.11-2.62-2.19-3.42z" fill="none" stroke="#4a963e" stroke-width="3" stroke-linecap="round" stroke-linejoin="round" stroke-miterlimit="10"/><path d="M50.9 78.7c.69.15 1.48.36 1.8.99.19.36.17.8.13 1.2-.2 1.87-.88 3.64-1.56 5.39-.66 1.7-1.32 3.41-1.99 5.11-.31.8-.64 1.63-1.29 2.19-.65.57-1.53.78-2.37.97-5.09 1.18-10.19 2.35-15.28 3.53-.28.06-.86-7.38-.87-8.09-.01-2.83.27-5.66.84-8.43.35-1.67.67-5.41 2.52-6.11 1.96-.74 5.95.84 7.97 1.23 3.38.65 6.74 1.32 10.1 2.02z" fill="none" stroke="#4a963e" stroke-width="3" stroke-linecap="round" stroke-linejoin="round" stroke-miterlimit="10"/><path d="M22.41 94.39c.69 1.85 1.61 3.68 3.13 4.94.77.63 1.7 1.11 2.7 1.15 1.94.08 3.54-1.46 4.71-3.01 3.11-4.15 4.91-9.28 5.06-14.46.04-1.25-.02-2.52-.42-3.71-.83-2.47-3.1-4.3-5.62-4.97-3.55-.95-8.55-.47-10.35 3.11-2.48 4.96-1.06 12.01.79 16.95zM41.42 102.75c.1.24-.22.91-.29 1.13-.26.87-.53 1.73-.8 2.59-.68 2.2-1.36 4.41-1.92 6.65-.23.93-.49 1.9-.54 2.86-.1 1.88.56 3.92 1.4 5.58.58 1.14 2 2.06 2.9.6.38-.62.39-1.39.32-2.11-.08-.89-.27-1.78-.56-2.63-.26-.78-.88-1.58-1.02-2.38-.07-.38.05-.82.11-1.19.28-1.88.65-3.75 1-5.62.25-1.32.5-2.63.74-3.95.11-.61.37-1.36.33-1.99-.02-.33-2.02-9.95-2.34-10.02-2.72-.58-3.82.65-2.76 2.44 1.42 2.4 2.33 5.47 3.43 8.04zM122.29 109.68c-.23-.64-.52-1.31-1.09-1.66-.04-.02-.07-.04-.11-.06-.09-.07-.19-.13-.28-.16-2.52-1.01-8.74.5-10.14-2.37-1.02-2.08-.77-15.39-6.11-25.97-.44-.88-1.21-1.91-1.85-2.66-.64-.75-1.72-1.21-2.64-.85-.59.24-1.01.76-1.43 1.24-3.4 3.82-8.65 5.26-13.53 6.78-5.93 1.85-11.73 4.08-17.38 6.66-1.54.71-3.1 1.46-4.3 2.66-1.2 1.2-1.98 2.94-1.62 4.59.86 3.89 6.6 5.29 9.95 4.49 4.71-1.12 9.04-3.56 12.93-6.37 4.54-3.28 15.43-14.55 15.61-14.18.24.48.47.97.69 1.46 1.93 4.3 3.28 8.85 4.57 13.38.66 2.31 1.29 4.62 1.94 6.93.3 1.07.61 2.14.92 3.21.25.83.39 2.27 1.25 2.68.32.15.68.2 1.03.24 1.88.24 3.77.48 5.65.71.84.11 1.64.36 2.5.31.48-.03.96-.13 1.42-.3.06.07.13.14.19.22.52.61 1.05 1.21 1.57 1.82.09.1.22.21.33.14.04-.03.07-.08.09-.12.43-.87.16-1.91-.16-2.82z" fill="none" stroke="#4a963e" stroke-width="3" stroke-linecap="round" stroke-linejoin="round" stroke-miterlimit="10"/><path d="M86.73 117.68c-.04-.36-.08-.69-.1-.74-.47-1.7-3.01-2.23-4.49-2.55-1.17-.26-2.36-.44-3.56-.54 0 0-2.57-10.65-3.2-12.68-.53-1.7-1.11-3.63-2.29-5-1.85-2.14-5.03-1.76-7.59-1.68-4.16.14-8.31.73-12.36 1.7-1.33.32-2.92.74-4.1 1.58-.77.54-1.37 1.25-1.63 2.21-.36 1.35-.24 2.94 1.14 3.64.88.44 1.96.43 2.92.34 3.35-.34 6.67-.98 9.85-2.11 2.99-1.07 5.66-2.68 8.33-4.37.39-.24.96-.68 1.46-.6.63.1 6.69 19.78 6.69 19.78l7.09.76c.35.33.71.65 1.06.98.23.21.49.44.8.45.08-.01.03-.64-.02-1.17z" fill="none" stroke="#4a963e" stroke-width="3" stroke-linecap="round" stroke-linejoin="round" stroke-miterlimit="10"/><g fill="none" stroke="#4a963e" stroke-width="3" stroke-linecap="round" stroke-linejoin="round" stroke-miterlimit="10"><circle cx="31.93" cy="82.27" r="4.8"/><ellipse cx="31.93" cy="82.27" rx="2.19" ry="2.19" transform="rotate(-32.828 31.931 82.271)"/></g><g><path d="M10.23 24.74s0 .23.01.65c.01.42.03 1.04.05 1.83.01.79.07 1.74.12 2.84.08 1.09.16 2.33.26 3.67.09 1.34.22 2.79.4 4.32.14 1.53.42 3.14.6 4.8.23 1.66.51 3.37.81 5.1.38 1.72.65 3.49 1.12 5.21.4 1.74.77 3.49 1.29 5.16.24.84.48 1.68.72 2.51.26.82.56 1.61.83 2.4.27.79.56 1.56.8 2.33.28.75.59 1.48.87 2.19.58 1.42 1.08 2.79 1.71 3.97.6 1.2 1.12 2.32 1.58 3.31.54.95 1.01 1.78 1.4 2.46.77 1.37 1.2 2.18 1.2 2.18l-.09.07s-.49-.76-1.36-2.08l-1.56-2.39c-.52-.97-1.11-2.06-1.76-3.25-.69-1.17-1.25-2.53-1.89-3.94-.31-.71-.65-1.43-.96-2.18l-.86-2.34c-.29-.8-.6-1.6-.88-2.42-.25-.83-.51-1.68-.76-2.53-.55-1.69-.95-3.45-1.38-5.21-.23-.87-.41-1.76-.56-2.64-.17-.88-.33-1.76-.5-2.64-.28-1.75-.54-3.49-.74-5.16-.17-1.68-.38-3.31-.46-4.86-.13-1.55-.19-3.01-.24-4.36-.07-1.35-.04-2.59-.07-3.69.02-1.1.02-2.06.06-2.85.05-1.58.13-2.48.13-2.48l.11.02zM30.28 20.07s-.06.22-.16.63c-.1.41-.24 1.01-.43 1.78-.2.76-.38 1.7-.62 2.77l-.71 3.61c-.26 1.32-.52 2.76-.74 4.28-.26 1.52-.41 3.14-.67 4.79-.21 1.66-.39 3.39-.55 5.14-.08 1.76-.28 3.54-.27 5.32-.07 1.78-.17 3.57-.1 5.32.01.88.03 1.75.04 2.61.04.86.12 1.7.18 2.54.06.83.14 1.65.17 2.46.07.8.18 1.58.27 2.34.19 1.52.32 2.98.62 4.28.27 1.31.47 2.53.66 3.61.27 1.06.51 1.98.71 2.74.39 1.53.59 2.42.59 2.42l-.11.04-.77-2.36c-.24-.75-.54-1.66-.88-2.71-.25-1.07-.54-2.28-.85-3.6-.36-1.31-.54-2.77-.79-4.3-.12-.77-.26-1.55-.36-2.36-.07-.81-.15-1.64-.22-2.48-.07-.84-.17-1.7-.22-2.57-.03-.87-.05-1.75-.08-2.64-.09-1.78-.02-3.58.02-5.39.01-.9.06-1.8.14-2.7.07-.9.14-1.79.2-2.68.19-1.77.39-3.51.63-5.18.27-1.67.5-3.29.82-4.81.28-1.53.6-2.96.91-4.28.29-1.32.63-2.52.9-3.58.31-1.06.55-1.98.8-2.73.46-1.51.77-2.36.77-2.36l.1.05z" fill="#a79600"/><linearGradient id="a" gradientUnits="userSpaceOnUse" x1="27.887" x2="7.746" y1="82.55" y2="107.87"><stop offset="0" stop-color="#4a7000"/></linearGradient><path d="M26.44 85.58c-.32-.06-9.35 3.52-9.5 3.82-.28.56-.33 1.35-.46 1.96l-.84 3.93c-.4 1.86-.77 3.73-1.24 5.57-.09.37-.15.82-.36 1.14-.35.54-4.84-.29-5.95-.16-.02-.01-.03-.01-.05-.02-.31-.07-.84.24-1.12.35-.29.12-.57.25-.78.48-.23.24-.34.57-.44.88-.21.63-.4 1.27-.41 1.93 0 .21.05.46.24.52.1.03.21 0 .32-.04.71-.27 1.26-.86 1.85-1.34 1.77 1.13 8.22.98 8.77-.57.32-.91.45-1.9.6-2.85.39-2.58.45-5.19 1.05-7.76.2-.86.3-2.03.87-2.75.13-.16.28-.31.46-.42.82-.51 1.76-.73 2.7-.89 1.86-.31 4.15-.23 5.73-1.4 1.66-1.22 1.3-1.86-1.44-2.38z" fill="url(#a)"/><linearGradient id="b" gradientUnits="userSpaceOnUse" x1="62.061" x2="91.642" y1="78.643" y2="78.643"><stop offset="0" stop-color="#3b5900"/></linearGradient><path d="M82.27 70.2c1.67-.72 3.42-1.62 5.23-1.39 1.79.22 2.1 3.26 2.45 5.04 1.02 5.32 1.52 9.06 1.7 14.47-.32.3-.87.22-1.2-.07-.34-.28-.52-.71-.68-1.11-1.13-2.76-2.66-3.67-3.51-6.53-.96-3.26-.53-3.69-.72-4.36-.3-1.05-14.07 13-22.16 6.66-1.7-1.33-1.6-2.45-.55-3.09 3.8-2.32 16.49-8.35 19.44-9.62z" fill="url(#b)"/><path d="M30.67 93.7s7.48 12.23 28.63 12.37 41.58-8.06 47.76-14.82c6.19-6.76-68.48-9.49-73.66-8.34S30.67 93.7 30.67 93.7z" fill="#435c00"/><linearGradient id="c" gradientUnits="userSpaceOnUse" x1="47.795" x2="120.218" y1="89.985" y2="89.985"><stop offset=".051" stop-color="#476b00"/></linearGradient><path d="M90.09 93.41c-3.74-1.15-7.19-2.88-10.93-4.32-5.47-1.44-10.65-3.45-16.4-4.89-4.87-1.06-9.58-1.8-14.37-1.55-.8 1.76-.94 3.77.58 4.9.83.62 1.84.84 2.82 1.05 11.46 2.43 22.92 4.87 34.37 7.3 3.41.73 6.85 1.45 10.32 1.45 2.03 0 4.05-.26 6.05-.63 2.69-.5 5.36-1.22 7.93-2.29 2.58-1.07 5.04-2.49 7.32-4.23 1.01-.77 2.06-1.77 2.44-3.02-7.47 7.47-19.65 9.5-30.13 6.23z" fill="url(#c)"/><linearGradient id="d" gradientUnits="userSpaceOnUse" x1="48.381" x2="120.367" y1="86.481" y2="86.481"><stop offset="0" stop-color="#5c8c00"/></linearGradient><path d="M118.17 82.67c-3.14-2.3-6.98-2.9-10.69-3.32-5.41-.62-10.84-.98-16.27-1.16-9.59-.32-19.19-.07-28.78.35-3.35.15-8.66-.79-11.68 1.16-.89.57-1.8 1.7-2.37 2.96 4.79-.25 9.5.49 14.37 1.55 5.75 1.44 10.93 3.45 16.4 4.89 3.74 1.44 7.19 3.16 10.93 4.32 10.49 3.26 22.67 1.24 30.13-6.22.11-.35.16-.72.15-1.11-.06-1.47-1.11-2.62-2.19-3.42z" fill="url(#d)"/><linearGradient id="e" gradientUnits="userSpaceOnUse" x1="42.01" x2="40.284" y1="73.761" y2="95.245"><stop offset="0" stop-color="#6aa000"/></linearGradient><path d="M50.9 78.7c.69.15 1.48.36 1.8.99.19.36.17.8.13 1.2-.2 1.87-.88 3.64-1.56 5.39-.66 1.7-1.32 3.41-1.99 5.11-.31.8-.64 1.63-1.29 2.19-.65.57-1.53.78-2.37.97-5.09 1.18-10.19 2.35-15.28 3.53-.28.06-.86-7.38-.87-8.09-.01-2.83.27-5.66.84-8.43.35-1.67.67-5.41 2.52-6.11 1.96-.74 5.95.84 7.97 1.23 3.38.65 6.74 1.32 10.1 2.02z" fill="url(#e)"/><radialGradient id="f" cx="25.061" cy="79.603" gradientUnits="userSpaceOnUse" r="18.197"><stop offset="0" stop-color="#d4e500"/></radialGradient><path d="M22.41 94.39c.69 1.85 1.61 3.68 3.13 4.94.77.63 1.7 1.11 2.7 1.15 1.94.08 3.54-1.46 4.71-3.01 3.11-4.15 4.91-9.28 5.06-14.46.04-1.25-.02-2.52-.42-3.71-.83-2.47-3.1-4.3-5.62-4.97-3.55-.95-8.55-.47-10.35 3.11-2.48 4.96-1.06 12.01.79 16.95z" fill="url(#f)"/><linearGradient id="g" gradientUnits="userSpaceOnUse" x1="40.338" x2="40.338" y1="91.112" y2="123.644"><stop offset="0" stop-color="#4a7000"/></linearGradient><path d="M41.42 102.75c.1.24-.22.91-.29 1.13-.26.87-.53 1.73-.8 2.59-.68 2.2-1.36 4.41-1.92 6.65-.23.93-.49 1.9-.54 2.86-.1 1.88.56 3.92 1.4 5.58.58 1.14 2 2.06 2.9.6.38-.62.39-1.39.32-2.11-.08-.89-.27-1.78-.56-2.63-.26-.78-.88-1.58-1.02-2.38-.07-.38.05-.82.11-1.19.28-1.88.65-3.75 1-5.62.25-1.32.5-2.63.74-3.95.11-.61.37-1.36.33-1.99-.02-.33-2.02-9.95-2.34-10.02-2.72-.58-3.82.65-2.76 2.44 1.42 2.4 2.33 5.47 3.43 8.04z" fill="url(#g)"/><linearGradient id="h" gradientUnits="userSpaceOnUse" x1="61.715" x2="122.679" y1="94.238" y2="94.238"><stop offset="0" stop-color="#609100"/></linearGradient><path d="M122.29 109.68c-.23-.64-.52-1.31-1.09-1.66-.04-.02-.07-.04-.11-.06-.09-.07-.19-.13-.28-.16-2.52-1.01-8.74.5-10.14-2.37-1.02-2.08-.77-15.39-6.11-25.97-.44-.88-1.21-1.91-1.85-2.66-.64-.75-1.72-1.21-2.64-.85-.59.24-1.01.76-1.43 1.24-3.4 3.82-8.65 5.26-13.53 6.78-5.93 1.85-11.73 4.08-17.38 6.66-1.54.71-3.1 1.46-4.3 2.66-1.2 1.2-1.98 2.94-1.62 4.59.86 3.89 6.6 5.29 9.95 4.49 4.71-1.12 9.04-3.56 12.93-6.37 4.54-3.28 15.43-14.55 15.61-14.18.24.48.47.97.69 1.46 1.93 4.3 3.28 8.85 4.57 13.38.66 2.31 1.29 4.62 1.94 6.93.3 1.07.61 2.14.92 3.21.25.83.39 2.27 1.25 2.68.32.15.68.2 1.03.24 1.88.24 3.77.48 5.65.71.84.11 1.64.36 2.5.31.48-.03.96-.13 1.42-.3.06.07.13.14.19.22.52.61 1.05 1.21 1.57 1.82.09.1.22.21.33.14.04-.03.07-.08.09-.12.43-.87.16-1.91-.16-2.82z" fill="url(#h)"/><linearGradient id="i" gradientUnits="userSpaceOnUse" x1="59.485" x2="75.022" y1="95.238" y2="124.873"><stop offset="0" stop-color="#6ca300"/></linearGradient><path d="M86.73 117.68c-.04-.36-.08-.69-.1-.74-.47-1.7-3.01-2.23-4.49-2.55-1.17-.26-2.36-.44-3.56-.54 0 0-2.57-10.65-3.2-12.68-.53-1.7-1.11-3.63-2.29-5-1.85-2.14-5.03-1.76-7.59-1.68-4.16.14-8.31.73-12.36 1.7-1.33.32-2.92.74-4.1 1.58-.77.54-1.37 1.25-1.63 2.21-.36 1.35-.24 2.94 1.14 3.64.88.44 1.96.43 2.92.34 3.35-.34 6.67-.98 9.85-2.11 2.99-1.07 5.66-2.68 8.33-4.37.39-.24.96-.68 1.46-.6.63.1 6.69 19.78 6.69 19.78l7.09.76c.35.33.71.65 1.06.98.23.21.49.44.8.45.08-.01.03-.64-.02-1.17z" fill="url(#i)"/><circle cx="31.93" cy="82.27" r="4.8" fill="#fff"/><ellipse cx="31.93" cy="82.27" rx="2.19" ry="2.19" transform="rotate(-32.828 31.931 82.271)"/></g></svg>