<?xml version="1.0" encoding="utf-8"?>
<!-- Generator: Adobe Illustrator 16.0.0, SVG Export Plug-In . SVG Version: 6.00 Build 0)  -->
<!DOCTYPE svg PUBLIC "-//W3C//DTD SVG 1.1//EN" "http://www.w3.org/Graphics/SVG/1.1/DTD/svg11.dtd">
<svg version="1.1" id="レイヤー_1" xmlns="http://www.w3.org/2000/svg" xmlns:xlink="http://www.w3.org/1999/xlink" x="0px"
	 y="0px" width="128px" height="128px" viewBox="0 0 128 128" enable-background="new 0 0 128 128" xml:space="preserve">
<g>
	<path fill="#2F2F2F" d="M62.926,99.532c0,0,6.059-1.424,9.837-5.197l-27.57-29.897l-9.148,5.225l2.182,23.221l17.552,7.111
		L62.926,99.532z"/>
	<g>
		<path fill="#F48120" d="M49.121,100.784c-0.631,0.086-0.69,0.227-0.604,0.78c0.585,3.747,0.045,7.874-3.706,9.583
			c-1.188,0.549-2.458,0.848-3.728,1.102c-1.506,0.29-3.012,0.521-3.674,2.136c-1.361,3.288,2.322,2.716,4.245,2.594
			c2.966-0.187,6.467-1.129,8.857-2.921c1.551-1.175,2.114-2.961,2.136-4.821c0.027-2.268,0.576-4.708,0.979-6.921
			c0.118-0.653,0.54-1.474,0.413-2.145c-0.884,0.213-1.755,0.503-2.653,0.667C50.608,100.983,49.932,100.685,49.121,100.784z"/>
		<path fill="#F48120" d="M64.341,111.759c0.726-2.812,0.363-5.914-0.2-8.726c-0.1-0.49-0.217-0.979-0.322-1.47
			c-0.095-0.417-0.213-0.816-0.268-1.238c-0.1-0.739-0.73-0.966-1.356-0.857c-0.485,0.081-1.002,0.09-1.497,0.154
			c-0.521,0.063-1.428,0.072-1.782,0.517c-0.276,0.335,0.118,0.834,0.2,1.188c0.109,0.518,0.231,1.057,0.286,1.583
			c0.114,1.093,0.114,2.19,0.004,3.288c-0.231,2.245-0.961,4.403-1.832,6.471c-0.594,1.375-1.597,2.563-2.15,3.924
			c-1.125,2.752,4.2,2.685,5.62,2.217c1.601-0.535,1.991-2.1,2.313-3.56C63.615,114.082,64.032,112.92,64.341,111.759z"/>
		<g>
			<defs>
				<path id="SVGID_1_" d="M111.749,41.566c-4.703-1.116-9.366-2.989-14.386-3.447c-7.533-0.694-10.159,2.581-14.954,7.556
					c-2.526,2.617-4.707,7.9-8.376,9.039c-4.349,1.351-9.075-3.084-11.642-6.05c-3.719-4.317-5.479-9.814-8.155-14.753
					c-2.68-4.948-7.506-9.306-12.762-11.37c-3.139-1.229-6.912-1.683-10.277-1.474c-5.043,0.313-9.951,2.199-14.055,5.134
					c-11.161,7.96-11.86,22.59-6.73,34.301c4.376,10.032,1.161,22.359,9.062,30.908c8.068,8.749,21.719,11.86,33.185,10.622
					c2.925-0.313,5.795-0.975,8.576-1.923c0.558-0.19,1.129-0.386,1.691-0.576c-1.143-0.408-2.249-0.971-3.175-1.433
					c-4.879-2.481-9.043-6.177-12.073-10.735c-1.81-2.712-3.447-5.574-4.544-8.654c-0.553-1.601-0.994-3.297-1.17-4.984
					c-0.082-0.78-0.182-1.778,0.208-2.513c0.771-1.442,1.596,0.172,1.769,0.93c1.877,8.513,7.229,16.255,14.812,20.645
					c2.268,1.311,4.658,2.408,7.148,3.234c3.392,1.115,7.129,1.864,10.663,1.025c3.986-0.953,5.605-4.427,9.138-6.091
					c1.469-0.694,2.485-1.247,3.434-2.635c0.421-0.617,0.802-1.229,1.401-1.692c0.59-0.476,1.325-0.535,1.877-1.075
					c0.503-0.499,0.875-1.207,1.053-1.887c0.126-0.463,0.272-0.807,0.082-1.279c-0.272-0.689-1.052-1.106-1.587-1.569
					c-1.746-1.542-3.51-1.941-1.215-3.877c2.281-1.887,4.717-3.561,7.247-5.084c1.996-1.202,3.824-2.567,5.837-3.76
					c4.5-2.671,8.967-5.419,13.633-7.787c3.434-1.742,8.513-3.583,9.33-7.883C127.763,47.24,115.753,42.515,111.749,41.566z"/>
			</defs>
			<use xlink:href="#SVGID_1_"  overflow="visible" fill="#37B4E2"/>
			<clipPath id="SVGID_2_">
				<use xlink:href="#SVGID_1_"  overflow="visible"/>
			</clipPath>
		</g>
		<g>
			<g>
				<g>
					<g>
						<path fill="#2F2F2F" d="M26.476,42.283c-1.329,1.963-0.998,4.767,0.721,6.281c1.742,1.497,4.208,1.143,5.538-0.812
							c1.315-1.963,0.993-4.785-0.73-6.291C30.271,39.966,27.795,40.329,26.476,42.283z"/>
					</g>
				</g>
			</g>
		</g>
		<path fill="#F48120" d="M10.339,45.689c-0.912,0.019-1.864,0.762-2.567,1.261c-1.193,0.853-2.3,1.832-3.325,2.875
			c-0.971,0.989-1.914,2.05-2.603,3.247c-0.689,1.161-1.225,2.259,0.236,2.93c1.515,0.694,3.175,0.689,4.798,0.871
			c1.678,0.19,3.37,0.322,5.062,0.399c1.424,0.059,3.138,0.308,4.503-0.172c0.885-0.309,0.622-1.116,0.503-1.819
			c-0.195-1.043-0.753-1.973-1.161-2.939c-0.853-2.027-2.567-6.553-5.292-6.653C10.443,45.689,10.38,45.689,10.339,45.689z"/>
	</g>
</g>
</svg>
