<?xml version="1.0" encoding="UTF-8" standalone="no"?>
<svg
   xmlns:dc="http://purl.org/dc/elements/1.1/"
   xmlns:cc="http://creativecommons.org/ns#"
   xmlns:rdf="http://www.w3.org/1999/02/22-rdf-syntax-ns#"
   xmlns:svg="http://www.w3.org/2000/svg"
   xmlns="http://www.w3.org/2000/svg"
   xmlns:sodipodi="http://sodipodi.sourceforge.net/DTD/sodipodi-0.dtd"
   xmlns:inkscape="http://www.inkscape.org/namespaces/inkscape"
   width="128"
   height="128"
   style="enable-background:new 0 0 128 128;"
   version="1.1"
   id="svg36"
   sodipodi:docname="emoji_u1f98a.svg"
   inkscape:version="0.92+devel unknown">
  <metadata
     id="metadata42">
    <rdf:RDF>
      <cc:Work
         rdf:about="">
        <dc:format>image/svg+xml</dc:format>
        <dc:type
           rdf:resource="http://purl.org/dc/dcmitype/StillImage" />
      </cc:Work>
    </rdf:RDF>
  </metadata>
  <defs
     id="defs40" />
  <sodipodi:namedview
     pagecolor="#ffffff"
     bordercolor="#666666"
     inkscape:document-rotation="0"
     borderopacity="1"
     objecttolerance="10"
     gridtolerance="10"
     guidetolerance="10"
     inkscape:pageopacity="0"
     inkscape:pageshadow="2"
     inkscape:window-width="1680"
     inkscape:window-height="986"
     id="namedview38"
     showgrid="false"
     inkscape:zoom="2.7226563"
     inkscape:cx="-20.9881"
     inkscape:cy="63.938211"
     inkscape:window-x="0"
     inkscape:window-y="27"
     inkscape:window-maximized="1"
     inkscape:current-layer="svg36" />
  <style
     type="text/css"
     id="style2">
.st0{fill:#FE9040;}
.st1{fill:#FAFAFA;}
.st2{fill:#2F2F2F;}
.st3{fill:#FFE0B2;}
.st4{fill:none;stroke:#2F2F2F;stroke-width:3;stroke-miterlimit:10;}
.st5{fill:none;stroke:#2F2F2F;stroke-width:3;stroke-linecap:round;stroke-miterlimit:10;}
.st6{fill:#E1E1E1;}
  </style>
  <path
     inkscape:connector-curvature="0"
     id="path4"
     d="m 122.7,71.1 c -2.2,-2.3 -4.6,-3.6 -6.3,-4.3 -0.9,-0.4 1.9,-0.2 4.1,-1.3 0.7,-0.4 1.3,-0.9 1.6,-1.4 0.5,-0.6 0.1,-1.6 -0.7,-1.6 -0.9,0 -2.1,-0.2 -3.1,-0.6 C 115.8,60.9 115,59 115,59 v -0.8 c 0,0 5.3,-10.2 6.4,-25.4 C 122.5,17.6 117.3,4.3 113.7,2.5 110.1,0.8 102.3,2.2 93.5,9.3 86.7,14.8 81.3,21.5 80,24.5 79.8,25 79.2,25.2 78.7,25 77,24.3 72.2,23 64.5,22.9 v 0 0 c 0,0 -0.1,0 -0.1,0 -0.1,0 -0.2,0 -0.3,0 v 0 c 0,0 -0.1,0 -0.1,0 0,0 -0.1,0 -0.1,0 v 0 c -0.1,0 -0.2,0 -0.3,0 0,0 -0.1,0 -0.1,0 v 0 0 C 55.8,23 51,24.3 49.3,25 48.8,25.2 48.2,25 48,24.5 46.6,21.5 41.3,14.8 34.6,9.4 25.8,2.3 18,0.9 14.3,2.6 10.7,4.3 5.5,17.6 6.6,32.9 7.7,48.1 13,58.3 13,58.3 v 0.8 c 0,0 -0.8,1.9 -3.3,2.9 -1,0.4 -2.2,0.5 -3.1,0.6 -0.8,0 -1.2,1 -0.7,1.6 0.4,0.5 0.9,1 1.6,1.4 2.1,1.1 4.9,0.9 4.1,1.3 -1.7,0.7 -4.1,2 -6.3,4.3 -2.2,2.2 -3.1,5.8 -3.3,8.4 -0.1,0.8 0.8,1.3 1.5,1 1.5,-0.8 3.9,-1.8 6.3,-1.7 3.9,0.1 8.9,6.6 11.2,11.1 2.3,4.4 26.8,29 42.5,30.1 v 0.1 0 c 0,0 0.1,0 0.1,0 0.1,0 0.2,0 0.3,0 v 0 c 0,0 0.1,0 0.1,0 0,0 0.1,0 0.1,0 v 0 c 0.1,0 0.2,0 0.3,0 0,0 0.1,0 0.1,0 v 0 -0.2 c 15.7,-1 40.2,-25.7 42.5,-30.1 2.4,-4.5 7.4,-11 11.2,-11.1 2.4,-0.1 4.8,0.9 6.3,1.7 0.7,0.4 1.5,-0.2 1.5,-1 -0.2,-2.5 -1.1,-6.1 -3.3,-8.4 z"
     class="st0" />
  <path
     inkscape:connector-curvature="0"
     id="path6"
     d="m 123.8,87.9 c -2.9,-4 -7.3,-4.3 -7.3,-4.3 0.5,-0.4 1.2,-0.6 1.9,-0.6 0.8,-0.1 1.2,-1.1 0.6,-1.7 -1.1,-1.1 -2.4,-1.5 -2.9,-1.7 -0.1,0 -0.3,-0.1 -0.4,-0.2 C 103,67.2 68.2,96.4 64.3,99.7 64.2,99.8 64,99.9 63.8,100.1 63.7,100 63.5,99.8 63.4,99.7 59.6,96.4 24.7,67.3 12,79.4 c -0.1,0.1 -0.2,0.2 -0.4,0.2 -0.5,0.1 -1.8,0.6 -2.9,1.7 -0.6,0.6 -0.2,1.6 0.6,1.7 0.7,0.1 1.4,0.3 1.9,0.6 0,0 -4.4,0.3 -7.3,4.3 -0.5,0.7 0,1.6 0.8,1.6 1.9,-0.1 4.9,0.4 6.8,3.2 3.1,4.5 4.9,9.2 11.8,13.2 7.2,4.1 11.5,4.9 18.8,9.3 6.7,4 12,10.7 21.3,10.9 v 0 c 0.1,0 0.1,0 0.2,0 0.1,0 0.1,0 0.2,0 v 0 c 9.3,-0.2 14.8,-6.8 21.5,-10.9 7.4,-4.4 11.7,-5.2 18.8,-9.3 6.9,-4 8.7,-8.7 11.8,-13.2 1.9,-2.8 4.9,-3.3 6.8,-3.2 1.1,0 1.6,-0.9 1.1,-1.6 z"
     class="st0" />
  <path
     inkscape:connector-curvature="0"
     id="path8"
     d="m 119.6,86.2 c -1,-0.6 -2.2,-1.1 -3.6,-1.2 -1,-0.1 -1.9,-0.1 -2.7,0 -1.1,0.2 -1.6,-1.3 -0.6,-1.9 0.1,-0.1 0.2,-0.1 0.3,-0.2 0.2,-0.1 0.4,-0.2 0.6,-0.2 1,-0.3 0.9,-1.7 -0.1,-1.9 -1.5,-0.3 -3.4,-0.4 -5.4,0.2 -3,0.8 -5.4,2.9 -6,3 -1.3,0.2 -1,-1 -1,-1 0,0 0.2,-1 1.6,-2.1 0.8,-0.6 0.2,-1.9 -0.7,-1.8 -2.3,0.2 -5.2,0.7 -7.8,1.9 -6.5,2.8 -15.6,9.3 -22.4,15.9 -2.7,2.6 -6,3.6 -7.6,3.9 -1.7,-0.3 -5,-1.3 -7.5,-3.9 C 50,90.1 40.5,83.8 34,80.9 31.4,79.8 28.5,79.3 26.2,79 c -1,-0.1 -1.5,1.1 -0.7,1.8 1.3,1.1 1.6,2.1 1.6,2.1 0,0 0.3,1.2 -1,1 -0.6,-0.1 -3,-2.2 -6,-3 -2,-0.5 -3.9,-0.4 -5.4,-0.2 -1,0.2 -1.1,1.6 -0.1,1.9 0.2,0.1 0.4,0.2 0.6,0.2 0.1,0.1 0.2,0.1 0.3,0.2 1,0.6 0.5,2 -0.6,1.9 -0.8,-0.1 -1.7,-0.2 -2.7,0 -1.4,0.2 -2.6,0.7 -3.6,1.2 -0.8,0.5 -0.6,1.7 0.3,1.8 0.7,0.2 1.5,0.4 2.3,0.9 4.5,2.7 5.2,8.2 10.4,12.5 7.2,6 17.7,7.2 27,14.8 8.6,7 12.5,7.7 15.1,7.7 v 0 c 0,0 0,0 0,0 0.2,0 0.4,0 0.6,0 v 0 c 2.6,-0.1 6.8,-0.7 15.4,-7.7 9.3,-7.6 19.8,-8.9 27,-14.8 5.2,-4.3 5.9,-9.7 10.4,-12.5 0.8,-0.5 1.6,-0.8 2.3,-0.9 0.8,-0.1 1,-1.3 0.2,-1.7 z"
     class="st1" />
  <path
     inkscape:connector-curvature="0"
     id="path10"
     d="m 64,93.8 c -5.2,0 -9.3,2 -8.7,5.1 0.8,3.7 5.5,6.9 8.8,6.9 3.2,0 7.7,-3 8.5,-6.9 0.6,-2.6 -3,-5.1 -8.6,-5.1 z"
     class="st2" />
  <path
     inkscape:connector-curvature="0"
     id="path18"
     d="m 16.2,7.1 c 1.8,-2 9,0.8 17.1,12.8 4.2,6.2 4.7,14.4 4.7,14.4 0,0 -1.9,-2.8 -5.7,-2.3 -0.3,0 -0.6,0.4 -0.4,0.7 0.5,1.2 1.6,4.2 0.5,5.9 0,0 -1.4,-4 -6.4,-3.7 -0.4,0 -0.6,0.5 -0.4,0.8 0.8,1.1 2.3,3.5 2.7,6.3 0,0 -2,-0.1 -3.9,-2 -0.3,-0.3 -0.8,-0.1 -0.9,0.3 -0.1,1.2 0.1,3 1.1,4.2 0,0 -0.8,0.4 -1.8,-0.1 -0.4,-0.2 -0.8,0.1 -0.7,0.5 0.1,0.6 0.2,1.4 0.6,2.1 0,0 -0.5,0.2 -1.4,-0.1 -0.3,-0.1 -0.6,0 -0.7,0.4 -0.1,0.5 -0.2,1.2 0,1.7 0,0 -2.2,3.5 -5,8.1 0,0 -5.8,-9.3 -5.8,-26 0.2,-14.7 3.5,-20.9 6.4,-24 z"
     class="st3" />
  <path
     inkscape:connector-curvature="0"
     id="path20"
     d="m 111.8,7.1 c -1.8,-2 -9,0.8 -17.1,12.8 -4.2,6.3 -4.7,14.4 -4.7,14.4 0,0 1.9,-2.8 5.7,-2.3 0.3,0 0.6,0.4 0.4,0.7 -0.5,1.2 -1.6,4.2 -0.5,5.9 0,0 1.4,-4 6.4,-3.7 0.4,0 0.6,0.5 0.4,0.8 -0.8,1.1 -2.3,3.5 -2.7,6.3 0,0 2,-0.1 3.9,-2 0.3,-0.3 0.8,-0.1 0.9,0.3 0.1,1.2 -0.1,3 -1.1,4.2 0,0 0.8,0.4 1.8,-0.1 0.4,-0.2 0.8,0.1 0.7,0.5 -0.1,0.6 -0.2,1.4 -0.6,2.1 0,0 0.5,0.2 1.4,-0.1 0.3,-0.1 0.6,0 0.7,0.4 0.1,0.5 0.2,1.2 0,1.7 0,0 2.2,3.5 5,8.1 0,0 5.8,-9.3 5.8,-26 -0.2,-14.7 -3.5,-20.9 -6.4,-24 z"
     class="st3" />
  <line
     id="line22"
     y2="103.9"
     y1="110.8"
     x2="64.099998"
     x1="64.099998"
     class="st4" />
  <path
     inkscape:connector-curvature="0"
     id="path24"
     d="M 49.582915,111.5978 C 53.617191,114.1952 59.2,115.8 64.2,110"
     class="st5"
     sodipodi:nodetypes="cc" />
  <path
     inkscape:connector-curvature="0"
     id="path28"
     d="m 59.7,114.9315 c 0,0 1.9,-0.8 4.5,-0.8 2.6,0 4.8,0.9 4.8,0.9 l -4.8,-4.5 z"
     class="st2" />
  <path
     sodipodi:nodetypes="cc"
     class="st5"
     d="M 78.817085,111.5978 C 74.782809,114.1952 69.2,115.8 64.2,110"
     id="path4316"
     inkscape:connector-curvature="0" />
  <path
     d="m 43.312996,55.372211 c -3.870501,-0.03134 -7.020179,3.61978 -7.035849,8.117082 -0.01567,4.512972 3.102668,8.179762 6.973169,8.211103 3.83916,0.01567 7.020179,-3.60411 7.035849,-8.132753 0.03134,-4.481632 -3.102668,-8.179762 -6.973169,-8.195432 z"
     style="fill:#2f2f2f;stroke-width:1"
     id="path12"
     inkscape:connector-curvature="0" />
  <path
     d="m 84.671334,55.372211 c -3.854831,0.01567 -6.98884,3.7138 -6.941829,8.195432 0,4.528643 3.181018,8.148423 7.020179,8.132753 3.8705,-0.03134 6.988839,-3.698131 6.973169,-8.211103 -0.03134,-4.481632 -3.181019,-8.132752 -7.051519,-8.117082 z"
     style="fill:#2f2f2f;stroke-width:1"
     id="path14"
     inkscape:connector-curvature="0" />
</svg>
