<?xml version="1.0" encoding="utf-8"?>
<!-- Generator: Adobe Illustrator 19.2.1, SVG Export Plug-In . SVG Version: 6.00 Build 0)  -->
<svg version="1.1" id="レイヤー_1" xmlns="http://www.w3.org/2000/svg" xmlns:xlink="http://www.w3.org/1999/xlink" x="0px"
	 y="0px" viewBox="0 0 128 128" style="enable-background:new 0 0 128 128;" xml:space="preserve">
<path style="fill:#006CA2;" d="M127.99,115.89c0,6.65-5.44,12.1-12.1,12.1H12.1c-6.65,0-12.1-5.44-12.1-12.1V12.1
	C0,5.44,5.44,0,12.1,0h103.8c6.65,0,12.1,5.44,12.1,12.1V115.89z"/>
<g>
	<g>
		<g>
			<circle style="fill:#F3BC2D;" cx="36.61" cy="124.56" r="1.52"/>
			<path style="fill:#F3BC2D;" d="M54.88,102.65c-1.4,0-2.53,1.13-2.53,2.53c0,1.4,1.12,2.53,2.53,2.53c1.39,0,2.53-1.13,2.53-2.53
				C57.4,103.78,56.27,102.65,54.88,102.65z"/>
			<path style="fill:#F3BC2D;" d="M58.88,44.78c1.4,0,2.53-1.13,2.53-2.52s-1.13-2.53-2.53-2.53c-1.39,0-2.53,1.13-2.53,2.53
				S57.49,44.78,58.88,44.78z"/>
			<path style="fill:#F3BC2D;" d="M61.41,11.92c1.39,0,2.53-1.13,2.53-2.53c0-1.4-1.13-2.53-2.53-2.53c-1.4,0-2.53,1.13-2.53,2.53
				C58.88,10.78,60.01,11.92,61.41,11.92z"/>
			<path style="fill:#F3BC2D;" d="M119,24.26c1.4,0,2.53-1.13,2.53-2.53s-1.13-2.53-2.53-2.53c-1.39,0-2.52,1.13-2.52,2.53
				S117.61,24.26,119,24.26z"/>
			<ellipse style="fill:#F3BC2D;" cx="94.52" cy="70.94" rx="2.53" ry="2.53"/>
			<path style="fill:#F3BC2D;" d="M14.42,72.6c1.4,0,2.53-1.13,2.53-2.52c0-1.4-1.13-2.53-2.53-2.53c-1.39,0-2.53,1.13-2.53,2.53
				C11.9,71.48,13.03,72.6,14.42,72.6z"/>
			<path style="fill:#F3BC2D;" d="M33.97,75.99c1.39,0,2.53-1.13,2.53-2.52s-1.13-2.53-2.53-2.53c-1.4,0-2.53,1.13-2.53,2.53
				S32.57,75.99,33.97,75.99z"/>
			<path style="fill:#F3BC2D;" d="M86.19,80.53c0-1.4-1.13-2.53-2.53-2.53c-1.4,0-2.53,1.13-2.53,2.53c0,1.4,1.12,2.52,2.53,2.52
				C85.05,83.06,86.19,81.93,86.19,80.53z"/>
			<path style="fill:#F3BC2D;" d="M45.92,118.35c-1.39,0-2.53,1.13-2.53,2.53c0,1.4,1.13,2.53,2.53,2.53c1.4,0,2.52-1.13,2.52-2.53
				C48.44,119.48,47.32,118.35,45.92,118.35z"/>
			<ellipse style="fill:#F3BC2D;" cx="86.19" cy="100.9" rx="2.52" ry="2.53"/>
			<circle style="fill:#F3BC2D;" cx="94.52" cy="82.26" r="1.52"/>
			<path style="fill:#F3BC2D;" d="M56.99,51.49c0,0.84,0.68,1.52,1.53,1.52c0.83,0,1.52-0.68,1.52-1.52c0-0.84-0.68-1.52-1.52-1.52
				C57.67,49.97,56.99,50.66,56.99,51.49z"/>
			<circle style="fill:#F3BC2D;" cx="66.74" cy="44.78" r="1.52"/>
			<circle style="fill:#F3BC2D;" cx="121.53" cy="53.02" r="1.52"/>
			<circle style="fill:#F3BC2D;" cx="79.61" cy="110.47" r="1.52"/>
			<circle style="fill:#F3BC2D;" cx="44.85" cy="56.27" r="1.52"/>
			<path style="fill:#F3BC2D;" d="M59.89,18.1c0,0.84,0.68,1.52,1.52,1.52c0.83,0,1.52-0.68,1.52-1.52c0-0.84-0.68-1.52-1.52-1.52
				C60.57,16.58,59.89,17.27,59.89,18.1z"/>
			<circle style="fill:#F3BC2D;" cx="121.53" cy="13.01" r="1.52"/>
			<path style="fill:#F3BC2D;" d="M63.97,107.43c-0.83,0-1.52,0.68-1.52,1.52c0,0.84,0.68,1.52,1.52,1.52
				c0.84,0,1.53-0.68,1.53-1.52C65.49,108.11,64.81,107.43,63.97,107.43z"/>
			<circle style="fill:#F3BC2D;" cx="6.26" cy="102.65" r="1.52"/>
			<path style="fill:#F3BC2D;" d="M6.26,72.6c0-0.84-0.68-1.52-1.52-1.52c-0.84,0-1.53,0.68-1.53,1.52c0,0.84,0.68,1.52,1.53,1.52
				C5.57,74.13,6.26,73.45,6.26,72.6z"/>
			<path style="fill:#F3BC2D;" d="M31.43,82.26c0.84,0,1.53-0.68,1.53-1.52c0-0.84-0.68-1.52-1.53-1.52c-0.83,0-1.52,0.68-1.52,1.52
				C29.92,81.57,30.6,82.26,31.43,82.26z"/>
			<circle style="fill:#F3BC2D;" cx="26.64" cy="70.08" r="1.52"/>
		</g>
		<path style="fill:#F3BC2D;" d="M61.61,73.9l-3.17,0.84c-0.57,0.15-1.21,0.76-1.4,1.34l-0.98,3.24c-0.09,0.32-0.26,0.49-0.45,0.49
			c-0.15,0-0.32-0.12-0.47-0.35l-1.83-2.84c-0.3-0.49-1.03-0.89-1.62-0.89l-0.08,0l-3.36,0.1H48.2c-0.57,0-0.74-0.37-0.38-0.84
			l2.11-2.66c0.39-0.48,0.54-1.35,0.32-1.9l-1.11-3.09c-0.16-0.45-0.01-0.74,0.34-0.74l0.33,0.07l3.15,1.13
			c0.18,0.07,0.41,0.1,0.63,0.1c0.47,0,0.98-0.14,1.31-0.4l2.59-1.95l0.44-0.18c0.26,0,0.42,0.23,0.4,0.62l-0.11,3.25
			c-0.03,0.61,0.35,1.4,0.85,1.75l2.72,1.95C62.29,73.32,62.2,73.76,61.61,73.9z"/>
		<path style="fill:#F3BC2D;" d="M78.81,68.45l-0.66,2.16c-0.07,0.22-0.17,0.33-0.3,0.33l-0.32-0.23l-1.22-1.89
			c-0.21-0.33-0.69-0.6-1.08-0.6l-0.05,0l-2.24,0.07h-0.02c-0.39,0-0.51-0.24-0.26-0.56l1.41-1.77c0.26-0.32,0.35-0.9,0.21-1.27
			l-0.74-2.06c-0.11-0.3,0-0.5,0.23-0.5l0.22,0.05l2.1,0.75L76.5,63c0.32,0,0.65-0.1,0.88-0.27l1.73-1.3l0.29-0.12
			c0.17,0,0.28,0.15,0.27,0.42l-0.08,2.17c-0.02,0.41,0.23,0.94,0.57,1.17l1.82,1.3c0.33,0.23,0.28,0.53-0.12,0.63l-2.11,0.56
			C79.36,67.65,78.94,68.06,78.81,68.45z"/>
		<path style="fill:#F3BC2D;" d="M124.6,36.91l-1.63,1.45c-0.3,0.26-0.49,0.82-0.42,1.22l0.38,2.23c0.06,0.29-0.04,0.45-0.22,0.45
			l-0.28-0.09l-1.94-1.14c-0.18-0.11-0.43-0.16-0.67-0.16c-0.22,0-0.44,0.05-0.62,0.15l-1.97,1.08l-0.27,0.08
			c-0.19,0-0.29-0.16-0.23-0.45l0.45-2.22c0.08-0.4-0.09-0.96-0.39-1.23l-1.58-1.5c-0.3-0.27-0.21-0.55,0.19-0.6l2.22-0.28
			c0.41-0.05,0.88-0.39,1.07-0.76l0.95-1.94l0.32-0.27l0.31,0.28l0.92,1.97c0.17,0.37,0.63,0.73,1.04,0.78l2.2,0.34
			C124.82,36.35,124.91,36.64,124.6,36.91z"/>
		<path style="fill:#F3BC2D;" d="M91.34,44.47l-3.16,0.84c-0.58,0.14-1.22,0.76-1.4,1.34l-0.99,3.25c-0.09,0.33-0.26,0.49-0.44,0.49
			c-0.16,0-0.32-0.11-0.47-0.35l-1.83-2.84c-0.3-0.49-1.03-0.89-1.62-0.89h-0.07l-3.37,0.11h-0.04c-0.58,0-0.75-0.37-0.38-0.84
			l2.1-2.66c0.39-0.48,0.53-1.35,0.32-1.91l-1.11-3.08c-0.16-0.45-0.01-0.74,0.34-0.74l0.33,0.07l3.16,1.13
			c0.18,0.07,0.4,0.1,0.62,0.1c0.48,0,0.98-0.15,1.33-0.4l2.58-1.95l0.44-0.17c0.26,0,0.42,0.23,0.4,0.62l-0.11,3.25
			c-0.03,0.61,0.35,1.4,0.86,1.76l2.71,1.94C92.02,43.88,91.94,44.32,91.34,44.47z"/>
		<path style="fill:#F3BC2D;" d="M111.79,55.82l-3.16,0.84c-0.58,0.15-1.22,0.76-1.4,1.34l-0.98,3.24c-0.1,0.33-0.27,0.49-0.45,0.49
			c-0.16,0-0.32-0.12-0.47-0.35l-1.83-2.84c-0.31-0.49-1.03-0.89-1.63-0.89l-0.07,0l-3.37,0.1H98.4c-0.58,0-0.76-0.36-0.38-0.84
			l2.11-2.66c0.38-0.48,0.52-1.35,0.31-1.9l-1.11-3.09c-0.16-0.45-0.01-0.74,0.34-0.74L100,48.6l3.15,1.13
			c0.18,0.07,0.4,0.1,0.63,0.1c0.47,0,0.98-0.14,1.32-0.4l2.59-1.95l0.44-0.18c0.25,0,0.42,0.23,0.4,0.62l-0.12,3.25
			c-0.03,0.61,0.36,1.4,0.86,1.75l2.72,1.95C112.47,55.23,112.39,55.67,111.79,55.82z"/>
		<path style="fill:#F3BC2D;" d="M75.14,19.01l2.11-2.66c0.38-0.48,0.53-1.35,0.31-1.91l-1.11-3.08c-0.16-0.45,0-0.74,0.35-0.74
			l0.33,0.07l3.15,1.13c0.18,0.07,0.4,0.1,0.62,0.1c0.48,0,0.98-0.14,1.32-0.4l2.59-1.95l0.44-0.18c0.25,0,0.42,0.22,0.39,0.62
			l-0.11,3.25c-0.03,0.61,0.36,1.4,0.86,1.75l2.72,1.94c0.49,0.35,0.41,0.79-0.19,0.94l-3.16,0.84c-0.57,0.14-1.22,0.76-1.4,1.34
			l-0.98,3.25c-0.1,0.33-0.27,0.49-0.45,0.49c-0.16,0-0.33-0.12-0.48-0.35l-1.83-2.84c-0.31-0.49-1.03-0.89-1.63-0.89h-0.07
			l-3.37,0.11h-0.04C74.94,19.85,74.78,19.48,75.14,19.01z"/>
		<path style="fill:#F3BC2D;" d="M13.98,90.08h-0.08l-3.36,0.11H10.5c-0.58,0-0.74-0.37-0.38-0.84l2.11-2.66
			c0.39-0.48,0.53-1.35,0.31-1.91l-1.1-3.08c-0.17-0.45-0.01-0.74,0.34-0.74l0.33,0.07l3.15,1.13c0.18,0.07,0.4,0.1,0.62,0.1
			c0.47,0,0.98-0.15,1.32-0.4l2.59-1.95l0.44-0.18c0.25,0,0.42,0.22,0.4,0.62l-0.12,3.25c-0.03,0.61,0.36,1.4,0.86,1.75l2.72,1.94
			c0.49,0.35,0.41,0.79-0.18,0.94l-3.17,0.84c-0.58,0.14-1.22,0.76-1.4,1.34l-0.98,3.25c-0.1,0.33-0.26,0.49-0.45,0.49
			c-0.15,0-0.32-0.11-0.47-0.35l-1.83-2.84C15.3,90.48,14.57,90.08,13.98,90.08z"/>
		<path style="fill:#F3BC2D;" d="M30.92,113.69l-3.16,0.84c-0.58,0.15-1.22,0.76-1.4,1.34l-0.98,3.24c-0.1,0.33-0.27,0.49-0.45,0.49
			c-0.15,0-0.32-0.12-0.47-0.35l-1.83-2.84c-0.31-0.49-1.03-0.89-1.62-0.89l-0.08,0l-3.36,0.1h-0.05c-0.58,0-0.74-0.37-0.38-0.84
			l2.11-2.66c0.38-0.48,0.53-1.35,0.31-1.9l-1.1-3.09c-0.17-0.45-0.01-0.74,0.34-0.74l0.32,0.07l3.15,1.13
			c0.18,0.07,0.4,0.1,0.63,0.1c0.47,0,0.98-0.14,1.32-0.4l2.59-1.95l0.44-0.18c0.25,0,0.42,0.23,0.4,0.62l-0.12,3.25
			c-0.03,0.61,0.36,1.4,0.86,1.75l2.72,1.94C31.61,113.1,31.53,113.54,30.92,113.69z"/>
		<path style="fill:#F3BC2D;" d="M43.09,94.47c-0.43,0.11-0.93,0.58-1.08,1.03l-0.76,2.49c-0.07,0.25-0.2,0.38-0.34,0.38l-0.37-0.27
			l-1.4-2.18c-0.24-0.38-0.8-0.68-1.26-0.68l-0.05,0l-2.59,0.08h-0.03c-0.44,0-0.57-0.28-0.28-0.65l1.62-2.05
			c0.3-0.36,0.41-1.03,0.24-1.47l-0.85-2.37c-0.12-0.35-0.01-0.57,0.26-0.57l0.26,0.05l2.42,0.87l0.48,0.08
			c0.37,0,0.75-0.11,1.01-0.3l1.99-1.5l0.34-0.14c0.2,0,0.33,0.17,0.31,0.48l-0.08,2.5c-0.02,0.47,0.27,1.08,0.66,1.35l2.09,1.5
			c0.38,0.27,0.31,0.6-0.15,0.72L43.09,94.47z"/>
		<path style="fill:#F3BC2D;" d="M73.76,89.6l-2.42,0.65c-0.44,0.11-0.93,0.58-1.08,1.03l-0.76,2.49c-0.08,0.25-0.21,0.38-0.35,0.38
			l-0.37-0.27l-1.4-2.18c-0.24-0.38-0.8-0.68-1.26-0.68l-0.05,0l-2.58,0.08h-0.04c-0.44,0-0.57-0.28-0.28-0.65l1.62-2.05
			c0.3-0.36,0.41-1.03,0.24-1.47l-0.85-2.37C64.05,84.22,64.17,84,64.44,84l0.25,0.05l2.42,0.87L67.59,85c0.37,0,0.76-0.11,1.02-0.3
			l1.99-1.5l0.34-0.14c0.19,0,0.32,0.18,0.3,0.48l-0.08,2.5c-0.02,0.47,0.28,1.08,0.66,1.35l2.09,1.5
			C74.29,89.16,74.23,89.49,73.76,89.6z"/>
		<path style="fill:#F3BC2D;" d="M99.64,29.65l1.62-2.05c0.29-0.36,0.41-1.03,0.23-1.47l-0.85-2.37c-0.12-0.35,0-0.57,0.27-0.57
			l0.25,0.05l2.42,0.87l0.48,0.07c0.37,0,0.76-0.11,1.02-0.3l1.99-1.5l0.34-0.14c0.19,0,0.32,0.17,0.31,0.48l-0.09,2.5
			c-0.02,0.47,0.28,1.08,0.66,1.35l2.09,1.5c0.38,0.27,0.32,0.6-0.14,0.72l-2.43,0.65c-0.44,0.11-0.93,0.58-1.08,1.03l-0.76,2.49
			c-0.08,0.25-0.2,0.38-0.34,0.38l-0.37-0.27l-1.41-2.18c-0.23-0.38-0.8-0.68-1.25-0.68l-0.06,0l-2.58,0.08h-0.04
			C99.49,30.29,99.35,30.01,99.64,29.65z"/>
		<path style="fill:#F3BC2D;" d="M101.76,9.31l1.63-2.05c0.3-0.36,0.41-1.03,0.24-1.47l-0.85-2.37c-0.13-0.35-0.01-0.57,0.26-0.57
			l0.25,0.05l2.43,0.87l0.48,0.08c0.36,0,0.75-0.11,1.01-0.3l1.99-1.5l0.34-0.14c0.2,0,0.32,0.18,0.31,0.48l-0.08,2.5
			c-0.03,0.47,0.27,1.08,0.66,1.35l2.08,1.5c0.38,0.27,0.32,0.6-0.14,0.72l-2.43,0.65c-0.44,0.11-0.93,0.58-1.08,1.03l-0.76,2.49
			c-0.08,0.25-0.2,0.38-0.34,0.38l-0.37-0.27l-1.41-2.18c-0.23-0.38-0.79-0.68-1.25-0.68l-0.05,0l-2.59,0.08h-0.03
			C101.61,9.96,101.48,9.68,101.76,9.31z"/>
	</g>
	<g>
		<circle style="fill:#F3BC2D;" cx="6.26" cy="123.04" r="1.52"/>
	</g>
</g>
</svg>
