<?xml version="1.0" encoding="utf-8"?>
<!-- Generator: Adobe Illustrator 24.0.3, SVG Export Plug-In . SVG Version: 6.00 Build 0)  -->
<svg version="1.1" id="Layer_1" xmlns="http://www.w3.org/2000/svg" xmlns:xlink="http://www.w3.org/1999/xlink" x="0px" y="0px"
	 viewBox="0 0 128 128" style="enable-background:new 0 0 128 128;" xml:space="preserve">
<linearGradient id="SVGID_1_" gradientUnits="userSpaceOnUse" x1="5.7" y1="114.3291" x2="121.5737" y2="114.3291">
	<stop  offset="0" style="stop-color:#6D6C6B"/>
	<stop  offset="0.0514" style="stop-color:#444444"/>
	<stop  offset="0.6006" style="stop-color:#444444"/>
	<stop  offset="1" style="stop-color:#757575"/>
</linearGradient>
<path style="fill:url(#SVGID_1_);" d="M5.7,107.2L5.8,119c0,1.4,1.1,2.5,2.4,2.5l27.5-0.1c0.9,0,1.6-0.7,1.6-1.7v-2.2
	c0-1,0.8-1.7,1.8-1.6c3,0.3,9.2,1.1,15,3c9.1,3,20.7,4.8,30.2,5.2c17.6,0.7,33.1-5.1,37.8-7.2c0.9-0.4,1.5-1.3,1.5-2.4v-3
	c0-1.4-1.1-1.9-2.3-1.9l-113-5.1C6.8,104.6,5.7,105.7,5.7,107.2z"/>
<linearGradient id="SVGID_2_" gradientUnits="userSpaceOnUse" x1="63.0399" y1="778.913" x2="63.0399" y2="828.09" gradientTransform="matrix(1 0 0 1 0 -714)">
	<stop  offset="0" style="stop-color:#D17358"/>
	<stop  offset="1" style="stop-color:#8C401A"/>
</linearGradient>
<path style="fill:url(#SVGID_2_);" d="M6.8,77.5c-2.3,5.7-4.5,16.3-1.4,26.3c0.9,2.8,4.6,5.4,17.1,6.9c13.5,1.6,22.2-0.6,34.6,3.6
	c10.3,3.5,22.3,7.5,49.2,2c11.4-2.3,14.2-4.8,15.5-5.8s-0.4-11.2-6.4-11.8s-3.8,0.3-12.7-0.8c-13.2-1.7-27.8-10.1-45.4-25.8
	c-1-0.9-2.4-1-3.5-0.2c-4.1,3-14.4,9.9-22.8,10.4c-7.7,0.4-16.2-3.9-20.3-6.3C9.3,75.2,7.4,75.9,6.8,77.5z"/>
<g>
	<linearGradient id="SVGID_3_" gradientUnits="userSpaceOnUse" x1="54.9" y1="77.3" x2="62.5" y2="77.3">
		<stop  offset="0" style="stop-color:#444444"/>
		<stop  offset="1" style="stop-color:#757575"/>
	</linearGradient>
	
		<line style="fill:none;stroke:url(#SVGID_3_);stroke-width:3;stroke-linecap:round;stroke-linejoin:round;stroke-miterlimit:10;" x1="56.4" y1="79.8" x2="61" y2="74.8"/>
	<linearGradient id="SVGID_4_" gradientUnits="userSpaceOnUse" x1="59.6" y1="80.75" x2="67.2" y2="80.75">
		<stop  offset="0" style="stop-color:#444444"/>
		<stop  offset="1" style="stop-color:#757575"/>
	</linearGradient>
	
		<line style="fill:none;stroke:url(#SVGID_4_);stroke-width:3;stroke-linecap:round;stroke-linejoin:round;stroke-miterlimit:10;" x1="61.1" y1="83.2" x2="65.7" y2="78.3"/>
	<linearGradient id="SVGID_5_" gradientUnits="userSpaceOnUse" x1="64.3" y1="84.15" x2="71.9" y2="84.15">
		<stop  offset="0" style="stop-color:#444444"/>
		<stop  offset="1" style="stop-color:#757575"/>
	</linearGradient>
	
		<line style="fill:none;stroke:url(#SVGID_5_);stroke-width:3;stroke-linecap:round;stroke-linejoin:round;stroke-miterlimit:10;" x1="65.8" y1="86.6" x2="70.4" y2="81.7"/>
	<linearGradient id="SVGID_6_" gradientUnits="userSpaceOnUse" x1="68.9" y1="87.6" x2="76.5" y2="87.6">
		<stop  offset="0" style="stop-color:#444444"/>
		<stop  offset="1" style="stop-color:#757575"/>
	</linearGradient>
	
		<line style="fill:none;stroke:url(#SVGID_6_);stroke-width:3;stroke-linecap:round;stroke-linejoin:round;stroke-miterlimit:10;" x1="70.4" y1="90.1" x2="75" y2="85.1"/>
	<linearGradient id="SVGID_7_" gradientUnits="userSpaceOnUse" x1="74.1" y1="91.2" x2="81.7" y2="91.2">
		<stop  offset="0" style="stop-color:#444444"/>
		<stop  offset="1" style="stop-color:#757575"/>
	</linearGradient>
	
		<line style="fill:none;stroke:url(#SVGID_7_);stroke-width:3;stroke-linecap:round;stroke-linejoin:round;stroke-miterlimit:10;" x1="75.6" y1="93.7" x2="80.2" y2="88.7"/>
</g>
<path style="fill:none;" d="M121.9,110.5c-1.4,1-4.1,3.5-15.5,5.8c-26.9,5.5-38.9,1.5-49.2-2c-5.9-2-10.6-2.8-15.4-3.1
	c-5.2-0.3-10.6-0.2-17.7-0.6c-9.4-0.5-14.2-2.5-16.7-4.7c-0.7-0.6-1.6-1.1-1.9-2.1c-2.9-10.1-1-20.5,1.3-26.3
	c0.7-1.7,2.6-2.3,4.1-1.5c4.1,2.4,12.5,6.7,20.3,6.3C39.5,81.9,49.8,75,53.9,72c1.1-0.8,2.5-0.7,3.5,0.2
	C73.8,86.8,87.5,95,99.9,97.5c1,0.2,2,0.4,2.9,0.5c8.8,1.2,6.7,0.3,12.7,0.8S123.3,109.4,121.9,110.5z"/>
<linearGradient id="SVGID_8_" gradientUnits="userSpaceOnUse" x1="42.844" y1="19.6832" x2="123.3201" y2="19.6832" gradientTransform="matrix(1 0 0 -1 0 127.8898)">
	<stop  offset="0" style="stop-color:#C96A46"/>
	<stop  offset="0.2943" style="stop-color:#BC6444"/>
	<stop  offset="0.8346" style="stop-color:#9B543F"/>
	<stop  offset="1" style="stop-color:#8F4F3D"/>
</linearGradient>
<path style="fill:url(#SVGID_8_);" d="M121.9,110.5c-1.4,1-4.1,3.5-15.5,5.8c-26.9,5.5-38.9,1.5-49.2-2c-5.9-2-10.6-2.8-15.4-3.1
	c3-3.8,7.7-6.6,14.9-7.3c20.3-1.8,31.2,6.2,41.5-4.8c0.6-0.6,1.2-1.2,1.8-1.7c1,0.2,2,0.4,2.9,0.5c8.8,1.2,6.7,0.3,12.7,0.8
	S123.3,109.4,121.9,110.5z"/>
</svg>
