<?xml version="1.0" encoding="utf-8"?>
<!-- Generator: Adobe Illustrator 19.2.1, SVG Export Plug-In . SVG Version: 6.00 Build 0)  -->
<svg version="1.1" id="レイヤー_1" xmlns="http://www.w3.org/2000/svg" xmlns:xlink="http://www.w3.org/1999/xlink" x="0px"
	 y="0px" viewBox="0 0 128 128" style="enable-background:new 0 0 128 128;" xml:space="preserve">
<g>
	<g>
		<defs>
			<path id="SVGID_1_" d="M100.96,10.37c-1.56,0-3.08,0.61-4.2,1.75c-9.56,9.56-17.94,11.37-30.07,11.37
				c-3.68,0-7.72-0.19-12.01-0.37c-3.36-0.15-6.84-0.31-10.61-0.4c-0.66-0.02-1.31-0.02-1.95-0.02c-30.67,0-40.49,18.55-40.89,19.34
				c-0.52,1.02-0.73,2.16-0.62,3.29l6.72,66.95c0.22,2.22,1.67,4.13,3.75,4.95c0.7,0.27,1.43,0.41,2.16,0.41
				c1.43,0,2.84-0.52,3.95-1.51c0.1-0.09,12.43-10.63,32.13-10.63c2.52,0,5.09,0.18,7.63,0.52c9.27,1.23,16.04,1.78,21.95,1.78
				c18.93,0,32.93-6.1,46.81-20.39c1.51-1.55,2.06-3.81,1.42-5.88l-20.51-66.95c-0.61-1.99-2.22-3.52-4.25-4.03
				C101.92,10.43,101.44,10.37,100.96,10.37L100.96,10.37z"/>
		</defs>
		<use xlink:href="#SVGID_1_"  style="overflow:visible;fill:#E74600;"/>
		<clipPath id="SVGID_2_">
			<use xlink:href="#SVGID_1_"  style="overflow:visible;"/>
		</clipPath>
		<g style="clip-path:url(#SVGID_2_);">
			<path style="fill:#FFFFFF;" d="M107.5,11.3c-1.12-0.86-2.06-0.09-2.06-0.09c-1.12,1.38-4.48,5.11-4.48,5.11
				C84.38,32.9,69.54,29.3,43.92,28.66C15.1,27.93,6.53,44.74,6.53,44.74l3.36,33.48l-7.88,5.74l3.61,32.82l2.23,2.06
				c0.17-2.24,9.24-10.57,16.19-13.78c7.73-3.57,19.29-6.87,33.69-4.95c27.37,3.64,44.39,3.04,63.72-16.86c0,0,0.56-0.49,2.1-2.13
				c1.55-1.63,3-1.63,3-1.63l0.69-0.17L107.5,11.3z"/>
			<g>
				<path style="fill:#E74600;" d="M8.96,69.53L4.1,65.7c0.62-0.79,15.6-19.41,44.57-17.96l0.93,0.05
					c28.69,1.4,40.59,1.99,57.16-14.42c0.84-0.96,5.64-6.42,7.96-8.21l3.77,4.9c-1.45,1.11-5.15,5.16-7.15,7.45l-0.15,0.17
					c-18.54,18.41-33.03,17.7-61.9,16.28l-0.93-0.05C22.56,52.64,9.09,69.36,8.96,69.53z"/>
				<path style="fill:#E74600;" d="M7.19,58.5l-5.03-3.59c0.65-0.91,16.17-22.14,45.71-19.71c25.88,2.12,42.58,2.17,56.06-15.04
					c0.75-1.01,4.91-6.52,7.96-8.15l2.91,5.46c-1.21,0.64-4.03,3.84-5.94,6.44C92.29,45.03,70.47,43.24,47.37,41.35
					C21.31,39.22,7.33,58.31,7.19,58.5z"/>
				<path style="fill:#E74600;" d="M9.94,80.69l-4.55-4.18c0.7-0.77,17.33-18.54,46.54-16.99c2.89,0.15,5.65,0.33,8.29,0.5
					c21.27,1.38,34.11,2.21,50.28-14.92c3.32-3.7,7.77-8.38,9.82-9.31l2.56,5.63c-0.95,0.56-4.84,4.53-7.83,7.87
					c-18.22,19.3-33.74,18.29-55.23,16.9c-2.62-0.17-5.35-0.35-8.21-0.49C25.43,64.29,10.09,80.53,9.94,80.69z"/>
				<path style="fill:#00538B;" d="M46.86,21.43l10.92,51.11c0,0-33.33-3.61-53.94,18.22l-4.35-48.72
					C-0.52,42.03,7.64,18.65,46.86,21.43z"/>
				<path style="fill:#E74600;" d="M4.63,99.33l-5.18-3.38c2.49-3.81,6.95-7.88,7.14-8.05c0.58-0.61,17.98-18.09,47.81-15.72
					l3.49,0.28c24.73,2.04,38.35,3.16,56.95-15.49c0.19-0.19,4.78-4.78,8.19-7.29l3.67,4.98c-3.04,2.25-7.44,6.63-7.48,6.68
					C98.59,82.03,82.19,80.67,57.37,78.64l-3.47-0.29c-26.84-2.18-42.86,13.84-43.02,14.01C10.7,92.52,6.67,96.2,4.63,99.33z"/>
				<path style="fill:#E74600;" d="M5.58,113.13l-4.94-3.71c3.89-5.18,12.36-14.7,25.46-20.28c8.33-3.55,18.28-4.88,29.57-3.97
					c3.35,0.28,6.47,0.58,9.43,0.87c21.66,2.12,32.54,3.2,54.31-16.29l0,0c0,0,3.57-3.41,6-6.31l4.75,3.96
					c-2.66,3.19-6.4,6.75-6.55,6.89C99.72,95.65,86.46,94.36,64.49,92.2c-2.92-0.29-6.01-0.6-9.33-0.86
					c-10.14-0.83-19.35,0.38-26.64,3.49C16.74,99.84,9.09,108.45,5.58,113.13z"/>
			</g>
		</g>
	</g>
	<g>
		<g>
			<g>
				<path style="fill:#FFFFFF;" d="M16.39,33.13c0.03-0.27,0.22-0.32,0.39-0.14l0.99,1.03c0.18,0.18,0.55,0.3,0.81,0.26l1.44-0.26
					c0.26-0.05,0.37,0.1,0.24,0.34l-0.69,1.25c-0.14,0.22-0.14,0.62-0.01,0.85l0.72,1.3c0.13,0.23,0.02,0.38-0.23,0.33l-1.45-0.29
					c-0.26-0.06-0.62,0.06-0.8,0.27l-0.99,1.09c-0.18,0.19-0.35,0.14-0.39-0.13l-0.2-1.47c-0.03-0.27-0.27-0.58-0.5-0.68l-1.3-0.6
					c-0.25-0.1-0.25-0.3-0.01-0.42l1.31-0.64c0.24-0.12,0.46-0.44,0.49-0.7L16.39,33.13z"/>
				<path style="fill:#FFFFFF;" d="M20.29,51.18c0.06-0.27,0.24-0.3,0.4-0.1l0.89,1.12c0.16,0.21,0.51,0.35,0.78,0.33l1.45-0.11
					c0.26-0.02,0.36,0.14,0.2,0.36l-0.81,1.18c-0.15,0.22-0.19,0.6-0.08,0.85l0.59,1.35c0.1,0.24-0.01,0.39-0.27,0.32l-1.41-0.43
					c-0.25-0.08-0.63,0.01-0.82,0.18l-1.09,1c-0.19,0.19-0.37,0.11-0.38-0.16l-0.06-1.48c0-0.26-0.2-0.6-0.44-0.72l-1.24-0.71
					c-0.23-0.13-0.22-0.32,0.03-0.41l1.37-0.52c0.25-0.09,0.5-0.38,0.56-0.65L20.29,51.18z"/>
				<path style="fill:#FFFFFF;" d="M22.71,67.07c0.03-0.26,0.21-0.32,0.39-0.13l1,1.01c0.19,0.19,0.56,0.3,0.82,0.26l1.43-0.28
					c0.26-0.05,0.37,0.11,0.24,0.34l-0.68,1.26c-0.13,0.22-0.12,0.61,0.01,0.85l0.73,1.29c0.14,0.22,0.03,0.38-0.23,0.33l-1.45-0.26
					c-0.26-0.05-0.62,0.07-0.79,0.27l-0.97,1.1c-0.17,0.2-0.35,0.14-0.39-0.12l-0.22-1.47c-0.03-0.27-0.27-0.57-0.51-0.67
					l-1.31-0.57c-0.24-0.11-0.25-0.3-0.01-0.42l1.3-0.67c0.24-0.11,0.46-0.43,0.49-0.69L22.71,67.07z"/>
				<path style="fill:#FFFFFF;" d="M28.2,28.08c0.06-0.26,0.24-0.3,0.4-0.09l0.88,1.12c0.16,0.21,0.51,0.37,0.78,0.35l1.45-0.12
					c0.27-0.02,0.36,0.14,0.2,0.36l-0.82,1.18c-0.15,0.21-0.19,0.6-0.09,0.84l0.58,1.35c0.11,0.25-0.01,0.39-0.27,0.31l-1.41-0.43
					c-0.25-0.08-0.62,0-0.82,0.18l-1.09,0.98c-0.2,0.18-0.37,0.11-0.38-0.16l-0.04-1.49c0-0.26-0.2-0.59-0.43-0.72l-1.24-0.71
					c-0.23-0.14-0.22-0.32,0.03-0.42l1.37-0.51c0.25-0.1,0.5-0.39,0.56-0.64L28.2,28.08z"/>
				<path style="fill:#FFFFFF;" d="M31.27,46.63c0.07-0.25,0.26-0.29,0.41-0.07l0.82,1.17c0.15,0.22,0.5,0.39,0.77,0.38l1.45-0.03
					c0.27-0.01,0.35,0.16,0.19,0.37l-0.88,1.13c-0.17,0.2-0.23,0.59-0.13,0.83l0.51,1.39c0.1,0.25-0.03,0.39-0.28,0.29l-1.39-0.5
					c-0.25-0.1-0.62-0.03-0.83,0.14l-1.14,0.93c-0.21,0.17-0.37,0.09-0.36-0.18l0.03-1.49c0.01-0.27-0.17-0.61-0.39-0.74l-1.2-0.78
					c-0.23-0.15-0.2-0.33,0.05-0.41l1.4-0.43c0.25-0.09,0.52-0.36,0.59-0.62L31.27,46.63z"/>
				<path style="fill:#FFFFFF;" d="M35,63.59c0.07-0.26,0.25-0.3,0.41-0.08l0.85,1.13c0.16,0.21,0.51,0.38,0.77,0.36l1.46-0.09
					c0.27-0.02,0.36,0.15,0.2,0.37l-0.84,1.16c-0.16,0.2-0.21,0.59-0.11,0.84l0.56,1.36c0.1,0.26-0.02,0.39-0.27,0.31l-1.4-0.46
					c-0.25-0.09-0.62-0.01-0.82,0.17l-1.11,0.96c-0.2,0.18-0.37,0.11-0.37-0.17l-0.02-1.48c0-0.27-0.19-0.6-0.42-0.73l-1.22-0.74
					c-0.23-0.14-0.21-0.32,0.04-0.41l1.38-0.48c0.25-0.09,0.51-0.37,0.58-0.63L35,63.59z"/>
				<path style="fill:#FFFFFF;" d="M36.91,36.36c0.1-0.24,0.28-0.25,0.42-0.03l0.71,1.23c0.13,0.23,0.46,0.44,0.73,0.45l1.45,0.09
					c0.27,0.02,0.33,0.2,0.14,0.39l-0.97,1.05c-0.19,0.19-0.28,0.56-0.21,0.82l0.38,1.43c0.08,0.25-0.07,0.37-0.31,0.26l-1.33-0.63
					c-0.23-0.11-0.62-0.09-0.83,0.06l-1.22,0.82c-0.22,0.15-0.37,0.05-0.35-0.22l0.16-1.47c0.03-0.26-0.12-0.62-0.33-0.77
					l-1.13-0.89c-0.21-0.16-0.17-0.35,0.09-0.41l1.43-0.31c0.26-0.05,0.56-0.3,0.65-0.55L36.91,36.36z"/>
				<path style="fill:#FFFFFF;" d="M40.31,53.89c0.09-0.24,0.27-0.27,0.41-0.04l0.77,1.18c0.14,0.23,0.47,0.41,0.74,0.41l1.46,0.03
					c0.27,0,0.35,0.18,0.17,0.38l-0.93,1.1c-0.17,0.19-0.24,0.57-0.16,0.82l0.45,1.42c0.08,0.25-0.05,0.38-0.29,0.27l-1.37-0.56
					c-0.24-0.1-0.62-0.05-0.83,0.11l-1.18,0.88c-0.21,0.16-0.37,0.08-0.35-0.19l0.09-1.48c0.02-0.27-0.15-0.61-0.37-0.76l-1.16-0.83
					c-0.22-0.15-0.19-0.34,0.07-0.41l1.41-0.38c0.26-0.06,0.54-0.34,0.62-0.6L40.31,53.89z"/>
				<path style="fill:#FFFFFF;" d="M24.55,39.96c0.07-0.25,0.26-0.28,0.41-0.07l0.83,1.16c0.15,0.22,0.49,0.39,0.76,0.38L28,41.38
					c0.27-0.01,0.35,0.16,0.19,0.37l-0.87,1.13c-0.16,0.21-0.22,0.59-0.12,0.84l0.52,1.38c0.1,0.25-0.03,0.39-0.28,0.3l-1.39-0.5
					c-0.25-0.1-0.62-0.03-0.83,0.15l-1.14,0.92c-0.21,0.17-0.37,0.09-0.37-0.18l0.02-1.48c0-0.27-0.18-0.6-0.4-0.75l-1.2-0.77
					c-0.23-0.14-0.2-0.33,0.05-0.41l1.39-0.44c0.25-0.08,0.52-0.36,0.59-0.61L24.55,39.96z"/>
				<path style="fill:#FFFFFF;" d="M27.5,57.28c0.05-0.27,0.23-0.31,0.4-0.11l0.94,1.05c0.18,0.21,0.54,0.35,0.8,0.3l1.44-0.2
					c0.27-0.03,0.37,0.13,0.22,0.35l-0.74,1.22c-0.14,0.22-0.15,0.6-0.04,0.85l0.67,1.32c0.12,0.24,0.01,0.39-0.25,0.32l-1.43-0.34
					c-0.26-0.07-0.63,0.03-0.81,0.22l-1.03,1.05c-0.19,0.19-0.36,0.13-0.39-0.14l-0.13-1.48c-0.02-0.27-0.24-0.58-0.48-0.69
					l-1.28-0.64c-0.24-0.11-0.23-0.3,0.01-0.42l1.34-0.58c0.25-0.11,0.48-0.42,0.52-0.69L27.5,57.28z"/>
				<path style="fill:#FFFFFF;" d="M40.54,26.82c0.11-0.24,0.3-0.24,0.41-0.01l0.64,1.27c0.11,0.24,0.43,0.47,0.7,0.49l1.45,0.19
					c0.26,0.03,0.32,0.22,0.12,0.39l-1.04,0.99c-0.19,0.17-0.31,0.54-0.25,0.81l0.29,1.44c0.06,0.27-0.09,0.38-0.33,0.25l-1.29-0.71
					c-0.23-0.13-0.61-0.13-0.83,0.01l-1.27,0.75c-0.23,0.13-0.38,0.03-0.33-0.23L39.05,31c0.05-0.27-0.08-0.62-0.28-0.8l-1.07-0.95
					c-0.2-0.19-0.15-0.37,0.12-0.4l1.45-0.23c0.27-0.04,0.57-0.27,0.68-0.52L40.54,26.82z"/>
				<path style="fill:#FFFFFF;" d="M43.94,44.21c0.11-0.24,0.29-0.25,0.42-0.02l0.68,1.25c0.12,0.23,0.44,0.45,0.72,0.47l1.45,0.13
					c0.27,0.02,0.33,0.2,0.14,0.38l-1,1.03c-0.19,0.18-0.29,0.56-0.23,0.81l0.35,1.44c0.06,0.26-0.08,0.38-0.32,0.26l-1.32-0.66
					c-0.23-0.12-0.62-0.11-0.83,0.04l-1.24,0.79c-0.22,0.15-0.38,0.05-0.35-0.21l0.2-1.47c0.04-0.26-0.1-0.62-0.31-0.79l-1.1-0.91
					c-0.21-0.17-0.16-0.36,0.1-0.4l1.43-0.27c0.26-0.05,0.56-0.3,0.66-0.54L43.94,44.21z"/>
				<path style="fill:#FFFFFF;" d="M47.3,62.09c0.09-0.25,0.27-0.27,0.41-0.04l0.76,1.2c0.14,0.23,0.48,0.42,0.75,0.42l1.46,0.03
					c0.27,0.01,0.34,0.19,0.16,0.39l-0.93,1.08c-0.17,0.2-0.25,0.58-0.17,0.83l0.44,1.42c0.08,0.25-0.05,0.38-0.3,0.27l-1.36-0.57
					c-0.24-0.11-0.62-0.06-0.83,0.1l-1.19,0.87c-0.21,0.15-0.37,0.06-0.35-0.2l0.1-1.48c0.02-0.27-0.14-0.61-0.36-0.77l-1.16-0.84
					c-0.22-0.15-0.19-0.34,0.07-0.4l1.41-0.37c0.26-0.06,0.54-0.33,0.63-0.59L47.3,62.09z"/>
				<path style="fill:#FFFFFF;" d="M6.08,40.53c-0.03-0.27,0.13-0.36,0.35-0.22l1.19,0.77c0.23,0.15,0.61,0.19,0.85,0.07l1.34-0.59
					c0.24-0.11,0.39,0.02,0.31,0.27l-0.39,1.38c-0.08,0.26,0.02,0.63,0.19,0.83l0.99,1.1c0.18,0.19,0.12,0.37-0.15,0.37l-1.47,0.06
					c-0.27,0-0.6,0.21-0.72,0.44l-0.71,1.28c-0.12,0.24-0.31,0.23-0.41-0.02l-0.52-1.38c-0.09-0.25-0.39-0.5-0.65-0.55l-1.41-0.28
					c-0.26-0.05-0.31-0.23-0.11-0.4l1.13-0.93c0.21-0.17,0.35-0.52,0.32-0.79L6.08,40.53z"/>
				<path style="fill:#FFFFFF;" d="M9.89,73.76C9.85,73.5,10,73.4,10.23,73.53l1.23,0.72c0.23,0.14,0.61,0.15,0.85,0.03l1.3-0.64
					c0.24-0.11,0.39,0.01,0.32,0.27l-0.33,1.39c-0.06,0.25,0.04,0.62,0.23,0.81l1.05,1.05c0.19,0.19,0.13,0.37-0.14,0.39l-1.47,0.12
					c-0.27,0.01-0.58,0.23-0.7,0.47l-0.65,1.31c-0.12,0.25-0.3,0.23-0.41-0.01l-0.59-1.36c-0.1-0.24-0.41-0.47-0.67-0.52l-1.41-0.21
					c-0.26-0.04-0.32-0.22-0.12-0.4l1.08-0.97c0.2-0.18,0.33-0.54,0.29-0.81L9.89,73.76z"/>
				<path style="fill:#FFFFFF;" d="M7.52,55.99c-0.03-0.27,0.13-0.36,0.35-0.22l1.2,0.76c0.23,0.14,0.61,0.17,0.85,0.06l1.33-0.61
					c0.24-0.11,0.39,0.02,0.31,0.27l-0.37,1.38c-0.08,0.25,0.02,0.63,0.2,0.83l1.01,1.08c0.19,0.19,0.12,0.37-0.14,0.37l-1.47,0.08
					c-0.27,0.01-0.59,0.21-0.71,0.44l-0.69,1.3c-0.12,0.23-0.31,0.22-0.41-0.02l-0.54-1.38c-0.1-0.25-0.4-0.49-0.66-0.53l-1.41-0.26
					c-0.27-0.05-0.31-0.23-0.11-0.4l1.12-0.94c0.2-0.17,0.35-0.53,0.31-0.8L7.52,55.99z"/>
				<path style="fill:#FFFFFF;" d="M13.31,45.76c0.03-0.27,0.21-0.33,0.39-0.14l0.99,1.02c0.19,0.19,0.55,0.31,0.81,0.27l1.43-0.27
					c0.27-0.05,0.38,0.1,0.24,0.34l-0.68,1.25c-0.13,0.23-0.13,0.62,0,0.85l0.72,1.3c0.14,0.23,0.03,0.38-0.23,0.34l-1.45-0.28
					c-0.26-0.06-0.62,0.07-0.79,0.27l-0.98,1.09c-0.18,0.2-0.35,0.14-0.39-0.12l-0.21-1.47c-0.03-0.25-0.27-0.56-0.51-0.67
					l-1.3-0.58c-0.25-0.11-0.25-0.3-0.01-0.42l1.3-0.64c0.24-0.13,0.46-0.44,0.49-0.71L13.31,45.76z"/>
				<path style="fill:#FFFFFF;" d="M14.68,62.99c0.03-0.26,0.21-0.32,0.39-0.13l0.99,1.01c0.19,0.19,0.55,0.31,0.81,0.26l1.44-0.27
					c0.26-0.06,0.38,0.1,0.24,0.33l-0.68,1.26c-0.13,0.23-0.13,0.62,0,0.85l0.73,1.3c0.13,0.23,0.03,0.39-0.23,0.33l-1.45-0.27
					c-0.26-0.06-0.62,0.07-0.8,0.27L15.14,69c-0.17,0.2-0.35,0.14-0.39-0.11l-0.21-1.47c-0.03-0.27-0.27-0.57-0.51-0.68l-1.31-0.57
					c-0.25-0.11-0.25-0.3-0.01-0.42l1.3-0.66c0.24-0.11,0.46-0.43,0.49-0.7L14.68,62.99z"/>
			</g>
		</g>
	</g>
</g>
</svg>
