<?xml version="1.0" encoding="utf-8"?>
<!-- Generator: Adobe Illustrator 24.0.3, SVG Export Plug-In . SVG Version: 6.00 Build 0)  -->
<svg version="1.1" id="Layer_1" xmlns="http://www.w3.org/2000/svg" xmlns:xlink="http://www.w3.org/1999/xlink" x="0px" y="0px"
	 viewBox="0 0 128 128" style="enable-background:new 0 0 128 128;" xml:space="preserve">
<g>
	<g>
		<path style="fill:#9CCC65;" d="M22.9,31.6c-4.1-4.9-3.3-12.8-3.3-12.8s7.5,0.1,11.6,5.1s3.3,12.8,3.3,12.8S27.1,36.6,22.9,31.6z"
			/>
		
			<linearGradient id="SVGID_1_" gradientUnits="userSpaceOnUse" x1="43.1589" y1="732.3439" x2="35.6999" y2="829.6049" gradientTransform="matrix(1 0 0 1 0 -713.8898)">
			<stop  offset="0.09" style="stop-color:#AED581"/>
			<stop  offset="0.4204" style="stop-color:#8BC34A"/>
		</linearGradient>
		<path style="fill:url(#SVGID_1_);" d="M37.3,3.9c-3.5,19.1-5.1,38.6-6.9,57.9c-1.9,20.7-3.1,41.5-4,62.3h18.2
			c0.1-3.8,0.2-7.7,0.3-11.5c0.9-29.3,1.5-58.8,3.2-88.1c0.4-6.8,0.7-13.7,1.1-20.6C49.2,3.9,37.3,3.9,37.3,3.9z"/>
		<path style="fill:#7CB342;" d="M23.3,90.3c-4.1-1.5-8.5,0.5-8.5,0.5s2.3,4.5,6.4,5.9s8.5-0.5,8.5-0.5S27.4,91.8,23.3,90.3z"/>
		<path style="fill:#7CB342;" d="M46.4,45.7l-12.1-1c-2.7-0.2-4.7-2.7-4.5-5.5s2.6-5,5.3-4.7l12,1c2.7,0.2,4.7,2.7,4.5,5.5
			S49,46,46.4,45.7z"/>
		<path style="fill:#9CCC65;" d="M28.9,86.1c-2.3-5.1-7.8-7.4-7.8-7.4s-1.7,5.9,0.6,11s7.8,7.4,7.8,7.4S31.2,91.1,28.9,86.1z"/>
		<path style="fill:#689F38;" d="M43.5,106.7l-14-0.4c-2.8-0.1-4.9-2.5-4.9-5.4s2.4-5.2,5.1-5.1l14,0.4c2.8,0.1,4.9,2.5,4.8,5.4
			S46.3,106.8,43.5,106.7z"/>
		<g style="opacity:0.2;">
			<path style="fill:#424242;" d="M47.6,35.5c0.2-3.7,0.4-7.4,0.6-11c0.4-6.8,0.7-13.7,1.1-20.6h-3c-0.2,3-0.3,5.9-0.5,8.8
				c-0.2,3.8-0.4,7.7-0.6,11.6c-0.2,3.5-0.4,7.3-0.6,11.1c-0.1,1.5,1,2.8,2.5,3.1c1,0.2,1.7,1.2,1.6,2.3c-0.1,1-0.8,1.9-1.8,2
				c-1.5,0.1-2.7,1.3-2.8,2.9c-0.7,15.8-1.1,31.8-1.6,47.4l-0.1,3.5c0,1.3,0.7,2.4,1.9,2.9c0.8,0.3,1.4,1.2,1.3,2.2
				c0,1-0.6,1.8-1.5,2.1c-1.2,0.4-2,1.5-2.1,2.8v1.6c0,1.5-0.1,3-0.1,4.5c-0.1,4-0.2,7.9-0.3,11.6h3c0.1-3.8,0.2-7.7,0.3-11.5
				c0.1-2,0.1-4.1,0.2-6.1c2-0.6,3.5-2.5,3.5-4.9c0.1-2.3-1.3-4.3-3.2-5c0.5-16.9,1-33.9,1.7-50.8c2.4-0.2,4.3-2.1,4.5-4.7
				C51.8,38.3,50,36,47.6,35.5z"/>
			<path style="fill:#424242;" d="M37.3,3.9c-1.8,10.2-3.2,20.5-4.3,30.8c-1.7,0.7-3,2.4-3.2,4.4s0.8,3.7,2.2,4.7
				c-0.6,6-1.1,12-1.7,17.9c-1.1,11.4-1.9,22.9-2.6,34.4c-1.8,0.8-3.1,2.6-3.1,4.7c-0.1,2,1,3.8,2.6,4.7c-0.3,6.1-0.6,12.3-0.9,18.4
				h3c0.3-6.3,0.5-12.4,0.9-18.3c0.1-1.1-0.5-2.2-1.5-2.8c-0.7-0.4-1.1-1.2-1.1-2c0-0.9,0.5-1.7,1.3-2c1-0.5,1.8-1.4,1.8-2.6
				c0.7-12.2,1.6-23.5,2.6-34.3l0.4-4c0.4-4.6,0.8-9.3,1.3-14c0.1-1.1-0.4-2.2-1.3-2.8c-0.6-0.4-1-1.2-0.9-2s0.6-1.6,1.3-1.8
				c1-0.4,1.8-1.4,1.9-2.5c1-9,2.3-19.8,4.4-31.2h-3.1V3.9z"/>
		</g>
		<path style="fill:#7CB342;" d="M51.5,31.1c2.9-1.3,6.1,0,6.1,0s-1.5,3.3-4.3,4.5s-6.1,0-6.1,0S48.7,32.3,51.5,31.1z"/>
		<path style="fill:#9CCC65;" d="M47.3,27.6c1.5-3.7,5.3-5.6,5.3-5.6s1.5,4.2,0,7.9s-5.3,5.6-5.3,5.6S45.8,31.3,47.3,27.6z"/>
	</g>
</g>
<g>
	<g>
		<path style="fill:#7CB342;" d="M67.8,19.1C65,14.3,66.3,8.4,66.3,8.4s5.8,1.8,8.6,6.5s1.5,10.7,1.5,10.7S70.6,23.9,67.8,19.1z"/>
		<path style="fill:#424242;" d="M82.2,35.3c1.9,5,3.2,10.1,4,15.4c-0.2-1.6,0.2-3.4,0-5c-0.8-5.3-2.1-10.4-4-15.4
			C82.7,31.8,81.6,33.8,82.2,35.3z"/>
		<path style="fill:#424242;" d="M83.3,87.7c-1.8-7.1-8.8-13.3-16.2-13.4c-1.1,0-1,1.5,0,1.7c7.3,0.9,12.2,5.8,15.1,12.2
			C82.5,88.8,83.5,88.4,83.3,87.7z"/>
		
			<linearGradient id="SVGID_2_" gradientUnits="userSpaceOnUse" x1="88.9449" y1="719.7557" x2="54.0389" y2="826.5622" gradientTransform="matrix(1 0 0 1 0 -713.8898)">
			<stop  offset="0.2808" style="stop-color:#AED581"/>
			<stop  offset="0.6091" style="stop-color:#8BC34A"/>
		</linearGradient>
		<path style="fill:url(#SVGID_2_);" d="M82.5,3.9c-9.9,16.1-16.1,35-21.8,52.4c-7.3,22.2-13,44.8-17.4,67.7h18.8
			c0-0.1,0-0.3,0.1-0.4c1.1-5.9,2.3-11.7,3.5-17.5c5.5-25.8,10.8-51.8,19.6-76.8c3.1-8.7,6.5-17.6,11.4-25.5H82.5V3.9z"/>
		<path style="fill:#7CB342;" d="M76.4,124.1c1.6-3.2,2.1-6.1,2.1-6.1s-7.7-0.7-13.2,3.6c-0.9,0.7-1.7,1.5-2.4,2.4h13.5V124.1z"/>
		<path style="fill:#8BC34A;" d="M81.4,34.8l-9.5-3.9c-2.7-1.1-3.9-4.2-2.8-6.8s4.2-3.9,6.8-2.8l9.5,3.9c2.7,1.1,3.9,4.2,2.8,6.8
			C87.2,34.7,84.1,36,81.4,34.8z"/>
		<path style="fill:#7CB342;" d="M67.2,88.8l-12.8-2.5c-3.3-0.7-5.5-3.9-4.9-7.2c0.7-3.3,3.9-5.5,7.2-4.9l12.8,2.5
			c3.3,0.7,5.5,3.9,4.9,7.2C73.8,87.3,70.5,89.5,67.2,88.8z"/>
		<g style="opacity:0.2;">
			<path style="fill:#424242;" d="M86.7,25.8c2.8-7.6,5.9-15.1,10.2-22h-3.5c-4.1,7-7,14.4-9.5,21c-0.4,1.2-0.1,2.6,1,3.4
				c0.8,0.6,1.1,1.7,0.7,2.6c-0.4,0.8-1.2,1.4-2.1,1.4c-1.3,0-2.4,0.8-2.9,2.1C76.5,46.6,73,59.8,69,77.1c-0.3,1.2,0.2,2.4,1.2,3.1
				s1.5,2,1.3,3.2c-0.2,1.3-1.2,2.3-2.5,2.5c-1.2,0.2-2.1,1.1-2.4,2.3c-0.9,4.4-1.9,8.8-2.8,13.2l-0.9,4.1c-1.3,6-2.5,11.9-3.5,17.6
				c-0.1,0.3-0.1,0.6-0.2,1h3.1c0-0.1,0-0.3,0.1-0.4c1.1-5.9,2.3-11.7,3.5-17.5s2.5-11.5,3.7-17.3c2.4-0.5,4.4-2.3,4.9-4.9
				c0.5-2.4-0.6-4.9-2.5-6.3C75.2,63.3,78.8,49,83.4,35l0,0c2,0,4-1.1,4.8-3.1C89.2,29.7,88.5,27.3,86.7,25.8z"/>
			<path style="fill:#424242;" d="M82.5,3.9c-3.3,5.4-6.2,11.1-8.8,17c-2,0.1-3.8,1.3-4.6,3.2s-0.4,4,1,5.5
				c-3.5,8.9-6.5,18-9.3,26.8c-1.9,5.9-3.7,11.8-5.5,17.7c-2.8,0.1-5.2,2.1-5.8,5c-0.5,2.5,0.6,5,2.7,6.3
				c-3.4,12.8-6.3,25.7-8.8,38.7h3.1c2.4-12.7,5.3-25.5,8.6-37.9c0.3-1.2-0.2-2.6-1.2-3.3c-1.1-0.7-1.6-2-1.4-3.3
				c0.3-1.4,1.5-2.5,3-2.6c1.3-0.1,2.4-0.9,2.7-2.2c1.7-6,3.5-11.9,5.4-17.7c2.8-8.7,5.8-17.7,9.3-26.6c0.4-1.1,0.2-2.2-0.6-3.1
				c-0.6-0.6-0.8-1.5-0.4-2.3c0.3-0.8,1.1-1.3,2-1.4c1.1-0.1,2.1-0.8,2.6-1.8c3-6.8,6.2-12.9,9.6-18.2h-3.6V3.9z"/>
		</g>
		<path style="fill:#42A5F5;" d="M103.2,103.2c0,0-1.5,2.3-6.6,4.9s-8.2,2.6-8.2,2.6s-3.3-0.8-9.5-9.7c-2.9-4.1-4-9.3-4.5-12.7
			c-0.2-1.8,1.1-3.4,2.9-3.6c1.4-0.1,3-0.3,4.5-0.7c1-0.3,1.9-0.4,2.7-0.5c1.6-0.2,3,0.8,3.4,2.3c0.5,2.1,1.6,5.4,4.4,8.8
			C97.6,101,103.2,103.2,103.2,103.2z"/>
		<g style="opacity:0.2;">
			<path style="fill:#424242;" d="M84.9,83.5v3c0.6,2.4,1.9,6.2,5,10c2.8,3.5,5.8,5.8,8.1,7.3c-0.7,0.5-1.7,1-2.8,1.6
				c-3.1,1.5-5.3,2.1-6.4,2.2c-1-0.6-3.5-2.6-7.5-8.3c-2.6-3.8-3.6-8.7-4-11.4v-0.1l0.1-0.1c1.9-0.1,3.6-0.4,5-0.8
				c0.8-0.2,1.6-0.4,2.3-0.5l0,0L84.9,83.5 M84.9,83.5c-0.2,0-0.3,0-0.4,0c-0.7,0.1-1.6,0.3-2.7,0.5c-1.5,0.4-3.1,0.6-4.5,0.7
				c-1.8,0.1-3.2,1.8-2.9,3.6c0.5,3.4,1.6,8.6,4.5,12.7c6.2,8.9,9.5,9.7,9.5,9.7s3.1-0.1,8.2-2.6s6.6-4.9,6.6-4.9s-5.7-2.2-10.9-8.6
				c-2.8-3.4-3.9-6.7-4.4-8.8C87.5,84.4,86.3,83.5,84.9,83.5z"/>
		</g>
		<path style="fill:#424242;" d="M55.8,68.9c-1.3,6.2,4.7,11,9.3,14c5.2,3.4,11.3,6.3,17.3,8c1.2,0.3,1.7-1.6,0.5-1.8
			c-4.8-0.8-9.6-3.4-13.8-5.7C64,80.6,56,76,56.8,69.1C56.9,68.5,55.9,68.4,55.8,68.9z"/>
		<path style="fill:#7CB342;" d="M49.8,67c1.1,5.5,6.8,9,6.8,9s3.9-5.4,2.8-11s-6.8-9-6.8-9S48.7,61.5,49.8,67z"/>
		<path style="fill:#7CB342;" d="M94.6,16c6.3-3.1,13.7-1,13.7-1s-2.8,7.2-9,10.4s-13.7,1-13.7,1S88.3,19.1,94.6,16z"/>
		<path style="fill:#F44336;" d="M109.8,68.2c0,0-1.7,2.6-7.6,4.9s-9.4,2.1-9.4,2.1s-3.7-1.3-10.4-12.3c-3.1-5.1-4.2-11.2-4.6-15.2
			c-0.2-2.1,1.4-3.9,3.5-3.8c1.6,0,3.4,0,5.1-0.3c1.2-0.2,2.2-0.3,3-0.3c1.8-0.1,3.4,1.2,3.7,3c0.5,2.5,1.7,6.4,4.7,10.6
			C103.4,65,109.8,68.2,109.8,68.2z"/>
		<g style="opacity:0.2;">
			<path style="fill:#424242;" d="M89.4,46.3c0.3,0,0.6,0.3,0.6,0.6c0.5,2.8,1.9,7.1,5.2,11.8c3.3,4.7,6.9,7.8,9.4,9.7
				c-0.9,0.6-2.1,1.2-3.7,1.8c-3.8,1.5-6.4,1.8-7.5,1.9c-1-0.7-4-3.3-8.6-10.8C82,56.8,81,51.2,80.6,47.4c0-0.2,0.1-0.3,0.1-0.4
				c0.1-0.1,0.2-0.1,0.3-0.1l0,0c0.4,0,0.7,0,1.1,0c1.7,0,3.2-0.1,4.5-0.3C87.7,46.4,88.6,46.3,89.4,46.3L89.4,46.3 M89.4,43.3h-0.2
				c-0.8,0-1.8,0.1-3,0.3c-1.3,0.2-2.7,0.3-4.1,0.3c-0.3,0-0.7,0-1,0H81c-2,0-3.6,1.8-3.4,3.8c0.4,4,1.5,10.1,4.6,15.2
				C89,73.8,92.7,75.2,92.7,75.2s0.1,0,0.3,0c0.9,0,4.2-0.2,9.1-2.1c5.9-2.3,7.6-4.9,7.6-4.9s-6.3-3.2-12-11.2
				c-3-4.3-4.2-8.2-4.7-10.6C92.7,44.6,91.2,43.3,89.4,43.3L89.4,43.3z"/>
		</g>
		<path style="fill:#424242;" d="M74.9,16.9c-4.6,2.1-2.2,8.2-0.8,11.6c2.7,6.9,6.5,13.3,10.6,19.5c0.5,0.8,1.8,0,1.3-0.8
			c-2.7-4-17.6-25.7-10.3-29C76.6,17.8,75.8,16.5,74.9,16.9z"/>
	</g>
</g>
</svg>
