<svg width="128" height="128" style="enable-background:new 0 0 128 128;" xmlns="http://www.w3.org/2000/svg" xmlns:xlink="http://www.w3.org/1999/xlink">
  <g id="Layer_1">
    <g>
      <defs>
        <rect id="SVGID_2_" height="120" width="120" x="4" y="4"/>
      </defs>
      <clipPath id="SVGID_3_">
        <use style="overflow:visible;" xlink:href="#SVGID_2_"/>
      </clipPath>
      <g style="clip-path:url(#SVGID_3_);">
        <radialGradient id="SVGID_4_" cx="48.0759" cy="-128.566" gradientTransform="matrix(0.826 0 0 0.8186 -5.7055 100.3231)" gradientUnits="userSpaceOnUse" r="39.083">
          <stop offset="0" style="stop-color:#6D4C41"/>
          <stop offset="1" style="stop-color:#543930"/>
        </radialGradient>
        <path d="M34.21,4C7.27,4,7.48,28.69,7.48,29.08c0,15.99,1.23,38.58,7.69,47.47 c2.56,3.52,7.51,3.72,7.51,3.72l11.15-0.02l11.15,0.02c0,0,4.95-0.2,7.51-3.72c6.46-8.89,7.69-31.48,7.69-47.47 C60.18,28.69,61.15,4,34.21,4z" style="fill:url(#SVGID_4_);"/>
      </g>
      <g style="clip-path:url(#SVGID_3_);">
        <g id="XMLID_14_">
          <g id="XMLID_15_">
            <path d="M1.5,126.3V88.06c0-9.21,7.37-16.44,19.71-19.34c4.28-1.01,8.35-1.5,12.43-1.5 c2.85,0,5.74,0.25,8.61,0.74c9.79,1.67,20.25,7.83,20.25,20.1v38.25L1.5,126.3z" style="fill:#651FFF;"/>
            <path d="M33.63,68.72c2.76,0,5.58,0.24,8.36,0.72c5.59,0.96,10.32,3.11,13.67,6.23 C59.2,78.96,61,83.13,61,88.06v36.75L3,124.8V88.06C3,75.52,17.2,71.2,21.55,70.18C25.72,69.2,29.67,68.72,33.63,68.72 M33.63,65.72c-4.4,0-8.62,0.56-12.77,1.54C9.63,69.9,0,76.8,0,88.06v39.74l64,0.02V88.06c0-12.17-9.62-19.54-21.5-21.58 C39.45,65.96,36.51,65.72,33.63,65.72L33.63,65.72z" style="fill:#540EED;"/>
          </g>
        </g>
        <g id="XMLID_2_">
          <linearGradient id="SVGID_5_" gradientUnits="userSpaceOnUse" x1="6" x2="6" y1="97" y2="127">
            <stop offset="0" style="stop-color:#FFB300"/>
            <stop offset="0.4007" style="stop-color:#FFCA28"/>
          </linearGradient>
          <rect height="30" style="fill:url(#SVGID_5_);" width="10" x="1" y="97"/>
          <path d="M10,98v28H2V98H10 M12,96H0v32h12V96L12,96z" style="fill:#EDA600;"/>
        </g>
      </g>
      <g style="clip-path:url(#SVGID_3_);">
        <radialGradient id="SVGID_6_" cx="120.1684" cy="-127.9269" gradientTransform="matrix(0.826 0 0 0.826 -5.7055 100.5905)" gradientUnits="userSpaceOnUse" r="39.2876">
          <stop offset="0" style="stop-color:#6D4C41"/>
          <stop offset="1" style="stop-color:#543930"/>
        </radialGradient>
        <path d="M93.76,3.98c-27.08,0-26.87,25.04-26.87,25.44c0,16.22,1.24,39.13,7.73,48.15 c2.57,3.57,7.55,3.77,7.55,3.77l11.21-0.02l11.21,0.02c0,0,4.98-0.2,7.55-3.77c6.49-9.01,7.73-31.93,7.73-48.15 C119.87,29.02,120.84,3.98,93.76,3.98z" style="fill:url(#SVGID_6_);"/>
      </g>
      <g id="XMLID_168_" style="clip-path:url(#SVGID_3_);">
        <path d="M93.16,71.73c-2.46,0-4.45-1.97-4.45-4.4v-5.59h10v5.59c0,2.42-2,4.4-4.45,4.4H93.16z" style="fill:#E59600;"/>
        <path d="M97.7,62.74v4.59c0,1.87-1.55,3.4-3.45,3.4h-1.09c-1.9,0-3.45-1.52-3.45-3.4v-4.59h4H97.7 M99.7,60.74h-6h-6v6.59c0,2.98,2.44,5.4,5.45,5.4h1.09c3.01,0,5.45-2.42,5.45-5.4V60.74L99.7,60.74z" style="fill:#D18100;"/>
      </g>
      <g style="clip-path:url(#SVGID_3_);">
        <linearGradient id="SVGID_7_" gradientUnits="userSpaceOnUse" x1="93.3804" x2="93.3804" y1="63.4674" y2="13.3972">
          <stop offset="0" style="stop-color:#FFB300"/>
          <stop offset="0.102" style="stop-color:#FFB809"/>
          <stop offset="0.3707" style="stop-color:#FFC21A"/>
          <stop offset="0.6592" style="stop-color:#FFC825"/>
          <stop offset="1" style="stop-color:#FFCA28"/>
        </linearGradient>
        <path d="M93.38,63.83c-1.48,0-3.17-0.32-4.88-0.93c-7.38-2.61-16-10.65-16-24.7 c0-18.72,11.25-25.36,20.88-25.36s20.88,6.64,20.88,25.36c0,14.07-8.63,22.11-16.03,24.71C96.53,63.52,94.85,63.83,93.38,63.83z" style="fill:url(#SVGID_7_);"/>
        <path d="M93.38,13.85L93.38,13.85c9.17,0,19.88,6.38,19.88,24.36c0,13.55-8.27,21.27-15.36,23.77 c-1.6,0.56-3.16,0.86-4.52,0.86c-1.37,0-2.94-0.3-4.55-0.87c-7.07-2.5-15.33-10.23-15.33-23.76 C73.5,20.23,84.21,13.85,93.38,13.85 M93.38,11.85L93.38,11.85L93.38,11.85c-11.36,0-21.88,8.45-21.88,26.36 c0,14.39,8.91,22.9,16.67,25.64c1.85,0.65,3.63,0.98,5.22,0.98c1.57,0,3.35-0.33,5.18-0.97c7.76-2.73,16.7-11.25,16.7-25.65 C115.26,20.29,104.74,11.85,93.38,11.85L93.38,11.85z" style="fill:#ED9E00;"/>
      </g>
      <g style="clip-path:url(#SVGID_3_);">
        <g>
          <radialGradient id="SVGID_8_" cx="138.8835" cy="-120.6021" gradientTransform="matrix(0.796 0 0 0.796 -16.851 96.9771)" gradientUnits="userSpaceOnUse" r="31.8378">
            <stop offset="0" style="stop-color:#6D4C41"/>
            <stop offset="1" style="stop-color:#543930"/>
          </radialGradient>
          <path d="M118.73,29.42c0,0,0.67-23.49-24.97-23.49S68.68,29.42,68.68,29.42s0.22,30.04,2.11,33.94 c1.89,3.91,4.75,3.77,4.75,3.77s-1.34-17.53-1.49-25.78c-0.04-1.93-0.62-9.06,3.4-9.97c14.77-3.32,23.12-11.15,23.12-11.15 c2.17,4.75,8.97,9.37,11.41,11.13c2,1.44,1.72,7.4,1.69,9.93l-2.01,25.8c0,0,3.09,0.25,5.05-3.73S118.73,29.42,118.73,29.42z" style="fill:url(#SVGID_8_);"/>
        </g>
      </g>
      <g style="clip-path:url(#SVGID_3_);">
        <path d="M96.22,46.2c-0.07-0.03-0.14-0.05-0.21-0.05H91.4c-0.07,0.01-0.14,0.03-0.21,0.05 c-0.42,0.17-0.65,0.6-0.45,1.06c0.2,0.46,1.12,1.76,2.97,1.76c1.85,0,2.77-1.3,2.97-1.76C96.87,46.8,96.64,46.37,96.22,46.2z" style="fill:#E59600;"/>
        <g>
          <ellipse cx="82.97" cy="40.13" rx="3.21" ry="3.33" style="fill:#404040;"/>
          <ellipse cx="104.44" cy="40.13" rx="3.21" ry="3.33" style="fill:#404040;"/>
          <path d="M87.75,34.15c-0.61-0.81-2.03-1.99-4.78-1.99c-2.75,0-4.16,1.18-4.78,1.99 c-0.27,0.36-0.2,0.77-0.01,1.02c0.17,0.23,0.69,0.45,1.26,0.26c0.57-0.19,1.68-0.77,3.54-0.78c1.86,0.01,2.97,0.59,3.54,0.78 c0.57,0.19,1.08-0.02,1.26-0.26C87.95,34.93,88.02,34.51,87.75,34.15z" style="fill:#6D4C41;"/>
          <path d="M109.21,34.15c-0.61-0.81-2.03-1.99-4.78-1.99c-2.75,0-4.16,1.18-4.78,1.99 c-0.27,0.36-0.2,0.77-0.01,1.02c0.17,0.23,0.69,0.45,1.26,0.26c0.57-0.19,1.68-0.77,3.54-0.78c1.86,0.01,2.97,0.59,3.54,0.78 c0.57,0.19,1.08-0.02,1.26-0.26C109.41,34.93,109.48,34.51,109.21,34.15z" style="fill:#6D4C41;"/>
        </g>
        <path d="M98.87,51.54c-2.08,1.24-8.89,1.24-10.97,0c-1.19-0.71-2.41,0.38-1.92,1.46 c0.49,1.07,4.21,3.54,7.42,3.54s6.88-2.47,7.37-3.54C101.27,51.91,100.07,50.83,98.87,51.54z" style="fill:#795548;"/>
      </g>
      <g style="clip-path:url(#SVGID_3_);">
        <path d="M93.76,6.98c7.42,0,13.17,2.03,17.09,6.03c6.05,6.17,6.04,15.29,6.02,16.31c0,0.02,0,0.08,0,0.1 c0,23.5-2.54,39.98-7.17,46.39c-1.57,2.18-4.83,2.49-5.2,2.52l-11.13-0.02l-11.12,0.02c-0.37-0.03-3.64-0.36-5.2-2.52 c-4.62-6.42-7.17-22.89-7.17-46.41c0-0.4,0.05-9.86,6.46-16.28C80.41,9.04,86.27,6.98,93.76,6.98 M93.76,3.98 c-27.08,0-26.87,25.04-26.87,25.44c0,16.22,1.24,39.13,7.73,48.15c2.57,3.57,7.55,3.77,7.55,3.77l11.21-0.02l11.21,0.02 c0,0,4.98-0.2,7.55-3.77c6.49-9.01,7.73-31.93,7.73-48.15C119.87,29.02,120.84,3.98,93.76,3.98L93.76,3.98z" style="fill:#3F2720;"/>
      </g>
      <g id="XMLID_18_" style="clip-path:url(#SVGID_3_);">
        <path d="M33.78,70.97c-2.44,0-4.42-1.94-4.42-4.32v-5.5h9.93v5.5c0,2.38-1.99,4.32-4.42,4.32H33.78z" style="fill:#E59600;"/>
        <path d="M38.29,62.15v4.5c0,1.83-1.54,3.32-3.42,3.32h-1.08c-1.89,0-3.42-1.49-3.42-3.32v-4.5h3.97H38.29 M40.29,60.15h-5.97h-5.97v6.5c0,2.94,2.43,5.32,5.42,5.32h1.08c3,0,5.42-2.38,5.42-5.32V60.15L40.29,60.15z" style="fill:#D18100;"/>
      </g>
      <g style="clip-path:url(#SVGID_3_);">
        <linearGradient id="SVGID_9_" gradientUnits="userSpaceOnUse" x1="33.8335" x2="33.8335" y1="62.4542" y2="13.1167">
          <stop offset="0" style="stop-color:#FFB300"/>
          <stop offset="0.102" style="stop-color:#FFB809"/>
          <stop offset="0.3707" style="stop-color:#FFC21A"/>
          <stop offset="0.6592" style="stop-color:#FFC825"/>
          <stop offset="1" style="stop-color:#FFCA28"/>
        </linearGradient>
        <path d="M33.83,62.82c-1.47,0-3.15-0.32-4.86-0.91c-7.34-2.57-15.91-10.49-15.91-24.34 c0-18.44,11.19-24.99,20.77-24.99S54.6,19.12,54.6,37.56c0,13.87-8.59,21.78-15.94,24.35C36.97,62.5,35.3,62.82,33.83,62.82z" style="fill:url(#SVGID_9_);"/>
        <path d="M33.83,13.57L33.83,13.57c9.12,0,19.77,6.28,19.77,23.99c0,13.34-8.22,20.95-15.27,23.4 c-1.59,0.55-3.15,0.85-4.5,0.85c-1.36,0-2.93-0.3-4.53-0.86c-7.03-2.47-15.24-10.07-15.24-23.39 C14.07,19.86,24.71,13.57,33.83,13.57 M33.83,11.57L33.83,11.57L33.83,11.57c-11.3,0-21.77,8.33-21.77,25.99 c0,14.19,8.86,22.58,16.58,25.28c1.84,0.65,3.61,0.97,5.19,0.97c1.57,0,3.33-0.32,5.16-0.96c7.72-2.69,16.61-11.09,16.61-25.29 C55.6,19.9,45.13,11.57,33.83,11.57L33.83,11.57z" style="fill:#ED9E00;"/>
      </g>
      <g style="clip-path:url(#SVGID_3_);">
        <g>
          <radialGradient id="SVGID_10_" cx="64.2881" cy="-121.0538" gradientTransform="matrix(0.796 0 0 0.7889 -16.851 96.7285)" gradientUnits="userSpaceOnUse" r="31.672">
            <stop offset="0" style="stop-color:#6D4C41"/>
            <stop offset="1" style="stop-color:#543930"/>
          </radialGradient>
          <path d="M59.22,29.27c0,0,0.67-23.16-24.84-23.16S9.43,29.27,9.43,29.27s0.22,29.61,2.1,33.46 c1.88,3.85,4.73,3.72,4.73,3.72s-1.33-17.28-1.49-25.42c-0.04-1.9-0.62-8.94,3.39-9.83c14.69-3.27,23-10.99,23-10.99 c2.16,4.68,8.92,9.24,11.35,10.98c1.99,1.42,1.71,7.29,1.68,9.79l-2,25.43c0,0,3.08,0.24,5.02-3.67 C59.16,58.82,59.22,29.27,59.22,29.27z" style="fill:url(#SVGID_10_);"/>
        </g>
      </g>
      <g style="clip-path:url(#SVGID_3_);">
        <path d="M36.83,45.81c-0.07-0.03-0.14-0.04-0.21-0.05h-4.59c-0.07,0.01-0.14,0.03-0.21,0.05 c-0.42,0.17-0.65,0.59-0.45,1.05c0.2,0.45,1.11,1.73,2.95,1.73c1.84,0,2.76-1.28,2.95-1.73C37.47,46.41,37.25,45.98,36.83,45.81z " style="fill:#E59600;"/>
        <g>
          <ellipse cx="23.65" cy="39.83" rx="3.2" ry="3.28" style="fill:#404040;"/>
          <ellipse cx="45" cy="39.83" rx="3.2" ry="3.28" style="fill:#404040;"/>
          <path d="M28.4,33.94c-0.61-0.8-2.02-1.96-4.75-1.96s-4.14,1.16-4.75,1.96c-0.27,0.35-0.2,0.76-0.01,1.01 c0.17,0.23,0.68,0.44,1.25,0.25c0.56-0.19,1.67-0.76,3.52-0.77c1.85,0.01,2.95,0.58,3.52,0.77c0.56,0.19,1.08-0.02,1.25-0.25 C28.6,34.7,28.67,34.29,28.4,33.94z" style="fill:#6D4C41;"/>
          <path d="M49.75,33.94c-0.61-0.8-2.02-1.96-4.75-1.96s-4.14,1.16-4.75,1.96c-0.27,0.35-0.2,0.76-0.01,1.01 c0.17,0.23,0.68,0.44,1.25,0.25c0.56-0.19,1.67-0.76,3.52-0.77c1.85,0.01,2.95,0.58,3.52,0.77c0.56,0.19,1.08-0.02,1.25-0.25 C49.95,34.7,50.02,34.29,49.75,33.94z" style="fill:#6D4C41;"/>
        </g>
        <path d="M39.3,50.71c-2.07,1.22-8.85,1.22-10.91,0c-1.19-0.7-2.4,0.37-1.91,1.44 c0.48,1.05,4.18,3.49,7.38,3.49c3.2,0,6.85-2.44,7.33-3.49C41.68,51.08,40.49,50.01,39.3,50.71z" style="fill:#795548;"/>
      </g>
      <path d="M15.32,69.53c-2.66-8.32-4.37-23.03-4.37-40.47 c0-0.39,0.05-9.73,6.42-16.05C21.42,9,27.25,6.96,34.7,6.96c7.38,0,13.1,2,17,5.94c6.02,6.09,6.01,15.08,5.99,16.08 c0,0.02,0,0.08,0,0.1c0,18.09-1.54,31.96-4.41,40.18c0.92,0.44,1.79,0.92,2.64,1.43c3.91-10.78,4.75-28.44,4.75-41.62 C60.67,28.69,61.64,4,34.7,4C7.76,4,7.97,28.69,7.97,29.08c0,12.81,1.07,31.05,4.7,41.89C13.52,70.46,14.4,69.97,15.32,69.53z" style="clip-path:url(#SVGID_3_);fill:#3F2720;"/>
      <g id="XMLID_4625_" style="clip-path:url(#SVGID_3_);">
        <g id="XMLID_4626_">
          <path d="M65.5,88.4c0-10.57,7.41-18.17,19.81-20.3c2.87-0.5,5.82-0.75,8.77-0.75 c4.21,0,8.49,0.51,12.71,1.51c12.34,2.93,19.71,10.24,19.71,19.54v38.62l-61,0.02V88.4z" style="fill:#AA00FF;"/>
          <path d="M94.08,68.85L94.08,68.85c4.1,0,8.26,0.49,12.37,1.47C110.8,71.36,125,75.71,125,88.4v37.12 l-58,0.01V88.4c0-9.78,6.94-16.82,18.57-18.83C88.35,69.1,91.21,68.85,94.08,68.85 M94.07,65.85c-2.96,0-5.97,0.24-9.02,0.77 C73.18,68.67,64,76.12,64,88.4v40.14l64-0.02V88.4c0-11.37-9.63-18.33-20.86-21C102.99,66.42,98.6,65.85,94.07,65.85 L94.07,65.85z" style="fill:#9900E6;"/>
        </g>
      </g>
      <g id="XMLID_4619_" style="clip-path:url(#SVGID_3_);">
        <linearGradient id="SVGID_11_" gradientUnits="userSpaceOnUse" x1="122" x2="122" y1="97" y2="127">
          <stop offset="0" style="stop-color:#FFB300"/>
          <stop offset="0.4007" style="stop-color:#FFCA28"/>
        </linearGradient>
        <rect height="30" style="fill:url(#SVGID_11_);" width="10" x="117" y="97"/>
        <path d="M126,98v28h-8V98H126 M128,96h-12v32h12V96L128,96z" style="fill:#EDA600;"/>
      </g>
      <radialGradient id="SVGID_12_" cx="64" cy="97.2459" gradientUnits="userSpaceOnUse" r="29.2276">
        <stop offset="0" style="stop-color:#212121"/>
        <stop offset="1" style="stop-color:#616161"/>
      </radialGradient>
      <path d="M85.1,66.62c-11.88,2.05-21.08,9.5-21.08,21.78 c0-12.28-9.67-19.73-21.55-21.78C40.63,66.3,39,66.1,37,65.98v62.56l27,0.01l27-0.01V65.95C89,66.06,87.07,66.28,85.1,66.62z" style="opacity:0.4;clip-path:url(#SVGID_3_);fill:url(#SVGID_12_);"/>
      <g id="XMLID_1875_" style="clip-path:url(#SVGID_3_);">
        <g id="XMLID_4603_">
          <path d="M67.62,138.12c-0.09-2.59,0.01-10.85,0.1-16.12c0-9.25,12.38-12.16,15.88-12.16h9.38 c3.5,0,15.87,2.91,15.87,12.14c0,0,0,0.6,0.01,1.06c0.16,9.99,0.14,13.71,0.09,15.08H67.62z" style="fill:#B2EBF2;"/>
          <path d="M92.98,110.84c3.28,0,14.87,2.67,14.87,11.14v0.28c0,0.04,0,0.33,0.01,0.8 c0.13,8.28,0.14,12.2,0.11,14.06H68.6c-0.04-3.16,0.03-10.11,0.12-15.14c0-8.47,11.6-11.14,14.88-11.14H92.98 M92.98,108.84 h-9.38c-4.35,0-16.88,3.3-16.88,13.14c0,0-0.31,17.14,0,17.14h43.12c0.31,0,0-16.51,0-16.86v-0.28 C109.85,112.14,97.33,108.84,92.98,108.84L92.98,108.84z" style="fill:#84BDC4;"/>
        </g>
        <g id="XMLID_4602_">
          <path d="M88.28,115.8c-2.31,0-4.19-1.88-4.19-4.19v-3.1h8.39v3.1C92.47,113.92,90.59,115.8,88.28,115.8z" style="fill:#E59600;"/>
          <path d="M91.97,109.01v2.6c0,2.04-1.66,3.69-3.69,3.69c-2.04,0-3.69-1.66-3.69-3.69v-2.6H91.97 M92.97,108.01h-9.39v3.6c0,2.59,2.1,4.69,4.69,4.69c2.59,0,4.69-2.1,4.69-4.69V108.01L92.97,108.01z" style="fill:#D18100;"/>
        </g>
        <g>
          <defs>
            <rect id="SVGID_13_" height="46.9" width="46.9" x="64.99" y="64.24"/>
          </defs>
          <clipPath id="SVGID_14_">
            <use style="overflow:visible;" xlink:href="#SVGID_13_"/>
          </clipPath>
          <g style="clip-path:url(#SVGID_14_);">
            <g>
              <path d="M73.79,99.83c-2.91,0-5.28-2.27-5.28-5.06c0-2.79,2.37-5.06,5.28-5.06h29.48 c2.91,0,5.28,2.27,5.28,5.06c0,2.79-2.37,5.06-5.28,5.06H73.79z" style="fill:#E59600;"/>
              <path d="M103.27,90.21c2.64,0,4.78,2.05,4.78,4.56s-2.14,4.56-4.78,4.56H99.3H77.77h-3.98 c-2.64,0-4.78-2.05-4.78-4.56s2.14-4.56,4.78-4.56h3.98H99.3H103.27 M103.27,89.21H99.3H77.77h-3.98 c-3.18,0-5.78,2.5-5.78,5.56s2.6,5.56,5.78,5.56h3.98H99.3h3.98c3.18,0,5.78-2.5,5.78-5.56S106.45,89.21,103.27,89.21 L103.27,89.21z" style="fill:#CC8600;"/>
            </g>
            <g>
              <linearGradient id="SVGID_15_" gradientUnits="userSpaceOnUse" x1="88.4194" x2="88.4194" y1="110.6172" y2="66.4451">
                <stop offset="0" style="stop-color:#FFB300"/>
                <stop offset="0.102" style="stop-color:#FFB809"/>
                <stop offset="0.3707" style="stop-color:#FFC21A"/>
                <stop offset="0.6592" style="stop-color:#FFC825"/>
                <stop offset="1" style="stop-color:#FFCA28"/>
              </linearGradient>
              <path d="M88.42,110.62c-8.41,0-17.46-6.4-17.46-20.46c0-11.25,6.68-23.39,17.46-23.39 c10.79,0,17.46,12.14,17.46,23.39C105.88,104.22,96.83,110.62,88.42,110.62z" style="fill:url(#SVGID_15_);"/>
              <path d="M88.42,67.27L88.42,67.27c4.28,0,8.54,2.29,11.69,6.28c3.4,4.3,5.27,10.2,5.27,16.61 c0,6.24-1.83,11.44-5.3,15.04c-3.05,3.17-7.19,4.91-11.66,4.91c-4.47,0-8.61-1.74-11.66-4.91c-3.47-3.6-5.3-8.8-5.3-15.04 c0-6.41,1.87-12.31,5.27-16.61C79.88,69.56,84.14,67.27,88.42,67.27 M88.42,66.27L88.42,66.27L88.42,66.27 c-9.33,0-17.96,9.8-17.96,23.9c0,14.02,8.9,20.95,17.96,20.95c9.06,0,17.96-6.93,17.96-20.95 C106.38,76.06,97.75,66.27,88.42,66.27L88.42,66.27z" style="fill:#EDA600;"/>
            </g>
            <path d="M90.42,96.72c-0.05-0.02-0.11-0.04-0.17-0.04h-3.63c-0.06,0.01-0.11,0.02-0.17,0.04 c-0.33,0.13-0.51,0.47-0.35,0.84c0.16,0.36,0.88,1.38,2.34,1.38c1.46,0,2.18-1.02,2.34-1.38 C90.93,97.19,90.75,96.85,90.42,96.72z" style="fill:#E59600;"/>
            <g>
              <path d="M76.2,89.41c0,0,0.07-0.1,0.2-0.26c0.03-0.04,0.06-0.08,0.11-0.13 c0.06-0.06,0.12-0.11,0.19-0.17c0.07-0.06,0.14-0.13,0.22-0.19c0.08-0.06,0.16-0.12,0.25-0.18c0.09-0.06,0.18-0.12,0.27-0.18 c0.1-0.05,0.2-0.11,0.31-0.17c0.11-0.06,0.22-0.11,0.34-0.15c0.12-0.05,0.24-0.09,0.36-0.14c0.25-0.07,0.52-0.15,0.79-0.18 c0.27-0.05,0.55-0.06,0.84-0.07c0.28,0.01,0.56,0.02,0.84,0.07c0.27,0.03,0.54,0.11,0.79,0.18c0.12,0.04,0.25,0.09,0.36,0.14 c0.12,0.05,0.23,0.09,0.34,0.15c0.11,0.06,0.21,0.11,0.31,0.17c0.1,0.06,0.19,0.12,0.27,0.18c0.09,0.06,0.17,0.11,0.24,0.18 c0.07,0.06,0.14,0.12,0.2,0.18c0.06,0.06,0.12,0.11,0.17,0.16c0.05,0.05,0.09,0.11,0.13,0.15c0.16,0.18,0.24,0.3,0.24,0.3 c0.26,0.36,0.18,0.87-0.18,1.13c-0.22,0.16-0.49,0.19-0.73,0.11l-0.15-0.05c0,0-0.1-0.03-0.25-0.1 c-0.04-0.02-0.08-0.04-0.13-0.06c-0.05-0.02-0.1-0.04-0.15-0.06c-0.11-0.04-0.23-0.09-0.36-0.13 c-0.07-0.02-0.13-0.05-0.2-0.07c-0.07-0.02-0.15-0.04-0.22-0.06c-0.04-0.01-0.07-0.02-0.11-0.03 c-0.04-0.01-0.08-0.01-0.12-0.02c-0.08-0.01-0.16-0.04-0.24-0.05c-0.17-0.02-0.34-0.05-0.51-0.06 c-0.17-0.02-0.35-0.02-0.53-0.03c-0.18,0.01-0.36,0-0.53,0.03c-0.18,0.01-0.35,0.04-0.51,0.06c-0.08,0.01-0.16,0.04-0.24,0.05 c-0.04,0.01-0.08,0.01-0.12,0.02c-0.04,0.01-0.08,0.02-0.11,0.03c-0.08,0.02-0.15,0.04-0.22,0.06 c-0.07,0.02-0.14,0.05-0.2,0.07c-0.07,0.02-0.13,0.04-0.19,0.06c-0.05,0.02-0.1,0.04-0.15,0.05 c-0.05,0.02-0.09,0.03-0.14,0.04c-0.05,0.02-0.1,0.05-0.15,0.07c-0.18,0.09-0.29,0.14-0.29,0.14 c-0.42,0.18-0.91-0.02-1.09-0.45C76.01,89.93,76.05,89.63,76.2,89.41z" style="fill:#6D4C41;"/>
              <path d="M99.67,90.64c0,0-0.11-0.05-0.29-0.14c-0.04-0.02-0.1-0.05-0.15-0.07 c-0.05-0.01-0.09-0.03-0.14-0.04c-0.05-0.02-0.1-0.03-0.15-0.05c-0.06-0.02-0.12-0.04-0.19-0.06 c-0.07-0.02-0.13-0.05-0.2-0.07c-0.07-0.02-0.15-0.04-0.22-0.06c-0.04-0.01-0.07-0.02-0.11-0.03 c-0.04-0.01-0.08-0.01-0.12-0.02c-0.08-0.01-0.16-0.04-0.24-0.05c-0.17-0.02-0.34-0.05-0.51-0.06 c-0.17-0.02-0.35-0.02-0.53-0.03c-0.18,0.01-0.36,0-0.53,0.03c-0.18,0.01-0.35,0.04-0.51,0.06 c-0.08,0.01-0.16,0.04-0.24,0.05c-0.04,0.01-0.08,0.01-0.12,0.02c-0.04,0.01-0.08,0.02-0.11,0.03 c-0.08,0.02-0.15,0.04-0.22,0.06c-0.07,0.02-0.14,0.05-0.2,0.07c-0.13,0.04-0.25,0.08-0.36,0.13 c-0.05,0.02-0.1,0.04-0.15,0.06c-0.05,0.02-0.09,0.04-0.13,0.06c-0.15,0.07-0.25,0.1-0.25,0.1l-0.14,0.05 c-0.42,0.15-0.88-0.08-1.03-0.5c-0.09-0.26-0.04-0.53,0.11-0.74c0,0,0.08-0.11,0.24-0.3c0.04-0.05,0.08-0.1,0.13-0.15 c0.05-0.05,0.11-0.1,0.17-0.16c0.06-0.06,0.13-0.12,0.2-0.18c0.07-0.06,0.16-0.11,0.24-0.18c0.09-0.06,0.18-0.12,0.27-0.18 c0.1-0.05,0.2-0.11,0.31-0.17c0.11-0.06,0.22-0.11,0.34-0.15c0.12-0.05,0.24-0.09,0.36-0.14c0.25-0.07,0.52-0.15,0.79-0.18 c0.27-0.05,0.55-0.06,0.84-0.07c0.28,0.01,0.56,0.02,0.83,0.07c0.27,0.03,0.54,0.11,0.79,0.18c0.12,0.04,0.25,0.09,0.36,0.14 c0.12,0.05,0.23,0.09,0.34,0.15c0.11,0.06,0.21,0.11,0.31,0.17c0.1,0.06,0.19,0.12,0.27,0.18c0.09,0.06,0.17,0.11,0.25,0.18 c0.08,0.07,0.15,0.13,0.22,0.19c0.07,0.06,0.13,0.12,0.19,0.17c0.05,0.05,0.08,0.09,0.11,0.13c0.13,0.16,0.2,0.26,0.2,0.26 c0.26,0.38,0.16,0.9-0.22,1.15C100.21,90.72,99.92,90.74,99.67,90.64z" style="fill:#6D4C41;"/>
            </g>
            <g>
              <ellipse cx="79.89" cy="94.07" rx="2.53" ry="2.62" style="fill:#404040;"/>
              <ellipse cx="96.98" cy="94.07" rx="2.53" ry="2.62" style="fill:#404040;"/>
            </g>
            <g>
              <g>
                <radialGradient id="SVGID_16_" cx="69.1042" cy="66.2391" gradientTransform="matrix(1.0432 0 0 1.0432 16.0579 -2.8603)" gradientUnits="userSpaceOnUse" r="24.0086">
                  <stop offset="0" style="stop-color:#6D4C41"/>
                  <stop offset="0.9006" style="stop-color:#543930"/>
                </radialGradient>
                <path d="M104.07,69.83c-2.33-2.43-4.54-3.46-4.76-3.49c-2.71-1.24-6.2-2.18-10.72-2.18 c-19.87,0-21.25,16.27-20.45,23.4c0.7,6.29,3.98,7.84,3.98,7.84s-0.64-5.49,0.4-9.47c0.83-3.16,2.8-5.5,2.8-5.5 s3.58,3.12,10.27,5.15c3.22,0.98,7.35,0.49,7.35,0.49l-2.32-4.1c0,0,3.78,2.79,6.14,3.32c3.02,0.68,5.24,0.39,5.24,0.39 l-1.11-4.33c0,0,1.92,1.26,3.36,4.71c1.44,3.45,0.55,9.34,0.55,9.34s3.46-1.54,4.01-7.84 C109.49,79.67,108.55,74.94,104.07,69.83z" style="fill:url(#SVGID_16_);"/>
              </g>
              <g>
                <defs>
                  <path id="SVGID_17_" d="M104.07,69.83c-2.19-2.49-4.54-3.46-4.76-3.49c-2.71-1.24-6.2-2.18-10.72-2.18 c-19.87,0-21.25,16.27-20.45,23.4c0.7,6.29,3.98,7.86,3.98,7.86l0-1.54l-1.35-3.65c-0.84-2.29-1.11-4.75-0.78-7.16 l0.45-3.28l18.03-11.59l17.92,11.59l0.47,3.19c0.38,2.57,0.08,5.19-0.88,7.61l-1.01,2.57l-0.17,2.26 c0,0,3.46-1.55,4.01-7.85C109.49,79.67,108.55,74.94,104.07,69.83z"/>
                </defs>
                <clipPath id="SVGID_18_">
                  <use style="overflow:visible;" xlink:href="#SVGID_17_"/>
                </clipPath>
                <g style="clip-path:url(#SVGID_18_);">
                  <path d="M88.59,66.16c3.67,0,6.99,0.67,9.88,2l0.28,0.13l0.06,0.01c0.56,0.27,2.34,1.27,3.75,2.85 c3.9,4.45,4.94,8.4,4.25,16.24c-0.01,0.12-0.02,0.23-0.03,0.34c-0.15-0.85-0.37-1.68-0.69-2.43 c-1.63-3.9-3.86-5.45-4.1-5.61l-4.32-2.85l1.29,5.02l0.47,1.84c-0.64-0.06-1.4-0.16-2.22-0.35c-1.41-0.32-4.06-2-5.4-2.98 l-7.51-5.53l4.58,8.12l0.69,1.22c-1.31-0.05-2.48-0.23-3.4-0.51c-6.14-1.86-9.51-4.72-9.53-4.74l-1.53-1.34l-1.31,1.56 c-0.09,0.11-2.27,2.73-3.2,6.28c-0.19,0.71-0.32,1.46-0.42,2.21c-0.01-0.1-0.02-0.2-0.04-0.3 c-0.26-2.35-0.74-10.43,4.15-15.9C77.4,67.94,82.22,66.16,88.59,66.16 M88.59,64.16c-19.87,0-21.25,16.27-20.45,23.4 c0.7,6.29,3.98,7.84,3.98,7.84s-0.64-5.49,0.4-9.47c0.83-3.16,2.8-5.5,2.8-5.5s3.58,3.12,10.27,5.15 c1.61,0.49,3.44,0.61,4.87,0.61c1.44,0,2.48-0.12,2.48-0.12l-2.32-4.1c0,0,3.78,2.79,6.14,3.32 c1.63,0.37,3.02,0.45,3.96,0.45c0.81,0,1.28-0.06,1.28-0.06l-1.11-4.33c0,0,1.92,1.26,3.36,4.71 c1.44,3.45,0.55,9.34,0.55,9.34s3.46-1.54,4.01-7.84c0.69-7.89-0.25-12.62-4.74-17.73c-1.98-2.21-4.54-3.46-4.76-3.49 C96.6,65.1,93.11,64.16,88.59,64.16L88.59,64.16z" style="fill:#402720;"/>
                </g>
              </g>
            </g>
            <path d="M92.74,100.89c-1.64,0.97-7,0.97-8.64,0c-0.94-0.56-1.9,0.3-1.51,1.15 c0.38,0.84,3.31,2.79,5.84,2.79s5.42-1.95,5.8-2.79C94.63,101.18,93.68,100.33,92.74,100.89z" style="fill:#795548;"/>
          </g>
        </g>
      </g>
      <g id="XMLID_1874_" style="clip-path:url(#SVGID_3_);">
        <g id="XMLID_4607_">
          <path d="M17.99,138.12c-0.09-2.59,0.01-10.89,0.1-16.18c0-9.41,12.59-12.37,16.15-12.37h9.52 c3.56,0,16.13,2.96,16.13,12.35c0,0,0,0.61,0.01,1.08c0.16,10.03,0.14,13.75,0.09,15.12H17.99z" style="fill:#E1BEE7;"/>
          <path d="M43.77,110.57c3.34,0,15.13,2.72,15.13,11.35v0.28c0,0.05,0,0.34,0.01,0.81 c0.14,8.31,0.14,12.24,0.11,14.1H18.97c-0.05-3.17,0.03-10.15,0.13-15.2c0-8.63,11.81-11.35,15.15-11.35H43.77 M43.77,108.57 h-9.52c-4.42,0-17.15,3.35-17.15,13.35c0,0-0.31,17.2,0,17.2H60.9c0.31,0,0-16.56,0-16.92v-0.28 C60.9,111.92,48.19,108.57,43.77,108.57L43.77,108.57z" style="fill:#CCA1D4;"/>
        </g>
        <g id="XMLID_4606_">
          <path d="M38.51,115.8c-2.09,0-3.79-1.7-3.79-3.79v-1.88h8.54v1.88c0,2.09-1.7,3.79-3.79,3.79H38.51z" style="fill:#E59600;"/>
          <path d="M42.76,110.63v1.38c0,1.81-1.47,3.29-3.29,3.29h-0.96c-1.81,0-3.29-1.47-3.29-3.29v-1.38H42.76 M43.76,109.63h-9.53v2.38c0,2.37,1.92,4.29,4.29,4.29h0.96c2.37,0,4.29-1.92,4.29-4.29V109.63L43.76,109.63z" style="fill:#D18100;"/>
        </g>
        <g>
          <defs>
            <rect id="SVGID_19_" height="46.9" width="46.9" x="15.36" y="64.24"/>
          </defs>
          <clipPath id="SVGID_20_">
            <use style="overflow:visible;" xlink:href="#SVGID_19_"/>
          </clipPath>
          <g style="clip-path:url(#SVGID_20_);">
            <radialGradient id="SVGID_21_" cx="20.8335" cy="99.4197" gradientUnits="userSpaceOnUse" r="11.3359">
              <stop offset="0" style="stop-color:#6D4C41"/>
              <stop offset="0.9006" style="stop-color:#543930"/>
            </radialGradient>
            <path d="M20.39,111.08l0.62-2.92l-5.39,1.35c0,0-0.38-5.2,4.26-8.2 c5.09-3.29,10.94,0.22,10.94,0.22s-0.58,3.93-4.06,7.3C24.41,111.09,20.39,111.08,20.39,111.08z" style="fill:url(#SVGID_21_);"/>
          </g>
          <g style="clip-path:url(#SVGID_20_);">
            <path d="M24.77,101.89L24.77,101.89c1.43,0,2.75,0.37,3.67,0.73c-0.44,1.23-1.34,3.08-3.08,4.77 c-0.65,0.63-1.55,1.03-2.42,1.29l0.02-0.11l0.66-3.13l-3.1,0.77l-2.53,0.63c0.41-1.26,1.25-2.76,2.97-3.87 C22.08,102.25,23.36,101.89,24.77,101.89 M24.76,99.89c-1.56,0-3.27,0.36-4.89,1.41c-4.64,3-4.26,8.2-4.26,8.2l5.39-1.35 l-0.62,2.92c0,0,0,0,0,0c0.08,0,4.05-0.01,6.36-2.26c3.48-3.38,4.06-7.3,4.06-7.3S28.1,99.89,24.76,99.89L24.76,99.89z" style="fill:#402720;"/>
          </g>
          <g style="clip-path:url(#SVGID_20_);">
            <radialGradient id="SVGID_22_" cx="56.3994" cy="99.6151" gradientUnits="userSpaceOnUse" r="11.3359">
              <stop offset="0" style="stop-color:#6D4C41"/>
              <stop offset="0.9006" style="stop-color:#543930"/>
            </radialGradient>
            <path d="M57.49,111.08l-0.62-2.92l5.39,1.35c0,0,0.38-5.2-4.26-8.2 c-5.09-3.29-10.94,0.22-10.94,0.22s0.58,3.93,4.06,7.3C53.47,111.09,57.49,111.08,57.49,111.08z" style="fill:url(#SVGID_22_);"/>
          </g>
          <g style="clip-path:url(#SVGID_20_);">
            <path d="M53.12,101.89c1.41,0,2.69,0.37,3.8,1.09c1.72,1.11,2.56,2.6,2.97,3.87l-2.53-0.63l-3.1-0.77 l0.66,3.13l0.02,0.11c-0.87-0.26-1.78-0.66-2.42-1.29c-1.73-1.68-2.63-3.54-3.08-4.77C50.37,102.26,51.68,101.89,53.12,101.89 M53.12,99.89c-3.34,0-6.05,1.63-6.05,1.63s0.58,3.93,4.06,7.3c2.32,2.25,6.28,2.26,6.36,2.26c0,0,0,0,0,0l-0.62-2.92 l5.39,1.35c0,0,0.38-5.2-4.26-8.2C56.38,100.25,54.68,99.89,53.12,99.89L53.12,99.89z" style="fill:#402720;"/>
          </g>
          <g style="clip-path:url(#SVGID_20_);">
            <path d="M24.27,99.83c-2.91,0-5.28-2.27-5.28-5.06c0-2.79,2.37-5.06,5.28-5.06h29.48 c2.79,0,4.89,2.18,4.89,5.06c0,2.89-2.1,5.06-4.89,5.06H24.27z" style="fill:#E59600;"/>
            <path d="M53.75,90.21c2.5,0,4.39,1.96,4.39,4.56s-1.89,4.56-4.39,4.56h-3.97H28.24h-3.98 c-2.64,0-4.78-2.05-4.78-4.56s2.14-4.56,4.78-4.56h3.98h21.53H53.75 M53.75,89.21h-3.97H28.24h-3.98 c-3.18,0-5.78,2.5-5.78,5.56s2.6,5.56,5.78,5.56h3.98h21.53h3.97c3.18,0,5.39-2.5,5.39-5.56S56.93,89.21,53.75,89.21 L53.75,89.21z" style="fill:#CC8600;"/>
          </g>
          <g style="clip-path:url(#SVGID_20_);">
            <linearGradient id="SVGID_23_" gradientUnits="userSpaceOnUse" x1="38.793" x2="38.793" y1="110.6172" y2="78.8924">
              <stop offset="0" style="stop-color:#FFB300"/>
              <stop offset="0.102" style="stop-color:#FFB809"/>
              <stop offset="0.3707" style="stop-color:#FFC21A"/>
              <stop offset="0.6592" style="stop-color:#FFC825"/>
              <stop offset="1" style="stop-color:#FFCA28"/>
            </linearGradient>
            <path d="M38.79,110.62c-7.09,0-17.07-6.35-17.07-20.46c0-13.12,7.5-23.39,17.07-23.39 s17.07,10.28,17.07,23.39C55.87,104.27,45.88,110.62,38.79,110.62z" style="fill:url(#SVGID_23_);"/>
            <path d="M38.79,67.27L38.79,67.27c8.15,0,16.57,8.56,16.57,22.9c0,13.76-9.69,19.95-16.57,19.95 c-6.88,0-16.57-6.19-16.57-19.95C22.22,75.83,30.65,67.27,38.79,67.27 M38.79,66.27L38.79,66.27L38.79,66.27 c-9.33,0-17.57,9.8-17.57,23.9c0,14.02,9.87,20.95,17.57,20.95c7.7,0,17.57-6.93,17.57-20.95 C56.37,76.06,48.12,66.27,38.79,66.27L38.79,66.27z" style="fill:#EDA600;"/>
          </g>
          <path d="M53.78,42.22c1.59-2.56,0.78-5.64,0.78-5.64s-1.19,2.81-4.7,2.25 c-0.22-0.04-0.44-0.07-0.65-0.09c-2.6-1.24-5.94-2.17-10.28-2.17C19.88,36.6,18.37,52.82,19.15,59.95 c0.26,2.36,0.51,2.94,0.51,2.94l3.44,2.91l-0.29-1.84l-1.7-1.43l-0.31-2.41l18.23-10.3l18.03,12.75l-2.31,1.55l-0.17,1.76 l3.55-2.8c0,0,0.21-2.91,0.22-3.14C58.67,51.79,58.09,47.33,53.78,42.22z" style="clip-path:url(#SVGID_20_);fill:none;"/>
          <path d="M40.79,96.72c-0.05-0.02-0.11-0.04-0.17-0.04h-3.63 c-0.06,0.01-0.11,0.02-0.17,0.04c-0.33,0.13-0.51,0.47-0.35,0.84c0.16,0.36,0.88,1.38,2.34,1.38c1.46,0,2.18-1.02,2.34-1.38 C41.31,97.19,41.12,96.85,40.79,96.72z" style="clip-path:url(#SVGID_20_);fill:#E59600;"/>
          <g style="clip-path:url(#SVGID_20_);">
            <path d="M26.58,89.41c0,0,0.07-0.1,0.2-0.26c0.03-0.04,0.06-0.08,0.11-0.13 c0.06-0.06,0.12-0.11,0.19-0.17c0.07-0.06,0.14-0.13,0.22-0.19c0.08-0.06,0.16-0.12,0.25-0.18c0.09-0.06,0.18-0.12,0.27-0.18 c0.1-0.05,0.2-0.11,0.31-0.17c0.11-0.06,0.22-0.11,0.34-0.15c0.12-0.05,0.24-0.09,0.36-0.14c0.25-0.07,0.52-0.15,0.79-0.18 c0.27-0.05,0.55-0.06,0.84-0.07c0.28,0.01,0.56,0.02,0.84,0.07c0.27,0.03,0.54,0.11,0.79,0.18c0.12,0.04,0.25,0.09,0.36,0.14 c0.12,0.05,0.23,0.09,0.34,0.15c0.11,0.06,0.21,0.11,0.31,0.17c0.1,0.06,0.19,0.12,0.27,0.18c0.09,0.06,0.17,0.11,0.24,0.18 c0.07,0.06,0.14,0.12,0.2,0.18c0.06,0.06,0.12,0.11,0.17,0.16c0.05,0.05,0.09,0.11,0.13,0.15c0.16,0.18,0.24,0.3,0.24,0.3 c0.26,0.36,0.18,0.87-0.18,1.13c-0.22,0.16-0.49,0.19-0.73,0.11l-0.15-0.05c0,0-0.1-0.03-0.25-0.1 c-0.04-0.02-0.08-0.04-0.13-0.06c-0.05-0.02-0.1-0.04-0.15-0.06c-0.11-0.04-0.23-0.09-0.36-0.13c-0.07-0.02-0.13-0.05-0.2-0.07 c-0.07-0.02-0.15-0.04-0.22-0.06c-0.04-0.01-0.07-0.02-0.11-0.03c-0.04-0.01-0.08-0.01-0.12-0.02 c-0.08-0.01-0.16-0.04-0.24-0.05c-0.17-0.02-0.34-0.05-0.51-0.06c-0.17-0.02-0.35-0.02-0.53-0.03c-0.18,0.01-0.36,0-0.53,0.03 c-0.18,0.01-0.35,0.04-0.51,0.06c-0.08,0.01-0.16,0.04-0.24,0.05c-0.04,0.01-0.08,0.01-0.12,0.02 c-0.04,0.01-0.08,0.02-0.11,0.03c-0.08,0.02-0.15,0.04-0.22,0.06c-0.07,0.02-0.14,0.05-0.2,0.07 c-0.07,0.02-0.13,0.04-0.19,0.06c-0.05,0.02-0.1,0.04-0.15,0.05c-0.05,0.02-0.09,0.03-0.14,0.04c-0.05,0.02-0.1,0.05-0.15,0.07 c-0.18,0.09-0.29,0.14-0.29,0.14c-0.42,0.18-0.91-0.02-1.09-0.45C26.39,89.93,26.43,89.63,26.58,89.41z" style="fill:#6D4C41;"/>
            <path d="M50.04,90.64c0,0-0.11-0.05-0.29-0.14c-0.04-0.02-0.1-0.05-0.15-0.07 c-0.05-0.01-0.09-0.03-0.14-0.04c-0.05-0.02-0.1-0.03-0.15-0.05c-0.06-0.02-0.12-0.04-0.19-0.06 c-0.07-0.02-0.13-0.05-0.2-0.07c-0.07-0.02-0.15-0.04-0.22-0.06c-0.04-0.01-0.07-0.02-0.11-0.03 c-0.04-0.01-0.08-0.01-0.12-0.02c-0.08-0.01-0.16-0.04-0.24-0.05c-0.17-0.02-0.34-0.05-0.51-0.06 c-0.17-0.02-0.35-0.02-0.53-0.03c-0.18,0.01-0.36,0-0.53,0.03c-0.18,0.01-0.35,0.04-0.51,0.06c-0.08,0.01-0.16,0.04-0.24,0.05 c-0.04,0.01-0.08,0.01-0.12,0.02c-0.04,0.01-0.08,0.02-0.11,0.03c-0.08,0.02-0.15,0.04-0.22,0.06 c-0.07,0.02-0.14,0.05-0.2,0.07c-0.13,0.04-0.25,0.08-0.36,0.13c-0.05,0.02-0.1,0.04-0.15,0.06 c-0.05,0.02-0.09,0.04-0.13,0.06c-0.15,0.07-0.25,0.1-0.25,0.1l-0.14,0.05c-0.42,0.15-0.88-0.08-1.03-0.5 c-0.09-0.26-0.04-0.53,0.11-0.74c0,0,0.08-0.11,0.24-0.3c0.04-0.05,0.08-0.1,0.13-0.15c0.05-0.05,0.11-0.1,0.17-0.16 c0.06-0.06,0.13-0.12,0.2-0.18c0.07-0.06,0.16-0.11,0.24-0.18c0.09-0.06,0.18-0.12,0.27-0.18c0.1-0.05,0.2-0.11,0.31-0.17 c0.11-0.06,0.22-0.11,0.34-0.15c0.12-0.05,0.24-0.09,0.36-0.14c0.25-0.07,0.52-0.15,0.79-0.18c0.27-0.05,0.55-0.06,0.83-0.07 c0.28,0.01,0.56,0.02,0.84,0.07c0.27,0.03,0.54,0.11,0.79,0.18c0.12,0.04,0.25,0.09,0.36,0.14c0.12,0.05,0.23,0.09,0.34,0.15 c0.11,0.06,0.21,0.11,0.31,0.17c0.1,0.06,0.19,0.12,0.27,0.18c0.09,0.06,0.17,0.11,0.25,0.18c0.08,0.07,0.15,0.13,0.22,0.19 c0.07,0.06,0.13,0.12,0.19,0.17c0.05,0.05,0.08,0.09,0.11,0.13c0.13,0.16,0.2,0.26,0.2,0.26c0.26,0.38,0.16,0.9-0.22,1.15 C50.59,90.72,50.29,90.74,50.04,90.64z" style="fill:#6D4C41;"/>
          </g>
          <g style="clip-path:url(#SVGID_20_);">
            <ellipse cx="30.27" cy="94.07" rx="2.53" ry="2.62" style="fill:#404040;"/>
            <ellipse cx="47.36" cy="94.07" rx="2.53" ry="2.62" style="fill:#404040;"/>
          </g>
          <path d="M43.12,101.05c-1.64,0.97-7,0.97-8.64,0c-0.94-0.56-1.9,0.3-1.51,1.15 c0.38,0.84,3.31,2.79,5.84,2.79s5.42-1.95,5.8-2.79C45,101.35,44.06,100.49,43.12,101.05z" style="clip-path:url(#SVGID_20_);fill:#795548;"/>
          <g style="clip-path:url(#SVGID_20_);">
            <g>
              <radialGradient id="SVGID_24_" cx="21.5322" cy="33.5717" gradientTransform="matrix(1.0432 0 0 1.0432 16.0579 -1.4497)" gradientUnits="userSpaceOnUse" r="24.0086">
                <stop offset="0" style="stop-color:#6D4C41"/>
                <stop offset="0.9006" style="stop-color:#543930"/>
              </radialGradient>
              <path d="M54.44,37.16c-2.33-2.43-4.54-3.46-4.76-3.49c-2.71-1.24-6.2-2.18-10.72-2.18 c-19.87,0-21.25,16.27-20.45,23.4c0.7,6.29,3.98,7.84,3.98,7.84s-0.64-5.49,0.4-9.47c0.83-3.16,2.8-5.5,2.8-5.5 s3.58,3.12,10.27,5.15c3.22,0.98,7.35,0.49,7.35,0.49l-2.32-4.1c0,0,3.78,2.79,6.14,3.32c3.02,0.68,5.24,0.39,5.24,0.39 l-1.11-4.33c0,0,1.92,1.26,3.36,4.71c1.44,3.45,0.55,9.34,0.55,9.34s3.46-1.54,4.01-7.84C59.87,47,58.92,42.28,54.44,37.16z" style="fill:url(#SVGID_24_);"/>
            </g>
            <g>
              <defs>
                <path id="SVGID_25_" d="M54.44,37.16c-2.19-2.49-4.54-3.46-4.76-3.49c-2.71-1.24-6.2-2.18-10.72-2.18 c-19.87,0-21.25,16.27-20.45,23.4c0.7,6.29,3.98,7.86,3.98,7.86l0-1.54c0,0-1.23-1.29-1.64-2.14 c-0.41-0.85-0.04-11.96-0.04-11.96l18.03-4.81l17.92,4.81c0,0,0.71,11.24,0.05,12.11s-1.47,1.25-1.47,1.25l-0.17,2.26 c0,0,3.46-1.55,4.01-7.85C59.87,47.01,58.92,42.28,54.44,37.16z"/>
              </defs>
              <clipPath id="SVGID_26_">
                <use style="overflow:visible;" xlink:href="#SVGID_25_"/>
              </clipPath>
              <g style="clip-path:url(#SVGID_26_);">
                <path d="M38.96,34.49c3.52,0,6.71,0.64,9.47,1.91l0.42,0.19l0.04,0.01c0.62,0.32,2.11,1.22,3.29,2.54 c2.88,3.29,4.11,6.31,4.19,11.05c-1.5-2.61-3.1-3.77-3.47-4.01l-6.49-4.27l1.93,7.52l0.1,0.4 c-0.21-0.04-0.43-0.08-0.66-0.13c-1.18-0.27-3.7-1.84-5.03-2.81l-11.28-8.31l6.64,11.76c-0.48-0.08-0.91-0.17-1.3-0.29 c-5.9-1.79-9.15-4.52-9.17-4.54l-2.3-2l-1.97,2.33c-0.15,0.18-0.99,1.2-1.85,2.79c0.38-2.98,1.4-6.45,3.85-9.19 C28.33,36.16,32.89,34.49,38.96,34.49 M38.96,31.49c-19.87,0-21.25,16.27-20.45,23.4c0.7,6.29,3.98,7.84,3.98,7.84 s-0.64-5.49,0.4-9.47c0.83-3.16,2.8-5.5,2.8-5.5s3.58,3.12,10.27,5.15c1.61,0.49,3.44,0.61,4.87,0.61 c1.44,0,2.48-0.12,2.48-0.12l-2.32-4.1c0,0,3.78,2.79,6.14,3.32c1.63,0.37,3.02,0.45,3.96,0.45c0.81,0,1.28-0.06,1.28-0.06 l-1.11-4.33c0,0,1.92,1.26,3.36,4.71c1.44,3.45,0.55,9.34,0.55,9.34s3.46-1.54,4.01-7.84c0.69-7.89-0.25-12.62-4.74-17.74 c-1.98-2.21-4.54-3.46-4.76-3.49C46.97,32.43,43.48,31.49,38.96,31.49L38.96,31.49z" style="fill:#402720;"/>
              </g>
            </g>
          </g>
          <line style="clip-path:url(#SVGID_20_);fill:none;" x1="47" x2="25" y1="85" y2="85"/>
          <g style="clip-path:url(#SVGID_20_);">
            <g>
              <radialGradient id="SVGID_27_" cx="21.5322" cy="66.3205" gradientTransform="matrix(1.0432 0 0 1.0432 16.0579 -2.8638)" gradientUnits="userSpaceOnUse" r="24.0086">
                <stop offset="0" style="stop-color:#6D4C41"/>
                <stop offset="1" style="stop-color:#543930"/>
              </radialGradient>
              <path d="M54.44,69.91c-2.33-2.43-4.54-3.46-4.76-3.49c-2.71-1.24-6.2-2.18-10.72-2.18 c-19.87,0-21.25,16.27-20.45,23.4c0.7,6.29,4.37,7.84,4.37,7.84l-0.6-6.12c0,0,7.29-1.92,11.04-4.83s5.48-5.39,5.48-5.39 s1.27,1.87,5.44,5.34s11.04,4.92,11.04,4.92l-0.51,6.07c0,0,3.85-1.54,4.4-7.84C59.87,79.75,58.92,75.02,54.44,69.91z" style="fill:url(#SVGID_27_);"/>
            </g>
            <g>
              <defs>
                <path id="SVGID_28_" d="M54.44,69.99c-2.19-2.49-4.54-3.46-4.76-3.49c-2.71-1.24-6.2-2.18-10.72-2.18 c-19.87,0-21.25,16.27-20.45,23.4c0.7,6.29,4.37,7.86,4.37,7.86l-0.03-1.34l-1.97-5.04c-0.59-2.08-0.61-4.29-0.05-6.38 l0.77-2.87l17.24-10.39l17.13,10.39l0.79,3.2c0.57,2.3,0.72,4.72-0.08,6.95l-1.73,3.74l-0.18,1.74c0,0,3.85-1.55,4.4-7.85 C59.87,79.84,58.92,75.11,54.44,69.99z"/>
              </defs>
              <clipPath id="SVGID_29_">
                <use style="overflow:visible;" xlink:href="#SVGID_28_"/>
              </clipPath>
              <g style="clip-path:url(#SVGID_29_);">
                <path d="M38.96,66.32c3.67,0,6.99,0.67,9.88,2l0.28,0.13l0.06,0.01c0.56,0.27,2.34,1.27,3.75,2.85 c3.9,4.45,4.94,8.4,4.25,16.24c-0.04,0.43-0.09,0.82-0.16,1.2c-0.07-1.27-0.23-2.49-0.56-3.29c-1.63-3.9-3.86-5.45-4.1-5.61 L48.03,77l1.29,5.02l0.47,1.84c-0.64-0.06-1.4-0.16-2.22-0.35c-1.41-0.32-4.06-2-5.4-2.98L34.66,75l4.59,8.12l0.69,1.22 c-1.31-0.05-2.48-0.23-3.4-0.51c-6.14-1.86-9.51-4.72-9.53-4.74l-1.53-1.34l-1.31,1.56c-0.09,0.11-2.27,2.73-3.2,6.28 c-0.19,0.74-0.33,1.53-0.41,2.32c-0.02-0.13-0.04-0.27-0.05-0.41c-0.26-2.35-0.74-10.43,4.15-15.9 C27.78,68.1,32.59,66.32,38.96,66.32 M38.96,64.32c-19.87,0-21.25,16.27-20.45,23.4c0.7,6.29,4.37,7.84,4.37,7.84 s-1.03-5.49,0.01-9.47c0.83-3.16,2.8-5.5,2.8-5.5s3.58,3.12,10.27,5.15c1.61,0.49,3.44,0.61,4.87,0.61 c1.44,0,2.48-0.12,2.48-0.12l-2.32-4.1c0,0,3.78,2.79,6.14,3.32c1.63,0.37,3.02,0.45,3.96,0.45c0.81,0,1.28-0.06,1.28-0.06 l-1.11-4.33c0,0,1.92,1.26,3.36,4.71c0.76,1.81,0.3,7.54,0.3,7.54l-0.15,1.86c0,0,3.85-1.6,4.4-7.9 c0.69-7.89-0.25-12.62-4.74-17.74c-1.98-2.21-4.54-3.46-4.76-3.49C46.97,65.26,43.48,64.32,38.96,64.32L38.96,64.32z" style="fill:#402720;"/>
              </g>
            </g>
          </g>
        </g>
      </g>
      <rect height="128" style="clip-path:url(#SVGID_3_);fill:none;" width="128"/>
    </g>
  </g>
  <g id="Layer_2" style="display:none;">
    <g style="display:inline;">
      <g style="opacity:0.6;">
        <circle cx="64" cy="64" r="28" style="opacity:0.61;fill:none;stroke:#000000;stroke-width:0.2625;stroke-miterlimit:10;"/>
        <line style="opacity:0.61;fill:none;stroke:#000000;stroke-width:0.25;stroke-miterlimit:10;" x1="84" x2="84" y1="0" y2="128"/>
        <line style="opacity:0.61;fill:none;stroke:#000000;stroke-width:0.25;stroke-miterlimit:10;" x1="44" x2="44" y1="0" y2="128"/>
        <line style="opacity:0.61;fill:none;stroke:#000000;stroke-width:0.25;stroke-miterlimit:10;" x1="64" x2="64" y1="0" y2="128"/>
        <line style="opacity:0.61;fill:none;stroke:#000000;stroke-width:0.25;stroke-miterlimit:10;" x1="128" x2="0" y1="64" y2="64"/>
        <line style="opacity:0.61;fill:none;stroke:#000000;stroke-width:0.25;stroke-miterlimit:10;" x1="128" x2="0" y1="44" y2="44"/>
        <line style="opacity:0.61;fill:none;stroke:#000000;stroke-width:0.25;stroke-miterlimit:10;" x1="128" x2="0" y1="83.75" y2="83.75"/>
        <line style="opacity:0.61;fill:none;stroke:#000000;stroke-width:0.25;stroke-miterlimit:10;" x1="128" x2="0" y1="128" y2="0"/>
        <line style="opacity:0.61;fill:none;stroke:#000000;stroke-width:0.25;stroke-miterlimit:10;" x1="0" x2="128" y1="128" y2="0"/>
        <g style="opacity:0.61;">
          <path d="M64,4.26c32.94,0,59.74,26.8,59.74,59.74S96.94,123.74,64,123.74S4.26,96.94,4.26,64S31.06,4.26,64,4.26 M64,4 C30.86,4,4,30.86,4,64s26.86,60,60,60s60-26.86,60-60S97.14,4,64,4L64,4z"/>
        </g>
        <path d="M107.97,115.97H20.03 c-4.42,0-8.03-3.61-8.03-8.03V20.03c0-4.42,3.61-8.03,8.03-8.03h87.94c4.42,0,8.03,3.61,8.03,8.03v87.91 C116,112.36,112.39,115.97,107.97,115.97z" style="opacity:0.61;fill:none;stroke:#000000;stroke-width:0.2578;stroke-miterlimit:10;"/>
        <path d="M100,124H28c-4.4,0-8-3.6-8-8 V12c0-4.4,3.6-8,8-8h72c4.4,0,8,3.6,8,8v104C108,120.4,104.4,124,100,124z" style="opacity:0.61;fill:none;stroke:#000000;stroke-width:0.2628;stroke-miterlimit:10;"/>
        <path d="M113.77,108H14.23 C8.6,108,4,103.4,4,97.77V30.28c0-5.63,4.6-10.23,10.23-10.23h99.54c5.63,0,10.23,4.6,10.23,10.23v67.48 C124,103.4,119.4,108,113.77,108z" style="opacity:0.61;fill:none;stroke:#000000;stroke-width:0.2627;stroke-miterlimit:10;"/>
      </g>
      <g>
        <g style="opacity:0.2;">
          <defs>
            <rect id="SVGID_1_" height="128" style="opacity:0.2;" width="128" x="0" y="0"/>
          </defs>
          <clipPath id="SVGID_30_">
            <use style="overflow:visible;" xlink:href="#SVGID_1_"/>
          </clipPath>
          <g style="clip-path:url(#SVGID_30_);">
            <g>
              <line style="fill:none;stroke:#000000;stroke-width:0.25;stroke-miterlimit:10;" x1="-28" x2="-28" y1="160" y2="-32"/>
              <line style="fill:none;stroke:#000000;stroke-width:0.25;stroke-miterlimit:10;" x1="-24" x2="-24" y1="160" y2="-32"/>
              <line style="fill:none;stroke:#000000;stroke-width:0.25;stroke-miterlimit:10;" x1="-20" x2="-20" y1="160" y2="-32"/>
              <line style="fill:none;stroke:#000000;stroke-width:0.25;stroke-miterlimit:10;" x1="-16" x2="-16" y1="160" y2="-32"/>
              <line style="fill:none;stroke:#000000;stroke-width:0.25;stroke-miterlimit:10;" x1="-12" x2="-12" y1="160" y2="-32"/>
              <line style="fill:none;stroke:#000000;stroke-width:0.25;stroke-miterlimit:10;" x1="-8" x2="-8" y1="160" y2="-32"/>
              <line style="fill:none;stroke:#000000;stroke-width:0.25;stroke-miterlimit:10;" x1="-4" x2="-4" y1="160" y2="-32"/>
              <line style="fill:none;stroke:#000000;stroke-width:0.25;stroke-miterlimit:10;" x1="0" x2="0" y1="160" y2="-32"/>
              <line style="fill:none;stroke:#000000;stroke-width:0.25;stroke-miterlimit:10;" x1="4" x2="4" y1="160" y2="-32"/>
              <line style="fill:none;stroke:#000000;stroke-width:0.25;stroke-miterlimit:10;" x1="8" x2="8" y1="160" y2="-32"/>
              <line style="fill:none;stroke:#000000;stroke-width:0.25;stroke-miterlimit:10;" x1="12" x2="12" y1="160" y2="-32"/>
              <line style="fill:none;stroke:#000000;stroke-width:0.25;stroke-miterlimit:10;" x1="16" x2="16" y1="160" y2="-32"/>
              <line style="fill:none;stroke:#000000;stroke-width:0.25;stroke-miterlimit:10;" x1="20" x2="20" y1="160" y2="-32"/>
              <line style="fill:none;stroke:#000000;stroke-width:0.25;stroke-miterlimit:10;" x1="24" x2="24" y1="160" y2="-32"/>
              <line style="fill:none;stroke:#000000;stroke-width:0.25;stroke-miterlimit:10;" x1="28" x2="28" y1="160" y2="-32"/>
              <line style="fill:none;stroke:#000000;stroke-width:0.25;stroke-miterlimit:10;" x1="32" x2="32" y1="160" y2="-32"/>
              <line style="fill:none;stroke:#000000;stroke-width:0.25;stroke-miterlimit:10;" x1="36" x2="36" y1="160" y2="-32"/>
              <line style="fill:none;stroke:#000000;stroke-width:0.25;stroke-miterlimit:10;" x1="40" x2="40" y1="160" y2="-32"/>
              <line style="fill:none;stroke:#000000;stroke-width:0.25;stroke-miterlimit:10;" x1="44" x2="44" y1="160" y2="-32"/>
              <line style="fill:none;stroke:#000000;stroke-width:0.25;stroke-miterlimit:10;" x1="48" x2="48" y1="160" y2="-32"/>
              <line style="fill:none;stroke:#000000;stroke-width:0.25;stroke-miterlimit:10;" x1="52" x2="52" y1="160" y2="-32"/>
              <line style="fill:none;stroke:#000000;stroke-width:0.25;stroke-miterlimit:10;" x1="56" x2="56" y1="160" y2="-32"/>
              <line style="fill:none;stroke:#000000;stroke-width:0.25;stroke-miterlimit:10;" x1="60" x2="60" y1="160" y2="-32"/>
              <line style="fill:none;stroke:#000000;stroke-width:0.25;stroke-miterlimit:10;" x1="64" x2="64" y1="160" y2="-32"/>
              <line style="fill:none;stroke:#000000;stroke-width:0.25;stroke-miterlimit:10;" x1="68" x2="68" y1="160" y2="-32"/>
              <line style="fill:none;stroke:#000000;stroke-width:0.25;stroke-miterlimit:10;" x1="72" x2="72" y1="160" y2="-32"/>
              <line style="fill:none;stroke:#000000;stroke-width:0.25;stroke-miterlimit:10;" x1="76" x2="76" y1="160" y2="-32"/>
              <line style="fill:none;stroke:#000000;stroke-width:0.25;stroke-miterlimit:10;" x1="80" x2="80" y1="160" y2="-32"/>
              <line style="fill:none;stroke:#000000;stroke-width:0.25;stroke-miterlimit:10;" x1="84" x2="84" y1="160" y2="-32"/>
              <line style="fill:none;stroke:#000000;stroke-width:0.25;stroke-miterlimit:10;" x1="88" x2="88" y1="160" y2="-32"/>
              <line style="fill:none;stroke:#000000;stroke-width:0.25;stroke-miterlimit:10;" x1="92" x2="92" y1="160" y2="-32"/>
              <line style="fill:none;stroke:#000000;stroke-width:0.25;stroke-miterlimit:10;" x1="96" x2="96" y1="160" y2="-32"/>
              <line style="fill:none;stroke:#000000;stroke-width:0.25;stroke-miterlimit:10;" x1="100" x2="100" y1="160" y2="-32"/>
              <line style="fill:none;stroke:#000000;stroke-width:0.25;stroke-miterlimit:10;" x1="104" x2="104" y1="160" y2="-32"/>
              <line style="fill:none;stroke:#000000;stroke-width:0.25;stroke-miterlimit:10;" x1="108" x2="108" y1="160" y2="-32"/>
              <line style="fill:none;stroke:#000000;stroke-width:0.25;stroke-miterlimit:10;" x1="112" x2="112" y1="160" y2="-32"/>
              <line style="fill:none;stroke:#000000;stroke-width:0.25;stroke-miterlimit:10;" x1="116" x2="116" y1="160" y2="-32"/>
              <line style="fill:none;stroke:#000000;stroke-width:0.25;stroke-miterlimit:10;" x1="120" x2="120" y1="160" y2="-32"/>
              <line style="fill:none;stroke:#000000;stroke-width:0.25;stroke-miterlimit:10;" x1="124" x2="124" y1="160" y2="-32"/>
              <line style="fill:none;stroke:#000000;stroke-width:0.25;stroke-miterlimit:10;" x1="128" x2="128" y1="160" y2="-32"/>
              <line style="fill:none;stroke:#000000;stroke-width:0.25;stroke-miterlimit:10;" x1="132" x2="132" y1="160" y2="-32"/>
              <line style="fill:none;stroke:#000000;stroke-width:0.25;stroke-miterlimit:10;" x1="136" x2="136" y1="160" y2="-32"/>
              <line style="fill:none;stroke:#000000;stroke-width:0.25;stroke-miterlimit:10;" x1="137" x2="137" y1="166.05" y2="-25.95"/>
              <line style="fill:none;stroke:#000000;stroke-width:0.25;stroke-miterlimit:10;" x1="144" x2="144" y1="160" y2="-32"/>
              <line style="fill:none;stroke:#000000;stroke-width:0.25;stroke-miterlimit:10;" x1="148" x2="148" y1="160" y2="-32"/>
              <line style="fill:none;stroke:#000000;stroke-width:0.25;stroke-miterlimit:10;" x1="152" x2="152" y1="160" y2="-32"/>
              <line style="fill:none;stroke:#000000;stroke-width:0.25;stroke-miterlimit:10;" x1="156" x2="156" y1="160" y2="-32"/>
            </g>
            <g>
              <line style="fill:none;stroke:#000000;stroke-width:0.25;stroke-miterlimit:10;" x1="-32" x2="160" y1="-28" y2="-28"/>
              <line style="fill:none;stroke:#000000;stroke-width:0.25;stroke-miterlimit:10;" x1="-32" x2="160" y1="-24" y2="-24"/>
              <line style="fill:none;stroke:#000000;stroke-width:0.25;stroke-miterlimit:10;" x1="-32" x2="160" y1="-20" y2="-20"/>
              <line style="fill:none;stroke:#000000;stroke-width:0.25;stroke-miterlimit:10;" x1="-32" x2="160" y1="-16" y2="-16"/>
              <line style="fill:none;stroke:#000000;stroke-width:0.25;stroke-miterlimit:10;" x1="-32" x2="160" y1="-12" y2="-12"/>
              <line style="fill:none;stroke:#000000;stroke-width:0.25;stroke-miterlimit:10;" x1="-32" x2="160" y1="-8" y2="-8"/>
              <line style="fill:none;stroke:#000000;stroke-width:0.25;stroke-miterlimit:10;" x1="-32" x2="160" y1="-4" y2="-4"/>
              <line style="fill:none;stroke:#000000;stroke-width:0.25;stroke-miterlimit:10;" x1="-32" x2="160" y1="0" y2="0"/>
              <line style="fill:none;stroke:#000000;stroke-width:0.25;stroke-miterlimit:10;" x1="-32" x2="160" y1="4" y2="4"/>
              <line style="fill:none;stroke:#000000;stroke-width:0.25;stroke-miterlimit:10;" x1="-32" x2="160" y1="8" y2="8"/>
              <line style="fill:none;stroke:#000000;stroke-width:0.25;stroke-miterlimit:10;" x1="-32" x2="160" y1="12" y2="12"/>
              <line style="fill:none;stroke:#000000;stroke-width:0.25;stroke-miterlimit:10;" x1="-32" x2="160" y1="16" y2="16"/>
              <line style="fill:none;stroke:#000000;stroke-width:0.25;stroke-miterlimit:10;" x1="-32" x2="160" y1="20" y2="20"/>
              <line style="fill:none;stroke:#000000;stroke-width:0.25;stroke-miterlimit:10;" x1="-32" x2="160" y1="24" y2="24"/>
              <line style="fill:none;stroke:#000000;stroke-width:0.25;stroke-miterlimit:10;" x1="-32" x2="160" y1="28" y2="28"/>
              <line style="fill:none;stroke:#000000;stroke-width:0.25;stroke-miterlimit:10;" x1="-32" x2="160" y1="32" y2="32"/>
              <line style="fill:none;stroke:#000000;stroke-width:0.25;stroke-miterlimit:10;" x1="-32" x2="160" y1="36" y2="36"/>
              <line style="fill:none;stroke:#000000;stroke-width:0.25;stroke-miterlimit:10;" x1="-32" x2="160" y1="40" y2="40"/>
              <line style="fill:none;stroke:#000000;stroke-width:0.25;stroke-miterlimit:10;" x1="-32" x2="160" y1="44" y2="44"/>
              <line style="fill:none;stroke:#000000;stroke-width:0.25;stroke-miterlimit:10;" x1="-32" x2="160" y1="48" y2="48"/>
              <line style="fill:none;stroke:#000000;stroke-width:0.25;stroke-miterlimit:10;" x1="-32" x2="160" y1="52" y2="52"/>
              <line style="fill:none;stroke:#000000;stroke-width:0.25;stroke-miterlimit:10;" x1="-32" x2="160" y1="56" y2="56"/>
              <line style="fill:none;stroke:#000000;stroke-width:0.25;stroke-miterlimit:10;" x1="-32" x2="160" y1="60" y2="60"/>
              <line style="fill:none;stroke:#000000;stroke-width:0.25;stroke-miterlimit:10;" x1="-32" x2="160" y1="64" y2="64"/>
              <line style="fill:none;stroke:#000000;stroke-width:0.25;stroke-miterlimit:10;" x1="-32" x2="160" y1="68" y2="68"/>
              <line style="fill:none;stroke:#000000;stroke-width:0.25;stroke-miterlimit:10;" x1="-32" x2="160" y1="72" y2="72"/>
              <line style="fill:none;stroke:#000000;stroke-width:0.25;stroke-miterlimit:10;" x1="-32" x2="160" y1="76" y2="76"/>
              <line style="fill:none;stroke:#000000;stroke-width:0.25;stroke-miterlimit:10;" x1="-32" x2="160" y1="80" y2="80"/>
              <line style="fill:none;stroke:#000000;stroke-width:0.25;stroke-miterlimit:10;" x1="-32" x2="160" y1="84" y2="84"/>
              <line style="fill:none;stroke:#000000;stroke-width:0.25;stroke-miterlimit:10;" x1="-32" x2="160" y1="88" y2="88"/>
              <line style="fill:none;stroke:#000000;stroke-width:0.25;stroke-miterlimit:10;" x1="-32" x2="160" y1="92" y2="92"/>
              <line style="fill:none;stroke:#000000;stroke-width:0.25;stroke-miterlimit:10;" x1="-32" x2="160" y1="96" y2="96"/>
              <line style="fill:none;stroke:#000000;stroke-width:0.25;stroke-miterlimit:10;" x1="-32" x2="160" y1="100" y2="100"/>
              <line style="fill:none;stroke:#000000;stroke-width:0.25;stroke-miterlimit:10;" x1="-32" x2="160" y1="104" y2="104"/>
              <line style="fill:none;stroke:#000000;stroke-width:0.25;stroke-miterlimit:10;" x1="-32" x2="160" y1="108" y2="108"/>
              <line style="fill:none;stroke:#000000;stroke-width:0.25;stroke-miterlimit:10;" x1="-32" x2="160" y1="112" y2="112"/>
              <line style="fill:none;stroke:#000000;stroke-width:0.25;stroke-miterlimit:10;" x1="-32" x2="160" y1="116" y2="116"/>
              <line style="fill:none;stroke:#000000;stroke-width:0.25;stroke-miterlimit:10;" x1="-32" x2="160" y1="120" y2="120"/>
              <line style="fill:none;stroke:#000000;stroke-width:0.25;stroke-miterlimit:10;" x1="-32" x2="160" y1="124" y2="124"/>
              <line style="fill:none;stroke:#000000;stroke-width:0.25;stroke-miterlimit:10;" x1="-32" x2="160" y1="128" y2="128"/>
              <line style="fill:none;stroke:#000000;stroke-width:0.25;stroke-miterlimit:10;" x1="-32" x2="160" y1="132" y2="132"/>
              <line style="fill:none;stroke:#000000;stroke-width:0.25;stroke-miterlimit:10;" x1="-32" x2="160" y1="136" y2="136"/>
              <line style="fill:none;stroke:#000000;stroke-width:0.25;stroke-miterlimit:10;" x1="-32" x2="160" y1="140" y2="140"/>
              <line style="fill:none;stroke:#000000;stroke-width:0.25;stroke-miterlimit:10;" x1="-32" x2="160" y1="144" y2="144"/>
              <line style="fill:none;stroke:#000000;stroke-width:0.25;stroke-miterlimit:10;" x1="-32" x2="160" y1="148" y2="148"/>
              <line style="fill:none;stroke:#000000;stroke-width:0.25;stroke-miterlimit:10;" x1="-32" x2="160" y1="152" y2="152"/>
              <line style="fill:none;stroke:#000000;stroke-width:0.25;stroke-miterlimit:10;" x1="-32" x2="160" y1="156" y2="156"/>
            </g>
            <path d="M159.75-31.75v191.5h-191.5v-191.5H159.75 M160-32H-32v192h192V-32L160-32z"/>
          </g>
        </g>
        <g>
          <rect height="128" style="opacity:0.3;fill:#F44336;" width="4" x="0" y="0"/>
          <rect height="128" style="opacity:0.3;fill:#F44336;" width="4" x="124" y="0"/>
          <rect height="120" style="opacity:0.3;fill:#F44336;" transform="matrix(-1.836970e-16 1 -1 -1.836970e-16 66 -62)" width="4" x="62" y="-58"/>
          <rect height="120" style="opacity:0.3;fill:#F44336;" transform="matrix(-1.836970e-16 1 -1 -1.836970e-16 190 62)" width="4" x="62" y="66"/>
        </g>
      </g>
    </g>
  </g>
</svg>