<?xml version="1.0" encoding="UTF-8" standalone="no"?>
<!-- Generator: Adobe Illustrator 24.1.2, SVG Export Plug-In . SVG Version: 6.00 Build 0)  -->

<svg
   version="1.1"
   id="Layer_1"
   x="0px"
   y="0px"
   viewBox="0 0 128 128"
   style="enable-background:new 0 0 128 128;"
   xml:space="preserve"
   sodipodi:docname="emoji_u1f62b.svg"
   inkscape:version="1.3.2 (091e20e, 2023-11-25, custom)"
   xmlns:inkscape="http://www.inkscape.org/namespaces/inkscape"
   xmlns:sodipodi="http://sodipodi.sourceforge.net/DTD/sodipodi-0.dtd"
   xmlns="http://www.w3.org/2000/svg"
   xmlns:svg="http://www.w3.org/2000/svg"><defs
   id="defs11" /><sodipodi:namedview
   id="namedview11"
   pagecolor="#ffffff"
   bordercolor="#000000"
   borderopacity="0.25"
   inkscape:showpageshadow="2"
   inkscape:pageopacity="0.0"
   inkscape:pagecheckerboard="0"
   inkscape:deskcolor="#d1d1d1"
   inkscape:zoom="6.0234375"
   inkscape:cx="63.916991"
   inkscape:cy="64"
   inkscape:window-width="1920"
   inkscape:window-height="991"
   inkscape:window-x="-9"
   inkscape:window-y="-9"
   inkscape:window-maximized="1"
   inkscape:current-layer="Layer_1" />
<g
   id="gold">
	
		<radialGradient
   id="face_1_"
   cx="63.6"
   cy="1992.9"
   r="56.9597"
   gradientTransform="matrix(1 0 0 1 0 -1930)"
   gradientUnits="userSpaceOnUse">
		<stop
   offset="0.5"
   style="stop-color:#FDE030"
   id="stop1" />
		<stop
   offset="0.92"
   style="stop-color:#F7C02B"
   id="stop2" />
		<stop
   offset="1"
   style="stop-color:#F4A223"
   id="stop3" />
	</radialGradient>
	<path
   id="face"
   style="fill:url(#face_1_);"
   d="M63.6,118.8c-27.9,0-58-17.5-58-55.9S35.7,7,63.6,7c15.5,0,29.8,5.1,40.4,14.4   c11.5,10.2,17.6,24.6,17.6,41.5s-6.1,31.2-17.6,41.4C93.4,113.6,79,118.8,63.6,118.8z" />
	
</g>
<g
   id="facial_expressions">
	<g
   id="tired-face">
		<g
   id="mouth">
			<path
   style="fill:#422B0D;"
   d="M89.74,79.1c-8.35-2.5-17.03-3.71-25.74-3.6c-8.83-0.08-17.62,1.18-26.07,3.75     C35,84.02,33.44,89.5,33.4,95.1c-0.05,3.52,2.76,6.41,6.28,6.46c1.01,0.01,2.02-0.21,2.92-0.66c6.71-3.14,14-4.84,21.4-5     c7.41,0.14,14.7,1.85,21.4,5c3.15,1.56,6.97,0.28,8.54-2.88c0.45-0.91,0.68-1.91,0.66-2.92C94.54,89.41,92.85,83.86,89.74,79.1z"
   id="path4" />
			<path
   style="fill:#FFFFFF;"
   d="M89.74,79.1C83.7,69.6,73.09,67.2,64,67.2c-9.88,0-20.3,2.47-26.07,12     c8.45-2.55,17.24-3.8,26.07-3.7C72.71,75.39,81.39,76.6,89.74,79.1z"
   id="path5" />
		</g>
	</g>
	<g
   id="eyebrows">
		<path
   style="fill:#422B0D;"
   d="M33.73,30.91c-2.2,0.4-2.3,3.6,0.1,3.7c5.3,0.07,10.42-1.9,14.3-5.5c1.48-1.28,2.73-2.8,3.7-4.5    c0.58-0.83,0.38-1.97-0.45-2.55c-0.83-0.58-1.97-0.38-2.55,0.45l-0.1,0.1C44.81,26.99,39.52,29.92,33.73,30.91z"
   id="path6" />
		<path
   style="fill:#422B0D;"
   d="M78.44,22.51c-0.58-0.83-1.72-1.03-2.55-0.45c-0.83,0.58-1.03,1.72-0.45,2.55    c0.97,1.7,2.22,3.22,3.7,4.5c3.9,3.57,9.01,5.54,14.3,5.5c2.5-0.1,2.3-3.3,0.1-3.7C87.68,29.95,82.35,26.98,78.44,22.51    L78.44,22.51"
   id="path7" />
	</g>
	<path
   style="fill:#422B0D;"
   d="M34.47,41.22c0,0,13.05,1.36,22.07,10.86c0.99,1.01,0.97,2.63-0.05,3.62   c-0.41,0.4-0.93,0.65-1.49,0.71c-3.49,0.32-8.71,2.11-16,7.64c0,0-3.94,3.75-7.06,0c-2.46-3,2-6.4,2-6.4s5.25-4.76,11.49-5.09   l-11.58-2.62c-1.18-0.16-2.29-0.69-3.15-1.52c-1.14-0.96-1.54-2.53-1-3.92C30.43,42.5,32.34,41.19,34.47,41.22z"
   id="path8" />
	<path
   style="fill:#422B0D;"
   d="M94,41.22c0,0-13,1.36-22.06,10.86c-0.99,1.01-0.96,2.63,0.05,3.62c0.41,0.4,0.95,0.65,1.52,0.71   c3.49,0.32,8.7,2.11,16,7.64c0,0,3.93,3.75,7.06,0c2.46-3-2-6.4-2-6.4s-5.25-4.76-11.49-5.09l11.46-2.62   c1.19-0.16,2.29-0.69,3.16-1.52c1.13-0.96,1.54-2.53,1-3.92C97.98,42.53,96.1,41.22,94,41.22z"
   id="path9" />
	
	
</g>
</svg>
