<svg xmlns="http://www.w3.org/2000/svg" viewBox="0 0 128 128"><g fill="#40c0e7"><path d="M64.01.33C28.84.33.34 28.84.34 64s28.51 63.66 63.67 63.66 63.66-28.5 63.66-63.66S99.17.33 64.01.33zm0 121.24c-31.74 0-57.57-25.83-57.57-57.56 0-31.74 25.83-57.57 57.57-57.57 31.73 0 57.56 25.83 57.56 57.57 0 31.73-25.83 57.56-57.56 57.56z"/><path d="M96.09 28.06c0-.05-.03-.09-.04-.15-.04-.18-.1-.35-.2-.51-.02-.03-.01-.06-.03-.08-.02-.04-.07-.06-.1-.09-.11-.13-.22-.24-.37-.33-.06-.04-.1-.08-.17-.11-.21-.09-.44-.16-.67-.16H79.45c-.21 0-.4.05-.59.13-.06.02-.09.05-.15.07-.13.07-.24.16-.36.26-.02.02-.06.04-.08.06-.02.02-.02.04-.04.06-.11.14-.21.29-.27.46-.01.02-.02.04-.03.07 0 0-.01.01-.01.02L64 73.13 50.08 27.76c0-.01 0-.01-.01-.02a2.284 2.284 0 0 0-.29-.53c-.02-.02-.03-.04-.04-.06-.02-.03-.06-.04-.09-.06-.11-.1-.22-.18-.36-.26-.06-.03-.09-.06-.15-.07-.19-.08-.38-.13-.59-.13H33.48c-.24 0-.46.07-.67.16-.06.03-.11.07-.17.11-.15.09-.27.2-.37.33-.03.03-.08.05-.1.09-.02.03-.02.06-.04.09-.09.15-.15.32-.19.5-.01.06-.04.1-.04.15 0 .01-.01.02-.01.04l-5.71 67.52c-.04.45.12.89.42 1.22.3.33.73.52 1.17.52H41.9c.81 0 1.5-.62 1.58-1.44l2.84-28.78 10.91 29.18c.05.13.12.24.2.35.01.01.01.03.02.05a1.673 1.673 0 0 0 .51.43c.05.02.09.04.14.07.2.08.42.15.64.15h10.54c.23 0 .44-.07.64-.15.05-.02.09-.05.14-.07.19-.11.36-.24.5-.42 0-.01.01-.01.01-.01.01-.01.01-.03.02-.05.08-.1.15-.22.2-.35L81.7 67.14l2.83 28.78c.08.82.77 1.44 1.59 1.44h14.12c.45 0 .88-.19 1.17-.52.31-.33.46-.77.42-1.22L96.1 28.1c0-.01-.01-.02-.01-.04z"/></g></svg>