<svg width="128" height="128" style="enable-background:new 0 0 128 128;" xmlns="http://www.w3.org/2000/svg" xmlns:xlink="http://www.w3.org/1999/xlink">
  <g>
    <linearGradient id="SVGID_1_" gradientUnits="userSpaceOnUse" x1="64" x2="64" y1="5" y2="128.7217">
      <stop offset="0" style="stop-color:#EF5350"/>
      <stop offset="0.5777" style="stop-color:#E0403E"/>
      <stop offset="1" style="stop-color:#D32F2F"/>
    </linearGradient>
    <path d="M116,124H12c-4.42,0-8-3.58-8-8V12c0-4.42,3.58-8,8-8h104c4.42,0,8,3.58,8,8v104 C124,120.42,120.42,124,116,124z" style="fill:url(#SVGID_1_);"/>
    <g style="opacity:0.2;">
      <path d="M116,7c2.76,0,5,2.24,5,5v104c0,2.76-2.24,5-5,5H12c-2.76,0-5-2.24-5-5V12c0-2.76,2.24-5,5-5H116 M116,4H12c-4.42,0-8,3.58-8,8v104c0,4.42,3.58,8,8,8h104c4.42,0,8-3.58,8-8V12C124,7.58,120.42,4,116,4L116,4z" style="fill:#424242;"/>
    </g>
    <g style="opacity:0.2;">
      <path d="M69.45,20c0.83,0,1.58,0.51,1.87,1.29l31.79,84c0.5,1.31-0.47,2.71-1.87,2.71H89.59 c-0.85,0-1.61-0.54-1.89-1.34l-6.25-17.81c-0.28-0.8-1.04-1.34-1.89-1.34H48.32c-0.85,0-1.61,0.54-1.89,1.34l-6.2,17.8 c-0.28,0.8-1.04,1.34-1.89,1.34H26.76c-1.4,0-2.37-1.4-1.87-2.71l31.73-84c0.29-0.78,1.04-1.29,1.87-1.29H69.45 M54.01,75.18 h19.87c1.38,0,2.34-1.36,1.89-2.66l-9.94-28.44c-0.31-0.89-1.1-1.34-1.89-1.34c-0.79,0-1.58,0.45-1.89,1.34l-9.94,28.44 C51.66,73.82,52.63,75.18,54.01,75.18 M69.45,17H58.49c-2.07,0-3.95,1.3-4.68,3.23l-31.73,84c-0.58,1.54-0.37,3.26,0.56,4.61 c0.93,1.35,2.47,2.16,4.11,2.16h11.58c2.13,0,4.02-1.35,4.72-3.36l5.96-17.13h29.83l6.02,17.15c0.7,2,2.6,3.34,4.72,3.34h11.64 c1.64,0,3.18-0.81,4.11-2.16c0.93-1.35,1.14-3.08,0.56-4.61l-31.79-84C73.39,18.3,71.52,17,69.45,17L69.45,17z M55.41,72.18 l8.53-24.41l8.53,24.41H55.41L55.41,72.18z" style="fill:#424242;"/>
    </g>
    <path d="M79.57,87.51H48.32c-0.85,0-1.61,0.54-1.89,1.34l-6.2,17.8c-0.28,0.8-1.04,1.34-1.89,1.34H26.76 c-1.4,0-2.37-1.4-1.87-2.71l31.73-84c0.29-0.78,1.04-1.29,1.87-1.29h10.96c0.83,0,1.58,0.51,1.87,1.29l31.79,84 c0.5,1.31-0.47,2.71-1.87,2.71H89.59c-0.85,0-1.61-0.54-1.89-1.34l-6.25-17.81C81.17,88.05,80.42,87.51,79.57,87.51z M54.01,75.18 h19.87c1.38,0,2.34-1.36,1.89-2.66l-9.94-28.44c-0.62-1.79-3.15-1.79-3.78,0l-9.94,28.44C51.66,73.82,52.63,75.18,54.01,75.18z" style="fill:#FAFAFA;"/>
  </g>
</svg>