<?xml version="1.0" encoding="utf-8"?>
<!-- Generator: Adobe Illustrator 26.3.1, SVG Export Plug-In . SVG Version: 6.00 Build 0)  -->
<svg version="1.1" id="Layer_1" xmlns="http://www.w3.org/2000/svg" xmlns:xlink="http://www.w3.org/1999/xlink" x="0px" y="0px"
	 viewBox="0 0 128 128" style="enable-background:new 0 0 128 128;" xml:space="preserve">
<path style="fill:#A56C43;" d="M11.7,116.8c-0.9,0.1-1.5,1-1.3,1.9c0.3,1.1,0.9,2.3,2.6,2.7c1.7,0.4,2.7,0,3.7-0.2
	c1-0.1,5,0.3,7.8,0.2s6.5-1.5,10-1.3s9,1.2,12,1.2s6.1,0.2,7.7-1.3c1.3-1.2,2.6-3.8,1.7-7.1c-0.9-3.3-1.7-8.5-1.8-10
	c-0.5-8.1,1.2-16.6,1.8-21.2S59.6,72.4,60,60c0.4-10-3.7-16.2-3.7-16.2s0.4-1.4,4.5-0.7c4.2,0.7,35,1.8,49.4-2.1
	c10.7-2.9,11.9-25.9-3-31.9C93.5,3.6,55,15.8,47.8,17.8s-12.9,3.3-15.5,12.6c-1.7,6,1,14.2,1,14.2l5.9,48.7c0,0,1.3,8-2.6,10.5
	c-5.6,3.7-12.4,8.6-17,11c-0.7,0.4-2.3,1.3-4.5,1.6C13.9,116.6,12.7,116.7,11.7,116.8z"/>
<g>
	<g>
		<g>
			<defs>
				<path id="SVGID_1_" d="M11.7,116.8c-0.9,0.1-1.5,1-1.3,1.9c0.3,1.1,0.9,2.3,2.6,2.7c1.7,0.4,2.7,0,3.7-0.2c1-0.1,5,0.3,7.8,0.2
					c2.8-0.1,6.5-1.5,10-1.3s9,1.2,12,1.2s6.1,0.2,7.7-1.3c1.3-1.2,2.6-3.8,1.7-7.1c-0.9-3.3-1.7-8.5-1.8-10
					c-0.5-8.1,1.2-16.6,1.8-21.2S59.6,72.4,60,60c0.4-10-3.7-16.2-3.7-16.2s0.4-1.4,4.5-0.7c4.2,0.7,35,1.8,49.4-2.1
					c10.7-2.9,11.9-25.9-3-31.9C93.5,3.6,55,15.8,47.8,17.8s-12.9,3.3-15.5,12.6c-1.7,6,1,14.2,1,14.2l5.9,48.7c0,0,1.3,8-2.6,10.5
					c-5.6,3.7-12.4,8.6-17,11c-0.7,0.4-2.3,1.3-4.5,1.6C13.9,116.6,12.7,116.7,11.7,116.8z"/>
			</defs>
			<clipPath id="SVGID_00000114033609823711408790000000856615923497653428_">
				<use xlink:href="#SVGID_1_"  style="overflow:visible;"/>
			</clipPath>
			<g style="clip-path:url(#SVGID_00000114033609823711408790000000856615923497653428_);">
				<path style="fill:#824624;" d="M113.2,41.9c8.8-3.7,7.5-18.2,0.9-18.4c-5.7-0.2-10,5.5-18.5,7.8s-22.8,3.1-35,6.2
					c-9.7,2.5-9,4.5-6,11.1c1.7,3.7,2.5,14.8-0.1,21.3C51.8,77,49.3,85,48.8,92.7c0,9.5,1.7,12.8,0,18.9c-0.6,2.4-0.1,2.4-0.9,4.3
					c-2.1,3.2-7.1,2.3-10.5,3c2.4,1.3,19.8,3.2,22,2.7c0.4-3-1.8-14.8-2-17.8C55.7,83.2,72.9,66.6,62.9,48
					C62.9,48,98.9,45.8,113.2,41.9z"/>
				<path style="fill:#824624;" d="M42.4,39.3c-0.7,0.5-2.2,0.9-2.5,0.4c-0.3-0.6,1-1.3,1.6-1.9c1.7-2,3.2-3.5,4-6
					c0.1-0.3,0.5-1.6,0.9-1.7c1.5-0.7,2.4,0.9,2.2,2.3c-0.1,0.8-0.8,1.9-1.2,2.5C45.8,36.7,44.4,38,42.4,39.3z"/>
				<path style="fill:#824624;" d="M45.9,61.9c-0.9-3-1.2-6.3-0.7-9.4c0.2-1.1,0.7-2.6,1.8-2.5c0.6,0,1,0.9,1.2,1.6
					c0.4,1.5,0.4,3,0.5,4.5c0.2,4.2,0.7,8.5,2,12.4c0.5,1.6-0.1,1.9-0.4,1.9C48.9,70.6,46.6,64.3,45.9,61.9z"/>
				<path style="fill:#824624;" d="M94.6,6.8c-1,1.6-2,4-6.2,4.7s-23.2,2.9-35.1,8.1c-2.6,1.1-7.6,2.3-10.2,2.9
					c-2.6,0.6-11,3.8-9.5,13.7c0.9,6.1,8,57.5,7.7,62.1c-0.3,4.6-1.9,6-4.6,7.8c-2.7,1.8-14.3,9.2-15.4,9.9c-1.1,0.7-3.1,1.8-4.8,2
					c-2.6,0.3-5-0.6-4.6,1.5c0.4,2.3,5,2.5,5,2.5s-0.2,1.9-0.4,1.9c-0.2,0-9.2,0.5-9.2,0.5v-11.3l27.6-13l-9.2-73.3l8-9.1L82.3,6.1
					L94.6,6.8z"/>
			</g>
		</g>
	</g>
</g>
<g>
	<g>
		<g>
			<defs>
				<path id="SVGID_00000028312417638185162480000012317135558317522067_" d="M11.7,116.8c-0.9,0.1-1.5,1-1.3,1.9
					c0.3,1.1,0.9,2.3,2.6,2.7c1.7,0.4,2.7,0,3.7-0.2c1-0.1,5,0.3,7.8,0.2c2.8-0.1,6.5-1.5,10-1.3s9,1.2,12,1.2s6.1,0.2,7.7-1.3
					c1.3-1.2,2.6-3.8,1.7-7.1c-0.9-3.3-1.7-8.5-1.8-10c-0.5-8.1,1.2-16.6,1.8-21.2S59.6,72.4,60,60c0.4-10-3.7-16.2-3.7-16.2
					s0.4-1.4,4.5-0.7c4.2,0.7,35,1.8,49.4-2.1c10.7-2.9,11.9-25.9-3-31.9C93.5,3.6,55,15.8,47.8,17.8s-12.9,3.3-15.5,12.6
					c-1.7,6,1,14.2,1,14.2l5.9,48.7c0,0,1.3,8-2.6,10.5c-5.6,3.7-12.4,8.6-17,11c-0.7,0.4-2.3,1.3-4.5,1.6
					C13.9,116.6,12.7,116.7,11.7,116.8z"/>
			</defs>
			<clipPath id="SVGID_00000166645018402012487910000003665032254105514675_">
				<use xlink:href="#SVGID_00000028312417638185162480000012317135558317522067_"  style="overflow:visible;"/>
			</clipPath>
			<g style="clip-path:url(#SVGID_00000166645018402012487910000003665032254105514675_);">
				<path style="fill:#422319;" d="M57.3,91.2c0-0.1-3.4-1.2-3.8,1c-1.1,5.3-1,10.4-0.5,14c0.9,5.7,2.2,10.1-0.4,11.9
					c-4.6,2.3-11.2,0.7-15.9,0.1c-2.1-0.3-4.4-0.3-6.5,0.3c-3.5,1.2-7.2,2.1-10.9,1.5c-0.7-0.1-1.3-0.1-2-0.1
					c-1.3,0-2.2,0.6-3.4,0.8c-1.6,0.2-2.2-1.1-2.9-1.4c-0.5-0.2-1.1,0-1,0.2c-0.2,1.1-0.3,3.8,0.7,3.8c1.2,0,10.8,0.3,13.1,0.2
					c2.8-0.2,30-0.7,34-0.7C57.7,118.8,56.9,93.3,57.3,91.2z"/>
				<path style="fill:#422319;" d="M118.8,33c-17.3,7-41.4,9-56,8.1c-1.9-0.1-6.6-0.7-7.6,0.8c-2,2.8,1.6,3.5,4.7,13.3
					c3.3-0.7,45.1-9.7,56.9-13C117.4,39.7,117.8,36.3,118.8,33z"/>
				<path style="fill:#422319;" d="M47.2,113.1c-0.6,0-0.9-0.4-0.4-0.9c0.7-0.7,1.6-1.3,1.7-4.1c0-0.5,0.1-1.4,0.8-1.5
					s0.9,0.6,1.1,1.2c0.2,1,0.4,2-0.7,3.6C48.8,112.8,47.7,113.1,47.2,113.1z"/>
				<path style="fill:#422319;" d="M31.1,34.5c0.6,1.7,1.6,3.9,2.4,5c0.7,1.1,1,1.9,1.2,3.8c0.2,1.3,1.3,7.8,1.2,11.8
					c0,1.8-0.7,2.8-1.2,3.2c-1.8-5.1-5.2-23.5-5.2-23.5L31.1,34.5z"/>
			</g>
		</g>
	</g>
</g>
</svg>
