<svg width="128" height="128" style="enable-background:new 0 0 128 128;" xmlns="http://www.w3.org/2000/svg" xmlns:xlink="http://www.w3.org/1999/xlink">
  <g id="图层_3">
    <g>
      <path d="M112.36,92.81c-0.26,7.22,0.77,17.01-21.65,21.65c-15.47,3.2-30.41-9.75-30.41-19.07 s8.94-13.4,24.74-13.4S112.69,83.49,112.36,92.81z" style="fill:#DE6F72;"/>
      <g style="opacity:0.2;">
        <path d="M85.04,84.98c8.9,0,19.57,0.47,23.08,4.09c0.91,0.94,1.3,2.09,1.25,3.62 c-0.01,0.4-0.02,0.81-0.04,1.23c-0.17,6.73-0.35,13.69-19.22,17.59c-1.39,0.29-2.83,0.43-4.28,0.43 c-12.22,0-22.53-10.18-22.53-16.57C63.3,92.81,63.3,84.98,85.04,84.98 M85.04,81.98c-15.8,0-24.74,4.08-24.74,13.4 c0,8.34,11.94,19.57,25.53,19.57c1.61,0,3.24-0.16,4.88-0.5c22.42-4.64,21.39-14.43,21.65-21.65 C112.69,83.49,100.84,81.98,85.04,81.98L85.04,81.98z" style="fill:#424242;"/>
      </g>
      <g>
        <defs>
          <path id="SVGID_1_" d="M112.36,92.81c-0.26,7.22,0.77,17.01-21.65,21.65c-15.47,3.2-30.41-9.75-30.41-19.07 s8.94-13.4,24.74-13.4S112.69,83.49,112.36,92.81z"/>
        </defs>
        <clipPath id="SVGID_3_">
          <use style="overflow:visible;" xlink:href="#SVGID_1_"/>
        </clipPath>
        <g style="opacity:0.2;clip-path:url(#SVGID_3_);">
          <path d=" M91.23,91.94c0.53,3.24,2.56,6.11,5.17,8.1c2.61,1.98,5.78,3.14,8.99,3.8c1.92,0.4,3.99,0.61,5.77-0.2" style="fill:none;stroke:#424242;stroke-width:2;stroke-linecap:round;stroke-linejoin:round;stroke-miterlimit:10;"/>
          <path d=" M79.19,93.71c1.41,4.36,4.43,8.72,8.17,11.36c5.4,3.8,13.06,6.52,17.63,6.16" style="fill:none;stroke:#424242;stroke-width:2;stroke-linecap:round;stroke-linejoin:round;stroke-miterlimit:10;"/>
          <path d=" M84.5,92.81c2.06,9.73,11.49,13.56,24.02,15.62" style="fill:none;stroke:#424242;stroke-width:2;stroke-linecap:round;stroke-linejoin:round;stroke-miterlimit:10;"/>
          <path d=" M96.88,91.63c3.54,6.78,12.82,9.55,18.25,6.9" style="fill:none;stroke:#424242;stroke-width:2;stroke-linecap:round;stroke-linejoin:round;stroke-miterlimit:10;"/>
          <path d=" M74.19,94.48c0.51,3.89,3.63,8.15,6.25,11.07c6.56,7.3,12.21,9.09,16.14,9.21" style="fill:none;stroke:#424242;stroke-width:2;stroke-linecap:round;stroke-linejoin:round;stroke-miterlimit:10;"/>
          <path d=" M68.56,93.64c0.5,5.85,6.65,16.86,17.41,22.45" style="fill:none;stroke:#424242;stroke-width:2;stroke-linecap:round;stroke-linejoin:round;stroke-miterlimit:10;"/>
        </g>
      </g>
    </g>
    <g>
      <linearGradient id="SVGID_4_" gradientUnits="userSpaceOnUse" x1="39.1123" x2="103.6123" y1="43.0592" y2="98.0592">
        <stop offset="0" style="stop-color:#FFBFBF"/>
        <stop offset="0.454" style="stop-color:#FAADAE"/>
        <stop offset="1" style="stop-color:#F29195"/>
      </linearGradient>
      <path d="M110.39,94.98c2.33-1.15,5.79-1.12,7.8-3.56c3.7-4.49,4.55-8.47,4.38-11.22 c-0.11-1.82,0.22-3.65,1.05-5.28c0.44-0.86,0.8-1.96,0.85-3.29c0.1-2.86-0.39-4.76-1.04-6c-1.09-2.09-1.4-4.49-1.17-6.84 c0.19-1.89,0.07-4.12-0.85-6.28c-0.84-1.97-1.7-3.2-3.06-4.14c-2.13-1.48-3.75-3.55-4.55-6.02c-0.12-0.39-0.29-0.76-0.5-1.11 c-0.73-1.2-2.14-2.44-3.7-3.31c-2.04-1.13-3.53-2.98-4.56-5.07c-1.06-2.14-2.91-4.07-5.07-5c-1.94-0.83-3.67-1.09-5.45-0.98 c-2.37,0.14-4.64-0.71-6.57-2.1c-0.68-0.49-1.58-0.93-2.78-1.25c-1.11-0.29-2.31-0.44-3.45-0.43c-2.45,0.02-4.77-0.94-6.74-2.4 c-1.28-0.95-3.07-1.59-5.62-2.01c-4.07-0.67-7.07,0-9.09,0.86c-2.25,0.97-4.75,1.24-7.15,0.72c-2.58-0.56-5.65,0.04-10.31,0.92 c-4.86,0.91-8.96,2.38-10.78,4.53c-1.62,1.92-3.86,3.2-6.33,3.68c-4.8,0.94-7,3.71-10.21,7.35c-3.23,3.66-7.11,8.35-6.17,13.05 c0.54,2.7,0.16,5.47-1.12,7.91c-0.8,1.54-2.76,4.46-3.15,6.44c-1.37,6.83,0.04,8.91,0.98,13.46c0.91,4.42,2.16,7.53,5.66,9.37 c4.04,2.13,14.02,0.73,16.46,5.73c1.65,3.39,4.75,9.33,13.11,11.51c0.67,0.17,1.31,0.44,1.93,0.75c1.85,0.92,4.75,2.57,9.48,2.3 c8.07-0.46,5.85-3.12,11.08-1.74c7.98,2.11,17.47-2.74,23.4-5.9C95.3,95.26,102.65,98.8,110.39,94.98z" style="fill:url(#SVGID_4_);"/>
    </g>
    <defs>
      <filter id="Adobe_OpacityMaskFilter" filterUnits="userSpaceOnUse" height="90.24" width="114.91" x="9.8" y="18.06">
        <feColorMatrix type="matrix" values="1 0 0 0 0 0 1 0 0 0 0 0 1 0 0 0 0 0 1 0"/>
      </filter>
    </defs>
    <mask id="SVGID_5_" height="90.24" maskUnits="userSpaceOnUse" width="114.91" x="9.8" y="18.06">
      <g style="filter:url(#Adobe_OpacityMaskFilter);">
        <g>
          <radialGradient id="SVGID_6_" cx="57.1927" cy="24.9185" gradientUnits="userSpaceOnUse" r="93.5954">
            <stop offset="0.2293" style="stop-color:#FFCCBC"/>
            <stop offset="1" style="stop-color:#FF8A65"/>
          </radialGradient>
          <path d="M110.39,94.98c2.33-1.15,5.79-1.12,7.8-3.56c3.7-4.49,4.55-8.47,4.38-11.22 c-0.11-1.82,0.22-3.65,1.05-5.28c0.44-0.86,0.8-1.96,0.85-3.29c0.1-2.86-0.39-4.76-1.04-6c-1.09-2.09-1.4-4.49-1.17-6.84 c0.19-1.89,0.07-4.12-0.85-6.28c-0.84-1.97-1.7-3.2-3.06-4.14c-2.13-1.48-3.75-3.55-4.55-6.02c-0.12-0.39-0.29-0.76-0.5-1.11 c-0.73-1.2-2.14-2.44-3.7-3.31c-2.04-1.13-3.53-2.98-4.56-5.07c-1.06-2.14-2.91-4.07-5.07-5c-1.94-0.83-3.67-1.09-5.45-0.98 c-2.37,0.14-4.64-0.71-6.57-2.1c-0.68-0.49-1.58-0.93-2.78-1.25c-1.11-0.29-2.31-0.44-3.45-0.43c-2.45,0.02-4.77-0.94-6.74-2.4 c-1.28-0.95-3.07-1.59-5.62-2.01c-4.07-0.67-7.07,0-9.09,0.86c-2.25,0.97-4.75,1.24-7.15,0.72c-2.58-0.56-5.65,0.04-10.31,0.92 c-4.86,0.91-8.96,2.38-10.78,4.53c-1.62,1.92-3.86,3.2-6.33,3.68c-4.8,0.94-7,3.71-10.21,7.35c-3.23,3.66-7.11,8.35-6.17,13.05 c0.54,2.7,0.16,5.47-1.12,7.91c-0.8,1.54-2.76,4.46-3.15,6.44c-1.37,6.83,0.04,8.91,0.98,13.46c0.91,4.42,2.16,7.53,5.66,9.37 c4.04,2.13,14.02,0.73,16.46,5.73c1.65,3.39,4.75,9.33,13.11,11.51c0.67,0.17,1.31,0.44,1.93,0.75 c1.85,0.92,4.75,2.57,9.48,2.3c8.07-0.46,5.85-3.12,11.08-1.74c7.98,2.11,17.47-2.74,23.4-5.9 C95.3,95.26,102.65,98.8,110.39,94.98z" style="fill:url(#SVGID_6_);"/>
        </g>
      </g>
    </mask>
    <g style="mask:url(#SVGID_5_);">
      <path d=" M28,92.84c-3.37-2.9-2.54-8.71,0.62-11.84c3.15-3.13,7.78-4.18,12.19-4.76c5.41-0.71,10.89-0.93,16.35-0.64 c7.72,0.41,33.23,0.74,38.58-8.61c1.42-2.48,0.67-10.35-4.67-9.02" style="fill:none;stroke:#D97172;stroke-width:2;stroke-linecap:round;stroke-linejoin:round;stroke-miterlimit:10;"/>
      <path d=" M17.83,60.19c-3.32,0.87-6.05,3.69-6.81,7.04c-0.76,3.35,0.49,7.07,3.11,9.29c1.52,1.28,3.4,2.06,5.32,2.59 c3.08,0.86,6.31,1.14,9.49,0.82" style="fill:none;stroke:#D97172;stroke-width:2;stroke-linecap:round;stroke-linejoin:round;stroke-miterlimit:10;"/>
      <path d=" M59.55,19.79c-4.54,3.67-6.15,9.89-6.43,15.72c-0.34,6.98,0.86,14.02,3.47,20.5" style="fill:none;stroke:#D97172;stroke-width:2;stroke-linecap:round;stroke-linejoin:round;stroke-miterlimit:10;"/>
      <path d=" M91.72,27.6c-2.77-1.1-5.76,1.03-7.62,3.36c-3.03,3.79-4.9,8.5-5.3,13.35" style="fill:none;stroke:#D97172;stroke-width:2;stroke-linecap:round;stroke-linejoin:round;stroke-miterlimit:10;"/>
      <path d=" M16,60.62c-0.34-6.46,1.91-11.16,6.06-16.12s10.13-7.47,16.55-8.28" style="fill:none;stroke:#D97172;stroke-width:2;stroke-linecap:round;stroke-linejoin:round;stroke-miterlimit:10;"/>
      <path d=" M29.38,38.88c-0.21-0.66-0.03-0.59,0.14-1.26c0.73-2.95,3.1-5.28,5.81-6.65c2.71-1.37,5.76-1.9,8.76-2.34 c3.07-0.45,6.55-0.71,8.93,1.28" style="fill:none;stroke:#D97172;stroke-width:2;stroke-linecap:round;stroke-linejoin:round;stroke-miterlimit:10;"/>
      <path d=" M55.3,26.6c0.12-1.05,1.29-1.6,2.31-1.88c2.62-0.72,5.35-0.98,8.06-0.79" style="fill:none;stroke:#D97172;stroke-width:2;stroke-linecap:round;stroke-linejoin:round;stroke-miterlimit:10;"/>
      <path d=" M54.53,50.96c-0.1-2.37-2.49-4.21-4.86-4.23c-2.37-0.02-4.56,1.43-6,3.32c-1.44,1.88-2.24,4.16-2.97,6.42 c-0.73,2.25-1.43,4.55-2.7,6.55c-2.58,4.06-7.57,6.45-12.35,5.93c-1.07-0.12-2.33-0.58-2.5-1.63" style="fill:none;stroke:#D97172;stroke-width:2;stroke-linecap:round;stroke-linejoin:round;stroke-miterlimit:10;"/>
      <path d=" M31.94,45.3c-0.78-0.23-1.35,0.76-1.47,1.57c-0.99,6.46,5.22,12.37,4.35,18.84" style="fill:none;stroke:#D97172;stroke-width:2;stroke-linecap:round;stroke-linejoin:round;stroke-miterlimit:10;"/>
      <path d=" M20.58,79.35c1.53-3.9,0.57-8.66-2.35-11.66" style="fill:none;stroke:#D97172;stroke-width:2;stroke-linecap:round;stroke-linejoin:round;stroke-miterlimit:10;"/>
      <path d=" M19.88,30.5c-1.68,3.79-2.86,10.02-2.47,14.15" style="fill:none;stroke:#D97172;stroke-width:2;stroke-linecap:round;stroke-linejoin:round;stroke-miterlimit:10;"/>
      <path d=" M65.73,19.06c8.03,2.14,15.15,7.5,19.41,14.64c0.76,1.27,1.45,2.62,2.53,3.64c1.88,1.76,4.58,2.21,7.04,2.98 c8.86,2.77,15.45,10.37,19.77,18.58c3.23,6.15,5.5,12.97,5.28,19.92c-0.22,6.94-3.18,14-8.78,18.11" style="fill:none;stroke:#D97172;stroke-width:2;stroke-linecap:round;stroke-linejoin:round;stroke-miterlimit:10;"/>
      <path d=" M90.17,38.83c9.47-3.76,19.74-1.38,27.7,4.99" style="fill:none;stroke:#D97172;stroke-width:2;stroke-linecap:round;stroke-linejoin:round;stroke-miterlimit:10;"/>
      <path d=" M108.07,57.99c3.01,9.35,4.67,19.37-4.01,25.38c-17.48,12.1-34.84,6.52-50.22,6.73c-3.07,0.04-6.28,0.14-8.98,1.6 c-2.7,1.46-4.7,4.72-3.7,7.62" style="fill:none;stroke:#D97172;stroke-width:2;stroke-linecap:round;stroke-linejoin:round;stroke-miterlimit:10;"/>
      <path d=" M45,91.83c-1.06,0.25-1.5,0.27-2.46-0.23c-1.55-0.8-3.14-1.64-4.27-2.98c-1.12-1.34-1.67-3.32-0.86-4.86" style="fill:none;stroke:#D97172;stroke-width:2;stroke-linecap:round;stroke-linejoin:round;stroke-miterlimit:10;"/>
      <path d=" M63.7,75.86c-1.64,0.07-3.09,1.2-3.99,2.58c-0.89,1.38-1.33,3-1.75,4.59" style="fill:none;stroke:#D97172;stroke-width:2;stroke-linecap:round;stroke-linejoin:round;stroke-miterlimit:10;"/>
      <path d=" M75.6,91.1c-0.64-0.93-0.06-2.19,0.57-3.13c1.54-2.34,3.31-4.54,5.27-6.54" style="fill:none;stroke:#D97172;stroke-width:2;stroke-linecap:round;stroke-linejoin:round;stroke-miterlimit:10;"/>
      <path d=" M77.82,62.96c0.4-3.19,1.42-6.35,3.32-8.95s4.74-4.58,7.91-5.08c3.1-0.49,6.4,0.5,8.71,2.61c2.32,2.11,3.6,5.31,3.4,8.44" style="fill:none;stroke:#D97172;stroke-width:2;stroke-linecap:round;stroke-linejoin:round;stroke-miterlimit:10;"/>
      <path d=" M48.52,57.34c-0.74,3.02,0.08,6.2,1.27,9.08c1.18,2.87,2.74,5.61,3.55,8.61" style="fill:none;stroke:#D97172;stroke-width:2;stroke-linecap:round;stroke-linejoin:round;stroke-miterlimit:10;"/>
      <path d=" M64.5,75.51c2.67-2.83,4.14-6.75,4-10.63c-0.14-3.88-4.14-10-7-12.63" style="fill:none;stroke:#D97172;stroke-width:2;stroke-linecap:round;stroke-linejoin:round;stroke-miterlimit:10;"/>
      <path d=" M65.74,55.38c3.62-4.19,5.14-10.1,4.01-15.52c-0.63-2.99-2.02-6.02-1.24-8.97c0.4-1.51,1.34-2.82,2.43-3.93 c1.58-1.6,5.19-3.81,7.31-4.58" style="fill:none;stroke:#D97172;stroke-width:2;stroke-linecap:round;stroke-linejoin:round;stroke-miterlimit:10;"/>
      <path d=" M70.35,45.73c2.78,0.13,5.36,2.2,6.08,4.88" style="fill:none;stroke:#D97172;stroke-width:2;stroke-linecap:round;stroke-linejoin:round;stroke-miterlimit:10;"/>
      <path d=" M92.99,89.49c3.34-0.95,7.19,0.21,9.46,2.84" style="fill:none;stroke:#D97172;stroke-width:2;stroke-linecap:round;stroke-linejoin:round;stroke-miterlimit:10;"/>
      <path d=" M101.59,84.02c0.55-2.42,1.11-4.9,0.85-7.37c-0.26-2.47-1.47-4.98-3.66-6.15" style="fill:none;stroke:#D97172;stroke-width:2;stroke-linecap:round;stroke-linejoin:round;stroke-miterlimit:10;"/>
      <path d=" M89.5,71.63c0.94,2.69,1.02,5.66,0.24,8.4" style="fill:none;stroke:#D97172;stroke-width:2;stroke-linecap:round;stroke-linejoin:round;stroke-miterlimit:10;"/>
      <path d=" M80.35,73.67c2.23-2.94,3.43-6.65,3.36-10.34" style="fill:none;stroke:#D97172;stroke-width:2;stroke-linecap:round;stroke-linejoin:round;stroke-miterlimit:10;"/>
      <path d=" M113.08,55.65c2.61-1.28,6-0.77,8.11,1.23" style="fill:none;stroke:#D97172;stroke-width:2;stroke-linecap:round;stroke-linejoin:round;stroke-miterlimit:10;"/>
      <path d=" M123.71,70.39c-1.01-1.1-2.02-2.21-3.04-3.31" style="fill:none;stroke:#D97172;stroke-width:2;stroke-linecap:round;stroke-linejoin:round;stroke-miterlimit:10;"/>
      <path d=" M114.74,91.38c-0.97-2.02-3.08-3.44-5.31-3.59" style="fill:none;stroke:#D97172;stroke-width:2;stroke-linecap:round;stroke-linejoin:round;stroke-miterlimit:10;"/>
      <path d=" M63,99.39c-0.86,3.86-4.1,7.07-7.96,7.91" style="fill:none;stroke:#D97172;stroke-width:2;stroke-linecap:round;stroke-linejoin:round;stroke-miterlimit:10;"/>
      <path d=" M35.97,101.01c4.81,1.91,10.7,0.73,14.4-2.89" style="fill:none;stroke:#D97172;stroke-width:2;stroke-linecap:round;stroke-linejoin:round;stroke-miterlimit:10;"/>
      <path d=" M42,28.12c0.25-2.59,3.64-7.66,6-8.75" style="fill:none;stroke:#D97172;stroke-width:2;stroke-linecap:round;stroke-linejoin:round;stroke-miterlimit:10;"/>
      <path d=" M80.71,38.93c3.88,2.79,5.75,7.45,3.62,11.73" style="fill:none;stroke:#D97172;stroke-width:2;stroke-linecap:round;stroke-linejoin:round;stroke-miterlimit:10;"/>
      <path d=" M50.7,67.99c-0.61-2.72,0.28-5.72,2.26-7.68" style="fill:none;stroke:#D97172;stroke-width:2;stroke-linecap:round;stroke-linejoin:round;stroke-miterlimit:10;"/>
      <path d=" M32.25,54.62c0.16-2.87,1.52-4.93,4.03-6.33" style="fill:none;stroke:#D97172;stroke-width:2;stroke-linecap:round;stroke-linejoin:round;stroke-miterlimit:10;"/>
      <path d=" M76.23,86.75c-0.79-2.03-0.73-4.38,0.15-6.38" style="fill:none;stroke:#D97172;stroke-width:2;stroke-linecap:round;stroke-linejoin:round;stroke-miterlimit:10;"/>
    </g>
    <g style="opacity:0.2;">
      <path d="M66.14,21.4L66.14,21.4c0.87,0,1.79,0.08,2.73,0.23c2.03,0.33,3.44,0.81,4.33,1.46 c2.64,1.96,5.56,2.99,8.45,2.99l0.1,0l0.08,0c0.88,0,1.77,0.11,2.57,0.33c0.75,0.2,1.35,0.46,1.79,0.78 c2.43,1.76,5.13,2.69,7.81,2.69c0.23,0,0.47-0.01,0.7-0.02c0.19-0.01,0.38-0.02,0.57-0.02c1.18,0,2.3,0.24,3.51,0.76 c1.41,0.61,2.78,1.97,3.57,3.57c1.4,2.84,3.4,5.05,5.8,6.37c1.28,0.71,2.22,1.64,2.59,2.24c0.08,0.13,0.15,0.29,0.21,0.48 c0.99,3.04,2.95,5.66,5.69,7.56c0.69,0.48,1.27,1.13,2.01,2.86c0.59,1.38,0.8,3,0.62,4.8c-0.31,3.12,0.21,6.07,1.49,8.53 c0.37,0.7,0.79,2.06,0.7,4.51c-0.03,0.72-0.2,1.41-0.52,2.04c-1.05,2.05-1.52,4.41-1.37,6.82c0.1,1.62-0.25,4.95-3.7,9.13 c-0.72,0.87-2.05,1.24-3.6,1.66c-1.06,0.29-2.16,0.59-3.22,1.11c-3.16,1.56-6.26,1.67-9.85,1.79c-4.06,0.14-8.65,0.3-13.49,2.88 c-3.97,2.12-11.37,6.06-17.83,6.06c-1.21,0-2.35-0.14-3.39-0.41c-1.27-0.34-2.28-0.49-3.17-0.49c-1.62,0-2.67,0.52-3.5,0.94 c-0.91,0.45-2.04,1.02-5.34,1.2c-0.29,0.02-0.57,0.02-0.84,0.02c-3.12,0-5.12-1.01-6.73-1.82l-0.4-0.2 c-0.89-0.44-1.71-0.76-2.51-0.96c-7.25-1.88-9.8-7.11-11.17-9.92c-2.25-4.61-7.96-5.37-12.56-5.98c-2.06-0.27-4.19-0.56-5.2-1.09 c-2.19-1.15-3.23-3-4.12-7.31c-0.22-1.06-0.46-2-0.68-2.83c-0.74-2.87-1.23-4.76-0.3-9.44c0.2-0.98,1.28-2.85,2-4.08 c0.33-0.57,0.64-1.1,0.88-1.56c1.59-3.07,2.08-6.49,1.4-9.89c-0.64-3.2,2.49-7.08,5.48-10.47l0.53-0.6 c2.79-3.18,4.48-5.1,8.01-5.79c3.16-0.62,6.02-2.29,8.05-4.69c0.43-0.51,2.34-2.26,9.03-3.52l0.31-0.06 c3.04-0.57,5.45-1.02,7.24-1.02c0.6,0,1.11,0.05,1.57,0.15c1,0.22,2.04,0.33,3.07,0.33c2.03,0,4.01-0.41,5.9-1.22 C62.83,21.7,64.41,21.4,66.14,21.4 M66.14,18.4c-2.48,0-4.43,0.52-5.87,1.14c-1.5,0.64-3.1,0.98-4.71,0.98 c-0.81,0-1.63-0.09-2.44-0.26c-0.69-0.15-1.42-0.22-2.21-0.22c-2.14,0-4.69,0.49-8.11,1.13c-4.86,0.91-8.96,2.38-10.78,4.53 c-1.62,1.92-3.86,3.2-6.33,3.68c-4.8,0.94-7,3.71-10.21,7.35c-3.23,3.66-7.11,8.35-6.17,13.05c0.54,2.7,0.16,5.47-1.12,7.91 c-0.8,1.54-2.76,4.46-3.15,6.44c-1.37,6.83,0.04,8.91,0.98,13.46c0.91,4.42,2.16,7.53,5.66,9.37c4.04,2.13,14.02,0.73,16.46,5.73 c1.65,3.39,4.75,9.33,13.11,11.51c0.67,0.17,1.31,0.44,1.93,0.75c1.72,0.85,4.33,2.33,8.47,2.33c0.33,0,0.66-0.01,1.01-0.03 c6.44-0.36,6.33-2.13,8.68-2.13c0.59,0,1.35,0.11,2.4,0.39c1.35,0.36,2.74,0.51,4.16,0.51c6.93,0,14.32-3.79,19.24-6.42 c8.16-4.35,15.51-0.82,23.25-4.63c2.33-1.15,5.79-1.12,7.8-3.56c3.7-4.49,4.55-8.47,4.38-11.22c-0.11-1.82,0.22-3.65,1.05-5.28 c0.44-0.86,0.8-1.96,0.85-3.29c0.1-2.86-0.39-4.76-1.04-6c-1.09-2.09-1.4-4.49-1.17-6.84c0.19-1.89,0.07-4.12-0.85-6.28 c-0.84-1.97-1.7-3.2-3.06-4.14c-2.13-1.48-3.75-3.55-4.55-6.02c-0.12-0.39-0.29-0.76-0.5-1.11c-0.73-1.2-2.14-2.44-3.7-3.31 c-2.04-1.13-3.53-2.98-4.56-5.07c-1.06-2.14-2.91-4.07-5.07-5c-1.67-0.71-3.17-1.01-4.69-1.01c-0.25,0-0.5,0.01-0.76,0.02 c-0.17,0.01-0.35,0.02-0.52,0.02c-2.18,0-4.27-0.83-6.05-2.12c-0.68-0.49-1.58-0.93-2.78-1.25c-1.07-0.29-2.23-0.43-3.34-0.43 c-0.04,0-0.07,0-0.11,0c-0.03,0-0.05,0-0.08,0c-2.42,0-4.72-0.96-6.66-2.4c-1.28-0.95-3.07-1.59-5.62-2.01 C68.19,18.48,67.12,18.4,66.14,18.4L66.14,18.4z" style="fill:#424242;"/>
    </g>
  </g>
  <g id="Layer_2_x5F_复制" style="display:none;">
    <g style="display:inline;opacity:0.3;">
      <g style="opacity:0.6;">
        <circle cx="64" cy="64" r="28" style="opacity:0.61;fill:none;stroke:#000000;stroke-width:0.2625;stroke-miterlimit:10;"/>
        <line style="opacity:0.61;fill:none;stroke:#000000;stroke-width:0.25;stroke-miterlimit:10;" x1="84" x2="84" y1="0" y2="128"/>
        <line style="opacity:0.61;fill:none;stroke:#000000;stroke-width:0.25;stroke-miterlimit:10;" x1="44" x2="44" y1="0" y2="128"/>
        <line style="opacity:0.61;fill:none;stroke:#000000;stroke-width:0.25;stroke-miterlimit:10;" x1="64" x2="64" y1="0" y2="128"/>
        <line style="opacity:0.61;fill:none;stroke:#000000;stroke-width:0.25;stroke-miterlimit:10;" x1="128" x2="0" y1="64" y2="64"/>
        <line style="opacity:0.61;fill:none;stroke:#000000;stroke-width:0.25;stroke-miterlimit:10;" x1="128" x2="0" y1="44" y2="44"/>
        <line style="opacity:0.61;fill:none;stroke:#000000;stroke-width:0.25;stroke-miterlimit:10;" x1="128" x2="0" y1="83.75" y2="83.75"/>
        <line style="opacity:0.61;fill:none;stroke:#000000;stroke-width:0.25;stroke-miterlimit:10;" x1="128" x2="0" y1="128" y2="0"/>
        <line style="opacity:0.61;fill:none;stroke:#000000;stroke-width:0.25;stroke-miterlimit:10;" x1="0" x2="128" y1="128" y2="0"/>
        <g style="opacity:0.61;">
          <path d="M64,4.26c32.94,0,59.74,26.8,59.74,59.74S96.94,123.74,64,123.74S4.26,96.94,4.26,64S31.06,4.26,64,4.26 M64,4 C30.86,4,4,30.86,4,64c0,33.14,26.86,60,60,60c33.14,0,60-26.86,60-60C124,30.86,97.14,4,64,4L64,4z"/>
        </g>
        <path d="M107.97,115.97H20.03 c-4.42,0-8.03-3.61-8.03-8.03V20.03c0-4.42,3.61-8.03,8.03-8.03h87.94c4.42,0,8.03,3.61,8.03,8.03v87.91 C116,112.36,112.39,115.97,107.97,115.97z" style="opacity:0.61;fill:none;stroke:#000000;stroke-width:0.2578;stroke-miterlimit:10;"/>
        <path d="M99.75,124H28 c-4.4,0-8-3.6-8-8V12c0-4.4,3.6-8,8-8h71.75c4.4,0,8,3.6,8,8v104C107.75,120.4,104.15,124,99.75,124z" style="opacity:0.61;fill:none;stroke:#000000;stroke-width:0.2567;stroke-miterlimit:10;"/>
        <path d="M113.77,108H14.23 C8.6,108,4,103.4,4,97.77V30.28c0-5.63,4.6-10.23,10.23-10.23h99.54c5.63,0,10.23,4.6,10.23,10.23v67.48 C124,103.4,119.4,108,113.77,108z" style="opacity:0.61;fill:none;stroke:#000000;stroke-width:0.2627;stroke-miterlimit:10;"/>
      </g>
      <g>
        <g style="opacity:0.2;">
          <defs>
            <rect id="SVGID_2_" height="128" style="opacity:0.2;" width="128"/>
          </defs>
          <clipPath id="SVGID_7_">
            <use style="overflow:visible;" xlink:href="#SVGID_2_"/>
          </clipPath>
          <g style="clip-path:url(#SVGID_7_);">
            <g>
              <line style="fill:none;stroke:#000000;stroke-width:0.25;stroke-miterlimit:10;" x1="-28" x2="-28" y1="160" y2="-32"/>
              <line style="fill:none;stroke:#000000;stroke-width:0.25;stroke-miterlimit:10;" x1="-24" x2="-24" y1="160" y2="-32"/>
              <line style="fill:none;stroke:#000000;stroke-width:0.25;stroke-miterlimit:10;" x1="-20" x2="-20" y1="160" y2="-32"/>
              <line style="fill:none;stroke:#000000;stroke-width:0.25;stroke-miterlimit:10;" x1="-16" x2="-16" y1="160" y2="-32"/>
              <line style="fill:none;stroke:#000000;stroke-width:0.25;stroke-miterlimit:10;" x1="-12" x2="-12" y1="160" y2="-32"/>
              <line style="fill:none;stroke:#000000;stroke-width:0.25;stroke-miterlimit:10;" x1="-8" x2="-8" y1="160" y2="-32"/>
              <line style="fill:none;stroke:#000000;stroke-width:0.25;stroke-miterlimit:10;" x1="-4" x2="-4" y1="160" y2="-32"/>
              <line style="fill:none;stroke:#000000;stroke-width:0.25;stroke-miterlimit:10;" x1="0" x2="0" y1="160" y2="-32"/>
              <line style="fill:none;stroke:#000000;stroke-width:0.25;stroke-miterlimit:10;" x1="4" x2="4" y1="160" y2="-32"/>
              <line style="fill:none;stroke:#000000;stroke-width:0.25;stroke-miterlimit:10;" x1="8" x2="8" y1="160" y2="-32"/>
              <line style="fill:none;stroke:#000000;stroke-width:0.25;stroke-miterlimit:10;" x1="12" x2="12" y1="160" y2="-32"/>
              <line style="fill:none;stroke:#000000;stroke-width:0.25;stroke-miterlimit:10;" x1="16" x2="16" y1="160" y2="-32"/>
              <line style="fill:none;stroke:#000000;stroke-width:0.25;stroke-miterlimit:10;" x1="20" x2="20" y1="160" y2="-32"/>
              <line style="fill:none;stroke:#000000;stroke-width:0.25;stroke-miterlimit:10;" x1="24" x2="24" y1="160" y2="-32"/>
              <line style="fill:none;stroke:#000000;stroke-width:0.25;stroke-miterlimit:10;" x1="28" x2="28" y1="160" y2="-32"/>
              <line style="fill:none;stroke:#000000;stroke-width:0.25;stroke-miterlimit:10;" x1="32" x2="32" y1="160" y2="-32"/>
              <line style="fill:none;stroke:#000000;stroke-width:0.25;stroke-miterlimit:10;" x1="36" x2="36" y1="160" y2="-32"/>
              <line style="fill:none;stroke:#000000;stroke-width:0.25;stroke-miterlimit:10;" x1="40" x2="40" y1="160" y2="-32"/>
              <line style="fill:none;stroke:#000000;stroke-width:0.25;stroke-miterlimit:10;" x1="44" x2="44" y1="160" y2="-32"/>
              <line style="fill:none;stroke:#000000;stroke-width:0.25;stroke-miterlimit:10;" x1="48" x2="48" y1="160" y2="-32"/>
              <line style="fill:none;stroke:#000000;stroke-width:0.25;stroke-miterlimit:10;" x1="52" x2="52" y1="160" y2="-32"/>
              <line style="fill:none;stroke:#000000;stroke-width:0.25;stroke-miterlimit:10;" x1="56" x2="56" y1="160" y2="-32"/>
              <line style="fill:none;stroke:#000000;stroke-width:0.25;stroke-miterlimit:10;" x1="60" x2="60" y1="160" y2="-32"/>
              <line style="fill:none;stroke:#000000;stroke-width:0.25;stroke-miterlimit:10;" x1="64" x2="64" y1="160" y2="-32"/>
              <line style="fill:none;stroke:#000000;stroke-width:0.25;stroke-miterlimit:10;" x1="68" x2="68" y1="160" y2="-32"/>
              <line style="fill:none;stroke:#000000;stroke-width:0.25;stroke-miterlimit:10;" x1="72" x2="72" y1="160" y2="-32"/>
              <line style="fill:none;stroke:#000000;stroke-width:0.25;stroke-miterlimit:10;" x1="76" x2="76" y1="160" y2="-32"/>
              <line style="fill:none;stroke:#000000;stroke-width:0.25;stroke-miterlimit:10;" x1="80" x2="80" y1="160" y2="-32"/>
              <line style="fill:none;stroke:#000000;stroke-width:0.25;stroke-miterlimit:10;" x1="84" x2="84" y1="160" y2="-32"/>
              <line style="fill:none;stroke:#000000;stroke-width:0.25;stroke-miterlimit:10;" x1="88" x2="88" y1="160" y2="-32"/>
              <line style="fill:none;stroke:#000000;stroke-width:0.25;stroke-miterlimit:10;" x1="92" x2="92" y1="160" y2="-32"/>
              <line style="fill:none;stroke:#000000;stroke-width:0.25;stroke-miterlimit:10;" x1="96" x2="96" y1="160" y2="-32"/>
              <line style="fill:none;stroke:#000000;stroke-width:0.25;stroke-miterlimit:10;" x1="100" x2="100" y1="160" y2="-32"/>
              <line style="fill:none;stroke:#000000;stroke-width:0.25;stroke-miterlimit:10;" x1="104" x2="104" y1="160" y2="-32"/>
              <line style="fill:none;stroke:#000000;stroke-width:0.25;stroke-miterlimit:10;" x1="108" x2="108" y1="160" y2="-32"/>
              <line style="fill:none;stroke:#000000;stroke-width:0.25;stroke-miterlimit:10;" x1="112" x2="112" y1="160" y2="-32"/>
              <line style="fill:none;stroke:#000000;stroke-width:0.25;stroke-miterlimit:10;" x1="116" x2="116" y1="160" y2="-32"/>
              <line style="fill:none;stroke:#000000;stroke-width:0.25;stroke-miterlimit:10;" x1="120" x2="120" y1="160" y2="-32"/>
              <line style="fill:none;stroke:#000000;stroke-width:0.25;stroke-miterlimit:10;" x1="124" x2="124" y1="160" y2="-32"/>
              <line style="fill:none;stroke:#000000;stroke-width:0.25;stroke-miterlimit:10;" x1="128" x2="128" y1="160" y2="-32"/>
              <line style="fill:none;stroke:#000000;stroke-width:0.25;stroke-miterlimit:10;" x1="132" x2="132" y1="160" y2="-32"/>
              <line style="fill:none;stroke:#000000;stroke-width:0.25;stroke-miterlimit:10;" x1="136" x2="136" y1="160" y2="-32"/>
              <line style="fill:none;stroke:#000000;stroke-width:0.25;stroke-miterlimit:10;" x1="137" x2="137" y1="166.05" y2="-25.95"/>
              <line style="fill:none;stroke:#000000;stroke-width:0.25;stroke-miterlimit:10;" x1="144" x2="144" y1="160" y2="-32"/>
              <line style="fill:none;stroke:#000000;stroke-width:0.25;stroke-miterlimit:10;" x1="148" x2="148" y1="160" y2="-32"/>
              <line style="fill:none;stroke:#000000;stroke-width:0.25;stroke-miterlimit:10;" x1="152" x2="152" y1="160" y2="-32"/>
              <line style="fill:none;stroke:#000000;stroke-width:0.25;stroke-miterlimit:10;" x1="156" x2="156" y1="160" y2="-32"/>
            </g>
            <g>
              <line style="fill:none;stroke:#000000;stroke-width:0.25;stroke-miterlimit:10;" x1="-32" x2="160" y1="-28" y2="-28"/>
              <line style="fill:none;stroke:#000000;stroke-width:0.25;stroke-miterlimit:10;" x1="-32" x2="160" y1="-24" y2="-24"/>
              <line style="fill:none;stroke:#000000;stroke-width:0.25;stroke-miterlimit:10;" x1="-32" x2="160" y1="-20" y2="-20"/>
              <line style="fill:none;stroke:#000000;stroke-width:0.25;stroke-miterlimit:10;" x1="-32" x2="160" y1="-16" y2="-16"/>
              <line style="fill:none;stroke:#000000;stroke-width:0.25;stroke-miterlimit:10;" x1="-32" x2="160" y1="-12" y2="-12"/>
              <line style="fill:none;stroke:#000000;stroke-width:0.25;stroke-miterlimit:10;" x1="-32" x2="160" y1="-8" y2="-8"/>
              <line style="fill:none;stroke:#000000;stroke-width:0.25;stroke-miterlimit:10;" x1="-32" x2="160" y1="-4" y2="-4"/>
              <line style="fill:none;stroke:#000000;stroke-width:0.25;stroke-miterlimit:10;" x1="-32" x2="160" y1="0" y2="0"/>
              <line style="fill:none;stroke:#000000;stroke-width:0.25;stroke-miterlimit:10;" x1="-32" x2="160" y1="4" y2="4"/>
              <line style="fill:none;stroke:#000000;stroke-width:0.25;stroke-miterlimit:10;" x1="-32" x2="160" y1="8" y2="8"/>
              <line style="fill:none;stroke:#000000;stroke-width:0.25;stroke-miterlimit:10;" x1="-32" x2="160" y1="12" y2="12"/>
              <line style="fill:none;stroke:#000000;stroke-width:0.25;stroke-miterlimit:10;" x1="-32" x2="160" y1="16" y2="16"/>
              <line style="fill:none;stroke:#000000;stroke-width:0.25;stroke-miterlimit:10;" x1="-32" x2="160" y1="20" y2="20"/>
              <line style="fill:none;stroke:#000000;stroke-width:0.25;stroke-miterlimit:10;" x1="-32" x2="160" y1="24" y2="24"/>
              <line style="fill:none;stroke:#000000;stroke-width:0.25;stroke-miterlimit:10;" x1="-32" x2="160" y1="28" y2="28"/>
              <line style="fill:none;stroke:#000000;stroke-width:0.25;stroke-miterlimit:10;" x1="-32" x2="160" y1="32" y2="32"/>
              <line style="fill:none;stroke:#000000;stroke-width:0.25;stroke-miterlimit:10;" x1="-32" x2="160" y1="36" y2="36"/>
              <line style="fill:none;stroke:#000000;stroke-width:0.25;stroke-miterlimit:10;" x1="-32" x2="160" y1="40" y2="40"/>
              <line style="fill:none;stroke:#000000;stroke-width:0.25;stroke-miterlimit:10;" x1="-32" x2="160" y1="44" y2="44"/>
              <line style="fill:none;stroke:#000000;stroke-width:0.25;stroke-miterlimit:10;" x1="-32" x2="160" y1="48" y2="48"/>
              <line style="fill:none;stroke:#000000;stroke-width:0.25;stroke-miterlimit:10;" x1="-32" x2="160" y1="52" y2="52"/>
              <line style="fill:none;stroke:#000000;stroke-width:0.25;stroke-miterlimit:10;" x1="-32" x2="160" y1="56" y2="56"/>
              <line style="fill:none;stroke:#000000;stroke-width:0.25;stroke-miterlimit:10;" x1="-32" x2="160" y1="60" y2="60"/>
              <line style="fill:none;stroke:#000000;stroke-width:0.25;stroke-miterlimit:10;" x1="-32" x2="160" y1="64" y2="64"/>
              <line style="fill:none;stroke:#000000;stroke-width:0.25;stroke-miterlimit:10;" x1="-32" x2="160" y1="68" y2="68"/>
              <line style="fill:none;stroke:#000000;stroke-width:0.25;stroke-miterlimit:10;" x1="-32" x2="160" y1="72" y2="72"/>
              <line style="fill:none;stroke:#000000;stroke-width:0.25;stroke-miterlimit:10;" x1="-32" x2="160" y1="76" y2="76"/>
              <line style="fill:none;stroke:#000000;stroke-width:0.25;stroke-miterlimit:10;" x1="-32" x2="160" y1="80" y2="80"/>
              <line style="fill:none;stroke:#000000;stroke-width:0.25;stroke-miterlimit:10;" x1="-32" x2="160" y1="84" y2="84"/>
              <line style="fill:none;stroke:#000000;stroke-width:0.25;stroke-miterlimit:10;" x1="-32" x2="160" y1="88" y2="88"/>
              <line style="fill:none;stroke:#000000;stroke-width:0.25;stroke-miterlimit:10;" x1="-32" x2="160" y1="92" y2="92"/>
              <line style="fill:none;stroke:#000000;stroke-width:0.25;stroke-miterlimit:10;" x1="-32" x2="160" y1="96" y2="96"/>
              <line style="fill:none;stroke:#000000;stroke-width:0.25;stroke-miterlimit:10;" x1="-32" x2="160" y1="100" y2="100"/>
              <line style="fill:none;stroke:#000000;stroke-width:0.25;stroke-miterlimit:10;" x1="-32" x2="160" y1="104" y2="104"/>
              <line style="fill:none;stroke:#000000;stroke-width:0.25;stroke-miterlimit:10;" x1="-32" x2="160" y1="108" y2="108"/>
              <line style="fill:none;stroke:#000000;stroke-width:0.25;stroke-miterlimit:10;" x1="-32" x2="160" y1="112" y2="112"/>
              <line style="fill:none;stroke:#000000;stroke-width:0.25;stroke-miterlimit:10;" x1="-32" x2="160" y1="116" y2="116"/>
              <line style="fill:none;stroke:#000000;stroke-width:0.25;stroke-miterlimit:10;" x1="-32" x2="160" y1="120" y2="120"/>
              <line style="fill:none;stroke:#000000;stroke-width:0.25;stroke-miterlimit:10;" x1="-32" x2="160" y1="124" y2="124"/>
              <line style="fill:none;stroke:#000000;stroke-width:0.25;stroke-miterlimit:10;" x1="-32" x2="160" y1="128" y2="128"/>
              <line style="fill:none;stroke:#000000;stroke-width:0.25;stroke-miterlimit:10;" x1="-32" x2="160" y1="132" y2="132"/>
              <line style="fill:none;stroke:#000000;stroke-width:0.25;stroke-miterlimit:10;" x1="-32" x2="160" y1="136" y2="136"/>
              <line style="fill:none;stroke:#000000;stroke-width:0.25;stroke-miterlimit:10;" x1="-32" x2="160" y1="140" y2="140"/>
              <line style="fill:none;stroke:#000000;stroke-width:0.25;stroke-miterlimit:10;" x1="-32" x2="160" y1="144" y2="144"/>
              <line style="fill:none;stroke:#000000;stroke-width:0.25;stroke-miterlimit:10;" x1="-32" x2="160" y1="148" y2="148"/>
              <line style="fill:none;stroke:#000000;stroke-width:0.25;stroke-miterlimit:10;" x1="-32" x2="160" y1="152" y2="152"/>
              <line style="fill:none;stroke:#000000;stroke-width:0.25;stroke-miterlimit:10;" x1="-32" x2="160" y1="156" y2="156"/>
            </g>
            <path d="M159.75-31.75v191.5h-191.5v-191.5H159.75 M160-32H-32v192h192V-32L160-32z"/>
          </g>
        </g>
        <g>
          <rect height="128" style="opacity:0.3;fill:#F44336;" width="4"/>
          <rect height="128" style="opacity:0.3;fill:#F44336;" width="4" x="124"/>
          <rect height="120" style="opacity:0.3;fill:#F44336;" transform="matrix(-1.836970e-16 1 -1 -1.836970e-16 66 -62)" width="4" x="62" y="-58"/>
          <rect height="120" style="opacity:0.3;fill:#F44336;" transform="matrix(-1.836970e-16 1 -1 -1.836970e-16 190 62)" width="4" x="62" y="66"/>
        </g>
      </g>
    </g>
  </g>
</svg>