<?xml version="1.0" encoding="utf-8"?>
<!-- Generator: Adobe Illustrator 19.2.1, SVG Export Plug-In . SVG Version: 6.00 Build 0)  -->
<svg version="1.1" id="Layer_1" xmlns="http://www.w3.org/2000/svg" xmlns:xlink="http://www.w3.org/1999/xlink" x="0px" y="0px"
	 viewBox="0 0 128 128" style="enable-background:new 0 0 128 128;" xml:space="preserve">
<path id="XMLID_20_" style="fill:#ED6C30;" d="M22,49h-3V25.42c0.03-6.21,1-17.36,11.59-19.8c3.72-0.86,6.76-0.34,9.26,1.54
	c4.75,3.56,5.09,10.25,5.11,10.55l0,20.28H42V18.27l0,0c0,0-0.52-5.92-4.08-8.57c-1.72-1.29-4.05-1.62-6.81-0.98
	c-4.37,1.01-7.01,3.87-8.36,8.78c-1.07,3.88-0.61,8-0.75,7.85l0,0V49z"/>
<polygon id="XMLID_17_" style="fill:#ED6C30;" points="8.77,38.68 52.44,26.97 59.22,29.21 67.15,28.6 28.18,39.74 "/>
<path id="XMLID_16_" style="fill:#FBC21A;" d="M31.35,120.87l-10.15-3.63c-0.6-0.21-1.25-0.24-1.86-0.08l-7.63,2
	c-1.45,0.38-2.88-0.72-2.88-2.22V38.51l14.97-0.67c0.37-0.02,0.74,0.06,1.08,0.23l3.3,1.67L31.35,120.87z"/>
<path id="XMLID_18_" style="fill:#F79329;" d="M28.18,39.74v77.95c0,2.2,2.17,3.73,4.24,3l32.61-11.56c1.27-0.45,2.12-1.65,2.12-3
	V28.55L28.18,39.74z"/>
<path id="XMLID_2_" style="fill:#FFFFFF;stroke:#231F20;stroke-miterlimit:10;" d="M56.21,45.36"/>
<path id="XMLID_22_" style="fill:#F79329;" d="M35,52h-3V30.25c0-0.62-0.12-5.62,1.15-10.98c1.85-7.77,6.1-12.5,12.13-13.67
	c4.27-0.83,7.76-0.14,10.29,2.07c4.55,3.96,4.23,11.24,4.21,11.55L59.81,46H57V19.16c0-0.14,0.08-6.19-3.3-9.12
	c-1.76-1.52-4.39-1.97-7.64-1.34C34.45,10.96,34.99,30,35,30.2l0,0V52z"/>
<path id="XMLID_9_" style="fill:#757F3F;" d="M73.49,33.4"/>
<path id="XMLID_3_" style="fill:#FBC21A;" d="M56.92,57.42l-14.58,4.66c-1.43,0.41-2.85-0.66-2.85-2.14v-3.77
	c0-0.99,0.66-1.87,1.61-2.14l14.58-4.66c1.43-0.41,2.85,0.66,2.85,2.14v3.77C58.53,56.27,57.87,57.14,56.92,57.42z"/>
<path id="XMLID_1_" style="fill:#BDCF46;" d="M116.09,120.61H60.87c-2.57,0-4.94-1.62-4.94-4.19V46.09H121v70.33
	C121,118.99,118.66,120.61,116.09,120.61z"/>
<path id="XMLID_59_" style="fill:#95AD32;" d="M120.95,103.15v13.25c0,2.58-2.34,4.2-4.92,4.2H60.82c-2.57,0-4.94-1.62-4.94-4.2
	v-13.25H120.95z"/>
<rect id="XMLID_4_" x="55.93" y="35.43" style="fill:#454C29;" width="65.05" height="10.66"/>
<path id="XMLID_5_" style="fill:#757F3F;" d="M60.54,38.1l2.57,1.49c0.91,0.53,0.91,1.84,0,2.37l-2.56,1.48l-4.62,2.66l-0.01-5.33
	l-0.01-5.33L60.54,38.1z"/>
<path id="XMLID_7_" style="fill:#757F3F;" d="M116.36,38.1l-2.56,1.48c-0.92,0.53-0.92,1.86,0,2.39l2.55,1.47l4.62,2.66l0.01-5.33
	l0.01-5.33L116.36,38.1z"/>
<path id="XMLID_11_" style="fill:#454C29;" d="M107.7,35.84h-3.33v-9.29c0-8.8-7.19-15.97-16.03-15.97s-16.03,7.16-16.03,15.97v9.29
	h-3.33v-9.29c0-10.64,8.68-19.29,19.36-19.29s19.36,8.65,19.36,19.29V35.84z"/>
<polygon id="XMLID_41_" style="fill:#FBC21A;" points="28.17,106.73 28.17,103.43 55.89,94.07 55.89,97.34 "/>
<rect id="XMLID_19_" x="60.75" y="46.08" style="fill:#95AD32;" width="4.95" height="57.07"/>
<rect id="XMLID_24_" x="80.87" y="46.08" style="fill:#95AD32;" width="4.95" height="57.07"/>
<rect id="XMLID_25_" x="90.93" y="46.08" style="fill:#95AD32;" width="4.95" height="57.07"/>
<rect id="XMLID_26_" x="100.99" y="46.08" style="fill:#95AD32;" width="4.95" height="57.07"/>
<rect id="XMLID_28_" x="70.81" y="46.08" style="fill:#95AD32;" width="4.95" height="57.07"/>
<rect id="XMLID_29_" x="111.05" y="46.08" style="fill:#95AD32;" width="4.95" height="57.07"/>
<path id="XMLID_12_" style="fill:#757F3F;" d="M106.79,54.36h-3.17V35.96c0-8.39-6.86-15.22-15.28-15.22s-15.28,6.83-15.28,15.22
	v18.41h-3.17V35.96c0-10.14,8.28-18.39,18.45-18.39s18.45,8.25,18.45,18.39V54.36z"/>
<circle id="XMLID_6_" style="fill:#757F3F;" cx="71.29" cy="55.6" r="2.91"/>
<circle id="XMLID_8_" style="fill:#757F3F;" cx="105.12" cy="55.6" r="3"/>
</svg>
