<?xml version="1.0" encoding="utf-8"?>
<!-- Generator: Adobe Illustrator 24.0.3, SVG Export Plug-In . SVG Version: 6.00 Build 0)  -->
<svg version="1.1" id="Layer_1" xmlns="http://www.w3.org/2000/svg" xmlns:xlink="http://www.w3.org/1999/xlink" x="0px" y="0px"
	 viewBox="0 0 128 128" style="enable-background:new 0 0 128 128;" xml:space="preserve">
<linearGradient id="SVGID_1_" gradientUnits="userSpaceOnUse" x1="64.05" y1="95.5805" x2="64.05" y2="31.2758">
	<stop  offset="0.4852" style="stop-color:#504F4F"/>
	<stop  offset="1" style="stop-color:#757575"/>
</linearGradient>
<path style="fill:url(#SVGID_1_);" d="M95.2,34.4c-0.2,0.1-0.5,0.1-0.8,0c-5.5-2.5-16.7-6.7-30.3-6.7s-24.8,4.2-30.3,6.7
	c-0.2,0.1-0.5,0.1-0.8,0c-10.3-3.9-17.2-5.2-25-5.2c-2.2,0-4,1.8-4,4v6.4c0,2.2,1.8,4,3.9,4c2.2,0,4.1,0.3,7.2,0.8
	c0.8,0.1,1.1,1.1,0.6,1.7C8,54.2,4.5,64.8,6.1,76.9c1.8,13.3,13.6,23.4,27.7,23.4c13.9,0,25.8-10.1,27.6-23.4
	c1.7-12.6-2.1-23.5-10.5-31.8c-0.6-0.5-0.3-1.5,0.5-1.7c3.8-0.9,8.1-1.5,12.8-1.5s9,0.6,12.8,1.5c0.8,0.2,1,1.1,0.5,1.7
	C69,53.4,65.2,64.4,66.9,76.9c1.8,13.3,13.6,23.4,27.7,23.4c13.9,0,25.8-10.1,27.6-23.4c1.6-12.1-1.8-22.8-9.6-30.9
	c-0.6-0.6-0.2-1.5,0.6-1.7c3.5-0.6,5.3-0.9,7.9-0.8c1.7,0,3-1.3,3-3v-7.4c0-2.2-1.8-4-4-4C112.2,29.2,105.5,30.5,95.2,34.4z
	 M47.2,75.1C46.3,81.9,39.7,86,33.7,86c-5.9,0-12.4-4.1-13.3-10.9C19,64.4,23.2,56.3,32.9,50.9c0.6-0.3,1.3-0.3,1.9,0
	C44.4,56.3,48.6,64.4,47.2,75.1z M107.9,75.1C107,81.9,100.4,86,94.4,86c-5.8,0-12.4-4.1-13.3-10.9c-1.4-10.7,2.8-18.8,12.5-24.2
	c0.6-0.3,1.3-0.3,1.9,0C105.2,56.3,109.3,64.4,107.9,75.1z"/>
</svg>
