<svg xmlns="http://www.w3.org/2000/svg" viewBox="0 0 128 128"><g fill="#78a3ad"><path d="M90.11 92.77H78.49c-.33 0-.6.27-.6.6v26.9c0 .33.27.6.6.6h11.62c8.04 0 13.44-5.65 13.44-14.05s-5.4-14.05-13.44-14.05zm-.34 21.54c-.07 0-.12-.06-.18-.08-.03 0-.04.03-.07.03-.02 0-.03.02-.06.02h-3.92c-.32 0-.58-.26-.58-.57V99.93c0-.32.26-.57.58-.57h3.92c.02 0 .04.02.06.02.03 0 .04.02.07.02.06-.02.11-.07.18-.07.12 0 .23.03.34.03.21.01.4.03.6.06 3.49.44 5.78 3.29 5.78 7.4s-2.3 6.95-5.78 7.39c-.2.03-.39.05-.6.06-.12.01-.23.04-.34.04zM43.65 92.77h-18.6c-.33 0-.6.27-.6.6v26.9c0 .33.27.6.6.6h18.6c.33 0 .6-.27.6-.6v-4.45c0-.33-.27-.6-.6-.6H31.48v-5.87h9.35c.33 0 .6-.27.6-.6v-4.46c0-.33-.27-.6-.6-.6h-9.35v-5.27h12.16c.33 0 .6-.27.6-.6v-4.46c0-.32-.26-.59-.59-.59zM72.94 92.74H67.1c-.35 0-.63.28-.63.63v16.76l-10.91-17.1a.643.643 0 0 0-.53-.29H49.2c-.35 0-.63.28-.63.63v26.9c0 .35.28.63.63.63h5.83c.35 0 .63-.28.63-.63v-16.76l10.91 17.1c.12.19.32.29.53.29h5.84c.35 0 .63-.28.63-.63v-26.9c0-.35-.29-.63-.63-.63z"/></g><path d="M16.32 48.58L62 14.78V36h50v26H63v20.4L16.32 48.58z" fill="#bdcf46"/></svg>