<svg enable-background="new 0 0 128 128" viewBox="0 0 128 128" xmlns="http://www.w3.org/2000/svg" xmlns:xlink="http://www.w3.org/1999/xlink"><defs><polyline id="f" points="124 4 124 124 4 124 4 4"/></defs><clipPath id="e"><use xlink:href="#f"/></clipPath><g clip-path="url(#e)"><linearGradient id="d" x1="45.64" x2="45.64" y1="27.861" y2="123.48" gradientTransform="matrix(-1 0 0 1 128.19 0)" gradientUnits="userSpaceOnUse"><stop stop-color="#64B5F6" offset=".18"/><stop stop-color="#2196F3" offset=".834"/></linearGradient><path d="m75.18 100.52v-0.87c-7.56-2.23-14.24-7.97-17.57-17.28-3.42-1.24-5.36-12.41-4.44-13.88-0.72-4.81-5.05-41.56 29.37-41.75h0.01 0.01c34.51 0.18 30.07 37.12 29.37 41.78 0.91 1.46-1.04 12.59-4.46 13.84-3.33 9.31-10.01 15.06-17.57 17.28v0.86c17.96 1.32 34.09 7.53 34.09 20.22v3.28h-82.9v-3.28c0-11.99 16.05-18.77 34.09-20.2z" fill="url(#d)"/><g opacity=".2"><path d="m82.53 29.74h0.03c8.87 0.05 15.65 2.73 20.13 7.96 8.96 10.46 6.58 28.37 6.28 30.38-0.08 0.53-0.01 1.07 0.18 1.56 0.06 0.68-0.1 2.76-0.77 5.28-0.81 3.09-1.74 4.39-2.05 4.66-0.79 0.32-1.4 0.96-1.69 1.77-2.79 7.8-8.33 13.28-15.59 15.42-1.28 0.38-2.15 1.55-2.15 2.88v0.86c0 1.57 1.21 2.88 2.78 2.99 15.14 1.11 31.31 6.22 31.31 17.23v4.27h-76.9v-4.28c0-10.18 15.73-15.98 31.33-17.21 1.56-0.12 2.76-1.43 2.76-2.99v-0.87c0-1.33-0.88-2.5-2.15-2.88-7.27-2.14-12.8-7.61-15.59-15.42-0.29-0.8-0.9-1.45-1.69-1.77-0.31-0.27-1.23-1.57-2.04-4.67-0.66-2.53-0.81-4.61-0.76-5.29 0.2-0.49 0.27-1.04 0.19-1.57-0.3-2.01-2.66-19.91 6.3-30.35 4.48-5.23 11.24-7.9 20.09-7.96m0.04-3h-0.01s-0.01 0-0.01 0c-34.42 0.18-30.09 36.93-29.37 41.75-0.92 1.47 1.02 12.63 4.44 13.88 3.33 9.31 10.01 15.06 17.57 17.28v0.87c-18.04 1.43-34.09 8.21-34.09 20.2v7.28h82.9v-7.28c0-12.69-16.13-18.9-34.09-20.22v-0.86c7.56-2.23 14.24-7.97 17.57-17.28 3.42-1.24 5.37-12.38 4.46-13.84 0.7-4.66 5.14-41.59-29.37-41.78z" fill="#424242"/></g><linearGradient id="b" x1="82.547" x2="82.547" y1="27.861" y2="123.48" gradientTransform="matrix(-1 0 0 1 128.19 0)" gradientUnits="userSpaceOnUse"><stop stop-color="#1976D2" offset=".3205"/><stop stop-color="#0D47A1" offset=".8896"/></linearGradient><path d="m38.28 100.52v-0.87c-7.56-2.23-14.24-7.97-17.57-17.28-3.42-1.24-5.36-12.41-4.44-13.88-0.72-4.81-5.05-41.56 29.37-41.75h0.01s0.01 0 0.01 0c34.51 0.18 30.07 37.12 29.37 41.78 0.91 1.46-1.04 12.59-4.46 13.84-3.33 9.32-10.01 15.06-17.57 17.29v0.86c17.96 1.32 34.09 7.53 34.09 20.22v3.27h-82.9v-3.28c0-11.99 16.05-18.77 34.09-20.2z" fill="url(#b)"/><g opacity=".2"><path d="m45.62 29.74h0.03c8.87 0.05 15.65 2.73 20.13 7.96 8.96 10.46 6.58 28.37 6.28 30.38-0.08 0.53-0.01 1.07 0.18 1.56 0.06 0.68-0.1 2.76-0.77 5.28-0.81 3.09-1.74 4.39-2.05 4.66-0.79 0.32-1.4 0.96-1.69 1.77-2.79 7.8-8.33 13.28-15.59 15.42-1.26 0.38-2.14 1.55-2.14 2.88v0.86c0 1.57 1.21 2.88 2.78 2.99 15.14 1.11 31.31 6.22 31.31 17.23v4.27h-76.9v-4.28c0-10.18 15.73-15.98 31.33-17.21 1.56-0.12 2.76-1.43 2.76-2.99v-0.87c0-1.33-0.88-2.5-2.15-2.88-7.27-2.14-12.8-7.61-15.59-15.42-0.29-0.8-0.9-1.45-1.69-1.77-0.31-0.27-1.23-1.57-2.04-4.67-0.66-2.53-0.81-4.61-0.76-5.29 0.2-0.49 0.27-1.04 0.19-1.57-0.3-2.01-2.66-19.91 6.3-30.35 4.47-5.23 11.24-7.9 20.08-7.96m0.05-3h-0.01-0.01c-34.42 0.18-30.09 36.93-29.37 41.75-0.92 1.47 1.02 12.63 4.44 13.88 3.33 9.31 10.01 15.06 17.57 17.28v0.87c-18.04 1.43-34.09 8.21-34.09 20.2v7.28h82.91v-7.28c0-12.69-16.13-18.9-34.09-20.22v-0.86c7.56-2.23 14.24-7.97 17.57-17.28 3.42-1.24 5.37-12.38 4.46-13.84 0.68-4.66 5.13-41.59-29.38-41.78z" fill="#424242"/></g></g><g display="none"><g display="inline"><g opacity=".6"><circle cx="64" cy="64" r="28" fill="none" opacity=".61" stroke="#000" stroke-miterlimit="10" stroke-width=".2625"/><line x1="84" x2="84" y2="128" fill="none" opacity=".61" stroke="#000" stroke-miterlimit="10" stroke-width=".25"/><line x1="44" x2="44" y2="128" fill="none" opacity=".61" stroke="#000" stroke-miterlimit="10" stroke-width=".25"/><line x1="64" x2="64" y2="128" fill="none" opacity=".61" stroke="#000" stroke-miterlimit="10" stroke-width=".25"/><line x1="128" y1="64" y2="64" fill="none" opacity=".61" stroke="#000" stroke-miterlimit="10" stroke-width=".25"/><line x1="128" y1="44" y2="44" fill="none" opacity=".61" stroke="#000" stroke-miterlimit="10" stroke-width=".25"/><line x1="128" y1="83.75" y2="83.75" fill="none" opacity=".61" stroke="#000" stroke-miterlimit="10" stroke-width=".25"/><line x1="128" y1="128" fill="none" opacity=".61" stroke="#000" stroke-miterlimit="10" stroke-width=".25"/><line x2="128" y1="128" fill="none" opacity=".61" stroke="#000" stroke-miterlimit="10" stroke-width=".25"/><g opacity=".61"><path d="M64,4.26c32.94,0,59.74,26.8,59.74,59.74S96.94,123.74,64,123.74S4.26,96.94,4.26,64S31.06,4.26,64,4.26 M64,4 C30.86,4,4,30.86,4,64s26.86,60,60,60s60-26.86,60-60S97.14,4,64,4L64,4z"/></g><path d="m107.97 115.97h-87.94c-4.42 0-8.03-3.61-8.03-8.03v-87.91c0-4.42 3.61-8.03 8.03-8.03h87.94c4.42 0 8.03 3.61 8.03 8.03v87.91c0 4.42-3.61 8.03-8.03 8.03z" fill="none" opacity=".61" stroke="#000" stroke-miterlimit="10" stroke-width=".2578"/><path d="m100 124h-72c-4.4 0-8-3.6-8-8v-104c0-4.4 3.6-8 8-8h72c4.4 0 8 3.6 8 8v104c0 4.4-3.6 8-8 8z" fill="none" opacity=".61" stroke="#000" stroke-miterlimit="10" stroke-width=".2628"/><path d="M113.77,108H14.23 C8.6,108,4,103.4,4,97.77V30.28c0-5.63,4.6-10.23,10.23-10.23h99.54c5.63,0,10.23,4.6,10.23,10.23v67.48 C124,103.4,119.4,108,113.77,108z" fill="none" opacity=".61" stroke="#000" stroke-miterlimit="10" stroke-width=".2627"/></g><g opacity=".2"><defs><rect id="c" width="128" height="128" opacity=".2"/></defs><clipPath id="a"><use xlink:href="#c"/></clipPath><g clip-path="url(#a)"><g fill="none" stroke="#000" stroke-miterlimit="10" stroke-width=".25"><line x1="-28" x2="-28" y1="160" y2="-32"/><line x1="-24" x2="-24" y1="160" y2="-32"/><line x1="-20" x2="-20" y1="160" y2="-32"/><line x1="-16" x2="-16" y1="160" y2="-32"/><line x1="-12" x2="-12" y1="160" y2="-32"/><line x1="-8" x2="-8" y1="160" y2="-32"/><line x1="-4" x2="-4" y1="160" y2="-32"/><line y1="160" y2="-32"/><line x1="4" x2="4" y1="160" y2="-32"/><line x1="8" x2="8" y1="160" y2="-32"/><line x1="12" x2="12" y1="160" y2="-32"/><line x1="16" x2="16" y1="160" y2="-32"/><line x1="20" x2="20" y1="160" y2="-32"/><line x1="24" x2="24" y1="160" y2="-32"/><line x1="28" x2="28" y1="160" y2="-32"/><line x1="32" x2="32" y1="160" y2="-32"/><line x1="36" x2="36" y1="160" y2="-32"/><line x1="40" x2="40" y1="160" y2="-32"/><line x1="44" x2="44" y1="160" y2="-32"/><line x1="48" x2="48" y1="160" y2="-32"/><line x1="52" x2="52" y1="160" y2="-32"/><line x1="56" x2="56" y1="160" y2="-32"/><line x1="60" x2="60" y1="160" y2="-32"/><line x1="64" x2="64" y1="160" y2="-32"/><line x1="68" x2="68" y1="160" y2="-32"/><line x1="72" x2="72" y1="160" y2="-32"/><line x1="76" x2="76" y1="160" y2="-32"/><line x1="80" x2="80" y1="160" y2="-32"/><line x1="84" x2="84" y1="160" y2="-32"/><line x1="88" x2="88" y1="160" y2="-32"/><line x1="92" x2="92" y1="160" y2="-32"/><line x1="96" x2="96" y1="160" y2="-32"/><line x1="100" x2="100" y1="160" y2="-32"/><line x1="104" x2="104" y1="160" y2="-32"/><line x1="108" x2="108" y1="160" y2="-32"/><line x1="112" x2="112" y1="160" y2="-32"/><line x1="116" x2="116" y1="160" y2="-32"/><line x1="120" x2="120" y1="160" y2="-32"/><line x1="124" x2="124" y1="160" y2="-32"/><line x1="128" x2="128" y1="160" y2="-32"/><line x1="132" x2="132" y1="160" y2="-32"/><line x1="136" x2="136" y1="160" y2="-32"/><line x1="137" x2="137" y1="166.05" y2="-25.95"/><line x1="144" x2="144" y1="160" y2="-32"/><line x1="148" x2="148" y1="160" y2="-32"/><line x1="152" x2="152" y1="160" y2="-32"/><line x1="156" x2="156" y1="160" y2="-32"/></g><g fill="none" stroke="#000" stroke-miterlimit="10" stroke-width=".25"><line x1="-32" x2="160" y1="-28" y2="-28"/><line x1="-32" x2="160" y1="-24" y2="-24"/><line x1="-32" x2="160" y1="-20" y2="-20"/><line x1="-32" x2="160" y1="-16" y2="-16"/><line x1="-32" x2="160" y1="-12" y2="-12"/><line x1="-32" x2="160" y1="-8" y2="-8"/><line x1="-32" x2="160" y1="-4" y2="-4"/><line x1="-32" x2="160"/><line x1="-32" x2="160" y1="4" y2="4"/><line x1="-32" x2="160" y1="8" y2="8"/><line x1="-32" x2="160" y1="12" y2="12"/><line x1="-32" x2="160" y1="16" y2="16"/><line x1="-32" x2="160" y1="20" y2="20"/><line x1="-32" x2="160" y1="24" y2="24"/><line x1="-32" x2="160" y1="28" y2="28"/><line x1="-32" x2="160" y1="32" y2="32"/><line x1="-32" x2="160" y1="36" y2="36"/><line x1="-32" x2="160" y1="40" y2="40"/><line x1="-32" x2="160" y1="44" y2="44"/><line x1="-32" x2="160" y1="48" y2="48"/><line x1="-32" x2="160" y1="52" y2="52"/><line x1="-32" x2="160" y1="56" y2="56"/><line x1="-32" x2="160" y1="60" y2="60"/><line x1="-32" x2="160" y1="64" y2="64"/><line x1="-32" x2="160" y1="68" y2="68"/><line x1="-32" x2="160" y1="72" y2="72"/><line x1="-32" x2="160" y1="76" y2="76"/><line x1="-32" x2="160" y1="80" y2="80"/><line x1="-32" x2="160" y1="84" y2="84"/><line x1="-32" x2="160" y1="88" y2="88"/><line x1="-32" x2="160" y1="92" y2="92"/><line x1="-32" x2="160" y1="96" y2="96"/><line x1="-32" x2="160" y1="100" y2="100"/><line x1="-32" x2="160" y1="104" y2="104"/><line x1="-32" x2="160" y1="108" y2="108"/><line x1="-32" x2="160" y1="112" y2="112"/><line x1="-32" x2="160" y1="116" y2="116"/><line x1="-32" x2="160" y1="120" y2="120"/><line x1="-32" x2="160" y1="124" y2="124"/><line x1="-32" x2="160" y1="128" y2="128"/><line x1="-32" x2="160" y1="132" y2="132"/><line x1="-32" x2="160" y1="136" y2="136"/><line x1="-32" x2="160" y1="140" y2="140"/><line x1="-32" x2="160" y1="144" y2="144"/><line x1="-32" x2="160" y1="148" y2="148"/><line x1="-32" x2="160" y1="152" y2="152"/><line x1="-32" x2="160" y1="156" y2="156"/></g><path d="m159.75-31.75v191.5h-191.5v-191.5h191.5m0.25-0.25h-192v192h192v-192z"/></g></g><g fill="#F44336"><rect width="4" height="128" opacity=".3"/><rect x="124" width="4" height="128" opacity=".3"/><rect transform="matrix(-1.837e-16 1 -1 -1.837e-16 66 -62)" x="62" y="-58" width="4" height="120" opacity=".3"/><rect transform="matrix(-1.837e-16 1 -1 -1.837e-16 190 62)" x="62" y="66" width="4" height="120" opacity=".3"/></g></g></g></svg>
