<svg width="128" height="128" style="enable-background:new 0 0 128 128;" xmlns="http://www.w3.org/2000/svg" xmlns:xlink="http://www.w3.org/1999/xlink">
  <g id="图层_3">
    <radialGradient id="SVGID_1_" cx="38.8955" cy="79.6517" gradientUnits="userSpaceOnUse" r="37.9386">
      <stop offset="0.4173" style="stop-color:#F44336"/>
      <stop offset="0.841" style="stop-color:#D32F2F"/>
    </radialGradient>
    <path d="M40.68,122.97l-10.47-15.34c-0.86-1.25-2.51-1.67-3.86-0.97l-14.9,7.72 c-1.69,0.4-3.05-1.38-2.22-2.9c0,0,4.71-22.68,16.98-44.53s24.76-31.83,24.76-31.83l17.84,4.87c0,0-8.69,10.31-15.76,37.36 s-8.62,45.41-8.62,45.41C43.9,124.56,41.41,124.7,40.68,122.97z" style="fill:url(#SVGID_1_);"/>
    <radialGradient id="SVGID_3_" cx="89.6601" cy="79.6517" gradientUnits="userSpaceOnUse" r="37.9386">
      <stop offset="0.4173" style="stop-color:#F44336"/>
      <stop offset="0.841" style="stop-color:#D32F2F"/>
    </radialGradient>
    <path d="M87.88,122.97l10.47-15.34c0.86-1.25,2.51-1.67,3.86-0.97l14.9,7.72 c1.69,0.4,3.05-1.38,2.22-2.9c0,0-4.71-22.68-16.98-44.53S77.58,35.11,77.58,35.11l-17.84,4.87c0,0,8.69,10.31,15.76,37.36 s8.62,45.41,8.62,45.41C84.65,124.56,87.15,124.7,87.88,122.97z" style="fill:url(#SVGID_3_);"/>
    <g style="opacity:0.2;">
      <path d="M51.73,38.43l12.21,3.34c-3.22,5.18-8.9,16.11-13.79,34.82c-5.42,20.73-7.61,36.26-8.37,42.69 l-9.1-13.34c-1.12-1.64-2.97-2.62-4.96-2.62c-0.95,0-1.91,0.23-2.76,0.67l-12.42,6.44c1.33-5.56,6.26-24.19,16.28-42.02 C38.54,51.13,48.46,41.39,51.73,38.43 M50.97,35.11c0,0-12.48,9.99-24.76,31.83S9.23,111.47,9.23,111.47 c-0.75,1.37,0.29,2.96,1.74,2.96c0.16,0,0.32-0.02,0.48-0.06l14.9-7.72c0.44-0.23,0.91-0.34,1.38-0.34c0.96,0,1.9,0.47,2.48,1.31 l10.47,15.34c0.35,0.82,1.09,1.22,1.84,1.22c0.82,0,1.64-0.49,1.92-1.44c0,0,1.54-18.36,8.62-45.41 c7.07-27.05,15.76-37.36,15.76-37.36L50.97,35.11L50.97,35.11z" style="fill:#424242;"/>
    </g>
    <g style="opacity:0.2;">
      <path d="M76.83,38.43c3.27,2.96,13.19,12.7,22.9,29.98c10.02,17.83,14.95,36.46,16.28,42.02l-12.42-6.44 c-0.85-0.44-1.8-0.67-2.76-0.67c-1.99,0-3.84,0.98-4.96,2.62l-9.1,13.34c-0.75-6.43-2.94-21.96-8.37-42.69 c-4.89-18.71-10.57-29.64-13.79-34.82L76.83,38.43 M77.58,35.11l-17.84,4.87c0,0,8.69,10.31,15.76,37.36s8.62,45.41,8.62,45.41 c0.28,0.95,1.1,1.44,1.92,1.44c0.74,0,1.49-0.4,1.84-1.22l10.47-15.34c0.58-0.84,1.52-1.31,2.48-1.31c0.47,0,0.94,0.11,1.38,0.34 l14.9,7.72c0.16,0.04,0.32,0.06,0.48,0.06c1.45,0,2.49-1.59,1.74-2.96c0,0-4.71-22.68-16.98-44.53 C90.07,45.1,77.58,35.11,77.58,35.11L77.58,35.11z" style="fill:#424242;"/>
    </g>
    <radialGradient id="SVGID_4_" cx="54.9381" cy="31.1445" fx="49.9508" fy="31.1635" gradientTransform="matrix(-1 0 0 0.8204 80.8965 5.5932)" gradientUnits="userSpaceOnUse" r="31.4242">
      <stop offset="0.4173" style="stop-color:#F44336"/>
      <stop offset="0.841" style="stop-color:#D32F2F"/>
    </radialGradient>
    <path d="M16.04,61.76C7.73,63.5,3.13,58.79,3.98,51.02l0.8-7.31c1.04-9.56,0.75-19.25-0.87-28.71l0,0 C2.91,9.21,6.76,3.82,11.85,3.91C18.96,4.05,29.12,5.2,39.53,9.6c6.68,2.83,13.21,6.55,18.87,10.18c6.4,4.11,7.65,17-4.54,24.68 C34.14,56.88,25.34,59.82,16.04,61.76z" style="fill:url(#SVGID_4_);"/>
    <radialGradient id="SVGID_5_" cx="101.9381" cy="31.1445" fx="96.9508" fy="31.1635" gradientTransform="matrix(1 0 0 0.8204 0 5.5932)" gradientUnits="userSpaceOnUse" r="31.4242">
      <stop offset="0.4173" style="stop-color:#F44336"/>
      <stop offset="0.841" style="stop-color:#D32F2F"/>
    </radialGradient>
    <path d="M111.85,61.76c8.31,1.73,12.91-2.97,12.07-10.74l-0.8-7.31c-1.04-9.56-0.75-19.25,0.87-28.71 v0c0.99-5.8-2.86-11.19-7.95-11.09C108.94,4.05,98.77,5.2,88.37,9.6c-6.68,2.83-13.21,6.55-18.87,10.18 c-6.4,4.11-7.65,17,4.54,24.68C93.75,56.88,102.55,59.82,111.85,61.76z" style="fill:url(#SVGID_5_);"/>
    <g style="opacity:0.2;">
      <path d="M11.72,6.91l0.08,0c6.54,0.12,16.45,1.17,26.56,5.45c5.72,2.42,11.92,5.77,18.42,9.94 c2.1,1.34,3.39,4.13,3.38,7.26c-0.02,4.7-2.9,9.21-7.9,12.36c-20.23,12.75-28.65,15.19-36.82,16.9c-0.94,0.2-1.83,0.3-2.65,0.3 c-1.97,0-3.47-0.56-4.45-1.65c-1.17-1.31-1.66-3.48-1.37-6.12l0.8-7.31c1.07-9.86,0.77-19.79-0.9-29.54 c-0.37-2.15,0.18-4.35,1.47-5.88C9.26,7.52,10.46,6.91,11.72,6.91 M11.72,3.91c-5.02,0-8.8,5.35-7.82,11.09v0 c1.62,9.45,1.91,19.15,0.87,28.71l-0.8,7.31c-0.73,6.68,2.58,11.1,8.81,11.1c1.01,0,2.1-0.12,3.26-0.36 c9.3-1.94,18.1-4.88,37.81-17.3c12.19-7.68,10.95-20.57,4.54-24.68c-5.66-3.63-12.19-7.35-18.87-10.18 C29.12,5.2,18.96,4.05,11.85,3.91C11.8,3.91,11.76,3.91,11.72,3.91L11.72,3.91z" style="fill:#424242;"/>
    </g>
    <g style="opacity:0.2;">
      <path d="M116.18,6.91c1.26,0,2.46,0.61,3.39,1.71c1.29,1.53,1.84,3.73,1.47,5.88 c-1.67,9.74-1.97,19.68-0.9,29.54l0.8,7.31c0.29,2.64-0.2,4.81-1.37,6.12c-0.98,1.1-2.48,1.65-4.45,1.65 c-0.82,0-1.71-0.1-2.65-0.3c-8.18-1.7-16.59-4.15-36.82-16.9c-5-3.15-7.88-7.65-7.9-12.36c-0.01-3.13,1.28-5.92,3.38-7.26 c6.5-4.17,12.7-7.52,18.42-9.94c10.11-4.29,20.03-5.33,26.56-5.45L116.18,6.91 M116.18,3.91c-0.04,0-0.09,0-0.13,0 C108.94,4.05,98.77,5.2,88.37,9.6c-6.68,2.83-13.21,6.55-18.87,10.18c-6.4,4.11-7.65,17,4.54,24.68 c19.71,12.42,28.51,15.36,37.81,17.3c1.16,0.24,2.25,0.36,3.26,0.36c6.23,0,9.53-4.42,8.81-11.1l-0.8-7.31 c-1.04-9.56-0.75-19.25,0.87-28.71v0C124.98,9.26,121.2,3.91,116.18,3.91L116.18,3.91z" style="fill:#424242;"/>
    </g>
    <path d="M30.2,33.02c0,3.56,5.19,6.44,11.59,6.44s15.23-6.44,15.23-6.44s-8.82-6.44-15.23-6.44 S30.2,29.46,30.2,33.02z" style="fill:#C62828;"/>
    <path d="M97.7,33.02c0,3.56-5.19,6.44-11.59,6.44s-15.23-6.44-15.23-6.44s8.82-6.44,15.23-6.44 S97.7,29.46,97.7,33.02z" style="fill:#C62828;"/>
    <radialGradient id="SVGID_6_" cx="64.1614" cy="27.1241" gradientUnits="userSpaceOnUse" r="13.743">
      <stop offset="0.2131" style="stop-color:#F44336"/>
      <stop offset="0.8956" style="stop-color:#D32F2F"/>
    </radialGradient>
    <path d="M68.22,48.14h-7.45c-4.03,0-7.29-3.26-7.29-7.29V23.4c0-4.03,3.26-7.29,7.29-7.29h7.45 c4.03,0,7.29,3.26,7.29,7.29v17.45C75.51,44.87,72.24,48.14,68.22,48.14z" style="fill:url(#SVGID_6_);"/>
    <g style="opacity:0.2;">
      <path d="M68.22,19.11c2.37,0,4.29,1.92,4.29,4.29v17.45c0,2.37-1.92,4.29-4.29,4.29h-7.45 c-2.37,0-4.29-1.92-4.29-4.29V23.4c0-2.37,1.92-4.29,4.29-4.29H68.22 M68.22,16.11h-7.45c-4.03,0-7.29,3.26-7.29,7.29v17.45 c0,4.03,3.26,7.29,7.29,7.29h7.45c4.03,0,7.29-3.26,7.29-7.29V23.4C75.51,19.37,72.24,16.11,68.22,16.11L68.22,16.11z" style="fill:#424242;"/>
    </g>
  </g>
  <g id="Layer_2_x5F_复制" style="display:none;">
    <g style="display:inline;opacity:0.3;">
      <g style="opacity:0.6;">
        <circle cx="64" cy="64" r="28" style="opacity:0.61;fill:none;stroke:#000000;stroke-width:0.2625;stroke-miterlimit:10;"/>
        <line style="opacity:0.61;fill:none;stroke:#000000;stroke-width:0.25;stroke-miterlimit:10;" x1="84" x2="84" y1="0" y2="128"/>
        <line style="opacity:0.61;fill:none;stroke:#000000;stroke-width:0.25;stroke-miterlimit:10;" x1="44" x2="44" y1="0" y2="128"/>
        <line style="opacity:0.61;fill:none;stroke:#000000;stroke-width:0.25;stroke-miterlimit:10;" x1="64" x2="64" y1="0" y2="128"/>
        <line style="opacity:0.61;fill:none;stroke:#000000;stroke-width:0.25;stroke-miterlimit:10;" x1="128" x2="0" y1="64" y2="64"/>
        <line style="opacity:0.61;fill:none;stroke:#000000;stroke-width:0.25;stroke-miterlimit:10;" x1="128" x2="0" y1="44" y2="44"/>
        <line style="opacity:0.61;fill:none;stroke:#000000;stroke-width:0.25;stroke-miterlimit:10;" x1="128" x2="0" y1="83.75" y2="83.75"/>
        <line style="opacity:0.61;fill:none;stroke:#000000;stroke-width:0.25;stroke-miterlimit:10;" x1="128" x2="0" y1="128" y2="0"/>
        <line style="opacity:0.61;fill:none;stroke:#000000;stroke-width:0.25;stroke-miterlimit:10;" x1="0" x2="128" y1="128" y2="0"/>
        <g style="opacity:0.61;">
          <path d="M64,4.26c32.94,0,59.74,26.8,59.74,59.74S96.94,123.74,64,123.74S4.26,96.94,4.26,64S31.06,4.26,64,4.26 M64,4 C30.86,4,4,30.86,4,64c0,33.14,26.86,60,60,60c33.14,0,60-26.86,60-60C124,30.86,97.14,4,64,4L64,4z"/>
        </g>
        <path d="M107.97,115.97H20.03 c-4.42,0-8.03-3.61-8.03-8.03V20.03c0-4.42,3.61-8.03,8.03-8.03h87.94c4.42,0,8.03,3.61,8.03,8.03v87.91 C116,112.36,112.39,115.97,107.97,115.97z" style="opacity:0.61;fill:none;stroke:#000000;stroke-width:0.2578;stroke-miterlimit:10;"/>
        <path d="M99.75,124H28 c-4.4,0-8-3.6-8-8V12c0-4.4,3.6-8,8-8h71.75c4.4,0,8,3.6,8,8v104C107.75,120.4,104.15,124,99.75,124z" style="opacity:0.61;fill:none;stroke:#000000;stroke-width:0.2567;stroke-miterlimit:10;"/>
        <path d="M113.77,108H14.23 C8.6,108,4,103.4,4,97.77V30.28c0-5.63,4.6-10.23,10.23-10.23h99.54c5.63,0,10.23,4.6,10.23,10.23v67.48 C124,103.4,119.4,108,113.77,108z" style="opacity:0.61;fill:none;stroke:#000000;stroke-width:0.2627;stroke-miterlimit:10;"/>
      </g>
      <g>
        <g style="opacity:0.2;">
          <defs>
            <rect id="SVGID_2_" height="128" style="opacity:0.2;" width="128"/>
          </defs>
          <clipPath id="SVGID_7_">
            <use style="overflow:visible;" xlink:href="#SVGID_2_"/>
          </clipPath>
          <g style="clip-path:url(#SVGID_7_);">
            <g>
              <line style="fill:none;stroke:#000000;stroke-width:0.25;stroke-miterlimit:10;" x1="-28" x2="-28" y1="160" y2="-32"/>
              <line style="fill:none;stroke:#000000;stroke-width:0.25;stroke-miterlimit:10;" x1="-24" x2="-24" y1="160" y2="-32"/>
              <line style="fill:none;stroke:#000000;stroke-width:0.25;stroke-miterlimit:10;" x1="-20" x2="-20" y1="160" y2="-32"/>
              <line style="fill:none;stroke:#000000;stroke-width:0.25;stroke-miterlimit:10;" x1="-16" x2="-16" y1="160" y2="-32"/>
              <line style="fill:none;stroke:#000000;stroke-width:0.25;stroke-miterlimit:10;" x1="-12" x2="-12" y1="160" y2="-32"/>
              <line style="fill:none;stroke:#000000;stroke-width:0.25;stroke-miterlimit:10;" x1="-8" x2="-8" y1="160" y2="-32"/>
              <line style="fill:none;stroke:#000000;stroke-width:0.25;stroke-miterlimit:10;" x1="-4" x2="-4" y1="160" y2="-32"/>
              <line style="fill:none;stroke:#000000;stroke-width:0.25;stroke-miterlimit:10;" x1="0" x2="0" y1="160" y2="-32"/>
              <line style="fill:none;stroke:#000000;stroke-width:0.25;stroke-miterlimit:10;" x1="4" x2="4" y1="160" y2="-32"/>
              <line style="fill:none;stroke:#000000;stroke-width:0.25;stroke-miterlimit:10;" x1="8" x2="8" y1="160" y2="-32"/>
              <line style="fill:none;stroke:#000000;stroke-width:0.25;stroke-miterlimit:10;" x1="12" x2="12" y1="160" y2="-32"/>
              <line style="fill:none;stroke:#000000;stroke-width:0.25;stroke-miterlimit:10;" x1="16" x2="16" y1="160" y2="-32"/>
              <line style="fill:none;stroke:#000000;stroke-width:0.25;stroke-miterlimit:10;" x1="20" x2="20" y1="160" y2="-32"/>
              <line style="fill:none;stroke:#000000;stroke-width:0.25;stroke-miterlimit:10;" x1="24" x2="24" y1="160" y2="-32"/>
              <line style="fill:none;stroke:#000000;stroke-width:0.25;stroke-miterlimit:10;" x1="28" x2="28" y1="160" y2="-32"/>
              <line style="fill:none;stroke:#000000;stroke-width:0.25;stroke-miterlimit:10;" x1="32" x2="32" y1="160" y2="-32"/>
              <line style="fill:none;stroke:#000000;stroke-width:0.25;stroke-miterlimit:10;" x1="36" x2="36" y1="160" y2="-32"/>
              <line style="fill:none;stroke:#000000;stroke-width:0.25;stroke-miterlimit:10;" x1="40" x2="40" y1="160" y2="-32"/>
              <line style="fill:none;stroke:#000000;stroke-width:0.25;stroke-miterlimit:10;" x1="44" x2="44" y1="160" y2="-32"/>
              <line style="fill:none;stroke:#000000;stroke-width:0.25;stroke-miterlimit:10;" x1="48" x2="48" y1="160" y2="-32"/>
              <line style="fill:none;stroke:#000000;stroke-width:0.25;stroke-miterlimit:10;" x1="52" x2="52" y1="160" y2="-32"/>
              <line style="fill:none;stroke:#000000;stroke-width:0.25;stroke-miterlimit:10;" x1="56" x2="56" y1="160" y2="-32"/>
              <line style="fill:none;stroke:#000000;stroke-width:0.25;stroke-miterlimit:10;" x1="60" x2="60" y1="160" y2="-32"/>
              <line style="fill:none;stroke:#000000;stroke-width:0.25;stroke-miterlimit:10;" x1="64" x2="64" y1="160" y2="-32"/>
              <line style="fill:none;stroke:#000000;stroke-width:0.25;stroke-miterlimit:10;" x1="68" x2="68" y1="160" y2="-32"/>
              <line style="fill:none;stroke:#000000;stroke-width:0.25;stroke-miterlimit:10;" x1="72" x2="72" y1="160" y2="-32"/>
              <line style="fill:none;stroke:#000000;stroke-width:0.25;stroke-miterlimit:10;" x1="76" x2="76" y1="160" y2="-32"/>
              <line style="fill:none;stroke:#000000;stroke-width:0.25;stroke-miterlimit:10;" x1="80" x2="80" y1="160" y2="-32"/>
              <line style="fill:none;stroke:#000000;stroke-width:0.25;stroke-miterlimit:10;" x1="84" x2="84" y1="160" y2="-32"/>
              <line style="fill:none;stroke:#000000;stroke-width:0.25;stroke-miterlimit:10;" x1="88" x2="88" y1="160" y2="-32"/>
              <line style="fill:none;stroke:#000000;stroke-width:0.25;stroke-miterlimit:10;" x1="92" x2="92" y1="160" y2="-32"/>
              <line style="fill:none;stroke:#000000;stroke-width:0.25;stroke-miterlimit:10;" x1="96" x2="96" y1="160" y2="-32"/>
              <line style="fill:none;stroke:#000000;stroke-width:0.25;stroke-miterlimit:10;" x1="100" x2="100" y1="160" y2="-32"/>
              <line style="fill:none;stroke:#000000;stroke-width:0.25;stroke-miterlimit:10;" x1="104" x2="104" y1="160" y2="-32"/>
              <line style="fill:none;stroke:#000000;stroke-width:0.25;stroke-miterlimit:10;" x1="108" x2="108" y1="160" y2="-32"/>
              <line style="fill:none;stroke:#000000;stroke-width:0.25;stroke-miterlimit:10;" x1="112" x2="112" y1="160" y2="-32"/>
              <line style="fill:none;stroke:#000000;stroke-width:0.25;stroke-miterlimit:10;" x1="116" x2="116" y1="160" y2="-32"/>
              <line style="fill:none;stroke:#000000;stroke-width:0.25;stroke-miterlimit:10;" x1="120" x2="120" y1="160" y2="-32"/>
              <line style="fill:none;stroke:#000000;stroke-width:0.25;stroke-miterlimit:10;" x1="124" x2="124" y1="160" y2="-32"/>
              <line style="fill:none;stroke:#000000;stroke-width:0.25;stroke-miterlimit:10;" x1="128" x2="128" y1="160" y2="-32"/>
              <line style="fill:none;stroke:#000000;stroke-width:0.25;stroke-miterlimit:10;" x1="132" x2="132" y1="160" y2="-32"/>
              <line style="fill:none;stroke:#000000;stroke-width:0.25;stroke-miterlimit:10;" x1="136" x2="136" y1="160" y2="-32"/>
              <line style="fill:none;stroke:#000000;stroke-width:0.25;stroke-miterlimit:10;" x1="137" x2="137" y1="166.05" y2="-25.95"/>
              <line style="fill:none;stroke:#000000;stroke-width:0.25;stroke-miterlimit:10;" x1="144" x2="144" y1="160" y2="-32"/>
              <line style="fill:none;stroke:#000000;stroke-width:0.25;stroke-miterlimit:10;" x1="148" x2="148" y1="160" y2="-32"/>
              <line style="fill:none;stroke:#000000;stroke-width:0.25;stroke-miterlimit:10;" x1="152" x2="152" y1="160" y2="-32"/>
              <line style="fill:none;stroke:#000000;stroke-width:0.25;stroke-miterlimit:10;" x1="156" x2="156" y1="160" y2="-32"/>
            </g>
            <g>
              <line style="fill:none;stroke:#000000;stroke-width:0.25;stroke-miterlimit:10;" x1="-32" x2="160" y1="-28" y2="-28"/>
              <line style="fill:none;stroke:#000000;stroke-width:0.25;stroke-miterlimit:10;" x1="-32" x2="160" y1="-24" y2="-24"/>
              <line style="fill:none;stroke:#000000;stroke-width:0.25;stroke-miterlimit:10;" x1="-32" x2="160" y1="-20" y2="-20"/>
              <line style="fill:none;stroke:#000000;stroke-width:0.25;stroke-miterlimit:10;" x1="-32" x2="160" y1="-16" y2="-16"/>
              <line style="fill:none;stroke:#000000;stroke-width:0.25;stroke-miterlimit:10;" x1="-32" x2="160" y1="-12" y2="-12"/>
              <line style="fill:none;stroke:#000000;stroke-width:0.25;stroke-miterlimit:10;" x1="-32" x2="160" y1="-8" y2="-8"/>
              <line style="fill:none;stroke:#000000;stroke-width:0.25;stroke-miterlimit:10;" x1="-32" x2="160" y1="-4" y2="-4"/>
              <line style="fill:none;stroke:#000000;stroke-width:0.25;stroke-miterlimit:10;" x1="-32" x2="160" y1="0" y2="0"/>
              <line style="fill:none;stroke:#000000;stroke-width:0.25;stroke-miterlimit:10;" x1="-32" x2="160" y1="4" y2="4"/>
              <line style="fill:none;stroke:#000000;stroke-width:0.25;stroke-miterlimit:10;" x1="-32" x2="160" y1="8" y2="8"/>
              <line style="fill:none;stroke:#000000;stroke-width:0.25;stroke-miterlimit:10;" x1="-32" x2="160" y1="12" y2="12"/>
              <line style="fill:none;stroke:#000000;stroke-width:0.25;stroke-miterlimit:10;" x1="-32" x2="160" y1="16" y2="16"/>
              <line style="fill:none;stroke:#000000;stroke-width:0.25;stroke-miterlimit:10;" x1="-32" x2="160" y1="20" y2="20"/>
              <line style="fill:none;stroke:#000000;stroke-width:0.25;stroke-miterlimit:10;" x1="-32" x2="160" y1="24" y2="24"/>
              <line style="fill:none;stroke:#000000;stroke-width:0.25;stroke-miterlimit:10;" x1="-32" x2="160" y1="28" y2="28"/>
              <line style="fill:none;stroke:#000000;stroke-width:0.25;stroke-miterlimit:10;" x1="-32" x2="160" y1="32" y2="32"/>
              <line style="fill:none;stroke:#000000;stroke-width:0.25;stroke-miterlimit:10;" x1="-32" x2="160" y1="36" y2="36"/>
              <line style="fill:none;stroke:#000000;stroke-width:0.25;stroke-miterlimit:10;" x1="-32" x2="160" y1="40" y2="40"/>
              <line style="fill:none;stroke:#000000;stroke-width:0.25;stroke-miterlimit:10;" x1="-32" x2="160" y1="44" y2="44"/>
              <line style="fill:none;stroke:#000000;stroke-width:0.25;stroke-miterlimit:10;" x1="-32" x2="160" y1="48" y2="48"/>
              <line style="fill:none;stroke:#000000;stroke-width:0.25;stroke-miterlimit:10;" x1="-32" x2="160" y1="52" y2="52"/>
              <line style="fill:none;stroke:#000000;stroke-width:0.25;stroke-miterlimit:10;" x1="-32" x2="160" y1="56" y2="56"/>
              <line style="fill:none;stroke:#000000;stroke-width:0.25;stroke-miterlimit:10;" x1="-32" x2="160" y1="60" y2="60"/>
              <line style="fill:none;stroke:#000000;stroke-width:0.25;stroke-miterlimit:10;" x1="-32" x2="160" y1="64" y2="64"/>
              <line style="fill:none;stroke:#000000;stroke-width:0.25;stroke-miterlimit:10;" x1="-32" x2="160" y1="68" y2="68"/>
              <line style="fill:none;stroke:#000000;stroke-width:0.25;stroke-miterlimit:10;" x1="-32" x2="160" y1="72" y2="72"/>
              <line style="fill:none;stroke:#000000;stroke-width:0.25;stroke-miterlimit:10;" x1="-32" x2="160" y1="76" y2="76"/>
              <line style="fill:none;stroke:#000000;stroke-width:0.25;stroke-miterlimit:10;" x1="-32" x2="160" y1="80" y2="80"/>
              <line style="fill:none;stroke:#000000;stroke-width:0.25;stroke-miterlimit:10;" x1="-32" x2="160" y1="84" y2="84"/>
              <line style="fill:none;stroke:#000000;stroke-width:0.25;stroke-miterlimit:10;" x1="-32" x2="160" y1="88" y2="88"/>
              <line style="fill:none;stroke:#000000;stroke-width:0.25;stroke-miterlimit:10;" x1="-32" x2="160" y1="92" y2="92"/>
              <line style="fill:none;stroke:#000000;stroke-width:0.25;stroke-miterlimit:10;" x1="-32" x2="160" y1="96" y2="96"/>
              <line style="fill:none;stroke:#000000;stroke-width:0.25;stroke-miterlimit:10;" x1="-32" x2="160" y1="100" y2="100"/>
              <line style="fill:none;stroke:#000000;stroke-width:0.25;stroke-miterlimit:10;" x1="-32" x2="160" y1="104" y2="104"/>
              <line style="fill:none;stroke:#000000;stroke-width:0.25;stroke-miterlimit:10;" x1="-32" x2="160" y1="108" y2="108"/>
              <line style="fill:none;stroke:#000000;stroke-width:0.25;stroke-miterlimit:10;" x1="-32" x2="160" y1="112" y2="112"/>
              <line style="fill:none;stroke:#000000;stroke-width:0.25;stroke-miterlimit:10;" x1="-32" x2="160" y1="116" y2="116"/>
              <line style="fill:none;stroke:#000000;stroke-width:0.25;stroke-miterlimit:10;" x1="-32" x2="160" y1="120" y2="120"/>
              <line style="fill:none;stroke:#000000;stroke-width:0.25;stroke-miterlimit:10;" x1="-32" x2="160" y1="124" y2="124"/>
              <line style="fill:none;stroke:#000000;stroke-width:0.25;stroke-miterlimit:10;" x1="-32" x2="160" y1="128" y2="128"/>
              <line style="fill:none;stroke:#000000;stroke-width:0.25;stroke-miterlimit:10;" x1="-32" x2="160" y1="132" y2="132"/>
              <line style="fill:none;stroke:#000000;stroke-width:0.25;stroke-miterlimit:10;" x1="-32" x2="160" y1="136" y2="136"/>
              <line style="fill:none;stroke:#000000;stroke-width:0.25;stroke-miterlimit:10;" x1="-32" x2="160" y1="140" y2="140"/>
              <line style="fill:none;stroke:#000000;stroke-width:0.25;stroke-miterlimit:10;" x1="-32" x2="160" y1="144" y2="144"/>
              <line style="fill:none;stroke:#000000;stroke-width:0.25;stroke-miterlimit:10;" x1="-32" x2="160" y1="148" y2="148"/>
              <line style="fill:none;stroke:#000000;stroke-width:0.25;stroke-miterlimit:10;" x1="-32" x2="160" y1="152" y2="152"/>
              <line style="fill:none;stroke:#000000;stroke-width:0.25;stroke-miterlimit:10;" x1="-32" x2="160" y1="156" y2="156"/>
            </g>
            <path d="M159.75-31.75v191.5h-191.5v-191.5H159.75 M160-32H-32v192h192V-32L160-32z"/>
          </g>
        </g>
        <g>
          <rect height="128" style="opacity:0.3;fill:#F44336;" width="4"/>
          <rect height="128" style="opacity:0.3;fill:#F44336;" width="4" x="124"/>
          <rect height="120" style="opacity:0.3;fill:#F44336;" transform="matrix(-1.836970e-16 1 -1 -1.836970e-16 66 -62)" width="4" x="62" y="-58"/>
          <rect height="120" style="opacity:0.3;fill:#F44336;" transform="matrix(-1.836970e-16 1 -1 -1.836970e-16 190 62)" width="4" x="62" y="66"/>
        </g>
      </g>
    </g>
  </g>
</svg>