<?xml version="1.0" encoding="utf-8"?>
<!-- Generator: Adobe Illustrator 24.0.3, SVG Export Plug-In . SVG Version: 6.00 Build 0)  -->
<svg version="1.1" id="Layer_1" xmlns="http://www.w3.org/2000/svg" xmlns:xlink="http://www.w3.org/1999/xlink" x="0px" y="0px"
	 viewBox="0 0 128 128" style="enable-background:new 0 0 128 128;" xml:space="preserve">
<radialGradient id="SVGID_1_" cx="47.2206" cy="760.6879" r="35.942" gradientTransform="matrix(1.0066 0 0 1.0207 2.6585 -715.1882)" gradientUnits="userSpaceOnUse">
	<stop  offset="0" style="stop-color:#42A5F5"/>
	<stop  offset="1" style="stop-color:#1E88E5"/>
</radialGradient>
<path style="fill:url(#SVGID_1_);" d="M49.1,27.3c10.3,15.2-4.7,31.2-3.4,38.1c2.3,12.2,12.1,18.2,2.9,30.5c-1.5,2-8.3,6.7-18,1
	c-10.4-6.1-26-41.5-18.4-62.2C19.3,15.2,42.8,18.1,49.1,27.3z"/>
<path style="fill:#1E88E5;" d="M49.9,24.3c-4.6-3-3.1-24.5,9.8-17S54.5,27.3,49.9,24.3z"/>
<path style="fill:#1E88E5;" d="M38.3,17.9c-4.1-1-6.2-15.4,3-13.6S42.4,18.9,38.3,17.9z"/>
<path style="fill:#1E88E5;" d="M27.3,17.3C24.8,18,14.9,8.4,24.1,5.4C32.9,2.5,29.8,16.6,27.3,17.3z"/>
<path style="fill:#1E88E5;" d="M17.7,20.7c-2.5,1.5-12.2-5.5-5.8-9.9C18,6.8,20.2,19.2,17.7,20.7z"/>
<path style="fill:#1E88E5;" d="M11.4,26.8c-1.9,2.5-10.3-1.6-7-5.9S13.3,24.3,11.4,26.8z"/>
<radialGradient id="SVGID_2_" cx="-809.7646" cy="781.8619" r="42.194" gradientTransform="matrix(-1.0066 0 0 1.0207 -748.0556 -715.1882)" gradientUnits="userSpaceOnUse">
	<stop  offset="0" style="stop-color:#42A5F5"/>
	<stop  offset="1" style="stop-color:#1E88E5"/>
</radialGradient>
<path style="fill:url(#SVGID_2_);" d="M78.1,51.8C67.8,67,82.8,83,81.5,89.9c-2.3,12.2-12.1,18.2-2.9,30.5c1.5,2,8.3,6.7,18,1
	c10.4-6.1,25.9-41.5,18.4-62.2C107.9,39.7,84.4,42.6,78.1,51.8z"/>
<path style="fill:#1E88E5;" d="M77.3,48.8c4.6-3,3.1-24.5-9.8-17S72.7,51.8,77.3,48.8z"/>
<path style="fill:#1E88E5;" d="M88.9,42.4c4.1-1,6.2-15.4-3-13.6S84.8,43.4,88.9,42.4z"/>
<path style="fill:#1E88E5;" d="M99.9,41.8c2.5,0.7,12.3-8.9,3.2-11.9C94.3,27,97.4,41.1,99.9,41.8z"/>
<path style="fill:#1E88E5;" d="M109.5,45.2c2.5,1.5,12.2-5.5,5.8-9.9C109.2,31.3,107,43.7,109.5,45.2z"/>
<path style="fill:#1E88E5;" d="M115.9,51.3c1.9,2.5,10.3-1.6,7-5.9C119.5,41.1,113.9,48.8,115.9,51.3z"/>
</svg>
