<svg xmlns="http://www.w3.org/2000/svg" viewBox="0 0 128 128"><path d="M73.61 125.43c-6.35 1.91-12.88 1.91-19.22 0-3.32-1-6.31-5.08-6.74-8.27-1-7.9-2-15.8-2.99-23.71-.43-3.2 2.58-4.44 6.92-3.52 8.15 1.76 16.7 1.76 24.85 0 4.34-.92 7.35.32 6.92 3.52-1 7.9-2 15.8-2.99 23.71-.44 3.19-3.42 7.27-6.75 8.27z" fill="#e9b877"/><path d="M83.42 93.88a78.815 78.815 0 0 1-38.84 0c-3.41-.86-6.14-4.64-6.14-8.08v-8.41c0-3.44 2.73-5.28 6.14-4.42a78.815 78.815 0 0 0 38.84 0c3.41-.86 6.14.98 6.14 4.42v8.41c0 3.44-2.73 7.22-6.14 8.08z" fill="#e9b877"/><path d="M44.71 93.91c.19 1.53.39 3.07.58 4.6 12.29 3 25.12 3 37.41 0 .19-1.53.39-3.07.58-4.6a78.92 78.92 0 0 1-38.57 0z" fill="#d3a166"/><path d="M88.33 41.37c.84-1.23 1.49-2.57 1.85-4.02 1.38-5.58-2.12-11.97-7.53-13.5.88-2.05 1.2-4.29.79-7.1-.81-5.61-5.22-13.55-11.15-15.17-1.59-.43-3.27-.62-4.89-.26-2.16.48-1.8 1.54-1.5 3.27.73 4.18-1.84 7.78-5.44 9.63-3.02 1.55-6.45 2.12-9.72 2.91-6.47 1.56-13.48 7.29-14.13 14.31-.11 1.23 0 2.48.35 3.67.27.92.95 1.76.97 2.75.03.86-1.11 1.45-1.63 1.96-2.36 2.32-3.76 6.11-3.89 9.36-.06 1.62.21 3.22.7 4.75.44 1.37 1.39 2.87.75 4.34-1.67 3.84-2.56 8.41-1.1 12.45 1.66 4.59 6.19 7.31 10.43 9.25 4.18 1.92 8.94 2.19 13.49 2.27 6.48.1 12.9.34 19.37-.34 9.78-1.02 21.62-5.75 19.7-18-.16-1.01-.67-2.39-1.1-3.33-.18-.39-.67-.78-.73-1.2-.07-.44.23-.96.34-1.36.58-2.08 1.46-3.94 1.33-6.13-.17-2.91-1.48-5.7-3.57-7.74-.27-.27-3.55-2.99-3.69-2.77z" fill="#e4e3de"/><path d="M83.44 21.16c-.43 2.31-.89 2.68-1.14 2.86-1.75 1.19-7 3.16-9.06 3.64-1.33.31-2.9.79-4.25.97-1.26.17-2.78.24-3.48-.03-.7-.27-.06-1.17.82-1.44 2.23-.52 6-2.09 7.86-3.42 3.42-2.44 5.36-3.85 7.54-7.48.27-.44.7-1.01 1.15-.77.18.1.33.28.38.48.48 1.93.46 3.73.18 5.19zM88.33 41.37c-.49.65-3.72 1.71-4.69 1.94-1.94.46-5.26 1.22-11.33 1.52-3.75.18-7 .53-8.78.22-.73-.13-1.22-.83-.36-1.22 2.8-1.27 8.19-1.82 11.71-2.55 2.86-.59 8.89-1.47 11.77-4.35.63-.63 2.39-2.34 3.03-2.47.57-.12.87.57.76 1.34-.34 2.29-.6 3.22-2.11 5.57zM94.12 58.4c-1.2 3.35-10.66 5.45-27.23 5.98-2.59.08-10.85-.16-10.42-1.79.22-.8 1.77-1.04 2.78-1.14 3.79-.37 11.39-.53 18.81-1.96 3.03-.58 7.71-1.93 11.57-3.21 2.77-.92 5.11-4 5.67-3.69.74.47-.46 3.57-1.18 5.81zM95.85 66.58c-1.18-.79-2.86 2.48-4.19 3.55-5.93 4.76-11.98 6.21-19.44 7.84-5.28 1.15-13.73 1.97-19.73 1.49-3.82-.3-3.35 2.51 2.28 2.74 6.67.28 23.76.82 30.81-2.54 3.39-1.62 6.65-3.49 8.64-6.6 1.21-1.92 2.07-5.9 1.63-6.48z" fill="#cdcbbf"/></svg>