<?xml version="1.0" encoding="UTF-8" standalone="no"?>
<svg
   xmlns:dc="http://purl.org/dc/elements/1.1/"
   xmlns:cc="http://creativecommons.org/ns#"
   xmlns:rdf="http://www.w3.org/1999/02/22-rdf-syntax-ns#"
   xmlns:svg="http://www.w3.org/2000/svg"
   xmlns="http://www.w3.org/2000/svg"
   xmlns:sodipodi="http://sodipodi.sourceforge.net/DTD/sodipodi-0.dtd"
   xmlns:inkscape="http://www.inkscape.org/namespaces/inkscape"
   width="128"
   height="128"
   style="enable-background:new 0 0 128 128;"
   version="1.1"
   id="svg2295"
   sodipodi:docname="emoji_u1f9b7.svg"
   inkscape:version="0.92.3 (2405546, 2018-03-11)">
  <metadata
     id="metadata2301">
    <rdf:RDF>
      <cc:Work
         rdf:about="">
        <dc:format>image/svg+xml</dc:format>
        <dc:type
           rdf:resource="http://purl.org/dc/dcmitype/StillImage" />
        <dc:title></dc:title>
      </cc:Work>
    </rdf:RDF>
  </metadata>
  <defs
     id="defs2299" />
  <sodipodi:namedview
     pagecolor="#ffffff"
     bordercolor="#666666"
     borderopacity="1"
     objecttolerance="10"
     gridtolerance="10"
     guidetolerance="10"
     inkscape:pageopacity="0"
     inkscape:pageshadow="2"
     inkscape:window-width="993"
     inkscape:window-height="506"
     id="namedview2297"
     showgrid="false"
     inkscape:zoom="2.6074563"
     inkscape:cx="70.595868"
     inkscape:cy="147.32815"
     inkscape:window-x="570"
     inkscape:window-y="591"
     inkscape:window-maximized="0"
     inkscape:current-layer="svg2295" />
  <path
     style="fill:#f9f7ee;fill-opacity:1;stroke:#000000;stroke-width:1.99999988;stroke-linecap:butt;stroke-linejoin:miter;stroke-miterlimit:4;stroke-dasharray:none;stroke-opacity:0.34567901;paint-order:stroke fill markers"
     d="m 45.086697,14.364336 c -18.119501,9.16615 -3.649131,31.24688 -9.205789,47.911458 -5.224986,15.669884 -12.177328,26.097034 -8.866261,39.905166 1.257161,5.24275 10.598101,6.64579 12.122861,0.14362 2.696923,-11.50077 -0.214869,-14.976825 4.52801,-26.980576 4.085429,-10.33981 11.802402,-11.325797 18.748408,-9.966912 6.42744,1.257436 13.967649,6.639184 12.594086,15.080689 -2.072871,12.73924 -7.157065,15.005107 -10.667546,26.099089 -2.01484,6.36739 9.411743,10.39537 10.933806,5.21423 C 78.960749,99.222253 82.720141,95.180118 86.270222,78.457565 89.912301,61.301658 113.41627,47.643144 99.890299,27.099424 89.876408,11.889976 84.863493,31.739352 70.680133,28.443467 53.210283,24.383878 61.368134,6.1280097 45.086697,14.364336 Z"
     id="path830"
     inkscape:connector-curvature="0"
     sodipodi:nodetypes="sssssasssssss" />
</svg>
