<svg width="128" height="128" style="enable-background:new 0 0 128 128;" xmlns="http://www.w3.org/2000/svg" xmlns:xlink="http://www.w3.org/1999/xlink">
  <g id="hair">
    <g>
      <radialGradient id="SVGID_1_" cx="173.0372" cy="-34.2338" gradientTransform="matrix(0.826 0 0 0.826 -86.4475 20.5464)" gradientUnits="userSpaceOnUse" r="57.5072">
        <stop offset="0" style="stop-color:#444140"/>
        <stop offset="1" style="stop-color:#232020"/>
      </radialGradient>
      <path d="M39.58,119.76c0,0-6.8-0.35-10.21-5.09c-8.61-11.95-8.48-41.65-8.37-65.52 c0.01-2.51,0.02-4.95,0.02-7.3c0-0.03,0-0.11-0.01-0.23c-0.22-3.77-0.26-16.78,8.55-26.13c6.17-6.55,15.45-9.87,27.56-9.87 c11.87,0,20.85,3.26,26.68,9.7c8.54,9.42,7.94,23.02,7.55,26.96c-0.02,0.2-0.03,0.32-0.03,0.36c0,3.38,0.04,6.96,0.08,10.65 c0.23,22.28,0.52,50-7.67,61.37c-3.3,4.59-9.79,5.06-10.25,5.09l-16.93-0.03L39.58,119.76z" style="fill:url(#SVGID_1_);"/>
      <path d="M57.13,7.12c11.43,0,20.04,3.1,25.57,9.21c8.13,8.97,7.54,22.02,7.17,25.81 c-0.03,0.28-0.03,0.46-0.03,0.51c0,3.4,0.04,6.93,0.08,10.67c0.23,22.06,0.51,49.51-7.39,60.48c-2.84,3.94-8.55,4.43-9.08,4.46 l-16.9-0.03l-16.88,0.03c-0.58-0.04-6.25-0.54-9.08-4.46c-8.32-11.56-8.19-42.24-8.09-64.64c0.01-2.51,0.02-4.96,0.02-7.3 c0-0.04,0-0.15-0.01-0.32c-0.15-2.57-0.47-15.87,8.15-25.01C36.54,10.29,45.44,7.12,57.13,7.12 M57.13,4.12 c-41.01,0-37.6,37.13-37.6,37.73c0,24.56-1.2,60.04,8.63,73.69c3.9,5.41,11.43,5.71,11.43,5.71l16.97-0.03l16.97,0.03 c0,0,7.53-0.3,11.43-5.71c9.83-13.65,7.88-48.34,7.88-72.9C92.83,42.04,98.13,4.12,57.13,4.12L57.13,4.12z" style="fill:#1F1D1B;"/>
    </g>
  </g>
  <g id="Layer_5">
    <g>
      <defs>
        <rect id="SVGID_2_" height="120" width="120" x="4" y="4"/>
      </defs>
      <clipPath id="SVGID_3_">
        <use style="overflow:visible;" xlink:href="#SVGID_2_"/>
      </clipPath>
      <g id="XMLID_84_" style="clip-path:url(#SVGID_3_);">
        <linearGradient id="SVGID_4_" gradientUnits="userSpaceOnUse" x1="56.25" x2="56.25" y1="97.0088" y2="135.8252">
          <stop offset="5.160877e-04" style="stop-color:#E3E3E3"/>
          <stop offset="1" style="stop-color:#C9C9C9"/>
        </linearGradient>
        <path d="M5.75,135.83v-15.26c0-16.24,25.36-23.53,50.5-23.56h0.13c25.03,0,50.36,8.09,50.36,23.56 v15.26H5.75z" style="fill:url(#SVGID_4_);"/>
        <path d="M56.38,98.51c12.9,0,25.42,2.19,34.36,6c6.62,2.83,14.51,7.91,14.51,16.05v13.76h-98v-13.76 c0-15.2,24.61-22.03,49-22.06L56.38,98.51 M56.38,95.51c-0.05,0-0.09,0-0.13,0c-25.49,0.03-52,7.28-52,25.06v16.76h104v-16.76 C108.25,103.81,81.99,95.51,56.38,95.51L56.38,95.51z" style="fill:#BBBDBF;"/>
      </g>
      <g id="XMLID_82_" style="clip-path:url(#SVGID_3_);">
        <path d="M55.4,106.23c-4,0-7.26-3.22-7.26-7.17v-8.98H64.3v8.98c0,3.96-3.26,7.17-7.26,7.17H55.4z" style="fill:#3C2B24;"/>
        <path d="M63.3,91.08v7.98c0,3.4-2.81,6.17-6.26,6.17H55.4c-3.45,0-6.26-2.77-6.26-6.17v-7.98h7.08H63.3 M65.3,89.08h-9.08h-9.08v9.98c0,4.51,3.7,8.17,8.26,8.17h1.65c4.56,0,8.26-3.66,8.26-8.17V89.08L65.3,89.08z" style="fill:#291B16;"/>
      </g>
      <g style="clip-path:url(#SVGID_3_);">
        <g>
          <path d="M100.82,129.79l-8-0.25c-6.96-0.71-11.7-4.77-10.79-13.12c1.97-18.12,21.83-12.18,23.64-6.3 C108.37,118.92,103.92,130.1,100.82,129.79z" style="fill:#70534A;"/>
          <path d="M100.94,130.76c-0.06,0-0.13,0-0.19-0.01l-7.97-0.25c-4.16-0.42-7.38-1.95-9.39-4.43 c-1.98-2.45-2.77-5.74-2.33-9.76c0.83-7.61,5.03-12.33,11.52-12.95c5.9-0.56,12.83,2.64,14,6.47c2.27,7.38-0.28,16.1-2.91,19.3 C102.6,130.45,101.63,130.76,100.94,130.76z M94.01,105.24c-0.41,0-0.83,0.02-1.24,0.06c-3.23,0.31-8.79,2.17-9.78,11.23 c-0.38,3.49,0.26,6.3,1.91,8.33c1.67,2.07,4.45,3.35,8.01,3.72l7.93,0.25c0.02,0,0.04,0,0.07,0c0.2,0.02,0.68-0.2,1.27-0.92 c2.41-2.94,4.55-11.02,2.56-17.5C103.98,107.93,98.98,105.24,94.01,105.24z" style="fill:#4A2F27;"/>
        </g>
        <path d="M93.5,126L93.5,126c-0.27,1.7,0.89,3.29,2.59,3.57l4.33,0.69c1.7,0.27,3.29-0.89,3.57-2.59v0 c0.27-1.7-0.89-3.29-2.59-3.57l-4.33-0.69C95.37,123.14,93.77,124.3,93.5,126z" style="fill:#70534A;"/>
        <g>
          <path d="M94.71,121.54L94.71,121.54c-0.26,1.71,0.91,3.31,2.62,3.58l5.68,0.87 c1.71,0.26,3.31-0.91,3.58-2.62l0,0c0.26-1.71-0.91-3.31-2.62-3.58l-5.68-0.87C96.58,118.66,94.97,119.83,94.71,121.54z" style="fill:#70534A;"/>
          <path d="M103.5,127c-0.21,0-0.42-0.02-0.63-0.05l-5.68-0.87c-1.08-0.17-2.04-0.75-2.69-1.63 c-0.65-0.88-0.91-1.97-0.75-3.05l0,0c0.34-2.24,2.44-3.78,4.68-3.43l5.69,0.88c1.08,0.17,2.04,0.74,2.69,1.63 c0.65,0.88,0.91,1.97,0.75,3.05c-0.17,1.08-0.74,2.04-1.63,2.68C105.21,126.72,104.37,127,103.5,127z M97.81,119.85 c-1.05,0-1.98,0.77-2.14,1.84c0,0,0,0,0,0c-0.18,1.18,0.63,2.29,1.81,2.47l5.68,0.87c0.57,0.09,1.15-0.05,1.61-0.39 c0.47-0.34,0.77-0.85,0.86-1.42s-0.05-1.14-0.39-1.61c-0.34-0.47-0.85-0.77-1.42-0.86l-5.69-0.88 C98.03,119.86,97.92,119.85,97.81,119.85z M94.71,121.54L94.71,121.54L94.71,121.54z" style="fill:#4A2F27;"/>
        </g>
        <g>
          <path d="M94.97,117.26L94.97,117.26c-0.17,1.68,1.05,3.19,2.74,3.36l6.95,0.71 c1.68,0.17,3.19-1.05,3.36-2.74v0c0.17-1.68-1.05-3.19-2.74-3.36l-6.95-0.71C96.64,114.35,95.14,115.57,94.97,117.26z" style="fill:#70534A;"/>
          <path d="M104.97,122.31c-0.14,0-0.28-0.01-0.42-0.02l-6.95-0.71c-1.07-0.11-2.04-0.63-2.72-1.46 c-0.68-0.84-1-1.89-0.89-2.96c0.23-2.21,2.21-3.83,4.42-3.6l6.95,0.71c1.07,0.11,2.04,0.63,2.72,1.46s1,1.88,0.89,2.96 c-0.11,1.07-0.63,2.04-1.46,2.72C106.79,121.99,105.9,122.31,104.97,122.31z M98.02,115.47c-1.06,0-1.98,0.81-2.08,1.88l0,0 c-0.06,0.56,0.11,1.1,0.46,1.54c0.35,0.43,0.86,0.7,1.41,0.76l6.95,0.71c0.56,0.06,1.1-0.11,1.54-0.46 c0.43-0.35,0.7-0.86,0.76-1.41c0.06-0.56-0.11-1.1-0.46-1.54c-0.35-0.43-0.86-0.7-1.41-0.76l-6.95-0.71 C98.16,115.47,98.09,115.47,98.02,115.47z M94.97,117.26L94.97,117.26L94.97,117.26z" style="fill:#4A2F27;"/>
        </g>
        <g>
          <path d="M94.89,111.78L94.89,111.78c-0.08,1.69,1.23,3.13,2.92,3.21l6.98,0.33 c1.69,0.08,3.13-1.23,3.21-2.92v0c0.08-1.69-1.23-3.13-2.92-3.21l-6.98-0.33C96.41,108.78,94.97,110.09,94.89,111.78z" style="fill:#70534A;"/>
          <path d="M104.94,116.28c-0.06,0-0.13,0-0.2,0l-6.98-0.33c-1.08-0.05-2.07-0.52-2.79-1.31 c-0.73-0.8-1.1-1.83-1.05-2.9c0,0,0,0,0,0c0.11-2.22,2-3.93,4.22-3.84l6.98,0.33c2.22,0.11,3.94,2,3.84,4.22 c-0.05,1.08-0.52,2.07-1.32,2.79C106.9,115.92,105.94,116.28,104.94,116.28z M95.86,111.82c-0.03,0.56,0.17,1.1,0.54,1.51 s0.89,0.66,1.45,0.68l6.98,0.33c0.55,0.03,1.09-0.17,1.51-0.54c0.41-0.38,0.66-0.89,0.68-1.45c0.05-1.15-0.84-2.14-2-2.19 l-6.98-0.33C96.95,109.76,95.91,110.67,95.86,111.82L95.86,111.82z" style="fill:#4A2F27;"/>
        </g>
        <g>
          <path d="M105.57,104.92c-0.77-0.19-3.45-1.06-5.22-1.45c-0.67-0.15-2.45-0.48-3.13-0.49 c-2.18-0.04-9.12,2.5-10.74,4.1c-0.79,0.78-5.75,12.15,4.03,10.37c4.09-0.52,3.01-5.45,4.36-6.82c1.03-1.05,2.7-2.6,7.64-0.91 c1.38,0.47,3.76,0.45,4.63-0.6C108.65,107.29,107.81,105.48,105.57,104.92z" style="fill:#70534A;"/>
          <path d="M109.09,106.31c-0.38-1.13-1.46-1.99-2.96-2.35c-0.26-0.06-0.74-0.2-1.32-0.37 c-1.17-0.34-2.78-0.8-4-1.07c-0.62-0.14-2.52-0.49-3.38-0.51c-6.63-0.15-9.7,2.08-11.66,4.3c-1.29,1.45-0.98,4.03-0.63,3.54 c0.69-0.95,3.8-3.73,6.56-4.78c2.42-0.92,3.83-1.2,5.72-1.17c0.58,0.01,2.26,0.31,2.97,0.46c1.15,0.25,2.72,0.71,3.87,1.04 c0.62,0.18,1.13,0.33,1.4,0.39c0.83,0.2,1.41,0.6,1.57,1.1c0.14,0.43,0.13,1.25-0.34,1.79c-0.49,0.57-2.61,0.73-3.88,0.3 c-1.8-0.6-3.74-1.37-5.64-0.94c-1.44,0.33-3.14,1.25-3.71,2.6c-0.56,1.32-0.09,4.75-2.2,6.8c-0.87,0.84-3.13,1.89-3.13,1.89 s2.47,0.54,3.86-0.25c1.96-1.12,2.9-3.62,3.29-5.64c0.17-0.9,0.14-2.5,0.42-2.76c0.87-0.86,1.88-2.12,6.41-0.61 c1.58,0.52,4.68,1.03,5.95-0.45C109.15,108.56,109.45,107.38,109.09,106.31z" style="fill:#4A2F27;"/>
        </g>
      </g>
    </g>
  </g>
  <g id="head">
    <g>
      <g>
        <linearGradient id="SVGID_5_" gradientUnits="userSpaceOnUse" x1="56.5555" x2="56.5555" y1="94.7081" y2="17.8854">
          <stop offset="0" style="stop-color:#5C4037"/>
          <stop offset="0.1584" style="stop-color:#63463D"/>
          <stop offset="0.5335" style="stop-color:#6D5047"/>
          <stop offset="1" style="stop-color:#70534A"/>
        </linearGradient>
        <path d="M56.56,95.27c-2.3,0-4.91-0.5-7.56-1.43C37.66,89.83,24.42,77.5,24.42,55.95 c0-28.72,17.31-38.91,32.13-38.91s32.13,10.19,32.13,38.91c0,21.58-13.26,33.9-24.61,37.9C61.44,94.78,58.84,95.27,56.56,95.27z" style="fill:url(#SVGID_5_);"/>
        <path d="M56.56,18.04L56.56,18.04c8.41,0,16.06,3.25,21.55,9.15c6.27,6.73,9.58,16.68,9.58,28.77 c0,21.06-12.9,33.07-23.94,36.96c-2.53,0.89-5.01,1.36-7.19,1.36c-2.19,0-4.69-0.48-7.23-1.38c-11.03-3.9-23.9-15.92-23.9-36.94 c0-12.09,3.31-22.03,9.58-28.77C40.49,21.29,48.15,18.04,56.56,18.04 M56.56,16.04L56.56,16.04L56.56,16.04 c-17.2,0-33.13,12.79-33.13,39.91c0,21.79,13.49,34.67,25.23,38.83c2.8,0.99,5.5,1.49,7.9,1.49c2.38,0,5.07-0.49,7.85-1.47 c11.76-4.14,25.28-17.03,25.28-38.84C89.69,28.83,73.76,16.04,56.56,16.04L56.56,16.04z" style="fill:#4A2F27;"/>
      </g>
      <g>
        <defs>
          <path id="SVGID_6_" d="M23.42,88.84l-2.27-51.44c0-16.95,15.78-29.85,32.73-29.85h4.93c16.95,0,32.54,12.9,32.54,29.85 l-2.61,51.18L23.42,88.84z"/>
        </defs>
        <clipPath id="SVGID_7_">
          <use style="overflow:visible;" xlink:href="#SVGID_6_"/>
        </clipPath>
        <g style="clip-path:url(#SVGID_7_);">
          <radialGradient id="SVGID_8_" cx="210.7274" cy="-25.3846" gradientTransform="matrix(0.796 0 0 0.796 -111.4953 19.7858)" gradientUnits="userSpaceOnUse" r="48.2064">
            <stop offset="0" style="stop-color:#444140"/>
            <stop offset="1" style="stop-color:#232020"/>
          </radialGradient>
          <path d="M94.14,42.65c0,0,1.02-35.57-37.81-35.57S18.36,42.65,18.36,42.65s0.33,45.48,3.2,51.39 s7.2,5.71,7.2,5.71s-2.03-26.54-2.26-39.04c-0.06-2.92-0.94-13.73,5.16-15.09c22.36-5.02,35.01-16.89,35.01-16.89 c3.29,7.19,13.58,14.19,17.27,16.86c3.03,2.19,2.61,11.2,2.55,15.03l-3.05,39.06c0,0,4.68,0.37,7.65-5.64 C94.05,88.02,94.14,42.65,94.14,42.65z" style="fill:url(#SVGID_8_);"/>
        </g>
      </g>
      <g>
        <path d="M60.62,68.05c-0.1-0.04-0.21-0.07-0.32-0.08h-6.99c-0.11,0.01-0.21,0.04-0.32,0.08 c-0.63,0.26-0.98,0.91-0.68,1.61c0.3,0.7,1.69,2.66,4.49,2.66c2.8,0,4.19-1.96,4.49-2.66C61.6,68.97,61.25,68.31,60.62,68.05z" style="fill:#33251F;"/>
        <g>
          <ellipse cx="40.56" cy="58.87" rx="4.87" ry="5.04" style="fill:#1A1717;"/>
          <ellipse cx="73.05" cy="58.87" rx="4.87" ry="5.04" style="fill:#1A1717;"/>
          <path d="M47.79,49.82c-0.93-1.23-3.07-3.01-7.23-3.01s-6.31,1.79-7.23,3.01 c-0.41,0.54-0.31,1.17-0.02,1.55c0.26,0.35,1.04,0.68,1.9,0.39c0.86-0.29,2.54-1.16,5.35-1.18c2.81,0.02,4.49,0.89,5.35,1.18 c0.86,0.29,1.64-0.03,1.9-0.39C48.1,50.99,48.2,50.36,47.79,49.82z" style="fill:#1A1717;"/>
          <path d="M80.29,49.82c-0.93-1.23-3.07-3.01-7.23-3.01s-6.31,1.79-7.23,3.01 c-0.41,0.54-0.31,1.17-0.02,1.55c0.26,0.35,1.04,0.68,1.9,0.39c0.86-0.29,2.54-1.16,5.35-1.18c2.81,0.02,4.49,0.89,5.35,1.18 c0.86,0.29,1.64-0.03,1.9-0.39C80.59,50.99,80.7,50.36,80.29,49.82z" style="fill:#1A1717;"/>
        </g>
        <path d="M64.87,76.14c-3.15,1.87-13.46,1.87-16.61,0c-1.81-1.07-3.65,0.57-2.9,2.21 c0.74,1.61,6.37,5.36,11.23,5.36s10.42-3.75,11.16-5.36C68.5,76.71,66.68,75.06,64.87,76.14z" style="fill:#1A1717;"/>
      </g>
    </g>
    <path d="M57.85,124.12h-3v-19.11c0-0.53,0.67-0.95,1.5-0.95h0c0.83,0,1.5,0.43,1.5,0.95V124.12z" style="fill:#757575;"/>
    <circle cx="62.81" cy="112.3" r="2" style="fill:#757575;"/>
    <circle cx="62.81" cy="120.32" r="2" style="fill:#757575;"/>
    <path d="M73.24,93.31l-10.28,2.17c-3.41,0.75-6.07,3.73-6.61,8.58l0,0c-0.54-4.85-3.3-7.83-6.61-8.58 l-10.28-2.17c-0.63,0-1.15,0.66-1.15,1.47v8.5c0,0.81,0.51,1.47,1.15,1.47c0,0,5.8,2.35,16.89,2.35s16.9-2.35,16.9-2.35 c0.63,0,1.15-0.66,1.15-1.47v-8.5C74.39,93.97,73.87,93.31,73.24,93.31z" style="fill:#1565C0;"/>
    <g>
      <defs>
        <path id="SVGID_9_" d="M97.43,102.01c0,0,0.72,0.01,1.72,0.2c1.27,0.24,3.09,0.66,4.8,1.14c0.33,0.09,0.65,0.19,0.98,0.28 c0.85,0.25,1.09,0.3,1.6,0.44c3.6,0.98,13.59-9.19,13.59-9.19l6.38-7.54l-2-22.5l-23.92-9.5L87.42,65.5l-2,20.25l6.33,13.67 L97.43,102.01z"/>
      </defs>
      <clipPath id="SVGID_10_">
        <use style="overflow:visible;" xlink:href="#SVGID_9_"/>
      </clipPath>
      <g style="clip-path:url(#SVGID_10_);">
        <g>
          <linearGradient id="SVGID_11_" gradientTransform="matrix(0.9997 -0.0232 0.0232 0.9997 -2.3562 -11.3658)" gradientUnits="userSpaceOnUse" x1="107.6421" x2="102.1389" y1="73.4847" y2="123.1085">
            <stop offset="0" style="stop-color:#616161"/>
            <stop offset="0.0593" style="stop-color:#5C5C5C"/>
            <stop offset="0.3124" style="stop-color:#4C4C4C"/>
            <stop offset="0.6003" style="stop-color:#434343"/>
            <stop offset="0.9959" style="stop-color:#404040"/>
          </linearGradient>
          <path d="M99.7,104.61l1.48-8.97c0.06-0.38-0.17-0.75-0.55-0.86 c-8.55-2.36-14.01-10.46-12.98-19.27c1.05-9,8.67-15.79,17.72-15.79c0.7,0,1.4,0.04,2.1,0.12c4.74,0.55,8.98,2.92,11.94,6.66 s4.28,8.41,3.73,13.15c-0.97,8.33-7.73,14.93-16.07,15.71c-0.36,0.03-0.64,0.31-0.69,0.67l-1.08,9.41 C103.89,105.24,101.06,104.82,99.7,104.61z" style="fill:url(#SVGID_11_);"/>
          <path d="M105.37,60.49c0.67,0,1.34,0.04,2.01,0.12c9.37,1.09,16.09,9.6,15,18.97 c-0.93,7.97-7.4,14.3-15.39,15.04c-0.72,0.07-1.29,0.63-1.37,1.34l-0.99,8.63c-0.83-0.13-2.1-0.32-4.04-0.61l1.35-8.21 c0.13-0.77-0.35-1.51-1.1-1.71c-8.19-2.26-13.41-10.01-12.43-18.44C89.41,66.99,96.7,60.49,105.37,60.49 M105.37,58.97 c-9.32,0-17.36,6.98-18.47,16.46c-1.08,9.25,4.83,17.69,13.54,20.09l-1.6,9.73c0.01,0,7.04,1.06,7.12,1.08l1.18-10.19 c8.57-0.8,15.72-7.48,16.76-16.38c1.19-10.21-6.12-19.46-16.33-20.66C106.82,59.01,106.09,58.97,105.37,58.97L105.37,58.97z" style="fill:#2B2B2E;"/>
        </g>
        <path d="M116.41,77.81c1.83,7.54-3.84,15.13-10.79,10.19C98.68,83.05,92.36,84,94.85,77.4 c2.5-6.6,4.49-12.41,9.7-11.04C109.76,67.73,114.59,70.27,116.41,77.81z" style="fill:#FFFFFF;"/>
        <linearGradient id="SVGID_12_" gradientTransform="matrix(0.9997 -0.0232 0.0232 0.9997 -2.3562 -11.3658)" gradientUnits="userSpaceOnUse" x1="105.6513" x2="105.6513" y1="85.9628" y2="95.5211">
          <stop offset="0" style="stop-color:#FFCA28"/>
          <stop offset="0.3408" style="stop-color:#FFC825"/>
          <stop offset="0.6293" style="stop-color:#FFC21A"/>
          <stop offset="0.898" style="stop-color:#FFB809"/>
          <stop offset="1" style="stop-color:#FFB300"/>
        </linearGradient>
        <circle cx="105.38" cy="77.23" r="5.16" style="fill:url(#SVGID_12_);"/>
      </g>
    </g>
  </g>
  <g id="Layer_6">
    <g>
      <linearGradient id="SVGID_13_" gradientUnits="userSpaceOnUse" x1="56.3511" x2="56.3511" y1="5.8389" y2="45.1155">
        <stop offset="4.137600e-03" style="stop-color:#E6E6E6"/>
        <stop offset="0.3332" style="stop-color:#D9D9D9"/>
        <stop offset="0.9409" style="stop-color:#B7B7B7"/>
        <stop offset="1" style="stop-color:#B3B3B3"/>
      </linearGradient>
      <path d="M19.38,36.33c-0.07-0.6-0.47-1.09-1-1.31c-4.65-2.79-6.82-6.33-6.82-11.12v-2.04 c0-13.54,17.14-16.26,44.8-16.26c30.14,0,44.8,5.32,44.8,16.26v2.04c0,5.2-1.93,8.55-6.44,11.22c-0.46,0.27-0.74,0.74-0.78,1.25 c-0.11,0.76-1.32,7.53-2.27,12.83c-4.26-0.99-16.3-3.35-34.58-3.35c-18.37,0-31.48,2.87-36.14,4.06L19.38,36.33z" style="fill:url(#SVGID_13_);"/>
      <path d="M56.35,7.2c29.07,0,43.2,4.8,43.2,14.66v2.04c0,4.62-1.64,7.47-5.66,9.84 c-0.89,0.53-1.46,1.44-1.56,2.44c-0.13,0.84-1.11,6.33-1.96,11.11c-5.37-1.13-16.85-3.03-33.31-3.03 c-16.56,0-28.93,2.32-34.75,3.68l-1.35-11.79c-0.13-1.15-0.86-2.1-1.87-2.55c-4.11-2.5-5.95-5.5-5.95-9.7v-2.04 C13.15,9.65,29.68,7.2,56.35,7.2 M56.35,4C31.2,4,9.95,5.93,9.95,21.86v2.04c0,5.61,2.67,9.59,7.76,12.59 c-0.05,0.01,0.08,0.02,0.08,0.02l1.77,15.43c0,0,14.79-4.5,37.51-4.5c22.72,0,35.86,3.72,35.86,3.72s2.64-14.67,2.59-14.68 c5.09-3.01,7.23-6.98,7.23-12.59v-2.04C102.75,7.52,81.5,4,56.35,4L56.35,4z" style="fill:#A5A7B3;"/>
    </g>
    <path d="M19.94,38.67c-0.83,0-1.6-0.54-1.87-1.39c-0.33-1.05,0.24-2.18,1.27-2.51 c0.55-0.18,13.81-4.42,36.93-4.42c23.13,0,35.84,4.24,36.37,4.42c1.03,0.35,1.58,1.48,1.24,2.53c-0.34,1.05-1.45,1.61-2.48,1.27 c-0.12-0.04-12.71-4.22-35.13-4.22c-22.45,0-35.61,4.18-35.74,4.23C20.33,38.64,20.13,38.67,19.94,38.67z" style="fill:#A5A7B3;"/>
    <g>
      <linearGradient id="SVGID_14_" gradientUnits="userSpaceOnUse" x1="56.3511" x2="56.3511" y1="5.8389" y2="45.1155">
        <stop offset="4.137600e-03" style="stop-color:#E6E6E6"/>
        <stop offset="0.349" style="stop-color:#E3E3E3"/>
        <stop offset="0.5889" style="stop-color:#DADADA"/>
        <stop offset="0.7963" style="stop-color:#CBCBCB"/>
        <stop offset="0.9852" style="stop-color:#B5B5B5"/>
        <stop offset="1" style="stop-color:#B3B3B3"/>
      </linearGradient>
      <path d="M19.38,36.33c-0.07-0.6-0.47-1.09-1-1.31c-4.65-2.79-6.82-6.33-6.82-11.12v-2.04 c0-13.54,17.14-16.26,44.8-16.26c30.14,0,44.8,5.32,44.8,16.26v2.04c0,5.2-1.93,8.55-6.44,11.22c-0.46,0.27-0.74,0.74-0.78,1.25 c-0.11,0.76-1.32,7.53-2.27,12.83c-4.26-0.99-16.3-3.35-34.58-3.35c-18.37,0-31.48,2.87-36.14,4.06L19.38,36.33z" style="fill:url(#SVGID_14_);"/>
      <path d="M56.35,7.2c29.07,0,43.2,4.8,43.2,14.66v2.04c0,4.62-1.64,7.47-5.66,9.84 c-0.89,0.53-1.46,1.44-1.56,2.44c-0.13,0.84-1.11,6.33-1.96,11.11c-5.37-1.13-16.85-3.03-33.31-3.03 c-16.56,0-28.93,2.32-34.75,3.68l-1.35-11.79c-0.13-1.15-0.86-2.1-1.87-2.55c-4.11-2.5-5.95-5.5-5.95-9.7v-2.04 C13.15,9.65,29.68,7.2,56.35,7.2 M56.35,4C31.2,4,9.95,5.93,9.95,21.86v2.04c0,5.61,2.67,9.59,7.76,12.59 c-0.05,0.01,0.08,0.02,0.08,0.02l1.77,15.43c0,0,14.79-4.5,37.51-4.5c22.72,0,35.86,3.72,35.86,3.72s2.64-14.67,2.59-14.68 c5.09-3.01,7.23-6.98,7.23-12.59v-2.04C102.75,7.52,81.5,4,56.35,4L56.35,4z" style="fill:#B9BBBD;"/>
    </g>
    <path d="M19.94,38.67c-0.83,0-1.6-0.54-1.87-1.39c-0.33-1.05,0.24-2.18,1.27-2.51 c0.55-0.18,13.81-4.42,36.93-4.42c23.13,0,35.84,4.24,36.37,4.42c1.03,0.35,1.58,1.48,1.24,2.53c-0.34,1.05-1.45,1.61-2.48,1.27 c-0.12-0.04-12.71-4.22-35.13-4.22c-22.45,0-35.61,4.18-35.74,4.23C20.33,38.64,20.13,38.67,19.94,38.67z" style="fill:#B9BBBD;"/>
  </g>
</svg>