<?xml version="1.0" encoding="utf-8"?>
<!-- Generator: Adobe Illustrator 16.0.0, SVG Export Plug-In . SVG Version: 6.00 Build 0)  -->
<!DOCTYPE svg PUBLIC "-//W3C//DTD SVG 1.1//EN" "http://www.w3.org/Graphics/SVG/1.1/DTD/svg11.dtd">
<svg version="1.1" id="レイヤー_1" xmlns="http://www.w3.org/2000/svg" xmlns:xlink="http://www.w3.org/1999/xlink" x="0px"
	 y="0px" width="128px" height="128px" viewBox="0 0 128 128" enable-background="new 0 0 128 128" xml:space="preserve">
<g>
	<path fill="#006CA2" d="M70.91,97.06c-2.26,0-4.86-0.12-7.58-0.6c-1.65,8.34-9.01,14.64-17.82,14.64
		c-10.02,0-18.17-8.15-18.17-18.17c0-8.76,6.24-16.09,14.5-17.79c-1.39-4.95-1.98-10.13-2.21-15.46
		c-15.84,2.8-27.91,16.62-27.91,33.24c0,18.64,15.16,33.8,33.79,33.8c17.36,0,31.69-13.17,33.57-30.03
		c-0.2,0.02-0.42,0.02-0.62,0.03C75.96,96.9,73.5,97.06,70.91,97.06z"/>
	<path fill="#006CA2" d="M116.23,110.36c-0.04-0.28-0.1-0.55-0.21-0.84c-0.01-0.03-0.01-0.06-0.03-0.08c-0.12-0.3-0.3-0.6-0.5-0.9
		c-0.05-0.07-0.1-0.15-0.16-0.21c-0.23-0.31-0.49-0.62-0.81-0.93c-2.53-2.38-6.45-0.12-8.66-2.73c-1.43-1.68-2.77-9.57-3.56-13.79
		c-0.16-0.84-1.19-8.26-5.86-12.58c-3.9-3.62-9.68-4.09-14.73-4.97c-5.04-0.86-7.41-2.69-8.98-7.42c-0.28-0.84-0.38-4.3-0.41-6.28
		c0-0.25,0.05-0.43,0.12-0.58c0.02-0.05,0.05-0.07,0.07-0.1c0.08-0.08,0.16-0.13,0.28-0.15c0.03-0.01,0.04-0.04,0.07-0.04
		c0.02,0,0.04,0.02,0.06,0.02c0.16,0.01,0.35,0.07,0.58,0.2c1.42,0.83,4.03,2.18,7.31,3.15c5.05,1.49,12.51,1.22,14.13,2.37
		c0.56,0.39,1.11,0.74,1.66,1.04c0.18,0.1,0.35,0.18,0.53,0.26c0.36,0.19,0.72,0.38,1.08,0.52c0.21,0.08,0.4,0.14,0.61,0.22
		c0.31,0.1,0.62,0.21,0.92,0.28c0.21,0.05,0.41,0.07,0.61,0.1c0.27,0.05,0.55,0.08,0.81,0.09c0.23,0.01,0.45,0,0.67-0.02
		c0.16-0.01,0.32-0.02,0.48-0.05c0.23-0.05,0.44-0.12,0.64-0.2c0.13-0.05,0.27-0.08,0.4-0.15c0.22-0.1,0.4-0.25,0.6-0.4
		c0.09-0.08,0.19-0.13,0.28-0.21c0.26-0.26,0.49-0.55,0.69-0.91c1.5-2.73-0.35-5.47-1.74-6.87c-1.02-1-2.45-2-4.19-2.97
		c-4.8-2.68-19.07-2.51-27.49-10.93c-2.71-2.71-4.03-4.93-5.49-6.46c-1.86-1.95-3.4-3.12-5.24-3.69c-0.54-0.17-1.13-0.32-1.75-0.42
		c-0.01,0-0.02,0-0.02,0c-0.61-0.1-1.25-0.16-1.92-0.16c-0.23,0-0.46,0.01-0.68,0.03c-0.11,0.01-0.22,0.01-0.33,0.02
		c-0.2,0.02-0.41,0.06-0.62,0.09c-0.14,0.02-0.28,0.04-0.42,0.07c-0.19,0.03-0.38,0.09-0.57,0.14c-0.16,0.04-0.32,0.07-0.49,0.12
		c-0.36,0.12-0.71,0.25-1.07,0.4c-5.23,2.27-6.21,10.92-6.22,16.23c0,2.77,0.02,5.65,0.15,8.57c0.23,5.46,0.9,11,2.6,15.99
		c0.18,0.54,0.34,1.07,0.54,1.59c0.92,2.3,2.11,4.47,3.65,6.41c0.49,0.61,1.01,1.15,1.54,1.65c0.14,0.14,0.28,0.26,0.43,0.39
		c0.49,0.43,1,0.83,1.52,1.18c0.07,0.05,0.12,0.1,0.19,0.14c0.58,0.39,1.19,0.72,1.81,1.02c0.16,0.09,0.32,0.16,0.49,0.24
		c0.54,0.24,1.08,0.46,1.64,0.66c0.11,0.04,0.22,0.08,0.33,0.11c0.55,0.18,1.12,0.33,1.69,0.46c0.1,0.03,0.2,0.05,0.31,0.08
		c0.17,0.04,0.35,0.07,0.52,0.1c0.57,0.11,1.14,0.21,1.72,0.28c0.15,0.03,0.29,0.05,0.44,0.07c0.69,0.08,1.4,0.14,2.1,0.18
		c0.17,0.01,0.34,0.02,0.5,0.03c0.59,0.03,1.17,0.04,1.76,0.05c0.1,0,0.21,0,0.31,0c0.06,0,0.11,0,0.17,0
		c1.08,0,2.17-0.04,3.25-0.09c0.08,0,0.17-0.01,0.25-0.01c1.14-0.05,2.27-0.13,3.38-0.21c0.37-0.03,0.77-0.05,1.18-0.08
		c0.14,0,0.27-0.01,0.41-0.02c0.16-0.01,0.33-0.01,0.49-0.01c0.37-0.02,0.74-0.04,1.13-0.04c0.05,0,0.09,0.01,0.14,0.01
		c0.41,0,0.81,0.03,1.22,0.06c0.26,0.01,0.52,0.02,0.77,0.04c0.65,0.08,1.29,0.17,1.89,0.33c2.43,0.65,3.83,2.94,4.42,4.35
		c2.1,5.05,4.27,15.01,4.5,15.98c0.57,2.51,1.3,5.04,3.14,6.67c0.31,0.28,0.68,0.53,1.07,0.73c0.03,0.02,0.07,0.04,0.1,0.05
		c0.38,0.2,0.79,0.35,1.23,0.48c0.06,0.02,0.11,0.04,0.17,0.06c0.43,0.12,0.89,0.2,1.36,0.27c0.07,0.01,0.14,0.02,0.21,0.03
		c0.47,0.06,0.96,0.08,1.46,0.08c0.08,0,0.16,0,0.25,0c0.85-0.01,1.73-0.08,2.62-0.22c0.09-0.02,0.18-0.03,0.26-0.05
		c0.45-0.08,0.89-0.17,1.33-0.27c0.01,0,0.02-0.01,0.03-0.01c0.43-0.1,0.85-0.23,1.28-0.37c0.08-0.02,0.16-0.05,0.25-0.07
		c0.43-0.14,0.85-0.29,1.25-0.46c0.04-0.01,0.08-0.03,0.11-0.05c0.38-0.15,0.74-0.32,1.09-0.5c0.08-0.04,0.15-0.08,0.23-0.12
		c0.38-0.19,0.73-0.38,1.07-0.6c0.06-0.03,0.1-0.07,0.16-0.1c0.3-0.19,0.58-0.38,0.85-0.59c0.06-0.05,0.12-0.08,0.18-0.13
		c0.3-0.24,0.56-0.47,0.81-0.72c0.05-0.05,0.09-0.09,0.14-0.14c0.21-0.22,0.4-0.45,0.58-0.68c0.03-0.05,0.08-0.09,0.11-0.14
		c0.18-0.26,0.34-0.53,0.46-0.8c0.03-0.07,0.05-0.13,0.08-0.19c0.1-0.25,0.18-0.5,0.23-0.75c0.01-0.05,0.02-0.08,0.03-0.13
		c0.05-0.28,0.06-0.57,0.03-0.86C116.26,110.49,116.24,110.42,116.23,110.36z"/>
	<path fill="#006CA2" d="M50.49,27.62c1.36,0.46,2.81,0.72,4.33,0.72c0.77,0,1.53-0.08,2.26-0.21c1.41-0.24,2.75-0.68,3.98-1.33
		c4.34-2.25,7.31-6.78,7.31-12.01c0-7.47-6.06-13.53-13.54-13.53c-7.48,0-13.53,6.06-13.53,13.53
		C41.29,20.77,45.14,25.82,50.49,27.62z"/>
</g>
</svg>
