<svg xmlns="http://www.w3.org/2000/svg" xmlns:xlink="http://www.w3.org/1999/xlink" viewBox="0 0 128 128"><path d="M17.5 118.15v10.3h93.87v-10.3c0-15.8-23.4-23.83-46.94-23.8-23.38.02-46.93 7.06-46.93 23.8z" fill="#c4c6c7"/><path d="M62.76 112.53h2.48c6.84 0 12.39-5.28 12.39-11.79v-5.55c-4.28-.57-8.73-.85-13.18-.85-4.75.01-9.5.31-14.07.91v5.48c-.01 6.52 5.54 11.8 12.38 11.8z" fill="#a8a8a8"/><path d="M64 90.08h-9.08v9.59c0 4.34 3.7 7.86 8.26 7.86h1.65c4.56 0 8.26-3.52 8.26-7.86v-9.59H64z" fill="#35201a"/><path d="M28.01 53.89s.03-8.08.03-19.2c0-11.63 8.53-27.73 37.05-27.73 19.91 0 27.35 7.88 27.35 13.13 0 0 7.39 1.33 8.12 10.8.51 6.65-.15 22.64-.15 22.64s-.8-.72-1.71-1.13c-.48-.22-.97-.32-.97-.32l-1.34 9.13-9.9-19.17a.326.326 0 0 0-.31-.17l-4.01.47a152.918 152.918 0 0 1-34.81.13l-5.42-.6a.317.317 0 0 0-.31.17l-9.14 19.1-1.39-9.29s-.95.38-1.81 1.05c-.81.63-1.28.99-1.28.99z" fill="#6d4c41"/><g fill="#563e37"><path d="M96.56 51.43s5.9 1.02 5.9 7.37c0 5.6-4.3 7.82-8.61 7.82V51.43h2.71zM32.23 51.43s-5.9 1.02-5.9 7.37c0 5.6 4.3 7.82 8.61 7.82V51.43h-2.71z"/></g><path d="M64.39 9.83c-25.42 0-32.07 19.71-32.07 47.39 0 28.7 18.45 36.13 32.07 36.13 13.42 0 32.07-7.21 32.07-36.13.01-27.68-6.65-47.39-32.07-47.39z" fill="#70534a"/><path d="M73.58 76.34h-9.19-9.19c-1.05 0-1.51.71-.81 1.77.98 1.49 4.59 4.34 10 4.34s9.02-2.86 10-4.34c.7-1.06.24-1.77-.81-1.77z" fill="#4c3734"/><path d="M73.58 76.34h-9.19-9.19c-1.05 0-1.51.71-.81 1.77.98 1.49 4.59 4.34 10 4.34s9.02-2.86 10-4.34c.7-1.06.24-1.77-.81-1.77z" fill="#232020"/><path d="M68.83 68.53c-1.56.44-3.19.66-4.44.66-1.25 0-2.87-.22-4.44-.66-.67-.19-.93.44-.69.87.5.87 2.49 2.63 5.13 2.63 2.64 0 4.63-1.76 5.13-2.63.24-.43-.02-1.06-.69-.87z" fill="#3c2b24"/><path d="M53.94 59.03c0 2.83-1.89 5.12-4.24 5.12-2.34 0-4.25-2.29-4.25-5.12 0-2.84 1.91-5.13 4.25-5.13 2.35 0 4.24 2.29 4.24 5.13M74.84 59.03c0 2.83 1.9 5.12 4.25 5.12 2.34 0 4.24-2.29 4.24-5.12 0-2.84-1.9-5.13-4.24-5.13-2.35 0-4.25 2.29-4.25 5.13" fill="#232020"/><path d="M32.32 59.03L30.63 48.6S26.96 8.38 65.27 8.38s32.35 41.97 32.35 41.97l-1.17 8.68-9.95-16.85c-4.63-7.78-28.89-15.25-43.48-.32l-10.7 17.17z" fill="#232020"/><defs><path id="a" d="M65.36 38.04c-22.96-5.1-37.23-6.41-41.74-1.87-.61-6.69 1.07-11.28 2.85-13.89 2.05-3.01 4-4.6 6.9-6.69 9-6.49 20.95-12.73 31.09-12.73 9.93 0 22.09 6.24 31.11 12.73 2.9 2.09 4.85 3.69 6.9 6.69 7.77 11.42-.3 34.26-.3 34.26s-1.06-3.53-4.74-4.86c.09-3.64-5.2-7.67-32.07-13.64z"/></defs><use xlink:href="#a" overflow="visible" fill="#c4c6c7"/><clipPath id="b"><use xlink:href="#a" overflow="visible"/></clipPath><path d="M65.62 40.24c22.96-5.1 37.8-5.86 42.31-1.31.61-6.69-1.5-11.83-3.27-14.45-2.05-3.01-4-4.6-6.9-6.69-9.02-6.49-21.1-12.73-31.24-12.73-9.93 0-22.09 6.24-31.11 12.73-2.9 2.09-4.85 3.69-6.9 6.69-7.77 11.42.3 34.26.3 34.26s.78-3.39 4.46-4.73c-.08-3.63 5.48-7.81 32.35-13.77z" clip-path="url(#b)" fill="#a8a8a8"/><path d="M105.36 42.75s-5.7-8.44-30.77-16.69c-19.82-6.52-39.21-6.31-47.26-5.19 0 0-.25.23-.91 1.25 0 0 23.75-2.79 50.27 7.57 9.74 3.81 22.74 8.57 28.12 16.47l.55-3.41z" clip-path="url(#b)" fill="#a8a8a8"/><g><path d="M63.43 38.04c22.96-5.1 35.12-6.05 42.41-1.73.61-6.69-1.6-11.42-3.37-14.03-2.05-3.01-4-4.6-6.9-6.69C86.55 9.1 74.46 2.86 64.32 2.86c-9.93 0-22.09 6.24-31.11 12.73-2.9 2.09-4.85 3.69-6.9 6.69-7.77 11.42.3 34.26.3 34.26s.78-3.39 4.46-4.73c-.08-3.63 5.49-7.8 32.36-13.77z" fill="#c4c6c7"/><path d="M23.42 42.75s5.7-8.44 30.77-16.69c19.82-6.52 39.21-6.31 47.26-5.19 0 0 .25.23.91 1.25 0 0-23.75-2.79-50.27 7.57-9.74 3.81-22.74 8.57-28.12 16.47l-.55-3.41zM23.51 29.44s6.22-7.86 22.66-14.71C61.84 8.2 78.59 7.22 83.64 8.38l1.71.83c-7.45-.17-23.28 1-37.61 7.37-7.34 3.26-22.58 12.59-24.7 16.61.07-1.27.24-2.59.47-3.75z" fill="#a8a8a8"/></g><path fill="#a8a8a8" d="M62.17 110.5h4.54v17.95h-4.54z"/><g><defs><path id="c" d="M140-26h128v128H140z"/></defs><clipPath id="d"><use xlink:href="#c" overflow="visible"/></clipPath><g clip-path="url(#d)"><path d="M220.74 72.86c-5.7-1.08-27.77-1.08-33.47 0C169.22 76.29 156 84.25 156 101.22v20.9l48 .01 48-.01v-20.9c0-16.97-13.22-24.93-31.26-28.36z"/><path fill="#fff" d="M203.52 72.05l16.02 2.22v34.9h-16.02z"/><path d="M214.04 74.13s4.42 3.24 4.58 10.16c.18 7.55-6.16 36.54-15.58 53.11l14.68-2.22 15.98-38.55-7.65-5.04 6.47-4.99s-6.22-11-14.96-15.3c-4.25-.76-12.37-1.1-14.03-1.05l-.02 1.8 10.53 2.08z" fill="#444"/><path fill="#fff" d="M203.52 72.05l-16.02 2.22v34.9h16.02z"/><path d="M193 74.13s-4.42 3.24-4.58 10.16c-.18 7.55 6.16 36.54 15.58 53.11l-14.68-2.22-15.98-38.55 7.65-5.04-6.47-4.99s6.22-11 14.96-15.3c4.25-.76 12.37-1.1 14.03-1.05l.02 1.8L193 74.13z" fill="#444"/><path d="M203.54 85.35c-6.08 0-10.5-4.93-10.5-11.01V65.5h21v8.84c0 6.08-4.42 11.01-10.5 11.01z" fill="#35201a"/><g fill="#563e37"><path d="M237.56 26.91s6.1 1.06 6.1 7.62c0 5.79-4.45 8.08-8.9 8.08v-15.7h2.8zM171.05 26.91s-6.1 1.06-6.1 7.62c0 5.79 4.45 8.08 8.9 8.08v-15.7h-2.8z"/></g><path d="M204.31-16.09c-26.28 0-33.16 20.37-33.16 48.99 0 29.68 19.07 37.35 33.16 37.35 13.88 0 33.16-7.45 33.16-37.35-.01-28.62-6.88-48.99-33.16-48.99z" fill="#70534a"/><path d="M193.39 35.55c0 2.95-1.98 5.35-4.43 5.35-2.45 0-4.44-2.4-4.44-5.35 0-2.96 1.99-5.36 4.44-5.36 2.45.01 4.43 2.4 4.43 5.36M215.22 35.55c0 2.95 1.98 5.35 4.44 5.35 2.44 0 4.43-2.4 4.43-5.35 0-2.96-1.99-5.36-4.43-5.36-2.46.01-4.44 2.4-4.44 5.36" fill="#232020"/><path d="M213.9 53.63h-9.6-9.6c-1.1 0-1.57.74-.85 1.85 1.02 1.55 4.8 4.53 10.44 4.53s9.42-2.98 10.44-4.53c.74-1.11.27-1.85-.83-1.85z" fill="#261819"/><path d="M208.94 45.48c-1.63.46-3.33.69-4.64.69-1.31 0-3-.23-4.64-.69-.7-.2-.97.46-.72.9.52.91 2.6 2.75 5.36 2.75 2.75 0 4.84-1.84 5.36-2.75.25-.44-.02-1.1-.72-.9z" fill="#35201a"/><path d="M205.1-19.83s-.51-.02-.73-.01c-.22 0-.73.01-.73.01-28.36.55-36.91 17.61-36.91 29.44 0 11.5.01 19.94.01 19.94s.45-.47 1.28-1.12c.89-.69 1.87-1.08 1.87-1.08l1.43 9.61 9.45-19.74c.06-.12.19-.2.32-.18l5.6.62c5.63.63 11.28.93 16.94.94v.01c.24 0 .49-.01.73-.01s.49.01.73.01v-.01c5.65-.02 11.31-.32 16.94-.94l5.6-.62c.13-.01.26.06.32.18l9.45 19.74 1.43-9.61s.98.39 1.87 1.08c.83.65 1.28 1.12 1.28 1.12s.01-8.45.01-19.94c.02-11.83-8.53-28.9-36.89-29.44z" fill="#211e1e"/></g><g clip-path="url(#d)"><path d="M205.37 83.13c1.55-1.07 3.01-1.84 4.5-2.79 1.19-.76 3.2-2.17 5.09-1.45 1.6.61 1.03 2.8 1.03 5.66 0 3.36.57 5.31-.7 5.87-1.71.76-3.96-.58-5.84-1.4-1.07-.46-4.13-1.86-4.65-2.67-.51-.8-.49-2.69.57-3.22z"/><path d="M213.28 82.84c.03.24-1.66.78-3.79 1.22-2.13.44-3.88.6-3.91.36-.03-.24 1.66-.78 3.79-1.22 2.12-.43 3.88-.6 3.91-.36zM213.31 86.83c-.02.24-1.78.18-3.92-.13-2.14-.31-3.86-.75-3.84-.99s1.78-.18 3.92.13c2.14.31 3.86.75 3.84.99z" fill="#444"/><g><path d="M201.63 83.13c-1.55-1.07-3.01-1.84-4.5-2.79-1.19-.76-3.2-2.17-5.09-1.45-1.6.61-1.03 2.8-1.03 5.66 0 3.36-.57 5.31.7 5.87 1.71.76 3.96-.58 5.84-1.4 1.07-.46 4.13-1.86 4.65-2.67.51-.8.49-2.69-.57-3.22z"/><path d="M193.72 82.84c-.03.24 1.66.78 3.79 1.22 2.13.44 3.88.6 3.91.36s-1.66-.78-3.79-1.22c-2.12-.43-3.88-.6-3.91-.36zM193.69 86.83c.02.24 1.78.18 3.92-.13 2.14-.31 3.86-.75 3.84-.99-.02-.24-1.78-.18-3.92.13-2.14.31-3.86.75-3.84.99z" fill="#444"/></g><path d="M206.92 85.16c0 1.95-1.53 3.07-3.42 3.07s-3.42-1.12-3.42-3.07.85-3.52 3.42-3.52c2.46 0 3.42 1.58 3.42 3.52z"/></g><circle cx="203.5" cy="92.63" r="1.59" fill="#232020"/><circle cx="203.5" cy="98.08" r="1.59" fill="#232020"/></g></svg>