<svg xmlns="http://www.w3.org/2000/svg" width="128" height="128"><path d="M64.17 14.87c-33.11 0-42.95 23.36-42.95 58.91 0 35.56 26.86 48.36 42.95 48.36 16.09 0 42.61-13.14 42.61-48.69 0-35.56-9.5-58.58-42.61-58.58z" fill="#fcc21b"/><path d="M76.38 93.617H64 51.62c-1.42 0-2.03.95-1.09 2.38 1.31 2 6.19 5.85 13.47 5.85s12.16-3.85 13.47-5.85c.94-1.43.33-2.38-1.09-2.38z" fill="#513f35"/><path d="M69.98 83.087c-2.11.6-4.29.89-5.98.89-1.69 0-3.87-.29-5.98-.89-.9-.26-1.25.6-.93 1.17.67 1.18 3.36 3.55 6.91 3.55 3.55 0 6.24-2.37 6.91-3.55.33-.57-.03-1.42-.93-1.17z" fill="#e59600"/><path d="M49.91 70.287c0 3.81-2.55 6.9-5.71 6.9s-5.73-3.09-5.73-6.9c0-3.82 2.57-6.91 5.73-6.91 3.16 0 5.71 3.09 5.71 6.91M78.08 70.287c0 3.81 2.56 6.9 5.72 6.9 3.15 0 5.72-3.09 5.72-6.9 0-3.82-2.57-6.91-5.72-6.91-3.16 0-5.72 3.09-5.72 6.91" fill="#444"/><path d="M76.38 93.617H64 51.62c-1.42 0-2.03.95-1.09 2.38 1.31 2 6.19 5.85 13.47 5.85s12.16-3.85 13.47-5.85c.94-1.43.33-2.38-1.09-2.38z" fill="#513f35"/><path d="M69.98 83.087c-2.11.6-4.29.89-5.98.89-1.69 0-3.87-.29-5.98-.89-.9-.26-1.25.6-.93 1.17.67 1.18 3.36 3.55 6.91 3.55 3.55 0 6.24-2.37 6.91-3.55.33-.57-.03-1.42-.93-1.17z" fill="#e59600"/><path d="M40.322 60.79c-7.356 0-17.828 3.152-17.828 3.152-1.507 1.27-2.651 2.59-3.427 3.959.067 3.665.35 7.077.831 10.246.428.062 10.869 1.556 18.074 1.556 8.708.164 18.27-3.103 25.429-3.103h2.877c7.158 0 16.72 3.267 25.429 3.103 5.484 0 12.899-.874 16.327-1.32.575-3.711.9-7.736.9-12.14 0-.358-.007-.708-.009-1.064a7.903 7.903 0 0 0-1.74-1.237S96.712 60.79 89.357 60.79c-9.4.445-16.22 4.31-24.517 4.31-8.298 0-15.117-3.865-24.518-4.31z" fill="#0cd00e" fill-opacity="0"/><path d="M49.91 70.287c0 3.81-2.55 6.9-5.71 6.9s-5.73-3.09-5.73-6.9c0-3.82 2.57-6.91 5.73-6.91 3.16 0 5.71 3.09 5.71 6.91M78.08 70.287c0 3.81 2.56 6.9 5.72 6.9 3.15 0 5.72-3.09 5.72-6.9 0-3.82-2.57-6.91-5.72-6.91-3.16 0-5.72 3.09-5.72 6.91" fill="#444"/></svg>