<svg xmlns="http://www.w3.org/2000/svg" viewBox="0 0 128 128"><path d="M119.79.34H8.21C3.88.34.34 3.88.34 8.21v111.58c0 4.32 3.54 7.87 7.87 7.87h111.58c4.33 0 7.87-3.55 7.87-7.87V8.21c0-4.33-3.54-7.87-7.87-7.87z" fill="#40c0e7"/><path d="M100.24 95.14H73.19v-7.21h16.84c.42 0 .82-.17 1.11-.46.29-.29.46-.7.46-1.12v-9.66c0-.42-.17-.82-.46-1.12-.29-.29-.7-.46-1.11-.46H37.98c-.42 0-.82.17-1.11.46-.29.29-.46.7-.46 1.12v9.66c0 .41.17.82.46 1.12.29.29.7.46 1.11.46h16.75v7.21H27.76c-.41 0-.82.17-1.11.46-.29.29-.46.7-.46 1.11v9.66c0 .42.17.82.46 1.11.29.29.7.46 1.11.46h72.48c.42 0 .82-.17 1.11-.46.29-.29.46-.7.46-1.11v-9.66c0-.41-.17-.82-.46-1.11-.29-.29-.69-.46-1.11-.46zM104.41 26.88H73.19v-8.21c0-.41-.17-.82-.46-1.11-.29-.29-.7-.46-1.12-.46H56.3c-.42 0-.82.17-1.11.46-.29.29-.46.7-.46 1.11v8.21H23.5c-.42 0-.82.17-1.11.46-.29.29-.46.7-.46 1.11V54.08c0 .41.17.82.46 1.11.29.29.7.46 1.11.46h12.18c.42 0 .82-.17 1.11-.46.29-.29.46-.7.46-1.11V40h53.4v14.07c0 .41.17.82.46 1.11.29.29.7.46 1.11.46h12.18c.42 0 .82-.17 1.12-.46.29-.29.46-.7.46-1.11V28.45a1.574 1.574 0 0 0-1.57-1.57z" fill="#fff"/><path d="M34.35 73.97c18.61-5.14 26.45-18.01 26.56-18.19.39-.63.27-1.45-.27-1.96l-7.55-7.11a1.578 1.578 0 0 0-2.45.37v.02c-.15.25-1.91 3.16-5.56 6.41-3.66 3.25-9.2 6.83-16.99 8.53-.5.11-.91.45-1.11.92-.2.47-.16 1.01.11 1.44l5.51 8.87c.37.61 1.08.89 1.75.7zM82.31 71.97c3.83.84 8.15.99 13.39.99.42 0 .82-.17 1.11-.46.29-.29.46-.7.46-1.11v-9.84a1.578 1.578 0 0 0-1.69-1.57s-.17.01-.5.02c-.33.02-.81.03-1.4.03-1.34 0-3.22-.07-5.08-.36-1.86-.29-3.69-.82-4.89-1.59-.73-.46-1.45-1.28-2.06-2.3-.91-1.52-1.57-3.46-1.97-4.98-.2-.76-.34-1.42-.43-1.89-.04-.24-.08-.42-.1-.54l-.02-.18c-.11-.79-.8-1.37-1.6-1.35l-10.93.25c-.42.01-.82.19-1.11.5-.29.31-.45.72-.43 1.14 0 .07.12 3 1.03 6.7.92 3.69 2.6 8.19 6.01 11.34 3.03 2.77 6.38 4.37 10.21 5.2z" fill="#fff"/></svg>