<?xml version="1.0" encoding="utf-8"?>
<!-- Generator: Adobe Illustrator 19.2.1, SVG Export Plug-In . SVG Version: 6.00 Build 0)  -->
<svg version="1.1" id="レイヤー_1" xmlns="http://www.w3.org/2000/svg" xmlns:xlink="http://www.w3.org/1999/xlink" x="0px"
	 y="0px" viewBox="0 0 128 128" style="enable-background:new 0 0 128 128;" xml:space="preserve">
<g>
	<path style="fill:#FE9040;" d="M56.05,97.43c-0.48,1.98-0.66,2.51-1.21,4.47c-0.37,1.34-0.74,2.79-1.47,3.99
		c-1.24,2.04-3.62,1.66-5.68,1.52c-3.45-0.24-6.88-0.74-10.32-0.33c-0.52,0.06-3.9,0.54-3.9,1.75c0,0.87,1.65,1,2.25,1.17
		c1.19,0.33,3.26,0.28,3.61,0.84c0.32,0.71-0.75,1.55-1.59,2.25c-0.51,0.43-2.36,1.83-1.96,2.71c0.42,0.93,2.6,0.33,3.27,0.17
		c1.2-0.29,3.19-1,4.13-0.74c1.34,0.5-2.31,3.64-1.51,4.24c1.01,0.76,3.58-0.24,4.33-0.72c3.12-1.98,3.99-2.52,5.94-4.33
		c1.86-1.73,3.82-3.16,5.16-5.36c1.28-2.09,1.22-4.55,1.79-6.85c0.62-2.48,2.38-7.12,1.44-7.28c-1.16-0.25-2.92-0.53-3.29-0.29
		C56.65,94.89,56.43,96.17,56.05,97.43z"/>
	<path style="fill:#FE9040;" d="M81.23,98.16c-0.11,2.03-0.19,2.59-0.37,4.62c-0.12,1.39-0.22,2.88-0.72,4.19
		c-0.84,2.23-3.25,2.29-5.31,2.53c-3.43,0.4-6.89,0.54-10.2,1.57c-0.5,0.15-3.73,1.24-3.51,2.43c0.16,0.86,1.81,0.68,2.42,0.73
		c1.23,0.1,3.26-0.33,3.7,0.17c0.45,0.64-0.45,1.67-1.15,2.51c-0.43,0.52-1.98,2.23-1.43,3.03c0.58,0.83,2.62-0.15,3.25-0.43
		c1.13-0.51,2.95-1.57,3.92-1.48c1.41,0.25-1.6,4-0.71,4.45c1.13,0.56,3.48-0.9,4.12-1.5c2.71-2.52,3.46-3.21,5.04-5.35
		c1.51-2.04,3.17-3.8,4.09-6.22c0.87-2.29,0.36-4.7,0.5-7.07c0.15-2.55,1.03-7.43,0.08-7.42c-1.19-0.03-2.97,0.01-3.29,0.32
		C81.36,95.54,81.38,96.85,81.23,98.16z"/>
</g>
<g>
	<path style="fill:#A7300F;" d="M60.32,94.93c-1.16-0.25-2.92-0.53-3.29-0.29c-0.37,0.24-0.6,1.53-0.98,2.79
		c-0.04,0.16-0.07,0.29-0.11,0.44c1.01,0.02,2.02,0.08,2.87,0.7c0.38,0.28,0.65,0.65,0.77,1.19C60.27,97.49,61,95.05,60.32,94.93z"
		/>
	<path style="fill:#A7300F;" d="M83.88,99.2c0.51,0.2,0.91,0.66,1.2,1.1c0.27-2.5,0.63-5.4-0.11-5.39
		c-1.19-0.03-2.97,0.01-3.29,0.32c-0.32,0.31-0.31,1.61-0.45,2.92c-0.02,0.3-0.03,0.56-0.05,0.8C82.18,98.89,83.26,98.96,83.88,99.2
		z"/>
</g>
<path style="fill:#727F48;" d="M49.56,41.81c1.33-6.67,8.4-18.32,8.49-26.44c0.06-5.21-6.31-14.92-17.47-9.95
	c-11.16,4.97-7.28,16.62-7.28,16.62c2.2,5.78,6.28,5.82,8.28,6.03c2,0.21,0.75,1.92-0.64,3.07c-2.76,2.3-5.37,4.71-7.74,7.21
	c3.62,0.67,9.9,2.03,16.2,4.32C49.46,42.39,49.5,42.12,49.56,41.81z"/>
<path style="fill:#FFC148;" d="M14.99,24.89c0,0,3.07,1.51,7.04,1.79s7.88-0.24,12.58,0c1.57,0.08,2.58,0.4,2.91-1.45
	c0.22-1.29,0.56-1.73,0-2.85L14.99,24.89z"/>
<g>
	<circle style="fill:#FFFFFF;" cx="42.97" cy="14.26" r="3.94"/>
	<circle style="fill:#333333;" cx="42.97" cy="14.26" r="2.66"/>
	<circle style="fill:#FFFFFF;" cx="42.49" cy="13.62" r="0.64"/>
</g>
<path style="fill:#7D7D7D;" d="M112.51,80.63c-11.89-7.04-24.99-16.25-29.6-19.41C68,50.06,57.57,48.85,54.05,48.97
	c-2.26,0.08-4.02-0.16-4.63-2.1c-6.24-2.08-15.04-3.7-19.74-4.49c-5.07,6.29-8.44,13.06-8.74,20.05
	c-0.49,11.4,12.74,32.02,44.27,33.96s45-8.37,48.76-11.04C117.73,82.69,114.21,81.6,112.51,80.63z"/>
<path style="opacity:0.6;fill:#7D7D7D;" d="M112.51,80.63c-1.11-0.66-7.89-4.88-9.01-5.57c-0.06,0.05,4.18,4.67-0.43,7.37
	c-0.8,0.47-17.99,8.89-43.71,7.34C44.88,88.9,34.2,84.21,26.88,78.29c6.65,8.77,19.07,16.92,38.33,18.11
	c31.54,1.94,45-8.37,48.76-11.04C117.73,82.69,114.21,81.6,112.51,80.63z"/>
<path style="fill:#FEF3CD;" d="M49.41,42.67c-6.3-2.29-12.58-3.65-16.2-4.32c-1.25,1.32-2.43,2.67-3.53,4.03
	c4.71,0.78,13.51,2.41,19.74,4.49C49.12,45.93,49.1,44.58,49.41,42.67z"/>
<path style="fill:#FE9040;" d="M34.23,24.82c1.48,0.11,2.7-0.02,3.23,0.69c0.21-0.96,0.65-2.14,0.06-3.13l-8.22,2.53
	C29.29,24.91,32.97,24.72,34.23,24.82z"/>
<path style="fill:#FFC148;" d="M34.44,15.61c0,0-1.17-2.8-2.35-0.34c-1.17,2.46-4.19,6.99-10.68,6.82c-6.48-0.17-8.94-0.22-9.06,1.4
	c-0.11,1.62,5.09,2.57,9,2.18S32.43,25,37.01,23.1c2.07-0.84,1.73-2.18,1.06-2.8C37.4,19.69,35.39,17.57,34.44,15.61z"/>
<path style="fill:#885C52;" d="M64.07,61.04c-4.45-2.61-13.24-4.41-16.43,1.13c-3.18,5.54-2.57,13.96,10.27,19.92
	c12.83,5.95,26.99,6.26,42.21,5.75c4.25-0.33,5.83-2.6,4.86-4.06c-0.98-1.48-15.55-7.85-22.02-11.85
	C77.94,68.81,68.28,63.5,64.07,61.04z"/>
<path style="fill:#BB917A;" d="M64.07,58.87c-4.45-2.61-13.24-4.41-16.43,1.13c-3.18,5.54-2.57,13.96,10.27,19.92
	s27.38,5.85,42.61,5.34c3.29,0.21,6.26-0.72,3.49-2.26s-14.58-9.24-21.05-13.24C77.94,66.64,68.28,61.33,64.07,58.87z"/>
<path style="opacity:0.6;fill:#727F48;" d="M38.78,24.06c-0.18,0.74-0.61,1.51-0.08,2.22c0.7,0.93,3.53,0.79,4.48,0.76
	c4.28-0.11,6.94-1.28,9.35-4.22c0.92-1.13,1.49-2.2,1.16-2.61c-0.52-0.67-2.64,2.56-5.9,3.53c-1.36,0.41-4.32,0.93-6.3,0.46
	C40.69,24,39.03,23.24,38.78,24.06L38.78,24.06z"/>
</svg>
