<?xml version="1.0" encoding="utf-8"?>
<!-- Generator: Adobe Illustrator 16.0.0, SVG Export Plug-In . SVG Version: 6.00 Build 0)  -->
<!DOCTYPE svg PUBLIC "-//W3C//DTD SVG 1.1//EN" "http://www.w3.org/Graphics/SVG/1.1/DTD/svg11.dtd">
<svg version="1.1" id="レイヤー_1" xmlns="http://www.w3.org/2000/svg" xmlns:xlink="http://www.w3.org/1999/xlink" x="0px"
	 y="0px" width="128px" height="128px" viewBox="0 0 128 128" enable-background="new 0 0 128 128" xml:space="preserve">
<g>
	<g>
		<g>
			<path fill="#2F2F2F" d="M98.92,121.1c-12.98,0-23.54-10.56-23.54-23.54c0-12.98,10.56-23.53,23.54-23.53s23.54,10.56,23.54,23.53
				C122.45,110.54,111.9,121.1,98.92,121.1z M98.92,78.29c-10.62,0-19.27,8.64-19.27,19.27c0,10.63,8.65,19.27,19.27,19.27
				c10.62,0,19.27-8.65,19.27-19.27C118.18,86.93,109.54,78.29,98.92,78.29z"/>
			<path fill="#2F2F2F" d="M29.09,121.1c-12.98,0-23.54-10.56-23.54-23.54c0-12.98,10.56-23.53,23.54-23.53
				c12.98,0,23.54,10.56,23.54,23.53C52.63,110.54,42.07,121.1,29.09,121.1z M29.09,78.29c-10.63,0-19.28,8.64-19.28,19.27
				c0,10.63,8.65,19.27,19.28,19.27c10.63,0,19.27-8.65,19.27-19.27C48.36,86.93,39.72,78.29,29.09,78.29z"/>
			<path fill="#40C0E7" d="M29.13,99.92c-0.83,0-1.62-0.44-2.05-1.16c-0.57-0.97-0.38-2.18,0.41-2.91
				c1.06-1.99,5.85-13.72,11.75-40.94c0.28-1.26,1.5-2.07,2.79-1.8c1.27,0.27,2.07,1.52,1.8,2.79c-3.53,16.23-6.58,26.71-8.53,32.65
				c-3.6,10.98-4.58,11.13-5.79,11.33C29.37,99.91,29.25,99.92,29.13,99.92z"/>
			<path fill="#40C0E7" d="M77.7,70.84c-0.11,0-0.22-0.01-0.34-0.02l-37.93-5.48c-1.28-0.18-2.17-1.38-1.99-2.66
				c0.18-1.28,1.34-2.17,2.66-1.99l37.93,5.48c1.28,0.19,2.18,1.38,1.98,2.66C79.85,69.99,78.84,70.84,77.7,70.84z"/>
			<path fill="#40C0E7" d="M64.46,99.17c-0.74,0-1.45-0.35-1.9-0.96l-24.7-33.81c-0.76-1.05-0.53-2.52,0.52-3.28
				c1.04-0.76,2.51-0.53,3.28,0.51l22.34,30.59l16.04-34.89c0.54-1.18,1.93-1.7,3.11-1.15c1.18,0.54,1.69,1.94,1.14,3.11L66.59,97.8
				c-0.35,0.76-1.07,1.27-1.9,1.36C64.62,99.17,64.53,99.17,64.46,99.17z"/>
			<path fill="#40C0E7" d="M98.74,99.17H64.46c-1.29,0-2.35-1.05-2.35-2.35s1.05-2.35,2.35-2.35h29.62L75.81,69.89
				c-0.77-1.04-0.56-2.51,0.48-3.28c1.04-0.78,2.51-0.55,3.29,0.48l21.05,28.34c0.53,0.71,0.61,1.66,0.21,2.45
				C100.44,98.67,99.63,99.17,98.74,99.17z"/>
			<path fill-rule="evenodd" clip-rule="evenodd" fill="#2F2F2F" d="M89.05,52.51c-1.2-0.68-2.54-0.52-3.92-0.58
				c-1.67-0.08-3.35-0.16-5.03-0.26c-2.79-0.18-5.62,0.04-8.38-0.11c-1.6-0.09-3.13,1.1-3.68,2.53c-0.75,1.95,0.57,3.18,2.22,4.07
				c2.04,1.1,4.31,1.62,6.54,2.17c2.42,0.59,4.84,1.35,7.32,1.69c2.41,0.33,5.13-0.62,6.53-2.67c1.46-2.12,0.85-4.96-1.18-6.54
				C89.34,52.69,89.19,52.6,89.05,52.51z"/>
			<path fill-rule="evenodd" clip-rule="evenodd" fill="#2F2F2F" d="M67.32,103.63c-0.27,0-0.54,0-0.79-0.01
				c-1.02-0.04-2.11-0.2-3.13-0.12c-1.88,0.15-4.35,1.49-4.2,3.67c0.18,2.72,2.23,2.38,4.32,2.38c2.09,0,5.62,0.53,7.36-0.93
				c1.29-1.09,0.96-3.77-0.52-4.57C69.47,103.58,68.35,103.62,67.32,103.63z"/>
			<path fill-rule="evenodd" clip-rule="evenodd" fill="#2F2F2F" d="M66.07,97.25c-0.5,0.46-0.49,1.36-0.72,1.96
				c-0.33,0.87-0.52,1.69-0.57,2.6c-0.05,0.94-0.4,1.81-0.51,2.75c-0.27,2.14,2.67,1.63,3.22,0.16c0.52-1.38,0.69-2.84,0.97-4.27
				c0.21-1.02,1.29-3.13-0.25-3.75c-0.44-0.17-1.74,0.23-2.08,0.5C66.11,97.21,66.08,97.23,66.07,97.25z"/>
		</g>
		<path fill="#2F2F2F" d="M31.76,64.96c-0.14,0-0.28-0.01-0.43-0.04c-3.77-0.68-5.42-2.62-6.15-4.12c-1.18-2.47-0.61-5.18,0.24-6.76
			c2.11-3.93,7.14-4.13,9.78-3.64l9.02,2.16c1.26,0.3,2.04,1.57,1.74,2.83c-0.31,1.26-1.57,2.05-2.83,1.73l-8.9-2.13l0,0
			c-0.04,0-3.69-0.53-4.66,1.27c-0.29,0.55-0.53,1.68-0.14,2.5c0.46,0.95,1.75,1.36,2.76,1.55c1.28,0.23,2.12,1.45,1.89,2.73
			C33.87,64.17,32.88,64.96,31.76,64.96z"/>
	</g>
	<path fill="#006CA2" d="M35.82,35.01c-0.23-0.26-0.44-0.53-0.63-0.81c-5.74-8.16-3.92-17.76,2.52-22.18
		c9.22-6.33,18.96-2.7,22.4,3.35c0.95,1.66,1.7,3.44,2.09,5.33c0.28,1.35-0.1,3.02,0.73,4.22c0.9,1.3,3.01,1.94,4.48,2.31
		C74.79,29.1,82.27,34,86.27,40.55c5.32,8.7-0.14,16.58-5.34,23.7c-3.3,4.54-6.39,9.59-7.35,15.21c-0.47,2.78-0.42,5.73,0.05,8.52
		c0.35,2.06,1.26,3.98,1.63,6.03c0.75,4.31-2.12,7.3-6.01,8.73c-1.52,0.56-2.6,1.18-4.25,1.17c-7.68-0.04-8.07-6.68-4.44-11.56
		c1.17-1.58,0.16-4.33-0.59-6.15c-1.94-4.67-1.53-11.14-0.06-15.89c1.78-5.75,6.2-11.05,1.88-16.88c-2.46-3.32-4.49-7.03-7.43-9.97
		c-3.54-3.55-5.87-2.91-10.4-3.74C40.94,39.14,37.85,37.42,35.82,35.01z"/>
	<path fill="#006CA2" d="M25.65,63.71c-0.84-4.5,1.65-7.74,6.3-7.74c2.05,0,4.26,0.97,6.17,0.17c6.76-2.8,10.69-9.05,10.64-16.31
		c-0.02-2.72-0.24-5.58,2.77-6.65c2.18-0.78,6.68-1.13,8.01,1.31c1.07,1.97,0.7,5.48,1,7.68c1.46,10.67-8.25,22.13-18.51,24.57
		c-0.75,0.18-1.69-0.01-2.37,0.3c-0.58,0.26-1.05,0.74-1.65,1.03C34.04,70.02,26.58,68.65,25.65,63.71z"/>
	<path fill="#40C0E7" d="M37.83,9.05c-0.77,0.36-1.52,0.79-2.23,1.3c-2.97,2.18-4.95,5.65-5.72,9.21c-0.15,0.71-0.28,1.42-0.38,2.14
		c-0.21,1.55-0.29,3.23,0.09,4.75c0.9,3.56,4.43,1.92,6.87,1.18c2.04-0.63,4.07-1.28,6.12-1.93c6.69-2.12,13.51-4.03,20.02-6.62
		c2.1-0.83,4.26-1.33,2.67-4.18c-0.65-1.17-1.74-2.07-2.78-2.89c-0.67-0.53-1.39-1.04-2.14-1.45c-3.48-1.89-7.42-2.71-11.34-2.99
		C45.3,7.32,41.26,7.47,37.83,9.05z"/>
</g>
</svg>
