<svg xmlns="http://www.w3.org/2000/svg" viewBox="0 0 128 128"><path d="M63.79 8.64C1.48 8.64 0 78.5 0 92.33c0 13.83 28.56 25.03 63.79 25.03 35.24 0 63.79-11.21 63.79-25.03 0-13.83-1.47-83.69-63.79-83.69z" fill="#fcc21b"/><path d="M63.91 98.82c-3.43 0-6.87-.43-10.25-1.31a3.014 3.014 0 0 1-2.15-3.66 3 3 0 0 1 3.66-2.14c11.65 3.04 24.21-.21 32.78-8.48a2.991 2.991 0 0 1 4.24.08 2.991 2.991 0 0 1-.08 4.24c-7.57 7.3-17.79 11.27-28.2 11.27zM55.53 67.26l-.02.02c0-.01.01-.02.02-.02zM51.68 67.98c-.92 0-1.83-.47-2.34-1.32-.12-.21-2.68-4.25-8.24-4.87-.74 4.78 1.73 8.45 5.88 8.42 2.26-.02 4.59-1.14 6.53-2.92-.13.12-.28.23-.44.32-.44.25-.91.37-1.39.37zM43.11 56.57a17.93 17.93 0 0 0-3.46-.32c-9.77 0-14.19 7.31-14.37 7.62-.76 1.28-.33 2.94.96 3.71s2.95.35 3.73-.93c.13-.21 3.11-4.96 9.69-4.96.51 0 .98.04 1.45.09.06-.4.14-.8.24-1.2.36-1.43.98-2.78 1.76-4.01z" fill="#2f2f2f"/><path d="M54.04 63.87c-.17-.27-3.56-5.88-10.93-7.3-.78 1.23-1.4 2.58-1.77 4.01-.11.41-.18.81-.24 1.2 5.56.62 8.12 4.66 8.24 4.87a2.73 2.73 0 0 0 3.73.94c.16-.09.3-.2.44-.32l.02-.02c.92-.84 1.17-2.25.51-3.38z" fill="#2f2f2f"/><g><path d="M100.61 67.98c-.92 0-1.83-.47-2.34-1.32-.12-.21-2.68-4.25-8.24-4.87-.74 4.78 1.73 8.45 5.88 8.42 2.26-.02 4.59-1.14 6.53-2.92-.13.12-.28.23-.44.32-.44.25-.91.37-1.39.37zM92.04 56.57a17.93 17.93 0 0 0-3.46-.32c-9.77 0-14.19 7.31-14.37 7.62-.76 1.28-.33 2.94.96 3.71s2.95.35 3.73-.93c.13-.21 3.11-4.96 9.69-4.96.51 0 .98.04 1.45.09.06-.4.14-.8.24-1.2.36-1.43.98-2.78 1.76-4.01z" fill="#2f2f2f"/><path d="M102.97 63.87c-.17-.27-3.56-5.88-10.93-7.3-.78 1.23-1.4 2.58-1.77 4.01-.11.41-.18.81-.24 1.2 5.56.62 8.12 4.66 8.24 4.87a2.73 2.73 0 0 0 3.73.94c.16-.09.3-.2.44-.32l.02-.02c.92-.84 1.17-2.25.51-3.38z" fill="#2f2f2f"/></g></svg>