<svg width="128" height="128" style="enable-background:new 0 0 128 128;" xmlns="http://www.w3.org/2000/svg" xmlns:xlink="http://www.w3.org/1999/xlink">
  <g>
    <path d="M93.82,39.55c0.4-0.01,8.97,0.51,12.44,0.26s4.68,0.11,4.68,0.11l-0.61,1.76c0,0,1.14,0.03-4.4,0.28 c-5.54,0.25-15.58,1.71-16.74,1.01C88.03,42.28,93.82,39.55,93.82,39.55z" style="fill:#458C00;"/>
    <path d="M108.74,16.2c0.01-0.34,0.2-0.67,0.2-0.67l-2.46-1.66c0,0-8.52,9.1-11.5,12 c-2.98,2.9-5.43,5.66-7.3,7.66c-0.95,1.02-1.02,2.52-0.87,3.76C93.27,29.29,101.75,23.8,108.74,16.2z" style="fill:#6A9600;"/>
    <path d="M111.64,18.45c0,0-2.32-1.39-2.73-1.78c-0.14-0.13-0.18-0.3-0.17-0.47 c-6.99,7.59-15.48,13.09-21.93,21.09c0.15,1.19,0.52,2.14,0.52,2.14s4.43-1.41,4.62-1.75s7.27-6.52,13.16-12.26 S111.64,18.45,111.64,18.45z" style="fill:#468C00;"/>
    <linearGradient id="SVGID_1_" gradientTransform="matrix(0.7298 0.6836 -0.6836 0.7298 33.1255 -87.2434)" gradientUnits="userSpaceOnUse" x1="125.218" x2="144.4869" y1="43.7763" y2="43.7763">
      <stop offset="0" style="stop-color:#7CB342"/>
      <stop offset="1" style="stop-color:#8BC34A"/>
    </linearGradient>
    <path d="M86.07,39.4c0.26-0.14,7.54-2.38,12.25-3.54c4.71-1.16,14.22-4.54,15.8-5.26 c1.58-0.72,4.49-1.75,4.49-1.75l1.42,2.49c0,0-13.9,6.13-20.84,8.43s-11.69,4.19-13.53,5.19s-1.36-2.7-1.36-2.7L86.07,39.4z" style="fill:url(#SVGID_1_);"/>
    <linearGradient id="SVGID_2_" gradientTransform="matrix(0.7298 0.6836 -0.6836 0.7298 33.1255 -87.2434)" gradientUnits="userSpaceOnUse" x1="101.4153" x2="124.7458" y1="45.8535" y2="45.8535">
      <stop offset="0" style="stop-color:#558B2F"/>
      <stop offset="1" style="stop-color:#8BC34A"/>
    </linearGradient>
    <path d="M85.87,4.79c0,0,0.65-0.56,1.53-0.25C88.28,4.85,87.98,6,87.98,6S85.62,19.7,85.5,21.91 c-0.13,2.21-1.89,11.82-1.86,14.56c0.02,2.74-1.78,6.74-1.78,6.74l-4.07-3.94c0,0,2.29-3.68,3.13-8.46s3.36-15.75,3.76-19.9 S85.87,4.79,85.87,4.79z" style="fill:url(#SVGID_2_);"/>
    <path d="M90.51,27.37c0.37-1.26,0.81-2.5,1.39-3.72c2.25-4.75,5.91-13.36,6.6-14.78S99,7.64,99,7.64 s-0.89-0.57-1.9-0.87c-0.56-0.17-0.97,0.01-1.37,0.15C93.29,13.57,90.32,20.21,90.51,27.37z" style="fill:#468C00;"/>
    <linearGradient id="SVGID_3_" gradientTransform="matrix(0.7298 0.6836 -0.6836 0.7298 33.1255 -87.2434)" gradientUnits="userSpaceOnUse" x1="108.4692" x2="126.8565" y1="28.1123" y2="63.1237">
      <stop offset="4.926108e-03" style="stop-color:#558B2F"/>
      <stop offset="1" style="stop-color:#8BC34A"/>
    </linearGradient>
    <path d="M88.05,38.67c1.02-3.86,1.41-7.66,2.47-11.3c-0.2-7.16,2.77-13.79,5.22-20.45 c-0.32,0.11-0.64,0.2-1.03,0.06c-0.88-0.31-2.77-1.05-2.77-1.05s-1.47,1.99-3.03,7.38s-3.66,12.88-5.01,16.4 c-1.36,3.52-3.76,11.62-3.76,11.62s1.87,2.14,3.34,4.03c1.47,1.89,1.81,2.08,1.81,2.08S86.68,43.86,88.05,38.67z" style="fill:url(#SVGID_3_);"/>
  </g>
  <g style="opacity:0.2;">
    <path d="M92.82,8.42c0.45,0.17,0.9,0.34,1.22,0.45c0.34,0.12,0.7,0.18,1.06,0.18 c0.48,0,0.88-0.11,1.22-0.22c-0.35,0.78-0.86,1.94-1.48,3.36c-1.42,3.24-3.36,7.68-4.74,10.59c-0.58,1.22-1.07,2.54-1.5,4.02 c-0.45,1.56-0.78,3.14-1.02,4.34c-0.17,0.88,0.26,1.76,1.06,2.17c0.29,0.15,0.6,0.22,0.91,0.22c0.54,0,1.08-0.22,1.47-0.64 c1.53-1.66,3.34-3.59,5.37-5.58c2.34-2.28,7.92-8.19,10.38-10.8c0.06,0.63,0.34,1.2,0.79,1.62c0.21,0.2,0.62,0.49,1.11,0.82 c-0.9,1-2.42,2.59-4.93,5.04c-3.52,3.43-7.49,7.03-10.11,9.42c-1.79,1.63-2.67,2.43-3.01,2.79c-0.62,0.65-0.73,1.65-0.26,2.42 c0.37,0.61,1.02,0.96,1.71,0.96c0.18,0,0.37-0.03,0.56-0.08c1.67-0.48,4.07-1.16,6.1-1.66c-0.06,0.02-0.12,0.04-0.17,0.06 c-0.92,0.31-1.48,1.23-1.34,2.18c0.03,0.22,0.1,0.42,0.19,0.61c-2.6,0.25-5.16,0.48-6.64,0.48c-0.37,0-0.58-0.01-0.7-0.03 c-0.07-0.01-0.14-0.01-0.2-0.01c-0.25,0-0.5,0.05-0.73,0.14c-1.54,0.61-2.79,1.14-3.71,1.59c-0.33,0.16-0.61,0.41-0.8,0.71 c-0.55-0.7-1.19-1.47-1.91-2.32c-0.04-0.05-0.09-0.1-0.14-0.14l-2.27-2.2c0.81-1.6,2.03-4.41,2.62-7.73 c0.13-0.74,0.3-1.63,0.5-2.64c0.25,0.25,0.58,0.44,0.95,0.53c0.16,0.04,0.31,0.05,0.46,0.05c0.85,0,1.62-0.54,1.9-1.38 c1.06-3.23,2.32-7.6,3.43-11.46l0.69-2.41C91.57,11.24,92.31,9.48,92.82,8.42 M86.87,4.45c-0.6,0-1,0.34-1,0.34 s-0.8,1.96-1.2,6.12c-0.4,4.16-2.91,15.13-3.76,19.9c-0.85,4.77-3.13,8.46-3.13,8.46l3.37,3.26c0.66,0.79,1.54,1.84,2.31,2.83 c1.47,1.89,1.81,2.08,1.81,2.08s0.41-1.04,1-2.8c0.85-0.41,2.04-0.93,3.57-1.53c0.25,0.03,0.55,0.04,0.91,0.04 c3.28,0,10.71-1,15.19-1.2c5.54-0.25,4.4-0.28,4.4-0.28l0.61-1.76c0,0-0.67-0.2-2.45-0.2c-0.61,0-1.34,0.02-2.23,0.09 c-0.66,0.05-1.51,0.07-2.46,0.07c-1.44,0-3.09-0.04-4.63-0.1c0,0,0,0,0.01,0c6.94-2.3,20.84-8.43,20.84-8.43l-1.42-2.49 c0,0-2.91,1.03-4.49,1.75c-1.58,0.72-11.09,4.1-15.8,5.26c-1.88,0.46-4.17,1.1-6.26,1.7c0.84-0.88,7.48-6.71,13.07-12.15 c5.89-5.74,6.52-6.96,6.52-6.96s-2.32-1.39-2.73-1.78c-0.14-0.13-0.18-0.3-0.17-0.47c0.01-0.34,0.2-0.67,0.2-0.67l-2.46-1.66 c0,0-8.52,9.1-11.5,12c-2.08,2.03-3.9,3.98-5.45,5.65c0.28-1.41,0.58-2.8,0.98-4.17c0.37-1.26,0.81-2.5,1.39-3.72 c2.25-4.75,5.91-13.36,6.6-14.78c0.53-1.11,0.54-1.23,0.51-1.23C99.01,7.63,99,7.64,99,7.64s-0.89-0.57-1.9-0.87 c-0.16-0.05-0.31-0.07-0.45-0.07c-0.34,0-0.63,0.12-0.91,0.22c-0.21,0.07-0.41,0.13-0.63,0.13c-0.13,0-0.26-0.02-0.4-0.07 c-0.88-0.31-2.77-1.05-2.77-1.05s-1.47,1.99-3.03,7.38c-1.24,4.3-2.82,9.91-4.1,13.8c0.35-2.3,0.65-4.33,0.7-5.2 c0.13-2.21,2.49-15.92,2.49-15.92s0.3-1.15-0.58-1.45C87.21,4.48,87.03,4.45,86.87,4.45L86.87,4.45z" style="fill:#424242;"/>
  </g>
  <g>
    <linearGradient id="SVGID_4_" gradientUnits="userSpaceOnUse" x1="33.1993" x2="57.588" y1="66.4939" y2="92.7382">
      <stop offset="4.906866e-03" style="stop-color:#FFA24A"/>
      <stop offset="0.6946" style="stop-color:#E45E00"/>
      <stop offset="1" style="stop-color:#EB6700"/>
    </linearGradient>
    <path d="M60.3,38.58c-3.71,4.03-5.81,7-9.68,11.91s-4.91,8.04-8.78,12.06s-8.34,9.38-12.06,14.29 c-3.72,4.91-6.1,10.72-9.83,15.63s-6.1,8.34-8.49,13.4s-4.62,9.83-5.51,12.21c-0.89,2.38-0.3,4.91,2.38,4.91s4.91-2.08,11.32-6.1 c6.4-4.02,14-9.23,16.23-12.36s8.49-7.3,10.72-8.49c2.23-1.19,11.76-9.23,14-11.91c2.23-2.68,7.59-8.19,11.46-11.17 C75.93,70,83.82,62.4,85.31,60.62c1.49-1.79,5.06-5.66,5.36-8.04c0.3-2.38,1.94-8.64-7-16.08S65.51,32.92,60.3,38.58z" style="fill:url(#SVGID_4_);"/>
    <g style="opacity:0.2;">
      <path d="M73.23,35.38c2.94,0,5.8,1.15,8.52,3.42c7.04,5.87,6.38,10.38,6.02,12.81 c-0.03,0.22-0.06,0.42-0.08,0.59c-0.12,0.81-1.46,2.72-3.98,5.66c-0.26,0.31-0.5,0.59-0.7,0.83c-1.36,1.63-9.15,9.11-12.78,11.9 c-4.1,3.15-9.57,8.77-11.94,11.62c-2.05,2.46-11.25,10.2-13.1,11.18c-2.09,1.11-9.03,5.59-11.75,9.39 c-1.54,2.16-7.29,6.48-15.38,11.56c-1.67,1.05-3.03,1.95-4.23,2.74c-2.83,1.87-4.23,2.77-5.25,2.89c0.01-0.2,0.06-0.49,0.19-0.85 c0.89-2.36,3.29-7.47,5.41-11.98c2.21-4.69,4.39-7.89,8.16-12.87c1.98-2.61,3.58-5.42,5.13-8.14c1.52-2.67,2.96-5.19,4.7-7.49 C36.09,73.47,40.4,68.36,44,64.63c2.42-2.52,3.82-4.69,5.29-6.99c1.04-1.63,2.12-3.31,3.69-5.29c0.99-1.26,1.86-2.38,2.68-3.44 c2.33-3.01,4.17-5.39,6.85-8.3C65.56,37.29,69.47,35.38,73.23,35.38 M73.23,32.38c-5.15,0-9.77,2.77-12.93,6.2 c-3.71,4.03-5.81,7-9.68,11.91s-4.91,8.04-8.78,12.06c-3.87,4.02-8.34,9.38-12.06,14.29c-3.72,4.91-6.1,10.72-9.83,15.63 c-3.72,4.91-6.1,8.34-8.49,13.4c-2.38,5.06-4.62,9.83-5.51,12.21c-0.89,2.38-0.3,4.91,2.38,4.91c2.68,0,4.91-2.08,11.32-6.1 s14-9.23,16.23-12.36c2.23-3.13,8.49-7.3,10.72-8.49c2.23-1.19,11.76-9.23,14-11.91c2.23-2.68,7.59-8.19,11.46-11.17 C75.93,70,83.82,62.4,85.31,60.62c1.49-1.79,5.06-5.66,5.36-8.04c0.3-2.38,1.94-8.64-7-16.08C80.15,33.56,76.58,32.38,73.23,32.38 L73.23,32.38z" style="fill:#424242;"/>
    </g>
  </g>
  <g>
    <path d="M78.79,43.29c0,0,0.21-0.04,0.55-0.06c0.33-0.02,0.86-0.01,1.43,0.11c0.58,0.09,1.23,0.3,1.89,0.6 c0.32,0.17,0.68,0.31,0.98,0.53c0.32,0.2,0.63,0.43,0.95,0.66c0.29,0.26,0.58,0.52,0.84,0.79c0.28,0.26,0.49,0.58,0.72,0.85 c0.43,0.59,0.77,1.18,0.98,1.73c0.23,0.54,0.34,1.02,0.4,1.37c0.05,0.35,0.06,0.56,0.06,0.56l-0.13,0.08c0,0-0.39-0.6-1.06-1.44 c-0.66-0.85-1.65-1.88-2.76-2.77c-1.1-0.91-2.32-1.66-3.28-2.13c-0.95-0.48-1.63-0.74-1.63-0.74L78.79,43.29z" style="fill:#DE5900;"/>
    <path d="M66.24,51.69c0,0,0.2-0.07,0.55-0.16c0.17-0.04,0.38-0.09,0.64-0.1c0.26-0.03,0.55-0.04,0.85-0.02 c0.31,0.01,0.64,0.04,0.99,0.12c0.35,0.07,0.71,0.16,1.07,0.31c0.35,0.15,0.75,0.28,1.09,0.51c0.36,0.2,0.69,0.45,1.03,0.7 c0.31,0.28,0.62,0.56,0.89,0.87c0.29,0.29,0.5,0.65,0.72,0.96c0.21,0.32,0.38,0.66,0.52,0.99c0.16,0.32,0.25,0.64,0.32,0.94 c0.16,0.59,0.2,1.11,0.19,1.47c-0.01,0.36-0.04,0.57-0.04,0.57l-0.14,0.05c0,0-0.07-0.17-0.2-0.46c-0.12-0.3-0.34-0.7-0.61-1.18 c-0.54-0.96-1.45-2.14-2.6-3.04c-1.13-0.94-2.46-1.59-3.51-1.92c-0.52-0.17-0.96-0.29-1.28-0.35c-0.32-0.07-0.5-0.1-0.5-0.1 L66.24,51.69z" style="fill:#A84300;"/>
    <path d="M76.41,52.67c0,0,0.19-0.01,0.5,0c0.3,0.01,0.77,0.08,1.25,0.25c0.5,0.15,1.05,0.41,1.59,0.76 c0.25,0.19,0.55,0.36,0.79,0.6c0.25,0.22,0.49,0.47,0.73,0.71c0.21,0.27,0.42,0.54,0.61,0.81c0.21,0.26,0.34,0.58,0.49,0.86 c0.28,0.58,0.48,1.15,0.56,1.67c0.11,0.51,0.11,0.96,0.1,1.27c-0.02,0.32-0.06,0.5-0.06,0.5l-0.14,0.06c0,0-0.25-0.57-0.71-1.39 c-0.45-0.82-1.15-1.86-1.99-2.78c-0.82-0.94-1.76-1.77-2.52-2.31c-0.75-0.55-1.29-0.87-1.29-0.87L76.41,52.67z" style="fill:#DE5900;"/>
    <path d="M63.82,37.24c0,0,0.16-0.06,0.42-0.13c0.25-0.07,0.65-0.13,1.09-0.11c0.45,0,0.95,0.09,1.46,0.26 c0.25,0.1,0.53,0.17,0.76,0.32c0.25,0.13,0.49,0.28,0.74,0.43c0.22,0.18,0.45,0.36,0.65,0.55c0.22,0.18,0.38,0.42,0.56,0.62 c0.17,0.2,0.31,0.44,0.43,0.65c0.13,0.21,0.22,0.43,0.3,0.64c0.33,0.83,0.27,1.5,0.27,1.5l-0.12,0.09c0,0-0.31-0.41-0.83-0.98 c-0.51-0.57-1.27-1.27-2.12-1.85c-0.83-0.6-1.74-1.09-2.45-1.39c-0.7-0.31-1.2-0.47-1.2-0.47L63.82,37.24z" style="fill:#DE5900;"/>
    <path d="M47.65,55.73c0,0,0.68-0.22,1.64-0.16c0.24,0.01,0.5,0.03,0.76,0.09c0.27,0.05,0.55,0.1,0.83,0.21 c0.28,0.11,0.59,0.19,0.86,0.36c0.28,0.15,0.56,0.32,0.84,0.51c0.26,0.21,0.51,0.43,0.75,0.67c0.25,0.22,0.42,0.52,0.61,0.78 c0.18,0.27,0.32,0.55,0.42,0.83c0.13,0.26,0.18,0.55,0.23,0.8c0.07,0.24,0.06,0.49,0.06,0.7c0.01,0.2-0.02,0.39-0.05,0.54 c-0.05,0.3-0.11,0.46-0.11,0.46l-0.14,0.04c0,0-0.05-0.13-0.13-0.37c-0.04-0.12-0.09-0.26-0.17-0.42 c-0.08-0.15-0.15-0.34-0.26-0.52c-0.4-0.76-1.15-1.64-2.09-2.3c-0.91-0.69-1.96-1.19-2.76-1.53c-0.79-0.34-1.34-0.55-1.34-0.55 L47.65,55.73z" style="fill:#DE5900;"/>
    <path d="M64.7,62.54c0,0,0.19-0.03,0.49-0.04c0.29-0.01,0.77,0.02,1.26,0.15c0.26,0.05,0.52,0.14,0.79,0.25 c0.27,0.11,0.56,0.23,0.83,0.4c0.27,0.17,0.57,0.32,0.82,0.54c0.26,0.21,0.51,0.43,0.76,0.66c0.23,0.25,0.45,0.51,0.65,0.77 c0.22,0.25,0.36,0.55,0.53,0.81c0.31,0.55,0.53,1.1,0.65,1.61c0.13,0.49,0.17,0.93,0.17,1.24c0,0.31-0.02,0.5-0.02,0.5l-0.13,0.07 c0,0-0.29-0.55-0.79-1.32c-0.49-0.78-1.24-1.76-2.12-2.62c-0.85-0.88-1.83-1.64-2.62-2.11c-0.78-0.49-1.34-0.76-1.34-0.76 L64.7,62.54z" style="fill:#AB4400;"/>
    <path d="M49.77,72.5c0,0,0.19-0.03,0.49-0.04c0.29-0.01,0.77,0.02,1.26,0.15c0.26,0.05,0.52,0.14,0.79,0.25 c0.27,0.11,0.56,0.23,0.83,0.4c0.27,0.17,0.57,0.32,0.82,0.54c0.26,0.21,0.51,0.43,0.76,0.66c0.23,0.25,0.45,0.51,0.65,0.77 c0.22,0.25,0.36,0.55,0.53,0.81c0.31,0.55,0.53,1.1,0.65,1.61c0.13,0.49,0.17,0.93,0.17,1.24c0,0.31-0.02,0.5-0.02,0.5l-0.13,0.07 c0,0-0.29-0.55-0.79-1.32c-0.49-0.78-1.24-1.76-2.12-2.62c-0.85-0.88-1.83-1.64-2.62-2.11c-0.78-0.49-1.34-0.76-1.34-0.76 L49.77,72.5z" style="fill:#C95100;"/>
    <path d="M40.46,74.56c0,0,0.19-0.06,0.51-0.12c0.31-0.06,0.8-0.1,1.34-0.04c0.28,0.02,0.57,0.06,0.87,0.13 c0.3,0.07,0.62,0.15,0.93,0.28c0.31,0.13,0.65,0.24,0.95,0.43c0.31,0.17,0.61,0.36,0.91,0.56c0.28,0.22,0.56,0.45,0.82,0.68 c0.27,0.22,0.48,0.51,0.71,0.75c0.42,0.52,0.76,1.05,0.98,1.55c0.23,0.49,0.36,0.93,0.42,1.25c0.06,0.32,0.08,0.52,0.08,0.52 l-0.12,0.09c0,0-0.4-0.52-1.06-1.25c-0.66-0.73-1.62-1.63-2.69-2.38c-1.05-0.77-2.22-1.4-3.13-1.76c-0.9-0.38-1.54-0.56-1.54-0.56 L40.46,74.56z" style="fill:#DE5900;"/>
    <path d="M26.53,90.78c0,0,0.21-0.02,0.56-0.01c0.34,0.01,0.87,0.07,1.43,0.23c0.29,0.07,0.59,0.18,0.9,0.32 c0.31,0.14,0.64,0.28,0.95,0.48c0.31,0.2,0.65,0.38,0.94,0.64c0.3,0.24,0.6,0.5,0.88,0.77c0.27,0.29,0.53,0.58,0.77,0.88 c0.26,0.29,0.43,0.63,0.64,0.93c0.37,0.63,0.66,1.26,0.82,1.83c0.18,0.56,0.25,1.06,0.28,1.41c0.02,0.35,0.01,0.56,0.01,0.56 l-0.13,0.07c0,0-0.34-0.64-0.93-1.55c-0.58-0.91-1.47-2.07-2.5-3.07c-1.01-1.03-2.17-1.91-3.1-2.47 c-0.92-0.57-1.58-0.87-1.58-0.87L26.53,90.78z" style="fill:#DE5900;"/>
    <path d="M22.1,107.01c0,0,0.15-0.05,0.39-0.1c0.23-0.05,0.6-0.07,0.98-0.01c0.2,0.02,0.41,0.06,0.62,0.13 c0.21,0.07,0.44,0.14,0.64,0.26c0.2,0.12,0.44,0.21,0.63,0.38c0.2,0.15,0.39,0.31,0.58,0.48c0.17,0.19,0.33,0.38,0.48,0.57 c0.16,0.19,0.26,0.42,0.38,0.62c0.21,0.42,0.35,0.85,0.4,1.24c0.13,0.77-0.06,1.37-0.06,1.37l-0.13,0.07c0,0-0.22-0.39-0.58-0.94 c-0.36-0.56-0.9-1.26-1.54-1.87c-1.22-1.29-2.84-2.07-2.84-2.07L22.1,107.01z" style="fill:#DE5900;"/>
    <path d="M10.63,114.59c0,0,0.14-0.05,0.35-0.11c0.21-0.06,0.55-0.09,0.9-0.05 c0.36,0.02,0.76,0.13,1.15,0.31c0.19,0.1,0.4,0.18,0.57,0.33c0.18,0.13,0.35,0.28,0.52,0.43c0.15,0.17,0.29,0.34,0.43,0.52 c0.15,0.17,0.22,0.38,0.33,0.56c0.18,0.38,0.29,0.77,0.32,1.13c0.09,0.71-0.12,1.25-0.12,1.25l-0.13,0.07c0,0-0.19-0.34-0.52-0.83 c-0.32-0.49-0.8-1.11-1.36-1.64c-1.08-1.14-2.5-1.83-2.5-1.83L10.63,114.59z" style="fill:#DE5900;"/>
  </g>
</svg>