<svg enable-background="new 0 0 128 128" viewBox="0 0 128 128" xmlns="http://www.w3.org/2000/svg"><path d="m91.45 101.77c-1.18 1.5-2.52 3.12-4.02 4.85-0.8 0.92-1.59 1.87-2.38 2.8 0.79-0.93 1.58-1.88 2.38-2.8 1.5-1.73 2.84-3.35 4.02-4.85z" fill="none"/><path d="m99.25 86.15c-0.02-0.44-0.07-0.85-0.16-1.24 0.09 0.39 0.15 0.8 0.16 1.24z" fill="none"/><path d="m98.19 82.86c-0.21-0.3-0.44-0.58-0.7-0.85 0.26 0.27 0.49 0.55 0.7 0.85z" fill="none"/><path d="m99.06 88.31c0.11-0.53 0.17-1.02 0.19-1.49-0.02 0.47-0.09 0.96-0.19 1.49z" fill="none"/><path d="m97.85 91.87c0.45-0.99 0.79-1.9 1.01-2.74-0.23 0.83-0.56 1.74-1.01 2.74z" fill="none"/><path d="m91.45 101.77c3.15-4.01 5.2-7.25 6.4-9.9-1.21 2.65-3.25 5.89-6.4 9.9z" fill="none"/><radialGradient id="i" cx="51" cy="42.167" r="64.722" gradientUnits="userSpaceOnUse"><stop stop-color="#78909C" offset="0"/><stop stop-color="#6C8490" offset=".427"/><stop stop-color="#546E7A" offset="1"/></radialGradient><path d="m85.38 72.63c0.03 0.18 0.06 0.36 0.11 0.53 0.09 0.34 0.21 0.66 0.36 0.96s0.33 0.58 0.54 0.85c0.31 0.4 0.68 0.76 1.09 1.1 1.51 1.23 3.62 2.11 5.64 3.08 0.55 0.27 1.09 0.54 1.61 0.83 1.04 0.58 2 1.23 2.77 2.03 0.26 0.27 0.49 0.55 0.7 0.85 0.42 0.6 0.73 1.28 0.9 2.05 0.09 0.39 0.14 0.8 0.16 1.24 0.01 0.22 0.01 0.44 0 0.68-0.02 0.47-0.09 0.96-0.19 1.49-0.05 0.26-0.12 0.53-0.2 0.81-0.23 0.84-0.56 1.75-1.01 2.74-1.2 2.65-3.25 5.89-6.4 9.9-1.18 1.5-2.52 3.12-4.02 4.85-0.8 0.92-1.59 1.87-2.38 2.8-1.84 2.17-3.66 4.37-5.45 6.58h-75.61v-8.72c0-8.23 1.64-16.36 4.79-23.96 4.93-11.89 10.46-24.27 14.99-31.91 0.02-0.04 0.04-0.07 0.06-0.11 0.19-0.31 0.37-0.62 0.55-0.92 0.04-0.06 0.07-0.11 0.11-0.17 0.17-0.27 0.33-0.53 0.5-0.78l0.15-0.24c0.15-0.23 0.3-0.46 0.45-0.68 0.05-0.07 0.1-0.15 0.15-0.23 0.19-0.28 0.38-0.55 0.57-0.81 0.03-0.04 0.06-0.07 0.09-0.11 1.78 0.08 3.57 0.01 5.21-0.07 4.27-0.22 8.66-0.24 12.8-1.4 2.43-0.69 4.75-1.69 6.95-2.92 1.46-0.82 2.95-1.91 4.52-2.76 2.38 3.03 5.47 5.44 7.65 8.63 1.82 2.67 3.09 5.71 5.52 7.93 2.78 2.53 6.49 3.58 9.84 5.12 2.99 1.38 5.56 2.87 8.64 3.68-1.05 1.78-1.71 3.29-2 4.58-0.23 0.93-0.27 1.75-0.16 2.48z" fill="url(#i)"/><radialGradient id="h" cx="94.5" cy="69" r="34.811" gradientUnits="userSpaceOnUse"><stop stop-color="#546E7A" offset="0"/><stop stop-color="#4C636E" offset=".3702"/><stop stop-color="#37474F" offset="1"/></radialGradient><path d="m79.6 116c1.79-2.21 3.6-4.41 5.45-6.58 0.79-0.93 1.58-1.88 2.38-2.8 1.51-1.73 2.84-3.34 4.02-4.85 3.15-4.01 5.2-7.25 6.4-9.9 0.45-0.99 0.79-1.9 1.01-2.74 0.08-0.28 0.14-0.55 0.2-0.81 0.11-0.53 0.17-1.02 0.19-1.49 0.01-0.23 0.01-0.46 0-0.68-0.02-0.44-0.07-0.85-0.16-1.24-0.18-0.77-0.49-1.45-0.9-2.05-0.21-0.3-0.44-0.58-0.7-0.85-0.77-0.8-1.72-1.45-2.77-2.03-0.52-0.29-1.06-0.57-1.61-0.83-2.01-0.98-4.12-1.85-5.64-3.08-0.41-0.34-0.78-0.7-1.09-1.1-0.21-0.27-0.39-0.55-0.54-0.85s-0.27-0.62-0.36-0.96c-0.04-0.17-0.08-0.35-0.11-0.53-0.11-0.73-0.07-1.55 0.15-2.49 0.3-1.29 0.95-2.8 2-4.58 0.62 0.16 1.25 0.3 1.92 0.4 3.46 0.5 6.97 0.32 10.45 0.31 3.4-0.01 8.07 0.51 11.31-1.24 0.64 0.49 1.29 0.93 1.95 1.33 2.1 1.25 4.07 3.82 5.88 7.18 3.37 6.23 4.97 13.26 4.97 20.33v22.13h-44.4z" fill="url(#h)"/><linearGradient id="g" x1="27.284" x2="48.617" y1="52.926" y2="122.26" gradientTransform="matrix(-1 0 0 1 128 0)" gradientUnits="userSpaceOnUse"><stop stop-color="#78909C" offset="0"/><stop stop-color="#6C8490" offset=".427"/><stop stop-color="#546E7A" offset="1"/></linearGradient><path d="m79.6 116c1.79-2.21 3.6-4.41 5.45-6.58-1.85 2.17-3.67 4.37-5.45 6.58z" fill="url(#g)"/><linearGradient id="f" x1="52.004" x2="45.004" y1="58.942" y2="118.44" gradientTransform="matrix(-1 0 0 1 128 0)" gradientUnits="userSpaceOnUse"><stop stop-color="#546E7A" offset="0"/><stop stop-color="#4C636E" offset=".3702"/><stop stop-color="#37474F" offset="1"/></linearGradient><path d="m79.6 116c1.79-2.21 3.6-4.41 5.45-6.58-1.85 2.17-3.67 4.37-5.45 6.58z" fill="url(#f)"/><linearGradient id="e" x1="59.148" x2="59.148" y1="3" y2="74.391" gradientTransform="matrix(-1 0 0 1 128 0)" gradientUnits="userSpaceOnUse"><stop stop-color="#E1F5FE" offset="0"/><stop stop-color="#D5F1FD" offset=".3507"/><stop stop-color="#B4E5FC" offset=".9908"/><stop stop-color="#B3E5FC" offset="1"/></linearGradient><path d="m23.78 51.4c0.02-0.04 0.04-0.07 0.06-0.11 0.19-0.31 0.37-0.62 0.55-0.92 0.04-0.06 0.07-0.11 0.11-0.17 0.17-0.27 0.33-0.53 0.5-0.78l0.15-0.24c0.15-0.23 0.3-0.46 0.45-0.68 0.05-0.07 0.1-0.15 0.15-0.23 0.19-0.28 0.38-0.55 0.57-0.81 0.18-0.25 0.37-0.48 0.56-0.71 0.19-0.22 0.4-0.44 0.6-0.64 0.41-0.4 0.85-0.75 1.31-1.05 0.92-0.6 1.91-1 2.94-1.18 0.66-0.11 1.34-0.16 2.03-0.22 1.57-0.12 3.2-0.28 4.77-1.25 0.52-0.32 1.04-0.74 1.55-1.27 1.77-1.88 7.92-15.98 13.87-26.26 0.6-1.03 1.19-2.02 1.78-2.95 0.29-0.47 0.59-0.92 0.87-1.36 0.58-0.88 1.15-1.69 1.71-2.43 0.84-1.1 1.64-2.03 2.4-2.73 1.04-0.91 1.97-1.43 2.78-1.41 0.43 0.01 0.84 0.14 1.24 0.37 0.79 0.46 1.51 1.32 2.18 2.39 0.34 0.54 0.66 1.13 0.98 1.76-0.17 0.21-0.17 0.21 0 0 0.01 0.01 0.01 0.02 0.02 0.03 2.26 4.49 4.05 10.67 6.35 10.67 4.64 0 4.81 17.69 10.08 20.97 1.53-1.84 2.86-3.15 3.93-3.78 0.48-0.29 0.92-0.48 1.29-0.48 1.79 0 3.61 2.68 5.44 6.46 4.33 7.44 10.24 19.25 18.17 23.97 0.43 0.26 0.85 0.57 1.27 0.93-1.52 3.03-4.15 6.24-8.18 4.92-7-2.3-10.45 0.11-14.01 4.71-0.4 0.51-0.83 0.89-1.29 1.19-3.63 2.4-8.84-1.37-10.88-2.8-2.26-1.58-10.08-3.49-17.11-0.59-0.02 0.01-0.25 0.09-0.34 0.13-7.12 3.1-11.6-6.89-11.14-17.91s-5.4-9.87-9.07-7.12c-2.83 2.12-13.96 2.88-19.14 2.44 0.16-0.29 0.33-0.57 0.5-0.86z" fill="url(#e)"/><linearGradient id="d" x1="64" x2="64" y1="103.17" y2="77.52" gradientUnits="userSpaceOnUse"><stop stop-color="#37474F" offset="0"/><stop stop-color="#455A64" stop-opacity="0" offset="1"/></linearGradient><path d="m124 93.87c0-7.07-1.6-14.1-4.96-20.32-1.44-2.68-2.99-4.84-4.61-6.24v-0.01c-0.06-0.06-0.13-0.1-0.19-0.16-0.13-0.11-0.26-0.22-0.39-0.31-0.23-0.17-0.46-0.33-0.69-0.47-0.44-0.26-0.87-0.55-1.29-0.85-0.12-0.08-0.24-0.17-0.35-0.26-7.1-5.26-12.5-15.94-16.52-22.86-1.83-3.78-3.65-6.46-5.44-6.46-0.37 0-0.81 0.19-1.29 0.48-1.06 0.63-2.39 1.94-3.93 3.78-5.27-3.29-5.44-20.97-10.08-20.97-2.3 0-4.09-6.19-6.35-10.67-0.01-0.01-0.01-0.02-0.02-0.03-0.17 0.21-0.17 0.21 0 0-0.32-0.63-0.64-1.22-0.98-1.76-0.67-1.08-1.39-1.93-2.18-2.39-0.39-0.23-0.8-0.36-1.24-0.37-0.82-0.02-1.75 0.5-2.76 1.43-0.76 0.7-1.57 1.62-2.4 2.73-0.56 0.74-1.13 1.55-1.71 2.43-0.29 0.44-0.58 0.89-0.87 1.36-0.59 0.93-1.18 1.92-1.78 2.95-5.95 10.28-12.1 24.38-13.87 26.26-0.51 0.54-1.02 0.95-1.55 1.27-1.57 0.97-3.21 1.12-4.77 1.25-0.7 0.06-1.38 0.1-2.03 0.22-1.03 0.18-2.02 0.58-2.94 1.18-0.46 0.3-0.9 0.65-1.31 1.05-0.21 0.2-0.41 0.41-0.6 0.64-0.19 0.22-0.38 0.46-0.56 0.71-0.19 0.26-0.38 0.53-0.57 0.81-0.05 0.07-0.1 0.15-0.15 0.23-0.15 0.22-0.3 0.44-0.45 0.68l-0.15 0.24c-0.16 0.25-0.33 0.52-0.5 0.78-0.04 0.06-0.07 0.11-0.11 0.17-0.18 0.3-0.37 0.6-0.55 0.92-0.02 0.04-0.04 0.07-0.06 0.11-0.17 0.28-0.34 0.57-0.5 0.86-4.43 7.69-9.74 19.58-14.49 31.05-3.17 7.58-4.81 15.72-4.81 23.95v8.72h70.43c1.74 1.48 3.99 2.38 6.44 2.38h13.25c2.45 0 4.7-0.9 6.44-2.38h23.44v-22.13z" fill="url(#d)"/><g opacity=".2"><path d="m108.07 75.53c-0.91 0-1.83-0.15-2.75-0.46-1.48-0.49-2.8-0.73-3.91-0.73-2.48 0-4.26 1.16-6.79 4.43-0.56 0.73-1.24 1.35-2 1.86-1.28 0.85-2.75 1.28-4.37 1.28-4.01 0-7.88-2.72-9.75-4.02l-0.14-0.1c-0.69-0.49-3.53-1.55-7.43-1.55-2.47 0-4.77 0.43-6.82 1.28l-0.15 0.06-0.16 0.06c-1.23 0.53-2.49 0.81-3.72 0.81-2.36 0-4.57-1-6.38-2.89-3.53-3.68-5.52-10.85-5.2-18.71 0.18-4.3-0.75-5.5-0.94-5.69-0.08-0.08-0.16-0.17-0.46-0.17-0.58 0-1.63 0.33-2.88 1.27-4.09 3.07-16.23 3.16-17.6 3.16-1.36 0-2.57-0.04-3.6-0.13l-1.33-0.11c0.54-1.01 1.07-1.97 1.59-2.87 0.94 0.08 2.08 0.12 3.34 0.12 5.62 0 13.48-0.82 15.8-2.56 1.4-1.05 3.11-1.87 4.68-1.87 2.54 0 4.68 2.16 4.39 8.98-0.4 9.64 2.97 18.48 8.58 18.48 0.81 0 1.66-0.18 2.55-0.57 0.09-0.04 0.31-0.12 0.34-0.13 2.66-1.09 5.43-1.5 7.97-1.5 4.18 0 7.74 1.11 9.15 2.09 1.57 1.1 5.01 3.58 8.17 3.58 0.95 0 1.88-0.22 2.72-0.78 0.46-0.3 0.89-0.68 1.29-1.19 2.63-3.39 5.19-5.59 9.16-5.59 1.41 0 3.01 0.28 4.84 0.88 0.64 0.21 1.25 0.31 1.82 0.31 3.02 0 5.08-2.68 6.36-5.22 0.73 0.63 1.45 1.43 2.14 2.35-2.77 4.78-6.12 5.84-8.51 5.84z" fill="#424242"/></g><g opacity=".2"><path d="m55.27 44.08c0.62 0.68 1.26 1.32 1.88 1.96 1.46 1.49 2.84 2.91 3.91 4.48 0.53 0.77 1.01 1.59 1.52 2.46 1.21 2.05 2.46 4.18 4.45 5.99 2.46 2.24 5.33 3.42 8.1 4.56 0.88 0.36 1.7 0.7 2.5 1.07 0.75 0.34 1.47 0.7 2.18 1.04 2.16 1.05 4.39 2.14 6.96 2.81 0.84 0.22 1.55 0.37 2.24 0.47 2.34 0.34 4.64 0.38 6.39 0.38 0.83 0 1.66-0.01 2.49-0.02 0.67-0.01 1.34-0.02 2.02-0.02h0.12c0.57 0 1.17 0.01 1.8 0.03 0.72 0.02 1.47 0.03 2.23 0.03 2.01 0 4.48-0.12 6.77-0.89 0.26 0.17 0.53 0.34 0.79 0.49 1.02 0.61 2.68 2.15 4.77 6.03 3.01 5.58 4.6 12.11 4.6 18.89v19.16h-113.99v-5.72c0-7.84 1.53-15.51 4.56-22.81 6.01-14.49 10.98-25.09 14.8-31.53l0.15-0.25c0.15-0.25 0.3-0.5 0.45-0.73l0.07-0.1 0.04-0.06c0.16-0.25 0.31-0.5 0.47-0.74l0.01-0.06 0.11-0.17c0.1-0.15 0.19-0.29 0.28-0.43h0.13c1.38 0 2.7-0.06 3.7-0.11 0.66-0.03 1.32-0.06 1.98-0.09 3.76-0.17 7.65-0.34 11.47-1.42 2.54-0.72 5.1-1.79 7.6-3.19 0.75-0.42 1.49-0.89 2.2-1.35 0.1-0.06 0.18-0.11 0.25-0.16m0.62-3.87c-1.57 0.85-3.06 1.94-4.52 2.76-2.2 1.23-4.52 2.24-6.95 2.92-4.13 1.17-8.53 1.18-12.8 1.4-1.13 0.06-2.32 0.11-3.54 0.11-0.55 0-1.11-0.01-1.67-0.03-0.03 0.04-0.06 0.07-0.09 0.11-0.19 0.26-0.38 0.53-0.57 0.81-0.05 0.07-0.1 0.15-0.15 0.23-0.15 0.22-0.3 0.44-0.45 0.68l-0.15 0.24c-0.16 0.25-0.33 0.52-0.5 0.78-0.04 0.06-0.07 0.11-0.11 0.17-0.18 0.3-0.37 0.6-0.55 0.92-0.02 0.04-0.04 0.07-0.06 0.11-4.53 7.64-10.06 20.02-14.99 31.91-3.15 7.58-4.79 15.72-4.79 23.95v8.72h120v-22.13c0-7.07-1.6-14.1-4.96-20.32-1.82-3.36-3.78-5.94-5.88-7.18-0.66-0.39-1.31-0.84-1.95-1.33-2.04 1.1-4.64 1.3-7.14 1.3-1.42 0-2.8-0.06-4.03-0.06h-0.14c-1.5 0.01-3 0.04-4.49 0.04-1.99 0-3.98-0.06-5.96-0.35-0.67-0.1-1.3-0.24-1.92-0.4-3.08-0.8-5.65-2.3-8.64-3.68-3.34-1.54-7.06-2.59-9.84-5.12-2.43-2.22-3.7-5.26-5.52-7.93-2.17-3.2-5.26-5.61-7.64-8.63z" fill="#424242"/></g><path d="m36.15 58.58c0.07-0.46-0.57-0.66-0.77-0.24-2.66 5.64-13.77 22.19-17.77 29.25-0.39 0.69 0.44 1.42 1.07 0.95 1.93-1.43 5.72-4.78 5.93-5.78 0.3-1.43 2.96-5.44 3.81-6.7 0.17-0.24 0.34-0.48 0.52-0.71l3.49-4.39c0.68-0.86 1.17-1.85 1.42-2.92l2.3-9.46z" fill="#eee" opacity=".2"/><path d="m45.04 54.98c0.16-0.34-0.24-0.67-0.54-0.45l-3.66 2.62c-0.26 0.27-0.45 0.6-0.53 0.97l-2.87 11.42c0 0.45 0.63 0.54 0.76 0.11l6.84-14.67z" fill="#eee" opacity=".2"/><path d="m61.71 79.19c0.13-0.35-0.34-0.61-0.57-0.31-3 4.03-14.4 15.33-18.68 20.28-0.42 0.48 0.12 1.19 0.7 0.92 1.75-0.82 5.28-2.87 5.6-3.62 0.46-1.09 3.2-3.82 4.07-4.68 0.17-0.17 0.34-0.32 0.52-0.48l3.45-2.91c0.67-0.57 1.22-1.28 1.59-2.08l3.32-7.12z" fill="#eee" opacity=".2"/><path d="m48.78 84.62c0.27-0.21 0.09-0.64-0.25-0.59l-4.1 0.58c-0.33 0.11-0.62 0.3-0.84 0.57l-7.2 8.09c-0.19 0.36 0.29 0.71 0.57 0.41l11.82-9.06z" fill="#eee" opacity=".2"/><path d="m66.57 77.55c0.13-0.2 0.37-0.1 0.4 0.18l0.38 4.9c0.11 0.31 0.11 0.69-0.02 0.98l-3 6.89 0.39-4.2c0.02-0.19-0.13-0.32-0.24-0.2l-3.88 4.45c-0.19 0.19-0.41-0.14-0.87-0.68l6.84-12.32z" fill="#eee" opacity=".2"/><path d="m110.47 76.33c-0.07-0.28 0.17-0.28 0.41-0.01l4 4.88c0.31 0.26 0.59 0.66 0.73 1.02l3.23 8.59-2.95-4.53c-0.14-0.21-0.33-0.27-0.31-0.09l0.78 6.51c0.02 0.28-0.39 0.05-1.11-0.28l-4.78-16.09z" fill="#424242" opacity=".2"/><linearGradient id="c" x1="73.862" x2="62.696" y1="58.37" y2="19.203" gradientUnits="userSpaceOnUse"><stop stop-color="#81D4FA" offset="0"/><stop stop-color="#9ADDFB" offset=".1491"/><stop stop-color="#CCEEFD" offset=".4654"/><stop stop-color="#D5F1FD" offset=".6485"/><stop stop-color="#E1F5FE" offset="1"/></linearGradient><path d="m62.88 74.76c1.39-3.86 4.32-14.03 0.87-23.51-4.22-11.58-8.79-27.23 4.15-42.69 2.26 4.49 4.05 10.67 6.35 10.67 4.64 0 4.81 17.69 10.08 20.97-0.19 0.26-15.52 21.4-21.38 34.53-0.02 0.01-0.04 0.02-0.07 0.03z" fill="url(#c)"/><linearGradient id="b" x1="45.59" x2="45.59" y1="13.25" y2="66.538" gradientUnits="userSpaceOnUse"><stop stop-color="#fff" offset="0"/><stop stop-color="#F3FBFF" offset=".4943"/><stop stop-color="#E1F5FE" offset="1"/></linearGradient><path d="m63.75 51.25c3.45 9.47 0.52 19.64-0.87 23.51-0.09 0.04-0.18 0.06-0.26 0.1-7.12 3.1-11.6-6.89-11.14-17.91s-5.4-9.87-9.07-7.12c-2.83 2.12-13.96 2.88-19.14 2.44 0.17-0.29 0.34-0.58 0.5-0.86 0.02-0.04 0.04-0.07 0.06-0.11 0.19-0.31 0.37-0.62 0.55-0.92 0.04-0.06 0.07-0.11 0.11-0.17 0.17-0.27 0.33-0.53 0.5-0.78l0.15-0.24c0.15-0.23 0.3-0.46 0.45-0.68 0.05-0.07 0.1-0.15 0.15-0.23 0.19-0.28 0.38-0.55 0.57-0.81 0.18-0.25 0.37-0.48 0.56-0.71 0.19-0.22 0.4-0.44 0.6-0.64 0.41-0.4 0.85-0.75 1.31-1.05 0.92-0.6 1.91-1 2.94-1.18 0.66-0.11 1.34-0.16 2.03-0.22 1.57-0.12 3.2-0.28 4.77-1.25 0.52-0.32 1.04-0.74 1.55-1.27 1.77-1.88 7.92-15.98 13.87-26.26 0.6-1.03 1.19-2.02 1.78-2.95 0.29-0.47 0.59-0.92 0.87-1.36 0.58-0.88 1.15-1.69 1.71-2.43 0.84-1.1 1.64-2.03 2.4-2.73 1.05-0.92 1.98-1.44 2.79-1.42 0.43 0.01 0.84 0.14 1.24 0.37 0.79 0.46 1.51 1.32 2.18 2.39 0.34 0.54 0.66 1.13 0.98 1.76-0.17 0.21-0.17 0.21 0 0 0.01 0.01 0.01 0.02 0.02 0.03-12.95 15.47-8.38 31.12-4.16 42.7zm-0.95 23.42c1.63-4.69 2.4-9.06 2.34-13.39 0.06 4.33-0.71 8.7-2.34 13.39z" fill="url(#b)"/><g opacity=".2"><path d="m80.82 40.82c-0.26-0.2-0.49-0.43-0.67-0.71-1.85-2.78-2.91-6.77-3.94-10.67-0.62-2.34-1.63-6.15-2.45-7.24-3.16-0.33-4.8-3.83-6.58-7.97l-0.04 0.05-2.07-4.3c-0.11-0.23-0.22-0.54-0.27-0.91-0.14-0.26-0.28-0.5-0.42-0.72-0.44-0.7-0.76-1.06-0.95-1.24-0.15 0.1-0.37 0.26-0.65 0.52-0.6 0.55-1.28 1.33-2.04 2.33-0.5 0.66-1.04 1.43-1.6 2.27-0.28 0.42-0.56 0.85-0.84 1.3-0.55 0.87-1.12 1.83-1.72 2.86-2.94 5.08-5.99 11.23-8.44 16.17-3.23 6.5-4.7 9.43-5.84 10.64-0.66 0.7-1.38 1.29-2.15 1.77-2.23 1.38-4.47 1.56-6.11 1.69l-0.13 0.01c-0.59 0.05-1.15 0.09-1.63 0.17-0.62 0.11-1.23 0.35-1.8 0.73-0.3 0.2-0.6 0.43-0.88 0.71-0.49 0.49-2.47 2.92-2.89 4.1-1.28 0-2.45-0.04-3.42-0.12 0.17-0.29 0.34-0.58 0.5-0.86 0.02-0.04 0.04-0.07 0.06-0.11 0.19-0.31 0.37-0.62 0.55-0.92 0.04-0.06 0.07-0.11 0.11-0.17 0.17-0.27 0.33-0.53 0.5-0.78l0.15-0.24c0.15-0.23 0.3-0.46 0.45-0.68 0.05-0.07 0.1-0.15 0.15-0.23 0.19-0.28 0.38-0.55 0.57-0.81 0.18-0.25 0.37-0.48 0.56-0.71 0.19-0.22 0.4-0.44 0.6-0.64 0.41-0.4 0.85-0.75 1.31-1.05 0.92-0.6 1.91-1 2.94-1.18 0.66-0.11 1.34-0.16 2.03-0.22 1.57-0.12 3.2-0.28 4.77-1.25 0.52-0.32 1.04-0.74 1.55-1.27 1.77-1.88 7.92-15.98 13.87-26.26 0.6-1.03 1.19-2.02 1.78-2.95 0.29-0.47 0.59-0.92 0.87-1.36 0.58-0.88 1.15-1.69 1.71-2.43 0.84-1.1 1.64-2.03 2.4-2.73 1-0.91 1.91-1.43 2.72-1.43h0.04c0.43 0.01 0.84 0.14 1.24 0.37 0.79 0.46 1.51 1.32 2.18 2.39 0.34 0.54 0.66 1.13 0.98 1.76-0.08 0.1-0.12 0.16-0.12 0.16s0.04-0.05 0.12-0.16c0.01 0.01 0.01 0.02 0.02 0.03 2.26 4.49 4.05 10.67 6.35 10.67 4.64 0 4.81 17.69 10.08 20.97-0.04 0.05-0.59 0.81-1.49 2.09-0.51-0.3-1.48-1.03-2.02-1.44z" fill="#424242"/></g><linearGradient id="a" x1="77.973" x2="77.973" y1="44.5" y2="74.276" gradientUnits="userSpaceOnUse"><stop stop-color="#fff" offset="0"/><stop stop-color="#F3FBFF" offset=".4943"/><stop stop-color="#E1F5FE" offset="1"/></linearGradient><path d="m90.08 38.92c0.24 0.38 0.47 0.78 0.69 1.2s0.43 0.86 0.63 1.32c0.3 0.69 0.57 1.42 0.8 2.2 0.1 0.36 0.2 0.72 0.28 1.1l0.12 0.51c0.06 0.28 0.11 0.56 0.15 0.85 0.09 0.58 0.16 1.17 0.2 1.79 0.02 0.31 0.03 0.62 0.04 0.94 0.01 0.64 0 1.29-0.05 1.97-0.07 1.01-0.22 2.07-0.45 3.17-0.09 0.44-0.2 0.89-0.32 1.34-0.08 0.3-0.16 0.61-0.26 0.92-0.23 0.77-0.51 1.57-0.82 2.38-0.48 1.22-1.05 2.48-1.74 3.79-0.46 0.87-0.97 1.76-1.53 2.68-1.23 1.99-1.96 3.66-2.28 5.06-0.22 0.94-0.26 1.76-0.15 2.49 0.03 0.18 0.06 0.36 0.11 0.53 0.09 0.34 0.21 0.66 0.36 0.96s0.33 0.58 0.54 0.85c0.31 0.4 0.68 0.76 1.09 1.1 0.97 0.79 2.2 1.43 3.48 2.05-3.63 2.4-8.84-1.37-10.88-2.8-2.26-1.58-10.08-3.49-17.11-0.59 5.84-13.13 21.16-34.27 21.35-34.53 1.53-1.84 2.86-3.15 3.93-3.78 0.36 0.43 0.73 0.9 1.09 1.41 0.25 0.34 0.49 0.7 0.73 1.09z" fill="url(#a)"/><linearGradient id="k" x1="91.451" x2="98.618" y1="53.741" y2="67.741" gradientUnits="userSpaceOnUse"><stop stop-color="#E1F5FE" offset="0"/><stop stop-color="#D5F1FD" offset=".3507"/><stop stop-color="#B4E5FC" offset=".9908"/><stop stop-color="#B3E5FC" offset="1"/></linearGradient><path d="m85.53 70.14c0.32-1.4 1.05-3.06 2.28-5.06 0.56-0.91 1.07-1.8 1.53-2.68 0.69-1.31 1.27-2.57 1.74-3.79 0.32-0.81 0.59-1.61 0.82-2.38 0.09-0.31 0.18-0.62 0.26-0.92 0.12-0.45 0.23-0.9 0.32-1.34 0.23-1.1 0.37-2.16 0.45-3.17 0.05-0.68 0.06-1.33 0.05-1.97-0.01-0.32-0.02-0.63-0.04-0.94-0.04-0.62-0.11-1.21-0.2-1.79-0.05-0.29-0.1-0.57-0.15-0.85l-0.12-0.51c-0.09-0.37-0.18-0.74-0.28-1.1-0.23-0.78-0.5-1.51-0.8-2.2-0.2-0.46-0.41-0.9-0.63-1.32s-0.45-0.82-0.69-1.2-0.48-0.74-0.72-1.09c-0.36-0.51-0.73-0.98-1.09-1.41 0.48-0.29 0.92-0.48 1.29-0.48 1.79 0 3.61 2.68 5.44 6.46 4.33 7.44 10.24 19.25 18.17 23.97 0.43 0.26 0.85 0.57 1.27 0.93-1.52 3.03-4.15 6.24-8.18 4.92-7-2.3-10.45 0.11-14.01 4.71-0.4 0.51-0.83 0.89-1.29 1.19-1.28-0.62-2.5-1.26-3.48-2.05-0.41-0.34-0.78-0.7-1.09-1.1-0.21-0.27-0.39-0.55-0.54-0.85s-0.27-0.62-0.36-0.96c-0.04-0.17-0.08-0.35-0.11-0.53-0.1-0.73-0.06-1.55 0.16-2.49z" fill="url(#k)"/><g opacity=".2"><path d="m84.33 40.2c0.01 0 0.01 0 0 0 1.53-1.84 2.87-3.15 3.93-3.78 0.48-0.29 0.92-0.48 1.29-0.48 1.79 0 3.61 2.68 5.44 6.46 4.33 7.44 10.24 19.25 18.17 23.97 0.43 0.26 0.85 0.57 1.27 0.93-0.33 0.65-0.7 1.3-1.13 1.92-0.39-0.15-0.94-0.35-1.45-0.54-1.1-0.4-2.14-0.98-3.05-1.72-6.16-5-10.82-13.23-14.67-20.02-0.6-1.07-1.18-2.08-1.73-3.03l-0.06-0.1-0.05-0.1c-1.38-2.86-2.29-4.05-2.76-4.53-0.47 0.34-1.38 1.13-2.85 2.9-1.02 1.41-12.51 16.92-19.37 30.4-0.18 0.36-0.32 0.74-0.46 1.12-1.3 0.24-2.61 0.61-3.9 1.14 5.87-13.14 21.19-34.28 21.38-34.54z" fill="#424242"/></g><path d="m52.53 29.08c0.12-0.22 0.32-0.1 0.34 0.21l0.2 5.36c0.09 0.34 0.07 0.75-0.05 1.07l-2.81 7.45 0.45-4.58c0.02-0.21-0.11-0.35-0.2-0.23l-3.52 4.77c-0.17 0.2-0.36-0.17-0.74-0.77l6.33-13.28z" fill="#E1F5FE"/><path d="m87.98 43.3c0.12-0.2 0.42-0.18 0.51 0.04l1.31 3.87c0.19 0.22 0.25 0.53 0.14 0.8l-2.39 6.38-0.27-3.5c-0.01-0.16-0.21-0.22-0.32-0.1l-3.87 4.64c-0.19 0.2-0.52-0.01-1.16-0.32l6.05-11.81z" fill="#E1F5FE"/><path d="m63.25 31.19c-0.01-0.29 0.41-0.36 0.49-0.08 1.18 3.71 6.69 14.86 8.58 19.56 0.18 0.46-0.39 0.84-0.74 0.5-1.08-1.04-3.14-3.43-3.19-4.06-0.07-0.91-1.38-3.61-1.8-4.45-0.08-0.16-0.17-0.32-0.26-0.48l-1.79-3c-0.35-0.59-0.57-1.24-0.64-1.92l-0.65-6.07z" fill="#E1F5FE"/><path d="m65.35 19.86c-0.07-0.28 0.17-0.28 0.41-0.01l4.03 4.92c0.32 0.27 0.6 0.66 0.74 1.03l3.26 8.66-2.97-4.57c-0.14-0.21-0.34-0.27-0.32-0.09l0.79 6.56c0.02 0.28-0.39 0.05-1.12-0.28l-4.82-16.22z" fill="#E1F5FE"/><linearGradient id="j" x1="64" x2="64" y1="94.667" y2="123.61" gradientUnits="userSpaceOnUse"><stop stop-color="#E1F5FE" offset="0"/><stop stop-color="#DCF3FE" offset=".2332"/><stop stop-color="#CFEFFD" offset=".4916"/><stop stop-color="#B9E7FC" offset=".7613"/><stop stop-color="#B3E5FC" offset=".8222"/><stop stop-color="#B3E5FC" offset="1"/></linearGradient><path d="m124 92.57c0-1.9-2-3.16-3.7-2.32-4.06 2-7.41 5.21-9.59 9.17-0.59 0.69-1.07 1.52-1.42 2.51-0.02 0.07-0.05 0.14-0.07 0.21-0.17 0.51-0.7 0.78-1.23 0.65-0.32-0.08-0.64-0.12-0.98-0.12-1.34 0-2.57 0.63-3.57 1.7-0.71 0.76-1.91 0.79-2.73 0.15-2.15-1.66-4.81-2.64-7.69-2.64-2.2 0-4.27 0.58-6.08 1.58-0.87 0.48-1.95 0.18-2.54-0.62-3.56-4.84-9.18-7.98-15.52-7.98-4.8 0-9.18 1.8-12.58 4.77-0.38 0.34-0.94 0.34-1.33 0.01-0.9-0.78-1.95-1.23-3.08-1.23-1.1 0-2.13 0.43-3.01 1.17-0.34 0.29-0.82 0.3-1.2 0.06-2.19-1.41-4.77-2.23-7.54-2.23-3.9 0-7.42 1.62-9.99 4.23-0.39 0.4-1.02 0.37-1.43-0.02-0.95-0.92-2.1-1.47-3.34-1.47-1.36 0-2.61 0.65-3.61 1.74-0.39 0.43-1.06 0.47-1.45 0.05-3.57-3.84-8.59-6.24-14.15-6.22-1.21 0.04-2.17 1.05-2.17 2.26v26.02h120v-31.43z" fill="url(#j)"/><g opacity=".2"><path d="m121 93.26v27.74h-114v-22.23c4.23 0.2 8.16 2.04 11.13 5.24 0.74 0.8 1.79 1.26 2.88 1.26 1.12 0 2.21-0.48 2.97-1.31 0.32-0.35 0.83-0.77 1.4-0.77 0.4 0 0.83 0.21 1.25 0.62 0.76 0.74 1.77 1.15 2.82 1.15 1.07 0 2.08-0.42 2.83-1.18 2.12-2.15 4.91-3.34 7.85-3.34 2.09 0 4.13 0.61 5.91 1.75 0.66 0.42 1.42 0.65 2.19 0.65 0.94 0 1.84-0.33 2.56-0.93 0.37-0.31 0.74-0.47 1.08-0.47 0.36 0 0.74 0.17 1.12 0.5 0.73 0.63 1.66 0.98 2.62 0.98 0.97 0 1.91-0.35 2.65-1 2.97-2.6 6.74-4.03 10.6-4.03 5.17 0 9.95 2.46 13.1 6.75 0.96 1.3 2.48 2.08 4.07 2.08 0.82 0 1.64-0.21 2.35-0.61 1.44-0.8 2.99-1.2 4.62-1.2 2.13 0 4.15 0.7 5.86 2.01 0.9 0.69 2.02 1.07 3.15 1.07 1.37 0 2.69-0.57 3.61-1.55 0.32-0.34 0.82-0.75 1.38-0.75 0.09 0 0.18 0.01 0.27 0.03 0.32 0.08 0.64 0.11 0.96 0.11 1.73 0 3.26-1.1 3.81-2.73l0.06-0.18c0.21-0.6 0.5-1.12 0.87-1.55l0.2-0.24 0.15-0.27c1.8-3.24 4.44-5.85 7.68-7.6m0.42-3.27c-0.37 0-0.76 0.08-1.12 0.27-4.06 2-7.41 5.21-9.59 9.17-0.59 0.69-1.07 1.52-1.42 2.51-0.02 0.07-0.05 0.14-0.07 0.21-0.14 0.43-0.53 0.69-0.97 0.69-0.09 0-0.17-0.01-0.26-0.03-0.32-0.08-0.64-0.12-0.98-0.12-1.34 0-2.57 0.63-3.57 1.7-0.38 0.4-0.89 0.6-1.42 0.6-0.46 0-0.93-0.15-1.31-0.45-2.15-1.66-4.81-2.64-7.69-2.64-2.2 0-4.27 0.58-6.08 1.58-0.28 0.16-0.59 0.23-0.9 0.23-0.63 0-1.25-0.31-1.65-0.85-3.56-4.84-9.18-7.98-15.52-7.98-4.8 0-9.18 1.8-12.58 4.77-0.19 0.17-0.43 0.26-0.67 0.26-0.23 0-0.47-0.08-0.66-0.25-0.9-0.78-1.95-1.23-3.08-1.23-1.1 0-2.13 0.43-3.01 1.17-0.18 0.15-0.4 0.23-0.63 0.23-0.2 0-0.39-0.06-0.57-0.17-2.19-1.41-4.77-2.23-7.54-2.23-3.9 0-7.42 1.62-9.99 4.23-0.19 0.19-0.44 0.29-0.69 0.29-0.26 0-0.53-0.1-0.74-0.3-0.95-0.92-2.1-1.47-3.34-1.47-1.36 0-2.61 0.65-3.61 1.74-0.21 0.22-0.49 0.34-0.77 0.34-0.25 0-0.5-0.1-0.68-0.3-3.55-3.83-8.54-6.22-14.08-6.22h-0.08c-1.19 0.02-2.15 1.03-2.15 2.24v26.02h120v-31.43c0-1.49-1.23-2.58-2.58-2.58z" fill="#424242"/></g><path d="m50.2 106.91c3.02 0.93 4.54 3.57 4.13 6.64-0.28 2.14 3.07 2.2 3.35 0.08 0.19-1.41 0.04-2.77-0.37-4.01 4.74-0.01 8.82 2.53 10.88 6.87 0.93 1.95 3.87 0.36 2.95-1.59-2.62-5.52-8.29-8.93-14.39-8.62-0.44 0.02-0.79 0.19-1.06 0.43-1.15-1.38-2.72-2.45-4.57-3.02-2.05-0.64-2.98 2.58-0.92 3.22z" fill="#E1F5FE"/><path d="m106.05 111.43c2.1 0.71 3.11 2.58 2.77 4.72-0.24 1.49 2.1 1.59 2.34 0.12 0.16-0.98 0.08-1.93-0.18-2.81 3.31 0.08 6.12 1.93 7.48 5 0.61 1.38 2.7 0.32 2.09-1.05-1.73-3.91-5.63-6.4-9.9-6.29-0.31 0.01-0.56 0.12-0.75 0.28-0.78-0.99-1.86-1.76-3.14-2.19-1.43-0.49-2.14 1.74-0.71 2.22z" fill="#E1F5FE"/><path d="m24.03 109.78c-4.55 0.1-8.07 2.94-9.2 7.37-0.47 1.84-3.33 1.16-2.87-0.68 1.45-5.68 6.11-9.5 11.99-9.63 1.9-0.04 1.98 2.9 0.08 2.94z" fill="#E1F5FE"/></svg>
