<svg width="128" height="128" style="enable-background:new 0 0 128 128;" xmlns="http://www.w3.org/2000/svg" xmlns:xlink="http://www.w3.org/1999/xlink">
  <g style="opacity:0.2;">
    <path d="M64,26c6.94,0,12.45,1.85,16.51,5.54c4.06,3.69,6.1,8.69,6.1,14.99c0,3.62-0.93,6.85-2.79,9.68 c-1.86,2.83-4.4,5.05-7.62,6.68c3.86,1.8,6.83,4.25,8.92,7.37c2.08,3.12,3.12,6.64,3.12,10.57c0,6.5-2.2,11.66-6.6,15.47 c-4.4,3.81-10.26,5.72-17.58,5.72c-7.35,0-13.23-1.91-17.65-5.74c-4.42-3.83-6.63-8.97-6.63-15.44c0-3.96,1.05-7.52,3.15-10.67 c2.1-3.15,5.05-5.57,8.84-7.27c-3.18-1.63-5.7-3.85-7.54-6.68c-1.85-2.83-2.77-6.05-2.77-9.68c0-6.3,2.03-11.29,6.1-14.99 C51.6,27.85,57.09,26,64,26 M64.05,58.06c3.15,0,5.65-1,7.49-3c1.84-2,2.77-4.69,2.77-8.08c0-3.22-0.93-5.87-2.79-7.95 c-1.86-2.08-4.37-3.12-7.52-3.12c-3.15,0-5.64,0.99-7.47,2.97c-1.83,1.98-2.74,4.68-2.74,8.1c0,3.39,0.92,6.08,2.77,8.08 C58.4,57.06,60.9,58.06,64.05,58.06 M64.05,92.14c3.73,0,6.63-1.05,8.71-3.15c2.08-2.1,3.12-5.03,3.12-8.79 c0-3.66-1.09-6.61-3.28-8.86c-2.19-2.25-5.07-3.38-8.66-3.38c-3.59,0-6.46,1.12-8.61,3.35c-2.15,2.24-3.23,5.2-3.23,8.89 c0,3.62,1.06,6.52,3.18,8.69C57.4,91.06,60.32,92.14,64.05,92.14 M64,23c-7.65,0-13.86,2.13-18.48,6.32 c-4.7,4.27-7.08,10.06-7.08,17.21c0,4.2,1.1,8.01,3.26,11.32c1.2,1.83,2.65,3.46,4.34,4.86c-2.24,1.6-4.12,3.54-5.62,5.78 c-2.42,3.63-3.65,7.78-3.65,12.33c0,7.35,2.58,13.31,7.67,17.71c4.96,4.29,11.56,6.47,19.62,6.47c8.02,0,14.6-2.17,19.54-6.45 c5.07-4.39,7.64-10.36,7.64-17.74c0-4.51-1.22-8.63-3.63-12.23c-1.5-2.24-3.41-4.2-5.7-5.84c1.72-1.41,3.2-3.04,4.41-4.89 c2.18-3.31,3.29-7.13,3.29-11.33c0-7.15-2.38-12.94-7.08-17.21C77.91,25.13,71.68,23,64,23L64,23z M64.05,55.06 c-2.3,0-4.03-0.66-5.29-2.03c-1.33-1.44-1.97-3.41-1.97-6.04c0-2.66,0.64-4.65,1.95-6.07c1.25-1.35,2.97-2.01,5.26-2.01 c2.31,0,3.99,0.68,5.28,2.12c1.37,1.53,2.03,3.47,2.03,5.95c0,2.63-0.65,4.6-1.97,6.04C68.08,54.39,66.35,55.06,64.05,55.06 L64.05,55.06z M64.05,89.14c-2.91,0-5.08-0.77-6.62-2.35c-1.56-1.6-2.32-3.76-2.32-6.59c0-2.91,0.78-5.14,2.39-6.81 c1.58-1.64,3.68-2.43,6.45-2.43c2.77,0,4.9,0.81,6.51,2.47c1.63,1.69,2.43,3.9,2.43,6.78c0,2.96-0.74,5.15-2.25,6.68 C69.12,88.4,66.97,89.14,64.05,89.14L64.05,89.14z" style="fill:#424242;"/>
  </g>
  <path d="M86.61,46.52c0,3.62-0.93,6.85-2.79,9.68c-1.86,2.83-4.4,5.05-7.62,6.68 c3.86,1.8,6.83,4.25,8.92,7.37c2.08,3.12,3.12,6.64,3.12,10.57c0,6.5-2.2,11.66-6.6,15.47c-4.4,3.81-10.26,5.72-17.58,5.72 c-7.35,0-13.23-1.91-17.65-5.74c-4.42-3.83-6.63-8.97-6.63-15.44c0-3.96,1.05-7.52,3.15-10.67c2.1-3.15,5.05-5.57,8.84-7.27 c-3.18-1.63-5.7-3.85-7.54-6.68c-1.85-2.83-2.77-6.05-2.77-9.68c0-6.3,2.03-11.29,6.1-14.99C51.6,27.85,57.09,26,64,26 c6.94,0,12.45,1.85,16.51,5.54C84.57,35.23,86.61,40.22,86.61,46.52z M75.89,80.21c0-3.66-1.09-6.61-3.28-8.86 c-2.19-2.25-5.07-3.38-8.66-3.38c-3.59,0-6.46,1.12-8.61,3.35c-2.15,2.24-3.23,5.2-3.23,8.89c0,3.62,1.06,6.52,3.18,8.69 c2.12,2.17,5.04,3.25,8.76,3.25c3.73,0,6.63-1.05,8.71-3.15C74.85,86.9,75.89,83.97,75.89,80.21z M74.31,46.98 c0-3.22-0.93-5.87-2.79-7.95c-1.86-2.08-4.37-3.12-7.52-3.12s-5.64,0.99-7.47,2.97c-1.83,1.98-2.74,4.68-2.74,8.1 c0,3.39,0.92,6.08,2.77,8.08c1.85,2,4.34,3,7.49,3c3.15,0,5.65-1,7.49-3C73.39,53.06,74.31,50.37,74.31,46.98z" style="fill:#FAFAFA;"/>
</svg>