<?xml version="1.0" encoding="utf-8"?>
<!-- Generator: Adobe Illustrator 19.2.1, SVG Export Plug-In . SVG Version: 6.00 Build 0)  -->
<svg version="1.1" id="レイヤー_1" xmlns="http://www.w3.org/2000/svg" xmlns:xlink="http://www.w3.org/1999/xlink" x="0px"
	 y="0px" viewBox="0 0 128 128" style="enable-background:new 0 0 128 128;" xml:space="preserve">
<g>
	<path style="fill:#2F2F2F;" d="M69.66,119.47c0,0-1.62,0.82-4.56,0.04l-9.24-2.13l-0.2-61.49L76.99,28.5l13.69,4.09l4.8,9.95
		l-1.96,56L69.66,119.47z"/>
	<g>
		<path style="fill:#ED6C30;" d="M125.97,40.64c0.01-0.01,0.02,0,0.03-0.02c0,0-4.88-27.14-29.25-28.16
			c-5.08-0.21-8.94,0.61-11.87,1.8C82.13,7.2,73.72,1.96,66.33,2.62c-0.59,0.05-1.17,0.14-1.74,0.27c-3.02,0.68-7.1,2.33-9.47,4.36
			c-1.54,1.32-2.98,2.85-4.07,4.56c-0.07,0.11-0.23,0.4-0.42,0.75c-4.34-0.73-8.67-1.09-12.86-0.84
			c-5.11,0.31-11.03,1.74-15.48,4.38c-5.1,3.03-10.66,8.22-13.74,13.33C2.34,39.76,1.11,52.63,0.7,64.49
			c-0.35,9.76-0.29,19.47,0.64,29.2c0.36,3.73,0.45,7.73,1.9,11.25c2.33,5.7,8.68,8.11,13.95,10.26c7.07,2.88,14.42,4.86,21.68,7.2
			c4.78,1.55,9.64,3.45,14.75,2.95c2.03-0.2,3.98-0.96,5.34-2.57c3.08-3.63,1.68-10.28,1.55-14.65c-0.18-5.79-0.38-11.59-0.27-17.38
			c0.2-11.63,1.5-23.39,5.86-34.24c1.95-4.84,4.64-9.37,8.03-13.31c2.88-3.36,8.28-6.71,12.81-6.73c7.07-0.03,6.01,7.84,5.52,14.07
			l-9.99,3.72c0,0-10.37,3.03-13.4,8.29c-3.08,5.33-3.08,15.62-3.08,15.62S66,111.09,66,115.4c0,6.16,5.12,3.61,5.12,3.61
			l27.8-13.84c15.43-6.77,24.57-23.82,27.5-39.71C127.65,58.87,128.23,49.17,125.97,40.64z M98.91,48.14
			c0.07-5.73-0.43-11.48-3.4-16.44l0.07-0.16c0.28-1.44,1.05-2.36,2.05-2.97c4.72,2.22,8.8,4.79,10.77,9.73
			c3.29,8.24,2.67,17.77,1.96,22.84c-1.15,8.23-5.6,18.14-11.43,24.39L98.91,48.14L98.91,48.14z"/>
		<path style="fill:#FFFFFF;" d="M77.16,20.31c-2.9-1.05-5.91-2.12-8.96-3.13c1-2.13,3-4.19,5.36-4.4c3.11-0.27,4.91,2,6.2,4.57
			C78.34,18.58,77.52,19.72,77.16,20.31z"/>
		<path style="fill:#FFFFFF;" d="M122.12,65.29c-2.26,13.53-10.07,27.26-23.19,34.68v-8.71c8.73-6.94,13.65-19.01,15.25-28.92
			c1.08-6.71,0.75-14.12-0.67-20.8c-0.1-0.45-0.21-0.89-0.34-1.33c-1.31-4.55-4-8.15-7.84-10.78c-0.13-0.21-0.39-0.41-0.45-0.61
			c-0.43-1.36,2.76-0.86,4.64-0.48h0.01c0.21,0.05,0.4,0.08,0.57,0.12c1.57,0.42,3.03,1.15,4.48,1.88c2.47,1.78,3.9,3.4,4.12,3.67
			C124.3,42.55,123.72,55.73,122.12,65.29z"/>
	</g>
	<path style="fill:#FFFFFF;" d="M13.4,102.98c-0.44,0.73-1.12,1.23-2.12,1.28c-4.34,0.19-4.47-5.88-2.87-8.59
		c0.8-1.35,2.71-1.78,3.86-0.58C13.8,96.69,14.56,101.04,13.4,102.98z"/>
	<path style="fill:#FFFFFF;" d="M49.89,115.4c-0.48,0.8-1.22,1.34-2.31,1.39c-4.73,0.21-4.86-6.4-3.12-9.34
		c0.88-1.47,2.95-1.94,4.19-0.64C50.32,108.56,51.15,113.3,49.89,115.4z"/>
	<g>
		<path style="fill:#FFFFFF;" d="M28.68,26.31l-6.94-2.01c-1.72,1.38-3.32,2.93-4.73,4.52l7.06,2.04
			C25.72,28.8,27.34,27.32,28.68,26.31z"/>
		<path style="fill:#FFFFFF;" d="M20.68,36.12L13.36,34c-3.34,6.13-4.88,13.34-5.63,20.79l7.88,2.28
			C16.05,47.8,18.12,41.01,20.68,36.12z"/>
	</g>
</g>
</svg>
