<?xml version="1.0" encoding="utf-8"?>
<!-- Generator: Adobe Illustrator 19.2.1, SVG Export Plug-In . SVG Version: 6.00 Build 0)  -->
<svg version="1.1" id="レイヤー_1" xmlns="http://www.w3.org/2000/svg" xmlns:xlink="http://www.w3.org/1999/xlink" x="0px"
	 y="0px" viewBox="0 0 128 128" style="enable-background:new 0 0 128 128;" xml:space="preserve">
<g>
	<path style="fill:#FCC21B;" d="M124.52,83.67c0.09-0.97,0.11-1.96,0.05-2.99c-0.25-4.98-1.74-9.81-2.97-14.6
		c-1.53-5.95-2.18-12.05-3.6-18.02c-0.72-3.01-2.32-6.24-1.26-9.44c1.16-3.47,3.75-6.05,4.54-9.79c1.53-7.21-0.86-15.14-7.38-19.12
		c-4.5-2.73-10.3-3.6-15.27-1.86c-2.42,0.85-4.79,1.88-6.95,3.27c-2.05,1.32-3.62,1.04-5.97,0.77c-1.78-0.21-3.46-0.96-5.16-1.45
		c-4.16-1.2-8.44-2-12.75-2.37c-8.02-0.7-16.15,0.04-23.77,2.33c-1.83,0.55-3.13,1.19-5.01,0.41c-1.39-0.58-2.49-1.73-3.74-2.54
		c-2.14-1.36-4.5-2.37-6.88-3.2c-4.96-1.75-10.78-0.88-15.27,1.86C6.6,10.9,4.22,18.83,5.74,26.04c0.5,2.39,1.47,4.71,2.8,6.75
		c3.05,4.66,2.06,6.17,0.54,11.49c-1.06,3.71-1.79,7.49-2.58,11.25c-0.63,3.12-0.99,6.23-1.54,9.33c-0.7,3.93-1.66,7.59-1.58,11.63
		c0.16,8.06,3.54,16.43,9.36,21.99c3.35,3.2,7.54,5.39,11.89,6.92c5.36,1.89,10.98,2.55,14.18,7.86c1.38,2.29,2.92,4.09,5.19,5.52
		c13.12,8.31,33.68,6.46,43.17-6.61c4.92-6.76,15.29-5.98,22.11-9.62C116.71,98.56,123.64,92.61,124.52,83.67z"/>
	<path style="fill:#FCC21B;" d="M124.62,83.68c0.32-2.29,0.19-4.7-0.46-7.23c-0.71-2.74-2.43-0.15-3.34,1.12
		c-1.28,1.8-2.72,3.65-4.54,4.98c-1.84,1.36-3.59,1.43-5.8,1.43c-4.08,0-7.42-2.98-7.51-7.25c-0.05-2.59,0.42-5.06,1.27-7.51
		c0.61-1.76,1.53-3.63,1.82-5.44c0.25-1.54-0.16-3.11,0.06-4.64c0.16-1.13,0.5-2.02,0.31-3.22c-0.34-2.25-1.78-4.35-4.15-4.72
		c-4.36-0.69-7.73,1.71-8.87,5.81c-1.38,5.06-5.72,6.31-10.37,6.53c-1.73,0.08-3.23,0.36-5.01,0.02c-3.24-0.63-6.2-2.67-5.29-6.36
		c0.2-0.87,1-1.76,1.06-2.64c0.2-2.52-4.39-1.63-5.99-1.63c-1.58-0.01-2.93,0.42-4.44,0.6c-2.62,0.32-5.65-0.18-8.23-0.68
		c-0.79-0.16-1.52-0.6-2.3-0.56c-0.47,2.75,0.98,6.26-1.19,8.52c-5.12,5.36-12.94,0.38-15.98-3.98c-1.56-2.23-3.19-4.47-5.74-5.6
		c-4.12-1.82-9.94,0.41-9.9,5.46c0.02,3.62,1.34,7.41,2.23,10.87c2.1,8.06,7.91,17.68-5.58,17.45c-1.74-0.03-3.57-0.74-5.06-1.61
		c-1.54-0.89-3.17-2.97-5.15-2.5c-1.16,0.28-0.94,1.62-1.06,2.79c-0.08,0.8-0.14,1.59-0.05,2.39c0.57,4.76,4.03,9.2,7.37,12.39
		c3.35,3.2,7.54,5.39,11.89,6.92c5.36,1.89,10.98,2.55,14.18,7.86c1.38,2.29,2.92,4.09,5.19,5.52c13.12,8.31,33.68,6.46,43.17-6.61
		c4.92-6.76,15.29-5.98,22.11-9.62C116.82,98.51,123.52,91.94,124.62,83.68z"/>
	<g>
		<g>
			<path style="fill:#2F2F2F;" d="M41.33,48.57c-0.16-0.23-0.32-0.47-0.47-0.71c-3.14-5.21,4.25-3.67,6.95-3
				c4.55,1.11,9.11,2.31,13.78,2.75c4.92,0.47,9.7-1.2,14.49-1.99c2.29-0.38,4.78-0.67,7.07-0.21c2.94,0.58-0.26,4.71-1.19,5.72
				c-2.35,2.55-5.5,3.96-8.53,5.49c-4.76,2.4-9.39,3.41-14.65,2.22c-2.55-0.58-4.99-1.61-7.39-2.68
				C47.59,54.47,43.74,52.07,41.33,48.57z"/>
			<g>
				<g>
					<g>
						<path style="fill:#2F2F2F;" d="M44.96,36.26c-1,3.48-4.61,5.68-8.03,4.95c-3.43-0.76-5.42-4.19-4.42-7.67
							c1.01-3.48,4.61-5.7,8.05-4.94C43.99,29.34,45.96,32.79,44.96,36.26z"/>
					</g>
				</g>
			</g>
			<g>
				<g>
					<g>
						<path style="fill:#2F2F2F;" d="M83.49,36.97c1.44,3.37,5.29,5.2,8.61,4.14c3.32-1.09,4.85-4.68,3.42-8.05
							c-1.44-3.35-5.31-5.22-8.62-4.14C83.57,30,82.05,33.61,83.49,36.97z"/>
					</g>
				</g>
			</g>
			<g>
				<path style="fill:#ED6C30;" d="M34.85,72.75c-0.04,0.02-0.06,0.04-0.11,0.06c0.95,1.25,2.82,1.44,3.97,2.51
					c3.64,3.4,2.03,9.3,0.81,13.05c-0.8,2.48-1.11,5.17-0.84,7.81c0.63,6.37,5.93,9.27,11.42,10.95c7.02,2.14,14.21,2.68,21.4,0.99
					c3-0.7,5.94-1.38,8.64-2.81c2.44-1.29,4.13-2.57,5.28-5.1c3.24-7.11-3.7-15.3-0.5-22.24c0.54-1.18,1.71-1.85,2.71-2.59
					c0.07-0.05,2.48-2.13,1.57-2.25c-1.08-0.14-2.25-0.05-3.36-0.05c-1.53,0-2.88-0.33-4.38-0.48c-3.55-0.35-7.06-0.97-10.58-1.28
					c-1.35-0.12-2.45-0.33-3.56-1.18c-1.21-0.92-3.13-4.04-4.85-2.61c-1.49,1.26-3.38,2.27-5.25,3.12
					c-1.67,0.76-3.22,1.21-5.02,1.55c-1.06,0.2-2.24,0.64-3.35,0.48c-0.9-0.14-1.55-0.6-2.48-0.62c-2.93-0.05-5.9,0.34-8.79,0.48
					C36.72,72.56,35.66,72.33,34.85,72.75z"/>
			</g>
			<path style="fill:#ED6C30;" d="M51.56,103.99c10.79,3.23,31.96,3.9,28.45-9.54c-0.66-2.52-2.38-5.73-4.34-7.65
				c-6.58-6.43-20.66-6.33-26.75,0.79c-2.67,3.12-4.61,7.34-3.74,11.33c0.36,1.66,1,2.81,2.65,3.65
				C48.82,103.06,50.09,103.55,51.56,103.99z"/>
			<path style="fill:#2F2F2F;" d="M63.16,73.72c0.25,0.25,0.54,0.5,0.84,0.73c2.24,1.73,4.51,2.13,6.41,2.3
				c1.76,0.15,3.52,0.39,5.39,0.65c1.11,0.15,2.23,0.3,3.35,0.43c-1.23,4.46-0.18,8.83,0.71,12.44c0.76,3.12,1.43,5.82,0.58,7.67
				c-0.45,0.98-0.94,1.51-2.87,2.52c-2.04,1.09-4.45,1.65-7.32,2.32c-2.4,0.56-4.89,0.84-7.39,0.84c-3.59,0-7.35-0.59-11.15-1.75
				c-6.32-1.93-7.38-4.24-7.57-6.26c-0.19-1.84,0.02-3.76,0.59-5.56c0.79-2.41,2.47-7.58,1.32-12.53c0.46,0.16,1.14,0.4,2.03,0.53
				c0.43,0.06,0.87,0.1,1.33,0.1c1.29,0,2.42-0.27,3.24-0.47c0.21-0.05,0.41-0.1,0.61-0.14c2.35-0.44,4.28-1.04,6.28-1.95
				C60.89,74.98,62.09,74.36,63.16,73.72 M63.45,67.13c-0.32,0-0.64,0.11-0.95,0.38c-1.49,1.26-3.38,2.27-5.25,3.12
				c-1.67,0.76-3.22,1.21-5.02,1.55c-0.9,0.17-1.89,0.51-2.83,0.51c-0.18,0-0.34-0.01-0.51-0.03c-0.9-0.14-1.55-0.6-2.48-0.62
				c-0.19-0.01-0.37-0.01-0.55-0.01c-2.74,0-5.53,0.35-8.23,0.48c-0.09,0.01-0.17,0.01-0.26,0.01c-0.38,0-0.76-0.03-1.13-0.03
				c-0.49,0-0.97,0.05-1.38,0.26c-0.04,0.02-0.06,0.04-0.11,0.06c0.95,1.25,2.82,1.44,3.97,2.51c3.64,3.4,2.03,9.3,0.81,13.05
				c-0.8,2.48-1.11,5.17-0.84,7.81c0.63,6.37,5.93,9.27,11.42,10.95c4.21,1.28,8.47,1.98,12.76,1.98c2.88,0,5.77-0.32,8.65-0.99
				c3-0.7,5.94-1.38,8.64-2.81c2.44-1.29,4.13-2.57,5.28-5.1c3.24-7.11-3.7-15.3-0.5-22.24c0.54-1.18,1.71-1.85,2.71-2.59
				c0.07-0.05,2.48-2.13,1.57-2.25c-0.47-0.06-0.96-0.08-1.45-0.08c-0.61,0-1.22,0.03-1.82,0.03h-0.1c-1.53,0-2.88-0.33-4.38-0.48
				c-3.55-0.35-7.06-0.97-10.58-1.28c-1.35-0.12-2.45-0.33-3.56-1.18C66.35,69.36,64.88,67.13,63.45,67.13L63.45,67.13z"/>
			<path style="fill:#2F2F2F;" d="M107.2,33.53c-0.37-0.29-0.79-0.43-1.25-0.33c-0.86,0.19-0.4,1.96-0.25,2.49
				c0.33,1.2,0.53,2.46,0.19,3.68c-0.85,2.96-4.91,1.8-7.14,2.09c-0.66,3.35,6.19,3.77,8.4,3.29
				C111.58,43.81,109.79,35.53,107.2,33.53z"/>
			<path style="fill:#2F2F2F;" d="M112.07,41.8c0.65,2.37,1.15,4.7,0.55,7.31c-0.34,1.5-0.99,5.2-2.99,5.29
				c-0.39,0.02-0.92-0.22-1.27-0.35c-0.83-0.31-1.39-1-2.02-1.58c-0.7-0.64-1.26-1.4-2.04-1.9c-0.39-0.25-0.77-0.48-1.27-0.36
				c-1.84,0.45-0.29,1.9,0.24,2.79c1.56,2.65,1.88,6.86,0.51,9.64c-0.4,0.81-1.55,2.22-1.4,3.15c0.31,1.9,2.81-0.24,3.55-0.85
				c1.99-1.64,3.36-3.96,5.42-5.51c1.36-1.02,3.01-1.41,4.24-2.7c1.11-1.15,1.72-2.6,2.11-4.13c0.8-3.12,0.61-6.59-0.62-9.58
				c-0.7-1.68-2.79-7.31-5.19-7.19c-1.36,0.07-1,1.4-0.82,2.21C111.35,39.34,111.73,40.58,112.07,41.8z"/>
			<path style="fill:#2F2F2F;" d="M120.63,70.19c1.3-2.58,1.82-5.48,1.18-8.64c-0.43-2.14-0.39-4.68-1.79-6.48
				c-2.04-2.64-2.34,3.12-2.62,3.99c-0.77,2.48-2.03,4.65-3.34,6.86c-2.08,3.53-5.3,5.99-8.43,8.48c-2.76,2.21-6.26,3.91-9.54,5.2
				c-1,0.39-3.68,0.85-4.06,2.02c-1,3,6.33,1.8,7.42,1.66C106.89,82.28,116.92,77.54,120.63,70.19z"/>
			<path style="fill:#2F2F2F;" d="M120.87,70.11c-0.21,0.86-0.31,1.82-0.44,2.3c-2.25,8.65-11.88,14.19-19.84,16.66
				c-1.74,0.54-3.56,0.8-5.28,1.43c-0.84,0.31-1.23,0.45-1.2,1.39c0.01,0.49,0.07,0.84,0.4,1.21c1.14,1.33,3.96,1.04,5.52,0.97
				c3.29-0.14,6.57-1.09,9.61-2.36c5.55-2.32,10.5-5.58,13.68-10.67c0.54-0.86,1.34-1.79,1.49-2.81c0.14-0.97-0.02-2.09-0.02-3.07
				c0-0.24-0.43-0.6-0.52-0.83c-0.17-0.41-0.13-0.58-0.19-1.02c-0.08-0.69-0.11-1.37-0.25-2.05c-0.17-0.85-0.66-3.22-1.98-2.86
				C121.37,68.55,121.07,69.28,120.87,70.11z"/>
			<path style="fill:#2F2F2F;" d="M10.53,49.39c-0.27,6.95,0.14,14.48,4.39,20.29c2.26,3.06,5.17,5.07,8.58,6.69
				c1.85,0.88,9.96,3.16,7.06,6.65c-0.8,0.97-2.89,0.63-3.95,0.63c-4.04-0.01-7.79-1.29-11.29-3.18c-3.16-1.71-6.1-4.54-8-7.57
				c-3.1-4.94-1.02-13.61-0.35-19.02c0.34-2.82,1.4-5.98,3.74-7.75C10.64,47.19,10.57,48.29,10.53,49.39z"/>
			<path style="fill:#2F2F2F;" d="M14.51,36.46c0.58-0.7,1.28-1.18,2.06-0.89c0.66,0.24-0.38,4.15-0.61,4.64
				c-0.75,1.63-0.88,2.65-0.88,4.46c0,1.55,0.08,3.04,0.84,4.42c0.66,1.21,1.28,2.56,2.54,3.25c0.91,0.49,0.97,0.31,1.68-0.26
				c0.91-0.75,1.5-1.44,2.62-1.78c1.92-0.57,1.77,0.95,0.71,2.04c-1.46,1.51-1.93,3.28-2.01,5.33c-0.06,2.34,0.3,5.01,1.11,7.21
				c0.45,1.2,1.46,1.97,1.18,3.34c-2.2,0.62-4.92-3.02-5.79-4.57c-0.65-1.16-0.95-2.34-1.4-3.52c-0.41-1.1-1.07-1.22-1.93-1.91
				c-1.91-1.52-3.19-3.48-4.21-5.55c-0.73-1.48-0.94-3.29-0.85-4.92c0.1-1.67,0.88-2.94,1.36-4.46c0.48-1.54,1.26-3.12,2.11-4.49
				C13.37,38.27,13.88,37.24,14.51,36.46z"/>
			<path style="fill:#2F2F2F;" d="M28.25,14.07c-0.64-0.37-1.31-0.66-1.9-0.85c-3.44-1.11-8.29-0.7-10.59,2.42
				c-1.91,2.6-2.3,6.1-1.57,9.2c0.45,1.87,2.72,7.63,5.52,6.62c0.8-0.29,1.56-1.35,1.97-2.06c0.58-0.98,1.17-1.8,1.84-2.74
				c0.69-0.94,1.27-2.02,2.04-2.88c1.42-1.62,4.73-3.04,5.46-5.11C31.7,16.75,30.05,15.1,28.25,14.07z"/>
			<path style="fill:#2F2F2F;" d="M98.84,16.32c0.63-0.36,1.29-0.65,1.88-0.84c3.38-1.13,8.24-0.92,10.64,1.87
				c2.01,2.32,2.54,5.51,1.91,8.36c-0.38,1.73-2.43,7.07-5.28,6.25c-0.81-0.24-1.6-1.19-2.05-1.82c-0.62-0.88-1.22-1.6-1.94-2.44
				c-0.71-0.85-1.35-1.81-2.14-2.58c-1.48-1.44-4.83-2.62-5.63-4.5C95.5,18.88,97.08,17.32,98.84,16.32z"/>
			<path style="fill:#2F2F2F;" d="M24.38,31.34c-0.11,0.03-0.22,0.06-0.34,0.1c-3.02,1.03-5.18,5.23-4.15,8.29
				c1.04,3.1,6.29,5.22,9.27,4.5c0.7-0.18,1.77-1.45,1.44-2.24c-0.33-0.78-2.46-1.28-3.19-1.67c-1.39-0.77-2.72-1.2-2.88-2.99
				C24.39,36.03,27.37,30.54,24.38,31.34z"/>
			<path style="fill:#2F2F2F;" d="M2.84,72.45c0.28-0.68,0.69-1.3,1.37-1.45c0.97-0.21,1.9,0.72,2.34,1.48
				c0.71,1.22,0.47,2.75,0.8,4.1c0.37,1.56,0.95,3.2,1.66,4.63c2.22,4.45,6.05,7.13,10.52,9.03c1.98,0.84,13.43,4.53,6.14,6.27
				c-5.58,1.34-11.52-0.69-16.36-3.41c-2.4-1.35-4.4-3.28-5.78-5.68c-2.34-4.07-2.24-8.95-1.16-13.39
				C2.49,73.58,2.63,72.99,2.84,72.45z"/>
		</g>
		<path style="fill:#2F2F2F;" d="M68.12,18.3c0.21-1.69,0.19-3.41,0.47-5.1c0.33-2,2.97-1.49,4.3-1.1c1.37,0.39,2.33,0.28,1.58-1.33
			C73.75,9.2,72.58,8.9,71,9.12c-2.37,0.34-4.73-0.15-7.11-0.21c-2.19-0.05-4.39-0.04-6.59,0.07c-1.72,0.09-3.82-0.01-5.06,1.49
			c-1.39,1.71,2.69,0.88,3.58,1.33c1.83,0.93,1.82,3.65,1.85,5.41c0.03,2.75,0.07,5.5,0.55,8.21c0.39,2.2,1.27,7.22,4.43,6.89
			c0.16-0.02,0.32-0.05,0.47-0.1c3.58-1,4.1-6.69,4.43-9.68C67.66,21.59,67.92,20.03,68.12,18.3z"/>
		<path style="fill:#2F2F2F;" d="M50.27,16.17c-1.9,0.6-4.59,1.2-5.95,2.72c-2.05,2.3,2.18,2.35,3.56,2.24
			c4.34-0.35,8.4-1.71,12.85-1.77c6.7-0.09,12.89,1.33,19.45,2.19c1.45,0.2,4.58-0.34,2.95-2.38c-1.85-2.33-6.18-2.91-8.92-3.66
			c-1.16-0.31-2.39-0.45-3.57-0.7C64.27,13.49,56.49,14.22,50.27,16.17z"/>
		<path style="fill:#2F2F2F;" d="M50.56,24.06c-0.8,0.25-2,0.73-2.13,1.69c-0.16,1.16,1.41,1.9,2.34,2.07
			c1.2,0.21,2.57-0.28,3.71-0.49c1.63-0.29,3.29-0.54,4.96-0.56c5.68-0.08,10.92,1.13,16.48,1.86c1.25,0.16,3.89-0.29,2.51-2.02
			c-1.56-1.97-5.23-2.47-7.57-3.11c-0.99-0.27-2.03-0.38-3.03-0.59C62.45,21.79,55.85,22.41,50.56,24.06z"/>
	</g>
	<path style="fill:#2F2F2F;" d="M62.16,126.55L62.16,126.55c-7.1,0-14.07-1.94-19.63-5.46c-2.45-1.56-4.32-3.53-6.06-6.42
		c-2.03-3.36-5.48-4.41-9.46-5.63c-1.09-0.33-2.19-0.67-3.28-1.05c-5.27-1.87-9.6-4.4-12.87-7.53C4.64,94.51,0.82,85.57,0.66,76.54
		c-0.07-3.44,0.55-6.6,1.14-9.65c0.15-0.83,0.32-1.66,0.46-2.51c0.22-1.25,0.42-2.5,0.61-3.75c0.28-1.88,0.57-3.76,0.96-5.65
		l0.25-1.22c0.68-3.36,1.4-6.83,2.37-10.23l0.47-1.61c1.17-3.93,1.35-4.53-0.68-7.63c-1.52-2.33-2.63-4.99-3.19-7.68
		C1.18,17.73,4.66,8.88,11.71,4.59c5.26-3.21,12.1-4.04,17.6-2.1c3,1.05,5.38,2.16,7.43,3.48C37.3,6.31,37.8,6.7,38.31,7.1
		c0.63,0.49,1.22,0.96,1.78,1.18c0.31,0.13,0.52,0.15,0.66,0.15c0.43,0,0.99-0.18,1.7-0.41l0.8-0.25
		c7.79-2.34,16.28-3.17,24.78-2.43c4.46,0.38,8.93,1.21,13.28,2.47c0.59,0.17,1.18,0.36,1.78,0.57c1.05,0.35,2.04,0.68,2.96,0.79
		l0.39,0.05c1.45,0.17,2.38,0.5,3.78-0.4c2.09-1.34,4.54-2.51,7.52-3.55c5.51-1.94,12.34-1.1,17.6,2.1
		c7.05,4.3,10.52,13.15,8.64,22.03c-0.54,2.52-1.72,4.55-2.77,6.34c-0.74,1.27-1.44,2.48-1.87,3.74c-0.53,1.63,0.05,3.57,0.68,5.63
		c0.23,0.79,0.47,1.56,0.65,2.32c0.69,2.87,1.19,5.77,1.69,8.58c0.54,3.11,1.12,6.33,1.9,9.4l0.61,2.29
		c1.09,4.12,2.22,8.38,2.45,12.85c0.05,1.11,0.03,2.25-0.08,3.38c-0.82,8.48-6.43,15.55-16.67,21.03c-2.86,1.52-6.13,2.33-9.29,3.1
		c-4.83,1.18-9.39,2.3-11.89,5.73C83.57,121.77,73.4,126.55,62.16,126.55z M22.94,6.9c-2.91,0-5.88,0.84-8.38,2.36
		C8.7,12.83,7.26,19.97,8.42,25.48c0.43,2.04,1.27,4.05,2.42,5.82c3.26,5,2.74,7.48,1.34,12.19l-0.46,1.55
		c-0.92,3.21-1.61,6.57-2.27,9.83l-0.26,1.22c-0.36,1.8-0.64,3.59-0.91,5.37c-0.19,1.3-0.4,2.59-0.62,3.88
		c-0.16,0.88-0.33,1.74-0.49,2.6c-0.57,2.9-1.1,5.64-1.04,8.5c0.14,7.49,3.4,15.18,8.51,20.06c2.71,2.59,6.38,4.72,10.91,6.32
		c1.02,0.36,2.04,0.67,3.05,0.98c4.43,1.35,9.45,2.88,12.57,8.04c1.29,2.15,2.58,3.53,4.3,4.62c4.69,2.97,10.61,4.61,16.69,4.61
		c9.49,0,18.02-3.94,22.79-10.52c3.68-5.05,9.71-6.52,15.02-7.82c2.97-0.73,5.77-1.41,8.02-2.61c8.53-4.56,13.16-10.19,13.8-16.71
		c0.08-0.86,0.1-1.73,0.05-2.59c-0.2-3.89-1.21-7.69-2.28-11.72l-0.62-2.34c-0.83-3.27-1.42-6.59-1.99-9.81
		c-0.48-2.73-0.98-5.55-1.62-8.26c-0.16-0.66-0.36-1.33-0.57-2.01c-0.76-2.52-1.71-5.66-0.62-8.93c0.6-1.8,1.48-3.31,2.33-4.76
		c0.91-1.58,1.79-3.07,2.13-4.72c1.16-5.5-0.29-12.65-6.13-16.22c-3.88-2.36-8.94-3.01-12.94-1.61c-2.57,0.9-4.65,1.88-6.38,2.99
		c-2.18,1.41-4.35,1.59-7.37,1.24l-0.38-0.05c-1.49-0.17-2.86-0.64-4.07-1.04c-0.51-0.17-1.02-0.35-1.53-0.49
		c-4.02-1.16-8.14-1.92-12.24-2.28c-7.82-0.67-15.62,0.08-22.74,2.22l-0.71,0.22c-1.79,0.57-3.97,1-6.13,0.1
		c-1.23-0.51-2.19-1.26-3.04-1.92c-0.38-0.29-0.75-0.59-1.15-0.84c-1.68-1.08-3.69-2.01-6.3-2.92C26.08,7.16,24.54,6.9,22.94,6.9z"
		/>
	<path style="fill:#2F2F2F;" d="M58.38,57.73c0.04,0.99,0.2,2.12,0.19,2.61c-0.04,0.95-0.02,2-0.33,2.9
		c-3.12,8.96-21.44,4.94-25.77-0.85c-0.75-1-1.33-1.63-1.62-2.85c-0.25-1.09-0.5-2.18-0.68-3.29c-0.2-1.18-1.13-1.57-2.32-1.02
		c-2.33,1.09-2.7,4.46-2.54,6.7c0.74,10.66,12.15,14.44,21.26,14.65c2.24,0.05,4.64,0.15,6.81-0.47c2.93-0.82,5.55-3.42,8.55-3.83
		c2.7-0.37,4.7,1.59,7.1,2.48c9.12,3.34,22.45,4.36,29.16-4.17c1.57-2,2.18-4.75,2.55-7.17c0.34-2.27,0.5-4.48-1.52-6.14
		c-2.16-1.8-2.6,2.22-2.86,3.49c-0.61,2.94-1.48,4.78-4.3,6.28c-4.8,2.56-10.23,2.19-15.42,1.28c-3.29-0.59-8.92-0.58-9.42-4.86
		c-0.14-1.11-0.32-2.35-0.19-3.47c0.09-0.7,0.39-1.32,0.44-2.02c0.08-1.36,0.01-2.21-1.39-2.28c-1.07-0.05-2.15,0.04-3.22,0.04
		c-0.9,0-3.64-0.45-4.24,0.31C58.38,56.32,58.35,56.99,58.38,57.73z"/>
</g>
</svg>
