<?xml version="1.0" encoding="utf-8"?>
<!-- Generator: Adobe Illustrator 16.0.0, SVG Export Plug-In . SVG Version: 6.00 Build 0)  -->
<!DOCTYPE svg PUBLIC "-//W3C//DTD SVG 1.1//EN" "http://www.w3.org/Graphics/SVG/1.1/DTD/svg11.dtd">
<svg version="1.1" id="レイヤー_1" xmlns="http://www.w3.org/2000/svg" xmlns:xlink="http://www.w3.org/1999/xlink" x="0px"
	 y="0px" width="128px" height="128px" viewBox="0 0 128 128" enable-background="new 0 0 128 128" xml:space="preserve">
<g>
	<path fill="#FCC21B" d="M49.65,70.4c-0.7,2.45-1.99,4.74-3.72,6.54c-1,1.05-1.85,1.94-1.33,3.4c1.75,4.95,4.72,8.62,7.56,12.91
		c1.33,2,3.31,4.35,3.62,6.79c0.46,3.55-3.15,4.83-6.05,6c-1.41,0.58-2.97,0.78-4.45,1.12c-1.15,0.26-2.18-0.04-3.32,0.18
		c-2.23,0.43-5.22,1.6-7.23-0.11c-8.65-7.35-1.81-19.96-4.2-29.07c-0.63-2.4-2.52-3.57-3.69-5.6c-1.97-3.43-1.97-8.04-0.4-11.66
		c2.48-5.69,9.13-8.66,14.96-6.65c2.04,0.7,3.86,1.61,5.33,3.2c1.14,1.23,2.08,2.66,2.67,4.23C50.47,64.47,50.47,67.54,49.65,70.4z"
		/>
	<path fill="#FCC21B" d="M79.13,71.36c0.08,0.44,0.18,0.88,0.31,1.3c0.65,2.15,1.85,4.31,3.74,5.6c0.97,0.67,1.86,1.26,2.09,2.49
		c0.28,1.45-0.25,2.93-0.78,4.26c-1.79,4.54-4.34,8.73-6.26,13.2c-0.04,0.1-0.57,1.19-0.42,1.3c1,0.72,2.98,0.62,4.15,0.62
		c2.32-0.01,4.64,0,6.96,0c1.79,0,3.59,0,5.38,0c1.77,0,3.5,0.18,5.26,0.32c0.51,0.05,0.93-0.01,1.33-0.36
		c0.98-0.86,0.18-2.67,0.05-3.77c-0.13-1.12-0.22-2.24-0.32-3.37c-0.23-2.59-0.52-5.23-1.57-7.63c-0.31-0.69-0.65-1.36-1.09-1.98
		c-0.33-0.45-0.73-0.83-0.99-1.33c-0.83-1.6,1.24-1.1,2.13-1.38c0.4-0.12,0.46-0.15,0.67-0.53c0.4-0.72,0.75-0.83,1.56-0.83
		c0.48,0,0.78,0.01,1.2-0.26c0.31-0.21,0.62-0.43,0.66-0.8c0.04-0.33-0.17-0.46,0.09-0.75c0.52-0.58,3.96-0.19,2.86-1.87
		c-1.77-2.69-1.88-6.07-2.41-9.13c-0.53-3.1-1.92-5.99-4.46-7.93c-1.34-1.03-3.12-1.95-4.77-2.34c-1.75-0.42-4.09-0.27-5.86-0.01
		c-1.64,0.25-3.17,0.87-4.47,1.89c-2.46,1.92-4.3,4.95-4.9,8.01C78.94,67.73,78.83,69.71,79.13,71.36z"/>
	<path fill="#FCC21B" d="M43.04,75.46c-0.98-0.22-1.98-0.09-3,0.69c-2.38,1.85-2.01,5.91,0.19,7.8c0.88,0.75,2.15,1.15,3.16,1.69
		c3.37,1.8,7.37,2.3,11.14,2.11c4.39-0.22,5.63-1.6,8.98-3.8c1.1-0.73,2.62-0.38,3.9-0.42c1.26-0.03,2.1-0.33,2.88-1.38
		c2.95-3.95-1.17-9.61-5.85-7.63c-0.89,0.38-1.81,1.24-2.4,1.99c-3.01,3.83-9.09,3.91-13.21,2.14
		C47.04,77.9,45.09,75.92,43.04,75.46z"/>
	<path fill="#ED6C30" d="M29.24,120.85h83.5c0.35-0.29,0.67-0.61,1.02-0.9c6.73-5.7,8.08-25.05,7.04-26.26
		c-0.7-0.81-1.75-1.13-2.77-1.25c-0.33-0.04-112.32-0.63-115.68,1.16c-2.52,1.35-0.91,4.65,0.07,6.58c1.53,3.01,3.75,6.05,5.87,8.65
		C16.65,119.05,28.41,120.4,29.24,120.85z"/>
	<path fill="#FCC21B" d="M52.47,116.11c-0.25,0-0.52-0.05-0.77-0.14c-1.1-0.42-1.65-1.66-1.22-2.76L66.41,72
		c0.43-1.1,1.67-1.65,2.76-1.22c1.1,0.42,1.65,1.66,1.22,2.76l-15.93,41.2C54.13,115.59,53.33,116.11,52.47,116.11z"/>
	<path fill="#FCC21B" d="M42.54,119.98c0.48-1.75,1.35-3.68,2.21-5.27c0.69-1.31,1.47-2.55,2.53-3.6c0.97-0.97,2.08-1.74,3.25-2.4
		c1.33-0.74,2.94-1.62,4.36-1.96c1.87,2.38,3,5.13,3.6,7.89c0.32,1.5,0.53,3.22,0.33,4.8c-0.09,0.75-0.41,1.61-0.6,2.34
		c-0.17,0.66-0.29,1.89-0.74,2.46L42.54,119.98z"/>
	<path fill="#40C0E7" d="M14.89,120.42c0.04-0.05,0.08-0.1,0.12-0.15c2.77-3.04,7.32-5.56,11.28-6.43c4.58-1,9.56-1.12,14.03,0.44
		c4.98,1.73,9.81,4.6,15.15,5.08c5.61,0.5,10-2.8,15.18-4.34c5.59-1.66,11.12,0.57,16.58,1.57c6.1,1.11,10.53-0.6,16.36-2.01
		c4.62-1.12,9.72-0.32,14.05,1.5c1.63,0.68,10.54,4.08,9.23,6.8c-0.71,1.47-6.84,0.94-8.34,1.07c-32.34,2.86-64.86,2.93-97.28,1.51
		c-2.05-0.09-6.81,0.49-8.29-1.22C11.93,123.06,14.24,121.25,14.89,120.42z"/>
</g>
</svg>
