<?xml version="1.0" encoding="utf-8"?>
<!-- Generator: Adobe Illustrator 19.2.1, SVG Export Plug-In . SVG Version: 6.00 Build 0)  -->
<svg version="1.1" id="people" xmlns="http://www.w3.org/2000/svg" xmlns:xlink="http://www.w3.org/1999/xlink" x="0px" y="0px"
	 viewBox="0 0 128 128" style="enable-background:new 0 0 128 128;" xml:space="preserve">
<g>
	<path id="XMLID_14_" style="fill:#6D4C41;" d="M26.84,113.53c-6.51-22.34-6.51-68.14-6.51-68.14l84-0.33c0,0,0,41.49-4.88,68.19
		L26.84,113.53z"/>
	<path id="XMLID_11_" style="fill:#424242;" d="M18.76,118.09v9.89h87.14v-9.89c0-15.17-21.39-22.87-43.24-22.84
		C40.94,95.28,18.76,102.03,18.76,118.09z"/>
	<g id="XMLID_12_">
		<ellipse id="XMLID_13_" style="fill:#6D4C41;" cx="62.33" cy="46.11" rx="42" ry="39.5"/>
	</g>
	<path id="XMLID_10_" style="fill:#E49500;" d="M62.33,90.25h-9.08v9.59c0,4.34,3.7,7.86,8.26,7.86h1.65c4.56,0,8.26-3.52,8.26-7.86
		v-9.59H62.33z"/>
	<g>
		<path id="XMLID_9_" style="fill:#FBC11B;" d="M62.33,13.57c-24.35,0-30.72,18.87-30.72,45.39c0,26.51,18.89,34.6,30.72,34.6
			c11.83,0,30.72-8.09,30.72-34.6C93.05,32.45,86.67,13.57,62.33,13.57z"/>
		<path id="XMLID_8_" style="fill:#444444;" d="M71.66,78.11c-1.29,0-9.23,0-9.23,0s-7.94,0-9.23,0c-1.06,0-1.51,0.71-0.81,1.78
			c0.98,1.49,4.61,4.36,10.04,4.36s9.06-2.87,10.04-4.36C73.17,78.82,72.72,78.11,71.66,78.11z"/>
		<g id="XMLID_5_">
			<path id="XMLID_7_" style="fill:#444444;" d="M51.93,60.73c0,2.84-1.9,5.15-4.26,5.15c-2.35,0-4.27-2.3-4.27-5.15
				c0-2.85,1.91-5.15,4.27-5.15C50.03,55.57,51.93,57.88,51.93,60.73"/>
			<path id="XMLID_6_" style="fill:#444444;" d="M72.93,60.73c0,2.84,1.9,5.15,4.27,5.15c2.35,0,4.26-2.3,4.26-5.15
				c0-2.85-1.91-5.15-4.26-5.15C74.83,55.57,72.93,57.88,72.93,60.73"/>
		</g>
		<path id="XMLID_4_" style="fill:#E49500;" d="M66.84,70.27c-1.57,0.44-3.2,0.66-4.46,0.66s-2.89-0.22-4.46-0.66
			c-0.67-0.19-0.94,0.45-0.69,0.87c0.5,0.88,2.5,2.64,5.15,2.64c2.65,0,4.65-1.77,5.15-2.64C67.77,70.71,67.51,70.08,66.84,70.27z"
			/>
	</g>
	<path id="XMLID_3_" style="fill:#6D4C41;" d="M71.27,34.43c-3.23,3.11-19.29,17.58-41.42,21.35V26.11c0,0,9.55-18.95,32.47-18.95
		S94.8,26.59,94.8,26.59v29.19c0,0-15.02-5.76-22.56-21.17C72.06,34.24,71.57,34.14,71.27,34.43z"/>
	<g>
		<path style="fill:#F5F5F5;" d="M75.57,93.34"/>
	</g>
	<g>
		<g>
			<polygon style="fill:#262626;" points="62.36,0 12.5,9.22 62.49,0.02 			"/>
			<polygon style="fill:#424143;" points="62.64,0.01 62.61,0 62.49,0.02 62.64,0.05 			"/>
			<polygon style="fill:#262626;" points="62.92,0 112.79,9.22 62.8,0.02 			"/>
			<path style="fill:#262626;" d="M112.81,11.76l-0.02-2.54l-50.11,7.26l-0.03,0l-0.03,0L12.5,9.22l-0.02,2.54l20.07,3.51
				l-1.72,4.86c3.68,1.62,17.01,7,31.81,7.39c14.8-0.4,27.66-5.77,31.34-7.39l-1.72-4.86L112.81,11.76z"/>
			<polygon style="fill:#424143;" points="62.64,0.01 62.68,0 62.8,0.02 62.64,0.05 			"/>
			<polygon style="fill:#424143;" points="62.8,0.02 62.64,0.05 62.49,0.02 12.5,9.22 62.61,16.48 62.64,16.47 62.68,16.48 
				112.79,9.22 			"/>
		</g>
		<g>
			<g>
				<g>
					<path style="fill:#FBC11B;" d="M113.7,45.9c-1.01,0-1.82,0.82-1.82,1.82v7.83c0,1.01,0.82,1.82,1.82,1.82
						c1.01,0,1.82-0.82,1.82-1.82v-7.83C115.52,46.72,114.71,45.9,113.7,45.9z"/>
					<path style="fill:#FBC11B;" d="M110.06,45.9c-1.01,0-1.82,0.82-1.82,1.82v7.83c0,1.01,0.82,1.82,1.82,1.82
						c1.01,0,1.82-0.82,1.82-1.82v-7.83C111.88,46.72,111.07,45.9,110.06,45.9z"/>
					<path style="fill:#E49500;" d="M111.22,45.9c-1.01,0-1.82,0.82-1.82,1.82v7.83c0,1.01,0.82,1.82,1.82,1.82
						c1.01,0,1.82-0.82,1.82-1.82v-7.83C113.04,46.72,112.23,45.9,111.22,45.9z"/>
					<path style="fill:#E49500;" d="M112.61,45.9c-1.01,0-1.82,0.82-1.82,1.82v7.83c0,1.01,0.82,1.82,1.82,1.82s1.82-0.82,1.82-1.82
						v-7.83C114.43,46.72,113.62,45.9,112.61,45.9z"/>
					<path style="fill:#FBC11B;" d="M111.88,45.9c-1.01,0-1.82,0.82-1.82,1.82v9.52c0,1.01,0.82,1.82,1.82,1.82
						c1.01,0,1.82-0.82,1.82-1.82v-9.52C113.7,46.72,112.89,45.9,111.88,45.9z"/>
				</g>
				<circle style="fill:#E49500;" cx="111.88" cy="45.38" r="2.06"/>
				<circle style="fill:#FBC11B;" cx="111.88" cy="44.85" r="2.06"/>
				<ellipse style="fill:#FBC11B;" cx="113.95" cy="49.03" rx="0.09" ry="0"/>
			</g>
			<path style="fill:#262626;" d="M110.98,9.45v34.87v0.08H111c0.04,0.46,0.42,0.83,0.89,0.83s0.85-0.36,0.89-0.83h0.02V9.45H110.98
				z"/>
		</g>
	</g>
	<polygon style="fill:#424242;" points="72.17,128 52.49,128 52.49,95.7 62.33,107.7 72.17,95.7 	"/>
</g>
</svg>
