<svg width="128" height="128" style="enable-background:new 0 0 128 128;" xmlns="http://www.w3.org/2000/svg" xmlns:xlink="http://www.w3.org/1999/xlink">
  <style type="text/css">
.st0{fill:#FF7043;}
.st1{fill:#E64A19;}
.st2{fill:#FFCCBC;}
.st3{fill:#FFAB91;}
  </style>
  <g>
    <g>
      <g>
        <path class="st0" d="M51.2,29.4c-4.6,0.9-8.5,4.9-10.8,10.8c-2.1,5.2-3.6,8.1-7,8.5l9.1,4.5c0,0,7.4-15.5,12.4-17.2 s11.8-1.6,11.8-1.6S57.6,28.2,51.2,29.4z"/>
        <path class="st0" d="M6,67.1c0,0-5.6-2.7-5.4-7.8c0,0,4.2-8.7,10-12.4c5.2-3.3,8.7-3,8.7-3s4.8,1,7.9,4.6c0,0-3.9-2.8-12.1,5.4 C8.1,61,6,67.1,6,67.1z"/>
        <path class="st1" d="M34.6,48.4c0,0-2.7,0.3-4.8-0.8c-3.8-2.1-6.4-3.9-11.6-3.7c0,0,3,0.4,7.9,4c0,0,9.3,4.5,12.6,5.8 c3.3,1.4,3.5-1.4,3.5-1.4s0.5-0.8-1.1-1.2c-1.5-0.3-2.5-0.4-3.8-1.2C36.1,49.2,36.4,48.7,34.6,48.4z"/>
        <path class="st2" d="M60.8,33.2C56.6,33,50.7,35,47,43.3c-3.7,8.3-3.9,8.6-6,10.2c0,0,2.7,7.3,12.6,6.7c0,0,3.8-16.1,7.5-19.2 c5.2-4.3,9.9-3.1,12.1-1.3C73.2,39.6,68.3,33.6,60.8,33.2z"/>
        <path class="st0" d="M96.3,17.8c0,0-10.6-5.3-16.5-2.3c-5.5,2.8-6.7,7-9,10.7c-2.2,3.7-3.7,2.6-6.4,4.9l9.5,3.8 c0,0,1.9,0.4,4.7-4.2s4.2-9.6,8.1-11.2S96.3,17.8,96.3,17.8z"/>
        <path class="st3" d="M24.2,47.6c0,0,4.5,0.1,8.2,2.5c3.7,2.3,7.3,4.3,10,2.2c0,0,0.6,0.5,1.9,2.5c1,1.5,3,2.6,5.4,3.1 c2.9,0.6,4,2.2,4,2.2s0.1,4.9-6.8,1.9c-5.7-2.5-8.1-5.3-11.2-8c-0.7-0.6-1.3-1.1-2.3-1.7C27.9,48.9,24.2,47.6,24.2,47.6z"/>
        <path class="st1" d="M64.3,31.1c-0.5,0.5-1.7,0.4-5.4-1c-2.3-0.9-4.4-1.1-6.4-0.8c0,0,5,0.6,9.1,3.8c0,0,4,1.4,6.8,3.1 c1.9,1.1,5.1-0.5,5.4-1.8c0.3-1.3-4.1-1.7-5.8-2.5C66,30.8,66.6,29.1,64.3,31.1z"/>
        <path class="st2" d="M34.6,52.9c0,0-6.3-6.4-12.6-5.2c-6,1.2-12.7,4.8-18,18c0,0,2.7,5,6.5,6.8C10.5,72.6,21.7,51.6,34.6,52.9z"/>
        <path class="st0" d="M46,64.2c0,0-8-13-16.2-12c-7.9,1-15.2,10.3-19.4,20.3c0,0,3.5,4.7,8.3,7.5c0,0,7.8-15,11.9-17.7 c3.8-2.5,7-3.2,12,0L46,64.2z"/>
        <path class="st2" d="M102.3,22.9c0,0-4.5-6-10.9-6.5c-6.2-0.5-9,2.3-11.4,7.6c-2,4.5-3.8,8.7-8.7,11.7c0,0,4.5,3.8,8.1,5 c3.6,1.3,5.3-2.5,6.4-7.7c1-5.2,1.5-8.4,4.6-10.8C94.2,19.3,95.7,20.6,102.3,22.9z"/>
        <path class="st1" d="M106.4,33.2c0,0-1-9.7-7-7.5c-7,2.5-5.2,21.4-11.7,23.2s-12.5-8.2-18-3.9c-5.5,4.4-2.9,22.2-13.8,23.6 c-10,1.3-14-7.8-20.1-6.5c-6.4,1.3-9.3,4.7-14.8,17.6L18.7,80c0,0,6.7-19,16.4-20.3c7.6-1,11.9,8.8,20.5,7.2 C66.1,65,63.2,44,69.9,42.2s13.2,7.3,17.5,5.2s4.3-21.8,10.8-23.7c7.9-2.3,8.2,8.5,8.2,8.5L106.4,33.2z"/>
        <path class="st3" d="M61.6,33.1c0,0,3.9,0.5,6.4,1.7c2.7,1.3,3.4,0.9,4.7-0.1c1.6-1.2,2.1,2.2,3.4,3.1c1.9,1.3,5.5,0.7,6.3,1.2 c0.6,0.4,1.3,0.9,0.4,1.8c-0.9,0.9-0.3,2.8-2.4,1.6c-5.3-2.9-11.8-4.6-11.8-4.6S66.9,35.1,61.6,33.1z"/>
        <path class="st0" d="M105.3,28.7c0,0-2.2-9.2-10.2-9.9c-6-0.5-9,8.4-9.6,12.2s-1.3,7.1-3.6,10.1c-2.2,2.8,6.2,8.5,8.2,3.3 s2-11.1,4.5-15.2c2.6-4,4.1-4.3,6.1-4c2,0.4,4.1-0.1,5.7,7.8L105.3,28.7z"/>
        <path class="st1" d="M82.9,39.6c0,0-1.3,3.4-4,1.9c-3-1.6-5.8-3.6-10.2-3.7c0,0,4.5,0.4,8.6,5.7c0,0,6.1,5.2,9.3,4.6 c3.2-0.7,3.8-4.2,3.8-4.2s-0.1-1-2.6-1.1C85.2,42.7,84.2,39,82.9,39.6z"/>
        <path class="st0" d="M77.2,43.6c0,0-2.9-4.9-8.6-5.7c-5.6-0.8-9.4,3.5-11.7,7.8c-2.5,4.5-2.3,17.2-7.1,16.5c0,0,2.6,4.1,5.8,4.8 c0,0,6.3,0.5,8.6-11.2S69.3,41.5,77.2,43.6z"/>
        <path class="st1" d="M51.5,61.7c0,0-1.8,1.1-5.5-0.7c-4.5-2.1-5.9-5.7-11.9-8.2c0,0,5.2,3.6,8.5,9.4c2.8,5,8.1,4.9,11.8,5.3 c3.7,0.4,4.7-1.4,5.4-2.6c0.7-1.2-2-1.1-3.6-1.3C54.7,63.5,53.8,59.8,51.5,61.7z"/>
      </g>
      <path class="st1" d="M106.6,33.3l-11.4-4.5c0,0,3-5,6.5-3.6C106.8,27.2,106.6,33.3,106.6,33.3z"/>
    </g>
    <g>
      <g>
        <path class="st0" d="M68.3,57.4c-4.6,1.5-8.2,6-9.9,12.4c-1.5,5.7-2.8,8.8-6.3,9.6l9.9,3.5c0,0,5.8-16.9,10.7-19.2 c4.9-2.3,12-3,12-3S74.7,55.3,68.3,57.4z"/>
        <path class="st0" d="M20.8,101c0,0-6-3.4-6.4-7.4c0,0,8.6-13.3,13.9-16.4C33.7,74,37,75,37,75s5,0.5,8.7,3.8c0,0-8.1-1.3-15.7,8 S20.8,101,20.8,101z"/>
        <path class="st1" d="M53.4,78.9c0,0-1.6,0.5-5.5-1.4s-7.1-2.4-11.6-2.6c0,0,4.9,0.4,9.4,4c0,0,9.1,4,12.6,5 c3.6,1,3.5-1.9,3.5-1.9s0.4-0.9-1.2-1.1s-2.6-0.2-4.1-0.8C55,79.5,55.2,79,53.4,78.9z"/>
        <path class="st2" d="M78.7,60.2c-4.4,0.3-10.2,3-13.1,12c-2.9,9-3,9.3-5,11.2c0,0,3.6,7.2,13.8,5.4c0,0,2.1-17.1,5.5-20.7 c4.8-5.1,9.9-4.3,12.3-2.8C92.2,65.3,86.4,59.6,78.7,60.2z"/>
        <path class="st0" d="M113.6,37.1c0,0-10.6-4.2-16.3-0.4c-5.4,3.6-7.1,8-9,12c-1.9,4.1-3.6,6.2-6.2,8.8l10.2,2.8 c0,0,2,0.2,4.3-4.9S99.9,42,103.8,40C107.7,37.9,113.6,37.1,113.6,37.1z"/>
        <path class="st3" d="M42.4,78.4c0,0,3.9-0.1,8,1.9s8.9,4.2,11.4,1.7c0,0,0.7,0.4,2.2,2.3c1.2,1.5,3.4,2.4,6,2.6 c3.1,0.3,4.3,1.8,4.3,1.8s0.6,5.1-6.8,2.8s-7.8-5.5-13.7-8.4S42.4,78.4,42.4,78.4z"/>
        <path class="st1" d="M82.1,57.5c-0.5,0.5-1.7,0.7-5.7-0.4c-2.5-0.6-4.6-0.6-6.7-0.1c0,0,5.2,0.1,9.8,2.9c0,0,4.3,0.9,7.4,2.4 c2,1,5.2-1.1,5.4-2.5c0.2-1.4-4.5-1.2-6.3-1.9C83.7,57.1,84.1,55.2,82.1,57.5z"/>
        <path class="st2" d="M53.8,83.1c0,0-7.3-6.4-13.6-4.4c-6,1.9-13.5,7.8-19.5,22.3c0,0,4.3,4.6,10.2,6.1 C30.9,107.1,40.4,83.2,53.8,83.1z"/>
        <path class="st0" d="M64,90.4c0,0-7-9.4-15-7.4c-8,2-14.9,13.3-18,24.1c0,0,4.6,3.9,9.8,6.3c0,0,6.2-17.4,10.2-20.6 c3.7-3,5.8-5.6,11.9-2.3L64,90.4z"/>
        <path class="st2" d="M120.9,41c0,0-6.9-5.2-12.5-4.9c-5.6,0.3-7.8,4.5-9.9,9.2c-2.1,4.7-4,12.4-8.7,16.1c0,0,5,3.4,9,4.3 c3.9,0.9,5.2-3.2,5.7-8.7s0.7-11.9,3.6-14.7C111.6,38.8,113.8,39.5,120.9,41z"/>
        <path class="st1" d="M126.7,52.9c0,0-3.1-11-9.1-8.1c-6.9,3.4-3,25.7-9.5,28.3c-6.5,2.7-13.9-7.1-19.1-1.9 c-5.2,5.2-0.4,23.2-11.5,25.9c-10.1,2.5-15.2-9.2-21.4-7.1c-6.4,2.1-9.1,8.7-13.3,22.7l-2.3,0.6c0,0,4-22.8,13.9-25.3 c8.2-2.1,14.8,9.8,22.6,7.4c10.5-3.2,5.1-24.5,11.9-27.2c6.8-2.7,14.5,5.9,18.7,3.4c4.2-2.6,1.9-26,8.5-28.7 c6.1-2.5,9.5,3.9,10.8,7.1C127.5,51,127.4,52.1,126.7,52.9L126.7,52.9z"/>
        <path class="st3" d="M79.5,60c0,0,4,0,6.8,1c2.9,1,3.6,0.6,4.8-0.6c1.5-1.4,2.5,2,3.9,2.8c2.2,1.1,5.8,0.1,6.7,0.5 c0.7,0.3,1.4,0.8,0.6,1.8s0,2.9-2.3,2C94.2,65,87.3,64,87.3,64S85.1,61.4,79.5,60z"/>
        <path class="st0" d="M126.7,52.9c0.7-0.8,0.8-1.9,0.4-2.8c-1.5-3.7-6.1-12.8-14.6-11.8c-8.2,0.9-8.4,12.7-8.6,16.7 s-0.5,7.5-2.6,10.8c-2,3.1,7.4,8.1,8.9,2.5c1.4-5.6,0.8-14.7,3-19.2c2.2-4.5,3.7-4.9,5.8-4.8C121.1,44.6,120.5,42.6,126.7,52.9 L126.7,52.9z"/>
        <path class="st1" d="M102.2,64.2c0,0-0.9,3.6-3.9,2.4c-3.2-1.3-6.5-3-11-2.6c0,0,4.7-0.1,9.5,4.9c0,0,6.9,4.7,10.1,3.6 c3.2-1.1,3.4-4.7,3.4-4.7s-0.2-1-2.8-0.8C105,67.1,103.5,63.3,102.2,64.2z"/>
        <path class="st0" d="M96.8,68.9c0,0-3.6-4.7-9.5-4.9c-5.9-0.2-9.3,4.7-11.2,9.4c-2,5-0.4,18-5.4,17.9c0,0,3.1,3.9,6.6,4.2 c0,0,6.5-0.2,7.5-12.5S88.4,67.7,96.8,68.9z"/>
        <path class="st1" d="M72.4,90.6c0,0-1.7,1.4-5.8,0c-4.8-1.7-6.9-6.1-12.3-7.4c0,0,4.6,3.6,8.9,7.6c4.4,4,9,5.6,12.8,5.5 c3.9,0,4.7-2,5.3-3.3s-2.2-0.9-3.8-0.9C75.9,92.1,74.6,88.4,72.4,90.6z"/>
      </g>
      <path class="st1" d="M126.7,52.9L114.4,47c0,0,2.2-4.6,7.3-2.4C125.1,46.1,126.7,52.9,126.7,52.9z"/>
    </g>
  </g>
</svg>