<?xml version="1.0" encoding="UTF-8" standalone="no"?>
<svg
   xmlns:dc="http://purl.org/dc/elements/1.1/"
   xmlns:cc="http://creativecommons.org/ns#"
   xmlns:rdf="http://www.w3.org/1999/02/22-rdf-syntax-ns#"
   xmlns:svg="http://www.w3.org/2000/svg"
   xmlns="http://www.w3.org/2000/svg"
   xmlns:xlink="http://www.w3.org/1999/xlink"
   xmlns:sodipodi="http://sodipodi.sourceforge.net/DTD/sodipodi-0.dtd"
   xmlns:inkscape="http://www.inkscape.org/namespaces/inkscape"
   width="128"
   height="128"
   style="enable-background:new 0 0 128 128;"
   version="1.1"
   id="svg38"
   sodipodi:docname="emoji_u1f695.svg"
   inkscape:version="0.92.3 (2405546, 2018-03-11)">
  <metadata
     id="metadata44">
    <rdf:RDF>
      <cc:Work
         rdf:about="">
        <dc:format>image/svg+xml</dc:format>
        <dc:type
           rdf:resource="http://purl.org/dc/dcmitype/StillImage" />
      </cc:Work>
    </rdf:RDF>
  </metadata>
  <defs
     id="defs42" />
  <sodipodi:namedview
     pagecolor="#ffffff"
     bordercolor="#666666"
     borderopacity="1"
     objecttolerance="10"
     gridtolerance="10"
     guidetolerance="10"
     inkscape:pageopacity="0"
     inkscape:pageshadow="2"
     inkscape:window-width="1920"
     inkscape:window-height="1046"
     id="namedview40"
     showgrid="false"
     inkscape:snap-bbox="true"
     inkscape:bbox-paths="true"
     inkscape:bbox-nodes="true"
     inkscape:zoom="3.6875"
     inkscape:cx="114.19145"
     inkscape:cy="4.5656541"
     inkscape:window-x="-11"
     inkscape:window-y="-11"
     inkscape:window-maximized="1"
     inkscape:current-layer="svg38" />
  <path
     inkscape:connector-curvature="0"
     id="path2"
     style="fill:#78a3ad"
     d="m 67.5,41.68 c -0.51,0 -0.93,-0.65 -0.93,-1.44 v -6.38 c 0,-0.79 -0.64,-1.43 -1.43,-1.43 h -4.49 c -0.79,0 -1.44,0.65 -1.44,1.43 v 6.38 c 0,0.79 -0.42,1.44 -0.93,1.44 -0.51,0 -0.94,0.65 -0.94,1.43 v 2.54 c 0,0.79 0.42,1.43 0.94,1.43 0.51,0 1.57,0 2.37,0 h 4.49 c 0.79,0 1.86,0 2.37,0 0.51,0 0.93,-0.64 0.93,-1.43 v -2.54 c 0,-0.78 -0.42,-1.43 -0.94,-1.43 z" />
  <g
     id="g16">
    <defs
       id="defs5">
      <path
         inkscape:connector-curvature="0"
         d="m 121.57,79.19 c -4.68,-4.68 -12,-6.14 -12,-6.14 0,0 -3.83,-9.95 -7.06,-14.28 C 93.73,46.97 82.74,44.33 64.93,44.33 52.62,44.33 40.4,44.8 30.39,57.41 26.56,62.24 20.28,73.05 20.28,73.05 c 0,0 -10.01,2.24 -15.07,7.88 -3.88,4.32 -6.79,18.9 -1.67,24.01 4.73,4.73 9.89,7.06 13.32,7.06 2.88,0 16.03,0 24.45,0 14.39,0 42.19,0 52.48,0 7.03,0 13.52,0 18.24,0 5.17,0 9.52,-2.6 12.24,-6.96 4.66,-7.48 1.97,-21.17 -2.7,-25.85 z"
         id="SVGID_1_" />
    </defs>
    <use
       height="100%"
       width="100%"
       y="0"
       x="0"
       id="use7"
       xlink:href="#SVGID_1_"
       style="overflow:visible;fill:#fcc21b" />
    <clipPath
       id="SVGID_2_">
      <use
         height="100%"
         width="100%"
         y="0"
         x="0"
         id="use9"
         xlink:href="#SVGID_1_"
         style="overflow:visible" />
    </clipPath>
    <rect
       id="rect12"
       clip-path="url(#SVGID_2_)"
       y="85.07"
       x="-4.1300001"
       width="42.18"
       style="fill:#f79329"
       height="14.88" />
    <rect
       id="rect14"
       clip-path="url(#SVGID_2_)"
       y="85.07"
       x="87.699997"
       width="42.389999"
       style="fill:#f79329"
       height="14.88" />
  </g>
  <path
     inkscape:connector-curvature="0"
     id="path18"
     style="fill:#2f2f2f"
     d="m 40.72,109.71 c 0,6.24 -5.06,11.31 -11.3,11.31 -6.25,0 -11.31,-5.06 -11.31,-11.31 0,-6.24 5.06,-11.29 11.31,-11.29 6.24,0 11.3,5.05 11.3,11.29 z" />
  <path
     inkscape:connector-curvature="0"
     id="path20"
     style="fill:#2f2f2f"
     d="m 109,109.71 c 0,6.24 -5.07,11.31 -11.3,11.31 -6.25,0 -11.31,-5.06 -11.31,-11.31 0,-6.24 5.06,-11.29 11.31,-11.29 6.23,0 11.3,5.05 11.3,11.29 z" />
  <path
     inkscape:connector-curvature="0"
     id="path32"
     style="fill:#40c0e7"
     d="m 58.6,71.35 c 0,2.85 -1.83,3.81 -4.08,3.81 0,0 -15.92,0 -15.95,0 -5.52,0 -2.55,-8.34 2.84,-14.25 5.39,-5.91 13.69,-6.38 14.83,-6.09 2.2,0.54 2.36,2.58 2.36,4.81 0,1.99 0,11.42 0,11.72 z" />
  <path
     inkscape:connector-curvature="0"
     id="path34"
     style="fill:#40c0e7"
     d="m 65.49,71.35 c 0,2.85 2.66,3.81 5.89,3.81 0,0 20.98,0 21.02,0 7.98,0 3.35,-11.62 -4.76,-17.09 -5.76,-3.88 -17.09,-3.54 -18.74,-3.26 -3.19,0.54 -3.41,2.58 -3.41,4.81 0,2 0,11.43 0,11.73 z" />
  <text
     xml:space="preserve"
     style="font-style:normal;font-variant:normal;font-weight:normal;font-stretch:normal;font-size:17.56168747px;line-height:1.25;font-family:'Comic Neue';-inkscape-font-specification:'Comic Neue';font-variant-ligatures:normal;font-variant-caps:normal;font-variant-numeric:normal;font-feature-settings:normal;text-align:start;letter-spacing:0px;word-spacing:0px;writing-mode:lr-tb;text-anchor:start;opacity:1;vector-effect:none;fill:#2f2f2f;fill-opacity:1;stroke:none;stroke-width:0.94080478;stroke-linecap:butt;stroke-linejoin:miter;stroke-miterlimit:4;stroke-dasharray:none;stroke-dashoffset:0;stroke-opacity:1"
     x="42.73008"
     y="98.42244"
     id="text853"><tspan
       sodipodi:role="line"
       id="tspan851"
       x="42.73008"
       y="98.42244"
       style="font-style:normal;font-variant:normal;font-weight:bold;font-stretch:normal;font-family:'Comic Neue';-inkscape-font-specification:'Comic Neue Bold';vector-effect:none;fill:#2f2f2f;fill-opacity:1;stroke-width:0.94080478;stroke-linecap:butt;stroke-linejoin:miter;stroke-miterlimit:4;stroke-dasharray:none;stroke-dashoffset:0;stroke-opacity:1">TAXI</tspan></text>
</svg>
