<svg enable-background="new 0 0 128 128" viewBox="0 0 128 128" xmlns="http://www.w3.org/2000/svg" xmlns:xlink="http://www.w3.org/1999/xlink"><radialGradient id="o" cx="56.312" cy="33.208" r="91.466" gradientUnits="userSpaceOnUse"><stop stop-color="#FFCA28" offset=".3533"/><stop stop-color="#FFB300" offset=".8723"/></radialGradient><path d="m53.61 122.25c-23.88 0-30.28-12.73-31.45-23.41-0.22-1.99-0.65-22.31-0.84-32.77 0-0.1-0.01-0.2-0.04-0.3l-6.43-29.03c-0.37-2.05 0.06-4.02 1.18-5.36 0.93-1.12 2.3-1.71 3.96-1.71 3.73 0 5.4 1.88 6.87 7.75l6.78 24.42c0.18 0.66 0.79 1.1 1.44 1.1 0.12 0 0.24-0.01 0.37-0.04 0.79-0.2 1.28-0.99 1.1-1.78l-8.81-39.5c-0.34-2.09 0.04-3.99 1.08-5.28 0.96-1.19 2.47-1.84 4.47-1.93 0.11 0 0.21-0.01 0.32-0.01 3.25 0 5.46 2.46 7.16 7.98l9.03 34.76c0.2 0.96 1.05 1.66 2.04 1.66 1 0 1.84-0.68 2.04-1.66l11.23-44.11c0.01-0.03 0.02-0.07 0.02-0.1 0.93-5.1 3.06-7.28 7.13-7.28 2.16 0 4.19 0.92 5.42 2.45 0.75 0.94 1.55 2.52 1.07 4.74l-11.35 46.39c-0.19 0.79 0.28 1.6 1.07 1.81 0.13 0.03 0.26 0.05 0.39 0.05 0.65 0 1.25-0.43 1.44-1.09l10.15-35.48c1.69-5.35 3.35-7.08 6.84-7.08 4.4 0 6.41 3.67 6.46 7.35-2.91 13.76-9.59 45.41-9.66 46.11-0.09 0.97 0.26 1.57 0.56 1.9 0.4 0.44 0.98 0.69 1.63 0.69 1.44 0 2.87-1.14 3.27-1.49 1.78-1.54 3.31-3.95 4.93-6.5 2.02-3.18 4.12-6.48 6.36-7.39 1.76-0.71 3.89-1.11 6.01-1.11 3.4 0 5.54 1 5.89 1.98 1.56 4.3-0.32 5.95-5.09 9.6l-0.92 0.7c-4.73 3.65-7.81 11.08-10.52 17.64-1.11 2.67-2.15 5.2-3.23 7.31-0.65 1.28-1.21 2.79-1.86 4.53-3.47 9.35-8.74 23.49-37.51 23.49z" fill="url(#o)"/><path d="m72.26 7.14c1.71 0 3.3 0.71 4.26 1.89 0.54 0.68 1.12 1.82 0.78 3.44l-11.36 46.4c-0.39 1.59 0.57 3.19 2.14 3.61 0.26 0.07 0.52 0.1 0.77 0.1 1.31 0 2.51-0.86 2.88-2.18l10.13-35.44c1.64-5.19 2.94-6.03 5.41-6.03 3.53 0 4.87 3.01 4.96 5.71-9.57 45.25-9.62 45.87-9.65 46.11-0.14 1.52 0.44 2.5 0.94 3.05 0.69 0.76 1.67 1.17 2.74 1.17 1.9 0 3.61-1.3 4.25-1.86 1.94-1.68 3.53-4.18 5.21-6.83 1.81-2.85 3.86-6.07 5.66-6.8 1.56-0.63 3.55-1 5.45-1 2.78 0 4.24 0.74 4.5 1.04 1.12 3.12 0.24 4.14-4.61 7.84l-0.92 0.71c-5.05 3.89-8.2 11.52-10.99 18.25-1.09 2.65-2.13 5.14-3.18 7.21-0.69 1.36-1.3 2.98-1.93 4.69-1.68 4.51-3.77 10.13-8.78 14.57-6.02 5.35-14.96 7.94-27.33 7.94-12.57 0-27.96-3.83-29.96-22.08-0.2-1.8-0.61-20.5-0.84-32.64 0-0.2-0.03-0.4-0.07-0.59l-6.41-28.97c-0.28-1.62 0.04-3.17 0.85-4.14 0.65-0.77 1.59-1.17 2.81-1.17 2.34 0 3.87 0.45 5.41 6.61 0.01 0.03 0.01 0.05 0.02 0.08l6.77 24.38c0.37 1.32 1.57 2.2 2.89 2.2 0.24 0 0.49-0.03 0.73-0.09 1.58-0.39 2.55-1.98 2.2-3.56l-8.79-39.41c-0.27-1.71 0-3.16 0.76-4.09 0.68-0.84 1.82-1.31 3.37-1.38 0.09 0 0.17-0.01 0.25-0.01 1.77 0 3.83 0.82 5.7 6.86l9.02 34.72c0.36 1.64 1.81 2.81 3.5 2.81s3.11-1.13 3.49-2.76l11.24-44.13c0.02-0.07 0.03-0.14 0.04-0.2 1.05-5.56 3.49-6.03 5.69-6.03m0-3c-4.95 0-7.59 2.92-8.6 8.51l-11.25 44.17c-0.07 0.31-0.32 0.47-0.58 0.47s-0.53-0.16-0.58-0.49l-9.06-34.86c-1.56-5.08-3.91-9.04-8.59-9.04-0.13 0-0.26 0-0.39 0.01-5.6 0.25-7.71 4.39-6.94 9.03l8.81 39.5-6.77-24.38c-1.46-5.83-3.38-8.89-8.32-8.89-4.95 0-7.43 4.27-6.6 8.89l6.43 29.03s0.57 30.33 0.85 32.91c0.93 8.5 5.74 24.75 32.94 24.75 35.1 0 36.64-20.86 40.71-28.84 3.79-7.43 7.09-19.64 13.33-24.45 4.96-3.83 8.62-6.12 6.5-12-0.71-1.96-3.81-2.97-7.3-2.97-2.2 0-4.56 0.4-6.57 1.22-4.61 1.87-7.84 10.79-11.7 14.14-0.72 0.62-1.66 1.13-2.29 1.13-0.46 0-0.76-0.27-0.7-0.95 0.06-0.69 9.66-46.09 9.66-46.09 0-4.97-3.01-9-7.96-9s-6.76 3.33-8.28 8.16l-10.16 35.49 11.37-46.44c1.1-5.06-3.01-9.01-7.96-9.01z" fill="#EDA600"/><defs><path id="n" d="m110.64 57.86c-2.27-2.53-8.01-3.72-13.54-1.54-4.65 1.83-9.96 19.19-9.96 19.19l-3.87-6.4s-65.53 21.5-64.6 30 7.74 24.75 34.94 24.75c35.1 0 36.64-20.86 40.71-28.84 3.79-7.43 8.56-24.71 14.42-26.55 3.79-1.19 3.82-8.48 1.9-10.61z"/></defs><clipPath id="m"><use xlink:href="#n"/></clipPath><g clip-path="url(#m)"><path d="m86.63 69.53c-10.91 4.16-17.34 14.43-21.29 27.9-0.54 1.86 1.17 2.4 1.83 0.58 6.86-18.88 23.87-25.11 23.87-25.11l-4.41-3.37z" fill="#EDA600"/></g><g display="none"><g display="inline"><g opacity=".6"><circle cx="64" cy="-73" r="28" fill="none" opacity=".61" stroke="#000" stroke-miterlimit="10" stroke-width=".2625"/><line x1="84" x2="84" y1="-137" y2="-9" fill="none" opacity=".61" stroke="#000" stroke-miterlimit="10" stroke-width=".25"/><line x1="44" x2="44" y1="-137" y2="-9" fill="none" opacity=".61" stroke="#000" stroke-miterlimit="10" stroke-width=".25"/><line x1="64" x2="64" y1="-137" y2="-9" fill="none" opacity=".61" stroke="#000" stroke-miterlimit="10" stroke-width=".25"/><line x1="128" y1="-73" y2="-73" fill="none" opacity=".61" stroke="#000" stroke-miterlimit="10" stroke-width=".25"/><line x1="128" y1="-93" y2="-93" fill="none" opacity=".61" stroke="#000" stroke-miterlimit="10" stroke-width=".25"/><line x1="128" y1="-53.25" y2="-53.25" fill="none" opacity=".61" stroke="#000" stroke-miterlimit="10" stroke-width=".25"/><line x1="128" y1="-9" y2="-137" fill="none" opacity=".61" stroke="#000" stroke-miterlimit="10" stroke-width=".25"/><line x2="128" y1="-9" y2="-137" fill="none" opacity=".61" stroke="#000" stroke-miterlimit="10" stroke-width=".25"/><g opacity=".61"><path d="m64-132.74c32.94 0 59.74 26.8 59.74 59.74s-26.8 59.74-59.74 59.74-59.74-26.8-59.74-59.74 26.8-59.74 59.74-59.74m0-0.26c-33.14 0-60 26.86-60 60s26.86 60 60 60 60-26.86 60-60-26.86-60-60-60z"/></g><path d="m107.97-21.03h-87.94c-4.42 0-8.03-3.61-8.03-8.03v-87.91c0-4.42 3.61-8.03 8.03-8.03h87.94c4.42 0 8.03 3.61 8.03 8.03v87.91c0 4.42-3.61 8.03-8.03 8.03z" fill="none" opacity=".61" stroke="#000" stroke-miterlimit="10" stroke-width=".2578"/><path d="m100-13h-72c-4.4 0-8-3.6-8-8v-104c0-4.4 3.6-8 8-8h72c4.4 0 8 3.6 8 8v104c0 4.4-3.6 8-8 8z" fill="none" opacity=".61" stroke="#000" stroke-miterlimit="10" stroke-width=".2628"/><path d="M113.77-29H14.23 C8.6-29,4-33.6,4-39.23v-67.48c0-5.63,4.6-10.23,10.23-10.23h99.54c5.63,0,10.23,4.6,10.23,10.23v67.48 C124-33.6,119.4-29,113.77-29z" fill="none" opacity=".61" stroke="#000" stroke-miterlimit="10" stroke-width=".2627"/></g><g opacity=".2"><defs><rect id="i" y="-137" width="128" height="128" opacity=".2"/></defs><clipPath id="k"><use xlink:href="#i"/></clipPath><g clip-path="url(#k)"><g fill="none" stroke="#000" stroke-miterlimit="10" stroke-width=".25"><line x1="-28" x2="-28" y1="23" y2="-169"/><line x1="-24" x2="-24" y1="23" y2="-169"/><line x1="-20" x2="-20" y1="23" y2="-169"/><line x1="-16" x2="-16" y1="23" y2="-169"/><line x1="-12" x2="-12" y1="23" y2="-169"/><line x1="-8" x2="-8" y1="23" y2="-169"/><line x1="-4" x2="-4" y1="23" y2="-169"/><line y1="23" y2="-169"/><line x1="4" x2="4" y1="23" y2="-169"/><line x1="8" x2="8" y1="23" y2="-169"/><line x1="12" x2="12" y1="23" y2="-169"/><line x1="16" x2="16" y1="23" y2="-169"/><line x1="20" x2="20" y1="23" y2="-169"/><line x1="24" x2="24" y1="23" y2="-169"/><line x1="28" x2="28" y1="23" y2="-169"/><line x1="32" x2="32" y1="23" y2="-169"/><line x1="36" x2="36" y1="23" y2="-169"/><line x1="40" x2="40" y1="23" y2="-169"/><line x1="44" x2="44" y1="23" y2="-169"/><line x1="48" x2="48" y1="23" y2="-169"/><line x1="52" x2="52" y1="23" y2="-169"/><line x1="56" x2="56" y1="23" y2="-169"/><line x1="60" x2="60" y1="23" y2="-169"/><line x1="64" x2="64" y1="23" y2="-169"/><line x1="68" x2="68" y1="23" y2="-169"/><line x1="72" x2="72" y1="23" y2="-169"/><line x1="76" x2="76" y1="23" y2="-169"/><line x1="80" x2="80" y1="23" y2="-169"/><line x1="84" x2="84" y1="23" y2="-169"/><line x1="88" x2="88" y1="23" y2="-169"/><line x1="92" x2="92" y1="23" y2="-169"/><line x1="96" x2="96" y1="23" y2="-169"/><line x1="100" x2="100" y1="23" y2="-169"/><line x1="104" x2="104" y1="23" y2="-169"/><line x1="108" x2="108" y1="23" y2="-169"/><line x1="112" x2="112" y1="23" y2="-169"/><line x1="116" x2="116" y1="23" y2="-169"/><line x1="120" x2="120" y1="23" y2="-169"/><line x1="124" x2="124" y1="23" y2="-169"/><line x1="128" x2="128" y1="23" y2="-169"/><line x1="132" x2="132" y1="23" y2="-169"/><line x1="136" x2="136" y1="23" y2="-169"/><line x1="137" x2="137" y1="29.05" y2="-162.95"/><line x1="144" x2="144" y1="23" y2="-169"/><line x1="148" x2="148" y1="23" y2="-169"/><line x1="152" x2="152" y1="23" y2="-169"/><line x1="156" x2="156" y1="23" y2="-169"/></g><g fill="none" stroke="#000" stroke-miterlimit="10" stroke-width=".25"><line x1="-32" x2="160" y1="-165" y2="-165"/><line x1="-32" x2="160" y1="-161" y2="-161"/><line x1="-32" x2="160" y1="-157" y2="-157"/><line x1="-32" x2="160" y1="-153" y2="-153"/><line x1="-32" x2="160" y1="-149" y2="-149"/><line x1="-32" x2="160" y1="-145" y2="-145"/><line x1="-32" x2="160" y1="-141" y2="-141"/><line x1="-32" x2="160" y1="-137" y2="-137"/><line x1="-32" x2="160" y1="-133" y2="-133"/><line x1="-32" x2="160" y1="-129" y2="-129"/><line x1="-32" x2="160" y1="-125" y2="-125"/><line x1="-32" x2="160" y1="-121" y2="-121"/><line x1="-32" x2="160" y1="-117" y2="-117"/><line x1="-32" x2="160" y1="-113" y2="-113"/><line x1="-32" x2="160" y1="-109" y2="-109"/><line x1="-32" x2="160" y1="-105" y2="-105"/><line x1="-32" x2="160" y1="-101" y2="-101"/><line x1="-32" x2="160" y1="-97" y2="-97"/><line x1="-32" x2="160" y1="-93" y2="-93"/><line x1="-32" x2="160" y1="-89" y2="-89"/><line x1="-32" x2="160" y1="-85" y2="-85"/><line x1="-32" x2="160" y1="-81" y2="-81"/><line x1="-32" x2="160" y1="-77" y2="-77"/><line x1="-32" x2="160" y1="-73" y2="-73"/><line x1="-32" x2="160" y1="-69" y2="-69"/><line x1="-32" x2="160" y1="-65" y2="-65"/><line x1="-32" x2="160" y1="-61" y2="-61"/><line x1="-32" x2="160" y1="-57" y2="-57"/><line x1="-32" x2="160" y1="-53" y2="-53"/><line x1="-32" x2="160" y1="-49" y2="-49"/><line x1="-32" x2="160" y1="-45" y2="-45"/><line x1="-32" x2="160" y1="-41" y2="-41"/><line x1="-32" x2="160" y1="-37" y2="-37"/><line x1="-32" x2="160" y1="-33" y2="-33"/><line x1="-32" x2="160" y1="-29" y2="-29"/><line x1="-32" x2="160" y1="-25" y2="-25"/><line x1="-32" x2="160" y1="-21" y2="-21"/><line x1="-32" x2="160" y1="-17" y2="-17"/><line x1="-32" x2="160" y1="-13" y2="-13"/><line x1="-32" x2="160" y1="-9" y2="-9"/><line x1="-32" x2="160" y1="-5" y2="-5"/><line x1="-32" x2="160" y1="-1" y2="-1"/><line x1="-32" x2="160" y1="3" y2="3"/><line x1="-32" x2="160" y1="7" y2="7"/><line x1="-32" x2="160" y1="11" y2="11"/><line x1="-32" x2="160" y1="15" y2="15"/><line x1="-32" x2="160" y1="19" y2="19"/></g><path d="m159.75-168.75v191.5h-191.5v-191.5h191.5m0.25-0.25h-192v192h192v-192z"/></g></g><g fill="#F44336"><rect y="-137" width="4" height="128" opacity=".3"/><rect x="124" y="-137" width="4" height="128" opacity=".3"/><rect transform="matrix(-1.837e-16 1 -1 -1.837e-16 -71 -199)" x="62" y="-195" width="4" height="120" opacity=".3"/><rect transform="matrix(-1.837e-16 1 -1 -1.837e-16 53 -75)" x="62" y="-71" width="4" height="120" opacity=".3"/></g></g><g display="inline"><g opacity=".6"><circle cx="64" cy="64" r="28" fill="none" opacity=".61" stroke="#000" stroke-miterlimit="10" stroke-width=".2625"/><line x1="84" x2="84" y2="128" fill="none" opacity=".61" stroke="#000" stroke-miterlimit="10" stroke-width=".25"/><line x1="44" x2="44" y2="128" fill="none" opacity=".61" stroke="#000" stroke-miterlimit="10" stroke-width=".25"/><line x1="64" x2="64" y2="128" fill="none" opacity=".61" stroke="#000" stroke-miterlimit="10" stroke-width=".25"/><line x1="128" y1="64" y2="64" fill="none" opacity=".61" stroke="#000" stroke-miterlimit="10" stroke-width=".25"/><line x1="128" y1="44" y2="44" fill="none" opacity=".61" stroke="#000" stroke-miterlimit="10" stroke-width=".25"/><line x1="128" y1="83.75" y2="83.75" fill="none" opacity=".61" stroke="#000" stroke-miterlimit="10" stroke-width=".25"/><line x1="128" y1="128" fill="none" opacity=".61" stroke="#000" stroke-miterlimit="10" stroke-width=".25"/><line x2="128" y1="128" fill="none" opacity=".61" stroke="#000" stroke-miterlimit="10" stroke-width=".25"/><g opacity=".61"><path d="M64,4.26c32.94,0,59.74,26.8,59.74,59.74S96.94,123.74,64,123.74S4.26,96.94,4.26,64S31.06,4.26,64,4.26 M64,4 C30.86,4,4,30.86,4,64s26.86,60,60,60s60-26.86,60-60S97.14,4,64,4L64,4z"/></g><path d="m107.97 115.97h-87.94c-4.42 0-8.03-3.61-8.03-8.03v-87.91c0-4.42 3.61-8.03 8.03-8.03h87.94c4.42 0 8.03 3.61 8.03 8.03v87.91c0 4.42-3.61 8.03-8.03 8.03z" fill="none" opacity=".61" stroke="#000" stroke-miterlimit="10" stroke-width=".2578"/><path d="m100 124h-72c-4.4 0-8-3.6-8-8v-104c0-4.4 3.6-8 8-8h72c4.4 0 8 3.6 8 8v104c0 4.4-3.6 8-8 8z" fill="none" opacity=".61" stroke="#000" stroke-miterlimit="10" stroke-width=".2628"/><path d="M113.77,108H14.23 C8.6,108,4,103.4,4,97.77V30.28c0-5.63,4.6-10.23,10.23-10.23h99.54c5.63,0,10.23,4.6,10.23,10.23v67.48 C124,103.4,119.4,108,113.77,108z" fill="none" opacity=".61" stroke="#000" stroke-miterlimit="10" stroke-width=".2627"/></g><g opacity=".2"><defs><rect id="l" width="128" height="128" opacity=".2"/></defs><clipPath id="g"><use xlink:href="#l"/></clipPath><g clip-path="url(#g)"><g fill="none" stroke="#000" stroke-miterlimit="10" stroke-width=".25"><line x1="-28" x2="-28" y1="160" y2="-32"/><line x1="-24" x2="-24" y1="160" y2="-32"/><line x1="-20" x2="-20" y1="160" y2="-32"/><line x1="-16" x2="-16" y1="160" y2="-32"/><line x1="-12" x2="-12" y1="160" y2="-32"/><line x1="-8" x2="-8" y1="160" y2="-32"/><line x1="-4" x2="-4" y1="160" y2="-32"/><line y1="160" y2="-32"/><line x1="4" x2="4" y1="160" y2="-32"/><line x1="8" x2="8" y1="160" y2="-32"/><line x1="12" x2="12" y1="160" y2="-32"/><line x1="16" x2="16" y1="160" y2="-32"/><line x1="20" x2="20" y1="160" y2="-32"/><line x1="24" x2="24" y1="160" y2="-32"/><line x1="28" x2="28" y1="160" y2="-32"/><line x1="32" x2="32" y1="160" y2="-32"/><line x1="36" x2="36" y1="160" y2="-32"/><line x1="40" x2="40" y1="160" y2="-32"/><line x1="44" x2="44" y1="160" y2="-32"/><line x1="48" x2="48" y1="160" y2="-32"/><line x1="52" x2="52" y1="160" y2="-32"/><line x1="56" x2="56" y1="160" y2="-32"/><line x1="60" x2="60" y1="160" y2="-32"/><line x1="64" x2="64" y1="160" y2="-32"/><line x1="68" x2="68" y1="160" y2="-32"/><line x1="72" x2="72" y1="160" y2="-32"/><line x1="76" x2="76" y1="160" y2="-32"/><line x1="80" x2="80" y1="160" y2="-32"/><line x1="84" x2="84" y1="160" y2="-32"/><line x1="88" x2="88" y1="160" y2="-32"/><line x1="92" x2="92" y1="160" y2="-32"/><line x1="96" x2="96" y1="160" y2="-32"/><line x1="100" x2="100" y1="160" y2="-32"/><line x1="104" x2="104" y1="160" y2="-32"/><line x1="108" x2="108" y1="160" y2="-32"/><line x1="112" x2="112" y1="160" y2="-32"/><line x1="116" x2="116" y1="160" y2="-32"/><line x1="120" x2="120" y1="160" y2="-32"/><line x1="124" x2="124" y1="160" y2="-32"/><line x1="128" x2="128" y1="160" y2="-32"/><line x1="132" x2="132" y1="160" y2="-32"/><line x1="136" x2="136" y1="160" y2="-32"/><line x1="137" x2="137" y1="166.05" y2="-25.95"/><line x1="144" x2="144" y1="160" y2="-32"/><line x1="148" x2="148" y1="160" y2="-32"/><line x1="152" x2="152" y1="160" y2="-32"/><line x1="156" x2="156" y1="160" y2="-32"/></g><g fill="none" stroke="#000" stroke-miterlimit="10" stroke-width=".25"><line x1="-32" x2="160" y1="-28" y2="-28"/><line x1="-32" x2="160" y1="-24" y2="-24"/><line x1="-32" x2="160" y1="-20" y2="-20"/><line x1="-32" x2="160" y1="-16" y2="-16"/><line x1="-32" x2="160" y1="-12" y2="-12"/><line x1="-32" x2="160" y1="-8" y2="-8"/><line x1="-32" x2="160" y1="-4" y2="-4"/><line x1="-32" x2="160"/><line x1="-32" x2="160" y1="4" y2="4"/><line x1="-32" x2="160" y1="8" y2="8"/><line x1="-32" x2="160" y1="12" y2="12"/><line x1="-32" x2="160" y1="16" y2="16"/><line x1="-32" x2="160" y1="20" y2="20"/><line x1="-32" x2="160" y1="24" y2="24"/><line x1="-32" x2="160" y1="28" y2="28"/><line x1="-32" x2="160" y1="32" y2="32"/><line x1="-32" x2="160" y1="36" y2="36"/><line x1="-32" x2="160" y1="40" y2="40"/><line x1="-32" x2="160" y1="44" y2="44"/><line x1="-32" x2="160" y1="48" y2="48"/><line x1="-32" x2="160" y1="52" y2="52"/><line x1="-32" x2="160" y1="56" y2="56"/><line x1="-32" x2="160" y1="60" y2="60"/><line x1="-32" x2="160" y1="64" y2="64"/><line x1="-32" x2="160" y1="68" y2="68"/><line x1="-32" x2="160" y1="72" y2="72"/><line x1="-32" x2="160" y1="76" y2="76"/><line x1="-32" x2="160" y1="80" y2="80"/><line x1="-32" x2="160" y1="84" y2="84"/><line x1="-32" x2="160" y1="88" y2="88"/><line x1="-32" x2="160" y1="92" y2="92"/><line x1="-32" x2="160" y1="96" y2="96"/><line x1="-32" x2="160" y1="100" y2="100"/><line x1="-32" x2="160" y1="104" y2="104"/><line x1="-32" x2="160" y1="108" y2="108"/><line x1="-32" x2="160" y1="112" y2="112"/><line x1="-32" x2="160" y1="116" y2="116"/><line x1="-32" x2="160" y1="120" y2="120"/><line x1="-32" x2="160" y1="124" y2="124"/><line x1="-32" x2="160" y1="128" y2="128"/><line x1="-32" x2="160" y1="132" y2="132"/><line x1="-32" x2="160" y1="136" y2="136"/><line x1="-32" x2="160" y1="140" y2="140"/><line x1="-32" x2="160" y1="144" y2="144"/><line x1="-32" x2="160" y1="148" y2="148"/><line x1="-32" x2="160" y1="152" y2="152"/><line x1="-32" x2="160" y1="156" y2="156"/></g><path d="m159.75-31.75v191.5h-191.5v-191.5h191.5m0.25-0.25h-192v192h192v-192z"/></g></g><g fill="#F44336"><rect width="4" height="128" opacity=".3"/><rect x="124" width="4" height="128" opacity=".3"/><rect transform="matrix(-1.837e-16 1 -1 -1.837e-16 66 -62)" x="62" y="-58" width="4" height="120" opacity=".3"/><rect transform="matrix(-1.837e-16 1 -1 -1.837e-16 190 62)" x="62" y="66" width="4" height="120" opacity=".3"/></g></g><g display="inline"><g opacity=".6"><circle cx="64" cy="203" r="28" fill="none" opacity=".61" stroke="#000" stroke-miterlimit="10" stroke-width=".2625"/><line x1="84" x2="84" y1="139" y2="267" fill="none" opacity=".61" stroke="#000" stroke-miterlimit="10" stroke-width=".25"/><line x1="44" x2="44" y1="139" y2="267" fill="none" opacity=".61" stroke="#000" stroke-miterlimit="10" stroke-width=".25"/><line x1="64" x2="64" y1="139" y2="267" fill="none" opacity=".61" stroke="#000" stroke-miterlimit="10" stroke-width=".25"/><line x1="128" y1="203" y2="203" fill="none" opacity=".61" stroke="#000" stroke-miterlimit="10" stroke-width=".25"/><line x1="128" y1="183" y2="183" fill="none" opacity=".61" stroke="#000" stroke-miterlimit="10" stroke-width=".25"/><line x1="128" y1="222.75" y2="222.75" fill="none" opacity=".61" stroke="#000" stroke-miterlimit="10" stroke-width=".25"/><line x1="128" y1="267" y2="139" fill="none" opacity=".61" stroke="#000" stroke-miterlimit="10" stroke-width=".25"/><line x2="128" y1="267" y2="139" fill="none" opacity=".61" stroke="#000" stroke-miterlimit="10" stroke-width=".25"/><g opacity=".61"><path d="m64 143.26c32.94 0 59.74 26.8 59.74 59.74s-26.8 59.74-59.74 59.74-59.74-26.8-59.74-59.74 26.8-59.74 59.74-59.74m0-0.26c-33.14 0-60 26.86-60 60s26.86 60 60 60 60-26.86 60-60-26.86-60-60-60z"/></g><path d="m107.97 254.97h-87.94c-4.42 0-8.03-3.61-8.03-8.03v-87.91c0-4.42 3.61-8.03 8.03-8.03h87.94c4.42 0 8.03 3.61 8.03 8.03v87.91c0 4.42-3.61 8.03-8.03 8.03z" fill="none" opacity=".61" stroke="#000" stroke-miterlimit="10" stroke-width=".2578"/><path d="m100 263h-72c-4.4 0-8-3.6-8-8v-104c0-4.4 3.6-8 8-8h72c4.4 0 8 3.6 8 8v104c0 4.4-3.6 8-8 8z" fill="none" opacity=".61" stroke="#000" stroke-miterlimit="10" stroke-width=".2628"/><path d="M113.77,247H14.23 C8.6,247,4,242.4,4,236.77v-67.48c0-5.63,4.6-10.23,10.23-10.23h99.54c5.63,0,10.23,4.6,10.23,10.23v67.48 C124,242.4,119.4,247,113.77,247z" fill="none" opacity=".61" stroke="#000" stroke-miterlimit="10" stroke-width=".2627"/></g><g opacity=".2"><defs><rect id="f" y="139" width="128" height="128" opacity=".2"/></defs><clipPath id="d"><use xlink:href="#f"/></clipPath><g clip-path="url(#d)"><g fill="none" stroke="#000" stroke-miterlimit="10" stroke-width=".25"><line x1="-28" x2="-28" y1="299" y2="107"/><line x1="-24" x2="-24" y1="299" y2="107"/><line x1="-20" x2="-20" y1="299" y2="107"/><line x1="-16" x2="-16" y1="299" y2="107"/><line x1="-12" x2="-12" y1="299" y2="107"/><line x1="-8" x2="-8" y1="299" y2="107"/><line x1="-4" x2="-4" y1="299" y2="107"/><line y1="299" y2="107"/><line x1="4" x2="4" y1="299" y2="107"/><line x1="8" x2="8" y1="299" y2="107"/><line x1="12" x2="12" y1="299" y2="107"/><line x1="16" x2="16" y1="299" y2="107"/><line x1="20" x2="20" y1="299" y2="107"/><line x1="24" x2="24" y1="299" y2="107"/><line x1="28" x2="28" y1="299" y2="107"/><line x1="32" x2="32" y1="299" y2="107"/><line x1="36" x2="36" y1="299" y2="107"/><line x1="40" x2="40" y1="299" y2="107"/><line x1="44" x2="44" y1="299" y2="107"/><line x1="48" x2="48" y1="299" y2="107"/><line x1="52" x2="52" y1="299" y2="107"/><line x1="56" x2="56" y1="299" y2="107"/><line x1="60" x2="60" y1="299" y2="107"/><line x1="64" x2="64" y1="299" y2="107"/><line x1="68" x2="68" y1="299" y2="107"/><line x1="72" x2="72" y1="299" y2="107"/><line x1="76" x2="76" y1="299" y2="107"/><line x1="80" x2="80" y1="299" y2="107"/><line x1="84" x2="84" y1="299" y2="107"/><line x1="88" x2="88" y1="299" y2="107"/><line x1="92" x2="92" y1="299" y2="107"/><line x1="96" x2="96" y1="299" y2="107"/><line x1="100" x2="100" y1="299" y2="107"/><line x1="104" x2="104" y1="299" y2="107"/><line x1="108" x2="108" y1="299" y2="107"/><line x1="112" x2="112" y1="299" y2="107"/><line x1="116" x2="116" y1="299" y2="107"/><line x1="120" x2="120" y1="299" y2="107"/><line x1="124" x2="124" y1="299" y2="107"/><line x1="128" x2="128" y1="299" y2="107"/><line x1="132" x2="132" y1="299" y2="107"/><line x1="136" x2="136" y1="299" y2="107"/><line x1="137" x2="137" y1="305.05" y2="113.05"/><line x1="144" x2="144" y1="299" y2="107"/><line x1="148" x2="148" y1="299" y2="107"/><line x1="152" x2="152" y1="299" y2="107"/><line x1="156" x2="156" y1="299" y2="107"/></g><g fill="none" stroke="#000" stroke-miterlimit="10" stroke-width=".25"><line x1="-32" x2="160" y1="111" y2="111"/><line x1="-32" x2="160" y1="115" y2="115"/><line x1="-32" x2="160" y1="119" y2="119"/><line x1="-32" x2="160" y1="123" y2="123"/><line x1="-32" x2="160" y1="127" y2="127"/><line x1="-32" x2="160" y1="131" y2="131"/><line x1="-32" x2="160" y1="135" y2="135"/><line x1="-32" x2="160" y1="139" y2="139"/><line x1="-32" x2="160" y1="143" y2="143"/><line x1="-32" x2="160" y1="147" y2="147"/><line x1="-32" x2="160" y1="151" y2="151"/><line x1="-32" x2="160" y1="155" y2="155"/><line x1="-32" x2="160" y1="159" y2="159"/><line x1="-32" x2="160" y1="163" y2="163"/><line x1="-32" x2="160" y1="167" y2="167"/><line x1="-32" x2="160" y1="171" y2="171"/><line x1="-32" x2="160" y1="175" y2="175"/><line x1="-32" x2="160" y1="179" y2="179"/><line x1="-32" x2="160" y1="183" y2="183"/><line x1="-32" x2="160" y1="187" y2="187"/><line x1="-32" x2="160" y1="191" y2="191"/><line x1="-32" x2="160" y1="195" y2="195"/><line x1="-32" x2="160" y1="199" y2="199"/><line x1="-32" x2="160" y1="203" y2="203"/><line x1="-32" x2="160" y1="207" y2="207"/><line x1="-32" x2="160" y1="211" y2="211"/><line x1="-32" x2="160" y1="215" y2="215"/><line x1="-32" x2="160" y1="219" y2="219"/><line x1="-32" x2="160" y1="223" y2="223"/><line x1="-32" x2="160" y1="227" y2="227"/><line x1="-32" x2="160" y1="231" y2="231"/><line x1="-32" x2="160" y1="235" y2="235"/><line x1="-32" x2="160" y1="239" y2="239"/><line x1="-32" x2="160" y1="243" y2="243"/><line x1="-32" x2="160" y1="247" y2="247"/><line x1="-32" x2="160" y1="251" y2="251"/><line x1="-32" x2="160" y1="255" y2="255"/><line x1="-32" x2="160" y1="259" y2="259"/><line x1="-32" x2="160" y1="263" y2="263"/><line x1="-32" x2="160" y1="267" y2="267"/><line x1="-32" x2="160" y1="271" y2="271"/><line x1="-32" x2="160" y1="275" y2="275"/><line x1="-32" x2="160" y1="279" y2="279"/><line x1="-32" x2="160" y1="283" y2="283"/><line x1="-32" x2="160" y1="287" y2="287"/><line x1="-32" x2="160" y1="291" y2="291"/><line x1="-32" x2="160" y1="295" y2="295"/></g><path d="m159.75 107.25v191.5h-191.5v-191.5h191.5m0.25-0.25h-192v192h192v-192z"/></g></g><g fill="#F44336"><rect y="139" width="4" height="128" opacity=".3"/><rect x="124" y="139" width="4" height="128" opacity=".3"/><rect transform="matrix(-1.837e-16 1 -1 -1.837e-16 205 77)" x="62" y="81" width="4" height="120" opacity=".3"/><rect transform="matrix(-1.837e-16 1 -1 -1.837e-16 329 201)" x="62" y="205" width="4" height="120" opacity=".3"/></g></g><g display="inline"><g opacity=".6"><circle cx="198" cy="-73" r="28" fill="none" opacity=".61" stroke="#000" stroke-miterlimit="10" stroke-width=".2625"/><line x1="218" x2="218" y1="-137" y2="-9" fill="none" opacity=".61" stroke="#000" stroke-miterlimit="10" stroke-width=".25"/><line x1="178" x2="178" y1="-137" y2="-9" fill="none" opacity=".61" stroke="#000" stroke-miterlimit="10" stroke-width=".25"/><line x1="198" x2="198" y1="-137" y2="-9" fill="none" opacity=".61" stroke="#000" stroke-miterlimit="10" stroke-width=".25"/><line x1="262" x2="134" y1="-73" y2="-73" fill="none" opacity=".61" stroke="#000" stroke-miterlimit="10" stroke-width=".25"/><line x1="262" x2="134" y1="-93" y2="-93" fill="none" opacity=".61" stroke="#000" stroke-miterlimit="10" stroke-width=".25"/><line x1="262" x2="134" y1="-53.25" y2="-53.25" fill="none" opacity=".61" stroke="#000" stroke-miterlimit="10" stroke-width=".25"/><line x1="262" x2="134" y1="-9" y2="-137" fill="none" opacity=".61" stroke="#000" stroke-miterlimit="10" stroke-width=".25"/><line x1="134" x2="262" y1="-9" y2="-137" fill="none" opacity=".61" stroke="#000" stroke-miterlimit="10" stroke-width=".25"/><g opacity=".61"><path d="m198-132.74c32.94 0 59.74 26.8 59.74 59.74s-26.8 59.74-59.74 59.74-59.74-26.8-59.74-59.74 26.8-59.74 59.74-59.74m0-0.26c-33.14 0-60 26.86-60 60s26.86 60 60 60 60-26.86 60-60-26.86-60-60-60z"/></g><path d="m241.97-21.03h-87.94c-4.42 0-8.03-3.61-8.03-8.03v-87.91c0-4.42 3.61-8.03 8.03-8.03h87.94c4.42 0 8.03 3.61 8.03 8.03v87.91c0 4.42-3.61 8.03-8.03 8.03z" fill="none" opacity=".61" stroke="#000" stroke-miterlimit="10" stroke-width=".2578"/><path d="m234-13h-72c-4.4 0-8-3.6-8-8v-104c0-4.4 3.6-8 8-8h72c4.4 0 8 3.6 8 8v104c0 4.4-3.6 8-8 8z" fill="none" opacity=".61" stroke="#000" stroke-miterlimit="10" stroke-width=".2628"/><path d="M247.77-29h-99.54 C142.6-29,138-33.6,138-39.23v-67.48c0-5.63,4.6-10.23,10.23-10.23h99.54c5.63,0,10.23,4.6,10.23,10.23v67.48 C258-33.6,253.4-29,247.77-29z" fill="none" opacity=".61" stroke="#000" stroke-miterlimit="10" stroke-width=".2627"/></g><g opacity=".2"><defs><rect id="h" x="134" y="-137" width="128" height="128" opacity=".2"/></defs><clipPath id="c"><use xlink:href="#h"/></clipPath><g clip-path="url(#c)"><g fill="none" stroke="#000" stroke-miterlimit="10" stroke-width=".25"><line x1="106" x2="106" y1="23" y2="-169"/><line x1="110" x2="110" y1="23" y2="-169"/><line x1="114" x2="114" y1="23" y2="-169"/><line x1="118" x2="118" y1="23" y2="-169"/><line x1="122" x2="122" y1="23" y2="-169"/><line x1="126" x2="126" y1="23" y2="-169"/><line x1="130" x2="130" y1="23" y2="-169"/><line x1="134" x2="134" y1="23" y2="-169"/><line x1="138" x2="138" y1="23" y2="-169"/><line x1="142" x2="142" y1="23" y2="-169"/><line x1="146" x2="146" y1="23" y2="-169"/><line x1="150" x2="150" y1="23" y2="-169"/><line x1="154" x2="154" y1="23" y2="-169"/><line x1="158" x2="158" y1="23" y2="-169"/><line x1="162" x2="162" y1="23" y2="-169"/><line x1="166" x2="166" y1="23" y2="-169"/><line x1="170" x2="170" y1="23" y2="-169"/><line x1="174" x2="174" y1="23" y2="-169"/><line x1="178" x2="178" y1="23" y2="-169"/><line x1="182" x2="182" y1="23" y2="-169"/><line x1="186" x2="186" y1="23" y2="-169"/><line x1="190" x2="190" y1="23" y2="-169"/><line x1="194" x2="194" y1="23" y2="-169"/><line x1="198" x2="198" y1="23" y2="-169"/><line x1="202" x2="202" y1="23" y2="-169"/><line x1="206" x2="206" y1="23" y2="-169"/><line x1="210" x2="210" y1="23" y2="-169"/><line x1="214" x2="214" y1="23" y2="-169"/><line x1="218" x2="218" y1="23" y2="-169"/><line x1="222" x2="222" y1="23" y2="-169"/><line x1="226" x2="226" y1="23" y2="-169"/><line x1="230" x2="230" y1="23" y2="-169"/><line x1="234" x2="234" y1="23" y2="-169"/><line x1="238" x2="238" y1="23" y2="-169"/><line x1="242" x2="242" y1="23" y2="-169"/><line x1="246" x2="246" y1="23" y2="-169"/><line x1="250" x2="250" y1="23" y2="-169"/><line x1="254" x2="254" y1="23" y2="-169"/><line x1="258" x2="258" y1="23" y2="-169"/><line x1="262" x2="262" y1="23" y2="-169"/><line x1="266" x2="266" y1="23" y2="-169"/><line x1="270" x2="270" y1="23" y2="-169"/><line x1="271" x2="271" y1="29.05" y2="-162.95"/><line x1="278" x2="278" y1="23" y2="-169"/><line x1="282" x2="282" y1="23" y2="-169"/><line x1="286" x2="286" y1="23" y2="-169"/><line x1="290" x2="290" y1="23" y2="-169"/></g><g fill="none" stroke="#000" stroke-miterlimit="10" stroke-width=".25"><line x1="102" x2="294" y1="-165" y2="-165"/><line x1="102" x2="294" y1="-161" y2="-161"/><line x1="102" x2="294" y1="-157" y2="-157"/><line x1="102" x2="294" y1="-153" y2="-153"/><line x1="102" x2="294" y1="-149" y2="-149"/><line x1="102" x2="294" y1="-145" y2="-145"/><line x1="102" x2="294" y1="-141" y2="-141"/><line x1="102" x2="294" y1="-137" y2="-137"/><line x1="102" x2="294" y1="-133" y2="-133"/><line x1="102" x2="294" y1="-129" y2="-129"/><line x1="102" x2="294" y1="-125" y2="-125"/><line x1="102" x2="294" y1="-121" y2="-121"/><line x1="102" x2="294" y1="-117" y2="-117"/><line x1="102" x2="294" y1="-113" y2="-113"/><line x1="102" x2="294" y1="-109" y2="-109"/><line x1="102" x2="294" y1="-105" y2="-105"/><line x1="102" x2="294" y1="-101" y2="-101"/><line x1="102" x2="294" y1="-97" y2="-97"/><line x1="102" x2="294" y1="-93" y2="-93"/><line x1="102" x2="294" y1="-89" y2="-89"/><line x1="102" x2="294" y1="-85" y2="-85"/><line x1="102" x2="294" y1="-81" y2="-81"/><line x1="102" x2="294" y1="-77" y2="-77"/><line x1="102" x2="294" y1="-73" y2="-73"/><line x1="102" x2="294" y1="-69" y2="-69"/><line x1="102" x2="294" y1="-65" y2="-65"/><line x1="102" x2="294" y1="-61" y2="-61"/><line x1="102" x2="294" y1="-57" y2="-57"/><line x1="102" x2="294" y1="-53" y2="-53"/><line x1="102" x2="294" y1="-49" y2="-49"/><line x1="102" x2="294" y1="-45" y2="-45"/><line x1="102" x2="294" y1="-41" y2="-41"/><line x1="102" x2="294" y1="-37" y2="-37"/><line x1="102" x2="294" y1="-33" y2="-33"/><line x1="102" x2="294" y1="-29" y2="-29"/><line x1="102" x2="294" y1="-25" y2="-25"/><line x1="102" x2="294" y1="-21" y2="-21"/><line x1="102" x2="294" y1="-17" y2="-17"/><line x1="102" x2="294" y1="-13" y2="-13"/><line x1="102" x2="294" y1="-9" y2="-9"/><line x1="102" x2="294" y1="-5" y2="-5"/><line x1="102" x2="294" y1="-1" y2="-1"/><line x1="102" x2="294" y1="3" y2="3"/><line x1="102" x2="294" y1="7" y2="7"/><line x1="102" x2="294" y1="11" y2="11"/><line x1="102" x2="294" y1="15" y2="15"/><line x1="102" x2="294" y1="19" y2="19"/></g><path d="m293.75-168.75v191.5h-191.5v-191.5h191.5m0.25-0.25h-192v192h192v-192z"/></g></g><g fill="#F44336"><rect x="134" y="-137" width="4" height="128" opacity=".3"/><rect x="258" y="-137" width="4" height="128" opacity=".3"/><rect transform="matrix(-1.837e-16 1 -1 -1.837e-16 63 -333)" x="196" y="-195" width="4" height="120" opacity=".3"/><rect transform="matrix(-1.837e-16 1 -1 -1.837e-16 187 -209)" x="196" y="-71" width="4" height="120" opacity=".3"/></g></g><g display="inline"><g opacity=".6"><circle cx="198" cy="64" r="28" fill="none" opacity=".61" stroke="#000" stroke-miterlimit="10" stroke-width=".2625"/><line x1="218" x2="218" y2="128" fill="none" opacity=".61" stroke="#000" stroke-miterlimit="10" stroke-width=".25"/><line x1="178" x2="178" y2="128" fill="none" opacity=".61" stroke="#000" stroke-miterlimit="10" stroke-width=".25"/><line x1="198" x2="198" y2="128" fill="none" opacity=".61" stroke="#000" stroke-miterlimit="10" stroke-width=".25"/><line x1="262" x2="134" y1="64" y2="64" fill="none" opacity=".61" stroke="#000" stroke-miterlimit="10" stroke-width=".25"/><line x1="262" x2="134" y1="44" y2="44" fill="none" opacity=".61" stroke="#000" stroke-miterlimit="10" stroke-width=".25"/><line x1="262" x2="134" y1="83.75" y2="83.75" fill="none" opacity=".61" stroke="#000" stroke-miterlimit="10" stroke-width=".25"/><line x1="262" x2="134" y1="128" fill="none" opacity=".61" stroke="#000" stroke-miterlimit="10" stroke-width=".25"/><line x1="134" x2="262" y1="128" fill="none" opacity=".61" stroke="#000" stroke-miterlimit="10" stroke-width=".25"/><g opacity=".61"><path d="m198 4.26c32.94 0 59.74 26.8 59.74 59.74s-26.8 59.74-59.74 59.74-59.74-26.8-59.74-59.74 26.8-59.74 59.74-59.74m0-0.26c-33.14 0-60 26.86-60 60s26.86 60 60 60 60-26.86 60-60-26.86-60-60-60z"/></g><path d="m241.97 115.97h-87.94c-4.42 0-8.03-3.61-8.03-8.03v-87.91c0-4.42 3.61-8.03 8.03-8.03h87.94c4.42 0 8.03 3.61 8.03 8.03v87.91c0 4.42-3.61 8.03-8.03 8.03z" fill="none" opacity=".61" stroke="#000" stroke-miterlimit="10" stroke-width=".2578"/><path d="m234 124h-72c-4.4 0-8-3.6-8-8v-104c0-4.4 3.6-8 8-8h72c4.4 0 8 3.6 8 8v104c0 4.4-3.6 8-8 8z" fill="none" opacity=".61" stroke="#000" stroke-miterlimit="10" stroke-width=".2628"/><path d="m247.77 108h-99.54c-5.63 0-10.23-4.6-10.23-10.23v-67.49c0-5.63 4.6-10.23 10.23-10.23h99.54c5.63 0 10.23 4.6 10.23 10.23v67.48c0 5.64-4.6 10.24-10.23 10.24z" fill="none" opacity=".61" stroke="#000" stroke-miterlimit="10" stroke-width=".2627"/></g><g opacity=".2"><defs><rect id="j" x="134" width="128" height="128" opacity=".2"/></defs><clipPath id="b"><use xlink:href="#j"/></clipPath><g clip-path="url(#b)"><g fill="none" stroke="#000" stroke-miterlimit="10" stroke-width=".25"><line x1="106" x2="106" y1="160" y2="-32"/><line x1="110" x2="110" y1="160" y2="-32"/><line x1="114" x2="114" y1="160" y2="-32"/><line x1="118" x2="118" y1="160" y2="-32"/><line x1="122" x2="122" y1="160" y2="-32"/><line x1="126" x2="126" y1="160" y2="-32"/><line x1="130" x2="130" y1="160" y2="-32"/><line x1="134" x2="134" y1="160" y2="-32"/><line x1="138" x2="138" y1="160" y2="-32"/><line x1="142" x2="142" y1="160" y2="-32"/><line x1="146" x2="146" y1="160" y2="-32"/><line x1="150" x2="150" y1="160" y2="-32"/><line x1="154" x2="154" y1="160" y2="-32"/><line x1="158" x2="158" y1="160" y2="-32"/><line x1="162" x2="162" y1="160" y2="-32"/><line x1="166" x2="166" y1="160" y2="-32"/><line x1="170" x2="170" y1="160" y2="-32"/><line x1="174" x2="174" y1="160" y2="-32"/><line x1="178" x2="178" y1="160" y2="-32"/><line x1="182" x2="182" y1="160" y2="-32"/><line x1="186" x2="186" y1="160" y2="-32"/><line x1="190" x2="190" y1="160" y2="-32"/><line x1="194" x2="194" y1="160" y2="-32"/><line x1="198" x2="198" y1="160" y2="-32"/><line x1="202" x2="202" y1="160" y2="-32"/><line x1="206" x2="206" y1="160" y2="-32"/><line x1="210" x2="210" y1="160" y2="-32"/><line x1="214" x2="214" y1="160" y2="-32"/><line x1="218" x2="218" y1="160" y2="-32"/><line x1="222" x2="222" y1="160" y2="-32"/><line x1="226" x2="226" y1="160" y2="-32"/><line x1="230" x2="230" y1="160" y2="-32"/><line x1="234" x2="234" y1="160" y2="-32"/><line x1="238" x2="238" y1="160" y2="-32"/><line x1="242" x2="242" y1="160" y2="-32"/><line x1="246" x2="246" y1="160" y2="-32"/><line x1="250" x2="250" y1="160" y2="-32"/><line x1="254" x2="254" y1="160" y2="-32"/><line x1="258" x2="258" y1="160" y2="-32"/><line x1="262" x2="262" y1="160" y2="-32"/><line x1="266" x2="266" y1="160" y2="-32"/><line x1="270" x2="270" y1="160" y2="-32"/><line x1="271" x2="271" y1="166.05" y2="-25.95"/><line x1="278" x2="278" y1="160" y2="-32"/><line x1="282" x2="282" y1="160" y2="-32"/><line x1="286" x2="286" y1="160" y2="-32"/><line x1="290" x2="290" y1="160" y2="-32"/></g><g fill="none" stroke="#000" stroke-miterlimit="10" stroke-width=".25"><line x1="102" x2="294" y1="-28" y2="-28"/><line x1="102" x2="294" y1="-24" y2="-24"/><line x1="102" x2="294" y1="-20" y2="-20"/><line x1="102" x2="294" y1="-16" y2="-16"/><line x1="102" x2="294" y1="-12" y2="-12"/><line x1="102" x2="294" y1="-8" y2="-8"/><line x1="102" x2="294" y1="-4" y2="-4"/><line x1="102" x2="294"/><line x1="102" x2="294" y1="4" y2="4"/><line x1="102" x2="294" y1="8" y2="8"/><line x1="102" x2="294" y1="12" y2="12"/><line x1="102" x2="294" y1="16" y2="16"/><line x1="102" x2="294" y1="20" y2="20"/><line x1="102" x2="294" y1="24" y2="24"/><line x1="102" x2="294" y1="28" y2="28"/><line x1="102" x2="294" y1="32" y2="32"/><line x1="102" x2="294" y1="36" y2="36"/><line x1="102" x2="294" y1="40" y2="40"/><line x1="102" x2="294" y1="44" y2="44"/><line x1="102" x2="294" y1="48" y2="48"/><line x1="102" x2="294" y1="52" y2="52"/><line x1="102" x2="294" y1="56" y2="56"/><line x1="102" x2="294" y1="60" y2="60"/><line x1="102" x2="294" y1="64" y2="64"/><line x1="102" x2="294" y1="68" y2="68"/><line x1="102" x2="294" y1="72" y2="72"/><line x1="102" x2="294" y1="76" y2="76"/><line x1="102" x2="294" y1="80" y2="80"/><line x1="102" x2="294" y1="84" y2="84"/><line x1="102" x2="294" y1="88" y2="88"/><line x1="102" x2="294" y1="92" y2="92"/><line x1="102" x2="294" y1="96" y2="96"/><line x1="102" x2="294" y1="100" y2="100"/><line x1="102" x2="294" y1="104" y2="104"/><line x1="102" x2="294" y1="108" y2="108"/><line x1="102" x2="294" y1="112" y2="112"/><line x1="102" x2="294" y1="116" y2="116"/><line x1="102" x2="294" y1="120" y2="120"/><line x1="102" x2="294" y1="124" y2="124"/><line x1="102" x2="294" y1="128" y2="128"/><line x1="102" x2="294" y1="132" y2="132"/><line x1="102" x2="294" y1="136" y2="136"/><line x1="102" x2="294" y1="140" y2="140"/><line x1="102" x2="294" y1="144" y2="144"/><line x1="102" x2="294" y1="148" y2="148"/><line x1="102" x2="294" y1="152" y2="152"/><line x1="102" x2="294" y1="156" y2="156"/></g><path d="m293.75-31.75v191.5h-191.5v-191.5h191.5m0.25-0.25h-192v192h192v-192z"/></g></g><g fill="#F44336"><rect x="134" width="4" height="128" opacity=".3"/><rect x="258" width="4" height="128" opacity=".3"/><rect transform="matrix(-1.837e-16 1 -1 -1.837e-16 200 -196)" x="196" y="-58" width="4" height="120" opacity=".3"/><rect transform="matrix(-1.837e-16 1 -1 -1.837e-16 324 -72)" x="196" y="66" width="4" height="120" opacity=".3"/></g></g><g display="inline"><g opacity=".6"><circle cx="198" cy="203" r="28" fill="none" opacity=".61" stroke="#000" stroke-miterlimit="10" stroke-width=".2625"/><line x1="218" x2="218" y1="139" y2="267" fill="none" opacity=".61" stroke="#000" stroke-miterlimit="10" stroke-width=".25"/><line x1="178" x2="178" y1="139" y2="267" fill="none" opacity=".61" stroke="#000" stroke-miterlimit="10" stroke-width=".25"/><line x1="198" x2="198" y1="139" y2="267" fill="none" opacity=".61" stroke="#000" stroke-miterlimit="10" stroke-width=".25"/><line x1="262" x2="134" y1="203" y2="203" fill="none" opacity=".61" stroke="#000" stroke-miterlimit="10" stroke-width=".25"/><line x1="262" x2="134" y1="183" y2="183" fill="none" opacity=".61" stroke="#000" stroke-miterlimit="10" stroke-width=".25"/><line x1="262" x2="134" y1="222.75" y2="222.75" fill="none" opacity=".61" stroke="#000" stroke-miterlimit="10" stroke-width=".25"/><line x1="262" x2="134" y1="267" y2="139" fill="none" opacity=".61" stroke="#000" stroke-miterlimit="10" stroke-width=".25"/><line x1="134" x2="262" y1="267" y2="139" fill="none" opacity=".61" stroke="#000" stroke-miterlimit="10" stroke-width=".25"/><g opacity=".61"><path d="m198 143.26c32.94 0 59.74 26.8 59.74 59.74s-26.8 59.74-59.74 59.74-59.74-26.8-59.74-59.74 26.8-59.74 59.74-59.74m0-0.26c-33.14 0-60 26.86-60 60s26.86 60 60 60 60-26.86 60-60-26.86-60-60-60z"/></g><path d="m241.97 254.97h-87.94c-4.42 0-8.03-3.61-8.03-8.03v-87.91c0-4.42 3.61-8.03 8.03-8.03h87.94c4.42 0 8.03 3.61 8.03 8.03v87.91c0 4.42-3.61 8.03-8.03 8.03z" fill="none" opacity=".61" stroke="#000" stroke-miterlimit="10" stroke-width=".2578"/><path d="m234 263h-72c-4.4 0-8-3.6-8-8v-104c0-4.4 3.6-8 8-8h72c4.4 0 8 3.6 8 8v104c0 4.4-3.6 8-8 8z" fill="none" opacity=".61" stroke="#000" stroke-miterlimit="10" stroke-width=".2628"/><path d="m247.77 247h-99.54c-5.63 0-10.23-4.6-10.23-10.23v-67.48c0-5.63 4.6-10.23 10.23-10.23h99.54c5.63 0 10.23 4.6 10.23 10.23v67.48c0 5.63-4.6 10.23-10.23 10.23z" fill="none" opacity=".61" stroke="#000" stroke-miterlimit="10" stroke-width=".2627"/></g><g opacity=".2"><defs><rect id="e" x="134" y="139" width="128" height="128" opacity=".2"/></defs><clipPath id="a"><use xlink:href="#e"/></clipPath><g clip-path="url(#a)"><g fill="none" stroke="#000" stroke-miterlimit="10" stroke-width=".25"><line x1="106" x2="106" y1="299" y2="107"/><line x1="110" x2="110" y1="299" y2="107"/><line x1="114" x2="114" y1="299" y2="107"/><line x1="118" x2="118" y1="299" y2="107"/><line x1="122" x2="122" y1="299" y2="107"/><line x1="126" x2="126" y1="299" y2="107"/><line x1="130" x2="130" y1="299" y2="107"/><line x1="134" x2="134" y1="299" y2="107"/><line x1="138" x2="138" y1="299" y2="107"/><line x1="142" x2="142" y1="299" y2="107"/><line x1="146" x2="146" y1="299" y2="107"/><line x1="150" x2="150" y1="299" y2="107"/><line x1="154" x2="154" y1="299" y2="107"/><line x1="158" x2="158" y1="299" y2="107"/><line x1="162" x2="162" y1="299" y2="107"/><line x1="166" x2="166" y1="299" y2="107"/><line x1="170" x2="170" y1="299" y2="107"/><line x1="174" x2="174" y1="299" y2="107"/><line x1="178" x2="178" y1="299" y2="107"/><line x1="182" x2="182" y1="299" y2="107"/><line x1="186" x2="186" y1="299" y2="107"/><line x1="190" x2="190" y1="299" y2="107"/><line x1="194" x2="194" y1="299" y2="107"/><line x1="198" x2="198" y1="299" y2="107"/><line x1="202" x2="202" y1="299" y2="107"/><line x1="206" x2="206" y1="299" y2="107"/><line x1="210" x2="210" y1="299" y2="107"/><line x1="214" x2="214" y1="299" y2="107"/><line x1="218" x2="218" y1="299" y2="107"/><line x1="222" x2="222" y1="299" y2="107"/><line x1="226" x2="226" y1="299" y2="107"/><line x1="230" x2="230" y1="299" y2="107"/><line x1="234" x2="234" y1="299" y2="107"/><line x1="238" x2="238" y1="299" y2="107"/><line x1="242" x2="242" y1="299" y2="107"/><line x1="246" x2="246" y1="299" y2="107"/><line x1="250" x2="250" y1="299" y2="107"/><line x1="254" x2="254" y1="299" y2="107"/><line x1="258" x2="258" y1="299" y2="107"/><line x1="262" x2="262" y1="299" y2="107"/><line x1="266" x2="266" y1="299" y2="107"/><line x1="270" x2="270" y1="299" y2="107"/><line x1="271" x2="271" y1="305.05" y2="113.05"/><line x1="278" x2="278" y1="299" y2="107"/><line x1="282" x2="282" y1="299" y2="107"/><line x1="286" x2="286" y1="299" y2="107"/><line x1="290" x2="290" y1="299" y2="107"/></g><g fill="none" stroke="#000" stroke-miterlimit="10" stroke-width=".25"><line x1="102" x2="294" y1="111" y2="111"/><line x1="102" x2="294" y1="115" y2="115"/><line x1="102" x2="294" y1="119" y2="119"/><line x1="102" x2="294" y1="123" y2="123"/><line x1="102" x2="294" y1="127" y2="127"/><line x1="102" x2="294" y1="131" y2="131"/><line x1="102" x2="294" y1="135" y2="135"/><line x1="102" x2="294" y1="139" y2="139"/><line x1="102" x2="294" y1="143" y2="143"/><line x1="102" x2="294" y1="147" y2="147"/><line x1="102" x2="294" y1="151" y2="151"/><line x1="102" x2="294" y1="155" y2="155"/><line x1="102" x2="294" y1="159" y2="159"/><line x1="102" x2="294" y1="163" y2="163"/><line x1="102" x2="294" y1="167" y2="167"/><line x1="102" x2="294" y1="171" y2="171"/><line x1="102" x2="294" y1="175" y2="175"/><line x1="102" x2="294" y1="179" y2="179"/><line x1="102" x2="294" y1="183" y2="183"/><line x1="102" x2="294" y1="187" y2="187"/><line x1="102" x2="294" y1="191" y2="191"/><line x1="102" x2="294" y1="195" y2="195"/><line x1="102" x2="294" y1="199" y2="199"/><line x1="102" x2="294" y1="203" y2="203"/><line x1="102" x2="294" y1="207" y2="207"/><line x1="102" x2="294" y1="211" y2="211"/><line x1="102" x2="294" y1="215" y2="215"/><line x1="102" x2="294" y1="219" y2="219"/><line x1="102" x2="294" y1="223" y2="223"/><line x1="102" x2="294" y1="227" y2="227"/><line x1="102" x2="294" y1="231" y2="231"/><line x1="102" x2="294" y1="235" y2="235"/><line x1="102" x2="294" y1="239" y2="239"/><line x1="102" x2="294" y1="243" y2="243"/><line x1="102" x2="294" y1="247" y2="247"/><line x1="102" x2="294" y1="251" y2="251"/><line x1="102" x2="294" y1="255" y2="255"/><line x1="102" x2="294" y1="259" y2="259"/><line x1="102" x2="294" y1="263" y2="263"/><line x1="102" x2="294" y1="267" y2="267"/><line x1="102" x2="294" y1="271" y2="271"/><line x1="102" x2="294" y1="275" y2="275"/><line x1="102" x2="294" y1="279" y2="279"/><line x1="102" x2="294" y1="283" y2="283"/><line x1="102" x2="294" y1="287" y2="287"/><line x1="102" x2="294" y1="291" y2="291"/><line x1="102" x2="294" y1="295" y2="295"/></g><path d="m293.75 107.25v191.5h-191.5v-191.5h191.5m0.25-0.25h-192v192h192v-192z"/></g></g><g fill="#F44336"><rect x="134" y="139" width="4" height="128" opacity=".3"/><rect x="258" y="139" width="4" height="128" opacity=".3"/><rect transform="matrix(-1.837e-16 1 -1 -1.837e-16 339 -57)" x="196" y="81" width="4" height="120" opacity=".3"/><rect transform="matrix(-1.837e-16 1 -1 -1.837e-16 463 67)" x="196" y="205" width="4" height="120" opacity=".3"/></g></g></g></svg>
