<svg width="128" height="128" xmlns="http://www.w3.org/2000/svg"><path d="M13.04 69.34c-4.71 5.42-7.93 9.43-8.25 10.57-1.77 6.23-1.35 14.57 3.53 18.82 3.02 2.63 9.69 4.8 16.19 2.8 3.23-.99 9.46-7.98 10.21-7.83-3.26-11.1-10.76-21.4-21.68-24.36zM63 65c8-7 0-20-4-28-1.72-3.43-4.1-6.85-6.94-9.91-2.51 2.6-5.64 5.87-9.1 9.53C55.23 40.61 65.37 51.55 63 65zM72 55c4.07-6.39 6.45-13.46 8.71-20.62-4.81-4.55-8.62-7.53-10.39-7.59-.36-1.98-.94-3.95-2.22-5.49a9.386 9.386 0 0 0-1.7-1.62C70.42 31.12 72.8 43.06 72 55z" fill="#404040"/><path d="M41.02 38.69c-9.37 9.95-20.54 22.07-27.99 30.65.79.21 1.55.48 2.31.76 3.16-1.06 6.41-2.02 9.67-3.1 12.25-5.05 13.59-16.86 16.01-28.31zM53 68c3.89 5.45 8.98 12.12 10.58 19.05 1.39-1.26 2.36-2.44 3.01-3.35C64.47 76.54 60.95 68.79 53 68z" fill="#404040"/><linearGradient id="a" gradientUnits="userSpaceOnUse" x1="61.868" x2="61.868" y1="17.838" y2="94.664"><stop offset=".232" stop-color="#fff"/></linearGradient><path d="M70.23 91.93c13.05-8.66 25.55-18.41 38.18-27.92-1.53-1.74-3.12-3.55-4.74-5.37C94.24 66.5 84.54 74.28 73 77c.74-13.3 8.03-24.41 14.61-35.77-2.44-2.51-4.77-4.84-6.9-6.85C78.45 41.54 76.07 48.61 72 55c.8-11.94-1.58-23.88-5.61-35.32-3.05-2.21-5.93-.65-8.5 1.56-.71.61-2.83 2.75-5.83 5.85C54.9 30.15 57.28 33.57 59 37c4 8 12 21 4 28 2.37-13.45-7.77-24.39-20.04-28.37-.64.67-1.29 1.36-1.94 2.06C38.6 50.14 37.26 61.95 25 67c-3.25 1.08-6.51 2.04-9.67 3.1 9.68 3.7 16.36 13.3 19.38 23.59 1.76.33 5.35.85 9.68.65.77-.04 1.57-.1 2.38-.18C44.84 82.24 33.47 74.76 23 70c13.13 2.63 29.31 7.55 35.16 20.8 2.26-1.18 4.04-2.5 5.42-3.74C61.98 80.12 56.89 73.45 53 68c7.95.79 11.47 8.54 13.59 15.7.73-1.03 1.04-1.7 1.04-1.7l2.6 9.93z" fill="url(#a)"/><linearGradient id="b" gradientUnits="userSpaceOnUse" x1="91.005" x2="91.005" y1="44.227" y2="68.085"><stop offset=".232" stop-color="#fff"/></linearGradient><path d="M100.01 54.57c-3.1-3.44-6.25-6.87-9.31-10.1-4.04 7.4-7.64 15.04-8.7 23.53 5.74-4.78 11.71-9.33 18.01-13.43z" fill="url(#b)"/><path d="M82 68c1.06-8.49 4.66-16.13 8.7-23.53-1.04-1.1-2.08-2.19-3.09-3.23C81.03 52.59 73.74 63.7 73 77c11.54-2.72 21.24-10.5 30.66-18.36-1.2-1.35-2.42-2.71-3.65-4.08C93.71 58.67 87.74 63.22 82 68zM23 70c10.47 4.76 21.84 12.24 23.77 24.16 2.49-.27 5.14-.8 7.78-1.76.25-.09.48-.19.73-.29 1.04-.41 1.99-.85 2.88-1.32C52.31 77.55 36.13 72.63 23 70zM108.41 64.01c-12.63 9.5-25.13 19.26-38.18 27.92L72.86 102c12.9-11.56 25.41-23.13 38.42-34.69-.93-1.07-1.89-2.17-2.87-3.3zM118.35 75.51c-13.5 12-29.5 22.46-43.44 34.31l2.51 9.58c3.5-1.8 6.34-4.81 9.59-7.41 11.05-11.84 22.72-22.42 34.52-32.75-.88-1.02-1.95-2.28-3.18-3.73z" fill="#404040"/><linearGradient id="c" gradientUnits="userSpaceOnUse" x1="100.707" x2="100.707" y1="78.791" y2="124.162"><stop offset=".232" stop-color="#fff"/></linearGradient><path d="M124 82.2s-.91-1.09-2.48-2.95C109.72 89.58 98.05 100.16 87 112c-3.25 2.6-6.08 5.85-9.59 7.65l1.08 4.35h10.97c11.32-14 24.51-26.2 34.54-40.79V82.2z" fill="url(#c)"/><path d="M124 83.21C113.96 97.8 100.78 110 89.46 124h17.83c4.09-12 10.41-22.08 16.72-32.57v-8.22z" fill="#404040"/><linearGradient id="d" gradientUnits="userSpaceOnUse" x1="115.642" x2="115.642" y1="91.097" y2="124.118"><stop offset=".232" stop-color="#fff"/></linearGradient><path d="M124 91.43c-6.3 10.49-12.62 20.57-16.72 32.57H124V91.43z" fill="url(#d)"/><linearGradient id="e" gradientUnits="userSpaceOnUse" x1="95.604" x2="95.604" y1="66.87" y2="109.982"><stop offset=".232" stop-color="#fff"/></linearGradient><path d="M111.28 67.31c-13 11.56-25.51 23.13-38.42 34.69l2.05 7.83c13.94-11.85 29.94-22.31 43.44-34.31-1.99-2.33-4.4-5.14-7.07-8.21z" fill="url(#e)"/><path d="M63.65 21.43c.7 0 1.51.55 2.41 1.63.79.95 1.08 2.5 1.38 4.14.25 1.37 1.32 2.38 2.7 2.46C73.97 30.48 94 48.74 121 78.07V121H80.84l-10.3-39.27c-.33-1.25-1.4-2.17-2.69-2.25-.07 0-.12-.01-.19-.01-1.22 0-2.31.72-2.77 1.86-.1.22-2.44 5.45-10.93 8.52-3.34 1.21-7.09 1.82-11.14 1.82-3.26 0-5.9-.41-7.19-.65-.18-.04-.4-.05-.58-.05-1.5 0-2.37.79-4.93 3.15-1.58 1.45-4.86 4.46-6.18 4.87-1.4.43-2.89.65-4.42.65-3.93 0-7.34-1.44-8.97-2.86-3.73-3.26-4.17-10.36-2.68-15.74.19-.36 1.35-2.31 7.66-9.61 14.5-16.74 41.89-45.68 44.67-48.09 1.5-1.28 2.63-1.91 3.45-1.91m0-3.01c-1.9 0-3.71 1.19-5.41 2.66-2.99 2.59-30.74 31.96-44.98 48.4-4.73 5.46-7.92 9.49-8.25 10.64-1.78 6.27-1.34 14.66 3.56 18.94 2.2 1.92 6.35 3.6 10.95 3.6 1.73 0 3.52-.24 5.31-.79 3.21-.99 9.38-7.89 10.23-7.89h.02c1.49.28 4.29.71 7.75.71 3.6 0 7.9-.46 12.17-2.01 10.02-3.63 12.68-10.19 12.68-10.19L78.52 124h45.49V76.89S78.02 26.91 70.32 26.65c-.36-1.99-.69-3.98-1.98-5.52-1.64-1.96-3.18-2.71-4.69-2.71z" fill="#787878"/><ellipse cx="50.79" cy="55.04" rx="6.5" ry="7.35" fill="#404040"/><path d="M45.5 10.25l6 17.5s2.74.11 7.46 1.44c-.11-7.23-.53-14.46-2.11-21.7-3.75.52-7.53 1.44-11.35 2.76z" fill="#404040"/><path d="M56.85 7.49c1.58 7.23 2 14.46 2.11 21.7 2.52.71 5.63 1.78 9.17 3.36 1.71-8.04 1.86-16.6 1.87-25.2-4.34-.51-8.72-.48-13.15.14z" fill="#c7c7c7"/><path d="M70 7.34c-.01 8.6-.16 17.16-1.87 25.2 3.36 1.49 7.12 3.46 11.18 6.02 1.99-8.77 5.94-17.59 5.81-27.11-5-2.14-10.03-3.51-15.12-4.11z" fill="#404040"/><path d="M85.12 11.46c.13 9.52-3.82 18.33-5.81 27.11 3.44 2.17 7.1 4.79 10.93 7.92 4.15-8.51 7.94-17.72 7.87-27.64-4.31-3.06-8.63-5.52-12.99-7.39z" fill="#c7c7c7"/><path d="M101.67 21.5a90.71 90.71 0 0 0-3.55-2.65c.07 9.91-3.72 19.13-7.87 27.64 1.07.88 2.16 1.8 3.26 2.76 2.69 2.36 5.13 4.67 7.39 6.92 5.13-8.4 8.51-17.34 9.75-26.83-2.51-2.45-5.47-5.07-8.98-7.84z" fill="#404040"/><path d="M110.64 29.34c-1.25 9.49-4.63 18.43-9.75 26.83 3.28 3.28 6.12 6.42 8.58 9.37 4.96-7.62 9.04-15.78 10.76-24.76-2-3.1-5.02-6.97-9.59-11.44z" fill="#c7c7c7"/><path d="M124 48.83s-.49-2.97-3.77-8.06c-1.73 8.98-5.8 17.14-10.76 24.76 3.18 3.81 5.69 7.3 7.69 10.36 2.91-4.54 5.03-9.34 6.85-14.24V48.83z" fill="#404040"/><path d="M124 61.66c-1.82 4.9-3.94 9.7-6.85 14.24C122.39 83.93 124 89 124 89V61.66z" fill="#c7c7c7"/><path d="M64.1 9.98c12.19 0 23.87 4.54 35.71 13.88 17.7 13.96 20.83 23.92 21.19 25.3v27.16c-4.6-7.46-12.48-17.84-25.52-29.31-19.82-17.45-36.12-21.23-41.76-22.04l-4.39-12.8c5-1.46 9.95-2.19 14.77-2.19m0-3c-6.11 0-12.3 1.09-18.6 3.27l6 17.5s18.37.72 42 21.5C118.42 71.17 124 89 124 89V48.83s-1.83-11.17-22.33-27.33C89.35 11.79 76.9 6.98 64.1 6.98z" fill="#4d4d4d"/><path d="M18.79 77.23c1.62.43 2.72 2.09 2.81 3.76.09 1.67-.7 3.29-1.84 4.52-1.36 1.48-3.34 1.32-3.84-.86-.26-1.12.87-2.6.6-3.85-.31-1.41-4.55-1.14-1.9-2.69 1.2-.7 2.78-1.25 4.17-.88z" fill="#0f0f0f"/><g><linearGradient id="f" gradientUnits="userSpaceOnUse" x1="68.18" x2="68.18" y1="9.25" y2="40.581"><stop offset=".095" stop-color="#bababa"/></linearGradient><path d="M67.98 10.25c1.15-1.83 3.97-1.6 4.79.39 3.95 9.68 10.97 31.33-5.64 30.58-16.35-.74-4.91-21.82.85-30.97z" fill="url(#f)"/><path d="M72.38 26.68c.09 1.54.04 3.14-.59 4.57s-1.98 2.64-3.5 2.69c-1.7.05-3.12-1.37-3.61-3.01s-.25-3.43.09-5.14c.39-1.98 3.06-8.36 5.42-12.16.71-1.17 2.08 11.17 2.19 13.05z" fill="#595959"/></g></svg>