<svg enable-background="new 0 0 128 128" viewBox="0 0 128 128" xmlns="http://www.w3.org/2000/svg" xmlns:xlink="http://www.w3.org/1999/xlink"><linearGradient id="d" x1="5.7306" x2="97.602" y1="93.106" y2="93.106" gradientTransform="matrix(1 -.0021637 .0021637 1 -1.0832 -.0116)" gradientUnits="userSpaceOnUse"><stop stop-color="#eee" offset="0"/><stop stop-color="#BDBDBD" offset="1"/></linearGradient><path d="m52.08 87.75c-2.63-1.77-6.18-3.49-9.76-2.71-9.89 2.14-37.49-9.76-37.49-9.76s-1.48 22.75 20.62 31.1c26.94 10.19 57.51 1.81 71.26-16.42 0.21-0.26-27.75 9.18-44.63-2.21z" fill="url(#d)"/><radialGradient id="b" cx="31.966" cy="46.364" r="59.796" gradientTransform="matrix(.9896 -.0021704 .0021413 1.0031 -.0325 -.1402)" gradientUnits="userSpaceOnUse"><stop stop-color="#81D4FA" offset="0"/><stop stop-color="#1B99DE" offset="1"/></radialGradient><path d="m115.04 50.78c-5.5-1.2-6.93-1.47-9.24-0.27-0.96 0.5-2.07 0.04-2.48-0.96-1.48-3.64-10.35-5.79-13.39-6.84-1.53-0.53-2.49 0.68-2.4 2.29 0.07 1.3 2.99 8.46 6.06 10.87 12.33 9.64 0.86 28.36-15.91 22.36-12.33-4.41 2-27.97-11.67-33.69-11.08-4.63-43.54-16.22-52.29-5.02-6.4 8.2-8.86 35.64-8.86 35.64s13.91 9.3 37.42 10.61c0.37 0.02-0.04 4.62 2.66 10.37 9.52 20.29 28.98 20.58 27.33 18.11-11.08-16.59-13.21-23.2-13.07-23.12 7.78 3.89 33.38 5.14 37.49-1.16 9.03-13.85 4.64-27.23 10.43-27.96 6.59-0.83 12.28-2.48 16.56-7.28 1.05-1.18 0.02-2.98-1.54-2.81-1.7 0.18-3.83-0.43-7.1-1.14z" fill="url(#b)"/><path d="m38.46 67.91c0.66 2.7-0.96 5.43-3.62 6.1s-5.36-0.97-6.02-3.67 0.96-5.43 3.62-6.1 5.36 0.97 6.02 3.67z" fill="#fff"/><path d="m34.9 66.84c1.25 0.71 1.69 2.31 0.99 3.57s-2.28 1.71-3.52 1.01-1.69-2.31-0.99-3.57c0.7-1.27 2.28-1.72 3.52-1.01z"/><path d="m12.37 82.76s0.24 0.42 0.6 1.16c0.17 0.38 0.42 0.82 0.68 1.3 0.25 0.49 0.55 1.03 0.89 1.62 0.32 0.59 0.72 1.21 1.11 1.87 0.38 0.66 0.89 1.3 1.31 2 0.49 0.67 0.99 1.36 1.52 2.04 0.5 0.7 1.1 1.35 1.67 2.01 0.59 0.64 1.16 1.32 1.79 1.9 0.61 0.61 1.22 1.2 1.84 1.76 0.64 0.51 1.22 1.09 1.83 1.55s1.16 0.94 1.72 1.32c0.54 0.41 1.05 0.77 1.52 1.08 0.46 0.31 0.86 0.61 1.21 0.82 0.68 0.44 1.08 0.73 1.08 0.73l-0.06 0.17s-0.44-0.16-1.2-0.44c-0.39-0.13-0.84-0.33-1.36-0.56-0.52-0.22-1.1-0.49-1.71-0.83-0.63-0.31-1.27-0.71-1.95-1.13-0.68-0.41-1.36-0.93-2.06-1.44-0.68-0.55-1.39-1.11-2.05-1.75-0.69-0.6-1.31-1.3-1.96-1.97-0.59-0.72-1.2-1.43-1.72-2.18-0.56-0.73-1.01-1.51-1.49-2.24-0.41-0.77-0.86-1.49-1.18-2.22-0.35-0.72-0.66-1.41-0.9-2.07-0.27-0.64-0.47-1.25-0.63-1.8-0.18-0.54-0.32-1.01-0.4-1.41-0.19-0.79-0.3-1.24-0.3-1.24l0.2-0.05z" fill="#BDBDBD"/><path d="m19.88 84.1s0.27 0.42 0.69 1.16c0.2 0.38 0.48 0.82 0.77 1.31 0.29 0.5 0.62 1.04 1 1.64 0.36 0.6 0.8 1.23 1.23 1.89 0.42 0.67 0.96 1.32 1.43 2.04 0.52 0.69 1.07 1.39 1.63 2.09 0.54 0.72 1.17 1.38 1.77 2.07 0.62 0.67 1.22 1.36 1.88 1.97 0.64 0.64 1.27 1.25 1.91 1.84 0.66 0.54 1.26 1.14 1.88 1.63s1.19 1 1.76 1.41c0.55 0.43 1.07 0.83 1.54 1.16 0.47 0.34 0.87 0.66 1.22 0.89 0.69 0.49 1.09 0.79 1.09 0.79l-0.07 0.17s-0.44-0.19-1.22-0.51c-0.39-0.15-0.85-0.37-1.38-0.64-0.53-0.25-1.12-0.55-1.74-0.92-0.64-0.34-1.29-0.77-1.98-1.22-0.7-0.44-1.38-0.98-2.11-1.52-0.69-0.58-1.43-1.15-2.11-1.81-0.71-0.63-1.36-1.34-2.03-2.03-0.62-0.74-1.26-1.46-1.81-2.23-0.59-0.74-1.08-1.54-1.59-2.28-0.45-0.78-0.93-1.51-1.3-2.25-0.39-0.73-0.74-1.43-1.02-2.09-0.31-0.65-0.54-1.27-0.74-1.82-0.21-0.55-0.39-1.03-0.5-1.43-0.25-0.8-0.39-1.26-0.39-1.26l0.19-0.05z" fill="#BDBDBD"/><path d="m28.72 87.8s0.27 0.41 0.7 1.14c0.2 0.38 0.48 0.8 0.78 1.28 0.29 0.48 0.64 1.01 1.03 1.58 0.37 0.58 0.82 1.17 1.28 1.8 0.44 0.64 1.01 1.24 1.5 1.92 0.55 0.64 1.13 1.29 1.73 1.93 0.58 0.67 1.24 1.26 1.88 1.88 0.66 0.6 1.3 1.23 2 1.75 0.68 0.56 1.36 1.09 2.04 1.59 0.71 0.45 1.35 0.97 2.02 1.37s1.28 0.82 1.89 1.15c0.6 0.35 1.15 0.66 1.66 0.91 0.5 0.26 0.94 0.52 1.32 0.68 0.75 0.36 1.18 0.6 1.18 0.6l-0.04 0.18s-0.46-0.11-1.27-0.3c-0.41-0.08-0.89-0.23-1.44-0.41-0.56-0.16-1.17-0.37-1.83-0.65-0.67-0.24-1.37-0.58-2.1-0.93-0.74-0.34-1.47-0.8-2.25-1.24-0.74-0.49-1.53-0.98-2.26-1.56-0.76-0.54-1.46-1.19-2.18-1.81-0.67-0.68-1.36-1.33-1.95-2.05-0.64-0.69-1.17-1.44-1.71-2.14-0.49-0.74-1-1.44-1.39-2.16-0.41-0.7-0.79-1.38-1.08-2.03-0.33-0.63-0.57-1.24-0.78-1.78-0.22-0.54-0.4-1.01-0.52-1.4-0.25-0.79-0.4-1.24-0.4-1.24l0.19-0.06z" fill="#BDBDBD"/><path d="m122.17 51.92c-1.73 0.18-3.86-0.43-7.13-1.14-5.5-1.2-6.93-1.47-9.24-0.27-0.96 0.5-2.07 0.04-2.48-0.96-1.48-3.64-10.35-5.79-13.39-6.84-1.53-0.53-2.49 0.68-2.4 2.29 0.07 1.3 2.99 8.46 6.06 10.87 12.33 9.64 0.86 28.36-15.91 22.36-12.33-4.41 2-27.97-11.67-33.69-11.08-4.63-43.54-16.22-52.29-5.02-6.4 8.2-8.91 35.77-8.91 35.77s-1.48 22.75 20.62 31.1c10.27 3.88 21.06 5.06 31.25 4.03 8.45 5.88 16.69 5.47 15.6 3.82-1.46-2.18-2.75-4.19-3.92-6.03 11.46-3.24 21.4-9.41 27.87-17.66 0.18-0.19 0.34-0.39 0.47-0.59 9.03-13.85 4.64-27.23 10.43-27.96 6.59-0.83 12.28-2.48 16.56-7.28 1.07-1.17 0.04-2.97-1.52-2.8z" fill="none" stroke="#3592CA" stroke-linecap="round" stroke-linejoin="round" stroke-miterlimit="10" stroke-width="3"/><g display="none"><g display="inline"><g opacity=".6"><circle cx="64" cy="64" r="28" fill="none" opacity=".61" stroke="#000" stroke-miterlimit="10" stroke-width=".2625"/><line x1="84" x2="84" y2="128" fill="none" opacity=".61" stroke="#000" stroke-miterlimit="10" stroke-width=".25"/><line x1="44" x2="44" y2="128" fill="none" opacity=".61" stroke="#000" stroke-miterlimit="10" stroke-width=".25"/><line x1="64" x2="64" y2="128" fill="none" opacity=".61" stroke="#000" stroke-miterlimit="10" stroke-width=".25"/><line x1="128" y1="64" y2="64" fill="none" opacity=".61" stroke="#000" stroke-miterlimit="10" stroke-width=".25"/><line x1="128" y1="44" y2="44" fill="none" opacity=".61" stroke="#000" stroke-miterlimit="10" stroke-width=".25"/><line x1="128" y1="83.75" y2="83.75" fill="none" opacity=".61" stroke="#000" stroke-miterlimit="10" stroke-width=".25"/><line x1="128" y1="128" fill="none" opacity=".61" stroke="#000" stroke-miterlimit="10" stroke-width=".25"/><line x2="128" y1="128" fill="none" opacity=".61" stroke="#000" stroke-miterlimit="10" stroke-width=".25"/><g opacity=".61"><path d="M64,4.26c32.94,0,59.74,26.8,59.74,59.74S96.94,123.74,64,123.74S4.26,96.94,4.26,64S31.06,4.26,64,4.26 M64,4 C30.86,4,4,30.86,4,64s26.86,60,60,60s60-26.86,60-60S97.14,4,64,4L64,4z"/></g><path d="m107.97 115.97h-87.94c-4.42 0-8.03-3.61-8.03-8.03v-87.91c0-4.42 3.61-8.03 8.03-8.03h87.94c4.42 0 8.03 3.61 8.03 8.03v87.91c0 4.42-3.61 8.03-8.03 8.03z" fill="none" opacity=".61" stroke="#000" stroke-miterlimit="10" stroke-width=".2578"/><path d="m100 124h-72c-4.4 0-8-3.6-8-8v-104c0-4.4 3.6-8 8-8h72c4.4 0 8 3.6 8 8v104c0 4.4-3.6 8-8 8z" fill="none" opacity=".61" stroke="#000" stroke-miterlimit="10" stroke-width=".2628"/><path d="M113.77,108H14.23 C8.6,108,4,103.4,4,97.77V30.28c0-5.63,4.6-10.23,10.23-10.23h99.54c5.63,0,10.23,4.6,10.23,10.23v67.48 C124,103.4,119.4,108,113.77,108z" fill="none" opacity=".61" stroke="#000" stroke-miterlimit="10" stroke-width=".2627"/></g><g opacity=".2"><defs><rect id="c" width="128" height="128" opacity=".2"/></defs><clipPath id="a"><use xlink:href="#c"/></clipPath><g clip-path="url(#a)"><g fill="none" stroke="#000" stroke-miterlimit="10" stroke-width=".25"><line x1="-28" x2="-28" y1="160" y2="-32"/><line x1="-24" x2="-24" y1="160" y2="-32"/><line x1="-20" x2="-20" y1="160" y2="-32"/><line x1="-16" x2="-16" y1="160" y2="-32"/><line x1="-12" x2="-12" y1="160" y2="-32"/><line x1="-8" x2="-8" y1="160" y2="-32"/><line x1="-4" x2="-4" y1="160" y2="-32"/><line y1="160" y2="-32"/><line x1="4" x2="4" y1="160" y2="-32"/><line x1="8" x2="8" y1="160" y2="-32"/><line x1="12" x2="12" y1="160" y2="-32"/><line x1="16" x2="16" y1="160" y2="-32"/><line x1="20" x2="20" y1="160" y2="-32"/><line x1="24" x2="24" y1="160" y2="-32"/><line x1="28" x2="28" y1="160" y2="-32"/><line x1="32" x2="32" y1="160" y2="-32"/><line x1="36" x2="36" y1="160" y2="-32"/><line x1="40" x2="40" y1="160" y2="-32"/><line x1="44" x2="44" y1="160" y2="-32"/><line x1="48" x2="48" y1="160" y2="-32"/><line x1="52" x2="52" y1="160" y2="-32"/><line x1="56" x2="56" y1="160" y2="-32"/><line x1="60" x2="60" y1="160" y2="-32"/><line x1="64" x2="64" y1="160" y2="-32"/><line x1="68" x2="68" y1="160" y2="-32"/><line x1="72" x2="72" y1="160" y2="-32"/><line x1="76" x2="76" y1="160" y2="-32"/><line x1="80" x2="80" y1="160" y2="-32"/><line x1="84" x2="84" y1="160" y2="-32"/><line x1="88" x2="88" y1="160" y2="-32"/><line x1="92" x2="92" y1="160" y2="-32"/><line x1="96" x2="96" y1="160" y2="-32"/><line x1="100" x2="100" y1="160" y2="-32"/><line x1="104" x2="104" y1="160" y2="-32"/><line x1="108" x2="108" y1="160" y2="-32"/><line x1="112" x2="112" y1="160" y2="-32"/><line x1="116" x2="116" y1="160" y2="-32"/><line x1="120" x2="120" y1="160" y2="-32"/><line x1="124" x2="124" y1="160" y2="-32"/><line x1="128" x2="128" y1="160" y2="-32"/><line x1="132" x2="132" y1="160" y2="-32"/><line x1="136" x2="136" y1="160" y2="-32"/><line x1="137" x2="137" y1="166.05" y2="-25.95"/><line x1="144" x2="144" y1="160" y2="-32"/><line x1="148" x2="148" y1="160" y2="-32"/><line x1="152" x2="152" y1="160" y2="-32"/><line x1="156" x2="156" y1="160" y2="-32"/></g><g fill="none" stroke="#000" stroke-miterlimit="10" stroke-width=".25"><line x1="-32" x2="160" y1="-28" y2="-28"/><line x1="-32" x2="160" y1="-24" y2="-24"/><line x1="-32" x2="160" y1="-20" y2="-20"/><line x1="-32" x2="160" y1="-16" y2="-16"/><line x1="-32" x2="160" y1="-12" y2="-12"/><line x1="-32" x2="160" y1="-8" y2="-8"/><line x1="-32" x2="160" y1="-4" y2="-4"/><line x1="-32" x2="160"/><line x1="-32" x2="160" y1="4" y2="4"/><line x1="-32" x2="160" y1="8" y2="8"/><line x1="-32" x2="160" y1="12" y2="12"/><line x1="-32" x2="160" y1="16" y2="16"/><line x1="-32" x2="160" y1="20" y2="20"/><line x1="-32" x2="160" y1="24" y2="24"/><line x1="-32" x2="160" y1="28" y2="28"/><line x1="-32" x2="160" y1="32" y2="32"/><line x1="-32" x2="160" y1="36" y2="36"/><line x1="-32" x2="160" y1="40" y2="40"/><line x1="-32" x2="160" y1="44" y2="44"/><line x1="-32" x2="160" y1="48" y2="48"/><line x1="-32" x2="160" y1="52" y2="52"/><line x1="-32" x2="160" y1="56" y2="56"/><line x1="-32" x2="160" y1="60" y2="60"/><line x1="-32" x2="160" y1="64" y2="64"/><line x1="-32" x2="160" y1="68" y2="68"/><line x1="-32" x2="160" y1="72" y2="72"/><line x1="-32" x2="160" y1="76" y2="76"/><line x1="-32" x2="160" y1="80" y2="80"/><line x1="-32" x2="160" y1="84" y2="84"/><line x1="-32" x2="160" y1="88" y2="88"/><line x1="-32" x2="160" y1="92" y2="92"/><line x1="-32" x2="160" y1="96" y2="96"/><line x1="-32" x2="160" y1="100" y2="100"/><line x1="-32" x2="160" y1="104" y2="104"/><line x1="-32" x2="160" y1="108" y2="108"/><line x1="-32" x2="160" y1="112" y2="112"/><line x1="-32" x2="160" y1="116" y2="116"/><line x1="-32" x2="160" y1="120" y2="120"/><line x1="-32" x2="160" y1="124" y2="124"/><line x1="-32" x2="160" y1="128" y2="128"/><line x1="-32" x2="160" y1="132" y2="132"/><line x1="-32" x2="160" y1="136" y2="136"/><line x1="-32" x2="160" y1="140" y2="140"/><line x1="-32" x2="160" y1="144" y2="144"/><line x1="-32" x2="160" y1="148" y2="148"/><line x1="-32" x2="160" y1="152" y2="152"/><line x1="-32" x2="160" y1="156" y2="156"/></g><path d="m159.75-31.75v191.5h-191.5v-191.5h191.5m0.25-0.25h-192v192h192v-192z"/></g></g><g fill="#F44336"><rect width="4" height="128" opacity=".3"/><rect x="124" width="4" height="128" opacity=".3"/><rect transform="matrix(-1.837e-16 1 -1 -1.837e-16 66 -62)" x="62" y="-58" width="4" height="120" opacity=".3"/><rect transform="matrix(-1.837e-16 1 -1 -1.837e-16 190 62)" x="62" y="66" width="4" height="120" opacity=".3"/></g></g></g></svg>
