<svg enable-background="new 0 0 128 128" viewBox="0 0 128 128" xmlns="http://www.w3.org/2000/svg" xmlns:xlink="http://www.w3.org/1999/xlink"><linearGradient id="g" x1="21.603" x2="59.97" y1="59.213" y2="21.094" gradientUnits="userSpaceOnUse"><stop stop-color="#FBE2BF" offset="0"/><stop stop-color="#F4DBB8" offset=".2283"/><stop stop-color="#E1C9A5" offset=".5568"/><stop stop-color="#C2AC86" offset=".9441"/><stop stop-color="#BDA781" offset="1"/></linearGradient><path d="M83,47c0,0-22.5-29.25-28.33-35.83c-9.77-11.03-26.64-3.66-35.83,2.67 C8.67,20.83,0.78,34.73,8.33,45c2.14,2.91,6.65,7.45,9.17,10.17c7.87,8.49,14.84,14.36,21.13,21.14C46.94,85.27,83,47,83,47z" fill="url(#g)"/><path d="m54.67 50.25c0.78 0.63 0.82 1.95 0.11 2.64-0.72 0.69-2.02 0.61-2.66-0.15s-0.5-2.05 0.28-2.67 2.04-0.49 2.69 0.28" fill="#C59278"/><path d="m30.14 55.61c0.78 0.63 0.82 1.95 0.11 2.64s-2.02 0.61-2.66-0.15-0.5-2.05 0.28-2.67 2.04-0.49 2.69 0.28" fill="#C59278" opacity=".59"/><path d="m64.28 54.75c0.78 0.63 0.82 1.95 0.11 2.64-0.72 0.69-2.02 0.61-2.66-0.15s-0.5-2.05 0.28-2.67 2.04-0.49 2.69 0.28" fill="#C59278"/><path d="m58.11 34.59c0.54 1.36 2.29 2.05 3.64 1.51 1.36-0.54 2.14-2.18 1.79-3.59l-0.39-0.42c-0.98-0.66-2.16-1.24-3.31-0.96-1.42 0.35-2.27 2.1-1.73 3.46zm1.36-2.18c0.78-0.62 2.05-0.49 2.69 0.28l-0.41-0.1c0.78 0.63 0.82 1.95 0.11 2.64-0.72 0.69-2.02 0.61-2.66-0.15-0.65-0.76-0.51-2.05 0.27-2.67z" fill="#C59278"/><path d="m44.45 65.57c0.73 1.83 3.09 2.78 4.93 2.04 1.83-0.73 2.89-2.94 2.42-4.86l-0.53-0.56c-1.33-0.89-2.92-1.67-4.48-1.29-1.92 0.46-3.08 2.83-2.34 4.67zm1.83-2.95c1.05-0.84 2.76-0.66 3.63 0.37l-0.56-0.14c1.05 0.85 1.11 2.64 0.15 3.57-0.97 0.94-2.73 0.83-3.6-0.2-0.86-1.02-0.67-2.76 0.38-3.6z" fill="#C59278" opacity=".65"/><polygon points="30.17 68 33.83 67.17 41.83 67.33 49.67 64 57.67 63.33 62.33 57.5 70.83 50.17 72 37.25 72.5 34.5 75.5 49.5 60.33 65.67 38.67 72.67" fill="#616161"/><defs><path id="c" d="m44.83 37.67c2.71-2.72 1.79-5.48 7.17-11.33 3.08-3.35 4.93-4.38 4.31-8.05-1.05-6.2-6.54-11.73-12.64-12.84s-12.12 1.73-18 4.23c-6.52 2.77-10.83 7.13-14.73 13.17-2.8 4.34-4.99 9.6-3.77 14.5 1.37 5.42 4.78 9.73 9.83 10.65 6.45 1.17 7.5 3.33 14-2 3.36-2.76 9.51-4 13.83-8.33z"/></defs><use fill="#99543D" xlink:href="#c"/><clipPath id="a"><use xlink:href="#c"/></clipPath><path d="m25.66 18.28c-1.03-0.43-1.97-0.3-2.74 0.15-0.07-0.23-0.15-0.46-0.26-0.68-1.2-2.42-4.32-3.5-6.99-1.8-1.32 0.84-2.18 2.09-2.48 3.4-0.99 0.38-1.87 1.14-2.23 2.11-0.32 0.84-0.31 1.68-0.05 2.39-2.42 0.8-4.5 2.78-4.9 5.32-0.18 1.12 0.09 2.24 0.64 3.18-2.3 3-2.82 7.19-0.19 9.63-0.25 0.56-0.43 1.16-0.51 1.81-0.36 2.97 1.65 5.85 4.8 5.93 3.54 0.09 6.21-3.38 6.55-6.53 0.12-1.11 0.03-2.15-0.23-3.12h0.05c2.24-0.31 4.4-1.74 5.9-3.55 1.35-0.83 2.45-2.11 3.03-3.64 0.43-1.13 0.53-2.23 0.41-3.29 0.25-0.19 0.49-0.39 0.71-0.62 1.28-1.3 1.8-2.83 1.74-4.3 1.34-2.57-0.74-5.35-3.25-6.39z" clip-path="url(#a)" fill="#59A822"/><g clip-path="url(#a)"><path d="m31.6 8.12c-3.08-1.93-7.2-1.79-9.83 2.19-0.25 0.38-0.46 0.76-0.62 1.14-2.39 1.18-4.26 3.34-4.68 6.32-0.19 1.34-0.05 2.56 0.32 3.66-0.85 2.01-1 4.28-0.16 6.49 0.44 1.61 1.34 3.09 2.64 4.2-1.45 1.1-2.48 2.73-2.8 4.54-0.6 3.44 1.53 6.56 4.86 7.44 3.45 0.91 7.05-0.65 8.86-3.74 1.39-2.39 1.29-5.32 0.12-7.69 1.94-0.07 3.94-1.11 5.29-3.5 1.35-2.4 1.28-4.99 0.32-7.29 0.01-0.01 0.02-0.03 0.02-0.04 1.31-0.96 2.43-2.14 3.17-3.67 1.44-3.01 0.87-6.65-1.68-8.77-1.94-1.62-4.04-1.88-5.83-1.28z" fill="#FFDE3C"/><linearGradient id="f" x1="29.444" x2="39.677" y1="17.765" y2="46.218" gradientUnits="userSpaceOnUse"><stop stop-color="#99543D" offset=".1535"/><stop stop-color="#904F3A" offset=".3267"/><stop stop-color="#794230" offset=".6037"/><stop stop-color="#532D21" offset=".9481"/><stop stop-color="#4D2A1F" offset="1"/></linearGradient><path d="m53.72 17.9c-2.73-2.48-8.11-1.84-12.12 0.85-2.38-0.64-5.41-0.23-8.24 1.26-4.63 2.45-7.48 7.25-6.56 10.98 0.04 0.16 0.1 0.3 0.15 0.45-4.2 1.66-8.27 3.89-10.75 7.58-2.8 4.15-2.23 9.02 2.06 10.48 0.65 0.22 1.34 0.32 2.06 0.34-0.09 0.92 0.17 1.75 0.89 2.25-0.05 0.62-0.02 1.23 0.13 1.8 0.85 3.09 4.85 4.55 8.93 2.44 1.11-0.58 2.05-1.27 2.79-2.04 2.93-0.76 5.86-2.39 7.84-4.68 3.01-3.47 2.93-7.34 0.77-9.5 2.51-1.33 4.68-3.42 5.86-5.9 0.2-0.42 0.35-0.84 0.47-1.25 1.06-1.04 2-2.2 2.74-3.39 0.35-0.23 0.69-0.48 1.02-0.75 4.05-3.32 4.8-8.34 1.96-10.92z" fill="url(#f)"/><linearGradient id="e" x1="39.566" x2="58.409" y1="12.802" y2="32.901" gradientUnits="userSpaceOnUse"><stop stop-color="#D67655" offset="0"/><stop stop-color="#A15940" offset=".6272"/><stop stop-color="#874A36" offset="1"/></linearGradient><path d="m56.85 2.36c-2.98-1.19-7.12 0.93-9.5 4.3-2.12 0.19-4.44 1.42-6.25 3.47-2.97 3.35-3.75 8.07-1.84 10.81 0.08 0.11 0.17 0.21 0.26 0.32-2.86 2.59-5.44 5.6-6.29 9.31-0.95 4.18 1.04 7.94 4.96 7.84 0.59-0.01 1.18-0.14 1.77-0.34 0.21 0.77 0.68 1.36 1.43 1.54 0.15 0.52 0.37 1 0.67 1.41 1.66 2.24 5.34 2.23 7.97-0.69 0.72-0.8 1.25-1.64 1.61-2.47 2.13-1.48 3.98-3.67 4.86-6.11 1.34-3.7 0.06-6.79-2.37-7.89 1.61-1.82 2.7-4.15 2.87-6.5 0.03-0.4 0.02-0.78-0.01-1.15 0.53-1.16 0.92-2.37 1.14-3.55 0.21-0.29 0.4-0.59 0.59-0.91 2.21-3.88 1.24-8.15-1.87-9.39z" fill="url(#e)"/></g><g clip-path="url(#a)"><path d="m38.25 20.32c1.15-1.04 2.17-2.63 1.18-4.15-0.48-0.74-1.39-1.06-2.23-0.83-0.8 0.21-1.4 0.92-1.8 1.61-0.43 0.75-0.76 1.69-0.5 2.55 0.25 0.85 1.06 1.56 1.98 1.53 1.88-0.05 2.56-2.47 2.58-3.98 0.03-1.65-2.53-1.65-2.56 0 0 0.24-0.02 0.47-0.08 0.7-0.07 0.26-0.25 0.52-0.3 0.77-0.05 0.23-0.49 0.09 0.36 0.13-0.11-0.01 0.56 0.04 0.51 0.09 0.12-0.12 0.22-0.52 0.33-0.67 0.05-0.07 0.11-0.14 0.15-0.2 0.16-0.23 0.11-0.02 0.02-0.07-0.13-0.02-0.26-0.04-0.4-0.07-0.06-0.05-0.12-0.11-0.18-0.16-0.02 0-0.03-0.07-0.03-0.07 0.06 0-0.14 0.31-0.2 0.39-0.18 0.23-0.42 0.42-0.63 0.61-1.23 1.12 0.59 2.92 1.8 1.82z" fill="#FD7127"/></g><g clip-path="url(#a)"><path d="m30.69 41.7c1.76-0.3 2.1-2.88 0.66-3.78-1.57-0.98-3.4 0.44-3.68 2.03-0.14 0.82-0.06 1.72 0.41 2.43 0.52 0.8 1.44 1.25 2.38 0.94 1.75-0.57 2.13-3.14 1.19-4.51-0.39-0.57-1.12-0.83-1.75-0.46-0.56 0.33-0.85 1.18-0.46 1.75 0.07 0.11 0.14 0.17 0.16 0.3 0.04 0.19-0.11 0.37-0.08 0.53 0 0.01-0.04 0.03-0.03 0.05l0.7-0.01c0.03-0.03-0.04-0.25-0.04-0.31 0-0.12 0.08-0.3 0.07-0.4-0.05-0.34 0.09 0.11-0.02-0.07-0.11-0.17-0.44-0.17-0.48-0.46-0.01-0.06-0.03-0.11-0.01-0.17 0.04-0.1 0.61-0.37 0.29-0.31-0.68 0.12-1.06 0.96-0.89 1.57 0.21 0.71 0.9 1 1.58 0.88z" fill="#FD7127"/></g><g clip-path="url(#a)"><path d="m42.82 28.91c-0.24 0.3-0.95-0.36-1.23-0.23-0.01-0.03-0.03-0.06-0.04-0.1 0.01 0.04 0.02 0.07 0.03 0.11-0.01-0.04-0.02-0.07-0.02-0.11-0.01 0.14-0.01 0.16 0 0.07 0.09-0.13-0.09 0.16-0.01 0.02l-0.04 0.05c0.03-0.01 0.13-0.05 0.15-0.06 0.09-0.05 0.23 0.11 0.02-0.02 0.12 0.07 0.16 0.07 0.21 0.21 0.02 0.06-0.02 0.12-0.03 0.18 0.01-0.13 0.08-0.11 0-0.02-0.1 0.12-0.03 0 0.03-0.02-0.09 0.06-0.09 0.07-0.02 0.02 0.07-0.04 0.07-0.04 0.01-0.01s-0.06 0.03 0.01 0.01c0.08-0.02 0.07-0.02 0 0-0.1-0.01-0.19 0.03-0.29-0.03-0.2-0.25-0.39-0.51-0.59-0.76-0.01-0.04-0.03-0.24 0.01-0.09 0.03 0.09-0.05 0.04 0.03-0.04-1.12 1.21 0.69 3.02 1.81 1.81 0.63-0.68 0.99-1.8 0.49-2.66-0.44-0.76-1.54-0.9-2.3-0.63-1.67 0.58-2.34 2.75-0.95 4 1.4 1.25 3.46 0.4 3.92-1.32 0.2-0.75 0.07-1.67-0.48-2.25-0.65-0.7-1.92-0.71-2.53 0.07-0.43 0.54-0.53 1.28 0 1.81 0.44 0.43 1.38 0.54 1.81-0.01z" fill="#FD7127"/></g><g clip-path="url(#a)"><path d="m47.26 15.29c0.36-0.77 0.86-1.23 1.73-1.19l-1.28-1.28c-0.04 0.46-0.94 1.72-1.4 1.18 0.12 0.3 0.25 0.6 0.37 0.9 0.04 0.36 1.07-0.83 0.75-0.44 0.36-0.12 0.46-0.34 0.31-0.68-0.05-0.26-0.06-0.52-0.01-0.78 0.27-0.99 1.33-1.12 2.18-1.06-0.22-0.79-0.43-1.59-0.65-2.38-0.41 0.21-0.62-0.03-0.96-0.02-0.21-0.25-0.35-0.15-0.41 0.31-0.35 0.3-0.33 0.54 0.05 0.72-0.12-0.3-0.25-0.6-0.37-0.9 0-0.05 2.1-0.29 1.74 0.31s-1.2-0.19-1.53-0.23c-0.17 0.06-0.35 0.12-0.52 0.17 0.11 0.07 0.21 0.15 0.32 0.22 0.13 0.27 0.33 0.44 0.41 0.76 0.19 0.8-0.32 1.6-0.95 2.04-1.35 0.92-0.07 3.14 1.29 2.21 1.59-1.09 2.63-2.96 2.13-4.93-0.4-1.56-1.89-3.12-3.63-2.81-1.89 0.33-2.07 2.56-1.07 3.87 1.06 1.39 3.19 1.85 4.74 1.03 1.54-0.82 2-2.78 0.83-4.13-1.08-1.25-3.54-1.6-4.87-0.57-1.68 1.31-0.38 3.72 1.44 4 1.93 0.3 2.97-2 1.44-3.22-1.45-1.17-4.27-0.49-3.66 1.78 0.57 2.13 3.19 2.49 4.87 1.62 1.2-0.62 0.54-2.31-0.65-2.38-1.71-0.11-3.46 0.56-4.31 2.12-0.77 1.43-0.58 3.38 0.94 4.21 1.32 0.72 3.32 0.21 3.79-1.35 0.5-1.67-1.26-2.82-2.73-2.71-1.61 0.12-2.88 1.49-2.7 3.13 0.18 1.62 1.87 2.58 3.32 1.74 1.32-0.76 1.67-2.65 0.42-3.65-1.17-0.93-3.13-0.64-4.05 0.51-1.32 1.66 0.28 3.38 2.1 3.26 2.02-0.13 3.41-1.94 3.57-3.83 0.06-0.71-0.64-1.25-1.28-1.28-1.71-0.08-3.23 0.91-3.94 2.46-0.67 1.46 1.54 2.77 2.23 1.27z" fill="#7C4535"/></g><g clip-path="url(#a)"><path d="m46.92 17.13c-1.35 2.08-2.93 8.12 0.44 9.4 3.73 1.42 4.09-6.32 3.56-8.33-0.16-0.61-0.94-1.16-1.57-0.89-3.12 1.31-3.95 5.91-2.26 8.73 2.28 3.81 5.16 0.1 5.64-2.74 0.39-2.3-0.42-7.83-3.96-6.7-2.75 0.88-3.69 5.06-1.8 7.14 2.43 2.67 5.41 0.14 5.96-2.65 0.44-2.22-0.76-6.89-3.81-4.92-2.1 1.36-2.39 5.65 0.85 5.44 2.87-0.18 4.19-4.75 1.91-6.45-2.6-1.95-5.42 1.15-4.96 3.85 0.66 3.84 4.75 2.71 6.13 0.03 1.13-2.19 0.83-7.62-2.96-6.49-2.97 0.88-3.38 5.41-0.98 7.08 2.42 1.69 5.79-0.41 6.16-3.11 0.48-3.53-3.31-6.24-6.51-4.91-3 1.24-4.37 5.42-1.8 7.78 2.84 2.6 7.05-0.13 8.5-2.98 1.64-3.22-0.06-8.16-4.34-7.33-3.83 0.74-5.39 6.57-2.73 9.26 2.74 2.77 7.15 1.08 8.3-2.36 1.05-3.13-1.46-7.02-4.66-4.45-1.28 1.03 0.54 2.83 1.81 1.81 0.72 0.85 0.75 1.62 0.09 2.33-0.4 1.11-1.31 1.59-2.72 1.44-1.58-0.97-2-2.1-1.28-3.4 0.23-1.9 1.46-1.92 3.69-0.05 0.26 1.06-1.17 2.94-2.02 3.35-1.13 1.11-2.18 0.49-3.16-1.87 2.23-2.09 3.1-1.97 2.61 0.36 0.11 1.82-0.12 3.62-0.67 5.38-0.6 0.19-1.19 0.38-1.79 0.58 0.07 0.07 0.65-4.78 1.57-0.95 0.13 0.55 0.03 4.58-1.06 3.69-0.93-0.75 0.1-4.1 0.94-4.45-0.52-0.3-1.05-0.6-1.57-0.89 0.5 1.88 0.41 4.32-1.28 5.63 0.41-0.11 0.83-0.22 1.24-0.33-0.61-0.2-0.44-2.66-0.37-3.07 0.16-1.02 0.53-1.84 1.09-2.7 0.88-1.35-1.34-2.63-2.23-1.26z" fill="#7C4535"/></g><g clip-path="url(#a)"><path d="m51.61 28.26c1.75-1.24 2.31-0.79 1.68 1.35-0.38 1.96-1.47 2.33-3.25 1.11 0-1.08 0.4-2.02 1.18-2.82 2.94 0.17 3.91 1.02 2.92 2.54-0.75 3.24-3.69 1.28-3.1-1.25 0.38-1.61 1.14-2.94 2.5-1.74-0.11-0.41-0.22-0.83-0.33-1.24-0.55 0.34-1.1 0.69-1.65 1.03l0.89 0.89c-0.05-0.92-0.1-1.84-0.16-2.76 0.3-1.63 0.73-1.94 1.3-0.92 0.75 0.51 0.62 0.88-0.41 1.09-0.75 0.63-1.63 0.83-2.63 0.58l0.89 0.89c0.86-1.57 1.08-1.73 0.65-0.48-1.75 3.7-2.3 4.45-1.64 2.27 0.02-1.11 0.66-1.73 1.91-1.86 0.89-0.21 1.73-0.13 2.53 0.24 0.11-0.84 0.23-1.68 0.34-2.51-0.42-0.86-0.84-1.72-1.27-2.58-1-1.33-0.96-1.99 0.1-1.96 0.64-0.31 2.49-0.39 1 0.77-0.41 0.11-0.83 0.22-1.24 0.33-0.03 0.01-0.06 0.03-0.08 0.04v-1.29c-0.07 0.16-0.14 0.31-0.21 0.47-0.68 1.49 1.53 2.79 2.21 1.29 0.99-2.18-1.68-4.34-3.1-2.05-1.41 2.26 1.66 4.13 3.42 2.52 1.86-1.7 0.36-4.95-2.13-4.59-3.21 0.46-3.63 4.93-0.95 6.42 2.43 1.36 6.43-0.41 6.11-3.48-0.33-3.2-4.63-3.6-6.97-2.52-2.84 1.31-3.76 5.41-1.08 7.4 2.55 1.9 6.03 0.17 6.93-2.64 1.25-3.87-3.1-5.59-5.58-2.85-2.64 2.91-0.8 6.85 2.85 7.29 1.51 0.18 1.62-2.07 0.34-2.51-3.45-1.19-9.58 1.16-7.88 5.72 1.4 3.76 7.4 3.62 6.66-0.98-0.63-3.93-6.64-3.65-5.92 0.37 0.67 3.79 6.16 2.11 5.66-1.42-0.54-3.8-6.27-2.24-5.09 1.06 1.54 4.3 6.42-2.08 5.92-4.77-0.74-3.96-6.77-0.85-6.19 2.38 0.81 4.46 8.14 0.02 8.63-2.88 0.82-4.86-5.59-3.8-7.13-0.56-0.78 1.64-0.84 3.72 0.3 5.21 0.88 1.15 2.77 2 4.04 0.88 2.66-2.35-3.35-5.99-4.62-2.41-1.31 3.67 5.55 3.04 5.72-0.43 0.19-3.71-5.93-1.69-5.99 1.56-0.03 1.57 1.16 2.85 2.76 2.82 1.89-0.03 3.36-1.87 3.87-3.53 1.51-4.95-4.03-5.84-6.38-2.1-1.76 2.8-3.2 10.64 2.6 9.69 4.3-0.7 6.65-8.57 2.17-10.62-4.29-1.97-9.2 4.63-6.5 8.3 3.5 4.74 8.61-2.07 7.56-6.05-0.47-1.76-1.93-3.89-3.99-3.65-2.79 0.33-2.94 3.51-2.64 5.63 0.23 1.61 2.7 0.92 2.47-0.69z" fill="#7C4535"/></g><g clip-path="url(#a)"><path d="m48.13 17.04c-0.92 0.05-1.03-0.99-0.96-1.72 0.02-0.24 0.12-0.49 0.14-0.73 0.02-0.27 0.2-0.29-0.05-0.23-0.37 0.09 0.18 0.14 0.25 0.17 0.18 0.08 0.39 0.09 0.57 0.19 0.75 0.39-0.32 0.67-0.8 0.72-0.22 0.02-1.02-0.12-1.15-0.01s0.1 0.35 0.24 0.4c0.16 0.05 0.58-0.01 0.76 0.01 1.61 0.25 2.31-2.22 0.68-2.47-1.47-0.22-3-0.15-3.82 1.29-0.71 1.25-0.06 2.76 1.3 3.18 2.24 0.69 6.31-0.48 5.59-3.52-0.54-2.27-4.67-3.53-5.78-1.13-1.14 2.45-0.29 6.57 3.04 6.4 1.63-0.08 1.64-2.64-0.01-2.55z" fill="#7C4535"/></g><path d="m14.56 38.17c0.84 1.49 3.05 1.41 3.99 0.08 1.02-1.44-0.09-3.39-1.69-3.74-1.76-0.39-3.25 1.13-3.3 2.83-0.01 0.48 0.08 1.09 0.44 1.45 0.35 0.35 0.9 0.44 1.37 0.47 0.96 0.07 1.85-0.31 2.56-0.94 0.51-0.45 0.46-1.31 0-1.77-0.5-0.5-1.26-0.45-1.77 0-0.29 0.25-0.61 0.25-0.95 0.14l0.87 0.87c-0.05-0.19-0.02-0.42 0.11-0.56 0.01-0.01 0.2-0.16 0.04-0.07-0.07 0.04 0.03-0.01 0.06 0-0.07-0.04 0.2 0.08 0.07 0.04 0.16 0.05 0.04 0.14 0.07-0.07 0-0.03 0.11-0.27 0-0.01 0.01-0.01 0.12-0.15 0.12-0.14-0.11 0.06-0.13 0.07-0.06 0.03 0.06-0.03 0.06-0.03-0.01-0.01-0.14 0.03 0.2 0.06-0.07 0 0.07 0.02 0.15 0.01 0.2 0.06-0.27-0.28 0.27 0.43 0.07 0.06-0.75-1.38-2.91-0.12-2.12 1.28z" fill="#FD7127"/><path d="m23.31 22.2c0.62 1.08 2.18 1.13 2.99 0.25 1.04-1.13 0.13-2.86-1.23-3.13-1.4-0.28-2.55 0.96-2.54 2.3 0 1.95 2.4 1.61 3.43 0.7 0.95-0.83-0.44-2.22-1.39-1.39-0.22 0.19-0.48 0.19-0.74 0.11l0.69 0.69c-0.04-0.14-0.05-0.33 0.08-0.44-0.04 0.03 0.14-0.1 0.08-0.06 0 0 0.15 0.06 0.12 0.08-0.11 0.09 0.25-0.42 0.05-0.19 0.05-0.06-0.01 0.04-0.08-0.01 0.06 0.04 0.18 0 0.24 0.1-0.63-1.1-2.33-0.11-1.7 0.99z" fill="#FD7127"/><defs><path id="b" d="m120.66 88.67-3.72-6.21-4.74-5.47-3.78-7-6.26-4.96-5.85-5.28-3.66-5.39-3.2-5.85-6.67-2.66-3.02-6.04-2.83-5.17-4.48-0.41 0.42 4.28 0.13 9.16-1.67 6.33-8.83 4.33-5 6.5-7.17 0.33-7.83 3.84-6.15-0.55-6.66-0.95-1.16 1.11 4.9 5.03 5.73 4.27 4.03 5.91 5.84 4.2 7.26 7.57 4.84 4.41 4.96 4.54 4.66 7.08 6.16 5.5 5.61 6.23 6.82 0.66 6.07-0.93 5.9-1.5 9.35-3.53 6.25-8.51 4.69-4.68 1.82-8.31-2.76-7.88z"/></defs><linearGradient id="d" x1="61.652" x2="107.32" y1="101.33" y2="55.326" gradientUnits="userSpaceOnUse"><stop stop-color="#B3B3B3" offset="0"/><stop stop-color="#B8B8B8" offset=".5918"/><stop stop-color="#ACACAC" offset=".712"/><stop stop-color="#8B8B8B" offset=".9307"/><stop stop-color="#808080" offset=".9949"/></linearGradient><use fill="url(#d)" xlink:href="#b"/><clipPath><use xlink:href="#b"/></clipPath><path d="m21.01 18.65c1.08-1.59 2.87-1.64 4.27-0.87 0.75-0.34 1.54-0.52 2.29-0.45 0.37-0.33 0.74-0.65 1.12-0.97 1.74-1.49 3.42-3.31 5.4-4.44 0-1.02-0.13-2.1-0.41-3.25-0.1-0.4-0.04-0.75 0.11-1.04-0.99-0.21-1.96-0.14-2.85 0.17-3-1.93-7.01-1.79-9.57 2.19-0.24 0.38-0.44 0.76-0.61 1.14-2.33 1.18-4.15 3.34-4.55 6.32-0.18 1.34-0.05 2.56 0.31 3.66-0.82 2.01-0.97 4.28-0.15 6.49 0.17 0.64 0.43 1.25 0.74 1.84 0.6-0.17 1.23-0.21 1.86-0.17 0.06-0.2 0.16-0.4 0.31-0.6 1.25-1.54 2.15-3.27 3.11-4.98-1.69-1.15-2.76-3.02-1.38-5.04z" fill="#FFDE3C"/><defs><path id="h" d="m120.66 88.5-3.72-6.21-4.74-5.47-3.78-7-6.26-4.96-5.85-5.28-3.66-5.39-3.2-5.85-6.67-2.66-3.02-6.04-2.83-5.17-4.48-0.41 2.7 7.45-1.85 7.63-3.38 7.15-6.18 4.84-6.63 3.04-6.25 3.84-7.28 0.68-7.23-0.41-6.66-0.95-1.16 1.11 4.9 5.03 5.73 4.27 4.03 5.91 5.84 4.2 7.26 7.57 4.84 4.41 4.96 4.54 4.66 7.08 6.16 5.5 5.61 6.23 6.82 0.66 6.07-0.93 5.9-1.5 9.35-3.53 6.25-8.51 4.69-4.68 1.82-8.31-2.76-7.88z"/></defs><clipPath><use xlink:href="#h"/></clipPath><g opacity=".2"><path d="m41.61 8.54c4.55 0 8.12 1.52 10.9 4.66 2.55 2.87 8.87 10.78 18.28 22.87 0.5 0.64 1.23 1.05 2.04 1.14l1.8 0.2 0.57 0.12 2 3.7 3 5.99c0.33 0.66 0.89 1.17 1.57 1.44l5.67 2.26 2.68 4.9 0.15 0.24 3.66 5.39c0.14 0.2 0.29 0.38 0.47 0.54l5.85 5.28 0.15 0.12 5.77 4.58 3.49 6.46c0.1 0.19 0.23 0.37 0.37 0.54l4.57 5.27 3.42 5.72 2.37 6.79-1.45 6.62-4.06 4.06c-0.11 0.11-0.21 0.22-0.3 0.35l-5.72 7.79-8.36 3.16-5.6 1.42-5.56 0.85-5.29-0.51-4.83-5.36c-0.07-0.08-0.15-0.16-0.23-0.23l-5.87-5.24-4.44-6.75c-0.14-0.21-0.3-0.4-0.48-0.56l-4.97-4.55-4.76-4.34-7.19-7.5c-0.13-0.13-0.26-0.25-0.41-0.36l-5.41-3.9-3.73-5.48c-0.19-0.28-0.42-0.52-0.69-0.72l-5.54-4.12-3.02-3.1c0.39-1.09 0.13-2.34-0.74-3.19l-0.3-0.29c-3.71-3.56-7.54-7.25-11.65-11.68-0.61-0.66-1.35-1.43-2.13-2.26-2.36-2.49-5.3-5.59-6.82-7.64-3.32-4.51-2.61-9.48-1.43-12.86 1.58-4.52 4.97-9.13 9.32-12.64 0.39-0.32 0.7-0.73 0.89-1.2 0.6-1.48 1.74-2.3 2.59-2.73 0.62-0.32 1.12-0.84 1.4-1.49 0.1-0.24 0.23-0.48 0.38-0.71 0.86-1.34 1.91-2.02 3.12-2.02 0.7 0 1.43 0.22 2.13 0.64 0.47 0.28 1 0.42 1.54 0.42 0.35 0 0.7-0.06 1.03-0.18 3.54-1.25 6.84-1.91 9.8-1.91m0-3c-3.6 0-7.31 0.85-10.84 2.14-1.13-0.68-2.4-1.06-3.67-1.06-2.05 0-4.11 1-5.65 3.4-0.24 0.38-0.44 0.76-0.61 1.14-1.76 0.89-3.22 2.34-4.01 4.28-9.1 7.35-15.45 20.05-8.41 29.6 2.14 2.91 6.65 7.45 9.17 10.17 4.28 4.62 8.29 8.45 12.07 12.09l-1.04 1.35 4.9 5.03 5.73 4.27 4.03 5.91 5.84 4.2 7.26 7.57 4.84 4.41 4.96 4.54 4.66 7.08 6.16 5.5 5.61 6.23 6.82 0.66 6.07-0.93 5.9-1.49 9.35-3.53 6.25-8.51 4.69-4.68 1.82-8.31-2.75-7.88-3.72-6.21-4.74-5.47-3.78-7-6.26-4.96-5.85-5.28-3.66-5.39-3.2-5.85-6.67-2.66-3.02-6.04-2.82-5.21-1.19-0.03-0.75-0.16-1.94-0.22c-6.81-8.74-15.17-19.36-18.4-23.01-3.66-4.14-8.3-5.69-13.15-5.69z" fill="#424242"/></g><path d="m90.34 118.56c-1.47-0.05-2.94-0.26-4.37-0.63-0.71-0.19-1.56-0.64-1.47-1.36 0.1-0.78 1.15-0.95 1.94-0.91 2.93 0.15 5.87 0.29 8.8 0.44 0.24 0.01 0.49 0.03 0.7 0.14 0.54 0.3 0.53 1.15 0.12 1.61s-1.06 0.63-1.67 0.72c-1.87 0.29-3.8 0.14-5.61-0.41" fill="#9C9C9C"/><path d="m83.6 78.48c-0.74 0.04-1.7 0.27-1.77 1.01 1.91 1.08 3.95 2.09 6.14 2.18 1.21 0.05 7.56-2.7 5.14-4.14-0.53-0.31-2.91 0.57-3.57 0.64-1.96 0.2-3.97 0.2-5.94 0.31z" fill="#B8B8B8"/><path d="m88.94 80.52c-0.71-0.88-1.24-1.8-1.42-2.72 5.7 2.46 11.86 3.85 18.06 4.06-2.68 2.94-9.96 3.98-9.96 3.98s-4.32-2.4-6.68-5.32z" fill="#8C8C8C"/><path d="m79.59 74.93c1.87 0.01 3.79 0.4 5.34 1.44-1.83 0.01-3.65-0.04-5.47-0.15-1.19-0.07-3.98 0.16-4.83-0.64 1.5-0.53 3.37-0.66 4.96-0.65z" fill="#fff"/><path d="m99.33 69.28c-4.27 2.06-8.62 1.76-13.14 2.46 2.17-0.52 4.3-1.16 6.5-1.58 1.12-0.21 2.25-0.39 3.38-0.54 0.9-0.12 2.46 0.04 3.26-0.34z" fill="#B8B8B8"/><path d="m68.29 75.28c-2.38 0.37-6.18 0.53-8.41-0.52 1.4-0.09 2.85 0.01 4.25 0.1 1.26 0.08 2.94 0.61 4.16 0.42z" fill="#fff"/><path d="m79.1 66.23c1.12-2.88 2.23-5.75 3.35-8.63 0.19-0.49 0.38-0.99 0.37-1.51-0.02-0.74-0.54-2.12-1.41-1.69-0.63 0.31-0.73 3.07-0.84 3.7-0.49 2.72-0.98 5.43-1.47 8.13z" fill="#E3E3E3"/><path d="m73.27 105.11c0.17-1.19 5.9-4.33 6.23-5.49-0.79 0-5.78 0.53-6.38 0s-2.33-0.17-3.01-0.58c-1.02-0.62-2.26-0.79-3.31-1.37 0.38 1.38 2.14 2.18 3.13 3.11 0.74 0.7 3.5 3.23 3.34 4.33z" fill="#DBDBDB"/><path d="m95.64 109.65c0.3 0.77-0.24 1.61-0.79 2.23-0.74 0.83-3.59 3.59-4.66 2.2 1.09-0.54 2.78-0.66 3.1-1.84 2.6-9.67 3.81-7.39 2.35-2.59z" fill="#616161"/><path d="m94.6 98.84c-1.52-3.59-2.37-8.43-2.37-8.43l-2.21-4.66-2.8 9.55s-6.51 7.31-10.09 10.68c1.42-0.76 17.04-8.15 17.47-7.14z" fill="#616161"/><path d="m112.18 105.54c0.89-1.27 1.37-2.78 1.85-4.26 0.4 1.49 0.04 3.1-0.66 4.47-0.71 1.37-1.75 2.54-2.79 3.67-0.13 0.14-0.26 0.28-0.43 0.34-0.19 0.07-0.4 0.03-0.59-0.01-2.15-0.42-4.25-1.08-6.25-1.95 1.22 0.53 3.6 0.35 4.93 0.21 1.61-0.17 3.01-1.14 3.94-2.47z" fill="#616161"/><path d="m66.25 96.5c2.5-1.03 6.76-0.34 8.94-1.94-0.45 0.33-9.49-5.88-10.82-5.93 1.89 1.9 1.52 5.3 1.88 7.87z" fill="#E3E3E3"/><path d="m41.23 72.2c8.09 3.15 14.11 7.68 9.4 6.86-1.65-0.29-3.66-0.29-5.01-1.35-1.71-1.34-3.05-3.81-4.39-5.51z" fill="#616161"/><path d="m70.71 58.71c1.97-2.65 3.72-5.45 5.23-8.38 0.24 2.04-0.35 4.08-1.03 6.01-0.78 2.17-1.69 4.3-2.75 6.35-0.08 0.16-0.18 0.34-0.35 0.42-0.18 0.08-0.38 0.03-0.58-0.01-0.91-0.17-1.84 0.04-2.75 0.25-0.94 0.22-1.89 0.47-2.84 0.63 0.71-1.75 3.82-3.55 5.07-5.27z" fill="#616161"/><path d="m62.77 66.32c-2.34 1.71-4.68 3.41-7.02 5.12-2.62 0.1-5.19 0.54-7.78 0.75 0.14-1.37 5.43-2.3 6.76-2.78 2.4-0.86 5.97-1.59 8.04-3.09z" fill="#969696"/><path d="m64.56 83.3c0.49 0 1.01 0.01 1.45-0.21 0.43-0.21 0.74-0.6 1.03-0.98 0.93-1.22 1.86-2.45 2.8-3.67-0.65 2.36-1.48 4.68-2.48 6.91-0.54-0.4-1.26-0.47-1.93-0.53-2.41-0.2-5.09-0.13-7.43-0.68 1.93-0.83 4.47-0.84 6.56-0.84z" fill="#616161"/><path d="m63.77 67.8c0.2-0.28 0.41-0.57 0.72-0.72 0.23-0.11 0.49-0.12 0.75-0.13 4.2-0.12 8.42 0.96 12.04 3.08-3.23-0.27-6.49-0.49-9.71-0.16-3 0.31-5.91 1.13-8.53 2.65 1.81-1.31 3.41-2.91 4.73-4.72z" fill="#9E9E9E"/><path d="m102.3 97.45c-0.6 1.04-1.53 2.19-2.71 2 5.79-0.51 12 1.49 17.24-1.03-2.9-1.57-6.26-2.3-9.55-2.08-0.45 0.03-0.97 0.06-1.3-0.26-0.23-0.22-0.3-0.57-0.34-0.89-0.5-4.27 3.68-9.05 1.96-13.05-1.49 5.3-2.48 10.4-5.3 15.31z" fill="#616161"/><path d="m96.93 112.65c0.28-0.27 0.55-0.55 0.73-0.9 0.22-0.41 0.29-0.88 0.37-1.34l0.99-6.15c0.4 3.2 0.79 6.4 1.19 9.6-0.08-0.67-5 0.39-5.45 0.33 0.75-0.47 1.51-0.92 2.17-1.54z" fill="#E3E3E3"/><path d="m69.91 86.22c-0.43 0.84-0.92 1.77-1.8 2.09 1.83 0.27 6.17 4.2 7.73 5.19-0.56-0.71-1.54-4.11-1.67-5-0.13-0.95-1.95-2.64-1.76-3.59 0.29-1.45 3.58-7.02 4.09-8.41-1.49 1.6-5.58 7.78-6.59 9.72z" fill="#616161"/></svg>
