<?xml version="1.0" encoding="UTF-8" standalone="no"?>
<!DOCTYPE svg PUBLIC "-//W3C//DTD SVG 1.1//EN" "http://www.w3.org/Graphics/SVG/1.1/DTD/svg11.dtd">
<svg width="100%" height="100%" viewBox="0 0 128 128" version="1.1" xmlns="http://www.w3.org/2000/svg" xmlns:xlink="http://www.w3.org/1999/xlink" xml:space="preserve" xmlns:serif="http://www.serif.com/" style="fill-rule:evenodd;clip-rule:evenodd;stroke-linecap:round;stroke-linejoin:round;stroke-miterlimit:1.5;">
    <g transform="matrix(1.06349,0,0,1.06349,1.20112,2.87058)">
        <path d="M35.194,79.408C35.194,75.098 33.442,71.095 32.599,66.916C32.211,64.996 32.235,63.052 31.948,61.125C31.446,57.748 31.407,53.705 30.532,50.404C30.132,48.895 29.913,46.71 28.817,45.509C27.898,44.501 26.228,45.815 25.703,43.808C25.647,43.594 25.645,42.795 25.703,42.573C26.097,41.065 31.215,40.37 32.935,41.179C34.966,42.134 36.235,41.772 36.961,43.808C38.183,47.233 38.097,50.96 38.872,54.479C40.508,61.903 42.821,69.177 43.464,76.802" style="fill:rgb(92,79,76);"/>
    </g>
    <g transform="matrix(1.06349,0,0,1.06349,46.8041,-12.6599)">
        <path d="M35.194,79.408C35.194,75.098 33.442,71.095 32.599,66.916C32.211,64.996 32.235,63.052 31.948,61.125C31.446,57.748 31.407,53.705 30.532,50.404C30.132,48.895 29.913,46.71 28.817,45.509C27.898,44.501 26.228,45.815 25.703,43.808C25.647,43.594 25.645,43.3 25.703,43.078C26.097,41.57 31.215,40.874 32.935,41.684C34.966,42.639 36.235,41.772 36.961,43.808C38.183,47.233 38.097,50.96 38.872,54.479C40.508,61.903 42.821,69.177 43.464,76.802" style="fill:rgb(92,79,76);"/>
    </g>
    <g transform="matrix(1.06349,0,0,1.06349,-6.38543,4.11427)">
        <path d="M33.211,75.742C33.308,77.598 32.909,79.495 33.211,81.136C33.506,82.746 34.544,84.189 35.253,85.619C36.967,89.078 40.714,94.164 44.298,96.048C47.984,97.986 55.789,100.736 59.877,100.994C65.261,101.334 70.413,100.167 75.602,98.885C84.218,96.756 98.936,90.658 106.231,85.619C114.49,79.915 124.634,69.503 124.643,58.083C124.644,57.046 111.745,69.519 111.771,68.38C111.805,66.891 108.676,64.953 107.807,64.078C105.863,62.119 100.004,48.643 99.33,51.379C98.057,56.542 95.194,58.918 93.478,59.375C86.081,61.346 78.994,61.709 71.442,63.223C65.726,64.368 60.45,65.735 55.12,68.38C51.335,70.259 48.947,73.619 44.929,75.067C42.493,75.945 40.932,76.245 38.675,74.678" style="fill:rgb(146,123,117);"/>
    </g>
    <g transform="matrix(-0.258819,0.965926,-0.965926,-0.258819,205.734,-25.9336)">
        <g transform="matrix(0.866025,-0.5,0.551908,0.955933,-21.9953,58.4462)">
            <path d="M101.808,56.794C104.425,55.452 107.593,54.667 111.005,54.667C114.417,54.667 117.585,55.452 120.202,56.794L120.201,56.794C121.088,56.929 122.914,56.789 123.778,57.065C123.849,57.087 123.739,57.206 123.721,57.277C123.694,57.381 123.662,57.49 123.647,57.597C123.613,57.843 124.093,58.163 124.256,58.265C124.556,58.454 124.907,58.544 125.254,58.615C125.297,58.623 125.654,58.652 125.68,58.69C125.682,58.693 125.532,58.816 125.514,58.832C125.408,58.924 125.306,59.024 125.218,59.133C124.913,59.509 124.941,59.746 125.254,60.149C125.778,60.584 125.896,60.282 126.757,60.556C126.828,60.579 126.718,60.698 126.699,60.769C126.673,60.873 126.641,60.982 126.626,61.089C126.592,61.334 127.072,61.655 127.234,61.757C127.535,61.946 127.886,62.036 128.233,62.106C128.276,62.115 128.633,62.143 128.659,62.182C128.661,62.185 128.511,62.307 128.493,62.323C128.386,62.416 128.285,62.516 128.197,62.625C127.892,63.001 127.188,63.471 127.316,63.913L127.283,63.954C127.499,64.174 127.786,64.297 128.086,64.371C128.193,64.397 128.301,64.421 128.41,64.439C128.46,64.447 128.576,64.411 128.563,64.46C128.553,64.497 128.319,64.625 128.311,64.63C128.096,64.79 127.949,64.951 127.839,65.194C127.802,65.278 127.74,65.384 127.787,65.47C127.935,65.738 128.272,65.755 128.551,65.793C128.585,65.798 128.917,65.834 128.917,65.834C128.915,65.943 128.624,66.123 128.538,66.173C128.173,66.38 127.674,66.508 127.805,67.054C127.91,67.492 128.669,67.637 129.038,67.698C129.175,67.721 129.312,67.735 129.45,67.751C129.515,67.759 129.679,67.727 129.645,67.782C129.598,67.857 129.465,67.923 129.391,67.978C128.955,68.302 127.878,68.396 127.567,68.895C127.588,69.295 127.976,69.472 128.319,69.621C128.418,69.664 128.52,69.704 128.624,69.736C128.683,69.754 128.842,69.739 128.802,69.785C128.696,69.91 128.352,69.928 128.204,70.058C127.729,70.472 128.08,71.061 128.539,71.349C128.632,71.408 128.939,71.472 128.992,71.544C128.997,71.552 128.873,71.648 128.862,71.656C128.701,71.772 128.523,71.856 128.336,71.926C127.791,72.129 127.185,72.124 126.923,72.702C126.775,73.027 127.074,73.322 127.235,73.57C127.254,73.598 127.439,73.875 127.412,73.906C127.345,73.979 127.099,73.981 127.008,73.995C126.612,74.052 126.206,74.064 125.807,74.076C125.713,74.078 125.331,74.118 125.264,74.209C125.236,74.246 125.345,74.255 125.387,74.276C125.436,74.301 125.486,74.325 125.534,74.354C125.666,74.435 126.065,74.682 126.031,74.875C126.026,74.902 125.886,74.896 125.872,74.896C125.695,74.886 125.531,74.827 125.37,74.76C124.977,74.596 124.084,74.335 123.285,74.75C120.303,77.311 115.906,78.932 111.005,78.932C106.06,78.932 101.628,77.282 98.644,74.68C98.664,74.707 98.683,74.733 98.703,74.76C97.9,74.33 97.036,74.594 96.64,74.76C96.478,74.827 96.315,74.886 96.138,74.896C96.124,74.896 95.983,74.902 95.979,74.875C95.945,74.682 96.344,74.435 96.476,74.354C96.523,74.325 96.574,74.301 96.623,74.276C96.665,74.255 96.774,74.246 96.746,74.209C96.678,74.118 96.297,74.078 96.202,74.076C95.803,74.064 95.397,74.052 95.002,73.995C94.91,73.981 94.665,73.979 94.598,73.906C94.57,73.875 94.756,73.598 94.774,73.57C94.935,73.322 95.235,73.027 95.087,72.702C94.824,72.124 94.219,72.129 93.674,71.926C93.487,71.856 93.309,71.772 93.148,71.656C93.137,71.648 93.012,71.552 93.018,71.544C93.071,71.472 93.378,71.408 93.471,71.349C93.93,71.061 94.28,70.472 93.805,70.058C93.657,69.928 93.314,69.91 93.207,69.785C93.168,69.739 93.327,69.754 93.386,69.736C93.49,69.704 93.591,69.664 93.691,69.621C94.033,69.472 94.422,69.295 94.443,68.895C94.132,68.396 93.055,68.302 92.619,67.978C92.545,67.923 92.411,67.857 92.365,67.782C92.331,67.727 92.495,67.759 92.56,67.751C92.698,67.735 92.835,67.721 92.972,67.698C93.341,67.637 94.1,67.492 94.205,67.054C94.335,66.508 93.837,66.38 93.472,66.173C93.385,66.123 93.094,65.943 93.093,65.834C93.093,65.834 93.425,65.798 93.459,65.793C93.737,65.755 94.075,65.738 94.223,65.47C94.27,65.384 94.208,65.278 94.17,65.194C94.061,64.951 93.914,64.79 93.699,64.63C93.691,64.625 93.456,64.497 93.447,64.46C93.434,64.411 93.549,64.447 93.6,64.439C93.709,64.421 93.816,64.397 93.923,64.371C94.224,64.297 94.511,64.174 94.726,63.954L94.694,63.913C94.821,63.471 94.118,63.001 93.813,62.625C93.725,62.516 93.623,62.416 93.517,62.323C93.499,62.307 93.349,62.185 93.351,62.182C93.377,62.143 93.734,62.115 93.777,62.106C94.124,62.036 94.475,61.946 94.775,61.757C94.938,61.655 95.418,61.334 95.384,61.089C95.369,60.982 95.337,60.873 95.31,60.769C95.292,60.698 95.182,60.579 95.253,60.556C96.114,60.282 96.231,60.584 96.756,60.149C97.068,59.746 97.096,59.509 96.792,59.133C96.704,59.024 96.602,58.924 96.496,58.832C96.478,58.816 96.328,58.693 96.329,58.69C96.356,58.652 96.712,58.623 96.756,58.615C97.102,58.544 97.454,58.454 97.754,58.265C97.916,58.163 98.396,57.843 98.362,57.597C98.348,57.49 98.316,57.381 98.289,57.277C98.271,57.206 98.16,57.087 98.232,57.065C99.096,56.789 100.922,56.929 101.809,56.794L101.808,56.794ZM94.443,68.895C94.451,68.909 94.459,68.923 94.467,68.937L94.444,68.874C94.443,68.881 94.443,68.888 94.443,68.895ZM127.567,68.895C127.566,68.888 127.566,68.881 127.566,68.874L127.543,68.937C127.55,68.923 127.558,68.909 127.567,68.895ZM96.756,60.149L96.762,60.144L96.756,60.149ZM125.254,60.149L125.248,60.144L125.254,60.149Z" style="fill:rgb(118,101,97);"/>
        </g>
        <g transform="matrix(1.27319,-0.735074,0.632063,1.09476,-68.6519,81.2813)">
            <path d="M110.762,54.096C116.735,54.096 120.292,56.302 120.884,60.857C121.534,65.868 116.949,70.76 110.762,70.742C104.669,70.725 100.416,65.647 100.626,60.857C100.827,56.268 104.79,54.096 110.762,54.096Z" style="fill:rgb(238,216,188);"/>
        </g>
        <g transform="matrix(1.71089,-0.98778,0.99576,1.72471,-135.499,75.7274)">
            <path d="M108.88,61.745C108.65,61.253 108.285,60.377 108.18,59.841C107.944,58.638 109.129,57.782 110.267,57.917C110.686,57.966 111.023,58.131 111.379,58.343C112.113,58.783 112.635,59.272 112.453,60.197C112.418,60.374 112.36,60.562 112.261,60.715C112.082,60.994 111.839,61.54 111.577,61.745" style="fill:rgb(39,39,39);"/>
        </g>
        <g transform="matrix(1.30141,-0.75137,0.795175,1.37728,-78.0282,70.1187)">
            <path d="M105.273,61.705C106.788,62.261 108.443,62.47 110.044,62.204" style="fill:none;stroke:rgb(39,39,39);stroke-width:1.27px;"/>
        </g>
        <g transform="matrix(-1.30141,0.75137,0.795175,1.37728,208.396,-95.2484)">
            <path d="M105.273,61.705C106.788,62.261 108.443,62.47 110.044,62.204" style="fill:none;stroke:rgb(39,39,39);stroke-width:1.27px;"/>
        </g>
        <g transform="matrix(0.866025,-0.5,0.5,0.866025,-18.5279,64.4519)">
            <path d="M127.567,68.895C127.566,68.888 127.566,68.881 127.566,68.874L127.543,68.937C127.55,68.923 127.558,68.909 127.567,68.895Z" style="fill:rgb(61,61,61);"/>
        </g>
        <g transform="matrix(0.866025,-0.5,0.5,0.866025,-18.5279,64.4519)">
            <path d="M94.443,68.895C94.451,68.909 94.459,68.923 94.467,68.937L94.444,68.874C94.443,68.881 94.443,68.888 94.443,68.895Z" style="fill:rgb(61,61,61);"/>
        </g>
        <g transform="matrix(0.866025,-0.5,0.551908,0.955933,-21.9953,58.4462)">
            <path d="M100.744,60.463C101.342,60.343 102.56,60.74 104.024,60.538C105.363,60.353 106.781,60.399 108.132,60.488C109.528,60.58 110.912,60.789 112.319,60.714C113.657,60.643 114.969,60.281 116.311,60.218C118.012,60.137 119.687,60.282 121.384,60.346C121.947,60.367 122.511,60.374 123.074,60.378C123.258,60.379 123.441,60.38 123.625,60.381C123.684,60.381 123.743,60.382 123.802,60.382C123.828,60.382 123.898,60.401 123.88,60.382C123.504,59.99 122.865,59.882 122.415,59.593C121.355,58.913 120.339,58.281 119.112,57.906C118.626,57.757 118.135,57.699 117.638,57.609C116.898,57.475 116.173,57.279 115.421,57.213C113.86,57.076 112.289,57.174 110.726,57.103C109.011,57.025 107.315,56.436 105.585,56.688C105.049,56.766 104.508,56.912 103.988,57.061C103.57,57.181 103.154,57.303 102.733,57.408C101.909,57.613 101.308,58.112 100.603,58.553C100.27,58.762 99.841,58.925 99.551,59.198C99.129,59.595 99.233,60.766 100.744,60.463Z" style="fill:rgb(118,101,97);"/>
        </g>
        <g transform="matrix(0.866025,-0.5,0.5,0.866025,-18.2854,64.8063)">
            <clipPath id="_clip1">
                <path d="M101.775,55.327C104.392,53.846 107.56,52.979 110.972,52.979C114.384,52.979 117.552,53.846 120.169,55.327L120.168,55.327C121.055,55.476 122.881,55.322 123.745,55.626C123.816,55.651 123.706,55.782 123.688,55.86C123.661,55.975 123.629,56.095 123.614,56.214C123.58,56.485 124.06,56.838 124.223,56.951C124.523,57.16 124.874,57.259 125.221,57.337C125.264,57.346 125.621,57.378 125.647,57.42C125.649,57.423 125.499,57.559 125.481,57.577C125.375,57.678 125.273,57.789 125.185,57.909C124.88,58.324 124.908,58.586 125.221,59.03C125.745,59.511 125.863,59.177 126.724,59.48C126.795,59.505 126.685,59.636 126.666,59.715C126.64,59.83 126.608,59.95 126.593,60.068C126.559,60.339 127.039,60.693 127.201,60.805C127.502,61.014 127.853,61.113 128.2,61.191C128.243,61.201 128.6,61.231 128.626,61.275C128.628,61.278 128.478,61.413 128.46,61.43C128.353,61.533 128.252,61.643 128.164,61.764C127.859,62.179 127.155,62.697 127.283,63.185L127.25,63.231C127.466,63.473 127.753,63.609 128.053,63.691C128.16,63.719 128.268,63.746 128.377,63.766C128.427,63.775 128.543,63.735 128.53,63.789C128.52,63.83 128.286,63.971 128.278,63.977C128.063,64.153 127.916,64.331 127.806,64.599C127.769,64.692 127.707,64.809 127.754,64.904C127.902,65.2 128.239,65.218 128.518,65.26C128.552,65.266 128.884,65.306 128.884,65.306C128.882,65.426 128.591,65.625 128.505,65.68C128.14,65.908 127.641,66.05 127.772,66.652C127.877,67.136 128.636,67.296 129.005,67.363C129.142,67.389 129.279,67.404 129.417,67.422C129.482,67.431 129.646,67.395 129.612,67.456C129.565,67.539 129.432,67.612 129.358,67.672C128.922,68.03 127.845,68.134 127.534,68.684C127.555,69.126 127.943,69.321 128.286,69.486C128.385,69.533 128.487,69.577 128.591,69.613C128.65,69.633 128.809,69.616 128.769,69.667C128.663,69.805 128.319,69.825 128.171,69.968C127.696,70.425 128.047,71.075 128.506,71.393C128.599,71.458 128.906,71.529 128.959,71.608C128.964,71.617 128.84,71.723 128.829,71.732C128.668,71.86 128.49,71.953 128.303,72.03C127.758,72.254 127.152,72.249 126.89,72.887C126.742,73.245 127.041,73.571 127.202,73.845C127.221,73.876 127.406,74.181 127.379,74.216C127.312,74.296 127.066,74.298 126.975,74.314C126.579,74.377 126.173,74.39 125.774,74.403C125.68,74.406 125.298,74.45 125.231,74.55C125.203,74.591 125.312,74.601 125.354,74.624C125.403,74.652 125.453,74.678 125.501,74.71C125.633,74.8 126.032,75.072 125.998,75.285C125.993,75.315 125.853,75.308 125.839,75.308C125.662,75.297 125.498,75.232 125.337,75.158C124.944,74.977 124.051,74.689 123.252,75.147C120.27,77.974 115.873,79.763 110.972,79.763C106.027,79.763 101.595,77.942 98.611,75.07C98.631,75.1 98.65,75.129 98.67,75.158C97.867,74.684 97.003,74.975 96.607,75.158C96.445,75.232 96.282,75.297 96.105,75.308C96.091,75.308 95.95,75.315 95.946,75.285C95.912,75.072 96.311,74.8 96.443,74.71C96.49,74.678 96.541,74.652 96.59,74.624C96.632,74.601 96.741,74.591 96.713,74.55C96.645,74.45 96.264,74.406 96.169,74.403C95.77,74.39 95.364,74.377 94.969,74.314C94.877,74.298 94.632,74.296 94.565,74.216C94.537,74.181 94.723,73.876 94.741,73.845C94.902,73.571 95.202,73.245 95.054,72.887C94.791,72.249 94.186,72.254 93.641,72.03C93.454,71.953 93.276,71.86 93.115,71.732C93.104,71.723 92.979,71.617 92.985,71.608C93.038,71.529 93.345,71.458 93.438,71.393C93.897,71.075 94.247,70.425 93.772,69.968C93.624,69.825 93.281,69.805 93.174,69.667C93.135,69.616 93.294,69.633 93.353,69.613C93.457,69.577 93.558,69.533 93.658,69.486C94,69.321 94.389,69.126 94.41,68.684C94.099,68.134 93.022,68.03 92.586,67.672C92.512,67.612 92.378,67.539 92.332,67.456C92.298,67.395 92.462,67.431 92.527,67.422C92.665,67.404 92.802,67.389 92.939,67.363C93.308,67.296 94.067,67.136 94.172,66.652C94.302,66.05 93.804,65.908 93.439,65.68C93.352,65.625 93.061,65.426 93.06,65.306C93.06,65.306 93.392,65.266 93.426,65.26C93.704,65.218 94.042,65.2 94.19,64.904C94.237,64.809 94.175,64.692 94.137,64.599C94.028,64.331 93.881,64.153 93.666,63.977C93.658,63.971 93.423,63.83 93.414,63.789C93.401,63.735 93.516,63.775 93.567,63.766C93.676,63.746 93.783,63.719 93.89,63.691C94.191,63.609 94.478,63.473 94.693,63.231L94.661,63.185C94.788,62.697 94.085,62.179 93.78,61.764C93.692,61.643 93.59,61.533 93.484,61.43C93.466,61.413 93.316,61.278 93.318,61.275C93.344,61.231 93.701,61.201 93.744,61.191C94.091,61.113 94.442,61.014 94.742,60.805C94.905,60.693 95.385,60.339 95.351,60.068C95.336,59.95 95.304,59.83 95.277,59.715C95.259,59.636 95.149,59.505 95.22,59.48C96.081,59.177 96.198,59.511 96.723,59.03C97.035,58.586 97.063,58.324 96.759,57.909C96.671,57.789 96.569,57.678 96.463,57.577C96.445,57.559 96.295,57.423 96.296,57.42C96.323,57.378 96.679,57.346 96.723,57.337C97.069,57.259 97.421,57.16 97.721,56.951C97.883,56.838 98.363,56.485 98.329,56.214C98.315,56.095 98.283,55.975 98.256,55.86C98.238,55.782 98.127,55.651 98.199,55.626C99.063,55.322 100.889,55.476 101.776,55.327L101.775,55.327ZM94.41,68.684C94.418,68.7 94.426,68.715 94.434,68.731L94.411,68.661C94.41,68.669 94.41,68.677 94.41,68.684ZM127.534,68.684C127.533,68.677 127.533,68.669 127.533,68.661L127.51,68.731C127.517,68.715 127.525,68.7 127.534,68.684ZM96.723,59.03L96.729,59.025L96.723,59.03ZM125.221,59.03L125.215,59.025L125.221,59.03Z"/>
            </clipPath>
            <g clip-path="url(#_clip1)">
                <path d="M89.096,67.01C90.093,66.39 91.236,66.036 92.328,65.62C95.477,64.42 99.617,62.392 102.983,62.355C103.715,62.346 104.452,62.567 104.984,63.089C105.903,63.989 106.033,65.752 105.162,66.69C104.015,67.924 101.27,68.008 99.669,67.99C95.812,67.946 92.915,70.275 89.662,71.314" style="fill:rgb(121,101,96);"/>
            </g>
        </g>
        <g transform="matrix(-0.866025,0.5,0.5,0.866025,174.719,-46.625)">
            <clipPath id="_clip2">
                <path d="M121.087,55.327C118.47,53.846 115.302,52.979 111.89,52.979C108.478,52.979 105.31,53.846 102.693,55.327L102.694,55.327C101.807,55.476 99.981,55.322 99.117,55.626C99.046,55.651 99.156,55.782 99.174,55.86C99.201,55.975 99.233,56.095 99.248,56.214C99.282,56.485 98.802,56.838 98.639,56.951C98.339,57.16 97.988,57.259 97.641,57.337C97.598,57.346 97.241,57.378 97.215,57.42C97.213,57.423 97.363,57.559 97.381,57.577C97.487,57.678 97.589,57.789 97.677,57.909C97.982,58.324 97.954,58.586 97.641,59.03C97.117,59.511 96.999,59.177 96.138,59.48C96.067,59.505 96.177,59.636 96.196,59.715C96.222,59.83 96.254,59.95 96.269,60.068C96.303,60.339 95.823,60.693 95.661,60.805C95.36,61.014 95.009,61.113 94.662,61.191C94.619,61.201 94.262,61.231 94.236,61.275C94.234,61.278 94.384,61.413 94.402,61.43C94.509,61.533 94.61,61.643 94.698,61.764C95.003,62.179 95.707,62.697 95.579,63.185L95.612,63.231C95.396,63.473 95.109,63.609 94.809,63.691C94.702,63.719 94.594,63.746 94.485,63.766C94.435,63.775 94.319,63.735 94.332,63.789C94.342,63.83 94.576,63.971 94.584,63.977C94.799,64.153 94.946,64.331 95.056,64.599C95.093,64.692 95.155,64.809 95.108,64.904C94.96,65.2 94.623,65.218 94.344,65.26C94.31,65.266 93.978,65.306 93.978,65.306C93.98,65.426 94.271,65.625 94.357,65.68C94.722,65.908 95.221,66.05 95.09,66.652C94.985,67.136 94.226,67.296 93.857,67.363C93.72,67.389 93.583,67.404 93.445,67.422C93.38,67.431 93.216,67.395 93.25,67.456C93.297,67.539 93.43,67.612 93.504,67.672C93.94,68.03 95.017,68.134 95.328,68.684C95.307,69.126 94.919,69.321 94.576,69.486C94.477,69.533 94.375,69.577 94.271,69.613C94.212,69.633 94.053,69.616 94.093,69.667C94.199,69.805 94.543,69.825 94.691,69.968C95.166,70.425 94.815,71.075 94.356,71.393C94.263,71.458 93.956,71.529 93.903,71.608C93.898,71.617 94.022,71.723 94.033,71.732C94.194,71.86 94.372,71.953 94.559,72.03C95.104,72.254 95.71,72.249 95.972,72.887C96.12,73.245 95.821,73.571 95.66,73.845C95.641,73.876 95.456,74.181 95.483,74.216C95.55,74.296 95.796,74.298 95.887,74.314C96.283,74.377 96.689,74.39 97.088,74.403C97.182,74.406 97.564,74.45 97.631,74.55C97.659,74.591 97.55,74.601 97.508,74.624C97.459,74.652 97.409,74.678 97.361,74.71C97.229,74.8 96.83,75.072 96.864,75.285C96.869,75.315 97.009,75.308 97.023,75.308C97.2,75.297 97.364,75.232 97.525,75.158C97.918,74.977 98.811,74.689 99.61,75.147C102.592,77.974 106.989,79.763 111.89,79.763C116.835,79.763 121.267,77.942 124.251,75.07C124.231,75.1 124.212,75.129 124.192,75.158C124.995,74.684 125.859,74.975 126.255,75.158C126.417,75.232 126.58,75.297 126.757,75.308C126.771,75.308 126.912,75.315 126.916,75.285C126.95,75.072 126.551,74.8 126.419,74.71C126.372,74.678 126.321,74.652 126.272,74.624C126.23,74.601 126.121,74.591 126.149,74.55C126.217,74.45 126.598,74.406 126.693,74.403C127.092,74.39 127.498,74.377 127.893,74.314C127.985,74.298 128.23,74.296 128.297,74.216C128.325,74.181 128.139,73.876 128.121,73.845C127.96,73.571 127.66,73.245 127.808,72.887C128.071,72.249 128.676,72.254 129.221,72.03C129.408,71.953 129.586,71.86 129.747,71.732C129.758,71.723 129.883,71.617 129.877,71.608C129.824,71.529 129.517,71.458 129.424,71.393C128.965,71.075 128.615,70.425 129.09,69.968C129.238,69.825 129.581,69.805 129.688,69.667C129.727,69.616 129.568,69.633 129.509,69.613C129.405,69.577 129.304,69.533 129.204,69.486C128.862,69.321 128.473,69.126 128.452,68.684C128.763,68.134 129.84,68.03 130.276,67.672C130.35,67.612 130.484,67.539 130.53,67.456C130.564,67.395 130.4,67.431 130.335,67.422C130.197,67.404 130.06,67.389 129.923,67.363C129.554,67.296 128.795,67.136 128.69,66.652C128.56,66.05 129.058,65.908 129.423,65.68C129.51,65.625 129.801,65.426 129.802,65.306C129.802,65.306 129.47,65.266 129.436,65.26C129.158,65.218 128.82,65.2 128.672,64.904C128.625,64.809 128.687,64.692 128.725,64.599C128.834,64.331 128.981,64.153 129.196,63.977C129.204,63.971 129.439,63.83 129.448,63.789C129.461,63.735 129.346,63.775 129.295,63.766C129.186,63.746 129.079,63.719 128.972,63.691C128.671,63.609 128.384,63.473 128.169,63.231L128.201,63.185C128.074,62.697 128.777,62.179 129.082,61.764C129.17,61.643 129.272,61.533 129.378,61.43C129.396,61.413 129.546,61.278 129.544,61.275C129.518,61.231 129.161,61.201 129.118,61.191C128.771,61.113 128.42,61.014 128.12,60.805C127.957,60.693 127.477,60.339 127.511,60.068C127.526,59.95 127.558,59.83 127.585,59.715C127.603,59.636 127.713,59.505 127.642,59.48C126.781,59.177 126.664,59.511 126.139,59.03C125.827,58.586 125.799,58.324 126.103,57.909C126.191,57.789 126.293,57.678 126.399,57.577C126.417,57.559 126.567,57.423 126.566,57.42C126.539,57.378 126.183,57.346 126.139,57.337C125.793,57.259 125.441,57.16 125.141,56.951C124.979,56.838 124.499,56.485 124.533,56.214C124.547,56.095 124.579,55.975 124.606,55.86C124.624,55.782 124.735,55.651 124.663,55.626C123.799,55.322 121.973,55.476 121.086,55.327L121.087,55.327ZM128.452,68.684C128.444,68.7 128.436,68.715 128.428,68.731L128.451,68.661C128.452,68.669 128.452,68.677 128.452,68.684ZM95.328,68.684C95.329,68.677 95.329,68.669 95.329,68.661L95.352,68.731C95.345,68.715 95.337,68.7 95.328,68.684ZM126.139,59.03L126.133,59.025L126.139,59.03ZM97.641,59.03L97.647,59.025L97.641,59.03Z"/>
            </clipPath>
            <g clip-path="url(#_clip2)">
                <path d="M90.014,67.01C91.011,66.39 92.154,66.036 93.246,65.62C96.396,64.42 99.617,62.392 102.983,62.355C103.715,62.346 104.452,62.567 104.984,63.089C105.903,63.989 106.033,65.752 105.162,66.69C104.015,67.924 102.518,67.821 100.926,67.99C96.787,68.429 93.833,70.275 90.581,71.314" style="fill:rgb(121,101,96);"/>
            </g>
        </g>
        <g transform="matrix(0.760486,-0.737926,0.72141,0.698849,-20.6517,81.2883)">
            <path d="M86.555,77.746C87.576,77.479 88.563,77.423 90.115,77.589" style="fill:none;stroke:rgb(30,30,30);stroke-width:1.43px;"/>
        </g>
        <g transform="matrix(-1.01931,0.289638,0.244516,0.974184,190.266,-40.4852)">
            <path d="M86.555,77.746C87.576,77.479 88.563,77.423 90.115,77.589" style="fill:none;stroke:rgb(30,30,30);stroke-width:1.43px;"/>
        </g>
    </g>
    <g transform="matrix(1.03,0.13093,-0.133089,1.04698,8.47054,-3.12064)">
        <path d="M5.619,63.406C13.951,59.824 22.472,56.267 30.628,52.277C33.381,50.93 35.833,48.795 38.619,47.58C42.82,45.748 47.612,44.603 51.74,42.594C57.765,39.661 63.46,35.864 69.623,33.22C76.022,30.475 81.496,27.378 88.114,23.993C90.48,22.783 93.298,21.484 95.341,19.798C100.046,15.918 104.786,12.558 109.619,8.915" style="fill:none;stroke:rgb(133,92,82);stroke-width:9.53px;"/>
    </g>
    <g transform="matrix(1.06349,0,0,1.06349,1.20112,2.87058)">
        <path d="M35.017,76.946C32.58,76.307 32.105,74.796 31.545,71.899C31.071,69.442 31.08,66.747 30.263,64.375C28.632,59.641 26.385,55.558 25.21,50.645C25,49.765 24.637,48.695 24.982,47.817C25.416,46.71 25.25,45.88 25.851,44.891C26.491,43.837 26.84,43.516 25.851,42.666C25.063,41.989 22.189,43.379 21.581,43.911C19.571,45.666 17.992,46.693 18.234,49.162C18.495,51.837 18.789,54.935 19.508,57.5C20.145,59.769 20.185,61.634 21.157,63.741C22.344,66.314 22.968,69.195 23.806,71.899C24.401,73.818 24.394,75.888 24.713,77.864C25.022,79.771 25.728,81.613 26.168,82.714" style="fill:rgb(146,123,117);"/>
    </g>
    <g transform="matrix(1.06349,0,0,1.06349,46.8041,-12.6599)">
        <path d="M35.077,77.422C32.64,76.783 32.105,74.796 31.545,71.899C31.071,69.442 31.08,66.747 30.263,64.375C28.632,59.641 26.385,55.558 25.21,50.645C25,49.765 24.637,48.695 24.982,47.817C25.416,46.71 25.25,45.88 25.851,44.891C26.491,43.837 25.906,43.651 25.427,43.254C24.627,42.592 21.765,43.967 21.157,44.499C19.147,46.255 17.992,46.693 18.234,49.162C18.495,51.837 18.789,54.935 19.508,57.5C20.145,59.769 20.185,61.634 21.157,63.741C22.344,66.314 22.968,69.195 23.806,71.899C24.401,73.818 24.394,74.32 24.713,76.296C25.022,78.203 24.27,78.419 22.633,78.763C27.444,82.167 31.563,83.232 35.077,77.422Z" style="fill:rgb(146,123,117);"/>
    </g>
</svg>
