<?xml version="1.0" encoding="utf-8"?>
<!-- Generator: Adobe Illustrator 24.1.2, SVG Export Plug-In . SVG Version: 6.00 Build 0)  -->
<svg version="1.1" id="Layer_2_copy" xmlns="http://www.w3.org/2000/svg" xmlns:xlink="http://www.w3.org/1999/xlink" x="0px"
	 y="0px" viewBox="0 0 128 128" style="enable-background:new 0 0 128 128;" xml:space="preserve">
<g>
	<g>
		<linearGradient id="SVGID_1_" gradientUnits="userSpaceOnUse" x1="30.1474" y1="101.3039" x2="96.2525" y2="101.3039">
			<stop  offset="0" style="stop-color:#424242"/>
			<stop  offset="1" style="stop-color:#212121"/>
		</linearGradient>
		<path style="fill:url(#SVGID_1_);" d="M66.95,78.66c0.04,0.63,0.08,11.07,0.14,11.71c0.77,8.15,3.59,16.64,11.27,19.73
			c7.5,3.12,12.98,4.18,15.78,7.29c1.39,1.53,2.12,3.55,2.12,6.57H30.15c0-3.01,0.73-5.04,2.12-6.57c2.8-3.1,8.27-4.17,15.78-7.29
			c7.57-3.14,10.42-11.34,11.24-19.37c0.08-0.76,0.14-11.32,0.18-12.07H66.95z"/>
		<linearGradient id="SVGID_2_" gradientUnits="userSpaceOnUse" x1="63.5" y1="11.2588" x2="63.5" y2="121.8078">
			<stop  offset="0" style="stop-color:#424242"/>
			<stop  offset="1" style="stop-color:#212121"/>
		</linearGradient>
		<path style="fill:url(#SVGID_2_);" d="M107.68,50.86C92.79,28.48,63.81,4.68,63.51,4.43V4.42c0,0-0.01,0.01-0.01,0.01
			c0,0-0.01-0.01-0.01-0.01v0.01c-0.3,0.25-29.28,24.05-44.17,46.43c-22.07,33.17-1.05,50.86,14.3,50.86
			c11.78,0,21.85-7.34,25.89-17.69h3.98h0.01h3.98c4.04,10.35,14.11,17.69,25.89,17.69C108.73,101.72,129.74,84.03,107.68,50.86z"/>
	</g>
	
		<radialGradient id="SVGID_3_" cx="63.0778" cy="92.3762" r="64.2332" gradientTransform="matrix(1 0 0 1.3662 0 -33.8266)" gradientUnits="userSpaceOnUse">
		<stop  offset="0.524" style="stop-color:#616161;stop-opacity:0"/>
		<stop  offset="0.9401" style="stop-color:#616161"/>
	</radialGradient>
	<path style="fill:url(#SVGID_3_);" d="M108.18,50.86C93.29,28.48,64.31,4.68,64.01,4.43V4.42c0,0-0.01,0.01-0.01,0.01
		c0,0-0.01-0.01-0.01-0.01v0.01c-0.3,0.25-29.28,24.05-44.17,46.43c-22.07,33.17-1.05,50.86,14.3,50.86
		c11.78,0,21.85-7.34,25.89-17.69h3.98h0.01h3.98c4.04,10.35,14.11,17.69,25.89,17.69C109.23,101.72,130.24,84.03,108.18,50.86z"/>
	<linearGradient id="SVGID_4_" gradientUnits="userSpaceOnUse" x1="64" y1="71.2366" x2="64" y2="119.9932">
		<stop  offset="0" style="stop-color:#424242;stop-opacity:0"/>
		<stop  offset="1" style="stop-color:#424242"/>
	</linearGradient>
	<path style="fill:url(#SVGID_4_);" d="M93.88,101.72c15.35,0,36.37-17.69,14.3-50.86C93.29,28.48,64.31,4.68,64.01,4.43V4.42
		c0,0-0.01,0.01-0.01,0.01c0,0-0.01-0.01-0.01-0.01v0.01c-0.3,0.25-29.28,24.05-44.17,46.43c-22.07,33.17-1.05,50.86,14.3,50.86
		c11.67,0,21.64-7.2,25.76-17.38c-0.03,2.94-0.07,6-0.11,6.4c-0.82,8.02-3.67,16.23-11.24,19.37c-7.5,3.12-12.98,4.18-15.78,7.29
		c-1.39,1.53-2.12,3.55-2.12,6.57h66.11c0-3.01-0.73-5.04-2.12-6.57c-2.8-3.1-8.27-4.17-15.78-7.29
		c-7.68-3.09-10.5-11.58-11.27-19.73c-0.03-0.34-0.06-3.42-0.09-6.34h0.48C72.03,94.38,82.09,101.72,93.88,101.72z"/>
</g>
</svg>
