<?xml version="1.0" encoding="utf-8"?>
<!-- Generator: Adobe Illustrator 19.2.1, SVG Export Plug-In . SVG Version: 6.00 Build 0)  -->
<svg version="1.1" xmlns="http://www.w3.org/2000/svg" xmlns:xlink="http://www.w3.org/1999/xlink" x="0px" y="0px"
	 viewBox="0 0 128 128" style="enable-background:new 0 0 128 128;" xml:space="preserve">
<g id="Layer_1">
	<path style="display:none;fill:#E39E49;" d="M-1171.7,65.14c0,0,9.08-0.67,16.3,0.96l-0.12-3.1c0,0-6.36-1.17-13.24-0.79
		c-2.31,0.13-5.39,0.04-7.58,0.58c-3.73,0.91-7.12,2.58-9.26,4.71l-3.59-8.76c0,0-2.76,1.94-3.14,2.33
		c-0.48,0.48-1.18,0.22-1.18,0.22c-0.03,0-0.03,0.03-0.04,0.06c0.7,0.51,1.37,1.14,1.97,2c1.09,1.55,2.7,3.92,4.34,6.34
		c-0.13,0.26-0.28,0.52-0.37,0.79c0,0-2.21,5.66,2.75,9.71c0,0,1.55,1.49,5.83,1.63c2.2,3.95-0.76,6.59-0.76,6.59
		c-4.16,3.61-9.08-0.39-9.08-0.39c-0.95-0.57-4.31-4.34-5.67-5.9l-5.96-7.22c0,0,0.19,0.93-0.19,1.32
		c-0.48,0.48-1.18,0.22-1.18,0.22c-0.02,0-0.02,0.03-0.03,0.04c0.46,0.36,0.93,0.77,1.38,1.28c2.15,2.41,4.7,5.61,6.65,8.14
		l-0.01-0.03l0.93,1.23c3.47,4.37,3.18,5.78,3.18,5.78c0.14,3.69-3.93,4.96-3.93,4.96c-3.8,1.39-7.62-2.23-7.62-2.23
		c-1.29-1.2-6.24-6.2-6.24-6.2l3.31,6.1c3.03,3.5,5.79,4.41,5.79,4.41c5.79,2.12,9.63-2.14,9.63-2.14c1.4-1.67,1.41-3.46,1.41-3.46
		c0.03-1.06-0.23-2.09-0.64-3.06c5.56,2.93,9.77-0.44,9.77-0.44c3.51-3.15,2.59-7.24,1.91-9.08c0.61-0.05,1.25-0.12,1.95-0.23
		c3.47-0.53,5.64-0.87,7.86-0.78c0,0,6.12,0.22,7.5,3.87c0,0,0.48,1.69-0.04,3.99c0,0-0.11,1.81,1.04,1.91
		c0.6,0.05,1.86-0.64,2.48-1.6c0,0,0.78-1.01,0.67-3.07c0,0,0.19-3.18-3.4-5.57c0,0-2.5-1.82-5.56-2.1
		c-3.26-0.31-4.43-0.5-9.53,0.24c0,0-5.44,0.96-9.26-0.56c0,0-3.22-1.45-2.05-5.45C-1184.69,72.38-1182.99,66.25-1171.7,65.14z"/>
</g>
<g id="Layer_4">
</g>
<g id="Layer_3">
</g>
<g id="Layer_2">
	<g>
		<g>
			<g>
				<path style="fill:#BF8F68;" d="M39.11,79.56c-1.1,1.03-2.21-0.2-2.21-0.2S18.42,59.78,17.22,58.9
					c-1.69-1.23-5.31-3.16-8.93,0.57c-1.51,1.55-3.97,5,0.6,10.56c0.99,1.2,29.78,31.54,31.46,33.18c0,0,13.3,12.94,21.35,17.81
					c2.23,1.35,4.74,2.78,7.67,3.78c2.92,1,6.22,1.69,9.7,1.69c3.48,0.04,7.09-0.63,10.5-1.88c3.41-1.26,6.59-3.09,9.48-5.2
					c0.71-0.54,1.43-1.08,2.1-1.66l1.94-1.6c1.35-1.13,2.61-2.32,3.82-3.53c2.43-2.42,4.62-5.01,6.55-7.66
					c1.92-2.66,3.55-5.41,4.85-8.15c1.3-2.74,2.21-5.49,2.76-8.09c0.58-2.59,0.74-5.04,0.65-7.18c-0.02-2.14-0.45-3.97-0.8-5.43
					c-0.4-1.46-0.83-2.55-1.17-3.27c-0.33-0.72-0.51-1.1-0.51-1.1l0,0c-0.46-1.29-0.9-2.52-1.29-3.63
					c-1.1-3.13-2.37-6.64-3.69-10.25c-0.56-1.53-0.82-2.22-0.82-2.22l0.01,0.03c-4.85-13.17-10.06-26.74-10.06-26.74
					c-0.79-2.39-3.7-3.22-5.84-1.68c-6.18,4.44-8.07,10.92-5.89,17.83l5.59,15.32c0.79,1.71-1.39,3.69-2.85,2.5
					c-4.59-3.74-14.3-14.05-14.3-14.05c-4.34-4.16-28.83-29.27-30.47-30.8c-3.3-3.07-7.46-4.65-10.63-2.32
					c-3.24,2.38-4.14,6.06-1.01,10.08c0.85,1.09,25.6,27.24,25.6,27.24c1.44,1.51-0.26,3.65-1.85,2.18c0,0-30.79-32.12-32.18-33.62
					c-3.15-3.42-8.21-4.17-11.21-1.35c-2.93,2.75-2.86,7.26,0.34,10.8c1.02,1.12,22.71,24.02,31.39,33.4
					c0.58,0.63,1.03,1.47,0.17,2.26c-0.01,0.01-0.88,0.95-2-0.25c-2.36-2.52-25.93-27.08-27.24-28.41C18,35,13.96,33.55,10.71,36.53
					c-2.96,2.71-3.44,7.44-0.04,10.78l28.55,30.18C39.22,77.49,40.15,78.59,39.11,79.56z"/>
			</g>
			<path style="fill:#99674F;" d="M85.46,54.4l2.41,2.58c0,0-13.79,13.31-4.39,33.75c0,0,1.22,2.59-0.38,3.02c0,0-1.4,0.78-3-3.2
				C80.1,90.54,70.61,71.13,85.46,54.4z"/>
		</g>
		<path style="fill:none;stroke:#444444;stroke-width:4;stroke-linecap:round;stroke-miterlimit:10;" d="M63.28,10.2
			c0,0,5.81,0.88,11.19,6.64s7.87,13.18,7.87,13.18"/>
		<path style="fill:none;stroke:#444444;stroke-width:4;stroke-linecap:round;stroke-miterlimit:10;" d="M77.44,3.5
			c0,0,4.87,2.45,8.63,8.5c3.76,6.05,4.67,13.05,4.67,13.05"/>
		<path style="fill:none;stroke:#444444;stroke-width:4;stroke-linecap:round;stroke-miterlimit:10;" d="M35.71,110.73
			c0,0-5.86,0.39-12.35-4.09S12.84,95.46,12.84,95.46"/>
		<path style="fill:none;stroke:#444444;stroke-width:4;stroke-linecap:round;stroke-miterlimit:10;" d="M31.53,120.56
			c0,0-5.44,0.23-11.68-3.22s-10.44-9.12-10.44-9.12"/>
	</g>
</g>
</svg>
