<svg width="128" height="128" style="enable-background:new 0 0 128 128;" xmlns="http://www.w3.org/2000/svg" xmlns:xlink="http://www.w3.org/1999/xlink">
  <symbol id="Grid" viewBox="-64.5 -64.5 129 129">
    <g>
      <rect height="128" style="fill:none;stroke:#4285F4;stroke-miterlimit:10;" width="128" x="-64" y="-64"/>
      <path d="M36.95,37.82C27.32,46.32,14.2,51,0,51 c-14.27,0-27.39-4.62-36.96-13.01C-47.45,28.79-53,15.65-53,0c0-15.58,5.55-28.69,16.04-37.92C-27.36-46.35-14.24-51,0-51 c14.17,0,27.29,4.71,36.95,13.25C47.45-28.45,53-15.4,53,0C53,15.47,47.45,28.55,36.95,37.82z" style="fill:none;stroke:#4285F4;stroke-miterlimit:10;"/>
      <path d="M0,55L0,55L0,55c-29.59,0-57-19.01-57-55c0-35.8,27.41-55,57-55 h0h0c29.59,0,57,19.69,57,55C57,35.51,29.59,55,0,55z" style="fill:none;stroke:#4285F4;stroke-miterlimit:10;"/>
      <path d="M0-43c-12.29,0-23.54,3.94-31.68,11.09 C-40.39-24.25-45-13.21-45,0c0,29.7,22.6,43,45,43c21.67,0,45-13.46,45-43S21.67-43,0-43L0-43z" style="fill:none;stroke:#4285F4;stroke-miterlimit:10;"/>
      <line style="fill:none;stroke:#4285F4;stroke-miterlimit:10;" x1="-0.01" x2="-0.01" y1="51" y2="-51"/>
      <line style="fill:none;stroke:#4285F4;stroke-miterlimit:10;" x1="-16" x2="-16" y1="48.95" y2="-48.93"/>
      <line style="fill:none;stroke:#4285F4;stroke-miterlimit:10;" x1="15.99" x2="15.99" y1="48.91" y2="-48.93"/>
      <line style="fill:none;stroke:#4285F4;stroke-miterlimit:10;" x1="53" x2="-53" y1="0.08" y2="0.08"/>
    </g>
  </symbol>
  <g id="Layer_1">
    <g id="XMLID_5_">
      <linearGradient id="SVGID_1_" gradientUnits="userSpaceOnUse" x1="64.4951" x2="64.4951" y1="19.7166" y2="107.7021">
        <stop offset="0.5" style="stop-color:#FEE133"/>
        <stop offset="0.6118" style="stop-color:#FEDE32"/>
        <stop offset="0.7076" style="stop-color:#FCD32F"/>
        <stop offset="0.7975" style="stop-color:#FAC12B"/>
        <stop offset="0.8834" style="stop-color:#F7A924"/>
        <stop offset="0.9" style="stop-color:#F6A323"/>
      </linearGradient>
      <path d="M64.5,119.89c-27.93,0-58-17.49-58-55.89s30.07-55.89,58-55.89 c15.48,0,29.81,5.12,40.36,14.43C116.39,32.72,122.5,47.06,122.5,64c0,16.86-6.1,31.17-17.64,41.39 C94.28,114.74,79.95,119.89,64.5,119.89z" style="fill:url(#SVGID_1_);"/>
      <path d="M64.5,10.11L64.5,10.11c14.99,0,28.86,4.95,39.03,13.93c11.1,9.8,16.97,23.61,16.97,39.96 c0,16.27-5.87,30.07-16.97,39.89c-10.21,9.03-24.07,14-39.03,14c-15.04,0-28.9-4.91-39.04-13.82C14.36,94.32,8.5,80.46,8.5,64 c0-16.54,5.86-30.42,16.96-40.15C35.56,14.99,49.43,10.11,64.5,10.11 M64.5,6.11L64.5,6.11L64.5,6.11L64.5,6.11 c-31.15,0-60,20.01-60,57.89c0,37.68,28.85,57.89,60,57.89h0h0h0c31.15,0,60-20.73,60-57.89C124.5,26.63,95.65,6.11,64.5,6.11 L64.5,6.11z" style="fill:#EB8F00;"/>
    </g>
    <path d="M27.78,47.33c-0.89,0-1.7-0.41-2.18-1.11 c-0.48-0.69-0.56-1.56-0.24-2.44c1.94-5.01,5.94-9.21,10.99-11.54c1.88-0.87,3.85-1.45,5.86-1.72c0.15-0.02,0.27-0.02,0.4-0.02 c1.31,0,2.32,0.85,2.52,2.11c0.18,1.15-0.41,2.56-1.89,3.04l-0.38-0.71l0.26,0.75c-5.33,1.84-10.08,5.6-13.03,10.32 C29.59,46.85,28.75,47.33,27.78,47.33L27.78,47.33z" style="fill:#EB8F00;stroke:#EB8F00;stroke-miterlimit:10;"/>
    <radialGradient id="SVGID_3_" cx="29.7396" cy="69.746" gradientTransform="matrix(0.9791 0 0 0.9301 -1.8674 9.2912)" gradientUnits="userSpaceOnUse" r="19.4444">
      <stop offset="0" style="stop-color:#ED7770"/>
      <stop offset="0.9" style="stop-color:#ED7770;stop-opacity:0"/>
    </radialGradient>
    <circle cx="27.25" cy="74.16" r="17.5" style="opacity:0.8;fill:url(#SVGID_3_);"/>
    <radialGradient id="SVGID_4_" cx="104.8104" cy="69.746" gradientTransform="matrix(0.9791 0 0 0.9301 -1.8674 9.2912)" gradientUnits="userSpaceOnUse" r="19.4444">
      <stop offset="0" style="stop-color:#ED7770"/>
      <stop offset="0.9" style="stop-color:#ED7770;stop-opacity:0"/>
    </radialGradient>
    <circle cx="100.75" cy="74.16" r="17.5" style="opacity:0.8;fill:url(#SVGID_4_);"/>
    <path d="M100.22,47.33c0.89,0,1.7-0.41,2.18-1.11 c0.48-0.69,0.56-1.56,0.24-2.44c-1.94-5.01-5.94-9.21-10.99-11.54c-1.88-0.87-3.85-1.45-5.86-1.72c-0.15-0.02-0.27-0.02-0.4-0.02 c-1.31,0-2.32,0.85-2.52,2.11c-0.18,1.15,0.41,2.56,1.89,3.04l0.38-0.71l-0.26,0.75c5.33,1.84,10.08,5.6,13.03,10.32 C98.41,46.85,99.25,47.33,100.22,47.33L100.22,47.33z" style="fill:#EB8F00;stroke:#EB8F00;stroke-miterlimit:10;"/>
    <path d="M62.87,74.46c0.37,0,0.9-0.01,1.42,0.01c0.51,0.02,1.02,0.05,1.54,0.11 c0.51,0.05,1.04,0.13,1.56,0.22c0.53,0.11,1.06,0.21,1.61,0.38c0.53,0.13,1.1,0.37,1.65,0.58c0.56,0.27,1.12,0.53,1.68,0.93 c0.55,0.34,1.1,0.86,1.59,1.37c0.48,0.58,0.92,1.19,1.21,1.9c0.36,0.68,0.46,1.4,0.62,2.11l0.01,0.03l0,0.02l0.03,0.3l0,0.04 l0,0.08l0,0.16l0.01,0.33l0,0.16l0,0.09l-0.01,0.18c-0.02,0.24-0.04,0.48-0.08,0.72c-0.03,0.24-0.08,0.48-0.13,0.71 c-0.06,0.21-0.14,0.4-0.21,0.6c-0.15,0.39-0.31,0.77-0.55,1.11c-0.22,0.35-0.46,0.69-0.73,0.95c-0.27,0.28-0.54,0.56-0.83,0.76 c-0.57,0.45-1.16,0.76-1.72,1.02c-0.57,0.25-1.13,0.43-1.67,0.57c-0.55,0.14-1.08,0.24-1.62,0.31c-0.56,0.07-1.01,0.11-1.68,0.13 l0.11-5.41c0.44,0.03,0.69,0.06,1.01,0.11c0.3,0.04,0.6,0.1,0.9,0.16c0.59,0.13,1.19,0.3,1.78,0.53c1.18,0.46,2.4,1.16,3.44,2.25 c0.52,0.54,0.95,1.19,1.32,1.87c0.15,0.35,0.3,0.71,0.44,1.07c0.12,0.36,0.19,0.72,0.27,1.08c0.09,0.37,0.11,0.71,0.13,1.06 l0.03,0.53L76,93.85l-0.06,0.55l-0.09,0.71c0.01,0.06-0.08,0.38-0.16,0.62c-0.08,0.25-0.17,0.51-0.27,0.75 c-0.1,0.24-0.21,0.5-0.33,0.72l-0.35,0.52c-0.25,0.33-0.49,0.72-0.78,0.97c-0.28,0.27-0.57,0.54-0.87,0.79 c-0.29,0.21-0.59,0.4-0.89,0.6c-0.3,0.21-0.59,0.35-0.89,0.49c-0.29,0.14-0.6,0.31-0.88,0.4c-0.58,0.22-1.16,0.44-1.72,0.58 c-1.14,0.32-2.24,0.52-3.33,0.65c-0.55,0.07-1.09,0.11-1.64,0.15c-0.56,0.03-1.05,0.06-1.72,0.05l-0.01,0 c-1.93-0.03-3.48-1.61-3.46-3.55c0.03-1.93,1.61-3.48,3.55-3.46c0.09,0,0.19,0.01,0.27,0.01c0.29,0.03,0.76,0.04,1.16,0.05 c0.41,0,0.83,0,1.24-0.03c0.82-0.04,1.62-0.13,2.35-0.28c0.38-0.06,0.7-0.17,1.03-0.26c0.18-0.04,0.29-0.11,0.44-0.16 c0.14-0.05,0.3-0.1,0.39-0.17l0.33-0.17c0.06-0.06,0.13-0.12,0.21-0.16c0.11-0.04,0.08-0.1,0.14-0.14 c0.02-0.02,0.05-0.04,0.08-0.05c0,0-0.03,0.03-0.03,0.06c-0.01,0.03,0,0.06,0.01,0.09c0.01,0.02,0.05,0.13,0.07-0.06l0.14-0.71 l0.02-0.09l0.01-0.04l0-0.02l0-0.01c-0.02,0.16,0.04-0.37-0.04,0.36l0-0.01l0-0.1l0-0.19c0-0.13,0.03-0.27-0.01-0.36 c-0.02-0.1-0.02-0.22-0.04-0.32c-0.04-0.09-0.06-0.18-0.08-0.28c-0.08-0.17-0.16-0.34-0.29-0.51c-0.25-0.33-0.7-0.68-1.28-0.96 c-0.29-0.14-0.61-0.26-0.95-0.36c-0.17-0.05-0.34-0.1-0.51-0.13l-0.42-0.09l-0.1-0.02c-1.48-0.3-2.43-1.75-2.13-3.22 c0.24-1.18,1.21-2.02,2.34-2.16c0.2-0.02,0.62-0.08,0.93-0.15c0.33-0.07,0.65-0.16,0.95-0.26c0.59-0.2,1.07-0.48,1.29-0.71 c0.08-0.05,0.08-0.11,0.12-0.14c0.05-0.04,0.03-0.08,0.04-0.1c0.03-0.02,0.01-0.05,0-0.07c0-0.01,0.01-0.02,0.01-0.02 c-0.02,0.02-0.03,0.04-0.03,0.06c0,0.02,0,0.05,0.02,0.07l0.01,0.02l-0.01-0.08l-0.02-0.16l-0.03-0.33l-0.02-0.16l-0.01-0.08 l0-0.04l0-0.01c0.06,0.57,0.02,0.16,0.03,0.28l0,0l0-0.01c-0.1-0.13-0.07-0.31-0.18-0.38c-0.04-0.11-0.16-0.18-0.23-0.28 c-0.15-0.08-0.22-0.19-0.44-0.28c-0.16-0.11-0.42-0.19-0.65-0.28c-0.28-0.07-0.53-0.17-0.85-0.22c-0.6-0.13-1.3-0.19-2.01-0.21 c-0.35-0.01-0.72-0.01-1.08,0.01c-0.36,0.01-0.7,0.04-1.21,0.08c-1.93,0.15-3.61-1.29-3.76-3.22c-0.15-1.93,1.29-3.61,3.22-3.76 c0.08-0.01,0.16-0.01,0.24-0.01L62.87,74.46z" style="fill:#242424;"/>
    <g>
      <path id="XMLID_10_" d="M48.15,62.27c0,0-0.06-0.08-0.18-0.22c-0.06-0.07-0.13-0.16-0.21-0.27 c-0.09-0.11-0.18-0.23-0.26-0.29c-0.17-0.17-0.38-0.38-0.62-0.62c-0.25-0.25-0.55-0.52-0.86-0.79c-0.64-0.54-1.4-1.04-2.2-1.39 c-0.81-0.34-1.62-0.53-2.45-0.52c0.35-0.01,0.09,0,0.17,0l-0.01,0l-0.02,0l-0.04,0l-0.07,0l-0.15,0l-0.29,0.01 c-0.26,0-0.21,0.02-0.29,0.03c-0.07-0.01-0.35,0.06-0.54,0.09c-0.4,0.1-0.82,0.22-1.22,0.39c-0.8,0.35-1.56,0.85-2.2,1.39 c-0.63,0.54-1.16,1.07-1.51,1.47c-0.36,0.41-0.57,0.64-0.57,0.64l-0.3,0.34c-1.22,1.37-3.32,1.5-4.69,0.28 c-1.04-0.92-1.36-2.36-0.93-3.6c0,0,0.04-0.11,0.11-0.32c0.08-0.21,0.17-0.53,0.35-0.91c0.33-0.78,0.89-1.87,1.82-3.08 c0.91-1.21,2.25-2.51,4.03-3.54c0.9-0.49,1.89-0.96,2.97-1.25c0.56-0.13,1.04-0.26,1.74-0.34c0.3-0.04,0.74-0.09,0.87-0.09 l0.76-0.04c1.14,0.02,2.28,0.18,3.37,0.47c1.08,0.28,2.07,0.75,2.97,1.25c1.78,1.03,3.12,2.33,4.03,3.54 c0.47,0.6,0.84,1.18,1.13,1.7c0.29,0.5,0.53,1.01,0.72,1.44c0.11,0.22,0.16,0.38,0.2,0.5c0.04,0.13,0.08,0.24,0.11,0.33 c0.06,0.18,0.09,0.27,0.09,0.27c0.57,1.77-0.4,3.67-2.17,4.24C50.45,63.82,49,63.33,48.15,62.27z" style="fill:#242424;"/>
      <path id="XMLID_9_" d="M93.48,62.27c0,0-0.06-0.08-0.18-0.22c-0.06-0.07-0.13-0.16-0.21-0.27 c-0.09-0.11-0.18-0.23-0.26-0.29c-0.17-0.17-0.38-0.38-0.62-0.62c-0.25-0.25-0.55-0.52-0.86-0.79c-0.64-0.54-1.4-1.04-2.2-1.39 c-0.81-0.34-1.62-0.53-2.45-0.52c0.35-0.01,0.09,0,0.17,0l-0.01,0l-0.02,0l-0.04,0l-0.07,0l-0.15,0l-0.29,0.01 c-0.26,0-0.21,0.02-0.29,0.03c-0.07-0.01-0.35,0.06-0.54,0.09c-0.4,0.1-0.82,0.22-1.22,0.39c-0.8,0.35-1.56,0.85-2.2,1.39 c-0.63,0.54-1.16,1.07-1.52,1.47c-0.36,0.41-0.57,0.64-0.57,0.64l-0.3,0.34c-1.22,1.37-3.32,1.5-4.69,0.28 c-1.04-0.92-1.36-2.36-0.93-3.6c0,0,0.04-0.11,0.11-0.32c0.08-0.21,0.17-0.53,0.35-0.91c0.33-0.78,0.89-1.87,1.82-3.08 c0.91-1.21,2.25-2.51,4.03-3.54c0.9-0.49,1.89-0.96,2.97-1.25c0.56-0.13,1.04-0.26,1.74-0.34c0.3-0.04,0.73-0.09,0.87-0.09 l0.76-0.04c1.14,0.02,2.28,0.18,3.37,0.47c1.08,0.28,2.07,0.75,2.97,1.25c1.78,1.03,3.12,2.33,4.03,3.54 c0.47,0.6,0.84,1.18,1.13,1.7c0.29,0.5,0.53,1.01,0.72,1.44c0.11,0.22,0.16,0.38,0.2,0.5c0.04,0.13,0.08,0.24,0.11,0.33 c0.06,0.18,0.09,0.27,0.09,0.27c0.57,1.77-0.4,3.67-2.17,4.24C95.78,63.82,94.33,63.33,93.48,62.27z" style="fill:#242424;"/>
    </g>
  </g>
  <g id="Layer_3" style="display:none;">
    <g id="XMLID_15_" style="display:inline;">
      <g id="XMLID_16_" style="opacity:0.6;">
        <circle id="XMLID_17_" cx="-125" cy="64" r="28" style="opacity:0.61;fill:none;stroke:#000000;stroke-width:0.2625;stroke-miterlimit:10;"/>
        <line style="opacity:0.61;fill:none;stroke:#000000;stroke-width:0.25;stroke-miterlimit:10;" x1="-105" x2="-105" y1="0" y2="128"/>
        <line style="opacity:0.61;fill:none;stroke:#000000;stroke-width:0.25;stroke-miterlimit:10;" x1="-145" x2="-145" y1="0" y2="128"/>
        <line style="opacity:0.61;fill:none;stroke:#000000;stroke-width:0.25;stroke-miterlimit:10;" x1="-125" x2="-125" y1="0" y2="128"/>
        <line style="opacity:0.61;fill:none;stroke:#000000;stroke-width:0.25;stroke-miterlimit:10;" x1="-61" x2="-189" y1="64" y2="64"/>
        <line style="opacity:0.61;fill:none;stroke:#000000;stroke-width:0.25;stroke-miterlimit:10;" x1="-61" x2="-189" y1="44" y2="44"/>
        <line style="opacity:0.61;fill:none;stroke:#000000;stroke-width:0.25;stroke-miterlimit:10;" x1="-61" x2="-189" y1="83.75" y2="83.75"/>
        <line style="opacity:0.61;fill:none;stroke:#000000;stroke-width:0.25;stroke-miterlimit:10;" x1="-61" x2="-189" y1="128" y2="0"/>
        <line style="opacity:0.61;fill:none;stroke:#000000;stroke-width:0.25;stroke-miterlimit:10;" x1="-189" x2="-61" y1="128" y2="0"/>
        <g id="XMLID_18_" style="opacity:0.61;">
          <g id="XMLID_75_">
            <path id="XMLID_76_" d="M-125,4.26c32.94,0,59.74,26.8,59.74,59.74s-26.8,59.74-59.74,59.74s-59.74-26.8-59.74-59.74 S-157.94,4.26-125,4.26 M-125,4c-33.14,0-60,26.86-60,60s26.86,60,60,60s60-26.86,60-60S-91.86,4-125,4L-125,4z"/>
          </g>
        </g>
        <path d="M-81.03,115.97h-87.94 c-4.42,0-8.03-3.61-8.03-8.03V20.03c0-4.42,3.61-8.03,8.03-8.03h87.94c4.42,0,8.03,3.61,8.03,8.03v87.91 C-73,112.36-76.61,115.97-81.03,115.97z" style="opacity:0.61;fill:none;stroke:#000000;stroke-width:0.2578;stroke-miterlimit:10;"/>
        <path d="M-89,124h-72 c-4.4,0-8-3.6-8-8V12c0-4.4,3.6-8,8-8h72c4.4,0,8,3.6,8,8v104C-81,120.4-84.6,124-89,124z" style="opacity:0.61;fill:none;stroke:#000000;stroke-width:0.2628;stroke-miterlimit:10;"/>
        <path d="M-75.23,108h-99.54 c-5.63,0-10.23-4.6-10.23-10.23V30.28c0-5.63,4.6-10.23,10.23-10.23h99.54c5.63,0,10.23,4.6,10.23,10.23v67.48 C-65,103.4-69.6,108-75.23,108z" style="opacity:0.61;fill:none;stroke:#000000;stroke-width:0.2627;stroke-miterlimit:10;"/>
      </g>
      <g id="XMLID_19_">
        <g id="XMLID_20_" style="opacity:0.2;">
          <defs>
            <rect id="SVGID_2_" height="128" style="opacity:0.2;" width="128" x="-189" y="0"/>
          </defs>
          <clipPath id="SVGID_5_">
            <use style="overflow:visible;" xlink:href="#SVGID_2_"/>
          </clipPath>
          <g id="XMLID_21_" style="clip-path:url(#SVGID_5_);">
            <g id="XMLID_22_">
              <line style="fill:none;stroke:#000000;stroke-width:0.25;stroke-miterlimit:10;" x1="-217" x2="-217" y1="160" y2="-32"/>
              <line style="fill:none;stroke:#000000;stroke-width:0.25;stroke-miterlimit:10;" x1="-213" x2="-213" y1="160" y2="-32"/>
              <line style="fill:none;stroke:#000000;stroke-width:0.25;stroke-miterlimit:10;" x1="-209" x2="-209" y1="160" y2="-32"/>
              <line style="fill:none;stroke:#000000;stroke-width:0.25;stroke-miterlimit:10;" x1="-205" x2="-205" y1="160" y2="-32"/>
              <line style="fill:none;stroke:#000000;stroke-width:0.25;stroke-miterlimit:10;" x1="-201" x2="-201" y1="160" y2="-32"/>
              <line style="fill:none;stroke:#000000;stroke-width:0.25;stroke-miterlimit:10;" x1="-197" x2="-197" y1="160" y2="-32"/>
              <line style="fill:none;stroke:#000000;stroke-width:0.25;stroke-miterlimit:10;" x1="-193" x2="-193" y1="160" y2="-32"/>
              <line style="fill:none;stroke:#000000;stroke-width:0.25;stroke-miterlimit:10;" x1="-189" x2="-189" y1="160" y2="-32"/>
              <line style="fill:none;stroke:#000000;stroke-width:0.25;stroke-miterlimit:10;" x1="-185" x2="-185" y1="160" y2="-32"/>
              <line style="fill:none;stroke:#000000;stroke-width:0.25;stroke-miterlimit:10;" x1="-181" x2="-181" y1="160" y2="-32"/>
              <line style="fill:none;stroke:#000000;stroke-width:0.25;stroke-miterlimit:10;" x1="-177" x2="-177" y1="160" y2="-32"/>
              <line style="fill:none;stroke:#000000;stroke-width:0.25;stroke-miterlimit:10;" x1="-173" x2="-173" y1="160" y2="-32"/>
              <line style="fill:none;stroke:#000000;stroke-width:0.25;stroke-miterlimit:10;" x1="-169" x2="-169" y1="160" y2="-32"/>
              <line style="fill:none;stroke:#000000;stroke-width:0.25;stroke-miterlimit:10;" x1="-165" x2="-165" y1="160" y2="-32"/>
              <line style="fill:none;stroke:#000000;stroke-width:0.25;stroke-miterlimit:10;" x1="-161" x2="-161" y1="160" y2="-32"/>
              <line style="fill:none;stroke:#000000;stroke-width:0.25;stroke-miterlimit:10;" x1="-157" x2="-157" y1="160" y2="-32"/>
              <line style="fill:none;stroke:#000000;stroke-width:0.25;stroke-miterlimit:10;" x1="-153" x2="-153" y1="160" y2="-32"/>
              <line style="fill:none;stroke:#000000;stroke-width:0.25;stroke-miterlimit:10;" x1="-149" x2="-149" y1="160" y2="-32"/>
              <line style="fill:none;stroke:#000000;stroke-width:0.25;stroke-miterlimit:10;" x1="-145" x2="-145" y1="160" y2="-32"/>
              <line style="fill:none;stroke:#000000;stroke-width:0.25;stroke-miterlimit:10;" x1="-141" x2="-141" y1="160" y2="-32"/>
              <line style="fill:none;stroke:#000000;stroke-width:0.25;stroke-miterlimit:10;" x1="-137" x2="-137" y1="160" y2="-32"/>
              <line style="fill:none;stroke:#000000;stroke-width:0.25;stroke-miterlimit:10;" x1="-133" x2="-133" y1="160" y2="-32"/>
              <line style="fill:none;stroke:#000000;stroke-width:0.25;stroke-miterlimit:10;" x1="-129" x2="-129" y1="160" y2="-32"/>
              <line style="fill:none;stroke:#000000;stroke-width:0.25;stroke-miterlimit:10;" x1="-125" x2="-125" y1="160" y2="-32"/>
              <line style="fill:none;stroke:#000000;stroke-width:0.25;stroke-miterlimit:10;" x1="-121" x2="-121" y1="160" y2="-32"/>
              <line style="fill:none;stroke:#000000;stroke-width:0.25;stroke-miterlimit:10;" x1="-117" x2="-117" y1="160" y2="-32"/>
              <line style="fill:none;stroke:#000000;stroke-width:0.25;stroke-miterlimit:10;" x1="-113" x2="-113" y1="160" y2="-32"/>
              <line style="fill:none;stroke:#000000;stroke-width:0.25;stroke-miterlimit:10;" x1="-109" x2="-109" y1="160" y2="-32"/>
              <line style="fill:none;stroke:#000000;stroke-width:0.25;stroke-miterlimit:10;" x1="-105" x2="-105" y1="160" y2="-32"/>
              <line style="fill:none;stroke:#000000;stroke-width:0.25;stroke-miterlimit:10;" x1="-101" x2="-101" y1="160" y2="-32"/>
              <line style="fill:none;stroke:#000000;stroke-width:0.25;stroke-miterlimit:10;" x1="-97" x2="-97" y1="160" y2="-32"/>
              <line style="fill:none;stroke:#000000;stroke-width:0.25;stroke-miterlimit:10;" x1="-93" x2="-93" y1="160" y2="-32"/>
              <line style="fill:none;stroke:#000000;stroke-width:0.25;stroke-miterlimit:10;" x1="-89" x2="-89" y1="160" y2="-32"/>
              <line style="fill:none;stroke:#000000;stroke-width:0.25;stroke-miterlimit:10;" x1="-85" x2="-85" y1="160" y2="-32"/>
              <line style="fill:none;stroke:#000000;stroke-width:0.25;stroke-miterlimit:10;" x1="-81" x2="-81" y1="160" y2="-32"/>
              <line style="fill:none;stroke:#000000;stroke-width:0.25;stroke-miterlimit:10;" x1="-77" x2="-77" y1="160" y2="-32"/>
              <line style="fill:none;stroke:#000000;stroke-width:0.25;stroke-miterlimit:10;" x1="-73" x2="-73" y1="160" y2="-32"/>
              <line style="fill:none;stroke:#000000;stroke-width:0.25;stroke-miterlimit:10;" x1="-69" x2="-69" y1="160" y2="-32"/>
              <line style="fill:none;stroke:#000000;stroke-width:0.25;stroke-miterlimit:10;" x1="-65" x2="-65" y1="160" y2="-32"/>
              <line style="fill:none;stroke:#000000;stroke-width:0.25;stroke-miterlimit:10;" x1="-61" x2="-61" y1="160" y2="-32"/>
              <line style="fill:none;stroke:#000000;stroke-width:0.25;stroke-miterlimit:10;" x1="-57" x2="-57" y1="160" y2="-32"/>
              <line style="fill:none;stroke:#000000;stroke-width:0.25;stroke-miterlimit:10;" x1="-53" x2="-53" y1="160" y2="-32"/>
              <line style="fill:none;stroke:#000000;stroke-width:0.25;stroke-miterlimit:10;" x1="-52" x2="-52" y1="166.05" y2="-25.95"/>
              <line style="fill:none;stroke:#000000;stroke-width:0.25;stroke-miterlimit:10;" x1="-45" x2="-45" y1="160" y2="-32"/>
              <line style="fill:none;stroke:#000000;stroke-width:0.25;stroke-miterlimit:10;" x1="-41" x2="-41" y1="160" y2="-32"/>
              <line style="fill:none;stroke:#000000;stroke-width:0.25;stroke-miterlimit:10;" x1="-37" x2="-37" y1="160" y2="-32"/>
              <line style="fill:none;stroke:#000000;stroke-width:0.25;stroke-miterlimit:10;" x1="-33" x2="-33" y1="160" y2="-32"/>
            </g>
            <g id="XMLID_23_">
              <line style="fill:none;stroke:#000000;stroke-width:0.25;stroke-miterlimit:10;" x1="-221" x2="-29" y1="-28" y2="-28"/>
              <line style="fill:none;stroke:#000000;stroke-width:0.25;stroke-miterlimit:10;" x1="-221" x2="-29" y1="-24" y2="-24"/>
              <line style="fill:none;stroke:#000000;stroke-width:0.25;stroke-miterlimit:10;" x1="-221" x2="-29" y1="-20" y2="-20"/>
              <line style="fill:none;stroke:#000000;stroke-width:0.25;stroke-miterlimit:10;" x1="-221" x2="-29" y1="-16" y2="-16"/>
              <line style="fill:none;stroke:#000000;stroke-width:0.25;stroke-miterlimit:10;" x1="-221" x2="-29" y1="-12" y2="-12"/>
              <line style="fill:none;stroke:#000000;stroke-width:0.25;stroke-miterlimit:10;" x1="-221" x2="-29" y1="-8" y2="-8"/>
              <line style="fill:none;stroke:#000000;stroke-width:0.25;stroke-miterlimit:10;" x1="-221" x2="-29" y1="-4" y2="-4"/>
              <line style="fill:none;stroke:#000000;stroke-width:0.25;stroke-miterlimit:10;" x1="-221" x2="-29" y1="0" y2="0"/>
              <line style="fill:none;stroke:#000000;stroke-width:0.25;stroke-miterlimit:10;" x1="-221" x2="-29" y1="4" y2="4"/>
              <line style="fill:none;stroke:#000000;stroke-width:0.25;stroke-miterlimit:10;" x1="-221" x2="-29" y1="8" y2="8"/>
              <line style="fill:none;stroke:#000000;stroke-width:0.25;stroke-miterlimit:10;" x1="-221" x2="-29" y1="12" y2="12"/>
              <line style="fill:none;stroke:#000000;stroke-width:0.25;stroke-miterlimit:10;" x1="-221" x2="-29" y1="16" y2="16"/>
              <line style="fill:none;stroke:#000000;stroke-width:0.25;stroke-miterlimit:10;" x1="-221" x2="-29" y1="20" y2="20"/>
              <line style="fill:none;stroke:#000000;stroke-width:0.25;stroke-miterlimit:10;" x1="-221" x2="-29" y1="24" y2="24"/>
              <line style="fill:none;stroke:#000000;stroke-width:0.25;stroke-miterlimit:10;" x1="-221" x2="-29" y1="28" y2="28"/>
              <line style="fill:none;stroke:#000000;stroke-width:0.25;stroke-miterlimit:10;" x1="-221" x2="-29" y1="32" y2="32"/>
              <line style="fill:none;stroke:#000000;stroke-width:0.25;stroke-miterlimit:10;" x1="-221" x2="-29" y1="36" y2="36"/>
              <line style="fill:none;stroke:#000000;stroke-width:0.25;stroke-miterlimit:10;" x1="-221" x2="-29" y1="40" y2="40"/>
              <line style="fill:none;stroke:#000000;stroke-width:0.25;stroke-miterlimit:10;" x1="-221" x2="-29" y1="44" y2="44"/>
              <line style="fill:none;stroke:#000000;stroke-width:0.25;stroke-miterlimit:10;" x1="-221" x2="-29" y1="48" y2="48"/>
              <line style="fill:none;stroke:#000000;stroke-width:0.25;stroke-miterlimit:10;" x1="-221" x2="-29" y1="52" y2="52"/>
              <line style="fill:none;stroke:#000000;stroke-width:0.25;stroke-miterlimit:10;" x1="-221" x2="-29" y1="56" y2="56"/>
              <line style="fill:none;stroke:#000000;stroke-width:0.25;stroke-miterlimit:10;" x1="-221" x2="-29" y1="60" y2="60"/>
              <line style="fill:none;stroke:#000000;stroke-width:0.25;stroke-miterlimit:10;" x1="-221" x2="-29" y1="64" y2="64"/>
              <line style="fill:none;stroke:#000000;stroke-width:0.25;stroke-miterlimit:10;" x1="-221" x2="-29" y1="68" y2="68"/>
              <line style="fill:none;stroke:#000000;stroke-width:0.25;stroke-miterlimit:10;" x1="-221" x2="-29" y1="72" y2="72"/>
              <line style="fill:none;stroke:#000000;stroke-width:0.25;stroke-miterlimit:10;" x1="-221" x2="-29" y1="76" y2="76"/>
              <line style="fill:none;stroke:#000000;stroke-width:0.25;stroke-miterlimit:10;" x1="-221" x2="-29" y1="80" y2="80"/>
              <line style="fill:none;stroke:#000000;stroke-width:0.25;stroke-miterlimit:10;" x1="-221" x2="-29" y1="84" y2="84"/>
              <line style="fill:none;stroke:#000000;stroke-width:0.25;stroke-miterlimit:10;" x1="-221" x2="-29" y1="88" y2="88"/>
              <line style="fill:none;stroke:#000000;stroke-width:0.25;stroke-miterlimit:10;" x1="-221" x2="-29" y1="92" y2="92"/>
              <line style="fill:none;stroke:#000000;stroke-width:0.25;stroke-miterlimit:10;" x1="-221" x2="-29" y1="96" y2="96"/>
              <line style="fill:none;stroke:#000000;stroke-width:0.25;stroke-miterlimit:10;" x1="-221" x2="-29" y1="100" y2="100"/>
              <line style="fill:none;stroke:#000000;stroke-width:0.25;stroke-miterlimit:10;" x1="-221" x2="-29" y1="104" y2="104"/>
              <line style="fill:none;stroke:#000000;stroke-width:0.25;stroke-miterlimit:10;" x1="-221" x2="-29" y1="108" y2="108"/>
              <line style="fill:none;stroke:#000000;stroke-width:0.25;stroke-miterlimit:10;" x1="-221" x2="-29" y1="112" y2="112"/>
              <line style="fill:none;stroke:#000000;stroke-width:0.25;stroke-miterlimit:10;" x1="-221" x2="-29" y1="116" y2="116"/>
              <line style="fill:none;stroke:#000000;stroke-width:0.25;stroke-miterlimit:10;" x1="-221" x2="-29" y1="120" y2="120"/>
              <line style="fill:none;stroke:#000000;stroke-width:0.25;stroke-miterlimit:10;" x1="-221" x2="-29" y1="124" y2="124"/>
              <line style="fill:none;stroke:#000000;stroke-width:0.25;stroke-miterlimit:10;" x1="-221" x2="-29" y1="128" y2="128"/>
              <line style="fill:none;stroke:#000000;stroke-width:0.25;stroke-miterlimit:10;" x1="-221" x2="-29" y1="132" y2="132"/>
              <line style="fill:none;stroke:#000000;stroke-width:0.25;stroke-miterlimit:10;" x1="-221" x2="-29" y1="136" y2="136"/>
              <line style="fill:none;stroke:#000000;stroke-width:0.25;stroke-miterlimit:10;" x1="-221" x2="-29" y1="140" y2="140"/>
              <line style="fill:none;stroke:#000000;stroke-width:0.25;stroke-miterlimit:10;" x1="-221" x2="-29" y1="144" y2="144"/>
              <line style="fill:none;stroke:#000000;stroke-width:0.25;stroke-miterlimit:10;" x1="-221" x2="-29" y1="148" y2="148"/>
              <line style="fill:none;stroke:#000000;stroke-width:0.25;stroke-miterlimit:10;" x1="-221" x2="-29" y1="152" y2="152"/>
              <line style="fill:none;stroke:#000000;stroke-width:0.25;stroke-miterlimit:10;" x1="-221" x2="-29" y1="156" y2="156"/>
            </g>
            <path id="XMLID_65_" d="M-29.25-31.75v191.5h-191.5v-191.5H-29.25 M-29-32h-192v192h192V-32L-29-32z"/>
          </g>
        </g>
        <g id="XMLID_24_">
          <rect height="128" style="opacity:0.3;fill:#F44336;" width="4" x="-189" y="0"/>
          <rect height="128" style="opacity:0.3;fill:#F44336;" width="4" x="-65" y="0"/>
          <rect height="120" style="opacity:0.3;fill:#F44336;" transform="matrix(-1.836970e-16 1 -1 -1.836970e-16 -123 127)" width="4" x="-127" y="-58"/>
          <rect height="120" style="opacity:0.3;fill:#F44336;" transform="matrix(-1.836970e-16 1 -1 -1.836970e-16 1 251)" width="4" x="-127" y="66"/>
        </g>
      </g>
    </g>
  </g>
  <g id="Layer_2" style="display:none;">
    <rect id="XMLID_46_" height="128" style="display:inline;fill:none;stroke:#616161;stroke-width:0.25;stroke-miterlimit:10;" transform="matrix(-1.346904e-10 -1 1 -1.346904e-10 -189 -61)" width="128" x="-189"/>
    <g id="XMLID_13_" style="display:inline;">
      <rect id="XMLID_45_" height="128" style="fill:none;stroke:#999999;stroke-width:0.25;stroke-miterlimit:10;" width="128" x="-189"/>
      <line id="XMLID_44_" style="fill:none;stroke:#999999;stroke-width:0.25;stroke-miterlimit:10;" x1="-181" x2="-181" y1="0" y2="128"/>
      <line id="XMLID_43_" style="fill:none;stroke:#999999;stroke-width:0.25;stroke-miterlimit:10;" x1="-173" x2="-173" y1="0" y2="128"/>
      <line id="XMLID_42_" style="fill:none;stroke:#999999;stroke-width:0.25;stroke-miterlimit:10;" x1="-165" x2="-165" y1="0" y2="128"/>
      <line id="XMLID_41_" style="fill:none;stroke:#999999;stroke-width:0.25;stroke-miterlimit:10;" x1="-157" x2="-157" y1="0" y2="128"/>
      <line id="XMLID_40_" style="fill:none;stroke:#999999;stroke-width:0.25;stroke-miterlimit:10;" x1="-149" x2="-149" y1="0" y2="128"/>
      <line id="XMLID_39_" style="fill:none;stroke:#999999;stroke-width:0.25;stroke-miterlimit:10;" x1="-141" x2="-141" y1="0" y2="128"/>
      <line id="XMLID_38_" style="fill:none;stroke:#999999;stroke-width:0.25;stroke-miterlimit:10;" x1="-133" x2="-133" y1="0" y2="128"/>
      <line id="XMLID_37_" style="fill:none;stroke:#999999;stroke-width:0.25;stroke-miterlimit:10;" x1="-125.01" x2="-125.01" y1="0" y2="128"/>
      <line id="XMLID_36_" style="fill:none;stroke:#999999;stroke-width:0.25;stroke-miterlimit:10;" x1="-117.01" x2="-117.01" y1="0" y2="128"/>
      <line id="XMLID_35_" style="fill:none;stroke:#999999;stroke-width:0.25;stroke-miterlimit:10;" x1="-109.01" x2="-109.01" y1="0" y2="128"/>
      <line id="XMLID_34_" style="fill:none;stroke:#999999;stroke-width:0.25;stroke-miterlimit:10;" x1="-101.01" x2="-101.01" y1="0" y2="128"/>
      <line id="XMLID_33_" style="fill:none;stroke:#999999;stroke-width:0.25;stroke-miterlimit:10;" x1="-93.01" x2="-93.01" y1="0" y2="128"/>
      <line id="XMLID_32_" style="fill:none;stroke:#999999;stroke-width:0.25;stroke-miterlimit:10;" x1="-85.01" x2="-85.01" y1="0" y2="128"/>
      <line id="XMLID_31_" style="fill:none;stroke:#999999;stroke-width:0.25;stroke-miterlimit:10;" x1="-77.01" x2="-77.01" y1="0" y2="128"/>
      <line id="XMLID_30_" style="fill:none;stroke:#999999;stroke-width:0.25;stroke-miterlimit:10;" x1="-69.01" x2="-69.01" y1="0" y2="128"/>
      <line id="XMLID_29_" style="fill:none;stroke:#999999;stroke-width:0.25;stroke-miterlimit:10;" x1="-61" x2="-189" y1="120" y2="120"/>
      <line id="XMLID_28_" style="fill:none;stroke:#999999;stroke-width:0.25;stroke-miterlimit:10;" x1="-61" x2="-189" y1="112" y2="112"/>
      <line id="XMLID_27_" style="fill:none;stroke:#999999;stroke-width:0.25;stroke-miterlimit:10;" x1="-61" x2="-189" y1="104" y2="104"/>
      <line id="XMLID_26_" style="fill:none;stroke:#999999;stroke-width:0.25;stroke-miterlimit:10;" x1="-61" x2="-189" y1="96" y2="96"/>
      <line id="XMLID_49_" style="fill:none;stroke:#999999;stroke-width:0.25;stroke-miterlimit:10;" x1="-61" x2="-189" y1="88" y2="88"/>
      <line id="XMLID_50_" style="fill:none;stroke:#999999;stroke-width:0.25;stroke-miterlimit:10;" x1="-61" x2="-189" y1="80" y2="80"/>
      <line id="XMLID_51_" style="fill:none;stroke:#999999;stroke-width:0.25;stroke-miterlimit:10;" x1="-61" x2="-189" y1="72" y2="72"/>
      <line id="XMLID_52_" style="fill:none;stroke:#999999;stroke-width:0.25;stroke-miterlimit:10;" x1="-61" x2="-189" y1="64.01" y2="64.01"/>
      <line id="XMLID_53_" style="fill:none;stroke:#999999;stroke-width:0.25;stroke-miterlimit:10;" x1="-61" x2="-189" y1="56.01" y2="56.01"/>
      <line id="XMLID_54_" style="fill:none;stroke:#999999;stroke-width:0.25;stroke-miterlimit:10;" x1="-61" x2="-189" y1="48.01" y2="48.01"/>
      <line id="XMLID_57_" style="fill:none;stroke:#999999;stroke-width:0.25;stroke-miterlimit:10;" x1="-61" x2="-189" y1="40.01" y2="40.01"/>
      <line id="XMLID_62_" style="fill:none;stroke:#999999;stroke-width:0.25;stroke-miterlimit:10;" x1="-61" x2="-189" y1="32.01" y2="32.01"/>
      <line id="XMLID_63_" style="fill:none;stroke:#999999;stroke-width:0.25;stroke-miterlimit:10;" x1="-61" x2="-189" y1="24.01" y2="24.01"/>
      <line id="XMLID_81_" style="fill:none;stroke:#999999;stroke-width:0.25;stroke-miterlimit:10;" x1="-61" x2="-189" y1="16.01" y2="16.01"/>
      <line id="XMLID_82_" style="fill:none;stroke:#999999;stroke-width:0.25;stroke-miterlimit:10;" x1="-61" x2="-189" y1="8.01" y2="8.01"/>
    </g>
    <use id="XMLID_25_" height="129" style="display:inline;overflow:visible;" transform="matrix(1 0 0 -1 -125 64)" width="129" x="-64.5" xlink:href="#Grid" y="-64.5"/>
  </g>
</svg>