<svg width="128" height="128" style="enable-background:new 0 0 128 128;" xmlns="http://www.w3.org/2000/svg" xmlns:xlink="http://www.w3.org/1999/xlink">
  <linearGradient id="SVGID_1_" gradientUnits="userSpaceOnUse" x1="19.6552" x2="19.6552" y1="93" y2="126.4398">
    <stop offset="0" style="stop-color:#E0E0E0"/>
    <stop offset="0.9954" style="stop-color:#9E9E9E"/>
  </linearGradient>
  <path d="M12.07,103.24c4.21,0.21,14.97-10.56,14.97-10.56l8.27,8.27c0,0-10.76,10.77-10.56,14.98 c0.03,0.52-0.34,0.99-0.85,1.1c-2.68,0.6-10.44,2.59-17.71,6.78c-0.39,0.22-0.84,0.25-1.24,0.1c-0.19-0.07-0.37-0.18-0.52-0.33 c-0.17-0.17-0.27-0.35-0.35-0.54c-0.15-0.4-0.12-0.85,0.1-1.24c4.18-7.27,6.17-15.03,6.77-17.72 C11.08,103.57,11.54,103.21,12.07,103.24z" style="fill:url(#SVGID_1_);"/>
  <path d="M15.48,113.38L4.96,123.91c-0.19-0.07-0.37-0.18-0.52-0.33c-0.17-0.17-0.27-0.35-0.35-0.54 l10.52-10.52c-0.44-0.82-0.32-1.86,0.37-2.55c0.84-0.84,2.21-0.84,3.05,0s0.84,2.21,0,3.05C17.34,113.7,16.29,113.83,15.48,113.38z" style="fill:#757575;"/>
  <linearGradient id="SVGID_2_" gradientUnits="userSpaceOnUse" x1="91.6747" x2="91.6747" y1="-7.6667" y2="35.4755">
    <stop offset="0" style="stop-color:#FFB300"/>
    <stop offset="0.9765" style="stop-color:#FF8F00"/>
    <stop offset="1" style="stop-color:#FFA000"/>
  </linearGradient>
  <path d="M107.33,5.33c-1.61-1.61-4.21-1.61-5.82,0L79.53,24.08c-1.69,1.43-3.32,2.94-4.89,4.5 l-3.27,3.27c-0.11,0.11-0.11,0.28,0,0.39v0c1.1,1.1,2.88,1.1,3.97,0l2.04-2.04c0.36-0.36,0.58-0.8,0.68-1.26 c0.15-0.71,0.55-1.34,1.1-1.8l21.62-18.18c0.8-0.8,2.83-1.53,3.64-0.73l4.73,4.73l2.91-2.91L107.33,5.33z" style="fill:url(#SVGID_2_);"/>
  <g style="opacity:0.2;">
    <path d="M27.01,96.88l4.09,4.1c-3.43,3.66-8.18,9.29-9.17,13.43c-2.86,0.71-7.73,2.13-12.89,4.54 c2.41-5.15,3.82-10.02,4.54-12.89C17.7,105.09,23.35,100.32,27.01,96.88 M27.04,92.67c0,0-10.56,10.57-14.85,10.57 c-0.04,0-0.08,0-0.12,0c-0.02,0-0.04,0-0.05,0c-0.5,0-0.94,0.36-1.05,0.85c-0.6,2.69-2.59,10.45-6.77,17.72 c-0.22,0.39-0.25,0.84-0.1,1.24c0.07,0.19,0.18,0.37,0.35,0.54c0.15,0.15,0.33,0.26,0.52,0.33C5.13,123.97,5.3,124,5.48,124 c0.25,0,0.49-0.06,0.72-0.19c7.26-4.18,15.02-6.17,17.71-6.78c0.51-0.12,0.87-0.58,0.85-1.1c-0.21-4.21,10.56-14.98,10.56-14.98 L27.04,92.67L27.04,92.67z" style="fill:#424242;"/>
  </g>
  <g style="opacity:0.2;">
    <path d="M16.5,110.33c0.31,0,0.6,0.12,0.82,0.34c0.45,0.45,0.45,1.18,0,1.63c-0.22,0.22-0.51,0.34-0.81,0.34 c-0.19,0-0.38-0.05-0.55-0.14l-0.3-0.16l-0.16-0.3c-0.24-0.45-0.16-1.01,0.2-1.37C15.91,110.45,16.2,110.33,16.5,110.33 M16.5,109.33c-0.55,0-1.1,0.21-1.52,0.63c-0.69,0.69-0.81,1.74-0.37,2.55L4.09,123.04c0.07,0.19,0.18,0.37,0.35,0.54 c0.15,0.15,0.33,0.26,0.52,0.33l10.52-10.52c0.32,0.17,0.67,0.26,1.03,0.26c0.55,0,1.1-0.21,1.52-0.63c0.84-0.84,0.84-2.21,0-3.05 C17.61,109.54,17.06,109.33,16.5,109.33L16.5,109.33z" style="fill:#424242;"/>
  </g>
  <linearGradient id="SVGID_3_" gradientUnits="userSpaceOnUse" x1="27.0132" x2="27.0132" y1="89.6667" y2="108.6667">
    <stop offset="0" style="stop-color:#FFC107"/>
    <stop offset="1" style="stop-color:#FFA000"/>
  </linearGradient>
  <path d="M33.52,106.1L21.89,94.46l-0.31,0.31c-1.44,1.44-1.44,3.77,0,5.21l6.43,6.43 c1.44,1.44,3.77,1.44,5.21,0L33.52,106.1z" style="fill:url(#SVGID_3_);"/>
  <linearGradient id="SVGID_4_" gradientUnits="userSpaceOnUse" x1="51.883" x2="51.883" y1="40" y2="108.6588">
    <stop offset="0" style="stop-color:#424242"/>
    <stop offset="1" style="stop-color:#212121"/>
  </linearGradient>
  <path d="M74.25,53.72l-7.64-7.64c-37.69,38.2-44.72,48.38-44.72,48.38l5.82,5.82l5.82,5.82 c0,0,10.18-7.03,48.36-44.75L74.25,53.72z" style="fill:url(#SVGID_4_);"/>
  <g style="opacity:0.2;">
    <path d="M66.62,50.34l5.5,5.5l5.5,5.5C50.48,88.07,38.14,98.6,33.78,102.12l-3.95-3.95l-3.96-3.96 C29.35,89.87,39.79,77.62,66.62,50.34 M66.61,46.08c-37.69,38.2-44.72,48.38-44.72,48.38l5.82,5.82l5.82,5.82 c0,0,10.18-7.03,48.36-44.75l-7.64-7.64L66.61,46.08L66.61,46.08z" style="fill:#EEEEEE;"/>
  </g>
  <linearGradient id="SVGID_5_" gradientUnits="userSpaceOnUse" x1="93.7004" x2="93.7004" y1="2.3333" y2="67.1039">
    <stop offset="0" style="stop-color:#616161"/>
    <stop offset="1" style="stop-color:#212121"/>
  </linearGradient>
  <path d="M123.73,15.91l-0.14-0.14c1.22-2.54-0.41-5.49-3.15-8.22s-5.68-4.37-8.22-3.15l-0.14-0.14 c0,0-23.31,16.29-48.16,42.3c-0.72,0.75-0.7,1.94,0.03,2.68l7.41,7.41l7.41,7.41c0.73,0.73,1.93,0.75,2.68,0.03 C107.45,39.23,123.73,15.91,123.73,15.91z" style="fill:url(#SVGID_5_);"/>
  <linearGradient id="SVGID_6_" gradientUnits="userSpaceOnUse" x1="113.3457" x2="113.3457" y1="2.5" y2="25.2547">
    <stop offset="0" style="stop-color:#FFC107"/>
    <stop offset="1" style="stop-color:#FFA000"/>
  </linearGradient>
  <path d="M108.73,6.73c-0.93,0.69-2.04,1.53-3.31,2.51l13.35,13.35c0.97-1.27,1.81-2.38,2.51-3.31 L108.73,6.73z" style="fill:url(#SVGID_6_);"/>
  <g style="opacity:0.2;">
    <path d="M114.03,7c0.38,0,1.81,0.19,4.29,2.68c2.03,2.03,3.01,3.87,2.56,4.8l-0.36,0.75 c-3.41,4.71-18.38,24.78-40.38,45.96l-6.65-6.66l-6.66-6.66c21.15-22,41.23-36.99,45.94-40.41l0.75-0.36 C113.69,7.03,113.85,7,114.03,7 M114.03,4c-0.62,0-1.22,0.13-1.81,0.41l-0.14-0.14c0,0-23.31,16.29-48.16,42.3 c-0.72,0.75-0.7,1.94,0.03,2.68l7.41,7.41l7.41,7.41c0.37,0.37,0.86,0.56,1.36,0.56c0.48,0,0.95-0.18,1.32-0.53 c26-24.87,42.28-48.19,42.28-48.19l-0.14-0.14c1.22-2.54-0.41-5.49-3.15-8.22C118.34,5.45,116.11,4,114.03,4L114.03,4z" style="fill:#EEEEEE;"/>
  </g>
  <g>
    <defs>
      <path id="SVGID_7_" d="M123.73,15.91l-0.14-0.14c1.22-2.54-0.41-5.49-3.15-8.22s-5.68-4.37-8.22-3.15l-0.14-0.14 c0,0-23.31,16.29-48.16,42.3c-0.72,0.75-0.7,1.94,0.03,2.68l7.41,7.41l7.41,7.41c0.73,0.73,1.93,0.75,2.68,0.03 C107.45,39.23,123.73,15.91,123.73,15.91z"/>
    </defs>
    <clipPath id="SVGID_8_">
      <use style="overflow:visible;" xlink:href="#SVGID_7_"/>
    </clipPath>
    <g style="clip-path:url(#SVGID_8_);">
      <path d="M64.37,43.29c-0.38,0.39-0.77,0.8-1.15,1.22l20.29,20.3c0.42-0.38,0.82-0.76,1.22-1.15L64.37,43.29 z" style="fill:#FFB300;"/>
      <path d="M64.37,43.29c-0.38,0.39-0.77,0.8-1.15,1.22l20.29,20.3c0.42-0.38,0.82-0.76,1.22-1.15 L64.37,43.29z" style="opacity:0.3;fill:#FFB300;"/>
    </g>
  </g>
</svg>