<svg xmlns="http://www.w3.org/2000/svg" viewBox="0 0 128 128"><path d="M45.31 66.38l.08 45.14c0 1.89.95 3.66 2.52 4.73 4.73 3.22 7.61 3.13 15.9 3.13 9.65 0 17.56-2.2 18.42-5l-.61-56.6-36.31 8.6z" fill="#e0e0e0"/><path d="M71.52 30.51c-.63-1.03-1-2.22-.82-3.81.42-3.78 2.36-6.97 1.82-10.92-.23-1.68-2.56-8.07-5.02-7.06.07.24.2.41.34.61.27.4.51.83.68 1.28 1.39 3.56-.59 6.78-2.95 9.35-5.88 6.38-16.73 14.07-13.06 24.12 4.13 11.31 21.77 9.32 24.44-2.07.56-2.38.11-4.77-1.32-6.76-1.32-1.83-3.08-3.07-4.11-4.74z" fill="#ffa726"/><path d="M69.65 42.33c-.17 2.59-1.73 5.53-4.54 5.89-4.25.54-6.98-4.96-5.36-8.47 1.35-2.92 4.25-1.27 5.63-7.64.06-.29.05-.74-.03-1.03-.07-.25-.21-.48-.21-.74-.02-.56.52.17.65.31 2.59 2.89 3.95 7.34 3.89 11.19l-.03.49z" fill="#ffe082"/><path d="M80.13 56.07c-.94 0-1.71.77-1.71 1.71 0 0-2.64 57.24-6.19 61 0 0 9.99-1.28 9.99-5.04l-.37-55.96a1.73 1.73 0 0 0-1.72-1.71z" fill="#bdbdbd"/><path d="M84.98 59.82c-.04 1.81-.68 3.58-2.05 4.68-1.9 1.53-4.31.7-6.14-.52-2.41-1.6-5.24-1.25-7.11.95-1.57 1.85-1.12 4.13-1.22 6.35-.05 1.15-.26 2.83-1.1 3.72-1.54 1.63-3.03-.91-3.35-2.28-.38-1.64-.65-3.68-2.81-3.54-2.66.17-3.37 4.22-3.71 6.24-.54 3.18-.72 6.54-.5 9.75.17 2.47 1.39 4.92 1.22 7.46-.1 1.42-1.08 3.16-2.54 3.61-1.93.6-3.38-1.3-3.34-3.08.07-3.25 1.4-6.43 1.77-9.66.33-2.89.63-5.8.81-8.71.12-1.95.89-8.15-2.02-8.73-5.66-1.13-4.64 12.32-8.31 11.56-3.1-.65-.55-7.81-.92-12.6-.13-1.73-.71-3.48-.29-5.21.69-2.79 3.46-4.86 6.34-4.62 2.24.19 4.44 1.14 6.37 2.27 2.63 1.55 5.12 2.51 8.24 2.37 3.12-.14 6.13-1.19 8.8-2.78 2.44-1.45 4.73-4.77 7.96-3.9 2.76.74 3.96 4.09 3.9 6.67z" fill="#f5f5f5"/></svg>