<?xml version="1.0" encoding="utf-8"?>
<!-- Generator: Adobe Illustrator 16.0.0, SVG Export Plug-In . SVG Version: 6.00 Build 0)  -->
<!DOCTYPE svg PUBLIC "-//W3C//DTD SVG 1.1//EN" "http://www.w3.org/Graphics/SVG/1.1/DTD/svg11.dtd">
<svg version="1.1" id="レイヤー_1" xmlns="http://www.w3.org/2000/svg" xmlns:xlink="http://www.w3.org/1999/xlink" x="0px"
	 y="0px" width="128px" height="128px" viewBox="0 0 128 128" enable-background="new 0 0 128 128" xml:space="preserve">
<g>
	<polygon fill="#40C0E7" points="29.22,13.88 7.19,26.37 1.25,49.96 10.42,77.41 27.28,95.45 63.51,122.12 97.1,98.53 121.6,73.58 
		126.75,48.72 118.41,26.41 92.2,14.61 79.97,18.16 64.59,33.88 46.56,15.73 	"/>
	<polygon fill="#FFFFFF" points="43.23,21.79 40.87,32.39 31.46,41.8 19.7,77.09 7.93,52.39 11.46,31.21 30.29,21.79 	"/>
	<polygon fill="#039DB8" points="114.43,30.05 103.88,36.68 106.89,52.36 101.67,65.33 72.65,81.8 64.02,115.53 96.18,93.57 
		115.79,71.61 121.96,49.95 	"/>
	<polygon fill="#039DB8" points="40.87,32.39 53.03,47.88 60.68,35.52 43.23,21.79 	"/>
	<polygon fill="#FFFFFF" points="86.22,39.47 82.53,28.39 72.98,38.13 72.87,38.04 65.89,47.79 76.97,63.67 82.58,45.05 
		82.32,44.86 	"/>
</g>
</svg>
