<?xml version="1.0" encoding="utf-8"?>
<!-- Generator: Adobe Illustrator 19.2.1, SVG Export Plug-In . SVG Version: 6.00 Build 0)  -->
<svg version="1.1" id="レイヤー_1" xmlns="http://www.w3.org/2000/svg" xmlns:xlink="http://www.w3.org/1999/xlink" x="0px"
	 y="0px" viewBox="0 0 128 128" style="enable-background:new 0 0 128 128;" xml:space="preserve">
<g>
	<g>
		<g>
			<g>
				<defs>
					<path id="SVGID_1_" d="M63.3,5.13C40,6.43,18.42,10.34,16.63,34.46C15.4,51.13,27.72,68.18,40.77,77.94
						c16.83,12.58,42.58,27.74,63.45,21.16c20.29-6.4,19.35-32.84,17.3-50.39c-2.75-23.63-10.23-30.38-21.39-38.44
						C88.72,2.03,72.14,4.62,63.3,5.13z"/>
				</defs>
				<use xlink:href="#SVGID_1_"  style="overflow:visible;fill:#ED6C30;"/>
				<clipPath id="SVGID_2_">
					<use xlink:href="#SVGID_1_"  style="overflow:visible;"/>
				</clipPath>
			</g>
			<g>
				<path style="fill:#FFFFFF;" d="M31.98,10.83c-0.12,0.08-0.25,0.14-0.37,0.23c-1.48,0.89-2.5,2.11-2.64,3.92
					c-0.18,2.21,0.41,4.78,2.17,6.32c8.2,7.22,29.68,7.52,33.35-4.69c1.09-3.66,1.07-7.52-1.58-10.64c-0.92-1.1-1.79-2.38-3.23-2.68
					c-1.92-0.38-4.11,0.41-6,0.65c-2.47,0.3-5.34,0.84-7.63,1.68c-3.02,1.12-6.36,2.11-9.49,3.21
					C35.01,9.37,33.41,10.02,31.98,10.83z"/>
				<path style="fill:#FFFFFF;" d="M105.71,15.25c-3.37-2.86-7.38-4.66-11.76-4.37c-7.29,0.47-12.13,6.15-12.44,13.26
					c-0.42,9.37,5.73,18.5,13.69,22.73c4.69,2.5,10.55,4.46,15.37,1.45c5.43-3.41,6.13-12.42,4.49-18.25
					C113.61,24.93,110.28,19.13,105.71,15.25z"/>
				<path style="fill:#FFFFFF;" d="M117,87.12c3.48-4.52,3.79-10.8,3.89-16.4c0.03-1.64,0.76-13.5-2.28-13.55
					c-1.97-0.04-3.98,0.55-5.69,1.33c-12.5,5.66-12.1,23.57-0.36,30.34c1.24,0.7,1.56,1.14,2.68,0.17
					C115.9,88.41,116.49,87.78,117,87.12z"/>
			</g>
			<path style="fill:#ED6C30;" d="M94.29,103.87L94.29,103.87c-21.39,0-43.83-14.92-55.3-23.81C22.64,67.37,13.55,50.96,13.4,33.82
				C15.17,7.39,46.1,1.45,64.38,0.25c0.85-0.06,2.2-0.1,3.89-0.1c3.75,0,13.43,0.22,22.24,2.28c7,1.63,14.6,5.77,18.92,10.3
				c6.89,7.24,12.73,20.48,14.87,33.72c2.5,15.51,0.7,32.17-2.26,39.98c-3.11,8.27-8.91,13.8-16.78,15.99
				C101.82,103.38,98.13,103.87,94.29,103.87z M68.27,6.3c-1.51,0-2.72,0.04-3.48,0.09C48.52,7.46,21,12.48,19.55,34
				c0.1,10.53,4.2,26.44,23.21,41.18c10.85,8.41,31.97,22.52,51.53,22.52c3.28,0,6.42-0.41,9.32-1.22
				c5.98-1.67,10.25-5.78,12.67-12.24c2.29-6.05,4.4-21.48,1.94-36.83c-1.92-11.91-7.25-24.16-13.25-30.46
				c-3.5-3.67-10.02-7.19-15.86-8.55C80.69,6.45,71.04,6.3,68.27,6.3z"/>
			<path style="fill:#855C52;" d="M26.3,40.81c-5.64,4.09,2.98,18.87,6.87,23.1c6.03,6.59,16.29,14.95,27.69,21.05
				c9.3,4.97,15.63,7.23,21.5,8.79c9.18,2.25,15.44,1.65,17.12-1.59c0.73-1.39-0.07-6.56-5.49-13.35
				c-5.7-7.16-16.22-16.01-21.26-19.78c-16.45-12.43-30-17.28-32.88-18.24C32.99,38.5,28.41,38.99,26.3,40.81z"/>
		</g>
	</g>
	<g>
		<defs>
			<path id="SVGID_3_" d="M49.18,56.71c-2.48,2.06-5.82,5.22-7.99,6.58c-5.11,3.2-10.57,5.54-16.12,7.2
				c-9.21,2.75-16.34,8.37-20.21,18.06c-3.63,9.34-2.74,17.31,0.66,23.55c4.35,8.23,11.39,12.38,18.26,14.3
				c8.81,2.46,23.09,3.86,36.16-13.54c5.87-7.68,12.31-24.47,14.12-34.28c0.2-1.08,0.53-2.63,0.75-4.21
				c0.08-0.57,0.05-3.08-0.99-4.78c-0.94-1.54-4.59-5.17-9.15-8.24c-3.83-2.58-9.01-4.99-11.68-5.55
				C50.43,55.26,49.62,56.33,49.18,56.71z"/>
		</defs>
		<use xlink:href="#SVGID_3_"  style="overflow:visible;fill:#FCD4B5;"/>
		<clipPath id="SVGID_4_">
			<use xlink:href="#SVGID_3_"  style="overflow:visible;"/>
		</clipPath>
		<path style="clip-path:url(#SVGID_4_);fill:#B89278;" d="M2.54,101.09c0,0,9.03,16.33,33.85,12.59
			c28.37-4.28,37.42-48.02,37.42-48.02l6.75,12.02c0,0-3.15,25.78-15.77,40.56c-12.61,14.78-33.07,21.41-53.76,6.84
			C-4.09,114.44,2.54,101.09,2.54,101.09z"/>
	</g>
</g>
</svg>
