<?xml version="1.0" encoding="utf-8"?>
<!-- Generator: Adobe Illustrator 26.3.1, SVG Export Plug-In . SVG Version: 6.00 Build 0)  -->
<svg version="1.1" id="Layer_2_00000093898695619229298280000009939975015751069101_"
	 xmlns="http://www.w3.org/2000/svg" xmlns:xlink="http://www.w3.org/1999/xlink" x="0px" y="0px" viewBox="0 0 128 128"
	 style="enable-background:new 0 0 128 128;" xml:space="preserve">
<path style="fill:#E0BB95;" d="M101.2,103.1c-0.8,1.6-2.8,5.2-12.9,7.3c-11.1,2.2-6.6,9.9-24.2,11.1c-17.7-1.1-13.2-8.8-24.2-11.1
	c-10.1-2.1-12.2-5.7-12.9-7.3C20.6,90.4,36.4,77.6,37.5,77s1.3-1.3,1.6-2c4.9-11.4,8.2-42.9,10.5-56.2C51.9,5.5,64,6.4,64,6.4
	s12.1-0.9,14.4,12.4C80.7,32.1,84,63.5,88.9,75c0.3,0.7,0.6,1.4,1.6,2C91.6,77.6,107.4,90.4,101.2,103.1z"/>
<g>
	<g>
		<defs>
			<path id="SVGID_1_" d="M101.2,103.1c-0.8,1.6-2.8,5.2-12.9,7.3c-11.1,2.2-6.6,9.9-24.2,11.1c-17.7-1.1-13.2-8.8-24.2-11.1
				c-10.1-2.1-12.2-5.7-12.9-7.3C20.6,90.4,36.4,77.6,37.5,77s1.3-1.3,1.6-2c4.9-11.4,8.2-42.9,10.5-56.2C51.9,5.5,64,6.4,64,6.4
				s12.1-0.9,14.4,12.4C80.7,32.1,84,63.5,88.9,75c0.3,0.7,0.6,1.4,1.6,2C91.6,77.6,107.4,90.4,101.2,103.1z"/>
		</defs>
		<clipPath id="SVGID_00000158010882115481429160000008047710188272791726_">
			<use xlink:href="#SVGID_1_"  style="overflow:visible;"/>
		</clipPath>
		<g style="clip-path:url(#SVGID_00000158010882115481429160000008047710188272791726_);">
			<path style="fill:#D19661;" d="M50.5,11.9c1,1.4,1.2,4,1,5.8C50.3,37,46.2,72.5,45.9,75c-1.1,8.8-7.4,11-9.1,7.8
				c-3.6,1.9-9.9,12.1-6.5,16c2.4,2.8,7.1,0.5,9.7,0.5c9.4,0,13.9,11,24,11c10.2,0,14-10.8,23.2-11c6.6-0.1,12.4,3.8,13.2-5.4
				c0.2-2.2,4.4-1.8,4.4-0.3s0.1,13.5,0.1,13.5l-37.3,17.2l-19.9-2.9l-25.5-17.9l2.3-17.4l12.2-15.7l11.9-57.9L50.5,11.9z"/>
			<path style="fill:#D19661;" d="M64.4,5.3c0.3,0.8,0.7,2.4,2.2,2.8c4.5,1.1,8.1,4.2,9.7,14.4c0.7,4.1,1.5,23.4,5.3,50.1
				c2.3,16,9.8,11.8,11.2,8.3c1.6-4.1-8.3-66.8-8.3-66.8l-8.2-9.9L64.4,5.3z"/>
		</g>
	</g>
</g>
<g>
	<g>
		<defs>
			<path id="SVGID_00000129196036301059109380000004896631251270280578_" d="M101.2,103.1c-0.8,1.6-2.8,5.2-12.9,7.3
				c-11.1,2.2-6.6,9.9-24.2,11.1c-17.7-1.1-13.2-8.8-24.2-11.1c-10.1-2.1-12.2-5.7-12.9-7.3C20.6,90.4,36.4,77.6,37.5,77
				s1.3-1.3,1.6-2c4.9-11.4,8.2-42.9,10.5-56.2C51.9,5.5,64,6.4,64,6.4s12.1-0.9,14.4,12.4C80.7,32.1,84,63.5,88.9,75
				c0.3,0.7,0.6,1.4,1.6,2C91.6,77.6,107.4,90.4,101.2,103.1z"/>
		</defs>
		<clipPath id="SVGID_00000059307190448505749550000008665723535324158599_">
			<use xlink:href="#SVGID_00000129196036301059109380000004896631251270280578_"  style="overflow:visible;"/>
		</clipPath>
		<g style="clip-path:url(#SVGID_00000059307190448505749550000008665723535324158599_);">
			<path style="fill:#8D542E;" d="M42.8,55c0.9,0.3,2.6,0.6,2.3,3.3s-1.9,14-2.3,15.9c-0.6,3-3.9,5.8-7,2.7
				C33.9,75.1,42.8,55,42.8,55z"/>
			<path style="fill:#8D542E;" d="M106.1,98.7l-5,12.3l-7.7,7.8L83.1,125l-12.8,0.6l-6.2,0.3l-6.2-0.3L45.1,125l-10.3-6.1l-7.7-7.8
				l-2.7-10.7c0.5-0.4,1.5-1.3,3,0.5c1,1.2,2.7,4.7,6.7,5.7c-0.9-4.6,13-10.8,17.2,7.5c2.7,3.1,7.6,5.2,12.8,5.3
				c5.2-0.1,10.1-2.1,12.8-5.3c3.8-16.6,15.5-13.1,17.1-8.9c0.2,0.4,6.3-1.5,6.2-7.5c-0.2-10-8.8-17-12-18.8
				c-1.3-0.7-2.5-2.2-2.8-3.7c-0.6-3.6-1.4-10.7-2.3-17.5c-0.2-1.6,1.3-2.6,2-2.7c3.8-0.5,8.3-0.2,10.3,0.8
				C95.6,57.9,106.1,98.3,106.1,98.7z"/>
		</g>
	</g>
</g>
</svg>
