<?xml version="1.0" encoding="utf-8"?>
<!-- Generator: Adobe Illustrator 19.2.1, SVG Export Plug-In . SVG Version: 6.00 Build 0)  -->
<svg version="1.1" id="Layer_1" xmlns="http://www.w3.org/2000/svg" xmlns:xlink="http://www.w3.org/1999/xlink" x="0px" y="0px"
	 viewBox="0 0 128 128" style="enable-background:new 0 0 128 128;" xml:space="preserve">
<g>
	<path style="fill:#FAC036;" d="M102.44,54.92C92.51,45.3,91.5,44.21,83.86,41.51c-7.34-2.59-21.45-11.13-25.63-13.53
		c-3.52-2.02-6.34-2.62-9.6-1.12c-2.14,0.98-4.84,3.36-4.91,7.08c-0.05,2.43,0.42,5.84,7.11,10.62c0.74,0.53,0.47,1.69-0.42,1.83
		c-0.33,0.05-0.72,0.1-1.2,0.13c-3.51,0.25-30.58,0-37.35,0.75C5.09,48.03,4,49.22,2.62,51.64c-1.01,1.76-0.92,6.22,1.34,8.48
		c2.38,2.38,10.43,2.47,40.23,2.95c4.26,0,5.22,0.98,3.84,3.05c-0.98,1.47-1.28,5.12-0.08,7.23c1.07,1.87,2.14,3.09,1.72,4.86
		c-0.59,2.44-0.95,6.78,1.32,9.25c1.33,1.45,1.83,3.19,1.78,5.7c-0.05,2.51,1.23,8.26,8.99,8.27c9.36,0.01,19.23,1.38,27.2-0.93
		c4.49-1.3,7.87-2.48,12.59-2.48c3.89,0,7.86,0.31,12.37,0.31c6.35,0,10.24-0.91,11.24-8.18c1-7.27,1.25-22.81,0-28.32
		c-1.25-5.51-5.03-5.18-8.25-5.18C110.26,56.64,104.86,57.27,102.44,54.92z"/>
	<g>
		<defs>
			<path id="SVGID_1_" d="M102.44,54.92C92.51,45.3,91.5,44.21,83.86,41.51c-7.34-2.59-21.45-11.13-25.63-13.53
				c-3.52-2.02-6.34-2.62-9.6-1.12c-2.14,0.98-4.84,3.36-4.91,7.08c-0.05,2.43,0.42,5.84,7.11,10.62c0.74,0.53,0.47,1.69-0.42,1.83
				c-0.33,0.05-0.72,0.1-1.2,0.13c-3.51,0.25-30.58,0-37.35,0.75C5.09,48.03,4,49.22,2.62,51.64c-1.01,1.76-0.92,6.22,1.34,8.48
				c2.38,2.38,10.43,2.47,40.23,2.95c4.26,0,5.22,0.98,3.84,3.05c-0.98,1.47-1.28,5.12-0.08,7.23c1.07,1.87,2.14,3.09,1.72,4.86
				c-0.59,2.44-0.95,6.78,1.32,9.25c1.33,1.45,1.83,3.19,1.78,5.7c-0.05,2.51,1.23,8.26,8.99,8.27c9.36,0.01,18.39,1.63,26.36-0.68
				c4.49-1.3,8.71-2.73,13.43-2.73c3.89,0,7.86,0.31,12.37,0.31c6.35,0,10.24-0.91,11.24-8.18c1-7.27,1.25-22.81,0-28.32
				c-1.25-5.51-4.28-5.18-7.51-5.18C111.01,56.64,104.86,57.27,102.44,54.92z"/>
		</defs>
		<clipPath id="SVGID_2_">
			<use xlink:href="#SVGID_1_"  style="overflow:visible;"/>
		</clipPath>
		<g style="clip-path:url(#SVGID_2_);">
			<path style="fill:#E48C15;" d="M66.27,51.12c-0.06,0-0.12,0-0.18-0.01c-8.11-0.68-14.52-1.23-22.98-7.71
				c-0.94-0.72-1.11-2.05-0.4-2.99c0.72-0.94,2.05-1.11,2.99-0.4c7.47,5.72,13.04,6.19,20.74,6.84c1.17,0.1,2.04,1.13,1.94,2.3
				C68.3,50.28,67.36,51.12,66.27,51.12z"/>
		</g>
	</g>
	<path style="fill:none;stroke:#E18B25;stroke-width:3.7828;stroke-linecap:round;stroke-miterlimit:10;" d="M58.05,45.84"/>
</g>
</svg>
