<svg xmlns="http://www.w3.org/2000/svg" viewBox="0 0 128 128"><path d="M127.69 72.04c-.26-.7-.89-1.21-1.65-1.3-64.32-8.42-86.74-51.42-86.96-51.86a2.048 2.048 0 0 0-3.11-.68L.95 45.99c-.76.6-.99 1.65-.57 2.51 28.2 57.57 84.9 72.12 85.47 72.27a2.056 2.056 0 0 0 2.05-.66l39.43-46c.5-.57.63-1.36.36-2.07zm-74.17 30.99c-1.04 0-2.28-.5-2.74-1.45-.46-.94-.26-2.07.39-2.87.47-.58 1.12-.92 1.81-1.05 4.16-.78 5.72 5.37.54 5.37zM61.21 97c-1.04 0-2.28-.5-2.74-1.44-.47-.94-.26-2.07.39-2.87.47-.58 1.12-.92 1.81-1.05 4.18-.79 5.72 5.36.54 5.36zm7.05-6.47c-1.05 0-2.29-.5-2.75-1.45-.46-.94-.25-2.07.4-2.87.48-.58 1.12-.92 1.81-1.05 4.17-.79 5.72 5.37.54 5.37zm6.62-6.83c-1.04 0-2.27-.5-2.74-1.45-.47-.94-.26-2.07.39-2.87.47-.58 1.11-.92 1.8-1.05 4.18-.78 5.73 5.37.55 5.37zm7.09-7.48c-1.03.18-2.34-.1-2.96-.96-.61-.85-.6-2-.1-2.9.37-.65.95-1.09 1.61-1.34 3.98-1.48 6.55 4.32 1.45 5.2zm6.08-6.96c-1.03.16-2.33-.15-2.94-1.01-.6-.86-.57-2.01-.05-2.9.38-.65.96-1.08 1.63-1.31 4-1.42 6.48 4.43 1.36 5.22z" fill="#40c0e7"/><path d="M47.57 69.11c-.51.43-.46 1.11.11 1.52 0 0 1.86 1.55 5 3.69 3.17 2.16 6.16 3.64 6.16 3.64.63.38 1.57.34 2.08-.1l2.5-2.09c.53-.44.44-1.11-.18-1.49 0 0-3.59-2-6.26-3.74-3.19-2.09-4.97-3.5-4.97-3.5-.59-.41-1.48-.4-2 .03l-2.44 2.04zM40.82 75.21c-.5.42-.49 1.14.03 1.59 0 0 2.8 2.56 4.91 4.25 2.12 1.71 5.16 4.14 5.16 4.14.56.45 1.44.46 1.95.04l3.05-2.56c.51-.43.45-1.11-.14-1.51 0 0-3.22-2.12-5.54-3.76-2.33-1.65-5.28-4.04-5.28-4.04-.55-.43-1.4-.43-1.91-.01l-2.23 1.86z" fill="#2f2f2f"/><g><path d="M35.58 43.72c-.49.39-.55 1.1-.13 1.59l.89 1c.44.48 1.2.55 1.7.16l1.79-1.41c.5-.4.55-1.1.1-1.57l-.93-.98c-.44-.47-1.2-.54-1.71-.14l-1.71 1.35zM44.27 52.82c-.51.4-.53 1.09-.04 1.54l1.92 1.76c.5.45 1.32.49 1.84.1l2.07-1.6c.51-.4.52-1.08.01-1.52l-2-1.74c-.5-.45-1.32-.48-1.83-.09l-1.97 1.55zM55.71 59.08c.52-.4.5-1.06-.05-1.47l-1.9-1.47c-.54-.42-1.4-.44-1.92-.04l-2.11 1.62c-.51.4-.51 1.07.01 1.51l1.84 1.49c.53.43 1.39.45 1.91.05l2.22-1.69zM61.94 63.34c.53-.4.48-1.04-.11-1.42l-2.18-1.45c-.57-.39-1.47-.38-1.99.02l-2.27 1.72c-.52.39-.49 1.05.06 1.46l2.09 1.48c.57.4 1.48.4 2 0l2.4-1.81zM35.85 40.76c.5-.39.57-1.11.15-1.6l-1.56-1.82c-.4-.49-1.12-.56-1.61-.16l-1.53 1.25c-.48.4-.57 1.13-.18 1.63l1.45 1.82c.4.5 1.13.58 1.63.19l1.65-1.31zM66.15 64.55c-.61-.35-1.55-.3-2.09.1l-2.46 1.86c-.53.4-.47 1.03.12 1.4l4.57 2.68c.62.35 1.55.29 2.06-.14l2.57-2.13c.52-.43.41-1.05-.23-1.37l-4.54-2.4zM44.6 49.77c.5-.39.53-1.09.06-1.55l-1.54-1.49c-.46-.46-1.26-.51-1.76-.12l-1.84 1.44c-.51.39-.54 1.1-.1 1.57l1.48 1.51c.47.47 1.26.53 1.77.13l1.93-1.49z" fill="#2f2f2f"/></g><g fill="#2f2f2f"><path d="M43.93 67.25c.17.01.32-.01.47-.08.74-.34 2.47-1.95 2.69-2.12.83-.65.68-1.16.08-1.61-.44-.33-.84-.69-1.26-1.04-.82-.68-4.72-3.23-10.27-9.27-4.81-5.23-7.92-9.85-8.13-10.13-.15-.22-.29-.47-.52-.62-.43-.28-.92.34-1.21.58l-1.06.88-.66.54c-.4.34-.31.78-.05 1.18.25.38.51.76.76 1.14.58.86 1.17 1.72 1.78 2.56.76 1.05 1.55 2.08 2.36 3.11.95 1.2 1.94 2.39 2.96 3.55a103.688 103.688 0 0 0 7.84 8.02c.78.72 1.58 1.43 2.39 2.12.37.32.77.75 1.19 1 .2.09.42.17.64.19zM40.78 70.16c0-.35-.41-.64-.65-.86-.32-.28-.64-.57-.95-.86-.61-.57-1.23-1.14-1.83-1.71-1.48-1.41-2.91-2.85-4.3-4.31-1.25-1.32-2.46-2.67-3.64-4.03-1.03-1.19-2.04-2.42-3.01-3.65-.82-1.05-1.62-2.11-2.4-3.19-.62-.86-1.24-1.74-1.83-2.62-.23-.35-.47-.71-.7-1.07-.1-.16-.2-.31-.3-.47-.12-.19-.31-.48-.55-.49-.36-.01-.52.25-.78.47-.41.33-.81.66-1.22 1-.2.16-.4.33-.6.5-.71.58-.28 1.05.13 1.7.23.36.46.72.68 1.07.56.87 1.13 1.72 1.72 2.57.72 1.04 1.47 2.07 2.23 3.1.91 1.2 1.83 2.38 2.78 3.56 1.08 1.34 2.21 2.67 3.36 3.98 1.29 1.46 2.62 2.91 3.98 4.33.67.71 1.36 1.4 2.05 2.1.3.3.59.6.89.9.82.83 1.46 1.08 2.4.37.49-.36.95-.75 1.42-1.14.36-.33 1.13-.72 1.12-1.25z"/></g></svg>