<svg enable-background="new 0 0 128 128" viewBox="0 0 128 128" xmlns="http://www.w3.org/2000/svg"><path d="m4 20.8v5.61 5.32 5.07s0 3.27 0 4.86v4.68s0 3.05 0 4.54v4.43s0 2.92 0 4.36 0 2.89 0 4.33v4.33s0 2.9 0 4.36v4.43 4.54s0 3.09 0 4.68 0 3.21 0 4.86 0 3.34 0 5.07v5.32 5.61c1.85-1.12 3.66-2.06 5.43-2.85s3.52-1.45 5.24-1.98 3.4-0.95 5.06-1.26c1.66-0.32 3.29-0.54 4.89-0.68 1.61-0.14 3.19-0.2 4.75-0.2s3.1 0.06 4.62 0.18c1.52 0.11 3.02 0.28 4.5 0.48 1.48 0.21 2.95 0.45 4.4 0.73s2.89 0.58 4.32 0.91 2.85 0.68 4.25 1.05c1.41 0.37 2.81 0.76 4.21 1.15 1.4 0.4 2.79 0.81 4.17 1.22s2.77 0.83 4.16 1.25c1.38 0.42 2.77 0.84 4.16 1.25s2.78 0.82 4.17 1.22c1.4 0.4 2.8 0.78 4.21 1.15s2.83 0.72 4.25 1.05c1.43 0.33 2.87 0.64 4.32 0.91 1.45 0.28 2.92 0.52 4.4 0.73s2.98 0.37 4.5 0.48 3.06 0.18 4.62 0.18 3.14-0.06 4.75-0.2 3.24-0.36 4.89-0.68c1.66-0.32 3.34-0.73 5.06-1.26s3.46-1.18 5.24-1.98 3.59-1.74 5.43-2.85v-5.61-5.32-5.07s0-3.27 0-4.86 0-3.15 0-4.68 0-3.05 0-4.54v-4.43-4.36s0-2.89 0-4.33v-4.33s0-2.9 0-4.36 0-2.94 0-4.43v-4.54s0-3.09 0-4.68v-4.86s0-3.34 0-5.07v-5.32-5.61c-1.85 1.12-3.66 2.06-5.43 2.85-1.78 0.8-3.52 1.45-5.24 1.98s-3.4 0.95-5.06 1.26-3.29 0.54-4.89 0.68-3.19 0.2-4.75 0.2-3.1-0.06-4.62-0.18c-1.52-0.11-3.02-0.28-4.5-0.48s-2.95-0.45-4.4-0.73-2.89-0.58-4.32-0.91-2.85-0.68-4.25-1.05c-1.41-0.37-2.81-0.76-4.21-1.15s-2.79-0.81-4.17-1.22c-1.39-0.41-2.77-0.83-4.16-1.25-1.38-0.42-2.77-0.84-4.16-1.25s-2.78-0.82-4.17-1.22c-1.4-0.4-2.8-0.78-4.21-1.15s-2.83-0.72-4.25-1.05c-1.43-0.33-2.87-0.64-4.32-0.91-1.45-0.28-2.92-0.52-4.4-0.73s-2.98-0.37-4.5-0.48-3.06-0.18-4.62-0.18-3.14 0.06-4.75 0.2-3.24 0.36-4.89 0.68c-1.66 0.32-3.34 0.73-5.06 1.26s-3.46 1.18-5.24 1.98c-1.77 0.79-3.58 1.73-5.43 2.85z" fill="#F2F2F2"/><linearGradient id="b" x1="5.3703" x2="122.37" y1="22.658" y2="105.16" gradientUnits="userSpaceOnUse"><stop stop-color="#fff" stop-opacity="0" offset="0"/><stop stop-color="#C8C8C8" stop-opacity=".1646" offset=".1646"/><stop stop-color="#828282" stop-opacity=".3934" offset=".3934"/><stop stop-color="#4A4A4A" stop-opacity=".5997" offset=".5997"/><stop stop-color="#222" stop-opacity=".7759" offset=".7759"/><stop stop-color="#090909" stop-opacity=".9151" offset=".9151"/><stop offset="1"/></linearGradient><path d="m124 107.2c-1.85 1.12-3.66 2.06-5.43 2.85-1.78 0.8-3.52 1.45-5.24 1.98s-3.4 0.95-5.06 1.26c-1.66 0.32-3.29 0.54-4.89 0.68-1.61 0.14-3.19 0.2-4.75 0.2s-3.1-0.06-4.62-0.18c-1.52-0.11-3.02-0.28-4.5-0.48-1.48-0.21-2.95-0.45-4.4-0.73s-2.89-0.58-4.32-0.91-2.85-0.68-4.25-1.05-2.81-0.76-4.21-1.15c-1.4-0.4-2.79-0.81-4.17-1.22-1.39-0.41-2.77-0.83-4.16-1.25-1.38-0.42-2.77-0.84-4.16-1.25s-2.78-0.82-4.17-1.22c-1.4-0.4-2.8-0.78-4.21-1.15s-2.83-0.72-4.25-1.05-2.87-0.64-4.32-0.91c-1.45-0.28-2.92-0.52-4.4-0.73s-2.98-0.37-4.5-0.48-3.06-0.18-4.62-0.18-3.14 0.06-4.75 0.2-3.24 0.36-4.89 0.68c-1.66 0.32-3.34 0.73-5.06 1.26s-3.46 1.18-5.24 1.98-3.58 1.73-5.43 2.85v-5.61-5.32-5.07s0-3.27 0-4.86 0-3.15 0-4.68 0-3.05 0-4.54v-4.43s0-2.92 0-4.36 0-2.89 0-4.33v-4.33s0-2.9 0-4.36v-4.43-4.54s0-3.09 0-4.68v-4.86-5.07-5.32s0-3.69 0-5.61c1.85-1.12 3.66-2.06 5.43-2.85 1.78-0.8 3.52-1.45 5.24-1.98s3.4-0.95 5.06-1.26c1.66-0.32 3.29-0.54 4.89-0.68 1.61-0.14 3.19-0.2 4.75-0.2s3.1 0.06 4.62 0.18c1.52 0.11 3.02 0.28 4.5 0.48s2.95 0.45 4.4 0.73 2.89 0.58 4.32 0.91 2.85 0.68 4.25 1.05c1.41 0.37 2.81 0.76 4.21 1.15 1.4 0.4 2.79 0.81 4.17 1.22s2.77 0.83 4.16 1.25c1.38 0.42 2.77 0.84 4.16 1.25s2.78 0.82 4.17 1.22 2.8 0.78 4.21 1.15 2.83 0.72 4.25 1.05c1.43 0.33 2.87 0.64 4.32 0.91 1.45 0.28 2.92 0.52 4.4 0.73s2.98 0.37 4.5 0.48 3.06 0.18 4.62 0.18 3.14-0.06 4.75-0.2 3.24-0.36 4.89-0.68 3.34-0.73 5.06-1.26 3.46-1.18 5.24-1.98 3.59-1.74 5.43-2.85v5.61s0 3.59 0 5.32v5.07 4.86 4.68s0 3.05 0 4.54v4.43 4.36s0 2.89 0 4.33v4.33s0 2.9 0 4.36 0 2.94 0 4.43v4.54s0 3.09 0 4.68 0 3.21 0 4.86 0 3.34 0 5.07v5.32 5.61z" fill="url(#b)" opacity=".3"/><g opacity=".2"><path d="m120 26.98v5.7 5.38s0 3.45 0 5.11 0 3.28 0 4.88 0 3.15 0 4.69 0 3.05 0 4.56v4.46s0 2.95 0 4.42 0 2.94 0 4.42v4.46 4.56s0 3.1 0 4.69v4.88 5.11s0 3.54 0 5.38 0 3.74 0 5.7c-1.87 0.91-3.69 1.66-5.49 2.27-1.79 0.61-3.55 1.09-5.27 1.45s-3.42 0.63-5.08 0.8-3.3 0.26-4.9 0.28-3.19-0.03-4.75-0.14-3.09-0.27-4.61-0.47-3.01-0.45-4.49-0.72-2.95-0.59-4.4-0.92-2.89-0.69-4.32-1.06-2.85-0.77-4.26-1.17-2.82-0.81-4.22-1.23l-4.2-1.26c-1.4-0.42-2.8-0.85-4.2-1.26s-2.81-0.83-4.22-1.23-2.83-0.79-4.26-1.17c-1.43-0.37-2.87-0.73-4.32-1.06s-2.92-0.64-4.4-0.92-2.98-0.52-4.49-0.72c-1.52-0.2-3.05-0.36-4.61-0.47s-3.14-0.16-4.75-0.14-3.24 0.1-4.9 0.28c-1.66 0.17-3.35 0.43-5.08 0.8-1.72 0.37-3.48 0.84-5.27 1.45s-3.62 1.36-5.49 2.27v-5.7s0-3.64 0-5.38 0-3.45 0-5.11v-4.88s0-3.15 0-4.69 0-3.05 0-4.56v-4.46-4.42s0-2.94 0-4.42 0-2.96 0-4.46v-4.56s0-3.1 0-4.69 0-3.22 0-4.88 0-3.36 0-5.11v-5.38s0-3.74 0-5.7c1.87-0.91 3.69-1.66 5.49-2.27s3.55-1.09 5.27-1.45c1.72-0.37 3.42-0.63 5.08-0.8s3.3-0.26 4.9-0.28c1.61-0.02 3.19 0.03 4.75 0.14s3.09 0.27 4.61 0.47 3.01 0.45 4.49 0.72c1.48 0.28 2.95 0.59 4.4 0.92s2.89 0.69 4.32 1.06 2.85 0.77 4.26 1.17 2.82 0.81 4.22 1.23l4.2 1.26c1.4 0.42 2.8 0.85 4.2 1.26 1.4 0.42 2.81 0.83 4.22 1.23s2.83 0.79 4.26 1.17c1.43 0.37 2.87 0.73 4.32 1.06s2.92 0.64 4.4 0.92 2.98 0.52 4.49 0.72c1.52 0.2 3.05 0.36 4.61 0.47s3.14 0.16 4.75 0.14 3.24-0.1 4.9-0.28 3.35-0.43 5.08-0.8c1.72-0.37 3.48-0.84 5.27-1.45s3.62-1.36 5.49-2.27m4-6.18c-1.85 1.12-3.66 2.06-5.43 2.85-1.78 0.8-3.52 1.45-5.24 1.98s-3.4 0.95-5.06 1.26-3.29 0.54-4.89 0.68-3.19 0.2-4.75 0.2-3.1-0.06-4.62-0.18c-1.52-0.11-3.02-0.28-4.5-0.48s-2.95-0.45-4.4-0.73-2.89-0.58-4.32-0.91-2.85-0.68-4.25-1.05c-1.41-0.37-2.81-0.76-4.21-1.15s-2.79-0.81-4.17-1.22c-1.39-0.41-2.77-0.83-4.16-1.25-1.38-0.42-2.77-0.84-4.16-1.25s-2.78-0.82-4.17-1.22c-1.4-0.4-2.8-0.78-4.21-1.15s-2.83-0.72-4.25-1.05c-1.43-0.33-2.87-0.64-4.32-0.91-1.45-0.28-2.92-0.52-4.4-0.73s-2.98-0.37-4.5-0.48-3.06-0.18-4.62-0.18-3.14 0.06-4.75 0.2-3.24 0.36-4.89 0.68c-1.66 0.32-3.34 0.73-5.06 1.26s-3.46 1.18-5.24 1.98c-1.77 0.79-3.58 1.73-5.43 2.85v5.61 5.32 5.07s0 3.27 0 4.86v4.68s0 3.05 0 4.54v4.43s0 2.92 0 4.36 0 2.89 0 4.33v4.33s0 2.9 0 4.36v4.43 4.54s0 3.09 0 4.68 0 3.21 0 4.86 0 3.34 0 5.07v5.32 5.61c1.85-1.12 3.66-2.06 5.43-2.85s3.52-1.45 5.24-1.98 3.4-0.95 5.06-1.26c1.66-0.32 3.29-0.54 4.89-0.68 1.61-0.14 3.19-0.2 4.75-0.2s3.1 0.06 4.62 0.18c1.52 0.11 3.02 0.28 4.5 0.48 1.48 0.21 2.95 0.45 4.4 0.73s2.89 0.58 4.32 0.91 2.85 0.68 4.25 1.05c1.41 0.37 2.81 0.76 4.21 1.15 1.4 0.4 2.79 0.81 4.17 1.22s2.77 0.83 4.16 1.25c1.38 0.42 2.77 0.84 4.16 1.25s2.78 0.82 4.17 1.22c1.4 0.4 2.8 0.78 4.21 1.15s2.83 0.72 4.25 1.05c1.43 0.33 2.87 0.64 4.32 0.91 1.45 0.28 2.92 0.52 4.4 0.73s2.98 0.37 4.5 0.48 3.06 0.18 4.62 0.18 3.14-0.06 4.75-0.2 3.24-0.36 4.89-0.68c1.66-0.32 3.34-0.73 5.06-1.26s3.46-1.18 5.24-1.98 3.59-1.74 5.43-2.85v-5.61-5.32-5.07s0-3.27 0-4.86 0-3.15 0-4.68 0-3.05 0-4.54v-4.43-4.36s0-2.89 0-4.33v-4.33s0-2.9 0-4.36 0-2.94 0-4.43v-4.54s0-3.09 0-4.68v-4.86s0-3.34 0-5.07v-5.32-5.61z" fill="#424242"/></g><path d="m58.04 73.7c0-1.88 0.11-3.53 0.34-4.95 0.23-1.43 0.57-2.63 1.02-3.61s1.1-1.89 1.93-2.73 1.86-1.62 3.07-2.33 2.22-1.39 3.03-2.02c0.81-0.64 1.41-1.23 1.81-1.79 0.8-1.12 1.2-2.43 1.2-3.93 0-1.51-0.23-2.84-0.7-3.98-0.46-1.14-1.16-2.1-2.09-2.89s-2.09-1.38-3.48-1.8c-1.98-0.6-3.57-0.47-4.76 0.4-0.6 0.43-1.05 1.03-1.36 1.78s-0.48 1.66-0.51 2.72c-1.55-0.45-2.85-0.82-4.05-1.15s-2.33-0.63-3.54-0.93c-1.21-0.31-2.5-0.62-4.05-0.96 0.02-1.7 0.21-3.24 0.59-4.62s0.92-2.58 1.65-3.62 1.64-1.9 2.72-2.59c1.08-0.68 2.3-1.16 3.65-1.43s2.83-0.32 4.44-0.17c1.61 0.16 3.35 0.52 5.23 1.09 1.42 0.43 2.76 0.92 4.02 1.47s2.44 1.15 3.54 1.81 2.12 1.37 3.06 2.15c0.94 0.77 1.8 1.6 2.59 2.49 1.04 1.18 1.91 2.44 2.61 3.77s1.22 2.74 1.57 4.24 0.52 3.08 0.52 4.75c0 1.14-0.13 2.22-0.38 3.24s-0.64 1.98-1.14 2.87c-0.51 0.89-1.21 1.79-2.1 2.69s-1.97 1.8-3.24 2.69c-1.3 0.89-1.95 1.32-3.25 2.19-1.02 0.69-1.82 1.51-2.4 2.49-0.58 0.97-0.95 2.09-1.09 3.36-0.06 0.96-0.1 1.44-0.16 2.4-1.37-0.41-2.51-0.75-3.58-1.08s-2.06-0.62-3.12-0.94c-1.08-0.34-2.22-0.68-3.59-1.08zm-1.17 11.96c0-1.79 0.61-3.09 1.83-3.89s2.78-0.91 4.68-0.34c0.95 0.29 1.81 0.69 2.59 1.22s1.47 1.17 2.08 1.93 1.07 1.56 1.37 2.38 0.46 1.69 0.46 2.58c0 1.76-0.6 3.04-1.79 3.83s-2.76 0.89-4.72 0.3c-0.98-0.3-1.86-0.7-2.65-1.23-0.79-0.52-1.48-1.16-2.07-1.91-0.6-0.75-1.04-1.53-1.34-2.34-0.29-0.8-0.44-1.65-0.44-2.53z" fill="#0071BC"/><linearGradient id="a" x1="-153" x2="-85.917" y1="-607.79" y2="-607.79" gradientUnits="userSpaceOnUse"><stop stop-color="#fff" stop-opacity="0" offset="0"/><stop stop-opacity=".2867" offset=".2869"/><stop offset=".5251"/><stop stop-opacity=".2492" offset=".7529"/><stop stop-color="#fff" stop-opacity="0" offset="1"/></linearGradient><rect x="-153" y="-651.76" width="67.08" height="87.93" fill="url(#a)" opacity=".2"/></svg>
