<?xml version="1.0" encoding="utf-8"?>
<!-- Generator: Adobe Illustrator 19.2.1, SVG Export Plug-In . SVG Version: 6.00 Build 0)  -->
<svg version="1.1" id="レイヤー_1" xmlns="http://www.w3.org/2000/svg" xmlns:xlink="http://www.w3.org/1999/xlink" x="0px"
	 y="0px" viewBox="0 0 128 128" style="enable-background:new 0 0 128 128;" xml:space="preserve">
<g>
	<g>
		<g>
			<g>
				<path style="fill:#78A3AD;" d="M69.62,32.28l-0.82-16.65c-0.18-2.5-2.12-4.43-4.45-4.43h-0.23c-2.34,0-4.28,1.93-4.45,4.43
					l-0.86,17.25c-0.09,1.33,0.33,2.64,1.18,3.61c0.84,0.98,2.03,1.53,3.27,1.53h1.95c0.01,0,0.02,0,0.03,0
					c2.46,0,4.46-2.14,4.46-4.79C69.72,32.92,69.69,32.59,69.62,32.28z"/>
			</g>
			<g>
				<path style="fill:#78A3AD;" d="M49.86,127.65c-9.23,0-17.23-6.25-19.46-15.2c-0.76-3.04,1.1-6.12,4.14-6.88
					c3.03-0.77,6.12,1.1,6.88,4.14c0.97,3.88,4.44,6.59,8.44,6.59c4.8,0,8.7-3.9,8.7-8.71V45.26c0-3.14,2.54-5.68,5.67-5.68
					c3.13,0,5.68,2.54,5.68,5.68v62.32C69.91,118.65,60.92,127.65,49.86,127.65z"/>
			</g>
			<g>
				<defs>
					<path id="SVGID_1_" d="M25.44,67.47c8.32,0,15.55,4.62,19.28,11.43C48.45,72.09,55.69,67.47,64,67.47
						c8.32,0,15.55,4.62,19.28,11.43c3.73-6.81,10.96-11.43,19.28-11.43c6.71,0,12.71,3.02,16.74,7.76c0.12-1.13,0.2-2.26,0.2-3.41
						c0-22.98-24.85-41.62-55.5-41.62c-30.65,0-55.5,18.63-55.5,41.62c0,1.15,0.08,2.28,0.2,3.41
						C12.73,70.49,18.73,67.47,25.44,67.47z"/>
				</defs>
				<use xlink:href="#SVGID_1_"  style="overflow:visible;fill:#006CA2;"/>
				<clipPath id="SVGID_2_">
					<use xlink:href="#SVGID_1_"  style="overflow:visible;"/>
				</clipPath>
			</g>
		</g>
		<path style="fill:#40C0E7;" d="M87.98,39.73c-0.26,0-0.52,0.06-0.75,0.18c-1.35,0.67-6.01,10.14-6.01,15.61
			c0,3.73,3.04,6.76,6.76,6.76c3.73,0,6.77-3.04,6.77-6.76C94.74,51.38,90.47,39.73,87.98,39.73z"/>
		<path style="fill:#40C0E7;" d="M98.13,0.35c-0.27,0-0.54,0.06-0.78,0.18c-1.4,0.68-6.23,10.51-6.23,16.18
			c0,3.87,3.15,7.01,7.01,7.01c3.87,0,7.01-3.14,7.01-7.01C105.14,12.43,100.72,0.35,98.13,0.35z"/>
		<path style="fill:#40C0E7;" d="M28,0.35c-0.27,0-0.54,0.06-0.78,0.18c-1.4,0.68-6.23,10.51-6.23,16.18c0,3.87,3.15,7.01,7.01,7.01
			c3.87,0,7.01-3.14,7.01-7.01C35.02,12.43,30.59,0.35,28,0.35z"/>
	</g>
	<g>
		<path style="fill:#006CA2;" d="M83.28,81.27c-0.86,0-1.66-0.47-2.07-1.23c-3.45-6.29-10.04-10.2-17.21-10.2
			c-7.16,0-13.76,3.91-17.21,10.2c-0.83,1.52-3.32,1.52-4.15,0c-3.45-6.29-10.04-10.2-17.21-10.2c-5.75,0-11.19,2.53-14.94,6.93
			c-0.61,0.72-1.59,1-2.5,0.73c-0.9-0.28-1.55-1.07-1.66-2.01c-0.13-1.21-0.22-2.43-0.22-3.67c0-24.25,25.96-43.98,57.87-43.98
			c31.91,0,57.87,19.73,57.87,43.98c0,1.23-0.08,2.46-0.22,3.67c-0.1,0.94-0.76,1.73-1.66,2.01c-0.91,0.26-1.88-0.01-2.49-0.73
			c-3.74-4.4-9.19-6.93-14.94-6.93c-7.17,0-13.76,3.91-17.2,10.2C84.94,80.8,84.15,81.27,83.28,81.27z M25.44,65.11
			c7.62,0,14.71,3.56,19.28,9.49c4.57-5.93,11.66-9.49,19.28-9.49c7.62,0,14.71,3.56,19.28,9.49c4.56-5.93,11.66-9.49,19.28-9.49
			c5.28,0,10.35,1.71,14.51,4.81C115.73,49.16,92.44,32.57,64,32.57c-28.44,0-51.73,16.59-53.07,37.35
			C15.09,66.82,20.16,65.11,25.44,65.11z"/>
	</g>
</g>
</svg>
