<?xml version="1.0" encoding="utf-8"?>
<!-- Generator: Adobe Illustrator 16.0.0, SVG Export Plug-In . SVG Version: 6.00 Build 0)  -->
<!DOCTYPE svg PUBLIC "-//W3C//DTD SVG 1.1//EN" "http://www.w3.org/Graphics/SVG/1.1/DTD/svg11.dtd">
<svg version="1.1" id="レイヤー_1" xmlns="http://www.w3.org/2000/svg" xmlns:xlink="http://www.w3.org/1999/xlink" x="0px"
	 y="0px" width="128px" height="128px" viewBox="0 0 128 128" enable-background="new 0 0 128 128" xml:space="preserve">
<g>
	<g>
		<g>
			<path fill="#78A3AD" d="M72.97,41.25c-11.61-4.07-38.05,34.8-38.05,34.8s-11.58,23.31-12.33,24.86
				c-1.15,2.29-2.34,5.74-1.31,8.73c4.23,12.27,21.79,16.56,37.48,16.11c15.7-0.45,27.42-5.76,28.83-10.21
				c1.41-4.45-1.94-13.91-1.94-13.91l-1.91-6.86C83.73,94.77,84.59,45.32,72.97,41.25z"/>
		</g>
		<polygon fill="#FFFFFF" points="45.22,83.75 34.48,119.19 22.14,106.44 37.27,76.98 		"/>
		<path fill="#2F2F2F" d="M71.3,46.51c3.77,4.31,6.8,26.88,6.43,48.59c-0.01,0.69,0.08,1.39,0.27,2.05l2,7.13
			c0.04,0.15,0.09,0.3,0.14,0.45c1.19,3.38,2.07,7.73,1.98,9.49c-1.89,1.71-9.87,5.65-23.4,6.03c-0.69,0.02-1.38,0.03-2.09,0.03
			c-11.89,0-26.85-3.13-29.88-11.94c-0.1-0.33,0.03-1.63,1-3.57c0.73-1.48,10.97-22.09,12.61-25.39C51.66,62.85,66,47.66,71.3,46.51
			 M71.8,39.28c-12.83,0-37.65,36.49-37.65,36.49S22.11,100,21.31,101.61c-1.19,2.38-2.43,5.97-1.36,9.07
			c4.2,12.16,20.98,16.78,36.67,16.78c0.77,0,1.54-0.01,2.3-0.03c16.32-0.47,28.51-5.99,29.97-10.62c1.46-4.62-2-14.46-2-14.46
			l-2-7.13c0,0,0.89-51.4-11.19-55.63C73.1,39.38,72.47,39.28,71.8,39.28L71.8,39.28z"/>
	</g>
	<g>
		<g>
			<path fill="#2F2F2F" d="M113.11,97.53c-25.12,25.7-60.94,25.59-85.34,1.75C3.38,75.43-0.35,36.89,24.78,11.18L113.11,97.53z"/>
			<g>
				<g>
					<defs>
						<path id="SVGID_1_" d="M102.48,23.34c20.67,21.22,28.57,53.36,9.37,73c-19.19,19.64-53.96,16.78-77.68-6.4
							C10.46,66.77,6.8,32.07,26,12.43C45.2-7.21,81.45,1.76,102.48,23.34z"/>
					</defs>
					<use xlink:href="#SVGID_1_"  overflow="visible" fill="#FFFFFF"/>
					<clipPath id="SVGID_2_">
						<use xlink:href="#SVGID_1_"  overflow="visible"/>
					</clipPath>
					<path clip-path="url(#SVGID_2_)" fill="#78A3AD" d="M38.54,89.59c0,0-9.28-11.17-9.95-30.39C27.5,27.69,45.48,8.13,63.56,5.65
						L51.73-1.73c0,0-23.78-1.76-29.08,9.95C0.38,57.37,23.64,73.94,34.74,90.24L38.54,89.59z"/>
				</g>
				<path fill="#2F2F2F" d="M100.13,25.66c18.56,19.05,28.25,49.57,9.64,68.6c-7.57,7.75-18.31,12.02-30.23,12.02
					c-15.25,0-30.97-6.81-43.11-18.68C15.04,66.7,10.43,35.9,25.58,17.3c2.54-3.12,6.78-6.13,8.98-7.36
					C49,1.88,65.25,5.07,76.93,9.73C86.65,13.6,93.35,18.64,100.13,25.66z M21.12,15.44C5.61,36.11,10.42,68.7,33.18,90.95
					c13.51,13.21,30.52,20,46.37,20c12.75,0,24.76-4.41,33.57-13.42c19.76-20.21,11.63-53.28-9.64-75.11
					C94.97,13.8,88.3,10.18,80.07,6.25C73.92,3.31,61.7-0.9,47.56,1.03c-5.97,0.82-11,2.22-15.97,5.14
					c-1.32,0.78-4.34,2.74-6.81,5.01C23.04,12.78,21.58,14.83,21.12,15.44z"/>
			</g>
		</g>
		<g>
			<path fill="#2F2F2F" d="M98.14,20.79L49.71,54.7l4.2,6.66c-3,1.62,34.21-26.64,35.21-25.5c0.68,0.78-25.44,34.41-25.44,34.41
				l6.6,5.03l32.52-49.23L98.14,20.79z"/>
			<g>
				<path fill="#2F2F2F" d="M108.11,25.21c0,5.56-4.51,10.06-10.07,10.06c-5.56,0-10.06-4.5-10.06-10.06
					c0-5.56,4.5-10.06,10.06-10.06C103.6,15.15,108.11,19.66,108.11,25.21z"/>
				<g>
					<defs>
						<path id="SVGID_3_" d="M103.24,25.21c0,2.87-2.33,5.2-5.2,5.2c-2.88,0-5.2-2.33-5.2-5.2c0-2.87,2.33-5.2,5.2-5.2
							C100.91,20.02,103.24,22.35,103.24,25.21z"/>
					</defs>
					<use xlink:href="#SVGID_3_"  overflow="visible" fill="#78A3AD"/>
					<clipPath id="SVGID_4_">
						<use xlink:href="#SVGID_3_"  overflow="visible"/>
					</clipPath>
					<path clip-path="url(#SVGID_4_)" fill="#FFFFFF" d="M99.9,23.05c0,2.01-1.62,3.64-3.64,3.64c-2.01,0-3.63-1.63-3.63-3.64
						c0-2.01,1.62-3.64,3.63-3.64C98.28,19.41,99.9,21.04,99.9,23.05z"/>
				</g>
			</g>
		</g>
	</g>
</g>
</svg>
