<?xml version="1.0" encoding="utf-8"?>
<!-- Generator: Adobe Illustrator 19.2.1, SVG Export Plug-In . SVG Version: 6.00 Build 0)  -->
<svg version="1.1" id="レイヤー_1" xmlns="http://www.w3.org/2000/svg" xmlns:xlink="http://www.w3.org/1999/xlink" x="0px"
	 y="0px" viewBox="0 0 128 128" style="enable-background:new 0 0 128 128;" xml:space="preserve">
<g>
	<path style="fill:#FCC21B;" d="M116,128H12c-6.6,0-12-5.4-12-12V12C0,5.4,5.4,0,12,0h104c6.6,0,12,5.4,12,12v104
		C128,122.6,122.6,128,116,128z"/>
	<g id="XMLID_1_">
		<g>
			<path style="fill:#F79329;" d="M124.48,3.52L3.52,124.48C5.7,126.65,8.7,128,12,128h104c6.6,0,12-5.4,12-12V12
				C128,8.7,126.65,5.7,124.48,3.52z"/>
		</g>
	</g>
	<path style="fill:#FCC21B;" d="M112,101c0,6.63-5.37,12-12,12H27.89c-6.6,0-12-5.4-12-12V28.9c0-6.6,5.4-12,12-12H100
		c6.63,0,12,5.37,12,12V101z"/>
	<path style="fill:#FFFFFF;" d="M63.41,101.77l0.4,0c4.59-0.07,13.28-1.07,19.9-7.03c5.52-4.97,8.08-11.75,7.02-18.62
		c-0.98-6.4-5.01-11.86-11.16-15.2c5.9-4.44,9.44-9.98,10.06-15.74c0.6-5.59-1.58-11.16-6.32-16.12
		c-4.76-4.98-11.18-7.61-18.55-7.61c-11.35,0-21.8,6.01-24.98,10.34c-0.27,0.37-0.27,0.87-0.02,1.25l7.05,10.2
		c0.17,0.25,0.43,0.41,0.74,0.46c0.29,0.04,0.6-0.04,0.84-0.23c0.08-0.07,7.75-6.34,14.28-6.34c2.99,0,5.2,1.31,6.75,4
		c1.29,2.25,1.54,4.31,0.75,6.26c-2.15,5.33-11.26,8.01-11.35,8.04c-0.46,0.13-0.78,0.55-0.78,1.04v8.98c0,0.49,0.33,0.93,0.82,1.04
		c0.09,0.02,8.75,2.17,10.73,7.14c0.77,1.95,0.38,4.15-1.17,6.56c-1.64,2.54-4.13,3.83-7.39,3.83c-6.32,0-14.06-4.8-17.47-7.82
		c-0.24-0.2-0.53-0.31-0.85-0.27c-0.31,0.04-0.58,0.2-0.76,0.46l-7.05,10.2c-0.27,0.4-0.25,0.94,0.07,1.31
		C35.48,88.45,47.03,101.77,63.41,101.77z"/>
</g>
</svg>
