<svg xmlns="http://www.w3.org/2000/svg" height="128" width="128"><defs><linearGradient id="a"><stop offset="0"/><stop offset="1" stop-opacity="0"/></linearGradient></defs><path d="M111.095 44.681c.573-.655 2.496-3.068 2.065-3.9-.716-1.382-2.394-.399-3.396-.51-.126-.014.551-1.629-.372-1.64-1.452-.018-2.754 1.174-4.091 1.198-.466.008-1.033-1.11-1.667-1.144-.723-.039-2.373 1.77-1.942 1.143.213-.31 1.265-1.89.133-1.584-2.272.616-5.498 3.595-6.181 6.027-.43 1.527 1.065 2.107 1.239 3.255.198 1.31-.392 3.157.25 4.397.5.964 3.217 1.399 3.469 2.09.235.643 4.612 6.41 5.942 5.828 4.895-2.138.87.396 4.903-.495 1.121-.247 5.71-4.781 5.65-6.246-.056-1.397-.469-3.808-2.223-4.003-.272-.03-.785.291-.827.015 1.47-3.573.603-4.185-2.952-4.43z" fill="#c79510"/><path d="M42.271 84.349c1.385.045 3.357.34 4.068 1.763 1.336 2.672 1.971 21.476.95 24.542-.659 1.974-10.04 4.194-8.272 7.729.387.774 10.63 1.085 11.797 1.085 4.451 0 3.254-29.428 3.66-34.306" fill="#dabe7f" stroke-linecap="round" stroke-linejoin="round"/><path d="M44.707 112.607c-2.868 1.54-6.91 3.333-5.69 5.776.196.39 2.893.661 5.673.835a6.712 6.136 0 0 0 1.07-3.314 6.712 6.136 0 0 0-1.053-3.297z" fill="#523d21"/><path style="font-variant-east_asian:normal" d="M96.546 86.15c6.618 6.345 7.806 17.89.95 27.525-1.067 1.067.559 5.415-1.085 6.237-3.666.51-11.917 2.129-11.917-2.366 0-1.401 6.335-2.608 7.036-3.735 7.105-11.444 1.85-18.888-.136-26.17" fill="#dabe7f" stroke-linecap="round" stroke-linejoin="round"/><path d="M89.577 114.884c-2.1.822-5.084 1.694-5.084 2.663 0 2.418 2.393 3.058 5.17 3.062a6.712 6.136 0 0 0 .74-2.787 6.712 6.136 0 0 0-.826-2.938z" fill="#523d21"/><path d="M35.264 38.148c1.19 3.292-1.322 8.68 1.846 11.849 3.487 3.487 11.675 1.709 15.636-.271 2.882-1.441 16.526-1.397 18.648-3.52 1.92-1.92 8.434.964 11.119.475 30.08-5.485 26.115 28.596 24 36.079-2.116 7.483-10.864 9.732-12.383 8.972-1.753-.877-5.71-3.621-7.092-3.204 6.617 6.345 7.805 17.89.95 27.525-1.068 1.067.558 5.416-1.086 6.237-3.666.51-11.917 2.129-11.917-2.366 0-1.401 6.336-2.608 7.036-3.735 7.105-11.444 1.85-18.888-.136-26.17.078-2.667-4.783-3.865-6.491-3.056-9.538 4.518-27.044-.217-29.977.271-.406 4.878.791 34.306-3.66 34.306-1.167 0-11.41-.311-11.797-1.085-1.768-3.535 7.613-5.755 8.271-7.73 1.022-3.065.387-21.87-.95-24.541-.71-1.423-2.682-1.718-4.067-1.763-22.245 1.849-13.742-33.428-11.87-49.986" fill="#ecdeae" stroke-linecap="round" stroke-linejoin="round"/><path d="M33.587 115.789c-2.374 1.295-4.566 2.789-3.627 4.666.175.35 2.382.6 4.838.775a6.712 6.136 0 0 0 .248-1.623 6.712 6.136 0 0 0-1.46-3.818zM79.21 117.586c-1.98.727-4.224 1.495-4.224 2.338 0 2.59 2.74 3.146 5.763 3.058a6.712 6.136 0 0 0 .162-1.326 6.712 6.136 0 0 0-1.7-4.07z" fill="#6c502c"/><g transform="matrix(.6491 0 0 .6724 2.182 -9.203)" stroke-width="1.514"><path d="M52.72 36.425c17.062-32.392 20.832-4.945 1.961 3.657" fill="#dbd1c0"/><path d="M53.362 36.386c13.536-25.699 16.527-3.923 1.556 2.901" fill="#e0bbc9"/><path d="M30.684 34.82c1.71-7.437-20.748-20.843-16.707-8.347 1.803 5.577 8.567 13.1 12.268 17.058" fill="#dbd1c0"/><path d="M29.99 34.8c1.454-6.316-17.62-17.7-14.188-7.088 1.532 4.736 7.276 11.125 10.42 14.486" fill="#e0bbc9"/><path d="M52.434 33.826C17.662 18.656 12.69 74.924 38.628 80.767c17.459 3.933 25.04-38.658 13.806-46.94z" fill="#e3dbce"/><ellipse ry="3.739" rx="2.828" cy="47.27" cx="27.949" fill="#272727" stroke-width="21.191" paint-order="stroke fill markers"/><ellipse cx="53.261" cy="47.27" rx="2.828" ry="3.739" fill="#272727" stroke-width="21.191" paint-order="stroke fill markers"/><path d="M38.606 52.739c-13.51-1.233-13.973 19.544-1.473 21.622 7.547 1.254 14.31-3.586 14.31-10.916 0-.845.245-2.905-.315-3.464-3.018-5.425-7.742-6.806-12.522-7.242z" fill="#dbd1c0"/><path d="M38.412 61.923c.318 8.165.289 8.275 8.063 4.687M39.395 68.473c-2.955.279-6.998 1.183-7.802-2.032" fill="none" stroke="#603c1b" stroke-linecap="round" stroke-linejoin="round"/><path d="M37.342 28.49c-1.365-.011-3.885.29-4.315.72-.32.32-.724 1.526-.431 1.965.21.316 1.434.432 1.054.432-.821 0-2.675 1.591-1.821 2.444.489.49 2.973 1.008 2.636.672-.081-.082-.621 2.54 1.199 2.54 3.463 0 6.027-1.069 9.636 0 .53.158 1.844.412 2.109-.383.183-.548-.144-2.303-.144-1.726 0 1.47 1.282 1.103 2.445 1.103 1.123 0 .336-2.173.336-2.493 0-.56 1.281.3 1.678-.096.488-.488-.15-3.55-.432-3.691-2.486-1.244-6.752-1.034-8.293-2.062-1.476-.984-1.454.543-2.11 1.199-.441.441-.606-1.241-1.198-1.438-.918-.306-1.602.628-2.35.815z" fill="#e7d4b4"/><path d="M39.477 57.447c-4.11-2.68-3.98 2.648-1.499 4.318 1.455.98 4.716-2.63 1.499-4.318z" fill="#dab87f" stroke="#dab87f"/></g></svg>