<svg enable-background="new 0 0 128 128" viewBox="0 0 128 128" xmlns="http://www.w3.org/2000/svg" xmlns:xlink="http://www.w3.org/1999/xlink"><defs><rect id="h" x="4" y="4" width="120" height="120"/></defs><clipPath id="a"><use xlink:href="#h"/></clipPath><g clip-path="url(#a)"><defs><rect id="g" x="8" y="20.06" width="84" height="100"/></defs><clipPath id="f"><use xlink:href="#g"/></clipPath><g clip-path="url(#f)"><radialGradient id="e" cx="12.901" cy="-131.91" r="57.904" gradientTransform="matrix(.826 0 0 .826 39.595 101.29)" gradientUnits="userSpaceOnUse"><stop stop-color="#BFA055" offset="0"/><stop stop-color="#AB872F" offset="1"/></radialGradient><path d="m33.02 119.82s-6.8-0.35-10.21-5.09c-7.37-10.23-11.42-35.81-11.42-72.02 0-1.66 0.26-16.4 10.66-26.83 6.75-6.76 16.35-10.19 28.52-10.19 12.08 0 21.52 3.38 28.05 10.04 9.82 10.02 10.04 24.16 9.99 26.89 0 36.31-4.06 61.89-11.42 72.12-3.33 4.62-9.8 5.06-10.25 5.09l-16.94-0.04-16.98 0.03z" fill="url(#e)"/><path d="m50.57 7.19c11.66 0 20.74 3.23 26.98 9.59 9.6 9.8 9.59 24.2 9.56 25.81v0.12c0 35.9-3.96 61.17-11.14 71.15-2.84 3.94-8.55 4.43-9.08 4.46l-16.9-0.03-16.88 0.03c-0.58-0.04-6.25-0.54-9.08-4.46-7.18-9.98-11.14-35.24-11.14-71.17 0-0.63 0.08-15.58 10.22-25.75 6.46-6.47 15.7-9.75 27.46-9.75m0-3c-41.01 0-40.68 37.91-40.68 38.52 0 24.56 1.88 59.25 11.71 72.9 3.9 5.41 11.43 5.71 11.43 5.71l16.97-0.03 16.97 0.03s7.53-0.3 11.43-5.71c9.83-13.65 11.71-48.34 11.71-72.9-0.01-0.61 1.47-38.52-39.54-38.52z" fill="#8F7635"/></g></g><g clip-path="url(#a)"><linearGradient id="d" x1="50" x2="50" y1="97.258" y2="136.07" gradientUnits="userSpaceOnUse"><stop stop-color="#448AFF" offset=".0032478"/><stop stop-color="#3B7DFF" offset=".4042"/><stop stop-color="#2962FF" offset="1"/></linearGradient><path d="M-0.5,136.07v-15.26c0-16.24,25.36-23.53,50.5-23.56h0.13c25.03,0,50.36,8.09,50.36,23.56 v15.26H-0.5z" fill="url(#d)"/><path d="m50.13 98.76c12.9 0 25.42 2.19 34.36 6 6.62 2.83 14.51 7.91 14.51 16.05v13.76h-98v-13.76c0-15.2 24.61-22.03 49-22.06l0.13 0.01m0-3h-0.13c-25.49 0.03-52 7.28-52 25.06v16.76h104v-16.76c0-16.76-26.26-25.06-51.87-25.06z" fill="#4073D4"/></g><g clip-path="url(#a)"><path d="m49.17 109.54c-4 0-7.26-3.22-7.26-7.17v-8.98h16.16v8.98c0 3.96-3.26 7.17-7.26 7.17h-1.64z" fill="#C48E6A"/><path d="m57.08 94.39v7.98c0 3.4-2.81 6.17-6.26 6.17h-1.65c-3.45 0-6.26-2.77-6.26-6.17v-7.98h14.17m2-2h-18.16v9.98c0 4.51 3.7 8.17 8.26 8.17h1.65c4.56 0 8.26-3.66 8.26-8.17v-9.98h-0.01z" fill="#B07853"/></g><g clip-path="url(#a)"><polygon points="39.44 104.56 59.33 104.56 50.01 130.61" fill="#F5F5F5"/><linearGradient id="c" x1="37.964" x2="37.964" y1="97.274" y2="120.58" gradientUnits="userSpaceOnUse"><stop stop-color="#1565C0" offset="0"/><stop stop-color="#0D47A1" offset=".6821"/><stop stop-color="#0D47A1" offset="1"/></linearGradient><polygon points="27.9 105.21 35.96 97.48 40.16 97.05 48.03 126.99" fill="url(#c)"/><path d="m39.41 98.13 6.63 25.23-16.74-18.11 7.1-6.82 3.01-0.3m1.5-2.16-5.39 0.55-9.01 8.65 23.51 25.44-9.11-34.64z" fill="#004EA3"/><linearGradient id="b" x1="62.047" x2="62.047" y1="97.283" y2="120.58" gradientUnits="userSpaceOnUse"><stop stop-color="#1565C0" offset="0"/><stop stop-color="#0D47A1" offset=".6821"/><stop stop-color="#0D47A1" offset="1"/></linearGradient><polygon points="59.83 97.11 64.06 97.55 72.1 105.21 52 126.99" fill="url(#b)"/><path d="m60.58 98.19 3.04 0.31 7.08 6.75-16.72 18.11 6.6-25.17m-1.5-2.16-9.06 34.58 23.49-25.44-9-8.58-5.43-0.56z" fill="#004EA3"/></g><g clip-path="url(#a)"><linearGradient id="q" x1="50.306" x2="50.306" y1="94.77" y2="17.947" gradientUnits="userSpaceOnUse"><stop stop-color="#CCA47A" offset="0"/><stop stop-color="#D6B088" offset=".2568"/><stop stop-color="#DEB892" offset=".5893"/><stop stop-color="#E0BB95" offset="1"/></linearGradient><path d="m50.31 95.33c-2.3 0-4.91-0.5-7.56-1.43-11.33-4.01-24.57-16.34-24.57-37.88 0-28.72 17.31-38.91 32.13-38.91s32.13 10.19 32.13 38.91c0 21.58-13.26 33.9-24.61 37.9-2.64 0.92-5.24 1.41-7.52 1.41z" fill="url(#q)"/><path d="m50.31 18.1c8.41 0 16.06 3.25 21.55 9.15 6.27 6.73 9.58 16.68 9.58 28.77 0 21.06-12.9 33.07-23.94 36.96-2.53 0.89-5.01 1.36-7.19 1.36-2.19 0-4.69-0.48-7.23-1.38-11.03-3.9-23.9-15.92-23.9-36.94 0-12.09 3.31-22.03 9.58-28.77 5.48-5.9 13.14-9.15 21.55-9.15m0-2c-17.2 0-33.13 12.79-33.13 39.91 0 21.79 13.49 34.67 25.23 38.83 2.8 0.99 5.5 1.49 7.9 1.49 2.38 0 5.07-0.49 7.85-1.47 11.76-4.14 25.28-17.03 25.28-38.84 0-27.13-15.93-39.92-33.13-39.92z" fill="#BA8F63"/><defs><path id="p" d="m16.41 88.91-1.5-51.44c0-16.95 15.78-29.85 32.73-29.85h4.93c16.95 0 32.54 12.9 32.54 29.85l-1.5 51.18-67.2 0.26z"/></defs><clipPath id="o"><use xlink:href="#p"/></clipPath><g clip-path="url(#o)"><radialGradient id="n" cx="17.274" cy="-123.06" r="48.206" gradientTransform="matrix(.796 0 0 .796 36.249 97.6)" gradientUnits="userSpaceOnUse"><stop stop-color="#BFA055" offset="0"/><stop stop-color="#AB872F" offset="1"/></radialGradient><path d="m87.89 42.71s1.02-35.57-37.81-35.57-37.97 35.57-37.97 35.57 0.33 45.48 3.2 51.39 7.2 5.71 7.2 5.71-2.03-26.54-2.26-39.04c-0.06-2.92-0.94-13.73 5.16-15.09 22.35-5.02 35-16.88 35-16.88 3.29 7.19 13.58 14.19 17.27 16.86 3.03 2.19 2.61 11.2 2.55 15.03l-3.05 39.06s4.68 0.37 7.65-5.64c2.97-6.03 3.06-51.4 3.06-51.4z" fill="url(#n)"/></g><path d="m54.37 68.12c-0.1-0.04-0.21-0.07-0.32-0.08h-6.99c-0.11 0.01-0.21 0.04-0.32 0.08-0.63 0.26-0.98 0.91-0.68 1.61s1.69 2.66 4.49 2.66 4.19-1.96 4.49-2.66c0.31-0.7-0.04-1.36-0.67-1.61z" fill="#C48E6A"/><ellipse cx="35.31" cy="58.93" rx="4.87" ry="5.04" fill="#5D4037"/><ellipse cx="65.8" cy="58.93" rx="4.87" ry="5.04" fill="#5D4037"/><path d="m41.54 49.88c-0.93-1.23-3.07-3.01-7.23-3.01s-6.31 1.79-7.23 3.01c-0.41 0.54-0.31 1.17-0.02 1.55 0.26 0.35 1.04 0.68 1.9 0.39s2.54-1.16 5.35-1.18c2.81 0.02 4.49 0.89 5.35 1.18s1.64-0.03 1.9-0.39c0.29-0.38 0.39-1.01-0.02-1.55z" fill="#AB872F"/><path d="m74.04 49.88c-0.93-1.23-3.07-3.01-7.23-3.01s-6.31 1.79-7.23 3.01c-0.41 0.54-0.31 1.17-0.02 1.55 0.26 0.35 1.04 0.68 1.9 0.39s2.54-1.16 5.35-1.18c2.81 0.02 4.49 0.89 5.35 1.18s1.64-0.03 1.9-0.39c0.28-0.38 0.39-1.01-0.02-1.55z" fill="#AB872F"/><path d="m58.62 76.2c-3.15 1.87-13.46 1.87-16.61 0-1.81-1.07-3.65 0.57-2.9 2.21 0.74 1.61 6.37 5.36 11.23 5.36s10.42-3.75 11.16-5.36c0.75-1.64-1.07-3.29-2.88-2.21z" fill="#6D4C41"/></g><g clip-path="url(#a)"><linearGradient id="m" x1="10" x2="10" y1="28.952" y2="45.093" gradientUnits="userSpaceOnUse"><stop stop-color="#BDBDBD" offset="0"/><stop stop-color="#757575" offset="1"/></linearGradient><path d="m8 43.06c-1.65 0-3-1.35-3-3v-8c0-1.65 1.35-3 3-3h4c1.65 0 3 1.35 3 3v8c0 1.65-1.35 3-3 3h-4z" fill="url(#m)"/><path d="m12 30.06c1.1 0 2 0.9 2 2v8c0 1.1-0.9 2-2 2h-4c-1.1 0-2-0.9-2-2v-8c0-1.1 0.9-2 2-2h4m0-2h-4c-2.21 0-4 1.79-4 4v8c0 2.21 1.79 4 4 4h4c2.21 0 4-1.79 4-4v-8c0-2.21-1.79-4-4-4z" fill="#807978"/><linearGradient id="l" x1="90" x2="90" y1="28.952" y2="45.093" gradientUnits="userSpaceOnUse"><stop stop-color="#BDBDBD" offset="0"/><stop stop-color="#757575" offset="1"/></linearGradient><path d="m88 43.06c-1.65 0-3-1.35-3-3v-8c0-1.65 1.35-3 3-3h4c1.65 0 3 1.35 3 3v8c0 1.65-1.35 3-3 3h-4z" fill="url(#l)"/><path d="m92 30.06c1.1 0 2 0.9 2 2v8c0 1.1-0.9 2-2 2h-4c-1.1 0-2-0.9-2-2v-8c0-1.1 0.9-2 2-2h4m0-2h-4c-2.21 0-4 1.79-4 4v8c0 2.21 1.79 4 4 4h4c2.21 0 4-1.79 4-4v-8c0-2.21-1.79-4-4-4z" fill="#807978"/><path d="m78.7 21.68h-57.4v-15.34s5.42-2.34 26.7-2.34c13.15 0 30.7 2.5 30.7 2.5v15.18z" fill="#423F3E" opacity=".7"/><path d="m49.6 32.84c-13.33 0-31.05 6.41-39.1 10.97v9.88c7.55-6.43 22.78-11.47 39.1-11.47 16.5 0 29.01 6.27 39.82 11.62 0.05-2.14 0.36-10.2-0.69-12.75-8.05-4.66-25.64-8.25-39.13-8.25z" fill="#807978"/><linearGradient id="k" x1="50" x2="50" y1="4.3949" y2="51.564" gradientUnits="userSpaceOnUse"><stop stop-color="#BDBDBD" offset="0"/><stop stop-color="#757575" offset="1"/></linearGradient><path d="m89.96 31.59c-0.05-1.07-0.28-2.13-0.68-3.12l-7.8-19.35c-0.58-1.18-1.64-2.18-3.03-3.04-0.2-0.13-0.47 0.04-0.47 0.29v9.07c0 0.97-0.77 1.75-1.73 1.75h-52.49c-0.96 0-1.73-0.78-1.73-1.75v-9.25c0-0.18-0.18-0.29-0.32-0.2-1.46 0.88-2.57 1.91-3.17 3.13l-7.8 19.35c-0.4 0.99-0.63 2.05-0.68 3.12l-4.06 24.61s0.02 0.15 0.08 0.38c0.15 0.62 0.57 1.86 1.67 2.48 0 0 11.21-19.36 40.58-21.58 1.11-0.08 2.23-0.08 3.34 0 29.37 2.22 40.58 21.58 40.58 21.58 1.1-0.62 1.52-1.86 1.67-2.48 0.06-0.23 0.08-0.38 0.08-0.38l-4.04-24.61z" fill="url(#k)"/><g fill="#807978"><path d="m67.59 28.08c-0.55 0-1-0.34-1-0.76v-4.7c0-0.42 0.45-0.76 1-0.76s1 0.34 1 0.76v4.7c0 0.42-0.45 0.76-1 0.76z"/><path d="m58.26 29.93c-0.55 0-1-0.34-1-0.76v-8.4c0-0.42 0.45-0.76 1-0.76s1 0.34 1 0.76v8.4c0 0.42-0.44 0.76-1 0.76z"/><path d="m50 28.43c-0.55 0-1-0.34-1-0.76v-5.4c0-0.42 0.45-0.76 1-0.76s1 0.34 1 0.76v5.4c0 0.42-0.45 0.76-1 0.76z"/><path d="m32.41 28.08c-0.55 0-1-0.34-1-0.76v-4.7c0-0.42 0.45-0.76 1-0.76s1 0.34 1 0.76v4.7c0 0.42-0.45 0.76-1 0.76z"/><path d="m41.74 29.93c-0.55 0-1-0.34-1-0.76v-8.4c0-0.42 0.45-0.76 1-0.76s1 0.34 1 0.76v8.4c-0.01 0.42-0.45 0.76-1 0.76z"/></g><g fill="#807978"><path d="m22.02 6.16c-0.03-0.11-0.12-0.19-0.22-0.19-0.03 0-0.07 0.01-0.1 0.03-1.46 0.88-2.57 1.91-3.17 3.13l-7.8 19.35c-0.4 0.99-0.63 2.05-0.68 3.12l-4.05 24.6s0.02 0.15 0.08 0.38c0.15 0.62 0.58 1.86 1.67 2.48 0 0 0.75-1.28 2.35-3.21 0.18-0.22-0.22-2.29-0.31-4.21l3.21-19.56c0.02-0.11 0.03-0.23 0.04-0.34 0.04-0.74 0.19-1.46 0.47-2.14l7.75-19.22c0.16-0.3 0.43-0.6 0.76-0.9v-3.32z"/><path d="m89.96 31.59c-0.05-1.07-0.28-2.13-0.68-3.12l-7.8-19.35c-0.58-1.18-1.64-2.18-3.03-3.04-0.05-0.03-0.1-0.04-0.15-0.04-0.08 0-0.24 0.03-0.3 0.09v3.44c0.28 0.27 0.61 0.54 0.75 0.8l7.75 19.22c0.28 0.68 0.43 1.41 0.47 2.14 0.01 0.12 0.02 0.23 0.04 0.34l3.21 19.57c-0.35-0.37-0.73-0.76-1.13-1.15v4.38c2.17 2.47 3.17 4.18 3.17 4.18 1.1-0.62 1.52-1.86 1.67-2.48 0.05-0.22 0.07-0.37 0.07-0.37l-4.04-24.61z"/></g><linearGradient id="j" x1="50" x2="50" y1="33.302" y2="59.242" gradientUnits="userSpaceOnUse"><stop stop-color="#BDBDBD" offset="0"/><stop stop-color="#757575" offset="1"/></linearGradient><path d="m7.75 59.06s11.53-20.09 42.25-21.69c30.72 1.6 42.25 21.69 42.25 21.69 1.1-0.62 1.52-1.86 1.67-2.48-2.9-5.7-12.64-17.79-36.45-22.74-3.44-0.72-11.33-0.72-14.77 0-23.81 4.95-33.73 17.04-36.62 22.74 0.15 0.63 0.57 1.87 1.67 2.48z" fill="url(#j)"/></g><g clip-path="url(#a)"><g stroke-miterlimit="10" stroke-width=".9728"><path d="m120.95 54.78-14.1-0.32c-4.2-0.09-7.67 3.39-7.74 7.79l-0.64 36.36 3.8 0.09 0.64-36.36c0.04-2.19 1.78-3.94 3.87-3.89l14.1 0.32 0.07-3.99z" fill="#82B1FF" stroke="#6187BF"/><path d="m106.64 60.14-1.49-0.02c-1.11-0.02-2-0.97-1.99-2.13l0.02-2.21c0.01-1.16 0.92-2.09 2.03-2.07l1.49 0.02c1.11 0.02 2 0.97 1.99 2.13l-0.02 2.21c-0.01 1.16-0.92 2.08-2.03 2.07z" fill="#2979FF" stroke="#4073D4"/><path d="m103.48 90.19c0.01-1.05-1.33-1.92-3-1.95-1.67-0.02-3.03 0.81-3.04 1.86l-0.44 37.82 6.05 0.08 0.43-37.81z" fill="#2979FF" stroke="#4073D4"/></g><linearGradient id="i" x1="100.6" x2="100.6" y1="89.182" y2="122.86" gradientTransform="matrix(.9998 .02 -.02 .9998 1.7757 .8105)" gradientUnits="userSpaceOnUse"><stop stop-color="#1565C0" offset="0"/><stop stop-color="#0D47A1" offset=".6821"/><stop stop-color="#0D47A1" offset="1"/></linearGradient><path d="m98.15 125.39 3.78 0.05c1.54 0.02 2.8-1.36 2.82-3.08l0.33-27.34c0.02-1.88-1.33-3.42-3.01-3.45l-3.26-0.04c-1.68-0.02-3.07 1.48-3.09 3.36l-0.33 27.34c-0.01 1.73 1.22 3.14 2.76 3.16z" fill="url(#i)" stroke="#30569E" stroke-miterlimit="10" stroke-width=".9728"/><path d="m113.61 62.33c-2.92 0-6.15-1.65-6.8-5.35-0.22-1.22-0.15-3.1 0.33-4.01 0.63-1.17 1.58-2.07 2.84-2.67 1.02-0.49 2.26-0.8 3.24-0.82h0.17c2.27 0 4.75 1.03 6.81 2.83l0.15 0.13c1.12 0.99 2.4 2.1 2.74 3.38 0.66 2.47-3.78 5.02-6.73 6.04-0.9 0.31-1.82 0.47-2.75 0.47z" fill="#FF6D00"/><path d="m113.39 50.32c2.07 0 4.35 0.96 6.25 2.62l0.15 0.13c0.98 0.86 2.21 1.94 2.49 2.96 0.45 1.7-3.38 4.06-6.2 5.04-0.8 0.28-1.63 0.42-2.47 0.42-2.57 0-5.41-1.44-5.97-4.66-0.21-1.2-0.1-2.82 0.24-3.47 0.54-1.01 1.37-1.79 2.46-2.31 0.9-0.43 2.04-0.72 2.9-0.74l0.15 0.01m0-1.68h-0.19c-1.17 0.02-2.54 0.4-3.58 0.9-1.49 0.7-2.54 1.77-3.22 3.03-0.62 1.17-0.64 3.28-0.42 4.55 0.67 3.82 3.99 6.04 7.63 6.04 1 0 2.02-0.17 3.02-0.51 2.55-0.89 8.17-3.68 7.27-7.05-0.42-1.58-1.94-2.86-3.15-3.92-2-1.75-4.63-3.04-7.36-3.04z" fill="#EB491F"/><path d="m109.21 54.54c0.37-0.56 0.96-1.04 1.78-1.36 0.57-0.23 1.33-0.41 1.96-0.42 1.53-0.05 2.99 0.51 4.09 1.29 0.65 0.46 1.46 1.01 1.69 1.7 0.46 1.48-2.61 2.76-4.01 3.17-2.54 0.75-5.34-0.23-5.76-2.37-0.12-0.56-0.1-1.49 0.25-2.01z" fill="#FFD600"/></g><g clip-path="url(#a)"><path d="m100.82 129.79-8-0.25c-6.96-0.71-11.7-4.77-10.79-13.12 1.97-18.12 21.83-12.18 23.64-6.3 2.7 8.8-1.75 19.98-4.85 19.67z" fill="#FF7043" stroke="#E03B0E" stroke-linecap="round" stroke-linejoin="round" stroke-miterlimit="10" stroke-width="2"/><path d="m93.5 126v0c-0.27 1.7 0.89 3.29 2.59 3.57l4.33 0.69c1.7 0.27 3.29-0.89 3.57-2.59v0c0.27-1.7-0.89-3.29-2.59-3.57l-4.33-0.69c-1.7-0.27-3.3 0.89-3.57 2.59z" fill="#FF7043" stroke="#E03B0E" stroke-linecap="round" stroke-linejoin="round" stroke-miterlimit="10" stroke-width="2"/><path d="m94.71 121.54v0c-0.26 1.71 0.91 3.31 2.62 3.58l5.68 0.87c1.71 0.26 3.31-0.91 3.58-2.62v0c0.26-1.71-0.91-3.31-2.62-3.58l-5.68-0.87c-1.71-0.26-3.32 0.91-3.58 2.62z" fill="#FF7043" stroke="#E03B0E" stroke-linecap="round" stroke-linejoin="round" stroke-miterlimit="10" stroke-width="2"/><path d="m94.97 117.26v0c-0.17 1.68 1.05 3.19 2.74 3.36l6.95 0.71c1.68 0.17 3.19-1.05 3.36-2.74v0c0.17-1.68-1.05-3.19-2.74-3.36l-6.95-0.71c-1.69-0.17-3.19 1.05-3.36 2.74z" fill="#FF7043" stroke="#E03B0E" stroke-linecap="round" stroke-linejoin="round" stroke-miterlimit="10" stroke-width="2"/><path d="m94.89 111.78v0c-0.08 1.69 1.23 3.13 2.92 3.21l6.98 0.33c1.69 0.08 3.13-1.23 3.21-2.92v0c0.08-1.69-1.23-3.13-2.92-3.21l-6.98-0.33c-1.69-0.08-3.13 1.23-3.21 2.92z" fill="#FF7043" stroke="#E03B0E" stroke-linecap="round" stroke-linejoin="round" stroke-miterlimit="10" stroke-width="2"/><path d="m105.57 104.92c-0.77-0.19-3.45-1.06-5.22-1.45-0.67-0.15-2.45-0.48-3.13-0.49-2.18-0.04-9.12 2.5-10.74 4.1-0.79 0.78-0.85 2.21-1.04 3.21 0.38-0.41-4.71 8.94 5.07 7.16 4.09-0.52 3.01-5.45 4.36-6.82 1.03-1.05 2.7-2.6 7.64-0.91 1.38 0.47 3.76 0.45 4.63-0.6 1.51-1.83 0.67-3.64-1.57-4.2z" fill="#FF7043"/><path d="m109.09 106.31c-0.38-1.13-1.46-1.99-2.96-2.35-0.26-0.06-0.74-0.2-1.32-0.37-1.17-0.34-2.78-0.8-4-1.07-0.62-0.14-2.52-0.49-3.38-0.51-6.63-0.15-9.7 2.08-11.66 4.3-1.29 1.45-1.06 4.1-0.73 3.61 1.29-1.92 3.9-3.79 6.65-4.84 2.42-0.92 3.83-1.2 5.72-1.17 0.58 0.01 2.26 0.31 2.97 0.46 1.15 0.25 2.72 0.71 3.87 1.04 0.62 0.18 1.13 0.33 1.4 0.39 0.83 0.2 1.41 0.6 1.57 1.1 0.14 0.43 0.13 1.25-0.34 1.79-0.49 0.57-2.61 0.73-3.88 0.3-1.8-0.6-3.74-1.37-5.64-0.94-1.44 0.33-3.14 1.25-3.71 2.6-0.56 1.32-0.09 4.75-2.2 6.8-0.87 0.84-3.13 1.89-3.13 1.89s2.47 0.54 3.86-0.25c1.96-1.12 2.9-3.62 3.29-5.64 0.17-0.9 0.14-2.5 0.42-2.76 0.87-0.86 1.88-2.12 6.41-0.61 1.58 0.52 4.68 1.03 5.95-0.45 0.9-1.07 1.2-2.25 0.84-3.32z" fill="#E03B0E"/></g></svg>
