<svg width="128" height="128" style="enable-background:new 0 0 128 128;" xmlns="http://www.w3.org/2000/svg" xmlns:xlink="http://www.w3.org/1999/xlink">
  <path d="M110.55,117.41L76.92,63.69l29.73-44.82c0.45-0.69,0.5-1.57,0.1-2.3c-0.39-0.73-1.14-1.18-1.97-1.18 H80.34c-0.74,0-1.45,0.38-1.86,1L51.49,57.08V17.64c0-1.24-1.01-2.24-2.24-2.24h-21.9c-1.24,0-2.24,1-2.24,2.24V118.6 c0,1.24,1,2.24,2.24,2.24h21.9c1.23,0,2.24-1,2.24-2.24V70.55l30.82,49.24c0.41,0.65,1.13,1.05,1.9,1.05h24.44 c0.81,0,1.57-0.44,1.96-1.16C111,118.97,110.98,118.1,110.55,117.41z" style="fill:#40C0E7;"/>
</svg>