<svg enable-background="new 0 0 128 128" viewBox="0 0 128 128" xmlns="http://www.w3.org/2000/svg"><radialGradient id="c" cx="65.006" cy="56.809" r="55.924" gradientUnits="userSpaceOnUse"><stop stop-color="#FAFAFA" offset=".7138"/><stop stop-color="#E0E0E0" offset="1"/></radialGradient><path d="m124 63.83c0-4.92-1.46-9.51-3.97-13.35 1.87-2.78 2.96-6.13 2.96-9.73 0-9.7-7.9-17.56-17.65-17.56-0.08 0-0.16 0.01-0.24 0.01-0.68-8.06-7.46-14.39-15.73-14.39-2.47 0-4.8 0.58-6.88 1.59-4.37-3.9-10.15-6.27-16.48-6.27-7.58 0-14.36 3.4-18.89 8.74-3.47-1.9-7.46-2.99-11.7-2.99-13.42 0-24.3 10.82-24.3 24.18 0 5.03 1.54 9.7 4.18 13.57-5.02 3.99-8.49 9.9-9.18 16.76-1.34 13.51 8.56 25.56 22.14 26.91 3.16 0.31 6.24 0.02 9.12-0.79 1.06 10.65 10.09 18.97 21.07 18.97 6.98 0 13.16-3.38 17.02-8.57 3.59 2.84 8.12 4.55 13.07 4.55 11.04 0 20.07-8.47 20.92-19.24 8.57-3.84 14.54-12.42 14.54-22.39z" fill="url(#c)"/><radialGradient id="b" cx="25.591" cy="103.32" r="9.053" gradientUnits="userSpaceOnUse"><stop stop-color="#FAFAFA" offset=".6846"/><stop stop-color="#E0E0E0" offset="1"/></radialGradient><path d="m26.5 94.34c-4.99-0.5-9.43 3.12-9.93 8.09-0.5 4.96 3.14 9.39 8.13 9.88 4.99 0.5 9.43-3.12 9.93-8.09 0.49-4.96-3.15-9.39-8.13-9.88z" fill="url(#b)"/><radialGradient id="a" cx="10.05" cy="118.11" r="6.0353" gradientUnits="userSpaceOnUse"><stop stop-color="#FAFAFA" offset=".6846"/><stop stop-color="#E0E0E0" offset="1"/></radialGradient><path d="m10.65 112.12c-3.32-0.33-6.29 2.08-6.62 5.39s2.09 6.26 5.42 6.59c3.32 0.33 6.29-2.08 6.62-5.39s-2.09-6.26-5.42-6.59z" fill="url(#a)"/><g opacity=".2"><g fill="#424242"><path d="m66.02 7.13c5.35 0 10.5 1.96 14.48 5.51 0.56 0.5 1.28 0.76 2 0.76 0.44 0 0.89-0.1 1.3-0.3 1.77-0.86 3.65-1.29 5.58-1.29 6.6 0 12.19 5.01 12.74 11.54 0.13 1.56 1.43 2.64 2.99 2.64h0.04c0.08 0 0.17 0.1 0.26 0.09 8.05 0.03 14.58 6.6 14.58 14.61 0 2.88-0.85 5.69-2.45 8.08-0.67 1-0.68 2.31-0.02 3.32 2.28 3.49 3.48 7.55 3.48 11.72 0 8.46-5.01 16.18-12.77 19.67-1 0.45-1.67 1.41-1.76 2.5-0.73 9.24-8.61 16.48-17.93 16.48-4.11 0-7.98-1.35-11.2-3.9-0.53-0.42-1.19-0.65-1.86-0.65-0.13 0-0.26 0.01-0.39 0.03-0.8 0.11-1.53 0.53-2.02 1.18-3.48 4.68-8.8 7.36-14.61 7.36-9.39 0-17.16-6.99-18.08-16.27-0.09-0.88-0.56-1.68-1.29-2.18-0.5-0.34-1.1-0.52-1.69-0.52-0.27 0-0.54 0.04-0.81 0.11-1.91 0.53-3.87 0.8-5.85 0.8-0.72 0-1.45-0.04-2.17-0.11-5.79-0.58-11-3.37-14.68-7.86-3.64-4.45-5.33-10.05-4.76-15.77 0.59-5.83 3.45-11.05 8.06-14.71 1.23-0.98 1.5-2.74 0.61-4.04-2.4-3.51-3.66-7.62-3.66-11.87 0-11.68 9.55-21.18 21.3-21.18 3.59 0 7.13 0.9 10.26 2.62 0.45 0.25 0.95 0.37 1.44 0.37 0.86 0 1.7-0.37 2.29-1.06 4.13-4.88 10.18-7.68 16.59-7.68m0-3c-7.58 0-14.36 3.4-18.89 8.74-3.47-1.9-7.46-2.99-11.7-2.99-13.42 0-24.3 10.82-24.3 24.18 0 5.03 1.54 9.7 4.18 13.57-5.02 3.99-8.49 9.9-9.18 16.76-1.35 13.51 8.55 25.56 22.13 26.91 0.83 0.08 1.65 0.12 2.47 0.12 2.29 0 4.53-0.32 6.65-0.91 1.06 10.65 10.09 18.97 21.07 18.97 6.98 0 13.16-3.38 17.02-8.57 3.59 2.84 8.12 4.55 13.07 4.55 11.04 0 20.07-8.47 20.92-19.24 8.57-3.84 14.54-12.42 14.54-22.39 0-4.92-1.46-9.51-3.97-13.35 1.87-2.78 2.96-6.13 2.96-9.73 0-9.7-7.9-17.56-17.65-17.56-0.08 0-0.16 0.01-0.24 0.01-0.68-8.06-7.46-14.39-15.73-14.39-2.47 0-4.8 0.58-6.88 1.59-4.37-3.89-10.14-6.27-16.47-6.27z"/><path d="m25.58 97.29c0.2 0 0.41 0.01 0.62 0.03 1.62 0.16 3.08 0.94 4.11 2.2 1.02 1.24 1.49 2.81 1.33 4.4-0.31 3.1-2.91 5.43-6.03 5.43-0.2 0-0.41-0.01-0.62-0.03-1.62-0.16-3.07-0.94-4.1-2.19-1.02-1.25-1.5-2.81-1.34-4.41 0.31-3.09 2.9-5.43 6.03-5.43m0-3c-4.61 0-8.55 3.47-9.02 8.13-0.5 4.96 3.14 9.39 8.13 9.88 0.31 0.03 0.61 0.05 0.91 0.05 4.61 0 8.55-3.47 9.02-8.13 0.5-4.96-3.14-9.39-8.13-9.88-0.3-0.03-0.61-0.05-0.91-0.05z"/><path d="m10.04 115.09c0.1 0 0.21 0.01 0.31 0.02 0.82 0.08 1.55 0.47 2.07 1.1 0.51 0.62 0.74 1.4 0.66 2.2-0.16 1.55-1.46 2.72-3.03 2.72-0.1 0-0.21-0.01-0.31-0.02-0.82-0.08-1.55-0.47-2.06-1.1-0.51-0.62-0.74-1.4-0.66-2.2 0.15-1.55 1.45-2.72 3.02-2.72m0-3c-3.07 0-5.7 2.32-6.01 5.42-0.33 3.31 2.09 6.26 5.42 6.59 0.2 0.02 0.41 0.03 0.61 0.03 3.07 0 5.7-2.32 6.01-5.42 0.33-3.31-2.09-6.26-5.42-6.59-0.2-0.02-0.41-0.03-0.61-0.03z"/></g></g></svg>
