<svg width="128" height="128" style="enable-background:new 0 0 128 128;" xmlns="http://www.w3.org/2000/svg" xmlns:xlink="http://www.w3.org/1999/xlink">
  <path d="M127.35,59.61c0-4.36-3.56-7.92-7.92-7.92h-35.2c-4.36,0-7.92-3.56-7.92-7.92V8.57 c0-4.36-3.56-7.92-7.92-7.92h-8.78c-4.36,0-7.92,3.56-7.92,7.92v35.19c0,4.36-3.56,7.92-7.92,7.92H8.57c-4.36,0-7.92,3.56-7.92,7.92 v8.79c0,4.36,3.56,7.92,7.92,7.92h35.2c4.36,0,7.92,3.56,7.92,7.92v35.19c0,4.36,3.56,7.92,7.92,7.92h8.78 c4.36,0,7.92-3.56,7.92-7.92V84.23c0-4.36,3.56-7.92,7.92-7.92h35.2c4.36,0,7.92-3.56,7.92-7.92V59.61z" style="fill:#ED6C30;"/>
</svg>