<svg width="128" height="128" xmlns="http://www.w3.org/2000/svg"><style>.st0{fill:#fcc21b}.st1{fill:#fcc01c}.st2{fill:#fcbe1c}.st3{fill:#fbbb1d}.st4{fill:#fbb91e}.st5{fill:#fbb71e}.st6{fill:#fbb51f}.st7{fill:#fab220}.st8{fill:#fab020}.st9{fill:#faae21}.st10{fill:#faac22}.st11{fill:#f9a922}.st12{fill:#f9a723}.st13{fill:#f9a524}.st14{fill:#f9a324}.st15{fill:#f8a025}.st16{fill:#f89e26}.st17{fill:#f89c26}.st18{fill:#f89a27}.st19{fill:#f79728}.st20{fill:#f79528}.st21{fill:#f79329}.st22{fill:#2f2f2f}.st25{fill:none;stroke:#2f2f2f;stroke-width:3;stroke-linecap:round;stroke-miterlimit:10}</style><path class="st0" d="M63.8 8.6C1.5 8.6 0 78.5 0 92.3c0 13.8 28.6 25 63.8 25 35.2 0 63.8-11.2 63.8-25S126.1 8.6 63.8 8.6z"/><path class="st0" d="M109.5 85.9c-9.5 3.4-20-1.4-23.4-10.8C82.7 65.8 87.5 55.4 97 52c9.5-3.4 20 1.4 23.4 10.8 3.5 9.3-1.4 19.7-10.9 23.1z"/><path class="st1" d="M109.3 85.3c-9.1 3.3-19.2-1.3-22.6-10.4-3.3-9 1.4-19 10.5-22.3 9.1-3.3 19.2 1.4 22.6 10.4 3.3 9-1.4 19-10.5 22.3z"/><path class="st2" d="M109.1 84.6c-8.8 3.2-18.5-1.3-21.7-10-3.2-8.7 1.3-18.3 10.1-21.4 8.8-3.2 18.5 1.3 21.7 10 3.2 8.7-1.4 18.3-10.1 21.4z"/><path class="st3" d="M108.8 84c-8.4 3-17.7-1.2-20.8-9.6-3.1-8.3 1.3-17.5 9.7-20.6 8.4-3 17.7 1.3 20.8 9.6 3.1 8.4-1.2 17.6-9.7 20.6z"/><path class="st4" d="M108.6 83.4c-8.1 2.9-17-1.2-19.9-9.2-2.9-8 1.2-16.8 9.3-19.7 8.1-2.9 17 1.2 19.9 9.2 2.9 7.9-1.2 16.8-9.3 19.7z"/><path class="st5" d="M108.4 82.7c-7.7 2.8-16.2-1.1-19.1-8.8-2.8-7.6 1.2-16 8.9-18.8 7.7-2.8 16.2 1.2 19.1 8.8 2.8 7.6-1.2 16.1-8.9 18.8z"/><path class="st6" d="M108.1 82.1c-7.4 2.6-15.5-1.1-18.2-8.4-2.7-7.3 1.1-15.3 8.5-18 7.3-2.6 15.5 1.1 18.2 8.4 2.7 7.3-1.1 15.4-8.5 18z"/><path class="st7" d="M107.9 81.5c-7 2.5-14.8-1-17.3-8-2.5-6.9 1.1-14.6 8.1-17.1 7-2.5 14.7 1 17.3 8 2.5 6.9-1.1 14.5-8.1 17.1z"/><path class="st8" d="M107.7 80.8c-6.7 2.4-14-1-16.4-7.6-2.4-6.6 1-13.8 7.7-16.2 6.6-2.4 14 1 16.4 7.6 2.3 6.6-1.1 13.8-7.7 16.2z"/><path class="st9" d="M107.4 80.2c-6.3 2.3-13.3-.9-15.6-7.2-2.3-6.2 1-13.1 7.3-15.4 6.3-2.3 13.3.9 15.6 7.2 2.3 6.2-1 13.1-7.3 15.4z"/><path class="st10" d="M107.2 79.6c-5.9 2.1-12.5-.9-14.7-6.7-2.2-5.9.9-12.4 6.8-14.5 5.9-2.1 12.5.9 14.7 6.8 2.2 5.7-.9 12.2-6.8 14.4z"/><path class="st11" d="M107 78.9c-5.6 2-11.8-.8-13.8-6.3S94 61 99.6 59c5.6-2 11.8.8 13.8 6.4 2 5.4-.8 11.5-6.4 13.5z"/><path class="st12" d="M106.7 78.3c-5.2 1.9-11-.8-12.9-5.9-1.9-5.2.8-10.9 6-12.8 5.2-1.9 11 .8 12.9 6 2 5.1-.7 10.8-6 12.7z"/><path class="st13" d="M106.5 77.7c-4.9 1.8-10.3-.7-12-5.5-1.8-4.8.7-10.1 5.6-11.9 4.9-1.8 10.3.7 12.1 5.5 1.7 4.8-.8 10.1-5.7 11.9z"/><path class="st14" d="M106.3 77c-4.5 1.6-9.5-.7-11.2-5.1-1.6-4.5.7-9.4 5.2-11 4.5-1.6 9.5.7 11.2 5.1 1.6 4.5-.7 9.4-5.2 11z"/><path class="st15" d="M106 76.4c-4.2 1.5-8.8-.6-10.3-4.7-1.5-4.1.6-8.7 4.8-10.2s8.8.6 10.3 4.7c1.5 4.1-.6 8.7-4.8 10.2z"/><path class="st16" d="M105.8 75.8c-3.8 1.4-8-.6-9.4-4.3-1.4-3.8.6-7.9 4.4-9.3 3.8-1.4 8 .6 9.4 4.3 1.4 3.7-.6 7.9-4.4 9.3z"/><path class="st17" d="M105.6 75.1c-3.5 1.2-7.3-.5-8.5-3.9-1.3-3.4.5-7.2 4-8.4 3.5-1.2 7.3.5 8.5 3.9 1.2 3.4-.6 7.2-4 8.4z"/><path class="st18" d="M105.3 74.5c-3.1 1.1-6.5-.5-7.7-3.5-1.1-3.1.5-6.5 3.6-7.6 3.1-1.1 6.5.5 7.7 3.5 1.1 3.1-.5 6.5-3.6 7.6z"/><path class="st19" d="M105.1 73.8c-2.8 1-5.8-.4-6.8-3.1s.4-5.7 3.2-6.7c2.7-1 5.8.4 6.8 3.1 1 2.8-.5 5.8-3.2 6.7z"/><path class="st20" d="M104.9 73.2c-2.4.9-5-.4-5.9-2.7-.9-2.4.4-5 2.8-5.8 2.4-.9 5 .4 5.9 2.7.8 2.3-.4 5-2.8 5.8z"/><path class="st21" d="M104.6 72.6c-2 .7-4.3-.3-5-2.3-.7-2 .3-4.2 2.3-5 2-.7 4.3.3 5 2.3.8 2-.2 4.2-2.3 5z"/><g><path class="st0" d="M31.5 85.9c-9.5 3.4-20-1.4-23.4-10.8C4.7 65.8 9.5 55.4 19 52c9.5-3.4 20 1.4 23.4 10.8 3.5 9.3-1.4 19.7-10.9 23.1z"/><path class="st1" d="M31.3 85.3C22.2 88.6 12.1 84 8.7 74.9c-3.3-9 1.4-19 10.5-22.3C28.4 49.3 38.5 54 41.8 63c3.3 9-1.4 19-10.5 22.3z"/><path class="st2" d="M31.1 84.6c-8.8 3.2-18.5-1.3-21.7-10-3.2-8.6 1.3-18.2 10.1-21.4 8.8-3.2 18.5 1.3 21.7 10 3.2 8.7-1.4 18.3-10.1 21.4z"/><path class="st3" d="M30.8 84c-8.4 3-17.7-1.2-20.8-9.6-3.1-8.3 1.3-17.5 9.7-20.6 8.4-3 17.7 1.3 20.8 9.6 3.1 8.4-1.2 17.6-9.7 20.6z"/><path class="st4" d="M30.6 83.4c-8.1 2.9-17-1.2-19.9-9.2-2.9-8 1.2-16.8 9.3-19.7 8.1-2.9 17 1.2 19.9 9.2 2.9 7.9-1.2 16.8-9.3 19.7z"/><path class="st5" d="M30.4 82.7c-7.7 2.8-16.2-1.1-19.1-8.8-2.8-7.6 1.2-16 8.9-18.8 7.7-2.8 16.2 1.2 19.1 8.8 2.8 7.6-1.2 16.1-8.9 18.8z"/><path class="st6" d="M30.1 82.1C22.8 84.7 14.6 81 12 73.7c-2.7-7.3 1.1-15.3 8.5-18 7.3-2.6 15.5 1.1 18.2 8.4 2.6 7.3-1.2 15.4-8.6 18z"/><path class="st7" d="M29.9 81.5c-7 2.5-14.8-1-17.3-8-2.5-6.9 1.1-14.6 8.1-17.1 7-2.5 14.7 1 17.3 8 2.5 6.9-1.1 14.5-8.1 17.1z"/><path class="st8" d="M29.7 80.8c-6.7 2.4-14-1-16.4-7.6-2.4-6.6 1-13.8 7.7-16.2 6.6-2.4 14 1 16.4 7.6 2.3 6.6-1.1 13.8-7.7 16.2z"/><path class="st9" d="M29.4 80.2c-6.3 2.3-13.3-.9-15.6-7.2-2.3-6.2 1-13.1 7.3-15.4 6.3-2.3 13.3.9 15.6 7.2 2.3 6.2-1 13.1-7.3 15.4z"/><path class="st10" d="M29.2 79.6c-5.9 2.1-12.5-.9-14.7-6.7-2.2-5.9.9-12.4 6.8-14.5 5.9-2.1 12.5.9 14.7 6.8 2.2 5.7-.9 12.2-6.8 14.4z"/><path class="st11" d="M29 78.9c-5.6 2-11.8-.8-13.8-6.3S16 61 21.6 59c5.6-2 11.8.8 13.8 6.4 2 5.4-.8 11.5-6.4 13.5z"/><path class="st12" d="M28.7 78.3c-5.2 1.9-11-.8-12.9-5.9-1.9-5.2.8-10.9 6-12.8 5.2-1.9 11 .8 12.9 6 2 5.1-.7 10.8-6 12.7z"/><path class="st13" d="M28.5 77.7c-4.9 1.8-10.3-.7-12-5.5-1.8-4.8.7-10.1 5.6-11.9 4.9-1.8 10.3.7 12.1 5.5 1.7 4.8-.8 10.1-5.7 11.9z"/><path class="st14" d="M28.3 77c-4.5 1.6-9.5-.7-11.2-5.1-1.6-4.5.7-9.4 5.2-11 4.5-1.6 9.5.7 11.2 5.1 1.6 4.5-.7 9.4-5.2 11z"/><path class="st15" d="M28 76.4c-4.2 1.5-8.8-.6-10.3-4.7-1.5-4.1.6-8.7 4.8-10.2s8.8.6 10.3 4.7c1.5 4.1-.6 8.7-4.8 10.2z"/><path class="st16" d="M27.8 75.8c-3.8 1.4-8-.6-9.4-4.3-1.4-3.8.6-7.9 4.4-9.3 3.8-1.4 8 .6 9.4 4.3 1.4 3.7-.6 7.9-4.4 9.3z"/><path class="st17" d="M27.6 75.1c-3.5 1.2-7.3-.5-8.5-3.9-1.3-3.4.5-7.2 4-8.4 3.5-1.2 7.3.5 8.5 3.9 1.2 3.4-.6 7.2-4 8.4z"/><path class="st18" d="M27.3 74.5c-3.1 1.1-6.5-.5-7.7-3.5-1.1-3.1.5-6.5 3.6-7.6 3.1-1.1 6.5.5 7.7 3.5 1.1 3.1-.5 6.5-3.6 7.6z"/><path class="st19" d="M27.1 73.8c-2.8 1-5.8-.4-6.8-3.1s.4-5.7 3.2-6.7c2.7-1 5.8.4 6.8 3.1 1 2.8-.5 5.8-3.2 6.7z"/><path class="st20" d="M26.9 73.2c-2.4.9-5-.4-5.9-2.7-.9-2.4.4-5 2.8-5.8 2.4-.9 5 .4 5.9 2.7.8 2.3-.4 5-2.8 5.8z"/><path class="st21" d="M26.6 72.6c-2 .7-4.3-.3-5-2.3-.7-2 .3-4.2 2.3-5 2-.7 4.3.3 5 2.3.8 2-.2 4.2-2.3 5z"/></g><g><path class="st22" d="M35 51.8c0-1 .2-1.9.4-2.7 1.8-.2 3.8-.5 5.9-1.1 3.2-.8 5.5-2.3 7.3-3.9 2 1.9 3.3 4.8 3.2 8.2-.2 5.6-4.1 10-8.7 9.9-4.6-.2-8.3-4.9-8.1-10.4zM92.8 51.8c0-1-.2-1.9-.4-2.7-1.8-.2-3.8-.5-5.9-1.1-3.2-.8-5.5-2.3-7.3-3.9-2 1.9-3.3 4.8-3.2 8.2.2 5.6 4.1 10 8.7 9.9 4.7-.2 8.3-4.9 8.1-10.4z"/></g><g><path class="st22" d="M70.4 95.3l-.8-.9c-2.8-3.1-2.5-7.9.6-10.6L114 44.9c3.1-2.8 7.9-2.5 10.6.6l.8.9c2.8 3.1 2.5 7.9-.6 10.6L81 95.9c-3.1 2.8-7.8 2.5-10.6-.6z"/><path d="M69.5 96.1l-.8-.9c-1.5-1.7-1.3-4.2.3-5.7l46.5-41.2c1.7-1.5 4.2-1.3 5.7.3l.8.9c1.5 1.7 1.3 4.2-.3 5.7L75.2 96.4c-1.6 1.5-4.2 1.4-5.7-.3z" fill="#fff"/><path d="M70.5 93c-1.3-1.5-1.2-3.8.3-5.1l33.9-30.1c1.5-1.3 3.8-1.2 5.1.3 1.3 1.5 1.2 3.8-.3 5.1L75.6 93.3c-1.5 1.4-3.8 1.2-5.1-.3z" fill="#ed6c30"/><path class="st25" d="M81.9 75.7l3.5 3.5M91.1 67.6l3.5 3.5M100.5 59.5L104 63M110.7 50l3.5 3.5"/></g><path class="st0" d="M70 81.1s9.5-1 19 6v2l-11 12-15-1 3-14 4-5z"/><path d="M44 88.5s6.2-6.4 21-6.4 22 7 22 7" fill="none" stroke="#2f2f2f" stroke-width="6" stroke-linecap="round" stroke-linejoin="round" stroke-miterlimit="10"/></svg>