<svg enable-background="new 0 0 128 128" viewBox="0 0 128 128" xmlns="http://www.w3.org/2000/svg"><path d="m112.78 89.6h-11.01v-11.31h7.55c3.55 0 6.42 2.96 6.42 6.6 0.01 0-0.36 4.71-2.96 4.71z" fill="#FFEB3B"/><g opacity=".2"><path d="m109.32 79.29c2.98 0 5.4 2.49 5.42 5.56-0.08 0.85-0.61 3.75-1.96 3.75h-10.01v-9.31h6.55m0-1h-7.55v11.31h11.01c2.6 0 2.96-4.71 2.96-4.71 0.01-3.64-2.87-6.6-6.42-6.6z" fill="#424242"/></g><circle cx="18.71" cy="109.96" r="14.04" fill="#666"/><circle cx="18.71" cy="109.96" r="6.02" fill="#999"/><circle cx="95.92" cy="109.96" r="14.04" fill="#666"/><circle cx="95.92" cy="109.96" r="6.02" fill="#999"/><g opacity=".2"><path d="m18.71 98.92c6.09 0 11.04 4.95 11.04 11.04s-4.95 11.04-11.04 11.04-11.04-4.95-11.04-11.04 4.95-11.04 11.04-11.04m0-3c-7.75 0-14.04 6.29-14.04 14.04s6.28 14.04 14.04 14.04 14.04-6.29 14.04-14.04-6.29-14.04-14.04-14.04z" fill="#424242"/></g><g opacity=".2"><path d="m95.92 98.92c6.09 0 11.04 4.95 11.04 11.04s-4.95 11.04-11.04 11.04-11.04-4.95-11.04-11.04 4.96-11.04 11.04-11.04m0-3c-7.75 0-14.04 6.29-14.04 14.04s6.29 14.04 14.04 14.04 14.04-6.29 14.04-14.04-6.28-14.04-14.04-14.04z" fill="#424242"/></g><path d="m30.02 100.63h-24.17c-1.34 0-2.19-1.6-1.55-2.91 1.81-3.73 6.31-6.06 9.11-6.06h9.39l7.22 8.97z" fill="#D32F2F"/><g opacity=".2"><path d="m21.84 93.65 4.01 4.97h-19.77c0-0.01 0.01-0.03 0.01-0.04 1.48-3.06 5.26-4.93 7.31-4.93h8.44m0.95-2h-9.39c-2.8 0-7.3 2.33-9.11 6.06-0.64 1.32 0.21 2.91 1.55 2.91h24.17l-7.22-8.97z" fill="#424242"/></g><path d="m100.37 77.74h-45.21v-8.17c0-2.37 1.99-4.24 4.31-4.02 3.77 0.36 9.94 0.79 18.13 0.79 6.39 0 11.07-0.26 14.28-0.55 3.32-0.3 6.33 1.98 7.05 5.3l1.44 6.65z" fill="#424242"/><path d="m19.03 111.3c-0.41 0-0.82-0.13-1.18-0.39-0.89-0.65-1.09-1.91-0.44-2.8l7.8-10.68c0.65-0.89 1.91-1.09 2.8-0.44s1.09 1.91 0.44 2.8l-7.8 10.68c-0.39 0.54-1 0.83-1.62 0.83z" fill="#BDBDBD"/><circle cx="24.64" cy="53.98" r="5.03" fill="#FFEB3B"/><path d="m72.86 112c-1.1 0-1.99-0.66-2-1.76s0.88-2.05 1.99-2.05l22.86-0.19h0.01c1.1 0 1.99 1.04 2 2.14s-0.88 1.85-1.99 1.86h-22.87c0.01 0 0 0 0 0z" fill="#BDBDBD"/><path d="m98.87 75.43c-2.8 0-43.72-0.22-43.72-0.22s-0.02 2.78-0.02 2.86c0.01 1.54 0.72 2.85 1.9 3.2 2.13 0.64 5.77 2.11 7.43 5 2.9 5.04-0.53 14.09-9.18 14.09-1.5 0-14.81-0.02-19.44-0.04-4.53-0.02-18.78-13.57 0.31-44.66 1.25-2.03-0.49-4.74-2.71-5.49l-7.81-2.28c-1.07-0.31-2.2 0.42-2.2 1.43v8.93c0 1.05 1.21 1.78 2.29 1.41l0.92-0.32c0.76-0.26 1.38 0.67 0.86 1.3-3.39 4.07-15.5 15.99-15.5 28.3 0.16 3.73 19.77 25.41 19.77 25.44l39.33-0.22c2.22-0.01 4.08-1.58 4.73-3.77 1.36-4.6 5.29-7.62 10.53-9.05 5.6-1.53 34.7 2.35 35.34-0.11 1.88-7.21-17.91-25.8-22.83-25.8z" fill="#F44336"/><path d="m53.04 103.67h-14.17c-1.75 0-3.17-1.42-3.17-3.17v-0.14h20.5v0.14c0.01 1.75-1.41 3.17-3.16 3.17z" fill="#424242"/><g opacity=".2"><path d="m25.42 49.46m-0.13 0.41 7.55 2.21c0.72 0.26 1.39 0.92 1.64 1.62 0.2 0.55 0.03 0.83-0.03 0.92-13.67 22.25-10.35 35.21-7.16 40.95 1.8 3.24 5.24 6.74 8.54 6.75 4.65 0.02 18.03 0.05 19.45 0.05 4.51 0 8.35-2.16 10.52-5.92 2.07-3.58 2.23-7.96 0.39-11.15-1.91-3.32-5.72-5.04-8.59-5.9-0.2-0.06-0.54-0.48-0.55-1.24 0-0.14-0.05-2.68-0.05-2.69v-5.91c0-0.69 0.47-1.18 0.71-1.4 0.42-0.4 1.01-0.63 1.56-0.63 0.06 0 0.14 0 0.21 0.01 5.49 0.53 11.59 0.8 18.11 0.8 5.48 0 10.34-0.19 14.46-0.55 0.14-0.01 0.27-0.02 0.41-0.02 2.15 0 4.04 1.58 4.51 3.75l0.98 4.54c0.15 0.7 0.66 1.26 1.34 1.48 2.36 0.76 7.87 4.88 13.02 10.46 5.08 5.5 7.33 9.73 7.5 11.91-0.55 0.08-1.54 0.15-3.25 0.15-3.26 0-7.87-0.27-12.34-0.54-4.66-0.28-9.48-0.56-13.07-0.56-2.54 0-4.24 0.14-5.34 0.44-6.2 1.7-10.44 5.4-11.92 10.42-0.41 1.39-1.54 2.33-2.82 2.34l-38.42 0.22c-14.04-15.77-18.32-22.2-18.65-23.56 0.07-9.98 9.04-20.11 13.37-24.98 0.66-0.75 1.23-1.39 1.68-1.92 0.71-0.85 0.85-2 0.39-3-0.46-0.99-1.45-1.62-2.52-1.62-0.31 0-0.62 0.05-0.91 0.15l-0.78 0.27c-0.32-0.41-0.78-0.69-1.3-0.77-1.42-0.21-2.49-1.49-2.49-2.98 0-1.47 1.01-2.72 2.41-2.97 0.62-0.11 1.17-0.54 1.44-1.13m-0.17-2.06c-0.79 0-1.5 0.51-1.66 1.22-2.3 0.41-4.06 2.46-4.06 4.94 0 2.53 1.83 4.61 4.2 4.95 0.29 0.5 0.88 0.83 1.51 0.83 0.2 0 0.4-0.03 0.59-0.1l0.92-0.32c0.09-0.03 0.18-0.05 0.26-0.05 0.63 0 1.06 0.79 0.6 1.34-3.37 4.09-15.48 16.01-15.48 28.32 0.16 3.73 19.77 25.41 19.77 25.44l39.33-0.22c2.22-0.01 4.08-1.58 4.73-3.77 1.36-4.6 5.29-7.62 10.53-9.05 0.98-0.27 2.67-0.37 4.81-0.37 6.99 0 18.7 1.1 25.41 1.1 2.97 0 4.96-0.22 5.13-0.84 1.77-6.76-15.6-23.59-21.79-25.59l-0.98-4.54c-0.67-3.13-3.38-5.32-6.47-5.32-0.19 0-0.39 0.01-0.58 0.03-3.22 0.29-7.89 0.55-14.28 0.55-8.2 0-14.14-0.43-17.91-0.79-0.13-0.01-0.32-0.02-0.45-0.02-2.18 0-4.24 1.78-4.24 4.03v5.91s0.05 2.62 0.05 2.69c0.01 1.54 0.76 2.8 1.94 3.15 2.13 0.64 5.79 2.09 7.45 4.98 2.9 5.04-0.52 14.08-9.17 14.08-1.5 0-14.81-0.02-19.43-0.05-4.53-0.02-18.78-13.58 0.31-44.67 1.25-2.03-0.49-4.74-2.71-5.49l-7.81-2.28c-0.18-0.06-0.35-0.09-0.52-0.09z" fill="#424242"/></g><radialGradient id="a" cx="87.75" cy="82.25" r="26.14" gradientUnits="userSpaceOnUse"><stop stop-color="#F44336" offset=".1753"/><stop stop-color="#D32F2F" offset="1"/></radialGradient><path d="m119.37 94.91c-3.05-3.77-23.75-25.35-43.26-13-9.52 6.03-7.46 17.84-5.77 21.27 0.94 1.89 3.71 3.58 5.8 3.53 0 0 33.46-0.13 36.66-0.42 3.96-0.35 5.91-1.08 7.24-2.6 0.96-1.07 2.38-5.01-0.67-8.78z" fill="url(#a)"/><path d="m42.61 56.93h-8.19c-1.1 0-2-0.9-2-2v-0.06c0-1.1 0.9-2 2-2h8.19c1.1 0 2 0.9 2 2v0.06c0 1.1-0.9 2-2 2z" fill="#424242"/><path d="m28.2 52.87c-0.52-0.2-0.78-0.79-0.58-1.31l4.95-12.83c0.12-0.3 0.37-0.53 0.69-0.62l7.72-2.06c0.54-0.15 1.1 0.18 1.24 0.72s-0.18 1.1-0.72 1.24l-7.22 1.93-4.77 12.34c-0.2 0.53-0.79 0.79-1.31 0.59z" fill="#BDBDBD"/><ellipse transform="matrix(.1409 -.99 .99 .1409 -.0657 72.671)" cx="41.84" cy="36.37" rx="4.76" ry="1.66" fill="#424242"/><g opacity=".2"><path d="m88.87 80.14c15.54 0 28.82 15.87 28.95 16.03 2.42 2.99 1.08 5.81 0.73 6.21-0.8 0.92-2.12 1.59-5.92 1.93-2.46 0.22-24.94 0.36-36.49 0.41h-0.07c-1.33 0-3.35-1.24-3.93-2.42-1.5-3.03-3.16-13.5 5.04-18.7 3.64-2.3 7.57-3.46 11.69-3.46m0-2c-4.18 0-8.49 1.08-12.75 3.78-9.52 6.03-7.46 17.84-5.77 21.27 0.92 1.87 3.64 3.53 5.72 3.53h0.08s33.46-0.13 36.66-0.42c3.96-0.35 5.91-1.08 7.24-2.6 0.95-1.08 2.37-5.01-0.68-8.79-2.39-2.95-15.55-16.77-30.5-16.77z" fill="#424242"/></g><path d="m116.02 103.22h6.18c0.98 0 1.78-0.8 1.78-1.78v-3.34c0-0.98-0.8-1.78-1.78-1.78h-6.18c-0.98 0-1.78 0.8-1.78 1.78v3.35c0.01 0.98 0.8 1.77 1.78 1.77z" fill="#FFEB3B"/><g opacity=".2"><path d="m122.2 97.32c0.43 0 0.78 0.35 0.78 0.78v3.34c0 0.43-0.35 0.78-0.78 0.78h-6.18c-0.43 0-0.78-0.35-0.78-0.78v-3.35c0-0.43 0.35-0.78 0.78-0.78h6.18m0-0.99h-6.18c-0.98 0-1.78 0.8-1.78 1.78v3.35c0 0.98 0.8 1.78 1.78 1.78h6.18c0.98 0 1.78-0.8 1.78-1.78v-3.35c0-0.98-0.8-1.78-1.78-1.78z" fill="#424242"/></g></svg>
