<svg enable-background="new 0 0 128 128" viewBox="0 0 128 128" xmlns="http://www.w3.org/2000/svg"><path d="m71.43 124.17h-14.66c-2.17 0-3.62-2.23-2.75-4.21l4.88-11.09c0.48-1.09 1.56-1.79 2.75-1.79h4.87c1.19 0 2.26 0.7 2.74 1.78l4.91 11.09c0.88 1.98-0.57 4.22-2.74 4.22z" fill="#6D4C41"/><g opacity=".2"><path d="m66.52 110.08 4.91 11.09h-14.67l4.88-11.09h4.88m1.95-3h-8.78l-5.67 12.88c-0.87 1.98 0.58 4.21 2.75 4.21h14.67c2.17 0 3.62-2.23 2.74-4.22l-5.71-12.87z" fill="#424242"/></g><path d="m64.09 116.01c-54.67 0-52.56-8.29-51.46-9.83 8.03-6.55 14.73-14.58 19.74-23.66l0.53-0.96c0.44-0.62 1.15-0.98 1.91-0.98l59.52 0.11c0.76 0 1.48 0.38 1.91 1.01 4.88 9.38 11.56 17.7 19.66 24.5l0.01 0.01c1.05 1.54 2.85 9.8-51.82 9.8z" fill="#2E7D32"/><path d="m64 90.29c-45.1 0-44.84-7.77-43.74-9.31 8.59-7.36 15.95-16.04 21.81-25.71l3.22-5.32c0.43-0.61 1.13-0.97 1.88-0.98l33.81-0.21c0.76 0 1.47 0.36 1.91 0.97l3.24 5.31c5.94 9.75 13.38 18.5 22.05 25.93 1.09 1.55 0.92 9.32-44.18 9.32z" fill="#388E3C"/><path d="m63.9 65.9c-36.92 0-36.65-6.78-35.27-8.43 8.51-5.54 15.81-12.64 21.5-20.89l1.23-1.78c0.49-0.59 1.23-0.93 2.02-0.93h21.6c0.78 0 1.52 0.34 2.02 0.93l0.81 1.2c5.77 8.47 13.19 15.77 21.85 21.48 1.38 1.64 1.15 8.42-35.76 8.42z" fill="#43A047"/><path d="m64.04 44.14c-25.64 0-28.72-5.03-27.33-6.6 9.13-5.71 16.88-12.83 22.82-20.99l2.45-3.36c1.13-1.27 3.39-1.27 4.53 0l1.22 1.7c6.29 8.76 14.49 16.45 24.16 22.65 1.39 1.57-2.21 6.6-27.85 6.6z" fill="#4CAF50"/><g opacity=".2"><path d="m64.24 15.24h0.04l1 1.4c5.97 8.32 13.5 15.62 22.41 21.72-1.04 0.44-2.69 0.98-5.25 1.46-1.05 0.2-1.92 0.94-2.27 1.95-0.36 1.01-0.15 2.13 0.55 2.95 4.58 5.37 9.83 10.12 15.61 14.14-0.78 0.49-2.28 1.18-5.09 1.86-0.98 0.24-1.78 0.95-2.12 1.9s-0.18 2.01 0.42 2.81c4.57 6.1 9.72 11.7 15.35 16.68-0.77 0.57-2.48 1.48-6.1 2.39-0.93 0.23-1.7 0.9-2.05 1.79-0.36 0.89-0.27 1.9 0.25 2.72 4.36 6.93 9.66 13.13 15.77 18.47-1.97 1.47-10.84 5.53-48.68 5.53-37.65 0-46.43-4.04-48.38-5.49 6.2-5.25 11.62-11.4 16.1-18.3 0.53-0.82 0.63-1.84 0.27-2.75s-1.14-1.58-2.09-1.81c-3.96-0.94-5.76-1.92-6.53-2.5 5.61-4.97 10.76-10.57 15.3-16.66 0.6-0.81 0.76-1.87 0.41-2.82s-1.15-1.66-2.13-1.89c-2.89-0.68-4.4-1.39-5.17-1.88 5.87-4.02 11.16-8.78 15.77-14.18 0.69-0.81 0.9-1.94 0.55-2.94-0.36-1.01-1.22-1.75-2.27-1.95-2.47-0.47-4.06-0.98-5.07-1.41 8.38-5.63 15.47-12.38 21.11-20.12l2.24-3.08c0.02 0.01 0.04 0.01 0.05 0.01m0-3c-0.85 0-1.7 0.32-2.26 0.95l-2.45 3.36c-5.95 8.16-13.69 15.29-22.82 20.99-0.93 1.05 0.15 3.65 8.65 5.25-4.81 5.63-10.44 10.58-16.72 14.68-0.87 1.03-1.29 4.11 7.72 6.24-4.71 6.32-10.1 12.12-16.1 17.27-0.67 0.94-1.03 4.2 9.05 6.6-4.56 7.01-10.17 13.3-16.68 18.6-1.09 1.54-3.2 9.83 51.46 9.83 54.67 0 52.87-8.26 51.8-9.81l-0.01-0.01c-6.41-5.38-11.91-11.73-16.35-18.79 9.5-2.38 9.29-5.51 8.64-6.43-6.03-5.18-11.46-11-16.21-17.35 8.79-2.13 8.56-5.13 7.7-6.15-6.26-4.12-11.85-9.08-16.66-14.7 8.52-1.61 9.81-4.18 8.88-5.23-9.67-6.2-17.87-13.89-24.16-22.65l-1.22-1.7c-0.56-0.64-1.41-0.95-2.26-0.95z" fill="#424242"/></g><path d="m65.37 5.12 2.21 4.48c0.19 0.39 0.56 0.66 0.99 0.72l4.95 0.72c1.08 0.16 1.51 1.49 0.73 2.25l-3.58 3.49c-0.31 0.3-0.45 0.74-0.38 1.17l0.85 4.93c0.18 1.08-0.95 1.9-1.91 1.39l-4.43-2.33c-0.38-0.2-0.84-0.2-1.23 0l-4.43 2.33c-0.97 0.51-2.1-0.31-1.91-1.39l0.85-4.93c0.07-0.43-0.07-0.86-0.38-1.17l-3.58-3.49c-0.78-0.76-0.35-2.09 0.73-2.25l4.95-0.72c0.43-0.06 0.8-0.33 0.99-0.72l2.21-4.48c0.49-0.98 1.89-0.98 2.37 0z" fill="#FFEB3B"/><g opacity=".2"><path d="m64.19 7.24 1.6 3.24c0.48 0.98 1.42 1.66 2.5 1.81l3.58 0.52-2.59 2.52c-0.78 0.76-1.14 1.86-0.95 2.94l0.61 3.57-3.2-1.68c-0.47-0.25-1.01-0.38-1.54-0.38-0.54 0-1.07 0.13-1.54 0.38l-3.2 1.68 0.61-3.57c0.18-1.08-0.17-2.17-0.95-2.94l-2.59-2.52 3.58-0.52c1.08-0.16 2.01-0.84 2.5-1.81l1.58-3.24m0-2.86c-0.47 0-0.94 0.24-1.18 0.73l-2.21 4.49c-0.19 0.39-0.56 0.66-0.99 0.72l-4.95 0.72c-1.08 0.16-1.51 1.49-0.73 2.25l3.58 3.49c0.31 0.3 0.45 0.74 0.38 1.17l-0.85 4.93c-0.15 0.85 0.53 1.54 1.3 1.54 0.2 0 0.41-0.05 0.61-0.15l4.43-2.33c0.19-0.1 0.4-0.15 0.61-0.15s0.42 0.05 0.61 0.15l4.43 2.33c0.2 0.11 0.41 0.15 0.61 0.15 0.77 0 1.44-0.69 1.3-1.54l-0.85-4.93c-0.07-0.43 0.07-0.86 0.38-1.17l3.58-3.49c0.78-0.76 0.35-2.09-0.73-2.25l-4.95-0.72c-0.43-0.06-0.8-0.33-0.99-0.72l-2.21-4.48c-0.24-0.49-0.71-0.74-1.18-0.74z" fill="#424242"/></g><circle cx="85.42" cy="76.08" r="5" fill="#F44336"/><g opacity=".2"><path d="m85.42 73.08c1.65 0 3 1.35 3 3s-1.35 3-3 3-3-1.35-3-3 1.34-3 3-3m0-2c-2.76 0-5 2.24-5 5s2.24 5 5 5 5-2.24 5-5-2.24-5-5-5z" fill="#424242"/></g><circle cx="45.42" cy="76.08" r="5" fill="#F44336"/><g opacity=".2"><path d="m45.42 73.08c1.65 0 3 1.35 3 3s-1.35 3-3 3-3-1.35-3-3 1.34-3 3-3m0-2c-2.76 0-5 2.24-5 5s2.24 5 5 5 5-2.24 5-5-2.24-5-5-5z" fill="#424242"/></g><circle cx="53.42" cy="99.08" r="5" fill="#F44336"/><g opacity=".2"><path d="m53.42 96.08c1.65 0 3 1.35 3 3s-1.35 3-3 3-3-1.35-3-3 1.34-3 3-3m0-2c-2.76 0-5 2.24-5 5s2.24 5 5 5 5-2.24 5-5-2.24-5-5-5z" fill="#424242"/></g><circle cx="62.42" cy="53.08" r="5" fill="#F44336"/><g opacity=".2"><path d="m62.42 50.08c1.65 0 3 1.35 3 3s-1.35 3-3 3-3-1.35-3-3 1.34-3 3-3m0-2c-2.76 0-5 2.24-5 5s2.24 5 5 5 5-2.24 5-5-2.24-5-5-5z" fill="#424242"/></g><circle cx="71.42" cy="35.08" r="4" fill="#F44336"/><g opacity=".2"><path d="m71.42 33.08c1.1 0 2 0.9 2 2s-0.9 2-2 2-2-0.9-2-2 0.89-2 2-2m0-2c-2.21 0-4 1.79-4 4s1.79 4 4 4 4-1.79 4-4-1.79-4-4-4z" fill="#424242"/></g><circle cx="74.42" cy="105.08" r="4" fill="#F44336"/><g opacity=".2"><path d="m74.42 103.08c1.1 0 2 0.9 2 2s-0.9 2-2 2-2-0.9-2-2 0.89-2 2-2m0-2c-2.21 0-4 1.79-4 4s1.79 4 4 4 4-1.79 4-4-1.79-4-4-4z" fill="#424242"/></g><circle cx="47.42" cy="58.08" r="4" fill="#FFEE58"/><g opacity=".2"><path d="m47.42 56.08c1.1 0 2 0.9 2 2s-0.9 2-2 2-2-0.9-2-2 0.89-2 2-2m0-2c-2.21 0-4 1.79-4 4s1.79 4 4 4 4-1.79 4-4-1.79-4-4-4z" fill="#424242"/></g><circle cx="66.42" cy="82.08" r="4" fill="#FFEB3B"/><g opacity=".2"><path d="m66.42 80.08c1.1 0 2 0.9 2 2s-0.9 2-2 2-2-0.9-2-2 0.89-2 2-2m0-2c-2.21 0-4 1.79-4 4s1.79 4 4 4 4-1.79 4-4-1.79-4-4-4z" fill="#424242"/></g><circle cx="91.42" cy="97.08" r="4" fill="#FFEB3B"/><g opacity=".2"><path d="m91.42 95.08c1.1 0 2 0.9 2 2s-0.9 2-2 2-2-0.9-2-2 0.89-2 2-2m0-2c-2.21 0-4 1.79-4 4s1.79 4 4 4 4-1.79 4-4-1.79-4-4-4z" fill="#424242"/></g><circle cx="34.42" cy="103.08" r="4" fill="#FFEB3B"/><g opacity=".2"><path d="m34.42 101.08c1.1 0 2 0.9 2 2s-0.9 2-2 2-2-0.9-2-2 0.89-2 2-2m0-2c-2.21 0-4 1.79-4 4s1.79 4 4 4 4-1.79 4-4-1.79-4-4-4z" fill="#424242"/></g><circle cx="80.42" cy="58.08" r="4" fill="#FFEE58"/><g opacity=".2"><path d="m80.42 56.08c1.1 0 2 0.9 2 2s-0.9 2-2 2-2-0.9-2-2 0.89-2 2-2m0-2c-2.21 0-4 1.79-4 4s1.79 4 4 4 4-1.79 4-4-1.79-4-4-4z" fill="#424242"/></g><circle cx="56.42" cy="36.08" r="4" fill="#FFEE58"/><g opacity=".2"><path d="m56.42 34.08c1.1 0 2 0.9 2 2s-0.9 2-2 2-2-0.9-2-2 0.89-2 2-2m0-2c-2.21 0-4 1.79-4 4s1.79 4 4 4 4-1.79 4-4-1.79-4-4-4z" fill="#424242"/></g></svg>
