<?xml version="1.0" encoding="utf-8"?>
<!-- Generator: Adobe Illustrator 24.0.3, SVG Export Plug-In . SVG Version: 6.00 Build 0)  -->
<svg version="1.1" id="Layer_1" xmlns="http://www.w3.org/2000/svg" xmlns:xlink="http://www.w3.org/1999/xlink" x="0px" y="0px"
	 viewBox="0 0 128 128" style="enable-background:new 0 0 128 128;" xml:space="preserve">
<path style="fill:#B0BEC5;" d="M120.9,61.5c2.1-2.7,1.6-6.7-1.2-8.7l-8.2-5.9c-1.8-1.3-2.7-3.4-2.5-5.5v-0.1H19v0.1
	c0.2,2.2-0.8,4.2-2.5,5.5l-8.2,5.9c-2.8,2-3.4,6-1.2,8.7l6.2,8c1.3,1.7,1.6,4,0.9,6l-3.7,9.4c-1.3,3.2,0.4,6.9,3.7,8l9.5,3.4
	c2,0.7,3.5,2.5,4,4.6l2,9.9c0.7,3.4,4,5.6,7.4,4.8l9.8-2.3c2.1-0.5,4.3,0.2,5.8,1.7l7,7.2c2.4,2.5,6.4,2.5,8.8,0l7-7.2
	c1.5-1.6,3.7-2.2,5.8-1.7l9.8,2.3c3.4,0.8,6.7-1.4,7.4-4.8l2-9.9c0.4-2.1,1.9-3.8,4-4.6l9.5-3.4c3.3-1.2,4.9-4.8,3.7-8l-3.7-9.4
	c-0.8-2-0.5-4.3,0.9-6L120.9,61.5L120.9,61.5z"/>
<rect x="5.8" y="52" style="fill:#B0BEC5;" width="3.1" height="6"/>
<rect x="119.1" y="52" style="fill:#B0BEC5;" width="3.1" height="6"/>
<rect x="10" y="80" style="fill:#B0BEC5;" width="3.1" height="7.5"/>
<rect x="114.8" y="79.6" style="fill:#B0BEC5;" width="3.1" height="7.8"/>
<path style="fill:none;" d="M114.8,69.5c-1.3,1.7-1.6,4-0.9,6l3.7,9.4c1.3,3.2-0.4,6.9-3.7,8l-9.5,3.4c-2,0.7-3.5,2.5-4,4.6l-2,9.9
	c-0.7,3.4-4,5.6-7.4,4.8l-9.8-2.3c-2.1-0.5-4.3,0.1-5.8,1.7l-7,7.2c-2.4,2.5-6.4,2.5-8.8,0l-7-7.2c-0.8-0.9-1.9-1.4-3-1.7
	c-0.9-0.2-1.9-0.2-2.8,0l-9.8,2.3c-1.2,0.3-2.4,0.2-3.4-0.2c-2-0.7-3.5-2.4-4-4.6l-2-9.9c-0.4-2.1-1.9-3.8-4-4.6l-9.5-3.4
	c-3.3-1.2-4.9-4.8-3.7-8l3.7-9.4c0.8-2,0.5-4.3-0.9-6l-6.2-8c-2.1-2.7-1.6-6.7,1.2-8.7l8.2-5.9c1.7-1.3,2.7-3.3,2.5-5.5v-0.1h90v0.1
	c-0.2,2.1,0.8,4.2,2.5,5.5l8.2,5.9c2.8,2,3.4,6,1.2,8.7L114.8,69.5z"/>
<path style="fill:#90A4AE;" d="M49.6,97v16.2c-0.9-0.2-1.9-0.2-2.8,0l-9.8,2.3c-1.2,0.3-2.4,0.2-3.4-0.2V97H49.6z"/>
<path style="fill:#90A4AE;" d="M27.8,76v26.1l-0.3-1.3c-0.4-2.1-1.9-3.8-4-4.6L14,92.8c-3.3-1.2-4.9-4.8-3.7-8l3.5-8.8
	C13.8,76,27.8,76,27.8,76z"/>
<path style="fill:#90A4AE;" d="M78.5,98.6v14.6c-1.2,0.2-2.2,0.8-3.1,1.7l-7,7.2c-1,1.1-2.3,1.7-3.7,1.8V98.6H78.5z"/>
<path style="fill:#90A4AE;" d="M121.9,56v3.6c-0.2,0.7-0.5,1.4-1,2l-6.1,8c-0.6,0.8-1,1.7-1.2,2.7h-9.2V44.2h5c0.4,1,1.1,2,2.1,2.6
	l8.2,5.9C120.8,53.6,121.5,54.7,121.9,56z"/>
<path style="fill:#78909C;" d="M101.3,83.7v15c-0.4,0.6-0.7,1.4-0.9,2.2l-2,9.9c-0.4,2.1-1.8,3.7-3.6,4.4V83.7H101.3z"/>
<path style="fill:#90A4AE;" d="M113.9,92.9l-9.5,3.4c-1.2,0.4-2.3,1.3-3,2.3V82.5h15.2l0.9,2.4C118.8,88.1,117.2,91.7,113.9,92.9z"
	/>
<g style="opacity:0.2;">
	<path style="fill:#434343;" d="M107.1,43.3c0.4,2.1,1.5,4,3.2,5.2l7.6,5.5c0.3,0.2,0.8,0.4,1.2,0.4c0.3,0,0.6-0.1,0.9-0.2
		c0.1,0,0.1,0,0.2-0.1v3.7v0.1c0,0.9-0.3,1.7-0.9,2.4l-6.2,8c-1.7,2.2-2.2,5.3-1.1,7.9l1.6,4.1c0.3,0.8,1,1.3,1.9,1.3h0.4v4.6
		c0,0.1,0,0.2,0,0.3c0.3,1.9-0.8,3.8-2.7,4.5l-9.5,3.4c-2.7,0.9-4.7,3.3-5.2,6.1l-2,9.9c-0.4,1.9-2.1,3.3-4.1,3.3
		c-0.3,0-0.6,0-0.9-0.1l-9.8-2.3c-0.6-0.1-1.2-0.2-1.8-0.2c-2.2,0-4.3,0.9-5.8,2.5l-7,7.2c-0.8,0.8-1.8,1.3-3,1.3s-2.2-0.4-3-1.3
		l-7-7.2c-1.5-1.6-3.7-2.5-5.8-2.5c-0.6,0-1.2,0.1-1.8,0.2l-9.8,2.3c-0.3,0.1-0.6,0.1-1,0.1c-2,0-3.7-1.4-4-3.3l-2-9.9
		c-0.6-2.8-2.6-5.1-5.2-6.1L14.8,91c-1.6-0.6-2.6-2-2.7-3.7v-0.1V82h0.3c0.8,0,1.6-0.5,1.9-1.3l1.8-4.5c1-2.7,0.6-5.7-1.1-7.9
		l-6.2-8c-0.5-0.7-0.8-1.5-0.9-2.4v-0.1v-3.7c0.1,0,0.1,0.1,0.2,0.1c0.3,0.2,0.6,0.2,0.9,0.2c0.4,0,0.8-0.1,1.2-0.4l7.6-5.5
		c1.7-1.3,2.9-3.2,3.2-5.2L107.1,43.3 M109,41.3H19v0.1c0.2,2.2-0.8,4.2-2.5,5.5l-7.6,5.5V52H5.8v6l0,0c0,1.2,0.4,2.5,1.3,3.6l6.2,8
		c1.3,1.7,1.6,4,0.9,6L12.3,80H10v7.3v0.1v0.1l0,0c0.1,2.4,1.7,4.6,4.1,5.4l9.5,3.4c2,0.7,3.5,2.5,4,4.6l2,9.9
		c0.6,2.9,3.2,4.9,6,4.9c0.5,0,0.9-0.1,1.4-0.2l9.8-2.3c0.5-0.1,0.9-0.2,1.4-0.2c1.6,0,3.2,0.7,4.4,1.9l7,7.2
		c1.2,1.2,2.8,1.9,4.4,1.9s3.2-0.6,4.4-1.9l7-7.2c1.2-1.2,2.8-1.9,4.4-1.9c0.5,0,0.9,0.1,1.4,0.2l9.8,2.3c0.5,0.1,0.9,0.2,1.4,0.2
		c2.9,0,5.4-2,6-4.9l2-9.9c0.4-2.1,1.9-3.8,4-4.6l9.5-3.4c2.8-1,4.4-3.8,4-6.7v-6.6h-2.4l-1.6-4.1c-0.8-2-0.5-4.3,0.9-6l6.2-8
		c0.8-1.1,1.2-2.3,1.3-3.6l0,0v-6h-3.1v0.4l-7.6-5.5c-1.8-1.3-2.7-3.4-2.5-5.5L109,41.3L109,41.3z"/>
</g>
<linearGradient id="SVGID_1_" gradientUnits="userSpaceOnUse" x1="29.8693" y1="736.3249" x2="105.1163" y2="811.5689" gradientTransform="matrix(1 0 0 1 0 -712.6141)">
	<stop  offset="0.2342" style="stop-color:#F5F5F5"/>
	<stop  offset="0.8157" style="stop-color:#E0E0E0"/>
</linearGradient>
<path style="fill:url(#SVGID_1_);" d="M67,9.6l8.8-4.8c3-1.7,6.8-0.6,8.5,2.4l4.7,8.6c1,1.9,2.9,3.1,5.1,3.2l10.1,0.5
	c3.5,0.2,6.1,3.1,5.8,6.5l-0.9,9.7c-0.2,2.1,0.8,4.1,2.5,5.3l8.2,5.7c2.8,2,3.4,5.8,1.2,8.5l-6.2,7.7c-1.3,1.7-1.7,3.9-0.9,5.8
	l3.7,9.1c1.3,3.1-0.4,6.7-3.7,7.8l-9.5,3.3c-2,0.7-3.5,2.4-4,4.4l-2,9.6c-0.7,3.3-4,5.4-7.4,4.6l-9.8-2.2c-2.1-0.5-4.3,0.2-5.8,1.7
	l-7,7c-2.4,2.4-6.4,2.4-8.8,0l-7-7c-1.5-1.5-3.7-2.1-5.8-1.7l-9.8,2.2c-3.4,0.8-6.7-1.3-7.4-4.6l-2-9.6c-0.4-2.1-1.9-3.7-4-4.4
	l-9.5-3.3c-3.3-1.1-4.9-4.7-3.7-7.8l3.7-9.1c0.8-1.9,0.5-4.2-0.9-5.8L7,55.2c-2.1-2.7-1.6-6.5,1.2-8.5l8.2-5.7
	c1.8-1.2,2.7-3.3,2.5-5.3L18.1,26c-0.3-3.4,2.3-6.3,5.8-6.5L34,19c2.2-0.1,4.1-1.3,5.1-3.2l4.7-8.6c1.6-3,5.4-4.1,8.5-2.4L61,9.6
	C62.9,10.6,65.2,10.6,67,9.6z"/>
<linearGradient id="SVGID_2_" gradientUnits="userSpaceOnUse" x1="50.6193" y1="754.8699" x2="102.9223" y2="826.3199" gradientTransform="matrix(1 0 0 1 0 -712.6141)">
	<stop  offset="0.2081" style="stop-color:#F48FB1"/>
	<stop  offset="1" style="stop-color:#EC407A"/>
</linearGradient>
<path style="fill:url(#SVGID_2_);" d="M67.9,63.4c-2.3,1.2-5.1,1.4-8.4-1.2c-1.4-1.1-2.3-4.3-2-7.2c0.6-5.6,6.5-12.2,14.2-12.2
	c9.7,0,17.2,4.6,19.4,13.4c2.1,8.3-1.1,16.7-7.8,22c-6.4,5.1-16.7,6.3-25,4.2C51,80.7,46.8,78,41.8,71.6c-7.7-9.9-5.5-29.9,6.4-37.8
	c6.4-4.2,12.9-6.3,18.2-7.3c1.5-0.3,1.3-2.6-0.2-2.5c-6.2,0-14.1,1.4-22.3,6.3c-16.8,9.9-19.3,32.2-8.3,48.1
	C48,96.3,79.4,96.9,93,79.6c7-8.8,8.6-24.7,1.7-33.8c-8.1-10.9-24.6-14.9-35.7-9c-10,5.3-13.6,16.5-10.7,24.1
	c4.4,11.3,13.5,13.3,21.1,12.4c16.4-1.9,17.3-24.2,4.8-22c-3,0.5-3.9,3.2-3.6,5.2C71.1,59.2,70.2,62.1,67.9,63.4L67.9,63.4z"/>
<g style="opacity:0.2;">
	<path style="fill:#434343;" d="M78.8,7c1.2,0,2.3,0.6,2.8,1.6l4.7,8.7c1.5,2.8,4.4,4.6,7.6,4.7l10.1,0.5c0.9,0,1.7,0.4,2.2,1.1
		c0.5,0.6,0.8,1.4,0.7,2.1l-0.9,9.7c-0.3,3.1,1.2,6.2,3.8,8.1l8.2,5.7c0.7,0.5,1.1,1.2,1.2,2s-0.1,1.5-0.6,2.2l-6.2,7.7
		c-2,2.5-2.5,5.9-1.3,8.8l3.7,9.1c0.3,0.7,0.3,1.5-0.1,2.2c-0.3,0.8-1,1.3-1.8,1.6l-9.5,3.3c-3,1-5.3,3.6-5.9,6.7l-2,9.6
		c-0.3,1.4-1.6,2.4-3.1,2.4c-0.2,0-0.5,0-0.7-0.1l-9.8-2.2c-0.7-0.2-1.4-0.2-2.1-0.2c-2.4,0-4.8,1-6.5,2.7l-7,7
		c-0.6,0.6-1.4,0.9-2.3,0.9s-1.7-0.3-2.3-0.9l-7-7c-1.7-1.7-4.1-2.7-6.5-2.7c-0.7,0-1.4,0.1-2.1,0.2l-9.8,2.2
		c-0.2,0.1-0.5,0.1-0.7,0.1c-1.5,0-2.8-1-3.1-2.4l-2-9.6c-0.6-3.1-2.9-5.6-5.9-6.7l-9.5-3.3c-0.8-0.3-1.5-0.9-1.8-1.6
		S13,79.7,13.2,79l3.7-9.1c1.2-2.9,0.7-6.3-1.3-8.8l-6.2-7.7c-0.5-0.6-0.7-1.4-0.6-2.2c0.1-0.8,0.6-1.5,1.2-2l8.2-5.7
		c2.6-1.8,4.1-4.9,3.8-8.1l-0.9-9.7c-0.1-0.8,0.2-1.5,0.7-2.1c0.6-0.6,1.4-1,2.2-1.1L34.1,22c3.2-0.2,6.1-2,7.6-4.7l4.7-8.6
		C46.9,7.6,48,7,49.2,7c0.6,0,1.1,0.1,1.6,0.4l8.8,4.8c1.4,0.8,2.9,1.1,4.5,1.1s3.1-0.4,4.5-1.1l8.8-4.8C77.7,7.1,78.3,7,78.8,7
		 M78.8,4c-1,0-2.1,0.2-3,0.8L67,9.6c-0.9,0.5-2,0.8-3,0.8s-2.1-0.3-3-0.8l-8.8-4.8c-0.9-0.5-2-0.8-3-0.8c-2.2,0-4.3,1.2-5.4,3.2
		l-4.7,8.7c-1,1.9-2.9,3.1-5.1,3.2l-10.1,0.5c-3.5,0.2-6.1,3.1-5.8,6.5l0.9,9.7c0.2,2.1-0.8,4.1-2.5,5.3l-8.2,5.7
		c-2.8,2-3.4,5.8-1.2,8.5l6.2,7.7c1.3,1.7,1.6,3.9,0.9,5.8L10.4,78c-1.3,3.1,0.4,6.7,3.7,7.8l9.5,3.3c2,0.7,3.5,2.4,4,4.4l2,9.6
		c0.6,2.8,3.2,4.8,6,4.8c0.5,0,0.9-0.1,1.4-0.2l9.8-2.2c0.5-0.1,0.9-0.2,1.4-0.2c1.6,0,3.2,0.6,4.4,1.8l7,7c1.2,1.2,2.8,1.8,4.4,1.8
		s3.2-0.6,4.4-1.8l7-7c1.2-1.2,2.8-1.8,4.4-1.8c0.5,0,0.9,0.1,1.4,0.2l9.8,2.2c0.5,0.1,0.9,0.2,1.4,0.2c2.9,0,5.4-1.9,6-4.8l2-9.6
		c0.4-2.1,1.9-3.7,4-4.4l9.5-3.3c3.3-1.1,4.9-4.7,3.7-7.8l-3.7-9.1c-0.8-1.9-0.5-4.2,0.9-5.8l6.2-7.7c2.1-2.7,1.6-6.5-1.2-8.5
		l-8.2-5.7c-1.8-1.2-2.7-3.3-2.5-5.3l0.9-9.7c0.3-3.4-2.3-6.3-5.8-6.5L94,19c-2.2-0.1-4.1-1.3-5.1-3.2l-4.7-8.6
		C83.2,5.2,81,4,78.8,4z"/>
</g>
</svg>
