<?xml version="1.0" encoding="utf-8"?>
<!-- Generator: Adobe Illustrator 19.2.1, SVG Export Plug-In . SVG Version: 6.00 Build 0)  -->
<svg version="1.1" xmlns="http://www.w3.org/2000/svg" xmlns:xlink="http://www.w3.org/1999/xlink" x="0px" y="0px"
	 viewBox="0 0 128 128" style="enable-background:new 0 0 128 128;" xml:space="preserve">
<g id="Layer_1">
	<path style="display:none;fill:#E39E49;" d="M-1171.7,65.14c0,0,9.08-0.67,16.3,0.96l-0.12-3.1c0,0-6.36-1.17-13.24-0.79
		c-2.31,0.13-5.39,0.04-7.58,0.58c-3.73,0.91-7.12,2.58-9.26,4.71l-3.59-8.76c0,0-2.76,1.94-3.14,2.33
		c-0.48,0.48-1.18,0.22-1.18,0.22c-0.03,0-0.03,0.03-0.04,0.06c0.7,0.51,1.37,1.14,1.97,2c1.09,1.55,2.7,3.92,4.34,6.34
		c-0.13,0.26-0.28,0.52-0.37,0.79c0,0-2.21,5.66,2.75,9.71c0,0,1.55,1.49,5.83,1.63c2.2,3.95-0.76,6.59-0.76,6.59
		c-4.16,3.61-9.08-0.39-9.08-0.39c-0.95-0.57-4.31-4.34-5.67-5.9l-5.96-7.22c0,0,0.19,0.93-0.19,1.32
		c-0.48,0.48-1.18,0.22-1.18,0.22c-0.02,0-0.02,0.03-0.03,0.04c0.46,0.36,0.93,0.77,1.38,1.28c2.15,2.41,4.7,5.61,6.65,8.14
		l-0.01-0.03l0.93,1.23c3.47,4.37,3.18,5.78,3.18,5.78c0.14,3.69-3.93,4.96-3.93,4.96c-3.8,1.39-7.62-2.23-7.62-2.23
		c-1.29-1.2-6.24-6.2-6.24-6.2l3.31,6.1c3.03,3.5,5.79,4.41,5.79,4.41c5.79,2.12,9.63-2.14,9.63-2.14c1.4-1.67,1.41-3.46,1.41-3.46
		c0.03-1.06-0.23-2.09-0.64-3.06c5.56,2.93,9.77-0.44,9.77-0.44c3.51-3.15,2.59-7.24,1.91-9.08c0.61-0.05,1.25-0.12,1.95-0.23
		c3.47-0.53,5.64-0.87,7.86-0.78c0,0,6.12,0.22,7.5,3.87c0,0,0.48,1.69-0.04,3.99c0,0-0.11,1.81,1.04,1.91
		c0.6,0.05,1.86-0.64,2.48-1.6c0,0,0.78-1.01,0.67-3.07c0,0,0.19-3.18-3.4-5.57c0,0-2.5-1.82-5.56-2.1
		c-3.26-0.31-4.43-0.5-9.53,0.24c0,0-5.44,0.96-9.26-0.56c0,0-3.22-1.45-2.05-5.45C-1184.69,72.38-1182.99,66.25-1171.7,65.14z"/>
</g>
<g id="Layer_4">
</g>
<g id="Layer_3">
</g>
<g id="Layer_2">
	<g>
		<g>
			<polygon id="XMLID_503_" style="fill:#70534A;" points="27.26,77.96 35.72,85.19 42.01,79.41 27.32,62.89 			"/>
			<path id="XMLID_502_" style="fill:#70534A;" d="M17.72,72.58L33.3,82.66l6.66-10.12c3.1-4.7,1.63-11.04-3.22-13.9l-5.88-3.47
				c-5.43-3.21-12.45-1.02-15.1,4.7l-1.05,2.27C12.97,65.89,14.25,70.33,17.72,72.58z"/>
			<path id="XMLID_501_" style="fill:#211E1E;" d="M28.06,79.78l2.23-5.3l-3.17-2.41c-1.07-0.81-1.6-2.14-1.4-3.47l0,0l4.4,1.25
				c0.52-1.23,0.36-2.64-0.43-3.72l-1.55-2.16c-0.67-0.93-0.85-2.14-0.48-3.23l2.09-6.15c0,0-7.39-4.72-12.98,1.97
				c-0.97,1.16-1.85,2.34-2.64,3.52c-3.7,5.45-1.7,12.91,4.22,15.8l0,0C21.48,77.43,24.73,78.73,28.06,79.78L28.06,79.78z"/>
			<path id="XMLID_500_" style="fill:#232020;" d="M32.03,61.26c0.7,0.43,1.56,0.32,1.92-0.27c0.36-0.58,0.08-1.4-0.62-1.84
				c-0.7-0.43-1.56-0.32-1.92,0.26C31.05,60,31.32,60.82,32.03,61.26"/>
		</g>
		<path style="fill:#78A2AC;" d="M27.79,107.81c-0.1,0.07-0.2,0.14-0.3,0.21c-2.04,1.55-1.26,4.89-3.11,6.4
			c-1.58,1.28-4.27-0.06-5.86,1.23c-3.34,2.71-2.24,7.21,1.48,8.79c6.51,2.76,14.22-3.41,17.29-8.67c1.16-1.98,2.55-5.53,0.58-7.27
			c-1-0.89-2.4-0.62-3.59-0.75C31.73,107.48,30.22,106.22,27.79,107.81z"/>
		<path style="fill:#78A2AC;" d="M100.21,107.81c0.1,0.07,0.2,0.14,0.29,0.21c2.06,1.55,1.26,4.89,3.13,6.4
			c1.57,1.28,4.25-0.06,5.85,1.23c3.34,2.71,2.23,7.21-1.48,8.79c-6.52,2.76-14.22-3.41-17.29-8.67c-1.16-1.98-2.56-5.53-0.59-7.27
			c1-0.89,2.4-0.62,3.6-0.75C96.26,107.48,97.78,106.22,100.21,107.81z"/>
		<path style="fill:#E2EAED;" d="M67.6,117.58L67.6,117.58c-4.06,0-8.1-0.12-12.01-0.24l-0.51-0.01
			c-9.07-0.27-20.86-1.31-31.53-6.96c-4.49-2.37-7.81-5.6-10.14-9.86c-1.05-1.91-1.7-4.3-2.33-6.62c-0.72-2.67-1.46-5.42-2.64-6.74
			c-0.44-0.49-1.13-0.86-1.94-1.3c-1.75-0.93-4.13-2.2-4.96-5.56c-0.86-3.56-0.47-6.41,1.16-8.48c2.41-3.08,6.77-3.47,10.28-3.47
			c1.28,0,2.57,0.05,3.81,0.11c3.78,0.17,7.7,0.19,11.75,0.1c6.37-0.13,13.34-0.19,21.29-0.19c7.16,0,14.33,0.05,21.49,0.1
			c5.33,0.04,10.66,0.07,15.99,0.09l5.57,0.03c2.69,0.02,5.37,0.03,8.05,0.03c5.03,0,9.1-0.06,12.82-0.19
			c3.34-0.1,6.09,0.25,8.15,1.12c2.43,1.03,6.25,3.79,4.56,10.75c-0.82,3.36-3.2,4.63-4.95,5.56c-0.8,0.43-1.5,0.8-1.94,1.3
			c-1.17,1.32-1.92,4.07-2.65,6.74c-0.63,2.32-1.27,4.71-2.32,6.62c-2.33,4.26-5.65,7.48-10.14,9.86
			C92.46,116.72,79.09,117.58,67.6,117.58z"/>
		<path style="fill:#D2DDE1;" d="M112.55,85.58c-3.74,0.85-7.05,3.44-9.92,6.89c-4.75,5.7-6.84,11.58-12.14,16.44
			c-5.85,5.37-24.08,7.96-36.37,8.38c0.32,0.01,0.65,0.02,0.97,0.03l0.51,0.01c3.91,0.12,7.95,0.24,12,0.24h0.01
			c11.49,0,24.86-0.86,36.87-7.21c4.5-2.38,7.81-5.6,10.14-9.86c1.05-1.91,1.69-4.3,2.32-6.62c0.73-2.67,1.47-5.42,2.65-6.74
			c0.44-0.5,1.13-0.86,1.94-1.3c1.75-0.93,4.13-2.21,4.95-5.56c0.2-0.83,0.32-1.6,0.38-2.31C125.43,82.5,117.55,84.44,112.55,85.58z
			"/>
		<g>
			<rect x="110.79" y="17.83" style="fill:#78A2AC;" width="4" height="50.72"/>
			<g>
				<path style="fill:#78A2AC;" d="M114.79,17.83h-4c0-5.69-4.63-10.32-10.32-10.32c-5.69,0-10.32,4.63-10.32,10.32h-4
					c0-7.9,6.43-14.32,14.32-14.32S114.79,9.93,114.79,17.83z"/>
			</g>
			<g>
				<path style="fill:#78A2AC;" d="M96.75,26.58H79.54c-1.21,0-2.21-0.99-2.21-2.21v0c0-1.21,0.99-2.21,2.21-2.21h17.21
					c1.21,0,2.21,0.99,2.21,2.21v0C98.96,25.59,97.96,26.58,96.75,26.58z"/>
				<path style="fill:#78A2AC;" d="M79.54,22.17c3.52-0.6,6.61-2.77,6.61-4.33h2v4.33H79.54z"/>
				<path style="fill:#78A2AC;" d="M96.75,22.17c-3.52-0.6-6.61-2.77-6.61-4.33h-2v4.33H96.75z"/>
			</g>
		</g>
	</g>
</g>
</svg>
