<svg width="128" height="128" style="enable-background:new 0 0 128 128;" xmlns="http://www.w3.org/2000/svg" xmlns:xlink="http://www.w3.org/1999/xlink">
  <radialGradient id="SVGID_1_" cx="43.1214" cy="10.613" gradientTransform="matrix(0.6689 0.6689 -0.962 0.962 90.3415 -20.0094)" gradientUnits="userSpaceOnUse" r="24.9408">
    <stop offset="0" style="stop-color:#E1F5FE"/>
    <stop offset="1" style="stop-color:#81D4FA"/>
  </radialGradient>
  <path d="M119.54,45.96c-4.25,4.25-19.18-3.79-26.57-11.18c-7.39-7.39-15.16-22.05-10.91-26.3 s18.91,3.52,26.3,10.91C115.75,26.78,123.79,41.71,119.54,45.96z" style="fill:url(#SVGID_1_);"/>
  <radialGradient id="SVGID_2_" cx="41.8333" cy="52.8333" gradientTransform="matrix(-5.580449e-03 1 -0.8204 -4.578349e-03 85.412 11.2425)" gradientUnits="userSpaceOnUse" r="70.5032">
    <stop offset="0" style="stop-color:#FFAB40"/>
    <stop offset="0.5441" style="stop-color:#FF9100"/>
    <stop offset="1" style="stop-color:#FF6D00"/>
  </radialGradient>
  <path d="M74.08,36.83L5.73,105.19c-3.15,3.15-1.87,9.52,2.85,14.24c4.72,4.72,11.09,5.99,14.24,2.85 l68.35-68.35L74.08,36.83z" style="fill:url(#SVGID_2_);"/>
  <radialGradient id="SVGID_3_" cx="75.1667" cy="14.8333" gradientUnits="userSpaceOnUse" r="45.5012">
    <stop offset="0" style="stop-color:#FFAB40"/>
    <stop offset="0.571" style="stop-color:#FF9100"/>
    <stop offset="1" style="stop-color:#FF6D00"/>
  </radialGradient>
  <polygon points="77.82,10.29 72.12,15.98 63.45,47.18 80.53,64.26 112.02,55.88 117.71,50.18 " style="fill:url(#SVGID_3_);"/>
  <g style="opacity:0.2;">
    <path d="M85.65,9.28L85.65,9.28c5.11,0,15.27,5.49,21.3,11.53c3.53,3.53,7.28,8.98,9.55,13.89 c2.51,5.42,2.62,8.85,1.63,9.85c-0.49,0.49-1.41,0.59-2.1,0.59c-5.17,0-15.49-5.61-21.65-11.77c-3.57-3.57-7.17-8.83-9.41-13.74 c-2.59-5.69-2.43-8.8-1.49-9.73C83.99,9.38,84.94,9.28,85.65,9.28 M85.64,7.28c-1.51,0-2.75,0.37-3.58,1.21 c-4.25,4.25,3.52,18.91,10.91,26.3c5.97,5.97,16.85,12.36,23.06,12.36c1.48,0,2.69-0.36,3.51-1.18 c4.25-4.25-3.79-19.18-11.18-26.57C102.42,13.45,91.8,7.27,85.64,7.28L85.64,7.28z" style="fill:#424242;"/>
  </g>
  <g style="opacity:0.2;">
    <path d="M77.82,14.53l35.65,35.65l-3,3l-30.31,8.08c-0.51,0.14-0.98,0.4-1.35,0.78l-58.12,58.12 c-0.56,0.56-1.39,0.85-2.46,0.85c-2.37,0-5.25-1.42-7.53-3.7c-1.84-1.84-3.14-4.09-3.55-6.18c-0.19-0.97-0.36-2.76,0.7-3.82 l57.86-57.86c0.56-0.56,0.88-1.33,0.88-2.12c0-0.08,0-0.15-0.01-0.23l8.22-29.55L77.82,14.53 M77.82,10.29l-5.7,5.7l-8.68,31.19 l0.15,0.15L5.73,105.19c-3.15,3.15-1.87,9.52,2.85,14.24c2.97,2.97,6.59,4.57,9.65,4.57c1.81,0,3.42-0.56,4.59-1.73l58.12-58.12 l31.09-8.28l5.7-5.7L77.82,10.29L77.82,10.29z" style="fill:#424242;"/>
  </g>
  <radialGradient id="SVGID_4_" cx="-1.6712" cy="85.3258" gradientTransform="matrix(1.007 0 0 1.007 19.6542 7.6208)" gradientUnits="userSpaceOnUse" r="28.8382">
    <stop offset="0" style="stop-color:#616161"/>
    <stop offset="1" style="stop-color:#212121"/>
  </radialGradient>
  <path d="M22.93,122.39L5.61,105.07c-0.72-0.72-0.72-1.9,0-2.62l9.26-9.26c0.72-0.72,1.9-0.72,2.62,0 l17.31,17.31c0.72,0.72,0.72,1.9,0,2.62l-9.26,9.26C24.83,123.11,23.65,123.11,22.93,122.39z" style="fill:url(#SVGID_4_);"/>
  <g>
    <radialGradient id="SVGID_5_" cx="106.7379" cy="-12.3288" gradientTransform="matrix(1.007 0 0 1.007 -18.446 15.0268)" gradientUnits="userSpaceOnUse" r="54.2023">
      <stop offset="0" style="stop-color:#616161"/>
      <stop offset="1" style="stop-color:#212121"/>
    </radialGradient>
    <path d="M112.02,55.88L72.12,15.98c-0.79-0.79-0.79-2.06,0-2.85l8.54-8.54 c0.79-0.79,2.06-0.79,2.85,0l39.89,39.89c0.79,0.79,0.79,2.06,0,2.85l-8.54,8.54C114.08,56.66,112.8,56.66,112.02,55.88z" style="fill:url(#SVGID_5_);"/>
    <rect height="16" style="opacity:0.2;fill:#757575;" transform="matrix(0.7071 0.7071 -0.7071 0.7071 32.8625 -53.1271)" width="2" x="79.56" y="5.1"/>
    <rect height="16" style="opacity:0.2;fill:#757575;" transform="matrix(0.7071 0.7071 -0.7071 0.7071 37.8123 -55.1774)" width="2" x="84.51" y="10.05"/>
    <rect height="16" style="opacity:0.2;fill:#757575;" transform="matrix(0.7071 0.7071 -0.7071 0.7071 42.762 -57.2276)" width="2" x="89.46" y="15"/>
    <rect height="16" style="opacity:0.2;fill:#757575;" transform="matrix(0.7071 0.7071 -0.7071 0.7071 47.7118 -59.2779)" width="2" x="94.41" y="19.95"/>
    <rect height="16" style="opacity:0.2;fill:#757575;" transform="matrix(0.7071 0.7071 -0.7071 0.7071 52.6615 -61.3281)" width="2" x="99.36" y="24.9"/>
    <rect height="16" style="opacity:0.2;fill:#757575;" transform="matrix(0.7071 0.7071 -0.7071 0.7071 57.6112 -63.3784)" width="2" x="104.31" y="29.85"/>
    <rect height="16" style="opacity:0.2;fill:#757575;" transform="matrix(0.7071 0.7071 -0.7071 0.7071 62.561 -65.4286)" width="2" x="109.26" y="34.8"/>
    <rect height="16" style="opacity:0.2;fill:#757575;" transform="matrix(0.7071 0.7071 -0.7071 0.7071 67.5107 -67.4789)" width="2" x="114.21" y="39.75"/>
  </g>
  <g style="opacity:0.2;">
    <path d="M16.18,96.12l15.69,15.69l-7.64,7.64L8.54,103.76L16.18,96.12 M16.18,92.65 c-0.47,0-0.95,0.18-1.31,0.54l-9.26,9.26c-0.72,0.72-0.72,1.9,0,2.62l17.31,17.31c0.36,0.36,0.84,0.54,1.31,0.54 s0.95-0.18,1.31-0.54l9.26-9.26c0.72-0.72,0.72-1.9,0-2.62L17.5,93.19C17.13,92.83,16.66,92.65,16.18,92.65L16.18,92.65z" style="fill:#424242;"/>
  </g>
  <g style="opacity:0.2;">
    <path d="M52.12,71.86c1.03,0,2.06,0.39,2.85,1.17c1.57,1.57,1.57,4.13,0,5.7l-5.7,5.7 c-0.78,0.78-1.82,1.17-2.85,1.17s-2.06-0.39-2.85-1.17c-1.57-1.57-1.57-4.13,0-5.7l5.7-5.7C50.06,72.25,51.09,71.86,52.12,71.86 M52.12,69.86c-1.61,0-3.13,0.63-4.26,1.76l-5.7,5.7c-2.35,2.35-2.35,6.17,0,8.52c1.14,1.14,2.65,1.76,4.26,1.76 c1.61,0,3.13-0.63,4.26-1.76l5.7-5.7c2.35-2.35,2.35-6.17,0-8.52C55.25,70.48,53.73,69.86,52.12,69.86L52.12,69.86z" style="fill:#F57C00;"/>
  </g>
  <g style="opacity:0.2;">
    <path d="M82.09,7.41l38.5,38.5l-7.15,7.15l-2.65-2.65l-0.18-0.18l-2.83-2.83l-0.36-0.36L96.69,36.31 l-0.93-0.93l-2.83-2.83l-1.19-1.19l-9.15-9.15l-1.68-1.68l-2.83-2.83l-2.02-2.02l-1.12-1.12L82.09,7.41 M82.09,4 c-0.52,0-1.03,0.2-1.42,0.59l-8.54,8.54c-0.79,0.79-0.79,2.06,0,2.85l1.82,1.82l2.02,2.02l2.83,2.83l1.68,1.68l9.15,9.15l1.19,1.19 l2.83,2.83l0.93,0.93l10.74,10.74l0.36,0.36l2.83,2.83l0.18,0.18l3.35,3.35c0.39,0.39,0.91,0.59,1.42,0.59s1.03-0.2,1.42-0.59 l8.54-8.54c0.79-0.79,0.79-2.06,0-2.85L83.52,4.59C83.12,4.2,82.61,4,82.09,4L82.09,4z" style="fill:#424242;"/>
  </g>
  <g>
    <radialGradient id="SVGID_6_" cx="32.0927" cy="66.497" gradientTransform="matrix(1 0 0 1 16.7394 6.6781)" gradientUnits="userSpaceOnUse" r="14.1546">
      <stop offset="0" style="stop-color:#616161"/>
      <stop offset="1" style="stop-color:#212121"/>
    </radialGradient>
    <path d="M46.42,86.1c-1.21,0-2.35-0.47-3.2-1.32c-1.77-1.77-1.77-4.64,0-6.4l5.7-5.7 c0.85-0.85,1.99-1.32,3.2-1.32c1.21,0,2.35,0.47,3.2,1.32c1.77,1.77,1.77,4.64,0,6.4l-5.7,5.7C48.77,85.63,47.64,86.1,46.42,86.1z" style="fill:url(#SVGID_6_);"/>
    <path d="M52.12,71.86c1.03,0,2.06,0.39,2.85,1.17c1.57,1.57,1.57,4.13,0,5.7l-5.7,5.7 c-0.78,0.78-1.82,1.17-2.85,1.17s-2.06-0.39-2.85-1.17c-1.57-1.57-1.57-4.13,0-5.7l5.7-5.7C50.06,72.25,51.09,71.86,52.12,71.86 M52.12,70.86c-1.35,0-2.61,0.52-3.56,1.47l-5.7,5.7c-1.96,1.96-1.96,5.15,0,7.11c0.95,0.95,2.21,1.47,3.56,1.47 c1.35,0,2.61-0.52,3.56-1.47l5.7-5.7c1.96-1.96,1.96-5.15,0-7.11C54.73,71.38,53.47,70.86,52.12,70.86L52.12,70.86z" style="fill:#424242;"/>
  </g>
</svg>