<?xml version="1.0" encoding="utf-8"?>
<!-- Generator: Adobe Illustrator 24.1.2, SVG Export Plug-In . SVG Version: 6.00 Build 0)  -->
<svg version="1.1" id="Layer_1" xmlns="http://www.w3.org/2000/svg" xmlns:xlink="http://www.w3.org/1999/xlink" x="0px" y="0px"
	 viewBox="0 0 128 128" style="enable-background:new 0 0 128 128;" xml:space="preserve">
<g id="gold">
	
		<radialGradient id="face_1_" cx="63.6" cy="1400.9" r="56.9597" gradientTransform="matrix(1 0 0 1 0 -1338)" gradientUnits="userSpaceOnUse">
		<stop  offset="0.5" style="stop-color:#FDE030"/>
		<stop  offset="0.92" style="stop-color:#F7C02B"/>
		<stop  offset="1" style="stop-color:#F4A223"/>
	</radialGradient>
	<path id="face" style="fill:url(#face_1_);" d="M63.6,118.8c-27.9,0-58-17.5-58-55.9S35.7,7,63.6,7c15.5,0,29.8,5.1,40.4,14.4
		c11.5,10.2,17.6,24.6,17.6,41.5s-6.1,31.2-17.6,41.4C93.4,113.6,79,118.8,63.6,118.8z"/>
	
		<linearGradient id="face-2_1_" gradientUnits="userSpaceOnUse" x1="63.6" y1="1456.8" x2="63.6" y2="1345" gradientTransform="matrix(1 0 0 1 0 -1338)">
		<stop  offset="0" style="stop-color:#F4A223"/>
		<stop  offset="0.08" style="stop-color:#F7C02B"/>
		<stop  offset="0.54" style="stop-color:#FDE030;stop-opacity:0"/>
	</linearGradient>
	<path id="face-2" style="fill:url(#face-2_1_);" d="M63.6,118.8c-27.9,0-58-17.5-58-55.9S35.7,7,63.6,7c15.5,0,29.8,5.1,40.4,14.4
		c11.5,10.2,17.6,24.6,17.6,41.5s-6.1,31.2-17.6,41.4C93.4,113.6,79,118.8,63.6,118.8z"/>
	<path style="fill:#EB8F00;" d="M111.49,29.67c5.33,8.6,8.11,18.84,8.11,30.23c0,16.9-6.1,31.2-17.6,41.4
		c-10.6,9.3-25,14.5-40.4,14.5c-18.06,0-37-7.35-48.18-22.94c10.76,17.66,31,25.94,50.18,25.94c15.4,0,29.8-5.2,40.4-14.5
		c11.5-10.2,17.6-24.5,17.6-41.4C121.6,50.16,118.13,38.84,111.49,29.67z"/>
</g>
<g id="facial_expressions">
	<path style="fill:#422B0D;" d="M44,40.94L44,40.94c-4.19,0-8,3.54-8,9.42s3.81,9.41,8,9.41l0,0c4.2,0,8-3.54,8-9.41
		S48.24,40.94,44,40.94z"/>
	<g id="peepers">
		<path style="fill:#896024;" d="M43.65,44.87L43.65,44.87c-1.42-0.68-3.13-0.08-3.82,1.34c-0.53,1.11-0.29,2.44,0.6,3.3l0,0
			c1.42,0.68,3.13,0.08,3.82-1.34C44.78,47.06,44.54,45.73,43.65,44.87z"/>
	</g>
	<path style="fill:#422B0D;" d="M82.4,40.94L82.4,40.94c-4.19,0-8,3.54-8,9.42s3.81,9.41,8,9.41l0,0c4.19,0,8-3.54,8-9.41
		S86.59,40.94,82.4,40.94z"/>
	<g id="peepers-2">
		<path style="fill:#896024;" d="M82,44.87L82,44.87c-1.42-0.68-3.13-0.08-3.82,1.34c-0.53,1.11-0.29,2.44,0.6,3.3l0,0
			c1.42,0.68,3.13,0.08,3.82-1.34C83.13,47.06,82.89,45.73,82,44.87z"/>
	</g>
	<path style="fill:#FFFFFF;" d="M39.37,71.1h50.09c6.32,0,11.44,5.12,11.44,11.44v0.01c0,6.32-5.12,11.44-11.44,11.44H39.37
		c-6.32,0-11.44-5.12-11.44-11.44v-0.01C27.93,76.22,33.05,71.1,39.37,71.1z"/>
	<path style="fill:#B3B3B3;" d="M100.74,80.67H28.1c-0.25,1.32-0.25,2.68,0,4h72.6c0.25-1.32,0.25-2.68,0-4H100.74z"/>
	<path style="fill:#B3B3B3;" d="M89.46,71.1h-0.55V94h0.55c0.89,0,1.78-0.11,2.65-0.32V71.42C91.24,71.21,90.35,71.1,89.46,71.1z"/>
	<rect x="62.58" y="71.1" style="fill:#B3B3B3;" width="3.2" height="22.89"/>
	<path style="fill:#B3B3B3;" d="M39.38,71.1c-1.06,0-2.12,0.15-3.14,0.45v22c1.02,0.3,2.08,0.45,3.14,0.45h0.06V71.1H39.38z"/>
	<rect x="49.41" y="71.1" style="fill:#B3B3B3;" width="3.2" height="22.89"/>
	<rect x="75.74" y="71.1" style="fill:#B3B3B3;" width="3.2" height="22.89"/>
	<path style="fill:#EB8F00;" d="M100.91,82.55c-0.29-3.52-2.19-6.7-5.13-8.65c-1.39-0.92-2.98-1.49-4.64-1.67
		c-1.74-0.09-3.47-0.09-5.21,0c-3.59,0.14-7.17,0.17-10.75,0.25l-10.76,0.08l-10.75-0.08c-3.59-0.08-7.17-0.11-10.76-0.25
		c-1.74-0.09-3.47-0.09-5.21,0c-1.66,0.17-3.25,0.75-4.63,1.68c-2.95,1.94-4.84,5.12-5.14,8.64c-0.29-3.78,1.31-7.46,4.27-9.83
		c1.51-1.22,3.29-2.05,5.19-2.43l0.72-0.14l0.73-0.06c0.5,0,0.94-0.06,1.39-0.07l2.68-0.09c3.59-0.14,7.17-0.17,10.76-0.25
		l10.75-0.08l10.76,0.09c3.58,0.08,7.16,0.11,10.75,0.25l2.69,0.08c0.45,0,0.88,0,1.39,0.07l0.72,0.07l0.72,0.14
		c1.9,0.37,3.68,1.2,5.19,2.42C99.6,75.09,101.2,78.77,100.91,82.55z"/>
</g>
</svg>
