<?xml version="1.0" encoding="utf-8"?>
<!-- Generator: Adobe Illustrator 16.0.0, SVG Export Plug-In . SVG Version: 6.00 Build 0)  -->
<!DOCTYPE svg PUBLIC "-//W3C//DTD SVG 1.1//EN" "http://www.w3.org/Graphics/SVG/1.1/DTD/svg11.dtd">
<svg version="1.1" id="レイヤー_1" xmlns="http://www.w3.org/2000/svg" xmlns:xlink="http://www.w3.org/1999/xlink" x="0px"
	 y="0px" width="128px" height="128px" viewBox="0 0 128 128" enable-background="new 0 0 128 128" xml:space="preserve">
<g>
	<path fill="#FFFFFF" d="M4.48,64c0,32.88,26.64,59.53,59.52,59.53c32.88,0,59.52-26.65,59.52-59.53
		c0-32.88-26.64-59.53-59.52-59.53C31.12,4.47,4.48,31.12,4.48,64z"/>
	<path fill="#ED6C30" d="M0.43,64c0,35.11,28.46,63.58,63.57,63.58S127.57,99.11,127.57,64c0-35.11-28.46-63.58-63.57-63.58
		S0.43,28.89,0.43,64z M103.94,90.95L37.05,24.06c7.69-5.2,16.96-8.24,26.95-8.24c26.6,0,48.18,21.57,48.18,48.18
		C112.18,73.99,109.14,83.26,103.94,90.95z M15.82,64c0-9.98,3.04-19.26,8.24-26.95l66.9,66.89c-7.7,5.2-16.98,8.24-26.96,8.24
		C37.4,112.18,15.82,90.61,15.82,64z"/>
</g>
</svg>
