<?xml version="1.0" encoding="utf-8"?>
<!-- Generator: Adobe Illustrator 19.2.1, SVG Export Plug-In . SVG Version: 6.00 Build 0)  -->
<svg version="1.1" id="レイヤー_1" xmlns="http://www.w3.org/2000/svg" xmlns:xlink="http://www.w3.org/1999/xlink" x="0px"
	 y="0px" viewBox="0 0 128 128" style="enable-background:new 0 0 128 128;" xml:space="preserve">
<g>
	<path style="fill:#D7598B;" d="M63.67,86.52c-0.27-0.39-0.66-0.7-1-1.02c-0.76-0.72-1.52-1.45-2.28-2.17
		c-1.29-1.23-2.58-2.46-3.87-3.68c-0.96-0.92-2.02-1.63-2.15-3.12l-0.02-0.2c-0.24-2.05,1.35-3.22,2.46-4.73
		c1.07-1.45,2.1-2.92,3.12-4.41c1.14-1.69,1.74-2.42,0.3-4.21c-1.02-1.27-2.32-2.22-3.55-3.28c-1.64-1.41-3.19-2.91-4.76-4.39
		c-0.64-0.61-1.21-1.18-1.74-1.87c-0.68-0.88-1.63-1.33-1.16-2.57c0.43-1.12,1.54-2.09,2.34-2.95c1.35-1.45,2.73-2.88,4.04-4.37
		c0.23-0.27,0.51-0.52,0.72-0.81c1.09-1.6-0.79-3.66-1.72-4.84c-1.52-1.91-2.89-3.97-4.7-5.64c-1.33-1.24-3.21-1.87-4.79-2.72
		c-2.53-1.37-5.1-2.68-7.85-3.42c-4.27-1.15-8.66-1.51-13.03-0.87c-0.42,0.05-0.83,0.12-1.25,0.18C11.68,27.2,4.66,35.41,1.79,48.19
		c-1.22,5.42-0.07,13.08,1.59,18.27c1.65,5.19,4.44,9.65,7.92,13.68c11.59,13.43,29.2,17.63,43,27.72c1.48,1.08,2.95,2.26,4.45,3.33
		c1.1,0.8,2.02,1.87,3.11,2.69c0.42,0.31,1.12,0.98,1.64,0.68c0.81-0.47,0.73-2.1,0.74-2.94c0.02-0.9,0.03-1.8,0.04-2.7
		c0.04-2.21,0.07-4.41,0.1-6.62c0.06-4.13,0.13-8.27,0.19-12.4c0.01-0.61,0.13-1.36-0.02-1.95C64.39,87.42,63.97,86.96,63.67,86.52z
		"/>
	<path style="fill:#D7598B;" d="M125.73,44.85c-3.8-12.56-11.4-20.26-22.61-21.25c-0.42-0.03-0.83-0.07-1.25-0.1
		c-4.4-0.33-8.75,0.32-12.93,1.77c-2.65,0.92-5.06,2.36-7.41,3.85c-1,0.63-1.98,1.29-2.93,1.99c-0.55,0.4-1.24,0.63-1.72,1.12
		c-0.75,0.75,0.69,3.06,1,3.84c0.56,1.37,1.12,2.74,1.61,4.13c0.31,0.88,0.96,2.26,0.34,3.11c-0.46,0.64-1.38,0.95-2.07,1.25
		c-1.14,0.48-2.25,1.03-3.36,1.56c-1.87,0.89-3.75,1.78-5.62,2.68c-1.03,0.49-2.47,1.39-1.96,2.87c0.39,1.12,1.45,2.16,2.13,3.1
		c1.7,2.32,3.34,4.69,5.15,6.93c1.23,1.53,3.65,3.99,1.58,5.85c-1.81,1.62-3.8,3.04-5.69,4.56c-0.67,0.54-1.34,1.07-2.01,1.62
		c-0.96,0.76-1.78,1.61-1.46,3.04c0.24,1.06,1.21,2.09,1.78,2.98c2.36,3.71,6.29,7.82,5.04,12.67c-0.48,1.88-0.96,3.75-1.45,5.62
		c-1.08,4.23-2.17,8.47-3.25,12.71c-0.29,1.13-1.6,3.7-0.39,4.61c0.94,0.72,2.02-0.38,2.71-1.03c0.9-0.85,1.67-1.86,2.62-2.66
		c1.41-1.18,2.79-2.46,4.19-3.63C90.76,97,108.02,91.58,118.6,77.38c3.18-4.25,5.63-8.9,6.9-14.19
		C126.76,57.89,127.35,50.17,125.73,44.85z"/>
</g>
</svg>
