<svg xmlns="http://www.w3.org/2000/svg" xmlns:xlink="http://www.w3.org/1999/xlink" viewBox="0 0 128 128"><path d="M58.25 83.08c-1.06 0-1.96-.81-2.06-1.89-.83-9.97.97-22.21 2.56-33.01.54-3.67 1.07-7.22 1.47-10.56 2-16.42 12.21-35.4 12.64-36.2.54-1.01 1.8-1.38 2.8-.83 1.01.54 1.38 1.8.83 2.8-.1.19-10.27 19.1-12.17 34.73-.4 3.36-.94 6.95-1.48 10.66-1.56 10.57-3.33 22.56-2.53 32.05.09 1.14-.75 2.14-1.88 2.23a.99.99 0 0 1-.18.02z" fill="#2f2f2f"/><defs><path id="a" d="M92.07 50.43C90.1 62.88 77.11 63.8 61.36 61.32 45.61 58.83 33.94 51.4 35.5 41.5c2.66-16.83 13.38-29.13 33.09-26.01C88.32 18.6 94.73 33.6 92.07 50.43z"/></defs><use xlink:href="#a" overflow="visible" fill="#40c0e7"/><path d="M87.39 48.74c-.58 6.48-5.8 9.45-11.82 10.04-.67.07-3.76.1-3.55-1.33.16-1.19 1.74-2.06 2.74-2.45 3.93-1.48 6.12-5.45 8.47-8.65.89-1.22 2.36-2.86 3.5-1.13.68 1.02.77 2.28.66 3.52z" fill="#006ca2"/><path d="M51.36 24.62c-1.11-.39-2.49.16-3.51.99-.67.55-1.28 1.16-1.82 1.84-1.59 2.01-2.74 4.33-3.8 6.65-.78 1.68-1.39 3.72-1.51 5.6-.06.93.36 2.44 1.2 2.96 1.77 1.11 3.69-2.78 4.29-3.85 1.03-1.83 2.09-3.64 3.21-5.41 1.27-2.01 4.57-4.84 3.32-7.44-.34-.73-.83-1.15-1.38-1.34zM55.11 20.08c-.99.82-1.6 2.11-.84 3.3.38.6 1 .98 1.69 1.13 1.37.31 3.07-.17 3.95-1.31.37-.48.56-1.08.51-1.69-.09-1.13-.92-1.86-1.96-2.12-.46-.11-1-.19-1.46-.14-.63.06-1.33.37-1.89.83z" fill="#fff"/><path d="M66.24 127.67c-.39 0-.78-.11-1.12-.33-.97-.63-23.75-15.85-17.71-55.91.16-1.05 1.06-1.8 2.16-1.75l16.91.95c.61.04 1.19.34 1.55.84.36.5.49 1.14.33 1.74-.28 1.06-6.48 26.25 16.56 42.83.6.44.92 1.15.85 1.89-.08.73-.53 1.38-1.21 1.68l-17.47 7.88c-.26.12-.56.18-.85.18z" fill="#f79329"/></svg>