<svg width="128" height="128" style="enable-background:new 0 0 128 128;" xmlns="http://www.w3.org/2000/svg" xmlns:xlink="http://www.w3.org/1999/xlink">
  <path d="M65.71,15.31h-8.82H44H22.11c-1.25,0-2.24,1-2.24,2.24v100.96c0,1.24,1,2.24,2.24,2.24H44h12.88h8.82 c30.15,0,50.43-21.19,50.43-52.73C116.13,36.49,95.86,15.31,65.71,15.31z M64.42,96.11c-0.28,0-0.54-0.07-0.79-0.16 c-0.06,0.01-0.11,0.03-0.17,0.03c-0.08,0.01-0.14,0.04-0.22,0.04h-4.12h-2.24h-2.24h-6.1c-1.2,0-2.16-0.97-2.16-2.16V42.19 c0-1.19,0.96-2.16,2.16-2.16h6.1h2.24h2.24h4.12c0.08,0,0.14,0.03,0.22,0.04c0.05,0,0.11,0.02,0.17,0.03 c0.25-0.09,0.51-0.16,0.79-0.16c0.43,0,0.86,0.04,1.29,0.06c0.75,0.03,1.5,0.09,2.24,0.18c13.11,1.63,21.69,12.39,21.69,27.84 c0,15.45-8.59,26.21-21.69,27.84c-0.74,0.09-1.49,0.15-2.24,0.18C65.28,96.07,64.85,96.11,64.42,96.11z" style="fill:#40C0E7;"/>
</svg>