<svg xmlns="http://www.w3.org/2000/svg" viewBox="0 0 128 128"><path d="M113.42 28.7V10.41c-7.74 1.99-26.79 6.22-49.43 6.22S22.3 12.4 14.57 10.41V28.7c4.52 1.05 10.58 2.28 17.74 3.33v67.09c-7.16 1.05-13.22 2.28-17.74 3.33v18.29c7.73-1.99 26.78-6.23 49.42-6.23s41.7 4.24 49.43 6.22v-18.28c-4.53-1.04-10.57-2.28-17.74-3.33V32.03c7.17-1.05 13.21-2.28 17.74-3.33zM77.94 97.24c-4.45-.3-9.12-.47-13.94-.47s-9.48.18-13.93.47V33.92c4.45.29 9.11.47 13.93.47 4.83 0 9.49-.18 13.94-.47v63.32z" fill="#fcc21b"/></svg>