<svg width="128" height="128" xmlns="http://www.w3.org/2000/svg"><style>.st1{fill:#2f2f2f}.st3{fill:#fff}</style><path d="M64 9.6C1.7 9.6.2 79.5.2 93.3c0 13.8 28.6 25 63.8 25 35.2 0 63.8-11.2 63.8-25S126.3 9.6 64 9.6z" fill="#fcc21b"/><path class="st1" d="M41.9 68c-4.5 0-8.2-4.3-8.2-9.6 0-5.4 3.6-9.7 8-9.8 4.5 0 8.2 4.3 8.2 9.6.1 5.4-3.5 9.8-8 9.8zM86 68c4.5 0 8.1-4.4 8.1-9.7 0-5.4-3.7-9.7-8.1-9.7-4.5 0-8.1 4.4-8.1 9.7 0 5.4 3.6 9.7 8.1 9.7z"/><path d="M85.3 88.3c-1.6-4-9.7-10.3-20.6-10.5h-.4c-10.8.2-18.8 6.6-20.5 10.5-1.7 4-.2 6.7 4.3 6.7h33c4.4 0 5.9-2.7 4.2-6.7z" fill="#ed6c30"/><path class="st3" d="M84.8 93.9s0-.7-1.1-1c-1.5-.4-3.7 1.2-7 1.1s-7.8-.9-10.7-.9c-3.3-.1-3.4 1.9-3.4 1.9h18.1c2.3 0 3.3-.4 4.1-1.1z"/><path class="st3" d="M69.1 95c4.2.8 6 2 6 7.1 0 2.2-.3 4.9 0 7.1.4 2.4 2.1 2.9 3.3 2.7 2.9-.5 1.9-5.4 2.3-10.8.3-4.1 3.5-4.3 4.1-7.1l-15.7 1z"/></svg>