<svg enable-background="new 0 0 128 128" viewBox="0 0 128 128" xmlns="http://www.w3.org/2000/svg"><radialGradient id="b" cx="30.293" cy="87.054" r="67.657" gradientTransform="matrix(-1.064 .083 .0775 1.0338 125.99 -5.9058)" gradientUnits="userSpaceOnUse"><stop stop-color="#964596" offset="0"/><stop stop-color="#6F376E" offset=".3942"/><stop stop-color="#4A2649" offset="1"/></radialGradient><path d="m42.67 30.33c8.19 19.11 48.63 41.39 62.33 45.67 18.63 5.83 21.63 24.8 18.25 32-4.94 10.5-12.91 13.25-24.58 14-14.43 0.93-25.21-4.38-34.33-10.33-26.6-17.37-39.42-35.59-50.2-64.27-2.13-5.68-2.97-10.5 0.38-16.41 1.04-1.84 0.87-1.84 2-2.56 0.67-0.43 9.75-5.72 14.77-6.21 8.81-0.87 10.66 7.34 11.38 8.11z" fill="url(#b)"/><g opacity=".2"><path d="m32.55 25.31c4 0 5.59 2.78 6.76 5.39 0.2 0.44 0.37 0.82 0.58 1.17 9.16 20.64 51.19 43.09 64.17 47.15 9 2.81 13.25 8.76 15.22 13.26 2.5 5.68 2.45 11.53 1.11 14.37-3.31 7.04-7.96 11.29-21.92 12.19-1.03 0.07-2.06 0.1-3.08 0.1-12.44 0-21.81-5.02-29.32-9.93-24.53-16-37.8-33.01-48.97-62.73-1.97-5.24-2.53-8.98 0.17-13.73 0.21-0.37 0.38-0.68 0.51-0.93 0.07-0.13 0.15-0.28 0.21-0.38 0.05-0.03 0.12-0.08 0.22-0.14 1.76-1.11 9.57-5.36 13.38-5.74 0.33-0.04 0.65-0.05 0.96-0.05m-14.49 5.8m14.49-8.97c-0.4 0-0.83 0.02-1.26 0.06-5.03 0.49-14.1 5.79-14.77 6.21-1.13 0.72-0.95 0.72-2 2.56-3.34 5.91-2.51 10.73-0.38 16.41 10.78 28.69 23.6 46.91 50.2 64.27 8.42 5.5 18.25 10.44 31.05 10.44 1.07 0 2.16-0.03 3.28-0.11 11.67-0.75 19.65-3.5 24.58-14 3.38-7.2 0.38-26.17-18.25-32-13.7-4.28-54.14-26.56-62.33-45.67-0.68-0.71-2.39-8.17-10.12-8.17z" fill="#eee"/></g><linearGradient id="a" x1="79.159" x2="117.14" y1="9.0841" y2="38.541" gradientTransform="matrix(-.9768 .2139 .2139 .9768 115.56 -18.86)" gradientUnits="userSpaceOnUse"><stop stop-color="#9AE349" offset="0"/><stop stop-color="#5FAC1F" offset=".9951"/></linearGradient><path d="m14.08 3.68s3.16 7.49 6.82 11.84 4.85 3.76 4.85 3.76 5.87-0.75 9.57 1.13 8.67 7.31 12.57 7.83c3.91 0.52 7.48-0.18 7.48-0.18s-4.4 7.15-12.31 7.87c-7.9 0.73-15.61-5.69-16.77-7.83 0 0 4.69 9.22 1.7 14.02-3.91 6.29-1.88 8.38-1.88 8.38s-6.04-2.94-7.62-7.12c-1.24-3.26-2.36-6.89-2.5-7.5 0 0 4.71 11.63 1.5 17.12-3.44 5.89-8.12 3.5-8.12 3.5s2.5-3.88 0.25-10.75c-1.16-3.54-3.62-9.54-1-14.75s4.38-7.12 4.38-7.12-4.86-13.29-5.62-17.13l6.7-3.07z" fill="url(#a)"/><g opacity=".2"><path d="m12.97 6.66c1.25 2.64 3.59 7.18 6.22 10.31s4.66 4.59 6.39 4.59c0.2 0 0.39-0.02 0.57-0.06 0.31-0.03 1.21-0.12 2.36-0.12 2.42 0 4.48 0.37 5.8 1.03 1.24 0.63 2.75 1.8 4.36 3.05 2.92 2.26 5.94 4.61 8.93 5 0.77 0.1 1.57 0.17 2.39 0.2-1.77 1.43-4.17 2.77-7.13 3.05-0.34 0.03-0.7 0.05-1.05 0.05-6.59 0-12.85-5.44-13.55-6.72-0.41-0.75-1.18-1.17-1.97-1.17-0.35 0-0.71 0.08-1.04 0.26-1.08 0.57-1.51 1.91-0.95 3 1.07 2.1 3.69 8.78 1.79 11.82-1.31 2.11-2.05 3.88-2.42 5.33-1.31-1.04-2.56-2.33-3.08-3.69-0.27-0.71-0.55-1.49-0.84-2.3-0.76-2.96-1.65-5.15-1.68-5.25-0.35-0.87-1.19-1.4-2.08-1.4-0.22 0-0.45 0.03-0.67 0.1-1.11 0.35-1.77 1.49-1.52 2.63 0.14 0.62 0.85 2.9 1.65 5.21 1.19 4.71 1.23 8.37 0.1 10.3-0.92 1.57-1.97 2.5-3.14 2.78 0.5-2.17 0.69-5.44-0.67-9.59-0.1-0.32-0.22-0.66-0.34-1.02-1.16-3.43-2.75-8.12-0.79-12.03 2.4-4.77 4.02-6.61 4.03-6.62 0.57-0.62 0.74-1.5 0.45-2.28-1.14-3.12-3.94-11-5.1-15.09l2.98-1.37m1.11-2.98-6.7 3.07c0.76 3.84 5.62 17.12 5.62 17.12s-1.76 1.92-4.37 7.13-0.16 11.21 1 14.75c2.25 6.88-0.25 10.75-0.25 10.75s0.94 0.48 2.29 0.48c1.66 0 3.94-0.73 5.84-3.98 1.83-3.13 1.09-8.24 0.11-12.07-0.85-2.43-1.51-4.59-1.61-5.05 0 0 0.87 2.16 1.61 5.05 0.28 0.8 0.58 1.64 0.89 2.45 1.59 4.18 7.62 7.12 7.62 7.12s-2.04-2.09 1.88-8.38c2.99-4.8-1.7-14.02-1.7-14.02 1.1 2.03 8.06 7.9 15.51 7.9 0.42 0 0.84-0.02 1.26-0.06 7.9-0.73 12.31-7.87 12.31-7.87s-1.89 0.37-4.43 0.37c-0.95 0-1.98-0.05-3.05-0.19-3.91-0.52-8.87-5.95-12.57-7.83-2.06-1.04-4.79-1.28-6.81-1.28-1.61 0-2.76 0.15-2.76 0.15s-0.05 0.03-0.17 0.03c-0.45 0-1.8-0.36-4.68-3.79-3.67-4.36-6.84-11.85-6.84-11.85zm41.3 24.32z" fill="#424242"/></g></svg>
