<?xml version="1.0" encoding="utf-8"?>
<!-- Generator: Adobe Illustrator 19.2.1, SVG Export Plug-In . SVG Version: 6.00 Build 0)  -->
<svg version="1.1" id="レイヤー_1" xmlns="http://www.w3.org/2000/svg" xmlns:xlink="http://www.w3.org/1999/xlink" x="0px"
	 y="0px" viewBox="0 0 128 128" style="enable-background:new 0 0 128 128;" xml:space="preserve">
<g>
	<path style="fill:#ED6C30;" d="M79.64,64l29.9-29.9c1.38-1.38,1.38-3.64,0-5.03L98.93,18.46c-1.38-1.38-3.65-1.38-5.03,0L64,48.36
		L34.1,18.46c-1.38-1.38-3.65-1.38-5.03,0l-10.6,10.61c-1.39,1.38-1.39,3.65,0,5.03L48.36,64L18.46,93.9
		c-1.38,1.38-1.38,3.64,0,5.03l10.61,10.61c1.38,1.38,3.65,1.38,5.03,0L64,79.63l29.9,29.91c1.38,1.38,3.65,1.38,5.03,0l10.61-10.61
		c1.38-1.39,1.38-3.65,0-5.03L79.64,64z"/>
</g>
</svg>
