<?xml version="1.0" encoding="utf-8"?>
<!-- Generator: Adobe Illustrator 19.2.1, SVG Export Plug-In . SVG Version: 6.00 Build 0)  -->
<svg version="1.1" id="レイヤー_1" xmlns="http://www.w3.org/2000/svg" xmlns:xlink="http://www.w3.org/1999/xlink" x="0px"
	 y="0px" viewBox="0 0 128 128" style="enable-background:new 0 0 128 128;" xml:space="preserve">
<g>
	<path style="fill:#40C0E7;" d="M112.24,84.45c5.72,9.9,1.65,22.85-8.85,28.88l-19.5,11.33c-10.17,5.97-23.15,2.81-29.22-7.02
		L31.41,75.29c-6.64-9.72-3.5-22.49,7.18-28.55l18.09-10.73c10.98-6.12,21.02-0.31,27.32,9.46L112.24,84.45z"/>
	<path style="fill:#F6E599;" d="M64.34,13.87c0,0-5.41-8.13-31.04,7.29C7.86,36.47,13.75,45.8,13.75,45.8l6.2,13.19
		c3.65,6.05,18.23,3.89,32.82-4.99c14.89-9.07,24.18-21.69,20.47-28.04L64.34,13.87z"/>
	<path style="fill:#FFF3CA;" d="M63.15,14.52c2.8,4.73-5.85,15.07-19.35,23.08c-13.51,8.02-26.72,10.68-29.53,5.94
		c-2.8-4.73,5.86-15.06,19.34-23.07C47.13,12.45,60.35,9.79,63.15,14.52z"/>
	<path style="fill:#F79329;" d="M53.88,15.52l0.02-0.02c-1.8-1.91-5.73-3.41-11.29-2.91c-1.46,0.12-3.34,0.54-4.27,0.34
		c-1.88-0.41-2.64-2.03-2.89-2.92c-0.19-0.59-0.51-2.45-0.51-2.45l-0.02,0c-0.18-0.96-0.5-1.92-0.99-2.82
		c-2.32-4.19-7.21-5.66-10.94-3.3c-3.69,2.34-4.81,7.57-2.52,11.68c0.48,0.89,1.12,1.64,1.83,2.27l-0.01,0.02
		c0,0,1.37,1.21,1.75,1.64c0.59,0.68,1.54,2.15,0.99,4.05c-0.29,0.93-1.53,2.4-2.33,3.63c-2.97,4.64-3.6,8.79-2.91,11.27l0.01-0.01
		c0.09,0.43,0.23,0.86,0.44,1.25c2.39,4.27,11.86,3.31,21.32-2.26c9.64-5.66,15.61-13.94,13.16-18.4
		C54.51,16.17,54.21,15.84,53.88,15.52z"/>
	<path style="fill:#FFFFFF;" d="M96.42,71.79L38.9,72.04c0.22,2.29,0.92,4.51,2.22,6.54l17.95,33.78c4.96,7.76,15.61,10.1,23.8,5.24
		l15.43-9.17c8.18-4.85,11.17-15.44,6.67-23.63L96.42,71.79z"/>
	<g>
		<path style="fill:#006CA2;" d="M85.81,102.9c0.25,0.41,0.11,0.94-0.3,1.18l0,0c-0.41,0.25-0.94,0.11-1.18-0.3L60.75,64.09
			c-0.23-0.41-0.1-0.95,0.31-1.19l0,0c0.4-0.25,0.94-0.11,1.19,0.3L85.81,102.9z"/>
		<path style="fill:#006CA2;" d="M63.9,61.86c0.22,0.38,0.1,0.87-0.28,1.1l-3.91,2.32c-0.38,0.22-0.87,0.1-1.1-0.28l0,0
			c-0.23-0.38-0.11-0.87,0.28-1.1l3.91-2.32C63.18,61.35,63.67,61.48,63.9,61.86L63.9,61.86z"/>
		<path style="fill:#006CA2;" d="M75.73,81.78c0.23,0.39,0.1,0.87-0.28,1.11l-3.92,2.32c-0.37,0.22-0.87,0.1-1.1-0.28l0,0
			c-0.22-0.38-0.1-0.88,0.29-1.1l3.9-2.32C75.02,81.28,75.51,81.4,75.73,81.78L75.73,81.78z"/>
		<path style="fill:#006CA2;" d="M87.56,101.72c0.23,0.38,0.11,0.88-0.28,1.1l-3.9,2.32c-0.39,0.23-0.88,0.1-1.11-0.28l0,0
			c-0.23-0.38-0.11-0.88,0.28-1.1l3.91-2.32C86.85,101.21,87.34,101.34,87.56,101.72L87.56,101.72z"/>
	</g>
</g>
</svg>
