<?xml version="1.0" encoding="UTF-8" standalone="no"?>
<!DOCTYPE svg PUBLIC "-//W3C//DTD SVG 1.1//EN" "http://www.w3.org/Graphics/SVG/1.1/DTD/svg11.dtd">
<svg width="100%" height="100%" viewBox="0 0 128 128" version="1.1" xmlns="http://www.w3.org/2000/svg" xmlns:xlink="http://www.w3.org/1999/xlink" xml:space="preserve" xmlns:serif="http://www.serif.com/" style="fill-rule:evenodd;clip-rule:evenodd;stroke-linejoin:round;stroke-miterlimit:1.41421;">
    <g transform="matrix(3.21642,0,0,3.21642,-126.281,-143.824)">
        <path d="M44.065,61.501C44.065,61.501 44.065,56.903 44.065,54.973C44.065,54.51 44.44,54.135 44.903,54.135C49.237,54.135 69.082,54.135 73.416,54.135C73.879,54.135 74.254,54.51 74.254,54.973C74.254,56.903 74.254,61.501 74.254,61.501C68.983,63.206 65.128,68.645 65.128,75.092L53.191,75.092C53.191,68.645 49.336,63.206 44.065,61.501Z" style="fill:rgb(68,189,255);"/>
    </g>
    <g transform="matrix(3.21642,0,0,3.21642,-126.281,-143.824)">
        <path d="M74.254,54.978C74.254,54.513 73.877,54.135 73.411,54.135C69.069,54.135 49.25,54.135 44.908,54.135C44.442,54.135 44.065,54.513 44.065,54.978C44.065,55.328 44.065,55.733 44.065,56.08C44.065,56.298 44.152,56.507 44.306,56.661C44.46,56.815 44.669,56.902 44.886,56.902C49.192,56.902 69.127,56.902 73.432,56.902C73.65,56.902 73.859,56.815 74.013,56.661C74.167,56.507 74.254,56.298 74.254,56.08C74.254,55.733 74.254,55.328 74.254,54.978Z" style="fill:url(#_Linear1);"/>
    </g>
    <path d="M112.225,54.61C98.909,80.012 84.159,96.63 83.243,97.653L83.198,97.703C83.198,76.967 95.596,59.472 112.55,53.988L112.225,54.61ZM15.45,53.988C32.405,59.472 44.802,76.967 44.802,97.703C44.769,97.666 29.268,80.544 15.45,53.988Z" style="fill:rgb(12,162,244);"/>
    <g transform="matrix(0.0920607,0,0,0.0920607,96.9433,40.7918)">
        <path d="M98.21,41.34C111.57,41.34 127.58,44.23 127.6,44.22L127.6,52.73C127.6,52.73 124,53.2 123.69,56.48C123.53,57.8 126.81,84.83 100.18,84.83C81.27,84.83 73.31,73.51 70.73,64.29C69.56,59.92 68.54,54.92 64.01,54.92C59.48,54.92 58.46,59.92 57.29,64.29C54.71,73.5 46.74,84.83 27.84,84.83C1.21,84.83 4.49,57.81 4.33,56.48C4.01,53.2 0.42,52.73 0.42,52.73L0.42,44.22C0.42,44.22 16.43,41.33 29.79,41.33C43.14,41.33 44.94,43.36 51.19,44.69C57.44,46.02 64,46.02 64,46.02C64,46.02 70.56,46.02 76.81,44.7C83.06,43.37 84.85,41.34 98.21,41.34ZM31.06,45.02C26.79,44.93 21.95,45.21 17.41,46.36C12.31,47.64 10.34,50.21 9.81,55.75C9.28,61.18 8.68,75.02 18.54,80.21C19.11,80.51 20.37,80.71 20.98,79.3C24,66.21 25.61,60.13 32.54,47.22C33.091,45.548 31.913,45.062 31.06,45.02ZM95.631,45.061C89.164,45.313 84.29,46.36 84.29,46.36C74.45,48.42 73.74,54.5 74.36,59.33C75.16,65.4 77.65,73.08 84.4,77.82C84.926,78.197 86.141,78.604 86.736,77.086L86.75,77.05C88.97,66.57 92.27,56.91 97.53,47.16C98.12,45.43 96.803,45.045 95.94,45.05L95.631,45.061Z" style="fill:url(#_Linear2);fill-rule:nonzero;"/>
        <path d="M3.052,62.782C3.462,67.778 4.579,72.747 7.396,76.901C14.692,87.663 27.998,88.061 38.986,84.834C48.284,82.102 55.7,74.551 58.534,65.378C59.631,61.732 60.581,56.479 63.931,56.421C67.279,56.363 68.287,60.939 69.284,64.688C74.423,82.792 95.575,91.003 111.601,84.263C120.567,80.492 123.793,72.386 124.792,64.005C127.412,76.604 127.58,87.661 127.58,92.33C127.58,106.15 99.03,117.36 63.79,117.36C28.56,117.36 0,106.16 0,92.33C0,87.51 0.18,75.884 3.052,62.782ZM63.91,104.82C60.48,104.82 57.04,104.39 53.66,103.51C52.071,103.09 51.103,101.443 51.51,99.85C51.928,98.26 53.579,97.294 55.17,97.71C66.82,100.75 79.38,97.5 87.95,89.23C88.508,88.69 89.254,88.388 90.03,88.388C90.845,88.388 91.626,88.721 92.19,89.31C92.73,89.868 93.032,90.614 93.032,91.39C93.032,92.205 92.699,92.986 92.11,93.55C84.559,100.832 74.371,104.8 63.91,104.82Z" style="fill:url(#_Linear3);"/>
        <path d="M10.453,41.109C19.109,23.637 34.92,8.64 63.79,8.64C92.687,8.64 108.501,23.661 117.152,41.151C111.07,40.387 104.968,39.892 98.848,39.842C92.053,39.808 85.349,40.852 78.826,42.659C67.765,45.725 56.424,44.798 46.095,41.742C35.016,38.516 22.677,39.359 10.453,41.109Z" style="fill:url(#_Linear4);"/>
    </g>
    <defs>
        <linearGradient id="_Linear1" x1="0" y1="0" x2="1" y2="0" gradientUnits="userSpaceOnUse" gradientTransform="matrix(30.1887,0,0,2.76624,44.0651,55.5184)"><stop offset="0" style="stop-color:rgb(155,210,254);stop-opacity:1"/><stop offset="1" style="stop-color:rgb(156,210,255);stop-opacity:0.356863"/></linearGradient>
        <linearGradient id="_Linear2" x1="0" y1="0" x2="1" y2="0" gradientUnits="userSpaceOnUse" gradientTransform="matrix(127.6,0,0,108.72,0,63)"><stop offset="0" style="stop-color:white;stop-opacity:0.913725"/><stop offset="1" style="stop-color:rgb(225,225,225);stop-opacity:0.913725"/></linearGradient>
        <linearGradient id="_Linear3" x1="0" y1="0" x2="1" y2="0" gradientUnits="userSpaceOnUse" gradientTransform="matrix(127.6,0,0,108.72,0,63)"><stop offset="0" style="stop-color:white;stop-opacity:0.913725"/><stop offset="1" style="stop-color:rgb(225,225,225);stop-opacity:0.913725"/></linearGradient>
        <linearGradient id="_Linear4" x1="0" y1="0" x2="1" y2="0" gradientUnits="userSpaceOnUse" gradientTransform="matrix(127.6,0,0,108.72,0,63)"><stop offset="0" style="stop-color:white;stop-opacity:0.913725"/><stop offset="1" style="stop-color:rgb(225,225,225);stop-opacity:0.913725"/></linearGradient>
    </defs>
</svg>
