<?xml version="1.0" encoding="utf-8"?>
<!-- Generator: Adobe Illustrator 19.2.1, SVG Export Plug-In . SVG Version: 6.00 Build 0)  -->
<svg version="1.1" id="レイヤー_1" xmlns="http://www.w3.org/2000/svg" xmlns:xlink="http://www.w3.org/1999/xlink" x="0px"
	 y="0px" viewBox="0 0 128 128" style="enable-background:new 0 0 128 128;" xml:space="preserve">
<g>
	<g>
		<path style="fill:#FFFFFF;" d="M51.82,54.37c0,0.46-0.38,0.84-0.83,0.84H40.86c-0.46,0-0.83-0.37-0.83-0.84v-1.69
			c-2.86,1.54-6.29,2.43-10.19,2.43c-12.21,0-19.84-8.62-19.84-19.26c0-10.63,7.63-19.25,19.84-19.25c3.9,0,7.33,0.89,10.19,2.43
			V16.6c0-0.46,0.38-0.84,0.83-0.84h10.13c0.46,0,0.83,0.38,0.83,0.84V54.37z"/>
		<path style="fill:#FFFFFF;" d="M113.25,120.86c0,0.43-0.35,0.78-0.78,0.78h-10.46c-0.43,0-0.77-0.35-0.77-0.78v-1.58
			c-2.68,1.44-5.89,2.27-9.54,2.27c-11.43,0-18.56-8.07-18.56-18.02c0-9.95,7.14-18.02,18.56-18.02c3.64,0,6.86,0.83,9.54,2.27V70.2
			c0-0.43,0.34-0.78,0.77-0.78h10.46c0.43,0,0.78,0.35,0.78,0.78V120.86z"/>
		<rect x="64" y="0.22" style="fill:#FFFFFF;" width="63.78" height="63.78"/>
		<rect x="0.22" y="64" style="fill:#FFFFFF;" width="63.78" height="63.77"/>
		<g>
			<path style="fill:#ED6C30;" d="M0.22,0.22V64H64V0.22H0.22z M51.82,54.37c0,0.46-0.38,0.84-0.83,0.84H40.86
				c-0.46,0-0.83-0.37-0.83-0.84v-1.69c-2.86,1.54-6.29,2.43-10.19,2.43c-12.21,0-19.84-8.62-19.84-19.26
				c0-10.63,7.63-19.25,19.84-19.25c3.9,0,7.33,0.89,10.19,2.43V16.6c0-0.46,0.38-0.84,0.83-0.84h10.13c0.46,0,0.83,0.38,0.83,0.84
				V54.37z"/>
			<path style="fill:#ED6C30;" d="M29.83,26.95c-5.64,0-9.18,3.99-9.18,8.91c0,4.92,3.54,8.91,9.18,8.91c5.65,0,9.18-3.99,9.18-8.91
				C39.01,30.94,35.48,26.95,29.83,26.95z"/>
			<path style="fill:#ED6C30;" d="M64,64v63.77h63.78V64H64z M113.25,120.86c0,0.43-0.35,0.78-0.78,0.78h-10.46
				c-0.43,0-0.77-0.35-0.77-0.78v-1.58c-2.68,1.44-5.89,2.27-9.54,2.27c-11.43,0-18.56-8.07-18.56-18.02
				c0-9.95,7.14-18.02,18.56-18.02c3.64,0,6.86,0.83,9.54,2.27V70.2c0-0.43,0.34-0.78,0.77-0.78h10.46c0.43,0,0.78,0.35,0.78,0.78
				V120.86z"/>
			<path style="fill:#ED6C30;" d="M91.71,95.62c-5.02,0-8.17,3.55-8.17,7.92c0,4.38,3.14,7.92,8.17,7.92c5.03,0,8.17-3.55,8.17-7.92
				C99.87,99.16,96.74,95.62,91.71,95.62z"/>
			<path style="fill:#2F2F2F;" d="M77.39,57.87h10.45c0.43,0,0.78-0.35,0.78-0.78v-1.57c2.68,1.44,5.88,2.27,9.53,2.27
				c11.43,0,18.57-8.07,18.57-18.02c0-9.95-7.14-18.02-18.57-18.02c-3.65,0-6.85,0.83-9.53,2.27V6.44c0-0.43-0.35-0.78-0.78-0.78
				H77.39c-0.43,0-0.78,0.35-0.78,0.78v50.65C76.6,57.52,76.95,57.87,77.39,57.87z M98.15,31.84c5.02,0,8.17,3.55,8.17,7.93
				c0,4.38-3.14,7.93-8.17,7.93c-5.02,0-8.17-3.55-8.17-7.93C89.99,35.4,93.13,31.84,98.15,31.84z"/>
			<path style="fill:#2F2F2F;" d="M46.67,107.28l-0.4,0.09c-2.47,1.96-6.72,3.44-9.88,3.44c-6.11,0-10.39-4.14-10.39-10.07
				c0-5.93,4.28-10.07,10.39-10.07c3.31,0,6.7,1.06,8.86,2.78l0.38,0.09l0.32-0.23l4.9-8.92l-0.12-0.59
				c-3.71-2.94-8.42-4.37-14.38-4.37c-12.71,0-21.94,8.97-21.94,21.31c0,12.35,9.23,21.31,21.94,21.31c5.82,0,10.84-1.77,14.93-5.26
				l0.12-0.57l-4.42-8.7L46.67,107.28z"/>
		</g>
	</g>
</g>
</svg>
