<svg enable-background="new 0 0 128 128" viewBox="0 0 128 128" xmlns="http://www.w3.org/2000/svg" xmlns:xlink="http://www.w3.org/1999/xlink"><symbol id="d" viewBox="-64.5 -64.5 129 129"><g fill="none" stroke="#4285F4" stroke-miterlimit="10"><rect x="-64" y="-64" width="128" height="128"/><path d="M36.95,37.82C27.32,46.32,14.2,51,0,51 c-14.27,0-27.39-4.62-36.96-13.01C-47.45,28.79-53,15.65-53,0c0-15.58,5.55-28.69,16.04-37.92C-27.36-46.35-14.24-51,0-51 c14.17,0,27.29,4.71,36.95,13.25C47.45-28.45,53-15.4,53,0C53,15.47,47.45,28.55,36.95,37.82z"/><path d="m0 55c-29.59 0-57-19.01-57-55 0-35.8 27.41-55 57-55s57 19.69 57 55c0 35.51-27.41 55-57 55z"/><path d="M0-43c-12.29,0-23.54,3.94-31.68,11.09 C-40.39-24.25-45-13.21-45,0c0,29.7,22.6,43,45,43c21.67,0,45-13.46,45-43S21.67-43,0-43L0-43z"/><line x1="-.01" x2="-.01" y1="51" y2="-51"/><line x1="-16" x2="-16" y1="48.95" y2="-48.93"/><line x1="15.99" x2="15.99" y1="48.91" y2="-48.93"/><line x1="53" x2="-53" y1=".08" y2=".08"/></g></symbol><path d="m19.13 44.43c-0.55 0-1.09-0.04-1.62-0.11-6.31-7.59-10.74-23.21-10.04-35.55 10.77 10.99 23.03 17.29 33.62 17.29 0.24 0 0.49 0 0.73-0.01-4.33 8.9-13.76 18.38-22.69 18.38z" fill="#873191"/><path d="m9.43 13.46c9.43 8.53 19.73 13.67 29.08 14.48-4.55 7.52-12.41 14.49-19.38 14.49-0.19 0-0.37-0.01-0.55-0.02-5.06-6.51-8.72-18.36-9.15-28.95m-1.95-6.67c-0.99 0-1.94 0.73-2.01 1.87-0.75 13.15 3.91 29.02 10.55 36.96 0.31 0.37 0.74 0.61 1.21 0.68 0.63 0.09 1.26 0.13 1.9 0.13 9.63 0 19.75-9.76 24.5-19.52 0.65-1.33-0.33-2.86-1.8-2.86h-0.06c-0.23 0.01-0.45 0.01-0.68 0.01-11.32 0-23.17-7.47-32.21-16.67-0.4-0.42-0.91-0.6-1.4-0.6z" fill="#6F21A1"/><path d="m108.82 44.68c-8.93 0-18.36-9.48-22.7-18.39 0.25 0.02 0.49 0.02 0.74 0.02 10.59 0 22.85-6.29 33.64-17.27 0.69 12.32-3.74 27.94-10.1 35.55-0.49 0.05-1.03 0.09-1.58 0.09z" fill="#873191"/><path d="m118.51 13.71c-0.42 10.59-4.09 22.44-9.14 28.96-0.18 0.01-0.37 0.02-0.55 0.02-6.97 0-14.83-6.97-19.38-14.49 9.35-0.82 19.65-5.96 29.07-14.49m1.96-6.67c-0.5 0-1 0.19-1.41 0.6-9.04 9.2-20.89 16.67-32.21 16.67-0.23 0-0.45 0-0.68-0.01h-0.06c-1.47 0-2.45 1.53-1.8 2.86 4.75 9.76 14.86 19.52 24.5 19.52 0.64 0 1.27-0.04 1.9-0.13 0.47-0.07 0.91-0.31 1.21-0.68 6.64-7.94 11.3-23.82 10.55-36.97-0.06-1.13-1.01-1.86-2-1.86z" fill="#6F21A1"/><linearGradient id="c" x1="63.991" x2="63.991" y1="29.862" y2="110.91" gradientUnits="userSpaceOnUse"><stop stop-color="#792D85" offset=".0758"/><stop stop-color="#AC1CB3" offset=".3085"/><stop stop-color="#D90DDC" offset=".5432"/><stop stop-color="#F503F6" offset=".7253"/><stop stop-color="#f0f" offset=".831"/></linearGradient><path d="m63.99 117.95c-24.57 0-51.01-15.38-51.01-49.15s26.44-49.15 51.01-49.15c13.62 0 26.23 4.51 35.5 12.69 10.15 8.96 15.51 21.57 15.51 36.46 0 14.83-5.36 27.41-15.51 36.39-9.3 8.23-21.9 12.76-35.5 12.76z" fill="url(#c)"/><path d="m63.99 21.65c13.13 0 25.27 4.33 34.18 12.19 9.7 8.57 14.83 20.66 14.83 34.96 0 14.24-5.13 26.31-14.83 34.89-8.93 7.9-21.07 12.26-34.18 12.26-13.17 0-25.31-4.3-34.18-12.09-9.7-8.53-14.83-20.65-14.83-35.06 0-14.47 5.13-26.62 14.82-35.12 8.85-7.75 20.99-12.03 34.19-12.03m0-4c-27.52 0-53.01 17.68-53.01 51.15 0 33.29 25.49 51.15 53.01 51.15s53.01-18.31 53.01-51.15c0-33.02-25.49-51.15-53.01-51.15z" fill="#6F21A1"/><path d="m81.27 87.54c1.24 0 2.32 0.64 2.9 1.7 0.72 1.33 0.54 3.04-0.47 4.58-2.21 3.37-9.52 8.72-19.7 8.72s-17.48-5.35-19.7-8.72c-1.01-1.54-1.18-3.25-0.47-4.57 0.58-1.07 1.66-1.7 2.9-1.7 0.4 0 0.8 0.06 1.21 0.19 4.85 1.52 10.41 2.32 16.08 2.32 5.64 0 11.18-0.8 16.02-2.32 0.42-0.14 0.83-0.2 1.23-0.2z" fill="#242424"/><g fill="#242424"><path d="m55.1 72.23c-0.69 0-1.34-0.25-1.89-0.72-2.98-2.55-12.74-7.93-16.33-9.69-1.34-0.65-1.98-1.97-1.67-3.32 0.31-1.34 1.45-2.27 2.79-2.27 0.25 0 0.5 0.03 0.75 0.1 1.32 0.34 2.61 0.8 3.85 1.37 3.33 1.56 12.56 6.98 14.8 9.8 0.71 0.9 0.85 2.04 0.36 3.05-0.5 1.01-1.54 1.68-2.66 1.68z"/><path d="m72.9 72.23c0.69 0 1.35-0.25 1.89-0.72 2.98-2.55 12.74-7.93 16.33-9.69 1.34-0.65 1.98-1.97 1.67-3.32-0.31-1.34-1.45-2.27-2.79-2.27-0.25 0-0.5 0.03-0.75 0.1-1.32 0.34-2.61 0.8-3.85 1.37-3.33 1.56-12.56 6.98-14.8 9.8-0.71 0.9-0.85 2.04-0.36 3.05 0.5 1.01 1.54 1.68 2.66 1.68z"/><path d="m40.27 73.84c0 4.29 3.36 7.77 7.5 7.77s7.5-3.48 7.5-7.77v-1.46c0-4.29-3.36-7.77-7.5-7.77s-7.5 3.48-7.5 7.77v1.46z"/><path d="m72.73 73.84c0 4.29 3.36 7.77 7.5 7.77s7.5-3.48 7.5-7.77v-1.46c0-4.29-3.36-7.77-7.5-7.77s-7.5 3.48-7.5 7.77v1.46z"/></g><g display="none"><g display="inline"><g opacity=".6"><circle cx="64" cy="64" r="28" fill="none" opacity=".61" stroke="#000" stroke-miterlimit="10" stroke-width=".2625"/><line x1="84" x2="84" y2="128" fill="none" opacity=".61" stroke="#000" stroke-miterlimit="10" stroke-width=".25"/><line x1="44" x2="44" y2="128" fill="none" opacity=".61" stroke="#000" stroke-miterlimit="10" stroke-width=".25"/><line x1="64" x2="64" y2="128" fill="none" opacity=".61" stroke="#000" stroke-miterlimit="10" stroke-width=".25"/><line x1="128" y1="64" y2="64" fill="none" opacity=".61" stroke="#000" stroke-miterlimit="10" stroke-width=".25"/><line x1="128" y1="44" y2="44" fill="none" opacity=".61" stroke="#000" stroke-miterlimit="10" stroke-width=".25"/><line x1="128" y1="83.75" y2="83.75" fill="none" opacity=".61" stroke="#000" stroke-miterlimit="10" stroke-width=".25"/><line x1="128" y1="128" fill="none" opacity=".61" stroke="#000" stroke-miterlimit="10" stroke-width=".25"/><line x2="128" y1="128" fill="none" opacity=".61" stroke="#000" stroke-miterlimit="10" stroke-width=".25"/><g opacity=".61"><path d="M64,4.26c32.94,0,59.74,26.8,59.74,59.74S96.94,123.74,64,123.74S4.26,96.94,4.26,64 S31.06,4.26,64,4.26 M64,4C30.86,4,4,30.86,4,64s26.86,60,60,60s60-26.86,60-60S97.14,4,64,4L64,4z"/></g><path d="m107.97 115.97h-87.94c-4.42 0-8.03-3.61-8.03-8.03v-87.91c0-4.42 3.61-8.03 8.03-8.03h87.94c4.42 0 8.03 3.61 8.03 8.03v87.91c0 4.42-3.61 8.03-8.03 8.03z" fill="none" opacity=".61" stroke="#000" stroke-miterlimit="10" stroke-width=".2578"/><path d="m100 124h-72c-4.4 0-8-3.6-8-8v-104c0-4.4 3.6-8 8-8h72c4.4 0 8 3.6 8 8v104c0 4.4-3.6 8-8 8z" fill="none" opacity=".61" stroke="#000" stroke-miterlimit="10" stroke-width=".2628"/><path d="M113.77,108H14.23 C8.6,108,4,103.4,4,97.77V30.28c0-5.63,4.6-10.23,10.23-10.23h99.54c5.63,0,10.23,4.6,10.23,10.23v67.48 C124,103.4,119.4,108,113.77,108z" fill="none" opacity=".61" stroke="#000" stroke-miterlimit="10" stroke-width=".2627"/></g><g opacity=".2"><defs><rect id="b" width="128" height="128" opacity=".2"/></defs><clipPath id="a"><use xlink:href="#b"/></clipPath><g clip-path="url(#a)"><g fill="none" stroke="#000" stroke-miterlimit="10" stroke-width=".25"><line x1="-28" x2="-28" y1="160" y2="-32"/><line x1="-24" x2="-24" y1="160" y2="-32"/><line x1="-20" x2="-20" y1="160" y2="-32"/><line x1="-16" x2="-16" y1="160" y2="-32"/><line x1="-12" x2="-12" y1="160" y2="-32"/><line x1="-8" x2="-8" y1="160" y2="-32"/><line x1="-4" x2="-4" y1="160" y2="-32"/><line y1="160" y2="-32"/><line x1="4" x2="4" y1="160" y2="-32"/><line x1="8" x2="8" y1="160" y2="-32"/><line x1="12" x2="12" y1="160" y2="-32"/><line x1="16" x2="16" y1="160" y2="-32"/><line x1="20" x2="20" y1="160" y2="-32"/><line x1="24" x2="24" y1="160" y2="-32"/><line x1="28" x2="28" y1="160" y2="-32"/><line x1="32" x2="32" y1="160" y2="-32"/><line x1="36" x2="36" y1="160" y2="-32"/><line x1="40" x2="40" y1="160" y2="-32"/><line x1="44" x2="44" y1="160" y2="-32"/><line x1="48" x2="48" y1="160" y2="-32"/><line x1="52" x2="52" y1="160" y2="-32"/><line x1="56" x2="56" y1="160" y2="-32"/><line x1="60" x2="60" y1="160" y2="-32"/><line x1="64" x2="64" y1="160" y2="-32"/><line x1="68" x2="68" y1="160" y2="-32"/><line x1="72" x2="72" y1="160" y2="-32"/><line x1="76" x2="76" y1="160" y2="-32"/><line x1="80" x2="80" y1="160" y2="-32"/><line x1="84" x2="84" y1="160" y2="-32"/><line x1="88" x2="88" y1="160" y2="-32"/><line x1="92" x2="92" y1="160" y2="-32"/><line x1="96" x2="96" y1="160" y2="-32"/><line x1="100" x2="100" y1="160" y2="-32"/><line x1="104" x2="104" y1="160" y2="-32"/><line x1="108" x2="108" y1="160" y2="-32"/><line x1="112" x2="112" y1="160" y2="-32"/><line x1="116" x2="116" y1="160" y2="-32"/><line x1="120" x2="120" y1="160" y2="-32"/><line x1="124" x2="124" y1="160" y2="-32"/><line x1="128" x2="128" y1="160" y2="-32"/><line x1="132" x2="132" y1="160" y2="-32"/><line x1="136" x2="136" y1="160" y2="-32"/><line x1="137" x2="137" y1="166.05" y2="-25.95"/><line x1="144" x2="144" y1="160" y2="-32"/><line x1="148" x2="148" y1="160" y2="-32"/><line x1="152" x2="152" y1="160" y2="-32"/><line x1="156" x2="156" y1="160" y2="-32"/></g><g fill="none" stroke="#000" stroke-miterlimit="10" stroke-width=".25"><line x1="-32" x2="160" y1="-28" y2="-28"/><line x1="-32" x2="160" y1="-24" y2="-24"/><line x1="-32" x2="160" y1="-20" y2="-20"/><line x1="-32" x2="160" y1="-16" y2="-16"/><line x1="-32" x2="160" y1="-12" y2="-12"/><line x1="-32" x2="160" y1="-8" y2="-8"/><line x1="-32" x2="160" y1="-4" y2="-4"/><line x1="-32" x2="160"/><line x1="-32" x2="160" y1="4" y2="4"/><line x1="-32" x2="160" y1="8" y2="8"/><line x1="-32" x2="160" y1="12" y2="12"/><line x1="-32" x2="160" y1="16" y2="16"/><line x1="-32" x2="160" y1="20" y2="20"/><line x1="-32" x2="160" y1="24" y2="24"/><line x1="-32" x2="160" y1="28" y2="28"/><line x1="-32" x2="160" y1="32" y2="32"/><line x1="-32" x2="160" y1="36" y2="36"/><line x1="-32" x2="160" y1="40" y2="40"/><line x1="-32" x2="160" y1="44" y2="44"/><line x1="-32" x2="160" y1="48" y2="48"/><line x1="-32" x2="160" y1="52" y2="52"/><line x1="-32" x2="160" y1="56" y2="56"/><line x1="-32" x2="160" y1="60" y2="60"/><line x1="-32" x2="160" y1="64" y2="64"/><line x1="-32" x2="160" y1="68" y2="68"/><line x1="-32" x2="160" y1="72" y2="72"/><line x1="-32" x2="160" y1="76" y2="76"/><line x1="-32" x2="160" y1="80" y2="80"/><line x1="-32" x2="160" y1="84" y2="84"/><line x1="-32" x2="160" y1="88" y2="88"/><line x1="-32" x2="160" y1="92" y2="92"/><line x1="-32" x2="160" y1="96" y2="96"/><line x1="-32" x2="160" y1="100" y2="100"/><line x1="-32" x2="160" y1="104" y2="104"/><line x1="-32" x2="160" y1="108" y2="108"/><line x1="-32" x2="160" y1="112" y2="112"/><line x1="-32" x2="160" y1="116" y2="116"/><line x1="-32" x2="160" y1="120" y2="120"/><line x1="-32" x2="160" y1="124" y2="124"/><line x1="-32" x2="160" y1="128" y2="128"/><line x1="-32" x2="160" y1="132" y2="132"/><line x1="-32" x2="160" y1="136" y2="136"/><line x1="-32" x2="160" y1="140" y2="140"/><line x1="-32" x2="160" y1="144" y2="144"/><line x1="-32" x2="160" y1="148" y2="148"/><line x1="-32" x2="160" y1="152" y2="152"/><line x1="-32" x2="160" y1="156" y2="156"/></g><path d="m159.75-31.75v191.5h-191.5v-191.5h191.5m0.25-0.25h-192v192h192v-192z"/></g></g><g fill="#F44336"><rect width="4" height="128" opacity=".3"/><rect x="124" width="4" height="128" opacity=".3"/><rect transform="matrix(-1.837e-16 1 -1 -1.837e-16 66 -62)" x="62" y="-58" width="4" height="120" opacity=".3"/><rect transform="matrix(-1.837e-16 1 -1 -1.837e-16 190 62)" x="62" y="66" width="4" height="120" opacity=".3"/></g></g></g><g display="none"><rect transform="matrix(-1.3469e-10 -1 1 -1.3469e-10 8.6311e-9 128)" width="128" height="128" display="inline" fill="none" stroke="#616161" stroke-miterlimit="10" stroke-width=".25"/><g display="inline" fill="none" stroke="#999" stroke-miterlimit="10" stroke-width=".25"><rect width="128" height="128"/><line x1="8" x2="8" y2="128"/><line x1="16" x2="16" y2="128"/><line x1="24" x2="24" y2="128"/><line x1="32" x2="32" y2="128"/><line x1="40" x2="40" y2="128"/><line x1="48" x2="48" y2="128"/><line x1="56" x2="56" y2="128"/><line x1="63.99" x2="63.99" y2="128"/><line x1="71.99" x2="71.99" y2="128"/><line x1="79.99" x2="79.99" y2="128"/><line x1="87.99" x2="87.99" y2="128"/><line x1="95.99" x2="95.99" y2="128"/><line x1="103.99" x2="103.99" y2="128"/><line x1="111.99" x2="111.99" y2="128"/><line x1="119.99" x2="119.99" y2="128"/><line x1="128" y1="120" y2="120"/><line x1="128" y1="112" y2="112"/><line x1="128" y1="104" y2="104"/><line x1="128" y1="96" y2="96"/><line x1="128" y1="88" y2="88"/><line x1="128" y1="80" y2="80"/><line x1="128" y1="72" y2="72"/><line x1="128" y1="64.01" y2="64.01"/><line x1="128" y1="56.01" y2="56.01"/><line x1="128" y1="48.01" y2="48.01"/><line x1="128" y1="40.01" y2="40.01"/><line x1="128" y1="32.01" y2="32.01"/><line x1="128" y1="24.01" y2="24.01"/><line x1="128" y1="16.01" y2="16.01"/><line x1="128" y1="8.01" y2="8.01"/></g><use transform="matrix(1 0 0 -1 64 64)" x="-64.5" y="-64.5" width="129" height="129" display="inline" xlink:href="#d"/></g></svg>
