<?xml version="1.0" encoding="utf-8"?>
<!-- Generator: Adobe Illustrator 19.2.1, SVG Export Plug-In . SVG Version: 6.00 Build 0)  -->
<svg version="1.1" id="Layer_1" xmlns="http://www.w3.org/2000/svg" xmlns:xlink="http://www.w3.org/1999/xlink" x="0px" y="0px"
	 viewBox="0 0 128 128" style="enable-background:new 0 0 128 128;" xml:space="preserve">
<path id="XMLID_44_" style="fill:#855C52;" d="M68.9,94.86c-1.54,6.82-0.33,16.98,3.33,21.27c5.67,6.65,16.87,3.2,20.39,1.24
	c10.08-5.61,22.57-11.42,28.72-19.76c4-5.43,7.36-16.45,1.5-22.38c-0.51-0.54-5.21-2.44-5.73-2.89c-7.81-6.82-14.3-5.07-21.45-2.04
	c-6.52,2.74-11.05,7.27-13.67,11.94c-3.2,5.66-7.31,6.92-10.78,6.48l-0.02,0.17c-0.73,1.49-1.21,2.38-1.21,2.38
	C69.58,92.26,69.2,93.48,68.9,94.86z"/>
<path id="XMLID_43_" style="fill:#BDCF46;" d="M105.81,77.27c0.47,2.8-3.13,4.44-4.63,5.88c-0.68,0.65-0.14,2.06,0.35,2.64
	c1.56,1.84,3.18-2.15,6.15-1.69c2.97,0.45,2.75,6.13,1.94,7.68c-0.4,0.76-1.16,2.27-2.57,2.32c-1.45,0.05-2.1-0.79-3.07-0.62
	c-1.92,0.34-3.55,2.12-2.13,3.77c2.37,2.75,12.36-2.04,14.03,0.4c0.83,1.22-0.78,3.68-1.72,5.12c-0.47,0.71-2.04,3.06-4.68,3.82
	c-0.38,0.11-0.69,0.2-1.12,0.2c-1.92,0-2.45-1.73-3.89-1.65c-1.1,0.07-2.08,1.16-2.37,2.11c-0.17,0.54-0.16,1.13-0.13,1.32
	c0.32,1.92,0.81,2.43,0.86,3.22c0.08,1.35-1.16,2.48-2.14,3.27c-2.79,2.26-4.98,2.51-6.56,2c-0.13-0.04-2.45-0.95-2.94-2.84
	c-0.23-0.89,0.02-1.68-0.61-2.83c-0.2-0.36-0.44-0.78-0.92-0.99c-0.73-0.31-1.71,0-2.24,0.59c-0.74,0.83-0.14,1.69-0.79,2.7
	c-0.64,1.01-1.93,1.25-2.31,1.32c-2.38,0.44-5.21-1.34-5.47-3.23c-0.23-1.66,1.61-2.8,0.99-3.95c-0.3-0.55-1.02-0.84-1.58-0.86
	c-1.51-0.05-2,1.84-3.8,2c-0.61,0.06-1.09-0.06-1.64-0.33c-3.62-1.73-4.39-4.6-3.42-8.36c0.97-3.76,6.89-1.59,6.8-4.19
	c-0.09-2.6-1.63-2.65-2.92-1.37c-0.52,0.52-2.27,2.05-3.51,1.82c-1.24-0.23-3.1-1.77-2.83-4.33c0.16-1.47,3.63-2.12,5.51-3.64
	c1.38-1.12-2.02-2.67-2.42-3.71c-0.95-2.45-2.75-2.57,1-6.63c5.99-6.5,13.19-1.65,14.21-1.92c1.11-0.29,1.26-2.09,1.95-2.96
	c0.69-0.88,2.1-1.49,3.69-0.71c3.16,1.57,0.49,4.45-0.65,5.37c-1.23,1-0.32,0.76,2.14,0.47c2.46-0.29-0.65-8.61,5.09-9.87
	C101.17,67.8,105.18,73.5,105.81,77.27z"/>
<path id="XMLID_42_" style="fill:#BDCF46;" d="M71.53,115.45c0,0-6.02-5.11-4.64-15.67c0.69-5.29,3.28-8.01,3.28-8.01l9.98-1.75
	l4.46,2.89c-6.6,6.5-7.86,11.15-7.68,14.28c0.07,1.25,0.46,3.9-1.12,5.93C74.64,114.61,72.86,115.19,71.53,115.45z"/>
<path id="XMLID_41_" style="fill:#BDCF46;" d="M93.63,75.3c2.02-0.3,3.15,2.3,4.16,3.39c0.46,0.5,1.48,0.13,1.9-0.22
	c1.34-1.1-1.5-2.31-1.14-4.43c0.36-2.12,4.43-1.9,5.53-1.3c0.54,0.3,1.62,0.86,1.63,1.88c0.02,1.04-0.59,1.5-0.48,2.2
	c0.22,1.38,1.48,2.57,2.68,1.57c1.2-1-0.61-4.04,0.4-5.08c1.34-1.37,5.11-0.61,6.2,1.54c1.09,2.15-1.28,1.88,0.44,4.18
	c0.27,0.36,0.51,0.51,0.74,0.53c0.94,0.06,1.41-1.41,2.65-1.69c1.12-0.26,2.21,0.7,2.6,1.03c1.62,1.41,2.47,4.23,1.27,5.93
	c-0.04,0.06-0.9,1.25-2.26,1.42c-1.04,0.13-1.79-0.31-2.94,0.04c-0.24,0.07-0.48,0.22-0.76,0.49c-1.11,1.1-0.38,2.5,1.01,2.82
	c0.89,0.21,1.23,0.04,2.15,0.48c0.35,0.17,0.75,0.36,0.95,0.72c0.69,1.19-0.91,4.09-2.59,4.22c-1.61,0.13-2.5-2.34-3.78-1.98
	c-0.7,0.2-1.28,1.19-1.14,1.98c0.26,1.47,2.92,1.58,3.13,3.18c0.05,0.39-0.03,0.72-0.26,1.18c-1.29,2.57-3.35,3.09-6.04,2.35
	c-2.69-0.74-1.06-4.96-2.93-4.93s-1.92,1.14-1.02,2.08c0.36,0.38,1.45,1.65,1.26,2.54c-0.18,0.89-1.31,2.21-3.14,1.98
	c-1.06-0.13-1.48-2.63-2.55-4c-0.79-1-2.23-1.07-2.98-0.79c-1.77,0.65-1.59,4.42-4.45,1.69c-4.59-4.38-1.02-9.48-1.2-10.22
	c-0.19-0.8-1.48-0.93-2.1-1.43c-0.62-0.5-1.04-1.53-0.46-2.65c1.16-2.25,3.2-0.3,3.85,0.53c0.7,0.89,0.54,0.24,0.36-1.53
	c-0.18-1.77-6.18,0.37-7.02-3.77C86.78,78.52,90.91,75.71,93.63,75.3z"/>
<path id="XMLID_40_" style="fill:#86A32C;" d="M84.9,70.37c2.03,0.2,2.49,3,3.2,4.31c0.33,0.59,1.4,0.49,1.89,0.26
	c1.57-0.74-0.89-2.6-0.02-4.57c0.87-1.97,4.76-0.75,5.68,0.1c0.45,0.42,1.36,1.23,1.12,2.22c-0.24,1.01-0.94,1.31-1,2.01
	c-0.12,1.39,0.8,2.86,2.21,2.18c1.41-0.68,0.4-4.07,1.64-4.83c1.64-1,5.11,0.66,5.63,3.01s-1.7,1.51-0.6,4.16
	c1.1,2.65,3.21-3.24,5.44,1.8c2.23,5.04-1.4,6.48-2.36,6.43c-2-0.12-2.37-1.19-3.72-0.39s-0.98,2.33,0.29,2.98
	c1.27,0.65,2.06,0.53,2.3,1.75c0.23,1.22-0.7,4.1-2.87,3.75c-2.17-0.35-2.84-3.99-4.08-2.29c-1.23,1.69,2.74,3.6,0.77,5.89
	c-1.88,2.18-4.01,2.18-6.43,0.8s0.19-5.07-1.63-5.5c-1.82-0.42-2.14,0.63-1.5,1.77c0.26,0.46,1,1.96,0.6,2.77
	c-0.39,0.81-1.81,1.82-3.53,1.15c-0.99-0.39-0.78-2.91-1.49-4.5c-0.52-1.17-1.9-1.58-2.7-1.5c-1.88,0.2-2.62,3.9-4.73,0.54
	c-3.37-5.37,1.33-9.44,1.34-10.2c0.01-0.82-1.21-1.27-1.69-1.91c-0.48-0.64-0.64-1.74,0.2-2.68c1.68-1.9,3.17,0.5,3.6,1.46
	c0.46,1.04,0.47,0.37,0.73-1.39c0.26-1.76-6.08-1.16-5.88-5.38C77.47,71.82,82.17,70.1,84.9,70.37z"/>
<path id="XMLID_39_" style="fill:#BDCF46;" d="M95.38,63.38c2.03,0.2,2.49,3,3.2,4.31c0.33,0.59,1.4,0.49,1.89,0.26
	c1.57-0.74-0.89-2.6-0.02-4.57c0.87-1.97,4.76-0.75,5.68,0.1c0.45,0.42,1.36,1.23,1.12,2.22c-0.24,1.01-0.94,1.31-1,2.01
	c-0.12,1.39,0.8,2.86,2.21,2.18c1.41-0.68,5.57-0.3,6.68,2.35c1.1,2.65,3.21-3.24,5.44,1.8c2.23,5.04-1.4,6.48-2.36,6.43
	c-2-0.12-2.37-1.19-3.72-0.39s-0.98,2.33,0.29,2.98c1.27,0.65,2.06,0.53,2.3,1.75c0.23,1.22-0.7,4.1-2.87,3.75
	c-2.17-0.35-2.84-3.99-4.08-2.29c-1.23,1.69,2.74,3.6,0.77,5.89c-1.88,2.18-4.01,2.18-6.43,0.8s0.19-5.07-1.63-5.5
	c-1.82-0.42-2.14,0.63-1.5,1.77c0.26,0.46,1,1.96,0.6,2.77c-0.39,0.81-1.81,1.82-3.53,1.15c-0.99-0.39-0.78-2.91-1.49-4.5
	c-0.52-1.17-1.9-1.58-2.7-1.5c-1.88,0.2-2.62,3.9-4.73,0.54c-3.37-5.37,1.33-9.44,1.34-10.2c0.01-0.82-1.21-1.27-1.69-1.91
	s-0.64-1.74,0.2-2.68c1.68-1.9,3.17,0.5,3.6,1.46c0.46,1.04,0.47,0.37,0.73-1.39c0.26-1.76-6.08-1.16-5.88-5.38
	C87.95,64.83,92.65,63.11,95.38,63.38z"/>
<path id="XMLID_38_" style="fill:#BDCF46;" d="M88.39,65.13c2.03,0.2,2.49,3,3.2,4.31c0.33,0.59,1.4,0.49,1.89,0.26
	c1.57-0.74-0.89-2.6-0.02-4.57c0.87-1.97,4.76-0.75,5.68,0.1c0.45,0.42,1.36,1.23,1.12,2.22c-0.24,1.01-0.94,1.31-1,2.01
	c-0.12,1.39,0.8,2.86,2.21,2.18c1.41-0.68,0.4-4.07,1.64-4.83c1.64-1,5.11,0.66,5.63,3.01s-1.7,1.51-0.6,4.16
	c1.1,2.65,3.21-3.24,5.44,1.8c2.23,5.04-1.4,6.48-2.36,6.43c-2-0.12-2.37-1.19-3.72-0.39s-0.98,2.33,0.29,2.98
	c1.27,0.65,2.06,0.53,2.3,1.75c0.23,1.22-0.7,4.1-2.87,3.75c-2.17-0.35-2.84-3.99-4.08-2.29c-1.23,1.69,2.74,3.6,0.77,5.89
	c-1.88,2.18-4.01,2.18-6.43,0.8s0.19-5.07-1.63-5.5c-1.82-0.42-2.14,0.63-1.5,1.77c0.26,0.46,1,1.96,0.6,2.77
	c-0.39,0.81-1.81,1.82-3.53,1.15c-0.99-0.39-0.78-2.91-1.49-4.5c-0.52-1.17-1.9-1.58-2.7-1.5c-1.88,0.2-2.62,3.9-4.73,0.54
	c-3.37-5.37,1.33-9.44,1.34-10.2c0.01-0.82-1.21-1.27-1.69-1.91c-0.48-0.64-0.64-1.74,0.2-2.68c1.68-1.9,3.17,0.5,3.6,1.46
	c0.46,1.04,0.47,0.37,0.73-1.39c0.26-1.76-6.08-1.16-5.88-5.38C80.96,66.57,85.66,64.86,88.39,65.13z"/>
<path id="XMLID_37_" style="fill:#BDCF46;" d="M90.14,58.14c2.03,0.2,2.49,3,3.2,4.31c0.33,0.59,1.4,0.49,1.89,0.26
	c1.57-0.74-0.89-2.6-0.02-4.57c0.87-1.97,4.76-0.75,5.68,0.1c0.45,0.42,1.36,1.23,1.12,2.22c-0.24,1.01-0.94,1.31-1,2.01
	c-0.12,1.39,0.8,2.86,2.21,2.18c1.41-0.68-0.99-1.1,0.25-1.85c1.64-1,5.37-0.16,5.9,2.18s-0.58-0.63,0.53,2.02
	c1.1,2.65,2.18-2.16,4.41,2.88s-0.37,5.4-1.33,5.34c-2-0.12-2.37-1.19-3.72-0.39c-1.35,0.79-0.98,2.33,0.29,2.98
	c1.27,0.65,2.06,0.53,2.3,1.75c0.23,1.22-0.7,4.1-2.87,3.75c-2.17-0.35-2.84-3.99-4.08-2.29c-1.23,1.69,2.74,3.6,0.77,5.89
	c-1.88,2.18-4.01,2.18-6.43,0.8s0.19-5.07-1.63-5.5c-1.82-0.42-2.14,0.63-1.5,1.77c0.26,0.46,1,1.96,0.6,2.77
	c-0.39,0.81-1.81,1.82-3.53,1.15c-0.99-0.39-0.78-2.91-1.49-4.5c-0.52-1.17-1.9-1.58-2.7-1.5c-1.88,0.2-2.62,3.9-4.73,0.54
	c-3.37-5.37,1.33-9.44,1.34-10.2c0.01-0.82-1.21-1.27-1.69-1.91s-0.64-1.74,0.2-2.68c1.68-1.9,3.17,0.5,3.6,1.46
	c0.46,1.04,0.47,0.37,0.73-1.39c0.26-1.76-6.08-1.16-5.88-5.38C82.71,59.58,87.41,57.87,90.14,58.14z"/>
<path id="XMLID_36_" style="fill:#FFF3AB;" d="M98.35,89.17c0,0,5.54-1.15,9.25,1.03c2.27,1.33,4.36,4.92,3.28,8.25
	c-0.65,2.01-2.39,3.59-4.31,4.21c-0.61,0.19-2.11,0.68-3.66,0.11c-1.02-0.37-1.18-0.88-2.18-1.04c-0.98-0.15-2.15,0.13-2.89,0.87
	c-0.66,0.67-0.53,1.26-0.93,2.29c-0.53,1.38-1.75,2.86-3.33,3.5c-2.08,0.83-4.88,0.22-6.28-1.31c-0.61-0.66-0.74-1.27-1.58-1.64
	c-0.41-0.18-1.59-0.26-2.16,0.22c-0.63,0.53-0.65,1.66-1.06,2.16c-0.79,0.96-1.67,1.24-2.84,1.06c-2.06-0.31-4.36-2.2-4.97-3.82
	c-0.75-2.01-2.35-6.61-0.11-8.79c2.24-2.18,0.99-3.87,5.86-4.85c4.87-0.98,16.43-4.48,18.09-4.95c1.3-0.37,4.64-0.51,6.07,1.49
	c0.54,0.76,0.66,1.62,0.67,2.25"/>
<path id="XMLID_35_" style="fill:#FFF3AB;" d="M109.35,91.96c0,0-0.46-1.86,0.97-2.9c1.43-1.04,3.33,1.66,5.25,0.16
	c3.38-2.62,3.53-4.3,0.76-8.34c-2.77-4.04-14.2-2.4-14.2-2.4L91.52,91.1l0.21,5.81l2.33,2.91L109.35,91.96z"/>
<path id="XMLID_34_" style="fill:#FBC21A;" d="M90.91,98.25c2.77,0,6.02-0.19,9.76-0.57c1.56-0.15,2.69-1.54,2.53-3.1
	c-0.15-1.56-1.56-2.7-3.1-2.53c-15.21,1.52-16.74-1.97-16.82-2.07c0.03-0.1-0.15,0.48,0,0c0.49-1.53,1.22-3.7-0.07-6.07
	C81.72,81.19,78.47,80,73.26,80c0,0-0.01,0-0.01,0c-1.56,0-2.83,1.11-2.83,2.67c0,1.56,1.26,2.76,2.82,2.76
	c3.47,0.01,4.78,0.7,4.99,1.08c0.14,0.25-0.15,1.12-0.35,1.78c-0.42,1.33-1,3.14-0.29,5.06C78.85,96.69,82.96,98.25,90.91,98.25z"/>
<path id="XMLID_33_" style="fill:#FBC21A;" d="M91.52,73.12c-2.56-0.17-5.57-0.19-9.06-0.07c-1.45,0.05-2.58,1.26-2.53,2.71
	c0.05,1.45,1.28,2.59,2.71,2.53c14.15-0.47,15.82,1.67,15.88,1.76c-0.04,0.09-0.29,0.75-0.46,1.18c-0.54,1.39-1.38,3.81-0.33,6.08
	c1.21,2.61,4.12,2.69,8.93,4.69c0,0,0.01,0,0.01,0c1.44,0,2.7-1.32,2.8-2.76c0.1-1.45-0.99-2.86-2.43-2.96
	c-3.21-0.22-4.37-1.06-4.54-1.42c-0.11-0.24,0.21-1.09,0.44-1.68c0.47-1.2,1.12-2.87,0.58-4.69C102.56,75.33,98.86,73.6,91.52,73.12
	z"/>
<ellipse id="XMLID_32_" style="fill:#ED6C30;" cx="88.35" cy="100.17" rx="4.85" ry="5.1"/>
<ellipse id="XMLID_30_" style="fill:#ED6C30;" cx="106.6" cy="81.8" rx="4.83" ry="5.64"/>
<path id="XMLID_29_" style="fill:#FBC21A;" d="M119.88,79.5c0.61-0.47,0.8-1.33,0.4-2.01c-0.43-0.75-1.38-1.01-2.13-0.58
	c-0.46,0.26-1.67,0.83-3.11,0.46c-0.89-0.23-1.51-0.73-1.88-1.11l-0.09-0.09c-0.17-0.15-1.78-1.51-4.1-2.02
	c-4.47-0.98-8.93,2.02-10.67,4.47l-0.21,0.3c-0.29,0.41-0.8,1.16-1.56,2.2c-0.57,0.78-1.15,1.54-1.34,1.77
	c-0.64,0.78-1.78,1.52-3.32,2.14c-0.81,0.32-1.19,1.23-0.87,2.03c0.32,0.8,1.23,1.19,2.03,0.87c2.07-0.82,3.61-1.86,4.59-3.07
	c0.2-0.24,0.82-1.06,1.43-1.89c0.78-1.07,1.32-1.84,1.61-2.27l0.19-0.27c1.22-1.72,4.59-3.86,7.46-3.23
	c1.42,0.31,2.48,1.13,2.68,1.29c0.65,0.66,1.73,1.49,3.27,1.9c2.55,0.67,4.67-0.32,5.46-0.77C119.77,79.58,119.83,79.54,119.88,79.5
	z"/>
<path id="XMLID_9_" style="fill:#FBC21A;" d="M100.72,85.78c-0.18-1.11-0.5-2.63-1.62-2.44c-2.41,0.4-0.99-0.07-2.22,1.24
	c-2.4,0.51-4.17,1.52-5.28,3.01c-3.26,0.49-5.8,2.3-7.26,3.39c-0.41,0.3-0.76,0.7-1.07,1.13c-1.42,0.41-2.45,1.02-3.1,1.46
	c-0.94,0.65-2.77,1.91-3.38,4.17c-0.15,0.57-0.44,1.62,0,2.79c0.41,1.11,1.52,2.47,2.75,2.46c1.57-0.02,1.64-2.27,4.38-3.67
	c0.5-0.26,1.94-1,3.75-0.85c1.36,0.11,1.53,0.61,3.23,0.69c0.45,0.02,1.86,0.03,3.05-0.58c0.32-0.16,0.62-0.38,0.93-0.66
	c1.13-1.04,1.35-2.2,1.5-3.05c0.15-0.82,0.36-1.19,0.41-1.25c0.92-1.06,3.35,0.92,5.46-0.05c1.26-0.58,2.21-2.11,1.92-3.25
	c-0.21-0.81-0.99-1.23-2.12-1.83c-1.35-0.73-2.24-0.6-2.5-0.55c-0.04,0.01-0.07,0.01-0.1,0.02c0.04-0.09,0.09-0.17,0.14-0.26
	c0.53-0.81,1.68-1.37,3.42-1.66C104.13,85.86,100.9,86.89,100.72,85.78z"/>
<path id="XMLID_25_" style="fill:#BDCF46;" d="M84.07,64.88c2.02,0.2,2.48,2.99,3.19,4.29c0.32,0.59,1.4,0.48,1.89,0.25
	c1.56-0.73-0.89-2.59-0.02-4.55c0.87-1.96,4.74-0.75,5.66,0.1c0.45,0.42,1.35,1.22,1.12,2.21c-0.24,1.01-0.94,1.3-1,2
	c-0.12,1.39,0.8,2.85,2.2,2.17c1.41-0.67,0.4-4.05,1.63-4.8c1.63-1,5.08,0.66,5.61,3c0.53,2.34-1.69,1.51-0.59,4.14
	s3.2-3.23,5.42,1.79c2.22,5.02-1.37,5.2-2.33,5.14c-1.99-0.12-2.38,0.07-3.72,0.86c-1.34,0.79-0.97,2.32,0.29,2.97
	c1.26,0.65,2.05,0.53,2.29,1.74c0.23,1.21-0.7,4.08-2.86,3.74s-2.83-3.97-4.06-2.28s2.73,3.59,0.77,5.86
	c-1.87,2.17-3.99,2.17-6.4,0.8c-2.41-1.37,0.61-4.29-1.21-4.72s-2.18,0.65-1.53,1.78c0.26,0.46,0.62,1.17,0.23,1.98
	c-0.39,0.81-3.75,3.26-6.65,2.03c-2.9-1.23-0.22-4.05-2.06-4.94c-1.83-0.89-2.63,0.29-3.68-1.38c-3.36-5.35,1.33-9.4,1.33-10.16
	c0.01-0.82-1.2-1.26-1.68-1.9c-0.48-0.64-0.63-1.73,0.2-2.67c1.67-1.89,3.16,0.5,3.58,1.45c0.46,1.03,0.46,0.36,0.72-1.39
	c0.26-1.75-6.06-1.16-5.86-5.36C76.67,66.31,81.35,64.61,84.07,64.88z"/>
<ellipse id="XMLID_23_" style="fill:#ED6C30;" cx="89.19" cy="82.11" rx="7.56" ry="8.71"/>
<path id="XMLID_22_" style="fill:#FBC21A;" d="M76,64.13c0.01,0.03,0.02,0.06,0.02,0.09c0.31,1.09,1.63,1.62,2.71,1.27
	c2.22-0.74,4.03-0.81,4.86-0.18c0.62,0.47,1.25,2.01,2.23,4.57c0.28,0.72,0.5,1.3,0.66,1.78c0.54,1.54,0.93,2.65,2.29,3.49
	c1.31,0.81,2.49,0.7,3.35,0.62c0.51-0.05,0.89-0.08,1.32,0.06c0.92,0.29,1.77,1.25,2.52,2.84c0.48,1.02,1.7,1.46,2.72,0.98
	c1.02-0.48,1.47-1.69,0.98-2.72c-1.25-2.68-2.94-4.36-5-5.01c-1.21-0.38-2.2-0.29-2.92-0.23c-0.62,0.06-0.71,0.05-0.83-0.03
	c-0.15-0.15-0.37-0.79-0.56-1.35c-0.18-0.52-0.4-1.15-0.7-1.92c-1.29-3.34-2-5.19-3.54-6.36c-2-1.53-5-1.65-8.68-0.43
	C76.41,61.94,75.7,63.08,76,64.13z"/>
<path id="XMLID_21_" style="fill:#FCD0A7;" d="M4.31,40.49C4.37,43.05,4.24,47.83,7.31,51c3.51,3.62,54.56,54.74,65.05,65.36
	c0,0-2.6-3.8-2.1-9.18c0.4-4.22,4.7-14.84,19.49-24.94L5.47,30.74C4.91,32.5,4.24,37.99,4.31,40.49z"/>
<path id="XMLID_20_" style="fill:#B79178;" d="M5.47,30.74c0,0,25.16,29.26,44.16,44.91c6.03,4.97,17.64,8.48,22.61,9.31
	c5.62,0.94,11.15,0.34,14.05-0.2c2.56-1.34,3.44-2.45,3.46-2.51c0,0-10.69-3.17-5.78-6.61l0,0c-6.07,2.48-21.07-0.14-22.19-1.26
	c-2.46-2.45-47.6-42.62-47.6-42.62s-4.29-3.74-4.78-9.29C7.81,25,6.53,27.6,5.47,30.74z"/>
<path id="XMLID_19_" style="fill:#FCD0A7;" d="M26.57,8.87C15.24,14.01,9.56,20.85,8.88,23.81C8.08,27.24,13.56,32,13.56,32
	s8.42,9.91,18.1,19.75c8.71,8.85,13.16,14.69,22.35,20.91c6.1,4.13,10.76,5.95,13.06,6.75c7.31,2.56,13.37,2.86,17.2,3.01
	c7.36,0.3,12.89-0.3,19.01-1.8c12.57-3.08,15.98-5.75,19.67-5.29L50,7c-0.34-0.31-0.75-0.53-1.2-0.64c-1.21-0.3-3.97-0.84-8.33-0.91
	C34.93,5.35,28.31,8.09,26.57,8.87z"/>
<path id="XMLID_18_" style="fill:#B79178;" d="M63.24,40.27l1.44,2.49c0.47,0.82-0.38,1.76-1.24,1.36l-3.33-1.52
	c-0.37-0.17-0.59-0.55-0.56-0.95l0.09-1.17c0.04-0.55,0.53-0.95,1.07-0.89l1.8,0.2C62.82,39.83,63.09,40.01,63.24,40.27z"/>
<path id="XMLID_17_" style="fill:#B79178;" d="M35.46,36.3l0.86,0.29c0.56,0.19,0.74,0.88,0.35,1.32c0,0-1.28,1.26-1.9,0.82
	c-0.62-0.44-0.38-1.54-0.38-1.54C34.31,36.58,34.88,36.11,35.46,36.3z"/>
<path id="XMLID_16_" style="fill:#B79178;" d="M44.17,47.09l0.86,0.29c0.56,0.19,0.74,0.88,0.35,1.32c0,0-1.28,1.26-1.9,0.82
	c-0.62-0.44-0.38-1.54-0.38-1.54C43.02,47.37,43.6,46.9,44.17,47.09z"/>
<path id="XMLID_2_" style="fill:#B79178;" d="M22.69,60.06l0.86,0.29c0.56,0.19,0.74,0.88,0.35,1.32c0,0-1.28,1.26-1.9,0.82
	c-0.62-0.44-0.38-1.54-0.38-1.54C21.54,60.34,22.11,59.87,22.69,60.06z"/>
<path id="XMLID_15_" style="fill:#B79178;" d="M63.47,55.32l2.75,1.44c0.63,0.33,0.56,1.25-0.11,1.49l-2.91,1.03
	c-0.3,0.11-0.63,0.03-0.85-0.2l-1.27-1.31c-0.33-0.34-0.3-0.9,0.08-1.2l1.44-1.15C62.83,55.2,63.18,55.17,63.47,55.32z"/>
<path id="XMLID_14_" style="fill:#B79178;" d="M23.9,27.17l-1.18-2.62c-0.39-0.86,0.56-1.71,1.37-1.23l3.15,1.85
	c0.35,0.21,0.53,0.61,0.46,1.01l-0.21,1.15c-0.1,0.54-0.62,0.89-1.16,0.77l-1.77-0.38C24.28,27.66,24.03,27.45,23.9,27.17z"/>
<path id="XMLID_13_" style="fill:#B79178;" d="M18.1,57.22l-1.18-2.62c-0.39-0.86,1.93-2.91,2.74-2.43l1.79,3.06
	c0.35,0.21,0.53,0.61,0.46,1.01l-0.21,1.15c-0.1,0.54-0.62,0.89-1.16,0.77l-1.77-0.38C18.48,57.71,18.23,57.5,18.1,57.22z"/>
<path id="XMLID_12_" style="fill:#B79178;" d="M55.94,86.14l-0.74-1.64c-0.5-1.12,0.73-2.23,1.79-1.61l2.17,1.28
	c0.46,0.27,0.7,0.79,0.6,1.32l-0.12,0.65c-0.13,0.7-0.81,1.16-1.51,1.01l-1.32-0.29C56.43,86.78,56.11,86.51,55.94,86.14z"/>
<path id="XMLID_11_" style="fill:#B79178;" d="M33.02,70.9l-1.18-2.62c-0.39-0.86,0.56-1.71,1.37-1.23l3.15,1.85
	c0.35,0.21,0.53,0.61,0.46,1.01l-0.21,1.15c-0.1,0.54-0.62,0.89-1.16,0.77l-1.77-0.38C33.4,71.38,33.15,71.18,33.02,70.9z"/>
<path id="XMLID_10_" style="fill:#B79178;" d="M53.14,31.6l-0.54-0.19c-0.35-0.12-0.44-0.45-0.17-0.62c0,0,0.89-0.48,1.27-0.24
	c0.38,0.24,0.17,0.72,0.17,0.72C53.9,31.55,53.5,31.72,53.14,31.6z"/>
<path id="XMLID_8_" style="fill:#B79178;" d="M51.39,20.64l-0.9-0.1c-0.58-0.07-0.91-0.71-0.62-1.22c0,0,1-1.49,1.69-1.19
	c0.7,0.3,0.69,1.43,0.69,1.43C52.46,20.12,51.99,20.7,51.39,20.64z"/>
<path id="XMLID_7_" style="fill:#B79178;" d="M74.4,38.65l-0.82-0.37c-0.54-0.24-0.65-0.95-0.21-1.35c0,0,1.41-1.12,1.98-0.62
	c0.57,0.5,0.21,1.57,0.21,1.57C75.57,38.49,74.95,38.9,74.4,38.65z"/>
<path id="XMLID_6_" style="fill:#B79178;" d="M78.77,68.22l-0.82-0.37c-0.54-0.24-0.65-0.95-0.21-1.35c0,0,1.41-1.12,1.98-0.62
	c0.57,0.5,0.21,1.57,0.21,1.57C79.94,68.05,79.32,68.47,78.77,68.22z"/>
<path id="XMLID_45_" style="fill:#B79178;" d="M45.3,84.2l-0.82-0.37c-0.54-0.24-0.65-0.95-0.21-1.35c0,0,1.41-1.12,1.98-0.62
	c0.57,0.5,0.21,1.57,0.21,1.57C46.48,84.04,45.85,84.45,45.3,84.2z"/>
<path id="XMLID_5_" style="fill:#B79178;" d="M41.6,16.1l-1.46-1.6c-0.33-0.37-0.2-1.28,0.22-1.47l1.81-0.84
	c0.19-0.09,0.37,0.01,0.48,0.25l0.61,1.38c0.16,0.36,0.08,0.91-0.17,1.19l-0.96,1.06C41.95,16.26,41.75,16.27,41.6,16.1z"/>
<path id="XMLID_4_" style="fill:#B79178;" d="M38.74,25.39l-1.46-1.6c-0.33-0.37-0.2-1.28,0.22-1.47l1.81-0.84
	c0.19-0.09,0.37,0.01,0.48,0.25l0.61,1.38c0.16,0.36,0.08,0.91-0.17,1.19l-0.96,1.06C39.1,25.54,38.89,25.56,38.74,25.39z"/>
<path id="XMLID_3_" style="fill:#B79178;" d="M87.61,56.45l-1.46-1.6c-0.33-0.37-0.2-1.28,0.22-1.47l1.81-0.84
	c0.19-0.09,0.37,0.01,0.48,0.25l0.61,1.38c0.16,0.36,0.08,0.91-0.17,1.19l-0.96,1.06C87.97,56.6,87.77,56.61,87.61,56.45z"/>
</svg>
