<svg enable-background="new 0 0 128 128" viewBox="0 0 128 128" xmlns="http://www.w3.org/2000/svg"><radialGradient id="b" cx="36.792" cy="18.869" r="114.63" gradientUnits="userSpaceOnUse"><stop stop-color="#E3F2FD" offset=".1402"/><stop stop-color="#90CAF9" offset="1"/></radialGradient><path d="m106.54 56.4c-0.68 0-1.35 0.05-2.01 0.13 0.52-1.75 0.81-3.6 0.81-5.52 0-10.7-8.67-19.37-19.37-19.37-4.55 0-8.73 1.58-12.04 4.21-4.45-8.44-13.3-14.2-23.51-14.2-14.67 0-26.56 11.89-26.56 26.56 0 0.53 0.02 1.05 0.05 1.57-11.06 1.36-19.63 10.78-19.63 22.2 0 12.22 9.81 22.15 21.98 22.36 4.08 7.08 12.2 11.94 21.59 12.01 9.08 0.07 17.03-4.36 21.33-11 3.47 3.79 8.44 6.19 13.99 6.19 7.94 0 14.74-4.89 17.56-11.81 1.82 0.65 3.76 1.03 5.8 1.03 9.49 0 17.18-7.69 17.18-17.18 0.01-9.49-7.68-17.18-17.17-17.18z" fill="url(#b)"/><g opacity=".2"><radialGradient id="a" cx="37.476" cy="20.464" r="111.26" gradientUnits="userSpaceOnUse"><stop stop-color="#E3F2FD" offset=".1402"/><stop stop-color="#90CAF9" offset="1"/></radialGradient><path d="m47.86 105c-8.55 0-16.33-4.46-20.3-11.34-0.26-0.46-0.75-0.78-1.27-0.79-11.31-0.2-20.51-9.57-20.51-20.87 0-10.52 7.87-19.42 18.31-20.7 0.79-0.1 1.36-0.79 1.31-1.58-0.03-0.5-0.05-1-0.05-1.5 0-13.82 11.24-25.06 25.06-25.06 9.33 0 17.83 5.13 22.18 13.4 0.21 0.4 0.58 0.68 1.02 0.77 0.1 0.02 0.21 0.03 0.31 0.03 0.34 0 0.67-0.11 0.93-0.33 3.2-2.54 7.04-3.89 11.11-3.89 9.86 0 17.87 8.02 17.87 17.87 0 1.71-0.25 3.42-0.75 5.09-0.14 0.48-0.03 1.01 0.29 1.39 0.29 0.34 0.71 0.53 1.15 0.53 0.06 0 0.12 0 0.17-0.01 0.68-0.08 1.28-0.12 1.83-0.12 8.64 0 15.68 7.03 15.68 15.68s-7.03 15.68-15.68 15.68c-1.78 0-3.56-0.32-5.3-0.94-0.17-0.06-0.34-0.09-0.51-0.09-0.59 0-1.15 0.35-1.39 0.93-2.7 6.61-9.05 10.88-16.18 10.88-4.88 0-9.58-2.08-12.89-5.71-0.29-0.31-0.69-0.49-1.11-0.49h-0.12c-0.46 0.04-0.88 0.36-1.13 0.76-4.13 6.37-11.73 10.4-19.85 10.4h-0.18z" fill="url(#a)"/><path d="m50.42 24.65c8.77 0 16.76 4.83 20.85 12.6 0.42 0.79 1.16 1.35 2.04 1.54 0.2 0.04 0.41 0.06 0.62 0.06 0.67 0 1.33-0.23 1.87-0.65 2.93-2.33 6.45-3.56 10.17-3.56 9.03 0 16.37 7.34 16.37 16.37 0 1.57-0.23 3.14-0.68 4.67-0.29 0.97-0.07 2.01 0.58 2.78 0.57 0.68 1.42 1.07 2.3 1.07 0.12 0 0.23-0.01 0.35-0.02 0.62-0.07 1.16-0.11 1.66-0.11 7.82 0 14.18 6.36 14.18 14.18s-6.36 14.18-14.18 14.18c-1.61 0-3.22-0.29-4.79-0.85-0.33-0.12-0.68-0.18-1.01-0.18-1.19 0-2.3 0.71-2.78 1.87-2.47 6.04-8.27 9.95-14.79 9.95-4.46 0-8.75-1.9-11.78-5.22-0.57-0.63-1.38-0.98-2.22-0.98-0.08 0-0.16 0-0.25 0.01-0.93 0.08-1.77 0.4-2.27 1.18-3.86 5.94-10.98 9.46-18.6 9.46h-0.18c-8.02 0-15.31-3.92-19.01-10.34-0.53-0.91-1.49-1.4-2.55-1.42-10.5-0.18-19.04-8.81-19.04-19.3 0-9.76 7.3-18 16.99-19.18 1.57-0.19 2.72-1.56 2.63-3.14-0.03-0.53-0.05-0.98-0.05-1.4 0.01-13 10.58-23.57 23.57-23.57m0-3c-14.67 0-26.56 11.89-26.56 26.56 0 0.53 0.02 1.06 0.05 1.58-11.06 1.36-19.63 10.77-19.63 22.19 0 12.22 9.81 21.97 21.98 22.17 4.08 7.08 12.2 11.84 21.59 11.84h0.21c8.99 0 16.85-4.25 21.12-10.84 3.47 3.8 8.45 6.29 14 6.29 7.94 0 14.74-4.84 17.56-11.77 1.82 0.65 3.76 1.05 5.8 1.05 9.49 0 17.18-7.68 17.18-17.16s-7.69-17.17-17.18-17.17c-0.68 0-1.35 0.05-2.01 0.13 0.52-1.75 0.81-3.6 0.81-5.52 0-10.7-8.67-19.37-19.37-19.37-4.55 0-8.73 1.58-12.04 4.21-4.45-8.43-13.31-14.19-23.51-14.19z" fill="#424242"/></g></svg>
