<?xml version="1.0" encoding="utf-8"?>
<!-- Generator: Adobe Illustrator 26.3.1, SVG Export Plug-In . SVG Version: 6.00 Build 0)  -->
<svg version="1.1" id="Layer_2_00000098905746426617686290000010918735251159700125_"
	 xmlns="http://www.w3.org/2000/svg" xmlns:xlink="http://www.w3.org/1999/xlink" x="0px" y="0px" viewBox="0 0 128 128"
	 style="enable-background:new 0 0 128 128;" xml:space="preserve">
<path style="fill:#BDBDBD;" d="M116,4H12c-4.42,0-8,3.58-8,8v104c0,4.42,3.58,8,8,8h104c4.42,0,8-3.58,8-8V12
	C124,7.58,120.42,4,116,4z"/>
<path style="fill:#E0E0E0;" d="M109.7,4H11.5C7.37,4.03,4.03,7.37,4,11.5v97.9c-0.01,4.14,3.34,7.49,7.48,7.5c0.01,0,0.01,0,0.02,0
	h98.1c4.14,0.01,7.49-3.34,7.5-7.48c0-0.01,0-0.01,0-0.02V11.5c0.09-4.05-3.13-7.41-7.18-7.5C109.85,4,109.77,4,109.7,4z"/>
<path style="fill:#FFFFFF;" d="M39.7,12.9c0-2.3-1.6-3-10.8-2.7c-7.7,0.3-11.5,1.2-13.8,4c-1.9,2.3-2.3,5.6-2.6,8.4
	c-0.2,2.2-2.2,14.9,3.5,11.2c0.68-0.45,1.23-1.07,1.6-1.8c1.2-2.1,1.9-3.5,3.3-5.6C26.2,17.8,39.7,15.9,39.7,12.9z"/>
<g>
	<path d="M22.16,45.92c1.98-3.95,1.91-7.51,2.95-11.22c0,0,0.01,0.01,0.03,0.03c1.45-6.9,7.56-12.08,14.89-12.08
		c7.32,0,13.43,5.17,14.89,12.06l0-0.01c1.04,3.7,0.97,7.26,2.95,11.22c1.67,3.35,3.37,3.14,3.37,4.93c0,1.8-2.57,3.19-5.75,3.59
		c-2.57,0.33-5.34,0.1-7.48-0.74c3.52-2.58,5.22-6.43,5.67-8.24c0.28-1.12,0.58-2.18-0.07-2.31c-0.82-0.17-0.6,1.34-2.3,3.56
		c-3.43,4.48-6.25,6.05-11.24,6.06c-4.99-0.01-7.81-1.58-11.24-6.06c-1.7-2.21-1.47-3.54-2.3-3.56c-0.78-0.01-0.37,1.37-0.09,2.49
		c0.45,1.79,2.13,5.54,5.6,8.06c-2.14,0.84-4.91,1.07-7.49,0.74c-3.18-0.41-5.75-1.8-5.75-3.59C18.79,49.06,20.49,49.27,22.16,45.92
		z"/>
	<path d="M37.88,56.81h3.9c9.15,0,18.62,5.3,18.62,16.58v22.39c0,3.83-3.11,6.94-6.94,6.94H26.21c-3.83,0-6.94-3.11-6.94-6.94V73.39
		C19.26,62.11,28.73,56.81,37.88,56.81z"/>
	<g>
		<path d="M99.21,102.72c1,0,1.75-0.95,1.49-1.91c-1.36-4.97-6.95-9.01-13.65-9.01c-6.73,0-12.33,3.93-13.67,9.02
			c-0.25,0.96,0.49,1.91,1.49,1.91C74.87,102.72,99.21,102.72,99.21,102.72z"/>
		<path d="M65.83,79.4c-1.72-5.63-1.04-10.06,3.43-11.52c3.77-1.22,7.02,1.46,7.61,2.23c2.2-3.31,5.95-5.48,10.22-5.48
			s8.02,2.18,10.22,5.48c0.59-0.76,3.84-3.45,7.61-2.23c4.47,1.45,5.15,5.89,3.43,11.52c-0.48,1.56-0.48,3.21,0.27,5.07
			c0.19,0.48-0.24,0.99-0.73,0.85c-6.2-1.75-6.25-7.56-6.47-9.87c-0.25-2.69-1.76-2.77-2.75-2.57c0.59,1.71,0.84,3.58,0.59,5.55
			c-0.77,6.01-6,10.68-12.07,10.74c-6.82,0.06-12.38-5.46-12.38-12.27c0-1.41,0.25-2.75,0.68-4.01c-0.99-0.21-2.35-0.16-2.75,2.57
			c-0.32,2.22-0.29,7.78-5.94,9.7c-0.68,0.23-1.34-0.42-1.11-1.1C66.31,82.36,66.27,80.84,65.83,79.4z"/>
	</g>
</g>
</svg>
