<svg xmlns="http://www.w3.org/2000/svg" width="128" height="128"><g fill="#e7b150"><path d="M122.74 94c-.81-6.56-1.39-13.13-2-19.7-.41-4.44-.23-8.96-1.35-13.35-1.11-4.32-4.53-8.19-4.83-12.65-.18-2.61 3.09-4.56 4.65-5.96 2.49-2.22 3.46-5.05 3.29-8.49-.37-7.22-5.82-13.35-11.61-17.41-4.66-3.27-10.1-5.47-15.82-6.8-6.92-1.61-14.51-2.56-21.43-1.87-1.08.11-2.16.26-3.23.44h-.01C61.84 9.38 52.88 11.15 46.55 13c-9.44 2.75-17.17 4.98-27.18 9.79l31.58 52.95c-.54 6.33-.88 12.7-.88 19.09 0 3.42-.85 8.55 4.01 8.84 4.71.29 9.42.64 14.13 1.02l9.08 15.21 41.62-12.16c.92-.11 1.78-.32 2.52-.73h.01c.74-.41 1.36-1 1.78-1.86 1.54-3.15-.06-7.81-.48-11.15z"/><path d="M77.29 123.18c-1.13 0-2.23-.59-2.83-1.61l-8.19-13.75c-4.13-.32-8.25-.62-12.38-.88-7.43-.45-7.22-7.76-7.13-10.88.02-.43.03-.86.03-1.25 0-5.71.26-11.71.79-18.31L16.54 24.46c-.47-.8-.59-1.76-.33-2.64.27-.89.9-1.62 1.73-2.02 10.15-4.88 18.14-7.2 27.38-9.89l.31-.09c6.32-1.84 15.42-3.67 24.33-4.89.04 0 .08-.01.12-.02 1.08-.18 2.15-.32 3.23-.43 6.54-.66 14.22.01 22.51 1.94 6.51 1.51 12.22 3.97 16.96 7.31 4.65 3.27 12.51 10.2 13.01 19.94.23 4.58-1.24 8.32-4.38 11.12-.33.3-.74.63-1.19.98-.67.53-2.24 1.78-2.38 2.37.13 1.82 1.16 3.83 2.23 5.96.95 1.89 1.95 3.83 2.51 6.02.87 3.35 1.03 6.65 1.2 9.85.06 1.34.13 2.69.25 4.02l.19 2.02c.54 5.77 1.08 11.74 1.79 17.57.1.76.26 1.6.43 2.47.61 3.2 1.38 7.17-.26 10.51a7.464 7.464 0 0 1-3.16 3.3c-.03.02-.06.03-.09.05-.96.52-2.06.86-3.34 1.04l-41.38 12.1c-.3.09-.61.13-.92.13zm-23.6-22.93s.15.09.6.11c4.72.29 9.46.65 14.18 1.02 1.07.08 2.03.68 2.57 1.6L78.81 116l39.18-11.45c.18-.05.36-.09.54-.11.71-.09 1.11-.24 1.31-.35l.06-.03c.18-.11.28-.22.37-.4.67-1.35.13-4.13-.3-6.35-.19-1.03-.38-2.02-.48-2.91-.74-5.94-1.29-11.96-1.83-17.78l-.18-2.02c-.14-1.43-.21-2.86-.28-4.3-.15-2.99-.29-5.83-.99-8.53-.38-1.49-1.16-3.04-2-4.69-1.27-2.5-2.71-5.33-2.92-8.57-.26-3.83 2.94-6.38 4.84-7.9.33-.27.64-.51.9-.74 1.64-1.47 2.32-3.28 2.19-5.87-.36-7.21-7.26-12.81-10.21-14.88-4.06-2.85-8.99-4.97-14.67-6.28-7.58-1.77-14.54-2.38-20.36-1.8-1 .1-2.01.24-3.01.41-.1.02-.21.03-.31.04-8.55 1.18-17.19 2.91-23.17 4.66l-.32.09c-8.25 2.4-14.97 4.36-23.08 7.99L53.8 74.04c.35.59.51 1.28.45 1.97-.59 6.82-.87 12.98-.87 18.81 0 .46-.01.94-.03 1.45-.03 1.04-.1 3.51.34 3.98z"/></g><g fill="#f8e8ca"><path d="M51.43 22.28c-6.93-1.61-14.51-2.56-21.44-1.87-6.99.7-14.21 2.81-19.36 7.52-3.51 3.21-6.26 7.9-6.48 12.87-.11 2.46.35 4.98 1.69 7.17 1.53 2.49 4.49 3.81 6.02 6.12 2.56 3.88.17 8.47-1.13 12.09-2.19 6.09-2.6 13-3.23 19.5-.7 7.22-1.07 14.49-1.07 21.79 0 3.42-.84 8.55 4 8.84 19.88 1.23 39.73 3.48 59.6 4.04 3.22.09 7.88.8 9.54-2.58 1.53-3.12-.07-7.77-.48-11.12-.81-6.56-1.39-13.13-2-19.7-.41-4.44-.23-8.96-1.36-13.34-1.11-4.32-4.54-8.21-4.83-12.66-.17-2.61 3.09-4.57 4.65-5.96 2.48-2.22 3.46-5.05 3.28-8.5-.37-7.22-5.82-13.34-11.61-17.41-4.63-3.27-10.07-5.47-15.79-6.8z"/><path d="M73.44 123.77c-.78 0-1.57-.04-2.32-.08l-1.18-.05c-12.46-.35-25.07-1.38-37.27-2.37-7.36-.6-14.97-1.22-22.44-1.68-7.43-.46-7.22-7.76-7.13-10.88.01-.43.03-.86.03-1.25 0-7.16.37-14.59 1.08-22.1l.22-2.31c.55-6.01 1.12-12.23 3.2-18 .17-.49.38-1.02.59-1.55 1.32-3.41 2.09-5.79.89-7.6-.46-.7-1.32-1.41-2.22-2.15-1.31-1.07-2.78-2.29-3.87-4.06-1.57-2.57-2.33-5.7-2.17-9.05.25-5.47 3-11 7.55-15.16 5.08-4.64 12.24-7.46 21.26-8.36 6.54-.65 14.22 0 22.51 1.94 6.52 1.52 12.24 3.98 16.97 7.31 4.65 3.27 12.51 10.2 13.01 19.94.23 4.58-1.25 8.32-4.38 11.12-.34.3-.75.63-1.19.98-.67.54-2.24 1.79-2.38 2.37.13 1.82 1.14 3.83 2.22 5.96.96 1.89 1.95 3.84 2.51 6.03.86 3.35 1.03 6.65 1.19 9.84.07 1.35.14 2.69.26 4.03l.19 2c.54 5.78 1.09 11.76 1.81 17.59.09.76.26 1.6.42 2.47.62 3.2 1.38 7.17-.26 10.51-2.24 4.56-7.4 4.56-9.1 4.56zM10.05 112.9s.15.09.59.12c7.53.47 15.18 1.09 22.57 1.69 12.11.98 24.63 2 36.92 2.35.41.01.85.03 1.31.05.65.03 1.33.07 2 .07 2.75 0 3.06-.62 3.17-.86.67-1.35.13-4.12-.3-6.35-.2-1.03-.38-2.01-.5-2.91-.73-5.94-1.29-11.97-1.82-17.8l-.19-2c-.13-1.43-.21-2.86-.28-4.3-.15-2.99-.3-5.83-.99-8.53-.38-1.49-1.17-3.05-2.01-4.69-1.26-2.5-2.7-5.34-2.92-8.57-.26-3.83 2.94-6.38 4.84-7.91.33-.26.65-.51.9-.74 1.64-1.47 2.32-3.28 2.19-5.87-.36-7.21-7.26-12.81-10.21-14.88-4.04-2.84-8.98-4.96-14.67-6.29-7.58-1.76-14.53-2.38-20.36-1.79-5.21.52-12.47 2.1-17.47 6.67-3.22 2.95-5.25 6.9-5.41 10.59-.06 1.41.09 3.48 1.21 5.3.5.82 1.44 1.6 2.43 2.42 1.18.98 2.53 2.08 3.53 3.6 3.17 4.79 1.2 9.89-.24 13.62-.19.48-.37.95-.54 1.41-1.79 4.97-2.32 10.76-2.83 16.36l-.22 2.33c-.7 7.3-1.06 14.53-1.06 21.48 0 .46-.02.94-.03 1.45.01 1.05-.06 3.52.39 3.98z"/></g><g fill="#ffcc80"><path d="M82.04 29.6c.65 1.05 1.26 2.13 2.12 3.05 1.62 1.73 4.63 1.83 5.3-.5.97-3.37-5.7-10.01-8.71-6.77-1.15 1.24-.17 2.13.62 3.21.24.33.46.67.67 1.01zM94.32 27.17c.66 1.05 1.26 2.14 2.11 3.05 1.62 1.73 4.64 1.83 5.31-.49.97-3.38-5.71-10.02-8.71-6.77-1.14 1.24-.17 2.13.62 3.21.23.32.46.66.67 1zM104.51 24.79c.67 1.05 1.26 2.14 2.12 3.05 1.62 1.74 4.63 1.84 5.3-.49.97-3.37-5.69-10.01-8.7-6.77-1.15 1.24-.16 2.13.63 3.21.22.33.43.67.65 1z"/></g><circle r="4.033" cy="27.087" cx="43.4" transform="rotate(12.956)" fill="#f5deb2" stroke-width="10.786" paint-order="stroke fill markers"/><circle r="2.886" cy="30.711" cx="66.918" transform="rotate(16.827)" fill="#f5deb2" stroke-width="7.718" paint-order="stroke fill markers"/><circle r="2.31" cy="77.222" cx="37.909" transform="rotate(-11.706)" fill="#f5deb2" stroke-width="6.177" paint-order="stroke fill markers"/><circle r="1.947" cy="45.054" cx="74.182" transform="rotate(16.868)" fill="#f5deb2" stroke-width="5.206" paint-order="stroke fill markers"/><circle r="3.059" cy="67.377" cx="54.584" transform="rotate(-2.545)" fill="#f5deb2" stroke-width="8.18" paint-order="stroke fill markers"/><circle r="2.705" cy="51.305" cx="77.176" transform="rotate(26.02)" fill="#f5deb2" stroke-width="7.235" paint-order="stroke fill markers"/><circle r="2.707" cy="101.468" cx="26.816" transform="rotate(-18.318)" fill="#f5deb2" stroke-width="7.239" paint-order="stroke fill markers"/><circle r="2.111" cy="89.34" cx="23.331" transform="rotate(-19.242)" fill="#f5deb2" stroke-width="5.645" paint-order="stroke fill markers"/><circle r="1.785" cy="76.445" cx="72.207" transform="rotate(19.217)" fill="#f5deb2" stroke-width="4.773" paint-order="stroke fill markers"/><circle r="3.888" cy="86.624" cx="60.861" transform="rotate(-4.126)" fill="#f5deb2" stroke-width="10.397" paint-order="stroke fill markers"/><circle r="1.719" cy="106.654" cx="28.333" transform="rotate(-9.167)" fill="#f5deb2" stroke-width="4.596" paint-order="stroke fill markers"/><circle r="1.857" cy="91.326" cx="63.749" transform="rotate(13.981)" fill="#f5deb2" stroke-width="4.965" paint-order="stroke fill markers"/><circle r="3.961" cy="85.812" cx="80.109" transform="rotate(13.453)" fill="#f5deb2" stroke-width="10.592" paint-order="stroke fill markers"/><circle r="1.98" cy="109.86" cx="-6.623" transform="rotate(-16.781)" fill="#f5deb2" stroke-width="5.295" paint-order="stroke fill markers"/><circle r="4.062" cy="89.976" cx="-24.66" transform="rotate(-26.26)" fill="#f5deb2" stroke-width="10.862" paint-order="stroke fill markers"/><circle r="2.53" cy="102.863" cx="-1.731" transform="rotate(-18.888)" fill="#f5deb2" stroke-width="6.765" paint-order="stroke fill markers"/><circle r="1.545" cy="72.299" cx="16.773" transform="rotate(-7.953)" fill="#f5deb2" stroke-width="4.132" paint-order="stroke fill markers"/><circle r="1.607" cy="80.844" cx="22.489" transform="rotate(-3.059)" fill="#f5deb2" stroke-width="4.296" paint-order="stroke fill markers"/><circle r="2.257" cy="69.477" cx="6.784" transform="rotate(-23.642)" fill="#f5deb2" stroke-width="6.036" paint-order="stroke fill markers"/><circle r="2.879" cy="27.238" cx="30.534" transform="rotate(23.972)" fill="#f5deb2" stroke-width="7.699" paint-order="stroke fill markers"/></svg>