<?xml version="1.0" encoding="utf-8"?>
<!-- Generator: Adobe Illustrator 19.2.1, SVG Export Plug-In . SVG Version: 6.00 Build 0)  -->
<svg version="1.1" id="レイヤー_1" xmlns="http://www.w3.org/2000/svg" xmlns:xlink="http://www.w3.org/1999/xlink" x="0px"
	 y="0px" viewBox="0 0 128 128" style="enable-background:new 0 0 128 128;" xml:space="preserve">
<g>
	<g>
		<path style="fill:#BDCF46;" d="M82.09,96.56c4.06,0.57,10.51,3.54,12.74,6.9c0.27,0.42,0.83,1.04,0.84,1.5
			c0.02,0.76-0.67,1.28-1.18,1.74c-7.35,6.64-20.37,8.48-27.26,1.91c-0.96-0.92-0.14-2.17,0.27-3.25c1.67-4.31,5.83-7.81,10.37-8.7
			C79.29,96.38,80.71,96.37,82.09,96.56z"/>
	</g>
	<g>
		<path style="fill:#BDCF46;" d="M47.53,99.93c-4.08-0.39-11.05,1-14,3.75c-0.36,0.34-1.05,0.82-1.17,1.27
			c-0.2,0.73,0.35,1.4,0.75,1.97c5.61,8.16,17.84,12.99,26.07,8.19c1.15-0.67,0.65-2.08,0.49-3.23c-0.62-4.58-3.86-8.96-8.06-10.87
			C50.29,100.41,48.92,100.06,47.53,99.93z"/>
	</g>
</g>
<g>
	<defs>
		<path id="SVGID_1_" d="M0,0v135.01h128V0H0z M76.86,67.88c-9.12,4.6-22.2,4.79-30.38-2.26c-8.84-7.6-11.98-19.9-5.45-30.32
			c0.81-1.3,1.63-2.63,2.53-3.86c2.47-3.36,6.12-5.95,10-7.12c0.26-0.08,0.52-0.15,0.78-0.21c1.18-0.3,2.38-0.54,3.58-0.84
			c3.25-0.83,6.65-0.48,9.93-0.1c3.8,0.44,8.53,2.75,11.61,5.11C91.87,37.77,90.85,60.83,76.86,67.88z"/>
	</defs>
	<clipPath id="SVGID_2_">
		<use xlink:href="#SVGID_1_"  style="overflow:visible;"/>
	</clipPath>
	<g style="clip-path:url(#SVGID_2_);">
		<path style="fill:#757F3F;" d="M65.93,121.18c-0.14,0.49-0.31,0.98-0.5,1.45c-0.35,0.87-0.69,1.75-1.06,2.62
			c-0.31,0.72-0.63,1.6-1.44,1.91c-1.02,0.39-2.31,0.21-3.32-0.08c-4.24-1.24-3.12-5.32-2.06-8.29c2.14-6.06,2.95-19.19,3.39-25.53
			c0.46-6.55-0.26-13.43-0.26-19.99c0-0.13,0.01-2.79-0.09-2.79h8.36c0,1.02,0,2.05,0,3.07c0,4.75,0.01,9.5-0.09,14.24
			C68.65,96.56,68.46,112.66,65.93,121.18z"/>
	</g>
</g>
<path style="fill:#865A3D;" d="M76.86,67.88c-9.12,4.6-22.2,4.79-30.38-2.26c-8.84-7.6-11.98-19.9-5.45-30.32
	c0.81-1.3,1.63-2.63,2.53-3.86c2.47-3.36,6.12-5.95,10-7.12c0.26-0.08,0.52-0.15,0.78-0.21c1.18-0.3,2.38-0.54,3.58-0.84
	c3.25-0.83,6.65-0.48,9.93-0.1c3.8,0.44,8.53,2.75,11.61,5.11C91.87,37.77,90.85,60.83,76.86,67.88z"/>
<path style="fill:#FCC21B;" d="M112.71,47.91c-4.19-5.49-6.43-3.94-12.06-4.23c-1.06-0.06-9.54,0.53-9.68-0.86
	c-0.15-1.48,8.17-3.82,9.29-4.26c3.44-1.37,6.27-2.5,7.72-5.65c0.35-0.75,0.8-2.69,0.1-4.98c-0.82-2.68-6.25-4.77-8.57-4.39
	c-1.6,0.27-3.59,0.5-5.49,1.26c-1.13,0.46-6.16,3.21-7.39,2.85c-1.45-0.44,3.74-4.39,4.28-4.98c1.01-1.12,2.25-1.92,3.01-3.21
	c0.96-1.63,2.11-3.76,2.09-5.68c-0.01-1.13-1.19-4.28-2.49-4.98c-5.54-2.99-9.07,1.1-13.16,6.28c-0.41,0.52-4.69,5.91-5.3,6.08
	c-0.34,0.1,3.78-7.7,3.9-7.97c1.6-3.69,0.89-6.98-0.2-10.37c-0.23-0.71-1.52-1.64-2.59-1.99c-0.61-0.2-2.74-0.88-3.49-0.8
	c-4.69,0.53-6.28,2.69-9.18,7.77c-0.67,1.18-2.13,9.03-2.66,10.23c-0.74,1.65-1.53-6.35-1.66-7.35c-0.15-1.17-0.52-2.49-0.86-3.37
	c-0.41-1.03-0.82-2.14-1.39-2.97c-0.65-0.93-1.41-1.83-2.3-2.52c-1.49-1.14-3.99-1.89-6.19-1.29c-0.72,0.2-0.97,0.27-1.51,0.61
	c-2.87,1.78-3.6,6.14-3.47,8.96c0.2,4.29,4.73,10.82,4.84,12.5c-1.25-0.54-7.13-9.42-9.33-10.71c-3.15-1.86-4.98-2.59-8.77-1.4
	c-0.42,0.13-1.99,1.6-2.39,1.77c-0.58,0.26-0.2,0.49-0.47,0.82c-0.83,1.01-1,3.29-0.82,4.28c0.31,1.79,1,3.23,1.79,4.89
	c0.22,0.45,1.05,1.58,1.3,2.01c0.55,0.93,1.35,1.75,2.01,2.61c0.17,0.22,7.92,5.25,7.53,5.36c-0.56,0.17-7.39-2.76-7.94-2.82
	c-0.58-0.06-9.18-5.67-13.57-0.78c-0.87,0.97-1.99,2.19-2.18,4.09c-0.09,1.03-0.24,3.31,0.19,4.09c1.33,2.36,2.38,3.64,4.58,5.18
	c1.05,0.74,4.94,1.84,6.08,2.39c0.44,0.21,6.74,0.14,6.33,0.86c-0.14,0.26-6.1,0.86-6.43,0.93c-2.49,0.6-3.75,0.75-5.49,1.69
	c-1.8,0.99-8.87,2.49-5.4,11.77c0.76,2.02,2.35,2.89,4.21,3.28c1.76,0.37,4.32-0.1,6.48-0.7c1.36-0.38,8.84-3.88,10.24-3.49
	c1.41,0.4-4.25,3.27-4.76,3.69c-0.94,0.78-4.89,4.33-5.48,5.38c-1.2,2.11-1.6,2.75-2.3,5.07c-0.63,2.11-0.81,3.36-0.61,5.57
	c0.09,1.02,0.38,2.24,1.43,2.69c1.07,0.45,2.95,0.38,3.92,0.38c2.82,0,4.53-1.12,7.02-2.4c1.06-0.54,2.07-0.93,3.02-1.83
	c0.58-0.55,5.12-8.51,5.95-8.19c-0.02-0.01-3.93,11.49-3.99,11.83c-0.41,2.28-0.49,4.62,0.17,6.85c0.38,1.29,1.04,2.51,1.95,3.51
	c0.64,0.71,2.07,1.21,3.15,1.23c4.81,0.12,7.6-3.77,9.29-9.45c0.1-0.34,2.12-6.82,2.44-6.98c0.95-0.5,1.03,7.85,1.1,8.39
	c0.18,1.54,0.77,3.82,1.56,5.17c1.01,1.74,2.14,3.12,3.69,4.39c1.25,1.02,3.42,1.2,5.08,1.39c0.51,0.06,1.81-0.25,2.3-0.39
	c0.82-0.25,2.49-1.93,2.85-2.66c1.75-3.49,0.84-6.21,0.09-9.96c-0.09-0.46-2.29-8.37-1.96-8.74c0.59-0.65,3.73,7.27,3.97,7.73
	c0.83,1.56,2.72,4.03,4.02,5.25c1.69,1.6,3.97,2.33,5.99,2.69c1.5,0.27,4.51-0.09,5.68-1.1c1.15-0.98,1.71-2.46,1.99-4.39
	c0.29-1.99,0.05-3.15-0.5-5.08c-0.18-0.63-0.63-1.65-0.78-1.92c-0.92-1.67-7.6-9.66-7.36-9.69c0.94-0.1,8.41,5.79,9.26,6.2
	c1.65,0.8,3.51,1.21,5.32,1.57c1.56,0.32,2.99,0.09,4.57,0.04c0.29-0.01,1.71-0.77,3.05-2.19c0.9-0.95,1.02-2.71,1.02-3.33
	c0-2.42-0.49-3.5-2.38-5.9c-0.75-0.94-1.93-1.7-3.23-2.45c-0.78-0.44-10.72-2.81-11.1-3.59c-0.37-0.76,9.39,0.78,9.97,0.73
	c1.52-0.13,3.27,0.17,4.69-0.13c2.15-0.46,4.22-1.1,5.44-2.15C114.23,53.87,113.84,49.39,112.71,47.91z M76.86,67.88
	c-9.12,4.6-22.2,4.79-30.38-2.26c-8.84-7.6-11.98-19.9-5.45-30.32c0.81-1.3,1.63-2.63,2.53-3.86c2.47-3.36,6.12-5.95,10-7.12
	c0.26-0.08,0.52-0.15,0.78-0.21c1.18-0.3,2.38-0.54,3.58-0.84c3.25-0.83,6.65-0.48,9.93-0.1c3.8,0.44,8.53,2.75,11.61,5.11
	C91.87,37.77,90.85,60.83,76.86,67.88z"/>
<path style="fill:#FCC21B;" d="M63.63,32.35c-2.83-0.13-7.26,0.6-9.63,2.45c-4.31,3.4-6.55,9.44-5.49,14.88
	c0.36,1.84,1.11,3.62,2.28,5.2c5.2,7.04,16.87,6.93,23,1.25C82.66,47.91,74.66,32.87,63.63,32.35z"/>
<path style="opacity:0.35;fill:#FCC21B;" d="M76.86,67.88c-9.12,4.6-22.2,4.79-30.38-2.26c-8.84-7.6-11.98-19.9-5.45-30.32
	c0.81-1.3,1.63-2.63,2.53-3.86c2.47-3.36,6.12-5.95,10-7.12c0.26-0.08,0.52-0.15,0.78-0.21c1.18-0.3,2.38-0.54,3.58-0.84
	c3.25-0.83,6.65-0.48,9.93-0.1c3.8,0.44,8.53,2.75,11.61,5.11C91.87,37.77,90.85,60.83,76.86,67.88z"/>
</svg>
