<svg xmlns="http://www.w3.org/2000/svg" viewBox="0 0 128 128"><g fill="#78a3ad"><path d="M104.08 49.57c-1.51-2.24-3.08-4.55-3.65-7.24-.24-1.11-1.54-5.46.03-6.08.87-.34 1.02.9 1.22 1.45 1.16 3.06 1.58 6.01 3.73 8.6 1.55 1.88 3.37 3.56 4.79 5.53C110.15 24.54 98.96 1.87 64 1.87c-34.82 0-46.06 22.49-46.2 49.63 1.38-1.84 3.11-3.43 4.57-5.2 2.14-2.59 2.57-5.54 3.73-8.6.21-.55.37-1.79 1.22-1.45 1.58.62.27 4.97.04 6.08-.58 2.69-2.14 5-3.65 7.24-1.62 2.4-3.79 4.56-4.62 7.4-.42 1.42-.81 2.83-.78 4.31.2 1.76.44 3.51.78 5.25 1.09 5.59 3.8 14.47 8.97 17.62 4 2.43 8.91.96 12.5 4.35 3.07 2.91 3.41 7.23 7.67 9.01 3.75 1.57 8.8 1.61 13.1 1.61 4.62 0 8.84.06 13.07-.99 4-1 8.37-2.88 11.19-6.04.48-.53.85-1.12 1.19-1.72.82-1.44 1.48-2.96 2.95-3.99 2.09-1.46 4.85-1.4 7.21-2.17 5.43-1.79 6.71-6.35 9.15-10.95 1.65-3.09 2.62-6.2 3.22-9.39.09-.86.13-1.72.16-2.58.02-1.48-.37-2.9-.78-4.32-.82-2.83-3-5-4.61-7.4zM45.1 71.23c-13.53 3.91-18.54-7.93-13.89-15.86 2.49-4.25 7.76-7.38 15.97-6.36 13.31 1.65 8.28 19.21-2.08 22.22zm22.72 12.75c-1.72.2-3.26.4-4.95.18-2.13-.27-5.45.23-6.85-1.83-.52-.76-.51-1.62-.44-2.49.04-.47.11-.95.12-1.42.05-2.02.73-3.96 1.61-5.76.43-.89.93-1.79 1.4-2.69 1.08-2.07 3.71-4.61 6.29-3.52 1.06.45 2.43 1.31 3.02 2.32.66 1.14.77 2.5 1.35 3.67.53 1.07.75 2.09.93 3.3.16 1.09.29 2.2.4 3.29.23 2.4-.1 4.62-2.88 4.95zm14.84-12.75C72.3 68.22 67.27 50.66 80.57 49c8.22-1.02 13.48 2.11 15.98 6.36 4.65 7.94-.36 19.78-13.89 15.87z"/><path d="M94.84 88.67c-5.73-1.6-4.91 8.15-6.93 11.05-2.93 4.19-9.22 3.64-13.69 4.14-5.22.59-9.92 1-15.34 1-6.42 0-15.66.83-20.41-4.52-2.57-2.9-1.4-6.55-3.31-9.48-1.71-2.62-5.59-3.45-5.61.63-.01 3.14.8 6.46 1.34 9.53.73 4.15 1.69 8 3.58 11.79 1.37 2.73 3.7 4.61 6 6.54 2.76 2.31 5.67 3.09 9.08 4.16 1.64.51 3.3.99 4.99 1.23 2.06.3 4.24.27 6.33.54 3.14.4 7.01 1.29 10.23.57 5.15-1.14 10.19-3.86 15.01-5.8 9.82-3.94 12.49-15.38 12.49-25.07-.01-3.01-.49-5.4-3.76-6.31z"/></g></svg>