<svg enable-background="new 0 0 128 128" viewBox="0 0 128 128" xmlns="http://www.w3.org/2000/svg" xmlns:xlink="http://www.w3.org/1999/xlink"><path d="m33.56 116.11c-0.46-4-2.31-20.04-3.01-27.64 1.82 1.61 4.69 3.61 7.72 3.61 0.66 0 1.31-0.1 1.93-0.29 0 0 0.06-0.02 0.2-0.02 0.81 0 1.91 0.46 2.18 0.76-0.78 6.39-1.94 19.78-2.25 23.34l-6.77 0.24z" fill="#B3B3B3"/><path d="m31.77 90.72c1.81 1.26 4.08 2.36 6.5 2.36 0.73 0 1.45-0.1 2.13-0.3 0.32 0 0.78 0.13 1.1 0.27-0.73 6.14-1.72 17.5-2.1 21.86l-4.97 0.18c-0.52-4.62-1.91-16.81-2.66-24.37m-2.44-4.9c0.4 6.17 3.34 31.31 3.34 31.31l8.58-0.3s1.42-16.93 2.33-24.31c0.12-0.95-1.97-1.76-3.18-1.76-0.19 0-0.36 0.02-0.5 0.06-0.54 0.17-1.09 0.24-1.63 0.24-4.56 0.01-8.94-5.24-8.94-5.24z" fill="#808080"/><path d="m96.95 116.16c-0.71-3.9-3.62-19.99-4.58-27.63 1.83 1.6 4.66 3.55 7.65 3.55 0.66 0 1.31-0.1 1.93-0.29 0 0 0.06-0.02 0.2-0.02 0.81 0 1.91 0.46 2.18 0.76-0.78 6.4-1.95 19.82-2.25 23.35l-5.13 0.28z" fill="#B3B3B3"/><path d="m93.69 90.83c1.78 1.21 3.99 2.24 6.33 2.24 0.73 0 1.45-0.1 2.13-0.3 0.32 0 0.78 0.13 1.1 0.27-0.73 6.16-1.73 17.56-2.1 21.89l-3.38 0.18c-0.8-4.49-2.99-16.68-4.08-24.28m-2.61-5.01c0.4 6.17 5.05 31.38 5.05 31.38l6.88-0.38s1.42-16.93 2.33-24.31c0.12-0.95-1.97-1.76-3.18-1.76-0.19 0-0.36 0.02-0.5 0.06-0.54 0.17-1.09 0.24-1.63 0.24-4.57 0.02-8.95-5.23-8.95-5.23z" fill="#808080"/><linearGradient id="i" x1="70.134" x2="70.134" y1="38.893" y2="115.82" gradientUnits="userSpaceOnUse"><stop stop-color="#B3B3B3" offset=".3596"/><stop stop-color="#A9A9A9" offset=".5415"/><stop stop-color="#909090" offset=".8453"/><stop stop-color="#808080" offset=".9991"/></linearGradient><path d="m108.42 51.17c-11.33-6.5-65.67-6-65.67-6s-20.45 6.62-18.5 22.92c2.2 18.49 4.94 24.77 12.48 28.43 0.56 10.98 3.03 21.16 3.03 21.16s7.87 0.63 8-0.17c0.45-2.79 2.17-13.33 4-22.67 8.87 1.16 19.73 3.31 44-1 5 10.33 5.5 23.5 5.5 23.5s6.07 0.05 6.12 0.12c1.17-4.83 2.48-10.75 3.71-17.29 1.65-8.82 3.13-11.26 3.83-20.17 0.5-6.33 4.83-22.33-6.5-28.83z" fill="url(#i)" stroke="#808080" stroke-linejoin="round" stroke-miterlimit="10" stroke-width="2"/><path d="m44.09 123.72c0-4.37-3.48-7.91-7.76-7.91-4.29 0-7.76 3.54-7.76 7.91 0 0.09 0.01 0.18 0.01 0.28h6.64c0.67-1.04 0.66-2.17 1.03-3.17 0 0.77 0.59 2.12 1.32 3.17h6.5c0.01-0.09 0.02-0.18 0.02-0.28z" fill="#666" stroke="#4D4D4D" stroke-linejoin="round" stroke-miterlimit="10" stroke-width="2"/><path d="m51.21 123.72c0-4.37-3.48-7.91-7.76-7.91-4.29 0-7.76 3.54-7.76 7.91 0 0.09 0.01 0.18 0.01 0.28h6.64c0.67-1.04 0.66-2.17 1.03-3.17 0 0.77 0.59 2.12 1.32 3.17h6.5c0.01-0.09 0.02-0.18 0.02-0.28z" fill="#666" stroke="#4D4D4D" stroke-linejoin="round" stroke-miterlimit="10" stroke-width="2"/><path d="m104.21 123.72c0-4.37-3.48-7.91-7.76-7.91-4.29 0-7.76 3.54-7.76 7.91 0 0.09 0.01 0.18 0.01 0.28h6.64c0.67-1.04 0.66-2.17 1.03-3.17 0 0.77 0.59 2.12 1.32 3.17h6.5c0.01-0.09 0.02-0.18 0.02-0.28z" fill="#666" stroke="#4D4D4D" stroke-linejoin="round" stroke-miterlimit="10" stroke-width="2"/><path d="m111.96 123.72c0-4.37-3.48-7.91-7.76-7.91-4.29 0-7.76 3.54-7.76 7.91 0 0.09 0.01 0.18 0.01 0.28h6.64c0.67-1.04 0.66-2.17 1.03-3.17 0 0.77 0.59 2.12 1.32 3.17h6.5c0.01-0.09 0.02-0.18 0.02-0.28z" fill="#666" stroke="#4D4D4D" stroke-linejoin="round" stroke-miterlimit="10" stroke-width="2"/><linearGradient id="g" x1="95.176" x2="95.176" y1="85.741" y2="96.405" gradientUnits="userSpaceOnUse"><stop stop-color="#C69C6D" offset=".5376"/><stop stop-color="#BE9466" offset=".6265"/><stop stop-color="#A87F52" offset=".7641"/><stop stop-color="#855C32" offset=".9323"/><stop stop-color="#754C24" offset=".9981"/></linearGradient><path d="m93.19 86.61c1.33 3.36 2.65 6.72 3.98 10.08" fill="url(#g)" stroke="#808080" stroke-linecap="round" stroke-linejoin="round" stroke-miterlimit="10" stroke-width="2"/><g fill="#B3B3B3" stroke="#808080" stroke-linejoin="round" stroke-miterlimit="10" stroke-width="2"><path d="m22.18 38.88s-3.88-2.69-9.95 1.35-5.09 8.65-5.09 8.65 3.88 2.69 9.95-1.35 5.09-8.65 5.09-8.65z"/><path d="m54.15 38.88s3.88-2.69 9.95 1.35 5.09 8.65 5.09 8.65-3.88 2.69-9.95-1.35-5.09-8.65-5.09-8.65z"/></g><linearGradient id="f" x1="38.096" x2="38.096" y1="24.106" y2="66.2" gradientUnits="userSpaceOnUse"><stop stop-color="#B3B3B3" offset=".3596"/><stop stop-color="#A9A9A9" offset=".5415"/><stop stop-color="#909090" offset=".8453"/><stop stop-color="#808080" offset=".9991"/></linearGradient><path d="m29.26 67.73c-2.97 0-5.59-2.3-6.37-5.6l-3.62-15.37c-0.17-0.71-0.25-1.34-0.25-1.93 0.02-11.16 7.81-20.24 17.37-20.24h3.41c9.44 0 17.07 8.63 17.36 19.66 0.02 0.9-0.09 1.82-0.35 2.73l-4.33 15.49c-0.87 3.09-3.44 5.26-6.27 5.26h-16.95z" fill="url(#f)"/><path d="m39.8 25.59c8.9 0 16.08 8.21 16.36 18.68 0.02 0.8-0.08 1.62-0.31 2.44l-4.33 15.49c-0.74 2.66-2.93 4.53-5.31 4.53h-16.95c-2.51 0-4.73-1.99-5.4-4.83l-3.62-15.37c-0.15-0.63-0.22-1.19-0.22-1.7 0.02-10.61 7.36-19.24 16.37-19.24h3.41m0-2h-3.41c-10.28 0-18.35 9.68-18.37 21.24 0 0.73 0.11 1.45 0.27 2.16l3.62 15.37c0.88 3.75 3.93 6.37 7.34 6.37h16.95c3.28 0 6.24-2.43 7.24-5.99l4.33-15.49c0.27-0.98 0.41-2.01 0.38-3.03-0.28-11.29-8.25-20.63-18.35-20.63z" fill="#808080"/><defs><path id="e" d="M40,21h-3.67c-11.99,0-21.79,10.16-21.79,22.15L16.16,68h44.19l1.54-24.85"/></defs><clipPath><use xlink:href="#e"/></clipPath><g fill="#404040"><ellipse cx="26.3" cy="46.7" rx="4.15" ry="4.69"/><ellipse cx="50.21" cy="46.7" rx="4.15" ry="4.69"/></g><linearGradient id="d" x1="37.5" x2="37.5" y1="80.94" y2="37.235" gradientUnits="userSpaceOnUse"><stop stop-color="#4E342E" offset=".0072279"/><stop stop-color="#68504A" offset=".0949"/><stop stop-color="#8C7771" offset=".2384"/><stop stop-color="#A6938D" offset=".3704"/><stop stop-color="#B6A49E" offset=".4854"/><stop stop-color="#BCAAA4" offset=".5707"/></linearGradient><path d="m52 66.61c0-4.2-3.41-7.61-7.61-7.61h-13.78c-4.2 0-7.61 3.41-7.61 7.61v0.78c0 4.2 3.41 7.61 7.61 7.61h13.78c4.2 0 7.61-3.41 7.61-7.61v-0.78z" fill="url(#d)" stroke="#534741" stroke-linejoin="round" stroke-miterlimit="10" stroke-width="2"/><g fill="#534741"><ellipse cx="31.85" cy="66.4" rx="2.69" ry="3.3"/><ellipse cx="43.37" cy="66.4" rx="2.69" ry="3.3"/></g><path d="m114.75 62.96c5.38-0.62 9.37 6.27 8.73 11.19-0.34 2.65-1.72 5.04-3.02 7.38s-2.59 4.8-2.72 7.48c-0.13 2.67 1.22 5.61 3.76 6.46" fill="none" stroke="#808080" stroke-linejoin="round" stroke-miterlimit="10" stroke-width="2"/><path d="m121.76 104.99c-0.34-3.37-3.93-1.46-5.17-6.07-0.74-2.76 0.3-5.65 3.14-5.5 8.77 0.45 2.31 14.41 2.03 11.57z" fill="#4D4D4D"/><path d="m36.75 97.17c-0.35-3.65-0.41-6.53-0.68-8.85" fill="none" stroke="#808080" stroke-linecap="round" stroke-linejoin="round" stroke-miterlimit="10" stroke-width="2"/><path d="m51.17 98.09c0.43-3.29 0.85-6.58 1.28-9.87" fill="none" stroke="#808080" stroke-linecap="round" stroke-linejoin="round" stroke-miterlimit="10" stroke-width="2"/><linearGradient id="c" x1="3.5686" x2="27.931" y1="14.151" y2="31.629" gradientUnits="userSpaceOnUse"><stop stop-color="#BCAAA4" offset="0"/><stop stop-color="#B7A49E" offset=".3182"/><stop stop-color="#AA948C" offset=".7565"/><stop stop-color="#A1887F" offset="1"/></linearGradient><path d="m14.56 36.32c-5.9 0-9.59-3.07-9.86-8.21-0.29-5.45 3.55-11.78 10.28-12.5 0.07-0.01 0.13-0.01 0.2-0.01 0.25 0 0.39 0.06 0.45 0.09-0.02 0.02-0.07 0.12-0.19 0.26-0.31 0.35-0.63 0.7-0.95 1.06-2.56 2.83-5.2 5.75-4.91 8.5 0.12 1.12 0.72 2.08 1.77 2.84 0.61 0.44 1.27 0.66 1.97 0.66 2.09 0 4.04-1.94 6.31-4.2 2.54-2.53 5.42-5.39 8.77-5.78 0.85-0.1 1.66-0.15 2.41-0.15 3.69 0 5.95 1.18 6.38 3.33 0.6 3.05-2.65 7.95-8.96 10.55l-0.69 0.29c-5.66 2.34-5.66 2.34-9.51 2.97-1.23 0.2-2.39 0.3-3.47 0.3z" fill="url(#c)"/><path d="m13.13 17.01c-2.5 2.78-4.86 5.65-4.55 8.6 0.1 0.97 0.57 2.38 2.19 3.55 0.78 0.56 1.64 0.85 2.56 0.85 2.5 0 4.59-2.08 7.01-4.49 2.43-2.41 5.17-5.14 8.18-5.5 0.81-0.1 1.58-0.14 2.29-0.14 1.47 0 4.94 0.25 5.4 2.53 0.53 2.67-2.71 7.1-8.36 9.43l-0.69 0.29c-5.56 2.29-5.56 2.29-9.31 2.91-1.16 0.19-2.26 0.29-3.28 0.29-7.65 0-8.75-5.08-8.86-7.26-0.14-2.55 0.72-5.25 2.36-7.4 1.32-1.77 3.08-3.02 5.06-3.66m2.05-2.41c-0.1 0-0.2 0.01-0.31 0.02-13.09 1.41-16.52 22.7-0.31 22.7 1.11 0 2.31-0.1 3.61-0.31 4.14-0.68 3.97-0.65 10.44-3.32 10.91-4.5 13.82-15.81 2.2-15.81-0.78 0-1.62 0.05-2.53 0.16-6.66 0.78-11.2 9.97-14.97 9.97-0.47 0-0.94-0.15-1.39-0.47-3.76-2.71 1.01-7.27 4.25-10.93 0.95-1.05 0.31-2.01-0.99-2.01z" fill="#736357"/><linearGradient id="b" x1="1778.1" x2="1802.4" y1="14.151" y2="31.629" gradientTransform="matrix(-1 0 0 1 1850.9 0)" gradientUnits="userSpaceOnUse"><stop stop-color="#BCAAA4" offset="0"/><stop stop-color="#B7A49E" offset=".3182"/><stop stop-color="#AA948C" offset=".7565"/><stop stop-color="#A1887F" offset="1"/></linearGradient><path d="m61.88 36.32c-1.08 0-2.23-0.1-3.44-0.3-3.87-0.63-3.87-0.63-9.53-2.97l-0.69-0.29c-6.31-2.6-9.57-7.5-8.96-10.55 0.43-2.15 2.69-3.34 6.38-3.34 0.75 0 1.56 0.05 2.41 0.15 3.35 0.39 6.23 3.26 8.77 5.78 2.26 2.25 4.22 4.2 6.31 4.2 0.7 0 1.36-0.22 1.97-0.66 1.06-0.76 1.66-1.72 1.78-2.84 0.29-2.75-2.35-5.67-4.91-8.5-0.33-0.36-0.65-0.72-0.95-1.06-0.16-0.18-0.18-0.28-0.19-0.31 0 0.01 0.01 0.01 0.02 0.01 0.05 0 0.19-0.05 0.43-0.05 0.06 0 0.13 0 0.2 0.01 6.72 0.73 10.57 7.05 10.28 12.5-0.3 5.15-3.98 8.22-9.88 8.22z" fill="url(#b)"/><path d="m63.31 17.01c1.98 0.63 3.74 1.88 5.08 3.64 1.63 2.15 2.49 4.85 2.36 7.4-0.12 2.18-1.22 7.26-8.86 7.26-1.02 0-2.13-0.1-3.3-0.29-3.74-0.61-3.74-0.61-9.29-2.91l-0.69-0.29c-5.66-2.33-8.89-6.76-8.36-9.43 0.45-2.28 3.93-2.53 5.4-2.53 0.71 0 1.48 0.05 2.29 0.14 3.01 0.35 5.76 3.09 8.18 5.5s4.51 4.49 7.01 4.49c0.91 0 1.77-0.29 2.56-0.85 1.62-1.17 2.08-2.57 2.19-3.55 0.29-2.93-2.08-5.79-4.57-8.58m-2.05-2.41c-1.3 0-1.94 0.96-1.01 2.01 3.24 3.66 8.01 8.22 4.25 10.93-0.45 0.33-0.91 0.47-1.39 0.47-3.77 0-8.31-9.19-14.97-9.97-0.91-0.11-1.75-0.16-2.53-0.16-11.61 0-8.71 11.31 2.2 15.81 6.48 2.67 6.31 2.64 10.44 3.32 1.3 0.21 2.5 0.31 3.61 0.31 16.21 0 12.78-21.3-0.31-22.71-0.09-0.01-0.19-0.01-0.29-0.01z" fill="#736357"/><g display="none"><g display="inline"><g opacity=".6"><circle cx="64" cy="64" r="28" fill="none" opacity=".61" stroke="#000" stroke-miterlimit="10" stroke-width=".2625"/><line x1="84" x2="84" y2="128" fill="none" opacity=".61" stroke="#000" stroke-miterlimit="10" stroke-width=".25"/><line x1="44" x2="44" y2="128" fill="none" opacity=".61" stroke="#000" stroke-miterlimit="10" stroke-width=".25"/><line x1="64" x2="64" y2="128" fill="none" opacity=".61" stroke="#000" stroke-miterlimit="10" stroke-width=".25"/><line x1="128" y1="64" y2="64" fill="none" opacity=".61" stroke="#000" stroke-miterlimit="10" stroke-width=".25"/><line x1="128" y1="44" y2="44" fill="none" opacity=".61" stroke="#000" stroke-miterlimit="10" stroke-width=".25"/><line x1="128" y1="83.75" y2="83.75" fill="none" opacity=".61" stroke="#000" stroke-miterlimit="10" stroke-width=".25"/><line x1="128" y1="128" fill="none" opacity=".61" stroke="#000" stroke-miterlimit="10" stroke-width=".25"/><line x2="128" y1="128" fill="none" opacity=".61" stroke="#000" stroke-miterlimit="10" stroke-width=".25"/><g opacity=".61"><path d="M64,4.26c32.94,0,59.74,26.8,59.74,59.74S96.94,123.74,64,123.74S4.26,96.94,4.26,64S31.06,4.26,64,4.26 M64,4 C30.86,4,4,30.86,4,64s26.86,60,60,60s60-26.86,60-60S97.14,4,64,4L64,4z"/></g><path d="m107.97 115.97h-87.94c-4.42 0-8.03-3.61-8.03-8.03v-87.91c0-4.42 3.61-8.03 8.03-8.03h87.94c4.42 0 8.03 3.61 8.03 8.03v87.91c0 4.42-3.61 8.03-8.03 8.03z" fill="none" opacity=".61" stroke="#000" stroke-miterlimit="10" stroke-width=".2578"/><path d="m100 124h-72c-4.4 0-8-3.6-8-8v-104c0-4.4 3.6-8 8-8h72c4.4 0 8 3.6 8 8v104c0 4.4-3.6 8-8 8z" fill="none" opacity=".61" stroke="#000" stroke-miterlimit="10" stroke-width=".2628"/><path d="M113.77,108H14.23 C8.6,108,4,103.4,4,97.77V30.28c0-5.63,4.6-10.23,10.23-10.23h99.54c5.63,0,10.23,4.6,10.23,10.23v67.48 C124,103.4,119.4,108,113.77,108z" fill="none" opacity=".61" stroke="#000" stroke-miterlimit="10" stroke-width=".2627"/></g><g opacity=".2"><defs><rect id="h" width="128" height="128" opacity=".2"/></defs><clipPath id="a"><use xlink:href="#h"/></clipPath><g clip-path="url(#a)"><g fill="none" stroke="#000" stroke-miterlimit="10" stroke-width=".25"><line x1="-28" x2="-28" y1="160" y2="-32"/><line x1="-24" x2="-24" y1="160" y2="-32"/><line x1="-20" x2="-20" y1="160" y2="-32"/><line x1="-16" x2="-16" y1="160" y2="-32"/><line x1="-12" x2="-12" y1="160" y2="-32"/><line x1="-8" x2="-8" y1="160" y2="-32"/><line x1="-4" x2="-4" y1="160" y2="-32"/><line y1="160" y2="-32"/><line x1="4" x2="4" y1="160" y2="-32"/><line x1="8" x2="8" y1="160" y2="-32"/><line x1="12" x2="12" y1="160" y2="-32"/><line x1="16" x2="16" y1="160" y2="-32"/><line x1="20" x2="20" y1="160" y2="-32"/><line x1="24" x2="24" y1="160" y2="-32"/><line x1="28" x2="28" y1="160" y2="-32"/><line x1="32" x2="32" y1="160" y2="-32"/><line x1="36" x2="36" y1="160" y2="-32"/><line x1="40" x2="40" y1="160" y2="-32"/><line x1="44" x2="44" y1="160" y2="-32"/><line x1="48" x2="48" y1="160" y2="-32"/><line x1="52" x2="52" y1="160" y2="-32"/><line x1="56" x2="56" y1="160" y2="-32"/><line x1="60" x2="60" y1="160" y2="-32"/><line x1="64" x2="64" y1="160" y2="-32"/><line x1="68" x2="68" y1="160" y2="-32"/><line x1="72" x2="72" y1="160" y2="-32"/><line x1="76" x2="76" y1="160" y2="-32"/><line x1="80" x2="80" y1="160" y2="-32"/><line x1="84" x2="84" y1="160" y2="-32"/><line x1="88" x2="88" y1="160" y2="-32"/><line x1="92" x2="92" y1="160" y2="-32"/><line x1="96" x2="96" y1="160" y2="-32"/><line x1="100" x2="100" y1="160" y2="-32"/><line x1="104" x2="104" y1="160" y2="-32"/><line x1="108" x2="108" y1="160" y2="-32"/><line x1="112" x2="112" y1="160" y2="-32"/><line x1="116" x2="116" y1="160" y2="-32"/><line x1="120" x2="120" y1="160" y2="-32"/><line x1="124" x2="124" y1="160" y2="-32"/><line x1="128" x2="128" y1="160" y2="-32"/><line x1="132" x2="132" y1="160" y2="-32"/><line x1="136" x2="136" y1="160" y2="-32"/><line x1="137" x2="137" y1="166.05" y2="-25.95"/><line x1="144" x2="144" y1="160" y2="-32"/><line x1="148" x2="148" y1="160" y2="-32"/><line x1="152" x2="152" y1="160" y2="-32"/><line x1="156" x2="156" y1="160" y2="-32"/></g><g fill="none" stroke="#000" stroke-miterlimit="10" stroke-width=".25"><line x1="-32" x2="160" y1="-28" y2="-28"/><line x1="-32" x2="160" y1="-24" y2="-24"/><line x1="-32" x2="160" y1="-20" y2="-20"/><line x1="-32" x2="160" y1="-16" y2="-16"/><line x1="-32" x2="160" y1="-12" y2="-12"/><line x1="-32" x2="160" y1="-8" y2="-8"/><line x1="-32" x2="160" y1="-4" y2="-4"/><line x1="-32" x2="160"/><line x1="-32" x2="160" y1="4" y2="4"/><line x1="-32" x2="160" y1="8" y2="8"/><line x1="-32" x2="160" y1="12" y2="12"/><line x1="-32" x2="160" y1="16" y2="16"/><line x1="-32" x2="160" y1="20" y2="20"/><line x1="-32" x2="160" y1="24" y2="24"/><line x1="-32" x2="160" y1="28" y2="28"/><line x1="-32" x2="160" y1="32" y2="32"/><line x1="-32" x2="160" y1="36" y2="36"/><line x1="-32" x2="160" y1="40" y2="40"/><line x1="-32" x2="160" y1="44" y2="44"/><line x1="-32" x2="160" y1="48" y2="48"/><line x1="-32" x2="160" y1="52" y2="52"/><line x1="-32" x2="160" y1="56" y2="56"/><line x1="-32" x2="160" y1="60" y2="60"/><line x1="-32" x2="160" y1="64" y2="64"/><line x1="-32" x2="160" y1="68" y2="68"/><line x1="-32" x2="160" y1="72" y2="72"/><line x1="-32" x2="160" y1="76" y2="76"/><line x1="-32" x2="160" y1="80" y2="80"/><line x1="-32" x2="160" y1="84" y2="84"/><line x1="-32" x2="160" y1="88" y2="88"/><line x1="-32" x2="160" y1="92" y2="92"/><line x1="-32" x2="160" y1="96" y2="96"/><line x1="-32" x2="160" y1="100" y2="100"/><line x1="-32" x2="160" y1="104" y2="104"/><line x1="-32" x2="160" y1="108" y2="108"/><line x1="-32" x2="160" y1="112" y2="112"/><line x1="-32" x2="160" y1="116" y2="116"/><line x1="-32" x2="160" y1="120" y2="120"/><line x1="-32" x2="160" y1="124" y2="124"/><line x1="-32" x2="160" y1="128" y2="128"/><line x1="-32" x2="160" y1="132" y2="132"/><line x1="-32" x2="160" y1="136" y2="136"/><line x1="-32" x2="160" y1="140" y2="140"/><line x1="-32" x2="160" y1="144" y2="144"/><line x1="-32" x2="160" y1="148" y2="148"/><line x1="-32" x2="160" y1="152" y2="152"/><line x1="-32" x2="160" y1="156" y2="156"/></g><path d="m159.75-31.75v191.5h-191.5v-191.5h191.5m0.25-0.25h-192v192h192v-192z"/></g></g><g fill="#F44336"><rect width="4" height="128" opacity=".3"/><rect x="124" width="4" height="128" opacity=".3"/><rect transform="matrix(-1.837e-16 1 -1 -1.837e-16 66 -62)" x="62" y="-58" width="4" height="120" opacity=".3"/><rect transform="matrix(-1.837e-16 1 -1 -1.837e-16 190 62)" x="62" y="66" width="4" height="120" opacity=".3"/></g></g></g></svg>
