<?xml version="1.0" encoding="utf-8"?>
<!-- Generator: Adobe Illustrator 16.0.0, SVG Export Plug-In . SVG Version: 6.00 Build 0)  -->
<!DOCTYPE svg PUBLIC "-//W3C//DTD SVG 1.1//EN" "http://www.w3.org/Graphics/SVG/1.1/DTD/svg11.dtd">
<svg version="1.1" id="レイヤー_1" xmlns="http://www.w3.org/2000/svg" xmlns:xlink="http://www.w3.org/1999/xlink" x="0px"
	 y="0px" width="128px" height="128px" viewBox="0 0 128 128" enable-background="new 0 0 128 128" xml:space="preserve">
<g>
	<path fill="#FFFFFF" d="M80.41,89.73c-11.64,5.87-28.33,6.11-38.77-2.88c-11.29-9.7-15.29-25.39-6.95-38.69
		c1.04-1.66,2.08-3.36,3.23-4.93c3.16-4.29,7.81-7.59,12.76-9.08c0.33-0.1,0.67-0.19,1-0.27c1.51-0.38,3.04-0.69,4.57-1.08
		c4.15-1.06,8.48-0.61,12.67-0.13c4.85,0.56,10.89,3.51,14.82,6.52C99.56,51.32,98.27,80.74,80.41,89.73z"/>
	<g>
		<path fill="#FCC21B" d="M126.16,64.26c-5.35-7-8.2-5.03-15.39-5.4c-1.35-0.07-12.17,0.67-12.35-1.1
			c-0.2-1.89,10.42-4.87,11.85-5.44c4.39-1.74,8.01-3.19,9.86-7.21c0.44-0.96,1.02-3.44,0.13-6.36c-1.04-3.42-7.98-6.09-10.93-5.6
			c-2.05,0.34-4.59,0.64-7.01,1.61c-1.44,0.58-7.87,4.1-9.43,3.63c-1.85-0.56,4.77-5.6,5.46-6.36c1.29-1.42,2.87-2.45,3.84-4.1
			c1.22-2.08,2.69-4.8,2.67-7.25c-0.01-1.44-1.52-5.47-3.18-6.36c-7.07-3.81-11.57,1.4-16.79,8.02c-0.53,0.66-5.99,7.55-6.76,7.75
			c-0.43,0.12,4.83-9.83,4.98-10.17c2.04-4.71,1.14-8.9-0.25-13.23c-0.29-0.9-1.94-2.1-3.31-2.54c-0.78-0.26-3.5-1.13-4.45-1.02
			c-5.98,0.67-8.01,3.44-11.71,9.92c-0.85,1.5-2.72,11.52-3.39,13.05c-0.94,2.11-1.95-8.11-2.12-9.39c-0.19-1.49-0.66-3.18-1.09-4.3
			c-0.52-1.32-1.04-2.73-1.77-3.78c-0.83-1.19-1.8-2.33-2.94-3.21c-1.9-1.46-5.09-2.41-7.9-1.64c-0.92,0.25-1.23,0.34-1.92,0.77
			c-3.66,2.27-4.59,7.83-4.43,11.43c0.26,5.47,6.03,13.81,6.18,15.96c-1.6-0.69-9.1-12.02-11.9-13.67
			c-4.02-2.37-6.36-3.31-11.19-1.78c-0.54,0.17-2.54,2.04-3.05,2.26c-0.74,0.33-0.26,0.63-0.61,1.05c-1.06,1.29-1.27,4.2-1.05,5.47
			c0.39,2.28,1.28,4.12,2.29,6.23c0.28,0.58,1.34,2.02,1.66,2.57c0.7,1.19,1.72,2.24,2.56,3.33c0.22,0.28,10.11,6.7,9.61,6.84
			c-0.72,0.21-9.43-3.52-10.13-3.6c-0.74-0.08-11.72-7.23-17.32-1c-1.12,1.24-2.54,2.8-2.79,5.22c-0.12,1.31-0.3,4.22,0.25,5.21
			c1.69,3.02,3.04,4.64,5.85,6.61c1.34,0.94,6.31,2.34,7.76,3.06c0.56,0.27,8.6,0.18,8.08,1.1c-0.18,0.33-7.79,1.09-8.21,1.19
			c-3.18,0.76-4.79,0.95-7,2.16c-2.3,1.26-11.32,3.18-6.89,15.02c0.97,2.58,3,3.68,5.37,4.19c2.25,0.48,5.52-0.13,8.27-0.89
			c1.74-0.48,11.28-4.96,13.07-4.46c1.8,0.5-5.42,4.17-6.07,4.71c-1.2,1-6.24,5.53-7,6.87c-1.53,2.69-2.05,3.51-2.93,6.47
			c-0.81,2.69-1.03,4.29-0.78,7.11c0.12,1.3,0.49,2.86,1.82,3.43c1.37,0.58,3.76,0.48,5,0.48c3.6,0,5.78-1.43,8.96-3.07
			c1.35-0.69,2.64-1.19,3.85-2.33c0.74-0.7,6.53-10.86,7.6-10.45c-0.03-0.01-5.01,14.66-5.09,15.09c-0.53,2.91-0.63,5.9,0.22,8.74
			c0.49,1.64,1.33,3.21,2.49,4.48c0.82,0.91,2.65,1.54,4.02,1.57c6.14,0.15,9.7-4.81,11.86-12.06c0.13-0.43,2.71-8.7,3.11-8.91
			c1.21-0.63,1.32,10.01,1.4,10.71c0.23,1.97,0.98,4.87,1.99,6.6c1.28,2.22,2.73,3.98,4.71,5.6c1.59,1.3,4.37,1.53,6.48,1.77
			c0.65,0.08,2.31-0.31,2.93-0.5c1.05-0.32,3.17-2.47,3.64-3.4c2.23-4.46,1.07-7.93,0.11-12.71c-0.12-0.59-2.92-10.68-2.5-11.15
			c0.76-0.83,4.76,9.27,5.07,9.87c1.06,1.99,3.47,5.14,5.13,6.7c2.16,2.04,5.06,2.97,7.64,3.44c1.91,0.35,5.76-0.12,7.25-1.4
			c1.46-1.25,2.19-3.14,2.54-5.6c0.37-2.54,0.07-4.02-0.64-6.49c-0.23-0.81-0.8-2.11-1-2.45c-1.17-2.13-9.7-12.33-9.39-12.36
			c1.2-0.13,10.73,7.39,11.82,7.91c2.11,1.02,4.49,1.54,6.78,2.01c1.99,0.41,3.81,0.11,5.83,0.06c0.37-0.01,2.18-0.98,3.89-2.79
			c1.15-1.21,1.3-3.46,1.3-4.25c0-3.09-0.62-4.47-3.04-7.53c-0.95-1.2-2.46-2.17-4.12-3.12c-0.99-0.57-13.68-3.58-14.16-4.58
			c-0.47-0.98,11.98,1,12.72,0.93c1.94-0.17,4.18,0.21,5.99-0.17c2.74-0.58,5.39-1.4,6.95-2.75
			C128.1,71.86,127.6,66.15,126.16,64.26z M80.41,89.73c-11.64,5.87-28.33,6.11-38.77-2.88c-11.29-9.7-15.29-25.39-6.95-38.69
			c1.04-1.66,2.08-3.36,3.23-4.93c3.16-4.29,7.81-7.59,12.76-9.08c0.33-0.1,0.67-0.19,1-0.27c1.51-0.38,3.04-0.69,4.57-1.08
			c4.15-1.06,8.48-0.61,12.67-0.13c4.85,0.56,10.89,3.51,14.82,6.52C99.56,51.32,98.27,80.74,80.41,89.73z"/>
		<path fill="#FCC21B" d="M63.52,44.4c-3.61-0.17-9.27,0.76-12.29,3.13c-5.51,4.33-8.36,12.04-7,18.98c0.46,2.35,1.41,4.62,2.9,6.64
			c6.64,8.98,21.53,8.84,29.34,1.6C87.81,64.25,77.61,45.06,63.52,44.4z"/>
	</g>
</g>
</svg>
