<svg width="128" height="128" style="enable-background:new 0 0 128 128;" xmlns="http://www.w3.org/2000/svg" xmlns:xlink="http://www.w3.org/1999/xlink">
  <g>
    <linearGradient id="SVGID_1_" gradientUnits="userSpaceOnUse" x1="5.5161" x2="118.8247" y1="5.2803" y2="119.0458">
      <stop offset="0" style="stop-color:#81D4FA"/>
      <stop offset="1" style="stop-color:#0094D6"/>
    </linearGradient>
    <path d="M116,124H12c-4.42,0-8-3.58-8-8V12c0-4.42,3.58-8,8-8h104c4.42,0,8,3.58,8,8v104 C124,120.42,120.42,124,116,124z" style="fill:url(#SVGID_1_);"/>
    <g style="opacity:0.2;">
      <path d="M116,7c2.76,0,5,2.24,5,5v104c0,2.76-2.24,5-5,5H12c-2.76,0-5-2.24-5-5V12c0-2.76,2.24-5,5-5H116 M116,4H12c-4.42,0-8,3.58-8,8v104c0,4.42,3.58,8,8,8h104c4.42,0,8-3.58,8-8V12C124,7.58,120.42,4,116,4L116,4z" style="fill:#424242;"/>
    </g>
    <linearGradient id="SVGID_2_" gradientUnits="userSpaceOnUse" x1="21.2471" x2="106.2471" y1="20.7441" y2="106.7441">
      <stop offset="0" style="stop-color:#C2ECFF"/>
      <stop offset="0.157" style="stop-color:#BDEAFE"/>
      <stop offset="0.3484" style="stop-color:#AEE3FA"/>
      <stop offset="0.5578" style="stop-color:#95D7F5"/>
      <stop offset="0.7789" style="stop-color:#73C7ED"/>
      <stop offset="1" style="stop-color:#49B3E3"/>
    </linearGradient>
    <path d="M101,109H27c-4.42,0-8-3.58-8-8V27c0-4.42,3.58-8,8-8h74c4.42,0,8,3.58,8,8v74 C109,105.42,105.42,109,101,109z" style="fill:url(#SVGID_2_);"/>
  </g>
  <g>
    <g style="opacity:0.2;">
      <path d="M73.57,25.93c0.76,0,1.37,0.61,1.37,1.37v73.39c0,0.76-0.61,1.37-1.37,1.37H63.7 c-0.76,0-1.37-0.61-1.37-1.37V43.03c0-0.78-0.64-1.37-1.37-1.37c-0.15,0-0.3,0.02-0.44,0.07l-14.98,5.11 c-0.15,0.05-0.3,0.07-0.44,0.07c-0.73,0-1.37-0.59-1.37-1.37v-7.76c0-0.57,0.36-1.09,0.9-1.29L73.1,26.02 C73.25,25.96,73.41,25.93,73.57,25.93 M73.57,22.93c-0.52,0-1.02,0.09-1.51,0.27L43.59,33.68c-1.71,0.63-2.86,2.28-2.86,4.1v7.76 c0,2.41,1.96,4.37,4.37,4.37c0.48,0,0.96-0.08,1.41-0.23l12.82-4.37v55.39c0,2.41,1.96,4.37,4.37,4.37h9.87 c2.41,0,4.37-1.96,4.37-4.37V27.31C77.94,24.9,75.98,22.93,73.57,22.93L73.57,22.93z" style="fill:#424242;"/>
    </g>
    <path d="M73.57,102.07H63.7c-0.76,0-1.37-0.61-1.37-1.37V43.03c0-0.94-0.92-1.6-1.81-1.3l-14.98,5.11 c-0.89,0.3-1.81-0.36-1.81-1.3v-7.76c0-0.57,0.36-1.09,0.9-1.29L73.1,26.02c0.15-0.06,0.31-0.08,0.47-0.08l0,0 c0.76,0,1.37,0.61,1.37,1.37v73.39C74.94,101.45,74.33,102.07,73.57,102.07z" style="fill:#FAFAFA;"/>
  </g>
</svg>