<?xml version="1.0" encoding="utf-8"?>
<!-- Generator: Adobe Illustrator 19.2.1, SVG Export Plug-In . SVG Version: 6.00 Build 0)  -->
<svg version="1.1" id="レイヤー_1" xmlns="http://www.w3.org/2000/svg" xmlns:xlink="http://www.w3.org/1999/xlink" x="0px"
	 y="0px" viewBox="0 0 128 128" style="enable-background:new 0 0 128 128;" xml:space="preserve">
<g>
	<g>
		<g>
			<g>
				<defs>
					<path id="SVGID_1_" d="M64,6.26C32.17,6.26,6.27,32.17,6.27,64c0,31.83,25.9,57.73,57.74,57.73s57.73-25.9,57.73-57.73
						C121.73,32.17,95.84,6.26,64,6.26z"/>
				</defs>
				<use xlink:href="#SVGID_1_"  style="overflow:visible;fill:#FFFFFF;"/>
				<clipPath id="SVGID_2_">
					<use xlink:href="#SVGID_1_"  style="overflow:visible;"/>
				</clipPath>
			</g>
			<g>
				<g>
					<g>
						<path style="fill:#40C0E7;" d="M64,127.9C28.77,127.9,0.1,99.23,0.1,64C0.1,28.77,28.77,0.1,64,0.1S127.9,28.77,127.9,64
							C127.9,99.23,99.23,127.9,64,127.9z M64,6.26C32.17,6.26,6.27,32.17,6.27,64c0,31.83,25.9,57.73,57.74,57.73
							s57.73-25.9,57.73-57.73C121.73,32.17,95.84,6.26,64,6.26z"/>
					</g>
				</g>
				<ellipse style="fill:#2F2F2F;" cx="113.93" cy="64" rx="3.68" ry="3.68"/>
				<path style="fill:#2F2F2F;" d="M110.43,37.2c1.01,1.76,0.41,4.01-1.35,5.03c-1.77,1.02-4.02,0.42-5.03-1.35
					c-1.02-1.77-0.42-4.02,1.35-5.03C107.16,34.83,109.42,35.43,110.43,37.2z"/>
				<path style="fill:#2F2F2F;" d="M90.81,17.57c1.76,1.02,2.37,3.27,1.35,5.03c-1.02,1.77-3.27,2.37-5.03,1.35
					c-1.76-1.01-2.37-3.27-1.35-5.03C86.79,17.15,89.05,16.55,90.81,17.57z"/>
				
					<ellipse transform="matrix(0.866 -0.5 0.5 0.866 -5.1498 22.2977)" style="fill:#2F2F2F;" cx="39.03" cy="20.76" rx="3.68" ry="3.68"/>
				<path style="fill:#2F2F2F;" d="M17.57,37.19c1.02-1.76,3.27-2.36,5.03-1.34c1.76,1.01,2.36,3.27,1.35,5.02
					c-1.02,1.77-3.27,2.37-5.04,1.35C17.15,41.21,16.55,38.95,17.57,37.19z"/>
				<path style="fill:#2F2F2F;" d="M10.38,64c0-2.04,1.65-3.68,3.68-3.68c2.04,0,3.68,1.64,3.68,3.67c0,2.04-1.65,3.69-3.68,3.69
					C12.03,67.69,10.38,66.04,10.38,64z"/>
				<path style="fill:#2F2F2F;" d="M17.56,90.81c-1.01-1.77-0.41-4.02,1.35-5.03c1.77-1.02,4.01-0.42,5.04,1.34
					c1.02,1.77,0.41,4.02-1.35,5.04C20.84,93.17,18.58,92.58,17.56,90.81z"/>
				<path style="fill:#2F2F2F;" d="M37.19,110.44c-1.76-1.02-2.36-3.27-1.35-5.03c1.02-1.77,3.27-2.37,5.04-1.36
					c1.76,1.02,2.37,3.27,1.35,5.04C41.21,110.85,38.95,111.46,37.19,110.44z"/>
				<path style="fill:#2F2F2F;" d="M90.8,110.44c-1.76,1.01-4.02,0.41-5.03-1.35c-1.02-1.77-0.42-4.01,1.35-5.03
					c1.76-1.02,4.02-0.42,5.03,1.35C93.17,107.17,92.57,109.43,90.8,110.44z"/>
				<path style="fill:#2F2F2F;" d="M110.43,90.81c-1.02,1.77-3.27,2.36-5.03,1.35c-1.77-1.02-2.37-3.27-1.35-5.03
					c1.01-1.76,3.27-2.37,5.03-1.35C110.85,86.79,111.45,89.06,110.43,90.81z"/>
			</g>
		</g>
		<g>
			<g>
				<circle style="fill:#2F2F2F;" cx="64" cy="64" r="9.78"/>
				<rect x="59.4" y="60.6" style="fill:#2F2F2F;" width="9.21" height="56.06"/>
				<circle style="fill:#2F2F2F;" cx="64" cy="64" r="9.78"/>
			</g>
			<polygon style="fill:#2F2F2F;" points="59.52,67.56 61.9,58.68 97.35,68.17 94.97,77.08 			"/>
			<ellipse style="fill:#FFFFFF;" cx="64" cy="64" rx="3.69" ry="3.68"/>
		</g>
	</g>
	<g>
		<path style="fill:#2F2F2F;" d="M64,10.38c-2.04,0-3.68,1.65-3.68,3.68c0,2.03,1.64,3.68,3.68,3.68c2.04,0,3.69-1.65,3.69-3.68
			C67.68,12.03,66.03,10.37,64,10.38z"/>
	</g>
</g>
</svg>
