<?xml version="1.0" encoding="utf-8"?>
<!-- Generator: Adobe Illustrator 26.3.1, SVG Export Plug-In . SVG Version: 6.00 Build 0)  -->
<svg version="1.1" id="f44e" xmlns="http://www.w3.org/2000/svg" xmlns:xlink="http://www.w3.org/1999/xlink" x="0px" y="0px"
	 viewBox="0 0 128 128" style="enable-background:new 0 0 128 128;" xml:space="preserve">
<g>
	<g>
		<g>
			<path style="fill:#70534A;" d="M115.53,29.39c-0.83-5.37-3.63-9.59-7.44-9.9c-1.62-0.13-3.4-0.07-3.4-0.07
				c1.99-0.7,3.94-4.29,2.15-9.61c-1.68-4.97-5.53-6.19-11.67-5.36c-1.59,0.22-10.03,1.64-12.94,1.57
				c-13.53-0.34-27.95-0.87-37.84,6.4C40,15.3,36.75,19.65,30.92,20.2c-6.08,0.58-10,0.56-14.99-0.12
				c-1.03-0.14-2.02,0.45-2.37,1.43c-1.85,5.2-6.64,21.86-0.77,41.99c0.32,1.11,1.43,1.8,2.56,1.57c3.26-0.67,10.24-1.47,17.74,1.63
				c5.37,2.22,6.83,9.29,13.99,14.03c17,11.29,15.62,27.54,15.04,36.13c-0.34,5.04,3.33,7.62,9,6.89
				c8.93-1.14,12.49-13.5,12.06-24.18c-0.23-5.59-2.16-10.78-3.47-14.41c-2.5-6.93,1.76-5.74,5.31-4.88
				c12.04,2.91,18.49,2.95,18.49,2.95c5.49-0.31,9.6-4.47,10.07-9.54c0.51-5.55-0.65-9.01-1.99-10.23
				c3.65-0.57,5.99-5.55,6.39-10.72c0.27-3.52-1.29-10.69-5.95-11.93C114.8,39.09,116.22,33.87,115.53,29.39z"/>
			<path style="fill:#5C4037;" d="M90.13,42.77c-6.38,1.39-7.01,12.68-2.67,15.35c1.64,1.01,1.27,4.08,1.27,4.08
				c-2.09,0.61-4.02,2.68-4.34,7.47c-0.33,5,3.11,8.23,3.11,8.23s-5.03,0.36-7.17-2.69c-2.69-3.83-4.58-14.5-6.47-19.37
				c-2.39-6.17-7.76-11.51-12.73-14.44c7.41-3.22,9.06-18.62,12.73-25.93S84.94,7.45,84.64,7.9c-1.46,2.21-1.54,6.92-1.17,8.44
				c1.41,5.86,5.93,5.34,5.93,5.34l0.63,2.26c0,0-3.28,2.73-3.28,7.73c0,5.72,3.15,7.63,3.15,7.63L90.13,42.77z"/>
		</g>
		<path style="fill:#4A2F27;" d="M33.74,59.6c0,0,1.25,2.58,5.34,8.68c1.74,2.6,4.55,5.95,8.86,9.63c4.45,3.79,7.85,8.49,8.17,11.25
			c-1.89-2.73-6.21-6.54-9.04-8.42C40.12,76.12,33.09,66.71,33.74,59.6z"/>
	</g>
	<path style="fill:#4A2F27;" d="M85.69,25.35c-1.41,0.28-4.91,2.69-4.83,7.85c0.06,4.42,2.77,5.43,4.07,5.94
		c0,0,13.06,0.2,21.74,0.06c2.82,0,5.5,1.63,5.5,1.63s-2.49,1.61-5.65,1.74c-14.26,0.57-20.58,0.3-22.81,0.7
		c0,0-3.97,0.14-4.36,7.08c-0.41,7.29,5.27,7.22,6.69,7.49c1.42,0.27,15.47,2.32,19.06,2.88c4.47,0.7,6.29,2.73,6.29,2.73
		s-0.8,0.27-4.87,0.06c-3.62-0.18-13.07-1.06-20.47-1.4c-1.07-0.05-5.59,0.69-6.08,5.01c-0.27,2.36-0.32,5.18,0.63,7.09
		c1.31,3.51,12.44,4.8,18.15,5.76c10.27,1.72,13.11-1.49,13.11-1.49c-2.22,5.41-8.98,5.68-15.75,4.56
		c-0.75-0.12-11.93-1.6-14.35-1.99c-1.79-0.29-2.42,0.99-0.99,5.02c3.7,10.42,2.28,18.85,2.28,18.85s-0.63-4.63-1.86-8.54
		s-3.08-7.93-5.38-11.81c-2.2-3.69-1.3-9.03-1.63-18.88s-5.16-17.4-12.69-22.2c-0.76-0.34-1.68-1.54-0.68-2.1
		c1.38-0.08,2.81,0.43,4.08,0.96c3.06,1.26,7.25,3.29,10.2,7.69c-0.07-5.04,1.73-7.98,3.98-9.43c-1.81-1.5-2.64-3.48-2.63-8.18
		c0.01-4.43,1.67-6.56,3.39-7.94c-1.87-0.86-3.57-2.44-4.18-5.21c-0.73-3.28-0.83-6.04,0.21-8.24c-0.02-0.01-0.05-0.02-0.06-0.04
		c-5.04-4-19.41-1.35-24.73,1.43c-8.49,4.43-9.9,6.94-12.42,8.71c-2.35,2.62-4.22,5.67-5.46,8.96c-0.32-2.75-0.13-4.84,0.63-6.91
		c-6,1.53-12.89-1.14-15.38-1.74c-2.64-0.63-2.96-1.49-2.96-1.49c11.62,0.65,14.3,0.49,17.54-0.35C38.85,18.1,40.59,11.47,54,7.7
		c6.44-1.81,17.33-2.47,30.86-2.79c5.49-1.14,12.23-0.7,12.23-0.7S83,7.66,80.55,10.55c-0.47,0.55-2.76,4.06-0.04,9.44
		c1.04,2.05,3.37,1.72,5.46,1.59c0.74-0.05,12.38-1.38,15.46-1.92c4.93-0.87,7.85,0.09,7.85,0.09s-3.62,1.79-6.41,2.3
		C99.87,22.59,87.1,25.07,85.69,25.35z"/>
</g>
</svg>
