<svg width="128" height="128" style="enable-background:new 0 0 128 128;" xmlns="http://www.w3.org/2000/svg" xmlns:xlink="http://www.w3.org/1999/xlink">
  <g>
    <g id="XMLID_4960_">
      <path id="XMLID_4962_" d="M89.48,66.62c0,0-16-1.45-25.5,14.92v17.62L89.48,66.62z" style="fill:#00BFA5;"/>
      <path id="XMLID_4961_" d="M127.98,128.53l-64,0.02V88.4c0-12.28,9.18-19.73,21.06-21.78 c7.71-1.33,15.22-0.84,22.08,0.78c11.23,2.67,20.86,9.63,20.86,21V128.53z" style="fill:#00BFA5;"/>
    </g>
    <rect id="XMLID_4959_" height="31.59" style="fill:#FCC21B;" width="8" x="120.09" y="96.97"/>
    <g id="XMLID_4956_">
      <path id="XMLID_4958_" d="M-0.02,128.53l64,0.02V88.4c0-12.28-9.62-19.73-21.5-21.78 c-7.71-1.33-14.78-0.84-21.64,0.78c-11.23,2.67-20.86,9.63-20.86,21L-0.02,128.53z" style="fill:#007689;"/>
      <path id="XMLID_4957_" d="M38.48,66.62c0,0,16.33-1.45,25.5,14.92v17.62L38.48,66.62z" style="fill:#007689;"/>
    </g>
    <rect id="XMLID_4954_" height="31.59" style="fill:#FCC21B;" width="8.19" x="-0.09" y="96.97"/>
    <g id="XMLID_179_">
      <path id="XMLID_178_" d="M33.48,74.12L33.48,74.12c-3.87,0-7-3.13-7-7V60.7h14v6.42 C40.48,70.99,37.34,74.12,33.48,74.12z" style="fill:#E59900;"/>
      <g id="XMLID_164_">
        <g id="XMLID_173_">
          <path id="XMLID_175_" d="M54.54,37.22c0,0,3.86,0.67,3.86,4.83c0,3.67-2.82,5.12-5.64,5.12v-9.95H54.54z" style="fill:#E59600;"/>
          <path id="XMLID_174_" d="M12.41,37.22c0,0-3.86,0.67-3.86,4.83c0,3.67,2.82,5.12,5.64,5.12v-9.95H12.41z" style="fill:#E59600;"/>
        </g>
        <path id="XMLID_172_" d="M33.48,9.98c-16.65,0-21,12.9-21,31.03c0,18.8,12.08,23.66,21,23.66 c8.79,0,21-4.72,21-23.66C54.48,22.89,50.12,9.98,33.48,9.98z" style="fill:#FCC21B;"/>
        <path id="XMLID_171_" d="M26.56,42.7c0,1.87-1.25,3.39-2.8,3.39c-1.55,0-2.81-1.52-2.81-3.39 c0-1.88,1.26-3.39,2.81-3.39C25.31,39.3,26.56,40.82,26.56,42.7" style="fill:#444444;"/>
        <path id="XMLID_170_" d="M40.39,42.7c0,1.87,1.25,3.39,2.81,3.39c1.55,0,2.81-1.52,2.81-3.39 c0-1.88-1.26-3.39-2.81-3.39C41.64,39.3,40.39,40.82,40.39,42.7" style="fill:#444444;"/>
        <path id="XMLID_169_" d="M39.55,54.15c-0.85,0-6.08,0-6.08,0s-5.23,0-6.08,0c-0.7,0-1,0.47-0.54,1.17 c0.65,0.98,3.04,2.87,6.61,2.87s5.97-1.89,6.61-2.87C40.55,54.62,40.25,54.15,39.55,54.15z" style="fill:#513F35;"/>
        <path id="XMLID_168_" d="M36.41,48.98c-1.03,0.29-2.11,0.44-2.94,0.44s-1.9-0.14-2.94-0.44 c-0.44-0.13-0.62,0.29-0.46,0.57c0.33,0.58,1.65,1.74,3.39,1.74c1.74,0,3.07-1.16,3.39-1.74C37.03,49.27,36.85,48.85,36.41,48.98 z" style="fill:#E59600;"/>
        <path id="XMLID_167_" d="M33.98,7.61c0,0-0.32-0.01-0.47-0.01c-0.14,0-0.47,0.01-0.47,0.01 C15.08,7.96,9.67,18.77,9.67,26.26c0,7.28,0.01,12.63,0.01,12.63s0.29-0.3,0.81-0.71c0.56-0.44,1.19-0.68,1.19-0.68l0.91,6.08 l5.99-12.51c0.04-0.08,0.12-0.12,0.2-0.11l3.55,0.39c3.57,0.4,7.15,0.59,10.73,0.6v0.01c0.16,0,0.31,0,0.47,0 c0.16,0,0.31,0,0.47,0v-0.01c3.58-0.01,7.16-0.2,10.73-0.6l3.55-0.39c0.09-0.01,0.17,0.04,0.2,0.11l5.99,12.51l0.91-6.08 c0,0,0.62,0.25,1.19,0.68c0.53,0.41,0.81,0.71,0.81,0.71s0.01-5.35,0.01-12.63C57.36,18.77,51.94,7.96,33.98,7.61z" style="fill:#6D4C41;"/>
      </g>
      <path id="XMLID_4953_" d="M94.35,73.97L94.35,73.97c-3.87,0-7-3.13-7-7v-5.98h14v5.98 C101.35,70.83,98.21,73.97,94.35,73.97z" style="fill:#E59900;"/>
      <g id="XMLID_136_">
        <g id="XMLID_143_">
          <path id="XMLID_145_" d="M115.62,37.22c0,0,3.86,0.67,3.86,4.83c0,3.67-2.82,5.12-5.64,5.12v-9.95H115.62 z" style="fill:#E59600;"/>
          <path id="XMLID_144_" d="M73.49,37.22c0,0-3.86,0.67-3.86,4.83c0,3.67,2.82,5.12,5.64,5.12v-9.95H73.49z" style="fill:#E59600;"/>
        </g>
        <path id="XMLID_142_" d="M94.56,9.98c-16.65,0-21,12.9-21,31.03c0,18.8,12.08,23.66,21,23.66 c8.79,0,21-4.72,21-23.66C115.56,22.89,111.2,9.98,94.56,9.98z" style="fill:#FCC21B;"/>
        <path id="XMLID_141_" d="M87.64,42.7c0,1.87-1.25,3.39-2.8,3.39c-1.55,0-2.81-1.52-2.81-3.39 c0-1.88,1.26-3.39,2.81-3.39C86.39,39.3,87.64,40.82,87.64,42.7" style="fill:#444444;"/>
        <path id="XMLID_140_" d="M101.47,42.7c0,1.87,1.25,3.39,2.81,3.39c1.55,0,2.81-1.52,2.81-3.39 c0-1.88-1.26-3.39-2.81-3.39C102.73,39.3,101.47,40.82,101.47,42.7" style="fill:#444444;"/>
        <path id="XMLID_139_" d="M100.64,54.15c-0.85,0-6.08,0-6.08,0s-5.23,0-6.08,0c-0.7,0-1,0.47-0.54,1.17 c0.65,0.98,3.04,2.87,6.61,2.87c3.57,0,5.97-1.89,6.61-2.87C101.63,54.62,101.33,54.15,100.64,54.15z" style="fill:#513F35;"/>
        <path id="XMLID_138_" d="M97.5,48.98c-1.03,0.29-2.11,0.44-2.94,0.44s-1.9-0.14-2.94-0.44 c-0.44-0.13-0.62,0.29-0.46,0.57c0.33,0.58,1.65,1.74,3.39,1.74c1.74,0,3.07-1.16,3.39-1.74C98.11,49.27,97.94,48.85,97.5,48.98z " style="fill:#E59600;"/>
        <path id="XMLID_137_" d="M95.06,7.61c0,0-0.32-0.01-0.47-0.01c-0.14,0-0.47,0.01-0.47,0.01 C76.17,7.96,70.75,18.77,70.75,26.26c0,7.28,0.01,12.63,0.01,12.63s0.29-0.3,0.81-0.71c0.56-0.44,1.19-0.68,1.19-0.68l0.91,6.08 l5.99-12.51c0.04-0.08,0.12-0.12,0.2-0.11l3.55,0.39c3.57,0.4,7.15,0.59,10.73,0.6v0.01c0.16,0,0.31,0,0.47,0 c0.16,0,0.31,0,0.47,0v-0.01c3.58-0.01,7.16-0.2,10.73-0.6l3.55-0.39c0.09-0.01,0.17,0.04,0.2,0.11l5.99,12.51l0.91-6.08 c0,0,0.62,0.25,1.19,0.68c0.53,0.41,0.81,0.71,0.81,0.71s0.01-5.35,0.01-12.63C118.44,18.77,113.02,7.96,95.06,7.61z" style="fill:#6D4C41;"/>
      </g>
    </g>
    <g id="XMLID_1987_">
      <path id="XMLID_4931_" d="M85.92,129.16H42.11c-0.31,0,0-7.79,0-7.79c0-10,12.73-13.35,17.15-13.35h9.52 c4.42,0,17.13,3.35,17.13,13.35v0.28C85.92,122.01,86.24,129.16,85.92,129.16z" style="fill:#B2DFDB;"/>
      <path id="XMLID_4930_" d="M64.49,116.3h-0.96c-2.37,0-4.29-1.92-4.29-4.29v-2.38h9.53v2.38 C68.78,114.38,66.86,116.3,64.49,116.3z" style="fill:#E59900;"/>
      <g id="XMLID_936_">
        <ellipse id="XMLID_948_" cx="63.85" cy="85.9" rx="20.7" ry="19.49" style="fill:#6D4C41;"/>
        <g id="XMLID_944_">
          <path id="XMLID_947_" d="M80.8,90.72c0,0,3.15,0.55,3.15,3.94c0,3-2.3,4.18-4.6,4.18v-8.12H80.8z" style="fill:#E59600;"/>
          <path id="XMLID_946_" d="M46.9,90.72c0,0-3.15,0.55-3.15,3.94c0,3,2.3,4.18,4.6,4.18v-8.12H46.9z" style="fill:#E59600;"/>
        </g>
        <g id="XMLID_943_">
          <path d="M75.85,80.53c-2.87-3.57-7.81-5.11-12-5.11c-4.18,0-9.13,1.53-12,5.11 c-2.81,3.5-4.28,8.01-4.26,14.07c0.02,4.89,1.28,8.64,4.82,11.6c3.28,2.74,7.08,4.22,11.19,4.22c4.04,0,8.5-1.41,11.66-4.19 c3.47-3.05,4.81-6.74,4.83-11.62C80.12,88.54,78.65,84.03,75.85,80.53z" style="fill:#FCC21B;"/>
        </g>
        <path id="XMLID_942_" d="M66.22,98.27c-0.84,0.24-1.7,0.35-2.37,0.35s-1.54-0.12-2.37-0.35 c-0.36-0.1-0.5,0.24-0.37,0.46c0.27,0.47,1.33,1.41,2.74,1.41c1.41,0,2.48-0.94,2.74-1.41C66.72,98.51,66.58,98.17,66.22,98.27z" style="fill:#E59600;"/>
        <path id="XMLID_941_" d="M68.76,102.13c-0.69,0-4.91,0-4.91,0s-4.22,0-4.91,0c-0.56,0-0.81,0.38-0.43,0.95 c0.52,0.79,2.46,2.32,5.34,2.32c2.89,0,4.82-1.53,5.34-2.32C69.57,102.51,69.32,102.13,68.76,102.13z" style="fill:#513F35;"/>
        <g id="XMLID_938_">
          <path id="XMLID_940_" d="M57.35,94.74c0,1.45-0.97,2.62-2.17,2.62c-1.2,0-2.17-1.17-2.17-2.62 c0-1.45,0.98-2.63,2.17-2.63C56.38,92.12,57.35,93.29,57.35,94.74" style="fill:#444444;"/>
          <path id="XMLID_939_" d="M74.69,94.74c0,1.45-0.97,2.62-2.17,2.62c-1.2,0-2.17-1.17-2.17-2.62 c0-1.45,0.98-2.63,2.17-2.63C73.73,92.12,74.69,93.29,74.69,94.74" style="fill:#444444;"/>
        </g>
        <path id="XMLID_937_" d="M46.7,93.62c0,0,4.72-4.94,6.45-6.6c0.11-0.11,0.29-0.02,0.27,0.14 c-0.07,0.69-0.12,1.44-0.15,1.89c-0.01,0.21,0.18,0.38,0.39,0.34c3.39-0.64,6.65-2.05,7.52-2.45c0.11-0.05,0.22,0.04,0.22,0.15 c-0.02,0.63-0.01,1.23,0,1.59c0,0.2,0.18,0.35,0.38,0.32c3.11-0.48,5.7-1.75,6.56-2.21c0.2-0.11,0.42-0.13,0.64-0.05 c1.61,0.58,3.57,1.72,4.28,2.14c0.16,0.09,0.36,0.04,0.45-0.12c0.27-0.49,0.65-1.24,0.82-1.6c0.05-0.1,0.18-0.12,0.25-0.05 c2.53,2.5,6.23,6.5,6.23,6.5l2.61-8.38c0,0-4.23-14.91-18.92-14.91S44.44,86.24,44.44,86.24L46.7,93.62z" style="fill:#6D4C41;"/>
      </g>
    </g>
  </g>
</svg>