<svg width="128" height="128" style="enable-background:new 0 0 128 128;" xmlns="http://www.w3.org/2000/svg" xmlns:xlink="http://www.w3.org/1999/xlink">
  <g id="Layer_2">
    <g>
      <g>
        <linearGradient id="SVGID_1_" gradientUnits="userSpaceOnUse" x1="36.2451" x2="36.2451" y1="89.8095" y2="119.6895">
          <stop offset="1.860119e-03" style="stop-color:#754C24"/>
          <stop offset="0.0677" style="stop-color:#855C32"/>
          <stop offset="0.2359" style="stop-color:#A87F52"/>
          <stop offset="0.3735" style="stop-color:#BE9466"/>
          <stop offset="0.4624" style="stop-color:#C69C6D"/>
        </linearGradient>
        <path d="M33.24,116.11c-0.46-4-2.31-20.04-3.01-27.64c1.82,1.61,4.69,3.61,7.72,3.61c0,0,0,0,0,0 c0.66,0,1.31-0.1,1.93-0.29c0,0,0.06-0.02,0.2-0.02c0.81,0,1.91,0.46,2.18,0.76c-0.78,6.39-1.94,19.78-2.25,23.34L33.24,116.11z" style="fill:url(#SVGID_1_);"/>
        <path d="M31.45,90.72c1.81,1.26,4.08,2.36,6.5,2.36c0.73,0,1.45-0.1,2.13-0.3c0.32,0,0.78,0.13,1.1,0.27 c-0.73,6.14-1.72,17.5-2.1,21.86l-4.97,0.18C33.59,110.47,32.2,98.28,31.45,90.72 M29.01,85.82c0.4,6.17,3.34,31.31,3.34,31.31 l8.58-0.3c0,0,1.42-16.93,2.33-24.31c0.12-0.95-1.97-1.76-3.18-1.76c-0.19,0-0.36,0.02-0.5,0.06c-0.54,0.17-1.09,0.24-1.63,0.24 C33.39,91.07,29.01,85.82,29.01,85.82L29.01,85.82z" style="fill:#8C6239;"/>
      </g>
      <g>
        <linearGradient id="SVGID_2_" gradientUnits="userSpaceOnUse" x1="98.0288" x2="98.0288" y1="89.8679" y2="119.7448">
          <stop offset="1.860119e-03" style="stop-color:#754C24"/>
          <stop offset="0.0677" style="stop-color:#855C32"/>
          <stop offset="0.2359" style="stop-color:#A87F52"/>
          <stop offset="0.3735" style="stop-color:#BE9466"/>
          <stop offset="0.4624" style="stop-color:#C69C6D"/>
        </linearGradient>
        <path d="M96.63,116.16c-0.71-3.9-3.62-19.99-4.58-27.63c1.83,1.6,4.66,3.55,7.65,3.55h0 c0.66,0,1.31-0.1,1.93-0.29c0,0,0.06-0.02,0.2-0.02c0.81,0,1.91,0.46,2.18,0.76c-0.78,6.4-1.95,19.82-2.25,23.35L96.63,116.16z" style="fill:url(#SVGID_2_);"/>
        <path d="M93.37,90.83c1.78,1.21,3.99,2.24,6.33,2.24c0.73,0,1.45-0.1,2.13-0.3c0.32,0,0.78,0.13,1.1,0.27 c-0.73,6.16-1.73,17.56-2.1,21.89l-3.38,0.18C96.64,110.62,94.46,98.43,93.37,90.83 M90.76,85.82 c0.4,6.17,5.05,31.38,5.05,31.38l6.88-0.38c0,0,1.42-16.93,2.33-24.31c0.12-0.95-1.97-1.76-3.18-1.76 c-0.19,0-0.36,0.02-0.5,0.06c-0.54,0.17-1.09,0.24-1.63,0.24C95.14,91.07,90.76,85.82,90.76,85.82L90.76,85.82z" style="fill:#8C6239;"/>
      </g>
      <linearGradient id="SVGID_3_" gradientUnits="userSpaceOnUse" x1="69.8129" x2="69.8129" y1="38.8928" y2="115.8161">
        <stop offset="0.5376" style="stop-color:#C69C6D"/>
        <stop offset="0.6265" style="stop-color:#BE9466"/>
        <stop offset="0.7641" style="stop-color:#A87F52"/>
        <stop offset="0.9323" style="stop-color:#855C32"/>
        <stop offset="0.9981" style="stop-color:#754C24"/>
      </linearGradient>
      <path d="M108.1,51.17 c-11.33-6.5-65.67-6-65.67-6s-20.45,6.62-18.5,22.92c2.2,18.49,4.94,24.77,12.48,28.43c0.56,10.98,3.03,21.16,3.03,21.16 s7.87,0.63,8-0.17c0.45-2.79,2.17-13.33,4-22.67c8.87,1.16,19.73,3.31,44-1c5,10.33,5.5,23.5,5.5,23.5s6.07,0.05,6.12,0.12 c1.17-4.83,2.48-10.75,3.71-17.29c1.65-8.82,3.13-11.26,3.83-20.17C115.1,73.67,119.43,57.67,108.1,51.17z" style="fill:url(#SVGID_3_);stroke:#8C6239;stroke-width:2;stroke-linejoin:round;stroke-miterlimit:10;"/>
      <path d="M43.77,123.72 c0-4.37-3.48-7.91-7.76-7.91c-4.29,0-7.76,3.54-7.76,7.91c0,0.09,0.01,0.18,0.01,0.28h6.64c0.67-1.04,0.66-2.17,1.03-3.17 c0,0.77,0.59,2.12,1.32,3.17h6.5C43.76,123.91,43.77,123.82,43.77,123.72z" style="fill:#754C24;stroke:#42210B;stroke-width:2;stroke-linejoin:round;stroke-miterlimit:10;"/>
      <path d="M50.89,123.72 c0-4.37-3.48-7.91-7.76-7.91c-4.29,0-7.76,3.54-7.76,7.91c0,0.09,0.01,0.18,0.01,0.28h6.64c0.67-1.04,0.66-2.17,1.03-3.17 c0,0.77,0.59,2.12,1.32,3.17h6.5C50.88,123.91,50.89,123.82,50.89,123.72z" style="fill:#754C24;stroke:#42210B;stroke-width:2;stroke-linejoin:round;stroke-miterlimit:10;"/>
      <path d="M103.89,123.72 c0-4.37-3.48-7.91-7.76-7.91c-4.29,0-7.76,3.54-7.76,7.91c0,0.09,0.01,0.18,0.01,0.28h6.64c0.67-1.04,0.66-2.17,1.03-3.17 c0,0.77,0.59,2.12,1.32,3.17h6.5C103.88,123.91,103.89,123.82,103.89,123.72z" style="fill:#754C24;stroke:#42210B;stroke-width:2;stroke-linejoin:round;stroke-miterlimit:10;"/>
      <path d="M111.64,123.72 c0-4.37-3.48-7.91-7.76-7.91c-4.29,0-7.76,3.54-7.76,7.91c0,0.09,0.01,0.18,0.01,0.28h6.64c0.67-1.04,0.66-2.17,1.03-3.17 c0,0.77,0.59,2.12,1.32,3.17h6.5C111.63,123.91,111.64,123.82,111.64,123.72z" style="fill:#754C24;stroke:#42210B;stroke-width:2;stroke-linejoin:round;stroke-miterlimit:10;"/>
      <linearGradient id="SVGID_4_" gradientUnits="userSpaceOnUse" x1="94.8548" x2="94.8548" y1="85.7414" y2="96.4049">
        <stop offset="0.5376" style="stop-color:#C69C6D"/>
        <stop offset="0.6265" style="stop-color:#BE9466"/>
        <stop offset="0.7641" style="stop-color:#A87F52"/>
        <stop offset="0.9323" style="stop-color:#855C32"/>
        <stop offset="0.9981" style="stop-color:#754C24"/>
      </linearGradient>
      <path d=" M92.87,86.61c1.33,3.36,2.65,6.72,3.98,10.08" style="fill:url(#SVGID_4_);stroke:#8C6239;stroke-width:2;stroke-linecap:round;stroke-linejoin:round;stroke-miterlimit:10;"/>
      <g>
        <path d="M19.7,39.93 c0,0-2.72-2.85-8.37-0.56c-5.65,2.29-5.62,6.23-5.62,6.23s2.72,2.85,8.37,0.56C19.73,43.88,19.7,39.93,19.7,39.93z" style="fill:#BCAAA4;stroke:#8C6239;stroke-width:2;stroke-linejoin:round;stroke-miterlimit:10;"/>
        <path d="M56.71,39.93 c0,0,2.72-2.85,8.37-0.56c5.65,2.29,5.62,6.23,5.62,6.23s-2.72,2.85-8.37,0.56C56.68,43.88,56.71,39.93,56.71,39.93z" style="fill:#BCAAA4;stroke:#8C6239;stroke-width:2;stroke-linejoin:round;stroke-miterlimit:10;"/>
        <g>
          <linearGradient id="SVGID_5_" gradientUnits="userSpaceOnUse" x1="0.7292" x2="22.0915" y1="10.4288" y2="33.2815">
            <stop offset="0.3596" style="stop-color:#B3B3B3"/>
            <stop offset="0.5415" style="stop-color:#A9A9A9"/>
            <stop offset="0.8453" style="stop-color:#909090"/>
            <stop offset="0.9991" style="stop-color:#808080"/>
          </linearGradient>
          <path d="M13.18,18.33 c-3.62-4.38-2-9.25-2-9.25S-0.24,20.54,7.41,30.07c3.36,4.18,14.52,8.39,14.54,9.1c0.01,0.71,7.11-10.59,7.11-10.59 S17.5,23.54,13.18,18.33z" style="fill:url(#SVGID_5_);stroke:#808080;stroke-width:2;stroke-linejoin:round;stroke-miterlimit:10;"/>
          <linearGradient id="SVGID_6_" gradientTransform="matrix(-1 0 0 1 1547.9646 0)" gradientUnits="userSpaceOnUse" x1="1472.864" x2="1494.2262" y1="10.4288" y2="33.2815">
            <stop offset="0.3596" style="stop-color:#B3B3B3"/>
            <stop offset="0.5415" style="stop-color:#A9A9A9"/>
            <stop offset="0.8453" style="stop-color:#909090"/>
            <stop offset="0.9991" style="stop-color:#808080"/>
          </linearGradient>
          <path d="M62.65,18.33 c3.62-4.38,2-9.25,2-9.25s11.42,11.46,3.77,20.99c-3.36,4.18-14.52,8.39-14.54,9.1c-0.01,0.71-7.11-10.59-7.11-10.59 S58.33,23.54,62.65,18.33z" style="fill:url(#SVGID_6_);stroke:#808080;stroke-width:2;stroke-linejoin:round;stroke-miterlimit:10;"/>
        </g>
        <g>
          <linearGradient id="SVGID_7_" gradientUnits="userSpaceOnUse" x1="37.5285" x2="37.5285" y1="74.084" y2="-16.6075">
            <stop offset="1.860119e-03" style="stop-color:#754C24"/>
            <stop offset="0.0677" style="stop-color:#855C32"/>
            <stop offset="0.2359" style="stop-color:#A87F52"/>
            <stop offset="0.3735" style="stop-color:#BE9466"/>
            <stop offset="0.4624" style="stop-color:#C69C6D"/>
          </linearGradient>
          <path d="M26.55,68.13c-3.8,0-7.04-2.73-7.87-6.63l-3.64-17.07c-0.16-0.76-0.22-1.43-0.19-2.05 c0.57-11.6,9.69-20.69,20.77-20.69h3.85c10.77,0,19.87,8.82,20.73,20.07c0.07,0.96-0.02,1.94-0.27,2.91L55.4,61.9 c-0.96,3.67-4.16,6.23-7.78,6.23H26.55z" style="fill:url(#SVGID_7_);"/>
          <path d="M39.47,22.68c10.25,0,18.91,8.41,19.73,19.15c0.06,0.85-0.02,1.72-0.24,2.58l-4.52,17.24 c-0.85,3.23-3.65,5.49-6.81,5.49H26.55c-3.32,0-6.16-2.4-6.89-5.84l-3.64-17.07c-0.14-0.67-0.2-1.26-0.17-1.8 c0.54-11.07,9.22-19.74,19.77-19.74H39.47 M39.47,20.68h-3.85c-11.61,0-21.18,9.63-21.77,21.64c-0.04,0.78,0.05,1.55,0.22,2.31 l3.64,17.07c0.93,4.34,4.6,7.42,8.85,7.42h21.07c4.08,0,7.66-2.86,8.74-6.98l4.52-17.24c0.28-1.05,0.39-2.15,0.3-3.24 C60.3,29.97,50.87,20.68,39.47,20.68L39.47,20.68z" style="fill:#8C6239;"/>
        </g>
        <g>
          <defs>
            <path id="SVGID_8_" d="M40,21h-3.99c-11.99,0-21.79,10.16-21.79,22.15L15.84,68h44.19l1.7-24.85"/>
          </defs>
          <clipPath id="SVGID_9_">
            <use style="overflow:visible;" xlink:href="#SVGID_8_"/>
          </clipPath>
        </g>
        <g>
          <ellipse cx="24.13" cy="46.7" rx="4.44" ry="5.03" style="fill:#404040;"/>
          <ellipse cx="51.74" cy="46.7" rx="4.44" ry="5.03" style="fill:#404040;"/>
        </g>
        <linearGradient id="SVGID_10_" gradientUnits="userSpaceOnUse" x1="37.5" x2="37.5" y1="84.0544" y2="32.1536">
          <stop offset="3.255208e-03" style="stop-color:#B3817F"/>
          <stop offset="0.1154" style="stop-color:#CF9F93"/>
          <stop offset="0.2468" style="stop-color:#E9BBA6"/>
          <stop offset="0.362" style="stop-color:#F9CCB2"/>
          <stop offset="0.4474" style="stop-color:#FFD2B6"/>
        </linearGradient>
        <path d="M55,67.25 c0-5.11-4.14-9.25-9.25-9.25h-16.5C24.14,58,20,62.14,20,67.25v0.5c0,5.11,4.14,9.25,9.25,9.25h16.5c5.11,0,9.25-4.14,9.25-9.25 V67.25z" style="fill:url(#SVGID_10_);stroke:#754C24;stroke-width:2;stroke-linejoin:round;stroke-miterlimit:10;"/>
        <g>
          <ellipse cx="30.23" cy="67.38" rx="3.27" ry="4.01" style="fill:#42210B;"/>
          <ellipse cx="44.23" cy="67.38" rx="3.27" ry="4.01" style="fill:#42210B;"/>
        </g>
      </g>
      <path d="M114.43,62.96 c5.38-0.62,9.37,6.27,8.73,11.19c-0.34,2.65-1.72,5.04-3.02,7.38c-1.3,2.34-2.59,4.8-2.72,7.48c-0.13,2.67,1.22,5.61,3.76,6.46" style="fill:none;stroke:#8C6239;stroke-width:2;stroke-linejoin:round;stroke-miterlimit:10;"/>
      <path d="M121.03,103.05c-0.28-2.81-3.27-1.22-4.3-5.05c-0.62-2.29,0.25-4.7,2.62-4.58 C126.64,93.79,121.27,105.41,121.03,103.05z" style="fill:#42210B;"/>
      <path d=" M36.43,97.17c-0.35-3.65-0.41-6.53-0.68-8.85" style="fill:none;stroke:#8C6239;stroke-width:2;stroke-linecap:round;stroke-linejoin:round;stroke-miterlimit:10;"/>
      <path d=" M50.85,98.09c0.43-3.29,0.85-6.58,1.28-9.87" style="fill:none;stroke:#8C6239;stroke-width:2;stroke-linecap:round;stroke-linejoin:round;stroke-miterlimit:10;"/>
    </g>
  </g>
  <g id="Layer_1" style="display:none;">
    <g style="display:inline;">
      <g style="opacity:0.6;">
        <circle cx="64" cy="64" r="28" style="opacity:0.61;fill:none;stroke:#000000;stroke-width:0.2625;stroke-miterlimit:10;"/>
        <line style="opacity:0.61;fill:none;stroke:#000000;stroke-width:0.25;stroke-miterlimit:10;" x1="84" x2="84" y1="0" y2="128"/>
        <line style="opacity:0.61;fill:none;stroke:#000000;stroke-width:0.25;stroke-miterlimit:10;" x1="44" x2="44" y1="0" y2="128"/>
        <line style="opacity:0.61;fill:none;stroke:#000000;stroke-width:0.25;stroke-miterlimit:10;" x1="64" x2="64" y1="0" y2="128"/>
        <line style="opacity:0.61;fill:none;stroke:#000000;stroke-width:0.25;stroke-miterlimit:10;" x1="128" x2="0" y1="64" y2="64"/>
        <line style="opacity:0.61;fill:none;stroke:#000000;stroke-width:0.25;stroke-miterlimit:10;" x1="128" x2="0" y1="44" y2="44"/>
        <line style="opacity:0.61;fill:none;stroke:#000000;stroke-width:0.25;stroke-miterlimit:10;" x1="128" x2="0" y1="83.75" y2="83.75"/>
        <line style="opacity:0.61;fill:none;stroke:#000000;stroke-width:0.25;stroke-miterlimit:10;" x1="128" x2="0" y1="128" y2="0"/>
        <line style="opacity:0.61;fill:none;stroke:#000000;stroke-width:0.25;stroke-miterlimit:10;" x1="0" x2="128" y1="128" y2="0"/>
        <g style="opacity:0.61;">
          <path d="M64,4.26c32.94,0,59.74,26.8,59.74,59.74S96.94,123.74,64,123.74S4.26,96.94,4.26,64S31.06,4.26,64,4.26 M64,4 C30.86,4,4,30.86,4,64s26.86,60,60,60s60-26.86,60-60S97.14,4,64,4L64,4z"/>
        </g>
        <path d="M107.97,115.97H20.03 c-4.42,0-8.03-3.61-8.03-8.03V20.03c0-4.42,3.61-8.03,8.03-8.03h87.94c4.42,0,8.03,3.61,8.03,8.03v87.91 C116,112.36,112.39,115.97,107.97,115.97z" style="opacity:0.61;fill:none;stroke:#000000;stroke-width:0.2578;stroke-miterlimit:10;"/>
        <path d="M100,124H28c-4.4,0-8-3.6-8-8 V12c0-4.4,3.6-8,8-8h72c4.4,0,8,3.6,8,8v104C108,120.4,104.4,124,100,124z" style="opacity:0.61;fill:none;stroke:#000000;stroke-width:0.2628;stroke-miterlimit:10;"/>
        <path d="M113.77,108H14.23 C8.6,108,4,103.4,4,97.77V30.28c0-5.63,4.6-10.23,10.23-10.23h99.54c5.63,0,10.23,4.6,10.23,10.23v67.48 C124,103.4,119.4,108,113.77,108z" style="opacity:0.61;fill:none;stroke:#000000;stroke-width:0.2627;stroke-miterlimit:10;"/>
      </g>
      <g>
        <g style="opacity:0.2;">
          <defs>
            <rect id="SVGID_24_" height="128" style="opacity:0.2;" width="128" x="0" y="0"/>
          </defs>
          <clipPath id="SVGID_11_">
            <use style="overflow:visible;" xlink:href="#SVGID_24_"/>
          </clipPath>
          <g style="clip-path:url(#SVGID_11_);">
            <g>
              <line style="fill:none;stroke:#000000;stroke-width:0.25;stroke-miterlimit:10;" x1="-28" x2="-28" y1="160" y2="-32"/>
              <line style="fill:none;stroke:#000000;stroke-width:0.25;stroke-miterlimit:10;" x1="-24" x2="-24" y1="160" y2="-32"/>
              <line style="fill:none;stroke:#000000;stroke-width:0.25;stroke-miterlimit:10;" x1="-20" x2="-20" y1="160" y2="-32"/>
              <line style="fill:none;stroke:#000000;stroke-width:0.25;stroke-miterlimit:10;" x1="-16" x2="-16" y1="160" y2="-32"/>
              <line style="fill:none;stroke:#000000;stroke-width:0.25;stroke-miterlimit:10;" x1="-12" x2="-12" y1="160" y2="-32"/>
              <line style="fill:none;stroke:#000000;stroke-width:0.25;stroke-miterlimit:10;" x1="-8" x2="-8" y1="160" y2="-32"/>
              <line style="fill:none;stroke:#000000;stroke-width:0.25;stroke-miterlimit:10;" x1="-4" x2="-4" y1="160" y2="-32"/>
              <line style="fill:none;stroke:#000000;stroke-width:0.25;stroke-miterlimit:10;" x1="0" x2="0" y1="160" y2="-32"/>
              <line style="fill:none;stroke:#000000;stroke-width:0.25;stroke-miterlimit:10;" x1="4" x2="4" y1="160" y2="-32"/>
              <line style="fill:none;stroke:#000000;stroke-width:0.25;stroke-miterlimit:10;" x1="8" x2="8" y1="160" y2="-32"/>
              <line style="fill:none;stroke:#000000;stroke-width:0.25;stroke-miterlimit:10;" x1="12" x2="12" y1="160" y2="-32"/>
              <line style="fill:none;stroke:#000000;stroke-width:0.25;stroke-miterlimit:10;" x1="16" x2="16" y1="160" y2="-32"/>
              <line style="fill:none;stroke:#000000;stroke-width:0.25;stroke-miterlimit:10;" x1="20" x2="20" y1="160" y2="-32"/>
              <line style="fill:none;stroke:#000000;stroke-width:0.25;stroke-miterlimit:10;" x1="24" x2="24" y1="160" y2="-32"/>
              <line style="fill:none;stroke:#000000;stroke-width:0.25;stroke-miterlimit:10;" x1="28" x2="28" y1="160" y2="-32"/>
              <line style="fill:none;stroke:#000000;stroke-width:0.25;stroke-miterlimit:10;" x1="32" x2="32" y1="160" y2="-32"/>
              <line style="fill:none;stroke:#000000;stroke-width:0.25;stroke-miterlimit:10;" x1="36" x2="36" y1="160" y2="-32"/>
              <line style="fill:none;stroke:#000000;stroke-width:0.25;stroke-miterlimit:10;" x1="40" x2="40" y1="160" y2="-32"/>
              <line style="fill:none;stroke:#000000;stroke-width:0.25;stroke-miterlimit:10;" x1="44" x2="44" y1="160" y2="-32"/>
              <line style="fill:none;stroke:#000000;stroke-width:0.25;stroke-miterlimit:10;" x1="48" x2="48" y1="160" y2="-32"/>
              <line style="fill:none;stroke:#000000;stroke-width:0.25;stroke-miterlimit:10;" x1="52" x2="52" y1="160" y2="-32"/>
              <line style="fill:none;stroke:#000000;stroke-width:0.25;stroke-miterlimit:10;" x1="56" x2="56" y1="160" y2="-32"/>
              <line style="fill:none;stroke:#000000;stroke-width:0.25;stroke-miterlimit:10;" x1="60" x2="60" y1="160" y2="-32"/>
              <line style="fill:none;stroke:#000000;stroke-width:0.25;stroke-miterlimit:10;" x1="64" x2="64" y1="160" y2="-32"/>
              <line style="fill:none;stroke:#000000;stroke-width:0.25;stroke-miterlimit:10;" x1="68" x2="68" y1="160" y2="-32"/>
              <line style="fill:none;stroke:#000000;stroke-width:0.25;stroke-miterlimit:10;" x1="72" x2="72" y1="160" y2="-32"/>
              <line style="fill:none;stroke:#000000;stroke-width:0.25;stroke-miterlimit:10;" x1="76" x2="76" y1="160" y2="-32"/>
              <line style="fill:none;stroke:#000000;stroke-width:0.25;stroke-miterlimit:10;" x1="80" x2="80" y1="160" y2="-32"/>
              <line style="fill:none;stroke:#000000;stroke-width:0.25;stroke-miterlimit:10;" x1="84" x2="84" y1="160" y2="-32"/>
              <line style="fill:none;stroke:#000000;stroke-width:0.25;stroke-miterlimit:10;" x1="88" x2="88" y1="160" y2="-32"/>
              <line style="fill:none;stroke:#000000;stroke-width:0.25;stroke-miterlimit:10;" x1="92" x2="92" y1="160" y2="-32"/>
              <line style="fill:none;stroke:#000000;stroke-width:0.25;stroke-miterlimit:10;" x1="96" x2="96" y1="160" y2="-32"/>
              <line style="fill:none;stroke:#000000;stroke-width:0.25;stroke-miterlimit:10;" x1="100" x2="100" y1="160" y2="-32"/>
              <line style="fill:none;stroke:#000000;stroke-width:0.25;stroke-miterlimit:10;" x1="104" x2="104" y1="160" y2="-32"/>
              <line style="fill:none;stroke:#000000;stroke-width:0.25;stroke-miterlimit:10;" x1="108" x2="108" y1="160" y2="-32"/>
              <line style="fill:none;stroke:#000000;stroke-width:0.25;stroke-miterlimit:10;" x1="112" x2="112" y1="160" y2="-32"/>
              <line style="fill:none;stroke:#000000;stroke-width:0.25;stroke-miterlimit:10;" x1="116" x2="116" y1="160" y2="-32"/>
              <line style="fill:none;stroke:#000000;stroke-width:0.25;stroke-miterlimit:10;" x1="120" x2="120" y1="160" y2="-32"/>
              <line style="fill:none;stroke:#000000;stroke-width:0.25;stroke-miterlimit:10;" x1="124" x2="124" y1="160" y2="-32"/>
              <line style="fill:none;stroke:#000000;stroke-width:0.25;stroke-miterlimit:10;" x1="128" x2="128" y1="160" y2="-32"/>
              <line style="fill:none;stroke:#000000;stroke-width:0.25;stroke-miterlimit:10;" x1="132" x2="132" y1="160" y2="-32"/>
              <line style="fill:none;stroke:#000000;stroke-width:0.25;stroke-miterlimit:10;" x1="136" x2="136" y1="160" y2="-32"/>
              <line style="fill:none;stroke:#000000;stroke-width:0.25;stroke-miterlimit:10;" x1="137" x2="137" y1="166.05" y2="-25.95"/>
              <line style="fill:none;stroke:#000000;stroke-width:0.25;stroke-miterlimit:10;" x1="144" x2="144" y1="160" y2="-32"/>
              <line style="fill:none;stroke:#000000;stroke-width:0.25;stroke-miterlimit:10;" x1="148" x2="148" y1="160" y2="-32"/>
              <line style="fill:none;stroke:#000000;stroke-width:0.25;stroke-miterlimit:10;" x1="152" x2="152" y1="160" y2="-32"/>
              <line style="fill:none;stroke:#000000;stroke-width:0.25;stroke-miterlimit:10;" x1="156" x2="156" y1="160" y2="-32"/>
            </g>
            <g>
              <line style="fill:none;stroke:#000000;stroke-width:0.25;stroke-miterlimit:10;" x1="-32" x2="160" y1="-28" y2="-28"/>
              <line style="fill:none;stroke:#000000;stroke-width:0.25;stroke-miterlimit:10;" x1="-32" x2="160" y1="-24" y2="-24"/>
              <line style="fill:none;stroke:#000000;stroke-width:0.25;stroke-miterlimit:10;" x1="-32" x2="160" y1="-20" y2="-20"/>
              <line style="fill:none;stroke:#000000;stroke-width:0.25;stroke-miterlimit:10;" x1="-32" x2="160" y1="-16" y2="-16"/>
              <line style="fill:none;stroke:#000000;stroke-width:0.25;stroke-miterlimit:10;" x1="-32" x2="160" y1="-12" y2="-12"/>
              <line style="fill:none;stroke:#000000;stroke-width:0.25;stroke-miterlimit:10;" x1="-32" x2="160" y1="-8" y2="-8"/>
              <line style="fill:none;stroke:#000000;stroke-width:0.25;stroke-miterlimit:10;" x1="-32" x2="160" y1="-4" y2="-4"/>
              <line style="fill:none;stroke:#000000;stroke-width:0.25;stroke-miterlimit:10;" x1="-32" x2="160" y1="0" y2="0"/>
              <line style="fill:none;stroke:#000000;stroke-width:0.25;stroke-miterlimit:10;" x1="-32" x2="160" y1="4" y2="4"/>
              <line style="fill:none;stroke:#000000;stroke-width:0.25;stroke-miterlimit:10;" x1="-32" x2="160" y1="8" y2="8"/>
              <line style="fill:none;stroke:#000000;stroke-width:0.25;stroke-miterlimit:10;" x1="-32" x2="160" y1="12" y2="12"/>
              <line style="fill:none;stroke:#000000;stroke-width:0.25;stroke-miterlimit:10;" x1="-32" x2="160" y1="16" y2="16"/>
              <line style="fill:none;stroke:#000000;stroke-width:0.25;stroke-miterlimit:10;" x1="-32" x2="160" y1="20" y2="20"/>
              <line style="fill:none;stroke:#000000;stroke-width:0.25;stroke-miterlimit:10;" x1="-32" x2="160" y1="24" y2="24"/>
              <line style="fill:none;stroke:#000000;stroke-width:0.25;stroke-miterlimit:10;" x1="-32" x2="160" y1="28" y2="28"/>
              <line style="fill:none;stroke:#000000;stroke-width:0.25;stroke-miterlimit:10;" x1="-32" x2="160" y1="32" y2="32"/>
              <line style="fill:none;stroke:#000000;stroke-width:0.25;stroke-miterlimit:10;" x1="-32" x2="160" y1="36" y2="36"/>
              <line style="fill:none;stroke:#000000;stroke-width:0.25;stroke-miterlimit:10;" x1="-32" x2="160" y1="40" y2="40"/>
              <line style="fill:none;stroke:#000000;stroke-width:0.25;stroke-miterlimit:10;" x1="-32" x2="160" y1="44" y2="44"/>
              <line style="fill:none;stroke:#000000;stroke-width:0.25;stroke-miterlimit:10;" x1="-32" x2="160" y1="48" y2="48"/>
              <line style="fill:none;stroke:#000000;stroke-width:0.25;stroke-miterlimit:10;" x1="-32" x2="160" y1="52" y2="52"/>
              <line style="fill:none;stroke:#000000;stroke-width:0.25;stroke-miterlimit:10;" x1="-32" x2="160" y1="56" y2="56"/>
              <line style="fill:none;stroke:#000000;stroke-width:0.25;stroke-miterlimit:10;" x1="-32" x2="160" y1="60" y2="60"/>
              <line style="fill:none;stroke:#000000;stroke-width:0.25;stroke-miterlimit:10;" x1="-32" x2="160" y1="64" y2="64"/>
              <line style="fill:none;stroke:#000000;stroke-width:0.25;stroke-miterlimit:10;" x1="-32" x2="160" y1="68" y2="68"/>
              <line style="fill:none;stroke:#000000;stroke-width:0.25;stroke-miterlimit:10;" x1="-32" x2="160" y1="72" y2="72"/>
              <line style="fill:none;stroke:#000000;stroke-width:0.25;stroke-miterlimit:10;" x1="-32" x2="160" y1="76" y2="76"/>
              <line style="fill:none;stroke:#000000;stroke-width:0.25;stroke-miterlimit:10;" x1="-32" x2="160" y1="80" y2="80"/>
              <line style="fill:none;stroke:#000000;stroke-width:0.25;stroke-miterlimit:10;" x1="-32" x2="160" y1="84" y2="84"/>
              <line style="fill:none;stroke:#000000;stroke-width:0.25;stroke-miterlimit:10;" x1="-32" x2="160" y1="88" y2="88"/>
              <line style="fill:none;stroke:#000000;stroke-width:0.25;stroke-miterlimit:10;" x1="-32" x2="160" y1="92" y2="92"/>
              <line style="fill:none;stroke:#000000;stroke-width:0.25;stroke-miterlimit:10;" x1="-32" x2="160" y1="96" y2="96"/>
              <line style="fill:none;stroke:#000000;stroke-width:0.25;stroke-miterlimit:10;" x1="-32" x2="160" y1="100" y2="100"/>
              <line style="fill:none;stroke:#000000;stroke-width:0.25;stroke-miterlimit:10;" x1="-32" x2="160" y1="104" y2="104"/>
              <line style="fill:none;stroke:#000000;stroke-width:0.25;stroke-miterlimit:10;" x1="-32" x2="160" y1="108" y2="108"/>
              <line style="fill:none;stroke:#000000;stroke-width:0.25;stroke-miterlimit:10;" x1="-32" x2="160" y1="112" y2="112"/>
              <line style="fill:none;stroke:#000000;stroke-width:0.25;stroke-miterlimit:10;" x1="-32" x2="160" y1="116" y2="116"/>
              <line style="fill:none;stroke:#000000;stroke-width:0.25;stroke-miterlimit:10;" x1="-32" x2="160" y1="120" y2="120"/>
              <line style="fill:none;stroke:#000000;stroke-width:0.25;stroke-miterlimit:10;" x1="-32" x2="160" y1="124" y2="124"/>
              <line style="fill:none;stroke:#000000;stroke-width:0.25;stroke-miterlimit:10;" x1="-32" x2="160" y1="128" y2="128"/>
              <line style="fill:none;stroke:#000000;stroke-width:0.25;stroke-miterlimit:10;" x1="-32" x2="160" y1="132" y2="132"/>
              <line style="fill:none;stroke:#000000;stroke-width:0.25;stroke-miterlimit:10;" x1="-32" x2="160" y1="136" y2="136"/>
              <line style="fill:none;stroke:#000000;stroke-width:0.25;stroke-miterlimit:10;" x1="-32" x2="160" y1="140" y2="140"/>
              <line style="fill:none;stroke:#000000;stroke-width:0.25;stroke-miterlimit:10;" x1="-32" x2="160" y1="144" y2="144"/>
              <line style="fill:none;stroke:#000000;stroke-width:0.25;stroke-miterlimit:10;" x1="-32" x2="160" y1="148" y2="148"/>
              <line style="fill:none;stroke:#000000;stroke-width:0.25;stroke-miterlimit:10;" x1="-32" x2="160" y1="152" y2="152"/>
              <line style="fill:none;stroke:#000000;stroke-width:0.25;stroke-miterlimit:10;" x1="-32" x2="160" y1="156" y2="156"/>
            </g>
            <path d="M159.75-31.75v191.5h-191.5v-191.5H159.75 M160-32H-32v192h192V-32L160-32z"/>
          </g>
        </g>
        <g>
          <rect height="128" style="opacity:0.3;fill:#F44336;" width="4" x="0" y="0"/>
          <rect height="128" style="opacity:0.3;fill:#F44336;" width="4" x="124" y="0"/>
          <rect height="120" style="opacity:0.3;fill:#F44336;" transform="matrix(-1.836970e-16 1 -1 -1.836970e-16 66 -62)" width="4" x="62" y="-58"/>
          <rect height="120" style="opacity:0.3;fill:#F44336;" transform="matrix(-1.836970e-16 1 -1 -1.836970e-16 190 62)" width="4" x="62" y="66"/>
        </g>
      </g>
    </g>
  </g>
</svg>