<?xml version="1.0" encoding="utf-8"?>
<!-- Generator: Adobe Illustrator 24.1.2, SVG Export Plug-In . SVG Version: 6.00 Build 0)  -->
<svg version="1.1" id="Layer_1" xmlns="http://www.w3.org/2000/svg" xmlns:xlink="http://www.w3.org/1999/xlink" x="0px" y="0px"
	 viewBox="0 0 128 128" style="enable-background:new 0 0 128 128;" xml:space="preserve">
<g>
	<path style="fill:#4D4D4D;" d="M95.4,44.32c-1.27-0.18-7.6,6.13-12.16,2.17c0,0-0.01,0.01-0.01,0.01
		c-2.62-2.13-5.53-3.99-8.71-5.51c-21.75-10.37-47.78-1.15-58.15,20.6c-10.37,21.75-1.15,47.78,20.6,58.15
		c21.75,10.37,47.78,1.15,58.15-20.6c3.37-7.06,4.66-14.57,4.14-21.84c-0.04-0.51-0.13-1.64,0.12-2.48c1.71-5.74,7.93-8.6,7.79-8.86
		C107.03,65.68,96.68,44.5,95.4,44.32z"/>
	
		<ellipse transform="matrix(0.8667 -0.4988 0.4988 0.8667 -14.0111 57.856)" style="fill:#757575;" cx="101.27" cy="55.15" rx="5.82" ry="12.33"/>
	
		<ellipse transform="matrix(0.866 -0.5 0.5 0.866 -13.7426 58.9626)" style="fill:#212121;" cx="103.15" cy="55.13" rx="2.29" ry="3.52"/>
	<path style="opacity:0.9;fill:#757575;" d="M54.73,52.6c2.74,7.77-1.27,12.41-6.46,15.38c-2.48,1.42-5.35,2.04-7.87,3.41
		c-4.87,2.66-7.83,7.79-12.09,11.36c-1.06,0.89-2.27,1.71-3.65,1.86c-1.84,0.2-3.64-0.88-4.73-2.37s-5.56-15.71,10.75-30.25
		C37.97,45.48,51.73,44.07,54.73,52.6z"/>
	<linearGradient id="SVGID_1_" gradientUnits="userSpaceOnUse" x1="42.9081" y1="34.5877" x2="84.6248" y2="48.0925">
		<stop  offset="0" style="stop-color:#FFF9C4;stop-opacity:0.1"/>
		<stop  offset="1.516624e-03" style="stop-color:#FFF9C4;stop-opacity:0.1007"/>
		<stop  offset="0.3781" style="stop-color:#FFFCA6;stop-opacity:0.2626"/>
		<stop  offset="0.7007" style="stop-color:#FFFE94;stop-opacity:0.4014"/>
		<stop  offset="0.93" style="stop-color:#FFFF8D;stop-opacity:0.5"/>
	</linearGradient>
	<path style="fill:url(#SVGID_1_);" d="M42.69,38.75c3.69,0.12,11.22,0.17,20.76,3.92c3.21,1.26,5.92,3.02,8.83,4.82
		c2.35,1.45,5.02,2.66,7.77,2.4c0.97-0.09,2.04-0.47,2.41-1.37c0.23-0.56,0.21-1.13,0.01-1.69c-0.24-0.66-1.06-1.58-2.31-2.61
		c-1.77-1.19-3.65-2.28-5.64-3.22C64.16,36.05,52.84,35.57,42.69,38.75z"/>
	<linearGradient id="SVGID_2_" gradientUnits="userSpaceOnUse" x1="102.8342" y1="57.3284" x2="91.9491" y2="42.9673">
		<stop  offset="0.1096" style="stop-color:#FFF9C4;stop-opacity:0"/>
		<stop  offset="1" style="stop-color:#FFFF8D"/>
	</linearGradient>
	<path style="fill:url(#SVGID_2_);" d="M102.93,47.67c-0.05-0.05-0.1-0.11-0.15-0.16c-0.01-0.01-0.01-0.02-0.02-0.02
		c-0.23-0.23-0.46-0.45-0.69-0.67c-0.03-0.03-0.07-0.06-0.1-0.1c-2.53-2.29-5.12-3.26-6.85-2.27c-2.79,1.6-2.29,7.69,1.1,13.59
		c0.73,1.26,1.53,2.41,2.37,3.42c-0.1-0.29-3.84-11.51-1.51-14.52C99.07,44.4,102.58,47.37,102.93,47.67z"/>
	<path style="fill:#CE846A;" d="M101.76,52.74c3.11-2.21,9.48-5.97,8.73-10.88c-0.85-5.53-4.01-6.87-10.68-8.72
		c-6.92-1.92-12.15-3.64-18.35-10.07L84.88,20c5.04,5.23,10.82,6.73,15.91,8.04c6.59,1.7,13.19,3.5,14.93,13.04
		c1.75,9.59-9.89,15.65-11.19,16.23C103.1,57.95,100.51,53.62,101.76,52.74z"/>
	<linearGradient id="SVGID_3_" gradientUnits="userSpaceOnUse" x1="103.0978" y1="30.315" x2="88.3748" y2="25.316">
		<stop  offset="0" style="stop-color:#FFEE58;stop-opacity:0"/>
		<stop  offset="1" style="stop-color:#FFEE58"/>
	</linearGradient>
	<path style="fill:url(#SVGID_3_);" d="M84.88,20l-3.43,3.07c6.2,6.43,11.44,8.15,18.35,10.07c1.17,0.32,2.22,0.63,3.17,0.95
		l2.09-4.83c-1.39-0.46-2.83-0.84-4.27-1.22C95.69,26.72,89.92,25.23,84.88,20z"/>
	<g>
		<g>
			<polygon style="fill:#FFA000;" points="73.18,22.82 61.86,16.61 76.65,16.29 77.38,6.11 82.93,14.17 94.55,6.38 90.44,17.59 
				107.42,20.99 90.9,25.92 96.47,39.25 85.33,31.13 80.85,37.61 77.66,28.75 65.51,31.58 			"/>
			<path style="fill:#F44336;" d="M98.91,42.59L85.46,31.9l-5.11,9.31l-3.29-11.36l-14.17,3.3l8.82-10.08l-13.37-7.33l17.4-0.28
				l1.05-11.32l6.44,8.77L96.42,4l-4.98,13.2l21.02,3.61l-20.48,5.66L98.91,42.59z M84.82,29.35l8.88,6.25l-4.07-10.28l13.92-4.15
				l-14.36-2.88l2.74-8.71l-9.24,5.89L78.3,9.72l-0.82,7.76L67,17.66l7.66,4.9l-5.26,6.68l8.86-1.58l2.86,7.93L84.82,29.35z"/>
		</g>
		<g>
			
				<radialGradient id="SVGID_4_" cx="59.3949" cy="40.8172" r="7.8201" gradientTransform="matrix(-0.6621 -0.7494 0.7494 -0.6621 92.0342 94.0021)" gradientUnits="userSpaceOnUse">
				<stop  offset="0" style="stop-color:#FFFDE7"/>
				<stop  offset="1" style="stop-color:#FFF176"/>
			</radialGradient>
			<polygon style="fill:url(#SVGID_4_);" points="80.49,24.2 75.27,25.46 79.09,21.94 75.12,19.5 80.37,19.64 80.25,15.93 
				82.51,18.95 87.6,15.26 85.36,20.14 91.83,21.84 85.73,23.68 87.97,28.53 83.72,25.02 81.62,29.29 			"/>
			<path style="fill:#FFEB3B;" d="M86.68,16.38l-1.48,3.2l-0.37,0.8l0.85,0.22l4.78,1.26l-4.44,1.35l-0.81,0.25l0.35,0.77l1.38,3
				l-2.64-2.19l-0.72-0.59l-0.41,0.84l-1.43,2.91l-0.82-3.7l-0.16-0.73l-0.73,0.18l-3.48,0.84l2.42-2.23l0.71-0.66l-0.83-0.51
				l-2.39-1.47l3.49,0.09l0.78,0.02l-0.02-0.78l-0.07-2.15L82,18.88l0.43,0.58l0.59-0.42L86.68,16.38 M88.52,14.14l-5.93,4.29
				l-2.74-3.65l0.14,4.47l-6.23-0.17L78.48,22l-4.5,4.15l6.23-1.51l1.28,5.75l2.35-4.79l5.14,4.25l-2.74-5.93l6.94-2.1l-7.3-1.92
				L88.52,14.14L88.52,14.14z"/>
		</g>
	</g>
	<path style="fill:#212121;" d="M88.97,74.55c-2.41-1.59-4.79-3.75-6.25-9.18c-0.19-0.69-0.83-4.12,1.02-4.67
		c1.6-0.48,2.79,2.15,4.17,4.45c1.5,2.53,3.93,4.72,6.54,6.15c0.75,0.41,4.29,2,1.97,4.22C94.88,76.98,90.39,75.49,88.97,74.55z"/>
</g>
</svg>
