<svg xmlns="http://www.w3.org/2000/svg" xmlns:xlink="http://www.w3.org/1999/xlink" viewBox="0 0 128 128"><path d="M82.09 96.56c4.06.57 10.51 3.54 12.74 6.9.27.42.83 1.04.84 1.5.02.76-.67 1.28-1.18 1.74-7.35 6.64-20.37 8.48-27.26 1.91-.96-.92-.14-2.17.27-3.25 1.67-4.31 5.83-7.81 10.37-8.7 1.42-.28 2.84-.29 4.22-.1zM47.53 99.93c-4.08-.39-11.05 1-14 3.75-.36.34-1.05.82-1.17 1.27-.2.73.35 1.4.75 1.97 5.61 8.16 17.84 12.99 26.07 8.19 1.15-.67.65-2.08.49-3.23-.62-4.58-3.86-8.96-8.06-10.87-1.32-.6-2.69-.95-4.08-1.08z" fill="#bdcf46"/><defs><path id="a" d="M0 0v135.01h128V0H0zm76.86 67.88c-9.12 4.6-22.2 4.79-30.38-2.26-8.84-7.6-11.98-19.9-5.45-30.32.81-1.3 1.63-2.63 2.53-3.86 2.47-3.36 6.12-5.95 10-7.12.26-.08.52-.15.78-.21 1.18-.3 2.38-.54 3.58-.84 3.25-.83 6.65-.48 9.93-.1 3.8.44 8.53 2.75 11.61 5.11 12.41 9.49 11.39 32.55-2.6 39.6z"/></defs><clipPath id="b"><use xlink:href="#a" overflow="visible"/></clipPath><g clip-path="url(#b)"><path d="M65.93 121.18c-.14.49-.31.98-.5 1.45-.35.87-.69 1.75-1.06 2.62-.31.72-.63 1.6-1.44 1.91-1.02.39-2.31.21-3.32-.08-4.24-1.24-3.12-5.32-2.06-8.29 2.14-6.06 2.95-19.19 3.39-25.53.46-6.55-.26-13.43-.26-19.99 0-.13.01-2.79-.09-2.79h8.36v3.07c0 4.75.01 9.5-.09 14.24-.21 8.77-.4 24.87-2.93 33.39z" fill="#757f3f"/></g><path d="M76.86 67.88c-9.12 4.6-22.2 4.79-30.38-2.26-8.84-7.6-11.98-19.9-5.45-30.32.81-1.3 1.63-2.63 2.53-3.86 2.47-3.36 6.12-5.95 10-7.12.26-.08.52-.15.78-.21 1.18-.3 2.38-.54 3.58-.84 3.25-.83 6.65-.48 9.93-.1 3.8.44 8.53 2.75 11.61 5.11 12.41 9.49 11.39 32.55-2.6 39.6z" fill="#865a3d"/><path d="M112.71 47.91c-4.19-5.49-6.43-3.94-12.06-4.23-1.06-.06-9.54.53-9.68-.86-.15-1.48 8.17-3.82 9.29-4.26 3.44-1.37 6.27-2.5 7.72-5.65.35-.75.8-2.69.1-4.98-.82-2.68-6.25-4.77-8.57-4.39-1.6.27-3.59.5-5.49 1.26-1.13.46-6.16 3.21-7.39 2.85-1.45-.44 3.74-4.39 4.28-4.98 1.01-1.12 2.25-1.92 3.01-3.21.96-1.63 2.11-3.76 2.09-5.68-.01-1.13-1.19-4.28-2.49-4.98-5.54-2.99-9.07 1.1-13.16 6.28-.41.52-4.69 5.91-5.3 6.08-.34.1 3.78-7.7 3.9-7.97 1.6-3.69.89-6.98-.2-10.37-.23-.71-1.52-1.64-2.59-1.99-.61-.2-2.74-.88-3.49-.8-4.69.53-6.28 2.69-9.18 7.77-.67 1.18-2.13 9.03-2.66 10.23-.74 1.65-1.53-6.35-1.66-7.35a15.77 15.77 0 0 0-.86-3.37c-.41-1.03-.82-2.14-1.39-2.97-.65-.93-1.41-1.83-2.3-2.52C53.14.68 50.64-.07 48.44.53c-.72.2-.97.27-1.51.61-2.87 1.78-3.6 6.14-3.47 8.96.2 4.29 4.73 10.82 4.84 12.5-1.25-.54-7.13-9.42-9.33-10.71-3.15-1.86-4.98-2.59-8.77-1.4-.42.13-1.99 1.6-2.39 1.77-.58.26-.2.49-.47.82-.83 1.01-1 3.29-.82 4.28.31 1.79 1 3.23 1.79 4.89.22.45 1.05 1.58 1.3 2.01.55.93 1.35 1.75 2.01 2.61.17.22 7.92 5.25 7.53 5.36-.56.17-7.39-2.76-7.94-2.82-.58-.06-9.18-5.67-13.57-.78-.87.97-1.99 2.19-2.18 4.09-.09 1.03-.24 3.31.19 4.09 1.33 2.36 2.38 3.64 4.58 5.18 1.05.74 4.94 1.84 6.08 2.39.44.21 6.74.14 6.33.86-.14.26-6.1.86-6.43.93-2.49.6-3.75.75-5.49 1.69-1.8.99-8.87 2.49-5.4 11.77.76 2.02 2.35 2.89 4.21 3.28 1.76.37 4.32-.1 6.48-.7 1.36-.38 8.84-3.88 10.24-3.49 1.41.4-4.25 3.27-4.76 3.69-.94.78-4.89 4.33-5.48 5.38-1.2 2.11-1.6 2.75-2.3 5.07-.63 2.11-.81 3.36-.61 5.57.09 1.02.38 2.24 1.43 2.69 1.07.45 2.95.38 3.92.38 2.82 0 4.53-1.12 7.02-2.4 1.06-.54 2.07-.93 3.02-1.83.58-.55 5.12-8.51 5.95-8.19-.02-.01-3.93 11.49-3.99 11.83-.41 2.28-.49 4.62.17 6.85a9.009 9.009 0 0 0 1.95 3.51c.64.71 2.07 1.21 3.15 1.23 4.81.12 7.6-3.77 9.29-9.45.1-.34 2.12-6.82 2.44-6.98.95-.5 1.03 7.85 1.1 8.39.18 1.54.77 3.82 1.56 5.17 1.01 1.74 2.14 3.12 3.69 4.39 1.25 1.02 3.42 1.2 5.08 1.39.51.06 1.81-.25 2.3-.39.82-.25 2.49-1.93 2.85-2.66 1.75-3.49.84-6.21.09-9.96-.09-.46-2.29-8.37-1.96-8.74.59-.65 3.73 7.27 3.97 7.73.83 1.56 2.72 4.03 4.02 5.25 1.69 1.6 3.97 2.33 5.99 2.69 1.5.27 4.51-.09 5.68-1.1 1.15-.98 1.71-2.46 1.99-4.39.29-1.99.05-3.15-.5-5.08-.18-.63-.63-1.65-.78-1.92-.92-1.67-7.6-9.66-7.36-9.69.94-.1 8.41 5.79 9.26 6.2 1.65.8 3.51 1.21 5.32 1.57 1.56.32 2.99.09 4.57.04.29-.01 1.71-.77 3.05-2.19.9-.95 1.02-2.71 1.02-3.33 0-2.42-.49-3.5-2.38-5.9-.75-.94-1.93-1.7-3.23-2.45-.78-.44-10.72-2.81-11.1-3.59-.37-.76 9.39.78 9.97.73 1.52-.13 3.27.17 4.69-.13 2.15-.46 4.22-1.1 5.44-2.15 2.45-2.08 2.06-6.56.93-8.04zM76.86 67.88c-9.12 4.6-22.2 4.79-30.38-2.26-8.84-7.6-11.98-19.9-5.45-30.32.81-1.3 1.63-2.63 2.53-3.86 2.47-3.36 6.12-5.95 10-7.12.26-.08.52-.15.78-.21 1.18-.3 2.38-.54 3.58-.84 3.25-.83 6.65-.48 9.93-.1 3.8.44 8.53 2.75 11.61 5.11 12.41 9.49 11.39 32.55-2.6 39.6z" fill="#fcc21b"/><path d="M63.63 32.35c-2.83-.13-7.26.6-9.63 2.45-4.31 3.4-6.55 9.44-5.49 14.88.36 1.84 1.11 3.62 2.28 5.2 5.2 7.04 16.87 6.93 23 1.25 8.87-8.22.87-23.26-10.16-23.78z" fill="#fcc21b"/><path d="M76.86 67.88c-9.12 4.6-22.2 4.79-30.38-2.26-8.84-7.6-11.98-19.9-5.45-30.32.81-1.3 1.63-2.63 2.53-3.86 2.47-3.36 6.12-5.95 10-7.12.26-.08.52-.15.78-.21 1.18-.3 2.38-.54 3.58-.84 3.25-.83 6.65-.48 9.93-.1 3.8.44 8.53 2.75 11.61 5.11 12.41 9.49 11.39 32.55-2.6 39.6z" opacity=".35" fill="#fcc21b"/></svg>