<svg width="128" height="128" style="enable-background:new 0 0 128 128;" xmlns="http://www.w3.org/2000/svg" xmlns:xlink="http://www.w3.org/1999/xlink">
  <style type="text/css">
.st0{fill:#885C52;}
.st1{fill:#BB917A;}
.st2{fill:#FFFFFF;}
.st3{fill:#2F2F2F;}
.st4{fill:#FEF6E0;}
.st5{fill:#FFC148;}
.st6{fill:none;stroke:#BB917A;stroke-width:3;stroke-linecap:round;stroke-linejoin:round;stroke-miterlimit:10;}
  </style>
  <path class="st0" d="M100.8,49.5c4.2-10.2,0.9-16-1-21.2c-1.7-4.6,3-6.9,3-6.9c-1.8,0-3.8-0.8-3.8-0.8c3.6-2.5,5.8-9.1,5.8-9.1 c-2.5,2.3-5.9,2.4-5.9,2.4c5.6-5.4,3.9-12.9,3.9-12.9s-5.8,7.8-16.6,12.5c-8.8,3.8-18.5,4.7-22.1,4.7c-3.6,0-13.3-0.9-22.1-4.7 C31.1,8.9,25.3,1,25.3,1s-1.8,7.5,3.9,12.9c0,0-3.4-0.1-5.9-2.4c0,0,2.1,6.6,5.8,9.1c0,0-2,0.8-3.8,0.8c0,0,4.7,2.3,3,6.9 c-1.9,5.2-5.2,10.9-1,21.2c0,0-28.7,47.9,33.6,76.3c1,0.5,2.1,0.7,3.2,0.7v0c0,0,0,0,0,0l0,0c0,0,0,0,0,0c0,0,0,0,0,0v0h0v0 c1.1,0,2.2-0.3,3.2-0.7C129.5,97.4,100.8,49.5,100.8,49.5z"/>
  <g>
    <circle class="st1" cx="82.4" cy="41.6" r="14.7"/>
    <circle class="st2" cx="82.4" cy="41.6" r="11.3"/>
    <circle class="st3" cx="82.4" cy="41.6" r="6.5"/>
  </g>
  <g>
    <circle class="st1" cx="45.7" cy="41.6" r="14.7"/>
    <circle class="st2" cx="45.7" cy="41.6" r="11.3"/>
    <circle class="st3" cx="45.7" cy="41.6" r="6.5"/>
  </g>
  <path class="st4" d="M38.4,81.7c0-13.6,7-21.7,25.6-21.7v55.8c0,0-8.5-0.5-14.9-7.6C44.1,102.6,38.4,92.5,38.4,81.7z"/>
  <path class="st4" d="M89.6,81.7c0-13.6-7-21.7-25.6-21.7v55.8c0,0,8.5-0.5,14.9-7.6C83.9,102.6,89.6,92.5,89.6,81.7z"/>
  <g>
    <g>
      <path class="st5" d="M37.1,121c-1.6,0-3-1.3-3-3v-9.5c0-1.6,1.3-3,3-3c1.6,0,3,1.3,3,3v9.5C40,119.7,38.7,121,37.1,121z"/>
      <path class="st0" d="M37.1,106c1.4,0,2.5,1.1,2.5,2.5v9.5c0,1.4-1.1,2.5-2.5,2.5s-2.5-1.1-2.5-2.5v-9.5 C34.6,107.1,35.7,106,37.1,106 M37.1,105c-1.9,0-3.5,1.6-3.5,3.5v9.5c0,1.9,1.6,3.5,3.5,3.5s3.5-1.6,3.5-3.5v-9.5 C40.5,106.6,39,105,37.1,105L37.1,105z"/>
    </g>
    <g>
      <path class="st5" d="M43.1,121c-1.6,0-3-1.3-3-3v-9.5c0-1.6,1.3-3,3-3c1.6,0,3,1.3,3,3v9.5C46.1,119.7,44.7,121,43.1,121z"/>
      <path class="st0" d="M43.1,106c1.4,0,2.5,1.1,2.5,2.5v9.5c0,1.4-1.1,2.5-2.5,2.5c-1.4,0-2.5-1.1-2.5-2.5v-9.5 C40.6,107.1,41.7,106,43.1,106 M43.1,105c-1.9,0-3.5,1.6-3.5,3.5v9.5c0,1.9,1.6,3.5,3.5,3.5c1.9,0,3.5-1.6,3.5-3.5v-9.5 C46.6,106.6,45,105,43.1,105L43.1,105z"/>
    </g>
    <g>
      <path class="st5" d="M49.3,121c-1.6,0-3-1.3-3-3v-9.5c0-1.6,1.3-3,3-3s3,1.3,3,3v9.5C52.3,119.7,50.9,121,49.3,121z"/>
      <path class="st0" d="M49.3,106c1.4,0,2.5,1.1,2.5,2.5v9.5c0,1.4-1.1,2.5-2.5,2.5s-2.5-1.1-2.5-2.5v-9.5 C46.8,107.1,47.9,106,49.3,106 M49.3,105c-1.9,0-3.5,1.6-3.5,3.5v9.5c0,1.9,1.6,3.5,3.5,3.5s3.5-1.6,3.5-3.5v-9.5 C52.8,106.6,51.2,105,49.3,105L49.3,105z"/>
    </g>
  </g>
  <g>
    <g>
      <path class="st5" d="M78.4,121c-1.6,0-3-1.3-3-3v-9.5c0-1.6,1.3-3,3-3c1.6,0,3,1.3,3,3v9.5C81.4,119.7,80,121,78.4,121z"/>
      <path class="st0" d="M78.4,106c1.4,0,2.5,1.1,2.5,2.5v9.5c0,1.4-1.1,2.5-2.5,2.5c-1.4,0-2.5-1.1-2.5-2.5v-9.5 C75.9,107.1,77,106,78.4,106 M78.4,105c-1.9,0-3.5,1.6-3.5,3.5v9.5c0,1.9,1.6,3.5,3.5,3.5c1.9,0,3.5-1.6,3.5-3.5v-9.5 C81.9,106.6,80.3,105,78.4,105L78.4,105z"/>
    </g>
    <g>
      <path class="st5" d="M84.4,121c-1.6,0-3-1.3-3-3v-9.5c0-1.6,1.3-3,3-3s3,1.3,3,3v9.5C87.4,119.7,86.1,121,84.4,121z"/>
      <path class="st0" d="M84.4,106c1.4,0,2.5,1.1,2.5,2.5v9.5c0,1.4-1.1,2.5-2.5,2.5s-2.5-1.1-2.5-2.5v-9.5 C81.9,107.1,83,106,84.4,106 M84.4,105c-1.9,0-3.5,1.6-3.5,3.5v9.5c0,1.9,1.6,3.5,3.5,3.5s3.5-1.6,3.5-3.5v-9.5 C87.9,106.6,86.3,105,84.4,105L84.4,105z"/>
    </g>
    <g>
      <path class="st5" d="M90.6,121c-1.6,0-3-1.3-3-3v-9.5c0-1.6,1.3-3,3-3c1.6,0,3,1.3,3,3v9.5C93.6,119.7,92.2,121,90.6,121z"/>
      <path class="st0" d="M90.6,106c1.4,0,2.5,1.1,2.5,2.5v9.5c0,1.4-1.1,2.5-2.5,2.5s-2.5-1.1-2.5-2.5v-9.5 C88.1,107.1,89.2,106,90.6,106 M90.6,105c-1.9,0-3.5,1.6-3.5,3.5v9.5c0,1.9,1.6,3.5,3.5,3.5s3.5-1.6,3.5-3.5v-9.5 C94.1,106.6,92.5,105,90.6,105L90.6,105z"/>
    </g>
  </g>
  <path class="st5" d="M67.3,49.6c-1.7-2.1-4.8-2.1-6.5,0c-1.3,1.6-2.5,3.8-2.3,6.7c0.2,4.2,2.6,7.2,4.2,8.7c0.8,0.7,1.9,0.7,2.7,0 c1.6-1.5,4-4.5,4.2-8.7C69.7,53.3,68.6,51.1,67.3,49.6z"/>
  <ellipse class="st2" cx="83.6" cy="39.3" rx="2.2" ry="2.3"/>
  <ellipse class="st2" cx="47.4" cy="39.3" rx="2.2" ry="2.3"/>
  <g>
    <path class="st6" d="M46.6,76.7L46.6,76.7c2.5,4.7,9.2,4.7,11.6,0l0,0"/>
    <path class="st6" d="M58.2,76.7L58.2,76.7c2.5,4.7,9.2,4.7,11.6,0l0,0"/>
    <path class="st6" d="M69.8,76.7L69.8,76.7c2.5,4.7,9.2,4.7,11.6,0l0,0"/>
    <path class="st6" d="M52.4,92.6L52.4,92.6c2.5,4.7,9.2,4.7,11.6,0l0,0"/>
    <path class="st6" d="M64,92.6L64,92.6c2.5,4.7,9.2,4.7,11.6,0v0"/>
  </g>
</svg>