<?xml version="1.0" encoding="utf-8"?>
<!-- Generator: Adobe Illustrator 19.2.1, SVG Export Plug-In . SVG Version: 6.00 Build 0)  -->
<svg version="1.1" xmlns="http://www.w3.org/2000/svg" xmlns:xlink="http://www.w3.org/1999/xlink" x="0px" y="0px"
	 viewBox="0 0 128 128" style="enable-background:new 0 0 128 128;" xml:space="preserve">
<g id="Layer_1">
	<path style="display:none;fill:#E39E49;" d="M-1171.7,65.14c0,0,9.08-0.67,16.3,0.96l-0.12-3.1c0,0-6.36-1.17-13.24-0.79
		c-2.31,0.13-5.39,0.04-7.58,0.58c-3.73,0.91-7.12,2.58-9.26,4.71l-3.59-8.76c0,0-2.76,1.94-3.14,2.33
		c-0.48,0.48-1.18,0.22-1.18,0.22c-0.03,0-0.03,0.03-0.04,0.06c0.7,0.51,1.37,1.14,1.97,2c1.09,1.55,2.7,3.92,4.34,6.34
		c-0.13,0.26-0.28,0.52-0.37,0.79c0,0-2.21,5.66,2.75,9.71c0,0,1.55,1.49,5.83,1.63c2.2,3.95-0.76,6.59-0.76,6.59
		c-4.16,3.61-9.08-0.39-9.08-0.39c-0.95-0.57-4.31-4.34-5.67-5.9l-5.96-7.22c0,0,0.19,0.93-0.19,1.32
		c-0.48,0.48-1.18,0.22-1.18,0.22c-0.02,0-0.02,0.03-0.03,0.04c0.46,0.36,0.93,0.77,1.38,1.28c2.15,2.41,4.7,5.61,6.65,8.14
		l-0.01-0.03l0.93,1.23c3.47,4.37,3.18,5.78,3.18,5.78c0.14,3.69-3.93,4.96-3.93,4.96c-3.8,1.39-7.62-2.23-7.62-2.23
		c-1.29-1.2-6.24-6.2-6.24-6.2l3.31,6.1c3.03,3.5,5.79,4.41,5.79,4.41c5.79,2.12,9.63-2.14,9.63-2.14c1.4-1.67,1.41-3.46,1.41-3.46
		c0.03-1.06-0.23-2.09-0.64-3.06c5.56,2.93,9.77-0.44,9.77-0.44c3.51-3.15,2.59-7.24,1.91-9.08c0.61-0.05,1.25-0.12,1.95-0.23
		c3.47-0.53,5.64-0.87,7.86-0.78c0,0,6.12,0.22,7.5,3.87c0,0,0.48,1.69-0.04,3.99c0,0-0.11,1.81,1.04,1.91
		c0.6,0.05,1.86-0.64,2.48-1.6c0,0,0.78-1.01,0.67-3.07c0,0,0.19-3.18-3.4-5.57c0,0-2.5-1.82-5.56-2.1
		c-3.26-0.31-4.43-0.5-9.53,0.24c0,0-5.44,0.96-9.26-0.56c0,0-3.22-1.45-2.05-5.45C-1184.69,72.38-1182.99,66.25-1171.7,65.14z"/>
</g>
<g id="Layer_4">
</g>
<g id="Layer_3">
</g>
<g id="Layer_2">
	<g>
		<path style="fill:#70534A;" d="M54.96,38.84c0.31-3.92,2.88-7.8,7.02-5.35c3.11,1.84,4.24,5.82,6.97,7.87
			c2.85,2.15,8.32,0.18,10.85-2.14c1.48-1.34,2.19-2.83,2.29-4.34c0.11-1.79-0.08-3.86-1.47-5.66c-1.97-2.55-5.3-5.87-7.62-7.87
			c-1.07-0.92-2.88-2.95-1.67-4.44c1.26-1.55,3.16-0.87,4.16-0.5c2.76,1.02,5.98,4.56,9.19,7.34c3.8,3.3,4.58,6.68,5.44,11.69
			c0.08,0.46,0.14,0.96,0.2,1.45c0.4,2.92,0.27,5.52,0.52,8.88c0.27,3.67,0.65,5.95,0,9.04c-1.32,6.32-4.94,12.43-7.7,17.79
			c-0.54,1.04-1.31,3.63-2.39,5.09c-0.79,1.06-4.57,0.99-6.88-0.69c-2.66-1.94-7.16-3.61-8.36-6.77c-1.48-3.89,3.05-7.77-0.17-10.18
			c-3.71-2.76-6.73-3.86-8.15-8.52C55.93,47.43,54.56,43.85,54.96,38.84z"/>
		<path style="fill:#35201A;" d="M64.55,44.04c-0.08,0.57-0.18,3.48-0.34,3.36c-0.79-0.59-3.11-2.7-4.28-4.1
			c-0.44-0.53-1.26-2.41-0.82-2.7c1.14,0.47,2.2,1.11,3.14,1.91C62.95,43.11,63.64,43.82,64.55,44.04"/>
		<g>
			<path style="fill:#757575;" d="M70.79,53.88l11.44-7.65c0.64-0.43,0.96-1.19,0.82-1.95L75.16,3.32
				c-0.18-0.96-1.03-1.57-1.91-1.56c-0.35,0-0.71,0.11-1.04,0.32L60.78,9.74c-0.64,0.43-0.96,1.19-0.82,1.95l7.89,40.96
				C68.1,53.99,69.65,54.64,70.79,53.88z"/>
			
				<rect x="70.34" y="1.76" transform="matrix(-1 -4.423141e-11 4.423141e-11 -1 143.5909 7.2543)" style="fill:#757575;" width="2.92" height="3.74"/>
			
				<rect x="66.76" y="50.47" transform="matrix(-1 -4.651225e-11 4.651225e-11 -1 136.5409 104.6706)" style="fill:#757575;" width="3.01" height="3.74"/>
			<path style="fill:#B2B2B3;" d="M67.91,53.88l11.44-7.65c0.64-0.43,0.96-1.19,0.82-1.95L72.28,3.32c-0.25-1.35-1.8-2-2.94-1.24
				L57.89,9.74c-0.64,0.43-0.96,1.19-0.82,1.95l7.89,40.96C65.22,53.99,66.77,54.64,67.91,53.88z"/>
		</g>
		<path style="fill:#651FFF;" d="M81.08,77.01L65.92,65.1c-1.16-0.91-2.83-0.71-3.75,0.44L39.28,94.4
			c-1.14,1.43-2.95,2.16-4.76,1.93L0,93.99l0,32.25l48.27-2.38c2.12,0,4.11-1.01,5.36-2.73l28.19-38.8
			C83.04,80.65,82.71,78.29,81.08,77.01z"/>
		<path style="fill:#70534A;" d="M87.58,37.9c-0.63-1.23-1.86-2.44-2.63-3.17c-1.2-1.16-2.52-2.38-3.99-3.2
			c-1.57-0.92-3.27-1.59-4.95-2.25c-1.75-0.69-3.55-1.38-5.43-1.47c-0.92-0.04-1.87,0.08-2.65,0.55c-1.55,0.93-1.89,2.9-0.66,4.25
			c0.79,0.87,1.94,1.3,3.06,1.65c3.04,0.93,6.02,1.63,8.57,3.65c2.12,1.68,4.65,5.03,7.77,3.31C88.24,40.36,88.2,39.11,87.58,37.9z"
			/>
		<path style="fill:#70534A;" d="M87.74,46.21c-0.58-1.22-1.71-2.39-2.41-3.11c-1.1-1.13-2.31-2.32-3.65-3.1
			c-1.44-0.89-2.99-1.51-4.54-2.14c-1.61-0.65-3.25-1.3-4.97-1.34c-0.84-0.02-1.71,0.12-2.43,0.61c-1.42,0.96-1.72,2.93-0.59,4.26
			c0.72,0.85,1.78,1.26,2.81,1.58c2.78,0.86,5.51,1.5,7.85,3.45c1.95,1.63,4.27,4.91,7.12,3.13C88.35,48.65,88.31,47.41,87.74,46.21
			z"/>
		<path style="fill:#70534A;" d="M59.16,40.89c2.56,2.72,6.41,5.53,8.72,3.32c2.17-2.08-0.05-5.08-3.36-8.62
			c-1.99-2.13-4.69-3.82-6.69-2.38C55.87,34.63,56.12,37.66,59.16,40.89z"/>
		<path style="fill:#70534A;" d="M80.62,29.22c-1.97-2.55-5.3-5.87-7.62-7.87c-1.07-0.92-2.88-2.95-1.67-4.44
			c1.26-1.55,3.16-0.87,4.16-0.5c2.76,1.02,5.98,4.56,9.19,7.34c3.8,3.3,4.58,6.68,5.44,11.69c0.08,0.46,0.14,0.96,0.2,1.45
			c0.04,0.27,0.05,0.53,0.08,0.79l-8.31-3.16C82.16,32.82,81.92,30.9,80.62,29.22z"/>
		<path style="fill:#35201A;" d="M82.36,54.09c-1.43-0.5-1.93-1.01-3.42-1.53c-0.72-0.25-1.69-0.28-2.4-0.05
			c-1.85,0.6-2.71,1.86-4.23,2.29c-1.05,0.3-2.53-0.76-3.19-0.91c0,1.39,0.75,2.83,2.38,2.83c1.16,0,2.6-0.56,3.53-1.26
			c0.75-0.56,1.31-1.18,2.22-1.41c1.28-0.32,2.14,0.16,3.45,0.33C81.14,54.43,82.52,54.14,82.36,54.09z"/>
		<path style="fill:#70534A;" d="M85.26,49.92c-1.57-0.7-3.09-1.86-4.65-2.56c-1.23-0.55-2.55-0.92-3.89-0.73
			c-0.83,0.12-1.59,0.53-2.32,0.96c-1.13,0.66-2.36,1.36-3.26,2.31s-2.77,3.51-1.67,4.71c0.58,0.63,2.35,1.4,5.09-0.76
			c1.46-1.15,3.56-1.76,5.17-0.84c0.67,0.38,1.25,0.96,1.99,1.15c0.59,0.15,1.22,0.02,1.78-0.21c1.22-0.52,2.21-1.68,2.32-3
			C85.85,50.51,85.69,49.96,85.26,49.92z"/>
	</g>
</g>
</svg>
