<svg width="128" height="128" style="enable-background:new 0 0 128 128;" xmlns="http://www.w3.org/2000/svg" xmlns:xlink="http://www.w3.org/1999/xlink">
  <g>
    <linearGradient id="SVGID_1_" gradientUnits="userSpaceOnUse" x1="64" x2="64" y1="4.25" y2="124.4088">
      <stop offset="0" style="stop-color:#B388FF"/>
      <stop offset="0.3773" style="stop-color:#A175FF"/>
      <stop offset="1" style="stop-color:#7C4DFF"/>
    </linearGradient>
    <path d="M116,124H12c-4.42,0-8-3.58-8-8V12c0-4.42,3.58-8,8-8h104c4.42,0,8,3.58,8,8v104 C124,120.42,120.42,124,116,124z" style="fill:url(#SVGID_1_);"/>
    <g style="opacity:0.2;">
      <path d="M116,7c2.76,0,5,2.24,5,5v104c0,2.76-2.24,5-5,5H12c-2.76,0-5-2.24-5-5V12c0-2.76,2.24-5,5-5H116 M116,4H12c-4.42,0-8,3.58-8,8v104c0,4.42,3.58,8,8,8h104c4.42,0,8-3.58,8-8V12C124,7.58,120.42,4,116,4L116,4z" style="fill:#424242;"/>
    </g>
    <g style="opacity:0.2;">
      <path d="M64,58c3.31,0,6,2.69,6,6c0,3.31-2.69,6-6,6c-3.31,0-6-2.69-6-6C58,60.69,60.69,58,64,58 M64,55 c-4.96,0-9,4.04-9,9s4.04,9,9,9s9-4.04,9-9S68.96,55,64,55L64,55z" style="fill:#424242;"/>
      <path d="M64,16c6.67,0,12.58,7.85,16.21,19.92c4.25-1,8.19-1.51,11.68-1.51c6.57,0,11.49,1.82,13.68,5.59 c3.34,5.78-0.51,14.82-9.14,24c8.63,9.18,12.48,18.22,9.14,24c-2.18,3.78-7.1,5.59-13.68,5.59c-3.48,0-7.43-0.51-11.68-1.51 C76.58,104.15,70.67,112,64,112s-12.58-7.85-16.21-19.92c-4.25,1-8.19,1.51-11.68,1.51c-6.57,0-11.49-1.82-13.68-5.59 c-3.34-5.78,0.51-14.82,9.14-24c-8.63-9.18-12.48-18.22-9.14-24c2.18-3.78,7.1-5.59,13.68-5.59c3.48,0,7.43,0.51,11.68,1.51 C51.42,23.85,57.33,16,64,16 M64,41.45c0.14,0,0.28-0.03,0.4-0.09c3.1-1.38,6.15-2.57,9.11-3.55c0.52-0.17,0.81-0.73,0.64-1.26 C71.05,27.02,66.76,22,64,22s-7.05,5.02-10.15,14.56c-0.17,0.52,0.11,1.08,0.64,1.26c2.96,0.98,6.01,2.16,9.11,3.55 C63.72,41.42,63.86,41.45,64,41.45 M92.09,59.4c0.27,0,0.54-0.11,0.74-0.33c6.71-7.46,8.92-13.68,7.54-16.07 c-0.89-1.54-3.88-2.58-8.5-2.58c-2.58,0-5.68,0.33-9.19,1.07c-0.54,0.11-0.88,0.64-0.76,1.17c0.63,3.05,1.13,6.29,1.48,9.66 c0.03,0.28,0.18,0.53,0.4,0.7c2.75,1.99,5.3,4.04,7.63,6.12C91.62,59.32,91.86,59.4,92.09,59.4 M35.91,59.4 c0.24,0,0.47-0.08,0.66-0.25c2.33-2.07,4.88-4.12,7.63-6.12c0.23-0.16,0.37-0.42,0.4-0.7c0.35-3.38,0.85-6.61,1.48-9.66 c0.11-0.54-0.23-1.06-0.76-1.17c-3.52-0.75-6.61-1.07-9.19-1.07c-4.62,0-7.61,1.04-8.5,2.58c-1.38,2.39,0.83,8.61,7.54,16.07 C35.36,59.29,35.63,59.4,35.91,59.4 M76.88,48.4c-0.27-1.79-0.58-3.49-0.93-5.1c-1.57,0.51-3.2,1.08-4.88,1.74 c0.98,0.53,1.96,1.07,2.93,1.63C74.98,47.24,75.93,47.82,76.88,48.4 M51.12,48.4c0.95-0.58,1.9-1.16,2.88-1.73 c0.98-0.56,1.96-1.1,2.93-1.63c-1.68-0.66-3.31-1.24-4.88-1.74C51.7,44.92,51.39,46.62,51.12,48.4 M64,79.73 c0.15,0,0.3-0.03,0.44-0.1c2.13-1.05,4.31-2.21,6.56-3.5c2.24-1.3,4.34-2.61,6.31-3.93c0.26-0.17,0.42-0.45,0.44-0.77 C77.91,69.07,78,66.59,78,64s-0.09-5.07-0.24-7.43c-0.02-0.31-0.18-0.59-0.44-0.77c-1.97-1.32-4.07-2.63-6.31-3.93 c-2.24-1.3-4.43-2.46-6.56-3.5c-0.14-0.07-0.29-0.1-0.44-0.1c-0.15,0-0.3,0.03-0.44,0.1c-2.13,1.05-4.31,2.21-6.56,3.5 c-2.24,1.3-4.34,2.61-6.31,3.93c-0.26,0.17-0.42,0.45-0.44,0.77C50.09,58.93,50,61.41,50,64s0.09,5.07,0.24,7.43 c0.02,0.31,0.18,0.59,0.44,0.77c1.97,1.32,4.07,2.63,6.31,3.93c2.24,1.3,4.43,2.46,6.56,3.5C63.7,79.7,63.85,79.73,64,79.73 M83.95,67.36c1.41-1.13,2.73-2.25,3.95-3.36c-1.22-1.11-2.54-2.23-3.95-3.36C83.98,61.75,84,62.87,84,64 C84,65.13,83.98,66.25,83.95,67.36 M44.05,67.36C44.02,66.25,44,65.13,44,64c0-1.13,0.02-2.25,0.05-3.36 c-1.41,1.13-2.73,2.25-3.95,3.36C41.33,65.11,42.64,66.23,44.05,67.36 M91.88,87.58c4.62,0,7.61-1.04,8.5-2.58 c1.38-2.39-0.83-8.61-7.54-16.07c-0.2-0.22-0.47-0.33-0.74-0.33c-0.24,0-0.47,0.08-0.66,0.25c-2.33,2.07-4.88,4.12-7.63,6.12 c-0.23,0.16-0.37,0.42-0.4,0.7c-0.35,3.38-0.85,6.61-1.48,9.66c-0.11,0.54,0.23,1.06,0.76,1.17 C86.2,87.25,89.29,87.58,91.88,87.58 M36.12,87.58c2.58,0,5.68-0.33,9.19-1.07c0.54-0.11,0.88-0.64,0.76-1.17 c-0.63-3.05-1.13-6.29-1.48-9.66c-0.03-0.28-0.18-0.53-0.4-0.7c-2.75-1.99-5.3-4.04-7.63-6.12c-0.19-0.17-0.43-0.25-0.66-0.25 c-0.27,0-0.54,0.11-0.74,0.33c-6.71,7.46-8.92,13.68-7.54,16.07C28.51,86.54,31.5,87.58,36.12,87.58 M75.95,84.69 c0.35-1.61,0.66-3.31,0.93-5.1c-0.95,0.58-1.9,1.16-2.88,1.73c-0.98,0.56-1.96,1.1-2.93,1.63 C72.75,83.61,74.38,84.19,75.95,84.69 M52.05,84.69c1.57-0.51,3.2-1.08,4.88-1.74c-0.98-0.53-1.96-1.07-2.93-1.63 c-0.98-0.56-1.93-1.14-2.88-1.73C51.39,81.38,51.7,83.08,52.05,84.69 M64,106c2.76,0,7.05-5.02,10.15-14.56 c0.17-0.52-0.11-1.08-0.64-1.26c-2.96-0.98-6.01-2.16-9.11-3.55c-0.13-0.06-0.27-0.09-0.4-0.09c-0.14,0-0.28,0.03-0.4,0.09 c-3.1,1.38-6.15,2.57-9.11,3.55c-0.52,0.17-0.81,0.73-0.64,1.26C56.95,100.98,61.24,106,64,106 M64,13 c-7.4,0-13.96,7.03-18.24,19.41c-3.46-0.67-6.7-1.01-9.66-1.01c-10.07,0-14.41,3.86-16.27,7.09c-3.7,6.41-0.89,15.61,7.69,25.5 c-8.58,9.89-11.39,19.09-7.69,25.5c1.87,3.24,6.21,7.09,16.27,7.09c2.96,0,6.2-0.34,9.66-1.01C50.04,107.97,56.6,115,64,115 c7.4,0,13.96-7.03,18.24-19.41c3.46,0.67,6.7,1.01,9.66,1.01c10.07,0,14.41-3.86,16.27-7.09c3.7-6.41,0.89-15.61-7.69-25.5 c8.58-9.89,11.39-19.09,7.69-25.5c-1.87-3.24-6.21-7.09-16.27-7.09c-2.96,0-6.2,0.34-9.66,1.01C77.96,20.03,71.4,13,64,13L64,13z M57.35,35.63c2.67-7.3,5.66-10.25,6.65-10.61c0.99,0.36,3.98,3.31,6.65,10.61c-2.2,0.78-4.42,1.66-6.65,2.64 C61.77,37.29,59.54,36.41,57.35,35.63L57.35,35.63z M85.24,44.05c2.4-0.42,4.62-0.63,6.63-0.63c3.75,0,5.46,0.75,5.88,1.09 c0.18,1.04-0.88,5.1-5.86,11.06c-1.77-1.51-3.65-3-5.61-4.44C86.02,48.72,85.67,46.34,85.24,44.05L85.24,44.05z M30.24,44.51 c0.42-0.34,2.14-1.09,5.88-1.09c2.01,0,4.23,0.21,6.63,0.63c-0.42,2.29-0.77,4.66-1.04,7.08c-1.96,1.44-3.84,2.93-5.61,4.44 C31.12,49.62,30.06,45.55,30.24,44.51L30.24,44.51z M53.18,57.75c1.73-1.14,3.52-2.24,5.32-3.28c1.8-1.04,3.65-2.04,5.5-2.97 c1.85,0.93,3.7,1.93,5.5,2.97c1.8,1.04,3.59,2.14,5.32,3.28C74.94,59.82,75,61.92,75,64c0,2.08-0.06,4.18-0.18,6.25 c-1.73,1.14-3.52,2.24-5.32,3.28c-1.8,1.04-3.65,2.04-5.5,2.97c-1.85-0.93-3.7-1.93-5.5-2.97c-1.8-1.04-3.59-2.14-5.32-3.28 C53.06,68.18,53,66.08,53,64C53,61.92,53.06,59.82,53.18,57.75L53.18,57.75z M30.24,83.49c-0.18-1.04,0.88-5.1,5.86-11.06 c1.77,1.51,3.65,3,5.61,4.44c0.27,2.42,0.62,4.79,1.04,7.08c-2.4,0.42-4.62,0.63-6.63,0.63C32.38,84.58,30.66,83.83,30.24,83.49 L30.24,83.49z M86.29,76.87c1.96-1.44,3.84-2.93,5.61-4.44c4.98,5.96,6.05,10.02,5.86,11.06c-0.42,0.34-2.14,1.09-5.88,1.09 c-2.01,0-4.23-0.21-6.63-0.63C85.67,81.66,86.02,79.28,86.29,76.87L86.29,76.87z M57.35,92.37c2.2-0.78,4.42-1.66,6.65-2.64 c2.23,0.97,4.46,1.86,6.65,2.64c-2.67,7.3-5.66,10.25-6.65,10.61C63.01,102.62,60.02,99.67,57.35,92.37L57.35,92.37z" style="fill:#424242;"/>
    </g>
    <g>
      <circle cx="64" cy="64" r="6" style="fill:#FAFAFA;"/>
      <path d="M105.57,40c-3.34-5.78-13.09-6.97-25.35-4.08C76.58,23.85,70.67,16,64,16s-12.58,7.85-16.21,19.92 c-12.26-2.88-22.02-1.7-25.35,4.08s0.51,14.82,9.14,24c-8.63,9.18-12.48,18.22-9.14,24s13.09,6.97,25.35,4.08 C51.42,104.15,57.33,112,64,112s12.58-7.85,16.21-19.92c12.26,2.88,22.02,1.7,25.35-4.08s-0.51-14.82-9.14-24 C105.06,54.82,108.91,45.78,105.57,40z M100.37,43c1.38,2.39-0.83,8.61-7.54,16.07c-0.37,0.41-1,0.44-1.4,0.08 c-2.33-2.07-4.88-4.12-7.63-6.12c-0.23-0.16-0.37-0.42-0.4-0.7c-0.35-3.38-0.85-6.61-1.48-9.66c-0.11-0.54,0.23-1.06,0.76-1.17 C92.5,39.41,98.99,40.61,100.37,43z M71,76.12c-2.24,1.3-4.43,2.46-6.56,3.5c-0.28,0.14-0.6,0.14-0.89,0 c-2.13-1.05-4.31-2.21-6.56-3.5s-4.34-2.61-6.31-3.93c-0.26-0.17-0.42-0.45-0.44-0.77C50.09,69.07,50,66.59,50,64 c0-2.59,0.09-5.07,0.24-7.43c0.02-0.31,0.18-0.59,0.44-0.77c1.97-1.32,4.07-2.63,6.31-3.93s4.43-2.46,6.56-3.5 c0.28-0.14,0.6-0.14,0.89,0c2.13,1.05,4.31,2.21,6.56,3.5s4.34,2.61,6.31,3.93c0.26,0.17,0.42,0.45,0.44,0.77 C77.91,58.93,78,61.41,78,64c0,2.59-0.09,5.07-0.24,7.43c-0.02,0.31-0.18,0.59-0.44,0.77C75.34,73.52,73.24,74.83,71,76.12z M76.88,79.6c-0.27,1.79-0.58,3.49-0.93,5.1c-1.57-0.51-3.2-1.08-4.88-1.74c0.98-0.53,1.96-1.07,2.93-1.63S75.93,80.18,76.88,79.6 z M56.93,82.95c-1.68,0.66-3.31,1.24-4.88,1.74c-0.35-1.61-0.66-3.31-0.93-5.1c0.95,0.58,1.9,1.16,2.88,1.73 S55.96,82.42,56.93,82.95z M44.05,67.36c-1.41-1.13-2.73-2.25-3.95-3.36c1.22-1.11,2.54-2.23,3.95-3.36 C44.02,61.75,44,62.87,44,64C44,65.13,44.02,66.25,44.05,67.36z M51.12,48.4c0.27-1.79,0.58-3.49,0.93-5.1 c1.57,0.51,3.2,1.08,4.88,1.74c-0.98,0.53-1.96,1.07-2.93,1.63C53.02,47.24,52.07,47.82,51.12,48.4z M71.07,45.05 c1.68-0.66,3.31-1.24,4.88-1.74c0.35,1.61,0.66,3.31,0.93,5.1c-0.95-0.58-1.9-1.16-2.88-1.73C73.02,46.11,72.04,45.58,71.07,45.05 z M83.95,60.64c1.41,1.13,2.73,2.25,3.95,3.36c-1.22,1.11-2.54,2.23-3.95,3.36C83.98,66.25,84,65.13,84,64 C84,62.87,83.98,61.75,83.95,60.64z M64,22c2.76,0,7.05,5.02,10.15,14.56c0.17,0.52-0.11,1.08-0.64,1.26 c-2.96,0.98-6.01,2.16-9.11,3.55c-0.26,0.11-0.55,0.11-0.81,0c-3.1-1.38-6.15-2.57-9.11-3.55c-0.52-0.17-0.81-0.73-0.64-1.26 C56.95,27.02,61.24,22,64,22z M27.63,43c1.38-2.39,7.87-3.59,17.69-1.51c0.54,0.11,0.88,0.64,0.76,1.17 c-0.63,3.05-1.13,6.29-1.48,9.66c-0.03,0.28-0.18,0.53-0.4,0.7c-2.75,1.99-5.3,4.04-7.63,6.12c-0.41,0.36-1.04,0.33-1.4-0.08 C28.45,51.61,26.25,45.39,27.63,43z M27.63,85c-1.38-2.39,0.83-8.61,7.54-16.07c0.37-0.41,1-0.44,1.4-0.08 c2.33,2.07,4.88,4.12,7.63,6.12c0.23,0.16,0.37,0.42,0.4,0.7c0.35,3.38,0.85,6.61,1.48,9.66c0.11,0.54-0.23,1.06-0.76,1.17 C35.5,88.59,29.01,87.39,27.63,85z M64,106c-2.76,0-7.05-5.02-10.15-14.56c-0.17-0.52,0.11-1.08,0.64-1.26 c2.96-0.98,6.01-2.16,9.11-3.55c0.26-0.11,0.55-0.11,0.81,0c3.1,1.38,6.15,2.57,9.11,3.55c0.52,0.17,0.81,0.73,0.64,1.26 C71.05,100.98,66.76,106,64,106z M100.37,85c-1.38,2.39-7.87,3.59-17.69,1.51c-0.54-0.11-0.88-0.64-0.76-1.17 c0.63-3.05,1.13-6.29,1.48-9.66c0.03-0.28,0.18-0.53,0.4-0.7c2.75-1.99,5.3-4.04,7.63-6.12c0.41-0.36,1.04-0.33,1.4,0.08 C99.55,76.39,101.75,82.61,100.37,85z" style="fill:#FAFAFA;"/>
    </g>
  </g>
</svg>