<?xml version="1.0" encoding="UTF-8" standalone="no"?>
<!-- Generator: Adobe Illustrator 24.1.2, SVG Export Plug-In . SVG Version: 6.00 Build 0)  -->

<svg
   version="1.1"
   id="Layer_1"
   x="0px"
   y="0px"
   viewBox="0 0 128 128"
   style="enable-background:new 0 0 128 128;"
   xml:space="preserve"
   sodipodi:docname="emoji_u1f60d.svg"
   inkscape:version="1.3.2 (091e20e, 2023-11-25, custom)"
   xmlns:inkscape="http://www.inkscape.org/namespaces/inkscape"
   xmlns:sodipodi="http://sodipodi.sourceforge.net/DTD/sodipodi-0.dtd"
   xmlns="http://www.w3.org/2000/svg"
   xmlns:svg="http://www.w3.org/2000/svg"><defs
   id="defs14" /><sodipodi:namedview
   id="namedview14"
   pagecolor="#ffffff"
   bordercolor="#000000"
   borderopacity="0.25"
   inkscape:showpageshadow="2"
   inkscape:pageopacity="0.0"
   inkscape:pagecheckerboard="0"
   inkscape:deskcolor="#d1d1d1"
   inkscape:zoom="4.2592135"
   inkscape:cx="51.183159"
   inkscape:cy="70.083362"
   inkscape:window-width="1920"
   inkscape:window-height="991"
   inkscape:window-x="-9"
   inkscape:window-y="-9"
   inkscape:window-maximized="1"
   inkscape:current-layer="Layer_1" />
<g
   id="facial_expressions">
	
		<radialGradient
   id="face_1_"
   cx="63.6"
   cy="512.9"
   r="56.9597"
   gradientTransform="matrix(1 0 0 1 0 -450)"
   gradientUnits="userSpaceOnUse">
		<stop
   offset="0.5"
   style="stop-color:#FDE030"
   id="stop1" />
		<stop
   offset="0.92"
   style="stop-color:#F7C02B"
   id="stop2" />
		<stop
   offset="1"
   style="stop-color:#F4A223"
   id="stop3" />
	</radialGradient>
	<path
   id="face"
   style="fill:url(#face_1_);"
   d="M63.6,118.8c-27.9,0-58-17.5-58-55.9S35.7,7,63.6,7c15.5,0,29.8,5.1,40.4,14.4   c11.5,10.2,17.6,24.6,17.6,41.5s-6.1,31.2-17.6,41.4C93.4,113.6,79,118.8,63.6,118.8z" />
	
	<g
   id="smiling-face-with-heart-eyes">
		<path
   id="mouth"
   style="fill:#422B0D;"
   d="M64.4,83.3c-3.58,0-7.13-0.6-10.5-1.8c-4.15-1.43-8.66,0.78-10.09,4.92    c-0.81,2.34-0.48,4.92,0.89,6.98c4.3,6.6,11.1,10.2,19.7,10.2s15.4-3.6,19.7-10.2c2.43-3.65,1.43-8.58-2.22-11.01    c-2.06-1.37-4.64-1.7-6.98-0.89C71.53,82.7,67.98,83.3,64.4,83.3z" />
		<g
   id="blush">
			
				<radialGradient
   id="SVGID_1_"
   cx="66.2449"
   cy="-1690.4537"
   r="19.4611"
   gradientTransform="matrix(0.98 0 0 0.88 -30.72 1552.7098)"
   gradientUnits="userSpaceOnUse">
				<stop
   offset="0"
   style="stop-color:#ED7770"
   id="stop4" />
				<stop
   offset="0.9"
   style="stop-color:#ED7770;stop-opacity:0"
   id="stop5" />
			</radialGradient>
			<ellipse
   style="opacity:0.8;fill:url(#SVGID_1_);enable-background:new    ;"
   cx="34.2"
   cy="72.7"
   rx="17.5"
   ry="16.5"
   id="ellipse5" />
			
				<radialGradient
   id="SVGID_2_"
   cx="123.12"
   cy="-2397.5901"
   r="19.46"
   gradientTransform="matrix(1 0 0 -1 0 130)"
   gradientUnits="userSpaceOnUse">
				<stop
   offset="0"
   style="stop-color:#ED7770"
   id="stop6" />
				<stop
   offset="0.9"
   style="stop-color:#ED7770;stop-opacity:0"
   id="stop7" />
			</radialGradient>
			<ellipse
   style="opacity:0.8;fill:url(#SVGID_2_);enable-background:new    ;"
   cx="94.6"
   cy="72.7"
   rx="17.5"
   ry="16.5"
   id="ellipse7" />
		</g>
	</g>
	<path
   style="fill:#cc1775;fill-opacity:1"
   d="M107.59,34.37c-8.21-2.31-14.24,4.4-14.24,4.4s-0.7-7.61-7.72-10c-8.42-2.89-17.31,1.71-17.84,13.64   C67.19,56,85.17,73.84,85.17,73.84s22.32-6,29.63-18.72C120.75,44.77,113.8,36.11,107.59,34.37z"
   id="path7" />
	
	
	
	<path
   style="fill:#cc1775;fill-opacity:1"
   d="M40.72,28.57c-8.11,2.63-9.41,11.56-9.41,11.56s-4.8-6-12-4.06C10.72,38.33,5.87,47.09,12,57.3   C19.1,69,43.94,73.85,43.94,73.85s15.25-17.36,14.29-32C57.44,29.93,46.85,26.58,40.72,28.57z"
   id="path11" />
	
	
	
</g>
</svg>
