<?xml version="1.0" encoding="utf-8"?>
<!-- Generator: Adobe Illustrator 26.3.1, SVG Export Plug-In . SVG Version: 6.00 Build 0)  -->
<svg version="1.1" id="Layer_2_00000075854752117036302210000009778351818945369766_"
	 xmlns="http://www.w3.org/2000/svg" xmlns:xlink="http://www.w3.org/1999/xlink" x="0px" y="0px" viewBox="0 0 128 128"
	 style="enable-background:new 0 0 128 128;" xml:space="preserve">
<path style="fill:#F9DDBD;" d="M89.7,75.1c0.1,0.4,0.5,0.5,0.8,0.2c3.7-4.5,13.6-17,25-13.7c3.6,1,5.3,5.1,3.9,8.2
	c-2.3,4.9-14.7,13.2-21.1,24c-1,1.7-9.6,21.6-24.1,27.4s-39.5,5.1-46.9-23c-3.8-14.5-1.7-17.9-5.6-37.1c-0.8-3.8-3.6-20-4.1-24.7
	c-0.7-6.3,8.2-8.5,10.4-3.1c1,2.6,8.7,27.2,9,28.2c0.6,1.9,3,1.3,2.9-0.4c-1.7-19.9-3.8-38.4-3.5-44.7s9.9-7.3,11.2-0.8
	c0.8,4.4,5.8,39.2,6,40.7s2.6,1.3,2.8-0.3s2-38.8,3.2-46.8c1.1-7,12.4-6.9,12.6,1.1c0.2,6.4-0.9,45.7-1,47c-0.1,2,2.2,2.2,2.5,0.1
	c0.2-1.4,8.1-36.8,9.2-40.3c1.8-6.1,12.1-5.7,11.8,2.5C94.1,30.9,87.6,61.8,89.7,75.1z"/>
<g>
	<g>
		<defs>
			<path id="SVGID_1_" d="M89.7,75.1c0.1,0.4,0.5,0.5,0.8,0.2c3.7-4.5,13.6-17,25-13.7c3.6,1,5.3,5.1,3.9,8.2
				c-2.3,4.9-14.7,13.2-21.1,24c-1,1.7-9.6,21.6-24.1,27.4s-39.5,5.1-46.9-23c-3.8-14.5-1.7-17.9-5.6-37.1c-0.8-3.8-3.6-20-4.1-24.7
				c-0.7-6.3,8.2-8.5,10.4-3.1c1,2.6,8.7,27.2,9,28.2c0.6,1.9,3,1.3,2.9-0.4c-1.7-19.9-3.8-38.4-3.5-44.7s9.9-7.3,11.2-0.8
				c0.8,4.4,5.8,39.2,6,40.7s2.6,1.3,2.8-0.3s2-38.8,3.2-46.8c1.1-7,12.4-6.9,12.6,1.1c0.2,6.4-0.9,45.7-1,47
				c-0.1,2,2.2,2.2,2.5,0.1c0.2-1.4,8.1-36.8,9.2-40.3c1.8-6.1,12.1-5.7,11.8,2.5C94.1,30.9,87.6,61.8,89.7,75.1z"/>
		</defs>
		<clipPath id="SVGID_00000050628824693861574280000014723847480988689575_">
			<use xlink:href="#SVGID_1_"  style="overflow:visible;"/>
		</clipPath>
		<g style="clip-path:url(#SVGID_00000050628824693861574280000014723847480988689575_);">
			<path style="fill:#EFB682;" d="M87.8,74c-16.9,1.9-30.1,11.7-29.5,30.9c0,1.6,2.4,1.6,2.5-0.1c0.5-9.1,5.5-23,26.6-27.3
				c1.1,1.7,3.8,1.3,4.8,0.1c6.4-7.8,11.8-14.1,20.7-14.1c3.4,0,5.9,3.1,3.7,6.9c0,0,1.8,1.4,2.6,2c1.6-1.6,4.8-4.4,4.8-4.5
				s-7.9-10.8-7.9-10.8l-15.2,3.4L87.8,74z"/>
			<path style="fill:#EFB682;" d="M72.2,58.9c1.6,0.2,3.3-0.1,3.7-1.8c0.4-1.7,7.8-35.2,8.4-37.7c1.2-4.6,6.2-5.5,8.1-2.5
				c1.1,1.7,3.3-0.3,2.8-1.2c-0.5-0.9-1.4-3.8-6.4-4.3C79.9,10.5,79,20.6,78,26.2C77,31.7,72.2,58.9,72.2,58.9z"/>
			<path style="fill:#EFB682;" d="M54.9,57.3c2.2-0.2,4-0.3,4-3.3c0-2,2.5-39.2,2.7-42.8c0.2-5.3,7.1-5.7,8.1-1.7
				c0.5,1.8,3.8,0.6,3.5-0.8s-1.7-6-7.4-6s-7.7,3.2-8,4.8S54.9,57.3,54.9,57.3z"/>
			<path style="fill:#EFB682;" d="M38.9,62.5c2.1-0.9,3.3-1.2,3.1-4.3c-0.2-3-3.1-38.3-3.3-40.3c-0.4-4.9,5.2-5.4,6.3-3.3
				s3.8-0.1,2.8-1.7S45,9,41.9,9.1c-3.2,0.2-6.4,2.5-7.2,4.5C33.9,15.7,38.9,62.5,38.9,62.5z"/>
			<path style="fill:#EFB682;" d="M58.5,122.9c-19-2.4-26.4-14.7-29-26.1c-2.9-12.9-2.2-22.4-4.3-30.7c-0.7-2.9-5.2-27-5.2-30.7
				c0-3,5.1-5,6.7-1.1c1,2.4,3.7,0.4,2.9-1.2c-0.7-1.5-2.6-4.8-7-4.5s-6.9,4.1-7,5.8c0.1,1.7,11.7,79.6,11.7,79.6l18,10.9l13.2,0.3
				V122.9z"/>
		</g>
	</g>
</g>
<g>
	<g>
		<defs>
			<path id="SVGID_00000096746137103927578590000013305147946262404498_" d="M89.7,75.1c0.1,0.4,0.5,0.5,0.8,0.2
				c3.7-4.5,13.6-17,25-13.7c3.6,1,5.3,5.1,3.9,8.2c-2.3,4.9-14.7,13.2-21.1,24c-1,1.7-9.6,21.6-24.1,27.4s-39.5,5.1-46.9-23
				c-3.8-14.5-1.7-17.9-5.6-37.1c-0.8-3.8-3.6-20-4.1-24.7c-0.7-6.3,8.2-8.5,10.4-3.1c1,2.6,8.7,27.2,9,28.2c0.6,1.9,3,1.3,2.9-0.4
				c-1.7-19.9-3.8-38.4-3.5-44.7s9.9-7.3,11.2-0.8c0.8,4.4,5.8,39.2,6,40.7s2.6,1.3,2.8-0.3s2-38.8,3.2-46.8
				c1.1-7,12.4-6.9,12.6,1.1c0.2,6.4-0.9,45.7-1,47c-0.1,2,2.2,2.2,2.5,0.1c0.2-1.4,8.1-36.8,9.2-40.3c1.8-6.1,12.1-5.7,11.8,2.5
				C94.1,30.9,87.6,61.8,89.7,75.1z"/>
		</defs>
		<clipPath id="SVGID_00000158744361983824985760000003267119167994645412_">
			<use xlink:href="#SVGID_00000096746137103927578590000013305147946262404498_"  style="overflow:visible;"/>
		</clipPath>
		<g style="clip-path:url(#SVGID_00000158744361983824985760000003267119167994645412_);">
			<path style="fill:#B26830;" d="M119.8,64.1c-0.3,1.5-1,3.8-3.4,6.3c-8.8,9.1-16,13-22.2,24.9c-11.8,22.8-29.8,34.2-57.8,20.9
				c-2.8-1.3-3.4,1.1-1.9,1.8c0.7,0.3,21.2,8.8,21.2,8.8s26.4-3.7,26.5-3.8c0.1-0.2,40.1-53.1,40.1-53.1L119.8,64.1z"/>
			<path style="fill:#B26830;" d="M89.7,12.5c1,0.9,2.9,3.5,2.5,8.1S87.6,51,87.4,53.9c-0.3,3-2.2,16.5-0.5,22.2
				c0.5,1.6,2.5,1.2,2.9,0c0.2-0.6,0.9-2.1,0.9-2.1l10-60.6l-7.1-4.2L89.7,12.5z"/>
			<path style="fill:#B26830;" d="M72.2,58.9c-2.3-0.3-3.9-0.4-3.9-3.2c0-1.9,0.9-22.4,1.1-46.8c0-1.9-1.3-4.4-3.4-4.8
				s-1.1-2.6,0-2.5c1.1,0.1,7.9,0.5,7.6,8.5C73.4,18.1,72.2,58.9,72.2,58.9z"/>
			<path style="fill:#B26830;" d="M54.9,57.3c-1.9,0.1-4.1,0.6-4.5-2.6C50,51.6,45.7,18,45.4,16c-0.2-2.1-1.7-4.6-4.1-4.6
				c-1.6,0-1.3-2.9-0.2-3s7.4-1.1,8.1,3.7C49.9,17,54.9,57.3,54.9,57.3z"/>
			<path style="fill:#B26830;" d="M38.9,62.5c-1.9,0.5-3.7,0.4-4.6-1.9c-0.9-2.3-8-24.8-8.4-26.4c-0.4-1.6-2.4-4.7-6-3.9
				c-1.4,0.3-1.9-1.9-0.5-2.3s8.6-2.1,10.2,3.2S38.9,62.5,38.9,62.5z"/>
		</g>
	</g>
</g>
</svg>
