<svg enable-background="new 0 0 128 128" viewBox="0 0 128 128" xmlns="http://www.w3.org/2000/svg"><radialGradient id="b" cx="64.667" cy="4.6667" r="128.1" gradientUnits="userSpaceOnUse"><stop stop-color="#757575" offset="0"/><stop stop-color="#424242" offset="1"/></radialGradient><path d="m4 4v120h120v-120h-120zm16 110c0 1.1-0.9 2-2 2h-4c-1.1 0-2-0.9-2-2v-8c0-1.1 0.9-2 2-2h4c1.1 0 2 0.9 2 2v8zm0-92c0 1.1-0.9 2-2 2h-4c-1.1 0-2-0.9-2-2v-8c0-1.1 0.9-2 2-2h4c1.1 0 2 0.9 2 2v8zm16 92c0 1.1-0.9 2-2 2h-4c-1.1 0-2-0.9-2-2v-8c0-1.1 0.9-2 2-2h4c1.1 0 2 0.9 2 2v8zm0-92c0 1.1-0.9 2-2 2h-4c-1.1 0-2-0.9-2-2v-8c0-1.1 0.9-2 2-2h4c1.1 0 2 0.9 2 2v8zm16 92c0 1.1-0.9 2-2 2h-4c-1.1 0-2-0.9-2-2v-8c0-1.1 0.9-2 2-2h4c1.1 0 2 0.9 2 2v8zm0-92c0 1.1-0.9 2-2 2h-4c-1.1 0-2-0.9-2-2v-8c0-1.1 0.9-2 2-2h4c1.1 0 2 0.9 2 2v8zm16 92c0 1.1-0.9 2-2 2h-4c-1.1 0-2-0.9-2-2v-8c0-1.1 0.9-2 2-2h4c1.1 0 2 0.9 2 2v8zm0-92c0 1.1-0.9 2-2 2h-4c-1.1 0-2-0.9-2-2v-8c0-1.1 0.9-2 2-2h4c1.1 0 2 0.9 2 2v8zm16 92c0 1.1-0.9 2-2 2h-4c-1.1 0-2-0.9-2-2v-8c0-1.1 0.9-2 2-2h4c1.1 0 2 0.9 2 2v8zm0-92c0 1.1-0.9 2-2 2h-4c-1.1 0-2-0.9-2-2v-8c0-1.1 0.9-2 2-2h4c1.1 0 2 0.9 2 2v8zm16 92c0 1.1-0.9 2-2 2h-4c-1.1 0-2-0.9-2-2v-8c0-1.1 0.9-2 2-2h4c1.1 0 2 0.9 2 2v8zm0-92c0 1.1-0.9 2-2 2h-4c-1.1 0-2-0.9-2-2v-8c0-1.1 0.9-2 2-2h4c1.1 0 2 0.9 2 2v8zm16 92c0 1.1-0.9 2-2 2h-4c-1.1 0-2-0.9-2-2v-8c0-1.1 0.9-2 2-2h4c1.1 0 2 0.9 2 2v8zm0-92c0 1.1-0.9 2-2 2h-4c-1.1 0-2-0.9-2-2v-8c0-1.1 0.9-2 2-2h4c1.1 0 2 0.9 2 2v8z" fill="url(#b)"/><g opacity=".2"><path d="M121,7v114H7V7H121 M124,4H4v120h120V4L124,4z" fill="#eee"/></g><radialGradient id="a" cx="64" cy="32.333" r="73.941" gradientUnits="userSpaceOnUse"><stop stop-color="#A1887F" offset=".0042918"/><stop stop-color="#9B8077" offset=".2601"/><stop stop-color="#8A6B60" offset=".6635"/><stop stop-color="#795548" offset="1"/></radialGradient><rect x="12" y="32" width="104" height="64" fill="url(#a)"/><g opacity=".2"><path d="m18 12c1.1 0 2 0.9 2 2v8c0 1.1-0.9 2-2 2h-4c-1.1 0-2-0.9-2-2v-8c0-1.1 0.9-2 2-2h4m0-2h-4c-2.21 0-4 1.79-4 4v8c0 2.21 1.79 4 4 4h4c2.21 0 4-1.79 4-4v-8c0-2.21-1.79-4-4-4z" fill="#424242"/><path d="m34 12c1.1 0 2 0.9 2 2v8c0 1.1-0.9 2-2 2h-4c-1.1 0-2-0.9-2-2v-8c0-1.1 0.9-2 2-2h4m0-2h-4c-2.21 0-4 1.79-4 4v8c0 2.21 1.79 4 4 4h4c2.21 0 4-1.79 4-4v-8c0-2.21-1.79-4-4-4z" fill="#424242"/><path d="m50 12c1.1 0 2 0.9 2 2v8c0 1.1-0.9 2-2 2h-4c-1.1 0-2-0.9-2-2v-8c0-1.1 0.9-2 2-2h4m0-2h-4c-2.21 0-4 1.79-4 4v8c0 2.21 1.79 4 4 4h4c2.21 0 4-1.79 4-4v-8c0-2.21-1.79-4-4-4z" fill="#424242"/><path d="m66 12c1.1 0 2 0.9 2 2v8c0 1.1-0.9 2-2 2h-4c-1.1 0-2-0.9-2-2v-8c0-1.1 0.9-2 2-2h4m0-2h-4c-2.21 0-4 1.79-4 4v8c0 2.21 1.79 4 4 4h4c2.21 0 4-1.79 4-4v-8c0-2.21-1.79-4-4-4z" fill="#424242"/><path d="m82 12c1.1 0 2 0.9 2 2v8c0 1.1-0.9 2-2 2h-4c-1.1 0-2-0.9-2-2v-8c0-1.1 0.9-2 2-2h4m0-2h-4c-2.21 0-4 1.79-4 4v8c0 2.21 1.79 4 4 4h4c2.21 0 4-1.79 4-4v-8c0-2.21-1.79-4-4-4z" fill="#424242"/><path d="m98 12c1.1 0 2 0.9 2 2v8c0 1.1-0.9 2-2 2h-4c-1.1 0-2-0.9-2-2v-8c0-1.1 0.9-2 2-2h4m0-2h-4c-2.21 0-4 1.79-4 4v8c0 2.21 1.79 4 4 4h4c2.21 0 4-1.79 4-4v-8c0-2.21-1.79-4-4-4z" fill="#424242"/><path d="m114 12c1.1 0 2 0.9 2 2v8c0 1.1-0.9 2-2 2h-4c-1.1 0-2-0.9-2-2v-8c0-1.1 0.9-2 2-2h4m0-2h-4c-2.21 0-4 1.79-4 4v8c0 2.21 1.79 4 4 4h4c2.21 0 4-1.79 4-4v-8c0-2.21-1.79-4-4-4z" fill="#424242"/><path d="m18 104c1.1 0 2 0.9 2 2v8c0 1.1-0.9 2-2 2h-4c-1.1 0-2-0.9-2-2v-8c0-1.1 0.9-2 2-2h4m0-2h-4c-2.21 0-4 1.79-4 4v8c0 2.21 1.79 4 4 4h4c2.21 0 4-1.79 4-4v-8c0-2.21-1.79-4-4-4z" fill="#424242"/><path d="m34 104c1.1 0 2 0.9 2 2v8c0 1.1-0.9 2-2 2h-4c-1.1 0-2-0.9-2-2v-8c0-1.1 0.9-2 2-2h4m0-2h-4c-2.21 0-4 1.79-4 4v8c0 2.21 1.79 4 4 4h4c2.21 0 4-1.79 4-4v-8c0-2.21-1.79-4-4-4z" fill="#424242"/><path d="m50 104c1.1 0 2 0.9 2 2v8c0 1.1-0.9 2-2 2h-4c-1.1 0-2-0.9-2-2v-8c0-1.1 0.9-2 2-2h4m0-2h-4c-2.21 0-4 1.79-4 4v8c0 2.21 1.79 4 4 4h4c2.21 0 4-1.79 4-4v-8c0-2.21-1.79-4-4-4z" fill="#424242"/><path d="m66 104c1.1 0 2 0.9 2 2v8c0 1.1-0.9 2-2 2h-4c-1.1 0-2-0.9-2-2v-8c0-1.1 0.9-2 2-2h4m0-2h-4c-2.21 0-4 1.79-4 4v8c0 2.21 1.79 4 4 4h4c2.21 0 4-1.79 4-4v-8c0-2.21-1.79-4-4-4z" fill="#424242"/><path d="m82 104c1.1 0 2 0.9 2 2v8c0 1.1-0.9 2-2 2h-4c-1.1 0-2-0.9-2-2v-8c0-1.1 0.9-2 2-2h4m0-2h-4c-2.21 0-4 1.79-4 4v8c0 2.21 1.79 4 4 4h4c2.21 0 4-1.79 4-4v-8c0-2.21-1.79-4-4-4z" fill="#424242"/><path d="m98 104c1.1 0 2 0.9 2 2v8c0 1.1-0.9 2-2 2h-4c-1.1 0-2-0.9-2-2v-8c0-1.1 0.9-2 2-2h4m0-2h-4c-2.21 0-4 1.79-4 4v8c0 2.21 1.79 4 4 4h4c2.21 0 4-1.79 4-4v-8c0-2.21-1.79-4-4-4z" fill="#424242"/><path d="m114 104c1.1 0 2 0.9 2 2v8c0 1.1-0.9 2-2 2h-4c-1.1 0-2-0.9-2-2v-8c0-1.1 0.9-2 2-2h4m0-2h-4c-2.21 0-4 1.79-4 4v8c0 2.21 1.79 4 4 4h4c2.21 0 4-1.79 4-4v-8c0-2.21-1.79-4-4-4z" fill="#424242"/><rect x="12" y="32" width="104" height="64" fill="none" stroke="#424242" stroke-miterlimit="10" stroke-width="4"/></g></svg>
