<svg width="128" height="128" style="enable-background:new 0 0 128 128;" xmlns="http://www.w3.org/2000/svg" xmlns:xlink="http://www.w3.org/1999/xlink">
  <g id="Layer_1">
    <g>
      <linearGradient id="SVGID_1_" gradientUnits="userSpaceOnUse" x1="65.3321" x2="102.2764" y1="66.7802" y2="112.9046">
        <stop offset="0" style="stop-color:#00897B"/>
        <stop offset="1" style="stop-color:#4DB6AC"/>
      </linearGradient>
      <path d="M110.93,103.2c-0.94-1.63-0.77-3.65-1-6.41c-0.56-6.71-0.67-13.39-0.95-20.1 c-0.27-6.49,0.44-27.1,0.48-33.6c0.01-1.78-5,13.9-5.03,14.81c-0.1,3.35-1.88,5.8-4.15,8.15c-1.39,1.45-3.1,2.2-4.45,3.62 c-3.19,3.34-6.14,7.45-8.73,11.29c-0.76,1.12-1.34,2.29-2.43,3.12c-1.81,1.39-4.21,2.15-6.29,2.98c-2.77,1.11-5.78,1.53-8.4,3.03 c-1.58,0.9-2.76,2.15-4.14,3.29c-1.4,1.16-2.7,2.1-3.82,3.56c-1.74,2.27-3.75,4.31-5.64,6.44c-0.46,0.51-0.89,1.06-1.37,1.56 c-0.45,0.46-1.34,0.86-1.34,0.86s-29.31,2.15-13.36,3.63c7.24,0.67,29.63,1.39,36.87,2.11c4.33,0.43,8.58,0.9,12.9,1.54 c1.98,0.29,4.55,0.07,6.56,0.77C102.17,111.72,106.77,107.72,110.93,103.2z" style="fill:url(#SVGID_1_);"/>
      <path d="M114,105.74c-0.14-0.07-0.27-0.14-0.4-0.2c-1.36-0.7-2.17-1.46-2.67-2.33 c-4.16,4.52-8.76,8.52-14.31,10.66c1.08,0.37,2.01,1.01,2.59,2.14c0.09,0.17,0.16,0.36,0.24,0.54 C105.47,114.49,110.09,110.53,114,105.74z" style="fill:#AEEA00;"/>
      <linearGradient id="SVGID_3_" gradientUnits="userSpaceOnUse" x1="105.1865" x2="114.3085" y1="109.1233" y2="120.512">
        <stop offset="0" style="stop-color:#00897B"/>
        <stop offset="1" style="stop-color:#4DB6AC"/>
      </linearGradient>
      <path d="M118.3,108.6c-1.17-1.25-2.99-2.19-4.3-2.86c-3.91,4.79-8.53,8.75-14.54,10.8 c0.95,2.16,1.35,4.87,3.37,6.25c6.38,4.38,15.04-5.08,16.52-10.96C119.66,110.59,119.16,109.51,118.3,108.6z" style="fill:url(#SVGID_3_);"/>
    </g>
    <path d="M106.03,32.23c8.15,10.59,3.04,43.04-20.55,62.41s-56.04,17.77-64.18,7.18s2.34-37.52,25.93-56.89 S97.88,21.64,106.03,32.23z" style="fill:#00695C;"/>
    <linearGradient id="SVGID_4_" gradientUnits="userSpaceOnUse" x1="3.4949" x2="46.2472" y1="103.1165" y2="74.7291">
      <stop offset="0" style="stop-color:#9CCC65"/>
      <stop offset="1" style="stop-color:#00AD51"/>
    </linearGradient>
    <path d="M27.07,76.6c9.49-2.77,24.29,3.66,24.29,3.66S44.39,91.91,32.12,96 c-15.81,5.28-27.78-2.69-27.78-2.69S11.07,81.26,27.07,76.6z" style="fill:url(#SVGID_4_);"/>
    <linearGradient id="SVGID_5_" gradientUnits="userSpaceOnUse" x1="10.0355" x2="53.3431" y1="114.0878" y2="85.3315">
      <stop offset="0" style="stop-color:#9CCC65"/>
      <stop offset="1" style="stop-color:#00AD51"/>
    </linearGradient>
    <path d="M31.56,86.66c5.14-9.9,21.39-17.12,21.39-17.12s3.62,14.62-2.62,27.82 c-8.04,17-23.32,20.72-23.32,20.72S22.9,103.35,31.56,86.66z" style="fill:url(#SVGID_5_);"/>
    <linearGradient id="SVGID_6_" gradientUnits="userSpaceOnUse" x1="67.8939" x2="119.5648" y1="54.756" y2="19.2753">
      <stop offset="0" style="stop-color:#00AD51"/>
      <stop offset="1" style="stop-color:#9CCC65"/>
    </linearGradient>
    <path d="M89.72,26.3c8.18-7.4,25.86-8.24,25.86-8.24s-1.6,15-11.94,25.09 C90.32,56.13,74.75,54.06,74.75,54.06S75.93,38.77,89.72,26.3z" style="fill:url(#SVGID_6_);"/>
    <linearGradient id="SVGID_7_" gradientUnits="userSpaceOnUse" x1="75.4639" x2="126.4631" y1="65.4933" y2="30.4738">
      <stop offset="0" style="stop-color:#00AD51"/>
      <stop offset="1" style="stop-color:#9CCC65"/>
    </linearGradient>
    <path d="M99.75,39.51c10.87,0.31,24.4,12.09,24.4,12.09s-11.03,9.89-25.25,10.04 c-18.31,0.19-28.38-12.25-28.38-12.25S81.43,38.99,99.75,39.51z" style="fill:url(#SVGID_7_);"/>
    <linearGradient id="SVGID_8_" gradientUnits="userSpaceOnUse" x1="61.4217" x2="80.69" y1="61.6264" y2="111.724">
      <stop offset="0" style="stop-color:#00AD51"/>
      <stop offset="1" style="stop-color:#9CCC65"/>
    </linearGradient>
    <path d="M94.5,70.8C82.33,56.65,64.34,58.3,64.34,58.3s-0.55,1.92-0.89,4.97 c-3.09-1.22-5.2-1.62-5.2-1.62s-1.05,1.74-2.19,4.65c-2.58-1.57-4.37-2.28-4.37-2.28s-13.06,14.83-7.16,32.76 c4.59,13.92,20.86,20.86,20.86,20.86s2.64-4.27,5.01-9.89c5.67,3.01,10.64,4.11,10.64,4.11s2.43-6.13,3.76-13.3 c7.61,2.25,14.51,1.83,14.51,1.83S101.73,79.2,94.5,70.8z" style="fill:url(#SVGID_8_);"/>
    <g>
      <g>
        <path d="M95.29,22.93c-2.03,5.31-7.83,7.91-12.97,5.82c-5.14-2.09-7.66-8.09-5.64-13.4 s7.83-7.91,12.97-5.82C94.8,11.62,97.32,17.62,95.29,22.93z" style="fill:#B39DDB;"/>
        <path d="M82.33,28.75c-2.03,5.31-7.83,7.91-12.97,5.82c-5.14-2.09-7.66-8.09-5.64-13.4 s7.83-7.91,12.97-5.82C81.83,17.45,84.35,23.45,82.33,28.75z" style="fill:#B39DDB;"/>
        <path d="M87.96,42.15c-2.03,5.31-7.83,7.91-12.97,5.82c-5.14-2.09-7.66-8.09-5.64-13.4 c2.03-5.31,7.83-7.91,12.97-5.82C87.46,30.85,89.99,36.84,87.96,42.15z" style="fill:#B39DDB;"/>
        <path d="M100.93,36.33c-2.03,5.31-7.83,7.91-12.97,5.82c-5.14-2.09-7.66-8.09-5.64-13.4 c2.03-5.31,7.83-7.91,12.97-5.82C100.43,25.02,102.96,31.02,100.93,36.33z" style="fill:#B39DDB;"/>
      </g>
      <ellipse cx="82.33" cy="28.75" rx="4.15" ry="4.28" style="fill:#EDE7F6;"/>
    </g>
    <g>
      <path d="M34.22,59.22c8.65,4.13,13.42,12.48,10.66,18.64s-12.01,7.81-20.66,3.68 C11.41,75.43,6.01,59.3,6.01,59.3S21.41,53.1,34.22,59.22z" style="fill:#C62828;"/>
      <path d="M24.81,69.55c4.52,8.67,12.87,13.08,18.66,9.86s6.82-12.86,2.3-21.52 c-6.69-12.84-22.61-17.43-22.61-17.43S18.12,56.71,24.81,69.55z" style="fill:#C62828;"/>
      <path d="M39.67,58.23c6.94,6.74,8.91,16.22,4.4,21.17c-4.51,4.95-13.78,3.49-20.72-3.25 c-10.28-9.99-10.47-27.07-10.47-27.07S29.39,48.24,39.67,58.23z" style="fill:#FF5252;"/>
    </g>
    <g>
      <path d="M56.72,32.6c7.8,7.72,9.94,18.48,4.78,24.05s-15.66,3.81-23.46-3.91 c-11.56-11.44-11.6-30.79-11.6-30.79S45.16,21.16,56.72,32.6z" style="fill:#F06292;"/>
      <path d="M42.95,40.09c1.76,11.01,9.14,18.92,16.5,17.67s11.89-11.19,10.14-22.2 C66.98,19.25,51.55,8.27,51.55,8.27S40.34,23.78,42.95,40.09z" style="fill:#F06292;"/>
      <path d="M62.91,33.61c5.04,9.87,3.77,20.78-2.82,24.37c-6.59,3.59-16.02-1.5-21.06-11.37 c-7.46-14.63-1.58-33-1.58-33S55.45,18.98,62.91,33.61z" style="fill:#FF80AB;"/>
    </g>
    <g>
      <radialGradient id="SVGID_9_" cx="50.3057" cy="80.9405" gradientTransform="matrix(1.0056 0 0 1.0389 -0.0242 -4.7503)" gradientUnits="userSpaceOnUse" r="23.721">
        <stop offset="0" style="stop-color:#FFFC1F"/>
        <stop offset="1" style="stop-color:#FCC21B"/>
      </radialGradient>
      <path d="M68.23,86.2c3.46-0.26,6.18-3.22,6.18-6.86c0-3.64-2.73-6.61-6.18-6.86l-0.48-0.5v-0.7 c2.27-2.71,2.17-6.8-0.32-9.37c-2.49-2.57-6.45-2.68-9.07-0.33h-0.68l-0.48-0.5c-0.25-3.57-3.12-6.39-6.64-6.39 c-3.52,0-6.39,2.82-6.64,6.39l-0.48,0.5h-0.68c-2.62-2.34-6.58-2.24-9.07,0.33c-2.49,2.57-2.59,6.66-0.32,9.37v0.7l-0.48,0.5 c-3.46,0.26-6.18,3.22-6.18,6.86c0,3.63,2.73,6.6,6.18,6.86l0.48,0.5v0.7c-2.27,2.7-2.16,6.8,0.32,9.37s6.45,2.68,9.07,0.33h0.68 l0.48,0.5c0.25,3.57,3.12,6.39,6.64,6.39c3.52,0,6.39-2.82,6.64-6.39l0.48-0.5h0.68c2.62,2.34,6.58,2.24,9.07-0.33 c2.49-2.57,2.59-6.66,0.32-9.37v-0.7L68.23,86.2z" style="fill:url(#SVGID_9_);"/>
      <ellipse cx="50.56" cy="79.34" rx="5.58" ry="5.77" style="fill:#FFFDE7;"/>
    </g>
    <g>
      <radialGradient id="SVGID_10_" cx="60.7434" cy="50.9141" gradientTransform="matrix(1.0056 0 0 1.0389 -0.0242 -4.7503)" gradientUnits="userSpaceOnUse" r="20.3825">
        <stop offset="0" style="stop-color:#FFEE00"/>
        <stop offset="1" style="stop-color:#FC9E1B"/>
      </radialGradient>
      <path d="M76.24,54.04c2.97-0.22,5.31-2.77,5.31-5.89c0-3.12-2.34-5.68-5.31-5.89l-0.41-0.43v-0.6 c1.95-2.32,1.86-5.84-0.28-8.05c-2.14-2.21-5.54-2.3-7.79-0.29h-0.58l-0.41-0.43c-0.21-3.07-2.68-5.49-5.71-5.49 c-3.02,0-5.49,2.42-5.71,5.49l-0.41,0.43h-0.58c-2.25-2.01-5.65-1.92-7.79,0.29c-2.14,2.21-2.23,5.73-0.28,8.05v0.6l-0.41,0.43 c-2.97,0.22-5.31,2.77-5.31,5.89c0,3.12,2.35,5.67,5.31,5.89l0.41,0.43v0.6c-1.95,2.32-1.86,5.84,0.28,8.05 c2.14,2.21,5.54,2.3,7.79,0.29h0.58l0.41,0.43c0.21,3.07,2.68,5.49,5.71,5.49c3.02,0,5.49-2.42,5.71-5.49l0.41-0.43h0.58 c2.25,2.01,5.65,1.92,7.79-0.29c2.14-2.21,2.23-5.73,0.28-8.05v-0.6L76.24,54.04z" style="fill:url(#SVGID_10_);"/>
      <ellipse cx="61.06" cy="48.14" rx="4.8" ry="4.96" style="fill:#FFFDE7;"/>
    </g>
    <g style="opacity:0.2;">
      <path d="M85.99,11.81c0.86,0,1.72,0.17,2.53,0.5c3.54,1.44,5.34,5.65,4.02,9.38 c-0.4,1.14-0.08,2.41,0.81,3.22c0.56,0.51,1.29,0.78,2.02,0.78c0.43,0,0.86-0.09,1.27-0.28c5.11-2.39,11.34-3.49,15.26-3.98 c-0.83,3.51-2.55,9.02-5.93,14.17c-0.49,0.74-0.62,1.66-0.37,2.52c0.39,1.28,0.67,2.73,0.84,4.3c0.12,1.06,0.78,1.97,1.75,2.41 c4.37,1.97,8.46,4.77,11.07,6.73c-2.47,1.7-6.36,4-11.08,5.52c-1.22,0.39-2.06,1.51-2.08,2.79c-0.13,6.06-0.27,13.47-0.12,16.96 c0.08,1.83,0.14,3.67,0.2,5.5c0.17,4.81,0.34,9.79,0.75,14.73c0.05,0.63,0.08,1.23,0.11,1.79c0.11,2.06,0.21,4.01,1.28,5.88 c0.82,1.43,2.1,2.57,3.89,3.5l0.36,0.18l0.05,0.03c1.06,0.54,2.66,1.36,3.48,2.25c0.27,0.29,0.32,0.45,0.32,0.45c0,0,0,0,0,0 c-1.03,4.1-6.28,9.81-10.03,9.81c-0.68,0-1.29-0.19-1.88-0.59c-0.68-0.46-1.1-1.69-1.56-2.99c-0.23-0.65-0.46-1.33-0.76-2 l-0.05-0.11c-0.09-0.2-0.18-0.41-0.28-0.6c-0.88-1.71-2.32-2.92-4.27-3.6c-1.69-0.59-3.48-0.67-5.06-0.75 c-0.76-0.04-1.47-0.07-2.05-0.16c-4.66-0.69-9.21-1.17-13.04-1.56c-1.76-0.17-4.42-0.36-8.37-0.57c-0.06,0-0.11,0-0.16,0 c-1.15,0-2.21,0.66-2.71,1.71c-0.74,1.56-1.46,2.93-2.04,3.99c-2.06-1.12-5.18-3.03-8.23-5.69c-0.51-0.45-1.15-0.71-1.83-0.74 c-4.63-0.22-9.34-0.47-12.37-0.7c-0.08-0.01-0.16-0.01-0.23-0.01c-0.76,0-1.5,0.29-2.05,0.81c-3.76,3.53-7.58,5.59-10.13,6.7 c-0.24-1.97-0.42-4.76-0.18-8.12c0.08-1.17-0.53-2.29-1.56-2.85c-1.72-0.93-3.04-1.98-3.91-3.12c-0.64-0.83-1.15-1.87-1.51-3.09 c-0.36-1.22-1.45-2.07-2.71-2.14c-4.61-0.25-8.35-1.51-10.71-2.54c2.16-2.73,6.33-7.09,12.88-10.31c0.95-0.47,1.58-1.4,1.67-2.45 c0.09-1.05-0.39-2.07-1.25-2.69c-6.34-4.52-10.25-11.69-12.04-15.63c1.19-0.33,2.69-0.7,4.4-1c0.8-0.14,1.51-0.6,1.96-1.27 c0.46-0.67,0.62-1.5,0.46-2.29c-0.35-1.7-0.57-3.22-0.71-4.45c1.33,0.08,3.01,0.24,4.89,0.57c0.17,0.03,0.34,0.04,0.51,0.04 c0.66,0,1.31-0.22,1.84-0.63c0.66-0.51,1.08-1.28,1.15-2.12c0.18-2.18,0.49-4.1,0.79-5.57c1.42,0.59,3.24,1.43,5.2,2.55 c0.47,0.27,0.98,0.4,1.49,0.4c0.76,0,1.51-0.29,2.08-0.84c0.96-0.92,1.2-2.37,0.58-3.55c-3.47-6.68-4.63-13.97-5.02-17.98 c1.45,0.09,3.36,0.27,5.5,0.63c0.17,0.03,0.33,0.04,0.5,0.04c0.64,0,1.28-0.21,1.8-0.6c0.66-0.49,1.08-1.23,1.18-2.05 c0.25-2.15,0.6-4.03,0.91-5.46c1.47,0.61,3.38,1.48,5.48,2.65c0.45,0.25,0.96,0.38,1.46,0.38c0.33,0,0.65-0.05,0.97-0.16 c0.8-0.27,1.45-0.88,1.79-1.66c1.06-2.47,2.17-4.55,3.05-6.06c2.33,2.04,5.91,5.55,8.94,10.12c0.56,0.84,1.5,1.34,2.5,1.34 c0.11,0,0.23-0.01,0.35-0.02c1.12-0.13,2.08-0.88,2.47-1.94c0-0.01,0.01-0.02,0.01-0.02c1.08-2.78,3.62-4.58,6.49-4.57 c0.86,0,1.72,0.17,2.53,0.5c0.36,0.15,0.75,0.22,1.13,0.22c0.41,0,0.81-0.08,1.2-0.25c0.74-0.32,1.32-0.93,1.61-1.68 C80.56,13.62,83.11,11.81,85.99,11.81 M51.55,8.27c0,0-2.65,3.68-5.08,9.33c-5.01-2.8-9.02-4-9.02-4s-1.18,3.69-1.81,9.08 c-3.93-0.67-7.08-0.75-8.45-0.75c-0.48,0-0.75,0.01-0.75,0.01s0.03,11.81,5.55,22.43c-4.83-2.76-8.82-3.92-8.82-3.92 s-1.19,3.86-1.65,9.29c-3.45-0.59-6.27-0.68-7.68-0.68c-0.62,0-0.96,0.02-0.96,0.02s0.04,3.43,1.01,8.11 c-4.69,0.82-7.88,2.1-7.88,2.1s4.3,12.8,14.29,19.93C9.15,84.7,4.33,93.32,4.33,93.32s5.94,3.94,14.96,4.44 c0.45,1.53,1.11,2.9,2.01,4.06c1.16,1.5,2.82,2.82,4.86,3.92c-0.52,7.4,0.85,12.35,0.85,12.35s7.33-1.79,14.51-8.54 c2.97,0.23,7.52,0.47,12.46,0.71c5.63,4.93,11.4,7.38,11.4,7.38s1.67-2.71,3.55-6.65c3.42,0.19,6.35,0.38,8.24,0.56 c4.33,0.43,8.58,0.9,12.9,1.54c1.98,0.29,4.55,0.07,6.56,0.77c1.08,0.37,2.01,1.01,2.59,2.14c0.09,0.17,0.16,0.36,0.24,0.54 c0.95,2.16,1.35,4.87,3.37,6.25c1.14,0.78,2.35,1.12,3.58,1.12c5.66,0,11.73-7.25,12.94-12.08c0.31-1.25-0.19-2.33-1.05-3.24 c-1.17-1.25-2.99-2.19-4.3-2.86c-0.14-0.07-0.27-0.14-0.4-0.2c-1.36-0.7-2.17-1.46-2.67-2.33c-0.94-1.63-0.77-3.65-1-6.41 c-0.56-6.71-0.67-13.39-0.95-20.1c-0.13-3.24-0.02-10.01,0.12-16.77c8.96-2.87,15.04-8.32,15.04-8.32s-6.85-5.96-14.72-9.51 c-0.19-1.75-0.51-3.37-0.95-4.84c6.03-9.16,7.1-19.18,7.1-19.18s-11.47,0.55-20.21,4.63c1.86-5.25-0.65-11.1-5.71-13.16 c-1.2-0.49-2.44-0.72-3.66-0.72c-3.99,0-7.75,2.48-9.31,6.54c-1.2-0.49-2.44-0.72-3.66-0.72c-3.99,0-7.75,2.48-9.31,6.54 c0,0,0,0.01,0,0.01C58.38,13.13,51.55,8.27,51.55,8.27L51.55,8.27z M115.58,18.06L115.58,18.06L115.58,18.06z" style="fill:#424242;"/>
    </g>
    <g>
      <radialGradient id="SVGID_11_" cx="85.9061" cy="62.1954" gradientTransform="matrix(1.0056 0 0 1.0389 -0.0242 -4.7503)" gradientUnits="userSpaceOnUse" r="19.206">
        <stop offset="0" style="stop-color:#FFFC1F"/>
        <stop offset="1" style="stop-color:#FCC21B"/>
      </radialGradient>
      <path d="M100.67,65.42c2.8-0.21,5.01-2.61,5.01-5.55c0-2.94-2.21-5.35-5.01-5.55l-0.39-0.4v-0.57 c1.84-2.19,1.75-5.5-0.26-7.58c-2.01-2.08-5.22-2.17-7.34-0.27h-0.55l-0.39-0.4c-0.2-2.89-2.53-5.17-5.38-5.17 c-2.85,0-5.18,2.28-5.38,5.17l-0.39,0.4h-0.55c-2.12-1.9-5.33-1.81-7.34,0.27c-2.01,2.08-2.1,5.39-0.26,7.58v0.57l-0.39,0.4 c-2.8,0.21-5.01,2.61-5.01,5.55c0,2.94,2.21,5.35,5.01,5.55l0.39,0.4v0.57c-1.84,2.19-1.75,5.5,0.26,7.58 c2.01,2.08,5.22,2.17,7.34,0.27h0.55l0.39,0.4c0.2,2.89,2.53,5.17,5.38,5.17c2.85,0,5.18-2.28,5.38-5.17l0.39-0.4h0.55 c2.12,1.9,5.33,1.81,7.34-0.27s2.1-5.39,0.26-7.58v-0.57L100.67,65.42z" style="fill:url(#SVGID_11_);"/>
      <ellipse cx="86.36" cy="59.86" rx="4.52" ry="4.67" style="fill:#FFFDE7;"/>
    </g>
  </g>
  <g id="Layer_2" style="display:none;">
    <g style="display:inline;">
      <g style="opacity:0.6;">
        <circle cx="64" cy="64" r="28" style="opacity:0.61;fill:none;stroke:#000000;stroke-width:0.2625;stroke-miterlimit:10;"/>
        <line style="opacity:0.61;fill:none;stroke:#000000;stroke-width:0.25;stroke-miterlimit:10;" x1="84" x2="84" y1="0" y2="128"/>
        <line style="opacity:0.61;fill:none;stroke:#000000;stroke-width:0.25;stroke-miterlimit:10;" x1="44" x2="44" y1="0" y2="128"/>
        <line style="opacity:0.61;fill:none;stroke:#000000;stroke-width:0.25;stroke-miterlimit:10;" x1="64" x2="64" y1="0" y2="128"/>
        <line style="opacity:0.61;fill:none;stroke:#000000;stroke-width:0.25;stroke-miterlimit:10;" x1="128" x2="0" y1="64" y2="64"/>
        <line style="opacity:0.61;fill:none;stroke:#000000;stroke-width:0.25;stroke-miterlimit:10;" x1="128" x2="0" y1="44" y2="44"/>
        <line style="opacity:0.61;fill:none;stroke:#000000;stroke-width:0.25;stroke-miterlimit:10;" x1="128" x2="0" y1="83.75" y2="83.75"/>
        <line style="opacity:0.61;fill:none;stroke:#000000;stroke-width:0.25;stroke-miterlimit:10;" x1="128" x2="0" y1="128" y2="0"/>
        <line style="opacity:0.61;fill:none;stroke:#000000;stroke-width:0.25;stroke-miterlimit:10;" x1="0" x2="128" y1="128" y2="0"/>
        <g style="opacity:0.61;">
          <path d="M64,4.26c32.94,0,59.74,26.8,59.74,59.74S96.94,123.74,64,123.74S4.26,96.94,4.26,64S31.06,4.26,64,4.26 M64,4 C30.86,4,4,30.86,4,64s26.86,60,60,60s60-26.86,60-60S97.14,4,64,4L64,4z"/>
        </g>
        <path d="M107.97,115.97H20.03 c-4.42,0-8.03-3.61-8.03-8.03V20.03c0-4.42,3.61-8.03,8.03-8.03h87.94c4.42,0,8.03,3.61,8.03,8.03v87.91 C116,112.36,112.39,115.97,107.97,115.97z" style="opacity:0.61;fill:none;stroke:#000000;stroke-width:0.2578;stroke-miterlimit:10;"/>
        <path d="M100,124H28c-4.4,0-8-3.6-8-8 V12c0-4.4,3.6-8,8-8h72c4.4,0,8,3.6,8,8v104C108,120.4,104.4,124,100,124z" style="opacity:0.61;fill:none;stroke:#000000;stroke-width:0.2628;stroke-miterlimit:10;"/>
        <path d="M113.77,108H14.23 C8.6,108,4,103.4,4,97.77V30.28c0-5.63,4.6-10.23,10.23-10.23h99.54c5.63,0,10.23,4.6,10.23,10.23v67.48 C124,103.4,119.4,108,113.77,108z" style="opacity:0.61;fill:none;stroke:#000000;stroke-width:0.2627;stroke-miterlimit:10;"/>
      </g>
      <g>
        <g style="opacity:0.2;">
          <defs>
            <rect id="SVGID_2_" height="128" style="opacity:0.2;" width="128" x="0" y="0"/>
          </defs>
          <clipPath id="SVGID_12_">
            <use style="overflow:visible;" xlink:href="#SVGID_2_"/>
          </clipPath>
          <g style="clip-path:url(#SVGID_12_);">
            <g>
              <line style="fill:none;stroke:#000000;stroke-width:0.25;stroke-miterlimit:10;" x1="-28" x2="-28" y1="160" y2="-32"/>
              <line style="fill:none;stroke:#000000;stroke-width:0.25;stroke-miterlimit:10;" x1="-24" x2="-24" y1="160" y2="-32"/>
              <line style="fill:none;stroke:#000000;stroke-width:0.25;stroke-miterlimit:10;" x1="-20" x2="-20" y1="160" y2="-32"/>
              <line style="fill:none;stroke:#000000;stroke-width:0.25;stroke-miterlimit:10;" x1="-16" x2="-16" y1="160" y2="-32"/>
              <line style="fill:none;stroke:#000000;stroke-width:0.25;stroke-miterlimit:10;" x1="-12" x2="-12" y1="160" y2="-32"/>
              <line style="fill:none;stroke:#000000;stroke-width:0.25;stroke-miterlimit:10;" x1="-8" x2="-8" y1="160" y2="-32"/>
              <line style="fill:none;stroke:#000000;stroke-width:0.25;stroke-miterlimit:10;" x1="-4" x2="-4" y1="160" y2="-32"/>
              <line style="fill:none;stroke:#000000;stroke-width:0.25;stroke-miterlimit:10;" x1="0" x2="0" y1="160" y2="-32"/>
              <line style="fill:none;stroke:#000000;stroke-width:0.25;stroke-miterlimit:10;" x1="4" x2="4" y1="160" y2="-32"/>
              <line style="fill:none;stroke:#000000;stroke-width:0.25;stroke-miterlimit:10;" x1="8" x2="8" y1="160" y2="-32"/>
              <line style="fill:none;stroke:#000000;stroke-width:0.25;stroke-miterlimit:10;" x1="12" x2="12" y1="160" y2="-32"/>
              <line style="fill:none;stroke:#000000;stroke-width:0.25;stroke-miterlimit:10;" x1="16" x2="16" y1="160" y2="-32"/>
              <line style="fill:none;stroke:#000000;stroke-width:0.25;stroke-miterlimit:10;" x1="20" x2="20" y1="160" y2="-32"/>
              <line style="fill:none;stroke:#000000;stroke-width:0.25;stroke-miterlimit:10;" x1="24" x2="24" y1="160" y2="-32"/>
              <line style="fill:none;stroke:#000000;stroke-width:0.25;stroke-miterlimit:10;" x1="28" x2="28" y1="160" y2="-32"/>
              <line style="fill:none;stroke:#000000;stroke-width:0.25;stroke-miterlimit:10;" x1="32" x2="32" y1="160" y2="-32"/>
              <line style="fill:none;stroke:#000000;stroke-width:0.25;stroke-miterlimit:10;" x1="36" x2="36" y1="160" y2="-32"/>
              <line style="fill:none;stroke:#000000;stroke-width:0.25;stroke-miterlimit:10;" x1="40" x2="40" y1="160" y2="-32"/>
              <line style="fill:none;stroke:#000000;stroke-width:0.25;stroke-miterlimit:10;" x1="44" x2="44" y1="160" y2="-32"/>
              <line style="fill:none;stroke:#000000;stroke-width:0.25;stroke-miterlimit:10;" x1="48" x2="48" y1="160" y2="-32"/>
              <line style="fill:none;stroke:#000000;stroke-width:0.25;stroke-miterlimit:10;" x1="52" x2="52" y1="160" y2="-32"/>
              <line style="fill:none;stroke:#000000;stroke-width:0.25;stroke-miterlimit:10;" x1="56" x2="56" y1="160" y2="-32"/>
              <line style="fill:none;stroke:#000000;stroke-width:0.25;stroke-miterlimit:10;" x1="60" x2="60" y1="160" y2="-32"/>
              <line style="fill:none;stroke:#000000;stroke-width:0.25;stroke-miterlimit:10;" x1="64" x2="64" y1="160" y2="-32"/>
              <line style="fill:none;stroke:#000000;stroke-width:0.25;stroke-miterlimit:10;" x1="68" x2="68" y1="160" y2="-32"/>
              <line style="fill:none;stroke:#000000;stroke-width:0.25;stroke-miterlimit:10;" x1="72" x2="72" y1="160" y2="-32"/>
              <line style="fill:none;stroke:#000000;stroke-width:0.25;stroke-miterlimit:10;" x1="76" x2="76" y1="160" y2="-32"/>
              <line style="fill:none;stroke:#000000;stroke-width:0.25;stroke-miterlimit:10;" x1="80" x2="80" y1="160" y2="-32"/>
              <line style="fill:none;stroke:#000000;stroke-width:0.25;stroke-miterlimit:10;" x1="84" x2="84" y1="160" y2="-32"/>
              <line style="fill:none;stroke:#000000;stroke-width:0.25;stroke-miterlimit:10;" x1="88" x2="88" y1="160" y2="-32"/>
              <line style="fill:none;stroke:#000000;stroke-width:0.25;stroke-miterlimit:10;" x1="92" x2="92" y1="160" y2="-32"/>
              <line style="fill:none;stroke:#000000;stroke-width:0.25;stroke-miterlimit:10;" x1="96" x2="96" y1="160" y2="-32"/>
              <line style="fill:none;stroke:#000000;stroke-width:0.25;stroke-miterlimit:10;" x1="100" x2="100" y1="160" y2="-32"/>
              <line style="fill:none;stroke:#000000;stroke-width:0.25;stroke-miterlimit:10;" x1="104" x2="104" y1="160" y2="-32"/>
              <line style="fill:none;stroke:#000000;stroke-width:0.25;stroke-miterlimit:10;" x1="108" x2="108" y1="160" y2="-32"/>
              <line style="fill:none;stroke:#000000;stroke-width:0.25;stroke-miterlimit:10;" x1="112" x2="112" y1="160" y2="-32"/>
              <line style="fill:none;stroke:#000000;stroke-width:0.25;stroke-miterlimit:10;" x1="116" x2="116" y1="160" y2="-32"/>
              <line style="fill:none;stroke:#000000;stroke-width:0.25;stroke-miterlimit:10;" x1="120" x2="120" y1="160" y2="-32"/>
              <line style="fill:none;stroke:#000000;stroke-width:0.25;stroke-miterlimit:10;" x1="124" x2="124" y1="160" y2="-32"/>
              <line style="fill:none;stroke:#000000;stroke-width:0.25;stroke-miterlimit:10;" x1="128" x2="128" y1="160" y2="-32"/>
              <line style="fill:none;stroke:#000000;stroke-width:0.25;stroke-miterlimit:10;" x1="132" x2="132" y1="160" y2="-32"/>
              <line style="fill:none;stroke:#000000;stroke-width:0.25;stroke-miterlimit:10;" x1="136" x2="136" y1="160" y2="-32"/>
              <line style="fill:none;stroke:#000000;stroke-width:0.25;stroke-miterlimit:10;" x1="137" x2="137" y1="166.05" y2="-25.95"/>
              <line style="fill:none;stroke:#000000;stroke-width:0.25;stroke-miterlimit:10;" x1="144" x2="144" y1="160" y2="-32"/>
              <line style="fill:none;stroke:#000000;stroke-width:0.25;stroke-miterlimit:10;" x1="148" x2="148" y1="160" y2="-32"/>
              <line style="fill:none;stroke:#000000;stroke-width:0.25;stroke-miterlimit:10;" x1="152" x2="152" y1="160" y2="-32"/>
              <line style="fill:none;stroke:#000000;stroke-width:0.25;stroke-miterlimit:10;" x1="156" x2="156" y1="160" y2="-32"/>
            </g>
            <g>
              <line style="fill:none;stroke:#000000;stroke-width:0.25;stroke-miterlimit:10;" x1="-32" x2="160" y1="-28" y2="-28"/>
              <line style="fill:none;stroke:#000000;stroke-width:0.25;stroke-miterlimit:10;" x1="-32" x2="160" y1="-24" y2="-24"/>
              <line style="fill:none;stroke:#000000;stroke-width:0.25;stroke-miterlimit:10;" x1="-32" x2="160" y1="-20" y2="-20"/>
              <line style="fill:none;stroke:#000000;stroke-width:0.25;stroke-miterlimit:10;" x1="-32" x2="160" y1="-16" y2="-16"/>
              <line style="fill:none;stroke:#000000;stroke-width:0.25;stroke-miterlimit:10;" x1="-32" x2="160" y1="-12" y2="-12"/>
              <line style="fill:none;stroke:#000000;stroke-width:0.25;stroke-miterlimit:10;" x1="-32" x2="160" y1="-8" y2="-8"/>
              <line style="fill:none;stroke:#000000;stroke-width:0.25;stroke-miterlimit:10;" x1="-32" x2="160" y1="-4" y2="-4"/>
              <line style="fill:none;stroke:#000000;stroke-width:0.25;stroke-miterlimit:10;" x1="-32" x2="160" y1="0" y2="0"/>
              <line style="fill:none;stroke:#000000;stroke-width:0.25;stroke-miterlimit:10;" x1="-32" x2="160" y1="4" y2="4"/>
              <line style="fill:none;stroke:#000000;stroke-width:0.25;stroke-miterlimit:10;" x1="-32" x2="160" y1="8" y2="8"/>
              <line style="fill:none;stroke:#000000;stroke-width:0.25;stroke-miterlimit:10;" x1="-32" x2="160" y1="12" y2="12"/>
              <line style="fill:none;stroke:#000000;stroke-width:0.25;stroke-miterlimit:10;" x1="-32" x2="160" y1="16" y2="16"/>
              <line style="fill:none;stroke:#000000;stroke-width:0.25;stroke-miterlimit:10;" x1="-32" x2="160" y1="20" y2="20"/>
              <line style="fill:none;stroke:#000000;stroke-width:0.25;stroke-miterlimit:10;" x1="-32" x2="160" y1="24" y2="24"/>
              <line style="fill:none;stroke:#000000;stroke-width:0.25;stroke-miterlimit:10;" x1="-32" x2="160" y1="28" y2="28"/>
              <line style="fill:none;stroke:#000000;stroke-width:0.25;stroke-miterlimit:10;" x1="-32" x2="160" y1="32" y2="32"/>
              <line style="fill:none;stroke:#000000;stroke-width:0.25;stroke-miterlimit:10;" x1="-32" x2="160" y1="36" y2="36"/>
              <line style="fill:none;stroke:#000000;stroke-width:0.25;stroke-miterlimit:10;" x1="-32" x2="160" y1="40" y2="40"/>
              <line style="fill:none;stroke:#000000;stroke-width:0.25;stroke-miterlimit:10;" x1="-32" x2="160" y1="44" y2="44"/>
              <line style="fill:none;stroke:#000000;stroke-width:0.25;stroke-miterlimit:10;" x1="-32" x2="160" y1="48" y2="48"/>
              <line style="fill:none;stroke:#000000;stroke-width:0.25;stroke-miterlimit:10;" x1="-32" x2="160" y1="52" y2="52"/>
              <line style="fill:none;stroke:#000000;stroke-width:0.25;stroke-miterlimit:10;" x1="-32" x2="160" y1="56" y2="56"/>
              <line style="fill:none;stroke:#000000;stroke-width:0.25;stroke-miterlimit:10;" x1="-32" x2="160" y1="60" y2="60"/>
              <line style="fill:none;stroke:#000000;stroke-width:0.25;stroke-miterlimit:10;" x1="-32" x2="160" y1="64" y2="64"/>
              <line style="fill:none;stroke:#000000;stroke-width:0.25;stroke-miterlimit:10;" x1="-32" x2="160" y1="68" y2="68"/>
              <line style="fill:none;stroke:#000000;stroke-width:0.25;stroke-miterlimit:10;" x1="-32" x2="160" y1="72" y2="72"/>
              <line style="fill:none;stroke:#000000;stroke-width:0.25;stroke-miterlimit:10;" x1="-32" x2="160" y1="76" y2="76"/>
              <line style="fill:none;stroke:#000000;stroke-width:0.25;stroke-miterlimit:10;" x1="-32" x2="160" y1="80" y2="80"/>
              <line style="fill:none;stroke:#000000;stroke-width:0.25;stroke-miterlimit:10;" x1="-32" x2="160" y1="84" y2="84"/>
              <line style="fill:none;stroke:#000000;stroke-width:0.25;stroke-miterlimit:10;" x1="-32" x2="160" y1="88" y2="88"/>
              <line style="fill:none;stroke:#000000;stroke-width:0.25;stroke-miterlimit:10;" x1="-32" x2="160" y1="92" y2="92"/>
              <line style="fill:none;stroke:#000000;stroke-width:0.25;stroke-miterlimit:10;" x1="-32" x2="160" y1="96" y2="96"/>
              <line style="fill:none;stroke:#000000;stroke-width:0.25;stroke-miterlimit:10;" x1="-32" x2="160" y1="100" y2="100"/>
              <line style="fill:none;stroke:#000000;stroke-width:0.25;stroke-miterlimit:10;" x1="-32" x2="160" y1="104" y2="104"/>
              <line style="fill:none;stroke:#000000;stroke-width:0.25;stroke-miterlimit:10;" x1="-32" x2="160" y1="108" y2="108"/>
              <line style="fill:none;stroke:#000000;stroke-width:0.25;stroke-miterlimit:10;" x1="-32" x2="160" y1="112" y2="112"/>
              <line style="fill:none;stroke:#000000;stroke-width:0.25;stroke-miterlimit:10;" x1="-32" x2="160" y1="116" y2="116"/>
              <line style="fill:none;stroke:#000000;stroke-width:0.25;stroke-miterlimit:10;" x1="-32" x2="160" y1="120" y2="120"/>
              <line style="fill:none;stroke:#000000;stroke-width:0.25;stroke-miterlimit:10;" x1="-32" x2="160" y1="124" y2="124"/>
              <line style="fill:none;stroke:#000000;stroke-width:0.25;stroke-miterlimit:10;" x1="-32" x2="160" y1="128" y2="128"/>
              <line style="fill:none;stroke:#000000;stroke-width:0.25;stroke-miterlimit:10;" x1="-32" x2="160" y1="132" y2="132"/>
              <line style="fill:none;stroke:#000000;stroke-width:0.25;stroke-miterlimit:10;" x1="-32" x2="160" y1="136" y2="136"/>
              <line style="fill:none;stroke:#000000;stroke-width:0.25;stroke-miterlimit:10;" x1="-32" x2="160" y1="140" y2="140"/>
              <line style="fill:none;stroke:#000000;stroke-width:0.25;stroke-miterlimit:10;" x1="-32" x2="160" y1="144" y2="144"/>
              <line style="fill:none;stroke:#000000;stroke-width:0.25;stroke-miterlimit:10;" x1="-32" x2="160" y1="148" y2="148"/>
              <line style="fill:none;stroke:#000000;stroke-width:0.25;stroke-miterlimit:10;" x1="-32" x2="160" y1="152" y2="152"/>
              <line style="fill:none;stroke:#000000;stroke-width:0.25;stroke-miterlimit:10;" x1="-32" x2="160" y1="156" y2="156"/>
            </g>
            <path d="M159.75-31.75v191.5h-191.5v-191.5H159.75 M160-32H-32v192h192V-32L160-32z"/>
          </g>
        </g>
        <g>
          <rect height="128" style="opacity:0.3;fill:#F44336;" width="4" x="0" y="0"/>
          <rect height="128" style="opacity:0.3;fill:#F44336;" width="4" x="124" y="0"/>
          <rect height="120" style="opacity:0.3;fill:#F44336;" transform="matrix(-1.836970e-16 1 -1 -1.836970e-16 66 -62)" width="4" x="62" y="-58"/>
          <rect height="120" style="opacity:0.3;fill:#F44336;" transform="matrix(-1.836970e-16 1 -1 -1.836970e-16 190 62)" width="4" x="62" y="66"/>
        </g>
      </g>
    </g>
  </g>
</svg>