<svg width="128" height="128" style="enable-background:new 0 0 128 128;" xmlns="http://www.w3.org/2000/svg" xmlns:xlink="http://www.w3.org/1999/xlink">
  <symbol id="Grid" viewBox="-64.5 -64.5 129 129">
    <g id="XMLID_102_">
      <rect id="XMLID_110_" height="128" style="fill:none;stroke:#4285F4;stroke-miterlimit:10;" width="128" x="-64" y="-64"/>
      <path id="XMLID_109_" d="M36.95,37.82C27.32,46.32,14.2,51,0,51 c-14.27,0-27.39-4.62-36.96-13.01C-47.45,28.79-53,15.65-53,0c0-15.58,5.55-28.69,16.04-37.92C-27.36-46.35-14.24-51,0-51 c14.17,0,27.29,4.71,36.95,13.25C47.45-28.45,53-15.4,53,0C53,15.47,47.45,28.55,36.95,37.82z" style="fill:none;stroke:#4285F4;stroke-miterlimit:10;"/>
      <path id="XMLID_108_" d="M0,55L0,55L0,55c-29.59,0-57-19.01-57-55 c0-35.8,27.41-55,57-55h0h0c29.59,0,57,19.69,57,55C57,35.51,29.59,55,0,55z" style="fill:none;stroke:#4285F4;stroke-miterlimit:10;"/>
      <path id="XMLID_107_" d="M0-43c-12.29,0-23.54,3.94-31.68,11.09 C-40.39-24.25-45-13.21-45,0c0,29.7,22.6,43,45,43c21.67,0,45-13.46,45-43S21.67-43,0-43L0-43z" style="fill:none;stroke:#4285F4;stroke-miterlimit:10;"/>
      <line id="XMLID_106_" style="fill:none;stroke:#4285F4;stroke-miterlimit:10;" x1="-0.01" x2="-0.01" y1="51" y2="-51"/>
      <line id="XMLID_105_" style="fill:none;stroke:#4285F4;stroke-miterlimit:10;" x1="-16" x2="-16" y1="48.95" y2="-48.93"/>
      <line id="XMLID_104_" style="fill:none;stroke:#4285F4;stroke-miterlimit:10;" x1="15.99" x2="15.99" y1="48.91" y2="-48.93"/>
      <line id="XMLID_103_" style="fill:none;stroke:#4285F4;stroke-miterlimit:10;" x1="53" x2="-53" y1="0.08" y2="0.08"/>
    </g>
  </symbol>
  <g id="Layer_1">
    <g>
      <linearGradient id="SVGID_1_" gradientUnits="userSpaceOnUse" x1="63.9961" x2="63.9961" y1="19.838" y2="107.5823">
        <stop offset="0" style="stop-color:#E04C74"/>
        <stop offset="0.2218" style="stop-color:#EA7C60"/>
        <stop offset="0.441" style="stop-color:#F3A550"/>
        <stop offset="0.6137" style="stop-color:#F8BE46"/>
        <stop offset="0.7183" style="stop-color:#FAC742"/>
      </linearGradient>
      <path d="M64,119.74C36.14,119.74,6.16,102.3,6.16,64C6.16,25.7,36.14,8.26,64,8.26 c15.44,0,29.73,5.11,40.25,14.39c11.51,10.16,17.59,24.46,17.59,41.35c0,16.82-6.08,31.09-17.59,41.27 C93.7,114.6,79.41,119.74,64,119.74z" style="fill:url(#SVGID_1_);"/>
      <path d="M64,10.26L64,10.26c14.95,0,28.77,4.93,38.92,13.89c11.07,9.77,16.92,23.55,16.92,39.85 c0,16.23-5.85,29.98-16.92,39.78c-10.18,9.01-24,13.96-38.92,13.96c-15,0-28.82-4.89-38.93-13.78C14,94.23,8.16,80.42,8.16,64 c0-16.49,5.85-30.34,16.91-40.03C35.14,15.13,48.97,10.26,64,10.26 M64,6.26L64,6.26L64,6.26L64,6.26 C32.93,6.26,4.16,26.21,4.16,64c0,37.58,28.77,57.74,59.84,57.74h0h0h0c31.07,0,59.84-20.67,59.84-57.74 C123.84,26.73,95.06,6.26,64,6.26L64,6.26z" style="fill:#CC2362;"/>
    </g>
    <radialGradient id="SVGID_3_" cx="36.25" cy="70.5622" gradientTransform="matrix(1 0 0 0.7307 0 20.9352)" gradientUnits="userSpaceOnUse" r="21.6667">
      <stop offset="0" style="stop-color:#ED7770"/>
      <stop offset="0.9" style="stop-color:#ED7770;stop-opacity:0"/>
    </radialGradient>
    <ellipse cx="36.25" cy="72.5" rx="19.92" ry="15.27" style="fill:url(#SVGID_3_);"/>
    <radialGradient id="SVGID_4_" cx="91.75" cy="70.5622" gradientTransform="matrix(1 0 0 0.7307 0 20.9352)" gradientUnits="userSpaceOnUse" r="21.6667">
      <stop offset="0" style="stop-color:#ED7770"/>
      <stop offset="0.9" style="stop-color:#ED7770;stop-opacity:0"/>
    </radialGradient>
    <ellipse cx="91.75" cy="72.5" rx="19.92" ry="15.27" style="fill:url(#SVGID_4_);"/>
    <path d="M30.64,91.24c9.33-5.42,20.87-8.63,33.35-8.63c12.49,0,24.02,3.21,33.35,8.63 c1.71,1,3.52-1.15,2.23-2.66C91.13,78.7,78.33,72.4,64,72.4c-14.34,0-27.14,6.3-35.59,16.18C27.12,90.09,28.93,92.23,30.64,91.24z" style="fill:#242424;"/>
    <g>
      <path d="M45.43,35.04c0.35-1.12,1.35-1.86,2.53-1.88 c3.27-0.14,6.51-1.74,8.65-4.29c0.86-1.07,2.29-1.37,3.44-0.75c1.1,0.59,1.59,1.8,1.2,3.01c-0.05,0.15-0.11,0.31-0.2,0.48 c-0.71,1.3-1.62,2.44-2.73,3.42c-2.94,2.64-6.97,3.89-10.77,3.33c-0.84-0.14-1.51-0.57-1.9-1.21 C45.29,36.53,45.2,35.76,45.43,35.04z" style="fill:#6D4C41;stroke:#6D4C41;stroke-miterlimit:10;"/>
      <path d="M82.58,35.04c-0.35-1.12-1.35-1.86-2.53-1.88 c-3.27-0.14-6.51-1.74-8.65-4.29c-0.86-1.07-2.29-1.37-3.44-0.75c-1.1,0.59-1.59,1.8-1.2,3.01c0.05,0.15,0.11,0.31,0.2,0.48 c0.71,1.3,1.62,2.44,2.73,3.42c2.94,2.64,6.97,3.89,10.77,3.33c0.84-0.14,1.51-0.57,1.9-1.21C82.72,36.53,82.81,35.76,82.58,35.04 z" style="fill:#6D4C41;stroke:#6D4C41;stroke-miterlimit:10;"/>
    </g>
    <g>
      <defs>
        <path id="SVGID_5_" d="M30.64,91.24c9.33-5.42,20.87-8.63,33.35-8.63c12.49,0,24.02,3.21,33.35,8.63c1.71,1,1.3-0.91,2.23-2.66 C107.83,73.19,128,64.67,128,43c0-12.65-53.41-10.63-62.56-10.63c-14.34,0-28.58,46.33-37.03,56.21 C27.12,90.09,28.93,92.23,30.64,91.24z"/>
      </defs>
      <clipPath id="SVGID_6_">
        <use style="overflow:visible;" xlink:href="#SVGID_5_"/>
      </clipPath>
      <g style="clip-path:url(#SVGID_6_);">
        <g>
          <path d="M78.7,93.86c-1.7,0-3.3-0.66-4.5-1.86c-1.2-1.2-1.86-2.79-1.86-4.5s0.66-3.3,1.86-4.5 l40.11-40.11c1.2-1.2,2.79-1.86,4.5-1.86s3.3,0.66,4.5,1.86c1.2,1.2,1.86,2.8,1.86,4.5s-0.66,3.3-1.86,4.5L83.19,92 C82,93.2,80.4,93.86,78.7,93.86z" style="fill:#E6E6E6;"/>
          <path d="M118.8,42.54c1.25,0,2.49,0.47,3.44,1.42l0,0c1.89,1.89,1.89,4.98,0,6.88L82.13,90.94 c-0.95,0.95-2.19,1.42-3.44,1.42c-1.25,0-2.49-0.47-3.44-1.42v0c-1.89-1.89-1.89-4.98,0-6.88l40.11-40.11 C116.31,43.01,117.56,42.54,118.8,42.54 M118.8,39.54c-2.1,0-4.08,0.82-5.56,2.3L73.14,81.94c-3.07,3.07-3.07,8.05,0,11.12 c1.48,1.48,3.46,2.3,5.56,2.3c2.1,0,4.08-0.82,5.56-2.3l40.11-40.11c1.48-1.48,2.3-3.46,2.3-5.56c0-2.1-0.82-4.08-2.3-5.56 C122.88,40.36,120.91,39.54,118.8,39.54L118.8,39.54z" style="fill:#404040;"/>
        </g>
        <line style="fill:none;stroke:#404040;stroke-width:1.7435;stroke-miterlimit:10;" x1="115.94" x2="119.25" y1="50.55" y2="53.86"/>
        <path d="M75.26,90.94L75.26,90.94c-1.89-1.89-1.89-4.98,0-6.88l28.97-28.97l6.83,6.92L82.13,90.94 C80.24,92.83,77.15,92.83,75.26,90.94z" style="fill:#ED1C24;"/>
        <line style="fill:none;stroke:#404040;stroke-width:1.7435;stroke-miterlimit:10;" x1="112.11" x2="114.1" y1="57.03" y2="59.02"/>
        <line style="fill:none;stroke:#404040;stroke-width:1.7435;stroke-miterlimit:10;" x1="102.37" x2="104.36" y1="66.77" y2="68.76"/>
        <line style="fill:none;stroke:#404040;stroke-width:1.7435;stroke-miterlimit:10;" x1="92.63" x2="94.62" y1="76.51" y2="78.5"/>
        <line style="fill:none;stroke:#404040;stroke-width:1.7435;stroke-miterlimit:10;" x1="106.2" x2="109.51" y1="60.29" y2="63.6"/>
        <line style="fill:none;stroke:#404040;stroke-width:1.7435;stroke-miterlimit:10;" x1="96.46" x2="99.77" y1="70.03" y2="73.34"/>
        <line style="fill:none;stroke:#404040;stroke-width:1.7435;stroke-miterlimit:10;" x1="86.72" x2="90.03" y1="79.77" y2="83.08"/>
        <path d="M75.26,90.94L75.26,90.94c-1.89-1.89-1.89-4.98,0-6.88l40.11-40.11c1.89-1.89,4.98-1.89,6.88,0l0,0 c1.89,1.89,1.89,4.98,0,6.88L82.13,90.94C80.24,92.83,77.15,92.83,75.26,90.94z" style="fill:none;"/>
      </g>
    </g>
    <g>
      <path d="M52.11,49.03c0,0-0.07,0.07-0.2,0.2c-0.11,0.11-0.36,0.39-0.51,0.5c-0.19,0.16-0.42,0.35-0.69,0.57 c-0.29,0.22-0.62,0.46-0.98,0.71c-0.37,0.23-0.77,0.47-1.2,0.68c-0.42,0.23-0.9,0.39-1.37,0.57c-0.48,0.17-0.99,0.26-1.5,0.37 c-0.51,0.08-1.04,0.12-1.57,0.12c0.3,0,0.08,0,0.14,0l-0.01,0l-0.02,0l-0.04,0l-0.08,0l-0.16,0l-0.31-0.01 c-0.26,0-0.3-0.02-0.4-0.03c-0.16,0-0.45-0.05-0.7-0.09c-0.51-0.11-1.02-0.2-1.5-0.37c-0.47-0.18-0.95-0.34-1.38-0.57 c-0.43-0.22-0.83-0.45-1.2-0.68c-0.72-0.48-1.31-0.96-1.7-1.32c-0.4-0.36-0.63-0.58-0.63-0.58l-0.25-0.25 c-1.21-1.17-3.25-1.24-4.57-0.17c-1.04,0.85-1.3,2.16-0.78,3.25c0,0,0.05,0.1,0.15,0.3c0.1,0.19,0.22,0.49,0.44,0.84 c0.41,0.71,1.09,1.71,2.17,2.76c0.54,0.52,1.17,1.07,1.91,1.57c0.73,0.52,1.58,0.99,2.52,1.4c0.94,0.4,1.96,0.75,3.04,0.97 c0.55,0.1,1.06,0.2,1.73,0.26c0.31,0.03,0.68,0.06,0.84,0.07l0.77,0.03c1.13-0.02,2.25-0.14,3.34-0.35 c1.08-0.22,2.1-0.57,3.04-0.97c0.93-0.41,1.79-0.88,2.52-1.4c0.75-0.5,1.37-1.04,1.92-1.57c0.54-0.52,0.97-1.04,1.33-1.51 c0.17-0.24,0.33-0.46,0.48-0.67c0.14-0.23,0.28-0.44,0.4-0.63c0.27-0.42,0.29-0.58,0.39-0.77c0.07-0.16,0.11-0.25,0.11-0.25 c0.67-1.49-0.14-3.18-1.81-3.78C54.47,47.77,53,48.13,52.11,49.03z" style="fill:#242424;"/>
      <path d="M92.01,49.03c0,0-0.07,0.07-0.2,0.2c-0.11,0.11-0.36,0.39-0.51,0.5c-0.19,0.16-0.42,0.35-0.69,0.57 c-0.29,0.22-0.62,0.46-0.98,0.71c-0.37,0.23-0.77,0.47-1.2,0.68c-0.42,0.23-0.9,0.39-1.38,0.57c-0.48,0.17-0.99,0.26-1.5,0.37 c-0.51,0.08-1.04,0.12-1.57,0.12c0.3,0,0.08,0,0.14,0l-0.01,0l-0.02,0l-0.04,0l-0.08,0l-0.16,0l-0.31-0.01 c-0.26,0-0.3-0.02-0.4-0.03c-0.16,0-0.45-0.05-0.7-0.09c-0.51-0.11-1.02-0.2-1.5-0.37c-0.47-0.18-0.95-0.34-1.37-0.57 c-0.43-0.22-0.83-0.45-1.2-0.68c-0.72-0.48-1.31-0.96-1.7-1.32c-0.4-0.36-0.63-0.58-0.63-0.58l-0.25-0.25 c-1.21-1.17-3.25-1.24-4.57-0.17c-1.04,0.85-1.3,2.16-0.78,3.25c0,0,0.05,0.1,0.15,0.3c0.1,0.19,0.22,0.49,0.44,0.84 c0.41,0.71,1.09,1.71,2.17,2.76c0.54,0.52,1.17,1.07,1.92,1.57c0.73,0.52,1.58,0.99,2.52,1.4c0.94,0.4,1.96,0.75,3.04,0.97 c0.55,0.1,1.06,0.2,1.73,0.26c0.31,0.03,0.68,0.06,0.84,0.07l0.77,0.03c1.13-0.02,2.25-0.14,3.34-0.35 c1.08-0.22,2.1-0.57,3.04-0.97c0.93-0.41,1.79-0.88,2.52-1.4c0.75-0.5,1.37-1.04,1.91-1.57c0.54-0.52,0.97-1.04,1.33-1.51 c0.17-0.24,0.33-0.46,0.48-0.67c0.14-0.23,0.28-0.44,0.39-0.63c0.27-0.42,0.29-0.58,0.39-0.77c0.07-0.16,0.11-0.25,0.11-0.25 c0.67-1.49-0.14-3.18-1.81-3.78C94.37,47.77,92.9,48.13,92.01,49.03z" style="fill:#242424;"/>
    </g>
  </g>
  <g id="Layer_2" style="display:none;">
    <g style="display:inline;">
      <g style="opacity:0.6;">
        <circle cx="64" cy="64" r="28" style="opacity:0.61;fill:none;stroke:#000000;stroke-width:0.2625;stroke-miterlimit:10;"/>
        <line style="opacity:0.61;fill:none;stroke:#000000;stroke-width:0.25;stroke-miterlimit:10;" x1="84" x2="84" y1="0" y2="128"/>
        <line style="opacity:0.61;fill:none;stroke:#000000;stroke-width:0.25;stroke-miterlimit:10;" x1="44" x2="44" y1="0" y2="128"/>
        <line style="opacity:0.61;fill:none;stroke:#000000;stroke-width:0.25;stroke-miterlimit:10;" x1="64" x2="64" y1="0" y2="128"/>
        <line style="opacity:0.61;fill:none;stroke:#000000;stroke-width:0.25;stroke-miterlimit:10;" x1="128" x2="0" y1="64" y2="64"/>
        <line style="opacity:0.61;fill:none;stroke:#000000;stroke-width:0.25;stroke-miterlimit:10;" x1="128" x2="0" y1="44" y2="44"/>
        <line style="opacity:0.61;fill:none;stroke:#000000;stroke-width:0.25;stroke-miterlimit:10;" x1="128" x2="0" y1="83.75" y2="83.75"/>
        <line style="opacity:0.61;fill:none;stroke:#000000;stroke-width:0.25;stroke-miterlimit:10;" x1="128" x2="0" y1="128" y2="0"/>
        <line style="opacity:0.61;fill:none;stroke:#000000;stroke-width:0.25;stroke-miterlimit:10;" x1="0" x2="128" y1="128" y2="0"/>
        <g style="opacity:0.61;">
          <path d="M64,4.26c32.94,0,59.74,26.8,59.74,59.74S96.94,123.74,64,123.74S4.26,96.94,4.26,64S31.06,4.26,64,4.26 M64,4 C30.86,4,4,30.86,4,64s26.86,60,60,60s60-26.86,60-60S97.14,4,64,4L64,4z"/>
        </g>
        <path d="M107.97,115.97H20.03 c-4.42,0-8.03-3.61-8.03-8.03V20.03c0-4.42,3.61-8.03,8.03-8.03h87.94c4.42,0,8.03,3.61,8.03,8.03v87.91 C116,112.36,112.39,115.97,107.97,115.97z" style="opacity:0.61;fill:none;stroke:#000000;stroke-width:0.2578;stroke-miterlimit:10;"/>
        <path d="M100,124H28c-4.4,0-8-3.6-8-8 V12c0-4.4,3.6-8,8-8h72c4.4,0,8,3.6,8,8v104C108,120.4,104.4,124,100,124z" style="opacity:0.61;fill:none;stroke:#000000;stroke-width:0.2628;stroke-miterlimit:10;"/>
        <path d="M113.77,108H14.23 C8.6,108,4,103.4,4,97.77V30.28c0-5.63,4.6-10.23,10.23-10.23h99.54c5.63,0,10.23,4.6,10.23,10.23v67.48 C124,103.4,119.4,108,113.77,108z" style="opacity:0.61;fill:none;stroke:#000000;stroke-width:0.2627;stroke-miterlimit:10;"/>
      </g>
      <g>
        <g style="opacity:0.2;">
          <defs>
            <rect id="SVGID_2_" height="128" style="opacity:0.2;" width="128" x="0" y="0"/>
          </defs>
          <clipPath id="SVGID_7_">
            <use style="overflow:visible;" xlink:href="#SVGID_2_"/>
          </clipPath>
          <g style="clip-path:url(#SVGID_7_);">
            <g>
              <line style="fill:none;stroke:#000000;stroke-width:0.25;stroke-miterlimit:10;" x1="-28" x2="-28" y1="160" y2="-32"/>
              <line style="fill:none;stroke:#000000;stroke-width:0.25;stroke-miterlimit:10;" x1="-24" x2="-24" y1="160" y2="-32"/>
              <line style="fill:none;stroke:#000000;stroke-width:0.25;stroke-miterlimit:10;" x1="-20" x2="-20" y1="160" y2="-32"/>
              <line style="fill:none;stroke:#000000;stroke-width:0.25;stroke-miterlimit:10;" x1="-16" x2="-16" y1="160" y2="-32"/>
              <line style="fill:none;stroke:#000000;stroke-width:0.25;stroke-miterlimit:10;" x1="-12" x2="-12" y1="160" y2="-32"/>
              <line style="fill:none;stroke:#000000;stroke-width:0.25;stroke-miterlimit:10;" x1="-8" x2="-8" y1="160" y2="-32"/>
              <line style="fill:none;stroke:#000000;stroke-width:0.25;stroke-miterlimit:10;" x1="-4" x2="-4" y1="160" y2="-32"/>
              <line style="fill:none;stroke:#000000;stroke-width:0.25;stroke-miterlimit:10;" x1="0" x2="0" y1="160" y2="-32"/>
              <line style="fill:none;stroke:#000000;stroke-width:0.25;stroke-miterlimit:10;" x1="4" x2="4" y1="160" y2="-32"/>
              <line style="fill:none;stroke:#000000;stroke-width:0.25;stroke-miterlimit:10;" x1="8" x2="8" y1="160" y2="-32"/>
              <line style="fill:none;stroke:#000000;stroke-width:0.25;stroke-miterlimit:10;" x1="12" x2="12" y1="160" y2="-32"/>
              <line style="fill:none;stroke:#000000;stroke-width:0.25;stroke-miterlimit:10;" x1="16" x2="16" y1="160" y2="-32"/>
              <line style="fill:none;stroke:#000000;stroke-width:0.25;stroke-miterlimit:10;" x1="20" x2="20" y1="160" y2="-32"/>
              <line style="fill:none;stroke:#000000;stroke-width:0.25;stroke-miterlimit:10;" x1="24" x2="24" y1="160" y2="-32"/>
              <line style="fill:none;stroke:#000000;stroke-width:0.25;stroke-miterlimit:10;" x1="28" x2="28" y1="160" y2="-32"/>
              <line style="fill:none;stroke:#000000;stroke-width:0.25;stroke-miterlimit:10;" x1="32" x2="32" y1="160" y2="-32"/>
              <line style="fill:none;stroke:#000000;stroke-width:0.25;stroke-miterlimit:10;" x1="36" x2="36" y1="160" y2="-32"/>
              <line style="fill:none;stroke:#000000;stroke-width:0.25;stroke-miterlimit:10;" x1="40" x2="40" y1="160" y2="-32"/>
              <line style="fill:none;stroke:#000000;stroke-width:0.25;stroke-miterlimit:10;" x1="44" x2="44" y1="160" y2="-32"/>
              <line style="fill:none;stroke:#000000;stroke-width:0.25;stroke-miterlimit:10;" x1="48" x2="48" y1="160" y2="-32"/>
              <line style="fill:none;stroke:#000000;stroke-width:0.25;stroke-miterlimit:10;" x1="52" x2="52" y1="160" y2="-32"/>
              <line style="fill:none;stroke:#000000;stroke-width:0.25;stroke-miterlimit:10;" x1="56" x2="56" y1="160" y2="-32"/>
              <line style="fill:none;stroke:#000000;stroke-width:0.25;stroke-miterlimit:10;" x1="60" x2="60" y1="160" y2="-32"/>
              <line style="fill:none;stroke:#000000;stroke-width:0.25;stroke-miterlimit:10;" x1="64" x2="64" y1="160" y2="-32"/>
              <line style="fill:none;stroke:#000000;stroke-width:0.25;stroke-miterlimit:10;" x1="68" x2="68" y1="160" y2="-32"/>
              <line style="fill:none;stroke:#000000;stroke-width:0.25;stroke-miterlimit:10;" x1="72" x2="72" y1="160" y2="-32"/>
              <line style="fill:none;stroke:#000000;stroke-width:0.25;stroke-miterlimit:10;" x1="76" x2="76" y1="160" y2="-32"/>
              <line style="fill:none;stroke:#000000;stroke-width:0.25;stroke-miterlimit:10;" x1="80" x2="80" y1="160" y2="-32"/>
              <line style="fill:none;stroke:#000000;stroke-width:0.25;stroke-miterlimit:10;" x1="84" x2="84" y1="160" y2="-32"/>
              <line style="fill:none;stroke:#000000;stroke-width:0.25;stroke-miterlimit:10;" x1="88" x2="88" y1="160" y2="-32"/>
              <line style="fill:none;stroke:#000000;stroke-width:0.25;stroke-miterlimit:10;" x1="92" x2="92" y1="160" y2="-32"/>
              <line style="fill:none;stroke:#000000;stroke-width:0.25;stroke-miterlimit:10;" x1="96" x2="96" y1="160" y2="-32"/>
              <line style="fill:none;stroke:#000000;stroke-width:0.25;stroke-miterlimit:10;" x1="100" x2="100" y1="160" y2="-32"/>
              <line style="fill:none;stroke:#000000;stroke-width:0.25;stroke-miterlimit:10;" x1="104" x2="104" y1="160" y2="-32"/>
              <line style="fill:none;stroke:#000000;stroke-width:0.25;stroke-miterlimit:10;" x1="108" x2="108" y1="160" y2="-32"/>
              <line style="fill:none;stroke:#000000;stroke-width:0.25;stroke-miterlimit:10;" x1="112" x2="112" y1="160" y2="-32"/>
              <line style="fill:none;stroke:#000000;stroke-width:0.25;stroke-miterlimit:10;" x1="116" x2="116" y1="160" y2="-32"/>
              <line style="fill:none;stroke:#000000;stroke-width:0.25;stroke-miterlimit:10;" x1="120" x2="120" y1="160" y2="-32"/>
              <line style="fill:none;stroke:#000000;stroke-width:0.25;stroke-miterlimit:10;" x1="124" x2="124" y1="160" y2="-32"/>
              <line style="fill:none;stroke:#000000;stroke-width:0.25;stroke-miterlimit:10;" x1="128" x2="128" y1="160" y2="-32"/>
              <line style="fill:none;stroke:#000000;stroke-width:0.25;stroke-miterlimit:10;" x1="132" x2="132" y1="160" y2="-32"/>
              <line style="fill:none;stroke:#000000;stroke-width:0.25;stroke-miterlimit:10;" x1="136" x2="136" y1="160" y2="-32"/>
              <line style="fill:none;stroke:#000000;stroke-width:0.25;stroke-miterlimit:10;" x1="137" x2="137" y1="166.05" y2="-25.95"/>
              <line style="fill:none;stroke:#000000;stroke-width:0.25;stroke-miterlimit:10;" x1="144" x2="144" y1="160" y2="-32"/>
              <line style="fill:none;stroke:#000000;stroke-width:0.25;stroke-miterlimit:10;" x1="148" x2="148" y1="160" y2="-32"/>
              <line style="fill:none;stroke:#000000;stroke-width:0.25;stroke-miterlimit:10;" x1="152" x2="152" y1="160" y2="-32"/>
              <line style="fill:none;stroke:#000000;stroke-width:0.25;stroke-miterlimit:10;" x1="156" x2="156" y1="160" y2="-32"/>
            </g>
            <g>
              <line style="fill:none;stroke:#000000;stroke-width:0.25;stroke-miterlimit:10;" x1="-32" x2="160" y1="-28" y2="-28"/>
              <line style="fill:none;stroke:#000000;stroke-width:0.25;stroke-miterlimit:10;" x1="-32" x2="160" y1="-24" y2="-24"/>
              <line style="fill:none;stroke:#000000;stroke-width:0.25;stroke-miterlimit:10;" x1="-32" x2="160" y1="-20" y2="-20"/>
              <line style="fill:none;stroke:#000000;stroke-width:0.25;stroke-miterlimit:10;" x1="-32" x2="160" y1="-16" y2="-16"/>
              <line style="fill:none;stroke:#000000;stroke-width:0.25;stroke-miterlimit:10;" x1="-32" x2="160" y1="-12" y2="-12"/>
              <line style="fill:none;stroke:#000000;stroke-width:0.25;stroke-miterlimit:10;" x1="-32" x2="160" y1="-8" y2="-8"/>
              <line style="fill:none;stroke:#000000;stroke-width:0.25;stroke-miterlimit:10;" x1="-32" x2="160" y1="-4" y2="-4"/>
              <line style="fill:none;stroke:#000000;stroke-width:0.25;stroke-miterlimit:10;" x1="-32" x2="160" y1="0" y2="0"/>
              <line style="fill:none;stroke:#000000;stroke-width:0.25;stroke-miterlimit:10;" x1="-32" x2="160" y1="4" y2="4"/>
              <line style="fill:none;stroke:#000000;stroke-width:0.25;stroke-miterlimit:10;" x1="-32" x2="160" y1="8" y2="8"/>
              <line style="fill:none;stroke:#000000;stroke-width:0.25;stroke-miterlimit:10;" x1="-32" x2="160" y1="12" y2="12"/>
              <line style="fill:none;stroke:#000000;stroke-width:0.25;stroke-miterlimit:10;" x1="-32" x2="160" y1="16" y2="16"/>
              <line style="fill:none;stroke:#000000;stroke-width:0.25;stroke-miterlimit:10;" x1="-32" x2="160" y1="20" y2="20"/>
              <line style="fill:none;stroke:#000000;stroke-width:0.25;stroke-miterlimit:10;" x1="-32" x2="160" y1="24" y2="24"/>
              <line style="fill:none;stroke:#000000;stroke-width:0.25;stroke-miterlimit:10;" x1="-32" x2="160" y1="28" y2="28"/>
              <line style="fill:none;stroke:#000000;stroke-width:0.25;stroke-miterlimit:10;" x1="-32" x2="160" y1="32" y2="32"/>
              <line style="fill:none;stroke:#000000;stroke-width:0.25;stroke-miterlimit:10;" x1="-32" x2="160" y1="36" y2="36"/>
              <line style="fill:none;stroke:#000000;stroke-width:0.25;stroke-miterlimit:10;" x1="-32" x2="160" y1="40" y2="40"/>
              <line style="fill:none;stroke:#000000;stroke-width:0.25;stroke-miterlimit:10;" x1="-32" x2="160" y1="44" y2="44"/>
              <line style="fill:none;stroke:#000000;stroke-width:0.25;stroke-miterlimit:10;" x1="-32" x2="160" y1="48" y2="48"/>
              <line style="fill:none;stroke:#000000;stroke-width:0.25;stroke-miterlimit:10;" x1="-32" x2="160" y1="52" y2="52"/>
              <line style="fill:none;stroke:#000000;stroke-width:0.25;stroke-miterlimit:10;" x1="-32" x2="160" y1="56" y2="56"/>
              <line style="fill:none;stroke:#000000;stroke-width:0.25;stroke-miterlimit:10;" x1="-32" x2="160" y1="60" y2="60"/>
              <line style="fill:none;stroke:#000000;stroke-width:0.25;stroke-miterlimit:10;" x1="-32" x2="160" y1="64" y2="64"/>
              <line style="fill:none;stroke:#000000;stroke-width:0.25;stroke-miterlimit:10;" x1="-32" x2="160" y1="68" y2="68"/>
              <line style="fill:none;stroke:#000000;stroke-width:0.25;stroke-miterlimit:10;" x1="-32" x2="160" y1="72" y2="72"/>
              <line style="fill:none;stroke:#000000;stroke-width:0.25;stroke-miterlimit:10;" x1="-32" x2="160" y1="76" y2="76"/>
              <line style="fill:none;stroke:#000000;stroke-width:0.25;stroke-miterlimit:10;" x1="-32" x2="160" y1="80" y2="80"/>
              <line style="fill:none;stroke:#000000;stroke-width:0.25;stroke-miterlimit:10;" x1="-32" x2="160" y1="84" y2="84"/>
              <line style="fill:none;stroke:#000000;stroke-width:0.25;stroke-miterlimit:10;" x1="-32" x2="160" y1="88" y2="88"/>
              <line style="fill:none;stroke:#000000;stroke-width:0.25;stroke-miterlimit:10;" x1="-32" x2="160" y1="92" y2="92"/>
              <line style="fill:none;stroke:#000000;stroke-width:0.25;stroke-miterlimit:10;" x1="-32" x2="160" y1="96" y2="96"/>
              <line style="fill:none;stroke:#000000;stroke-width:0.25;stroke-miterlimit:10;" x1="-32" x2="160" y1="100" y2="100"/>
              <line style="fill:none;stroke:#000000;stroke-width:0.25;stroke-miterlimit:10;" x1="-32" x2="160" y1="104" y2="104"/>
              <line style="fill:none;stroke:#000000;stroke-width:0.25;stroke-miterlimit:10;" x1="-32" x2="160" y1="108" y2="108"/>
              <line style="fill:none;stroke:#000000;stroke-width:0.25;stroke-miterlimit:10;" x1="-32" x2="160" y1="112" y2="112"/>
              <line style="fill:none;stroke:#000000;stroke-width:0.25;stroke-miterlimit:10;" x1="-32" x2="160" y1="116" y2="116"/>
              <line style="fill:none;stroke:#000000;stroke-width:0.25;stroke-miterlimit:10;" x1="-32" x2="160" y1="120" y2="120"/>
              <line style="fill:none;stroke:#000000;stroke-width:0.25;stroke-miterlimit:10;" x1="-32" x2="160" y1="124" y2="124"/>
              <line style="fill:none;stroke:#000000;stroke-width:0.25;stroke-miterlimit:10;" x1="-32" x2="160" y1="128" y2="128"/>
              <line style="fill:none;stroke:#000000;stroke-width:0.25;stroke-miterlimit:10;" x1="-32" x2="160" y1="132" y2="132"/>
              <line style="fill:none;stroke:#000000;stroke-width:0.25;stroke-miterlimit:10;" x1="-32" x2="160" y1="136" y2="136"/>
              <line style="fill:none;stroke:#000000;stroke-width:0.25;stroke-miterlimit:10;" x1="-32" x2="160" y1="140" y2="140"/>
              <line style="fill:none;stroke:#000000;stroke-width:0.25;stroke-miterlimit:10;" x1="-32" x2="160" y1="144" y2="144"/>
              <line style="fill:none;stroke:#000000;stroke-width:0.25;stroke-miterlimit:10;" x1="-32" x2="160" y1="148" y2="148"/>
              <line style="fill:none;stroke:#000000;stroke-width:0.25;stroke-miterlimit:10;" x1="-32" x2="160" y1="152" y2="152"/>
              <line style="fill:none;stroke:#000000;stroke-width:0.25;stroke-miterlimit:10;" x1="-32" x2="160" y1="156" y2="156"/>
            </g>
            <path d="M159.75-31.75v191.5h-191.5v-191.5H159.75 M160-32H-32v192h192V-32L160-32z"/>
          </g>
        </g>
        <g>
          <rect height="128" style="opacity:0.3;fill:#F44336;" width="4" x="0" y="0"/>
          <rect height="128" style="opacity:0.3;fill:#F44336;" width="4" x="124" y="0"/>
          <rect height="120" style="opacity:0.3;fill:#F44336;" transform="matrix(-1.836970e-16 1 -1 -1.836970e-16 66 -62)" width="4" x="62" y="-58"/>
          <rect height="120" style="opacity:0.3;fill:#F44336;" transform="matrix(-1.836970e-16 1 -1 -1.836970e-16 190 62)" width="4" x="62" y="66"/>
        </g>
      </g>
    </g>
  </g>
  <g id="Layer_3" style="display:none;">
    <rect id="XMLID_46_" height="128" style="display:inline;fill:none;stroke:#616161;stroke-width:0.25;stroke-miterlimit:10;" transform="matrix(-1.346904e-10 -1 1 -1.346904e-10 8.631098e-09 128)" width="128" x="0"/>
    <g id="XMLID_9_" style="display:inline;">
      <rect id="XMLID_45_" height="128" style="fill:none;stroke:#E0E0E0;stroke-width:0.25;stroke-miterlimit:10;" width="128" x="0"/>
      <line id="XMLID_44_" style="fill:none;stroke:#E0E0E0;stroke-width:0.25;stroke-miterlimit:10;" x1="8" x2="8" y1="0" y2="128"/>
      <line id="XMLID_43_" style="fill:none;stroke:#E0E0E0;stroke-width:0.25;stroke-miterlimit:10;" x1="16" x2="16" y1="0" y2="128"/>
      <line id="XMLID_42_" style="fill:none;stroke:#E0E0E0;stroke-width:0.25;stroke-miterlimit:10;" x1="24" x2="24" y1="0" y2="128"/>
      <line id="XMLID_41_" style="fill:none;stroke:#E0E0E0;stroke-width:0.25;stroke-miterlimit:10;" x1="32" x2="32" y1="0" y2="128"/>
      <line id="XMLID_40_" style="fill:none;stroke:#E0E0E0;stroke-width:0.25;stroke-miterlimit:10;" x1="40" x2="40" y1="0" y2="128"/>
      <line id="XMLID_39_" style="fill:none;stroke:#E0E0E0;stroke-width:0.25;stroke-miterlimit:10;" x1="48" x2="48" y1="0" y2="128"/>
      <line id="XMLID_38_" style="fill:none;stroke:#E0E0E0;stroke-width:0.25;stroke-miterlimit:10;" x1="56" x2="56" y1="0" y2="128"/>
      <line id="XMLID_37_" style="fill:none;stroke:#E0E0E0;stroke-width:0.25;stroke-miterlimit:10;" x1="63.99" x2="63.99" y1="0" y2="128"/>
      <line id="XMLID_36_" style="fill:none;stroke:#E0E0E0;stroke-width:0.25;stroke-miterlimit:10;" x1="71.99" x2="71.99" y1="0" y2="128"/>
      <line id="XMLID_35_" style="fill:none;stroke:#E0E0E0;stroke-width:0.25;stroke-miterlimit:10;" x1="79.99" x2="79.99" y1="0" y2="128"/>
      <line id="XMLID_34_" style="fill:none;stroke:#E0E0E0;stroke-width:0.25;stroke-miterlimit:10;" x1="87.99" x2="87.99" y1="0" y2="128"/>
      <line id="XMLID_33_" style="fill:none;stroke:#E0E0E0;stroke-width:0.25;stroke-miterlimit:10;" x1="95.99" x2="95.99" y1="0" y2="128"/>
      <line id="XMLID_32_" style="fill:none;stroke:#E0E0E0;stroke-width:0.25;stroke-miterlimit:10;" x1="103.99" x2="103.99" y1="0" y2="128"/>
      <line id="XMLID_47_" style="fill:none;stroke:#E0E0E0;stroke-width:0.25;stroke-miterlimit:10;" x1="111.99" x2="111.99" y1="0" y2="128"/>
      <line id="XMLID_48_" style="fill:none;stroke:#E0E0E0;stroke-width:0.25;stroke-miterlimit:10;" x1="119.99" x2="119.99" y1="0" y2="128"/>
      <line id="XMLID_49_" style="fill:none;stroke:#E0E0E0;stroke-width:0.25;stroke-miterlimit:10;" x1="128" x2="0" y1="120" y2="120"/>
      <line id="XMLID_50_" style="fill:none;stroke:#E0E0E0;stroke-width:0.25;stroke-miterlimit:10;" x1="128" x2="0" y1="112" y2="112"/>
      <line id="XMLID_51_" style="fill:none;stroke:#E0E0E0;stroke-width:0.25;stroke-miterlimit:10;" x1="128" x2="0" y1="104" y2="104"/>
      <line id="XMLID_52_" style="fill:none;stroke:#E0E0E0;stroke-width:0.25;stroke-miterlimit:10;" x1="128" x2="0" y1="96" y2="96"/>
      <line id="XMLID_53_" style="fill:none;stroke:#E0E0E0;stroke-width:0.25;stroke-miterlimit:10;" x1="128" x2="0" y1="88" y2="88"/>
      <line id="XMLID_54_" style="fill:none;stroke:#E0E0E0;stroke-width:0.25;stroke-miterlimit:10;" x1="128" x2="0" y1="80" y2="80"/>
      <line id="XMLID_55_" style="fill:none;stroke:#E0E0E0;stroke-width:0.25;stroke-miterlimit:10;" x1="128" x2="0" y1="72" y2="72"/>
      <line id="XMLID_56_" style="fill:none;stroke:#E0E0E0;stroke-width:0.25;stroke-miterlimit:10;" x1="128" x2="0" y1="64.01" y2="64.01"/>
      <line id="XMLID_57_" style="fill:none;stroke:#E0E0E0;stroke-width:0.25;stroke-miterlimit:10;" x1="128" x2="0" y1="56.01" y2="56.01"/>
      <line id="XMLID_58_" style="fill:none;stroke:#E0E0E0;stroke-width:0.25;stroke-miterlimit:10;" x1="128" x2="0" y1="48.01" y2="48.01"/>
      <line id="XMLID_60_" style="fill:none;stroke:#E0E0E0;stroke-width:0.25;stroke-miterlimit:10;" x1="128" x2="0" y1="40.01" y2="40.01"/>
      <line id="XMLID_61_" style="fill:none;stroke:#E0E0E0;stroke-width:0.25;stroke-miterlimit:10;" x1="128" x2="0" y1="32.01" y2="32.01"/>
      <line id="XMLID_62_" style="fill:none;stroke:#E0E0E0;stroke-width:0.25;stroke-miterlimit:10;" x1="128" x2="0" y1="24.01" y2="24.01"/>
      <line id="XMLID_63_" style="fill:none;stroke:#E0E0E0;stroke-width:0.25;stroke-miterlimit:10;" x1="128" x2="0" y1="16.01" y2="16.01"/>
      <line id="XMLID_64_" style="fill:none;stroke:#E0E0E0;stroke-width:0.25;stroke-miterlimit:10;" x1="128" x2="0" y1="8.01" y2="8.01"/>
    </g>
    <use id="XMLID_31_" height="129" style="display:inline;overflow:visible;" transform="matrix(1 0 0 -1 64 64)" width="129" x="-64.5" xlink:href="#Grid" y="-64.5"/>
  </g>
</svg>