<svg xmlns="http://www.w3.org/2000/svg" viewBox="0 0 128 128"><g fill="#c96"><path d="M57.79 52.43s-.95-5.45-3.36-9.9-6.27-7.7-7.77-11.61c-.54-1.73-1.54-3.65-1.86-6.65-.06-.66-.33-1.88-1.17-1.88-.79 0-1.06 1.29-1.05 1.79.01.49-.12 3.73 1.15 7.16 1.27 3.44 4.4 7.4 6.64 12.33 2.24 4.93 3.07 10.03 3.07 10.03l4.35-1.27z"/><path d="M57.79 52.43l.85-.16c-.01-.05-.96-5.55-3.46-10.18-1.26-2.32-2.86-4.29-4.31-6.13-1.45-1.85-2.73-3.58-3.41-5.36l-.8.34.82-.28c-.59-1.85-1.52-3.63-1.83-6.47l-.86.1.86-.09c-.04-.4-.13-.95-.38-1.5-.13-.27-.3-.56-.58-.79-.27-.24-.67-.41-1.08-.41-.42 0-.81.19-1.07.43-.39.37-.56.8-.68 1.19-.12.39-.16.74-.17 1.05v.38c0 1.08.06 4.01 1.21 7.14.68 1.84 1.81 3.72 3.03 5.76 1.22 2.04 2.55 4.23 3.64 6.63 1.09 2.4 1.84 4.86 2.32 6.71.24.93.41 1.7.52 2.25.06.27.09.48.12.63l.03.16.01.05c.04.25.18.48.39.61.21.14.46.18.7.11l4.35-1.28c.43-.13.7-.58.62-1.04l-.84.15-.23-.87-4.35 1.28.23.87.85-.15c-.01-.04-.84-5.2-3.14-10.27-1.15-2.53-2.51-4.78-3.73-6.82-1.22-2.03-2.3-3.85-2.88-5.45-1.03-2.8-1.1-5.49-1.09-6.48v-.37c-.01-.1.05-.48.15-.69.05-.11.1-.18.11-.19v-.01.01-.01.01l-.08-.13v.15l.08-.02-.08-.13v.15-.01.01-.01.01l.01-.07-.04.06.02.01.01-.07-.03.06.01.01c.04.03.14.19.2.41.07.21.11.47.13.65v.01c.34 3.16 1.41 5.22 1.9 6.83l.02.06c.82 2.13 2.22 3.97 3.68 5.84 1.46 1.87 2.99 3.75 4.14 5.88 1.15 2.13 1.98 4.55 2.5 6.43.26.94.45 1.74.58 2.31.06.28.11.51.14.66l.03.17.01.05.85-.18-.23-.87.23.87z"/><path d="M51.29 44.76s-2.54-3.35-5.95-4.51c-3.41-1.16-6.86-3.36-8.28-4.86-1.43-1.5-2.47-3.13-2.69-4.34-.22-1.21-.87-1.64-1.35-1.44-.45.19-.65 1.02-.43 2.3.24 1.4 1.87 4.7 3.02 5.91 3.36 3.52 6.3 4 8.47 5.59 2.17 1.59 4.74 3.85 5.53 5.07l1.68-3.72z"/><path d="M51.29 44.76l.68-.56c-.02-.03-.69-.9-1.8-1.93-1.12-1.03-2.68-2.23-4.56-2.87-1.63-.56-3.3-1.37-4.72-2.23-1.42-.85-2.6-1.75-3.22-2.41a13.49 13.49 0 0 1-1.69-2.14c-.43-.68-.69-1.31-.77-1.74-.12-.63-.33-1.15-.66-1.55-.32-.4-.79-.67-1.31-.67a1.459 1.459 0 0 0-1.1.51c-.22.25-.34.54-.41.84-.08.3-.11.61-.11.95 0 .35.03.72.1 1.12.08.46.24.97.46 1.53.33.84.78 1.78 1.27 2.65.49.87 1.01 1.66 1.53 2.21 1.75 1.84 3.43 2.9 4.9 3.69 1.47.78 2.72 1.3 3.68 2.01 1.06.77 2.23 1.72 3.21 2.62.49.45.94.88 1.3 1.27.36.38.64.73.79.95.17.27.47.42.78.4.31-.02.58-.22.72-.51l1.69-3.72c.14-.31.1-.68-.1-.96l-.66.54-.78-.39-1.69 3.72.78.39.72-.51c-.25-.39-.58-.78-.99-1.22-1.22-1.29-3.09-2.87-4.76-4.09-1.21-.88-2.51-1.4-3.89-2.14-1.38-.74-2.85-1.67-4.46-3.35-.22-.23-.52-.63-.82-1.1-.45-.71-.91-1.58-1.28-2.39-.36-.8-.63-1.57-.69-1.94-.05-.31-.08-.58-.08-.8 0-.28.04-.48.07-.55l.01-.03-.03-.02.03.03-.03-.02.03.03-.21-.18.1.26.11-.08-.21-.18.1.26-.08-.21v.22l.08-.02-.08-.21v.22-.13l-.06.12.06.01v-.13l-.06.12s.05.03.12.15c.07.12.15.32.21.61.15.79.52 1.58 1.02 2.39a15.8 15.8 0 0 0 1.91 2.42c.81.84 2.06 1.79 3.58 2.7 1.51.91 3.27 1.77 5.05 2.38 1.53.52 2.94 1.58 3.95 2.51.5.47.91.9 1.18 1.21.14.16.24.28.31.37l.08.1.02.02.68-.55-.78-.39.78.39z"/><path d="M44.1 42.89S33.54 40.96 27.78 36c-5.75-4.95-6.55-11.87-4.22-18.96.43-1.07.89-1.77.38-2.36s-1.3.37-1.7.84c-.4.47-6.5 7.27-.85 19.55 3.15 7.11 14.05 10.11 18.5 11s10.48 3.31 10.93 8.44l4.67-.68-2.22-8.28-9.17-2.66z"/><path d="M44.1 42.89l.15-.89-.11-.02c-.57-.11-3.24-.66-6.41-1.75-3.17-1.08-6.85-2.72-9.4-4.93-1.81-1.56-3.08-3.3-3.91-5.17-.83-1.87-1.21-3.89-1.21-6.01 0-2.17.41-4.46 1.17-6.78l-.82-.3.79.36c.14-.34.29-.66.42-.99.13-.33.25-.68.26-1.13.01-.41-.15-.88-.45-1.21-.12-.15-.28-.27-.46-.36-.18-.09-.38-.13-.55-.13-.31 0-.56.1-.77.21-.3.17-.53.38-.73.59-.2.2-.36.4-.48.53-.02.03-.12.13-.23.28-.83 1.02-3.22 4.42-3.22 9.97 0 2.89.65 6.34 2.47 10.29l.78-.39-.78.38c.86 1.94 2.23 3.56 3.84 4.92 4.83 4.06 11.88 5.9 15.29 6.59 2.15.43 4.69 1.24 6.68 2.51.99.63 1.84 1.38 2.46 2.23.61.85 1 1.79 1.1 2.89.02.25.14.47.32.63.19.15.42.22.66.19l4.67-.68c.25-.04.47-.18.6-.4a.92.92 0 0 0 .11-.74l-2.22-8.28a.887.887 0 0 0-.6-.63l-9.17-2.65-.1-.02-.15.89-.23.87 8.7 2.51 1.82 6.79-3.69.54.12.9.86-.08a7.504 7.504 0 0 0-1.45-3.82c-1.18-1.62-2.88-2.78-4.69-3.65-1.82-.86-3.77-1.43-5.49-1.77-2.18-.44-5.96-1.4-9.54-3.1-1.79-.85-3.53-1.89-4.98-3.12-1.46-1.23-2.64-2.65-3.35-4.27l-.01-.01c-1.72-3.74-2.3-6.9-2.3-9.51 0-2.85.7-5.04 1.42-6.55.36-.76.73-1.35 1.02-1.76.15-.21.27-.37.37-.49.1-.12.16-.19.2-.24.15-.18.35-.41.52-.57.08-.08.16-.13.2-.15l.02-.01-.07-.22v.23l.07-.01-.07-.22v.23V15l-.16.38.16.04v-.41l-.16.38.13-.29-.23.22.1.07.13-.29-.23.22.01.01.06-.04-.06.02.01.02.06-.04-.06.02.06-.02-.06.01v.01l.06-.02-.06.01v.01c0 .03-.02.19-.13.44-.1.25-.25.58-.41.97l-.02.06c-.82 2.48-1.27 4.96-1.27 7.38 0 2.35.43 4.64 1.37 6.77.94 2.13 2.39 4.1 4.38 5.81 3.03 2.61 7.19 4.34 10.6 5.47 3.41 1.12 6.09 1.61 6.11 1.61l.16-.93-.23.87.23-.87z"/><path d="M20.56 30.17s-3.73-3.13-4.86-11.57c-1.13-8.43 1.79-12.61 2.16-13.63s-.12-1.75-.4-1.8c-.73-.12-1.16.83-1.73 1.8-1.51 2.62-2.85 6.17-3.1 8.68-.51 5.23-.1 16.47 12.23 25.91l-4.3-9.39z"/><path d="M20.56 30.17l.54-.71-.3.4.31-.39-.3.4.31-.39s-.05-.04-.15-.14c-.67-.67-3.45-3.79-4.4-10.86-.18-1.31-.25-2.51-.25-3.6 0-2.87.51-5.01 1.04-6.55.27-.77.54-1.39.78-1.87.12-.24.22-.45.31-.64s.17-.34.23-.53c.13-.36.18-.71.18-1.04 0-.48-.12-.9-.31-1.23-.1-.17-.21-.31-.35-.44-.15-.13-.32-.25-.6-.3-.08-.01-.16-.02-.25-.02-.35 0-.69.13-.93.31-.37.27-.61.6-.82.93-.21.33-.4.68-.59 1.01-.79 1.36-1.52 2.95-2.09 4.53-.57 1.58-.99 3.15-1.13 4.53a27.853 27.853 0 0 0 2.18 13.94c1.84 4.21 5.03 8.69 10.4 12.8.32.25.76.23 1.06-.04.3-.27.4-.72.23-1.09l-4.31-9.39a.923.923 0 0 0-.24-.31l-.55.69-.78.39 4.31 9.39.78-.39.51-.73c-5.15-3.94-8.13-8.16-9.85-12.09a25.834 25.834 0 0 1-2.16-10.4c0-.98.05-1.85.13-2.6.11-1.13.48-2.59 1.02-4.07.54-1.48 1.23-2.98 1.95-4.23.28-.48.51-.92.7-1.16.09-.12.17-.19.2-.21l.01-.01-.03-.06.01.06h.01L17.35 4l.01.06-.03-.13v.13h.03l-.03-.13v.13-.07l-.01.08h.01v-.08l-.01.08.08-.53-.34.42c.03.02.08.08.26.11l.08-.53-.34.42.11-.14-.13.12.02.02.11-.14-.13.12c.02.02.07.13.07.31 0 .11-.02.24-.08.41-.01.03-.07.16-.15.33-.28.6-.88 1.74-1.38 3.38-.5 1.64-.93 3.8-.93 6.5 0 1.18.08 2.46.27 3.86 1.16 8.69 5.04 12.05 5.18 12.15l.54-.71-.78.39.78-.39zM70.21 52.43s.95-5.45 3.36-9.9 6.27-7.7 7.77-11.61c.54-1.73 1.54-3.65 1.86-6.65.06-.66.33-1.88 1.17-1.88.79 0 1.06 1.29 1.05 1.79-.01.49.12 3.73-1.15 7.16-1.27 3.44-4.4 7.4-6.64 12.33-2.24 4.93-3.07 10.03-3.07 10.03l-4.35-1.27z"/><path d="M70.21 52.43l.85.16.01-.05c.1-.57 1.08-5.56 3.25-9.56 1.15-2.13 2.68-4.01 4.14-5.88 1.46-1.87 2.86-3.71 3.68-5.84l.02-.06c.49-1.61 1.56-3.67 1.9-6.83v-.01c.02-.26.1-.65.21-.88.05-.12.11-.18.12-.19l-.03-.06.02.06.02-.01-.03-.06.02.06-.01-.03v.03h.01l-.01-.03v.03-.16l-.06.15.06.01v-.16l-.06.15.03-.08-.05.07.02.01.03-.08-.05.07c.01 0 .12.16.18.36.06.2.09.45.09.52v.38c0 .99-.06 3.69-1.09 6.48-.59 1.6-1.66 3.42-2.88 5.45-1.22 2.04-2.58 4.29-3.73 6.82-2.3 5.07-3.13 10.23-3.14 10.27l.85.15.23-.87-4.35-1.28-.25.89.85.16-.85-.16-.23.87 4.35 1.28c.23.07.49.03.7-.11a.9.9 0 0 0 .39-.61l.01-.05c.09-.53.95-5.25 2.99-9.74 1.09-2.4 2.41-4.6 3.64-6.63 1.22-2.04 2.35-3.92 3.03-5.76 1.15-3.13 1.21-6.06 1.21-7.14v-.37c-.01-.41-.08-.91-.31-1.45-.12-.27-.28-.54-.54-.79-.25-.24-.65-.44-1.07-.43-.41 0-.81.17-1.08.41-.41.36-.6.8-.74 1.2-.13.4-.19.79-.22 1.09l.86.09-.86-.1c-.31 2.83-1.24 4.61-1.83 6.47l.82.28-.8-.34c-.68 1.78-1.96 3.52-3.41 5.36-1.45 1.85-3.05 3.81-4.31 6.13-2.5 4.63-3.44 10.14-3.46 10.18-.08.46.19.91.62 1.04l.24-.88z"/><path d="M76.71 44.76s2.54-3.35 5.95-4.51c3.41-1.16 6.86-3.36 8.28-4.86 1.43-1.5 2.47-3.13 2.69-4.34.22-1.21.87-1.64 1.35-1.44.45.19.65 1.02.43 2.3-.24 1.4-1.87 4.7-3.02 5.91-3.36 3.52-6.3 4-8.47 5.59-2.17 1.59-4.74 3.85-5.53 5.07l-1.68-3.72z"/><path d="M76.71 44.76l.68.56c.05-.07.68-.88 1.68-1.79 1-.91 2.37-1.92 3.85-2.42 1.77-.61 3.53-1.47 5.05-2.38 1.52-.91 2.77-1.86 3.58-2.7a15.8 15.8 0 0 0 1.91-2.42c.51-.81.87-1.6 1.02-2.39.07-.4.19-.62.27-.71l.06-.06-.06-.12v.13l.06-.01-.06-.12v.13-.22l-.08.21.08.02v-.22l-.08.21.1-.27-.21.2.11.08.1-.27-.21.2.07-.07-.08.06.01.01.07-.07-.08.06s.03.05.05.15c.02.1.04.25.04.43 0 .22-.02.49-.08.8-.04.24-.17.67-.36 1.16-.29.74-.71 1.62-1.15 2.42-.44.79-.93 1.5-1.27 1.85-1.6 1.68-3.08 2.61-4.46 3.35-1.38.74-2.68 1.26-3.89 2.14a42.96 42.96 0 0 0-3.35 2.73c-.52.47-1 .93-1.4 1.36-.41.43-.74.83-.99 1.22l.72.51.78-.39-1.69-3.72-.79.36.68.56-.68-.56-.78.39 1.69 3.72c.13.3.41.49.72.51.31.02.61-.13.78-.4.14-.22.42-.57.79-.95 1.09-1.16 2.93-2.72 4.52-3.88.96-.71 2.21-1.23 3.68-2.01 1.47-.78 3.15-1.85 4.9-3.69.35-.37.69-.84 1.03-1.38.51-.8 1-1.74 1.4-2.62.4-.9.7-1.71.82-2.4.07-.4.1-.77.1-1.12 0-.45-.05-.86-.2-1.24-.08-.19-.18-.38-.32-.54a1.459 1.459 0 0 0-1.1-.51c-.52 0-.99.28-1.31.67-.33.4-.54.92-.66 1.55-.07.43-.34 1.06-.77 1.74-.43.68-1.01 1.42-1.69 2.14-.62.65-1.8 1.56-3.22 2.41-1.42.85-3.09 1.67-4.72 2.23-1.87.64-3.44 1.84-4.56 2.87-1.11 1.03-1.78 1.91-1.8 1.93-.21.27-.25.64-.1.96l.8-.38z"/><path d="M83.9 42.89s10.56-1.93 16.32-6.89c5.75-4.95 6.55-11.87 4.22-18.96-.43-1.07-.89-1.77-.38-2.36s1.3.37 1.7.84c.4.47 6.5 7.27.85 19.55-3.15 7.11-14.05 10.11-18.5 11s-10.48 3.31-10.93 8.44l-4.67-.68 2.22-8.28 9.17-2.66z"/><path d="M83.9 42.89l.15.89c.02 0 2.7-.49 6.11-1.61 3.42-1.12 7.57-2.86 10.6-5.47 1.99-1.71 3.44-3.68 4.38-5.81.94-2.13 1.37-4.42 1.37-6.77 0-2.41-.45-4.89-1.27-7.38l-.02-.06c-.16-.39-.31-.72-.41-.97-.1-.25-.13-.41-.13-.44l-.08-.01.07.04.01-.02-.08-.01.07.04-.01-.01.01.01-.01-.01.01.01.01-.01-.23-.22.13.29.1-.07-.23-.22.13.29-.16-.38v.41l.16-.04-.16-.38v.41-.25l-.07.24.07.01v-.25l-.07.24c.03.01.18.11.32.26.15.15.3.32.43.48.04.05.11.12.2.24.67.84 2.81 3.82 2.81 8.8 0 2.6-.58 5.77-2.3 9.51l-.01.01c-.72 1.62-1.89 3.04-3.35 4.27-4.37 3.71-11.26 5.58-14.53 6.22-2.3.46-4.99 1.3-7.25 2.75-1.13.72-2.15 1.6-2.93 2.68a7.594 7.594 0 0 0-1.45 3.82l.86.08.12-.9-3.69-.54 1.82-6.79 8.7-2.51-.2-.87.15.89-.15-.89-.23-.87-9.17 2.65a.87.87 0 0 0-.6.63l-2.22 8.28a.92.92 0 0 0 .11.74c.14.22.36.37.6.4l4.67.68c.24.03.47-.03.66-.19.19-.15.3-.38.32-.63.1-1.1.49-2.04 1.1-2.89.92-1.27 2.38-2.31 4.03-3.1 1.65-.79 3.48-1.32 5.1-1.64 2.27-.46 6.16-1.44 9.93-3.23 1.89-.9 3.74-2 5.35-3.36 1.61-1.36 2.98-2.98 3.84-4.92l-.78-.38.78.39c1.82-3.95 2.47-7.41 2.47-10.29 0-3.17-.78-5.64-1.61-7.37-.41-.86-.84-1.54-1.18-2.02-.17-.24-.32-.44-.44-.58a5.32 5.32 0 0 1-.23-.28c-.15-.18-.39-.47-.69-.74-.15-.13-.32-.27-.52-.38-.2-.11-.45-.21-.77-.21-.18 0-.37.04-.55.13-.18.09-.34.21-.46.36-.29.33-.46.8-.45 1.21 0 .45.13.8.26 1.13.13.33.28.65.42.99l.79-.36-.82.3c.76 2.32 1.17 4.61 1.17 6.78 0 2.12-.39 4.14-1.21 6.01-.83 1.87-2.1 3.61-3.91 5.17-2.72 2.35-6.72 4.06-10.02 5.14-1.65.54-3.13.93-4.19 1.19-.53.13-.96.22-1.25.28-.15.03-.26.05-.33.07l-.12.02-.08.02.23.87z"/><path d="M107.44 30.17s3.73-3.13 4.86-11.57c1.13-8.43-1.79-12.61-2.16-13.63s.12-1.75.4-1.8c.72-.11 1.16.83 1.72 1.8 1.51 2.62 2.85 6.17 3.1 8.68.51 5.23.1 16.47-12.23 25.91l4.31-9.39z"/><path d="M107.44 30.17l.54.71c.13-.1 4.02-3.46 5.18-12.15.19-1.39.27-2.68.27-3.86 0-3.09-.55-5.46-1.15-7.17a23.239 23.239 0 0 0-1.17-2.71c-.08-.17-.14-.3-.15-.33-.06-.17-.08-.3-.08-.41 0-.15.04-.26.06-.3l.01-.01-.16-.14.12.18.05-.04-.16-.14.12.18-.32-.48.08.58c.13-.02.2-.07.23-.09l-.32-.48.08.58-.01-.08v.08h.01l-.01-.08v.08-.15l-.04.12.04.01v-.13l-.04.12.01-.04-.02.04.01-.04-.02.04.1.08c.19.19.48.71.81 1.3.73 1.25 1.42 2.75 1.95 4.23.54 1.48.91 2.94 1.02 4.07.07.75.13 1.62.13 2.6 0 2.81-.45 6.47-2.16 10.4-1.72 3.93-4.7 8.15-9.85 12.09l.51.73.78.39 4.31-9.39-.76-.39.54.71-.54-.71-.78-.39-4.31 9.39c-.17.38-.08.82.23 1.09s.74.28 1.06.04c5.37-4.1 8.56-8.59 10.4-12.8 1.84-4.21 2.32-8.14 2.32-11.16 0-1.05-.06-1.98-.14-2.78-.14-1.37-.55-2.94-1.13-4.53-.57-1.58-1.3-3.17-2.09-4.53-.26-.44-.5-.91-.82-1.34-.16-.21-.35-.42-.59-.6a1.62 1.62 0 0 0-.93-.31c-.08 0-.17.01-.25.02-.28.05-.46.17-.6.3-.21.19-.37.43-.48.71-.11.28-.18.61-.18.96 0 .33.06.68.18 1.04.07.18.14.34.23.53.31.64.83 1.63 1.29 3.12.45 1.48.84 3.44.84 5.94 0 1.09-.07 2.29-.25 3.6-.55 4.1-1.72 6.87-2.74 8.61-.51.87-.98 1.48-1.31 1.86-.17.19-.3.33-.39.42l-.1.09-.02.02.31.39-.3-.4.31.39-.3-.4c-.1.09-.18.19-.24.31l.78.41z"/></g><ellipse cx="46.94" cy="75.42" rx="4.24" ry="4.86" fill="#ffc148"/><ellipse cx="46.94" cy="75.42" rx="3.17" ry="3.63" fill="#2f2f2f"/><ellipse cx="45.63" cy="74.94" rx=".64" ry=".74" fill="#fff"/><path d="M55.61 77.39c.96-.43-1.36-6.93-3.92-9.26-.53-.48-1.34-1.09-1.77-.22-.13.26-.03 1.34-.33 1.44-.36.12-1.34-1.48-1.51-1.7-.78-.97-1.63-1.99-2.7-2.65-1.31-.81-2.22-.02-1.87 1.91.26 1.26-3.5-1.88-4.9-1.27-1.51.66.04 2.93.94 3.51 5 3.2 6.78 1.74 11.27 6.08 1.5 1.43 2.88 2.88 4.79 2.16" fill="#fff"/><ellipse cx="81.06" cy="75.42" rx="4.24" ry="4.86" fill="#ffc148"/><ellipse cx="81.06" cy="75.42" rx="3.17" ry="3.63" fill="#2f2f2f"/><ellipse cx="82.37" cy="74.94" rx=".64" ry=".74" fill="#fff"/><path d="M72.39 77.39c-.96-.43 1.36-6.93 3.92-9.26.53-.48 1.34-1.09 1.77-.22.13.26.03 1.34.33 1.44.36.12 1.34-1.48 1.51-1.7.78-.97 1.63-1.99 2.7-2.65 1.31-.81 2.22-.02 1.87 1.91-.26 1.26 3.5-1.88 4.9-1.27 1.51.66-.04 2.93-.94 3.51-5 3.2-6.78 1.74-11.27 6.08-1.5 1.43-2.88 2.88-4.79 2.16" fill="#fff"/><g fill="#885c52"><path d="M43.12 56.15c-6.32.74-8.43-5.17-13.51-7.67-6.16-3.03-13.96-3.01-20.49-1.5-3.07.48 2.44 17.2 10 20.88 4.15 2.02 8.73 1.3 13.15 1.04 3.89-.22 7.27.4 10.87 1.87"/><path d="M13.08 50.51c1.88-1.31 7.45 2.45 11.85 5.73 2.12 1.58 5.34 3.31 7.8 4.32 2.64 1.08 4.62 1.49 4.59 4.83-.12 2.46-11.27-.72-15.56-2.72-5.39-2.52-9.81-10.72-8.68-12.16z"/><g><path d="M84.88 56.15c6.32.74 8.43-5.17 13.51-7.67 6.16-3.03 13.96-3.01 20.49-1.5 3.07.48-2.44 17.2-10 20.88-4.15 2.02-8.73 1.3-13.15 1.04-3.89-.22-7.27.4-10.87 1.87"/><path d="M114.92 50.51c-1.88-1.31-7.45 2.45-11.85 5.73-2.12 1.58-5.34 3.31-7.8 4.32-2.64 1.08-4.62 1.49-4.59 4.83.12 2.46 11.27-.72 15.56-2.72 5.39-2.52 9.81-10.72 8.68-12.16z"/></g></g><path d="M47.03 112.92c3.6 7.84 10.08 11.97 16.98 11.97 6.89 0 13.37-4.12 16.98-11.97 2.1-4.58 7.48-8.17 8.25-16.97v.04c.28-4.81 1.6-15.44 4.11-19.68 2.46-4.15 4.4-11.74.08-17.46-3.19-4.23-7.26-6.51-12.59-8.55-3.67-1.41-12.88-2.25-16.83-2.21-3.95-.04-13.16.8-16.83 2.21-5.33 2.05-9.4 4.33-12.59 8.55-4.32 5.72-2.38 13.31.08 17.46 2.52 4.26 3.84 14.89 4.12 19.71v-.07c.75 8.8 6.13 12.39 8.24 16.97z" fill="#885c52"/><path d="M64 108.78l-10.57-.79c.89 2.87 2.19 4.14 3.96 5.64 1.28 1.09 3.54 2.28 6.61 2.28 3.24 0 5.32-1.19 6.61-2.28 1.77-1.5 3.07-2.77 3.96-5.64l-10.57.79z" fill="#fff"/><path d="M64.05 109.02c-.03.37-.07.37-.1 0-.68.04-5.22-.48-7.1.04 1.07.41 1.49.89 2.36 1.51 2.59 1.84 7.12 1.84 9.57 0 .85-.64 1.29-1.1 2.36-1.51-1.87-.52-6.41 0-7.09-.04z" fill="#d1d3d4"/><path d="M75.95 95.98C71.47 92 69.98 88.83 64 88.83c-5.64 0-7.47 3.16-11.95 7.15-3.37 2.99-3.26 10.86 2.31 12.91 2.99 1.1 6.52.86 9.64.71 3.13.15 6.66.39 9.64-.71 5.58-2.05 5.68-9.92 2.31-12.91z" fill="#fff"/><path d="M71.85 101.98c-2.99 4.7-3.52 6-7.85 6s-4.97-1.36-7.85-6c-1.75-2.82 0-6 7.85-6s9.63 3.2 7.85 6z" fill="#2f2f2f"/><g><ellipse transform="rotate(-28.962 49.277 75.271)" cx="49.28" cy="75.27" rx="5.69" ry="8.62" fill="#fff"/><ellipse transform="rotate(-28.962 50.61 75.987)" cx="50.61" cy="75.98" rx="3.4" ry="3.88" fill="#2f2f2f"/><g><ellipse transform="rotate(-61.038 78.73 75.273)" cx="78.72" cy="75.27" rx="8.62" ry="5.69" fill="#fff"/><ellipse transform="rotate(-61.038 77.397 75.988)" cx="77.39" cy="75.98" rx="3.88" ry="3.4" fill="#2f2f2f"/></g></g></svg>