<svg width="128" height="128" style="enable-background:new 0 0 128 128;" xmlns="http://www.w3.org/2000/svg" xmlns:xlink="http://www.w3.org/1999/xlink">
  <g id="Layer_1">
    <g id="XMLID_17_">
      <linearGradient id="SVGID_1_" gradientTransform="matrix(0.9876 0.1567 -0.1567 0.9876 11.6124 -8.2272)" gradientUnits="userSpaceOnUse" x1="55.6235" x2="55.6235" y1="54.623" y2="82.4474">
        <stop offset="0" style="stop-color:#FFB300"/>
        <stop offset="0.4007" style="stop-color:#FFCA28"/>
      </linearGradient>
      <path d="M61.98,83.21c-1.02,0-2-0.57-2.37-1.38L47.23,55.75l0.68-2.32l6.99,0.51 c0.77,2.58,3.55,11.79,4.84,14.78l4.38,10.99c0.51,1.13,0.05,2.6-0.96,3.19C62.82,83.1,62.41,83.21,61.98,83.21z" style="fill:url(#SVGID_1_);"/>
      <path d="M48.64,54.49l5.5,0.4c0.97,3.23,3.45,11.36,4.67,14.21l4.38,10.99c0.01,0.03,0.02,0.06,0.04,0.08 c0.28,0.63,0.01,1.54-0.57,1.87c-0.19,0.11-0.42,0.17-0.68,0.17c-0.63,0-1.25-0.34-1.47-0.82L48.3,55.66L48.64,54.49 M47.18,52.38 l-1.01,3.46l12.54,26.41c0.57,1.23,1.93,1.96,3.28,1.96c0.58,0,1.17-0.14,1.68-0.43c1.47-0.85,2.09-2.88,1.39-4.43l-4.39-11.02 c-1.47-3.4-5-15.33-5-15.33L47.18,52.38L47.18,52.38z" style="fill:#EDA600;"/>
    </g>
    <g>
      <g>
        <linearGradient id="SVGID_2_" gradientUnits="userSpaceOnUse" x1="4.1862" x2="22.5625" y1="86.4544" y2="55.8272">
          <stop offset="0.5993" style="stop-color:#FFCA28"/>
          <stop offset="1" style="stop-color:#FFB300"/>
        </linearGradient>
        <path d="M5.13,86.97c-0.57,0-1.49-0.85-1.66-1.18c-0.16-0.31-0.62-1.54,0.12-4.35 c0.63-2.38,1.03-2.95,2.79-4.74c0.04-0.04,0.08-0.09,0.11-0.14c1.93-2.85,6.17-9.17,6.17-9.17c0.03-0.05,0.06-0.1,0.08-0.15 l5.72-12.7l7.99,0.49l-0.22,2.79L11.27,78.84c-0.09,0.13-0.15,0.27-0.17,0.43l-0.62,4.01c-0.5,0.83-1.11,1.77-1.4,2.14 c0-0.03,0-0.07,0-0.12c0.02-0.36,0.14-0.78,0.24-1.14c0.19-0.66,0.37-1.29,0.04-1.85c-0.18-0.3-0.46-0.51-0.81-0.59 c-0.12-0.03-0.23-0.04-0.35-0.04c-1.33,0-1.69,1.49-2.04,2.93c-0.2,0.83-0.48,1.96-0.84,2.29C5.26,86.95,5.21,86.97,5.13,86.97z" style="fill:url(#SVGID_2_);"/>
        <path d="M19.09,55.58l6.29,0.39l-0.12,1.5L10.45,78.26c-0.18,0.25-0.3,0.55-0.35,0.86l-0.33,2.15 c-0.28-0.25-0.62-0.43-0.99-0.52c-0.19-0.05-0.39-0.07-0.58-0.07c-2.11,0-2.63,2.13-3.01,3.69c-0.09,0.37-0.23,0.96-0.38,1.38 c-0.18-0.14-0.37-0.31-0.46-0.44c-0.08-0.18-0.43-1.2,0.21-3.61c0.58-2.19,0.86-2.58,2.54-4.3c0.08-0.09,0.16-0.18,0.23-0.28 c1.93-2.85,6.17-9.18,6.17-9.18c0.06-0.09,0.12-0.19,0.16-0.29L19.09,55.58 M17.83,53.5c0,0-4.5,10-6,13.33 c0,0-4.24,6.32-6.17,9.17c-1.88,1.92-2.36,2.62-3.04,5.19c-0.75,2.83-0.4,4.38-0.04,5.06c0.27,0.53,1.48,1.72,2.55,1.72 c0.31,0,0.61-0.1,0.87-0.34c1.2-1.11,1.15-4.95,2.2-4.95c0.04,0,0.07,0,0.11,0.01c0.6,0.15-0.16,1.36-0.23,2.56 c-0.05,0.87,0.42,1.22,0.93,1.22c0.19,0,0.39-0.05,0.57-0.14c0.33-0.17,1.85-2.71,1.85-2.71l0.65-4.21l15.13-21.24l0.32-4.08 L17.83,53.5L17.83,53.5z" style="fill:#EDA600;"/>
      </g>
      <g>
        <linearGradient id="SVGID_3_" gradientUnits="userSpaceOnUse" x1="2.6512" x2="2.6875" y1="84.0657" y2="84.0657">
          <stop offset="0" style="stop-color:#FFB300"/>
          <stop offset="0.4007" style="stop-color:#FFCA28"/>
        </linearGradient>
        <path d="M2.66,84.19c0.02-0.15,0.03-0.26,0.03-0.26S2.64,84.21,2.66,84.19z" style="fill:url(#SVGID_3_);"/>
        <path d="M2.69,83.94L2.69,83.94L2.69,83.94z M2.69,83.94c0,0-0.05,0.26-0.03,0.26c0,0,0,0,0,0 C2.67,84.04,2.69,83.94,2.69,83.94L2.69,83.94z" style="fill:#EDA600;"/>
      </g>
    </g>
    <g>
      <g>
        <linearGradient id="SVGID_5_" gradientUnits="userSpaceOnUse" x1="106.2022" x2="123.1645" y1="57.9892" y2="86.1419">
          <stop offset="0" style="stop-color:#FFB300"/>
          <stop offset="0.4007" style="stop-color:#FFCA28"/>
        </linearGradient>
        <path d="M122.33,86.97c-0.08,0-0.13-0.02-0.19-0.08c-0.36-0.33-0.64-1.46-0.84-2.29 c-0.35-1.44-0.72-2.93-2.04-2.93c-0.12,0-0.23,0.01-0.35,0.04c-0.35,0.08-0.64,0.29-0.81,0.59c-0.33,0.57-0.15,1.19,0.04,1.85 c0.1,0.37,0.22,0.78,0.24,1.14c0,0.04,0,0.08,0,0.11c-0.29-0.37-0.89-1.31-1.4-2.14l-0.62-4.01c-0.02-0.15-0.08-0.3-0.17-0.43 l-14.97-21.01l-0.22-2.79l7.99-0.49l5.72,12.7c0.02,0.05,0.05,0.1,0.08,0.15c0,0,4.24,6.32,6.17,9.17 c0.03,0.05,0.07,0.09,0.11,0.14c1.76,1.8,2.16,2.36,2.79,4.74c0.74,2.81,0.28,4.04,0.12,4.35 C123.83,86.11,122.91,86.97,122.33,86.97z" style="fill:url(#SVGID_5_);"/>
        <path d="M108.37,55.58l5.43,12.07c0.05,0.1,0.1,0.2,0.16,0.29c0,0,4.24,6.33,6.17,9.18 c0.07,0.1,0.14,0.19,0.23,0.28c1.68,1.72,1.96,2.11,2.54,4.3c0.64,2.41,0.29,3.42,0.21,3.61c-0.09,0.13-0.28,0.3-0.46,0.44 c-0.15-0.42-0.29-1.01-0.38-1.38c-0.38-1.56-0.9-3.69-3.01-3.69h0c-0.19,0-0.39,0.02-0.58,0.07c-0.38,0.09-0.72,0.27-0.99,0.52 l-0.33-2.15c-0.05-0.31-0.17-0.6-0.35-0.86L102.2,57.47l-0.12-1.5L108.37,55.58 M109.63,53.5l-9.7,0.6l0.32,4.08l15.13,21.24 l0.65,4.21c0,0,1.52,2.54,1.85,2.71c0.18,0.09,0.37,0.14,0.57,0.14c0.51,0,0.98-0.35,0.93-1.22c-0.07-1.2-0.83-2.42-0.23-2.56 c0.04-0.01,0.08-0.01,0.11-0.01c1.05,0,1,3.84,2.2,4.95c0.26,0.24,0.56,0.34,0.87,0.34c1.07,0,2.27-1.18,2.55-1.72 c0.35-0.69,0.71-2.23-0.04-5.06c-0.68-2.57-1.17-3.27-3.04-5.19c-1.93-2.85-6.17-9.17-6.17-9.17 C114.13,63.5,109.63,53.5,109.63,53.5L109.63,53.5z" style="fill:#EDA600;"/>
      </g>
      <g>
        <linearGradient id="SVGID_6_" gradientTransform="matrix(-1 0 0 1 220.7131 0)" gradientUnits="userSpaceOnUse" x1="95.9012" x2="95.9375" y1="84.0657" y2="84.0657">
          <stop offset="0" style="stop-color:#FFB300"/>
          <stop offset="0.4007" style="stop-color:#FFCA28"/>
        </linearGradient>
        <path d="M124.81,84.19c-0.02-0.15-0.03-0.26-0.03-0.26S124.83,84.21,124.81,84.19z" style="fill:url(#SVGID_6_);"/>
        <path d="M124.78,83.94c0,0,0.02,0.11,0.03,0.26c0,0,0,0,0,0C124.82,84.19,124.78,83.94,124.78,83.94 L124.78,83.94z" style="fill:#EDA600;"/>
      </g>
    </g>
    <linearGradient id="SVGID_7_" gradientTransform="matrix(0.9898 0.1422 -0.1422 0.9898 12.7853 -8.0408)" gradientUnits="userSpaceOnUse" x1="57.4755" x2="67.0632" y1="84.747" y2="84.747">
      <stop offset="0" style="stop-color:#FFB300"/>
      <stop offset="0.4007" style="stop-color:#FFCA28"/>
    </linearGradient>
    <path d=" M67.08,85.42c0,1.58-0.94,0.62-1.58,1.08c-0.64,0.46-0.79,1.12-1.96,1.46c-0.97,0.28-1.77-0.39-2.21-0.12 c-0.65,0.4-0.3,0.6-1.08,0.83c-2,0.58-2.25-1.67-2.08-2.25c0.65-2.29-0.95,0.49-0.67-1.5s3.34-4.57,5.42-4.58 C64.84,80.32,67.08,82.28,67.08,85.42z" style="fill:url(#SVGID_7_);stroke:#EDA600;stroke-width:2;stroke-linecap:round;stroke-linejoin:round;stroke-miterlimit:10;"/>
    <g>
      <linearGradient id="SVGID_8_" gradientUnits="userSpaceOnUse" x1="59.1204" x2="76.6667" y1="86.884" y2="60.0347">
        <stop offset="0.5993" style="stop-color:#FFCA28"/>
        <stop offset="1" style="stop-color:#FFB300"/>
      </linearGradient>
      <path d="M58.5,88.17c-0.86,0-1.39-0.75-2.05-1.81c-0.16-0.26-0.31-0.5-0.46-0.7 c-1.35-1.85-1.01-2.59-0.38-3.44c1.33-1.78,3.08-3.14,4.49-4.24c0.42-0.32,0.8-0.62,1.12-0.88c0.09-0.08,0.17-0.17,0.23-0.28 l4.71-8.4c1.73-2.72,5.15-10.97,6.12-13.34l7.33,0.01l-0.22,2.78L66.39,79.99c-0.15,0.26-0.18,0.58-0.07,0.87 c1.84,4.76,1.28,5.06,0.51,5.46c-0.02,0-0.05,0-0.07,0c-0.17,0-0.32-0.03-0.49-0.08c-0.11-0.17-0.23-0.64-0.3-0.94 c-0.22-0.85-0.55-2.14-1.82-2.14c-0.04,0-0.15,0.01-0.18,0.01c-1.42,0.17-1.89,1.11-2.38,2.1c-0.22,0.44-0.46,0.93-0.84,1.52 c-0.89,1.38-1.26,1.38-1.83,1.38L58.5,88.17z" style="fill:url(#SVGID_8_);"/>
      <path d="M72.95,56.09l5.58,0.01l-0.11,1.47l-12.9,21.92c-0.31,0.53-0.36,1.16-0.14,1.73 c0.28,0.72,0.49,1.32,0.66,1.81c-0.41-0.5-1.01-0.87-1.89-0.87c-0.1,0-0.2,0.01-0.3,0.02c-1.96,0.23-2.66,1.63-3.16,2.65 c-0.21,0.41-0.44,0.88-0.79,1.42c-0.49,0.76-0.73,0.91-0.72,0.91l0,0c-0.02,0-0.08,0.01-0.27,0.01l-0.18,0l-0.24,0 c-0.37,0-0.85-0.77-1.2-1.34c-0.16-0.26-0.32-0.52-0.5-0.76c-1.02-1.4-0.81-1.68-0.38-2.25c1.24-1.67,2.94-2.99,4.3-4.04 c0.43-0.33,0.82-0.63,1.15-0.91c0.19-0.16,0.34-0.34,0.46-0.56l4.68-8.35C68.68,66.3,71.74,59.03,72.95,56.09 M59.18,87.16 L59.18,87.16L59.18,87.16 M71.61,54.08c0,0-4.34,10.72-6.32,13.85l-4.71,8.4c-1.4,1.17-3.96,2.85-5.77,5.29 c-0.92,1.24-1.21,2.46,0.37,4.63c0.69,0.94,1.48,2.92,3.31,2.92c0.14,0,0.28,0,0.42,0c0.87,0,1.56-0.12,2.67-1.84 c1.25-1.94,1.19-3.01,2.5-3.17c0.02,0,0.05,0,0.07,0c0.98,0,0.69,2.66,1.73,3c0.29,0.1,0.59,0.17,0.86,0.17 c0.2,0,0.39-0.04,0.56-0.12c1.58-0.83,1.79-1.96-0.04-6.71l13.13-22.32l0.32-4.08L71.61,54.08L71.61,54.08z" style="fill:#EDA600;"/>
    </g>
    <linearGradient id="SVGID_9_" gradientTransform="matrix(0.9716 -0.2365 0.2365 0.9716 -18.3915 16.1133)" gradientUnits="userSpaceOnUse" x1="56.8234" x2="59.6184" y1="85.4098" y2="85.4098">
      <stop offset="0" style="stop-color:#FFB300"/>
      <stop offset="0.4007" style="stop-color:#FFCA28"/>
    </linearGradient>
    <path d=" M57.29,86.79c1.25-1.92,2.17-2.92,2.17-2.92" style="fill:url(#SVGID_9_);stroke:#EDA600;stroke-linecap:round;stroke-linejoin:round;stroke-miterlimit:10;"/>
    <linearGradient id="SVGID_10_" gradientTransform="matrix(0.9716 -0.2365 0.2365 0.9716 -18.3915 16.1133)" gradientUnits="userSpaceOnUse" x1="55.62" x2="58.6578" y1="83.6885" y2="83.6885">
      <stop offset="0" style="stop-color:#FFB300"/>
      <stop offset="0.4007" style="stop-color:#FFCA28"/>
    </linearGradient>
    <path d=" M55.71,85.38c1.25-1.92,2.42-2.92,2.42-2.92" style="fill:url(#SVGID_10_);stroke:#EDA600;stroke-linecap:round;stroke-linejoin:round;stroke-miterlimit:10;"/>
    <g>
      <path d="M60.49,86.51c0.24,0,0.48,0.14,0.59,0.38l0.36,0.78c0.15,0.32,0,0.71-0.32,0.86 c-0.09,0.04-0.18,0.06-0.27,0.06c-0.25,0-0.48-0.14-0.59-0.38l-0.36-0.78c-0.15-0.32,0-0.71,0.32-0.86 C60.31,86.53,60.41,86.51,60.49,86.51 M60.49,85.61c-0.22,0-0.44,0.05-0.64,0.14c-0.77,0.35-1.11,1.27-0.76,2.04l0.36,0.78 c0.25,0.55,0.8,0.9,1.4,0.9c0.22,0,0.44-0.05,0.64-0.14c0.37-0.17,0.66-0.48,0.8-0.86c0.14-0.39,0.13-0.8-0.04-1.18l-0.36-0.78 C61.65,85.97,61.1,85.61,60.49,85.61L60.49,85.61z" style="fill:#EDA602;"/>
      <path d="M61.69,84.42c0.29,0,0.55,0.18,0.65,0.47l0.46,1.44c0.11,0.35-0.08,0.74-0.44,0.85 c-0.07,0.02-0.14,0.03-0.2,0.03c-0.29,0-0.55-0.18-0.65-0.47l-0.46-1.44c-0.11-0.35,0.08-0.74,0.44-0.85 C61.56,84.43,61.62,84.42,61.69,84.42 M61.69,83.5L61.69,83.5c-0.17,0-0.33,0.03-0.49,0.08c-0.84,0.27-1.31,1.17-1.04,2.02 l0.46,1.44c0.21,0.67,0.83,1.12,1.53,1.12c0.17,0,0.33-0.03,0.49-0.08c0.84-0.27,1.31-1.17,1.04-2.02l-0.46-1.44 C63.01,83.94,62.39,83.5,61.69,83.5L61.69,83.5z" style="fill:#EDA602;"/>
      <path d="M62.79,83.11c0.23,0,0.46,0.12,0.59,0.34l1.19,2.07c0.19,0.32,0.07,0.74-0.25,0.93 c-0.11,0.06-0.22,0.09-0.34,0.09c-0.23,0-0.46-0.12-0.59-0.34l-1.19-2.07c-0.19-0.32-0.07-0.74,0.25-0.93 C62.56,83.14,62.67,83.11,62.79,83.11 M62.79,82.18L62.79,82.18c-0.28,0-0.56,0.07-0.8,0.21c-0.37,0.21-0.64,0.56-0.75,0.97 c-0.11,0.41-0.05,0.85,0.16,1.22l1.19,2.07c0.29,0.49,0.82,0.8,1.39,0.8c0.28,0,0.56-0.07,0.8-0.21 c0.37-0.21,0.64-0.56,0.75-0.97c0.11-0.41,0.05-0.85-0.16-1.22l-1.19-2.07C63.89,82.49,63.36,82.18,62.79,82.18L62.79,82.18z" style="fill:#EDA602;"/>
      <path d="M64.66,82.54c0.27,0,0.52,0.15,0.64,0.41l0.68,1.51c0.16,0.35,0,0.76-0.35,0.92l-0.1,0.04 c-0.09,0.04-0.19,0.06-0.28,0.06c-0.27,0-0.52-0.15-0.64-0.41l-0.68-1.51c-0.16-0.35,0-0.76,0.35-0.92l0.1-0.04 C64.47,82.56,64.57,82.54,64.66,82.54 M64.66,81.61c-0.23,0-0.45,0.05-0.66,0.14l-0.1,0.04c-0.82,0.37-1.18,1.33-0.81,2.15 l0.68,1.51c0.26,0.58,0.84,0.96,1.48,0.96c0.23,0,0.45-0.05,0.66-0.14l0.1-0.04c0.39-0.18,0.7-0.5,0.85-0.9 c0.15-0.41,0.14-0.85-0.04-1.24l-0.68-1.51C65.89,81.99,65.3,81.61,64.66,81.61L64.66,81.61z" style="fill:#EDA602;"/>
    </g>
    <path d="M61.17,88.1L61.17,88.1c-0.35,0.16-0.76,0.01-0.92-0.34l-0.18-0.4c-0.16-0.35-0.01-0.76,0.34-0.92 h0c0.35-0.16,0.76-0.01,0.92,0.34l0.18,0.4C61.67,87.53,61.51,87.94,61.17,88.1z" style="fill:#FFCA28;"/>
    <path d="M62.72,87.27L62.72,87.27c-0.33,0.16-0.74,0.02-0.91-0.31l-0.66-1.36 c-0.16-0.33-0.02-0.74,0.31-0.91l0,0c0.33-0.16,0.74-0.02,0.91,0.31l0.66,1.36C63.19,86.7,63.05,87.11,62.72,87.27z" style="fill:#FFCA28;"/>
    <path d="M64.42,86.44L64.42,86.44c-0.33,0.17-0.74,0.04-0.91-0.29l-1.1-2.12 c-0.17-0.33-0.04-0.74,0.29-0.91l0,0c0.33-0.17,0.74-0.04,0.91,0.29l1.1,2.12C64.88,85.86,64.75,86.27,64.42,86.44z" style="fill:#FFCA28;"/>
    <path d="M66.05,85.5l-0.04,0.02c-0.34,0.17-0.76,0.03-0.93-0.31l-0.92-1.84c-0.17-0.34-0.03-0.76,0.31-0.93 l0.04-0.02c0.34-0.17,0.76-0.03,0.93,0.31l0.92,1.84C66.53,84.91,66.39,85.33,66.05,85.5z" style="fill:#FFCA28;"/>
    <g>
      <radialGradient id="SVGID_11_" cx="91.353" cy="-2.078" gradientUnits="userSpaceOnUse" r="21.7899">
        <stop offset="0" style="stop-color:#6D4C41"/>
        <stop offset="1" style="stop-color:#543930"/>
      </radialGradient>
      <path d="M91.49,4C73.3,4,73.45,20.82,73.45,21.08c0,10.89,0.83,26.28,5.19,32.33 c1.73,2.4,5.07,2.53,5.07,2.53l7.53-0.01l7.53,0.01c0,0,3.34-0.13,5.07-2.53c4.36-6.05,5.19-21.44,5.19-32.33 C109.02,20.82,109.68,4,91.49,4z" style="fill:url(#SVGID_11_);"/>
    </g>
    <path d="M91.49,6c4.99,0,8.84,1.36,11.47,4.05c4.07,4.15,4.04,10.28,4.04,10.96c0,0.01,0,0.05,0,0.07 c0,15.78-1.7,26.85-4.8,31.16c-1.06,1.47-3.25,1.68-3.5,1.7l-7.47-0.01l-7.47,0.01c-0.25-0.02-2.45-0.24-3.5-1.7 c-3.1-4.31-4.81-15.38-4.81-31.17c0-0.27,0.03-6.63,4.34-10.94C82.52,7.39,86.46,6,91.49,6 M91.49,4 C73.3,4,73.45,20.82,73.45,21.08c0,10.89,0.83,26.28,5.19,32.33c1.73,2.4,5.07,2.53,5.07,2.53l7.53-0.01l7.53,0.01 c0,0,3.34-0.13,5.07-2.53c4.36-6.05,5.19-21.44,5.19-32.33C109.02,20.82,109.68,4,91.49,4L91.49,4z" style="fill:#402821;"/>
    <linearGradient id="SVGID_12_" gradientUnits="userSpaceOnUse" x1="36.1114" x2="36.1114" y1="122.6899" y2="78.0066">
      <stop offset="1.058344e-03" style="stop-color:#616161"/>
      <stop offset="0.446" style="stop-color:#6B6B6B"/>
      <stop offset="1" style="stop-color:#6E6E6E"/>
    </linearGradient>
    <path d="M22.13,78.01v44.68h5.65l7.87-38.21c0.04-0.24,0.24-0.41,0.46-0.41 c0.22,0,0.42,0.17,0.46,0.41l7.87,38.21h5.65V78.01H22.13z" style="fill:url(#SVGID_12_);"/>
    <g>
      <path d="M45.19,121.69l-7.71-37.41c-0.13-0.69-0.73-1.2-1.44-1.2s-1.31,0.51-1.44,1.22l-7.7,37.39h-3.83 V75.61h25.95v46.08H45.19z" style="fill:#616161;"/>
      <path d="M48.02,76.61v44.08H46l-7.53-36.58c-0.22-1.18-1.24-2.04-2.43-2.04s-2.2,0.86-2.42,2l-7.54,36.61 h-2.02V76.61H48.02 M50.02,74.61H22.07v48.08h5.65l7.87-38.21c0.04-0.24,0.24-0.41,0.46-0.41c0.22,0,0.42,0.17,0.46,0.41 l7.87,38.21h5.65V74.61L50.02,74.61z" style="fill:#4F4F4F;"/>
    </g>
    <g>
      <path d="M25.13,124h-4.45c-0.82-0.02-1.41-0.96-1.17-1.78c0.74-2.49,2.99-4.32,5.62-4.32 c2.68,0,4.96,1.9,5.66,4.46c0.22,0.82-0.39,1.63-1.21,1.63H25.13z" style="fill:#2B2D2D;"/>
      <path d="M47.18,124h4.45c0.82-0.02,1.41-0.96,1.17-1.78c-0.74-2.49-2.99-4.32-5.62-4.32 c-2.68,0-4.96,1.9-5.66,4.46c-0.22,0.82,0.39,1.63,1.21,1.63H47.18z" style="fill:#2B2D2D;"/>
    </g>
    <g>
      <linearGradient id="SVGID_13_" gradientUnits="userSpaceOnUse" x1="36.0444" x2="36.0444" y1="45" y2="77">
        <stop offset="0" style="stop-color:#00BFA5"/>
        <stop offset="0.7047" style="stop-color:#00B29A"/>
        <stop offset="1" style="stop-color:#00AB94"/>
      </linearGradient>
      <path d="M23,77V59.72c0-0.41-0.25-0.78-0.64-0.93l-7.35-2.84c2.11-5.5,4.09-8.27,10.64-10.01 c2.3-0.61,6.43-0.93,10.27-0.93h0.16c3.87,0,8.01,0.32,10.32,0.93c6.59,1.75,8.58,4.57,10.68,10.06l-7.44,2.82 c-0.39,0.15-0.64,0.5-0.64,0.91V77H23z" style="fill:url(#SVGID_13_);"/>
      <path d="M36.08,46c3.79,0,7.83,0.31,10.06,0.9c5.81,1.55,7.75,3.86,9.64,8.52l-6.5,2.46 c-0.77,0.3-1.29,1.02-1.29,1.84V76H24V59.72c0-0.83-0.51-1.57-1.28-1.87l-6.42-2.48c1.92-4.76,3.79-6.93,9.6-8.48 c2.23-0.59,6.25-0.9,10.01-0.9H36h0 M36.08,44c-0.03,0-0.05,0-0.08,0c-0.03,0-0.05,0-0.08,0c-3.98,0-8.13,0.33-10.53,0.97 c-7.55,2.01-9.42,5.51-11.67,11.6L22,59.72V78h28V59.72l8.37-3.2c-2.25-6.09-4.17-9.55-11.71-11.55 C44.26,44.33,40.06,44,36.08,44L36.08,44z" style="fill:#009984;"/>
    </g>
    <g id="XMLID_133_">
      <path d="M35.66,49.85c-2.23,0-4.04-1.72-4.04-3.84v-4.8h9v4.8c0,2.12-1.82,3.84-4.05,3.84H35.66z" style="fill:#E49800;"/>
      <path d="M40.11,41.72v4.3c0,1.84-1.59,3.34-3.55,3.34h-0.91c-1.95,0-3.55-1.5-3.55-3.34v-4.3h4H40.11 M41.11,40.72h-5h-5v5.3c0,2.4,2.04,4.34,4.55,4.34h0.91c2.51,0,4.55-1.94,4.55-4.34V40.72L41.11,40.72z" style="fill:#C78500;"/>
    </g>
    <g>
      <defs>
        <rect id="SVGID_14_" height="40" width="40" x="16.09" y="4"/>
      </defs>
      <clipPath id="SVGID_15_">
        <use style="overflow:visible;" xlink:href="#SVGID_14_"/>
      </clipPath>
      <g style="clip-path:url(#SVGID_15_);">
        <g>
          <path d="M24.12,33.84c-2.31,0-4.19-2.02-4.19-4.5s1.88-4.5,4.19-4.5h23.95c2.31,0,4.19,2.02,4.19,4.5 s-1.88,4.5-4.19,4.5H24.12z" style="fill:#E59600;"/>
          <path d="M48.06,25.34c2.04,0,3.69,1.79,3.69,4s-1.66,4-3.69,4h-3.23H27.35h-3.23 c-2.04,0-3.69-1.79-3.69-4s1.66-4,3.69-4h3.23h17.49H48.06 M48.06,24.34h-3.23H27.35h-3.23c-2.58,0-4.69,2.25-4.69,5 s2.11,5,4.69,5h3.23h17.49h3.23c2.58,0,4.69-2.25,4.69-5S50.64,24.34,48.06,24.34L48.06,24.34z" style="fill:#CC8600;"/>
        </g>
        <g>
          <linearGradient id="SVGID_16_" gradientUnits="userSpaceOnUse" x1="36.041" x2="36.041" y1="7.0222" y2="43.5119">
            <stop offset="0.5993" style="stop-color:#FFCA28"/>
            <stop offset="1" style="stop-color:#FFB300"/>
          </linearGradient>
          <path d="M36.04,43.49c-6.83,0-14.19-5.3-14.19-16.94c0-9.32,5.42-19.39,14.19-19.39 s14.19,10.06,14.19,19.39C50.23,38.19,42.87,43.49,36.04,43.49z" style="fill:url(#SVGID_16_);"/>
          <path d="M36.04,7.66L36.04,7.66c3.44,0,6.87,1.88,9.41,5.16c2.76,3.55,4.27,8.43,4.27,13.73 c0,5.15-1.48,9.44-4.29,12.41c-2.46,2.6-5.8,4.03-9.4,4.03s-6.94-1.43-9.4-4.03c-2.81-2.97-4.29-7.26-4.29-12.41 c0-5.3,1.52-10.18,4.27-13.73C29.17,9.54,32.6,7.66,36.04,7.66 M36.04,6.66L36.04,6.66c-7.63,0-14.69,8.15-14.69,19.89 c0,11.67,7.28,17.44,14.69,17.44c7.41,0,14.69-5.77,14.69-17.44C50.73,14.81,43.67,6.66,36.04,6.66L36.04,6.66z" style="fill:#EDA600;"/>
        </g>
        <g>
          <path d="M25.57,24.47c0,0,0.06-0.08,0.17-0.22c0.03-0.03,0.05-0.07,0.09-0.11 c0.05-0.05,0.1-0.09,0.16-0.15c0.06-0.05,0.12-0.11,0.19-0.17c0.07-0.06,0.14-0.1,0.21-0.15c0.07-0.05,0.15-0.1,0.23-0.15 c0.09-0.05,0.17-0.09,0.26-0.14c0.09-0.05,0.19-0.09,0.29-0.13c0.1-0.04,0.2-0.08,0.31-0.12c0.22-0.06,0.44-0.13,0.67-0.16 c0.23-0.05,0.47-0.05,0.71-0.06c0.24,0.01,0.48,0.02,0.71,0.06c0.23,0.03,0.46,0.1,0.67,0.16c0.11,0.04,0.21,0.08,0.31,0.12 c0.1,0.04,0.2,0.08,0.29,0.13c0.09,0.05,0.18,0.1,0.26,0.14c0.08,0.05,0.16,0.1,0.23,0.15c0.07,0.05,0.14,0.1,0.21,0.15 c0.06,0.05,0.12,0.11,0.17,0.15c0.05,0.05,0.1,0.09,0.15,0.14c0.04,0.05,0.08,0.09,0.11,0.13c0.13,0.16,0.2,0.25,0.2,0.25 c0.22,0.31,0.15,0.74-0.16,0.96c-0.19,0.14-0.42,0.16-0.63,0.09l-0.13-0.04c0,0-0.08-0.03-0.21-0.09 c-0.03-0.01-0.07-0.03-0.11-0.05c-0.04-0.01-0.08-0.03-0.13-0.05c-0.09-0.04-0.19-0.08-0.31-0.11 c-0.06-0.02-0.11-0.04-0.17-0.06c-0.06-0.01-0.12-0.03-0.19-0.05c-0.03-0.01-0.06-0.02-0.1-0.03c-0.03-0.01-0.07-0.01-0.1-0.02 c-0.07-0.01-0.14-0.03-0.21-0.04c-0.14-0.02-0.29-0.05-0.44-0.05c-0.15-0.02-0.3-0.01-0.45-0.02c-0.15,0.01-0.3,0-0.45,0.02 c-0.15,0.01-0.29,0.04-0.44,0.05c-0.07,0.01-0.14,0.03-0.21,0.04c-0.03,0.01-0.07,0.01-0.1,0.02c-0.03,0.01-0.06,0.02-0.1,0.03 c-0.06,0.02-0.13,0.03-0.19,0.05c-0.06,0.02-0.12,0.04-0.17,0.06c-0.06,0.02-0.11,0.03-0.16,0.05 c-0.05,0.02-0.09,0.03-0.13,0.04c-0.04,0.01-0.08,0.03-0.12,0.04c-0.04,0.02-0.09,0.04-0.13,0.06 c-0.16,0.08-0.25,0.12-0.25,0.12c-0.36,0.15-0.78-0.02-0.93-0.38C25.41,24.92,25.44,24.66,25.57,24.47z" style="fill:#6D4C41;"/>
          <path d="M45.75,25.53c0,0-0.09-0.04-0.25-0.12c-0.04-0.02-0.08-0.05-0.13-0.06 c-0.04-0.01-0.08-0.02-0.12-0.04c-0.04-0.01-0.08-0.03-0.13-0.04c-0.05-0.02-0.1-0.03-0.16-0.05 c-0.06-0.02-0.11-0.04-0.17-0.06c-0.06-0.02-0.12-0.03-0.19-0.05c-0.03-0.01-0.06-0.02-0.1-0.03c-0.03-0.01-0.07-0.01-0.1-0.02 c-0.07-0.01-0.14-0.03-0.21-0.04c-0.14-0.02-0.29-0.05-0.44-0.05c-0.15-0.02-0.3-0.02-0.45-0.02c-0.15,0.01-0.3,0-0.45,0.02 c-0.15,0.01-0.29,0.04-0.44,0.05c-0.07,0.01-0.14,0.03-0.21,0.04c-0.03,0.01-0.07,0.01-0.1,0.02c-0.03,0.01-0.06,0.02-0.1,0.03 c-0.06,0.02-0.13,0.03-0.19,0.05c-0.06,0.02-0.12,0.04-0.17,0.06c-0.11,0.03-0.22,0.07-0.31,0.11 c-0.05,0.02-0.09,0.04-0.13,0.05c-0.04,0.02-0.07,0.03-0.11,0.05c-0.13,0.06-0.21,0.09-0.21,0.09l-0.12,0.04 c-0.36,0.13-0.75-0.06-0.88-0.42c-0.08-0.22-0.03-0.45,0.09-0.63c0,0,0.07-0.09,0.2-0.25c0.03-0.04,0.07-0.08,0.11-0.13 c0.04-0.04,0.09-0.09,0.15-0.14c0.05-0.05,0.11-0.1,0.17-0.15c0.06-0.05,0.13-0.1,0.21-0.15c0.07-0.05,0.15-0.1,0.23-0.15 c0.09-0.05,0.17-0.09,0.26-0.14c0.09-0.05,0.19-0.09,0.29-0.13c0.1-0.04,0.2-0.08,0.31-0.12c0.22-0.06,0.44-0.13,0.67-0.16 c0.23-0.05,0.47-0.05,0.71-0.06c0.24,0.01,0.48,0.02,0.71,0.06c0.23,0.03,0.46,0.1,0.67,0.16c0.11,0.04,0.21,0.08,0.31,0.12 c0.1,0.04,0.2,0.08,0.29,0.13c0.09,0.05,0.18,0.1,0.26,0.14c0.08,0.05,0.16,0.1,0.23,0.15c0.07,0.05,0.14,0.1,0.21,0.15 c0.07,0.06,0.13,0.11,0.19,0.17c0.06,0.05,0.11,0.1,0.16,0.15c0.04,0.04,0.07,0.08,0.09,0.11c0.11,0.14,0.17,0.22,0.17,0.22 c0.22,0.32,0.14,0.76-0.19,0.98C46.22,25.6,45.96,25.61,45.75,25.53z" style="fill:#6D4C41;"/>
        </g>
        <g>
          <ellipse cx="28.89" cy="28.45" rx="2.16" ry="2.24" style="fill:#404040;"/>
          <ellipse cx="43.29" cy="28.45" rx="2.16" ry="2.24" style="fill:#404040;"/>
        </g>
        <g>
          <radialGradient id="SVGID_17_" cx="36.1372" cy="5.1422" gradientUnits="userSpaceOnUse" r="13.3159">
            <stop offset="0" style="stop-color:#6D4C41"/>
            <stop offset="1" style="stop-color:#543930"/>
          </radialGradient>
          <path d="M36.21,4.01c-20.07,0-15.85,23.06-15.85,23.06s2.11,3.73,2.11,3.65 c-0.07-3.18,1.2-8.8,2.1-11.2c0.45-1.21,1.71-1.91,2.98-1.68c1.95,0.35,5.06,0.79,8.49,0.79c3.29,0,6.32-0.4,8.3-0.75 c1.36-0.24,2.68,0.6,3.03,1.93l2.49,10.9l2.06-3.98C51.92,26.73,56.03,4.01,36.21,4.01z" style="fill:url(#SVGID_17_);"/>
        </g>
        <g>
          <defs>
            <path id="SVGID_18_" d="M36.21,4.01c-20.07,0-16.1,22.49-16.1,22.49s2.37,4.3,2.37,4.22c-0.02-0.68,0.42-3.49,0.42-3.49v0 c-0.77-1.47-1.18-3.11-1.18-4.78v-0.49l1.18-4.38l13.21-8.15l13.02,8.09l1.1,5.05l0.04,0.46c-0.18,1.47-0.63,2.81-1.19,4.18v0 l0.78,3.52l2.11-4.18C51.98,26.54,56.03,4.01,36.21,4.01z"/>
          </defs>
          <clipPath id="SVGID_19_">
            <use style="overflow:visible;" xlink:href="#SVGID_18_"/>
          </clipPath>
          <g style="clip-path:url(#SVGID_19_);">
            <path d="M36.21,6.01c4.7,0,8.27,1.41,10.6,4.19c3.25,3.88,3.59,9.67,3.43,13.17l-0.91-4 c-0.01-0.02-0.01-0.05-0.02-0.07c-0.55-2.03-2.4-3.45-4.5-3.45c-0.27,0-0.54,0.02-0.8,0.07c-1.89,0.33-4.8,0.72-7.96,0.72 c-3.26,0-6.22-0.41-8.13-0.76c-0.28-0.05-0.56-0.08-0.84-0.08c-1.93,0-3.69,1.21-4.37,3.02c-0.3,0.79-0.64,1.91-0.95,3.18 c0.02-3.42,0.63-8.26,3.52-11.69C27.67,7.46,31.35,6.01,36.21,6.01 M36.21,4.01c-20.07,0-16.15,22.49-16.15,22.49 s2.37,4.22,2.41,4.22c0,0,0,0,0,0c-0.07-3.18,1.2-8.8,2.1-11.2c0.4-1.05,1.4-1.72,2.5-1.72c0.16,0,0.32,0.01,0.48,0.04 c1.95,0.35,5.06,0.79,8.49,0.79c3.29,0,6.32-0.4,8.3-0.75c0.15-0.03,0.31-0.04,0.46-0.04c1.19,0,2.26,0.79,2.57,1.97 l2.49,10.9l2.06-3.98C51.92,26.73,56.03,4.01,36.21,4.01L36.21,4.01z" style="fill:#402821;"/>
          </g>
        </g>
        <g>
          <path d="M39.68,36.43c-1.4,0.83-5.97,0.83-7.37,0c-0.8-0.48-1.62,0.25-1.29,0.98 c0.33,0.72,2.82,2.38,4.98,2.38c2.16,0,4.62-1.66,4.95-2.38C41.29,36.69,40.48,35.96,39.68,36.43z" style="fill:#795548;"/>
          <path d="M37.48,32.4c-0.05-0.02-0.09-0.03-0.14-0.04h-3.1c-0.05,0.01-0.09,0.02-0.14,0.04 c-0.28,0.11-0.44,0.4-0.3,0.71c0.13,0.31,0.75,1.18,1.99,1.18c1.24,0,1.86-0.87,1.99-1.18C37.92,32.81,37.76,32.52,37.48,32.4z" style="fill:#E59600;"/>
        </g>
      </g>
    </g>
    <linearGradient id="SVGID_20_" gradientUnits="userSpaceOnUse" x1="91.1114" x2="91.1114" y1="122.6899" y2="78.0066">
      <stop offset="1.058344e-03" style="stop-color:#616161"/>
      <stop offset="0.446" style="stop-color:#6B6B6B"/>
      <stop offset="1" style="stop-color:#6E6E6E"/>
    </linearGradient>
    <path d="M77.13,78.01v44.68h5.65l7.87-38.21c0.04-0.24,0.24-0.41,0.46-0.41 c0.22,0,0.42,0.17,0.46,0.41l7.87,38.21h5.65V78.01H77.13z" style="fill:url(#SVGID_20_);"/>
    <g>
      <path d="M100.19,121.69l-7.71-37.41c-0.13-0.69-0.73-1.2-1.44-1.2s-1.31,0.51-1.44,1.22l-7.7,37.39h-3.83 V75.61h25.95v46.08H100.19z" style="fill:#616161;"/>
      <path d="M103.02,76.61v44.08H101l-7.53-36.58c-0.22-1.18-1.24-2.04-2.43-2.04s-2.2,0.86-2.42,2 l-7.54,36.61h-2.02V76.61H103.02 M105.02,74.61H77.07v48.08h5.65l7.87-38.21c0.04-0.24,0.24-0.41,0.46-0.41 c0.22,0,0.42,0.17,0.46,0.41l7.87,38.21h5.65V74.61L105.02,74.61z" style="fill:#4F4F4F;"/>
    </g>
    <g>
      <path d="M80.13,124h-4.45c-0.82-0.02-1.41-0.96-1.17-1.78c0.74-2.49,2.99-4.32,5.62-4.32 c2.68,0,4.96,1.9,5.66,4.46c0.22,0.82-0.39,1.63-1.21,1.63H80.13z" style="fill:#2B2D2D;"/>
      <path d="M102.18,124h4.45c0.82-0.02,1.41-0.96,1.17-1.78c-0.74-2.49-2.99-4.32-5.62-4.32 c-2.68,0-4.96,1.9-5.66,4.46c-0.22,0.82,0.39,1.63,1.21,1.63H102.18z" style="fill:#2B2D2D;"/>
    </g>
    <g>
      <linearGradient id="SVGID_21_" gradientUnits="userSpaceOnUse" x1="91.0444" x2="91.0444" y1="45" y2="77">
        <stop offset="0" style="stop-color:#AA00FF"/>
        <stop offset="0.4193" style="stop-color:#A100F2"/>
        <stop offset="1" style="stop-color:#9000D9"/>
      </linearGradient>
      <path d="M78,77V59.72c0-0.41-0.25-0.78-0.64-0.93l-7.35-2.84c2.11-5.5,4.09-8.27,10.64-10.01 c2.3-0.61,6.43-0.93,10.27-0.93h0.16c3.87,0,8.01,0.32,10.32,0.93c6.59,1.75,8.58,4.57,10.68,10.06l-7.44,2.82 c-0.39,0.15-0.64,0.5-0.64,0.91V77H78z" style="fill:url(#SVGID_21_);"/>
      <path d="M91.08,46c3.79,0,7.83,0.31,10.06,0.9c5.81,1.55,7.75,3.86,9.64,8.52l-6.5,2.46 c-0.77,0.3-1.29,1.02-1.29,1.84V76H79V59.72c0-0.83-0.51-1.57-1.28-1.87l-6.42-2.48c1.92-4.76,3.79-6.93,9.6-8.48 c2.23-0.59,6.25-0.9,10.01-0.9H91h0 M91.08,44c-0.03,0-0.05,0-0.08,0c-0.03,0-0.05,0-0.08,0c-3.98,0-8.13,0.33-10.53,0.97 c-7.55,2.01-9.42,5.51-11.67,11.6L77,59.72V78h28V59.72l8.37-3.2c-2.25-6.09-4.17-9.55-11.71-11.55 C99.26,44.33,95.06,44,91.08,44L91.08,44z" style="fill:#7F00BF;"/>
    </g>
    <g id="XMLID_98_">
      <g id="XMLID_116_">
        <path d="M91.13,49.85c-2.23,0-4.05-1.72-4.05-3.84v-4.8h9v4.8c0,2.12-1.81,3.84-4.04,3.84H91.13z" style="fill:#E49800;"/>
        <path d="M95.59,41.72v4.3c0,1.84-1.59,3.34-3.55,3.34h-0.91c-1.95,0-3.55-1.5-3.55-3.34v-4.3h4H95.59 M96.59,40.72h-5h-5v5.3c0,2.4,2.04,4.34,4.55,4.34h0.91c2.51,0,4.55-1.94,4.55-4.34V40.72L96.59,40.72z" style="fill:#C78500;"/>
      </g>
    </g>
    <g>
      <defs>
        <rect id="SVGID_22_" height="55.64" width="40" x="71.5" y="4"/>
      </defs>
      <clipPath id="SVGID_23_">
        <use style="overflow:visible;" xlink:href="#SVGID_22_"/>
      </clipPath>
      <g style="clip-path:url(#SVGID_23_);">
        <g>
          <g>
            <linearGradient id="SVGID_24_" gradientUnits="userSpaceOnUse" x1="91.52" x2="91.52" y1="44.3579" y2="18.274">
              <stop offset="0" style="stop-color:#FFB300"/>
              <stop offset="0.4007" style="stop-color:#FFCA28"/>
            </linearGradient>
            <path d="M91.52,43.47c-1.01,0-2.17-0.22-3.33-0.63c-5.01-1.77-10.86-7.22-10.86-16.75 c0-12.7,7.65-17.2,14.19-17.2c6.55,0,14.19,4.51,14.19,17.2c0,9.54-5.86,14.99-10.88,16.75 C93.67,43.26,92.53,43.47,91.52,43.47z" style="fill:url(#SVGID_24_);"/>
            <path d="M91.52,9.39L91.52,9.39c6.32,0,13.69,4.37,13.69,16.7c0,9.28-5.68,14.57-10.54,16.28 c-1.11,0.39-2.2,0.6-3.15,0.6c-0.96,0-2.05-0.21-3.17-0.6c-4.85-1.72-10.52-7.01-10.52-16.28 C77.83,13.77,85.2,9.39,91.52,9.39 M91.52,8.39L91.52,8.39L91.52,8.39c-7.63,0-14.69,5.67-14.69,17.7 c0,9.66,5.98,15.38,11.19,17.22c1.24,0.44,2.44,0.66,3.5,0.66c1.06,0,2.25-0.22,3.48-0.65c5.21-1.84,11.21-7.55,11.21-17.23 C106.21,14.06,99.15,8.39,91.52,8.39L91.52,8.39z" style="fill:#EDA600;"/>
          </g>
          <radialGradient id="SVGID_25_" cx="93.3697" cy="35.1034" gradientTransform="matrix(0.9783 0 0 0.9783 0.587 3.6957)" gradientUnits="userSpaceOnUse" r="3.859">
            <stop offset="0" style="stop-color:#543930"/>
            <stop offset="0.9916" style="stop-color:#543930"/>
          </radialGradient>
          <path d="M95.62,36.43c-1.4,0.83-5.97,0.83-7.37,0c-0.8-0.48-1.62,0.25-1.29,0.98 c0.33,0.72,2.82,2.38,4.98,2.38s4.62-1.66,4.95-2.38C97.22,36.69,96.42,35.96,95.62,36.43z" style="fill:url(#SVGID_25_);"/>
          <g>
            <ellipse cx="84.39" cy="28.33" rx="2.16" ry="2.24" style="fill:#404040;"/>
            <ellipse cx="98.96" cy="28.33" rx="2.16" ry="2.24" style="fill:#404040;"/>
          </g>
          <path d="M93.37,32.4c-0.05-0.02-0.09-0.03-0.14-0.04h-3.1c-0.05,0.01-0.09,0.02-0.14,0.04 c-0.28,0.11-0.44,0.4-0.3,0.71c0.13,0.31,0.75,1.18,1.99,1.18c1.24,0,1.86-0.87,1.99-1.18C93.8,32.81,93.65,32.52,93.37,32.4z" style="fill:#E59600;"/>
          <g>
            <path d="M87.76,24.32c-0.41-0.54-1.36-1.34-3.21-1.34c-1.84,0-2.8,0.79-3.21,1.34 c-0.18,0.24-0.14,0.52-0.01,0.69c0.12,0.16,0.46,0.3,0.84,0.17c0.38-0.13,1.13-0.51,2.37-0.52c1.25,0.01,1.99,0.39,2.37,0.52 c0.38,0.13,0.73-0.02,0.84-0.17C87.9,24.83,87.94,24.56,87.76,24.32z" style="fill:#6D4C41;"/>
            <path d="M102.01,24.32c-0.41-0.54-1.36-1.34-3.21-1.34s-2.8,0.79-3.21,1.34 c-0.18,0.24-0.14,0.52-0.01,0.69c0.12,0.16,0.46,0.3,0.84,0.17c0.38-0.13,1.13-0.51,2.37-0.52c1.25,0.01,1.99,0.39,2.37,0.52 c0.38,0.13,0.73-0.02,0.84-0.17C102.15,24.83,102.19,24.56,102.01,24.32z" style="fill:#6D4C41;"/>
          </g>
          <g>
            <defs>
              <path id="SVGID_26_" d="M77,41.62c0,0-0.89-6.76-0.89-22.81c0-7.32,7-13.24,14.51-13.24h2.19c7.52,0,14.43,5.66,14.43,13.24 c0,16-1.78,22.7-1.78,22.7L77,41.62z"/>
            </defs>
            <clipPath id="SVGID_27_">
              <use style="overflow:visible;" xlink:href="#SVGID_26_"/>
            </clipPath>
          </g>
        </g>
      </g>
    </g>
    <g>
      <defs>
        <rect id="SVGID_28_" height="57.78" width="40" x="71.5" y="4"/>
      </defs>
      <clipPath id="SVGID_29_">
        <use style="overflow:visible;" xlink:href="#SVGID_28_"/>
      </clipPath>
      <g style="clip-path:url(#SVGID_29_);">
        <g>
          <g>
            <linearGradient id="SVGID_30_" gradientUnits="userSpaceOnUse" x1="91.52" x2="91.52" y1="43.2241" y2="18.9472">
              <stop offset="0" style="stop-color:#FFB300"/>
              <stop offset="1" style="stop-color:#FFCA28"/>
            </linearGradient>
            <path d="M91.52,43.47c-1.01,0-2.17-0.22-3.33-0.63c-5.01-1.77-10.86-7.22-10.86-16.75 c0-12.7,7.65-17.2,14.19-17.2c6.55,0,14.19,4.51,14.19,17.2c0,9.54-5.86,14.99-10.88,16.75 C93.67,43.26,92.53,43.47,91.52,43.47z" style="fill:url(#SVGID_30_);"/>
            <path d="M91.52,9.39L91.52,9.39c6.32,0,13.69,4.37,13.69,16.7c0,9.28-5.68,14.57-10.54,16.28 c-1.11,0.39-2.2,0.6-3.15,0.6c-0.96,0-2.05-0.21-3.17-0.6c-4.85-1.72-10.52-7.01-10.52-16.28C77.83,13.77,85.2,9.39,91.52,9.39 M91.52,8.39L91.52,8.39L91.52,8.39c-7.63,0-14.69,5.67-14.69,17.7c0,9.66,5.98,15.38,11.19,17.22 c1.24,0.44,2.44,0.66,3.5,0.66c1.06,0,2.25-0.22,3.48-0.65c5.21-1.84,11.21-7.55,11.21-17.23 C106.21,14.06,99.15,8.39,91.52,8.39L91.52,8.39z" style="fill:#EDA600;"/>
          </g>
          <g>
            <ellipse cx="84.42" cy="28.33" rx="2.16" ry="2.24" style="fill:#404040;"/>
            <ellipse cx="98.83" cy="28.33" rx="2.16" ry="2.24" style="fill:#404040;"/>
          </g>
          <path d="M93.2,32.4c-0.05-0.02-0.09-0.03-0.14-0.04h-3.1c-0.05,0.01-0.09,0.02-0.14,0.04 c-0.28,0.11-0.44,0.4-0.3,0.71c0.13,0.31,0.75,1.18,1.99,1.18c1.24,0,1.86-0.87,1.99-1.18C93.63,32.81,93.48,32.52,93.2,32.4z" style="fill:#E59600;"/>
          <path d="M87.63,24.32c-0.41-0.54-1.36-1.34-3.21-1.34s-2.8,0.79-3.21,1.34 c-0.18,0.24-0.14,0.52-0.01,0.69c0.12,0.16,0.46,0.3,0.84,0.17c0.38-0.13,1.13-0.51,2.37-0.52c1.25,0.01,1.99,0.39,2.37,0.52 c0.38,0.13,0.73-0.02,0.84-0.17C87.76,24.83,87.81,24.56,87.63,24.32z" style="fill:#6D4C41;"/>
          <path d="M102.04,24.32c-0.41-0.54-1.36-1.34-3.21-1.34s-2.8,0.79-3.21,1.34 c-0.18,0.24-0.14,0.52-0.01,0.69c0.12,0.16,0.46,0.3,0.84,0.17c0.38-0.13,1.13-0.51,2.37-0.52c1.25,0.01,1.99,0.39,2.37,0.52 c0.38,0.13,0.73-0.02,0.84-0.17C102.17,24.83,102.22,24.56,102.04,24.32z" style="fill:#6D4C41;"/>
          <g>
            <radialGradient id="SVGID_31_" cx="124.5591" cy="3.4406" gradientTransform="matrix(4.336714e-11 1 -0.9288 4.336714e-11 94.5809 -121.1184)" gradientUnits="userSpaceOnUse" r="16.5144">
              <stop offset="0" style="stop-color:#6D4C41"/>
              <stop offset="1" style="stop-color:#543930"/>
            </radialGradient>
            <path d="M107.07,22.14c0-5.82-3.82-15.59-15.54-15.59c-12.12,0-15.84,11.34-15.84,15.59 c0,12.82,1.15,19.17,2.42,21.79c0.24,0.5,0.96,0.73,1.19-0.47c0,0-0.9-7.77-1-13.31c-0.02-1.29-0.42-6.09,2.29-6.69 c9.92-2.23,15.53-7.49,15.53-7.49c1.46,3.19,6.02,6.29,7.66,7.48c1.35,0.97,1.16,4.97,1.13,6.67l-1.35,13.32 c0,0,0.08,3.17,1.39,0.5C106.26,41.26,107.07,26.44,107.07,22.14z" style="fill:url(#SVGID_31_);"/>
          </g>
          <path d="M95.17,35.99c-1.4,0.83-5.97,0.83-7.37,0c-0.8-0.48-1.62,0.25-1.29,0.98 c0.33,0.72,2.82,2.38,4.98,2.38s4.62-1.66,4.95-2.38C96.78,36.24,95.97,35.51,95.17,35.99z" style="fill:#795548;"/>
        </g>
      </g>
    </g>
  </g>
  <g id="Layer_2" style="display:none;">
    <g style="display:inline;">
      <g style="opacity:0.6;">
        <circle cx="64" cy="64" r="28" style="opacity:0.61;fill:none;stroke:#000000;stroke-width:0.2625;stroke-miterlimit:10;"/>
        <line style="opacity:0.61;fill:none;stroke:#000000;stroke-width:0.25;stroke-miterlimit:10;" x1="84" x2="84" y1="0" y2="128"/>
        <line style="opacity:0.61;fill:none;stroke:#000000;stroke-width:0.25;stroke-miterlimit:10;" x1="44" x2="44" y1="0" y2="128"/>
        <line style="opacity:0.61;fill:none;stroke:#000000;stroke-width:0.25;stroke-miterlimit:10;" x1="64" x2="64" y1="0" y2="128"/>
        <line style="opacity:0.61;fill:none;stroke:#000000;stroke-width:0.25;stroke-miterlimit:10;" x1="128" x2="0" y1="64" y2="64"/>
        <line style="opacity:0.61;fill:none;stroke:#000000;stroke-width:0.25;stroke-miterlimit:10;" x1="128" x2="0" y1="44" y2="44"/>
        <line style="opacity:0.61;fill:none;stroke:#000000;stroke-width:0.25;stroke-miterlimit:10;" x1="128" x2="0" y1="83.75" y2="83.75"/>
        <line style="opacity:0.61;fill:none;stroke:#000000;stroke-width:0.25;stroke-miterlimit:10;" x1="128" x2="0" y1="128" y2="0"/>
        <line style="opacity:0.61;fill:none;stroke:#000000;stroke-width:0.25;stroke-miterlimit:10;" x1="0" x2="128" y1="128" y2="0"/>
        <g style="opacity:0.61;">
          <path d="M64,4.26c32.94,0,59.74,26.8,59.74,59.74S96.94,123.74,64,123.74S4.26,96.94,4.26,64S31.06,4.26,64,4.26 M64,4 C30.86,4,4,30.86,4,64s26.86,60,60,60s60-26.86,60-60S97.14,4,64,4L64,4z"/>
        </g>
        <path d="M107.97,115.97H20.03 c-4.42,0-8.03-3.61-8.03-8.03V20.03c0-4.42,3.61-8.03,8.03-8.03h87.94c4.42,0,8.03,3.61,8.03,8.03v87.91 C116,112.36,112.39,115.97,107.97,115.97z" style="opacity:0.61;fill:none;stroke:#000000;stroke-width:0.2578;stroke-miterlimit:10;"/>
        <path d="M100,124H28c-4.4,0-8-3.6-8-8 V12c0-4.4,3.6-8,8-8h72c4.4,0,8,3.6,8,8v104C108,120.4,104.4,124,100,124z" style="opacity:0.61;fill:none;stroke:#000000;stroke-width:0.2628;stroke-miterlimit:10;"/>
        <path d="M113.77,108H14.23 C8.6,108,4,103.4,4,97.77V30.28c0-5.63,4.6-10.23,10.23-10.23h99.54c5.63,0,10.23,4.6,10.23,10.23v67.48 C124,103.4,119.4,108,113.77,108z" style="opacity:0.61;fill:none;stroke:#000000;stroke-width:0.2627;stroke-miterlimit:10;"/>
      </g>
      <g>
        <g style="opacity:0.2;">
          <defs>
            <rect id="SVGID_4_" height="128" style="opacity:0.2;" width="128" x="0" y="0"/>
          </defs>
          <clipPath id="SVGID_32_">
            <use style="overflow:visible;" xlink:href="#SVGID_4_"/>
          </clipPath>
          <g style="clip-path:url(#SVGID_32_);">
            <g>
              <line style="fill:none;stroke:#000000;stroke-width:0.25;stroke-miterlimit:10;" x1="-28" x2="-28" y1="160" y2="-32"/>
              <line style="fill:none;stroke:#000000;stroke-width:0.25;stroke-miterlimit:10;" x1="-24" x2="-24" y1="160" y2="-32"/>
              <line style="fill:none;stroke:#000000;stroke-width:0.25;stroke-miterlimit:10;" x1="-20" x2="-20" y1="160" y2="-32"/>
              <line style="fill:none;stroke:#000000;stroke-width:0.25;stroke-miterlimit:10;" x1="-16" x2="-16" y1="160" y2="-32"/>
              <line style="fill:none;stroke:#000000;stroke-width:0.25;stroke-miterlimit:10;" x1="-12" x2="-12" y1="160" y2="-32"/>
              <line style="fill:none;stroke:#000000;stroke-width:0.25;stroke-miterlimit:10;" x1="-8" x2="-8" y1="160" y2="-32"/>
              <line style="fill:none;stroke:#000000;stroke-width:0.25;stroke-miterlimit:10;" x1="-4" x2="-4" y1="160" y2="-32"/>
              <line style="fill:none;stroke:#000000;stroke-width:0.25;stroke-miterlimit:10;" x1="0" x2="0" y1="160" y2="-32"/>
              <line style="fill:none;stroke:#000000;stroke-width:0.25;stroke-miterlimit:10;" x1="4" x2="4" y1="160" y2="-32"/>
              <line style="fill:none;stroke:#000000;stroke-width:0.25;stroke-miterlimit:10;" x1="8" x2="8" y1="160" y2="-32"/>
              <line style="fill:none;stroke:#000000;stroke-width:0.25;stroke-miterlimit:10;" x1="12" x2="12" y1="160" y2="-32"/>
              <line style="fill:none;stroke:#000000;stroke-width:0.25;stroke-miterlimit:10;" x1="16" x2="16" y1="160" y2="-32"/>
              <line style="fill:none;stroke:#000000;stroke-width:0.25;stroke-miterlimit:10;" x1="20" x2="20" y1="160" y2="-32"/>
              <line style="fill:none;stroke:#000000;stroke-width:0.25;stroke-miterlimit:10;" x1="24" x2="24" y1="160" y2="-32"/>
              <line style="fill:none;stroke:#000000;stroke-width:0.25;stroke-miterlimit:10;" x1="28" x2="28" y1="160" y2="-32"/>
              <line style="fill:none;stroke:#000000;stroke-width:0.25;stroke-miterlimit:10;" x1="32" x2="32" y1="160" y2="-32"/>
              <line style="fill:none;stroke:#000000;stroke-width:0.25;stroke-miterlimit:10;" x1="36" x2="36" y1="160" y2="-32"/>
              <line style="fill:none;stroke:#000000;stroke-width:0.25;stroke-miterlimit:10;" x1="40" x2="40" y1="160" y2="-32"/>
              <line style="fill:none;stroke:#000000;stroke-width:0.25;stroke-miterlimit:10;" x1="44" x2="44" y1="160" y2="-32"/>
              <line style="fill:none;stroke:#000000;stroke-width:0.25;stroke-miterlimit:10;" x1="48" x2="48" y1="160" y2="-32"/>
              <line style="fill:none;stroke:#000000;stroke-width:0.25;stroke-miterlimit:10;" x1="52" x2="52" y1="160" y2="-32"/>
              <line style="fill:none;stroke:#000000;stroke-width:0.25;stroke-miterlimit:10;" x1="56" x2="56" y1="160" y2="-32"/>
              <line style="fill:none;stroke:#000000;stroke-width:0.25;stroke-miterlimit:10;" x1="60" x2="60" y1="160" y2="-32"/>
              <line style="fill:none;stroke:#000000;stroke-width:0.25;stroke-miterlimit:10;" x1="64" x2="64" y1="160" y2="-32"/>
              <line style="fill:none;stroke:#000000;stroke-width:0.25;stroke-miterlimit:10;" x1="68" x2="68" y1="160" y2="-32"/>
              <line style="fill:none;stroke:#000000;stroke-width:0.25;stroke-miterlimit:10;" x1="72" x2="72" y1="160" y2="-32"/>
              <line style="fill:none;stroke:#000000;stroke-width:0.25;stroke-miterlimit:10;" x1="76" x2="76" y1="160" y2="-32"/>
              <line style="fill:none;stroke:#000000;stroke-width:0.25;stroke-miterlimit:10;" x1="80" x2="80" y1="160" y2="-32"/>
              <line style="fill:none;stroke:#000000;stroke-width:0.25;stroke-miterlimit:10;" x1="84" x2="84" y1="160" y2="-32"/>
              <line style="fill:none;stroke:#000000;stroke-width:0.25;stroke-miterlimit:10;" x1="88" x2="88" y1="160" y2="-32"/>
              <line style="fill:none;stroke:#000000;stroke-width:0.25;stroke-miterlimit:10;" x1="92" x2="92" y1="160" y2="-32"/>
              <line style="fill:none;stroke:#000000;stroke-width:0.25;stroke-miterlimit:10;" x1="96" x2="96" y1="160" y2="-32"/>
              <line style="fill:none;stroke:#000000;stroke-width:0.25;stroke-miterlimit:10;" x1="100" x2="100" y1="160" y2="-32"/>
              <line style="fill:none;stroke:#000000;stroke-width:0.25;stroke-miterlimit:10;" x1="104" x2="104" y1="160" y2="-32"/>
              <line style="fill:none;stroke:#000000;stroke-width:0.25;stroke-miterlimit:10;" x1="108" x2="108" y1="160" y2="-32"/>
              <line style="fill:none;stroke:#000000;stroke-width:0.25;stroke-miterlimit:10;" x1="112" x2="112" y1="160" y2="-32"/>
              <line style="fill:none;stroke:#000000;stroke-width:0.25;stroke-miterlimit:10;" x1="116" x2="116" y1="160" y2="-32"/>
              <line style="fill:none;stroke:#000000;stroke-width:0.25;stroke-miterlimit:10;" x1="120" x2="120" y1="160" y2="-32"/>
              <line style="fill:none;stroke:#000000;stroke-width:0.25;stroke-miterlimit:10;" x1="124" x2="124" y1="160" y2="-32"/>
              <line style="fill:none;stroke:#000000;stroke-width:0.25;stroke-miterlimit:10;" x1="128" x2="128" y1="160" y2="-32"/>
              <line style="fill:none;stroke:#000000;stroke-width:0.25;stroke-miterlimit:10;" x1="132" x2="132" y1="160" y2="-32"/>
              <line style="fill:none;stroke:#000000;stroke-width:0.25;stroke-miterlimit:10;" x1="136" x2="136" y1="160" y2="-32"/>
              <line style="fill:none;stroke:#000000;stroke-width:0.25;stroke-miterlimit:10;" x1="137" x2="137" y1="166.05" y2="-25.95"/>
              <line style="fill:none;stroke:#000000;stroke-width:0.25;stroke-miterlimit:10;" x1="144" x2="144" y1="160" y2="-32"/>
              <line style="fill:none;stroke:#000000;stroke-width:0.25;stroke-miterlimit:10;" x1="148" x2="148" y1="160" y2="-32"/>
              <line style="fill:none;stroke:#000000;stroke-width:0.25;stroke-miterlimit:10;" x1="152" x2="152" y1="160" y2="-32"/>
              <line style="fill:none;stroke:#000000;stroke-width:0.25;stroke-miterlimit:10;" x1="156" x2="156" y1="160" y2="-32"/>
            </g>
            <g>
              <line style="fill:none;stroke:#000000;stroke-width:0.25;stroke-miterlimit:10;" x1="-32" x2="160" y1="-28" y2="-28"/>
              <line style="fill:none;stroke:#000000;stroke-width:0.25;stroke-miterlimit:10;" x1="-32" x2="160" y1="-24" y2="-24"/>
              <line style="fill:none;stroke:#000000;stroke-width:0.25;stroke-miterlimit:10;" x1="-32" x2="160" y1="-20" y2="-20"/>
              <line style="fill:none;stroke:#000000;stroke-width:0.25;stroke-miterlimit:10;" x1="-32" x2="160" y1="-16" y2="-16"/>
              <line style="fill:none;stroke:#000000;stroke-width:0.25;stroke-miterlimit:10;" x1="-32" x2="160" y1="-12" y2="-12"/>
              <line style="fill:none;stroke:#000000;stroke-width:0.25;stroke-miterlimit:10;" x1="-32" x2="160" y1="-8" y2="-8"/>
              <line style="fill:none;stroke:#000000;stroke-width:0.25;stroke-miterlimit:10;" x1="-32" x2="160" y1="-4" y2="-4"/>
              <line style="fill:none;stroke:#000000;stroke-width:0.25;stroke-miterlimit:10;" x1="-32" x2="160" y1="0" y2="0"/>
              <line style="fill:none;stroke:#000000;stroke-width:0.25;stroke-miterlimit:10;" x1="-32" x2="160" y1="4" y2="4"/>
              <line style="fill:none;stroke:#000000;stroke-width:0.25;stroke-miterlimit:10;" x1="-32" x2="160" y1="8" y2="8"/>
              <line style="fill:none;stroke:#000000;stroke-width:0.25;stroke-miterlimit:10;" x1="-32" x2="160" y1="12" y2="12"/>
              <line style="fill:none;stroke:#000000;stroke-width:0.25;stroke-miterlimit:10;" x1="-32" x2="160" y1="16" y2="16"/>
              <line style="fill:none;stroke:#000000;stroke-width:0.25;stroke-miterlimit:10;" x1="-32" x2="160" y1="20" y2="20"/>
              <line style="fill:none;stroke:#000000;stroke-width:0.25;stroke-miterlimit:10;" x1="-32" x2="160" y1="24" y2="24"/>
              <line style="fill:none;stroke:#000000;stroke-width:0.25;stroke-miterlimit:10;" x1="-32" x2="160" y1="28" y2="28"/>
              <line style="fill:none;stroke:#000000;stroke-width:0.25;stroke-miterlimit:10;" x1="-32" x2="160" y1="32" y2="32"/>
              <line style="fill:none;stroke:#000000;stroke-width:0.25;stroke-miterlimit:10;" x1="-32" x2="160" y1="36" y2="36"/>
              <line style="fill:none;stroke:#000000;stroke-width:0.25;stroke-miterlimit:10;" x1="-32" x2="160" y1="40" y2="40"/>
              <line style="fill:none;stroke:#000000;stroke-width:0.25;stroke-miterlimit:10;" x1="-32" x2="160" y1="44" y2="44"/>
              <line style="fill:none;stroke:#000000;stroke-width:0.25;stroke-miterlimit:10;" x1="-32" x2="160" y1="48" y2="48"/>
              <line style="fill:none;stroke:#000000;stroke-width:0.25;stroke-miterlimit:10;" x1="-32" x2="160" y1="52" y2="52"/>
              <line style="fill:none;stroke:#000000;stroke-width:0.25;stroke-miterlimit:10;" x1="-32" x2="160" y1="56" y2="56"/>
              <line style="fill:none;stroke:#000000;stroke-width:0.25;stroke-miterlimit:10;" x1="-32" x2="160" y1="60" y2="60"/>
              <line style="fill:none;stroke:#000000;stroke-width:0.25;stroke-miterlimit:10;" x1="-32" x2="160" y1="64" y2="64"/>
              <line style="fill:none;stroke:#000000;stroke-width:0.25;stroke-miterlimit:10;" x1="-32" x2="160" y1="68" y2="68"/>
              <line style="fill:none;stroke:#000000;stroke-width:0.25;stroke-miterlimit:10;" x1="-32" x2="160" y1="72" y2="72"/>
              <line style="fill:none;stroke:#000000;stroke-width:0.25;stroke-miterlimit:10;" x1="-32" x2="160" y1="76" y2="76"/>
              <line style="fill:none;stroke:#000000;stroke-width:0.25;stroke-miterlimit:10;" x1="-32" x2="160" y1="80" y2="80"/>
              <line style="fill:none;stroke:#000000;stroke-width:0.25;stroke-miterlimit:10;" x1="-32" x2="160" y1="84" y2="84"/>
              <line style="fill:none;stroke:#000000;stroke-width:0.25;stroke-miterlimit:10;" x1="-32" x2="160" y1="88" y2="88"/>
              <line style="fill:none;stroke:#000000;stroke-width:0.25;stroke-miterlimit:10;" x1="-32" x2="160" y1="92" y2="92"/>
              <line style="fill:none;stroke:#000000;stroke-width:0.25;stroke-miterlimit:10;" x1="-32" x2="160" y1="96" y2="96"/>
              <line style="fill:none;stroke:#000000;stroke-width:0.25;stroke-miterlimit:10;" x1="-32" x2="160" y1="100" y2="100"/>
              <line style="fill:none;stroke:#000000;stroke-width:0.25;stroke-miterlimit:10;" x1="-32" x2="160" y1="104" y2="104"/>
              <line style="fill:none;stroke:#000000;stroke-width:0.25;stroke-miterlimit:10;" x1="-32" x2="160" y1="108" y2="108"/>
              <line style="fill:none;stroke:#000000;stroke-width:0.25;stroke-miterlimit:10;" x1="-32" x2="160" y1="112" y2="112"/>
              <line style="fill:none;stroke:#000000;stroke-width:0.25;stroke-miterlimit:10;" x1="-32" x2="160" y1="116" y2="116"/>
              <line style="fill:none;stroke:#000000;stroke-width:0.25;stroke-miterlimit:10;" x1="-32" x2="160" y1="120" y2="120"/>
              <line style="fill:none;stroke:#000000;stroke-width:0.25;stroke-miterlimit:10;" x1="-32" x2="160" y1="124" y2="124"/>
              <line style="fill:none;stroke:#000000;stroke-width:0.25;stroke-miterlimit:10;" x1="-32" x2="160" y1="128" y2="128"/>
              <line style="fill:none;stroke:#000000;stroke-width:0.25;stroke-miterlimit:10;" x1="-32" x2="160" y1="132" y2="132"/>
              <line style="fill:none;stroke:#000000;stroke-width:0.25;stroke-miterlimit:10;" x1="-32" x2="160" y1="136" y2="136"/>
              <line style="fill:none;stroke:#000000;stroke-width:0.25;stroke-miterlimit:10;" x1="-32" x2="160" y1="140" y2="140"/>
              <line style="fill:none;stroke:#000000;stroke-width:0.25;stroke-miterlimit:10;" x1="-32" x2="160" y1="144" y2="144"/>
              <line style="fill:none;stroke:#000000;stroke-width:0.25;stroke-miterlimit:10;" x1="-32" x2="160" y1="148" y2="148"/>
              <line style="fill:none;stroke:#000000;stroke-width:0.25;stroke-miterlimit:10;" x1="-32" x2="160" y1="152" y2="152"/>
              <line style="fill:none;stroke:#000000;stroke-width:0.25;stroke-miterlimit:10;" x1="-32" x2="160" y1="156" y2="156"/>
            </g>
            <path d="M159.75-31.75v191.5h-191.5v-191.5H159.75 M160-32H-32v192h192V-32L160-32z"/>
          </g>
        </g>
        <g>
          <rect height="128" style="opacity:0.3;fill:#F44336;" width="4" x="0" y="0"/>
          <rect height="128" style="opacity:0.3;fill:#F44336;" width="4" x="124" y="0"/>
          <rect height="120" style="opacity:0.3;fill:#F44336;" transform="matrix(-1.836970e-16 1 -1 -1.836970e-16 66 -62)" width="4" x="62" y="-58"/>
          <rect height="120" style="opacity:0.3;fill:#F44336;" transform="matrix(-1.836970e-16 1 -1 -1.836970e-16 190 62)" width="4" x="62" y="66"/>
        </g>
      </g>
    </g>
  </g>
</svg>