<?xml version="1.0" encoding="utf-8"?>
<!-- Generator: Adobe Illustrator 19.2.1, SVG Export Plug-In . SVG Version: 6.00 Build 0)  -->
<svg version="1.1" id="图层_1" xmlns="http://www.w3.org/2000/svg" xmlns:xlink="http://www.w3.org/1999/xlink" x="0px" y="0px"
	 viewBox="0 0 128 128" style="enable-background:new 0 0 128 128;" xml:space="preserve">
<g>
	<defs>
		<path id="SVGID_1_" d="M132.07,64.34c0.77,44.18-25.82,58.03-67.45,57.97c-41.99-0.07-66.37-3.59-66.37-52.78
			c0-31.93,23.6-65.9,65.6-65.9C105.84,3.63,131.51,32.41,132.07,64.34z"/>
	</defs>
	<clipPath id="SVGID_2_">
		<use xlink:href="#SVGID_1_"  style="overflow:visible;"/>
	</clipPath>
	<g style="clip-path:url(#SVGID_2_);">
		<path style="fill:#6B9096;" d="M107.36,62.59c-3.56-2.4-19.2-22.24-20.37-23.7c-0.77-0.96-2.01-0.92-2.91-0.89
			c-0.62,0.02-1.62,0.32-1.82,0.48c-0.91,0.72-13.96,20.01-19.99,23.91c-3.14,2.03-0.44,3.72,1.33,3.72c4.47,0,8.53-1.16,10.49-1.16
			c1.96,0,4.39,1.41,7.87,1.41c3.48,0,4.11-0.06,6.74-0.06c2.63,0,6.61-1.35,8.61-1.35c2,0,5.27,1.13,7.75,1.13
			C107.54,66.07,109.61,64.12,107.36,62.59"/>
		<path style="fill:#3FBFE7;" d="M39.33,120.17c-1.46-1.33-2.48-4.47-2.9-5.62c-0.51-1.37-0.45-2.87-0.93-4.26
			c-0.69-2.02-1.73-3.5-2.03-5.7c-0.9-6.67,0.57-12.46,5.74-17.13c3.09-2.8,7.56-4.45,11.46-5.79c4.47-1.54,8.98-3.01,13.41-4.69
			c3.46-1.31,6.02-4.02,7.76-7.24c1.08-2,0.8-4.3,1.76-6.25c1.04-2.1,2.78-1.79,4.75-1.74c3.67,0.09,8.76-0.75,11.09,0.79
			c2.45,1.61,3.21,4.7,4.26,7.33c1.27,3.18,0.67,7.64,0.14,10.97c-0.7,4.39-4.59,8.9-7.99,11.47c-2.76,2.08-5.82,3.64-8.81,5.35
			c-2.97,1.7-8.05,1.99-8.92,5.16c-0.14,0.5,5.05,12.62,5.66,12.78c3.46,13.83-5.63,10.08-15.13,11.24
			c-4.74,0.58-11.37-1.22-13.76-2.23C43.25,123.92,41.33,122.12,39.33,120.17z"/>
		<path style="fill:#BCCD46;" d="M83.25,61.59c0.66,0.85,2.24,1.65,3.56,3.23c3.08,3.67,7.96,6.5,7.56,11.56
			C93.96,81.73,88.6,87.21,83,89.33c-7.35,2.79-15.25,3.65-19,10.33c-2.04,3.63-0.7,12.61,5.79,19.5c4.07,4.32,6.34,5.45,11.94,5.47
			c8.46,0.04,10.97-0.78,20.36-4.57c4.17-1.68,6.4-3.4,14.16-11.79c6.1-6.58,3.88-14.05,3.76-16.25c-0.25-4.43-1.19-5.63-2.4-9.94
			c-1.08-3.83-1.41-2.73-4.07-7.16c-4.2-7.01-3.91-9.4-11.65-11.92C96.12,61.12,94.52,61.44,83.25,61.59z"/>
		<path style="fill:#BCCD46;" d="M77,61.56c6.17,4.39,5.75,11.55,1.95,16.19c-5.42,6.59-15.15,6.32-22.43,8.91
			c-7.66,2.71-16.56,7.81-18.11,16.45c-1.89,10.56,1.94,17.56,8.86,22.31c-13.82,0.52-29.23-7.93-35.92-11.93
			c-7.01-4.19-9.91-16.71-10.5-28.01C0.48,78.93,1.79,72.6,5.77,67.05c3.25-4.53,8.88-5.76,14.45-6.54
			c15.67-2.2,34.53-1.12,40.39-1.24C62.95,59.32,72.74,59.57,77,61.56z"/>
		<path style="fill:#79A5AF;" d="M81.73,69.82c-5.98-0.07-15.17,0.04-22.94,0.04c-8.53,0-0.03,0-0.05,0L4.32,69.29
			c0,0,3.41-6.78,4.68-8.96c3.38-5.82,10.01-17.81,12.58-23.8c2.1-4.89,3.48-8.12,4.61-10.26c1.07-2.03,2.09-3.48,3.61-3.96
			c1.5-0.47,2.53,0.05,3.22,0.38c0.5,0.25,0.69,0.34,1.14,0.24c0.23-0.05,0.3-0.1,0.65-0.41l0.07-0.06
			c0.21-0.19,0.44-0.58,0.67-0.95c0.51-0.85,1.2-2,2.62-2.38c3.32-0.87,5.7,0.01,7.27,2.71c0.3,0.52,1.38,2.65,3.41,6.65
			c0.51,1,1.06,2.09,1.65,3.25c2-2.96,3.49-5.16,3.7-5.47c0.64-0.93,1.86-1.53,2.92-1.59c1.06-0.06,2.44,0.83,3.08,1.9
			c0.51,0.84,11.18,21.34,16.97,32.8C80.47,65.94,81.73,65.88,81.73,69.82z"/>
		<g>
			<g>
				<path style="fill:#855C52;" d="M107.35,97.13c-0.38-1.96-0.41-3.97-0.61-5.95c-0.03-0.26-0.06-0.52-0.07-0.78
					c-0.01-0.55-0.29-0.92-0.81-1.12c-0.27-0.1-0.61-0.09-0.89-0.14c-0.31-0.05-0.6-0.07-0.91-0.06c-0.02,0-0.05,0-0.08,0.01
					c-0.02,0-0.05-0.01-0.07-0.01c-0.31-0.01-0.6,0.01-0.91,0.06c-0.28,0.05-0.63,0.03-0.89,0.14c-0.52,0.2-0.79,0.57-0.81,1.12
					c-0.01,0.26-0.04,0.52-0.06,0.78c-0.2,1.99-0.24,3.99-0.61,5.95c-0.31,1.61-2.23,4.2,0.35,4.79c1.92,0.43,4.09,0.44,6.01,0
					C109.58,101.34,107.66,98.74,107.35,97.13z"/>
				<path style="fill:#757F3F;" d="M124.82,85.67c-2.92-0.82-5.21-1.91-6.83-2.84c-0.11-0.1-0.28-0.19-0.23-0.35
					c0.04-0.11,0.18-0.15,0.28-0.17c0.97-0.13,1.81-0.27,2.42-0.42c3.41-0.81,3.43-2.99,3.43-2.99s0.5-2.6-2.56-3.46
					c-2.69-0.76-4.86-1.75-6.46-2.63c-0.11-0.07-0.21-0.15-0.17-0.28c0.03-0.07,0.08-0.11,0.15-0.12c0.5-0.06,0.96-0.12,1.34-0.19
					c2.96-0.55,3.07-2.41,3.07-2.41s0.5-2.07-2.03-3.07c-2.35-0.93-4.71-2.31-6.26-3.3c-0.08-0.09-0.19-0.19-0.13-0.31
					c0.05-0.11,0.18-0.12,0.28-0.13c0,0,0.01,0,0.01,0l0.45,0.05c0,0,2.62,0.5,3.43-1.74c0.81-2.24-1.68-3.43-1.68-3.43
					c-4.92-2.3-8.16-8.84-8.16-8.84c-0.69-1.31-1.19-1.06-1.19-1.06s-0.5-0.25-1.18,1.06c0,0-3.24,6.54-8.16,8.84
					c0,0-2.49,1.18-1.68,3.43c0.81,2.24,3.43,1.74,3.43,1.74l0.46-0.05c0,0,0.01,0,0.01,0c0.1,0.02,0.24,0.02,0.29,0.13
					c0.05,0.12-0.06,0.23-0.13,0.31c-1.55,0.99-3.91,2.37-6.26,3.3c-2.53,1-2.04,3.07-2.04,3.07s0.12,1.86,3.07,2.41
					c0.38,0.07,0.84,0.13,1.34,0.19c0.06,0.02,0.12,0.05,0.14,0.12c0.05,0.13-0.05,0.21-0.16,0.28c-1.6,0.88-3.76,1.87-6.46,2.63
					c-3.06,0.86-2.56,3.46-2.56,3.46s0.03,2.18,3.43,2.99c0.61,0.15,1.45,0.29,2.42,0.42c0.1,0.02,0.25,0.07,0.28,0.17
					c0.05,0.16-0.11,0.25-0.22,0.35c-1.62,0.93-3.92,2.02-6.83,2.84c-3.06,0.86-2.56,3.45-2.56,3.45s0.06,2.07,3.43,2.99
					c1.4,0.38,3.35,0.39,5.53,0.19c0.31,0.01,0.63-0.02,0.9,0.14c0.33,0.2,0.34,0.63,0.44,0.96c0.09,0.32,0.21,0.63,0.37,0.92
					c1.44,2.58,4.98,1.63,7.54-0.09c0.25-0.14,0.54-0.25,0.84-0.3c0.4-0.07,0.82-0.02,1.18,0.18c0.03,0.02,0.07,0.04,0.1,0.06
					c0.28,0.24,0.57,0.46,0.89,0.64c0.58,0.33,1.3,0.5,1.94,0.65c1.19,0.28,2.71,0.07,3.84-0.63c0.05-0.03,0.09-0.06,0.12-0.08
					c0.03-0.02,0.05-0.04,0.08-0.06c0.03-0.02,0.07-0.05,0.1-0.07c0.11-0.09,0.22-0.18,0.34-0.25c0.24-0.15,0.51-0.25,0.79-0.27
					c0.13-0.01,0.25,0,0.37,0.02c0.19,0.04,0.38,0.12,0.55,0.21c0.04,0.02,0.09,0.05,0.14,0.08c2.54,1.62,5.91,2.45,7.31-0.06
					c0.16-0.29,0.28-0.6,0.37-0.92c0.1-0.33,0.11-0.76,0.44-0.96c0.22-0.13,0.48-0.13,0.73-0.14c1.96,0.15,3.71,0.11,4.99-0.23
					c3.38-0.92,3.43-2.99,3.43-2.99S127.87,86.53,124.82,85.67z"/>
			</g>
		</g>
	</g>
</g>
<path style="fill:#9AAA5F;" d="M99.34,60.7c0.47,0.18,0.78,0.55,1.46,0.28c0.43-0.17,0.82-0.82,0.89-1.27
	c0.09-0.69-0.38-0.53-0.83-0.75c-0.13-0.35,0.26-0.91,0.06-1.3c-0.29-0.56-1.18,0.04-1.43,0.33c-0.41,0.47-0.77,0.82-1.35,1.13
	c-0.39,0.21-2.03,1.07-1.23,1.66c0.17,0.12,0.34,0.14,0.54,0.14c0.53,0,1.06-0.36,1.56-0.31C99.12,60.63,99.24,60.66,99.34,60.7z"/>
<path style="fill:#9AAA5F;" d="M94.5,68.03c-0.6,0.21-1.87,1-1.07,1.73c0.56,0.51,1.76,0.22,2.41,0.05
	c0.27-0.07,0.63-0.26,0.92-0.24c0.31,0.02,0.31,0.24,0.41,0.49c0.21,0.52,0.59,0.61,1.12,0.61c0.32,0,0.57,0.02,0.86-0.12
	c0.68-0.33,0.64-0.16,1.27,0.06c0.74,0.26,1.37-0.1,1.8-0.69c0.14-0.19,0.25-0.49,0.24-0.72c-0.02-0.45-0.33-0.68-0.8-0.61
	c-0.47,0.07-0.79,0.17-1.05-0.31c-0.33-0.63-1.28,0.16-1.52-0.3c-0.1-0.2,0.12-0.62,0.08-0.86c-0.05-0.29-0.22-0.51-0.53-0.56
	c-0.48-0.08-0.88,0.05-1.27,0.26c-0.73,0.4-1.36,0.72-2.15,0.96C95.05,67.86,94.78,67.93,94.5,68.03z"/>
<path style="fill:#9AAA5F;" d="M95.53,75.11c-0.4-0.06-0.87,0.11-1.21,0.28c-1.37,0.67-2.73,1.38-4.11,2.03
	c-0.49,0.23-1.27,0.46-1.24,1.14c0.04,1.24,2.18,0.71,2.89,0.63c0.63-0.07,1.66-0.32,2.18,0.19c0.3,0.29,0.44,0.47,0.88,0.51
	c0.74,0.08,1.7-0.66,2.37-0.31c0.28,0.15,0.43,0.35,0.74,0.45c0.75,0.26,1.66-0.05,2.27-0.51c0.52-0.39,0.9-1.51,0.18-1.9
	c-0.46-0.25-0.84,0.2-1.27,0.13c-0.65-0.12-0.49-0.61-0.95-0.97c-0.56-0.43-1.42,0.29-1.83-0.14c-0.34-0.36-0.11-0.95-0.41-1.28
	C95.89,75.21,95.72,75.14,95.53,75.11z"/>
<path style="fill:#9AAA5F;" d="M94.11,84.86c-1.14-0.22-2.3,0.64-3.28,1.08c-1.08,0.48-2.28,0.55-3.35,1.07
	c-0.71,0.34-0.64,1.42,0.06,1.73c0.63,0.28,1.45,0.2,2.12,0.16c1-0.06,1.94-0.49,2.93-0.57c1.36-0.12,1.42,0.24,1.66,1.41
	c0.17,0.85,1.07,1.3,1.89,1.13c0.43-0.09,0.8-0.46,1.2-0.64c0.5-0.22,0.48-0.16,0.96,0c0.35,0.12,0.79,0.11,1.13-0.02
	c0.57-0.21,0.84-0.66,0.85-1.23c0.02-0.89,0.01-2.06-1.22-1.72c-1.34,0.37-0.91-0.36-1.89-0.72c-0.7-0.26-1.34,0.4-1.97-0.16
	C94.68,85.93,94.98,85.05,94.11,84.86z"/>
<path style="fill:#BCCD46;" d="M27.61,69.1c6.39-0.47,12.6-3.79,18.77-3.29s13.04,3.24,21.37,3.45s12.21-2.78,13.98,0.57l-2.06,1.85
	l-75.71-1.7l1.69-3.29C5.65,66.67,15.39,70,27.61,69.1z"/>
</svg>
