<?xml version="1.0" encoding="utf-8"?>
<!-- Generator: Adobe Illustrator 19.2.1, SVG Export Plug-In . SVG Version: 6.00 Build 0)  -->
<svg version="1.1" id="Layer_1" xmlns="http://www.w3.org/2000/svg" xmlns:xlink="http://www.w3.org/1999/xlink" x="0px" y="0px"
	 viewBox="0 0 128 128" style="enable-background:new 0 0 128 128;" xml:space="preserve">
<path style="fill:#FAC036;" d="M72.11,64"/>
<g>
	<g>
		<path style="fill:#FAC036;" d="M40,57.69c-1.46,0-1.43-1.6-1.43-1.6S38.46,30,38.2,28.59c-0.38-1.99-1.66-5.75-6.69-5.51
			c-2.09,0.1-6.12,0.91-6.57,7.87c-0.1,1.5,0.18,42.02,0.29,44.29c0,0,0.84,17.96,3.3,26.73c0.68,2.44,1.51,5.11,2.92,7.76
			c1.4,2.64,3.28,5.31,5.74,7.62c2.43,2.33,5.43,4.24,8.67,5.62c3.24,1.37,6.71,2.18,10.15,2.59c0.86,0.09,1.72,0.18,2.58,0.22
			l2.43,0.16c1.7,0.09,3.38,0.09,5.04,0.03c3.32-0.1,6.58-0.49,9.7-1.08c3.12-0.61,6.09-1.47,8.82-2.56
			c2.73-1.08,5.2-2.42,7.31-3.89c2.13-1.45,3.86-3.08,5.22-4.64c1.4-1.53,2.31-3.1,3.03-4.37c0.68-1.3,1.11-2.35,1.34-3.09
			c0.24-0.73,0.37-1.12,0.37-1.12l0,0c0.53-1.21,1.03-2.37,1.49-3.43c1.29-2.94,2.72-6.26,4.17-9.69c0.62-1.45,0.89-2.11,0.89-2.11
			l-0.01,0.02c5.29-12.52,10.59-25.57,10.59-25.57c1.02-2.21-0.48-4.73-3.02-5.06c-7.31-0.95-12.94,2.38-15.97,8.71L93.8,82.62
			c-0.58,1.74-3.42,1.69-3.67-0.12c-0.77-5.69-0.81-19.4-0.81-19.4c-0.32-5.82-1.01-39.78-1.16-41.95c-0.3-4.35-2.2-8.23-5.98-8.68
			c-3.86-0.46-6.94,1.54-7.39,6.45c-0.12,1.33,0.07,36.21,0.07,36.21c0.02,2.03-2.6,2.41-2.75,0.32c0,0-0.51-43.09-0.5-45.08
			C71.65,5.88,68.57,2,64.58,2c-3.89,0-6.83,3.24-6.91,7.86c-0.02,1.47,0.15,32.02,0.09,44.4c0,0.83-0.24,1.72-1.38,1.72
			c-0.01,0-1.25,0.09-1.25-1.5c0-3.34-0.41-36.31-0.46-38.12c-0.11-4.15-2.01-7.84-6.27-7.89c-3.89-0.05-7.36,2.98-7.16,7.6
			l0.21,40.24C41.45,56.3,41.38,57.69,40,57.69z"/>
	</g>
	<path style="fill:#E48C15;" d="M89.43,70.58V74c0,0-18.56,0.28-25.45,20.95c0,0-0.85,2.64-2.27,1.89c0,0-1.51-0.38,0-4.25
		C61.72,92.6,67.85,72.59,89.43,70.58z"/>
</g>
</svg>
