<?xml version="1.0" encoding="utf-8"?>
<!-- Generator: Adobe Illustrator 19.2.1, SVG Export Plug-In . SVG Version: 6.00 Build 0)  -->
<svg version="1.1" id="レイヤー_1" xmlns="http://www.w3.org/2000/svg" xmlns:xlink="http://www.w3.org/1999/xlink" x="0px"
	 y="0px" viewBox="0 0 128 128" style="enable-background:new 0 0 128 128;" xml:space="preserve">
<g>
	<path style="fill:#78A3AD;" d="M121.53,100.83c-0.94-0.65-2.01-0.97-3.27-0.97c-0.72,0-1.42,0.1-2.04,0.19
		c-0.45,0.07-0.9,0.14-1.37,0.15c-0.52,0-0.95-0.43-1.81-1.41l-1.47-1.6c-0.38-0.4-0.69-0.72-0.99-1.04c0.05-0.07,0.1-0.13,0.15-0.2
		l0.82-1.1c2.47-3.31,5.27-7.07,5.86-11.61c0.31-2.4-0.32-4.75-1.67-6.29c-1.17-1.34-2.76-1.99-4.71-1.84
		c-2.87,0.22-5.07,1.7-7.2,3.12c-0.84,0.56-1.62,1.08-2.42,1.52c-0.59,0.32-0.43,0.24-0.75,0.16l-0.35-0.15
		c-0.19-0.12-0.4-0.16-0.61-0.19c-7.37-10.1-23.97-32.62-33.01-43.05l-1.34-1.56c-4.42-5.17-7.08-8.28-13.95-9.5
		c-4.93-0.87-10.66,0.18-15.57,2.68l-1.32-1.4l-0.13-0.14l-0.12-0.13l-0.02,0.03c-0.45-0.41-1.06-0.71-1.92-0.77
		c-0.76-0.05-1.53,0.14-2.26,0.47L6.73,1.04C5.95,0.2,4.64,0.16,3.81,0.93C2.97,1.71,2.92,3.02,3.7,3.85l23.32,25.12
		c-0.36,0.65-0.59,1.35-0.63,2.06l-0.01,0.19c-0.01,1.04,0.36,2.12,1.09,2.76l0.5,0.53c-5.12,6.61-5.05,14.27-5.04,14.67
		c0.13,6.47,4.35,11.84,11.11,18.41c10.18,9.89,32.25,28.18,42.34,36.46c0.04,0.15,0.06,0.32,0.16,0.46l0.17,0.35
		c0.08,0.28,0.09,0.3-0.13,0.75c-0.4,0.82-0.9,1.63-1.42,2.49c-1.34,2.19-2.71,4.44-2.82,7.31c-0.06,1.64,0.46,3.08,1.51,4.17
		c1.23,1.28,3.17,2.01,5.32,2.01c0.53,0,1.05-0.04,1.56-0.13c4.5-0.77,8.14-3.72,11.35-6.32l1.08-0.87c0.1-0.08,0.19-0.17,0.29-0.25
		l1.5,1.21c0.57,0.46,1.01,0.81,1.11,0.89l0.6,0.45c1.06,0.78,1.53,1.18,1.56,1.71c0.02,0.45-0.01,0.9-0.04,1.35
		c-0.1,1.47-0.24,3.47,1.2,5.23c1.48,1.8,3.7,2.75,6.41,2.75c2.61,0,5.61-0.93,7.83-2.43c4.63-3.12,8.3-7.37,10.08-11.64
		C125.49,109.21,125.51,103.6,121.53,100.83z"/>
	<path style="fill:#FFFFFF;" d="M106.15,115.27c-0.68-0.25-5.09-3.4-7.6-5.73c-0.43-0.4-0.8-0.77-1.08-1.1
		c1.04-0.98,2.08-1.96,3.07-2.99c0.21-0.2,0.4-0.42,0.61-0.63c0.37-0.39,0.75-0.76,1.11-1.16c1-1.06,1.96-2.15,2.91-3.26
		c0.36,0.28,0.75,0.62,1.17,1.01c2.51,2.33,5.88,6.31,6.17,6.96C114.22,112.13,110.05,116.68,106.15,115.27z"/>
	<g>
		<defs>
			<path id="SVGID_1_" d="M80.1,89.17c-0.61-0.6-1.59-0.6-2.19,0c-1.97,1.97-4.25,2.72-6.16,2.97c-1.21-1.04-2.46-2.11-3.73-3.21
				c2.04-0.51,4.25-1.54,6.23-3.51c0.61-0.61,0.61-1.59,0-2.2c-0.6-0.6-1.59-0.6-2.19,0c-2.3,2.3-5.04,2.95-7.1,3.05
				c-1.19-1.04-2.39-2.08-3.58-3.12c2.26-0.43,4.79-1.45,7.03-3.69c0.61-0.61,0.61-1.58,0-2.19c-0.6-0.61-1.58-0.61-2.19,0
				c-2.66,2.66-5.92,3.12-8.03,3.07c-1.15-1.02-2.28-2.03-3.38-3.01c2.42-0.34,5.28-1.33,7.76-3.82c0.61-0.61,0.61-1.58,0-2.19
				c-0.6-0.61-1.58-0.61-2.19,0c-3.06,3.06-6.9,3.2-8.89,3.01c-1.11-1-2.16-1.97-3.15-2.89c2.54-0.25,5.68-1.18,8.39-3.88
				c0.61-0.61,0.61-1.59,0-2.2c-0.6-0.6-1.59-0.61-2.19,0c-3.41,3.41-7.79,3.2-9.49,2.95c-1.17-1.13-2.15-2.13-2.9-2.95
				c-0.52-0.55-1.87-1.19-0.83-1.86c0.57-0.37,1.46-0.16,2.09-0.26c1.2-0.19,2.39-0.47,3.54-0.85c2.33-0.77,4.55-1.92,6.49-3.43
				c4.19-3.25,7.71-9.36,8.79-15.45v0c0.74-1,1.29,0.39,1.82,0.94c6.95,7.2,26.93,33.56,34.03,42.99c0.98,1.73,1.76,3.18,1.97,4.75
				c-0.65,1.43-1.46,2.75-2.2,3.77c-1.61,2.21-4.08,4.18-6.56,5.33c-2.07,0.95-3.97,1.35-5.93,1.62c-0.84-0.28-1.65-0.69-2.41-1.27
				l-0.11-0.08c-0.03-0.03-0.06-0.03-0.09-0.05c-2.05-1.74-4.86-4.13-8.06-6.86c1.81-0.57,3.71-1.56,5.42-3.28
				C80.7,90.76,80.7,89.78,80.1,89.17z"/>
		</defs>
		<use xlink:href="#SVGID_1_"  style="overflow:visible;fill:#FFFFFF;"/>
		<clipPath id="SVGID_2_">
			<use xlink:href="#SVGID_1_"  style="overflow:visible;"/>
		</clipPath>
		<path style="clip-path:url(#SVGID_2_);fill:#BDCF46;" d="M59.93,84.98c0,0,5.49,0.16,11.73-3.72
			c5.17-3.22,10.87-11.29,10.87-17.91L61.71,36.87l-1.94,2.74c0,0-4.04,13.56-6.94,15.98c-2.91,2.42-15.98,6.3-15.98,6.3l-0.16,3.06
			L59.93,84.98z"/>
	</g>
	<path style="fill:#BDCF46;" d="M38.88,46.1c0.45,0.46,1.06,0.76,1.83,0.76c1.66-0.01,3.1-0.55,4.3-1.72c1.64-1.61,2.43-5,0.7-6.47
		l0.04-0.03l-5.86-6.21c2.51-1.32,5.24-2.03,7.89-1.87c12.26,0.76,9.87,15.79,3.53,22.02c-3.66,3.58-8.08,5.25-13.17,5.26
		c-5.75,0.02-8.66-5.27-8.6-10.39c0-0.2,0.01-0.39,0.02-0.59c0.17-2.67,1.19-5.33,2.79-7.69L38.88,46.1z"/>
</g>
</svg>
