<svg xmlns="http://www.w3.org/2000/svg" xmlns:xlink="http://www.w3.org/1999/xlink" viewBox="0 0 128 128"><path fill="#78a3ad" d="M47.93 3.56h6.68v22.5h-6.68zM73.4 3.56h6.68v22.5H73.4z"/><path d="M46.94 123.56a4.22 4.22 0 0 1-4.22 4.22c-2.33 0-4.21-1.88-4.21-4.22v-16.21c0-2.32 1.89-4.21 4.21-4.21 2.33 0 4.22 1.89 4.22 4.21v16.21zM81.07 123.56c0 2.33 1.88 4.22 4.21 4.22s4.21-1.88 4.21-4.22v-16.21a4.21 4.21 0 0 0-8.42 0v16.21z" fill="#2f2f2f"/><defs><path id="a" d="M106.77 94.78c0 10.7-8.66 19.35-19.36 19.35H40.59c-10.68 0-19.36-8.66-19.36-19.35v-53.3c0-10.68 8.67-19.35 19.36-19.35h46.82c10.69 0 19.36 8.67 19.36 19.35v53.3z"/></defs><use xlink:href="#a" overflow="visible" fill="#757f3f"/><path d="M98.24 63.77c0 5.76-4.67 10.43-10.43 10.43h-47.6c-5.76 0-10.43-4.68-10.43-10.43V39.01c0-5.76 4.68-10.43 10.43-10.43h47.6c5.76 0 10.43 4.67 10.43 10.43v24.76z" fill="#40c0e7"/><path d="M44.01 94.81c0 3.87-3.15 7.01-7.02 7.01-3.89 0-7.02-3.14-7.02-7.01 0-3.89 3.14-7.03 7.02-7.03 3.87 0 7.02 3.14 7.02 7.03zM84 94.81c0 3.87 3.15 7.01 7.02 7.01 3.87 0 7.02-3.14 7.02-7.01 0-3.89-3.14-7.03-7.02-7.03-3.87 0-7.02 3.14-7.02 7.03z" fill="#fff"/><g fill="#78a3ad"><path d="M40.15 13.38c-.46 0-.94-.1-1.4-.31a3.317 3.317 0 0 1-1.64-4.38c.16-.34 3.94-8.46 14.15-8.46 1.84 0 3.34 1.5 3.34 3.34 0 1.84-1.5 3.34-3.34 3.34-5.82 0-7.99 4.38-8.08 4.57a3.399 3.399 0 0 1-3.03 1.9zM87.85 13.4c-1.27 0-2.47-.72-3.03-1.94-.12-.24-2.3-4.56-8.08-4.56-1.84 0-3.34-1.5-3.34-3.34 0-1.84 1.5-3.34 3.34-3.34 10.21 0 13.99 8.12 14.15 8.46.76 1.68.01 3.66-1.67 4.41-.45.22-.92.31-1.37.31z"/><path d="M76.74 6.9H51.26c-1.84 0-3.34-1.5-3.34-3.34 0-1.84 1.5-3.34 3.34-3.34h25.47c1.84 0 3.34 1.5 3.34 3.34 0 1.85-1.49 3.34-3.33 3.34z"/></g></svg>