<?xml version="1.0" encoding="utf-8"?>
<!-- Generator: Adobe Illustrator 19.2.1, SVG Export Plug-In . SVG Version: 6.00 Build 0)  -->
<svg version="1.1" id="图层_1" xmlns="http://www.w3.org/2000/svg" xmlns:xlink="http://www.w3.org/1999/xlink" x="0px" y="0px"
	 viewBox="0 0 128 128" style="enable-background:new 0 0 128 128;" xml:space="preserve">
<g>
	<path style="fill:#FCC21B;" d="M-0.2,93.42c0,13.88,28.65,25.11,63.99,25.11s64-11.23,64-25.11c0-13.87-1.47-83.95-64-83.95
		C1.27,9.47-0.2,79.55-0.2,93.42z"/>
</g>
<g>
	<g>
		<path style="fill:#2F2F2F;" d="M31.12,63.44c-0.25,0-0.49,0-0.74-0.01c-1.52-0.06-2.7-1.34-2.64-2.85
			c0.06-1.52,1.33-2.71,2.85-2.64c6.19,0.24,11.65-3.79,13.26-9.79c0.39-1.47,1.9-2.34,3.37-1.94c1.47,0.39,2.34,1.9,1.94,3.37
			C46.95,57.82,39.59,63.44,31.12,63.44z"/>
	</g>
	<g>
		<path style="fill:#2F2F2F;" d="M96.47,63.44c-8.47,0-15.83-5.62-18.04-13.88c-0.39-1.47,0.48-2.97,1.94-3.37
			c1.47-0.39,2.98,0.48,3.37,1.94c1.61,6,7.07,10.03,13.26,9.79c1.49-0.06,2.79,1.12,2.85,2.64c0.06,1.52-1.12,2.8-2.64,2.85
			C96.96,63.44,96.72,63.44,96.47,63.44z"/>
	</g>
</g>
<g>
	<g>
		<path style="fill:#FFFFFF;" d="M6.93,67.54c1.04,4.69,4.1,7.61,6.68,8.41c2.89,0.89,5.51,0.46,7.38-1.2
			c2.37-2.11,3.19-5.84,2.33-10.51c-1.57-8.39-0.46-23.17-0.45-23.31c0.04-0.57-0.24-1.09-0.76-1.33c-0.5-0.26-1.1-0.16-1.52,0.22
			C6.25,52.86,5.87,62.78,6.93,67.54z"/>
	</g>
</g>
<g>
	<path style="fill:#ED6C30;" d="M84.84,68.79c-9.48,0-12.61,4.66-21.05,4.66s-11.57-4.66-21.05-4.66s-17.16,6.66-17.16,14.88
		c0,8.22,7.68,14.88,17.16,14.88s12.61-4.66,21.05-4.66s11.57,4.66,21.05,4.66S102,91.88,102,83.66
		C102,75.45,94.32,68.79,84.84,68.79z"/>
</g>
</svg>
