<?xml version="1.0" encoding="UTF-8" standalone="no"?>
<!DOCTYPE svg PUBLIC "-//W3C//DTD SVG 1.1//EN" "http://www.w3.org/Graphics/SVG/1.1/DTD/svg11.dtd">
<svg width="100%" height="100%" viewBox="0 0 128 128" version="1.1" xmlns="http://www.w3.org/2000/svg" xmlns:xlink="http://www.w3.org/1999/xlink" xml:space="preserve" xmlns:serif="http://www.serif.com/" style="fill-rule:evenodd;clip-rule:evenodd;stroke-linejoin:round;stroke-miterlimit:1.41421;">
    <g>
        <path d="M65.328,28.567C67.02,35.231 73.719,47.52 72.997,57.889C72.246,68.697 67.401,78.952 73.784,89.274C77.606,95.454 84.935,95.045 89.366,90.106C94.543,84.336 96.171,76.735 95.516,69.183C94.821,61.16 93.272,52.573 91.004,44.821C90.08,41.664 88.637,38.694 87.79,35.51C86.413,30.33 86.36,24.065 83.352,19.498C79.556,13.734 70.018,7.789 64.662,14.66C63.935,15.592 63.079,16.713 62.845,17.903C62.218,21.099 64.429,25.029 65.328,28.567Z" style="fill:white;"/>
        <path d="M70.771,10.467L70.863,10.468L70.956,10.47L71.049,10.473L71.142,10.477L71.235,10.482L71.328,10.488L71.42,10.494L71.516,10.502L71.698,10.519L71.883,10.539L72.068,10.563L72.253,10.589L72.437,10.619L72.621,10.652L72.805,10.688L72.988,10.727L73.171,10.769L73.354,10.814L73.536,10.862L73.717,10.912L73.899,10.965L74.079,11.021L74.26,11.079L74.439,11.14L74.618,11.203L74.797,11.269L74.975,11.338L75.152,11.408L75.329,11.481L75.505,11.557L75.681,11.634L75.855,11.714L76.029,11.796L76.203,11.88L76.375,11.966L76.547,12.055L76.718,12.145L76.888,12.237L77.058,12.331L77.226,12.427L77.394,12.525L77.561,12.625L77.726,12.726L77.891,12.829L78.055,12.934L78.218,13.041L78.38,13.149L78.541,13.258L78.701,13.37L78.86,13.482L79.018,13.597L79.175,13.712L79.33,13.829L79.485,13.948L79.638,14.067L79.79,14.188L79.941,14.31L80.09,14.434L80.239,14.558L80.386,14.684L80.531,14.811L80.676,14.939L80.819,15.068L80.96,15.198L81.1,15.329L81.239,15.461L81.376,15.594L81.512,15.727L81.646,15.862L81.779,15.997L81.91,16.133L82.04,16.27L82.168,16.407L82.294,16.545L82.419,16.684L82.542,16.823L82.663,16.963L82.782,17.103L82.9,17.244L83.016,17.386L83.13,17.527L83.242,17.67L83.353,17.812L83.461,17.955L83.544,18.066L83.568,18.098L83.674,18.241L83.777,18.384L83.879,18.528L83.978,18.671L84.076,18.815L84.171,18.959L84.246,19.074L84.32,19.191L84.392,19.307L84.463,19.424L84.534,19.542L84.603,19.66L84.67,19.779L84.737,19.898L84.803,20.018L84.867,20.138L84.931,20.259L84.993,20.38L85.054,20.501L85.114,20.623L85.174,20.746L85.232,20.869L85.289,20.992L85.345,21.116L85.401,21.24L85.455,21.364L85.508,21.489L85.561,21.614L85.612,21.74L85.663,21.866L85.713,21.992L85.762,22.118L85.81,22.245L85.857,22.372L85.904,22.5L85.949,22.628L85.994,22.756L86.038,22.884L86.081,23.012L86.124,23.142L86.207,23.399L86.287,23.659L86.364,23.919L86.439,24.18L86.464,24.271L86.513,24.441L86.586,24.703L86.656,24.965L86.725,25.228L86.791,25.491L86.855,25.755L86.918,26.019L86.979,26.284L87.038,26.549L87.096,26.814L87.152,27.079L87.207,27.344L87.261,27.609L87.314,27.874L87.366,28.139L87.417,28.404L87.467,28.669L87.488,28.785L87.575,29.195L87.683,29.72L87.79,30.242L87.897,30.761L88.004,31.276L88.112,31.788L88.167,32.042L88.222,32.294L88.278,32.546L88.335,32.796L88.392,33.044L88.451,33.291L88.51,33.536L88.571,33.779L88.632,34.021L88.695,34.261L88.759,34.498L88.824,34.734L88.891,34.968L88.96,35.2L89.003,35.34L89.047,35.481L89.091,35.621L89.136,35.762L89.183,35.902L89.229,36.041L89.326,36.323L89.392,36.512L89.426,36.603L89.531,36.882L89.638,37.16L89.748,37.439L89.86,37.717L89.974,37.996L90.089,38.275L90.206,38.554L90.325,38.834L90.444,39.114L90.686,39.677L90.929,40.243L91.174,40.812L91.296,41.099L91.417,41.387L91.538,41.677L91.659,41.968L91.778,42.261L91.896,42.555L92.012,42.851L92.127,43.15L92.24,43.45L92.35,43.753L92.458,44.056L92.512,44.211L92.564,44.364L92.688,44.73L92.718,44.82L92.813,45.095L92.937,45.462L93.06,45.83L93.182,46.199L93.303,46.569L93.423,46.94L93.542,47.312L93.66,47.686L93.777,48.06L93.893,48.435L94.008,48.812L94.122,49.189L94.235,49.567L94.346,49.946L94.457,50.326L94.566,50.707L94.675,51.088L94.782,51.47L94.888,51.853L94.993,52.237L95.097,52.621L95.2,53.006L95.302,53.391L95.403,53.777L95.502,54.163L95.601,54.55L95.698,54.938L95.794,55.325L95.889,55.714L95.983,56.102L96.076,56.491L96.168,56.88L96.258,57.27L96.347,57.66L96.435,58.05L96.522,58.44L96.608,58.83L96.693,59.22L96.776,59.611L96.858,60.001L96.939,60.392L97.019,60.783L97.098,61.173L97.175,61.564L97.251,61.954L97.326,62.344L97.4,62.735L97.472,63.125L97.544,63.514L97.598,63.819L97.614,63.904L97.682,64.293L97.748,64.682L97.814,65.071L97.878,65.459L97.941,65.847L98.003,66.235L98.064,66.622L98.123,67.008L98.181,67.394L98.237,67.78L98.293,68.165L98.347,68.549L98.4,68.934L98.424,69.123L98.448,69.313L98.472,69.503L98.494,69.693L98.515,69.884L98.535,70.074L98.555,70.265L98.573,70.456L98.591,70.647L98.607,70.838L98.623,71.029L98.638,71.221L98.652,71.412L98.665,71.604L98.676,71.796L98.687,71.988L98.697,72.18L98.706,72.372L98.714,72.564L98.721,72.756L98.727,72.948L98.732,73.14L98.736,73.333L98.739,73.525L98.741,73.718L98.742,73.91L98.742,74.103L98.741,74.287L98.741,74.296L98.737,74.488L98.733,74.681L98.727,74.874L98.721,75.067L98.713,75.259L98.704,75.452L98.695,75.645L98.684,75.837L98.672,76.03L98.659,76.223L98.645,76.415L98.63,76.608L98.613,76.801L98.596,76.993L98.577,77.186L98.557,77.378L98.537,77.571L98.515,77.763L98.492,77.955L98.467,78.148L98.442,78.34L98.415,78.532L98.387,78.724L98.358,78.916L98.328,79.108L98.297,79.299L98.264,79.491L98.231,79.683L98.196,79.874L98.16,80.065L98.122,80.256L98.084,80.447L98.044,80.638L98.003,80.829L97.96,81.019L97.917,81.21L97.872,81.4L97.826,81.59L97.779,81.78L97.73,81.969L97.68,82.159L97.629,82.348L97.576,82.537L97.523,82.726L97.467,82.914L97.411,83.103L97.353,83.291L97.294,83.479L97.234,83.666L97.172,83.854L97.109,84.041L97.044,84.228L96.979,84.414L96.912,84.6L96.843,84.786L96.773,84.972L96.702,85.157L96.679,85.216L96.628,85.342L96.552,85.525L96.475,85.709L96.396,85.892L96.316,86.075L96.234,86.257L96.152,86.439L96.067,86.62L95.982,86.801L95.895,86.982L95.806,87.162L95.716,87.342L95.625,87.521L95.532,87.7L95.437,87.879L95.342,88.056L95.245,88.234L95.146,88.411L95.046,88.587L94.944,88.763L94.841,88.939L94.737,89.113L94.631,89.288L94.523,89.461L94.414,89.635L94.304,89.807L94.192,89.979L94.078,90.151L93.964,90.321L93.847,90.492L93.729,90.661L93.61,90.83L93.489,90.999L93.366,91.166L93.242,91.333L93.117,91.5L92.99,91.665L92.862,91.83L92.732,91.995L92.6,92.158L92.467,92.321L92.332,92.483L92.193,92.648L92.064,92.797L91.931,92.948L91.795,93.097L91.659,93.243L91.52,93.388L91.38,93.531L91.239,93.672L91.096,93.811L90.952,93.948L90.806,94.083L90.658,94.216L90.51,94.346L90.36,94.475L90.208,94.602L90.111,94.681L90.055,94.726L89.899,94.847L89.743,94.966L89.585,95.082L89.426,95.197L89.265,95.309L89.104,95.42L88.941,95.528L88.777,95.633L88.612,95.737L88.445,95.838L88.278,95.937L88.109,96.034L87.94,96.128L87.769,96.22L87.597,96.31L87.424,96.398L87.25,96.483L87.076,96.566L86.9,96.646L86.723,96.724L86.545,96.8L86.366,96.873L86.187,96.944L86.006,97.012L85.825,97.077L85.643,97.141L85.46,97.201L85.276,97.26L85.091,97.315L84.906,97.368L84.72,97.419L84.533,97.467L84.362,97.508L84.345,97.512L84.157,97.553L83.968,97.591L83.778,97.627L83.588,97.66L83.397,97.691L83.206,97.718L83.014,97.743L82.822,97.765L82.63,97.784L82.437,97.801L82.244,97.814L82.05,97.825L81.856,97.833L81.662,97.838L81.468,97.84L81.273,97.839L81.078,97.835L80.883,97.828L80.689,97.818L80.494,97.805L80.299,97.789L80.104,97.77L79.909,97.748L79.714,97.723L79.519,97.695L79.325,97.663L79.131,97.629L78.937,97.591L78.743,97.551L78.55,97.507L78.357,97.46L78.165,97.41L77.973,97.357L77.781,97.3L77.777,97.299L77.591,97.239L77.401,97.175L77.213,97.108L77.024,97.037L76.837,96.963L76.651,96.886L76.465,96.806L76.281,96.723L76.097,96.637L75.915,96.547L75.734,96.455L75.554,96.359L75.375,96.26L75.197,96.158L75.021,96.053L74.846,95.945L74.672,95.834L74.5,95.719L74.329,95.602L74.16,95.482L73.992,95.359L73.826,95.232L73.662,95.103L73.499,94.971L73.338,94.836L73.178,94.698L73.021,94.557L72.865,94.413L72.711,94.267L72.559,94.118L72.409,93.966L72.26,93.811L72.179,93.724L72.114,93.653L71.971,93.492L71.83,93.328L71.69,93.162L71.553,92.993L71.418,92.821L71.285,92.647L71.154,92.47L71.025,92.291L70.899,92.109L70.774,91.925L70.652,91.739L70.532,91.55L70.418,91.365L70.328,91.216L70.244,91.073L70.161,90.93L70.078,90.788L69.997,90.645L69.917,90.502L69.838,90.359L69.761,90.215L69.684,90.072L69.608,89.929L69.534,89.785L69.461,89.642L69.388,89.498L69.317,89.355L69.247,89.211L69.178,89.067L69.11,88.924L69.043,88.78L68.977,88.636L68.954,88.585L68.914,88.491L68.851,88.347L68.79,88.202L68.73,88.058L68.67,87.913L68.612,87.769L68.555,87.624L68.499,87.479L68.444,87.335L68.39,87.19L68.337,87.046L68.285,86.901L68.234,86.756L68.185,86.612L68.136,86.467L68.088,86.323L68.041,86.178L67.995,86.034L67.95,85.89L67.906,85.745L67.863,85.601L67.821,85.457L67.78,85.313L67.74,85.169L67.701,85.025L67.663,84.881L67.624,84.731L67.554,84.449L67.487,84.162L67.422,83.875L67.362,83.589L67.305,83.303L67.251,83.017L67.201,82.732L67.154,82.447L67.11,82.163L67.07,81.879L67.033,81.596L66.999,81.314L66.968,81.032L66.94,80.751L66.915,80.47L66.893,80.19L66.874,79.911L66.858,79.632L66.844,79.354L66.833,79.076L66.825,78.8L66.819,78.523L66.815,78.248L66.814,77.973L66.815,77.7L66.819,77.426L66.824,77.154L66.825,77.138L66.835,76.882L66.847,76.611L66.862,76.341L66.878,76.071L66.897,75.802L66.917,75.534L66.939,75.267L66.963,75L66.989,74.734L67.016,74.469L67.045,74.205L67.075,73.941L67.107,73.678L67.14,73.416L67.174,73.154L67.21,72.893L67.247,72.633L67.285,72.373L67.324,72.114L67.364,71.855L67.405,71.597L67.448,71.34L67.491,71.084L67.535,70.828L67.58,70.572L67.626,70.315L67.719,69.81L67.815,69.304L67.913,68.801L68.013,68.299L68.114,67.8L68.216,67.301L68.399,66.424L68.422,66.314L68.636,65.332L68.742,64.844L68.847,64.358L68.95,63.873L69.052,63.389L69.151,62.907L69.248,62.427L69.343,61.945L69.389,61.708L69.434,61.469L69.479,61.23L69.522,60.992L69.565,60.754L69.607,60.516L69.648,60.278L69.688,60.041L69.726,59.804L69.764,59.567L69.8,59.331L69.836,59.095L69.87,58.859L69.903,58.623L69.934,58.387L69.965,58.152L69.994,57.917L70.021,57.686L70.045,57.472L70.066,57.261L70.085,57.049L70.09,56.986L70.103,56.835L70.12,56.62L70.134,56.404L70.147,56.186L70.157,55.967L70.165,55.746L70.171,55.524L70.175,55.301L70.177,55.077L70.176,54.852L70.174,54.625L70.169,54.397L70.163,54.168L70.155,53.939L70.144,53.708L70.132,53.476L70.118,53.243L70.102,53.009L70.084,52.774L70.064,52.539L70.042,52.303L70.019,52.065L69.993,51.828L69.966,51.589L69.938,51.35L69.907,51.11L69.875,50.869L69.842,50.628L69.806,50.386L69.769,50.144L69.731,49.901L69.691,49.658L69.65,49.415L69.607,49.171L69.563,48.926L69.517,48.681L69.47,48.436L69.422,48.191L69.372,47.946L69.321,47.7L69.269,47.454L69.216,47.208L69.161,46.962L69.106,46.716L69.049,46.47L68.991,46.223L68.932,45.977L68.872,45.731L68.811,45.485L68.749,45.239L68.687,44.993L68.623,44.747L68.559,44.501L68.493,44.256L68.427,44.011L68.361,43.766L68.294,43.523L68.156,43.033L68.017,42.546L67.875,42.061L67.732,41.578L67.587,41.097L67.44,40.619L67.42,40.552L67.296,40.142L67.151,39.667L67.006,39.196L66.86,38.727L66.714,38.262L66.569,37.801L66.28,36.889L65.995,35.994L65.717,35.118L65.581,34.687L65.448,34.261L65.317,33.84L65.189,33.424L65.065,33.014L64.944,32.61L64.827,32.211L64.714,31.819L64.606,31.432L64.502,31.053L64.452,30.864L64.403,30.678L64.355,30.493L64.309,30.31L64.264,30.129L64.221,29.949L64.179,29.771L64.138,29.595L64.099,29.42L64.062,29.247L64.06,29.238L64.026,29.075L63.993,28.911L63.993,28.911L63.954,28.752L63.915,28.597L63.874,28.44L63.83,28.283L63.786,28.124L63.739,27.963L63.691,27.802L63.642,27.64L63.591,27.476L63.54,27.311L63.487,27.146L63.433,26.98L63.321,26.643L63.207,26.305L63.09,25.963L62.972,25.618L62.853,25.271L62.734,24.922L62.615,24.57L62.499,24.219L62.44,24.04L62.383,23.863L62.327,23.685L62.271,23.506L62.217,23.328L62.163,23.149L62.111,22.969L62.06,22.789L62.01,22.609L61.962,22.429L61.915,22.249L61.871,22.068L61.827,21.887L61.786,21.705L61.747,21.523L61.71,21.342L61.675,21.159L61.643,20.977L61.613,20.794L61.586,20.611L61.562,20.428L61.54,20.245L61.522,20.061L61.507,19.88L61.5,19.785L61.495,19.693L61.49,19.601L61.486,19.509L61.484,19.417L61.482,19.324L61.481,19.232L61.481,19.14L61.482,19.047L61.484,18.955L61.487,18.863L61.491,18.77L61.496,18.678L61.502,18.586L61.51,18.493L61.518,18.401L61.528,18.309L61.539,18.216L61.551,18.124L61.564,18.032L61.579,17.94L61.595,17.848L61.612,17.756L61.63,17.663L61.646,17.589L61.663,17.515L61.681,17.441L61.701,17.368L61.721,17.295L61.742,17.224L61.764,17.152L61.787,17.082L61.811,17.011L61.837,16.938L61.888,16.805L61.942,16.67L62,16.537L62.06,16.406L62.122,16.278L62.186,16.152L62.253,16.027L62.32,15.905L62.39,15.785L62.461,15.667L62.533,15.55L62.606,15.436L62.68,15.323L62.754,15.212L62.829,15.103L62.905,14.995L62.981,14.889L63.057,14.785L63.133,14.683L63.209,14.582L63.285,14.482L63.434,14.291L63.58,14.106L63.724,13.926L63.794,13.839L63.866,13.751L63.938,13.665L64.011,13.58L64.084,13.496L64.158,13.414L64.233,13.332L64.308,13.252L64.383,13.173L64.459,13.095L64.535,13.018L64.612,12.943L64.689,12.868L64.767,12.795L64.845,12.723L64.924,12.652L65.003,12.582L65.082,12.514L65.162,12.447L65.243,12.38L65.324,12.315L65.405,12.252L65.487,12.189L65.569,12.127L65.651,12.067L65.734,12.008L65.817,11.95L65.901,11.893L65.985,11.838L66.069,11.783L66.154,11.73L66.239,11.678L66.325,11.627L66.411,11.577L66.497,11.528L66.583,11.481L66.67,11.434L66.757,11.389L66.845,11.345L66.932,11.302L67.02,11.26L67.108,11.22L67.197,11.18L67.286,11.142L67.375,11.104L67.464,11.068L67.553,11.033L67.643,10.999L67.733,10.967L67.823,10.935L67.914,10.904L68.004,10.875L68.095,10.847L68.186,10.819L68.277,10.793L68.368,10.768L68.459,10.744L68.551,10.721L68.642,10.699L68.734,10.678L68.826,10.658L68.918,10.64L69.01,10.622L69.069,10.611L69.102,10.605L69.194,10.589L69.287,10.574L69.379,10.56L69.471,10.547L69.564,10.535L69.657,10.524L69.749,10.514L69.842,10.505L69.935,10.497L70.028,10.49L70.12,10.484L70.213,10.479L70.306,10.474L70.399,10.471L70.492,10.469L70.585,10.467L70.678,10.467L70.771,10.467ZM70.769,12.683L70.697,12.684L70.626,12.686L70.555,12.688L70.484,12.691L70.413,12.695L70.343,12.699L70.273,12.704L70.203,12.71L70.133,12.717L70.063,12.724L69.994,12.732L69.924,12.741L69.855,12.75L69.787,12.76L69.718,12.771L69.65,12.783L69.582,12.795L69.514,12.808L69.489,12.813L69.446,12.822L69.379,12.837L69.311,12.852L69.244,12.869L69.178,12.886L69.111,12.903L69.045,12.922L68.979,12.941L68.913,12.961L68.847,12.982L68.782,13.003L68.716,13.026L68.651,13.049L68.586,13.073L68.522,13.097L68.457,13.123L68.393,13.149L68.329,13.176L68.266,13.203L68.202,13.232L68.139,13.261L68.075,13.291L68.013,13.322L67.95,13.354L67.887,13.387L67.825,13.42L67.763,13.455L67.701,13.49L67.639,13.526L67.577,13.563L67.516,13.601L67.455,13.639L67.394,13.679L67.333,13.719L67.272,13.761L67.212,13.803L67.152,13.846L67.092,13.89L67.032,13.936L66.972,13.982L66.913,14.029L66.854,14.076L66.795,14.125L66.736,14.175L66.677,14.226L66.618,14.278L66.56,14.331L66.502,14.385L66.444,14.44L66.387,14.496L66.329,14.553L66.272,14.611L66.215,14.67L66.158,14.73L66.101,14.791L66.045,14.853L65.989,14.917L65.933,14.981L65.877,15.047L65.821,15.114L65.766,15.182L65.711,15.251L65.656,15.321L65.601,15.394L65.469,15.567L65.336,15.745L65.204,15.924L65.14,16.012L65.076,16.102L65.013,16.192L64.951,16.282L64.89,16.371L64.83,16.461L64.771,16.551L64.714,16.641L64.659,16.73L64.605,16.819L64.553,16.908L64.503,16.997L64.456,17.084L64.41,17.172L64.367,17.258L64.326,17.344L64.287,17.429L64.251,17.513L64.218,17.596L64.187,17.678L64.158,17.763L64.144,17.807L64.149,17.791L64.134,17.838L64.123,17.878L64.112,17.916L64.102,17.955L64.09,18.002L64.094,17.984L64.083,18.031L64.073,18.077L64.077,18.058L64.068,18.105L64.059,18.151L64.062,18.133L64.051,18.2L64.042,18.258L64.033,18.317L64.025,18.377L64.018,18.437L64.012,18.497L64.006,18.558L64.002,18.62L63.997,18.681L63.994,18.744L63.992,18.806L63.99,18.87L63.988,18.933L63.988,18.997L63.988,19.062L63.989,19.127L63.991,19.193L63.993,19.259L63.996,19.325L64,19.392L64.005,19.459L64.01,19.527L64.016,19.595L64.022,19.661L64.037,19.803L64.055,19.943L64.075,20.085L64.098,20.229L64.123,20.374L64.151,20.52L64.181,20.669L64.214,20.818L64.249,20.969L64.286,21.121L64.325,21.275L64.366,21.43L64.409,21.586L64.453,21.743L64.5,21.901L64.548,22.06L64.598,22.221L64.65,22.382L64.703,22.544L64.757,22.707L64.813,22.871L64.869,23.036L64.927,23.201L64.986,23.367L65.107,23.702L65.23,24.04L65.356,24.379L65.483,24.721L65.61,25.065L65.738,25.41L65.865,25.758L65.99,26.105L66.052,26.281L66.113,26.456L66.173,26.632L66.233,26.808L66.291,26.984L66.348,27.161L66.404,27.338L66.459,27.515L66.513,27.693L66.564,27.871L66.615,28.049L66.662,28.223L66.71,28.372L66.757,28.512L66.76,28.519L66.81,28.668L66.863,28.82L66.918,28.974L66.974,29.131L67.032,29.289L67.092,29.45L67.154,29.613L67.217,29.778L67.282,29.945L67.348,30.113L67.487,30.458L67.631,30.811L67.781,31.17L67.936,31.538L68.096,31.912L68.262,32.293L68.431,32.681L68.605,33.076L68.784,33.478L68.965,33.885L69.339,34.719L69.723,35.575L70.116,36.452L70.316,36.899L70.516,37.35L70.718,37.807L70.92,38.268L71.123,38.734L71.297,39.138L71.325,39.204L71.524,39.68L71.723,40.159L71.921,40.643L72.118,41.13L72.314,41.622L72.507,42.115L72.604,42.365L72.699,42.614L72.794,42.865L72.889,43.116L72.983,43.368L73.076,43.621L73.168,43.874L73.26,44.129L73.351,44.384L73.441,44.64L73.53,44.896L73.619,45.153L73.706,45.411L73.792,45.67L73.878,45.929L73.962,46.189L74.045,46.449L74.127,46.71L74.208,46.972L74.288,47.234L74.366,47.497L74.443,47.761L74.519,48.025L74.593,48.29L74.666,48.555L74.738,48.82L74.808,49.087L74.876,49.353L74.943,49.621L75.008,49.888L75.072,50.156L75.133,50.425L75.194,50.694L75.252,50.964L75.308,51.234L75.363,51.504L75.415,51.775L75.466,52.046L75.515,52.318L75.561,52.59L75.606,52.862L75.648,53.135L75.688,53.408L75.726,53.681L75.761,53.955L75.794,54.229L75.825,54.504L75.853,54.779L75.879,55.054L75.902,55.329L75.923,55.605L75.94,55.881L75.956,56.157L75.968,56.433L75.977,56.71L75.984,56.987L75.987,57.181L75.987,57.264L75.986,57.541L75.981,57.818L75.974,58.092L75.965,58.367L75.954,58.638L75.942,58.908L75.928,59.178L75.913,59.447L75.897,59.715L75.879,59.983L75.861,60.25L75.841,60.517L75.82,60.783L75.798,61.048L75.775,61.313L75.75,61.577L75.725,61.841L75.7,62.103L75.673,62.366L75.645,62.627L75.617,62.89L75.559,63.407L75.499,63.925L75.436,64.439L75.372,64.951L75.307,65.46L75.241,65.966L75.175,66.47L75.043,67.467L75.029,67.578L74.906,68.456L74.84,68.943L74.775,69.429L74.712,69.911L74.651,70.391L74.593,70.867L74.538,71.343L74.512,71.576L74.487,71.811L74.463,72.045L74.439,72.278L74.417,72.51L74.395,72.741L74.375,72.972L74.356,73.202L74.338,73.431L74.321,73.659L74.305,73.886L74.291,74.112L74.278,74.338L74.266,74.562L74.255,74.786L74.246,75.009L74.238,75.231L74.232,75.452L74.227,75.673L74.224,75.892L74.222,76.111L74.222,76.328L74.223,76.545L74.226,76.761L74.23,76.976L74.236,77.178L74.236,77.19L74.242,77.403L74.249,77.616L74.257,77.827L74.268,78.038L74.28,78.248L74.294,78.457L74.31,78.665L74.328,78.873L74.348,79.08L74.369,79.286L74.393,79.491L74.418,79.695L74.446,79.899L74.476,80.102L74.507,80.305L74.541,80.507L74.577,80.708L74.615,80.908L74.655,81.108L74.697,81.307L74.742,81.506L74.789,81.704L74.838,81.902L74.889,82.1L74.943,82.296L74.999,82.493L75.059,82.695L75.088,82.787L75.119,82.885L75.15,82.983L75.182,83.08L75.215,83.178L75.248,83.276L75.282,83.373L75.317,83.471L75.352,83.568L75.388,83.665L75.425,83.763L75.462,83.86L75.5,83.957L75.539,84.054L75.578,84.152L75.619,84.249L75.659,84.346L75.701,84.443L75.743,84.54L75.786,84.637L75.83,84.734L75.874,84.832L75.919,84.929L75.965,85.026L76.012,85.123L76.059,85.22L76.09,85.283L76.107,85.318L76.154,85.416L76.203,85.514L76.252,85.612L76.302,85.71L76.353,85.808L76.405,85.906L76.457,86.004L76.51,86.102L76.565,86.201L76.62,86.299L76.675,86.398L76.732,86.497L76.79,86.595L76.848,86.694L76.908,86.793L76.968,86.892L77.029,86.991L77.091,87.091L77.15,87.184L77.217,87.286L77.28,87.379L77.343,87.47L77.406,87.559L77.47,87.646L77.534,87.73L77.598,87.812L77.662,87.891L77.727,87.969L77.791,88.044L77.856,88.117L77.921,88.189L77.986,88.258L78.015,88.288L78.051,88.325L78.115,88.392L78.179,88.456L78.244,88.518L78.308,88.579L78.373,88.638L78.437,88.695L78.502,88.75L78.567,88.804L78.632,88.855L78.697,88.906L78.762,88.955L78.827,89.002L78.892,89.047L78.957,89.091L79.022,89.134L79.088,89.175L79.153,89.215L79.219,89.254L79.284,89.291L79.35,89.327L79.416,89.361L79.482,89.394L79.548,89.426L79.614,89.457L79.68,89.486L79.747,89.514L79.814,89.541L79.881,89.567L79.948,89.592L80.015,89.615L80.083,89.638L80.149,89.658L80.151,89.659L80.218,89.68L80.286,89.701L80.354,89.72L80.423,89.739L80.492,89.756L80.561,89.772L80.631,89.787L80.7,89.801L80.771,89.814L80.841,89.826L80.912,89.836L80.984,89.846L81.055,89.855L81.128,89.862L81.2,89.868L81.273,89.874L81.346,89.878L81.42,89.881L81.494,89.883L81.568,89.884L81.643,89.883L81.718,89.882L81.794,89.879L81.87,89.876L81.946,89.871L82.023,89.865L82.099,89.858L82.177,89.849L82.254,89.84L82.332,89.829L82.41,89.817L82.489,89.804L82.568,89.789L82.647,89.774L82.654,89.772L82.727,89.758L82.807,89.742L82.887,89.724L82.967,89.705L83.048,89.684L83.129,89.662L83.21,89.639L83.292,89.615L83.373,89.59L83.455,89.563L83.537,89.535L83.619,89.505L83.701,89.475L83.784,89.442L83.866,89.409L83.948,89.374L84.031,89.338L84.114,89.301L84.196,89.262L84.279,89.222L84.361,89.181L84.444,89.138L84.526,89.094L84.609,89.049L84.691,89.002L84.773,88.954L84.855,88.904L84.937,88.853L85.019,88.801L85.1,88.748L85.182,88.693L85.263,88.636L85.344,88.579L85.373,88.557L85.425,88.521L85.507,88.462L85.588,88.401L85.669,88.339L85.75,88.276L85.83,88.212L85.91,88.146L85.99,88.078L86.069,88.009L86.148,87.939L86.227,87.867L86.305,87.794L86.383,87.72L86.46,87.644L86.539,87.564L86.642,87.457L86.746,87.347L86.849,87.236L86.951,87.124L87.052,87.012L87.152,86.9L87.251,86.786L87.349,86.673L87.446,86.558L87.542,86.443L87.637,86.327L87.73,86.211L87.823,86.095L87.915,85.977L88.006,85.859L88.096,85.741L88.184,85.622L88.272,85.502L88.359,85.382L88.445,85.261L88.53,85.139L88.614,85.018L88.697,84.895L88.779,84.772L88.86,84.648L88.94,84.524L89.019,84.399L89.097,84.274L89.175,84.148L89.251,84.021L89.326,83.894L89.401,83.767L89.474,83.639L89.547,83.51L89.618,83.381L89.689,83.251L89.759,83.121L89.827,82.99L89.895,82.858L89.962,82.726L90.028,82.594L90.094,82.461L90.137,82.37L90.158,82.327L90.224,82.194L90.288,82.06L90.351,81.926L90.414,81.791L90.475,81.655L90.536,81.519L90.596,81.383L90.655,81.246L90.713,81.108L90.77,80.97L90.826,80.831L90.881,80.692L90.936,80.552L90.989,80.412L91.042,80.271L91.094,80.13L91.145,79.988L91.195,79.846L91.244,79.703L91.292,79.56L91.34,79.416L91.386,79.272L91.432,79.127L91.476,78.982L91.52,78.836L91.563,78.69L91.606,78.543L91.647,78.396L91.687,78.249L91.727,78.101L91.765,77.953L91.803,77.804L91.84,77.654L91.876,77.505L91.911,77.355L91.946,77.204L91.979,77.053L92.012,76.902L92.044,76.75L92.075,76.598L92.105,76.446L92.134,76.293L92.162,76.139L92.19,75.986L92.216,75.832L92.242,75.677L92.267,75.523L92.291,75.367L92.314,75.212L92.337,75.056L92.358,74.9L92.379,74.744L92.399,74.587L92.418,74.43L92.436,74.272L92.453,74.115L92.47,73.957L92.471,73.949L92.487,73.798L92.503,73.64L92.518,73.481L92.532,73.322L92.546,73.163L92.559,73.003L92.571,72.843L92.582,72.683L92.592,72.522L92.601,72.362L92.61,72.201L92.618,72.039L92.625,71.878L92.631,71.716L92.636,71.554L92.641,71.392L92.645,71.23L92.648,71.067L92.65,70.905L92.651,70.742L92.652,70.579L92.651,70.416L92.65,70.252L92.649,70.089L92.646,69.925L92.643,69.761L92.638,69.597L92.633,69.432L92.62,69.064L92.605,68.693L92.589,68.322L92.571,67.95L92.553,67.577L92.533,67.204L92.512,66.829L92.49,66.454L92.467,66.078L92.443,65.702L92.417,65.324L92.391,64.947L92.363,64.568L92.356,64.486L92.334,64.189L92.305,63.809L92.274,63.429L92.242,63.049L92.209,62.668L92.175,62.287L92.139,61.905L92.103,61.523L92.065,61.141L92.026,60.758L91.986,60.375L91.945,59.993L91.902,59.609L91.859,59.226L91.814,58.843L91.768,58.46L91.721,58.077L91.673,57.693L91.624,57.31L91.573,56.927L91.522,56.544L91.469,56.161L91.415,55.779L91.36,55.396L91.304,55.014L91.247,54.632L91.188,54.251L91.129,53.87L91.068,53.489L91.006,53.108L90.943,52.729L90.879,52.349L90.813,51.97L90.747,51.592L90.679,51.214L90.611,50.837L90.541,50.461L90.47,50.085L90.398,49.71L90.325,49.335L90.251,48.962L90.175,48.589L90.099,48.217L90.021,47.846L89.942,47.476L89.862,47.107L89.781,46.739L89.699,46.372L89.616,46.006L89.553,45.732L89.531,45.641L89.443,45.279L89.408,45.136L89.373,44.996L89.299,44.71L89.223,44.426L89.143,44.141L89.062,43.856L88.978,43.57L88.892,43.284L88.803,42.997L88.713,42.709L88.622,42.421L88.529,42.132L88.435,41.843L88.244,41.26L88.05,40.675L87.857,40.086L87.761,39.789L87.665,39.492L87.57,39.193L87.476,38.893L87.383,38.592L87.291,38.29L87.201,37.986L87.113,37.681L87.028,37.374L87,37.274L86.942,37.066L86.857,36.759L86.816,36.603L86.775,36.447L86.735,36.291L86.696,36.135L86.658,35.978L86.62,35.82L86.562,35.565L86.505,35.309L86.451,35.051L86.398,34.793L86.347,34.534L86.298,34.274L86.25,34.014L86.204,33.754L86.159,33.492L86.115,33.231L86.073,32.969L86.031,32.706L85.991,32.443L85.951,32.18L85.873,31.654L85.797,31.127L85.722,30.6L85.648,30.074L85.573,29.548L85.513,29.138L85.494,29.023L85.449,28.763L85.403,28.503L85.357,28.244L85.31,27.985L85.262,27.727L85.213,27.47L85.163,27.213L85.111,26.958L85.059,26.703L85.005,26.45L84.95,26.197L84.893,25.946L84.834,25.695L84.774,25.446L84.711,25.199L84.647,24.953L84.604,24.793L84.58,24.708L84.509,24.466L84.436,24.225L84.361,23.986L84.283,23.747L84.244,23.631L84.204,23.513L84.163,23.396L84.121,23.279L84.079,23.163L84.036,23.048L83.993,22.933L83.949,22.818L83.904,22.704L83.858,22.59L83.812,22.477L83.765,22.365L83.718,22.253L83.669,22.141L83.62,22.031L83.57,21.92L83.52,21.811L83.468,21.701L83.416,21.593L83.363,21.485L83.309,21.378L83.255,21.271L83.199,21.165L83.143,21.059L83.086,20.954L83.028,20.85L82.97,20.746L82.91,20.643L82.849,20.54L82.788,20.439L82.726,20.337L82.663,20.237L82.598,20.137L82.533,20.038L82.449,19.912L82.362,19.785L82.273,19.658L82.182,19.532L82.09,19.405L81.995,19.278L81.973,19.249L81.898,19.151L81.798,19.025L81.697,18.899L81.594,18.773L81.489,18.648L81.382,18.522L81.274,18.397L81.164,18.272L81.052,18.148L80.939,18.024L80.824,17.9L80.707,17.777L80.589,17.655L80.47,17.533L80.349,17.411L80.226,17.291L80.102,17.171L79.977,17.052L79.85,16.933L79.722,16.816L79.593,16.699L79.462,16.583L79.33,16.469L79.197,16.355L79.063,16.242L78.928,16.13L78.792,16.02L78.654,15.91L78.516,15.802L78.376,15.695L78.236,15.589L78.095,15.484L77.952,15.381L77.809,15.28L77.665,15.179L77.521,15.08L77.375,14.983L77.229,14.887L77.082,14.793L76.935,14.7L76.787,14.609L76.638,14.519L76.489,14.431L76.339,14.345L76.189,14.261L76.038,14.179L75.887,14.098L75.735,14.02L75.584,13.943L75.431,13.868L75.279,13.795L75.127,13.725L74.974,13.656L74.821,13.589L74.668,13.525L74.515,13.462L74.362,13.402L74.208,13.344L74.055,13.288L73.902,13.235L73.749,13.184L73.597,13.135L73.444,13.089L73.292,13.044L73.14,13.003L72.988,12.964L72.836,12.927L72.685,12.893L72.534,12.861L72.384,12.832L72.234,12.805L72.085,12.781L71.936,12.759L71.788,12.74L71.64,12.724L71.493,12.71L71.345,12.699L71.274,12.695L71.201,12.691L71.129,12.688L71.056,12.686L70.984,12.684L70.912,12.683L70.84,12.683L70.769,12.683Z" style="fill:rgb(198,87,140);"/>
        <g transform="matrix(-1,0,0,1,125.47,28.9949)">
            <path d="M65.328,28.567C67.02,35.231 73.719,47.52 72.997,57.889C72.246,68.697 67.401,78.952 73.784,89.274C77.606,95.454 84.935,95.045 89.366,90.106C94.543,84.336 96.171,76.735 95.516,69.183C94.821,61.16 93.272,52.573 91.004,44.821C90.08,41.664 88.637,38.694 87.79,35.51C86.413,30.33 86.36,24.065 83.352,19.498C79.556,13.734 70.018,7.789 64.662,14.66C63.935,15.592 63.079,16.713 62.845,17.903C62.218,21.099 64.429,25.029 65.328,28.567Z" style="fill:white;"/>
            <path d="M70.585,10.467L70.492,10.469L70.399,10.471L70.306,10.474L70.213,10.479L70.12,10.484L70.028,10.49L69.935,10.497L69.842,10.505L69.749,10.514L69.657,10.524L69.564,10.535L69.471,10.547L69.379,10.56L69.287,10.574L69.194,10.589L69.102,10.605L69.069,10.611L69.01,10.622L68.918,10.64L68.826,10.658L68.734,10.678L68.642,10.699L68.551,10.721L68.459,10.744L68.368,10.768L68.277,10.793L68.186,10.819L68.095,10.847L68.004,10.875L67.914,10.904L67.823,10.935L67.733,10.967L67.643,10.999L67.553,11.033L67.464,11.068L67.375,11.104L67.286,11.142L67.197,11.18L67.108,11.22L67.02,11.26L66.932,11.302L66.845,11.345L66.757,11.389L66.67,11.434L66.583,11.481L66.497,11.528L66.411,11.577L66.325,11.627L66.239,11.678L66.154,11.73L66.069,11.783L65.985,11.838L65.901,11.893L65.817,11.95L65.734,12.008L65.651,12.067L65.569,12.127L65.487,12.189L65.405,12.252L65.324,12.315L65.243,12.38L65.162,12.447L65.082,12.514L65.003,12.582L64.924,12.652L64.845,12.723L64.767,12.795L64.689,12.868L64.612,12.943L64.535,13.018L64.459,13.095L64.383,13.173L64.308,13.252L64.233,13.332L64.158,13.414L64.084,13.496L64.011,13.58L63.938,13.665L63.866,13.751L63.794,13.839L63.724,13.926L63.58,14.106L63.434,14.291L63.285,14.482L63.209,14.582L63.133,14.683L63.057,14.785L62.981,14.889L62.905,14.995L62.829,15.103L62.754,15.212L62.68,15.323L62.606,15.436L62.533,15.55L62.461,15.667L62.39,15.785L62.32,15.905L62.253,16.027L62.186,16.152L62.122,16.278L62.06,16.406L62,16.537L61.942,16.67L61.888,16.805L61.837,16.938L61.811,17.011L61.787,17.082L61.764,17.152L61.742,17.224L61.721,17.295L61.701,17.368L61.681,17.441L61.663,17.515L61.646,17.589L61.63,17.663L61.612,17.756L61.595,17.848L61.579,17.94L61.564,18.032L61.551,18.124L61.539,18.216L61.528,18.309L61.518,18.401L61.51,18.493L61.502,18.586L61.496,18.678L61.491,18.77L61.487,18.863L61.484,18.955L61.482,19.047L61.481,19.14L61.481,19.232L61.482,19.324L61.484,19.417L61.486,19.509L61.49,19.601L61.495,19.693L61.5,19.785L61.507,19.88L61.522,20.061L61.54,20.245L61.562,20.428L61.586,20.611L61.613,20.794L61.643,20.977L61.675,21.159L61.71,21.342L61.747,21.523L61.786,21.705L61.827,21.887L61.871,22.068L61.915,22.249L61.962,22.429L62.01,22.609L62.06,22.789L62.111,22.969L62.163,23.149L62.217,23.328L62.271,23.506L62.327,23.685L62.383,23.863L62.44,24.04L62.499,24.219L62.615,24.57L62.734,24.922L62.853,25.271L62.972,25.618L63.09,25.963L63.207,26.305L63.321,26.643L63.433,26.98L63.487,27.146L63.54,27.311L63.591,27.476L63.642,27.64L63.691,27.802L63.739,27.963L63.786,28.124L63.83,28.283L63.874,28.44L63.915,28.597L63.954,28.752L63.993,28.911L63.993,28.911L64.026,29.075L64.06,29.238L64.062,29.247L64.099,29.42L64.138,29.595L64.179,29.771L64.221,29.949L64.264,30.129L64.309,30.31L64.355,30.493L64.403,30.678L64.452,30.864L64.502,31.053L64.606,31.432L64.714,31.819L64.827,32.211L64.944,32.61L65.065,33.014L65.189,33.424L65.317,33.84L65.448,34.261L65.581,34.687L65.717,35.118L65.995,35.994L66.28,36.889L66.569,37.801L66.714,38.262L66.86,38.727L67.006,39.196L67.151,39.667L67.296,40.142L67.42,40.552L67.44,40.619L67.587,41.097L67.732,41.578L67.875,42.061L68.017,42.546L68.156,43.033L68.294,43.523L68.361,43.766L68.427,44.011L68.493,44.256L68.559,44.501L68.623,44.747L68.687,44.993L68.749,45.239L68.811,45.485L68.872,45.731L68.932,45.977L68.991,46.223L69.049,46.47L69.106,46.716L69.161,46.962L69.216,47.208L69.269,47.454L69.321,47.7L69.372,47.946L69.422,48.191L69.47,48.436L69.517,48.681L69.563,48.926L69.607,49.171L69.65,49.415L69.691,49.658L69.731,49.901L69.769,50.144L69.806,50.386L69.842,50.628L69.875,50.869L69.907,51.11L69.938,51.35L69.966,51.589L69.993,51.828L70.019,52.065L70.042,52.303L70.064,52.539L70.084,52.774L70.102,53.009L70.118,53.243L70.132,53.476L70.144,53.708L70.155,53.939L70.163,54.168L70.169,54.397L70.174,54.625L70.176,54.852L70.177,55.077L70.175,55.301L70.171,55.524L70.165,55.746L70.157,55.967L70.147,56.186L70.134,56.404L70.12,56.62L70.103,56.835L70.09,56.986L70.085,57.049L70.066,57.261L70.045,57.472L70.021,57.686L69.994,57.917L69.965,58.152L69.934,58.387L69.903,58.623L69.87,58.859L69.836,59.095L69.8,59.331L69.764,59.567L69.726,59.804L69.688,60.041L69.648,60.278L69.607,60.516L69.565,60.754L69.522,60.992L69.479,61.23L69.434,61.469L69.389,61.708L69.343,61.945L69.248,62.427L69.151,62.907L69.052,63.389L68.95,63.873L68.847,64.358L68.742,64.844L68.636,65.332L68.422,66.314L68.399,66.424L68.216,67.301L68.114,67.8L68.013,68.299L67.913,68.801L67.815,69.304L67.719,69.81L67.626,70.315L67.58,70.572L67.535,70.828L67.491,71.084L67.448,71.34L67.405,71.597L67.364,71.855L67.324,72.114L67.285,72.373L67.247,72.633L67.21,72.893L67.174,73.154L67.14,73.416L67.107,73.678L67.075,73.941L67.045,74.205L67.016,74.469L66.989,74.734L66.963,75L66.939,75.267L66.917,75.534L66.897,75.802L66.878,76.071L66.862,76.341L66.847,76.611L66.835,76.882L66.825,77.138L66.824,77.154L66.819,77.426L66.815,77.7L66.814,77.973L66.815,78.248L66.819,78.523L66.825,78.8L66.833,79.076L66.844,79.354L66.858,79.632L66.874,79.911L66.893,80.19L66.915,80.47L66.94,80.751L66.968,81.032L66.999,81.314L67.033,81.596L67.07,81.879L67.11,82.163L67.154,82.447L67.201,82.732L67.251,83.017L67.305,83.303L67.362,83.589L67.422,83.875L67.487,84.162L67.554,84.449L67.624,84.731L67.663,84.881L67.701,85.025L67.74,85.169L67.78,85.313L67.821,85.457L67.863,85.601L67.906,85.745L67.95,85.89L67.995,86.034L68.041,86.178L68.088,86.323L68.136,86.467L68.185,86.612L68.234,86.756L68.285,86.901L68.337,87.046L68.39,87.19L68.444,87.335L68.499,87.479L68.555,87.624L68.612,87.769L68.67,87.913L68.73,88.058L68.79,88.202L68.851,88.347L68.914,88.491L68.954,88.585L68.977,88.636L69.043,88.78L69.11,88.924L69.178,89.067L69.247,89.211L69.317,89.355L69.388,89.498L69.461,89.642L69.534,89.785L69.608,89.929L69.684,90.072L69.761,90.215L69.838,90.359L69.917,90.502L69.997,90.645L70.078,90.788L70.161,90.93L70.244,91.073L70.328,91.216L70.418,91.365L70.532,91.55L70.652,91.739L70.774,91.925L70.899,92.109L71.025,92.291L71.154,92.47L71.285,92.647L71.418,92.821L71.553,92.993L71.69,93.162L71.83,93.328L71.971,93.492L72.114,93.653L72.179,93.724L72.26,93.811L72.409,93.966L72.559,94.118L72.711,94.267L72.865,94.413L73.021,94.557L73.178,94.698L73.338,94.836L73.499,94.971L73.662,95.103L73.826,95.232L73.992,95.359L74.16,95.482L74.329,95.602L74.5,95.719L74.672,95.834L74.846,95.945L75.021,96.053L75.197,96.158L75.375,96.26L75.554,96.359L75.734,96.455L75.915,96.547L76.097,96.637L76.281,96.723L76.465,96.806L76.651,96.886L76.837,96.963L77.024,97.037L77.213,97.108L77.401,97.175L77.591,97.239L77.777,97.299L77.781,97.3L77.973,97.357L78.165,97.41L78.357,97.46L78.55,97.507L78.743,97.551L78.937,97.591L79.131,97.629L79.325,97.663L79.519,97.695L79.714,97.723L79.909,97.748L80.104,97.77L80.299,97.789L80.494,97.805L80.689,97.818L80.883,97.828L81.078,97.835L81.273,97.839L81.468,97.84L81.662,97.838L81.856,97.833L82.05,97.825L82.244,97.814L82.437,97.801L82.63,97.784L82.822,97.765L83.014,97.743L83.206,97.718L83.397,97.691L83.588,97.66L83.778,97.627L83.968,97.591L84.157,97.553L84.345,97.512L84.362,97.508L84.533,97.467L84.72,97.419L84.906,97.368L85.091,97.315L85.276,97.26L85.46,97.201L85.643,97.141L85.825,97.077L86.006,97.012L86.187,96.944L86.366,96.873L86.545,96.8L86.723,96.724L86.9,96.646L87.076,96.566L87.25,96.483L87.424,96.398L87.597,96.31L87.769,96.22L87.94,96.128L88.109,96.034L88.278,95.937L88.445,95.838L88.612,95.737L88.777,95.633L88.941,95.528L89.104,95.42L89.265,95.309L89.426,95.197L89.585,95.082L89.743,94.966L89.899,94.847L90.055,94.726L90.111,94.681L90.208,94.602L90.36,94.475L90.51,94.346L90.658,94.216L90.806,94.083L90.952,93.948L91.096,93.811L91.239,93.672L91.38,93.531L91.52,93.388L91.659,93.243L91.795,93.097L91.931,92.948L92.064,92.797L92.193,92.648L92.332,92.483L92.467,92.321L92.6,92.158L92.732,91.995L92.862,91.83L92.99,91.665L93.117,91.5L93.242,91.333L93.366,91.166L93.489,90.999L93.61,90.83L93.729,90.661L93.847,90.492L93.964,90.321L94.078,90.151L94.192,89.979L94.304,89.807L94.414,89.635L94.523,89.461L94.631,89.288L94.737,89.113L94.841,88.939L94.944,88.763L95.046,88.587L95.146,88.411L95.245,88.234L95.342,88.056L95.437,87.879L95.532,87.7L95.625,87.521L95.716,87.342L95.806,87.162L95.895,86.982L95.982,86.801L96.067,86.62L96.152,86.439L96.234,86.257L96.316,86.075L96.396,85.892L96.475,85.709L96.552,85.525L96.628,85.342L96.679,85.216L96.702,85.157L96.773,84.972L96.843,84.786L96.912,84.6L96.979,84.414L97.044,84.228L97.109,84.041L97.172,83.854L97.234,83.666L97.294,83.479L97.353,83.291L97.411,83.103L97.467,82.914L97.523,82.726L97.576,82.537L97.629,82.348L97.68,82.159L97.73,81.969L97.779,81.78L97.826,81.59L97.872,81.4L97.917,81.21L97.96,81.019L98.003,80.829L98.044,80.638L98.084,80.447L98.122,80.256L98.16,80.065L98.196,79.874L98.231,79.683L98.264,79.491L98.297,79.299L98.328,79.108L98.358,78.916L98.387,78.724L98.415,78.532L98.442,78.34L98.467,78.148L98.492,77.955L98.515,77.763L98.537,77.571L98.557,77.378L98.577,77.186L98.596,76.993L98.613,76.801L98.63,76.608L98.645,76.415L98.659,76.223L98.672,76.03L98.684,75.837L98.695,75.645L98.704,75.452L98.713,75.259L98.721,75.067L98.727,74.874L98.733,74.681L98.737,74.488L98.741,74.296L98.741,74.287L98.742,74.103L98.742,73.91L98.741,73.718L98.739,73.525L98.736,73.333L98.732,73.14L98.727,72.948L98.721,72.756L98.714,72.564L98.706,72.372L98.697,72.18L98.687,71.988L98.676,71.796L98.665,71.604L98.652,71.412L98.638,71.221L98.623,71.029L98.607,70.838L98.591,70.647L98.573,70.456L98.555,70.265L98.535,70.074L98.515,69.884L98.494,69.693L98.472,69.503L98.448,69.313L98.424,69.123L98.4,68.934L98.347,68.549L98.293,68.165L98.237,67.78L98.181,67.394L98.123,67.008L98.064,66.622L98.003,66.235L97.941,65.847L97.878,65.459L97.814,65.071L97.748,64.682L97.682,64.293L97.614,63.904L97.598,63.819L97.544,63.514L97.472,63.125L97.4,62.735L97.326,62.344L97.251,61.954L97.175,61.564L97.098,61.173L97.019,60.783L96.939,60.392L96.858,60.001L96.776,59.611L96.693,59.22L96.608,58.83L96.522,58.44L96.435,58.05L96.347,57.66L96.258,57.27L96.168,56.88L96.076,56.491L95.983,56.102L95.889,55.714L95.794,55.325L95.698,54.938L95.601,54.55L95.502,54.163L95.403,53.777L95.302,53.391L95.2,53.006L95.097,52.621L94.993,52.237L94.888,51.853L94.782,51.47L94.675,51.088L94.566,50.707L94.457,50.326L94.346,49.946L94.235,49.567L94.122,49.189L94.008,48.812L93.893,48.435L93.777,48.06L93.66,47.686L93.542,47.312L93.423,46.94L93.303,46.569L93.182,46.199L93.06,45.83L92.937,45.462L92.813,45.095L92.718,44.82L92.688,44.73L92.564,44.364L92.512,44.211L92.458,44.056L92.35,43.753L92.24,43.45L92.127,43.15L92.012,42.851L91.896,42.555L91.778,42.261L91.659,41.968L91.538,41.677L91.417,41.387L91.296,41.099L91.174,40.812L90.929,40.243L90.686,39.677L90.444,39.114L90.325,38.834L90.206,38.554L90.089,38.275L89.974,37.996L89.86,37.717L89.748,37.439L89.638,37.16L89.531,36.882L89.426,36.603L89.392,36.512L89.326,36.323L89.229,36.041L89.183,35.902L89.136,35.762L89.091,35.621L89.047,35.481L89.003,35.34L88.96,35.2L88.891,34.968L88.824,34.734L88.759,34.498L88.695,34.261L88.632,34.021L88.571,33.779L88.51,33.536L88.451,33.291L88.392,33.044L88.335,32.796L88.278,32.546L88.222,32.294L88.167,32.042L88.112,31.788L88.004,31.276L87.897,30.761L87.79,30.242L87.683,29.72L87.575,29.195L87.488,28.785L87.467,28.669L87.417,28.404L87.366,28.139L87.314,27.874L87.261,27.609L87.207,27.344L87.152,27.079L87.096,26.814L87.038,26.549L86.979,26.284L86.918,26.019L86.855,25.755L86.791,25.491L86.725,25.228L86.656,24.965L86.586,24.703L86.513,24.441L86.464,24.271L86.439,24.18L86.364,23.919L86.287,23.659L86.207,23.399L86.124,23.142L86.081,23.012L86.038,22.884L85.994,22.756L85.949,22.628L85.904,22.5L85.857,22.372L85.81,22.245L85.762,22.118L85.713,21.992L85.663,21.866L85.612,21.74L85.561,21.614L85.508,21.489L85.455,21.364L85.401,21.24L85.345,21.116L85.289,20.992L85.232,20.869L85.174,20.746L85.114,20.623L85.054,20.501L84.993,20.38L84.931,20.259L84.867,20.138L84.803,20.018L84.737,19.898L84.67,19.779L84.603,19.66L84.534,19.542L84.463,19.424L84.392,19.307L84.32,19.191L84.246,19.074L84.171,18.959L84.076,18.815L83.978,18.671L83.879,18.528L83.777,18.384L83.674,18.241L83.568,18.098L83.544,18.066L83.461,17.955L83.353,17.812L83.242,17.67L83.13,17.527L83.016,17.386L82.9,17.244L82.782,17.103L82.663,16.963L82.542,16.823L82.419,16.684L82.294,16.545L82.168,16.407L82.04,16.27L81.91,16.133L81.779,15.997L81.646,15.862L81.512,15.727L81.376,15.594L81.239,15.461L81.1,15.329L80.96,15.198L80.819,15.068L80.676,14.939L80.531,14.811L80.386,14.684L80.239,14.558L80.09,14.434L79.941,14.31L79.79,14.188L79.638,14.067L79.485,13.948L79.33,13.829L79.175,13.712L79.018,13.597L78.86,13.482L78.701,13.37L78.541,13.258L78.38,13.149L78.218,13.041L78.055,12.934L77.891,12.829L77.726,12.726L77.561,12.625L77.394,12.525L77.226,12.427L77.058,12.331L76.888,12.237L76.718,12.145L76.547,12.055L76.375,11.966L76.203,11.88L76.029,11.796L75.855,11.714L75.681,11.634L75.505,11.557L75.329,11.481L75.152,11.408L74.975,11.338L74.797,11.269L74.618,11.203L74.439,11.14L74.26,11.079L74.079,11.021L73.899,10.965L73.717,10.912L73.536,10.862L73.354,10.814L73.171,10.769L72.988,10.727L72.805,10.688L72.621,10.652L72.437,10.619L72.253,10.589L72.068,10.563L71.883,10.539L71.698,10.519L71.516,10.502L71.42,10.494L71.328,10.488L71.235,10.482L71.142,10.477L71.049,10.473L70.956,10.47L70.863,10.468L70.771,10.467L70.678,10.467L70.585,10.467ZM70.912,12.683L70.984,12.684L71.056,12.686L71.129,12.688L71.201,12.691L71.274,12.695L71.345,12.699L71.493,12.71L71.64,12.724L71.788,12.74L71.936,12.759L72.085,12.781L72.234,12.805L72.384,12.832L72.534,12.861L72.685,12.893L72.836,12.927L72.988,12.964L73.14,13.003L73.292,13.044L73.444,13.089L73.597,13.135L73.749,13.184L73.902,13.235L74.055,13.288L74.208,13.344L74.362,13.402L74.515,13.462L74.668,13.525L74.821,13.589L74.974,13.656L75.127,13.725L75.279,13.795L75.431,13.868L75.584,13.943L75.735,14.02L75.887,14.098L76.038,14.179L76.189,14.261L76.339,14.345L76.489,14.431L76.638,14.519L76.787,14.609L76.935,14.7L77.082,14.793L77.229,14.887L77.375,14.983L77.521,15.08L77.665,15.179L77.809,15.28L77.952,15.381L78.095,15.484L78.236,15.589L78.376,15.695L78.516,15.802L78.654,15.91L78.792,16.02L78.928,16.13L79.063,16.242L79.197,16.355L79.33,16.469L79.462,16.583L79.593,16.699L79.722,16.816L79.85,16.933L79.977,17.052L80.102,17.171L80.226,17.291L80.349,17.411L80.47,17.533L80.589,17.655L80.707,17.777L80.824,17.9L80.939,18.024L81.052,18.148L81.164,18.272L81.274,18.397L81.382,18.522L81.489,18.648L81.594,18.773L81.697,18.899L81.798,19.025L81.898,19.151L81.973,19.249L81.995,19.278L82.09,19.405L82.182,19.532L82.273,19.658L82.362,19.785L82.449,19.912L82.533,20.038L82.598,20.137L82.663,20.237L82.726,20.337L82.788,20.439L82.849,20.54L82.91,20.643L82.97,20.746L83.028,20.85L83.086,20.954L83.143,21.059L83.199,21.165L83.255,21.271L83.309,21.378L83.363,21.485L83.416,21.593L83.468,21.701L83.52,21.811L83.57,21.92L83.62,22.031L83.669,22.141L83.718,22.253L83.765,22.365L83.812,22.477L83.858,22.59L83.904,22.704L83.949,22.818L83.993,22.933L84.036,23.048L84.079,23.163L84.121,23.279L84.163,23.396L84.204,23.513L84.244,23.631L84.283,23.747L84.361,23.986L84.436,24.225L84.509,24.466L84.58,24.708L84.604,24.793L84.647,24.953L84.711,25.199L84.774,25.446L84.834,25.695L84.893,25.946L84.95,26.197L85.005,26.45L85.059,26.703L85.111,26.958L85.163,27.213L85.213,27.47L85.262,27.727L85.31,27.985L85.357,28.244L85.403,28.503L85.449,28.763L85.494,29.023L85.513,29.138L85.573,29.548L85.648,30.074L85.722,30.6L85.797,31.127L85.873,31.654L85.951,32.18L85.991,32.443L86.031,32.706L86.073,32.969L86.115,33.231L86.159,33.492L86.204,33.754L86.25,34.014L86.298,34.274L86.347,34.534L86.398,34.793L86.451,35.051L86.505,35.309L86.562,35.565L86.62,35.82L86.658,35.978L86.696,36.135L86.735,36.291L86.775,36.447L86.816,36.603L86.857,36.759L86.942,37.066L87,37.274L87.028,37.374L87.113,37.681L87.201,37.986L87.291,38.29L87.383,38.592L87.476,38.893L87.57,39.193L87.665,39.492L87.761,39.789L87.857,40.086L88.05,40.675L88.244,41.26L88.435,41.843L88.529,42.132L88.622,42.421L88.713,42.709L88.803,42.997L88.892,43.284L88.978,43.57L89.062,43.856L89.143,44.141L89.223,44.426L89.299,44.71L89.373,44.996L89.408,45.136L89.443,45.279L89.531,45.641L89.553,45.732L89.616,46.006L89.699,46.372L89.781,46.739L89.862,47.107L89.942,47.476L90.021,47.846L90.099,48.217L90.175,48.589L90.251,48.962L90.325,49.335L90.398,49.71L90.47,50.085L90.541,50.461L90.611,50.837L90.679,51.214L90.747,51.592L90.813,51.97L90.879,52.349L90.943,52.729L91.006,53.108L91.068,53.489L91.129,53.87L91.188,54.251L91.247,54.632L91.304,55.014L91.36,55.396L91.415,55.779L91.469,56.161L91.522,56.544L91.573,56.927L91.624,57.31L91.673,57.693L91.721,58.077L91.768,58.46L91.814,58.843L91.859,59.226L91.902,59.609L91.945,59.993L91.986,60.375L92.026,60.758L92.065,61.141L92.103,61.523L92.139,61.905L92.175,62.287L92.209,62.668L92.242,63.049L92.274,63.429L92.305,63.809L92.334,64.189L92.356,64.486L92.363,64.568L92.391,64.947L92.417,65.324L92.443,65.702L92.467,66.078L92.49,66.454L92.512,66.829L92.533,67.204L92.553,67.577L92.571,67.95L92.589,68.322L92.605,68.693L92.62,69.064L92.633,69.432L92.638,69.597L92.643,69.761L92.646,69.925L92.649,70.089L92.65,70.252L92.651,70.416L92.652,70.579L92.651,70.742L92.65,70.905L92.648,71.067L92.645,71.23L92.641,71.392L92.636,71.554L92.631,71.716L92.625,71.878L92.618,72.039L92.61,72.201L92.601,72.362L92.592,72.522L92.582,72.683L92.571,72.843L92.559,73.003L92.546,73.163L92.532,73.322L92.518,73.481L92.503,73.64L92.487,73.798L92.471,73.949L92.47,73.957L92.453,74.115L92.436,74.272L92.418,74.43L92.399,74.587L92.379,74.744L92.358,74.9L92.337,75.056L92.314,75.212L92.291,75.367L92.267,75.523L92.242,75.677L92.216,75.832L92.19,75.986L92.162,76.139L92.134,76.293L92.105,76.446L92.075,76.598L92.044,76.75L92.012,76.902L91.979,77.053L91.946,77.204L91.911,77.355L91.876,77.505L91.84,77.654L91.803,77.804L91.765,77.953L91.727,78.101L91.687,78.249L91.647,78.396L91.606,78.543L91.563,78.69L91.52,78.836L91.476,78.982L91.432,79.127L91.386,79.272L91.34,79.416L91.292,79.56L91.244,79.703L91.195,79.846L91.145,79.988L91.094,80.13L91.042,80.271L90.989,80.412L90.936,80.552L90.881,80.692L90.826,80.831L90.77,80.97L90.713,81.108L90.655,81.246L90.596,81.383L90.536,81.519L90.475,81.655L90.414,81.791L90.351,81.926L90.288,82.06L90.224,82.194L90.158,82.327L90.137,82.37L90.094,82.461L90.028,82.594L89.962,82.726L89.895,82.858L89.827,82.99L89.759,83.121L89.689,83.251L89.618,83.381L89.547,83.51L89.474,83.639L89.401,83.767L89.326,83.894L89.251,84.021L89.175,84.148L89.097,84.274L89.019,84.399L88.94,84.524L88.86,84.648L88.779,84.772L88.697,84.895L88.614,85.018L88.53,85.139L88.445,85.261L88.359,85.382L88.272,85.502L88.184,85.622L88.096,85.741L88.006,85.859L87.915,85.977L87.823,86.095L87.73,86.211L87.637,86.327L87.542,86.443L87.446,86.558L87.349,86.673L87.251,86.786L87.152,86.9L87.052,87.012L86.951,87.124L86.849,87.236L86.746,87.347L86.642,87.457L86.539,87.564L86.46,87.644L86.383,87.72L86.305,87.794L86.227,87.867L86.148,87.939L86.069,88.009L85.99,88.078L85.91,88.146L85.83,88.212L85.75,88.276L85.669,88.339L85.588,88.401L85.507,88.462L85.425,88.521L85.373,88.557L85.344,88.579L85.263,88.636L85.182,88.693L85.1,88.748L85.019,88.801L84.937,88.853L84.855,88.904L84.773,88.954L84.691,89.002L84.609,89.049L84.526,89.094L84.444,89.138L84.361,89.181L84.279,89.222L84.196,89.262L84.114,89.301L84.031,89.338L83.948,89.374L83.866,89.409L83.784,89.442L83.701,89.475L83.619,89.505L83.537,89.535L83.455,89.563L83.373,89.59L83.292,89.615L83.21,89.639L83.129,89.662L83.048,89.684L82.967,89.705L82.887,89.724L82.807,89.742L82.727,89.758L82.654,89.772L82.647,89.774L82.568,89.789L82.489,89.804L82.41,89.817L82.332,89.829L82.254,89.84L82.177,89.849L82.099,89.858L82.023,89.865L81.946,89.871L81.87,89.876L81.794,89.879L81.718,89.882L81.643,89.883L81.568,89.884L81.494,89.883L81.42,89.881L81.346,89.878L81.273,89.874L81.2,89.868L81.128,89.862L81.055,89.855L80.984,89.846L80.912,89.836L80.841,89.826L80.771,89.814L80.7,89.801L80.631,89.787L80.561,89.772L80.492,89.756L80.423,89.739L80.354,89.72L80.286,89.701L80.218,89.68L80.151,89.659L80.149,89.658L80.083,89.638L80.015,89.615L79.948,89.592L79.881,89.567L79.814,89.541L79.747,89.514L79.68,89.486L79.614,89.457L79.548,89.426L79.482,89.394L79.416,89.361L79.35,89.327L79.284,89.291L79.219,89.254L79.153,89.215L79.088,89.175L79.022,89.134L78.957,89.091L78.892,89.047L78.827,89.002L78.762,88.955L78.697,88.906L78.632,88.855L78.567,88.804L78.502,88.75L78.437,88.695L78.373,88.638L78.308,88.579L78.244,88.518L78.179,88.456L78.115,88.392L78.051,88.325L78.015,88.288L77.986,88.258L77.921,88.189L77.856,88.117L77.791,88.044L77.727,87.969L77.662,87.891L77.598,87.812L77.534,87.73L77.47,87.646L77.406,87.559L77.343,87.47L77.28,87.379L77.217,87.286L77.15,87.184L77.091,87.091L77.029,86.991L76.968,86.892L76.908,86.793L76.848,86.694L76.79,86.595L76.732,86.497L76.675,86.398L76.62,86.299L76.565,86.201L76.51,86.102L76.457,86.004L76.405,85.906L76.353,85.808L76.302,85.71L76.252,85.612L76.203,85.514L76.154,85.416L76.107,85.318L76.09,85.283L76.059,85.22L76.012,85.123L75.965,85.026L75.919,84.929L75.874,84.832L75.83,84.734L75.786,84.637L75.743,84.54L75.701,84.443L75.659,84.346L75.619,84.249L75.578,84.152L75.539,84.054L75.5,83.957L75.462,83.86L75.425,83.763L75.388,83.665L75.352,83.568L75.317,83.471L75.282,83.373L75.248,83.276L75.215,83.178L75.182,83.08L75.15,82.983L75.119,82.885L75.088,82.787L75.059,82.695L74.999,82.493L74.943,82.296L74.889,82.1L74.838,81.902L74.789,81.704L74.742,81.506L74.697,81.307L74.655,81.108L74.615,80.908L74.577,80.708L74.541,80.507L74.507,80.305L74.476,80.102L74.446,79.899L74.418,79.695L74.393,79.491L74.369,79.286L74.348,79.08L74.328,78.873L74.31,78.665L74.294,78.457L74.28,78.248L74.268,78.038L74.257,77.827L74.249,77.616L74.242,77.403L74.236,77.19L74.236,77.178L74.23,76.976L74.226,76.761L74.223,76.545L74.222,76.328L74.222,76.111L74.224,75.892L74.227,75.673L74.232,75.452L74.238,75.231L74.246,75.009L74.255,74.786L74.266,74.562L74.278,74.338L74.291,74.112L74.305,73.886L74.321,73.659L74.338,73.431L74.356,73.202L74.375,72.972L74.395,72.741L74.417,72.51L74.439,72.278L74.463,72.045L74.487,71.811L74.512,71.576L74.538,71.343L74.593,70.867L74.651,70.391L74.712,69.911L74.775,69.429L74.84,68.943L74.906,68.456L75.029,67.578L75.043,67.467L75.175,66.47L75.241,65.966L75.307,65.46L75.372,64.951L75.436,64.439L75.499,63.925L75.559,63.407L75.617,62.89L75.645,62.627L75.673,62.366L75.7,62.103L75.725,61.841L75.75,61.577L75.775,61.313L75.798,61.048L75.82,60.783L75.841,60.517L75.861,60.25L75.879,59.983L75.897,59.715L75.913,59.447L75.928,59.178L75.942,58.908L75.954,58.638L75.965,58.367L75.974,58.092L75.981,57.818L75.986,57.541L75.987,57.264L75.987,57.181L75.984,56.987L75.977,56.71L75.968,56.433L75.956,56.157L75.94,55.881L75.923,55.605L75.902,55.329L75.879,55.054L75.853,54.779L75.825,54.504L75.794,54.229L75.761,53.955L75.726,53.681L75.688,53.408L75.648,53.135L75.606,52.862L75.561,52.59L75.515,52.318L75.466,52.046L75.415,51.775L75.363,51.504L75.308,51.234L75.252,50.964L75.194,50.694L75.133,50.425L75.072,50.156L75.008,49.888L74.943,49.621L74.876,49.353L74.808,49.087L74.738,48.82L74.666,48.555L74.593,48.29L74.519,48.025L74.443,47.761L74.366,47.497L74.288,47.234L74.208,46.972L74.127,46.71L74.045,46.449L73.962,46.189L73.878,45.929L73.792,45.67L73.706,45.411L73.619,45.153L73.53,44.896L73.441,44.64L73.351,44.384L73.26,44.129L73.168,43.874L73.076,43.621L72.983,43.368L72.889,43.116L72.794,42.865L72.699,42.614L72.604,42.365L72.507,42.115L72.314,41.622L72.118,41.13L71.921,40.643L71.723,40.159L71.524,39.68L71.325,39.204L71.297,39.138L71.123,38.734L70.92,38.268L70.718,37.807L70.516,37.35L70.316,36.899L70.116,36.452L69.723,35.575L69.339,34.719L68.965,33.885L68.784,33.478L68.605,33.076L68.431,32.681L68.262,32.293L68.096,31.912L67.936,31.538L67.781,31.17L67.631,30.811L67.487,30.458L67.348,30.113L67.282,29.945L67.217,29.778L67.154,29.613L67.092,29.45L67.032,29.289L66.974,29.131L66.918,28.974L66.863,28.82L66.81,28.668L66.76,28.519L66.757,28.512L66.71,28.372L66.662,28.223L66.615,28.049L66.564,27.871L66.513,27.693L66.459,27.515L66.404,27.338L66.348,27.161L66.291,26.984L66.233,26.808L66.173,26.632L66.113,26.456L66.052,26.281L65.99,26.105L65.865,25.758L65.738,25.41L65.61,25.065L65.483,24.721L65.356,24.379L65.23,24.04L65.107,23.702L64.986,23.367L64.927,23.201L64.869,23.036L64.813,22.871L64.757,22.707L64.703,22.544L64.65,22.382L64.598,22.221L64.548,22.06L64.5,21.901L64.453,21.743L64.409,21.586L64.366,21.43L64.325,21.275L64.286,21.121L64.249,20.969L64.214,20.818L64.181,20.669L64.151,20.52L64.123,20.374L64.098,20.229L64.075,20.085L64.055,19.943L64.037,19.803L64.022,19.661L64.016,19.595L64.01,19.527L64.005,19.459L64,19.392L63.996,19.325L63.993,19.259L63.991,19.193L63.989,19.127L63.988,19.062L63.988,18.997L63.988,18.933L63.99,18.87L63.992,18.806L63.994,18.744L63.997,18.681L64.002,18.62L64.006,18.558L64.012,18.497L64.018,18.437L64.025,18.377L64.033,18.317L64.042,18.258L64.051,18.2L64.062,18.133L64.059,18.151L64.068,18.105L64.077,18.058L64.073,18.077L64.083,18.031L64.094,17.984L64.09,18.002L64.102,17.955L64.112,17.916L64.123,17.878L64.134,17.838L64.149,17.791L64.144,17.807L64.158,17.763L64.187,17.678L64.218,17.596L64.251,17.513L64.287,17.429L64.326,17.344L64.367,17.258L64.41,17.172L64.456,17.084L64.503,16.997L64.553,16.908L64.605,16.819L64.659,16.73L64.714,16.641L64.771,16.551L64.83,16.461L64.89,16.371L64.951,16.282L65.013,16.192L65.076,16.102L65.14,16.012L65.204,15.924L65.336,15.745L65.469,15.567L65.601,15.394L65.656,15.321L65.711,15.251L65.766,15.182L65.821,15.114L65.877,15.047L65.933,14.981L65.989,14.917L66.045,14.853L66.101,14.791L66.158,14.73L66.215,14.67L66.272,14.611L66.329,14.553L66.387,14.496L66.444,14.44L66.502,14.385L66.56,14.331L66.618,14.278L66.677,14.226L66.736,14.175L66.795,14.125L66.854,14.076L66.913,14.029L66.972,13.982L67.032,13.936L67.092,13.89L67.152,13.846L67.212,13.803L67.272,13.761L67.333,13.719L67.394,13.679L67.455,13.639L67.516,13.601L67.577,13.563L67.639,13.526L67.701,13.49L67.763,13.455L67.825,13.42L67.887,13.387L67.95,13.354L68.013,13.322L68.075,13.291L68.139,13.261L68.202,13.232L68.266,13.203L68.329,13.176L68.393,13.149L68.457,13.123L68.522,13.097L68.586,13.073L68.651,13.049L68.716,13.026L68.782,13.003L68.847,12.982L68.913,12.961L68.979,12.941L69.045,12.922L69.111,12.903L69.178,12.886L69.244,12.869L69.311,12.852L69.379,12.837L69.446,12.822L69.489,12.813L69.514,12.808L69.582,12.795L69.65,12.783L69.718,12.771L69.787,12.76L69.855,12.75L69.924,12.741L69.994,12.732L70.063,12.724L70.133,12.717L70.203,12.71L70.273,12.704L70.343,12.699L70.413,12.695L70.484,12.691L70.555,12.688L70.626,12.686L70.697,12.684L70.769,12.683L70.84,12.683L70.912,12.683Z" style="fill:rgb(198,87,140);"/>
        </g>
        <path d="M72.396,45.169L72.522,45.248L72.588,45.29L72.775,45.408L72.962,45.527L73.148,45.647L73.333,45.767L73.517,45.888L73.701,46.009L73.885,46.131L74.068,46.254L74.251,46.378L74.613,46.625L74.974,46.876L75.093,46.959L75.334,47.127L75.692,47.379L76.049,47.634L76.404,47.89L76.757,48.147L76.773,48.159L77.112,48.403L77.464,48.66L77.816,48.918L78.081,49.114L78.168,49.175L78.524,49.426L78.879,49.678L79.233,49.931L79.586,50.185L79.938,50.439L80.29,50.695L80.366,50.75L80.642,50.948L80.995,51.201L81.696,51.706L82.396,52.213L83.028,52.672L83.784,53.229L84.474,53.736L85.164,54.241L85.508,54.492L85.693,54.626L85.85,54.744L86.19,54.999L86.53,55.252L86.869,55.503L86.911,55.534L87.204,55.76L87.539,56.016L87.874,56.27L87.994,56.361L88.203,56.531L88.53,56.793L88.857,57.055L88.951,57.129L89.179,57.321L89.501,57.588L89.823,57.853L89.981,57.982L90.143,58.121L90.461,58.39L90.78,58.658L91.101,58.923L91.423,59.187L91.748,59.448L91.909,59.577L92.042,59.682L92.071,59.706L92.232,59.839L92.393,59.971L92.554,60.102L92.716,60.232L92.879,60.362L93.042,60.491L93.205,60.62L93.369,60.748L93.534,60.875L93.699,61.002L93.865,61.128L94.031,61.253L94.198,61.377L94.377,61.509L95.151,62.649L95.014,63.91L95.009,63.918L95.004,63.927L93.966,64.659L92.595,64.532L92.586,64.528L92.386,64.435L92.183,64.34L91.981,64.243L91.779,64.146L91.578,64.047L91.377,63.948L91.177,63.848L90.977,63.748L90.778,63.646L90.579,63.544L90.381,63.441L90.183,63.338L89.986,63.233L89.789,63.128L89.753,63.109L89.595,63.019L89.4,62.908L89.017,62.686L88.634,62.461L88.253,62.233L87.873,62.003L87.496,61.772L87.304,61.653L87.123,61.534L86.755,61.29L86.389,61.044L86.128,60.868L86.026,60.795L85.67,60.536L85.316,60.277L85.09,60.11L84.967,60.012L84.625,59.739L84.285,59.465L83.988,59.224L83.946,59.189L83.614,58.906L83.284,58.623L82.954,58.34L82.802,58.208L82.628,58.053L82.305,57.762L81.663,57.183L81.023,56.603L80.328,55.973L79.754,55.443L79.123,54.864L78.493,54.286L78.178,54L77.932,53.776L77.862,53.715L77.544,53.433L77.226,53.153L76.907,52.874L76.588,52.596L76.268,52.32L75.948,52.045L75.869,51.979L75.621,51.78L75.292,51.518L74.962,51.258L74.645,51.011L74.631,51L74.296,50.748L73.961,50.498L73.625,50.25L73.287,50.005L73.061,49.842L72.949,49.762L72.608,49.523L72.264,49.286L72.094,49.17L71.922,49.053L71.75,48.937L71.578,48.822L71.405,48.708L71.231,48.594L71.058,48.481L70.884,48.369L70.71,48.257L70.646,48.217L70.532,48.145L70.523,48.139L69.758,47.047L69.977,45.732L69.988,45.715L71.08,44.949L72.396,45.169Z" style="fill:rgb(198,87,140);"/>
        <g transform="matrix(-1,0,0,1,125.47,28.9949)">
            <path d="M69.988,45.715L69.977,45.732L69.758,47.047L70.523,48.139L70.646,48.217L70.71,48.257L70.884,48.369L71.058,48.481L71.231,48.594L71.405,48.708L71.578,48.822L71.75,48.937L71.922,49.053L72.094,49.17L72.264,49.286L72.608,49.523L72.949,49.762L73.061,49.842L73.287,50.005L73.625,50.25L73.961,50.498L74.296,50.748L74.631,51L74.645,51.011L74.962,51.258L75.292,51.518L75.621,51.78L75.869,51.979L75.948,52.045L76.268,52.32L76.588,52.596L76.907,52.874L77.226,53.153L77.544,53.433L77.862,53.715L77.932,53.776L78.178,54L78.493,54.286L79.123,54.864L79.754,55.443L80.328,55.973L81.023,56.603L81.663,57.183L82.305,57.762L82.628,58.053L82.802,58.208L82.954,58.34L83.284,58.623L83.614,58.906L83.946,59.189L83.988,59.224L84.285,59.465L84.625,59.739L84.967,60.012L85.09,60.11L85.316,60.277L85.67,60.536L86.026,60.795L86.128,60.868L86.389,61.044L86.755,61.29L87.123,61.534L87.304,61.653L87.496,61.772L87.873,62.003L88.253,62.233L88.634,62.461L89.017,62.686L89.4,62.908L89.595,63.019L89.753,63.109L89.789,63.128L89.986,63.233L90.183,63.338L90.381,63.441L90.579,63.544L90.778,63.646L90.977,63.748L91.177,63.848L91.377,63.948L91.578,64.047L91.779,64.146L91.981,64.243L92.183,64.34L92.386,64.435L92.595,64.532L93.966,64.659L95.004,63.927L95.014,63.91L95.151,62.649L94.377,61.509L94.369,61.503L94.198,61.377L94.031,61.253L93.865,61.128L93.699,61.002L93.534,60.875L93.369,60.748L93.205,60.62L93.042,60.491L92.879,60.362L92.716,60.232L92.554,60.102L92.393,59.971L92.232,59.839L92.071,59.706L92.042,59.682L91.909,59.577L91.748,59.448L91.423,59.187L91.101,58.923L90.78,58.658L90.461,58.39L90.143,58.121L89.981,57.982L89.823,57.853L89.501,57.588L89.179,57.321L88.951,57.129L88.857,57.055L88.53,56.793L88.203,56.531L87.994,56.361L87.874,56.27L87.539,56.016L87.204,55.76L86.911,55.534L86.869,55.503L86.53,55.252L86.19,54.999L85.85,54.744L85.693,54.626L85.508,54.492L85.164,54.241L84.474,53.736L83.784,53.229L83.028,52.672L82.396,52.213L81.696,51.706L80.995,51.201L80.642,50.948L80.366,50.75L80.29,50.695L79.938,50.439L79.586,50.185L79.233,49.931L78.879,49.678L78.524,49.426L78.168,49.175L78.081,49.114L77.816,48.918L77.464,48.66L77.112,48.403L76.773,48.159L76.757,48.147L76.404,47.89L76.049,47.634L75.692,47.379L75.334,47.127L75.093,46.959L74.974,46.876L74.613,46.625L74.251,46.378L74.068,46.254L73.885,46.131L73.701,46.009L73.517,45.888L73.333,45.767L73.148,45.647L72.962,45.527L72.775,45.408L72.588,45.29L72.522,45.248L72.404,45.174L72.396,45.169L71.08,44.949L69.988,45.715Z" style="fill:rgb(198,87,140);"/>
        </g>
        <path d="M90.505,40.234L90.489,40.343L90.433,40.711L90.358,41.187L90.281,41.662L90.202,42.133L90.12,42.603L90.037,43.07L89.981,43.371L89.949,43.534L89.856,43.996L89.761,44.453L89.712,44.683L89.662,44.911L89.612,45.138L89.561,45.365L89.509,45.592L89.457,45.817L89.404,46.043L89.349,46.267L89.295,46.492L89.239,46.715L89.182,46.938L89.125,47.161L89.104,47.241L89.064,47.382L89.002,47.602L88.938,47.822L88.873,48.041L88.808,48.26L88.741,48.478L88.674,48.695L88.606,48.912L88.536,49.129L88.466,49.345L88.395,49.56L88.322,49.775L88.249,49.989L88.174,50.203L88.098,50.416L88.022,50.628L87.944,50.841L87.865,51.052L87.785,51.263L87.703,51.474L87.621,51.684L87.537,51.893L87.452,52.102L87.366,52.31L87.279,52.518L87.19,52.726L87.1,52.932L87.008,53.139L86.916,53.344L86.886,53.41L86.82,53.548L86.722,53.752L86.623,53.954L86.523,54.157L86.421,54.358L86.318,54.559L86.213,54.76L86.107,54.959L86,55.159L85.891,55.357L85.78,55.555L85.668,55.753L85.555,55.949L85.44,56.146L85.323,56.341L85.205,56.536L85.135,56.649L85.084,56.73L84.96,56.921L84.835,57.113L84.708,57.303L84.579,57.493L84.448,57.682L84.316,57.87L84.183,58.058L84.168,58.078L84.045,58.243L83.905,58.427L83.763,58.61L83.62,58.792L83.475,58.974L83.329,59.155L83.206,59.304L83.18,59.334L83.025,59.509L82.868,59.683L82.71,59.856L82.55,60.028L82.388,60.199L82.252,60.341L82.224,60.369L82.054,60.534L81.883,60.699L81.71,60.862L81.536,61.025L81.36,61.186L81.182,61.346L81.128,61.395L81,61.503L80.815,61.658L80.629,61.811L80.44,61.963L80.25,62.114L80.059,62.265L79.866,62.414L79.671,62.562L79.474,62.709L79.276,62.854L79.076,62.999L78.874,63.143L78.701,63.264L78.67,63.285L78.461,63.422L78.251,63.558L78.039,63.693L77.825,63.827L77.61,63.96L77.392,64.091L77.173,64.222L76.953,64.351L76.73,64.479L76.506,64.606L76.28,64.732L76.052,64.857L75.827,64.977L75.818,64.981L74.456,65.183L73.379,64.504L73.368,64.487L73.165,63.234L73.88,62.055L73.888,62.049L74.076,61.896L74.256,61.746L74.434,61.596L74.61,61.445L74.783,61.295L74.955,61.143L75.124,60.992L75.291,60.84L75.456,60.688L75.618,60.536L75.779,60.383L75.938,60.23L76.094,60.076L76.117,60.053L76.251,59.926L76.407,59.776L76.561,59.625L76.712,59.474L76.862,59.323L77.01,59.172L77.156,59.019L77.3,58.867L77.442,58.714L77.583,58.561L77.721,58.407L77.858,58.253L77.952,58.145L77.994,58.1L78.131,57.948L78.267,57.797L78.401,57.645L78.533,57.492L78.663,57.339L78.792,57.185L78.813,57.16L78.923,57.035L79.053,56.884L79.181,56.733L79.308,56.581L79.434,56.428L79.558,56.275L79.579,56.248L79.685,56.125L79.812,55.975L79.937,55.824L80.061,55.672L80.183,55.52L80.304,55.367L80.412,55.229L80.425,55.213L80.546,55.061L80.667,54.908L80.786,54.754L80.904,54.599L81.021,54.444L81.137,54.287L81.251,54.13L81.299,54.064L81.366,53.973L81.481,53.816L81.595,53.658L81.708,53.499L81.82,53.34L81.931,53.179L82.041,53.017L82.15,52.855L82.257,52.692L82.364,52.527L82.47,52.362L82.574,52.196L82.678,52.029L82.781,51.861L82.883,51.692L82.984,51.522L83.052,51.406L83.084,51.352L83.186,51.181L83.287,51.01L83.386,50.837L83.485,50.664L83.583,50.489L83.68,50.314L83.777,50.137L83.872,49.96L83.967,49.782L84.061,49.602L84.154,49.422L84.246,49.24L84.338,49.058L84.429,48.875L84.519,48.69L84.608,48.505L84.696,48.319L84.784,48.131L84.871,47.943L84.958,47.754L85.044,47.564L85.129,47.372L85.213,47.18L85.297,46.987L85.38,46.793L85.463,46.597L85.544,46.401L85.626,46.204L85.677,46.077L85.708,46.006L85.791,45.808L85.874,45.609L85.957,45.409L86.039,45.208L86.121,45.006L86.202,44.803L86.282,44.599L86.362,44.395L86.442,44.189L86.521,43.982L86.599,43.774L86.677,43.566L86.832,43.144L86.985,42.72L87.039,42.569L87.14,42.292L87.295,41.861L87.449,41.426L87.601,40.988L87.752,40.545L87.903,40.099L88.018,39.75L88.053,39.647L89.573,38.714L90.505,40.234Z" style="fill:rgb(198,87,140);"/>
        <g transform="matrix(-1,0,0,1,125.47,28.9949)">
            <path d="M88.04,39.643L88.005,39.749L87.891,40.096L87.742,40.542L87.591,40.985L87.44,41.424L87.287,41.859L87.134,42.29L87.031,42.573L86.98,42.718L86.827,43.143L86.673,43.565L86.595,43.773L86.517,43.981L86.438,44.188L86.359,44.394L86.279,44.599L86.199,44.803L86.119,45.006L86.038,45.208L85.956,45.409L85.874,45.609L85.791,45.808L85.708,46.006L85.677,46.077L85.626,46.204L85.544,46.401L85.463,46.597L85.38,46.793L85.297,46.987L85.213,47.18L85.129,47.372L85.044,47.564L84.958,47.754L84.872,47.943L84.785,48.132L84.697,48.319L84.608,48.505L84.519,48.691L84.429,48.875L84.338,49.058L84.247,49.241L84.154,49.422L84.061,49.602L83.967,49.782L83.873,49.96L83.777,50.138L83.681,50.314L83.584,50.49L83.486,50.664L83.387,50.837L83.287,51.01L83.187,51.182L83.085,51.352L83.052,51.406L82.984,51.522L82.884,51.692L82.782,51.861L82.679,52.029L82.575,52.196L82.47,52.362L82.365,52.528L82.258,52.692L82.15,52.855L82.041,53.018L81.932,53.179L81.821,53.34L81.709,53.5L81.596,53.658L81.482,53.816L81.367,53.973L81.299,54.064L81.252,54.13L81.137,54.287L81.021,54.444L80.904,54.599L80.786,54.754L80.667,54.908L80.547,55.061L80.425,55.213L80.412,55.229L80.305,55.367L80.183,55.52L80.061,55.672L79.937,55.824L79.812,55.975L79.685,56.125L79.579,56.248L79.558,56.275L79.434,56.428L79.308,56.581L79.181,56.733L79.053,56.884L78.923,57.035L78.813,57.16L78.792,57.185L78.663,57.339L78.533,57.492L78.401,57.645L78.267,57.797L78.131,57.948L77.994,58.1L77.952,58.145L77.858,58.253L77.721,58.407L77.583,58.561L77.442,58.714L77.3,58.867L77.156,59.019L77.01,59.172L76.862,59.323L76.712,59.474L76.561,59.625L76.407,59.776L76.251,59.926L76.117,60.053L76.094,60.076L75.938,60.23L75.779,60.383L75.618,60.536L75.456,60.688L75.291,60.84L75.124,60.992L74.955,61.143L74.783,61.295L74.61,61.445L74.434,61.596L74.256,61.746L74.076,61.896L73.888,62.049L73.88,62.055L73.165,63.234L73.368,64.487L73.379,64.504L74.456,65.183L75.818,64.981L75.827,64.977L76.052,64.857L76.28,64.732L76.506,64.606L76.73,64.479L76.953,64.351L77.173,64.222L77.392,64.091L77.61,63.96L77.825,63.827L78.039,63.693L78.251,63.558L78.461,63.422L78.67,63.285L78.701,63.264L78.874,63.143L79.076,62.999L79.276,62.854L79.474,62.709L79.671,62.562L79.866,62.414L80.059,62.265L80.25,62.114L80.44,61.963L80.629,61.811L80.815,61.658L81,61.503L81.128,61.395L81.182,61.346L81.36,61.186L81.536,61.025L81.71,60.862L81.883,60.699L82.054,60.534L82.224,60.369L82.252,60.341L82.388,60.199L82.55,60.028L82.71,59.856L82.868,59.683L83.025,59.509L83.18,59.334L83.206,59.304L83.329,59.155L83.475,58.974L83.62,58.792L83.763,58.61L83.905,58.427L84.045,58.243L84.168,58.078L84.183,58.058L84.316,57.87L84.448,57.682L84.579,57.493L84.707,57.303L84.834,57.112L84.96,56.921L85.084,56.73L85.135,56.649L85.205,56.536L85.323,56.341L85.439,56.145L85.554,55.949L85.668,55.752L85.78,55.555L85.89,55.357L85.999,55.158L86.107,54.959L86.213,54.759L86.317,54.559L86.42,54.358L86.522,54.156L86.623,53.954L86.722,53.751L86.819,53.548L86.885,53.41L86.915,53.344L87.008,53.138L87.099,52.932L87.189,52.725L87.278,52.518L87.365,52.31L87.452,52.102L87.537,51.893L87.62,51.683L87.703,51.473L87.784,51.263L87.864,51.052L87.943,50.84L88.021,50.628L88.098,50.416L88.174,50.202L88.248,49.989L88.322,49.775L88.394,49.56L88.466,49.344L88.536,49.129L88.605,48.912L88.674,48.695L88.741,48.478L88.808,48.26L88.873,48.041L88.938,47.822L89.001,47.602L89.064,47.382L89.104,47.241L89.125,47.161L89.183,46.938L89.24,46.715L89.296,46.492L89.351,46.268L89.405,46.043L89.459,45.818L89.512,45.592L89.564,45.366L89.615,45.139L89.666,44.912L89.716,44.684L89.765,44.454L89.861,43.997L89.955,43.536L89.986,43.379L90.044,43.072L90.128,42.605L90.21,42.136L90.29,41.664L90.368,41.19L90.445,40.714L90.501,40.348L90.518,40.237L89.576,38.701L88.04,39.643Z" style="fill:rgb(198,87,140);"/>
        </g>
        <path d="M119.661,25.422L119.546,25.599L119.428,25.775L119.309,25.948L119.189,26.117L119.068,26.283L118.945,26.445L118.822,26.604L118.697,26.76L118.572,26.912L118.445,27.061L118.317,27.207L118.188,27.349L118.059,27.489L117.928,27.625L117.796,27.758L117.664,27.888L117.53,28.014L117.395,28.138L117.26,28.259L117.235,28.28L117.123,28.376L116.985,28.49L116.846,28.601L116.707,28.709L116.566,28.814L116.425,28.916L116.283,29.015L116.141,29.112L115.997,29.206L115.853,29.297L115.709,29.385L115.563,29.47L115.418,29.553L115.271,29.634L115.124,29.711L114.976,29.786L114.828,29.859L114.68,29.929L114.531,29.996L114.381,30.061L114.232,30.124L114.081,30.185L113.931,30.243L113.78,30.299L113.629,30.352L113.478,30.403L113.326,30.453L113.174,30.5L113.022,30.545L112.87,30.588L112.718,30.629L112.566,30.668L112.413,30.705L112.261,30.741L112.147,30.766L112.108,30.774L111.955,30.804L111.802,30.832L111.649,30.858L111.497,30.883L111.344,30.906L111.192,30.928L111.039,30.948L110.887,30.966L110.735,30.984L110.584,31L110.432,31.014L110.281,31.028L110.13,31.04L109.979,31.051L109.828,31.061L109.678,31.07L109.528,31.077L109.379,31.084L109.229,31.09L109.081,31.095L108.932,31.099L108.783,31.102L108.489,31.107L108.196,31.108L107.904,31.107L107.615,31.105L107.328,31.1L107.043,31.094L106.76,31.087L106.48,31.08L105.928,31.064L105.386,31.049L105.351,31.048L105.121,31.041L104.859,31.034L104.601,31.029L104.346,31.025L104.095,31.024L103.848,31.024L103.603,31.028L103.486,31.031L103.367,31.034L103.25,31.039L103.133,31.044L103.018,31.05L102.904,31.056L102.792,31.064L102.68,31.073L102.57,31.082L102.462,31.093L102.354,31.105L102.248,31.117L102.143,31.131L102.04,31.145L101.976,31.155L101.934,31.161L101.822,31.179L101.703,31.199L101.578,31.221L101.447,31.247L101.311,31.275L101.169,31.306L101.022,31.34L100.87,31.377L100.714,31.417L100.553,31.46L100.387,31.506L100.218,31.556L100.045,31.61L99.869,31.667L99.689,31.727L99.506,31.792L99.317,31.86L99.225,31.895L99.131,31.932L99.035,31.969L98.939,32.008L98.918,32.016L98.843,32.046L98.745,32.085L98.647,32.125L98.548,32.166L98.449,32.209L98.349,32.252L98.249,32.296L98.148,32.342L98.047,32.388L97.946,32.436L97.844,32.484L97.742,32.534L97.64,32.585L97.537,32.637L97.434,32.69L97.331,32.745L97.228,32.8L97.124,32.857L97.02,32.915L96.916,32.974L96.812,33.035L96.708,33.096L96.604,33.159L96.5,33.223L96.395,33.288L96.291,33.355L96.187,33.423L96.083,33.492L95.979,33.562L95.978,33.563L95.874,33.633L95.769,33.705L95.664,33.779L95.56,33.854L95.455,33.93L95.351,34.007L95.247,34.086L95.143,34.166L95.04,34.248L94.936,34.331L94.833,34.416L94.731,34.502L94.628,34.589L94.526,34.678L94.424,34.768L94.323,34.86L94.222,34.954L94.121,35.049L94.021,35.145L93.921,35.243L93.822,35.343L93.723,35.444L93.625,35.547L93.527,35.651L93.43,35.757L93.337,35.861L93.334,35.865L93.237,35.973L93.141,36.084L93.045,36.196L92.951,36.309L92.856,36.425L92.763,36.542L92.67,36.661L92.578,36.782L92.486,36.904L92.396,37.029L92.306,37.155L92.217,37.283L92.129,37.412L92.041,37.544L91.955,37.678L91.869,37.813L91.784,37.951L91.7,38.09L91.618,38.232L91.536,38.375L91.455,38.52L91.375,38.668L91.296,38.817L91.218,38.968L91.141,39.122L91.065,39.278L90.991,39.435L90.918,39.595L90.845,39.757L90.774,39.921L90.704,40.088L90.636,40.256L90.629,40.274L90.565,40.434L90.562,40.443L89.833,41.195L88.795,41.23L88.776,41.223L88.027,40.502L87.989,39.456L87.992,39.447L88.057,39.272L88.064,39.253L88.141,39.055L88.219,38.86L88.299,38.666L88.381,38.475L88.464,38.286L88.548,38.099L88.634,37.914L88.722,37.731L88.811,37.551L88.901,37.372L88.993,37.196L89.086,37.022L89.18,36.85L89.276,36.68L89.373,36.513L89.472,36.347L89.571,36.183L89.672,36.022L89.774,35.862L89.877,35.705L89.981,35.55L90.086,35.396L90.193,35.245L90.3,35.096L90.409,34.949L90.518,34.804L90.628,34.661L90.74,34.519L90.852,34.38L90.965,34.243L91.079,34.108L91.193,33.975L91.198,33.97L91.309,33.844L91.426,33.715L91.544,33.588L91.662,33.463L91.781,33.34L91.9,33.219L92.02,33.1L92.141,32.983L92.262,32.867L92.384,32.754L92.506,32.642L92.628,32.532L92.751,32.424L92.875,32.318L92.998,32.213L93.122,32.11L93.247,32.009L93.371,31.91L93.496,31.812L93.621,31.717L93.746,31.622L93.872,31.53L93.997,31.439L94.123,31.35L94.249,31.263L94.374,31.177L94.375,31.177L94.501,31.094L94.627,31.012L94.754,30.932L94.88,30.854L95.006,30.777L95.132,30.702L95.258,30.628L95.384,30.556L95.509,30.486L95.634,30.416L95.759,30.349L95.884,30.283L96.009,30.218L96.133,30.154L96.256,30.093L96.38,30.032L96.502,29.973L96.625,29.915L96.747,29.859L96.868,29.804L96.989,29.75L97.11,29.697L97.23,29.646L97.349,29.596L97.467,29.548L97.585,29.5L97.703,29.454L97.819,29.409L97.91,29.375L97.935,29.366L98.051,29.325L98.166,29.285L98.28,29.246L98.396,29.207L98.618,29.136L98.838,29.069L99.055,29.005L99.268,28.946L99.476,28.89L99.681,28.839L99.88,28.791L100.076,28.747L100.266,28.706L100.451,28.669L100.632,28.635L100.806,28.604L100.976,28.576L101.14,28.551L101.298,28.529L101.45,28.51L101.597,28.493L101.652,28.487L101.737,28.479L101.872,28.468L102.007,28.459L102.142,28.451L102.277,28.444L102.412,28.439L102.548,28.435L102.683,28.432L102.818,28.431L102.954,28.431L103.089,28.431L103.225,28.433L103.36,28.436L103.496,28.44L103.634,28.445L103.903,28.456L104.175,28.471L104.447,28.488L104.72,28.508L104.993,28.529L105.266,28.552L105.503,28.573L105.539,28.577L106.084,28.631L106.632,28.687L106.906,28.714L107.179,28.74L107.453,28.766L107.726,28.79L107.999,28.812L108.272,28.832L108.545,28.851L108.819,28.866L108.954,28.873L109.09,28.879L109.226,28.885L109.361,28.889L109.497,28.893L109.633,28.895L109.768,28.897L109.903,28.898L110.038,28.898L110.173,28.897L110.308,28.895L110.443,28.891L110.577,28.887L110.711,28.882L110.846,28.875L110.979,28.867L111.113,28.858L111.247,28.847L111.38,28.835L111.513,28.822L111.646,28.808L111.779,28.792L111.813,28.787L111.911,28.776L112.044,28.759L112.177,28.74L112.309,28.72L112.441,28.698L112.573,28.675L112.705,28.65L112.837,28.623L112.968,28.595L113.1,28.565L113.231,28.532L113.362,28.499L113.493,28.463L113.624,28.425L113.755,28.385L113.885,28.343L114.016,28.299L114.146,28.253L114.276,28.205L114.406,28.155L114.536,28.102L114.666,28.047L114.796,27.99L114.926,27.93L115.055,27.868L115.185,27.803L115.314,27.736L115.444,27.666L115.573,27.594L115.702,27.519L115.832,27.441L115.961,27.36L116.09,27.277L116.219,27.191L116.324,27.118L116.348,27.101L116.477,27.01L116.606,26.915L116.736,26.818L116.865,26.717L116.994,26.613L117.123,26.505L117.252,26.395L117.38,26.281L117.509,26.163L117.638,26.042L117.766,25.918L117.894,25.79L118.022,25.658L118.15,25.523L118.278,25.384L118.406,25.241L118.533,25.094L118.66,24.944L118.789,24.786L119.55,24.659L119.661,25.422Z" style="fill:rgb(198,87,140);"/>
        <g transform="matrix(-0.0460794,-0.998938,-0.998938,0.0460794,97.993,162.551)">
            <path d="M100.305,28.488L100.15,28.494L99.993,28.502L99.836,28.512L99.68,28.524L99.524,28.538L99.369,28.554L99.214,28.572L99.06,28.591L98.907,28.612L98.753,28.635L98.601,28.659L98.554,28.667L98.449,28.686L98.298,28.716L98.148,28.747L97.999,28.78L97.85,28.814L97.701,28.85L97.553,28.888L97.406,28.928L97.26,28.968L97.114,29.011L96.969,29.055L96.825,29.101L96.681,29.148L96.538,29.197L96.396,29.247L96.254,29.298L96.114,29.351L96.01,29.392L95.974,29.407L95.837,29.467L95.7,29.528L95.564,29.59L95.429,29.654L95.295,29.719L95.162,29.786L95.03,29.853L94.898,29.922L94.767,29.993L94.637,30.064L94.508,30.137L94.38,30.211L94.253,30.286L94.127,30.362L94.001,30.44L93.877,30.518L93.753,30.598L93.63,30.679L93.508,30.76L93.387,30.843L93.267,30.927L93.148,31.012L93.125,31.03L93.031,31.1L92.915,31.188L92.8,31.278L92.686,31.369L92.573,31.46L92.461,31.552L92.349,31.646L92.239,31.74L92.13,31.835L92.021,31.931L91.914,32.027L91.808,32.125L91.717,32.209L91.703,32.223L91.6,32.324L91.498,32.425L91.398,32.528L91.298,32.63L91.2,32.734L91.102,32.838L91.006,32.943L90.91,33.049L90.815,33.155L90.722,33.261L90.629,33.369L90.538,33.477L90.503,33.519L90.449,33.586L90.363,33.697L90.277,33.809L90.193,33.921L90.11,34.034L90.027,34.147L89.946,34.26L89.866,34.374L89.787,34.488L89.709,34.602L89.632,34.717L89.556,34.832L89.481,34.948L89.43,35.028L89.407,35.064L89.337,35.181L89.267,35.299L89.198,35.417L89.131,35.535L89.064,35.653L88.999,35.771L88.934,35.89L88.871,36.009L88.809,36.128L88.748,36.247L88.687,36.366L88.628,36.485L88.57,36.604L88.513,36.723L88.497,36.758L88.458,36.843L88.405,36.963L88.353,37.084L88.301,37.204L88.251,37.324L88.202,37.444L88.154,37.564L88.107,37.684L88.061,37.804L88.016,37.923L87.972,38.043L87.929,38.163L87.888,38.282L87.847,38.401L87.808,38.52L87.769,38.639L87.732,38.758L87.696,38.877L87.66,38.995L87.626,39.113L87.593,39.231L87.561,39.349L87.53,39.467L87.523,39.493L87.502,39.579L87.5,39.588L87.65,40.627L88.461,41.267L88.48,41.273L89.502,41.131L90.159,40.311L90.162,40.302L90.184,40.226L90.191,40.202L90.22,40.107L90.25,40.012L90.28,39.916L90.312,39.82L90.344,39.724L90.378,39.627L90.412,39.53L90.447,39.433L90.484,39.336L90.521,39.238L90.559,39.14L90.598,39.042L90.638,38.944L90.679,38.846L90.721,38.747L90.764,38.649L90.808,38.55L90.853,38.451L90.898,38.352L90.945,38.253L90.992,38.154L91.041,38.055L91.076,37.985L91.09,37.956L91.138,37.857L91.188,37.757L91.239,37.658L91.29,37.558L91.343,37.459L91.396,37.359L91.45,37.26L91.506,37.161L91.562,37.062L91.619,36.963L91.677,36.865L91.735,36.766L91.795,36.668L91.856,36.57L91.875,36.539L91.916,36.471L91.976,36.372L92.037,36.274L92.099,36.175L92.162,36.077L92.226,35.979L92.291,35.882L92.356,35.785L92.423,35.688L92.49,35.591L92.559,35.495L92.628,35.399L92.698,35.304L92.741,35.246L92.767,35.208L92.836,35.111L92.906,35.015L92.977,34.919L93.048,34.823L93.12,34.728L93.194,34.633L93.268,34.539L93.343,34.445L93.419,34.352L93.496,34.259L93.574,34.167L93.652,34.075L93.663,34.062L93.73,33.982L93.809,33.89L93.888,33.798L93.969,33.707L94.05,33.616L94.133,33.526L94.216,33.437L94.3,33.348L94.385,33.26L94.471,33.172L94.558,33.085L94.645,32.999L94.716,32.93L94.734,32.913L94.822,32.827L94.911,32.741L95.001,32.656L95.092,32.572L95.185,32.488L95.278,32.406L95.371,32.324L95.466,32.242L95.562,32.162L95.659,32.082L95.757,32.004L95.856,31.926L95.955,31.848L96.056,31.772L96.158,31.697L96.26,31.623L96.364,31.549L96.468,31.476L96.574,31.405L96.68,31.334L96.788,31.264L96.896,31.196L96.925,31.178L97.004,31.125L97.113,31.054L97.223,30.985L97.334,30.916L97.446,30.849L97.559,30.782L97.673,30.717L97.788,30.652L97.904,30.589L98.022,30.527L98.14,30.465L98.26,30.405L98.381,30.346L98.503,30.289L98.626,30.232L98.75,30.177L98.875,30.123L98.963,30.086L99.002,30.069L99.129,30.016L99.258,29.964L99.387,29.913L99.518,29.863L99.65,29.815L99.784,29.768L99.918,29.723L100.054,29.678L100.191,29.636L100.329,29.594L100.472,29.554L100.939,28.934L100.305,28.488Z" style="fill:rgb(198,87,140);"/>
        </g>
        <g transform="matrix(-1,0,0,1,160.747,6.71911)">
            <path d="M105.735,29.523L105.598,29.525L105.46,29.527L105.323,29.531L105.187,29.536L105.05,29.541L104.914,29.548L104.778,29.556L104.643,29.565L104.508,29.574L104.372,29.585L104.238,29.596L104.105,29.609L104.103,29.609L103.97,29.625L103.836,29.642L103.703,29.66L103.57,29.678L103.438,29.698L103.306,29.719L103.174,29.74L103.043,29.762L102.912,29.785L102.781,29.809L102.651,29.834L102.521,29.859L102.392,29.886L102.263,29.913L102.134,29.941L102.006,29.969L101.878,29.999L101.75,30.029L101.623,30.06L101.496,30.092L101.37,30.124L101.242,30.158L100.993,30.226L100.744,30.297L100.496,30.371L100.251,30.447L100.007,30.526L99.764,30.608L99.617,30.659L99.524,30.693L99.287,30.781L99.051,30.872L98.817,30.965L98.585,31.06L98.355,31.157L98.127,31.255L97.901,31.356L97.676,31.458L97.454,31.562L97.278,31.647L97.234,31.669L97.018,31.778L96.803,31.89L96.591,32.002L96.381,32.116L96.173,32.231L95.967,32.347L95.763,32.464L95.562,32.582L95.362,32.701L95.165,32.821L95.127,32.845L94.973,32.945L94.783,33.069L94.595,33.195L94.41,33.32L94.227,33.447L94.046,33.573L93.868,33.7L93.692,33.827L93.519,33.954L93.348,34.08L93.179,34.207L93.046,34.309L93.014,34.335L92.852,34.463L92.692,34.592L92.535,34.719L92.381,34.847L92.229,34.974L92.08,35.1L91.933,35.226L91.789,35.351L91.647,35.475L91.508,35.598L91.372,35.72L91.238,35.842L91.107,35.962L91,36.06L90.978,36.081L90.854,36.2L90.731,36.317L90.612,36.433L90.494,36.549L90.27,36.772L90.055,36.989L89.852,37.199L89.66,37.402L89.479,37.595L89.309,37.78L89.151,37.955L89.005,38.119L88.87,38.273L88.747,38.416L88.636,38.546L88.537,38.664L88.449,38.771L88.314,38.937L88.282,38.978L88.228,39.046L88.198,39.085L88.192,39.093L87.918,40.105L88.416,41.015L88.432,41.027L89.43,41.3L90.353,40.803L90.36,40.795L90.381,40.769L90.425,40.717L90.45,40.687L90.569,40.548L90.644,40.461L90.733,40.36L90.834,40.247L90.947,40.123L91.071,39.988L91.207,39.843L91.354,39.689L91.512,39.525L91.681,39.353L91.861,39.174L92.051,38.987L92.252,38.793L92.464,38.592L92.572,38.491L92.684,38.388L92.799,38.284L92.916,38.178L92.936,38.159L93.034,38.07L93.155,37.961L93.278,37.851L93.404,37.74L93.532,37.629L93.662,37.516L93.794,37.403L93.929,37.289L94.067,37.175L94.206,37.06L94.348,36.945L94.492,36.829L94.638,36.713L94.786,36.597L94.816,36.574L94.935,36.479L95.086,36.361L95.24,36.242L95.395,36.124L95.552,36.006L95.712,35.888L95.873,35.77L96.037,35.652L96.202,35.535L96.37,35.418L96.539,35.302L96.677,35.209L96.71,35.186L96.882,35.067L97.055,34.949L97.23,34.832L97.406,34.716L97.585,34.6L97.766,34.486L97.949,34.372L98.133,34.26L98.319,34.148L98.508,34.038L98.546,34.016L98.696,33.927L98.887,33.817L99.079,33.708L99.273,33.601L99.469,33.495L99.667,33.391L99.866,33.288L100.067,33.187L100.27,33.088L100.475,32.991L100.555,32.954L100.681,32.894L100.888,32.799L101.097,32.705L101.308,32.613L101.52,32.524L101.734,32.437L101.952,32.351L102.059,32.31L102.168,32.269L102.277,32.229L102.387,32.189L102.497,32.15L102.608,32.111L102.719,32.073L102.831,32.036L102.943,31.999L103.055,31.964L103.168,31.928L103.282,31.894L103.395,31.86L103.509,31.827L103.624,31.794L103.739,31.763L103.854,31.732L103.97,31.701L104.086,31.672L104.203,31.643L104.32,31.615L104.437,31.588L104.439,31.587L104.555,31.559L104.673,31.53L104.791,31.503L104.91,31.476L105.029,31.45L105.149,31.424L105.269,31.4L105.39,31.377L105.511,31.354L105.632,31.332L105.754,31.311L105.877,31.291L106,31.271L106.123,31.253L106.247,31.236L106.371,31.219L106.496,31.203L106.621,31.189L106.747,31.175L106.873,31.162L106.999,31.15L107.126,31.139L107.254,31.129L107.382,31.12L107.51,31.112L107.639,31.105L107.746,31.1L107.768,31.099L107.898,31.092L108.029,31.087L108.159,31.083L108.291,31.08L108.422,31.078L108.555,31.077L108.687,31.078L108.821,31.079L108.954,31.081L109.088,31.085L109.223,31.089L109.358,31.095L109.494,31.102L109.63,31.11L109.767,31.119L109.904,31.13L110.043,31.142L110.678,30.703L110.226,30.078L110.086,30.042L109.943,30.007L109.801,29.973L109.659,29.94L109.517,29.909L109.375,29.878L109.233,29.849L109.092,29.822L108.95,29.795L108.808,29.77L108.667,29.746L108.526,29.723L108.385,29.701L108.244,29.681L108.103,29.662L107.962,29.644L107.821,29.627L107.798,29.624L107.681,29.612L107.541,29.598L107.401,29.586L107.261,29.574L107.121,29.564L106.981,29.555L106.842,29.547L106.703,29.541L106.564,29.535L106.425,29.53L106.287,29.527L106.148,29.524L106.01,29.523L105.873,29.522L105.735,29.523Z" style="fill:rgb(198,87,140);"/>
        </g>
        <g transform="matrix(0.242497,-0.970152,0.970152,0.242497,-24.1399,145.864)">
            <path d="M137.059,27.305L137.026,27.477L136.991,27.647L136.956,27.815L136.919,27.981L136.881,28.145L136.842,28.307L136.802,28.468L136.76,28.626L136.718,28.783L136.674,28.938L136.629,29.091L136.584,29.243L136.537,29.392L136.488,29.54L136.439,29.686L136.389,29.831L136.337,29.973L136.285,30.114L136.231,30.253L136.176,30.39L136.121,30.526L136.064,30.66L136.006,30.792L135.947,30.923L135.887,31.051L135.826,31.179L135.764,31.304L135.701,31.428L135.637,31.55L135.572,31.67L135.506,31.789L135.439,31.907L135.371,32.022L135.302,32.136L135.232,32.248L135.161,32.359L135.113,32.432L135.09,32.468L135.016,32.576L134.942,32.681L134.868,32.785L134.792,32.888L134.715,32.989L134.638,33.088L134.559,33.186L134.48,33.282L134.4,33.376L134.319,33.47L134.237,33.561L134.154,33.651L134.071,33.739L133.987,33.826L133.902,33.911L133.816,33.995L133.73,34.077L133.642,34.158L133.555,34.237L133.466,34.315L133.377,34.391L133.287,34.466L133.196,34.539L133.105,34.611L133.013,34.681L132.92,34.75L132.827,34.817L132.733,34.883L132.639,34.948L132.544,35.011L132.449,35.072L132.353,35.132L132.256,35.191L132.159,35.248L132.062,35.304L131.964,35.359L131.866,35.412L131.767,35.464L131.668,35.514L131.568,35.563L131.468,35.611L131.368,35.657L131.267,35.702L131.166,35.746L131.065,35.788L130.963,35.829L130.861,35.869L130.759,35.908L130.656,35.945L130.553,35.982L130.45,36.017L130.347,36.05L130.243,36.083L130.139,36.114L130.035,36.144L129.931,36.173L129.827,36.201L129.723,36.228L129.618,36.253L129.513,36.278L129.409,36.301L129.304,36.324L129.199,36.345L129.093,36.365L128.988,36.384L128.883,36.402L128.778,36.419L128.673,36.435L128.567,36.45L128.462,36.465L128.357,36.478L128.251,36.49L128.146,36.501L128.041,36.511L127.935,36.521L127.83,36.529L127.725,36.537L127.678,36.54L127.62,36.543L127.515,36.548L127.41,36.552L127.306,36.556L127.199,36.558L126.992,36.561L126.784,36.56L126.576,36.556L126.37,36.55L126.164,36.54L125.959,36.528L125.755,36.513L125.552,36.496L125.35,36.476L125.15,36.454L124.95,36.43L124.752,36.404L124.556,36.375L124.361,36.345L124.167,36.312L123.975,36.278L123.785,36.242L123.597,36.205L123.41,36.166L123.226,36.126L123.043,36.085L122.862,36.042L122.684,35.998L122.508,35.953L122.334,35.907L122.162,35.861L121.993,35.813L121.826,35.765L121.662,35.716L121.501,35.667L121.342,35.617L121.186,35.567L121.033,35.517L120.882,35.467L120.735,35.416L120.591,35.366L120.45,35.316L120.312,35.266L120.178,35.216L120.045,35.166L119.795,35.07L119.557,34.975L119.335,34.884L119.128,34.796L118.937,34.714L118.763,34.636L118.607,34.565L118.468,34.501L118.348,34.443L118.245,34.394L118.146,34.344L118.016,34.295L117.856,34.235L117.696,34.177L117.653,34.162L117.537,34.119L117.379,34.062L117.222,34.007L117.065,33.952L116.909,33.899L116.754,33.847L116.6,33.797L116.447,33.747L116.294,33.698L116.142,33.651L115.991,33.605L115.84,33.56L115.69,33.516L115.541,33.474L115.393,33.432L115.245,33.392L115.098,33.352L114.952,33.314L114.807,33.277L114.662,33.241L114.518,33.206L114.374,33.172L114.232,33.139L114.09,33.107L113.948,33.077L113.808,33.047L113.668,33.019L113.528,32.991L113.39,32.964L113.252,32.939L113.114,32.914L112.978,32.891L112.842,32.868L112.706,32.847L112.603,32.831L112.572,32.826L112.438,32.806L112.304,32.786L112.172,32.768L112.039,32.75L111.908,32.734L111.777,32.718L111.647,32.703L111.517,32.689L111.388,32.676L111.259,32.665L111.131,32.653L111.004,32.643L110.877,32.634L110.751,32.626L110.625,32.618L110.5,32.612L110.375,32.606L110.251,32.601L110.128,32.597L110.005,32.594L109.882,32.591L109.76,32.59L109.639,32.589L109.518,32.589L109.398,32.59L109.278,32.592L109.158,32.594L109.039,32.597L108.921,32.601L108.803,32.606L108.685,32.612L108.568,32.618L108.452,32.625L108.336,32.633L108.22,32.642L108.105,32.651L107.99,32.662L107.876,32.672L107.762,32.684L107.648,32.696L107.646,32.697L107.535,32.708L107.422,32.721L107.31,32.734L107.198,32.748L107.086,32.763L106.975,32.778L106.864,32.795L106.754,32.811L106.643,32.829L106.534,32.847L106.424,32.866L106.315,32.885L106.206,32.905L106.1,32.926L105.882,32.97L105.667,33.016L105.454,33.064L105.242,33.115L105.031,33.168L104.821,33.224L104.612,33.282L104.404,33.342L104.198,33.405L103.992,33.47L103.787,33.537L103.583,33.606L103.38,33.677L103.178,33.75L102.977,33.825L102.777,33.903L102.667,33.946L102.577,33.981L102.377,34.061L102.178,34.143L101.98,34.226L101.783,34.312L101.586,34.399L101.389,34.488L101.193,34.578L100.998,34.67L100.803,34.764L100.609,34.859L100.415,34.956L100.221,35.054L100.028,35.154L99.836,35.255L99.643,35.357L99.451,35.461L99.259,35.566L99.068,35.672L98.877,35.779L98.686,35.888L98.495,35.997L98.304,36.108L98.114,36.219L97.923,36.332L97.734,36.444L97.643,36.499L97.352,36.673L96.971,36.903L96.589,37.136L96.208,37.371L95.826,37.608L95.443,37.846L94.675,38.326L94.289,38.566L93.901,38.806L93.512,39.045L93.121,39.283L92.728,39.519L92.53,39.638L92.332,39.755L92.133,39.871L91.933,39.987L91.733,40.103L91.532,40.217L91.33,40.331L91.128,40.444L90.924,40.556L90.72,40.667L90.515,40.777L90.309,40.886L90.145,40.971L90.102,40.994L89.898,41.098L89.889,41.102L88.846,41.184L88.044,40.519L88.035,40.501L87.952,39.464L88.618,38.657L88.627,38.652L88.822,38.549L88.862,38.528L89.012,38.447L89.203,38.344L89.392,38.239L89.582,38.134L89.772,38.027L89.961,37.918L90.15,37.809L90.339,37.699L90.528,37.587L90.716,37.475L90.905,37.361L91.093,37.247L91.281,37.132L91.659,36.899L92.037,36.663L92.415,36.425L92.793,36.185L93.172,35.943L93.935,35.456L94.318,35.211L94.703,34.967L95.089,34.722L95.479,34.479L95.87,34.236L96.17,34.053L96.263,33.996L96.463,33.876L96.662,33.758L96.862,33.64L97.063,33.523L97.265,33.406L97.467,33.29L97.671,33.175L97.875,33.061L98.08,32.948L98.286,32.836L98.494,32.725L98.702,32.615L98.911,32.506L99.122,32.398L99.333,32.292L99.546,32.187L99.76,32.083L99.975,31.981L100.191,31.88L100.409,31.78L100.628,31.683L100.848,31.587L101.07,31.493L101.292,31.4L101.517,31.31L101.619,31.269L101.743,31.222L101.97,31.136L102.199,31.053L102.43,30.971L102.662,30.892L102.895,30.815L103.13,30.741L103.367,30.669L103.605,30.599L103.844,30.531L104.086,30.467L104.328,30.404L104.573,30.345L104.819,30.288L105.067,30.234L105.316,30.183L105.565,30.135L105.694,30.111L105.82,30.089L105.947,30.067L106.075,30.047L106.203,30.027L106.331,30.007L106.46,29.989L106.589,29.971L106.719,29.954L106.849,29.938L106.98,29.923L107.111,29.909L107.242,29.895L107.372,29.883L107.374,29.882L107.507,29.872L107.639,29.862L107.773,29.852L107.907,29.844L108.041,29.837L108.175,29.83L108.31,29.825L108.446,29.82L108.582,29.816L108.718,29.813L108.855,29.811L108.992,29.81L109.13,29.81L109.268,29.811L109.407,29.812L109.546,29.815L109.685,29.819L109.825,29.823L109.966,29.829L110.107,29.835L110.248,29.842L110.39,29.851L110.532,29.86L110.675,29.871L110.818,29.882L110.962,29.894L111.106,29.908L111.25,29.922L111.395,29.938L111.541,29.954L111.687,29.971L111.833,29.99L111.98,30.009L112.128,30.03L112.275,30.052L112.424,30.074L112.573,30.098L112.722,30.123L112.872,30.149L113.022,30.176L113.057,30.182L113.173,30.204L113.324,30.234L113.475,30.266L113.628,30.298L113.78,30.331L113.933,30.365L114.087,30.401L114.241,30.437L114.395,30.475L114.55,30.514L114.706,30.554L114.862,30.595L115.019,30.638L115.176,30.681L115.333,30.726L115.491,30.772L115.65,30.818L115.809,30.867L115.969,30.916L116.129,30.966L116.29,31.018L116.451,31.071L116.613,31.125L116.775,31.18L116.938,31.237L117.102,31.294L117.265,31.353L117.43,31.414L117.595,31.475L117.761,31.538L117.927,31.601L118.094,31.667L118.261,31.733L118.429,31.801L118.552,31.851L118.597,31.87L118.766,31.941L118.935,32.013L119.166,32.111L119.261,32.164L119.372,32.226L119.452,32.27L119.552,32.323L119.67,32.385L119.804,32.454L119.955,32.53L120.121,32.612L120.303,32.699L120.499,32.79L120.709,32.886L120.933,32.985L121.048,33.034L121.167,33.085L121.29,33.136L121.415,33.188L121.543,33.239L121.674,33.291L121.808,33.343L121.944,33.395L122.083,33.447L122.224,33.498L122.367,33.55L122.513,33.601L122.661,33.651L122.812,33.701L122.964,33.75L123.118,33.799L123.274,33.847L123.432,33.894L123.592,33.94L123.753,33.985L123.916,34.028L124.081,34.071L124.246,34.112L124.414,34.152L124.582,34.19L124.752,34.227L124.922,34.262L125.094,34.295L125.267,34.326L125.44,34.356L125.615,34.384L125.79,34.409L125.965,34.433L126.141,34.454L126.318,34.473L126.495,34.489L126.672,34.503L126.85,34.515L127.028,34.524L127.207,34.53L127.294,34.533L127.383,34.534L127.472,34.535L127.561,34.535L127.609,34.534L127.65,34.535L127.738,34.534L127.827,34.533L127.916,34.531L128.004,34.528L128.093,34.524L128.181,34.52L128.27,34.515L128.358,34.509L128.446,34.503L128.534,34.495L128.622,34.487L128.71,34.478L128.798,34.468L128.885,34.457L128.973,34.445L129.06,34.433L129.147,34.419L129.234,34.405L129.321,34.39L129.407,34.374L129.494,34.357L129.58,34.339L129.666,34.32L129.752,34.3L129.837,34.279L129.923,34.258L130.008,34.235L130.093,34.211L130.178,34.187L130.262,34.161L130.346,34.135L130.43,34.107L130.514,34.078L130.597,34.049L130.681,34.018L130.764,33.986L130.846,33.953L130.929,33.919L131.011,33.884L131.093,33.848L131.174,33.811L131.255,33.772L131.336,33.733L131.417,33.692L131.498,33.65L131.578,33.607L131.657,33.563L131.737,33.518L131.816,33.471L131.895,33.423L131.973,33.374L132.052,33.324L132.13,33.272L132.207,33.219L132.284,33.165L132.361,33.109L132.438,33.052L132.514,32.994L132.59,32.934L132.665,32.873L132.74,32.811L132.815,32.747L132.89,32.681L132.964,32.615L133.037,32.546L133.11,32.477L133.183,32.405L133.256,32.332L133.328,32.258L133.399,32.182L133.47,32.105L133.541,32.026L133.611,31.945L133.681,31.863L133.75,31.779L133.819,31.693L133.887,31.606L133.91,31.577L133.956,31.517L134.023,31.427L134.091,31.335L134.157,31.241L134.223,31.145L134.289,31.048L134.354,30.948L134.419,30.847L134.483,30.744L134.546,30.64L134.609,30.533L134.671,30.425L134.733,30.314L134.794,30.202L134.854,30.088L134.913,29.972L134.972,29.854L135.031,29.734L135.088,29.612L135.145,29.488L135.202,29.362L135.257,29.234L135.312,29.104L135.366,28.972L135.419,28.838L135.471,28.702L135.523,28.563L135.574,28.423L135.624,28.281L135.673,28.136L135.722,27.99L135.769,27.841L135.816,27.69L135.862,27.537L135.907,27.382L135.951,27.224L135.994,27.065L136.037,26.901L136.681,26.484L137.09,27.134L137.059,27.305Z" style="fill:rgb(198,87,140);"/>
        </g>
    </g>
</svg>
