<?xml version="1.0" encoding="utf-8"?>
<!-- Generator: Adobe Illustrator 25.2.3, SVG Export Plug-In . SVG Version: 6.00 Build 0)  -->
<svg version="1.1" id="Layer_1" xmlns="http://www.w3.org/2000/svg" xmlns:xlink="http://www.w3.org/1999/xlink" x="0px" y="0px"
	 viewBox="0 0 128 128" style="enable-background:new 0 0 128 128;" xml:space="preserve">
<path style="fill:#7CB342;" d="M93.3,86.9c0-4.5-0.8-8.3-2.6-11.7c-1.7-3.3-4.4-6.2-7.9-8.7c-3.1-2.1-7.2-4.1-12.3-5.9
	c-0.6-0.2-0.9-0.7-0.9-1.3l0.4-29c0-1,1.1-1.7,2-1.3c1.8,0.9,3.4,2.1,4.7,3.8c2.4,3,3.8,6.9,4.2,11.7c0.1,1.3,1.2,2.4,2.6,2.4H90
	c1.5,0,2.6-1.2,2.6-2.7c-0.4-7.3-2.4-13.2-5.9-17.6c-3.7-4.7-8.9-7.6-15.4-8.7c-0.7-0.1-1.2-0.7-1.2-1.4V6.8C70,5.3,68.7,4,67.2,4
	h-3.5C62.2,4,61,5.2,61,6.7v8.2l-0.1,1.7c0,0.7-0.5,1.2-1.2,1.3c-6.5,1-11.7,3.6-15.5,7.7c-4,4.4-6.1,10.1-6.1,17
	c0,6.8,2,12.4,6.1,16.8c3.3,3.6,8.3,6.6,14.9,9.1c0.5,0.2,0.9,0.7,0.9,1.3l-0.3,30c0,0.9-0.9,1.6-1.8,1.3c-2.9-0.8-5.2-2.1-7.1-4
	c-2.6-2.7-4.1-6.2-4.5-10.8c-0.1-1.3-1.3-2.4-2.6-2.4h-6.6c-1.5,0-2.7,1.3-2.5,2.7c0.5,7,2.8,12.5,6.7,16.8
	c4.2,4.6,9.9,7.3,17.3,8.1c0.7,0.1,1.3,0.7,1.3,1.4v7.9c0,1.7,1.4,3.1,3.1,3.1h3c1.6,0,2.9-1.3,2.9-2.9v-6.6V113
	c0-0.7,0.5-1.3,1.2-1.4c7.1-0.9,12.7-3.4,16.7-7.6C91.2,99.7,93.3,94,93.3,86.9z M54,52.6c-2.8-2.5-4.2-6-4.2-10.3
	c0-4.6,1.3-8.2,4-10.8c1.3-1.3,3-2.3,4.9-2.9c0.9-0.3,1.9,0.4,1.9,1.4l-0.3,24.4c0,1.1-1.2,1.7-2.1,1.2C56.5,54.6,55.1,53.7,54,52.6
	z M76.9,97.9c-1.7,1.4-3.6,2.4-5.9,3.1c-0.9,0.3-1.8-0.4-1.8-1.4l0.3-25.2c0-1,1.1-1.7,2.1-1.2c2.6,1.3,4.6,2.7,6.1,4.1
	c2.7,2.7,4.1,5.9,4.1,9.8C81.7,91.6,80.1,95.2,76.9,97.9z"/>
</svg>
