<?xml version="1.0" encoding="utf-8"?>
<!-- Generator: Adobe Illustrator 19.2.1, SVG Export Plug-In . SVG Version: 6.00 Build 0)  -->
<svg version="1.1" xmlns="http://www.w3.org/2000/svg" xmlns:xlink="http://www.w3.org/1999/xlink" x="0px" y="0px"
	 viewBox="0 0 128 128" style="enable-background:new 0 0 128 128;" xml:space="preserve">
<g id="Layer_2">
</g>
<g id="图层_1">
	<g>
		<defs>
			<rect id="SVGID_1_" x="0" y="0" width="128" height="128"/>
		</defs>
		<clipPath id="SVGID_2_">
			<use xlink:href="#SVGID_1_"  style="overflow:visible;"/>
		</clipPath>
		<path id="XMLID_3298_" style="clip-path:url(#SVGID_2_);fill:#00BFA5;" d="M20.43,118.09v9.89h94.86v-9.89
			c0-15.17-23.28-22.87-47.07-22.84C44.58,95.28,20.43,102.03,20.43,118.09z"/>
		<path id="XMLID_246_" style="clip-path:url(#SVGID_2_);fill:#00BFA5;" d="M35.81,92.2l-3.3-12.35l-10.02,15.4v13.54h41.84V95.25
			l-24.27,0C38.05,95.25,36.29,93.99,35.81,92.2z"/>
		<rect id="XMLID_92_" x="93.29" y="119.54" style="opacity:0.54;clip-path:url(#SVGID_2_);" width="3" height="8.46"/>
		<path id="XMLID_3328_" style="clip-path:url(#SVGID_2_);fill:#7A4C32;" d="M67.86,90.25h-9.08v9.59c0,4.34,3.7,7.86,8.26,7.86
			h1.65c4.56,0,8.26-3.52,8.26-7.86v-9.59H67.86z"/>
		<g style="clip-path:url(#SVGID_2_);">
			<path id="XMLID_14_" style="fill:#7A4C32;" d="M100,51.47c0,0,5.89,1.02,5.89,7.37c0,5.6-4.3,7.81-8.6,7.81V51.47H100z"/>
			<path id="XMLID_13_" style="fill:#7A4C32;" d="M35.72,51.47c0,0-5.89,1.02-5.89,7.37c0,5.6,4.3,7.81,8.6,7.81V51.47H35.72z"/>
			<path id="XMLID_10_" style="fill:#9B643C;" d="M67.86,9.91c-25.4,0-32.04,19.69-32.04,47.35c0,28.68,18.43,36.1,32.04,36.1
				c13.41,0,32.04-7.2,32.04-36.1C99.9,29.59,93.26,9.91,67.86,9.91z"/>
			<path id="XMLID_9_" style="fill:#42312C;" d="M57.31,59.82c0,2.86-1.91,5.17-4.28,5.17c-2.36,0-4.29-2.32-4.29-5.17
				c0-2.86,1.92-5.18,4.29-5.18C55.39,54.64,57.31,56.96,57.31,59.82"/>
			<path id="XMLID_6_" style="fill:#42312C;" d="M78.4,59.82c0,2.86,1.91,5.17,4.29,5.17c2.36,0,4.28-2.32,4.28-5.17
				c0-2.86-1.92-5.18-4.28-5.18C80.32,54.64,78.4,56.96,78.4,59.82"/>
			<path id="XMLID_5_" style="fill:#42312C;" d="M77.13,77.29c-1.3,0-9.27,0-9.27,0s-7.98,0-9.27,0c-1.06,0-1.52,0.71-0.82,1.79
				c0.98,1.5,4.64,4.38,10.09,4.38c5.45,0,9.11-2.88,10.09-4.38C78.65,78.01,78.19,77.29,77.13,77.29z"/>
			<path id="XMLID_4_" style="fill:#7A4C32;" d="M72.34,69.41c-1.58,0.45-3.22,0.66-4.48,0.66c-1.26,0-2.9-0.22-4.48-0.66
				c-0.67-0.19-0.94,0.45-0.7,0.87c0.5,0.88,2.52,2.66,5.18,2.66c2.66,0,4.68-1.78,5.18-2.66C73.28,69.86,73.01,69.22,72.34,69.41z"
				/>
			<path id="XMLID_1_" style="fill:#47352D;" d="M68.62,6.29c0,0-0.5-0.02-0.71-0.01c-0.21,0-0.71,0.01-0.71,0.01
				C39.79,6.82,31.53,23.31,31.53,34.74c0,11.11,0.01,19.28,0.01,19.28s0.44-0.45,1.24-1.08c0.86-0.67,1.81-1.04,1.81-1.04
				l1.38,9.28l9.13-19.08c0.06-0.12,0.18-0.19,0.31-0.17l5.41,0.6c5.44,0.6,10.91,0.9,16.37,0.91v0.01c0.24,0,0.47-0.01,0.71-0.01
				c0.24,0,0.47,0.01,0.71,0.01v-0.01c5.46-0.02,10.93-0.31,16.37-0.91l5.41-0.6c0.13-0.01,0.25,0.06,0.31,0.17l9.13,19.08
				l1.38-9.28c0,0,0.95,0.38,1.81,1.04c0.81,0.63,1.24,1.08,1.24,1.08s0.01-8.16,0.01-19.28C104.29,23.31,96.03,6.82,68.62,6.29z"/>
		</g>
		<g id="XMLID_20_" style="clip-path:url(#SVGID_2_);">
			<path id="XMLID_8_" style="fill:#9B643C;" d="M45.61,28.02c-1.12-0.85-2.41-1.32-3.62-1.11c-0.9,0.16-1.19,0.27-3.35,1.26
				c-2.48,0.01-0.88-4.63-0.3-6.08c0.03-0.08,3.7-8.49,4.37-9.89c0.79-1.65,0.55-2.97-0.59-3.52c-1.22-0.59-2.55,0.88-2.95,1.73
				c-0.63,1.3-2.26,4.29-3.58,7.36c0,0-0.15,0.29-0.24,0.32c-0.68,0.24-0.82-0.58-0.82-0.58c0.55-2.45,2.21-8.3,2.59-9.64
				c0.66-2.31,0.28-3.61-0.92-3.97c-1.59-0.47-2.47,0.75-3.11,3.01c-0.38,1.35-1.48,5.49-2.64,9.32C29.54,17.11,29.1,16,29.1,16
				c0.62-3.78,1.43-7.71,1.57-8.89c0.24-1.91-0.13-2.93-1.37-3.19c-1.28-0.27-2.02,0.63-2.44,2.82c-0.29,1.55-1.27,6.42-1.7,8.93
				c-0.74,1.35-1.5,0.24-1.5,0.24c0.37-3.71,0.37-4.53,0.41-5.48c0.07-2.01-0.34-2.76-1.6-2.78c-1.4-0.03-1.78,1.13-2.02,2.89
				c-0.16,1.19-1.11,9.21-1.88,12.29c-1.19,4.73-0.26,9.3,1.81,10.99c2.91,2.38,7.45,3.71,11.83,2.75c1.06-0.23,2.88-1.61,3.85-2.1
				c0.15-0.08,3.28-2.16,3.68-2.28c1.03-0.3,2.05-0.57,2.8-0.72c0.81-0.17,1.63-0.39,2-0.53C46.57,30.19,46.64,28.81,45.61,28.02z"
				/>
			<path id="XMLID_19_" style="fill:#9B643C;" d="M37.04,33.85c0,0-2.24,1.41-3.33,5.7l-15.35-1.69c0,0-1.2-7.22-0.22-12.47
				L37.04,33.85z"/>
		</g>
		<path id="XMLID_7_" style="clip-path:url(#SVGID_2_);fill:#00BFA5;" d="M45.76,136.16l-7.13-1.86
			c-13.12-3.43-20.57-0.26-24.46-28.98l-4.11-32.64c-0.27-2.22-0.17-4.47,0.3-6.65l6.51-30.09c0.22-1.02,1.18-1.7,2.21-1.56l15,1.94
			c1.05,0.14,1.81,1.06,1.74,2.12l-1.66,28.58C34.05,69,34.23,71,34.71,72.93L40.13,95L45.76,136.16z"/>
	</g>
</g>
</svg>
