<svg width="128" height="128" style="enable-background:new 0 0 128 128;" xmlns="http://www.w3.org/2000/svg" xmlns:xlink="http://www.w3.org/1999/xlink">
  <g>
    <linearGradient id="SVGID_1_" gradientUnits="userSpaceOnUse" x1="64" x2="64" y1="5" y2="128.7217">
      <stop offset="0" style="stop-color:#EF5350"/>
      <stop offset="0.5777" style="stop-color:#E0403E"/>
      <stop offset="1" style="stop-color:#D32F2F"/>
    </linearGradient>
    <path d="M116,124H12c-4.42,0-8-3.58-8-8V12c0-4.42,3.58-8,8-8h104c4.42,0,8,3.58,8,8v104 C124,120.42,120.42,124,116,124z" style="fill:url(#SVGID_1_);"/>
    <g style="opacity:0.2;">
      <path d="M116,7c2.76,0,5,2.24,5,5v104c0,2.76-2.24,5-5,5H12c-2.76,0-5-2.24-5-5V12c0-2.76,2.24-5,5-5H116 M116,4H12c-4.42,0-8,3.58-8,8v104c0,4.42,3.58,8,8,8h104c4.42,0,8-3.58,8-8V12C124,7.58,120.42,4,116,4L116,4z" style="fill:#424242;"/>
    </g>
    <g style="opacity:0.2;">
      <path d="M42.87,36c6.01,0,10.86,1.63,14.52,4.88c3.18,2.82,5.2,6.66,6.08,11.51 c0.22,1.21-0.74,2.33-1.98,2.33h-5.41c-0.97,0-1.79-0.7-1.96-1.65c-0.56-3.07-1.62-5.35-3.18-6.83c-1.83-1.73-4.52-2.6-8.07-2.6 c-4.12,0-7.28,1.5-9.49,4.51c-2.21,3.01-3.34,7.43-3.39,13.24v4.83c0,5.89,1.05,10.39,3.16,13.49c2.11,3.1,5.2,4.65,9.26,4.65 c3.72,0,6.51-0.84,8.38-2.51c1.6-1.43,2.7-3.67,3.3-6.73c0.18-0.94,1-1.62,1.96-1.62h5.44c1.23,0,2.2,1.11,1.98,2.32 c-0.85,4.72-2.89,8.48-6.12,11.29C53.62,90.37,48.64,92,42.42,92c-4.34,0-8.17-1.03-11.47-3.09c-3.31-2.06-5.86-4.98-7.66-8.78 c-1.8-3.79-2.73-8.2-2.81-13.21v-5.09c0-5.14,0.91-9.67,2.73-13.59c1.82-3.92,4.44-6.94,7.84-9.06C34.47,37.06,38.4,36,42.87,36 M42.87,33c-5.01,0-9.52,1.22-13.4,3.63c-3.89,2.42-6.91,5.9-8.98,10.34c-2,4.3-3.01,9.3-3.01,14.85v5.09 c0.08,5.47,1.12,10.33,3.1,14.5c2.04,4.3,4.99,7.68,8.78,10.04C33.14,93.81,37.53,95,42.42,95c6.93,0,12.62-1.89,16.9-5.62 c3.74-3.26,6.13-7.64,7.11-13.02c0.26-1.44-0.13-2.92-1.08-4.05c-0.96-1.15-2.36-1.8-3.85-1.8h-5.44c-2.38,0-4.44,1.7-4.9,4.04 c-0.47,2.38-1.26,4.09-2.35,5.07c-1.3,1.16-3.45,1.75-6.39,1.75c-3.08,0-5.24-1.06-6.78-3.33C33.88,75.45,33,71.48,33,66.23V61.4 c0.04-5.12,0.99-8.99,2.81-11.47c1.65-2.24,3.89-3.29,7.07-3.29c2.74,0,4.76,0.6,6.01,1.78c1.08,1.03,1.86,2.77,2.29,5.19 c0.43,2.38,2.5,4.11,4.91,4.11h5.41c1.49,0,2.89-0.66,3.85-1.8c0.95-1.13,1.34-2.61,1.08-4.06c-0.99-5.51-3.36-9.95-7.04-13.22 C55.17,34.9,49.62,33,42.87,33L42.87,33z" style="fill:#424242;"/>
      <path d="M80.09,36c1.1,0,2,0.9,2,2v44.15c0,1.1,0.9,2,2,2h21.42c1.1,0,2,0.9,2,2V90c0,1.1-0.9,2-2,2H74.36 c-1.1,0-2-0.9-2-2V38c0-1.1,0.9-2,2-2H80.09 M80.09,33h-5.73c-2.76,0-5,2.24-5,5v52c0,2.76,2.24,5,5,5h31.15c2.76,0,5-2.24,5-5 v-3.85c0-2.76-2.24-5-5-5H85.09V38C85.09,35.24,82.85,33,80.09,33L80.09,33z" style="fill:#424242;"/>
    </g>
    <g>
      <path d="M61.51,73.51c1.23,0,2.2,1.11,1.98,2.32c-0.85,4.72-2.89,8.48-6.12,11.29 C53.62,90.37,48.64,92,42.42,92c-4.34,0-8.17-1.03-11.47-3.09c-3.31-2.06-5.86-4.98-7.66-8.78c-1.8-3.79-2.73-8.2-2.81-13.21 v-5.09c0-5.14,0.91-9.67,2.73-13.59c1.82-3.92,4.44-6.94,7.84-9.06C34.47,37.06,38.4,36,42.87,36c6.01,0,10.86,1.63,14.52,4.88 c3.18,2.82,5.2,6.66,6.08,11.51c0.22,1.21-0.74,2.33-1.98,2.33h-5.41c-0.97,0-1.79-0.7-1.96-1.65c-0.56-3.07-1.62-5.35-3.18-6.83 c-1.83-1.73-4.52-2.6-8.07-2.6c-4.12,0-7.28,1.5-9.49,4.51S30.04,55.58,30,61.4v4.83c0,5.89,1.05,10.39,3.16,13.49 c2.11,3.1,5.2,4.65,9.26,4.65c3.72,0,6.51-0.84,8.38-2.51c1.6-1.43,2.7-3.67,3.3-6.73c0.18-0.94,1-1.62,1.96-1.62H61.51z" style="fill:#FAFAFA;"/>
      <path d="M84.09,84.15h21.42c1.1,0,2,0.9,2,2V90c0,1.1-0.9,2-2,2H74.36c-1.1,0-2-0.9-2-2V38c0-1.1,0.9-2,2-2 h5.73c1.1,0,2,0.9,2,2v44.15C82.09,83.26,82.99,84.15,84.09,84.15z" style="fill:#FAFAFA;"/>
    </g>
  </g>
</svg>