<?xml version="1.0" encoding="UTF-8" standalone="no"?>
<!DOCTYPE svg PUBLIC "-//W3C//DTD SVG 1.1//EN" "http://www.w3.org/Graphics/SVG/1.1/DTD/svg11.dtd">
<svg width="100%" height="100%" viewBox="0 0 128 128" version="1.1" xmlns="http://www.w3.org/2000/svg" xmlns:xlink="http://www.w3.org/1999/xlink" xml:space="preserve" xmlns:serif="http://www.serif.com/" style="fill-rule:evenodd;clip-rule:evenodd;stroke-linejoin:round;stroke-miterlimit:1.41421;">
    <g transform="matrix(0.866025,0.5,-0.5,0.866025,53.1781,27.596)">
        <g transform="matrix(0.5,0,0,2.64631,10.75,-20.0237)">
            <path d="M24,22.118C24,21.987 23.44,21.881 22.75,21.881L20.25,21.881C19.56,21.881 19,21.987 19,22.118L19,42.297C19,42.428 19.56,42.534 20.25,42.534L22.75,42.534C23.44,42.534 24,42.428 24,42.297L24,22.118Z" style="fill:rgb(224,224,224);"/>
        </g>
        <g transform="matrix(0.5,0,0,0.612632,10.75,66.4762)">
            <path d="M24,22.902C24,22.339 23.44,21.881 22.75,21.881L20.25,21.881C19.56,21.881 19,22.339 19,22.902L19,41.513C19,42.076 19.56,42.534 20.25,42.534L22.75,42.534C23.44,42.534 24,42.076 24,41.513L24,22.902Z" style="fill:rgb(234,124,113);"/>
        </g>
        <circle cx="21.5" cy="92.534" r="2.346" style="fill:rgb(224,224,224);"/>
        <path d="M24,23.131C24,22.442 23.44,21.881 22.75,21.881L20.25,21.881C19.56,21.881 19,22.442 19,23.131L19,41.284C19,41.973 19.56,42.534 20.25,42.534L22.75,42.534C23.44,42.534 24,41.973 24,41.284L24,23.131Z" style="fill:rgb(76,76,76);"/>
    </g>
    <g transform="matrix(1,0,0,1,30.3275,-8)">
        <g transform="matrix(0.866025,-0.5,0.5,0.866025,-38.005,37.1511)">
            <path d="M34.02,125.55L25.57,120.75C24.505,120.145 23.845,119.01 23.845,117.785C23.845,117.194 23.998,116.614 24.29,116.1L24.37,115.95C24.975,114.885 26.11,114.225 27.335,114.225C27.926,114.225 28.506,114.378 29.02,114.67L37.47,119.47C38.535,120.075 39.195,121.21 39.195,122.435C39.195,123.026 39.042,123.606 38.75,124.12L38.67,124.27C37.744,125.895 35.647,126.472 34.02,125.55Z" style="fill:rgb(69,104,173);fill-rule:nonzero;"/>
        </g>
        <g transform="matrix(0.866025,-0.5,0.5,0.866025,-38.005,37.1511)">
            <path d="M24.515,115.706L38.893,123.88L36.555,127.992L22.177,119.818L24.515,115.706Z" style="fill:rgb(69,104,173);fill-rule:nonzero;"/>
        </g>
        <g transform="matrix(0.866025,-0.5,0.5,0.866025,-38.005,37.1511)">
            <path d="M35.489,118.315L40.461,121.142L38.563,124.48L33.591,121.653L35.489,118.315Z" style="fill:rgb(69,104,173);fill-rule:nonzero;"/>
        </g>
    </g>
    <g transform="matrix(0.866025,-0.5,0.5,0.866025,-7.67747,29.1511)">
        <path d="M40.39,121.27L30.69,115.78L49.52,82.322L60.21,88.602L40.39,121.27Z" style="fill:rgb(129,140,155);fill-rule:nonzero;"/>
    </g>
    <g transform="matrix(0.965926,0.258819,-0.258819,0.965926,40.9582,-13.629)">
        <path d="M57.78,30.92L60.37,41.08L52.86,43.98L45.02,24.7L57.78,30.92Z" style="fill:#fadcbc;fill-rule:nonzero;"/>
    </g>
    <g transform="matrix(0.992199,0.12466,-0.12466,0.992199,34.4488,-8.59641)">
        <path d="M57.2,20.62L59.23,37.98L47.91,39.39C42.65,40.05 37.91,36.17 37.51,30.88L37.03,24.47C36.58,18.55 41.35,13.53 47.28,13.67L49.64,13.73C53.53,13.83 56.75,16.76 57.2,20.62Z" style="fill:#fadcbc;fill-rule:nonzero;"/>
    </g>
    <g transform="matrix(0.992199,0.12466,-0.12466,0.992199,34.4488,-8.59641)">
        <path d="M58.99,32.35L53.59,32.03L52.88,28.35C52.642,27.111 51.736,26.1 50.53,25.73L49.75,29.97C48.5,29.89 47.37,29.17 46.78,28.06L45.61,25.85C45.103,24.894 44.163,24.241 43.09,24.1L37.03,23.31C37.03,23.31 36.12,15.11 44.1,13.17C45.48,12.84 46.85,12.59 48.17,12.4C54.31,11.54 59.78,16.34 59.76,22.54C59.733,25.824 59.476,29.102 58.99,32.35Z" style="fill:212121;fill-rule:nonzero;"/>
    </g>
    <g transform="matrix(0.992199,0.12466,-0.12466,0.992199,34.4488,-8.59641)">
        <path d="M41.69,27.99C41.77,28.76 41.31,29.44 40.67,29.5C40.03,29.56 39.45,28.99 39.38,28.22C39.3,27.45 39.76,26.77 40.4,26.71C41.04,26.64 41.61,27.22 41.69,27.99" style="fill:rgb(192,123,71);fill-rule:nonzero;"/>
    </g>
    <g transform="matrix(0.965926,0.258819,-0.258819,0.965926,40.9582,-13.629)">
        <path d="M70.04,75.11L57.6,78.06C55.22,78.62 52.84,77.15 52.27,74.78L49.21,51.81C48.8,48.06 48.49,41.7 53.46,40.53L57.76,39.51C62.04,38.5 65.02,43.13 66.27,47.54L73.33,69.78C73.889,72.144 72.404,74.55 70.04,75.11Z" style="fill:#00bfa5;fill-rule:nonzero;"/>
    </g>
    <g transform="matrix(1,0,0,1,27.2522,0)">
        <path d="M46.873,67.696L41.075,63.393L49.781,51.66L55.579,55.962L46.873,67.696Z" style="fill:#fadcbc;fill-rule:nonzero;"/>
    </g>
    <g transform="matrix(0.980799,-0.195022,0.195022,0.980799,15.3181,9.82574)">
        <circle cx="43.95" cy="65.53" r="3.66" style="fill:#fadcbc;"/>
    </g>
    <g transform="matrix(1,0,0,1,27.2522,0)">
        <path d="M32.207,70.402L31.471,63.22L43.777,61.96L44.513,69.142L32.207,70.402Z" style="fill:#fadcbc;fill-rule:nonzero;"/>
    </g>
    <g transform="matrix(1,0,0,1,27.2522,0)">
        <path d="M23.57,67.45L23.59,67.68C23.819,70.013 25.804,71.812 28.148,71.812C28.299,71.812 28.45,71.805 28.6,71.79L31.18,71.53C33.513,71.301 35.312,69.316 35.312,66.972C35.312,66.821 35.305,66.67 35.29,66.52L35.27,66.29C35.041,63.957 33.056,62.158 30.712,62.158C30.561,62.158 30.41,62.165 30.26,62.18L27.68,62.44C25.348,62.666 23.547,64.649 23.547,66.993C23.547,67.145 23.555,67.298 23.57,67.45Z" style="fill:#fadcbc;fill-rule:nonzero;"/>
    </g>
    <g transform="matrix(0.997988,0.0633971,-0.0633971,0.997988,30.6047,-2.79131)">
        <path d="M45.41,54.57L54.63,61.16L61.45,51.62C63.209,49.153 62.632,45.676 60.17,43.91L59.94,43.75C57.473,41.991 53.996,42.568 52.23,45.03L45.41,54.57Z" style="fill:rgb(4,162,135);fill-rule:nonzero;"/>
    </g>
</svg>
