<?xml version="1.0" encoding="utf-8"?>
<!-- Generator: Adobe Illustrator 26.3.1, SVG Export Plug-In . SVG Version: 6.00 Build 0)  -->
<svg version="1.1" id="Art" xmlns="http://www.w3.org/2000/svg" xmlns:xlink="http://www.w3.org/1999/xlink" x="0px" y="0px"
	 viewBox="0 0 128 128" style="enable-background:new 0 0 128 128;" xml:space="preserve">
<g>
	<g>
		<path style="fill:#EB2A00;" d="M64.24,86.95c-3.23,0-6.21-1.16-8.09-4.59c-2.17-3.97-1.51-8.39,1.91-12.78
			c2.44-3.12,4.89-4.62,5.02-4.7c0.68-0.45,1.6-0.27,2.05,0.41c0.45,0.68,0.27,1.6-0.41,2.06c-0.1,0.07-9.83,6.54-5.97,13.59
			c2.69,4.91,8.77,3.36,17.07-0.47c3.79-1.75,6.93-1.89,9.69-2.02c2.35-0.11,4.38-0.2,6.58-1.2c4.92-2.24,5.78-6.63,6.69-11.28
			c0.48-2.44,0.97-4.95,2.08-7.17c2.28-4.56,5.85-7.11,6.5-7.51c0.76-0.47,1.59-1.03,2.12-0.39c0.52,0.63-0.23,1.45-0.86,1.97
			c-0.04,0.03-3.07,2.29-5.25,6.81c-0.9,1.87-1.22,4.52-1.68,6.87c-0.97,4.94-2.06,10.53-8.37,13.41c-2.72,1.24-5.24,1.35-7.67,1.47
			c-2.61,0.12-5.32,0.24-8.58,1.75C73.94,84.59,68.84,86.95,64.24,86.95z"/>
	</g>
</g>
<g>
	<g>
		<path style="fill:#EB2A00;" d="M80.87,123.51c-0.94-0.47-9.7-5.01-18.01-8.12c-1.53-0.57-3.12-1.1-4.81-1.66
			c-6.76-2.24-15.18-5.02-24.76-12.89c-12.8-10.51-14.32-20.39-14.09-25.34c0.19-3.98,1.74-6.99,3.38-10.18
			c0.69-1.34,1.4-2.72,2.02-4.21c1.8-4.31,1.13-11.01,1.12-11.08c-0.08-0.81,0.51-1.54,1.32-1.63c0.82-0.08,1.54,0.51,1.63,1.32
			c0.03,0.3,0.75,7.52-1.34,12.53c-0.67,1.6-1.41,3.04-2.12,4.43c-1.55,3.02-2.9,5.63-3.05,8.96c-0.16,3.54,0.77,12.86,13.01,22.91
			c9.16,7.52,16.95,10.1,23.82,12.37c1.72,0.57,3.34,1.11,4.92,1.7c8.55,3.21,16.26,7.93,17.37,8.53c1.12,0.61,2.61,2.02,2.19,2.73
			C83.19,124.34,81.81,123.98,80.87,123.51z"/>
	</g>
</g>
<g>
	<g>
		<path style="fill:#EB2A00;" d="M60.72,99.12c-1.32,0-2.66-0.11-4.03-0.35c-13.12-2.28-21.1-12.07-19.41-23.8
			c1.77-12.24,10.22-21.55,10.58-21.94c0.55-0.6,1.49-0.64,2.09-0.09c0.6,0.55,0.64,1.49,0.09,2.09c-0.08,0.09-8.2,9.05-9.83,20.35
			c-1.7,11.8,7.3,18.77,16.98,20.46c8.75,1.52,16.58-2.96,22.3-6.24c1.27-0.73,2.46-1.41,3.52-1.94c2.6-1.3,4.99-1.63,7.29-1.94
			c3.06-0.42,6.28-0.59,9.94-3.16c4.53-3.19,6.37-8.2,6.39-8.26c0.26-0.88,0.75-2.01,1.53-1.76c0.78,0.25,0.6,2.04,0.35,2.82
			c-0.36,1.09-1.53,5.63-6.9,9.41c-4.25,2.99-7.79,3.47-10.91,3.9c-2.16,0.3-4.21,0.58-6.37,1.66c-0.98,0.49-2.15,1.16-3.38,1.86
			C76,95.03,68.85,99.12,60.72,99.12z"/>
	</g>
</g>
<radialGradient id="SVGID_1_" cx="35.1453" cy="76.8976" r="73.6997" gradientUnits="userSpaceOnUse">
	<stop  offset="0.1223" style="stop-color:#FFA8D2"/>
	<stop  offset="0.3647" style="stop-color:#F1B0DF"/>
	<stop  offset="0.7812" style="stop-color:#DCBBF1"/>
</radialGradient>
<path style="opacity:0.7;fill:url(#SVGID_1_);" d="M31.36,51.11c0.04,1.61,0.89,5.84-0.89,10.98c-2.99,8.67-15.23,11.34-10.68,25.22
	c2.48,7.57,7.5,7.7,7.8,8.71c0.3,1.01-1.4,15.76,16.51,19.91c16.83,3.9,24.84-10.62,29.76-11.87c5.07-1.29,4.83,3.83,5.91,8.78
	c0.91,4.15,3.36,7.08,7.3,8.71c4.15,1.72,6.59-0.71,6.59-0.71s3.92,2.98,9.42,1.62c10.23-2.53,9.02-13.27,8.31-13.37
	c-0.71-0.1-4.94,6.66-11.96,3.95c-6.18-2.38-5.78-9.02-4.36-13.07c1.42-4.05,1.01-8.11-1.01-10.23c-2.03-2.13-5.78-0.81-5.78-0.81
	s-0.1-6.99-4.56-9.63c-4.46-2.63-10.31,1.26-13.76,4.57c-4.86,4.66-10.25,3.74-14.1-0.92c-3.47-4.2-4.1-9.76-0.42-14.49
	c3.52-4.52,6.3-4.66,6.3-4.66s-3.04-1.32-5.17-1.62c-2.13-0.3-9.07,2.32-13.98-0.71C35.26,56.95,34.77,52.01,31.36,51.11z"/>
<radialGradient id="SVGID_00000044136627956389054060000016442804711932414336_" cx="35.1453" cy="76.8976" r="73.6997" gradientUnits="userSpaceOnUse">
	<stop  offset="0.1746" style="stop-color:#FFA8D2"/>
	<stop  offset="0.4543" style="stop-color:#EDB2E2;stop-opacity:0.5388"/>
	<stop  offset="0.7812" style="stop-color:#DCBBF1;stop-opacity:0"/>
</radialGradient>
<path style="fill:url(#SVGID_00000044136627956389054060000016442804711932414336_);" d="M31.36,51.11
	c0.04,1.61,0.89,5.84-0.89,10.98c-2.99,8.67-15.23,11.34-10.68,25.22c2.48,7.57,7.5,7.7,7.8,8.71c0.3,1.01-1.4,15.76,16.51,19.91
	c16.83,3.9,24.84-10.62,29.76-11.87c5.07-1.29,4.83,3.83,5.91,8.78c0.91,4.15,3.36,7.08,7.3,8.71c4.15,1.72,6.59-0.71,6.59-0.71
	s3.92,2.98,9.42,1.62c10.23-2.53,9.02-13.27,8.31-13.37c-0.71-0.1-4.94,6.66-11.96,3.95c-6.18-2.38-5.78-9.02-4.36-13.07
	c1.42-4.05,1.01-8.11-1.01-10.23c-2.03-2.13-5.78-0.81-5.78-0.81s-0.1-6.99-4.56-9.63c-4.46-2.63-10.31,1.26-13.76,4.57
	c-4.86,4.66-10.25,3.74-14.1-0.92c-3.47-4.2-4.1-9.76-0.42-14.49c3.52-4.52,6.3-4.66,6.3-4.66s-3.04-1.32-5.17-1.62
	c-2.13-0.3-9.07,2.32-13.98-0.71C35.26,56.95,34.77,52.01,31.36,51.11z"/>
<radialGradient id="SVGID_00000014595265266348623260000016092020333597520018_" cx="63.6332" cy="11.5167" r="50.2254" gradientTransform="matrix(-0.3376 0.9413 -2.3779 -0.8529 112.5032 -38.5568)" gradientUnits="userSpaceOnUse">
	<stop  offset="0.0479" style="stop-color:#FE635D"/>
	<stop  offset="0.1278" style="stop-color:#FE7053"/>
	<stop  offset="0.3256" style="stop-color:#FF8C3C"/>
	<stop  offset="0.4401" style="stop-color:#FF9734"/>
	<stop  offset="0.5272" style="stop-color:#FE8B34"/>
	<stop  offset="0.6826" style="stop-color:#FC6D36"/>
	<stop  offset="0.825" style="stop-color:#F94B37"/>
</radialGradient>
<path style="fill:url(#SVGID_00000014595265266348623260000016092020333597520018_);" d="M17.57,43.34
	c-0.72-1.59-1.94-8.95,2.92-19.79S43.25-4.44,70.6,8.32c26.1,12.18,18.95,41.2,13.97,49.61c-4.66,7.86-8.82,9.84-12.89,10.23
	c-2.69,0.25-10.03-5.47-13.17-5.67c-3.14-0.2-11.75,1.22-15.91-1.01c-4.15-2.23-9.63-9.73-11.45-10.44S20.41,49.62,17.57,43.34z"/>
<path style="fill:#F5ECEB;" d="M40.9,68.71c-1.22-0.07-2.14,0.75-2.21,2.07c-0.07,1.32,0.82,2.1,1.96,2.17
	c1.14,0.07,2.07-0.61,2.17-1.99C42.92,69.6,42.07,68.78,40.9,68.71z"/>
<path style="fill:#F5ECEB;" d="M37.08,83.17c-1.39,0.07-2.05,0.99-2.03,2.36c0.02,1.37,1.08,2.03,2.34,1.99
	c1.26-0.04,1.96-0.95,1.96-2.25S38.38,83.11,37.08,83.17z"/>
<path style="fill:#F5ECEB;" d="M26.12,73.09c-1.36,0.13-2,1.14-1.91,2.13c0.1,0.99,0.54,1.91,1.91,1.88c1.14-0.03,1.93-0.63,2-1.94
	C28.19,73.98,27.43,72.97,26.12,73.09z"/>
<path style="fill:#F5ECEB;" d="M55.02,87.16c-1.27,0.01-1.85,1.06-1.77,1.97c0.09,0.91,0.63,1.81,1.77,1.82
	c1.06,0.01,1.79-0.67,1.85-1.88C56.93,87.98,56.3,87.15,55.02,87.16z"/>
<path style="fill:#F5ECEB;" d="M39.38,99.43c-1.25-0.07-2.17,0.72-2.24,2.04c-0.07,1.32,0.82,2.13,1.98,2.2
	c1.16,0.07,2.11-0.61,2.22-1.99C41.45,100.32,40.58,99.5,39.38,99.43z"/>
<path style="fill:#F5ECEB;" d="M52.88,107.14c-1.08-0.07-1.89,0.66-1.95,1.82c-0.06,1.16,0.72,1.86,1.73,1.92
	c1.01,0.06,1.82-0.53,1.92-1.76C54.67,107.93,53.92,107.2,52.88,107.14z"/>
<path style="fill:#F5ECEB;" d="M69.36,93.57c-1.14,0.31-1.47,1.71-1.11,2.64s1.14,1.7,2.34,1.42c1.09-0.25,1.6-1.22,1.31-2.5
	C71.65,93.97,70.59,93.23,69.36,93.57z"/>
<path style="fill:#F5ECEB;" d="M79.22,85.18c-1.23,0.01-1.8,0.98-1.71,1.82c0.09,0.84,0.61,1.67,1.71,1.68
	c1.03,0.01,1.74-0.62,1.8-1.74C81.08,85.94,80.47,85.17,79.22,85.18z"/>
<radialGradient id="SVGID_00000053536485062739825200000012941812416223411358_" cx="63.578" cy="17.5838" r="45.0291" gradientTransform="matrix(-0.3794 0.9252 -1.6774 -0.6878 117.1934 -29.147)" gradientUnits="userSpaceOnUse">
	<stop  offset="0.3617" style="stop-color:#FFCA87"/>
	<stop  offset="0.4434" style="stop-color:#FFBF82"/>
	<stop  offset="0.5872" style="stop-color:#FFA274"/>
	<stop  offset="0.775" style="stop-color:#FF725F"/>
	<stop  offset="0.812" style="stop-color:#FF685A"/>
</radialGradient>
<path style="fill:url(#SVGID_00000053536485062739825200000012941812416223411358_);" d="M29.42,48.91
	c-1.11-0.1-5.18-1.61-5.79-7.89s3.31-9.79,8.63-11.8c3.95-1.49,6.93-3.53,10.49-6.27c3.28-2.52,9.84-6.6,19.19-2.42
	c10.71,4.79,10.01,12.97,10.44,16.62c0.61,5.17,1.88,7.22,3.91,11.42c2.06,4.27,0.78,10.55-2.53,13.6
	c-3.95,3.65-10.9,2.33-12.02,1.62c-1.11-0.71-3.45-1.42-5.17-1.62c-1.72-0.2-11.35,1.11-13.98-0.71c-2.63-1.82-8.21-7.9-9.32-8.71
	C32.16,51.95,29.42,48.91,29.42,48.91z"/>
<path style="fill:#EB2A00;" d="M33.2,49.79c-4.37-2.58-7.01-1.63-10.19-3.57c-4.62-2.82-3.94-5.8-5.17-5.34
	c-1.12,0.43-0.5,6.67,4.96,9.5s6.68,1.03,9.76,3.73c3.08,2.7,3.31,6.67,10.34,9.18c6.23,2.23,10.54-0.32,14.42,0.53
	c5.12,1.12,3.31,3.63,9.18,4.85c4.57,0.96,8.47-0.79,8.22-1.55c-0.25-0.75-3.57,0.37-7.37-1.39c-2.69-1.25-5.03-4.19-8.21-5.02
	c-6.35-1.65-9.95,1.7-16.17-1.44C36.74,56.15,38.1,52.68,33.2,49.79z"/>
<path style="fill:#FFFEFE;" d="M48.14,9.02c0.25,1.89,2.29,1.83,3.39,1.77c1.3-0.07,3.46-0.65,3.2-2.71
	c-0.19-1.5-1.5-2.03-3.44-1.88C49.49,6.33,47.92,7.3,48.14,9.02z"/>
<path style="fill:#FFFEFE;" d="M32.14,13.72c6.31-5.19,9.82-5.35,11.01-5.22c1.1,0.12,2.32,0.89,2.02,2.35s-1.78,1.84-2.88,2.26
	c-1.1,0.42-2.97,0.89-7.12,4.19c-3.18,2.52-6.09,6.86-7.48,7.96c-0.75,0.59-3,0.42-2.58-2.17S28.31,16.87,32.14,13.72z"/>
<g>
	<g>
		<path style="fill:#EB2A00;" d="M48.79,121.64c-5.86,0-16.27-1.52-22.59-12.08c-7.66-12.8-2.47-21.64,2.35-30.03
			c1.88-3.27,3.65-6.36,4.73-9.71c2.85-8.92,1.7-14.02,1.69-14.07c-0.19-0.79,0.3-1.59,1.09-1.79c0.79-0.19,1.82,1.13,1.92,1.94
			c0.13,1.04,1.26,5.02-1.88,14.83c-1.17,3.65-3.1,7.02-4.98,10.28c-4.59,8-8.93,15.56-2.17,26.86
			c8.15,13.63,21.63,11.11,22.6,11.06c0.82-0.04,2.73-0.22,2.9,0.59c0.17,0.8-0.89,1.49-1.69,1.66
			C52.71,121.18,51.48,121.64,48.79,121.64z"/>
	</g>
</g>
<g>
	<g>
		<path style="fill:#EB2A00;" d="M74.08,110.08c-4.1,0-8.66-0.82-13.8-2.82c-12.45-4.84-18.43-17.85-17.73-27.63
			c0.8-11.16,7.22-17.77,7.49-18.05c0.58-0.58,1.51-0.59,2.1-0.01c0.58,0.58,0.59,1.51,0.01,2.1c-0.1,0.1-5.93,6.19-6.65,16.18
			c-0.5,6.96,3.54,19.44,16.03,24.3c16.95,6.59,26.62-0.26,35.3-6.63c3.31-2.43,6.44-4.73,9.63-5.89
			c8.83-3.21,13.25,1.15,13.47,1.34c0.62,0.54,1.48,1.51,0.94,2.13c-0.54,0.62-1.37-0.21-2.25-0.67c-1.49-0.77-4.36-2.81-11.48-0.22
			c-2.79,1.01-5.43,3.39-8.57,5.69C92.21,104.58,84.71,110.08,74.08,110.08z"/>
	</g>
</g>
<path style="fill:none;stroke:#E92A01;stroke-width:3;stroke-linecap:round;stroke-miterlimit:10;" d="M59.89,103.59"/>
</svg>
