<svg xmlns="http://www.w3.org/2000/svg" xmlns:xlink="http://www.w3.org/1999/xlink" viewBox="0 0 128 128"><path d="M107.88 123.45c-1.61 0-3.28-.21-4.97-.63-14.54-3.56-14.4-17.9-14.31-28.38.02-2.33.04-4.52-.06-6.55-1-19.36-4.07-26.54-11.73-27.42a4.575 4.575 0 0 1-4.02-5.07c.29-2.52 2.57-4.3 5.07-4.02 16.67 1.92 18.96 19.61 19.81 36.04.13 2.31.1 4.75.08 7.11-.11 11.94.58 17.75 7.33 19.41 1.99.49 4.8.73 6.84-.89 1.79-1.42 2.79-4.13 2.76-7.45-.1-9.32-1.49-18.61-2.84-26.47-2.41-14.04-5.52-22.91-5.56-23-.85-2.38.4-5 2.78-5.85 2.39-.84 5 .4 5.85 2.78.13.38 3.39 9.63 5.96 24.52 1.41 8.21 2.85 17.96 2.96 27.92.07 6.25-2.14 11.48-6.21 14.72-2.7 2.13-6.05 3.23-9.74 3.23z" fill="#78a3ad"/><defs><path id="a" d="M92.57 34.13c-2.6 4.17-1.5 9.1-1.06 13.43.38 3.59 1.64 7.86 4.65 10.4 4.39 3.7 14.51 2.94 19.92.72 7.17-2.92 1.21-19.74.13-24.4-2.01-8.71-4.07-16.09-10.03-25.32-1.34-2.08-3.43-4.45-5.45-6.73-.52-.59-2.42-2.12-4.08-1.59-1.34.43-2.63 1.74-3.81 2.84-2.39 2.23-.43 4.38.34 5.23 3.31 3.67 7.1 9.19 8.13 11.79.75 1.86 2.29 5.6 1.46 7.62-.22.54-5.59 2.16-6.54 2.75-.76.47-1.49.96-2.14 1.53-.59.5-1.11 1.07-1.52 1.73zm4.14 9.18c-.64-4.33 4.81-5.79 6.78-1.57 1.19 2.54 5.33 13.25-2.08 11.43-1.91-.47-2.96-1.9-3.58-3.6-.75-2.08-.88-4.56-1.12-6.26z"/></defs><use xlink:href="#a" overflow="visible" fill="#ed6c30"/><clipPath id="b"><use xlink:href="#a" overflow="visible"/></clipPath><path clip-path="url(#b)" fill="#78a3ad" d="M102.67 24.39l9.77-2.84 3.58-4.05L98.27-2.26 89.5 3.69l1.31 7.86 9.17 12.81z"/><path d="M10.79 127.47V25.94c0-9.96 8.15-18.12 18.12-18.12h35.36c9.97 0 18.13 8.15 18.13 18.12v101.54H10.79z" fill="#ed6c30"/><path d="M10.79 127.47V25.94c0-9.96 8.15-18.12 18.12-18.12h35.36c9.97 0 18.13 8.15 18.13 18.12v101.54H10.79z" fill="#ed6c30"/><path fill="#2f2f2f" d="M22.78 30.36h47.63v22.06H22.78z"/><g fill="#fff"><path d="M30.42 37.57h5.04v7.82h-5.04zM43.52 37.57h5.03v7.82h-5.03zM56.62 37.57h5.04v7.82h-5.04z"/></g></svg>