<svg width="128" height="128" style="enable-background:new 0 0 128 128;" xmlns="http://www.w3.org/2000/svg" xmlns:xlink="http://www.w3.org/1999/xlink">
  <g>
    <g>
      <rect height="24" style="fill:#BDBDBD;" width="4" x="19" y="24"/>
      <rect height="24" style="fill:#BDBDBD;" width="4" x="39" y="24"/>
    </g>
    <g>
      <rect height="24" style="fill:#BDBDBD;" width="4" x="85" y="24"/>
      <rect height="24" style="fill:#BDBDBD;" width="4" x="105" y="24"/>
    </g>
    <linearGradient id="SVGID_1_" gradientUnits="userSpaceOnUse" x1="64" x2="64" y1="32" y2="86.3333">
      <stop offset="0" style="stop-color:#DD2C00"/>
      <stop offset="0.0607" style="stop-color:#E03200"/>
      <stop offset="0.451" style="stop-color:#F15200"/>
      <stop offset="0.778" style="stop-color:#FB6600"/>
      <stop offset="1" style="stop-color:#FF6D00"/>
    </linearGradient>
    <path d="M124,58c0-14.36-26.86-26-60-26S4,43.64,4,58c0,0.23,0.03,0.46,0.04,0.69H4l2.17,27.64 l115.32-5.24l2.51-22.4h-0.04C123.97,58.46,124,58.23,124,58z" style="fill:url(#SVGID_1_);"/>
    <g style="opacity:0.2;">
      <path d="M22,25v22h-2V25H22 M23,24h-4v24h4V24L23,24z" style="fill:#424242;"/>
      <path d="M42,25v22h-2V25H42 M43,24h-4v24h4V24L43,24z" style="fill:#424242;"/>
    </g>
    <g style="opacity:0.2;">
      <path d="M88,25v22h-2V25H88 M89,24h-4v24h4V24L89,24z" style="fill:#424242;"/>
      <path d="M108,25v22h-2V25H108 M109,24h-4v24h4V24L109,24z" style="fill:#424242;"/>
    </g>
    <linearGradient id="SVGID_2_" gradientUnits="userSpaceOnUse" x1="63.9166" x2="63.9166" y1="66.847" y2="30.0936">
      <stop offset="0" style="stop-color:#DD2C00"/>
      <stop offset="0.0607" style="stop-color:#E03200"/>
      <stop offset="0.451" style="stop-color:#F15200"/>
      <stop offset="0.778" style="stop-color:#FB6600"/>
      <stop offset="1" style="stop-color:#FF6D00"/>
    </linearGradient>
    <ellipse cx="63.92" cy="58.89" rx="56.08" ry="26" style="fill:url(#SVGID_2_);"/>
    <linearGradient id="SVGID_3_" gradientUnits="userSpaceOnUse" x1="51.1697" x2="30.6697" y1="58.6577" y2="39.6577">
      <stop offset="0" style="stop-color:#FFAB91"/>
      <stop offset="1" style="stop-color:#FF7043"/>
    </linearGradient>
    <path d="M35.85,36.89c0,0-1.25-0.75-12.02,4l36.05,24h4.01L35.85,36.89z" style="fill:url(#SVGID_3_);"/>
    <linearGradient id="SVGID_4_" gradientUnits="userSpaceOnUse" x1="79.6593" x2="94.6593" y1="58.3094" y2="38.8094">
      <stop offset="0" style="stop-color:#FFAB91"/>
      <stop offset="1" style="stop-color:#FF7043"/>
    </linearGradient>
    <path d="M91.87,36.85c0,0,1.25-0.75,12.02,4l-36.05,24h-4.01L91.87,36.85z" style="fill:url(#SVGID_4_);"/>
    <ellipse cx="63.83" cy="78.85" rx="44" ry="22" style="fill:#E0E0E0;"/>
    <linearGradient id="SVGID_5_" gradientUnits="userSpaceOnUse" x1="63.9166" x2="63.9166" y1="62.1667" y2="81.621">
      <stop offset="0" style="stop-color:#C6FF00"/>
      <stop offset="0.4064" style="stop-color:#C1FA00"/>
      <stop offset="0.9047" style="stop-color:#B2ED00"/>
      <stop offset="1" style="stop-color:#AEEA00"/>
    </linearGradient>
    <ellipse cx="63.92" cy="78.89" rx="40.06" ry="18" style="fill:url(#SVGID_5_);"/>
    <rect height="26.16" style="fill:#FAFAFA;" width="1" x="63.5" y="60.89"/>
    <path d="M36.06,83.17h-1V72.5h-8.6c0,0,0.32-0.41,0.41-0.5c0.34-0.35,0.5-0.5,0.5-0.5h8.69V83.17z" style="fill:#FAFAFA;"/>
    <path d="M91.92,83.18h1V72.52h8.46c0,0-0.32-0.41-0.41-0.5c-0.34-0.35-0.5-0.5-0.5-0.5h-8.56V83.18z" style="fill:#FAFAFA;"/>
    <path d="M47.72,84.75c-0.1-0.51-0.18-1.03-0.18-1.57c0-6.27,7.38-11.38,16.46-11.38 c9.08,0,16.46,5.1,16.46,11.38c0,0.53-0.07,1.05-0.18,1.57h1.02c0.09-0.51,0.16-1.04,0.16-1.57c0-6.82-7.83-12.38-17.46-12.38 s-17.46,5.55-17.46,12.38c0,0.53,0.06,1.05,0.16,1.57H47.72z" style="fill:#FAFAFA;"/>
    <path d="M64,105.07c-25.83-0.02-50.54-9.55-60-19.6v4.06C14.74,98.9,38.06,107.98,64,108 c25.94-0.02,49.26-9.1,60-18.47v-4.06C114.54,95.52,89.83,105.05,64,105.07z" style="opacity:0.5;fill:#E0E0E0;"/>
    <rect height="26.16" style="fill:#FAFAFA;" width="1" x="63.5" y="60.89"/>
    <path d="M36.06,83.17h-1V72.5h-8.6c0,0,0.32-0.41,0.41-0.5c0.34-0.35,0.5-0.5,0.5-0.5h8.69V83.17z" style="fill:#FAFAFA;"/>
    <path d="M91.92,83.18h1V72.52h8.46c0,0-0.32-0.41-0.41-0.5c-0.34-0.35-0.5-0.5-0.5-0.5h-8.56V83.18z" style="fill:#FAFAFA;"/>
    <path d="M47.72,84.75c-0.1-0.51-0.18-1.03-0.18-1.57c0-6.27,7.38-11.38,16.46-11.38 c9.08,0,16.46,5.1,16.46,11.38c0,0.53-0.07,1.05-0.18,1.57h1.02c0.09-0.51,0.16-1.04,0.16-1.57c0-6.82-7.83-12.38-17.46-12.38 s-17.46,5.55-17.46,12.38c0,0.53,0.06,1.05,0.16,1.57H47.72z" style="fill:#FAFAFA;"/>
    <path d="M64,105.07c-25.83-0.02-50.54-9.55-60-19.6v4.06C14.74,98.9,38.06,107.98,64,108 c25.94-0.02,49.26-9.1,60-18.47v-4.06C114.54,95.52,89.83,105.05,64,105.07z" style="opacity:0.5;fill:#E0E0E0;"/>
    <linearGradient id="SVGID_6_" gradientUnits="userSpaceOnUse" x1="63.8722" x2="63.8722" y1="66.847" y2="30.0936">
      <stop offset="0" style="stop-color:#DD2C00"/>
      <stop offset="0.0607" style="stop-color:#E03200"/>
      <stop offset="0.451" style="stop-color:#F15200"/>
      <stop offset="0.778" style="stop-color:#FB6600"/>
      <stop offset="1" style="stop-color:#FF6D00"/>
    </linearGradient>
    <ellipse cx="63.87" cy="58.89" rx="56.62" ry="26" style="fill:url(#SVGID_6_);"/>
    <linearGradient id="SVGID_7_" gradientUnits="userSpaceOnUse" x1="51.1697" x2="30.6697" y1="58.6577" y2="39.6577">
      <stop offset="0" style="stop-color:#FFAB91"/>
      <stop offset="1" style="stop-color:#FF7043"/>
    </linearGradient>
    <path d="M35.85,36.89c0,0-1.25-0.75-12.02,4l36.05,24h4.01L35.85,36.89z" style="fill:url(#SVGID_7_);"/>
    <linearGradient id="SVGID_8_" gradientUnits="userSpaceOnUse" x1="79.6593" x2="94.6593" y1="58.3094" y2="38.8094">
      <stop offset="0" style="stop-color:#FFAB91"/>
      <stop offset="1" style="stop-color:#FF7043"/>
    </linearGradient>
    <path d="M91.87,36.85c0,0,1.25-0.75,12.02,4l-36.05,24h-4.01L91.87,36.85z" style="fill:url(#SVGID_8_);"/>
    <ellipse cx="63.83" cy="78.85" rx="44" ry="22" style="fill:#EEEEEE;"/>
    <linearGradient id="SVGID_9_" gradientUnits="userSpaceOnUse" x1="63.9166" x2="63.9166" y1="62.1667" y2="81.621">
      <stop offset="0" style="stop-color:#C6FF00"/>
      <stop offset="0.4064" style="stop-color:#C1FA00"/>
      <stop offset="0.9047" style="stop-color:#B2ED00"/>
      <stop offset="1" style="stop-color:#AEEA00"/>
    </linearGradient>
    <ellipse cx="63.92" cy="78.89" rx="40.06" ry="18" style="fill:url(#SVGID_9_);"/>
    <linearGradient id="SVGID_10_" gradientUnits="userSpaceOnUse" x1="63.9166" x2="63.9166" y1="87.6354" y2="67.3368">
      <stop offset="0" style="stop-color:#D4E157"/>
      <stop offset="1" style="stop-color:#D4E157;stop-opacity:0"/>
    </linearGradient>
    <ellipse cx="63.92" cy="78.89" rx="40.06" ry="18" style="fill:url(#SVGID_10_);"/>
    <g>
      <linearGradient id="SVGID_11_" gradientUnits="userSpaceOnUse" x1="64" x2="64" y1="62.2661" y2="130.4589">
        <stop offset="0" style="stop-color:#E0E0E0"/>
        <stop offset="0.2232" style="stop-color:#D8D8D8"/>
        <stop offset="0.5696" style="stop-color:#C2C2C2"/>
        <stop offset="0.994" style="stop-color:#9F9F9F"/>
        <stop offset="1" style="stop-color:#9E9E9E"/>
      </linearGradient>
      <path d="M123.81,60c-2.36,13.42-28.26,24-59.89,24S6.39,73.42,4.03,60c0,0,0,0,0,0L4,58.89v41.07 C6.36,113.38,32.29,124,63.92,124s57.72-10.58,60.08-24l0-41.31L123.81,60C123.81,60,123.81,60,123.81,60z" style="fill:url(#SVGID_11_);"/>
      <linearGradient id="SVGID_12_" gradientUnits="userSpaceOnUse" x1="4.0324" x2="4.0324" y1="63.5" y2="130.3298">
        <stop offset="0" style="stop-color:#E0E0E0"/>
        <stop offset="0.2232" style="stop-color:#D8D8D8"/>
        <stop offset="0.5696" style="stop-color:#C2C2C2"/>
        <stop offset="0.994" style="stop-color:#9F9F9F"/>
        <stop offset="1" style="stop-color:#9E9E9E"/>
      </linearGradient>
      <path d="M4.06,59.07C4.03,58.71,4,58.36,4,58C4,58.36,4.03,58.71,4.06,59.07z" style="fill:url(#SVGID_12_);"/>
      <linearGradient id="SVGID_13_" gradientUnits="userSpaceOnUse" x1="123.9685" x2="123.9685" y1="63.5" y2="130.3298">
        <stop offset="0" style="stop-color:#E0E0E0"/>
        <stop offset="0.2232" style="stop-color:#D8D8D8"/>
        <stop offset="0.5696" style="stop-color:#C2C2C2"/>
        <stop offset="0.994" style="stop-color:#9F9F9F"/>
        <stop offset="1" style="stop-color:#9E9E9E"/>
      </linearGradient>
      <path d="M123.94,59.07c0.04-0.35,0.06-0.71,0.06-1.07C124,58.36,123.97,58.71,123.94,59.07z" style="fill:url(#SVGID_13_);"/>
    </g>
    <rect height="26.16" style="fill:#FAFAFA;" width="1" x="63.5" y="60.89"/>
    <path d="M36.06,83.17h-1V72.5h-8.6c0,0,0.32-0.41,0.41-0.5c0.34-0.35,0.5-0.5,0.5-0.5h8.69V83.17z" style="fill:#FAFAFA;"/>
    <path d="M91.92,83.18h1V72.52h8.46c0,0-0.32-0.41-0.41-0.5c-0.34-0.35-0.5-0.5-0.5-0.5h-8.56V83.18z" style="fill:#FAFAFA;"/>
    <path d="M47.72,84.75c-0.1-0.51-0.18-1.03-0.18-1.57c0-6.27,7.38-11.38,16.46-11.38 c9.08,0,16.46,5.1,16.46,11.38c0,0.53-0.07,1.05-0.18,1.57h1.02c0.09-0.51,0.16-1.04,0.16-1.57c0-6.82-7.83-12.38-17.46-12.38 s-17.46,5.55-17.46,12.38c0,0.53,0.06,1.05,0.16,1.57H47.72z" style="fill:#FAFAFA;"/>
    <g style="opacity:0.2;">
      <path d="M63.92,60.89c-22.12,0-40.06,8.06-40.06,18c0,0.15,0.02,0.3,0.03,0.44h2.01 c-0.01-0.15-0.03-0.3-0.03-0.44c0-7.73,15.29-16,38.06-16c22.76,0,38.06,8.27,38.06,16c0,0.48-0.06,0.96-0.18,1.44h2.04 c0.08-0.48,0.14-0.96,0.14-1.44C103.97,68.95,86.04,60.89,63.92,60.89z" style="fill:#424242;"/>
    </g>
    <g>
      <defs>
        <ellipse id="SVGID_14_" cx="63.87" cy="58.89" rx="56.62" ry="26"/>
      </defs>
      <clipPath id="SVGID_15_">
        <use style="overflow:visible;" xlink:href="#SVGID_14_"/>
      </clipPath>
    </g>
    <linearGradient id="SVGID_16_" gradientUnits="userSpaceOnUse" x1="64" x2="64" y1="32.0833" y2="78.2349">
      <stop offset="0" style="stop-color:#DD2C00"/>
      <stop offset="0.0704" style="stop-color:#E03306"/>
      <stop offset="0.4566" style="stop-color:#F15326"/>
      <stop offset="0.7803" style="stop-color:#FB6739"/>
      <stop offset="1" style="stop-color:#FF6E40"/>
    </linearGradient>
    <path d="M64,32.08c-33.14,0-60,11.64-60,26c0,7.79,7.91,14.77,20.42,19.53 C13.84,72.89,7.25,66.29,7.25,58.97c0-14.36,25.35-26,56.62-26c31.27,0,56.62,11.64,56.62,26c0,7.64-7.17,14.5-18.59,19.26 C115.39,73.47,124,66.21,124,58.08C124,43.72,97.14,32.08,64,32.08z" style="fill:url(#SVGID_16_);"/>
    <g style="opacity:0.2;">
      <path d="M121,70.6l0,29.12C118.88,110,96.61,121,63.92,121C31.33,121,9.12,109.98,7,99.67V70.76 c3.55,3.44,8.58,6.52,14.88,9.05C33.37,84.45,48.3,87,63.92,87c15.62,0,30.55-2.55,42.04-7.18C112.35,77.24,117.44,74.1,121,70.6 M124,58.69L123.81,60l0,0c-2.36,13.42-28.26,24-59.89,24S6.39,73.42,4.03,60c0,0,0,0,0,0L4,58.89v41.07 C6.36,113.38,32.29,124,63.92,124s57.72-10.58,60.08-24L124,58.69L124,58.69z M123.81,60L123.81,60 C123.81,60,123.81,60,123.81,60L123.81,60z M4.03,60L4.03,60L4.03,60z" style="fill:#424242;"/>
      <path d="M4,58C4,58,4,58,4,58C4,58,4,58,4,58L4,58z M4,58.01c0,0.36,0.02,0.71,0.06,1.06 C4.03,58.71,4,58.36,4,58.01L4,58.01z" style="fill:#424242;"/>
      <path d="M124,58C124,58,124,58,124,58C124,58,124,58,124,58L124,58z M124,58.01 c0,0.36-0.03,0.71-0.06,1.06C123.98,58.71,124,58.36,124,58.01L124,58.01z" style="fill:#424242;"/>
    </g>
    <path d="M64,110.07c-25.83-0.02-50.54-9.55-60-19.6v4.06c10.74,9.36,34.06,18.45,60,18.47 c25.94-0.02,49.26-9.1,60-18.47v-4.06C114.54,100.52,89.83,110.05,64,110.07z" style="opacity:0.5;fill:#BDBDBD;"/>
    <path d="M64,98.34c-25.83-0.02-50.54-9.55-60-19.6v4.06c10.74,9.36,34.06,18.45,60,18.47 c25.94-0.02,49.26-9.1,60-18.47v-4.06C114.54,88.79,89.83,98.32,64,98.34z" style="opacity:0.5;fill:#BDBDBD;"/>
    <radialGradient id="SVGID_17_" cx="64" cy="73.2529" gradientUnits="userSpaceOnUse" r="43.6891">
      <stop offset="0" style="stop-color:#FF6E40"/>
      <stop offset="0.4889" style="stop-color:#FE6C3E"/>
      <stop offset="0.665" style="stop-color:#FB6538"/>
      <stop offset="0.7905" style="stop-color:#F45A2C"/>
      <stop offset="0.892" style="stop-color:#EC491C"/>
      <stop offset="0.9779" style="stop-color:#E13307"/>
      <stop offset="1" style="stop-color:#DD2C00"/>
    </radialGradient>
    <path d="M123.81,60c-2.36,13.42-28.26,24-59.89,24C32.33,84,6.45,73.45,4.04,60.05L4,58.89l0,2.77 c0,0,0,0,0,0c0,0.1,0,0.23,0,0.33c0,14.36,26.73,26,59.92,26c33.14,0,60.01-11.61,60.08-25.95l0,0v-3.55 C124.01,58.63,123.81,60.01,123.81,60z" style="fill:url(#SVGID_17_);"/>
    <path d="M76,123.47c0,0-6.71,0.54-12.08,0.53c-9.34-0.03-11.92-0.51-11.92-0.51V108c0-6.63,5.37-12,12-12h0 c6.63,0,12,5.37,12,12V123.47z" style="fill:#455A64;"/>
    <path d="M119,94.57h-2c-0.55,0-1-0.45-1-1v-6c0-0.55,0.45-1,1-1h2c0.55,0,1,0.45,1,1v6 C120,94.12,119.55,94.57,119,94.57z" style="fill:#546E7A;"/>
    <path d="M108.33,100.82h-2c-0.55,0-1-0.45-1-1v-6c0-0.55,0.45-1,1-1h2c0.55,0,1,0.45,1,1v6 C109.33,100.37,108.89,100.82,108.33,100.82z" style="fill:#546E7A;"/>
    <path d="M97.67,104.49h-2c-0.55,0-1-0.45-1-1v-6c0-0.55,0.45-1,1-1h2c0.55,0,1,0.45,1,1v6 C98.67,104.04,98.22,104.49,97.67,104.49z" style="fill:#546E7A;"/>
    <path d="M87,107h-2c-0.55,0-1-0.45-1-1v-6c0-0.55,0.45-1,1-1h2c0.55,0,1,0.45,1,1v6 C88,106.55,87.55,107,87,107z" style="fill:#546E7A;"/>
    <path d="M9,94.57h2c0.55,0,1-0.45,1-1v-6c0-0.55-0.45-1-1-1H9c-0.55,0-1,0.45-1,1v6 C8,94.12,8.45,94.57,9,94.57z" style="fill:#546E7A;"/>
    <path d="M19.67,100.82h2c0.55,0,1-0.45,1-1v-6c0-0.55-0.45-1-1-1h-2c-0.55,0-1,0.45-1,1v6 C18.67,100.37,19.11,100.82,19.67,100.82z" style="fill:#546E7A;"/>
    <path d="M30.33,104.49h2c0.55,0,1-0.45,1-1v-6c0-0.55-0.45-1-1-1h-2c-0.55,0-1,0.45-1,1v6 C29.33,104.04,29.78,104.49,30.33,104.49z" style="fill:#546E7A;"/>
    <path d="M41,107h2c0.55,0,1-0.45,1-1v-6c0-0.55-0.45-1-1-1h-2c-0.55,0-1,0.45-1,1v6 C40,106.55,40.45,107,41,107z" style="fill:#546E7A;"/>
    <linearGradient id="SVGID_18_" gradientUnits="userSpaceOnUse" x1="31" x2="31" y1="4.375" y2="27.9228">
      <stop offset="0" style="stop-color:#9E9E9E"/>
      <stop offset="1" style="stop-color:#616161"/>
    </linearGradient>
    <path d="M46,26H16c-2.21,0-4-1.79-4-4V8c0-2.21,1.79-4,4-4h30c2.21,0,4,1.79,4,4v14 C50,24.21,48.21,26,46,26z" style="fill:url(#SVGID_18_);"/>
    <g>
      <g>
        <circle cx="19" cy="10.5" r="3.5" style="fill:#FFFF00;"/>
        <path d="M19,7.5c1.66,0,3,1.34,3,3s-1.34,3-3,3s-3-1.34-3-3S17.34,7.5,19,7.5 M19,6.5c-2.21,0-4,1.79-4,4 s1.79,4,4,4s4-1.79,4-4S21.21,6.5,19,6.5L19,6.5z" style="fill:#9E9E9E;"/>
      </g>
      <g>
        <circle cx="19" cy="19.5" r="3.5" style="fill:#FFFF00;"/>
        <path d="M19,16.5c1.66,0,3,1.34,3,3s-1.34,3-3,3s-3-1.34-3-3S17.34,16.5,19,16.5 M19,15.5 c-2.21,0-4,1.79-4,4s1.79,4,4,4s4-1.79,4-4S21.21,15.5,19,15.5L19,15.5z" style="fill:#9E9E9E;"/>
      </g>
      <g>
        <circle cx="27" cy="10.5" r="3.5" style="fill:#FFFF00;"/>
        <path d="M27,7.5c1.66,0,3,1.34,3,3s-1.34,3-3,3c-1.66,0-3-1.34-3-3S25.34,7.5,27,7.5 M27,6.5 c-2.21,0-4,1.79-4,4s1.79,4,4,4s4-1.79,4-4S29.21,6.5,27,6.5L27,6.5z" style="fill:#9E9E9E;"/>
      </g>
      <g>
        <circle cx="27" cy="19.5" r="3.5" style="fill:#FFFF00;"/>
        <path d="M27,16.5c1.66,0,3,1.34,3,3s-1.34,3-3,3c-1.66,0-3-1.34-3-3S25.34,16.5,27,16.5 M27,15.5 c-2.21,0-4,1.79-4,4s1.79,4,4,4s4-1.79,4-4S29.21,15.5,27,15.5L27,15.5z" style="fill:#9E9E9E;"/>
      </g>
      <g>
        <circle cx="35" cy="10.5" r="3.5" style="fill:#FFFF00;"/>
        <path d="M35,7.5c1.66,0,3,1.34,3,3s-1.34,3-3,3c-1.66,0-3-1.34-3-3S33.34,7.5,35,7.5 M35,6.5 c-2.21,0-4,1.79-4,4s1.79,4,4,4s4-1.79,4-4S37.21,6.5,35,6.5L35,6.5z" style="fill:#9E9E9E;"/>
      </g>
      <g>
        <circle cx="35" cy="19.5" r="3.5" style="fill:#FFFF00;"/>
        <path d="M35,16.5c1.66,0,3,1.34,3,3s-1.34,3-3,3c-1.66,0-3-1.34-3-3S33.34,16.5,35,16.5 M35,15.5 c-2.21,0-4,1.79-4,4s1.79,4,4,4s4-1.79,4-4S37.21,15.5,35,15.5L35,15.5z" style="fill:#9E9E9E;"/>
      </g>
      <g>
        <circle cx="43" cy="10.5" r="3.5" style="fill:#FFFF00;"/>
        <path d="M43,7.5c1.66,0,3,1.34,3,3s-1.34,3-3,3c-1.66,0-3-1.34-3-3S41.34,7.5,43,7.5 M43,6.5 c-2.21,0-4,1.79-4,4s1.79,4,4,4s4-1.79,4-4S45.21,6.5,43,6.5L43,6.5z" style="fill:#9E9E9E;"/>
      </g>
      <g>
        <circle cx="43" cy="19.5" r="3.5" style="fill:#FFFF00;"/>
        <path d="M43,16.5c1.66,0,3,1.34,3,3s-1.34,3-3,3c-1.66,0-3-1.34-3-3S41.34,16.5,43,16.5 M43,15.5 c-2.21,0-4,1.79-4,4s1.79,4,4,4s4-1.79,4-4S45.21,15.5,43,15.5L43,15.5z" style="fill:#9E9E9E;"/>
      </g>
    </g>
    <linearGradient id="SVGID_19_" gradientUnits="userSpaceOnUse" x1="97" x2="97" y1="4.375" y2="27.9228">
      <stop offset="0" style="stop-color:#9E9E9E"/>
      <stop offset="1" style="stop-color:#616161"/>
    </linearGradient>
    <path d="M112,26H82c-2.21,0-4-1.79-4-4V8c0-2.21,1.79-4,4-4h30c2.21,0,4,1.79,4,4v14 C116,24.21,114.21,26,112,26z" style="fill:url(#SVGID_19_);"/>
    <g>
      <g>
        <circle cx="85" cy="10.5" r="3.5" style="fill:#FFFF00;"/>
        <path d="M85,7.5c1.66,0,3,1.34,3,3s-1.34,3-3,3s-3-1.34-3-3S83.34,7.5,85,7.5 M85,6.5c-2.21,0-4,1.79-4,4 s1.79,4,4,4s4-1.79,4-4S87.21,6.5,85,6.5L85,6.5z" style="fill:#9E9E9E;"/>
      </g>
      <g>
        <circle cx="85" cy="19.5" r="3.5" style="fill:#FFFF00;"/>
        <path d="M85,16.5c1.66,0,3,1.34,3,3s-1.34,3-3,3s-3-1.34-3-3S83.34,16.5,85,16.5 M85,15.5 c-2.21,0-4,1.79-4,4s1.79,4,4,4s4-1.79,4-4S87.21,15.5,85,15.5L85,15.5z" style="fill:#9E9E9E;"/>
      </g>
      <g>
        <circle cx="93" cy="10.5" r="3.5" style="fill:#FFFF00;"/>
        <path d="M93,7.5c1.66,0,3,1.34,3,3s-1.34,3-3,3c-1.66,0-3-1.34-3-3S91.34,7.5,93,7.5 M93,6.5 c-2.21,0-4,1.79-4,4s1.79,4,4,4c2.21,0,4-1.79,4-4S95.21,6.5,93,6.5L93,6.5z" style="fill:#9E9E9E;"/>
      </g>
      <g>
        <circle cx="93" cy="19.5" r="3.5" style="fill:#FFFF00;"/>
        <path d="M93,16.5c1.66,0,3,1.34,3,3s-1.34,3-3,3c-1.66,0-3-1.34-3-3S91.34,16.5,93,16.5 M93,15.5 c-2.21,0-4,1.79-4,4s1.79,4,4,4c2.21,0,4-1.79,4-4S95.21,15.5,93,15.5L93,15.5z" style="fill:#9E9E9E;"/>
      </g>
      <g>
        <circle cx="101" cy="10.5" r="3.5" style="fill:#FFFF00;"/>
        <path d="M101,7.5c1.66,0,3,1.34,3,3s-1.34,3-3,3c-1.66,0-3-1.34-3-3S99.34,7.5,101,7.5 M101,6.5 c-2.21,0-4,1.79-4,4s1.79,4,4,4c2.21,0,4-1.79,4-4S103.21,6.5,101,6.5L101,6.5z" style="fill:#9E9E9E;"/>
      </g>
      <g>
        <circle cx="101" cy="19.5" r="3.5" style="fill:#FFFF00;"/>
        <path d="M101,16.5c1.66,0,3,1.34,3,3s-1.34,3-3,3c-1.66,0-3-1.34-3-3S99.34,16.5,101,16.5 M101,15.5 c-2.21,0-4,1.79-4,4s1.79,4,4,4c2.21,0,4-1.79,4-4S103.21,15.5,101,15.5L101,15.5z" style="fill:#9E9E9E;"/>
      </g>
      <g>
        <circle cx="109" cy="10.5" r="3.5" style="fill:#FFFF00;"/>
        <path d="M109,7.5c1.66,0,3,1.34,3,3s-1.34,3-3,3c-1.66,0-3-1.34-3-3S107.34,7.5,109,7.5 M109,6.5 c-2.21,0-4,1.79-4,4s1.79,4,4,4c2.21,0,4-1.79,4-4S111.21,6.5,109,6.5L109,6.5z" style="fill:#9E9E9E;"/>
      </g>
      <g>
        <circle cx="109" cy="19.5" r="3.5" style="fill:#FFFF00;"/>
        <path d="M109,16.5c1.66,0,3,1.34,3,3s-1.34,3-3,3c-1.66,0-3-1.34-3-3S107.34,16.5,109,16.5 M109,15.5 c-2.21,0-4,1.79-4,4s1.79,4,4,4c2.21,0,4-1.79,4-4S111.21,15.5,109,15.5L109,15.5z" style="fill:#9E9E9E;"/>
      </g>
    </g>
    <g style="opacity:0.2;">
      <path d="M64,98c5.51,0,10,4.49,10,10v13.61c-2.3,0.15-6.37,0.39-9.86,0.39l-0.22,0 c-5.21-0.01-8.27-0.18-9.92-0.31V108C54,102.49,58.49,98,64,98 M64,96L64,96c-6.63,0-12,5.37-12,12v15.49 c0,0,2.58,0.49,11.92,0.51c0.07,0,0.15,0,0.22,0c5.34,0,11.86-0.53,11.86-0.53V108C76,101.37,70.63,96,64,96L64,96z" style="fill:#424242;"/>
    </g>
    <g style="opacity:0.2;">
      <path d="M119,87.57v6h-2v-6H119 M119,86.57h-2c-0.55,0-1,0.45-1,1v6c0,0.55,0.45,1,1,1h2c0.55,0,1-0.45,1-1 v-6C120,87.02,119.55,86.57,119,86.57L119,86.57z" style="fill:#424242;"/>
    </g>
    <g style="opacity:0.2;">
      <path d="M108.33,93.82v6h-2v-6H108.33 M108.33,92.82h-2c-0.55,0-1,0.45-1,1v6c0,0.55,0.45,1,1,1h2 c0.55,0,1-0.45,1-1v-6C109.33,93.27,108.89,92.82,108.33,92.82L108.33,92.82z" style="fill:#424242;"/>
    </g>
    <g style="opacity:0.2;">
      <path d="M97.67,97.49v6h-2v-6H97.67 M97.67,96.49h-2c-0.55,0-1,0.45-1,1v6c0,0.55,0.45,1,1,1h2 c0.55,0,1-0.45,1-1v-6C98.67,96.93,98.22,96.49,97.67,96.49L97.67,96.49z" style="fill:#424242;"/>
    </g>
    <g style="opacity:0.2;">
      <path d="M87,100v6h-2v-6H87 M87,99h-2c-0.55,0-1,0.45-1,1v6c0,0.55,0.45,1,1,1h2c0.55,0,1-0.45,1-1v-6 C88,99.45,87.55,99,87,99L87,99z" style="fill:#424242;"/>
    </g>
    <g style="opacity:0.2;">
      <path d="M11,87.57v6H9v-6H11 M11,86.57H9c-0.55,0-1,0.45-1,1v6c0,0.55,0.45,1,1,1h2c0.55,0,1-0.45,1-1v-6 C12,87.02,11.55,86.57,11,86.57L11,86.57z" style="fill:#424242;"/>
    </g>
    <g style="opacity:0.2;">
      <path d="M21.67,93.82v6h-2v-6H21.67 M21.67,92.82h-2c-0.55,0-1,0.45-1,1v6c0,0.55,0.45,1,1,1h2 c0.55,0,1-0.45,1-1v-6C22.67,93.27,22.22,92.82,21.67,92.82L21.67,92.82z" style="fill:#424242;"/>
    </g>
    <g style="opacity:0.2;">
      <path d="M32.33,97.49v6h-2v-6H32.33 M32.33,96.49h-2c-0.55,0-1,0.45-1,1v6c0,0.55,0.45,1,1,1h2 c0.55,0,1-0.45,1-1v-6C33.33,96.93,32.89,96.49,32.33,96.49L32.33,96.49z" style="fill:#424242;"/>
    </g>
    <g style="opacity:0.2;">
      <path d="M43,100v6h-2v-6H43 M43,99h-2c-0.55,0-1,0.45-1,1v6c0,0.55,0.45,1,1,1h2c0.55,0,1-0.45,1-1v-6 C44,99.45,43.55,99,43,99L43,99z" style="fill:#424242;"/>
    </g>
    <g style="opacity:0.2;">
      <path d="M46,6c1.1,0,2,0.9,2,2v14c0,1.1-0.9,2-2,2H16c-1.1,0-2-0.9-2-2V8c0-1.1,0.9-2,2-2H46 M46,4H16 c-2.21,0-4,1.79-4,4v14c0,2.21,1.79,4,4,4h30c2.21,0,4-1.79,4-4V8C50,5.79,48.21,4,46,4L46,4z" style="fill:#424242;"/>
    </g>
    <g style="opacity:0.2;">
      <path d="M112,6c1.1,0,2,0.9,2,2v14c0,1.1-0.9,2-2,2H82c-1.1,0-2-0.9-2-2V8c0-1.1,0.9-2,2-2H112 M112,4H82 c-2.21,0-4,1.79-4,4v14c0,2.21,1.79,4,4,4h30c2.21,0,4-1.79,4-4V8C116,5.79,114.21,4,112,4L112,4z" style="fill:#424242;"/>
    </g>
  </g>
</svg>