<svg xmlns="http://www.w3.org/2000/svg" viewBox="0 0 128 128"><path d="M90.47 42.88c10.77-8.09 17.79-20.92 17.79-35.39H90.51C90.51 22.1 78.61 34 64 34 49.38 34 37.49 22.1 37.49 7.49H19.75c0 14.47 7.01 27.3 17.79 35.39-10.77 8.08-17.79 20.91-17.79 35.39 0 24.39 19.85 44.25 44.25 44.25s44.25-19.85 44.25-44.25c0-14.49-7.01-27.32-17.78-35.39zM64 104.76c-14.62 0-26.51-11.89-26.51-26.5 0-14.62 11.89-26.51 26.51-26.51 14.61 0 26.51 11.89 26.51 26.51 0 14.62-11.9 26.5-26.51 26.5z" fill="#fcc21b"/></svg>