<?xml version="1.0" encoding="utf-8"?>
<!-- Generator: Adobe Illustrator 19.2.1, SVG Export Plug-In . SVG Version: 6.00 Build 0)  -->
<svg version="1.1" id="レイヤー_1" xmlns="http://www.w3.org/2000/svg" xmlns:xlink="http://www.w3.org/1999/xlink" x="0px"
	 y="0px" viewBox="0 0 128 128" style="enable-background:new 0 0 128 128;" xml:space="preserve">
<path style="fill:#455A64;" d="M83.4,124.77c0,3.18-3.59,3.33-8.02,3.33h-1.16c-4.43,0-8.02-0.14-8.02-3.33v-24.42
	c0-3.18,3.59-5.77,8.02-5.77h1.16c4.43,0,8.02,2.58,8.02,5.77V124.77z"/>
<g>
	<defs>
		<path id="SVGID_1_" d="M83.4,124.77c0,3.18-3.59,3.33-8.02,3.33h-1.16c-4.43,0-8.02-0.14-8.02-3.33v-24.42
			c0-3.18,3.59-5.77,8.02-5.77h1.16c4.43,0,8.02,2.58,8.02,5.77V124.77z"/>
	</defs>
	<clipPath id="SVGID_2_">
		<use xlink:href="#SVGID_1_"  style="overflow:visible;"/>
	</clipPath>
	<rect x="65.78" y="95.47" style="clip-path:url(#SVGID_2_);fill:#37474F;" width="7.22" height="32.63"/>
	<path style="clip-path:url(#SVGID_2_);fill:#CFD8DC;" d="M80.87,129.93c0,1.18-0.95,2.13-2.13,2.14l0,0
		c-1.18,0-2.13-0.95-2.14-2.13L76.55,101c0-1.18,0.95-2.13,2.13-2.14l0,0c1.18,0,2.13,0.95,2.14,2.13L80.87,129.93z"/>
</g>
<g>
	
		<rect x="64.94" y="85.27" transform="matrix(0.9754 -0.2203 0.2203 0.9754 -18.8243 18.5301)" style="fill:#546E7A;" width="17.42" height="16.76"/>
	
		<ellipse transform="matrix(0.9754 -0.2203 0.2203 0.9754 -18.1927 20.3546)" style="fill:#546E7A;" cx="82.14" cy="91.73" rx="3.73" ry="8.38"/>
	
		<ellipse transform="matrix(0.9754 -0.2203 0.2203 0.9754 -19.4558 16.7056)" style="fill:#546E7A;" cx="65.15" cy="95.56" rx="3.73" ry="8.38"/>
	
		<ellipse transform="matrix(0.9754 -0.2203 0.2203 0.9754 -19.4558 16.7056)" style="fill:#37474F;" cx="65.15" cy="95.56" rx="1.48" ry="5.03"/>
	<g>
		<defs>
			
				<rect id="SVGID_3_" x="60.16" y="82.03" transform="matrix(0.9754 -0.2203 0.2203 0.9754 -17.7092 18.573)" width="28.49" height="13.27"/>
		</defs>
		<clipPath id="SVGID_4_">
			<use xlink:href="#SVGID_3_"  style="overflow:visible;"/>
		</clipPath>
		<path style="clip-path:url(#SVGID_4_);fill:#455A64;" d="M80.26,83.56L63.27,87.4c2.01-0.45,4.47,2.84,5.49,7.35
			c1.02,4.51,0.22,8.54-1.79,8.99l16.99-3.84c2.01-0.45,2.81-4.48,1.79-8.99C84.73,86.4,82.27,83.11,80.26,83.56z"/>
	</g>
</g>
<g>
	<path style="fill:#B0BEC5;" d="M95.05,58.13c4.23,13.99-3.66,26.02-16.71,29.96l-5.51,1.66c-13.04,3.94-26.29-1.7-30.52-15.7
		l-12.48-41.3C25.61,18.78,33.5,6.75,46.54,2.81l5.51-1.66c13.04-3.94,26.3,1.7,30.53,15.69L95.05,58.13z"/>
	<g>
		<defs>
			<path id="SVGID_5_" d="M95.06,58.13c4.23,14-3.66,26.03-16.7,29.97l-5.51,1.66c-13.04,3.94-26.3-1.7-30.52-15.7l-12.48-41.3
				c-4.23-14,3.66-26.03,16.7-29.97l5.51-1.66c13.04-3.94,26.3,1.7,30.53,15.7L95.06,58.13z"/>
		</defs>
		<clipPath id="SVGID_6_">
			<use xlink:href="#SVGID_5_"  style="overflow:visible;"/>
		</clipPath>
	</g>
	<g>
		<defs>
			<path id="SVGID_7_" d="M95.05,58.13c4.23,13.99-3.66,26.02-16.71,29.96l-5.51,1.66c-13.04,3.94-26.29-1.7-30.52-15.7l-12.48-41.3
				C25.61,18.78,33.5,6.75,46.54,2.81l5.51-1.66c13.04-3.94,26.3,1.7,30.53,15.69L95.05,58.13z"/>
		</defs>
		<clipPath id="SVGID_8_">
			<use xlink:href="#SVGID_7_"  style="overflow:visible;"/>
		</clipPath>
		<g style="clip-path:url(#SVGID_8_);">
			<path style="fill:#90A4AE;" d="M74.73,61.54c7.08,23.44,5.51,32.88-5.3,36.14l-3.47,1.05c-8.2,2.48-18.65-8.11-24.41-27.17
				L30.55,35.12c-5.26-17.41-2.09-30.94,6.11-33.41l3.47-1.05c8.2-2.48,16.44,0.77,23.59,24.44L74.73,61.54z"/>
		</g>
	</g>
	<path style="fill:#455A64;" d="M66.56,21.58c0.34,1.13-0.3,2.32-1.42,2.66l-22.75,6.87c-1.13,0.34-2.32-0.3-2.66-1.42l0,0
		c-0.34-1.13,0.3-2.32,1.42-2.66l22.75-6.87C65.03,19.82,66.22,20.45,66.56,21.58L66.56,21.58z"/>
	<path style="fill:#455A64;" d="M70.17,33.54c0.34,1.13-0.3,2.32-1.42,2.66L46,43.07c-1.13,0.34-2.32-0.3-2.66-1.42l0,0
		c-0.34-1.13,0.3-2.32,1.42-2.66l22.75-6.87C68.64,31.78,69.83,32.41,70.17,33.54L70.17,33.54z"/>
	<path style="fill:#455A64;" d="M73.78,45.5c0.34,1.13-0.3,2.32-1.42,2.66l-22.75,6.87c-1.13,0.34-2.32-0.3-2.66-1.42l0,0
		c-0.34-1.13,0.3-2.32,1.42-2.66l22.75-6.87C72.25,43.74,73.44,44.38,73.78,45.5L73.78,45.5z"/>
	<path style="fill:#455A64;" d="M77.4,57.46c0.34,1.13-0.3,2.32-1.42,2.66L53.23,67c-1.13,0.34-2.32-0.3-2.66-1.42l0,0
		c-0.34-1.13,0.3-2.32,1.42-2.66l22.75-6.87C75.87,55.7,77.06,56.34,77.4,57.46L77.4,57.46z"/>
	<path style="fill:#455A64;" d="M81.01,69.43c0.34,1.13-0.3,2.32-1.42,2.66l-22.75,6.87c-1.13,0.34-2.32-0.3-2.66-1.42l0,0
		c-0.34-1.13,0.3-2.32,1.42-2.66L78.35,68C79.48,67.66,80.67,68.3,81.01,69.43L81.01,69.43z"/>
	<g>
		<defs>
			<path id="SVGID_9_" d="M95.05,58.13c4.23,13.99-3.66,26.03-16.7,29.97l-5.51,1.66c-13.04,3.94-26.29-1.7-30.52-15.7l-12.48-41.3
				C25.61,18.77,33.49,6.74,46.54,2.8l5.51-1.66c13.04-3.94,26.3,1.7,30.53,15.7L95.05,58.13z"/>
		</defs>
		<clipPath id="SVGID_10_">
			<use xlink:href="#SVGID_9_"  style="overflow:visible;"/>
		</clipPath>
		<path style="clip-path:url(#SVGID_10_);fill:#455A64;" d="M101.83,6.27c0.53,1.05,0.1,2.33-0.95,2.86L79.64,19.78
			c-1.05,0.53-2.33,0.1-2.86-0.95l0,0c-0.53-1.05-0.1-2.33,0.95-2.86L98.97,5.32C100.03,4.8,101.31,5.22,101.83,6.27L101.83,6.27z"
			/>
		<path style="clip-path:url(#SVGID_10_);fill:#455A64;" d="M105.36,18.07c0.53,1.05,0.1,2.33-0.95,2.86L83.16,31.58
			c-1.05,0.53-2.33,0.1-2.86-0.95l0,0c-0.53-1.05-0.1-2.33,0.95-2.86l21.24-10.65C103.55,16.59,104.83,17.01,105.36,18.07
			L105.36,18.07z"/>
		<path style="clip-path:url(#SVGID_10_);fill:#455A64;" d="M108.89,29.86c0.53,1.05,0.1,2.33-0.95,2.86L86.69,43.37
			c-1.05,0.53-2.33,0.1-2.86-0.95l0,0c-0.53-1.05-0.1-2.33,0.95-2.86l21.24-10.65C107.08,28.38,108.36,28.8,108.89,29.86
			L108.89,29.86z"/>
		<path style="clip-path:url(#SVGID_10_);fill:#455A64;" d="M112.41,41.65c0.53,1.05,0.1,2.33-0.95,2.86L90.22,55.16
			c-1.05,0.53-2.33,0.1-2.86-0.95l0,0c-0.53-1.05-0.1-2.33,0.95-2.86l21.24-10.65C110.6,40.17,111.88,40.59,112.41,41.65
			L112.41,41.65z"/>
		<path style="clip-path:url(#SVGID_10_);fill:#455A64;" d="M115.94,53.44c0.53,1.05,0.1,2.33-0.95,2.86L93.74,66.95
			c-1.05,0.53-2.33,0.1-2.86-0.95l0,0c-0.53-1.05-0.1-2.33,0.95-2.86l21.24-10.65C114.13,51.96,115.41,52.38,115.94,53.44
			L115.94,53.44z"/>
	</g>
	<g>
		<defs>
			<path id="SVGID_11_" d="M95.06,58.12c4.23,13.99-3.66,26.03-16.7,29.97l-5.51,1.66c-13.04,3.94-26.29-1.7-30.52-15.7l-12.48-41.3
				C25.62,18.76,33.5,6.73,46.55,2.79l5.51-1.66c13.04-3.94,26.3,1.7,30.53,15.7L95.06,58.12z"/>
		</defs>
		<clipPath id="SVGID_12_">
			<use xlink:href="#SVGID_11_"  style="overflow:visible;"/>
		</clipPath>
		<path style="clip-path:url(#SVGID_12_);fill:#455A64;" d="M34.69,31.48c0.23,1.16-0.52,2.28-1.68,2.51L9.7,38.61
			c-1.16,0.23-2.28-0.52-2.51-1.68l0,0c-0.23-1.16,0.52-2.28,1.68-2.51l23.31-4.63C33.33,29.57,34.46,30.32,34.69,31.48L34.69,31.48
			z"/>
		<path style="clip-path:url(#SVGID_12_);fill:#455A64;" d="M38.25,43.39c0.23,1.16-0.52,2.28-1.68,2.51l-23.31,4.63
			c-1.16,0.23-2.28-0.52-2.51-1.68l0,0c-0.23-1.16,0.52-2.28,1.68-2.51l23.31-4.63C36.9,41.49,38.02,42.24,38.25,43.39L38.25,43.39z
			"/>
		<path style="clip-path:url(#SVGID_12_);fill:#455A64;" d="M41.81,55.31c0.23,1.16-0.52,2.28-1.68,2.51l-23.31,4.63
			c-1.16,0.23-2.28-0.52-2.51-1.68l0,0c-0.23-1.16,0.52-2.28,1.68-2.51l23.31-4.63C40.46,53.41,41.58,54.16,41.81,55.31L41.81,55.31
			z"/>
		<path style="clip-path:url(#SVGID_12_);fill:#455A64;" d="M45.38,67.23c0.23,1.16-0.52,2.28-1.68,2.51l-23.31,4.63
			c-1.16,0.23-2.28-0.52-2.51-1.68l0,0c-0.23-1.16,0.52-2.28,1.68-2.51l23.31-4.63C44.03,65.32,45.15,66.07,45.38,67.23L45.38,67.23
			z"/>
		<path style="clip-path:url(#SVGID_12_);fill:#455A64;" d="M48.94,79.15c0.23,1.16-0.52,2.28-1.68,2.51l-23.31,4.63
			c-1.16,0.23-2.28-0.52-2.51-1.68l0,0c-0.23-1.16,0.52-2.28,1.68-2.51l23.31-4.63C47.59,77.24,48.71,77.99,48.94,79.15L48.94,79.15
			z"/>
	</g>
	<path style="fill:#FFFFFF;" d="M85.74,58.75c0.34,1.13-0.3,2.32-1.42,2.66l0,0c-1.13,0.34-2.32-0.3-2.66-1.42L69.77,20.62
		c-0.34-1.13,0.3-2.32,1.42-2.66l0,0c1.13-0.34,2.32,0.3,2.66,1.42L85.74,58.75z"/>
	<path style="fill:#FFFFFF;" d="M88.29,67.22c0.34,1.12-0.3,2.31-1.42,2.65l0,0c-1.12,0.34-2.31-0.3-2.65-1.42l0,0
		c-0.34-1.12,0.3-2.31,1.42-2.65l0,0C86.76,65.46,87.95,66.1,88.29,67.22L88.29,67.22z"/>
</g>
</svg>
