<svg xmlns="http://www.w3.org/2000/svg" viewBox="0 0 128 128"><path d="M0 71.05V23.54c0-1.5 1.46-2.69 2.96-2.69h16.12c1.5 0 2.92 1.19 2.92 2.69v47.51H0z" fill="#78a3ad"/><path fill="#fff" d="M4 35.17h5.06v6.32H4zM12.85 35.17h5.06v6.32h-5.06zM4 26.23h5.06v6.32H4zM12.85 49.03h5.06v6.32h-5.06z"/><g fill="#fff"><path d="M110 41.49h5.06v6.32H110zM118.85 41.49h5.06v6.32h-5.06zM118.85 57.98h5.06v6.32h-5.06zM110 50.97h5.06v6.32H110z"/></g><path d="M73.33 127.88V11.33c0-2.23 2.16-4 4.39-4h23.94c2.23 0 4.34 1.77 4.34 4v116.54H73.33zM112.08 127.88V35.33c0-2.23 2.16-4 4.39-4H128v96.54h-15.92z" fill="#78a3ad"/><path fill="#fff" d="M78 17.33h5.33V24H78zM87.33 17.33h5.33V24h-5.33zM78 27.33h5.33V34H78zM96.67 27.33H102V34h-5.33zM96.67 41.33H102V48h-5.33zM96.67 51.33H102V58h-5.33z"/><g><path d="M28.17 127.98V19.82c0-2.46 2.36-4.42 4.78-4.42h26.07c2.43 0 4.72 1.96 4.72 4.42v108.17H28.17z" fill="#78a3ad"/><path fill="#fff" d="M43.42 20.58h5.81v7.36h-5.81zM53.58 20.58h5.81v7.36h-5.81zM33.25 31.63h5.81v7.36h-5.81zM53.58 31.63h5.81v7.36h-5.81zM33.25 53.68h5.81v7.36h-5.81zM43.42 42.68h5.81v7.36h-5.81zM53.58 64.73h5.81v7.36h-5.81z"/><path d="M51.74 18.34H41.63a4.02 4.02 0 0 1-4.02-4.02v-.8c0-2.22 1.8-4.02 4.02-4.02h10.11c2.22 0 4.02 1.8 4.02 4.02v.8c0 2.22-1.8 4.02-4.02 4.02z" fill="#78a3ad"/></g><path fill="#78a3ad" d="M63.31 46H76v14H63.31z"/><g><path d="M49 127.98V61.54c0-1.91 1.86-3.43 3.77-3.43h21.5c1.91 0 3.72 1.52 3.72 3.43v66.44H49z" fill="#006ca2"/><path fill="#fff" d="M54 63.11h7v9h-7zM66 63.11h7v9h-7zM66 76.11h7v9h-7zM54 89.11h7v9h-7zM66 89.11h7v9h-7zM54 102.11h7v9h-7z"/><path d="M96 127.98H75V90.1h16.99A4.01 4.01 0 0 1 96 94.11v33.87z" fill="#006ca2"/></g><g><path d="M88 127.98V45.1c0-2.68 2.61-4.82 5.29-4.82l29.49-.18c2.68 0 5.22 2.13 5.22 4.82v83.06H88z" fill="#006ca2"/><path fill="#fff" d="M106 52.1h6v7h-6zM95 52.1h6v7h-6zM117 63.1h6v7h-6zM106 63.1h6v7h-6zM106 74.1h6v7h-6zM95 74.1h6v7h-6zM117 85.1h6v7h-6zM106 85.1h6v7h-6zM95 85.1h6v7h-6zM106 107.1h6v7h-6zM95 96.1h6v7h-6z"/></g><g><path d="M27.11 47.5H14.28c-1.67 0-3.02-.74-3.02-2.41v-3.62c0-1.67 1.35-3.02 3.02-3.02h12.83c1.67 0 3.02 1.35 3.02 3.02v3.62c0 1.67-1.35 2.41-3.02 2.41z" fill="#006ca2"/><path d="M0 127.96V50c0-2.68 2.61-4.82 5.29-4.82L34.78 45c2.68 0 5.22 2.13 5.22 4.82v78.14H0z" fill="#006ca2"/><path fill="#fff" d="M18 52.75h6v7h-6zM29 52.59h6v7h-6zM6.92 63.59h6v7h-6zM18 63.75h6v7h-6zM18 74.75h6v7h-6zM29 85.75h6v7h-6zM7 85.75h6v7H7zM29 107.75h6v7h-6zM18 107.75h6v7h-6zM7 96.75h6v7H7z"/></g></svg>