<?xml version="1.0" encoding="utf-8"?>
<!-- Generator: Adobe Illustrator 19.2.1, SVG Export Plug-In . SVG Version: 6.00 Build 0)  -->
<svg version="1.1" id="レイヤー_1" xmlns="http://www.w3.org/2000/svg" xmlns:xlink="http://www.w3.org/1999/xlink" x="0px"
	 y="0px" viewBox="0 0 128 128" style="enable-background:new 0 0 128 128;" xml:space="preserve">
<path style="fill:#1F1F1F;" d="M120.42,34.03c-1.84-7.02-12.82,2.06-26.3,5.16c-18.75,4.3-41.43,4.03-60.25,0
	C19.41,36.1,9.42,27.02,7.58,34.03c-1.98,7.54,5.34,14.09,13.45,17.25c0.19,0.08,0.43,0.14,0.64,0.22
	c2.6,8.06,5.99,19.64,7.11,28.56c2.89,22.8,20.77,30.89,35.22,30.89c14.45,0,32.33-8.09,35.22-30.89c1.13-8.93,4.51-20.5,7.11-28.56
	c0.21-0.08,0.44-0.14,0.65-0.22C115.1,48.12,122.4,41.57,120.42,34.03z"/>
<g>
	<path style="fill:#B3386A;" d="M97.92,49.95c-0.27-2.75-2.01-3.26-4.16-2.96c-2.71,7.91-3.93,29.77-9.91,39.51
		c-6.6,10.75-15.11,11-21.85,11c-5.67,0-13.05-0.67-21.09-5.01c3.89,6.01,9.78,9.21,18.37,10.11c1.5,0.16,3.06,0.25,4.73,0.28
		c1.67-0.03,3.26-0.12,4.76-0.28c10.08-1.08,16.46-5.3,20.21-13.55c1.97-4.33,4.2-15.67,5.56-23.38c0.8-4.5,2.03-8.65,2.79-11.44
		c0.32-1.18,0.54-2.1,0.61-2.7c0.02-0.08,0.04-0.21,0.04-0.27C97.99,50.77,97.98,50.34,97.92,49.95z"/>
	<path style="fill:#B3386A;" d="M58.05,53.76c0.13,0.24,0.25,0.51,0.37,0.79c0.29,0.74,0.59,1.87,0.87,3.23
		c1.2,5.91,2.09,16.19,2.36,17.99c0.08,0.59,0.33,4.42,2.35,4.42c2.02,0,2.27-3.83,2.35-4.42c0.26-1.8,1.14-12.08,2.35-17.99
		c0.28-1.36,0.57-2.49,0.87-3.23c0.11-0.29,0.25-0.55,0.37-0.79c0.77-1.5,1.76-2.19,4.22-2.61c0,0-6.66,0.8-10.16,0.8
		s-10.16-0.8-10.16-0.8C56.3,51.57,57.28,52.26,58.05,53.76z"/>
	<path style="fill:#CC4079;" d="M92.98,47.12c-1.94,0.41-14.42,3.27-18.81,4.02c-2.47,0.42-3.46,1.11-4.22,2.61
		c-0.12,0.24-0.25,0.51-0.37,0.79c-0.3,0.74-0.59,1.87-0.87,3.23c-1.2,5.91-2.08,16.19-2.35,17.99c-0.08,0.59-0.33,4.42-2.35,4.42
		c-2.02,0-2.27-3.83-2.35-4.42c-0.27-1.8-1.16-12.08-2.36-17.99c-0.27-1.36-0.57-2.49-0.87-3.23c-0.12-0.29-0.25-0.55-0.37-0.79
		c-0.77-1.5-1.75-2.19-4.21-2.61c-4.39-0.75-16.88-3.61-18.81-4.02c-2.5-0.53-4.65-0.26-4.97,2.83c-0.03,0.39-0.06,0.82-0.03,1.31
		c0,0.06,0.02,0.17,0.03,0.24c0.07,0.6,0.29,1.53,0.62,2.73c0.74,2.79,1.98,6.94,2.79,11.44c1.35,7.71,3.57,19.05,5.56,23.38
		c0.56,1.24,1.2,2.38,1.88,3.44C48.95,96.83,56.33,97.5,62,97.5c6.75,0,15.25-0.25,21.85-11c5.98-9.74,7.2-31.6,9.91-39.51
		C93.5,47.02,93.24,47.07,92.98,47.12z"/>
</g>
</svg>
