<?xml version="1.0" encoding="utf-8"?>
<!-- Generator: Adobe Illustrator 16.0.0, SVG Export Plug-In . SVG Version: 6.00 Build 0)  -->
<!DOCTYPE svg PUBLIC "-//W3C//DTD SVG 1.1//EN" "http://www.w3.org/Graphics/SVG/1.1/DTD/svg11.dtd">
<svg version="1.1" id="レイヤー_1" xmlns="http://www.w3.org/2000/svg" xmlns:xlink="http://www.w3.org/1999/xlink" x="0px"
	 y="0px" width="128px" height="128px" viewBox="0 0 128 128" enable-background="new 0 0 128 128" xml:space="preserve">
<g>
	<path fill="#78A3AD" d="M115.01,63.33c-1.45-32.39-5.43-50-5.6-50.73c-0.2-0.87-0.75-1.61-1.52-2.06
		c-0.77-0.45-1.69-0.55-2.54-0.28c-3.85,1.19-7.98,2.22-12.24,3.12L90.78,2.62C90.43,1,88.9-0.1,87.24,0.13
		c-52.9,6.8-74.4,25.13-75.3,25.91c-0.75,0.65-1.15,1.62-1.09,2.61c0.01,0.19,1.24,19.21,5.39,50.12
		c4.33,32.22,9.6,45.95,9.82,46.52l0.01,0c0,0.01,0.01,0.02,0.02,0.03c0.12,0.3,0.29,0.57,0.5,0.82c0.04,0.05,0.08,0.1,0.12,0.15
		c0.22,0.23,0.46,0.43,0.74,0.59c0.06,0.03,0.12,0.06,0.18,0.09c0.1,0.05,0.2,0.11,0.31,0.15c0.11,0.04,0.22,0.03,0.33,0.06
		c0.11,0.03,0.21,0.09,0.32,0.11c2.88,0.41,6.57,0.62,10.96,0.62l0,0c26.8,0,72.95-7.51,74.9-7.82c1.59-0.26,2.74-1.66,2.68-3.26
		C117.13,116.6,116.4,94.39,115.01,63.33z"/>
	<g>
		<path fill="#2F2F2F" d="M115.01,63.33c-1.45-32.39-5.43-50-5.6-50.73c-0.2-0.87-0.75-1.61-1.52-2.06
			c-0.77-0.45-1.69-0.55-2.54-0.28c-3.85,1.19-7.98,2.22-12.24,3.12L90.78,2.62C90.43,1,88.9-0.1,87.24,0.13
			c-52.9,6.8-74.4,25.13-75.3,25.91c-0.75,0.65-1.15,1.62-1.09,2.61c0.01,0.19,1.24,19.21,5.39,50.12
			c4.33,32.22,9.6,45.95,9.82,46.52l0.01,0c0,0.01,0.01,0.02,0.02,0.03c0.12,0.3,0.29,0.57,0.5,0.82c0.04,0.05,0.08,0.1,0.12,0.15
			c0.22,0.23,0.46,0.43,0.74,0.59c0.06,0.03,0.12,0.06,0.18,0.09c0.1,0.05,0.2,0.11,0.31,0.15c0.11,0.04,0.22,0.03,0.33,0.06
			c0.11,0.03,0.21,0.09,0.32,0.11c2.88,0.41,6.57,0.62,10.96,0.62l0,0c26.8,0,72.95-7.51,74.9-7.82c1.59-0.26,2.74-1.66,2.68-3.26
			C117.13,116.6,116.4,94.39,115.01,63.33z M103.83,17.36c1.2,6.52,3.72,22.42,4.78,46.25c0.46,10.1,0.84,19.23,1.15,27L94.45,19.63
			C97.67,18.95,100.81,18.2,103.83,17.36z M22.6,77.91c-3.42-25.45-4.84-42.74-5.23-47.99c1.23-0.9,3.42-2.4,6.64-4.24
			c3.3-1.88,7.69-4.1,13.24-6.41c11.08-4.58,26.81-9.46,47.9-12.41l1.66,7.73l1.35,6.26l17.03,78.94
			c-11.43,1.59-47.96,7.35-73.04,19.19c-0.42,0.2-0.83,0.39-1.24,0.59c-1.25-4.09-3.39-12.02-5.61-24.31
			C24.4,90.23,23.48,84.47,22.6,77.91z M42.61,121.47c28.3-11.05,66.38-15.72,66.82-15.77c0.32-0.04,0.61-0.14,0.9-0.26
			c0.14,3.8,0.25,6.79,0.32,8.77C100.57,115.77,65.41,121.01,42.61,121.47z"/>
	</g>
	<path fill="#2F2F2F" d="M68.94,50.7c-2.76,0.82-6.23,1.37-7.15,4.52c-0.79,2.7-0.05,5.82,0.32,8.53c0.72,5.13,2.45,10.4,3.98,15.35
		c0.33,1.07,0.75,2.14,1.14,3.12c1.3,3.18,5.98,2.29,8.5,1.61c5.01-1.35,10.24-2.64,14.92-4.95c0.88-0.44,1.39-0.96,2.01-1.73
		c0.92-1.18,0.74-3.23,0.35-5.14c-0.95-4.53-1.89-9.07-2.87-13.6c-0.71-3.3-0.98-8.17-3.73-10.54c-1.62-1.4-3.41-0.93-5.4-0.55
		C76.93,48.09,72.91,49.52,68.94,50.7z"/>
	<path fill="#2F2F2F" d="M28.35,59.63c0.9-0.31,1.79-0.66,2.68-1c4.59-1.76,9.1-3.85,13.65-5.81c4.85-1.66,9.71-3.29,14.37-5.15
		l0.01-0.01c3.53-1.18,6.72-2.59,10.71-3.27c3.78-0.64,9.62-2.18,12.94-4.16c2.16-1.3,0.73-4.63-1.7-4.02
		c-4.22,1.06-8.42,1.89-12.51,3.57c-2.25,0.92-5.19,1.01-7.6,1.37c-2.3,0.34-4.03,1.75-6.07,2.72c-5.14,1.02-10.38,4.05-15,5.79
		c-2.26,0.85-5.81,1.65-8.91,2.89c-1.89,0.75-3.62,1.67-4.77,2.85c-0.29,0.24-0.54,0.52-0.71,0.85l-0.04,0.05
		c-0.74,1.15-0.19,2.23,0.75,2.74C26.73,59.59,27.51,59.93,28.35,59.63z"/>
	<path fill="#2F2F2F" d="M31.26,70.94c0.32-0.11,0.62-0.24,0.88-0.35c1.57-0.69,3.34-1.02,4.86-1.8c2.16-1.12,4.06-1.63,6.33-2.42
		c3.76-1.31,7.53-2.68,11.14-4.39c2.49-1.17,0.6-4.55-1.75-4.14c-4.54,0.79-8.57,3.43-13.06,4.28c-2.51,0.48-4.24,2.14-6.61,2.84
		c-0.7,0.21-1.31,0.39-1.9,0.58c-1.1,0.36-2.09,0.79-3.16,1.7c-1.13,0.96-1.08,2.56-0.02,3.56C28.79,71.57,30.15,71.32,31.26,70.94z
		"/>
	<path fill="#2F2F2F" d="M36.26,81.88c1.55-0.55,3.33-0.85,4.79-1.63c1.93-1.03,5.61-2.38,7.75-2.99c1.8-0.51,3.38-1.28,5.1-1.99
		c2.21-0.9,2-4.13-0.57-4.26c-2.14-0.11-3.76,1.07-5.79,1.65c-2.98,0.85-6.08,2.14-8.87,3.5c-2.26,1.1-5.16,1.56-7.25,2.98
		c-0.91,0.62-1.67,1.39-2.14,2.51c-0.42,1.01,0.11,2.27,1.25,2.29c0.33,0,0.66-0.04,0.99-0.1C33.16,83.51,34.68,82.44,36.26,81.88z"
		/>
	<path fill="#2F2F2F" d="M31.74,96.76c0.74,0.57,1.74,0.82,2.8,0.35c7.7-3.44,16.01-5.61,23.49-9.51c1.93-1,1.13-4.48-1.15-4.24
		c-3.7,0.39-7.65,2.35-11.01,3.9c-4.57,2.1-9.36,3.41-13.93,5.39c-0.1,0.04-0.17,0.1-0.26,0.15C30.01,93.72,30.45,95.74,31.74,96.76
		z"/>
	<path fill="#2F2F2F" d="M91.75,88.68c-18.87,5.48-39.57,7.58-57.02,17.3c-1.91,1.07-0.61,4.33,1.51,3.58
		c9.54-3.37,19.09-6.89,28.9-9.34c9.25-2.31,18.78-3.88,27.97-6.63C96.26,92.66,94.92,87.76,91.75,88.68z"/>
	<path fill="#2F2F2F" d="M82.52,26.56c0.57-0.15,0.91-0.74,0.76-1.3c-0.15-0.57-0.74-0.92-1.31-0.76
		c-20.06,5.31-40.65,13.1-51.26,17.33c-2.99,1.19-5.19,2.1-6.36,2.58c-0.6,0.25-0.94,0.4-0.97,0.41c-0.54,0.23-0.8,0.86-0.56,1.4
		c0.17,0.4,0.57,0.65,0.98,0.65l0.42-0.08c0.01,0,0.08-0.03,0.17-0.08c0.6-0.25,2.86-1.2,6.35-2.6
		C41.07,39.98,62.08,31.98,82.52,26.56z"/>
	<path fill="#2F2F2F" d="M36.43,32.62c4.33,0.33,8.43-3.4,12.53-4.31c3.9-0.87,7.81-2.6,11.67-3.97c0.61-0.21,1.22-0.44,1.82-0.63
		c3.6-1.12,1.95-6.89-1.55-5.61c-3.78,1.39-7.68,2.55-11.53,3.7c-2.36,0.7-4.55,2.41-7.07,2.6c-0.99,0.08-1.83,0.62-2.65,1.2
		c-0.99,0.68-1.98,1.4-3.22,1.38C32.75,26.9,32.85,32.35,36.43,32.62z"/>
</g>
</svg>
