<?xml version="1.0" encoding="utf-8"?>
<!-- Generator: Adobe Illustrator 16.0.0, SVG Export Plug-In . SVG Version: 6.00 Build 0)  -->
<!DOCTYPE svg PUBLIC "-//W3C//DTD SVG 1.1//EN" "http://www.w3.org/Graphics/SVG/1.1/DTD/svg11.dtd">
<svg version="1.1" id="レイヤー_1" xmlns="http://www.w3.org/2000/svg" xmlns:xlink="http://www.w3.org/1999/xlink" x="0px"
	 y="0px" width="128px" height="128px" viewBox="0 0 128 128" enable-background="new 0 0 128 128" xml:space="preserve">
<g>
	<g>
		<g>
			<defs>
				<path id="SVGID_1_" d="M112.7,37.63c0,0-0.01,0-0.02,0C102.61,23.9,83.67,14.58,64,14.58c-19.68,0-38.62,9.32-48.68,23.05
					l-0.02,0c0,0-14.97,12.2-14.97,31.25C0.33,88.37,13,97.64,13,97.64l0.05,0.01c5.52,9.04,26.21,15.77,50.94,15.77
					c24.74,0,45.41-6.73,50.93-15.77c0.02,0,0.06-0.02,0.06-0.02s12.69-9.26,12.69-28.76C127.67,49.84,112.7,37.63,112.7,37.63z"/>
			</defs>
			<use xlink:href="#SVGID_1_"  overflow="visible" fill="#FCC21B"/>
			<clipPath id="SVGID_2_">
				<use xlink:href="#SVGID_1_"  overflow="visible"/>
			</clipPath>
			<g clip-path="url(#SVGID_2_)">
				<g>
					<path fill="#FCC21B" d="M36.26,93.27C20.85,98.8,3.87,91-1.73,75.8C-7.32,60.62,0.6,43.8,15.99,38.25
						c15.35-5.52,32.38,2.3,38,17.49C59.56,70.94,51.62,87.75,36.26,93.27z"/>
					<path fill="#FCC01C" d="M35.83,92.12C21.07,97.42,4.8,89.94-0.56,75.38C-5.92,60.84,1.66,44.72,16.41,39.4
						c14.71-5.29,31.02,2.21,36.41,16.76C58.16,70.73,50.55,86.83,35.83,92.12z"/>
					<path fill="#FCBE1C" d="M35.41,90.97C21.29,96.03,5.73,88.88,0.6,74.96c-5.12-13.9,2.13-29.32,16.24-34.41
						C30.9,35.5,46.5,42.66,51.65,56.58C56.76,70.51,49.48,85.91,35.41,90.97z"/>
					<path fill="#FBBB1D" d="M34.98,89.82C21.51,94.65,6.66,87.83,1.77,74.54C-3.12,61.27,3.8,46.56,17.26,41.7
						c13.42-4.82,28.31,2.01,33.23,15.3C55.36,70.29,48.41,84.99,34.98,89.82z"/>
					<path fill="#FBB91E" d="M34.56,88.67c-12.82,4.6-26.96-1.9-31.62-14.55c-4.65-12.63,1.94-26.64,14.75-31.26
						c12.78-4.59,26.95,1.92,31.64,14.56C53.96,70.08,47.35,84.07,34.56,88.67z"/>
					<path fill="#FBB71E" d="M34.13,87.51C21.96,91.88,8.52,85.71,4.1,73.7c-4.42-12,1.84-25.3,14.01-29.69
						c12.14-4.36,25.6,1.82,30.05,13.83C52.56,69.86,46.28,83.15,34.13,87.51z"/>
					<path fill="#FBB51F" d="M33.71,86.36C22.18,90.5,9.46,84.66,5.27,73.28C1.08,61.92,7.01,49.32,18.53,45.16
						c11.5-4.13,24.24,1.73,28.46,13.1C51.16,69.64,45.21,82.23,33.71,86.36z"/>
					<path fill="#FAB220" d="M33.29,85.21C22.4,89.12,10.39,83.6,6.43,72.86C2.48,62.13,8.08,50.24,18.96,46.31
						c10.85-3.9,22.89,1.63,26.86,12.37C49.76,69.42,44.14,81.31,33.29,85.21z"/>
					<path fill="#FAB020" d="M32.86,84.06C22.62,87.73,11.32,82.54,7.6,72.44C3.88,62.35,9.15,51.16,19.38,47.46
						c10.21-3.67,21.53,1.53,25.27,11.64C48.36,69.21,43.08,80.39,32.86,84.06z"/>
					<path fill="#FAAE21" d="M32.44,82.91c-9.6,3.44-20.19-1.42-23.67-10.89c-3.48-9.46,1.45-19.94,11.04-23.4
						c9.57-3.44,20.18,1.44,23.68,10.9C46.96,68.99,42.01,79.47,32.44,82.91z"/>
					<path fill="#FAAC22" d="M32.01,81.76c-8.95,3.21-18.83-1.33-22.08-10.16c-3.25-8.82,1.35-18.6,10.3-21.83
						c8.93-3.21,18.82,1.34,22.09,10.17C45.56,68.77,40.94,78.55,32.01,81.76z"/>
					<path fill="#F9A922" d="M31.59,80.6c-8.31,2.98-17.47-1.23-20.49-9.43c-3.02-8.19,1.26-17.26,9.56-20.26
						c8.28-2.98,17.47,1.24,20.5,9.44C44.16,68.55,39.88,77.63,31.59,80.6z"/>
					<path fill="#F9A723" d="M31.16,79.45c-7.66,2.75-16.12-1.14-18.9-8.7c-2.78-7.55,1.16-15.92,8.81-18.69
						c7.64-2.75,16.11,1.15,18.91,8.71C42.76,68.34,38.81,76.71,31.16,79.45z"/>
					<path fill="#F9A524" d="M30.74,78.3c-7.02,2.52-14.76-1.04-17.31-7.96c-2.55-6.92,1.06-14.58,8.07-17.12
						c7-2.52,14.77,1.04,17.32,7.97C41.37,68.11,37.74,75.79,30.74,78.3z"/>
					<path fill="#F9A324" d="M30.32,77.15c-6.37,2.28-13.41-0.95-15.72-7.23c-2.32-6.28,0.96-13.24,7.33-15.54
						c6.36-2.29,13.41,0.95,15.73,7.24C39.97,67.9,36.67,74.86,30.32,77.15z"/>
					<path fill="#F8A025" d="M29.89,76c-5.73,2.05-12.05-0.85-14.13-6.5c-2.08-5.64,0.87-11.91,6.59-13.97
						c5.71-2.05,12.06,0.85,14.14,6.51C38.57,67.68,35.61,73.94,29.89,76z"/>
					<path fill="#F89E26" d="M29.47,74.85c-5.08,1.82-10.7-0.76-12.54-5.77c-1.85-5.01,0.77-10.57,5.85-12.4
						c5.07-1.82,10.7,0.75,12.55,5.77C37.17,67.46,34.54,73.02,29.47,74.85z"/>
					<path fill="#F89C26" d="M29.04,73.7c-4.44,1.59-9.34-0.66-10.95-5.04c-1.61-4.37,0.67-9.23,5.11-10.83
						c4.43-1.59,9.35,0.66,10.96,5.04C35.77,67.25,33.47,72.1,29.04,73.7z"/>
					<path fill="#F89A27" d="M28.62,72.54c-3.79,1.36-7.98-0.57-9.36-4.31c-1.38-3.74,0.58-7.89,4.36-9.26
						c3.79-1.36,7.99,0.56,9.37,4.31C34.37,67.03,32.41,71.18,28.62,72.54z"/>
					<path fill="#F79728" d="M28.19,71.39c-3.15,1.13-6.63-0.47-7.77-3.58c-1.15-3.1,0.48-6.55,3.62-7.68
						c3.14-1.13,6.63,0.47,7.78,3.58C32.97,66.81,31.34,70.26,28.19,71.39z"/>
					<path fill="#F79528" d="M27.77,70.24c-2.5,0.89-5.27-0.38-6.18-2.84c-0.91-2.47,0.38-5.21,2.88-6.11
						c2.5-0.9,5.28,0.37,6.19,2.85C31.57,66.6,30.27,69.34,27.77,70.24z"/>
					<path fill="#F79329" d="M27.34,69.09c-1.86,0.66-3.92-0.28-4.59-2.11c-0.68-1.83,0.28-3.87,2.14-4.54
						c1.86-0.67,3.91,0.28,4.6,2.11C30.16,66.38,29.2,68.42,27.34,69.09z"/>
				</g>
			</g>
			<g clip-path="url(#SVGID_2_)">
				<g>
					<path fill="#FCC21B" d="M112.34,93.27C96.93,98.8,79.94,91,74.35,75.8c-5.59-15.17,2.32-31.99,17.72-37.55
						c15.35-5.52,32.38,2.3,38,17.49C135.63,70.94,127.69,87.75,112.34,93.27z"/>
					<path fill="#FCC01C" d="M111.91,92.12c-14.76,5.3-31.04-2.18-36.4-16.74c-5.35-14.54,2.22-30.65,16.98-35.98
						c14.71-5.29,31.02,2.21,36.41,16.76C134.23,70.73,126.63,86.83,111.91,92.12z"/>
					<path fill="#FCBE1C" d="M111.49,90.97c-14.12,5.07-29.68-2.09-34.81-16.01c-5.12-13.9,2.13-29.32,16.24-34.41
						c14.07-5.05,29.66,2.11,34.82,16.03C132.83,70.51,125.56,85.91,111.49,90.97z"/>
					<path fill="#FBBB1D" d="M111.06,89.82c-13.47,4.83-28.32-1.99-33.22-15.28c-4.89-13.27,2.03-27.98,15.49-32.84
						c13.42-4.82,28.31,2.01,33.23,15.3C131.43,70.29,124.49,84.99,111.06,89.82z"/>
					<path fill="#FBB91E" d="M110.64,88.67c-12.83,4.6-26.97-1.9-31.63-14.55c-4.65-12.63,1.93-26.64,14.75-31.26
						c12.78-4.59,26.95,1.92,31.64,14.56C130.03,70.08,123.42,84.07,110.64,88.67z"/>
					<path fill="#FBB71E" d="M110.21,87.51c-12.18,4.37-25.61-1.8-30.04-13.82c-4.42-12,1.84-25.3,14.01-29.69
						c12.14-4.36,25.6,1.82,30.04,13.83C128.63,69.86,122.36,83.15,110.21,87.51z"/>
					<path fill="#FBB51F" d="M109.79,86.36c-11.54,4.14-24.26-1.71-28.45-13.08c-4.18-11.36,1.74-23.96,13.27-28.12
						c11.5-4.13,24.24,1.73,28.45,13.1C127.23,69.64,121.29,82.23,109.79,86.36z"/>
					<path fill="#FAB220" d="M109.36,85.21c-10.89,3.91-22.9-1.61-26.86-12.35c-3.95-10.73,1.64-22.62,12.53-26.55
						c10.85-3.9,22.89,1.63,26.86,12.37C125.83,69.42,120.22,81.31,109.36,85.21z"/>
					<path fill="#FAB020" d="M108.94,84.06c-10.25,3.68-21.54-1.52-25.27-11.62c-3.72-10.09,1.55-21.28,11.79-24.98
						c10.21-3.67,21.53,1.53,25.27,11.64C124.43,69.21,119.15,80.39,108.94,84.06z"/>
					<path fill="#FAAE21" d="M108.52,82.91c-9.6,3.44-20.19-1.42-23.68-10.89c-3.48-9.46,1.45-19.94,11.04-23.4
						c9.57-3.44,20.18,1.44,23.68,10.9C123.03,68.99,118.09,79.47,108.52,82.91z"/>
					<path fill="#FAAC22" d="M108.09,81.76C99.14,84.97,89.26,80.43,86,71.6c-3.25-8.82,1.35-18.6,10.3-21.83
						c8.93-3.21,18.82,1.34,22.09,10.17C121.63,68.77,117.02,78.55,108.09,81.76z"/>
					<path fill="#F9A922" d="M107.67,80.6c-8.31,2.98-17.48-1.23-20.5-9.43c-3.01-8.19,1.26-17.26,9.56-20.26
						c8.28-2.98,17.47,1.24,20.5,9.44C120.23,68.55,115.95,77.63,107.67,80.6z"/>
					<path fill="#F9A723" d="M107.24,79.45c-7.67,2.75-16.12-1.14-18.91-8.7c-2.78-7.55,1.16-15.92,8.82-18.69
						c7.64-2.75,16.11,1.15,18.91,8.71C118.83,68.34,114.88,76.71,107.24,79.45z"/>
					<path fill="#F9A524" d="M106.82,78.3c-7.02,2.52-14.76-1.04-17.32-7.96c-2.55-6.92,1.06-14.58,8.08-17.12
						c7-2.52,14.76,1.05,17.32,7.97C117.43,68.12,113.82,75.79,106.82,78.3z"/>
					<path fill="#F9A324" d="M106.39,77.15c-6.38,2.28-13.41-0.95-15.73-7.23c-2.31-6.28,0.97-13.24,7.34-15.54
						c6.36-2.29,13.4,0.95,15.73,7.24C116.04,67.9,112.75,74.86,106.39,77.15z"/>
					<path fill="#F8A025" d="M105.97,76c-5.73,2.05-12.05-0.85-14.14-6.5c-2.08-5.64,0.87-11.91,6.59-13.97
						c5.71-2.05,12.05,0.86,14.14,6.51C114.64,67.69,111.68,73.94,105.97,76z"/>
					<path fill="#F89E26" d="M105.54,74.85c-5.08,1.82-10.7-0.76-12.55-5.77c-1.85-5.01,0.77-10.57,5.85-12.4
						c5.07-1.82,10.69,0.76,12.55,5.77C113.24,67.47,110.61,73.02,105.54,74.85z"/>
					<path fill="#F89C26" d="M105.12,73.7c-4.44,1.59-9.34-0.66-10.96-5.04c-1.61-4.37,0.68-9.23,5.11-10.83
						c4.43-1.59,9.34,0.66,10.96,5.04C111.84,67.25,109.55,72.1,105.12,73.7z"/>
					<path fill="#F89A27" d="M104.7,72.54c-3.8,1.36-7.99-0.57-9.37-4.31c-1.38-3.74,0.58-7.89,4.37-9.26
						c3.79-1.36,7.98,0.57,9.37,4.31C110.44,67.03,108.48,71.18,104.7,72.54z"/>
					<path fill="#F79728" d="M104.27,71.39c-3.15,1.13-6.63-0.47-7.78-3.58c-1.14-3.1,0.48-6.55,3.63-7.68
						c3.14-1.13,6.63,0.47,7.78,3.58C109.04,66.82,107.41,70.26,104.27,71.39z"/>
					<path fill="#F79528" d="M103.85,70.24c-2.51,0.89-5.27-0.38-6.19-2.84c-0.91-2.47,0.39-5.21,2.89-6.11
						c2.5-0.9,5.27,0.37,6.18,2.85C107.64,66.6,106.34,69.34,103.85,70.24z"/>
					<path fill="#F79329" d="M103.42,69.09c-1.86,0.66-3.92-0.28-4.6-2.11c-0.68-1.83,0.29-3.87,2.14-4.54
						c1.86-0.67,3.92,0.28,4.59,2.11C106.24,66.38,105.27,68.42,103.42,69.09z"/>
				</g>
			</g>
		</g>
		<g>
			<path fill="#FFFFFF" d="M38.84,86.42c-2.86,5-9.27,6.77-14.34,3.95c-0.29-0.16-0.54-0.37-0.79-0.56
				c-3.16,1.91-7.23,2.17-10.69,0.25c-5.05-2.82-6.84-9.18-3.98-14.18c0.06-0.11,0.16-0.2,0.23-0.31
				c-1.66-3.04-1.77-6.82,0.08-10.05c2.86-5,9.29-6.76,14.33-3.95c2.07,1.16,3.56,2.92,4.44,4.92c3.99-1.54,8.97-4.47,14.56-9.99
				c0,0-1.24,7.88-7.72,15.81C39.93,75.18,41.67,81.46,38.84,86.42z"/>
			<path fill="#FFFFFF" d="M116.59,89.34c-3.46,1.92-7.52,1.66-10.68-0.25c-0.27,0.18-0.51,0.39-0.8,0.56
				c-5.06,2.82-11.49,1.05-14.34-3.95c-2.83-4.96-1.09-11.24,3.89-14.1c-6.49-7.94-7.72-15.81-7.72-15.81
				c5.58,5.52,10.56,8.44,14.55,9.98c0.88-1.99,2.36-3.76,4.43-4.91c5.06-2.82,11.48-1.06,14.33,3.95c1.85,3.23,1.74,7,0.09,10.04
				c0.07,0.11,0.17,0.2,0.23,0.32C123.44,80.16,121.64,86.52,116.59,89.34z"/>
		</g>
		<path fill="#2F2F2F" d="M84.07,64.53c-0.48,0.4-1.06,0.6-1.63,0.6c-0.72,0-1.43-0.31-1.94-0.89c-0.18-0.21-4.97-5.32-15.54-5.1
			c-10.7,0.28-14.59,4.75-14.75,4.94c-0.9,1.05-2.48,1.2-3.54,0.33c-1.06-0.87-1.24-2.44-0.38-3.51c0.21-0.26,5.31-6.46,18.54-6.8
			c13.28-0.44,19.29,6.59,19.53,6.88C85.26,62.04,85.13,63.63,84.07,64.53z"/>
	</g>
	<g>
		<path fill="#2F2F2F" d="M73.56,41.14c0-0.88,0.12-1.71,0.3-2.51c1.72-0.47,3.52-1.13,5.35-2.22c1.85-1.11,3.39-2.23,4.77-3.37
			c2.19,1.58,3.67,4.59,3.67,8.1c0,5.11-3.14,9.25-7.04,9.25C76.71,50.39,73.56,46.25,73.56,41.14z"/>
	</g>
	<g>
		<path fill="#2F2F2F" d="M55.9,41.14c0-0.88-0.12-1.71-0.3-2.51c-1.72-0.47-3.52-1.13-5.34-2.22c-1.86-1.11-3.39-2.23-4.77-3.37
			c-2.19,1.58-3.67,4.59-3.67,8.1c0,5.11,3.14,9.25,7.04,9.25C52.75,50.39,55.9,46.25,55.9,41.14z"/>
	</g>
</g>
</svg>
