<svg xmlns="http://www.w3.org/2000/svg" viewBox="0 0 128 128">
  <g>
    <path fill="url(#a)" d="M-13.83 27.67c-9.2 0-16.67 7.46-16.67 16.67l2 63c0 9.2 7.46 16.67 16.67 16.67h71.67c9.2 0 16.67-7.46 16.67-16.67l2-63c-.01-9.21-7.47-16.67-16.68-16.67z" transform="translate(40)"/>
    <path fill="#424242" d="M101.83 30.67c7.52 0 13.64 6.11 13.67 13.62l-2 62.95v.1c0 7.54-6.13 13.67-13.67 13.67H28.17c-7.54 0-13.67-6.13-13.67-13.67v-.1l-2-62.95c.02-7.51 6.15-13.62 13.67-13.62h75.66m0-3H26.17c-9.2 0-16.67 7.46-16.67 16.67l2 63c0 9.2 7.46 16.67 16.67 16.67h71.67c9.2 0 16.67-7.46 16.67-16.67l2-63c-.01-9.21-7.47-16.67-16.68-16.67z" opacity=".2"/>
  </g>
  <g>
    <path fill="url(#b)" d="M-4.79 18.75L-35.8 52l-31.49-33.25 6.94-11.79s4.64-2.88 24.06-2.88c19.42 0 24.61 2.83 24.61 2.83z" transform="translate(100)"/>
    <path fill="#424242" d="M63.71 7.08c14.36 0 20.6 1.59 22.53 2.23l5.25 9.02-27.31 29.29-27.74-29.29 5.3-9.01c1.75-.63 7.66-2.24 21.97-2.24m0-3c-19.42 0-24.06 2.88-24.06 2.88l-6.94 11.79L64.2 52l31.01-33.25-6.9-11.84s-5.19-2.83-24.6-2.83z" opacity=".2"/>
    <path fill="none" stroke="#424242" stroke-linecap="round" stroke-linejoin="round" stroke-miterlimit="10" d="M36 25.5s11.63-3.29 27.67-3.29S92 25.5 92 25.5" opacity=".2"/>
  </g>
  <linearGradient id="b" x1="63.957" x2="63.957" y1="-3.029" y2="36.583" gradientTransform="translate(-100)" gradientUnits="userSpaceOnUse">
    <stop offset=".392" stop-color="#eee"/>
    <stop offset="1" stop-color="#BDBDBD"/>
  </linearGradient>
  <defs>
    <linearGradient id="a" x1="64" x2="64" y1="30.135" y2="123.21" gradientTransform="translate(-40)" gradientUnits="userSpaceOnUse">
      <stop offset=".392" stop-color="#fbfbfb"/>
      <stop offset=".996" stop-color="#e1e1e1"/>
    </linearGradient>
  </defs>
  <g>
    <path fill="#ed6c30" d="M85.02 103.56c-2.22-11.46-12.8-42.09-12.8-42.09s12.5-9.21 12.5-21.46S64 39.99 64 39.99 42.26 27.26 42.26 40s13.49 21.46 13.49 21.46-10.56 30.64-12.79 42.09C41.71 110.03 59.39 126.4 64 126.4c4.61 0 22.27-16.37 21.02-22.84z"/>
    <path fill="#ffa726" d="M45.355 42.03a5 5 0 0 0-2.853.866c.554 3.456 2.035 6.548 3.82 9.176 2.125.085 9.754.631 17.719 4.553 2.758 1.358 4.91 2.821 6.588 4.207-4.328 1.339-10.624 3.797-17.38 8.078a798.756 798.756 0 0 0-4.86 15.018 73.115 73.115 0 0 1 6.558-5.324c8.268-5.947 15.808-8.555 19.807-9.631a1015.38 1015.38 0 0 0-2.533-7.502s3.354-2.487 6.588-6.573a40.96 40.96 0 0 0-10.35-7.244C56.793 41.91 45.355 42.03 45.355 42.03zm32.842 37.488c-5.026 1.473-13.296 4.586-21.865 10.75a81.095 81.095 0 0 0-13.037 11.736c-.118.53-.243 1.078-.334 1.547-.404 2.094 1.181 5.223 3.652 8.498 2.722-3.593 7.597-9.17 14.975-14.477 7.862-5.655 15.118-8.305 19.273-9.484-.867-2.865-1.76-5.74-2.664-8.57zm5.776 19.511a73.861 73.861 0 0 0-18.08 9.508 81.332 81.332 0 0 0-12.387 11.006c2.52 2.325 5.055 4.296 7.121 5.521a72.734 72.734 0 0 1 10.521-9.22 65.606 65.606 0 0 1 12.35-7.004c1.156-2.039 1.79-3.892 1.522-5.28-.25-1.283-.615-2.836-1.047-4.53z"/>
    <path fill="#424242" fill-opacity=".078" d="M47.9 37.34c4.6 0 12.08 3.79 14.58 5.24.47.27.99.41 1.52.41s1.06-.14 1.53-.42c2.36-1.4 9.45-5.02 13.81-5.02 1.89 0 2.38.5 2.38 2.45 0 10.56-11.17 18.97-11.28 19.05a3.004 3.004 0 0 0-1.06 3.39c.11.3 10.54 30.57 12.69 41.69 0 .01.24 1.45-2.5 5.31-4.91 6.91-13.33 13.48-15.57 13.94-2.25-.46-10.68-7.04-15.59-13.95-2.74-3.85-2.5-5.29-2.5-5.3 2.16-11.12 12.57-41.38 12.68-41.69a3 3 0 0 0-1.2-3.49c-.12-.08-12.12-8.02-12.12-18.95 0-.62.08-1.72.59-2.17.36-.32 1.08-.49 2.04-.49m0-3c-3.22 0-5.64 1.42-5.64 5.67 0 12.74 13.49 21.46 13.49 21.46s-10.56 30.64-12.79 42.09C41.71 110.03 59.39 126.4 64 126.4c4.61 0 22.27-16.37 21.02-22.83-2.22-11.46-12.8-42.09-12.8-42.09s12.5-9.21 12.5-21.46c0-4.09-2.3-5.45-5.38-5.45C73.2 34.56 64 39.99 64 39.99s-9.66-5.65-16.1-5.65z"/>
  </g>
  <defs>
    <path id="c" d="M85.02 103.56c-2.22-11.46-12.8-42.09-12.8-42.09s12.5-9.21 12.5-21.46S64 39.99 64 39.99 42.26 27.26 42.26 40s13.49 21.46 13.49 21.46-10.56 30.64-12.79 42.09C41.71 110.03 59.39 126.4 64 126.4s22.27-16.37 21.02-22.84z"/>
  </defs>
  <linearGradient id="d" x1="63.957" x2="63.957" y1="71.572" y2="49.423" gradientTransform="matrix(1 0 0 .996 0 .166)" gradientUnits="userSpaceOnUse">
    <stop offset=".447" stop-color="#757575" stop-opacity="0"/>
    <stop offset=".815" stop-color="#424242"/>
  </linearGradient>
  <g>
    <path fill="url(#d)" d="M89.21 61.99s-12.35-6.1-25.42-6.1c-13.07 0-25.08 6.1-25.08 6.1V39.93h50.5z" opacity=".2"/>
    <g>
      <path fill="#f5f5f5" d="M27.91 19.64c-2.71 3.55-3.44 8.08-1.96 12.21l9.03 29.91c.82 2.68 4.52 3.43 6.47 1.31L63.8 40.1S48.36 28.78 43.93 21.5c-4.43-7.28-4.25-14.65-4.25-14.65z"/>
      <path fill="#424242" d="M37.54 13.61c.65 2.78 1.8 6.12 3.83 9.45 3.54 5.82 13.15 13.68 17.92 17.38l-20 20.54c-.02.02-.04.04-.06.07-.19.21-.45.25-.63.25-.25 0-.66-.11-.75-.4l-9.03-29.91a.578.578 0 0 0-.05-.14c-1.11-3.11-.57-6.57 1.44-9.28l7.33-7.96m2.14-6.76zm0 0L27.91 19.64c-2.71 3.55-3.44 8.08-1.96 12.21l9.03 29.91c.49 1.62 2.05 2.54 3.63 2.54 1.03 0 2.07-.39 2.84-1.23L63.8 40.1S48.36 28.78 43.93 21.5c-4.43-7.28-4.25-14.65-4.25-14.65z" opacity=".2"/>
    </g>
    <g>
      <path fill="#f5f5f5" d="M100.09 19.64c2.71 3.55 3.44 8.08 1.96 12.21l-9.03 29.91c-.82 2.68-4.52 3.43-6.47 1.31L64.2 40.1s15.44-11.32 19.87-18.6c4.43-7.28 4.25-14.65 4.25-14.65z"/>
      <path fill="#424242" d="M90.46 13.61l7.32 7.95c2.02 2.71 2.56 6.17 1.44 9.28-.02.05-.03.09-.05.14l-9.03 29.9c-.09.3-.5.41-.76.41-.18 0-.44-.04-.63-.25a.435.435 0 0 1-.06-.07L68.72 40.44c4.77-3.7 14.38-11.57 17.92-17.38 2.02-3.33 3.17-6.67 3.82-9.45m-2.14-6.76s.18 7.37-4.25 14.65S64.2 40.1 64.2 40.1l22.35 22.97c.77.84 1.81 1.23 2.84 1.23 1.58 0 3.13-.92 3.63-2.54l9.03-29.91c1.48-4.13.75-8.66-1.96-12.21z" opacity=".2"/>
    </g>
  </g>
</svg>
