<?xml version="1.0" encoding="utf-8"?>
<!-- Generator: Adobe Illustrator 24.0.3, SVG Export Plug-In . SVG Version: 6.00 Build 0)  -->
<svg version="1.1" id="Layer_2" xmlns="http://www.w3.org/2000/svg" xmlns:xlink="http://www.w3.org/1999/xlink" x="0px" y="0px"
	 viewBox="0 0 128 128" style="enable-background:new 0 0 128 128;" xml:space="preserve">
<linearGradient id="SVGID_1_" gradientUnits="userSpaceOnUse" x1="57.9489" y1="25.6284" x2="90.1968" y2="25.2265">
	<stop  offset="0.5086" style="stop-color:#F06292"/>
	<stop  offset="1" style="stop-color:#C2185B;stop-opacity:0.9665"/>
</linearGradient>
<path style="fill:url(#SVGID_1_);" d="M61.04,37.52c9.86-3.61,20.05-7.34,28.52-8.86c1.23-0.22,2.43-0.4,3.59-0.52
	c2.06-2.28,4.96-3.17,6.69-5.08c-3.22-0.11-6.73,0.17-10.51,0.85c-9,1.62-19.45,5.44-29.55,9.14c-16.18,5.92-31.47,11.82-40.71,7.94
	c-2.26-0.95-4.91-2.18-6.5-6.7c-3.35-9.56,9.36-22.02,15.59-23.97c17.61-5.5,20.8,12.99,20.8,12.99s1-0.47,0.81-3.94
	c-0.37-6.68-4.42-17.1-20.63-13.98C19.44,7.25,4.36,21.5,7.83,35.06c1.2,4.69,3.71,8.08,7.47,10.06
	C25.54,50.51,42.78,44.2,61.04,37.52z"/>
<linearGradient id="SVGID_2_" gradientUnits="userSpaceOnUse" x1="52.6458" y1="188.4987" x2="52.6458" y2="57.9383" gradientTransform="matrix(0.6734 0.6734 -0.6559 0.6559 77.3136 -20.5832)">
	<stop  offset="0" style="stop-color:#757575"/>
	<stop  offset="1" style="stop-color:#BDBDBD"/>
</linearGradient>
<path style="fill:url(#SVGID_2_);" d="M121.04,6.12c-2.76-2.61-6.57-3.26-11.94-0.15c-3.36,1.95-7.25,5.49-12.15,10.59
	c-8.18,8.5-74.37,82.47-91.08,101.78c-2.32,2.68-2.37,4.29-1.84,4.81c0.52,0.52,1.95,0.39,4.76-1.95
	c19.24-16.05,93.01-81.21,102.33-90.48c4.16-4.14,7.68-7.88,9.18-9.68C125.43,14.91,124.31,9.22,121.04,6.12z M96.65,36
	c-1.41,1.41-3.11,2.22-4.31,1.02s-1.03-3.34,0.38-4.76l17.79-17.79c1.41-1.41,3.55-1.58,4.76-0.38c1.2,1.2,0.59,2.71-0.82,4.12
	L96.65,36z"/>
<linearGradient id="SVGID_3_" gradientUnits="userSpaceOnUse" x1="116.4608" y1="4.0022" x2="-10.945" y2="140.0387">
	<stop  offset="0" style="stop-color:#FCE8B2"/>
	<stop  offset="1" style="stop-color:#FCE8B2;stop-opacity:0"/>
</linearGradient>
<path style="opacity:0.6;fill:url(#SVGID_3_);" d="M99.95,17.69c5.55-5.91,9.51-9.57,12.83-11.06c6.17-2.78,9.14,0.42,8.85,0.11
	c-2.64-2.85-6.28-4.14-12.09-1c-3.45,1.86-7.26,5.27-12.6,10.83c-8.16,8.51-74.62,82.69-91.08,101.78
	c-2.31,2.68-2.49,4.44-1.66,4.88C20.95,104.06,91.88,26.28,99.95,17.69z"/>
<linearGradient id="SVGID_4_" gradientUnits="userSpaceOnUse" x1="102.0469" y1="24.0113" x2="110.6535" y2="32.0324">
	<stop  offset="0" style="stop-color:#455A64"/>
	<stop  offset="0.8375" style="stop-color:#455A64;stop-opacity:0"/>
</linearGradient>
<path style="fill:url(#SVGID_4_);" d="M117.76,12.81c-2.57-1.59-4.91-0.9-7.36,1.53c0,0,0.19-0.1,0.48-0.19
	c1.4-1.15,3.32-1.24,4.44-0.12c1.2,1.2,0.53,2.77-0.88,4.18L96.65,36c-1.41,1.41-3.05,2.16-4.25,0.96c-1.2-1.2-1.03-3.34,0.38-4.76
	l0.57-0.57c0,0-6.17,4.07-2.18,8.17c2.11,2.16,5.88,0.96,7.39-0.6l19-19.52C119.07,18.13,120.34,14.41,117.76,12.81z"/>
<radialGradient id="SVGID_5_" cx="103.2703" cy="33.5733" r="8.2851" gradientTransform="matrix(0.3711 0.9286 -0.6257 0.25 85.9564 -70.7181)" gradientUnits="userSpaceOnUse">
	<stop  offset="0.374" style="stop-color:#212121;stop-opacity:0"/>
	<stop  offset="1" style="stop-color:#212121"/>
</radialGradient>
<path style="opacity:0.7;fill:url(#SVGID_5_);" d="M100.61,32.15c0,0,2.49,0.02,3.34,1.08s0.39,3.84,0.59,3.64
	c0.2-0.2,4.87-4.58,6.15-5.86c1.28-1.28-1.65-4.66-1.65-4.66h-2.73L100.61,32.15z"/>
<radialGradient id="SVGID_6_" cx="44.2261" cy="84.2583" r="18.5712" gradientTransform="matrix(0.9868 0.1618 -0.0723 0.4413 6.6777 39.9177)" gradientUnits="userSpaceOnUse">
	<stop  offset="0.475" style="stop-color:#212121;stop-opacity:0"/>
	<stop  offset="1" style="stop-color:#212121"/>
</radialGradient>
<path style="opacity:0.7;fill:url(#SVGID_6_);" d="M49.69,85.69l9.97-8.74l-13.82-3.76l-8.21,9.25
	C42.98,86.11,49.69,85.69,49.69,85.69z"/>
<linearGradient id="SVGID_7_" gradientUnits="userSpaceOnUse" x1="77.3822" y1="57.8392" x2="67.1776" y2="32.4521">
	<stop  offset="0.5086" style="stop-color:#F06292"/>
	<stop  offset="1" style="stop-color:#C2185B;stop-opacity:0.9665"/>
</linearGradient>
<path style="fill:url(#SVGID_7_);" d="M114.77,28.5c-5.15-5.3-13.17-5.3-13.17-5.3l-4.69,4.69c7.01-0.35,11.15,1.28,14.8,4.8
	c4.21,4.07,5.45,10.42,4.8,14.9c-3.5,24.26-36.17,28.31-36.5,28.35c-28.89,3.34-44.59-8.49-53.06-20.2c0,0-0.97,6.48,5.24,12.11
	c8.06,7.3,19.48,13.63,38.39,13.63c3.4,0,7.02-0.21,10.86-0.65c13.04-1.51,36.62-8.92,39.95-32.08
	C122.21,43.15,120.77,34.67,114.77,28.5z"/>
</svg>
