<svg xmlns="http://www.w3.org/2000/svg" viewBox="0 0 128 128"><path d="M64 118.51l-57.16-3.26A3.015 3.015 0 0 1 4 112.24V29.4c0-1.31.85-2.48 2.11-2.87L64 8.24v110.27z" fill="#2f2f2f"/><path d="M121.16 115.25L64 118.51V8.24l57.89 18.28c1.25.4 2.11 1.56 2.11 2.87v82.85c0 1.6-1.25 2.92-2.84 3.01z" fill="#454a4c"/><path fill="#fbc21a" d="M124 52.75l-60-13.1v-9.94l60 15.32z"/><path fill="#ffca28" d="M64 49.46V60.1l4.23.61V50.25z"/><path fill="none" d="M124 68.74l-60-8.66V49.47l60 11.13z"/><path d="M75.89 57.94c-.01 2.04-.95 3.55-2.08 3.37-1.14-.18-2.05-1.99-2.03-4.03.01-2.04.95-3.55 2.08-3.37 1.13.18 2.04 1.99 2.03 4.03z" fill="#ffca28"/><path d="M74.99 53.98c-.01 1.22-.53 2.12-1.18 2.01-.64-.11-1.16-1.18-1.15-2.4.01-1.22 1.18-2.01 1.18-2.01s1.16 1.18 1.15 2.4z" fill="#fbc21a"/><g fill="#fbc21a"><path d="M100.33 61.86c-.01 1.84-.85 3.19-1.87 3.03-1.02-.16-1.84-1.79-1.83-3.63.01-1.84.85-3.19 1.87-3.03 1.03.16 1.84 1.79 1.83 3.63z"/><path d="M99.53 58.29c-.01 1.09-.48 1.9-1.06 1.8-.58-.1-1.04-1.06-1.03-2.16.01-1.09 1.06-1.8 1.06-1.8s1.03 1.06 1.03 2.16z"/></g><g fill="#fbc21a"><path d="M120.36 65.06c-.01 1.63-.66 2.84-1.46 2.69-.8-.15-1.43-1.59-1.42-3.22s.66-2.84 1.46-2.69c.79.15 1.43 1.59 1.42 3.22z"/><path d="M119.73 61.9c-.01.97-.37 1.69-.82 1.6-.45-.09-.81-.94-.8-1.92s.82-1.6.82-1.6.81.94.8 1.92z"/></g><g fill="#fbc21a"><path d="M79.11 52.27v9.99l14.66 2.12v-9.39zM102.79 56.67v9.01l12.41 1.8v-8.51zM124 60.6l-1.44-.26v8.21l1.44.19z"/></g><path fill="#fbc21a" d="M64 49.46V60.1l4.23.61V50.25z"/><g><path fill="#f79329" d="M64 39.65L4 52.75v-7.72l60-15.32z"/><path fill="none" d="M64 60.08L4 68.74V60.6l60-11.13z"/><g fill="#f79329"><path d="M52.11 57.94c.01 2.04.95 3.55 2.08 3.37 1.14-.18 2.05-1.99 2.03-4.03-.01-2.04-.95-3.55-2.08-3.37-1.13.18-2.04 1.99-2.03 4.03z"/><path d="M53.01 53.98c.01 1.22.53 2.12 1.18 2.01.64-.11 1.16-1.18 1.15-2.4-.01-1.22-1.18-2.01-1.18-2.01s-1.16 1.18-1.15 2.4z"/></g><path d="M27.67 61.86c.01 1.84.85 3.19 1.87 3.03 1.02-.16 1.84-1.79 1.83-3.63-.01-1.84-.85-3.19-1.87-3.03s-1.84 1.79-1.83 3.63z" fill="#ff8f00"/><path d="M28.47 58.29c.01 1.09.48 1.9 1.06 1.8.58-.1 1.04-1.06 1.03-2.16-.01-1.09-1.06-1.8-1.06-1.8s-1.03 1.06-1.03 2.16z" fill="#f79329"/><path d="M7.64 65.06c.01 1.63.66 2.84 1.46 2.69.8-.15 1.43-1.59 1.42-3.22-.01-1.63-.66-2.84-1.46-2.69-.79.15-1.43 1.59-1.42 3.22z" fill="#ff8f00"/><path d="M8.27 61.9c.01.97.37 1.69.82 1.6.45-.09.81-.94.8-1.92s-.82-1.6-.82-1.6-.81.94-.8 1.92z" fill="#f79329"/><g><path fill="#f79329" d="M48.89 52.27v9.99l-14.66 2.12v-9.39zM25.21 56.67v9.01l-12.41 1.8v-8.51z"/><path fill="#ff8f00" d="M4 60.6l1.44-.26v8.21L4 68.74z"/></g><path fill="#f79329" d="M64 49.46l-4.19.78V60.7l4.19-.6z"/></g><path d="M64 33.67c-5.67 0-7.68 4.97-14.92 6.42-7.08 1.42-7.5-1.58-13.08-.42-5.64 1.18-4.88 4.71-10.38 5.71-5.53 1.01-5.46-1.71-10.79-.62-5.2 1.06-5.74 5.03-10.8 5.03" fill="none" stroke="#ffb300" stroke-width="2" stroke-miterlimit="10"/><path d="M64 33.67c5.67 0 7.68 4.97 14.92 6.42 7.08 1.42 7.5-1.58 13.08-.42 5.64 1.18 5.42 4.92 10.92 5.92 5.53 1.01 4.92-1.92 10.25-.83 5.2 1.06 5.74 5.03 10.8 5.03" fill="none" stroke="#ffa000" stroke-width="2" stroke-miterlimit="10"/></svg>