<?xml version="1.0" encoding="utf-8"?>
<!-- Generator: Adobe Illustrator 16.0.0, SVG Export Plug-In . SVG Version: 6.00 Build 0)  -->
<!DOCTYPE svg PUBLIC "-//W3C//DTD SVG 1.1//EN" "http://www.w3.org/Graphics/SVG/1.1/DTD/svg11.dtd">
<svg version="1.1" id="レイヤー_1" xmlns="http://www.w3.org/2000/svg" xmlns:xlink="http://www.w3.org/1999/xlink" x="0px"
	 y="0px" width="128px" height="128px" viewBox="0 0 128 128" enable-background="new 0 0 128 128" xml:space="preserve">
<g>
	<g>
		<g>
			<g>
				<path fill="#2F2F2F" d="M98.92,126.33c-13.4,0-24.31-10.9-24.31-24.3s10.91-24.3,24.31-24.3s24.3,10.9,24.3,24.3
					S112.32,126.33,98.92,126.33z M98.92,85.19c-9.28,0-16.83,7.55-16.83,16.83c0,9.28,7.55,16.83,16.83,16.83
					c9.28,0,16.83-7.55,16.83-16.83C115.75,92.75,108.2,85.19,98.92,85.19z"/>
				<path fill="#2F2F2F" d="M29.09,126.33c-13.4,0-24.31-10.9-24.31-24.3s10.91-24.3,24.31-24.3c13.4,0,24.3,10.9,24.3,24.3
					S42.49,126.33,29.09,126.33z M29.09,85.19c-9.28,0-16.84,7.55-16.84,16.83c0,9.28,7.57,16.83,16.84,16.83
					c9.28,0,16.83-7.55,16.83-16.83C45.92,92.75,38.37,85.19,29.09,85.19z"/>
				<path fill="#FCC21B" d="M77.7,75.82c-0.14,0-0.27-0.01-0.41-0.03l-37.93-5.48c-1.57-0.23-2.65-1.67-2.42-3.23
					c0.22-1.56,1.71-2.65,3.24-2.42l37.93,5.48c1.56,0.23,2.65,1.68,2.42,3.24C80.32,74.79,79.1,75.82,77.7,75.82z"/>
				<path fill="#FCC21B" d="M64.46,104.15c-0.9,0-1.77-0.43-2.31-1.17L37.46,69.16c-0.93-1.27-0.65-3.06,0.62-3.99
					s3.06-0.65,3.99,0.62l21.83,29.89l15.67-34.1c0.65-1.43,2.36-2.06,3.79-1.4c1.43,0.66,2.07,2.35,1.4,3.79l-17.71,38.53
					c-0.42,0.92-1.3,1.55-2.32,1.65C64.64,104.15,64.55,104.15,64.46,104.15z"/>
				<path fill="#FCC21B" d="M98.74,104.15H64.46c-1.57,0-2.85-1.28-2.85-2.86c0-1.58,1.28-2.85,2.85-2.85h28.6L75.4,74.66
					c-0.94-1.27-0.68-3.06,0.59-4c1.27-0.94,3.06-0.68,4,0.59l21.04,28.34c0.65,0.87,0.75,2.02,0.26,2.99
					C100.81,103.54,99.82,104.15,98.74,104.15z"/>
				<path fill-rule="evenodd" clip-rule="evenodd" fill="#2F2F2F" d="M89.05,56.98c-1.2-0.68-2.54-0.52-3.92-0.58
					c-1.67-0.08-3.35-0.16-5.03-0.26c-2.79-0.18-5.62,0.04-8.38-0.11c-1.6-0.09-3.13,1.1-3.68,2.53c-0.75,1.95,0.57,3.18,2.22,4.07
					c2.04,1.1,4.31,1.62,6.54,2.17c2.42,0.59,4.84,1.35,7.32,1.69c2.41,0.33,5.13-0.62,6.53-2.67c1.46-2.12,0.85-4.96-1.18-6.54
					C89.34,57.16,89.19,57.07,89.05,56.98z"/>
				<path fill-rule="evenodd" clip-rule="evenodd" fill="#2F2F2F" d="M65.89,100.89c-0.25,0.09-0.5,0.18-0.75,0.25
					c-0.99,0.3-2.06,0.5-3,0.91c-1.74,0.77-3.62,2.83-2.76,4.85c1.07,2.51,2.89,1.53,4.87,0.84c1.97-0.68,5.48-1.34,6.64-3.29
					c0.86-1.45-0.32-3.87-1.98-4.14C67.9,100.14,66.87,100.54,65.89,100.89z"/>
			</g>
		</g>
	</g>
	<path fill="#ED6C30" d="M13.32,123.95c1.3-0.73,2.72-1.19,4.02-1.93c1.64-0.93,3.42-2.15,5.41-1.91c1.55,0.18,3.13,0.89,4.64,1.3
		c1.75,0.47,3.5,1.04,5.28,1.38c2.3,0.44,5.1-0.7,7.27-1.35c2.73-0.82,5.42-1.83,8.26-2.26c1.62-0.25,2.69,0.39,4.19,0.85
		c2.59,0.79,5.24,1.23,7.85,1.9c3.81,0.97,7.1,0.22,10.8-1.08c1.28-0.45,2.77-1,4-1.25c2.08-0.42,4.48,0.58,6.5,1.05
		c1.52,0.35,3,0.6,4.53,0.73c0.84,0.08,1.65,0.27,2.49,0.31c0.82,0.04,1.51-0.25,2.27-0.5c2.13-0.72,4.16-1.75,6.2-2.72
		c1.3-0.61,2.17-0.3,3.38,0.24c1.42,0.63,2.93,1.03,4.4,1.56c1.34,0.48,2.67,1.3,4.1,1.47c1.47,0.18,2.69-1,4.02-1.4
		c1.57-0.47,3.03,0.34,4.36,1.16c1.2,0.74,2.59,1.19,3.69,2.07c1.87,1.49,0.26,1.69-1.42,1.89c-1.15,0.14-29.51,1.01-52.17,1.23
		c-10.2,0.1-47.5,0.08-52.23-0.55c-0.84-0.11-1.78-0.08-2.55-0.46C11.36,125.07,12.59,124.36,13.32,123.95z"/>
	<path fill="#FCC21B" d="M29.63,105.29c-0.25,0-0.49-0.03-0.74-0.1c-1.52-0.4-2.43-1.97-2.03-3.49l11.2-42.4
		c0.41-1.52,1.98-2.44,3.49-2.03c1.54,0.4,2.44,1.97,2.04,3.49l-11.2,42.4C32.05,104.45,30.89,105.29,29.63,105.29z"/>
	<path fill="#2F2F2F" d="M41.63,62.36c-0.22,0-0.44-0.03-0.67-0.08l-8.9-2.13c-1.54-0.37-2.48-1.91-2.11-3.45
		c0.37-1.53,1.91-2.47,3.45-2.11l8.9,2.13c1.53,0.37,2.48,1.91,2.11,3.45C44.09,61.48,42.92,62.36,41.63,62.36z"/>
	<circle fill-rule="evenodd" clip-rule="evenodd" fill="#2F2F2F" cx="32.29" cy="57.37" r="4"/>
	<path fill="#ED6C30" d="M39.48,30.73c-0.18-0.29-0.36-0.58-0.51-0.88c-4.69-8.81-1.7-18.11,5.24-21.7
		C54.14,3,63.34,7.81,66.01,14.23c0.74,1.77,1.28,3.63,1.42,5.54c0.11,1.38-0.46,2.98,0.21,4.28c0.72,1.4,2.75,2.3,4.16,2.85
		c7.09,2.77,13.91,8.55,17.07,15.54c2.3,5.07,2.46,11.16-0.29,16.05c-1.74,3.1-4.89,5.58-7.54,7.89c-1.3,1.13-2.47,2.2-3.68,3.46
		c-4.12,4.27-6.26,9.41-6.73,15.29c-0.26,3.2,0.22,6.4,0.03,9.6c-0.17,2.86-1.38,4.84-3.81,6.28c-3.76,2.23-9.82,5.41-12.76,0.17
		c-1.69-3,0.13-6.8,2.27-9.04c1.37-1.43,0.7-4.28,0.17-6.18c-1.35-4.88-0.13-11.25,1.91-15.78c2.46-5.48,8.15-11.65,4.58-17.98
		c-2.03-3.6-3.59-7.53-6.14-10.81c-3.09-3.96-5.47-3.61-9.86-4.99C44.06,35.45,41.2,33.37,39.48,30.73z"/>
	<path fill="#2F2F2F" d="M51.22,23.35c0.91,0.9,1.77,1.83,2.69,2.73c0.88,0.86,2.02,1.69,2.22,3c0.32,2.11-0.47,4.26-1.21,6.21
		c-0.1,0.29-0.29,0.58-0.36,0.88c0.74,0.37,1.66-0.58,2.16-0.98c1.13-0.9,1.86-2.17,2.3-3.52c0.4-1.2,0.26-2.78,0.86-3.88
		c0.22-0.4,0.59-0.71,0.86-1.08c0.95-1.35,1.52-2.87,2.23-4.34c0.28-0.57,0.47-1.23,0.62-1.84c0.07-0.3,0.2-0.92,0.03-1.22
		c-0.15-0.27-0.63-0.34-0.9-0.42c-0.15-0.05-1.64-0.52-1.7-0.29c-0.14,0.53-0.25,1.06-0.45,1.56c-0.11,0.27-0.17,0.55-0.25,0.83
		c-0.38,1.25-1.15,3.58-2.32,4.33c-0.32,0.21-0.6-0.11-0.83-0.34c-0.43-0.4-0.79-0.85-1.17-1.28c-0.73-0.85-1.45-1.77-2.27-2.54
		c-0.32-0.3-0.6-0.64-0.9-0.96c-0.23-0.25-0.37-0.49-0.77-0.45c-0.25,0.03-0.52,0.31-0.73,0.45c-0.45,0.31-0.93,0.57-1.32,0.98
		c-0.12,0.12-0.32,0.27-0.39,0.42c-0.11,0.23-0.07,0.13,0.1,0.3C50.23,22.37,50.72,22.86,51.22,23.35z"/>
	<path fill="#FCC21B" d="M45.01,2.77C43.21,3.55,41.55,4.62,40.12,6c-1.7,1.64-3.61,3.92-4.6,6.08c-0.98,2.12-1.49,4.51-1.49,6.85
		c0,1.27,0.06,4.65,1.35,5.43c0.68,0.42,1.89,0.18,2.6-0.03c1.33-0.41,2.62-0.91,4-1.2c1.01-0.21,2.01-0.52,2.99-0.83
		c1.54-0.48,2.72-0.75,4.23,0.01c0.52,0.26,1.02,0.37,1.56,0.55c0.88,0.32,2.25,0.7,3-0.12c0.26-0.28,0.34-0.81,0.38-1.2
		c0.04-0.5-0.21-1.02-0.09-1.49c0.3-1.22,3-1.1,3.98-1.1c1.36,0,2.72,0.81,3.92,1.38c1.4,0.67,3.35,1.9,4.95,1.73
		c2.64-0.27,2.23-5.56,1.92-7.38c-0.22-1.31-0.57-2.6-0.97-3.86c-0.7-2.14-1.93-3.98-3.64-5.44C59.04,0.99,51.22,0.11,45.01,2.77z"
		/>
	<path fill="#ED6C30" d="M25.31,56.17c0.02-1.59,0.59-3.41,1.11-4.41c0.33-0.62,0.97-1.27,1.61-1.65c1.82-1.09,4.05-0.59,6.04-0.79
		c1.74-0.17,3.94-0.57,5.43-1.48c1.84-1.12,3.84-2.01,5.6-3.27c3.27-2.35,6.05-5.19,9.07-7.73c2.87-2.42,4.82-5.75,8.53-6.66
		c1.67-0.41,2.8-0.4,4.28,0.59c1.73,1.16,3.41,1.55,3.14,3.89c-0.29,2.45-0.82,4.18-2.37,6.15c-2.79,3.57-6.64,6.13-10.24,8.8
		c-4.88,3.63-15.42,12.21-22.02,10.43c-1.64-0.44-2.41-2.74-4.37-2.45c-1.1,0.16-1.52,1.51-2.76,1.69c-0.9,0.12-2.03-0.15-2.55-0.94
		C25.43,57.77,25.3,57,25.31,56.17z"/>
</g>
</svg>
