<?xml version="1.0" encoding="utf-8"?>
<!-- Generator: Adobe Illustrator 16.0.0, SVG Export Plug-In . SVG Version: 6.00 Build 0)  -->
<!DOCTYPE svg PUBLIC "-//W3C//DTD SVG 1.1//EN" "http://www.w3.org/Graphics/SVG/1.1/DTD/svg11.dtd">
<svg version="1.1" id="レイヤー_1" xmlns="http://www.w3.org/2000/svg" xmlns:xlink="http://www.w3.org/1999/xlink" x="0px"
	 y="0px" width="128px" height="128px" viewBox="0 0 128 128" enable-background="new 0 0 128 128" xml:space="preserve">
<g>
	<path fill="#757F3F" d="M10.67,115.66c-0.98,0.39-2.11,1.9-2.83,2.04c-1.36,0.27-2.33-0.26-3.52,0.74c-0.93,0.78-1.36,1.88-1.6,3
		c-0.2,0.96-1.68,2.55-1.24,3.52c0.56,1.22,2.88,0.72,3.76,0.17c1.08-0.66,1.75-1.69,2.81-2.35c1.45-0.9,2.23-1.63,2.81-3.21
		c0.37-1,1.84-2.73,0.78-3.77C11.36,115.52,11.03,115.51,10.67,115.66z"/>
	<path fill="#757F3F" d="M22.44,94.05c-0.25-0.92,0.95-1.65,0.05-2.58c-0.95-1-3.23-1.23-4.49-2.03c-0.63-0.4-1.3-0.69-1.99-0.86
		c-2.62-0.67-5.46,0.28-7.6,2.16c-1.61,1.41-1.85,3.41-1.64,5.43c0.08,0.77,0.3,1.62,0.77,2.26c0.48,0.66,1.36,1.02,1.84,1.58
		c1.17,1.34,0.36,3.03,0.04,4.53c-0.5,2.25-0.45,4.47,1.36,6.2c2,1.92,4.88,0.44,6.34-1.31c0.78-0.94,0.95-1.94,1.34-3.08
		c0.34-0.97,0.8-1.93,1.2-2.88c0.73-1.74,1.77-2.97,3.08-4.23c0.67-0.65,1.78-1.68,1.69-2.74C24.32,95.4,22.72,95.08,22.44,94.05z"
		/>
	<path fill="#757F3F" d="M90.25,45.59c-0.52-0.73-0.98-1.46-1.58-2.12c-0.76-0.85-0.82-1.43-0.92-2.5c-0.08-0.83-0.27-1.66-0.38-2.5
		c-0.11-0.84-0.63-1.57-1.35-1.97c-2-1.13-4.43-0.46-6.15,0.82c-1.1,0.82-1.03,1.75-1.45,2.91c-0.41,1.13-0.99,2.31-1.48,3.43
		c-0.29,0.67-0.8,1.32-0.9,2.06c-0.24,1.69,1.32,3.35,1.03,5.35c-0.46,3.16-2.42,5.49-3.97,8.15c-2.21,3.79-5.75,6.96-9.56,9.19
		c-0.99,0.58-4.24,1.82-3.62-0.5c0.34-1.26,2.01-2.19,1.66-3.65c-1.04-0.5-2.84-0.17-3.81,0.38c-1.55,0.88-2.07,2.2-2.27,3.82
		c-0.07,0.63,0.04,1.29-0.04,1.92c-0.11,0.88-0.7,1.3-1.34,1.92c-0.94,0.9-2.69,1.56-3.09,2.88c-0.37,1.25,0.07,2.23-1.32,2.95
		c-0.4,0.2-1.33,0.58-1.75,0.54c-0.78-0.08-1.04-1.06-1.72-1.32c-3.64-1.4-7.98,0.68-11.97,0.24c-0.32-0.04-0.64-0.09-0.94-0.16
		c-0.71-0.16-1.19-0.37-1.94-0.27c-1.74,0.24-2.14,1.46-3.16,2.65c-1.34,1.57-2.89,2.47-4.8,3.12c-1.65,0.56-3.78,0.98-4.32,2.84
		c-0.6,2.08,0.86,3.48,2.93,3.65c1.62,0.14,3.36,0.43,5,0.38c1.64-0.05,2.68-1.21,4.08-1.88c1.27-0.61,2.9-0.63,4.38-0.62
		c0.75,0,1.61-0.09,2.31-0.33c0.84-0.3,1.44-1,2.3-1.25c1.23-0.36,3.78-0.83,4.67,0.57c1.04,1.62-0.99,3-1.22,4.47
		c-0.27,1.87,1.55,3.42,3.27,3.65c2.33,0.32,4.87-0.98,6.69-2.31c1.07-0.77,4.24-2.26,3.71-4.04c-0.25-0.85-1.38-1.2-1.55-2.11
		c-0.15-0.78,0.54-1.71,1.33-1.75c1.05-0.05,1.32,0.89,1.74,1.56c0.46,0.71,1.12,0.88,1.93,0.95c0.85,0.08,1.85,0.09,2.69,0
		c0.86-0.09,1.65-0.46,2.49-0.58c0.88-0.13,1.76-0.13,2.65-0.23c0.96-0.1,1.65-0.53,2.54-0.92c1.6-0.7,3.08-1.33,4.8-1.55
		c0.82-0.1,1.52,0.03,2.31-0.2c0.79-0.22,1.62-0.55,2.3-1.13c1.32-1.11,2.66-2.87,2.16-4.62c-0.46-1.65-0.71-3.44-0.19-5.15
		c0.29-0.97,0.62-1.97,1.3-2.74c0.66-0.75,1.27-1.54,1.5-2.54c0.34-1.5,0.04-3.41,0.03-4.95c-0.01-2.32,1.74-2.56,3.27-3.84
		c0.85-0.71,1.57-1.75,1.93-2.75c0.52-1.44,1.46-2.77,1.54-4.33c0.05-1.03,0.07-2.15-0.24-3.12C91.41,47.02,90.85,46.44,90.25,45.59
		z"/>
	<path fill="#757F3F" d="M38.82,88.42c-0.98-0.02-2.4-0.33-3.13,0.53c-0.45,0.53-0.32,0.9-1.04,1.29c-0.53,0.28-1.12,0.42-1.71,0.47
		c-0.38,0.03-0.76-0.07-1.12-0.19c-0.69-0.24-1.37-0.58-2.04-0.38c-0.79,0.25-1.45,1.01-2.08,1.52c-1.85,1.48-2.12,5.03-1.42,7.15
		c0.33,0.98,1.28,1.67,2.35,1.73c1.12,0.07,1.84-0.82,2.11-1.74c0.49-1.67,1.92-3.8,4.02-3.23c1.34,0.36,1.6,2.15,3.28,1.65
		c0.95-0.28,1.62-1.28,2.35-1.88c0.75-0.62,1.45-1.01,1.83-1.92C43.16,91.2,41.2,88.48,38.82,88.42z"/>
	<path fill="#757F3F" d="M108.96,17.88c-0.53-0.6-0.55-1.8-0.41-2.61c0.14-0.84,0.93-1.25,1.17-2c0.33-1.04-0.11-1.93-1.21-2.02
		c-1.74-0.13-2.61,1.92-4.57,1.57c-4.25-0.76-7.38-4-10.18-7.03c-0.7-0.76-1.05-1.93-2-2.43c-0.88-0.47-1.97-0.27-2.91-0.16
		c-0.52,0.06-1.08-0.01-1.56,0.24c-0.6,0.31-0.44,0.2-0.64,0.8c-0.63,1.88,0.15,4.16,0.02,6.13c-0.18,2.56-0.93,7.03-2.88,8.95
		c-0.54,0.54-1.57,0.56-2.31,0.56c-0.9,0-1.65-0.06-2.27,0.75c-0.19,0.25-0.31,0.55-0.35,0.85c-0.06,0.46,0.34,1.03,0.23,1.41
		c-0.18,0.6-1.5,0.81-2.03,1.15c-0.67,0.44-1.21,1.15-1.35,1.9c-0.12,0.67-0.15,1.69,0,2.36c0.23,1.02,1.1,1.36,1.56,2.2
		c0.65,1.2-0.79,3.37,0.64,4.17c0.63,0.36,1.83-0.03,2.37-0.36c0.91-0.55,1.36-1.02,2.41-1.24c0.77-0.17,1.83,0.1,2.16-0.76
		c0.31-0.82-0.39-1.49-0.96-1.96c-0.54-0.45-2.57-1.19-2.17-2.17c0.35-0.88,2.3,0.28,2.86,0.28c1.12,0,1.99-0.75,3.12-0.77
		c2.85-0.04,4.76,2.59,7.58,3.02c2.09,0.32,3.7-0.78,4.1-2.77c0.46-2.32,1.69-3.95,4.01-4.66c1.61-0.49,3.38-0.52,4.96-1
		c1.07-0.33,4.3-1.79,2.76-3.15C110.51,18.59,109.53,18.53,108.96,17.88z"/>
	<path fill="#757F3F" d="M113.21,10.83c-0.61,0.23-1.12,0.79-1.51,1.29c-0.5,0.65-1.25,1.67-1.25,2.52c0,0.28,0.15,0.64,0.36,0.91
		l0.37,0.32c0.33,0.16,0.86-0.03,1.2-0.17c0.82-0.37,1.4-1.12,1.94-1.82c0.66-0.85,2.04-1.56,1.18-2.85
		C114.96,10.26,113.93,10.57,113.21,10.83z"/>
	<path fill="#757F3F" d="M123.92,2.29c-2.57,0.03-4,2.02-5.44,3.84c-0.7,0.88-1.78,2.08-1.98,3.22c-0.08,0.48,0,0.82,0.18,1.05
		c0.55,0.7,2.03,0.37,2.74-0.09c1.08-0.69,1.86-1.72,2.89-2.45c1.17-0.84,3.38-1.75,4.05-3.06C127.27,2.99,125.4,2.27,123.92,2.29z"
		/>
</g>
</svg>
