<?xml version="1.0" encoding="utf-8"?>
<!-- Generator: Adobe Illustrator 19.2.1, SVG Export Plug-In . SVG Version: 6.00 Build 0)  -->
<svg version="1.1" id="レイヤー_1" xmlns="http://www.w3.org/2000/svg" xmlns:xlink="http://www.w3.org/1999/xlink" x="0px"
	 y="0px" viewBox="0 0 128 128" style="enable-background:new 0 0 128 128;" xml:space="preserve">
<g>
	<g>
		<g>
			<g>
				<defs>
					<path id="SVGID_1_" d="M64,6.27c-31.84,0-57.73,25.9-57.73,57.74c0,31.83,25.89,57.72,57.73,57.72
						c31.83,0,57.73-25.89,57.73-57.72C121.73,32.17,95.83,6.27,64,6.27z"/>
				</defs>
				<use xlink:href="#SVGID_1_"  style="overflow:visible;fill:#FFFFFF;"/>
				<clipPath id="SVGID_2_">
					<use xlink:href="#SVGID_1_"  style="overflow:visible;"/>
				</clipPath>
			</g>
			<g>
				<g>
					<g>
						<path style="fill:#40C0E7;" d="M64,127.9c-35.23,0-63.9-28.66-63.9-63.89C0.1,28.77,28.77,0.1,64,0.1
							c35.23,0,63.89,28.67,63.89,63.91C127.9,99.24,99.23,127.9,64,127.9z M64,6.27c-31.84,0-57.73,25.9-57.73,57.74
							c0,31.83,25.89,57.72,57.73,57.72c31.83,0,57.73-25.89,57.73-57.72C121.73,32.17,95.83,6.27,64,6.27z"/>
					</g>
				</g>
				<path style="fill:#2F2F2F;" d="M117.62,64.01c0,2.03-1.65,3.68-3.68,3.68c-2.04,0-3.69-1.65-3.69-3.68
					c0-2.04,1.65-3.69,3.69-3.69C115.97,60.32,117.62,61.97,117.62,64.01z"/>
				<path style="fill:#2F2F2F;" d="M110.43,37.19c1.01,1.77,0.41,4.02-1.35,5.04c-1.76,1.01-4.01,0.41-5.03-1.35
					c-1.02-1.77-0.42-4.02,1.35-5.04C107.16,34.83,109.42,35.44,110.43,37.19z"/>
				<path style="fill:#2F2F2F;" d="M90.81,17.57c1.76,1.01,2.36,3.27,1.34,5.03c-1.01,1.76-3.27,2.36-5.03,1.35
					c-1.76-1.02-2.37-3.28-1.35-5.03C86.79,17.16,89.05,16.55,90.81,17.57z"/>
				<path style="fill:#2F2F2F;" d="M37.19,17.56c1.76-1.01,4.01-0.41,5.03,1.35c1.02,1.77,0.42,4.02-1.35,5.03
					c-1.76,1.02-4.02,0.42-5.03-1.35C34.83,20.84,35.42,18.58,37.19,17.56z"/>
				
					<ellipse transform="matrix(0.5 -0.866 0.866 0.5 -23.4264 37.4908)" style="fill:#2F2F2F;" cx="20.76" cy="39.03" rx="3.68" ry="3.68"/>
				<path style="fill:#2F2F2F;" d="M10.38,64c0-2.03,1.65-3.68,3.68-3.68c2.04,0,3.68,1.65,3.68,3.68c0,2.03-1.65,3.69-3.68,3.68
					C12.03,67.68,10.37,66.03,10.38,64z"/>
				<path style="fill:#2F2F2F;" d="M17.56,90.81c-1.02-1.76-0.41-4.01,1.35-5.03c1.76-1.01,4.01-0.42,5.04,1.35
					c1.02,1.77,0.41,4.02-1.35,5.03C20.84,93.18,18.58,92.57,17.56,90.81z"/>
				<path style="fill:#2F2F2F;" d="M37.19,110.43c-1.77-1.02-2.36-3.26-1.35-5.03c1.02-1.77,3.27-2.37,5.03-1.35
					c1.77,1.01,2.37,3.28,1.35,5.03C41.21,110.84,38.95,111.46,37.19,110.43z"/>
				<path style="fill:#2F2F2F;" d="M90.8,110.43c-1.77,1.02-4.02,0.41-5.03-1.35c-1.02-1.77-0.43-4.01,1.34-5.03
					c1.75-1.01,4.02-0.41,5.03,1.35C93.17,107.17,92.57,109.42,90.8,110.43z"/>
				<path style="fill:#2F2F2F;" d="M110.43,90.82c-1.02,1.76-3.27,2.36-5.03,1.34c-1.77-1.02-2.37-3.26-1.35-5.02
					c1.01-1.77,3.27-2.37,5.03-1.35C110.85,86.8,111.45,89.06,110.43,90.82z"/>
			</g>
		</g>
		<rect x="59.4" y="60.61" style="fill:#2F2F2F;" width="9.2" height="56.06"/>
		<g>
			<g>
				<path style="fill:#2F2F2F;" d="M73.79,63.99c0,5.41-4.38,9.79-9.78,9.79c-5.4,0-9.78-4.38-9.78-9.79c0-5.39,4.38-9.77,9.78-9.77
					C69.4,54.22,73.79,58.6,73.79,63.99z"/>
				<path style="fill:#2F2F2F;" d="M73.79,63.99c0,5.41-4.38,9.79-9.78,9.79c-5.4,0-9.78-4.38-9.78-9.79c0-5.39,4.38-9.77,9.78-9.77
					C69.4,54.22,73.79,58.6,73.79,63.99z"/>
			</g>
			<polygon style="fill:#2F2F2F;" points="68.5,60.46 66.1,69.33 30.67,59.74 33.07,50.85 			"/>
			<path style="fill:#FFFFFF;" d="M67.69,64.01c0,2.03-1.65,3.68-3.69,3.68c-2.04,0-3.69-1.65-3.69-3.68c0-2.04,1.65-3.69,3.69-3.69
				C66.04,60.32,67.69,61.97,67.69,64.01z"/>
		</g>
	</g>
	<g>
		<path style="fill:#2F2F2F;" d="M64,10.38c-2.04,0-3.68,1.65-3.69,3.68c0,2.04,1.64,3.68,3.67,3.68c2.04,0,3.7-1.65,3.69-3.68
			C67.68,12.03,66.03,10.38,64,10.38z"/>
	</g>
</g>
</svg>
