<svg width="128" height="128" style="enable-background:new 0 0 128 128;" xmlns="http://www.w3.org/2000/svg" xmlns:xlink="http://www.w3.org/1999/xlink">
  <g id="Layer_1">
    <path d="M-166.82,31.83c1.11-0.16,2.19-0.11,3.27-0.01l-0.35,0.51c-0.48-0.98-0.92-1.98-1.16-3.07 c0.74,0.85,1.29,1.79,1.79,2.76l-0.35,0.51C-164.7,32.39-165.77,32.22-166.82,31.83z" style="fill:#33691E;"/>
    <path d="M-162.47,12.62c1.11-0.16,2.19-0.11,3.27-0.01l-0.35,0.51c-0.48-0.98-0.92-1.98-1.16-3.07 c0.74,0.85,1.29,1.79,1.79,2.76l-0.35,0.51C-160.34,13.17-161.42,13-162.47,12.62z" style="fill:#33691E;"/>
    <path d="M-154.79,5.95c0.93,0.62,1.7,1.39,2.43,2.19l-0.6,0.14c0.3-1.05,0.65-2.08,1.21-3.06 c-0.02,1.12-0.25,2.19-0.53,3.24l-0.6,0.14C-153.6,7.8-154.27,6.95-154.79,5.95z" style="fill:#33691E;"/>
    <path d="M-118.85,27.21c0.75,0.83,1.32,1.75,1.85,2.7l-0.61,0c0.54-0.95,1.12-1.87,1.9-2.69 c-0.29,1.09-0.76,2.07-1.28,3.03l-0.61,0C-118.12,29.29-118.58,28.3-118.85,27.21z" style="fill:#33691E;"/>
    <path d="M-141.1,6.43c0.34,1.06,0.48,2.14,0.56,3.22l-0.56-0.26c0.88-0.64,1.8-1.24,2.84-1.66 c-0.71,0.87-1.55,1.57-2.42,2.22l-0.56-0.26C-141.29,8.61-141.3,7.53-141.1,6.43z" style="fill:#33691E;"/>
    <path d="M-104.88,36.02c-0.44,1.03-1.04,1.93-1.68,2.81l-0.25-0.56c1.09,0.09,2.17,0.24,3.23,0.6 c-1.11,0.19-2.2,0.17-3.29,0.1l-0.25-0.56C-106.46,37.55-105.75,36.72-104.88,36.02z" style="fill:#33691E;"/>
    <path d="M-104.23,49.23c-0.7,0.87-1.53,1.58-2.39,2.24l-0.09-0.61c1.02,0.39,2.02,0.82,2.94,1.46 c-1.12-0.12-2.16-0.43-3.19-0.8l-0.09-0.61C-106.16,50.27-105.26,49.67-104.23,49.23z" style="fill:#33691E;"/>
    <path d="M-104.17,60c-0.85,0.73-1.79,1.28-2.75,1.77l0.02-0.61c0.93,0.56,1.84,1.17,2.63,1.97 c-1.08-0.32-2.05-0.82-2.99-1.37l0.02-0.61C-106.26,60.67-105.26,60.24-104.17,60z" style="fill:#33691E;"/>
    <g>
      <linearGradient id="SVGID_1_" gradientUnits="userSpaceOnUse" x1="10.1516" x2="107.6717" y1="17.3201" y2="114.8403">
        <stop offset="0" style="stop-color:#9CCC65"/>
        <stop offset="7.898902e-03" style="stop-color:#9BCB64"/>
        <stop offset="0.5276" style="stop-color:#76AB44"/>
        <stop offset="0.8023" style="stop-color:#689F38"/>
      </linearGradient>
      <path d="M107.5,32.6c-2.42-0.63-4.01-2.96-3.69-5.44c1.28-10.09-8.04-14.17-10.37-15.02 c-0.32-0.12-0.65-0.2-0.99-0.25C75.44,9.44,71.73,33.62,71.05,46.22c-0.16,2.88-2.76,5.01-5.62,4.64 c-0.39-0.05-0.78-0.11-1.17-0.18c-2.96-0.55-4.73-3.61-3.77-6.46c4.02-11.96,9.52-35.82-7.2-39.83c-0.33-0.08-0.67-0.12-1.01-0.13 c-2.48-0.07-12.64,0.28-15.18,10.13c-0.63,2.42-2.96,4.01-5.44,3.69c-10.1-1.28-14.17,8.05-15.02,10.37 c-0.12,0.32-0.2,0.65-0.25,0.98c-2.33,16.13,19.25,20.3,32.24,21.28c2.7,0.2,4.82,2.51,4.63,5.21c-0.01,0.15-0.02,0.3-0.04,0.45 c-0.3,3.11-3.44,5.13-6.42,4.2c-12.43-3.9-34.07-8.02-37.87,7.84c-0.08,0.33-0.12,0.67-0.13,1c-0.07,2.47,0.27,12.65,10.13,15.19 c2.42,0.63,4.01,2.96,3.69,5.44c-1.28,10.08,8.02,14.16,10.36,15.02c0.32,0.12,0.66,0.21,1,0.25 c15.71,2.26,20.07-18.17,21.19-31.24c0.19-2.2,1.77-3.91,3.76-4.4c-0.45,5.95-3.11,27.86-18.89,39.45 c-0.67,0.53-1.39,0.95-2.07,1.39c-0.66,0.45-1.34,0.82-2,1.17c-1.28,0.75-2.55,1.24-3.63,1.74c-1.13,0.41-2.1,0.78-2.91,1.04 c-1.65,0.46-2.59,0.72-2.59,0.72l-0.3,0.08c-0.34,0.1-0.68,0.23-1.01,0.42c-1.43,0.8-2.5,2.89-2.26,4.52 c0.43,2.99,3.36,4.06,6.08,3.65c0,0,2.93-0.34,4.91-1.09C61.47,113.5,62,77.38,63.5,70c1.6,1.21,2.1,3.88,1.48,5.93 c-3.79,12.56-7.29,33.16,8.14,36.87c0.33,0.08,0.68,0.12,1.02,0.13c2.49,0.07,12.64-0.28,15.18-10.13 c0.62-2.42,2.96-4.01,5.44-3.69c10.09,1.28,14.17-8.04,15.02-10.37c0.12-0.32,0.2-0.65,0.25-0.99 c2.39-16.6-20.54-20.54-33.37-21.36c-3.14-0.2-5.34-3.24-4.49-6.27c0.07-0.23,0.14-0.47,0.21-0.7c0.83-2.59,3.66-3.96,6.25-3.12 c12.23,3.98,34.96,8.77,38.86-7.53c0.08-0.33,0.12-0.67,0.13-1.01C117.7,45.31,117.36,35.14,107.5,32.6z" style="fill:url(#SVGID_1_);"/>
      <g style="opacity:0.2;">
        <path d="M51.83,7.25c0.14,0,0.26,0,0.36,0c0.13,0,0.27,0.02,0.39,0.05c3.25,0.78,5.55,2.46,7.04,5.15 c4.7,8.5,0.18,24.37-1.98,30.8c-0.74,2.19-0.49,4.6,0.69,6.6c1.17,1.98,3.13,3.36,5.38,3.78c0.44,0.08,0.89,0.15,1.34,0.21 c0.34,0.04,0.68,0.06,1.02,0.06c4.24,0,7.75-3.3,7.98-7.52c0.25-4.68,1.1-13.61,3.94-20.81c2.88-7.3,6.84-10.85,12.13-10.85 c0.62,0,1.26,0.05,1.92,0.14c0.12,0.02,0.26,0.05,0.38,0.1c0.96,0.35,3.43,1.39,5.48,3.38c2.4,2.33,3.37,5.09,2.94,8.44 c-0.5,3.97,2.04,7.72,5.92,8.72c7.56,1.95,7.94,9.83,7.88,12.2c0,0.13-0.02,0.27-0.05,0.39c-0.54,2.25-2.18,9.1-15.02,9.1 c-7.05,0-14.76-2.03-19.99-3.73c-0.8-0.26-1.64-0.39-2.48-0.39c-3.47,0-6.5,2.19-7.55,5.45c-0.08,0.26-0.16,0.53-0.24,0.8 c-0.65,2.31-0.23,4.75,1.16,6.72c1.4,1.98,3.6,3.21,6.02,3.36c13.88,0.89,24.24,4.36,28.44,9.53c1.92,2.37,2.62,5.12,2.15,8.41 c-0.02,0.12-0.05,0.26-0.1,0.38c-0.73,2-3.65,8.52-10.35,8.52c-0.48,0-0.98-0.03-1.48-0.1c-0.33-0.04-0.67-0.06-1.01-0.06 c-3.63,0-6.81,2.46-7.71,5.98c-0.61,2.37-2.99,7.88-11.84,7.88c-0.13,0-0.25,0-0.36,0c-0.14,0-0.28-0.02-0.4-0.05 c-3.19-0.76-5.46-2.4-6.95-4.99c-4.28-7.46-1.23-20.8,0.98-28.09c0.89-2.94,0.3-7.04-2.54-9.19C64.78,67.21,64.14,67,63.5,67 c-0.36,0-0.72,0.06-1.06,0.19c-0.42,0.16-0.79,0.41-1.09,0.72c-0.14-0.2-0.31-0.38-0.5-0.54c-0.55-0.46-1.23-0.71-1.94-0.71 c-0.24,0-0.48,0.03-0.72,0.09c-3.32,0.82-5.74,3.66-6.03,7.06c-0.46,5.44-1.6,13.22-4.39,19.37c-2.83,6.25-6.58,9.3-11.47,9.3 c-0.61,0-1.26-0.05-1.91-0.14c-0.13-0.02-0.26-0.05-0.39-0.1c-0.96-0.35-3.43-1.39-5.48-3.39c-2.4-2.33-3.36-5.09-2.94-8.44 c0.5-3.97-2.04-7.72-5.92-8.72c-7.56-1.95-7.94-9.83-7.88-12.2c0-0.13,0.02-0.27,0.05-0.39c0.54-2.25,2.18-9.1,15.03-9.1 c6.72,0,14.06,1.86,19.03,3.42c0.78,0.24,1.58,0.37,2.39,0.37c4.13,0,7.53-3.07,7.92-7.14c0.02-0.17,0.03-0.34,0.04-0.51 c0.32-4.31-3-8.09-7.39-8.42c-7.86-0.59-21.86-2.61-27.39-9.5c-1.89-2.35-2.58-5.09-2.11-8.36c0.02-0.12,0.05-0.25,0.1-0.37 c0.73-2,3.65-8.52,10.35-8.52c0.48,0,0.98,0.03,1.48,0.1c0.33,0.04,0.67,0.06,1.01,0.06c3.63,0,6.81-2.46,7.71-5.98 C40.6,12.76,42.98,7.25,51.83,7.25L51.83,7.25 M56.32,92.64c-3.34,11.08-9.79,22.77-23.03,27.27c-0.03,0.01-0.06,0.02-0.09,0.03 c-1.33,0.5-3.48,0.83-4.2,0.92c-0.03,0-0.07,0.01-0.1,0.01c-0.22,0.03-0.45,0.05-0.67,0.05c-0.83,0-1.86-0.2-1.99-1.15 c-0.06-0.39,0.4-1.27,0.76-1.47c0.12-0.06,0.23-0.11,0.34-0.14l0.3-0.08l2.59-0.72c0.05-0.01,0.09-0.03,0.14-0.04 c0.7-0.23,1.47-0.51,2.36-0.84l0.64-0.23c0.08-0.03,0.17-0.07,0.25-0.1c0.29-0.14,0.6-0.27,0.92-0.42 c0.87-0.38,1.85-0.82,2.88-1.42c0.67-0.35,1.44-0.77,2.2-1.29c0.16-0.1,0.32-0.21,0.48-0.31c0.53-0.34,1.13-0.72,1.74-1.19 C48.78,106.39,53.33,99.46,56.32,92.64 M51.83,4.25c-3.06,0-12.33,0.79-14.74,10.13c-0.57,2.22-2.57,3.73-4.81,3.73 c-0.21,0-0.42-0.01-0.63-0.04c-0.64-0.08-1.26-0.12-1.86-0.12c-8.75,0-12.37,8.32-13.16,10.49c-0.12,0.32-0.2,0.65-0.25,0.98 c-2.33,16.13,19.25,20.3,32.24,21.28c2.7,0.2,4.82,2.51,4.63,5.21c-0.01,0.15-0.02,0.3-0.04,0.45c-0.25,2.59-2.47,4.43-4.93,4.43 c-0.49,0-1-0.07-1.49-0.23C41.19,58.8,33.72,57,26.85,57C18.48,57,11,59.68,8.91,68.4c-0.08,0.33-0.12,0.67-0.13,1 c-0.07,2.47,0.27,12.65,10.13,15.19c2.42,0.63,4.01,2.96,3.69,5.44c-1.28,10.08,8.02,14.16,10.36,15.02 c0.32,0.12,0.66,0.21,1,0.25c0.81,0.12,1.59,0.17,2.34,0.17c13.81,0,17.79-19.02,18.85-31.41c0.19-2.2,1.77-3.91,3.76-4.4 c-0.45,5.95-3.11,27.86-18.89,39.45c-0.67,0.53-1.39,0.95-2.07,1.39c-0.66,0.45-1.34,0.82-2,1.17c-1.28,0.75-2.55,1.24-3.63,1.74 c-1.13,0.41-2.1,0.78-2.91,1.04c-1.65,0.46-2.59,0.72-2.59,0.72l-0.3,0.08c-0.34,0.1-0.68,0.23-1.01,0.42 c-1.43,0.8-2.5,2.89-2.26,4.52c0.37,2.58,2.61,3.73,4.96,3.73c0.37,0,0.75-0.03,1.12-0.08c0,0,2.93-0.34,4.91-1.09 C61.47,113.5,62,77.38,63.5,70c1.6,1.21,2.1,3.88,1.48,5.93c-3.79,12.56-7.29,33.16,8.14,36.87c0.33,0.08,0.68,0.12,1.02,0.13 c0.13,0,0.27,0.01,0.44,0.01c3.06,0,12.33-0.79,14.74-10.13c0.57-2.22,2.57-3.73,4.81-3.73c0.21,0,0.42,0.01,0.63,0.04 c0.64,0.08,1.26,0.12,1.86,0.12c8.74,0,12.36-8.31,13.16-10.49c0.12-0.32,0.2-0.65,0.25-0.99c2.39-16.6-20.54-20.54-33.37-21.36 c-3.14-0.2-5.34-3.24-4.49-6.27c0.07-0.23,0.14-0.47,0.21-0.7c0.66-2.07,2.61-3.37,4.69-3.37c0.52,0,1.04,0.08,1.55,0.25 c5.69,1.85,13.64,3.87,20.92,3.87c8.38,0,15.85-2.68,17.94-11.4c0.08-0.33,0.12-0.67,0.13-1.01c0.07-2.47-0.27-12.65-10.13-15.19 c-2.42-0.63-4.01-2.96-3.69-5.44c1.28-10.09-8.04-14.17-10.37-15.02c-0.32-0.12-0.65-0.2-0.99-0.25 c-0.81-0.12-1.59-0.17-2.35-0.17c-15.02,0-18.42,22.51-19.07,34.5c-0.14,2.67-2.38,4.68-4.98,4.68c-0.21,0-0.43-0.01-0.64-0.04 c-0.39-0.05-0.78-0.11-1.17-0.18c-2.96-0.55-4.73-3.61-3.77-6.46c4.02-11.96,9.52-35.82-7.2-39.83 c-0.33-0.08-0.67-0.12-1.01-0.13C52.14,4.25,52,4.25,51.83,4.25L51.83,4.25z" style="fill:#424242;"/>
      </g>
    </g>
  </g>
  <g id="Layer_2" style="display:none;">
    <g style="display:inline;">
      <g style="opacity:0.6;">
        <circle cx="64" cy="64" r="28" style="opacity:0.61;fill:none;stroke:#000000;stroke-width:0.2625;stroke-miterlimit:10;"/>
        <line style="opacity:0.61;fill:none;stroke:#000000;stroke-width:0.25;stroke-miterlimit:10;" x1="84" x2="84" y1="0" y2="128"/>
        <line style="opacity:0.61;fill:none;stroke:#000000;stroke-width:0.25;stroke-miterlimit:10;" x1="44" x2="44" y1="0" y2="128"/>
        <line style="opacity:0.61;fill:none;stroke:#000000;stroke-width:0.25;stroke-miterlimit:10;" x1="64" x2="64" y1="0" y2="128"/>
        <line style="opacity:0.61;fill:none;stroke:#000000;stroke-width:0.25;stroke-miterlimit:10;" x1="128" x2="0" y1="64" y2="64"/>
        <line style="opacity:0.61;fill:none;stroke:#000000;stroke-width:0.25;stroke-miterlimit:10;" x1="128" x2="0" y1="44" y2="44"/>
        <line style="opacity:0.61;fill:none;stroke:#000000;stroke-width:0.25;stroke-miterlimit:10;" x1="128" x2="0" y1="83.75" y2="83.75"/>
        <line style="opacity:0.61;fill:none;stroke:#000000;stroke-width:0.25;stroke-miterlimit:10;" x1="128" x2="0" y1="128" y2="0"/>
        <line style="opacity:0.61;fill:none;stroke:#000000;stroke-width:0.25;stroke-miterlimit:10;" x1="0" x2="128" y1="128" y2="0"/>
        <g style="opacity:0.61;">
          <path d="M64,4.26c32.94,0,59.74,26.8,59.74,59.74S96.94,123.74,64,123.74S4.26,96.94,4.26,64S31.06,4.26,64,4.26 M64,4 C30.86,4,4,30.86,4,64s26.86,60,60,60s60-26.86,60-60S97.14,4,64,4L64,4z"/>
        </g>
        <path d="M107.97,115.97H20.03 c-4.42,0-8.03-3.61-8.03-8.03V20.03c0-4.42,3.61-8.03,8.03-8.03h87.94c4.42,0,8.03,3.61,8.03,8.03v87.91 C116,112.36,112.39,115.97,107.97,115.97z" style="opacity:0.61;fill:none;stroke:#000000;stroke-width:0.2578;stroke-miterlimit:10;"/>
        <path d="M100,124H28c-4.4,0-8-3.6-8-8 V12c0-4.4,3.6-8,8-8h72c4.4,0,8,3.6,8,8v104C108,120.4,104.4,124,100,124z" style="opacity:0.61;fill:none;stroke:#000000;stroke-width:0.2628;stroke-miterlimit:10;"/>
        <path d="M113.77,108H14.23 C8.6,108,4,103.4,4,97.77V30.28c0-5.63,4.6-10.23,10.23-10.23h99.54c5.63,0,10.23,4.6,10.23,10.23v67.48 C124,103.4,119.4,108,113.77,108z" style="opacity:0.61;fill:none;stroke:#000000;stroke-width:0.2627;stroke-miterlimit:10;"/>
      </g>
      <g>
        <g style="opacity:0.2;">
          <defs>
            <rect id="SVGID_2_" height="128" style="opacity:0.2;" width="128" x="0" y="0"/>
          </defs>
          <clipPath id="SVGID_3_">
            <use style="overflow:visible;" xlink:href="#SVGID_2_"/>
          </clipPath>
          <g style="clip-path:url(#SVGID_3_);">
            <g>
              <line style="fill:none;stroke:#000000;stroke-width:0.25;stroke-miterlimit:10;" x1="-28" x2="-28" y1="160" y2="-32"/>
              <line style="fill:none;stroke:#000000;stroke-width:0.25;stroke-miterlimit:10;" x1="-24" x2="-24" y1="160" y2="-32"/>
              <line style="fill:none;stroke:#000000;stroke-width:0.25;stroke-miterlimit:10;" x1="-20" x2="-20" y1="160" y2="-32"/>
              <line style="fill:none;stroke:#000000;stroke-width:0.25;stroke-miterlimit:10;" x1="-16" x2="-16" y1="160" y2="-32"/>
              <line style="fill:none;stroke:#000000;stroke-width:0.25;stroke-miterlimit:10;" x1="-12" x2="-12" y1="160" y2="-32"/>
              <line style="fill:none;stroke:#000000;stroke-width:0.25;stroke-miterlimit:10;" x1="-8" x2="-8" y1="160" y2="-32"/>
              <line style="fill:none;stroke:#000000;stroke-width:0.25;stroke-miterlimit:10;" x1="-4" x2="-4" y1="160" y2="-32"/>
              <line style="fill:none;stroke:#000000;stroke-width:0.25;stroke-miterlimit:10;" x1="0" x2="0" y1="160" y2="-32"/>
              <line style="fill:none;stroke:#000000;stroke-width:0.25;stroke-miterlimit:10;" x1="4" x2="4" y1="160" y2="-32"/>
              <line style="fill:none;stroke:#000000;stroke-width:0.25;stroke-miterlimit:10;" x1="8" x2="8" y1="160" y2="-32"/>
              <line style="fill:none;stroke:#000000;stroke-width:0.25;stroke-miterlimit:10;" x1="12" x2="12" y1="160" y2="-32"/>
              <line style="fill:none;stroke:#000000;stroke-width:0.25;stroke-miterlimit:10;" x1="16" x2="16" y1="160" y2="-32"/>
              <line style="fill:none;stroke:#000000;stroke-width:0.25;stroke-miterlimit:10;" x1="20" x2="20" y1="160" y2="-32"/>
              <line style="fill:none;stroke:#000000;stroke-width:0.25;stroke-miterlimit:10;" x1="24" x2="24" y1="160" y2="-32"/>
              <line style="fill:none;stroke:#000000;stroke-width:0.25;stroke-miterlimit:10;" x1="28" x2="28" y1="160" y2="-32"/>
              <line style="fill:none;stroke:#000000;stroke-width:0.25;stroke-miterlimit:10;" x1="32" x2="32" y1="160" y2="-32"/>
              <line style="fill:none;stroke:#000000;stroke-width:0.25;stroke-miterlimit:10;" x1="36" x2="36" y1="160" y2="-32"/>
              <line style="fill:none;stroke:#000000;stroke-width:0.25;stroke-miterlimit:10;" x1="40" x2="40" y1="160" y2="-32"/>
              <line style="fill:none;stroke:#000000;stroke-width:0.25;stroke-miterlimit:10;" x1="44" x2="44" y1="160" y2="-32"/>
              <line style="fill:none;stroke:#000000;stroke-width:0.25;stroke-miterlimit:10;" x1="48" x2="48" y1="160" y2="-32"/>
              <line style="fill:none;stroke:#000000;stroke-width:0.25;stroke-miterlimit:10;" x1="52" x2="52" y1="160" y2="-32"/>
              <line style="fill:none;stroke:#000000;stroke-width:0.25;stroke-miterlimit:10;" x1="56" x2="56" y1="160" y2="-32"/>
              <line style="fill:none;stroke:#000000;stroke-width:0.25;stroke-miterlimit:10;" x1="60" x2="60" y1="160" y2="-32"/>
              <line style="fill:none;stroke:#000000;stroke-width:0.25;stroke-miterlimit:10;" x1="64" x2="64" y1="160" y2="-32"/>
              <line style="fill:none;stroke:#000000;stroke-width:0.25;stroke-miterlimit:10;" x1="68" x2="68" y1="160" y2="-32"/>
              <line style="fill:none;stroke:#000000;stroke-width:0.25;stroke-miterlimit:10;" x1="72" x2="72" y1="160" y2="-32"/>
              <line style="fill:none;stroke:#000000;stroke-width:0.25;stroke-miterlimit:10;" x1="76" x2="76" y1="160" y2="-32"/>
              <line style="fill:none;stroke:#000000;stroke-width:0.25;stroke-miterlimit:10;" x1="80" x2="80" y1="160" y2="-32"/>
              <line style="fill:none;stroke:#000000;stroke-width:0.25;stroke-miterlimit:10;" x1="84" x2="84" y1="160" y2="-32"/>
              <line style="fill:none;stroke:#000000;stroke-width:0.25;stroke-miterlimit:10;" x1="88" x2="88" y1="160" y2="-32"/>
              <line style="fill:none;stroke:#000000;stroke-width:0.25;stroke-miterlimit:10;" x1="92" x2="92" y1="160" y2="-32"/>
              <line style="fill:none;stroke:#000000;stroke-width:0.25;stroke-miterlimit:10;" x1="96" x2="96" y1="160" y2="-32"/>
              <line style="fill:none;stroke:#000000;stroke-width:0.25;stroke-miterlimit:10;" x1="100" x2="100" y1="160" y2="-32"/>
              <line style="fill:none;stroke:#000000;stroke-width:0.25;stroke-miterlimit:10;" x1="104" x2="104" y1="160" y2="-32"/>
              <line style="fill:none;stroke:#000000;stroke-width:0.25;stroke-miterlimit:10;" x1="108" x2="108" y1="160" y2="-32"/>
              <line style="fill:none;stroke:#000000;stroke-width:0.25;stroke-miterlimit:10;" x1="112" x2="112" y1="160" y2="-32"/>
              <line style="fill:none;stroke:#000000;stroke-width:0.25;stroke-miterlimit:10;" x1="116" x2="116" y1="160" y2="-32"/>
              <line style="fill:none;stroke:#000000;stroke-width:0.25;stroke-miterlimit:10;" x1="120" x2="120" y1="160" y2="-32"/>
              <line style="fill:none;stroke:#000000;stroke-width:0.25;stroke-miterlimit:10;" x1="124" x2="124" y1="160" y2="-32"/>
              <line style="fill:none;stroke:#000000;stroke-width:0.25;stroke-miterlimit:10;" x1="128" x2="128" y1="160" y2="-32"/>
              <line style="fill:none;stroke:#000000;stroke-width:0.25;stroke-miterlimit:10;" x1="132" x2="132" y1="160" y2="-32"/>
              <line style="fill:none;stroke:#000000;stroke-width:0.25;stroke-miterlimit:10;" x1="136" x2="136" y1="160" y2="-32"/>
              <line style="fill:none;stroke:#000000;stroke-width:0.25;stroke-miterlimit:10;" x1="137" x2="137" y1="166.05" y2="-25.95"/>
              <line style="fill:none;stroke:#000000;stroke-width:0.25;stroke-miterlimit:10;" x1="144" x2="144" y1="160" y2="-32"/>
              <line style="fill:none;stroke:#000000;stroke-width:0.25;stroke-miterlimit:10;" x1="148" x2="148" y1="160" y2="-32"/>
              <line style="fill:none;stroke:#000000;stroke-width:0.25;stroke-miterlimit:10;" x1="152" x2="152" y1="160" y2="-32"/>
              <line style="fill:none;stroke:#000000;stroke-width:0.25;stroke-miterlimit:10;" x1="156" x2="156" y1="160" y2="-32"/>
            </g>
            <g>
              <line style="fill:none;stroke:#000000;stroke-width:0.25;stroke-miterlimit:10;" x1="-32" x2="160" y1="-28" y2="-28"/>
              <line style="fill:none;stroke:#000000;stroke-width:0.25;stroke-miterlimit:10;" x1="-32" x2="160" y1="-24" y2="-24"/>
              <line style="fill:none;stroke:#000000;stroke-width:0.25;stroke-miterlimit:10;" x1="-32" x2="160" y1="-20" y2="-20"/>
              <line style="fill:none;stroke:#000000;stroke-width:0.25;stroke-miterlimit:10;" x1="-32" x2="160" y1="-16" y2="-16"/>
              <line style="fill:none;stroke:#000000;stroke-width:0.25;stroke-miterlimit:10;" x1="-32" x2="160" y1="-12" y2="-12"/>
              <line style="fill:none;stroke:#000000;stroke-width:0.25;stroke-miterlimit:10;" x1="-32" x2="160" y1="-8" y2="-8"/>
              <line style="fill:none;stroke:#000000;stroke-width:0.25;stroke-miterlimit:10;" x1="-32" x2="160" y1="-4" y2="-4"/>
              <line style="fill:none;stroke:#000000;stroke-width:0.25;stroke-miterlimit:10;" x1="-32" x2="160" y1="0" y2="0"/>
              <line style="fill:none;stroke:#000000;stroke-width:0.25;stroke-miterlimit:10;" x1="-32" x2="160" y1="4" y2="4"/>
              <line style="fill:none;stroke:#000000;stroke-width:0.25;stroke-miterlimit:10;" x1="-32" x2="160" y1="8" y2="8"/>
              <line style="fill:none;stroke:#000000;stroke-width:0.25;stroke-miterlimit:10;" x1="-32" x2="160" y1="12" y2="12"/>
              <line style="fill:none;stroke:#000000;stroke-width:0.25;stroke-miterlimit:10;" x1="-32" x2="160" y1="16" y2="16"/>
              <line style="fill:none;stroke:#000000;stroke-width:0.25;stroke-miterlimit:10;" x1="-32" x2="160" y1="20" y2="20"/>
              <line style="fill:none;stroke:#000000;stroke-width:0.25;stroke-miterlimit:10;" x1="-32" x2="160" y1="24" y2="24"/>
              <line style="fill:none;stroke:#000000;stroke-width:0.25;stroke-miterlimit:10;" x1="-32" x2="160" y1="28" y2="28"/>
              <line style="fill:none;stroke:#000000;stroke-width:0.25;stroke-miterlimit:10;" x1="-32" x2="160" y1="32" y2="32"/>
              <line style="fill:none;stroke:#000000;stroke-width:0.25;stroke-miterlimit:10;" x1="-32" x2="160" y1="36" y2="36"/>
              <line style="fill:none;stroke:#000000;stroke-width:0.25;stroke-miterlimit:10;" x1="-32" x2="160" y1="40" y2="40"/>
              <line style="fill:none;stroke:#000000;stroke-width:0.25;stroke-miterlimit:10;" x1="-32" x2="160" y1="44" y2="44"/>
              <line style="fill:none;stroke:#000000;stroke-width:0.25;stroke-miterlimit:10;" x1="-32" x2="160" y1="48" y2="48"/>
              <line style="fill:none;stroke:#000000;stroke-width:0.25;stroke-miterlimit:10;" x1="-32" x2="160" y1="52" y2="52"/>
              <line style="fill:none;stroke:#000000;stroke-width:0.25;stroke-miterlimit:10;" x1="-32" x2="160" y1="56" y2="56"/>
              <line style="fill:none;stroke:#000000;stroke-width:0.25;stroke-miterlimit:10;" x1="-32" x2="160" y1="60" y2="60"/>
              <line style="fill:none;stroke:#000000;stroke-width:0.25;stroke-miterlimit:10;" x1="-32" x2="160" y1="64" y2="64"/>
              <line style="fill:none;stroke:#000000;stroke-width:0.25;stroke-miterlimit:10;" x1="-32" x2="160" y1="68" y2="68"/>
              <line style="fill:none;stroke:#000000;stroke-width:0.25;stroke-miterlimit:10;" x1="-32" x2="160" y1="72" y2="72"/>
              <line style="fill:none;stroke:#000000;stroke-width:0.25;stroke-miterlimit:10;" x1="-32" x2="160" y1="76" y2="76"/>
              <line style="fill:none;stroke:#000000;stroke-width:0.25;stroke-miterlimit:10;" x1="-32" x2="160" y1="80" y2="80"/>
              <line style="fill:none;stroke:#000000;stroke-width:0.25;stroke-miterlimit:10;" x1="-32" x2="160" y1="84" y2="84"/>
              <line style="fill:none;stroke:#000000;stroke-width:0.25;stroke-miterlimit:10;" x1="-32" x2="160" y1="88" y2="88"/>
              <line style="fill:none;stroke:#000000;stroke-width:0.25;stroke-miterlimit:10;" x1="-32" x2="160" y1="92" y2="92"/>
              <line style="fill:none;stroke:#000000;stroke-width:0.25;stroke-miterlimit:10;" x1="-32" x2="160" y1="96" y2="96"/>
              <line style="fill:none;stroke:#000000;stroke-width:0.25;stroke-miterlimit:10;" x1="-32" x2="160" y1="100" y2="100"/>
              <line style="fill:none;stroke:#000000;stroke-width:0.25;stroke-miterlimit:10;" x1="-32" x2="160" y1="104" y2="104"/>
              <line style="fill:none;stroke:#000000;stroke-width:0.25;stroke-miterlimit:10;" x1="-32" x2="160" y1="108" y2="108"/>
              <line style="fill:none;stroke:#000000;stroke-width:0.25;stroke-miterlimit:10;" x1="-32" x2="160" y1="112" y2="112"/>
              <line style="fill:none;stroke:#000000;stroke-width:0.25;stroke-miterlimit:10;" x1="-32" x2="160" y1="116" y2="116"/>
              <line style="fill:none;stroke:#000000;stroke-width:0.25;stroke-miterlimit:10;" x1="-32" x2="160" y1="120" y2="120"/>
              <line style="fill:none;stroke:#000000;stroke-width:0.25;stroke-miterlimit:10;" x1="-32" x2="160" y1="124" y2="124"/>
              <line style="fill:none;stroke:#000000;stroke-width:0.25;stroke-miterlimit:10;" x1="-32" x2="160" y1="128" y2="128"/>
              <line style="fill:none;stroke:#000000;stroke-width:0.25;stroke-miterlimit:10;" x1="-32" x2="160" y1="132" y2="132"/>
              <line style="fill:none;stroke:#000000;stroke-width:0.25;stroke-miterlimit:10;" x1="-32" x2="160" y1="136" y2="136"/>
              <line style="fill:none;stroke:#000000;stroke-width:0.25;stroke-miterlimit:10;" x1="-32" x2="160" y1="140" y2="140"/>
              <line style="fill:none;stroke:#000000;stroke-width:0.25;stroke-miterlimit:10;" x1="-32" x2="160" y1="144" y2="144"/>
              <line style="fill:none;stroke:#000000;stroke-width:0.25;stroke-miterlimit:10;" x1="-32" x2="160" y1="148" y2="148"/>
              <line style="fill:none;stroke:#000000;stroke-width:0.25;stroke-miterlimit:10;" x1="-32" x2="160" y1="152" y2="152"/>
              <line style="fill:none;stroke:#000000;stroke-width:0.25;stroke-miterlimit:10;" x1="-32" x2="160" y1="156" y2="156"/>
            </g>
            <path d="M159.75-31.75v191.5h-191.5v-191.5H159.75 M160-32H-32v192h192V-32L160-32z"/>
          </g>
        </g>
        <g>
          <rect height="128" style="opacity:0.3;fill:#F44336;" width="4" x="0" y="0"/>
          <rect height="128" style="opacity:0.3;fill:#F44336;" width="4" x="124" y="0"/>
          <rect height="120" style="opacity:0.3;fill:#F44336;" transform="matrix(-1.836970e-16 1 -1 -1.836970e-16 66 -62)" width="4" x="62" y="-58"/>
          <rect height="120" style="opacity:0.3;fill:#F44336;" transform="matrix(-1.836970e-16 1 -1 -1.836970e-16 190 62)" width="4" x="62" y="66"/>
        </g>
      </g>
    </g>
  </g>
</svg>