<?xml version="1.0" encoding="UTF-8" standalone="no"?>
<!DOCTYPE svg PUBLIC "-//W3C//DTD SVG 1.1//EN" "http://www.w3.org/Graphics/SVG/1.1/DTD/svg11.dtd">
<svg width="100%" height="100%" viewBox="0 0 128 128" version="1.1" xmlns="http://www.w3.org/2000/svg" xmlns:xlink="http://www.w3.org/1999/xlink" xml:space="preserve" xmlns:serif="http://www.serif.com/" style="fill-rule:evenodd;clip-rule:evenodd;stroke-linecap:round;stroke-linejoin:round;stroke-miterlimit:1.5;">
    <g transform="matrix(0.939001,0,0,1,12.1389,0)">
        <path d="M17.5,118.15L17.5,128.45L111.37,128.45L111.37,118.15C111.37,102.35 87.97,94.32 64.43,94.35C41.05,94.37 17.5,101.41 17.5,118.15Z" style="fill:#00bfa5;fill-rule:nonzero;"/>
    </g>
    <g transform="matrix(1,0,0,1,8.20841,0)">
        <path d="M64,90.08L54.92,90.08L54.92,99.67C54.92,104.01 58.62,107.53 63.18,107.53L64.83,107.53C69.39,107.53 73.09,104.01 73.09,99.67L73.09,90.08L64,90.08Z" style="fill:#e39400;fill-rule:nonzero;"/>
    </g>
    <g transform="matrix(1,0,0,1,8.20841,0)">
        <rect x="88.7" y="119.37" width="3" height="8.46" style="fill-opacity:0.54;"/>
    </g>
    <g transform="matrix(1,0,0,1,8.20841,0)">
        <path d="M96.19,51.47C96.19,51.47 102.08,52.49 102.08,58.84C102.08,64.44 97.78,66.65 93.48,66.65L93.48,51.47L96.19,51.47ZM31.91,51.47C31.91,51.47 26.02,52.49 26.02,58.84C26.02,64.44 30.32,66.65 34.62,66.65L34.62,51.47L31.91,51.47Z" style="fill:#e39400;fill-rule:nonzero;"/>
    </g>
    <g transform="matrix(1,0,0,1,8.20841,0)">
        <path d="M64.05,9.91C38.65,9.91 32.01,29.6 32.01,57.26C32.01,85.94 50.44,93.36 64.05,93.36C77.46,93.36 96.09,86.16 96.09,57.26C96.1,29.59 89.45,9.91 64.05,9.91Z" style="fill:#fbc11b;fill-rule:nonzero;"/>
    </g>
    <g transform="matrix(1,0,0,1,8.20841,0)">
        <path d="M53.5,59.82C53.5,62.68 51.59,64.99 49.22,64.99C46.86,64.99 44.93,62.67 44.93,59.82C44.93,56.96 46.85,54.64 49.22,54.64C51.59,54.64 53.5,56.96 53.5,59.82M74.6,59.82C74.6,62.68 76.51,64.99 78.89,64.99C81.25,64.99 83.17,62.67 83.17,59.82C83.17,56.96 81.25,54.64 78.89,54.64C76.51,54.64 74.6,56.96 74.6,59.82" style="fill:rgb(68,68,68);fill-rule:nonzero;"/>
    </g>
    <g transform="matrix(1,0,0,1,8.20841,0)">
        <path d="M73.33,77.29L64.06,77.29L54.79,77.29C53.73,77.29 53.27,78 53.97,79.08C54.95,80.58 58.61,83.46 64.06,83.46C69.51,83.46 73.17,80.58 74.15,79.08C74.85,78.01 74.39,77.29 73.33,77.29Z" style="fill:rgb(81,63,53);fill-rule:nonzero;"/>
    </g>
    <g transform="matrix(1,0,0,1,8.20841,0)">
        <path d="M68.53,69.41C66.95,69.86 65.31,70.07 64.05,70.07C62.79,70.07 61.15,69.85 59.57,69.41C58.9,69.22 58.63,69.86 58.87,70.28C59.37,71.16 61.39,72.94 64.05,72.94C66.71,72.94 68.73,71.16 69.23,70.28C69.47,69.86 69.21,69.22 68.53,69.41Z" style="fill:#e39400;fill-rule:nonzero;"/>
    </g>
    <g transform="matrix(1,0,0,1,8.20841,0)">
        <path d="M64.82,6.29C64.82,6.29 64.32,6.27 64.11,6.28C63.9,6.28 63.4,6.29 63.4,6.29C35.99,6.82 27.73,23.31 27.73,34.74C27.73,45.85 27.74,54.02 27.74,54.02C27.74,54.02 28.18,53.57 28.98,52.94C29.84,52.27 30.79,51.9 30.79,51.9L32.17,61.18L41.3,42.1C41.36,41.98 41.48,41.91 41.61,41.93L47.02,42.53C52.46,43.13 57.93,43.43 63.39,43.44L63.39,43.45C63.63,43.45 63.86,43.44 64.1,43.44C64.34,43.44 64.57,43.45 64.81,43.45L64.81,43.44C70.27,43.42 75.74,43.13 81.18,42.53L86.59,41.93C86.72,41.92 86.84,41.99 86.9,42.1L96.03,61.18L97.41,51.9C97.41,51.9 98.36,52.28 99.22,52.94C100.03,53.57 100.46,54.02 100.46,54.02C100.46,54.02 100.47,45.86 100.47,34.74C100.49,23.31 92.23,6.82 64.82,6.29Z" style="fill:#e1450a;fill-rule:nonzero;"/>
    </g>
    <g transform="matrix(0.999181,-0.0404636,0.0404636,0.999181,-9.37852,1.32876)">
        <g transform="matrix(0.321461,0.0518056,-0.0518056,0.321461,5.38076,76.7004)">
            <path d="M54.92,102.44C45.3,92.51 44.21,91.5 41.51,83.86C38.92,76.52 30.38,62.41 27.98,58.23C25.96,54.71 25.36,51.89 26.86,48.63C27.84,46.49 30.22,43.79 33.94,43.72C36.37,43.67 39.78,44.14 44.56,50.83C45.09,51.57 46.25,51.3 46.39,50.41C46.44,50.08 46.49,49.69 46.52,49.21C46.77,45.7 46.52,18.63 47.27,11.86C48.02,5.09 49.21,4 51.63,2.61C53.39,1.6 57.85,1.69 60.11,3.95C62.49,6.33 62.58,14.38 63.06,44.18C63.06,48.44 64.04,49.4 66.11,48.02C67.58,47.04 71.23,46.74 73.34,47.94C75.21,49.01 76.43,50.08 78.2,49.66C80.64,49.07 84.98,48.71 87.45,50.98C88.9,52.31 90.64,52.81 93.15,52.76C95.66,52.71 101.41,53.99 101.42,61.75C101.43,71.11 102.8,80.98 100.49,88.95C99.19,93.44 98.01,96.82 98.01,101.54C98.01,105.43 98.32,109.4 98.32,113.91C98.32,120.26 97.41,124.15 90.14,125.15C82.87,126.15 67.33,126.4 61.82,125.15C56.31,123.9 56.64,120.12 56.64,116.9C56.64,110.26 57.27,104.86 54.92,102.44Z" style="fill:#fac036;fill-rule:nonzero;"/>
            <clipPath id="_clip1">
                <path d="M54.92,102.44C45.3,92.51 44.21,91.5 41.51,83.86C38.92,76.52 30.38,62.41 27.98,58.23C25.96,54.71 25.36,51.89 26.86,48.63C27.84,46.49 30.22,43.79 33.94,43.72C36.37,43.67 39.78,44.14 44.56,50.83C45.09,51.57 46.25,51.3 46.39,50.41C46.44,50.08 46.49,49.69 46.52,49.21C46.77,45.7 46.52,18.63 47.27,11.86C48.02,5.09 49.21,4 51.63,2.61C53.39,1.6 57.85,1.69 60.11,3.95C62.49,6.33 62.58,14.38 63.06,44.18C63.06,48.44 64.04,49.4 66.11,48.02C67.58,47.04 71.23,46.74 73.34,47.94C75.21,49.01 76.43,50.08 78.2,49.66C80.64,49.07 84.98,48.71 87.45,50.98C88.9,52.31 90.64,52.81 93.15,52.76C95.66,52.71 101.41,53.99 101.42,61.75C101.43,71.11 103.05,80.14 100.74,88.11C99.44,92.6 98.01,96.82 98.01,101.54C98.01,105.43 98.32,109.4 98.32,113.91C98.32,120.26 97.41,124.15 90.14,125.15C82.87,126.15 67.33,126.4 61.82,125.15C56.31,123.9 56.64,120.87 56.64,117.64C56.64,111.01 57.27,104.86 54.92,102.44Z"/>
            </clipPath>
            <g clip-path="url(#_clip1)">
                <path d="M51.12,66.27C51.12,66.21 51.12,66.15 51.11,66.09C50.43,57.98 49.88,51.57 43.4,43.11C42.689,42.181 41.34,42 40.41,42.71C39.47,43.43 39.3,44.76 40.01,45.7C45.73,53.17 46.2,58.74 46.85,66.44C46.95,67.61 47.98,68.48 49.15,68.38C50.253,68.303 51.119,67.375 51.12,66.27Z" style="fill:#e48c15;fill-rule:nonzero;"/>
            </g>
        </g>
        <g transform="matrix(0.872878,-0.0787952,0.0793794,0.879351,-0.525927,87.6578)">
            <clipPath id="_clip2">
                <rect x="0" y="0" width="128" height="128"/>
            </clipPath>
            <g clip-path="url(#_clip2)">
                <path d="M44.63,136.16L37.5,134.3C24.38,130.87 16.93,134.04 13.04,105.32L8.92,72.68C8.65,70.46 8.75,68.21 9.22,66.03L15.73,35.94C15.944,34.928 16.914,34.243 17.94,34.38L32.94,36.32C33.99,36.46 34.75,37.38 34.68,38.44L33.02,67.02C32.92,69 33.1,71 33.57,72.93L38.99,95L44.63,136.16Z" style="fill:#00bfa5;fill-rule:nonzero;"/>
            </g>
        </g>
    </g>
    <g transform="matrix(0.866025,0.5,-0.5,0.866025,53.2542,-3.13378)">
        <g transform="matrix(0.72365,0,0,0.59443,2.73663,30.2541)">
            <path d="M12.875,71.048C14.625,73.288 17.309,74.596 20.151,74.596C22.994,74.596 25.678,73.288 27.428,71.048" style="fill:none;stroke:rgb(64,192,231);stroke-width:5.68px;"/>
        </g>
        <g transform="matrix(1.46248,0,0,1.20133,-12.1518,-9.41386)">
            <path d="M12.875,71.048C14.625,73.288 17.309,74.596 20.151,74.596C22.994,74.596 25.678,73.288 27.428,71.048" style="fill:none;stroke:rgb(64,192,231);stroke-width:2.81px;"/>
        </g>
        <g transform="matrix(2.19588,0,0,1.80377,-26.9309,-48.7907)">
            <path d="M12.875,71.048C14.625,73.288 17.309,74.596 20.151,74.596C22.994,74.596 25.678,73.288 27.428,71.048" style="fill:none;stroke:rgb(64,192,231);stroke-width:1.87px;"/>
        </g>
    </g>
</svg>
