<?xml version="1.0" encoding="utf-8"?>
<!-- Generator: Adobe Illustrator 19.2.1, SVG Export Plug-In . SVG Version: 6.00 Build 0)  -->
<svg version="1.1" id="レイヤー_1" xmlns="http://www.w3.org/2000/svg" xmlns:xlink="http://www.w3.org/1999/xlink" x="0px"
	 y="0px" viewBox="0 0 128 128" style="enable-background:new 0 0 128 128;" xml:space="preserve">
<g>
	<g>
		<defs>
			<path id="SVGID_1_" d="M86.63,36.54c-0.82,0.19-1.65,0.38-2.48,0.53c-9.06,1.66-18.11,1.54-27.17,1.25
				c-4.44-0.14-8.89-0.45-13.21-1.25c-0.85-0.16-1.67-0.33-2.49-0.51l1.61,58.72c5.99,6.62,16.06,6.47,20.89,6.4
				c4.82,0.07,14.72-1.01,20.79-7.02L86.63,36.54z"/>
		</defs>
		<clipPath id="SVGID_2_">
			<use xlink:href="#SVGID_1_"  style="overflow:visible;"/>
		</clipPath>
		<rect x="38.47" y="26.98" style="clip-path:url(#SVGID_2_);fill:#FFFFFF;" width="51.22" height="79.05"/>
		<path style="clip-path:url(#SVGID_2_);fill:#ED6C30;" d="M60.41,35.4c-16.79,2.77-21.77,12.38-21.77,12.38l2.13,18.64
			c0,0,1.92-6.98,13.94-13.4c12.46-6.66,27.18-8.79,33.73-20.5L60.41,35.4z"/>
		<path style="clip-path:url(#SVGID_2_);fill:#006CA2;" d="M87.53,42.95c-1.57,7.45-8.14,13.4-13.92,16.04
			C63.2,63.75,57.83,66.28,53,69.41c-10.09,6.55-11.92,14.66-11.92,14.66v11.67l6.24,4.54c0,0,3.81-7.41,9.6-12.96
			c7.11-6.8,11.29-8.01,19.97-13.22c6.45-3.86,10.64-10.68,10.64-10.68V42.95z"/>
		<path style="clip-path:url(#SVGID_2_);fill:#ED6C30;" d="M62.13,104.69c0,0,3.62-6.19,8.03-10.31c8.46-7.91,13.18-6.92,17.1-17.87
			v18.5C87.26,95.02,84.61,104.52,62.13,104.69z"/>
	</g>
	<g>
		<path style="fill:#78A3AD;" d="M48.21,7.15c2.32-2.86,5.31-4.7,8.59-5.53c4.54-1.15,10.01-1.15,14.55,0
			c3.27,0.83,6.26,2.67,8.56,5.53c1.48,1.82,4.04,5.05,3.31,7.76c-0.38,1.41-1.41,1.67-2.49,2.11c-2.64,1.06-5.42,1.59-8.23,1.83
			c-5.74,0.47-11.23,0.47-16.96,0c-2.8-0.24-5.58-0.78-8.21-1.83c-1.08-0.44-2.1-0.7-2.47-2.11C44.13,12.19,46.72,8.97,48.21,7.15z"
			/>
		<path style="fill:#78A3AD;" d="M91.21,28.19c-2.39,1.2-4.93,2.07-7.66,2.6c-3.73,0.73-7.54,1.19-11.37,1.45
			c-5.35,0.36-10.99,0.37-16.43,0c-3.83-0.26-7.63-0.72-11.35-1.45c-2.74-0.53-5.26-1.4-7.64-2.6c-2.3-1.16-3.38-3.3-2.12-5.53
			c0.9-1.59,2.53-2.83,4.55-3.17c1.09-0.2,5.43,4.25,24.5,4.25c19.44,0,24.06-4.45,25.17-4.25c2.02,0.35,3.64,1.58,4.53,3.17
			C94.61,24.89,93.52,27.03,91.21,28.19z"/>
		<path style="fill:#78A3AD;" d="M80.02,120.44c-2.32,3.04-5.32,5.01-8.62,5.89c-4.57,1.22-10.07,1.22-14.65,0
			c-3.29-0.88-6.31-2.85-8.64-5.89c-0.52-0.68-1.18-1.57-1.79-2.54c2.35,1.35,4.94,2.36,7.71,2.9c6.25,1.22,13.77,1.22,20.03,0
			c2.79-0.55,5.4-1.57,7.76-2.95C81.22,118.85,80.55,119.75,80.02,120.44z"/>
		<path style="fill:#78A3AD;" d="M91.72,103.65c-0.73,2.6-2.57,5.23-4.84,6.68c-2.58,1.65-5.31,3.03-8.23,3.9
			c-9.29,2.77-20.73,2.77-30.01,0c-2.91-0.87-5.62-2.25-8.19-3.9c-2.26-1.46-4.09-4.09-4.79-6.68c-0.36-1.32-0.43-2.79,0.19-4.08
			c0.49-1.05,1.67-2.61,2.99-2.17c0.75,0.25,1.31,1.3,1.77,1.89c0.69,0.89,1.47,1.68,2.37,2.39c1.81,1.43,3.94,2.45,6.15,3.19
			c8.63,2.89,20.43,2.9,29.1,0c2.22-0.74,4.35-1.76,6.17-3.19c0.91-0.71,1.69-1.5,2.4-2.39c0.46-0.59,1.03-1.64,1.78-1.89
			c1.32-0.44,2.48,1.12,2.97,2.17C92.16,100.86,92.09,102.33,91.72,103.65z"/>
	</g>
</g>
</svg>
