<svg enable-background="new 0 0 128 128" viewBox="0 0 128 128" xmlns="http://www.w3.org/2000/svg" xmlns:xlink="http://www.w3.org/1999/xlink"><linearGradient id="h" x1="61.844" x2="61.844" y1="3.441" y2="117.65" gradientUnits="userSpaceOnUse"><stop stop-color="#9E9E9E" offset="0"/><stop stop-color="#616161" offset="1"/></linearGradient><path d="m96.39 97.77c-0.65-0.75-1.16-1.61-1.41-2.55-0.03-0.1-0.06-0.21-0.08-0.31-1.39-5.26-1.88-9.51-2.45-12.21v-74.09c0-2.56-2.21-4.64-4.92-4.6-0.29 0-0.61 0.01-0.92 0.02-11.59 0.05-37.62 2.83-44.67 26.07 0 0 0 4.31 4.57 8.62 0 0-8.85 8.34-13.49 29.14-0.15 0.67-0.27 1.34-0.36 2.02-0.65 4.68-3.58 24.83-6.89 33.85-0.89 2.43 0.52 5.07 3.12 5.82 4.02 1.17 10.14 2.45 17.63 2.45 0.1 0 0.2 0 0.3-0.01-1.82 4.45-2.86 7.77-3 8.01-0.89 1.62-1.4 5.27 13.89 3.53 2.34-0.27 4.66-0.7 6.93-1.23 12.7-2.96 23.88-9.37 28.4-12.19 1.65-1.03 3.23-2.93 4.18-4.75 0.19-0.37 0.37-0.74 0.51-1.1 0.78-2.06 0.72-4.13-1.34-6.49z" fill="url(#h)"/><linearGradient id="g" x1="46.75" x2="73.192" y1="102.81" y2="102.81" gradientUnits="userSpaceOnUse"><stop stop-color="#9E9E9E" offset="0"/><stop stop-color="#616161" offset="1"/></linearGradient><path d="m74.01 82.46c-3.84 1.52-8.21 3.89-12.76 7.33-10.56 7.96-17.08 29.6-17.43 30.23-0.89 1.62-1.4 5.27 13.89 3.53 2.34-0.27 4.66-0.7 6.93-1.23 2.75-10.54 13.57-27.23 21.21-38.13-3.2-2.53-7.72-3.36-11.84-1.73z" fill="url(#g)"/><path d="m96.39 97.77c-0.65-0.75-1.16-1.61-1.41-2.55-0.03-0.1-0.06-0.21-0.08-0.31-3.14-11.9-1.71-18.68-6.85-13.83-0.69 0.97-1.43 2.01-2.2 3.11-7.63 10.9-18.45 27.58-21.21 38.13 12.7-2.96 23.88-9.37 28.4-12.19 1.65-1.03 3.23-2.93 4.18-4.75 0.19-0.37 0.37-0.74 0.51-1.1 0.78-2.08 0.72-4.15-1.34-6.51z" fill="#616161"/><radialGradient id="f" cx="58.352" cy="102.76" r="15.544" gradientTransform="matrix(.2245 .9745 -2.4854 .5725 300.66 -12.927)" gradientUnits="userSpaceOnUse"><stop stop-color="#616161" offset="0"/><stop stop-color="#616161" stop-opacity="0" offset="1"/></radialGradient><path d="m96.39 97.77c-0.65-0.75-1.16-1.61-1.41-2.55-0.03-0.1-0.06-0.21-0.08-0.31-3.14-11.9-1.71-18.68-6.85-13.83-0.69 0.97-1.43 2.01-2.2 3.11-3.2-2.53-7.72-3.36-11.84-1.73-3.84 1.52-8.21 3.89-12.76 7.33-10.56 7.96-17.08 29.6-17.43 30.23-0.89 1.62-1.4 5.27 13.89 3.53 2.34-0.27 4.66-0.7 6.93-1.23 12.7-2.96 23.88-9.37 28.4-12.19 1.65-1.03 3.23-2.93 4.18-4.75 0.19-0.37 0.37-0.74 0.51-1.1 0.78-2.08 0.72-4.15-1.34-6.51z" fill="url(#f)" opacity=".7"/><defs><path id="e" d="m96.39 97.77c-0.65-0.75-1.16-1.61-1.41-2.55-0.03-0.1-0.06-0.21-0.08-0.31-3.14-11.9-1.71-18.68-6.85-13.83-0.69 0.97-1.43 2.01-2.2 3.11-3.2-2.53-7.72-3.36-11.84-1.73-3.84 1.52-8.21 3.89-12.76 7.33-10.56 7.96-17.08 29.6-17.43 30.23-0.89 1.62-1.4 5.27 13.89 3.53 2.34-0.27 4.66-0.7 6.93-1.23 12.7-2.96 23.88-9.37 28.4-12.19 1.65-1.03 3.23-2.93 4.18-4.75 0.19-0.37 0.37-0.74 0.51-1.1 0.78-2.08 0.72-4.15-1.34-6.51z"/></defs><clipPath><use xlink:href="#e"/></clipPath><linearGradient id="d" x1="58.875" x2="58.875" y1="-7.0961" y2="113.48" gradientUnits="userSpaceOnUse"><stop stop-color="#E0E0E0" offset="0"/><stop stop-color="#9E9E9E" offset="1"/></linearGradient><path d="m86.92 4.02c-11.44 0.01-37.87 2.63-44.98 26.08 0 0 0 4.31 4.57 8.62 0 0-8.85 8.34-13.49 29.14-0.15 0.67-0.27 1.34-0.36 2.02-0.65 4.68-3.58 24.83-6.89 33.85-0.89 2.43 0.52 5.07 3.12 5.82 4.02 1.17 10.14 2.45 17.63 2.45 13.72 0 45.73-8.62 45.73-21.55v-81.4c0-2.78-2.38-5.03-5.33-5.03z" fill="url(#d)"/><path d="m88.27 4.92s13.72-4.31 13.72 17.24v32.98c0 2.84 0.18 5.68 0.43 8.51 0.43 4.85-0.43 14.55-14.15 14.55v-73.28z" fill="#616161"/><radialGradient id="c" cx="90.923" cy="46.508" r="6.255" gradientTransform="matrix(1 0 0 5.4357 0 -206.29)" gradientUnits="userSpaceOnUse"><stop stop-color="#616161" offset="0"/><stop stop-color="#616161" stop-opacity="0" offset="1"/></radialGradient><path d="m92.45 14.12s4.9-3.75 4.9 14.99v31.82c0 1.01 0.03 2.01 0.09 3.02 0.23 3.49 0.44 13.86-4.99 13.86v-63.69z" fill="url(#c)" opacity=".7"/><linearGradient id="b" x1="73.366" x2="73.366" y1="3.5" y2="105.66" gradientUnits="userSpaceOnUse"><stop stop-color="#9E9E9E" offset="0"/><stop stop-color="#616161" offset="1"/></linearGradient><path d="m84.75 4.11c-2.96 3.31-2.7 11.6 0.34 20.09 2.08 5.82 2.69 12.02 2.07 18.14-1.87 18.65-8.58 53.87-32.88 69 15.36-2.17 38.17-9.53 38.17-20.46v-82.27c0-2.56-2.21-4.64-4.92-4.6-0.84 0-1.77 0.03-2.78 0.1z" fill="url(#b)"/><linearGradient id="a" x1="53.952" x2="64.972" y1="13.211" y2="33.235" gradientUnits="userSpaceOnUse"><stop stop-color="#9E9E9E" offset="0"/><stop stop-color="#616161" offset="1"/></linearGradient><path d="m84.44 28.36s-7.14-6.09-15.09-7.14c-19.25-2.54-27.2 9.3-27.2 9.3s-0.23 4.04 4.34 8.35l2.2 0.37c16.74 0.61 29.49-4.06 35.46-6.81 1.73-0.79 1.9-3.06 0.29-4.07z" fill="url(#a)"/><path d="m83.31 21.9" fill="#FFA000"/><path d="m40 81.42c-0.86 0.11-1.09-0.07-0.42-0.58 1.98-1.51 14.4-13.34 16.16-14.5 1.19-0.79-13.62-5.02-20.64-5.81-0.66 2.1-1.37 4.32-1.94 6.76-0.25 1.09-0.44 2.19-0.6 3.29-0.22 1.54-2.07 13.14-2.08 13.18-1.97 10.47-3.21 15.44-4.4 19 6.19-3.98 9.62-9.24 11.42-13.27 0.74-1.66 2.48-2.58 4.37-2.83 6.79-0.91 11.98-1.06 14.44-2.07 0.16-0.07 0.18-0.29 0.03-0.39-3.51-2.36-8.91-3.75-16.34-2.78z" fill="#BDBDBD"/><g opacity=".2"><path d="m86.92 7.02c0.4 0 0.79 0.1 1.18 0.31 0.43 0.23 0.91 0.34 1.4 0.34 0.14 0 0.27-0.01 0.41-0.03 0.36-0.05 0.73-0.07 1.09-0.07 6.61 0 8 7.94 8 14.59v32.98c0 2.59 0.14 5.37 0.44 8.77 0.56 6.33-2.03 10.03-7.69 11.01-1.44 0.25-2.49 1.5-2.49 2.96v3.93c0 0.25 0.03 0.5 0.09 0.74 0.23 0.89 0.44 2.17 0.7 3.65 0.43 2.56 0.97 5.74 1.96 9.46l0.08 0.31c0.35 1.34 1.04 2.6 2.05 3.76 1.24 1.43 1.24 2.29 0.79 3.46-0.08 0.2-0.2 0.46-0.36 0.78-0.76 1.46-2.01 2.9-3.11 3.59-4.14 2.59-15.09 8.93-27.48 11.81-2.37 0.55-4.52 0.93-6.59 1.17-2.56 0.29-4.79 0.44-6.61 0.44-2.09 0-3.3-0.19-3.96-0.36 0.06-0.17 0.13-0.37 0.22-0.63 0.47-1.34 1.33-3.83 2.58-6.88 0.38-0.93 0.27-1.99-0.29-2.82-0.56-0.82-1.49-1.32-2.48-1.32h-0.03-0.19-0.09c-7.24 0-13.13-1.27-16.79-2.33-0.49-0.14-0.87-0.44-1.08-0.85-0.12-0.24-0.23-0.61-0.06-1.06 3.37-9.15 6.25-28.7 7.05-34.47 0.09-0.65 0.19-1.23 0.32-1.78 0.17-0.75 0.36-1.54 0.59-2.48 0.34-1.36-0.3-2.77-1.55-3.41-1.4-0.71-1.77-1.28-1.79-1.42-0.03-0.22 0.24-1.11 1.86-2.63 0.11-0.1 2.66-2.52 6.31-6.64 0.18-0.2 0.33-0.43 0.45-0.68 3.47-7.14 6.74-10.33 6.76-10.35 0.6-0.57 0.94-1.36 0.94-2.18 0-0.83-0.34-1.62-0.94-2.18-2.81-2.65-3.45-5.17-3.59-6.11 6.76-21.07 31.51-23.37 41.9-23.38m0-3c-11.44 0.01-37.87 2.63-44.98 26.08 0 0 0 4.31 4.57 8.62 0 0-3.59 3.39-7.4 11.22-3.6 4.07-6.12 6.45-6.12 6.45-4.43 4.17-3.14 7 0.63 8.91-0.21 0.83-0.42 1.68-0.61 2.56-0.15 0.67-0.27 1.34-0.36 2.02-0.65 4.68-3.58 24.83-6.89 33.85-0.89 2.43 0.52 5.07 3.12 5.82 4.02 1.17 10.14 2.45 17.63 2.45 0.1 0 0.2 0 0.3-0.01-1.82 4.45-2.86 7.77-3 8.01-0.73 1.32-1.2 3.99 6.93 3.99 1.84 0 4.13-0.14 6.95-0.46 2.34-0.27 4.66-0.7 6.93-1.23 12.7-2.96 23.88-9.37 28.4-12.19 1.65-1.03 3.23-2.93 4.18-4.75 0.19-0.37 0.37-0.74 0.51-1.1 0.79-2.07 0.72-4.14-1.34-6.5-0.65-0.75-1.16-1.61-1.41-2.55-0.03-0.1-0.06-0.21-0.08-0.31-1.55-5.87-1.98-10.49-2.65-13.09v-3.93c9.9-1.71 10.55-9.9 10.17-14.23-0.25-2.83-0.43-5.67-0.43-8.51v-32.97c0-15.4-7-17.59-11-17.59-0.57 0-1.08 0.04-1.5 0.1-0.74-0.41-1.61-0.66-2.55-0.66z" fill="#424242"/></g><linearGradient id="k" x1="49.592" x2="49.592" y1="14.995" y2="63.582" gradientUnits="userSpaceOnUse"><stop stop-color="#E0E0E0" offset="0"/><stop stop-color="#9E9E9E" offset="1"/></linearGradient><path d="m60.65 26.53c3.27 0.89 7.46 3.47 9.96 10.55 0 0-11.85 5.13-14.3 15.51-0.47 1.97-0.03 4.03 1.09 5.75 1.16 1.79 2.62 4.81 2.97 9.07 0.08 1.04-0.82 1.91-1.92 1.89-8.08-0.2-39.07-3.1-27.19-14.29 0 0 14.31-9.5 23.02-25.9 1.16-2.21 3.88-3.26 6.37-2.58z" fill="url(#k)"/><linearGradient id="j" x1="32.899" x2="45.814" y1="52.602" y2="66.109" gradientUnits="userSpaceOnUse"><stop stop-color="#9E9E9E" offset="0"/><stop stop-color="#616161" offset="1"/></linearGradient><path d="m28.58 59.88c0.94 8.21 23.29 9.26 30.08 9.42 0.89 0.02 1.44-0.89 1-1.62-4.63-7.63-22.08-8.27-31.08-7.8z" fill="url(#j)"/><path d="m43.64 62.71c2.29 0.26 8.25 1.09 10.54 3.1 0.4 0.35 0.29 0.98-0.22 1.16-0.89 0.33-2.55 0.74-5.3 0.78-2.3 0.04-4.53-1.12-5.47-3.1-0.16-0.35-0.29-0.72-0.37-1.13-0.09-0.45 0.33-0.86 0.82-0.81z" fill="#515151"/><path d="m32.93 60.96s2.44 4.06 4.89 5.71c0 0-2.23-0.27-3.96-1.25-1.12-0.63-1.74-1.86-1.48-3.08 0.09-0.43 0.26-0.89 0.55-1.38z" fill="#515151"/><g fill="#A1887F"><path d="m53.65 76.02c0.32 0.64 1.78 0.71 3.27 0.17s2.44-1.5 2.12-2.13c-0.32-0.64-1.78-0.71-3.27-0.17-1.48 0.54-2.43 1.5-2.12 2.13z" opacity=".2"/><path d="m59.69 85.54c0.63 0.22 1.6-0.49 2.15-1.58s0.49-2.15-0.14-2.37-1.6 0.49-2.15 1.58c-0.56 1.09-0.5 2.15 0.14 2.37z" opacity=".2"/><path d="m37.51 78.32c0.63 0.22 1.6-0.49 2.15-1.58s0.49-2.15-0.14-2.37-1.6 0.49-2.15 1.58c-0.56 1.09-0.49 2.15 0.14 2.37z" opacity=".2"/><path d="m63.06 92.91c0.41 0.72 2.14 0.59 3.87-0.28s2.81-2.16 2.4-2.88-2.14-0.59-3.87 0.28-2.8 2.16-2.4 2.88z" opacity=".08"/><path d="m76.7 21.79c0.35 0.62 1.86 0.52 3.36-0.24s2.43-1.87 2.08-2.49-1.86-0.52-3.36 0.24c-1.5 0.75-2.44 1.87-2.08 2.49z" opacity=".08"/><path d="m43.82 58.67c0.35 0.62 1.86 0.52 3.36-0.24s2.43-1.87 2.08-2.49-1.86-0.52-3.36 0.24c-1.5 0.75-2.43 1.86-2.08 2.49z" opacity=".08"/><path d="m33.12 73.72c0.35 0.62 1.84 0.51 3.33-0.24s2.42-1.86 2.07-2.48-1.84-0.51-3.33 0.24-2.42 1.86-2.07 2.48z" opacity=".08"/><path d="m80.58 95.27c0.35 0.62 1.6 0.63 2.79 0.03s1.87-1.58 1.52-2.2-1.6-0.63-2.79-0.03-1.87 1.59-1.52 2.2z" opacity=".08"/><path d="m67.06 83.32c0.43 0.75 1.95 0.77 3.41 0.04s2.29-1.94 1.86-2.69-1.95-0.77-3.41-0.04c-1.46 0.74-2.29 1.94-1.86 2.69z" opacity=".08"/><path d="m65 25.55c0.36 0.64 1.65 0.65 2.88 0.03s1.93-1.63 1.57-2.27-1.65-0.65-2.88-0.03-1.93 1.63-1.57 2.27z" opacity=".08"/><path d="m79.77 86.55c0.28 0.49 1.47 0.41 2.66-0.19s1.93-1.48 1.65-1.98c-0.28-0.49-1.47-0.41-2.66 0.19s-1.93 1.48-1.65 1.98z" opacity=".08"/><path d="m42.56 92.57c0.23 0.64 1.64 0.73 3.16 0.2 1.51-0.53 2.56-1.47 2.33-2.11s-1.64-0.73-3.16-0.2-2.56 1.48-2.33 2.11z" opacity=".08"/><path d="m51.54 19.22c0.23 0.64 1.64 0.73 3.16 0.2 1.51-0.53 2.56-1.47 2.33-2.11s-1.64-0.73-3.16-0.2-2.56 1.47-2.33 2.11z" opacity=".08"/><path d="m85.7 42.56c-0.6 0.37-0.33 1.68 0.6 2.93s2.16 1.96 2.76 1.59 0.33-1.68-0.6-2.93-2.16-1.96-2.76-1.59z" opacity=".08"/><path d="m73.44 73.69c0.23 0.89 2.06 1.16 4.09 0.61s3.49-1.72 3.27-2.6c-0.23-0.89-2.06-1.16-4.09-0.61s-3.49 1.71-3.27 2.6z" opacity=".2"/><path d="m46.92 98.61c-0.09 0.62 1.12 1.19 2.7 1.26s2.94-0.37 3.03-1c0.09-0.62-1.12-1.19-2.7-1.26s-2.94 0.38-3.03 1z" opacity=".2"/><path d="m71.63 104.31c0.27 0.49 1.68 0.42 3.16-0.16s2.46-1.46 2.19-1.95-1.68-0.42-3.16 0.16c-1.48 0.59-2.46 1.46-2.19 1.95z" opacity=".2"/><path d="m65.42 113.9c0.27 0.49 1.68 0.42 3.16-0.16s2.46-1.46 2.19-1.95-1.68-0.42-3.16 0.16c-1.47 0.58-2.45 1.45-2.19 1.95z" opacity=".2"/><path d="m66.58 72.5c0.63 0.45 2.05-0.17 3.15-1.38 1.11-1.21 1.49-2.55 0.86-3s-2.05 0.17-3.15 1.38-1.5 2.56-0.86 3z" opacity=".2"/><path d="m39.72 68.94c-0.56 0.5-0.14 1.94 0.94 3.22s2.41 1.91 2.97 1.41 0.14-1.94-0.94-3.22-2.41-1.91-2.97-1.41z" opacity=".2"/><ellipse cx="40.28" cy="97.77" rx="2.59" ry="1.34" opacity=".08"/><path d="m47.16 105.97c-0.26 0.94 1.31 2.05 3.51 2.49 2.19 0.44 4.18 0.04 4.44-0.9s-1.31-2.05-3.51-2.49-4.18-0.04-4.44 0.9z" opacity=".2"/><path d="m55.09 94.55c-0.1 0.66 1.19 1.26 2.87 1.34s3.12-0.4 3.22-1.06-1.19-1.26-2.87-1.34c-1.68-0.07-3.12 0.4-3.22 1.06z" opacity=".2"/><path d="m51.76 121.62c-0.1 0.66 1.19 1.26 2.87 1.34s3.12-0.4 3.22-1.06-1.19-1.26-2.87-1.34-3.12 0.4-3.22 1.06z" opacity=".2"/><path d="m34.55 105.87c0.19 0.36 1.22 0.3 2.28-0.12 1.07-0.42 1.78-1.05 1.59-1.41s-1.22-0.3-2.28 0.12-1.78 1.06-1.59 1.41z" opacity=".2"/><path d="m81.33 47.43c-0.63 0.37-0.53 1.75 0.22 3.08s1.87 2.1 2.5 1.72c0.63-0.37 0.53-1.75-0.22-3.08-0.75-1.32-1.87-2.09-2.5-1.72z" opacity=".2"/><path d="m60.49 49.91c-0.44 0.48-0.09 1.58 0.79 2.46s1.96 1.2 2.4 0.73c0.44-0.48 0.09-1.58-0.79-2.46s-1.96-1.21-2.4-0.73z" opacity=".2"/><path d="m69.41 42.76c-0.86 0.1-1.36 1.67-1.12 3.5 0.24 1.84 1.13 3.24 1.98 3.14 0.86-0.1 1.36-1.67 1.12-3.5s-1.12-3.23-1.98-3.14z" opacity=".08"/><path d="m77.94 38.72c-0.86 0.1-1.36 1.67-1.12 3.5 0.24 1.84 1.13 3.24 1.98 3.14 0.86-0.1 1.36-1.67 1.12-3.5s-1.12-3.24-1.98-3.14z" opacity=".08"/><path d="m56.69 28.72c-0.86 0.1-1.36 1.67-1.12 3.5 0.24 1.84 1.13 3.24 1.98 3.14 0.86-0.1 1.36-1.67 1.12-3.5-0.23-1.83-1.12-3.24-1.98-3.14z" opacity=".08"/><path d="m71 15.95c-0.54-0.38-1.62 0.12-2.42 1.12s-1.02 2.12-0.48 2.5 1.62-0.12 2.42-1.12 1.01-2.12 0.48-2.5z" opacity=".08"/><path d="m47.41 47.14c-0.74 0.09-1.2 1.18-1.03 2.44s0.89 2.22 1.63 2.13 1.2-1.18 1.03-2.44-0.9-2.22-1.63-2.13z" opacity=".08"/><path d="m65.9 57.97c-0.9 0.1-1.47 1.44-1.26 2.98 0.2 1.54 1.09 2.71 1.99 2.61s1.47-1.44 1.26-2.98c-0.2-1.54-1.09-2.71-1.99-2.61z" opacity=".08"/><path d="m31.6 89.43c-0.49 0.32-0.25 1.43 0.53 2.47s1.8 1.62 2.28 1.3c0.49-0.32 0.25-1.43-0.53-2.47-0.77-1.04-1.79-1.62-2.28-1.3z" opacity=".08"/><path d="m49.51 39.84c-0.52 0.46 0 1.71 1.15 2.78s2.5 1.56 3.01 1.09 0-1.71-1.15-2.78-2.5-1.56-3.01-1.09z" opacity=".08"/><path d="m62.92 34.4c-0.58-0.31-1.58 0.56-2.22 1.92s-0.69 2.72-0.1 3.03c0.58 0.31 1.58-0.56 2.22-1.92s0.68-2.72 0.1-3.03z" opacity=".2"/><path d="m49.13 29.99c0.45-0.5-0.04-0.96-1.08-1.03s-2.25 0.28-2.69 0.77c-0.45 0.5 0.04 0.96 1.08 1.03s2.25-0.27 2.69-0.77z" opacity=".2"/><path d="m76.6 60.46c-0.67 0.4-0.57 1.86 0.23 3.27s1.99 2.23 2.66 1.83 0.57-1.86-0.23-3.27c-0.8-1.4-1.99-2.22-2.66-1.83z" opacity=".2"/><path d="m62.52 12.69c-0.78 0.09-1.27 1.25-1.1 2.59s0.95 2.35 1.73 2.26 1.27-1.25 1.1-2.59-0.95-2.35-1.73-2.26z" opacity=".08"/><path d="m77.92 48.71c-0.8-0.04-1.66 1.1-1.91 2.56s0.19 2.68 0.99 2.72 1.66-1.1 1.91-2.56-0.19-2.68-0.99-2.72z" opacity=".2"/><path d="m77.21 111.31c-0.44 0.48-0.09 1.58 0.79 2.46s1.96 1.2 2.4 0.73c0.44-0.48 0.09-1.58-0.79-2.46s-1.95-1.21-2.4-0.73z" opacity=".2"/><path d="m56.04 114c-0.55-0.13-1.28 0.54-1.64 1.5s-0.21 1.84 0.34 1.97 1.28-0.54 1.64-1.5 0.2-1.84-0.34-1.97z" opacity=".2"/><path d="m84.95 101.43c-0.86 0.1-1.36 1.67-1.12 3.5 0.24 1.84 1.13 3.24 1.98 3.14 0.86-0.1 1.36-1.67 1.12-3.5s-1.13-3.24-1.98-3.14z" opacity=".08"/><path d="m48.95 114.15c-0.9 0.1-1.47 1.44-1.26 2.98s1.09 2.71 1.99 2.61 1.47-1.44 1.26-2.98c-0.19-1.55-1.09-2.71-1.99-2.61z" opacity=".08"/><path d="m59.39 112.23c-0.67 0.4-0.57 1.86 0.23 3.27s1.99 2.23 2.66 1.83 0.57-1.86-0.23-3.27-1.99-2.23-2.66-1.83z" opacity=".2"/><path d="m93.19 100.49c-0.8-0.04-1.66 1.1-1.91 2.56s0.19 2.68 0.99 2.72 1.66-1.1 1.91-2.56c0.26-1.46-0.19-2.68-0.99-2.72z" opacity=".2"/><path d="m87.11 59.99c-0.6 0.37-0.33 1.68 0.6 2.93s2.16 1.96 2.76 1.59 0.33-1.68-0.6-2.93-2.16-1.96-2.76-1.59z" opacity=".08"/><path d="m84.44 69.95c-0.63 0.37-0.53 1.75 0.22 3.08s1.87 2.1 2.5 1.72c0.63-0.37 0.53-1.75-0.22-3.08-0.74-1.33-1.86-2.1-2.5-1.72z" opacity=".2"/><path d="m71.93 27.63c-0.63 0.37-0.53 1.75 0.22 3.08s1.87 2.1 2.5 1.72c0.63-0.37 0.53-1.75-0.22-3.08-0.75-1.32-1.87-2.1-2.5-1.72z" opacity=".2"/><path d="m89.38 6.86c-0.86 0.1-1.36 1.67-1.12 3.5s1.13 3.24 1.98 3.14c0.86-0.1 1.36-1.67 1.12-3.5s-1.12-3.24-1.98-3.14z" opacity=".08"/><path d="m95.92 47.55c-0.67 0.4-0.57 1.86 0.23 3.27s1.99 2.23 2.66 1.83 0.57-1.86-0.23-3.27-1.99-2.23-2.66-1.83z" opacity=".2"/><path d="m95.39 67.96c-0.67 0.4-0.57 1.86 0.23 3.27s1.99 2.23 2.66 1.83 0.57-1.86-0.23-3.27-1.99-2.23-2.66-1.83z" opacity=".2"/><path d="m89.36 16.85c-0.8-0.04-1.66 1.1-1.91 2.56s0.19 2.68 0.99 2.72 1.66-1.1 1.91-2.56-0.19-2.68-0.99-2.72z" opacity=".2"/><path d="m81.77 28.95c-0.63-0.02-1.33 0.84-1.56 1.92-0.23 1.07 0.08 1.96 0.71 1.97s1.33-0.84 1.56-1.92c0.24-1.07-0.08-1.95-0.71-1.97z" opacity=".2"/><path d="m41.58 51.42c-0.62-0.32-1.67 0.59-2.36 2.04-0.68 1.45-0.73 2.89-0.11 3.21s1.67-0.59 2.36-2.04c0.68-1.45 0.73-2.89 0.11-3.21z" opacity=".2"/><path d="m74.05 8.61c-0.61 0.43-0.35 2.17 0.59 3.89s2.2 2.77 2.81 2.34 0.35-2.17-0.59-3.89-2.19-2.77-2.81-2.34z" opacity=".2"/></g><linearGradient id="i" x1="43.776" x2="48.151" y1="75.596" y2="90.346" gradientUnits="userSpaceOnUse"><stop stop-color="#9E9E9E" offset="0"/><stop stop-color="#616161" offset="1"/></linearGradient><path d="m60.7 87.61c-1.86-0.75-2.97-2.07-7.11-2.82-6.01-1.09-9.35 1.3-13.51 1.04-4.86-0.31-3.8-2.49-2.14-3.29 2.25-1.08 4.96-2.23 17.19 1.46 2.39 0.72 1.33-0.39 1.33-0.39-1.17-1.58-7.63-3.77-13.28-3.92-14.75-0.39-10.2 9.58-5.36 10.89 7.55 2.04 17.96-1.19 22.76-2.35 0.37-0.08 0.47-0.48 0.12-0.62z" fill="url(#i)"/></svg>
