<?xml version="1.0" encoding="utf-8"?>
<!-- Generator: Adobe Illustrator 24.0.3, SVG Export Plug-In . SVG Version: 6.00 Build 0)  -->
<svg version="1.1" id="Layer_1" xmlns="http://www.w3.org/2000/svg" xmlns:xlink="http://www.w3.org/1999/xlink" x="0px" y="0px"
	 viewBox="0 0 128 128" style="enable-background:new 0 0 128 128;" xml:space="preserve">
<g id="face_2_">
	<g id="head_2_">
		<path style="fill:#E0BB95;" d="M72.59,18.83c-2.37-4.24-8-7.71-12.82-7.14c-5.4,0.64-8.46,4.37-9.44,9.23
			c-0.36,1.76-0.38,3.53-0.14,4.8c0.03,0.15,0.28,1.26,0.28,1.6c0.14,1.33-2.47,2.52-2.84,3.97c-0.28,1.09,1.98,1.89,2.15,2.09
			c0.85,1.02-0.78,5.69,5.47,6.4c2.18,0.25,3.54-0.12,4.3-0.06c1.8,0.15,2.8,6.11,2.8,6.11l8.75-5.76c0,0-2.09-5.86,0.07-8.95
			C73.76,27.44,74.11,21.56,72.59,18.83z"/>
	</g>
	<path id="mouth_2_" style="fill:#6D4C41;" d="M50.31,36.04c0.87,0.09,1.74-0.08,2.5-0.59c0.83-0.56,0.31-1.25-0.63-0.9
		c-0.57,0.21-1.36,0.29-2.07,0.13L50.31,36.04z"/>
	
		<ellipse id="eye_2_" transform="matrix(0.0138 -0.9999 0.9999 0.0138 25.3427 82.1682)" style="fill:#5D4037;" cx="54.33" cy="28.24" rx="1.77" ry="1.15"/>
	<path id="eyebrow_2_" style="fill:#AB872F;" d="M53.55,25.58c-1.15,0.22-1.34-0.55-0.91-1.1c0.32-0.41,1.03-0.71,2.31-0.32
		c1.21,0.36,1.64,1.12,1.93,1.59c0.29,0.46,0.21,0.89-0.08,0.9C56.41,26.66,54.97,25.32,53.55,25.58z"/>
	<g id="hairGroup">
		<path id="hair" style="fill:#AB872F;" d="M62.86,28.11l1.04-1.47c0.65-0.83,1.24-1.55,2.03-1.37c2.33,0.56,1.83,4.73-0.96,5.6
			c0,0,0.4,3.14,3.33,4c0.31,0.09,0.58,0.15,0.83,0.18c0.79,0.1,1.44-0.49,1.67-1.26c1.4-4.79,3-3.79,4.23-9.39
			c1.69-7.68-5.03-12.94-11.6-13.59c-2.56-0.25-5.22,0.06-7.6,1.05c-1.01,0.41-4.53,2.13-5.34,3.76c-1.03,2.08,0.17,3.92,0.17,3.92
			s6.87-0.29,9.99,0.49c0.41,0.1,0.87,0.25,1.05,0.64c0.08,0.17,0.1,1.23,0.1,1.42c0.07,2.4-0.19,3.89,0.47,5.43
			C62.38,27.77,62.86,28.11,62.86,28.11z"/>
		
			<radialGradient id="hairHighlights_1_" cx="121.601" cy="262.568" r="14.8746" gradientTransform="matrix(1.0385 0.0161 9.600000e-03 -1.0002 -66.7851 283.807)" gradientUnits="userSpaceOnUse">
			<stop  offset="0.5264" style="stop-color:#BFA055;stop-opacity:0"/>
			<stop  offset="1" style="stop-color:#BFA055"/>
		</radialGradient>
		<path id="hairHighlights" style="fill:url(#hairHighlights_1_);" d="M62.86,28.11l1.04-1.47c0.65-0.83,1.24-1.55,2.03-1.37
			c2.33,0.56,1.83,4.73-0.96,5.6c0,0,0.4,3.14,3.33,4c0.31,0.09,0.58,0.15,0.83,0.18c0.79,0.1,1.44-0.49,1.67-1.26
			c1.4-4.79,3-3.79,4.23-9.39c1.69-7.68-5.03-12.94-11.6-13.59c-2.56-0.25-5.22,0.06-7.6,1.05c-1.01,0.41-4.53,2.13-5.34,3.76
			c-1.03,2.08,0.17,3.92,0.17,3.92s6.87-0.29,9.99,0.49c0.41,0.1,0.87,0.25,1.05,0.64c0.08,0.17,0.1,1.23,0.1,1.42
			c0.07,2.4-0.19,3.89,0.47,5.43C62.38,27.77,62.86,28.11,62.86,28.11z"/>
	</g>
</g>
<g id="shoe_2_">
	<path style="fill:#3C469A;" d="M43.43,116.74c0.6,0.19,1.25-0.14,1.44-0.74l0.85-2.67c0.58-1.81-0.59-4.47-0.59-4.47l-6.64-2.14
		l-6.61,0.05c-1.63,0.1-3.04,1.19-3.55,2.74l-0.39,1.2c-0.17,0.53,0.12,1.09,0.65,1.26L43.43,116.74z"/>
</g>
<g id="pants_2_">
	<path style="fill:#7C7C7C;" d="M83.14,67.06l-17.02,3.62l-0.13,2.55l-7.94,0.18c-4.88,0.48-11.67,0.17-14.27,10.49l-6.89,22.59
		l9.85,3.43c0,0,7.9-21.46,8.4-21.43c0.5,0.02,15.14,0.81,24.77-0.5C89.51,86.7,83.14,67.06,83.14,67.06z"/>
</g>
<g id="shirt_2_">
	
		<radialGradient id="SVGID_1_" cx="69.4627" cy="70.7468" r="14.6023" gradientTransform="matrix(0.9502 -0.3117 -0.3117 -0.9502 26.4408 145.327)" gradientUnits="userSpaceOnUse">
		<stop  offset="0.3637" style="stop-color:#00BFA5"/>
		<stop  offset="0.8121" style="stop-color:#00B29A"/>
		<stop  offset="1" style="stop-color:#00AB94"/>
	</radialGradient>
	<path style="fill:url(#SVGID_1_);" d="M64.09,72.18c1.55-12.08-1.22-12.23-3.31-20.12c-1.06-4,0.37-8.61,1.95-10.5
		c2.91-3.5,8.84-2.84,9.96-1.07c4.1,6.51,12.73,26.79,12.73,26.79C80.71,75.96,64.09,72.18,64.09,72.18z"/>
</g>
<g id="Wheelchair_1_">
	
		<linearGradient id="SVGID_2_" gradientUnits="userSpaceOnUse" x1="70.578" y1="91.052" x2="70.578" y2="83.607" gradientTransform="matrix(1 0 0 1 0 0.1102)">
		<stop  offset="0" style="stop-color:#141111"/>
		<stop  offset="1" style="stop-color:#4E4545"/>
	</linearGradient>
	<path style="fill:url(#SVGID_2_);" d="M52.83,90.93c-1.19-0.06-2.12-1.04-2.12-2.22L51,85.35c0.17-1.35,1.16-2.14,2.72-2.14
		l28.57,0.58l8.16,8.96L52.83,90.93z"/>
	
		<linearGradient id="SVGID_3_" gradientUnits="userSpaceOnUse" x1="91.3966" y1="76.1288" x2="83.6736" y2="76.1288" gradientTransform="matrix(1 0 0 1 0 0.1102)">
		<stop  offset="0" style="stop-color:#141111"/>
		<stop  offset="1" style="stop-color:#4E4545"/>
	</linearGradient>
	<path style="fill:url(#SVGID_3_);" d="M83.07,83.05l0.88-19.03c0-2.34,0.43-3.52,2.79-3.52h2.23c2,0,2.46,0.22,2.46,2.35
		L91.2,91.97L83.07,83.05z"/>
	
		<linearGradient id="SVGID_4_" gradientUnits="userSpaceOnUse" x1="87.248" y1="91.7474" x2="87.248" y2="61.0631" gradientTransform="matrix(1 0 0 1 0 0.1102)">
		<stop  offset="0.5727" style="stop-color:#212121;stop-opacity:0"/>
		<stop  offset="1" style="stop-color:#BFBEBE"/>
	</linearGradient>
	<path style="opacity:0.5;fill:url(#SVGID_4_);enable-background:new    ;" d="M83.07,83.05l0.88-19.03c0-2.34,0.43-3.52,2.79-3.52
		h2.23c2,0,2.46,0.22,2.46,2.35L91.2,91.97L83.07,83.05z"/>
	
		<line style="fill:none;stroke:#F31612;stroke-width:4;stroke-linejoin:round;stroke-miterlimit:10;" x1="79.43" y1="100.32" x2="79.43" y2="93.18"/>
	<path style="fill:#504F4F;" d="M44.85,116.89c-0.27-0.53-0.73-0.92-1.29-1.1l-15.99-5.19c-1.23-0.36-2.41,0.31-2.78,1.44
		c-0.18,0.57-0.14,1.17,0.13,1.69c0.27,0.53,0.73,0.92,1.29,1.1l15.99,5.19c0.23,0.07,0.45,0.1,0.67,0.1c0.98,0,1.82-0.62,2.11-1.54
		C45.17,118.02,45.12,117.42,44.85,116.89z"/>
	
		<radialGradient id="SVGID_5_" cx="44.7256" cy="118.2141" r="7.3703" gradientTransform="matrix(1 0 0 1 4 0.1102)" gradientUnits="userSpaceOnUse">
		<stop  offset="0.3413" style="stop-color:#AFB8B6"/>
		<stop  offset="0.4527" style="stop-color:#A4AEAD"/>
		<stop  offset="0.6486" style="stop-color:#869295"/>
		<stop  offset="0.9042" style="stop-color:#57656F"/>
		<stop  offset="1" style="stop-color:#43535F"/>
	</radialGradient>
	<path style="fill:url(#SVGID_5_);" d="M48.51,124.21c-3.33,0-6.03-2.71-6.03-6.03s2.71-6.03,6.03-6.03c3.33,0,6.03,2.71,6.03,6.03
		S51.83,124.21,48.51,124.21z"/>
	
		<line style="fill:none;stroke:#F31612;stroke-width:3;stroke-linecap:round;stroke-linejoin:round;stroke-miterlimit:10;" x1="92.47" y1="61.83" x2="91.69" y2="93.25"/>
	<path style="fill:none;stroke:#F31612;stroke-width:3;stroke-linecap:round;stroke-linejoin:round;stroke-miterlimit:10;" d="
		M90.67,93.83l-32.82-1.91c-8.36,0-12.02,3.02-15.15,12.83l-4.78,13.87"/>
	<path style="fill:none;stroke:#F31612;stroke-width:3;stroke-linecap:round;stroke-linejoin:round;stroke-miterlimit:10;" d="
		M90.67,93.83l-32.82-1.91c-8.36,0-12.02,3.02-15.15,12.83l-4.78,13.87"/>
	<path style="fill:none;stroke:#F31612;stroke-width:3;stroke-linecap:round;stroke-linejoin:round;stroke-miterlimit:10;" d="
		M41.96,106.75c3.62,0,6.55,2.93,6.55,6.55v4.88"/>
	
		<radialGradient id="SVGID_6_" cx="62.4676" cy="71.9781" r="23.868" gradientTransform="matrix(1 0 0 1 4 0.1102)" gradientUnits="userSpaceOnUse">
		<stop  offset="0" style="stop-color:#FA6E6B"/>
		<stop  offset="0.1965" style="stop-color:#F96360"/>
		<stop  offset="0.542" style="stop-color:#F74643"/>
		<stop  offset="0.9934" style="stop-color:#F31613"/>
		<stop  offset="1" style="stop-color:#F31612"/>
	</radialGradient>
	<path style="fill:url(#SVGID_6_);" d="M90.67,94.56c0,0,2.16,0.12,2.16-1.97s0.34-15.09,0.34-15.09
		C90,74.59,60.72,65.13,53.1,93.22l4.22-0.45l12.51,0.69c2.2-3.66,5.83-6.01,11.6-5.79C85.58,87.81,89.41,90.35,90.67,94.56z"/>
	
		<radialGradient id="SVGID_7_" cx="75.428" cy="100.2138" r="1.1073" gradientTransform="matrix(1 0 0 1 4 0.1102)" gradientUnits="userSpaceOnUse">
		<stop  offset="0" style="stop-color:#6E7D85"/>
		<stop  offset="0.6185" style="stop-color:#50606B"/>
		<stop  offset="1" style="stop-color:#43535F"/>
	</radialGradient>
	<circle style="fill:url(#SVGID_7_);" cx="79.43" cy="100.32" r="1.11"/>
	<path style="fill:#8A9799;" d="M79.43,99.71c0.33,0,0.61,0.27,0.61,0.61s-0.27,0.61-0.61,0.61s-0.61-0.27-0.61-0.61
		S79.1,99.71,79.43,99.71 M79.43,98.71c-0.89,0-1.61,0.72-1.61,1.61s0.72,1.61,1.61,1.61s1.61-0.72,1.61-1.61
		S80.32,98.71,79.43,98.71z"/>
	<line style="fill:none;stroke:#8A9799;stroke-miterlimit:10;" x1="79.43" y1="79.61" x2="79.43" y2="121.03"/>
	<line style="fill:none;stroke:#8A9799;stroke-miterlimit:10;" x1="94.08" y1="85.68" x2="64.79" y2="114.96"/>
	<line style="fill:none;stroke:#8A9799;stroke-miterlimit:10;" x1="94.08" y1="114.96" x2="64.79" y2="85.68"/>
	<line style="fill:none;stroke:#8A9799;stroke-miterlimit:10;" x1="58.72" y1="100.32" x2="100.14" y2="100.32"/>
	
		<radialGradient id="SVGID_8_" cx="65.4706" cy="86.665" r="40.144" gradientTransform="matrix(1 0 0 1 4 0.1102)" gradientUnits="userSpaceOnUse">
		<stop  offset="0.0171" style="stop-color:#AFB8B6"/>
		<stop  offset="0.1832" style="stop-color:#A4AEAD"/>
		<stop  offset="0.4755" style="stop-color:#869295"/>
		<stop  offset="0.8571" style="stop-color:#57656F"/>
		<stop  offset="1" style="stop-color:#43535F"/>
	</radialGradient>
	<path style="fill:url(#SVGID_8_);" d="M79.43,124.21c-13.17,0-23.89-10.72-23.89-23.89s10.72-23.89,23.89-23.89
		s23.89,10.72,23.89,23.89S92.61,124.21,79.43,124.21z M79.43,80.08c-11.16,0-20.24,9.08-20.24,20.24s9.08,20.24,20.24,20.24
		s20.24-9.08,20.24-20.24S90.59,80.08,79.43,80.08z"/>
	
		<radialGradient id="SVGID_9_" cx="75.428" cy="100.2138" r="1.1073" gradientTransform="matrix(1 0 0 1 4 0.1102)" gradientUnits="userSpaceOnUse">
		<stop  offset="0" style="stop-color:#6E7D85"/>
		<stop  offset="0.6185" style="stop-color:#50606B"/>
		<stop  offset="1" style="stop-color:#43535F"/>
	</radialGradient>
	<circle style="fill:url(#SVGID_9_);" cx="79.43" cy="100.32" r="1.11"/>
	<path style="fill:#8A9799;" d="M79.43,99.71c0.33,0,0.61,0.27,0.61,0.61s-0.27,0.61-0.61,0.61s-0.61-0.27-0.61-0.61
		S79.1,99.71,79.43,99.71 M79.43,98.71c-0.89,0-1.61,0.72-1.61,1.61s0.72,1.61,1.61,1.61s1.61-0.72,1.61-1.61
		S80.32,98.71,79.43,98.71z"/>
	<line style="fill:none;stroke:#8A9799;stroke-miterlimit:10;" x1="79.43" y1="79.61" x2="79.43" y2="121.03"/>
	<line style="fill:none;stroke:#8A9799;stroke-miterlimit:10;" x1="94.08" y1="85.68" x2="64.79" y2="114.96"/>
	<line style="fill:none;stroke:#8A9799;stroke-miterlimit:10;" x1="94.08" y1="114.96" x2="64.79" y2="85.68"/>
	<line style="fill:none;stroke:#8A9799;stroke-miterlimit:10;" x1="58.72" y1="100.32" x2="100.14" y2="100.32"/>
	
		<radialGradient id="SVGID_10_" cx="65.4706" cy="86.665" r="40.144" gradientTransform="matrix(1 0 0 1 4 0.1102)" gradientUnits="userSpaceOnUse">
		<stop  offset="0.0171" style="stop-color:#AFB8B6"/>
		<stop  offset="0.1832" style="stop-color:#A4AEAD"/>
		<stop  offset="0.4755" style="stop-color:#869295"/>
		<stop  offset="0.8571" style="stop-color:#57656F"/>
		<stop  offset="1" style="stop-color:#43535F"/>
	</radialGradient>
	<path style="fill:url(#SVGID_10_);" d="M79.43,124.21c-13.17,0-23.89-10.72-23.89-23.89s10.72-23.89,23.89-23.89
		s23.89,10.72,23.89,23.89S92.61,124.21,79.43,124.21z M79.43,80.08c-11.16,0-20.24,9.08-20.24,20.24s9.08,20.24,20.24,20.24
		s20.24-9.08,20.24-20.24S90.59,80.08,79.43,80.08z"/>
	<path style="fill:#504F4F;" d="M79.43,83.59c9.22,0,16.73,7.5,16.73,16.73s-7.5,16.73-16.73,16.73s-16.73-7.5-16.73-16.73
		S70.21,83.59,79.43,83.59 M79.43,82.59c-9.79,0-17.73,7.94-17.73,17.73s7.94,17.73,17.73,17.73s17.73-7.94,17.73-17.73
		S89.22,82.59,79.43,82.59z"/>
	<circle style="fill:#504F4F;" cx="79.43" cy="100.32" r="3.57"/>
	<path style="fill:#504F4F;" d="M46.7,114.67l0.25,3.63c0.12,0.8,0.75,1.4,1.55,1.4l0,0c0.8,0,1.42-0.6,1.54-1.4l0.26-3.63H46.7z"/>
</g>
<g id="arm">
	
		<linearGradient id="SVGID_11_" gradientUnits="userSpaceOnUse" x1="85.9353" y1="60.9207" x2="73.9354" y2="69.2928" gradientTransform="matrix(1 0 0 -1 0 128)">
		<stop  offset="0.5" style="stop-color:#E0BB95"/>
		<stop  offset="1" style="stop-color:#CCA47A"/>
	</linearGradient>
	<path style="fill:url(#SVGID_11_);" d="M74.85,47.14l-5.16,5.54l9.88,6.89l-3.68,13.42l4.41,1.78c0,0,5.14-11.34,6.1-13.23
		c1.58-3.14,1.44-5.08-0.53-7.32C84.82,53.04,74.85,47.14,74.85,47.14z"/>
</g>
<g id="handGroup_1_">
	<g id="hand_7_">
		
			<linearGradient id="SVGID_12_" gradientUnits="userSpaceOnUse" x1="74.2264" y1="46.6803" x2="75.3427" y2="49.2849" gradientTransform="matrix(1 0 0 -1 0 128)">
			<stop  offset="0" style="stop-color:#E0BB95"/>
			<stop  offset="1" style="stop-color:#CCA47A"/>
		</linearGradient>
		<path style="fill:url(#SVGID_12_);" d="M80.63,73.49c-0.23-0.18-0.43-0.35-0.62-0.51c-0.39-0.33-0.76-0.64-1.35-1.01
			c-0.72-0.44-4.15,0.93-4.93,1.22c-0.26,0.1-0.5,0.19-0.72,0.29c-0.3,0.13-0.53,0.36-0.63,0.63c-0.04,0.05-0.08,0.11-0.12,0.2
			c-0.01,0.04-0.02,0.07-0.02,0.11c0,0.01-0.25,1.5-0.65,2.31c-0.16,0.31-0.07,0.84,0.26,0.96c0,0-0.19,0.77-0.33,1.16
			c-0.17,0.46-0.12,0.61-0.14,0.82c-0.04,0.36,0.1,0.63,0.36,0.8c0.32,0.21,0.44,0.08,0.59,0.19s0.1,0.29,0.14,0.5
			c0.11,0.56,0.58,0.71,0.77,0.73c0.62,0.06,0.8-0.33,0.91-0.33c0.2,0.01,0.24,0.18,0.26,0.31c0.06,0.28,0.36,0.43,0.64,0.52
			c0.73,0.08,1.26-0.54,1.28-0.44c0.08,0.37,0.72,0.65,1.09,0.5c0.31-0.13,0.5,0.12,2.35-2.72c0.37-0.5,0.97-1.84,1.37-3.12
			l0.19-0.61C81.63,75.04,81.36,74.06,80.63,73.49z"/>
	</g>
	<g id="hand_3_">
		
			<linearGradient id="SVGID_13_" gradientUnits="userSpaceOnUse" x1="75.552" y1="50.2048" x2="73.3194" y2="46.2978" gradientTransform="matrix(1 0 0 -1 0 128)">
			<stop  offset="0.5" style="stop-color:#E0BB95"/>
			<stop  offset="1" style="stop-color:#CCA47A"/>
		</linearGradient>
		<path style="fill:url(#SVGID_13_);" d="M78.94,71.88c-1.76-0.67-6.6,1.02-6.72,2.61c-0.03,0.36,0.46,0.92,0.9,0.73
			c0,0,0,0.43,0.03,0.53c0.14,0.54,0.76,0.57,0.95,0.6c0.35,0.05,0.52,0.13,0.53,0.48c0.01,0.33,0.23,0.7,0.52,0.87
			c0.32,0.18,0.57,0.22,0.96,0.12c0.18-0.05,0.28,0.06,0.34,0.24c0.08,0.25,0.28,0.59,0.49,0.69c0.39,0.2,0.64,0.16,0.92,0.15
			c0.18,0,0.26,0.02,0.38,0.16c0.09,0.12,0.08,0.59,0.39,0.76c1.39,0.73,2.2-2.24,2.73-3.97C81.75,74.59,80.93,72.64,78.94,71.88z"
			/>
	</g>
</g>
<g id="shirt_x5F_arm_2_">
	<path style="fill:#04A287;" d="M74.92,57.53l5.87-9.39l-8.35-5.22c-2.59-1.62-6.01-0.83-7.63,1.76l0,0
		c-1.62,2.59-0.83,6.01,1.76,7.63L74.92,57.53z"/>
</g>
</svg>
