<svg xmlns="http://www.w3.org/2000/svg" xmlns:xlink="http://www.w3.org/1999/xlink" viewBox="0 0 128 128"><path d="M54.9 101.91c-1.23 0-2.4-.1-3.57-.29-2.28-.37-5.52-1.15-7.36-3.64-2.03-2.73-1.72-5.37-1.55-6.8.04-.34.09-.76.07-.9-.1-.51-.83-1.38-1.77-1.87-.13-.02-.26-.02-.39-.03-.51-.04-1.02-.08-1.57-.18a4.467 4.467 0 0 1-3.37-2.79c-.56-1.46-.32-3.1.63-4.34 1.4-1.81 2.67-2.8 4.18-3.9.49-.36.97-.73 1.44-1.1 1.55-1.21 3.31-2.58 5.59-3.58l.86-.38c2.29-1.02 4.64-2.07 7.46-2.65 2.69-.55 5.55-.89 8.29-.99 5.43-.21 10.53 1.72 14.77 3.51 4.72 1.99 8.4 7.38 8.37 12.25l.01.74c.02 1.72.04 3.85-1.07 6.13-1.41 2.92-4.38 4.86-6.62 5.97-2.33 1.16-5.08 1.76-8.41 1.85-1.24.04-2.68.47-4.2.93-1.1.33-2.22.67-3.45.93-2.74.61-5.44 1.13-8.34 1.13zm-3.63-9.45c.32.1.8.22 1.51.34 2.55.41 5.41-.07 8.61-.74.91-.19 1.8-.47 2.7-.74 1.92-.58 4.11-1.25 6.56-1.32 2-.05 3.53-.35 4.67-.92 1.62-.8 2.42-1.61 2.55-1.87.19-.39.18-1.2.17-2.14v-.89c.01-1.17-1.43-3.34-2.91-3.96-3.37-1.43-6.95-2.82-10.49-2.82l-.48.01c-2.25.08-4.61.36-6.81.81-1.86.38-3.61 1.16-5.62 2.05l-.9.4c-1.04.45-1.99 1.13-3.01 1.92 1.62 1.53 3 3.57 3.46 6.06.27 1.48.13 2.69.02 3.57 0 .09-.02.16-.03.24z" fill="#757f3f"/><path d="M35.08 104.71c.79-.75 1.94-1.2 2.93-1.48 1.57-.44 3.3-1.41 4.48-2.55.69-.66 1.36-1.34 2.02-2.02 4.05-4.2 3.75-11.58-1.95-14.33-1-.48-1.91-.32-2.98-.52 1.04-1.34 1.94-2.04 3.28-3.02 2.06-1.5 3.8-3.14 6.2-4.2 2.47-1.08 4.76-2.19 7.42-2.74 2.46-.5 5.05-.81 7.55-.9 4.5-.16 8.75 1.42 12.87 3.16 2.97 1.26 5.66 4.93 5.64 8.1-.01 1.71.16 3.36-.62 4.95-.91 1.88-2.55 3.04-4.13 4.25-1.65 1.27-3.45 1.44-5.39 2.1-1.24.43-2.18 1.5-2.92 2.56-.86 1.23-.92 2.87-1.67 4.16-1.07 1.86-2.25 2.56-3.9 3.72-1.6 1.13-3.06 2.46-4.84 3.33-2.03 1-4.18 1.59-6.2 2.57-1.91.92-3.97 1.52-6.1 1.64-1.83.1-3.4-.13-5.18-.33-1.89-.21-3.75-.18-5.16-1.7-1.26-1.37-2.54-3.11-2.24-5.04.07-.69.42-1.25.89-1.71z" fill="#ed6c30"/><path d="M75.41 98.78c3.27 7.18.73 14.27-4.54 19.11-.8.74-2.14 1.5-2.7 2.51-2.71 4.78 17.86 6.6 20.02 6.64 17.91.37 34.67-8.57 35.27-28.17.18-5.72-.42-12.18-1.91-17.72-1.47-5.47-3.58-11.51-6.5-16.38-2.94-4.92-7.94-10.44-12.7-13.2-3.27-1.89-6.51-3.5-9.98-4.86-1.17-.46-2.29-.67-3.51-.9-2.67-.52-5.67-1.34-8.37-1.31-3.85.03-7.95.75-11.33 2.92-3.06 1.97-1.98 5.08-.21 7.71 1.66 2.46 3.53 4.79 4.97 7.39.69 1.24 1.11 2.61 1.78 3.84.64 1.17 1.65 1.88 2.58 2.8.85.84 1.81 1.77 2.44 2.79.92 1.48 1.76 3.34 2.22 5.02.43 1.59-.01 3.27 0 4.9 0 1.34.1 2.58-.36 3.86-.91 2.51-2.89 4.98-4.87 6.71-.82.72-1.81 1.27-2.61 2.01-1.23 1.18-.26 3.07.31 4.33z" fill="#bdcf46"/><defs><path id="a" d="M75.41 98.78c3.27 7.18.73 14.27-4.54 19.11-.8.74-2.14 1.5-2.7 2.51-2.71 4.78 17.86 6.6 20.02 6.64 17.91.37 34.67-8.57 35.27-28.17.18-5.72-.42-12.18-1.91-17.72-1.47-5.47-3.58-11.51-6.5-16.38-2.94-4.92-7.94-10.44-12.7-13.2-3.27-1.89-6.51-3.5-9.98-4.86-1.17-.46-2.29-.67-3.51-.9-2.67-.52-5.67-1.34-8.37-1.31-3.85.03-7.95.75-11.33 2.92-3.06 1.97-1.98 5.08-.21 7.71 1.66 2.46 3.53 4.79 4.97 7.39.69 1.24 1.11 2.61 1.78 3.84.64 1.17 1.65 1.88 2.58 2.8.85.84 1.81 1.77 2.44 2.79.92 1.48 1.76 3.34 2.22 5.02.43 1.59-.01 3.27 0 4.9 0 1.34.1 2.58-.36 3.86-.91 2.51-2.89 4.98-4.87 6.71-.82.72-1.81 1.27-2.61 2.01-1.23 1.18-.26 3.07.31 4.33z"/></defs><clipPath id="b"><use xlink:href="#a" overflow="visible"/></clipPath><path d="M74.22 96.62c.95-.6 2.24-.17 3.29-.27 1.18-.11 2.58-.55 3.71-.91 2.14-.69 4.29-1.46 6.35-2.38 1.64-.74 3.24-1.35 4.82-2.24.94-.53 2.62-1.36 3.13-2.27.57.14 1.03 1.09 1.27 1.65.41.96.46 1.29-.46 2.01-1.13.88-2.4 1.64-3.59 2.45-1.55 1.05-3.37 1.47-5.04 2.24-4.62 2.13-9.28 3.07-14.31 3.07M73.08 112.25c1.08 1.17 4.12 1.62 5.61 2.06 2.62.78 5.31 1.24 8.02 1.62 2.27.33 4.65.44 6.94.52 1.19.04 2.91-.69 3.97-.38.01.99-.21 2.3-.54 3.23-2.37.16-4.71.39-7.09.28-2.78-.13-5.56-.53-8.31-1.08-1.85-.38-3.96-1.04-5.66-1.8-1.28-.58-2.65-1.37-3.95-1.79M75.58 104.23c1.31.93 4.37.72 5.92.84 2.72.2 5.45.08 8.17-.11 2.29-.17 4.64-.57 6.89-.97 1.17-.2 2.7-1.28 3.8-1.2.21.97.28 2.29.16 3.26-2.28.66-4.52 1.38-6.86 1.77-2.75.46-5.55.65-8.35.7-1.88.03-4.1-.17-5.91-.56-1.37-.3-2.89-.78-4.24-.92" clip-path="url(#b)" fill="#757f3f"/><path d="M82.67 77.29c-.46.94-1.09 1.81-1.65 2.67.3-.45 6.44 3.02 7.02 3.41 2.17 1.42 4.1 3.21 5.69 5.26 6.95 9.02 5.31 19.58 1.54 29.43-.98 2.56-2.79 5.9-4.68 7.89-1.31 1.37-5.36 3.87-1.16 4.16 6.68.46 13.25-1.36 19.42-3.78 12.38-4.86 18.56-21.18 18.56-33.63 0-6.63-1.21-12.78-3.53-18.91-1.71-4.56-4.77-8.85-7.78-12.46-1.42-1.71-2.56-3.54-4.36-4.72-1.66-1.09-3.64-1.55-5.57-1.76-3.03-.36-6.73.1-9.6 1.21-3.96 1.55-8.2 3.12-11.65 5.81-.27 2.18-.54 4.37-.82 6.57l-.63 5.11c-.08.67-.15 1.35-.25 2.03-.09.59-.29 1.16-.55 1.71z" clip-path="url(#b)" fill="#757f3f"/><path d="M72.69 49.07c.01-.11.02-.23.04-.33.26-2.63-2.61-4.02-4.46-5.26-2.7-1.82-6.27-2.68-9.52-2.74-3.2-.06-6.39-.26-9.57-.27-1.3 0-6.04 1.39-6.34-.59-.24-1.64 2.83-2.55 3.98-3.03 2.12-.86 4.36-1.34 6.62-1.62 1.41-.17 2.85-.44 4.26-.55 1.24-.11 2.52.12 3.77.01 3.6-.3 7.18-.75 10.78-.98 1.73-.1 3.37-.26 5.03.2 1.78.49 3.62.9 5.47.96.93.04 1.8-.29 2.73-.27 1.36.02 2.77.52 4.06.91 4 1.17 8.32 1.96 12.46 1.19 1.71-.32 8.1-4.4 8.43-2.31.3 1.89-.67 3.41-1.94 4.67-.81.8-1.62 1.66-2.6 2.27-.56.35-1.48 1.12-2.13 1.14-.55 1.7 8.95 1.41 10.3 1 .75-.23 3.18-1.37 3.86-1 1.56.87-.78 3.48-1.34 4.13-1.07 1.24-3.07 2.24-3.82 3.68-.94 1.84 1.19 1.77 2.5 1.93 1.16.13 2.32.44 3.49.56 1.21.12 2.55-.01 3.71-.37.59-.18 1.59-.8 2.24-.51 1.78.84-.62 3.75-1.4 4.5-.95.91-2.12 1.65-3.3 2.22-.95.45-2.79.45-3.54 1.04-1.61 1.27 1.74 2.19 2.64 2.53 1.79.68 3.47.82 5.31 1.19.96.19 1.06.03 1.11 1.12.04 1.01-.38 1.57-1.12 2.24-1.37 1.23-3.02 2.15-4.82 2.59-1.83.45-3.74.8-5.58 1.06-1.72.23-3.53-.03-5.25.25-1.22.2-1.91 1.53-3.06 2.23-1.26.77-2.54 1.92-3.98 2.32-.98.28-2 .07-3 .29-3.06.69-5.74 3.41-8.54 4.8-2.6 1.27-6.52 2.09-7.86 4.95-.95-4.75-3.07-8.79-5.16-13.11-.89-1.84-2.23-2.33-3.62-3.65-1.01-.98-1.86-2.24-2.8-3.29-2.03-2.25-1.85-3.85-1.22-6.67.73-3.17 2.74-6.19 3.18-9.43z" fill="#757f3f"/><path d="M31.68 42.81c-2.33 3.11-4.02 6.63-4.74 9.91-.59 2.71-1.54 4.93-3.7 6.76-2.63 2.24-5.44 4.66-8.65 6.2-3.29 1.56-6.73 1.64-9.39 4.38-2.1 2.17-2.97 4.99-2.97 7.93 0 1.33-.03 1.96-.6 3.03C.92 82.31.29 83.76.4 85.3c.26 4.03 4.63 7.36 7.91 8.84 5.04 2.26 11.62 2.66 17.01 1.14 4.96-1.4 9.07-3.41 12.93-6.86 2.12-1.89 4.07-3.95 6.46-5.48 5.61-3.59 12.69-6.92 19.48-6.81.64.02 1.27.07 1.9.16 5.02.69 15.09 5.36 10.68 11.68-2.66 3.82-7.06 5.26-11.07 7.18-4.63 2.23-7.48 4.92-9.66 9.59-.96 2.04-1.99 3.51-3.91 4.75-2.79 1.79-7.89 2.02-10.97.86-2.91-1.1-3.4-2.7-4.25-5.55-.85-2.85-5.26-.27-4.75 2.11.81 3.8 3.53 8.44 7.48 9.45 6.47 1.64 15.78 2.06 21.39-2.13 6.64-4.95 11.32-12.07 17.75-17.32 2.84-2.31 5.48-5.04 6.73-8.56 1.45-4.03-.29-8.36 1.07-12.22.26-.72 1.25-1.32 1.84-1.73 1.19-.85 2.39-1.64 3.58-2.52 1.16-.86 3.32-1.74 3.45-3.37.11-1.42-1.04-1.56-2.13-1.21-1.71.57-3.15 1.61-4.66 2.52-1.07.65-2.33 1.83-3.6 1.22-.72-.33-1.14-1.18-1.76-1.68.61-1.73 2.73-2.88 3.9-4.26.8-.93 4.72-5.06 1.54-5.04-2.54.02-4.63 2.85-6.7 3.97-.92.49-1.79.9-2.74.17-.54-.43-1.33-1.7-1.23-2.4.11-.72 1.37-1.62 1.86-2.1.86-.85 1.52-1.85 2.36-2.75.59-.65 1.96-1.54 2.22-2.41.16-.56.16-2.38-.39-2.7-1.19-.68-4.48 2.37-5.5 2.91-1.02.54-2.19 1.63-3.44 1.42-1.27-.22-2.12-1.76-2.17-2.96-.11-3.06 1.96-5.77 2.34-8.68.28-2.1-.99-4.04-2.52-5.25-2.49-1.94-5.74-3.27-8.91-3.54-1.49-.13-2.97.12-4.46.05-1.8-.08-3.18-1-4.89-1.41-2.51-.62-4.92-.64-7.55-.64-5.95.02-11.51 3.99-15.34 9.07z" fill="#757f3f"/><path d="M27.85 91.97c-.15.44.74 1 1.06 1.33.86.86 1.78 1.7 2.72 2.48.76.63 1.51 1.34 2.41 1.79 5.66 2.78 2.16-10.46 2.74-10.49-.64.04-1.32.86-1.82 1.21-.61.41-1.17.8-1.79 1.19-.8.5-1.65.99-2.51 1.41-.37.17-.76.34-1.15.47-.41.15-.99.15-1.37.33-.15.08-.25.18-.29.28z" fill="#fff"/><path d="M35.43 99.07c-.58 0-1.19-.17-1.87-.5-.86-.42-1.56-1.01-2.23-1.58l-.41-.35a40.65 40.65 0 0 1-2.8-2.55c-.06-.06-.14-.13-.23-.21-.55-.45-1.46-1.21-1.1-2.27.09-.27.32-.66.89-.93.35-.17.73-.24 1.05-.29.15-.03.3-.05.43-.09.35-.12.69-.26 1.02-.42.75-.36 1.56-.82 2.41-1.34.46-.29.89-.58 1.32-.88l.43-.29c.12-.08.25-.2.39-.32.52-.46 1.17-1.03 2-1.07.01-.01.04 0 .06 0 .59 0 1.09.46 1.12 1.06.01.16-.02.31-.06.44.02.31.1.98.18 1.52.51 3.89.84 7.52-.64 9.21-.51.56-1.18.86-1.96.86zm-5.76-6.59c.02.01.02.02.04.04.87.86 1.76 1.68 2.64 2.41l.44.37c.59.5 1.14.98 1.76 1.27.45.23.73.27.88.27.14 0 .21-.04.28-.11.94-1.07.36-5.54.11-7.45-.01-.07-.02-.13-.03-.19-.06.05-.12.1-.19.14l-.42.29c-.46.31-.91.62-1.4.93-.91.57-1.79 1.06-2.61 1.46-.41.2-.84.38-1.27.52-.07.01-.15.02-.23.05z" fill="#757f3f"/><path d="M7.43 91.11c.12.02.24.05.35.09.45.17.83.47 1.3.63.69.23 1.37.5 2.06.71.56.17 1.28.24 1.69.68.35.39.05.82-.08 1.25-.31 1-1.33 5.11-3.09 4.76-1.35-.27-1.87-2.66-2.1-3.66-.24-1.03-.42-2.09-.59-3.13-.05-.28-.06-1.39-.37-1.57.25.13.54.17.83.24z" fill="#fff"/><path d="M9.87 100.36c-.08 0-.36-.03-.44-.04-2.02-.41-2.64-3.11-2.95-4.41-.27-1.15-.45-2.21-.63-3.28-.02-.09-.03-.24-.05-.41-.01-.15-.04-.47-.07-.65-.29-.35-.36-.86-.11-1.28.31-.53 1-.71 1.53-.4.05.03.23.07.36.1.32.06.49.1.66.17.26.1.52.24.77.38.16.09.31.18.49.24.29.1.59.21.88.31.38.14.76.27 1.14.39l.35.09c.55.13 1.3.32 1.84.91.75.82.39 1.75.24 2.14l-.17.51c-.49 1.68-1.53 5.23-3.84 5.23zm-1.75-7.74c.15.9.31 1.8.52 2.69.55 2.38 1.02 2.76 1.21 2.81.14-.05.78-.46 1.71-3.64l.1-.34c.03-.09.06-.18.1-.28-.16-.05-.36-.11-.49-.13-.16-.04-.31-.08-.46-.12-.42-.13-.85-.28-1.27-.43-.27-.1-.55-.2-.82-.29-.21-.08-.4-.17-.6-.27z" fill="#757f3f"/><path d="M52.97 109.54c-.22-1.52-2.75-7.23-.62-8.25 1.04-.49 2.14.66 2.74 1.23 1.1 1.05 2.09 1.95 3.37 2.76" fill="#2f201b"/><path d="M63.84 36.98c.57 0 1.15.02 1.72.05 6.73.43 13.77 1.51 20.91 3.22.86.21 1.74.45 2.63.7 2.93.8 6.23 1.71 9.75 1.71h.08c.01.26.03.48.05.64.25 1.79 1.57 5.88 8.42 6.23-.1.64-.09 1.22-.02 1.74.39 3.05 2.61 4.54 4.32 5.35-1.02 1.38-1.45 3.06-1.16 4.74.26 1.52.99 2.67 1.9 3.54h-1.04c-1.15 0-2.29.02-3.54.23-2.48.41-4.03 1.93-4.86 2.74-.1.1-.2.21-.31.31-.43.26-.87.57-1.3.87-.35.24-.85.59-1.07.73h-.25c-.64.01-1.52.03-2.55.26-2.94.66-5.25 2.25-7.28 3.65-.92.64-1.79 1.23-2.5 1.59-.44.22-1.05.47-1.7.72-.77.31-1.56.63-2.33.99l-2.62 1.27c-3.51-4.51-10.07-6.94-14.21-7.51-.88-.12-1.74-.19-2.58-.21h-.42c-6.71 0-14.17 2.58-22.16 7.69-2.2 1.4-4.02 3.1-5.63 4.6-.51.48-1.02.95-1.54 1.42-3.01 2.69-6.22 4.38-10.72 5.65-1.61.45-3.44.7-5.3.7-2.85 0-5.65-.56-7.89-1.56C7.9 87.83 6.03 85.77 5.98 85c0-.05.06-.38.58-1.34 1.16-2.17 1.26-3.85 1.26-5.66 0-1.72.47-3.07 1.4-4.03.72-.75 1.74-1.09 3.64-1.69 1.24-.39 2.66-.84 4.15-1.55 3.74-1.79 6.82-4.4 9.54-6.72l.31-.27c3.69-3.13 4.9-6.89 5.54-9.82.54-2.48 1.91-5.31 3.75-7.75 3.21-4.27 7.27-6.82 10.85-6.82.69 0 1.36 0 2.02.02h.22c2.1 0 4.2-.65 6.05-1.22.87-.27 1.85-.58 2.37-.65 2.35-.36 4.37-.52 6.18-.52m2.99 63.87c-.15.17-.3.32-.45.49-1.71 1.86-3.37 3.67-5.08 5.31 1.33-2.69 2.89-4.34 5.53-5.8m-2.99-69.46c-2.34 0-4.68.24-6.99.58-2.25.33-5.43 1.82-7.61 1.82h-.1c-.7-.01-1.41-.02-2.14-.02-5.93 0-11.5 3.96-15.32 9.05-2.33 3.11-4.02 6.63-4.74 9.91-.59 2.71-1.54 4.93-3.7 6.76-2.63 2.24-5.44 4.66-8.65 6.2-3.29 1.56-6.73 1.64-9.39 4.38-2.1 2.17-2.97 4.99-2.97 7.93 0 1.33-.03 1.96-.6 3.03C.92 82.32.29 83.77.4 85.31c.26 4.03 4.63 7.36 7.91 8.84 3.04 1.36 6.63 2.05 10.19 2.05 2.35 0 4.68-.3 6.82-.91 4.96-1.4 9.07-3.41 12.93-6.86 2.12-1.89 4.07-3.95 6.46-5.48 5.52-3.53 12.46-6.81 19.15-6.81h.33c.64.02 1.27.07 1.9.16 5.02.69 15.09 5.36 10.68 11.68-2.66 3.82-7.06 5.26-11.07 7.18-4.63 2.23-7.48 4.92-9.66 9.59-.96 2.04-1.99 3.51-3.91 4.75-1.65 1.07-4.12 1.57-6.49 1.57-1.63 0-3.22-.24-4.47-.71-2.91-1.1-3.4-2.7-4.25-5.55-.27-.89-.88-1.26-1.59-1.26-1.54 0-3.51 1.73-3.16 3.37.81 3.8 3.53 8.44 7.48 9.45 2.74.7 5.98 1.17 9.24 1.17 4.44 0 8.91-.88 12.14-3.3 6.64-4.95 11.32-12.07 17.75-17.32 2.84-2.31 5.48-5.04 6.73-8.56.74-2.06.65-4.2.56-6.32 1.4-.66 2.91-1.16 4.13-1.76 2.81-1.39 5.48-4.11 8.54-4.8.99-.22 2.02-.01 3-.29 1.43-.4 2.72-1.55 3.98-2.32 1.14-.71 1.83-2.03 3.06-2.23.86-.14 1.74-.15 2.62-.15h.27c.79 0 1.58 0 2.36-.1 1.84-.25 3.75-.61 5.58-1.06 1.8-.44 3.45-1.36 4.82-2.59.74-.66 1.16-1.22 1.12-2.24-.05-1.09-.15-.93-1.11-1.12-1.84-.37-3.52-.51-5.31-1.19-.9-.34-4.25-1.27-2.64-2.53.75-.58 2.59-.58 3.54-1.04 1.18-.57 2.35-1.31 3.3-2.22.78-.75 3.18-3.66 1.4-4.5-.14-.06-.3-.09-.48-.09-.85 0-2.02.64-2.69.77-.66.13-1.42.19-2.21.19-1.4 0-2.87-.21-3.99-.68-1.87-.78-3.56-1.28-1.4-2.89 1.75-1.3 4.9-3.36 4.52-5.96-.11-.73-.73-.97-1.52-.97-1.23 0-2.87.59-3.46.82-.98.37-2.02.55-3.06.62-.72.04-1.46.25-2.17.25h-.07c-.96-.02-3.47-.11-3.65-1.45-.11-.75.99-.97 1.47-1.26 1.46-.88 2.78-2.1 3.66-3.56.43-.71 1.88-3.89.78-4.6a.428.428 0 0 0-.22-.06c-.5 0-1.24.79-1.68.91-.77.22-1.51.51-2.23.83-1.16.51-2.27 1.24-3.46 1.66-1.31.45-2.64.64-3.99.64-3.73 0-7.54-1.41-11.08-2.25-7.14-1.71-14.53-2.9-21.86-3.37-.71-.04-1.41-.06-2.1-.06z" fill="#757f3f"/><path d="M110.82 34.77c-.85 3.06-3.69 5.78-6.47 6.94-1.21.5-2.93 1.45-4.3 1.23-.12-.68.01-1.21-.26-1.83-.39-.86-.83-1.35-1.75-1.46-.9-.1-1.77-.48-2.68-.52-.57-.02-1.04.13-1.63.01-.76-.16-1.48-.49-2.23-.69-1.81-.49-3.68-1.04-5.58-.91-1.58.11-2.74-.2-4.14-1.04-.75-.45-1.08-.98-1.15-1.83-.04-.47-.04-1.2.42-1.41.28-.13.86.08 1.12.15 3.07.78 6.44.87 9.58 1.12 4.87.38 9.33-.04 13.99-1.48.82-.26 1.65-.54 2.46-.84.19-.08.47-.2.78-.31.56-.19 1.22-.34 1.61-.08.47.32.49 1.48.42 2.02-.04.31-.1.62-.19.93z" fill="#757f3f"/><path d="M75.92 37.21c.02.01.04.01.06.02 1.31.33 2.54 1.03 3.92 1.08 1.24.04 2.37.28 3.58.37 2.2.15 4.42.18 6.66.18h5.59c.38 0 5.88-.43 5.89-.39.18.53-.39.87-.71 1.2-1.46 1.46-2.55 4-1.57 5.97.81 1.63 2.41 2.33 4.14 2.56.81.1 1.68.31 2.48.3 1.16-.03 2.34-.18 3.49.04.14.69-1.44 1.63-1.73 2.26-1.54 3.29 1.98 4.85 4.41 5.5.33.09 1.3.22 1.49.49.6.83-.99 1.27-1.37 1.64-.96.93-2.24 2.22-1.7 3.68.69 1.89 2.44 3.12 4.24 3.83.84.33 1.78.4 2.63.71.36.13.99.3 1.05.74.1.73-.98.93-1.47 1.11-.55.21-1.31.34-1.79.66s-.76.87-1.29 1.15c-.34.18-.71.15-1.11.14-4.15-.1-4.57-4.61-5.54-7.67-1.37-4.34-3.06-9.04-7.04-11.61-1.55-1-2.95-1.7-4.57-2.57-2.89-1.55-6.09-2.75-9.27-3.53-1.98-.49-3.8-.82-5.59-1.79-1.97-1.06-4.19-1.53-6.14-2.7-.98-.58-2.19-1.61-1.97-2.91.3-1.71 2.21-.69 3.23-.46z" fill="#757f3f"/><g fill="#2f2f2f"><path d="M28.41 75.98c1.35 1.96.62 5.06-2.66 5.26-1.45.08-5.57.39-5.86-1.56-.49-3.31 3.15-5.53 5.8-5.26 1.24.14 2.15.76 2.72 1.56zM6.33 75.2c-1.66 3.16 1.37 5.4 3.88 5.49 3.85.17 2.66-5 .45-6.65-1.75-1.3-3.5-.4-4.33 1.16z"/></g><path d="M26.83 104.28c-2.21.83-4.15 2.05-5.59 4.67-1.41 2.55-1.96 5.41-2.1 8.3-.07 1.63.28 5.72 3.09 3.36 1.05-.89 1.72-2.85 2.27-4.04.7-1.5 1.63-2.82 2.83-3.96 4.75-4.52 11.78-4.26 17.6-6.93 5.12-2.35 7.35-7.67 10.36-12.05 1.25-1.82 2.9-3.33 4.81-4.43 1.5-.86 4.77-1.18 5.79-2.56.46-.62.59-1.64.49-2.39-.15-1.02-1.02-1.56-1.86-2.01-1.02-.54-2.35-.79-3.5-.79-6.09.03-13.22 2.7-16.54 7.99-.94 1.48-2.29 2.69-2.98 4.32-1.61 3.84-4.03 6.94-8.05 8.44-2.31.88-4.58 1.31-6.62 2.08z" fill="#fcc21b"/><path d="M114.6 69.73c-.03.04-.05.08-.08.12-.55 1.03.74 2.2.12 3.26-.47.8-1.27 1.68-2.02 2.23-.74.54-1.64.89-2.46 1.3-1.34.68-2.74 1.22-4.17 1.69-2.09.69-4.04 1.7-6.1 2.45-2.32.85-4.76 1.05-7.16 1.56-.88.18-1.57.77-2.41.96-.96.22-2.22-.19-3.07-.59-.36-.17-.83-.33-1.01-.71-.23-.47-.2-1.23-.23-1.75-.03-.46-.31-1.57-.73-1.81-.97-.56-.99.64-1.34 1.32-.18.35-.43.69-.62 1.02-.17.29-.41.72-.74.46-.14-.11-.3-.65-.39-.83-.65-1.21-1.1-2.39-1.93-3.48-.79-1.03-1.74-2.21-.54-3.36 1.87-1.79 4.62-2.8 7.2-3.15 2.71-.37 5.36-.52 8.04-1.08 2.36-.49 3.86-2.34 6-3.31.98-.45 2.01-.74 3.01-1.13.3-.12.56-.29.89-.35.47-.09.91-.03 1.36-.23.37-.16.78-.33 1.13-.5.44-.21.88-.59 1.38-.66.44-.06.9-.07 1.33-.1.96-.09 1.13.38 1.71.98.7.72 1.45 1.21 2.33 1.65.9.45 2.06.29 2.87.94.71.58.39 1.11-.14 1.64-.6.59-1.74.78-2.23 1.46zM25.28 54.68c.16-.47.31-.95.46-1.42.19-.64.08-.79-.19-1.39-.67-1.5.94-2.98 1.38-4.32.17-.51.05-1.14.08-1.68.05-.89.27-1.71.91-2.35.58-.59 1.48-.38 2.03-.96.8-.84.04-2.66.96-3.65.5-.53 1.53-1.09 2.24-1.17.74-.08 1.48-.24 2.23-.17.81.08 1.77.06 2.58.22-.03.67-.67 1.5-.91 2.2-.28.82-.36 1.55-.24 2.38.13.85.06 1.44-.53 2.15-1.57 1.88-3.83 4.2-4.39 6.65-.12.55-.34 1.29-.71 1.73-.27.32-.63.49-.89.86-.54.79-.71 1.77-1.04 2.65-.36.94-.61 1.98-.6 2.98.02.86-.19 1.14-.93 1.63-.58.38-1.26.58-1.82 1.08-.95-.31-1.01-1.68-1.2-2.5-.24-.99-.22-2.18.04-3.21.17-.59.35-1.15.54-1.71z" fill="#757f3f"/><path d="M38.76 42.72c0-.05 0-.1.02-.15.26-1.23 1.83-2.73 2.59-3.7 1.42-1.83 2.85-3.85 3.41-6.31.91-3.91-1.13-7.73-1.69-11.49-.28-1.92-3.76-8.95-1.27-10.25 5.04-2.65 3.85 8.41 6.63 9.7 5.08 2.38 9.59-14.44 11.52-17.6.49-.82.89-1.92 2-1.96 1.51-.05 2.08 1.26 2.25 2.84.21 1.94-.54 3.34-1.1 5.12-1.12 3.5-2.65 6.74-3.89 10.16-1.7 4.69-3.55 9.32-5.59 13.86a172.97 172.97 0 0 1-3.4 7.15c-.9 1.79-1.74 4.14-3.29 5.49-1.21 1.06-2.79.92-4.24.52-1.03-.29-4-2.01-3.95-3.38zM64.01 38.8c.39-1.35 1.96-2.22 3.11-2.88 2.07-1.21 4.25-2.58 5.67-4.68 2.25-3.34 1.44-7.68 2.13-11.45.35-1.9-.85-9.81 2.17-10.1 6.1-.62 1.13 9.33 3.57 11.59 4.43 4.11 14.79-10.05 17.85-12.29.8-.58 1.58-1.48 2.74-1.12 1.57.51 1.72 1.96 1.36 3.5-.44 1.9-1.69 2.95-2.87 4.41-2.33 2.89-5.01 5.37-7.45 8.12-4.1 4.64-8.4 9.09-12.93 13.3-1.95 1.81-3.86 3.6-5.67 5.51-1.63 1.71-4.94 2.59-6.89 1-1.2-.98-2.75-2.44-2.87-4.1-.02-.29 0-.56.08-.81z" fill="#f79329"/><g><path d="M97.07 74.02c.37-.92 1.08-1.81 1.54-2.46 1.08-1.51-.84-1.55-1.86-2.26-.68-.47-1.58-.68-2.34-1.06-.54-.26-2.22-.62-2.1-1.43.06-.38.53-.99.8-1.26.42-.42.93-.73 1.4-1.08.39-.29 1.1-.63 1.3-1.12.26-.65-.63-.76-1.16-.91-.62-.17-1.21-.3-1.85-.41-1.63-.3-3.24-.7-4.86-.98-.83-.15-2.62-.29-2.94-1.36-.14-.47.47-1.32.73-1.69.45-.62.95-1.19 1.4-1.82.47-.67 1.06-1.23 1.64-1.82.41-.41 1.12-.88.96-1.51-1.07-.24-2.24-.35-3.33-.45-2.06-.17-4.33-.06-6.34-.45-1.72-.33-3.46-1-5.19-1.38-1.68-.37-3.41-1.02-4.95-1.39-1.7-.4-3.78-.54-5.49-.74-2.06-.24-3.92-.94-5.97-1.22-2.38-.32-4.58.73-6.8 1.42-2.96.91-5.85 1.6-8.96 1.13-2.02-.31-5.68-1.24-6.98-2.88-4-5 2.62-11.64 7.06-13.63 1.62-.73 3.17-1.57 4.77-2.33 2.22-1.05 4.38-2.3 6.71-3.07.92-.31 2.02-1 3.01-.89.96.1 1.73 1.01 1.22 1.95-.49.9-1.36 1.71-2.07 2.4-.63.62-1.15 1.82-1.26 2.66-.14 1.2.88.98 1.68.77 1.31-.35 2.54-.92 3.83-1.36.7-.24 1.39-.46 2.1-.68.59-.19 1.41-.61 2.04-.55.65.05 1.28.35 1.94.41.92.08 1.86.02 2.78.02.52 0 1.35-.16 1.8.14-.76.6-1.48 1.17-2.16 1.9-1.21 1.28-2.61 2.85-2.98 4.64-.94 4.51 7.94 1.84 10.12 1.28 1.51-.38 2.93-1.03 4.45-1.4 1.44-.35 2.69-.27 4.13-.44.82-.1 1.29-.47 2.23-.38 3.75.36 2.29 4.03.38 5.45-.87.65-1.71 1.26-2.52 1.96-.42.37-1.18.82-1.38 1.36.98.22 2.04.17 3.06.17 1.39 0 2.78.24 4.16.29 1.15.04 2.4.32 3.53.59.7.17 1.39.39 2.09.63.52.17.93.28 1.29.7.52.59.3.85-.17 1.43-.94 1.14-1.92 2.38-2.94 3.49-.45.49-.81 1-1.22 1.55-.29.38-.59 1.01-.99 1.28.03.3 1.82.65 2.21.77.94.28 1.89.53 2.84.77.77.2 1.49.54 2.21.84.79.32 1.58.57 2.37.92.85.38 2.12.99 1.67 2.12-.45 1.13-1.73 1.84-2.65 2.52-.4.29-.8.58-.9 1.1-.17.89 2.56 1.38 3.14 1.58.87.31 2.64 1.03 2.41 2.22-.25 1.25-2.36 2.33-3.31 3.02-.81.59-5.09 4.17-5.53 2.56-.12-.55-.02-1.09.2-1.63z" fill="#757f3f"/></g><path d="M52.84 49.52c-1.76 1.68-3.16 3.75-4.38 5.84-1.15 1.98-2.71 5.34-1.68 7.49 1.89.37 3.59-.73 5.16-1.62.89-.5 1.85-.86 2.74-1.35.69-.38 1.14-.91 1.74-1.41.4-.34.9-.54 1.32-.83.58-.39 1.15-.95 1.7-1.4.46-.37 1.81-1.09 1.84-1.73.03-.68-1-.73-1.48-.78-.08-1.33 2.59-1.75 2.18-3.29-.84-.15-1.71-.1-2.55-.24-.15-.86.95-1.49 1.42-2.06.44-.52 1.19-1.85.95-2.54-.72-.12-1.15.16-1.82.3-.61.13-1.18.1-1.72.37-.83.39-1.62.93-2.43 1.35-1.09.57-2.09 1.05-2.99 1.9z" fill="#757f3f"/><g><path d="M58.9 56.39l-11.37 6.49c1.62 3.43 5.61 5.28 9.06 4.18 3.56-1.15 5.19-5 3.65-8.61-.33-.77-.8-1.45-1.34-2.06z" fill="#fcc21b"/></g><path d="M29.18 52.16c.14.26.28.51.37.73.31.82.63 1.62 1 2.42.87 1.93 1.67 3.96 3.07 5.58 2.83 3.29 3.9-3.07 4.11-4.89.34-2.93.9-12.26-3.28-13.24-1.4-.33-.95 4.17-.93 4.95-.64-.42-2.56-2.74-2.62-.66-.02.72-.08 1.52 0 2.24.07.62.28 1.16.16 1.84-.87-.24-1.53-1.34-2.36-.88-.22.61.15 1.3.48 1.91z" fill="#757f3f"/><path d="M29.63 54.01a6.49 6.49 0 0 0-1.48 2.02c-1.35 2.88-.75 6.34 1.33 7.74 1.82 1.21 4.18.45 5.65-1.7l-5.5-8.06z" fill="#fcc21b"/><path d="M115.98 69.42c-.69.56-1.22 1.24-1.35 2.24-.21 1.53.9 2.54 1.5 3.81.37.78.47 1.7 1 2.4.66.87 2.59 2.66 3.16.65.51-1.86-.94-3.96-1.29-5.74-.56-2.85 1.35-3.22 3.71-4.21 1.31-.55 5.86-2.46 4.73-4.75-.51-1.04-4.64-.75-5.7-.9-.12-.02-2.68-.34-2.69-.36.61 1.27 1.47 1.54 1.05 3.14-.51 1.92-2.66 2.54-4.12 3.72z" fill="#757f3f"/><path d="M53.33 110.36c.54.12 1.16.09 1.68.05 1.89-.17 3.91-1.69 3.42-3.84-.17-.73-.78-1.25-1.22-1.82-.55-.7-1.03-1.43-1.63-2.1-.55-.59-1.17-1.24-1.86-1.66-.28-.17-.5-.22-.84-.18-1.6.14-1.4 1.59-1.33 2.79.06.93.1 1.86.18 2.79.07.91 0 2.27.38 3.1.25.5.71.75 1.22.87z" fill="#fff"/></svg>