<svg width="128" height="128" style="enable-background:new 0 0 128 128;" xmlns="http://www.w3.org/2000/svg" xmlns:xlink="http://www.w3.org/1999/xlink">
  <path d="M63.89,9.64C1.58,9.64,0.1,79.5,0.1,93.33c0,13.83,28.56,25.03,63.79,25.03 c35.24,0,63.79-11.21,63.79-25.03C127.68,79.5,126.21,9.64,63.89,9.64z" style="fill:#FCC21B;"/>
  <g>
    <defs>
      <path id="SVGID_1_" d="M63.89,98.06c23.15,0.05,40.56-12.97,41.19-29.05c-27.24,4.91-55.14,4.91-82.38,0 C23.33,85.09,40.74,98.11,63.89,98.06z"/>
    </defs>
    <use style="overflow:visible;fill:#FFFFFF;" xlink:href="#SVGID_1_"/>
    <clipPath id="SVGID_2_">
      <use style="overflow:visible;" xlink:href="#SVGID_1_"/>
    </clipPath>
    <g style="clip-path:url(#SVGID_2_);">
      <path d="M78.05,108c-1.1,0-2-0.9-2-2V61.07c0-1.1,0.9-2,2-2s2,0.9,2,2V106C80.05,107.1,79.16,108,78.05,108 z" style="fill:#2F2F2F;"/>
    </g>
    <g style="clip-path:url(#SVGID_2_);">
      <path d="M92.21,108c-1.1,0-2-0.9-2-2V61.07c0-1.1,0.9-2,2-2s2,0.9,2,2V106C94.21,107.1,93.32,108,92.21,108 z" style="fill:#2F2F2F;"/>
    </g>
    <g style="clip-path:url(#SVGID_2_);">
      <path d="M63.89,108c-1.1,0-2-0.9-2-2V61.07c0-1.1,0.9-2,2-2s2,0.9,2,2V106 C65.89,107.1,64.99,108,63.89,108z" style="fill:#2F2F2F;"/>
      <path d="M49.72,108c-1.1,0-2-0.9-2-2V61.07c0-1.1,0.9-2,2-2s2,0.9,2,2V106 C51.72,107.1,50.83,108,49.72,108z" style="fill:#2F2F2F;"/>
      <path d="M35.56,108c-1.1,0-2-0.9-2-2V61.07c0-1.1,0.9-2,2-2s2,0.9,2,2V106 C37.56,107.1,36.67,108,35.56,108z" style="fill:#2F2F2F;"/>
    </g>
  </g>
  <g>
    <path d="M42,58.3c-4.49,0.04-8.17-4.27-8.22-9.62c-0.05-5.37,3.55-9.75,8.04-9.79 c4.48-0.04,8.17,4.27,8.22,9.64C50.09,53.88,46.49,58.25,42,58.3z" style="fill:#2F2F2F;"/>
    <path d="M86.11,58.3c4.48-0.01,8.11-4.36,8.1-9.71c-0.01-5.37-3.66-9.7-8.14-9.69 c-4.49,0.01-8.13,4.36-8.12,9.73C77.97,53.98,81.62,58.31,86.11,58.3z" style="fill:#2F2F2F;"/>
  </g>
  <path d="M64.01,100.56h-0.25c-24.13,0-42.86-13.52-43.56-31.46c-0.03-0.76,0.29-1.49,0.86-1.98 c0.57-0.5,1.33-0.71,2.08-0.57c26.82,4.84,54.67,4.84,81.5,0c0.75-0.14,1.51,0.08,2.08,0.57c0.57,0.5,0.89,1.23,0.86,1.98 C106.87,87.04,88.14,100.56,64.01,100.56z M63.88,95.56h0.13c19.55,0,35.56-10.1,38.2-23.52c-25.29,4.18-51.36,4.18-76.65,0 c2.64,13.42,18.65,23.52,38.2,23.52H63.88z" style="fill:#2F2F2F;"/>
</svg>