<?xml version="1.0" encoding="utf-8"?>
<!-- Generator: Adobe Illustrator 24.0.3, SVG Export Plug-In . SVG Version: 6.00 Build 0)  -->
<svg version="1.1" id="Layer_1" xmlns="http://www.w3.org/2000/svg" xmlns:xlink="http://www.w3.org/1999/xlink" x="0px" y="0px"
	 viewBox="0 0 128 128" style="enable-background:new 0 0 128 128;" xml:space="preserve">
<path style="fill:#BDBDBD;" d="M87.8,28.7v31.6H72.3V29c0-5.7-4.6-10.3-10.3-10.3H42.1c-0.9,0-1.7,0.1-2.5,0.3c-1,0.3-2,0.7-2.8,1.2
	c-0.2,0.1-0.4,0.3-0.6,0.5c-0.8,0.6-1.6,1.3-2.2,2.2c-0.2,0.2-0.3,0.4-0.5,0.6c-0.5,0.9-1,1.8-1.2,2.8C32.1,27.1,32,28,32,28.8v31.5
	H16.5V29c0-1.7,0.2-3.4,0.5-5c0-0.2,0-0.3,0.1-0.4c0.2-0.8,0.4-1.5,0.6-2.2c0.6-2,1.5-3.9,2.6-5.7l0,0c0.5-0.9,1.1-1.8,1.8-2.6
	c0.2-0.3,0.5-0.6,0.7-0.9c0.4-0.5,0.8-0.9,1.3-1.4c2.9-2.9,6.5-5.1,10.5-6.4c2.4-0.8,5-1.2,7.6-1.2h20c3.9,0,7.7,0.9,11,2.5l0,0
	c1.1,0.5,2.2,1.1,3.2,1.8l0,0C77.1,8,77.7,8.4,78.3,9c0.6,0.5,1.2,1.1,1.8,1.6c0.6,0.6,1.1,1.2,1.6,1.8c0.8,1,1.5,2,2.1,3
	c0.8,1.4,1.6,2.9,2.1,4.4l0,0C87.2,22.7,87.8,25.6,87.8,28.7z"/>
<g style="opacity:0.2;">
	<path style="fill:#424242;" d="M62,15.7H42.1c-7.3,0-13.2,5.9-13.2,13.2v31.5h3V28.8c0-0.9,0.1-1.7,0.3-2.5c0.3-1,0.7-2,1.2-2.8
		c0.1-0.2,0.3-0.4,0.5-0.6c0.6-0.8,1.3-1.6,2.2-2.2c0.2-0.2,0.4-0.3,0.6-0.5c0.9-0.5,1.8-1,2.8-1.2c0.8-0.2,1.7-0.3,2.5-0.3h20
		c5.7,0,10.3,4.7,10.3,10.3v31.3h3V29C75.3,21.6,69.4,15.7,62,15.7z M86.9,22c-0.2-0.7-0.4-1.4-0.7-2.1l0,0c-0.3-0.8-0.6-1.5-1-2.3
		c-0.4-0.7-0.8-1.5-1.2-2.2c-0.7-1-1.4-2-2.1-3c-0.5-0.6-1.1-1.2-1.6-1.8C79.7,10,79.1,9.5,78.5,9c-0.6-0.5-1.3-1-1.9-1.5l0,0
		c-0.3-0.2-0.5-0.3-0.8-0.5c-0.8-0.5-1.6-0.9-2.4-1.3l0,0c-0.8-0.4-1.7-0.8-2.6-1.1C69,4,67.2,3.5,65.3,3.3c-1-0.1-1.9-0.2-2.9-0.2
		h-20c-1.6,0-3.2,0.1-4.7,0.4c-1,0.2-2,0.4-2.9,0.7c-4,1.3-7.6,3.5-10.5,6.4c-0.5,0.5-0.9,0.9-1.3,1.4c-0.2,0.3-0.5,0.6-0.7,0.9
		c-0.2,0.3-0.5,0.6-0.7,0.9c-0.2,0.3-0.5,0.7-0.7,1c-0.1,0.2-0.3,0.4-0.4,0.7l0,0c-1.1,1.8-1.9,3.7-2.6,5.7
		c-0.2,0.7-0.4,1.5-0.6,2.2c0,0.1-0.1,0.3-0.1,0.4c-0.3,1.6-0.5,3.3-0.5,5v31.3h3V29c0-12.5,10.2-22.7,22.7-22.7h20l0,0
		c12.4,0,22.5,10.1,22.5,22.5v31.6h3V28.7C87.7,26.4,87.4,24.2,86.9,22z"/>
</g>
<linearGradient id="SVGID_1_" gradientUnits="userSpaceOnUse" x1="52.1011" y1="837.0998" x2="52.1011" y2="764.0818" gradientTransform="matrix(1 0 0 1 0 -713.8898)">
	<stop  offset="5.361101e-03" style="stop-color:#FFA000"/>
	<stop  offset="1" style="stop-color:#FFC107"/>
</linearGradient>
<path style="fill:url(#SVGID_1_);" d="M91,123.5H13.2c-4,0-7.2-3.2-7.2-7.2V57.2c0-4,3.2-7.2,7.2-7.2H91c4,0,7.2,3.2,7.2,7.2v59.1
	C98.3,120.3,95,123.5,91,123.5z"/>
<g style="opacity:0.2;">
	<path style="fill:#424242;" d="M91,52.9c2.3,0,4.2,1.9,4.2,4.2v59.1c0,2.3-1.9,4.2-4.2,4.2H13.2c-2.3,0-4.2-1.9-4.2-4.2v-59
		c0-2.3,1.9-4.2,4.2-4.2L91,52.9 M91,49.9H13.2c-4,0-7.2,3.2-7.2,7.2v59.1c0,4,3.2,7.2,7.2,7.2H91c4,0,7.2-3.2,7.2-7.2v-59
		C98.3,53.2,95,49.9,91,49.9z"/>
</g>
<linearGradient id="SVGID_2_" gradientUnits="userSpaceOnUse" x1="73.4994" y1="780.6938" x2="73.4994" y2="819.2898" gradientTransform="matrix(1 0 0 1 0 -713.8898)">
	<stop  offset="0" style="stop-color:#E0E0E0"/>
	<stop  offset="0.9954" style="stop-color:#9E9E9E"/>
</linearGradient>
<path style="fill:url(#SVGID_2_);" d="M124,66.4c-12,0-31-0.4-46.4-3.5C53.2,58,49.3,73.3,27.3,80.2c-4.6,1.4-4.4,3.9-4.4,3.9
	s-0.2,2.5,4.4,3.9c22.1,6.9,26,22.2,50.4,17.3c15.4-3.1,34.4-3.5,46.4-3.5V66.4H124z"/>
<path style="fill:#757575;" d="M80.2,85.3H24.1c-0.7,0-1.2-0.6-1.2-1.2s0.5-1.2,1.2-1.2h56.2c0.6-3.5,3.6-6.1,7.3-6.1
	c4.1,0,7.4,3.3,7.4,7.4s-3.3,7.4-7.4,7.4C83.8,91.6,80.8,88.8,80.2,85.3z"/>
<g style="opacity:0.2;">
	<path style="fill:#424242;" d="M87.5,79.7c2.4,0,4.4,2,4.4,4.4s-2,4.4-4.4,4.4c-2.2,0-4-1.6-4.3-3.7L83,84.1l0.1-0.7
		C83.6,81.3,85.4,79.7,87.5,79.7 M87.5,76.8c-3.6,0-6.7,2.6-7.3,6.1H24.1c-0.7,0-1.2,0.6-1.2,1.2s0.5,1.2,1.2,1.2h56.2
		c0.6,3.5,3.6,6.2,7.3,6.2l0,0l0,0c4.1,0,7.4-3.3,7.4-7.4C94.9,80.1,91.6,76.8,87.5,76.8L87.5,76.8z"/>
</g>
<g style="opacity:0.2;">
	<path style="fill:#424242;" d="M68.7,65c2.5,0,5.2,0.3,8.2,0.9c11.3,2.3,26.1,3.4,43.8,3.6V99c-17.7,0.1-32.5,1.3-43.8,3.6
		c-3,0.6-5.7,0.9-8.2,0.9c-8.7,0-13.9-3.5-20.6-7.9c-5.3-3.5-11.3-7.5-20-10.2c-1.2-0.4-1.8-0.8-2.1-1.1c0.3-0.3,0.9-0.7,2.1-1.1
		c8.7-2.7,14.7-6.7,20-10.2C54.8,68.5,60,65,68.7,65 M68.7,62c-17,0-22.4,12.3-41.5,18.3c-4.6,1.4-4.4,3.9-4.4,3.9s-0.2,2.5,4.4,3.9
		c19.1,6,24.5,18.3,41.5,18.3c2.6,0,5.5-0.3,8.8-0.9c15.2-3,33.6-3.5,45.7-3.5h0.5V66.4h-0.5c-12.2,0-30.6-0.5-45.7-3.5
		C74.2,62.3,71.3,62,68.7,62L68.7,62z"/>
</g>
<linearGradient id="SVGID_3_" gradientUnits="userSpaceOnUse" x1="281.96" y1="601.6468" x2="281.96" y2="607.9507" gradientTransform="matrix(4.489700e-11 1 1 -4.489700e-11 -491.1918 -197.86)">
	<stop  offset="0" style="stop-color:#FFC107"/>
	<stop  offset="1" style="stop-color:#FFA000"/>
</linearGradient>
<path style="fill:url(#SVGID_3_);" d="M116,106.3V61.9c-2.7,0-4.9,2.2-4.9,4.9v34.5C111.1,104.1,113.3,106.3,116,106.3z"/>
<linearGradient id="SVGID_4_" gradientUnits="userSpaceOnUse" x1="120" y1="773.7258" x2="120" y2="828.6697" gradientTransform="matrix(1 0 0 1 0 -713.8898)">
	<stop  offset="0" style="stop-color:#616161"/>
	<stop  offset="1" style="stop-color:#212121"/>
</linearGradient>
<polygon style="fill:url(#SVGID_4_);" points="124,63.4 116,62 116,106.3 124,104.9 "/>
<g style="opacity:0.2;">
	<path style="fill:#EEEEEE;" d="M118,64.4l4,0.7v38.2l-4,0.7V64.4 M116,62v44.3l8-1.4V63.4L116,62z"/>
</g>
</svg>
