<?xml version="1.0" encoding="utf-8"?>
<!-- Generator: Adobe Illustrator 19.2.1, SVG Export Plug-In . SVG Version: 6.00 Build 0)  -->
<svg version="1.1" id="レイヤー_1" xmlns="http://www.w3.org/2000/svg" xmlns:xlink="http://www.w3.org/1999/xlink" x="0px"
	 y="0px" viewBox="0 0 128 128" style="enable-background:new 0 0 128 128;" xml:space="preserve">
<g>
	<path style="fill:#FFFFFF;" d="M64,121.73c-31.84,0-57.73-25.9-57.73-57.73C6.27,32.16,32.16,6.27,64,6.27
		c31.83,0,57.73,25.9,57.73,57.74C121.73,95.84,95.84,121.73,64,121.73z"/>
	<g>
		<path style="fill:#40C0E7;" d="M64,0.1C28.77,0.1,0.1,28.76,0.1,64c0,35.23,28.67,63.89,63.9,63.89
			c35.23,0,63.89-28.67,63.89-63.89C127.9,28.76,99.23,0.1,64,0.1z M64,121.73c-31.84,0-57.73-25.9-57.73-57.73
			C6.27,32.16,32.16,6.27,64,6.27c31.83,0,57.73,25.9,57.73,57.74C121.73,95.84,95.84,121.73,64,121.73z"/>
		<path style="fill:#2F2F2F;" d="M69.15,55.71c-0.17-0.11-0.36-0.2-0.54-0.3V11.33H59.4v44.09c-3.07,1.64-5.18,4.84-5.18,8.57
			c0,5.41,4.37,9.79,9.78,9.79c5.4,0,9.78-4.38,9.78-9.79c0-0.1-0.03-0.2-0.03-0.31l21.38-12.34l-4.6-7.97L69.15,55.71z
			 M65.45,67.39c-0.02,0.01-0.04,0.01-0.06,0.02c-0.43,0.18-0.9,0.28-1.39,0.28c-0.5,0-0.97-0.1-1.4-0.28
			c-0.02-0.01-0.04-0.01-0.06-0.02c-0.3-0.13-0.57-0.3-0.82-0.5c-0.73-0.57-1.22-1.41-1.36-2.37c-0.03-0.17-0.05-0.34-0.05-0.52
			c0-2.04,1.65-3.68,3.69-3.68c2.04,0,3.69,1.65,3.69,3.68C67.69,65.52,66.77,66.82,65.45,67.39z"/>
		<circle style="fill:#2F2F2F;" cx="113.93" cy="64" r="3.69"/>
		
			<ellipse transform="matrix(0.8661 -0.4999 0.4999 0.8661 -5.153 58.8341)" style="fill:#2F2F2F;" cx="107.24" cy="39.04" rx="3.68" ry="3.68"/>
		
			<ellipse transform="matrix(0.4998 -0.8661 0.8661 0.4998 26.523 87.4422)" style="fill:#2F2F2F;" cx="88.97" cy="20.76" rx="3.68" ry="3.68"/>
		
			<ellipse transform="matrix(0.8661 -0.4999 0.4999 0.8661 -5.1488 22.2913)" style="fill:#2F2F2F;" cx="39.03" cy="20.76" rx="3.68" ry="3.68"/>
		
			<ellipse transform="matrix(0.4999 -0.8661 0.8661 0.4999 -23.4247 37.4984)" style="fill:#2F2F2F;" cx="20.76" cy="39.03" rx="3.68" ry="3.68"/>
		<path style="fill:#2F2F2F;" d="M14.06,60.31c-2.03,0-3.68,1.65-3.68,3.68c0,2.04,1.65,3.68,3.68,3.68
			c2.04,0.01,3.69-1.65,3.69-3.68C17.75,61.96,16.1,60.31,14.06,60.31z"/>
		<path style="fill:#2F2F2F;" d="M18.91,85.78c-1.75,1.02-2.36,3.27-1.34,5.03c1.02,1.76,3.27,2.36,5.03,1.35
			c1.76-1.02,2.37-3.28,1.35-5.04C22.93,85.36,20.68,84.76,18.91,85.78z"/>
		
			<ellipse transform="matrix(0.4999 -0.8661 0.8661 0.4999 -73.3614 87.4354)" style="fill:#2F2F2F;" cx="39.03" cy="107.24" rx="3.68" ry="3.68"/>
		<path style="fill:#2F2F2F;" d="M63.99,110.25c-2.04,0-3.67,1.65-3.68,3.68c0.01,2.03,1.65,3.68,3.68,3.68
			c2.03,0,3.69-1.65,3.68-3.68C67.68,111.9,66.03,110.25,63.99,110.25z"/>
		<path style="fill:#2F2F2F;" d="M87.12,104.06c-1.77,1.02-2.37,3.26-1.34,5.03c1.02,1.76,3.27,2.37,5.03,1.35
			c1.76-1.01,2.37-3.27,1.35-5.03C91.14,103.64,88.88,103.04,87.12,104.06z"/>
		<path style="fill:#2F2F2F;" d="M109.08,85.78c-1.76-1.02-4.02-0.41-5.03,1.35c-1.02,1.77-0.42,4.01,1.35,5.03
			c1.76,1.01,4.01,0.41,5.03-1.35C111.45,89.05,110.85,86.79,109.08,85.78z"/>
	</g>
</g>
</svg>
