<svg width="128" height="128" style="enable-background:new 0 0 128 128;" xmlns="http://www.w3.org/2000/svg" xmlns:xlink="http://www.w3.org/1999/xlink">
  <path d="M4.02,44l29.11-24.97C43.98,10,44.64,11,52.04,15.71l32.15,20.45l18.96-19.44 c3.62-4.56,6.19-7.44,10.88-0.88l9.92,12.28l0.04,95.88L4.02,124V44z" style="fill:#81C784;"/>
  <g style="opacity:0.2;">
    <path d="M109,15c0.08,0.02,0.92,0.27,2.58,2.59c0.03,0.05,0.07,0.1,0.11,0.14l9.26,11.45l0.04,91.81 L7.02,121V45.38l28.02-24.05c4.69-3.9,7.74-6.15,9.46-6.15c1.14,0,2.74,1.03,5.17,2.58l0.75,0.48L82.58,38.7 c0.5,0.32,1.05,0.47,1.61,0.47c0.79,0,1.57-0.31,2.15-0.91l18.96-19.44c0.07-0.07,0.14-0.15,0.2-0.23 C106.32,17.55,108.25,15.12,109,15 M109,12c-2.01,0-3.75,2.08-5.86,4.72L84.19,36.17L52.04,15.71c-3.38-2.16-5.35-3.53-7.53-3.53 c-2.59,0-5.48,1.95-11.38,6.85L4.02,44v80l119.96,0l-0.04-95.88l-9.92-12.28C112.05,13.09,110.46,12,109,12L109,12z" style="fill:#424242;"/>
  </g>
  <g>
    <rect height="23" style="fill:#8D6E63;" width="119.85" x="4.04" y="101"/>
    <rect height="7" style="fill:#424242;" width="119.92" x="4.04" y="101"/>
  </g>
  <g style="opacity:0.2;">
    <path d="M121.89,103v19H6.04v-19H121.89 M123.89,101H4.04v23h119.85V101L123.89,101z" style="fill:#EEEEEE;"/>
  </g>
  <circle cx="33" cy="99" r="6"/>
  <circle cx="50" cy="99" r="6"/>
  <circle cx="101" cy="99" r="6"/>
  <circle cx="118" cy="99" r="6"/>
  <path d="M20,37.08V92c0,3.3,2.7,6,6,6h98l0-60.92H20z" style="fill:#FFF8E1;"/>
  <path d="M64.04,68.25h-8.11c-2.21,0-4-1.79-4-4V48.17c0-2.21,1.79-4,4-4h8.11c2.21,0,4,1.79,4,4v16.08 C68.04,66.46,66.25,68.25,64.04,68.25z" style="fill:#4FC3F7;"/>
  <path d="M88.09,68.25h-8.11c-2.21,0-4-1.79-4-4V48.17c0-2.21,1.79-4,4-4h8.11c2.21,0,4,1.79,4,4v16.08 C92.09,66.46,90.3,68.25,88.09,68.25z" style="fill:#4FC3F7;"/>
  <path d="M112,68.25h-8.11c-2.21,0-4-1.79-4-4V48.17c0-2.21,1.79-4,4-4H112c2.21,0,4,1.79,4,4v16.08 C116,66.46,114.21,68.25,112,68.25z" style="fill:#4FC3F7;"/>
  <g>
    <defs>
      <path id="SVGID_1_" d="M20,37.08V92c0,3.3,2.7,6,6,6h98l0-60.92H20z"/>
    </defs>
    <clipPath id="SVGID_2_">
      <use style="overflow:visible;" xlink:href="#SVGID_1_"/>
    </clipPath>
    <linearGradient id="SVGID_3_" gradientUnits="userSpaceOnUse" x1="72" x2="72" y1="73.25" y2="100">
      <stop offset="6.765343e-03" style="stop-color:#EF5350"/>
      <stop offset="1" style="stop-color:#D32F2F"/>
    </linearGradient>
    <rect height="31.72" style="clip-path:url(#SVGID_2_);fill:url(#SVGID_3_);" width="104" x="20" y="74.14"/>
  </g>
  <g style="opacity:0.2;">
    <path d="M64.04,46.17c1.1,0,2,0.9,2,2v16.08c0,1.1-0.9,2-2,2h-8.11c-1.1,0-2-0.9-2-2V48.17c0-1.1,0.9-2,2-2 H64.04 M64.04,44.17h-8.11c-2.21,0-4,1.79-4,4v16.08c0,2.21,1.79,4,4,4h8.11c2.21,0,4-1.79,4-4V48.17 C68.04,45.96,66.25,44.17,64.04,44.17L64.04,44.17z" style="fill:#424242;"/>
  </g>
  <g style="opacity:0.2;">
    <path d="M88.09,46.17c1.1,0,2,0.9,2,2v16.08c0,1.1-0.9,2-2,2h-8.11c-1.1,0-2-0.9-2-2V48.17c0-1.1,0.9-2,2-2 H88.09 M88.09,44.17h-8.11c-2.21,0-4,1.79-4,4v16.08c0,2.21,1.79,4,4,4h8.11c2.21,0,4-1.79,4-4V48.17 C92.09,45.96,90.3,44.17,88.09,44.17L88.09,44.17z" style="fill:#424242;"/>
  </g>
  <g style="opacity:0.2;">
    <path d="M112,46.17c1.1,0,2,0.9,2,2v16.08c0,1.1-0.9,2-2,2h-8.11c-1.1,0-2-0.9-2-2V48.17c0-1.1,0.9-2,2-2 H112 M112,44.17h-8.11c-2.21,0-4,1.79-4,4v16.08c0,2.21,1.79,4,4,4H112c2.21,0,4-1.79,4-4V48.17C116,45.96,114.21,44.17,112,44.17 L112,44.17z" style="fill:#424242;"/>
  </g>
  <path d="M40.04,69.91H20V44h20.04c2.21,0,4,1.79,4,4v17.91C44.04,68.12,42.25,69.91,40.04,69.91z" style="fill:#4FC3F7;"/>
  <g style="opacity:0.2;">
    <path d="M40.04,46c1.1,0,2,0.9,2,2v17.91c0,1.1-0.9,2-2,2H22V46H40.04 M40.04,44H20v25.91h20.04 c2.21,0,4-1.79,4-4V48C44.04,45.79,42.25,44,40.04,44L40.04,44z" style="fill:#424242;"/>
  </g>
  <path d="M120,28H24c-2.21,0-4,1.79-4,4v5.08h104V32C124,29.79,122.21,28,120,28z" style="fill:#37474F;"/>
  <g style="opacity:0.2;">
    <path d="M120.02,31c0.29,0,0.98,0.07,0.98,0.75v5.08V95H26.04C24.45,95,23,93.45,23,91.75V36.83v-5.08 c0-0.74,1-0.75,1.04-0.75H120 M120.04,28h-96C21.83,28,20,29.54,20,31.75v5.08v54.92c0,3.3,2.74,6.25,6.04,6.25H124V36.83v-5.08 C124,29.54,122.25,28,120.04,28L120.04,28z" style="fill:#424242;"/>
  </g>
</svg>