<svg enable-background="new 0 0 128 128" viewBox="0 0 128 128" xmlns="http://www.w3.org/2000/svg" xmlns:xlink="http://www.w3.org/1999/xlink"><radialGradient id="c" cx="63.598" cy="27.638" r="65.453" gradientUnits="userSpaceOnUse"><stop stop-color="#F8981D" offset=".0063776"/><stop stop-color="#F47C20" offset="1"/></radialGradient><circle cx="64" cy="64" r="60" fill="url(#c)"/><defs><circle id="b" cx="64" cy="64" r="60"/></defs><clipPath id="a"><use xlink:href="#b"/></clipPath><path d="m-0.34 69.24s17.28 18.48 64.09 18.48 64.49-18.48 64.49-18.48" clip-path="url(#a)" fill="none" stroke="#BE3A26" stroke-miterlimit="10" stroke-width="5"/><line x1="64" x2="64" y1=".07" y2="127.64" clip-path="url(#a)" fill="none" stroke="#BE3A26" stroke-miterlimit="10" stroke-width="5"/><path d="m12.52 25.58s22.7 9.84 30.13 38.57-12.85 59.87-12.85 59.87" clip-path="url(#a)" fill="none" stroke="#BE3A26" stroke-miterlimit="10" stroke-width="5"/><path d="m115.28 25.58s-22.7 9.84-30.13 38.57 12.85 59.87 12.85 59.87" clip-path="url(#a)" fill="none" stroke="#BE3A26" stroke-miterlimit="10" stroke-width="5"/><g opacity=".2"><path d="M64,7c31.43,0,57,25.57,57,57s-25.57,57-57,57S7,95.43,7,64S32.57,7,64,7 M64,4 C30.86,4,4,30.86,4,64s26.86,60,60,60s60-26.86,60-60S97.14,4,64,4L64,4z" fill="#434343"/></g></svg>
