<svg xmlns="http://www.w3.org/2000/svg" viewBox="0 0 1000 1000">
  <defs/>
  <path fill="#E8112D" d="M0,200 C173.47,114.84 346.32,145.53 521.2,171.97 C679.07,195.84 838.71,216.67 1000,137.5 L1000,737.5 C826.53,822.66 653.68,791.97 478.8,765.53 C320.93,741.66 161.29,720.83 0,800 L0,200"/>
  <path fill="#FCD116" d="M0,200 C173.47,114.84 346.32,145.53 521.2,171.97 C679.07,195.84 838.71,216.67 1000,137.5 L1000,437.5 C826.53,522.66 653.68,491.97 478.8,465.53 C320.93,441.66 161.29,420.83 0,500 L0,200"/>
  <path fill="#008751" d="M0,200 C132.14,135.13 263.88,137.18 400,154.38 L400,754.38 C268.28,737.74 135.67,733.4 0,800 L0,200"/>
</svg>
