<svg width="128" height="128" style="enable-background:new 0 0 128 128;" xmlns="http://www.w3.org/2000/svg" xmlns:xlink="http://www.w3.org/1999/xlink">
  <g>
    <linearGradient id="SVGID_1_" gradientUnits="userSpaceOnUse" x1="64" x2="64" y1="4.25" y2="124.4088">
      <stop offset="0" style="stop-color:#B388FF"/>
      <stop offset="0.3773" style="stop-color:#A175FF"/>
      <stop offset="1" style="stop-color:#7C4DFF"/>
    </linearGradient>
    <path d="M116,124H12c-4.42,0-8-3.58-8-8V12c0-4.42,3.58-8,8-8h104c4.42,0,8,3.58,8,8v104 C124,120.42,120.42,124,116,124z" style="fill:url(#SVGID_1_);"/>
    <g style="opacity:0.2;">
      <path d="M116,7c2.76,0,5,2.24,5,5v104c0,2.76-2.24,5-5,5H12c-2.76,0-5-2.24-5-5V12c0-2.76,2.24-5,5-5H116 M116,4H12c-4.42,0-8,3.58-8,8v104c0,4.42,3.58,8,8,8h104c4.42,0,8-3.58,8-8V12C124,7.58,120.42,4,116,4L116,4z" style="fill:#424242;"/>
    </g>
    <g style="opacity:0.2;">
      <path d="M46.18,34.15c27.08,0,17.13,22.94,5.75,30.34c-5.63,3.66,2.95,7.36,7.74,7.36 c0.28,0,0.55-0.01,0.8-0.04c19.41-2.03,11.91-22.28,30.44-24.65c0.82-0.11,1.63-0.16,2.4-0.16c6.5,0,11.43,3.51,14.53,7.99 c7.18,10.35,3.32,28.25,1.23,34.28c-3.34,9.62-8.61,12.73-16.18,12.73c-7.77,0-13.95-6.21-16.39-13.92 c-0.08-0.26,0.13-0.48,0.35-0.48c0.09,0,0.17,0.03,0.24,0.11c1.77,1.99,5.15,5.97,12.46,5.97c2.27,0,4.91-0.38,8-1.33 c6.95-2.12,9.82-11.79,10.25-18.72c0.74-12.01-2.98-20-7.91-21.53c-0.86-0.27-1.74-0.39-2.61-0.39c-6.47,0-12.86,6.89-15.5,12.69 c-3.98,8.72-16.64,7.65-19.07,9.99c-2.47,2.37,5.89,13.99,2.07,23.7C61.13,107.41,52.05,112,43.49,112 c-9.21,0-23.82-3.93-27.48-24.93c-0.06-0.33,0.2-0.55,0.47-0.55c0.15,0,0.3,0.07,0.39,0.24c2.85,4.98,10.48,15.19,25.15,15.19 c12.82,0,24.44-14.82,15.04-25.13c-3.56-3.91-12.5-0.1-16.22-5.86c-1.3-2.01-4.93-7.4-2.96-7.5 c24.28-1.25,24.7-21.37,10.72-21.37c-0.49,0-0.99,0.02-1.51,0.07c-5.31,0.51-13.33,5.08-16.7,7.2c-0.06,0.04-0.12,0.06-0.2,0.06 c-0.17,0-0.34-0.1-0.43-0.25l-4.29-6.91c-0.13-0.21-0.07-0.48,0.13-0.64c3.74-2.79,11.35-7.47,20.38-7.47h0 C46.04,34.15,46.11,34.15,46.18,34.15 M46.18,31.15L46.18,31.15l-0.22,0c-9.88,0-18.13,5.06-22.16,8.07 c-1.46,1.09-1.84,3.08-0.89,4.62l4.29,6.9c0.64,1.03,1.78,1.67,2.98,1.67c0.63,0,1.25-0.18,1.79-0.52 c4.58-2.87,11.35-6.36,15.4-6.75c0.42-0.04,0.83-0.06,1.23-0.06c3.75,0,6.22,1.88,6.3,4.8c0.1,3.89-4.39,9.91-17.17,10.57 c-1.31,0.07-2.44,0.78-3.01,1.91c-1.14,2.23,0.11,4.83,3.35,9.81l0.26,0.4c2.86,4.43,7.81,4.8,11.43,5.07 c2.11,0.16,4.3,0.32,5.1,1.19c3.56,3.9,2.88,7.95,1.68,10.66c-2.42,5.47-8.52,9.45-14.5,9.45c-12.81,0-19.62-8.57-22.55-13.68 c-0.62-1.08-1.76-1.75-3-1.75c-1.03,0-2,0.45-2.67,1.24c-0.66,0.78-0.93,1.81-0.76,2.82C17.36,112.33,35.77,115,43.49,115 c10.86,0,20.32-6.2,24.1-15.81c2.66-6.75,0.43-13.82-1.19-18.98c-0.39-1.25-0.9-2.86-1.07-3.82c0.77-0.24,2.01-0.51,2.98-0.72 c5.14-1.1,12.91-2.76,16.22-10.03c2.4-5.26,7.96-10.93,12.77-10.93c0.59,0,1.16,0.09,1.71,0.26c3.31,1.03,6.47,7.86,5.81,18.48 c-0.41,6.65-3.13,14.51-8.13,16.04c-2.6,0.79-5,1.2-7.13,1.2c-5.81,0-8.39-2.91-10.1-4.83l-0.11-0.13 c-0.63-0.71-1.54-1.12-2.48-1.12c-1.07,0-2.08,0.52-2.72,1.39c-0.63,0.86-0.82,1.98-0.49,3c3.03,9.58,10.76,16.01,19.25,16.01 c9.48,0,15.52-4.69,19.01-14.75c0.08-0.23,7.91-23.27-1.6-36.98c-4.15-5.98-10.19-9.28-17-9.28c-0.91,0-1.85,0.06-2.78,0.18 C79.82,45.55,76.45,52.17,73.47,58c-2.84,5.57-5.09,9.97-13.31,10.83c-0.14,0.02-0.31,0.02-0.49,0.02 c-2.22,0-4.96-0.98-6.16-1.81c0.02-0.01,0.04-0.02,0.05-0.04c8.08-5.26,14.99-16.75,12.4-25.5 C64.56,36.78,59.99,31.15,46.18,31.15L46.18,31.15z" style="fill:#424242;"/>
      <path d="M32.22,56.05" style="fill:none;stroke:#424242;stroke-width:3;stroke-miterlimit:10;"/>
      <g>
        <path d="M100.02,26.43c0.67,0,1.34,0.31,1.79,0.9c0.54,0.71,1.24,1.46,2.15,2.16 c1.23,0.95,1.19,2.82-0.13,3.65C98.75,36.34,91.28,40,83.55,40c-0.03,0-0.06,0-0.09,0c-11.99-0.05-20.2-5.51-22.56-9.53 c-1.01-1.72-1.13-2.36-0.56-2.36c1.73,0,9.9,6.02,19.08,6.02c0.65,0,1.31-0.03,1.98-0.1c10.23-1.01,14.56-4.4,17.06-6.93 C98.89,26.65,99.46,26.43,100.02,26.43 M100.02,23.43c-1.4,0-2.72,0.55-3.71,1.55c-2.32,2.35-6.15,5.16-15.22,6.06 c-0.55,0.05-1.11,0.08-1.68,0.08c-5.7,0-11.24-2.75-14.55-4.39c-2.13-1.05-3.3-1.63-4.52-1.63c-1.23,0-2.31,0.61-2.9,1.64 c-1.09,1.9,0.09,3.91,0.87,5.24C61.5,37.42,71.16,42.95,83.44,43l0.11,0c8.48,0,16.58-3.98,21.88-7.32 c1.44-0.9,2.34-2.45,2.42-4.14c0.08-1.71-0.69-3.36-2.05-4.42c-0.62-0.47-1.15-1.01-1.59-1.59 C103.2,24.2,101.68,23.43,100.02,23.43L100.02,23.43z" style="fill:#424242;"/>
        <path d="M82.43,16c0.51,0,1.02,0.2,1.41,0.59l4.17,4.17c0.78,0.78,0.78,2.05,0,2.83l-4.17,4.17 c-0.39,0.39-0.9,0.59-1.41,0.59s-1.02-0.2-1.41-0.59l-4.17-4.17c-0.78-0.78-0.78-2.05,0-2.83l4.17-4.17 C81.4,16.2,81.92,16,82.43,16 M82.43,13c-1.34,0-2.59,0.52-3.54,1.46l-4.17,4.17c-0.94,0.94-1.46,2.2-1.46,3.54 c0,1.34,0.52,2.59,1.46,3.54l4.17,4.17c0.94,0.94,2.2,1.46,3.54,1.46s2.59-0.52,3.54-1.46l4.17-4.17 c0.94-0.94,1.46-2.2,1.46-3.54c0-1.34-0.52-2.59-1.46-3.54l-4.17-4.17C85.02,13.52,83.76,13,82.43,13L82.43,13z" style="fill:#424242;"/>
      </g>
    </g>
    <g>
      <path d="M107.84,55c-3.48-5.02-9.24-8.81-16.94-7.83c-18.53,2.36-11.03,22.61-30.44,24.65 c-4.53,0.48-14.51-3.45-8.54-7.32c11.41-7.42,21.39-30.46-5.95-30.34h0c-9.02,0-16.64,4.68-20.38,7.47 c-0.21,0.15-0.26,0.43-0.13,0.64l4.29,6.91c0.09,0.15,0.26,0.25,0.43,0.25c0.07,0,0.14-0.02,0.2-0.06 c3.37-2.11,11.39-6.68,16.7-7.2c15.5-1.5,15.92,20-9.2,21.29c-1.97,0.1,1.67,5.49,2.96,7.5c3.72,5.77,12.66,1.95,16.22,5.86 c9.39,10.3-2.22,25.13-15.04,25.13c-14.67,0-22.3-10.21-25.15-15.19c-0.26-0.45-0.95-0.2-0.86,0.32 c3.66,21,18.27,24.93,27.48,24.93c8.56,0,17.64-4.59,21.31-13.91c3.82-9.71-4.54-21.33-2.07-23.7c2.43-2.33,15.09-1.27,19.07-9.99 c3-6.57,10.83-14.56,18.11-12.29c4.93,1.54,8.65,9.52,7.91,21.53c-0.43,6.93-3.3,16.6-10.25,18.72 c-13.06,3.99-18.15-2.04-20.46-4.64c-0.25-0.28-0.71,0.01-0.59,0.37c2.44,7.7,8.62,13.92,16.39,13.92 c7.57,0,12.84-3.12,16.18-12.73C111.16,83.25,115.02,65.34,107.84,55z" style="fill:#FAFAFA;"/>
      <path d="M32.22,56.05" style="fill:none;stroke:#5D4037;stroke-width:5.96;stroke-miterlimit:10;"/>
      <g>
        <path d="M101.81,27.33c-0.82-1.09-2.4-1.21-3.36-0.24c-2.5,2.53-6.83,5.92-17.06,6.93 c-13,1.29-24.78-10.89-20.49-3.56c2.36,4.02,10.57,9.49,22.56,9.53c7.76,0.03,15.28-3.65,20.37-6.86 c1.32-0.83,1.37-2.69,0.13-3.65C103.05,28.79,102.35,28.04,101.81,27.33z" style="fill:#FAFAFA;"/>
        <path d="M83.84,16.59l4.17,4.17c0.78,0.78,0.78,2.05,0,2.83l-4.17,4.17c-0.78,0.78-2.05,0.78-2.83,0 l-4.17-4.17c-0.78-0.78-0.78-2.05,0-2.83l4.17-4.17C81.79,15.8,83.06,15.8,83.84,16.59z" style="fill:#FAFAFA;"/>
      </g>
    </g>
  </g>
</svg>