<svg enable-background="new 0 0 128 128" viewBox="0 0 128 128" xmlns="http://www.w3.org/2000/svg" xmlns:xlink="http://www.w3.org/1999/xlink"><path d="m80.3 124h-32.6c-4.25 0-7.7-3.45-7.7-7.7v-96.77c0-4.25 3.45-7.7 7.7-7.7h32.6c4.25 0 7.7 3.45 7.7 7.7v96.77c0 4.25-3.45 7.7-7.7 7.7z" fill="#E0E0E0"/><path d="m70.92 36.05h-13.84c-2.84 0-5.15-2.31-5.15-5.15v-21.73c0-2.84 2.31-5.15 5.15-5.15h13.84c2.84 0 5.15 2.31 5.15 5.15v21.73c0 2.85-2.31 5.15-5.15 5.15z" fill="#E0E0E0"/><path d="M80.3,12H76V9.17C76,6.33,73.76,4,70.92,4H57.08C54.24,4,52,6.33,52,9.17V12h-4.3 c-4.25,0-7.7,3.28-7.7,7.53v96.77c0,4.25,3.45,7.7,7.7,7.7h32.6c4.25,0,7.7-3.45,7.7-7.7V19.53C88,15.28,84.55,12,80.3,12z" fill="#E0E0E0"/><linearGradient id="e" x1="64" x2="64" y1="20.543" y2="115.58" gradientUnits="userSpaceOnUse"><stop stop-color="#8BC34A" offset="0"/><stop stop-color="#689F38" offset="1"/></linearGradient><rect x="40" y="19.88" width="48" height="96.19" fill="url(#e)"/><g opacity=".2"><path d="M70.92,7C72.09,7,73,7.95,73,9.17V12c0,1.66,1.34,3,3,3h4.3c2.63,0,4.7,1.99,4.7,4.53v96.77 c0,2.59-2.11,4.7-4.7,4.7H47.7c-2.59,0-4.7-2.11-4.7-4.7V19.53c0-2.54,2.06-4.53,4.7-4.53H52c1.66,0,3-1.34,3-3V9.17 C55,7.95,55.91,7,57.08,7H70.92 M70.92,4H57.08C54.24,4,52,6.33,52,9.17V12h-4.3c-4.25,0-7.7,3.28-7.7,7.53v96.77 c0,4.25,3.45,7.7,7.7,7.7h32.6c4.25,0,7.7-3.45,7.7-7.7V19.53c0-4.25-3.45-7.53-7.7-7.53H76V9.17C76,6.33,73.76,4,70.92,4L70.92,4 z" fill="#424242"/></g><path d="m74.19 44.05h-20.38c-1 0-1.8-0.81-1.8-1.8v-4.39c0-1 0.81-1.8 1.8-1.8h20.38c1 0 1.8 0.81 1.8 1.8v4.39c0 0.99-0.81 1.8-1.8 1.8z" fill="#fff"/><path d="m60 50.24v-20.38c0-1 0.81-1.8 1.8-1.8h4.39c1 0 1.8 0.81 1.8 1.8v20.38c0 1-0.81 1.8-1.8 1.8h-4.39c-0.99 0-1.8-0.81-1.8-1.8z" fill="#fff"/><path d="m74.19 107.68h-20.38c-1 0-1.8-0.81-1.8-1.8v-4.39c0-1 0.81-1.8 1.8-1.8h20.38c1 0 1.8 0.81 1.8 1.8v4.39c0 0.99-0.81 1.8-1.8 1.8z" fill="#fff"/></svg>
