<svg enable-background="new 0 0 128 128" viewBox="0 0 128 128" xmlns="http://www.w3.org/2000/svg"><linearGradient id="a" x1="54.15" x2="92.65" y1="53.435" y2="88.435" gradientUnits="userSpaceOnUse"><stop stop-color="#F4C676" offset="0"/><stop stop-color="#EEBD68" offset=".1322"/><stop stop-color="#DFA544" offset=".3807"/><stop stop-color="#C67E0A" offset=".7166"/><stop stop-color="#C47B06" offset=".7389"/><stop stop-color="#E08B04" offset=".9852"/></linearGradient><path d="m109.3 8.66c1.27 0.58 1.87 1.67 2.92 3.21 1.83 2.7 3.53 5.43 4.91 8.38 3.83 8.18 5.37 17.46 2.9 26.27-1.57 5.59-3.72 12.83-7.66 17.06-18.76 20.14-31.43 18.57-36.3 24.01-2.43 2.72-3.37 6.2-4.58 9.55-1.32 3.64-3.6 6.81-6.12 9.73-6.99 8.1-17.49 14.75-28.44 15.07-7.41 0.21-14.37-2.7-20.06-7.33-7.1-5.77-11.63-13.91-11.51-23.23 0.15-11.78 8.52-23.21 18.84-28.45 8.8-4.47 19.19-4.13 27.8-9.51 5.19-3.24 7.76-10.33 10-15.7 2.81-6.74 5.7-13.93 11.67-18.5 6.7-5.12 15.8-6.49 23.6-9.09 3.17-1.06 6.58-2.19 9.98-1.94 0.85 0.06 1.51 0.22 2.05 0.47z" fill="url(#a)"/><g opacity=".2"><path d="m106.27 11.15c0.26 0 0.51 0.01 0.75 0.03 0.57 0.04 0.87 0.13 1.02 0.2 0.31 0.14 0.63 0.58 1.32 1.62l0.37 0.55c1.43 2.11 3.25 4.92 4.68 7.97 2.71 5.79 5.39 14.69 2.72 24.19-1.25 4.46-3.35 11.94-6.97 15.83-11.83 12.7-20.86 16.32-27.46 18.96-3.75 1.5-6.72 2.69-8.87 5.09-2.46 2.75-3.57 5.94-4.64 9.02-0.17 0.5-0.35 1-0.53 1.5-1 2.75-2.76 5.55-5.57 8.79-7.36 8.52-17.18 13.77-26.26 14.03-0.23 0.01-0.45 0.01-0.68 0.01-6.02 0-12.04-2.3-17.41-6.67-6.81-5.53-10.51-12.94-10.4-20.86 0.13-10.12 7.2-20.74 17.2-25.82 3.71-1.89 7.79-2.86 12.1-3.88 5.33-1.27 10.85-2.58 15.93-5.76 5.58-3.49 8.38-10.29 10.62-15.75 0.19-0.46 0.37-0.9 0.55-1.34l0.22-0.52c2.62-6.29 5.32-12.78 10.51-16.75 4.47-3.41 10.43-5.08 16.19-6.69 2.17-0.6 4.4-1.23 6.54-1.94 2.7-0.88 5.48-1.81 8.07-1.81m0-3c-3.07 0-6.13 1.02-9 1.97-7.81 2.6-16.91 3.97-23.6 9.09-5.98 4.57-8.86 11.76-11.67 18.5-2.24 5.37-4.81 12.46-10 15.7-8.61 5.38-19 5.04-27.8 9.51-10.33 5.26-18.69 16.69-18.85 28.47-0.12 9.31 4.41 17.46 11.51 23.23 5.5 4.47 12.17 7.34 19.3 7.34 0.25 0 0.51 0 0.76-0.01 10.95-0.32 21.45-6.97 28.44-15.07 2.52-2.92 4.8-6.1 6.12-9.73 1.21-3.35 2.15-6.83 4.58-9.55 4.87-5.44 17.53-3.88 36.29-24.01 3.94-4.23 6.09-11.47 7.66-17.06 2.47-8.81 0.94-18.09-2.9-26.27-1.38-2.96-3.09-5.69-4.91-8.38-1.05-1.55-1.65-2.63-2.92-3.21-0.54-0.25-1.19-0.4-2.05-0.47-0.31-0.03-0.64-0.05-0.96-0.05z" fill="#424242"/></g><path d="m111.89 10.9s0.11 0.6 0.33 1.73c0.09 0.57 0.27 1.25 0.35 2.08 0.09 0.83 0.2 1.78 0.32 2.84 0.04 1.07 0.08 2.26 0.13 3.55-0.02 0.65-0.04 1.32-0.07 2.01-0.02 0.7-0.04 1.42-0.13 2.16-0.21 2.98-0.86 6.31-1.87 9.85s-2.59 7.25-4.67 10.92c-2.1 3.67-4.76 7.3-8.05 10.55-0.41 0.41-0.82 0.82-1.24 1.22-0.44 0.38-0.88 0.76-1.33 1.14s-0.88 0.77-1.35 1.15c-0.47 0.36-0.92 0.72-1.4 1.07-1.92 1.42-3.92 2.73-5.97 4.01-4.09 2.55-8.35 4.95-12.26 7.82-3.94 2.83-7.36 6.29-10.62 9.82-3.26 3.52-6.39 7.1-9.79 10.22-0.86 0.77-1.72 1.53-2.6 2.24-0.91 0.72-1.79 1.36-2.68 2.02-0.94 0.6-1.84 1.24-2.78 1.79-0.95 0.52-1.85 1.11-2.81 1.56-3.76 1.93-7.57 3.26-11.16 4.08-3.59 0.83-6.98 1.14-9.97 1.14-2.99-0.05-5.59-0.29-7.69-0.7-1.06-0.15-1.98-0.42-2.79-0.6-0.81-0.17-1.49-0.39-2.03-0.56-1.09-0.34-1.68-0.52-1.68-0.52s0.59 0.16 1.69 0.47c0.55 0.16 1.23 0.35 2.04 0.51s1.74 0.4 2.8 0.52c2.1 0.36 4.7 0.53 7.66 0.51 2.96-0.08 6.3-0.47 9.84-1.32 3.54-0.86 7.27-2.22 10.95-4.18 0.94-0.45 1.82-1.05 2.75-1.57 0.91-0.55 1.78-1.19 2.69-1.79 0.87-0.66 1.78-1.34 2.64-2.02 0.86-0.71 1.71-1.45 2.55-2.22 3.34-3.09 6.44-6.66 9.69-10.21 3.24-3.55 6.71-7.09 10.71-9.99 3.99-2.9 8.28-5.28 12.36-7.8 2.04-1.26 4.04-2.55 5.92-3.93 0.47-0.34 0.94-0.71 1.4-1.06 0.44-0.36 0.88-0.75 1.32-1.12l1.31-1.12c0.42-0.39 0.82-0.8 1.22-1.19 3.23-3.19 5.92-6.71 8.03-10.3s3.71-7.23 4.77-10.72c0.32-0.86 0.48-1.74 0.72-2.57 0.23-0.84 0.44-1.67 0.58-2.49 0.16-0.82 0.33-1.61 0.46-2.38 0.1-0.78 0.2-1.54 0.29-2.28 0.11-0.73 0.15-1.45 0.19-2.14s0.08-1.36 0.12-2c-0.02-1.29-0.03-2.47-0.04-3.53-0.09-1.06-0.17-2.01-0.25-2.84-0.06-0.83-0.23-1.52-0.3-2.09-0.21-1.14-0.3-1.74-0.3-1.74z" fill="#A37C57"/><path d="m68.92 102.71s-0.19 0.17-0.54 0.48c-0.36 0.31-0.85 0.8-1.57 1.32-0.69 0.56-1.58 1.17-2.61 1.86-0.53 0.32-1.09 0.67-1.68 1.03-0.6 0.35-1.25 0.68-1.92 1.05-0.69 0.33-1.4 0.68-2.14 1.04-0.76 0.32-1.53 0.68-2.35 0.99-1.63 0.64-3.37 1.26-5.21 1.78-1.84 0.53-3.75 1.02-5.73 1.36-1.97 0.37-4 0.63-6.04 0.79-0.52 0.03-1.01 0.08-1.55 0.08l-1.51 0.03c-1.03-0.03-2.06-0.04-3.06-0.13-2.01-0.14-3.98-0.46-5.85-0.87-1.88-0.39-3.65-0.92-5.31-1.49-1.66-0.56-3.19-1.21-4.57-1.86-1.39-0.64-2.61-1.32-3.67-1.95-1.06-0.64-1.97-1.22-2.69-1.73-0.74-0.49-1.27-0.94-1.65-1.22-0.37-0.29-0.57-0.45-0.57-0.45s0.22 0.13 0.62 0.38 0.99 0.61 1.76 1.04c1.52 0.89 3.76 2.03 6.55 3.14 1.4 0.55 2.92 1.1 4.57 1.58 1.64 0.49 3.4 0.92 5.23 1.26 1.83 0.36 3.74 0.59 5.69 0.72 0.98 0.08 1.94 0.08 2.93 0.11l1.51-0.04c0.47 0 0.98-0.06 1.47-0.09 1.98-0.13 3.96-0.37 5.89-0.72 1.93-0.33 3.83-0.73 5.63-1.21 1.81-0.47 3.54-1 5.17-1.55 1.62-0.56 3.13-1.16 4.51-1.75 0.68-0.32 1.33-0.62 1.95-0.91 0.61-0.31 1.19-0.6 1.74-0.88 1.06-0.6 1.99-1.12 2.72-1.62 0.75-0.46 1.31-0.88 1.69-1.15s0.59-0.42 0.59-0.42z" fill="#A67E58"/><path d="m107.97 8.36s-0.84 2.1-2.32 5.78c-1.51 3.66-3.65 8.91-6.52 15.07-2.89 6.15-6.42 13.27-10.97 20.47-2.27 3.6-4.77 7.23-7.56 10.73-2.83 3.45-5.8 6.91-9.06 10.08-3.2 3.23-6.68 6.16-10.15 8.98-3.55 2.71-7.12 5.31-10.76 7.52-0.91 0.56-1.8 1.12-2.69 1.67-0.92 0.51-1.82 1.01-2.72 1.5-1.78 1.02-3.59 1.88-5.35 2.73-3.52 1.69-6.94 3.08-10.15 4.21-1.59 0.62-3.17 1.04-4.65 1.5-0.74 0.22-1.46 0.45-2.17 0.64-0.71 0.17-1.41 0.33-2.08 0.49-2.68 0.7-5.06 1.05-7.01 1.4-0.97 0.2-1.86 0.26-2.62 0.35-0.77 0.08-1.42 0.15-1.94 0.2-1.06 0.11-1.62 0.17-1.62 0.17s0.56-0.08 1.61-0.22c1.05-0.17 2.6-0.3 4.54-0.69s4.31-0.8 6.95-1.57c0.67-0.18 1.35-0.36 2.06-0.54 0.7-0.2 1.41-0.45 2.15-0.69 1.46-0.49 3.03-0.92 4.6-1.57 3.17-1.17 6.56-2.6 10.02-4.34 1.73-0.87 3.52-1.75 5.27-2.79 0.89-0.5 1.78-1.01 2.68-1.52 0.88-0.55 1.77-1.11 2.66-1.67 3.6-2.22 7.12-4.81 10.64-7.52 3.43-2.81 6.87-5.74 10.03-8.96 3.25-3.12 6.2-6.53 9.04-9.95 2.78-3.46 5.28-7.05 7.56-10.61 4.56-7.13 8.24-14.15 11.2-20.25 2.95-6.11 5.26-11.27 6.85-14.9 1.58-3.62 2.48-5.7 2.48-5.7z" fill="#A37C57"/><path d="m105.5 8.38s-0.47 0.28-1.34 0.81c-0.89 0.5-2.14 1.33-3.73 2.38-0.77 0.55-1.63 1.17-2.56 1.83-0.9 0.71-1.89 1.45-2.91 2.3-2.04 1.69-4.24 3.72-6.52 6.03-4.51 4.68-9.22 10.73-12.98 17.94-0.94 1.8-1.8 3.67-2.61 5.6-0.8 1.94-1.53 3.92-2.31 5.93-1.55 3.99-3.29 8.1-6.04 11.62-0.7 0.87-1.44 1.68-2.28 2.46-0.41 0.36-0.81 0.73-1.23 1.07l-1.34 1.01c-1.82 1.26-3.79 2.25-5.8 3.08-4.02 1.65-8.16 2.63-12.1 3.67-3.93 1.04-7.76 2.08-11.04 3.77-3.33 1.65-6.27 3.62-8.84 5.61-2.57 2-4.78 4.01-6.66 5.87-1.89 1.86-3.43 3.58-4.66 5.04-1.23 1.45-2.15 2.63-2.77 3.45-0.61 0.82-0.94 1.25-0.94 1.25s0.31-0.45 0.89-1.29c0.59-0.83 1.46-2.06 2.66-3.54 1.19-1.49 2.69-3.26 4.54-5.17 1.84-1.92 4.02-4 6.58-6.05s5.5-4.09 8.86-5.82c3.37-1.8 7.2-2.9 11.15-3.96 3.94-1.07 8.04-2.07 11.96-3.7 1.95-0.81 3.86-1.79 5.6-3.01l1.26-0.95c0.41-0.34 0.81-0.72 1.22-1.08 0.76-0.7 1.48-1.52 2.15-2.34 2.66-3.36 4.39-7.37 5.95-11.34 0.78-1.99 1.54-3.99 2.35-5.93 0.83-1.95 1.71-3.84 2.67-5.66 3.84-7.28 8.75-13.27 13.35-17.93 2.33-2.3 4.6-4.29 6.69-5.93 1.04-0.83 2.06-1.55 2.98-2.24 0.95-0.65 1.83-1.24 2.62-1.77 1.62-1.02 2.9-1.79 3.81-2.26 0.89-0.49 1.37-0.75 1.37-0.75z" fill="#A37C57"/><path d="m112.87 38.68c0.3 0.29 0.74 0.45 1.16 0.39 0.34 0.15 0.73 0.17 1.1-0.04l0.71-0.4c0.6-0.34 0.73-0.92 0.59-1.43 0.24-0.37 0.42-0.79 0.49-1.27 0.14-0.99-0.29-1.97-1.12-2.5l-0.3-0.42c-0.37-0.48-1.06-0.45-1.55-0.25-2.4 0.96-2.92 4.17-1.08 5.92z" fill="#BA7404"/><path d="m108.55 49.76c0.08 0.13 0.16 0.25 0.26 0.36 0.01 0.02 0.03 0.03 0.05 0.05 0.16 0.18 0.34 0.34 0.55 0.47 0.09 0.06 0.18 0.11 0.28 0.16 0.09 0.05 0.18 0.09 0.28 0.12 0.16 0.06 0.34 0.1 0.52 0.12h0.01c0.04 0 0.07 0.02 0.11 0.02 1.3 0.07 2.28-0.89 2.79-1.98 0.48-1.03 0.85-2.33 0.64-3.47-0.22-1.17-1.13-2.2-2.36-2.28-2.55-0.18-3.84 2.88-3.61 5.02 0.03 0.29 0.11 0.57 0.21 0.84 0.02 0.04 0.01 0.09 0.03 0.13 0.05 0.12 0.12 0.22 0.18 0.32 0.02 0.05 0.04 0.09 0.06 0.12z" fill="#BA7404"/><path d="m102.53 60.66c1.76 1.51 4.16 0.74 4.9-0.96 0.5-0.23 0.91-0.73 0.84-1.41-0.17-1.75-0.49-3.63-1.92-4.82-1.05-0.88-2.6-1.25-3.88-0.66-2.94 1.34-1.94 6.14 0.06 7.85z" fill="#BA7404"/><path d="m99.57 67.84c0.21-0.48 0.3-0.98 0.28-1.48 0.63-0.48 0.87-1.59 0.01-2.21-1.77-1.28-3.99-2.35-6.22-1.77-1.77 0.45-3.39 1.98-3.51 3.87-0.33 5.13 7.61 5.76 9.44 1.59z" fill="#BA7404"/><path d="m85.85 79.17c1.16-0.53 2.21-1.48 2.79-2.64 0.5-0.43 0.92-0.89 1.2-1.35 0.2-0.33 0.23-0.78 0.09-1.17-0.11-1.69-1.35-3.21-2.98-3.75-2.17-0.72-4.46 0.37-5.83 2.07-1.3 1.61-1.94 4.14-0.57 5.92 1.26 1.65 3.53 1.74 5.3 0.92z" fill="#BA7404"/><path d="m72.59 84.44c0.88-0.14 1.63-0.68 2.1-1.39 0.24-0.11 0.46-0.24 0.68-0.4 0.81-0.59 1.22-1.44 1.26-2.28 0.48-1.01 0.16-2.35-0.82-3.03-2.1-1.46-4.65-0.37-6.32 1.37-1.05 0.88-1.93 2.08-1.61 3.29 0.44 1.68 3.12 2.7 4.71 2.44z" fill="#BA7404"/><path d="m60.68 98.13c1.8 1.29 4.14 0.78 5.4-0.8 0.71-0.55 1.18-1.4 1.15-2.57-0.01-0.37-0.07-0.73-0.18-1.07-0.16-2.33-2.44-4.26-4.87-3.33-0.77 0.3-1.37 0.8-1.8 1.41-1.88 1.67-1.86 4.8 0.3 6.36z" fill="#BA7404"/><path d="m49.28 107.17c2.12 2.36 4.63 0.15 5.54-2.12 0.26-0.65 0.35-1.34 0.24-1.99 0.26-1.12-0.3-2.39-1.37-3.07-0.79-0.5-1.92-0.92-2.97-0.92-1.08-0.39-2.29-0.2-3.03 0.76-1.49 1.97 0.17 5.76 1.59 7.34z" fill="#BA7404"/><path d="m39.57 111.41c0.37 0.2 0.73 0.19 1.03 0.06 0.73 0.14 1.38-0.04 1.92-0.41l0.09-0.06c0.02-0.01 0.03-0.02 0.05-0.04 0.6-0.39 1.07-1 1.23-1.71 0.1-0.45 0.08-0.9-0.04-1.33-0.13-0.77-0.56-1.49-1.43-1.94-1.46-0.76-3.42-0.26-4.16 1.26-0.71 1.48-0.12 3.38 1.31 4.17z" fill="#BA7404"/><path d="m26.68 110.74c0.75 0.91 2.08 1.05 3.17 0.84 0.23-0.04 0.44-0.12 0.64-0.21 1.1-0.17 2.14-0.68 2.46-1.87 0.36-1.32-0.69-2.48-1.93-2.73-0.73-0.15-1.66-0.11-2.5 0.12-0.34 0.02-0.68 0.09-1.04 0.27-0.76 0.38-1.21 1.12-1.23 1.89-0.09 0.59 0.02 1.19 0.43 1.69z" fill="#BA7404"/><path d="m106.58 20.87c1.01 0.33 1.67-0.54 1.63-1.36 0.43-0.45 0.59-1.16 0.06-1.76-0.21-0.24-0.43-0.49-0.64-0.73-0.5-0.58-1.28-0.45-1.83-0.05-1.45 1.05-0.78 3.39 0.78 3.9z" fill="#C97D04"/><path d="m106.66 31.61c1.57-1.03 2.25-4.84 0.23-5.6-0.33-0.37-0.78-0.62-1.33-0.67-1.39-0.12-2.41 1.08-2.6 2.36-0.15 1-0.03 2.24 0.46 3.13 0.66 1.2 2.12 1.51 3.24 0.78z" fill="#C97D04"/><path d="m101.27 43.61c1.55-0.24 2.47-1.72 3.08-3.04 0.58-1.27 0.64-2.77-0.31-3.88-0.2-0.82-0.78-1.54-1.67-1.81-1.45-0.45-2.82 0.39-3.33 1.76-0.77 2.04-1.43 7.54 2.23 6.97z" fill="#C97D04"/><path d="m94.02 52.01c3.25 0.35 6.51-2.94 5.34-5.67-0.27-2.87-4.47-3.64-6.97-1.26-2.55 2.42-1.77 6.57 1.63 6.93z" fill="#C97D04"/><path d="m88.27 60.16c1.28-0.18 3.15-1.73 3.83-3.28 0.28-0.27 0.45-0.65 0.33-1.14-0.04-0.16-0.09-0.31-0.15-0.46-0.04-0.12-0.09-0.24-0.16-0.36-1.17-2.32-4.43-2.76-6.26-0.7-1.94 2.19-1.06 6.44 2.41 5.94z" fill="#C97D04"/><path d="m49.85 92.47c0.84-0.35 1.5-0.95 2.01-1.7 0.85-1.23-0.84-2.44-1.87-1.69-0.26 0.02-0.52 0.11-0.75 0.36l-0.89 0.94c-1.04 1.09 0.15 2.65 1.5 2.09z" fill="#C97D04"/><path d="m39.54 97.89c1.5 1.42 4.23 0.71 5.07-1.08 0.26-0.08 0.49-0.26 0.66-0.58 0.53-1 0.35-2.13-0.48-2.92-0.91-0.86-2.15-0.88-3.26-0.44-0.9 0.36-1.93 0.97-2.45 1.82-0.64 1.04-0.41 2.37 0.46 3.2z" fill="#C97D04"/><path d="m28.59 102.41c1.74 1.39 4.45 0.3 6.34-1.04 0.49-0.26 0.95-0.62 1.26-1.05 0.05-0.05 0.11-0.1 0.16-0.15 2.06-2.16-3.01-3.14-4.26-2.9-1.85 0.34-5.97 3.17-3.5 5.14z" fill="#C97D04"/><path d="m89.05 28.83c4.15 3.25 7.76-4.46 8.65-7.36 0.05-0.18 0.06-0.34 0.05-0.49 0.21-0.38 0.26-0.85 0.01-1.21-0.72-1.01-1.9-1.58-3.12-1.07-0.31 0.13-0.58 0.33-0.81 0.56-2.68 1.36-8.44 6.7-4.78 9.57z" fill="#FFCF7A" opacity=".56"/><path d="m84.09 40.29c2.5 0.99 3.95-1.57 5.1-3.31 0.5-0.75 1.14-1.69 1.33-2.58 0.78-0.37 1.17-1.64 0.23-2.33-3.37-2.47-8.66-0.96-9.1 3.55-0.18 1.81 0.63 3.95 2.44 4.67z" fill="#FFCF7A" opacity=".56"/><path d="m76.4 52.16c1.56 0.65 3.25-0.15 4.45-1.15 1.27-1.06 3.2-3.08 3-4.88-0.03-0.23-0.09-0.44-0.17-0.62-0.03-0.24-0.11-0.48-0.33-0.7-2.98-3.12-7.81-0.79-8.75 3.01-0.4 1.66 0.1 3.63 1.8 4.34z" fill="#FFCF7A" opacity=".56"/><path d="m72.39 61.85c1.25-0.67 2.58-1.77 2.86-3.22 0.13-0.68-0.01-1.38-0.33-1.97 0.02-1.31-1.08-2.48-2.38-2.63-1.64-0.18-3 1.02-3.59 2.46-0.55 1.33-0.99 3.46-0.16 4.75 0.81 1.29 2.38 1.27 3.6 0.61z" fill="#FFCF7A" opacity=".56"/><path d="m61.58 74.03c2.45-0.06 3.72-2.91 3.87-5.01 0.05-0.71-0.13-1.48-0.65-1.97-0.95-0.9-2.55-0.52-3.58 0.28-1.97 1.53-3.75 6.79 0.36 6.7z" fill="#FFCF7A" opacity=".56"/><path d="m46.53 82.84c1.1-0.06 2.06-0.68 2.99-1.2 1.54-0.87 3.08-1.74 4.62-2.62 0.31-0.18 0.5-0.45 0.59-0.74 0.86-0.23 1.5-1.29 0.69-2.11-1.75-1.76-4.18-0.8-6.29-0.31-2.15 0.51-5.67 0.68-6.06 3.44-0.29 2.04 1.48 3.65 3.46 3.54z" fill="#FFCF7A" opacity=".56"/><path d="m32.53 83.2c1.35 1.58 3.42 3.66 5.64 3.81 1.66 0.11 3.32-1.23 3.23-2.86 0.33-0.44 0.39-1.03-0.15-1.51-2.36-2.08-5.45-2.6-8.38-1.48-0.84 0.32-0.83 1.47-0.34 2.04z" fill="#FFCF7A" opacity=".56"/><path d="m24.98 93.02c0.83 0.49 1.74 0.82 2.47 0.94 2.21 0.37 5.54-0.59 5.34-3.38-0.04-0.54-0.24-1.01-0.55-1.39-0.53-1.87-1.46-3.68-3.48-4.25-2.01-0.57-4.75 0.84-6.05 2.32-2.31 2.63-0.36 4.83 2.27 5.76z" fill="#FFCF7A" opacity=".56"/><path d="m17.45 98.59c1.16-0.17 2.24-0.88 2.69-1.93 0.21-0.19 0.37-0.45 0.42-0.79 0.25-1.54-0.78-3.03-2.18-3.61-1.58-0.65-3.37-0.1-4.63 0.96-1.19 1-1.98 2.75-0.94 4.14 0.97 1.29 3.15 1.45 4.64 1.23z" fill="#FFCF7A" opacity=".56"/><path d="m20.19 104.79c1.17-0.08 2.29-0.67 2.55-1.9 0.51-2.39-2.83-3.51-4.48-2.23-0.08 0.03-0.16 0.06-0.24 0.1-1.06 0.56-1.52 1.87-0.88 2.91 0.62 1.04 1.96 1.2 3.05 1.12z" fill="#C97D04"/><path d="m80.33 25.01c1.26-0.57 2.08-1.99 1.57-3.18-0.01-0.11 0-0.22-0.02-0.34-0.12-0.66-0.89-1.17-1.55-0.98h-0.01c-1.35-0.39-2.64 0.56-3.47 1.73-0.6 0.45-1.18 1.02-1.21 1.79-0.11 2.52 3.38 1.57 4.69 0.98z" fill="#FFCF7A"/><path d="m71.96 39h0.02c1.74 0 3.48-1.41 4.17-3.03 0.72-1.15 0.93-2.72 0.09-3.84-0.34-0.47-0.82-0.89-1.34-1.07-0.01-0.02-0.02-0.09-0.03-0.1-1-1.21-2.79-1.06-3.87-0.08-1.15 1.04-2.11 3.23-1.99 4.81 0.12 1.61 1.32 3.31 2.95 3.31z" fill="#FFCF7A"/><path d="m66.2 50.81c0.89 0.22 1.88 0.02 2.57-0.59 1.91-1.66 1.95-8.68-1.84-7.68-2.91 0.77-4.29 5.86-1.72 7.8 0.29 0.23 0.63 0.38 0.99 0.47z" fill="#FFCF7A"/><path d="m56.84 63.02c1.76 0.11 3.77-1.47 4.72-2.86 0.82-1.2 0.87-3-0.18-4.03-0.55-1.53-2.19-2.35-3.79-1.88-2.04 0.6-2.82 2.73-3.09 4.63-0.26 1.83 0.05 3.99 2.34 4.14z" fill="#FFCF7A"/><path d="m41 66.74c0.02 0.05 0.02 0.09 0.05 0.13 0.27 0.51 0.69 0.82 1.17 0.97 0.62 0.88 2.01 0.93 2.92 0.37 1.02-0.64 1.48-1.75 1.38-2.8 0-0.03 0.02-0.06 0.02-0.1 0.13-1.34-0.93-2.37-2.19-2.56-0.77-0.11-1.43 0.11-2.01 0.5-0.59 0.3-1.07 0.77-1.35 1.35-0.11 0.14-0.21 0.29-0.31 0.43-0.34 0.53-0.19 1.35 0.32 1.71z" fill="#FFCF7A"/><path d="m34.84 73.79c0.25-0.05 0.49-0.13 0.73-0.22 1.32-0.54 2.84-2.82 2.1-4.28-0.57-1.12-2.5-1.13-3.57-1.15-1.98-0.02-6.51 0.68-4.94 3.68 0.38 0.73 1.16 1.17 1.93 1.48 1.18 0.47 2.52 0.75 3.75 0.49z" fill="#FFCF7A"/><path d="m22 81.16c0.17-0.04 0.34-0.11 0.49-0.22 0.05-0.03 0.09-0.07 0.14-0.1 0.22-0.17 0.33-0.37 0.4-0.57 1.18-1.51 2.36-3.03 3.54-4.54 0.5-0.64 0.18-1.32-0.38-1.68-0.26-0.38-0.7-0.63-1.28-0.51-2.98 0.63-5.23 3.44-5.03 6.52 0.07 1.01 1.36 1.8 2.12 1.1z" fill="#FFCF7A"/></svg>
