<?xml version="1.0" encoding="utf-8"?>
<!-- Generator: Adobe Illustrator 16.0.0, SVG Export Plug-In . SVG Version: 6.00 Build 0)  -->
<!DOCTYPE svg PUBLIC "-//W3C//DTD SVG 1.1//EN" "http://www.w3.org/Graphics/SVG/1.1/DTD/svg11.dtd">
<svg version="1.1" id="レイヤー_1" xmlns="http://www.w3.org/2000/svg" xmlns:xlink="http://www.w3.org/1999/xlink" x="0px"
	 y="0px" width="128px" height="128px" viewBox="0 0 128 128" enable-background="new 0 0 128 128" xml:space="preserve">
<g>
	<path fill="#FCC21B" d="M96.94,79.48c-1.66-2.39-5.35-1.31-7.51-7.48c-2.59-7.41-6.5-17.62-9.82-21.96
		c-6.1-7.95-11.05-5.32-11.05-8.81c0-0.8,1.53-1.62,3.55-2.84c4.37,5.16,16.93,3.83,11.98-1.11c-3.76-3.77-1.06-8.56-2.32-17.07
		l0,0.01C80.37,10.58,73.08,4.88,64,4.88c-9.09,0-16.38,5.7-17.76,15.34l-0.01-0.01c-1.25,8.51,1.45,13.3-2.32,17.07
		c-4.95,4.95,7.61,6.28,11.98,1.11c2.01,1.21,3.56,2.04,3.56,2.84c0,3.5-4.97,0.86-11.06,8.81c-3.33,4.34-7.24,14.55-9.83,21.96
		c-2.16,6.17-5.84,5.09-7.51,7.48c-4.09,5.89,3.83,10.91,7.64,6.91c3.8-4.01,6.46-9.67,8.34-15.67s3.07-9.6,4.38-9.6
		c2.52,0,1.07,7.16-1.75,13.6c-2.07,4.7-5.43,8.51-5.64,11.37c-0.36,5.05,7.81,5.17,8.81,7.04c1.36,2.53,4.13,19.19,1.39,21.54
		c-1.62,1.39-3.8,2.56-4.18,4.98c-0.74,4.78,3.52,6.4,8.44,4.97c4.58-1.33,4.43-4.07,4.08-11.24c-0.35-7.17-1.53-18.25,1.43-18.25
		c2.96,0,1.78,11.08,1.43,18.25c-0.36,7.17-0.51,9.91,4.07,11.24c4.92,1.44,9.17-0.18,8.44-4.97c-0.38-2.42-2.56-3.59-4.18-4.98
		c-2.74-2.35,0.02-19.01,1.38-21.54c1.01-1.87,9.18-1.98,8.82-7.04c-0.21-2.85-3.58-6.66-5.63-11.37c-2.83-6.43-4.28-13.6-1.75-13.6
		c1.3,0,2.5,3.6,4.38,9.6c1.87,6,4.54,11.66,8.34,15.67C93.1,90.39,101.04,85.37,96.94,79.48z"/>
</g>
</svg>
