<svg enable-background="new 0 0 128 128" viewBox="0 0 128 128" xmlns="http://www.w3.org/2000/svg"><linearGradient id="a" x1="63.565" x2="63.565" y1="114.7" y2="18.8" gradientUnits="userSpaceOnUse"><stop stop-color="#FFB300" offset="0"/><stop stop-color="#FFCA28" offset=".4007"/></linearGradient><path d="m72.25 122.57c-11.93 0-29.57-0.34-44.92-3.27-20.5-3.91-22.03-11.96-21.84-19.87 0.16-6.73 3.24-29.26 6.28-38.48 4.6-13.94 11.63-27.8 15.91-33.76 5.87-8.17 20.75-21.3 35.71-21.75h0.14c1.98 0 3.95 1.3 5.13 3.39l5.85 10.32c1.4 2.48 1.37 5.53-0.08 7.97-1.19 2-4.65 2.54-4.68 2.55l-2.75 0.4 1.85 2.09c-0.01 0 0.61 0.98-0.85 3.1-1.3 1.89-3.83 2.8-7.72 2.8-3.65 0-7.81-0.83-11.15-1.49-0.2-0.04-0.41-0.06-0.62-0.06-1.24 0-2.52 0.69-3.68 1.99-1.5 1.67-6.23 8.46-4.31 25.67 0.95 8.54-1.88 16.23-1.91 16.31l-1.19 3.18 3.15-1.26c0.03-0.02 4.83-1.9 11.43-1.9h0.7l0.45-0.54c0.14-0.17 13.94-16.48 31.85-16.48 11.7 0 22.9 4.74 29.96 12.68 4.98 5.6 7.31 12.23 6.55 18.66-2.94 24.98-26.51 27.68-36.51 27.68-1.4 0-3.04 0.01-4.87 0.03-2.33 0.02-4.98 0.04-7.88 0.04z" fill="url(#a)"/><path d="m63.54 6.95c1.42 0 2.92 1.03 3.83 2.63l5.85 10.32c1.14 2.01 1.11 4.49-0.06 6.47-0.57 0.96-2.5 1.66-3.6 1.83l-5.53 0.78 3.44 3.88c-0.01 0.2-0.12 0.71-0.7 1.55-0.99 1.43-3.17 2.16-6.49 2.16-3.5 0-7.58-0.81-10.85-1.46-0.3-0.06-0.61-0.09-0.91-0.09-1.17 0-2.96 0.43-4.8 2.49-4.27 4.77-6.02 14.8-4.69 26.83 0.9 8.13-1.8 15.55-1.83 15.62l-2.36 6.31 6.28-2.47c0.03-0.03 4.6-1.8 10.88-1.8h1.41l0.9-1.08c0.13-0.16 13.52-15.94 30.7-15.94 11.28 0 22.06 4.55 28.84 12.18 4.69 5.28 6.89 11.49 6.18 17.49-1.09 9.24-5.2 16.18-12.23 20.65-7.44 4.71-16.5 5.7-22.8 5.7-1.4 0-3.04 0.01-4.88 0.03-2.33 0.02-4.98 0.04-7.86 0.04-11.87 0-29.42-0.34-44.64-3.24-8.97-1.71-14.79-4.3-17.82-7.91-2.61-3.11-2.88-6.86-2.8-10.45 0.16-6.66 3.2-28.94 6.21-38.04 4.39-13.3 11.43-27.4 15.71-33.35 5.7-7.94 20.12-20.69 34.53-21.12l0.09-0.01m0-3h-0.18c-15.81 0.47-31.1 14.31-36.88 22.37-4.41 6.15-11.54 20.3-16.12 34.16-3.02 9.16-6.19 31.77-6.36 38.91-0.21 8.73 1.85 17.33 23.06 21.38 15.09 2.88 32.47 3.3 45.2 3.3 5.17 0 9.57-0.07 12.74-0.07 17 0 35.39-6.79 38-29 2-17-16-33.02-38-33.02-18.85 0-33 17.02-33 17.02-7 0-12 2-12 2s3-8 2-17c-1.99-17.94 3.4-25.99 6.51-25.99 0.11 0 0.22 0.01 0.33 0.03 3.46 0.69 7.66 1.52 11.44 1.52s7.14-0.83 8.95-3.45c2.25-3.25 0.74-4.95 0.74-4.95s4.17-0.59 5.76-3.27c1.73-2.91 1.77-6.53 0.1-9.48l-5.86-10.32c-1.33-2.35-3.74-4.14-6.43-4.14z" fill="#EDA600"/><path d="m62.78 18.52c-2.51-0.47-5.5-0.57-7.83 0.61-2.89 1.47-3.9 5.28-2.22 8.05 2.52 4.13 9.33 4.53 13.64 4.36 1.92-0.08 1.93-3.08 0-3-3.11 0.12-6.99-0.04-9.7-1.69-1.94-1.19-2.6-3.91-0.21-5.12 1.54-0.79 3.85-0.62 5.51-0.31 1.9 0.34 2.71-2.55 0.81-2.9z" fill="#EDA600"/><path d="m36.2 82.74c-4.8 6.99-6.04 14.02-4.34 22.3 0.39 1.89 3.28 1.09 2.89-0.8-1.54-7.52-0.32-13.64 4.04-19.99 1.1-1.59-1.5-3.09-2.59-1.51z" fill="#EDA600"/><path d="m47.77 34.91c-2.22-0.32-5.39-3.01-6.71-5.85-0.4-0.86-0.23-2.08-1.8-2.17-2.17-0.12-0.58 4.24 0.16 5.31 2.03 2.91 4.78 4.54 8.38 4.8 1.93 0.14 1.95-1.81-0.03-2.09z" fill="#EDA600"/><path d="m53.55 92.4c2.52 10.41 11.96 18.17 22.37 19.58 10.05 1.36 26.93-0.97 31.88-11.72 0.8-1.74-1.78-3.27-2.59-1.51-4.53 9.85-20.7 11.71-29.78 10.15-8.89-1.53-16.83-8.37-18.98-17.29-0.46-1.88-3.35-1.09-2.9 0.79z" fill="#EDA600"/></svg>
