<?xml version="1.0" encoding="utf-8"?>
<!-- Generator: Adobe Illustrator 16.0.0, SVG Export Plug-In . SVG Version: 6.00 Build 0)  -->
<!DOCTYPE svg PUBLIC "-//W3C//DTD SVG 1.1//EN" "http://www.w3.org/Graphics/SVG/1.1/DTD/svg11.dtd">
<svg version="1.1" id="レイヤー_1" xmlns="http://www.w3.org/2000/svg" xmlns:xlink="http://www.w3.org/1999/xlink" x="0px"
	 y="0px" width="128px" height="128px" viewBox="0 0 128 128" enable-background="new 0 0 128 128" xml:space="preserve">
<g>
	<g>
		<path fill="#006CA2" d="M122.94,64c0,32.55-26.38,58.95-58.94,58.95C31.45,122.95,5.05,96.55,5.05,64S31.45,5.06,64,5.06
			C96.56,5.06,122.94,31.45,122.94,64z"/>
		<path fill="#ED6C30" d="M64,0.1C28.76,0.1,0.1,28.76,0.1,64s28.67,63.9,63.9,63.9c35.24,0,63.9-28.67,63.9-63.9S99.24,0.1,64,0.1z
			 M10.01,64c0-12.61,4.36-24.21,11.63-33.42l75.77,75.77c-9.2,7.27-20.8,11.63-33.41,11.63C34.24,117.99,10.01,93.76,10.01,64z
			 M104.6,99.52L28.48,23.4c9.5-8.33,21.93-13.38,35.52-13.38c29.77,0,53.99,24.21,53.99,53.99
			C117.99,77.59,112.93,90.01,104.6,99.52z"/>
	</g>
	<g>
		<path fill="#FFFFFF" d="M94.11,62.37c2.99-3.21,4.77-7.56,4.77-12.59c0-10.6-7.81-18.29-18.57-18.29
			c-10.76,0-18.57,7.7-18.57,18.29c0,3.31,0.77,6.34,2.14,8.94c0.71,1.35,1.6,2.56,2.62,3.65c-2.37,2.03-4.21,4.62-5.38,7.62
			C60.2,72.37,59.7,75,59.7,77.82c0,11.77,8.67,20.31,20.61,20.31c2.74,0,5.31-0.47,7.64-1.32c3.31-1.18,6.15-3.14,8.31-5.71
			c2.94-3.49,4.66-8.07,4.66-13.29C100.92,71.43,98.35,66.02,94.11,62.37z M72.28,77.82c0-3.14,1.32-5.74,3.45-7.25
			c1.28-0.91,2.84-1.41,4.58-1.41c4.65,0,8.03,3.64,8.03,8.66c0,1.62-0.39,3.08-1.03,4.34c-1.33,2.62-3.85,4.32-7,4.32
			c-1.29,0-2.46-0.31-3.52-0.81c-1.5-0.74-2.69-1.95-3.48-3.49C72.67,80.92,72.28,79.45,72.28,77.82z M80.31,57.51
			c-0.18,0-0.35,0.02-0.52,0.02c-3.91-0.27-6.71-3.42-6.71-7.75c0-4.51,3.04-7.8,7.23-7.8c4.19,0,7.23,3.28,7.23,7.8
			c0,4.33-2.79,7.48-6.71,7.75C80.65,57.53,80.48,57.51,80.31,57.51z"/>
		<path fill="#FFFFFF" d="M54.93,83.3H50.8V33.86c0-0.25-0.11-0.49-0.3-0.65c-0.19-0.17-0.45-0.24-0.69-0.2l-9.93,1.7l-8.17,1.39
			c-0.41,0.07-0.71,0.42-0.71,0.83v12.15c0,0.25,0.11,0.48,0.29,0.64c0.18,0.16,0.43,0.24,0.67,0.21l5.49-0.67V83.3h-4.14
			c-0.47,0-0.85,0.38-0.85,0.85v11.52c0,0.47,0.38,0.85,0.85,0.85h21.63c0.48,0,0.85-0.38,0.85-0.85V84.16
			C55.79,83.68,55.41,83.3,54.93,83.3z"/>
	</g>
</g>
</svg>
