<svg width="128" height="128" style="enable-background:new 0 0 128 128;" xmlns="http://www.w3.org/2000/svg" xmlns:xlink="http://www.w3.org/1999/xlink">
  <g>
    <linearGradient id="SVGID_1_" gradientTransform="matrix(0.999 -0.045 0.045 0.999 -2.6415 3.1002)" gradientUnits="userSpaceOnUse" x1="100.0716" x2="129.8321" y1="25.3551" y2="41.3514">
      <stop offset="4.906866e-03" style="stop-color:#A0BD46"/>
      <stop offset="0.424" style="stop-color:#7F972D"/>
      <stop offset="0.9261" style="stop-color:#52650B"/>
    </linearGradient>
    <path d="M99.56,39.01c0,0,4.97,1.29,6.1-0.13c1.13-1.42,2.78-9.86,1.86-14.5 c-0.92-4.65-4.64-7.07-6.03-8.54s0.79-3.62,3.2-3.86c2.4-0.24,5.93,0.66,7.14,5.2c1.21,4.54,1.43,18.03,3.82,21.28 c2.39,3.26,2.43,3.41,4.44,3.65s1.45,0.95,1.45,0.95s-1.18-0.05-3.28,0.57c-2.09,0.62-8.03-0.14-9.69-1.01s-4.25,0.18-6.47-0.85 C99.88,40.72,99.56,39.01,99.56,39.01z" style="fill:url(#SVGID_1_);"/>
    <g style="opacity:0.2;">
      <path d="M105.41,13.94c1.59,0,3.67,0.65,4.49,3.75c0.41,1.54,0.72,4.44,1.05,7.52 c0.77,7.22,1.4,12.13,3.09,14.44l0.24,0.33c0.56,0.76,1.01,1.38,1.42,1.89c-2.56-0.05-5.48-0.63-6.2-1 c-0.78-0.41-1.61-0.55-2.37-0.59c0.04-0.04,0.07-0.08,0.11-0.13c1.68-2.12,3.21-11.3,2.26-16.13c-0.86-4.39-3.83-7.06-5.61-8.66 c-0.25-0.23-0.48-0.43-0.67-0.61c0.29-0.29,0.91-0.68,1.68-0.76C105.06,13.94,105.24,13.94,105.41,13.94 M105.41,11.94 c-0.25,0-0.48,0.01-0.71,0.04c-2.4,0.24-4.58,2.39-3.2,3.86c1.39,1.47,5.12,3.9,6.03,8.54c0.92,4.65-0.74,13.08-1.86,14.5 c-0.4,0.51-1.29,0.67-2.27,0.67c-1.77,0-3.84-0.54-3.84-0.54s0.31,1.71,2.53,2.75c0.9,0.42,1.86,0.5,2.8,0.5 c0.53,0,1.05-0.02,1.55-0.02c0.79,0,1.52,0.06,2.13,0.38c1.24,0.65,4.85,1.24,7.48,1.24c0.9,0,1.68-0.07,2.21-0.23 c1.79-0.53,2.91-0.57,3.2-0.57c0.05,0,0.08,0,0.08,0s0.56-0.71-1.45-0.95c-2.01-0.24-2.05-0.39-4.44-3.65 c-2.39-3.26-2.61-16.75-3.82-21.28C110.74,13.06,107.75,11.94,105.41,11.94L105.41,11.94z" style="fill:#424242;"/>
    </g>
  </g>
  <g>
    <linearGradient id="SVGID_2_" gradientTransform="matrix(0.999 -0.045 0.045 0.999 -2.6415 3.1002)" gradientUnits="userSpaceOnUse" x1="50.1733" x2="90.8025" y1="63.088" y2="120.7883">
      <stop offset="0.2808" style="stop-color:#FF1744"/>
      <stop offset="0.6543" style="stop-color:#B20500"/>
      <stop offset="1" style="stop-color:#EB382F"/>
    </linearGradient>
    <path d="M93.37,47.92c-1.97,5.59-0.39,10.88-1.37,16.84s-3.83,18.53-15.54,26.03 s-21.09,9.51-28.83,10.6c-7.73,1.09-15.05,0.72-28.11,0.31c-13.05-0.41-17.5,7.65-15.87,10.29c0,0,0.42,1.31,1.51-0.07 c1.08-1.38,4.24-3.46,10.25-1.57c5.61,1.76,10.12,3.8,12.75,5.37c7.94,4.75,15.77,5.38,23.73,6.04 c15.49,1.27,27.91-5.87,34.16-9.45c2.26-1.3,26.74-13.71,33.36-40.81c3.28-13.43,5.27-21.19,0.51-26.1s-9.48-2.57-12.85-3.61 c-6.92-2.15-9.5,0.51-10.44,1.22C94.66,44.48,93.78,46.58,93.37,47.92z" style="fill:url(#SVGID_2_);"/>
    <g style="opacity:0.2;">
      <path d="M102.26,43.95c1.14,0,2.46,0.23,3.93,0.69c1.34,0.42,2.68,0.45,3.82,0.45c0.22,0,0.44,0,0.67,0 l0.66,0c2.33,0,4.29,0.18,6.44,2.39c3.39,3.49,2.02,9.83-1.13,22.72l-0.14,0.58c-5.43,22.22-23.82,34.44-31.47,38.66 c-0.2,0.11-0.36,0.2-0.47,0.26c-5.6,3.22-16.03,9.2-29.02,9.2c-1.14,0-2.28-0.05-3.41-0.14c-7.76-0.63-15.09-1.23-22.44-5.62 c-3.25-1.94-8.13-4-13.39-5.66c-1.88-0.59-3.69-0.89-5.37-0.89c-0.34,0-0.67,0.01-0.99,0.03c1.79-1,4.56-1.94,8.63-1.94 c0.28,0,0.56,0,0.85,0.01l3.57,0.11c5.12,0.16,9.16,0.29,12.86,0.29c4.78,0,8.54-0.23,12.19-0.75c8.1-1.14,18-3.35,30.02-11.05 c9.09-5.82,14.77-15.26,16.88-28.06c0.46-2.77,0.42-5.31,0.38-7.77c-0.05-3.13-0.1-5.83,0.87-8.56c0.01-0.04,0.03-0.08,0.04-0.12 c0.46-1.51,1.2-2.65,2.2-3.4c0.09-0.07,0.19-0.15,0.3-0.24C99.37,44.65,100.24,43.95,102.26,43.95 M102.26,40.95 c-3.41,0-4.94,1.53-5.63,2.04c-1.98,1.49-2.86,3.59-3.27,4.92c-1.97,5.59-0.39,10.88-1.37,16.84 c-0.98,5.96-3.83,18.53-15.54,26.03c-11.71,7.5-21.09,9.51-28.83,10.6c-3.78,0.53-7.47,0.72-11.77,0.72 c-4.5,0-9.67-0.2-16.34-0.41c-0.32-0.01-0.63-0.01-0.94-0.01c-12.33,0-16.52,7.73-14.92,10.3c0,0,0.18,0.56,0.61,0.56 c0.23,0,0.52-0.16,0.89-0.63c0.77-0.98,2.6-2.33,5.78-2.33c1.27,0,2.75,0.22,4.47,0.75c5.61,1.76,10.12,3.8,12.75,5.37 c7.94,4.75,15.77,5.38,23.73,6.04c1.24,0.1,2.46,0.15,3.65,0.15c13.78,0,24.76-6.3,30.51-9.6c2.26-1.3,26.74-13.71,33.36-40.81 c3.28-13.43,5.27-21.19,0.51-26.1c-2.99-3.08-5.96-3.3-8.59-3.3c-0.45,0-0.89,0.01-1.32,0.01c-1.06,0-2.04-0.04-2.93-0.32 C105.15,41.18,103.57,40.95,102.26,40.95L102.26,40.95z" style="fill:#424242;"/>
    </g>
  </g>
</svg>