<svg enable-background="new 0 0 128 128" viewBox="0 0 128 128" xmlns="http://www.w3.org/2000/svg" xmlns:xlink="http://www.w3.org/1999/xlink"><symbol id="c" viewBox="-64.5 -64.5 129 129"><g fill="none" stroke="#4285F4" stroke-miterlimit="10"><rect x="-64" y="-64" width="128" height="128"/><path d="M36.95,37.82C27.32,46.32,14.2,51,0,51 c-14.27,0-27.39-4.62-36.96-13.01C-47.45,28.79-53,15.65-53,0c0-15.58,5.55-28.69,16.04-37.92C-27.36-46.35-14.24-51,0-51 c14.17,0,27.29,4.71,36.95,13.25C47.45-28.45,53-15.4,53,0C53,15.47,47.45,28.55,36.95,37.82z"/><path d="m0 55c-29.59 0-57-19.01-57-55 0-35.8 27.41-55 57-55s57 19.69 57 55c0 35.51-27.41 55-57 55z"/><path d="M0-43c-12.29,0-23.54,3.94-31.68,11.09 C-40.39-24.25-45-13.21-45,0c0,29.7,22.6,43,45,43c21.67,0,45-13.46,45-43S21.67-43,0-43L0-43z"/><line x1="-.01" x2="-.01" y1="51" y2="-51"/><line x1="-16" x2="-16" y1="48.95" y2="-48.93"/><line x1="15.99" x2="15.99" y1="48.91" y2="-48.93"/><line x1="53" x2="-53" y1=".08" y2=".08"/></g></symbol><path d="m-204.94 21.5h-40.09v-17.5s7.87 4.5 19.92 4.5 20.17-4.5 20.17-4.5v17.5z" fill="#1E88E5"/><linearGradient id="g" x1="-224.87" x2="-224.87" y1="23.167" y2="110.69" gradientUnits="userSpaceOnUse"><stop stop-color="#64B5F6" offset=".2054"/><stop stop-color="#2196F3" offset=".8606"/></linearGradient><path d="m-165.91 31.37-11.94-14.85c-2.47-2.77-4.71-4.46-6.77-5.32l-12.35-7.07-7.81-0.13-0.22 0.42v-0.12s-4.25 11.7-19.47 11.7c-13.51 0-19.17-9.22-20.27-11.29l-0.27-0.71-7.76 0.12-12.34 7.07c-2.06 0.86-4.3 2.55-6.77 5.32l-11.94 14.85c-0.92 1.15-1.19 2.7-0.67 3.97 0.88 2.17 2.58 5.58 5.39 8.43 2.76 2.79 6.09 4.92 8.26 6.16 1.32 0.75 3.05 0.35 4.17-0.95l3.42-3.97-4.31 70.95c-0.38 4.44 3.84 8.22 9.17 8.22l33.52-0.17 33.52 0.17c5.34 0 9.55-3.78 9.17-8.22l-4.3-70.95 3.42 3.97c1.12 1.3 2.85 1.7 4.17 0.95 2.17-1.23 5.5-3.36 8.26-6.16 2.81-2.85 4.51-6.26 5.39-8.43 0.52-1.25 0.25-2.81-0.67-3.96z" fill="url(#g)"/><path d="m-224.83 18.83c15.62 0 21-10.9 24-14.73l-4.09-0.07s-4.86 11.47-20.08 11.47-20.01-11.47-20.01-11.47l-3.99-0.03c3 3.84 8.55 14.83 24.17 14.83z" fill="#B3E5FC"/><defs><path id="f" d="m-165.91 31.37-11.94-14.85c-2.47-2.77-4.71-4.46-6.77-5.32l-12.35-7.07-7.81-0.13-0.22 0.42v-0.12s-4.25 11.7-19.47 11.7c-13.51 0-19.17-9.22-20.27-11.29l-0.27-0.71-7.76 0.12-12.34 7.07c-2.06 0.86-4.3 2.55-6.77 5.32l-11.94 14.85c-0.92 1.15-1.19 2.7-0.67 3.97 0.88 2.17 2.58 5.58 5.39 8.43 2.76 2.79 6.09 4.92 8.26 6.16 1.32 0.75 3.05 0.35 4.17-0.95l3.42-3.97-4.31 70.95c-0.38 4.44 3.84 8.22 9.17 8.22l33.52-0.17 33.52 0.17c5.34 0 9.55-3.78 9.17-8.22l-4.3-70.95 3.42 3.97c1.12 1.3 2.85 1.7 4.17 0.95 2.17-1.23 5.5-3.36 8.26-6.16 2.81-2.85 4.51-6.26 5.39-8.43 0.52-1.25 0.25-2.81-0.67-3.96z"/></defs><clipPath id="b"><use xlink:href="#f"/></clipPath><g clip-path="url(#b)"><polygon points="-184.83 62 -265.17 62 -264.17 48 -185.83 48" fill="#B3E5FC"/><rect x="-268.83" y="84" width="87.65" height="17.5" fill="#81D4FA"/></g><polygon points="-271.83 51.25 -257.72 29.59 -264.48 64.98" clip-path="url(#b)" fill="#424242" opacity=".2"/><polygon points="-175.61 57.06 -192.27 29.59 -184.96 64" clip-path="url(#b)" fill="#424242" opacity=".2"/><g clip-path="url(#b)" fill="#B3E5FC"><path d="m-270.08 35.39c-3.28-3.3-6.42-9.08-7.55-11.48-0.18-0.38-0.29-0.77-0.35-1.16l-0.46 0.57c-0.92 1.15-1.51 2.52-1 3.79 0.88 2.17 2.97 6.21 6.04 9.62 2.62 2.92 4.74 4.96 6.94 6.15 4.17 2.25 4.7-0.72 4.7-0.72s-4.74-3.16-8.32-6.77z"/><path d="m-179.33 35.39c3.28-3.3 6.42-9.08 7.55-11.48 0.18-0.38 0.29-0.77 0.35-1.16l0.46 0.57c0.92 1.15 1.51 2.52 1 3.79-0.88 2.17-2.97 6.21-6.04 9.62-2.62 2.92-4.74 4.96-6.94 6.15-4.17 2.25-4.7-0.72-4.7-0.72s4.74-3.16 8.32-6.77z"/></g><g opacity=".2"><path d="m-204.1 7.01 6.31 0.1 11.68 6.69c0.11 0.06 0.22 0.12 0.33 0.17 1.71 0.71 3.6 2.23 5.64 4.49l11.89 14.79c0.27 0.34 0.32 0.75 0.23 0.96-0.83 2.05-2.33 5-4.75 7.45-2.48 2.52-5.51 4.46-7.57 5.64-0.06 0-0.25-0.05-0.45-0.29l-3.42-3.97c-0.58-0.68-1.42-1.04-2.28-1.04-0.38 0-0.76 0.07-1.13 0.22-1.19 0.48-1.94 1.68-1.87 2.96l4.31 70.95c0 0.02 0 0.05 0.01 0.07 0.11 1.32-0.53 2.32-1.09 2.93-1.17 1.28-3.08 2.04-5.08 2.04l-33.56-0.17-33.51 0.17c-2.02 0-3.92-0.76-5.09-2.04-0.56-0.61-1.2-1.61-1.09-2.93 0-0.02 0-0.05 0.01-0.07l4.31-70.95c0.08-1.29-0.67-2.48-1.87-2.96-0.37-0.15-0.75-0.22-1.13-0.22-0.86 0-1.69 0.37-2.28 1.04l-3.42 3.97c-0.2 0.24-0.4 0.29-0.41 0.3-2.1-1.19-5.12-3.14-7.61-5.66-2.42-2.45-3.92-5.4-4.75-7.45-0.09-0.22-0.04-0.63 0.23-0.96l11.89-14.79c2.03-2.27 3.93-3.78 5.64-4.49 0.11-0.05 0.23-0.1 0.33-0.17l11.68-6.69 6.18-0.1c2.39 1.15 10.19 4.49 20.63 4.49 10.75 0.01 18.66-3.33 21.06-4.48m-40.98-3.01-7.69 0.12-12.35 7.07c-2.06 0.86-4.3 2.55-6.77 5.32l-11.94 14.85c-0.92 1.15-1.19 2.7-0.68 3.97 0.88 2.17 2.58 5.58 5.39 8.43 2.76 2.79 6.09 4.92 8.26 6.16 0.45 0.25 0.94 0.38 1.44 0.38 0.98 0 1.99-0.47 2.73-1.33l3.42-3.97-4.31 70.95c-0.38 4.44 3.84 8.22 9.17 8.22l33.52-0.17 33.52 0.17c5.34 0 9.55-3.78 9.17-8.22l-4.28-70.95 3.42 3.97c0.74 0.86 1.75 1.33 2.73 1.33 0.5 0 0.99-0.12 1.44-0.38 2.17-1.23 5.5-3.36 8.26-6.16 2.81-2.85 4.51-6.26 5.39-8.43 0.52-1.27 0.25-2.82-0.68-3.97l-11.94-14.85c-2.47-2.77-4.71-4.46-6.77-5.32l-12.35-7.07-7.8-0.12s-8.3 4.5-20.35 4.5c-11.74 0-19.95-4.5-19.95-4.5z" fill="#424242"/></g><path d="m-32.97 124h-84.05c-3.12 0-5.49-2.81-4.95-5.89l2.11-12.11c2.24-12.84 2.61-45.63 2.66-53.94 0.01-1.08-0.85-1.97-1.93-2.01-1.48-0.05-3.39-0.1-4.07-0.1l-3.32 0.03c-2.56 0.02-4.72-1.88-5.03-4.42l-2.98-24.59c-0.28-2.33 1.08-4.54 3.28-5.33 0 0 20.87-11.64 32.24-11.64l0.06 0.04s6.27 13.24 23.77 13.24 24.43-13.28 24.43-13.28c11.73 0 32 11.64 32 11.64 2.2 0.8 3.55 3.01 3.27 5.33l-2.98 24.62c-0.31 2.51-2.45 4.41-4.99 4.41h-3.37c-0.68 0-2.6 0.06-4.09 0.1-1.07 0.03-1.92 0.9-1.93 1.97-0.11 8.17-0.38 40.4 1.85 53.18l2.98 12.86c0.52 3.08-1.85 5.89-4.96 5.89z" fill="#F44336"/><defs><path id="e" d="m-32.97 124h-84.05c-3.12 0-5.49-2.81-4.95-5.89l2.11-12.11c2.24-12.84 2.61-45.63 2.66-53.94 0.01-1.08-0.85-1.97-1.93-2.01-1.48-0.05-3.39-0.1-4.07-0.1l-3.32 0.03c-2.56 0.02-4.72-1.88-5.03-4.42l-2.98-24.59c-0.28-2.33 1.08-4.54 3.28-5.33 0 0 20.87-11.64 32.24-11.64l0.06 0.04s6.27 13.24 23.77 13.24 24.43-13.28 24.43-13.28c11.73 0 32 11.64 32 11.64 2.2 0.8 3.55 3.01 3.27 5.33l-2.98 24.62c-0.31 2.51-2.45 4.41-4.99 4.41h-3.37c-0.68 0-2.6 0.06-4.09 0.1-1.07 0.03-1.92 0.9-1.93 1.97-0.11 8.17-0.38 40.4 1.85 53.18l2.98 12.86c0.52 3.08-1.85 5.89-4.96 5.89z"/></defs><clipPath id="a"><use xlink:href="#e"/></clipPath><ellipse cx="-75" cy="-2" rx="32" ry="28" clip-path="url(#a)" fill="#eee"/><path d="m-119.25 62.57-9.86 1.65-9.89-59.18 9.86-1.65s1.87 16.11 3.99 29.83 5.9 29.35 5.9 29.35z" clip-path="url(#a)" fill="#eee"/><path d="m-30.75 62.57 9.86 1.65 9.89-59.18-9.86-1.65s-1.9 16.17-3.99 29.86-5.9 29.32-5.9 29.32z" clip-path="url(#a)" fill="#eee"/><rect x="-126.06" y="47.14" width="102.11" height="16.65" clip-path="url(#a)" fill="#eee"/><rect x="-121.2" y="81.83" width="92.42" height="16.65" clip-path="url(#a)" fill="#eee"/><g opacity=".2"><path d="m-49.13 7.08c4.31 0.39 10.32 2.26 17.51 5.46 6.33 2.81 11.33 5.67 11.38 5.7 0.15 0.09 0.31 0.16 0.47 0.22 0.89 0.32 1.43 1.21 1.32 2.15l-2.98 24.62c-0.12 1.02-0.99 1.78-2.01 1.78h-3.37c-0.58 0-1.99 0.04-4.18 0.1-2.68 0.08-4.8 2.25-4.84 4.93-0.12 9.35-0.35 40.85 1.89 53.73 0.01 0.05 0.02 0.11 0.03 0.16l2.95 12.77c0.11 0.77-0.23 1.32-0.46 1.59s-0.73 0.72-1.55 0.72h-84.05c-0.82 0-1.32-0.45-1.55-0.72s-0.59-0.84-0.44-1.65l2.11-12.11c2.26-12.92 2.64-44.93 2.71-54.44 0.02-2.73-2.1-4.94-4.83-5.03-2.05-0.07-3.41-0.1-4.06-0.1h-0.14l-3.33 0.03c-1.02 0-1.89-0.77-2.01-1.78l-2.98-24.59c-0.11-0.94 0.43-1.83 1.32-2.15 0.15-0.06 0.3-0.12 0.44-0.2 5.28-2.94 20.15-10.3 29.13-11.18 2.54 3.97 10.1 13.2 25.48 13.2 15.38-0.01 23.36-9.3 26.04-13.21m-1.62-3.08s-6.92 13.28-24.42 13.28-23.77-13.24-23.77-13.24l-0.06-0.04c-11.37 0-32.24 11.64-32.24 11.64-2.2 0.79-3.57 3.01-3.28 5.33l2.98 24.59c0.31 2.52 2.45 4.42 4.99 4.42h0.05l3.32-0.03h0.11c0.76 0 2.55 0.05 3.96 0.1 1.08 0.04 1.94 0.92 1.93 2.01-0.06 8.32-0.42 41.11-2.66 53.94l-2.11 12.11c-0.54 3.07 1.83 5.89 4.95 5.89h84.05c3.12 0 5.48-2.81 4.95-5.89l-3-12.86c-2.22-12.78-1.96-45.01-1.85-53.18 0.01-1.07 0.87-1.93 1.93-1.97 1.49-0.05 3.41-0.1 4.09-0.1h3.37c2.54 0 4.68-1.9 4.99-4.42l2.98-24.62c0.28-2.32-1.07-4.53-3.27-5.33 0.01 0.01-20.26-11.63-31.99-11.63z" fill="#424242"/></g><path d="m38.19 9s-0.01 0-0.01 0.12c0 17.6 6.78 21.75 25.82 21.75s25.82-4.08 25.82-21.69c0-0.13-0.01-0.19-0.01-0.19s-4.99 5-26.08 5-25.54-4.99-25.54-4.99z" fill="#43A047"/><linearGradient id="d" x1="64" x2="64" y1="119" y2="9" gradientUnits="userSpaceOnUse"><stop stop-color="#4CAF50" offset=".0036073"/><stop stop-color="#81C784" offset="1"/></linearGradient><path d="m98.28 119h-68.56c-3.14 0-5.53-2.81-4.99-5.89 0 0 0.73-47.74 0.79-56.06 0.01-1.08-0.85-1.97-1.95-2.01-1.5-0.05-7.44 1.9-8.13 1.9l-3.34 0.03c-2.57 0.03-4.75-1.87-5.06-4.41l-3-24.59c-0.28-2.33 1.09-4.54 3.31-5.33 0 0 21.02-13.64 32.47-13.64l0.06 0.04s6.32 13.24 23.95 13.24 24.6-13.28 24.6-13.28c11.82 0 32.24 13.64 32.24 13.64 2.21 0.8 3.58 3.01 3.3 5.33l-3.01 24.62c-0.31 2.52-2.47 4.42-5.03 4.42h-3.4c-0.69 0-6.65-1.94-8.15-1.9-1.08 0.03-1.93 0.9-1.95 1.97-0.11 8.17 0.83 56.04 0.83 56.04 0.54 3.07-1.84 5.88-4.98 5.88z" fill="url(#d)"/><defs><path id="o" d="m98.28 119h-68.56c-3.14 0-5.53-2.81-4.99-5.89 0 0 0.73-47.74 0.79-56.06 0.01-1.08-0.85-1.97-1.95-2.01-1.5-0.05-7.44 1.9-8.13 1.9l-3.34 0.03c-2.57 0.03-4.75-1.87-5.06-4.41l-3-24.59c-0.28-2.33 1.09-4.54 3.31-5.33 0 0 21.02-13.64 32.47-13.64l0.06 0.04s6.32 13.24 23.95 13.24 24.6-13.28 24.6-13.28c11.82 0 32.24 13.64 32.24 13.64 2.21 0.8 3.58 3.01 3.3 5.33l-3.01 24.62c-0.31 2.52-2.47 4.42-5.03 4.42h-3.4c-0.69 0-6.65-1.94-8.15-1.9-1.08 0.03-1.93 0.9-1.95 1.97-0.11 8.17 0.83 56.04 0.83 56.04 0.54 3.07-1.84 5.88-4.98 5.88z"/></defs><clipPath id="n"><use xlink:href="#o"/></clipPath><path d="M95.64-7c0,19.14-14.28,33.65-31.89,33.65S31.85,12.14,31.85-7 s14.28-34.65,31.89-34.65S95.64-26.14,95.64-7z" clip-path="url(#n)" fill="#2E7D32"/><g opacity=".2"><path d="m90.03 12.1c11.08 1.16 28.8 12.92 28.98 13.04 0.2 0.13 0.42 0.24 0.65 0.33 0.9 0.33 1.45 1.21 1.34 2.14l-3.01 24.62c-0.12 1.02-1 1.78-2.05 1.78h-3.18c-0.39-0.09-1.34-0.35-2.06-0.55-2.95-0.82-4.98-1.35-6.25-1.35h-0.15c-2.69 0.08-4.82 2.25-4.85 4.93-0.11 8.12 0.79 54.19 0.83 56.14 0 0.15 0.02 0.31 0.04 0.46 0.14 0.8-0.22 1.36-0.44 1.63-0.23 0.28-0.74 0.74-1.59 0.74h-68.57c-0.85 0-1.36-0.46-1.59-0.74-0.22-0.27-0.58-0.84-0.44-1.63 0.03-0.16 0.04-0.32 0.05-0.47 0.01-0.48 0.73-47.85 0.79-56.08 0.02-2.73-2.11-4.94-4.85-5.03h-0.16c-1.28 0-3.32 0.54-6.28 1.36-0.7 0.2-1.64 0.46-2.02 0.54l-3.15 0.03c-1.04 0-1.92-0.77-2.05-1.78l-3-24.59c-0.11-0.94 0.44-1.82 1.34-2.14 0.22-0.08 0.43-0.18 0.62-0.31 0.18-0.12 18.35-11.83 29.22-13.05 0.04 0.06 0.08 0.12 0.11 0.17 0.31 0.47 0.75 0.84 1.26 1.08 3.64 1.65 10.79 3.63 24.16 3.63 13.94 0 21.36-2.13 25.12-3.92 0.47-0.22 0.88-0.56 1.18-0.98m-0.22-3.1-0.06 0.06c-0.45-0.04-0.89-0.06-1.32-0.06 0 0-0.28 0.53-0.86 1.37-3.12 1.48-10.03 3.63-23.84 3.63-13.04 0-19.72-1.91-22.91-3.37-0.64-0.97-0.94-1.59-0.94-1.59l-0.06-0.04c-0.5 0-1.01 0.03-1.54 0.08-0.06-0.05-0.09-0.08-0.09-0.08s-0.01 0.02-0.01 0.09c-11.7 1.14-30.83 13.55-30.83 13.55-2.22 0.79-3.59 3.01-3.31 5.33l3 24.6c0.31 2.52 2.47 4.43 5.02 4.43h0.05l3.34-0.06c0.68-0.01 6.49-1.94 8.07-1.94h0.06c1.09 0 1.95 0.95 1.95 2.03-0.06 8.32-0.79 56.07-0.79 56.07-0.54 3.07 1.84 5.9 4.99 5.9h68.55c3.14 0 5.53-2.81 4.99-5.89 0 0-0.94-47.93-0.83-56.1 0.01-1.07 0.87-2.02 1.95-2.02h0.06c1.58 0 7.41 2 8.09 2h3.4c2.56 0 4.72-1.9 5.03-4.42l3.01-24.62c0.28-2.32-1.08-4.53-3.3-5.33 0 0-18.9-12.62-30.86-13.57-0.01-0.03-0.01-0.05-0.01-0.05z" fill="#424242"/></g><g display="none"><g display="inline"><g opacity=".6"><circle cx="-225" cy="64" r="28" fill="none" opacity=".61" stroke="#000" stroke-miterlimit="10" stroke-width=".2625"/><line x1="-205" x2="-205" y2="128" fill="none" opacity=".61" stroke="#000" stroke-miterlimit="10" stroke-width=".25"/><line x1="-245" x2="-245" y2="128" fill="none" opacity=".61" stroke="#000" stroke-miterlimit="10" stroke-width=".25"/><line x1="-225" x2="-225" y2="128" fill="none" opacity=".61" stroke="#000" stroke-miterlimit="10" stroke-width=".25"/><line x1="-161" x2="-289" y1="64" y2="64" fill="none" opacity=".61" stroke="#000" stroke-miterlimit="10" stroke-width=".25"/><line x1="-161" x2="-289" y1="44" y2="44" fill="none" opacity=".61" stroke="#000" stroke-miterlimit="10" stroke-width=".25"/><line x1="-161" x2="-289" y1="83.75" y2="83.75" fill="none" opacity=".61" stroke="#000" stroke-miterlimit="10" stroke-width=".25"/><line x1="-161" x2="-289" y1="128" fill="none" opacity=".61" stroke="#000" stroke-miterlimit="10" stroke-width=".25"/><line x1="-289" x2="-161" y1="128" fill="none" opacity=".61" stroke="#000" stroke-miterlimit="10" stroke-width=".25"/><g opacity=".61"><path d="m-225 4.26c32.94 0 59.74 26.8 59.74 59.74s-26.8 59.74-59.74 59.74-59.74-26.8-59.74-59.74 26.8-59.74 59.74-59.74m0-0.26c-33.14 0-60 26.86-60 60s26.86 60 60 60 60-26.86 60-60-26.86-60-60-60z"/></g><path d="m-181.03 115.97h-87.94c-4.42 0-8.03-3.61-8.03-8.03v-87.91c0-4.42 3.61-8.03 8.03-8.03h87.94c4.42 0 8.03 3.61 8.03 8.03v87.91c0 4.42-3.61 8.03-8.03 8.03z" fill="none" opacity=".61" stroke="#000" stroke-miterlimit="10" stroke-width=".2578"/><path d="m-189 124h-72c-4.4 0-8-3.6-8-8v-104c0-4.4 3.6-8 8-8h72c4.4 0 8 3.6 8 8v104c0 4.4-3.6 8-8 8z" fill="none" opacity=".61" stroke="#000" stroke-miterlimit="10" stroke-width=".2628"/><path d="m-175.23 108h-99.54c-5.63 0-10.23-4.6-10.23-10.23v-67.49c0-5.63 4.6-10.23 10.23-10.23h99.54c5.63 0 10.23 4.6 10.23 10.23v67.48c0 5.64-4.6 10.24-10.23 10.24z" fill="none" opacity=".61" stroke="#000" stroke-miterlimit="10" stroke-width=".2627"/></g><g opacity=".2"><defs><rect id="i" x="-289" width="128" height="128" opacity=".2"/></defs><clipPath id="m"><use xlink:href="#i"/></clipPath><g clip-path="url(#m)"><g fill="none" stroke="#000" stroke-miterlimit="10" stroke-width=".25"><line x1="-317" x2="-317" y1="160" y2="-32"/><line x1="-313" x2="-313" y1="160" y2="-32"/><line x1="-309" x2="-309" y1="160" y2="-32"/><line x1="-305" x2="-305" y1="160" y2="-32"/><line x1="-301" x2="-301" y1="160" y2="-32"/><line x1="-297" x2="-297" y1="160" y2="-32"/><line x1="-293" x2="-293" y1="160" y2="-32"/><line x1="-289" x2="-289" y1="160" y2="-32"/><line x1="-285" x2="-285" y1="160" y2="-32"/><line x1="-281" x2="-281" y1="160" y2="-32"/><line x1="-277" x2="-277" y1="160" y2="-32"/><line x1="-273" x2="-273" y1="160" y2="-32"/><line x1="-269" x2="-269" y1="160" y2="-32"/><line x1="-265" x2="-265" y1="160" y2="-32"/><line x1="-261" x2="-261" y1="160" y2="-32"/><line x1="-257" x2="-257" y1="160" y2="-32"/><line x1="-253" x2="-253" y1="160" y2="-32"/><line x1="-249" x2="-249" y1="160" y2="-32"/><line x1="-245" x2="-245" y1="160" y2="-32"/><line x1="-241" x2="-241" y1="160" y2="-32"/><line x1="-237" x2="-237" y1="160" y2="-32"/><line x1="-233" x2="-233" y1="160" y2="-32"/><line x1="-229" x2="-229" y1="160" y2="-32"/><line x1="-225" x2="-225" y1="160" y2="-32"/><line x1="-221" x2="-221" y1="160" y2="-32"/><line x1="-217" x2="-217" y1="160" y2="-32"/><line x1="-213" x2="-213" y1="160" y2="-32"/><line x1="-209" x2="-209" y1="160" y2="-32"/><line x1="-205" x2="-205" y1="160" y2="-32"/><line x1="-201" x2="-201" y1="160" y2="-32"/><line x1="-197" x2="-197" y1="160" y2="-32"/><line x1="-193" x2="-193" y1="160" y2="-32"/><line x1="-189" x2="-189" y1="160" y2="-32"/><line x1="-185" x2="-185" y1="160" y2="-32"/><line x1="-181" x2="-181" y1="160" y2="-32"/><line x1="-177" x2="-177" y1="160" y2="-32"/><line x1="-173" x2="-173" y1="160" y2="-32"/><line x1="-169" x2="-169" y1="160" y2="-32"/><line x1="-165" x2="-165" y1="160" y2="-32"/><line x1="-161" x2="-161" y1="160" y2="-32"/><line x1="-157" x2="-157" y1="160" y2="-32"/><line x1="-153" x2="-153" y1="160" y2="-32"/><line x1="-152" x2="-152" y1="166.05" y2="-25.95"/><line x1="-145" x2="-145" y1="160" y2="-32"/><line x1="-141" x2="-141" y1="160" y2="-32"/><line x1="-137" x2="-137" y1="160" y2="-32"/><line x1="-133" x2="-133" y1="160" y2="-32"/></g><g fill="none" stroke="#000" stroke-miterlimit="10" stroke-width=".25"><line x1="-321" x2="-129" y1="-28" y2="-28"/><line x1="-321" x2="-129" y1="-24" y2="-24"/><line x1="-321" x2="-129" y1="-20" y2="-20"/><line x1="-321" x2="-129" y1="-16" y2="-16"/><line x1="-321" x2="-129" y1="-12" y2="-12"/><line x1="-321" x2="-129" y1="-8" y2="-8"/><line x1="-321" x2="-129" y1="-4" y2="-4"/><line x1="-321" x2="-129"/><line x1="-321" x2="-129" y1="4" y2="4"/><line x1="-321" x2="-129" y1="8" y2="8"/><line x1="-321" x2="-129" y1="12" y2="12"/><line x1="-321" x2="-129" y1="16" y2="16"/><line x1="-321" x2="-129" y1="20" y2="20"/><line x1="-321" x2="-129" y1="24" y2="24"/><line x1="-321" x2="-129" y1="28" y2="28"/><line x1="-321" x2="-129" y1="32" y2="32"/><line x1="-321" x2="-129" y1="36" y2="36"/><line x1="-321" x2="-129" y1="40" y2="40"/><line x1="-321" x2="-129" y1="44" y2="44"/><line x1="-321" x2="-129" y1="48" y2="48"/><line x1="-321" x2="-129" y1="52" y2="52"/><line x1="-321" x2="-129" y1="56" y2="56"/><line x1="-321" x2="-129" y1="60" y2="60"/><line x1="-321" x2="-129" y1="64" y2="64"/><line x1="-321" x2="-129" y1="68" y2="68"/><line x1="-321" x2="-129" y1="72" y2="72"/><line x1="-321" x2="-129" y1="76" y2="76"/><line x1="-321" x2="-129" y1="80" y2="80"/><line x1="-321" x2="-129" y1="84" y2="84"/><line x1="-321" x2="-129" y1="88" y2="88"/><line x1="-321" x2="-129" y1="92" y2="92"/><line x1="-321" x2="-129" y1="96" y2="96"/><line x1="-321" x2="-129" y1="100" y2="100"/><line x1="-321" x2="-129" y1="104" y2="104"/><line x1="-321" x2="-129" y1="108" y2="108"/><line x1="-321" x2="-129" y1="112" y2="112"/><line x1="-321" x2="-129" y1="116" y2="116"/><line x1="-321" x2="-129" y1="120" y2="120"/><line x1="-321" x2="-129" y1="124" y2="124"/><line x1="-321" x2="-129" y1="128" y2="128"/><line x1="-321" x2="-129" y1="132" y2="132"/><line x1="-321" x2="-129" y1="136" y2="136"/><line x1="-321" x2="-129" y1="140" y2="140"/><line x1="-321" x2="-129" y1="144" y2="144"/><line x1="-321" x2="-129" y1="148" y2="148"/><line x1="-321" x2="-129" y1="152" y2="152"/><line x1="-321" x2="-129" y1="156" y2="156"/></g><path d="m-129.25-31.75v191.5h-191.5v-191.5h191.5m0.25-0.25h-192v192h192v-192z"/></g></g><g fill="#F44336"><rect x="-289" width="4" height="128" opacity=".3"/><rect x="-165" width="4" height="128" opacity=".3"/><rect transform="matrix(-1.837e-16 1 -1 -1.837e-16 -223 227)" x="-227" y="-58" width="4" height="120" opacity=".3"/><rect transform="matrix(-1.837e-16 1 -1 -1.837e-16 -99 351)" x="-227" y="66" width="4" height="120" opacity=".3"/></g></g><g display="inline"><g opacity=".6"><circle cx="-75" cy="64" r="28" fill="none" opacity=".61" stroke="#000" stroke-miterlimit="10" stroke-width=".2625"/><line x1="-55" x2="-55" y2="128" fill="none" opacity=".61" stroke="#000" stroke-miterlimit="10" stroke-width=".25"/><line x1="-95" x2="-95" y2="128" fill="none" opacity=".61" stroke="#000" stroke-miterlimit="10" stroke-width=".25"/><line x1="-75" x2="-75" y2="128" fill="none" opacity=".61" stroke="#000" stroke-miterlimit="10" stroke-width=".25"/><line x1="-11" x2="-139" y1="64" y2="64" fill="none" opacity=".61" stroke="#000" stroke-miterlimit="10" stroke-width=".25"/><line x1="-11" x2="-139" y1="44" y2="44" fill="none" opacity=".61" stroke="#000" stroke-miterlimit="10" stroke-width=".25"/><line x1="-11" x2="-139" y1="83.75" y2="83.75" fill="none" opacity=".61" stroke="#000" stroke-miterlimit="10" stroke-width=".25"/><line x1="-11" x2="-139" y1="128" fill="none" opacity=".61" stroke="#000" stroke-miterlimit="10" stroke-width=".25"/><line x1="-139" x2="-11" y1="128" fill="none" opacity=".61" stroke="#000" stroke-miterlimit="10" stroke-width=".25"/><g opacity=".61"><path d="m-75 4.26c32.94 0 59.74 26.8 59.74 59.74s-26.8 59.74-59.74 59.74-59.74-26.8-59.74-59.74 26.8-59.74 59.74-59.74m0-0.26c-33.14 0-60 26.86-60 60s26.86 60 60 60 60-26.86 60-60-26.86-60-60-60z"/></g><path d="m-31.03 115.97h-87.94c-4.42 0-8.03-3.61-8.03-8.03v-87.91c0-4.42 3.61-8.03 8.03-8.03h87.94c4.42 0 8.03 3.61 8.03 8.03v87.91c0 4.42-3.61 8.03-8.03 8.03z" fill="none" opacity=".61" stroke="#000" stroke-miterlimit="10" stroke-width=".2578"/><path d="m-39 124h-72c-4.4 0-8-3.6-8-8v-104c0-4.4 3.6-8 8-8h72c4.4 0 8 3.6 8 8v104c0 4.4-3.6 8-8 8z" fill="none" opacity=".61" stroke="#000" stroke-miterlimit="10" stroke-width=".2628"/><path d="m-25.23 108h-99.54c-5.63 0-10.23-4.6-10.23-10.23v-67.49c0-5.63 4.6-10.23 10.23-10.23h99.54c5.63 0 10.23 4.6 10.23 10.23v67.48c0 5.64-4.6 10.24-10.23 10.24z" fill="none" opacity=".61" stroke="#000" stroke-miterlimit="10" stroke-width=".2627"/></g><g opacity=".2"><defs><rect id="h" x="-139" width="128" height="128" opacity=".2"/></defs><clipPath id="l"><use xlink:href="#h"/></clipPath><g clip-path="url(#l)"><g fill="none" stroke="#000" stroke-miterlimit="10" stroke-width=".25"><line x1="-167" x2="-167" y1="160" y2="-32"/><line x1="-163" x2="-163" y1="160" y2="-32"/><line x1="-159" x2="-159" y1="160" y2="-32"/><line x1="-155" x2="-155" y1="160" y2="-32"/><line x1="-151" x2="-151" y1="160" y2="-32"/><line x1="-147" x2="-147" y1="160" y2="-32"/><line x1="-143" x2="-143" y1="160" y2="-32"/><line x1="-139" x2="-139" y1="160" y2="-32"/><line x1="-135" x2="-135" y1="160" y2="-32"/><line x1="-131" x2="-131" y1="160" y2="-32"/><line x1="-127" x2="-127" y1="160" y2="-32"/><line x1="-123" x2="-123" y1="160" y2="-32"/><line x1="-119" x2="-119" y1="160" y2="-32"/><line x1="-115" x2="-115" y1="160" y2="-32"/><line x1="-111" x2="-111" y1="160" y2="-32"/><line x1="-107" x2="-107" y1="160" y2="-32"/><line x1="-103" x2="-103" y1="160" y2="-32"/><line x1="-99" x2="-99" y1="160" y2="-32"/><line x1="-95" x2="-95" y1="160" y2="-32"/><line x1="-91" x2="-91" y1="160" y2="-32"/><line x1="-87" x2="-87" y1="160" y2="-32"/><line x1="-83" x2="-83" y1="160" y2="-32"/><line x1="-79" x2="-79" y1="160" y2="-32"/><line x1="-75" x2="-75" y1="160" y2="-32"/><line x1="-71" x2="-71" y1="160" y2="-32"/><line x1="-67" x2="-67" y1="160" y2="-32"/><line x1="-63" x2="-63" y1="160" y2="-32"/><line x1="-59" x2="-59" y1="160" y2="-32"/><line x1="-55" x2="-55" y1="160" y2="-32"/><line x1="-51" x2="-51" y1="160" y2="-32"/><line x1="-47" x2="-47" y1="160" y2="-32"/><line x1="-43" x2="-43" y1="160" y2="-32"/><line x1="-39" x2="-39" y1="160" y2="-32"/><line x1="-35" x2="-35" y1="160" y2="-32"/><line x1="-31" x2="-31" y1="160" y2="-32"/><line x1="-27" x2="-27" y1="160" y2="-32"/><line x1="-23" x2="-23" y1="160" y2="-32"/><line x1="-19" x2="-19" y1="160" y2="-32"/><line x1="-15" x2="-15" y1="160" y2="-32"/><line x1="-11" x2="-11" y1="160" y2="-32"/><line x1="-7" x2="-7" y1="160" y2="-32"/><line x1="-3" x2="-3" y1="160" y2="-32"/><line x1="-2" x2="-2" y1="166.05" y2="-25.95"/><line x1="5" x2="5" y1="160" y2="-32"/><line x1="9" x2="9" y1="160" y2="-32"/><line x1="13" x2="13" y1="160" y2="-32"/><line x1="17" x2="17" y1="160" y2="-32"/></g><g fill="none" stroke="#000" stroke-miterlimit="10" stroke-width=".25"><line x1="-171" x2="21" y1="-28" y2="-28"/><line x1="-171" x2="21" y1="-24" y2="-24"/><line x1="-171" x2="21" y1="-20" y2="-20"/><line x1="-171" x2="21" y1="-16" y2="-16"/><line x1="-171" x2="21" y1="-12" y2="-12"/><line x1="-171" x2="21" y1="-8" y2="-8"/><line x1="-171" x2="21" y1="-4" y2="-4"/><line x1="-171" x2="21"/><line x1="-171" x2="21" y1="4" y2="4"/><line x1="-171" x2="21" y1="8" y2="8"/><line x1="-171" x2="21" y1="12" y2="12"/><line x1="-171" x2="21" y1="16" y2="16"/><line x1="-171" x2="21" y1="20" y2="20"/><line x1="-171" x2="21" y1="24" y2="24"/><line x1="-171" x2="21" y1="28" y2="28"/><line x1="-171" x2="21" y1="32" y2="32"/><line x1="-171" x2="21" y1="36" y2="36"/><line x1="-171" x2="21" y1="40" y2="40"/><line x1="-171" x2="21" y1="44" y2="44"/><line x1="-171" x2="21" y1="48" y2="48"/><line x1="-171" x2="21" y1="52" y2="52"/><line x1="-171" x2="21" y1="56" y2="56"/><line x1="-171" x2="21" y1="60" y2="60"/><line x1="-171" x2="21" y1="64" y2="64"/><line x1="-171" x2="21" y1="68" y2="68"/><line x1="-171" x2="21" y1="72" y2="72"/><line x1="-171" x2="21" y1="76" y2="76"/><line x1="-171" x2="21" y1="80" y2="80"/><line x1="-171" x2="21" y1="84" y2="84"/><line x1="-171" x2="21" y1="88" y2="88"/><line x1="-171" x2="21" y1="92" y2="92"/><line x1="-171" x2="21" y1="96" y2="96"/><line x1="-171" x2="21" y1="100" y2="100"/><line x1="-171" x2="21" y1="104" y2="104"/><line x1="-171" x2="21" y1="108" y2="108"/><line x1="-171" x2="21" y1="112" y2="112"/><line x1="-171" x2="21" y1="116" y2="116"/><line x1="-171" x2="21" y1="120" y2="120"/><line x1="-171" x2="21" y1="124" y2="124"/><line x1="-171" x2="21" y1="128" y2="128"/><line x1="-171" x2="21" y1="132" y2="132"/><line x1="-171" x2="21" y1="136" y2="136"/><line x1="-171" x2="21" y1="140" y2="140"/><line x1="-171" x2="21" y1="144" y2="144"/><line x1="-171" x2="21" y1="148" y2="148"/><line x1="-171" x2="21" y1="152" y2="152"/><line x1="-171" x2="21" y1="156" y2="156"/></g><path d="m20.75-31.75v191.5h-191.5v-191.5h191.5m0.25-0.25h-192v192h192v-192z"/></g></g><g fill="#F44336"><rect x="-139" width="4" height="128" opacity=".3"/><rect x="-15" width="4" height="128" opacity=".3"/><rect transform="matrix(-1.837e-16 1 -1 -1.837e-16 -73 77)" x="-77" y="-58" width="4" height="120" opacity=".3"/><rect transform="matrix(-1.837e-16 1 -1 -1.837e-16 51 201)" x="-77" y="66" width="4" height="120" opacity=".3"/></g></g><g display="inline"><g opacity=".6"><circle cx="64" cy="64" r="28" fill="none" opacity=".61" stroke="#000" stroke-miterlimit="10" stroke-width=".2625"/><line x1="84" x2="84" y2="128" fill="none" opacity=".61" stroke="#000" stroke-miterlimit="10" stroke-width=".25"/><line x1="44" x2="44" y2="128" fill="none" opacity=".61" stroke="#000" stroke-miterlimit="10" stroke-width=".25"/><line x1="64" x2="64" y2="128" fill="none" opacity=".61" stroke="#000" stroke-miterlimit="10" stroke-width=".25"/><line x1="128" y1="64" y2="64" fill="none" opacity=".61" stroke="#000" stroke-miterlimit="10" stroke-width=".25"/><line x1="128" y1="44" y2="44" fill="none" opacity=".61" stroke="#000" stroke-miterlimit="10" stroke-width=".25"/><line x1="128" y1="83.75" y2="83.75" fill="none" opacity=".61" stroke="#000" stroke-miterlimit="10" stroke-width=".25"/><line x1="128" y1="128" fill="none" opacity=".61" stroke="#000" stroke-miterlimit="10" stroke-width=".25"/><line x2="128" y1="128" fill="none" opacity=".61" stroke="#000" stroke-miterlimit="10" stroke-width=".25"/><g opacity=".61"><path d="M64,4.26c32.94,0,59.74,26.8,59.74,59.74S96.94,123.74,64,123.74S4.26,96.94,4.26,64S31.06,4.26,64,4.26 M64,4 C30.86,4,4,30.86,4,64s26.86,60,60,60s60-26.86,60-60S97.14,4,64,4L64,4z"/></g><path d="m107.97 115.97h-87.94c-4.42 0-8.03-3.61-8.03-8.03v-87.91c0-4.42 3.61-8.03 8.03-8.03h87.94c4.42 0 8.03 3.61 8.03 8.03v87.91c0 4.42-3.61 8.03-8.03 8.03z" fill="none" opacity=".61" stroke="#000" stroke-miterlimit="10" stroke-width=".2578"/><path d="m100 124h-72c-4.4 0-8-3.6-8-8v-104c0-4.4 3.6-8 8-8h72c4.4 0 8 3.6 8 8v104c0 4.4-3.6 8-8 8z" fill="none" opacity=".61" stroke="#000" stroke-miterlimit="10" stroke-width=".2628"/><path d="M113.77,108H14.23 C8.6,108,4,103.4,4,97.77V30.28c0-5.63,4.6-10.23,10.23-10.23h99.54c5.63,0,10.23,4.6,10.23,10.23v67.48 C124,103.4,119.4,108,113.77,108z" fill="none" opacity=".61" stroke="#000" stroke-miterlimit="10" stroke-width=".2627"/></g><g opacity=".2"><defs><rect id="j" width="128" height="128" opacity=".2"/></defs><clipPath id="k"><use xlink:href="#j"/></clipPath><g clip-path="url(#k)"><g fill="none" stroke="#000" stroke-miterlimit="10" stroke-width=".25"><line x1="-28" x2="-28" y1="160" y2="-32"/><line x1="-24" x2="-24" y1="160" y2="-32"/><line x1="-20" x2="-20" y1="160" y2="-32"/><line x1="-16" x2="-16" y1="160" y2="-32"/><line x1="-12" x2="-12" y1="160" y2="-32"/><line x1="-8" x2="-8" y1="160" y2="-32"/><line x1="-4" x2="-4" y1="160" y2="-32"/><line y1="160" y2="-32"/><line x1="4" x2="4" y1="160" y2="-32"/><line x1="8" x2="8" y1="160" y2="-32"/><line x1="12" x2="12" y1="160" y2="-32"/><line x1="16" x2="16" y1="160" y2="-32"/><line x1="20" x2="20" y1="160" y2="-32"/><line x1="24" x2="24" y1="160" y2="-32"/><line x1="28" x2="28" y1="160" y2="-32"/><line x1="32" x2="32" y1="160" y2="-32"/><line x1="36" x2="36" y1="160" y2="-32"/><line x1="40" x2="40" y1="160" y2="-32"/><line x1="44" x2="44" y1="160" y2="-32"/><line x1="48" x2="48" y1="160" y2="-32"/><line x1="52" x2="52" y1="160" y2="-32"/><line x1="56" x2="56" y1="160" y2="-32"/><line x1="60" x2="60" y1="160" y2="-32"/><line x1="64" x2="64" y1="160" y2="-32"/><line x1="68" x2="68" y1="160" y2="-32"/><line x1="72" x2="72" y1="160" y2="-32"/><line x1="76" x2="76" y1="160" y2="-32"/><line x1="80" x2="80" y1="160" y2="-32"/><line x1="84" x2="84" y1="160" y2="-32"/><line x1="88" x2="88" y1="160" y2="-32"/><line x1="92" x2="92" y1="160" y2="-32"/><line x1="96" x2="96" y1="160" y2="-32"/><line x1="100" x2="100" y1="160" y2="-32"/><line x1="104" x2="104" y1="160" y2="-32"/><line x1="108" x2="108" y1="160" y2="-32"/><line x1="112" x2="112" y1="160" y2="-32"/><line x1="116" x2="116" y1="160" y2="-32"/><line x1="120" x2="120" y1="160" y2="-32"/><line x1="124" x2="124" y1="160" y2="-32"/><line x1="128" x2="128" y1="160" y2="-32"/><line x1="132" x2="132" y1="160" y2="-32"/><line x1="136" x2="136" y1="160" y2="-32"/><line x1="137" x2="137" y1="166.05" y2="-25.95"/><line x1="144" x2="144" y1="160" y2="-32"/><line x1="148" x2="148" y1="160" y2="-32"/><line x1="152" x2="152" y1="160" y2="-32"/><line x1="156" x2="156" y1="160" y2="-32"/></g><g fill="none" stroke="#000" stroke-miterlimit="10" stroke-width=".25"><line x1="-32" x2="160" y1="-28" y2="-28"/><line x1="-32" x2="160" y1="-24" y2="-24"/><line x1="-32" x2="160" y1="-20" y2="-20"/><line x1="-32" x2="160" y1="-16" y2="-16"/><line x1="-32" x2="160" y1="-12" y2="-12"/><line x1="-32" x2="160" y1="-8" y2="-8"/><line x1="-32" x2="160" y1="-4" y2="-4"/><line x1="-32" x2="160"/><line x1="-32" x2="160" y1="4" y2="4"/><line x1="-32" x2="160" y1="8" y2="8"/><line x1="-32" x2="160" y1="12" y2="12"/><line x1="-32" x2="160" y1="16" y2="16"/><line x1="-32" x2="160" y1="20" y2="20"/><line x1="-32" x2="160" y1="24" y2="24"/><line x1="-32" x2="160" y1="28" y2="28"/><line x1="-32" x2="160" y1="32" y2="32"/><line x1="-32" x2="160" y1="36" y2="36"/><line x1="-32" x2="160" y1="40" y2="40"/><line x1="-32" x2="160" y1="44" y2="44"/><line x1="-32" x2="160" y1="48" y2="48"/><line x1="-32" x2="160" y1="52" y2="52"/><line x1="-32" x2="160" y1="56" y2="56"/><line x1="-32" x2="160" y1="60" y2="60"/><line x1="-32" x2="160" y1="64" y2="64"/><line x1="-32" x2="160" y1="68" y2="68"/><line x1="-32" x2="160" y1="72" y2="72"/><line x1="-32" x2="160" y1="76" y2="76"/><line x1="-32" x2="160" y1="80" y2="80"/><line x1="-32" x2="160" y1="84" y2="84"/><line x1="-32" x2="160" y1="88" y2="88"/><line x1="-32" x2="160" y1="92" y2="92"/><line x1="-32" x2="160" y1="96" y2="96"/><line x1="-32" x2="160" y1="100" y2="100"/><line x1="-32" x2="160" y1="104" y2="104"/><line x1="-32" x2="160" y1="108" y2="108"/><line x1="-32" x2="160" y1="112" y2="112"/><line x1="-32" x2="160" y1="116" y2="116"/><line x1="-32" x2="160" y1="120" y2="120"/><line x1="-32" x2="160" y1="124" y2="124"/><line x1="-32" x2="160" y1="128" y2="128"/><line x1="-32" x2="160" y1="132" y2="132"/><line x1="-32" x2="160" y1="136" y2="136"/><line x1="-32" x2="160" y1="140" y2="140"/><line x1="-32" x2="160" y1="144" y2="144"/><line x1="-32" x2="160" y1="148" y2="148"/><line x1="-32" x2="160" y1="152" y2="152"/><line x1="-32" x2="160" y1="156" y2="156"/></g><path d="m159.75-31.75v191.5h-191.5v-191.5h191.5m0.25-0.25h-192v192h192v-192z"/></g></g><g fill="#F44336"><rect width="4" height="128" opacity=".3"/><rect x="124" width="4" height="128" opacity=".3"/><rect transform="matrix(-1.837e-16 1 -1 -1.837e-16 66 -62)" x="62" y="-58" width="4" height="120" opacity=".3"/><rect transform="matrix(-1.837e-16 1 -1 -1.837e-16 190 62)" x="62" y="66" width="4" height="120" opacity=".3"/></g></g></g><g display="none"><rect transform="matrix(6.1232e-17 -1 1 6.1232e-17 -902 -155)" x="-592.5" y="309.5" width="128" height="128" display="inline" fill="none" stroke="#616161" stroke-miterlimit="10"/><g display="inline" fill="none" stroke="#E0E0E0" stroke-miterlimit="10"><rect x="-592.5" y="310.5" width="128" height="128"/><line x1="-584.5" x2="-584.5" y1="310" y2="438"/><line x1="-576.5" x2="-576.5" y1="310" y2="438"/><line x1="-568.5" x2="-568.5" y1="310" y2="438"/><line x1="-560.5" x2="-560.5" y1="310" y2="438"/><line x1="-552.5" x2="-552.5" y1="310" y2="438"/><line x1="-544.5" x2="-544.5" y1="310" y2="438"/><line x1="-536.5" x2="-536.5" y1="310" y2="438"/><line x1="-528.5" x2="-528.5" y1="310" y2="438"/><line x1="-520.5" x2="-520.5" y1="310" y2="438"/><line x1="-512.5" x2="-512.5" y1="310" y2="438"/><line x1="-504.5" x2="-504.5" y1="310" y2="438"/><line x1="-496.5" x2="-496.5" y1="310" y2="438"/><line x1="-488.5" x2="-488.5" y1="310" y2="438"/><line x1="-480.5" x2="-480.5" y1="310" y2="438"/><line x1="-472.5" x2="-472.5" y1="310" y2="438"/><line x1="-464" x2="-592" y1="430.5" y2="430.5"/><line x1="-464" x2="-592" y1="422.5" y2="422.5"/><line x1="-464" x2="-592" y1="414.5" y2="414.5"/><line x1="-464" x2="-592" y1="406.5" y2="406.5"/><line x1="-464" x2="-592" y1="398.5" y2="398.5"/><line x1="-464" x2="-592" y1="390.5" y2="390.5"/><line x1="-464" x2="-592" y1="382.5" y2="382.5"/><line x1="-464" x2="-592" y1="374.5" y2="374.5"/><line x1="-464" x2="-592" y1="366.5" y2="366.5"/><line x1="-464" x2="-592" y1="358.5" y2="358.5"/><line x1="-464" x2="-592" y1="350.5" y2="350.5"/><line x1="-464" x2="-592" y1="342.5" y2="342.5"/><line x1="-464" x2="-592" y1="334.5" y2="334.5"/><line x1="-464" x2="-592" y1="326.5" y2="326.5"/><line x1="-464" x2="-592" y1="318.5" y2="318.5"/></g><use transform="matrix(1 0 0 -1 -528 374)" x="-64.5" y="-64.5" width="129" height="129" display="inline" xlink:href="#c"/><rect transform="matrix(6.1232e-17 -1 1 6.1232e-17 -289 -162)" x="-289.5" y="-.5" width="128" height="128" display="inline" fill="none" stroke="#616161" stroke-miterlimit="10"/><g display="inline" fill="none" stroke="#E0E0E0" stroke-miterlimit="10"><rect x="-289.5" y=".5" width="128" height="128"/><line x1="-281.5" x2="-281.5" y2="128"/><line x1="-273.5" x2="-273.5" y2="128"/><line x1="-265.5" x2="-265.5" y2="128"/><line x1="-257.5" x2="-257.5" y2="128"/><line x1="-249.5" x2="-249.5" y2="128"/><line x1="-241.5" x2="-241.5" y2="128"/><line x1="-233.5" x2="-233.5" y2="128"/><line x1="-225.5" x2="-225.5" y2="128"/><line x1="-217.5" x2="-217.5" y2="128"/><line x1="-209.5" x2="-209.5" y2="128"/><line x1="-201.5" x2="-201.5" y2="128"/><line x1="-193.5" x2="-193.5" y2="128"/><line x1="-185.5" x2="-185.5" y2="128"/><line x1="-177.5" x2="-177.5" y2="128"/><line x1="-169.5" x2="-169.5" y2="128"/><line x1="-161" x2="-289" y1="120.5" y2="120.5"/><line x1="-161" x2="-289" y1="112.5" y2="112.5"/><line x1="-161" x2="-289" y1="104.5" y2="104.5"/><line x1="-161" x2="-289" y1="96.5" y2="96.5"/><line x1="-161" x2="-289" y1="88.5" y2="88.5"/><line x1="-161" x2="-289" y1="80.5" y2="80.5"/><line x1="-161" x2="-289" y1="72.5" y2="72.5"/><line x1="-161" x2="-289" y1="64.5" y2="64.5"/><line x1="-161" x2="-289" y1="56.5" y2="56.5"/><line x1="-161" x2="-289" y1="48.5" y2="48.5"/><line x1="-161" x2="-289" y1="40.5" y2="40.5"/><line x1="-161" x2="-289" y1="32.5" y2="32.5"/><line x1="-161" x2="-289" y1="24.5" y2="24.5"/><line x1="-161" x2="-289" y1="16.5" y2="16.5"/><line x1="-161" x2="-289" y1="8.5" y2="8.5"/></g><use transform="matrix(1 0 0 -1 -225 64)" x="-64.5" y="-64.5" width="129" height="129" display="inline" xlink:href="#c"/></g></svg>
