<svg enable-background="new 0 0 128 128" viewBox="0 0 128 128" xmlns="http://www.w3.org/2000/svg" xmlns:xlink="http://www.w3.org/1999/xlink"><linearGradient id="g" x1="22" x2="22" y1="78.432" y2="21.102" gradientUnits="userSpaceOnUse"><stop stop-color="#E3F2FD" offset="0"/><stop stop-color="#DFF0FD" offset=".2099"/><stop stop-color="#D2EAFC" offset=".435"/><stop stop-color="#BCDFFB" offset=".6673"/><stop stop-color="#9FD1FA" offset=".903"/><stop stop-color="#90CAF9" offset="1"/></linearGradient><path d="m34 28h-2v-2c0-1.1-0.9-2-2-2h-16c-1.1 0-2 0.9-2 2v2h-2c-1.1 0-2 0.9-2 2v86h28v-86c0-1.1-0.9-2-2-2z" fill="url(#g)"/><radialGradient id="f" cx="60.333" cy="78.5" r="86.426" gradientUnits="userSpaceOnUse"><stop stop-color="#E3F2FD" offset="0"/><stop stop-color="#DFF0FD" offset=".2156"/><stop stop-color="#D3EAFC" offset=".4374"/><stop stop-color="#BEE0FB" offset=".6619"/><stop stop-color="#A1D2FA" offset=".8871"/><stop stop-color="#90CAF9" offset="1"/></radialGradient><path d="m118 36h-2v-2c0-1.1-0.9-2-2-2h-24c-1.1 0-2 0.9-2 2v2h-2c-1.1 0-2 0.9-2 2v26h-12v-42c0-1.1-0.9-2-2-2h-2v-6c0-1.1-0.9-2-2-2h-4v-6c0-1.1-0.9-2-2-2h-4c-1.1 0-2 0.9-2 2v6h-4c-1.1 0-2 0.9-2 2v6h-2c-1.1 0-2 0.9-2 2v102h28v-20h12v20h36v-86c0-1.1-0.9-2-2-2z" fill="url(#f)"/><g fill="#424242" opacity=".2"><path d="m29 27v1c0 1.66 1.34 3 3 3h1v82h-22v-82h1c1.66 0 3-1.34 3-3v-1h14m1-3h-16c-1.1 0-2 0.9-2 2v2h-2c-1.1 0-2 0.9-2 2v86h28v-86c0-1.1-0.9-2-2-2h-2v-2c0-1.1-0.9-2-2-2z"/><path d="m59 7v5c0 1.66 1.34 3 3 3h3v5c0 1.66 1.34 3 3 3h1v41c0 1.66 1.34 3 3 3h12c1.66 0 3-1.34 3-3v-25h1c1.66 0 3-1.34 3-3v-1h22v1c0 1.66 1.34 3 3 3h1v82h-30v-17c0-1.66-1.34-3-3-3h-12c-1.66 0-3 1.34-3 3v17h-22v-98h1c1.66 0 3-1.34 3-3v-5h3c1.66 0 3-1.34 3-3v-5h2m1-3h-4c-1.1 0-2 0.9-2 2v6h-4c-1.1 0-2 0.9-2 2v6h-2c-1.1 0-2 0.9-2 2v102h28v-20h12v20h36v-86c0-1.1-0.9-2-2-2h-2v-2c0-1.1-0.9-2-2-2h-24c-1.1 0-2 0.9-2 2v2h-2c-1.1 0-2 0.9-2 2v26h-12v-42c0-1.1-0.9-2-2-2h-2v-6c0-1.1-0.9-2-2-2h-4v-6c0-1.1-0.9-2-2-2z"/></g><defs><path id="e" d="m118 36h-2v-2c0-1.1-0.9-2-2-2h-24c-1.1 0-2 0.9-2 2v2h-2c-1.1 0-2 0.9-2 2v26h-12v-42c0-1.1-0.9-2-2-2h-2v-6c0-1.1-0.9-2-2-2h-4v-6c0-1.1-0.9-2-2-2h-4c-1.1 0-2 0.9-2 2v6h-4c-1.1 0-2 0.9-2 2v6h-2c-1.1 0-2 0.9-2 2v102h28v-20h12v20h36v-86c0-1.1-0.9-2-2-2z"/></defs><clipPath><use xlink:href="#e"/></clipPath><defs><rect id="d" x="4" y="20" width="36" height="72"/></defs><clipPath id="c"><use xlink:href="#d"/></clipPath><g clip-path="url(#c)"><defs><path id="b" d="m123.43 52.95c-5.01 1.9-9.14 4.95-11.82 8.7-0.72 0.65-1.33 1.44-1.75 2.38-0.03 0.07-0.06 0.13-0.09 0.2-0.21 0.49-0.86 0.74-1.51 0.62-0.39-0.07-0.79-0.11-1.2-0.11-1.65 0-3.17 0.6-4.41 1.61-0.88 0.72-2.35 0.75-3.37 0.14-2.65-1.57-5.93-2.5-9.49-2.5-2.71 0-5.26 0.55-7.49 1.5-1.07 0.46-2.41 0.17-3.14-0.59-4.39-4.59-11.32-7.57-19.14-7.57-5.92 0-11.32 1.71-15.51 4.53-0.47 0.32-1.16 0.33-1.64 0.01-1.11-0.74-2.41-1.17-3.8-1.17-1.1 0-2.13 0.28-3.06 0.75v-31.45c0-1.1-0.9-2-2-2h-2v-2c0-1.1-0.9-2-2-2h-16c-1.1 0-2 0.9-2 2v2h-2c-1.1 0-2 0.9-2 2v32.59c-0.52-0.13-1.06-0.22-1.62-0.22-0.83 0-1.63 0.15-2.38 0.43v61.2h120v-71.21c-0.2 0.04-0.39 0.09-0.58 0.16z"/></defs><clipPath><use xlink:href="#b"/></clipPath></g><g opacity=".5"><radialGradient id="a" cx="61.766" cy="78.222" r="37.717" gradientTransform="matrix(1.0287e-13 1 -1.7007 1.7495e-13 194.8 16.456)" gradientUnits="userSpaceOnUse"><stop stop-color="#F5F5F5" offset="0"/><stop stop-color="#eee" offset=".2057"/><stop stop-color="#DEDEDE" offset=".45"/><stop stop-color="#D5D5D5" offset=".5541"/><stop stop-color="#C3C3C3" offset=".8118"/><stop stop-color="#BDBDBD" offset="1"/></radialGradient><path d="m124 124v-71.21c-0.19 0.04-0.38 0.09-0.57 0.16-5.01 1.9-9.14 4.95-11.82 8.7-0.72 0.65-1.33 1.44-1.75 2.38-0.03 0.07-0.06 0.13-0.09 0.2-0.21 0.49-0.86 0.74-1.51 0.62-0.39-0.07-0.79-0.11-1.2-0.11-1.65 0-3.17 0.6-4.41 1.61-0.88 0.72-2.35 0.75-3.37 0.14-2.65-1.57-5.93-2.5-9.49-2.5-2.71 0-5.26 0.55-7.49 1.5-1.07 0.46-2.41 0.17-3.14-0.59-4.39-4.59-11.32-7.57-19.14-7.57-5.92 0-11.32 1.71-15.51 4.53-0.47 0.32-1.16 0.33-1.64 0.01-1.11-0.74-2.41-1.17-3.8-1.17-1.36 0-2.62 0.41-3.72 1.11-0.42 0.27-1.01 0.28-1.47 0.05-2.7-1.34-5.88-2.12-9.3-2.12-4.8 0-9.15 1.54-12.32 4.02-0.48 0.38-1.26 0.35-1.76-0.01-1.18-0.88-2.59-1.39-4.12-1.39-0.83 0-1.63 0.15-2.38 0.43v61.21h120z" fill="url(#a)"/></g><g opacity=".2"><path d="m121 57.38v63.62h-114v-55.58c0.6 0.1 1.18 0.36 1.7 0.74 0.76 0.57 1.72 0.88 2.7 0.88 0.99 0 1.95-0.32 2.7-0.91 2.79-2.18 6.51-3.38 10.47-3.38 2.83 0 5.58 0.62 7.96 1.81 0.62 0.31 1.33 0.47 2.03 0.47 0.87 0 1.7-0.24 2.4-0.7 0.65-0.42 1.35-0.63 2.09-0.63 0.76 0 1.48 0.22 2.14 0.66 0.72 0.48 1.58 0.74 2.47 0.74 0.91 0 1.77-0.26 2.5-0.75 3.85-2.59 8.76-4.02 13.84-4.02 6.66 0 13 2.48 16.97 6.64 1.06 1.1 2.59 1.74 4.2 1.74 0.8 0 1.57-0.16 2.28-0.46 1.93-0.82 4.11-1.26 6.31-1.26 2.91 0 5.66 0.72 7.96 2.08 0.93 0.55 2.02 0.85 3.15 0.85 1.37 0 2.67-0.45 3.65-1.25 0.52-0.42 1.37-0.93 2.5-0.93 0.22 0 0.44 0.02 0.66 0.06 0.29 0.05 0.58 0.08 0.87 0.08 1.74 0 3.29-0.96 3.94-2.45l0.07-0.16c0.24-0.53 0.58-0.99 1.03-1.39l0.24-0.22 0.19-0.27c1.71-2.35 4.11-4.42 6.98-6.01m3-4.59c-0.19 0.04-0.38 0.09-0.57 0.16-5.01 1.9-9.14 4.95-11.82 8.7-0.72 0.65-1.33 1.44-1.75 2.38-0.03 0.07-0.06 0.13-0.09 0.2-0.18 0.41-0.66 0.65-1.19 0.65-0.11 0-0.21-0.01-0.32-0.03-0.39-0.07-0.79-0.11-1.2-0.11-1.65 0-3.17 0.6-4.41 1.61-0.47 0.38-1.1 0.57-1.75 0.57-0.57 0-1.14-0.14-1.62-0.43-2.65-1.57-5.93-2.5-9.49-2.5-2.71 0-5.26 0.55-7.49 1.5-0.35 0.15-0.73 0.22-1.1 0.22-0.78 0-1.54-0.3-2.03-0.81-4.39-4.59-11.32-7.57-19.14-7.57-5.92 0-11.32 1.71-15.51 4.53-0.24 0.16-0.53 0.24-0.83 0.24-0.29 0-0.58-0.08-0.81-0.23-1.11-0.74-2.41-1.17-3.8-1.17-1.36 0-2.62 0.41-3.72 1.11-0.22 0.14-0.5 0.22-0.77 0.22-0.24 0-0.49-0.05-0.7-0.16-2.7-1.34-5.88-2.12-9.3-2.12-4.8 0-9.15 1.54-12.32 4.02-0.24 0.18-0.54 0.27-0.85 0.27-0.33 0-0.65-0.1-0.91-0.29-1.18-0.88-2.59-1.39-4.12-1.39-0.83 0-1.63 0.15-2.38 0.43v61.21h120v-71.21h-0.01z" fill="#424242"/></g><linearGradient id="i" x1="64" x2="64" y1="100.92" y2="31.773" gradientUnits="userSpaceOnUse"><stop stop-color="#BBDEFB" offset="0"/><stop stop-color="#B2DAFA" offset=".1899"/><stop stop-color="#98CDF9" offset=".5065"/><stop stop-color="#6EBAF7" offset=".9087"/><stop stop-color="#64B5F6" offset="1"/></linearGradient><path d="m122 52h-20c-1.1 0-2 0.9-2 2v58h-8v-46c0-1.1-0.9-2-2-2h-32c-1.1 0-2 0.9-2 2v38h-8v-54c0-1.1-0.9-2-2-2h-28c-1.1 0-2 0.9-2 2v26h-10c-1.1 0-2 0.9-2 2v46h120v-70c0-1.1-0.9-2-2-2z" fill="url(#i)"/><g fill="#E3F2FD"><path d="m19.25 40h-4.5c-0.41 0-0.75-0.34-0.75-0.75v-4.5c0-0.41 0.34-0.75 0.75-0.75h4.5c0.41 0 0.75 0.34 0.75 0.75v4.5c0 0.41-0.34 0.75-0.75 0.75z"/><path d="m29.25 44h-4.5c-0.41 0-0.75-0.34-0.75-0.75v-4.5c0-0.41 0.34-0.75 0.75-0.75h4.5c0.41 0 0.75 0.34 0.75 0.75v4.5c0 0.41-0.34 0.75-0.75 0.75z"/><path d="m55.25 32h-4.5c-0.41 0-0.75-0.34-0.75-0.75v-4.5c0-0.41 0.34-0.75 0.75-0.75h4.5c0.41 0 0.75 0.34 0.75 0.75v4.5c0 0.41-0.34 0.75-0.75 0.75z"/><path d="m65.25 41h-4.5c-0.41 0-0.75-0.34-0.75-0.75v-4.5c0-0.41 0.34-0.75 0.75-0.75h4.5c0.41 0 0.75 0.34 0.75 0.75v4.5c0 0.41-0.34 0.75-0.75 0.75z"/><path d="m65.25 52h-4.5c-0.41 0-0.75-0.34-0.75-0.75v-4.5c0-0.41 0.34-0.75 0.75-0.75h4.5c0.41 0 0.75 0.34 0.75 0.75v4.5c0 0.41-0.34 0.75-0.75 0.75z"/><path d="m105.25 44h-4.5c-0.41 0-0.75-0.34-0.75-0.75v-4.5c0-0.41 0.34-0.75 0.75-0.75h4.5c0.41 0 0.75 0.34 0.75 0.75v4.5c0 0.41-0.34 0.75-0.75 0.75z"/><path d="m95.25 52h-4.5c-0.41 0-0.75-0.34-0.75-0.75v-4.5c0-0.41 0.34-0.75 0.75-0.75h4.5c0.41 0 0.75 0.34 0.75 0.75v4.5c0 0.41-0.34 0.75-0.75 0.75z"/><path d="m76.25 86h-4.5c-0.41 0-0.75-0.34-0.75-0.75v-4.5c0-0.41 0.34-0.75 0.75-0.75h4.5c0.41 0 0.75 0.34 0.75 0.75v4.5c0 0.41-0.34 0.75-0.75 0.75z"/><path d="m67.25 96h-4.5c-0.41 0-0.75-0.34-0.75-0.75v-4.5c0-0.41 0.34-0.75 0.75-0.75h4.5c0.41 0 0.75 0.34 0.75 0.75v4.5c0 0.41-0.34 0.75-0.75 0.75z"/><path d="m85.25 76h-4.5c-0.41 0-0.75-0.34-0.75-0.75v-4.5c0-0.41 0.34-0.75 0.75-0.75h4.5c0.41 0 0.75 0.34 0.75 0.75v4.5c0 0.41-0.34 0.75-0.75 0.75z"/><path d="m111.25 64h-4.5c-0.41 0-0.75-0.34-0.75-0.75v-4.5c0-0.41 0.34-0.75 0.75-0.75h4.5c0.41 0 0.75 0.34 0.75 0.75v4.5c0 0.41-0.34 0.75-0.75 0.75z"/><path d="m117.25 76h-4.5c-0.41 0-0.75-0.34-0.75-0.75v-4.5c0-0.41 0.34-0.75 0.75-0.75h4.5c0.41 0 0.75 0.34 0.75 0.75v4.5c0 0.41-0.34 0.75-0.75 0.75z"/><path d="m41.25 62h-4.5c-0.41 0-0.75-0.34-0.75-0.75v-4.5c0-0.41 0.34-0.75 0.75-0.75h4.5c0.41 0 0.75 0.34 0.75 0.75v4.5c0 0.41-0.34 0.75-0.75 0.75z"/><path d="m27.25 70h-4.5c-0.41 0-0.75-0.34-0.75-0.75v-4.5c0-0.41 0.34-0.75 0.75-0.75h4.5c0.41 0 0.75 0.34 0.75 0.75v4.5c0 0.41-0.34 0.75-0.75 0.75z"/><path d="m39.25 86h-4.5c-0.41 0-0.75-0.34-0.75-0.75v-4.5c0-0.41 0.34-0.75 0.75-0.75h4.5c0.41 0 0.75 0.34 0.75 0.75v4.5c0 0.41-0.34 0.75-0.75 0.75z"/><path d="m15.25 90h-4.5c-0.41 0-0.75-0.34-0.75-0.75v-4.5c0-0.41 0.34-0.75 0.75-0.75h4.5c0.41 0 0.75 0.34 0.75 0.75v4.5c0 0.41-0.34 0.75-0.75 0.75z"/></g><g opacity=".2"><path d="m45 51v56h14v-40h30v48h14v-60h18v66h-114v-42h12v-28h26m1-3h-28c-1.1 0-2 0.9-2 2v26h-10c-1.1 0-2 0.9-2 2v46h120v-70c0-1.1-0.9-2-2-2h-20c-1.1 0-2 0.9-2 2v58h-8v-46c0-1.1-0.9-2-2-2h-32c-1.1 0-2 0.9-2 2v38h-8v-54c0-1.1-0.9-2-2-2z" fill="#424242"/></g><g opacity=".8"><radialGradient id="h" cx="65.989" cy="94.288" r="40.029" gradientTransform="matrix(1.0287e-13 1 -2.2714 2.3365e-13 280.15 28.299)" gradientUnits="userSpaceOnUse"><stop stop-color="#F5F5F5" offset="0"/><stop stop-color="#eee" offset=".2472"/><stop stop-color="#D9D9D9" offset=".6179"/><stop stop-color="#BDBDBD" offset="1"/></radialGradient><path d="m120.3 90.25c-4.06 2-7.41 5.21-9.59 9.17-0.59 0.69-1.07 1.52-1.42 2.51-0.02 0.07-0.05 0.14-0.07 0.21-0.17 0.51-0.7 0.78-1.23 0.65-0.32-0.08-0.64-0.12-0.98-0.12-1.34 0-2.57 0.63-3.57 1.7-0.71 0.76-1.91 0.79-2.73 0.15-2.15-1.66-4.81-2.64-7.69-2.64-2.2 0-4.27 0.58-6.08 1.58-0.87 0.48-1.95 0.18-2.54-0.62-3.56-4.84-9.18-7.98-15.52-7.98-4.8 0-9.18 1.8-12.58 4.77-0.38 0.34-0.94 0.34-1.33 0.01-0.9-0.78-1.95-1.23-3.08-1.23-1.1 0-2.13 0.43-3.01 1.17-0.34 0.29-0.82 0.3-1.2 0.06-2.19-1.41-4.77-2.23-7.54-2.23-3.9 0-7.42 1.62-9.99 4.23-0.39 0.4-1.02 0.37-1.43-0.02-0.95-0.92-2.1-1.47-3.34-1.47-1.36 0-2.61 0.65-3.61 1.74-0.39 0.43-1.06 0.47-1.45 0.05-3.57-3.84-8.59-6.24-14.15-6.22-1.21 0.04-2.17 1.05-2.17 2.26v26.02h120v-31.43c0-1.9-2-3.16-3.7-2.32z" fill="url(#h)"/></g><g opacity=".2"><path d="m121 93.26v27.74h-114v-22.23c4.23 0.2 8.16 2.04 11.13 5.24 0.74 0.8 1.79 1.26 2.88 1.26 1.12 0 2.21-0.48 2.97-1.31 0.32-0.35 0.83-0.77 1.4-0.77 0.4 0 0.83 0.21 1.25 0.62 0.76 0.74 1.77 1.15 2.82 1.15 1.07 0 2.08-0.42 2.83-1.18 2.12-2.15 4.91-3.34 7.85-3.34 2.09 0 4.13 0.61 5.91 1.75 0.66 0.42 1.42 0.65 2.19 0.65 0.94 0 1.84-0.33 2.56-0.93 0.37-0.31 0.74-0.47 1.08-0.47 0.36 0 0.74 0.17 1.12 0.5 0.73 0.63 1.66 0.98 2.62 0.98 0.97 0 1.91-0.35 2.65-1 2.97-2.6 6.74-4.03 10.6-4.03 5.17 0 9.95 2.46 13.1 6.75 0.96 1.3 2.48 2.08 4.07 2.08 0.82 0 1.64-0.21 2.35-0.61 1.44-0.8 2.99-1.2 4.62-1.2 2.13 0 4.15 0.7 5.86 2.01 0.9 0.69 2.02 1.07 3.15 1.07 1.37 0 2.69-0.57 3.61-1.55 0.32-0.34 0.82-0.75 1.38-0.75 0.09 0 0.18 0.01 0.27 0.03 0.32 0.08 0.64 0.11 0.96 0.11 1.73 0 3.26-1.1 3.81-2.73l0.06-0.18c0.21-0.6 0.5-1.12 0.87-1.55l0.2-0.24 0.15-0.27c1.8-3.24 4.44-5.85 7.68-7.6m0.42-3.27c-0.37 0-0.76 0.08-1.12 0.27-4.06 2-7.41 5.21-9.59 9.17-0.59 0.69-1.07 1.52-1.42 2.51-0.02 0.07-0.05 0.14-0.07 0.21-0.14 0.43-0.53 0.69-0.97 0.69-0.09 0-0.17-0.01-0.26-0.03-0.32-0.08-0.64-0.12-0.98-0.12-1.34 0-2.57 0.63-3.57 1.7-0.38 0.4-0.89 0.6-1.42 0.6-0.46 0-0.93-0.15-1.31-0.45-2.15-1.66-4.81-2.64-7.69-2.64-2.2 0-4.27 0.58-6.08 1.58-0.28 0.16-0.59 0.23-0.9 0.23-0.63 0-1.25-0.31-1.65-0.85-3.56-4.84-9.18-7.98-15.52-7.98-4.8 0-9.18 1.8-12.58 4.77-0.19 0.17-0.43 0.26-0.67 0.26-0.23 0-0.47-0.08-0.66-0.25-0.9-0.78-1.95-1.23-3.08-1.23-1.1 0-2.13 0.43-3.01 1.17-0.18 0.15-0.4 0.23-0.63 0.23-0.2 0-0.39-0.06-0.57-0.17-2.19-1.41-4.77-2.23-7.54-2.23-3.9 0-7.42 1.62-9.99 4.23-0.19 0.19-0.44 0.29-0.69 0.29-0.26 0-0.53-0.1-0.74-0.3-0.95-0.92-2.1-1.47-3.34-1.47-1.36 0-2.61 0.65-3.61 1.74-0.21 0.22-0.49 0.34-0.77 0.34-0.25 0-0.5-0.1-0.68-0.3-3.55-3.83-8.54-6.22-14.08-6.22h-0.08c-1.19 0.02-2.15 1.03-2.15 2.24v26.02h120v-31.43c0-1.49-1.23-2.58-2.58-2.58z" fill="#424242"/></g><path d="m50.2 106.91c3.02 0.93 4.54 3.57 4.13 6.64-0.28 2.14 3.07 2.2 3.35 0.08 0.19-1.41 0.04-2.77-0.37-4.01 4.74-0.01 8.82 2.53 10.88 6.87 0.93 1.95 3.87 0.36 2.95-1.59-2.62-5.52-8.29-8.93-14.39-8.62-0.44 0.02-0.79 0.19-1.06 0.43-1.15-1.38-2.72-2.45-4.57-3.02-2.05-0.64-2.98 2.58-0.92 3.22z" fill="#424242" opacity=".2"/><path d="m106.05 111.43c2.1 0.71 3.11 2.58 2.77 4.72-0.24 1.49 2.1 1.59 2.34 0.12 0.16-0.98 0.08-1.93-0.18-2.81 3.31 0.08 6.12 1.93 7.48 5 0.61 1.38 2.7 0.32 2.09-1.05-1.73-3.91-5.63-6.4-9.9-6.29-0.31 0.01-0.56 0.12-0.75 0.28-0.78-0.99-1.86-1.76-3.14-2.19-1.43-0.49-2.14 1.74-0.71 2.22z" fill="#424242" opacity=".2"/><path d="m24.03 109.78c-4.55 0.1-8.07 2.94-9.2 7.37-0.47 1.84-3.33 1.16-2.87-0.68 1.45-5.68 6.11-9.5 11.99-9.63 1.9-0.04 1.98 2.9 0.08 2.94z" fill="#424242" opacity=".2"/></svg>
