<svg enable-background="new 0 0 128 128" viewBox="0 0 128 128" xmlns="http://www.w3.org/2000/svg" xmlns:xlink="http://www.w3.org/1999/xlink"><linearGradient id="n" x1="42.41" x2="83.27" y1="39.536" y2="39.536" gradientUnits="userSpaceOnUse"><stop stop-color="#70534A" offset="0"/><stop stop-color="#65483F" offset=".4473"/><stop stop-color="#5C4037" offset=".9991"/></linearGradient><path d="m77.93 56.51c-9.51 0-29.16-15.9-30.35-16.87-2.3-2.31-7.18-8.29-4.28-14.92 0.62-1.43 1.97-2.15 3.99-2.15 2.45 0 5.62 1.11 8.47 2.97l25.49 19.69c3.24 2.45 2.14 6.99-0.26 10.19-0.66 0.73-1.66 1.09-3.06 1.09z" fill="url(#n)"/><path d="m47.29 24.06c2.16 0 5 1 7.6 2.69l25.46 19.68c2.75 2.08 0.9 6.1-0.52 8.03-0.18 0.19-0.65 0.56-1.91 0.56-7.6 0-23.63-11.81-29.33-16.48-2.1-2.13-6.43-7.47-3.92-13.21 0.17-0.39 0.56-1.27 2.62-1.27m0-3c-2.43 0-4.42 0.91-5.36 3.05-2.71 6.19 0.39 12.38 4.64 16.64 0 0 20.94 17.26 31.35 17.26 1.76 0 3.22-0.49 4.23-1.65 2.98-3.94 3.95-9.34 0.01-12.32l-25.53-19.73c-3.03-1.99-6.48-3.25-9.34-3.25z" fill="#4A2F27"/><linearGradient id="h" x1="45.612" x2="104.92" y1="47.458" y2="47.458" gradientUnits="userSpaceOnUse"><stop stop-color="#70534A" offset="0"/><stop stop-color="#6D5047" offset=".4661"/><stop stop-color="#63463D" offset=".8408"/><stop stop-color="#5C4037" offset=".9991"/></linearGradient><path d="m96.48 89.21c-9.3-0.1-12.3-20.27-12.67-28.05-0.02-0.45-0.24-0.86-0.6-1.13-4.29-3.23-9.09-14.19-12.15-23.38-0.09-0.26-0.15-0.39-0.16-0.4-0.19-0.34-0.5-0.6-0.88-0.72-6.87-2.11-17.35-10.65-21.54-15.59-2.31-2.72-3.79-8.49-2.24-11.83 0.75-1.62 2.09-2.4 4.1-2.4 2.54 0 6.04 1.3 10.13 3.77 1.14 0.83 20.68 15.09 25.8 20.76 5.21 5.77 11.64 18.63 11.7 18.76 8.25 17.42 7.04 33.11 6.63 36.67-3.42 1.64-7.27 3.36-8.12 3.54z" fill="url(#h)"/><path d="m50.35 7.21c1.57 0 4.46 0.61 9.3 3.52 1.57 1.14 20.56 15.02 25.52 20.51 4.97 5.5 11.15 17.78 11.46 18.4 7.54 15.95 7 30.45 6.58 35.03-2.86 1.36-5.89 2.71-6.9 3.02-7.34-0.4-10.57-18.03-10.99-26.61-0.04-0.89-0.48-1.72-1.19-2.26-2.51-1.89-7.07-8.96-11.63-22.65-0.08-0.24-0.14-0.41-0.27-0.65-0.37-0.69-1-1.2-1.75-1.43-3.01-0.93-7.1-3.29-11.53-6.66-3.65-2.78-7.31-6.11-9.31-8.47-2.21-2.6-3.21-7.67-2.03-10.23 0.35-0.75 0.95-1.52 2.74-1.52m0-3c-8.45 0-7.13 11.84-3 16.7 3.98 4.69 14.7 13.73 22.25 16.06 0.04 0.07 6.19 19.34 12.72 24.26 0 0 1.4 29.48 14.24 29.48 1.12 0 9.44-4.04 9.44-4.04s3-17.92-6.67-38.33c0 0-6.51-13.1-11.93-19.1s-26.09-21-26.09-21c-4.75-2.88-8.33-4.03-10.96-4.03z" fill="#4A2F27"/><defs><path id="g" d="m97.28 72.45c-4.15-7.82-8.62-21.08-14.15-22.92l-21.91-6.88c-3.01-1-11.08 1.58-15.19 3.52-0.35 0.12-18.48 12.77-18.48 12.77-4.31 2.71-6.14 8.27-1.64 11.41 5.54 3.87 10.67 4.26 15.81 2.13s8.83-6.77 13.34-8.51 12.11-0.97 16.01 4.26 5.94 21.24-8.01 27.08c-14.78 6.19-22.64-14.2-22.64-14.2-2.46-4.45-7.4-8.02-12.93-6.19-5.54 1.83-5.97 5.93-5.91 11.95 0 0 1.25 12.89 5.97 19.47s13.92 13.11 13.92 13.11c0.76 0.73 6.99 4.34 9.79 4.36l19.61-0.03c11.73-0.02 22.33-6.63 26.91-16.81 3.53-7.86 7.11-16.33 7.99-20.17 0.59-2.58-3.03-2.29-3.03-2.29s-1.31-4.23-5.46-12.06z"/></defs><clipPath id="f"><use xlink:href="#g"/></clipPath><g clip-path="url(#f)"><linearGradient id="e" x1="36.044" x2="88.678" y1="59.183" y2="111.82" gradientUnits="userSpaceOnUse"><stop stop-color="#70534A" offset="0"/><stop stop-color="#6D5047" offset=".4661"/><stop stop-color="#63463D" offset=".8408"/><stop stop-color="#5C4037" offset=".9991"/></linearGradient><path d="m51.27 122.3c-2.25-0.02-7.98-3.25-8.77-3.95-0.04-0.04-0.12-0.1-0.16-0.13-0.09-0.06-9.05-6.47-13.57-12.77-4.44-6.18-5.87-18.29-5.88-18.41-0.56-3.96-0.14-8.98 5.07-10.71 0.83-0.28 1.67-0.42 2.51-0.42 3.92 0 7 2.99 8.6 5.82 0.6 1.51 6.77 16.23 18.52 16.23 1.98 0 4.02-0.43 6.06-1.29 7.19-3.01 9.99-8.36 11.07-12.32 1.79-6.55 0.08-13.67-2.44-17.04-2.66-3.57-7.28-5.7-12.34-5.7-1.95 0-3.83 0.32-5.42 0.94-2.43 0.94-4.62 2.63-6.74 4.26-2.08 1.6-4.23 3.26-6.64 4.26-1.9 0.79-3.7 1.17-5.51 1.17-2.94 0-5.84-1.03-8.87-3.14-1.34-0.93-2-2.12-1.96-3.53 0.05-1.94 1.44-4.05 3.55-5.38 6.92-4.83 17.37-12.09 18.36-12.7 3.32-1.55 8.56-2.82 11.71-2.82 0.97 0 1.53 0.12 1.82 0.21l21.54 7.01c4.58 1.53 11.44 12.15 14.74 17.26l0.91 1.4c0.06 0.09 0.12 0.17 0.19 0.24 0.08 0.08 8.32 8.44 6.68 15.66-0.7 3.08-3.43 9.95-7.89 19.88-4.34 9.66-14.37 15.91-25.54 15.93l-19.6 0.04z" fill="url(#e)"/><path d="m58.41 46.19c0.87 0 1.25 0.11 1.37 0.14l21.51 6.99c4.09 1.36 11.01 12.08 13.97 16.65 0.33 0.51 0.63 0.98 0.91 1.41 0.11 0.17 0.24 0.33 0.39 0.48 2.16 2.17 7.48 8.96 6.28 14.26-0.47 2.08-2.21 7.17-7.8 19.6-4.1 9.12-13.59 15.02-24.18 15.04l-19.58 0.03c-1.57-0.01-6.67-2.69-7.8-3.58-0.09-0.08-0.18-0.16-0.28-0.22-0.09-0.06-8.84-6.32-13.22-12.42-4.2-5.86-5.59-17.59-5.61-17.71 0-0.03-0.01-0.06-0.01-0.09-0.7-4.87 0.67-7.91 4.06-9.03 0.68-0.23 1.36-0.34 2.03-0.34 3.24 0 5.85 2.54 7.24 4.98 0.85 2.09 7.38 17.07 19.88 17.07 2.18 0 4.42-0.47 6.64-1.4 7.75-3.24 10.76-9.03 11.93-13.31 1.93-7.09 0.11-14.59-2.68-18.33-2.94-3.94-8.01-6.3-13.54-6.3-2.13 0-4.19 0.36-5.95 1.04-2.64 1.02-4.91 2.77-7.12 4.47-2.09 1.62-4.07 3.14-6.3 4.07-1.71 0.71-3.33 1.06-4.93 1.06-2.62 0-5.24-0.94-8.01-2.87-0.91-0.64-1.35-1.38-1.32-2.27 0.03-1.43 1.18-3.1 2.85-4.15 0.04-0.03 0.08-0.05 0.12-0.08 6.4-4.47 16.8-11.7 18.16-12.57 3.12-1.42 8.11-2.62 10.99-2.62m0-3c-3.61 0-9.1 1.43-12.39 2.98-0.35 0.12-18.48 12.77-18.48 12.77-4.31 2.71-6.14 8.27-1.64 11.41 3.36 2.35 6.57 3.41 9.73 3.41 2.04 0 4.06-0.45 6.08-1.28 5.13-2.13 8.83-6.77 13.34-8.51 1.4-0.54 3.09-0.84 4.87-0.84 3.99 0 8.44 1.48 11.14 5.09 3.9 5.22 5.94 21.24-8.01 27.08-1.95 0.82-3.78 1.17-5.48 1.17-11.24 0-17.16-15.37-17.16-15.37-2.01-3.63-5.67-6.68-9.95-6.68-0.96 0-1.96 0.15-2.98 0.49-5.54 1.83-6.85 6.98-6.09 12.3 0 0 1.43 12.54 6.15 19.12s13.92 13.11 13.92 13.11c0.76 0.73 6.99 4.34 9.79 4.36l19.61-0.03c11.73-0.02 22.33-6.63 26.91-16.81 3.53-7.86 7.11-16.33 7.99-20.17 1.85-8.12-7.08-17.05-7.08-17.05-3.46-5.3-10.91-17.42-16.44-19.26l-21.53-7c-0.6-0.2-1.39-0.29-2.3-0.29z" fill="#4A2F27"/></g><g display="none"><g display="inline"><g opacity=".6"><circle cx="-70" cy="64" r="28" fill="none" opacity=".61" stroke="#000" stroke-miterlimit="10" stroke-width=".2625"/><line x1="-50" x2="-50" y2="128" fill="none" opacity=".61" stroke="#000" stroke-miterlimit="10" stroke-width=".25"/><line x1="-90" x2="-90" y2="128" fill="none" opacity=".61" stroke="#000" stroke-miterlimit="10" stroke-width=".25"/><line x1="-70" x2="-70" y2="128" fill="none" opacity=".61" stroke="#000" stroke-miterlimit="10" stroke-width=".25"/><line x1="-6" x2="-134" y1="64" y2="64" fill="none" opacity=".61" stroke="#000" stroke-miterlimit="10" stroke-width=".25"/><line x1="-6" x2="-134" y1="44" y2="44" fill="none" opacity=".61" stroke="#000" stroke-miterlimit="10" stroke-width=".25"/><line x1="-6" x2="-134" y1="83.75" y2="83.75" fill="none" opacity=".61" stroke="#000" stroke-miterlimit="10" stroke-width=".25"/><line x1="-6" x2="-134" y1="128" fill="none" opacity=".61" stroke="#000" stroke-miterlimit="10" stroke-width=".25"/><line x1="-134" x2="-6" y1="128" fill="none" opacity=".61" stroke="#000" stroke-miterlimit="10" stroke-width=".25"/><g opacity=".61"><path d="m-70 4.26c32.94 0 59.74 26.8 59.74 59.74s-26.8 59.74-59.74 59.74-59.74-26.8-59.74-59.74 26.8-59.74 59.74-59.74m0-0.26c-33.14 0-60 26.86-60 60s26.86 60 60 60 60-26.86 60-60-26.86-60-60-60z"/></g><path d="m-26.03 115.97h-87.94c-4.42 0-8.03-3.61-8.03-8.03v-87.91c0-4.42 3.61-8.03 8.03-8.03h87.94c4.42 0 8.03 3.61 8.03 8.03v87.91c0 4.42-3.61 8.03-8.03 8.03z" fill="none" opacity=".61" stroke="#000" stroke-miterlimit="10" stroke-width=".2578"/><path d="m-34 124h-72c-4.4 0-8-3.6-8-8v-104c0-4.4 3.6-8 8-8h72c4.4 0 8 3.6 8 8v104c0 4.4-3.6 8-8 8z" fill="none" opacity=".61" stroke="#000" stroke-miterlimit="10" stroke-width=".2628"/><path d="m-20.23 108h-99.54c-5.63 0-10.23-4.6-10.23-10.23v-67.49c0-5.63 4.6-10.23 10.23-10.23h99.54c5.63 0 10.23 4.6 10.23 10.23v67.48c0 5.64-4.6 10.24-10.23 10.24z" fill="none" opacity=".61" stroke="#000" stroke-miterlimit="10" stroke-width=".2627"/></g><g opacity=".2"><defs><rect id="o" x="-134" width="128" height="128" opacity=".2"/></defs><clipPath id="d"><use xlink:href="#o"/></clipPath><g clip-path="url(#d)"><g fill="none" stroke="#000" stroke-miterlimit="10" stroke-width=".25"><line x1="-162" x2="-162" y1="160" y2="-32"/><line x1="-158" x2="-158" y1="160" y2="-32"/><line x1="-154" x2="-154" y1="160" y2="-32"/><line x1="-150" x2="-150" y1="160" y2="-32"/><line x1="-146" x2="-146" y1="160" y2="-32"/><line x1="-142" x2="-142" y1="160" y2="-32"/><line x1="-138" x2="-138" y1="160" y2="-32"/><line x1="-134" x2="-134" y1="160" y2="-32"/><line x1="-130" x2="-130" y1="160" y2="-32"/><line x1="-126" x2="-126" y1="160" y2="-32"/><line x1="-122" x2="-122" y1="160" y2="-32"/><line x1="-118" x2="-118" y1="160" y2="-32"/><line x1="-114" x2="-114" y1="160" y2="-32"/><line x1="-110" x2="-110" y1="160" y2="-32"/><line x1="-106" x2="-106" y1="160" y2="-32"/><line x1="-102" x2="-102" y1="160" y2="-32"/><line x1="-98" x2="-98" y1="160" y2="-32"/><line x1="-94" x2="-94" y1="160" y2="-32"/><line x1="-90" x2="-90" y1="160" y2="-32"/><line x1="-86" x2="-86" y1="160" y2="-32"/><line x1="-82" x2="-82" y1="160" y2="-32"/><line x1="-78" x2="-78" y1="160" y2="-32"/><line x1="-74" x2="-74" y1="160" y2="-32"/><line x1="-70" x2="-70" y1="160" y2="-32"/><line x1="-66" x2="-66" y1="160" y2="-32"/><line x1="-62" x2="-62" y1="160" y2="-32"/><line x1="-58" x2="-58" y1="160" y2="-32"/><line x1="-54" x2="-54" y1="160" y2="-32"/><line x1="-50" x2="-50" y1="160" y2="-32"/><line x1="-46" x2="-46" y1="160" y2="-32"/><line x1="-42" x2="-42" y1="160" y2="-32"/><line x1="-38" x2="-38" y1="160" y2="-32"/><line x1="-34" x2="-34" y1="160" y2="-32"/><line x1="-30" x2="-30" y1="160" y2="-32"/><line x1="-26" x2="-26" y1="160" y2="-32"/><line x1="-22" x2="-22" y1="160" y2="-32"/><line x1="-18" x2="-18" y1="160" y2="-32"/><line x1="-14" x2="-14" y1="160" y2="-32"/><line x1="-10" x2="-10" y1="160" y2="-32"/><line x1="-6" x2="-6" y1="160" y2="-32"/><line x1="-2" x2="-2" y1="160" y2="-32"/><line x1="2" x2="2" y1="160" y2="-32"/><line x1="3" x2="3" y1="166.05" y2="-25.95"/><line x1="10" x2="10" y1="160" y2="-32"/><line x1="14" x2="14" y1="160" y2="-32"/><line x1="18" x2="18" y1="160" y2="-32"/><line x1="22" x2="22" y1="160" y2="-32"/></g><g fill="none" stroke="#000" stroke-miterlimit="10" stroke-width=".25"><line x1="-166" x2="26" y1="-28" y2="-28"/><line x1="-166" x2="26" y1="-24" y2="-24"/><line x1="-166" x2="26" y1="-20" y2="-20"/><line x1="-166" x2="26" y1="-16" y2="-16"/><line x1="-166" x2="26" y1="-12" y2="-12"/><line x1="-166" x2="26" y1="-8" y2="-8"/><line x1="-166" x2="26" y1="-4" y2="-4"/><line x1="-166" x2="26"/><line x1="-166" x2="26" y1="4" y2="4"/><line x1="-166" x2="26" y1="8" y2="8"/><line x1="-166" x2="26" y1="12" y2="12"/><line x1="-166" x2="26" y1="16" y2="16"/><line x1="-166" x2="26" y1="20" y2="20"/><line x1="-166" x2="26" y1="24" y2="24"/><line x1="-166" x2="26" y1="28" y2="28"/><line x1="-166" x2="26" y1="32" y2="32"/><line x1="-166" x2="26" y1="36" y2="36"/><line x1="-166" x2="26" y1="40" y2="40"/><line x1="-166" x2="26" y1="44" y2="44"/><line x1="-166" x2="26" y1="48" y2="48"/><line x1="-166" x2="26" y1="52" y2="52"/><line x1="-166" x2="26" y1="56" y2="56"/><line x1="-166" x2="26" y1="60" y2="60"/><line x1="-166" x2="26" y1="64" y2="64"/><line x1="-166" x2="26" y1="68" y2="68"/><line x1="-166" x2="26" y1="72" y2="72"/><line x1="-166" x2="26" y1="76" y2="76"/><line x1="-166" x2="26" y1="80" y2="80"/><line x1="-166" x2="26" y1="84" y2="84"/><line x1="-166" x2="26" y1="88" y2="88"/><line x1="-166" x2="26" y1="92" y2="92"/><line x1="-166" x2="26" y1="96" y2="96"/><line x1="-166" x2="26" y1="100" y2="100"/><line x1="-166" x2="26" y1="104" y2="104"/><line x1="-166" x2="26" y1="108" y2="108"/><line x1="-166" x2="26" y1="112" y2="112"/><line x1="-166" x2="26" y1="116" y2="116"/><line x1="-166" x2="26" y1="120" y2="120"/><line x1="-166" x2="26" y1="124" y2="124"/><line x1="-166" x2="26" y1="128" y2="128"/><line x1="-166" x2="26" y1="132" y2="132"/><line x1="-166" x2="26" y1="136" y2="136"/><line x1="-166" x2="26" y1="140" y2="140"/><line x1="-166" x2="26" y1="144" y2="144"/><line x1="-166" x2="26" y1="148" y2="148"/><line x1="-166" x2="26" y1="152" y2="152"/><line x1="-166" x2="26" y1="156" y2="156"/></g><path d="m25.75-31.75v191.5h-191.5v-191.5h191.5m0.25-0.25h-192v192h192v-192z"/></g></g><g fill="#F44336"><rect x="-134" width="4" height="128" opacity=".3"/><rect x="-10" width="4" height="128" opacity=".3"/><rect transform="matrix(-1.837e-16 1 -1 -1.837e-16 -68 72)" x="-72" y="-58" width="4" height="120" opacity=".3"/><rect transform="matrix(-1.837e-16 1 -1 -1.837e-16 56 196)" x="-72" y="66" width="4" height="120" opacity=".3"/></g></g><g display="inline"><g opacity=".6"><circle cx="-70" cy="198" r="28" fill="none" opacity=".61" stroke="#000" stroke-miterlimit="10" stroke-width=".2625"/><line x1="-50" x2="-50" y1="134" y2="262" fill="none" opacity=".61" stroke="#000" stroke-miterlimit="10" stroke-width=".25"/><line x1="-90" x2="-90" y1="134" y2="262" fill="none" opacity=".61" stroke="#000" stroke-miterlimit="10" stroke-width=".25"/><line x1="-70" x2="-70" y1="134" y2="262" fill="none" opacity=".61" stroke="#000" stroke-miterlimit="10" stroke-width=".25"/><line x1="-6" x2="-134" y1="198" y2="198" fill="none" opacity=".61" stroke="#000" stroke-miterlimit="10" stroke-width=".25"/><line x1="-6" x2="-134" y1="178" y2="178" fill="none" opacity=".61" stroke="#000" stroke-miterlimit="10" stroke-width=".25"/><line x1="-6" x2="-134" y1="217.75" y2="217.75" fill="none" opacity=".61" stroke="#000" stroke-miterlimit="10" stroke-width=".25"/><line x1="-6" x2="-134" y1="262" y2="134" fill="none" opacity=".61" stroke="#000" stroke-miterlimit="10" stroke-width=".25"/><line x1="-134" x2="-6" y1="262" y2="134" fill="none" opacity=".61" stroke="#000" stroke-miterlimit="10" stroke-width=".25"/><g opacity=".61"><path d="m-70 138.26c32.94 0 59.74 26.8 59.74 59.74s-26.8 59.74-59.74 59.74-59.74-26.8-59.74-59.74 26.8-59.74 59.74-59.74m0-0.26c-33.14 0-60 26.86-60 60s26.86 60 60 60 60-26.86 60-60-26.86-60-60-60z"/></g><path d="m-26.03 249.97h-87.94c-4.42 0-8.03-3.61-8.03-8.03v-87.91c0-4.42 3.61-8.03 8.03-8.03h87.94c4.42 0 8.03 3.61 8.03 8.03v87.91c0 4.42-3.61 8.03-8.03 8.03z" fill="none" opacity=".61" stroke="#000" stroke-miterlimit="10" stroke-width=".2578"/><path d="m-34 258h-72c-4.4 0-8-3.6-8-8v-104c0-4.4 3.6-8 8-8h72c4.4 0 8 3.6 8 8v104c0 4.4-3.6 8-8 8z" fill="none" opacity=".61" stroke="#000" stroke-miterlimit="10" stroke-width=".2628"/><path d="m-20.23 242h-99.54c-5.63 0-10.23-4.6-10.23-10.23v-67.48c0-5.63 4.6-10.23 10.23-10.23h99.54c5.63 0 10.23 4.6 10.23 10.23v67.48c0 5.63-4.6 10.23-10.23 10.23z" fill="none" opacity=".61" stroke="#000" stroke-miterlimit="10" stroke-width=".2627"/></g><g opacity=".2"><defs><rect id="k" x="-134" y="134" width="128" height="128" opacity=".2"/></defs><clipPath id="c"><use xlink:href="#k"/></clipPath><g clip-path="url(#c)"><g fill="none" stroke="#000" stroke-miterlimit="10" stroke-width=".25"><line x1="-162" x2="-162" y1="294" y2="102"/><line x1="-158" x2="-158" y1="294" y2="102"/><line x1="-154" x2="-154" y1="294" y2="102"/><line x1="-150" x2="-150" y1="294" y2="102"/><line x1="-146" x2="-146" y1="294" y2="102"/><line x1="-142" x2="-142" y1="294" y2="102"/><line x1="-138" x2="-138" y1="294" y2="102"/><line x1="-134" x2="-134" y1="294" y2="102"/><line x1="-130" x2="-130" y1="294" y2="102"/><line x1="-126" x2="-126" y1="294" y2="102"/><line x1="-122" x2="-122" y1="294" y2="102"/><line x1="-118" x2="-118" y1="294" y2="102"/><line x1="-114" x2="-114" y1="294" y2="102"/><line x1="-110" x2="-110" y1="294" y2="102"/><line x1="-106" x2="-106" y1="294" y2="102"/><line x1="-102" x2="-102" y1="294" y2="102"/><line x1="-98" x2="-98" y1="294" y2="102"/><line x1="-94" x2="-94" y1="294" y2="102"/><line x1="-90" x2="-90" y1="294" y2="102"/><line x1="-86" x2="-86" y1="294" y2="102"/><line x1="-82" x2="-82" y1="294" y2="102"/><line x1="-78" x2="-78" y1="294" y2="102"/><line x1="-74" x2="-74" y1="294" y2="102"/><line x1="-70" x2="-70" y1="294" y2="102"/><line x1="-66" x2="-66" y1="294" y2="102"/><line x1="-62" x2="-62" y1="294" y2="102"/><line x1="-58" x2="-58" y1="294" y2="102"/><line x1="-54" x2="-54" y1="294" y2="102"/><line x1="-50" x2="-50" y1="294" y2="102"/><line x1="-46" x2="-46" y1="294" y2="102"/><line x1="-42" x2="-42" y1="294" y2="102"/><line x1="-38" x2="-38" y1="294" y2="102"/><line x1="-34" x2="-34" y1="294" y2="102"/><line x1="-30" x2="-30" y1="294" y2="102"/><line x1="-26" x2="-26" y1="294" y2="102"/><line x1="-22" x2="-22" y1="294" y2="102"/><line x1="-18" x2="-18" y1="294" y2="102"/><line x1="-14" x2="-14" y1="294" y2="102"/><line x1="-10" x2="-10" y1="294" y2="102"/><line x1="-6" x2="-6" y1="294" y2="102"/><line x1="-2" x2="-2" y1="294" y2="102"/><line x1="2" x2="2" y1="294" y2="102"/><line x1="3" x2="3" y1="300.05" y2="108.05"/><line x1="10" x2="10" y1="294" y2="102"/><line x1="14" x2="14" y1="294" y2="102"/><line x1="18" x2="18" y1="294" y2="102"/><line x1="22" x2="22" y1="294" y2="102"/></g><g fill="none" stroke="#000" stroke-miterlimit="10" stroke-width=".25"><line x1="-166" x2="26" y1="106" y2="106"/><line x1="-166" x2="26" y1="110" y2="110"/><line x1="-166" x2="26" y1="114" y2="114"/><line x1="-166" x2="26" y1="118" y2="118"/><line x1="-166" x2="26" y1="122" y2="122"/><line x1="-166" x2="26" y1="126" y2="126"/><line x1="-166" x2="26" y1="130" y2="130"/><line x1="-166" x2="26" y1="134" y2="134"/><line x1="-166" x2="26" y1="138" y2="138"/><line x1="-166" x2="26" y1="142" y2="142"/><line x1="-166" x2="26" y1="146" y2="146"/><line x1="-166" x2="26" y1="150" y2="150"/><line x1="-166" x2="26" y1="154" y2="154"/><line x1="-166" x2="26" y1="158" y2="158"/><line x1="-166" x2="26" y1="162" y2="162"/><line x1="-166" x2="26" y1="166" y2="166"/><line x1="-166" x2="26" y1="170" y2="170"/><line x1="-166" x2="26" y1="174" y2="174"/><line x1="-166" x2="26" y1="178" y2="178"/><line x1="-166" x2="26" y1="182" y2="182"/><line x1="-166" x2="26" y1="186" y2="186"/><line x1="-166" x2="26" y1="190" y2="190"/><line x1="-166" x2="26" y1="194" y2="194"/><line x1="-166" x2="26" y1="198" y2="198"/><line x1="-166" x2="26" y1="202" y2="202"/><line x1="-166" x2="26" y1="206" y2="206"/><line x1="-166" x2="26" y1="210" y2="210"/><line x1="-166" x2="26" y1="214" y2="214"/><line x1="-166" x2="26" y1="218" y2="218"/><line x1="-166" x2="26" y1="222" y2="222"/><line x1="-166" x2="26" y1="226" y2="226"/><line x1="-166" x2="26" y1="230" y2="230"/><line x1="-166" x2="26" y1="234" y2="234"/><line x1="-166" x2="26" y1="238" y2="238"/><line x1="-166" x2="26" y1="242" y2="242"/><line x1="-166" x2="26" y1="246" y2="246"/><line x1="-166" x2="26" y1="250" y2="250"/><line x1="-166" x2="26" y1="254" y2="254"/><line x1="-166" x2="26" y1="258" y2="258"/><line x1="-166" x2="26" y1="262" y2="262"/><line x1="-166" x2="26" y1="266" y2="266"/><line x1="-166" x2="26" y1="270" y2="270"/><line x1="-166" x2="26" y1="274" y2="274"/><line x1="-166" x2="26" y1="278" y2="278"/><line x1="-166" x2="26" y1="282" y2="282"/><line x1="-166" x2="26" y1="286" y2="286"/><line x1="-166" x2="26" y1="290" y2="290"/></g><path d="m25.75 102.25v191.5h-191.5v-191.5h191.5m0.25-0.25h-192v192h192v-192z"/></g></g><g fill="#F44336"><rect x="-134" y="134" width="4" height="128" opacity=".3"/><rect x="-10" y="134" width="4" height="128" opacity=".3"/><rect transform="matrix(-1.837e-16 1 -1 -1.837e-16 66 206)" x="-72" y="76" width="4" height="120" opacity=".3"/><rect transform="matrix(-1.837e-16 1 -1 -1.837e-16 190 330)" x="-72" y="200" width="4" height="120" opacity=".3"/></g></g><g display="inline"><g opacity=".6"><circle cx="64" cy="64" r="28" fill="none" opacity=".61" stroke="#000" stroke-miterlimit="10" stroke-width=".2625"/><line x1="84" x2="84" y2="128" fill="none" opacity=".61" stroke="#000" stroke-miterlimit="10" stroke-width=".25"/><line x1="44" x2="44" y2="128" fill="none" opacity=".61" stroke="#000" stroke-miterlimit="10" stroke-width=".25"/><line x1="64" x2="64" y2="128" fill="none" opacity=".61" stroke="#000" stroke-miterlimit="10" stroke-width=".25"/><line x1="128" y1="64" y2="64" fill="none" opacity=".61" stroke="#000" stroke-miterlimit="10" stroke-width=".25"/><line x1="128" y1="44" y2="44" fill="none" opacity=".61" stroke="#000" stroke-miterlimit="10" stroke-width=".25"/><line x1="128" y1="83.75" y2="83.75" fill="none" opacity=".61" stroke="#000" stroke-miterlimit="10" stroke-width=".25"/><line x1="128" y1="128" fill="none" opacity=".61" stroke="#000" stroke-miterlimit="10" stroke-width=".25"/><line x2="128" y1="128" fill="none" opacity=".61" stroke="#000" stroke-miterlimit="10" stroke-width=".25"/><g opacity=".61"><path d="M64,4.26c32.94,0,59.74,26.8,59.74,59.74S96.94,123.74,64,123.74S4.26,96.94,4.26,64S31.06,4.26,64,4.26 M64,4 C30.86,4,4,30.86,4,64s26.86,60,60,60s60-26.86,60-60S97.14,4,64,4L64,4z"/></g><path d="m107.97 115.97h-87.94c-4.42 0-8.03-3.61-8.03-8.03v-87.91c0-4.42 3.61-8.03 8.03-8.03h87.94c4.42 0 8.03 3.61 8.03 8.03v87.91c0 4.42-3.61 8.03-8.03 8.03z" fill="none" opacity=".61" stroke="#000" stroke-miterlimit="10" stroke-width=".2578"/><path d="m100 124h-72c-4.4 0-8-3.6-8-8v-104c0-4.4 3.6-8 8-8h72c4.4 0 8 3.6 8 8v104c0 4.4-3.6 8-8 8z" fill="none" opacity=".61" stroke="#000" stroke-miterlimit="10" stroke-width=".2628"/><path d="M113.77,108H14.23 C8.6,108,4,103.4,4,97.77V30.28c0-5.63,4.6-10.23,10.23-10.23h99.54c5.63,0,10.23,4.6,10.23,10.23v67.48 C124,103.4,119.4,108,113.77,108z" fill="none" opacity=".61" stroke="#000" stroke-miterlimit="10" stroke-width=".2627"/></g><g opacity=".2"><defs><rect id="j" width="128" height="128" opacity=".2"/></defs><clipPath id="b"><use xlink:href="#j"/></clipPath><g clip-path="url(#b)"><g fill="none" stroke="#000" stroke-miterlimit="10" stroke-width=".25"><line x1="-28" x2="-28" y1="160" y2="-32"/><line x1="-24" x2="-24" y1="160" y2="-32"/><line x1="-20" x2="-20" y1="160" y2="-32"/><line x1="-16" x2="-16" y1="160" y2="-32"/><line x1="-12" x2="-12" y1="160" y2="-32"/><line x1="-8" x2="-8" y1="160" y2="-32"/><line x1="-4" x2="-4" y1="160" y2="-32"/><line y1="160" y2="-32"/><line x1="4" x2="4" y1="160" y2="-32"/><line x1="8" x2="8" y1="160" y2="-32"/><line x1="12" x2="12" y1="160" y2="-32"/><line x1="16" x2="16" y1="160" y2="-32"/><line x1="20" x2="20" y1="160" y2="-32"/><line x1="24" x2="24" y1="160" y2="-32"/><line x1="28" x2="28" y1="160" y2="-32"/><line x1="32" x2="32" y1="160" y2="-32"/><line x1="36" x2="36" y1="160" y2="-32"/><line x1="40" x2="40" y1="160" y2="-32"/><line x1="44" x2="44" y1="160" y2="-32"/><line x1="48" x2="48" y1="160" y2="-32"/><line x1="52" x2="52" y1="160" y2="-32"/><line x1="56" x2="56" y1="160" y2="-32"/><line x1="60" x2="60" y1="160" y2="-32"/><line x1="64" x2="64" y1="160" y2="-32"/><line x1="68" x2="68" y1="160" y2="-32"/><line x1="72" x2="72" y1="160" y2="-32"/><line x1="76" x2="76" y1="160" y2="-32"/><line x1="80" x2="80" y1="160" y2="-32"/><line x1="84" x2="84" y1="160" y2="-32"/><line x1="88" x2="88" y1="160" y2="-32"/><line x1="92" x2="92" y1="160" y2="-32"/><line x1="96" x2="96" y1="160" y2="-32"/><line x1="100" x2="100" y1="160" y2="-32"/><line x1="104" x2="104" y1="160" y2="-32"/><line x1="108" x2="108" y1="160" y2="-32"/><line x1="112" x2="112" y1="160" y2="-32"/><line x1="116" x2="116" y1="160" y2="-32"/><line x1="120" x2="120" y1="160" y2="-32"/><line x1="124" x2="124" y1="160" y2="-32"/><line x1="128" x2="128" y1="160" y2="-32"/><line x1="132" x2="132" y1="160" y2="-32"/><line x1="136" x2="136" y1="160" y2="-32"/><line x1="137" x2="137" y1="166.05" y2="-25.95"/><line x1="144" x2="144" y1="160" y2="-32"/><line x1="148" x2="148" y1="160" y2="-32"/><line x1="152" x2="152" y1="160" y2="-32"/><line x1="156" x2="156" y1="160" y2="-32"/></g><g fill="none" stroke="#000" stroke-miterlimit="10" stroke-width=".25"><line x1="-32" x2="160" y1="-28" y2="-28"/><line x1="-32" x2="160" y1="-24" y2="-24"/><line x1="-32" x2="160" y1="-20" y2="-20"/><line x1="-32" x2="160" y1="-16" y2="-16"/><line x1="-32" x2="160" y1="-12" y2="-12"/><line x1="-32" x2="160" y1="-8" y2="-8"/><line x1="-32" x2="160" y1="-4" y2="-4"/><line x1="-32" x2="160"/><line x1="-32" x2="160" y1="4" y2="4"/><line x1="-32" x2="160" y1="8" y2="8"/><line x1="-32" x2="160" y1="12" y2="12"/><line x1="-32" x2="160" y1="16" y2="16"/><line x1="-32" x2="160" y1="20" y2="20"/><line x1="-32" x2="160" y1="24" y2="24"/><line x1="-32" x2="160" y1="28" y2="28"/><line x1="-32" x2="160" y1="32" y2="32"/><line x1="-32" x2="160" y1="36" y2="36"/><line x1="-32" x2="160" y1="40" y2="40"/><line x1="-32" x2="160" y1="44" y2="44"/><line x1="-32" x2="160" y1="48" y2="48"/><line x1="-32" x2="160" y1="52" y2="52"/><line x1="-32" x2="160" y1="56" y2="56"/><line x1="-32" x2="160" y1="60" y2="60"/><line x1="-32" x2="160" y1="64" y2="64"/><line x1="-32" x2="160" y1="68" y2="68"/><line x1="-32" x2="160" y1="72" y2="72"/><line x1="-32" x2="160" y1="76" y2="76"/><line x1="-32" x2="160" y1="80" y2="80"/><line x1="-32" x2="160" y1="84" y2="84"/><line x1="-32" x2="160" y1="88" y2="88"/><line x1="-32" x2="160" y1="92" y2="92"/><line x1="-32" x2="160" y1="96" y2="96"/><line x1="-32" x2="160" y1="100" y2="100"/><line x1="-32" x2="160" y1="104" y2="104"/><line x1="-32" x2="160" y1="108" y2="108"/><line x1="-32" x2="160" y1="112" y2="112"/><line x1="-32" x2="160" y1="116" y2="116"/><line x1="-32" x2="160" y1="120" y2="120"/><line x1="-32" x2="160" y1="124" y2="124"/><line x1="-32" x2="160" y1="128" y2="128"/><line x1="-32" x2="160" y1="132" y2="132"/><line x1="-32" x2="160" y1="136" y2="136"/><line x1="-32" x2="160" y1="140" y2="140"/><line x1="-32" x2="160" y1="144" y2="144"/><line x1="-32" x2="160" y1="148" y2="148"/><line x1="-32" x2="160" y1="152" y2="152"/><line x1="-32" x2="160" y1="156" y2="156"/></g><path d="m159.75-31.75v191.5h-191.5v-191.5h191.5m0.25-0.25h-192v192h192v-192z"/></g></g><g fill="#F44336"><rect width="4" height="128" opacity=".3"/><rect x="124" width="4" height="128" opacity=".3"/><rect transform="matrix(-1.837e-16 1 -1 -1.837e-16 66 -62)" x="62" y="-58" width="4" height="120" opacity=".3"/><rect transform="matrix(-1.837e-16 1 -1 -1.837e-16 190 62)" x="62" y="66" width="4" height="120" opacity=".3"/></g></g><g display="inline"><g opacity=".6"><circle cx="64" cy="198" r="28" fill="none" opacity=".61" stroke="#000" stroke-miterlimit="10" stroke-width=".2625"/><line x1="84" x2="84" y1="134" y2="262" fill="none" opacity=".61" stroke="#000" stroke-miterlimit="10" stroke-width=".25"/><line x1="44" x2="44" y1="134" y2="262" fill="none" opacity=".61" stroke="#000" stroke-miterlimit="10" stroke-width=".25"/><line x1="64" x2="64" y1="134" y2="262" fill="none" opacity=".61" stroke="#000" stroke-miterlimit="10" stroke-width=".25"/><line x1="128" y1="198" y2="198" fill="none" opacity=".61" stroke="#000" stroke-miterlimit="10" stroke-width=".25"/><line x1="128" y1="178" y2="178" fill="none" opacity=".61" stroke="#000" stroke-miterlimit="10" stroke-width=".25"/><line x1="128" y1="217.75" y2="217.75" fill="none" opacity=".61" stroke="#000" stroke-miterlimit="10" stroke-width=".25"/><line x1="128" y1="262" y2="134" fill="none" opacity=".61" stroke="#000" stroke-miterlimit="10" stroke-width=".25"/><line x2="128" y1="262" y2="134" fill="none" opacity=".61" stroke="#000" stroke-miterlimit="10" stroke-width=".25"/><g opacity=".61"><path d="m64 138.26c32.94 0 59.74 26.8 59.74 59.74s-26.8 59.74-59.74 59.74-59.74-26.8-59.74-59.74 26.8-59.74 59.74-59.74m0-0.26c-33.14 0-60 26.86-60 60s26.86 60 60 60 60-26.86 60-60-26.86-60-60-60z"/></g><path d="m107.97 249.97h-87.94c-4.42 0-8.03-3.61-8.03-8.03v-87.91c0-4.42 3.61-8.03 8.03-8.03h87.94c4.42 0 8.03 3.61 8.03 8.03v87.91c0 4.42-3.61 8.03-8.03 8.03z" fill="none" opacity=".61" stroke="#000" stroke-miterlimit="10" stroke-width=".2578"/><path d="m100 258h-72c-4.4 0-8-3.6-8-8v-104c0-4.4 3.6-8 8-8h72c4.4 0 8 3.6 8 8v104c0 4.4-3.6 8-8 8z" fill="none" opacity=".61" stroke="#000" stroke-miterlimit="10" stroke-width=".2628"/><path d="M113.77,242H14.23 C8.6,242,4,237.4,4,231.77v-67.48c0-5.63,4.6-10.23,10.23-10.23h99.54c5.63,0,10.23,4.6,10.23,10.23v67.48 C124,237.4,119.4,242,113.77,242z" fill="none" opacity=".61" stroke="#000" stroke-miterlimit="10" stroke-width=".2627"/></g><g opacity=".2"><defs><rect id="m" y="134" width="128" height="128" opacity=".2"/></defs><clipPath id="a"><use xlink:href="#m"/></clipPath><g clip-path="url(#a)"><g fill="none" stroke="#000" stroke-miterlimit="10" stroke-width=".25"><line x1="-28" x2="-28" y1="294" y2="102"/><line x1="-24" x2="-24" y1="294" y2="102"/><line x1="-20" x2="-20" y1="294" y2="102"/><line x1="-16" x2="-16" y1="294" y2="102"/><line x1="-12" x2="-12" y1="294" y2="102"/><line x1="-8" x2="-8" y1="294" y2="102"/><line x1="-4" x2="-4" y1="294" y2="102"/><line y1="294" y2="102"/><line x1="4" x2="4" y1="294" y2="102"/><line x1="8" x2="8" y1="294" y2="102"/><line x1="12" x2="12" y1="294" y2="102"/><line x1="16" x2="16" y1="294" y2="102"/><line x1="20" x2="20" y1="294" y2="102"/><line x1="24" x2="24" y1="294" y2="102"/><line x1="28" x2="28" y1="294" y2="102"/><line x1="32" x2="32" y1="294" y2="102"/><line x1="36" x2="36" y1="294" y2="102"/><line x1="40" x2="40" y1="294" y2="102"/><line x1="44" x2="44" y1="294" y2="102"/><line x1="48" x2="48" y1="294" y2="102"/><line x1="52" x2="52" y1="294" y2="102"/><line x1="56" x2="56" y1="294" y2="102"/><line x1="60" x2="60" y1="294" y2="102"/><line x1="64" x2="64" y1="294" y2="102"/><line x1="68" x2="68" y1="294" y2="102"/><line x1="72" x2="72" y1="294" y2="102"/><line x1="76" x2="76" y1="294" y2="102"/><line x1="80" x2="80" y1="294" y2="102"/><line x1="84" x2="84" y1="294" y2="102"/><line x1="88" x2="88" y1="294" y2="102"/><line x1="92" x2="92" y1="294" y2="102"/><line x1="96" x2="96" y1="294" y2="102"/><line x1="100" x2="100" y1="294" y2="102"/><line x1="104" x2="104" y1="294" y2="102"/><line x1="108" x2="108" y1="294" y2="102"/><line x1="112" x2="112" y1="294" y2="102"/><line x1="116" x2="116" y1="294" y2="102"/><line x1="120" x2="120" y1="294" y2="102"/><line x1="124" x2="124" y1="294" y2="102"/><line x1="128" x2="128" y1="294" y2="102"/><line x1="132" x2="132" y1="294" y2="102"/><line x1="136" x2="136" y1="294" y2="102"/><line x1="137" x2="137" y1="300.05" y2="108.05"/><line x1="144" x2="144" y1="294" y2="102"/><line x1="148" x2="148" y1="294" y2="102"/><line x1="152" x2="152" y1="294" y2="102"/><line x1="156" x2="156" y1="294" y2="102"/></g><g fill="none" stroke="#000" stroke-miterlimit="10" stroke-width=".25"><line x1="-32" x2="160" y1="106" y2="106"/><line x1="-32" x2="160" y1="110" y2="110"/><line x1="-32" x2="160" y1="114" y2="114"/><line x1="-32" x2="160" y1="118" y2="118"/><line x1="-32" x2="160" y1="122" y2="122"/><line x1="-32" x2="160" y1="126" y2="126"/><line x1="-32" x2="160" y1="130" y2="130"/><line x1="-32" x2="160" y1="134" y2="134"/><line x1="-32" x2="160" y1="138" y2="138"/><line x1="-32" x2="160" y1="142" y2="142"/><line x1="-32" x2="160" y1="146" y2="146"/><line x1="-32" x2="160" y1="150" y2="150"/><line x1="-32" x2="160" y1="154" y2="154"/><line x1="-32" x2="160" y1="158" y2="158"/><line x1="-32" x2="160" y1="162" y2="162"/><line x1="-32" x2="160" y1="166" y2="166"/><line x1="-32" x2="160" y1="170" y2="170"/><line x1="-32" x2="160" y1="174" y2="174"/><line x1="-32" x2="160" y1="178" y2="178"/><line x1="-32" x2="160" y1="182" y2="182"/><line x1="-32" x2="160" y1="186" y2="186"/><line x1="-32" x2="160" y1="190" y2="190"/><line x1="-32" x2="160" y1="194" y2="194"/><line x1="-32" x2="160" y1="198" y2="198"/><line x1="-32" x2="160" y1="202" y2="202"/><line x1="-32" x2="160" y1="206" y2="206"/><line x1="-32" x2="160" y1="210" y2="210"/><line x1="-32" x2="160" y1="214" y2="214"/><line x1="-32" x2="160" y1="218" y2="218"/><line x1="-32" x2="160" y1="222" y2="222"/><line x1="-32" x2="160" y1="226" y2="226"/><line x1="-32" x2="160" y1="230" y2="230"/><line x1="-32" x2="160" y1="234" y2="234"/><line x1="-32" x2="160" y1="238" y2="238"/><line x1="-32" x2="160" y1="242" y2="242"/><line x1="-32" x2="160" y1="246" y2="246"/><line x1="-32" x2="160" y1="250" y2="250"/><line x1="-32" x2="160" y1="254" y2="254"/><line x1="-32" x2="160" y1="258" y2="258"/><line x1="-32" x2="160" y1="262" y2="262"/><line x1="-32" x2="160" y1="266" y2="266"/><line x1="-32" x2="160" y1="270" y2="270"/><line x1="-32" x2="160" y1="274" y2="274"/><line x1="-32" x2="160" y1="278" y2="278"/><line x1="-32" x2="160" y1="282" y2="282"/><line x1="-32" x2="160" y1="286" y2="286"/><line x1="-32" x2="160" y1="290" y2="290"/></g><path d="m159.75 102.25v191.5h-191.5v-191.5h191.5m0.25-0.25h-192v192h192v-192z"/></g></g><g fill="#F44336"><rect y="134" width="4" height="128" opacity=".3"/><rect x="124" y="134" width="4" height="128" opacity=".3"/><rect transform="matrix(-1.837e-16 1 -1 -1.837e-16 200 72)" x="62" y="76" width="4" height="120" opacity=".3"/><rect transform="matrix(-1.837e-16 1 -1 -1.837e-16 324 196)" x="62" y="200" width="4" height="120" opacity=".3"/></g></g><g display="inline"><g opacity=".6"><circle cx="195" cy="64" r="28" fill="none" opacity=".61" stroke="#000" stroke-miterlimit="10" stroke-width=".2625"/><line x1="215" x2="215" y2="128" fill="none" opacity=".61" stroke="#000" stroke-miterlimit="10" stroke-width=".25"/><line x1="175" x2="175" y2="128" fill="none" opacity=".61" stroke="#000" stroke-miterlimit="10" stroke-width=".25"/><line x1="195" x2="195" y2="128" fill="none" opacity=".61" stroke="#000" stroke-miterlimit="10" stroke-width=".25"/><line x1="259" x2="131" y1="64" y2="64" fill="none" opacity=".61" stroke="#000" stroke-miterlimit="10" stroke-width=".25"/><line x1="259" x2="131" y1="44" y2="44" fill="none" opacity=".61" stroke="#000" stroke-miterlimit="10" stroke-width=".25"/><line x1="259" x2="131" y1="83.75" y2="83.75" fill="none" opacity=".61" stroke="#000" stroke-miterlimit="10" stroke-width=".25"/><line x1="259" x2="131" y1="128" fill="none" opacity=".61" stroke="#000" stroke-miterlimit="10" stroke-width=".25"/><line x1="131" x2="259" y1="128" fill="none" opacity=".61" stroke="#000" stroke-miterlimit="10" stroke-width=".25"/><g opacity=".61"><path d="m195 4.26c32.94 0 59.74 26.8 59.74 59.74s-26.8 59.74-59.74 59.74-59.74-26.8-59.74-59.74 26.8-59.74 59.74-59.74m0-0.26c-33.14 0-60 26.86-60 60s26.86 60 60 60 60-26.86 60-60-26.86-60-60-60z"/></g><path d="m238.97 115.97h-87.94c-4.42 0-8.03-3.61-8.03-8.03v-87.91c0-4.42 3.61-8.03 8.03-8.03h87.94c4.42 0 8.03 3.61 8.03 8.03v87.91c0 4.42-3.61 8.03-8.03 8.03z" fill="none" opacity=".61" stroke="#000" stroke-miterlimit="10" stroke-width=".2578"/><path d="m231 124h-72c-4.4 0-8-3.6-8-8v-104c0-4.4 3.6-8 8-8h72c4.4 0 8 3.6 8 8v104c0 4.4-3.6 8-8 8z" fill="none" opacity=".61" stroke="#000" stroke-miterlimit="10" stroke-width=".2628"/><path d="m244.77 108h-99.54c-5.63 0-10.23-4.6-10.23-10.23v-67.49c0-5.63 4.6-10.23 10.23-10.23h99.54c5.63 0 10.23 4.6 10.23 10.23v67.48c0 5.64-4.6 10.24-10.23 10.24z" fill="none" opacity=".61" stroke="#000" stroke-miterlimit="10" stroke-width=".2627"/></g><g opacity=".2"><defs><rect id="i" x="131" width="128" height="128" opacity=".2"/></defs><clipPath id="q"><use xlink:href="#i"/></clipPath><g clip-path="url(#q)"><g fill="none" stroke="#000" stroke-miterlimit="10" stroke-width=".25"><line x1="103" x2="103" y1="160" y2="-32"/><line x1="107" x2="107" y1="160" y2="-32"/><line x1="111" x2="111" y1="160" y2="-32"/><line x1="115" x2="115" y1="160" y2="-32"/><line x1="119" x2="119" y1="160" y2="-32"/><line x1="123" x2="123" y1="160" y2="-32"/><line x1="127" x2="127" y1="160" y2="-32"/><line x1="131" x2="131" y1="160" y2="-32"/><line x1="135" x2="135" y1="160" y2="-32"/><line x1="139" x2="139" y1="160" y2="-32"/><line x1="143" x2="143" y1="160" y2="-32"/><line x1="147" x2="147" y1="160" y2="-32"/><line x1="151" x2="151" y1="160" y2="-32"/><line x1="155" x2="155" y1="160" y2="-32"/><line x1="159" x2="159" y1="160" y2="-32"/><line x1="163" x2="163" y1="160" y2="-32"/><line x1="167" x2="167" y1="160" y2="-32"/><line x1="171" x2="171" y1="160" y2="-32"/><line x1="175" x2="175" y1="160" y2="-32"/><line x1="179" x2="179" y1="160" y2="-32"/><line x1="183" x2="183" y1="160" y2="-32"/><line x1="187" x2="187" y1="160" y2="-32"/><line x1="191" x2="191" y1="160" y2="-32"/><line x1="195" x2="195" y1="160" y2="-32"/><line x1="199" x2="199" y1="160" y2="-32"/><line x1="203" x2="203" y1="160" y2="-32"/><line x1="207" x2="207" y1="160" y2="-32"/><line x1="211" x2="211" y1="160" y2="-32"/><line x1="215" x2="215" y1="160" y2="-32"/><line x1="219" x2="219" y1="160" y2="-32"/><line x1="223" x2="223" y1="160" y2="-32"/><line x1="227" x2="227" y1="160" y2="-32"/><line x1="231" x2="231" y1="160" y2="-32"/><line x1="235" x2="235" y1="160" y2="-32"/><line x1="239" x2="239" y1="160" y2="-32"/><line x1="243" x2="243" y1="160" y2="-32"/><line x1="247" x2="247" y1="160" y2="-32"/><line x1="251" x2="251" y1="160" y2="-32"/><line x1="255" x2="255" y1="160" y2="-32"/><line x1="259" x2="259" y1="160" y2="-32"/><line x1="263" x2="263" y1="160" y2="-32"/><line x1="267" x2="267" y1="160" y2="-32"/><line x1="268" x2="268" y1="166.05" y2="-25.95"/><line x1="275" x2="275" y1="160" y2="-32"/><line x1="279" x2="279" y1="160" y2="-32"/><line x1="283" x2="283" y1="160" y2="-32"/><line x1="287" x2="287" y1="160" y2="-32"/></g><g fill="none" stroke="#000" stroke-miterlimit="10" stroke-width=".25"><line x1="99" x2="291" y1="-28" y2="-28"/><line x1="99" x2="291" y1="-24" y2="-24"/><line x1="99" x2="291" y1="-20" y2="-20"/><line x1="99" x2="291" y1="-16" y2="-16"/><line x1="99" x2="291" y1="-12" y2="-12"/><line x1="99" x2="291" y1="-8" y2="-8"/><line x1="99" x2="291" y1="-4" y2="-4"/><line x1="99" x2="291"/><line x1="99" x2="291" y1="4" y2="4"/><line x1="99" x2="291" y1="8" y2="8"/><line x1="99" x2="291" y1="12" y2="12"/><line x1="99" x2="291" y1="16" y2="16"/><line x1="99" x2="291" y1="20" y2="20"/><line x1="99" x2="291" y1="24" y2="24"/><line x1="99" x2="291" y1="28" y2="28"/><line x1="99" x2="291" y1="32" y2="32"/><line x1="99" x2="291" y1="36" y2="36"/><line x1="99" x2="291" y1="40" y2="40"/><line x1="99" x2="291" y1="44" y2="44"/><line x1="99" x2="291" y1="48" y2="48"/><line x1="99" x2="291" y1="52" y2="52"/><line x1="99" x2="291" y1="56" y2="56"/><line x1="99" x2="291" y1="60" y2="60"/><line x1="99" x2="291" y1="64" y2="64"/><line x1="99" x2="291" y1="68" y2="68"/><line x1="99" x2="291" y1="72" y2="72"/><line x1="99" x2="291" y1="76" y2="76"/><line x1="99" x2="291" y1="80" y2="80"/><line x1="99" x2="291" y1="84" y2="84"/><line x1="99" x2="291" y1="88" y2="88"/><line x1="99" x2="291" y1="92" y2="92"/><line x1="99" x2="291" y1="96" y2="96"/><line x1="99" x2="291" y1="100" y2="100"/><line x1="99" x2="291" y1="104" y2="104"/><line x1="99" x2="291" y1="108" y2="108"/><line x1="99" x2="291" y1="112" y2="112"/><line x1="99" x2="291" y1="116" y2="116"/><line x1="99" x2="291" y1="120" y2="120"/><line x1="99" x2="291" y1="124" y2="124"/><line x1="99" x2="291" y1="128" y2="128"/><line x1="99" x2="291" y1="132" y2="132"/><line x1="99" x2="291" y1="136" y2="136"/><line x1="99" x2="291" y1="140" y2="140"/><line x1="99" x2="291" y1="144" y2="144"/><line x1="99" x2="291" y1="148" y2="148"/><line x1="99" x2="291" y1="152" y2="152"/><line x1="99" x2="291" y1="156" y2="156"/></g><path d="m290.75-31.75v191.5h-191.5v-191.5h191.5m0.25-0.25h-192v192h192v-192z"/></g></g><g fill="#F44336"><rect x="131" width="4" height="128" opacity=".3"/><rect x="255" width="4" height="128" opacity=".3"/><rect transform="matrix(-1.837e-16 1 -1 -1.837e-16 197 -193)" x="193" y="-58" width="4" height="120" opacity=".3"/><rect transform="matrix(-1.837e-16 1 -1 -1.837e-16 321 -69)" x="193" y="66" width="4" height="120" opacity=".3"/></g></g><g display="inline"><g opacity=".6"><circle cx="195" cy="198" r="28" fill="none" opacity=".61" stroke="#000" stroke-miterlimit="10" stroke-width=".2625"/><line x1="215" x2="215" y1="134" y2="262" fill="none" opacity=".61" stroke="#000" stroke-miterlimit="10" stroke-width=".25"/><line x1="175" x2="175" y1="134" y2="262" fill="none" opacity=".61" stroke="#000" stroke-miterlimit="10" stroke-width=".25"/><line x1="195" x2="195" y1="134" y2="262" fill="none" opacity=".61" stroke="#000" stroke-miterlimit="10" stroke-width=".25"/><line x1="259" x2="131" y1="198" y2="198" fill="none" opacity=".61" stroke="#000" stroke-miterlimit="10" stroke-width=".25"/><line x1="259" x2="131" y1="178" y2="178" fill="none" opacity=".61" stroke="#000" stroke-miterlimit="10" stroke-width=".25"/><line x1="259" x2="131" y1="217.75" y2="217.75" fill="none" opacity=".61" stroke="#000" stroke-miterlimit="10" stroke-width=".25"/><line x1="259" x2="131" y1="262" y2="134" fill="none" opacity=".61" stroke="#000" stroke-miterlimit="10" stroke-width=".25"/><line x1="131" x2="259" y1="262" y2="134" fill="none" opacity=".61" stroke="#000" stroke-miterlimit="10" stroke-width=".25"/><g opacity=".61"><path d="m195 138.26c32.94 0 59.74 26.8 59.74 59.74s-26.8 59.74-59.74 59.74-59.74-26.8-59.74-59.74 26.8-59.74 59.74-59.74m0-0.26c-33.14 0-60 26.86-60 60s26.86 60 60 60 60-26.86 60-60-26.86-60-60-60z"/></g><path d="m238.97 249.97h-87.94c-4.42 0-8.03-3.61-8.03-8.03v-87.91c0-4.42 3.61-8.03 8.03-8.03h87.94c4.42 0 8.03 3.61 8.03 8.03v87.91c0 4.42-3.61 8.03-8.03 8.03z" fill="none" opacity=".61" stroke="#000" stroke-miterlimit="10" stroke-width=".2578"/><path d="m231 258h-72c-4.4 0-8-3.6-8-8v-104c0-4.4 3.6-8 8-8h72c4.4 0 8 3.6 8 8v104c0 4.4-3.6 8-8 8z" fill="none" opacity=".61" stroke="#000" stroke-miterlimit="10" stroke-width=".2628"/><path d="m244.77 242h-99.54c-5.63 0-10.23-4.6-10.23-10.23v-67.48c0-5.63 4.6-10.23 10.23-10.23h99.54c5.63 0 10.23 4.6 10.23 10.23v67.48c0 5.63-4.6 10.23-10.23 10.23z" fill="none" opacity=".61" stroke="#000" stroke-miterlimit="10" stroke-width=".2627"/></g><g opacity=".2"><defs><rect id="l" x="131" y="134" width="128" height="128" opacity=".2"/></defs><clipPath id="p"><use xlink:href="#l"/></clipPath><g clip-path="url(#p)"><g fill="none" stroke="#000" stroke-miterlimit="10" stroke-width=".25"><line x1="103" x2="103" y1="294" y2="102"/><line x1="107" x2="107" y1="294" y2="102"/><line x1="111" x2="111" y1="294" y2="102"/><line x1="115" x2="115" y1="294" y2="102"/><line x1="119" x2="119" y1="294" y2="102"/><line x1="123" x2="123" y1="294" y2="102"/><line x1="127" x2="127" y1="294" y2="102"/><line x1="131" x2="131" y1="294" y2="102"/><line x1="135" x2="135" y1="294" y2="102"/><line x1="139" x2="139" y1="294" y2="102"/><line x1="143" x2="143" y1="294" y2="102"/><line x1="147" x2="147" y1="294" y2="102"/><line x1="151" x2="151" y1="294" y2="102"/><line x1="155" x2="155" y1="294" y2="102"/><line x1="159" x2="159" y1="294" y2="102"/><line x1="163" x2="163" y1="294" y2="102"/><line x1="167" x2="167" y1="294" y2="102"/><line x1="171" x2="171" y1="294" y2="102"/><line x1="175" x2="175" y1="294" y2="102"/><line x1="179" x2="179" y1="294" y2="102"/><line x1="183" x2="183" y1="294" y2="102"/><line x1="187" x2="187" y1="294" y2="102"/><line x1="191" x2="191" y1="294" y2="102"/><line x1="195" x2="195" y1="294" y2="102"/><line x1="199" x2="199" y1="294" y2="102"/><line x1="203" x2="203" y1="294" y2="102"/><line x1="207" x2="207" y1="294" y2="102"/><line x1="211" x2="211" y1="294" y2="102"/><line x1="215" x2="215" y1="294" y2="102"/><line x1="219" x2="219" y1="294" y2="102"/><line x1="223" x2="223" y1="294" y2="102"/><line x1="227" x2="227" y1="294" y2="102"/><line x1="231" x2="231" y1="294" y2="102"/><line x1="235" x2="235" y1="294" y2="102"/><line x1="239" x2="239" y1="294" y2="102"/><line x1="243" x2="243" y1="294" y2="102"/><line x1="247" x2="247" y1="294" y2="102"/><line x1="251" x2="251" y1="294" y2="102"/><line x1="255" x2="255" y1="294" y2="102"/><line x1="259" x2="259" y1="294" y2="102"/><line x1="263" x2="263" y1="294" y2="102"/><line x1="267" x2="267" y1="294" y2="102"/><line x1="268" x2="268" y1="300.05" y2="108.05"/><line x1="275" x2="275" y1="294" y2="102"/><line x1="279" x2="279" y1="294" y2="102"/><line x1="283" x2="283" y1="294" y2="102"/><line x1="287" x2="287" y1="294" y2="102"/></g><g fill="none" stroke="#000" stroke-miterlimit="10" stroke-width=".25"><line x1="99" x2="291" y1="106" y2="106"/><line x1="99" x2="291" y1="110" y2="110"/><line x1="99" x2="291" y1="114" y2="114"/><line x1="99" x2="291" y1="118" y2="118"/><line x1="99" x2="291" y1="122" y2="122"/><line x1="99" x2="291" y1="126" y2="126"/><line x1="99" x2="291" y1="130" y2="130"/><line x1="99" x2="291" y1="134" y2="134"/><line x1="99" x2="291" y1="138" y2="138"/><line x1="99" x2="291" y1="142" y2="142"/><line x1="99" x2="291" y1="146" y2="146"/><line x1="99" x2="291" y1="150" y2="150"/><line x1="99" x2="291" y1="154" y2="154"/><line x1="99" x2="291" y1="158" y2="158"/><line x1="99" x2="291" y1="162" y2="162"/><line x1="99" x2="291" y1="166" y2="166"/><line x1="99" x2="291" y1="170" y2="170"/><line x1="99" x2="291" y1="174" y2="174"/><line x1="99" x2="291" y1="178" y2="178"/><line x1="99" x2="291" y1="182" y2="182"/><line x1="99" x2="291" y1="186" y2="186"/><line x1="99" x2="291" y1="190" y2="190"/><line x1="99" x2="291" y1="194" y2="194"/><line x1="99" x2="291" y1="198" y2="198"/><line x1="99" x2="291" y1="202" y2="202"/><line x1="99" x2="291" y1="206" y2="206"/><line x1="99" x2="291" y1="210" y2="210"/><line x1="99" x2="291" y1="214" y2="214"/><line x1="99" x2="291" y1="218" y2="218"/><line x1="99" x2="291" y1="222" y2="222"/><line x1="99" x2="291" y1="226" y2="226"/><line x1="99" x2="291" y1="230" y2="230"/><line x1="99" x2="291" y1="234" y2="234"/><line x1="99" x2="291" y1="238" y2="238"/><line x1="99" x2="291" y1="242" y2="242"/><line x1="99" x2="291" y1="246" y2="246"/><line x1="99" x2="291" y1="250" y2="250"/><line x1="99" x2="291" y1="254" y2="254"/><line x1="99" x2="291" y1="258" y2="258"/><line x1="99" x2="291" y1="262" y2="262"/><line x1="99" x2="291" y1="266" y2="266"/><line x1="99" x2="291" y1="270" y2="270"/><line x1="99" x2="291" y1="274" y2="274"/><line x1="99" x2="291" y1="278" y2="278"/><line x1="99" x2="291" y1="282" y2="282"/><line x1="99" x2="291" y1="286" y2="286"/><line x1="99" x2="291" y1="290" y2="290"/></g><path d="m290.75 102.25v191.5h-191.5v-191.5h191.5m0.25-0.25h-192v192h192v-192z"/></g></g><g fill="#F44336"><rect x="131" y="134" width="4" height="128" opacity=".3"/><rect x="255" y="134" width="4" height="128" opacity=".3"/><rect transform="matrix(-1.837e-16 1 -1 -1.837e-16 331 -59)" x="193" y="76" width="4" height="120" opacity=".3"/><rect transform="matrix(-1.837e-16 1 -1 -1.837e-16 455 65)" x="193" y="200" width="4" height="120" opacity=".3"/></g></g></g></svg>
