<svg xmlns="http://www.w3.org/2000/svg" xmlns:xlink="http://www.w3.org/1999/xlink" viewBox="0 0 128 128"><defs><path id="a" d="M64 6.27C32.17 6.27 6.27 32.17 6.27 64c0 31.84 25.9 57.73 57.73 57.73s57.74-25.9 57.74-57.73S95.83 6.27 64 6.27z"/></defs><use xlink:href="#a" overflow="visible" fill="#fff"/><path d="M64 127.9C28.77 127.9.1 99.23.1 64S28.77.1 64 .1s63.89 28.67 63.89 63.9S99.23 127.9 64 127.9zM64 6.27C32.17 6.27 6.27 32.17 6.27 64c0 31.84 25.9 57.73 57.73 57.73s57.74-25.9 57.74-57.73S95.83 6.27 64 6.27z" fill="#40c0e7"/><circle cx="113.93" cy="64" r="3.69" fill="#2f2f2f"/><path d="M110.43 37.2c1.02 1.76.41 4.01-1.35 5.04-1.77 1.01-4.02.41-5.03-1.35a3.691 3.691 0 0 1 1.35-5.04 3.671 3.671 0 0 1 5.03 1.35zM90.81 17.57a3.68 3.68 0 0 1 1.34 5.03c-1.01 1.76-3.27 2.36-5.03 1.35a3.68 3.68 0 0 1-1.34-5.03 3.671 3.671 0 0 1 5.03-1.35zM37.19 17.57a3.682 3.682 0 0 1 5.03 1.35c1.02 1.76.42 4.01-1.35 5.03a3.669 3.669 0 0 1-5.03-1.35c-1.01-1.76-.41-4.02 1.35-5.03zM17.56 37.19a3.691 3.691 0 0 1 5.04-1.35 3.67 3.67 0 0 1 1.34 5.03 3.673 3.673 0 0 1-5.03 1.35c-1.76-1.01-2.36-3.27-1.35-5.03zM10.38 64c0-2.03 1.65-3.68 3.68-3.68 2.03 0 3.67 1.65 3.67 3.68 0 2.04-1.64 3.69-3.67 3.68-2.03 0-3.69-1.65-3.68-3.68zM17.56 90.81a3.691 3.691 0 0 1 1.35-5.03 3.682 3.682 0 0 1 5.03 1.35c1.02 1.77.41 4.02-1.36 5.04-1.75 1.01-4 .4-5.02-1.36zM37.19 110.43a3.691 3.691 0 0 1-1.35-5.03 3.694 3.694 0 0 1 5.04-1.35 3.673 3.673 0 0 1 1.35 5.03c-1.03 1.77-3.29 2.38-5.04 1.35zM90.8 110.43a3.68 3.68 0 0 1-5.03-1.35 3.682 3.682 0 0 1 1.33-5.03c1.77-1.02 4.03-.41 5.04 1.34 1.03 1.77.42 4.03-1.34 5.04zM110.43 90.81a3.68 3.68 0 0 1-5.03 1.34 3.671 3.671 0 0 1-1.35-5.03 3.68 3.68 0 0 1 5.03-1.35c1.76 1.02 2.37 3.29 1.35 5.04zM59.4 60.61h9.2v56.05h-9.2z" fill="#2f2f2f"/><g fill="#2f2f2f"><path d="M73.78 63.99c0 5.41-4.39 9.79-9.78 9.79-5.4 0-9.78-4.38-9.78-9.79 0-5.4 4.38-9.77 9.78-9.77 5.39 0 9.78 4.37 9.78 9.77z"/><path d="M73.78 63.99c0 5.41-4.39 9.79-9.78 9.79-5.4 0-9.78-4.38-9.78-9.79 0-5.4 4.38-9.77 9.78-9.77 5.39 0 9.78 4.37 9.78 9.77z"/></g><path fill="#2f2f2f" d="M50.655 33.152l8.864-2.463 9.825 35.36-8.865 2.463z"/><ellipse cx="64" cy="64" rx="3.69" ry="3.69" fill="#fff"/><g fill="#2f2f2f"><path d="M90.81 17.57a3.688 3.688 0 0 1 1.34 5.04c-1.01 1.76-3.27 2.36-5.03 1.35a3.688 3.688 0 0 1-1.34-5.04 3.671 3.671 0 0 1 5.03-1.35zM63.99 10.38c-2.03 0-3.68 1.65-3.68 3.68 0 2.04 1.65 3.68 3.68 3.68 2.04 0 3.69-1.65 3.69-3.68 0-2.03-1.65-3.68-3.69-3.68z"/></g></svg>