<?xml version="1.0" encoding="utf-8"?>
<!-- Generator: Adobe Illustrator 19.2.1, SVG Export Plug-In . SVG Version: 6.00 Build 0)  -->
<svg version="1.1" id="レイヤー_1" xmlns="http://www.w3.org/2000/svg" xmlns:xlink="http://www.w3.org/1999/xlink" x="0px"
	 y="0px" viewBox="0 0 128 128" style="enable-background:new 0 0 128 128;" xml:space="preserve">
<g>
	<g>
		<path style="fill:#2F2F2F;" d="M65.21,62.13c-0.56,0-1.12-0.21-1.55-0.64c-0.86-0.86-0.86-2.25,0-3.11l7.01-7
			c0.86-0.86,2.25-0.86,3.1,0c0.86,0.86,0.86,2.25,0,3.11l-7,7.01C66.34,61.92,65.77,62.13,65.21,62.13z"/>
		<path style="fill:#2F2F2F;" d="M77.98,59.78c-0.57,0-1.13-0.21-1.56-0.64L65.71,48.43c-0.86-0.86-0.86-2.25,0-3.11
			c0.86-0.86,2.25-0.86,3.1,0l10.72,10.72c0.86,0.86,0.86,2.25,0,3.11C79.1,59.57,78.54,59.78,77.98,59.78z"/>
	</g>
	<g>
		<rect x="39.59" y="45.34" style="fill:#2F2F2F;" width="11.87" height="44.24"/>
		<rect x="55.6" y="57.43" style="fill:#2F2F2F;" width="11.87" height="35.45"/>
		<path style="fill:#2F2F2F;" d="M43.15,47.54h5.09v-7.12c0.01-0.1,0.14-2.72-1.81-4.83c-1.47-1.57-3.6-2.37-6.33-2.37v5.08
			c0.85,0,1.99,0.13,2.57,0.73c0.5,0.5,0.49,1.26,0.49,1.26L43.15,47.54z"/>
	</g>
	<path style="fill:#2F2F2F;" d="M99.9,67.02c-1.74,0-3.15-1.42-3.15-3.15V41.58c0-1.73,1.41-3.15,3.15-3.15h3.13
		c1.74,0,3.16,1.42,3.16,3.15v22.29c0,1.73-1.42,3.15-3.16,3.15H99.9z"/>
	<polygon style="fill:#ED6C30;" points="66.95,11.31 66.95,17.54 102.11,17.54 108.71,24.5 118.96,24.5 118.96,11.31 	"/>
	<rect x="110.89" y="19.37" style="fill:#ED6C30;" width="5.15" height="46.7"/>
	<path style="fill:#ED6C30;" d="M70.09,73.2l-4.84-3.04c6.77-10.78,18.4-17.21,31.13-17.21c11.04,0,21.39,4.9,28.39,13.44
		l-4.41,3.62c-5.91-7.22-14.66-11.35-23.98-11.35C85.63,58.66,75.8,64.1,70.09,73.2z"/>
	<path style="fill:#ED6C30;" d="M55.6,90.38V57.46c-26.68,0-38.45,0-39.34,0c-6.67,0-11.27,4.41-11.27,10.89c0,6.48,0,30.3,0,30.3
		h117.33v-8.27H55.6z"/>
	<g>
		<g>
			<path style="fill:#2F2F2F;" d="M35.66,103.24c0,9.75-7.91,17.65-17.66,17.65c-9.76,0-17.67-7.9-17.67-17.65
				C0.33,93.48,8.24,85.6,18,85.6C27.75,85.6,35.66,93.48,35.66,103.24z"/>
			<ellipse style="fill:#ED6C30;" cx="17.99" cy="103.24" rx="7.08" ry="7.07"/>
		</g>
		<g>
			<path style="fill:#2F2F2F;" d="M127.67,89.62c0,17.28-14.02,31.27-31.28,31.27c-17.29,0-31.3-13.99-31.3-31.27
				c0-17.28,14.01-31.26,31.3-31.26C113.65,58.36,127.67,72.34,127.67,89.62z"/>
			<path style="fill:#ED6C30;" d="M111.38,89.62c0,8.28-6.71,14.99-14.99,14.99c-8.27,0-14.97-6.71-14.97-14.99
				s6.7-14.96,14.97-14.96C104.67,74.66,111.38,81.34,111.38,89.62z"/>
		</g>
	</g>
</g>
</svg>
