<svg xmlns="http://www.w3.org/2000/svg" enable-background="new 0 0 128 128" viewBox="0 0 128 128"><path d="m124.63 53.7s-4.3 0.09-4.3 3.54c0 8.51 0.09 26.76-22.19 26.76-17.84 0-26.36-9.21-27.79-19.39-0.59-4.23-2.06-8.85-6.34-8.85s-5.75 4.61-6.34 8.85c-1.44 10.18-9.96 19.39-27.8 19.39-22.29 0-22.2-18.26-22.2-26.76 0-3.45-4.3-3.54-4.3-3.54v-8.43s8.26-1.27 20.87-1.27 17.63 0 27.67 1c5.92 0.6 12.09 0.66 12.09 0.66s6.17-0.06 12.09-0.66c10.03-1 15.06-1 27.67-1s20.87 1.27 20.87 1.27v8.43z"/><path d="m103.76 47c8.19 0 14.55 0.55 17.87 0.92v3.35c-2.41 0.92-4.3 2.95-4.3 5.97v0.11c0 4.08 0 10.24-2.46 15.2-2.82 5.69-8.29 8.45-16.73 8.45-14.07 0-23.35-6.28-24.82-16.81-1.33-9.45-5.8-11.43-9.31-11.43-3.52 0-7.98 1.98-9.31 11.43-1.49 10.53-10.77 16.81-24.83 16.81-8.44 0-13.91-2.77-16.73-8.45-2.46-4.97-2.46-11.13-2.46-15.2v-0.11c0-3.03-1.9-5.05-4.3-5.97v-3.35c3.31-0.37 9.67-0.92 17.86-0.92 12.72 0 17.48 0 27.37 0.99 5.99 0.6 12.1 0.67 12.36 0.67h0.03 0.03c0.26 0 6.37-0.07 12.36-0.67 9.88-0.99 14.64-0.99 27.37-0.99m0-3c-12.61 0-17.63 0-27.66 1-5.93 0.6-12.1 0.66-12.1 0.66s-6.17-0.06-12.09-0.66c-10.03-1-15.06-1-27.66-1-12.61 0-20.87 1.27-20.87 1.27v8.43s4.3 0.09 4.3 3.54c-0.01 8.5-0.1 26.76 22.19 26.76 17.84 0 26.36-9.21 27.79-19.39 0.59-4.23 2.06-8.85 6.34-8.85s5.75 4.61 6.34 8.85c1.43 10.18 9.95 19.39 27.79 19.39 22.28 0 22.19-18.26 22.19-26.76 0-3.45 4.3-3.54 4.3-3.54v-8.43c0.01 0-8.26-1.27-20.86-1.27z" fill="#757575"/><path d="m21.67 62.3c-0.1 1.61-0.75 3.11-2.33 3.41-0.18 0.03-0.36 0.05-0.54 0.05-1.38 0-2.6-0.98-2.87-2.38-0.56-3.01 0.09-5.83 1.84-7.94 1.64-1.98 4.06-3.11 6.65-3.11 1.61 0 3.04 1 3.04 2.61 0 1.9-1.51 2.7-3.04 3.23-1.43 0.49-2.63 2.17-2.75 4.13z" fill="#858585"/><path d="m85.92 62.3c-0.1 1.61-0.75 3.11-2.33 3.41-0.18 0.03-0.36 0.05-0.54 0.05-1.38 0-2.6-0.98-2.87-2.38-0.56-3.01 0.09-5.83 1.84-7.94 1.64-1.98 4.06-3.11 6.65-3.11 1.61 0 3.04 1 3.04 2.61 0 1.9-1.51 2.7-3.04 3.23-1.43 0.49-2.63 2.17-2.75 4.13z" fill="#858585"/></svg>