<svg xmlns="http://www.w3.org/2000/svg" xmlns:xlink="http://www.w3.org/1999/xlink" viewBox="0 0 128 128"><defs><path id="a" d="M.06 0H128v128H.06z"/></defs><clipPath id="b"><use xlink:href="#a" overflow="visible"/></clipPath><path d="M25.12 96.06s-2.67 14.99 10.96 10.46c22.46-7.47 23.54.68 30.43 3.49 10.29 4.19 21.86 3.73 33.82-9.19C112.79 87.35 68.96 83.61 57 82.36c-11.95-1.24-30.63 13.45-30.63 13.45" clip-path="url(#b)" fill="#99674f"/><path d="M6.92 103.33L.76 121.09v1.12s-2.96 7.4 3.3 2.17c.42-.04.85-.19.85-.19s16.8-13.56 17.36-13.74c.56-.18 8.08-12.01 8.08-12.01s-14.25-11.39-16.6-7.78c-2.34 3.59-6.83 12.67-6.83 12.67z" clip-path="url(#b)" fill="#006ca0"/><path d="M69.96 47.4s-21.87-11.16-31.6-4.14c-8.56 6.18-15.61 9.71-19.92 12.2-4.31 2.49-10.59 2.01-11.46 13.7-.74 10.09-.75 18.61-2.36 22.05-4.56 9.71 7.66 16.34 12.2-1.87 4.66-15.44 18.06-2.24 28.51-4.73 10.46-2.49 29.84-21.24 32.05-26.27 3.04-6.92-7.42-10.94-7.42-10.94z" clip-path="url(#b)" fill="#99674f"/><path d="M16.11 85.23S65.82 8.96 70.25 3.98c3.96-4.45.97-4.64 15.39 4.48 3.62 2.29-53.87 80.06-53.87 80.06l-16.56-1.5.9-1.79" clip-path="url(#b)" fill="#006ca0"/><path d="M54.3 59.7s-8.47 12.45-18.93 17.43c-10.46 4.98-23.41 6.97-21.42 15.44 1.99 8.47 11.95 14.45 27.89 2.49 8.47-5.48 13.45-1 20.92 2.49 7.47 3.49 8.96 9.46 27.39 6.47 18.43-2.99 20.26.43 28.39 4.48 7.97-4.98 8.96-19.92 8.96-29.39s-1.15-8.25-12.45-9.46c-8.96-2.99-33.01-14.98-39.44-19.01-2.59-1.62-8.74-6.08-16.46 2.79" clip-path="url(#b)" fill="#bf8f68"/></svg>