<svg width="128" height="128" style="enable-background:new 0 0 128 128;" xmlns="http://www.w3.org/2000/svg" xmlns:xlink="http://www.w3.org/1999/xlink">
  <g id="Layer_1">
    <g id="XMLID_41_">
      <linearGradient id="XMLID_6_" gradientUnits="userSpaceOnUse" x1="-70.0472" x2="-70.0472" y1="-107.4134" y2="-51.2908">
        <stop offset="5.129895e-03" style="stop-color:#EEEEEE"/>
        <stop offset="0.2817" style="stop-color:#EAEAEA"/>
        <stop offset="0.5766" style="stop-color:#DDDDDD"/>
        <stop offset="0.8789" style="stop-color:#C8C8C8"/>
        <stop offset="0.9998" style="stop-color:#BDBDBD"/>
      </linearGradient>
      <path id="XMLID_90_" d="M-19.13-78.72c-0.91-4.33-4.3-20.11-5.87-27.41 c-0.47-2.21-2.11-3.82-3.99-3.81c-5.36,0-15.39-0.05-16.6-0.05c0,0-35.79,0-44.08,0c-0.61,0-2.56,0.06-4.11,1.79 c-4.7,5.27-12.54,20.52-13.76,22.07c-0.08,0.1-6.27,2.31-9.09,4c-1.12,0.67-1.74,2.13-1.9,3.63l-2.46,20.75 c-0.64,4.1,1.7,5.76,5.37,5.76h91.51c2.8,0,5.11-0.68,5.11-5.69v-19.79C-19-77.9-19.05-78.32-19.13-78.72z" style="fill:url(#XMLID_6_);"/>
      <g id="XMLID_68_">
        <defs>
          <path id="XMLID_69_" d="M-19.13-78.78c-0.91-4.32-4.3-20.06-5.87-27.34c-0.47-2.21-2.11-3.82-3.99-3.82 c-5.36,0-15.39-0.06-16.6-0.06c0,0-35.79,0-44.08,0c-0.61,0-2.56,0.07-4.11,1.8c-4.7,5.26-12.54,20.51-13.76,22.05 c-0.08,0.1-6.27,2.28-9.09,3.96c-1.12,0.67-1.74,2.13-1.9,3.62l-2.46,20.76c-0.64,4.09,1.7,5.81,5.37,5.81h91.51 c2.8,0,5.11-0.79,5.11-5.8v-19.74C-19-77.96-19.05-78.37-19.13-78.78z"/>
        </defs>
        <clipPath id="XMLID_7_">
          <use style="overflow:visible;" xlink:href="#XMLID_69_"/>
        </clipPath>
      </g>
      <g id="XMLID_61_" style="opacity:0.2;">
        <path d="M-28.98-107c0.36,0,0.87,0.59,1.05,1.44c1.46,6.78,4.95,23.05,5.86,27.43 c0.04,0.2,0.07,0.44,0.07,0.66v19.79c0,2.81-0.49,2.69-2.11,2.69h-91.51c-1.3,0-2.02-0.23-2.25-0.5 c-0.23-0.27-0.3-0.92-0.16-1.77c0.01-0.04,0.01-0.06,0.02-0.09l2.47-20.83c0.08-0.8,0.36-1.28,0.46-1.36 c1.87-1.12,5.83-2.66,7.51-3.31c1.46-0.57,1.86-0.72,2.39-1.39c0.5-0.63,1.28-2,2.99-5.03c2.85-5.03,7.61-13.53,10.65-16.93 c0.57-0.64,1.22-0.79,1.87-0.79h44.08c0.75,0,4.89,0,9.21,0H-28.98H-29 M-28.98-110C-28.98-110-28.98-110-28.98-110 c-5.36,0-15.39,0-16.6,0c0,0-35.79,0-44.08,0c-0.01,0-0.01,0-0.02,0c-0.63,0-2.55,0.08-4.08,1.79 c-4.7,5.27-12.54,20.52-13.76,22.07c-0.08,0.1-6.27,2.31-9.09,4c-1.12,0.67-1.74,2.13-1.9,3.63l-2.46,20.75 c-0.64,4.1,1.7,5.76,5.37,5.76h91.51c2.8,0,5.11-0.68,5.11-5.69v-19.79c0-0.42-0.05-0.84-0.13-1.24 c-0.91-4.33-4.3-20.17-5.87-27.47C-25.47-108.4-27.11-110-28.98-110L-28.98-110z" style="fill:#424242;"/>
      </g>
    </g>
    <g id="XMLID_2_">
      <linearGradient id="XMLID_8_" gradientUnits="userSpaceOnUse" x1="69.4303" x2="69.4303" y1="-151.4969" y2="-95.3743">
        <stop offset="0.0106" style="stop-color:#616161"/>
        <stop offset="0.2496" style="stop-color:#5D5D5D"/>
        <stop offset="0.5044" style="stop-color:#505050"/>
        <stop offset="0.7657" style="stop-color:#3B3B3B"/>
        <stop offset="1" style="stop-color:#212121"/>
      </linearGradient>
      <path id="XMLID_142_" d="M120.35-122.93c-0.91-4.33-4.3-20.11-5.86-27.41 c-0.47-2.21-2.11-3.75-3.99-3.75c-5.36,0-15.39,0.01-16.6,0.01c0,0-35.79,0-44.08,0c-0.61,0-2.56-0.01-4.11,1.73 c-4.7,5.27-12.54,20.49-13.76,22.03c-0.08,0.1-6.27,2.3-9.09,3.99c-1.12,0.67-1.74,2.12-1.9,3.62l-2.46,20.8 c-0.64,4.1,1.7,5.82,5.37,5.82h91.51c2.8,0,5.1-0.8,5.1-5.81v-19.79C120.47-122.11,120.43-122.52,120.35-122.93z" style="fill:url(#XMLID_8_);"/>
      <g id="XMLID_136_">
        <defs>
          <path id="XMLID_141_" d="M120.35-122.98c-0.91-4.32-4.3-20.06-5.86-27.34c-0.47-2.21-2.11-3.74-3.99-3.74 c-5.36,0-15.39,0.01-16.6,0.01c0,0-35.79,0-44.08,0c-0.61,0-2.56-0.01-4.11,1.72c-4.7,5.26-12.54,20.47-13.76,22.01 c-0.08,0.1-6.27,2.26-9.09,3.94c-1.12,0.67-1.74,2.12-1.9,3.61L18.49-102c-0.64,4.09,1.7,5.8,5.37,5.8h91.51 c2.8,0,5.1-0.79,5.1-5.8v-19.74C120.47-122.16,120.43-122.58,120.35-122.98z"/>
        </defs>
        <clipPath id="XMLID_9_">
          <use style="overflow:visible;" xlink:href="#XMLID_141_"/>
        </clipPath>
      </g>
      <g id="XMLID_129_" style="opacity:0.2;">
        <path d="M110.5-151.08c0.36,0,0.87,0.53,1.05,1.38c1.46,6.78,4.95,23.03,5.86,27.4 c0.04,0.2,0.06,0.41,0.06,0.63v19.79c0,2.81-0.49,2.81-2.1,2.81H23.86c-1.3,0-2.02-0.29-2.25-0.56c-0.23-0.27-0.3-0.95-0.16-1.8 l0.01-0.05l0.01-0.05l2.47-20.84c0.08-0.8,0.36-1.28,0.46-1.36c1.87-1.12,5.83-2.66,7.51-3.31c1.46-0.57,1.86-0.72,2.39-1.39 c0.5-0.63,1.28-2,2.99-5.03c2.85-5.03,7.61-13.46,10.65-16.87c0.57-0.64,1.22-0.72,1.87-0.72h44.08c0.75,0,4.84,0,9.12-0.01 L110.5-151.08L110.5-151.08 M110.5-154.08C110.5-154.08,110.5-154.08,110.5-154.08c-5.36,0-15.39,0.01-16.6,0.01 c0,0-35.79,0-44.08,0c-0.01,0-0.01,0-0.02,0c-0.63,0-2.55,0.01-4.08,1.73c-4.7,5.27-12.54,20.49-13.76,22.03 c-0.08,0.1-6.27,2.3-9.09,3.99c-1.12,0.67-1.74,2.12-1.9,3.62l-2.46,20.8c-0.64,4.1,1.7,5.82,5.37,5.82h91.51 c2.8,0,5.1-0.8,5.1-5.81v-19.79c0-0.42-0.04-0.84-0.13-1.24c-0.91-4.33-4.3-20.11-5.86-27.41 C114.01-152.55,112.37-154.08,110.5-154.08L110.5-154.08z" style="fill:#EEEEEE;"/>
      </g>
    </g>
    <linearGradient id="SVGID_1_" gradientTransform="matrix(0.7071 -0.7071 0.7071 0.7071 -34.2832 69.3)" gradientUnits="userSpaceOnUse" x1="59.3411" x2="87.1002" y1="75.309" y2="75.309">
      <stop offset="0" style="stop-color:#949494"/>
      <stop offset="1" style="stop-color:#CFCFCF"/>
    </linearGradient>
    <path d="M108.85,122.86l13.98-13.98c1.56-1.56,1.56-4.09,0-5.65L35.46,15.87L15.83,35.49l87.37,87.37 C104.76,124.42,107.29,124.42,108.85,122.86z" style="fill:url(#SVGID_1_);"/>
    <polygon points="82.33,101.99 109.81,90.14 103.7,84.03 76.22,95.89 " style="fill:#757575;"/>
    <polygon points="70.27,89.93 97.75,78.07 91.64,71.97 64.16,83.82 " style="fill:#757575;"/>
    <polygon points="58.2,77.87 85.68,66.01 79.58,59.91 52.1,71.76 " style="fill:#757575;"/>
    <polygon points="94.39,114.05 121.87,102.2 115.76,96.09 88.28,107.95 " style="fill:#757575;"/>
    <path d="M100.35,120.01l2.85,2.85c1.56,1.56,4.09,1.56,5.65,0l11.47-11.47L100.35,120.01z" style="fill:#757575;"/>
    <polygon points="46.14,65.81 73.62,53.95 67.51,47.84 40.03,59.7 " style="fill:#757575;"/>
    <polygon points="34.08,53.74 61.56,41.89 55.45,35.78 27.97,47.64 " style="fill:#757575;"/>
    <path d="M21.35,62.59l41.24-41.24c1.28-1.28,1.28-3.37,0-4.65L50.87,4.98c-1.28-1.28-3.37-1.28-4.65,0 L4.98,46.22c-1.28,1.28-1.28,3.37,0,4.65L16.7,62.59C17.98,63.87,20.06,63.87,21.35,62.59z" style="fill:#757575;"/>
    <path d="M55.08,28.85l7.51-7.51c1.28-1.28,1.28-3.37,0-4.65L50.87,4.98c-1.28-1.28-3.37-1.28-4.65,0 l-7.51,7.51L55.08,28.85z" style="fill:#BDBDBD;"/>
    <path d="M21.35,62.59l7.55-7.55L12.53,38.67l-7.55,7.55c-1.28,1.28-1.28,3.37,0,4.65L16.7,62.59 C17.98,63.87,20.06,63.87,21.35,62.59z" style="fill:#5E5E5E;"/>
    <g style="opacity:0.2;">
      <path d="M35.46,20.11l85.25,85.25c0.25,0.25,0.29,0.55,0.29,0.7s-0.04,0.45-0.29,0.7l-13.98,13.98 c-0.25,0.25-0.55,0.29-0.7,0.29s-0.45-0.04-0.7-0.29L20.07,35.49L35.46,20.11 M35.46,15.87L15.83,35.49l87.37,87.37 c0.78,0.78,1.8,1.17,2.82,1.17s2.04-0.39,2.82-1.17l13.98-13.98c1.56-1.56,1.56-4.09,0-5.65L35.46,15.87L35.46,15.87z" style="fill:#424242;"/>
    </g>
    <rect height="23.14" style="fill:#848484;" transform="matrix(-0.7071 0.7071 -0.7071 -0.7071 81.5822 33.7332)" width="37.03" x="15.29" y="22.19"/>
    <g style="opacity:0.2;">
      <path d="M48.55,7.01c0.08,0,0.15,0.03,0.2,0.08l11.72,11.72c0.06,0.06,0.08,0.12,0.08,0.2 c0,0.08-0.03,0.15-0.08,0.2L19.23,60.47c-0.06,0.06-0.12,0.08-0.2,0.08s-0.15-0.03-0.2-0.08L7.1,48.75 c-0.06-0.06-0.08-0.12-0.08-0.2c0-0.08,0.03-0.15,0.08-0.2L48.34,7.1C48.4,7.04,48.47,7.01,48.55,7.01 M48.55,4.01 c-0.84,0-1.68,0.32-2.33,0.96L4.98,46.22c-1.28,1.28-1.28,3.37,0,4.65L16.7,62.59c0.64,0.64,1.48,0.96,2.33,0.96 s1.68-0.32,2.33-0.96l41.24-41.24c1.28-1.28,1.28-3.37,0-4.65L50.87,4.98C50.23,4.34,49.39,4.01,48.55,4.01L48.55,4.01z" style="fill:#424242;"/>
    </g>
    <path d="M57.41,98.65L98.65,57.4c1.28-1.28,1.28-3.37,0-4.65L86.93,41.04c-1.28-1.28-3.37-1.28-4.65,0 L41.04,82.28c-1.28,1.28-1.28,3.37,0,4.65l11.72,11.72C54.04,99.93,56.12,99.93,57.41,98.65z" style="fill:#757575;"/>
    <path d="M91.14,64.91l7.51-7.51c1.28-1.28,1.28-3.37,0-4.65L86.93,41.04c-1.28-1.28-3.37-1.28-4.65,0 l-7.51,7.51L91.14,64.91z" style="fill:#BDBDBD;"/>
    <path d="M57.41,98.65l7.55-7.55L48.59,74.73l-7.55,7.55c-1.28,1.28-1.28,3.37,0,4.65l11.72,11.72 C54.04,99.93,56.12,99.93,57.41,98.65z" style="fill:#5E5E5E;"/>
    <rect height="23.14" style="fill:#848484;" transform="matrix(-0.7071 0.7071 -0.7071 -0.7071 168.6355 69.7918)" width="37.03" x="51.35" y="58.25"/>
    <g style="opacity:0.2;">
      <path d="M84.61,43.07c0.08,0,0.15,0.03,0.2,0.08l11.72,11.72c0.06,0.06,0.08,0.12,0.08,0.2 c0,0.08-0.03,0.15-0.08,0.2L55.28,96.52c-0.06,0.06-0.12,0.08-0.2,0.08s-0.15-0.03-0.2-0.08L43.16,84.81 c-0.06-0.06-0.08-0.12-0.08-0.2c0-0.08,0.03-0.15,0.08-0.2L84.4,43.16C84.46,43.1,84.53,43.07,84.61,43.07 M84.61,40.07 c-0.84,0-1.68,0.32-2.33,0.96L41.04,82.28c-1.28,1.28-1.28,3.37,0,4.65l11.72,11.72c0.64,0.64,1.48,0.96,2.33,0.96 s1.68-0.32,2.33-0.96L98.65,57.4c1.28-1.28,1.28-3.37,0-4.65L86.93,41.04C86.29,40.39,85.45,40.07,84.61,40.07L84.61,40.07z" style="fill:#424242;"/>
    </g>
  </g>
  <g id="Layer_2" style="display:none;">
    <g style="display:inline;">
      <g style="opacity:0.6;">
        <circle cx="64" cy="64" r="28" style="opacity:0.61;fill:none;stroke:#000000;stroke-width:0.2625;stroke-miterlimit:10;"/>
        <line style="opacity:0.61;fill:none;stroke:#000000;stroke-miterlimit:10;" x1="83.5" x2="83.5" y1="0" y2="128"/>
        <line style="opacity:0.61;fill:none;stroke:#000000;stroke-miterlimit:10;" x1="43.5" x2="43.5" y1="0" y2="128"/>
        <line style="opacity:0.61;fill:none;stroke:#000000;stroke-miterlimit:10;" x1="63.5" x2="63.5" y1="0" y2="128"/>
        <line style="opacity:0.61;fill:none;stroke:#000000;stroke-miterlimit:10;" x1="128" x2="0" y1="64.5" y2="64.5"/>
        <line style="opacity:0.61;fill:none;stroke:#000000;stroke-miterlimit:10;" x1="128" x2="0" y1="44.5" y2="44.5"/>
        <line style="opacity:0.61;fill:none;stroke:#000000;stroke-miterlimit:10;" x1="128" x2="0" y1="83.5" y2="83.5"/>
        <line style="opacity:0.61;fill:none;stroke:#000000;stroke-width:0.25;stroke-miterlimit:10;" x1="128" x2="0" y1="128" y2="0"/>
        <line style="opacity:0.61;fill:none;stroke:#000000;stroke-width:0.25;stroke-miterlimit:10;" x1="0" x2="128" y1="128" y2="0"/>
        <g style="opacity:0.61;">
          <path d="M64,4.26c32.94,0,59.74,26.8,59.74,59.74S96.94,123.74,64,123.74S4.26,96.94,4.26,64S31.06,4.26,64,4.26 M64,4 C30.86,4,4,30.86,4,64s26.86,60,60,60s60-26.86,60-60S97.14,4,64,4L64,4z"/>
        </g>
        <path d="M115.5,108.47c0,4.43-3.59,8.03-8.03,8.03H19.53 c-4.43,0-8.03-3.59-8.03-8.03V20.53c0-4.43,3.59-8.03,8.03-8.03h87.94c4.43,0,8.03,3.59,8.03,8.03V108.47z" style="opacity:0.61;fill:none;stroke:#000000;stroke-miterlimit:10;"/>
        <path d="M107.5,116.5c0,4.42-3.58,8-8,8h-72 c-4.42,0-8-3.58-8-8v-104c0-4.42,3.58-8,8-8h72c4.42,0,8,3.58,8,8V116.5z" style="opacity:0.61;fill:none;stroke:#000000;stroke-miterlimit:10;"/>
        <path d="M123.5,98.27c0,5.65-4.58,10.23-10.23,10.23H13.73 c-5.65,0-10.23-4.58-10.23-10.23V30.73c0-5.65,4.58-10.23,10.23-10.23h99.54c5.65,0,10.23,4.58,10.23,10.23V98.27z" style="opacity:0.61;fill:none;stroke:#000000;stroke-miterlimit:10;"/>
      </g>
      <g>
        <g style="opacity:0.2;">
          <defs>
            <rect id="SVGID_2_" height="128" style="opacity:0.2;" width="128" x="0"/>
          </defs>
          <clipPath id="SVGID_3_">
            <use style="overflow:visible;" xlink:href="#SVGID_2_"/>
          </clipPath>
          <g style="clip-path:url(#SVGID_3_);">
            <g>
              <line style="fill:none;stroke:#000000;stroke-miterlimit:10;" x1="-28.5" x2="-28.5" y1="160" y2="-32"/>
              <line style="fill:none;stroke:#000000;stroke-miterlimit:10;" x1="-24.5" x2="-24.5" y1="160" y2="-32"/>
              <line style="fill:none;stroke:#000000;stroke-miterlimit:10;" x1="-20.5" x2="-20.5" y1="160" y2="-32"/>
              <line style="fill:none;stroke:#000000;stroke-miterlimit:10;" x1="-16.5" x2="-16.5" y1="160" y2="-32"/>
              <line style="fill:none;stroke:#000000;stroke-miterlimit:10;" x1="-12.5" x2="-12.5" y1="160" y2="-32"/>
              <line style="fill:none;stroke:#000000;stroke-miterlimit:10;" x1="-8.5" x2="-8.5" y1="160" y2="-32"/>
              <line style="fill:none;stroke:#000000;stroke-miterlimit:10;" x1="-4.5" x2="-4.5" y1="160" y2="-32"/>
              <line style="fill:none;stroke:#000000;stroke-miterlimit:10;" x1="-0.5" x2="-0.5" y1="160" y2="-32"/>
              <line style="fill:none;stroke:#000000;stroke-miterlimit:10;" x1="3.5" x2="3.5" y1="160" y2="-32"/>
              <line style="fill:none;stroke:#000000;stroke-miterlimit:10;" x1="7.5" x2="7.5" y1="160" y2="-32"/>
              <line style="fill:none;stroke:#000000;stroke-miterlimit:10;" x1="11.5" x2="11.5" y1="160" y2="-32"/>
              <line style="fill:none;stroke:#000000;stroke-miterlimit:10;" x1="15.5" x2="15.5" y1="160" y2="-32"/>
              <line style="fill:none;stroke:#000000;stroke-miterlimit:10;" x1="19.5" x2="19.5" y1="160" y2="-32"/>
              <line style="fill:none;stroke:#000000;stroke-miterlimit:10;" x1="23.5" x2="23.5" y1="160" y2="-32"/>
              <line style="fill:none;stroke:#000000;stroke-miterlimit:10;" x1="27.5" x2="27.5" y1="160" y2="-32"/>
              <line style="fill:none;stroke:#000000;stroke-miterlimit:10;" x1="31.5" x2="31.5" y1="160" y2="-32"/>
              <line style="fill:none;stroke:#000000;stroke-miterlimit:10;" x1="35.5" x2="35.5" y1="160" y2="-32"/>
              <line style="fill:none;stroke:#000000;stroke-miterlimit:10;" x1="39.5" x2="39.5" y1="160" y2="-32"/>
              <line style="fill:none;stroke:#000000;stroke-miterlimit:10;" x1="43.5" x2="43.5" y1="160" y2="-32"/>
              <line style="fill:none;stroke:#000000;stroke-miterlimit:10;" x1="47.5" x2="47.5" y1="160" y2="-32"/>
              <line style="fill:none;stroke:#000000;stroke-miterlimit:10;" x1="51.5" x2="51.5" y1="160" y2="-32"/>
              <line style="fill:none;stroke:#000000;stroke-miterlimit:10;" x1="55.5" x2="55.5" y1="160" y2="-32"/>
              <line style="fill:none;stroke:#000000;stroke-miterlimit:10;" x1="59.5" x2="59.5" y1="160" y2="-32"/>
              <line style="fill:none;stroke:#000000;stroke-miterlimit:10;" x1="63.5" x2="63.5" y1="160" y2="-32"/>
              <line style="fill:none;stroke:#000000;stroke-miterlimit:10;" x1="67.5" x2="67.5" y1="160" y2="-32"/>
              <line style="fill:none;stroke:#000000;stroke-miterlimit:10;" x1="71.5" x2="71.5" y1="160" y2="-32"/>
              <line style="fill:none;stroke:#000000;stroke-miterlimit:10;" x1="75.5" x2="75.5" y1="160" y2="-32"/>
              <line style="fill:none;stroke:#000000;stroke-miterlimit:10;" x1="79.5" x2="79.5" y1="160" y2="-32"/>
              <line style="fill:none;stroke:#000000;stroke-miterlimit:10;" x1="83.5" x2="83.5" y1="160" y2="-32"/>
              <line style="fill:none;stroke:#000000;stroke-miterlimit:10;" x1="87.5" x2="87.5" y1="160" y2="-32"/>
              <line style="fill:none;stroke:#000000;stroke-miterlimit:10;" x1="91.5" x2="91.5" y1="160" y2="-32"/>
              <line style="fill:none;stroke:#000000;stroke-miterlimit:10;" x1="95.5" x2="95.5" y1="160" y2="-32"/>
              <line style="fill:none;stroke:#000000;stroke-miterlimit:10;" x1="99.5" x2="99.5" y1="160" y2="-32"/>
              <line style="fill:none;stroke:#000000;stroke-miterlimit:10;" x1="103.5" x2="103.5" y1="160" y2="-32"/>
              <line style="fill:none;stroke:#000000;stroke-miterlimit:10;" x1="107.5" x2="107.5" y1="160" y2="-32"/>
              <line style="fill:none;stroke:#000000;stroke-miterlimit:10;" x1="111.5" x2="111.5" y1="160" y2="-32"/>
              <line style="fill:none;stroke:#000000;stroke-miterlimit:10;" x1="115.5" x2="115.5" y1="160" y2="-32"/>
              <line style="fill:none;stroke:#000000;stroke-miterlimit:10;" x1="119.5" x2="119.5" y1="160" y2="-32"/>
              <line style="fill:none;stroke:#000000;stroke-miterlimit:10;" x1="123.5" x2="123.5" y1="160" y2="-32"/>
              <line style="fill:none;stroke:#000000;stroke-miterlimit:10;" x1="127.5" x2="127.5" y1="160" y2="-32"/>
              <line style="fill:none;stroke:#000000;stroke-miterlimit:10;" x1="131.5" x2="131.5" y1="160" y2="-32"/>
              <line style="fill:none;stroke:#000000;stroke-miterlimit:10;" x1="135.5" x2="135.5" y1="160" y2="-32"/>
              <line style="fill:none;stroke:#000000;stroke-miterlimit:10;" x1="136.5" x2="136.5" y1="166" y2="-26"/>
              <line style="fill:none;stroke:#000000;stroke-miterlimit:10;" x1="143.5" x2="143.5" y1="160" y2="-32"/>
              <line style="fill:none;stroke:#000000;stroke-miterlimit:10;" x1="147.5" x2="147.5" y1="160" y2="-32"/>
              <line style="fill:none;stroke:#000000;stroke-miterlimit:10;" x1="151.5" x2="151.5" y1="160" y2="-32"/>
              <line style="fill:none;stroke:#000000;stroke-miterlimit:10;" x1="155.5" x2="155.5" y1="160" y2="-32"/>
            </g>
            <g>
              <line style="fill:none;stroke:#000000;stroke-miterlimit:10;" x1="-32" x2="160" y1="-27.5" y2="-27.5"/>
              <line style="fill:none;stroke:#000000;stroke-miterlimit:10;" x1="-32" x2="160" y1="-23.5" y2="-23.5"/>
              <line style="fill:none;stroke:#000000;stroke-miterlimit:10;" x1="-32" x2="160" y1="-19.5" y2="-19.5"/>
              <line style="fill:none;stroke:#000000;stroke-miterlimit:10;" x1="-32" x2="160" y1="-15.5" y2="-15.5"/>
              <line style="fill:none;stroke:#000000;stroke-miterlimit:10;" x1="-32" x2="160" y1="-11.5" y2="-11.5"/>
              <line style="fill:none;stroke:#000000;stroke-miterlimit:10;" x1="-32" x2="160" y1="-7.5" y2="-7.5"/>
              <line style="fill:none;stroke:#000000;stroke-miterlimit:10;" x1="-32" x2="160" y1="-3.5" y2="-3.5"/>
              <line style="fill:none;stroke:#000000;stroke-miterlimit:10;" x1="-32" x2="160" y1="0.5" y2="0.5"/>
              <line style="fill:none;stroke:#000000;stroke-miterlimit:10;" x1="-32" x2="160" y1="4.5" y2="4.5"/>
              <line style="fill:none;stroke:#000000;stroke-miterlimit:10;" x1="-32" x2="160" y1="8.5" y2="8.5"/>
              <line style="fill:none;stroke:#000000;stroke-miterlimit:10;" x1="-32" x2="160" y1="12.5" y2="12.5"/>
              <line style="fill:none;stroke:#000000;stroke-miterlimit:10;" x1="-32" x2="160" y1="16.5" y2="16.5"/>
              <line style="fill:none;stroke:#000000;stroke-miterlimit:10;" x1="-32" x2="160" y1="20.5" y2="20.5"/>
              <line style="fill:none;stroke:#000000;stroke-miterlimit:10;" x1="-32" x2="160" y1="24.5" y2="24.5"/>
              <line style="fill:none;stroke:#000000;stroke-miterlimit:10;" x1="-32" x2="160" y1="28.5" y2="28.5"/>
              <line style="fill:none;stroke:#000000;stroke-miterlimit:10;" x1="-32" x2="160" y1="32.5" y2="32.5"/>
              <line style="fill:none;stroke:#000000;stroke-miterlimit:10;" x1="-32" x2="160" y1="36.5" y2="36.5"/>
              <line style="fill:none;stroke:#000000;stroke-miterlimit:10;" x1="-32" x2="160" y1="40.5" y2="40.5"/>
              <line style="fill:none;stroke:#000000;stroke-miterlimit:10;" x1="-32" x2="160" y1="44.5" y2="44.5"/>
              <line style="fill:none;stroke:#000000;stroke-miterlimit:10;" x1="-32" x2="160" y1="48.5" y2="48.5"/>
              <line style="fill:none;stroke:#000000;stroke-miterlimit:10;" x1="-32" x2="160" y1="52.5" y2="52.5"/>
              <line style="fill:none;stroke:#000000;stroke-miterlimit:10;" x1="-32" x2="160" y1="56.5" y2="56.5"/>
              <line style="fill:none;stroke:#000000;stroke-miterlimit:10;" x1="-32" x2="160" y1="60.5" y2="60.5"/>
              <line style="fill:none;stroke:#000000;stroke-miterlimit:10;" x1="-32" x2="160" y1="64.5" y2="64.5"/>
              <line style="fill:none;stroke:#000000;stroke-miterlimit:10;" x1="-32" x2="160" y1="68.5" y2="68.5"/>
              <line style="fill:none;stroke:#000000;stroke-miterlimit:10;" x1="-32" x2="160" y1="72.5" y2="72.5"/>
              <line style="fill:none;stroke:#000000;stroke-miterlimit:10;" x1="-32" x2="160" y1="76.5" y2="76.5"/>
              <line style="fill:none;stroke:#000000;stroke-miterlimit:10;" x1="-32" x2="160" y1="80.5" y2="80.5"/>
              <line style="fill:none;stroke:#000000;stroke-miterlimit:10;" x1="-32" x2="160" y1="84.5" y2="84.5"/>
              <line style="fill:none;stroke:#000000;stroke-miterlimit:10;" x1="-32" x2="160" y1="88.5" y2="88.5"/>
              <line style="fill:none;stroke:#000000;stroke-miterlimit:10;" x1="-32" x2="160" y1="92.5" y2="92.5"/>
              <line style="fill:none;stroke:#000000;stroke-miterlimit:10;" x1="-32" x2="160" y1="96.5" y2="96.5"/>
              <line style="fill:none;stroke:#000000;stroke-miterlimit:10;" x1="-32" x2="160" y1="100.5" y2="100.5"/>
              <line style="fill:none;stroke:#000000;stroke-miterlimit:10;" x1="-32" x2="160" y1="104.5" y2="104.5"/>
              <line style="fill:none;stroke:#000000;stroke-miterlimit:10;" x1="-32" x2="160" y1="108.5" y2="108.5"/>
              <line style="fill:none;stroke:#000000;stroke-miterlimit:10;" x1="-32" x2="160" y1="112.5" y2="112.5"/>
              <line style="fill:none;stroke:#000000;stroke-miterlimit:10;" x1="-32" x2="160" y1="116.5" y2="116.5"/>
              <line style="fill:none;stroke:#000000;stroke-miterlimit:10;" x1="-32" x2="160" y1="120.5" y2="120.5"/>
              <line style="fill:none;stroke:#000000;stroke-miterlimit:10;" x1="-32" x2="160" y1="124.5" y2="124.5"/>
              <line style="fill:none;stroke:#000000;stroke-miterlimit:10;" x1="-32" x2="160" y1="128.5" y2="128.5"/>
              <line style="fill:none;stroke:#000000;stroke-miterlimit:10;" x1="-32" x2="160" y1="132.5" y2="132.5"/>
              <line style="fill:none;stroke:#000000;stroke-miterlimit:10;" x1="-32" x2="160" y1="136.5" y2="136.5"/>
              <line style="fill:none;stroke:#000000;stroke-miterlimit:10;" x1="-32" x2="160" y1="140.5" y2="140.5"/>
              <line style="fill:none;stroke:#000000;stroke-miterlimit:10;" x1="-32" x2="160" y1="144.5" y2="144.5"/>
              <line style="fill:none;stroke:#000000;stroke-miterlimit:10;" x1="-32" x2="160" y1="148.5" y2="148.5"/>
              <line style="fill:none;stroke:#000000;stroke-miterlimit:10;" x1="-32" x2="160" y1="152.5" y2="152.5"/>
              <line style="fill:none;stroke:#000000;stroke-miterlimit:10;" x1="-32" x2="160" y1="156.5" y2="156.5"/>
            </g>
            <path d="M160-32v192H-32V-32H160 M160-32H-32v192h192V-32L160-32z"/>
          </g>
        </g>
        <g>
          <rect height="128" style="opacity:0.3;fill:#F44336;" width="4" x="0"/>
          <rect height="128" style="opacity:0.3;fill:#F44336;" width="4" x="124"/>
          <rect height="120" style="opacity:0.3;fill:#F44336;" transform="matrix(-1.836970e-16 1 -1 -1.836970e-16 66 -62)" width="4" x="62" y="-58"/>
          <rect height="120" style="opacity:0.3;fill:#F44336;" transform="matrix(-1.836970e-16 1 -1 -1.836970e-16 190 62)" width="4" x="62" y="66"/>
        </g>
      </g>
    </g>
  </g>
</svg>