<svg xmlns="http://www.w3.org/2000/svg" xmlns:xlink="http://www.w3.org/1999/xlink" viewBox="0 0 128 128"><path d="M120.76 92.92l-3.07 16.5-2.53-.47a5.535 5.535 0 0 1-4.43-6.46l2.06-11.05 7.97 1.48z" fill="#4568ad"/><path fill="#bf8f68" d="M89.42 87.75l-9.31 6.79-17.62-22.4 10.96-8z"/><path fill="#bf8f68" d="M112.79 91.44l-1.66 8.86-27.14-3.4 2.1-11.32z"/><ellipse transform="rotate(-36.128 84.774 91.15)" cx="84.77" cy="91.15" rx="5.75" ry="5.75" fill="#bf8f68"/><ellipse transform="rotate(-36.128 67.976 68.14)" cx="67.97" cy="68.14" rx="6.78" ry="6.78" fill="#bf8f68"/><path fill="#e0e0e0" d="M105.12 89.75l-1.78 9.57 7.79.98 1.66-8.86z"/><path d="M63.13 61.51c-3.6 2.63-4.39 7.68-1.76 11.27l9.09 11.81 12.43-9.07-8.48-12.25c-2.63-3.6-7.68-4.39-11.28-1.76z" fill="#e65100"/><g><path fill="#bf8f68" d="M31.73 61.64l2.95 5.76 12.36-5.77-3.4-6.65z"/><path fill="#bf8f68" d="M48.66 60.17l-6.4-3.85 9.7-17.1 7.26 4.37z"/><ellipse transform="rotate(-58.974 45.46 58.244)" cx="45.46" cy="58.24" rx="3.73" ry="3.73" fill="#bf8f68"/><path d="M25.14 68.78l-.1-.2A4.502 4.502 0 0 1 27 62.51l2.3-1.18a4.502 4.502 0 0 1 6.07 1.96l.1.2c1.14 2.22.26 4.94-1.96 6.07l-2.3 1.18a4.516 4.516 0 0 1-6.07-1.96z" fill="#bf8f68"/><ellipse transform="rotate(-58.974 55.59 41.406)" cx="55.59" cy="41.4" rx="4.23" ry="4.23" fill="#bf8f68"/><path d="M58.42 36.71c-2.42-1.46-5.56-.67-7.02 1.75l-4.66 8.21 8.35 5.02 5.07-7.96c1.46-2.43.68-5.57-1.74-7.02z" fill="#04a287"/></g><g><path d="M57.85 128l-16.78-.04.01-2.57a5.546 5.546 0 0 1 5.55-5.53l11.24.02-.02 8.12z" fill="#4568ad"/><path fill="#bf8f68" d="M57.89 95.48l-9.72-6.18 14.42-24.59 11.45 7.28z"/><path fill="#bf8f68" d="M57.87 119.89l-9.01-.02-1.57-27.32 11.51.02z"/><ellipse transform="rotate(-57.554 53.029 92.385)" cx="53.03" cy="92.39" rx="5.75" ry="5.75" fill="#bf8f68"/><ellipse transform="rotate(-57.554 68.312 68.346)" cx="68.31" cy="68.35" rx="6.78" ry="6.78" fill="#bf8f68"/><path fill="#e0e0e0" d="M58.14 112.04l-9.73-.02.45 7.85 9.01.02z"/><path d="M72.72 61.42a8.072 8.072 0 0 0-11.14 2.48L53.9 76.67l12.98 8.25 8.31-12.36c2.4-3.76 1.29-8.74-2.47-11.14z" fill="#ff6f00"/></g><g><path d="M58.83 25.25l1.58 8.48c.28 1.49-.7 2.92-2.19 3.19l-2.25.42c-1.28.24-2.56-.46-3.05-1.68l-5.78-14.45 11.69 4.04z" fill="#bf8f68"/><path d="M57.91 14.92l1.74 17.39-11.34 1.22c-5.27.57-9.95-3.39-10.26-8.68l-.38-6.41c-.35-5.93 4.5-10.86 10.43-10.63l2.36.09c3.89.17 7.06 3.16 7.45 7.02z" fill="#bf8f68"/><path d="M59.49 26.68l-5.39-.41-.65-3.69a3.42 3.42 0 0 0-2.3-2.66l-.85 4.23c-1.25-.1-2.37-.84-2.94-1.96l-1.14-2.23a3.333 3.333 0 0 0-2.49-1.79l-6.05-.9s-.77-8.22 7.24-10.02c1.38-.32 2.75-.55 4.08-.71 6.16-.75 11.54 4.13 11.42 10.33-.07 3.29-.38 6.57-.93 9.81zM42.27 22.03c.06.77-.41 1.44-1.05 1.49-.64.05-1.21-.53-1.27-1.31-.06-.77.41-1.44 1.05-1.49.64-.05 1.21.54 1.27 1.31" fill="#704324"/></g><path d="M57.49 33.29c-.7.19-1.38.38-2.09.58-4.14.51-6.19 4.65-4.85 8.69 2.63 8.5 4.37 17.06 5.23 25.52a2.063 2.063 0 0 0 2.61 1.79c5.88-1.64 11.74-3.28 17.55-4.92-1.86-9.01-4.72-18.11-8.58-27.12-1.51-4.02-6.26-6.24-9.87-4.54z" fill="#00bea4"/><g><path fill="#bf8f68" d="M86.32 57.39l4.71-4.43-8.98-10.28-5.44 5.12z"/><path fill="#bf8f68" d="M80.2 41.53l-1.92 7.22-19.12-4.56L61.33 36z"/><ellipse transform="rotate(-75.108 79.233 45.145)" cx="79.24" cy="45.14" rx="3.73" ry="3.73" fill="#bf8f68"/><path d="M95 61.73l-.16.15a4.516 4.516 0 0 1-6.38-.19l-1.77-1.88a4.516 4.516 0 0 1 .19-6.38l.16-.15a4.516 4.516 0 0 1 6.38.19l1.77 1.88c1.71 1.82 1.63 4.68-.19 6.38z" fill="#bf8f68"/><ellipse transform="rotate(-75.108 60.244 40.093)" cx="60.25" cy="40.09" rx="4.23" ry="4.23" fill="#bf8f68"/><path d="M54.95 38.68c-.73 2.73.9 5.53 3.63 6.25l9.18 2.19 2.51-9.42-9.06-2.66c-2.74-.71-5.54.91-6.26 3.64z" fill="#04a287"/></g><g><defs><ellipse id="a" cx="24.54" cy="92.01" rx="13.12" ry="12.75"/></defs><use xlink:href="#a" overflow="visible" fill="#ed6c30"/><clipPath id="b"><use xlink:href="#a" overflow="visible"/></clipPath><g clip-path="url(#b)" fill="#f79329"><path d="M21.81 105.46s-7.66-8.21-4.65-20.09c1.25-4.93 5.28-6.38 5.28-6.38h2.78s-5.51 1.05-6.66 7.18c-2.1 11.22 7.37 19.6 7.37 19.6l-4.12-.31z"/><path d="M15.89 81.78s-.28 2.18 2.63 2.18c6.11 0 9.52-3.97 14.41-2.72l-2.55-1.27s-1.47-.28-2.74.13c-1.28.41-5.78 2.74-8.61 2.78-3.01.05-1.8-2.05-1.8-2.05l-1.34.95zM10.97 95.96s1.13-6.79 6.31-7.34c4.37-.47 7.46 1.59 10.42 3.73 5.35 3.87 7.86 8.78 7.86 8.78l-1.83 2.74s-1.41-4.41-7.59-10.17c-2.33-2.17-5.54-3.87-8.86-3.55-5.22.51-4.53 9.34-4.53 9.34l-1.78-3.53z"/><path d="M10.51 88.25s1.97-2.59 7.33-3.05c12.51-1.08 21.13 7.81 21.13 7.81l.67 4.23s-9.83-11.61-21.9-10.68c-5.83.45-7.24 4.02-7.24 4.02v-2.33z"/></g><g><ellipse cx="24.54" cy="92.01" rx="13.12" ry="12.75" fill="none"/></g></g></svg>