<?xml version="1.0" encoding="utf-8"?>
<!-- Generator: Adobe Illustrator 24.0.3, SVG Export Plug-In . SVG Version: 6.00 Build 0)  -->
<svg version="1.1" id="Layer_1" xmlns="http://www.w3.org/2000/svg" xmlns:xlink="http://www.w3.org/1999/xlink" x="0px" y="0px"
	 viewBox="0 0 128 128" style="enable-background:new 0 0 128 128;" xml:space="preserve">
<g id="hair_x5F_red_1_">
	<g>
		<radialGradient id="SVGID_1_" cx="82.463" cy="61.4488" r="27.0658" gradientUnits="userSpaceOnUse">
			<stop  offset="4.286859e-03" style="stop-color:#F98B25"/>
			<stop  offset="1" style="stop-color:#E63D00"/>
		</radialGradient>
		<path style="fill:url(#SVGID_1_);" d="M97.7,80.69c-1.6-3.1,0.25-5.95,3.32-9.12c3.46-3.57,9.21-15.82,3.1-26.74
			c-1.15-0.17-17.81,0.08-22.03,0.08c-3.16,0-11.14,0-17.99,0c-4.24,0-8.05,0-10,0c-2.88,0-5.7,0-7.99,0
			c-4.22,0-20.88-0.25-22.03-0.08c-6.1,10.92-1.23,22.17,3.1,26.74c2.65,2.79,4.29,5.41,2.7,8.77c-0.99,2.07-1.97,3.06-3.1,3.28
			c0.3,0.47,0.7,0.86,1.17,1.14c1.61,0.96,3.65,1.18,4.97,1.22c0.8,0.02,1.38,0.55,1.91,1.13c5.61,6.23,9.52,7.51,29.28,7.51
			s23.67-1.29,29.28-7.51c0.53-0.58,1.11-1.11,1.91-1.13c1.32-0.03,3.36-0.25,4.97-1.22c0.47-0.28,0.87-0.67,1.17-1.14
			C100.29,83.39,98.74,82.73,97.7,80.69z"/>
	</g>
	<path style="fill:#C23B00;" d="M99.03,80L99.03,80c-1.04-2.01-0.2-4.02,3.07-7.39c4.05-4.18,9.28-14.94,3.97-25.89
		c0,0,0-0.02,0.01-0.05h-3.2l0.26,0.5c5.42,10.4-0.55,20.63-3.19,23.36c-2.96,3.05-5.7,6.73-3.58,10.85v0
		c0.55,1.07,1.27,1.93,2.13,2.56c-1.18,0.42-2.47,0.52-3.24,0.54c-1.56,0.04-2.56,1.15-2.99,1.63c-3.4,3.77-5.97,5.63-13.09,6.45
		c0,0-3.4,1.33-5.93,2.01V94.4H54.72v0.52c-2.2-0.69-5.69-2.37-5.69-2.37c-7.12-0.82-9.69-2.68-13.09-6.45
		c-0.43-0.48-1.43-1.59-2.99-1.63c-0.76-0.02-2.86,0.73-4.86-0.81c0,0,7.46-4.33-0.04-12.33c-3.82-4.07-7.8-14.35-3.58-23.92
		l0.29-0.65l-0.05-0.09h-3.32c0.02,0.06,0.04,0.11,0.07,0.17c-4.35,10.69-0.38,20.95,3.93,25.49c2.71,2.86,3.42,4.92,2.33,7.46
		c-1.27,2.97-3.37,2.78-3.37,2.78s1,2.34,2.83,3.48c1.85,1.14,4.13,1.39,5.7,1.43c0.18,0,0.44,0.2,0.83,0.64
		c5.02,5.56,8.99,7.38,21.01,7.86l18.53,0.02v-0.01c12.21-0.46,16.2-2.27,21.25-7.87c0.39-0.44,0.65-0.63,0.83-0.64
		c1.58-0.04,3.87-0.27,5.7-1.43c2.06-1.3,2.83-3.48,2.83-3.48l-2.14-0.43C100.53,81.91,99.65,81.21,99.03,80z"/>
</g>
<g id="shirt_1_">
	<linearGradient id="SVGID_2_" gradientUnits="userSpaceOnUse" x1="64" y1="96.1797" x2="64" y2="124">
		<stop  offset="0" style="stop-color:#F78C1F"/>
		<stop  offset="0.4945" style="stop-color:#F37F21"/>
		<stop  offset="1" style="stop-color:#ED6D23"/>
	</linearGradient>
	<path style="fill:url(#SVGID_2_);" d="M113.63,119.96c0-15.61-24.9-23.78-49.5-23.78H64c-13.44,0.01-25.71,2.1-34.54,5.86
		c-10.02,4.27-15.1,10.3-15.1,17.92V124h99.27V119.96z"/>
	<g>
		<path style="fill:#DA6727;" d="M15.87,119.96c0-15.35,24.18-22.25,48.14-22.28l0.12,0c12.78,0,25.13,2.22,33.89,6.1
			c6.44,2.85,14.12,7.97,14.12,16.18V124h3v-4.04c0-16.76-25.4-25.28-51-25.28c-0.04,0-0.09,0-0.13,0
			c-25.49,0.03-51.13,7.5-51.13,25.28V124h3V119.96z"/>
	</g>
</g>
<g id="neck_1_">
	<path style="fill:#EDC391;" d="M63.17,107.23c-4,0-7.26-3.22-7.26-7.17v-8.98h16.16v8.98c0,3.96-3.25,7.17-7.26,7.17H63.17z"/>
	<g>
		<path style="fill:#D9AC77;" d="M71.08,92.08v7.98c0,3.4-2.81,6.17-6.26,6.17h-1.65c-3.45,0-6.26-2.77-6.26-6.17v-7.98H71.08
			 M73.08,90.08H54.92v9.98c0,4.51,3.7,8.17,8.26,8.17h1.65c4.56,0,8.26-3.66,8.26-8.17V90.08L73.08,90.08z"/>
	</g>
</g>
<g id="ears_1_">
	<path style="fill:#EDC391;" d="M36.67,72.26c-5.36,0-9.71-4.67-9.71-10.41s4.36-10.41,9.71-10.41h54.65
		c5.36,0,9.71,4.67,9.71,10.41s-4.36,10.41-9.71,10.41H36.67z"/>
	<g>
		<path style="fill:#D9AC77;" d="M91.33,52.43c4.8,0,8.71,4.22,8.71,9.41s-3.91,9.41-8.71,9.41H36.67c-4.8,0-8.71-4.22-8.71-9.41
			s3.91-9.41,8.71-9.41H91.33 M91.33,50.43H36.67c-5.89,0-10.71,5.14-10.71,11.41c0,6.28,4.82,11.41,10.71,11.41h54.65
			c5.89,0,10.71-5.14,10.71-11.41C102.04,55.57,97.22,50.43,91.33,50.43L91.33,50.43z"/>
	</g>
</g>
<g id="head">
	<linearGradient id="SVGID_3_" gradientUnits="userSpaceOnUse" x1="64.0002" y1="94.5914" x2="64.0002" y2="12.8253">
		<stop  offset="0" style="stop-color:#FFD29C"/>
		<stop  offset="0.5" style="stop-color:#F9DDBD"/>
	</linearGradient>
	<path style="fill:url(#SVGID_3_);" d="M64,95.27c-15.66,0-32.52-12.14-32.52-38.81c0-12.38,3.56-23.79,10.02-32.13
		c6.05-7.8,14.25-12.27,22.5-12.27s16.45,4.47,22.5,12.27c6.46,8.34,10.02,19.75,10.02,32.13c0,12.09-3.51,22.19-10.14,29.21
		C80.52,91.86,72.57,95.27,64,95.27z"/>
	<g>
		<path style="fill:#EDBD82;" d="M64,13.07L64,13.07c7.94,0,15.85,4.33,21.71,11.88c6.33,8.16,9.81,19.35,9.81,31.52
			c0,11.83-3.41,21.7-9.87,28.52c-5.67,5.99-13.36,9.29-21.65,9.29c-8.29,0-15.98-3.3-21.65-9.29c-6.46-6.82-9.87-16.69-9.87-28.52
			c0-12.16,3.49-23.35,9.81-31.52C48.15,17.4,56.06,13.07,64,13.07 M64,11.07L64,11.07L64,11.07c-17.4,0-33.52,18.61-33.52,45.39
			c0,26.64,16.61,39.81,33.52,39.81S97.52,83.1,97.52,56.46C97.52,29.68,81.4,11.07,64,11.07L64,11.07z"/>
	</g>
</g>
<g id="eyes_1_">
	<ellipse style="fill:#312D2D;" cx="47.56" cy="58.81" rx="4.93" ry="5.1"/>
	<ellipse style="fill:#312D2D;" cx="80.44" cy="58.81" rx="4.93" ry="5.1"/>
</g>
<g id="eyebrows_1_">
	<path style="fill:#773F26;" d="M54.98,49.82c-0.93-1.23-3.07-3.01-7.23-3.01s-6.31,1.79-7.23,3.01c-0.41,0.54-0.31,1.17-0.02,1.55
		c0.26,0.35,1.04,0.68,1.9,0.39c0.86-0.29,2.54-1.16,5.35-1.18c2.81,0.02,4.49,0.89,5.35,1.18c0.86,0.29,1.64-0.03,1.9-0.39
		C55.29,50.99,55.39,50.36,54.98,49.82z"/>
	<path style="fill:#773F26;" d="M87.48,49.82c-0.93-1.23-3.07-3.01-7.23-3.01c-4.16,0-6.31,1.79-7.23,3.01
		c-0.41,0.54-0.31,1.17-0.02,1.55c0.26,0.35,1.04,0.68,1.9,0.39c0.86-0.29,2.54-1.16,5.35-1.18c2.81,0.02,4.49,0.89,5.35,1.18
		c0.86,0.29,1.64-0.03,1.9-0.39C87.79,50.99,87.89,50.36,87.48,49.82z"/>
</g>
<path id="nose_1_" style="fill:#DBA689;" d="M67.86,68.06c-0.11-0.04-0.21-0.07-0.32-0.08h-7.07c-0.11,0.01-0.22,0.04-0.32,0.08
	c-0.64,0.26-0.99,0.92-0.69,1.63c0.3,0.71,1.71,2.69,4.55,2.69c2.84,0,4.25-1.99,4.55-2.69C68.85,68.98,68.5,68.32,67.86,68.06z"/>
<path id="mouth_1_" style="fill:#444444;" d="M72.42,76.14c-3.19,1.89-13.63,1.89-16.81,0c-1.83-1.09-3.7,0.58-2.94,2.24
	c0.75,1.63,6.45,5.42,11.37,5.42s10.55-3.79,11.3-5.42C76.09,76.72,74.25,75.05,72.42,76.14z"/>
<g id="hair_x5F_red">
	<g>
		<radialGradient id="SVGID_4_" cx="65.5776" cy="22.9891" r="37.0365" gradientUnits="userSpaceOnUse">
			<stop  offset="4.286859e-03" style="stop-color:#F98B25"/>
			<stop  offset="1" style="stop-color:#E63D00"/>
		</radialGradient>
		<path style="fill:url(#SVGID_4_);" d="M52.25,10.65C39.98,15,40.27,6.38,40.27,6.38c-6.66,3.32-3.8,11.38-3.8,11.38
			s-6.75-0.5-9.64,5.34c-3.02,6.11-0.36,10.78-0.36,10.78S19.98,38,22.53,45.5c1.69,4.98,6.26,9.67,6.26,9.67
			c1.08,8.92,3.26,13.27,3.26,13.27s4.21-18.45,3.81-21.27c0,0,7.76-1.54,16.57-6.58c5.95-3.41,10.02-7.41,16.71-8.91
			c10.18-2.29,12.45,5.08,12.45,5.08s9.42-1.81,12.26,11.27c1.17,5.38,1.67,14.37,2.31,19.84c-0.06-0.48,3.5-6.4,4.12-12.4
			c0.23-2.23,3.61-7.67,4.63-11.72c2.21-8.8-0.69-15.74-2.06-17.81c-2.5-3.79-8.49-9-12.97-8.24c0.23-4.8-3.55-9.25-8.1-10.78
			C69.33,2.73,55.91,9.35,52.25,10.65z"/>
	</g>
	<g>
		<path style="fill:#C23B00;" d="M21.11,45.98c0.08,0.22,0.17,0.45,0.27,0.68l2.28,2.89l1.1-2.79l-0.32-0.63
			c-0.21-0.42-0.36-0.77-0.48-1.11c-2.13-6.26,3.11-9.73,3.33-9.88l1.18-0.76l-0.68-1.23c-0.09-0.17-2.21-4.12,0.4-9.38
			c2.33-4.71,9.91-3.57,9.91-3.57s-1.72-7,1.5-11c0.55,1.01,3.12,7.75,13.14,3.73c0.78-0.31,1.68-0.76,2.8-1.38
			c4.53-2.47,12.22-6.93,24.12-2.81c8.1,2.81,8.65,10.76,8.65,10.76s7.5-1.2,13.31,7.27c1.25,1.82,3.98,9.5,1.92,17.71
			c-0.11,0.45-0.26,0.94-0.46,1.5l-0.22,0.62l0.04,0.08l1.09,1.9l2.11-1.9c0.05-0.23,0.27-1.14,0.35-1.46
			c2.24-8.93-0.56-17.42-2.32-20.09c-2.44-3.7-7.91-8.64-12.82-8.97c-0.79-4.72-5.84-8.72-10.73-10.27
			C67.32,1.68,58.71,6.38,54.08,8.91c-0.96,0.53-1.82,0.93-2.36,1.18c-4.51,2.1-8.2,0.54-9.39-1.77c-1.37-2.67-0.69-4.38-0.69-4.38
			s-8.12,2.25-6.56,12.69c-2.93,0.12-7.56,1.69-9.6,5.8c-2.42,4.9-1.56,8.99-0.86,10.95C22.11,35.52,19.09,40.02,21.11,45.98z"/>
	</g>
</g>
</svg>
