<svg width="128" height="128" style="enable-background:new 0 0 128 128;" xmlns="http://www.w3.org/2000/svg" xmlns:xlink="http://www.w3.org/1999/xlink">
  <style type="text/css">
.st0{clip-path:url(#SVGID_2_);fill:#B0BEC5;}
.st1{clip-path:url(#SVGID_4_);fill:#B0BEC5;}
.st2{fill:#47352D;}
.st3{fill:#7A4C32;}
.st4{fill:#9B643C;}
.st5{fill:#352620;}
.st6{fill:#42312C;}
.st7{fill:url(#SVGID_5_);}
.st8{fill:#CCE8FF;}
  </style>
  <g id="图层_1">
    <g>
      <g>
        <g>
          <defs>
            <path id="SVGID_1_" d="M50.5,103.5c-2.8-4.7-6.4-12.8-8.4-15.6c-3.2-4.6-8.8-5.9-13.6-2.9c-8.6,5.4-14.6,7-20.6,7.5 c-1.9,0.2-4.1,0.3-5.2,1.9c-1,1.4-0.6,3.4,0.5,4.7c3,3.7,9.6,4.4,13.2,4.8c-1.1,0.6-3,1.8-2.4,3.4c1.2,3.3,10.2,4.2,14.5,4.4 c-0.6,0.3-2.7,2.1-2.1,3.3c1.5,2.6,9.9,3.5,14.1,2.8c0,0-2.5,2.3-1,3.8c2.9,2.6,10.8,2.8,14.9,1.6c4.1-1.3,5.2-3.2,5.6-5.3 C60.6,114.7,54.5,110.2,50.5,103.5z"/>
          </defs>
          <use style="overflow:visible;fill:#E0E0E0;" xlink:href="#SVGID_1_"/>
          <clipPath id="SVGID_2_">
            <use style="overflow:visible;" xlink:href="#SVGID_1_"/>
          </clipPath>
          <path class="st0" d="M16.3,103.8c6.4,0,14.7-2.5,15.7-2.8c-1.2,1-5.9,2.9-7.3,3.4c-3.2,1.1-7.4,1.6-10.8,1.3 C14.6,104.9,15.3,104.3,16.3,103.8z"/>
          <path class="st0" d="M28,111.5c2.3,0.1,4.9-0.4,7.2-1.2c1.8-0.7,3.8-1.4,5.6-2.2c-1.1,0.8-4.1,3-6.1,3.8 c-4.9,1.8-7.7,1.5-8.6,1.4C26.6,112.8,27.4,111.8,28,111.5z"/>
          <path class="st0" d="M40.2,117.7c3.7-0.6,5.9-1.3,8.8-2.3c-1,0.7-3,2.1-4.5,2.6c-1.3,0.4-3.4,1.1-5.5,1.3 C39.2,118.9,39.9,118.1,40.2,117.7z"/>
        </g>
        <g>
          <defs>
            <path id="SVGID_3_" d="M77.5,103.5c2.8-4.7,6.4-12.8,8.4-15.6c3.2-4.6,8.8-5.9,13.6-2.9c8.6,5.4,14.6,7,20.6,7.5 c1.9,0.2,4.1,0.3,5.2,1.9c1,1.4,0.6,3.4-0.5,4.7c-3,3.7-9.6,4.4-13.2,4.8c1.1,0.6,3,1.8,2.4,3.4c-1.2,3.3-10.2,4.2-14.5,4.4 c0.6,0.3,2.7,2.1,2.1,3.3c-1.5,2.6-9.9,3.5-14.1,2.8c0,0,2.5,2.3,1,3.8c-2.9,2.6-10.8,2.8-14.9,1.6c-4.1-1.3-5.2-3.2-5.6-5.3 C67.4,114.7,73.5,110.2,77.5,103.5z"/>
          </defs>
          <use style="overflow:visible;fill:#E0E0E0;" xlink:href="#SVGID_3_"/>
          <clipPath id="SVGID_4_">
            <use style="overflow:visible;" xlink:href="#SVGID_3_"/>
          </clipPath>
          <path class="st1" d="M111.7,103.8c-6.4,0-14.7-2.5-15.7-2.8c1.2,1,5.9,2.9,7.3,3.4c3.2,1.1,7.4,1.6,10.8,1.3 C113.4,104.9,112.7,104.3,111.7,103.8z"/>
          <path class="st1" d="M100,111.5c-2.3,0.1-4.9-0.4-7.2-1.2c-1.8-0.7-3.8-1.4-5.6-2.2c1.1,0.8,4.1,3,6.1,3.8 c4.9,1.8,7.7,1.5,8.6,1.4C101.4,112.8,100.6,111.8,100,111.5z"/>
          <path class="st1" d="M87.8,117.7c-3.7-0.6-5.9-1.3-8.8-2.3c1,0.7,3,2.1,4.5,2.6c1.3,0.4,3.4,1.1,5.5,1.3 C88.8,118.9,88.1,118.1,87.8,117.7z"/>
        </g>
      </g>
      <g>
        <ellipse id="XMLID_167_" class="st2" cx="64" cy="58.1" rx="49" ry="46.2"/>
        <g id="XMLID_164_">
          <path id="XMLID_166_" class="st3" d="M104.2,69.5c0,0,7.5,1.3,7.5,9.3c0,7.1-5.5,9.9-10.9,9.9V69.5H104.2z"/>
          <path id="XMLID_165_" class="st3" d="M23.8,69.5c0,0-7.5,1.3-7.5,9.3c0,7.1,5.5,9.9,10.9,9.9V69.5H23.8z"/>
        </g>
        <g id="XMLID_163_">
          <path class="st4" d="M92.4,45.3C85.6,36.9,73.9,33.2,64,33.2c-9.9,0-21.6,3.6-28.4,12.1c-6.6,8.3-10.1,19-10.1,33.3 c0.1,11.6,3,20.5,11.4,27.5c7.8,6.5,16.8,10,26.5,10c9.6,0,20.1-3.3,27.6-9.9c8.2-7.2,11.4-16,11.5-27.5 C102.6,64.3,99.1,53.6,92.4,45.3z"/>
        </g>
        <path id="XMLID_162_" class="st3" d="M69.6,87.4c-2,0.6-4,0.8-5.6,0.8c-1.6,0-3.6-0.3-5.6-0.8c-0.8-0.2-1.2,0.6-0.9,1.1 c0.6,1.1,3.2,3.3,6.5,3.3c3.3,0,5.9-2.2,6.5-3.3C70.8,87.9,70.5,87.1,69.6,87.4z"/>
        <path id="XMLID_161_" class="st5" d="M75.6,96.5c-1.6,0-11.6,0-11.6,0s-10,0-11.6,0c-1.3,0-1.9,0.9-1,2.2 c1.2,1.9,5.8,5.5,12.7,5.5c6.8,0,11.4-3.6,12.7-5.5C77.5,97.4,77,96.5,75.6,96.5z"/>
        <g id="XMLID_158_">
          <path id="XMLID_160_" class="st6" d="M48.6,79c0,3.4-2.3,6.2-5.1,6.2c-2.8,0-5.2-2.8-5.2-6.2c0-3.4,2.3-6.2,5.2-6.2 C46.3,72.8,48.6,75.6,48.6,79"/>
          <path id="XMLID_159_" class="st6" d="M89.7,79c0,3.4-2.3,6.2-5.1,6.2c-2.8,0-5.2-2.8-5.2-6.2c0-3.4,2.3-6.2,5.2-6.2 C87.4,72.8,89.7,75.6,89.7,79"/>
        </g>
        <path id="XMLID_156_" class="st2" d="M23.4,76.3c0,0,11.2-11.7,15.3-15.6c0.3-0.2,0.7,0,0.6,0.3c-0.2,1.6-0.3,3.4-0.4,4.5 c0,0.5,0.4,0.9,0.9,0.8c8-1.5,15.7-4.9,17.8-5.8c0.3-0.1,0.5,0.1,0.5,0.4c0,1.5,0,2.9,0,3.8c0,0.5,0.4,0.8,0.9,0.8 c7.4-1.1,13.5-4.2,15.5-5.2c0.5-0.3,1-0.3,1.5-0.1c3.8,1.4,8.4,4.1,10.1,5.1c0.4,0.2,0.8,0.1,1.1-0.3c0.6-1.2,1.5-2.9,1.9-3.8 c0.1-0.2,0.4-0.3,0.6-0.1c6,5.9,14.7,15.4,14.7,15.4l6.2-19.9c0,0-10-35.3-44.8-35.3S18,58.8,18,58.8L23.4,76.3z"/>
      </g>
    </g>
    <g>
      <g>
        <radialGradient id="SVGID_5_" cx="64" cy="16.9289" gradientTransform="matrix(1 0 0 0.3778 0 10.533)" gradientUnits="userSpaceOnUse" r="43.0432">
          <stop offset="0.3123" style="stop-color:#009EFF"/>
          <stop offset="0.534" style="stop-color:#029FFF"/>
          <stop offset="0.6326" style="stop-color:#09A2FF"/>
          <stop offset="0.7068" style="stop-color:#16A6FF"/>
          <stop offset="0.7688" style="stop-color:#28ADFF"/>
          <stop offset="0.8232" style="stop-color:#3FB6FF"/>
          <stop offset="0.8722" style="stop-color:#5CC1FF"/>
          <stop offset="0.9172" style="stop-color:#7FCEFF"/>
          <stop offset="0.9586" style="stop-color:#A6DDFF"/>
          <stop offset="0.9966" style="stop-color:#D2EDFF"/>
          <stop offset="1" style="stop-color:#D6EFFF"/>
        </radialGradient>
        <path class="st7" d="M64,1C40,1,20.5,8.1,20.5,16.9c0,8.8,19.5,15.9,43.5,15.9c24,0,43.5-7.1,43.5-15.9C107.5,8.1,88,1,64,1z M64,19.5c-13.6,0-24.7-3.7-24.7-8.3c0-4.6,11-8.3,24.7-8.3c13.6,0,24.6,3.7,24.6,8.3C88.6,15.7,77.6,19.5,64,19.5z"/>
      </g>
      <path class="st8" d="M64,1C45.7,1,30.8,6,30.8,12.2c0,6.2,14.9,11.2,33.2,11.2c18.3,0,33.2-5,33.2-11.2C97.2,6,82.3,1,64,1z M64,19.5c-13.6,0-24.7-3.7-24.7-8.3c0-4.6,11-8.3,24.7-8.3c13.6,0,24.6,3.7,24.6,8.3C88.6,15.7,77.6,19.5,64,19.5z"/>
    </g>
  </g>
</svg>