<svg xmlns="http://www.w3.org/2000/svg" viewBox="0 0 128 128"><ellipse cx="64" cy="64" rx="60.14" ry="60.13" fill="#fff"/><g fill="#2f2f2f"><path d="M88.68 63.26c-2.33-.33-4.4 1.53-6.22 2.7-3.93 2.51-7.4 5.42-10.75 8.7-2.07 2.03-4.87 4.73-5.61 7.65-.34 1.35.08 2.9.35 4.22.47 2.3 1.19 4.54 1.91 6.77a77.33 77.33 0 0 0 2.82 7.38c.53 1.21 1.11 2.41 1.68 3.61.53 1.12.88 1.78 2.18 1.95 1.46.19 2.92-.03 4.37-.09 2.14-.08 4.28-.29 6.39-.65 2.79-.47 5.6-.98 8.27-1.93 2.47-.89 5.3-2.27 6.73-4.54 3.07-4.88 4.93-10.42 5.95-16.07.3-1.63.59-3.29.58-4.96.01-1.47.14-2.98-.92-4.11-1.9-2.04-4.15-3.73-6.48-5.26-3.45-2.24-7.06-4.77-11.25-5.37zM20.83 39.68c-2.17 1.15-3.87 3.89-5.14 5.9-2.54 4-4.59 8.62-5.55 13.27-.73 3.56.86 7.03 2.05 10.32 1.16 3.17 3.18 5.68 5.39 8.17.56.64 1.27 1.12 1.83 1.75.64.71 1.45 1.38 2.29 1.85.6.34 1.14-.12 1.75-.26 1.61-.39 2.81-1.21 4.27-1.98 1.31-.7 2.66-1.29 3.98-1.99 2.83-1.52 6.2-2.77 8.67-4.86.32-.27.74-.61.83-1.04.23-1.07-.09-2.46-.14-3.55-.06-1.53-.08-3.05-.09-4.58-.01-3.46.12-6.92.12-10.38.03-1.93.27-3.85.18-5.78-.16-2.87-3.26-3.89-5.59-4.47-3.27-.81-6.56-1.92-9.9-2.33-1.38-.15-3.66-.72-4.95-.04zM105.72 31.05c.31-2.17-1.14-4.78-2.19-6.72-2.08-3.87-5.06-7.67-8.78-10.69-2.84-2.31-7.02-3.25-10.91-3.64-6.97-.71-12.29-.28-13.76-.05-1.48.23-2.87.68-3.66 1.66-1.56 1.9-1.83 4.62-2.16 6.96-.48 3.34-.9 6.78-.46 10.14.07.6.16 1.39.45 1.92.55.98 1.71 1.47 2.86 1.98 5.96 2.63 17.33 9.14 19.18 10.02 2.76 1.33 5.7-.44 7.74-1.87 2.83-1.99 5.98-3.86 8.48-6.11 1.03-.92 3.02-2.32 3.21-3.6zM20.11 105.44c.24.37.47.65.84.93.59.45 1.15.91 1.71 1.4 4.89 4.29 10.62 7.52 16.3 10.62 1.71.94 3.34 1.9 5.08 2.77 1.88.93 3.82 1.56 5.84 2.12 1.37.38 2.76.75 4.18.89 1.32.13 2.67.44 4 .46.76.01 1.46-.02 2.2-.12-.36-.58-.68-1.32-.99-1.94-.49-.97-.99-1.95-1.49-2.91-.58-1.11-1.03-2.27-1.62-3.37-.46-.84-1.06-1.71-1.89-2.2-1.11-.66-2.17-1.31-3.38-1.8-4.42-1.8-8.38-4.34-12.49-6.72-2.08-1.21-4.12-2.5-6.08-3.91-1.05-.75-2.07-1.53-3.18-2.2-.23-.15-.46-.33-.73-.37-.24-.04-.61-.03-.85 0-.22.03-.48.07-.69.11-1.44.3-3 .68-4.49 1.01-1.42.32-3.01.43-4.37.95-.53.2-.47.5-.26.96.32.72.79 1.38 1.28 1.98.33.43.74.83 1.08 1.34z"/><path d="M37.41 48.32a1.795 1.795 0 0 1-1.4-2.92c.49-.6 12.03-14.74 32.67-17.94a1.79 1.79 0 1 1 .54 3.54C50.01 33.99 38.91 47.52 38.8 47.65c-.36.44-.87.67-1.39.67zM33.15 111.1c-.52 0-1.04-.22-1.39-.66-.49-.6-11.86-14.88-10.63-35.72.06-.99.9-1.75 1.89-1.69.99.06 1.74.91 1.68 1.9-1.14 19.47 9.73 33.12 9.84 33.25.63.77.5 1.9-.26 2.52-.33.26-.73.4-1.13.4zM46.67 118.14c-.92 0-1.7-.7-1.78-1.64-.08-.99.65-1.86 1.64-1.94.17-.01 17.59-1.65 30.81-15.91a1.8 1.8 0 0 1 2.54-.09c.73.67.77 1.81.09 2.54-14.2 15.3-32.38 16.97-33.14 17.04-.06-.01-.11 0-.16 0zM21.76 46.17c-.84 0-1.59-.59-1.75-1.45-.1-.5-2.36-12.35 2.51-26.39.33-.94 1.34-1.44 2.28-1.11.93.33 1.43 1.34 1.11 2.28-4.56 13.14-2.41 24.41-2.38 24.53.19.97-.44 1.92-1.42 2.11-.11.02-.23.03-.35.03zM73.87 16.76c-.37 0-.75-.12-1.06-.36-.09-.06-9.42-6.83-23.19-8.34-.98-.1-1.7-.99-1.59-1.97.1-.99.99-1.69 1.97-1.59 14.78 1.61 24.52 8.71 24.93 9.01.79.59.96 1.71.37 2.51-.34.49-.88.74-1.43.74zM119.13 45.93c-.52 0-1.04-.23-1.4-.67-8.74-10.81-19.44-14.96-19.54-15a1.799 1.799 0 0 1-1.05-2.31c.35-.93 1.39-1.39 2.31-1.05.48.18 11.72 4.54 21.06 16.1.63.77.5 1.9-.27 2.52-.32.28-.72.41-1.11.41zM87.48 70.17c-.07 0-.16-.01-.23-.02a1.784 1.784 0 0 1-1.54-2.01c2.29-17.14.04-29.8.01-29.93-.18-.97.46-1.91 1.44-2.08.98-.19 1.91.47 2.09 1.44.09.54 2.38 13.35.01 31.05-.12.9-.89 1.55-1.78 1.55zM71.92 84.81c-.06 0-.1 0-.16-.01-22.28-1.97-36.94-14.54-37.56-15.07a1.8 1.8 0 0 1-.18-2.53c.65-.75 1.78-.83 2.53-.18.15.12 14.45 12.35 35.53 14.21a1.794 1.794 0 0 1-.16 3.58zM7.93 64.26c-1.51 0-3.16-.19-4.7-.78a1.799 1.799 0 0 1-1.05-2.31c.36-.92 1.38-1.39 2.32-1.05 3.3 1.26 7.71-.03 7.76-.04.94-.28 1.94.25 2.22 1.21.29.94-.25 1.94-1.19 2.23-.15.04-2.51.74-5.36.74zM105.67 79.56c-.68 0-1.32-.39-1.62-1.04-.42-.89-.02-1.96.87-2.38.1-.05 10.52-4.98 18.45-16.34.56-.82 1.68-1.02 2.49-.45.81.57 1.01 1.68.45 2.49-8.5 12.19-19.42 17.33-19.88 17.55-.26.11-.51.17-.76.17zM105.67 109.83c-.4 0-.8-.13-1.14-.39-4.1-3.23-8.07-9.1-8.24-9.34-.56-.84-.34-1.98.5-2.55.83-.56 1.98-.34 2.54.51.04.05 3.82 5.63 7.47 8.5.79.63.93 1.78.31 2.58-.37.44-.9.69-1.44.69z"/></g><path d="M64 127.72C28.86 127.72.28 99.14.28 64 .28 28.87 28.86.28 64 .28s63.72 28.59 63.72 63.71c0 35.15-28.59 63.73-63.72 63.73zM64 7.45C32.82 7.45 7.45 32.82 7.45 64c0 31.18 25.36 56.55 56.54 56.55S120.54 95.18 120.54 64C120.55 32.82 95.17 7.45 64 7.45z" fill="#2f2f2f"/></svg>