<?xml version="1.0" encoding="utf-8"?>
<!-- Generator: Adobe Illustrator 19.2.1, SVG Export Plug-In . SVG Version: 6.00 Build 0)  -->
<svg version="1.1" id="Layer_1" xmlns="http://www.w3.org/2000/svg" xmlns:xlink="http://www.w3.org/1999/xlink" x="0px" y="0px"
	 viewBox="0 0 128 128" style="enable-background:new 0 0 128 128;" xml:space="preserve">
<g>
	<path style="fill:#F9C035;" d="M105.02,48.58C106.9,22.52,87.03,5.87,62.81,4.12S22.46,20.4,22.86,46.51
		c0.29,19.04,14.44,19.53,17.77,36.18c1.14,5.72-11.8,41.05,5.33,41.3c46.37,0.68,36.75-25.59,44.4-39.07
		C96.78,73.64,103.91,63.88,105.02,48.58z"/>
	<path style="fill:#E28C25;" d="M65.24,13.98C53.82,13.15,43.3,20.5,37.13,30.93c-0.62,1.04,0.82,2.07,1.62,1.15
		c6.81-7.86,16.56-12.69,25.87-12.01c16.63,1.2,27.94,10.09,26.65,27.98C90.51,58.55,85,65.62,80.61,73.36
		c-2.83,4.99-1.12,17.47-4.88,27.74c-0.42,1.14,1.19,1.87,1.81,0.82c5.5-9.34,5.1-21.56,8.37-27.33
		c4.81-8.46,10.16-15.78,10.99-27.26C98.31,27.79,83.41,15.29,65.24,13.98z"/>
	<path style="fill:#E28C25;" d="M39.71,58.64c-3.79,9.89,8.59,10.43,9.86,14.24c0.86,2.59,0.29,9.25-0.16,13.26
		c-0.11,1,1.14,1.53,1.78,0.76c3.5-4.23,9.78-13.25,7.69-21.46C56.03,54.24,43.5,48.74,39.71,58.64z"/>
	<path style="fill:#E28C25;" d="M53.29,40.82c8.2,3.52,17.85,10.3,17.84,22.65c0,1.23,1.75,1.38,1.97,0.17
		c1.7-9.36-0.69-20.51-19.18-24.7C52.75,38.67,52.18,40.34,53.29,40.82z"/>
</g>
</svg>
