<svg width="128" height="128" style="enable-background:new 0 0 128 128;" xmlns="http://www.w3.org/2000/svg" xmlns:xlink="http://www.w3.org/1999/xlink">
  <g id="Layer_1">
    <g>
      <path d="M87.8,111.19c-0.53,0-1.09-0.04-1.67-0.13c-8.96-1.29-17.81-20.49-18.37-22.23 c-0.2-0.63-0.79-1.05-1.43-1.05c-0.05,0-0.11,0-0.16,0.01c-0.71,0.08-1.27,0.63-1.33,1.34c-0.29,3.2-0.66,5.5-1,7.1 c-0.35-1.6-0.71-3.9-1-7.1c-0.07-0.72-0.63-1.28-1.34-1.36c-0.05-0.01-0.1-0.01-0.15-0.01c-0.66,0-1.25,0.43-1.44,1.07 c-0.55,1.73-9.4,20.93-18.37,22.22c-0.58,0.08-1.14,0.13-1.67,0.13c-4.08,0-6.23-2.48-8.73-5.34c-0.96-1.11-1.95-2.25-3.09-3.25 l-0.41-0.36c-1.47-1.29-2.36-2.07-3.44-3.39l-0.08-0.1c-1.19-1.46-2.66-3.27-3.68-6.18c-0.75-2.52-0.92-4.75-0.92-5.39l0-0.28 c-0.01-1.03-0.03-3.17,0.9-5.47l0.05-0.1c0.31-0.71,1.13-2.6,3.17-4.75c2.19-2.3,4.39-3.52,5.85-4.33 c1.34-0.75,2.73-1.52,2.29-3.02c-0.35-1.38-1.94-1.38-2.46-1.38c-0.25,0-0.53,0.01-0.85,0.02c-0.36,0.01-0.77,0.03-1.21,0.03 c-1.55,0-3.87-0.17-6.16-1.61c-1.02-0.63-1.66-1.23-1.82-1.41c-2.87-2.84-3.63-7.1-4.9-14.16l-0.15-0.81 c-0.05-0.23-0.09-0.43-0.14-0.66c-0.27-1.31-0.71-3.49-1.8-6.3c-0.18-0.57-0.6-1.62-1.05-2.65c-1.47-3.28-2.54-5-3.49-6.52 c-0.75-1.21-1.41-2.26-2.13-3.92c-1.79-5.47,2.84-7.58,2.89-7.59c0.04-0.02,0.09-0.03,0.13-0.05c0.64-0.31,1.44-0.46,2.39-0.46 c4.09,0,10.69,2.88,18.57,8.12c7.17,4.76,13.44,10.13,16.47,13.34c3.43,3.59,8.59,9.69,13.74,18.39c0.28,0.46,0.77,0.74,1.29,0.74 c0.13,0,0.26-0.02,0.4-0.05c0.65-0.18,1.1-0.77,1.1-1.45c0-0.86,0.11-1.62,0.23-2.43c0.08-0.52-0.12-1.05-0.52-1.39 c-0.68-0.57-1.1-1.58-1.1-2.64c0-1.2,0.41-2.17,1.15-2.72c0.1-0.08,0.2-0.17,0.28-0.27c0.03,0,0.06,0,0.08,0 c0.13,0,0.27-0.02,0.4-0.06c0.29-0.08,0.51-0.14,0.71-0.18c0.2,0.04,0.42,0.1,0.71,0.18c0.13,0.04,0.27,0.06,0.4,0.06 c0.03,0,0.06,0,0.09,0c0.08,0.1,0.17,0.19,0.28,0.27c0.74,0.55,1.15,1.52,1.15,2.72c0,1.06-0.42,2.07-1.1,2.64 c-0.4,0.34-0.6,0.86-0.52,1.37c0.12,0.81,0.23,1.57,0.23,2.44c0,0.68,0.45,1.27,1.1,1.45c0.13,0.04,0.26,0.05,0.4,0.05 c0.52,0,1.02-0.27,1.29-0.74c5.15-8.7,10.31-14.79,13.73-18.38c3.04-3.22,9.31-8.59,16.48-13.35c7.88-5.23,14.48-8.12,18.57-8.12 c0.95,0,1.75,0.16,2.39,0.46c0.04,0.02,0.08,0.04,0.13,0.05c0.05,0.02,4.68,2.12,2.89,7.59c-0.72,1.66-1.38,2.7-2.13,3.92 c-0.95,1.52-2.02,3.24-3.49,6.53c-0.46,1.02-0.88,2.07-1.05,2.65c-1.09,2.81-1.54,4.99-1.8,6.3c-0.05,0.23-0.09,0.43-0.13,0.6 l-0.16,0.88c-1.26,7.06-2.02,11.32-4.83,14.09c-0.22,0.24-0.87,0.85-1.87,1.48c-2.3,1.45-4.62,1.62-6.17,1.62 c-0.44,0-0.85-0.01-1.21-0.03c-0.32-0.01-0.6-0.02-0.85-0.02c-0.52,0-2.11,0-2.47,1.44c-0.43,1.45,0.96,2.22,2.3,2.96 c1.45,0.81,3.65,2.03,5.85,4.33c2.03,2.15,2.85,4.04,3.16,4.75l0.07,0.16c0.91,2.25,0.89,4.39,0.88,5.41l0,0.28 c0,0.02-0.01,2.34-0.94,5.46c-1,2.84-2.47,4.65-3.66,6.11l-0.09,0.11c-1.07,1.32-1.96,2.09-3.43,3.38l-0.42,0.37 c-1.14,1.01-2.13,2.15-3.09,3.26C94.04,108.72,91.89,111.19,87.8,111.19z" style="fill:#754C24;"/>
      <path d="M116.66,23.22c0.72,0,1.3,0.11,1.74,0.32c0.08,0.04,0.16,0.07,0.25,0.11 c0.03,0.01,3.32,1.53,2.01,5.66c-0.67,1.51-1.26,2.46-2,3.65c-0.97,1.56-2.07,3.33-3.58,6.71c-0.47,1.06-0.89,2.12-1.1,2.76 c-1.12,2.9-1.58,5.15-1.86,6.49c-0.04,0.22-0.08,0.41-0.12,0.57c-0.01,0.04-0.02,0.08-0.03,0.13l-0.14,0.81 c-1.21,6.77-1.94,10.85-4.41,13.29c-0.04,0.04-0.08,0.08-0.12,0.13c-0.12,0.13-0.66,0.63-1.5,1.15c-1.94,1.22-3.89,1.38-5.36,1.38 c-0.42,0-0.81-0.01-1.16-0.03c-0.34-0.01-0.64-0.02-0.9-0.02c-2.78,0-3.64,1.54-3.91,2.5c-0.75,2.63,1.69,3.98,3.01,4.71 c1.38,0.76,3.45,1.92,5.49,4.05c1.86,1.97,2.6,3.68,2.88,4.32l0.05,0.1c0.8,2.01,0.78,3.86,0.77,4.86l0,0.3 c0,0.02-0.02,2.13-0.86,4.96c-0.93,2.62-2.25,4.24-3.41,5.66l-0.08,0.1c-1,1.22-1.8,1.93-3.26,3.21l-0.42,0.37 c-1.21,1.07-2.23,2.25-3.22,3.39c-2.6,2.99-4.36,4.83-7.59,4.83c-0.46,0-0.95-0.04-1.46-0.11c-7.48-1.08-15.97-17.83-17.16-21.21 c-0.4-1.26-1.56-2.1-2.86-2.1c-0.1,0-0.2,0-0.3,0.01c-0.92,0.09-1.71,0.59-2.2,1.32c-0.49-0.73-1.28-1.23-2.2-1.32 c-0.1-0.01-0.2-0.01-0.3-0.01c-1.3,0-2.46,0.84-2.86,2.1c-1.18,3.38-9.68,20.13-17.16,21.21c-0.51,0.07-1,0.11-1.46,0.11 c-3.23,0-4.99-1.83-7.59-4.83c-0.99-1.14-2.02-2.32-3.24-3.4l-0.41-0.36c-1.46-1.28-2.27-1.98-3.26-3.21l-0.08-0.1 c-1.16-1.43-2.48-3.04-3.41-5.66c-0.84-2.83-0.86-4.94-0.86-4.96l0-0.3c-0.01-1-0.03-2.85,0.77-4.86l0.05-0.1 c0.28-0.64,1.02-2.36,2.87-4.31c2.04-2.14,4.12-3.29,5.5-4.06c1.32-0.73,3.76-2.09,3.01-4.71c-0.27-0.96-1.13-2.5-3.91-2.5 c-0.26,0-0.57,0.01-0.9,0.02c-0.34,0.01-0.73,0.03-1.16,0.03c-1.48,0-3.42-0.16-5.38-1.39c-0.83-0.51-1.36-1.01-1.48-1.13 c-0.04-0.05-0.08-0.09-0.13-0.13c-2.47-2.44-3.2-6.53-4.41-13.29l-0.14-0.81c-0.01-0.04-0.02-0.08-0.03-0.13 c-0.04-0.16-0.08-0.35-0.12-0.57c-0.28-1.35-0.74-3.59-1.86-6.49c-0.21-0.65-0.63-1.71-1.1-2.76c-1.51-3.37-2.61-5.14-3.58-6.71 c-0.74-1.19-1.33-2.14-2-3.65c-1.31-4.13,1.98-5.65,2.01-5.66c0.09-0.03,0.17-0.07,0.25-0.11c0.43-0.21,1.02-0.32,1.74-0.32 c8.63,0,27.15,13.78,33.97,21c3.37,3.53,8.45,9.53,13.53,18.11c0.55,0.93,1.54,1.47,2.58,1.47c0.26,0,0.53-0.03,0.79-0.11 c0.89-0.24,1.6-0.88,1.96-1.69c0.36,0.81,1.06,1.44,1.96,1.69c0.26,0.07,0.53,0.11,0.79,0.11c1.04,0,2.03-0.54,2.58-1.47 c5.08-8.58,10.16-14.58,13.54-18.12C89.51,37,108.03,23.22,116.66,23.22 M63.83,52.67c0.09,0.02,0.19,0.05,0.31,0.08 c0.08,0.02,0.16,0.04,0.24,0.06c0.01,0.01,0.02,0.01,0.03,0.02c0.35,0.26,0.55,0.81,0.55,1.52c0,0.75-0.3,1.27-0.56,1.49 c-0.22,0.19-0.41,0.4-0.57,0.64c-0.16-0.24-0.35-0.45-0.57-0.64c-0.26-0.22-0.56-0.73-0.56-1.49c0-0.71,0.2-1.26,0.55-1.52 c0.01-0.01,0.02-0.01,0.03-0.02c0.08-0.02,0.17-0.04,0.25-0.06C63.64,52.72,63.74,52.69,63.83,52.67 M116.66,20.22 c-10.1,0-29.6,15-36.14,21.93c-4.02,4.21-9.04,10.38-13.94,18.65c0-0.98-0.13-1.82-0.25-2.66c1-0.84,1.63-2.24,1.63-3.79 c0-1.68-0.63-3.09-1.76-3.93c0.34-6.77,2.63-12.82,6.06-17.09c-0.34-0.25-0.68-0.51-1-0.79c-3.5,4.39-5.85,10.48-6.32,17.31 c-0.41-0.11-0.74-0.21-1.12-0.25c-0.37,0.04-0.71,0.13-1.12,0.25c-0.47-6.87-2.85-13-6.39-17.39c-0.3,0.31-0.6,0.61-0.91,0.91 c3.42,4.26,5.7,10.28,6.04,17.04c-1.13,0.84-1.76,2.24-1.76,3.93c0,1.54,0.63,2.94,1.63,3.79c-0.13,0.84-0.25,1.68-0.25,2.66 c-4.9-8.27-9.92-14.44-13.94-18.65c-6.54-6.93-26.04-21.93-36.14-21.93c-1.15,0-2.17,0.19-3.04,0.61 c-1.51,0.56-5.72,3.7-3.77,9.54C5.89,34.28,7.21,35,9.85,40.89c0.5,1.12,0.88,2.1,1,2.52c1.26,3.23,1.63,5.61,1.88,6.73 c1.38,7.71,2.13,12.48,5.4,15.71c0.25,0.28,1,0.98,2.13,1.68c2.54,1.6,5.07,1.84,6.96,1.84c0.83,0,1.54-0.05,2.06-0.05 c0.59,0,0.96,0.06,1.02,0.31c0.25,0.84-3.77,1.68-7.79,5.89c-2.39,2.52-3.27,4.77-3.52,5.33c-1.13,2.8-1,5.33-1,6.31 c0,0.56,0.13,2.95,1,5.89c1.13,3.23,2.76,5.19,4.02,6.73c1.26,1.54,2.26,2.38,4.02,3.93c3.91,3.47,6.27,8.98,12.81,8.98 c0.59,0,1.22-0.05,1.89-0.14c10.17-1.47,19.21-22.02,19.59-23.28c0.54,5.91,1.45,10.15,2.5,11.23c1.04-1.07,1.96-5.31,2.5-11.23 c0.38,1.26,9.42,21.81,19.59,23.28c0.67,0.1,1.29,0.14,1.89,0.14c6.54,0,8.89-5.5,12.81-8.98c1.76-1.54,2.76-2.38,4.02-3.93 c1.26-1.54,2.89-3.51,4.02-6.73c0.88-2.94,1-5.33,1-5.89c0-0.98,0.13-3.51-1-6.31c-0.25-0.56-1.13-2.8-3.52-5.33 c-4.02-4.21-8.04-5.05-7.79-5.89c0.06-0.25,0.43-0.31,1.02-0.31c0.53,0,1.23,0.05,2.06,0.05c1.89,0,4.43-0.24,6.96-1.84 c1.13-0.7,1.88-1.4,2.13-1.68c3.27-3.23,4.02-7.99,5.4-15.71c0.25-1.12,0.63-3.51,1.88-6.73c0.13-0.42,0.5-1.4,1-2.52 c2.64-5.89,3.96-6.61,5.65-10.52c1.95-5.84-2.26-8.98-3.77-9.54C118.83,20.42,117.8,20.22,116.66,20.22L116.66,20.22z" style="fill:#472A0E;"/>
    </g>
    <g>
      <path d="M60.02,61.81c0,0-5.15-4.64-8.63-8.41c-3.47-3.77-10.1-9.98-14.95-10.38 c-4.85-0.41-2.07,5.44,2.74,9.57s17.28,10.78,18.99,10.76C59.88,63.31,61.28,62.96,60.02,61.81z" style="fill:#FF9900;"/>
      <path d="M30.59,45.65c-0.39-0.85-1.08-1.48-1.79-2c-1.44-1.05-3.05-1.8-4.72-2.18 c-1.06-0.24-2.18-0.33-3.21,0.02c-1.04,0.35-1.99,1.21-2.32,2.4c-0.1,0.37-0.14,0.77-0.03,1.13c0.19,0.63,0.75,0.99,1.28,1.25 c1.52,0.72,3.17,1.02,4.8,1.31c1.65,0.29,3.32,0.73,4.99,0.89c0.85,0.08,0.92,0.22,1.21-0.74C31,47.06,30.87,46.26,30.59,45.65z" style="fill:#FF9900;"/>
      <path d="M25.33,52.01c0.95-0.62,2.14-0.49,3.22-0.28c2.66,0.52,5.26,1.42,7.71,2.69 c0.21,0.11,0.45,0.28,0.44,0.54c-0.01,0.2-0.19,0.34-0.35,0.43c-0.81,0.48-1.74,0.64-2.65,0.74c-2.76,0.31-5.57,0.13-8.28-0.51 c-0.71-0.17-1.73-0.42-1.63-1.42C23.87,53.39,24.74,52.39,25.33,52.01z" style="fill:#FF9900;"/>
      <path d="M26.29,60.91c0.6-0.66,1.51-0.76,2.35-0.81c2.54-0.15,5.09-0.12,7.63,0.1 c0.38,0.03,0.78,0.07,1.15-0.02c0.52-0.12,0.98-0.45,1.49-0.6c1.73-0.49,3.95,1.28,5.47,2.03c1.91,0.94,3.87,2.21,5.87,2.89 c1.12,0.38-0.06,1.02-0.82,1.11c-1.62,0.19-3.25,0.48-4.88,0.43c-3.19-0.1-6.27-1.35-9.47-1.33c-0.96,0.01-1.92,0.12-2.88,0.24 c-1.32,0.16-2.63,0.32-3.95,0.48c-1.08,0.13-2.06,0.28-2.41-1.03C25.56,63.31,25.5,61.77,26.29,60.91z" style="fill:#FF9900;"/>
      <path d="M33.34,71.45c7.57-1.37,15.36-1.15,22.86,0.65c0.49,0.12,1.01,0.26,1.36,0.66 c0.35,0.4,0.44,1.14,0.04,1.48c-0.25,0.21-0.59,0.21-0.9,0.2c-5.41-0.22-10.83,0.18-16.16,1.21c-2.6,0.5-6.72,1.89-9.19,0.32 c-0.86-0.54-1.49-1.64-1.07-2.73C30.76,71.96,32.26,71.65,33.34,71.45z" style="fill:#FF9900;"/>
      <path d="M23.15,85.81c0.25-0.51,0.69-0.87,1.13-1.2c1.56-1.17,3.27-2.08,5.07-2.71 c0.73-0.26,1.5-0.47,2.26-0.34c0.76,0.12,1.51,0.65,1.75,1.46c0.21,0.7,0,1.47-0.2,2.17c-0.4,1.35-0.82,2.7-1.47,3.92 s-1.58,2.29-2.75,2.85c-0.57,0.27-1.22,0.42-1.8,0.19c-1.04-0.41-1.86-1.85-2.76-2.57C23.35,88.76,22.45,87.23,23.15,85.81z" style="fill:#FF9900;"/>
      <path d="M36.43,89.9c0.64-0.5,1.38-0.94,2.16-0.91c0.12,0,0.24,0.02,0.33,0.11 c0.08,0.08,0.11,0.2,0.13,0.32c0.29,1.63-0.36,3.26-0.99,4.76c-0.73,1.74-1.47,3.47-2.36,5.12c-0.32,0.6-0.69,1.2-1.25,1.52 c-1.04,0.59-2.51-0.06-3.18-1.07c-0.64-0.98-0.36-2.02,0.09-3.02C32.5,94.15,34.32,91.56,36.43,89.9z" style="fill:#FF9900;"/>
      <path d="M45.47,93.42c3.16-3.04,6.82-5.37,10.08-8.27c1.29-1.15,2.64-2.45,4.29-2.58 c0.11,0.41-0.1,0.84-0.31,1.2c-3.56,6.29-7.23,12.51-11.02,18.63c-0.78,1.26-1.59,2.54-2.71,3.41c-0.87,0.67-1.9,1.06-2.92,1.37 c-1.18,0.36-3.12,0.66-3.78-0.87c-0.49-1.14,0.17-2.86,0.51-3.94C40.73,98.82,42.95,95.85,45.47,93.42z" style="fill:#FF9900;"/>
      <path d="M45.5,78.88c3.57-1.77,7.52-2.31,11.41-2.82c0.45-0.06,0.91-0.12,1.34,0.03 c0.43,0.15,0.82,0.56,0.83,1.06c0.01,0.43-0.25,0.8-0.51,1.12c-2.63,3.27-6.23,5.23-9.86,6.73c-1.75,0.72-3.95,1.95-5.83,2.03 c-1.65,0.06-2.64-1.52-2.2-3.26C41.26,81.39,43.61,79.82,45.5,78.88z" style="fill:#FF9900;"/>
      <path d="M17.1,33.47c-2.01-0.32-4.11-0.68-5.72-2.06c-0.45-0.38-0.87-0.93-0.82-1.55 c0.07-0.86,0.96-1.3,1.73-1.42c1.99-0.3,3.99,0.34,5.85,1.18c1.04,0.47,3.39,1.71,3.14,3.39C21.04,34.67,18.03,33.61,17.1,33.47z " style="fill:#FF9900;"/>
    </g>
    <g>
      <path d="M68.42,61.81c0,0,5.15-4.64,8.63-8.41c3.47-3.77,10.1-9.98,14.95-10.38 c4.85-0.41,2.07,5.44-2.74,9.57c-4.81,4.12-17.28,10.78-18.99,10.76C68.56,63.31,67.16,62.96,68.42,61.81z" style="fill:#FF9900;"/>
      <path d="M97.85,45.65c0.39-0.85,1.08-1.48,1.79-2c1.44-1.05,3.05-1.8,4.72-2.18 c1.06-0.24,2.18-0.33,3.21,0.02s1.99,1.21,2.32,2.4c0.1,0.37,0.14,0.77,0.03,1.13c-0.19,0.63-0.75,0.99-1.28,1.25 c-1.52,0.72-3.17,1.02-4.8,1.31c-1.65,0.29-3.32,0.73-4.99,0.89c-0.85,0.08-0.92,0.22-1.21-0.74 C97.45,47.06,97.57,46.26,97.85,45.65z" style="fill:#FF9900;"/>
      <path d="M103.11,52.01c-0.95-0.62-2.14-0.49-3.22-0.28c-2.66,0.52-5.26,1.42-7.71,2.69 c-0.21,0.11-0.45,0.28-0.44,0.54c0.01,0.2,0.19,0.34,0.35,0.43c0.81,0.48,1.74,0.64,2.65,0.74c2.76,0.31,5.57,0.13,8.28-0.51 c0.71-0.17,1.73-0.42,1.63-1.42C104.58,53.39,103.71,52.39,103.11,52.01z" style="fill:#FF9900;"/>
      <path d="M102.15,60.91c-0.6-0.66-1.51-0.76-2.35-0.81c-2.54-0.15-5.09-0.12-7.63,0.1 c-0.38,0.03-0.78,0.07-1.15-0.02c-0.52-0.12-0.98-0.45-1.49-0.6c-1.73-0.49-3.95,1.28-5.47,2.03c-1.91,0.94-3.87,2.21-5.87,2.89 c-1.12,0.38,0.06,1.02,0.82,1.11c1.62,0.19,3.25,0.48,4.88,0.43c3.19-0.1,6.27-1.35,9.47-1.33c0.96,0.01,1.92,0.12,2.88,0.24 c1.32,0.16,2.63,0.32,3.95,0.48c1.08,0.13,2.06,0.28,2.41-1.03C102.89,63.31,102.94,61.77,102.15,60.91z" style="fill:#FF9900;"/>
      <path d="M95.1,71.45c-7.57-1.37-15.36-1.15-22.86,0.65c-0.49,0.12-1.01,0.26-1.36,0.66 s-0.44,1.14-0.04,1.48c0.25,0.21,0.59,0.21,0.9,0.2c5.41-0.22,10.83,0.18,16.16,1.21c2.6,0.5,6.72,1.89,9.19,0.32 c0.86-0.54,1.49-1.64,1.07-2.73C97.69,71.96,96.18,71.65,95.1,71.45z" style="fill:#FF9900;"/>
      <path d="M105.29,85.81c-0.25-0.51-0.69-0.87-1.13-1.2c-1.56-1.17-3.27-2.08-5.07-2.71 c-0.73-0.26-1.5-0.47-2.26-0.34s-1.51,0.65-1.75,1.46c-0.21,0.7,0,1.47,0.2,2.17c0.4,1.35,0.82,2.7,1.47,3.92 s1.58,2.29,2.75,2.85c0.57,0.27,1.22,0.42,1.8,0.19c1.04-0.41,1.86-1.85,2.76-2.57C105.09,88.76,105.99,87.23,105.29,85.81z" style="fill:#FF9900;"/>
      <path d="M92.01,89.9c-0.64-0.5-1.38-0.94-2.16-0.91c-0.12,0-0.24,0.02-0.33,0.11 c-0.08,0.08-0.11,0.2-0.13,0.32c-0.29,1.63,0.36,3.26,0.99,4.76c0.73,1.74,1.47,3.47,2.36,5.12c0.32,0.6,0.69,1.2,1.25,1.52 c1.04,0.59,2.51-0.06,3.18-1.07c0.64-0.98,0.36-2.02-0.09-3.02C95.94,94.15,94.12,91.56,92.01,89.9z" style="fill:#FF9900;"/>
      <path d="M82.97,93.42c-3.16-3.04-6.82-5.37-10.08-8.27C71.6,84,70.24,82.7,68.6,82.57 c-0.11,0.41,0.1,0.84,0.31,1.2c3.56,6.29,7.23,12.51,11.02,18.63c0.78,1.26,1.59,2.54,2.71,3.41c0.87,0.67,1.9,1.06,2.92,1.37 c1.18,0.36,3.12,0.66,3.78-0.87c0.49-1.14-0.17-2.86-0.51-3.94C87.71,98.82,85.49,95.85,82.97,93.42z" style="fill:#FF9900;"/>
      <path d="M82.94,78.88c-3.57-1.77-7.52-2.31-11.41-2.82c-0.45-0.06-0.91-0.12-1.34,0.03 c-0.43,0.15-0.82,0.56-0.83,1.06c-0.01,0.43,0.25,0.8,0.51,1.12c2.63,3.27,6.23,5.23,9.86,6.73c1.75,0.72,3.95,1.95,5.83,2.03 c1.65,0.06,2.64-1.52,2.2-3.26C87.18,81.39,84.83,79.82,82.94,78.88z" style="fill:#FF9900;"/>
      <path d="M111.34,33.47c2.01-0.32,4.11-0.68,5.72-2.06c0.45-0.38,0.87-0.93,0.82-1.55 c-0.07-0.86-0.96-1.3-1.73-1.42c-1.99-0.3-3.99,0.34-5.85,1.18c-1.04,0.47-3.39,1.71-3.14,3.39 C107.4,34.67,110.41,33.61,111.34,33.47z" style="fill:#FF9900;"/>
    </g>
    <g>
      <ellipse cx="63.92" cy="52.41" rx="4.5" ry="5.2" style="fill:#754C24;"/>
      <path d="M63.92,48.71c1.65,0,3,1.66,3,3.7s-1.35,3.7-3,3.7c-1.65,0-3-1.66-3-3.7S62.26,48.71,63.92,48.71 M63.92,45.71c-3.31,0-6,3-6,6.7c0,3.7,2.69,6.7,6,6.7c3.31,0,6-3,6-6.7C69.92,48.71,67.23,45.71,63.92,45.71L63.92,45.71z" style="fill:#472A0E;"/>
    </g>
    <g>
      <ellipse cx="55.42" cy="32.72" rx="1.89" ry="2.29" style="fill:#754C24;"/>
      <path d="M55.42,31.94c0.1,0,0.39,0.28,0.39,0.79c0,0.51-0.29,0.79-0.39,0.79s-0.39-0.28-0.39-0.79 C55.03,32.22,55.32,31.94,55.42,31.94 M55.42,28.94c-1.87,0-3.39,1.7-3.39,3.79s1.52,3.79,3.39,3.79s3.39-1.7,3.39-3.79 S57.29,28.94,55.42,28.94L55.42,28.94z" style="fill:#472A0E;"/>
    </g>
    <g>
      <ellipse cx="71.42" cy="32.72" rx="1.89" ry="2.29" style="fill:#754C24;"/>
      <path d="M71.42,31.94c0.1,0,0.39,0.28,0.39,0.79c0,0.51-0.29,0.79-0.39,0.79s-0.39-0.28-0.39-0.79 C71.03,32.22,71.32,31.94,71.42,31.94 M71.42,28.94c-1.87,0-3.39,1.7-3.39,3.79s1.52,3.79,3.39,3.79s3.39-1.7,3.39-3.79 S73.29,28.94,71.42,28.94L71.42,28.94z" style="fill:#472A0E;"/>
    </g>
  </g>
  <g id="Layer_2" style="display:none;">
    <g style="display:inline;">
      <g style="opacity:0.6;">
        <circle cx="64" cy="64" r="28" style="opacity:0.61;fill:none;stroke:#000000;stroke-width:0.2625;stroke-miterlimit:10;"/>
        <line style="opacity:0.61;fill:none;stroke:#000000;stroke-width:0.25;stroke-miterlimit:10;" x1="84" x2="84" y1="0" y2="128"/>
        <line style="opacity:0.61;fill:none;stroke:#000000;stroke-width:0.25;stroke-miterlimit:10;" x1="44" x2="44" y1="0" y2="128"/>
        <line style="opacity:0.61;fill:none;stroke:#000000;stroke-width:0.25;stroke-miterlimit:10;" x1="64" x2="64" y1="0" y2="128"/>
        <line style="opacity:0.61;fill:none;stroke:#000000;stroke-width:0.25;stroke-miterlimit:10;" x1="128" x2="0" y1="64" y2="64"/>
        <line style="opacity:0.61;fill:none;stroke:#000000;stroke-width:0.25;stroke-miterlimit:10;" x1="128" x2="0" y1="44" y2="44"/>
        <line style="opacity:0.61;fill:none;stroke:#000000;stroke-width:0.25;stroke-miterlimit:10;" x1="128" x2="0" y1="83.75" y2="83.75"/>
        <line style="opacity:0.61;fill:none;stroke:#000000;stroke-width:0.25;stroke-miterlimit:10;" x1="128" x2="0" y1="128" y2="0"/>
        <line style="opacity:0.61;fill:none;stroke:#000000;stroke-width:0.25;stroke-miterlimit:10;" x1="0" x2="128" y1="128" y2="0"/>
        <g style="opacity:0.61;">
          <path d="M64,4.26c32.94,0,59.74,26.8,59.74,59.74S96.94,123.74,64,123.74S4.26,96.94,4.26,64S31.06,4.26,64,4.26 M64,4 C30.86,4,4,30.86,4,64s26.86,60,60,60s60-26.86,60-60S97.14,4,64,4L64,4z"/>
        </g>
        <path d="M107.97,115.97H20.03 c-4.42,0-8.03-3.61-8.03-8.03V20.03c0-4.42,3.61-8.03,8.03-8.03h87.94c4.42,0,8.03,3.61,8.03,8.03v87.91 C116,112.36,112.39,115.97,107.97,115.97z" style="opacity:0.61;fill:none;stroke:#000000;stroke-width:0.2578;stroke-miterlimit:10;"/>
        <path d="M100,124H28c-4.4,0-8-3.6-8-8 V12c0-4.4,3.6-8,8-8h72c4.4,0,8,3.6,8,8v104C108,120.4,104.4,124,100,124z" style="opacity:0.61;fill:none;stroke:#000000;stroke-width:0.2628;stroke-miterlimit:10;"/>
        <path d="M113.77,108H14.23 C8.6,108,4,103.4,4,97.77V30.28c0-5.63,4.6-10.23,10.23-10.23h99.54c5.63,0,10.23,4.6,10.23,10.23v67.48 C124,103.4,119.4,108,113.77,108z" style="opacity:0.61;fill:none;stroke:#000000;stroke-width:0.2627;stroke-miterlimit:10;"/>
      </g>
      <g>
        <g style="opacity:0.2;">
          <defs>
            <rect id="SVGID_2_" height="128" style="opacity:0.2;" width="128" x="0" y="0"/>
          </defs>
          <clipPath id="SVGID_1_">
            <use style="overflow:visible;" xlink:href="#SVGID_2_"/>
          </clipPath>
          <g style="clip-path:url(#SVGID_1_);">
            <g>
              <line style="fill:none;stroke:#000000;stroke-width:0.25;stroke-miterlimit:10;" x1="-28" x2="-28" y1="160" y2="-32"/>
              <line style="fill:none;stroke:#000000;stroke-width:0.25;stroke-miterlimit:10;" x1="-24" x2="-24" y1="160" y2="-32"/>
              <line style="fill:none;stroke:#000000;stroke-width:0.25;stroke-miterlimit:10;" x1="-20" x2="-20" y1="160" y2="-32"/>
              <line style="fill:none;stroke:#000000;stroke-width:0.25;stroke-miterlimit:10;" x1="-16" x2="-16" y1="160" y2="-32"/>
              <line style="fill:none;stroke:#000000;stroke-width:0.25;stroke-miterlimit:10;" x1="-12" x2="-12" y1="160" y2="-32"/>
              <line style="fill:none;stroke:#000000;stroke-width:0.25;stroke-miterlimit:10;" x1="-8" x2="-8" y1="160" y2="-32"/>
              <line style="fill:none;stroke:#000000;stroke-width:0.25;stroke-miterlimit:10;" x1="-4" x2="-4" y1="160" y2="-32"/>
              <line style="fill:none;stroke:#000000;stroke-width:0.25;stroke-miterlimit:10;" x1="0" x2="0" y1="160" y2="-32"/>
              <line style="fill:none;stroke:#000000;stroke-width:0.25;stroke-miterlimit:10;" x1="4" x2="4" y1="160" y2="-32"/>
              <line style="fill:none;stroke:#000000;stroke-width:0.25;stroke-miterlimit:10;" x1="8" x2="8" y1="160" y2="-32"/>
              <line style="fill:none;stroke:#000000;stroke-width:0.25;stroke-miterlimit:10;" x1="12" x2="12" y1="160" y2="-32"/>
              <line style="fill:none;stroke:#000000;stroke-width:0.25;stroke-miterlimit:10;" x1="16" x2="16" y1="160" y2="-32"/>
              <line style="fill:none;stroke:#000000;stroke-width:0.25;stroke-miterlimit:10;" x1="20" x2="20" y1="160" y2="-32"/>
              <line style="fill:none;stroke:#000000;stroke-width:0.25;stroke-miterlimit:10;" x1="24" x2="24" y1="160" y2="-32"/>
              <line style="fill:none;stroke:#000000;stroke-width:0.25;stroke-miterlimit:10;" x1="28" x2="28" y1="160" y2="-32"/>
              <line style="fill:none;stroke:#000000;stroke-width:0.25;stroke-miterlimit:10;" x1="32" x2="32" y1="160" y2="-32"/>
              <line style="fill:none;stroke:#000000;stroke-width:0.25;stroke-miterlimit:10;" x1="36" x2="36" y1="160" y2="-32"/>
              <line style="fill:none;stroke:#000000;stroke-width:0.25;stroke-miterlimit:10;" x1="40" x2="40" y1="160" y2="-32"/>
              <line style="fill:none;stroke:#000000;stroke-width:0.25;stroke-miterlimit:10;" x1="44" x2="44" y1="160" y2="-32"/>
              <line style="fill:none;stroke:#000000;stroke-width:0.25;stroke-miterlimit:10;" x1="48" x2="48" y1="160" y2="-32"/>
              <line style="fill:none;stroke:#000000;stroke-width:0.25;stroke-miterlimit:10;" x1="52" x2="52" y1="160" y2="-32"/>
              <line style="fill:none;stroke:#000000;stroke-width:0.25;stroke-miterlimit:10;" x1="56" x2="56" y1="160" y2="-32"/>
              <line style="fill:none;stroke:#000000;stroke-width:0.25;stroke-miterlimit:10;" x1="60" x2="60" y1="160" y2="-32"/>
              <line style="fill:none;stroke:#000000;stroke-width:0.25;stroke-miterlimit:10;" x1="64" x2="64" y1="160" y2="-32"/>
              <line style="fill:none;stroke:#000000;stroke-width:0.25;stroke-miterlimit:10;" x1="68" x2="68" y1="160" y2="-32"/>
              <line style="fill:none;stroke:#000000;stroke-width:0.25;stroke-miterlimit:10;" x1="72" x2="72" y1="160" y2="-32"/>
              <line style="fill:none;stroke:#000000;stroke-width:0.25;stroke-miterlimit:10;" x1="76" x2="76" y1="160" y2="-32"/>
              <line style="fill:none;stroke:#000000;stroke-width:0.25;stroke-miterlimit:10;" x1="80" x2="80" y1="160" y2="-32"/>
              <line style="fill:none;stroke:#000000;stroke-width:0.25;stroke-miterlimit:10;" x1="84" x2="84" y1="160" y2="-32"/>
              <line style="fill:none;stroke:#000000;stroke-width:0.25;stroke-miterlimit:10;" x1="88" x2="88" y1="160" y2="-32"/>
              <line style="fill:none;stroke:#000000;stroke-width:0.25;stroke-miterlimit:10;" x1="92" x2="92" y1="160" y2="-32"/>
              <line style="fill:none;stroke:#000000;stroke-width:0.25;stroke-miterlimit:10;" x1="96" x2="96" y1="160" y2="-32"/>
              <line style="fill:none;stroke:#000000;stroke-width:0.25;stroke-miterlimit:10;" x1="100" x2="100" y1="160" y2="-32"/>
              <line style="fill:none;stroke:#000000;stroke-width:0.25;stroke-miterlimit:10;" x1="104" x2="104" y1="160" y2="-32"/>
              <line style="fill:none;stroke:#000000;stroke-width:0.25;stroke-miterlimit:10;" x1="108" x2="108" y1="160" y2="-32"/>
              <line style="fill:none;stroke:#000000;stroke-width:0.25;stroke-miterlimit:10;" x1="112" x2="112" y1="160" y2="-32"/>
              <line style="fill:none;stroke:#000000;stroke-width:0.25;stroke-miterlimit:10;" x1="116" x2="116" y1="160" y2="-32"/>
              <line style="fill:none;stroke:#000000;stroke-width:0.25;stroke-miterlimit:10;" x1="120" x2="120" y1="160" y2="-32"/>
              <line style="fill:none;stroke:#000000;stroke-width:0.25;stroke-miterlimit:10;" x1="124" x2="124" y1="160" y2="-32"/>
              <line style="fill:none;stroke:#000000;stroke-width:0.25;stroke-miterlimit:10;" x1="128" x2="128" y1="160" y2="-32"/>
              <line style="fill:none;stroke:#000000;stroke-width:0.25;stroke-miterlimit:10;" x1="132" x2="132" y1="160" y2="-32"/>
              <line style="fill:none;stroke:#000000;stroke-width:0.25;stroke-miterlimit:10;" x1="136" x2="136" y1="160" y2="-32"/>
              <line style="fill:none;stroke:#000000;stroke-width:0.25;stroke-miterlimit:10;" x1="137" x2="137" y1="166.05" y2="-25.95"/>
              <line style="fill:none;stroke:#000000;stroke-width:0.25;stroke-miterlimit:10;" x1="144" x2="144" y1="160" y2="-32"/>
              <line style="fill:none;stroke:#000000;stroke-width:0.25;stroke-miterlimit:10;" x1="148" x2="148" y1="160" y2="-32"/>
              <line style="fill:none;stroke:#000000;stroke-width:0.25;stroke-miterlimit:10;" x1="152" x2="152" y1="160" y2="-32"/>
              <line style="fill:none;stroke:#000000;stroke-width:0.25;stroke-miterlimit:10;" x1="156" x2="156" y1="160" y2="-32"/>
            </g>
            <g>
              <line style="fill:none;stroke:#000000;stroke-width:0.25;stroke-miterlimit:10;" x1="-32" x2="160" y1="-28" y2="-28"/>
              <line style="fill:none;stroke:#000000;stroke-width:0.25;stroke-miterlimit:10;" x1="-32" x2="160" y1="-24" y2="-24"/>
              <line style="fill:none;stroke:#000000;stroke-width:0.25;stroke-miterlimit:10;" x1="-32" x2="160" y1="-20" y2="-20"/>
              <line style="fill:none;stroke:#000000;stroke-width:0.25;stroke-miterlimit:10;" x1="-32" x2="160" y1="-16" y2="-16"/>
              <line style="fill:none;stroke:#000000;stroke-width:0.25;stroke-miterlimit:10;" x1="-32" x2="160" y1="-12" y2="-12"/>
              <line style="fill:none;stroke:#000000;stroke-width:0.25;stroke-miterlimit:10;" x1="-32" x2="160" y1="-8" y2="-8"/>
              <line style="fill:none;stroke:#000000;stroke-width:0.25;stroke-miterlimit:10;" x1="-32" x2="160" y1="-4" y2="-4"/>
              <line style="fill:none;stroke:#000000;stroke-width:0.25;stroke-miterlimit:10;" x1="-32" x2="160" y1="0" y2="0"/>
              <line style="fill:none;stroke:#000000;stroke-width:0.25;stroke-miterlimit:10;" x1="-32" x2="160" y1="4" y2="4"/>
              <line style="fill:none;stroke:#000000;stroke-width:0.25;stroke-miterlimit:10;" x1="-32" x2="160" y1="8" y2="8"/>
              <line style="fill:none;stroke:#000000;stroke-width:0.25;stroke-miterlimit:10;" x1="-32" x2="160" y1="12" y2="12"/>
              <line style="fill:none;stroke:#000000;stroke-width:0.25;stroke-miterlimit:10;" x1="-32" x2="160" y1="16" y2="16"/>
              <line style="fill:none;stroke:#000000;stroke-width:0.25;stroke-miterlimit:10;" x1="-32" x2="160" y1="20" y2="20"/>
              <line style="fill:none;stroke:#000000;stroke-width:0.25;stroke-miterlimit:10;" x1="-32" x2="160" y1="24" y2="24"/>
              <line style="fill:none;stroke:#000000;stroke-width:0.25;stroke-miterlimit:10;" x1="-32" x2="160" y1="28" y2="28"/>
              <line style="fill:none;stroke:#000000;stroke-width:0.25;stroke-miterlimit:10;" x1="-32" x2="160" y1="32" y2="32"/>
              <line style="fill:none;stroke:#000000;stroke-width:0.25;stroke-miterlimit:10;" x1="-32" x2="160" y1="36" y2="36"/>
              <line style="fill:none;stroke:#000000;stroke-width:0.25;stroke-miterlimit:10;" x1="-32" x2="160" y1="40" y2="40"/>
              <line style="fill:none;stroke:#000000;stroke-width:0.25;stroke-miterlimit:10;" x1="-32" x2="160" y1="44" y2="44"/>
              <line style="fill:none;stroke:#000000;stroke-width:0.25;stroke-miterlimit:10;" x1="-32" x2="160" y1="48" y2="48"/>
              <line style="fill:none;stroke:#000000;stroke-width:0.25;stroke-miterlimit:10;" x1="-32" x2="160" y1="52" y2="52"/>
              <line style="fill:none;stroke:#000000;stroke-width:0.25;stroke-miterlimit:10;" x1="-32" x2="160" y1="56" y2="56"/>
              <line style="fill:none;stroke:#000000;stroke-width:0.25;stroke-miterlimit:10;" x1="-32" x2="160" y1="60" y2="60"/>
              <line style="fill:none;stroke:#000000;stroke-width:0.25;stroke-miterlimit:10;" x1="-32" x2="160" y1="64" y2="64"/>
              <line style="fill:none;stroke:#000000;stroke-width:0.25;stroke-miterlimit:10;" x1="-32" x2="160" y1="68" y2="68"/>
              <line style="fill:none;stroke:#000000;stroke-width:0.25;stroke-miterlimit:10;" x1="-32" x2="160" y1="72" y2="72"/>
              <line style="fill:none;stroke:#000000;stroke-width:0.25;stroke-miterlimit:10;" x1="-32" x2="160" y1="76" y2="76"/>
              <line style="fill:none;stroke:#000000;stroke-width:0.25;stroke-miterlimit:10;" x1="-32" x2="160" y1="80" y2="80"/>
              <line style="fill:none;stroke:#000000;stroke-width:0.25;stroke-miterlimit:10;" x1="-32" x2="160" y1="84" y2="84"/>
              <line style="fill:none;stroke:#000000;stroke-width:0.25;stroke-miterlimit:10;" x1="-32" x2="160" y1="88" y2="88"/>
              <line style="fill:none;stroke:#000000;stroke-width:0.25;stroke-miterlimit:10;" x1="-32" x2="160" y1="92" y2="92"/>
              <line style="fill:none;stroke:#000000;stroke-width:0.25;stroke-miterlimit:10;" x1="-32" x2="160" y1="96" y2="96"/>
              <line style="fill:none;stroke:#000000;stroke-width:0.25;stroke-miterlimit:10;" x1="-32" x2="160" y1="100" y2="100"/>
              <line style="fill:none;stroke:#000000;stroke-width:0.25;stroke-miterlimit:10;" x1="-32" x2="160" y1="104" y2="104"/>
              <line style="fill:none;stroke:#000000;stroke-width:0.25;stroke-miterlimit:10;" x1="-32" x2="160" y1="108" y2="108"/>
              <line style="fill:none;stroke:#000000;stroke-width:0.25;stroke-miterlimit:10;" x1="-32" x2="160" y1="112" y2="112"/>
              <line style="fill:none;stroke:#000000;stroke-width:0.25;stroke-miterlimit:10;" x1="-32" x2="160" y1="116" y2="116"/>
              <line style="fill:none;stroke:#000000;stroke-width:0.25;stroke-miterlimit:10;" x1="-32" x2="160" y1="120" y2="120"/>
              <line style="fill:none;stroke:#000000;stroke-width:0.25;stroke-miterlimit:10;" x1="-32" x2="160" y1="124" y2="124"/>
              <line style="fill:none;stroke:#000000;stroke-width:0.25;stroke-miterlimit:10;" x1="-32" x2="160" y1="128" y2="128"/>
              <line style="fill:none;stroke:#000000;stroke-width:0.25;stroke-miterlimit:10;" x1="-32" x2="160" y1="132" y2="132"/>
              <line style="fill:none;stroke:#000000;stroke-width:0.25;stroke-miterlimit:10;" x1="-32" x2="160" y1="136" y2="136"/>
              <line style="fill:none;stroke:#000000;stroke-width:0.25;stroke-miterlimit:10;" x1="-32" x2="160" y1="140" y2="140"/>
              <line style="fill:none;stroke:#000000;stroke-width:0.25;stroke-miterlimit:10;" x1="-32" x2="160" y1="144" y2="144"/>
              <line style="fill:none;stroke:#000000;stroke-width:0.25;stroke-miterlimit:10;" x1="-32" x2="160" y1="148" y2="148"/>
              <line style="fill:none;stroke:#000000;stroke-width:0.25;stroke-miterlimit:10;" x1="-32" x2="160" y1="152" y2="152"/>
              <line style="fill:none;stroke:#000000;stroke-width:0.25;stroke-miterlimit:10;" x1="-32" x2="160" y1="156" y2="156"/>
            </g>
            <path d="M159.75-31.75v191.5h-191.5v-191.5H159.75 M160-32H-32v192h192V-32L160-32z"/>
          </g>
        </g>
        <g>
          <rect height="128" style="opacity:0.3;fill:#F44336;" width="4" x="0" y="0"/>
          <rect height="128" style="opacity:0.3;fill:#F44336;" width="4" x="124" y="0"/>
          <rect height="120" style="opacity:0.3;fill:#F44336;" transform="matrix(-1.836970e-16 1 -1 -1.836970e-16 66 -62)" width="4" x="62" y="-58"/>
          <rect height="120" style="opacity:0.3;fill:#F44336;" transform="matrix(-1.836970e-16 1 -1 -1.836970e-16 190 62)" width="4" x="62" y="66"/>
        </g>
      </g>
    </g>
  </g>
</svg>