<?xml version="1.0" encoding="UTF-8" standalone="no"?>
<svg
   xmlns:dc="http://purl.org/dc/elements/1.1/"
   xmlns:cc="http://creativecommons.org/ns#"
   xmlns:rdf="http://www.w3.org/1999/02/22-rdf-syntax-ns#"
   xmlns:svg="http://www.w3.org/2000/svg"
   xmlns="http://www.w3.org/2000/svg"
   xmlns:sodipodi="http://sodipodi.sourceforge.net/DTD/sodipodi-0.dtd"
   xmlns:inkscape="http://www.inkscape.org/namespaces/inkscape"
   width="128"
   height="128"
   style="enable-background:new 0 0 128 128;"
   version="1.1"
   id="svg26"
   sodipodi:docname="emoji_u1f952.svg"
   inkscape:version="0.92+devel unknown">
  <metadata
     id="metadata32">
    <rdf:RDF>
      <cc:Work
         rdf:about="">
        <dc:format>image/svg+xml</dc:format>
        <dc:type
           rdf:resource="http://purl.org/dc/dcmitype/StillImage" />
      </cc:Work>
    </rdf:RDF>
  </metadata>
  <defs
     id="defs30" />
  <sodipodi:namedview
     pagecolor="#ffffff"
     bordercolor="#666666"
     inkscape:document-rotation="0"
     borderopacity="1"
     objecttolerance="10"
     gridtolerance="10"
     guidetolerance="10"
     inkscape:pageopacity="0"
     inkscape:pageshadow="2"
     inkscape:window-width="1680"
     inkscape:window-height="986"
     id="namedview28"
     showgrid="false"
     inkscape:zoom="3.8504174"
     inkscape:cx="87.213666"
     inkscape:cy="41.148946"
     inkscape:window-x="0"
     inkscape:window-y="27"
     inkscape:window-maximized="1"
     inkscape:current-layer="svg26" />
  <style
     type="text/css"
     id="style2">
.st0{fill:#757F3F;}
  </style>
  <path
     class="st0"
     d="M101.4,13.4c-0.1,0.1-0.2,0.2-0.2,0.2c-2.6,2.5-5.8,4.2-7.3,6.3c-1.5,2.1-3.9,5.9-6.8,9.2s-7.4,8.6-7.4,8.6 s-2.5,0.6-3.4,2.6s-1.8,4.1-4,6.1s-10.1,10-12.9,11.9s-6.9,2.5-8,4.1s-2.9,3.6-5.8,5.5s-10.1,7.4-13.4,8.8s-4.9,1.8-6.4,3.5 s-7.8,6.5-11,8.8S4,98.4,3.1,102.4s-1.2,9.4,4,13.2s14.2,5.1,24.5,3.6s8.9-1.4,12.4-3.1s10.8-5,15.6-7.4s8-5.9,10.6-6.9 s5-1.8,6.1-3.6s4.8-4.8,7.2-7.1s7.4-8.1,10-9.4s5.4-3.2,6.1-5.2s3-4.5,6.5-8.1S116.8,54,119,50.6s1.9-4.5,3.1-6s2.5-3.1,2.2-6 s1.8-12.4,0.6-17.1s-4.5-13-10.4-13.1S103.5,11,101.4,13.4"
     id="path4" />
  <ellipse
     style="opacity:1;vector-effect:none;fill:#9e9d23;stroke-width:0.98000002;paint-order:stroke fill markers;fill-opacity:1"
     id="path4291"
     cx="48"
     cy="71.5"
     rx="3"
     ry="2.5" />
  <ellipse
     ry="2.5"
     rx="3"
     cy="72.62146"
     cx="62.388706"
     id="ellipse4293"
     style="opacity:1;vector-effect:none;fill:#9e9d23;fill-opacity:1;stroke-width:0.98000002;paint-order:stroke fill markers" />
  <ellipse
     style="opacity:1;vector-effect:none;fill:#9e9d23;fill-opacity:1;stroke-width:0.9806909;paint-order:stroke fill markers"
     id="ellipse4295"
     cx="89.389137"
     cy="46.475979"
     rx="3.3928061"
     ry="2.8016624"
     transform="matrix(0.78143227,0.62399007,-0.66457184,0.74722438,0,0)" />
  <ellipse
     style="opacity:1;vector-effect:none;fill:#9e9d23;fill-opacity:1;stroke-width:0.9800517;paint-order:stroke fill markers"
     id="ellipse4299"
     cx="0.57620645"
     cy="116.91608"
     rx="3.2162948"
     ry="2.631103"
     transform="matrix(0.9474769,-0.3198242,0.33355357,0.94273115,0,0)" />
  <ellipse
     ry="2.5"
     rx="3"
     cy="110.91874"
     cx="35.523006"
     id="ellipse4301"
     style="opacity:1;vector-effect:none;fill:#9e9d23;fill-opacity:1;stroke-width:0.98000002;paint-order:stroke fill markers"
     transform="rotate(-19.049834)" />
  <ellipse
     style="opacity:1;vector-effect:none;fill:#9e9d23;fill-opacity:1;stroke-width:0.98241711;paint-order:stroke fill markers"
     id="ellipse4303"
     cx="50.558189"
     cy="110.27872"
     rx="3.6499019"
     ry="3.1731794"
     transform="matrix(0.80572816,-0.59228552,0.50959039,0.86041713,0,0)" />
  <ellipse
     ry="2.5"
     rx="3"
     cy="54.363258"
     cx="82.675148"
     id="ellipse4305"
     style="opacity:1;vector-effect:none;fill:#9e9d23;fill-opacity:1;stroke-width:0.98000002;paint-order:stroke fill markers" />
  <ellipse
     style="opacity:1;vector-effect:none;fill:#9e9d23;fill-opacity:1;stroke-width:0.98000002;paint-order:stroke fill markers"
     id="ellipse4307"
     cx="65.446686"
     cy="77.436699"
     rx="3"
     ry="2.5"
     transform="rotate(-29.81224)" />
  <ellipse
     ry="2.5"
     rx="3"
     cy="91.496132"
     cx="-21.53713"
     id="ellipse4297"
     style="opacity:1;vector-effect:none;fill:#9e9d23;fill-opacity:1;stroke-width:0.98000002;paint-order:stroke fill markers"
     transform="rotate(-26.935906)" />
</svg>
