<svg xmlns="http://www.w3.org/2000/svg" viewBox="0 0 128 128"><path d="M58.03 2.19C49.08-1.59 35.96.88 30.71 10.6c-3.6 6.67-3.76 13.16-3.89 18.89-.15 6.28-.27 11.71-4.43 16.91-3.78 4.73-9.87 7.16-18.11 7.22h-.17c-.37 0-.74-.01-1.11-.02-1.47-.07-2.68 1.14-2.68 2.61v.01c0 1.37 1.06 2.54 2.43 2.61.45.02.9.04 1.36.03h.21c9.9-.07 17.36-3.16 22.17-9.19 5.25-6.58 5.41-13.43 5.57-20.06.13-5.64.25-10.96 3.26-16.52C39.16 5.98 49.3 4.19 56 7.02c8.33 3.52 12.75 14.74 12.12 30.78l5.22.2c.73-18.34-4.85-31.39-15.31-35.81z" fill="#2f2f2f"/><path d="M71.14 127.75c-19.83 0-35.9-16.07-35.9-35.9V40.96C35.24 31.04 43.28 23 53.2 23h35.88c9.92 0 17.96 8.04 17.96 17.96v50.89c0 19.83-16.07 35.9-35.9 35.9z" fill="#40c0e7"/><path d="M36.17 147.17c0 9.57 7.76 14.89 17.33 14.89h34.63c9.57 0 17.33-5.31 17.33-14.89v5.5c0 9.57-7.76 17.33-17.33 17.33H53.5c-9.57 0-17.33-7.76-17.33-17.33v-5.5z" fill="#196ca2"/><path d="M-21.14 41.69c-1.71 0-3.11-1.08-3.15-2.44-.02-.79.05-1.55.13-2.29.19-1.87.25-3.06-.69-3.91-1.15-1.04-4.46-2.36-13.69-2.75-7.1-.3-11.8-2.24-13.98-5.77-4.59-7.47 5.03-18.65 6.14-19.9 1-1.13 2.96-1.4 4.38-.6 1.42.79.72 3.02-.27 4.15-2.26 2.55-7.27 9.05-4.75 13.15 1.09 1.78 4.11 3.19 8.75 3.38 9.56.4 15.58 1.97 18.15 5.06 2.36 2.84 2.45 5.43 2.24 7.58-.06.61-.13 1.21-.11 1.79.04 1.38-1.34 2.51-3.08 2.54-.03.01-.05.01-.07.01z" fill="#006ca0"/><path d="M100.01 57.23H42.69c-1.94 0-3.51-1.57-3.51-3.51V41.09c0-7.74 6.28-14.02 14.02-14.02h36.28c7.74 0 14.02 6.28 14.02 14.02v12.64c.02 1.93-1.55 3.5-3.49 3.5z" fill="#006ba7"/><g fill="#40c0e7"><path d="M57.55 25.08h4.97v49.41h-4.97zM79.8 25.08h4.97v49.41H79.8z"/></g><path d="M59.5 112.84c-.35 0-.7-.06-1.05-.18-12.66-4.54-16-14.64-15.48-20.23.16-1.71.84-2.5 2.07-2.48 1.71.03 1.5 1.23 2.07 2.87 1.06 3.04 2.24 9.97 13.43 13.98a3.11 3.11 0 0 1 1.88 3.98 3.101 3.101 0 0 1-2.92 2.06z" fill="#fff"/></svg>