<svg xmlns="http://www.w3.org/2000/svg" viewBox="0 0 128 128"><path d="M4.27 92.68c12.6-.37 20.38-3.87 30.76-18.49" fill="none" stroke="#6e6e6e" stroke-width="5" stroke-linecap="round" stroke-miterlimit="10"/><path d="M122.16 38.07l-73.74.01C45.52 38.08 23 51.1 23 54.1v25.83C23 82.49 45.71 98 48.79 98h73.46c2.93 0 5.74-3.14 5.74-6.2V44.05c0-3.14-2.01-5.98-5.83-5.98zM37.91 76.12c-5.09 0-9.22-4.1-9.22-9.16s4.13-9.16 9.22-9.16 9.22 4.1 9.22 9.16-4.13 9.16-9.22 9.16z" fill="#fcc21b"/><path d="M35.13 61.3a6.606 6.606 0 0 0-2.56 5.22c0 1.5.51 2.87 1.35 3.98 2.01-3.05 2.1-6.31 1.21-9.2zM38.2 73.08c.35.06.71.09 1.08.09 3.7 0 6.72-2.99 6.72-6.66 0-3.44-2.65-6.28-6.04-6.62 1.37 4.51.81 9.19-1.76 13.19z" fill="none"/><path d="M38.2 73.08c-.96-.16-1.85-.52-2.63-1.03 1.17.98 2.68 1.58 4.33 1.58 3.7 0 6.72-2.99 6.72-6.66 0-3.61-2.92-6.56-6.55-6.65 1.21 4.37.62 8.88-1.87 12.76zM35.34 62.1c-1.32 1.22-2.15 2.95-2.15 4.87 0 1.19.32 2.31.88 3.28 1.68-2.71 1.89-5.55 1.27-8.15z" fill="none"/><path d="M35.58 72.05c.78.51 1.67.88 2.63 1.03 2.49-3.88 3.07-8.39 1.87-12.77-.04-.14-.06-.28-.1-.42-.45-1.5-1.12-2.98-2-4.42-.1-.16-.19-.33-.3-.49-.57-.87-1.22-1.72-1.95-2.55-5.46-6.16-15.25-10.03-24.83-4.79C4.24 51.3.74 57.68 1.31 65.17c.83 10.99 10.76 25.4 31.08 32.82a2.505 2.505 0 0 0 3.21-1.49c.47-1.3-.19-2.73-1.49-3.21C21.4 88.65 7.28 77.75 6.3 64.79c-.3-3.91.68-9.29 7-12.76 7.16-3.92 14.54-.95 18.68 3.72.29.33.57.68.84 1.05.14.19.27.39.41.59.79 1.17 1.46 2.49 1.9 3.9.08.26.14.53.21.8.62 2.6.41 5.45-1.27 8.15.39.69.9 1.3 1.51 1.81z" fill="#6e6e6e"/><path d="M39.91 55.31c-.66 0-1.3.07-1.94.17.88 1.43 1.55 2.91 2 4.42.04.14.07.28.1.42 3.63.09 6.55 3.03 6.55 6.65 0 3.67-3.01 6.66-6.72 6.66-1.65 0-3.16-.59-4.33-1.58-.6-.51-1.12-1.12-1.51-1.8a6.54 6.54 0 0 1-.88-3.28c0-1.92.83-3.65 2.15-4.87-.06-.27-.13-.54-.21-.8-.44-1.42-1.11-2.73-1.9-3.9-3.04 2.11-5.04 5.61-5.04 9.57 0 6.43 5.26 11.66 11.72 11.66 6.46 0 11.72-5.23 11.72-11.66s-5.25-11.66-11.71-11.66z" fill="#444"/><path d="M39.29 54.86c-.55 0-1.09.05-1.62.12a19.18 19.18 0 0 1 2.3 4.91c3.39.34 6.04 3.18 6.04 6.62 0 3.67-3.01 6.66-6.72 6.66-.37 0-.73-.04-1.08-.09a6.701 6.701 0 0 1-4.29-2.58 6.587 6.587 0 0 1-1.35-3.98c0-2.11 1-4 2.56-5.22-.51-1.66-1.34-3.19-2.31-4.5-3.16 2.09-5.25 5.66-5.25 9.71 0 6.43 5.26 11.66 11.72 11.66 6.46 0 11.72-5.23 11.72-11.66s-5.26-11.65-11.72-11.65z" fill="#7c5e54"/></svg>