<?xml version="1.0" encoding="utf-8"?>
<!-- Generator: Adobe Illustrator 19.2.1, SVG Export Plug-In . SVG Version: 6.00 Build 0)  -->
<svg version="1.1" id="レイヤー_1" xmlns="http://www.w3.org/2000/svg" xmlns:xlink="http://www.w3.org/1999/xlink" x="0px"
	 y="0px" viewBox="0 0 128 128" style="enable-background:new 0 0 128 128;" xml:space="preserve">
<g>
	<g>
		<g>
			<path style="fill:#855C52;" d="M59.93,10.84c0,0,3.01,0.94,4.1,1.43l26.84,28.3c0,0,0.94,1.29,3.01,1.91l-0.87,8.45L75.84,54.9
				L51.59,37.17l-4.54-18.44L59.93,10.84z"/>
			<path style="fill:#855C52;" d="M7.29,47.96c0,0-0.67-5.68,0.32-10.08l22.8-25.95c0,0,0.84-0.56,4.23-1.33l9.57,3.88l-3.26,27.09
				L13.86,63.41L7.29,47.96z"/>
			<g>
				<g>
					<path style="fill:#F79329;" d="M126.17,44.5c-1.42-0.73-3.05,0.38-4.28,0.98c-6.37,3.05-11.68,5.11-18.92,3.43
						c-1.96-2.3-4.41-4.19-7.13-5.63c-0.8-0.42-1.8-0.96-2.74-0.82c-0.35,0.06-0.52,0.34-0.74,0.6c-0.89,1.07-1.54,2.36-2.54,3.32
						c-0.96,0.91-2.45,1.56-3.92,1.77c-0.14,0.01-0.28,0.03-0.42,0.03c-6.53,0-9.22-6.72-10.83-10.73c-0.26-0.64-0.49-1.22-0.71-1.7
						c-1.08-2.3-3.15-3.51-6.43-5.31c-0.54-0.3-1.08-0.59-1.62-0.9c-2.03-1.15-3.6-2.35-4.81-3.68c-2.36-2.59-3.4-5.67-3.08-9.15
						c0.19-2.1,0.88-4.09,1.93-5.87c-2.22-0.65-7.39-1.98-12.83-1.98c-4.81,0-9.81,1.05-12.46,1.74c1.13,1.84,1.86,3.93,2.06,6.12
						c0.31,3.47-0.73,6.55-3.09,9.15c-1.21,1.32-2.78,2.53-4.8,3.67c-0.54,0.31-1.08,0.6-1.62,0.9c-3.28,1.8-5.35,3.02-6.43,5.32
						c-0.23,0.48-0.46,1.06-0.71,1.7c-1.61,4.01-4.31,10.72-10.88,10.72c-0.65-0.01-1.27-0.09-1.88-0.22c-0.02,0.95-0.04,1.9,0,2.86
						c0.63,12.04,4.54,24.43,13.16,32.14c1.84,1.65,3.93,3.01,6.12,4.22c0,0-0.13,15.2-0.28,19.33c-0.12,3.57-1.76,11.18,2.18,13.45
						c4.87,2.81,14.84,3.34,18.3-1.85c1.47-2.22,1.77-4.93,1.77-7.5c0-2.95,0.17-4.11,0.17-7.07c0-1.25-0.47-3.57,0.47-4.55
						c0.56-0.59,1.3-0.45,2.01-0.45c1.13,0,2.28-0.12,3.41-0.23c6.36-0.65,5.84,2.39,6.38,6.89c0.39,3.27-0.22,6.52-0.48,9.81
						c-0.34,4.32,3.65,5.9,7.51,6.09c4.1,0.2,9.19-0.25,12.82-2.31c3.8-2.17,2.32-5.58,2.18-9.11c-0.1-2.46-0.3-4.92-0.49-7.37
						c-0.15-2-0.51-3.99-0.41-6c0.1-1.75-0.29-4.79,1.93-5.52c1.57-0.52,3.33,0,4.96-0.31c2.4-0.44,2.23,4.34,2.3,5.62
						c0.17,3.09-0.28,5.32,2.58,7.2c3.4,2.24,9.06,1.65,12.74,0.57c6.68-1.97,4.46-7.7,4.78-12.95c0.32-5.07,0.3-10.09-0.04-15.16
						c-0.35-5.27-1.04-10.63-2.58-15.65c3.02,0.82,6.31,0.84,9.25-0.03c3.91-1.16,6.96-3.8,8.43-7.52
						C127.15,50.81,128.55,45.71,126.17,44.5z"/>
					<path style="fill:#F79329;" d="M6.3,43.05c0.86,0.55,1.82,0.9,2.88,0.9h0h0h0.02c0.16,0,0.31-0.03,0.46-0.04
						C9.79,43.89,9.9,43.9,10,43.88c0.21-0.04,0.4-0.11,0.59-0.17c0.05-0.02,0.11-0.03,0.15-0.05c0.24-0.09,0.47-0.21,0.68-0.35
						l0.01,0c2.9-1.8,4.33-6.85,5.5-9.34c1.99-4.24,5.98-5.94,9.78-8.09c1.45-0.82,2.76-1.76,3.77-2.85
						c1.4-1.54,2.22-3.44,2.01-5.91v-0.02l0,0l0,0c-0.04-0.5-0.13-0.98-0.25-1.45c-0.06-0.24-0.16-0.47-0.23-0.71
						c-0.07-0.21-0.13-0.42-0.21-0.62c-0.14-0.34-0.31-0.67-0.49-0.99c-0.04-0.08-0.08-0.16-0.12-0.23
						c-0.2-0.35-0.43-0.69-0.67-1.02c-0.02-0.03-0.04-0.06-0.06-0.08c-0.01-0.02-0.03-0.03-0.04-0.04
						c-0.32-0.42-0.67-0.81-1.05-1.18c-0.04-0.04-0.07-0.07-0.11-0.11c-0.35-0.34-0.74-0.65-1.14-0.94
						c-0.07-0.05-0.15-0.11-0.22-0.16c-0.36-0.24-0.75-0.46-1.14-0.66c-0.13-0.06-0.24-0.14-0.36-0.19
						c-0.43-0.19-0.88-0.35-1.33-0.48c-0.08-0.03-0.16-0.07-0.24-0.09c-0.95-0.24-1.88-0.4-2.8-0.51c-0.29-0.04-0.58-0.04-0.87-0.06
						c-0.49-0.04-1-0.1-1.48-0.1c-0.11,0-0.22,0.02-0.32,0.02c-0.34,0.01-0.66,0.04-1,0.06c-0.52,0.04-1.04,0.08-1.54,0.16
						c-0.35,0.06-0.69,0.13-1.03,0.21c-0.46,0.1-0.92,0.21-1.37,0.35c-0.34,0.11-0.68,0.22-1.01,0.35
						c-0.43,0.15-0.84,0.33-1.25,0.52c-0.32,0.15-0.65,0.31-0.96,0.47c-0.39,0.21-0.76,0.44-1.13,0.68c-0.3,0.19-0.61,0.38-0.9,0.58
						c-0.36,0.26-0.71,0.55-1.05,0.84c-0.27,0.23-0.54,0.44-0.8,0.67c-0.36,0.35-0.7,0.72-1.04,1.09c-0.4,0.43-0.77,0.89-1.13,1.36
						c-0.29,0.37-0.58,0.74-0.84,1.13c-0.23,0.34-0.42,0.71-0.63,1.06c-0.2,0.34-0.41,0.67-0.59,1.03c-0.2,0.38-0.37,0.78-0.55,1.18
						c-0.15,0.35-0.31,0.7-0.45,1.06c-0.16,0.41-0.3,0.84-0.43,1.26c-0.12,0.36-0.23,0.72-0.33,1.09C1.2,23.06,1.09,23.51,1,23.96
						c-0.08,0.36-0.14,0.74-0.2,1.11c-0.07,0.46-0.14,0.93-0.19,1.4c-0.04,0.36-0.05,0.74-0.07,1.11c-0.03,0.49-0.06,0.97-0.05,1.46
						c0,0.36,0.04,0.71,0.05,1.06c0.03,0.51,0.05,1.03,0.11,1.55c0.03,0.27,0.09,0.54,0.14,0.82c0.09,0.57,0.16,1.13,0.28,1.7
						c0.63,2.78,2.37,7.02,5.2,8.86C6.28,43.04,6.29,43.05,6.3,43.05z"/>
					<path style="fill:#F79329;" d="M63.28,13.5c-0.16,0.31-0.3,0.61-0.43,0.93c-0.07,0.17-0.12,0.34-0.18,0.51
						c-0.08,0.25-0.17,0.5-0.24,0.76c-0.1,0.41-0.17,0.82-0.22,1.25c0,0.04-0.02,0.09-0.02,0.13c-0.23,2.49,0.59,4.39,2,5.93
						c1.02,1.1,2.34,2.03,3.78,2.85c2.08,1.18,4.21,2.23,6.05,3.63c1.52,1.16,2.84,2.54,3.74,4.46c1.07,2.3,2.38,6.78,4.85,8.87
						c0.03,0.03,0.06,0.04,0.09,0.07c0.18,0.14,0.36,0.28,0.54,0.4c0.07,0.04,0.14,0.07,0.2,0.1c0.16,0.09,0.32,0.18,0.49,0.25
						c0.1,0.04,0.2,0.06,0.31,0.09c0.15,0.04,0.29,0.1,0.44,0.13c0.13,0.03,0.26,0.03,0.39,0.04c0.14,0.02,0.27,0.04,0.4,0.04h0.03
						l0,0l0,0c4.58-0.02,7.27-6.15,8.1-9.78c0.07-0.32,0.1-0.64,0.16-0.97c0.1-0.54,0.2-1.08,0.27-1.62
						c0.05-0.39,0.06-0.77,0.08-1.15c0.03-0.5,0.07-0.99,0.07-1.49c0-0.38-0.02-0.75-0.03-1.13c-0.02-0.49-0.05-0.98-0.1-1.47
						c-0.04-0.37-0.09-0.73-0.14-1.1c-0.07-0.49-0.16-0.97-0.26-1.45c-0.07-0.35-0.15-0.69-0.24-1.03
						c-0.12-0.49-0.27-0.97-0.42-1.44c-0.11-0.31-0.21-0.63-0.33-0.94c-0.18-0.5-0.4-0.98-0.62-1.45c-0.12-0.27-0.24-0.55-0.37-0.81
						c-0.27-0.53-0.57-1.04-0.88-1.54c-0.12-0.19-0.22-0.38-0.34-0.57c-0.9-1.37-1.95-2.61-3.12-3.7c-0.16-0.15-0.34-0.29-0.51-0.43
						c-0.44-0.37-0.87-0.74-1.33-1.07c-0.24-0.16-0.47-0.31-0.71-0.47c-0.43-0.28-0.86-0.55-1.32-0.79
						c-0.28-0.15-0.55-0.28-0.84-0.41c-0.44-0.21-0.9-0.4-1.37-0.58c-0.3-0.11-0.61-0.22-0.92-0.31C79.85,8.12,79.36,8,78.87,7.89
						c-0.32-0.07-0.64-0.14-0.97-0.19c-0.52-0.08-1.04-0.13-1.58-0.16c-0.32-0.02-0.64-0.06-0.97-0.06c-0.11,0-0.21-0.02-0.32-0.02
						c-0.48,0-0.97,0.06-1.46,0.09c-0.3,0.03-0.6,0.03-0.9,0.06c-0.91,0.11-1.84,0.28-2.79,0.51c-0.56,0.15-1.11,0.36-1.63,0.59
						c-0.13,0.06-0.25,0.14-0.37,0.2c-0.4,0.21-0.79,0.44-1.17,0.69c-0.1,0.07-0.2,0.15-0.3,0.22c-0.39,0.3-0.77,0.62-1.12,0.97
						c-0.05,0.05-0.11,0.1-0.16,0.16c-0.39,0.41-0.75,0.84-1.08,1.3l-0.02,0.02c0,0,0,0.01-0.01,0.02c-0.22,0.32-0.42,0.65-0.6,0.99
						C63.36,13.36,63.32,13.43,63.28,13.5z"/>
				</g>
				<g>
					<path style="fill:#2F2F2F;" d="M27.46,62.56c-2.79-0.02-5.04-2.63-5.02-5.85c0.02-3.2,2.29-5.79,5.07-5.78
						c2.78,0.01,5.03,2.64,5.01,5.85C32.51,60,30.23,62.57,27.46,62.56z M57.38,81.53c-0.24,0.6-0.84,0.95-1.28,1.21l-0.2,0.12
						c-2.14,1.29-5.37,1.11-7.58,0.07l-0.23-0.11c-0.31-0.15-0.44-0.21-0.64-0.21c-0.31,0.03-0.6,0.15-0.86,0.27
						c-0.21,0.09-0.42,0.17-0.6,0.23c-2.15,0.68-4.5,1.13-6.67,0.31c-0.6-0.23-1.41-0.69-1.86-1.32c-0.32-0.44-0.44-1.04-0.31-1.53
						c0.11-0.42,0.39-0.76,0.78-0.96c0.78-0.37,1.64-0.04,2.19,0.25c1.38,0.74,3.76,0.79,4.91-0.43c0.39-0.42,0.58-1.03,0.54-1.81
						c0-0.07,0-0.14,0-0.2c-1.16-0.05-2.27-0.24-3.37-0.64c-3.37-1.21-4.31-4.29-2.96-7.17c0.2-0.43,0.44-0.82,0.71-1.18
						c1.44-1.87,3.79-2.72,6.5-2.85c3.13-0.15,7.23,0.99,8.87,3.7c1.06,1.77,0.58,4.49-0.78,6.01c-1.25,1.42-3.5,1.82-5.56,1.99
						c-0.01,0.73-0.02,1.51,0.27,2.01l0.46,0.37c1.32,0.9,3.39,1.08,4.82,0.27l0.25-0.14c0.22-0.13,0.43-0.25,0.68-0.34
						c0.67-0.25,1.41-0.05,1.79,0.52C57.54,80.42,57.59,81.01,57.38,81.53z M67.16,62.56c-2.77,0.01-5.04-2.57-5.05-5.78
						c-0.02-3.21,2.23-5.83,5.01-5.85c2.77-0.01,5.05,2.58,5.07,5.78C72.21,59.93,69.95,62.54,67.16,62.56z"/>
				</g>
			</g>
		</g>
		<path style="fill:#006CA2;" d="M74.18,87.56c-4.06,3.43-10.13,7.72-23.2,7.72c-12.02,0-19.15-5.55-19.15-5.55
			s8.16,2.61,15.78,2.61c4.44,0,8.14-0.35,11.91-1.39c5.82-1.59,10.24-4.71,12.33-6.2c3.05-2.17,9.29-7.41,13.05-19.8
			C84.9,64.96,84.35,78.97,74.18,87.56z"/>
	</g>
	<g>
		<ellipse style="fill:#78A3AD;" cx="51.87" cy="98.59" rx="4.96" ry="4.68"/>
		<ellipse style="fill:#2F2F2F;" cx="51.8" cy="96.03" rx="1.01" ry="0.95"/>
	</g>
</g>
</svg>
