<svg enable-background="new 0 0 128 128" viewBox="0 0 128 128" xmlns="http://www.w3.org/2000/svg"><linearGradient id="f" x1="94.471" x2="94.045" y1="70.506" y2="5.4059" gradientUnits="userSpaceOnUse"><stop offset="0"/><stop stop-color="#0F0F0F" offset=".2164"/><stop stop-color="#373737" offset=".6328"/><stop stop-color="#4D4D4D" offset=".8372"/></linearGradient><path d="m86.28 87.4c-0.36-1.35-0.84-2.42-2.41-6.88-0.37-1.07-0.68-1.95-0.84-2.43-0.62-1.87-0.38-2.25 0.29-3.25 0.52-0.78-0.37-1.22-0.07-3.25 0.58-3.92-0.63-9.78-5.08-13.81-3.48-3.15-7.28-7.7-9.74-13.66-3.29-7.97-1.85-13.78-0.67-16.57l3.16 8.3 0.26-4.71c0.01-0.16 0.9-14.82 8.64-20.67l0.09 4.11 1.7-1.98c0.06-0.07 6.26-7.17 16.23-7.17 9.71 0 16 2.95 20.42 9.55 3.12 4.67 3.7 10.04 3.77 12.72-2.09-1.27-6.09-3.47-10.73-4.92l-4.31-1.34 3.34 3.04c0.1 0.1 2.41 2.29 2.66 6.7-1.72-0.59-4.87-1.52-8.67-1.86l-4.28-0.38 3.67 2.23c0.11 0.07 2.44 1.55 3.13 4.81-2.14 0.05-6.58 0.59-8.67 4.08-2.04 3.4-0.08 8.05 2.36 15.33 1.8 5.36 4.2 12.44 0.13 20.78-4 8.19-11.53 10.82-14.38 11.23z" fill="url(#f)"/><path d="m98.58 6.42c8.62 0 13.35 2.46 17.29 7.21 4.18 5.04 5.04 12.27 5.04 12.27-5.79-6.2-14.85-5.02-14.85-5.02s5.19 4.94 5.75 8.87c-5.81-3-12.37-0.87-12.37-0.87s5.12 3.5 6.09 6.18c0 0-5.86-0.06-8.21 4.49-1.97 3.8-0.35 9.15 2.91 18.23 2.09 5.81 2.02 13.04-0.98 18.47-3.93 7.12-11.16 10.7-12.44 10.94-0.15-0.49 0.2-0.59 0-1.2-0.6-1.81-1.37-4.02-1.99-5.79-0.37-1.07-0.68-1.95-0.84-2.44-0.47-1.41 2.15-0.72 2.72-1.58 0.56-0.85-0.61-8.68-5.75-16.96-4.25-6.85-8.53-9.01-11.6-15.49-2.33-5.64-2.7-10.06-2.03-13.07l3.54 7.42s0.08-19.98 8-25.42l0.11 4.52c-0.01 0 8.2-10.76 19.61-10.76zm-17.74 5.52 0.41-4.32c-12.62 7.5-11.9 22.79-11.9 22.79l-2.45-5.41s-4.48 8.25 0.23 19.5c6.75 13.38 11.87 10.88 16.12 27.08 1.58 6.02-2.48 2.87-1.17 6.82 0.69 2.06 4.03 11.31 3.74 11.46 0 0 8.74-2.58 14.12-9.94 8.64-11.83 2.01-22.86-0.69-33.5-2.5-9.86 8.75-9.42 8.75-9.42-0.62-5.08-3.77-6.69-3.77-6.69s1.93-0.12 4.6 0.48c2.46 0.56 5.21 2.33 5.21 2.33 0.27-6.81-3.04-9.4-3.04-9.4 6.88 1.08 11.71 6.52 11.71 6.52s1.79-8.67-4.52-17.5c-4.31-6.03-9.47-8.88-19.35-8.88-11.84 0.02-18 8.08-18 8.08z" fill="#616161"/><linearGradient id="e" x1="94.078" x2="94.078" y1="15.616" y2="80.274" gradientUnits="userSpaceOnUse"><stop stop-color="#FAFAFA" offset="0"/><stop stop-color="#F1F1F1" offset=".2225"/><stop stop-color="#D9D9D9" offset=".5809"/><stop stop-color="#BDBDBD" offset=".9209"/></linearGradient><path d="m84.96 15.91c12.88-10.49 26.57 0.69 26.57 0.69s-14.86-3.18-20.5 7c5.56-1.5 8.69 0.19 8.69 0.19s-11.53 4.09-12.15 13.9c0 0 2.28-3.09 6.67-2.72 0 0-9.4 7.61-4.15 21.94l2.33-5.99s1.54 4.83 2.58 14.92c1.16 11.26-8.75 15.62-8.75 15.62s4.04-7.74 2.58-13.78c-2.78-11.55-23.44-35.83-3.87-51.77z" fill="url(#e)"/><linearGradient id="d" x1="72.846" x2="58.103" y1="98.461" y2="125.35" gradientUnits="userSpaceOnUse"><stop offset="0"/><stop stop-color="#0F0F0F" offset=".2164"/><stop stop-color="#373737" offset=".6328"/><stop stop-color="#4D4D4D" offset=".8372"/></linearGradient><path d="m85.57 101.04c-2.69 4.65-12.36 6.4-18.38 12.71-1.87 1.96-4.14 5.4-5.18 7.55-0.71 1.46-1.73 2.42-2.87 1.85-1.3-0.65-1.14-1.91-0.84-3.77 0.25-1.53 1.04-4.13 2.79-7.12 3.57-6.1 4.68-8.42 4.92-9.91 0.84-5.28-2.38-10.27-2.25-11.26 1.25-9.55 9.46-9.61 13.53-9.63s6.41 1.82 8.22 5.47c1.87 3.76 2.95 8.88 0.98 12.59-0.29 0.52-0.63 1.01-0.92 1.52z" fill="url(#d)" stroke="#616161" stroke-miterlimit="10" stroke-width="2"/><linearGradient id="c" x1="27.711" x2="13.428" y1="92.559" y2="118.61" gradientTransform="matrix(.9319 .3626 -.3626 .9319 38.609 -2.5304)" gradientUnits="userSpaceOnUse"><stop offset="0"/><stop stop-color="#0F0F0F" offset=".2164"/><stop stop-color="#373737" offset=".6328"/><stop stop-color="#4D4D4D" offset=".8372"/></linearGradient><path d="m41.36 101.44c-5.14 4.01-9.11 5.45-17.99 4.81-6.28-0.46-7.17 3.46-7.17 3.46s2.17 2.35 0.71 4.38c-1.04 1.45-4.08 2.05-5.1-0.83-2.31-6.5 4.64-11.92 8.52-14.45 2.36-1.54 4.1-4 4.75-6.74 0.36-1.51 0.39-3.1 0.1-4.63-0.25-1.32-1.01-2.45-0.61-3.77 0.62-2.05 3.38-4.08 5.28-4.82 3.54-1.37 7.31-0.22 10.68 1.08 3.8 1.46 6.74 5.1 7.1 9.16 0.46 5.02-2.26 9.23-6.27 12.35z" fill="url(#c)" stroke="#616161" stroke-miterlimit="10" stroke-width="2"/><linearGradient id="b" x1="80.624" x2="5.4736" y1="104.55" y2="56.324" gradientUnits="userSpaceOnUse"><stop offset="0"/><stop stop-color="#0F0F0F" offset=".2185"/><stop stop-color="#151515" offset=".2858"/><stop stop-color="#363636" offset=".7235"/><stop stop-color="#4D4D4D" offset="1"/></linearGradient><path d="m98.47 114.31c-3.26-5.27-3.01-11.4-3.55-12.4s-3.5-1.72-4.83-3.83c-2.68-4.23-2.22-10.67-2.09-13.58 0.31-7.13-4.62-26.07-26.62-26.07-15.26 0-22.26 14.69-23.84 14-0.21-0.09-0.37-0.24-0.3-0.75 0.39-2.94 0.37-11.55-0.39-13.99-1.51-4.86-6.23-5.45-12.52-5.8-3.08-0.17-6.87-1.62-10.45-2.42-0.71-0.16-1.36 0.46-1.39 1.19 0 0 0.17 5.05 1.01 6.4 1.21 1.97 6.4 6.56 8.12 9.19 2.96 4.5-4.19 10.62-4.65 16.68l3.09-1.5c-2.89 7.32-1.32 12.4-1.32 12.4l2.34-3.03s0.15 5.78 5.67 9.27c2.77 1.75 7.19 2.94 7.19 2.94 2.5 2.4 6.49 5.29 9.64 9.76 1.53 2.18 2.86 6.62 3.39 8.99 0.17 0.78 0.98 1.5 1.77 1.47 0.93-0.04 1.66-0.79 1.65-1.72-0.01-2.15-0.08-6-0.37-9.33-0.32-3.75-0.81-8-1.98-11.81 4.81-3 9.28-7.54 23.21-2.41 0 0 1.69 4.2 5.84 6.82 4.34 2.75 11.24 2.1 11.24 2.1s4.1 10.53 8.54 12.29c1.44 0.57 3.55 0.81 3.78-1.03 0.16-1.26-1.77-3.17-2.18-3.83z" fill="url(#b)" stroke="#616161" stroke-miterlimit="10" stroke-width="2"/><path d="m38.24 107.89c-0.22 0-0.44-0.07-0.62-0.21-4.47-3.52-7.15-7.53-6.16-12.92 0.38-2.04 1.43-2.3 1.42-1.75-0.17 5.46 1.99 9.96 5.98 13.1 0.43 0.34 0.51 0.97 0.17 1.4-0.2 0.25-0.5 0.38-0.79 0.38z" fill="#616161"/><linearGradient id="a" x1="30.473" x2="81.656" y1="74.333" y2="74.333" gradientUnits="userSpaceOnUse"><stop stop-color="#FAFAFA" offset="0"/><stop stop-color="#F6F6F6" offset=".2451"/><stop stop-color="#E8E8E8" offset=".5123"/><stop stop-color="#D3D3D3" offset=".7888"/><stop stop-color="#BDBDBD" offset="1"/></linearGradient><path d="m31.51 80.85c0.96 2.21 2.9 4.24 6.4 4.24 3.31 0 6.32-1.95 9.39-3.15 4.94-1.94 9.14-1.09 10.64-0.67 0.19 0.05 0.34-0.17 0.21-0.32-0.81-0.98-3.07-3.07-7.62-3.46-0.2-0.02-0.26-0.28-0.09-0.38 8.34-4.6 18.46 1.17 20.54 2.46 0.15 0.09 0.34-0.04 0.3-0.21-0.85-4.13-4.47-6.77-5.8-7.62-0.16-0.1-0.1-0.35 0.09-0.37 9.52-1.06 16.03 8.42 17.88 11.5 0.12 0.19 0.41 0.08 0.37-0.14-0.8-4.2-4.91-19.14-22.99-19.14-14.85 0-19.12 15.81-24.67 14.65-3.99-0.84-2.1-10.62-1.47-13.42 0.05-0.21-0.22-0.33-0.35-0.17-0.55 0.67-1.45 1.98-2.36 4.13-1.18 2.78-2.46 7.47-0.47 12.07z" fill="url(#a)"/><path d="m18.34 51.74s1.5 2.45 5.62 2.79c4.71 0.39 6.86-0.93 6.86-0.93s-4.35-0.64-6.88-0.96c-2.54-0.32-5.6-0.9-5.6-0.9z" fill="#eee"/><path d="m28.28 55.38c-0.31 0.87-0.67 1.64-0.93 2.37-0.14 0.35-0.23 0.71-0.25 0.95 0 0.12 0.02 0.19 0.03 0.18 0.02-0.02-0.03-0.07 0.02-0.03 0.09 0.07 0.4 0.2 0.73 0.28 0.34 0.1 0.72 0.16 1.11 0.25 0.79 0.16 1.62 0.32 2.51 0.63-0.78 0.54-1.64 0.83-2.54 0.97-0.45 0.07-0.92 0.09-1.41 0.04-0.49-0.07-1.03-0.15-1.62-0.59-0.29-0.22-0.6-0.61-0.69-1.05-0.1-0.42-0.05-0.78 0.04-1.08 0.17-0.59 0.46-0.99 0.76-1.36 0.63-0.7 1.35-1.25 2.24-1.56z"/><path d="m17.17 51.3-2.65-1.01c-0.46-0.1-1.1-0.16-1.13 0.67-0.03 0.73 0.23 2.19 0.45 2.89 0 0 2.47-0.4 3.33-2.55z"/><path d="m71.06 99.64c-0.12-0.16-3.09-4.76-0.09-10.88 0.71-1.46 1.39-0.93 1.19-0.16-1.78 6.69 1.03 10.81 1.05 10.84 0.32 0.44-1.95 0.47-2.15 0.2z" fill="#616161"/></svg>
