<?xml version="1.0" encoding="utf-8"?>
<!-- Generator: Adobe Illustrator 19.2.1, SVG Export Plug-In . SVG Version: 6.00 Build 0)  -->
<svg version="1.1" id="Layer_1" xmlns="http://www.w3.org/2000/svg" xmlns:xlink="http://www.w3.org/1999/xlink" x="0px" y="0px"
	 viewBox="0 0 128 128" style="enable-background:new 0 0 128 128;" xml:space="preserve">
<g>
	<path style="fill:#FAC036;" d="M93.24,59.23c-0.76-21.87-1.55-39.51-1.81-43.44S89.08,9,84.11,9c-4.97,0-6.54,3.66-6.54,7.84
		s0,29.54,0,29.54s-0.83,2-2.32-0.84c-0.97-1.86-3.75-3.14-6.58-2.52c-2.46,0.55-5.17,1.89-5.74,5.74c-0.5,3.37-2.19,0.25-3.78-1.26
		c-0.99-0.94-3.65-2.36-6.16-1.96c-3.23,0.52-6.16,2.24-6.72,5.6s-2.38,0.56-3.36-0.84c-0.98-1.4-3.92-2.52-6.72-1.54
		c-2.8,0.98-5.88,2.94-6.02,7.56c-0.14,4.62-2.38,26.16,1.68,37.92S44.61,119,65.74,119s33.86-20.85,32.74-34.14
		S93.7,72.54,93.24,59.23z"/>
	<g>
		<defs>
			<path id="SVGID_1_" d="M93.24,59.23c-2.06-21.99-1.55-39.51-1.81-43.44C91.17,11.88,89.08,9,84.11,9c-4.97,0-6.54,3.66-6.54,7.84
				s0,29.54,0,29.54s-0.83,2-2.32-0.84c-0.97-1.86-3.75-3.14-6.58-2.52c-2.46,0.55-5.17,1.89-5.74,5.74
				c-0.5,3.37-2.19,0.25-3.78-1.26c-0.99-0.94-3.65-2.36-6.16-1.96c-3.23,0.52-6.16,2.24-6.72,5.6s-2.38,0.56-3.36-0.84
				c-0.98-1.4-3.92-2.52-6.72-1.54c-2.8,0.98-5.88,2.94-6.02,7.56c-0.14,4.62-2.38,26.16,1.68,37.92S44.61,119,65.74,119
				s33.86-20.85,32.74-34.14S93.86,65.87,93.24,59.23z"/>
		</defs>
		<clipPath id="SVGID_2_">
			<use xlink:href="#SVGID_1_"  style="overflow:visible;"/>
		</clipPath>
		<g style="clip-path:url(#SVGID_2_);">
			<g>
				<path style="fill:#E48C15;" d="M87.49,72.24c0,0-0.33-0.13-0.92-0.41c-0.55-0.26-1.35-0.65-2.38-1.14
					c-1.01-0.49-2.21-1.07-3.64-1.61c-1.43-0.53-3.11-0.96-5.04-1.24c-1.89-0.3-4.04-0.4-6.32-0.43c-2.29-0.03-4.72,0.02-7.21,0.13
					c-1.24,0.06-2.51,0.14-3.73,0.29c-0.3,0.04-0.61,0.07-0.87,0.13l-0.21,0.04l-0.03,0c0.03-0.01-0.1,0.02,0.06-0.01l-0.06,0.02
					l-0.12,0.03c-0.14,0.04-0.38,0.08-0.43,0.12c-0.14,0.05-0.33,0.13-0.53,0.23c-0.18,0.11-0.35,0.22-0.5,0.34
					c-0.6,0.51-0.94,1.26-1.01,2.22c-0.07,0.95,0.15,2.11,0.56,3.08c0.4,0.93,1.07,1.81,1.89,2.49c0.84,0.67,1.82,1.19,2.89,1.51
					c0.54,0.15,1.08,0.27,1.65,0.33c0.28,0.03,0.56,0.07,0.84,0.07c0.27,0.01,0.56,0.02,0.91,0.02c1.31,0,2.61,0.01,3.88,0.01
					c1.28,0.02,2.69,0.01,4.2,0.43c1.62,0.48,2.66,1.25,3.71,2c1.03,0.77,1.96,1.62,2.77,2.59c0.8,0.97,1.53,2.06,1.89,3.4
					c0.09,0.33,0.16,0.68,0.18,1.04l0.01,0.13l0.01,0.18l0,0.19l0,0.37c-0.02,0.3-0.05,0.64-0.08,0.94
					c-0.05,0.28-0.1,0.56-0.15,0.83c-0.24,1.08-0.66,2.03-1.14,2.85c-0.95,1.66-2.17,2.79-3.23,3.56c-1.07,0.78-2.02,1.17-2.65,1.43
					c-0.65,0.21-1,0.32-1,0.32c-0.43,0.14-0.89-0.1-1.03-0.53c-0.11-0.35,0.02-0.72,0.3-0.92l0.06-0.04c0,0,0.26-0.19,0.75-0.53
					c0.47-0.37,1.16-0.89,1.9-1.67c0.73-0.78,1.53-1.8,2.12-3.08c0.29-0.64,0.53-1.34,0.67-2.08c0.03-0.18,0.05-0.37,0.08-0.56
					c0.01-0.16,0.02-0.33,0.03-0.5l-0.01-0.37l0-0.19l0-0.05c0-0.08,0,0.08,0,0.06l0-0.01l-0.01-0.05
					c-0.01-0.14-0.05-0.29-0.09-0.44c-0.37-1.29-1.79-2.86-3.48-4.07c-0.84-0.59-1.83-1.21-2.58-1.38
					c-0.86-0.23-1.99-0.23-3.25-0.22c-1.27,0.02-2.57,0.04-3.88,0.06c-1.37,0.02-2.98-0.11-4.46-0.54c-1.5-0.43-2.96-1.16-4.23-2.18
					c-1.27-1.03-2.32-2.36-3-3.92c-0.64-1.53-0.99-3.1-0.88-4.86c0.1-1.72,0.9-3.65,2.39-4.86c0.36-0.3,0.75-0.56,1.15-0.78
					c0.4-0.2,0.82-0.39,1.31-0.53c0.26-0.09,0.35-0.09,0.53-0.14l0.12-0.03l0.22-0.05l0.28-0.05c0.38-0.07,0.73-0.11,1.08-0.15
					c1.39-0.16,2.7-0.23,4-0.29c2.6-0.11,5.09-0.11,7.47-0.04c2.38,0.08,4.66,0.23,6.79,0.59c2.1,0.34,4.05,0.87,5.71,1.51
					c1.67,0.63,3.02,1.43,4.04,2.18c1.01,0.75,1.72,1.47,2.18,1.96c0.42,0.5,0.63,0.78,0.63,0.78c0.31,0.44,0.21,1.04-0.23,1.35
					C88.13,72.32,87.78,72.35,87.49,72.24z"/>
			</g>
			<g>
				<path style="fill:#E48C15;" d="M77.88,46.55l2.93,18.91c0.18,1.17-0.62,2.27-1.79,2.45c-1.17,0.18-2.27-0.62-2.45-1.79
					c-0.01-0.07-0.02-0.15-0.02-0.23L75.6,46.78c-0.03-0.63,0.45-1.17,1.08-1.2C77.28,45.55,77.78,45.98,77.88,46.55z"/>
			</g>
			<g>
				<path style="fill:#E48C15;" d="M63.26,49.79l2.29,14.01c0.19,1.17-0.6,2.28-1.77,2.47s-2.28-0.6-2.47-1.77
					c-0.01-0.09-0.02-0.19-0.03-0.28l-0.46-14.19c-0.02-0.68,0.51-1.24,1.19-1.27C62.64,48.74,63.17,49.19,63.26,49.79z"/>
			</g>
			<g>
				<path style="fill:#E48C15;" d="M46.36,52.67c0,0,0.11,1.56,0.28,3.91c0.09,1.17,0.19,2.53,0.3,3.99c0.12,1.45,0.25,3,0.45,4.51
					c0.09,0.76,0.21,1.5,0.34,2.22c0.05,0.37,0.15,0.7,0.22,1.04c0.07,0.35,0.16,0.67,0.26,0.97c0.17,0.63,0.41,1.15,0.64,1.59
					c0.14,0.18,0.24,0.41,0.37,0.55c0.14,0.11,0.24,0.27,0.36,0.36c0.13,0.06,0.24,0.14,0.34,0.21c0.13,0.03,0.25,0.07,0.36,0.11
					c0.25,0.06,0.5,0.06,0.71,0.09c0.49-0.04,0.76-0.04,0.76-0.04l0.37,0c1.18-0.01,2.15,0.94,2.15,2.13
					c0.01,1.18-0.94,2.15-2.13,2.15c-0.02,0-0.06,0-0.08,0c0,0-0.51-0.02-1.39-0.04c-0.46-0.08-1.05-0.16-1.7-0.39
					c-0.33-0.14-0.68-0.3-1.04-0.48c-0.33-0.23-0.67-0.5-1.01-0.78c-0.31-0.3-0.57-0.66-0.85-1.01c-0.26-0.36-0.42-0.74-0.63-1.13
					c-0.34-0.77-0.6-1.59-0.76-2.39c-0.1-0.41-0.17-0.81-0.22-1.21c-0.05-0.4-0.13-0.82-0.16-1.22c-0.07-0.81-0.15-1.63-0.17-2.43
					c-0.08-1.61-0.08-3.19-0.09-4.67c0.01-1.47,0.02-2.85,0.02-4.03c0.02-2.35,0.03-3.92,0.03-3.92c0-0.63,0.52-1.13,1.14-1.13
					C45.83,51.63,46.31,52.09,46.36,52.67z"/>
			</g>
		</g>
		<g style="clip-path:url(#SVGID_2_);">
			<path style="fill:#E48C15;" d="M47.06,61.86c0,0,0.01,0.16,0.02,0.47c0.02,0.3,0.03,0.76,0.03,1.37
				c-0.01,1.2-0.02,2.91-0.42,5.02c-0.21,1.05-0.49,2.21-1.04,3.44c-0.56,1.2-1.46,2.53-2.89,3.44c-1.43,0.92-3.14,1.19-4.61,1.17
				c-1.75-0.06-3.32-0.7-4.63-1.66c-1.3-0.97-2.28-2.22-2.98-3.49c-0.71-1.28-1.21-2.6-1.54-3.88c-0.66-2.57-0.85-4.96-0.92-6.99
				c-0.04-2.03,0.07-3.71,0.14-4.88c0.11-1.16,0.17-1.83,0.17-1.83c0.06-0.59,0.58-1.02,1.17-0.97c0.55,0.05,0.96,0.51,0.97,1.05
				l0,0.04c0,0,0.01,0.65,0.02,1.78c0.02,1.13,0.06,2.74,0.26,4.64c0.18,1.89,0.5,4.1,1.2,6.27c0.36,1.08,0.79,2.15,1.38,3.11
				c0.57,0.96,1.3,1.79,2.13,2.37c0.82,0.57,1.82,0.89,2.66,0.88c1.1,0,2.01-0.19,2.66-0.62c0.66-0.42,1.19-1.12,1.57-1.96
				c0.41-0.82,0.68-1.74,0.88-2.61c0.38-1.76,0.53-3.34,0.61-4.43c0.07-1.12,0.11-1.77,0.11-1.77c0.05-0.84,0.78-1.48,1.62-1.43
				C46.41,60.45,47.02,61.09,47.06,61.86z"/>
		</g>
	</g>
</g>
</svg>
