<svg enable-background="new 0 0 128 128" viewBox="0 0 128 128" xmlns="http://www.w3.org/2000/svg"><linearGradient id="b" x1="16.5" x2="122" y1="94.989" y2="94.989" gradientUnits="userSpaceOnUse"><stop stop-color="#CDE5B1" offset=".0049479"/><stop stop-color="#fff" offset=".6459"/><stop stop-color="#F7FBF2" offset=".7015"/><stop stop-color="#E1F0D1" offset=".8037"/><stop stop-color="#BFDE9B" offset=".9401"/><stop stop-color="#AED581" offset="1"/></linearGradient><path d="m9 84.69-0.29 19.71h0.06c0 10.74 24.6 19.45 54.94 19.45s54.94-8.71 54.94-19.45h0.06l-0.23-19.09s1.96-19.19-54.1-19.19c-56.92 0-55.5 18.68-55.38 18.57z" fill="url(#b)"/><path d="m154.21 31.5c0 0.6 0.08 1.19 0.19 1.77v-3.54c-0.12 0.58-0.19 1.17-0.19 1.77z" fill="#424242" opacity=".2"/><path d="m154.4 29.66v0.06c0-0.02 0.01-0.04 0.01-0.06 0 0.01-0.01 0-0.01 0z" fill="#424242" opacity=".2"/><ellipse cx="63.71" cy="105.31" rx="54.94" ry="18.54" fill="#D6EABF"/><ellipse cx="50.43" cy="108.56" rx="12.92" ry="4.82" fill="#009245"/><ellipse cx="66.63" cy="94.96" rx="7.87" ry="3.63" fill="#00C853"/><ellipse cx="21" cy="98.16" rx="3.94" ry="1.82" fill="#7CB342"/><ellipse cx="18.75" cy="102.09" rx="2.65" ry="1.22" fill="#8BC34A"/><ellipse cx="25.1" cy="105.05" rx="2.65" ry="1.22" fill="#7CB342"/><ellipse cx="31.35" cy="110.71" rx="4.52" ry="2.09" fill="#64DD17"/><ellipse cx="17.06" cy="107.32" rx="2.82" ry="1.3" fill="#7CB342"/><ellipse cx="71.67" cy="107.87" rx="5.03" ry="2.32" fill="#009245"/><ellipse cx="85.08" cy="99.98" rx="7.31" ry="2.71" fill="#AED581"/><ellipse cx="98.8" cy="104.09" rx="5.03" ry="2.32" fill="#00C853"/><ellipse cx="103.56" cy="112.22" rx="2.52" ry="1.16" fill="#7CB342"/><ellipse cx="94.57" cy="111.43" rx="4.23" ry="1.95" fill="#7CB342"/><ellipse cx="86.1" cy="107.41" rx="4.23" ry="1.95" fill="#64DD17"/><path d="m317.5-92.83" fill="#E3F2FD"/><path d="m100.28 27.17-0.38-0.37-2.8-2.8-29.63 29.64-0.46 2.94c6.26-3.58 12.62-7.03 19.23-9.76l16.84-16.84-2.8-2.81z" fill="#E3F2FD"/><path d="m66.76 58.15-3.94 4.83 1.27 1.27 4.83-3.94 4.51-0.71 12.8-12.8c-6.61 2.73-17.99 2.52-19.23 9.76l-0.24 1.59z" fill="#64DD17"/><linearGradient id="a" x1="94.223" x2="121.56" y1="32.874" y2="5.2423" gradientUnits="userSpaceOnUse"><stop stop-color="#29ABE2" offset="0"/><stop stop-color="#0071BC" offset="1"/></linearGradient><path d="m90.1 24.58c-1.24 1.24 0.53 5.02 3.95 8.44s7.2 5.19 8.44 3.95c0.76-0.76 0.38-2.49-0.82-4.51l21.07-20.05-0.04-0.04c1.6-1.96 1.5-4.84-0.32-6.67s-4.71-1.92-6.67-0.32l-0.04-0.04-21.06 20.06c-2.01-1.21-3.74-1.59-4.51-0.82z" fill="url(#a)"/><g opacity=".2"><path d="m118.88 6.17c0.79 0 1.53 0.31 2.09 0.86 1.08 1.08 1.16 2.8 0.19 3.99-0.04 0.05-0.08 0.11-0.12 0.16l-20.74 19.75c-0.68 0.64-0.82 1.67-0.34 2.47 0.46 0.78 0.71 1.37 0.83 1.77-0.55-0.16-1.36-0.53-2.36-1.2-0.34-0.23-0.73-0.34-1.11-0.34-0.52 0-1.03 0.2-1.41 0.59l-23.43 23.43-3.73 0.58 0.22-1.43 0.36-2.29 23.42-23.42c0.67-0.67 0.78-1.73 0.25-2.52-0.71-1.06-1.05-1.85-1.2-2.36 0.44 0.13 1.04 0.39 1.77 0.83 0.32 0.19 0.67 0.28 1.03 0.28 0.5 0 1-0.19 1.38-0.55l20.74-19.74c0.08-0.05 0.17-0.11 0.25-0.17 0.54-0.45 1.22-0.69 1.91-0.69m-27.17 19.41m27.17-21.41c-1.12 0-2.25 0.38-3.17 1.13l-0.04-0.04-21.06 20.05c-1.31-0.78-2.5-1.22-3.38-1.22-0.48 0-0.86 0.13-1.13 0.4-0.85 0.85-0.29 2.88 1.24 5.18l-23.87 23.88-0.46 2.94-0.25 1.57-3.94 4.83 1.27 1.27 4.83-3.94 4.51-0.71 23.88-23.88c1.57 1.05 3.02 1.64 4.05 1.64 0.48 0 0.86-0.13 1.13-0.4 0.76-0.76 0.38-2.49-0.82-4.51l21.07-20.05-0.04-0.04c1.6-1.96 1.5-4.84-0.32-6.67-0.97-0.94-2.23-1.43-3.5-1.43z" fill="#424242"/></g><path d="m53.16 79.48c-0.03 0.22-0.06 0.43-0.09 0.65-0.3 2.59 0.05 5.68 2.85 6.74 2.29 0.87 4.65-0.38 5.84-2.37 1.56-2.63 0.9-5.89 0.24-8.69-0.77-3.25-1.2-6.21-0.5-9.51-4.5 2.82-7.55 7.96-8.34 13.18z" fill="#64DD17"/><g opacity=".2"><path d="m64.37 68.78c14.27 0 39.58 1.44 48.77 11.06 2.6 2.72 2.68 4.92 2.68 5.24-0.02 0.12-0.01 0.13-0.01 0.27l0.23 18.51c-0.04 0.18-0.06 0.36-0.06 0.55 0 7.95-21.47 16.8-52.29 16.8s-52.29-8.85-52.29-16.8c0-0.18-0.02-0.36-0.05-0.54l0.29-19.13c0-0.12 0-0.25-0.02-0.37 0.03-0.39 0.29-2.27 2.61-4.62 9.47-9.55 35.48-10.97 50.14-10.97m0-2.66c-56.74 0-55.5 18.57-55.37 18.57l-0.29 19.71h0.06c0 10.74 24.6 19.45 54.94 19.45s54.94-8.71 54.94-19.45h0.06l-0.23-19.09c-0.01 0 1.96-19.19-54.11-19.19z" fill="#424242"/></g><path d="m47.3 113.83c3.62 1.3 6.81 4.6 10.78 4.7 0.65 0.02 1.29-0.04 1.92-0.13v-19.73s-6.46-0.08-18.33-1.33c-12.22-1.29-15.92-3.83-15.92-3.83 0 0.34 0.12 10.52 0.19 16.91 5.22 5.67 14.39 0.91 21.36 3.41z" fill="#fff" opacity=".45"/><path d="m95.12 112.36c0.88 5.55 7.32 2.83 9.65-0.3 2.98-3.98 1.85-20.44 1.85-20.44l-12.48 3.84c-0.03 5.64 0.12 11.44 0.98 16.9z" fill="#fff" opacity=".45"/><g opacity=".94"><path d="m63.71 96.91c-25.92 0-44.98-5.41-51.47-11.6v1.61c0 0.47 0.22 0.91 0.61 1.17 9.15 6.23 28.25 11.35 50.86 11.35 22.27 0 41.15-5.43 50.46-11.52 0.4-0.26 0.63-0.71 0.63-1.18v-1.08c-6.84 6.04-25.66 11.25-51.09 11.25z" fill="#fff"/></g><g opacity=".2"><path d="m59.19 70.93c0.11 1.88 0.47 3.66 0.87 5.35 0.64 2.7 1.13 5.29-0.01 7.2-0.6 1.02-1.62 1.67-2.6 1.67-0.27 0-0.55-0.05-0.81-0.15-1.34-0.51-1.87-2.07-1.58-4.65 0.02-0.19 0.05-0.39 0.08-0.58 0.5-3.28 1.96-6.42 4.05-8.84m2.31-4.62zm0 0c-4.5 2.82-7.55 7.95-8.34 13.17-0.03 0.22-0.06 0.43-0.09 0.65-0.3 2.59 0.05 5.68 2.85 6.74 0.51 0.19 1.02 0.28 1.52 0.28 1.76 0 3.4-1.1 4.32-2.65 1.56-2.63 0.9-5.89 0.24-8.69-0.77-3.24-1.19-6.21-0.5-9.5z" fill="#424242"/></g></svg>
