<svg xmlns="http://www.w3.org/2000/svg" viewBox="0 0 128 128"><path d="M-128.75 90.15l.04.06c.08-.53.66-3.3.35-6.92.27 3.62-.32 6.41-.39 6.86zM-128.18 90.85l-.48-.55.36.6c.04-.01.08-.03.12-.05z" fill="none"/><path d="M-101.64 32.91l1.43-8.85c-.45 2.74-.88 5.27-1.43 8.85zM-116.67 32.81c.04.11.08.23.13.36l-.03-.28-.1-.08z" fill="#e6eeef"/><path d="M-44.92 76.08c-.42-1.16-.96-.76-1.16.12-.17.78-.41 1.58-.71 2.39-.19.51-.41 1.01-.65 1.48-1.7 3.4-4.56 5.89-6.51 7.3-.54.39-1.25-.19-.97-.79 1.04-2.27 2.3-5.95 1.45-9.29-.79-3.13-5.42-6.12-7.66-10.29-1.53-2.85-1.01-7.34-1.1-8.5-.07-.96-.3-1.89-.59-2.7-.57-1.66-1.16-2-1.1-1.25.2 1.86.13 4.82-1.6 7.51-1 1.55-2.29 2.59-2.89 3.04-.98.72-1.94 1.2-2.79 1.53-.66.26-1.27-.43-.97-1.07.51-1.08 1-2.54 1.07-4.3.05-1.01.12-2.86-.87-4.71-1.19-2.23-2.84-2.41-4.95-4.44-.16-.15-.55-.12-.47.21.34 1.29.9 2.78 1.85 4.43.28.49-.1 1.09-.66 1.05-1.34-.1-3.26-.5-5.05-1.85-2.06-1.56-2.88-3.6-3.14-4.25-1.27-3.24.05-4.91-1.19-7.92-.67-1.63-1.45-2.74-2.45-3.4l-2.48-1.7c1.39-4.26 1.35-7.39.89-11.22-.36-3.05-1.34-5.87-2.84-8.16-.91-1.38-1.66-2.17-2.5-2.66-.23-.13-1.1-.66-2.29-.76-.76-.07-1.06.09-1.14.13-.84.46-.85 1.74-.85 1.89-.09.6-.18 1.16-.27 1.71l.07-.42s.77-1.78 2.73-.4c1.7 1.2 6.67 7.95 3.25 17.72-.3-.13-2.93-1.72-4.77-2.51-1.56-.67-3.43-1.05-3.43-1.05-.93-.16-1.96-.06-1.96-.06-.37-.1-1.58-.26-3.2 1.5-1.89 2.07-2.15 4.98-3.57 7.95-2.08 4.35-6.36 4.91-8.83 5.31-.49.08-.85-.39-.52-.78 1.27-1.5 3.75-3.51 4-6.42.13-1.51-.22-3.31-.52-5.01-.05 1.47-.59 3.3-2.38 5.17-4.08 4.27-10.43 1.61-10.43 1.61l-.88-1.43c-5 3.78-12.72 13.51-19.33 22.89 2.54.3 9.79 2.33 14.11 5.9 4.98 4.12 6.49 9.49 6.81 13.72.31 3.62-.27 6.39-.35 6.92l.05.09.48.55c.01 0 .02-.01.03-.01 5.06-2.43 9.57-4.61 10.75-5.06.23-.09.53-.12.88-.12 2.41 0 9.29 1.62 15.81 1.62.57 0 0 0 .59-.03 2.26-.38 10.78-1.94 18.17-8.26 0 0 1.36-.92 2.49-2.12.57-.6 1.59-.13 1.56.7-.1 2.91-1.7 6.08-3.81 8.84-4.53 5.93-9.84 6.48-9.84 6.48L-77.7 128H-42V81c-1-.92-2.31-3.21-2.92-4.92zm-62.28-19.11c-.79.79-1.89 1.29-3.09 1.29-.93 0-1.79-.3-2.5-.79-1.67-.84-2.83-2.54-2.83-4.52 0-1.4.57-2.67 1.49-3.59s2.19-1.49 3.59-1.49 2.67.57 3.59 1.49 1.49 2.2 1.49 3.59c0 1.13-.39 2.18-1.03 3.02-.18.37-.42.71-.71 1zM-103.11 29.49l-.49 3.37z" fill="#e6eeef"/><path d="M-81.71 86.41c2.11-2.76 3.71-5.93 3.81-8.84.03-.83-.98-1.3-1.56-.7-1.14 1.2-2.49 2.12-2.49 2.12-7.39 6.32-15.91 7.88-18.17 8.26-.59.03-.02.03-.59.03-6.52 0-13.39-1.62-15.81-1.62-.35 0-.64.03-.88.12-1.18.44-5.69 2.63-10.75 5.06-.01 0-.02.01-.03.01l-.12.06c.06-.45.21-4-.06-7.61-.32-4.23-1.83-9.61-6.81-13.72-4.32-3.57-11.57-5.6-14.11-5.9 6.62-9.38 14.34-19.11 19.33-22.89l-.62-1-1.24-2c-5.9 4.45-14.81 15.09-20.82 23.63-4.76 6.71-8.54 12.84-10.66 17.24-1.83 3.8-.76 7.47.16 9.04 2.39 4.11 8.19 10.28 8.98 11.11.57.62 3.37 3.4 7.79 3.4 1.19 0 2.39-.21 3.56-.61 2.99-1.02 9.68-4.19 16.28-7.34l1.7-.82c3.53-1.7 7.17-3.45 8.45-3.99.62.04 1.79.28 2.93.5 2.58.52 6.06 1.4 10.13 1.48L-89.58 128H-77.7l-13.85-35.11s5.31-.55 9.84-6.48zm-71.54-.64c-1.57 0-2.85-1.28-2.85-2.85 0-1.58 1.28-2.85 2.85-2.85s2.85 1.26 2.85 2.85c0 1.57-1.27 2.85-2.85 2.85zM-115.35 16.92c.07-.79 1.02-1.53 2.33-.32 1.91 1.76 2.49 4.13 2.66 5.65.18.09.37.19.56.3.96-.47 2.08-.87 2.98-.98-.23-1.56-.66-3.09-1.43-4.56-1.04-1.98-3.51-4.42-5.86-4.44-2.35-.03-2.55 1.24-2.55 1.24l-1.38 8.73c.59-.2 1.17-.45 1.8-.67.33-1.76.84-4.43.89-4.95z" fill="#b5c3c6"/><path d="M-115.35 16.92c-.05.52-.55 3.18-.89 4.94.22-.08.44-.15.67-.21.61-.17 1.27-.27 2.03-.26.8.03 1.88.2 3.18.85-.17-1.52-.75-3.89-2.66-5.65-1.31-1.19-2.26-.45-2.33.33z" fill="#aa7673"/><path d="M-110.53 58.02c-.82 0-1.58-.21-2.26-.55.71.49 1.57.79 2.5.79 1.2 0 2.3-.49 3.09-1.29.3-.29.53-.64.73-1.01-.15.19-.29.39-.47.56-.92.93-2.19 1.5-3.59 1.5z" fill="#fff"/><path d="M-101.64 32.91s1.87.38 3.43 1.05c1.84.79 4.47 2.39 4.77 2.51 3.42-9.77-1.54-16.52-3.25-17.72-1.96-1.38-2.73.4-2.73.4l-.07.42-.73 4.49-1.42 8.85z" fill="#aa7673"/><path d="M-106.94 49.35c-.92-.92-2.2-1.49-3.59-1.49-1.41 0-2.67.57-3.59 1.49s-1.49 2.2-1.49 3.59c0 1.98 1.16 3.69 2.83 4.52.68.34 1.44.55 2.26.55 1.4 0 2.67-.57 3.59-1.49.17-.17.32-.37.47-.56.64-.84 1.03-1.89 1.03-3.02a5.1 5.1 0 0 0-1.51-3.59zm-3.59 2.43c-.83 0-1.49-.67-1.49-1.49 0-.83.67-1.49 1.49-1.49.83 0 1.49.67 1.49 1.49s-.66 1.49-1.49 1.49z" fill="#2f2f2f"/><path d="M-130.56 39.78l.62 1 .88 1.43s6.36 2.67 10.43-1.61c1.79-1.87 2.33-3.7 2.38-5.17-.04-.2-.07-.41-.11-.61-.09-.58-.16-1.12-.2-1.65a4.78 4.78 0 0 0-.13-.36l-3.69-3.06-.79-.65c-.4 1.28-2.56 6.68-10.68 8.64l.03.05 1.26 1.99z" fill="#dd83d7"/><path d="M-121.15 29.09l-4.92-4.08c-.08-.17-.13-.34-.2-.51l-.51-.42-.93-.77s-.55 4.05-8.8 6.91l4.66 7.5c8.14-1.95 10.29-7.35 10.7-8.63z" fill="#eaa9e8"/><path d="M-127.7 23.31l-6.19-5.14s-2 4.02-6.89 5.14l4.29 6.91c8.24-2.86 8.79-6.91 8.79-6.91z" fill="#71d3ea"/><path d="M-133.9 18.18l-6.36-5.28s-.62 1.97-4.92 3.36l4.39 7.05c4.89-1.11 6.89-5.13 6.89-5.13z" fill="#8ceae7"/><path d="M-140.26 12.9l-4.92-4.09-2.33-1.93c-1.13-1.24-3.12-.01-2.53 1.55l1.56 2.52 3.3 5.31c4.29-1.39 4.92-3.36 4.92-3.36z" fill="#b3f4e5"/><path d="M-153.25 80.07c-1.57 0-2.85 1.26-2.85 2.85 0 1.57 1.28 2.85 2.85 2.85s2.85-1.28 2.85-2.85c0-1.58-1.27-2.85-2.85-2.85z" fill="#2f2f2f"/><circle cx="-110.53" cy="50.29" r="1.49" fill="#939090"/><path d="M-49.63 45.68c-.92-.37-2.6-.6-4.75-.51-.57.02-.79-.61-.35-1.03 2.92-2.75 4.28-6.49 4.07-6.66-.43-.45-1 .53-2.43 1.42-2.19 1.37-4.76 1.79-6.41 1.67-4.6-.32-4.55-4.5-9.77-6.87-1.51-.69-4.74-.57-7.74.09 0-2.03-.5-3.52-.96-4.38-.47-.88-2.1-2.68-4.18-3.74-1.95-.99-4.45-.67-5.01-.67h-.01l.22.79c.43 3.62-.07 9.96-1.07 14.57 1 .66 1.78 1.78 2.45 3.4 1.24 3.02-.07 4.68 1.2 7.92.26.64 1.08 2.69 3.14 4.25 1.78 1.35 3.71 1.75 5.05 1.85.56.04.94-.56.66-1.05-.95-1.65-1.52-3.14-1.86-4.43-.09-.32.31-.36.47-.21 2.11 2.03 3.76 2.21 4.95 4.44.99 1.85.92 3.7.87 4.71-.07 1.76-.56 3.22-1.07 4.3-.3.64.31 1.33.97 1.07.85-.33 1.81-.82 2.79-1.53.61-.44 1.89-1.48 2.89-3.04 1.73-2.69 1.8-5.65 1.6-7.51-.07-.75.53-.42 1.1 1.25.28.81.52 1.75.59 2.7.09 1.16-.43 5.66 1.1 8.5 2.24 4.17 6.87 7.16 7.66 10.29.85 3.33-.41 7.02-1.45 9.29-.28.6.43 1.18.97.79 1.95-1.41 4.8-3.9 6.51-7.3.24-.47.45-.97.64-1.48.3-.81.53-1.61.7-2.39.2-.88.75-1.27 1.17-.12.61 1.7 1.92 4 2.92 4.91V62.18l.02-11.79s-3.97-3.24-7.65-4.71zM-121.15 29.09l.79.65 3.69 3.06.1.08.03.28c.04.52.11 1.07.2 1.65.03.2.07.41.11.61.3 1.7.64 3.5.52 5.01-.25 2.91-2.73 4.92-4 6.42-.33.39.03.85.52.78 2.48-.41 6.75-.96 8.83-5.31 1.43-2.97 1.68-5.88 3.57-7.95 1.62-1.77 2.83-1.61 3.2-1.5l.49-3.36 1.03-7.06c-1.22-1.02-3.32-1.03-4.68-.88-.02 0-.04.01-.06.01-.9.11-2.02.51-2.98.98-.19-.11-.37-.21-.56-.3-1.29-.65-2.38-.82-3.18-.85-.77-.02-1.43.09-2.03.26-.23.06-.46.13-.67.21-.63.22-1.21.47-1.8.67-.88.3-1.77.47-2.88.17-.43-.12-1.97-.53-2.96-1.83-1.83-2.4-1.89-3.28-1.89-3.28-.03-.06-.22-1.16-.67-.57-.33.01-.75 2.67-.45 4.99.09.65.27 1.51.64 2.49.06.17.12.33.2.51l4.89 4.06z" fill="#895b53"/><path d="M-101.64 32.91c.55-3.59.98-6.11 1.43-8.85l.73-4.49c.09-.55.17-1.11.27-1.71 0-.15.01-1.43.85-1.89.08-.05.38-.2 1.14-.13 1.2.11 2.06.63 2.29.76.84.49 1.59 1.28 2.49 2.66 1.5 2.29 2.48 5.11 2.84 8.16.46 3.83.5 6.96-.89 11.22l2.48 1.7c2.14-7.04 1.51-10.94 1.08-14.57l-.22-.77h.01c-.48-2-1.33-4.64-2.93-7.13-.97-1.52-1.99-2.79-3.46-3.65-.96-.56-1.99-.9-3.18-1.12-1.08-.2-2.19.02-3.04.64-.79.57-1.29 1.42-1.42 2.38l-1.95 13.38-.49 3.36c.01 0 1.04-.1 1.97.05z" fill="#b5c3c6"/><g><path d="M41.25 90.15l.04.06c.08-.53.66-3.3.35-6.92.27 3.62-.32 6.41-.39 6.86zM41.82 90.85l-.48-.55.36.6c.04-.01.08-.03.12-.05z" fill="none"/><path d="M68.36 32.91l1.43-8.85c-.45 2.74-.88 5.27-1.43 8.85zM53.33 32.81c.04.11.08.23.13.36l-.03-.28-.1-.08z" fill="#e6eeef"/><path d="M125.08 76.08c-.42-1.16-.96-.76-1.16.12-.17.78-.41 1.58-.71 2.39-.19.51-.41 1.01-.65 1.48-1.7 3.4-4.56 5.89-6.51 7.3-.54.39-1.25-.19-.97-.79 1.04-2.27 2.3-5.95 1.45-9.29-.79-3.13-5.42-6.12-7.66-10.29-1.53-2.85-1.01-7.34-1.1-8.5-.07-.96-.3-1.89-.59-2.7-.57-1.66-1.16-2-1.1-1.25.2 1.86.13 4.82-1.6 7.51-1 1.55-2.29 2.59-2.89 3.04-.98.72-1.94 1.2-2.79 1.53-.66.26-1.27-.43-.97-1.07.51-1.08 1-2.54 1.07-4.3.05-1.01.12-2.86-.87-4.71-1.19-2.23-2.84-2.41-4.95-4.44-.16-.15-.55-.12-.47.21.34 1.29.9 2.78 1.85 4.43.28.49-.1 1.09-.66 1.05-1.34-.1-3.26-.5-5.05-1.85-2.06-1.56-2.88-3.6-3.14-4.25-1.27-3.24.05-4.91-1.19-7.92-.67-1.63-1.45-2.74-2.45-3.4l-2.48-1.7c1.39-4.26 1.35-7.39.89-11.22-.36-3.05-1.34-5.87-2.84-8.16-.91-1.38-1.66-2.17-2.5-2.66-.23-.13-1.1-.66-2.29-.76-.76-.07-1.06.09-1.14.13-.84.46-.85 1.74-.85 1.89-.09.6-.18 1.16-.27 1.71l.07-.42s.77-1.78 2.73-.4c1.7 1.2 6.67 7.95 3.25 17.72-.3-.13-2.93-1.72-4.77-2.51-1.56-.67-3.43-1.05-3.43-1.05-.93-.16-1.96-.06-1.96-.06-.37-.1-1.58-.26-3.2 1.5-1.89 2.07-2.15 4.98-3.57 7.95-2.08 4.35-6.36 4.91-8.83 5.31-.49.08-.85-.39-.52-.78 1.27-1.5 3.75-3.51 4-6.42.13-1.51-.22-3.31-.52-5.01-.05 1.47-.59 3.3-2.38 5.17-4.08 4.27-10.43 1.61-10.43 1.61l-.88-1.43c-5 3.78-12.72 13.51-19.33 22.89 2.54.3 9.79 2.33 14.11 5.9 4.98 4.12 6.49 9.49 6.81 13.72.31 3.62-.27 6.39-.35 6.92l.05.09.48.55c.01 0 .02-.01.03-.01 5.06-2.43 9.57-4.61 10.75-5.06.23-.09.53-.12.88-.12 2.41 0 9.29 1.62 15.81 1.62.57 0 0 0 .59-.03 2.26-.38 10.78-1.94 18.17-8.26 0 0 1.36-.92 2.49-2.12.57-.6 1.59-.13 1.56.7-.1 2.91-1.7 6.08-3.81 8.84-4.53 5.93-9.84 6.48-9.84 6.48L92.3 128H128V81c-1-.92-2.31-3.21-2.92-4.92zM62.8 56.97c-.79.79-1.89 1.29-3.09 1.29-.93 0-1.79-.3-2.5-.79-1.67-.84-2.83-2.54-2.83-4.52 0-1.4.57-2.67 1.49-3.59s2.19-1.49 3.59-1.49 2.67.57 3.59 1.49 1.49 2.2 1.49 3.59c0 1.13-.39 2.18-1.03 3.02-.18.37-.42.71-.71 1z" fill="#ebf1f2"/><path fill="#e6eeef" d="M66.89 29.49l-.49 3.37z"/><path d="M88.29 86.41c2.11-2.76 3.71-5.93 3.81-8.84.03-.83-.98-1.3-1.56-.7-1.14 1.2-2.49 2.12-2.49 2.12-7.39 6.32-15.91 7.88-18.17 8.26-.59.03-.02.03-.59.03-6.52 0-13.39-1.62-15.81-1.62-.35 0-.64.03-.88.12-1.18.44-5.69 2.63-10.75 5.06-.01 0-.02.01-.03.01l-.12.06c.06-.45.21-4-.06-7.61-.32-4.23-1.83-9.61-6.81-13.72-4.32-3.57-11.57-5.6-14.11-5.9 6.62-9.38 14.34-19.11 19.33-22.89l-.62-1-1.24-2c-5.9 4.45-14.81 15.09-20.82 23.63-4.76 6.71-8.54 12.84-10.66 17.24-1.83 3.8-.76 7.47.16 9.04 2.39 4.11 8.19 10.28 8.98 11.11.57.62 3.37 3.4 7.79 3.4 1.19 0 2.39-.21 3.56-.61 2.99-1.02 9.68-4.19 16.28-7.34l1.7-.82c3.53-1.7 7.17-3.45 8.45-3.99.62.04 1.79.28 2.93.5 2.58.52 6.06 1.4 10.13 1.48L80.42 128H92.3L78.45 92.89s5.31-.55 9.84-6.48zm-71.54-.64c-1.57 0-2.85-1.28-2.85-2.85 0-1.58 1.28-2.85 2.85-2.85s2.85 1.26 2.85 2.85c0 1.57-1.27 2.85-2.85 2.85zM54.65 16.92c.07-.79 1.02-1.53 2.33-.32 1.91 1.76 2.49 4.13 2.66 5.65.18.09.37.19.56.3.96-.47 2.08-.87 2.98-.98-.23-1.56-.66-3.09-1.43-4.56-1.04-1.98-3.51-4.42-5.86-4.44-2.35-.03-2.55 1.24-2.55 1.24l-1.38 8.73c.59-.2 1.17-.45 1.8-.67.33-1.76.84-4.43.89-4.95z" fill="#78a3ad"/><path d="M54.65 16.92c-.05.52-.55 3.18-.89 4.94.22-.08.44-.15.67-.21.61-.17 1.27-.27 2.03-.26.8.03 1.88.2 3.18.85-.17-1.52-.75-3.89-2.66-5.65-1.31-1.19-2.26-.45-2.33.33z" fill="#b89278"/><path d="M59.47 58.02c-.82 0-1.58-.21-2.26-.55.71.49 1.57.79 2.5.79 1.2 0 2.3-.49 3.09-1.29.3-.29.53-.64.73-1.01-.15.19-.29.39-.47.56-.92.93-2.19 1.5-3.59 1.5z" fill="#fff"/><path d="M68.36 32.91s1.87.38 3.43 1.05c1.84.79 4.47 2.39 4.77 2.51 3.42-9.77-1.54-16.52-3.25-17.72-1.96-1.38-2.73.4-2.73.4l-.07.42-.73 4.49-1.42 8.85z" fill="#b89278"/><path d="M63.06 49.35c-.92-.92-2.2-1.49-3.59-1.49-1.41 0-2.67.57-3.59 1.49s-1.49 2.2-1.49 3.59c0 1.98 1.16 3.69 2.83 4.52.68.34 1.44.55 2.26.55 1.4 0 2.67-.57 3.59-1.49.17-.17.32-.37.47-.56.64-.84 1.03-1.89 1.03-3.02a5.1 5.1 0 0 0-1.51-3.59zm-3.59 2.43c-.83 0-1.49-.67-1.49-1.49 0-.83.67-1.49 1.49-1.49.83 0 1.49.67 1.49 1.49s-.66 1.49-1.49 1.49zM16.75 80.07c-1.57 0-2.85 1.26-2.85 2.85 0 1.57 1.28 2.85 2.85 2.85s2.85-1.28 2.85-2.85c0-1.58-1.27-2.85-2.85-2.85z" fill="#2f2f2f"/><circle cx="59.47" cy="50.29" r="1.49" fill="#939090"/><path d="M120.37 45.68c-.92-.37-2.6-.6-4.75-.51-.57.02-.79-.61-.35-1.03 2.92-2.75 4.28-6.49 4.07-6.66-.43-.45-1 .53-2.43 1.42-2.19 1.37-4.76 1.79-6.41 1.67-4.6-.32-4.55-4.5-9.77-6.87-1.5-.69-4.73-.57-7.73.09 0-2.03-.5-3.52-.96-4.38-.47-.88-2.1-2.68-4.18-3.74-1.95-1-4.45-.67-5-.67h-.01l.22.79c.44 3.62-.07 9.96-1.07 14.57 1 .66 1.78 1.78 2.45 3.4 1.24 3.02-.07 4.68 1.2 7.92.26.64 1.08 2.69 3.14 4.25 1.78 1.35 3.71 1.75 5.05 1.85.56.04.94-.56.66-1.05-.95-1.65-1.52-3.14-1.86-4.43-.09-.32.31-.36.47-.21 2.11 2.03 3.76 2.21 4.95 4.44.99 1.85.92 3.7.87 4.71-.07 1.76-.56 3.22-1.07 4.3-.3.64.31 1.33.97 1.07.85-.33 1.81-.82 2.79-1.53.61-.44 1.89-1.48 2.89-3.04 1.73-2.69 1.8-5.65 1.6-7.51-.07-.75.53-.42 1.1 1.25.28.81.52 1.75.59 2.7.09 1.16-.43 5.66 1.1 8.5 2.24 4.17 6.87 7.16 7.66 10.29.85 3.33-.41 7.02-1.45 9.29-.28.6.43 1.18.97.79 1.95-1.41 4.8-3.9 6.51-7.3.24-.47.45-.97.64-1.48.3-.81.53-1.61.7-2.39.2-.88.75-1.27 1.17-.12.61 1.7 1.92 4 2.92 4.91V62.18l.02-11.79c-.02 0-3.99-3.24-7.67-4.71zM48.83 28.92l1.01.87 3.48 3.02.1.08.03.28c.04.52.11 1.07.2 1.65.03.2.07.41.11.61.3 1.7.64 3.5.52 5.01-.25 2.91-2.73 4.92-4 6.42-.33.39.03.85.52.78 2.48-.41 6.75-.96 8.83-5.31 1.43-2.97 1.68-5.88 3.57-7.95 1.62-1.77 2.83-1.61 3.2-1.5l.49-3.36 1.03-7.06c-1.22-1.02-3.32-1.03-4.68-.88-.02 0-.04.01-.06.01-.9.11-2.02.51-2.98.98-.19-.11-.37-.21-.56-.3-1.29-.65-2.38-.82-3.18-.85-.77-.02-1.43.09-2.03.26-.23.06-.46.13-.67.21-.63.22-1.21.47-1.8.67-.88.3-1.77.47-2.88.17-.43-.12-1.97-.53-2.96-1.83-1.83-2.4-1.89-3.28-1.89-3.28-.03-.06-.22-1.16-.67-.57-.33.01-.75 2.67-.45 4.99.09.65.27 1.51.64 2.49.06.17-.08-.17 0 0l5.08 4.39z" fill="#855c52"/><path d="M68.36 32.91c.55-3.59.98-6.11 1.43-8.85l.73-4.49c.09-.55.17-1.11.27-1.71 0-.15.01-1.43.85-1.89.08-.05.38-.2 1.14-.13 1.2.11 2.06.63 2.29.76.84.49 1.59 1.28 2.49 2.66 1.5 2.29 2.48 5.11 2.84 8.16.46 3.83.5 6.96-.89 11.22l2.48 1.7c2.14-7.04 1.51-10.94 1.08-14.57l-.22-.77h.01c-.48-2-1.33-4.64-2.93-7.13-.97-1.52-1.99-2.79-3.46-3.65-.96-.56-1.99-.9-3.18-1.12-1.08-.2-2.19.02-3.04.64-.79.57-1.29 1.42-1.42 2.38L66.89 29.5l-.49 3.36s1.03-.1 1.96.05z" fill="#78a3ad"/><path d="M53.65 34.82c-.09-.58-.16-1.12-.2-1.65-.02-.08-.05-.14-.07-.2.01-.02.04-.05.05-.08l-9.69-8.39c-.04-.09-.02-.05-.01 0l-.51-.42-.93-.77-6.19-5.14-6.36-5.28-4.92-4.09-2.11-1.75c-1.13-1.24-3.17.09-2.58 1.65l1.39 2.24 3.3 5.31 4.39 7.05 4.29 6.91 4.66 7.5.03.05 1.24 2 .62 1 .88 1.43s6.36 2.67 10.43-1.61c1.79-1.87 2.33-3.7 2.38-5.17-.02-.19-.06-.4-.09-.59z" fill="#fbc21a"/></g></svg>