<svg enable-background="new 0 0 128 128" viewBox="0 0 128 128" xmlns="http://www.w3.org/2000/svg"><path d="m109.31 7.18s9.78 27.79 4.42 29.66-38.54 5.03-51.81 5.7c9.6 15.82-6.13 43.57-5.53 61.11 0.19 5.51 3.6 8.58 1.2 12.03-1.14 1.65-3.05 2.1-5.02 2.1-2.15 0-4.39-0.54-5.8-0.66-0.39-0.03-0.79-0.05-1.19-0.05-6.74 0-13.58 4.56-17.7 4.56-0.83 0-1.54-0.18-2.13-0.63-0.67 0.45-1.51 0.67-2.34 0.67-1.88 0-3.63-1.13-2.88-3.22 0 0 3.1-0.8 4.09-1.68 1.89-0.97 7.14-4.78 12.56-9.62 1.83-1.63 5.67-5.64 6.92-14.56 1.13-8.03-3.68-35.62-2.17-50.52-0.93-6.76-2.62-10.92 0.67-16.46 0.89-1.5 2.22-2.69 3.82-3.37 17.24-7.41 49.23-12.82 62.89-15.06m1.92-3.24-2.39 0.39c-11.22 1.84-45.38 7.45-63.56 15.26-2.16 0.93-3.94 2.5-5.16 4.55-3.22 5.42-2.46 9.82-1.58 14.9 0.17 0.99 0.35 2.01 0.51 3.09-0.8 8.51 0.29 20.54 1.25 31.16 0.73 8.04 1.42 15.64 0.96 18.89-0.8 5.66-2.81 9.97-5.99 12.8-5.28 4.71-10.34 8.38-11.96 9.21l-0.32 0.17-0.24 0.21c-0.39 0.26-1.79 0.78-2.93 1.08l-1.48 0.38-0.52 1.43c-0.61 1.69-0.42 3.36 0.53 4.71 1.05 1.49 2.94 2.38 5.07 2.38 0.79 0 1.57-0.13 2.3-0.36 0.66 0.22 1.38 0.32 2.16 0.32 2.33 0 4.85-0.95 7.76-2.04 3.13-1.18 6.67-2.51 9.94-2.51 0.32 0 0.64 0.01 0.94 0.04 0.4 0.03 0.97 0.12 1.58 0.22 1.27 0.2 2.86 0.45 4.47 0.45 3.37 0 5.85-1.13 7.39-3.35 2.24-3.24 1.21-6.38 0.38-8.9-0.49-1.5-1.01-3.05-1.07-4.87-0.21-6.26 1.85-14.11 4.03-22.43 3.31-12.63 6.72-25.63 3.04-35.95 14.49-0.97 42.88-3.69 48.34-5.61 0.83-0.29 1.97-0.96 2.73-2.53 2.93-6.09-3.38-25.12-5.38-30.81l-0.8-2.28z" fill="#4A2F27"/><linearGradient id="a" x1="16.01" x2="102.01" y1="115.58" y2="2.0823" gradientUnits="userSpaceOnUse"><stop stop-color="#70534A" offset="0"/><stop stop-color="#6D5047" offset=".4661"/><stop stop-color="#63463D" offset=".8408"/><stop stop-color="#5C4037" offset=".9991"/></linearGradient><path d="m109.31 7.18c-13.66 2.24-45.65 7.66-62.89 15.06-1.6 0.69-2.93 1.88-3.82 3.37-3.29 5.53-1.6 9.7-0.65 16.45-1.52 14.9 3.29 42.49 2.17 50.52-1.25 8.91-5.1 12.93-6.92 14.56-5.42 4.84-10.67 8.65-12.56 9.62-0.99 0.88-4.09 1.68-4.09 1.68-1.08 3.01 3.02 4.03 5.21 2.56 3.65 2.78 12.54-4.59 21.01-3.88 2.72 0.23 8.43 2.01 10.83-1.44 2.39-3.45-1.01-6.51-1.2-12.03-0.6-17.54 15.13-45.29 5.53-61.11 13.27-0.67 46.46-3.83 51.81-5.7 5.35-1.88-4.43-29.66-4.43-29.66z" fill="url(#a)"/><path d="m58.45 45.56c-0.67 2.39-1.27 4.67-1.78 6.95-0.49 2.28-0.93 4.53-1.14 6.81-0.29 2.27-0.42 4.55-0.43 6.87-0.06 2.34 0.15 4.66 0.16 7.19v0.03c0 0.05-0.04 0.1-0.1 0.1-0.04 0-0.08-0.03-0.09-0.07-0.7-2.32-1.32-4.67-1.53-7.09-0.3-2.41-0.25-4.85 0-7.26 0.28-2.41 0.84-4.79 1.63-7.08s1.8-4.51 3.11-6.56c0.03-0.05 0.09-0.06 0.13-0.03 0.04 0.02 0.05 0.07 0.04 0.11v0.03z" fill="#4A2F27"/><path d="m47.92 112.21c0.88-0.91 1.41-1.52 1.67-2.06 0.26-0.52 0.34-0.86 0.55-1.3l0.76-1.64c0.32-0.68 0.67-1.43 1.16-2.57l0.04-0.1c0.02-0.05 0.08-0.08 0.14-0.05 0.02 0.01 0.04 0.03 0.05 0.05 0.41 0.82 0.61 1.73 0.63 2.64 0.03 0.91-0.11 1.84-0.47 2.7-0.39 0.85-1.04 1.59-1.86 2.03-0.82 0.46-1.77 0.59-2.67 0.54-0.06 0-0.1-0.05-0.1-0.11 0-0.03 0.01-0.05 0.03-0.07l0.07-0.06z" fill="#4A2F27"/><path d="m48.99 36.62c1.16-0.98 1.64-1.82 2-2.64 0.36-0.81 0.63-1.64 0.89-2.52 0.25-0.88 0.49-1.79 0.68-2.75 0.07-0.25 0.09-0.48 0.14-0.74 0.07-0.27 0.07-0.5 0.09-0.77 0.07-0.57 0.02-1.09-0.12-1.85l-0.02-0.09c-0.01-0.06 0.03-0.12 0.09-0.13 0.03-0.01 0.06 0 0.08 0.02 1.04 0.78 1.57 2.05 1.74 3.28 0.19 1.25 0.08 2.53-0.25 3.74-0.36 1.2-0.98 2.35-1.89 3.25-0.9 0.91-2.16 1.45-3.42 1.46-0.06 0-0.11-0.05-0.11-0.11 0-0.03 0.02-0.07 0.04-0.09l0.06-0.06z" fill="#4A2F27"/></svg>
