<svg enable-background="new 0 0 128 128" viewBox="0 0 128 128" xmlns="http://www.w3.org/2000/svg"><path d="m52.17 5.89c0.4 0 0.66 0.43 0.8 1.14 0.68 3.43 0.35 7.71-0.93 9.54-0.15 0.22-0.34 0.4-0.54 0.56 0.09 0.22 0.18 0.44 0.26 0.67 0.23 0.14 0.42 0.32 0.58 0.54 0.43 0.62 0.48 1.46 0.19 2.15 0.04 0.2 0.08 0.4 0.13 0.6h0.05c0.93 0 1.87 0.6 2.19 1.48 0.39 1.09-0.22 2.44-1.3 2.87 1.46 0.05 2.6 1.73 2.12 3.11-0.31 0.87-1.19 1.42-2.1 1.49 0.04 0.89 0.06 1.8 0.08 2.73 1.24 1.03 2.07 3.79 0.12 5.37 1.42 0.03 2.72 1.28 2.79 2.71 0.07 1.42-1.09 2.8-2.5 2.97 1.43 0.26 2.65 1.46 2.92 2.9 0.27 1.43-0.43 2.99-1.68 3.75 0.16-0.05 0.33-0.08 0.49-0.08 1.22 0 2.35 1.33 2.14 2.59-0.15 0.88-0.81 1.58-1.63 1.94 0.49 0.37 1.09 0.59 1.72 0.59 0.11 0 0.23-0.01 0.34-0.02 2.1-0.26 4.28-0.4 6.52-0.4h0.25c3.45 0.02 6.52 0.17 9.24 0.45 0.63-0.74 1.54-1.24 2.52-1.28h0.13c1.38 0 2.71 0.92 3.25 2.18l0.42 0.09c0.57-0.95 1.68-1.57 2.79-1.57 0.18 0 0.37 0.02 0.55 0.05 1.46 0.28 2.6 1.71 2.56 3.19 0.42-0.52 1.06-0.75 1.72-0.75 0.91 0 1.85 0.45 2.33 1.24 0.44 0.72 0.51 1.59 0.31 2.41 1.1 0.95 1.97 1.98 2.65 3.09 0.21-0.02 0.43-0.03 0.64-0.03 2.07 0 3.89 0.89 3.33 3.37 0.5-0.54 1.25-0.82 1.99-0.82 0.6 0 1.2 0.19 1.67 0.57 1.04 0.85 1.28 2.54 0.5 3.64 0.1-0.01 0.19-0.02 0.28-0.02 1.32 0 2.57 1.15 2.62 2.47 0.05 1.38-1.21 2.67-2.59 2.67h-0.12c0.93 0.26 0.96 1.47 0.66 2.4-0.73 2.3-2.73 2.72-4.19 2.72-0.85 0-1.53-0.14-1.66-0.14-0.02 0-0.03 0-0.02 0.01 1.19 1.89 1.2 4.48-0.24 6.26 2.12 2.25 0.76 6.36-2.37 7.16 0.72 2.1 0.05 4.37-0.63 6.48-0.62 1.93-1.23 3.86-1.85 5.79 0.07 0.26 0.13 0.53 0.2 0.79 0.34 1.33 0.68 2.72 0.42 4.07-0.27 1.37-1.26 2.45-2.62 2.76 0.4 0.93 0.39 2.5-0.13 3.63 0.12 0.33 0.2 0.68 0.2 1.05v0.05c0 1.67-1.37 3.04-3.04 3.04h-0.92c-1.67 0-3.04-1.37-3.04-3.04v-0.05c0-0.57 0.17-1.09 0.44-1.54-0.69-0.06-1.31-0.58-1.71-1.19-0.23-0.36-0.41-0.74-0.53-1.15-0.18 0.09-0.37 0.14-0.55 0.14s-0.36-0.05-0.51-0.17c0.03 0.66-0.28 1.3-0.75 1.71 0.3 0.51 0.45 1.12 0.4 1.75v0.05c-0.12 1.58-1.46 2.8-3.03 2.8-0.08 0-0.16 0-0.24-0.01l-0.92-0.07c-1.66-0.13-2.92-1.6-2.79-3.26v-0.05c0.01-0.19 0.05-0.37 0.1-0.55-0.14-0.11-0.27-0.22-0.38-0.36-0.21 0.12-0.45 0.18-0.7 0.18-0.59 0-1.18-0.34-1.45-0.9-0.37-0.8-0.01-1.88 0.76-2.25-0.98-0.15-1.85-0.95-2.12-1.96s0.06-2.18 0.82-2.86c-0.89-0.38-1.57-1.3-1.7-2.31-0.12-0.88 0.19-1.79 0.76-2.43-0.04-0.16-0.08-0.33-0.12-0.49-1.22-0.7-2.06-2.13-2.06-3.61 0-0.77 0.26-1.46 0.56-2.14-0.3-0.29-0.57-0.61-0.77-0.98-0.22 0.01-0.45 0.02-0.67 0.04-0.35 0.86-1.03 1.58-1.88 1.94-0.42 0.18-0.88 0.26-1.34 0.26-0.86 0-1.72-0.31-2.37-0.88-0.47 0.17-0.98 0.25-1.52 0.25-1.58 0-3.38-0.66-4.89-1.69-0.4-0.03-0.79-0.07-1.19-0.1 0.11 0.57 0.56 4.37 0.44 5.15-0.18 1.17-0.82 2.24-1.01 3.41-0.22 1.33 0.15 2.7 0 4.03-0.15 1.24-1.07 2.58-2.26 2.58-0.09 0-0.19-0.01-0.28-0.02 0.48 1.18 0.23 3.34-0.82 4.45 0.61 0.56 1 1.35 1 2.23v0.05c0 1.67-1.37 3.04-3.04 3.04h-0.92c-1.67 0-3.04-1.37-3.04-3.04v-0.05c0-0.41 0.08-0.79 0.23-1.15-0.16-0.17-0.3-0.37-0.42-0.61-0.11-0.21-0.26-0.97-0.45-2.1-0.27-0.03-0.53-0.12-0.78-0.23-0.11 0.41-0.29 0.8-0.54 1.15 0.3 0.47 0.48 1.02 0.48 1.62v0.05c0 1.67-1.37 3.04-3.04 3.04h-0.92c-1.67 0-3.04-1.37-3.04-3.04v-0.05c0-0.35 0.07-0.69 0.18-1-0.48-0.21-0.88-0.61-1.06-1.11-0.32-0.87 0.07-1.96 0.86-2.41-0.75-0.01-1.24-0.87-1.32-1.64-0.09-0.77 0.06-1.58-0.18-2.32-0.32-1.01-1.27-1.65-1.88-2.51s-0.71-2.36 0.25-2.74c-1.02-0.23-1.84-1.19-1.94-2.26-0.09-1.07 0.55-2.17 1.52-2.58-1.12-0.45-1.98-1.54-2.16-2.76-0.19-1.22 0.3-2.53 1.24-3.31-0.03 0.02-0.06 0.04-0.09 0.04-0.49 0-1.36-2.49-1.39-2.76-0.06-0.74 0.12-1.49 0.47-2.15-0.64-0.83-1.01-1.87-1-2.91-0.27 0.12-0.55 0.17-0.83 0.17-0.95 0-1.91-0.6-2.38-1.46-0.6-1.11-0.49-2.5-0.01-3.67 0.24-0.59 0.59-1.33 1.04-2.04-0.08-0.37-0.14-0.74-0.2-1.11-1.03-0.67-1.74-1.93-1.83-3.19-0.12-1.64 0.55-3.22 1.46-4.61 0.01-0.29 0.03-0.59 0.05-0.88-1.55-2.07-1.2-5.37 0.81-7.03 0.01-0.08 0.03-0.17 0.04-0.25-0.96-1.24-1.33-2.91-0.96-4.43 0.34-1.42 1.24-2.52 2.29-3.09 0.06-0.34 0.12-0.67 0.18-1-0.61-0.4-1.07-1.07-1.22-1.79-0.26-1.28 0.25-2.59 0.88-3.74-1.18-0.34-2.13-1.38-2.36-2.58s0.26-2.52 1.23-3.27c-0.03 0.03-0.07 0.04-0.1 0.04-0.57 0-1.47-3.18-1.47-3.54 0.03-1.33 0.72-2.73 1.87-3.46 0.23-0.14 0.44-0.26 0.64-0.34-0.07-0.93-0.13-1.84-0.17-2.73-0.1 0.02-0.19 0.03-0.29 0.03-0.34 0-0.68-0.11-0.95-0.32-0.54-0.43-0.75-1.2-0.61-1.88s0.6-1.26 1.18-1.65c-0.93-0.49-1.52-1.55-1.46-2.6 0.07-1.05 0.79-2.03 1.77-2.39-0.81-0.83-1.01-2.2-0.47-3.23 0.27-0.5 1.38-1.56 2.18-1.56 0.05 0 0.1 0 0.14 0.01 0.07-0.18 0.14-0.35 0.21-0.52-0.01-0.01-0.02-0.03-0.02-0.04-0.21-0.16-0.39-0.34-0.55-0.57-1.28-1.83-1.61-6.11-0.93-9.54 0.14-0.71 0.4-1.14 0.8-1.14 0.26 0 0.58 0.18 0.96 0.57 0.95 0.97 2.39 3.14 4.13 5.04 0.02 0 0.04 0 0.06 0.01 0.05 0.01 0.1 0.04 0.14 0.06 0.02-0.01 0.04-0.03 0.07-0.04-0.19-0.79 0.16-1.69 1.4-2.67 0.56-0.44 1.26-0.66 1.97-0.66 0.86 0 1.73 0.32 2.33 0.94 0.41-0.48 1.05-0.76 1.68-0.76 0.14 0 0.27 0.01 0.41 0.04 0.74 0.15 1.39 0.71 1.64 1.43 0.02 0 0.04 0 0.06 0.01 0.34-0.34 0.81-0.5 1.29-0.5 0.51 0 1.04 0.19 1.41 0.54 0.23 0.22 0.4 0.49 0.53 0.78 0.54 0.22 1.04 0.5 1.52 0.8 1.72-1.89 3.14-4.04 4.09-5 0.46-0.4 0.78-0.58 1.04-0.58m0-1.94c-0.82 0-1.58 0.37-2.34 1.14-0.53 0.54-1.11 1.29-1.79 2.17-0.39 0.51-0.82 1.06-1.26 1.61-0.12-0.15-0.24-0.28-0.38-0.41-0.72-0.67-1.72-1.06-2.74-1.06-0.24 0-0.47 0.02-0.69 0.06-0.54-0.48-1.2-0.81-1.92-0.96-0.26-0.05-0.52-0.08-0.79-0.08-0.58 0-1.15 0.12-1.68 0.36-0.71-0.34-1.51-0.53-2.33-0.53-1.17 0-2.3 0.38-3.18 1.08-0.31 0.25-0.58 0.49-0.81 0.73-0.21-0.27-0.42-0.54-0.62-0.8-0.67-0.88-1.26-1.63-1.79-2.17-0.76-0.77-1.52-1.14-2.34-1.14-0.51 0-2.21 0.19-2.7 2.7-0.62 3.15-0.54 7.34 0.67 10.01-0.72 0.54-1.27 1.21-1.51 1.68-0.59 1.11-0.68 2.41-0.33 3.58-0.69 0.77-1.13 1.77-1.2 2.83-0.06 1 0.21 1.99 0.75 2.82-0.2 0.36-0.34 0.75-0.43 1.15-0.3 1.43 0.2 2.92 1.3 3.79 0.19 0.15 0.39 0.28 0.6 0.38v0.07c-1.44 1.08-2.38 2.93-2.43 4.81-0.01 0.49 0.4 2.21 1 3.53-0.63 1.09-0.87 2.4-0.63 3.66 0.23 1.19 0.87 2.25 1.77 3.02-0.41 1.18-0.5 2.27-0.29 3.31 0.12 0.59 0.36 1.16 0.7 1.67-0.93 0.88-1.61 2.05-1.92 3.37-0.38 1.59-0.19 3.29 0.51 4.76-1.65 2.21-1.9 5.37-0.55 7.82-1.06 1.8-1.53 3.56-1.4 5.22 0.11 1.5 0.79 2.94 1.84 3.96-0.25 0.46-0.48 0.95-0.7 1.48-0.78 1.86-0.74 3.81 0.09 5.34 0.67 1.24 1.94 2.14 3.29 2.39 0.12 0.37 0.27 0.72 0.45 1.07-0.21 0.69-0.29 1.41-0.24 2.11 0 0.03 0.25 1.41 0.9 2.64-0.58 1.06-0.82 2.32-0.64 3.53 0.15 0.97 0.57 1.89 1.18 2.64-0.42 0.77-0.63 1.66-0.55 2.57 0.09 1.03 0.56 2 1.26 2.73-0.17 1.08 0.11 2.3 0.78 3.23 0.29 0.41 0.61 0.75 0.89 1.05 0.31 0.33 0.64 0.68 0.71 0.92 0.05 0.17 0.05 0.51 0.05 0.84s0 0.7 0.04 1.1c0.07 0.67 0.29 1.28 0.6 1.78-0.32 0.86-0.35 1.83-0.03 2.71 0.17 0.46 0.43 0.89 0.76 1.26v0.19 0.05c0 2.74 2.23 4.97 4.97 4.97h0.93c1.23 0 2.36-0.45 3.23-1.19 0.86 1.5 2.47 2.51 4.32 2.51h0.92c2.74 0 4.97-2.23 4.97-4.97v-0.05c0-0.81-0.2-1.6-0.58-2.31 0.43-0.93 0.64-1.97 0.64-2.95 1.28-0.78 2.13-2.28 2.3-3.75 0.1-0.81 0.04-1.59-0.01-2.27-0.04-0.62-0.08-1.2 0-1.68 0.06-0.39 0.23-0.84 0.41-1.32 0.23-0.62 0.49-1.32 0.61-2.12 0.08-0.5 0.02-1.5-0.07-2.54 1.28 0.54 2.59 0.83 3.79 0.83 0.39 0 0.77-0.03 1.13-0.09 0.83 0.47 1.79 0.72 2.75 0.72 0.73 0 1.43-0.14 2.09-0.42 0.03-0.01 0.07-0.03 0.1-0.04 0.14 1.38 0.77 2.7 1.72 3.68-0.32 0.79-0.44 1.66-0.32 2.5 0.12 0.91 0.51 1.78 1.08 2.48-0.34 0.93-0.41 1.97-0.15 2.94 0.22 0.82 0.67 1.56 1.26 2.14-0.19 0.79-0.14 1.63 0.22 2.39 0.44 0.95 1.29 1.64 2.29 1.9 0.14 0.89 0.53 1.73 1.13 2.43 0.86 1.01 2.07 1.63 3.39 1.73l0.92 0.07c0.13 0.01 0.26 0.02 0.39 0.02 1.97 0 3.71-1.18 4.51-2.88 0.61 2.05 2.52 3.55 4.77 3.55h0.92c2.74 0 4.97-2.23 4.97-4.97v-0.05c0-0.32-0.03-0.65-0.1-0.97 0.25-0.82 0.35-1.72 0.3-2.58 1.17-0.79 2.02-2.04 2.31-3.51 0.35-1.8-0.09-3.53-0.44-4.92l-0.06-0.25 1.06-3.3 0.62-1.96c0.52-1.64 1.2-3.75 0.99-5.94 1.35-0.84 2.39-2.19 2.85-3.8 0.46-1.59 0.31-3.2-0.38-4.54 0.63-1.28 0.85-2.76 0.66-4.2 2.47-0.31 4.26-1.73 4.98-4.01 0.12-0.37 0.3-1.11 0.24-1.93 0.21-0.16 0.42-0.33 0.6-0.53 0.86-0.89 1.33-2.08 1.29-3.26-0.06-1.61-1.05-3.04-2.43-3.79 0.03-1.4-0.55-2.81-1.68-3.73-0.79-0.65-1.82-1-2.9-1-0.12 0-0.24 0-0.36 0.01-0.14-0.3-0.31-0.55-0.48-0.76-0.87-1.09-2.31-1.72-4.1-1.79-0.49-0.67-1.03-1.29-1.62-1.88 0.02-0.96-0.22-1.88-0.7-2.67-0.81-1.34-2.34-2.17-3.98-2.17-0.17 0-0.35 0.01-0.52 0.03-0.73-1.22-1.96-2.15-3.39-2.43-0.3-0.06-0.61-0.09-0.92-0.09-0.96 0-1.91 0.29-2.73 0.79-1-0.94-2.33-1.49-3.72-1.49h-0.21c-1.13 0.05-2.23 0.48-3.13 1.2-2.6-0.23-5.46-0.36-8.53-0.37h-0.26c-1.68 0-3.37 0.08-5.07 0.23 0.01-0.03 0.01-0.06 0.02-0.09 0.2-1.17-0.16-2.39-0.97-3.36-0.12-0.14-0.24-0.27-0.37-0.39 0.43-1 0.58-2.12 0.38-3.2-0.18-0.98-0.64-1.88-1.28-2.61 0.61-0.86 0.96-1.91 0.9-3-0.07-1.41-0.79-2.68-1.86-3.52 0.15-0.48 0.23-0.99 0.23-1.51 0.01-1.35-0.49-2.73-1.3-3.74 0-0.18-0.01-0.37-0.01-0.55 0.9-0.49 1.6-1.28 1.94-2.24 0.43-1.22 0.22-2.64-0.56-3.78-0.11-0.17-0.24-0.33-0.37-0.47 0.39-0.94 0.46-2.02 0.1-3.02s-1.12-1.82-2.07-2.3c0.01-0.85-0.24-1.69-0.72-2.38 0-0.01-0.01-0.01-0.01-0.02 1.48-2.61 1.62-7.19 0.95-10.57-0.52-2.47-2.22-2.67-2.72-2.67z" fill="#A89B93"/><path d="m38 120.79h-0.92c-1.67 0-3.04-1.37-3.04-3.04v-0.05c0-1.67 1.37-3.04 3.04-3.04h0.92c1.67 0 3.04 1.37 3.04 3.04v0.05c-0.01 1.67-1.37 3.04-3.04 3.04z" fill="#33423F"/><path d="m46.46 122.11h-0.92c-1.67 0-3.04-1.37-3.04-3.04v-0.05c0-1.67 1.37-3.04 3.04-3.04h0.92c1.67 0 3.04 1.37 3.04 3.04v0.05c0 1.67-1.37 3.04-3.04 3.04z" fill="#33423F"/><path d="m76.29 121.43-0.92-0.07c-1.66-0.13-2.92-1.6-2.79-3.26v-0.05c0.13-1.66 1.6-2.92 3.26-2.79l0.92 0.07c1.66 0.13 2.92 1.6 2.79 3.26v0.05c-0.13 1.66-1.6 2.92-3.26 2.79z" fill="#33423F"/><path d="m86.72 122.11h-0.92c-1.67 0-3.04-1.37-3.04-3.04v-0.05c0-1.67 1.37-3.04 3.04-3.04h0.92c1.67 0 3.04 1.37 3.04 3.04v0.05c-0.01 1.67-1.37 3.04-3.04 3.04z" fill="#33423F"/><linearGradient id="e" x1="32.444" x2="26.868" y1="16.952" y2="6.6107" gradientUnits="userSpaceOnUse"><stop stop-color="#AA9D94" offset="0"/><stop stop-color="#AEA197" offset=".4372"/><stop stop-color="#BAABA0" offset=".8658"/><stop stop-color="#BFB0A4" offset=".9992"/></linearGradient><path d="m35.11 13.76c3.14 2.18-5.19 6.07-7.46 2.81-1.28-1.83-1.61-6.11-0.93-9.54 0.23-1.17 0.78-1.57 1.76-0.58 1.38 1.41 3.76 5.32 6.63 7.31z" fill="url(#e)"/><linearGradient id="d" x1="47.82" x2="52.687" y1="15.891" y2="6.5635" gradientUnits="userSpaceOnUse"><stop stop-color="#AA9D94" offset="0"/><stop stop-color="#AEA197" offset=".4372"/><stop stop-color="#BAABA0" offset=".8658"/><stop stop-color="#BFB0A4" offset=".9992"/></linearGradient><path d="m44.58 13.76c-3.14 2.18 5.19 6.07 7.46 2.81 1.28-1.83 1.61-6.11 0.93-9.54-0.23-1.17-0.78-1.57-1.76-0.58-1.39 1.41-3.77 5.32-6.63 7.31z" fill="url(#d)"/><path d="m32.96 13.29c1.97 1.37-3.25 3.8-4.68 1.76-0.8-1.15-1.01-3.83-0.58-5.98 0.14-0.73 0.49-0.99 1.1-0.36 0.87 0.88 2.36 3.33 4.16 4.58z" fill="#736357"/><path d="m46.98 13.29c-1.97 1.37 3.25 3.8 4.68 1.76 0.8-1.15 1.01-3.83 0.58-5.98-0.14-0.73-0.49-0.99-1.1-0.36-0.87 0.88-2.36 3.33-4.16 4.58z" fill="#736357"/><path d="m76.64 116.92-4.32 0.11s-18.15-50.44 6.5-50.44c13.62 0.01-2.18 50.33-2.18 50.33z" fill="#AA9D94"/><linearGradient id="c" x1="74.3" x2="77.004" y1="95.98" y2="117.07" gradientUnits="userSpaceOnUse"><stop stop-color="#8F847D" offset=".00082131"/><stop stop-color="#938880" offset=".4176"/><stop stop-color="#9F9289" offset=".8262"/><stop stop-color="#A6998F" offset=".997"/></linearGradient><path d="m66.5 100.49c0 1.63 1.01 3.21 2.44 3.81-0.76 0.63-1.16 1.71-1.03 2.72s0.81 1.93 1.7 2.31c-0.76 0.68-1.09 1.85-0.82 2.86s1.14 1.81 2.12 1.96c-0.76 0.37-1.13 1.45-0.76 2.25s1.41 1.14 2.14 0.72c0.52 0.68 1.44 0.99 2.24 0.76s1.43-1 1.55-1.87c0.35 0.91 1.36 1.47 2.26 1.26s1.6-1.17 1.55-2.15c0.45 0.34 1.12 0.14 1.48-0.3 0.37-0.44 0.5-1.04 0.58-1.62 0.34-2.31 0.12-4.7-0.63-6.89 1.66-1.55 2.4-4.12 1.84-6.39s-2.38-4.13-4.54-4.63c-0.48-1.76-2.03-3.13-3.75-3.32s-3.5 0.82-4.31 2.44c-1.43-1.04-2.46 0.54-2.71 1.82-0.28 1.49-1.35 2.7-1.35 4.26z" fill="url(#c)"/><linearGradient id="b" x1="36.198" x2="36.198" y1="90.788" y2="115.47" gradientUnits="userSpaceOnUse"><stop stop-color="#8F847D" offset=".00082131"/><stop stop-color="#938880" offset=".4176"/><stop stop-color="#9F9289" offset=".8262"/><stop stop-color="#A6998F" offset=".997"/></linearGradient><path d="m44.01 98.64c-0.17-1.07-0.33-2.14-0.5-3.21-0.15-0.99-0.32-2-0.66-2.92 1.52-12.74 1.94-24.19-4.88-24.19-6.52 0-8.01 8.42-7.56 18.21-0.29 0.08-0.59 0.24-0.9 0.49-0.96 0.78-1.54 2.08-1.44 3.33 0.02 0.29 1.02 3.1 1.48 2.72-0.94 0.78-1.43 2.08-1.24 3.31 0.19 1.22 1.04 2.31 2.16 2.76-0.97 0.41-1.61 1.5-1.52 2.58 0.09 1.07 0.92 2.03 1.94 2.26-0.97 0.38-0.87 1.88-0.25 2.74s1.56 1.5 1.88 2.51c0.23 0.74 0.09 1.54 0.18 2.32 0.09 0.77 0.57 1.63 1.32 1.64-0.79 0.46-1.17 1.54-0.86 2.41 0.32 0.87 1.29 1.43 2.18 1.25 0.47-0.1 1.3-0.18 2.03-0.36 0.24 0.59 0.72 0.95 1.61 0.74 1.56-0.37 2.63-2.43 2.08-4 1.15-0.41 2.07-1.48 2.35-2.72 0.28-1.25-0.09-2.64-0.94-3.55 1.08-1.31 1.74-3.01 1.84-4.74 0.07-1.2-0.11-2.4-0.3-3.58z" fill="url(#b)"/><linearGradient id="a" x1="64" x2="64" y1="8.1933" y2="119.31" gradientUnits="userSpaceOnUse"><stop stop-color="#E3D3C8" offset=".00018029"/><stop stop-color="#DCCCC2" offset=".2508"/><stop stop-color="#C8B9B0" offset=".6174"/><stop stop-color="#AD9F97" offset=".9969"/></linearGradient><path d="m104.67 73.39c-0.05-1.42-1.49-2.64-2.9-2.46 0.78-1.1 0.55-2.79-0.5-3.64-1.04-0.85-2.74-0.73-3.66 0.26 0.62-2.74-1.66-3.54-3.96-3.35-0.68-1.11-1.55-2.14-2.65-3.09 0.2-0.82 0.13-1.69-0.31-2.41-0.83-1.36-3.04-1.71-4.05-0.48 0.04-1.48-1.1-2.91-2.56-3.19-1.28-0.25-2.67 0.41-3.34 1.52l-0.42-0.09c-0.56-1.3-1.95-2.24-3.38-2.18-0.97 0.04-1.89 0.54-2.52 1.28-2.72-0.28-5.79-0.43-9.24-0.45-2.33-0.01-4.59 0.13-6.77 0.4-0.76 0.09-1.49-0.13-2.06-0.57 0.82-0.36 1.48-1.06 1.63-1.94 0.24-1.43-1.25-2.95-2.63-2.52 1.25-0.76 1.94-2.32 1.68-3.75-0.27-1.43-1.48-2.64-2.92-2.9 1.41-0.17 2.57-1.55 2.5-2.97s-1.36-2.68-2.79-2.71c1.95-1.57 1.12-4.34-0.12-5.37-0.02-0.93-0.05-1.84-0.08-2.73 0.91-0.07 1.79-0.63 2.1-1.49 0.48-1.37-0.66-3.05-2.12-3.11 1.08-0.43 1.69-1.78 1.3-2.87-0.32-0.9-1.29-1.5-2.24-1.48-0.04-0.2-0.08-0.4-0.13-0.6 0.29-0.69 0.24-1.53-0.19-2.15-0.15-0.22-0.35-0.4-0.58-0.54-0.15-0.44-0.32-0.86-0.5-1.27 0.11-0.15 0.2-0.31 0.25-0.49 0.3-0.98-0.42-2.2-1.45-2.24-0.05-1.21-1.47-2.51-2.7-2.2-0.54-0.37-1.13-0.68-1.76-0.95-0.12-0.29-0.29-0.56-0.53-0.78-0.73-0.68-2-0.74-2.71-0.04-0.02 0-0.04 0-0.06-0.01-0.25-0.72-0.89-1.28-1.64-1.43-0.76-0.15-1.59 0.14-2.09 0.72-1.09-1.13-3.07-1.26-4.3-0.28-1.24 0.98-1.6 1.88-1.4 2.67-0.02 0.01-0.04 0.03-0.07 0.04-0.05-0.02-0.09-0.04-0.14-0.06-0.86-0.25-1.94 0.32-2.02 1.21-1.79-1.72-3.94 2.58-2.43 4.46-0.07 0.17-0.14 0.34-0.21 0.52-0.81-0.14-2.04 1.02-2.32 1.55-0.54 1.03-0.35 2.4 0.47 3.23-0.98 0.37-1.71 1.35-1.77 2.39-0.07 1.05 0.53 2.11 1.46 2.6-0.57 0.39-1.03 0.98-1.18 1.65-0.14 0.68 0.07 1.45 0.61 1.88 0.34 0.27 0.82 0.38 1.24 0.29 0.04 0.89 0.1 1.8 0.17 2.73-0.2 0.09-0.42 0.2-0.64 0.34-1.15 0.73-1.83 2.13-1.87 3.46-0.01 0.37 1 3.94 1.57 3.5-0.97 0.75-1.46 2.07-1.23 3.27s1.18 2.24 2.36 2.58c-0.63 1.14-1.14 2.46-0.88 3.74 0.14 0.72 0.61 1.39 1.22 1.79-0.06 0.33-0.12 0.66-0.18 1-1.04 0.57-1.94 1.67-2.29 3.09-0.37 1.52 0 3.2 0.96 4.43-0.01 0.08-0.03 0.17-0.04 0.25-2 1.66-2.35 4.96-0.81 7.03-0.02 0.29-0.03 0.59-0.05 0.88-0.91 1.39-1.58 2.97-1.46 4.61 0.09 1.26 0.8 2.52 1.83 3.19 0.06 0.37 0.13 0.74 0.2 1.11-0.45 0.7-0.8 1.45-1.04 2.04-0.49 1.17-0.6 2.56 0.01 3.67 0.6 1.11 2.05 1.8 3.21 1.29-0.01 1.5 0.74 2.98 1.96 3.86 0.73 0.52 1.61 0.81 2.51 0.86 0.81 0.7 1.7 1.36 2.67 1.98 0.32 0.3 0.7 0.53 1.12 0.66 0.57 0.32 1.16 0.63 1.78 0.92 0.3 0.14 0.58 0.34 0.81 0.56-0.47 0.81-0.68 1.88-0.69 2.58-0.01 1.38 0.6 2.76 1.64 3.68-1.1 0.6-1.77 1.92-1.61 3.17 0.17 1.25 1.15 2.34 2.37 2.64-0.77 0.54-1.18 1.55-1 2.47s0.94 1.71 1.85 1.92c-1.36 0.8-1.57 3.01-0.37 4.05 0.36 0.31 0.8 0.48 1.25 0.53 0.18 1.12 0.34 1.89 0.45 2.1 0.97 1.9 3.39 1.61 4.53 0.2 0.1 0.01 0.21 0.01 0.33 0 2.14-0.24 2.78-3.56 2.14-5.13 1.33 0.23 2.39-1.21 2.55-2.55s-0.22-2.7 0-4.03c0.19-1.17 0.83-2.23 1.01-3.41 0.12-0.78-0.33-4.58-0.44-5.15 0.39 0.04 0.78 0.07 1.19 0.1 2.03 1.38 4.58 2.1 6.41 1.45 0.99 0.88 2.49 1.13 3.7 0.61 0.85-0.36 1.53-1.09 1.88-1.94 0.22-0.01 0.45-0.02 0.67-0.03 0.64 1.15 1.86 1.99 3.19 2.08 1.57 0.11 3.15-0.86 3.82-2.27h0.52c1.1 1.1 2.98 1.26 4.4 0.54 0.17 0.12 0.33 0.25 0.47 0.4-0.28 0.55-0.37 1.31-0.1 2.23 0.26 0.88 0.92 1.63 1.08 2.53 0.24 1.33-0.64 2.6-0.83 3.94-0.26 1.79 0.87 3.68 2.57 4.3-0.94 1.55-0.91 3.63 0.08 5.15 0.41 0.62 1.06 1.18 1.78 1.2 0.47 1 1.49 1.67 2.63 1.65 0.23 0 0.46-0.04 0.68-0.1 0.08 0.04 0.17 0.08 0.27 0.12 2.88 1.01 3.57-3.04 2.82-4.81 1.36-0.3 2.35-1.39 2.62-2.76 0.26-1.35-0.08-2.73-0.42-4.07-0.07-0.26-0.13-0.53-0.2-0.79 0.62-1.93 1.23-3.86 1.85-5.79 0.68-2.11 1.35-4.38 0.63-6.48 3.12-0.8 4.48-4.91 2.37-7.16 1.44-1.78 1.42-4.37 0.24-6.26-0.08-0.13 4.65 1.24 5.87-2.59 0.29-0.92 0.27-2.14-0.66-2.4 1.44 0.1 2.78-1.22 2.73-2.64z" fill="url(#a)"/><path d="m49.97 26.01c0-4.4-6.27-2.82-10.15-2.82s-10.15-1.58-10.15 2.82c0 2.58 1.73 13.6 10.15 13.6s10.15-11.02 10.15-13.6z" fill="#F6ECE3"/><path d="m41.02 37.54h-2.42c-2.44 0-4.44-2-4.44-4.44s2-4.44 4.44-4.44h2.42c2.44 0 4.44 2 4.44 4.44s-2 4.44-4.44 4.44z" fill="#fff"/><g fill="#1E0E00"><circle cx="33.98" cy="27.33" r="2"/><circle cx="45.64" cy="27.33" r="2"/></g><path d="m36.88 30.43s3.04 3.85 6.08 0" fill="none" stroke="#595959" stroke-linecap="round" stroke-linejoin="round" stroke-miterlimit="10" stroke-width=".9685"/><g fill="none" stroke="#404040" stroke-linecap="round" stroke-linejoin="round" stroke-miterlimit="10" stroke-width=".7264"><path d="m39.9 33.79c0.02 1.15-0.9 2.1-2.05 2.12-0.53 0.01-1.01-0.18-1.38-0.49"/><path d="m39.89 32.46c0 2.77 0.97 3.4 2.12 3.38 0.53-0.01 1-0.21 1.36-0.54"/></g><path d="m39.43 70.33c-0.62 0.9-0.4 2.27 0.46 2.94 0.87 0.67 2.25 0.52 2.96-0.31 0.05 0.85 0.9 1.57 1.75 1.49 0.85-0.09 1.53-0.96 1.41-1.81" fill="none" stroke="#A89E94" stroke-linecap="round" stroke-linejoin="round" stroke-miterlimit="10" stroke-width=".9685"/><path d="m77.06 72.42c0.14 1.05 1.29 1.84 2.32 1.59s1.69-1.48 1.33-2.48c1.01 1.03 3.03 0.69 3.64-0.62 1.04 0.1 2.04-0.92 1.91-1.96-0.12-1.04-1.33-1.8-2.32-1.45" fill="none" stroke="#A89E94" stroke-linecap="round" stroke-linejoin="round" stroke-miterlimit="10" stroke-width=".8237"/><path d="m32 52.17c-0.34 0.84 0.26 1.91 1.15 2.06s1.81-0.66 1.77-1.56c0.12 0.74 1.05 1.22 1.72 0.89s0.85-1.37 0.33-1.91" fill="none" stroke="#A89E94" stroke-linecap="round" stroke-linejoin="round" stroke-miterlimit="10" stroke-width=".9685"/><path d="m42.79 103.44c-0.55 1.01 0.96 2.3 1.87 1.61-0.11 0.95 1.49 1.46 1.95 0.61" fill="none" stroke="#A89E94" stroke-linecap="round" stroke-linejoin="round" stroke-miterlimit="10" stroke-width=".9685"/><path d="m79.66 90.08c1.11 1.08 3.34 0.39 3.64-1.13 0.21 1.09 1.51 1.83 2.55 1.45s1.56-1.79 1.01-2.76" fill="none" stroke="#A89E94" stroke-linecap="round" stroke-linejoin="round" stroke-miterlimit="10" stroke-width="1.2545"/><path d="m49.31 85.21c-0.06 0.76 0.6 1.49 1.36 1.52s1.47-0.65 1.48-1.41c0.53 0.73 1.6 0.99 2.4 0.59s1.24-1.42 0.97-2.28" fill="none" stroke="#A89E94" stroke-linecap="round" stroke-linejoin="round" stroke-miterlimit="10" stroke-width=".9685"/></svg>
