<svg enable-background="new 0 0 128 128" viewBox="0 0 128 128" xmlns="http://www.w3.org/2000/svg"><path d="m9.45 49.52c-0.43-0.87 0.33-1.86 1.29-1.66l38.75 7.87c2.16 0.44 4.69 1.12 3.95 4.89-0.03 0.13-0.07 0.26-0.14 0.37l-8.67 15.46c-0.03 0.06-0.08 0.12-0.12 0.18-5.02 6.27-8.78 2.83-12.02 0.1-3.33-2.81-6.68-5.46-9.72-8.59-3.02-3.11-5.8-6.47-8.29-10.01-1.21-1.72-2.35-3.48-3.43-5.28-0.26-0.42-0.93-1.97-1.6-3.33z" fill="#FCE000"/><path d="m116.54 49.52c0.43-0.87-0.33-1.86-1.29-1.66l-38.75 7.87c-2.16 0.44-4.69 1.12-3.95 4.89 0.03 0.13 0.07 0.26 0.14 0.37l8.67 15.46c0.03 0.06 0.08 0.12 0.12 0.18 5.02 6.27 8.78 2.83 12.02 0.1 3.33-2.81 6.68-5.46 9.72-8.59 3.02-3.11 5.8-6.47 8.29-10.01 1.21-1.72 2.35-3.48 3.43-5.28 0.26-0.42 0.93-1.97 1.6-3.33z" fill="#FCE000"/><path d="m49.85 106.29v8.1c-3.86-0.37-5.06-0.79-9.06-1.31-1.03-0.13-1.4 0.76-1.34 1.26 0.04 0.31 0.25 0.59 0.57 0.73l4.79 1.36-6.64 2.97c-0.72 0.46-0.9 1.37-0.39 2.02 0.4 0.53 1.14 0.75 1.82 0.55l6.98-2.18-1.74 3.09c-0.35 0.63-0.08 1.4 0.61 1.73 0.58 0.27 1.29 0.14 1.71-0.31l7.19-7.69c0.1-0.12 0.16-0.26 0.16-0.42v-9.19l-4.66-0.71z" fill="#FF8F00" stroke="#DB6F00" stroke-linecap="round" stroke-linejoin="round" stroke-miterlimit="10" stroke-width="2"/><path d="m78.05 106.29v8.1c3.73-0.37 4.89-0.79 8.76-1.31 0.99-0.13 1.35 0.76 1.29 1.26-0.04 0.31-0.24 0.59-0.55 0.73l-4.63 1.36 6.42 2.97c0.7 0.46 0.87 1.37 0.38 2.02-0.39 0.53-1.11 0.75-1.76 0.55l-6.75-2.18 1.68 3.09c0.34 0.63 0.08 1.4-0.59 1.73-0.56 0.27-1.24 0.14-1.65-0.31l-6.95-7.69c-0.1-0.12-0.15-0.26-0.15-0.42v-9.19l4.5-0.71z" fill="#FF8F00" stroke="#DB6F00" stroke-linecap="round" stroke-linejoin="round" stroke-miterlimit="10" stroke-width="2"/><linearGradient id="c" x1="62.999" x2="62.999" y1="45.203" y2="108.21" gradientUnits="userSpaceOnUse"><stop stop-color="#FFEA00" offset=".3357"/><stop stop-color="#FEE209" offset=".5329"/><stop stop-color="#FCCC20" offset=".8492"/><stop stop-color="#FBC02D" offset=".9914"/></linearGradient><path d="m98.3 74.07c4.36 19.76-17.01 34.79-35.3 34.47-17.45-0.31-39.7-15.1-35.3-34.47 3.25-14.32 19.39-29.67 35.3-29.45 16.36 0.23 31.9 14.07 35.3 29.45z" fill="url(#c)"/><linearGradient id="b" x1="63" x2="63" y1="64.85" y2="6.2615" gradientUnits="userSpaceOnUse"><stop stop-color="#FBC02D" offset=".008617"/><stop stop-color="#FDD219" offset=".1206"/><stop stop-color="#FEE00B" offset=".2505"/><stop stop-color="#FFE803" offset=".4076"/><stop stop-color="#FFEA00" offset=".6643"/></linearGradient><path d="m83.63 18.99c0.88-0.52 1.76-1.05 2.64-1.57 0.85-0.5 0.63-1.79-0.34-1.97-3.48-0.64-8.06-1.05-10.79-1.3-0.92-0.08-1.3-1.21-0.64-1.84l3.9-3.72c0.74-0.71 0.16-1.97-0.87-1.85-4.81 0.6-9.54 1.86-13.98 3.7-1.01 0.42-1.92-0.77-1.25-1.64l2.54-3.27c1.03-1.33 0.29-2.46-0.7-2.22-2.11 0.52-5.45 1.72-10.03 4.49-10.45 6.32-19.59 20.36-19.59 32.3 0 15.42 12.75 25.93 28.48 25.93s28.48-10.51 28.48-25.93c0-7.56-3.06-14.41-8.04-19.43-0.5-0.49-0.41-1.32 0.19-1.68z" fill="url(#b)"/><path d="m115.26 47.85-27.52 5.59c2.38-3.79 3.74-8.3 3.74-13.33 0-7.56-3.06-14.41-8.04-19.43-0.5-0.5-0.41-1.33 0.2-1.69 0.88-0.52 1.76-1.05 2.64-1.57 0.85-0.5 0.63-1.79-0.34-1.97-3.48-0.64-8.06-1.05-10.79-1.3-0.92-0.08-1.3-1.21-0.64-1.84l3.9-3.72c0.74-0.71 0.16-1.97-0.87-1.85-4.81 0.6-9.54 1.86-13.98 3.7-1.01 0.42-1.92-0.77-1.25-1.64l2.54-3.27c1.03-1.33 0.29-2.46-0.7-2.22-2.11 0.52-5.45 1.72-10.03 4.49-10.45 6.32-19.59 20.36-19.59 32.3 0 5.03 1.37 9.54 3.74 13.33l-27.53-5.59c-0.95-0.19-1.72 0.79-1.29 1.66 0.67 1.36 1.34 2.91 1.58 3.32 1.07 1.8 2.22 3.57 3.43 5.28 2.5 3.55 5.27 6.9 8.29 10.01 1.67 1.72 3.43 3.29 5.23 4.82-0.1 0.38-0.2 0.75-0.29 1.12-4.4 19.37 17.85 34.16 35.3 34.47 18.3 0.32 39.66-14.71 35.3-34.47-0.08-0.38-0.18-0.75-0.28-1.13 1.79-1.53 3.55-3.1 5.22-4.81 3.02-3.11 5.8-6.47 8.29-10.01 1.21-1.72 2.35-3.48 3.43-5.28 0.24-0.4 0.91-1.96 1.58-3.32 0.45-0.85-0.32-1.84-1.27-1.65z" fill="none" stroke="#FCC13C" stroke-linecap="round" stroke-linejoin="round" stroke-miterlimit="10" stroke-width="3"/><path d="m57.48 45.22c-0.56-0.76-0.23-1.67 0.66-2l9.72-0.04c0.89 0.33 1.22 1.41 0.66 2.17l-3.78 7.12c-0.79 1.06-2.37 1.08-3.19 0.03l-4.07-7.28z" fill="#603813"/><linearGradient id="a" x1="63.003" x2="63.003" y1="41.738" y2="48.455" gradientUnits="userSpaceOnUse"><stop stop-color="#F15A24" offset="0"/><stop stop-color="#ED1C24" offset="1"/></linearGradient><path d="m57.48 45.33c-0.56-0.76-0.23-1.85 0.66-2.17l1.35-0.49c2.27-0.83 4.76-0.83 7.03 0l1.35 0.49c0.89 0.33 1.22 1.41 0.66 2.17l-5.35 4.35-5.7-4.35z" fill="url(#a)"/><circle cx="50.27" cy="36.47" r="7" fill="#fff"/><circle cx="50.27" cy="36.47" r="4.05"/><circle cx="75.73" cy="36.47" r="7" fill="#fff"/><circle cx="75.73" cy="36.47" r="4.05"/></svg>
