<svg enable-background="new 0 0 128 128" viewBox="0 0 128 128" xmlns="http://www.w3.org/2000/svg" xmlns:xlink="http://www.w3.org/1999/xlink"><linearGradient id="c" x1="64" x2="64" y1="51.633" y2="123.76" gradientUnits="userSpaceOnUse"><stop stop-color="#fff" offset="0"/><stop stop-color="#C8C9CA" offset="1"/></linearGradient><path d="m113.2 124h-98.4c-5.52 0-10-4.48-10-10v-85.41c0-5.76 4.67-10.43 10.43-10.43h97.53c5.76 0 10.43 4.67 10.43 10.43v85.41c0.01 5.52-4.47 10-9.99 10z" fill="url(#c)"/><path d="M123.2,51.88H4.8v-39.8c0-4.42,3.58-8,8-8h102.4c4.42,0,8,3.58,8,8V51.88z" fill="#1E88E5"/><g opacity=".2"><path d="m114.62 7c3.08 0 5.58 2.5 5.58 5.58v100.62c0 4.26-3.46 7.72-7.72 7.72h-96.96c-4.26 0-7.72-3.46-7.72-7.72v-100.62c0-3.08 2.5-5.58 5.58-5.58h101.24m0-3h-101.24c-4.74 0-8.58 3.84-8.58 8.58v100.62c0 5.92 4.8 10.72 10.72 10.72h96.96c5.92 0 10.72-4.8 10.72-10.72v-100.62c0-4.74-3.84-8.58-8.58-8.58z" fill="#424242"/></g><g fill="#9E9E9E"><path d="m84.21 84.81h-2.79c-0.64 0-1.17-0.52-1.17-1.17v-2.63c0-0.64 0.52-1.17 1.17-1.17h2.79c0.64 0 1.17 0.52 1.17 1.17v2.63c0 0.64-0.52 1.17-1.17 1.17z"/><path d="m98.17 84.81h-2.79c-0.64 0-1.17-0.52-1.17-1.17v-2.63c0-0.64 0.52-1.17 1.17-1.17h2.79c0.64 0 1.17 0.52 1.17 1.17v2.63c0 0.64-0.53 1.17-1.17 1.17z"/><path d="m112.13 84.81h-2.79c-0.64 0-1.17-0.52-1.17-1.17v-2.63c0-0.64 0.52-1.17 1.17-1.17h2.79c0.64 0 1.17 0.52 1.17 1.17v2.63c-0.01 0.64-0.53 1.17-1.17 1.17z"/><path d="m84.21 97.14h-2.79c-0.64 0-1.17-0.52-1.17-1.17v-2.63c0-0.64 0.52-1.17 1.17-1.17h2.79c0.64 0 1.17 0.52 1.17 1.17v2.63c0 0.64-0.52 1.17-1.17 1.17z"/><path d="m98.17 97.14h-2.79c-0.64 0-1.17-0.52-1.17-1.17v-2.63c0-0.64 0.52-1.17 1.17-1.17h2.79c0.64 0 1.17 0.52 1.17 1.17v2.63c0 0.64-0.53 1.17-1.17 1.17z"/><path d="m112.13 97.14h-2.79c-0.64 0-1.17-0.52-1.17-1.17v-2.63c0-0.64 0.52-1.17 1.17-1.17h2.79c0.64 0 1.17 0.52 1.17 1.17v2.63c-0.01 0.64-0.53 1.17-1.17 1.17z"/><path d="m84.21 109.47h-2.79c-0.64 0-1.17-0.52-1.17-1.17v-2.63c0-0.64 0.52-1.17 1.17-1.17h2.79c0.64 0 1.17 0.52 1.17 1.17v2.63c0 0.64-0.52 1.17-1.17 1.17z"/><path d="m98.17 109.47h-2.79c-0.64 0-1.17-0.52-1.17-1.17v-2.63c0-0.64 0.52-1.17 1.17-1.17h2.79c0.64 0 1.17 0.52 1.17 1.17v2.63c0 0.64-0.53 1.17-1.17 1.17z"/><path d="m112.13 109.47h-2.79c-0.64 0-1.17-0.52-1.17-1.17v-2.63c0-0.64 0.52-1.17 1.17-1.17h2.79c0.64 0 1.17 0.52 1.17 1.17v2.63c-0.01 0.64-0.53 1.17-1.17 1.17z"/></g><g fill="#fff"><path d="m44.88 17.3h4.13v13.87c0 1.28-0.28 2.4-0.85 3.38s-1.36 1.73-2.39 2.26-2.19 0.8-3.48 0.8c-2.12 0-3.77-0.54-4.96-1.62-1.18-1.08-1.78-2.6-1.78-4.58h4.16c0 0.98 0.21 1.71 0.62 2.17 0.41 0.47 1.06 0.7 1.95 0.7 0.79 0 1.42-0.27 1.89-0.81s0.7-1.31 0.7-2.31v-13.86z"/><path d="m61.2 35.83c-0.98 1.19-2.34 1.79-4.07 1.79-1.6 0-2.81-0.46-3.65-1.38s-1.27-2.26-1.29-4.03v-9.76h3.98v9.63c0 1.55 0.71 2.33 2.12 2.33 1.35 0 2.28-0.47 2.78-1.41v-10.55h3.99v14.89h-3.74l-0.12-1.51z"/><path d="M72.26,37.34h-3.99V16.2h3.99V37.34z"/><path d="m81.09 31.71 2.75-9.26h4.27l-5.99 17.21-0.33 0.78c-0.89 1.95-2.36 2.92-4.4 2.92-0.58 0-1.17-0.09-1.76-0.26v-3.01l0.61 0.01c0.75 0 1.31-0.12 1.69-0.34 0.37-0.23 0.66-0.61 0.87-1.14l0.47-1.23-5.22-14.93h4.28l2.76 9.25z"/></g><g fill="#2F2F2F"><path d="m34.82 110.54h-7.46v-28.79l-8.9 2.75v-6.01l15.56-5.57h0.8v37.62z"/><path d="m72.57 77.13-14.53 33.41h-7.87l14.56-31.56h-18.69v-6.01h26.53v4.16z"/></g><g display="none"><g display="inline"><g opacity=".6"><circle cx="64" cy="64" r="28" fill="none" opacity=".61" stroke="#000" stroke-miterlimit="10" stroke-width=".2625"/><line x1="84" x2="84" y2="128" fill="none" opacity=".61" stroke="#000" stroke-miterlimit="10" stroke-width=".25"/><line x1="44" x2="44" y2="128" fill="none" opacity=".61" stroke="#000" stroke-miterlimit="10" stroke-width=".25"/><line x1="64" x2="64" y2="128" fill="none" opacity=".61" stroke="#000" stroke-miterlimit="10" stroke-width=".25"/><line x1="128" y1="64" y2="64" fill="none" opacity=".61" stroke="#000" stroke-miterlimit="10" stroke-width=".25"/><line x1="128" y1="44" y2="44" fill="none" opacity=".61" stroke="#000" stroke-miterlimit="10" stroke-width=".25"/><line x1="128" y1="83.75" y2="83.75" fill="none" opacity=".61" stroke="#000" stroke-miterlimit="10" stroke-width=".25"/><line x1="128" y1="128" fill="none" opacity=".61" stroke="#000" stroke-miterlimit="10" stroke-width=".25"/><line x2="128" y1="128" fill="none" opacity=".61" stroke="#000" stroke-miterlimit="10" stroke-width=".25"/><g opacity=".61"><path d="M64,4.26c32.94,0,59.74,26.8,59.74,59.74S96.94,123.74,64,123.74S4.26,96.94,4.26,64S31.06,4.26,64,4.26 M64,4 C30.86,4,4,30.86,4,64s26.86,60,60,60s60-26.86,60-60S97.14,4,64,4L64,4z"/></g><path d="m107.97 115.97h-87.94c-4.42 0-8.03-3.61-8.03-8.03v-87.91c0-4.42 3.61-8.03 8.03-8.03h87.94c4.42 0 8.03 3.61 8.03 8.03v87.91c0 4.42-3.61 8.03-8.03 8.03z" fill="none" opacity=".61" stroke="#000" stroke-miterlimit="10" stroke-width=".2578"/><path d="m100 124h-72c-4.4 0-8-3.6-8-8v-104c0-4.4 3.6-8 8-8h72c4.4 0 8 3.6 8 8v104c0 4.4-3.6 8-8 8z" fill="none" opacity=".61" stroke="#000" stroke-miterlimit="10" stroke-width=".2628"/><path d="M113.77,108H14.23 C8.6,108,4,103.4,4,97.77V30.28c0-5.63,4.6-10.23,10.23-10.23h99.54c5.63,0,10.23,4.6,10.23,10.23v67.48 C124,103.4,119.4,108,113.77,108z" fill="none" opacity=".61" stroke="#000" stroke-miterlimit="10" stroke-width=".2627"/></g><g opacity=".2"><defs><rect id="b" width="128" height="128" opacity=".2"/></defs><clipPath id="a"><use xlink:href="#b"/></clipPath><g clip-path="url(#a)"><g fill="none" stroke="#000" stroke-miterlimit="10" stroke-width=".25"><line x1="-28" x2="-28" y1="160" y2="-32"/><line x1="-24" x2="-24" y1="160" y2="-32"/><line x1="-20" x2="-20" y1="160" y2="-32"/><line x1="-16" x2="-16" y1="160" y2="-32"/><line x1="-12" x2="-12" y1="160" y2="-32"/><line x1="-8" x2="-8" y1="160" y2="-32"/><line x1="-4" x2="-4" y1="160" y2="-32"/><line y1="160" y2="-32"/><line x1="4" x2="4" y1="160" y2="-32"/><line x1="8" x2="8" y1="160" y2="-32"/><line x1="12" x2="12" y1="160" y2="-32"/><line x1="16" x2="16" y1="160" y2="-32"/><line x1="20" x2="20" y1="160" y2="-32"/><line x1="24" x2="24" y1="160" y2="-32"/><line x1="28" x2="28" y1="160" y2="-32"/><line x1="32" x2="32" y1="160" y2="-32"/><line x1="36" x2="36" y1="160" y2="-32"/><line x1="40" x2="40" y1="160" y2="-32"/><line x1="44" x2="44" y1="160" y2="-32"/><line x1="48" x2="48" y1="160" y2="-32"/><line x1="52" x2="52" y1="160" y2="-32"/><line x1="56" x2="56" y1="160" y2="-32"/><line x1="60" x2="60" y1="160" y2="-32"/><line x1="64" x2="64" y1="160" y2="-32"/><line x1="68" x2="68" y1="160" y2="-32"/><line x1="72" x2="72" y1="160" y2="-32"/><line x1="76" x2="76" y1="160" y2="-32"/><line x1="80" x2="80" y1="160" y2="-32"/><line x1="84" x2="84" y1="160" y2="-32"/><line x1="88" x2="88" y1="160" y2="-32"/><line x1="92" x2="92" y1="160" y2="-32"/><line x1="96" x2="96" y1="160" y2="-32"/><line x1="100" x2="100" y1="160" y2="-32"/><line x1="104" x2="104" y1="160" y2="-32"/><line x1="108" x2="108" y1="160" y2="-32"/><line x1="112" x2="112" y1="160" y2="-32"/><line x1="116" x2="116" y1="160" y2="-32"/><line x1="120" x2="120" y1="160" y2="-32"/><line x1="124" x2="124" y1="160" y2="-32"/><line x1="128" x2="128" y1="160" y2="-32"/><line x1="132" x2="132" y1="160" y2="-32"/><line x1="136" x2="136" y1="160" y2="-32"/><line x1="137" x2="137" y1="166.05" y2="-25.95"/><line x1="144" x2="144" y1="160" y2="-32"/><line x1="148" x2="148" y1="160" y2="-32"/><line x1="152" x2="152" y1="160" y2="-32"/><line x1="156" x2="156" y1="160" y2="-32"/></g><g fill="none" stroke="#000" stroke-miterlimit="10" stroke-width=".25"><line x1="-32" x2="160" y1="-28" y2="-28"/><line x1="-32" x2="160" y1="-24" y2="-24"/><line x1="-32" x2="160" y1="-20" y2="-20"/><line x1="-32" x2="160" y1="-16" y2="-16"/><line x1="-32" x2="160" y1="-12" y2="-12"/><line x1="-32" x2="160" y1="-8" y2="-8"/><line x1="-32" x2="160" y1="-4" y2="-4"/><line x1="-32" x2="160"/><line x1="-32" x2="160" y1="4" y2="4"/><line x1="-32" x2="160" y1="8" y2="8"/><line x1="-32" x2="160" y1="12" y2="12"/><line x1="-32" x2="160" y1="16" y2="16"/><line x1="-32" x2="160" y1="20" y2="20"/><line x1="-32" x2="160" y1="24" y2="24"/><line x1="-32" x2="160" y1="28" y2="28"/><line x1="-32" x2="160" y1="32" y2="32"/><line x1="-32" x2="160" y1="36" y2="36"/><line x1="-32" x2="160" y1="40" y2="40"/><line x1="-32" x2="160" y1="44" y2="44"/><line x1="-32" x2="160" y1="48" y2="48"/><line x1="-32" x2="160" y1="52" y2="52"/><line x1="-32" x2="160" y1="56" y2="56"/><line x1="-32" x2="160" y1="60" y2="60"/><line x1="-32" x2="160" y1="64" y2="64"/><line x1="-32" x2="160" y1="68" y2="68"/><line x1="-32" x2="160" y1="72" y2="72"/><line x1="-32" x2="160" y1="76" y2="76"/><line x1="-32" x2="160" y1="80" y2="80"/><line x1="-32" x2="160" y1="84" y2="84"/><line x1="-32" x2="160" y1="88" y2="88"/><line x1="-32" x2="160" y1="92" y2="92"/><line x1="-32" x2="160" y1="96" y2="96"/><line x1="-32" x2="160" y1="100" y2="100"/><line x1="-32" x2="160" y1="104" y2="104"/><line x1="-32" x2="160" y1="108" y2="108"/><line x1="-32" x2="160" y1="112" y2="112"/><line x1="-32" x2="160" y1="116" y2="116"/><line x1="-32" x2="160" y1="120" y2="120"/><line x1="-32" x2="160" y1="124" y2="124"/><line x1="-32" x2="160" y1="128" y2="128"/><line x1="-32" x2="160" y1="132" y2="132"/><line x1="-32" x2="160" y1="136" y2="136"/><line x1="-32" x2="160" y1="140" y2="140"/><line x1="-32" x2="160" y1="144" y2="144"/><line x1="-32" x2="160" y1="148" y2="148"/><line x1="-32" x2="160" y1="152" y2="152"/><line x1="-32" x2="160" y1="156" y2="156"/></g><path d="m159.75-31.75v191.5h-191.5v-191.5h191.5m0.25-0.25h-192v192h192v-192z"/></g></g><g fill="#F44336"><rect width="4" height="128" opacity=".3"/><rect x="124" width="4" height="128" opacity=".3"/><rect transform="matrix(-1.837e-16 1 -1 -1.837e-16 66 -62)" x="62" y="-58" width="4" height="120" opacity=".3"/><rect transform="matrix(-1.837e-16 1 -1 -1.837e-16 190 62)" x="62" y="66" width="4" height="120" opacity=".3"/></g></g></g></svg>
