<?xml version="1.0" encoding="UTF-8" standalone="no"?>
<svg
   xmlns:dc="http://purl.org/dc/elements/1.1/"
   xmlns:cc="http://creativecommons.org/ns#"
   xmlns:rdf="http://www.w3.org/1999/02/22-rdf-syntax-ns#"
   xmlns:svg="http://www.w3.org/2000/svg"
   xmlns="http://www.w3.org/2000/svg"
   xmlns:sodipodi="http://sodipodi.sourceforge.net/DTD/sodipodi-0.dtd"
   xmlns:inkscape="http://www.inkscape.org/namespaces/inkscape"
   width="128"
   height="128"
   style="enable-background:new 0 0 128 128;"
   version="1.1"
   id="svg12"
   sodipodi:docname="emoji_u1f9d0.svg"
   inkscape:version="0.92+devel unknown">
  <metadata
     id="metadata18">
    <rdf:RDF>
      <cc:Work
         rdf:about="">
        <dc:format>image/svg+xml</dc:format>
        <dc:type
           rdf:resource="http://purl.org/dc/dcmitype/StillImage" />
      </cc:Work>
    </rdf:RDF>
  </metadata>
  <defs
     id="defs16" />
  <sodipodi:namedview
     pagecolor="#ffffff"
     bordercolor="#666666"
     inkscape:document-rotation="0"
     borderopacity="1"
     objecttolerance="10"
     gridtolerance="10"
     guidetolerance="10"
     inkscape:pageopacity="0"
     inkscape:pageshadow="2"
     inkscape:window-width="1680"
     inkscape:window-height="986"
     id="namedview14"
     showgrid="false"
     inkscape:zoom="5.4453125"
     inkscape:cx="77.39576"
     inkscape:cy="34.23526"
     inkscape:window-x="0"
     inkscape:window-y="27"
     inkscape:window-maximized="1"
     inkscape:current-layer="svg12"
     inkscape:snap-bbox="true"
     inkscape:bbox-paths="true"
     inkscape:bbox-nodes="true"
     inkscape:snap-bbox-edge-midpoints="true"
     inkscape:object-paths="true" />
  <path
     d="M64,9.56c-62.41,0-63.88,69.96-63.88,83.8c0,13.86,28.59,25.08,63.88,25.08 c35.28,0,63.88-11.22,63.88-25.08C127.88,79.52,126.4,9.56,64,9.56z"
     style="fill:#FCC21B;"
     id="path2" />
  <path
     style="fill:#2f2f2f"
     d="M 38.496094 43.904297 C 35.798622 45.502809 33.954402 48.831304 33.990234 52.679688 C 34.040234 58.029687 37.720937 62.340781 42.210938 62.300781 C 46.700938 62.250781 50.3 57.879297 50.25 52.529297 C 50.215522 48.826321 48.450321 45.62982 45.888672 44.013672 C 42.822181 44.192726 40.303384 44.086328 38.496094 43.904297 z "
     id="path4" />
  <path
     inkscape:connector-curvature="0"
     id="path6"
     style="fill:#2f2f2f;stroke-width:1"
     d="m 86.31241,59.845706 c 3.34647,-0.0075 6.058007,-3.256833 6.050538,-7.253176 -0.0075,-4.011282 -2.733947,-7.245706 -6.080418,-7.238236 -3.35394,0.0075 -6.072947,3.256833 -6.065477,7.268115 0.01494,3.996343 2.741416,7.230767 6.095357,7.223297 z" />
  <path
     d="M 77.305867,84.75 H 50.374511 c -0.925726,0 -2.371732,-1.34 -2.371732,-3 0,-1.66 1.446006,-3 2.371732,-3 h 26.936933 c 0.925725,0 2.695777,1.34 2.695777,3 0,1.66 -1.775628,3 -2.701354,3 z"
     style="fill:#2f2f2f;stroke-width:0.99999994"
     id="path10"
     inkscape:connector-curvature="0"
     sodipodi:nodetypes="sssssss" />
  <path
     style="color:#000000;font-style:normal;font-variant:normal;font-weight:normal;font-stretch:normal;font-size:medium;line-height:normal;font-family:sans-serif;font-variant-ligatures:normal;font-variant-position:normal;font-variant-caps:normal;font-variant-numeric:normal;font-variant-alternates:normal;font-variant-east-asian:normal;font-feature-settings:normal;text-indent:0;text-align:start;text-decoration:none;text-decoration-line:none;text-decoration-style:solid;text-decoration-color:#000000;letter-spacing:normal;word-spacing:normal;text-transform:none;writing-mode:lr-tb;direction:ltr;text-orientation:mixed;dominant-baseline:auto;baseline-shift:baseline;text-anchor:start;white-space:normal;shape-padding:0;clip-rule:nonzero;display:inline;overflow:visible;visibility:visible;isolation:auto;mix-blend-mode:normal;color-interpolation:sRGB;color-interpolation-filters:linearRGB;solid-color:#000000;solid-opacity:1;vector-effect:none;fill:#2f2f2f;fill-opacity:1;fill-rule:evenodd;stroke:none;stroke-width:4.17999983;stroke-linecap:round;stroke-linejoin:round;stroke-miterlimit:4;stroke-dasharray:none;stroke-dashoffset:0;stroke-opacity:1;filter-blend-mode:normal;filter-gaussianBlur-deviation:0;color-rendering:auto;image-rendering:auto;shape-rendering:auto;text-rendering:auto;enable-background:accumulate;opacity:1"
     d="M 49.974609 36.708984 A 2.0899999 2.0899999 0 0 0 49.619141 36.732422 C 41.564546 37.947001 37.03125 36.771484 37.03125 36.771484 A 2.0899999 2.0899999 0 0 0 34.494141 38.289062 A 2.0899999 2.0899999 0 0 0 36.011719 40.824219 C 36.011719 40.824219 41.537474 42.177847 50.242188 40.865234 A 2.0899999 2.0899999 0 0 0 51.996094 38.486328 A 2.0899999 2.0899999 0 0 0 49.974609 36.708984 z "
     id="path859" />
  <path
     style="color:#000000;font-style:normal;font-variant:normal;font-weight:normal;font-stretch:normal;font-size:medium;line-height:normal;font-family:sans-serif;font-variant-ligatures:normal;font-variant-position:normal;font-variant-caps:normal;font-variant-numeric:normal;font-variant-alternates:normal;font-variant-east-asian:normal;font-feature-settings:normal;text-indent:0;text-align:start;text-decoration:none;text-decoration-line:none;text-decoration-style:solid;text-decoration-color:#000000;letter-spacing:normal;word-spacing:normal;text-transform:none;writing-mode:lr-tb;direction:ltr;text-orientation:mixed;dominant-baseline:auto;baseline-shift:baseline;text-anchor:start;white-space:normal;shape-padding:0;clip-rule:nonzero;display:inline;overflow:visible;visibility:visible;isolation:auto;mix-blend-mode:normal;color-interpolation:sRGB;color-interpolation-filters:linearRGB;solid-color:#000000;solid-opacity:1;vector-effect:none;fill:#2f2f2f;fill-opacity:1;fill-rule:evenodd;stroke:none;stroke-width:4.17999983;stroke-linecap:round;stroke-linejoin:round;stroke-miterlimit:4;stroke-dasharray:none;stroke-dashoffset:0;stroke-opacity:1;filter-blend-mode:normal;filter-gaussianBlur-deviation:0;color-rendering:auto;image-rendering:auto;shape-rendering:auto;text-rendering:auto;enable-background:accumulate;opacity:1"
     d="M 84.601562 27.810547 C 83.566896 27.898834 82.616458 28.126899 81.769531 28.451172 C 78.381824 29.748262 76.554688 32.355469 76.554688 32.355469 A 2.0899999 2.0899999 0 0 0 77.044922 35.271484 A 2.0899999 2.0899999 0 0 0 79.958984 34.78125 C 79.958984 34.78125 81.139931 33.168609 83.263672 32.355469 C 85.387413 31.542328 88.353941 31.301435 92.943359 35.167969 A 2.0899999 2.0899999 0 0 0 95.888672 34.916016 A 2.0899999 2.0899999 0 0 0 95.636719 31.970703 C 91.56451 28.539913 87.705561 27.545686 84.601562 27.810547 z "
     id="path865" />
  <path
     style="color:#000000;font-style:normal;font-variant:normal;font-weight:normal;font-stretch:normal;font-size:medium;line-height:normal;font-family:sans-serif;font-variant-ligatures:normal;font-variant-position:normal;font-variant-caps:normal;font-variant-numeric:normal;font-variant-alternates:normal;font-variant-east-asian:normal;font-feature-settings:normal;text-indent:0;text-align:start;text-decoration:none;text-decoration-line:none;text-decoration-style:solid;text-decoration-color:#000000;letter-spacing:normal;word-spacing:normal;text-transform:none;writing-mode:lr-tb;direction:ltr;text-orientation:mixed;dominant-baseline:auto;baseline-shift:baseline;text-anchor:start;white-space:normal;shape-padding:0;clip-rule:nonzero;display:inline;overflow:visible;visibility:visible;isolation:auto;mix-blend-mode:normal;color-interpolation:sRGB;color-interpolation-filters:linearRGB;solid-color:#000000;solid-opacity:1;vector-effect:none;fill:#585858;fill-opacity:1;fill-rule:evenodd;stroke:none;stroke-width:3.77952766;stroke-linecap:round;stroke-linejoin:round;stroke-miterlimit:4;stroke-dasharray:none;stroke-dashoffset:0;stroke-opacity:1;filter-blend-mode:normal;filter-gaussianBlur-deviation:0;color-rendering:auto;image-rendering:auto;shape-rendering:auto;text-rendering:auto;enable-background:accumulate;opacity:1"
     d="M 99.716797 55.617188 C 99.449199 56.876205 99.01999 58.072996 98.447266 59.181641 C 98.777023 59.37208 100.29549 60.311611 101.98047 62.517578 C 103.8738 64.996327 105.76754 68.887528 105.60547 74.865234 C 105.44287 80.862386 103.67982 82.755165 101.72461 85.445312 C 99.769397 88.135462 97.772401 91.681603 98.667969 98.523438 C 100.47099 112.298 111.33594 124.58008 111.33594 124.58008 A 1.8897638 1.8897638 0 0 0 114.00195 124.76953 A 1.8897638 1.8897638 0 0 0 114.19141 122.10352 C 114.19141 122.10352 103.99464 110.10831 102.41406 98.033203 C 101.61782 91.950203 102.92392 90.223443 104.78125 87.667969 C 106.63858 85.112495 109.19796 81.787013 109.38281 74.96875 C 109.5682 68.131043 107.31982 63.282176 104.98438 60.224609 C 102.64892 57.167043 100.10936 55.773438 100.10938 55.773438 A 1.8897638 1.8897638 0 0 0 99.716797 55.617188 z "
     id="path4277" />
  <path
     d="m 86.340727,66.681963 c 7.575883,-0.01458 13.714383,-6.329626 13.697473,-14.096484 -0.017,-7.795891 -6.18923,-14.081966 -13.765116,-14.067448 -7.592795,0.01458 -13.7482,6.329627 -13.731289,14.125518 0.03382,7.766857 6.206135,14.052932 13.798932,14.038414 z"
     style="fill:#ffffff;fill-opacity:0.43231225;stroke:#2f2f2f;stroke-width:3.0999999;stroke-miterlimit:4;stroke-dasharray:none;stroke-opacity:1"
     id="path4269"
     inkscape:connector-curvature="0" />
</svg>
