<svg width="128" height="128" xmlns="http://www.w3.org/2000/svg" xmlns:xlink="http://www.w3.org/1999/xlink"><style>.st0,.st4{clip-path:url(#SVGID_2_);fill:#bdbdbd}.st4{fill:#939393}.st5{fill:#757575}.st5,.st7{clip-path:url(#SVGID_2_)}.st8{fill:#6d4c41}.st10{fill:#49362e}.st13{fill:#212121}</style><defs><path id="SVGID_1_" d="M0 0h128v128H0z"/></defs><clipPath id="SVGID_2_"><use xlink:href="#SVGID_1_" overflow="visible"/></clipPath><path id="XMLID_11_" class="st0" d="M0 125.7v14.5h128v-14.5c0-22.3-31.4-33.6-63.5-33.6C32.6 92.2 0 102.2 0 125.7z"/><path d="M56.5 162.1H39.4c-2.2 0-4-1.8-4-4v-36.2c0-2.2 1.8-4 4-4h17.2c2.2 0 4 1.8 4 4v36.2c-.1 2.2-1.9 4-4.1 4z" clip-path="url(#SVGID_2_)" fill="#0d47a1"/><path d="M71.4 129.9h-.5c-3.3 0-6-2.7-6-6s2.7-6 6-6h.5c3.3 0 6 2.7 6 6s-2.7 6-6 6z" clip-path="url(#SVGID_2_)" fill="#616161"/><path d="M86.7 129.9h-.5c-3.3 0-6-2.7-6-6s2.7-6 6-6h.5c3.3 0 6 2.7 6 6-.1 3.3-2.8 6-6 6z" clip-path="url(#SVGID_2_)" fill="#f5f5f5"/><path class="st4" d="M105.3 140c.1-13.7 5.7-25.6 14.1-32.2-1.7-1.6-3.7-3-5.9-4.4-8.6 8.3-14.3 21.6-14.3 36.6h6.1zM22.3 140c-.1-13.7-5.7-25.5-14.1-32.2 1.7-1.6 3.7-3.1 5.9-4.4 8.6 8.3 14.3 21.6 14.3 36.6h-6.1z"/><path class="st5" d="M128 125.7c0-2.9-.6-5.7-1.6-8.2l-8.2 2.7 5.2 15.9 4.6-1.5v-8.9zM0 138.1c3.9-3.3 6.4-8.2 6.4-13.7 0-3.8-1.2-7.4-3.3-10.3-2 3.5-3.1 7.3-3.1 11.7v12.3z"/><ellipse cx="64.1" cy="49.4" rx="49.2" ry="49" clip-path="url(#SVGID_2_)" fill="#212121"/><g class="st7"><path class="st8" d="M105.9 45.6l-84 .3s0 14 1.1 30.3c8.8 13.3 23.9 22.1 41 22.1s32.1-8.7 40.9-21.9c1-16.9 1-30.8 1-30.8z"/><g id="XMLID_89_"><ellipse id="XMLID_90_" class="st8" cx="63.9" cy="46.7" rx="42" ry="39.5"/></g><path id="XMLID_88_" d="M63.8 14.1c-24.3 0-30.7 18.9-30.7 45.4S52 94.1 63.8 94.1 94.5 86 94.5 59.5s-6.4-45.4-30.7-45.4z" fill="#bf8f68"/><path id="XMLID_87_" class="st10" d="M73.1 78.7h-9.2-9.2c-1.1 0-1.5.7-.8 1.8 1 1.5 4.6 4.4 10 4.4s9.1-2.9 10-4.4c.7-1.1.3-1.8-.8-1.8z"/><g id="XMLID_36_"><path id="XMLID_86_" class="st10" d="M53.4 61.3c0 2.8-1.9 5.1-4.3 5.1s-4.3-2.3-4.3-5.1 1.9-5.2 4.3-5.2 4.3 2.3 4.3 5.2"/><path id="XMLID_85_" class="st10" d="M74.4 61.3c0 2.8 1.9 5.1 4.3 5.1s4.3-2.3 4.3-5.1-1.9-5.2-4.3-5.2-4.3 2.3-4.3 5.2"/></g><path id="XMLID_35_" d="M68.3 70.8c-1.6.4-3.2.7-4.5.7-1.3 0-2.9-.2-4.5-.7-.7-.2-.9.4-.7.9.5.9 2.5 2.6 5.2 2.6 2.6 0 4.7-1.8 5.2-2.6.2-.4 0-1.1-.7-.9z" fill="#99674f"/><path id="XMLID_34_" class="st8" d="M73 35c-3.2 3.1-19.3 17.6-41.4 21.4V26.7s9.6-19 32.5-19 32.5 19.4 32.5 19.4v29.2s-15-5.8-22.6-21.2c-.3-.3-.7-.4-1-.1z"/></g><path class="st5" d="M107.4 86.1c-2.6-2.6-6.7-3.1-9.9-1.2-9.9 5.9-21.5 9.2-33.8 9.2s-23.9-3.4-33.8-9.2c-3.2-1.9-7.3-1.4-9.9 1.2-3.7 3.7-3 10 1.5 12.7 12.4 7.3 26.8 11.6 42.2 11.6s29.9-4.2 42.2-11.6c4.5-2.8 5.2-9 1.5-12.7z"/><circle cx="64.1" cy="49.4" r="49.2" opacity=".5" clip-path="url(#SVGID_2_)" fill="#212121"/><path class="st0" d="M64.1 18.8c21.8 0 40.5 12.8 49.2 31.3v-.7c0-27.2-22-49.2-49.2-49.2-27.2 0-49.2 22-49.2 49.2v.7c8.7-18.5 27.4-31.3 49.2-31.3zM107.6 83.1c-2.6-2.6-6.7-3.1-9.9-1.2-9.9 5.9-21.5 9.2-33.8 9.2s-24-3.4-33.9-9.2c-3.2-1.9-7.3-1.4-9.9 1.2-3.7 3.7-3 10 1.5 12.7 12.4 7.3 26.8 11.6 42.2 11.6s29.9-4.2 42.2-11.6c4.6-2.8 5.3-9 1.6-12.7z"/><path class="st0" d="M117.7 37.6l-6.2 2.5-7.6-18.9 6.2-2.5c1.6-.6 3.4.1 4 1.7l5.3 13.2c.6 1.6-.2 3.4-1.7 4z"/><ellipse class="st5" cx="110.3" cy="24" rx="3" ry="3" transform="rotate(-22.297 110.289 24.039)"/><ellipse class="st5" cx="114.1" cy="33.7" rx="3" ry="3" transform="rotate(-22.297 114.114 33.71)"/><path class="st0" d="M10.1 37.6l6.2 2.5 7.6-18.9-6.2-2.5c-1.6-.6-3.4.1-4 1.7L8.4 33.6c-.6 1.6.1 3.4 1.7 4z"/><ellipse class="st5" cx="17.5" cy="24" rx="3" ry="3" transform="rotate(-67.703 17.485 24.038)"/><ellipse class="st5" cx="13.7" cy="33.7" rx="3" ry="3" transform="rotate(-67.703 13.66 33.709)"/><g class="st7"><path class="st13" d="M85.7 83.2l-4.1.8c-1.9.4-3.8-.9-4.1-2.8l-.3-1.4c-.4-1.9.9-3.8 2.8-4.1l4.1-.8c1.9-.4 3.8.9 4.1 2.8l.3 1.4c.4 1.9-.9 3.8-2.8 4.1z"/><path class="st13" d="M94.6 79.1L87 80.7c-.7.1-1.3-.3-1.5-1-.1-.7.3-1.3 1-1.5l7.6-1.5c.7-.1 1.3.3 1.5 1 .1.6-.3 1.3-1 1.4z"/></g></svg>