<?xml version="1.0" encoding="utf-8"?>
<!-- Generator: Adobe Illustrator 16.0.0, SVG Export Plug-In . SVG Version: 6.00 Build 0)  -->
<!DOCTYPE svg PUBLIC "-//W3C//DTD SVG 1.1//EN" "http://www.w3.org/Graphics/SVG/1.1/DTD/svg11.dtd">
<svg version="1.1" id="レイヤー_1" xmlns="http://www.w3.org/2000/svg" xmlns:xlink="http://www.w3.org/1999/xlink" x="0px"
	 y="0px" width="128px" height="128px" viewBox="0 0 128 128" enable-background="new 0 0 128 128" xml:space="preserve">
<g>
	<g>
		<path fill="#FFFFFF" d="M124.08,27.85c-2.92-3.15-8.21-4.98-12.03-6.74c-10.06-4.63-20.47-8.54-31.2-11.28
			c-10.87-2.78-22.82-2.78-33.69,0c-10.73,2.75-21.14,6.65-31.2,11.28c-3.82,1.76-9.12,3.59-12.03,6.74
			c-0.77,0.84-1.01,2.57-0.98,3.68c0.15,5.5,1.82,10.92,4.14,15.87c2.13,4.57,5.02,9.82,9.14,12.91c1.51,1.13,3.25-0.17,4.62-0.87
			c1.98-1,4.71-2.28,6.96-2.41c2.02-0.11,0.78,10.87,0.67,12.32c-0.62,8.83-1.85,17.63-2.39,26.46c-0.24,3.93-0.37,7.94-0.5,11.88
			c-0.03,0.82,0.43,1.65,0.84,2.34c3.24,5.51,9.56,7.3,15.46,8.32c14.57,2.53,29.68,2.53,44.25,0c5.9-1.03,12.22-2.81,15.46-8.32
			c0.41-0.69,0.87-1.52,0.84-2.34c-0.13-3.93-0.26-7.95-0.5-11.88c-0.54-8.83-1.77-17.63-2.39-26.46
			c-0.1-1.45-1.34-12.43,0.67-12.32c2.25,0.13,4.98,1.41,6.96,2.41c1.37,0.69,3.11,2,4.62,0.87c4.11-3.09,7-8.34,9.14-12.91
			c2.32-4.95,3.99-10.37,4.14-15.87C125.09,30.42,124.86,28.69,124.08,27.85z"/>
	</g>
	<g>
		<path fill="#78A3AD" d="M64,122.9c-7.58,0-15.17-0.65-22.58-1.93c-6.42-1.12-13.5-3.13-17.29-9.59c-0.61-1.04-1.25-2.27-1.2-3.77
			c0.12-3.72,0.26-7.93,0.5-11.95c0.29-4.74,0.78-9.52,1.26-14.15c0.41-4.04,0.84-8.23,1.13-12.33l0.07-0.84
			c0.41-4.58,0.44-7.03,0.36-8.33c-1.62,0.49-3.43,1.4-4.24,1.81c-0.17,0.09-0.36,0.19-0.55,0.29c-0.99,0.55-2.36,1.31-3.95,1.31
			c-1.05,0-2.06-0.34-2.91-0.98c-4.7-3.53-7.78-9.29-9.94-13.91c-2.76-5.9-4.24-11.59-4.39-16.92c-0.02-0.85,0.03-3.76,1.69-5.55
			c2.73-2.95,6.88-4.75,10.56-6.33c0.81-0.35,1.59-0.69,2.31-1.02C25.84,13.64,36.2,9.9,46.5,7.26c11.25-2.88,23.75-2.88,35,0
			c10.3,2.64,20.66,6.38,31.65,11.44c0.73,0.33,1.51,0.67,2.32,1.02c3.67,1.58,7.83,3.38,10.55,6.33c1.66,1.8,1.71,4.71,1.68,5.55
			c-0.14,5.33-1.62,11.02-4.39,16.92c-2.16,4.62-5.25,10.37-9.95,13.9c-0.84,0.64-1.85,0.98-2.9,0.98l0,0
			c-1.59,0-2.95-0.75-3.95-1.31c-0.19-0.1-0.38-0.21-0.55-0.3c-0.8-0.4-2.57-1.3-4.23-1.79c-0.08,1.3-0.06,3.74,0.36,8.31l0.07,0.84
			c0.29,4.1,0.72,8.28,1.13,12.33c0.48,4.63,0.97,9.41,1.26,14.15c0.24,4.02,0.38,8.24,0.5,11.95c0.05,1.5-0.59,2.74-1.2,3.77
			c-3.79,6.46-10.87,8.47-17.29,9.59C79.17,122.25,71.58,122.9,64,122.9z M27.67,54.39c1.08,0,1.91,0.38,2.53,1.06
			c1.29,1.41,1.83,3.96,0.98,13.35l-0.06,0.74c-0.29,4.18-0.73,8.41-1.15,12.5c-0.48,4.58-0.96,9.3-1.24,13.94
			c-0.24,3.95-0.38,8.12-0.5,11.81c0.03,0.15,0.37,0.72,0.48,0.91c2.69,4.58,8.14,6.1,13.63,7.05c14.2,2.46,29.13,2.46,43.34,0
			c5.49-0.95,10.94-2.47,13.63-7.05c0.11-0.19,0.45-0.76,0.48-0.98c-0.12-3.62-0.26-7.8-0.5-11.74c-0.28-4.64-0.77-9.36-1.24-13.94
			c-0.42-4.09-0.86-8.31-1.15-12.5l-0.06-0.74c-0.85-9.39-0.31-11.94,0.98-13.35c0.63-0.69,1.47-1.06,2.38-1.06
			c2.85,0.16,5.73,1.45,8.18,2.69c0.24,0.12,0.48,0.25,0.72,0.39c0.36,0.2,0.94,0.52,1.27,0.62c3.73-2.88,6.45-8.11,8.18-11.8
			c2.45-5.24,3.76-10.23,3.89-14.82c0.02-0.8-0.18-1.64-0.32-1.86c-1.92-2.08-5.54-3.63-8.72-5.01c-0.85-0.37-1.67-0.72-2.43-1.08
			c-10.7-4.92-20.76-8.56-30.75-11.12c-10.39-2.66-21.99-2.66-32.38,0c-9.99,2.56-20.05,6.2-30.76,11.12
			c-0.76,0.35-1.58,0.71-2.43,1.08c-3.19,1.37-6.8,2.93-8.76,5.06c-0.1,0.17-0.3,1.01-0.29,1.81c0.13,4.6,1.44,9.58,3.89,14.82
			c1.73,3.7,4.45,8.93,8.18,11.8c0.32-0.09,0.9-0.41,1.26-0.62c0.24-0.13,0.48-0.27,0.72-0.38c2.47-1.25,5.35-2.54,8.01-2.7
			C27.65,54.39,27.66,54.39,27.67,54.39z"/>
	</g>
	<path fill="#78A3AD" d="M83.24,20.89c0,3.47-8.81,6.29-19.68,6.29c-10.87,0-19.68-2.81-19.68-6.29s8.81-6.29,19.68-6.29
		C74.43,14.6,83.24,17.42,83.24,20.89z"/>
</g>
</svg>
