<svg enable-background="new 0 0 128 128" viewBox="0 0 128 128" xmlns="http://www.w3.org/2000/svg" xmlns:xlink="http://www.w3.org/1999/xlink"><polygon points="100 4 28 4 28.02 124 100.08 124" fill="#4E342E"/><linearGradient id="d" x1="64" x2="64" y1="96.202" y2="-11.015" gradientUnits="userSpaceOnUse"><stop stop-color="#795548" offset=".0032884"/><stop stop-color="#A1887F" offset="1"/></linearGradient><polygon points="94 123.85 34 123.98 34 10.55 94 10.42" fill="url(#d)"/><g opacity=".2"><path d="m91.97 12.43-0.01 109.5-56.09 0.03v-109.42l56.1-0.11m2-2.01-60.09 0.13v113.41l60.09-0.04v-113.5z" fill="#424242"/></g><path d="m51.71 72.44h-9c-1.38 0-2.5-1.12-2.5-2.5s1.12-2.5 2.5-2.5h9c1.38 0 2.5 1.12 2.5 2.5s-1.12 2.5-2.5 2.5z" fill="#FFD54F"/><circle cx="64.4" cy="33.6" r="4" fill="#64B5F6"/><g opacity=".2"><path d="m64.4 31.6c1.1 0 2 0.9 2 2s-0.9 2-2 2-2-0.9-2-2 0.9-2 2-2m0-2c-2.21 0-4 1.79-4 4s1.79 4 4 4 4-1.79 4-4-1.79-4-4-4z" fill="#424242"/></g><g opacity=".2"><path d="M98,6l0.08,116H30.02L30,6H98 M100,4H28l0.02,120h72.06L100,4L100,4z" fill="#424242"/></g><g display="none"><g display="inline"><g opacity=".6"><circle cx="-229" cy="64" r="28" fill="none" opacity=".61" stroke="#000" stroke-miterlimit="10" stroke-width=".2625"/><line x1="-209" x2="-209" y2="128" fill="none" opacity=".61" stroke="#000" stroke-miterlimit="10" stroke-width=".25"/><line x1="-249" x2="-249" y2="128" fill="none" opacity=".61" stroke="#000" stroke-miterlimit="10" stroke-width=".25"/><line x1="-229" x2="-229" y2="128" fill="none" opacity=".61" stroke="#000" stroke-miterlimit="10" stroke-width=".25"/><line x1="-165" x2="-293" y1="64" y2="64" fill="none" opacity=".61" stroke="#000" stroke-miterlimit="10" stroke-width=".25"/><line x1="-165" x2="-293" y1="44" y2="44" fill="none" opacity=".61" stroke="#000" stroke-miterlimit="10" stroke-width=".25"/><line x1="-165" x2="-293" y1="83.75" y2="83.75" fill="none" opacity=".61" stroke="#000" stroke-miterlimit="10" stroke-width=".25"/><line x1="-165" x2="-293" y1="128" fill="none" opacity=".61" stroke="#000" stroke-miterlimit="10" stroke-width=".25"/><line x1="-293" x2="-165" y1="128" fill="none" opacity=".61" stroke="#000" stroke-miterlimit="10" stroke-width=".25"/><g opacity=".61"><path d="m-229 4.26c32.94 0 59.74 26.8 59.74 59.74s-26.8 59.74-59.74 59.74-59.74-26.8-59.74-59.74 26.8-59.74 59.74-59.74m0-0.26c-33.14 0-60 26.86-60 60s26.86 60 60 60 60-26.86 60-60-26.86-60-60-60z"/></g><path d="m-185.03 115.97h-87.94c-4.42 0-8.03-3.61-8.03-8.03v-87.91c0-4.42 3.61-8.03 8.03-8.03h87.94c4.42 0 8.03 3.61 8.03 8.03v87.91c0 4.42-3.61 8.03-8.03 8.03z" fill="none" opacity=".61" stroke="#000" stroke-miterlimit="10" stroke-width=".2578"/><path d="m-193 124h-72c-4.4 0-8-3.6-8-8v-104c0-4.4 3.6-8 8-8h72c4.4 0 8 3.6 8 8v104c0 4.4-3.6 8-8 8z" fill="none" opacity=".61" stroke="#000" stroke-miterlimit="10" stroke-width=".2628"/><path d="m-179.23 108h-99.54c-5.63 0-10.23-4.6-10.23-10.23v-67.49c0-5.63 4.6-10.23 10.23-10.23h99.54c5.63 0 10.23 4.6 10.23 10.23v67.48c0 5.64-4.6 10.24-10.23 10.24z" fill="none" opacity=".61" stroke="#000" stroke-miterlimit="10" stroke-width=".2627"/></g><g opacity=".2"><defs><rect id="g" x="-293" width="128" height="128" opacity=".2"/></defs><clipPath id="c"><use xlink:href="#g"/></clipPath><g clip-path="url(#c)"><g fill="none" stroke="#000" stroke-miterlimit="10" stroke-width=".25"><line x1="-321" x2="-321" y1="160" y2="-32"/><line x1="-317" x2="-317" y1="160" y2="-32"/><line x1="-313" x2="-313" y1="160" y2="-32"/><line x1="-309" x2="-309" y1="160" y2="-32"/><line x1="-305" x2="-305" y1="160" y2="-32"/><line x1="-301" x2="-301" y1="160" y2="-32"/><line x1="-297" x2="-297" y1="160" y2="-32"/><line x1="-293" x2="-293" y1="160" y2="-32"/><line x1="-289" x2="-289" y1="160" y2="-32"/><line x1="-285" x2="-285" y1="160" y2="-32"/><line x1="-281" x2="-281" y1="160" y2="-32"/><line x1="-277" x2="-277" y1="160" y2="-32"/><line x1="-273" x2="-273" y1="160" y2="-32"/><line x1="-269" x2="-269" y1="160" y2="-32"/><line x1="-265" x2="-265" y1="160" y2="-32"/><line x1="-261" x2="-261" y1="160" y2="-32"/><line x1="-257" x2="-257" y1="160" y2="-32"/><line x1="-253" x2="-253" y1="160" y2="-32"/><line x1="-249" x2="-249" y1="160" y2="-32"/><line x1="-245" x2="-245" y1="160" y2="-32"/><line x1="-241" x2="-241" y1="160" y2="-32"/><line x1="-237" x2="-237" y1="160" y2="-32"/><line x1="-233" x2="-233" y1="160" y2="-32"/><line x1="-229" x2="-229" y1="160" y2="-32"/><line x1="-225" x2="-225" y1="160" y2="-32"/><line x1="-221" x2="-221" y1="160" y2="-32"/><line x1="-217" x2="-217" y1="160" y2="-32"/><line x1="-213" x2="-213" y1="160" y2="-32"/><line x1="-209" x2="-209" y1="160" y2="-32"/><line x1="-205" x2="-205" y1="160" y2="-32"/><line x1="-201" x2="-201" y1="160" y2="-32"/><line x1="-197" x2="-197" y1="160" y2="-32"/><line x1="-193" x2="-193" y1="160" y2="-32"/><line x1="-189" x2="-189" y1="160" y2="-32"/><line x1="-185" x2="-185" y1="160" y2="-32"/><line x1="-181" x2="-181" y1="160" y2="-32"/><line x1="-177" x2="-177" y1="160" y2="-32"/><line x1="-173" x2="-173" y1="160" y2="-32"/><line x1="-169" x2="-169" y1="160" y2="-32"/><line x1="-165" x2="-165" y1="160" y2="-32"/><line x1="-161" x2="-161" y1="160" y2="-32"/><line x1="-157" x2="-157" y1="160" y2="-32"/><line x1="-156" x2="-156" y1="166.05" y2="-25.95"/><line x1="-149" x2="-149" y1="160" y2="-32"/><line x1="-145" x2="-145" y1="160" y2="-32"/><line x1="-141" x2="-141" y1="160" y2="-32"/><line x1="-137" x2="-137" y1="160" y2="-32"/></g><g fill="none" stroke="#000" stroke-miterlimit="10" stroke-width=".25"><line x1="-325" x2="-133" y1="-28" y2="-28"/><line x1="-325" x2="-133" y1="-24" y2="-24"/><line x1="-325" x2="-133" y1="-20" y2="-20"/><line x1="-325" x2="-133" y1="-16" y2="-16"/><line x1="-325" x2="-133" y1="-12" y2="-12"/><line x1="-325" x2="-133" y1="-8" y2="-8"/><line x1="-325" x2="-133" y1="-4" y2="-4"/><line x1="-325" x2="-133"/><line x1="-325" x2="-133" y1="4" y2="4"/><line x1="-325" x2="-133" y1="8" y2="8"/><line x1="-325" x2="-133" y1="12" y2="12"/><line x1="-325" x2="-133" y1="16" y2="16"/><line x1="-325" x2="-133" y1="20" y2="20"/><line x1="-325" x2="-133" y1="24" y2="24"/><line x1="-325" x2="-133" y1="28" y2="28"/><line x1="-325" x2="-133" y1="32" y2="32"/><line x1="-325" x2="-133" y1="36" y2="36"/><line x1="-325" x2="-133" y1="40" y2="40"/><line x1="-325" x2="-133" y1="44" y2="44"/><line x1="-325" x2="-133" y1="48" y2="48"/><line x1="-325" x2="-133" y1="52" y2="52"/><line x1="-325" x2="-133" y1="56" y2="56"/><line x1="-325" x2="-133" y1="60" y2="60"/><line x1="-325" x2="-133" y1="64" y2="64"/><line x1="-325" x2="-133" y1="68" y2="68"/><line x1="-325" x2="-133" y1="72" y2="72"/><line x1="-325" x2="-133" y1="76" y2="76"/><line x1="-325" x2="-133" y1="80" y2="80"/><line x1="-325" x2="-133" y1="84" y2="84"/><line x1="-325" x2="-133" y1="88" y2="88"/><line x1="-325" x2="-133" y1="92" y2="92"/><line x1="-325" x2="-133" y1="96" y2="96"/><line x1="-325" x2="-133" y1="100" y2="100"/><line x1="-325" x2="-133" y1="104" y2="104"/><line x1="-325" x2="-133" y1="108" y2="108"/><line x1="-325" x2="-133" y1="112" y2="112"/><line x1="-325" x2="-133" y1="116" y2="116"/><line x1="-325" x2="-133" y1="120" y2="120"/><line x1="-325" x2="-133" y1="124" y2="124"/><line x1="-325" x2="-133" y1="128" y2="128"/><line x1="-325" x2="-133" y1="132" y2="132"/><line x1="-325" x2="-133" y1="136" y2="136"/><line x1="-325" x2="-133" y1="140" y2="140"/><line x1="-325" x2="-133" y1="144" y2="144"/><line x1="-325" x2="-133" y1="148" y2="148"/><line x1="-325" x2="-133" y1="152" y2="152"/><line x1="-325" x2="-133" y1="156" y2="156"/></g><path d="m-133.25-31.75v191.5h-191.5v-191.5h191.5m0.25-0.25h-192v192h192v-192z"/></g></g><g fill="#F44336"><rect x="-293" width="4" height="128" opacity=".3"/><rect x="-169" width="4" height="128" opacity=".3"/><rect transform="matrix(-1.837e-16 1 -1 -1.837e-16 -227 231)" x="-231" y="-58" width="4" height="120" opacity=".3"/><rect transform="matrix(-1.837e-16 1 -1 -1.837e-16 -103 355)" x="-231" y="66" width="4" height="120" opacity=".3"/></g></g><g display="inline"><g opacity=".6"><circle cx="-74" cy="64" r="28" fill="none" opacity=".61" stroke="#000" stroke-miterlimit="10" stroke-width=".2625"/><line x1="-54" x2="-54" y2="128" fill="none" opacity=".61" stroke="#000" stroke-miterlimit="10" stroke-width=".25"/><line x1="-94" x2="-94" y2="128" fill="none" opacity=".61" stroke="#000" stroke-miterlimit="10" stroke-width=".25"/><line x1="-74" x2="-74" y2="128" fill="none" opacity=".61" stroke="#000" stroke-miterlimit="10" stroke-width=".25"/><line x1="-10" x2="-138" y1="64" y2="64" fill="none" opacity=".61" stroke="#000" stroke-miterlimit="10" stroke-width=".25"/><line x1="-10" x2="-138" y1="44" y2="44" fill="none" opacity=".61" stroke="#000" stroke-miterlimit="10" stroke-width=".25"/><line x1="-10" x2="-138" y1="83.75" y2="83.75" fill="none" opacity=".61" stroke="#000" stroke-miterlimit="10" stroke-width=".25"/><line x1="-10" x2="-138" y1="128" fill="none" opacity=".61" stroke="#000" stroke-miterlimit="10" stroke-width=".25"/><line x1="-138" x2="-10" y1="128" fill="none" opacity=".61" stroke="#000" stroke-miterlimit="10" stroke-width=".25"/><g opacity=".61"><path d="m-74 4.26c32.94 0 59.74 26.8 59.74 59.74s-26.8 59.74-59.74 59.74-59.74-26.8-59.74-59.74 26.8-59.74 59.74-59.74m0-0.26c-33.14 0-60 26.86-60 60s26.86 60 60 60 60-26.86 60-60-26.86-60-60-60z"/></g><path d="m-30.03 115.97h-87.94c-4.42 0-8.03-3.61-8.03-8.03v-87.91c0-4.42 3.61-8.03 8.03-8.03h87.94c4.42 0 8.03 3.61 8.03 8.03v87.91c0 4.42-3.61 8.03-8.03 8.03z" fill="none" opacity=".61" stroke="#000" stroke-miterlimit="10" stroke-width=".2578"/><path d="m-38 124h-72c-4.4 0-8-3.6-8-8v-104c0-4.4 3.6-8 8-8h72c4.4 0 8 3.6 8 8v104c0 4.4-3.6 8-8 8z" fill="none" opacity=".61" stroke="#000" stroke-miterlimit="10" stroke-width=".2628"/><path d="m-24.23 108h-99.54c-5.63 0-10.23-4.6-10.23-10.23v-67.49c0-5.63 4.6-10.23 10.23-10.23h99.54c5.63 0 10.23 4.6 10.23 10.23v67.48c0 5.64-4.6 10.24-10.23 10.24z" fill="none" opacity=".61" stroke="#000" stroke-miterlimit="10" stroke-width=".2627"/></g><g opacity=".2"><defs><rect id="e" x="-138" width="128" height="128" opacity=".2"/></defs><clipPath id="b"><use xlink:href="#e"/></clipPath><g clip-path="url(#b)"><g fill="none" stroke="#000" stroke-miterlimit="10" stroke-width=".25"><line x1="-166" x2="-166" y1="160" y2="-32"/><line x1="-162" x2="-162" y1="160" y2="-32"/><line x1="-158" x2="-158" y1="160" y2="-32"/><line x1="-154" x2="-154" y1="160" y2="-32"/><line x1="-150" x2="-150" y1="160" y2="-32"/><line x1="-146" x2="-146" y1="160" y2="-32"/><line x1="-142" x2="-142" y1="160" y2="-32"/><line x1="-138" x2="-138" y1="160" y2="-32"/><line x1="-134" x2="-134" y1="160" y2="-32"/><line x1="-130" x2="-130" y1="160" y2="-32"/><line x1="-126" x2="-126" y1="160" y2="-32"/><line x1="-122" x2="-122" y1="160" y2="-32"/><line x1="-118" x2="-118" y1="160" y2="-32"/><line x1="-114" x2="-114" y1="160" y2="-32"/><line x1="-110" x2="-110" y1="160" y2="-32"/><line x1="-106" x2="-106" y1="160" y2="-32"/><line x1="-102" x2="-102" y1="160" y2="-32"/><line x1="-98" x2="-98" y1="160" y2="-32"/><line x1="-94" x2="-94" y1="160" y2="-32"/><line x1="-90" x2="-90" y1="160" y2="-32"/><line x1="-86" x2="-86" y1="160" y2="-32"/><line x1="-82" x2="-82" y1="160" y2="-32"/><line x1="-78" x2="-78" y1="160" y2="-32"/><line x1="-74" x2="-74" y1="160" y2="-32"/><line x1="-70" x2="-70" y1="160" y2="-32"/><line x1="-66" x2="-66" y1="160" y2="-32"/><line x1="-62" x2="-62" y1="160" y2="-32"/><line x1="-58" x2="-58" y1="160" y2="-32"/><line x1="-54" x2="-54" y1="160" y2="-32"/><line x1="-50" x2="-50" y1="160" y2="-32"/><line x1="-46" x2="-46" y1="160" y2="-32"/><line x1="-42" x2="-42" y1="160" y2="-32"/><line x1="-38" x2="-38" y1="160" y2="-32"/><line x1="-34" x2="-34" y1="160" y2="-32"/><line x1="-30" x2="-30" y1="160" y2="-32"/><line x1="-26" x2="-26" y1="160" y2="-32"/><line x1="-22" x2="-22" y1="160" y2="-32"/><line x1="-18" x2="-18" y1="160" y2="-32"/><line x1="-14" x2="-14" y1="160" y2="-32"/><line x1="-10" x2="-10" y1="160" y2="-32"/><line x1="-6" x2="-6" y1="160" y2="-32"/><line x1="-2" x2="-2" y1="160" y2="-32"/><line x1="-1" x2="-1" y1="166.05" y2="-25.95"/><line x1="6" x2="6" y1="160" y2="-32"/><line x1="10" x2="10" y1="160" y2="-32"/><line x1="14" x2="14" y1="160" y2="-32"/><line x1="18" x2="18" y1="160" y2="-32"/></g><g fill="none" stroke="#000" stroke-miterlimit="10" stroke-width=".25"><line x1="-170" x2="22" y1="-28" y2="-28"/><line x1="-170" x2="22" y1="-24" y2="-24"/><line x1="-170" x2="22" y1="-20" y2="-20"/><line x1="-170" x2="22" y1="-16" y2="-16"/><line x1="-170" x2="22" y1="-12" y2="-12"/><line x1="-170" x2="22" y1="-8" y2="-8"/><line x1="-170" x2="22" y1="-4" y2="-4"/><line x1="-170" x2="22"/><line x1="-170" x2="22" y1="4" y2="4"/><line x1="-170" x2="22" y1="8" y2="8"/><line x1="-170" x2="22" y1="12" y2="12"/><line x1="-170" x2="22" y1="16" y2="16"/><line x1="-170" x2="22" y1="20" y2="20"/><line x1="-170" x2="22" y1="24" y2="24"/><line x1="-170" x2="22" y1="28" y2="28"/><line x1="-170" x2="22" y1="32" y2="32"/><line x1="-170" x2="22" y1="36" y2="36"/><line x1="-170" x2="22" y1="40" y2="40"/><line x1="-170" x2="22" y1="44" y2="44"/><line x1="-170" x2="22" y1="48" y2="48"/><line x1="-170" x2="22" y1="52" y2="52"/><line x1="-170" x2="22" y1="56" y2="56"/><line x1="-170" x2="22" y1="60" y2="60"/><line x1="-170" x2="22" y1="64" y2="64"/><line x1="-170" x2="22" y1="68" y2="68"/><line x1="-170" x2="22" y1="72" y2="72"/><line x1="-170" x2="22" y1="76" y2="76"/><line x1="-170" x2="22" y1="80" y2="80"/><line x1="-170" x2="22" y1="84" y2="84"/><line x1="-170" x2="22" y1="88" y2="88"/><line x1="-170" x2="22" y1="92" y2="92"/><line x1="-170" x2="22" y1="96" y2="96"/><line x1="-170" x2="22" y1="100" y2="100"/><line x1="-170" x2="22" y1="104" y2="104"/><line x1="-170" x2="22" y1="108" y2="108"/><line x1="-170" x2="22" y1="112" y2="112"/><line x1="-170" x2="22" y1="116" y2="116"/><line x1="-170" x2="22" y1="120" y2="120"/><line x1="-170" x2="22" y1="124" y2="124"/><line x1="-170" x2="22" y1="128" y2="128"/><line x1="-170" x2="22" y1="132" y2="132"/><line x1="-170" x2="22" y1="136" y2="136"/><line x1="-170" x2="22" y1="140" y2="140"/><line x1="-170" x2="22" y1="144" y2="144"/><line x1="-170" x2="22" y1="148" y2="148"/><line x1="-170" x2="22" y1="152" y2="152"/><line x1="-170" x2="22" y1="156" y2="156"/></g><path d="m21.75-31.75v191.5h-191.5v-191.5h191.5m0.25-0.25h-192v192h192v-192z"/></g></g><g fill="#F44336"><rect x="-138" width="4" height="128" opacity=".3"/><rect x="-14" width="4" height="128" opacity=".3"/><rect transform="matrix(-1.837e-16 1 -1 -1.837e-16 -72 76)" x="-76" y="-58" width="4" height="120" opacity=".3"/><rect transform="matrix(-1.837e-16 1 -1 -1.837e-16 52 200)" x="-76" y="66" width="4" height="120" opacity=".3"/></g></g><g display="inline"><g opacity=".6"><circle cx="64" cy="64" r="28" fill="none" opacity=".61" stroke="#000" stroke-miterlimit="10" stroke-width=".2625"/><line x1="84" x2="84" y2="128" fill="none" opacity=".61" stroke="#000" stroke-miterlimit="10" stroke-width=".25"/><line x1="44" x2="44" y2="128" fill="none" opacity=".61" stroke="#000" stroke-miterlimit="10" stroke-width=".25"/><line x1="64" x2="64" y2="128" fill="none" opacity=".61" stroke="#000" stroke-miterlimit="10" stroke-width=".25"/><line x1="128" y1="64" y2="64" fill="none" opacity=".61" stroke="#000" stroke-miterlimit="10" stroke-width=".25"/><line x1="128" y1="44" y2="44" fill="none" opacity=".61" stroke="#000" stroke-miterlimit="10" stroke-width=".25"/><line x1="128" y1="83.75" y2="83.75" fill="none" opacity=".61" stroke="#000" stroke-miterlimit="10" stroke-width=".25"/><line x1="128" y1="128" fill="none" opacity=".61" stroke="#000" stroke-miterlimit="10" stroke-width=".25"/><line x2="128" y1="128" fill="none" opacity=".61" stroke="#000" stroke-miterlimit="10" stroke-width=".25"/><g opacity=".61"><path d="M64,4.26c32.94,0,59.74,26.8,59.74,59.74S96.94,123.74,64,123.74S4.26,96.94,4.26,64S31.06,4.26,64,4.26 M64,4 C30.86,4,4,30.86,4,64s26.86,60,60,60s60-26.86,60-60S97.14,4,64,4L64,4z"/></g><path d="m107.97 115.97h-87.94c-4.42 0-8.03-3.61-8.03-8.03v-87.91c0-4.42 3.61-8.03 8.03-8.03h87.94c4.42 0 8.03 3.61 8.03 8.03v87.91c0 4.42-3.61 8.03-8.03 8.03z" fill="none" opacity=".61" stroke="#000" stroke-miterlimit="10" stroke-width=".2578"/><path d="m100 124h-72c-4.4 0-8-3.6-8-8v-104c0-4.4 3.6-8 8-8h72c4.4 0 8 3.6 8 8v104c0 4.4-3.6 8-8 8z" fill="none" opacity=".61" stroke="#000" stroke-miterlimit="10" stroke-width=".2628"/><path d="M113.77,108H14.23 C8.6,108,4,103.4,4,97.77V30.28c0-5.63,4.6-10.23,10.23-10.23h99.54c5.63,0,10.23,4.6,10.23,10.23v67.48 C124,103.4,119.4,108,113.77,108z" fill="none" opacity=".61" stroke="#000" stroke-miterlimit="10" stroke-width=".2627"/></g><g opacity=".2"><defs><rect id="f" width="128" height="128" opacity=".2"/></defs><clipPath id="a"><use xlink:href="#f"/></clipPath><g clip-path="url(#a)"><g fill="none" stroke="#000" stroke-miterlimit="10" stroke-width=".25"><line x1="-28" x2="-28" y1="160" y2="-32"/><line x1="-24" x2="-24" y1="160" y2="-32"/><line x1="-20" x2="-20" y1="160" y2="-32"/><line x1="-16" x2="-16" y1="160" y2="-32"/><line x1="-12" x2="-12" y1="160" y2="-32"/><line x1="-8" x2="-8" y1="160" y2="-32"/><line x1="-4" x2="-4" y1="160" y2="-32"/><line y1="160" y2="-32"/><line x1="4" x2="4" y1="160" y2="-32"/><line x1="8" x2="8" y1="160" y2="-32"/><line x1="12" x2="12" y1="160" y2="-32"/><line x1="16" x2="16" y1="160" y2="-32"/><line x1="20" x2="20" y1="160" y2="-32"/><line x1="24" x2="24" y1="160" y2="-32"/><line x1="28" x2="28" y1="160" y2="-32"/><line x1="32" x2="32" y1="160" y2="-32"/><line x1="36" x2="36" y1="160" y2="-32"/><line x1="40" x2="40" y1="160" y2="-32"/><line x1="44" x2="44" y1="160" y2="-32"/><line x1="48" x2="48" y1="160" y2="-32"/><line x1="52" x2="52" y1="160" y2="-32"/><line x1="56" x2="56" y1="160" y2="-32"/><line x1="60" x2="60" y1="160" y2="-32"/><line x1="64" x2="64" y1="160" y2="-32"/><line x1="68" x2="68" y1="160" y2="-32"/><line x1="72" x2="72" y1="160" y2="-32"/><line x1="76" x2="76" y1="160" y2="-32"/><line x1="80" x2="80" y1="160" y2="-32"/><line x1="84" x2="84" y1="160" y2="-32"/><line x1="88" x2="88" y1="160" y2="-32"/><line x1="92" x2="92" y1="160" y2="-32"/><line x1="96" x2="96" y1="160" y2="-32"/><line x1="100" x2="100" y1="160" y2="-32"/><line x1="104" x2="104" y1="160" y2="-32"/><line x1="108" x2="108" y1="160" y2="-32"/><line x1="112" x2="112" y1="160" y2="-32"/><line x1="116" x2="116" y1="160" y2="-32"/><line x1="120" x2="120" y1="160" y2="-32"/><line x1="124" x2="124" y1="160" y2="-32"/><line x1="128" x2="128" y1="160" y2="-32"/><line x1="132" x2="132" y1="160" y2="-32"/><line x1="136" x2="136" y1="160" y2="-32"/><line x1="137" x2="137" y1="166.05" y2="-25.95"/><line x1="144" x2="144" y1="160" y2="-32"/><line x1="148" x2="148" y1="160" y2="-32"/><line x1="152" x2="152" y1="160" y2="-32"/><line x1="156" x2="156" y1="160" y2="-32"/></g><g fill="none" stroke="#000" stroke-miterlimit="10" stroke-width=".25"><line x1="-32" x2="160" y1="-28" y2="-28"/><line x1="-32" x2="160" y1="-24" y2="-24"/><line x1="-32" x2="160" y1="-20" y2="-20"/><line x1="-32" x2="160" y1="-16" y2="-16"/><line x1="-32" x2="160" y1="-12" y2="-12"/><line x1="-32" x2="160" y1="-8" y2="-8"/><line x1="-32" x2="160" y1="-4" y2="-4"/><line x1="-32" x2="160"/><line x1="-32" x2="160" y1="4" y2="4"/><line x1="-32" x2="160" y1="8" y2="8"/><line x1="-32" x2="160" y1="12" y2="12"/><line x1="-32" x2="160" y1="16" y2="16"/><line x1="-32" x2="160" y1="20" y2="20"/><line x1="-32" x2="160" y1="24" y2="24"/><line x1="-32" x2="160" y1="28" y2="28"/><line x1="-32" x2="160" y1="32" y2="32"/><line x1="-32" x2="160" y1="36" y2="36"/><line x1="-32" x2="160" y1="40" y2="40"/><line x1="-32" x2="160" y1="44" y2="44"/><line x1="-32" x2="160" y1="48" y2="48"/><line x1="-32" x2="160" y1="52" y2="52"/><line x1="-32" x2="160" y1="56" y2="56"/><line x1="-32" x2="160" y1="60" y2="60"/><line x1="-32" x2="160" y1="64" y2="64"/><line x1="-32" x2="160" y1="68" y2="68"/><line x1="-32" x2="160" y1="72" y2="72"/><line x1="-32" x2="160" y1="76" y2="76"/><line x1="-32" x2="160" y1="80" y2="80"/><line x1="-32" x2="160" y1="84" y2="84"/><line x1="-32" x2="160" y1="88" y2="88"/><line x1="-32" x2="160" y1="92" y2="92"/><line x1="-32" x2="160" y1="96" y2="96"/><line x1="-32" x2="160" y1="100" y2="100"/><line x1="-32" x2="160" y1="104" y2="104"/><line x1="-32" x2="160" y1="108" y2="108"/><line x1="-32" x2="160" y1="112" y2="112"/><line x1="-32" x2="160" y1="116" y2="116"/><line x1="-32" x2="160" y1="120" y2="120"/><line x1="-32" x2="160" y1="124" y2="124"/><line x1="-32" x2="160" y1="128" y2="128"/><line x1="-32" x2="160" y1="132" y2="132"/><line x1="-32" x2="160" y1="136" y2="136"/><line x1="-32" x2="160" y1="140" y2="140"/><line x1="-32" x2="160" y1="144" y2="144"/><line x1="-32" x2="160" y1="148" y2="148"/><line x1="-32" x2="160" y1="152" y2="152"/><line x1="-32" x2="160" y1="156" y2="156"/></g><path d="m159.75-31.75v191.5h-191.5v-191.5h191.5m0.25-0.25h-192v192h192v-192z"/></g></g><g fill="#F44336"><rect width="4" height="128" opacity=".3"/><rect x="124" width="4" height="128" opacity=".3"/><rect transform="matrix(-1.837e-16 1 -1 -1.837e-16 66 -62)" x="62" y="-58" width="4" height="120" opacity=".3"/><rect transform="matrix(-1.837e-16 1 -1 -1.837e-16 190 62)" x="62" y="66" width="4" height="120" opacity=".3"/></g></g></g></svg>
