<svg xmlns="http://www.w3.org/2000/svg" viewBox="0 0 128 128"><path d="M45.82 66.5c-.8 0-1.52-.52-1.75-1.33-.27-.96.29-1.97 1.26-2.23 6.75-1.88 13.62-7.25 13.69-13.87.02-2.11-.52-4.21-1.08-6.44-.35-1.35-.7-2.74-.94-4.16-.65-3.99-1.43-13.9 5.34-19.84 1.61-1.41 4.88-3.98 8.71-5.31.94-.32 1.98.17 2.31 1.12.33.95-.17 1.98-1.12 2.31-2.37.82-5.11 2.5-7.5 4.61-5.41 4.75-4.71 13.14-4.15 16.53.2 1.26.52 2.51.86 3.84.61 2.35 1.23 4.79 1.2 7.38-.1 8.81-8.54 15.16-16.34 17.33-.16.04-.33.06-.49.06z" fill="#78a3ad"/><path d="M113.52 4.11C109.05 1.56 104.39.24 99.68.19 82.87.02 70.33 12.84 69.88 13.46c-.71.96-.51 2.31.45 3.03.96.72 2.31.54 3.04-.41.1-.13 11.81-10.6 25.55-10.46 4.01.04 7.97 1.28 11.76 3.69 2.71 1.72 4.49 4.46 5.51 7.46 1.28 3.72 1.52 7.74 1.42 11.64-.13 4.93-.88 9.83-1.87 14.65-1.14 5.57-2.65 11.06-4.34 16.49-4.38 14.03-9.5 27.66-15.87 40.91-1.5 3.12-2.98 6.25-4.43 9.39-1.51 3.29-6.5 10.68-2.36 13.74 3.38 2.51 7.35-.36 9.32-3.13 2.2-3.07 3.32-6.76 4.56-10.28 1.31-3.71 2.91-7.32 4.29-11.02.79-2.14 1.56-4.29 2.3-6.44 2.07-6.03 3.84-12.15 5.88-18.18 1.7-5.02 3.26-10.09 4.6-15.22 1.31-4.96 2.43-9.98 3.23-15.04.74-4.65 1.23-9.35 1.23-14.06.01-4.12-.34-8.27-1.4-12.27-.92-3.48-2.4-6.85-4.67-9.66a19.73 19.73 0 0 0-4.56-4.18z" fill="#2f2f2f"/><path d="M100.21 119.81c8.95-20.69 13.72-38.73 13.92-39.75.21-1.07.78-4.92-3.64-6.28-4.42-1.36-5.67 1.11-5.67 1.11s-11.08 30.49-17.79 42.38c-.3.54-1.36 3.3-.64 5.7.43 1.44 2.03 2.86 4.29 3.47 3.05.82 5.37-.13 6.4-1.37 1.97-2.38 2.74-4.36 3.13-5.26z" fill="#f79329"/><path d="M93.18 104.37s1.69-.72 2.98-3.24c1.29-2.52 3.1-6.99 6.33-8.51l2.53-9.14-1.94-.41s-4.77 4.95-8.51 12.2l-1.39 9.1z" fill="#2f2f2f"/><path d="M69.96 103.95c.51-.47.89-1.12 1.06-1.98.62-3.06-1.49-3.92-3.9-4.89-2.19-.88-4.95-1.45-6.63.69-1.62 2.07-1.31 5.73 1.49 6.59 2.24.68 6.07 1.36 7.98-.41z" fill="#f79329"/><path d="M71.47 103.58a4.42 4.42 0 0 1-4.04 1.42s-1.21-.7-.89-3.2c.24-1.97 1.54-3.53 3.17-3.46 0 0 1.33.36 3.61-.71 1.3-.62 6.84-3.51 9.21-7l.59 6.73s-9.48 3.78-11.65 6.22z" fill="#2f2f2f"/><path d="M83.5 85.07c1.3-2.91 5.76-3.75 9.96-1.87 4.21 1.88 6.54 5.76 5.24 8.67-1.3 2.92-5.76 3.75-9.96 1.87-4.2-1.88-6.55-5.76-5.24-8.67z" fill="#78a3ad"/><path fill="#78a3ad" d="M93.68 103l5.02-11.13-10.09-7.44-5.11.64-5.33 12.2z"/><g fill="#2f2f2f"><path d="M93.51 104.32c-1.29 3.09-5.95 4.09-10.4 2.24-4.47-1.86-7.04-5.88-5.75-8.96 1.3-3.1 5.95-4.1 10.4-2.24 4.47 1.85 7.04 5.87 5.75 8.96z"/><path d="M95.06 101c-1.29 3.09-5.95 4.09-10.4 2.24-4.46-1.86-7.03-5.87-5.75-8.96 1.29-3.1 5.95-4.1 10.42-2.24 4.45 1.85 7.02 5.87 5.73 8.96z"/><path d="M78.91 94.27l-1.55 3.33 10.81 7.54 5.34-.82 1.55-3.32z"/><g><path d="M87.51 112.92c-.87 2.09-4.01 2.76-7.02 1.51-3.01-1.26-4.74-3.96-3.87-6.05.87-2.09 4.01-2.76 7.02-1.51 3.01 1.26 4.74 3.96 3.87 6.05z"/><ellipse transform="rotate(-67.4 85.408 102.682)" cx="85.41" cy="102.68" rx="4.09" ry="5.9"/><path d="M79.96 100.41l-3.34 7.97 7.29 5.09 3.6-.55 3.55-8.74z"/></g></g><path d="M102.38 84.14s1.06-2.96 3.32-2.02c.81.33.94 1.34.76 2.49-.32 2.07-2.37 8.08-3.63 9.71-.23.29-1.12.93-1.9 1.03-.79.1-1.46-.34-1.64-.47-.71-.53-.37-1.53-.37-1.53l3.46-9.21z" fill="#2f2f2f"/><g><g fill="#40c0e7"><path d="M74.06 64.46c.04-.01.07-.02.1-.03 4.62-1.25 5.13-7.89.33-9.34-.12-.04-.25-.07-.38-.1-2.87-.64-5.67.73-7.59 2.81-.98 1.07-1.92 2.18-2.8 3.34-.43.56-.91 1.13-1.27 1.74-.21.35-.32 1.1.03 1.39.54.45 1.88.46 2.55.55 2.99.38 6.09.44 9.03-.36zM25.5 49.27c-.02-.03-.04-.04-.07-.06-2.81-2.77-7.76-.38-6.81 3.65l.09.32c.73 2.31 2.86 3.75 5.15 4.25 1.17.26 2.35.47 3.55.62.58.07 1.19.18 1.78.19.33 0 .91-.22.96-.6.09-.57-.44-1.53-.66-2.04-.96-2.33-2.2-4.56-3.99-6.33zM41.64 41.2v-.11c.22-4.78-5.94-7.29-8.8-3.17l-.21.33c-1.48 2.53-1.04 5.62.34 8.08a46.8 46.8 0 0 0 2.33 3.69c.41.58.8 1.21 1.28 1.75.27.3.94.64 1.33.39.59-.38 1.01-1.64 1.3-2.25 1.28-2.74 2.28-5.67 2.43-8.71z"/></g><path d="M53.58 123.7c-1.76-3.06-6.59-1.05-8.2-3.96-.89-1.61 1.45-6.28-1.16-6.72-3.18-.55-5.56 3.66-8.29 4.71-.24.09-.58.16-.95.22-.04-.08-.08-.13-.12-.21-.88-2.03-.52-4.4.08-6.46.08-.29.17-.58.27-.87.81-2.38 2.01-4.6 3.35-6.71.66-1.04 1.4-2.03 2.04-3.07.18-.28.41-.7.68-.88.32-.21.77-.23 1.13-.32 1.73-.42 3.43-.98 5.13-1.51 2.35-.74.8-5.71-.11-7.97.21-.42.42-.83.58-1.31.4-1.25.92-2.47 1.2-3.75.46-2.12 1.03-4.23 1.24-6.38.5-2.3.52-4.76.5-7.09-.04-5.98-1.74-8.79-7.83-9.19-1.41-.09-2.75-.05-4.14.14-6.18.83-11.82 3.8-16.42 7.94-2.64 2.39-4.99 5-6.95 7.98-.25.39-.49.81-.73 1.22-.76.01-1.5.06-2.15.15-.27.04-.54.06-.78.07-1.18.05-2.18-.05-3.18.94-.82.81-1.09 1.84-1.52 2.88C5.72 87.33 4.49 91.12 4 95.19c-.14 1.12-.18 2.22-.12 3.33.06 1.37-.18 2.8.11 4.17.22 1.08.55 2.15.8 3.2.12.51.3 1.45.77 1.8.65.49 1.91.17 2.65.01.5-.12 1.2-.17 1.93-.27.42 2.97 1.15 5.82 2.25 8.41 3.56 8.37 12.21 12.06 20.78 11.79 1.24.15 2.52.21 3.7.19 1.46-.04 18.04-1.8 16.71-4.12zM36.57 68c1.53-.08 3.43 1.5 2.87 3.09-.46 1.3-1.69 2.64-3.21 2.46l-.01-.01c-1.06-.16-2.28-1.21-2.33-2.34-.06-1.43 1.18-3.11 2.68-3.2z" fill="#ed6c30"/></g></svg>