<?xml version="1.0" encoding="utf-8"?>
<!-- Generator: Adobe Illustrator 19.2.1, SVG Export Plug-In . SVG Version: 6.00 Build 0)  -->
<svg version="1.1" xmlns="http://www.w3.org/2000/svg" xmlns:xlink="http://www.w3.org/1999/xlink" x="0px" y="0px"
	 viewBox="0 0 128 128" style="enable-background:new 0 0 128 128;" xml:space="preserve">
<g id="Layer_1">
	<path style="display:none;fill:#E39E49;" d="M-1171.7,65.14c0,0,9.08-0.67,16.3,0.96l-0.12-3.1c0,0-6.36-1.17-13.24-0.79
		c-2.31,0.13-5.39,0.04-7.58,0.58c-3.73,0.91-7.12,2.58-9.26,4.71l-3.59-8.76c0,0-2.76,1.94-3.14,2.33
		c-0.48,0.48-1.18,0.22-1.18,0.22c-0.03,0-0.03,0.03-0.04,0.06c0.7,0.51,1.37,1.14,1.97,2c1.09,1.55,2.7,3.92,4.34,6.34
		c-0.13,0.26-0.28,0.52-0.37,0.79c0,0-2.21,5.66,2.75,9.71c0,0,1.55,1.49,5.83,1.63c2.2,3.95-0.76,6.59-0.76,6.59
		c-4.16,3.61-9.08-0.39-9.08-0.39c-0.95-0.57-4.31-4.34-5.67-5.9l-5.96-7.22c0,0,0.19,0.93-0.19,1.32
		c-0.48,0.48-1.18,0.22-1.18,0.22c-0.02,0-0.02,0.03-0.03,0.04c0.46,0.36,0.93,0.77,1.38,1.28c2.15,2.41,4.7,5.61,6.65,8.14
		l-0.01-0.03l0.93,1.23c3.47,4.37,3.18,5.78,3.18,5.78c0.14,3.69-3.93,4.96-3.93,4.96c-3.8,1.39-7.62-2.23-7.62-2.23
		c-1.29-1.2-6.24-6.2-6.24-6.2l3.31,6.1c3.03,3.5,5.79,4.41,5.79,4.41c5.79,2.12,9.63-2.14,9.63-2.14c1.4-1.67,1.41-3.46,1.41-3.46
		c0.03-1.06-0.23-2.09-0.64-3.06c5.56,2.93,9.77-0.44,9.77-0.44c3.51-3.15,2.59-7.24,1.91-9.08c0.61-0.05,1.25-0.12,1.95-0.23
		c3.47-0.53,5.64-0.87,7.86-0.78c0,0,6.12,0.22,7.5,3.87c0,0,0.48,1.69-0.04,3.99c0,0-0.11,1.81,1.04,1.91
		c0.6,0.05,1.86-0.64,2.48-1.6c0,0,0.78-1.01,0.67-3.07c0,0,0.19-3.18-3.4-5.57c0,0-2.5-1.82-5.56-2.1
		c-3.26-0.31-4.43-0.5-9.53,0.24c0,0-5.44,0.96-9.26-0.56c0,0-3.22-1.45-2.05-5.45C-1184.69,72.38-1182.99,66.25-1171.7,65.14z"/>
</g>
<g id="Layer_4">
</g>
<g id="Layer_3">
</g>
<g id="Layer_2">
	<g>
		<g>
			<polygon id="XMLID_1814_" style="fill:#FBC11B;" points="46.91,44.3 57.77,36.81 80.55,65.97 62.91,76.32 			"/>
			
				<ellipse id="XMLID_1812_" transform="matrix(0.229 -0.9734 0.9734 0.229 0.8143 82.1986)" style="fill:#FBC11B;" cx="52.3" cy="40.59" rx="6.69" ry="6.69"/>
			<polygon id="XMLID_1811_" style="fill:#FBC11B;" points="23.9,40.14 24.88,30.63 53.16,33.93 51.82,47.05 			"/>
			
				<ellipse transform="matrix(0.8626 -0.506 0.506 0.8626 -26.1372 46.0727)" style="fill:#FBC11B;" cx="71.73" cy="71.15" rx="10.23" ry="10.23"/>
			<g>
				<path style="fill:#FBC11B;" d="M9.22,43.84l0.07,0.2c1.4,3.83,5.65,5.8,9.48,4.4l8.81-3.22c3.83-1.4,5.8-5.65,4.4-9.48
					l-0.07-0.2c-1.4-3.83-5.65-5.8-9.48-4.4l-8.81,3.22C9.79,35.77,7.82,40.01,9.22,43.84z"/>
				<path style="fill:#FBC11B;" d="M19.25,40.28l2.86,7.8c0.46,1.26,1.86,1.91,3.12,1.45l3.35-1.23c3.9-1.43,5.9-5.74,4.47-9.64
					l-1.11-3.03L19.25,40.28z"/>
			</g>
		</g>
		<g>
			<polygon style="fill:#FBC11B;" points="68.71,88 78.74,66.75 113.59,83.21 93.57,125.59 58.73,109.13 			"/>
			<path id="XMLID_1809_" style="fill:#FBC11B;" d="M48.6,87.53c0.77-2.72,5.37-12.46,6.98-14.78c5.09-7.34,10.93-11.72,17.5-8.61
				l22.4,10.58l-10,21.19L75.46,117.1l-22.4-10.58C46.49,103.42,46.16,96.12,48.6,87.53z"/>
		</g>
		<g>
			<g>
				<path id="XMLID_1808_" style="fill:#E7A13D;" d="M61.11,88.71L61.11,88.71c1.89-2.85,1.11-6.69-1.74-8.58l-4.41-2.92
					l-6.83,10.32l4.41,2.92C55.38,92.34,59.22,91.56,61.11,88.71z"/>
				<path id="XMLID_1807_" style="fill:#E7A13D;" d="M52.1,90.17c0,0,2.1-1.44,4.22-4.63c2.11-3.19,2.72-5.64,2.72-5.64l-5.07-3.36
					c-1.36-0.9-3.42-0.97-4.32,0.38l-3.87,5.84c-0.9,1.35-0.11,3.15,1.24,4.05L52.1,90.17z"/>
			</g>
			<g id="XMLID_1798_">
				<path id="XMLID_1806_" style="fill:#6D4C41;" d="M18.75,60.96c0,0,0.13-0.21,0.19-0.3c0.06-0.09,0.2-0.3,0.2-0.3
					c8-10.58,15.78-8.85,20.52-6.69c5.14,2.33,8.71,4.42,8.71,4.42s-0.31,0.06-0.81,0.22c-0.52,0.18-0.95,0.47-0.95,0.47l3.54,3.19
					l-10.64-1.48c-0.07-0.01-0.13,0.02-0.16,0.08l-1.26,2.46c-1.27,2.47-2.68,4.87-4.2,7.19l0,0c-0.07,0.1-0.14,0.2-0.2,0.3
					c-0.07,0.1-0.13,0.2-0.2,0.3l0,0c-1.54,2.31-3.2,4.54-4.98,6.68l-1.77,2.12c-0.04,0.05-0.05,0.12-0.01,0.18l5.52,9.22
					l-4.32-2.02c0,0-0.11,0.51-0.06,1.06c0.04,0.52,0.11,0.83,0.11,0.83s-3.68-2.35-7.62-6.39C16.61,78.67,12.29,72.14,18.75,60.96z
					"/>
				<g id="XMLID_1803_">
					<path id="XMLID_1805_" style="fill:#E49500;" d="M28.1,86.37c0,0-1.22,2.78,1.47,4.56c2.37,1.57,4.51,0.37,5.72-1.45
						l-6.43-4.26L28.1,86.37z"/>
					<path id="XMLID_1804_" style="fill:#E49500;" d="M46.12,59.14c0,0,2.09-2.21,4.77-0.43c2.37,1.57,2.1,4.01,0.9,5.83l-6.43-4.26
						L46.12,59.14z"/>
				</g>
				<path id="XMLID_1802_" style="fill:#FBC11B;" d="M19.5,61.1c7.12-10.76,17.33-8.05,29.04-0.29c12.15,8.04,10.12,17.93,6.3,23.7
					c-3.76,5.68-12.04,11.55-24.28,3.45C18.86,80.19,12.38,71.86,19.5,61.1z"/>
				<path id="XMLID_1801_" style="fill:#C07B47;" d="M43.61,70.63c1.21,0.8,2.73,0.64,3.39-0.36c0.66-1,0.22-2.47-0.99-3.27
					c-1.21-0.8-2.73-0.64-3.4,0.36C41.95,68.37,42.39,69.82,43.61,70.63"/>
				<path id="XMLID_1800_" style="fill:#C07B47;" d="M37.69,79.56c1.21,0.8,1.65,2.26,0.99,3.27c-0.66,1-2.18,1.17-3.39,0.36
					c-1.21-0.8-1.65-2.27-0.99-3.27C34.96,78.92,36.48,78.76,37.69,79.56"/>
				<path id="XMLID_1799_" style="fill:#E49500;" d="M43.45,79.68c0.63-0.54,1.18-1.18,1.54-1.71s0.72-1.29,0.97-2.08
					c0.11-0.34,0.45-0.27,0.57-0.05c0.23,0.46,0.42,1.81-0.33,2.94c-0.75,1.13-2.06,1.48-2.58,1.45
					C43.38,80.21,43.18,79.92,43.45,79.68z"/>
				<path style="fill:none;" d="M27.83,87.16c-0.01-0.97-0.44-1.87-0.7-2.8c-0.83-3,0.14-6.18,1.29-9.07c1.6-4.04,3.61-8,6.6-11.16
					c2.99-3.15,7.08-5.45,11.42-5.57"/>
				<g>
					<g>
						<g>
							<path style="fill:#01579B;" d="M39.66,76.44c1.84,1.24,2.3,3.78,0.17,6.93c-2.1,3.11-4.66,3.68-6.5,2.44
								c-1.84-1.24-2.38-3.67-0.17-6.93C35.3,75.71,37.81,75.2,39.66,76.44z"/>
							<g>
								<defs>
									<path id="SVGID_1_" d="M38.7,77.86c1.35,0.91,1.72,2.71,0.24,4.9c-1.46,2.16-3.3,2.53-4.65,1.62s-1.78-2.63-0.24-4.9
										C35.54,77.27,37.35,76.95,38.7,77.86z"/>
								</defs>
								<use xlink:href="#SVGID_1_"  style="overflow:visible;fill:#B3E5FC;"/>
								<clipPath id="SVGID_2_">
									<use xlink:href="#SVGID_1_"  style="overflow:visible;"/>
								</clipPath>
								<polygon style="clip-path:url(#SVGID_2_);fill:#FFFFFF;" points="39.42,85.97 34.69,77.86 35.26,74.8 39.99,82.91 								
									"/>
							</g>
						</g>
						<g>
							<path style="fill:#01579B;" d="M47.88,64.27c1.84,1.24,2.3,3.78,0.17,6.93c-2.1,3.11-4.66,3.68-6.5,2.44
								c-1.84-1.24-2.38-3.67-0.17-6.93C43.52,63.53,46.04,63.03,47.88,64.27z"/>
							<g>
								<defs>
									<path id="SVGID_3_" d="M46.92,65.69c1.35,0.91,1.72,2.71,0.24,4.9c-1.46,2.16-3.3,2.53-4.65,1.62s-1.78-2.63-0.24-4.9
										C43.77,65.1,45.57,64.78,46.92,65.69z"/>
								</defs>
								<use xlink:href="#SVGID_3_"  style="overflow:visible;fill:#B3E5FC;"/>
								<clipPath id="SVGID_4_">
									<use xlink:href="#SVGID_3_"  style="overflow:visible;"/>
								</clipPath>
								<polygon style="clip-path:url(#SVGID_4_);fill:#FFFFFF;" points="47.64,73.8 42.91,65.69 43.49,62.62 48.22,70.73 								
									"/>
							</g>
						</g>
					</g>
					<polygon style="fill:#01579B;" points="42.93,73.86 40.38,77.63 38.5,76.36 41.05,72.59 					"/>
					<g>
						<path style="fill:#01579B;" d="M47.67,60.12c1.26,1.5,1.36,3.38,0.96,5.3l-1.88-1.27c0.71-1.56,0.57-3.33-0.96-5.3
							L47.67,60.12z"/>
						<path style="fill:#01579B;" d="M29.4,87.17c1.87,0.6,3.65-0.01,5.29-1.11L32.8,84.8c-1.18,1.25-2.88,1.78-5.28,1.11
							L29.4,87.17z"/>
					</g>
				</g>
				<path style="fill:#651FFF;" d="M18.16,59.81c0,0-0.15,0.21-0.2,0.3c-0.06,0.09-0.19,0.3-0.19,0.3
					c-6.99,11.71-1.82,19.77,2.05,23.09c4.28,3.67,8.17,5.4,8.17,5.4s-0.07-0.31-0.11-0.83c-0.04-0.55,0.06-1.06,0.06-1.06
					s-1.25-5.43-0.46-9.95c0.81-4.61,5.83-12.19,9.25-14.46c3.62-2.41,5.71-3.47,9.9-3.82c0,0,0.43-0.3,0.95-0.47
					c0.49-0.17,0.81-0.22,0.81-0.22s-3.2-2.72-8.16-5.41C36.45,50.64,26.58,48.63,18.16,59.81z"/>
			</g>
		</g>
	</g>
	<path style="fill:#651FFF;" d="M103.12,105.36l10.47-22.08l-9.88-4.69l-19.75-9.33c-7.7,8.28-24.17,0.54-25.56-0.14
		c-0.45,0.51-0.89,1.05-1.33,1.62c11.19,8.98,7.71,16.51,7.71,16.51l0,0c-0.03,0.06-3.68,7.47-17.64,4.52
		c-0.16,0.69-0.3,1.38-0.41,2.05c1.41,0.65,17.84,8.47,16.32,19.67l19.74,9.35l9.89,4.67l10.43-22.11"/>
	<path style="fill:#039BE5;" d="M96.01,89.16c-6.06,0-9.43-7.19-16-7.19s-9.93,7.19-16,7.19s-9.43-7.19-16-7.19
		c-6.57,0-9.93,7.19-16,7.19s-9.43-7.19-16-7.19s-9.93,7.19-16,7.19v-7.19H0V128h127.93V89.16c-6.01-0.06-9.38-7.18-15.92-7.18
		C105.44,81.98,102.07,89.16,96.01,89.16z"/>
	<g id="XMLID_1790_">
		<g id="XMLID_1792_">
			<path id="XMLID_1797_" style="fill:#29B6F6;" d="M127.97,98.5c-6.06,0-9.43,7.19-16,7.19h16V98.5z"/>
			<path id="XMLID_1796_" style="fill:#29B6F6;" d="M111.97,105.69c-6.57,0-9.93-7.19-16-7.19c-6.06,0-9.43,7.19-16,7.19h16H111.97z
				"/>
			<path id="XMLID_1795_" style="fill:#29B6F6;" d="M79.98,105.69c-6.57,0-9.93-7.19-16-7.19s-9.43,7.19-16,7.19h16H79.98z"/>
			<path id="XMLID_1794_" style="fill:#29B6F6;" d="M47.99,105.69c-6.57,0-9.93-7.19-16-7.19s-9.43,7.19-16,7.19h16H47.99z"/>
			<path id="XMLID_1793_" style="fill:#29B6F6;" d="M16,105.69c-6.57,0-9.93-7.19-16-7.19l0,7.19H16z"/>
		</g>
		
			<rect id="XMLID_1791_" x="0" y="105.69" transform="matrix(-1 8.976984e-11 -8.976984e-11 -1 128 233.6891)" style="fill:#29B6F6;" width="128" height="22.31"/>
	</g>
</g>
</svg>
