<?xml version="1.0" encoding="utf-8"?>
<!-- Generator: Adobe Illustrator 16.0.0, SVG Export Plug-In . SVG Version: 6.00 Build 0)  -->
<!DOCTYPE svg PUBLIC "-//W3C//DTD SVG 1.1//EN" "http://www.w3.org/Graphics/SVG/1.1/DTD/svg11.dtd">
<svg version="1.1" id="レイヤー_1" xmlns="http://www.w3.org/2000/svg" xmlns:xlink="http://www.w3.org/1999/xlink" x="0px"
	 y="0px" width="128px" height="128px" viewBox="0 0 128 128" enable-background="new 0 0 128 128" xml:space="preserve">
<g>
	<g>
		<g>
			<path fill="#006CA2" d="M58.06,99.39c0,3.64-6.59,6.59-14.71,6.59c-8.12,0-14.71-2.95-14.71-6.59c0-3.63,6.58-6.58,14.71-6.58
				C51.47,92.81,58.06,95.76,58.06,99.39z"/>
			<path fill="#006CA2" d="M28.64,99.39l3.41,17.39c0.75,2.94,5.06,5.05,11.3,5.05c6.23,0,10.55-2.15,11.29-5.05l3.42-17.39"/>
		</g>
		<g>
			<path fill="#78A3AD" d="M43.35,101.65c-10.22,0-18.22-4.64-18.22-10.56c0-5.92,8-10.55,18.22-10.55
				c10.22,0,18.22,4.64,18.22,10.55C61.57,97.01,53.57,101.65,43.35,101.65z M43.35,83.74c-8.85,0-15.02,3.88-15.02,7.35
				c0,3.48,6.17,7.35,15.02,7.35c8.85,0,15.02-3.88,15.02-7.35C58.37,87.61,52.21,83.74,43.35,83.74z"/>
			<path fill="#78A3AD" d="M43.35,123.22c-7.65,0-13.28-3.2-14.33-8.14l-3.87-23.72c-0.14-0.87,0.45-1.7,1.32-1.84
				c0.92-0.13,1.7,0.45,1.84,1.32l3.85,23.65c0.7,3.28,5.2,5.53,11.18,5.53c5.88,0,10.49-2.31,11.2-5.61l3.84-23.57
				c0.14-0.87,0.91-1.48,1.84-1.32c0.87,0.14,1.46,0.96,1.32,1.84L57.7,115C56.64,119.94,50.88,123.22,43.35,123.22z"/>
		</g>
	</g>
	<g>
		<path fill="#006CA2" d="M107.07,41.94c-1.72-2.26-4.69-2.21-7.35-1.73c-1,0.18-1.6,0.7-2.08,1.35c-0.48,0.67-0.82,1.5-1.32,2.25
			c-1.41,2.15-3.58,2.31-5.76,1.25c-0.97-0.47-1.53-0.85-2.02,0.35c-0.31,0.74-0.29,1.6-0.64,2.33c-0.61,1.25-1.56,2.29-2.68,3.1
			c-2.38,1.7-5.42,2.38-8.31,2.38c-2.78,0-6.24,0-9.2-1.71c-2.22-1.29-3.23-3.2-3.99-5.09c-0.38-0.94,0.07-2.61-1.1-2.87
			c-3.04-0.68-5.15,2.22-6.19,4.6c-1.89,4.37-6.38,6.38-10.23,8.68c-4.88,2.92-7.88,6.85-9.51,12.35C35.34,73.75,35,78.58,35,83.32
			c0,2.08-0.26,3.64,1.57,4.88c1.97,1.33,4.05,2.01,6.44,2.01c2.13,0,4.41-0.16,6.39-1.02c1.16-0.5,2.77-1.24,3.03-2.53
			c0.62-3.23-0.22-6.54,0.38-9.78c0.56-2.98,2.95-4.9,5.82-5.53c2.62-0.58,4.41,0.48,6.7,1.53c2.57,1.18,5.38,1.79,8.2,1.85
			c5.27,0.12,10.47-1.02,13.75-5.61c1.24-1.72,1.84-5.65,3.72-6.65c0.9-0.48,2.26-0.78,3.23-0.35c1.65,0.74,2,3.17,3.4,4.24
			c2.12,1.61,8.02,0.88,9.68-1.13C111.99,59.58,111.33,47.51,107.07,41.94z"/>
		<path fill="#006CA2" d="M93.34,22.09c-1.85-0.07-3.74,0.42-5.18,1.47c-1.47,1.07-3.65,1.96-5.46,2.08c-3.24,0.2-3-1.67-3.07-4.33
			c-0.1-3.4-1.12-5.36-4.23-6.91c-2.06-1.03-4.42-1.26-6.64-0.68c-2.97,0.77-5.68,2.82-6.33,5.93c-0.26,1.25-0.2,2.71,0.32,3.9
			c0.42,0.95,2.95,2.68,0.89,3.53c-2.38,0.99-4.73-0.4-7.09-0.71c-2.55-0.34-5.33-0.09-7.69,0.96c-2.15,0.95-3.08,3.04-3.23,5.29
			c-0.51,7.86,6.18,9.82,12.84,8.52c1.29-0.25,2.52-0.77,3.83-0.99c1.02-0.17,2.28-0.59,3.3-0.23c0.73,0.25,1.05,0.68,1.07,1.39
			c0.03,1.33-0.47,2.64,0.05,3.91c0.58,1.45,1.24,2.71,2.63,3.52c2.22,1.29,5.16,1.28,7.64,1.28c3.4,0,8.4-1.42,8.53-5.51
			c0.04-1.23,0.12-2.64-0.4-3.73c-1.18-2.51-2.01-3.59,1.32-4.63c1.43-0.44,2.97-0.42,4.45-0.45c3.33-0.09,6.98,0.3,8.62-3.43
			C101.58,27.5,98.56,22.3,93.34,22.09z"/>
		<path fill="#FFFFFF" d="M77.44,28.66c-2.62-1.02-6.46-0.28-8.6,1.5c-2.38,1.96-1.41,4.99,1.27,5.96c2.8,1.02,7.06,0.95,9.23-1.37
			C81.33,32.63,80.04,29.67,77.44,28.66z"/>
	</g>
</g>
</svg>
