<svg xmlns="http://www.w3.org/2000/svg" xmlns:xlink="http://www.w3.org/1999/xlink" viewBox="0 0 128 128"><path d="M25.1 79.95c5.08-2.54 8.91-.07 10.51 3.93M25.76 74.96c5.6-.93 8.53 2.54 8.9 6.84M26.83 68.49c5.47-1.49 8.78 1.41 8.78 6.32M28.46 63.72c5.67.18 8.78 3.05 8.73 8.46M38.44 58.16c3.73 2.48 5.61 7.73 3.25 11.31M40.24 56.97c4.11 1.81 9.25 7.05 6.43 13.91M43.86 56.97c4.11 1.81 22.88 5.61 24.58 14.29M44.74 56.09c5.58.88 34.88 3.58 36.59 12.26" fill="none" stroke="#dd5728" stroke-width="2.35" stroke-linecap="round" stroke-linejoin="round" stroke-miterlimit="10"/><path d="M97.98 37c-.54 0-1.02-.37-1.15-.92-.14-.63.26-1.26.89-1.4 6.84-1.53 13.22-6.8 15.53-12.81 1.06-2.75 1.72-6.87-1.1-10.85-6.72-9.46-23.8-8.07-44.57 3.64l-2.61 1.47C51.49 23.76 46.29 27.6 29.99 29.22c-3.82.38-7.68-.07-7.74-.72-.05-.65 3.78.1 7.66-.61 15.26-2.81 16.51-3.31 33.9-13.8l2.61-1.48C88.66.08 106.47-1.03 114.06 9.66c2.67 3.77 3.17 8.4 1.38 13.05-2.61 6.81-9.53 12.54-17.21 14.26-.08.02-.16.03-.25.03z" fill="#dd5728"/><path d="M96.83 37c-.54 0-1.02-.37-1.15-.92-.14-.63.26-1.26.89-1.4 6.36-1.43 9.65-6.64 10.61-11.05 1.08-4.99-.43-9.75-3.96-12.43-9.81-7.43-24.34-6.93-44.43 1.53-16.3 6.87-22.54 10.19-34.89 7.26-1.5-.36-5.24-1.91-5.16-2.55.08-.64 4.58 1.64 8.82 1.83 9.52.41 11.77-.35 30.32-8.7 20.7-9.32 36.22-9.22 46.76-1.24 4.27 3.23 6.12 8.9 4.84 14.8-1.42 6.52-6.16 11.45-12.39 12.84-.09.02-.18.03-.26.03zM26.07 94.56c1.15-.34 6.33 3.22 11.4 5.58 3.41 1.58 11.55 3.52 15.12 4.68 2.57.84 5.16 2.31 5.51 4.93.52 3.87-3.59 4.48-5.61 4.33-6-.44-14.13-4.51-18.53-8.55-3.52-3.26-10.56-10.19-7.89-10.97z" fill="#dd5728"/><path d="M25.43 95.53c1.41.12 5.6 5.59 10.2 9.85 3.09 2.87 11.22 7.92 14.67 10.44 2.48 1.82 4.71 4.26 4 6.92-1.05 3.94-5.82 2.92-7.97 1.99-6.41-2.77-13.64-9.88-16.79-15.51-2.54-4.53-7.38-13.98-4.11-13.69z" fill="#f37021"/><defs><path id="a" d="M15.87 76.29c-3.13.52-3.33 3.52-2.08 5.88 2.73 5.14 4.05 9.39 7.61 14.37 1.06 1.48 2.85 3.54 4.75 3.1 1.87-.44 3.6-2.91 3.62-4.7.08-9.99-1.42-15.71-2.95-16.89-3.19-2.43-8.51-2.39-10.95-1.76z"/></defs><use xlink:href="#a" overflow="visible" fill="#f37021"/><clipPath id="b"><use xlink:href="#a" overflow="visible"/></clipPath><path d="M12.33 80.67c1.17-1.57 4.82.45 7.24.83 2.99.47 6.81-.88 10.2 10.33.51 1.7 2.24-10.87-2.2-15.08-2.05-1.94-5.9-1.66-8.61-1.43-3 .25-5.59.84-7.99 2.61" clip-path="url(#b)" fill="#dd5728"/><defs><path id="c" d="M16.95 64.73c-2.55-.71-4.39-.09-5.07 2.62-.85 3.39-.37 9.76 2.45 11.08 3.39 1.58 9.66 1.63 12.41-.92 1.01-.94 1.76-7.54-1.1-9.17-3.48-1.96-4.91-2.82-8.69-3.61z"/></defs><use xlink:href="#c" overflow="visible" fill="#f37021"/><clipPath id="d"><use xlink:href="#c" overflow="visible"/></clipPath><path d="M11.6 68.89c1.47-.76 2.65 2.66 6.51 4.04 5.29 1.9 8.52 1.37 9.11 3.62.63 2.37 4.5-4.54.52-8-2.94-2.56-7.29-4.13-11.07-4.8-2.75-.49-5.31-.39-6.3 2.53" clip-path="url(#d)" fill="#dd5728"/><g><defs><path id="e" d="M21.6 52.35c-3.31-1.46-5.36-.08-6.98 2.85-1.71 3.08-3.07 9.47-.31 12.09 2.92 2.77 9.93 5.69 12.42 2.74 1.52-1.8 3.6-6.24 2.23-9.75-1.9-4.83-3.1-6.08-7.36-7.93z"/></defs><use xlink:href="#e" overflow="visible" fill="#f37021"/><clipPath id="f"><use xlink:href="#e" overflow="visible"/></clipPath><path d="M14.39 55.65c2.22-1.07 3.1 4.93 4.76 6.48 5.18 4.83 8.39 5.01 8.25 6.98-.15 2.12 3.55-4.69 3.55-4.69-.23-2.15-1.7-4.22-2.97-5.89-1.73-2.26-3.78-4.33-6.1-5.99-1.57-1.12-3.88-2.61-5.91-1.98-1.57.48-2.26 2.19-2.85 3.56" clip-path="url(#f)" fill="#dd5728"/></g><g><defs><path id="g" d="M31.9 42.26c-3.69-2.14-8.38 1.29-11.11 3.47-3.07 2.46-4.29 5.62-2.95 9.7 1.5 4.54 6.02 9.14 10.81 8.54 3.67-.46 7.78-4.16 8.53-7.65 1.16-5.38-.82-11.05-5.28-14.06z"/></defs><use xlink:href="#g" overflow="visible" fill="#f37021"/><clipPath id="h"><use xlink:href="#g" overflow="visible"/></clipPath><path d="M24.47 42.58c1.76.54.59 6.66 1.77 11.39 1.51 6.05 6.06 7.02 4.44 9.43-.56.83 5.77-1.28 6.62-1.96 1.08-.87.33-2.88.02-3.93-.92-3.07-2.21-6.06-3.53-8.98-1.24-2.73-2.59-6.38-4.99-8.34-1.46-1.19-2.59-.26-3.65.92" clip-path="url(#h)" fill="#dd5728"/></g><g><defs><path id="i" d="M43.92 38.73c-1.98-3.86-10.32-2.24-13.66.54-3.88 3.22-2.9 7.68-1.97 12.06.93 4.36 3.76 8.39 8.13 8.49 4.48.1 10.06-1.69 10.89-5.16 1.32-5.45-.9-11.37-3.39-15.93z"/></defs><use xlink:href="#i" overflow="visible" fill="#f37021"/><clipPath id="j"><use xlink:href="#i" overflow="visible"/></clipPath><path d="M38.44 33.47c-.49.65-5.08 3.23-3.98 2.97 3.12-.72 1.97 6.53 3.12 11.69 1.4 6.24 3.32 8.43 0 11.66-2.66 2.58 8.99-.61 10.13-1.63 3.55-3.17 4.53-6.46 4.49-11.2-.04-5.54-3.47-10.6-8.64-12.64-2.7-1.06-3.19-3.22-5.12-.85z" clip-path="url(#j)" fill="#dd5728"/></g><path d="M88.29 34.5c1.53-.24 16.96-3.08 17.26-1.54.04 1.54-2.99 2.96-6.32 4.77-2.46 1.34-6.95 3.62-6.56 4.76.25 1.18 7.2-1.13 6.81.92-.3 1.87-15.68 9.39-42.28 13.56-2.74.43 7.04-4.43 5.9-8-1.3-4.09 19.27-13.03 25.19-14.47z" fill="#dd5728"/><g><path d="M42.25 33.47c14.1-6.72 36.76-5.37 42.68-5.09 6.07.29 17.82-.52 17.82 1.4-.02 2.52-15.49 8.03-17.54 10.03 1.14-.08 4.32-.07 5-.07 3.3 0 3.37.89.8 2.6-1.62 1.08-3.99 2.81-5.88 3.78-5.13 2.62-14.43 7.35-19.94 8.83-5.91 1.59-14.71 4-19.13 2.96-3.93-.93-5.21-6.28-6.32-11.37-1.28-5.95-3-10.44 2.51-13.07z" fill="#f37021"/><circle cx="80.42" cy="30.1" r="3.38" fill="#4a3530"/></g></svg>