<?xml version="1.0" encoding="utf-8"?>
<!-- Generator: Adobe Illustrator 19.2.1, SVG Export Plug-In . SVG Version: 6.00 Build 0)  -->
<svg version="1.1" id="图层_1" xmlns="http://www.w3.org/2000/svg" xmlns:xlink="http://www.w3.org/1999/xlink" x="0px" y="0px"
	 viewBox="0 0 128 128" style="enable-background:new 0 0 128 128;" xml:space="preserve">
<g>
	<g>
		<path style="fill:#2F2F2F;" d="M106.75,69.55c-0.21,0-0.4-0.1-0.52-0.28l-0.13-0.2c-0.17-0.26-0.12-0.61,0.12-0.81l13.96-11.7
			c0.14-0.12,0.29-0.15,0.4-0.15c0.21,0,0.41,0.1,0.52,0.28l2.96,4.52c0.1,0.15,0.13,0.34,0.08,0.52c-0.05,0.17-0.18,0.32-0.34,0.39
			L107,69.5C106.92,69.53,106.83,69.55,106.75,69.55z"/>
		<path style="fill:#464747;" d="M120.57,56.91c0.02,0,0.07,0.01,0.1,0.05l2.96,4.52c0.02,0.03,0.02,0.06,0.01,0.1
			c-0.01,0.04-0.03,0.06-0.07,0.08l-16.83,7.39c-0.02,0-0.07,0-0.1-0.05l-0.13-0.2c-0.03-0.05-0.02-0.12,0.02-0.16l13.96-11.7
			C120.5,56.93,120.53,56.91,120.57,56.91 M120.57,55.91c-0.25,0-0.51,0.08-0.72,0.26l-13.96,11.7c-0.44,0.37-0.53,1-0.21,1.47
			l0.13,0.2c0.21,0.32,0.57,0.5,0.93,0.5c0.15,0,0.3-0.03,0.45-0.09l16.78-7.38c0.63-0.28,0.86-1.06,0.49-1.64l-2.96-4.52
			C121.29,56.08,120.93,55.91,120.57,55.91L120.57,55.91z"/>
	</g>
	<g>
		<path style="fill:#2F2F2F;" d="M121,94.76c-0.03,0-0.07-0.01-0.11-0.04l-14.66-12.29c-0.06-0.05-0.08-0.15-0.03-0.22l0.57-0.86
			c0.03-0.05,0.08-0.08,0.14-0.08l17.69,7.76c0.06,0.03,0.08,0.08,0.09,0.1c0.01,0.03,0.02,0.08-0.02,0.14l-3.53,5.4
			C121.1,94.75,121.03,94.76,121,94.76z"/>
		<path style="fill:#464747;" d="M107.04,81.86l17,7.48l-3.11,4.75l-14.14-11.86L107.04,81.86 M106.91,80.78
			c-0.22,0-0.43,0.11-0.56,0.3l-0.57,0.86c-0.19,0.28-0.13,0.66,0.13,0.88l14.66,12.29c0.13,0.11,0.28,0.16,0.43,0.16
			c0.22,0,0.43-0.1,0.56-0.3l3.53-5.4c0.23-0.34,0.09-0.81-0.29-0.97l-17.62-7.75C107.09,80.8,107,80.78,106.91,80.78L106.91,80.78z
			"/>
	</g>
	<g>
		<path style="fill:#2F2F2F;" d="M106.98,75.82c-0.27-0.02-0.48-0.25-0.48-0.52v-0.33c0-0.25,0.18-0.47,0.43-0.51l18.42-3.42
			c0.01,0,0.01,0,0.02,0c0.37,0,0.59,0.23,0.6,0.51l0.06,5.13c0,0.14-0.05,0.27-0.15,0.37c-0.1,0.1-0.23,0.15-0.37,0.15
			L106.98,75.82z"/>
		<path style="fill:#464747;" d="M125.44,71.53l0.02,0.02l0.04,5.15L107,75.3l0.02-0.35L125.44,71.53L125.44,71.53 M125.44,70.53
			c-0.06,0-0.12,0.01-0.19,0.02l-18.42,3.42c-0.48,0.09-0.83,0.51-0.83,1v0.33c0,0.53,0.41,0.98,0.95,1.02l18.48,1.38
			c0.03,0,0.05,0,0.08,0c0.56,0,1.03-0.46,1.02-1.03l-0.06-5.13C126.46,70.97,125.99,70.53,125.44,70.53L125.44,70.53z"/>
	</g>
</g>
<g>
	<path style="fill:#2F2F2F;" d="M66.04,124.26c-13.32,0-20.15-1.06-22.15-1.93c0.63-0.65,1.66-1.72,3.08-3.71
		c0.98-1.38,1.52-2.31,1.75-3.6c0.04-0.23,0.38-2.34-0.74-4.77c-2.48-5.38-13.91-10.69-15.2-11.28c-1.31-0.61-13.16-6.3-20.59-16.04
		c-6.69-8.77-7.88-18.53-8.39-22.7C3.3,56.05,2.36,48.29,5.75,39.1c2.07-5.6,4.98-9.57,6.54-11.44C20.89,17.3,33,14.68,37.55,13.7
		c3.55-0.77,7.15-1.16,10.7-1.16c1.95,0,3.91,0.12,5.85,0.35l0.11,0.01c4.71,0.21,8.34,0.72,10.03,1.09
		c0.79,0.18,2.07,0.4,3.54,0.66c2.7,0.47,6.06,1.06,8.71,1.74c1.75,0.45,2.9,1.17,3.03,1.5c0.04,0.21-0.25,1.06-1.45,2.26
		l-1.19,1.19l1.43,1.13c0.05,0.06,0.11,0.13,0.26,0.29c0.35,0.4,1.13,1.3,3.19,3.63c0.06,0.07,6.39,7.27,7.85,11.35
		c0.13,0.37,0.21,0.77,0.23,0.93l0,1.45c0,3.42-0.04,4.81-0.05,5.47c-0.01,0.55-0.02,0.71,0.04,1.07c0.75,4.18,4.42,7.43,6.71,8.6
		c0.36,0.18,0.96,0.49,1.66,1.06c0.63,0.53,1.58,1.32,1.59,1.75c-0.02,0.04-0.18,0.22-0.29,0.36c-0.43,0.51-1.09,1.28-1.6,2.7
		c-0.33,0.92-0.73,2.02-0.23,3.25c0.24,0.59,0.56,0.94,0.82,1.23c0.18,0.2,0.32,0.35,0.48,0.63l0.07,0.11
		c0.22,0.32,0.32,0.6,0.32,0.85c-0.03,0.95-2.15,2.15-4.6,3.53c-0.54,0.3-1.1,0.62-1.69,0.96c-6.76,3.91-9.99,5.91-9.42,8.5
		c0.38,1.75,2.35,2.3,3.93,2.75c1.04,0.29,2.09,0.43,3.2,0.43c1.05,0,2.19-0.12,3.8-0.4c1.96-0.34,3.57-0.73,4.87-1.04
		c0.95-0.23,1.8-0.44,2.37-0.51c-0.01,0.18-0.05,0.41-0.11,0.72c-0.07,0.35-0.18,0.62-0.35,1.02c-0.3,0.72-0.62,1.21-0.77,1.44
		l-0.06,0.1c-0.95,1.54-0.5,3.35-0.1,4.95c0.1,0.4,0.2,0.8,0.28,1.19c0.58,2.96,0.31,5.29-0.75,6.57c-1.02,1.24-2.95,1.77-4.49,2.2
		c-0.47,0.13-0.83,0.2-1.23,0.28c-0.54,0.11-1.16,0.23-2.13,0.49c-1.31,0.35-2.6,0.78-3.83,1.27c-0.58,0.19-2.12,0.7-3.48,2.01
		c-2.59,2.49-2.62,6.07-2.63,7.6c-0.01,1.3,0.15,2.23,0.27,2.91c0.2,1.13,0.48,2.16,0.86,3.14c0.24,0.61,0.38,0.94,0.51,1.23
		c0.11,0.25,0.21,0.47,0.37,0.89c0.35,0.95,0.62,2.02,0.66,2.45c-1.13,1.18-8.77,2.27-16.61,2.36
		C67.51,124.26,66.78,124.26,66.04,124.26C66.04,124.26,66.04,124.26,66.04,124.26z"/>
	<path style="fill:#464747;" d="M48.26,14.04c1.89,0,3.8,0.11,5.68,0.34l0.11,0.01l0.11,0c4.61,0.2,8.14,0.7,9.77,1.06
		c0.83,0.18,2.05,0.4,3.61,0.67c2.68,0.47,6,1.05,8.6,1.72c0.61,0.16,1.14,0.35,1.53,0.53c-0.15,0.2-0.36,0.44-0.63,0.72l-2.37,2.39
		l2.64,2.09l0,0c0.04,0.04,0.09,0.1,0.17,0.2c0.35,0.41,1.14,1.31,3.19,3.63c2.39,2.71,6.56,8.05,7.56,10.86
		c0.07,0.19,0.12,0.41,0.15,0.56l0,1.32c0,3.4-0.04,4.77-0.05,5.43c-0.02,0.6-0.02,0.87,0.07,1.38c0.76,4.22,4.35,8.06,7.51,9.67
		l0.07,0.03c0.24,0.12,0.75,0.38,1.31,0.84c0.19,0.16,0.43,0.36,0.65,0.55c-0.44,0.57-0.97,1.4-1.41,2.63
		c-0.36,1-0.91,2.52-0.2,4.28c0.34,0.84,0.82,1.37,1.11,1.68c0.15,0.17,0.21,0.23,0.28,0.36l0.06,0.11
		c-0.63,0.59-2.32,1.55-3.71,2.33c-0.54,0.3-1.11,0.63-1.71,0.97c-6.84,3.96-10.97,6.34-10.14,10.12c0.58,2.63,3.23,3.37,4.99,3.87
		c1.18,0.33,2.35,0.49,3.6,0.49c1.44,0,2.86-0.21,4.06-0.42c1.88-0.33,3.43-0.69,4.7-1c-0.09,0.15-0.16,0.26-0.21,0.34l-0.08,0.12
		c-1.28,2.08-0.7,4.4-0.28,6.1c0.1,0.4,0.19,0.77,0.26,1.13c0.7,3.59-0.16,4.98-0.44,5.32c-0.72,0.87-2.39,1.33-3.73,1.7
		c-0.4,0.11-0.7,0.17-1.12,0.25c-0.54,0.11-1.21,0.24-2.24,0.51c-1.33,0.36-2.65,0.79-3.92,1.29c-0.79,0.27-2.5,0.87-4.05,2.36
		c-3.05,2.93-3.07,6.95-3.09,8.67l0,0.06c-0.01,1.4,0.17,2.44,0.3,3.13c0.22,1.23,0.52,2.34,0.94,3.42
		c0.25,0.65,0.42,1.02,0.55,1.31c0.11,0.25,0.19,0.42,0.32,0.78c0.14,0.39,0.27,0.79,0.36,1.14c-2.36,0.85-8.75,1.59-14.91,1.66
		c-0.72,0.01-1.45,0.01-2.19,0.01c-9.91,0-16.21-0.6-19.4-1.23c0.46-0.55,0.98-1.22,1.56-2.04c0.88-1.24,1.7-2.49,2.01-4.21
		c0.05-0.28,0.46-2.82-0.85-5.67C46.7,103.87,35.6,98.6,33.43,97.61c-0.52-0.24-12.72-5.99-20.05-15.6
		c-6.45-8.45-7.6-17.92-8.09-21.97C4.8,56,3.89,48.47,7.15,39.62c1.99-5.39,4.79-9.21,6.28-11c8.28-9.96,20.02-12.5,24.44-13.45
		C41.31,14.42,44.81,14.04,48.26,14.04 M48.26,11.04c-3.47,0-7.15,0.35-11.02,1.19c-5.25,1.14-17.35,3.93-26.11,14.47
		c-1.17,1.41-4.46,5.58-6.79,11.88C0.9,47.91,1.77,55.91,2.32,60.41C2.85,64.76,4.06,74.74,11,83.83
		c7.71,10.1,20.1,16.01,21.17,16.5c0,0,12.14,5.51,14.46,10.54c0.95,2.07,0.62,3.88,0.62,3.88c-0.18,1-0.62,1.76-1.5,3
		c-2.65,3.73-3.81,4.01-3.75,4.75c0.2,2.41,12.72,3.26,24.04,3.26c0.75,0,1.48,0,2.21-0.01c0,0,17.65-0.2,18.08-3.58
		c0.08-0.65-0.4-2.31-0.74-3.24c-0.34-0.92-0.44-0.98-0.89-2.14c-0.3-0.77-0.58-1.71-0.78-2.86c-0.12-0.67-0.26-1.48-0.25-2.58
		c0.01-1.43,0-4.5,2.17-6.58c1.12-1.07,2.41-1.51,3-1.7h0c0.82-0.33,2.09-0.79,3.67-1.22c1.72-0.46,2.26-0.46,3.38-0.77
		c1.83-0.5,3.95-1.11,5.25-2.69c2.1-2.55,1.24-6.91,1.06-7.81c-0.36-1.83-1.18-3.77-0.38-5.06c0.11-0.18,0.54-0.8,0.94-1.75
		c0.18-0.42,0.34-0.8,0.44-1.31c0.07-0.38,0.32-1.64-0.06-2.19c-0.18-0.25-0.48-0.35-0.93-0.35c-1.32,0-3.86,0.91-7.86,1.6
		c-1.33,0.23-2.46,0.38-3.54,0.38c-0.94,0-1.84-0.11-2.79-0.38c-1.28-0.36-2.68-0.75-2.88-1.62c-0.35-1.6,3.59-3.92,8.71-6.88
		c4.13-2.39,6.98-3.66,7.04-5.75c0.02-0.74-0.31-1.36-0.58-1.75c-0.5-0.87-0.95-1.02-1.21-1.67c-0.29-0.71-0.03-1.41,0.25-2.18
		c0.82-2.27,2-2.41,1.98-3.59c-0.02-1.12-1.09-2.01-2.12-2.88c-0.88-0.73-1.66-1.11-1.94-1.25c-2.22-1.13-5.31-4.14-5.92-7.52
		c-0.08-0.47,0.03-0.12,0.03-6.28c0-0.66,0-1.2,0-1.57c0,0-0.08-0.67-0.32-1.33c-1.57-4.4-8.14-11.84-8.14-11.84
		c-3.07-3.48-3.3-3.76-3.48-3.96c-0.04-0.04-0.07-0.07-0.07-0.08c0,0,0,0,0,0c0,0-0.07-0.06-0.19-0.16c0.99-0.99,2.1-2.46,1.84-3.65
		c-0.29-1.36-2.71-2.26-4.12-2.62c-4.2-1.08-10.16-1.93-12.3-2.41c-1.96-0.44-5.71-0.93-10.29-1.13
		C52.36,11.17,50.35,11.04,48.26,11.04L48.26,11.04z"/>
</g>
<path style="fill:#474C4F;" d="M103.5,63"/>
</svg>
