<svg enable-background="new 0 0 128 128" viewBox="0 0 128 128" xmlns="http://www.w3.org/2000/svg" xmlns:xlink="http://www.w3.org/1999/xlink"><defs><rect id="p" x="4" y="4" width="120" height="120"/></defs><clipPath id="a"><use xlink:href="#p"/></clipPath><g clip-path="url(#a)"><linearGradient id="e" x1="34.124" x2="81.431" y1="55.06" y2="110.64" gradientUnits="userSpaceOnUse"><stop stop-color="#8D5738" offset="0"/><stop stop-color="#97603D" offset=".2163"/><stop stop-color="#A26941" offset=".5728"/><stop stop-color="#A56C43" offset="1"/></linearGradient><path d="m111.83 120.63c-1.17 0-2.3-0.34-3.28-0.98l-3.05-2.01c-1.25-0.82-2.13-2.07-2.5-3.53-0.02-0.09-0.07-0.17-0.14-0.24l-5.87-18.46c-0.04-0.13-0.14-0.24-0.26-0.3l-12.52-5.87c-0.34-0.16-0.7-0.24-1.06-0.24-1.1 0-2.06 0.7-2.39 1.75l-8.86 28.09-33.78-10.65 9.71-30.93c0.33-1.06-0.06-2.18-0.97-2.81l-17.2-11.8c-2.72-1.87-4.6-4.81-5.15-8.07l-1.88-11.22c-0.11-0.66-0.49-1.25-1.03-1.63l-4.03-2.84c-2.55-2.04-2.97-5.81-0.91-8.38l0.2-0.25c1.14-1.43 2.84-2.25 4.67-2.25 1.37 0 2.66 0.45 3.73 1.31l2.86 2.28c1.16 0.93 1.93 2.26 2.17 3.74 0.01 0.09 0.05 0.18 0.11 0.25l3.82 17.42c0.17 0.78 0.71 1.44 1.44 1.76l20.07 8.67c1.28 0.55 2.69 0.83 4.2 0.83l0.62-0.01c1.06 0 2.2 0.07 3.4 0.22 2.98 0.36 7.65 1.72 10.42 3.03 7.36 3.48 28.34 20.2 28.56 20.37 1.02 0.6 1.76 1.5 2.13 2.59 0.02 0.04 0.04 0.09 0.06 0.12l4.98 15.66c0.05 0.16 0.19 0.29 0.35 0.33 0.38 0.1 2.77 1.51 4.86 2.81 2.74 1.8 3.51 5.52 1.7 8.27l-0.18 0.27c-1.11 1.69-2.98 2.7-5 2.7z" fill="url(#e)"/><path d="m21.53 28.52c1.25 0 2.43 0.41 3.41 1.2l2.87 2.28c1.07 0.85 1.77 2.07 1.98 3.43 0.02 0.14 0.07 0.26 0.14 0.38l3.79 17.32c0.21 0.94 0.85 1.73 1.73 2.11l9.17 3.96 10.9 4.71c1.34 0.58 2.82 0.87 4.39 0.87h0.23 0.4c1.04 0 2.16 0.07 3.34 0.21 2.88 0.35 7.58 1.71 10.27 2.98 7.31 3.46 28.25 20.14 28.46 20.31 0.04 0.03 0.08 0.06 0.12 0.08 0.86 0.49 1.51 1.3 1.84 2.27 0.02 0.06 0.05 0.12 0.08 0.17l4.96 15.6c0.1 0.33 0.35 0.57 0.68 0.66 0.44 0.15 2.8 1.55 4.73 2.74 2.52 1.66 3.22 5.06 1.56 7.58l-0.18 0.27c-1.02 1.54-2.73 2.47-4.58 2.47-1.07 0-2.11-0.31-3-0.9l-3.05-2.01c-1.14-0.75-1.95-1.9-2.29-3.23-0.03-0.13-0.09-0.26-0.18-0.36l-5.84-18.36c-0.08-0.27-0.28-0.48-0.53-0.6l-12.52-5.87c-0.4-0.19-0.83-0.28-1.27-0.28-1.32 0-2.47 0.84-2.86 2.1l-8.71 27.62-32.83-10.35 9.56-30.46c0.4-1.27-0.07-2.62-1.17-3.37l-17.2-11.8c-2.61-1.79-4.41-4.61-4.94-7.74l-1.88-11.22c-0.13-0.79-0.58-1.5-1.23-1.96l-4.01-2.82c-2.34-1.89-2.71-5.33-0.84-7.68l0.2-0.25c1.07-1.31 2.63-2.06 4.3-2.06m0-1c-1.9 0-3.78 0.83-5.06 2.43l-0.2 0.25c-2.23 2.79-1.78 6.87 1.02 9.1l4.03 2.84c0.44 0.31 0.73 0.78 0.82 1.31l1.88 11.22c0.57 3.41 2.51 6.44 5.36 8.4l17.2 11.8c0.72 0.5 1.04 1.41 0.78 2.25l-9.86 31.41 34.73 10.95 9.01-28.57c0.27-0.86 1.07-1.4 1.91-1.4 0.28 0 0.57 0.06 0.85 0.19l12.52 5.87 5.94 18.69 0.06-0.02c0.38 1.51 1.3 2.9 2.71 3.82l3.05 2.01c1.1 0.72 2.33 1.07 3.55 1.07 2.11 0 4.17-1.03 5.41-2.92l0.18-0.27c1.97-2.99 1.14-7-1.85-8.97 0 0-4.33-2.7-5-2.87l-5.03-15.8-0.02 0.01c-0.42-1.22-1.24-2.21-2.29-2.82 0 0-21.16-16.88-28.65-20.43-2.77-1.31-7.54-2.71-10.57-3.07-1.19-0.14-2.35-0.22-3.46-0.22h-0.41-0.21c-1.38 0-2.73-0.24-4-0.79-4.89-2.11-16.67-7.2-20.07-8.67-0.59-0.26-1.02-0.78-1.15-1.41l-3.87-17.65-0.06 0.01c-0.24-1.54-1.03-3-2.35-4.05l-2.86-2.28c-1.19-0.96-2.62-1.42-4.04-1.42z" fill="#875334"/><circle cx="28.56" cy="23.97" r="16" fill="#FF9100"/><radialGradient id="d" cx="23.872" cy="18.823" r="17.651" gradientUnits="userSpaceOnUse"><stop stop-color="#FFA726" offset=".2092"/><stop stop-color="#B33F00" offset=".7917"/></radialGradient><circle cx="28.56" cy="23.97" r="16" fill="url(#d)" opacity=".4"/><defs><circle id="y" cx="28.56" cy="23.97" r="16"/></defs><clipPath id="x"><use xlink:href="#y"/></clipPath><g clip-path="url(#x)" fill="none" stroke-width=".7869"><path d="m28.55 23.98c-1-2.32-1.55-4.88-1.55-7.57 0-3.17 0.77-6.16 2.13-8.79" stroke="#6D4C41"/><path d="m27.64 11.45c0.32-0.02 0.65-0.02 0.98-0.02 6.49 0 12.22 3.22 15.69 8.15" stroke="#5D4037"/><path d="m27.08 18.19c0.51-0.04 1.02-0.06 1.54-0.06 6.62 0 12.46 3.35 15.9 8.46" stroke="#5D4037"/><path d="m28.53 23.97c2.51 0.3 5.01 1.1 7.33 2.44 2.75 1.58 4.95 3.75 6.55 6.24" stroke="#4E342E"/><path d="m39.84 29.45c-0.15 0.29-0.3 0.58-0.47 0.86-3.24 5.62-8.9 8.97-14.9 9.52" stroke="#3E2723"/><path d="m34.28 25.59c-0.22 0.46-0.46 0.92-0.72 1.37-3.31 5.73-9.13 9.11-15.28 9.55" stroke="#4E342E"/><path d="m28.55 23.97c-1.51 2.03-3.45 3.79-5.78 5.13-2.75 1.58-5.72 2.41-8.68 2.55" stroke="#4E342E"/><path d="m18.15 31.01c-0.18-0.27-0.35-0.55-0.51-0.84-3.24-5.62-3.32-12.2-0.79-17.67" stroke="#6D4C41"/><path d="m24.27 28.13c-0.29-0.42-0.56-0.86-0.82-1.31-3.31-5.73-3.32-12.47-0.63-18" stroke="#795548"/></g><path d="m68.01 73.02c-0.3 0-0.61-0.03-0.91-0.09-2.55-0.5-4.21-2.98-3.71-5.53l0.82-4.2 9.24 1.81-0.82 4.2c-0.44 2.21-2.38 3.81-4.62 3.81z" fill="#7A4C32"/><path d="m64.61 63.79 8.25 1.62-0.73 3.71c-0.39 1.97-2.12 3.4-4.12 3.4-0.27 0-0.54-0.03-0.81-0.08-2.28-0.45-3.76-2.66-3.32-4.94l0.73-3.71m-0.79-1.18-0.92 4.69c-0.55 2.82 1.28 5.56 4.11 6.12 0.34 0.07 0.67 0.1 1.01 0.1 2.44 0 4.62-1.72 5.1-4.21l0.92-4.69-10.22-2.01z" fill="#663B22"/><defs><rect id="w" transform="matrix(.9813 .1924 -.1924 .9813 9.8779 -13.166)" x="50.31" y="21.86" width="44.83" height="44.83"/></defs><clipPath id="v"><use xlink:href="#w"/></clipPath><g clip-path="url(#v)"><path d="m84.61 57.82c-0.28 0-0.57-0.03-0.85-0.08l-26.34-5.16c-2.58-0.5-4.23-3.16-3.69-5.92 0.48-2.42 2.5-4.18 4.8-4.18 0.29 0 0.57 0.03 0.85 0.08l26.33 5.16c2.58 0.5 4.23 3.16 3.69 5.92-0.47 2.43-2.48 4.18-4.79 4.18z" fill="#E59600"/><path d="m58.53 42.97c0.25 0 0.51 0.02 0.76 0.07l3.55 0.7 19.23 3.77 3.55 0.7c2.31 0.45 3.78 2.85 3.3 5.34-0.43 2.19-2.24 3.77-4.31 3.77-0.25 0-0.51-0.02-0.76-0.07l-3.55-0.7-19.23-3.77-3.55-0.7c-2.31-0.45-3.78-2.85-3.3-5.34 0.43-2.18 2.24-3.77 4.31-3.77m0-1c-2.49 0-4.77 1.89-5.29 4.58-0.59 3.02 1.24 5.95 4.08 6.51l3.55 0.7 19.23 3.77 3.55 0.7c0.32 0.06 0.64 0.09 0.95 0.09 2.49 0 4.77-1.89 5.29-4.58 0.59-3.02-1.24-5.95-4.08-6.51l-3.55-0.7-19.23-3.77-3.55-0.7c-0.32-0.06-0.64-0.09-0.95-0.09z" fill="#CC8600"/><linearGradient id="u" x1="92.341" x2="92.341" y1="-31.037" y2="9.9825" gradientTransform="matrix(.9813 .1924 -.1924 .9813 -20.246 38.217)" gradientUnits="userSpaceOnUse"><stop stop-color="#A56C43" offset="0"/><stop stop-color="#A26941" offset=".4272"/><stop stop-color="#97603D" offset=".7837"/><stop stop-color="#8D5738" offset="1"/></linearGradient><path d="m71.41 66.04c-0.99 0-1.98-0.1-2.96-0.29-7.54-1.48-14.51-8.92-12-21.76 2.39-12.16 10.67-18.53 17.61-18.53 0.76 0 1.51 0.07 2.25 0.22 9.67 1.9 13.49 14.17 11.47 24.46-2.3 11.72-9.97 15.9-16.37 15.9z" fill="url(#u)"/><path d="m74.07 25.96c0.72 0 1.45 0.07 2.15 0.21 3.82 0.75 7.22 3.58 9.32 7.77 2.28 4.53 2.9 10.25 1.75 16.1-2.24 11.43-9.67 15.51-15.88 15.51-0.95 0-1.92-0.09-2.86-0.28-3.99-0.78-7.38-3.1-9.54-6.51-2.46-3.89-3.18-8.97-2.06-14.66 2.33-11.91 10.38-18.14 17.12-18.14m0-1c-7.74 0-15.8 7.22-18.1 18.93-2.52 12.84 4.24 20.75 12.39 22.35 1 0.2 2.03 0.3 3.05 0.3 7.28 0 14.66-5.06 16.86-16.31 2.53-12.91-3.48-23.4-11.86-25.04-0.77-0.15-1.56-0.23-2.34-0.23z" fill="#875334"/><g fill="#42312C"><path d="m61.05 42.52s0.08-0.08 0.23-0.21c0.04-0.03 0.07-0.07 0.13-0.11s0.13-0.08 0.21-0.13c0.08-0.04 0.16-0.09 0.24-0.14 0.09-0.05 0.17-0.08 0.26-0.12s0.19-0.08 0.29-0.12c0.1-0.03 0.21-0.06 0.32-0.1s0.23-0.06 0.35-0.08 0.24-0.04 0.37-0.06c0.25-0.02 0.51-0.05 0.78-0.03 0.27 0 0.53 0.05 0.8 0.09 0.26 0.06 0.52 0.12 0.77 0.22 0.25 0.08 0.48 0.2 0.71 0.32 0.11 0.06 0.21 0.13 0.32 0.19 0.1 0.06 0.2 0.13 0.29 0.21 0.09 0.07 0.18 0.14 0.26 0.21s0.15 0.15 0.22 0.22 0.14 0.14 0.2 0.21 0.11 0.14 0.16 0.21 0.09 0.12 0.13 0.18 0.07 0.12 0.1 0.17c0.11 0.2 0.17 0.32 0.17 0.32 0.18 0.39 0.01 0.85-0.38 1.02-0.24 0.11-0.5 0.09-0.71-0.03l-0.13-0.08s-0.09-0.05-0.22-0.14c-0.03-0.02-0.07-0.05-0.11-0.08-0.04-0.02-0.09-0.05-0.13-0.08-0.09-0.06-0.2-0.12-0.31-0.18-0.06-0.03-0.11-0.07-0.18-0.1s-0.13-0.06-0.2-0.09c-0.03-0.02-0.07-0.03-0.1-0.05-0.04-0.01-0.07-0.03-0.11-0.04-0.07-0.03-0.14-0.06-0.22-0.09-0.15-0.05-0.31-0.11-0.47-0.15-0.16-0.05-0.33-0.08-0.49-0.12-0.17-0.02-0.34-0.06-0.5-0.07-0.17-0.02-0.33-0.02-0.49-0.04-0.08 0-0.16 0.01-0.24 0h-0.12c-0.04 0-0.08 0.01-0.11 0.01-0.07 0-0.15 0.01-0.22 0.01s-0.14 0.02-0.2 0.02c-0.07 0.01-0.13 0.01-0.19 0.02-0.05 0.01-0.1 0.01-0.15 0.02s-0.09 0.01-0.14 0.02-0.11 0.03-0.15 0.04c-0.19 0.05-0.3 0.08-0.3 0.08-0.43 0.09-0.85-0.19-0.94-0.62-0.08-0.28 0.02-0.55 0.2-0.73z"/><path d="m83.02 48.03s-0.1-0.06-0.25-0.18c-0.04-0.03-0.08-0.07-0.13-0.1-0.04-0.02-0.08-0.04-0.12-0.07-0.04-0.02-0.09-0.05-0.13-0.08-0.05-0.03-0.11-0.06-0.17-0.09s-0.11-0.07-0.18-0.1c-0.06-0.03-0.13-0.06-0.2-0.09-0.03-0.02-0.07-0.03-0.1-0.05-0.04-0.01-0.07-0.03-0.11-0.04-0.07-0.03-0.14-0.06-0.22-0.09-0.15-0.05-0.31-0.11-0.47-0.15-0.16-0.05-0.33-0.08-0.49-0.12-0.17-0.02-0.34-0.06-0.5-0.07-0.17-0.03-0.33-0.02-0.49-0.04-0.08 0-0.16 0.01-0.24 0h-0.12c-0.04 0-0.08 0.01-0.11 0.01-0.07 0-0.15 0.01-0.22 0.01s-0.14 0.02-0.2 0.02c-0.13 0.01-0.25 0.03-0.36 0.05-0.05 0.01-0.1 0.02-0.15 0.02-0.05 0.01-0.09 0.02-0.13 0.03-0.16 0.04-0.26 0.05-0.26 0.05l-0.15 0.02c-0.42 0.06-0.81-0.23-0.87-0.65-0.04-0.26 0.06-0.51 0.24-0.67 0 0 0.1-0.09 0.28-0.23l0.15-0.12c0.06-0.04 0.12-0.08 0.19-0.12s0.14-0.09 0.22-0.13 0.17-0.08 0.26-0.12 0.19-0.08 0.29-0.12c0.1-0.03 0.21-0.06 0.32-0.1s0.23-0.06 0.35-0.08 0.24-0.04 0.37-0.06c0.25-0.02 0.51-0.05 0.78-0.03 0.27 0 0.53 0.05 0.8 0.09 0.26 0.06 0.52 0.12 0.77 0.22 0.25 0.08 0.48 0.21 0.71 0.32 0.11 0.06 0.21 0.13 0.32 0.19 0.1 0.06 0.2 0.13 0.29 0.21 0.09 0.07 0.18 0.14 0.26 0.21s0.15 0.15 0.22 0.22 0.14 0.14 0.2 0.21c0.06 0.08 0.12 0.15 0.17 0.22s0.1 0.13 0.14 0.2c0.04 0.06 0.05 0.1 0.08 0.15 0.09 0.17 0.14 0.28 0.14 0.28 0.17 0.4-0.01 0.87-0.42 1.04-0.26 0.11-0.55 0.07-0.76-0.07z"/></g><g fill="#42312C"><ellipse transform="matrix(.1924 -.9813 .9813 .1924 4.8385 101.1)" cx="63.84" cy="47.61" rx="2.51" ry="2.42"/><ellipse transform="matrix(.1924 -.9813 .9813 .1924 14.583 119.15)" cx="79.68" cy="50.71" rx="2.51" ry="2.42"/></g><radialGradient id="t" cx="92.467" cy="-33.083" r="14.92" gradientTransform="matrix(.9813 .1924 -.1924 .9813 -20.246 38.217)" gradientUnits="userSpaceOnUse"><stop stop-color="#6D4C41" offset="0"/><stop stop-color="#543930" offset="1"/></radialGradient><path d="m77.17 22.31c-22.07-4.32-22.32 21.78-22.32 21.78s1.44 4.72 1.45 4.64c0.61-3.51 3.22-9.42 4.73-11.86 0.76-1.23 2.29-1.73 3.64-1.21 2.07 0.81 5.39 1.96 9.16 2.7 3.62 0.71 7.03 0.92 9.29 0.97 1.55 0.03 2.81 1.24 2.92 2.78l0.39 12.52 3.12-3.94s9.42-24.1-12.38-28.38z" fill="url(#t)"/><defs><path id="s" d="m77.17 22.31c-22.07-4.32-22.56 21.26-22.56 21.26s1.68 5.24 1.7 5.15c0.13-0.75 1.02-3.35 1.02-3.35-1.03-2.21-0.52-4.48-0.52-4.48l1.54-5.05 2.85-4.19 15-5 11.99 11.04 0.77 4.2-0.55 6.08s-1.09 2.66-2.11 3.35l0.13 3.33 3.22-4.14c0-0.02 9.32-23.92-12.48-28.2z"/></defs><clipPath id="r"><use xlink:href="#s"/></clipPath><g clip-path="url(#r)"><path d="m72.39 23.82c1.38 0 2.85 0.15 4.4 0.46 5.25 1.03 8.92 3.39 10.92 7.01 3.21 5.83 1.52 13.62 0.53 17l-0.19-6.24v-0.08c-0.18-2.59-2.27-4.59-4.87-4.64-2.15-0.05-5.46-0.24-8.95-0.93-3.6-0.71-6.78-1.8-8.82-2.6-0.59-0.23-1.2-0.35-1.83-0.35-1.74 0-3.33 0.88-4.24 2.36-0.7 1.14-1.63 2.97-2.5 5 0.28-1.94 0.84-4.64 1.97-7.34 2.68-6.4 7.25-9.65 13.58-9.65m0-2c-17.37 0-17.83 21.74-17.83 21.74s1.7 5.16 1.74 5.16c0.61-3.51 3.22-9.42 4.73-11.86 0.56-0.9 1.53-1.41 2.54-1.41 0.37 0 0.74 0.07 1.1 0.21 2.07 0.81 5.39 1.96 9.16 2.7 3.62 0.71 7.03 0.92 9.29 0.97 1.55 0.03 2.81 1.24 2.92 2.78l0.39 12.52 3.12-3.94s9.42-24.11-12.38-28.38c-1.72-0.33-3.31-0.49-4.78-0.49z" fill="#402821"/></g><path d="m73.63 58.85c-1.71 0.61-6.75-0.37-8.1-1.59-0.78-0.7-1.84-0.07-1.63 0.8 0.21 0.86 2.59 3.22 4.97 3.69 2.37 0.47 5.44-0.83 5.96-1.55 0.51-0.73-0.22-1.71-1.2-1.35z" fill="#473530"/><path d="m72.44 53.82c-0.05-0.03-0.1-0.05-0.15-0.07l-3.41-0.67c-0.05 0-0.11 0-0.16 0.01-0.33 0.06-0.57 0.35-0.49 0.72s0.57 1.46 1.94 1.73 2.23-0.56 2.45-0.87c0.21-0.32 0.11-0.67-0.18-0.85z" fill="#875334"/></g><path d="m28.56 8.97c8.27 0 15 6.73 15 15s-6.73 15-15 15-15-6.73-15-15 6.73-15 15-15m0-1c-8.84 0-16 7.16-16 16s7.16 16 16 16 16-7.16 16-16-7.16-16-16-16z" fill="#E67300"/><linearGradient id="q" x1="66.91" x2="55.204" y1="72.359" y2="115.06" gradientUnits="userSpaceOnUse"><stop stop-color="#651FFF" offset="0"/><stop stop-color="#5914F2" offset=".7047"/><stop stop-color="#530EEB" offset="1"/></linearGradient><path d="m56.21 111.96 0.19-0.68c0.08-0.27-0.08-0.54-0.34-0.62-0.05-0.01-0.09-0.02-0.14-0.02-0.22 0-0.42 0.14-0.48 0.36l-0.19 0.68-16.73-4.73 4.79-15.19c0.02-0.07 0.03-0.14 0.02-0.21l3.74-11.87c6.56-2.97 9.86-12.6 10.65-15.21 0.31-0.05 0.62-0.09 0.94-0.12-0.23 11.54 5.85 13.76 6.55 13.98 0.2 0.05 0.68 0.15 1.41 0.15 2.44 0 7.15-1.14 11.56-8.68 0.26 0.14 0.51 0.29 0.76 0.44-0.7 2.55-3.47 14.09 2 19.98l-8.32 26.39-16.41-4.65z" fill="url(#q)"/><path d="m58.14 64.92c-0.03 11.41 6.18 13.67 6.96 13.91 0.19 0.05 0.72 0.16 1.51 0.16 2.5 0 7.27-1.13 11.73-8.49-0.83 3.18-3.12 13.98 2.02 19.85l-8.08 25.65-15.45-4.39 0.06-0.2c0.15-0.53-0.16-1.08-0.69-1.23-0.09-0.03-0.18-0.04-0.27-0.04-0.44 0-0.84 0.29-0.96 0.73l-0.06 0.2-15.76-4.45 4.63-14.7c0.03-0.09 0.04-0.19 0.04-0.29l3.65-11.58c6.38-3.05 9.68-12.12 10.62-15.13h0.05m1.02-1.11c-0.64 0.04-1.25 0.12-1.84 0.22-0.59 2.06-3.88 12.4-10.66 15.29l-3.88 12.28 0.04 0.01-4.94 15.68 17.71 5 0.33-1.16-0.33 1.16 17.35 4.93 8.55-27.13c-5.94-6.01-2.32-18.91-1.98-20.08-0.49-0.3-1-0.59-1.53-0.88-4.42 7.81-9.15 8.85-11.37 8.85-0.7 0-1.14-0.1-1.26-0.13-0.49-0.14-6.62-2.28-6.19-14.04z" fill="#4A00ED"/><radialGradient id="o" cx="76.875" cy="27.25" r="23.435" gradientUnits="userSpaceOnUse"><stop stop-color="#651FFF" offset=".2994"/><stop stop-color="#5914F2" offset=".7403"/><stop stop-color="#530EEB" offset=".925"/></radialGradient><path d="m77.88 21.84c-14.99-3.54-22.94 8.91-23.24 20.88-0.04 1.5-1.13 0.03-1.51 3.11-0.72 5.89 2.78 7.57 2.78 7.57s-0.98-19.23 17.86-14.62c19.09 4.67 10.68 20.59 10.68 20.59s3.53-0.66 5.55-4.53c1.81-3.47-0.58-2.17 0.34-4.88 3.2-9.43 2.92-24.49-12.46-28.12z" fill="url(#o)" stroke="#4A00ED" stroke-linecap="round" stroke-linejoin="round" stroke-miterlimit="10"/><path d="m54.63 43.17s0.72 0.22 1.53 1.76c0.7 1.34 0.11 3.96 0.11 3.96" fill="#4000CC"/><path d="m88.5 52.63c1.19-0.91 1.82-0.79 1.82-0.79" fill="#4000CC"/></g><path d="m96.01 99.36c-6.06 0-9.43-7.19-16-7.19s-9.93 7.19-16 7.19-9.43-7.19-16-7.19-9.93 7.19-16 7.19-9.43-7.19-16-7.19-9.93 7.19-16 7.19l-0.01 28.64h127.93v-28.64c-6.01-0.06-9.38-7.18-15.92-7.18-6.57 0-9.94 7.18-16 7.18z" clip-path="url(#a)" fill="#039BE5"/><path d="m128 104.7c-6 0-9.44 7.19-16.01 7.19s-9.94-7.19-16-7.19-9.43 7.19-16 7.19-9.94-7.19-16-7.19-9.43 7.19-16 7.19-9.94-7.19-16-7.19-9.43 7.19-16 7.19-9.93-7.19-16-7.19v24.3h128v-24.3z" clip-path="url(#a)" fill="#29B6F6"/><g clip-path="url(#a)"><path d="m95.99 105.7c2.64 0 4.79 1.6 7.07 3.29 2.58 1.92 5.25 3.9 8.93 3.9 3.69 0 6.38-1.99 8.98-3.91 1.98-1.46 3.87-2.86 6.03-3.2v22.22h-126v-22.22c2.2 0.34 4.08 1.74 6.07 3.21 2.58 1.92 5.25 3.9 8.93 3.9s6.35-1.98 8.93-3.9c2.28-1.69 4.43-3.29 7.07-3.29s4.79 1.6 7.07 3.29c2.58 1.92 5.25 3.9 8.93 3.9s6.35-1.98 8.93-3.9c2.28-1.69 4.43-3.29 7.07-3.29s4.79 1.6 7.07 3.29c2.58 1.92 5.25 3.9 8.93 3.9s6.35-1.98 8.93-3.9c2.26-1.69 4.42-3.29 7.06-3.29m32.01-1c-6 0-9.44 7.19-16.01 7.19s-9.94-7.19-16-7.19-9.43 7.19-16 7.19-9.94-7.19-16-7.19-9.43 7.19-16 7.19-9.94-7.19-16-7.19-9.43 7.19-16 7.19-9.93-7.19-16-7.19v24.3h128v-24.3h0.01z" fill="#17A3E3"/></g><g clip-path="url(#a)"><path d="m112 93.18c3.02 0 5.31 1.7 7.74 3.5 2.17 1.61 4.4 3.26 7.19 3.61v26.71h-125.93l0.03-26.69c2.82-0.33 5.07-2 7.26-3.63 2.43-1.8 4.72-3.5 7.74-3.5s5.31 1.7 7.74 3.5c2.44 1.81 4.96 3.68 8.26 3.68s5.82-1.87 8.26-3.68c2.43-1.8 4.72-3.5 7.74-3.5s5.31 1.7 7.74 3.5c2.44 1.81 4.96 3.68 8.26 3.68s5.82-1.87 8.26-3.68c2.43-1.8 4.72-3.5 7.74-3.5s5.31 1.7 7.74 3.5c2.44 1.81 4.96 3.68 8.26 3.68s5.82-1.87 8.26-3.68c2.4-1.8 4.7-3.5 7.71-3.5m0-1c-6.57 0-9.93 7.19-16 7.19-6.06 0-9.43-7.19-16-7.19s-9.93 7.19-16 7.19-9.43-7.19-16-7.19-9.93 7.19-16 7.19-9.43-7.19-16-7.19-9.93 7.19-16 7.19v28.63h127.93v-28.64c-6.02-0.06-9.39-7.18-15.93-7.18z" fill="#008DD1"/></g><g display="none"><g display="inline"><g opacity=".6"><circle cx="-73" cy="-93" r="28" fill="none" opacity=".61" stroke="#000" stroke-miterlimit="10" stroke-width=".2625"/><line x1="-53" x2="-53" y1="-157" y2="-29" fill="none" opacity=".61" stroke="#000" stroke-miterlimit="10" stroke-width=".25"/><line x1="-93" x2="-93" y1="-157" y2="-29" fill="none" opacity=".61" stroke="#000" stroke-miterlimit="10" stroke-width=".25"/><line x1="-73" x2="-73" y1="-157" y2="-29" fill="none" opacity=".61" stroke="#000" stroke-miterlimit="10" stroke-width=".25"/><line x1="-9" x2="-137" y1="-93" y2="-93" fill="none" opacity=".61" stroke="#000" stroke-miterlimit="10" stroke-width=".25"/><line x1="-9" x2="-137" y1="-113" y2="-113" fill="none" opacity=".61" stroke="#000" stroke-miterlimit="10" stroke-width=".25"/><line x1="-9" x2="-137" y1="-73.25" y2="-73.25" fill="none" opacity=".61" stroke="#000" stroke-miterlimit="10" stroke-width=".25"/><line x1="-9" x2="-137" y1="-29" y2="-157" fill="none" opacity=".61" stroke="#000" stroke-miterlimit="10" stroke-width=".25"/><line x1="-137" x2="-9" y1="-29" y2="-157" fill="none" opacity=".61" stroke="#000" stroke-miterlimit="10" stroke-width=".25"/><g opacity=".61"><path d="m-73-152.74c32.94 0 59.74 26.8 59.74 59.74s-26.8 59.74-59.74 59.74-59.74-26.8-59.74-59.74 26.8-59.74 59.74-59.74m0-0.26c-33.14 0-60 26.86-60 60s26.86 60 60 60 60-26.86 60-60-26.86-60-60-60z"/></g><path d="m-29.03-41.03h-87.94c-4.42 0-8.03-3.61-8.03-8.03v-87.91c0-4.42 3.61-8.03 8.03-8.03h87.94c4.42 0 8.03 3.61 8.03 8.03v87.91c0 4.42-3.61 8.03-8.03 8.03z" fill="none" opacity=".61" stroke="#000" stroke-miterlimit="10" stroke-width=".2578"/><path d="m-37-33h-72c-4.4 0-8-3.6-8-8v-104c0-4.4 3.6-8 8-8h72c4.4 0 8 3.6 8 8v104c0 4.4-3.6 8-8 8z" fill="none" opacity=".61" stroke="#000" stroke-miterlimit="10" stroke-width=".2628"/><path d="M-23.23-49h-99.54 C-128.4-49-133-53.6-133-59.23v-67.48c0-5.63,4.6-10.23,10.23-10.23h99.54c5.63,0,10.23,4.6,10.23,10.23v67.48 C-13-53.6-17.6-49-23.23-49z" fill="none" opacity=".61" stroke="#000" stroke-miterlimit="10" stroke-width=".2627"/></g><g opacity=".2"><defs><rect id="g" x="-137" y="-157" width="128" height="128" opacity=".2"/></defs><clipPath id="n"><use xlink:href="#g"/></clipPath><g clip-path="url(#n)"><g fill="none" stroke="#000" stroke-miterlimit="10" stroke-width=".25"><line x1="-165" x2="-165" y1="3" y2="-189"/><line x1="-161" x2="-161" y1="3" y2="-189"/><line x1="-157" x2="-157" y1="3" y2="-189"/><line x1="-153" x2="-153" y1="3" y2="-189"/><line x1="-149" x2="-149" y1="3" y2="-189"/><line x1="-145" x2="-145" y1="3" y2="-189"/><line x1="-141" x2="-141" y1="3" y2="-189"/><line x1="-137" x2="-137" y1="3" y2="-189"/><line x1="-133" x2="-133" y1="3" y2="-189"/><line x1="-129" x2="-129" y1="3" y2="-189"/><line x1="-125" x2="-125" y1="3" y2="-189"/><line x1="-121" x2="-121" y1="3" y2="-189"/><line x1="-117" x2="-117" y1="3" y2="-189"/><line x1="-113" x2="-113" y1="3" y2="-189"/><line x1="-109" x2="-109" y1="3" y2="-189"/><line x1="-105" x2="-105" y1="3" y2="-189"/><line x1="-101" x2="-101" y1="3" y2="-189"/><line x1="-97" x2="-97" y1="3" y2="-189"/><line x1="-93" x2="-93" y1="3" y2="-189"/><line x1="-89" x2="-89" y1="3" y2="-189"/><line x1="-85" x2="-85" y1="3" y2="-189"/><line x1="-81" x2="-81" y1="3" y2="-189"/><line x1="-77" x2="-77" y1="3" y2="-189"/><line x1="-73" x2="-73" y1="3" y2="-189"/><line x1="-69" x2="-69" y1="3" y2="-189"/><line x1="-65" x2="-65" y1="3" y2="-189"/><line x1="-61" x2="-61" y1="3" y2="-189"/><line x1="-57" x2="-57" y1="3" y2="-189"/><line x1="-53" x2="-53" y1="3" y2="-189"/><line x1="-49" x2="-49" y1="3" y2="-189"/><line x1="-45" x2="-45" y1="3" y2="-189"/><line x1="-41" x2="-41" y1="3" y2="-189"/><line x1="-37" x2="-37" y1="3" y2="-189"/><line x1="-33" x2="-33" y1="3" y2="-189"/><line x1="-29" x2="-29" y1="3" y2="-189"/><line x1="-25" x2="-25" y1="3" y2="-189"/><line x1="-21" x2="-21" y1="3" y2="-189"/><line x1="-17" x2="-17" y1="3" y2="-189"/><line x1="-13" x2="-13" y1="3" y2="-189"/><line x1="-9" x2="-9" y1="3" y2="-189"/><line x1="-5" x2="-5" y1="3" y2="-189"/><line x1="-1" x2="-1" y1="3" y2="-189"/><line y1="9.05" y2="-182.95"/><line x1="7" x2="7" y1="3" y2="-189"/><line x1="11" x2="11" y1="3" y2="-189"/><line x1="15" x2="15" y1="3" y2="-189"/><line x1="19" x2="19" y1="3" y2="-189"/></g><g fill="none" stroke="#000" stroke-miterlimit="10" stroke-width=".25"><line x1="-169" x2="23" y1="-185" y2="-185"/><line x1="-169" x2="23" y1="-181" y2="-181"/><line x1="-169" x2="23" y1="-177" y2="-177"/><line x1="-169" x2="23" y1="-173" y2="-173"/><line x1="-169" x2="23" y1="-169" y2="-169"/><line x1="-169" x2="23" y1="-165" y2="-165"/><line x1="-169" x2="23" y1="-161" y2="-161"/><line x1="-169" x2="23" y1="-157" y2="-157"/><line x1="-169" x2="23" y1="-153" y2="-153"/><line x1="-169" x2="23" y1="-149" y2="-149"/><line x1="-169" x2="23" y1="-145" y2="-145"/><line x1="-169" x2="23" y1="-141" y2="-141"/><line x1="-169" x2="23" y1="-137" y2="-137"/><line x1="-169" x2="23" y1="-133" y2="-133"/><line x1="-169" x2="23" y1="-129" y2="-129"/><line x1="-169" x2="23" y1="-125" y2="-125"/><line x1="-169" x2="23" y1="-121" y2="-121"/><line x1="-169" x2="23" y1="-117" y2="-117"/><line x1="-169" x2="23" y1="-113" y2="-113"/><line x1="-169" x2="23" y1="-109" y2="-109"/><line x1="-169" x2="23" y1="-105" y2="-105"/><line x1="-169" x2="23" y1="-101" y2="-101"/><line x1="-169" x2="23" y1="-97" y2="-97"/><line x1="-169" x2="23" y1="-93" y2="-93"/><line x1="-169" x2="23" y1="-89" y2="-89"/><line x1="-169" x2="23" y1="-85" y2="-85"/><line x1="-169" x2="23" y1="-81" y2="-81"/><line x1="-169" x2="23" y1="-77" y2="-77"/><line x1="-169" x2="23" y1="-73" y2="-73"/><line x1="-169" x2="23" y1="-69" y2="-69"/><line x1="-169" x2="23" y1="-65" y2="-65"/><line x1="-169" x2="23" y1="-61" y2="-61"/><line x1="-169" x2="23" y1="-57" y2="-57"/><line x1="-169" x2="23" y1="-53" y2="-53"/><line x1="-169" x2="23" y1="-49" y2="-49"/><line x1="-169" x2="23" y1="-45" y2="-45"/><line x1="-169" x2="23" y1="-41" y2="-41"/><line x1="-169" x2="23" y1="-37" y2="-37"/><line x1="-169" x2="23" y1="-33" y2="-33"/><line x1="-169" x2="23" y1="-29" y2="-29"/><line x1="-169" x2="23" y1="-25" y2="-25"/><line x1="-169" x2="23" y1="-21" y2="-21"/><line x1="-169" x2="23" y1="-17" y2="-17"/><line x1="-169" x2="23" y1="-13" y2="-13"/><line x1="-169" x2="23" y1="-9" y2="-9"/><line x1="-169" x2="23" y1="-5" y2="-5"/><line x1="-169" x2="23" y1="-1" y2="-1"/></g><path d="m22.75-188.75v191.5h-191.5v-191.5h191.5m0.25-0.25h-192v192h192v-192z"/></g></g><g fill="#F44336"><rect x="-137" y="-157" width="4" height="128" opacity=".3"/><rect x="-13" y="-157" width="4" height="128" opacity=".3"/><rect transform="matrix(-1.837e-16 1 -1 -1.837e-16 -228 -82)" x="-75" y="-215" width="4" height="120" opacity=".3"/><rect transform="matrix(-1.837e-16 1 -1 -1.837e-16 -104 42)" x="-75" y="-91" width="4" height="120" opacity=".3"/></g></g><g display="inline"><g opacity=".6"><circle cx="-73" cy="64" r="28" fill="none" opacity=".61" stroke="#000" stroke-miterlimit="10" stroke-width=".2625"/><line x1="-53" x2="-53" y2="128" fill="none" opacity=".61" stroke="#000" stroke-miterlimit="10" stroke-width=".25"/><line x1="-93" x2="-93" y2="128" fill="none" opacity=".61" stroke="#000" stroke-miterlimit="10" stroke-width=".25"/><line x1="-73" x2="-73" y2="128" fill="none" opacity=".61" stroke="#000" stroke-miterlimit="10" stroke-width=".25"/><line x1="-9" x2="-137" y1="64" y2="64" fill="none" opacity=".61" stroke="#000" stroke-miterlimit="10" stroke-width=".25"/><line x1="-9" x2="-137" y1="44" y2="44" fill="none" opacity=".61" stroke="#000" stroke-miterlimit="10" stroke-width=".25"/><line x1="-9" x2="-137" y1="83.75" y2="83.75" fill="none" opacity=".61" stroke="#000" stroke-miterlimit="10" stroke-width=".25"/><line x1="-9" x2="-137" y1="128" fill="none" opacity=".61" stroke="#000" stroke-miterlimit="10" stroke-width=".25"/><line x1="-137" x2="-9" y1="128" fill="none" opacity=".61" stroke="#000" stroke-miterlimit="10" stroke-width=".25"/><g opacity=".61"><path d="m-73 4.26c32.94 0 59.74 26.8 59.74 59.74s-26.8 59.74-59.74 59.74-59.74-26.8-59.74-59.74 26.8-59.74 59.74-59.74m0-0.26c-33.14 0-60 26.86-60 60s26.86 60 60 60 60-26.86 60-60-26.86-60-60-60z"/></g><path d="m-29.03 115.97h-87.94c-4.42 0-8.03-3.61-8.03-8.03v-87.91c0-4.42 3.61-8.03 8.03-8.03h87.94c4.42 0 8.03 3.61 8.03 8.03v87.91c0 4.42-3.61 8.03-8.03 8.03z" fill="none" opacity=".61" stroke="#000" stroke-miterlimit="10" stroke-width=".2578"/><path d="m-37 124h-72c-4.4 0-8-3.6-8-8v-104c0-4.4 3.6-8 8-8h72c4.4 0 8 3.6 8 8v104c0 4.4-3.6 8-8 8z" fill="none" opacity=".61" stroke="#000" stroke-miterlimit="10" stroke-width=".2628"/><path d="m-23.23 108h-99.54c-5.63 0-10.23-4.6-10.23-10.23v-67.49c0-5.63 4.6-10.23 10.23-10.23h99.54c5.63 0 10.23 4.6 10.23 10.23v67.48c0 5.64-4.6 10.24-10.23 10.24z" fill="none" opacity=".61" stroke="#000" stroke-miterlimit="10" stroke-width=".2627"/></g><g opacity=".2"><defs><rect id="c" x="-137" width="128" height="128" opacity=".2"/></defs><clipPath id="m"><use xlink:href="#c"/></clipPath><g clip-path="url(#m)"><g fill="none" stroke="#000" stroke-miterlimit="10" stroke-width=".25"><line x1="-165" x2="-165" y1="160" y2="-32"/><line x1="-161" x2="-161" y1="160" y2="-32"/><line x1="-157" x2="-157" y1="160" y2="-32"/><line x1="-153" x2="-153" y1="160" y2="-32"/><line x1="-149" x2="-149" y1="160" y2="-32"/><line x1="-145" x2="-145" y1="160" y2="-32"/><line x1="-141" x2="-141" y1="160" y2="-32"/><line x1="-137" x2="-137" y1="160" y2="-32"/><line x1="-133" x2="-133" y1="160" y2="-32"/><line x1="-129" x2="-129" y1="160" y2="-32"/><line x1="-125" x2="-125" y1="160" y2="-32"/><line x1="-121" x2="-121" y1="160" y2="-32"/><line x1="-117" x2="-117" y1="160" y2="-32"/><line x1="-113" x2="-113" y1="160" y2="-32"/><line x1="-109" x2="-109" y1="160" y2="-32"/><line x1="-105" x2="-105" y1="160" y2="-32"/><line x1="-101" x2="-101" y1="160" y2="-32"/><line x1="-97" x2="-97" y1="160" y2="-32"/><line x1="-93" x2="-93" y1="160" y2="-32"/><line x1="-89" x2="-89" y1="160" y2="-32"/><line x1="-85" x2="-85" y1="160" y2="-32"/><line x1="-81" x2="-81" y1="160" y2="-32"/><line x1="-77" x2="-77" y1="160" y2="-32"/><line x1="-73" x2="-73" y1="160" y2="-32"/><line x1="-69" x2="-69" y1="160" y2="-32"/><line x1="-65" x2="-65" y1="160" y2="-32"/><line x1="-61" x2="-61" y1="160" y2="-32"/><line x1="-57" x2="-57" y1="160" y2="-32"/><line x1="-53" x2="-53" y1="160" y2="-32"/><line x1="-49" x2="-49" y1="160" y2="-32"/><line x1="-45" x2="-45" y1="160" y2="-32"/><line x1="-41" x2="-41" y1="160" y2="-32"/><line x1="-37" x2="-37" y1="160" y2="-32"/><line x1="-33" x2="-33" y1="160" y2="-32"/><line x1="-29" x2="-29" y1="160" y2="-32"/><line x1="-25" x2="-25" y1="160" y2="-32"/><line x1="-21" x2="-21" y1="160" y2="-32"/><line x1="-17" x2="-17" y1="160" y2="-32"/><line x1="-13" x2="-13" y1="160" y2="-32"/><line x1="-9" x2="-9" y1="160" y2="-32"/><line x1="-5" x2="-5" y1="160" y2="-32"/><line x1="-1" x2="-1" y1="160" y2="-32"/><line y1="166.05" y2="-25.95"/><line x1="7" x2="7" y1="160" y2="-32"/><line x1="11" x2="11" y1="160" y2="-32"/><line x1="15" x2="15" y1="160" y2="-32"/><line x1="19" x2="19" y1="160" y2="-32"/></g><g fill="none" stroke="#000" stroke-miterlimit="10" stroke-width=".25"><line x1="-169" x2="23" y1="-28" y2="-28"/><line x1="-169" x2="23" y1="-24" y2="-24"/><line x1="-169" x2="23" y1="-20" y2="-20"/><line x1="-169" x2="23" y1="-16" y2="-16"/><line x1="-169" x2="23" y1="-12" y2="-12"/><line x1="-169" x2="23" y1="-8" y2="-8"/><line x1="-169" x2="23" y1="-4" y2="-4"/><line x1="-169" x2="23"/><line x1="-169" x2="23" y1="4" y2="4"/><line x1="-169" x2="23" y1="8" y2="8"/><line x1="-169" x2="23" y1="12" y2="12"/><line x1="-169" x2="23" y1="16" y2="16"/><line x1="-169" x2="23" y1="20" y2="20"/><line x1="-169" x2="23" y1="24" y2="24"/><line x1="-169" x2="23" y1="28" y2="28"/><line x1="-169" x2="23" y1="32" y2="32"/><line x1="-169" x2="23" y1="36" y2="36"/><line x1="-169" x2="23" y1="40" y2="40"/><line x1="-169" x2="23" y1="44" y2="44"/><line x1="-169" x2="23" y1="48" y2="48"/><line x1="-169" x2="23" y1="52" y2="52"/><line x1="-169" x2="23" y1="56" y2="56"/><line x1="-169" x2="23" y1="60" y2="60"/><line x1="-169" x2="23" y1="64" y2="64"/><line x1="-169" x2="23" y1="68" y2="68"/><line x1="-169" x2="23" y1="72" y2="72"/><line x1="-169" x2="23" y1="76" y2="76"/><line x1="-169" x2="23" y1="80" y2="80"/><line x1="-169" x2="23" y1="84" y2="84"/><line x1="-169" x2="23" y1="88" y2="88"/><line x1="-169" x2="23" y1="92" y2="92"/><line x1="-169" x2="23" y1="96" y2="96"/><line x1="-169" x2="23" y1="100" y2="100"/><line x1="-169" x2="23" y1="104" y2="104"/><line x1="-169" x2="23" y1="108" y2="108"/><line x1="-169" x2="23" y1="112" y2="112"/><line x1="-169" x2="23" y1="116" y2="116"/><line x1="-169" x2="23" y1="120" y2="120"/><line x1="-169" x2="23" y1="124" y2="124"/><line x1="-169" x2="23" y1="128" y2="128"/><line x1="-169" x2="23" y1="132" y2="132"/><line x1="-169" x2="23" y1="136" y2="136"/><line x1="-169" x2="23" y1="140" y2="140"/><line x1="-169" x2="23" y1="144" y2="144"/><line x1="-169" x2="23" y1="148" y2="148"/><line x1="-169" x2="23" y1="152" y2="152"/><line x1="-169" x2="23" y1="156" y2="156"/></g><path d="m22.75-31.75v191.5h-191.5v-191.5h191.5m0.25-0.25h-192v192h192v-192z"/></g></g><g fill="#F44336"><rect x="-137" width="4" height="128" opacity=".3"/><rect x="-13" width="4" height="128" opacity=".3"/><rect transform="matrix(-1.837e-16 1 -1 -1.837e-16 -71 75)" x="-75" y="-58" width="4" height="120" opacity=".3"/><rect transform="matrix(-1.837e-16 1 -1 -1.837e-16 53 199)" x="-75" y="66" width="4" height="120" opacity=".3"/></g></g><g display="inline"><g opacity=".6"><circle cx="64" cy="-93" r="28" fill="none" opacity=".61" stroke="#000" stroke-miterlimit="10" stroke-width=".2625"/><line x1="84" x2="84" y1="-157" y2="-29" fill="none" opacity=".61" stroke="#000" stroke-miterlimit="10" stroke-width=".25"/><line x1="44" x2="44" y1="-157" y2="-29" fill="none" opacity=".61" stroke="#000" stroke-miterlimit="10" stroke-width=".25"/><line x1="64" x2="64" y1="-157" y2="-29" fill="none" opacity=".61" stroke="#000" stroke-miterlimit="10" stroke-width=".25"/><line x1="128" y1="-93" y2="-93" fill="none" opacity=".61" stroke="#000" stroke-miterlimit="10" stroke-width=".25"/><line x1="128" y1="-113" y2="-113" fill="none" opacity=".61" stroke="#000" stroke-miterlimit="10" stroke-width=".25"/><line x1="128" y1="-73.25" y2="-73.25" fill="none" opacity=".61" stroke="#000" stroke-miterlimit="10" stroke-width=".25"/><line x1="128" y1="-29" y2="-157" fill="none" opacity=".61" stroke="#000" stroke-miterlimit="10" stroke-width=".25"/><line x2="128" y1="-29" y2="-157" fill="none" opacity=".61" stroke="#000" stroke-miterlimit="10" stroke-width=".25"/><g opacity=".61"><path d="m64-152.74c32.94 0 59.74 26.8 59.74 59.74s-26.8 59.74-59.74 59.74-59.74-26.8-59.74-59.74 26.8-59.74 59.74-59.74m0-0.26c-33.14 0-60 26.86-60 60s26.86 60 60 60 60-26.86 60-60-26.86-60-60-60z"/></g><path d="m107.97-41.03h-87.94c-4.42 0-8.03-3.61-8.03-8.03v-87.91c0-4.42 3.61-8.03 8.03-8.03h87.94c4.42 0 8.03 3.61 8.03 8.03v87.91c0 4.42-3.61 8.03-8.03 8.03z" fill="none" opacity=".61" stroke="#000" stroke-miterlimit="10" stroke-width=".2578"/><path d="m100-33h-72c-4.4 0-8-3.6-8-8v-104c0-4.4 3.6-8 8-8h72c4.4 0 8 3.6 8 8v104c0 4.4-3.6 8-8 8z" fill="none" opacity=".61" stroke="#000" stroke-miterlimit="10" stroke-width=".2628"/><path d="M113.77-49H14.23 C8.6-49,4-53.6,4-59.23v-67.48c0-5.63,4.6-10.23,10.23-10.23h99.54c5.63,0,10.23,4.6,10.23,10.23v67.48 C124-53.6,119.4-49,113.77-49z" fill="none" opacity=".61" stroke="#000" stroke-miterlimit="10" stroke-width=".2627"/></g><g opacity=".2"><defs><rect id="h" y="-157" width="128" height="128" opacity=".2"/></defs><clipPath id="l"><use xlink:href="#h"/></clipPath><g clip-path="url(#l)"><g fill="none" stroke="#000" stroke-miterlimit="10" stroke-width=".25"><line x1="-28" x2="-28" y1="3" y2="-189"/><line x1="-24" x2="-24" y1="3" y2="-189"/><line x1="-20" x2="-20" y1="3" y2="-189"/><line x1="-16" x2="-16" y1="3" y2="-189"/><line x1="-12" x2="-12" y1="3" y2="-189"/><line x1="-8" x2="-8" y1="3" y2="-189"/><line x1="-4" x2="-4" y1="3" y2="-189"/><line y1="3" y2="-189"/><line x1="4" x2="4" y1="3" y2="-189"/><line x1="8" x2="8" y1="3" y2="-189"/><line x1="12" x2="12" y1="3" y2="-189"/><line x1="16" x2="16" y1="3" y2="-189"/><line x1="20" x2="20" y1="3" y2="-189"/><line x1="24" x2="24" y1="3" y2="-189"/><line x1="28" x2="28" y1="3" y2="-189"/><line x1="32" x2="32" y1="3" y2="-189"/><line x1="36" x2="36" y1="3" y2="-189"/><line x1="40" x2="40" y1="3" y2="-189"/><line x1="44" x2="44" y1="3" y2="-189"/><line x1="48" x2="48" y1="3" y2="-189"/><line x1="52" x2="52" y1="3" y2="-189"/><line x1="56" x2="56" y1="3" y2="-189"/><line x1="60" x2="60" y1="3" y2="-189"/><line x1="64" x2="64" y1="3" y2="-189"/><line x1="68" x2="68" y1="3" y2="-189"/><line x1="72" x2="72" y1="3" y2="-189"/><line x1="76" x2="76" y1="3" y2="-189"/><line x1="80" x2="80" y1="3" y2="-189"/><line x1="84" x2="84" y1="3" y2="-189"/><line x1="88" x2="88" y1="3" y2="-189"/><line x1="92" x2="92" y1="3" y2="-189"/><line x1="96" x2="96" y1="3" y2="-189"/><line x1="100" x2="100" y1="3" y2="-189"/><line x1="104" x2="104" y1="3" y2="-189"/><line x1="108" x2="108" y1="3" y2="-189"/><line x1="112" x2="112" y1="3" y2="-189"/><line x1="116" x2="116" y1="3" y2="-189"/><line x1="120" x2="120" y1="3" y2="-189"/><line x1="124" x2="124" y1="3" y2="-189"/><line x1="128" x2="128" y1="3" y2="-189"/><line x1="132" x2="132" y1="3" y2="-189"/><line x1="136" x2="136" y1="3" y2="-189"/><line x1="137" x2="137" y1="9.05" y2="-182.95"/><line x1="144" x2="144" y1="3" y2="-189"/><line x1="148" x2="148" y1="3" y2="-189"/><line x1="152" x2="152" y1="3" y2="-189"/><line x1="156" x2="156" y1="3" y2="-189"/></g><g fill="none" stroke="#000" stroke-miterlimit="10" stroke-width=".25"><line x1="-32" x2="160" y1="-185" y2="-185"/><line x1="-32" x2="160" y1="-181" y2="-181"/><line x1="-32" x2="160" y1="-177" y2="-177"/><line x1="-32" x2="160" y1="-173" y2="-173"/><line x1="-32" x2="160" y1="-169" y2="-169"/><line x1="-32" x2="160" y1="-165" y2="-165"/><line x1="-32" x2="160" y1="-161" y2="-161"/><line x1="-32" x2="160" y1="-157" y2="-157"/><line x1="-32" x2="160" y1="-153" y2="-153"/><line x1="-32" x2="160" y1="-149" y2="-149"/><line x1="-32" x2="160" y1="-145" y2="-145"/><line x1="-32" x2="160" y1="-141" y2="-141"/><line x1="-32" x2="160" y1="-137" y2="-137"/><line x1="-32" x2="160" y1="-133" y2="-133"/><line x1="-32" x2="160" y1="-129" y2="-129"/><line x1="-32" x2="160" y1="-125" y2="-125"/><line x1="-32" x2="160" y1="-121" y2="-121"/><line x1="-32" x2="160" y1="-117" y2="-117"/><line x1="-32" x2="160" y1="-113" y2="-113"/><line x1="-32" x2="160" y1="-109" y2="-109"/><line x1="-32" x2="160" y1="-105" y2="-105"/><line x1="-32" x2="160" y1="-101" y2="-101"/><line x1="-32" x2="160" y1="-97" y2="-97"/><line x1="-32" x2="160" y1="-93" y2="-93"/><line x1="-32" x2="160" y1="-89" y2="-89"/><line x1="-32" x2="160" y1="-85" y2="-85"/><line x1="-32" x2="160" y1="-81" y2="-81"/><line x1="-32" x2="160" y1="-77" y2="-77"/><line x1="-32" x2="160" y1="-73" y2="-73"/><line x1="-32" x2="160" y1="-69" y2="-69"/><line x1="-32" x2="160" y1="-65" y2="-65"/><line x1="-32" x2="160" y1="-61" y2="-61"/><line x1="-32" x2="160" y1="-57" y2="-57"/><line x1="-32" x2="160" y1="-53" y2="-53"/><line x1="-32" x2="160" y1="-49" y2="-49"/><line x1="-32" x2="160" y1="-45" y2="-45"/><line x1="-32" x2="160" y1="-41" y2="-41"/><line x1="-32" x2="160" y1="-37" y2="-37"/><line x1="-32" x2="160" y1="-33" y2="-33"/><line x1="-32" x2="160" y1="-29" y2="-29"/><line x1="-32" x2="160" y1="-25" y2="-25"/><line x1="-32" x2="160" y1="-21" y2="-21"/><line x1="-32" x2="160" y1="-17" y2="-17"/><line x1="-32" x2="160" y1="-13" y2="-13"/><line x1="-32" x2="160" y1="-9" y2="-9"/><line x1="-32" x2="160" y1="-5" y2="-5"/><line x1="-32" x2="160" y1="-1" y2="-1"/></g><path d="m159.75-188.75v191.5h-191.5v-191.5h191.5m0.25-0.25h-192v192h192v-192z"/></g></g><g fill="#F44336"><rect y="-157" width="4" height="128" opacity=".3"/><rect x="124" y="-157" width="4" height="128" opacity=".3"/><rect transform="matrix(-1.837e-16 1 -1 -1.837e-16 -91 -219)" x="62" y="-215" width="4" height="120" opacity=".3"/><rect transform="matrix(-1.837e-16 1 -1 -1.837e-16 33 -95)" x="62" y="-91" width="4" height="120" opacity=".3"/></g></g><g display="inline"><g opacity=".6"><circle cx="64" cy="64" r="28" fill="none" opacity=".61" stroke="#000" stroke-miterlimit="10" stroke-width=".2625"/><line x1="84" x2="84" y2="128" fill="none" opacity=".61" stroke="#000" stroke-miterlimit="10" stroke-width=".25"/><line x1="44" x2="44" y2="128" fill="none" opacity=".61" stroke="#000" stroke-miterlimit="10" stroke-width=".25"/><line x1="64" x2="64" y2="128" fill="none" opacity=".61" stroke="#000" stroke-miterlimit="10" stroke-width=".25"/><line x1="128" y1="64" y2="64" fill="none" opacity=".61" stroke="#000" stroke-miterlimit="10" stroke-width=".25"/><line x1="128" y1="44" y2="44" fill="none" opacity=".61" stroke="#000" stroke-miterlimit="10" stroke-width=".25"/><line x1="128" y1="83.75" y2="83.75" fill="none" opacity=".61" stroke="#000" stroke-miterlimit="10" stroke-width=".25"/><line x1="128" y1="128" fill="none" opacity=".61" stroke="#000" stroke-miterlimit="10" stroke-width=".25"/><line x2="128" y1="128" fill="none" opacity=".61" stroke="#000" stroke-miterlimit="10" stroke-width=".25"/><g opacity=".61"><path d="M64,4.26c32.94,0,59.74,26.8,59.74,59.74S96.94,123.74,64,123.74S4.26,96.94,4.26,64S31.06,4.26,64,4.26 M64,4 C30.86,4,4,30.86,4,64s26.86,60,60,60c33.14,0,60-26.86,60-60S97.14,4,64,4L64,4z"/></g><path d="m107.97 115.97h-87.94c-4.42 0-8.03-3.61-8.03-8.03v-87.91c0-4.42 3.61-8.03 8.03-8.03h87.94c4.42 0 8.03 3.61 8.03 8.03v87.91c0 4.42-3.61 8.03-8.03 8.03z" fill="none" opacity=".61" stroke="#000" stroke-miterlimit="10" stroke-width=".2578"/><path d="m100 124h-72c-4.4 0-8-3.6-8-8v-104c0-4.4 3.6-8 8-8h72c4.4 0 8 3.6 8 8v104c0 4.4-3.6 8-8 8z" fill="none" opacity=".61" stroke="#000" stroke-miterlimit="10" stroke-width=".2628"/><path d="M113.77,108H14.23 C8.6,108,4,103.4,4,97.77V30.28c0-5.63,4.6-10.23,10.23-10.23h99.54c5.63,0,10.23,4.6,10.23,10.23v67.48 C124,103.4,119.4,108,113.77,108z" fill="none" opacity=".61" stroke="#000" stroke-miterlimit="10" stroke-width=".2627"/></g><g opacity=".2"><defs><rect id="b" width="128" height="128" opacity=".2"/></defs><clipPath id="k"><use xlink:href="#b"/></clipPath><g clip-path="url(#k)"><g fill="none" stroke="#000" stroke-miterlimit="10" stroke-width=".25"><line x1="-28" x2="-28" y1="160" y2="-32"/><line x1="-24" x2="-24" y1="160" y2="-32"/><line x1="-20" x2="-20" y1="160" y2="-32"/><line x1="-16" x2="-16" y1="160" y2="-32"/><line x1="-12" x2="-12" y1="160" y2="-32"/><line x1="-8" x2="-8" y1="160" y2="-32"/><line x1="-4" x2="-4" y1="160" y2="-32"/><line y1="160" y2="-32"/><line x1="4" x2="4" y1="160" y2="-32"/><line x1="8" x2="8" y1="160" y2="-32"/><line x1="12" x2="12" y1="160" y2="-32"/><line x1="16" x2="16" y1="160" y2="-32"/><line x1="20" x2="20" y1="160" y2="-32"/><line x1="24" x2="24" y1="160" y2="-32"/><line x1="28" x2="28" y1="160" y2="-32"/><line x1="32" x2="32" y1="160" y2="-32"/><line x1="36" x2="36" y1="160" y2="-32"/><line x1="40" x2="40" y1="160" y2="-32"/><line x1="44" x2="44" y1="160" y2="-32"/><line x1="48" x2="48" y1="160" y2="-32"/><line x1="52" x2="52" y1="160" y2="-32"/><line x1="56" x2="56" y1="160" y2="-32"/><line x1="60" x2="60" y1="160" y2="-32"/><line x1="64" x2="64" y1="160" y2="-32"/><line x1="68" x2="68" y1="160" y2="-32"/><line x1="72" x2="72" y1="160" y2="-32"/><line x1="76" x2="76" y1="160" y2="-32"/><line x1="80" x2="80" y1="160" y2="-32"/><line x1="84" x2="84" y1="160" y2="-32"/><line x1="88" x2="88" y1="160" y2="-32"/><line x1="92" x2="92" y1="160" y2="-32"/><line x1="96" x2="96" y1="160" y2="-32"/><line x1="100" x2="100" y1="160" y2="-32"/><line x1="104" x2="104" y1="160" y2="-32"/><line x1="108" x2="108" y1="160" y2="-32"/><line x1="112" x2="112" y1="160" y2="-32"/><line x1="116" x2="116" y1="160" y2="-32"/><line x1="120" x2="120" y1="160" y2="-32"/><line x1="124" x2="124" y1="160" y2="-32"/><line x1="128" x2="128" y1="160" y2="-32"/><line x1="132" x2="132" y1="160" y2="-32"/><line x1="136" x2="136" y1="160" y2="-32"/><line x1="137" x2="137" y1="166.05" y2="-25.95"/><line x1="144" x2="144" y1="160" y2="-32"/><line x1="148" x2="148" y1="160" y2="-32"/><line x1="152" x2="152" y1="160" y2="-32"/><line x1="156" x2="156" y1="160" y2="-32"/></g><g fill="none" stroke="#000" stroke-miterlimit="10" stroke-width=".25"><line x1="-32" x2="160" y1="-28" y2="-28"/><line x1="-32" x2="160" y1="-24" y2="-24"/><line x1="-32" x2="160" y1="-20" y2="-20"/><line x1="-32" x2="160" y1="-16" y2="-16"/><line x1="-32" x2="160" y1="-12" y2="-12"/><line x1="-32" x2="160" y1="-8" y2="-8"/><line x1="-32" x2="160" y1="-4" y2="-4"/><line x1="-32" x2="160"/><line x1="-32" x2="160" y1="4" y2="4"/><line x1="-32" x2="160" y1="8" y2="8"/><line x1="-32" x2="160" y1="12" y2="12"/><line x1="-32" x2="160" y1="16" y2="16"/><line x1="-32" x2="160" y1="20" y2="20"/><line x1="-32" x2="160" y1="24" y2="24"/><line x1="-32" x2="160" y1="28" y2="28"/><line x1="-32" x2="160" y1="32" y2="32"/><line x1="-32" x2="160" y1="36" y2="36"/><line x1="-32" x2="160" y1="40" y2="40"/><line x1="-32" x2="160" y1="44" y2="44"/><line x1="-32" x2="160" y1="48" y2="48"/><line x1="-32" x2="160" y1="52" y2="52"/><line x1="-32" x2="160" y1="56" y2="56"/><line x1="-32" x2="160" y1="60" y2="60"/><line x1="-32" x2="160" y1="64" y2="64"/><line x1="-32" x2="160" y1="68" y2="68"/><line x1="-32" x2="160" y1="72" y2="72"/><line x1="-32" x2="160" y1="76" y2="76"/><line x1="-32" x2="160" y1="80" y2="80"/><line x1="-32" x2="160" y1="84" y2="84"/><line x1="-32" x2="160" y1="88" y2="88"/><line x1="-32" x2="160" y1="92" y2="92"/><line x1="-32" x2="160" y1="96" y2="96"/><line x1="-32" x2="160" y1="100" y2="100"/><line x1="-32" x2="160" y1="104" y2="104"/><line x1="-32" x2="160" y1="108" y2="108"/><line x1="-32" x2="160" y1="112" y2="112"/><line x1="-32" x2="160" y1="116" y2="116"/><line x1="-32" x2="160" y1="120" y2="120"/><line x1="-32" x2="160" y1="124" y2="124"/><line x1="-32" x2="160" y1="128" y2="128"/><line x1="-32" x2="160" y1="132" y2="132"/><line x1="-32" x2="160" y1="136" y2="136"/><line x1="-32" x2="160" y1="140" y2="140"/><line x1="-32" x2="160" y1="144" y2="144"/><line x1="-32" x2="160" y1="148" y2="148"/><line x1="-32" x2="160" y1="152" y2="152"/><line x1="-32" x2="160" y1="156" y2="156"/></g><path d="m159.75-31.75v191.5h-191.5v-191.5h191.5m0.25-0.25h-192v192h192v-192z"/></g></g><g fill="#F44336"><rect width="4" height="128" opacity=".3"/><rect x="124" width="4" height="128" opacity=".3"/><rect transform="matrix(-1.837e-16 1 -1 -1.837e-16 66 -62)" x="62" y="-58" width="4" height="120" opacity=".3"/><rect transform="matrix(-1.837e-16 1 -1 -1.837e-16 190 62)" x="62" y="66" width="4" height="120" opacity=".3"/></g></g><g display="inline"><g opacity=".6"><circle cx="197" cy="-93" r="28" fill="none" opacity=".61" stroke="#000" stroke-miterlimit="10" stroke-width=".2625"/><line x1="217" x2="217" y1="-157" y2="-29" fill="none" opacity=".61" stroke="#000" stroke-miterlimit="10" stroke-width=".25"/><line x1="177" x2="177" y1="-157" y2="-29" fill="none" opacity=".61" stroke="#000" stroke-miterlimit="10" stroke-width=".25"/><line x1="197" x2="197" y1="-157" y2="-29" fill="none" opacity=".61" stroke="#000" stroke-miterlimit="10" stroke-width=".25"/><line x1="261" x2="133" y1="-93" y2="-93" fill="none" opacity=".61" stroke="#000" stroke-miterlimit="10" stroke-width=".25"/><line x1="261" x2="133" y1="-113" y2="-113" fill="none" opacity=".61" stroke="#000" stroke-miterlimit="10" stroke-width=".25"/><line x1="261" x2="133" y1="-73.25" y2="-73.25" fill="none" opacity=".61" stroke="#000" stroke-miterlimit="10" stroke-width=".25"/><line x1="261" x2="133" y1="-29" y2="-157" fill="none" opacity=".61" stroke="#000" stroke-miterlimit="10" stroke-width=".25"/><line x1="133" x2="261" y1="-29" y2="-157" fill="none" opacity=".61" stroke="#000" stroke-miterlimit="10" stroke-width=".25"/><g opacity=".61"><path d="m197-152.74c32.94 0 59.74 26.8 59.74 59.74s-26.8 59.74-59.74 59.74-59.74-26.8-59.74-59.74 26.8-59.74 59.74-59.74m0-0.26c-33.14 0-60 26.86-60 60s26.86 60 60 60 60-26.86 60-60-26.86-60-60-60z"/></g><path d="m240.97-41.03h-87.94c-4.42 0-8.03-3.61-8.03-8.03v-87.91c0-4.42 3.61-8.03 8.03-8.03h87.94c4.42 0 8.03 3.61 8.03 8.03v87.91c0 4.42-3.61 8.03-8.03 8.03z" fill="none" opacity=".61" stroke="#000" stroke-miterlimit="10" stroke-width=".2578"/><path d="m233-33h-72c-4.4 0-8-3.6-8-8v-104c0-4.4 3.6-8 8-8h72c4.4 0 8 3.6 8 8v104c0 4.4-3.6 8-8 8z" fill="none" opacity=".61" stroke="#000" stroke-miterlimit="10" stroke-width=".2628"/><path d="M246.77-49h-99.54 C141.6-49,137-53.6,137-59.23v-67.48c0-5.63,4.6-10.23,10.23-10.23h99.54c5.63,0,10.23,4.6,10.23,10.23v67.48 C257-53.6,252.4-49,246.77-49z" fill="none" opacity=".61" stroke="#000" stroke-miterlimit="10" stroke-width=".2627"/></g><g opacity=".2"><defs><rect id="z" x="133" y="-157" width="128" height="128" opacity=".2"/></defs><clipPath id="j"><use xlink:href="#z"/></clipPath><g clip-path="url(#j)"><g fill="none" stroke="#000" stroke-miterlimit="10" stroke-width=".25"><line x1="105" x2="105" y1="3" y2="-189"/><line x1="109" x2="109" y1="3" y2="-189"/><line x1="113" x2="113" y1="3" y2="-189"/><line x1="117" x2="117" y1="3" y2="-189"/><line x1="121" x2="121" y1="3" y2="-189"/><line x1="125" x2="125" y1="3" y2="-189"/><line x1="129" x2="129" y1="3" y2="-189"/><line x1="133" x2="133" y1="3" y2="-189"/><line x1="137" x2="137" y1="3" y2="-189"/><line x1="141" x2="141" y1="3" y2="-189"/><line x1="145" x2="145" y1="3" y2="-189"/><line x1="149" x2="149" y1="3" y2="-189"/><line x1="153" x2="153" y1="3" y2="-189"/><line x1="157" x2="157" y1="3" y2="-189"/><line x1="161" x2="161" y1="3" y2="-189"/><line x1="165" x2="165" y1="3" y2="-189"/><line x1="169" x2="169" y1="3" y2="-189"/><line x1="173" x2="173" y1="3" y2="-189"/><line x1="177" x2="177" y1="3" y2="-189"/><line x1="181" x2="181" y1="3" y2="-189"/><line x1="185" x2="185" y1="3" y2="-189"/><line x1="189" x2="189" y1="3" y2="-189"/><line x1="193" x2="193" y1="3" y2="-189"/><line x1="197" x2="197" y1="3" y2="-189"/><line x1="201" x2="201" y1="3" y2="-189"/><line x1="205" x2="205" y1="3" y2="-189"/><line x1="209" x2="209" y1="3" y2="-189"/><line x1="213" x2="213" y1="3" y2="-189"/><line x1="217" x2="217" y1="3" y2="-189"/><line x1="221" x2="221" y1="3" y2="-189"/><line x1="225" x2="225" y1="3" y2="-189"/><line x1="229" x2="229" y1="3" y2="-189"/><line x1="233" x2="233" y1="3" y2="-189"/><line x1="237" x2="237" y1="3" y2="-189"/><line x1="241" x2="241" y1="3" y2="-189"/><line x1="245" x2="245" y1="3" y2="-189"/><line x1="249" x2="249" y1="3" y2="-189"/><line x1="253" x2="253" y1="3" y2="-189"/><line x1="257" x2="257" y1="3" y2="-189"/><line x1="261" x2="261" y1="3" y2="-189"/><line x1="265" x2="265" y1="3" y2="-189"/><line x1="269" x2="269" y1="3" y2="-189"/><line x1="270" x2="270" y1="9.05" y2="-182.95"/><line x1="277" x2="277" y1="3" y2="-189"/><line x1="281" x2="281" y1="3" y2="-189"/><line x1="285" x2="285" y1="3" y2="-189"/><line x1="289" x2="289" y1="3" y2="-189"/></g><g fill="none" stroke="#000" stroke-miterlimit="10" stroke-width=".25"><line x1="101" x2="293" y1="-185" y2="-185"/><line x1="101" x2="293" y1="-181" y2="-181"/><line x1="101" x2="293" y1="-177" y2="-177"/><line x1="101" x2="293" y1="-173" y2="-173"/><line x1="101" x2="293" y1="-169" y2="-169"/><line x1="101" x2="293" y1="-165" y2="-165"/><line x1="101" x2="293" y1="-161" y2="-161"/><line x1="101" x2="293" y1="-157" y2="-157"/><line x1="101" x2="293" y1="-153" y2="-153"/><line x1="101" x2="293" y1="-149" y2="-149"/><line x1="101" x2="293" y1="-145" y2="-145"/><line x1="101" x2="293" y1="-141" y2="-141"/><line x1="101" x2="293" y1="-137" y2="-137"/><line x1="101" x2="293" y1="-133" y2="-133"/><line x1="101" x2="293" y1="-129" y2="-129"/><line x1="101" x2="293" y1="-125" y2="-125"/><line x1="101" x2="293" y1="-121" y2="-121"/><line x1="101" x2="293" y1="-117" y2="-117"/><line x1="101" x2="293" y1="-113" y2="-113"/><line x1="101" x2="293" y1="-109" y2="-109"/><line x1="101" x2="293" y1="-105" y2="-105"/><line x1="101" x2="293" y1="-101" y2="-101"/><line x1="101" x2="293" y1="-97" y2="-97"/><line x1="101" x2="293" y1="-93" y2="-93"/><line x1="101" x2="293" y1="-89" y2="-89"/><line x1="101" x2="293" y1="-85" y2="-85"/><line x1="101" x2="293" y1="-81" y2="-81"/><line x1="101" x2="293" y1="-77" y2="-77"/><line x1="101" x2="293" y1="-73" y2="-73"/><line x1="101" x2="293" y1="-69" y2="-69"/><line x1="101" x2="293" y1="-65" y2="-65"/><line x1="101" x2="293" y1="-61" y2="-61"/><line x1="101" x2="293" y1="-57" y2="-57"/><line x1="101" x2="293" y1="-53" y2="-53"/><line x1="101" x2="293" y1="-49" y2="-49"/><line x1="101" x2="293" y1="-45" y2="-45"/><line x1="101" x2="293" y1="-41" y2="-41"/><line x1="101" x2="293" y1="-37" y2="-37"/><line x1="101" x2="293" y1="-33" y2="-33"/><line x1="101" x2="293" y1="-29" y2="-29"/><line x1="101" x2="293" y1="-25" y2="-25"/><line x1="101" x2="293" y1="-21" y2="-21"/><line x1="101" x2="293" y1="-17" y2="-17"/><line x1="101" x2="293" y1="-13" y2="-13"/><line x1="101" x2="293" y1="-9" y2="-9"/><line x1="101" x2="293" y1="-5" y2="-5"/><line x1="101" x2="293" y1="-1" y2="-1"/></g><path d="m292.75-188.75v191.5h-191.5v-191.5h191.5m0.25-0.25h-192v192h192v-192z"/></g></g><g fill="#F44336"><rect x="133" y="-157" width="4" height="128" opacity=".3"/><rect x="257" y="-157" width="4" height="128" opacity=".3"/><rect transform="matrix(-1.837e-16 1 -1 -1.837e-16 42 -352)" x="195" y="-215" width="4" height="120" opacity=".3"/><rect transform="matrix(-1.837e-16 1 -1 -1.837e-16 166 -228)" x="195" y="-91" width="4" height="120" opacity=".3"/></g></g><g display="inline"><g opacity=".6"><circle cx="197" cy="64" r="28" fill="none" opacity=".61" stroke="#000" stroke-miterlimit="10" stroke-width=".2625"/><line x1="217" x2="217" y2="128" fill="none" opacity=".61" stroke="#000" stroke-miterlimit="10" stroke-width=".25"/><line x1="177" x2="177" y2="128" fill="none" opacity=".61" stroke="#000" stroke-miterlimit="10" stroke-width=".25"/><line x1="197" x2="197" y2="128" fill="none" opacity=".61" stroke="#000" stroke-miterlimit="10" stroke-width=".25"/><line x1="261" x2="133" y1="64" y2="64" fill="none" opacity=".61" stroke="#000" stroke-miterlimit="10" stroke-width=".25"/><line x1="261" x2="133" y1="44" y2="44" fill="none" opacity=".61" stroke="#000" stroke-miterlimit="10" stroke-width=".25"/><line x1="261" x2="133" y1="83.75" y2="83.75" fill="none" opacity=".61" stroke="#000" stroke-miterlimit="10" stroke-width=".25"/><line x1="261" x2="133" y1="128" fill="none" opacity=".61" stroke="#000" stroke-miterlimit="10" stroke-width=".25"/><line x1="133" x2="261" y1="128" fill="none" opacity=".61" stroke="#000" stroke-miterlimit="10" stroke-width=".25"/><g opacity=".61"><path d="m197 4.26c32.94 0 59.74 26.8 59.74 59.74s-26.8 59.74-59.74 59.74-59.74-26.8-59.74-59.74 26.8-59.74 59.74-59.74m0-0.26c-33.14 0-60 26.86-60 60s26.86 60 60 60 60-26.86 60-60-26.86-60-60-60z"/></g><path d="m240.97 115.97h-87.94c-4.42 0-8.03-3.61-8.03-8.03v-87.91c0-4.42 3.61-8.03 8.03-8.03h87.94c4.42 0 8.03 3.61 8.03 8.03v87.91c0 4.42-3.61 8.03-8.03 8.03z" fill="none" opacity=".61" stroke="#000" stroke-miterlimit="10" stroke-width=".2578"/><path d="m233 124h-72c-4.4 0-8-3.6-8-8v-104c0-4.4 3.6-8 8-8h72c4.4 0 8 3.6 8 8v104c0 4.4-3.6 8-8 8z" fill="none" opacity=".61" stroke="#000" stroke-miterlimit="10" stroke-width=".2628"/><path d="m246.77 108h-99.54c-5.63 0-10.23-4.6-10.23-10.23v-67.49c0-5.63 4.6-10.23 10.23-10.23h99.54c5.63 0 10.23 4.6 10.23 10.23v67.48c0 5.64-4.6 10.24-10.23 10.24z" fill="none" opacity=".61" stroke="#000" stroke-miterlimit="10" stroke-width=".2627"/></g><g opacity=".2"><defs><rect id="f" x="133" width="128" height="128" opacity=".2"/></defs><clipPath id="i"><use xlink:href="#f"/></clipPath><g clip-path="url(#i)"><g fill="none" stroke="#000" stroke-miterlimit="10" stroke-width=".25"><line x1="105" x2="105" y1="160" y2="-32"/><line x1="109" x2="109" y1="160" y2="-32"/><line x1="113" x2="113" y1="160" y2="-32"/><line x1="117" x2="117" y1="160" y2="-32"/><line x1="121" x2="121" y1="160" y2="-32"/><line x1="125" x2="125" y1="160" y2="-32"/><line x1="129" x2="129" y1="160" y2="-32"/><line x1="133" x2="133" y1="160" y2="-32"/><line x1="137" x2="137" y1="160" y2="-32"/><line x1="141" x2="141" y1="160" y2="-32"/><line x1="145" x2="145" y1="160" y2="-32"/><line x1="149" x2="149" y1="160" y2="-32"/><line x1="153" x2="153" y1="160" y2="-32"/><line x1="157" x2="157" y1="160" y2="-32"/><line x1="161" x2="161" y1="160" y2="-32"/><line x1="165" x2="165" y1="160" y2="-32"/><line x1="169" x2="169" y1="160" y2="-32"/><line x1="173" x2="173" y1="160" y2="-32"/><line x1="177" x2="177" y1="160" y2="-32"/><line x1="181" x2="181" y1="160" y2="-32"/><line x1="185" x2="185" y1="160" y2="-32"/><line x1="189" x2="189" y1="160" y2="-32"/><line x1="193" x2="193" y1="160" y2="-32"/><line x1="197" x2="197" y1="160" y2="-32"/><line x1="201" x2="201" y1="160" y2="-32"/><line x1="205" x2="205" y1="160" y2="-32"/><line x1="209" x2="209" y1="160" y2="-32"/><line x1="213" x2="213" y1="160" y2="-32"/><line x1="217" x2="217" y1="160" y2="-32"/><line x1="221" x2="221" y1="160" y2="-32"/><line x1="225" x2="225" y1="160" y2="-32"/><line x1="229" x2="229" y1="160" y2="-32"/><line x1="233" x2="233" y1="160" y2="-32"/><line x1="237" x2="237" y1="160" y2="-32"/><line x1="241" x2="241" y1="160" y2="-32"/><line x1="245" x2="245" y1="160" y2="-32"/><line x1="249" x2="249" y1="160" y2="-32"/><line x1="253" x2="253" y1="160" y2="-32"/><line x1="257" x2="257" y1="160" y2="-32"/><line x1="261" x2="261" y1="160" y2="-32"/><line x1="265" x2="265" y1="160" y2="-32"/><line x1="269" x2="269" y1="160" y2="-32"/><line x1="270" x2="270" y1="166.05" y2="-25.95"/><line x1="277" x2="277" y1="160" y2="-32"/><line x1="281" x2="281" y1="160" y2="-32"/><line x1="285" x2="285" y1="160" y2="-32"/><line x1="289" x2="289" y1="160" y2="-32"/></g><g fill="none" stroke="#000" stroke-miterlimit="10" stroke-width=".25"><line x1="101" x2="293" y1="-28" y2="-28"/><line x1="101" x2="293" y1="-24" y2="-24"/><line x1="101" x2="293" y1="-20" y2="-20"/><line x1="101" x2="293" y1="-16" y2="-16"/><line x1="101" x2="293" y1="-12" y2="-12"/><line x1="101" x2="293" y1="-8" y2="-8"/><line x1="101" x2="293" y1="-4" y2="-4"/><line x1="101" x2="293"/><line x1="101" x2="293" y1="4" y2="4"/><line x1="101" x2="293" y1="8" y2="8"/><line x1="101" x2="293" y1="12" y2="12"/><line x1="101" x2="293" y1="16" y2="16"/><line x1="101" x2="293" y1="20" y2="20"/><line x1="101" x2="293" y1="24" y2="24"/><line x1="101" x2="293" y1="28" y2="28"/><line x1="101" x2="293" y1="32" y2="32"/><line x1="101" x2="293" y1="36" y2="36"/><line x1="101" x2="293" y1="40" y2="40"/><line x1="101" x2="293" y1="44" y2="44"/><line x1="101" x2="293" y1="48" y2="48"/><line x1="101" x2="293" y1="52" y2="52"/><line x1="101" x2="293" y1="56" y2="56"/><line x1="101" x2="293" y1="60" y2="60"/><line x1="101" x2="293" y1="64" y2="64"/><line x1="101" x2="293" y1="68" y2="68"/><line x1="101" x2="293" y1="72" y2="72"/><line x1="101" x2="293" y1="76" y2="76"/><line x1="101" x2="293" y1="80" y2="80"/><line x1="101" x2="293" y1="84" y2="84"/><line x1="101" x2="293" y1="88" y2="88"/><line x1="101" x2="293" y1="92" y2="92"/><line x1="101" x2="293" y1="96" y2="96"/><line x1="101" x2="293" y1="100" y2="100"/><line x1="101" x2="293" y1="104" y2="104"/><line x1="101" x2="293" y1="108" y2="108"/><line x1="101" x2="293" y1="112" y2="112"/><line x1="101" x2="293" y1="116" y2="116"/><line x1="101" x2="293" y1="120" y2="120"/><line x1="101" x2="293" y1="124" y2="124"/><line x1="101" x2="293" y1="128" y2="128"/><line x1="101" x2="293" y1="132" y2="132"/><line x1="101" x2="293" y1="136" y2="136"/><line x1="101" x2="293" y1="140" y2="140"/><line x1="101" x2="293" y1="144" y2="144"/><line x1="101" x2="293" y1="148" y2="148"/><line x1="101" x2="293" y1="152" y2="152"/><line x1="101" x2="293" y1="156" y2="156"/></g><path d="m292.75-31.75v191.5h-191.5v-191.5h191.5m0.25-0.25h-192v192h192v-192z"/></g></g><g fill="#F44336"><rect x="133" width="4" height="128" opacity=".3"/><rect x="257" width="4" height="128" opacity=".3"/><rect transform="matrix(-1.837e-16 1 -1 -1.837e-16 199 -195)" x="195" y="-58" width="4" height="120" opacity=".3"/><rect transform="matrix(-1.837e-16 1 -1 -1.837e-16 323 -71)" x="195" y="66" width="4" height="120" opacity=".3"/></g></g></g></svg>
