<svg enable-background="new 0 0 128 128" viewBox="0 0 128 128" xmlns="http://www.w3.org/2000/svg"><path d="m27.91 86.92c-12.36 0-22.41-11.27-22.41-25.13s10.05-25.14 22.41-25.14 22.41 11.28 22.41 25.14-10.05 25.13-22.41 25.13z" fill="#E6B175"/><path d="m27.91 38.15c11.53 0 20.91 10.6 20.91 23.64s-9.38 23.64-20.91 23.64-20.91-10.61-20.91-23.64 9.38-23.64 20.91-23.64m0-3c-13.2 0-23.91 11.93-23.91 26.64s10.71 26.64 23.91 26.64 23.91-11.93 23.91-26.64-10.7-26.64-23.91-26.64z" fill="#8B5E3C"/><path d="m100.09 86.92c-12.36 0-22.41-11.28-22.41-25.14s10.05-25.14 22.41-25.14 22.41 11.28 22.41 25.14c0 13.87-10.05 25.14-22.41 25.14z" fill="#E6B175"/><path d="m100.09 38.15c11.53 0 20.91 10.6 20.91 23.64s-9.38 23.64-20.91 23.64-20.91-10.6-20.91-23.64 9.38-23.64 20.91-23.64m0-3c-13.21 0-23.91 11.93-23.91 26.64s10.71 26.64 23.91 26.64 23.91-11.93 23.91-26.64-10.71-26.64-23.91-26.64z" fill="#8B5E3C"/><linearGradient id="d" x1="64" x2="64" y1="109.65" y2="9.6514" gradientUnits="userSpaceOnUse"><stop stop-color="#825C40" offset="0"/><stop stop-color="#855F41" offset=".1672"/><stop stop-color="#906746" offset=".3105"/><stop stop-color="#A2764D" offset=".4445"/><stop stop-color="#A97C50" offset=".4881"/></linearGradient><path d="m64 109.65c-14.34 0-26.67-5.46-35.64-15.79-8.29-9.54-12.86-22.3-12.86-35.93 0-24.03 15-48.28 48.5-48.28s48.5 24.25 48.5 48.28c0 13.63-4.57 26.39-12.86 35.94-8.97 10.32-21.3 15.78-35.64 15.78z" fill="url(#d)"/><path d="m64 11.15c14.34 0 26.38 4.72 34.8 13.64 7.87 8.33 12.2 20.1 12.2 33.14 0 13.27-4.44 25.68-12.49 34.95-8.68 9.99-20.61 15.27-34.51 15.27s-25.83-5.28-34.51-15.27c-8.05-9.27-12.49-21.68-12.49-34.95 0-13.04 4.33-24.81 12.2-33.14 8.42-8.92 20.46-13.64 34.8-13.64m0-3c-31.96 0-50 22.29-50 49.78s18.6 53.22 50 53.22 50-25.73 50-53.22-18.04-49.78-50-49.78z" fill="#8B5E3C"/><linearGradient id="c" x1="64" x2="64" y1="32.182" y2="105.28" gradientUnits="userSpaceOnUse"><stop stop-color="#E6B175" offset=".2592"/><stop stop-color="#E2AC70" offset=".4545"/><stop stop-color="#D59E62" offset=".6859"/><stop stop-color="#C0884A" offset=".9346"/><stop stop-color="#BD8446" offset=".9692"/></linearGradient><path d="m105.12 51.99c0-10.94-9.23-19.81-20.61-19.81-10.14 0-18.55 7.04-20.27 16.31-0.1 0-0.21-0.01-0.31-0.01h-0.17c-1.72-9.27-10.13-16.31-20.27-16.31-11.38 0-20.61 8.87-20.61 19.81 0 5.88 2.68 11.14 6.91 14.77-1.15 2.59-1.78 5.36-1.78 8.24 0 14.65 16.08 30.28 35.92 30.28s35.92-15.63 35.92-30.28c0-2.84-0.61-5.58-1.73-8.15 4.28-3.62 7-8.92 7-14.85z" fill="url(#c)"/><g fill="#404040"><ellipse cx="41.4" cy="54.8" rx="7.87" ry="8.91"/><ellipse cx="86.6" cy="54.8" rx="7.87" ry="8.91"/></g><ellipse cx="68.94" cy="65.9" rx="2.44" ry="3.91" fill="#404040"/><linearGradient id="b" x1="444.6" x2="462.59" y1="100.89" y2="68.318" gradientTransform="matrix(-1.3157 .0443 .5284 1.0561 635.05 -11.35)" gradientUnits="userSpaceOnUse"><stop stop-color="#825C40" offset="0"/><stop stop-color="#876042" offset=".0448"/><stop stop-color="#9A6F4A" offset=".2788"/><stop stop-color="#A5794E" offset=".5183"/><stop stop-color="#A97C50" offset=".7696"/></linearGradient><path d="m85.49 118.32c-3.82 0-6.9-1.37-8.67-3.85-7.76-10.88-7.89-11.17-10.09-16.17-0.88-2-2.05-4.66-4.12-8.95l26.74-7.79c3.15 5.24 7.97 13.41 11.59 22.45 1 2.49 0.69 4.95-0.91 7.31-2.74 4.06-8.86 7-14.54 7z" fill="url(#b)"/><path d="m88.66 83.32c3.12 5.2 7.53 12.85 10.89 21.24 0.81 2.03 0.56 3.96-0.76 5.91-2.45 3.61-8.16 6.34-13.3 6.34-2.35 0-5.55-0.56-7.45-3.22-7.67-10.75-7.8-11.04-9.94-15.9-0.77-1.75-1.76-4-3.38-7.4l23.94-6.97m1.38-3.52-29.55 8.61c8.39 17.21 3.85 11.14 15.11 26.94 2.24 3.14 5.93 4.47 9.89 4.47 9.42 0 20.36-7.56 16.84-16.36-3.87-9.7-9.16-18.47-12.29-23.66z" fill="#8B5E3C"/><linearGradient id="a" x1="-103.42" x2="-85.508" y1="123.77" y2="91.326" gradientTransform="matrix(1.3157 .0443 -.5284 1.0561 225.84 -11.35)" gradientUnits="userSpaceOnUse"><stop stop-color="#825C40" offset="0"/><stop stop-color="#876042" offset=".0448"/><stop stop-color="#9A6F4A" offset=".2788"/><stop stop-color="#A5794E" offset=".5183"/><stop stop-color="#A97C50" offset=".7696"/></linearGradient><path d="m42.19 118.35c-5.43 0-11.15-2.79-13.9-6.78-1.29-1.87-2.52-4.91-1.06-8.74 3.22-8.46 7.4-15.29 10.45-20.28 0.2-0.33 0.4-0.66 0.6-0.98l26.74 7.79c-2.07 4.29-3.24 6.95-4.12 8.95-2.2 5-2.33 5.3-10.09 16.17-1.77 2.49-4.84 3.87-8.62 3.87z" fill="url(#a)"/><path d="m38.97 83.32 23.95 6.98c-1.61 3.4-2.6 5.65-3.38 7.4-2.14 4.86-2.27 5.16-9.94 15.91-2.02 2.83-5.51 3.25-7.41 3.25-4.89 0-10.21-2.58-12.66-6.13-1.58-2.29-1.88-4.77-0.89-7.36 3.17-8.35 7.31-15.11 10.33-20.05m-1.37-3.52c-3.13 5.19-8.05 12.73-11.77 22.49-3.75 9.85 7.01 17.56 16.36 17.56 3.93 0 7.61-1.36 9.85-4.51 11.26-15.79 6.72-9.73 15.11-26.94l-29.55-8.6z" fill="#8B5E3C"/><path d="m50.92 107.05c-11.57 0-19.37-10.07-21.72-19.43-1.49-5.95-0.66-10.93 2.07-12.39 0.78-0.42 1.77-0.66 2.73-0.66 1.66 0 3.87 0.67 4.98 3.87 0.19 0.56 0.69 0.95 1.28 1 0.05 0 0.09 0.01 0.14 0.01 0.54 0 1.04-0.29 1.3-0.76 2.5-4.42 4.83-7.58 7.78-10.57 3.76-3.81 8.24-4.62 11.33-4.62 3.63 0 6.67 1.12 8.32 2.17 6.01 3.82 5.99 11.46 5.45 15.67-1.4 10.87-8.89 22.09-16.37 24.49-2.49 0.81-4.94 1.22-7.29 1.22z" fill="#FFC1AD"/><path d="m60.87 62v3c3.26 0 6 1 7.47 1.94 5.31 3.38 5.27 10.36 4.77 14.22-1.33 10.36-8.36 21.01-15.34 23.25-2.35 0.76-4.65 1.14-6.84 1.14-10.76 0-18.05-9.48-20.26-18.3-1.45-5.78-0.43-9.76 1.32-10.7 0.56-0.3 1.31-0.48 2.02-0.48 1.73 0 2.89 0.94 3.56 2.87 0.39 1.11 1.39 1.9 2.56 2 0.09 0.01 0.18 0.01 0.27 0.01 1.07 0 2.07-0.58 2.61-1.52 2.43-4.3 4.69-7.36 7.55-10.25 3.4-3.44 7.46-4.17 10.27-4.18l0.04-3m0 0h-0.05c-4.13 0.01-8.71 1.34-12.4 5.07-2.95 2.99-5.38 6.22-8.02 10.88-1.27-3.66-3.95-4.88-6.4-4.88-1.29 0-2.51 0.34-3.44 0.83-9.03 4.84-0.57 34.64 20.36 34.64 2.42 0 5.01-0.4 7.76-1.28 13.94-4.48 25.19-33.99 11.26-42.85-2.01-1.28-5.34-2.41-9.07-2.41z" fill="#E39581"/><path d="m63.68 64.85c-2.8 3.9-5.6 7.8-8.4 11.7" fill="#FFC1AD" stroke="#E39581" stroke-linecap="round" stroke-linejoin="round" stroke-miterlimit="10" stroke-width="4"/><path d="m71.76 69.32c-2.26 4.15-4.74 8.2-7.42 12.11" fill="#FFC1AD" stroke="#E39581" stroke-linecap="round" stroke-linejoin="round" stroke-miterlimit="10" stroke-width="4"/><path d="m78.68 106.15c-2.35 0-4.8-0.41-7.3-1.21-7.47-2.4-14.97-13.62-16.37-24.49-0.54-4.21-0.55-11.85 5.45-15.67 1.65-1.05 4.69-2.17 8.27-2.17 3.14 0.01 7.61 0.82 11.38 4.62 2.95 2.99 5.28 6.15 7.78 10.57 0.27 0.47 0.77 0.76 1.3 0.76 0.04 0 0.09 0 0.14-0.01 0.59-0.05 1.09-0.45 1.28-1 1.11-3.2 3.32-3.87 4.98-3.87 0.96 0 1.95 0.24 2.73 0.66 2.73 1.46 3.56 6.44 2.07 12.39-2.34 9.35-10.14 19.42-21.71 19.42z" fill="#FFC1AD"/><path d="m68.73 61.1 0.04 3c2.81 0.01 6.87 0.74 10.27 4.18 2.85 2.89 5.11 5.95 7.55 10.25 0.54 0.95 1.54 1.52 2.61 1.52 0.09 0 0.18 0 0.27-0.01 1.17-0.11 2.18-0.89 2.56-2 0.67-1.93 1.83-2.87 3.56-2.87 0.71 0 1.47 0.18 2.02 0.48 1.76 0.94 2.78 4.92 1.32 10.7-2.21 8.81-9.5 18.3-20.26 18.3-2.19 0-4.49-0.38-6.84-1.14-6.98-2.24-14.01-12.89-15.34-23.25-0.5-3.86-0.54-10.84 4.77-14.22 1.47-0.94 4.21-1.94 7.47-1.94v-3m0 0c-3.74 0-7.06 1.12-9.08 2.41-13.93 8.87-2.68 38.37 11.26 42.85 2.75 0.88 5.34 1.28 7.76 1.28 20.93 0 29.39-29.8 20.36-34.64-0.93-0.5-2.15-0.83-3.44-0.83-2.45 0-5.12 1.22-6.4 4.88-2.64-4.66-5.07-7.89-8.02-10.88-3.69-3.74-8.27-5.06-12.4-5.07h-0.04z" fill="#E39581"/><path d="m65.92 63.95c2.8 3.9 5.6 7.8 8.4 11.7" fill="#FFC1AD" stroke="#E39581" stroke-linecap="round" stroke-linejoin="round" stroke-miterlimit="10" stroke-width="3"/><path d="m57.84 68.42c2.26 4.15 4.74 8.2 7.42 12.11" fill="#FFC1AD" stroke="#E39581" stroke-linecap="round" stroke-linejoin="round" stroke-miterlimit="10" stroke-width="3"/></svg>
