<svg enable-background="new 0 0 128 128" viewBox="0 0 128 128" xmlns="http://www.w3.org/2000/svg" xmlns:xlink="http://www.w3.org/1999/xlink"><path d="m120.79 73.29h-113.58c-1.77 0-3.21-1.44-3.21-3.21v-12.71c0-1.77 1.44-3.21 3.21-3.21h113.58c1.77 0 3.21 1.44 3.21 3.21v12.71c0 1.77-1.44 3.21-3.21 3.21z" fill="#333"/><path d="m34.48 82.06h-16.32c-6.07 0-11.03-4.96-11.03-11.03v-13.07c0-6.07 4.96-11.03 11.03-11.03h16.31c6.07 0 11.03 4.96 11.03 11.03v13.07c0.01 6.07-4.96 11.03-11.02 11.03z"/><path d="m109.84 82.06h-16.32c-6.07 0-11.03-4.96-11.03-11.03v-13.07c0-6.07 4.96-11.03 11.03-11.03h16.31c6.07 0 11.03 4.96 11.03 11.03v13.07c0 6.07-4.96 11.03-11.02 11.03z"/><path d="m109.08 44.61c-2.33-1.83-7.61-4.2-23.71-5.49-9.4-0.75-18.53-0.83-21.1-0.84h-0.55c-2.57 0.01-11.7 0.08-21.1 0.84-16.23 1.3-21.47 3.69-23.77 5.53-0.97 0.55-2.25 1.65-3.3 3.81-1.54 3.17-2.2 7.88-1.96 14 0.06 1.53 0.09 2.97 0.11 4.36 0.19 10.5 0.36 19.58 17.48 21.45 1.71 0.19 3.28 0.37 4.71 0.53 4.62 0.53 7.97 0.91 10.64 0.91 5 0 8.05-1.4 10.88-5.01 1.36-1.73 5.5-7.01 6.58-7.01s5.22 5.28 6.58 7.01c2.83 3.61 5.88 5.01 10.88 5.01 2.67 0 6.01-0.38 10.63-0.91 1.44-0.16 3-0.34 4.72-0.53 17.12-1.87 17.29-10.94 17.48-21.45 0.03-1.4 0.05-2.84 0.11-4.36 0.51-12.6-2.98-16.59-5.31-17.85zm0.24 17.74c-0.51 12.86 1.4 19.86-13.75 21.51s-18.46 2.67-22.15-2.04c-4.66-5.95-6.87-8.3-9.42-8.3s-4.76 2.35-9.42 8.3c-3.69 4.71-7 3.69-22.15 2.04s-13.24-8.66-13.75-21.51c-0.51-12.86 3.44-14 3.44-14 5.8-5.33 37.26-5.59 41.63-5.6h0.25 0.25c4.37 0.01 35.82 0.27 41.63 5.6 0 0 3.95 1.15 3.44 14z" fill="#546E7A"/><defs><path id="b" d="m105.88 48.35c-5.8-5.33-37.26-5.59-41.63-5.6h-0.25-0.25c-4.37 0.01-35.82 0.27-41.63 5.6 0 0-3.95 1.15-3.44 14 0.51 12.86-1.4 19.86 13.75 21.51s18.46 2.67 22.15-2.04c4.66-5.95 6.87-8.3 9.42-8.3s4.76 2.35 9.42 8.3c3.69 4.71 7 3.69 22.15 2.04s13.24-8.66 13.75-21.51-3.44-14-3.44-14z"/></defs><linearGradient id="c" x1="18.638" x2="109.36" y1="64" y2="64" gradientUnits="userSpaceOnUse"><stop stop-color="#ADD7FB" offset=".0028045"/><stop stop-color="#F7FCFF" offset=".4863"/><stop stop-color="#F0F9FF" offset=".6062"/><stop stop-color="#DDEFFD" offset=".7805"/><stop stop-color="#BDDFFB" offset=".9869"/><stop stop-color="#BBDEFB" offset=".9995"/></linearGradient><use fill="url(#c)" xlink:href="#b"/><clipPath id="a"><use xlink:href="#b"/></clipPath><polygon points="34.77 94.51 12.11 94.51 40.22 35.18 62.88 35.18" clip-path="url(#a)" fill="#E3F2FD"/><polygon points="48.99 94.51 43.3 94.51 71.41 35.18 77.1 35.18" clip-path="url(#a)" fill="#E3F2FD" opacity=".48"/><polygon points="78.59 94.51 77.17 94.51 105.28 35.18 106.7 35.18" clip-path="url(#a)" fill="#F2F2F2" opacity=".89"/><g opacity=".2"><path d="m64.27 41.28c2.55 0.01 11.57 0.08 20.86 0.83 11.77 0.94 19.2 2.58 22.09 4.85l0.2 0.16 0.23 0.12c0.36 0.2 0.92 0.62 1.51 1.51l0.72 1.08 1.28 0.22c2.82 0.48 5.19 2.45 6.2 5.15l0.73 1.96h2.71c0.12 0 0.21 0.09 0.21 0.21v12.71c0 0.12-0.09 0.21-0.21 0.21h-2.59l-0.5 2.38c-0.7 3.33-3.55 5.93-6.93 6.33l-1.28 0.15-0.77 1.03c-2.08 2.77-6.08 4.44-12.22 5.11-1.72 0.19-3.29 0.37-4.73 0.53-4.52 0.52-7.79 0.89-10.29 0.89-4.11 0-6.26-0.97-8.52-3.87-5.47-6.98-7.03-8.15-8.94-8.15s-3.47 1.18-8.94 8.16c-2.26 2.89-4.41 3.86-8.52 3.86-2.5 0-5.77-0.37-10.3-0.89l-0.06-0.01c-1.42-0.16-2.98-0.34-4.67-0.53-6.14-0.67-10.14-2.34-12.22-5.11l-0.77-1.03-1.31-0.14c-3.38-0.39-6.23-2.99-6.93-6.33l-0.5-2.38h-2.6c-0.12 0-0.21-0.09-0.21-0.21v-12.71c0-0.12 0.09-0.21 0.21-0.21h2.71l0.73-1.96c1-2.7 3.38-4.67 6.2-5.15l1.27-0.21 0.72-1.07c0.58-0.87 1.15-1.3 1.52-1.51l0.2-0.12 0.17-0.14c2.87-2.29 10.31-3.94 22.13-4.88 9.3-0.75 18.33-0.82 20.86-0.83l0.55-0.01m0.01-3h-0.55c-2.57 0.01-11.7 0.08-21.1 0.84-16.23 1.3-21.47 3.69-23.77 5.53-0.74 0.42-1.65 1.16-2.52 2.44-3.93 0.66-7.16 3.41-8.52 7.06h-0.61c-1.77 0.01-3.21 1.45-3.21 3.22v12.71c0 1.77 1.44 3.21 3.21 3.21h0.16c0.97 4.58 4.8 8.14 9.52 8.69 2.4 3.19 6.66 5.46 14.3 6.29 1.71 0.19 3.28 0.37 4.71 0.53 4.62 0.53 7.97 0.91 10.64 0.91 5 0 8.05-1.4 10.88-5.01 1.36-1.73 5.5-7.01 6.58-7.01s5.22 5.28 6.58 7.01c2.83 3.61 5.88 5.01 10.88 5.01 2.67 0 6.01-0.38 10.63-0.91 1.44-0.16 3-0.34 4.72-0.53 7.64-0.83 11.9-3.11 14.3-6.3 4.72-0.55 8.56-4.1 9.52-8.69h0.16c1.77 0 3.21-1.44 3.21-3.21v-12.7c0-1.77-1.44-3.21-3.21-3.21h-0.62c-1.35-3.65-4.58-6.4-8.51-7.06-0.86-1.3-1.79-2.06-2.58-2.49-2.33-1.83-7.61-4.2-23.71-5.49-9.4-0.75-18.52-0.83-21.09-0.84z" fill="#eee"/></g></svg>
