<?xml version="1.0" encoding="utf-8"?>
<!-- Generator: Adobe Illustrator 24.0.3, SVG Export Plug-In . SVG Version: 6.00 Build 0)  -->
<svg version="1.1" id="Layer_1" xmlns="http://www.w3.org/2000/svg" xmlns:xlink="http://www.w3.org/1999/xlink" x="0px" y="0px"
	 viewBox="0 0 128 128" style="enable-background:new 0 0 128 128;" xml:space="preserve">
<linearGradient id="SVGID_1_" gradientUnits="userSpaceOnUse" x1="64" y1="718.2499" x2="64" y2="837.91" gradientTransform="matrix(1 0 0 1 0 -714)">
	<stop  offset="0" style="stop-color:#FFAB40"/>
	<stop  offset="1" style="stop-color:#FF6D00"/>
</linearGradient>
<path style="fill:url(#SVGID_1_);" d="M116,124H12c-4.4,0-8-3.6-8-8V12c0-4.4,3.6-8,8-8h104c4.4,0,8,3.6,8,8v104
	C124,120.4,120.4,124,116,124z"/>
<g style="opacity:0.2;">
	<path style="fill:#424242;" d="M116,7c2.8,0,5,2.2,5,5v104c0,2.8-2.2,5-5,5H12c-2.8,0-5-2.2-5-5V12c0-2.8,2.2-5,5-5H116 M116,4H12
		c-4.4,0-8,3.6-8,8v104c0,4.4,3.6,8,8,8h104c4.4,0,8-3.6,8-8V12C124,7.6,120.4,4,116,4z"/>
</g>
<path style="fill:#FAFAFA;" d="M110.1,36H99.9c-1,0-1.9,0.8-1.9,1.9v23.5l-38.9-25c-1.4-0.9-3.1,0.2-3.1,2v22.3L19,36.3
	c-1.4-0.9-3,0.2-3,2V64v25.7c0,1.8,1.7,2.9,3,2l37-24.4v22.3c0,1.8,1.7,2.9,3.1,2l38.9-25v23.5c0,1,0.8,1.9,1.9,1.9h10.3
	c1,0,1.9-0.8,1.9-1.9V37.9C112,36.8,111.2,36,110.1,36z"/>
<path style="opacity:0.2;fill:#424242;enable-background:new    ;" d="M110.1,33H99.9c-2.7,0-4.9,2.2-4.9,4.9v18L60.7,33.8
	C59.9,33.3,59,33,58.1,33c-2.8,0-5.1,2.4-5.1,5.3v16.8L20.7,33.8C19.9,33.3,19,33,18,33c-2.8,0-5,2.4-5,5.3v51.3
	c0,2.9,2.3,5.3,5,5.3c0.9,0,1.9-0.3,2.7-0.8L53,72.9v16.8c0,2.9,2.3,5.3,5.1,5.3c0.9,0,1.8-0.3,2.6-0.8L95,72.1v18
	c0,2.7,2.2,4.9,4.9,4.9h10.3c2.7,0,4.9-2.2,4.9-4.9V37.9C115,35.2,112.8,33,110.1,33z M112,90.1c0,1-0.8,1.9-1.9,1.9H99.9
	c-1,0-1.9-0.8-1.9-1.9V70.2v-3.6l-3,1.9l0,0L59.1,91.7c-0.2,0.1-0.3,0.2-0.5,0.2c-0.1,0-0.2,0-0.2,0c-0.1,0-0.2,0-0.3,0l0,0H58
	c-0.1,0-0.3,0-0.4-0.1c-0.1,0-0.1,0-0.1-0.1c-0.1,0-0.2-0.1-0.3-0.1c0,0-0.1,0-0.1-0.1c-0.1-0.1-0.3-0.2-0.4-0.3c0,0,0,0,0-0.1
	c-0.1-0.1-0.2-0.2-0.3-0.4l-0.1-0.1c-0.1-0.1-0.1-0.2-0.1-0.4c0-0.1,0-0.1,0-0.2c0-0.2-0.1-0.4-0.1-0.6V70.9v-3.6L19,91.7
	c-0.2,0.1-0.3,0.2-0.5,0.2c-0.1,0-0.2,0-0.3,0c-0.1,0-0.2,0-0.3,0l0,0h-0.1c-0.1,0-0.2,0-0.4-0.1h-0.1c-0.1,0-0.2-0.1-0.3-0.1
	c0,0-0.1,0-0.1-0.1c-0.1-0.1-0.3-0.2-0.4-0.3c0,0,0,0-0.1-0.1s-0.2-0.2-0.2-0.3c0-0.1-0.1-0.1-0.1-0.2C16,90.6,16,90.5,16,90.3
	c0-0.1,0-0.1,0-0.2c0-0.2-0.1-0.4-0.1-0.6V64V38.3l0,0l0,0c0-0.2,0-0.4,0.1-0.6c0-0.1,0-0.1,0-0.2c0-0.1,0.1-0.2,0.1-0.4
	c0,0,0-0.1,0.1-0.1c0.1-0.1,0.2-0.3,0.3-0.4l0,0c0.1-0.1,0.2-0.2,0.4-0.3H17c0.1-0.1,0.2-0.1,0.4-0.2h0.1c0.2,0,0.3-0.1,0.5-0.1l0,0
	l0,0c0.1,0,0.3,0,0.4,0.1h0.1c0.2,0.1,0.3,0.1,0.5,0.2l34,22.4l0,0l3,2v-3.6V38.3l0,0l0,0c0-0.2,0-0.4,0.1-0.6c0-0.1,0-0.1,0-0.2
	c0-0.1,0.1-0.3,0.1-0.4c0,0,0-0.1,0.1-0.1c0.1-0.1,0.2-0.3,0.3-0.4l0,0c0.1-0.1,0.3-0.2,0.4-0.3h0.1c0.1-0.1,0.2-0.1,0.4-0.2h0.1
	c0.2,0,0.3-0.1,0.5-0.1l0,0l0,0c0.1,0,0.3,0,0.4,0.1h0.1c0.2,0.1,0.4,0.1,0.5,0.2l38.9,25v-3.6V37.9c0-1,0.8-1.9,1.9-1.9h10.3
	c1,0,1.9,0.8,1.9,1.9v52.2H112z"/>
</svg>
