<svg width="128" height="128" style="enable-background:new 0 0 128 128;" xmlns="http://www.w3.org/2000/svg" xmlns:xlink="http://www.w3.org/1999/xlink">
  <g id="Layer_1">
    <g id="XMLID_41_">
      <linearGradient id="XMLID_6_" gradientUnits="userSpaceOnUse" x1="-93.0472" x2="-93.0472" y1="-73.4134" y2="-17.2908">
        <stop offset="5.129895e-03" style="stop-color:#EEEEEE"/>
        <stop offset="0.2817" style="stop-color:#EAEAEA"/>
        <stop offset="0.5766" style="stop-color:#DDDDDD"/>
        <stop offset="0.8789" style="stop-color:#C8C8C8"/>
        <stop offset="0.9998" style="stop-color:#BDBDBD"/>
      </linearGradient>
      <path id="XMLID_90_" d="M-42.13-44.72c-0.91-4.33-4.3-20.11-5.87-27.41 c-0.47-2.21-2.11-3.82-3.99-3.81c-5.36,0-15.39-0.05-16.6-0.05c0,0-35.79,0-44.08,0c-0.61,0-2.56,0.06-4.11,1.79 c-4.7,5.27-12.54,20.52-13.76,22.07c-0.08,0.1-6.27,2.31-9.09,4c-1.12,0.67-1.74,2.13-1.9,3.63l-2.46,20.75 c-0.64,4.1,1.7,5.76,5.37,5.76h91.51c2.8,0,5.11-0.68,5.11-5.69v-19.79C-42-43.9-42.05-44.32-42.13-44.72z" style="fill:url(#XMLID_6_);"/>
      <g id="XMLID_68_">
        <defs>
          <path id="XMLID_69_" d="M-42.13-44.78c-0.91-4.32-4.3-20.06-5.87-27.34c-0.47-2.21-2.11-3.82-3.99-3.82 c-5.36,0-15.39-0.06-16.6-0.06c0,0-35.79,0-44.08,0c-0.61,0-2.56,0.07-4.11,1.8c-4.7,5.26-12.54,20.51-13.76,22.05 c-0.08,0.1-6.27,2.28-9.09,3.96c-1.12,0.67-1.74,2.13-1.9,3.62l-2.46,20.76c-0.64,4.09,1.7,5.81,5.37,5.81h91.51 c2.8,0,5.11-0.79,5.11-5.8v-19.74C-42-43.96-42.05-44.37-42.13-44.78z"/>
        </defs>
        <clipPath id="XMLID_7_">
          <use style="overflow:visible;" xlink:href="#XMLID_69_"/>
        </clipPath>
      </g>
      <g id="XMLID_61_" style="opacity:0.2;">
        <path d="M-51.98-73c0.36,0,0.87,0.59,1.05,1.44c1.46,6.78,4.95,23.06,5.86,27.43 c0.04,0.2,0.07,0.44,0.07,0.66v19.79c0,2.81-0.49,2.69-2.11,2.69h-91.51c-1.3,0-2.02-0.23-2.25-0.5 c-0.23-0.27-0.3-0.92-0.16-1.77c0.01-0.04,0.01-0.06,0.02-0.09l2.47-20.83c0.08-0.8,0.36-1.28,0.46-1.36 c1.87-1.12,5.83-2.66,7.51-3.31c1.46-0.57,1.86-0.72,2.39-1.39c0.5-0.63,1.28-2,2.99-5.03c2.85-5.03,7.61-13.53,10.65-16.93 c0.57-0.64,1.22-0.79,1.87-0.79h44.08c0.75,0,4.89,0,9.21,0H-51.98H-52 M-51.98-76C-51.98-76-51.99-76-51.98-76 c-5.36,0-15.39,0-16.6,0c0,0-35.79,0-44.08,0c-0.01,0-0.01,0-0.02,0c-0.63,0-2.55,0.08-4.08,1.79 c-4.7,5.27-12.54,20.52-13.76,22.07c-0.08,0.1-6.27,2.31-9.09,4c-1.12,0.67-1.74,2.13-1.9,3.63l-2.46,20.75 c-0.64,4.1,1.7,5.76,5.37,5.76h91.51c2.8,0,5.11-0.68,5.11-5.69v-19.79c0-0.42-0.05-0.84-0.13-1.24 c-0.91-4.33-4.3-20.17-5.87-27.47C-48.47-74.4-50.11-76-51.98-76L-51.98-76z" style="fill:#424242;"/>
      </g>
    </g>
    <g id="XMLID_2_">
      <linearGradient id="XMLID_8_" gradientUnits="userSpaceOnUse" x1="46.4303" x2="46.4303" y1="-117.4969" y2="-61.3743">
        <stop offset="0.0106" style="stop-color:#616161"/>
        <stop offset="0.2496" style="stop-color:#5D5D5D"/>
        <stop offset="0.5044" style="stop-color:#505050"/>
        <stop offset="0.7657" style="stop-color:#3B3B3B"/>
        <stop offset="1" style="stop-color:#212121"/>
      </linearGradient>
      <path id="XMLID_142_" d="M97.35-88.93c-0.91-4.33-4.3-20.11-5.86-27.41 c-0.47-2.21-2.11-3.75-3.99-3.75c-5.36,0-15.39,0.01-16.6,0.01c0,0-35.79,0-44.08,0c-0.61,0-2.56-0.01-4.11,1.73 C18-113.07,10.16-97.86,8.95-96.31c-0.08,0.1-6.27,2.3-9.09,3.99c-1.12,0.67-1.74,2.12-1.9,3.62l-2.46,20.8 c-0.64,4.1,1.7,5.82,5.37,5.82h91.51c2.8,0,5.1-0.8,5.1-5.81v-19.79C97.47-88.11,97.43-88.52,97.35-88.93z" style="fill:url(#XMLID_8_);"/>
      <g id="XMLID_136_">
        <defs>
          <path id="XMLID_141_" d="M97.35-88.98c-0.91-4.32-4.3-20.06-5.86-27.34c-0.47-2.21-2.11-3.74-3.99-3.74 c-5.36,0-15.39,0.01-16.6,0.01c0,0-35.79,0-44.08,0c-0.61,0-2.56-0.01-4.11,1.72C18-113.06,10.16-97.85,8.95-96.31 c-0.08,0.1-6.27,2.26-9.09,3.94c-1.12,0.67-1.74,2.12-1.9,3.61L-4.51-68c-0.64,4.09,1.7,5.8,5.37,5.8h91.51 c2.8,0,5.1-0.79,5.1-5.8v-19.74C97.47-88.16,97.43-88.58,97.35-88.98z"/>
        </defs>
        <clipPath id="XMLID_9_">
          <use style="overflow:visible;" xlink:href="#XMLID_141_"/>
        </clipPath>
      </g>
      <g id="XMLID_129_" style="opacity:0.2;">
        <path d="M87.5-117.08c0.36,0,0.87,0.53,1.05,1.38c1.46,6.78,4.94,23.03,5.86,27.4 c0.04,0.2,0.06,0.41,0.06,0.63v19.79c0,2.81-0.49,2.81-2.1,2.81H0.86c-1.3,0-2.02-0.29-2.25-0.56c-0.23-0.27-0.3-0.95-0.16-1.8 l0.01-0.05l0.01-0.05l2.47-20.84c0.08-0.8,0.36-1.28,0.46-1.36c1.87-1.12,5.83-2.66,7.51-3.31c1.46-0.57,1.86-0.72,2.39-1.39 c0.5-0.63,1.28-2,2.99-5.03c2.85-5.03,7.61-13.46,10.65-16.87c0.57-0.64,1.22-0.72,1.87-0.72h44.08c0.75,0,4.89,0,9.21-0.01 L87.5-117.08L87.5-117.08 M87.5-120.08C87.5-120.08,87.5-120.08,87.5-120.08c-5.36,0-15.39,0.01-16.6,0.01c0,0-35.79,0-44.08,0 c-0.01,0-0.01,0-0.02,0c-0.63,0-2.55,0.01-4.08,1.73C18-113.07,10.16-97.86,8.95-96.31c-0.08,0.1-6.27,2.3-9.09,3.99 c-1.12,0.67-1.74,2.12-1.9,3.62l-2.46,20.8c-0.64,4.1,1.7,5.82,5.37,5.82h91.51c2.8,0,5.1-0.8,5.1-5.81v-19.79 c0-0.42-0.04-0.84-0.13-1.24c-0.91-4.33-4.3-20.11-5.86-27.41C91.01-118.55,89.37-120.08,87.5-120.08L87.5-120.08z" style="fill:#EEEEEE;"/>
      </g>
    </g>
    <path d="M-88.07,180.31" style="stroke:#00FFFF;stroke-width:1.3895;stroke-miterlimit:10;"/>
    <linearGradient id="SVGID_1_" gradientUnits="userSpaceOnUse" x1="90.2799" x2="101.5641" y1="26.2384" y2="37.5226">
      <stop offset="1.574458e-03" style="stop-color:#B0BEC5"/>
      <stop offset="1" style="stop-color:#90A4AE"/>
    </linearGradient>
    <path d="M113.73,14.59l-0.52-0.52c-2.97-2.97-7.79-2.97-10.76,0L72.73,43.79l11.28,11.28l29.71-29.71 C116.7,22.38,116.7,17.56,113.73,14.59z" style="fill:url(#SVGID_1_);"/>
    <polygon points="82.45,34.07 83.42,55.67 88.65,50.43 87.69,28.83 " style="fill:#78909C;"/>
    <polygon points="92.82,23.7 93.79,45.3 99.02,40.06 98.06,18.46 " style="fill:#78909C;"/>
    <polygon points="103.19,13.33 104.15,34.93 109.39,29.69 108.43,8.09 " style="fill:#78909C;"/>
    <g style="opacity:0.2;">
      <path d="M107.83,14.84c1.23,0,2.39,0.48,3.26,1.35l0.52,0.52c1.8,1.8,1.8,4.72,0,6.52L84.02,50.83 l-7.04-7.04l27.59-27.59C105.44,15.32,106.6,14.84,107.83,14.84 M107.83,11.84c-1.95,0-3.9,0.74-5.38,2.23L72.73,43.79 l11.28,11.28l29.71-29.71c2.97-2.97,2.97-7.79,0-10.76l-0.52-0.52C111.72,12.59,109.78,11.84,107.83,11.84L107.83,11.84z" style="fill:#424242;"/>
    </g>
    <linearGradient id="SVGID_3_" gradientTransform="matrix(0.7071 0.7071 0.7071 -0.7071 -42.1546 65.1422)" gradientUnits="userSpaceOnUse" x1="57.3667" x2="91.4718" y1="45.3738" y2="45.3738">
      <stop offset="0" style="stop-color:#EEEEEE"/>
      <stop offset="1" style="stop-color:#BDBDBD"/>
    </linearGradient>
    <path d="M77.68,67.12l-61.76,51.49l-9.14,5.13c-1.63,0.91-3.42-0.89-2.51-2.51L9.44,112l51.27-61.86 l13.3-8.74l12.41,12.41L77.68,67.12z" style="fill:url(#SVGID_3_);"/>
    <g style="opacity:0.2;">
      <path d="M73.61,45.25l8.95,8.95l-7.15,10.9l-61.21,51.03l-5.32,2.98l3.03-5.41l50.81-61.3L73.61,45.25 M74.01,41.4l-13.3,8.74L9.44,112l-5.17,9.23c-0.74,1.32,0.31,2.76,1.6,2.76c0.3,0,0.61-0.08,0.91-0.25l9.14-5.13l61.76-51.49 l8.73-13.32L74.01,41.4L74.01,41.4z" style="fill:#424242;"/>
    </g>
    <path d="M118.28,22.24" style="stroke:#00FFFF;stroke-width:1.3895;stroke-miterlimit:10;"/>
    <ellipse cx="111.99" cy="16.02" rx="12" ry="12" style="fill:#546E7A;" transform="matrix(0.7071 -0.7071 0.7071 0.7071 21.4708 83.8837)"/>
    <g style="opacity:0.2;">
      <path d="M111.99,7.02c2.4,0,4.67,0.94,6.37,2.64c3.51,3.51,3.51,9.22,0,12.73c-1.7,1.7-3.96,2.64-6.37,2.64 s-4.67-0.94-6.37-2.64c-3.51-3.51-3.51-9.22,0-12.73C107.33,7.96,109.59,7.02,111.99,7.02 M111.99,4.02 c-3.07,0-6.14,1.17-8.49,3.52c-4.69,4.69-4.69,12.29,0,16.97c2.34,2.34,5.42,3.52,8.49,3.52c3.07,0,6.14-1.17,8.49-3.52 c4.69-4.69,4.69-12.29,0-16.97C118.14,5.19,115.06,4.02,111.99,4.02L111.99,4.02z" style="fill:#424242;"/>
    </g>
    <path d="M118.28,22.24" style="stroke:#00FFFF;stroke-width:1.3895;stroke-miterlimit:10;"/>
    <path d="M103.51,68.94c-0.01-0.01,0-0.03-0.01-0.03l-0.02-0.02l0,0l0,0L58.96,24.36c0,0,0,0-0.01-0.01 c0,0-0.01-0.01-0.01-0.01c-3.31-3.31-8.7-3.3-12.01,0.01s-3.47,8.84-0.15,12.16c2.81,2.81,7.43,2.9,10.2,1.43l32.91,32.91 c-1.47,2.77-1.39,7.4,1.42,10.21c3.31,3.31,8.77,3.23,12.08-0.08C106.69,77.68,106.78,72.26,103.51,68.94z" style="fill:#546E7A;"/>
    <g style="opacity:0.2;">
      <path d="M52.94,24.86c1.47,0,2.84,0.57,3.89,1.62l44.35,44.35c0.06,0.07,0.12,0.15,0.19,0.21 c2.11,2.14,2.06,5.64-0.11,7.81c-1.06,1.06-2.48,1.65-4,1.65c-1.47,0-2.83-0.56-3.84-1.57c-1.89-1.89-1.73-5.1-0.89-6.68 c0.62-1.16,0.4-2.59-0.53-3.52L59.1,35.82c-0.58-0.58-1.34-0.88-2.12-0.88c-0.48,0-0.96,0.11-1.4,0.35 c-0.71,0.38-1.69,0.59-2.68,0.59c-1.59,0-3.05-0.54-4-1.49c-1.01-1.01-1.56-2.4-1.53-3.9c0.03-1.5,0.64-2.96,1.68-4.01 C50.09,25.43,51.47,24.86,52.94,24.86 M52.94,21.86c-2.18,0-4.36,0.83-6.01,2.49c-3.31,3.31-3.47,8.84-0.15,12.16 c1.66,1.66,3.95,2.37,6.12,2.37c1.5,0,2.95-0.34,4.08-0.94l32.91,32.91c-1.47,2.77-1.39,7.4,1.42,10.21 c1.64,1.64,3.8,2.45,5.96,2.45c2.22,0,4.44-0.85,6.12-2.53c3.3-3.3,3.39-8.72,0.12-12.03c-0.01-0.01,0-0.03-0.01-0.03l-0.02-0.02 L58.96,24.36c0,0,0,0-0.01-0.01c0,0-0.01-0.01-0.01-0.01C57.28,22.69,55.11,21.86,52.94,21.86L52.94,21.86z" style="fill:#424242;"/>
    </g>
  </g>
  <g id="Layer_2" style="display:none;">
    <g style="display:inline;">
      <g style="opacity:0.6;">
        <circle cx="64" cy="64" r="28" style="opacity:0.61;fill:none;stroke:#000000;stroke-width:0.2625;stroke-miterlimit:10;"/>
        <line style="opacity:0.61;fill:none;stroke:#000000;stroke-miterlimit:10;" x1="83.5" x2="83.5" y1="0" y2="128"/>
        <line style="opacity:0.61;fill:none;stroke:#000000;stroke-miterlimit:10;" x1="43.5" x2="43.5" y1="0" y2="128"/>
        <line style="opacity:0.61;fill:none;stroke:#000000;stroke-miterlimit:10;" x1="63.5" x2="63.5" y1="0" y2="128"/>
        <line style="opacity:0.61;fill:none;stroke:#000000;stroke-miterlimit:10;" x1="128" x2="0" y1="64.5" y2="64.5"/>
        <line style="opacity:0.61;fill:none;stroke:#000000;stroke-miterlimit:10;" x1="128" x2="0" y1="44.5" y2="44.5"/>
        <line style="opacity:0.61;fill:none;stroke:#000000;stroke-miterlimit:10;" x1="128" x2="0" y1="83.5" y2="83.5"/>
        <line style="opacity:0.61;fill:none;stroke:#000000;stroke-width:0.25;stroke-miterlimit:10;" x1="128" x2="0" y1="128" y2="0"/>
        <line style="opacity:0.61;fill:none;stroke:#000000;stroke-width:0.25;stroke-miterlimit:10;" x1="0" x2="128" y1="128" y2="0"/>
        <g style="opacity:0.61;">
          <path d="M64,4.26c32.94,0,59.74,26.8,59.74,59.74S96.94,123.74,64,123.74S4.26,96.94,4.26,64S31.06,4.26,64,4.26 M64,4 C30.86,4,4,30.86,4,64s26.86,60,60,60s60-26.86,60-60S97.14,4,64,4L64,4z"/>
        </g>
        <path d="M115.5,108.47c0,4.43-3.59,8.03-8.03,8.03H19.53 c-4.43,0-8.03-3.59-8.03-8.03V20.53c0-4.43,3.59-8.03,8.03-8.03h87.94c4.43,0,8.03,3.59,8.03,8.03V108.47z" style="opacity:0.61;fill:none;stroke:#000000;stroke-miterlimit:10;"/>
        <path d="M107.5,116.5c0,4.42-3.58,8-8,8h-72 c-4.42,0-8-3.58-8-8v-104c0-4.42,3.58-8,8-8h72c4.42,0,8,3.58,8,8V116.5z" style="opacity:0.61;fill:none;stroke:#000000;stroke-miterlimit:10;"/>
        <path d="M123.5,98.27c0,5.65-4.58,10.23-10.23,10.23H13.73 c-5.65,0-10.23-4.58-10.23-10.23V30.73c0-5.65,4.58-10.23,10.23-10.23h99.54c5.65,0,10.23,4.58,10.23,10.23V98.27z" style="opacity:0.61;fill:none;stroke:#000000;stroke-miterlimit:10;"/>
      </g>
      <g>
        <g style="opacity:0.2;">
          <defs>
            <rect id="SVGID_2_" height="128" style="opacity:0.2;" width="128" x="0"/>
          </defs>
          <clipPath id="SVGID_4_">
            <use style="overflow:visible;" xlink:href="#SVGID_2_"/>
          </clipPath>
          <g style="clip-path:url(#SVGID_4_);">
            <g>
              <line style="fill:none;stroke:#000000;stroke-miterlimit:10;" x1="-28.5" x2="-28.5" y1="160" y2="-32"/>
              <line style="fill:none;stroke:#000000;stroke-miterlimit:10;" x1="-24.5" x2="-24.5" y1="160" y2="-32"/>
              <line style="fill:none;stroke:#000000;stroke-miterlimit:10;" x1="-20.5" x2="-20.5" y1="160" y2="-32"/>
              <line style="fill:none;stroke:#000000;stroke-miterlimit:10;" x1="-16.5" x2="-16.5" y1="160" y2="-32"/>
              <line style="fill:none;stroke:#000000;stroke-miterlimit:10;" x1="-12.5" x2="-12.5" y1="160" y2="-32"/>
              <line style="fill:none;stroke:#000000;stroke-miterlimit:10;" x1="-8.5" x2="-8.5" y1="160" y2="-32"/>
              <line style="fill:none;stroke:#000000;stroke-miterlimit:10;" x1="-4.5" x2="-4.5" y1="160" y2="-32"/>
              <line style="fill:none;stroke:#000000;stroke-miterlimit:10;" x1="-0.5" x2="-0.5" y1="160" y2="-32"/>
              <line style="fill:none;stroke:#000000;stroke-miterlimit:10;" x1="3.5" x2="3.5" y1="160" y2="-32"/>
              <line style="fill:none;stroke:#000000;stroke-miterlimit:10;" x1="7.5" x2="7.5" y1="160" y2="-32"/>
              <line style="fill:none;stroke:#000000;stroke-miterlimit:10;" x1="11.5" x2="11.5" y1="160" y2="-32"/>
              <line style="fill:none;stroke:#000000;stroke-miterlimit:10;" x1="15.5" x2="15.5" y1="160" y2="-32"/>
              <line style="fill:none;stroke:#000000;stroke-miterlimit:10;" x1="19.5" x2="19.5" y1="160" y2="-32"/>
              <line style="fill:none;stroke:#000000;stroke-miterlimit:10;" x1="23.5" x2="23.5" y1="160" y2="-32"/>
              <line style="fill:none;stroke:#000000;stroke-miterlimit:10;" x1="27.5" x2="27.5" y1="160" y2="-32"/>
              <line style="fill:none;stroke:#000000;stroke-miterlimit:10;" x1="31.5" x2="31.5" y1="160" y2="-32"/>
              <line style="fill:none;stroke:#000000;stroke-miterlimit:10;" x1="35.5" x2="35.5" y1="160" y2="-32"/>
              <line style="fill:none;stroke:#000000;stroke-miterlimit:10;" x1="39.5" x2="39.5" y1="160" y2="-32"/>
              <line style="fill:none;stroke:#000000;stroke-miterlimit:10;" x1="43.5" x2="43.5" y1="160" y2="-32"/>
              <line style="fill:none;stroke:#000000;stroke-miterlimit:10;" x1="47.5" x2="47.5" y1="160" y2="-32"/>
              <line style="fill:none;stroke:#000000;stroke-miterlimit:10;" x1="51.5" x2="51.5" y1="160" y2="-32"/>
              <line style="fill:none;stroke:#000000;stroke-miterlimit:10;" x1="55.5" x2="55.5" y1="160" y2="-32"/>
              <line style="fill:none;stroke:#000000;stroke-miterlimit:10;" x1="59.5" x2="59.5" y1="160" y2="-32"/>
              <line style="fill:none;stroke:#000000;stroke-miterlimit:10;" x1="63.5" x2="63.5" y1="160" y2="-32"/>
              <line style="fill:none;stroke:#000000;stroke-miterlimit:10;" x1="67.5" x2="67.5" y1="160" y2="-32"/>
              <line style="fill:none;stroke:#000000;stroke-miterlimit:10;" x1="71.5" x2="71.5" y1="160" y2="-32"/>
              <line style="fill:none;stroke:#000000;stroke-miterlimit:10;" x1="75.5" x2="75.5" y1="160" y2="-32"/>
              <line style="fill:none;stroke:#000000;stroke-miterlimit:10;" x1="79.5" x2="79.5" y1="160" y2="-32"/>
              <line style="fill:none;stroke:#000000;stroke-miterlimit:10;" x1="83.5" x2="83.5" y1="160" y2="-32"/>
              <line style="fill:none;stroke:#000000;stroke-miterlimit:10;" x1="87.5" x2="87.5" y1="160" y2="-32"/>
              <line style="fill:none;stroke:#000000;stroke-miterlimit:10;" x1="91.5" x2="91.5" y1="160" y2="-32"/>
              <line style="fill:none;stroke:#000000;stroke-miterlimit:10;" x1="95.5" x2="95.5" y1="160" y2="-32"/>
              <line style="fill:none;stroke:#000000;stroke-miterlimit:10;" x1="99.5" x2="99.5" y1="160" y2="-32"/>
              <line style="fill:none;stroke:#000000;stroke-miterlimit:10;" x1="103.5" x2="103.5" y1="160" y2="-32"/>
              <line style="fill:none;stroke:#000000;stroke-miterlimit:10;" x1="107.5" x2="107.5" y1="160" y2="-32"/>
              <line style="fill:none;stroke:#000000;stroke-miterlimit:10;" x1="111.5" x2="111.5" y1="160" y2="-32"/>
              <line style="fill:none;stroke:#000000;stroke-miterlimit:10;" x1="115.5" x2="115.5" y1="160" y2="-32"/>
              <line style="fill:none;stroke:#000000;stroke-miterlimit:10;" x1="119.5" x2="119.5" y1="160" y2="-32"/>
              <line style="fill:none;stroke:#000000;stroke-miterlimit:10;" x1="123.5" x2="123.5" y1="160" y2="-32"/>
              <line style="fill:none;stroke:#000000;stroke-miterlimit:10;" x1="127.5" x2="127.5" y1="160" y2="-32"/>
              <line style="fill:none;stroke:#000000;stroke-miterlimit:10;" x1="131.5" x2="131.5" y1="160" y2="-32"/>
              <line style="fill:none;stroke:#000000;stroke-miterlimit:10;" x1="135.5" x2="135.5" y1="160" y2="-32"/>
              <line style="fill:none;stroke:#000000;stroke-miterlimit:10;" x1="136.5" x2="136.5" y1="166" y2="-26"/>
              <line style="fill:none;stroke:#000000;stroke-miterlimit:10;" x1="143.5" x2="143.5" y1="160" y2="-32"/>
              <line style="fill:none;stroke:#000000;stroke-miterlimit:10;" x1="147.5" x2="147.5" y1="160" y2="-32"/>
              <line style="fill:none;stroke:#000000;stroke-miterlimit:10;" x1="151.5" x2="151.5" y1="160" y2="-32"/>
              <line style="fill:none;stroke:#000000;stroke-miterlimit:10;" x1="155.5" x2="155.5" y1="160" y2="-32"/>
            </g>
            <g>
              <line style="fill:none;stroke:#000000;stroke-miterlimit:10;" x1="-32" x2="160" y1="-27.5" y2="-27.5"/>
              <line style="fill:none;stroke:#000000;stroke-miterlimit:10;" x1="-32" x2="160" y1="-23.5" y2="-23.5"/>
              <line style="fill:none;stroke:#000000;stroke-miterlimit:10;" x1="-32" x2="160" y1="-19.5" y2="-19.5"/>
              <line style="fill:none;stroke:#000000;stroke-miterlimit:10;" x1="-32" x2="160" y1="-15.5" y2="-15.5"/>
              <line style="fill:none;stroke:#000000;stroke-miterlimit:10;" x1="-32" x2="160" y1="-11.5" y2="-11.5"/>
              <line style="fill:none;stroke:#000000;stroke-miterlimit:10;" x1="-32" x2="160" y1="-7.5" y2="-7.5"/>
              <line style="fill:none;stroke:#000000;stroke-miterlimit:10;" x1="-32" x2="160" y1="-3.5" y2="-3.5"/>
              <line style="fill:none;stroke:#000000;stroke-miterlimit:10;" x1="-32" x2="160" y1="0.5" y2="0.5"/>
              <line style="fill:none;stroke:#000000;stroke-miterlimit:10;" x1="-32" x2="160" y1="4.5" y2="4.5"/>
              <line style="fill:none;stroke:#000000;stroke-miterlimit:10;" x1="-32" x2="160" y1="8.5" y2="8.5"/>
              <line style="fill:none;stroke:#000000;stroke-miterlimit:10;" x1="-32" x2="160" y1="12.5" y2="12.5"/>
              <line style="fill:none;stroke:#000000;stroke-miterlimit:10;" x1="-32" x2="160" y1="16.5" y2="16.5"/>
              <line style="fill:none;stroke:#000000;stroke-miterlimit:10;" x1="-32" x2="160" y1="20.5" y2="20.5"/>
              <line style="fill:none;stroke:#000000;stroke-miterlimit:10;" x1="-32" x2="160" y1="24.5" y2="24.5"/>
              <line style="fill:none;stroke:#000000;stroke-miterlimit:10;" x1="-32" x2="160" y1="28.5" y2="28.5"/>
              <line style="fill:none;stroke:#000000;stroke-miterlimit:10;" x1="-32" x2="160" y1="32.5" y2="32.5"/>
              <line style="fill:none;stroke:#000000;stroke-miterlimit:10;" x1="-32" x2="160" y1="36.5" y2="36.5"/>
              <line style="fill:none;stroke:#000000;stroke-miterlimit:10;" x1="-32" x2="160" y1="40.5" y2="40.5"/>
              <line style="fill:none;stroke:#000000;stroke-miterlimit:10;" x1="-32" x2="160" y1="44.5" y2="44.5"/>
              <line style="fill:none;stroke:#000000;stroke-miterlimit:10;" x1="-32" x2="160" y1="48.5" y2="48.5"/>
              <line style="fill:none;stroke:#000000;stroke-miterlimit:10;" x1="-32" x2="160" y1="52.5" y2="52.5"/>
              <line style="fill:none;stroke:#000000;stroke-miterlimit:10;" x1="-32" x2="160" y1="56.5" y2="56.5"/>
              <line style="fill:none;stroke:#000000;stroke-miterlimit:10;" x1="-32" x2="160" y1="60.5" y2="60.5"/>
              <line style="fill:none;stroke:#000000;stroke-miterlimit:10;" x1="-32" x2="160" y1="64.5" y2="64.5"/>
              <line style="fill:none;stroke:#000000;stroke-miterlimit:10;" x1="-32" x2="160" y1="68.5" y2="68.5"/>
              <line style="fill:none;stroke:#000000;stroke-miterlimit:10;" x1="-32" x2="160" y1="72.5" y2="72.5"/>
              <line style="fill:none;stroke:#000000;stroke-miterlimit:10;" x1="-32" x2="160" y1="76.5" y2="76.5"/>
              <line style="fill:none;stroke:#000000;stroke-miterlimit:10;" x1="-32" x2="160" y1="80.5" y2="80.5"/>
              <line style="fill:none;stroke:#000000;stroke-miterlimit:10;" x1="-32" x2="160" y1="84.5" y2="84.5"/>
              <line style="fill:none;stroke:#000000;stroke-miterlimit:10;" x1="-32" x2="160" y1="88.5" y2="88.5"/>
              <line style="fill:none;stroke:#000000;stroke-miterlimit:10;" x1="-32" x2="160" y1="92.5" y2="92.5"/>
              <line style="fill:none;stroke:#000000;stroke-miterlimit:10;" x1="-32" x2="160" y1="96.5" y2="96.5"/>
              <line style="fill:none;stroke:#000000;stroke-miterlimit:10;" x1="-32" x2="160" y1="100.5" y2="100.5"/>
              <line style="fill:none;stroke:#000000;stroke-miterlimit:10;" x1="-32" x2="160" y1="104.5" y2="104.5"/>
              <line style="fill:none;stroke:#000000;stroke-miterlimit:10;" x1="-32" x2="160" y1="108.5" y2="108.5"/>
              <line style="fill:none;stroke:#000000;stroke-miterlimit:10;" x1="-32" x2="160" y1="112.5" y2="112.5"/>
              <line style="fill:none;stroke:#000000;stroke-miterlimit:10;" x1="-32" x2="160" y1="116.5" y2="116.5"/>
              <line style="fill:none;stroke:#000000;stroke-miterlimit:10;" x1="-32" x2="160" y1="120.5" y2="120.5"/>
              <line style="fill:none;stroke:#000000;stroke-miterlimit:10;" x1="-32" x2="160" y1="124.5" y2="124.5"/>
              <line style="fill:none;stroke:#000000;stroke-miterlimit:10;" x1="-32" x2="160" y1="128.5" y2="128.5"/>
              <line style="fill:none;stroke:#000000;stroke-miterlimit:10;" x1="-32" x2="160" y1="132.5" y2="132.5"/>
              <line style="fill:none;stroke:#000000;stroke-miterlimit:10;" x1="-32" x2="160" y1="136.5" y2="136.5"/>
              <line style="fill:none;stroke:#000000;stroke-miterlimit:10;" x1="-32" x2="160" y1="140.5" y2="140.5"/>
              <line style="fill:none;stroke:#000000;stroke-miterlimit:10;" x1="-32" x2="160" y1="144.5" y2="144.5"/>
              <line style="fill:none;stroke:#000000;stroke-miterlimit:10;" x1="-32" x2="160" y1="148.5" y2="148.5"/>
              <line style="fill:none;stroke:#000000;stroke-miterlimit:10;" x1="-32" x2="160" y1="152.5" y2="152.5"/>
              <line style="fill:none;stroke:#000000;stroke-miterlimit:10;" x1="-32" x2="160" y1="156.5" y2="156.5"/>
            </g>
            <path d="M160-32v192H-32V-32H160 M160-32H-32v192h192V-32L160-32z"/>
          </g>
        </g>
        <g>
          <rect height="128" style="opacity:0.3;fill:#F44336;" width="4" x="0"/>
          <rect height="128" style="opacity:0.3;fill:#F44336;" width="4" x="124"/>
          <rect height="120" style="opacity:0.3;fill:#F44336;" transform="matrix(-1.836970e-16 1 -1 -1.836970e-16 66 -62)" width="4" x="62" y="-58"/>
          <rect height="120" style="opacity:0.3;fill:#F44336;" transform="matrix(-1.836970e-16 1 -1 -1.836970e-16 190 62)" width="4" x="62" y="66"/>
        </g>
      </g>
    </g>
  </g>
</svg>