<svg width="128" height="128" style="enable-background:new 0 0 128 128;" xmlns="http://www.w3.org/2000/svg" xmlns:xlink="http://www.w3.org/1999/xlink">
  <g>
    <path d="M2.74,55c0,0,3.5,5.35,11,6.01c8.41,0.74,20.48,6.96,40.86,25.28s20.31,20.78,30.47,25.89 s14.86,6.23,20.7,0.76c5.84-5.47-20.1-21.93-39.25-32.06S32.35,60.33,23.85,58.49c-9.16-1.98-11.07,1.49-15.09-0.5S2.74,55,2.74,55 z" style="fill:#558B2F;"/>
    <g style="opacity:0.2;">
      <path d="M18.59,59.86c1.49,0.01,3.08,0.21,4.84,0.59c5.15,1.11,13.1,5.72,23.17,11.55 c5.66,3.28,12.08,7,18.99,10.65c21.97,11.61,38.38,23.48,39.01,28.22c0.04,0.32-0.02,0.45-0.19,0.61 c-2.31,2.16-4.26,3.08-6.54,3.08c-3.01,0-6.78-1.59-11.89-4.17c-6.34-3.19-8.48-5.25-14.81-11.37 c-3.41-3.29-8.08-7.81-15.22-14.23C36.6,67.42,25.52,61.74,18.59,59.86 M2.74,55c0,0,3.5,5.35,11,6.01 c8.41,0.74,20.48,6.96,40.86,25.28c20.38,18.32,20.31,20.78,30.47,25.89c5.52,2.78,9.44,4.38,12.79,4.38 c2.82,0,5.24-1.12,7.91-3.62c5.84-5.47-20.1-21.93-39.25-32.06C47.36,70.75,32.35,60.33,23.85,58.49 c-2.18-0.47-3.95-0.63-5.44-0.63c-3.25,0-5.14,0.77-6.99,0.77c-0.85,0-1.69-0.16-2.66-0.64C4.74,55.99,2.74,55,2.74,55L2.74,55z" style="fill:#424242;"/>
    </g>
  </g>
  <g>
    <linearGradient id="SVGID_1_" gradientTransform="matrix(-0.7071 0.7071 0.7071 0.7071 28.8272 -107.8859)" gradientUnits="userSpaceOnUse" x1="66.0175" x2="127.0175" y1="88.4966" y2="187.7466">
      <stop offset="0" style="stop-color:#FBC02D"/>
      <stop offset="1" style="stop-color:#F57C00"/>
    </linearGradient>
    <path d="M43.22,74.77C17.1,45.41,6.14,21.58,11.91,14.16c6.68-5.03,31.25,5.2,60.6,31.32 c28.23,25.11,38.77,47.55,30.38,59.67C90.04,114.27,68.33,103,43.22,74.77z" style="fill:url(#SVGID_1_);"/>
    <g>
      <g>
        <radialGradient id="SVGID_2_" cx="85.1332" cy="76.6906" gradientTransform="matrix(-0.7071 0.7071 0.7071 0.7071 28.8272 -107.8859)" gradientUnits="userSpaceOnUse" r="111.4385">
          <stop offset="0.0591" style="stop-color:#FFEE58"/>
          <stop offset="0.2654" style="stop-color:#FEE54F"/>
          <stop offset="0.6032" style="stop-color:#FCCC38"/>
          <stop offset="0.7439" style="stop-color:#FBC02D"/>
        </radialGradient>
        <path d="M33.37,37.39c0.64-0.68,0.96-1.02,1.62-1.64c0.71-0.67,0.26-2.17-0.98-3.31 c-0.21-0.19-0.31-0.29-0.52-0.48c-1.23-1.13-2.77-1.56-3.43-0.96c-0.61,0.56-0.91,0.87-1.48,1.51 c-0.62,0.69-0.19,2.23,0.95,3.45c0.19,0.21,0.29,0.31,0.49,0.52C31.16,37.7,32.68,38.13,33.37,37.39z" style="fill:url(#SVGID_2_);"/>
        <radialGradient id="SVGID_3_" cx="86.5073" cy="78.6922" gradientTransform="matrix(-0.7071 0.7071 0.7071 0.7071 28.8272 -107.8859)" gradientUnits="userSpaceOnUse" r="92.9038">
          <stop offset="0.0591" style="stop-color:#FFEE58"/>
          <stop offset="0.2654" style="stop-color:#FEE54F"/>
          <stop offset="0.6032" style="stop-color:#FCCC38"/>
          <stop offset="0.7439" style="stop-color:#FBC02D"/>
        </radialGradient>
        <path d="M28,31.93c0.56-0.63,0.86-0.94,1.46-1.49c0.65-0.59,0.25-1.93-0.89-2.96 c-0.19-0.17-0.29-0.26-0.48-0.43c-1.13-1.02-2.53-1.43-3.13-0.91c-0.56,0.48-0.81,0.76-1.31,1.35c-0.53,0.63-0.13,2.04,0.9,3.16 c0.17,0.19,0.26,0.28,0.44,0.47C26.03,32.23,27.39,32.61,28,31.93z" style="fill:url(#SVGID_3_);"/>
        <radialGradient id="SVGID_4_" cx="88.002" cy="80.073" gradientTransform="matrix(-0.7071 0.7071 0.7071 0.7071 28.8272 -107.8859)" gradientUnits="userSpaceOnUse" r="72.9461">
          <stop offset="0.0591" style="stop-color:#FFEE58"/>
          <stop offset="0.2654" style="stop-color:#FEE54F"/>
          <stop offset="0.6032" style="stop-color:#FCCC38"/>
          <stop offset="0.7439" style="stop-color:#FBC02D"/>
        </radialGradient>
        <path d="M23.14,26.95c0.49-0.58,0.74-0.86,1.29-1.33c0.59-0.51,0.23-1.68-0.79-2.59 c-0.17-0.15-0.26-0.23-0.43-0.38c-1.01-0.9-2.28-1.29-2.81-0.87c-0.49,0.4-0.71,0.65-1.12,1.17c-0.44,0.56-0.06,1.84,0.85,2.84 c0.15,0.17,0.23,0.26,0.39,0.43C21.43,27.23,22.62,27.57,23.14,26.95z" style="fill:url(#SVGID_4_);"/>
        <radialGradient id="SVGID_5_" cx="89.5909" cy="80.779" gradientTransform="matrix(-0.7071 0.7071 0.7071 0.7071 28.8272 -107.8859)" gradientUnits="userSpaceOnUse" r="54.299">
          <stop offset="0.0591" style="stop-color:#FFEE58"/>
          <stop offset="0.2654" style="stop-color:#FEE54F"/>
          <stop offset="0.6032" style="stop-color:#FCCC38"/>
          <stop offset="0.7439" style="stop-color:#FBC02D"/>
        </radialGradient>
        <path d="M18.82,22.48c0.4-0.52,0.62-0.76,1.1-1.15c0.52-0.42,0.21-1.41-0.7-2.21 c-0.15-0.13-0.23-0.2-0.38-0.33c-0.9-0.78-2.01-1.16-2.47-0.82c-0.43,0.31-0.6,0.52-0.93,0.98c-0.35,0.49,0.01,1.62,0.8,2.52 c0.13,0.15,0.2,0.23,0.34,0.38C17.38,22.74,18.39,23.03,18.82,22.48z" style="fill:url(#SVGID_5_);"/>
        <radialGradient id="SVGID_6_" cx="91.2472" cy="80.7581" gradientTransform="matrix(-0.7071 0.7071 0.7071 0.7071 28.8272 -107.8859)" gradientUnits="userSpaceOnUse" r="42.1899">
          <stop offset="0.0591" style="stop-color:#FFEE58"/>
          <stop offset="0.2654" style="stop-color:#FEE54F"/>
          <stop offset="0.6032" style="stop-color:#FCCC38"/>
          <stop offset="0.7439" style="stop-color:#FBC02D"/>
        </radialGradient>
        <path d="M15.06,18.53c0.31-0.45,0.48-0.66,0.9-0.96c0.45-0.32,0.18-1.14-0.6-1.81 c-0.13-0.11-0.2-0.17-0.33-0.28c-0.77-0.66-1.73-1.02-2.12-0.78c-0.36,0.22-0.49,0.4-0.72,0.79c-0.25,0.42,0.09,1.4,0.75,2.17 c0.11,0.13,0.17,0.2,0.28,0.33C13.89,18.77,14.72,19.02,15.06,18.53z" style="fill:url(#SVGID_6_);"/>
        <radialGradient id="SVGID_7_" cx="83.9058" cy="74.1226" gradientTransform="matrix(-0.7071 0.7071 0.7071 0.7071 28.8272 -107.8859)" gradientUnits="userSpaceOnUse" r="128">
          <stop offset="0.0591" style="stop-color:#FFEE58"/>
          <stop offset="0.2654" style="stop-color:#FEE54F"/>
          <stop offset="0.6032" style="stop-color:#FCCC38"/>
          <stop offset="0.7439" style="stop-color:#FBC02D"/>
        </radialGradient>
        <path d="M39.22,43.34c0.7-0.72,1.06-1.09,1.76-1.77c0.75-0.74,0.25-2.39-1.09-3.64 c-0.23-0.21-0.34-0.32-0.56-0.53c-1.33-1.24-2.99-1.7-3.7-1.02c-0.66,0.63-0.99,0.97-1.63,1.66c-0.69,0.74-0.24,2.4,1.01,3.72 c0.21,0.22,0.32,0.33,0.53,0.56C36.8,43.64,38.47,44.11,39.22,43.34z" style="fill:url(#SVGID_7_);"/>
        <radialGradient id="SVGID_8_" cx="82.8512" cy="71.0415" gradientTransform="matrix(-0.7071 0.7071 0.7071 0.7071 28.8272 -107.8859)" gradientUnits="userSpaceOnUse" r="142.7982">
          <stop offset="0.0591" style="stop-color:#FFEE58"/>
          <stop offset="0.2654" style="stop-color:#FEE54F"/>
          <stop offset="0.6032" style="stop-color:#FCCC38"/>
          <stop offset="0.7439" style="stop-color:#FBC02D"/>
        </radialGradient>
        <path d="M45.54,49.73c0.76-0.76,1.14-1.14,1.87-1.89c0.79-0.8,0.24-2.59-1.19-3.95 c-0.24-0.23-0.36-0.34-0.6-0.57c-1.42-1.35-3.19-1.83-3.95-1.09c-0.7,0.69-1.06,1.06-1.77,1.79c-0.76,0.78-0.28,2.56,1.08,3.97 c0.23,0.24,0.35,0.36,0.58,0.6C42.92,50.02,44.73,50.55,45.54,49.73z" style="fill:url(#SVGID_8_);"/>
        <radialGradient id="SVGID_9_" cx="81.9953" cy="67.3812" gradientTransform="matrix(-0.7071 0.7071 0.7071 0.7071 28.8272 -107.8859)" gradientUnits="userSpaceOnUse" r="156.4474">
          <stop offset="0.0591" style="stop-color:#FFEE58"/>
          <stop offset="0.2654" style="stop-color:#FEE54F"/>
          <stop offset="0.6032" style="stop-color:#FCCC38"/>
          <stop offset="0.7439" style="stop-color:#FBC02D"/>
        </radialGradient>
        <path d="M52.31,56.57c0.8-0.78,1.21-1.18,1.96-1.97c0.82-0.85,0.21-2.77-1.31-4.24 c-0.26-0.25-0.38-0.37-0.64-0.62c-1.51-1.46-3.38-1.97-4.17-1.17c-0.74,0.75-1.12,1.13-1.88,1.9c-0.82,0.82-0.31,2.69,1.15,4.2 c0.25,0.25,0.37,0.38,0.62,0.64C49.51,56.82,51.44,57.41,52.31,56.57z" style="fill:url(#SVGID_9_);"/>
        <radialGradient id="SVGID_10_" cx="81.3638" cy="64.1055" gradientTransform="matrix(-0.7071 0.7071 0.7071 0.7071 28.8272 -107.8859)" gradientUnits="userSpaceOnUse" r="167.0942">
          <stop offset="0.0591" style="stop-color:#FFEE58"/>
          <stop offset="0.2654" style="stop-color:#FEE54F"/>
          <stop offset="0.6032" style="stop-color:#FCCC38"/>
          <stop offset="0.7439" style="stop-color:#FBC02D"/>
        </radialGradient>
        <path d="M59.42,63.74c0.84-0.8,1.26-1.21,2.03-2.03c0.42-0.44,0.48-1.16,0.23-1.96 c-0.24-0.8-0.79-1.68-1.59-2.46c-0.27-0.26-0.41-0.4-0.68-0.66c-1.59-1.56-3.54-2.11-4.36-1.26c-0.76,0.79-1.16,1.2-1.97,1.98 c-0.87,0.84-0.33,2.81,1.23,4.4c0.26,0.27,0.4,0.41,0.66,0.67c0.78,0.8,1.66,1.34,2.46,1.57 C58.24,64.24,58.96,64.17,59.42,63.74z" style="fill:url(#SVGID_10_);"/>
        <radialGradient id="SVGID_11_" cx="81.0337" cy="67.7738" gradientTransform="matrix(-0.7071 0.7071 0.7071 0.7071 28.8272 -107.8859)" gradientUnits="userSpaceOnUse" r="162.07">
          <stop offset="0.0591" style="stop-color:#FFEE58"/>
          <stop offset="0.2654" style="stop-color:#FEE54F"/>
          <stop offset="0.6032" style="stop-color:#FCCC38"/>
          <stop offset="0.7439" style="stop-color:#FBC02D"/>
        </radialGradient>
        <path d="M66.23,70.6c0.86-0.8,1.29-1.21,2.06-2.06c0.83-0.91,0.33-2.83-1.16-4.31 c-0.25-0.25-0.38-0.38-0.63-0.63c-1.5-1.49-3.44-2.01-4.27-1.12c-0.77,0.83-1.19,1.24-2.04,2.04c-0.91,0.86-0.39,2.82,1.09,4.32 c0.25,0.25,0.38,0.38,0.62,0.63C63.38,70.96,65.3,71.45,66.23,70.6z" style="fill:url(#SVGID_11_);"/>
        <radialGradient id="SVGID_12_" cx="80.6633" cy="73.25" gradientTransform="matrix(-0.7071 0.7071 0.7071 0.7071 28.8272 -107.8859)" gradientUnits="userSpaceOnUse" r="153.7673">
          <stop offset="0.0591" style="stop-color:#FFEE58"/>
          <stop offset="0.2654" style="stop-color:#FEE54F"/>
          <stop offset="0.6032" style="stop-color:#FCCC38"/>
          <stop offset="0.7439" style="stop-color:#FBC02D"/>
        </radialGradient>
        <path d="M72.52,77.07c0.87-0.78,1.33-1.22,2.09-2.08c0.81-0.92,0.4-2.8-0.97-4.19 c-0.23-0.24-0.34-0.36-0.57-0.6c-1.38-1.4-3.22-1.84-4.05-0.93c-0.77,0.85-1.27,1.34-2.14,2.13c-0.93,0.85-0.59,2.79,0.81,4.19 c0.24,0.24,0.35,0.35,0.59,0.59C69.65,77.57,71.59,77.91,72.52,77.07z" style="fill:url(#SVGID_12_);"/>
        <radialGradient id="SVGID_13_" cx="81.3559" cy="79.5327" gradientTransform="matrix(-0.7071 0.7071 0.7071 0.7071 28.8272 -107.8859)" gradientUnits="userSpaceOnUse" r="143.8961">
          <stop offset="0.0591" style="stop-color:#FFEE58"/>
          <stop offset="0.2654" style="stop-color:#FEE54F"/>
          <stop offset="0.6032" style="stop-color:#FCCC38"/>
          <stop offset="0.7439" style="stop-color:#FBC02D"/>
        </radialGradient>
        <path d="M78.51,82.91c0.86-0.75,1.28-1.14,2-1.98c0.78-0.91,0.41-2.68-0.85-3.99 c-0.21-0.22-0.32-0.33-0.53-0.55c-1.27-1.31-3-1.66-3.81-0.75c-0.75,0.85-1.18,1.26-2.05,2.03c-0.93,0.83-0.6,2.58,0.7,3.86 c0.22,0.22,0.33,0.32,0.55,0.54C75.82,83.34,77.59,83.71,78.51,82.91z" style="fill:url(#SVGID_13_);"/>
        <radialGradient id="SVGID_14_" cx="81.9979" cy="86.6777" gradientTransform="matrix(-0.7071 0.7071 0.7071 0.7071 28.8272 -107.8859)" gradientUnits="userSpaceOnUse" r="133.3596">
          <stop offset="0.0591" style="stop-color:#FFEE58"/>
          <stop offset="0.2654" style="stop-color:#FEE54F"/>
          <stop offset="0.6032" style="stop-color:#FCCC38"/>
          <stop offset="0.7439" style="stop-color:#FBC02D"/>
        </radialGradient>
        <path d="M83.96,88.32c0.83-0.7,1.24-1.07,1.92-1.89c0.73-0.88,0.41-2.56-0.74-3.77 c-0.19-0.2-0.29-0.31-0.48-0.51c-1.15-1.21-2.75-1.5-3.52-0.59c-0.72,0.84-1.14,1.23-1.99,1.97c-0.92,0.8-0.66,2.42,0.55,3.58 c0.2,0.2,0.3,0.29,0.51,0.49C81.39,88.76,83.07,89.07,83.96,88.32z" style="fill:url(#SVGID_14_);"/>
        <radialGradient id="SVGID_15_" cx="82.9469" cy="94.7249" gradientTransform="matrix(-0.7071 0.7071 0.7071 0.7071 28.8272 -107.8859)" gradientUnits="userSpaceOnUse" r="122.0791">
          <stop offset="0.0591" style="stop-color:#FFEE58"/>
          <stop offset="0.2654" style="stop-color:#FEE54F"/>
          <stop offset="0.6032" style="stop-color:#FCCC38"/>
          <stop offset="0.7439" style="stop-color:#FBC02D"/>
        </radialGradient>
        <path d="M88.93,93.21c0.79-0.64,1.18-0.98,1.8-1.76c0.66-0.84,0.38-2.4-0.64-3.51 c-0.17-0.19-0.26-0.28-0.43-0.47c-1.03-1.11-2.48-1.34-3.21-0.46c-0.67,0.81-1.08,1.19-1.91,1.88 c-0.89,0.74-0.69,2.22,0.41,3.26c0.19,0.18,0.28,0.26,0.46,0.44C86.51,93.62,88.08,93.9,88.93,93.21z" style="fill:url(#SVGID_15_);"/>
        <radialGradient id="SVGID_16_" cx="84.1887" cy="103.7119" gradientTransform="matrix(-0.7071 0.7071 0.7071 0.7071 28.8272 -107.8859)" gradientUnits="userSpaceOnUse" r="110.1642">
          <stop offset="0.0591" style="stop-color:#FFEE58"/>
          <stop offset="0.2654" style="stop-color:#FEE54F"/>
          <stop offset="0.6032" style="stop-color:#FCCC38"/>
          <stop offset="0.7439" style="stop-color:#FBC02D"/>
        </radialGradient>
        <path d="M93.41,97.57c0.74-0.56,1.1-0.87,1.64-1.6c0.58-0.78,0.33-2.22-0.57-3.22 c-0.15-0.17-0.23-0.25-0.38-0.42c-0.91-1.01-2.2-1.18-2.86-0.35c-0.61,0.77-0.99,1.12-1.78,1.74c-0.85,0.68-0.7,1.99,0.3,2.91 c0.17,0.16,0.25,0.23,0.42,0.39C91.17,97.92,92.61,98.17,93.41,97.57z" style="fill:url(#SVGID_16_);"/>
        <radialGradient id="SVGID_17_" cx="85.7084" cy="113.672" gradientTransform="matrix(-0.7071 0.7071 0.7071 0.7071 28.8272 -107.8859)" gradientUnits="userSpaceOnUse" r="97.6971">
          <stop offset="0.0591" style="stop-color:#FFEE58"/>
          <stop offset="0.2654" style="stop-color:#FEE54F"/>
          <stop offset="0.6032" style="stop-color:#FCCC38"/>
          <stop offset="0.7439" style="stop-color:#FBC02D"/>
        </radialGradient>
        <path d="M97.38,101.36c0.67-0.47,1-0.74,1.45-1.4c0.49-0.71,0.25-2-0.52-2.89 c-0.13-0.15-0.2-0.23-0.33-0.38c-0.79-0.9-1.91-1.03-2.48-0.25c-0.53,0.72-0.89,1.03-1.62,1.58c-0.79,0.59-0.68,1.73,0.22,2.52 c0.15,0.13,0.23,0.2,0.38,0.33C95.35,101.64,96.65,101.87,97.38,101.36z" style="fill:url(#SVGID_17_);"/>
        <radialGradient id="SVGID_18_" cx="87.4905" cy="124.6308" gradientTransform="matrix(-0.7071 0.7071 0.7071 0.7071 28.8272 -107.8859)" gradientUnits="userSpaceOnUse" r="84.7453">
          <stop offset="0.0591" style="stop-color:#FFEE58"/>
          <stop offset="0.2654" style="stop-color:#FEE54F"/>
          <stop offset="0.6032" style="stop-color:#FCCC38"/>
          <stop offset="0.7439" style="stop-color:#FBC02D"/>
        </radialGradient>
        <path d="M100.83,104.58c0.6-0.37,0.88-0.59,1.23-1.16c0.38-0.62,0.15-1.75-0.5-2.53 c-0.11-0.13-0.17-0.2-0.28-0.33c-0.66-0.79-1.59-0.88-2.07-0.18c-0.44,0.65-0.76,0.91-1.43,1.37c-0.72,0.49-0.64,1.43,0.15,2.09 c0.13,0.11,0.2,0.17,0.33,0.28C99.05,104.76,100.19,104.97,100.83,104.58z" style="fill:url(#SVGID_18_);"/>
      </g>
      <g>
        <radialGradient id="SVGID_19_" cx="85.112" cy="76.4962" gradientTransform="matrix(-0.7071 0.7071 0.7071 0.7071 28.8272 -107.8859)" gradientUnits="userSpaceOnUse" r="103.37">
          <stop offset="0.0591" style="stop-color:#FFEE58"/>
          <stop offset="0.2654" style="stop-color:#FEE54F"/>
          <stop offset="0.6032" style="stop-color:#FCCC38"/>
          <stop offset="0.7439" style="stop-color:#FBC02D"/>
        </radialGradient>
        <path d="M29,42.79c0.52-0.75,0.79-1.12,1.36-1.85c0.6-0.78,0.16-2.46-0.98-3.7 c-0.19-0.21-0.29-0.31-0.48-0.52c-1.13-1.23-2.47-1.6-2.99-0.85c-0.49,0.7-0.72,1.06-1.16,1.78c-0.48,0.78-0.06,2.45,0.95,3.72 c0.17,0.21,0.26,0.32,0.43,0.54C27.13,43.19,28.44,43.59,29,42.79z" style="fill:url(#SVGID_19_);"/>
        <radialGradient id="SVGID_20_" cx="86.3582" cy="78.6547" gradientTransform="matrix(-0.7071 0.7071 0.7071 0.7071 28.8272 -107.8859)" gradientUnits="userSpaceOnUse" r="86.8398">
          <stop offset="0.0591" style="stop-color:#FFEE58"/>
          <stop offset="0.2654" style="stop-color:#FEE54F"/>
          <stop offset="0.6032" style="stop-color:#FCCC38"/>
          <stop offset="0.7439" style="stop-color:#FBC02D"/>
        </radialGradient>
        <path d="M24.24,37.03c0.43-0.72,0.66-1.08,1.14-1.78c0.51-0.75,0.09-2.3-0.93-3.44 c-0.17-0.19-0.26-0.29-0.43-0.48c-1.01-1.13-2.18-1.46-2.61-0.75c-0.4,0.66-0.58,1-0.93,1.7c-0.38,0.75,0.03,2.32,0.91,3.49 c0.15,0.2,0.22,0.3,0.37,0.5C22.65,37.47,23.78,37.81,24.24,37.03z" style="fill:url(#SVGID_20_);"/>
        <radialGradient id="SVGID_21_" cx="87.7139" cy="80.4192" gradientTransform="matrix(-0.7071 0.7071 0.7071 0.7071 28.8272 -107.8859)" gradientUnits="userSpaceOnUse" r="70.0745">
          <stop offset="0.0591" style="stop-color:#FFEE58"/>
          <stop offset="0.2654" style="stop-color:#FEE54F"/>
          <stop offset="0.6032" style="stop-color:#FCCC38"/>
          <stop offset="0.7439" style="stop-color:#FBC02D"/>
        </radialGradient>
        <path d="M20.04,31.73c0.34-0.69,0.52-1.03,0.91-1.69c0.42-0.7,0.01-2.13-0.89-3.16 c-0.15-0.17-0.23-0.26-0.38-0.43c-0.89-1.02-1.88-1.3-2.21-0.64c-0.3,0.62-0.44,0.93-0.69,1.59c-0.27,0.71,0.12,2.16,0.87,3.24 c0.13,0.18,0.19,0.27,0.32,0.46C18.75,32.18,19.68,32.47,20.04,31.73z" style="fill:url(#SVGID_21_);"/>
        <radialGradient id="SVGID_22_" cx="89.1474" cy="81.7688" gradientTransform="matrix(-0.7071 0.7071 0.7071 0.7071 28.8272 -107.8859)" gradientUnits="userSpaceOnUse" r="55.0682">
          <stop offset="0.0591" style="stop-color:#FFEE58"/>
          <stop offset="0.2654" style="stop-color:#FEE54F"/>
          <stop offset="0.6032" style="stop-color:#FCCC38"/>
          <stop offset="0.7439" style="stop-color:#FBC02D"/>
        </radialGradient>
        <path d="M16.42,26.89c0.24-0.66,0.37-0.97,0.66-1.58c0.31-0.66-0.07-1.95-0.84-2.86 c-0.13-0.15-0.2-0.23-0.33-0.38c-0.76-0.91-1.57-1.15-1.79-0.54c-0.2,0.57-0.29,0.86-0.43,1.48c-0.15,0.66,0.22,2,0.84,2.97 c0.1,0.16,0.16,0.25,0.26,0.41C15.43,27.36,16.16,27.59,16.42,26.89z" style="fill:url(#SVGID_22_);"/>
        <radialGradient id="SVGID_23_" cx="90.6222" cy="82.7058" gradientTransform="matrix(-0.7071 0.7071 0.7071 0.7071 28.8272 -107.8859)" gradientUnits="userSpaceOnUse" r="44.6128">
          <stop offset="0.0591" style="stop-color:#FFEE58"/>
          <stop offset="0.2654" style="stop-color:#FEE54F"/>
          <stop offset="0.6032" style="stop-color:#FCCC38"/>
          <stop offset="0.7439" style="stop-color:#FBC02D"/>
        </radialGradient>
        <path d="M13.38,22.54c0.13-0.61,0.21-0.91,0.4-1.47c0.21-0.6-0.16-1.75-0.8-2.55 c-0.11-0.14-0.16-0.2-0.27-0.34c-0.64-0.79-1.25-0.98-1.35-0.43c-0.1,0.51-0.13,0.79-0.17,1.36c-0.04,0.62,0.33,1.83,0.82,2.68 c0.08,0.14,0.12,0.22,0.21,0.36C12.71,23.03,13.24,23.2,13.38,22.54z" style="fill:url(#SVGID_23_);"/>
        <radialGradient id="SVGID_24_" cx="84.0046" cy="73.9776" gradientTransform="matrix(-0.7071 0.7071 0.7071 0.7071 28.8272 -107.8859)" gradientUnits="userSpaceOnUse" r="118.7475">
          <stop offset="0.0591" style="stop-color:#FFEE58"/>
          <stop offset="0.2654" style="stop-color:#FEE54F"/>
          <stop offset="0.6032" style="stop-color:#FCCC38"/>
          <stop offset="0.7439" style="stop-color:#FBC02D"/>
        </radialGradient>
        <path d="M34.31,48.96c0.6-0.77,0.92-1.15,1.55-1.91c0.69-0.81,0.21-2.59-1.04-3.93 c-0.21-0.23-0.32-0.34-0.52-0.56c-1.24-1.33-2.74-1.75-3.35-0.96c-0.57,0.73-0.85,1.1-1.38,1.86c-0.57,0.81-0.13,2.57,0.99,3.93 c0.19,0.23,0.29,0.34,0.48,0.58C32.18,49.32,33.66,49.78,34.31,48.96z" style="fill:url(#SVGID_24_);"/>
        <radialGradient id="SVGID_25_" cx="83.0639" cy="71.1398" gradientTransform="matrix(-0.7071 0.7071 0.7071 0.7071 28.8272 -107.8859)" gradientUnits="userSpaceOnUse" r="132.7218">
          <stop offset="0.0591" style="stop-color:#FFEE58"/>
          <stop offset="0.2654" style="stop-color:#FEE54F"/>
          <stop offset="0.6032" style="stop-color:#FCCC38"/>
          <stop offset="0.7439" style="stop-color:#FBC02D"/>
        </radialGradient>
        <path d="M40.14,55.52c0.68-0.78,1.02-1.17,1.73-1.94c0.76-0.83,0.25-2.71-1.1-4.14 c-0.23-0.24-0.34-0.36-0.57-0.6c-1.35-1.42-3-1.89-3.69-1.08c-0.65,0.76-0.96,1.14-1.57,1.91c-0.66,0.83-0.2,2.67,1.05,4.11 c0.21,0.24,0.32,0.37,0.53,0.61C37.77,55.83,39.41,56.36,40.14,55.52z" style="fill:url(#SVGID_25_);"/>
        <radialGradient id="SVGID_26_" cx="82.3169" cy="68.0282" gradientTransform="matrix(-0.7071 0.7071 0.7071 0.7071 28.8272 -107.8859)" gradientUnits="userSpaceOnUse" r="145.3416">
          <stop offset="0.0591" style="stop-color:#FFEE58"/>
          <stop offset="0.2654" style="stop-color:#FEE54F"/>
          <stop offset="0.6032" style="stop-color:#FCCC38"/>
          <stop offset="0.7439" style="stop-color:#FBC02D"/>
        </radialGradient>
        <path d="M46.49,62.45c0.74-0.78,1.12-1.17,1.88-1.95c0.82-0.84,0.28-2.8-1.18-4.32 c-0.25-0.26-0.37-0.38-0.61-0.64c-1.45-1.51-3.24-2.04-4.01-1.2c-0.71,0.77-1.06,1.16-1.75,1.94c-0.74,0.84-0.25,2.74,1.12,4.26 c0.23,0.26,0.35,0.38,0.58,0.64C43.89,62.7,45.7,63.29,46.49,62.45z" style="fill:url(#SVGID_26_);"/>
        <radialGradient id="SVGID_27_" cx="81.7905" cy="65.2056" gradientTransform="matrix(-0.7071 0.7071 0.7071 0.7071 28.8272 -107.8859)" gradientUnits="userSpaceOnUse" r="155.7233">
          <stop offset="0.0591" style="stop-color:#FFEE58"/>
          <stop offset="0.2654" style="stop-color:#FEE54F"/>
          <stop offset="0.6032" style="stop-color:#FCCC38"/>
          <stop offset="0.7439" style="stop-color:#FBC02D"/>
        </radialGradient>
        <path d="M53.27,69.63c0.79-0.77,1.2-1.16,2.01-1.94c0.87-0.84,0.36-2.8-1.19-4.39 c-0.26-0.27-0.39-0.41-0.66-0.68c-1.55-1.6-3.47-2.18-4.3-1.34c-0.77,0.78-1.15,1.17-1.9,1.95c-0.8,0.84-0.28,2.8,1.2,4.39 c0.25,0.27,0.38,0.4,0.63,0.67C50.54,69.88,52.41,70.46,53.27,69.63z" style="fill:url(#SVGID_27_);"/>
        <radialGradient id="SVGID_28_" cx="81.5752" cy="68.4184" gradientTransform="matrix(-0.7071 0.7071 0.7071 0.7071 28.8272 -107.8859)" gradientUnits="userSpaceOnUse" r="153.397">
          <stop offset="0.0591" style="stop-color:#FFEE58"/>
          <stop offset="0.2654" style="stop-color:#FEE54F"/>
          <stop offset="0.6032" style="stop-color:#FCCC38"/>
          <stop offset="0.7439" style="stop-color:#FBC02D"/>
        </radialGradient>
        <path d="M59.86,76.39c0.83-0.75,1.25-1.12,2.09-1.89c0.91-0.82,0.49-2.68-0.98-4.17 c-0.25-0.25-0.37-0.38-0.62-0.63c-1.47-1.5-3.44-2.07-4.32-1.23c-0.81,0.78-1.22,1.17-2.02,1.94c-0.86,0.83-0.36,2.74,1.06,4.21 c0.24,0.25,0.36,0.37,0.6,0.62C57.1,76.69,58.96,77.19,59.86,76.39z" style="fill:url(#SVGID_28_);"/>
        <radialGradient id="SVGID_29_" cx="81.665" cy="72.8608" gradientTransform="matrix(-0.7071 0.7071 0.7071 0.7071 28.8272 -107.8859)" gradientUnits="userSpaceOnUse" r="148.0397">
          <stop offset="0.0591" style="stop-color:#FFEE58"/>
          <stop offset="0.2654" style="stop-color:#FEE54F"/>
          <stop offset="0.6032" style="stop-color:#FCCC38"/>
          <stop offset="0.7439" style="stop-color:#FBC02D"/>
        </radialGradient>
        <path d="M66.12,82.57c0.86-0.71,1.28-1.06,2.14-1.79c0.92-0.78,0.59-2.53-0.79-3.9 c-0.23-0.23-0.35-0.35-0.58-0.58c-1.39-1.39-3.31-1.88-4.22-1.06c-0.85,0.76-1.27,1.14-2.1,1.88c-0.9,0.8-0.49,2.58,0.87,3.91 c0.23,0.23,0.34,0.34,0.57,0.56C63.37,82.9,65.2,83.33,66.12,82.57z" style="fill:url(#SVGID_29_);"/>
        <radialGradient id="SVGID_30_" cx="82.0174" cy="77.8714" gradientTransform="matrix(-0.7071 0.7071 0.7071 0.7071 28.8272 -107.8859)" gradientUnits="userSpaceOnUse" r="141.319">
          <stop offset="0.0591" style="stop-color:#FFEE58"/>
          <stop offset="0.2654" style="stop-color:#FEE54F"/>
          <stop offset="0.6032" style="stop-color:#FCCC38"/>
          <stop offset="0.7439" style="stop-color:#FBC02D"/>
        </radialGradient>
        <path d="M72.05,88.15c0.86-0.65,1.29-0.98,2.16-1.66c0.93-0.73,0.66-2.34-0.63-3.6 c-0.22-0.21-0.33-0.32-0.55-0.53c-1.3-1.27-3.15-1.69-4.08-0.91c-0.86,0.72-1.29,1.08-2.15,1.78c-0.92,0.75-0.59,2.38,0.7,3.57 c0.22,0.2,0.33,0.3,0.54,0.5C69.33,88.48,71.12,88.85,72.05,88.15z" style="fill:url(#SVGID_30_);"/>
        <radialGradient id="SVGID_31_" cx="82.6766" cy="83.461" gradientTransform="matrix(-0.7071 0.7071 0.7071 0.7071 28.8272 -107.8859)" gradientUnits="userSpaceOnUse" r="133.5307">
          <stop offset="0.0591" style="stop-color:#FFEE58"/>
          <stop offset="0.2654" style="stop-color:#FEE54F"/>
          <stop offset="0.6032" style="stop-color:#FCCC38"/>
          <stop offset="0.7439" style="stop-color:#FBC02D"/>
        </radialGradient>
        <path d="M77.61,93.12c0.86-0.58,1.28-0.88,2.13-1.49c0.91-0.66,0.71-2.12-0.49-3.26 c-0.2-0.19-0.3-0.29-0.51-0.48c-1.21-1.15-2.98-1.51-3.91-0.79c-0.86,0.67-1.29,1-2.15,1.65c-0.93,0.69-0.66,2.14,0.56,3.2 c0.21,0.18,0.31,0.27,0.51,0.44C74.97,93.42,76.69,93.74,77.61,93.12z" style="fill:url(#SVGID_31_);"/>
        <radialGradient id="SVGID_32_" cx="83.6257" cy="89.6261" gradientTransform="matrix(-0.7071 0.7071 0.7071 0.7071 28.8272 -107.8859)" gradientUnits="userSpaceOnUse" r="124.9319">
          <stop offset="0.0591" style="stop-color:#FFEE58"/>
          <stop offset="0.2654" style="stop-color:#FEE54F"/>
          <stop offset="0.6032" style="stop-color:#FCCC38"/>
          <stop offset="0.7439" style="stop-color:#FBC02D"/>
        </radialGradient>
        <path d="M82.81,97.45c0.83-0.49,1.25-0.75,2.07-1.29c0.88-0.58,0.73-1.88-0.37-2.89 c-0.19-0.17-0.28-0.26-0.47-0.43c-1.11-1.03-2.79-1.34-3.7-0.69c-0.85,0.61-1.27,0.9-2.12,1.47c-0.92,0.61-0.71,1.88,0.44,2.79 c0.19,0.15,0.29,0.23,0.48,0.38C80.27,97.7,81.91,97.98,82.81,97.45z" style="fill:url(#SVGID_32_);"/>
        <radialGradient id="SVGID_33_" cx="84.8443" cy="96.3392" gradientTransform="matrix(-0.7071 0.7071 0.7071 0.7071 28.8272 -107.8859)" gradientUnits="userSpaceOnUse" r="115.7385">
          <stop offset="0.0591" style="stop-color:#FFEE58"/>
          <stop offset="0.2654" style="stop-color:#FEE54F"/>
          <stop offset="0.6032" style="stop-color:#FCCC38"/>
          <stop offset="0.7439" style="stop-color:#FBC02D"/>
        </radialGradient>
        <path d="M87.62,101.14c0.8-0.39,1.19-0.6,1.97-1.05c0.84-0.48,0.73-1.6-0.28-2.48 c-0.17-0.15-0.25-0.23-0.43-0.38c-1.01-0.9-2.59-1.18-3.46-0.61c-0.82,0.53-1.23,0.78-2.06,1.27c-0.89,0.52-0.73,1.58,0.33,2.35 c0.18,0.13,0.27,0.19,0.45,0.32C85.21,101.31,86.76,101.57,87.62,101.14z" style="fill:url(#SVGID_33_);"/>
        <radialGradient id="SVGID_34_" cx="86.307" cy="103.5322" gradientTransform="matrix(-0.7071 0.7071 0.7071 0.7071 28.8272 -107.8859)" gradientUnits="userSpaceOnUse" r="106.1574">
          <stop offset="0.0591" style="stop-color:#FFEE58"/>
          <stop offset="0.2654" style="stop-color:#FEE54F"/>
          <stop offset="0.6032" style="stop-color:#FCCC38"/>
          <stop offset="0.7439" style="stop-color:#FBC02D"/>
        </radialGradient>
        <path d="M92.02,104.17c0.75-0.28,1.12-0.43,1.84-0.78c0.78-0.37,0.7-1.29-0.2-2.04 c-0.15-0.13-0.23-0.19-0.38-0.32c-0.91-0.77-2.36-1.01-3.19-0.54c-0.77,0.44-1.17,0.64-1.96,1.02 c-0.85,0.41-0.73,1.26,0.25,1.87c0.17,0.1,0.25,0.15,0.41,0.26C89.77,104.24,91.22,104.47,92.02,104.17z" style="fill:url(#SVGID_34_);"/>
        <radialGradient id="SVGID_35_" cx="87.9784" cy="111.0645" gradientTransform="matrix(-0.7071 0.7071 0.7071 0.7071 28.8272 -107.8859)" gradientUnits="userSpaceOnUse" r="96.4268">
          <stop offset="0.0591" style="stop-color:#FFEE58"/>
          <stop offset="0.2654" style="stop-color:#FEE54F"/>
          <stop offset="0.6032" style="stop-color:#FCCC38"/>
          <stop offset="0.7439" style="stop-color:#FBC02D"/>
        </radialGradient>
        <path d="M96.01,106.52c0.69-0.15,1.02-0.25,1.68-0.47c0.71-0.24,0.65-0.95-0.15-1.56 c-0.13-0.1-0.2-0.16-0.34-0.26c-0.81-0.63-2.12-0.86-2.89-0.5c-0.72,0.33-1.08,0.48-1.83,0.74c-0.8,0.29-0.7,0.9,0.19,1.36 c0.15,0.08,0.23,0.12,0.38,0.19C93.95,106.46,95.27,106.69,96.01,106.52z" style="fill:url(#SVGID_35_);"/>
      </g>
      <g>
        <radialGradient id="SVGID_36_" cx="85.3133" cy="76.4344" gradientTransform="matrix(-0.7071 0.7071 0.7071 0.7071 28.8272 -107.8859)" gradientUnits="userSpaceOnUse" r="128.1498">
          <stop offset="0.0591" style="stop-color:#FFEE58"/>
          <stop offset="0.2654" style="stop-color:#FEE54F"/>
          <stop offset="0.6032" style="stop-color:#FCCC38"/>
          <stop offset="0.7439" style="stop-color:#FBC02D"/>
        </radialGradient>
        <path d="M38.43,32.81c0.72-0.55,1.08-0.82,1.83-1.33c0.8-0.55,0.39-1.85-0.9-2.85 c-0.22-0.17-0.33-0.25-0.54-0.42c-1.28-0.99-2.96-1.41-3.74-0.94c-0.72,0.44-1.08,0.66-1.77,1.14c-0.74,0.51-0.34,1.83,0.9,2.95 c0.21,0.19,0.31,0.28,0.53,0.47C35.99,32.95,37.66,33.4,38.43,32.81z" style="fill:url(#SVGID_36_);"/>
        <radialGradient id="SVGID_37_" cx="86.628" cy="78.583" gradientTransform="matrix(-0.7071 0.7071 0.7071 0.7071 28.8272 -107.8859)" gradientUnits="userSpaceOnUse" r="111.7206">
          <stop offset="0.0591" style="stop-color:#FFEE58"/>
          <stop offset="0.2654" style="stop-color:#FEE54F"/>
          <stop offset="0.6032" style="stop-color:#FCCC38"/>
          <stop offset="0.7439" style="stop-color:#FBC02D"/>
        </radialGradient>
        <path d="M32.7,27.88c0.68-0.47,1.04-0.69,1.76-1.12c0.78-0.46,0.42-1.56-0.77-2.45 c-0.2-0.15-0.3-0.22-0.5-0.37c-1.19-0.87-2.76-1.27-3.51-0.91c-0.69,0.34-1.03,0.52-1.68,0.91c-0.7,0.42-0.34,1.57,0.79,2.57 c0.19,0.17,0.29,0.25,0.48,0.42C30.41,27.96,31.96,28.38,32.7,27.88z" style="fill:url(#SVGID_37_);"/>
        <radialGradient id="SVGID_38_" cx="88.0614" cy="80.3473" gradientTransform="matrix(-0.7071 0.7071 0.7071 0.7071 28.8272 -107.8859)" gradientUnits="userSpaceOnUse" r="89.876">
          <stop offset="0.0591" style="stop-color:#FFEE58"/>
          <stop offset="0.2654" style="stop-color:#FEE54F"/>
          <stop offset="0.6032" style="stop-color:#FCCC38"/>
          <stop offset="0.7439" style="stop-color:#FBC02D"/>
        </radialGradient>
        <path d="M27.43,23.49c0.64-0.38,0.98-0.55,1.67-0.88c0.74-0.35,0.45-1.27-0.65-2.03 c-0.18-0.13-0.28-0.19-0.46-0.32c-1.08-0.74-2.55-1.14-3.26-0.88c-0.66,0.24-0.97,0.37-1.58,0.66 c-0.65,0.31-0.34,1.29,0.69,2.17c0.17,0.15,0.26,0.22,0.44,0.38C25.32,23.49,26.74,23.9,27.43,23.49z" style="fill:url(#SVGID_38_);"/>
        <radialGradient id="SVGID_39_" cx="89.5864" cy="81.7043" gradientTransform="matrix(-0.7071 0.7071 0.7071 0.7071 28.8272 -107.8859)" gradientUnits="userSpaceOnUse" r="61.6371">
          <stop offset="0.0591" style="stop-color:#FFEE58"/>
          <stop offset="0.2654" style="stop-color:#FEE54F"/>
          <stop offset="0.6032" style="stop-color:#FCCC38"/>
          <stop offset="0.7439" style="stop-color:#FBC02D"/>
        </radialGradient>
        <path d="M22.65,19.65c0.6-0.28,0.91-0.41,1.56-0.63c0.7-0.24,0.47-0.96-0.52-1.59 c-0.17-0.11-0.25-0.16-0.41-0.26c-0.98-0.62-2.32-1-2.98-0.86c-0.62,0.13-0.91,0.21-1.46,0.41c-0.6,0.21-0.34,1,0.58,1.76 c0.15,0.13,0.23,0.19,0.39,0.32C20.72,19.56,22.01,19.95,22.65,19.65z" style="fill:url(#SVGID_39_);"/>
        <radialGradient id="SVGID_40_" cx="91.1747" cy="82.654" gradientTransform="matrix(-0.7071 0.7071 0.7071 0.7071 28.8272 -107.8859)" gradientUnits="userSpaceOnUse" r="44.3044">
          <stop offset="0.0591" style="stop-color:#FFEE58"/>
          <stop offset="0.2654" style="stop-color:#FEE54F"/>
          <stop offset="0.6032" style="stop-color:#FCCC38"/>
          <stop offset="0.7439" style="stop-color:#FBC02D"/>
        </radialGradient>
        <path d="M18.39,16.37c0.55-0.18,0.84-0.26,1.45-0.38c0.66-0.13,0.49-0.65-0.38-1.15 c-0.15-0.08-0.22-0.13-0.36-0.21c-0.86-0.49-2.07-0.87-2.68-0.85c-0.57,0.02-0.84,0.05-1.34,0.14c-0.54,0.1-0.33,0.7,0.46,1.34 c0.13,0.11,0.2,0.16,0.34,0.27C16.67,16.19,17.8,16.56,18.39,16.37z" style="fill:url(#SVGID_40_);"/>
        <radialGradient id="SVGID_41_" cx="84.1438" cy="73.9367" gradientTransform="matrix(-0.7071 0.7071 0.7071 0.7071 28.8272 -107.8859)" gradientUnits="userSpaceOnUse" r="141.4754">
          <stop offset="0.0591" style="stop-color:#FFEE58"/>
          <stop offset="0.2654" style="stop-color:#FEE54F"/>
          <stop offset="0.6032" style="stop-color:#FCCC38"/>
          <stop offset="0.7439" style="stop-color:#FBC02D"/>
        </radialGradient>
        <path d="M44.6,38.26c0.74-0.63,1.12-0.93,1.88-1.53c0.82-0.64,0.35-2.11-1.03-3.24 c-0.23-0.19-0.35-0.29-0.58-0.47c-1.37-1.12-3.14-1.55-3.94-0.98c-0.75,0.53-1.12,0.8-1.84,1.36c-0.78,0.6-0.33,2.09,1.01,3.31 c0.23,0.21,0.34,0.31,0.57,0.52C42.02,38.46,43.8,38.94,44.6,38.26z" style="fill:url(#SVGID_41_);"/>
        <radialGradient id="SVGID_42_" cx="83.1454" cy="71.1319" gradientTransform="matrix(-0.7071 0.7071 0.7071 0.7071 28.8272 -107.8859)" gradientUnits="userSpaceOnUse" r="152.9618">
          <stop offset="0.0591" style="stop-color:#FFEE58"/>
          <stop offset="0.2654" style="stop-color:#FEE54F"/>
          <stop offset="0.6032" style="stop-color:#FCCC38"/>
          <stop offset="0.7439" style="stop-color:#FBC02D"/>
        </radialGradient>
        <path d="M51.16,44.23c0.76-0.7,1.14-1.04,1.92-1.71c0.83-0.72,0.3-2.36-1.16-3.61 c-0.25-0.21-0.37-0.32-0.61-0.52c-1.45-1.24-3.29-1.69-4.12-1.04c-0.77,0.61-1.14,0.92-1.89,1.55c-0.8,0.68-0.3,2.32,1.13,3.66 c0.24,0.23,0.36,0.34,0.61,0.57C48.48,44.47,50.35,44.98,51.16,44.23z" style="fill:url(#SVGID_42_);"/>
        <radialGradient id="SVGID_43_" cx="82.3441" cy="68.0662" gradientTransform="matrix(-0.7071 0.7071 0.7071 0.7071 28.8272 -107.8859)" gradientUnits="userSpaceOnUse" r="163.2308">
          <stop offset="0.0591" style="stop-color:#FFEE58"/>
          <stop offset="0.2654" style="stop-color:#FEE54F"/>
          <stop offset="0.6032" style="stop-color:#FCCC38"/>
          <stop offset="0.7439" style="stop-color:#FBC02D"/>
        </radialGradient>
        <path d="M58.11,50.71c0.77-0.76,1.15-1.13,1.93-1.87c0.83-0.79,0.24-2.59-1.29-3.96 c-0.26-0.23-0.39-0.35-0.64-0.58c-1.52-1.36-3.43-1.84-4.26-1.11c-0.77,0.68-1.16,1.03-1.92,1.73 c-0.82,0.76-0.27,2.54,1.25,3.98c0.26,0.24,0.38,0.37,0.64,0.61C55.33,50.98,57.28,51.53,58.11,50.71z" style="fill:url(#SVGID_43_);"/>
        <radialGradient id="SVGID_44_" cx="81.7654" cy="65.164" gradientTransform="matrix(-0.7071 0.7071 0.7071 0.7071 28.8272 -107.8859)" gradientUnits="userSpaceOnUse" r="171.6798">
          <stop offset="0.0591" style="stop-color:#FFEE58"/>
          <stop offset="0.2654" style="stop-color:#FEE54F"/>
          <stop offset="0.6032" style="stop-color:#FCCC38"/>
          <stop offset="0.7439" style="stop-color:#FBC02D"/>
        </radialGradient>
        <path d="M65.31,57.61c0.77-0.8,1.15-1.2,1.91-2c0.82-0.85,0.24-2.73-1.35-4.21 c-0.27-0.25-0.4-0.38-0.67-0.63c-1.59-1.48-3.54-2-4.37-1.2c-0.77,0.75-1.16,1.12-1.93,1.88c-0.83,0.82-0.22,2.73,1.37,4.28 c0.27,0.26,0.41,0.39,0.68,0.66C62.55,57.95,64.49,58.47,65.31,57.61z" style="fill:url(#SVGID_44_);"/>
        <radialGradient id="SVGID_45_" cx="81.4876" cy="68.1978" gradientTransform="matrix(-0.7071 0.7071 0.7071 0.7071 28.8272 -107.8859)" gradientUnits="userSpaceOnUse" r="165.9377">
          <stop offset="0.0591" style="stop-color:#FFEE58"/>
          <stop offset="0.2654" style="stop-color:#FEE54F"/>
          <stop offset="0.6032" style="stop-color:#FCCC38"/>
          <stop offset="0.7439" style="stop-color:#FBC02D"/>
        </radialGradient>
        <path d="M72.1,64.31c0.75-0.84,1.12-1.26,1.86-2.09c0.79-0.89,0.29-2.77-1.16-4.19 c-0.24-0.24-0.37-0.36-0.62-0.6C70.72,56,68.81,55.5,68,56.36c-0.76,0.8-1.14,1.2-1.91,2.01c-0.82,0.87-0.24,2.83,1.26,4.31 c0.25,0.25,0.38,0.37,0.63,0.62C69.46,64.78,71.3,65.21,72.1,64.31z" style="fill:url(#SVGID_45_);"/>
        <radialGradient id="SVGID_46_" cx="81.5222" cy="72.5765" gradientTransform="matrix(-0.7071 0.7071 0.7071 0.7071 28.8272 -107.8859)" gradientUnits="userSpaceOnUse" r="157.7052">
          <stop offset="0.0591" style="stop-color:#FFEE58"/>
          <stop offset="0.2654" style="stop-color:#FEE54F"/>
          <stop offset="0.6032" style="stop-color:#FCCC38"/>
          <stop offset="0.7439" style="stop-color:#FBC02D"/>
        </radialGradient>
        <path d="M78.34,70.67c0.72-0.86,1.07-1.28,1.76-2.14c0.75-0.92,0.32-2.76-0.99-4.13 c-0.22-0.23-0.33-0.35-0.56-0.58c-1.32-1.37-3.09-1.78-3.88-0.88c-0.73,0.84-1.1,1.25-1.85,2.1c-0.8,0.9-0.3,2.82,1.08,4.22 c0.23,0.24,0.35,0.35,0.58,0.59C75.85,71.23,77.57,71.59,78.34,70.67z" style="fill:url(#SVGID_46_);"/>
        <radialGradient id="SVGID_47_" cx="81.87" cy="77.5192" gradientTransform="matrix(-0.7071 0.7071 0.7071 0.7071 28.8272 -107.8859)" gradientUnits="userSpaceOnUse" r="148.8837">
          <stop offset="0.0591" style="stop-color:#FFEE58"/>
          <stop offset="0.2654" style="stop-color:#FEE54F"/>
          <stop offset="0.6032" style="stop-color:#FCCC38"/>
          <stop offset="0.7439" style="stop-color:#FBC02D"/>
        </radialGradient>
        <path d="M84.01,76.66c0.67-0.86,0.99-1.29,1.63-2.15c0.69-0.93,0.32-2.73-0.86-4.03 c-0.2-0.22-0.3-0.33-0.5-0.55c-1.19-1.3-2.79-1.64-3.54-0.72c-0.69,0.86-1.04,1.29-1.75,2.14c-0.76,0.92-0.33,2.78,0.93,4.09 c0.21,0.22,0.32,0.33,0.53,0.55C81.7,77.3,83.29,77.58,84.01,76.66z" style="fill:url(#SVGID_47_);"/>
        <radialGradient id="SVGID_48_" cx="82.5338" cy="83.0382" gradientTransform="matrix(-0.7071 0.7071 0.7071 0.7071 28.8272 -107.8859)" gradientUnits="userSpaceOnUse" r="139.5896">
          <stop offset="0.0591" style="stop-color:#FFEE58"/>
          <stop offset="0.2654" style="stop-color:#FEE54F"/>
          <stop offset="0.6032" style="stop-color:#FCCC38"/>
          <stop offset="0.7439" style="stop-color:#FBC02D"/>
        </radialGradient>
        <path d="M89.1,82.26c0.6-0.84,0.9-1.27,1.46-2.13c0.61-0.92,0.29-2.66-0.75-3.89 c-0.17-0.21-0.26-0.31-0.44-0.52c-1.04-1.23-2.48-1.5-3.16-0.58c-0.63,0.86-0.95,1.29-1.61,2.15c-0.71,0.92-0.34,2.7,0.8,3.92 c0.19,0.21,0.29,0.31,0.48,0.51C87.01,82.94,88.45,83.17,89.1,82.26z" style="fill:url(#SVGID_48_);"/>
        <radialGradient id="SVGID_49_" cx="83.4991" cy="89.1325" gradientTransform="matrix(-0.7071 0.7071 0.7071 0.7071 28.8272 -107.8859)" gradientUnits="userSpaceOnUse" r="129.9208">
          <stop offset="0.0591" style="stop-color:#FFEE58"/>
          <stop offset="0.2654" style="stop-color:#FEE54F"/>
          <stop offset="0.6032" style="stop-color:#FCCC38"/>
          <stop offset="0.7439" style="stop-color:#FBC02D"/>
        </radialGradient>
        <path d="M93.6,87.45c0.53-0.82,0.78-1.23,1.26-2.07c0.52-0.9,0.23-2.56-0.66-3.71 c-0.15-0.19-0.23-0.29-0.38-0.49c-0.9-1.16-2.15-1.37-2.75-0.45c-0.56,0.86-0.85,1.28-1.44,2.12c-0.64,0.91-0.32,2.59,0.7,3.71 c0.17,0.19,0.26,0.28,0.43,0.47C91.76,88.16,93.03,88.33,93.6,87.45z" style="fill:url(#SVGID_49_);"/>
        <radialGradient id="SVGID_50_" cx="84.7501" cy="95.7772" gradientTransform="matrix(-0.7071 0.7071 0.7071 0.7071 28.8272 -107.8859)" gradientUnits="userSpaceOnUse" r="119.9747">
          <stop offset="0.0591" style="stop-color:#FFEE58"/>
          <stop offset="0.2654" style="stop-color:#FEE54F"/>
          <stop offset="0.6032" style="stop-color:#FCCC38"/>
          <stop offset="0.7439" style="stop-color:#FBC02D"/>
        </radialGradient>
        <path d="M97.5,92.2c0.44-0.78,0.64-1.17,1.02-1.97c0.41-0.86,0.15-2.43-0.6-3.49 c-0.13-0.18-0.19-0.27-0.32-0.45c-0.76-1.08-1.81-1.24-2.31-0.35c-0.47,0.83-0.72,1.24-1.23,2.06 c-0.56,0.87-0.27,2.45,0.62,3.47c0.15,0.17,0.23,0.26,0.37,0.43C95.94,92.91,97.03,93.04,97.5,92.2z" style="fill:url(#SVGID_50_);"/>
        <radialGradient id="SVGID_51_" cx="86.2696" cy="102.909" gradientTransform="matrix(-0.7071 0.7071 0.7071 0.7071 28.8272 -107.8859)" gradientUnits="userSpaceOnUse" r="109.8672">
          <stop offset="0.0591" style="stop-color:#FFEE58"/>
          <stop offset="0.2654" style="stop-color:#FEE54F"/>
          <stop offset="0.6032" style="stop-color:#FCCC38"/>
          <stop offset="0.7439" style="stop-color:#FBC02D"/>
        </radialGradient>
        <path d="M100.8,96.5c0.33-0.72,0.48-1.09,0.75-1.84c0.29-0.81,0.04-2.26-0.56-3.24 c-0.1-0.17-0.15-0.25-0.26-0.42c-0.61-0.99-1.45-1.11-1.85-0.26c-0.37,0.8-0.57,1.19-0.99,1.96c-0.46,0.83-0.2,2.28,0.57,3.19 c0.13,0.15,0.19,0.23,0.32,0.38C99.54,97.19,100.45,97.28,100.8,96.5z" style="fill:url(#SVGID_51_);"/>
        <radialGradient id="SVGID_52_" cx="88.0368" cy="110.3936" gradientTransform="matrix(-0.7071 0.7071 0.7071 0.7071 28.8272 -107.8859)" gradientUnits="userSpaceOnUse" r="99.7645">
          <stop offset="0.0591" style="stop-color:#FFEE58"/>
          <stop offset="0.2654" style="stop-color:#FEE54F"/>
          <stop offset="0.6032" style="stop-color:#FCCC38"/>
          <stop offset="0.7439" style="stop-color:#FBC02D"/>
        </radialGradient>
        <path d="M103.48,100.32c0.21-0.65,0.3-0.99,0.44-1.68c0.15-0.74-0.09-2.07-0.54-2.95 c-0.08-0.15-0.11-0.23-0.19-0.38c-0.46-0.9-1.07-0.99-1.35-0.19c-0.25,0.74-0.4,1.11-0.72,1.82c-0.34,0.77-0.1,2.07,0.53,2.88 c0.11,0.14,0.16,0.2,0.27,0.34C102.55,100.96,103.26,101.03,103.48,100.32z" style="fill:url(#SVGID_52_);"/>
      </g>
      <g>
        <radialGradient id="SVGID_53_" cx="85.5032" cy="77.8575" gradientTransform="matrix(-0.7071 0.7071 0.7071 0.7071 28.8272 -107.8859)" gradientUnits="userSpaceOnUse" r="141.4278">
          <stop offset="0.0591" style="stop-color:#FFEE58"/>
          <stop offset="0.2654" style="stop-color:#FEE54F"/>
          <stop offset="0.6032" style="stop-color:#FCCC38"/>
          <stop offset="0.7439" style="stop-color:#FBC02D"/>
        </radialGradient>
        <path d="M44.14,29.07c0.8-0.44,1.2-0.65,2.03-1.06c0.88-0.44,0.53-1.5-0.77-2.33 c-0.22-0.14-0.33-0.21-0.55-0.35c-1.29-0.82-3.07-1.21-3.95-0.87c-0.82,0.31-1.22,0.48-2.01,0.83c-0.85,0.38-0.5,1.47,0.78,2.44 c0.22,0.16,0.33,0.25,0.54,0.41C41.51,29.12,43.28,29.55,44.14,29.07z" style="fill:url(#SVGID_53_);"/>
        <radialGradient id="SVGID_54_" cx="86.8235" cy="80.1689" gradientTransform="matrix(-0.7071 0.7071 0.7071 0.7071 28.8272 -107.8859)" gradientUnits="userSpaceOnUse" r="133.0145">
          <stop offset="0.0591" style="stop-color:#FFEE58"/>
          <stop offset="0.2654" style="stop-color:#FEE54F"/>
          <stop offset="0.6032" style="stop-color:#FCCC38"/>
          <stop offset="0.7439" style="stop-color:#FBC02D"/>
        </radialGradient>
        <path d="M38.25,24.84c0.79-0.34,1.19-0.5,2.01-0.8c0.88-0.32,0.6-1.17-0.62-1.87 c-0.21-0.12-0.31-0.18-0.51-0.29c-1.21-0.69-2.91-1.07-3.79-0.85c-0.81,0.2-1.21,0.31-1.99,0.55c-0.83,0.26-0.55,1.16,0.65,2 c0.2,0.14,0.3,0.21,0.51,0.36C35.71,24.8,37.4,25.21,38.25,24.84z" style="fill:url(#SVGID_54_);"/>
        <radialGradient id="SVGID_55_" cx="88.2638" cy="82.3591" gradientTransform="matrix(-0.7071 0.7071 0.7071 0.7071 28.8272 -107.8859)" gradientUnits="userSpaceOnUse" r="122.6716">
          <stop offset="0.0591" style="stop-color:#FFEE58"/>
          <stop offset="0.2654" style="stop-color:#FEE54F"/>
          <stop offset="0.6032" style="stop-color:#FCCC38"/>
          <stop offset="0.7439" style="stop-color:#FBC02D"/>
        </radialGradient>
        <path d="M32.77,21.2c0.77-0.23,1.17-0.34,1.98-0.52c0.87-0.2,0.66-0.83-0.46-1.4 c-0.19-0.1-0.28-0.14-0.47-0.24c-1.12-0.55-2.73-0.93-3.59-0.85c-0.8,0.08-1.19,0.13-1.95,0.26c-0.81,0.14-0.58,0.84,0.51,1.56 c0.18,0.12,0.28,0.18,0.46,0.31C30.35,21.05,31.94,21.45,32.77,21.2z" style="fill:url(#SVGID_55_);"/>
        <radialGradient id="SVGID_56_" cx="89.7982" cy="84.4824" gradientTransform="matrix(-0.7071 0.7071 0.7071 0.7071 28.8272 -107.8859)" gradientUnits="userSpaceOnUse" r="100.2659">
          <stop offset="0.0591" style="stop-color:#FFEE58"/>
          <stop offset="0.2654" style="stop-color:#FEE54F"/>
          <stop offset="0.6032" style="stop-color:#FCCC38"/>
          <stop offset="0.7439" style="stop-color:#FBC02D"/>
        </radialGradient>
        <path d="M27.74,18.15c0.75-0.12,1.14-0.16,1.94-0.23c0.86-0.07,0.72-0.49-0.3-0.92 c-0.17-0.07-0.26-0.11-0.43-0.18c-1.01-0.42-2.53-0.8-3.38-0.85c-0.78-0.04-1.16-0.05-1.89-0.04c-0.78,0.02-0.62,0.51,0.36,1.1 c0.17,0.1,0.25,0.15,0.42,0.25C25.46,17.88,26.93,18.28,27.74,18.15z" style="fill:url(#SVGID_56_);"/>
        <radialGradient id="SVGID_57_" cx="91.4012" cy="86.6561" gradientTransform="matrix(-0.7071 0.7071 0.7071 0.7071 28.8272 -107.8859)" gradientUnits="userSpaceOnUse" r="59.6027">
          <stop offset="0.0591" style="stop-color:#FFEE58"/>
          <stop offset="0.2654" style="stop-color:#FEE54F"/>
          <stop offset="0.6032" style="stop-color:#FCCC38"/>
          <stop offset="0.7439" style="stop-color:#FBC02D"/>
        </radialGradient>
        <path d="M23.2,15.69c0.73,0,1.1,0.01,1.89,0.07c0.84,0.06,0.78-0.13-0.13-0.43 c-0.15-0.05-0.23-0.08-0.38-0.12c-0.9-0.29-2.31-0.68-3.14-0.86c-0.76-0.17-1.13-0.24-1.83-0.35c-0.75-0.11-0.66,0.17,0.21,0.63 c0.15,0.08,0.22,0.12,0.37,0.2C21.06,15.3,22.42,15.69,23.2,15.69z" style="fill:url(#SVGID_57_);"/>
        <radialGradient id="SVGID_58_" cx="84.3287" cy="75.4084" gradientTransform="matrix(-0.7071 0.7071 0.7071 0.7071 28.8272 -107.8859)" gradientUnits="userSpaceOnUse" r="149.2413">
          <stop offset="0.0591" style="stop-color:#FFEE58"/>
          <stop offset="0.2654" style="stop-color:#FEE54F"/>
          <stop offset="0.6032" style="stop-color:#FCCC38"/>
          <stop offset="0.7439" style="stop-color:#FBC02D"/>
        </radialGradient>
        <path d="M50.41,33.88c0.8-0.54,1.2-0.8,2.02-1.3c0.88-0.54,0.46-1.81-0.92-2.78 c-0.23-0.16-0.35-0.25-0.58-0.41c-1.37-0.96-3.2-1.35-4.08-0.9c-0.82,0.42-1.23,0.64-2.03,1.09c-0.86,0.49-0.45,1.76,0.92,2.86 c0.23,0.18,0.35,0.28,0.58,0.46C47.7,34,49.55,34.46,50.41,33.88z" style="fill:url(#SVGID_58_);"/>
        <radialGradient id="SVGID_59_" cx="83.3257" cy="72.8279" gradientTransform="matrix(-0.7071 0.7071 0.7071 0.7071 28.8272 -107.8859)" gradientUnits="userSpaceOnUse" r="156.7064">
          <stop offset="0.0591" style="stop-color:#FFEE58"/>
          <stop offset="0.2654" style="stop-color:#FEE54F"/>
          <stop offset="0.6032" style="stop-color:#FCCC38"/>
          <stop offset="0.7439" style="stop-color:#FBC02D"/>
        </radialGradient>
        <path d="M57.01,39.27c0.79-0.62,1.19-0.93,1.99-1.53c0.86-0.64,0.37-2.1-1.07-3.21 c-0.24-0.19-0.36-0.28-0.61-0.46c-1.43-1.09-3.31-1.5-4.19-0.95c-0.81,0.52-1.22,0.78-2.02,1.33c-0.86,0.59-0.39,2.04,1.06,3.26 c0.24,0.21,0.37,0.31,0.61,0.52C54.25,39.46,56.16,39.94,57.01,39.27z" style="fill:url(#SVGID_59_);"/>
        <radialGradient id="SVGID_60_" cx="82.5202" cy="70.1365" gradientTransform="matrix(-0.7071 0.7071 0.7071 0.7071 28.8272 -107.8859)" gradientUnits="userSpaceOnUse" r="163.8659">
          <stop offset="0.0591" style="stop-color:#FFEE58"/>
          <stop offset="0.2654" style="stop-color:#FEE54F"/>
          <stop offset="0.6032" style="stop-color:#FCCC38"/>
          <stop offset="0.7439" style="stop-color:#FBC02D"/>
        </radialGradient>
        <path d="M63.92,45.23c0.78-0.7,1.17-1.05,1.94-1.73c0.84-0.73,0.28-2.38-1.22-3.62 c-0.25-0.21-0.38-0.31-0.63-0.52c-1.49-1.23-3.4-1.67-4.26-1.01c-0.8,0.61-1.2,0.92-1.99,1.55c-0.85,0.68-0.32,2.31,1.2,3.65 c0.26,0.23,0.39,0.34,0.64,0.57C61.13,45.47,63.09,45.98,63.92,45.23z" style="fill:url(#SVGID_60_);"/>
        <radialGradient id="SVGID_61_" cx="81.9377" cy="68.004" gradientTransform="matrix(-0.7071 0.7071 0.7071 0.7071 28.8272 -107.8859)" gradientUnits="userSpaceOnUse" r="169.0784">
          <stop offset="0.0591" style="stop-color:#FFEE58"/>
          <stop offset="0.2654" style="stop-color:#FEE54F"/>
          <stop offset="0.6032" style="stop-color:#FCCC38"/>
          <stop offset="0.7439" style="stop-color:#FBC02D"/>
        </radialGradient>
        <path d="M71.01,51.7c0.75-0.77,1.12-1.15,1.86-1.9c0.8-0.81,0.25-2.57-1.29-3.94 c-0.26-0.23-0.39-0.35-0.65-0.58c-1.54-1.36-3.46-1.84-4.29-1.09c-0.77,0.69-1.16,1.04-1.93,1.75 c-0.83,0.76-0.24,2.55,1.34,4.01c0.27,0.25,0.4,0.37,0.67,0.62C68.3,52.03,70.21,52.52,71.01,51.7z" style="fill:url(#SVGID_61_);"/>
        <radialGradient id="SVGID_62_" cx="81.6516" cy="71.2886" gradientTransform="matrix(-0.7071 0.7071 0.7071 0.7071 28.8272 -107.8859)" gradientUnits="userSpaceOnUse" r="161.698">
          <stop offset="0.0591" style="stop-color:#FFEE58"/>
          <stop offset="0.2654" style="stop-color:#FEE54F"/>
          <stop offset="0.6032" style="stop-color:#FCCC38"/>
          <stop offset="0.7439" style="stop-color:#FBC02D"/>
        </radialGradient>
        <path d="M77.58,58.08c0.71-0.82,1.06-1.23,1.75-2.04c0.74-0.87,0.28-2.66-1.1-4 c-0.23-0.23-0.35-0.34-0.58-0.57c-1.39-1.34-3.23-1.8-4.02-0.98c-0.74,0.76-1.11,1.14-1.85,1.92c-0.8,0.83-0.22,2.7,1.23,4.12 c0.25,0.24,0.37,0.36,0.61,0.6C75.06,58.55,76.82,58.96,77.58,58.08z" style="fill:url(#SVGID_62_);"/>
        <radialGradient id="SVGID_63_" cx="81.7075" cy="74.8024" gradientTransform="matrix(-0.7071 0.7071 0.7071 0.7071 28.8272 -107.8859)" gradientUnits="userSpaceOnUse" r="154.2575">
          <stop offset="0.0591" style="stop-color:#FFEE58"/>
          <stop offset="0.2654" style="stop-color:#FEE54F"/>
          <stop offset="0.6032" style="stop-color:#FCCC38"/>
          <stop offset="0.7439" style="stop-color:#FBC02D"/>
        </radialGradient>
        <path d="M83.47,64.24c0.65-0.85,0.97-1.28,1.6-2.13c0.67-0.92,0.28-2.72-0.94-4.02 c-0.2-0.22-0.31-0.33-0.51-0.55c-1.23-1.31-2.88-1.68-3.62-0.81c-0.69,0.82-1.03,1.23-1.73,2.05c-0.75,0.88-0.26,2.75,1.05,4.11 c0.22,0.23,0.33,0.35,0.55,0.57C81.17,64.82,82.78,65.16,83.47,64.24z" style="fill:url(#SVGID_63_);"/>
        <radialGradient id="SVGID_64_" cx="82.0954" cy="78.5856" gradientTransform="matrix(-0.7071 0.7071 0.7071 0.7071 28.8272 -107.8859)" gradientUnits="userSpaceOnUse" r="146.6763">
          <stop offset="0.0591" style="stop-color:#FFEE58"/>
          <stop offset="0.2654" style="stop-color:#FEE54F"/>
          <stop offset="0.6032" style="stop-color:#FCCC38"/>
          <stop offset="0.7439" style="stop-color:#FBC02D"/>
        </radialGradient>
        <path d="M88.69,70.15c0.58-0.87,0.86-1.31,1.4-2.19c0.59-0.94,0.25-2.74-0.8-4 c-0.18-0.21-0.27-0.32-0.45-0.54c-1.06-1.27-2.52-1.57-3.18-0.65c-0.62,0.85-0.93,1.28-1.58,2.14c-0.69,0.92-0.27,2.76,0.9,4.06 c0.2,0.22,0.3,0.33,0.49,0.55C86.64,70.82,88.07,71.09,88.69,70.15z" style="fill:url(#SVGID_64_);"/>
        <radialGradient id="SVGID_65_" cx="82.8024" cy="82.5856" gradientTransform="matrix(-0.7071 0.7071 0.7071 0.7071 28.8272 -107.8859)" gradientUnits="userSpaceOnUse" r="139.0392">
          <stop offset="0.0591" style="stop-color:#FFEE58"/>
          <stop offset="0.2654" style="stop-color:#FEE54F"/>
          <stop offset="0.6032" style="stop-color:#FCCC38"/>
          <stop offset="0.7439" style="stop-color:#FBC02D"/>
        </radialGradient>
        <path d="M93.21,75.78c0.49-0.88,0.73-1.32,1.18-2.21c0.49-0.95,0.19-2.72-0.69-3.94 c-0.15-0.21-0.22-0.31-0.38-0.52c-0.9-1.22-2.14-1.46-2.72-0.52c-0.54,0.88-0.81,1.32-1.38,2.19c-0.61,0.94-0.24,2.74,0.78,3.97 c0.17,0.21,0.26,0.31,0.43,0.52C91.45,76.51,92.68,76.72,93.21,75.78z" style="fill:url(#SVGID_65_);"/>
        <radialGradient id="SVGID_66_" cx="83.8143" cy="86.7089" gradientTransform="matrix(-0.7071 0.7071 0.7071 0.7071 28.8272 -107.8859)" gradientUnits="userSpaceOnUse" r="131.4625">
          <stop offset="0.0591" style="stop-color:#FFEE58"/>
          <stop offset="0.2654" style="stop-color:#FEE54F"/>
          <stop offset="0.6032" style="stop-color:#FCCC38"/>
          <stop offset="0.7439" style="stop-color:#FBC02D"/>
        </radialGradient>
        <path d="M97.04,81.1c0.39-0.87,0.57-1.31,0.91-2.19c0.37-0.95,0.11-2.67-0.61-3.84 c-0.12-0.2-0.18-0.3-0.31-0.49c-0.73-1.17-1.75-1.36-2.22-0.41c-0.44,0.89-0.67,1.33-1.15,2.21c-0.52,0.94-0.19,2.69,0.68,3.85 c0.15,0.2,0.22,0.29,0.37,0.49C95.59,81.87,96.62,82.04,97.04,81.1z" style="fill:url(#SVGID_66_);"/>
        <radialGradient id="SVGID_67_" cx="85.1168" cy="90.7979" gradientTransform="matrix(-0.7071 0.7071 0.7071 0.7071 28.8272 -107.8859)" gradientUnits="userSpaceOnUse" r="124.1118">
          <stop offset="0.0591" style="stop-color:#FFEE58"/>
          <stop offset="0.2654" style="stop-color:#FEE54F"/>
          <stop offset="0.6032" style="stop-color:#FCCC38"/>
          <stop offset="0.7439" style="stop-color:#FBC02D"/>
        </radialGradient>
        <path d="M100.16,86.1c0.27-0.85,0.4-1.27,0.61-2.14c0.23-0.93,0-2.59-0.55-3.7 c-0.09-0.19-0.14-0.28-0.23-0.47c-0.56-1.11-1.34-1.26-1.69-0.31c-0.33,0.88-0.5,1.32-0.88,2.19c-0.4,0.93-0.12,2.6,0.61,3.68 c0.12,0.18,0.18,0.27,0.31,0.46C99.06,86.89,99.87,87.01,100.16,86.1z" style="fill:url(#SVGID_67_);"/>
        <radialGradient id="SVGID_68_" cx="86.6954" cy="94.5946" gradientTransform="matrix(-0.7071 0.7071 0.7071 0.7071 28.8272 -107.8859)" gradientUnits="userSpaceOnUse" r="117.2293">
          <stop offset="0.0591" style="stop-color:#FFEE58"/>
          <stop offset="0.2654" style="stop-color:#FEE54F"/>
          <stop offset="0.6032" style="stop-color:#FCCC38"/>
          <stop offset="0.7439" style="stop-color:#FBC02D"/>
        </radialGradient>
        <path d="M102.58,90.75c0.14-0.81,0.2-1.22,0.28-2.05c0.09-0.9-0.14-2.48-0.52-3.52 c-0.06-0.18-0.1-0.26-0.16-0.44c-0.4-1.05-0.92-1.16-1.14-0.23c-0.2,0.86-0.32,1.29-0.58,2.13c-0.28,0.9-0.02,2.48,0.56,3.48 c0.1,0.17,0.15,0.25,0.24,0.42C101.84,91.53,102.43,91.62,102.58,90.75z" style="fill:url(#SVGID_68_);"/>
        <radialGradient id="SVGID_69_" cx="88.5357" cy="97.6864" gradientTransform="matrix(-0.7071 0.7071 0.7071 0.7071 28.8272 -107.8859)" gradientUnits="userSpaceOnUse" r="111.1714">
          <stop offset="0.0591" style="stop-color:#FFEE58"/>
          <stop offset="0.2654" style="stop-color:#FEE54F"/>
          <stop offset="0.6032" style="stop-color:#FCCC38"/>
          <stop offset="0.7439" style="stop-color:#FBC02D"/>
        </radialGradient>
        <path d="M104.29,95.02c0-0.76-0.02-1.14-0.08-1.93c-0.07-0.85-0.3-2.34-0.51-3.31 c-0.04-0.16-0.05-0.25-0.09-0.41c-0.23-0.98-0.48-1.06-0.55-0.16c-0.07,0.83-0.11,1.24-0.24,2.04 c-0.14,0.86,0.11,2.33,0.54,3.24c0.07,0.15,0.11,0.23,0.18,0.38C103.94,95.77,104.28,95.83,104.29,95.02z" style="fill:url(#SVGID_69_);"/>
      </g>
      <g>
        <radialGradient id="SVGID_70_" cx="85.2298" cy="77.949" gradientTransform="matrix(-0.7071 0.7071 0.7071 0.7071 28.8272 -107.8859)" gradientUnits="userSpaceOnUse" r="95.8084">
          <stop offset="0.0591" style="stop-color:#FFEE58"/>
          <stop offset="0.2654" style="stop-color:#FEE54F"/>
          <stop offset="0.6032" style="stop-color:#FCCC38"/>
          <stop offset="0.7439" style="stop-color:#FBC02D"/>
        </radialGradient>
        <path d="M25.5,48.66c0.41-0.81,0.62-1.21,1.07-2c0.48-0.85,0.05-2.61-0.95-3.9 c-0.17-0.22-0.25-0.32-0.42-0.54c-0.98-1.28-2.09-1.62-2.47-0.78c-0.36,0.78-0.53,1.18-0.84,1.99c-0.34,0.87,0.05,2.62,0.89,3.9 c0.14,0.22,0.21,0.33,0.36,0.54C23.98,49.17,25.06,49.53,25.5,48.66z" style="fill:url(#SVGID_70_);"/>
        <radialGradient id="SVGID_71_" cx="86.1461" cy="80.2645" gradientTransform="matrix(-0.7071 0.7071 0.7071 0.7071 28.8272 -107.8859)" gradientUnits="userSpaceOnUse" r="82.0973">
          <stop offset="0.0591" style="stop-color:#FFEE58"/>
          <stop offset="0.2654" style="stop-color:#FEE54F"/>
          <stop offset="0.6032" style="stop-color:#FCCC38"/>
          <stop offset="0.7439" style="stop-color:#FBC02D"/>
        </radialGradient>
        <path d="M21.47,42.8c0.3-0.81,0.47-1.2,0.81-1.98c0.37-0.84-0.04-2.51-0.91-3.7 c-0.15-0.2-0.22-0.3-0.36-0.5c-0.85-1.18-1.77-1.47-2.04-0.64c-0.25,0.77-0.37,1.16-0.57,1.95c-0.22,0.86,0.16,2.53,0.86,3.73 c0.12,0.2,0.18,0.3,0.3,0.51C20.28,43.37,21.14,43.66,21.47,42.8z" style="fill:url(#SVGID_71_);"/>
        <radialGradient id="SVGID_72_" cx="87.1358" cy="82.428" gradientTransform="matrix(-0.7071 0.7071 0.7071 0.7071 28.8272 -107.8859)" gradientUnits="userSpaceOnUse" r="68.6125">
          <stop offset="0.0591" style="stop-color:#FFEE58"/>
          <stop offset="0.2654" style="stop-color:#FEE54F"/>
          <stop offset="0.6032" style="stop-color:#FCCC38"/>
          <stop offset="0.7439" style="stop-color:#FBC02D"/>
        </radialGradient>
        <path d="M18.05,37.33c0.19-0.8,0.3-1.19,0.54-1.95c0.26-0.82-0.14-2.4-0.88-3.49 c-0.12-0.18-0.19-0.28-0.31-0.46c-0.73-1.08-1.44-1.31-1.59-0.51c-0.14,0.74-0.2,1.13-0.29,1.91c-0.09,0.84,0.28,2.43,0.85,3.54 c0.1,0.19,0.14,0.28,0.24,0.47C17.19,37.96,17.85,38.19,18.05,37.33z" style="fill:url(#SVGID_72_);"/>
        <radialGradient id="SVGID_73_" cx="88.1529" cy="84.4901" gradientTransform="matrix(-0.7071 0.7071 0.7071 0.7071 28.8272 -107.8859)" gradientUnits="userSpaceOnUse" r="56.6557">
          <stop offset="0.0591" style="stop-color:#FFEE58"/>
          <stop offset="0.2654" style="stop-color:#FEE54F"/>
          <stop offset="0.6032" style="stop-color:#FCCC38"/>
          <stop offset="0.7439" style="stop-color:#FBC02D"/>
        </radialGradient>
        <path d="M15.25,32.29c0.07-0.78,0.12-1.16,0.25-1.9c0.14-0.8-0.25-2.26-0.86-3.25 c-0.1-0.17-0.15-0.25-0.25-0.42c-0.59-0.98-1.1-1.14-1.12-0.37c-0.02,0.72-0.02,1.09,0.01,1.85c0.04,0.82,0.41,2.32,0.84,3.33 c0.07,0.17,0.11,0.26,0.18,0.43C14.74,32.98,15.17,33.13,15.25,32.29z" style="fill:url(#SVGID_73_);"/>
        <radialGradient id="SVGID_74_" cx="89.1383" cy="86.5643" gradientTransform="matrix(-0.7071 0.7071 0.7071 0.7071 28.8272 -107.8859)" gradientUnits="userSpaceOnUse" r="48.0224">
          <stop offset="0.0591" style="stop-color:#FFEE58"/>
          <stop offset="0.2654" style="stop-color:#FEE54F"/>
          <stop offset="0.6032" style="stop-color:#FCCC38"/>
          <stop offset="0.7439" style="stop-color:#FBC02D"/>
        </radialGradient>
        <path d="M13.07,27.72c-0.05-0.76-0.06-1.13-0.05-1.85c0.01-0.77-0.37-2.12-0.84-2.99 c-0.08-0.15-0.12-0.22-0.2-0.37c-0.46-0.87-0.75-0.97-0.65-0.23c0.1,0.69,0.16,1.05,0.32,1.79c0.17,0.8,0.54,2.19,0.83,3.09 c0.05,0.15,0.07,0.23,0.12,0.38C12.91,28.46,13.12,28.54,13.07,27.72z" style="fill:url(#SVGID_74_);"/>
        <radialGradient id="SVGID_75_" cx="84.4247" cy="75.4681" gradientTransform="matrix(-0.7071 0.7071 0.7071 0.7071 28.8272 -107.8859)" gradientUnits="userSpaceOnUse" r="108.9894">
          <stop offset="0.0591" style="stop-color:#FFEE58"/>
          <stop offset="0.2654" style="stop-color:#FEE54F"/>
          <stop offset="0.6032" style="stop-color:#FCCC38"/>
          <stop offset="0.7439" style="stop-color:#FBC02D"/>
        </radialGradient>
        <path d="M30.13,54.88c0.51-0.81,0.77-1.21,1.31-2c0.58-0.85,0.12-2.69-1-4.06 c-0.19-0.23-0.28-0.35-0.47-0.58c-1.11-1.36-2.4-1.76-2.89-0.91c-0.46,0.79-0.68,1.19-1.1,2c-0.45,0.87-0.05,2.68,0.92,4.04 c0.16,0.23,0.25,0.35,0.41,0.58C28.3,55.32,29.58,55.75,30.13,54.88z" style="fill:url(#SVGID_75_);"/>
        <radialGradient id="SVGID_76_" cx="83.7642" cy="72.8312" gradientTransform="matrix(-0.7071 0.7071 0.7071 0.7071 28.8272 -107.8859)" gradientUnits="userSpaceOnUse" r="121.2843">
          <stop offset="0.0591" style="stop-color:#FFEE58"/>
          <stop offset="0.2654" style="stop-color:#FEE54F"/>
          <stop offset="0.6032" style="stop-color:#FCCC38"/>
          <stop offset="0.7439" style="stop-color:#FBC02D"/>
        </radialGradient>
        <path d="M35.35,61.44c0.6-0.79,0.9-1.19,1.53-1.98c0.67-0.85,0.18-2.75-1.05-4.2 c-0.21-0.24-0.31-0.37-0.52-0.61c-1.23-1.44-2.7-1.9-3.29-1.05c-0.55,0.79-0.82,1.19-1.33,2c-0.56,0.87-0.13,2.73,0.97,4.16 c0.19,0.24,0.28,0.36,0.47,0.61C33.24,61.79,34.71,62.29,35.35,61.44z" style="fill:url(#SVGID_76_);"/>
        <radialGradient id="SVGID_77_" cx="83.2774" cy="70.0606" gradientTransform="matrix(-0.7071 0.7071 0.7071 0.7071 28.8272 -107.8859)" gradientUnits="userSpaceOnUse" r="132.5814">
          <stop offset="0.0591" style="stop-color:#FFEE58"/>
          <stop offset="0.2654" style="stop-color:#FEE54F"/>
          <stop offset="0.6032" style="stop-color:#FCCC38"/>
          <stop offset="0.7439" style="stop-color:#FBC02D"/>
        </radialGradient>
        <path d="M41.16,68.29c0.68-0.77,1.02-1.16,1.72-1.94c0.75-0.83,0.23-2.79-1.13-4.31 c-0.23-0.26-0.34-0.39-0.57-0.64c-1.35-1.52-2.98-2.04-3.66-1.19c-0.63,0.79-0.94,1.18-1.55,1.98c-0.65,0.85-0.2,2.75,1.04,4.24 c0.21,0.25,0.31,0.38,0.53,0.63C38.78,68.55,40.43,69.12,41.16,68.29z" style="fill:url(#SVGID_77_);"/>
        <radialGradient id="SVGID_78_" cx="82.9925" cy="67.9532" gradientTransform="matrix(-0.7071 0.7071 0.7071 0.7071 28.8272 -107.8859)" gradientUnits="userSpaceOnUse" r="141.553">
          <stop offset="0.0591" style="stop-color:#FFEE58"/>
          <stop offset="0.2654" style="stop-color:#FEE54F"/>
          <stop offset="0.6032" style="stop-color:#FCCC38"/>
          <stop offset="0.7439" style="stop-color:#FBC02D"/>
        </radialGradient>
        <path d="M47.47,75.32c0.75-0.74,1.12-1.11,1.89-1.86c0.82-0.81,0.33-2.72-1.14-4.3 c-0.25-0.27-0.37-0.4-0.62-0.67c-1.46-1.58-3.26-2.17-4.02-1.34c-0.71,0.77-1.06,1.16-1.74,1.93c-0.74,0.83-0.25,2.75,1.12,4.29 c0.23,0.26,0.35,0.39,0.58,0.65C44.91,75.55,46.67,76.11,47.47,75.32z" style="fill:url(#SVGID_78_);"/>
        <radialGradient id="SVGID_79_" cx="83.0324" cy="71.4113" gradientTransform="matrix(-0.7071 0.7071 0.7071 0.7071 28.8272 -107.8859)" gradientUnits="userSpaceOnUse" r="140.135">
          <stop offset="0.0591" style="stop-color:#FFEE58"/>
          <stop offset="0.2654" style="stop-color:#FEE54F"/>
          <stop offset="0.6032" style="stop-color:#FCCC38"/>
          <stop offset="0.7439" style="stop-color:#FBC02D"/>
        </radialGradient>
        <path d="M53.71,81.8c0.8-0.69,1.21-1.04,2.02-1.75c0.87-0.76,0.46-2.54-0.94-3.98 c-0.24-0.24-0.36-0.37-0.6-0.61c-1.41-1.46-3.28-2.04-4.11-1.23c-0.77,0.75-1.15,1.12-1.9,1.85c-0.81,0.79-0.35,2.63,0.99,4.03 c0.23,0.24,0.34,0.35,0.57,0.59C51.07,82.07,52.85,82.55,53.71,81.8z" style="fill:url(#SVGID_79_);"/>
        <radialGradient id="SVGID_80_" cx="83.2045" cy="75.0558" gradientTransform="matrix(-0.7071 0.7071 0.7071 0.7071 28.8272 -107.8859)" gradientUnits="userSpaceOnUse" r="137.1699">
          <stop offset="0.0591" style="stop-color:#FFEE58"/>
          <stop offset="0.2654" style="stop-color:#FEE54F"/>
          <stop offset="0.6032" style="stop-color:#FCCC38"/>
          <stop offset="0.7439" style="stop-color:#FBC02D"/>
        </radialGradient>
        <path d="M59.74,87.59c0.84-0.63,1.26-0.95,2.11-1.61c0.91-0.7,0.58-2.32-0.77-3.63 c-0.23-0.22-0.34-0.33-0.57-0.56c-1.35-1.32-3.21-1.82-4.09-1.06c-0.82,0.71-1.22,1.05-2.03,1.74c-0.87,0.74-0.49,2.4,0.81,3.64 c0.22,0.21,0.33,0.31,0.55,0.52C57.06,87.86,58.84,88.26,59.74,87.59z" style="fill:url(#SVGID_80_);"/>
        <radialGradient id="SVGID_81_" cx="83.5159" cy="78.9975" gradientTransform="matrix(-0.7071 0.7071 0.7071 0.7071 28.8272 -107.8859)" gradientUnits="userSpaceOnUse" r="132.8698">
          <stop offset="0.0591" style="stop-color:#FFEE58"/>
          <stop offset="0.2654" style="stop-color:#FEE54F"/>
          <stop offset="0.6032" style="stop-color:#FCCC38"/>
          <stop offset="0.7439" style="stop-color:#FBC02D"/>
        </radialGradient>
        <path d="M65.55,92.66c0.86-0.55,1.3-0.83,2.16-1.42c0.93-0.63,0.66-2.07-0.62-3.24 c-0.22-0.2-0.33-0.3-0.54-0.5c-1.29-1.18-3.12-1.61-4.03-0.91c-0.85,0.65-1.27,0.97-2.12,1.59c-0.91,0.67-0.6,2.13,0.66,3.21 c0.21,0.18,0.32,0.27,0.53,0.45C62.85,92.91,64.62,93.25,65.55,92.66z" style="fill:url(#SVGID_81_);"/>
        <radialGradient id="SVGID_82_" cx="84.0703" cy="83.1869" gradientTransform="matrix(-0.7071 0.7071 0.7071 0.7071 28.8272 -107.8859)" gradientUnits="userSpaceOnUse" r="127.5428">
          <stop offset="0.0591" style="stop-color:#FFEE58"/>
          <stop offset="0.2654" style="stop-color:#FEE54F"/>
          <stop offset="0.6032" style="stop-color:#FCCC38"/>
          <stop offset="0.7439" style="stop-color:#FBC02D"/>
        </radialGradient>
        <path d="M71.11,97.01c0.87-0.46,1.31-0.7,2.18-1.19c0.93-0.53,0.72-1.79-0.49-2.81 c-0.21-0.17-0.31-0.26-0.51-0.43c-1.22-1.04-3.01-1.4-3.94-0.79c-0.87,0.57-1.3,0.85-2.17,1.4c-0.93,0.58-0.68,1.84,0.53,2.75 c0.2,0.15,0.31,0.23,0.51,0.38C68.43,97.2,70.17,97.5,71.11,97.01z" style="fill:url(#SVGID_82_);"/>
        <radialGradient id="SVGID_83_" cx="84.8368" cy="87.5338" gradientTransform="matrix(-0.7071 0.7071 0.7071 0.7071 28.8272 -107.8859)" gradientUnits="userSpaceOnUse" r="121.5422">
          <stop offset="0.0591" style="stop-color:#FFEE58"/>
          <stop offset="0.2654" style="stop-color:#FEE54F"/>
          <stop offset="0.6032" style="stop-color:#FCCC38"/>
          <stop offset="0.7439" style="stop-color:#FBC02D"/>
        </radialGradient>
        <path d="M76.4,100.62c0.87-0.35,1.3-0.54,2.16-0.93c0.92-0.43,0.76-1.47-0.38-2.35 c-0.19-0.15-0.29-0.22-0.48-0.37c-1.15-0.89-2.88-1.21-3.81-0.69c-0.87,0.49-1.3,0.72-2.18,1.17c-0.94,0.48-0.74,1.51,0.42,2.25 c0.2,0.13,0.29,0.19,0.49,0.31C73.77,100.73,75.47,100.99,76.4,100.62z" style="fill:url(#SVGID_83_);"/>
        <radialGradient id="SVGID_84_" cx="85.7692" cy="91.8838" gradientTransform="matrix(-0.7071 0.7071 0.7071 0.7071 28.8272 -107.8859)" gradientUnits="userSpaceOnUse" r="115.2156">
          <stop offset="0.0591" style="stop-color:#FFEE58"/>
          <stop offset="0.2654" style="stop-color:#FEE54F"/>
          <stop offset="0.6032" style="stop-color:#FCCC38"/>
          <stop offset="0.7439" style="stop-color:#FBC02D"/>
        </radialGradient>
        <path d="M81.42,103.47c0.85-0.23,1.27-0.35,2.1-0.64c0.9-0.3,0.77-1.13-0.29-1.85 c-0.18-0.12-0.27-0.18-0.45-0.31c-1.07-0.74-2.72-1.02-3.64-0.61c-0.86,0.38-1.29,0.57-2.15,0.9c-0.93,0.36-0.78,1.15,0.32,1.72 c0.19,0.1,0.28,0.14,0.47,0.24C78.87,103.48,80.5,103.72,81.42,103.47z" style="fill:url(#SVGID_84_);"/>
        <radialGradient id="SVGID_85_" cx="86.7955" cy="95.9815" gradientTransform="matrix(-0.7071 0.7071 0.7071 0.7071 28.8272 -107.8859)" gradientUnits="userSpaceOnUse" r="108.9478">
          <stop offset="0.0591" style="stop-color:#FFEE58"/>
          <stop offset="0.2654" style="stop-color:#FEE54F"/>
          <stop offset="0.6032" style="stop-color:#FCCC38"/>
          <stop offset="0.7439" style="stop-color:#FBC02D"/>
        </radialGradient>
        <path d="M86.13,105.56c0.82-0.09,1.22-0.15,2.02-0.31c0.86-0.17,0.76-0.76-0.23-1.32 c-0.17-0.1-0.25-0.14-0.42-0.24c-0.99-0.58-2.55-0.84-3.45-0.55c-0.83,0.27-1.25,0.39-2.1,0.6c-0.91,0.23-0.79,0.76,0.25,1.16 c0.18,0.07,0.26,0.1,0.44,0.16C83.69,105.45,85.25,105.66,86.13,105.56z" style="fill:url(#SVGID_85_);"/>
        <radialGradient id="SVGID_86_" cx="87.7973" cy="99.4123" gradientTransform="matrix(-0.7071 0.7071 0.7071 0.7071 28.8272 -107.8859)" gradientUnits="userSpaceOnUse" r="103.2134">
          <stop offset="0.0591" style="stop-color:#FFEE58"/>
          <stop offset="0.2654" style="stop-color:#FEE54F"/>
          <stop offset="0.6032" style="stop-color:#FCCC38"/>
          <stop offset="0.7439" style="stop-color:#FBC02D"/>
        </radialGradient>
        <path d="M90.52,106.88c0.77,0.06,1.15,0.07,1.9,0.06c0.8-0.01,0.73-0.35-0.18-0.76 c-0.15-0.07-0.23-0.1-0.38-0.18c-0.91-0.43-2.37-0.66-3.22-0.51c-0.79,0.14-1.19,0.19-2,0.27c-0.87,0.08-0.78,0.34,0.2,0.57 c0.17,0.04,0.25,0.06,0.41,0.09C88.22,106.61,89.69,106.81,90.52,106.88z" style="fill:url(#SVGID_86_);"/>
      </g>
    </g>
  </g>
  <linearGradient id="SVGID_87_" gradientTransform="matrix(-1 0 0 1 130.4003 0)" gradientUnits="userSpaceOnUse" x1="15.1983" x2="27.5316" y1="110.799" y2="122.1323">
    <stop offset="4.906866e-03" style="stop-color:#8BC34A"/>
    <stop offset="1" style="stop-color:#558B2F"/>
  </linearGradient>
  <path d="M117.38,99.57c0,0,0.43,2.89,3.28,5.59c2.84,2.69,5.8,5.75-2,12.12s-7.95,8.17-10.82,6.69 c-2.86-1.49-6.89-5.64-8.55-7.36c-1.66-1.71,7.16-3.62,11.2-8C114.54,104.22,117.38,99.57,117.38,99.57z" style="fill:url(#SVGID_87_);"/>
  <g style="opacity:0.2;">
    <path d="M17,13v3h-0.2c9.05,0,29.13,9.79,53.82,31.76c25.41,22.6,37.12,44.18,30.14,55.26 c-2.28,1.49-4.97,2.24-7.95,2.24c-11.89,0-28.7-11.54-47.33-32.47C33.2,58.98,23.79,45.88,18.3,34.9 c-5.12-10.22-5.38-16.18-4.05-18.53c0.44-0.21,0.76-0.44,2.76-0.44V13 M16.59,12.92c-2,0-3.59,0.41-4.68,1.24 c-5.76,7.42,5.2,31.25,31.32,60.6c19.39,21.79,36.74,33.48,49.56,33.48c3.79,0,7.18-1.02,10.11-3.1 c8.39-12.11-2.15-34.55-30.38-59.67C47.97,23.65,26.79,12.92,16.59,12.92L16.59,12.92z" style="fill:#424242;"/>
  </g>
  <linearGradient id="SVGID_88_" gradientTransform="matrix(-1 0 0 1 130.4003 0)" gradientUnits="userSpaceOnUse" x1="10.681" x2="93.3477" y1="103.1645" y2="36.4978">
    <stop offset="0" style="stop-color:#558B2F"/>
    <stop offset="0.9951" style="stop-color:#8BC34A"/>
  </linearGradient>
  <path d="M66.21,86.84c8.86-5.03,8.04-6.13,14.09-0.86c5.53,4.82,17.72,13.24,23.82,14.72 c-5.9-7.72-12.64-20.14-17.55-30.47C78.4,53.01,72.15,43.38,71.9,34.5s9.01-12.76,9-12.75c-7.62,6.12-4.88,17.99,11.37,37.22 c16.25,19.23,18.56,19.16,22.87,28.75c4.31,9.59,5.12,14.03-0.32,19.55c-0.28,0.28-0.58,0.47-0.91,0.6c-1,2.04-2.82,4.95-5.67,6.72 c-4.74,2.93-10.93,0.26-18.54,0.43c-11.16,0.25-17.4-13.28-22.52-13.96C60.17,100.14,54.9,101,54.9,101S57.35,91.88,66.21,86.84z" style="fill:url(#SVGID_88_);"/>
  <linearGradient id="SVGID_89_" gradientTransform="matrix(-1 0 0 1 130.4003 0)" gradientUnits="userSpaceOnUse" x1="49.2138" x2="76.2739" y1="82.5789" y2="115.6173">
    <stop offset="4.906866e-03" style="stop-color:#8BC34A"/>
    <stop offset="1" style="stop-color:#558B2F"/>
  </linearGradient>
  <path d="M89.08,96.76c0,0-2.95-16.74-20.65-14.71s-22.2,10.12-25.36,20.28 c-1.48,4.76,1.33,16,1.33,16s1.83-7.5,8.5-14.5c3.76-3.94,17.56-6.47,25.74-4.03c8.19,2.44,9.88,7.67,10.3,3.94 c0.42-3.72,0.27-6.46,0.27-6.46" style="fill:url(#SVGID_89_);"/>
  <linearGradient id="SVGID_90_" gradientTransform="matrix(-1 0 0 1 130.4003 0)" gradientUnits="userSpaceOnUse" x1="13.9758" x2="43.9758" y1="103.5367" y2="55.2034">
    <stop offset="0" style="stop-color:#558B2F"/>
    <stop offset="0.9951" style="stop-color:#8BC34A"/>
  </linearGradient>
  <path d="M97.1,40.69c0,0-2.76,7.17-1.1,16.23c1.66,9.05,8.88,16.51,10.76,26.76 c1.88,10.26,13.84,12.87,7.31,21.15c-6.17,7.83-21.13,0.53-26.11-19.53C82.99,65.25,90.36,48.17,97.1,40.69z" style="fill:url(#SVGID_90_);"/>
  <g style="opacity:0.2;">
    <path d="M75.34,37.95c1.93,5.48,5.74,11.82,11.41,19.01c0.57,0.73,1.45,1.14,2.35,1.14 c0.17,0,0.34-0.01,0.51-0.04c1.08-0.19,1.98-0.95,2.33-2c0.21-0.62,0.43-1.23,0.66-1.83c0.09,1.05,0.24,2.13,0.44,3.23 c0.81,4.43,2.72,8.31,4.95,12.55c0.11,0.22,0.26,0.42,0.42,0.61c1.62,1.81,3.01,3.34,4.23,4.68c5.5,6.03,7.16,7.85,9.77,13.66 c2.51,5.58,3.8,9.36,2.97,12.15c-0.22,0.74-0.15,1.54,0.21,2.23c0.76,1.48,1.78,2.83,3.02,4.01c1.14,1.08,2.09,2.04,2.06,2.79 c-0.01,0.4-0.34,1.92-3.9,4.82c-2.32,1.9-4,3.41-5.23,4.52c-0.84,0.76-1.71,1.54-2.19,1.88c-0.04-0.02-0.07-0.04-0.12-0.06 c-2.06-1.07-5.28-4.23-7.01-5.99c-0.04-0.26-0.12-0.53-0.23-0.78c-0.44-0.98-1.36-1.65-2.43-1.76c-0.62-0.07-1.26-0.14-1.91-0.22 c-2.17-0.26-4.62-0.55-7.25-0.55c-0.26,0-0.52,0-0.78,0.01c-0.08,0-0.16,0-0.24,0c-5.46,0-9.71-4.3-13.46-8.1 c-2.88-2.92-5.37-5.44-8.36-5.83c-2.27-0.3-4.59-0.45-6.91-0.45c-0.64,0-1.28,0.01-1.91,0.03c-0.27,0.01-0.54,0.06-0.8,0.14 c-3.3,1.05-5.73,2.38-7.23,3.96c-2.07,2.17-3.7,4.38-4.99,6.44c-0.17-2.07-0.15-3.89,0.19-4.98c2.85-9.15,6.34-16.3,22.84-18.19 c0.88-0.1,1.73-0.15,2.56-0.15c5.91,0,10.3,2.61,13.06,7.76c0.22,0.41,0.53,0.76,0.9,1.02c1.31,0.94,2.7,1.89,4.13,2.83 c0.5,0.33,1.08,0.49,1.65,0.49c0.71,0,1.42-0.25,1.98-0.75c1.01-0.89,1.31-2.35,0.72-3.56c-1.2-2.47-2.17-5.2-2.89-8.09 c-1.19-4.82-1.7-9.74-1.49-14.63c0.02-0.49-0.08-0.97-0.29-1.42c-1.99-4.19-3.89-7.96-5.56-11.29 C79.41,49.04,76.42,43.09,75.34,37.95 M80.9,21.75c-0.01,0-9.25,3.88-9,12.75c0.25,8.8,6.4,18.36,14.48,35.33 c-0.2,4.86,0.23,10.06,1.58,15.48c0.8,3.23,1.86,6.12,3.1,8.67c-1.38-0.9-2.73-1.83-4.03-2.76c-2.27-4.23-6.83-9.34-15.7-9.34 c-0.92,0-1.88,0.05-2.9,0.17c-17.7,2.03-22.2,10.12-25.36,20.28c-1.48,4.76,1.33,16,1.33,16s1.83-7.5,8.5-14.5 c1.17-1.23,3.32-2.32,5.97-3.17c0.55-0.02,1.16-0.03,1.8-0.03c1.86,0,4.08,0.1,6.52,0.42c5.07,0.67,11.24,13.96,22.21,13.96 c0.1,0,0.2,0,0.3,0c0.24-0.01,0.48-0.01,0.71-0.01c3.21,0,6.15,0.47,8.84,0.75c-0.21,0.3-0.22,0.58,0.04,0.85 c1.66,1.71,5.68,5.87,8.55,7.36c0.62,0.32,1.12,0.49,1.59,0.49c1.7,0,3.12-2.19,9.23-7.18c7.8-6.37,4.84-9.43,2-12.12 c-1.17-1.11-1.92-2.24-2.42-3.2c1.1-3.68-0.21-7.79-3.1-14.23c-3.42-7.62-5.6-9.16-14.5-19.11c-2.02-3.84-3.9-7.61-4.65-11.7 c-1.66-9.05,1.1-16.23,1.1-16.23c-2.89,3.21-5.89,8.18-7.99,14.4C75.7,38.14,73.8,27.45,80.9,21.75L80.9,21.75L80.9,21.75z M97.1,41L97.1,41L97.1,41z" style="fill:#424242;"/>
  </g>
</svg>