<?xml version="1.0" encoding="utf-8"?>
<!-- Generator: Adobe Illustrator 19.2.1, SVG Export Plug-In . SVG Version: 6.00 Build 0)  -->
<svg version="1.1" xmlns="http://www.w3.org/2000/svg" xmlns:xlink="http://www.w3.org/1999/xlink" x="0px" y="0px"
	 viewBox="0 0 128 128" style="enable-background:new 0 0 128 128;" xml:space="preserve">
<g id="Layer_2">
</g>
<g id="图层_1">
	<path id="XMLID_12_" style="fill:#C4C6C7;" d="M17.5,118.15v10.3h93.87v-10.3c0-15.8-23.4-23.83-46.94-23.8
		C41.05,94.37,17.5,101.41,17.5,118.15z"/>
	<path style="fill:#A8A8A8;" d="M62.76,112.53h2.48c6.84,0,12.39-5.28,12.39-11.79v-5.55c-4.28-0.57-8.73-0.85-13.18-0.85
		c-4.75,0.01-9.5,0.31-14.07,0.91v5.48C50.37,107.25,55.92,112.53,62.76,112.53z"/>
	<path id="XMLID_1_" style="fill:#7A4C32;" d="M64,90.08h-9.08v9.59c0,4.34,3.7,7.86,8.26,7.86h1.65c4.56,0,8.26-3.52,8.26-7.86
		v-9.59H64z"/>
	<g id="XMLID_30_">
		<path id="XMLID_581_" style="fill:#6D4C41;" d="M28.01,53.89c0,0,0.03-8.08,0.03-19.2c0-11.63,8.53-27.73,37.05-27.73
			c19.91,0,27.35,7.88,27.35,13.13c0,0,7.39,1.33,8.12,10.8c0.51,6.65-0.15,22.64-0.15,22.64s-0.8-0.72-1.71-1.13
			c-0.48-0.22-0.97-0.32-0.97-0.32l-1.34,9.13l-9.9-19.17c-0.06-0.11-0.18-0.18-0.31-0.17l-4.01,0.47
			c-11.56,1.37-23.24,1.41-34.81,0.13l-5.42-0.6c-0.13-0.01-0.26,0.06-0.31,0.17l-9.14,19.1l-1.39-9.29c0,0-0.95,0.38-1.81,1.05
			C28.48,53.53,28.01,53.89,28.01,53.89z"/>
		<g id="XMLID_578_">
			<path id="XMLID_580_" style="fill:#7A4C32;" d="M96.56,51.43c0,0,5.9,1.02,5.9,7.37c0,5.6-4.3,7.82-8.61,7.82V51.43H96.56z"/>
			<path id="XMLID_579_" style="fill:#7A4C32;" d="M32.23,51.43c0,0-5.9,1.02-5.9,7.37c0,5.6,4.3,7.82,8.61,7.82V51.43H32.23z"/>
		</g>
		<path id="XMLID_577_" style="fill:#9B643C;" d="M64.39,9.83c-25.42,0-32.07,19.71-32.07,47.39c0,28.7,18.45,36.13,32.07,36.13
			c13.42,0,32.07-7.21,32.07-36.13C96.47,29.54,89.81,9.83,64.39,9.83z"/>
		<path id="XMLID_576_" style="fill:#4C3734;" d="M73.58,76.34c-1.29,0-9.19,0-9.19,0s-7.9,0-9.19,0c-1.05,0-1.51,0.71-0.81,1.77
			c0.98,1.49,4.59,4.34,10,4.34s9.02-2.86,10-4.34C75.09,77.05,74.63,76.34,73.58,76.34z"/>
		<path id="XMLID_575_" style="fill:#42312C;" d="M73.58,76.34c-1.29,0-9.19,0-9.19,0s-7.9,0-9.19,0c-1.05,0-1.51,0.71-0.81,1.77
			c0.98,1.49,4.59,4.34,10,4.34s9.02-2.86,10-4.34C75.09,77.05,74.63,76.34,73.58,76.34z"/>
		<path id="XMLID_574_" style="fill:#7A4C32;" d="M68.83,68.53c-1.56,0.44-3.19,0.66-4.44,0.66c-1.25,0-2.87-0.22-4.44-0.66
			c-0.67-0.19-0.93,0.44-0.69,0.87c0.5,0.87,2.49,2.63,5.13,2.63c2.64,0,4.63-1.76,5.13-2.63C69.76,68.97,69.5,68.34,68.83,68.53z"
			/>
		<path id="XMLID_573_" style="fill:#42312C;" d="M53.94,59.03c0,2.83-1.89,5.12-4.24,5.12c-2.34,0-4.25-2.29-4.25-5.12
			c0-2.84,1.91-5.13,4.25-5.13C52.05,53.9,53.94,56.19,53.94,59.03"/>
		<path id="XMLID_572_" style="fill:#42312C;" d="M74.84,59.03c0,2.83,1.9,5.12,4.25,5.12c2.34,0,4.24-2.29,4.24-5.12
			c0-2.84-1.9-5.13-4.24-5.13C76.74,53.9,74.84,56.19,74.84,59.03"/>
		<path id="XMLID_571_" style="fill:#47352D;" d="M32.32,59.03l-1.69-10.43c0,0-3.67-40.22,34.64-40.22s32.35,41.97,32.35,41.97
			l-1.17,8.68l-9.95-16.85c-4.63-7.78-28.89-15.25-43.48-0.32L32.32,59.03z"/>
		<g id="XMLID_32_">
			<defs>
				<path id="SVGID_1_" d="M65.36,38.04c-22.96-5.1-37.23-6.41-41.74-1.87c-0.61-6.69,1.07-11.28,2.85-13.89
					c2.05-3.01,4-4.6,6.9-6.69C42.37,9.1,54.32,2.86,64.46,2.86c9.93,0,22.09,6.24,31.11,12.73c2.9,2.09,4.85,3.69,6.9,6.69
					c7.77,11.42-0.3,34.26-0.3,34.26s-1.06-3.53-4.74-4.86C97.52,48.04,92.23,44.01,65.36,38.04z"/>
			</defs>
			<use xlink:href="#SVGID_1_"  style="overflow:visible;fill:#C4C6C7;"/>
			<clipPath id="SVGID_2_">
				<use xlink:href="#SVGID_1_"  style="overflow:visible;"/>
			</clipPath>
			<path id="XMLID_33_" style="clip-path:url(#SVGID_2_);fill:#A8A8A8;" d="M65.62,40.24c22.96-5.1,37.8-5.86,42.31-1.31
				c0.61-6.69-1.5-11.83-3.27-14.45c-2.05-3.01-4-4.6-6.9-6.69C88.74,11.3,76.66,5.06,66.52,5.06c-9.93,0-22.09,6.24-31.11,12.73
				c-2.9,2.09-4.85,3.69-6.9,6.69c-7.77,11.42,0.3,34.26,0.3,34.26s0.78-3.39,4.46-4.73C33.19,50.38,38.75,46.2,65.62,40.24z"/>
			<path style="clip-path:url(#SVGID_2_);fill:#A8A8A8;" d="M105.36,42.75c0,0-5.7-8.44-30.77-16.69
				c-19.82-6.52-39.21-6.31-47.26-5.19c0,0-0.25,0.23-0.91,1.25c0,0,23.75-2.79,50.27,7.57c9.74,3.81,22.74,8.57,28.12,16.47
				L105.36,42.75z"/>
		</g>
		<g id="XMLID_34_">
			<path id="XMLID_36_" style="fill:#C4C6C7;" d="M63.43,38.04c22.96-5.1,35.12-6.05,42.41-1.73c0.61-6.69-1.6-11.42-3.37-14.03
				c-2.05-3.01-4-4.6-6.9-6.69C86.55,9.1,74.46,2.86,64.32,2.86c-9.93,0-22.09,6.24-31.11,12.73c-2.9,2.09-4.85,3.69-6.9,6.69
				c-7.77,11.42,0.3,34.26,0.3,34.26s0.78-3.39,4.46-4.73C30.99,48.18,36.56,44.01,63.43,38.04z"/>
			<path style="fill:#A8A8A8;" d="M23.42,42.75c0,0,5.7-8.44,30.77-16.69c19.82-6.52,39.21-6.31,47.26-5.19c0,0,0.25,0.23,0.91,1.25
				c0,0-23.75-2.79-50.27,7.57c-9.74,3.81-22.74,8.57-28.12,16.47L23.42,42.75z"/>
			<path style="fill:#A8A8A8;" d="M23.51,29.44c0,0,6.22-7.86,22.66-14.71C61.84,8.2,78.59,7.22,83.64,8.38l1.71,0.83
				c-7.45-0.17-23.28,1-37.61,7.37c-7.34,3.26-22.58,12.59-24.7,16.61C23.11,31.92,23.28,30.6,23.51,29.44z"/>
		</g>
	</g>
	<rect x="62.17" y="110.5" style="fill:#A8A8A8;" width="4.54" height="17.95"/>
</g>
</svg>
