<svg xmlns="http://www.w3.org/2000/svg" viewBox="0 0 128 128"><circle cx="64" cy="64" r="56" fill="#fff"/><path d="M64 128C28.71 128 0 99.29 0 64S28.71 0 64 0s64 28.71 64 64-28.71 64-64 64zm0-117.11c-29.29 0-53.11 23.83-53.11 53.11 0 29.29 23.83 53.11 53.11 53.11S117.11 93.29 117.11 64 93.29 10.89 64 10.89z" fill="#db4437"/><path d="M86 61H27c-1.65 0-3 1.35-3 3v7c0 1.65 1.35 3 3 3h59c1.65 0 3-1.35 3-3v-7c0-1.65-1.35-3-3-3z" fill="#2f2f2f"/><path d="M91.8 72.14c-.18 1.95 1.29 1.36 2.72 1.37 1.19 0 2.29.13 3.46.13 1.1 0 1.98-.41 3.07-.4.8.01 2.71.21 3-.82.16-.56 0-1.53-.04-2.12-.15-2.47.03-5.01-.33-7.46-.11-.77-.59-1.49-1.44-1.57-.54-.05-1.07.22-1.61.27-.51.06-.95-.12-1.43-.16-.77-.06-1.67-.34-2.5-.38-.06 0-.12 0-.18-.01-.28 0-.55.02-.8.11-.84.28-1.16.37-2.01.26-.37-.05-1.22-.11-1.56.04-.24.1-.39.3-.48.54-.25.65-.04 1.65.18 2.14.41.95.14 1.86.14 2.88-.01 1.73-.02 3.47-.19 5.18z" fill="#ed6c30"/><path d="M59.7 30.2c2.42 8.13 9.75 12.4 17.68 13.81 2.33.42 4.7.65 7.07.82 1.27.09 11.56-.12 8.46 2.74-1.24 1.14-3.24 2.13-4.17 3.65-.35.56-.56 1.18-.52 1.92.16 3.11 4.22 4.78 6.78 5.3.54.11 1.44.35 2.25.35.61 0 1.17-.14 1.47-.6.66-1-.47-1.5-1.19-1.94-1.12-.69-1.64-1.3-1.34-2.74.62-2.98 4.61-3.23 7.01-3.66 1.49-.27 3-.73 4.31-1.48 1.57-.89 2.86-2.18 3.41-4.08.18-.62.26-1.26.28-1.9.06-2.61-1.14-5.26-3.32-6.67-3.05-1.97-6.79-1.74-10.3-1.91-.41-.02-.82-.04-1.23-.08-2.1-.18-4.95-1.01-6.55-2.4-1.47-1.28-.92-2.5.23-3.47 1.13-.95 2.85-1.65 3.8-1.92 1.65-.45 3.36-.57 5.07-.57 1.74 0 3.49.12 5.22.12h.03c.7 0 1.39-.02 2.08-.07 3.57-.28 7.13-1.78 9.65-4.37.4-.41.77-.84 1.11-1.31 2.56-3.49 2.79-8.2-1.11-10.74-.8-.52-2.48-1.41-3.83-1.41-.53 0-1.02.14-1.39.49-.37.36-.2 1.02.03 1.47.72 1.4.49 2.58-.36 3.28-.53.44-1.29.7-2.23.7-.59 0-1.14-.04-1.7-.1-1.59-.18-3.08-1.38-4.37-2.23-1.19-.79-2.35-1.64-3.56-2.39-1.11-.68-2.26-1.29-3.51-1.68-2.77-.88-5.91-1.29-9.13-1.29-2.89 0-5.84.33-8.65.95-2.81.61-5.47 1.51-7.8 2.64-.59.29-1.16.63-1.72.98-3.97 2.52-6.91 6.55-8.07 11.05-.72 2.81-.76 5.82.11 8.74z" fill="#78a3ad"/><g><path fill="#db4437" d="M111.37 102.59l-8.43 8.41-86.31-85.73 8.43-8.41z"/></g></svg>