<svg enable-background="new 0 0 128 128" viewBox="0 0 128 128" xmlns="http://www.w3.org/2000/svg" xmlns:xlink="http://www.w3.org/1999/xlink"><path d="m36.76 60.66s-11.86 1.61-12.59 2.27-0.09 1.53 0.62 1.63c0.72 0.11 1.98 0.1 1.98 0.1-0.5 0.47-0.45 1.2 0.08 1.31 2.53 0.53 10.28-3.97 10.28-3.97l-0.37-1.34z" fill="#4D3B33" stroke="#291B16" stroke-linecap="round" stroke-linejoin="round" stroke-miterlimit="10"/><linearGradient id="d" x1="31.543" x2="54.636" y1="54.47" y2="54.47" gradientUnits="userSpaceOnUse"><stop stop-color="#5C4037" offset="0"/><stop stop-color="#70534A" offset="1"/></linearGradient><path d="m33.66 65.46c-0.73 0-1.69-1.31-2.02-2.74-0.17-0.77-0.17-1.68 0.38-1.94l10.82-5.75 0.05-0.05-0.09 0.07 0.08-0.06 0.12-0.14 6.02-11.36 5.61 2.97-6.66 12.23-0.26 0.39c-0.33 0.61-0.86 1.08-1.52 1.38l-0.46 0.21-11.78 4.72c-0.11 0.05-0.2 0.07-0.29 0.07z" fill="url(#d)"/><path d="m49.23 44.16 4.72 2.5-6.17 11.33-0.03-0.02-0.48 0.86c-0.27 0.52-0.71 0.92-1.27 1.17l-0.32 0.15-11.91 4.77-0.06 0.02c-0.03 0.01-0.04 0.01-0.05 0.01-0.35 0-1.22-0.97-1.53-2.35-0.19-0.83-0.05-1.3 0.14-1.4l10.74-5.71 0.09-0.05 0.03-0.02h0.01l0.05-0.04 0.16-0.13 0.1-0.18 5.78-10.91m-0.42-1.35-6.25 11.81c-0.01 0-0.01 0.01-0.02 0.01l-10.74 5.71c-1.84 0.88-0.01 5.63 1.86 5.63 0.16 0 0.32-0.04 0.48-0.11l12.27-4.92-0.01-0.02c0.76-0.34 1.37-0.9 1.76-1.59l0.03 0.02 7.12-13.09-6.5-3.45z" fill="#4A2F27"/><defs><path id="c" d="m33.59 59.76 1.4-0.77s-1.34-0.3-2.16-0.12c-0.43 0.1-0.84 0.25-1.31 0.42-0.88 0.32-1.98 0.71-3.75 0.93-2.66 0.31-5.92 0.19-5.95 0.19-0.05 0-0.1 0-0.14 0.01-0.58 0.15-1.01 0.54-1.16 1.06-0.14 0.48-0.01 0.98 0.33 1.35 1.01 1.06 4.63 1.25 6.81 1.12 0.62-0.04 1.71-0.08 2.6-0.12 0.16-0.01 0.23 0.1 0.25 0.15s0.06 0.17-0.04 0.28c-0.4 0.47-0.92 0.89-1.54 1.25-0.77 0.44-1.14 0.93-1.11 1.47 0.04 0.72 0.78 1.15 1.22 1.34 0.34 0.15 0.81 0.16 1.34 0.06 1.94-0.35 4.76-2.05 5.73-3 0.38-0.38 0.91-1.41 0.91-1.41l-1.33 0.43-2.1-4.64z"/></defs><clipPath id="b"><use xlink:href="#c"/></clipPath><linearGradient id="o" x1="74.32" x2="54.205" y1="18.105" y2="31.437" gradientTransform="matrix(.9843 .1766 -.1766 .9843 -19.694 23.336)" gradientUnits="userSpaceOnUse"><stop stop-color="#70534A" offset="0"/><stop stop-color="#5C4037" offset="1"/></linearGradient><path d="m36.33 60.83c-1.08-1.27-1.81-1.22-3.03-0.95-1.17 0.26-2.46 0.72-5.09 1.03-2.64 0.31-5.81 0.18-5.81 0.18-0.82 0.21-1.03 1.04-0.57 1.53 0.73 0.77 3.74 1.07 6.18 0.93 0.6-0.04 1.66-0.08 2.51-0.11 0.64-0.02 1.01 0.72 0.59 1.21-0.35 0.41-0.87 0.88-1.61 1.31-1.7 0.97-0.34 1.68 0.06 1.86 1.23 0.54 4.36-1.21 5.54-2.37 1.09-1.08 2.19-3.5 1.23-4.62z" clip-path="url(#b)" fill="url(#o)" stroke="#4A2F27" stroke-miterlimit="10"/><path d="m43.27 50.09 4.68-9.24c0.8-1.58 2.4-2.56 4.17-2.56 0.74 0 1.45 0.17 2.11 0.51l1.07 0.54c2.3 1.16 3.22 3.98 2.05 6.28l-4.68 9.24-9.4-4.77z" fill="#04A287"/><path d="m52.13 38.79c0.66 0 1.29 0.15 1.88 0.45l1.07 0.54c2.05 1.04 2.87 3.55 1.83 5.61l-4.46 8.8-8.51-4.31 4.46-8.8c0.72-1.41 2.15-2.29 3.73-2.29m0-1c-1.89 0-3.71 1.04-4.62 2.84l-4.91 9.69 10.29 5.22 4.91-9.69c1.29-2.55 0.27-5.66-2.27-6.95l-1.07-0.54c-0.75-0.39-1.55-0.57-2.33-0.57z" fill="#008F76"/><circle cx="65.86" cy="64.89" r="6.7" fill="#FBC11B"/><path d="m81.94 92.82c-0.06-0.04-0.12-0.07-0.19-0.08-1.42-0.19-2.66-0.93-3.49-2.07-0.02-0.03-0.04-0.05-0.07-0.08l-17.03-21.65 9.98-7.29 14.35 21.22c0.07 0.11 0.18 0.18 0.31 0.21l23.72 5.2-1.46 7.81-26.12-3.27z" fill="#4D3B33"/><path d="m71.02 62.37 14.06 20.79c0.14 0.21 0.36 0.36 0.61 0.42l23.25 5.1-1.28 6.87-25.53-3.2c-0.1-0.05-0.21-0.08-0.32-0.1-1.28-0.17-2.4-0.84-3.15-1.87-0.03-0.04-0.06-0.08-0.1-0.11l-16.69-21.23 9.15-6.67m0.24-1.42-10.82 7.9 17.4 22.12h0.01c0.95 1.3 2.35 2.07 3.83 2.27l-0.01 0.06 26.81 3.36 1.63-8.75-24.2-5.3-14.65-21.66z" fill="#291B16"/><polygon points="101.36 95.25 102.93 86.84 109.52 88.28 108.07 96.09" fill="#BDBDBD"/><path d="m103.33 87.44 5.61 1.23-1.28 6.87-5.71-0.71 1.38-7.39m-0.8-1.2-1.76 9.44 7.7 0.96 1.63-8.75-7.57-1.65z" fill="#ABA79F"/><circle cx="66.2" cy="65.1" r="6.7" fill="#FBC11B"/><linearGradient id="n" x1="45.932" x2="71.141" y1="89.95" y2="89.95" gradientUnits="userSpaceOnUse"><stop stop-color="#70534A" offset="0"/><stop stop-color="#5C4037" offset="1"/></linearGradient><path d="m48.73 117.68-2.69-24.33c-0.4-3.62 0.41-7.34 2.29-10.47l12.39-20.67 10.43 6.63-14.82 21.54c-0.05 0.08-0.08 0.17-0.09 0.27l-0.85 27.04-6.66-0.01z" fill="url(#n)"/><path d="m60.87 62.9 9.56 6.08-14.51 21.12c-0.11 0.16-0.17 0.34-0.18 0.54l-0.83 26.56-5.74-0.02-2.64-23.89c-0.39-3.52 0.4-7.12 2.22-10.16l12.12-20.23m-0.33-1.39-12.65 21.11c-1.94 3.24-2.77 7.03-2.35 10.78l2.74 24.78 7.61 0.02 0.86-27.53 15.1-21.97-11.31-7.19z" fill="#4A2F27"/><polygon points="48.44 116.16 47.76 108.72 55.75 108.74 55.41 116.18" fill="#E0E0E0"/><path d="m48.31 109.22 6.91 0.02-0.29 6.43-6.03-0.02-0.59-6.43m-1.1-1 0.77 8.43 7.9 0.02 0.39-8.43-9.06-0.02z" fill="#CCC7BD"/><path d="m59.78 69.24c-0.01-0.02-0.02-0.04-0.04-0.06-1.18-1.61-1.66-3.58-1.35-5.55s1.36-3.7 2.98-4.88c1.29-0.94 2.81-1.44 4.4-1.44 2.38 0 4.64 1.15 6.04 3.07l8.08 11.69-11.48 8.38-8.63-11.21z" fill="#646464"/><path d="m65.77 57.82c2.22 0 4.33 1.07 5.62 2.84l7.81 11.3-10.69 7.81-8.31-10.8c-0.01-0.02-0.03-0.05-0.05-0.07-2.27-3.1-1.58-7.47 1.52-9.73 1.2-0.89 2.62-1.35 4.1-1.35m0-1c-1.63 0-3.27 0.5-4.69 1.53-3.55 2.59-4.33 7.58-1.74 11.13l8.97 11.66 12.27-8.96-8.37-12.1c-1.56-2.13-3.98-3.26-6.44-3.26z" fill="#4F4F4F"/><path d="m52.65 73.16 7.28-12.13c0.01-0.02 0.03-0.03 0.04-0.05 1.38-2.17 3.74-3.46 6.31-3.46 1.42 0 2.8 0.4 4 1.17 1.68 1.07 2.85 2.73 3.28 4.68s0.08 3.95-0.99 5.63l-7.93 11.79-11.99-7.63z" fill="#7C7C7C"/><path d="m66.28 58.02c1.32 0 2.61 0.38 3.73 1.09 3.24 2.06 4.2 6.38 2.16 9.6l-7.66 11.4-11.18-7.11 7.02-11.68c0.02-0.02 0.03-0.04 0.05-0.07 1.28-2.02 3.48-3.23 5.88-3.23m0-1c-2.63 0-5.21 1.31-6.73 3.69l-7.57 12.61 12.82 8.15 8.21-12.21c2.36-3.71 1.26-8.64-2.45-11-1.34-0.84-2.82-1.24-4.28-1.24z" fill="#5B5B5B"/><linearGradient id="m" x1="69.09" x2="83.966" y1="171.63" y2="201.69" gradientTransform="matrix(.9787 -.2055 .2055 .9787 -62.037 -143.88)" gradientUnits="userSpaceOnUse"><stop stop-color="#70534A" offset=".55"/><stop stop-color="#5C4037" offset=".83"/><stop stop-color="#3C2B24" offset="1"/></linearGradient><path d="m60.38 12.18c-2.71-3.93-8.54-6.81-13.21-5.8-5.23 1.12-7.88 5.06-8.39 9.91-0.19 1.76-0.05 3.49 0.31 4.71 0.04 0.15 0.39 1.2 0.42 1.54 0.26 1.29-2.19 2.7-2.41 4.15-0.17 1.09 2.11 1.66 2.3 1.85 0.93 0.92-0.24 5.6 5.95 5.75 2.38 0.06 1.9-0.03 2.62 0.17 1.63 0.45 3.41 4.92 3.41 4.92s0.81 1.9 4.82 0.44c4.58-1.67 4.15-4.2 4.15-4.2s-3.88-4.83-1.83-8.88c1.99-3.95 3.6-12.04 1.86-14.56z" fill="url(#m)"/><linearGradient id="l" x1="36.878" x2="61.803" y1="24.626" y2="22.273" gradientUnits="userSpaceOnUse"><stop stop-color="#4A2F27" offset="0"/><stop stop-color="#291B16" offset="1"/></linearGradient><path d="m49.13 7.17c3.82 0 8.2 2.34 10.43 5.57 1.18 1.72 0.43 8.87-1.94 13.55-2.03 4.01 0.88 8.5 1.73 9.67-0.07 0.47-0.53 1.84-3.5 2.92-0.9 0.33-1.68 0.49-2.31 0.49-0.91 0-1.21-0.34-1.26-0.42-0.49-1.22-2.12-4.92-4.05-5.46l-0.13-0.04c-0.47-0.13-0.56-0.14-1.25-0.14-0.31 0-0.76-0.01-1.47-0.03-3.81-0.1-4.19-1.98-4.54-3.64-0.15-0.74-0.28-1.37-0.74-1.82-0.19-0.18-0.4-0.27-0.75-0.41-0.68-0.28-1.1-0.5-1.25-0.66 0.12-0.38 0.6-0.94 1-1.39 0.75-0.86 1.6-1.82 1.39-2.98-0.04-0.32-0.2-0.85-0.41-1.54l-0.04-0.13c-0.34-1.15-0.44-2.77-0.27-4.33 0.3-2.83 1.69-7.76 7.61-9.04 0.55-0.11 1.14-0.17 1.75-0.17m0-1c-0.67 0-1.33 0.06-1.96 0.2-5.23 1.12-7.88 5.06-8.39 9.91-0.19 1.76-0.05 3.49 0.31 4.71 0.04 0.15 0.39 1.2 0.42 1.54 0.26 1.29-2.19 2.7-2.41 4.15-0.17 1.09 2.11 1.66 2.3 1.85 0.93 0.92-0.24 5.6 5.95 5.75 2.38 0.06 1.9-0.03 2.62 0.17 1.63 0.45 3.41 4.92 3.41 4.92s0.42 0.99 2.17 0.99c0.67 0 1.54-0.15 2.66-0.55 4.58-1.67 4.15-4.2 4.15-4.2s-3.88-4.83-1.83-8.88c2-3.95 3.61-12.04 1.87-14.57-2.36-3.38-7.03-5.99-11.27-5.99z" fill="url(#l)"/><path d="m40.16 31.08c0.86 0.01 1.69-0.23 2.39-0.8 0.76-0.62 0.19-1.25-0.7-0.82-0.53 0.26-1.3 0.41-2.01 0.31l0.32 1.31z" fill="#1A1717"/><ellipse transform="matrix(.9968 -.0803 .0803 .9968 -1.7123 3.5565)" cx="43.37" cy="23.07" rx="1.13" ry="1.74" fill="#1A1717"/><path d="m42.37 20.55c-1.11 0.32-1.36-0.41-0.99-1 0.27-0.43 0.95-0.79 2.23-0.53 1.21 0.24 1.71 0.95 2.04 1.37s0.28 0.85 0 0.89c-0.38 0.05-1.92-1.12-3.28-0.73z" fill="#1A1717"/><radialGradient id="k" cx="27.748" cy="88.431" r="11.658" gradientTransform="matrix(1.0338 -.0991 .1013 .9951 9.1585 -74.396)" gradientUnits="userSpaceOnUse"><stop stop-color="#444140" offset="0"/><stop stop-color="#232020" offset="1"/></radialGradient><path d="m51.16 21.86 0.84-1.51c0.53-0.87 1.02-1.62 1.8-1.52 2.29 0.28 2.26 4.32-0.32 5.45 0 0 0.71 2.96 3.61 3.47 0.3 0.05 0.57 0.08 0.81 0.08 0.77 0.02 1.33-0.62 1.46-1.38 0.83-4.73 2.47-3.94 3.05-9.43 0.79-7.53-6.2-11.84-12.54-11.76-2.47 0.03-4.99 0.61-7.15 1.82-0.93 0.5-4.11 2.52-4.7 4.16-0.76 2.1 0.58 3.73 0.58 3.73s6.54-1.01 9.6-0.6c0.4 0.05 0.86 0.15 1.07 0.5 0.09 0.15 0.22 1.17 0.25 1.34 0.32 2.28 0.24 3.74 1.03 5.14 0.12 0.23 0.61 0.51 0.61 0.51z" fill="url(#k)"/><path d="m60.59 9.01c-2.44-2.68-6.73-4.28-10.73-4.23-2.69 0.03-5.24 0.68-7.38 1.87-0.04 0.02-4.11 2.33-4.93 4.42-0.87 2.23 0.12 3.44 0.36 3.65 0.42 0.39 1.17 0.17 1.17 0.17-0.61-0.55-1.1-2.18-0.63-3.5 0.52-1.41 3.46-3.36 4.49-3.91 2.01-1.12 4.4-1.72 6.93-1.75 3.73-0.05 7.74 1.43 10 3.91 1.82 1.99 2.63 4.51 2.33 7.28-0.3 2.86-0.89 3.94-1.51 5.07-0.56 1.02-1.13 2.07-1.53 4.32-0.09 0.48-1.07 1.47-0.99 1.47 1.03-0.03 1.76-0.32 1.93-1.3 0.37-2.1 0.88-3.04 1.42-4.03 0.64-1.17 1.3-2.38 1.63-5.43 0.34-3.03-0.55-5.81-2.56-8.01z" fill="#1F1D1B"/><radialGradient id="j" cx="55.021" cy="46.359" r="14.702" gradientUnits="userSpaceOnUse"><stop stop-color="#00BFA5" offset=".3637"/><stop stop-color="#00B29A" offset=".8121"/><stop stop-color="#00AB94" offset="1"/></radialGradient><path d="m55.85 67.56c-0.79 0-1.45-0.57-1.53-1.32-0.85-8.01-1.97-12.76-4.31-21.01-1.43-5.06 0.79-9.5 5.66-11.29 0.74-0.27 1.53-0.41 2.34-0.41 3.01 0 5.73 1.77 6.77 4.41 3.59 8.02 6.97 15.84 8.87 23.55 0.19 0.78-0.29 1.58-1.08 1.78-2.59 0.69-5.31 1.38-8.03 2.08-2.83 0.73-5.64 1.45-8.29 2.15-0.11 0.04-0.25 0.06-0.4 0.06z" fill="url(#j)"/><path d="m58.03 34.02c2.76 0 5.35 1.69 6.33 4.14 3.71 8.29 6.94 15.77 8.84 23.44 0.13 0.51-0.2 1.04-0.72 1.18-2.59 0.69-5.32 1.39-8.04 2.08-2.77 0.71-5.64 1.45-8.28 2.15-0.1 0.03-0.19 0.04-0.29 0.04-0.54 0-0.98-0.37-1.03-0.87-0.86-8.05-1.98-12.81-4.32-21.1-1.36-4.79 0.75-8.99 5.36-10.69 0.66-0.24 1.39-0.37 2.15-0.37m0-1c-0.86 0-1.71 0.14-2.52 0.44-4.97 1.84-7.53 6.41-5.97 11.9 2.3 8.12 3.44 12.94 4.29 20.93 0.11 1.03 1.01 1.77 2.03 1.77 0.18 0 0.36-0.02 0.55-0.07 5.19-1.38 11.04-2.83 16.32-4.23 1.04-0.28 1.69-1.34 1.43-2.39-1.95-7.87-5.37-15.74-8.89-23.61-1.18-2.97-4.22-4.74-7.24-4.74z" fill="#009984"/><linearGradient id="i" x1="63.254" x2="96.42" y1="51.045" y2="51.045" gradientUnits="userSpaceOnUse"><stop stop-color="#5C4037" offset="0"/><stop stop-color="#70534A" offset="1"/></linearGradient><path d="m96.13 60.08c-0.31-0.78-0.8-1.58-1.37-2.52-0.55-0.9-4.34-5.09-5.37-5.34-0.19-0.7-7.94-10.28-7.94-10.28v0c-0.47-0.58-1.07-0.98-1.73-1.2l-14.28-4.5-2.18 7.08 13.16 4.06s8.05 7.75 8.06 7.78c0.8 2.45-0.24 6.1 0.5 7.08 0.64 0.86 1.45 0.15 1.75-0.58 0.58-1.42-0.23-3.04 0.83-2.58 1.82 0.78 1.08 6.5 2.5 6.75 0.67 0.12 0.74-1.77 0.56-3.22-0.08-0.67-0.42-1.74-0.37-1.84 0.13-0.21 0.99 0.93 1.39 2.41 0.32 1.21-0.04 2.53 0.92 2.56 0.73 0.03 0.65-1.7 0.25-3.25-0.31-1.22-0.92-2.13-0.75-2.16 0.31-0.05 0.85 0.69 1.26 1.74 0.47 1.21 0.77 2.46 1.18 2.33 0.61-0.2 0.6-1.89 0.12-3.06-0.38-0.94-0.92-1.75-0.78-1.71 1.39 0.33 1.74 3.15 2.08 3.02 0.57-0.2 0.67-1.4 0.21-2.57z" fill="url(#i)" stroke="#4A2F27" stroke-linecap="round" stroke-linejoin="round" stroke-miterlimit="10"/><path d="m59.25 43.89c-1.2-0.35-2.19-1.14-2.79-2.23s-0.74-2.35-0.4-3.55l0.36-1.23c0.57-1.99 2.42-3.38 4.49-3.38 0.44 0 0.87 0.06 1.3 0.18l10.06 2.9-2.95 10.21-10.07-2.9z" fill="#04A287"/><path d="m60.9 33.99c0.39 0 0.78 0.06 1.16 0.16l9.58 2.77-2.67 9.25-9.58-2.77c-1.07-0.31-1.96-1.02-2.5-1.99-0.54-0.98-0.66-2.1-0.36-3.17l0.36-1.23c0.51-1.78 2.16-3.02 4.01-3.02m0-1c-2.25 0-4.31 1.47-4.97 3.74l-0.36 1.23c-0.79 2.74 0.79 5.61 3.53 6.4l10.54 3.04 3.22-11.17-10.53-3.03c-0.47-0.14-0.96-0.21-1.43-0.21z" fill="#008F76"/><path d="m40.99 123.36c-0.14 0-0.27-0.05-0.37-0.15-0.09-0.09-0.15-0.22-0.15-0.35v-1.26c0.01-1.44 0.89-2.71 2.25-3.23l5.39-2.04h7.61c0.43 0.52 1.68 2.17 1.68 3.57v2.8c0 0.17-0.07 0.33-0.19 0.46-0.12 0.12-0.29 0.19-0.47 0.19l-15.75 0.01z" fill="#4568AD"/><path d="m55.49 116.82c0.54 0.7 1.42 2.04 1.42 3.07v2.8c0 0.04-0.01 0.07-0.04 0.1-0.02 0.02-0.06 0.05-0.12 0.05l-15.77 0.02 0.01-1.26c0.01-1.23 0.77-2.32 1.92-2.77l5.3-2.01h7.28m0.47-1h-7.93l-5.48 2.07c-1.54 0.6-2.55 2.06-2.57 3.69l-0.01 1.27c0 0.55 0.45 1 1.01 1l15.76-0.02c0.64 0 1.16-0.51 1.16-1.15v-2.8c0.01-1.89-1.94-4.06-1.94-4.06z" fill="#315499"/><path d="m113.22 104.6-1.24-0.24c-1.41-0.28-2.49-1.38-2.76-2.8l-1.01-5.67 1.4-7.48c0.52-0.28 2.01-1.04 3.31-1.04 0.17 0 0.34 0.01 0.51 0.04l2.75 0.51c0.35 0.07 0.58 0.41 0.52 0.77l-2.89 15.5c-0.05 0.24-0.25 0.42-0.49 0.42-0.03 0-0.06-0.01-0.1-0.01z" fill="#325599"/><path d="m112.92 87.87c0.15 0 0.29 0.01 0.42 0.04l2.75 0.51c0.04 0.01 0.07 0.03 0.09 0.06s0.04 0.07 0.02 0.12l-2.89 15.51-1.24-0.24c-1.21-0.24-2.14-1.18-2.36-2.4l-1-5.58 1.34-7.16c0.69-0.35 1.89-0.86 2.87-0.86m0-1c-1.76 0-3.76 1.22-3.76 1.22l-1.46 7.8 1.03 5.76c0.3 1.62 1.55 2.89 3.16 3.2l1.24 0.24c0.06 0.01 0.13 0.02 0.19 0.02 0.47 0 0.9-0.34 0.99-0.83l2.89-15.5c0.12-0.63-0.29-1.23-0.91-1.35l-2.75-0.51c-0.21-0.04-0.41-0.05-0.62-0.05z" fill="#224487"/><radialGradient id="h" cx="19.497" cy="77.152" r="12.221" gradientUnits="userSpaceOnUse"><stop stop-color="#FB8C00" offset=".0169"/><stop stop-color="#F47900" offset=".4423"/><stop stop-color="#EF6C00" offset=".8381"/></radialGradient><path d="m34.85 80.96c0 6.07-5.07 11-11.33 11-6.25 0-11.32-4.93-11.32-11s5.07-11 11.32-11c6.26 0 11.33 4.92 11.33 11z" fill="url(#h)"/><defs><path id="g" d="m34.85 80.96c0 6.07-5.07 11-11.33 11-6.25 0-11.32-4.93-11.32-11s5.07-11 11.32-11c6.26 0 11.33 4.92 11.33 11z"/></defs><clipPath id="f"><use xlink:href="#g"/></clipPath><g clip-path="url(#f)"><radialGradient id="a" cx="17.566" cy="75.77" r="15.891" gradientUnits="userSpaceOnUse"><stop stop-color="#FFA726" offset=".0169"/><stop stop-color="#FC950D" offset=".4938"/><stop stop-color="#FB8C00" offset=".8381"/></radialGradient><path d="m21.16 92.57s-6.61-7.09-4.01-17.33c1.08-4.26 4.56-5.5 4.56-5.5h2.4s-4.76 0.91-5.75 6.19c-1.81 9.69 6.36 16.92 6.36 16.92l-3.56-0.28z" fill="url(#a)"/><path d="m16.06 72.13s-0.24 1.88 2.27 1.88c5.27 0 8.21-3.43 12.43-2.35l-2.2-1.1s-1.26-0.24-2.37 0.11c-1.1 0.35-4.99 2.36-7.43 2.4-2.6 0.04-1.56-1.77-1.56-1.77l-1.14 0.83z" fill="url(#a)"/><path d="m11.81 84.37s0.98-5.86 5.45-6.34c3.77-0.41 6.44 1.37 8.99 3.22 4.61 3.34 6.78 7.58 6.78 7.58l-1.58 2.36s-1.21-3.8-6.55-8.77c-2.01-1.87-4.78-3.34-7.65-3.06-4.51 0.44-3.91 8.06-3.91 8.06l-1.53-3.05z" fill="url(#a)"/><radialGradient id="e" cx="18.536" cy="76.366" r="19.528" gradientUnits="userSpaceOnUse"><stop stop-color="#FFA726" offset=".0169"/><stop stop-color="#FC950D" offset=".4938"/><stop stop-color="#FB8C00" offset=".8381"/></radialGradient><path d="m11.41 77.72s1.7-2.24 6.32-2.63c10.79-0.93 18.23 6.74 18.23 6.74l0.58 3.65s-8.48-10.02-18.89-9.22c-5.03 0.39-6.24 3.47-6.24 3.47v-2.01z" fill="url(#e)"/></g><path d="m34.85 80.96c0 6.07-5.07 11-11.33 11-6.25 0-11.32-4.93-11.32-11s5.07-11 11.32-11c6.26 0 11.33 4.92 11.33 11z" fill="none" stroke="#D95A1E" stroke-linecap="round" stroke-linejoin="round" stroke-miterlimit="10"/></svg>
