<?xml version="1.0" encoding="utf-8"?>
<!-- Generator: Adobe Illustrator 19.2.1, SVG Export Plug-In . SVG Version: 6.00 Build 0)  -->
<svg version="1.1" id="レイヤー_1" xmlns="http://www.w3.org/2000/svg" xmlns:xlink="http://www.w3.org/1999/xlink" x="0px"
	 y="0px" viewBox="0 0 128 128" style="enable-background:new 0 0 128 128;" xml:space="preserve">
<path style="fill:#00BFA5;" d="M107.14,67.4c-6.86-1.63-14.37-2.11-22.08-0.78c-7.02,1.21-13.08,4.33-16.88,9.2
	c-1.47,1.61-2.89,3.5-4.18,5.72v6.87v10.75v29.38l64-0.02V88.4C128,77.04,118.37,70.07,107.14,67.4z"/>
<path style="fill:#007689;" d="M46.99,67.69c-1.45-0.45-2.95-0.81-4.49-1.07c-7.71-1.33-14.78-0.84-21.64,0.78
	C9.63,70.07,0,77.04,0,88.4v40.12l64,0.02V99.16V88.4v-6.87C59.17,72.92,52.36,69.25,46.99,67.69z"/>
<path style="opacity:0.2;" d="M89.21,66.17c0,0-0.65,0-1.76,0.1c-0.8,0.1-1.6,0.21-2.4,0.35c-5.17,0.89-9.81,2.82-13.41,5.72
	c-0.13,0.11-0.26,0.21-0.39,0.32c-0.38,0.32-0.73,0.65-1.09,0.99c-0.19,0.18-0.37,0.34-0.56,0.53c-0.51,0.52-0.99,1.07-1.43,1.64
	c-0.28,0.31-0.56,0.64-0.84,0.97c-1.12,1.38-2.26,2.93-3.33,4.75c-4.83-8.62-11.64-12.29-17.01-13.84
	c-1.45-0.45-2.95-0.81-4.49-1.07c-0.78-0.13-1.54-0.24-2.31-0.33l-0.7,62.25L64,128.54l25.75-0.01L89.21,66.17z"/>
<g id="XMLID_334_">
	<path id="XMLID_362_" style="fill:#E59900;" d="M33.46,74.12L33.46,74.12c-3.87,0-7-3.13-7-7V60.7h14v6.42
		C40.46,70.99,37.32,74.12,33.46,74.12z"/>
	<g id="XMLID_351_">
		<g id="XMLID_358_">
			<path id="XMLID_361_" style="fill:#E59600;" d="M54.52,37.22c0,0,3.86,0.67,3.86,4.83c0,3.67-2.82,5.12-5.64,5.12v-9.95H54.52z"
				/>
			<path id="XMLID_360_" style="fill:#E59600;" d="M12.39,37.22c0,0-3.86,0.67-3.86,4.83c0,3.67,2.82,5.12,5.64,5.12v-9.95H12.39z"
				/>
		</g>
		<path id="XMLID_357_" style="fill:#FCC21B;" d="M33.46,9.98c-16.65,0-21,12.9-21,31.03c0,18.8,12.08,23.66,21,23.66
			c8.79,0,21-4.72,21-23.66C54.46,22.89,50.1,9.98,33.46,9.98z"/>
		<path id="XMLID_356_" style="fill:#444444;" d="M26.54,42.7c0,1.87-1.25,3.39-2.8,3.39c-1.55,0-2.81-1.52-2.81-3.39
			c0-1.88,1.26-3.39,2.81-3.39C25.29,39.3,26.54,40.82,26.54,42.7"/>
		<path id="XMLID_355_" style="fill:#444444;" d="M40.37,42.7c0,1.87,1.25,3.39,2.81,3.39c1.55,0,2.81-1.52,2.81-3.39
			c0-1.88-1.26-3.39-2.81-3.39C41.62,39.3,40.37,40.82,40.37,42.7"/>
		<path id="XMLID_354_" style="fill:#513F35;" d="M39.54,54.15c-0.85,0-6.08,0-6.08,0s-5.23,0-6.08,0c-0.7,0-1,0.47-0.54,1.17
			c0.65,0.98,3.04,2.87,6.61,2.87s5.97-1.89,6.61-2.87C40.53,54.62,40.23,54.15,39.54,54.15z"/>
		<path id="XMLID_353_" style="fill:#E59600;" d="M36.39,48.98c-1.03,0.29-2.11,0.44-2.94,0.44s-1.9-0.14-2.94-0.44
			c-0.44-0.13-0.62,0.29-0.46,0.57c0.33,0.58,1.65,1.74,3.39,1.74c1.74,0,3.07-1.16,3.39-1.74C37.01,49.27,36.84,48.85,36.39,48.98z
			"/>
		<path id="XMLID_352_" style="fill:#6D4C41;" d="M33.96,7.61c0,0-0.32-0.01-0.47-0.01c-0.14,0-0.47,0.01-0.47,0.01
			C15.07,7.96,9.65,18.77,9.65,26.26c0,7.28,0.01,12.63,0.01,12.63s0.29-0.3,0.81-0.71c0.56-0.44,1.19-0.68,1.19-0.68l0.91,6.08
			l5.99-12.51c0.04-0.08,0.12-0.12,0.2-0.11l3.55,0.39c3.57,0.4,7.15,0.59,10.73,0.6v0.01c0.16,0,0.31,0,0.47,0
			c0.16,0,0.31,0,0.47,0v-0.01c3.58-0.01,7.16-0.2,10.73-0.6l3.55-0.39c0.09-0.01,0.17,0.04,0.2,0.11l5.99,12.51l0.91-6.08
			c0,0,0.62,0.25,1.19,0.68c0.53,0.41,0.81,0.71,0.81,0.71s0.01-5.35,0.01-12.63C57.34,18.77,51.92,7.96,33.96,7.61z"/>
	</g>
	<path id="XMLID_350_" style="fill:#E59900;" d="M94.33,73.97L94.33,73.97c-3.87,0-7-3.13-7-7v-5.98h14v5.98
		C101.33,70.83,98.19,73.97,94.33,73.97z"/>
	<g id="XMLID_335_">
		<g id="XMLID_347_">
			<path id="XMLID_349_" style="fill:#E59600;" d="M115.61,37.22c0,0,3.86,0.67,3.86,4.83c0,3.67-2.82,5.12-5.64,5.12v-9.95H115.61z
				"/>
			<path id="XMLID_348_" style="fill:#E59600;" d="M73.48,37.22c0,0-3.86,0.67-3.86,4.83c0,3.67,2.82,5.12,5.64,5.12v-9.95H73.48z"
				/>
		</g>
		<path id="XMLID_346_" style="fill:#FCC21B;" d="M94.54,9.98c-16.65,0-21,12.9-21,31.03c0,18.8,12.08,23.66,21,23.66
			c8.79,0,21-4.72,21-23.66C115.54,22.89,111.19,9.98,94.54,9.98z"/>
		<path id="XMLID_345_" style="fill:#444444;" d="M87.63,42.7c0,1.87-1.25,3.39-2.8,3.39c-1.55,0-2.81-1.52-2.81-3.39
			c0-1.88,1.26-3.39,2.81-3.39C86.37,39.3,87.63,40.82,87.63,42.7"/>
		<path id="XMLID_344_" style="fill:#444444;" d="M101.45,42.7c0,1.87,1.25,3.39,2.81,3.39c1.55,0,2.81-1.52,2.81-3.39
			c0-1.88-1.26-3.39-2.81-3.39C102.71,39.3,101.45,40.82,101.45,42.7"/>
		<path id="XMLID_343_" style="fill:#513F35;" d="M100.62,54.15c-0.85,0-6.08,0-6.08,0s-5.23,0-6.08,0c-0.7,0-1,0.47-0.54,1.17
			c0.65,0.98,3.04,2.87,6.61,2.87s5.97-1.89,6.61-2.87C101.62,54.62,101.32,54.15,100.62,54.15z"/>
		<path id="XMLID_342_" style="fill:#E59600;" d="M97.48,48.98c-1.03,0.29-2.11,0.44-2.94,0.44c-0.83,0-1.9-0.14-2.94-0.44
			c-0.44-0.13-0.62,0.29-0.46,0.57c0.33,0.58,1.65,1.74,3.39,1.74c1.74,0,3.07-1.16,3.39-1.74C98.09,49.27,97.92,48.85,97.48,48.98z
			"/>
		<path id="XMLID_341_" style="fill:#6D4C41;" d="M95.04,7.61c0,0-0.32-0.01-0.47-0.01c-0.14,0-0.47,0.01-0.47,0.01
			C76.15,7.96,70.73,18.77,70.73,26.26c0,7.28,0.01,12.63,0.01,12.63s0.29-0.3,0.81-0.71c0.56-0.44,1.19-0.68,1.19-0.68l0.91,6.08
			l5.99-12.51c0.04-0.08,0.12-0.12,0.2-0.11l3.55,0.39c3.57,0.4,7.15,0.59,10.73,0.6v0.01c0.16,0,0.31,0,0.47,0
			c0.16,0,0.31,0,0.47,0v-0.01c3.58-0.01,7.16-0.2,10.73-0.6l3.55-0.39c0.09-0.01,0.17,0.04,0.2,0.11l5.99,12.51l0.91-6.08
			c0,0,0.62,0.25,1.19,0.68c0.53,0.41,0.81,0.71,0.81,0.71s0.01-5.35,0.01-12.63C118.42,18.77,113.01,7.96,95.04,7.61z"/>
	</g>
</g>
<g id="XMLID_1875_">
	<path id="XMLID_4603_" style="fill:#B2DFDB;" d="M109.85,129.12H66.72c-0.31,0,0-7.14,0-7.14c0-9.84,12.53-13.14,16.88-13.14h9.38
		c4.35,0,16.87,3.3,16.87,13.14v0.28C109.85,122.61,110.15,129.12,109.85,129.12z"/>
	<path id="XMLID_4602_" style="fill:#E59900;" d="M88.28,116.3L88.28,116.3c-2.59,0-4.69-2.1-4.69-4.69v-3.6h9.39v3.6
		C92.97,114.2,90.87,116.3,88.28,116.3z"/>
	<g id="XMLID_359_">
		<ellipse id="XMLID_340_" style="fill:#6D4C41;" cx="88.28" cy="85.9" rx="20.7" ry="19.49"/>
		<g id="XMLID_337_">
			<path id="XMLID_339_" style="fill:#E59600;" d="M105.24,90.72c0,0,3.15,0.55,3.15,3.94c0,3-2.3,4.18-4.6,4.18v-8.12H105.24z"/>
			<path id="XMLID_338_" style="fill:#E59600;" d="M71.33,90.72c0,0-3.15,0.55-3.15,3.94c0,3,2.3,4.18,4.6,4.18v-8.12H71.33z"/>
		</g>
		<g id="XMLID_333_">
			<path style="fill:#FCC21B;" d="M100.28,80.53c-2.87-3.57-7.81-5.11-12-5.11c-4.18,0-9.13,1.53-12,5.11
				c-2.81,3.5-4.28,8.01-4.26,14.07c0.02,4.89,1.28,8.64,4.82,11.6c3.28,2.74,7.08,4.22,11.19,4.22c4.04,0,8.5-1.41,11.66-4.19
				c3.47-3.05,4.81-6.74,4.83-11.62C104.56,88.54,103.08,84.03,100.28,80.53z"/>
		</g>
		<path id="XMLID_332_" style="fill:#E59600;" d="M90.66,98.27c-0.84,0.24-1.7,0.35-2.37,0.35c-0.67,0-1.54-0.12-2.37-0.35
			c-0.36-0.1-0.5,0.24-0.37,0.46c0.27,0.47,1.33,1.41,2.74,1.41c1.41,0,2.48-0.94,2.74-1.41C91.16,98.51,91.01,98.17,90.66,98.27z"
			/>
		<path id="XMLID_329_" style="fill:#513F35;" d="M93.2,102.13c-0.69,0-4.91,0-4.91,0s-4.22,0-4.91,0c-0.56,0-0.81,0.38-0.43,0.95
			c0.52,0.79,2.46,2.32,5.35,2.32s4.82-1.53,5.34-2.32C94,102.51,93.76,102.13,93.2,102.13z"/>
		<g id="XMLID_320_">
			<path id="XMLID_322_" style="fill:#444444;" d="M81.78,94.74c0,1.45-0.97,2.62-2.17,2.62c-1.2,0-2.17-1.17-2.17-2.62
				c0-1.45,0.98-2.63,2.17-2.63C80.81,92.12,81.78,93.29,81.78,94.74"/>
			<path id="XMLID_321_" style="fill:#444444;" d="M99.13,94.74c0,1.45-0.97,2.62-2.17,2.62c-1.2,0-2.17-1.17-2.17-2.62
				c0-1.45,0.98-2.63,2.17-2.63C98.16,92.12,99.13,93.29,99.13,94.74"/>
		</g>
		<path id="XMLID_318_" style="fill:#6D4C41;" d="M71.13,93.62c0,0,4.72-4.94,6.45-6.6c0.11-0.11,0.29-0.02,0.27,0.14
			c-0.07,0.69-0.12,1.44-0.15,1.89c-0.01,0.21,0.18,0.38,0.39,0.34c3.39-0.64,6.65-2.05,7.52-2.45c0.11-0.05,0.22,0.04,0.22,0.15
			c-0.02,0.63-0.01,1.23,0,1.59c0,0.2,0.18,0.35,0.38,0.32c3.11-0.48,5.7-1.75,6.56-2.21c0.2-0.11,0.42-0.13,0.64-0.05
			c1.61,0.58,3.57,1.72,4.28,2.14c0.16,0.09,0.36,0.04,0.45-0.12c0.27-0.49,0.65-1.24,0.82-1.6c0.05-0.1,0.18-0.12,0.25-0.05
			c2.53,2.5,6.23,6.5,6.23,6.5l2.61-8.38c0,0-4.23-14.91-18.92-14.91S68.88,86.24,68.88,86.24L71.13,93.62z"/>
	</g>
</g>
<rect id="XMLID_4739_" x="-0.07" y="96.97" style="fill:#FCC21B;" width="8.19" height="31.59"/>
<rect id="XMLID_4738_" x="120.07" y="96.97" style="fill:#FCC21B;" width="8" height="31.59"/>
<g id="XMLID_1899_">
	<path id="XMLID_4717_" style="fill:#D8BEFF;" d="M60.83,129.16H17.02c-0.31,0,0-7.79,0-7.79c0-10,12.73-13.35,17.15-13.35h9.52
		c4.42,0,17.13,3.35,17.13,13.35v0.28C60.83,122.01,61.14,129.16,60.83,129.16z"/>
	<path id="XMLID_4716_" style="fill:#E59900;" d="M39.4,116.3h-0.96c-2.37,0-4.29-1.92-4.29-4.29v-2.38h9.53v2.38
		C43.69,114.38,41.77,116.3,39.4,116.3z"/>
	<g id="XMLID_675_">
		<ellipse id="XMLID_733_" style="fill:#6D4C41;" cx="38.99" cy="85.52" rx="20.7" ry="19.1"/>
		<g id="XMLID_714_">
			<path id="XMLID_716_" style="fill:#E59600;" d="M55.94,90.72c0,0,3.15,0.55,3.15,3.94c0,3-2.3,4.18-4.6,4.18v-8.12H55.94z"/>
			<path id="XMLID_715_" style="fill:#E59600;" d="M22.04,90.72c0,0-3.15,0.55-3.15,3.94c0,3,2.3,4.18,4.6,4.18v-8.12H22.04z"/>
		</g>
		<g id="XMLID_690_">
			<g id="XMLID_712_">
				<path style="fill:#6D4C41;" d="M52.58,99.94c1.69,0.07,3.21,0.77,4.07,2.29c0.39,0.7,0.67,1.56,0.81,2.35
					c0.12,0.69,0.01,2.08,0.61,2.59c0.27,0.23,0.83,0.27,0.99,0.61c0.43,0.94-1.68,1.96-2.23,2.13c-3.59,1.14-8.59-0.17-9.53-4.35
					C46.6,102.39,49.47,99.82,52.58,99.94z"/>
			</g>
			<g id="XMLID_692_">
				<path style="fill:#6D4C41;" d="M25.55,99.95c-1.69,0.04-3.23,0.71-4.11,2.22c-0.41,0.7-0.7,1.54-0.85,2.33
					c-0.14,0.69-0.04,2.08-0.66,2.58c-0.28,0.22-0.84,0.25-1,0.6c-0.44,0.94,1.65,1.99,2.19,2.17c3.57,1.21,8.6-0.02,9.6-4.18
					C31.48,102.5,28.66,99.88,25.55,99.95z"/>
			</g>
		</g>
		<g id="XMLID_689_">
			<path style="fill:#FCC21B;" d="M50.99,80.54c-2.87-3.57-7.81-5.11-12-5.11c-4.18,0-9.12,1.53-11.99,5.11
				c-2.8,3.49-4.28,8.01-4.26,14.07c0.02,4.88,1.28,8.64,4.82,11.59c3.28,2.74,7.07,4.22,11.18,4.22c4.04,0,8.5-1.41,11.66-4.19
				c3.47-3.05,4.81-6.73,4.83-11.62C55.27,88.54,53.79,84.03,50.99,80.54z"/>
		</g>
		<path id="XMLID_688_" style="fill:#E59600;" d="M41.37,98.27c-0.84,0.24-1.7,0.35-2.37,0.35s-1.54-0.12-2.37-0.35
			c-0.36-0.1-0.5,0.24-0.37,0.46c0.27,0.47,1.33,1.41,2.74,1.41c1.41,0,2.48-0.94,2.74-1.41C41.86,98.51,41.72,98.17,41.37,98.27z"
			/>
		<path id="XMLID_687_" style="fill:#513F35;" d="M43.9,102.13c-0.69,0-4.91,0-4.91,0s-4.22,0-4.91,0c-0.56,0-0.8,0.38-0.43,0.95
			c0.52,0.79,2.46,2.32,5.34,2.32c2.89,0,4.82-1.53,5.34-2.32C44.71,102.51,44.47,102.13,43.9,102.13z"/>
		<path id="XMLID_680_" style="fill:#6D4C41;" d="M57.14,77.82l-13.51-9h-4.65h-0.02h-0.02h-4.65l-13.51,9L19,84.19l1.86,5.72
			l1.32,2.53c7.13-1.62,14.29-6.61,16.54-9.41c0.12-0.15,0.35-0.15,0.48,0c2.26,2.8,9.25,7.72,16.54,9.41l1.31-2.53l1.86-5.72
			L57.14,77.82z"/>
		<g id="XMLID_676_">
			<path id="XMLID_679_" style="fill:#444444;" d="M32.49,94.75c0,1.45-0.97,2.62-2.17,2.62c-1.2,0-2.17-1.17-2.17-2.62
				c0-1.45,0.98-2.63,2.17-2.63C31.52,92.12,32.49,93.29,32.49,94.75"/>
			<path id="XMLID_677_" style="fill:#444444;" d="M49.84,94.75c0,1.45-0.97,2.62-2.17,2.62c-1.2,0-2.17-1.17-2.17-2.62
				c0-1.45,0.98-2.63,2.17-2.63C48.87,92.12,49.84,93.29,49.84,94.75"/>
		</g>
	</g>
</g>
</svg>
