<?xml version="1.0" encoding="utf-8"?>
<!-- Generator: Adobe Illustrator 16.0.0, SVG Export Plug-In . SVG Version: 6.00 Build 0)  -->
<!DOCTYPE svg PUBLIC "-//W3C//DTD SVG 1.1//EN" "http://www.w3.org/Graphics/SVG/1.1/DTD/svg11.dtd">
<svg version="1.1" id="レイヤー_1" xmlns="http://www.w3.org/2000/svg" xmlns:xlink="http://www.w3.org/1999/xlink" x="0px"
	 y="0px" width="128px" height="128px" viewBox="0 0 128 128" enable-background="new 0 0 128 128" xml:space="preserve">
<g>
	<path fill="#2F2F2F" d="M95.25,46.94c-1.43,0-2.82,0.14-4.2,0.33c1.89-3.93,2.98-8.31,2.98-12.96C94.03,17.76,80.56,4.28,64,4.28
		c-16.55,0-30.02,13.47-30.02,30.03c0,4.64,1.09,9.03,2.98,12.96c-1.38-0.19-2.77-0.33-4.2-0.33c-16.55,0-30.02,13.47-30.02,30.02
		C2.73,93.52,16.2,107,32.75,107c8.93,0,16.94-3.94,22.45-10.15c-2.93,14.28-7.7,22.99-7.77,23.12c-0.44,0.78-0.43,1.73,0.02,2.51
		c0.45,0.77,1.28,1.25,2.18,1.25h28.75c0.89,0,1.72-0.48,2.17-1.25c0.45-0.77,0.46-1.73,0.03-2.51c-0.07-0.13-4.84-8.83-7.77-23.12
		c5.5,6.21,13.51,10.15,22.44,10.15c16.56,0,30.02-13.47,30.02-30.03C125.27,60.41,111.8,46.94,95.25,46.94z"/>
	<path fill="#FFFFFF" d="M78.38,124.98H49.63c-1.33,0-2.58-0.71-3.26-1.87c-0.68-1.16-0.69-2.6-0.04-3.76
		c0.17-0.31,3.89-7.25,6.7-18.61c-5.64,4.82-12.82,7.52-20.27,7.52c-17.25,0-31.29-14.04-31.29-31.29
		c0-17.25,14.04-31.29,31.29-31.29c0.69,0,1.41,0.03,2.17,0.09c-1.47-3.68-2.21-7.52-2.21-11.46C32.71,17.06,46.75,3.02,64,3.02
		c17.25,0,31.29,14.04,31.29,31.29c0,3.94-0.74,7.78-2.21,11.46c0.76-0.06,1.48-0.09,2.17-0.09c17.25,0,31.29,14.04,31.29,31.29
		c0,17.25-14.04,31.29-31.29,31.29c-7.45,0-14.63-2.7-20.27-7.52c2.81,11.36,6.53,18.3,6.71,18.62c0.65,1.16,0.63,2.6-0.05,3.75
		C80.95,124.26,79.71,124.98,78.38,124.98z M57.38,92.49l-0.94,4.61c-2.86,13.93-7.39,22.53-7.9,23.46c-0.23,0.41-0.22,0.89,0,1.27
		c0.22,0.38,0.64,0.62,1.09,0.62h28.75c0.44,0,0.86-0.24,1.09-0.62c0.22-0.38,0.23-0.86,0.01-1.25c-0.52-0.96-5.05-9.56-7.91-23.48
		l-0.94-4.61l3.12,3.52c5.48,6.18,13.31,9.73,21.5,9.73c15.86,0,28.77-12.91,28.77-28.77c0-15.86-12.9-28.76-28.77-28.76
		c-1.19,0-2.47,0.1-4.02,0.32l-2.33,0.33l1.02-2.12c1.9-3.94,2.86-8.12,2.86-12.41C92.77,18.45,79.86,5.54,64,5.54
		c-15.86,0-28.77,12.91-28.77,28.77c0,4.29,0.96,8.47,2.86,12.41l1.02,2.12l-2.33-0.33c-1.56-0.22-2.84-0.32-4.03-0.32
		c-15.86,0-28.77,12.9-28.77,28.76c0,15.86,12.9,28.77,28.77,28.77c8.18,0,16.02-3.54,21.5-9.73L57.38,92.49z"/>
</g>
</svg>
