<svg width="128" height="128" style="enable-background:new 0 0 128 128;" xmlns="http://www.w3.org/2000/svg" xmlns:xlink="http://www.w3.org/1999/xlink">
  <g>
    <radialGradient id="SVGID_1_" cx="64.3333" cy="38.5" gradientTransform="matrix(4.499940e-11 1 -0.6832 3.074161e-11 90.6348 -25.8333)" gradientUnits="userSpaceOnUse" r="105.1492">
      <stop offset="0" style="stop-color:#FF7043"/>
      <stop offset="0.2253" style="stop-color:#FF6C3D"/>
      <stop offset="0.5238" style="stop-color:#FF5F2C"/>
      <stop offset="0.6641" style="stop-color:#FF5722"/>
      <stop offset="1" style="stop-color:#E64A19"/>
    </radialGradient>
    <rect height="99.24" style="fill:url(#SVGID_1_);" width="112" x="8" y="20"/>
    <linearGradient id="SVGID_2_" gradientUnits="userSpaceOnUse" x1="42.1628" x2="10.3751" y1="69.6179" y2="69.6179">
      <stop offset="0" style="stop-color:#A04128"/>
      <stop offset="1" style="stop-color:#A04128;stop-opacity:0"/>
    </linearGradient>
    <rect height="99.24" style="opacity:0.5;fill:url(#SVGID_2_);" width="55.21" x="8" y="20"/>
    <linearGradient id="SVGID_3_" gradientUnits="userSpaceOnUse" x1="85.8423" x2="112.0313" y1="69.6179" y2="69.6179">
      <stop offset="0" style="stop-color:#A04128"/>
      <stop offset="1" style="stop-color:#A04128;stop-opacity:0"/>
    </linearGradient>
    <polygon points="64.79,119.24 120,119.24 120,20 64.79,20 " style="opacity:0.5;fill:url(#SVGID_3_);"/>
    <radialGradient id="SVGID_4_" cx="64" cy="-14.4583" gradientTransform="matrix(4.499940e-11 1 -1.5427 6.942093e-11 41.695 -78.4583)" gradientUnits="userSpaceOnUse" r="43.5922">
      <stop offset="0" style="stop-color:#607D8B"/>
      <stop offset="1" style="stop-color:#37474F"/>
    </radialGradient>
    <path d="M124,20H4L18.83,5.17C19.58,4.42,20.6,4,21.66,4h84.69c1.06,0,2.08,0.42,2.83,1.17L124,20z" style="fill:url(#SVGID_4_);"/>
    <path d="M94.7,116h-6.2c-0.28,0-0.5-0.22-0.5-0.5v-4.93c0-0.28,0.22-0.5,0.5-0.5h6.2 c0.28,0,0.5,0.22,0.5,0.5v4.93C95.2,115.78,94.98,116,94.7,116z" style="fill:#BF360C;"/>
    <g>
      <defs>
        <path id="SVGID_5_" d="M109.17,5.17C108.42,4.42,107.4,4,106.34,4H21.66c-1.06,0-2.08,0.42-2.83,1.17L4,20h4v99.24h112V20h4 L109.17,5.17z"/>
      </defs>
      <clipPath id="SVGID_6_">
        <use style="overflow:visible;" xlink:href="#SVGID_5_"/>
      </clipPath>
    </g>
    <path d="M122,22H6c-1.1,0-2-0.9-2-2v0h120v0C124,21.1,123.1,22,122,22z" style="fill:#455A64;"/>
    <radialGradient id="SVGID_7_" cx="63.25" cy="16.4986" gradientUnits="userSpaceOnUse" r="107.9628">
      <stop offset="0" style="stop-color:#FF8A65"/>
      <stop offset="0.1293" style="stop-color:#FF8660"/>
      <stop offset="0.2767" style="stop-color:#FF7C53"/>
      <stop offset="0.3887" style="stop-color:#FF7043"/>
      <stop offset="0.5669" style="stop-color:#FC6C3E"/>
      <stop offset="0.7703" style="stop-color:#F45F30"/>
      <stop offset="0.9854" style="stop-color:#E64B1A"/>
      <stop offset="0.9912" style="stop-color:#E64A19"/>
    </radialGradient>
    <path d="M64,19.71c-0.2,0-24,10-24,10v2V123h48V27.71v2L64,19.71z" style="fill:url(#SVGID_7_);"/>
    <path d="M62.9,16.26L37.37,27.03C36.53,27.44,36,28.3,36,29.24v0c0,1.36,1.11,2.47,2.47,2.47H40v-2 l22.9-9.45c0.7-0.35,1.51-0.35,2.21,0L88,29.71v2h1.53c1.36,0,2.47-1.11,2.47-2.47v0c0-0.94-0.53-1.79-1.37-2.21L65.1,16.26 C64.41,15.91,63.59,15.91,62.9,16.26z" style="fill:#546E7A;"/>
    <path d="M18.66,106.68H8.41c-0.23,0-0.41-0.19-0.41-0.41v-3.47c0-0.23,0.19-0.41,0.41-0.41h10.24 c0.23,0,0.41,0.19,0.41,0.41v3.47C19.07,106.49,18.88,106.68,18.66,106.68z" style="fill:#BF360C;"/>
    <path d="M113.43,55.69h-7.53c-0.28,0-0.5-0.22-0.5-0.5v-4.87c0-0.28,0.22-0.5,0.5-0.5h7.53 c0.28,0,0.5,0.22,0.5,0.5v4.87C113.93,55.46,113.71,55.69,113.43,55.69z" style="fill:#E64A19;"/>
    <path d="M22.43,48.19H14.9c-0.28,0-0.5-0.22-0.5-0.5v-4.87c0-0.28,0.22-0.5,0.5-0.5h7.53 c0.28,0,0.5,0.22,0.5,0.5v4.87C22.93,47.96,22.71,48.19,22.43,48.19z" style="fill:#E64A19;"/>
    <path d="M119.5,97.23h-8.25c-0.28,0-0.5-0.22-0.5-0.5v-4.28c0-0.28,0.22-0.5,0.5-0.5h8.25 c0.28,0,0.5,0.22,0.5,0.5v4.28C120,97.01,119.78,97.23,119.5,97.23z" style="fill:#BF360C;"/>
    <path d="M119.5,110.14h-13.14c-0.28,0-0.5-0.22-0.5-0.5v-5.34c0-0.28,0.22-0.5,0.5-0.5h13.14 c0.28,0,0.5,0.22,0.5,0.5v5.34C120,109.92,119.78,110.14,119.5,110.14z" style="fill:#BF360C;"/>
    <path d="M26.23,116H16.21c-0.28,0-0.5-0.22-0.5-0.5v-5.57c0-0.28,0.22-0.5,0.5-0.5h10.02 c0.28,0,0.5,0.22,0.5,0.5v5.57C26.73,115.78,26.51,116,26.23,116z" style="fill:#BF360C;"/>
    <path d="M87.5,57.76h-7.89c-0.28,0-0.5-0.22-0.5-0.5v-3.27c0-0.28,0.22-0.5,0.5-0.5h7.89 c0.28,0,0.5,0.22,0.5,0.5v3.27C88,57.53,87.78,57.76,87.5,57.76z" style="fill:#FF7043;"/>
    <path d="M46.48,86.18H40.5c-0.28,0-0.5-0.22-0.5-0.5v-5.22c0-0.28,0.22-0.5,0.5-0.5h5.98 c0.28,0,0.5,0.22,0.5,0.5v5.22C46.98,85.96,46.75,86.18,46.48,86.18z" style="fill:#E64A19;"/>
    <path d="M87.5,67H76.91c-0.28,0-0.5-0.22-0.5-0.5v-5.74c0-0.28,0.22-0.5,0.5-0.5H87.5 c0.28,0,0.5,0.22,0.5,0.5v5.74C88,66.77,87.78,67,87.5,67z" style="fill:#E64A19;"/>
    <path d="M51.09,104.12H40.5c-0.28,0-0.5-0.22-0.5-0.5v-5.74c0-0.28,0.22-0.5,0.5-0.5h10.59 c0.28,0,0.5,0.22,0.5,0.5v5.74C51.59,103.9,51.36,104.12,51.09,104.12z" style="fill:#E64A19;"/>
    <path d="M59.88,113.17H47.96c-0.28,0-0.5-0.22-0.5-0.5v-5.03c0-0.28,0.22-0.5,0.5-0.5h11.91 c0.28,0,0.5,0.22,0.5,0.5v5.03C60.38,112.94,60.15,113.17,59.88,113.17z" style="fill:#FF7043;"/>
    <path d="M77,105.04H65.09c-0.28,0-0.5-0.22-0.5-0.5v-5.03c0-0.28,0.22-0.5,0.5-0.5H77 c0.28,0,0.5,0.22,0.5,0.5v5.03C77.5,104.82,77.28,105.04,77,105.04z" style="fill:#FF7043;"/>
    <path d="M52.41,77.92H40.5c-0.28,0-0.5-0.22-0.5-0.5v-5.03c0-0.28,0.22-0.5,0.5-0.5h11.91 c0.28,0,0.5,0.22,0.5,0.5v5.03C52.91,77.69,52.69,77.92,52.41,77.92z" style="fill:#FF7043;"/>
    <path d="M87.5,83.76h-5.89c-0.28,0-0.5-0.22-0.5-0.5v-5.93c0-0.28,0.22-0.5,0.5-0.5h5.89 c0.28,0,0.5,0.22,0.5,0.5v5.93C88,83.54,87.78,83.76,87.5,83.76z" style="fill:#E64A19;"/>
    <path d="M124,124H4v-4c0-2.21,1.79-4,4-4h112c2.21,0,4,1.79,4,4V124z" style="fill:#546E7A;"/>
    <path d="M55.11,96.25h17.78c0.61,0,1.11-0.45,1.11-1v-0.54c0-0.65-0.45-1.22-1.12-1.45l-8.66-1.88 c-0.25-0.08-0.53-0.08-0.78,0l-8.34,1.87c-0.66,0.23-1.1,0.8-1.1,1.44v0.55C54,95.8,54.5,96.25,55.11,96.25z" style="fill:#80311A;"/>
    <rect height="20" style="fill:#4FC3F7;" width="14" x="57" y="96"/>
    <g>
      <rect height="20" style="fill:#80311A;" width="2" x="56" y="96"/>
      <rect height="20" style="fill:#80311A;" width="2" x="70" y="96"/>
    </g>
    <g>
      <g>
        <rect height="20" style="fill:#4FC3F7;" width="9.9" x="21.22" y="81"/>
        <path d="M32,80H20v22h12V80z M30.06,100h-8v-8h8V100z M30.06,90h-8v-8h8V90z" style="fill:#80311A;"/>
      </g>
      <path d="M33,100H19c-0.55,0-1,0.45-1,1l0,0c0,0.55,0.45,1,1,1h14c0.55,0,1-0.45,1-1l0,0 C34,100.45,33.55,100,33,100z" style="fill:#80311A;"/>
      <path d="M18.89,82h14.22C33.6,82,34,81.64,34,81.19v-0.44c0-0.52-0.36-0.99-0.9-1.17l-6.93-1.53 c-0.2-0.07-0.42-0.07-0.63,0l-6.67,1.52C18.35,79.76,18,80.22,18,80.74v0.45C18,81.64,18.4,82,18.89,82z" style="fill:#80311A;"/>
    </g>
    <g>
      <g>
        <rect height="20" style="fill:#4FC3F7;" width="9.9" x="21.22" y="39"/>
        <path d="M32,38H20v22h12V38z M30.06,58h-8v-8h8V58z M30.06,48h-8v-8h8V48z" style="fill:#80311A;"/>
      </g>
      <path d="M33,58H19c-0.55,0-1,0.45-1,1l0,0c0,0.55,0.45,1,1,1h14c0.55,0,1-0.45,1-1l0,0 C34,58.45,33.55,58,33,58z" style="fill:#80311A;"/>
      <path d="M18.89,40h14.22C33.6,40,34,39.64,34,39.19v-0.44c0-0.52-0.36-0.99-0.9-1.17l-6.93-1.53 c-0.2-0.07-0.42-0.07-0.63,0l-6.67,1.52C18.35,37.76,18,38.22,18,38.74v0.45C18,39.64,18.4,40,18.89,40z" style="fill:#80311A;"/>
    </g>
    <g>
      <g>
        <rect height="20" style="fill:#4FC3F7;" width="9.9" x="97.22" y="81"/>
        <path d="M108,80H96v22h12V80z M106.06,100h-8v-8h8V100z M106.06,90h-8v-8h8V90z" style="fill:#80311A;"/>
      </g>
      <path d="M109,100H95c-0.55,0-1,0.45-1,1l0,0c0,0.55,0.45,1,1,1h14c0.55,0,1-0.45,1-1l0,0 C110,100.45,109.55,100,109,100z" style="fill:#80311A;"/>
      <path d="M94.89,82h14.22c0.49,0,0.89-0.36,0.89-0.81v-0.44c0-0.52-0.36-0.99-0.9-1.17l-6.93-1.53 c-0.2-0.07-0.42-0.07-0.63,0l-6.67,1.52C94.35,79.76,94,80.22,94,80.74v0.45C94,81.64,94.4,82,94.89,82z" style="fill:#80311A;"/>
    </g>
    <g>
      <g>
        <rect height="20" style="fill:#4FC3F7;" width="9.9" x="97.22" y="39"/>
        <path d="M108,38H96v22h12V38z M106.06,58h-8v-8h8V58z M106.06,48h-8v-8h8V48z" style="fill:#80311A;"/>
      </g>
      <path d="M109,58H95c-0.55,0-1,0.45-1,1l0,0c0,0.55,0.45,1,1,1h14c0.55,0,1-0.45,1-1l0,0 C110,58.45,109.55,58,109,58z" style="fill:#80311A;"/>
      <path d="M94.89,40h14.22c0.49,0,0.89-0.36,0.89-0.81v-0.44c0-0.52-0.36-0.99-0.9-1.17l-6.93-1.53 c-0.2-0.07-0.42-0.07-0.63,0l-6.67,1.52C94.35,37.76,94,38.22,94,38.74v0.45C94,39.64,94.4,40,94.89,40z" style="fill:#80311A;"/>
    </g>
    <g style="opacity:0.2;">
      <path d="M106.34,7c0.27,0,0.52,0.1,0.71,0.29L118.76,19H117v3v94v3h3c0.55,0,1,0.45,1,1v1H7v-1 c0-0.55,0.45-1,1-1h3v-3V22v-3H9.24L20.95,7.29C21.14,7.1,21.39,7,21.66,7H106.34 M106.34,4H21.66c-1.06,0-2.08,0.42-2.83,1.17 L4,20c0,1.1,0.9,2,2,2h2v94c-2.21,0-4,1.79-4,4v4h120v-4c0-2.21-1.79-4-4-4V22h2c1.1,0,2-0.9,2-2L109.17,5.17 C108.42,4.42,107.4,4,106.34,4L106.34,4z" style="fill:#424242;"/>
    </g>
    <g style="opacity:0.2;">
      <path d="M70.64,36.5c0.79,0,1.62,0.04,2.48,0.11c4.9,0.44,8.78,2.05,8.9,3.64l0.02,0 c0,0-0.01,0.01-0.02,0.02c0,0.05,0,0.1,0,0.14c-0.04,0.43-0.41,0.73-0.89,1.13c-2.74,2.28-4.18,5.24-5.25,7.82 c-3.79,9.17-8.75,14.38-15.92,15.48c-0.63,0.13-1.29,0.2-1.96,0.2h-9.62v0.15c0,0.17-0.13,0.3-0.3,0.3h-1.8 c-0.17,0-0.3-0.13-0.3-0.3v-0.15v-3.61v-0.15c0-0.17,0.13-0.3,0.3-0.3h1.8c0.17,0,0.3,0.13,0.3,0.3v0.15h2.12 c-1.32-1.65-2.12-3.73-2.12-6.01c0-5.31,4.31-9.62,9.62-9.62c4.02,0,7.46,2.47,8.9,5.97c0.48-4.12,0.29-7-0.67-9.2 c-0.44-1.01-1.16-1.87-1.96-2.63c-0.41-0.39-0.62-0.79-0.58-1.19C63.8,37.39,66.74,36.5,70.64,36.5 M57.99,61.44 c3.31,0,6.01-2.7,6.01-6.01c0-3.31-2.7-6.01-6.01-6.01c-3.31,0-6.01,2.7-6.01,6.01C51.98,58.75,54.68,61.44,57.99,61.44 M70.64,34.5c-5.45,0-8.72,1.49-8.95,4.08c-0.06,0.71,0.09,1.77,1.19,2.82c0.75,0.71,1.22,1.34,1.5,1.98 c0.34,0.79,0.57,1.72,0.68,2.83c-1.98-1.52-4.45-2.39-7.07-2.39c-6.41,0-11.62,5.21-11.62,11.62c0,1.21,0.19,2.41,0.56,3.56 h-0.67c-1.27,0-2.3,1.03-2.3,2.3v0.15v3.61v0.15c0,1.27,1.03,2.3,2.3,2.3h1.8c0.51,0,0.98-0.17,1.37-0.45h8.55 c0.77,0,1.55-0.08,2.31-0.23c7.67-1.2,13.21-6.5,17.42-16.68c1.03-2.49,2.31-5.08,4.68-7.05c0.64-0.53,1.49-1.24,1.6-2.49 c0-0.05,0.01-0.1,0.01-0.15c0.02-0.21,0.01-0.42-0.04-0.62c-0.67-4.08-8.98-5.04-10.68-5.2C72.4,34.54,71.5,34.5,70.64,34.5 L70.64,34.5z M57.99,59.44c-2.21,0-4.01-1.8-4.01-4.01s1.8-4.01,4.01-4.01c2.21,0,4.01,1.8,4.01,4.01S60.2,59.44,57.99,59.44 L57.99,59.44z" style="fill:#424242;"/>
    </g>
    <g>
      <linearGradient id="SVGID_8_" gradientUnits="userSpaceOnUse" x1="64" x2="64" y1="34.924" y2="70.988">
        <stop offset="0" style="stop-color:#FFFF00"/>
        <stop offset="0.7489" style="stop-color:#FFF000"/>
        <stop offset="1" style="stop-color:#FFEA00"/>
      </linearGradient>
      <path d="M82.01,40.26c-0.11-1.59-4-3.2-8.9-3.64c-5.06-0.46-9.29,0.5-9.43,2.15 c-0.04,0.4,0.17,0.8,0.58,1.19c0.8,0.76,1.52,1.62,1.96,2.63c0.96,2.21,1.15,5.09,0.67,9.2c-1.44-3.5-4.88-5.97-8.9-5.97 c-5.31,0-9.62,4.31-9.62,9.62c0,2.28,0.79,4.36,2.12,6.01h-2.12v-0.15c0-0.17-0.13-0.3-0.3-0.3h-1.8c-0.17,0-0.3,0.13-0.3,0.3 v0.15v3.61v0.15c0,0.17,0.13,0.3,0.3,0.3h1.8c0.17,0,0.3-0.13,0.3-0.3v-0.15h9.62c0.67,0,1.33-0.07,1.96-0.2 c7.17-1.1,12.13-6.3,15.92-15.48c1.07-2.58,2.51-5.54,5.25-7.82c0.48-0.4,0.85-0.7,0.89-1.13c0-0.05,0-0.1,0-0.14 c0.01-0.01,0.02-0.02,0.02-0.02L82.01,40.26z M57.99,61.44c-3.31,0-6.01-2.7-6.01-6.01s2.7-6.01,6.01-6.01 c3.31,0,6.01,2.7,6.01,6.01S61.3,61.44,57.99,61.44z" style="fill:url(#SVGID_8_);"/>
    </g>
  </g>
</svg>