<?xml version="1.0" encoding="UTF-8" standalone="no"?>
<svg
   xmlns:dc="http://purl.org/dc/elements/1.1/"
   xmlns:cc="http://creativecommons.org/ns#"
   xmlns:rdf="http://www.w3.org/1999/02/22-rdf-syntax-ns#"
   xmlns:svg="http://www.w3.org/2000/svg"
   xmlns="http://www.w3.org/2000/svg"
   xmlns:sodipodi="http://sodipodi.sourceforge.net/DTD/sodipodi-0.dtd"
   xmlns:inkscape="http://www.inkscape.org/namespaces/inkscape"
   width="128"
   height="128"
   style="enable-background:new 0 0 128 128;"
   version="1.1"
   id="svg28"
   sodipodi:docname="emoji_u1f4d6.svg"
   inkscape:version="0.92+devel unknown">
  <sodipodi:namedview
     inkscape:snap-bbox-edge-midpoints="false"
     inkscape:snap-nodes="true"
     inkscape:bbox-paths="true"
     inkscape:bbox-nodes="true"
     inkscape:snap-bbox="true"
     inkscape:snap-global="true"
     pagecolor="#ffffff"
     bordercolor="#666666"
     inkscape:document-rotation="0"
     borderopacity="1"
     objecttolerance="10"
     gridtolerance="10"
     guidetolerance="10"
     inkscape:pageopacity="0"
     inkscape:pageshadow="2"
     inkscape:window-width="1680"
     inkscape:window-height="986"
     id="namedview30"
     showgrid="false"
     inkscape:zoom="4"
     inkscape:cx="77.315531"
     inkscape:cy="56.765056"
     inkscape:window-x="0"
     inkscape:window-y="27"
     inkscape:window-maximized="1"
     inkscape:current-layer="svg28" />
  <metadata
     id="metadata34">
    <rdf:RDF>
      <cc:Work
         rdf:about="">
        <dc:format>image/svg+xml</dc:format>
        <dc:type
           rdf:resource="http://purl.org/dc/dcmitype/StillImage" />
      </cc:Work>
    </rdf:RDF>
  </metadata>
  <defs
     id="defs32">
    <linearGradient
       y2="3.2762001"
       y1="65.666603"
       x2="63.790001"
       x1="63.790001"
       gradientUnits="userSpaceOnUse"
       id="SVGID_1_">
      <stop
         id="stop2"
         style="stop-color:#FCC21B"
         offset="0" />
      <stop
         id="stop4"
         style="stop-color:#E5BF34"
         offset="0.1512" />
      <stop
         id="stop6"
         style="stop-color:#ABB973"
         offset="0.4726" />
      <stop
         id="stop8"
         style="stop-color:#4FAFD8"
         offset="0.9352" />
      <stop
         id="stop10"
         style="stop-color:#42ADE7"
         offset="1" />
    </linearGradient>
  </defs>
  <path
     style="vector-effect:none;fill:#daa841;stroke:none;stroke-width:4;paint-order:stroke fill markers;fill-opacity:1"
     d="m 41.480469,31.935547 c 0.539403,-0.0015 1.077494,0.0078 1.615234,0.0293 2.86821,0.114593 5.710852,0.564238 8.492188,1.445312 4.308861,1.363684 8.148656,3.760812 11.248047,7.576172 l 1.162109,1.429688 1.166015,-1.427735 c 3.111037,-3.81809 6.939711,-6.214514 11.257813,-7.578125 h 0.002 c 11.125299,-3.524296 23.209097,-0.154083 34.130862,4.011719 l -0.006,-0.0039 c 1.39232,0.539131 2.91661,1.041181 4.14844,1.701172 1.23184,0.65999 2.0942,1.411634 2.48632,2.416015 h -0.002 c 0.98954,2.539536 1.1581,6.082526 1.50781,9.240235 l 0.002,0.0098 0.0605,0.492188 v 0.002 c 0.51172,4.042117 2.29754,13.958579 3.97266,24.164062 1.67511,10.205484 3.22306,20.753738 3.25586,25.318361 v 0.0137 0.0137 c -10e-4,-0.0541 -0.0239,0.38045 -0.0801,0.85742 -0.0561,0.47698 -0.13565,1.07766 -0.21875,1.70118 -0.16619,1.24704 -0.34577,2.53832 -0.38867,3.39648 v 0.002 c -0.10826,2.1877 0.13306,4.21522 0.0684,6.08203 l -0.008,0.23633 0.0644,0.22852 c 0.0663,0.23194 0.0407,0.31365 -0.12305,0.51172 l -0.10351,0.12304 -0.0723,0.14258 c -0.1128,0.21751 -0.18588,0.25841 -0.34961,0.31641 l -0.35742,0.125 -0.25391,0.28125 c -0.12291,0.13553 -0.23787,0.18093 -0.76758,0.11523 -0.5297,-0.0657 -1.24844,-0.31475 -1.92578,-0.53515 h -0.002 -0.002 c -11.69706,-3.78253 -24.432426,-3.61591 -36.289065,-2.03907 -2.111388,0.27422 -4.210424,0.61831 -6.296875,1.02344 h -0.002 -0.002 c -2.298787,0.45117 -4.407047,1.24363 -6.44336,1.96875 -1.626415,0.57743 -3.325732,1.05733 -5.019531,1.38086 l -0.0293,0.006 -0.03125,0.006 c -1.155284,0.27077 -2.398338,0.38086 -2.757812,0.38086 -0.03211,0 -0.222418,-0.0293 -0.570313,-0.0293 h -0.03906 l -0.03906,0.002 c -0.236354,0.0124 -0.372996,0.0244 -0.472656,0.0254 -0.401627,-0.008 -1.628685,-0.11841 -2.787109,-0.38086 l -0.02539,-0.006 -0.02539,-0.004 c -1.693187,-0.32342 -3.391698,-0.80371 -5.017578,-1.38086 h -0.002 c -2.034332,-0.72444 -4.132624,-1.51754 -6.43164,-1.96875 h -0.002 -0.002 c -2.088445,-0.40552 -4.189304,-0.75105 -6.302734,-1.02539 l 0.0039,0.002 c -11.865521,-1.57713 -24.592247,-1.74338 -36.2890624,2.03907 -0.6888863,0.21722 -1.4094084,0.46475 -1.9394531,0.53125 -0.5332959,0.0669 -0.6460817,0.0227 -0.7675781,-0.11133 l -0.25,-0.27735 -0.3496094,-0.12695 c -0.1613096,-0.0583 -0.2533002,-0.11378 -0.359375,-0.31836 l -0.074219,-0.14258 -0.1015624,-0.12304 c -0.163785,-0.19807 -0.1893149,-0.27978 -0.1230469,-0.51172 l 0.068359,-0.24024 -0.013672,-0.24804 c -0.091591,-1.84098 0.1493293,-3.87065 0.041016,-6.0586 v -0.002 c -0.043095,-0.86189 -0.2277964,-2.15069 -0.3964844,-3.39648 -0.084344,-0.6229 -0.1637211,-1.22217 -0.2207031,-1.69922 -0.056982,-0.47706 -0.080701,-0.91058 -0.082031,-0.85938 v -0.0137 -0.0137 C 2.0570414,96.194997 3.6054082,85.648962 5.2792969,75.443359 6.9531856,65.237756 8.7364941,55.32062 9.2480469,51.279297 v -0.002 l 0.0625,-0.492188 v -0.0098 c 0.3495668,-3.166664 0.5178454,-6.699612 1.5078121,-9.240235 v -0.0039 l 0.002,-0.002 c 0.387714,-1.005308 1.248107,-1.758419 2.482422,-2.417969 1.233615,-0.659175 2.761372,-1.156173 4.152344,-1.689453 l 0.002,-0.002 c 7.678209,-2.928895 15.932396,-5.462325 24.023438,-5.484375 z"
     id="path4316" />
  <path
     style="vector-effect:none;fill:#ffffff;stroke:none;stroke-width:4;paint-order:stroke fill markers;fill-opacity:1"
     d="m 87.027344,33.890625 c -0.614238,-0.01024 -1.23325,-0.0034 -1.855469,0.02148 h -0.002 c -3.545875,0.13914 -6.987213,1.079283 -10.119141,2.730469 -1.514894,0.79465 -2.924626,1.727066 -4.257812,2.71875 -0.0013,9e-4 -0.0026,0.003 -0.0039,0.0039 -0.0011,9e-4 -0.0028,0.0011 -0.0039,0.002 -1.234926,0.906359 -2.872516,1.959827 -4.117187,3.419921 l -0.0039,0.0059 -0.0059,0.0059 c -1.084243,1.301091 -1.518036,2.714683 -1.623047,4.021484 l -0.0078,0.09375 0.0039,0.09375 c 0.317363,7.105974 0.451514,19.575949 0.490234,30.556641 0.01936,5.490346 0.01576,10.612613 0,14.517578 -0.01576,3.904966 -0.04903,6.684415 -0.07031,7.171875 v 0.0332 0.0332 c 0,0.06714 -0.02454,0.253679 -0.03906,0.558594 l -0.0078,0.173824 0.03125,0.16993 c 0.06122,0.33061 0.233121,0.82451 0.662109,1.19922 0.428988,0.37467 0.994489,0.50781 1.453125,0.50781 1.165376,0 1.863533,-0.53404 2.267578,-0.7461 l 0.0059,-0.004 c 0.933649,-0.4815 1.874935,-0.95204 2.814453,-1.402346 l 0.0098,-0.0039 c 6.032518,-2.840096 12.355233,-4.321433 19.019531,-4.535157 l -0.002,0.002 c 4.510246,-0.137567 9.033634,0.07846 13.480464,0.705078 3.82361,0.549033 7.59673,1.391805 11.26758,2.53711 l 0.004,0.002 h 0.006 c 0.99655,0.303298 1.93789,0.534686 2.54883,0.84375 0.21318,0.109168 0.5243,0.361671 1.20312,0.470703 0.67955,0.109151 1.6516,-0.294029 2.1211,-0.863281 0.7269,-0.878253 0.74961,-1.88505 0.69531,-2.642578 -0.0539,-0.751438 -0.20756,-1.398486 -0.25196,-1.736328 l -0.002,-0.01563 c -0.22275,-1.911146 -0.49442,-3.798986 -0.76367,-5.673828 v -0.0039 -0.0039 c -1.25795,-8.423222 -2.95659,-16.718298 -4.09766,-25.033203 -0.50621,-3.682436 -0.91674,-7.407145 -1.38867,-11.142578 v -0.002 c -0.24187,-1.924706 -0.51479,-3.85301 -0.82812,-5.773438 -0.18369,-1.126324 -0.29007,-2.209388 -0.72657,-3.335937 -0.4365,-1.12655 -1.27246,-2.218015 -2.57812,-3.0625 v 0.002 C 108.3442,37.913016 103.71651,36.850775 99.472656,35.822266 95.43806,34.844449 91.327011,33.962295 87.027344,33.890625 Z"
     id="path4314" />
  <path
     style="vector-effect:none;fill:#ffffff;stroke:none;stroke-width:4;paint-order:stroke fill markers;fill-opacity:1"
     d="m 40.933594,33.904297 c -4.297602,0.07647 -8.410379,0.949362 -12.447266,1.927734 -4.246011,1.029033 -8.870923,2.101742 -12.871094,4.689453 v -0.002 c -1.305658,0.844485 -2.141627,1.937904 -2.578125,3.064453 -0.436498,1.12655 -0.542869,2.207661 -0.726562,3.333985 -0.313435,1.921064 -0.586198,3.850048 -0.828125,5.77539 -0.482189,3.727503 -0.892255,7.463065 -1.388672,11.146485 -1.1409227,8.322541 -2.8283109,16.603788 -4.0957031,25.021484 -0.2931683,1.900539 -0.5456971,3.798919 -0.7675781,5.705078 -0.038189,0.326345 -0.1895398,0.984022 -0.2421876,1.740235 -0.052465,0.753584 -0.02797,1.754244 0.6933594,2.630859 0.4688649,0.574257 1.4416747,0.98099 2.1171875,0.873047 0.6716628,-0.107327 0.9867886,-0.356524 1.203125,-0.46875 0.6270372,-0.313511 1.5682339,-0.54295 2.5585939,-0.847656 l 0.0039,-0.002 h 0.002 c 3.673167,-1.146029 7.44509,-1.998592 11.263672,-2.53711 4.450509,-0.627388 8.96343,-0.852374 13.470703,-0.705078 h 0.002 c 6.678073,0.213854 13.00282,1.694636 19.027344,4.537109 h 0.002 l 0.002,0.002 c 0.936802,0.439128 1.877022,0.908138 2.808594,1.398438 l 0.002,0.002 h 0.002 c 0.385598,0.20118 1.077789,0.7609 2.273438,0.7461 0.456941,-0.002 1.017299,-0.13178 1.443359,-0.50391 0.428988,-0.37469 0.60089,-0.8686 0.66211,-1.19922 l 0.03125,-0.16992 -0.0078,-0.173828 c -0.01226,-0.257458 -0.03332,-0.468317 -0.04102,-0.63086 l 0.002,0.0059 c -0.02123,-0.486471 -0.05338,-3.266888 -0.06836,-7.171875 -0.01493,-3.904988 -0.01808,-9.027168 0.002,-14.517578 0.03997,-10.980822 0.173871,-23.451418 0.486329,-30.558594 l 0.0039,-0.09375 -0.0078,-0.0918 C 62.820928,45.52524 62.384309,44.108829 61.291016,42.808594 h -0.002 c -1.236363,-1.478318 -2.884185,-2.520571 -4.107421,-3.427735 l -0.0078,-0.0059 c -1.344081,-1.00988 -2.766409,-1.930816 -4.261719,-2.720703 h -0.002 C 49.785289,35.00149 46.334896,34.060718 42.789062,33.921875 h -0.002 c -0.621802,-0.02358 -1.239571,-0.0285 -1.853515,-0.01758 z"
     id="rect4299" />
  <path
     inkscape:connector-curvature="0"
     id="path4340"
     d="m 41.480471,31.935547 c -8.091042,0.02205 -16.345228,2.55548 -24.023437,5.484375 l -0.002,0.002 c -1.390972,0.53328 -2.918729,1.030278 -4.152344,1.689453 -1.234315,0.65955 -2.094709,1.412661 -2.482422,2.417969 l -0.002,0.002 v 0.0039 c -0.9899671,2.540623 -1.1582461,6.073571 -1.5078129,9.240235 v 0.0098 l -0.0625,0.492188 v 0.002 C 8.7364023,55.32079 6.9531878,65.237756 5.2792991,75.443359 3.6054104,85.648962 2.0570436,96.194998 2.0195335,100.76172 v 0.0137 0.0137 c 0.00133,-0.0512 0.025049,0.38232 0.082031,0.85938 0.056982,0.47705 0.1363591,1.07632 0.2207031,1.69922 0.168688,1.24579 0.3533894,2.53459 0.3964844,3.39648 v 0.002 c 0.1083137,2.18795 -0.1326066,4.21762 -0.041016,6.0586 l 0.013672,0.24804 -0.068359,0.24024 c -0.066268,0.23194 -0.040738,0.31365 0.1230469,0.51172 l 0.1015625,0.12304 0.074219,0.14258 c 0.1060748,0.20458 0.1980654,0.26006 0.359375,0.31836 l 0.3496094,0.12695 0.25,0.27735 c 0.1214964,0.13403 0.2342822,0.17823 0.7675781,0.11133 0.5300447,-0.0665 1.2505668,-0.31403 1.9394531,-0.53125 11.6968152,-3.78245 24.4235422,-3.6162 36.2890632,-2.03907 l -0.0039,-0.002 c 2.11343,0.27434 4.21429,0.61987 6.302735,1.02539 h 0.002 0.002 c 2.299016,0.45121 4.397309,1.24431 6.431641,1.96875 h 0.002 c 1.62588,0.57715 3.324391,1.05744 5.017578,1.38086 l 0.02539,0.004 0.02539,0.006 c 1.158424,0.26245 2.385483,0.37286 2.78711,0.38086 0.09966,-0.001 0.236302,-0.013 0.472656,-0.0254 l 0.03906,-0.002 h 0.03906 c 0.347895,0 0.538202,0.0293 0.570312,0.0293 0.359474,0 1.602529,-0.11009 2.757813,-0.38086 l 0.03125,-0.006 0.0293,-0.006 c 1.693799,-0.32353 3.393116,-0.80343 5.019531,-1.38086 2.036313,-0.72512 4.144572,-1.51758 6.443359,-1.96875 h 0.002 0.002 c 2.086451,-0.40513 4.185487,-0.74922 6.296875,-1.02344 11.856639,-1.57684 24.592002,-1.74346 36.289062,2.03907 h 0.002 0.002 c 0.67734,0.2204 1.39607,0.46945 1.92578,0.53515 0.52971,0.0657 0.64467,0.0203 0.76758,-0.11523 l 0.25391,-0.28125 0.35742,-0.125 c 0.16373,-0.058 0.23681,-0.0989 0.34961,-0.31641 l 0.0723,-0.14258 0.10352,-0.12304 c 0.16374,-0.19807 0.18934,-0.27978 0.12304,-0.51172 l -0.0644,-0.22852 0.008,-0.23633 c 0.0647,-1.86681 -0.17666,-3.89433 -0.0684,-6.08203 v -0.002 c 0.0429,-0.85816 0.22249,-2.14944 0.38868,-3.39648 0.0831,-0.62352 0.16265,-1.2242 0.21875,-1.70118 0.0562,-0.47697 0.0791,-0.91152 0.0801,-0.85742 v -0.0137 -0.0137 c -0.0328,-4.564622 -1.58074,-15.112877 -3.25585,-25.318361 -1.67512,-10.205483 -3.46094,-20.121945 -3.97266,-24.164062 v -0.002 l -0.0605,-0.492188 -0.002,-0.0098 c -0.34971,-3.157709 -0.51827,-6.700699 -1.50781,-9.240235 h 0.002 c -0.39212,-1.004381 -1.25449,-1.756025 -2.48633,-2.416015 -1.23183,-0.659991 -2.75612,-1.162041 -4.14844,-1.701172 l 0.006,0.0039 C 99.633716,33.255835 87.54913,29.88586 76.423831,33.410156 h -0.002 c -4.318102,1.363611 -8.146777,3.760035 -11.257813,7.578125 l -1.166016,1.427735 -1.162109,-1.429688 c -3.099391,-3.81536 -6.939186,-6.212488 -11.248047,-7.576172 -2.781336,-0.881074 -5.623977,-1.330719 -8.492187,-1.445312 -0.53774,-0.02148 -1.075832,-0.03077 -1.615235,-0.0293 z m 45.546875,1.955078 c 4.299667,0.07167 8.410717,0.953824 12.445313,1.931641 4.243851,1.028509 8.871541,2.09075 12.882811,4.689453 v -0.002 c 1.30566,0.844485 2.14163,1.93595 2.57813,3.0625 0.4365,1.126549 0.54287,2.209613 0.72656,3.335937 0.31333,1.920428 0.58626,3.848732 0.82813,5.773438 v 0.002 c 0.47193,3.735433 0.88246,7.460142 1.38867,11.142578 1.14107,8.314905 2.83971,16.609981 4.09766,25.033203 v 0.0039 0.0039 c 0.26925,1.874842 0.54092,3.762682 0.76367,5.673828 l 0.002,0.01563 c 0.0444,0.337842 0.19805,0.98489 0.25195,1.736328 0.0543,0.757528 0.0316,1.764325 -0.69531,2.642578 -0.4695,0.569252 -1.44154,0.972432 -2.12109,0.863281 -0.67882,-0.109032 -0.98995,-0.361535 -1.20313,-0.470703 -0.61094,-0.309064 -1.55228,-0.540452 -2.54883,-0.84375 h -0.006 l -0.004,-0.002 c -3.67085,-1.145305 -7.44397,-1.988078 -11.26758,-2.53711 -4.44683,-0.626617 -8.970226,-0.842645 -13.480472,-0.705078 l 0.002,-0.002 c -6.664298,0.213724 -12.987012,1.695061 -19.019531,4.535157 l -0.0098,0.0039 c -0.939518,0.450306 -1.880805,0.920846 -2.814454,1.402346 l -0.0059,0.004 c -0.404045,0.21206 -1.102202,0.7461 -2.267578,0.7461 -0.458636,0 -1.024137,-0.13314 -1.453125,-0.50781 -0.428988,-0.3747 -0.600889,-0.86861 -0.66211,-1.19922 l -0.03125,-0.16993 0.0078,-0.173824 c 0.01452,-0.304915 0.03906,-0.491454 0.03906,-0.558594 v -0.0332 -0.0332 c 0.02128,-0.48746 0.05455,-3.266909 0.07031,-7.171875 0.01576,-3.904965 0.01936,-9.027232 0,-14.517578 -0.03872,-10.980692 -0.172871,-23.450668 -0.490234,-30.556641 l -0.0039,-0.09375 0.0078,-0.09375 c 0.105011,-1.306802 0.538804,-2.720393 1.623047,-4.021484 l 0.0059,-0.0059 0.0039,-0.0059 c 1.244671,-1.460094 2.882262,-2.513562 4.117188,-3.419921 0.0011,-9e-4 0.0028,-0.0011 0.0039,-0.002 0.0013,-9e-4 0.0026,-0.003 0.0039,-0.0039 1.333186,-0.991684 2.742919,-1.9241 4.257813,-2.71875 3.131928,-1.651186 6.573266,-2.591329 10.119141,-2.730469 h 0.002 c 0.622219,-0.0249 1.24123,-0.03172 1.855468,-0.02148 z m -46.09375,0.01367 c 0.613944,-0.01092 1.231714,-0.006 1.853516,0.01758 h 0.002 c 3.545833,0.138843 6.996227,1.079615 10.121094,2.732422 h 0.002 c 1.49531,0.789887 2.917638,1.710823 4.261719,2.720703 l 0.0078,0.0059 c 1.223236,0.907164 2.871058,1.949417 4.107422,3.427735 0,0 0.002,0 0.002,0 1.093293,1.300235 1.529913,2.716646 1.634766,4.021484 l 0.0078,0.0918 -0.0039,0.09375 c -0.312458,7.107176 -0.446358,19.577772 -0.486328,30.558594 -0.02003,5.49041 -0.01693,10.61259 -0.002,14.517578 0.01498,3.904987 0.04713,6.685404 0.06836,7.171875 l -0.002,-0.0059 c 0.0077,0.162543 0.02876,0.373402 0.04102,0.63086 l 0.0078,0.173828 -0.03125,0.16992 c -0.06122,0.33062 -0.233121,0.82453 -0.662109,1.19922 -0.42606,0.37213 -0.986418,0.50191 -1.443359,0.50391 -1.195649,0.0148 -1.88784,-0.54492 -2.273438,-0.7461 h -0.002 l -0.002,-0.002 c -0.931572,-0.4903 -1.871792,-0.95931 -2.808594,-1.398438 l -0.002,-0.002 h -0.002 C 49.305391,96.944543 42.98081,95.463854 36.302737,95.25 h -0.002 c -4.507273,-0.147296 -9.020194,0.07769 -13.470703,0.705078 -3.818582,0.538518 -7.590505,1.391081 -11.263672,2.53711 h -0.002 l -0.0039,0.002 C 10.570102,98.798894 9.6289926,99.028286 9.0019554,99.341797 8.785619,99.454023 8.4704932,99.70322 7.7988304,99.810547 7.1233176,99.91849 6.1505077,99.511757 5.6816428,98.9375 4.9603135,98.060885 4.9358185,97.060225 4.9882835,96.306641 5.0409312,95.550428 5.192282,94.892751 5.230471,94.566406 5.452352,92.660247 5.7048808,90.761867 5.9980491,88.861328 7.2654413,80.443632 8.9528303,72.162385 10.093753,63.839844 c 0.496417,-3.68342 0.906483,-7.418982 1.388672,-11.146485 0.241927,-1.925342 0.514689,-3.854326 0.828124,-5.77539 0.183693,-1.126324 0.290065,-2.207435 0.726563,-3.333985 0.436498,-1.126549 1.272467,-2.219968 2.578125,-3.064453 v 0.002 c 4.000171,-2.587711 8.625083,-3.66042 12.871094,-4.689453 4.036887,-0.978372 8.149663,-1.851266 12.447265,-1.927734 z"
     style="color:#000000;font-style:normal;font-variant:normal;font-weight:normal;font-stretch:normal;font-size:medium;line-height:normal;font-family:sans-serif;font-variant-ligatures:normal;font-variant-position:normal;font-variant-caps:normal;font-variant-numeric:normal;font-variant-alternates:normal;font-variant-east-asian:normal;font-feature-settings:normal;text-indent:0;text-align:start;text-decoration:none;text-decoration-line:none;text-decoration-style:solid;text-decoration-color:#000000;letter-spacing:normal;word-spacing:normal;text-transform:none;writing-mode:lr-tb;direction:ltr;text-orientation:mixed;dominant-baseline:auto;baseline-shift:baseline;text-anchor:start;white-space:normal;shape-padding:0;clip-rule:nonzero;display:inline;overflow:visible;visibility:visible;isolation:auto;mix-blend-mode:normal;color-interpolation:sRGB;color-interpolation-filters:linearRGB;solid-color:#000000;solid-opacity:1;vector-effect:none;fill:#2f2f2f;fill-opacity:1;fill-rule:nonzero;stroke:none;stroke-width:3;stroke-linecap:butt;stroke-linejoin:miter;stroke-miterlimit:4;stroke-dasharray:none;stroke-dashoffset:0;stroke-opacity:1;color-rendering:auto;image-rendering:auto;shape-rendering:auto;text-rendering:auto;enable-background:accumulate" />
  <path
     sodipodi:nodetypes="scccccccsssccccccccccccccccccccscccccccccccccccccccccccccccccccccccccccscc"
     inkscape:connector-curvature="0"
     id="path4370"
     d="m 95.017581,98.654297 c -1.080953,-0.01017 -2.1636,0.0021 -3.246094,0.03516 h -0.0293 c -6.209396,0.203945 -12.026173,1.569163 -17.625,4.205073 h -0.002 l -0.08984,0.0449 c -0.865723,0.41629 -1.735213,0.85119 -2.603515,1.29883 l -0.01563,0.008 c 0.223271,-0.11308 -1.653227,1.13282 -3.855469,1.13282 -0.166513,0 -0.426506,-0.19822 -0.519531,-0.0371 -0.270844,0.46912 -0.129927,7.25957 0.04883,7.90234 0.147589,0.5307 2.814488,-0.68 4.189453,-1.16797 1.996916,-0.71109 4.280712,-1.58208 6.9375,-2.10351 l 0.01172,-0.002 0.316406,-0.0625 h 0.06641 c 2.024118,-0.38572 4.060548,-0.72707 6.115234,-0.99414 11.922164,-1.58555 24.887885,-1.78168 37.111335,2.00977 h 0.0664 c -0.0447,-1.26281 -0.12863,-2.48615 -0.0508,-4.21485 v -0.0508 l 0.004,-0.082 v -0.004 c 0.0578,-1.15597 0.24665,-2.42594 0.41016,-3.65039 -0.74383,0.26838 -1.5482,0.45678 -2.62891,0.2832 -1.31506,-0.21123 -2.63337,-1.00956 -2.21289,-0.79883 0.0314,0.0162 -0.7757,-0.24027 -1.51953,-0.47266 h -0.29492 l -0.39844,-0.19921 c -3.42926,-1.05927 -6.95489,-1.858166 -10.53711,-2.373048 -3.17641,-0.447596 -6.405584,-0.676512 -9.648443,-0.707031 z m -62.066406,0.0039 c -3.233513,0.02945 -6.455532,0.264167 -9.638672,0.712891 -3.570946,0.503595 -7.09936,1.311262 -10.541016,2.374992 l 0.07617,-0.0391 -0.253906,0.0781 -0.01953,0.006 c -0.04912,0.0151 -0.04152,0.0124 -0.08984,0.0273 l -0.388672,0.12305 h -0.0039 c -0.747901,0.2335 -1.551375,0.48832 -1.546874,0.48632 0.243532,-0.11659 -0.9377104,0.58717 -2.2011728,0.78907 -1.0694976,0.1709 -1.8640528,-0.0135 -2.5976562,-0.27735 0.1646402,1.21074 0.3597627,2.46871 0.4179687,3.63282 v 0.004 l 0.00391,0.082 v 0.0879 l -0.00391,-0.16992 c 0.090905,1.83629 0.00608,3.08721 -0.029297,4.36914 12.2420983,-3.81718 25.2278293,-3.62079 37.1816413,-2.0332 v -0.002 c 2.061395,0.26758 4.104413,0.61137 6.132812,0.99804 h 0.06641 l 0.316406,0.0625 h 0.002 l 0.0098,0.002 c 2.407456,0.47249 4.417798,1.2385 6.269531,1.90429 h 0.09375 l 0.560547,0.19727 c 1.291202,0.45834 2.495661,0.97519 3.940447,1.08565 0.345353,-0.38441 0.04702,-4.69145 0.07053,-7.03717 -0.0011,-0.6938 -0.26386,-0.74031 -0.327385,-0.73989 -1.378799,0.0138 -2.448889,-0.39542 -3.16211,-0.74414 -0.395833,-0.20507 -0.791667,-0.41015 -1.1875,-0.61523 -0.527383,-0.27278 -1.054978,-0.53239 -1.582031,-0.78711 h 0.03711 l -0.632812,-0.29688 c -0.01818,-0.008 -0.03652,-0.0183 -0.05469,-0.0273 l -0.546875,-0.25586 C 48.011499,100.66126 41.294331,98.898456 36.193453,98.6974 h -0.0059 c -1.079378,-0.03527 -2.158491,-0.04888 -3.236328,-0.03906 z"
     style="color:#000000;font-style:normal;font-variant:normal;font-weight:normal;font-stretch:normal;font-size:medium;line-height:normal;font-family:sans-serif;font-variant-ligatures:normal;font-variant-position:normal;font-variant-caps:normal;font-variant-numeric:normal;font-variant-alternates:normal;font-variant-east-asian:normal;font-feature-settings:normal;text-indent:0;text-align:start;text-decoration:none;text-decoration-line:none;text-decoration-style:solid;text-decoration-color:#000000;letter-spacing:normal;word-spacing:normal;text-transform:none;writing-mode:lr-tb;direction:ltr;text-orientation:mixed;dominant-baseline:auto;baseline-shift:baseline;text-anchor:start;white-space:normal;shape-padding:0;clip-rule:nonzero;display:inline;overflow:visible;visibility:visible;isolation:auto;mix-blend-mode:normal;color-interpolation:sRGB;color-interpolation-filters:linearRGB;solid-color:#000000;solid-opacity:1;vector-effect:none;fill:#ffffff;fill-opacity:1;fill-rule:nonzero;stroke:none;stroke-width:6.90000057;stroke-linecap:butt;stroke-linejoin:miter;stroke-miterlimit:4;stroke-dasharray:none;stroke-dashoffset:0;stroke-opacity:1;color-rendering:auto;image-rendering:auto;shape-rendering:auto;text-rendering:auto;enable-background:accumulate" />
  <path
     sodipodi:nodetypes="cc"
     inkscape:connector-curvature="0"
     id="path7177"
     d="m 37.386719,44.027344 c -9.355408,0.691075 -17.992188,4.27539 -17.992188,4.27539"
     style="opacity:1;vector-effect:none;fill:none;fill-opacity:1;fill-rule:evenodd;stroke:#131849;stroke-width:2.48;stroke-linecap:round;stroke-linejoin:round;stroke-miterlimit:4;stroke-dasharray:none;stroke-dashoffset:0;stroke-opacity:1" />
  <path
     sodipodi:nodetypes="cc"
     inkscape:connector-curvature="0"
     id="path7179"
     d="M 37.386719,53.630859 C 27.346085,54.315815 17.734375,58.169922 17.734375,58.169922"
     style="opacity:1;vector-effect:none;fill:none;fill-opacity:1;fill-rule:evenodd;stroke:#131849;stroke-width:2.48;stroke-linecap:round;stroke-linejoin:round;stroke-miterlimit:4;stroke-dasharray:none;stroke-dashoffset:0;stroke-opacity:1" />
  <path
     sodipodi:nodetypes="cc"
     inkscape:connector-curvature="0"
     id="path7181"
     d="m 15.911421,68.035658 c 0,0 26.214078,-10.499633 37.873927,-1.666717"
     style="opacity:1;vector-effect:none;fill:none;fill-opacity:1;fill-rule:evenodd;stroke:#131849;stroke-width:2.48;stroke-linecap:round;stroke-linejoin:round;stroke-miterlimit:4;stroke-dasharray:none;stroke-dashoffset:0;stroke-opacity:1" />
  <path
     sodipodi:nodetypes="cc"
     style="opacity:1;vector-effect:none;fill:none;fill-opacity:1;fill-rule:evenodd;stroke:#131849;stroke-width:2.48;stroke-linecap:round;stroke-linejoin:round;stroke-miterlimit:4;stroke-dasharray:none;stroke-dashoffset:0;stroke-opacity:1"
     d="m 14.915183,77.901739 c 0,0 27.210316,-10.494206 38.870165,-1.66129"
     id="path7183"
     inkscape:connector-curvature="0" />
  <path
     sodipodi:nodetypes="cc"
     inkscape:connector-curvature="0"
     id="path7185"
     d="m 13.970001,87.767824 c 0,0 28.155498,-11.203104 39.815347,-2.370188"
     style="opacity:1;vector-effect:none;fill:none;fill-opacity:1;fill-rule:evenodd;stroke:#131849;stroke-width:2.48;stroke-linecap:round;stroke-linejoin:round;stroke-miterlimit:4;stroke-dasharray:none;stroke-dashoffset:0;stroke-opacity:1" />
  <g
     transform="matrix(-1,0,0,1,127.51832,0.629776)"
     id="g7204"
     style="stroke-width:2.48;stroke-miterlimit:4;stroke-dasharray:none;stroke:#131849;stroke-opacity:1">
    <path
       inkscape:connector-curvature="0"
       id="path7194"
       d="m 18.912222,48.30349 c 0,0 22.731599,-9.46503 34.391448,-0.632114"
       style="opacity:1;vector-effect:none;fill:none;fill-opacity:1;fill-rule:evenodd;stroke:#131849;stroke-width:2.48;stroke-linecap:round;stroke-linejoin:round;stroke-miterlimit:4;stroke-dasharray:none;stroke-dashoffset:0;stroke-opacity:1" />
    <path
       sodipodi:nodetypes="cc"
       style="opacity:1;vector-effect:none;fill:none;fill-opacity:1;fill-rule:evenodd;stroke:#131849;stroke-width:2.48;stroke-linecap:round;stroke-linejoin:round;stroke-miterlimit:4;stroke-dasharray:none;stroke-dashoffset:0;stroke-opacity:1"
       d="m 17.25265,58.169576 c 0,0 24.391171,-9.782859 36.05102,-0.949943"
       id="path7196"
       inkscape:connector-curvature="0" />
    <path
       sodipodi:nodetypes="cc"
       inkscape:connector-curvature="0"
       id="path7198"
       d="m 15.429743,68.035658 c 0,0 26.214078,-10.499633 37.873927,-1.666717"
       style="opacity:1;vector-effect:none;fill:none;fill-opacity:1;fill-rule:evenodd;stroke:#131849;stroke-width:2.48;stroke-linecap:round;stroke-linejoin:round;stroke-miterlimit:4;stroke-dasharray:none;stroke-dashoffset:0;stroke-opacity:1" />
    <path
       sodipodi:nodetypes="cc"
       style="opacity:1;vector-effect:none;fill:none;fill-opacity:1;fill-rule:evenodd;stroke:#131849;stroke-width:2.48;stroke-linecap:round;stroke-linejoin:round;stroke-miterlimit:4;stroke-dasharray:none;stroke-dashoffset:0;stroke-opacity:1"
       d="m 14.433505,77.901739 c 0,0 27.210316,-10.494206 38.870165,-1.66129"
       id="path7200"
       inkscape:connector-curvature="0" />
    <path
       sodipodi:nodetypes="cc"
       inkscape:connector-curvature="0"
       id="path7202"
       d="m 13.488323,87.767824 c 0,0 28.155498,-11.203104 39.815347,-2.370188"
       style="opacity:1;vector-effect:none;fill:none;fill-opacity:1;fill-rule:evenodd;stroke:#131849;stroke-width:2.48;stroke-linecap:round;stroke-linejoin:round;stroke-miterlimit:4;stroke-dasharray:none;stroke-dashoffset:0;stroke-opacity:1" />
  </g>
  <g
     style="stroke-width:7.03610134"
     transform="matrix(0.14212414,0,0,0.14212414,44.133987,43.621189)"
     id="g7272">
    <g
       style="stroke-width:7.03610134"
       transform="translate(-17.29,-21.25)"
       id="g15">
      <linearGradient
         id="linearGradient4301"
         gradientUnits="userSpaceOnUse"
         x1="63.790001"
         x2="63.790001"
         y1="65.666603"
         y2="3.2762001">
        <stop
           offset="0"
           style="stop-color:#FCC21B"
           id="stop4291" />
        <stop
           offset="0.1512"
           style="stop-color:#E5BF34"
           id="stop4293" />
        <stop
           offset="0.4726"
           style="stop-color:#ABB973"
           id="stop4295" />
        <stop
           offset="0.9352"
           style="stop-color:#4FAFD8"
           id="stop4297" />
        <stop
           offset="1"
           style="stop-color:#42ADE7"
           id="stop4299" />
      </linearGradient>
      <path
         inkscape:connector-curvature="0"
         d="M 65.655545,15.646619 C 10.244752,3.9556421 0.39858906,66.07408 -1.3997461,79.220565 -3.2367119,92.649454 22.723921,109.72998 56.762063,117.15281 c 34.207448,7.45974 62.485007,2.10068 63.024467,-11.71528 0.52842,-13.532899 1.71268,-78.008604 -54.130985,-89.790911 0,0 0,0 0,0"
         style="fill:url(#SVGID_1_);stroke-width:7.03610134"
         id="path13" />
    </g>
    <ellipse
       cx="-18.406851"
       cy="70.915825"
       rx="16.610579"
       ry="15.500539"
       style="fill:#ffffff;stroke-width:7.03634644"
       transform="rotate(-83.650318)"
       id="ellipse17" />
    <path
       d="m 70.705135,34.008167 c -0.340147,2.451472 -2.677927,3.886341 -5.21119,3.191342 -2.539896,-0.688645 -4.307157,-3.251081 -3.948915,-5.694878 0.349815,-2.443067 2.672915,-3.850527 5.194179,-3.161994 2.523262,0.681473 4.304705,3.22391 3.965926,5.66553"
       style="fill:#2f2f2f;stroke-width:7.03610134"
       id="path19"
       inkscape:connector-curvature="0" />
    <ellipse
       cx="22.925468"
       cy="27.953268"
       rx="15.500487"
       ry="16.610523"
       style="fill:#ffffff;stroke-width:7.03632307"
       transform="rotate(-4.3125781)"
       id="ellipse23" />
    <path
       d="m 30.740034,24.52695 c 0.04138,2.518567 -1.991429,4.389397 -4.542069,4.166708 -2.55943,-0.216836 -4.655331,-2.450556 -4.678716,-4.960829 -0.03752,-2.510728 1.996653,-4.358164 4.5373,-4.142097 2.531925,0.221827 4.634013,2.433701 4.683485,4.936218"
       style="fill:#2f2f2f;stroke-width:7.03610134"
       id="path25"
       inkscape:connector-curvature="0" />
    <path
       d="M 74.864267,71.807941 C 69.51259,57.167753 59.955665,50.090204 47.878453,46.075328 46.734775,45.70701 45.467954,45.36695 44.125469,45.065301 42.780884,44.790519 41.50303,44.584669 40.338042,44.471305 28.049427,43.255776 17.68811,46.040512 10.077353,57.834616 4.8964171,65.865179 4.6219916,74.711506 9.9425263,80.732452 c 2.7557017,3.112277 8.7609057,4.272855 12.6847907,3.707781 4.222998,-0.614359 9.586453,-2.126859 16.119289,-0.867454 0.663195,0.129576 1.32268,0.301834 1.955227,0.497442 0.654845,0.08417 1.30723,0.196794 1.968231,0.354887 6.514735,1.575227 11.432571,5.340952 15.410885,7.727679 3.700513,2.227875 9.73337,3.687773 12.932665,1.861042 6.235828,-3.546538 7.498059,-12.208889 3.850653,-22.205888 0,0 0,0 0,0"
       style="fill:#ed6c30;stroke-width:7.03610134"
       id="path31"
       inkscape:connector-curvature="0" />
  </g>
  <path
     inkscape:connector-curvature="0"
     id="path7274"
     d="M 41.00107,56.133473 42.782354,42.617768 58.49062,44.595585 58.020325,59.497852 Z"
     style="opacity:0;vector-effect:none;fill:#ed6c30;fill-opacity:1;fill-rule:evenodd;stroke:none;stroke-width:3.77952766;stroke-linecap:round;stroke-linejoin:round;stroke-miterlimit:4;stroke-dasharray:none;stroke-dashoffset:0;stroke-opacity:1" />
  <path
     style="color:#000000;font-style:normal;font-variant:normal;font-weight:normal;font-stretch:normal;font-size:medium;line-height:normal;font-family:sans-serif;font-variant-ligatures:normal;font-variant-position:normal;font-variant-caps:normal;font-variant-numeric:normal;font-variant-alternates:normal;font-variant-east-asian:normal;font-feature-settings:normal;text-indent:0;text-align:start;text-decoration:none;text-decoration-line:none;text-decoration-style:solid;text-decoration-color:#000000;letter-spacing:normal;word-spacing:normal;text-transform:none;writing-mode:lr-tb;direction:ltr;text-orientation:mixed;dominant-baseline:auto;baseline-shift:baseline;text-anchor:start;white-space:normal;shape-padding:0;clip-rule:nonzero;display:inline;overflow:visible;visibility:visible;isolation:auto;mix-blend-mode:normal;color-interpolation:sRGB;color-interpolation-filters:linearRGB;solid-color:#000000;solid-opacity:1;vector-effect:none;fill:#005e02;fill-opacity:1;fill-rule:nonzero;stroke:none;stroke-width:1;stroke-linecap:butt;stroke-linejoin:miter;stroke-miterlimit:4;stroke-dasharray:none;stroke-dashoffset:0;stroke-opacity:1;color-rendering:auto;image-rendering:auto;shape-rendering:auto;text-rendering:auto;enable-background:accumulate"
     d="M 27.103516 107.34961 C 26.341442 107.35775 25.578453 107.37436 24.814453 107.40234 C 18.50765 107.63331 12.157665 108.54448 5.9863281 110.46875 L 5.9394531 110.48242 L 5.8984375 110.50586 C 5.4441339 110.75021 4.5854986 110.92357 3.8183594 111.16016 C 3.4347898 111.27845 3.0660234 111.41238 2.75 111.64258 C 2.4339766 111.87278 2.1667692 112.26676 2.1738281 112.7207 L 2.1738281 112.72852 L 2.1875 112.99609 L 2.1425781 113.15625 C 2.1005241 113.30344 2.0640872 113.48711 2.1132812 113.68359 C 2.1624752 113.88008 2.2660486 114.00782 2.3613281 114.12305 L 2.4277344 114.20508 L 2.4785156 114.30078 C 2.6219616 114.57744 2.9118029 114.78725 3.1113281 114.85938 L 3.34375 114.94336 L 3.5097656 115.12891 C 3.6038516 115.2327 3.8144366 115.37909 4.0234375 115.41602 C 4.2324384 115.45292 4.4264765 115.43609 4.7109375 115.40039 C 5.3375113 115.32179 6.0579303 115.06414 6.7382812 114.84961 L 6.7402344 114.84961 L 6.7421875 114.84961 C 18.333901 111.10096 30.986766 111.2585 42.810547 112.83008 L 42.810547 112.82812 C 44.912131 113.10098 47.001686 113.44409 49.080078 113.84766 L 49.083984 113.84766 L 49.091797 113.84961 C 51.335441 114.29086 53.405209 115.07107 55.443359 115.79688 L 55.445312 115.79688 L 55.525391 115.82617 L 55.552734 115.82617 C 57.167993 116.39442 58.851159 116.87523 60.537109 117.19727 L 60.544922 117.19922 L 60.560547 117.20117 L 60.568359 117.20508 L 60.572266 117.20508 C 61.775425 117.47766 62.98605 117.58824 63.458984 117.59766 L 63.466797 117.59766 L 63.474609 117.59766 C 63.609815 117.59666 63.737228 117.58427 63.966797 117.57227 L 63.994141 117.57031 L 64.019531 117.57031 C 64.179442 117.57031 64.300256 117.57728 64.384766 117.58398 C 64.427016 117.58698 64.459256 117.5888 64.486328 117.5918 C 64.513408 117.5948 64.505778 117.59961 64.589844 117.59961 C 65.051402 117.59961 66.257387 117.48716 67.460938 117.20508 L 67.476562 117.20312 L 67.501953 117.19727 C 69.224718 116.8682 70.948121 116.38182 72.595703 115.79688 C 74.635261 115.07059 76.715189 114.29088 78.958984 113.84961 C 78.961684 113.84908 78.964097 113.84866 78.966797 113.84766 L 78.970703 113.84766 C 81.04756 113.44439 83.135944 113.10287 85.236328 112.83008 L 85.238281 112.83008 C 97.053103 111.2588 109.71477 111.10109 121.30664 114.84961 L 121.38281 114.87305 L 121.40234 114.87305 C 122.04674 115.08458 122.73059 115.32994 123.33008 115.4043 C 123.61328 115.4394 123.80825 115.45607 124.01758 115.41797 C 124.2269 115.37987 124.43439 115.23355 124.5293 115.12891 L 124.69727 114.94141 L 124.93555 114.85742 L 124.9375 114.85742 C 125.12683 114.79032 125.42086 114.5739 125.5625 114.30078 L 125.56445 114.29883 L 125.61133 114.20508 L 125.67969 114.125 L 125.67969 114.12305 C 125.77489 114.00786 125.87852 113.88006 125.92773 113.68359 C 125.97693 113.48712 125.94054 113.3035 125.89844 113.15625 L 125.90039 113.15625 L 125.85547 113.00391 L 125.86133 112.82812 L 125.86133 112.8125 C 125.84643 112.32621 125.60549 111.90591 125.2832 111.64062 C 124.96092 111.37534 124.58015 111.22649 124.19336 111.10742 C 123.41978 110.86928 122.57826 110.72987 122.13477 110.48633 L 122.02344 110.42383 L 121.89453 110.42383 L 121.88281 110.42383 C 109.58647 106.63099 96.584189 106.83087 84.650391 108.41797 C 82.604592 108.68393 80.579417 109.02589 78.568359 109.4082 L 78.486328 109.4082 L 78.128906 109.47852 L 78.117188 109.48047 L 78.111328 109.48242 C 75.404422 110.01369 73.09042 110.89725 71.101562 111.60547 C 70.410139 111.85085 69.563124 112.16082 68.802734 112.39648 C 68.042345 112.63215 67.31555 112.76533 67.132812 112.74609 L 67.109375 112.74414 L 60.742188 112.66016 C 59.397298 112.55608 58.243989 112.06798 56.935547 111.60352 L 56.933594 111.60352 L 56.292969 111.37695 L 56.1875 111.37695 C 54.365276 110.72054 52.360485 109.95723 49.943359 109.48242 L 49.884766 109.4707 L 49.880859 109.4707 L 49.564453 109.4082 L 49.482422 109.4082 C 47.466568 109.02482 45.434278 108.68061 43.380859 108.41406 L 42.816406 108.3418 L 42.816406 108.36133 C 37.716811 107.70433 32.438033 107.29261 27.103516 107.34961 z "
     id="path7459" />
</svg>
