<?xml version="1.0" encoding="utf-8"?>
<!-- Generator: Adobe Illustrator 19.2.1, SVG Export Plug-In . SVG Version: 6.00 Build 0)  -->
<svg version="1.1" id="レイヤー_1" xmlns="http://www.w3.org/2000/svg" xmlns:xlink="http://www.w3.org/1999/xlink" x="0px"
	 y="0px" viewBox="0 0 128 128" style="enable-background:new 0 0 128 128;" xml:space="preserve">
<g>
	<path style="fill:#FCC21B;" d="M113.42,28.7V10.41c-7.74,1.99-26.79,6.22-49.43,6.22c-22.64,0-41.69-4.23-49.42-6.22V28.7
		c4.52,1.05,10.58,2.28,17.74,3.33v67.09c-7.16,1.05-13.22,2.28-17.74,3.33v18.29c7.73-1.99,26.78-6.23,49.42-6.23
		c22.64,0,41.7,4.24,49.43,6.22v-18.28c-4.53-1.04-10.57-2.28-17.74-3.33V32.03C102.85,30.98,108.89,29.75,113.42,28.7z
		 M77.94,97.24c-4.45-0.3-9.12-0.47-13.94-0.47c-4.82,0-9.48,0.18-13.93,0.47V33.92c4.45,0.29,9.11,0.47,13.93,0.47
		c4.83,0,9.49-0.18,13.94-0.47V97.24z"/>
</g>
</svg>
