<?xml version="1.0" encoding="utf-8"?>
<!-- Generator: Adobe Illustrator 19.2.1, SVG Export Plug-In . SVG Version: 6.00 Build 0)  -->
<svg version="1.1" xmlns="http://www.w3.org/2000/svg" xmlns:xlink="http://www.w3.org/1999/xlink" x="0px" y="0px"
	 viewBox="0 0 128 128" style="enable-background:new 0 0 128 128;" xml:space="preserve">
<g id="Layer_2">
</g>
<g id="图层_1">
	<g>
		<g>
			<g>
				<path style="fill:#78909C;" d="M105.46,125.16H25.19c-1.55,0-2.81-1.26-2.81-2.81V18.98c0-1.55,1.26-2.81,2.81-2.81h80.27
					c1.55,0,2.81,1.26,2.81,2.81v103.38C108.27,123.91,107.01,125.16,105.46,125.16z"/>
			</g>
			<g>
				<path style="fill:#E0E0E0;" d="M102.81,122.52H22.54c-1.55,0-2.81-1.26-2.81-2.81V16.33c0-1.55,1.26-2.81,2.81-2.81h80.27
					c1.55,0,2.81,1.26,2.81,2.81v103.38C105.62,121.26,104.36,122.52,102.81,122.52z"/>
			</g>
			<g>
				<path style="fill:#B0BEC5;" d="M105.62,94.41l-12.33,15.42l-15.87,12.69h25.39c1.57,0,2.81-1.21,2.81-2.81V94.41z"/>
			</g>
			<g>
				<g>
					<path style="fill:#78A3AD;" d="M77.42,122.52c0.8-4.37,1.08-9.48,0.36-15.99c-0.16-1.49,0.94-2.81,2.44-2.88
						c3.46-0.17,9.4-0.61,13.61-1.73c6.03-1.6,11.79-7.51,11.79-7.51s-3.51,9.33-12.76,18.26
						C86.34,118.96,77.42,122.52,77.42,122.52z"/>
				</g>
			</g>
			<path style="fill:#616161;" d="M50.6,55.31l5.79-1.66v31.76h-4.46c-0.48,0-0.85,0.38-0.85,0.85v10.86c0,0.47,0.38,0.85,0.85,0.85
				h23.07c0.47,0,0.85-0.38,0.85-0.85V86.27c0-0.47-0.38-0.85-0.85-0.85h-4.46V38.91c0-0.26-0.12-0.51-0.32-0.66
				c-0.2-0.17-0.46-0.23-0.72-0.17l-19.31,4.14c-0.39,0.08-0.67,0.43-0.67,0.84v11.44c0,0.27,0.12,0.52,0.34,0.68
				C50.07,55.34,50.34,55.39,50.6,55.31z"/>
		</g>
		<g>
			<g>
				<path style="fill:#616161;" d="M38.15,25.04c-5.08,0-9.06-4.88-9.06-11.1s3.98-11.1,9.06-11.1c5.08,0,9.06,4.88,9.06,11.1
					c0,0.57-0.03,1.13-0.1,1.68c-0.2,1.65-1.7,2.81-3.34,2.61c-1.64-0.2-2.81-1.7-2.61-3.35c0.04-0.3,0.06-0.62,0.06-0.95
					c0-2.92-1.62-5.1-3.06-5.1s-3.06,2.18-3.06,5.1s1.62,5.1,3.06,5.1c1.66,0,3,1.34,3,3S39.81,25.04,38.15,25.04z"/>
			</g>
			<g>
				<rect x="40.3" y="13.58" style="fill:#E0E0E0;" width="7.84" height="6.08"/>
			</g>
		</g>
		<g>
			<g>
				<path style="fill:#616161;" d="M62.46,25.04c-5.08,0-9.06-4.88-9.06-11.1s3.98-11.1,9.06-11.1s9.06,4.88,9.06,11.1
					c0,0.56-0.03,1.12-0.1,1.67c-0.2,1.64-1.7,2.81-3.34,2.62c-1.65-0.2-2.82-1.69-2.62-3.34c0.04-0.31,0.06-0.63,0.06-0.95
					c0-2.92-1.62-5.1-3.06-5.1s-3.06,2.18-3.06,5.1s1.62,5.1,3.06,5.1c1.66,0,3,1.34,3,3S64.12,25.04,62.46,25.04z"/>
			</g>
			<g>
				<rect x="64.61" y="13.58" style="fill:#E0E0E0;" width="7.84" height="6.08"/>
			</g>
		</g>
		<g>
			<g>
				<path style="fill:#616161;" d="M86.77,25.04c-5.08,0-9.06-4.88-9.06-11.1s3.98-11.1,9.06-11.1s9.06,4.88,9.06,11.1
					c0,0.56-0.03,1.12-0.1,1.67c-0.2,1.64-1.7,2.81-3.34,2.62c-1.65-0.2-2.82-1.69-2.62-3.34c0.04-0.31,0.06-0.63,0.06-0.95
					c0-2.92-1.62-5.1-3.06-5.1s-3.06,2.18-3.06,5.1s1.62,5.1,3.06,5.1c1.66,0,3,1.34,3,3S88.43,25.04,86.77,25.04z"/>
			</g>
			<g>
				<rect x="88.92" y="13.58" style="fill:#E0E0E0;" width="7.84" height="6.08"/>
			</g>
		</g>
	</g>
</g>
</svg>
