<svg xmlns="http://www.w3.org/2000/svg" viewBox="0 0 1000 1000">
  <defs/>
  <path fill="#b22234" d="M0,200 C173.47,114.84 346.32,145.53 521.2,171.97 C679.07,195.84 838.71,216.67 1000,137.5 L1000,737.5 C826.53,822.66 653.68,791.97 478.8,765.53 C320.93,741.66 161.29,720.83 0,800 L0,200"/>
  <path fill="#fff" d="M0,246.15 C173.47,161 346.32,191.69 521.2,218.12 C679.07,241.99 838.71,262.83 1000,183.65 L1000,229.81 C826.53,314.96 653.68,284.28 478.8,257.84 C320.93,233.97 161.29,213.13 0,292.31 L0,246.15 M1000,322.12 C826.53,407.27 653.68,376.58 478.8,350.14 C320.93,326.28 161.29,305.44 0,384.62 L0,338.46 C173.47,253.3 346.32,283.99 521.2,310.43 C679.07,334.3 838.71,355.14 1000,275.96 L1000,322.12 M0,430.77 C173.47,345.61 346.32,376.3 521.2,402.74 C679.07,426.61 838.71,447.44 1000,368.27 L1000,414.42 C826.53,499.58 653.68,468.89 478.8,442.45 C320.93,418.58 161.29,397.75 0,476.92 L0,430.77 M1000,506.73 C826.53,591.89 653.68,561.2 478.8,534.76 C320.93,510.89 161.29,490.06 0,569.23 L0,523.08 C173.47,437.92 346.32,468.61 521.2,495.05 C679.07,518.92 838.71,539.75 1000,460.58 L1000,506.73 M0,615.38 C173.47,530.23 346.32,560.92 521.2,587.36 C679.07,611.22 838.71,632.06 1000,552.88 L1000,599.04 C826.53,684.2 653.68,653.51 478.8,627.07 C320.93,603.2 161.29,582.36 0,661.54 L0,615.38 M1000,691.35 C826.53,776.5 653.68,745.81 478.8,719.38 C320.93,695.51 161.29,674.67 0,753.85 L0,707.69 C173.47,622.54 346.32,653.22 521.2,679.66 C679.07,703.53 838.71,724.37 1000,645.19 L1000,691.35"/>
  <path fill="#3c3b6e" d="M0,200 C132.14,135.13 263.88,137.18 400,154.38 L400,477.45 C268.28,460.82 135.67,456.48 0,523.08 L0,200"/>
  <path id="s" fill="#fff" d="M33.33,198.84 L42.85,228.45 C34.63,224.82 26.4,221.43 17.93,218.19 C28.1,213.65 38.26,209.49 48.74,205.58 L23.81,236.24 L33.33,198.84"/>
  <path fill="#fff" d="M33.33,263.46 L42.85,293.07 C34.63,289.44 26.4,286.04 17.93,282.8 C28.1,278.27 38.26,274.11 48.74,270.19 L23.81,300.86 L33.33,263.46"/>
  <path fill="#fff" d="M33.33,328.07 L42.85,357.68 C34.63,354.05 26.4,350.66 17.93,347.42 C28.1,342.89 38.26,338.72 48.74,334.81 L23.81,365.47 L33.33,328.07"/>
  <path fill="#fff" d="M33.33,392.69 L42.85,422.3 C34.63,418.67 26.4,415.27 17.93,412.03 C28.1,407.5 38.26,403.34 48.74,399.42 L23.81,430.09 L33.33,392.69"/>
  <path fill="#fff" d="M33.33,457.3 L42.85,486.91 C34.63,483.29 26.4,479.89 17.93,476.65 C28.1,472.12 38.26,467.95 48.74,464.04 L23.81,494.7 L33.33,457.3"/>
  <path fill="#fff" d="M66.67,218.82 L76.19,249.16 C67.96,244.9 59.74,240.87 51.26,236.95 C61.43,233.23 71.6,229.86 82.07,226.72 L57.15,255.47 L66.67,218.82"/>
  <path fill="#fff" d="M66.67,283.43 L76.19,313.77 C67.96,309.52 59.74,305.48 51.26,301.57 C61.43,297.85 71.6,294.47 82.07,291.34 L57.15,320.09 L66.67,283.43"/>
  <path fill="#fff" d="M66.67,348.05 L76.19,378.39 C67.96,374.14 59.74,370.1 51.26,366.18 C61.43,362.46 71.6,359.09 82.07,355.96 L57.15,384.7 L66.67,348.05"/>
  <path fill="#fff" d="M66.67,412.66 L76.19,443 C67.96,438.75 59.74,434.71 51.26,430.8 C61.43,427.08 71.6,423.7 82.07,420.57 L57.15,449.32 L66.67,412.66"/>
  <path fill="#fff" d="M100,176.66 L109.52,207.67 C101.29,202.85 93.07,198.21 84.6,193.67 C94.77,190.71 104.93,188.06 115.4,185.65 L90.48,212.63 L100,176.66"/>
  <path fill="#fff" d="M100,241.27 L109.52,272.29 C101.29,267.46 93.07,262.83 84.6,258.29 C94.77,255.32 104.93,252.67 115.4,250.27 L90.48,277.24 L100,241.27"/>
  <path fill="#fff" d="M100,305.89 L109.52,336.9 C101.29,332.08 93.07,327.45 84.6,322.9 C94.77,319.94 104.93,317.29 115.4,314.88 L90.48,341.86 L100,305.89"/>
  <path fill="#fff" d="M100,370.5 L109.52,401.52 C101.29,396.69 93.07,392.06 84.6,387.52 C94.77,384.55 104.93,381.9 115.4,379.5 L90.48,406.47 L100,370.5"/>
  <path fill="#fff" d="M100,435.12 L109.52,466.13 C101.29,461.31 93.07,456.68 84.6,452.13 C94.77,449.17 104.93,446.52 115.4,444.11 L90.48,471.09 L100,435.12"/>
  <path fill="#fff" d="M133.33,201.41 L142.85,233.04 L117.93,217.38 C128.1,215.12 138.26,213.14 148.74,211.39 L123.81,236.74 L133.33,201.41"/>
  <path fill="#fff" d="M133.33,266.02 L142.85,297.66 L117.93,282 C128.1,279.73 138.26,277.76 148.74,276.01 L123.81,301.36 L133.33,266.02"/>
  <path fill="#fff" d="M133.33,330.64 L142.85,362.27 L117.93,346.62 C128.1,344.35 138.26,342.37 148.74,340.62 L123.81,365.97 L133.33,330.64"/>
  <path fill="#fff" d="M133.33,395.25 L142.85,426.89 L117.93,411.23 C128.1,408.96 138.26,406.99 148.74,405.24 L123.81,430.59 L133.33,395.25"/>
  <path fill="#fff" d="M166.67,163.64 L176.19,195.84 L151.26,178.67 C161.43,177.04 171.59,175.68 182.07,174.54 L157.15,198.4 L166.67,163.64"/>
  <path fill="#fff" d="M166.67,228.26 L176.19,260.46 L151.26,243.29 C161.43,241.66 171.59,240.29 182.07,239.15 L157.15,263.01 L166.67,228.26"/>
  <path fill="#fff" d="M166.67,292.87 L176.19,325.07 L151.26,307.9 C161.43,306.27 171.59,304.91 182.07,303.77 L157.15,327.63 L166.67,292.87"/>
  <path fill="#fff" d="M166.67,357.49 L176.19,389.69 L151.26,372.52 C161.43,370.89 171.59,369.52 182.07,368.38 L157.15,392.24 L166.67,357.49"/>
  <path fill="#fff" d="M166.67,422.11 L176.19,454.3 L151.26,437.13 C161.43,435.5 171.59,434.14 182.07,433 L157.15,456.86 L166.67,422.11"/>
  <path fill="#fff" d="M200,192.4 L209.52,225.11 L184.6,206.57 C194.77,205.52 204.93,204.71 215.4,204.11 L190.48,226.63 L200,192.4"/>
  <path fill="#fff" d="M200,257.02 L209.52,289.73 L184.6,271.19 C194.77,270.14 204.93,269.33 215.4,268.73 L190.48,291.25 L200,257.02"/>
  <path fill="#fff" d="M200,321.63 L209.52,354.34 L184.6,335.81 C194.77,334.75 204.93,333.94 215.4,333.34 L190.48,355.86 L200,321.63"/>
  <path fill="#fff" d="M200,386.25 L209.52,418.96 L184.6,400.42 C194.77,399.37 204.93,398.56 215.4,397.96 L190.48,420.48 L200,386.25"/>
  <path fill="#fff" d="M233.33,158.27 L242.85,191.43 L217.93,171.67 C228.1,171.14 238.26,170.82 248.74,170.71 L223.81,192.02 L233.33,158.27"/>
  <path fill="#fff" d="M233.33,222.88 L242.85,256.05 L217.93,236.28 C228.1,235.75 238.26,235.44 248.74,235.32 L223.81,256.64 L233.33,222.88"/>
  <path fill="#fff" d="M233.33,287.5 L242.85,320.66 L217.93,300.9 C228.1,300.37 238.26,300.05 248.74,299.94 L223.81,321.25 L233.33,287.5"/>
  <path fill="#fff" d="M233.33,352.11 L242.85,385.28 L217.93,365.51 C228.1,364.98 238.26,364.67 248.74,364.55 L223.81,385.87 L233.33,352.11"/>
  <path fill="#fff" d="M233.33,416.73 L242.85,449.89 L217.93,430.13 C228.1,429.6 238.26,429.28 248.74,429.17 L223.81,450.48 L233.33,416.73"/>
  <path fill="#fff" d="M266.67,190.27 L276.19,223.84 L251.26,202.99 C261.43,202.93 271.59,203.05 282.07,203.35 L257.15,223.61 L266.67,190.27"/>
  <path fill="#fff" d="M266.67,254.89 L276.19,288.45 L251.26,267.61 C261.43,267.54 271.59,267.66 282.07,267.97 L257.15,288.23 L266.67,254.89"/>
  <path fill="#fff" d="M266.67,319.51 L276.19,353.07 L251.26,332.22 C261.43,332.16 271.59,332.28 282.07,332.59 L257.15,352.84 L266.67,319.51"/>
  <path fill="#fff" d="M266.67,384.12 L276.19,417.69 L251.26,396.84 C261.43,396.77 271.59,396.89 282.07,397.2 L257.15,417.46 L266.67,384.12"/>
  <path fill="#fff" d="M300,159 L309.52,192.91 L284.6,171.13 L315.4,172.64 L290.48,191.98 L300,159"/>
  <path fill="#fff" d="M300,223.62 L309.52,257.53 L284.6,235.74 L315.4,237.25 L290.48,256.59 L300,223.62"/>
  <path fill="#fff" d="M300,288.23 L309.52,322.14 L284.6,300.36 L315.4,301.87 L290.48,321.21 L300,288.23"/>
  <path fill="#fff" d="M300,352.85 L309.52,386.76 L284.6,364.97 L315.4,366.48 L290.48,385.82 L300,352.85"/>
  <path fill="#fff" d="M300,417.46 L309.52,451.38 L284.6,429.59 L315.4,431.1 L290.48,450.44 L300,417.46"/>
  <path fill="#fff" d="M333.33,193.49 L342.85,227.7 L317.93,205.11 L348.74,207.59 L323.81,226.16 L333.33,193.49"/>
  <path fill="#fff" d="M333.33,258.11 L342.85,292.31 L317.93,269.73 L348.74,272.21 L323.81,290.78 L333.33,258.11"/>
  <path fill="#fff" d="M333.33,322.72 L342.85,356.93 L317.93,334.34 L348.74,336.82 L323.81,355.39 L333.33,322.72"/>
  <path fill="#fff" d="M333.33,387.34 L342.85,421.54 L317.93,398.96 L348.74,401.44 L323.81,420.01 L333.33,387.34"/>
  <path fill="#fff" d="M366.67,164.32 L376.19,198.76 L351.26,175.52 L382.07,178.8 L357.15,196.74 L366.67,164.32"/>
  <path fill="#fff" d="M366.67,228.94 L376.19,263.38 L351.26,240.14 L382.07,243.41 L357.15,261.35 L366.67,228.94"/>
  <path fill="#fff" d="M366.67,293.55 L376.19,327.99 L351.26,304.75 L382.07,308.03 L357.15,325.97 L366.67,293.55"/>
  <path fill="#fff" d="M366.67,358.17 L376.19,392.61 L351.26,369.37 L382.07,372.64 L357.15,390.58 L366.67,358.17"/>
  <path fill="#fff" d="M366.67,422.78 L376.19,457.22 L351.26,433.98 L382.07,437.26 L357.15,455.2 L366.67,422.78"/>
</svg>
