<svg width="128" height="128" style="enable-background:new 0 0 128 128;" xmlns="http://www.w3.org/2000/svg" xmlns:xlink="http://www.w3.org/1999/xlink">
  <linearGradient id="SVGID_1_" gradientUnits="userSpaceOnUse" x1="98.6622" x2="98.6622" y1="21.82" y2="120.8926">
    <stop offset="6.854022e-03" style="stop-color:#FFECB3"/>
    <stop offset="1" style="stop-color:#FFE082"/>
  </linearGradient>
  <path d="M123.8,118.75l-6.18-16.49l-4.25-11.35c-0.96-2.93-2.59-5.59-4.77-7.77l-9.82-9.82 L73.32,98.78l9.82,9.82c2.18,2.18,4.84,3.81,7.77,4.77l11.35,4.25l16.49,6.18C121.86,124.81,124.81,121.86,123.8,118.75z" style="fill:url(#SVGID_1_);"/>
  <g>
    <path d="M85.58,106.78l-0.03-0.03c0,0,0,0,0,0C85.56,106.76,85.57,106.77,85.58,106.78z" style="fill:none;"/>
    <path d="M106.73,85.55l0.21,0.21c-0.07-0.07-0.12-0.16-0.19-0.23C106.74,85.54,106.73,85.55,106.73,85.55z" style="fill:none;"/>
  </g>
  <g style="opacity:0.2;">
    <path d="M98.78,77.57l7.69,7.69c1.84,1.84,3.23,4.11,4.04,6.58l0.02,0.06l0.02,0.06l4.25,11.35l6.15,16.41 c0.09,0.31,0.04,0.59-0.14,0.84c-0.2,0.27-0.49,0.43-0.8,0.43c-0.09,0-0.19-0.01-0.29-0.04l-16.41-6.15l-11.35-4.25l-0.06-0.02 l-0.06-0.02c-2.47-0.81-4.74-2.2-6.58-4.04l-7.69-7.69L98.78,77.57 M98.78,73.32L73.32,98.78l9.82,9.82 c2.18,2.18,4.84,3.81,7.77,4.77l11.35,4.25l16.49,6.18c0.43,0.14,0.85,0.2,1.26,0.2c2.58,0,4.66-2.56,3.78-5.25l-6.18-16.49 l-4.25-11.35c-0.96-2.93-2.59-5.59-4.77-7.77L98.78,73.32L98.78,73.32z" style="fill:#424242;"/>
  </g>
  <g>
    <linearGradient id="SVGID_2_" gradientUnits="userSpaceOnUse" x1="113.1305" x2="113.1305" y1="80.1667" y2="122.667">
      <stop offset="0" style="stop-color:#757575"/>
      <stop offset="1" style="stop-color:#424242"/>
    </linearGradient>
    <path d="M123.8,118.75l-6.18-16.49c-3.22,1.6-6.25,3.73-8.94,6.42c-2.69,2.69-4.82,5.71-6.42,8.94 l16.49,6.18C121.86,124.81,124.81,121.86,123.8,118.75z" style="fill:url(#SVGID_2_);"/>
  </g>
  <g style="opacity:0.2;">
    <path d="M116.04,106.59l4.92,13.13c0.09,0.31,0.04,0.59-0.14,0.84c-0.2,0.27-0.49,0.43-0.8,0.43 c-0.09,0-0.19-0.01-0.29-0.04l-13.13-4.92c1.21-1.89,2.61-3.64,4.21-5.24C112.39,109.21,114.15,107.8,116.04,106.59 M117.62,102.26c-3.22,1.6-6.25,3.73-8.94,6.42c-2.69,2.69-4.82,5.71-6.42,8.94l16.49,6.18c0.43,0.14,0.85,0.2,1.26,0.2 c2.58,0,4.66-2.56,3.78-5.25L117.62,102.26L117.62,102.26z" style="fill:#EEEEEE;"/>
  </g>
  <linearGradient id="SVGID_3_" gradientUnits="userSpaceOnUse" x1="34.6274" x2="34.6274" y1="12.25" y2="55.2631">
    <stop offset="0" style="stop-color:#E0E0E0"/>
    <stop offset="1" style="stop-color:#9E9E9E"/>
  </linearGradient>
  <polygon points="51.6,26.14 26.14,51.6 17.66,43.11 43.11,17.66 " style="fill:url(#SVGID_3_);"/>
  <rect height="4" style="fill:#9E9E9E;" transform="matrix(0.7071 -0.7071 0.7071 0.7071 -14.3431 34.6274)" width="36" x="16.63" y="32.63"/>
  <linearGradient id="SVGID_4_" gradientUnits="userSpaceOnUse" x1="23.5563" x2="23.5563" y1="-1.8333" y2="39.4681">
    <stop offset="0" style="stop-color:#E57373"/>
    <stop offset="1" style="stop-color:#F44336"/>
  </linearGradient>
  <path d="M43.11,17.66L17.66,43.11L6.34,31.8c-3.12-3.12-3.12-8.19,0-11.31L20.49,6.34 c3.12-3.12,8.19-3.12,11.31,0L43.11,17.66z" style="fill:url(#SVGID_4_);"/>
  <linearGradient id="SVGID_5_" gradientUnits="userSpaceOnUse" x1="65.1016" x2="65.1016" y1="16.1667" y2="90.9948">
    <stop offset="0" style="stop-color:#FFC107"/>
    <stop offset="1" style="stop-color:#FFA000"/>
  </linearGradient>
  <path d="M33.68,44.06l10.37-10.37l52.37,52.37l0.09,2.04c0.19,4.4-4.02,8.61-8.42,8.42l-2.04-0.09 L33.68,44.06z" style="fill:url(#SVGID_5_);"/>
  <g>
    <linearGradient id="SVGID_6_" gradientTransform="matrix(0.7071 -0.7071 0.7071 0.7071 -35.2269 39.4443)" gradientUnits="userSpaceOnUse" x1="40.1339" x2="40.1339" y1="41.5" y2="113.0017">
      <stop offset="0" style="stop-color:#FFCA28"/>
      <stop offset="1" style="stop-color:#FFB300"/>
    </linearGradient>
    <path d="M26.14,51.6l54.7,54.7c3.07-1.29,5.45-4.5,5.3-7.83l-0.09-2.04L33.68,44.06L26.14,51.6z" style="fill:url(#SVGID_6_);"/>
  </g>
  <g>
    <linearGradient id="SVGID_7_" gradientTransform="matrix(0.7071 -0.7071 0.7071 0.7071 -35.2269 39.4443)" gradientUnits="userSpaceOnUse" x1="65.4672" x2="65.4672" y1="41.5" y2="113.0017">
      <stop offset="0" style="stop-color:#FFCA28"/>
      <stop offset="1" style="stop-color:#FFB300"/>
    </linearGradient>
    <path d="M44.06,33.68l52.37,52.37l2.04,0.09c3.33,0.14,6.55-2.23,7.83-5.3l-54.7-54.7L44.06,33.68z" style="fill:url(#SVGID_7_);"/>
  </g>
  <g style="opacity:0.2;">
    <path d="M26.14,7c1.34,0,2.59,0.52,3.54,1.46l11.31,11.31l8.49,8.49l53.03,53.03 c-1.01,1.12-2.42,1.86-3.75,1.86c-0.05,0-0.11,0-0.16,0l-2.04-0.09c-0.04,0-0.09,0-0.13,0c-0.79,0-1.56,0.31-2.12,0.88 c-0.59,0.59-0.91,1.41-0.88,2.25l0.09,2.04c0.05,1.22-0.5,2.52-1.52,3.58c-1.03,1.07-2.38,1.71-3.62,1.71c-0.05,0-0.11,0-0.16,0 l-2.04-0.09c-0.04,0-0.09,0-0.13,0c-0.79,0-1.56,0.31-2.12,0.88c-0.59,0.59-0.91,1.41-0.88,2.25l0.09,2.04 c0.06,1.39-0.68,2.87-1.85,3.91L28.26,49.48l-8.49-8.49L8.46,29.68C7.52,28.73,7,27.48,7,26.14c0-1.34,0.52-2.59,1.46-3.54 L22.61,8.46C23.55,7.52,24.81,7,26.14,7 M26.14,4c-2.05,0-4.09,0.78-5.66,2.34L6.34,20.49c-3.12,3.12-3.12,8.19,0,11.31 l11.31,11.31l8.49,8.49l54.7,54.7c3.07-1.29,5.45-4.5,5.3-7.83l-0.09-2.04l2.04,0.09c0.1,0,0.19,0.01,0.29,0.01 c4.29,0,8.32-4.12,8.13-8.43l-0.09-2.04l2.04,0.09c0.1,0,0.19,0.01,0.29,0.01c3.23,0,6.29-2.33,7.54-5.31l-54.7-54.7l-8.49-8.49 L31.8,6.34C30.24,4.78,28.19,4,26.14,4L26.14,4z" style="fill:#424242;"/>
  </g>
</svg>