<?xml version="1.0" encoding="utf-8"?>
<!-- Generator: Adobe Illustrator 19.2.1, SVG Export Plug-In . SVG Version: 6.00 Build 0)  -->
<svg version="1.1" xmlns="http://www.w3.org/2000/svg" xmlns:xlink="http://www.w3.org/1999/xlink" x="0px" y="0px"
	 viewBox="0 0 128 128" style="enable-background:new 0 0 128 128;" xml:space="preserve">
<g id="Layer_2">
</g>
<g id="图层_1">
	<g>
		<path style="fill:#E0E0E0;" d="M122.51,46.95c-0.28-0.75-0.57-1.49-0.87-2.22c-0.11-0.26-0.21-0.52-0.32-0.78
			c-9.83-23.26-27.6-31.01-35.89-33.43c-0.7-0.08-1.11-0.19-1.11-0.19s0,0.03,0,0.05C78.09,8.57,71.54,7.61,65,7.61h-0.29
			c-6.68,0-13.42,0.97-19.76,2.87C20.47,17.72,10.64,37.32,7.35,46.25c-0.04,0.38-0.11,0.61-0.11,0.61l0.01,0
			C5.06,52.74,3.71,58.9,3.36,64.99C2.43,80.79,5.2,96.71,17.94,107.7c7.05,6.08,15.82,10.21,24.86,12.44
			c3.44,0.86,12.32,2.83,21.63,2.83c9.31,0,19.05-1.97,22.49-2.83c9.04-2.23,17.81-6.36,24.87-12.44
			c12.73-10.99,15.5-26.9,14.58-42.71C126.01,58.93,124.67,52.81,122.51,46.95z"/>
		<path style="fill:#2F2F2F;" d="M54.44,67.92c1.04-5.2-1.59-11.12-6.27-13.73c-6.69-3.71-14.78-2.48-20.78,1.9
			c-3.47,2.53-7.67,6.37-9.88,10.09c-3.87,6.54-4.64,16.42,0.5,22.76c3.19,3.93,8.71,5.37,13.5,4.49c5.65-1.05,9.32-5.23,12.77-9.51
			c3.26-4.08,7.14-8.01,9.19-12.89C53.9,70.01,54.24,68.97,54.44,67.92z M41.53,71.53c-3.53,0-6.39-2.79-6.39-6.23
			c0-3.45,2.86-6.25,6.39-6.25c3.53,0,6.4,2.8,6.4,6.25C47.93,68.74,45.07,71.53,41.53,71.53z"/>
		<path style="fill:#2F2F2F;" d="M111.95,89.86c5.43-6.71,4.62-17.15,0.52-24.06c-2.32-3.93-6.77-7.99-10.43-10.66
			c-6.33-4.64-14.89-5.94-21.95-2.01c-4.97,2.76-7.73,9.02-6.63,14.51c0.21,1.11,0.58,2.21,1.01,3.28
			c2.18,5.16,6.27,9.31,9.73,13.63c3.62,4.52,7.52,8.93,13.48,10.04C102.74,95.53,108.57,94,111.95,89.86z M87.32,71.53
			c-3.53,0-6.39-2.79-6.39-6.23c0-3.45,2.87-6.25,6.39-6.25c3.53,0,6.39,2.8,6.39,6.25C93.71,68.74,90.85,71.53,87.32,71.53z"/>
		<path style="fill:#2F2F2F;" d="M75.21,96.29c-0.14,0.19-3.28,4.51-10.67,4.51c-7.34,0-10.49-4.29-10.65-4.51
			c-0.71-1.04-2.14-1.32-3.2-0.6c-1.06,0.72-1.33,2.16-0.62,3.21c0.18,0.27,4.54,6.52,14.46,6.52c9.93,0,14.3-6.26,14.48-6.52
			c0.71-1.05,0.45-2.47-0.6-3.19C77.38,94.99,75.94,95.26,75.21,96.29z"/>
		<path style="fill:#2F2F2F;" d="M64.55,92.27c5.54,0,10.04-3.62,10.04-8.09c0-4.47-4.5-8.09-10.04-8.09s-10.03,3.62-10.03,8.09
			C54.52,88.65,59.01,92.27,64.55,92.27z"/>
		<path style="fill:#2F2F2F;" d="M121.32,43.95c-0.06-0.14-0.11-0.28-0.17-0.42v-1.02c0.19-1.12,1.05-1.97,1.7-2.87l0.4-0.54
			c0.92-1.37,1.64-2.86,2.27-4.38c2.94-7,3.02-14.82-0.68-20.55c-2.62-4.05-12.97-14.56-29.3-5.67c-4.28,2.33-8.24,2.24-10.1,2.02
			C93.72,12.94,111.49,20.7,121.32,43.95z"/>
		<path style="fill:#2F2F2F;" d="M44.95,10.48c-0.47,0.14-0.95,0.28-1.42,0.43c-0.92,0.2-5.71,1.02-11.02-1.87
			C16.18,0.16,5.82,10.66,3.2,14.71c-1.13,1.76-1.97,3.88-2.41,5.9c-0.81,3.83-0.49,8.09,0.69,11.82c0.63,2,1.56,3.87,2.54,5.73
			c0.63,1.23,1.29,2.45,2.1,3.59c1.32,1.85,1.34,3.61,1.24,4.5C10.64,37.32,20.47,17.72,44.95,10.48z"/>
	</g>
</g>
</svg>
