<?xml version="1.0" encoding="utf-8"?>
<!-- Generator: Adobe Illustrator 19.2.1, SVG Export Plug-In . SVG Version: 6.00 Build 0)  -->
<svg version="1.1" id="レイヤー_1" xmlns="http://www.w3.org/2000/svg" xmlns:xlink="http://www.w3.org/1999/xlink" x="0px"
	 y="0px" viewBox="0 0 128 128" style="enable-background:new 0 0 128 128;" xml:space="preserve">
<g>
	<path style="fill:#757F3F;" d="M105.47,89.03c-12.51-4.96-25.74-6.65-38.54-5.1c-4.53,0.56-8.42,1.85-11.54,3.54
		c-0.52,0.23-1.02,0.49-1.46,0.73c-3.33,1.76-6.21,4.3-9.8,5.61c-3.12,1.14-6.52,1.4-9.51,2.87c-0.37,0.18-0.9,0.28-1.03-0.29
		c-0.12-0.52,2.86-4.68,3.15-5.11c0.68-0.98,1.37-1.94,2.09-2.9c2.95-3.93,6.66-7.76,11.12-7.78c0.74-0.01,2.57,0.18,3.3,0.17
		c0.81,0,2.1,0,2.1,0l0.03-0.01c9.13-0.18,20.97-5.62,31.57-13.55c10.25-7.67,21.83-21.72,29.67-32.11
		c8.33-11.04,11.62-19.19,10.93-22.03c-0.87-3.69-10.93-2.83-10.93-2.83s-2.26,0-5.99,0.35c-12.41,1.16-41.21,6.17-58.36,27.81
		c-8.53,10.75-12.38,21.81-11.55,29.93l0,0l0,0c0,0.02,0,0.03,0,0.04c0.21,2.16,0.47,3.6,0.47,4.28c-0.02,4.61-2.76,8-5.69,11.51
		c-1.18,1.41-2.49,3.09-4.6,5.9c-0.55,0.74-1.33,2-1.72,1.92c-0.59-0.12-0.99-1.61-0.56-4.44c0.15-0.99,0.35-2.46,1.41-4.17
		c1.61-2.6,2.9-4.59,3.38-5.61c0.07-0.13,0.08-0.21,0.12-0.33c1.75-3.41,2.95-7.75,3.16-12.83c0.51-12.87-2.31-25.91-8.37-37.98
		c-3.4-6.78-11.18-19.2-16.91-19.19c-3.94,0-9.65,14.86-10.61,29.7c-0.37,5.8-0.78,12.32,0,19.22C2.64,72.8,7.69,83.74,17.26,85.57
		c0.03,0,0.03,0.03,0.03,0.03c2.97,0.55,4.58,2.69,5.38,5.27c0.68,2.17,0.8,4.46,0.56,6.71c-0.5,4.71-2.45,9.19-4.62,13.35
		c-0.62,1.18-1.27,2.35-1.92,3.51c-0.9,1.58-2.26,2.88-2.95,4.59c-0.73,1.83,0.33,3.32,1.88,4.26c0.74,0.45,1.55,0.78,2.35,1.08
		c1.86,0.7,4.67,1.28,6.34-0.15c1.64-1.4,1.49-3.8,1.89-5.73c0.46-2.18,1.3-4.26,2.18-6.3c1.49-3.46,3.56-6.73,6.51-9.11
		c1.89-1.52,4.33-2.42,6.77-2.32c2.74,0.12,4.24,2.09,5.48,4.3c0.39,0.72,0.79,1.38,1.22,2.01c3.71,7.6,14.42,11.01,29.5,11.44
		c6.94,0.19,13.42-0.73,19.2-1.58c14.73-2.16,27.82-6.96,28.6-10.76C126.8,100.64,112.5,91.82,105.47,89.03z"/>
	<path style="fill:#BDCF46;" d="M46.86,59.67c1-7.11,6.14-16.74,19.28-27.9c1.88-1.6,3.93-3.03,5.99-4.38
		c1.39-0.9,2.8-1.76,4.24-2.55c0.74-0.41,1.56-1.05,2.43-1.32c2.54-0.79-0.19,2.42-0.66,2.98c-6.34,7.7-13.31,14.85-18.66,23.33
		c-1.51,2.39-2.88,4.87-4.01,7.45c-1.44,3.25-2.53,6.63-3.75,9.97C51.31,68.35,50.94,70.2,50,71c-2.32,1.94-3.33-3.36-3.42-4.59
		C46.41,64.22,46.55,61.84,46.86,59.67z"/>
	<path style="fill:#BDCF46;" d="M9.51,17.7c-0.73,1.72-1.08,3.73-1.52,5.33c-1.53,5.61-2.4,11.4-2.68,17.21
		c-0.19,3.82-0.17,7.66,0.11,11.47c0.06,0.86,0.68,9.37,1.87,8.89c0.92-0.37,0.39-3.22,0.39-4.02C7.6,46.56,9.62,36.61,12.1,26.91
		c0.68-2.66,1.25-5.33,1.15-8.09c-0.04-0.96-0.08-2.6-0.74-3.36C11.26,14.03,9.97,16.62,9.51,17.7z"/>
	<path style="fill:#BDCF46;" d="M54.54,97.16c-0.73-1.81,4.95-5.26,6.09-5.91c3.37-1.91,7.18-2.84,11.02-3.32
		c6.28-0.78,10.75,0.19,11.67,0.32c5.15,0.74,3.66,1.65,0.53,2.21c-1.47,0.26-14.61,2.19-26.05,6.27
		C57.27,96.92,54.81,97.83,54.54,97.16z"/>
</g>
</svg>
