<?xml version="1.0" encoding="utf-8"?>
<!-- Generator: Adobe Illustrator 16.0.0, SVG Export Plug-In . SVG Version: 6.00 Build 0)  -->
<!DOCTYPE svg PUBLIC "-//W3C//DTD SVG 1.1//EN" "http://www.w3.org/Graphics/SVG/1.1/DTD/svg11.dtd">
<svg version="1.1" id="レイヤー_1" xmlns="http://www.w3.org/2000/svg" xmlns:xlink="http://www.w3.org/1999/xlink" x="0px"
	 y="0px" width="128px" height="128px" viewBox="0 0 128 128" enable-background="new 0 0 128 128" xml:space="preserve">
<g>
	<path fill="#FFFFFF" d="M1.99,64c0,34.24,27.77,62.01,62.01,62.01c34.24,0,62.01-27.76,62.01-62.01
		c0-34.25-27.77-62.01-62.01-62.01C29.75,1.99,1.99,29.75,1.99,64z"/>
	<g>
		<path fill="#ED6C30" d="M0.24,64c0,35.21,28.55,63.76,63.76,63.76c35.21,0,63.76-28.55,63.76-63.76
			c0-35.21-28.55-63.76-63.76-63.76C28.78,0.24,0.24,28.79,0.24,64z M13.91,64c0-27.67,22.42-50.09,50.09-50.09
			c27.66,0,50.09,22.43,50.09,50.09S91.66,114.09,64,114.09C36.33,114.09,13.91,91.67,13.91,64z"/>
		<g>
			<g>
				<path fill="#006CA2" d="M85.93,12.12c-3.76-1.68-14.77-2.77-21.74-2.77c-6.97,0-17.98,1.08-21.75,2.77
					c-3.68,1.66-5.16,4.92-5.16,8v86.52c0,3.08,1.48,6.34,5.16,7.99c3.77,1.69,14.78,2.76,21.75,2.76c6.97,0,17.97-1.07,21.74-2.76
					c3.69-1.65,5.17-4.92,5.17-7.99V20.12C91.1,17.04,89.61,13.78,85.93,12.12z"/>
				<path fill="#FFFFFF" d="M69.13,16.05h-9.89c-0.5,0-0.92-0.41-0.92-0.92c0-0.51,0.42-0.92,0.92-0.92h9.89
					c0.51,0,0.93,0.42,0.93,0.92C70.06,15.63,69.65,16.05,69.13,16.05z"/>
				<path fill="#FFFFFF" d="M83.63,15.81c0,0.98-0.8,1.78-1.77,1.78s-1.77-0.8-1.77-1.78c0-0.97,0.79-1.77,1.77-1.77
					S83.63,14.84,83.63,15.81z"/>
				<rect x="42.15" y="26.68" fill="#FFFFFF" width="44.07" height="72.93"/>
			</g>
			<g>
				<path fill="#FFFFFF" d="M50.29,103.31v0.62l-1.35-0.99l1.35-1v0.62v0h0.79c1.52,0,2.52,0.45,2.52,1.77
					c0,1.33-0.99,1.77-2.52,1.77h-1.76v-0.73h1.76c1.3,0,1.77-0.28,1.77-1.04c0-0.75-0.47-1.03-1.77-1.03H50.29L50.29,103.31z"/>
				<path fill="#FFFFFF" d="M66.78,105.87h-5.1v-2.58l2.56-1.08l2.54,1.08V105.87z M62.41,105.13h3.62v-1.34l-1.8-0.77l-1.82,0.77
					V105.13z"/>
				<g>
					<path fill="#FFFFFF" d="M78.9,105.87h-4.27v-2.7h4.27V105.87z M75.37,105.13h2.79v-1.22h-2.79V105.13z"/>
					<polygon fill="#FFFFFF" points="80.11,104.35 79.37,104.35 79.37,102.76 76.21,102.76 76.21,102.02 80.11,102.02 					"/>
				</g>
			</g>
		</g>
		<g>
			<g>
				<g>
					<polygon fill="#ED6C30" points="102.92,113.15 114.04,102.03 26.52,13.74 15.39,24.87 					"/>
				</g>
			</g>
		</g>
	</g>
</g>
</svg>
