<svg enable-background="new 0 0 128 128" viewBox="0 0 128 128" xmlns="http://www.w3.org/2000/svg" xmlns:xlink="http://www.w3.org/1999/xlink"><defs><rect id="j" x="4" y="4" width="120" height="120"/></defs><clipPath id="a"><use xlink:href="#j"/></clipPath><g clip-path="url(#a)"><linearGradient id="i" x1="50" x2="50" y1="97.243" y2="136.06" gradientUnits="userSpaceOnUse"><stop stop-color="#303F9F" offset=".0032478"/><stop stop-color="#273492" offset=".4718"/><stop stop-color="#1A237E" offset="1"/></linearGradient><path d="M-0.5,136.06V120.8c0-16.23,25.36-23.53,50.5-23.56h0.13c25.03,0,50.36,8.09,50.36,23.56 v15.26H-0.5z" fill="url(#i)"/><path d="m50.13 98.74c12.9 0 25.42 2.19 34.36 6 6.62 2.83 14.51 7.91 14.51 16.06v13.76h-98v-13.76c0-15.2 24.61-22.03 49-22.06h0.13m0-3h-0.13c-25.49 0.03-52 7.28-52 25.06v16.76h104v-16.76c0-16.75-26.26-25.06-51.87-25.06z" fill="#1B2B8F"/></g><g clip-path="url(#a)"><defs><path id="b" d="m-2 120.8v16.76h104v-16.76c0-16.79-26.35-25.09-52-25.06-25.49 0.03-52 7.28-52 25.06z"/></defs><clipPath id="c"><use xlink:href="#b"/></clipPath><linearGradient id="h" x1="50" x2="50" y1="96.943" y2="128.88" gradientUnits="userSpaceOnUse"><stop stop-color="#FF9100" offset=".0032478"/><stop stop-color="#FF7A00" offset=".6963"/><stop stop-color="#FF6E00" offset="1"/></linearGradient><path d="m83.01 120.02v-20.02c-3.14-1.07-6.49-1.96-9.98-2.68v19.62c0 0.55-0.45 1-1 1h-44.06c-0.55 0-1-0.45-1-1v-19.62c-3.5 0.71-6.84 1.61-9.98 2.68v20.02c0 1.3-0.21 2.59-0.62 3.82l-4.52 13.48h76.31l-4.52-13.48c-0.42-1.23-0.63-2.52-0.63-3.82z" clip-path="url(#c)" fill="url(#h)"/></g><g clip-path="url(#a)"><path d="m49.17 109.53c-4 0-7.26-3.22-7.26-7.17v-8.98h16.16v8.98c0 3.95-3.26 7.17-7.26 7.17h-1.64z" fill="#3C2B24"/><path d="m57.08 94.37v7.98c0 3.4-2.81 6.17-6.26 6.17h-1.65c-3.45 0-6.26-2.77-6.26-6.17v-7.98h14.17m2-2h-18.16v9.98c0 4.51 3.7 8.17 8.26 8.17h1.65c4.56 0 8.26-3.66 8.26-8.17v-9.98h-0.01z" fill="#291B16"/></g><g clip-path="url(#a)"><path d="m22.67 72.3c-5.36 0-9.71-4.67-9.71-10.41s4.36-10.41 9.71-10.41h54.65c5.36 0 9.71 4.67 9.71 10.41s-4.36 10.41-9.71 10.41h-54.65z" fill="#3C2B24"/><path d="m77.33 52.48c4.8 0 8.71 4.22 8.71 9.41s-3.91 9.41-8.71 9.41h-54.66c-4.8 0-8.71-4.22-8.71-9.41s3.91-9.41 8.71-9.41h54.66m0-2h-54.66c-5.89 0-10.71 5.14-10.71 11.41 0 6.28 4.82 11.41 10.71 11.41h54.65c5.89 0 10.71-5.14 10.71-11.41 0.01-6.28-4.81-11.41-10.7-11.41z" fill="#291B16"/><linearGradient id="g" x1="50" x2="50" y1="94.638" y2="12.872" gradientUnits="userSpaceOnUse"><stop stop-color="#5C4037" offset="0"/><stop stop-color="#63463D" offset=".1584"/><stop stop-color="#6D5047" offset=".5335"/><stop stop-color="#70534A" offset="1"/></linearGradient><path d="m50 95.32c-15.66 0-32.52-12.14-32.52-38.81 0-12.38 3.56-23.79 10.02-32.13 6.04-7.8 14.25-12.27 22.5-12.27s16.45 4.47 22.5 12.27c6.46 8.34 10.02 19.75 10.02 32.13 0 12.09-3.51 22.19-10.14 29.21-5.86 6.19-13.81 9.6-22.38 9.6z" fill="url(#g)"/><path d="m50 13.11c7.94 0 15.85 4.33 21.71 11.88 6.33 8.16 9.81 19.35 9.81 31.52 0 11.83-3.41 21.7-9.87 28.52-5.67 5.99-13.36 9.29-21.65 9.29s-15.98-3.3-21.65-9.29c-6.46-6.82-9.87-16.69-9.87-28.52 0-12.16 3.49-23.35 9.81-31.52 5.86-7.55 13.77-11.88 21.71-11.88m0-2c-17.4 0-33.52 18.61-33.52 45.39 0 26.64 16.61 39.81 33.52 39.81s33.52-13.17 33.52-39.81c0-26.78-16.12-45.39-33.52-45.39z" fill="#4A2F27"/><g fill="#1A1717"><path d="m25.99 50.77s0.13-0.19 0.38-0.51c0.07-0.08 0.12-0.16 0.22-0.26 0.11-0.11 0.23-0.22 0.37-0.34s0.28-0.24 0.43-0.38c0.15-0.13 0.31-0.23 0.48-0.35 0.17-0.11 0.34-0.24 0.53-0.35 0.19-0.1 0.4-0.21 0.6-0.32 0.21-0.12 0.43-0.21 0.66-0.3s0.47-0.18 0.71-0.27c0.49-0.14 1-0.29 1.54-0.36 0.53-0.1 1.08-0.11 1.63-0.14 0.55 0.03 1.09 0.03 1.63 0.14 0.53 0.07 1.05 0.22 1.54 0.36 0.24 0.08 0.48 0.17 0.71 0.27 0.23 0.09 0.45 0.18 0.66 0.3 0.21 0.11 0.41 0.22 0.6 0.32 0.19 0.11 0.36 0.24 0.53 0.35 0.17 0.12 0.33 0.22 0.47 0.34s0.27 0.24 0.4 0.35c0.12 0.11 0.24 0.21 0.34 0.31s0.18 0.21 0.26 0.29c0.31 0.36 0.46 0.57 0.46 0.57 0.51 0.7 0.35 1.69-0.36 2.19-0.43 0.31-0.96 0.37-1.43 0.21l-0.29-0.1s-0.19-0.07-0.49-0.2c-0.08-0.03-0.15-0.07-0.25-0.11-0.1-0.03-0.19-0.07-0.3-0.11-0.21-0.08-0.44-0.17-0.7-0.25-0.13-0.04-0.26-0.09-0.4-0.13-0.14-0.03-0.28-0.07-0.43-0.11-0.07-0.02-0.15-0.04-0.22-0.06-0.08-0.01-0.15-0.03-0.23-0.04-0.16-0.03-0.31-0.07-0.47-0.1-0.33-0.04-0.66-0.11-1-0.12-0.34-0.04-0.69-0.03-1.03-0.05-0.35 0.02-0.7 0.01-1.03 0.05-0.34 0.02-0.67 0.09-1 0.12-0.16 0.03-0.31 0.07-0.47 0.1-0.08 0.01-0.16 0.03-0.23 0.04-0.07 0.02-0.15 0.04-0.22 0.06-0.15 0.04-0.29 0.07-0.43 0.11s-0.27 0.09-0.4 0.13-0.25 0.08-0.37 0.11c-0.1 0.04-0.2 0.07-0.29 0.1s-0.18 0.06-0.27 0.09c-0.1 0.04-0.2 0.1-0.29 0.14-0.36 0.18-0.57 0.27-0.57 0.27-0.83 0.34-1.77-0.05-2.11-0.87-0.24-0.48-0.16-1.05 0.13-1.49z"/><ellipse cx="34.19" cy="58.86" rx="4.93" ry="5.1"/><path d="m72.05 53.18s-0.22-0.09-0.57-0.27c-0.09-0.04-0.19-0.1-0.29-0.14-0.09-0.02-0.18-0.06-0.27-0.09s-0.19-0.07-0.29-0.1c-0.12-0.04-0.24-0.07-0.37-0.11s-0.26-0.09-0.4-0.13-0.28-0.07-0.43-0.11c-0.07-0.02-0.15-0.04-0.22-0.06-0.08-0.01-0.15-0.03-0.23-0.04-0.16-0.03-0.31-0.07-0.47-0.1-0.33-0.04-0.66-0.11-1-0.12-0.34-0.04-0.69-0.03-1.03-0.05-0.35 0.02-0.7 0.01-1.03 0.05-0.34 0.02-0.67 0.09-1 0.12-0.16 0.03-0.31 0.07-0.47 0.1-0.08 0.01-0.16 0.03-0.23 0.04-0.07 0.02-0.15 0.04-0.22 0.06-0.15 0.04-0.29 0.08-0.43 0.11-0.14 0.04-0.27 0.09-0.4 0.13-0.26 0.07-0.49 0.16-0.7 0.25-0.11 0.04-0.2 0.08-0.3 0.11-0.09 0.04-0.17 0.08-0.25 0.11-0.3 0.13-0.49 0.2-0.49 0.2l-0.28 0.1c-0.82 0.29-1.72-0.15-2-0.97-0.17-0.5-0.08-1.03 0.21-1.44 0 0 0.16-0.22 0.46-0.57 0.08-0.09 0.16-0.19 0.26-0.29s0.22-0.2 0.34-0.31 0.26-0.23 0.4-0.35 0.31-0.22 0.47-0.34c0.17-0.12 0.34-0.24 0.53-0.35 0.19-0.1 0.4-0.21 0.6-0.32 0.21-0.12 0.43-0.21 0.66-0.3s0.46-0.18 0.71-0.27c0.49-0.14 1-0.29 1.54-0.36 0.53-0.1 1.08-0.11 1.63-0.14 0.55 0.03 1.09 0.03 1.63 0.14 0.53 0.06 1.05 0.22 1.54 0.36 0.24 0.08 0.48 0.17 0.71 0.27 0.23 0.09 0.45 0.18 0.66 0.3 0.21 0.11 0.41 0.22 0.6 0.32 0.19 0.11 0.36 0.24 0.53 0.35 0.17 0.12 0.32 0.22 0.48 0.35 0.15 0.13 0.3 0.26 0.43 0.38s0.26 0.23 0.37 0.34c0.09 0.1 0.15 0.18 0.22 0.26 0.25 0.31 0.38 0.51 0.38 0.51 0.5 0.74 0.31 1.74-0.43 2.25-0.49 0.28-1.07 0.31-1.56 0.12z"/><ellipse cx="65.33" cy="58.86" rx="4.93" ry="5.1"/></g><path d="m53.86 68.1c-0.11-0.04-0.21-0.07-0.32-0.08h-7.07c-0.11 0.01-0.22 0.04-0.32 0.08-0.64 0.26-0.99 0.92-0.69 1.63s1.71 2.69 4.55 2.69 4.25-1.99 4.55-2.69c0.29-0.7-0.06-1.37-0.7-1.63z" fill="#33251F"/><path d="m58.53 76.19c-3.19 1.89-13.63 1.89-16.81 0-1.83-1.09-3.7 0.58-2.94 2.24 0.75 1.63 6.45 5.42 11.37 5.42s10.55-3.79 11.3-5.42c0.75-1.67-1.09-3.33-2.92-2.24z" fill="#1A1717"/><defs><path id="f" d="m50 4.08h-0.02s-0.01 0-0.02 0c-45.43 0.24-36.12 52.14-36.12 52.14s5.1 8.99 5.1 8.81c-0.03-1.41 0.46-6.89 0.46-6.89l-2.68-2.92s3.89-25.44 6.79-24.91c4.45 0.81 26.54 2 26.57 2 7.83 0 14.92-0.36 19.37-1.17 2.9-0.53 9.64 1.7 10.68 4.45 1.33 3.54 3.13 19.71 3.13 19.71l-2.68 2.83s0.49 5.51 0.46 6.89c0 0.18 5.1-8.81 5.1-8.81s9.3-51.89-36.14-52.13z"/></defs><clipPath><use xlink:href="#f"/></clipPath><radialGradient id="e" cx="50.26" cy="4.3203" r="48.85" gradientUnits="userSpaceOnUse"><stop stop-color="#444140" offset="0"/><stop stop-color="#232020" offset="1"/></radialGradient><path d="m50.02 4.08h-0.02s-0.01 0-0.02 0c-45.43 0.24-36.13 52.14-36.13 52.14s5.1 8.99 5.1 8.81c-0.16-7.25 2.74-20.09 4.8-25.55 1.04-2.76 3.9-4.36 6.79-3.83 4.45 0.81 11.55 1.81 19.37 1.81h0.08 0.08c7.83 0 14.92-1 19.37-1.81 2.9-0.53 5.76 1.08 6.79 3.83 2.06 5.47 4.96 18.3 4.8 25.55 0 0.18 5.1-8.81 5.1-8.81s9.32-51.9-36.11-52.14z" fill="url(#e)"/><path d="m50.02 4.08h-0.02s-0.01 0-0.02 0c-45.43 0.24-36.13 52.14-36.13 52.14s5 8.81 5.1 8.81c-0.03-1.48 0.07-3.2 0.26-5.03-0.12-0.29-2.46-4.75-2.48-4.79-0.24-1.6-0.93-6.98-0.55-13.56 0.41-7.04 2.17-16.96 8.22-24.22 5.67-6.8 14.27-10.28 25.56-10.35h0.04c11.32 0.06 19.93 3.54 25.6 10.35 10.81 12.96 8.18 34.33 7.67 37.79-0.02 0.04-2.46 4.58-2.49 4.65 0.2 1.89 0.31 3.65 0.27 5.17 0.1 0 5.1-8.81 5.1-8.81s9.3-51.91-36.13-52.15z" fill="#1F1D1B"/></g><g clip-path="url(#a)"><linearGradient id="d" x1="106.45" x2="99.778" y1="39.979" y2="115.07" gradientTransform="matrix(.9959 .0905 -.0905 .9959 7.5363 5.7395)" gradientUnits="userSpaceOnUse"><stop stop-color="#90A4AE" offset="0"/><stop stop-color="#889DA8" offset=".2674"/><stop stop-color="#78909C" offset=".5844"/><stop stop-color="#607D8B" offset="1"/></linearGradient><path d="m96.56 131.79c-0.38 0-0.77-0.06-1.14-0.17-1.97-0.58-3.21-2.72-2.81-4.88l7.8-42.23c0.5-2.69-0.42-5.46-2.45-7.39-3.83-3.64-5.52-9.04-4.53-14.42 0.7-3.76 2.66-7.15 5.54-9.53 0.14-0.12 0.29-0.17 0.45-0.17 0.21 0 0.42 0.1 0.56 0.26 0.13 0.15 0.17 0.34 0.13 0.56l-1.46 7.9c-0.16 0.84 0.1 1.72 0.69 2.34l6.16 6.5c0.51 0.53 1.22 0.84 1.95 0.84 0.4 0 0.8-0.09 1.16-0.26l8.08-3.87c0.77-0.37 1.33-1.1 1.48-1.94l1.46-7.9c0.08-0.42 0.42-0.56 0.68-0.56 0.15 0 0.44 0.05 0.62 0.37 1.83 3.26 2.46 7.12 1.77 10.88-1 5.39-4.5 9.82-9.38 11.85-2.59 1.08-4.43 3.33-4.93 6.03l-7.85 42.46c-0.34 1.93-2.02 3.33-3.98 3.33z" fill="url(#d)"/><path d="m98.98 54.5-1.3 7.04c-0.21 1.16 0.14 2.36 0.95 3.21l6.16 6.5c0.69 0.73 1.67 1.15 2.68 1.15 0.55 0 1.1-0.13 1.59-0.36l8.08-3.87c1.06-0.51 1.82-1.5 2.04-2.66l1.3-7.04c1.41 2.89 1.86 6.22 1.26 9.46-0.93 5.05-4.22 9.21-8.78 11.11-2.9 1.21-4.97 3.74-5.53 6.77l-7.85 42.46c-0.27 1.45-1.54 2.51-3.02 2.51-0.29 0-0.58-0.04-0.86-0.12-1.49-0.43-2.41-2.07-2.1-3.73l7.8-42.23c0.56-3.03-0.47-6.13-2.75-8.3-3.58-3.41-5.17-8.46-4.23-13.52 0.6-3.24 2.2-6.19 4.56-8.38m0.45-2.5c-0.37 0-0.75 0.12-1.09 0.4-2.95 2.45-5.12 5.97-5.89 10.12-1.09 5.9 0.91 11.61 4.82 15.33 1.76 1.68 2.6 4.1 2.16 6.49l-7.8 42.23c-0.48 2.6 0.98 5.28 3.51 6.02 0.48 0.14 0.96 0.2 1.42 0.2 2.39 0 4.54-1.71 4.99-4.15l7.85-42.46c0.44-2.39 2.09-4.35 4.33-5.29 4.98-2.08 8.89-6.69 9.98-12.59 0.77-4.15 0-8.22-1.88-11.56-0.34-0.6-0.92-0.88-1.49-0.88-0.76 0-1.5 0.49-1.67 1.38l-1.46 7.9c-0.1 0.53-0.45 0.99-0.93 1.22l-8.08 3.87c-0.23 0.11-0.48 0.17-0.73 0.17-0.45 0-0.9-0.18-1.23-0.53l-6.16-6.5c-0.37-0.39-0.53-0.94-0.44-1.47l1.46-7.9c0.21-1.14-0.69-2-1.67-2z" fill="#587D8C"/></g><g clip-path="url(#a)"><path d="m100.82 129.79-8-0.25c-6.96-0.71-11.7-4.77-10.79-13.12 1.97-18.12 21.83-12.18 23.64-6.3 2.7 8.8-1.75 19.98-4.85 19.67z" fill="#70534A"/><path d="m100.94 130.76c-0.06 0-0.13 0-0.19-0.01l-7.97-0.25c-4.16-0.42-7.38-1.95-9.39-4.43-1.98-2.45-2.77-5.74-2.33-9.76 0.83-7.61 5.03-12.33 11.52-12.95 5.88-0.56 12.83 2.64 14 6.47 2.27 7.38-0.28 16.1-2.91 19.3-1.07 1.32-2.04 1.63-2.73 1.63zm-6.93-25.52c-0.41 0-0.83 0.02-1.24 0.06-3.23 0.31-8.79 2.17-9.78 11.23-0.38 3.49 0.26 6.3 1.91 8.33 1.67 2.07 4.45 3.35 8.01 3.72l7.93 0.25h0.07c0.2 0.01 0.68-0.2 1.27-0.92 2.41-2.94 4.55-11.02 2.56-17.5-0.76-2.48-5.76-5.17-10.73-5.17z" fill="#4A2F27"/><path d="m93.5 126c-0.27 1.7 0.89 3.29 2.59 3.57l4.33 0.69c1.7 0.27 3.29-0.89 3.57-2.59 0.27-1.7-0.89-3.29-2.59-3.57l-4.33-0.69c-1.7-0.27-3.3 0.89-3.57 2.59z" fill="#70534A"/><path d="m100.91 131.12c-0.21 0-0.41-0.02-0.62-0.05l-4.33-0.69c-2.15-0.34-3.62-2.37-3.28-4.52 0.17-1.04 0.73-1.96 1.58-2.58s1.9-0.87 2.94-0.7l4.33 0.69c1.04 0.17 1.96 0.73 2.58 1.58s0.87 1.9 0.7 2.94c-0.31 1.95-1.99 3.33-3.9 3.33zm-6.58-4.99c-0.2 1.24 0.65 2.41 1.89 2.61l4.33 0.69c1.24 0.2 2.41-0.65 2.61-1.89 0.1-0.6-0.05-1.2-0.41-1.7-0.36-0.49-0.88-0.82-1.49-0.91l-4.33-0.69c-1.23-0.21-2.41 0.64-2.6 1.89z" fill="#4A2F27"/><path d="m94.71 121.54c-0.26 1.71 0.91 3.31 2.62 3.58l5.68 0.87c1.71 0.26 3.31-0.91 3.58-2.62 0.26-1.71-0.91-3.31-2.62-3.58l-5.68-0.87c-1.71-0.26-3.32 0.91-3.58 2.62z" fill="#70534A"/><path d="m103.5 127c-0.21 0-0.42-0.02-0.63-0.05l-5.68-0.87c-2.24-0.34-3.78-2.44-3.43-4.68 0.34-2.24 2.45-3.77 4.68-3.43l5.69 0.88c1.08 0.17 2.04 0.74 2.69 1.63 0.65 0.88 0.91 1.97 0.75 3.05-0.17 1.08-0.75 2.04-1.63 2.68-0.73 0.51-1.57 0.79-2.44 0.79zm-7.83-5.31c-0.18 1.18 0.63 2.29 1.81 2.47l5.68 0.87c0.58 0.09 1.14-0.05 1.61-0.39s0.77-0.85 0.86-1.42-0.05-1.14-0.39-1.61-0.85-0.77-1.42-0.86l-5.69-0.88c-1.16-0.17-2.28 0.64-2.46 1.82z" fill="#4A2F27"/><path d="m94.97 117.26c-0.17 1.68 1.05 3.19 2.74 3.36l6.95 0.71c1.68 0.17 3.19-1.05 3.36-2.74 0.17-1.68-1.05-3.19-2.74-3.36l-6.95-0.71c-1.69-0.17-3.19 1.05-3.36 2.74z" fill="#70534A"/><path d="m104.97 122.31c-0.14 0-0.28-0.01-0.42-0.02l-6.95-0.71c-1.07-0.11-2.04-0.63-2.72-1.46-0.68-0.84-1-1.89-0.89-2.96 0.23-2.21 2.21-3.82 4.42-3.6l6.95 0.71c1.07 0.11 2.04 0.63 2.72 1.46s1 1.88 0.89 2.96c-0.11 1.07-0.63 2.04-1.46 2.72-0.72 0.58-1.61 0.9-2.54 0.9zm-6.96-6.84c-1.06 0-1.97 0.81-2.08 1.88-0.06 0.56 0.11 1.1 0.46 1.54 0.35 0.43 0.86 0.7 1.41 0.76l6.95 0.71c0.56 0.06 1.1-0.11 1.54-0.46 0.43-0.35 0.7-0.86 0.76-1.41 0.06-0.56-0.11-1.1-0.46-1.54-0.35-0.43-0.86-0.7-1.41-0.76l-6.95-0.71c-0.07-0.01-0.15-0.01-0.22-0.01zm-3.04 1.79z" fill="#4A2F27"/><path d="m94.89 111.78c-0.08 1.69 1.23 3.13 2.92 3.21l6.98 0.33c1.69 0.08 3.13-1.23 3.21-2.92s-1.23-3.13-2.92-3.21l-6.98-0.33c-1.69-0.08-3.13 1.23-3.21 2.92z" fill="#70534A"/><path d="m104.94 116.28h-0.2l-6.98-0.33c-1.08-0.05-2.07-0.52-2.79-1.31s-1.1-1.83-1.05-2.91c0.11-2.22 2.02-3.95 4.22-3.84l6.98 0.33c2.22 0.11 3.94 2 3.84 4.22-0.05 1.08-0.52 2.07-1.32 2.79-0.74 0.69-1.7 1.05-2.7 1.05zm-9.08-4.46c-0.03 0.56 0.17 1.1 0.54 1.51s0.89 0.66 1.45 0.68l6.98 0.33c0.54 0.03 1.09-0.17 1.51-0.54 0.41-0.38 0.66-0.89 0.68-1.45 0.05-1.15-0.84-2.14-2-2.19l-6.98-0.33c-1.13-0.08-2.12 0.84-2.18 1.99z" fill="#4A2F27"/><path d="m105.57 104.92c-0.77-0.19-3.45-1.06-5.22-1.45-0.67-0.15-2.45-0.48-3.13-0.49-2.18-0.04-9.12 2.5-10.74 4.1-0.79 0.78-5.75 12.15 4.03 10.37 4.09-0.52 3.01-5.45 4.36-6.82 1.03-1.05 2.7-2.6 7.64-0.91 1.38 0.47 3.76 0.45 4.63-0.6 1.51-1.83 0.67-3.64-1.57-4.2z" fill="#70534A"/><path d="m109.09 106.31c-0.38-1.13-1.46-1.99-2.96-2.35-0.26-0.06-0.74-0.2-1.32-0.37-1.17-0.34-2.78-0.8-4-1.07-0.62-0.14-2.52-0.49-3.38-0.51-6.63-0.15-9.7 2.08-11.66 4.3-1.29 1.45-0.98 4.03-0.63 3.54 0.69-0.95 3.8-3.73 6.56-4.78 2.42-0.92 3.83-1.2 5.72-1.17 0.58 0.01 2.26 0.31 2.97 0.46 1.15 0.25 2.72 0.71 3.87 1.04 0.62 0.18 1.13 0.33 1.4 0.39 0.83 0.2 1.41 0.6 1.57 1.1 0.14 0.43 0.13 1.25-0.34 1.79-0.49 0.57-2.61 0.73-3.88 0.3-1.8-0.6-3.74-1.37-5.64-0.94-1.44 0.33-3.14 1.25-3.71 2.6-0.56 1.32-0.09 4.75-2.2 6.8-0.87 0.84-3.13 1.89-3.13 1.89s2.47 0.54 3.86-0.25c1.96-1.12 2.9-3.62 3.29-5.64 0.17-0.9 0.14-2.5 0.42-2.76 0.87-0.86 1.88-2.12 6.41-0.61 1.58 0.52 4.68 1.03 5.95-0.45 0.89-1.06 1.19-2.24 0.83-3.31z" fill="#4A2F27"/></g></svg>
