<svg xmlns="http://www.w3.org/2000/svg" viewBox="0 0 128 128"><path d="M125.09 30.08c-.59-.37-2.25-.55-2.57-.98-.39-.52.28-1.52.44-2.03.47-1.4.41-2.95-.18-4.31-.77-1.78-3.1-3.8-4.84-4.66-1.65-.81-3.49-1.3-5.33-1.19-1.78.11-3.04 1.64-4.87 1.11-1.38-.39-2.2-1.9-3.66-2.25-2.38-.57-5.06.54-6.76 2.21-6.03 5.91-7.15 16.21-6.49 24.22.17 1.94.51 3.87 1.09 5.76.96 3.15 3.9 5.29 6.84 6.45 5.71 2.27 10.56-.95 15.26-3.92 4.34-2.73 9.6-5.88 12.23-10.44 1.82-3.15 2.39-7.74-1.16-9.97z" fill="#ed6c30"/><path d="M106.71 57.75c-.35-1.03-.89-1.92-1.56-2.58-.43-.43-.42-1.15-.36-2.27.08-1.46.18-3.46-1.69-4.76-.11-.07-.21-.16-.33-.24-.42-.32-.9-.68-1.44-.89-.45-.17-.88-.23-1.26-.27-.15-.02-.29-.04-.42-.06-.03-.14-.07-.28-.12-.4-.69-1.79-2.42-3.02-4.63-3.29-.35-.04-.76-.08-1.18-.08-.63 0-1.18.07-1.63.22-.55.18-.96.51-1.28.79a6.4 6.4 0 0 1-.27.22c-.03-.02-.05-.04-.08-.05-.11-.07-.22-.13-.33-.19-.95-.48-2.09-.55-2.69-.56-2.95 0-4.7 2.4-5.32 4.46-.04.14-.11.28-.16.42-.05.13-.11.27-.17.42-1.03.29-2.44.84-2.69 1.01-1.8 1.19-2.99 2.95-3.25 4.83l-.03.23c-.05.41-.12.92-.29 1.07-.12.08-.61.09-.9.11-.35.01-.71.03-1.07.11-1.51.33-2.78 1.08-3.78 2.25-.95 1.1-1.04 2.2-1.13 3.27l-.03.44c-.01.16-.02.35-.04.48-.08.02-.21.05-.39.08-.61.09-1.24.16-1.87.23-1.73.18-3.51.36-5.2 1.19-.75.36-1.24.86-1.67 1.31-.18.17-.35.35-.55.53-.78.67-1.66 1.48-2.28 2.68-.14.28-.28.55-.35.62-.33-.1-.72-.27-1.14-.44-.3-.12-.6-.25-.9-.34-.73-.23-1.45-.27-2.08-.3l-.53-.03c-.13-.01-.26-.02-.39-.02-2.05 0-3.7 1.13-4.77 1.98-.65.51-1.06 1.31-1.46 2.08-.2.37-.51.97-.71 1.18-.34-.05-.86-.33-1.25-.54-.26-.13-.5-.26-.72-.36a5.915 5.915 0 0 0-3.3-.44c-2.48.34-4.99 1.71-6.56 3.54-.18.21-.34.44-.51.67-.16.23-.43.62-.56.68-.16 0-.4-.22-.67-.46-.15-.12-.29-.26-.44-.37a6.697 6.697 0 0 0-4.18-1.43c-1.39 0-2.74.4-3.92 1.17-.47.3-.85.73-1.21 1.14-.23.26-.67.75-.85.8-.43 0-1.17-.28-1.76-.51-.54-.2-1.05-.39-1.51-.49-.77-.16-1.94-.39-3-.39-.36 0-.68.02-.97.08-2.42.44-4.94 2.58-5.59 4.76-.26.88-.31 1.84-.34 2.7-.01.27-.03.55-.05.81-.03.43-.1.55-.1.55-.03.01-.3.1-.5.17l-.47.16C1.74 86.96.81 91.44.5 92.91c-.58 2.83.26 5.41 2.3 7.08.41.33.78.52 1.05.67.09.04.19.1.25.13-.01.02.01.11.02.29.02.6-.06 1.25-.15 1.94-.06.49-.12.99-.15 1.47-.09 1.49.43 2.95 1.41 4.01.85.92 1.91 1.19 2.76 1.39.29.08.58.14.86.25.41.16.5.25.51.26.02.05.07.31.11.51l.07.38c.26 1.37.86 2.38 2.06 3.47 1.59 1.46 4.17 1.97 5.91 1.97.19 0 .38 0 .56-.01.47-.02.96-.22 1.42-.4.18-.08.47-.19.65-.24.1.16.35.56.51.82.38.62.77 1.26 1.32 1.68 1.73 1.32 4.07 2.1 6.27 2.1.21 0 .41-.01.62-.02 1.23-.09 2.77-.62 3.94-1.34.19-.11.35-.23.51-.33.41-.28.53-.35.68-.35.1 0 .24.02.4.08.28.09.61.28.95.49.49.3 1.06.63 1.74.79.72.18 1.54.27 2.38.27.82 0 1.64-.09 2.35-.26 1.5-.35 3.09-1.15 4.15-2.05.41-.35.7-.81.99-1.25.16-.25.43-.67.59-.79h.01c.02 0 .04-.01.07-.01.31 0 .77.08 1.17.15.31.06.59.11.8.12.24.02.49.05.73.08.52.07 1.06.13 1.61.13.49 0 .92-.06 1.33-.16 1.99-.51 4.37-2.19 5.33-4.22.17-.02.34-.03.51-.05.27-.03.54-.06.82-.06.07 0 .13.01.2.01.35.03.71.04 1.07.04 1.06 0 2.05-.11 3.03-.36 1.86-.47 4.5-1.44 6.04-4.48.23-.46.33-.98.42-1.43.04-.26.12-.64.18-.75.16-.07 1.02-.11 1.35-.12l.37-.02c2.87-.18 4.36-1.42 6.14-3.15.79-.77 1.77-1.74 2.15-2.84.22-.63.23-1.25.24-1.81 0-.35.02-.69.08-.96.16-.66.69-.88 1.95-1.26.36-.11.73-.22 1.07-.35 2.46-.95 4.59-2.83 5.83-5.16.46-.87.64-1.72.79-2.47.08-.36.15-.74.27-1.12.09-.27.19-.5.29-.73.28-.63.63-1.41.52-2.48-.03-.32-.1-.63-.18-.96-.02-.1-.05-.19-.07-.29.76-.15 1.61-.37 1.82-.46.92-.42 1.78-1.01 2.53-1.76 1.12-1.12 2.14-2.83 2.75-4.58.11-.34.13-.71.15-1.06.01-.09.01-.21.02-.31.21-.12.51-.19.94-.29.75-.16 1.69-.37 2.46-1.19 1.62-1.7 1.68-4.23 1.56-5.59 0-.03 0-.06-.01-.09.94-.34 1.71-.96 2.29-1.84 1.07-1.59 1.29-4.08.54-6.29z" fill="#fcc21b"/><path d="M99.83 38.1c-2.36-.04-.75-6.68-.29-8.27.27-.93.96-2.58 1.93-3.65.83-.92 1.86-1.4 2.98-.62 3.01 2.1-1.55 12.59-4.62 12.54zM115.67 38.81c-.84.62-1.88 1.26-2.86 1.68-1.18.51-3.95 2.17-5.13.94-.1-.1-.16-.23-.18-.38-.24-2.15 1.62-4.15 3.57-5.55.82-.59 1.65-1.08 2.34-1.43 1.56-.79 3.49-.98 4.48.82.8 1.41-1.16 3.14-2.22 3.92z" fill="#fff"/></svg>