<svg width="128" height="128" style="enable-background:new 0 0 128 128;" xmlns="http://www.w3.org/2000/svg" xmlns:xlink="http://www.w3.org/1999/xlink">
  <g>
    <linearGradient id="SVGID_1_" gradientUnits="userSpaceOnUse" x1="64" x2="64" y1="4.25" y2="124.4088">
      <stop offset="0" style="stop-color:#40C4FF"/>
      <stop offset="0.3517" style="stop-color:#2DB5F9"/>
      <stop offset="1" style="stop-color:#0091EA"/>
    </linearGradient>
    <path d="M116,124H12c-4.42,0-8-3.58-8-8V12c0-4.42,3.58-8,8-8h104c4.42,0,8,3.58,8,8v104 C124,120.42,120.42,124,116,124z" style="fill:url(#SVGID_1_);"/>
    <g style="opacity:0.2;">
      <path d="M116,7c2.76,0,5,2.24,5,5v104c0,2.76-2.24,5-5,5H12c-2.76,0-5-2.24-5-5V12c0-2.76,2.24-5,5-5H116 M116,4H12c-4.42,0-8,3.58-8,8v104c0,4.42,3.58,8,8,8h104c4.42,0,8-3.58,8-8V12C124,7.58,120.42,4,116,4L116,4z" style="fill:#424242;"/>
    </g>
    <g style="opacity:0.2;">
      <path d="M84,22c15.46,0,28,14.33,28,32S99.46,86,84,86H50c-1.1,0-2,0.9-2,2v13.99 c0,2.39-1.96,4.01-4.02,4.01c-0.9,0-1.82-0.31-2.61-1l-24-23.99c-1.82-1.59-1.82-4.43,0-6.02l24-23.99c0.79-0.69,1.71-1,2.61-1 c2.06,0,4.02,1.62,4.02,4.01V68c0,1.1,0.9,2,2,2h34c6.5,0,12-7.33,12-16s-5.5-16-12-16H52c-2.21,0-4-1.79-4-4v-8 c0-2.21,1.79-4,4-4H84 M84,19H52c-3.86,0-7,3.14-7,7v8c0,3.86,3.14,7,7,7h32c4.79,0,9,6.07,9,13s-4.21,13-9,13H51V54.01 c0-3.86-3.15-7.01-7.02-7.01c-1.68,0-3.3,0.62-4.59,1.74l-0.08,0.07l-0.07,0.07L15.31,72.81C13.84,74.13,13,76.02,13,78 c0,1.98,0.84,3.87,2.31,5.19l23.94,23.93l0.07,0.07l0.07,0.07c1.28,1.12,2.91,1.74,4.59,1.74c3.87,0,7.02-3.14,7.02-7.01V89h33 c17.09,0,31-15.7,31-35S101.09,19,84,19L84,19z" style="fill:#424242;"/>
    </g>
    <path d="M84,22H52c-2.21,0-4,1.79-4,4v8c0,2.21,1.79,4,4,4h32c6.5,0,12,7.33,12,16s-5.5,16-12,16H50 c-1.1,0-2-0.9-2-2V54.01c0-3.44-4.05-5.27-6.63-3.01l-24,23.99c-1.82,1.59-1.82,4.43,0,6.02l24,23.99 c2.59,2.26,6.63,0.43,6.63-3.01V88c0-1.1,0.9-2,2-2h34c15.46,0,28-14.33,28-32S99.46,22,84,22z" style="fill:#FAFAFA;"/>
  </g>
</svg>