<svg enable-background="new 0 0 128 128" viewBox="0 0 128 128" xmlns="http://www.w3.org/2000/svg"><line x1="117.34" x2="22.55" y1="117.39" y2="109.44" fill="none" stroke="#CFD8DC" stroke-linecap="round" stroke-linejoin="round" stroke-miterlimit="10" stroke-width="2.0018"/><line x1="10.77" x2="18.72" y1="10.82" y2="105.61" fill="none" stroke="#CFD8DC" stroke-linecap="round" stroke-linejoin="round" stroke-miterlimit="10" stroke-width="2.0018"/><path d="m15.87 111.94-10.91 1.22c-0.82 0.09-1.29-0.9-0.71-1.48l13.23-13.23c0.14-0.14 0.32-0.23 0.52-0.25l10.91-1.22c0.82-0.09 1.29 0.9 0.71 1.48l-13.23 13.23c-0.14 0.14-0.32 0.23-0.52 0.25z" fill="#F44336"/><path d="m20.14 107.94-3.72 3.72c-0.14 0.14-0.23 0.32-0.25 0.52l-1.22 10.91c-0.09 0.82 0.9 1.29 1.48 0.71l3.33-3.33c-0.04-4.17 0.03-8.31 0.38-12.53z" fill="#F44336"/><path d="m29.66 98.42-9.51 9.51c-0.35 4.22-0.42 8.37-0.38 12.52l9.9-9.9c0.14-0.14 0.23-0.32 0.25-0.52l1.22-10.91c0.08-0.8-0.9-1.28-1.48-0.7z" fill="#F44336"/><g opacity=".2"><path d="m29.03 97.98m-0.38 0.04-12.93 12.93-10.48 1.17 12.93-12.93 10.48-1.17m-10.45 1.14m10.82-2.18c-0.03 0-0.07 0-0.1 0.01l-10.91 1.21c-0.2 0.02-0.38 0.11-0.52 0.25l-13.23 13.23c-0.55 0.55-0.14 1.48 0.61 1.48 0.03 0 0.07 0 0.1-0.01l10.91-1.22c0.2-0.02 0.38-0.11 0.52-0.25l13.23-13.23c0.55-0.55 0.14-1.47-0.61-1.47z" fill="#424242"/></g><g opacity=".2"><path d="m30.36 99.13m-0.27 0.27-1.17 10.48-12.93 12.93 1.17-10.48 12.93-12.93m-12.92 12.89m13.09-14.12c-0.21 0-0.43 0.08-0.61 0.26l-13.23 13.23c-0.14 0.14-0.23 0.32-0.25 0.52l-1.22 10.91c-0.06 0.56 0.39 0.97 0.87 0.97 0.21 0 0.43-0.08 0.61-0.26l13.23-13.23c0.14-0.14 0.23-0.32 0.25-0.52l1.22-10.91c0.06-0.57-0.39-0.97-0.87-0.97z" fill="#424242"/></g><path d="m15.52 112.56c0.7 0.7 1.83 0.7 2.53 0l102.2-102.2-2.53-2.53-102.2 102.2c-0.7 0.7-0.7 1.83 0 2.53z" fill="#8D6E63"/><g opacity=".2"><path d="m117.73 9.24 1.12 1.12-101.5 101.49c-0.15 0.15-0.35 0.23-0.56 0.23s-0.41-0.08-0.56-0.23c-0.31-0.31-0.31-0.81 0-1.12l101.5-101.49m0-1.41-102.2 102.2c-0.7 0.7-0.7 1.83 0 2.53 0.35 0.35 0.81 0.52 1.27 0.52s0.92-0.17 1.27-0.52l102.2-102.2-2.54-2.53z" fill="#424242"/></g><linearGradient id="a" x1="59.23" x2="73.411" y1="-10.604" y2="-10.604" gradientTransform="matrix(-.7071 -.7071 -.7071 .7071 156.77 65.044)" gradientUnits="userSpaceOnUse"><stop stop-color="#9E9E9E" offset="0"/><stop stop-color="#E0E0E0" offset="1"/></linearGradient><path d="m109.05 9.2 11.48-4.9c2.03-0.87 4.09 1.19 3.21 3.22l-4.94 11.48c-0.8 1.85-3.36 2-4.37 0.26l-1.75-3.03c-0.21-0.37-0.51-0.67-0.88-0.88l-3.02-1.78c-1.74-1.02-1.57-3.58 0.27-4.37z" fill="url(#a)"/><g opacity=".2"><path d="m121.51 5.32c0.4 0 0.79 0.22 1.02 0.57 0.13 0.2 0.32 0.62 0.09 1.15l-4.94 11.48c-0.3 0.69-0.94 0.74-1.13 0.74-0.21 0-0.74-0.06-1.06-0.61l-1.75-3.03c-0.32-0.55-0.77-1.01-1.32-1.33l-3.02-1.78c-0.41-0.24-0.63-0.66-0.6-1.13s0.31-0.86 0.74-1.05l11.48-4.9c0.16-0.07 0.32-0.11 0.49-0.11m0-1.22c-0.32 0-0.65 0.06-0.98 0.2l-11.48 4.9c-1.85 0.79-2.01 3.35-0.28 4.37l3.02 1.78c0.36 0.21 0.67 0.52 0.88 0.88l1.75 3.03c0.48 0.82 1.3 1.22 2.12 1.22 0.92 0 1.83-0.5 2.25-1.48l4.94-11.48c0.75-1.7-0.58-3.42-2.22-3.42z" fill="#424242"/></g><path d="m92.76 35.75c-9.45-9.46-30.4-8.81-44.21-8.81-13.82 0-32.27-4.87-43.18-15.57-1.67-1.63-1.85-4.46-0.2-6.11l0.03-0.03c1.63-1.63 4.42-1.51 6.08 0.11 9.45 9.26 27.79 12.5 40.65 12.5 13.26 0 39.39-2.59 50.32 8.35 10.93 10.93 8.33 37.26 8.33 50.31 0 12.86 3.02 30.99 12.29 40.44 1.62 1.66 1.46 4.16-0.17 5.79l-0.03 0.03c-1.65 1.65-4.19 1.76-5.82 0.1-10.7-10.91-15.44-29.06-15.44-42.88-0.01-13.04 0.8-34.77-8.65-44.23z" fill="#9F6C4A"/><path d="m109.29 41.34-9.55 9.55c-1.23-6.07-3.34-11.51-6.98-15.14-3.79-3.79-9.43-5.96-15.72-7.19l9.53-9.53c6.27 1.21 11.88 3.38 15.67 7.16 3.68 3.68 5.82 9.09 7.05 15.15z" fill="#FBC02D"/><g opacity=".2"><path d="m8.1 6.07c0.66 0 1.31 0.26 1.76 0.71 9.84 9.65 28.8 13.07 42.05 13.07 1.97 0 4.24-0.06 6.64-0.12 2.8-0.07 5.97-0.15 9.19-0.15 10.75 0 25.88 0.83 33.08 8.03 8.72 8.72 8.2 28.94 7.86 42.32-0.06 2.38-0.12 4.63-0.12 6.57 0 13.89 3.38 32.17 12.86 41.84 0.92 0.93 0.61 2.21-0.19 3.01-0.45 0.45-1.02 0.71-1.6 0.71-0.36 0-0.89-0.1-1.37-0.6-10.97-11.19-14.87-29.34-14.87-41.48 0-0.91 0-1.87 0.01-2.87 0.06-13.3 0.14-33.4-9.24-42.78-8.68-8.68-25.39-9.41-40.38-9.41h-2.76-2.49c-13.18 0-31.22-4.64-41.78-14.99-0.45-0.44-0.73-1.11-0.73-1.78 0-0.34 0.07-0.97 0.59-1.5 0.37-0.37 0.9-0.58 1.49-0.58m0-2c-1.07 0-2.12 0.38-2.91 1.17l-0.03 0.03c-1.65 1.65-1.47 4.48 0.2 6.11 10.91 10.7 29.37 15.57 43.18 15.57 1.66 0 3.42-0.01 5.25-0.01 13.43 0 30.64 0.5 38.96 8.82 9.46 9.45 8.65 31.19 8.65 44.23 0 13.82 4.74 31.97 15.44 42.88 0.79 0.81 1.79 1.2 2.8 1.2 1.08 0 2.16-0.44 3.01-1.29l0.03-0.03c1.63-1.63 1.8-4.14 0.17-5.79-9.26-9.45-12.29-27.58-12.29-40.44 0-13.04 2.61-39.37-8.33-50.31-7.42-7.42-21.84-8.61-34.49-8.61-5.98 0-11.57 0.27-15.83 0.27-12.86 0-31.2-3.24-40.65-12.5-0.85-0.86-2.01-1.3-3.16-1.3z" fill="#424242"/></g></svg>
