<svg xmlns="http://www.w3.org/2000/svg" viewBox="0 0 128 128"><path d="M121.03.23H7.02C3.24.23.14 3.32.14 7.11v114.01c0 3.79 3.1 6.88 6.88 6.88h114.01c3.78 0 6.88-3.09 6.88-6.88V7.11c0-3.78-3.1-6.88-6.88-6.88z" fill="#006ca2"/><g fill="#fff"><path d="M71.48 23.06c-.21-.46-.54-.72-.88-.72H58.9c-.54 0-1 .64-1.1 1.52l-4.52 38.67-6.35-38.8c-.04-.23-.1-.43-.18-.62 0-.01 0-.03-.01-.04-.01-.03-.04-.04-.05-.07a1.504 1.504 0 0 0-.39-.49c-.14-.1-.28-.17-.44-.17H37.4c-.16 0-.31.07-.44.17-.04.03-.07.06-.11.1-.11.1-.2.23-.28.39-.02.03-.04.04-.05.07-.01.01-.01.03-.01.04-.08.18-.15.39-.18.62l-6.35 38.8-4.52-38.67c-.1-.88-.56-1.52-1.1-1.52h-11.7c-.35 0-.67.27-.88.72-.21.46-.29 1.05-.21 1.62l11.7 79.77c0 .03.02.05.02.08.03.15.06.29.11.42.01.04.02.08.04.12.01.02.01.05.03.07.06.13.12.23.19.33.01.02.03.03.04.04.08.09.16.17.25.23.02.02.05.03.08.05.11.06.22.09.33.09h9.33c.16 0 .3-.07.43-.16.04-.03.07-.06.11-.1.1-.09.18-.21.26-.35.02-.03.05-.04.06-.08.01-.02.01-.05.02-.07.09-.2.16-.41.2-.66l6.87-44.96 6.87 44.96c.04.25.11.46.2.66.01.02.01.05.02.07.01.04.04.05.06.08.08.14.16.25.26.35.04.03.07.07.11.1.14.1.28.16.43.16h9.34c.11 0 .22-.04.33-.09.03-.01.05-.03.08-.05.09-.06.17-.14.25-.23l.04-.04c.07-.1.14-.2.19-.33.01-.02.01-.05.03-.07.01-.04.02-.08.04-.12.04-.13.08-.27.11-.42 0-.03.02-.05.02-.08l11.7-79.77c.05-.57-.02-1.16-.24-1.62zM116.44 95.53l-5.33-17.65c-.08-.25-.22-.44-.38-.5s-.34.01-.47.18c-2.98 3.98-8.11 6.98-11.93 6.98-7.38 0-12.53-8.4-12.53-20.44s5.15-20.44 12.53-20.44c3.99 0 8.09 2.16 10.68 5.64.13.17.3.24.46.19.16-.06.3-.23.38-.47l5.91-18.12c.13-.4.07-.91-.14-1.2-4.47-5.96-10.14-8.86-17.35-8.86-15.34 0-26.47 18.19-26.47 43.25s11.13 43.25 26.47 43.25c7.02 0 13.08-3.59 18.02-10.68.21-.26.27-.74.15-1.13z"/></g></svg>