<?xml version="1.0" encoding="utf-8"?>
<!-- Generator: Adobe Illustrator 24.0.3, SVG Export Plug-In . SVG Version: 6.00 Build 0)  -->
<svg version="1.1" id="Layer_9_copy" xmlns="http://www.w3.org/2000/svg" xmlns:xlink="http://www.w3.org/1999/xlink" x="0px"
	 y="0px" viewBox="0 0 128 128" style="enable-background:new 0 0 128 128;" xml:space="preserve">
<radialGradient id="hand_x5F_fill_3_" cx="45.0355" cy="57.9282" r="60.6616" gradientUnits="userSpaceOnUse">
	<stop  offset="0.6431" style="stop-color:#E0BB95"/>
	<stop  offset="1" style="stop-color:#CCA47A"/>
</radialGradient>
<path id="hand_x5F_fill_1_" style="fill:url(#hand_x5F_fill_3_);" d="M103.65,27.08c-1.83-1.53-13.6-13.02-14.11-13.51l-0.09-0.1
	c-0.03-0.04-3.26-3.77-5.9-6.54c-0.74-0.77-1.6-0.87-2.2-0.81c-1.48,0.13-3.3,1.84-4.64,2.34c-1.11,0.42-1.26-0.12-2.37,0.31
	c-1.44,0.56-3.87,2.61-4.29,4.1c-0.42,1.48,0.1,4.43-0.53,4.22c-2.08-0.66-7.77-1.51-9.08,1.32c-0.39,0.85-0.79,2.07-1.24,3.48
	c-1.49,4.63-2.82,10.87-9.16,18.37c-0.86,1.02-1.83,2.12-2.88,3.32c-4.4,5.02-9.73,10.75-14.57,18.73
	c-2.85,4.71-5.04,9.42-6.7,14.65c-0.95,2.98-2.09,8.66-2.7,11.98c-4.99,4.82-14.62,17.02-14.53,17.4c0.28,1.18,14.24,15,35.23,17.93
	c0,0,2.72-1.82,5.09-3.91c2.19-1.92,9.14-6.49,9.14-6.49s-0.09-0.08-0.21-0.2c12.61-2.42,25.34-9.85,33.68-17.39
	c5.17-4.68,10.88-10.26,13.16-17.37c3.03-9.42,4.15-29.23,4.16-40.25C108.94,35.11,108.31,30.96,103.65,27.08z M75.63,58.82
	c-1.65,0.37-15.38,0.95-16.42,0.85c0.93-3.81,3.83-9.71,5.89-13c1.09-1.74,2.14-3.53,2.9-5.45c0.56-1.39,0.72-3.14,1.51-4.37
	c1.14,2.38,2.04,4.91,3.31,7.28c0.92,1.71,1.79,3.33,2.3,4.93C75.61,50.6,77.92,58.3,75.63,58.82z"/>
<radialGradient id="hand_x5F_fill_4_" cx="80.9411" cy="50.5167" r="43.9224" gradientTransform="matrix(1 0 0 1.1144 0 -5.7806)" gradientUnits="userSpaceOnUse">
	<stop  offset="0.6162" style="stop-color:#CCA47A;stop-opacity:0.97"/>
	<stop  offset="1" style="stop-color:#CCA47A;stop-opacity:0"/>
</radialGradient>
<path id="hand_x5F_fill_2_" style="fill:url(#hand_x5F_fill_4_);" d="M103.65,27.08c-1.83-1.53-13.6-13.02-14.11-13.51l-0.09-0.1
	c-0.03-0.04-3.26-3.77-5.9-6.54c-0.74-0.77-1.6-0.87-2.2-0.81c-1.48,0.13-3.3,1.84-4.64,2.34c-1.11,0.42-1.26-0.12-2.37,0.31
	c-1.44,0.56-3.87,2.61-4.29,4.1c-0.42,1.48,0.1,4.43-0.53,4.22c-2.08-0.66-7.77-1.51-9.08,1.32c-0.39,0.85-0.79,2.07-1.24,3.48
	c-1.49,4.63-2.82,10.87-9.16,18.37c-0.86,1.02-1.83,2.12-2.88,3.32c-3.65,4.16-8.38,8.31-10.19,13.6
	c-2.11,6.17-1.12,12.62,1.19,18.6c4.81,12.45,15.58,23.49,28.87,24.71c4.1,0.38,8.22-0.18,12.3-0.73c5.93-0.8,10.75-1.9,15.11-6.13
	c4.32-4.19,8.44-8.89,10.32-14.72c3.03-9.42,4.15-29.23,4.16-40.25C108.94,35.11,108.31,30.96,103.65,27.08z M75.63,58.82
	l-16.42,0.85c0,0,9.51-21.59,10.31-22.82c1.14,2.38,5.1,10.6,5.61,12.21C75.61,50.6,75.63,58.82,75.63,58.82z"/>
<path style="fill:#B07853;" d="M56.11,59.4c5.15-5.96,10.3-16.53,10.91-21.93c0.04-0.35,0.15-1.3,1.13-1.58
	c0.8-0.23,1.63,0.23,1.85,1.03c0.08,0.27,0.08,0.53,0.01,0.78L70,37.81c-0.68,6-5.54,16.52-11.08,22.93
	C58.62,61.08,55.56,60.03,56.11,59.4z"/>
<path style="fill:#B07853;" d="M49.64,63.08c0,0-0.12-0.98,3.27-2.48c7.74-3.42,14.95-3.52,22.68-3.47c0,0,0.01,0,0.01,0
	c0.85,0.01,1.54,0.68,1.53,1.51c-0.01,0.83-0.7,1.5-1.56,1.49C68.19,60.09,58.13,60.79,49.64,63.08z"/>
<radialGradient id="hand_x5F_fill_5_" cx="62.2509" cy="55.1348" r="58.3432" gradientUnits="userSpaceOnUse">
	<stop  offset="0.6469" style="stop-color:#E0BB95"/>
	<stop  offset="1" style="stop-color:#CCA47A"/>
</radialGradient>
<path id="hand_x5F_fill" style="fill:url(#hand_x5F_fill_5_);" d="M103.65,27.08c-1.83-1.53-13.6-13.02-14.11-13.51l-0.09-0.1
	c-0.03-0.04-3.26-3.77-5.9-6.54c-0.74-0.77-1.6-0.87-2.2-0.81c-1.48,0.13-2.19,1.42-3.53,1.92c-2.81,1.05-5.57,0.38-7.28,3.48
	c-0.92,1.67-1.11,3.66-1.02,5.57c0.06,1.34,0.24,2.72-0.17,4c-0.32,1.01-0.94,1.9-1.49,2.81c-3.31,5.48,2.66,17.01,3.95,20.35
	c3.1,7.99,3.09,16.81,4.77,25.22c-5.56,1.63-24.36,0.52-36.17,21.6c-2.68,4.79-2.43,13.18-0.15,16.45
	c6.14,8.79,14.98,7.2,22.84,4.89c10.46-3.08,20.41-8.82,28.49-16.13c5.17-4.68,10.88-10.26,13.16-17.37
	c3.03-9.42,4.15-29.23,4.16-40.25C108.94,35.11,108.31,30.96,103.65,27.08z"/>
<linearGradient id="SVGID_1_" gradientUnits="userSpaceOnUse" x1="9.9696" y1="104.5994" x2="67.6439" y2="16.2275">
	<stop  offset="0.4033" style="stop-color:#BA8F63"/>
	<stop  offset="1" style="stop-color:#B07853"/>
</linearGradient>
<path style="fill:url(#SVGID_1_);" d="M7.69,105.07c6.07-5.7,12.77-12.62,13.3-14.83c0.09-0.38,0.2-0.84,0.32-1.35
	c1.19-5.14,3.97-17.19,9.67-26.61c4.86-8.01,10.53-14.49,14.67-19.21c1.01-1.15,1.94-2.22,2.77-3.2c5.81-6.87,7.9-13.36,9.28-17.66
	c0.47-1.47,0.88-2.74,1.34-3.74c1.34-2.9,4.91-3.75,7.66-3.31c2.96,0.47,4.99,2.31,5.29,4.81c0.1,0.82-0.49,1.57-1.31,1.67
	c-0.83,0.09-1.57-0.49-1.67-1.31c-0.2-1.67-2.18-2.11-2.78-2.21c-1.7-0.27-3.84,0.26-4.47,1.61c-0.38,0.83-0.77,2.02-1.21,3.4
	c-1.46,4.52-3.65,11.35-9.84,18.67c-0.84,0.99-1.78,2.07-2.81,3.24c-4.29,4.9-9.64,11-14.36,18.79c-5.46,9-8.16,20.72-9.32,25.73
	c-0.12,0.52-0.23,0.99-0.32,1.38c-0.83,3.48-14.37,16.52-14.37,16.52C8.16,106.16,7.69,105.07,7.69,105.07z"/>
<g id="hand_x5F_stroke">
	<path style="fill:#BA8F63;" d="M77.21,72.31c-0.76-3.18-1.6-8.28-2.25-12.59c-0.62-4.16-1.16-7.75-1.76-9.64
		c-0.47-1.47-1.3-3.03-2.27-4.82c-1.77-3.29-3.97-7.39-4.6-12.7c-0.62-5.25-0.86-8.62,1.09-11.16c1.58-2.06,4.03-3.09,6.23-2.64
		c2.02,0.41,3.55,2.03,4.2,4.43c0.27,0.64,1.82,4.22,2.96,6.41c0.48,0.92,1.34,2.24,2.33,3.77c1.57,2.41,3.52,5.42,5.19,8.67
		c2.7,5.26,4.98,11.4,5.82,20.25c0.3,3.19,0.13,5.01-0.12,6.04c-0.12,0.49-0.82,0.48-0.93-0.02c-0.88-4.2-3.81-17.41-7.44-24.91
		c-1.53-3.15-3.51-6.05-5.04-8.41c-1.03-1.59-1.93-2.96-2.47-4.01c-1.31-2.5-3.03-6.55-3.11-6.72l-0.07-0.21
		c-0.24-0.94-0.77-2.12-1.93-2.35c-1.07-0.22-2.38,0.4-3.25,1.53c-1.26,1.64-1.02,4.49-0.49,8.98c0.57,4.75,2.53,8.41,4.27,11.64
		c0.99,1.85,1.93,3.6,2.48,5.34c0.67,2.11,1.2,5.64,1.86,10.1c0.73,4.91,1.59,12.04,3.26,17.67c0.13,0.45-0.38,0.82-0.75,0.53
		C79.37,76.64,77.87,75.03,77.21,72.31z"/>
	<path style="fill:#BA8F63;" d="M103.85,63.69c-0.64-3.64-3.15-17.49-5.5-24.82l-0.08-0.31c-0.75-2.87-3.38-6.41-5.6-8.41
		c-3.8-3.45-10.94-11.42-12.75-14.56l-0.49-0.85c-1.69-2.98-2.93-4.9-4.59-4.53c-0.93,0.21-1.79,0.9-2.41,1.95
		c-1.13,1.9-1.3,4.66-0.48,7.58c0.23,0.8-0.24,1.63-1.04,1.85c-0.8,0.23-1.63-0.24-1.85-1.04c-1.06-3.77-0.79-7.29,0.79-9.93
		c1.05-1.76,2.58-2.95,4.33-3.34c3.96-0.89,6.13,2.91,7.86,5.97l0.47,0.83c1.5,2.6,8.33,10.36,12.17,13.84
		c2.47,2.23,5.55,6.28,6.49,9.88l0.08,0.31c1.21,4.65,3.09,13.81,3.6,19.73c0.17,2.02,0.06,4.78-0.52,5.97
		C103.98,64.52,103.95,64.27,103.85,63.69z"/>
	<path style="fill:#BA8F63;" d="M43.08,124.14c6-6.35,11.8-10.46,17.58-12.46l1.11-0.38c6.57-2.25,18.79-6.44,29.24-15.89
		c5.04-4.56,10.61-10.01,12.85-16.95c2.96-9.19,4.05-28.53,4.06-39.28c0-3.46-0.61-7.52-5.16-11.31
		c-1.72-1.43-13.28-12.71-13.77-13.19l-0.09-0.09c-0.03-0.04-3.18-3.68-5.76-6.38c-0.72-0.75-1.56-0.84-2.15-0.79
		c-1.14,0.11-2.24,0.85-3.01,2.04c-0.45,0.7-1.38,0.89-2.07,0.44C75.2,9.46,75,8.53,75.45,7.83c1.28-1.97,3.19-3.21,5.25-3.4
		c1.75-0.16,3.39,0.44,4.6,1.71c2.47,2.58,5.43,6,5.82,6.44c4.15,4.05,12.25,11.9,13.55,12.99c5.54,4.61,6.24,9.7,6.24,13.62
		c-0.01,10.94-1.14,30.68-4.2,40.2c-2.46,7.64-8.35,13.43-13.69,18.25c-10.9,9.87-23.99,14.35-30.28,16.5l-1.09,0.38
		c-4.85,1.68-9.76,5.02-14.87,10.13L43.08,124.14z"/>
	<path style="fill:#BA8F63;" d="M40.82,90.24c7.44-13.56,19.16-20.32,37.21-21.76c0.82-0.07,1.06,2.92,0.24,2.99
		c-16.43,1.31-28.37,7.52-35.86,19.56c-0.71,1.13-2.46,4.5-2.7,3.93C39.42,94.28,39.99,91.75,40.82,90.24z"/>
</g>
</svg>
