<svg xmlns="http://www.w3.org/2000/svg" viewBox="0 0 128 128"><path d="M112.51 21.82c-4.8-3.07-10.15-5.51-15.56-7.61-7.7-2.99-15.42-3.67-23.2-2.18-6.89 1.32-13.39 4.5-18.93 8.9-3.46 2.74-6.92 5.49-10.13 8.47-7.74 7.2-15.59 14.39-22.55 22.25-6.13 6.91-11.62 14.46-16.44 22.23-4.14 6.67-4.63 13.99-2.16 21.24 5.5 16.09 31.28 26.36 47.4 19.42 5.88-2.53 11.69-5.27 17.48-8.01 6.66-3.15 13.16-6.7 19.94-9.56 20.74-8.77 32.83-24.01 36.89-44.51 2.52-12.72-1.66-23.56-12.74-30.64zM60.63 33.33c.11.42-.25-.01-.14.41l-.09-.34c.08-.03.16-.05.23-.07z" fill="#b89278"/><g fill="#855c52"><path d="M104.36 70.22c-.09 0-.18-.02-.26-.07-.17-.1-.27-.3-.24-.51.35-2.25.79-4.52 1.21-6.72.99-5.12 1.93-9.96 1.89-14.8-.06-7.2-5.06-12.89-9.47-17.92a.5.5 0 0 1 .37-.83c.09 0 .18.02.26.08 6.85 4.25 12.58 15.13 13.04 24.77.23 4.82-.71 11.5-6.51 15.9a.41.41 0 0 1-.29.1z"/><path d="M97.88 29.88c10.73 6.66 19.12 30.24 6.49 39.85 1.14-7.31 3.16-14.54 3.11-21.6-.07-7.28-4.93-12.92-9.6-18.25m0-1c-.29 0-.57.12-.76.35-.32.38-.32.93.01 1.31 4.35 4.96 9.29 10.58 9.35 17.59.04 4.8-.89 9.61-1.88 14.71-.43 2.2-.87 4.47-1.22 6.73-.06.4.13.8.48 1.01.16.09.34.14.51.14.21 0 .43-.07.61-.2 4.72-3.59 7.04-9.24 6.71-16.32-.46-9.78-6.29-20.84-13.27-25.17-.18-.1-.36-.15-.54-.15z"/></g><g fill="#855c52"><path d="M45.54 82.39c-.13 0-.25-.05-.35-.14-.41-.4-.81-.8-1.21-1.2-3.82-3.82-7.44-7.43-13.7-7.43-.18 0-.36 0-.55.01h-.02c-.23 0-.42-.15-.48-.37-.06-.23.04-.46.25-.57 1.41-.75 2.97-1.13 4.64-1.13 5.99 0 11.45 4.71 11.92 10.29.02.21-.1.41-.29.49-.07.04-.14.05-.21.05z"/><path d="M34.11 72.06c5.42 0 10.96 4.28 11.42 9.83-4.28-4.2-8.11-8.77-15.26-8.77-.19 0-.38 0-.57.01 1.39-.74 2.9-1.07 4.41-1.07m0-1c-1.75 0-3.39.4-4.87 1.18a.997.997 0 1 0 .47 1.88h.03c.18-.01.36-.01.53-.01 6.06 0 9.6 3.54 13.35 7.28.4.4.8.8 1.21 1.2a.984.984 0 0 0 1.13.19.99.99 0 0 0 .57-.99c-.49-5.81-6.18-10.73-12.42-10.73z"/></g><path d="M32.88 40.51c7.74-3.96 25.52-9.94 25.85-8.17.01 2.75-4.2 4.47-5.5 4.94-10.07 3.67-21.63 9.32-31.09 14.36 2.47-2.72 8.21-8.94 10.74-11.13zM71 97.58c-3.38.27-8.02.27-11.41.27-3.16 0-2.13 1.91-1.22 2.19 4.24 1.29 7.86 1.95 12.29 2.15.89.04 5.96.29 6.76-.1 6.58-3.18 10.54-5.01 14.01-6.51-6.76 1.17-14.86 1.55-20.43 2z" fill="#855c52"/></svg>