<svg width="128" height="128" style="enable-background:new 0 0 128 128;" xmlns="http://www.w3.org/2000/svg" xmlns:xlink="http://www.w3.org/1999/xlink">
  <style type="text/css">
.st0{fill:#006CA0;}
.st1{fill:#40C0E7;}
.st2{clip-path:url(#SVGID_2_);}
.st3{fill:#B8E9F4;}
.st4{fill:#64878E;}
.st5{fill:#78A3AD;}
.st6{fill:#294F6E;}
.st7{fill:#FFFFFF;}
.st8{fill:#FCC21B;}
.st9{fill:none;stroke:#FFFFFF;stroke-width:3;}
.st10{clip-path:url(#SVGID_4_);}
  </style>
  <g>
    <g>
      <path class="st0" d="M80.3,56.8l44.9,23.8c0.7,0.3,1.1,1,1.1,1.8v25.5c0,1.5-1.6,2.5-2.9,1.8L80.6,87.1c-0.7-0.4-1.1-1.1-1.1-1.8 L80.3,56.8z"/>
      <path class="st1" d="M125.4,80.8L97.5,96l-11.2-5.9l28.9-14.8l10.2,5.4C125.4,80.7,125.4,80.8,125.4,80.8z"/>
      <g>
        <defs>
          <path id="SVGID_1_" d="M80.3,56.8l44.9,23.8c0.7,0.3,1.1,1,1.1,1.8v25.5c0,1.5-1.6,2.5-2.9,1.8L80.7,87.1 c-0.7-0.4-1.1-1.2-1.1-2L80.3,56.8z"/>
        </defs>
        <clipPath id="SVGID_2_">
          <use style="overflow:visible;" xlink:href="#SVGID_1_"/>
        </clipPath>
        <g class="st2">
          <rect class="st3" height="52.7" transform="matrix(0.4697 -0.8828 0.8828 0.4697 -14.3927 133.9077)" width="2" x="103.3" y="52.6"/>
        </g>
        <g class="st2">
          <rect class="st3" height="54.4" transform="matrix(0.466 -0.8848 0.8848 0.466 -23.7849 139.22)" width="2" x="102.4" y="62.1"/>
        </g>
      </g>
    </g>
    <g>
      <path class="st4" d="M66.9,41.2l-16.6,9.6c-1.2,0.7-1.9,1.8-2,3.2l-1.4,17.2c-0.2,2.7,1.4,5.2,3.9,6.1l16.1,5.8 c1.2,0.4,2.6,0.3,3.7-0.5l16.1-10.9L66.9,41.2z"/>
      <path class="st5" d="M67.6,41.2c-0.7-0.3-1.4,0.2-1.4,0.9L65.9,61c-0.1,1.8,0.9,3.4,2.6,4l17.5,6.7c0.7,0.3,1.4-0.3,1.4-1 c-0.2-4.4-1.1-16.7-3.6-20.4C81.6,47.1,71.3,42.7,67.6,41.2z"/>
      <path class="st6" d="M77.4,42.4c0,0-8.8,4.1-7.8,13.7c0.8,7.5,8.3,11.1,16.7,9.1L77.4,42.4z"/>
      <ellipse class="st0" cx="81.9" cy="53.8" rx="9.6" ry="12.2" transform="matrix(0.9317 -0.3631 0.3631 0.9317 -13.9622 33.3954)"/>
      <path class="st5" d="M65.9,61.6L47.1,73.3c0,0,0.5,2.6,3,3.6L68.4,65C68.4,65,66.5,63.9,65.9,61.6z"/>
      <path class="st6" d="M75.5,46.3c-2.2,2.3-2.7,9,0.3,12.8c3.3,4.2,8.5,5.5,11.9,4c1.9-0.8-2.9-2-7-7.7C77,50.5,78,43.7,75.5,46.3z "/>
    </g>
    <g>
      <line class="st7" x1="79.6" x2="86.2" y1="55.2" y2="51.2"/>
      <path class="st8" d="M79.6,56.7c-0.5,0-1-0.3-1.3-0.7c-0.4-0.7-0.2-1.6,0.5-2.1l6.6-3.9c0.7-0.4,1.6-0.2,2.1,0.5s0.2,1.6-0.5,2.1 l-6.6,3.9C80.1,56.6,79.9,56.7,79.6,56.7z"/>
    </g>
    <g>
      <path class="st9" d="M28.5,60"/>
      <path class="st0" d="M44.6,40.4c0-0.7-0.4-1.4-1-1.8L4.1,16.8c-1.3-0.8-3,0.2-3,1.7v27.4c0,0.7,0.4,1.4,1.1,1.8l39.1,20.1 c1.3,0.7,2.9-0.3,2.9-1.7L44.6,40.4z"/>
      <path class="st1" d="M1.2,40.8l24.4-12.2l11.4,6.3L8.8,51.1l-6.5-3.4c-0.7-0.3-1.1-1-1.1-1.8V40.8z"/>
      <polygon class="st1" points="44.7,43.8 22,57.9 28.5,61.2 44.5,51.1 "/>
      <g>
        <defs>
          <path id="SVGID_3_" d="M44.6,40.4c0-0.7-0.4-1.4-1-1.8L4.1,16.8c-1.3-0.8-3,0.2-3,1.7v27.4c0,0.7,0.4,1.4,1.1,1.8l39.1,20.1 c1.3,0.7,2.9-0.3,2.9-1.7L44.6,40.4z"/>
        </defs>
        <clipPath id="SVGID_4_">
          <use style="overflow:visible;" xlink:href="#SVGID_3_"/>
        </clipPath>
        <g class="st10">
          <polygon class="st3" points="45,49.9 -0.3,24.9 0.6,23.1 45.9,48.2 "/>
          <polygon class="st3" points="45,60.4 -1,35.8 0,34.1 46,58.6 "/>
        </g>
      </g>
    </g>
  </g>
</svg>