<svg enable-background="new 0 0 128 128" viewBox="0 0 128 128" xmlns="http://www.w3.org/2000/svg" xmlns:xlink="http://www.w3.org/1999/xlink"><radialGradient id="f" cx="22.05" cy="45.945" r="108.58" gradientUnits="userSpaceOnUse"><stop stop-color="#E30400" offset=".0722"/><stop stop-color="#DE0400" offset=".2464"/><stop stop-color="#CF0401" offset=".454"/><stop stop-color="#B70302" offset=".6785"/><stop stop-color="#960204" offset=".9136"/><stop stop-color="#880205" offset="1"/></radialGradient><path d="m95.19 97.38s-5.82 5.38-15.69 4.67c-21.82-1.56-31.53-38.53-39.12-54.19-2.51-5.18-8.38-10.2-11.63-14.8-2.22-3.14-2.51-7.01-2.51-7.01s-20.22 7.53-22.6 20.62c-2.08 11.45 2.75 15.53 5.37 23.4 3.88 11.63 2.95 53.96 2.95 53.96l4.1-0.03s-1.04-44.5 8.81-47.58c2.82-0.88 7.05 0.53 19.21 19.03 11.88 18.08 15.33 28.66 33.45 28.66h42.08c3.24 0 6.07-5.48 2.37-8.22-8.81-6.52-26.79-18.51-26.79-18.51z" fill="url(#f)"/><defs><path id="d" d="m95.19 97.38s-5.82 5.38-15.69 4.67c-21.82-1.56-31.53-38.53-39.12-54.19-2.51-5.18-8.38-10.2-11.63-14.8-2.22-3.14-2.51-7.01-2.51-7.01s-20.22 7.53-22.6 20.62c-2.08 11.45 2.75 15.53 5.37 23.4 3.88 11.63 2.95 53.96 2.95 53.96l4.1-0.03s-1.04-44.5 8.81-47.58c2.82-0.88 7.05 0.53 19.21 19.03 11.88 18.08 15.33 28.66 33.45 28.66h42.08c3.24 0 6.07-5.48 2.37-8.22-8.81-6.52-26.79-18.51-26.79-18.51z"/></defs><clipPath id="c"><use xlink:href="#d"/></clipPath><linearGradient id="b" x1="43.754" x2="43.754" y1="55.351" y2="127.85" gradientUnits="userSpaceOnUse"><stop stop-color="#4D4D4D" offset=".0365"/><stop offset="1"/></linearGradient><path d="m115.37 134.57-0.18-6.96-44.44-0.36c-10.72 0-15.85-4.33-21.2-17.71-3.11-7.76-9.42-22.28-22.12-34.45-12.87-12.34-18.9-19.7-38.6-20.09-25.11-0.51-20.53 81.16 4.58 81.16 19.79-0.01 121.96-1.59 121.96-1.59z" clip-path="url(#c)" fill="url(#b)"/><path d="m25.67 26.53s0.44-1.67 3.08 0.44 12.87 17.45 15.25 26.18 12.25 34.9 21.5 38.33c9.25 3.44 23.13 0.4 30 6.21 6.87 5.82-15.46 6.74-24.98 3.04s-25.91-26.57-31.46-39.65c-14.1-33.22-13.39-34.55-13.39-34.55z" fill="#30060A"/><g opacity=".2"><path d="m26.63 29.12c0.07 0.05 0.16 0.12 0.25 0.19 2.03 1.62 11.95 16.29 14.22 24.62 1.91 6.99 12.06 36.16 23.35 40.35 4.31 1.6 9.3 1.92 14.13 2.23 5.89 0.38 11.45 0.73 14.71 3.27 0.25 0.19 0.52 0.34 0.8 0.44 3.11 2.08 18.32 12.26 26.1 18.02 0.35 0.26 0.69 0.64 0.47 1.42-0.22 0.82-0.85 1.31-1.05 1.33h-42.08c-13.77 0-17.9-6.58-26.11-19.68-1.5-2.4-3.05-4.87-4.83-7.58-11.2-17.03-16.28-20.52-20.47-20.52-0.72 0-1.42 0.11-2.14 0.33-3.01 0.94-7.04 4.1-9.29 19.53-0.41-9.73-1.23-19.18-2.83-23.96-0.79-2.36-1.73-4.34-2.64-6.26-2.21-4.66-3.96-8.34-2.63-15.65 1.83-10.09 17.01-16.83 20.04-18.08m-0.06-3.22c-0.35 0-0.57 0.14-0.71 0.29-2.73 1.09-20.04 8.43-22.23 20.47-2.07 11.46 2.76 15.54 5.38 23.4 3.88 11.63 2.95 53.96 2.95 53.96l4.1-0.03s-1.04-44.5 8.81-47.58c0.38-0.12 0.79-0.2 1.24-0.2 2.87 0 7.46 3.18 17.97 19.18 11.88 18.08 15.33 28.61 33.45 28.61h42.08c3.24 0 6.07-5.42 2.37-8.16-8.81-6.52-26.79-18.48-26.79-18.48s-0.03 0.04-0.05 0.06c-6.98-5.44-20.54-2.56-29.64-5.94-9.25-3.44-19.12-29.6-21.5-38.33-2.38-8.72-12.6-24.05-15.24-26.17-1.03-0.83-1.72-1.08-2.19-1.08z" fill="#424242"/></g><g display="none"><g display="inline"><g opacity=".6"><circle cx="64" cy="64" r="28" fill="none" opacity=".61" stroke="#000" stroke-miterlimit="10" stroke-width=".2625"/><line x1="84" x2="84" y2="128" fill="none" opacity=".61" stroke="#000" stroke-miterlimit="10" stroke-width=".25"/><line x1="44" x2="44" y2="128" fill="none" opacity=".61" stroke="#000" stroke-miterlimit="10" stroke-width=".25"/><line x1="64" x2="64" y2="128" fill="none" opacity=".61" stroke="#000" stroke-miterlimit="10" stroke-width=".25"/><line x1="128" y1="64" y2="64" fill="none" opacity=".61" stroke="#000" stroke-miterlimit="10" stroke-width=".25"/><line x1="128" y1="44" y2="44" fill="none" opacity=".61" stroke="#000" stroke-miterlimit="10" stroke-width=".25"/><line x1="128" y1="83.75" y2="83.75" fill="none" opacity=".61" stroke="#000" stroke-miterlimit="10" stroke-width=".25"/><line x1="128" y1="128" fill="none" opacity=".61" stroke="#000" stroke-miterlimit="10" stroke-width=".25"/><line x2="128" y1="128" fill="none" opacity=".61" stroke="#000" stroke-miterlimit="10" stroke-width=".25"/><g opacity=".61"><path d="M64,4.26c32.94,0,59.74,26.8,59.74,59.74S96.94,123.74,64,123.74S4.26,96.94,4.26,64S31.06,4.26,64,4.26 M64,4 C30.86,4,4,30.86,4,64s26.86,60,60,60s60-26.86,60-60S97.14,4,64,4L64,4z"/></g><path d="m107.97 115.97h-87.94c-4.42 0-8.03-3.61-8.03-8.03v-87.91c0-4.42 3.61-8.03 8.03-8.03h87.94c4.42 0 8.03 3.61 8.03 8.03v87.91c0 4.42-3.61 8.03-8.03 8.03z" fill="none" opacity=".61" stroke="#000" stroke-miterlimit="10" stroke-width=".2578"/><path d="m100 124h-72c-4.4 0-8-3.6-8-8v-104c0-4.4 3.6-8 8-8h72c4.4 0 8 3.6 8 8v104c0 4.4-3.6 8-8 8z" fill="none" opacity=".61" stroke="#000" stroke-miterlimit="10" stroke-width=".2628"/><path d="M113.77,108H14.23 C8.6,108,4,103.4,4,97.77V30.28c0-5.63,4.6-10.23,10.23-10.23h99.54c5.63,0,10.23,4.6,10.23,10.23v67.48 C124,103.4,119.4,108,113.77,108z" fill="none" opacity=".61" stroke="#000" stroke-miterlimit="10" stroke-width=".2627"/></g><g opacity=".2"><defs><rect id="e" width="128" height="128" opacity=".2"/></defs><clipPath id="a"><use xlink:href="#e"/></clipPath><g clip-path="url(#a)"><g fill="none" stroke="#000" stroke-miterlimit="10" stroke-width=".25"><line x1="-28" x2="-28" y1="160" y2="-32"/><line x1="-24" x2="-24" y1="160" y2="-32"/><line x1="-20" x2="-20" y1="160" y2="-32"/><line x1="-16" x2="-16" y1="160" y2="-32"/><line x1="-12" x2="-12" y1="160" y2="-32"/><line x1="-8" x2="-8" y1="160" y2="-32"/><line x1="-4" x2="-4" y1="160" y2="-32"/><line y1="160" y2="-32"/><line x1="4" x2="4" y1="160" y2="-32"/><line x1="8" x2="8" y1="160" y2="-32"/><line x1="12" x2="12" y1="160" y2="-32"/><line x1="16" x2="16" y1="160" y2="-32"/><line x1="20" x2="20" y1="160" y2="-32"/><line x1="24" x2="24" y1="160" y2="-32"/><line x1="28" x2="28" y1="160" y2="-32"/><line x1="32" x2="32" y1="160" y2="-32"/><line x1="36" x2="36" y1="160" y2="-32"/><line x1="40" x2="40" y1="160" y2="-32"/><line x1="44" x2="44" y1="160" y2="-32"/><line x1="48" x2="48" y1="160" y2="-32"/><line x1="52" x2="52" y1="160" y2="-32"/><line x1="56" x2="56" y1="160" y2="-32"/><line x1="60" x2="60" y1="160" y2="-32"/><line x1="64" x2="64" y1="160" y2="-32"/><line x1="68" x2="68" y1="160" y2="-32"/><line x1="72" x2="72" y1="160" y2="-32"/><line x1="76" x2="76" y1="160" y2="-32"/><line x1="80" x2="80" y1="160" y2="-32"/><line x1="84" x2="84" y1="160" y2="-32"/><line x1="88" x2="88" y1="160" y2="-32"/><line x1="92" x2="92" y1="160" y2="-32"/><line x1="96" x2="96" y1="160" y2="-32"/><line x1="100" x2="100" y1="160" y2="-32"/><line x1="104" x2="104" y1="160" y2="-32"/><line x1="108" x2="108" y1="160" y2="-32"/><line x1="112" x2="112" y1="160" y2="-32"/><line x1="116" x2="116" y1="160" y2="-32"/><line x1="120" x2="120" y1="160" y2="-32"/><line x1="124" x2="124" y1="160" y2="-32"/><line x1="128" x2="128" y1="160" y2="-32"/><line x1="132" x2="132" y1="160" y2="-32"/><line x1="136" x2="136" y1="160" y2="-32"/><line x1="137" x2="137" y1="166.05" y2="-25.95"/><line x1="144" x2="144" y1="160" y2="-32"/><line x1="148" x2="148" y1="160" y2="-32"/><line x1="152" x2="152" y1="160" y2="-32"/><line x1="156" x2="156" y1="160" y2="-32"/></g><g fill="none" stroke="#000" stroke-miterlimit="10" stroke-width=".25"><line x1="-32" x2="160" y1="-28" y2="-28"/><line x1="-32" x2="160" y1="-24" y2="-24"/><line x1="-32" x2="160" y1="-20" y2="-20"/><line x1="-32" x2="160" y1="-16" y2="-16"/><line x1="-32" x2="160" y1="-12" y2="-12"/><line x1="-32" x2="160" y1="-8" y2="-8"/><line x1="-32" x2="160" y1="-4" y2="-4"/><line x1="-32" x2="160"/><line x1="-32" x2="160" y1="4" y2="4"/><line x1="-32" x2="160" y1="8" y2="8"/><line x1="-32" x2="160" y1="12" y2="12"/><line x1="-32" x2="160" y1="16" y2="16"/><line x1="-32" x2="160" y1="20" y2="20"/><line x1="-32" x2="160" y1="24" y2="24"/><line x1="-32" x2="160" y1="28" y2="28"/><line x1="-32" x2="160" y1="32" y2="32"/><line x1="-32" x2="160" y1="36" y2="36"/><line x1="-32" x2="160" y1="40" y2="40"/><line x1="-32" x2="160" y1="44" y2="44"/><line x1="-32" x2="160" y1="48" y2="48"/><line x1="-32" x2="160" y1="52" y2="52"/><line x1="-32" x2="160" y1="56" y2="56"/><line x1="-32" x2="160" y1="60" y2="60"/><line x1="-32" x2="160" y1="64" y2="64"/><line x1="-32" x2="160" y1="68" y2="68"/><line x1="-32" x2="160" y1="72" y2="72"/><line x1="-32" x2="160" y1="76" y2="76"/><line x1="-32" x2="160" y1="80" y2="80"/><line x1="-32" x2="160" y1="84" y2="84"/><line x1="-32" x2="160" y1="88" y2="88"/><line x1="-32" x2="160" y1="92" y2="92"/><line x1="-32" x2="160" y1="96" y2="96"/><line x1="-32" x2="160" y1="100" y2="100"/><line x1="-32" x2="160" y1="104" y2="104"/><line x1="-32" x2="160" y1="108" y2="108"/><line x1="-32" x2="160" y1="112" y2="112"/><line x1="-32" x2="160" y1="116" y2="116"/><line x1="-32" x2="160" y1="120" y2="120"/><line x1="-32" x2="160" y1="124" y2="124"/><line x1="-32" x2="160" y1="128" y2="128"/><line x1="-32" x2="160" y1="132" y2="132"/><line x1="-32" x2="160" y1="136" y2="136"/><line x1="-32" x2="160" y1="140" y2="140"/><line x1="-32" x2="160" y1="144" y2="144"/><line x1="-32" x2="160" y1="148" y2="148"/><line x1="-32" x2="160" y1="152" y2="152"/><line x1="-32" x2="160" y1="156" y2="156"/></g><path d="m159.75-31.75v191.5h-191.5v-191.5h191.5m0.25-0.25h-192v192h192v-192z"/></g></g><g fill="#F44336"><rect width="4" height="128" opacity=".3"/><rect x="124" width="4" height="128" opacity=".3"/><rect transform="matrix(-1.837e-16 1 -1 -1.837e-16 66 -62)" x="62" y="-58" width="4" height="120" opacity=".3"/><rect transform="matrix(-1.837e-16 1 -1 -1.837e-16 190 62)" x="62" y="66" width="4" height="120" opacity=".3"/></g></g></g></svg>
