<svg width="128" height="128" xmlns="http://www.w3.org/2000/svg" xmlns:xlink="http://www.w3.org/1999/xlink"><linearGradient id="a" gradientTransform="rotate(-12.075 33.097 11.482)" gradientUnits="userSpaceOnUse" x1="9.599" x2="37.844" y1="82.799" y2="68.13"><stop offset="0" stop-color="#80ffee"/><stop offset=".156" stop-color="#85fced"/><stop offset=".34" stop-color="#93f1e8"/><stop offset=".539" stop-color="#abe1e1"/><stop offset=".748" stop-color="#ccc9d8"/><stop offset=".962" stop-color="#f7accb"/><stop offset="1" stop-color="#ffa6c9"/></linearGradient><path d="M31.05 87c-2.68 0-4.8-.7-6.3-2.23-2.76-2.81-3.5-5.77-2.2-8.87 1.67-3.99 6.77-8.13 13.99-11.41 6.64-3.02 14.28-4.88 19.93-4.88 3.19 0 5.62.59 7.03 1.71.33.26 1.34.99.49 3.43C61.28 72.51 42.88 87 31.05 87z" fill="url(#a)"/><path d="M56.47 60.33c3.03 0 5.3.54 6.58 1.55.23.19.95.75.26 2.71C60.73 72 42.39 86.45 31.05 86.45c-2.48 0-4.42-.7-5.79-2.09-2.58-2.62-3.25-5.28-2.05-8.13 3.43-8.19 21.65-15.9 33.26-15.9m0-1.43c-15.67 0-44.71 13.75-32.23 26.46 1.73 1.76 4.09 2.52 6.81 2.52 14.6 0 39.51-21.87 32.89-27.12-1.61-1.28-4.26-1.86-7.47-1.86z" fill="#55bfd9"/><g fill="none" stroke="#87cdde" stroke-width=".956" stroke-linecap="round" stroke-linejoin="round" stroke-miterlimit="10"><path d="M24.65 83c8.97-10.2 18.44-16.9 30.71-22.73.28-.13.6-.33.58-.64-.01-.31-.64-.29-.51-.01M31.54 86.31c3.77-1.3 4.84-2.69 7.9-5.25C47.5 74.34 55.1 67.08 62.2 59.35l-.49.34M31.77 85.85c1-4.95 2.88-9.73 5.51-14.04"/></g><linearGradient id="b" gradientTransform="rotate(-14.28 -2.154 -62.889)" gradientUnits="userSpaceOnUse" x1="-10.489" x2="32.127" y1="34.673" y2="74.782"><stop offset="0" stop-color="#80ffee"/><stop offset=".156" stop-color="#85fced"/><stop offset=".34" stop-color="#93f1e8"/><stop offset=".539" stop-color="#abe1e1"/><stop offset=".748" stop-color="#ccc9d8"/><stop offset=".962" stop-color="#f7accb"/><stop offset="1" stop-color="#ffa6c9"/></linearGradient><path d="M58.99 64.64c-12.98 0-39.06-8.42-47.1-19.6-2.24-3.11-2.87-6.18-1.88-9.13 1.77-5.27 5.85-7.95 12.13-7.95 13.02 0 32.22 11.87 40.68 22.49 3.51 4.41 5.02 8.27 4.36 11.17-.44 1.95-3.35 3.02-8.19 3.02z" fill="url(#b)"/><path d="M22.14 28.67c12.82 0 31.76 11.73 40.12 22.22 3.33 4.17 4.82 7.92 4.22 10.57-.35 1.54-3.15 2.46-7.5 2.46-12.84 0-38.6-8.29-46.52-19.3-2.1-2.91-2.7-5.77-1.78-8.49 1.67-4.95 5.52-7.46 11.46-7.46m0-1.43c-6.01 0-10.79 2.42-12.81 8.44-5.2 15.49 31.98 29.68 49.66 29.68 4.92 0 8.33-1.1 8.89-3.57 2.69-11.78-27.31-34.55-45.74-34.55z" fill="#55bfd9"/><g fill="none" stroke="#87cdde" stroke-width=".956" stroke-linecap="round" stroke-linejoin="round" stroke-miterlimit="10"><path d="M14.26 31.16c18.27 6.95 35.83 18.02 49.45 31.7M10.94 37.07c15.38 12.46 32.65 21.47 51.93 26.91M29.62 29.97c4.23 2.82 6.92 8.2 8.67 12.91M14.12 31.83c4.72 3.95 8.3 9.17 10.26 14.94M36.44 53.53c5.97 1.22 10.37 1.32 15.62-.61"/></g><linearGradient id="c" gradientTransform="scale(-1 1) rotate(-12.075 -61.418 905.098)" gradientUnits="userSpaceOnUse" x1="69.535" x2="97.804" y1="95.699" y2="81.017"><stop offset="0" stop-color="#80ffee"/><stop offset=".156" stop-color="#85fced"/><stop offset=".34" stop-color="#93f1e8"/><stop offset=".539" stop-color="#abe1e1"/><stop offset=".748" stop-color="#ccc9d8"/><stop offset=".962" stop-color="#f7accb"/><stop offset="1" stop-color="#ffa6c9"/></linearGradient><path d="M96.67 87.16c-11.83 0-30.23-14.57-32.94-22.33-.85-2.44.16-3.24.49-3.51 1.4-1.12 3.83-1.7 7.03-1.7 5.66 0 13.29 1.87 19.93 4.89 7.22 3.28 12.32 7.45 13.99 11.43 1.3 3.1.56 6.1-2.2 8.91-1.5 1.54-3.62 2.31-6.3 2.31z" fill="url(#c)"/><path d="M71.25 60.33c11.61 0 29.83 7.7 33.26 15.88 1.2 2.85.52 5.51-2.05 8.13-1.36 1.39-3.31 2.09-5.79 2.09-11.34 0-29.68-14.45-32.26-21.85-.68-1.96.03-2.52.26-2.71 1.28-1 3.55-1.54 6.58-1.54m0-1.43c-3.21 0-5.86.58-7.47 1.86-6.61 5.25 18.29 27.12 32.89 27.12 2.72 0 5.08-.76 6.81-2.52C115.97 72.65 86.92 58.9 71.25 58.9z" fill="#55bfd9"/><g fill="none" stroke="#87cdde" stroke-width=".956" stroke-linecap="round" stroke-linejoin="round" stroke-miterlimit="10"><path d="M103.07 83C94.1 72.8 84.63 66.1 72.36 60.27c-.28-.13-.6-.33-.58-.64.01-.31.64-.29.51-.01M96.19 86.31c-3.77-1.3-4.84-2.69-7.9-5.25a236.927 236.927 0 0 1-22.76-21.71l.49.34M95.96 85.85c-1-4.95-2.88-9.73-5.51-14.04"/></g><linearGradient id="d" gradientTransform="scale(-1 1) rotate(-14.277 -96.678 691.841)" gradientUnits="userSpaceOnUse" x1="49.477" x2="92.093" y1="47.646" y2="87.755"><stop offset="0" stop-color="#80ffee"/><stop offset=".156" stop-color="#85fced"/><stop offset=".34" stop-color="#93f1e8"/><stop offset=".539" stop-color="#abe1e1"/><stop offset=".748" stop-color="#ccc9d8"/><stop offset=".962" stop-color="#f7accb"/><stop offset="1" stop-color="#ffa6c9"/></linearGradient><path d="M68.74 62.42c-4.84 0-7.75-1.07-8.2-3.02-.66-2.9.84-6.77 4.36-11.18 8.46-10.62 27.66-22.49 40.68-22.49 6.28 0 10.36 2.67 12.13 7.95.99 2.95.36 6.02-1.88 9.13-8.04 11.2-34.11 19.61-47.09 19.61z" fill="url(#d)"/><path d="M106 25v1.46c6 0 9.58 2.51 11.24 7.46.91 2.72.21 5.57-1.89 8.49-7.92 11.01-33.73 19.3-46.57 19.3-4.34 0-7.17-.92-7.52-2.46-.6-2.64.88-6.4 4.2-10.56 8.36-10.49 27.5-22.22 40.33-22.22l.2-1.43m-.41-.01c-18.43 0-48.43 22.77-45.74 34.54.57 2.48 3.97 3.57 8.89 3.57 17.68 0 54.86-14.19 49.66-29.68-2.01-6.01-6.79-8.43-12.81-8.43z" fill="#55bfd9"/><g fill="none" stroke="#87cdde" stroke-width=".956" stroke-linecap="round" stroke-linejoin="round" stroke-miterlimit="10"><path d="M113.46 28.95C95.2 35.9 77.64 46.97 64.02 60.65M116.78 34.85C101.4 47.31 84.13 56.33 64.85 61.76M98.11 27.76c-4.23 2.82-6.92 8.2-8.67 12.91M113.61 29.62c-4.72 3.95-8.3 9.17-10.26 14.94M91.29 51.31c-5.97 1.22-10.37 1.32-15.62-.61"/></g><g><linearGradient id="e" gradientUnits="userSpaceOnUse" x1="63.946" x2="62.562" y1="65.975" y2="98.392"><stop offset="0" stop-color="#8d5738"/><stop offset="1" stop-color="#a56c43"/></linearGradient><path d="M50.45 101.8c-.06 0-.12 0-.18-.01-.93-.13-1.53-1.19-1.99-2.21-.91-2-1.79-4.04-2.63-6.05-.34-.81-.59-1.48-.56-2.17.09-1.72 2-2.79 2.81-3.17.46-.21.95-.48 1.45-.75 1.14-.62 2.44-1.33 3.34-1.33.38 0 .81.1 1.09.85l.19.51 14.11-6.72v-.32c0-.13.01-.22.03-.31.03-.21.07-.44-.05-.81l-3.24-9.3 8.16-9.69c3.29 6.59 10.4 25.36 6.99 27.95-3.98 3.02-21.87 5.21-22.05 5.23-.98.29-1.8.43-2.52.43-.33 0-.64-.03-.92-.09l-.53-.11-.07.53c-.21 1.65-.56 3.25-1.03 4.76-.2.66-.46 1.42-.93 1.98-.4.51-.96.8-1.47.8z" fill="url(#e)"/><path d="M72.86 61.25c1.31 2.79 3.56 8.16 5.29 13.59 3.46 10.89 1.87 12.78 1.52 13.05-3.21 2.44-16.83 4.53-21.81 5.14l-.09.01-.09.03c-.85.26-1.62.39-2.28.39-.29 0-.57-.03-.82-.08l-1.05-.22-.14 1.07a28.16 28.16 0 0 1-1.01 4.68c-.19.62-.43 1.32-.84 1.81-.3.36-.73.6-1.08.6-.04 0-.07 0-.11-.01-.69-.1-1.22-1.08-1.6-1.92-.9-1.99-1.78-4.02-2.62-6.03-.31-.75-.55-1.37-.52-1.95.08-1.49 1.95-2.48 2.52-2.74.47-.22.96-.49 1.48-.77 1.09-.6 2.33-1.27 3.1-1.27.24 0 .44.04.63.52l.38 1.02.98-.47 13.33-6.35.58-.27-.01-.64c0-.09.01-.16.02-.23.03-.22.08-.56-.08-1.06l-3.14-9.02 7.46-8.88m.22-1.82l-8.82 10.48 3.33 9.55c.13.41 0 .54 0 .97l-13.33 6.35c-.32-.86-.88-1.17-1.56-1.17-1.44 0-3.44 1.4-5 2.13-1.51.7-3.01 1.94-3.1 3.6-.04.83.28 1.62.59 2.39.85 2.03 1.72 4.06 2.63 6.06.5 1.09 1.19 2.33 2.37 2.49.08.01.17.02.25.02.71 0 1.39-.41 1.85-.96.51-.62.79-1.39 1.03-2.16.49-1.58.83-3.2 1.05-4.84.31.06.65.1 1.02.1.74 0 1.59-.13 2.58-.44 0 0 18.16-2.19 22.3-5.33 4.14-3.13-4.86-24.83-7.19-29.24z" fill="#875334"/></g><g><linearGradient id="f" gradientTransform="rotate(-74.676 -515.852 -740.64)" gradientUnits="userSpaceOnUse" x1="-1116.245" x2="-1131.541" y1="49.418" y2="70.834"><stop offset="0" stop-color="#8d5738"/><stop offset="1" stop-color="#a56c43"/></linearGradient><path d="M88.96 66.55c-1.34 0-2.68-.7-3.41-1.79L75.16 51.3l7.48-6.16 6.8 11.9 12.82-7.99c.33-.22.75-.32 1.26-.32.07 0 .14 0 .21.01 1.17.06 2.22.79 2.75 1.9.52 1.09.42 2.29-.26 3.21-.19.26-.4.47-.63.63L91.56 65.56c-.21.16-.45.3-.72.43l-.06.02-.05.04c-.1.08-.18.13-.18.14-.44.23-.99.36-1.59.36z" fill="url(#f)"/><path d="M82.5 45.9l6.25 10.93.52.9.88-.55 12.4-7.72c.24-.16.57-.23.98-.23h.18c.99.05 1.88.67 2.32 1.62.44.92.36 1.93-.21 2.7-.16.21-.33.39-.52.52l-.02.01-.02.02-14 11.06c-.18.14-.39.26-.62.37l-.11.05-.09.07c-.05.04-.09.07-.12.09-.41.21-.86.31-1.36.31-1.18 0-2.35-.62-2.99-1.57l-.02-.03-.02-.03-10.08-13.05 6.65-5.47m.28-1.53l-8.31 6.85 10.67 13.82c.84 1.26 2.34 2.02 3.82 2.02.65 0 1.29-.14 1.87-.45 0 0 .09-.06.22-.16.29-.13.57-.29.82-.49l14.01-11.07c.29-.2.53-.46.74-.74 1.71-2.31.01-5.75-2.87-5.91-.08 0-.16-.01-.23-.01-.56 0-1.09.11-1.53.4l-12.38 7.71-6.83-11.97z" fill="#875334"/></g><g><linearGradient id="g" gradientTransform="scale(-1 1) rotate(-76.603 -547.766 -665.325)" gradientUnits="userSpaceOnUse" x1="-1123.639" x2="-1140.103" y1="-7.093" y2="15.957"><stop offset="0" stop-color="#8d5738"/><stop offset="1" stop-color="#a56c43"/></linearGradient><path d="M38.69 68.19c-.68 0-1.34-.17-1.89-.49l-.21-.17-.05-.03a4.22 4.22 0 0 1-.77-.49L21.15 54.64c-.26-.2-.48-.44-.68-.72-.7-1.02-.76-2.32-.17-3.49.61-1.19 1.78-1.94 3.05-1.96h.01c.7 0 1.2.13 1.57.39l13.43 9.01 7.73-12.52 7.85 6.93-11.62 14.06a4.523 4.523 0 0 1-3.63 1.85z" fill="url(#g)"/><path d="M46.21 46.12l7.05 6.22-11.33 13.68-.02.03-.02.03c-.71.99-1.94 1.61-3.2 1.61-.58 0-1.13-.14-1.6-.4a.948.948 0 0 1-.13-.11l-.09-.08-.11-.05a3.25 3.25 0 0 1-.66-.42L21.47 54.26l-.02-.02-.02-.02c-.2-.15-.39-.35-.55-.59-.59-.87-.64-1.98-.13-2.97.53-1.02 1.53-1.67 2.61-1.69h.08c.51 0 .92.1 1.22.31l13 8.72.86.58.55-.88 7.14-11.58m-.23-1.53l-7.76 12.58-13-8.72c-.5-.35-1.12-.48-1.78-.48h-.09c-3.09.06-5.03 3.69-3.29 6.23.21.31.47.59.77.82L35.45 67.4c.27.22.56.4.86.55l.23.18c.66.38 1.4.56 2.15.56 1.54 0 3.1-.75 4.01-2.03l11.94-14.43-8.66-7.64z" fill="#875334"/></g><g><linearGradient id="h" gradientUnits="userSpaceOnUse" x1="60.293" x2="49.483" y1="68.767" y2="120.199"><stop offset="0" stop-color="#8d5738"/><stop offset="1" stop-color="#a56c43"/></linearGradient><path d="M46.43 123.72c-.26 0-.49-.05-.69-.16-.83-.44-1.03-1.64-1.11-2.75-.17-2.2-.3-4.41-.4-6.58-.04-.88-.05-1.59.22-2.23.6-1.41 2.38-1.84 3.38-1.97l.35-.05 3.29-16.22 1.48-24.32 10.56-8.47c.33 1.61.75 3.2 1.16 4.74.76 2.88 1.48 5.6 1.67 8.39-.13.4-.28 1.15-.56 2.55-.79 3.9-2.45 12.02-4.66 19.7-2.21 7.7-8.37 19.14-8.43 19.26-.03.06-2.18 4.37-3.61 6.25-.42.55-.92 1.17-1.56 1.54-.32.21-.72.32-1.09.32z" fill="url(#h)"/><path d="M63.21 61.87c.3 1.35.65 2.68.99 3.97.74 2.81 1.45 5.48 1.65 8.17-.06.19-.1.39-.15.6-.1.45-.23 1.11-.4 1.93-.79 3.89-2.44 12-4.65 19.67-2.2 7.65-8.33 19.05-8.4 19.19-.02.04-2.15 4.31-3.55 6.16-.39.51-.85 1.09-1.41 1.41-.27.16-.59.25-.86.25-.17 0-.33-.03-.46-.1-.62-.33-.78-1.43-.85-2.35-.17-2.18-.3-4.39-.4-6.57-.04-.81-.05-1.48.18-2.01.52-1.23 2.26-1.58 2.99-1.67l.71-.09.14-.7 3.22-15.87.01-.07v-.07l1.46-24.03 9.78-7.82m.33-1.55l-11.06 8.87L51 93.66l-3.22 15.87c-1.56.2-3.18.85-3.78 2.27-.32.76-.3 1.62-.26 2.45.1 2.2.23 4.4.4 6.6.09 1.2.32 2.59 1.38 3.16.29.15.6.22.93.22.47 0 .96-.15 1.37-.39.69-.4 1.22-1.04 1.7-1.67 1.47-1.94 3.65-6.32 3.65-6.32s6.21-11.51 8.47-19.36c3.12-10.86 5.09-22.35 5.24-22.36-.3-4.5-1.98-8.92-2.9-13.55l-.44-.26z" fill="#875334"/></g><g><linearGradient id="i" gradientTransform="matrix(1 -.00862 .00862 1 1.602 .91)" gradientUnits="userSpaceOnUse" x1="62.592" x2="62.592" y1="28.95" y2="76.582"><stop offset="0" stop-color="#2cd1c9"/><stop offset=".188" stop-color="#609cb7"/><stop offset=".376" stop-color="#8c6fa9"/><stop offset=".555" stop-color="#ae4c9d"/><stop offset=".723" stop-color="#c73395"/><stop offset=".876" stop-color="#d62490"/><stop offset="1" stop-color="#db1f8e"/></linearGradient><path d="M84.53 46.59s-3.21-7.54-20.55-7.39c-17.34.15-19.32 7.74-19.32 7.74l7.64 6.98.14 15.76 10.01 6.48c.79.39 1.66.59 2.54.58.91-.01 1.81-.24 2.61-.67l9.46-6.61-.14-15.76 7.61-7.11z" fill="url(#i)"/></g><g><linearGradient id="j" gradientTransform="matrix(1 -.00862 .00862 1 1.602 .91)" gradientUnits="userSpaceOnUse" x1="62.625" x2="62.625" y1="28.95" y2="76.582"><stop offset="0" stop-color="#2cd1c9"/><stop offset=".188" stop-color="#609cb7"/><stop offset=".376" stop-color="#8c6fa9"/><stop offset=".555" stop-color="#ae4c9d"/><stop offset=".723" stop-color="#c73395"/><stop offset=".876" stop-color="#d62490"/><stop offset="1" stop-color="#db1f8e"/></linearGradient><path d="M84.56 46.59s-3.21-7.54-20.55-7.39c-17.34.15-19.32 7.74-19.32 7.74l7.58 6.92 24.78-.21 7.51-7.06z" fill="url(#j)"/></g><g><defs><path id="k" d="M83.54 46.6s-2.18-7.55-19.53-7.4c-17.34.15-18.29 7.73-18.29 7.73l6.55 6.93 24.78-.21 6.49-7.05z"/></defs><clipPath id="l"><use xlink:href="#k" overflow="visible"/></clipPath><g clip-path="url(#l)"><linearGradient id="m" gradientUnits="userSpaceOnUse" x1="53.817" x2="75.302" y1="41.358" y2="41.358"><stop offset="0" stop-color="#8d5738"/><stop offset="1" stop-color="#a56c43"/></linearGradient><path d="M64.49 48.04c-6.92 0-10.64-4.3-10.67-7.41-.03-3.23 4.77-5.89 10.69-5.94h.17c5.83 0 10.59 2.58 10.62 5.76.03 3.07-3.76 7.54-10.68 7.6l-.13-.01z" fill="url(#m)"/><path d="M64.68 35.18c5.46 0 10.1 2.41 10.12 5.26.02 2.86-3.59 7.03-10.18 7.09h-.14c-6.51 0-10.14-4.09-10.17-6.91-.01-1.32.97-2.61 2.75-3.64 1.97-1.13 4.61-1.77 7.44-1.79l.18-.01m0-1h-.18c-6.21.05-11.22 2.94-11.19 6.45.03 3.48 4.16 7.91 11.17 7.91h.14c7.09-.06 11.2-4.59 11.17-8.1-.02-3.48-4.98-6.26-11.11-6.26z" fill="#875334"/></g></g><path d="M64.22 40.27c13.6 0 17.92 4.52 19.02 6.12l-7.09 6.63c-.21.19-.32.47-.32.75l.32 15.37-9.11 6.19c-.66.33-1.39.51-2.13.51-.71 0-1.42-.16-2.06-.48l-9.55-6.24V53.89c0-.28-.12-.55-.32-.74l-7.13-6.56c.9-1.59 4.71-6.32 18.37-6.32m0-1c-17.52 0-19.57 7.57-19.57 7.57l7.66 7.04v15.77l10.05 6.57c.79.4 1.67.61 2.56.61.92 0 1.83-.22 2.64-.65l9.61-6.53-.33-15.91 7.67-7.17c-.01.01-2.78-7.3-20.29-7.3z" fill="#983ba1"/><g><path d="M64.61 43.88c-1.9 0-3.45-1.47-3.45-3.28v-4.11h7.69v4.11c0 1.81-1.55 3.28-3.45 3.28h-.79z" fill="#7a4c32"/><path d="M68.35 36.98v3.61c0 1.53-1.32 2.78-2.95 2.78h-.79c-1.63 0-2.95-1.25-2.95-2.78v-3.61H68.35m1-1h-8.68v4.61c0 2.09 1.77 3.78 3.95 3.78h.79c2.18 0 3.95-1.69 3.95-3.78v-4.61h-.01z" fill="#663b22"/></g><g><path d="M45.27 27.7c-2.96-.11-5.83-1.36-7.87-3.44-.47-.47-.9-1-1.33-1.51-.42-.5-.85-1.02-1.32-1.51-1.2-1.23-2.45-1.96-3.72-2.15a3.908 3.908 0 0 0-1.1-.02c.45-.24.93-.41 1.37-.51.59-.13 1.24-.2 1.99-.2.83 0 1.69.08 2.52.16l.42.04c.38.04.77.06 1.16.09h.03c.16 0 .32-.08.41-.22.1-.14.12-.33.04-.49-.09-.21-.15-.38-.18-.54-.09-.54.06-1.15.4-1.65 0 .43.12.86.35 1.21.46.71 1.29 1.17 2.39 1.35.03 0 .05.01.08.01.05 0 .1-.01.14-.02l.13-.03c.1-.02.2-.05.3-.08 1.81-.68 3.15-2.07 4.43-3.42.41-.43.82-.86 1.24-1.26 2.16-2.06 4.71-3.34 7.17-3.6.51-.05 1.29-.08 2.19-.08 3.75 0 6.98.45 7.69.88-.01.01-.03.02-.05.04-.91.64-2.47 3.05-4.75 6.66-1.33 2.12-2.71 4.31-3.24 4.75-2.32 2-7.9 5.56-10.79 5.56l-.1-.02z" fill="#b346bd"/><path d="M56.53 10.31c2.9 0 5.48.27 6.73.57-.98 1.06-2.34 3.18-4.27 6.24-1.19 1.89-2.67 4.24-3.14 4.64-2.2 1.9-7.74 5.44-10.46 5.44h-.1c-2.83-.11-5.58-1.31-7.53-3.29-.45-.46-.86-.95-1.3-1.48-.42-.51-.86-1.04-1.35-1.54-.92-.94-1.87-1.61-2.84-1.99.32-.03.65-.05 1.01-.05.81 0 1.66.08 2.48.16l.41.04c.39.04.78.07 1.18.09h.06c.33 0 .64-.16.82-.43.2-.29.23-.66.09-.98-.03-.08-.06-.15-.08-.21.56.66 1.42 1.1 2.52 1.28.05.01.11.01.16.01.1 0 .2-.01.29-.04l.1-.03c.12-.03.24-.06.36-.1 1.92-.72 3.29-2.15 4.62-3.54.42-.44.81-.85 1.23-1.24 2.08-1.98 4.53-3.21 6.88-3.46.49-.06 1.25-.09 2.13-.09m0-1c-.91 0-1.7.03-2.24.09-2.83.3-5.42 1.79-7.46 3.73-1.74 1.66-3.24 3.72-5.51 4.57-.13.05-.27.07-.4.11-.81-.13-1.62-.46-2.06-1.13-.5-.76-.28-1.99.6-2.31-1.45.13-2.5 1.7-2.26 3.1.04.23.12.45.21.66-.38-.02-.76-.05-1.14-.08-.99-.09-1.99-.2-2.98-.2-.71 0-1.41.06-2.1.21-1.66.38-3.27 1.5-3.67 3.11.48-1.06 1.7-1.64 2.9-1.64.18 0 .36.01.54.04 1.35.2 2.5 1.04 3.44 2.01.93.96 1.7 2.07 2.65 3.03 2.13 2.16 5.13 3.47 8.21 3.59h.14c3.11 0 8.83-3.72 11.11-5.68 1.3-1.12 6.32-10.25 7.95-11.38 1.84-1.29-4.1-1.83-7.93-1.83z" fill="#983ba1"/><g><linearGradient id="n" gradientTransform="scale(-1 1) rotate(-1.662 -46.317 15614.597)" gradientUnits="userSpaceOnUse" x1="386.584" x2="386.584" y1="44.212" y2="16.252"><stop offset="0" stop-color="#8d5738"/><stop offset=".216" stop-color="#97603d"/><stop offset=".573" stop-color="#a26941"/><stop offset="1" stop-color="#a56c43"/></linearGradient><path d="M65.13 38.4c-.83-.02-1.76-.23-2.7-.59-4.09-1.57-8.78-6.2-8.55-14.05.3-10.2 6.5-13.82 11.72-13.82h.35c5.38.16 11.56 4.05 11.25 14.5-.23 7.84-5.17 12.19-9.33 13.53-.9.29-1.79.44-2.57.44l-.17-.01z" fill="url(#n)"/><path d="M66 9v1.44h.14c5.15.15 10.96 3.9 10.67 13.98-.22 7.58-5.03 11.78-9.03 13.07-.85.27-1.71.42-2.45.42h-.17c-.77-.02-1.65-.22-2.54-.56-3.93-1.51-8.25-5.98-8.03-13.57C54.76 17.62 58 10.44 66 10.44V9m-.4.44c-6.18 0-11.94 4.54-12.22 14.31-.23 8.01 4.6 12.89 8.87 14.53 1.01.39 1.99.6 2.87.62h.19c.83 0 1.76-.16 2.73-.47 4.36-1.4 9.45-5.99 9.68-13.99.28-9.95-5.43-14.81-11.75-15h-.37z" fill="#875334"/><g><path d="M64.02 28.5l.12-.03 2.57.07.12.03c.23.1.35.35.23.6-.12.25-.65.96-1.68.93-1.03-.03-1.52-.77-1.62-1.02-.11-.25.02-.49.26-.58z" fill="#875334"/><g fill="#42312c"><ellipse cx="71.48" cy="25.34" rx="1.85" ry="1.79" transform="rotate(-88.338 71.48 25.343)"/><ellipse cx="59.55" cy="25" rx="1.85" ry="1.79" transform="rotate(-88.338 59.549 24.997)"/><path d="M68.92 21.94c.35-.44 1.16-1.07 2.69-1.03 1.53.04 2.3.72 2.62 1.18.14.2.1.43-.01.57-.1.13-.39.24-.7.12-.31-.12-.92-.45-1.95-.49-1.03-.02-1.66.28-1.98.38-.32.1-.6-.03-.69-.16-.1-.14-.13-.37.02-.57zM56.99 21.59c.35-.44 1.16-1.07 2.69-1.03 1.53.04 2.3.72 2.62 1.18.14.2.1.43-.01.57-.1.13-.39.24-.7.12-.31-.12-.92-.45-1.95-.49-1.03-.02-1.66.28-1.98.38-.32.1-.6-.03-.69-.16-.1-.14-.14-.37.02-.57z"/></g><path d="M62.28 31.42c1.14.72 4.92.83 6.1.18.67-.38 1.34.25 1.04.84-.29.58-2.4 1.9-4.18 1.85-1.79-.05-3.79-1.49-4.04-2.09-.26-.61.43-1.19 1.08-.78z" fill="#473530"/></g><g><radialGradient id="o" cx="66.464" cy="6.627" gradientUnits="userSpaceOnUse" r="14.927"><stop offset=".005" stop-color="#d553e0"/><stop offset="1" stop-color="#b346bd"/></radialGradient><path d="M50.68 23.97c-1.17-5.86-.01-12.63 4.8-16.6 2.95-2.44 6.78-3.35 10.55-3.27 5.17.12 10.27 2.03 12.71 6.86 1.52 3.02 1.88 6.56 1.58 9.9-.2 2.28-.63 4.56-1.55 6.65-.46 1.04-2.3 5.38-3.78 6.14.16-.93.85-5.62.98-6.79.17-1.61.24-3.2.11-4.82-.1-1.3.34-2.85-1.22-3.2C66.63 16.99 62 12.71 62 12.71c-.7 1.47-1.89 2.61-3.16 3.59-.64.5-1.3.96-1.95 1.44-.5.37-1.33.8-1.62 1.36-.41.77-.37 2.16-.47 3.02a41.34 41.34 0 0 0-.25 3.15c-.07 1.38-.06 2.77.01 4.16.04.71.3 3.37.3 3.37s-1.8-2.36-2.39-3.57c-.74-1.51-1.3-3.11-1.66-4.74-.06-.18-.09-.35-.13-.52z" fill="url(#o)"/></g><path d="M78.74 10.96C76.3 6.13 71.2 4.22 66.03 4.11c-.16 0-.32-.01-.48-.01-3.62 0-7.25.94-10.08 3.27-4.81 3.97-5.96 10.74-4.8 16.6.03.17.07.34.11.51.37 1.64.92 3.24 1.66 4.74.59 1.21 2.39 3.57 2.39 3.57s-.09-.93-.17-1.98c-.4-.36-1.81-3.04-1.83-3.17a20.56 20.56 0 0 1-1.07-3.39c-.04-.16-.07-.32-.1-.49-.99-4.96-.34-11.68 4.45-15.63 3.05-2.52 6.82-3.04 9.44-3.04.15 0 .3 0 .45.01 3.27.07 9.15.99 11.84 6.31 1.63 3.22 1.7 6.87 1.48 9.36-.23 2.53-.71 4.61-1.47 6.34l-.09.2c-.45 1.03-.98 2.64-2.5 4.43-.17 1.16-.22 1.53-.28 1.92 1.49-.76 3.32-5.1 3.78-6.14.92-2.09 1.35-4.37 1.55-6.65.31-3.34-.05-6.89-1.57-9.91z" fill="#983ba1"/></g></g><g><path d="M13.38 22.22l.09-.04 10.52 40.64c.07.26-.08.52-.34.59a.477.477 0 0 1-.59-.34v-.01l-9.68-40.84z" fill="#6d4c41" stroke="#6d4c41" stroke-miterlimit="10"/><path d="M11.24 23.5a.494.494 0 0 0-.23-.4l-2.72-1.75 3.04-1.1c.15-.06.27-.18.31-.34l.82-3.13 1.99 2.56c.09.12.24.19.39.19l3.26-.19-1.82 2.68c-.09.14-.11.31-.05.46l1.18 3.02-3.11-.9c-.05-.01-.09-.02-.14-.02-.11 0-.23.04-.32.11l-2.5 2.05-.1-3.24z" fill="#ffd600"/><path d="M12.69 17.89l1.37 1.76c.19.24.48.39.79.39h.06l2.22-.13-1.25 1.84c-.18.27-.22.62-.1.92l.81 2.07-2.14-.62a.978.978 0 0 0-.91.19l-1.72 1.41-.07-2.22a.994.994 0 0 0-.46-.81l-1.87-1.2 2.09-.76c.31-.11.54-.37.63-.69l.55-2.15m-.46-2.22l-1.08 4.11-4 1.44 3.58 2.29.14 4.25 3.29-2.69 4.08 1.18-1.54-3.95 2.39-3.52-4.24.25-2.62-3.36zm6.85 3.11z" fill="#e6a900"/></g><g><linearGradient id="p" gradientTransform="scale(1 -1) rotate(-62.418 -597.062 -880.132)" gradientUnits="userSpaceOnUse" x1="-1042.538" x2="-1050.579" y1="53.549" y2="50.513"><stop offset="0" stop-color="#8d5738"/><stop offset="1" stop-color="#a56c43"/></linearGradient><path d="M20.8 54.93c-1.02 0-1.96-.45-2.8-1.34-.96-1.02-1.43-2.03-1.4-2.97.03-.96.58-1.95 1.64-2.94 1.22-1.14 2.56-1.77 3.75-1.77 1.02 0 1.96.45 2.8 1.34.96 1.02 1.43 2.03 1.4 2.97-.03.96-.58 1.95-1.64 2.94-1.22 1.14-2.55 1.77-3.75 1.77z" fill="url(#p)"/><path d="M22 46.41c.88 0 1.7.4 2.43 1.18.87.92 1.29 1.8 1.26 2.62-.03.83-.53 1.7-1.48 2.59-1.13 1.06-2.34 1.64-3.41 1.64-.89 0-1.69-.39-2.43-1.18-.87-.92-1.29-1.8-1.26-2.62.03-.83.53-1.7 1.48-2.59 1.13-1.06 2.34-1.64 3.41-1.64m0-1c-1.46 0-2.9.79-4.1 1.91-2.08 1.94-2.6 4.13-.26 6.62 1 1.06 2.08 1.5 3.16 1.5 1.46 0 2.9-.79 4.1-1.91 2.08-1.94 2.6-4.13.26-6.62-.99-1.07-2.08-1.5-3.16-1.5z" fill="#875334"/></g><g><linearGradient id="q" gradientTransform="scale(-1 1) rotate(15.041 -778.81 3863.19)" gradientUnits="userSpaceOnUse" x1="-1114.088" x2="-1122.131" y1="8.65" y2="5.614"><stop offset="0" stop-color="#8d5738"/><stop offset="1" stop-color="#a56c43"/></linearGradient><path d="M105.27 56.3c-1.25 0-2.31-.76-3.23-2.33-.78-1.32-2.23-4.58 1-6.49.91-.54 1.75-.81 2.49-.81 1.25 0 2.31.76 3.23 2.33.78 1.32 2.23 4.58-1 6.49-.91.54-1.75.81-2.49.81z" fill="url(#q)"/><path d="M105.53 47.17c1.06 0 1.97.68 2.8 2.08.87 1.47 1.92 4.19-.82 5.81-.83.49-1.58.74-2.23.74-1.06 0-1.97-.68-2.8-2.08-.87-1.47-1.92-4.19.82-5.81.82-.49 1.57-.74 2.23-.74m0-1c-.81 0-1.72.28-2.74.88-2.94 1.74-2.62 4.73-1.18 7.18.94 1.6 2.13 2.58 3.66 2.58.81 0 1.72-.28 2.74-.88 2.94-1.74 2.62-4.73 1.18-7.18-.94-1.6-2.13-2.58-3.66-2.58z" fill="#875334"/></g></svg>