<svg enable-background="new 0 0 128 128" viewBox="0 0 128 128" xmlns="http://www.w3.org/2000/svg" xmlns:xlink="http://www.w3.org/1999/xlink"><linearGradient id="k" x1="64" x2="64" y1="11.395" y2="88.489" gradientUnits="userSpaceOnUse"><stop stop-color="#26A69A" offset="0"/><stop stop-color="#00796B" offset="1"/></linearGradient><rect x="6.36" y="10.9" width="115.29" height="77.52" fill="url(#k)"/><linearGradient id="h" x1="64" x2="64" y1="8.545" y2="90.776" gradientUnits="userSpaceOnUse"><stop stop-color="#8D6E63" offset="0"/><stop stop-color="#795548" offset=".7789"/></linearGradient><path d="m119.29 13.26v72.81h-110.58v-72.81h110.58m4.71-4.72h-120v82.23h120v-82.23z" fill="url(#h)"/><defs><rect id="g" x="4" y="4" width="120" height="120"/></defs><clipPath id="a"><use xlink:href="#g"/></clipPath><g clip-path="url(#a)"><linearGradient id="f" x1="64" x2="64" y1="100.88" y2="129.36" gradientUnits="userSpaceOnUse"><stop stop-color="#E1F5FE" offset="0"/><stop stop-color="#81D4FA" offset="1"/></linearGradient><path d="M13.5,136.01v-15.26c0-16.24,25.36-23.53,50.5-23.56h0.13c25.03,0,50.36,8.09,50.36,23.56 v15.26H13.5z" fill="url(#f)"/><path d="m64.13 98.7c12.9 0 25.42 2.19 34.36 6 6.62 2.83 14.51 7.91 14.51 16.05v13.76h-98v-13.76c0-15.2 24.61-22.03 49-22.06l0.13 0.01m0-3h-0.13c-25.49 0.03-52 7.28-52 25.06v16.76h104v-16.76c0-16.76-26.26-25.06-51.87-25.06z" fill="#81D4FA"/></g><g clip-path="url(#a)"><path d="M63.14,109.48c-4.21,0-7.63-3.53-7.63-7.87v-9.83H72.5v9.83c0,4.34-3.42,7.87-7.63,7.87H63.14z" fill="#C48E6A"/><path d="m71.5 92.78v8.83c0 3.79-2.98 6.87-6.63 6.87h-1.73c-3.66 0-6.63-3.08-6.63-6.87v-8.83h14.99m2-2h-19v10.83c0 4.9 3.86 8.87 8.63 8.87h1.73c4.77 0 8.63-3.97 8.63-8.87v-10.83h0.01z" fill="#B07853"/></g><g clip-path="url(#a)"><linearGradient id="e" x1="63.567" x2="63.567" y1="104.5" y2="126.36" gradientUnits="userSpaceOnUse"><stop stop-color="#00BFA5" offset="0"/><stop stop-color="#00AB94" offset="1"/></linearGradient><path d="m24.97 136.01c-0.51-4.1-1.67-17.86 3.37-32.8 1.83-0.85 8.14-3.6 15.76-4.74l2.51 15.15 17.18-9.01h0.54l17.18 9.01 2.51-15.15c7.62 1.14 13.92 3.88 15.75 4.74 5.06 15.12 2.13 28.97 1.13 32.8h-75.93z" fill="url(#e)"/><path d="m85.25 100.2c6.11 1.1 11.17 3.16 13.3 4.11 4.25 13.26 2.26 25.47 1.17 30.21h-73.42c-0.51-5.02-1.04-17.06 3.25-30.2 2.12-0.95 7.19-3.01 13.3-4.11l1.93 11.63 0.68 4.09 3.67-1.93 14.91-7.82 14.91 7.82 3.67 1.93 0.68-4.09 1.95-11.64m-2.48-3.4-2.41 14.54-15.67-8.22h-1.27l-15.67 8.22-2.41-14.54c-10.09 1.2-18.21 5.34-18.21 5.34-6.48 18.62-3.46 35.38-3.46 35.38h78.37s5.42-16.76-1.05-35.38c0-0.01-8.13-4.14-18.22-5.34z" fill="#009984"/></g><g clip-path="url(#a)"><linearGradient id="d" x1="54.332" x2="54.332" y1="95.216" y2="106.42" gradientUnits="userSpaceOnUse"><stop stop-color="#E1F5FE" offset="0"/><stop stop-color="#81D4FA" offset="1"/></linearGradient><polygon points="46.99 97.58 53.71 93.77 61.68 102.33 48.89 109.04" fill="url(#d)"/><path d="m53.42 95.66 5.82 6.26-9.21 4.83-1.39-8.38 4.78-2.71m0.58-3.78-8.66 4.92 2.41 14.54 16.36-8.58-10.11-10.88z" fill="#66C0E8"/></g><g clip-path="url(#a)"><linearGradient id="c" x1="-255.94" x2="-255.94" y1="95.216" y2="106.42" gradientTransform="matrix(-1 0 0 1 -182.16 0)" gradientUnits="userSpaceOnUse"><stop stop-color="#E1F5FE" offset="0"/><stop stop-color="#81D4FA" offset="1"/></linearGradient><polygon points="66.44 102.33 74.4 93.77 81.12 97.58 79.22 109.04" fill="url(#c)"/><path d="m74.69 95.66 4.78 2.71-1.39 8.38-9.21-4.83 5.82-6.26m-0.58-3.78-10.11 10.87 16.36 8.58 2.41-14.54-8.66-4.91z" fill="#66C0E8"/></g><linearGradient id="b" x1="78.493" x2="72.16" y1="106.73" y2="133.39" gradientUnits="userSpaceOnUse"><stop stop-color="#212121" stop-opacity=".2" offset=".0017428"/><stop stop-color="#212121" stop-opacity=".6" offset="1"/></linearGradient><path d="m102.42 111.85c0-0.02-0.01-0.03-0.01-0.05-0.01-0.04-0.02-0.07-0.04-0.1-0.17-0.54-0.56-0.97-1.09-1.13l-0.15-0.04h-0.01l-3.75-1.08-34.93-10.03c-0.05-0.01-0.09-0.01-0.14-0.03-3.24-0.85-6.58 1.03-7.51 4.27l-1.44 5.03c-0.1 0.34-0.21 0.71-0.32 1.11l-1.32 4.61-8.43 29.38c0 0.01-0.01 0.03-0.01 0.04l-1.7 5.92-0.61 2.14c-0.48 1.66-0.22 3.35 0.58 4.73 0.01 0.01 0.01 0.02 0.02 0.03 0.09 0.15 0.18 0.3 0.28 0.45 0.04 0.06 0.09 0.12 0.14 0.18 0.07 0.09 0.13 0.18 0.2 0.26 0.11 0.13 0.22 0.25 0.34 0.36l0.04 0.04c0.73 0.72 1.64 1.28 2.7 1.58l18.05 5.14 21.78 6.25 2.23 0.64 0.01-0.05 0.06 0.02 7.46-26.21 6.9-24.03 0.63-2.19-0.06-0.02 0.01-0.05-1.55-0.44 1.64-5.72c0.1-0.34 0.09-0.69 0-1.01z" clip-path="url(#a)" fill="url(#b)"/><g clip-path="url(#a)"><linearGradient id="t" x1="32.529" x2="32.529" y1="95.394" y2="123.06" gradientUnits="userSpaceOnUse"><stop stop-color="#B2DFDB" stop-opacity=".2" offset="0"/><stop stop-color="#B2DFDB" stop-opacity=".6" offset=".7674"/></linearGradient><path d="m28.71 126.22c-0.07-4.86 1.05-14.86 4.1-26.14l3.54-1.21c-3.36 11.53-4.69 22.38-4.63 27.3l-3.01 0.05z" fill="url(#t)"/><linearGradient id="s" x1="-281.16" x2="-281.16" y1="95.394" y2="123.06" gradientTransform="matrix(-1 0 0 1 -185.69 0)" gradientUnits="userSpaceOnUse"><stop stop-color="#B2DFDB" stop-opacity=".2" offset="0"/><stop stop-color="#B2DFDB" stop-opacity=".6" offset=".7674"/></linearGradient><path d="m99.29 126.22c0.07-4.86-1.05-14.86-4.1-26.14l-3.54-1.21c3.36 11.53 4.69 22.38 4.63 27.3l3.01 0.05z" fill="url(#s)"/><path d="m104.46 109.53-38.69-11.1c-3.28-0.94-6.71 0.96-7.65 4.24l-11.52 40.12c-0.94 3.28 0.96 6.71 4.24 7.65l40.51 11.63 14.4-50.19c0.29-1.01-0.29-2.06-1.29-2.35z" fill="#424242"/><linearGradient id="r" x1="82.111" x2="76.945" y1="110.81" y2="128.14" gradientUnits="userSpaceOnUse"><stop stop-color="#EF5350" offset="0"/><stop stop-color="#E53935" offset="1"/></linearGradient><path d="m103.46 117.45-41.52-11.9c-4.53-1.3-5.32 2.35-6.59 6.78l-10.45 36.42c-1.27 4.43 1.37 9.07 5.89 10.37l37.61 10.79c1.25 0.36 2.54-0.34 2.89-1.56l13.79-48.04c0.35-1.22-0.38-2.5-1.62-2.86z" fill="url(#r)"/><g opacity=".2"><path d="m60.26 107.33c0.31 0 0.69 0.06 1.12 0.19l41.54 11.9c0.1 0.03 0.16 0.09 0.19 0.14s0.04 0.11 0.02 0.16l-13.81 48.08c-0.03 0.11-0.15 0.16-0.25 0.16-0.03 0-0.06 0-0.09-0.01l-37.65-10.8c-1.67-0.48-3.05-1.56-3.9-3.05-0.84-1.47-1.04-3.17-0.58-4.77l10.47-36.46 0.17-0.61c1.07-3.76 1.59-4.93 2.77-4.93m0-2.04c-3.06 0-3.81 3.22-4.9 7.03l-10.47 36.46c-1.27 4.42 1.36 9.05 5.88 10.34l37.65 10.8c0.22 0.06 0.44 0.09 0.65 0.09 1 0 1.92-0.64 2.21-1.64l13.81-48.08c0.35-1.21-0.37-2.47-1.61-2.83l-41.54-11.9c-0.63-0.19-1.19-0.27-1.68-0.27z" fill="#424242"/></g><g opacity=".2"><path d="m64.33 101.57c0.19 0 0.38 0.02 0.59 0.07l37.25 10.7-0.31 1.08c-11.79-3.29-34.29-9.62-38.94-11.16 0.24-0.33 0.71-0.69 1.41-0.69m0-3.33c-4.52 0-6.78 5.57-3.12 6.94 4.03 1.51 42.93 12.32 42.93 12.32l1.58-5.52c0.3-1.06-0.19-2.14-1.11-2.4l-38.84-11.16c-0.5-0.12-0.98-0.18-1.44-0.18z" fill="#424242"/></g><linearGradient id="q" x1="-11.922" x2="31.523" y1="388.3" y2="388.3" gradientTransform="matrix(.9612 .2758 .3192 -1.1123 -51.562 537.71)" gradientUnits="userSpaceOnUse"><stop stop-color="#BDBDBD" offset=".0102"/><stop stop-color="#F5F5F5" offset=".9869"/></linearGradient><path d="m103.37 112.12-39.8-11.42c-1.08-0.31-2.26 0.46-2.62 1.71l-0.07 0.22c-0.36 1.25 0.23 2.53 1.31 2.84l39.81 11.41s-0.34-0.83 0.07-2.3 1.3-2.46 1.3-2.46z" fill="url(#q)"/><defs><path id="p" d="m105.71 118.1-42.18-12.1c-3.25-0.93-6.63 0.94-7.56 4.19l-11.69 40.7c-0.93 3.25 0.94 6.63 4.19 7.57l42.18 12.1 15.06-52.46z"/></defs><clipPath><use xlink:href="#p"/></clipPath><defs><path id="o" d="m105.67 118.03-44.5-12.66c-3.53-1-3.9 0.22-4.81 3.43l-12.06 42.22c-0.91 3.21 1.01 6.58 4.29 7.51l42.14 11.99 14.94-52.49z"/></defs><clipPath id="n"><use xlink:href="#o"/></clipPath><linearGradient id="m" x1="53.062" x2="57.437" y1="122.21" y2="108.46" gradientUnits="userSpaceOnUse"><stop stop-color="#212121" offset="0"/><stop stop-color="#424242" offset="1"/></linearGradient><polygon points="63.63 96.95 57.2 95.1 39.13 158.05 45.56 159.89" clip-path="url(#n)" fill="url(#m)"/></g><path d="m36.67 72.26c-5.36 0-9.71-4.67-9.71-10.41s4.36-10.41 9.71-10.41h54.65c5.36 0 9.71 4.67 9.71 10.41s-4.36 10.41-9.71 10.41h-54.65z" fill="#C48E6A"/><path d="m91.33 52.43c4.8 0 8.71 4.22 8.71 9.41s-3.91 9.41-8.71 9.41h-54.66c-4.8 0-8.71-4.22-8.71-9.41s3.91-9.41 8.71-9.41h54.66m0-2h-54.66c-5.89 0-10.71 5.14-10.71 11.41 0 6.28 4.82 11.41 10.71 11.41h54.65c5.89 0 10.71-5.14 10.71-11.41 0.01-6.27-4.81-11.41-10.7-11.41z" fill="#B07853"/><linearGradient id="l" x1="64" x2="64" y1="94.591" y2="12.825" gradientUnits="userSpaceOnUse"><stop stop-color="#CCA47A" offset="0"/><stop stop-color="#D6B088" offset=".2568"/><stop stop-color="#DEB892" offset=".5893"/><stop stop-color="#E0BB95" offset="1"/></linearGradient><path d="m64 95.27c-15.66 0-32.52-12.14-32.52-38.81 0-12.38 3.56-23.79 10.02-32.13 6.05-7.8 14.25-12.27 22.5-12.27s16.45 4.47 22.5 12.27c6.46 8.33 10.02 19.75 10.02 32.13 0 12.09-3.51 22.19-10.14 29.21-5.86 6.19-13.81 9.6-22.38 9.6z" fill="url(#l)"/><path d="m64 13.07c7.94 0 15.85 4.33 21.71 11.88 6.33 8.16 9.81 19.35 9.81 31.52 0 11.83-3.41 21.7-9.87 28.52-5.67 5.99-13.36 9.29-21.65 9.29s-15.98-3.3-21.65-9.29c-6.46-6.82-9.87-16.69-9.87-28.52 0-12.16 3.49-23.35 9.81-31.52 5.86-7.55 13.77-11.88 21.71-11.88m0-2c-17.4 0-33.52 18.61-33.52 45.39 0 26.64 16.61 39.81 33.52 39.81s33.52-13.17 33.52-39.81c0-26.78-16.12-45.39-33.52-45.39z" fill="#BA8F63"/><path d="m39.99 50.73s0.13-0.19 0.38-0.51c0.07-0.08 0.12-0.16 0.22-0.26 0.11-0.11 0.23-0.22 0.37-0.34s0.28-0.24 0.43-0.38c0.15-0.13 0.31-0.23 0.48-0.35 0.17-0.11 0.34-0.24 0.53-0.35 0.19-0.1 0.4-0.21 0.6-0.32 0.21-0.12 0.43-0.21 0.66-0.3s0.47-0.18 0.71-0.27c0.49-0.14 1-0.29 1.54-0.36 0.53-0.1 1.08-0.11 1.63-0.14 0.55 0.03 1.09 0.03 1.63 0.14 0.53 0.07 1.05 0.22 1.54 0.36 0.24 0.08 0.48 0.17 0.71 0.27 0.23 0.09 0.45 0.18 0.66 0.3 0.21 0.11 0.41 0.22 0.6 0.32 0.19 0.11 0.36 0.24 0.53 0.35 0.17 0.12 0.33 0.22 0.47 0.34s0.27 0.24 0.4 0.35c0.12 0.11 0.24 0.21 0.34 0.31s0.18 0.21 0.26 0.29c0.31 0.36 0.46 0.57 0.46 0.57 0.51 0.7 0.35 1.69-0.36 2.19-0.43 0.31-0.96 0.37-1.43 0.21l-0.29-0.1s-0.19-0.07-0.49-0.2c-0.08-0.03-0.15-0.07-0.25-0.11-0.1-0.03-0.19-0.07-0.3-0.11-0.21-0.08-0.44-0.17-0.7-0.25-0.13-0.04-0.26-0.09-0.4-0.13-0.14-0.03-0.28-0.07-0.43-0.11-0.07-0.02-0.15-0.04-0.22-0.06-0.08-0.01-0.15-0.03-0.23-0.04-0.16-0.03-0.31-0.07-0.47-0.1-0.33-0.04-0.66-0.11-1-0.12-0.34-0.04-0.69-0.03-1.03-0.05-0.35 0.02-0.7 0.01-1.03 0.05-0.34 0.02-0.67 0.09-1 0.12-0.16 0.03-0.31 0.07-0.47 0.1-0.08 0.01-0.16 0.03-0.23 0.04-0.07 0.02-0.15 0.04-0.22 0.06-0.15 0.04-0.29 0.07-0.43 0.11s-0.27 0.09-0.4 0.13-0.25 0.08-0.37 0.11c-0.1 0.04-0.2 0.07-0.29 0.1s-0.18 0.06-0.27 0.09c-0.1 0.04-0.2 0.1-0.29 0.14-0.36 0.18-0.57 0.27-0.57 0.27-0.83 0.34-1.77-0.05-2.11-0.87-0.24-0.48-0.16-1.06 0.13-1.49z" fill="#AB872F"/><ellipse cx="48.19" cy="58.81" rx="4.93" ry="5.1" fill="#5D4037"/><path d="m86.05 53.13s-0.22-0.09-0.57-0.27c-0.09-0.04-0.19-0.1-0.29-0.14-0.09-0.02-0.18-0.06-0.27-0.09s-0.19-0.07-0.29-0.1c-0.12-0.04-0.24-0.07-0.37-0.11s-0.26-0.09-0.4-0.13-0.28-0.07-0.43-0.11c-0.07-0.02-0.15-0.04-0.22-0.06-0.08-0.01-0.15-0.03-0.23-0.04-0.16-0.03-0.31-0.07-0.47-0.1-0.33-0.04-0.66-0.11-1-0.12-0.34-0.04-0.69-0.03-1.03-0.05-0.35 0.02-0.7 0.01-1.03 0.05-0.34 0.02-0.67 0.09-1 0.12-0.16 0.03-0.31 0.07-0.47 0.1-0.08 0.01-0.16 0.03-0.23 0.04-0.07 0.02-0.15 0.04-0.22 0.06-0.15 0.04-0.29 0.08-0.43 0.11-0.14 0.04-0.27 0.09-0.4 0.13-0.26 0.07-0.49 0.16-0.7 0.25-0.11 0.04-0.2 0.08-0.3 0.11-0.09 0.04-0.17 0.08-0.25 0.11-0.3 0.13-0.49 0.2-0.49 0.2l-0.28 0.1c-0.82 0.29-1.72-0.15-2-0.97-0.17-0.5-0.08-1.03 0.21-1.44 0 0 0.16-0.22 0.46-0.57 0.08-0.09 0.16-0.19 0.26-0.29s0.22-0.2 0.34-0.31 0.26-0.23 0.4-0.35 0.31-0.22 0.47-0.34c0.17-0.12 0.34-0.24 0.53-0.35 0.19-0.1 0.4-0.21 0.6-0.32 0.21-0.12 0.43-0.21 0.66-0.3s0.46-0.18 0.71-0.27c0.49-0.14 1-0.29 1.54-0.36 0.53-0.1 1.08-0.11 1.63-0.14 0.55 0.03 1.09 0.03 1.63 0.14 0.53 0.06 1.05 0.22 1.54 0.36 0.24 0.08 0.48 0.17 0.71 0.27 0.23 0.09 0.45 0.18 0.66 0.3 0.21 0.11 0.41 0.22 0.6 0.32 0.19 0.11 0.36 0.24 0.53 0.35 0.17 0.12 0.32 0.22 0.48 0.35 0.15 0.13 0.3 0.26 0.43 0.38s0.26 0.23 0.37 0.34c0.09 0.1 0.15 0.18 0.22 0.26 0.25 0.31 0.38 0.51 0.38 0.51 0.5 0.74 0.31 1.74-0.43 2.25-0.49 0.28-1.07 0.32-1.56 0.12z" fill="#AB872F"/><ellipse cx="79.33" cy="58.81" rx="4.93" ry="5.1" fill="#5D4037"/><path d="m67.86 68.06c-0.11-0.04-0.21-0.07-0.32-0.08h-7.07c-0.11 0.01-0.22 0.04-0.32 0.08-0.64 0.26-0.99 0.92-0.69 1.63s1.71 2.69 4.55 2.69 4.25-1.99 4.55-2.69c0.29-0.71-0.06-1.37-0.7-1.63z" fill="#C48E6A"/><path d="m72.53 76.14c-3.19 1.89-13.63 1.89-16.81 0-1.83-1.09-3.7 0.58-2.94 2.24 0.75 1.63 6.45 5.42 11.37 5.42s10.55-3.79 11.3-5.42c0.75-1.66-1.09-3.33-2.92-2.24z" fill="#6D4C41"/><defs><path id="j" d="m64 4.03h-0.02s-0.01 0-0.02 0c-45.43 0.24-36.12 52.14-36.12 52.14s5.1 8.99 5.1 8.81c-0.03-1.41 0.46-6.89 0.46-6.89l-2.68-2.92s3.89-25.44 6.79-24.91c4.45 0.81 26.54 2 26.57 2 7.83 0 14.92-0.36 19.37-1.17 2.9-0.53 9.64 1.7 10.68 4.45 1.33 3.54 3.13 19.71 3.13 19.71l-2.68 2.83s0.49 5.51 0.46 6.89c0 0.18 5.1-8.81 5.1-8.81s9.3-51.89-36.14-52.13z"/></defs><clipPath><use xlink:href="#j"/></clipPath><radialGradient id="i" cx="64.26" cy="4.2736" r="48.85" gradientUnits="userSpaceOnUse"><stop stop-color="#BFA055" offset="0"/><stop stop-color="#AB872F" offset="1"/></radialGradient><path d="m64.02 4.03h-0.02-0.02c-45.43 0.24-36.13 52.14-36.13 52.14s5.1 8.99 5.1 8.81c-0.16-7.25 2.74-20.09 4.8-25.55 1.04-2.76 3.9-4.36 6.79-3.83 4.46 0.8 11.55 1.8 19.38 1.8h0.08 0.08c7.83 0 14.92-1 19.37-1.81 2.9-0.53 5.76 1.08 6.79 3.83 2.06 5.47 4.96 18.3 4.8 25.55 0 0.18 5.1-8.81 5.1-8.81s9.31-51.89-36.12-52.13z" fill="url(#i)"/><path d="m64.02 4.03h-0.02-0.02c-45.43 0.24-36.13 52.14-36.13 52.14s5 8.81 5.1 8.81c-0.03-1.48 0.07-3.2 0.26-5.03-0.12-0.29-2.46-4.75-2.48-4.79-0.24-1.6-0.93-6.98-0.55-13.56 0.41-7.04 2.17-16.96 8.22-24.22 5.67-6.8 14.27-10.28 25.56-10.35h0.04c11.32 0.06 19.93 3.54 25.6 10.35 10.81 12.96 8.18 34.33 7.67 37.79-0.02 0.04-2.46 4.58-2.49 4.65 0.2 1.89 0.31 3.65 0.27 5.17 0.1 0 5.1-8.81 5.1-8.81s9.3-51.91-36.13-52.15z" fill="#8F7635"/><path d="m93.93 52.93c-0.07-1.19-0.12-1.31-1.69-1.81-1.23-0.39-7.95-0.94-13.01-0.66-0.36 0.02-0.71 0.04-1.05 0.07-4.59 0.39-10.1 2.24-14.24 2.34-1.76 0.04-9.01-1.86-14.14-2.26-0.33-0.02-0.66-0.05-1-0.06-5.07-0.26-11.82 0.34-13.05 0.73-1.57 0.5-1.62 0.63-1.68 1.82-0.07 1.19 0.13 2.2 1.06 2.51 1.27 0.41 1.28 2 2.13 6.54 0.77 4.14 2.62 7.41 10.57 7.98 0.34 0.02 0.66 0.04 0.98 0.04 7.03 0.1 9.45-4.53 10.25-6.07 1.5-2.86 1.02-6.8 4.96-6.81s3.55 3.86 5.07 6.71c0.81 1.53 3.17 6.18 10.14 6.08 0.34-0.01 0.69-0.02 1.05-0.05 7.94-0.62 9.78-3.9 10.52-8.04 0.82-4.55 0.83-6.13 2.09-6.56 0.92-0.3 1.11-1.31 1.04-2.5zm-40.56 15.24c-1.21 0.57-2.85 0.86-4.57 0.85-3.59-0.01-7.57-1.27-9.01-3.81-2.04-3.62-2.57-10.94 0.03-12.47 1.14-0.67 4.99-1.13 8.97-0.96 4.13 0.18 8.41 1.04 9.94 3.06 2.56 3.34-1.5 11.51-5.36 13.33zm34.9-3.1c-1.43 2.56-5.44 3.85-9.05 3.86-1.7 0.01-3.31-0.27-4.51-0.83-3.87-1.8-7.97-9.94-5.45-13.3 1.53-2.04 5.82-2.92 9.96-3.12 3.97-0.19 7.81 0.25 8.94 0.91 2.62 1.53 2.13 8.85 0.11 12.48z" fill="#212121" stroke="#212121" stroke-miterlimit="10" stroke-width=".5499"/></svg>
