<svg enable-background="new 0 0 128 128" viewBox="0 0 128 128" xmlns="http://www.w3.org/2000/svg" xmlns:xlink="http://www.w3.org/1999/xlink"><linearGradient id="d" x1="59.013" x2="71.669" y1="73.868" y2="118.12" gradientUnits="userSpaceOnUse"><stop stop-color="#FBC02D" offset="0"/><stop stop-color="#FFEB3B" offset="1"/></linearGradient><path d="m51.04 121.76 13.8-24.27c0.39-0.68-0.1-1.53-0.89-1.54l-26.19-0.1c-0.95 0-1.39-1.17-0.68-1.8l34.24-30.28c0.85-0.75 2.12 0.23 1.6 1.24l-10.37 20.07c-0.35 0.68 0.14 1.5 0.91 1.5l26.78 0.17c0.94 0.01 1.38 1.16 0.68 1.79l-38.3 34.49c-0.87 0.79-2.16-0.25-1.58-1.27z" fill="url(#d)"/><g opacity=".2"><path d="m65.41 73.01-5.52 10.69c-0.65 1.25-0.6 2.72 0.13 3.93s2.01 1.94 3.42 1.94l21.69 0.14-25.47 22.93 7.78-13.68c0.71-1.24 0.7-2.78-0.02-4.01-0.71-1.23-2.05-2-3.47-2.01l-21.01-0.08 22.47-19.85m6.58-9.5c-0.23 0-0.46 0.08-0.67 0.27l-34.24 30.28c-0.71 0.63-0.27 1.8 0.68 1.8l26.19 0.1c0.79 0 1.28 0.85 0.89 1.54l-13.8 24.27c-0.44 0.77 0.19 1.55 0.9 1.55 0.23 0 0.47-0.08 0.68-0.27l38.3-34.49c0.7-0.63 0.26-1.79-0.68-1.79l-26.78-0.17c-0.77-0.01-1.26-0.82-0.91-1.5l10.36-20.06c0.4-0.79-0.22-1.53-0.92-1.53z" fill="#424242"/></g><radialGradient id="c" cx="59.358" cy="-4.6553" r="110.91" gradientUnits="userSpaceOnUse"><stop stop-color="#E3F2FD" offset=".2636"/><stop stop-color="#90CAF9" offset=".9167"/></radialGradient><path d="m103.18 36.62c-0.63 0-1.24 0.05-1.85 0.12 0.48-1.61 0.74-3.32 0.74-5.08 0-9.85-7.99-17.84-17.84-17.84-4.19 0-8.04 1.46-11.09 3.88-4.09-7.78-12.25-13.08-21.65-13.08-13.51 0-24.46 10.95-24.46 24.46 0 0.49 0.02 0.97 0.05 1.45-10.19 1.24-18.07 9.91-18.07 20.43 0 11.26 9.03 20.4 20.24 20.59 3.76 6.52 11.23 10.99 19.88 11.06 8.36 0.06 15.69-4.01 19.65-10.13 3.19 3.49 7.78 5.7 12.88 5.7 7.31 0 13.57-4.5 16.18-10.88 1.67 0.6 3.47 0.95 5.34 0.95 8.74 0 15.82-7.08 15.82-15.82-0.01-8.73-7.09-15.81-15.82-15.81z" fill="url(#c)"/><g opacity=".2"><path d="m51.49 7.62c7.99 0 15.27 4.4 19 11.47 0.42 0.79 1.16 1.35 2.04 1.54 0.2 0.04 0.41 0.06 0.62 0.06 0.67 0 1.33-0.23 1.87-0.65 2.65-2.11 5.84-3.23 9.22-3.23 8.18 0 14.84 6.66 14.84 14.84 0 1.42-0.21 2.84-0.62 4.23-0.29 0.97-0.07 2.01 0.58 2.78 0.57 0.68 1.42 1.07 2.3 1.07 0.12 0 0.23-0.01 0.35-0.02 0.56-0.07 1.05-0.1 1.5-0.1 7.07 0 12.82 5.75 12.82 12.82s-5.75 12.82-12.82 12.82c-1.45 0-2.91-0.26-4.33-0.77-0.33-0.12-0.68-0.18-1.01-0.18-1.19 0-2.3 0.71-2.78 1.87-2.23 5.47-7.49 9.01-13.4 9.01-4.04 0-7.93-1.72-10.68-4.73-0.57-0.63-1.38-0.98-2.22-0.98-0.08 0-0.16 0-0.25 0.01-0.93 0.08-1.77 0.77-2.27 1.55-3.51 5.42-9.99 8.97-16.93 8.97h-0.17c-7.31 0-13.94-3.91-17.3-9.76-0.53-0.91-1.49-1.58-2.55-1.6-9.54-0.16-17.29-8.1-17.29-17.63 0-8.87 6.64-16.4 15.44-17.48 1.57-0.19 2.72-1.59 2.63-3.17-0.03-0.48-0.04-0.9-0.04-1.29-0.01-11.82 9.62-21.45 21.45-21.45m0-3c-13.51 0-24.46 10.95-24.46 24.46 0 0.49 0.02 0.98 0.05 1.46-10.18 1.24-18.07 9.91-18.07 20.42 0 11.26 9.03 20.58 20.24 20.77 3.75 6.53 11.23 11.27 19.88 11.27h0.19c8.28 0 15.51-4.26 19.45-10.33 3.2 3.5 7.78 5.61 12.89 5.61 7.31 0 13.57-4.55 16.18-10.93 1.67 0.6 3.47 0.92 5.34 0.92 8.74 0 15.82-7.09 15.82-15.83s-7.08-15.82-15.82-15.82c-0.63 0-1.24 0.04-1.85 0.11 0.48-1.61 0.74-3.32 0.74-5.08 0-9.85-7.99-17.84-17.84-17.84-4.19 0-8.04 1.46-11.09 3.88-4.09-7.77-12.25-13.07-21.65-13.07z" fill="#424242"/></g><g display="none"><g display="inline" opacity=".3"><g opacity=".6"><circle cx="64" cy="64" r="28" fill="none" opacity=".61" stroke="#000" stroke-miterlimit="10" stroke-width=".2625"/><line x1="84" x2="84" y2="128" fill="none" opacity=".61" stroke="#000" stroke-miterlimit="10" stroke-width=".25"/><line x1="44" x2="44" y2="128" fill="none" opacity=".61" stroke="#000" stroke-miterlimit="10" stroke-width=".25"/><line x1="64" x2="64" y2="128" fill="none" opacity=".61" stroke="#000" stroke-miterlimit="10" stroke-width=".25"/><line x1="128" y1="64" y2="64" fill="none" opacity=".61" stroke="#000" stroke-miterlimit="10" stroke-width=".25"/><line x1="128" y1="44" y2="44" fill="none" opacity=".61" stroke="#000" stroke-miterlimit="10" stroke-width=".25"/><line x1="128" y1="83.75" y2="83.75" fill="none" opacity=".61" stroke="#000" stroke-miterlimit="10" stroke-width=".25"/><line x1="128" y1="128" fill="none" opacity=".61" stroke="#000" stroke-miterlimit="10" stroke-width=".25"/><line x2="128" y1="128" fill="none" opacity=".61" stroke="#000" stroke-miterlimit="10" stroke-width=".25"/><g opacity=".61"><path d="m64 4.26c32.94 0 59.74 26.8 59.74 59.74s-26.8 59.74-59.74 59.74-59.74-26.8-59.74-59.74 26.8-59.74 59.74-59.74m0-0.26c-33.14 0-60 26.86-60 60s26.86 60 60 60 60-26.86 60-60-26.86-60-60-60z"/></g><path d="m107.97 115.97h-87.94c-4.42 0-8.03-3.61-8.03-8.03v-87.91c0-4.42 3.61-8.03 8.03-8.03h87.94c4.42 0 8.03 3.61 8.03 8.03v87.91c0 4.42-3.61 8.03-8.03 8.03z" fill="none" opacity=".61" stroke="#000" stroke-miterlimit="10" stroke-width=".2578"/><path d="m99.75 124h-71.75c-4.4 0-8-3.6-8-8v-104c0-4.4 3.6-8 8-8h71.75c4.4 0 8 3.6 8 8v104c0 4.4-3.6 8-8 8z" fill="none" opacity=".61" stroke="#000" stroke-miterlimit="10" stroke-width=".2567"/><path d="M113.77,108H14.23 C8.6,108,4,103.4,4,97.77V30.28c0-5.63,4.6-10.23,10.23-10.23h99.54c5.63,0,10.23,4.6,10.23,10.23v67.48 C124,103.4,119.4,108,113.77,108z" fill="none" opacity=".61" stroke="#000" stroke-miterlimit="10" stroke-width=".2627"/></g><g opacity=".2"><defs><rect id="a" width="128" height="128" opacity=".2"/></defs><clipPath id="b"><use xlink:href="#a"/></clipPath><g clip-path="url(#b)"><g fill="none" stroke="#000" stroke-miterlimit="10" stroke-width=".25"><line x1="-28" x2="-28" y1="160" y2="-32"/><line x1="-24" x2="-24" y1="160" y2="-32"/><line x1="-20" x2="-20" y1="160" y2="-32"/><line x1="-16" x2="-16" y1="160" y2="-32"/><line x1="-12" x2="-12" y1="160" y2="-32"/><line x1="-8" x2="-8" y1="160" y2="-32"/><line x1="-4" x2="-4" y1="160" y2="-32"/><line y1="160" y2="-32"/><line x1="4" x2="4" y1="160" y2="-32"/><line x1="8" x2="8" y1="160" y2="-32"/><line x1="12" x2="12" y1="160" y2="-32"/><line x1="16" x2="16" y1="160" y2="-32"/><line x1="20" x2="20" y1="160" y2="-32"/><line x1="24" x2="24" y1="160" y2="-32"/><line x1="28" x2="28" y1="160" y2="-32"/><line x1="32" x2="32" y1="160" y2="-32"/><line x1="36" x2="36" y1="160" y2="-32"/><line x1="40" x2="40" y1="160" y2="-32"/><line x1="44" x2="44" y1="160" y2="-32"/><line x1="48" x2="48" y1="160" y2="-32"/><line x1="52" x2="52" y1="160" y2="-32"/><line x1="56" x2="56" y1="160" y2="-32"/><line x1="60" x2="60" y1="160" y2="-32"/><line x1="64" x2="64" y1="160" y2="-32"/><line x1="68" x2="68" y1="160" y2="-32"/><line x1="72" x2="72" y1="160" y2="-32"/><line x1="76" x2="76" y1="160" y2="-32"/><line x1="80" x2="80" y1="160" y2="-32"/><line x1="84" x2="84" y1="160" y2="-32"/><line x1="88" x2="88" y1="160" y2="-32"/><line x1="92" x2="92" y1="160" y2="-32"/><line x1="96" x2="96" y1="160" y2="-32"/><line x1="100" x2="100" y1="160" y2="-32"/><line x1="104" x2="104" y1="160" y2="-32"/><line x1="108" x2="108" y1="160" y2="-32"/><line x1="112" x2="112" y1="160" y2="-32"/><line x1="116" x2="116" y1="160" y2="-32"/><line x1="120" x2="120" y1="160" y2="-32"/><line x1="124" x2="124" y1="160" y2="-32"/><line x1="128" x2="128" y1="160" y2="-32"/><line x1="132" x2="132" y1="160" y2="-32"/><line x1="136" x2="136" y1="160" y2="-32"/><line x1="137" x2="137" y1="166.05" y2="-25.95"/><line x1="144" x2="144" y1="160" y2="-32"/><line x1="148" x2="148" y1="160" y2="-32"/><line x1="152" x2="152" y1="160" y2="-32"/><line x1="156" x2="156" y1="160" y2="-32"/></g><g fill="none" stroke="#000" stroke-miterlimit="10" stroke-width=".25"><line x1="-32" x2="160" y1="-28" y2="-28"/><line x1="-32" x2="160" y1="-24" y2="-24"/><line x1="-32" x2="160" y1="-20" y2="-20"/><line x1="-32" x2="160" y1="-16" y2="-16"/><line x1="-32" x2="160" y1="-12" y2="-12"/><line x1="-32" x2="160" y1="-8" y2="-8"/><line x1="-32" x2="160" y1="-4" y2="-4"/><line x1="-32" x2="160"/><line x1="-32" x2="160" y1="4" y2="4"/><line x1="-32" x2="160" y1="8" y2="8"/><line x1="-32" x2="160" y1="12" y2="12"/><line x1="-32" x2="160" y1="16" y2="16"/><line x1="-32" x2="160" y1="20" y2="20"/><line x1="-32" x2="160" y1="24" y2="24"/><line x1="-32" x2="160" y1="28" y2="28"/><line x1="-32" x2="160" y1="32" y2="32"/><line x1="-32" x2="160" y1="36" y2="36"/><line x1="-32" x2="160" y1="40" y2="40"/><line x1="-32" x2="160" y1="44" y2="44"/><line x1="-32" x2="160" y1="48" y2="48"/><line x1="-32" x2="160" y1="52" y2="52"/><line x1="-32" x2="160" y1="56" y2="56"/><line x1="-32" x2="160" y1="60" y2="60"/><line x1="-32" x2="160" y1="64" y2="64"/><line x1="-32" x2="160" y1="68" y2="68"/><line x1="-32" x2="160" y1="72" y2="72"/><line x1="-32" x2="160" y1="76" y2="76"/><line x1="-32" x2="160" y1="80" y2="80"/><line x1="-32" x2="160" y1="84" y2="84"/><line x1="-32" x2="160" y1="88" y2="88"/><line x1="-32" x2="160" y1="92" y2="92"/><line x1="-32" x2="160" y1="96" y2="96"/><line x1="-32" x2="160" y1="100" y2="100"/><line x1="-32" x2="160" y1="104" y2="104"/><line x1="-32" x2="160" y1="108" y2="108"/><line x1="-32" x2="160" y1="112" y2="112"/><line x1="-32" x2="160" y1="116" y2="116"/><line x1="-32" x2="160" y1="120" y2="120"/><line x1="-32" x2="160" y1="124" y2="124"/><line x1="-32" x2="160" y1="128" y2="128"/><line x1="-32" x2="160" y1="132" y2="132"/><line x1="-32" x2="160" y1="136" y2="136"/><line x1="-32" x2="160" y1="140" y2="140"/><line x1="-32" x2="160" y1="144" y2="144"/><line x1="-32" x2="160" y1="148" y2="148"/><line x1="-32" x2="160" y1="152" y2="152"/><line x1="-32" x2="160" y1="156" y2="156"/></g><path d="m159.75-31.75v191.5h-191.5v-191.5h191.5m0.25-0.25h-192v192h192v-192z"/></g></g><g fill="#F44336"><rect width="4" height="128" opacity=".3"/><rect x="124" width="4" height="128" opacity=".3"/><rect transform="matrix(-1.837e-16 1 -1 -1.837e-16 66 -62)" x="62" y="-58" width="4" height="120" opacity=".3"/><rect transform="matrix(-1.837e-16 1 -1 -1.837e-16 190 62)" x="62" y="66" width="4" height="120" opacity=".3"/></g></g></g></svg>
