<svg enable-background="new 0 0 128 128" viewBox="0 0 128 128" xmlns="http://www.w3.org/2000/svg" xmlns:xlink="http://www.w3.org/1999/xlink"><linearGradient id="j" x1="63.999" x2="63.999" y1="11.93" y2="67.27" gradientTransform="matrix(.7071 -.7071 .7071 .7071 -26.51 64)" gradientUnits="userSpaceOnUse"><stop stop-color="#795649" offset=".1693"/><stop stop-color="#5D4137" offset=".7938"/></linearGradient><path d="m121.59 82.61-38.91 38.76c-2.35 2.34-6.17 2.34-8.52 0l-68.4-68.13c-2.35-2.34-2.35-6.14 0-8.49l38.92-38.75c2.35-2.34 6.17-2.34 8.52 0l68.4 68.12c2.35 2.34 2.35 6.14-0.01 8.49z" fill="url(#j)"/><g opacity=".2"><path d="m48.94 7.24c0.81 0 1.57 0.31 2.14 0.88l68.4 68.12c0.57 0.57 0.88 1.32 0.88 2.12s-0.31 1.55-0.88 2.12l-38.91 38.76c-0.57 0.57-1.33 0.88-2.14 0.88s-1.57-0.31-2.14-0.88l-68.41-68.13c-0.57-0.56-0.88-1.31-0.88-2.11s0.31-1.55 0.88-2.12l38.91-38.76c0.58-0.56 1.34-0.88 2.15-0.88m0-3c-1.54 0-3.08 0.59-4.26 1.76l-38.92 38.75c-2.35 2.34-2.35 6.14 0 8.49l68.4 68.12c1.18 1.17 2.72 1.76 4.26 1.76s3.08-0.59 4.26-1.76l38.91-38.76c2.35-2.34 2.35-6.14 0-8.49l-68.39-68.11c-1.18-1.17-2.72-1.76-4.26-1.76z" fill="#434343"/></g><linearGradient id="f" x1="71.76" x2="103.77" y1="71.684" y2="103.69" gradientUnits="userSpaceOnUse"><stop stop-color="#C62828" offset=".0267"/><stop stop-color="#E53A35" offset=".7214"/></linearGradient><path d="m122.24 81.97-40.2 40.03c-2.35 2.34-6.17 2.34-8.52 0l-29.94-29.82c-2.35-2.34-2.35-6.14 0-8.49l40.19-40.03c2.35-2.34 6.17-2.34 8.52 0l29.94 29.82c2.36 2.35 2.36 6.15 0.01 8.49z" fill="url(#f)"/><polygon points="28.75 36.52 28.74 31.4 10.55 49.52 28.74 67.63 28.75 62.52 15.7 49.52" fill="#8D6E63"/><polygon points="28.75 36.52 41.81 49.52 28.75 62.52 28.76 67.63 46.95 49.52 28.76 31.4" fill="#6D4D42"/><polygon points="28.75 36.52 15.7 49.52 28.75 62.52 41.81 49.52" fill="#795649"/><polygon points="49.73 15.62 49.72 10.5 31.53 28.62 49.72 46.74 49.73 41.62 36.68 28.62" fill="#8D6E63"/><polygon points="49.73 15.62 62.79 28.62 49.73 41.62 49.74 46.74 67.93 28.62 49.74 10.5" fill="#6D4D42"/><polygon points="49.73 15.62 36.68 28.62 49.73 41.62 62.79 28.62" fill="#795649"/><polygon points="50.33 58.01 50.33 52.89 32.13 71.01 50.33 89.13 50.33 84.01 37.28 71.01" fill="#795649"/><polygon points="50.33 58.01 63.39 71.01 50.33 84.01 50.34 89.13 68.53 71.01 50.34 52.89" fill="#5D4137"/><polygon points="50.33 58.01 37.28 71.01 50.33 84.01 63.39 71.01" fill="#6D4D42"/><polygon points="71.31 37.11 71.3 32 53.11 50.12 71.3 68.23 71.31 63.12 58.26 50.12" fill="#795649"/><polygon points="71.31 37.11 84.37 50.12 71.31 63.12 71.32 68.23 89.51 50.12 71.32 32" fill="#5D4137"/><polygon points="71.31 37.11 58.26 50.12 71.31 63.12 84.37 50.12" fill="#6D4D42"/><linearGradient id="e" x1="63.296" x2="61.637" y1="86.509" y2="94.369" gradientTransform="matrix(.7071 -.7071 .7071 .7071 -26.51 64)" gradientUnits="userSpaceOnUse"><stop stop-color="#434343" offset=".3"/><stop stop-color="#434343" stop-opacity="0" offset=".7938"/></linearGradient><path d="m109.79 68.59-53.82 36.15-11.4-11.35c-1.57-1.57-1.45-4.23 0.27-5.94l42.59-42.42c1.72-1.71 4.39-1.83 5.97-0.27l17.37 17.3c1.81 1.81 1.33 4.98-0.98 6.53z" fill="url(#e)" opacity=".4"/><g opacity=".2"><path d="m88.04 44.91c0.81 0 1.57 0.31 2.14 0.88l29.94 29.82c0.57 0.57 0.88 1.32 0.88 2.12s-0.31 1.55-0.88 2.12l-40.19 40.03c-0.57 0.57-1.33 0.88-2.14 0.88s-1.57-0.31-2.14-0.88l-29.95-29.82c-0.57-0.57-0.88-1.32-0.88-2.12s0.31-1.55 0.88-2.12l40.19-40.03c0.58-0.57 1.34-0.88 2.15-0.88m0-3c-1.54 0-3.08 0.59-4.26 1.76l-40.2 40.03c-2.35 2.34-2.35 6.14 0 8.49l29.94 29.81c1.18 1.17 2.72 1.76 4.26 1.76s3.08-0.59 4.26-1.76l40.19-40.03c2.35-2.34 2.35-6.14 0-8.49l-29.93-29.82c-1.18-1.17-2.72-1.75-4.26-1.75z" fill="#434343"/></g><linearGradient id="d" x1="59.073" x2="81.167" y1="59.162" y2="81.256" gradientUnits="userSpaceOnUse"><stop stop-color="#ECEFF0" offset=".1693"/><stop stop-color="#D0D8DC" offset=".7938"/></linearGradient><path d="m106.57 62.92-56.84 38.54-11.8-11.75c-1.63-1.62-1.47-4.41 0.35-6.23l45.15-44.97c1.82-1.82 4.62-1.98 6.25-0.35l17.99 17.91c1.88 1.87 1.35 5.19-1.1 6.85z" fill="url(#d)"/><g opacity=".2"><path d="m86.89 40.04c0.2 0 0.48 0.04 0.68 0.25l17.99 17.91c0.23 0.23 0.26 0.56 0.24 0.8-0.05 0.55-0.39 1.09-0.91 1.44l-54.8 37.15-10.04-10c-0.16-0.16-0.24-0.38-0.24-0.66 0-0.46 0.22-0.93 0.6-1.31l45.15-44.97c0.38-0.39 0.86-0.61 1.33-0.61m0-3c-1.21 0-2.47 0.5-3.45 1.47l-45.16 44.97c-1.82 1.82-1.98 4.61-0.35 6.23l11.8 11.75 56.84-38.54c2.45-1.66 2.98-4.98 1.11-6.85l-17.99-17.91c-0.75-0.75-1.76-1.12-2.8-1.12z" fill="#434343"/></g><g display="none"><g display="inline"><g opacity=".6"><circle cx="-78" cy="64" r="28" fill="none" opacity=".61" stroke="#010101" stroke-miterlimit="10" stroke-width=".2625"/><line x1="-58" x2="-58" y2="128" fill="none" opacity=".61" stroke="#010101" stroke-miterlimit="10" stroke-width=".25"/><line x1="-98" x2="-98" y2="128" fill="none" opacity=".61" stroke="#010101" stroke-miterlimit="10" stroke-width=".25"/><line x1="-78" x2="-78" y2="128" fill="none" opacity=".61" stroke="#010101" stroke-miterlimit="10" stroke-width=".25"/><line x1="-14" x2="-142" y1="64" y2="64" fill="none" opacity=".61" stroke="#010101" stroke-miterlimit="10" stroke-width=".25"/><line x1="-14" x2="-142" y1="44" y2="44" fill="none" opacity=".61" stroke="#010101" stroke-miterlimit="10" stroke-width=".25"/><line x1="-14" x2="-142" y1="83.75" y2="83.75" fill="none" opacity=".61" stroke="#010101" stroke-miterlimit="10" stroke-width=".25"/><line x1="-14" x2="-142" y1="128" fill="none" opacity=".61" stroke="#010101" stroke-miterlimit="10" stroke-width=".25"/><line x1="-142" x2="-14" y1="128" fill="none" opacity=".61" stroke="#010101" stroke-miterlimit="10" stroke-width=".25"/><g opacity=".61"><path d="m-78 4.26c32.94 0 59.74 26.8 59.74 59.74s-26.8 59.74-59.74 59.74-59.74-26.8-59.74-59.74 26.8-59.74 59.74-59.74m0-0.26c-33.14 0-60 26.86-60 60s26.86 60 60 60 60-26.86 60-60-26.86-60-60-60z" fill="#010101"/></g><path d="m-34.03 115.97h-87.94c-4.42 0-8.03-3.61-8.03-8.03v-87.91c0-4.42 3.61-8.03 8.03-8.03h87.94c4.42 0 8.03 3.61 8.03 8.03v87.91c0 4.42-3.61 8.03-8.03 8.03z" fill="none" opacity=".61" stroke="#010101" stroke-miterlimit="10" stroke-width=".2578"/><path d="m-42 124h-72c-4.4 0-8-3.6-8-8v-104c0-4.4 3.6-8 8-8h72c4.4 0 8 3.6 8 8v104c0 4.4-3.6 8-8 8z" fill="none" opacity=".61" stroke="#010101" stroke-miterlimit="10" stroke-width=".2628"/><path d="m-28.23 108h-99.54c-5.63 0-10.23-4.6-10.23-10.23v-67.49c0-5.63 4.6-10.23 10.23-10.23h99.54c5.63 0 10.23 4.6 10.23 10.23v67.48c0 5.64-4.6 10.24-10.23 10.24z" fill="none" opacity=".61" stroke="#010101" stroke-miterlimit="10" stroke-width=".2627"/></g><g opacity=".2"><defs><rect id="i" x="-142" width="128" height="128" opacity=".2"/></defs><clipPath id="c"><use xlink:href="#i"/></clipPath><g clip-path="url(#c)"><g fill="none" stroke="#010101" stroke-miterlimit="10" stroke-width=".25"><line x1="-170" x2="-170" y1="160" y2="-32"/><line x1="-166" x2="-166" y1="160" y2="-32"/><line x1="-162" x2="-162" y1="160" y2="-32"/><line x1="-158" x2="-158" y1="160" y2="-32"/><line x1="-154" x2="-154" y1="160" y2="-32"/><line x1="-150" x2="-150" y1="160" y2="-32"/><line x1="-146" x2="-146" y1="160" y2="-32"/><line x1="-142" x2="-142" y1="160" y2="-32"/><line x1="-138" x2="-138" y1="160" y2="-32"/><line x1="-134" x2="-134" y1="160" y2="-32"/><line x1="-130" x2="-130" y1="160" y2="-32"/><line x1="-126" x2="-126" y1="160" y2="-32"/><line x1="-122" x2="-122" y1="160" y2="-32"/><line x1="-118" x2="-118" y1="160" y2="-32"/><line x1="-114" x2="-114" y1="160" y2="-32"/><line x1="-110" x2="-110" y1="160" y2="-32"/><line x1="-106" x2="-106" y1="160" y2="-32"/><line x1="-102" x2="-102" y1="160" y2="-32"/><line x1="-98" x2="-98" y1="160" y2="-32"/><line x1="-94" x2="-94" y1="160" y2="-32"/><line x1="-90" x2="-90" y1="160" y2="-32"/><line x1="-86" x2="-86" y1="160" y2="-32"/><line x1="-82" x2="-82" y1="160" y2="-32"/><line x1="-78" x2="-78" y1="160" y2="-32"/><line x1="-74" x2="-74" y1="160" y2="-32"/><line x1="-70" x2="-70" y1="160" y2="-32"/><line x1="-66" x2="-66" y1="160" y2="-32"/><line x1="-62" x2="-62" y1="160" y2="-32"/><line x1="-58" x2="-58" y1="160" y2="-32"/><line x1="-54" x2="-54" y1="160" y2="-32"/><line x1="-50" x2="-50" y1="160" y2="-32"/><line x1="-46" x2="-46" y1="160" y2="-32"/><line x1="-42" x2="-42" y1="160" y2="-32"/><line x1="-38" x2="-38" y1="160" y2="-32"/><line x1="-34" x2="-34" y1="160" y2="-32"/><line x1="-30" x2="-30" y1="160" y2="-32"/><line x1="-26" x2="-26" y1="160" y2="-32"/><line x1="-22" x2="-22" y1="160" y2="-32"/><line x1="-18" x2="-18" y1="160" y2="-32"/><line x1="-14" x2="-14" y1="160" y2="-32"/><line x1="-10" x2="-10" y1="160" y2="-32"/><line x1="-6" x2="-6" y1="160" y2="-32"/><line x1="-5" x2="-5" y1="166.05" y2="-25.95"/><line x1="2" x2="2" y1="160" y2="-32"/><line x1="6" x2="6" y1="160" y2="-32"/><line x1="10" x2="10" y1="160" y2="-32"/><line x1="14" x2="14" y1="160" y2="-32"/></g><g fill="none" stroke="#010101" stroke-miterlimit="10" stroke-width=".25"><line x1="-174" x2="18" y1="-28" y2="-28"/><line x1="-174" x2="18" y1="-24" y2="-24"/><line x1="-174" x2="18" y1="-20" y2="-20"/><line x1="-174" x2="18" y1="-16" y2="-16"/><line x1="-174" x2="18" y1="-12" y2="-12"/><line x1="-174" x2="18" y1="-8" y2="-8"/><line x1="-174" x2="18" y1="-4" y2="-4"/><line x1="-174" x2="18"/><line x1="-174" x2="18" y1="4" y2="4"/><line x1="-174" x2="18" y1="8" y2="8"/><line x1="-174" x2="18" y1="12" y2="12"/><line x1="-174" x2="18" y1="16" y2="16"/><line x1="-174" x2="18" y1="20" y2="20"/><line x1="-174" x2="18" y1="24" y2="24"/><line x1="-174" x2="18" y1="28" y2="28"/><line x1="-174" x2="18" y1="32" y2="32"/><line x1="-174" x2="18" y1="36" y2="36"/><line x1="-174" x2="18" y1="40" y2="40"/><line x1="-174" x2="18" y1="44" y2="44"/><line x1="-174" x2="18" y1="48" y2="48"/><line x1="-174" x2="18" y1="52" y2="52"/><line x1="-174" x2="18" y1="56" y2="56"/><line x1="-174" x2="18" y1="60" y2="60"/><line x1="-174" x2="18" y1="64" y2="64"/><line x1="-174" x2="18" y1="68" y2="68"/><line x1="-174" x2="18" y1="72" y2="72"/><line x1="-174" x2="18" y1="76" y2="76"/><line x1="-174" x2="18" y1="80" y2="80"/><line x1="-174" x2="18" y1="84" y2="84"/><line x1="-174" x2="18" y1="88" y2="88"/><line x1="-174" x2="18" y1="92" y2="92"/><line x1="-174" x2="18" y1="96" y2="96"/><line x1="-174" x2="18" y1="100" y2="100"/><line x1="-174" x2="18" y1="104" y2="104"/><line x1="-174" x2="18" y1="108" y2="108"/><line x1="-174" x2="18" y1="112" y2="112"/><line x1="-174" x2="18" y1="116" y2="116"/><line x1="-174" x2="18" y1="120" y2="120"/><line x1="-174" x2="18" y1="124" y2="124"/><line x1="-174" x2="18" y1="128" y2="128"/><line x1="-174" x2="18" y1="132" y2="132"/><line x1="-174" x2="18" y1="136" y2="136"/><line x1="-174" x2="18" y1="140" y2="140"/><line x1="-174" x2="18" y1="144" y2="144"/><line x1="-174" x2="18" y1="148" y2="148"/><line x1="-174" x2="18" y1="152" y2="152"/><line x1="-174" x2="18" y1="156" y2="156"/></g><path d="m17.75-31.75v191.5h-191.5v-191.5h191.5m0.25-0.25h-192v192h192v-192z" fill="#010101"/></g></g><g fill="#EF4438"><rect x="-142" width="4" height="128" opacity=".3"/><rect x="-18" width="4" height="128" opacity=".3"/><rect transform="matrix(-1.837e-16 1 -1 -1.837e-16 -76 80)" x="-80" y="-58" width="4" height="120" opacity=".3"/><rect transform="matrix(-1.837e-16 1 -1 -1.837e-16 48 204)" x="-80" y="66" width="4" height="120" opacity=".3"/></g></g><g display="inline"><g opacity=".6"><circle cx="64" cy="64" r="28" fill="none" opacity=".61" stroke="#010101" stroke-miterlimit="10" stroke-width=".2625"/><line x1="84" x2="84" y2="128" fill="none" opacity=".61" stroke="#010101" stroke-miterlimit="10" stroke-width=".25"/><line x1="44" x2="44" y2="128" fill="none" opacity=".61" stroke="#010101" stroke-miterlimit="10" stroke-width=".25"/><line x1="64" x2="64" y2="128" fill="none" opacity=".61" stroke="#010101" stroke-miterlimit="10" stroke-width=".25"/><line x1="128" y1="64" y2="64" fill="none" opacity=".61" stroke="#010101" stroke-miterlimit="10" stroke-width=".25"/><line x1="128" y1="44" y2="44" fill="none" opacity=".61" stroke="#010101" stroke-miterlimit="10" stroke-width=".25"/><line x1="128" y1="83.75" y2="83.75" fill="none" opacity=".61" stroke="#010101" stroke-miterlimit="10" stroke-width=".25"/><line x1="128" y1="128" fill="none" opacity=".61" stroke="#010101" stroke-miterlimit="10" stroke-width=".25"/><line x2="128" y1="128" fill="none" opacity=".61" stroke="#010101" stroke-miterlimit="10" stroke-width=".25"/><g opacity=".61"><path d="M64,4.26c32.94,0,59.74,26.8,59.74,59.74S96.94,123.74,64,123.74S4.26,96.94,4.26,64 S31.06,4.26,64,4.26 M64,4C30.86,4,4,30.86,4,64s26.86,60,60,60s60-26.86,60-60S97.14,4,64,4L64,4z" fill="#010101"/></g><path d="m107.97 115.97h-87.94c-4.42 0-8.03-3.61-8.03-8.03v-87.91c0-4.42 3.61-8.03 8.03-8.03h87.94c4.42 0 8.03 3.61 8.03 8.03v87.91c0 4.42-3.61 8.03-8.03 8.03z" fill="none" opacity=".61" stroke="#010101" stroke-miterlimit="10" stroke-width=".2578"/><path d="m100 124h-72c-4.4 0-8-3.6-8-8v-104c0-4.4 3.6-8 8-8h72c4.4 0 8 3.6 8 8v104c0 4.4-3.6 8-8 8z" fill="none" opacity=".61" stroke="#010101" stroke-miterlimit="10" stroke-width=".2628"/><path d="M113.77,108H14.23 C8.6,108,4,103.4,4,97.77V30.28c0-5.63,4.6-10.23,10.23-10.23h99.54c5.63,0,10.23,4.6,10.23,10.23v67.48 C124,103.4,119.4,108,113.77,108z" fill="none" opacity=".61" stroke="#010101" stroke-miterlimit="10" stroke-width=".2627"/></g><g opacity=".2"><defs><rect id="g" width="128" height="128" opacity=".2"/></defs><clipPath id="b"><use xlink:href="#g"/></clipPath><g clip-path="url(#b)"><g fill="none" stroke="#010101" stroke-miterlimit="10" stroke-width=".25"><line x1="-28" x2="-28" y1="160" y2="-32"/><line x1="-24" x2="-24" y1="160" y2="-32"/><line x1="-20" x2="-20" y1="160" y2="-32"/><line x1="-16" x2="-16" y1="160" y2="-32"/><line x1="-12" x2="-12" y1="160" y2="-32"/><line x1="-8" x2="-8" y1="160" y2="-32"/><line x1="-4" x2="-4" y1="160" y2="-32"/><line y1="160" y2="-32"/><line x1="4" x2="4" y1="160" y2="-32"/><line x1="8" x2="8" y1="160" y2="-32"/><line x1="12" x2="12" y1="160" y2="-32"/><line x1="16" x2="16" y1="160" y2="-32"/><line x1="20" x2="20" y1="160" y2="-32"/><line x1="24" x2="24" y1="160" y2="-32"/><line x1="28" x2="28" y1="160" y2="-32"/><line x1="32" x2="32" y1="160" y2="-32"/><line x1="36" x2="36" y1="160" y2="-32"/><line x1="40" x2="40" y1="160" y2="-32"/><line x1="44" x2="44" y1="160" y2="-32"/><line x1="48" x2="48" y1="160" y2="-32"/><line x1="52" x2="52" y1="160" y2="-32"/><line x1="56" x2="56" y1="160" y2="-32"/><line x1="60" x2="60" y1="160" y2="-32"/><line x1="64" x2="64" y1="160" y2="-32"/><line x1="68" x2="68" y1="160" y2="-32"/><line x1="72" x2="72" y1="160" y2="-32"/><line x1="76" x2="76" y1="160" y2="-32"/><line x1="80" x2="80" y1="160" y2="-32"/><line x1="84" x2="84" y1="160" y2="-32"/><line x1="88" x2="88" y1="160" y2="-32"/><line x1="92" x2="92" y1="160" y2="-32"/><line x1="96" x2="96" y1="160" y2="-32"/><line x1="100" x2="100" y1="160" y2="-32"/><line x1="104" x2="104" y1="160" y2="-32"/><line x1="108" x2="108" y1="160" y2="-32"/><line x1="112" x2="112" y1="160" y2="-32"/><line x1="116" x2="116" y1="160" y2="-32"/><line x1="120" x2="120" y1="160" y2="-32"/><line x1="124" x2="124" y1="160" y2="-32"/><line x1="128" x2="128" y1="160" y2="-32"/><line x1="132" x2="132" y1="160" y2="-32"/><line x1="136" x2="136" y1="160" y2="-32"/><line x1="137" x2="137" y1="166.05" y2="-25.95"/><line x1="144" x2="144" y1="160" y2="-32"/><line x1="148" x2="148" y1="160" y2="-32"/><line x1="152" x2="152" y1="160" y2="-32"/><line x1="156" x2="156" y1="160" y2="-32"/></g><g fill="none" stroke="#010101" stroke-miterlimit="10" stroke-width=".25"><line x1="-32" x2="160" y1="-28" y2="-28"/><line x1="-32" x2="160" y1="-24" y2="-24"/><line x1="-32" x2="160" y1="-20" y2="-20"/><line x1="-32" x2="160" y1="-16" y2="-16"/><line x1="-32" x2="160" y1="-12" y2="-12"/><line x1="-32" x2="160" y1="-8" y2="-8"/><line x1="-32" x2="160" y1="-4" y2="-4"/><line x1="-32" x2="160"/><line x1="-32" x2="160" y1="4" y2="4"/><line x1="-32" x2="160" y1="8" y2="8"/><line x1="-32" x2="160" y1="12" y2="12"/><line x1="-32" x2="160" y1="16" y2="16"/><line x1="-32" x2="160" y1="20" y2="20"/><line x1="-32" x2="160" y1="24" y2="24"/><line x1="-32" x2="160" y1="28" y2="28"/><line x1="-32" x2="160" y1="32" y2="32"/><line x1="-32" x2="160" y1="36" y2="36"/><line x1="-32" x2="160" y1="40" y2="40"/><line x1="-32" x2="160" y1="44" y2="44"/><line x1="-32" x2="160" y1="48" y2="48"/><line x1="-32" x2="160" y1="52" y2="52"/><line x1="-32" x2="160" y1="56" y2="56"/><line x1="-32" x2="160" y1="60" y2="60"/><line x1="-32" x2="160" y1="64" y2="64"/><line x1="-32" x2="160" y1="68" y2="68"/><line x1="-32" x2="160" y1="72" y2="72"/><line x1="-32" x2="160" y1="76" y2="76"/><line x1="-32" x2="160" y1="80" y2="80"/><line x1="-32" x2="160" y1="84" y2="84"/><line x1="-32" x2="160" y1="88" y2="88"/><line x1="-32" x2="160" y1="92" y2="92"/><line x1="-32" x2="160" y1="96" y2="96"/><line x1="-32" x2="160" y1="100" y2="100"/><line x1="-32" x2="160" y1="104" y2="104"/><line x1="-32" x2="160" y1="108" y2="108"/><line x1="-32" x2="160" y1="112" y2="112"/><line x1="-32" x2="160" y1="116" y2="116"/><line x1="-32" x2="160" y1="120" y2="120"/><line x1="-32" x2="160" y1="124" y2="124"/><line x1="-32" x2="160" y1="128" y2="128"/><line x1="-32" x2="160" y1="132" y2="132"/><line x1="-32" x2="160" y1="136" y2="136"/><line x1="-32" x2="160" y1="140" y2="140"/><line x1="-32" x2="160" y1="144" y2="144"/><line x1="-32" x2="160" y1="148" y2="148"/><line x1="-32" x2="160" y1="152" y2="152"/><line x1="-32" x2="160" y1="156" y2="156"/></g><path d="m159.75-31.75v191.5h-191.5v-191.5h191.5m0.25-0.25h-192v192h192v-192z" fill="#010101"/></g></g><g fill="#EF4438"><rect width="4" height="128" opacity=".3"/><rect x="124" width="4" height="128" opacity=".3"/><rect transform="matrix(-1.837e-16 1 -1 -1.837e-16 66 -62)" x="62" y="-58" width="4" height="120" opacity=".3"/><rect transform="matrix(-1.837e-16 1 -1 -1.837e-16 190 62)" x="62" y="66" width="4" height="120" opacity=".3"/></g></g><g display="inline"><g opacity=".6"><circle cx="204.67" cy="64" r="28" fill="none" opacity=".61" stroke="#010101" stroke-miterlimit="10" stroke-width=".2625"/><line x1="224.67" x2="224.67" y2="128" fill="none" opacity=".61" stroke="#010101" stroke-miterlimit="10" stroke-width=".25"/><line x1="184.67" x2="184.67" y2="128" fill="none" opacity=".61" stroke="#010101" stroke-miterlimit="10" stroke-width=".25"/><line x1="204.67" x2="204.67" y2="128" fill="none" opacity=".61" stroke="#010101" stroke-miterlimit="10" stroke-width=".25"/><line x1="268.67" x2="140.67" y1="64" y2="64" fill="none" opacity=".61" stroke="#010101" stroke-miterlimit="10" stroke-width=".25"/><line x1="268.67" x2="140.67" y1="44" y2="44" fill="none" opacity=".61" stroke="#010101" stroke-miterlimit="10" stroke-width=".25"/><line x1="268.67" x2="140.67" y1="83.75" y2="83.75" fill="none" opacity=".61" stroke="#010101" stroke-miterlimit="10" stroke-width=".25"/><line x1="268.67" x2="140.67" y1="128" fill="none" opacity=".61" stroke="#010101" stroke-miterlimit="10" stroke-width=".25"/><line x1="140.67" x2="268.67" y1="128" fill="none" opacity=".61" stroke="#010101" stroke-miterlimit="10" stroke-width=".25"/><g opacity=".61"><path d="m204.67 4.26c32.94 0 59.74 26.8 59.74 59.74s-26.8 59.74-59.74 59.74-59.75-26.8-59.75-59.74 26.8-59.74 59.75-59.74m0-0.26c-33.14 0-60 26.86-60 60s26.86 60 60 60 60-26.86 60-60-26.87-60-60-60z" fill="#010101"/></g><path d="m248.64 115.97h-87.94c-4.42 0-8.03-3.61-8.03-8.03v-87.91c0-4.42 3.61-8.03 8.03-8.03h87.94c4.42 0 8.03 3.61 8.03 8.03v87.91c0 4.42-3.62 8.03-8.03 8.03z" fill="none" opacity=".61" stroke="#010101" stroke-miterlimit="10" stroke-width=".2578"/><path d="m240.67 124h-72c-4.4 0-8-3.6-8-8v-104c0-4.4 3.6-8 8-8h72c4.4 0 8 3.6 8 8v104c0 4.4-3.6 8-8 8z" fill="none" opacity=".61" stroke="#010101" stroke-miterlimit="10" stroke-width=".2628"/><path d="m254.43 108h-99.53c-5.63 0-10.23-4.6-10.23-10.23v-67.49c0-5.63 4.6-10.23 10.23-10.23h99.54c5.63 0 10.23 4.6 10.23 10.23v67.48c0 5.64-4.61 10.24-10.24 10.24z" fill="none" opacity=".61" stroke="#010101" stroke-miterlimit="10" stroke-width=".2627"/></g><g opacity=".2"><defs><rect id="h" x="140.67" width="128" height="128" opacity=".2"/></defs><clipPath id="a"><use xlink:href="#h"/></clipPath><g clip-path="url(#a)"><g fill="none" stroke="#010101" stroke-miterlimit="10" stroke-width=".25"><line x1="112.67" x2="112.67" y1="160" y2="-32"/><line x1="116.67" x2="116.67" y1="160" y2="-32"/><line x1="120.67" x2="120.67" y1="160" y2="-32"/><line x1="124.67" x2="124.67" y1="160" y2="-32"/><line x1="128.67" x2="128.67" y1="160" y2="-32"/><line x1="132.67" x2="132.67" y1="160" y2="-32"/><line x1="136.67" x2="136.67" y1="160" y2="-32"/><line x1="140.67" x2="140.67" y1="160" y2="-32"/><line x1="144.67" x2="144.67" y1="160" y2="-32"/><line x1="148.67" x2="148.67" y1="160" y2="-32"/><line x1="152.67" x2="152.67" y1="160" y2="-32"/><line x1="156.67" x2="156.67" y1="160" y2="-32"/><line x1="160.67" x2="160.67" y1="160" y2="-32"/><line x1="164.67" x2="164.67" y1="160" y2="-32"/><line x1="168.67" x2="168.67" y1="160" y2="-32"/><line x1="172.67" x2="172.67" y1="160" y2="-32"/><line x1="176.67" x2="176.67" y1="160" y2="-32"/><line x1="180.67" x2="180.67" y1="160" y2="-32"/><line x1="184.67" x2="184.67" y1="160" y2="-32"/><line x1="188.67" x2="188.67" y1="160" y2="-32"/><line x1="192.67" x2="192.67" y1="160" y2="-32"/><line x1="196.67" x2="196.67" y1="160" y2="-32"/><line x1="200.67" x2="200.67" y1="160" y2="-32"/><line x1="204.67" x2="204.67" y1="160" y2="-32"/><line x1="208.67" x2="208.67" y1="160" y2="-32"/><line x1="212.67" x2="212.67" y1="160" y2="-32"/><line x1="216.67" x2="216.67" y1="160" y2="-32"/><line x1="220.67" x2="220.67" y1="160" y2="-32"/><line x1="224.67" x2="224.67" y1="160" y2="-32"/><line x1="228.67" x2="228.67" y1="160" y2="-32"/><line x1="232.67" x2="232.67" y1="160" y2="-32"/><line x1="236.67" x2="236.67" y1="160" y2="-32"/><line x1="240.67" x2="240.67" y1="160" y2="-32"/><line x1="244.67" x2="244.67" y1="160" y2="-32"/><line x1="248.67" x2="248.67" y1="160" y2="-32"/><line x1="252.67" x2="252.67" y1="160" y2="-32"/><line x1="256.67" x2="256.67" y1="160" y2="-32"/><line x1="260.67" x2="260.67" y1="160" y2="-32"/><line x1="264.67" x2="264.67" y1="160" y2="-32"/><line x1="268.67" x2="268.67" y1="160" y2="-32"/><line x1="272.67" x2="272.67" y1="160" y2="-32"/><line x1="276.67" x2="276.67" y1="160" y2="-32"/><line x1="277.67" x2="277.67" y1="166.05" y2="-25.95"/><line x1="284.67" x2="284.67" y1="160" y2="-32"/><line x1="288.67" x2="288.67" y1="160" y2="-32"/><line x1="292.67" x2="292.67" y1="160" y2="-32"/><line x1="296.67" x2="296.67" y1="160" y2="-32"/></g><g fill="none" stroke="#010101" stroke-miterlimit="10" stroke-width=".25"><line x1="108.67" x2="300.67" y1="-28" y2="-28"/><line x1="108.67" x2="300.67" y1="-24" y2="-24"/><line x1="108.67" x2="300.67" y1="-20" y2="-20"/><line x1="108.67" x2="300.67" y1="-16" y2="-16"/><line x1="108.67" x2="300.67" y1="-12" y2="-12"/><line x1="108.67" x2="300.67" y1="-8" y2="-8"/><line x1="108.67" x2="300.67" y1="-4" y2="-4"/><line x1="108.67" x2="300.67"/><line x1="108.67" x2="300.67" y1="4" y2="4"/><line x1="108.67" x2="300.67" y1="8" y2="8"/><line x1="108.67" x2="300.67" y1="12" y2="12"/><line x1="108.67" x2="300.67" y1="16" y2="16"/><line x1="108.67" x2="300.67" y1="20" y2="20"/><line x1="108.67" x2="300.67" y1="24" y2="24"/><line x1="108.67" x2="300.67" y1="28" y2="28"/><line x1="108.67" x2="300.67" y1="32" y2="32"/><line x1="108.67" x2="300.67" y1="36" y2="36"/><line x1="108.67" x2="300.67" y1="40" y2="40"/><line x1="108.67" x2="300.67" y1="44" y2="44"/><line x1="108.67" x2="300.67" y1="48" y2="48"/><line x1="108.67" x2="300.67" y1="52" y2="52"/><line x1="108.67" x2="300.67" y1="56" y2="56"/><line x1="108.67" x2="300.67" y1="60" y2="60"/><line x1="108.67" x2="300.67" y1="64" y2="64"/><line x1="108.67" x2="300.67" y1="68" y2="68"/><line x1="108.67" x2="300.67" y1="72" y2="72"/><line x1="108.67" x2="300.67" y1="76" y2="76"/><line x1="108.67" x2="300.67" y1="80" y2="80"/><line x1="108.67" x2="300.67" y1="84" y2="84"/><line x1="108.67" x2="300.67" y1="88" y2="88"/><line x1="108.67" x2="300.67" y1="92" y2="92"/><line x1="108.67" x2="300.67" y1="96" y2="96"/><line x1="108.67" x2="300.67" y1="100" y2="100"/><line x1="108.67" x2="300.67" y1="104" y2="104"/><line x1="108.67" x2="300.67" y1="108" y2="108"/><line x1="108.67" x2="300.67" y1="112" y2="112"/><line x1="108.67" x2="300.67" y1="116" y2="116"/><line x1="108.67" x2="300.67" y1="120" y2="120"/><line x1="108.67" x2="300.67" y1="124" y2="124"/><line x1="108.67" x2="300.67" y1="128" y2="128"/><line x1="108.67" x2="300.67" y1="132" y2="132"/><line x1="108.67" x2="300.67" y1="136" y2="136"/><line x1="108.67" x2="300.67" y1="140" y2="140"/><line x1="108.67" x2="300.67" y1="144" y2="144"/><line x1="108.67" x2="300.67" y1="148" y2="148"/><line x1="108.67" x2="300.67" y1="152" y2="152"/><line x1="108.67" x2="300.67" y1="156" y2="156"/></g><path d="m300.42-31.75v191.5h-191.5v-191.5h191.5m0.25-0.25h-192v192h192v-192z" fill="#010101"/></g></g><g fill="#EF4438"><rect x="140.67" width="4" height="128" opacity=".3"/><rect x="264.67" width="4" height="128" opacity=".3"/><rect transform="matrix(-1.837e-16 1 -1 -1.837e-16 206.67 -202.67)" x="202.67" y="-58" width="4" height="120" opacity=".3"/><rect transform="matrix(-1.837e-16 1 -1 -1.837e-16 330.67 -78.667)" x="202.67" y="66" width="4" height="120" opacity=".3"/></g></g></g></svg>
