<svg xmlns="http://www.w3.org/2000/svg" width="128" height="128"><ellipse cx="-80.371" cy="45.945" rx="12.13" ry="9.33" transform="rotate(-75.375)" fill="#fff"/><path d="M113.32 85.99c3 6 1.69 12.72-2.93 15.03-4.6 2.3-10.77-.69-13.77-6.68s-1.69-12.72 2.92-15.03c4.61-2.31 10.78.68 13.78 6.68z" fill="#fff"/><path fill="#2f2f2f" d="M30.58 61.74h68.3v18.5h-68.3z"/><path d="M125.09 80.12l-7.62-1.38a38.34 38.34 0 0 0-.71-5.67l8.46-1.26a2.144 2.144 0 0 0 1.8-2.43c-.18-1.17-1.28-1.95-2.43-1.8l-8.9 1.33c-1.21-3.9-2.98-7.71-5.28-11.26 1.04-10.02 3.05-37.17-5.09-42.64-6.5-4.36-21.96 11.82-26.93 17.63-1.15 1.34-2.2 2.55-3.16 3.65-3.48-.53-7.02-.83-10.55-.82-3.53-.01-7.06.29-10.55.82-.96-1.1-2-2.31-3.16-3.65-4.98-5.81-20.44-21.99-26.94-17.63-8.15 5.47-6.13 32.64-5.09 42.65A46.09 46.09 0 0 0 13.6 69.1L3.41 67.6c-1.16-.15-2.25.63-2.42 1.8-.17 1.17.63 2.25 1.8 2.43l9.78 1.45c-.31 1.59-.53 3.17-.64 4.76-.01.15-.01.31-.02.46l-8.98 1.62a2.134 2.134 0 0 0-1.72 2.48 2.123 2.123 0 0 0 2.1 1.75c.12 0 .25-.01.38-.03l8.12-1.47c.03 2.17.2 4.33.55 6.45l-5.7 1.81a2.138 2.138 0 0 0-1.39 2.68 2.14 2.14 0 0 0 2.69 1.39l5.33-1.69c1.72 6.09 5.14 11.71 11.17 16.21 6.05 4.51 13.57 7.57 21.33 9.23 2.94.63 10.56 2.1 18.55 2.1s16.35-1.47 19.3-2.1c7.75-1.66 15.28-4.72 21.33-9.23 5.9-4.4 9.29-9.87 11.05-15.81l4.09 1.3a2.136 2.136 0 0 0 2.68-1.39c.36-1.12-.26-2.33-1.39-2.68l-4.42-1.4c.37-2.17.57-4.39.61-6.62l6.77 1.23c.13.02.26.03.39.03 1.01 0 1.91-.73 2.1-1.75.17-1.17-.6-2.28-1.76-2.49zm-95.01 3.94c-.25.57-.57 1.17-.75 1.77-.56 1.9-.81 4.67-1.48 7.13-.77 2.81-2.11 5.24-5.12 5.6-4.28.52-6.47-4.02-5.6-7.68.72-3.02 2.65-5.5 5.2-7.21 1.57-1.05 3.53-2.34 5.42-2.7.77-.14 1.92-.45 2.66-.03 1.02.61 0 2.36-.33 3.12zm2.28-7.78c-.9-.76-1.02-2.09-.27-2.99.19-.22 4.59-5.39 12.19-4.09 7.59 1.29 10.05 7.62 10.15 7.89a2.147 2.147 0 0 1-2 2.89c-.86 0-1.66-.52-1.99-1.38-.08-.21-1.78-4.32-6.87-5.19-5.12-.87-8.08 2.48-8.21 2.63-.77.89-2.11 1-3 .24zm61.6-.2c-.11-.13-3.05-3.52-8.18-2.67-5.12.84-6.83 4.98-6.9 5.15-.33.83-1.14 1.35-1.99 1.35-.25 0-.52-.05-.77-.15a2.129 2.129 0 0 1-1.22-2.74c.1-.27 2.59-6.58 10.2-7.83 7.61-1.23 11.98 3.95 12.16 4.17.75.91.61 2.25-.29 3-.91.76-2.26.63-3.01-.28zm11.81 22.48c-3.02-.36-4.35-2.79-5.12-5.6-.68-2.47-.92-5.23-1.49-7.13-.18-.61-.5-1.2-.75-1.77-.33-.76-1.35-2.51-.31-3.11.73-.42 1.89-.1 2.66.03 1.89.35 3.85 1.64 5.42 2.7 2.55 1.72 4.48 4.19 5.2 7.21.86 3.66-1.32 8.19-5.61 7.67z" fill="#aba497"/><path d="M68.664 84.813c.181 2.88-4.664 6.255-4.664 6.255s-4.845-3.375-4.664-6.255c.182-2.88 3.704-2.728 4.664-1.364.96-1.364 4.482-1.516 4.664 1.364z" fill="#f3aed7" stroke="#f0a0af" stroke-width="1.1" stroke-linecap="round" stroke-linejoin="round"/><path d="M35.94 90.38c-.04 0-.27.01-.32.01-1.51.08-2.42.79-2.91 1.38-.8.95-1.11 2.22-.92 3.77.19 1.63.91 3.38 1.32 4.27 4.5 10.09 17.8 14.61 28.98 14.61 9.58-.03 16.78-1.34 22.7-4.13 3.69-1.74 6.71-4.35 8.73-7.57 1.16-1.87 1.99-4.1 2.56-6.83.33-1.58.1-2.84-.67-3.78-.66-.81-1.66-1.26-2.8-1.26-1.53 0-3.15.77-4.71 1.52-.33.16-.63.3-.92.43-2.59 1.16-5.85 1.85-8.72 1.85-1.96 0-3.71-.31-5.08-.91-.45-.19-.89-.4-1.33-.62-.82-.39-1.67-.8-2.61-1.14l-.27-.1c-.89-.32-2-.72-3.15-.87-.43-.06-.83-.08-1.24-.08-1.53 0-3.08.38-4.71 1.15-.44.21-.86.42-1.28.63-1.6.8-2.97 1.49-4.68 1.77-1.18.2-2.27.3-3.22.3-.58 0-1.12-.04-1.6-.11-1.42-.22-2.83-.61-4.32-1.01l-.34-.09c-1.27-.34-2.44-.66-3.2-1.11-.23-.14-.44-.27-.65-.4-1.1-.72-2.61-1.68-4.64-1.68z" fill="#2f2f2f"/><path d="M35.94 91.23c.049 0-.058.002-.127.004-.07.003-.114.006-.194.006h.045c-1.263.067-1.925.622-2.299 1.073l-.002.002-.002.002c-.63.747-.898 1.736-.728 3.119v.006c.143 1.227.647 2.607 1.039 3.527A50.172 15.406 0 0 0 64 102.127a50.172 15.406 0 0 0 30.34-3.152c.352-.995.66-2.066.908-3.258.295-1.414.09-2.353-.496-3.069v-.002c-.492-.603-1.226-.947-2.143-.947-1.245 0-2.782.687-4.34 1.436-.334.162-.64.307-.94.441-2.72 1.218-6.063 1.924-9.07 1.924-2.044 0-3.896-.316-5.41-.977l-.001-.002a23.59 23.59 0 0 1-1.364-.634c-.822-.391-1.644-.786-2.533-1.108h-.002l-.265-.097c-.891-.32-1.946-.695-2.973-.828l-.004-.002h-.004a7.92 7.92 0 0 0-1.123-.073c-1.388 0-2.807.342-4.346 1.069l-.002.002c-.429.204-.84.41-1.261.62-1.6.8-3.066 1.544-4.924 1.848-1.217.206-2.35.31-3.358.31-.618 0-1.197-.04-1.722-.116l-.004-.002h-.004c-1.485-.23-2.922-.629-4.406-1.028l-.342-.09-.002-.001c-1.273-.341-2.475-.645-3.412-1.2l-.004-.002-.004-.002c-.233-.142-.446-.274-.656-.404l-.01-.006-.008-.006c-1.091-.714-2.413-1.54-4.176-1.54z" fill="#fff" stroke-width=".78" stroke-linejoin="round"/><path d="M25.353 52.043S14.066-8.044 47.951 38.677c0 0-14.232 5.357-22.598 13.366zM103.72 50.578s9.968-53.896-19.955-11.989c0 0 12.569 4.805 19.955 11.989z" fill="#f0c4b1" fill-rule="evenodd" stroke-width="3.78" stroke-linecap="round" stroke-linejoin="round"/><path d="M54.14 36.29s1.907 20.197 4.817-.581M75.23 36.29s-3.382 19.114-4.508-.55M62.616 35.493s2.2 31.92 4.687.021" fill="#1a1a1a" fill-rule="evenodd" stroke-width="3.78" stroke-linecap="round" stroke-linejoin="round"/></svg>