<?xml version="1.0" encoding="utf-8"?>
<!-- Generator: Adobe Illustrator 24.0.3, SVG Export Plug-In . SVG Version: 6.00 Build 0)  -->
<svg version="1.1" id="Layer_1" xmlns="http://www.w3.org/2000/svg" xmlns:xlink="http://www.w3.org/1999/xlink" x="0px" y="0px"
	 viewBox="0 0 128 128" style="enable-background:new 0 0 128 128;" xml:space="preserve">
<radialGradient id="SVGID_1_" cx="64.1405" cy="778.3057" r="57.0167" gradientTransform="matrix(1 0 0 1 0 -714)" gradientUnits="userSpaceOnUse">
	<stop  offset="2.299800e-04" style="stop-color:#A1A1A1"/>
	<stop  offset="0.0629" style="stop-color:#AAAAAA"/>
	<stop  offset="0.3053" style="stop-color:#C8C8C8"/>
	<stop  offset="0.5444" style="stop-color:#DDDDDD"/>
	<stop  offset="0.7769" style="stop-color:#EAEAEA"/>
	<stop  offset="0.9949" style="stop-color:#EEEEEE"/>
</radialGradient>
<path style="fill:url(#SVGID_1_);" d="M117.9,108.1c0,0-58.1-53.3-59-54.2c-3.2-3.2-2.7-6.9-3.1-10.4c-0.3-3,1.8-12.5-9.2-23.5
	C35.6,8.9,15.2,4,9.5,9.7S8.7,35.8,19.7,46.8s20.7,9,23.6,9.3c3.6,0.4,7.1-0.5,10.3,2.7c0.9,0.9,54.3,59.3,54.3,59.3
	c2.7,2.8,9.1,4.6,11.9,1.8S120.7,110.8,117.9,108.1z"/>
<g style="opacity:0.2;">
	<path style="fill:#424242;" d="M17.5,9.3c7.6,0,20,4.2,27.8,12c8.8,8.8,8.6,16.3,8.6,20.3c0,0.8,0,1.5,0,2c0.1,0.6,0.1,1.3,0.1,1.9
		c0.2,3.1,0.4,6.6,3.5,9.7c0.9,0.9,53,48.7,59,54.3c1.5,1.5,2.7,4.2,2.7,6.4c0,0.8-0.1,1.8-0.8,2.5c-0.7,0.7-1.8,0.8-2.6,0.8
		c-2.2,0-5-1.1-6.4-2.6c-5.6-6-53.4-58.3-54.4-59.3c-3-3-6.3-3.1-9.2-3.2c-0.8,0-1.6,0-2.3-0.1c-0.3,0-0.7,0-1.2,0
		c-0.2,0-0.5,0-0.8,0s-0.6,0-1,0c-5,0-11.8-1-19.5-8.7c-11-11-14.5-30-10.2-34.3C12.1,9.9,14.4,9.3,17.5,9.3 M17.5,7.3
		c-3.5,0-6.3,0.8-7.9,2.4C4,15.3,8.8,35.8,19.8,46.8c8.7,8.7,16.5,9.2,20.9,9.2c0.7,0,1.2,0,1.7,0c0.4,0,0.7,0,1,0
		c3.6,0.4,7.1-0.5,10.3,2.7C54.6,59.6,108,118,108,118c1.8,1.8,5,3.2,7.9,3.2c1.6,0,3-0.4,4-1.4c2.8-2.8,0.9-9-1.9-11.7
		c0,0-58.1-53.3-59-54.2c-3.2-3.2-2.7-6.9-3.1-10.4c-0.3-3,1.8-12.5-9.2-23.5C38.8,12,26.1,7.3,17.5,7.3z"/>
</g>
</svg>
