<svg enable-background="new 0 0 128 128" viewBox="0 0 128 128" xmlns="http://www.w3.org/2000/svg"><ellipse transform="matrix(.9557 -.2945 .2945 .9557 -16.68 21.467)" cx="62.94" cy="66.11" rx="53.62" ry="23.82" fill="#BF4900"/><ellipse transform="matrix(.9557 -.2945 .2945 .9557 -16.657 21.457)" cx="62.91" cy="66.04" rx="53.59" ry="23.8" fill="#C04900"/><ellipse transform="matrix(.9557 -.2945 .2945 .9557 -16.635 21.446)" cx="62.89" cy="65.96" rx="53.57" ry="23.79" fill="#C14A00"/><ellipse transform="matrix(.9557 -.2945 .2945 .9557 -16.613 21.435)" cx="62.87" cy="65.88" rx="53.54" ry="23.78" fill="#C24A00"/><ellipse transform="matrix(.9557 -.2945 .2945 .9557 -16.59 21.424)" cx="62.84" cy="65.8" rx="53.51" ry="23.77" fill="#C34B00"/><ellipse transform="matrix(.9557 -.2945 .2945 .9557 -16.568 21.414)" cx="62.82" cy="65.72" rx="53.49" ry="23.76" fill="#C44B00"/><ellipse transform="matrix(.9557 -.2945 .2945 .9557 -16.546 21.403)" cx="62.79" cy="65.64" rx="53.46" ry="23.74" fill="#C54B00"/><ellipse transform="matrix(.9557 -.2945 .2945 .9557 -16.524 21.392)" cx="62.77" cy="65.56" rx="53.43" ry="23.73" fill="#C64C00"/><ellipse transform="matrix(.9557 -.2945 .2945 .9557 -16.501 21.382)" cx="62.74" cy="65.48" rx="53.4" ry="23.72" fill="#C74C00"/><ellipse transform="matrix(.9557 -.2945 .2945 .9557 -16.479 21.371)" cx="62.72" cy="65.4" rx="53.38" ry="23.71" fill="#C84C00"/><ellipse transform="matrix(.9557 -.2945 .2945 .9557 -16.457 21.36)" cx="62.69" cy="65.32" rx="53.35" ry="23.7" fill="#C94D00"/><ellipse transform="matrix(.9557 -.2945 .2945 .9557 -16.435 21.35)" cx="62.67" cy="65.24" rx="53.32" ry="23.68" fill="#CA4D00"/><ellipse transform="matrix(.9557 -.2945 .2945 .9557 -16.412 21.339)" cx="62.65" cy="65.16" rx="53.29" ry="23.67" fill="#CB4E00"/><ellipse transform="matrix(.9557 -.2945 .2945 .9557 -16.39 21.328)" cx="62.62" cy="65.08" rx="53.27" ry="23.66" fill="#CC4E00"/><ellipse transform="matrix(.9557 -.2945 .2945 .9557 -16.368 21.317)" cx="62.6" cy="65" rx="53.24" ry="23.65" fill="#CD4E00"/><ellipse transform="matrix(.9557 -.2945 .2945 .9557 -16.346 21.307)" cx="62.57" cy="64.93" rx="53.21" ry="23.63" fill="#CE4F00"/><ellipse transform="matrix(.9557 -.2945 .2945 .9557 -16.323 21.296)" cx="62.55" cy="64.85" rx="53.18" ry="23.62" fill="#CF4F00"/><ellipse transform="matrix(.9557 -.2945 .2945 .9557 -16.301 21.285)" cx="62.52" cy="64.77" rx="53.16" ry="23.61" fill="#D05000"/><ellipse transform="matrix(.9557 -.2945 .2945 .9557 -16.279 21.274)" cx="62.5" cy="64.69" rx="53.13" ry="23.6" fill="#D15000"/><ellipse transform="matrix(.9557 -.2945 .2945 .9557 -16.256 21.264)" cx="62.47" cy="64.61" rx="53.1" ry="23.59" fill="#D25000"/><ellipse transform="matrix(.9557 -.2945 .2945 .9557 -16.234 21.253)" cx="62.45" cy="64.53" rx="53.07" ry="23.57" fill="#D35100"/><ellipse transform="matrix(.9557 -.2945 .2945 .9557 -16.212 21.242)" cx="62.43" cy="64.45" rx="53.05" ry="23.56" fill="#D45100"/><ellipse transform="matrix(.9557 -.2945 .2945 .9557 -16.19 21.232)" cx="62.4" cy="64.37" rx="53.02" ry="23.55" fill="#D55100"/><ellipse transform="matrix(.9557 -.2945 .2945 .9557 -16.167 21.221)" cx="62.38" cy="64.29" rx="52.99" ry="23.54" fill="#D65200"/><ellipse transform="matrix(.9557 -.2945 .2945 .9557 -16.145 21.21)" cx="62.35" cy="64.21" rx="52.97" ry="23.53" fill="#D75200"/><ellipse transform="matrix(.9557 -.2945 .2945 .9557 -16.123 21.2)" cx="62.33" cy="64.13" rx="52.94" ry="23.51" fill="#D85300"/><ellipse transform="matrix(.9557 -.2945 .2945 .9557 -16.101 21.189)" cx="62.3" cy="64.05" rx="52.91" ry="23.5" fill="#D95300"/><ellipse transform="matrix(.9557 -.2945 .2945 .9557 -16.078 21.178)" cx="62.28" cy="63.97" rx="52.88" ry="23.49" fill="#DA5300"/><ellipse transform="matrix(.9557 -.2945 .2945 .9557 -16.056 21.167)" cx="62.25" cy="63.89" rx="52.86" ry="23.48" fill="#DB5400"/><ellipse transform="matrix(.9557 -.2945 .2945 .9557 -16.034 21.157)" cx="62.23" cy="63.82" rx="52.83" ry="23.46" fill="#DC5400"/><ellipse transform="matrix(.9557 -.2945 .2945 .9557 -16.012 21.146)" cx="62.21" cy="63.74" rx="52.8" ry="23.45" fill="#d50"/><ellipse transform="matrix(.9557 -.2945 .2945 .9557 -15.989 21.135)" cx="62.18" cy="63.66" rx="52.77" ry="23.44" fill="#DE5500"/><ellipse transform="matrix(.9557 -.2945 .2945 .9557 -15.967 21.124)" cx="62.16" cy="63.58" rx="52.75" ry="23.43" fill="#DF5500"/><ellipse transform="matrix(.9557 -.2945 .2945 .9557 -15.945 21.114)" cx="62.13" cy="63.5" rx="52.72" ry="23.42" fill="#DF5600"/><ellipse transform="matrix(.9557 -.2945 .2945 .9557 -15.922 21.103)" cx="62.11" cy="63.42" rx="52.69" ry="23.4" fill="#E05600"/><ellipse transform="matrix(.9557 -.2945 .2945 .9557 -15.9 21.092)" cx="62.08" cy="63.34" rx="52.66" ry="23.39" fill="#E15600"/><ellipse transform="matrix(.9557 -.2945 .2945 .9557 -15.878 21.082)" cx="62.06" cy="63.26" rx="52.64" ry="23.38" fill="#E25700"/><ellipse transform="matrix(.9557 -.2945 .2945 .9557 -15.856 21.071)" cx="62.03" cy="63.18" rx="52.61" ry="23.37" fill="#E35700"/><ellipse transform="matrix(.9557 -.2945 .2945 .9557 -15.833 21.06)" cx="62.01" cy="63.1" rx="52.58" ry="23.36" fill="#E45800"/><ellipse transform="matrix(.9557 -.2945 .2945 .9557 -15.811 21.05)" cx="61.99" cy="63.02" rx="52.56" ry="23.34" fill="#E55800"/><ellipse transform="matrix(.9557 -.2945 .2945 .9557 -15.789 21.039)" cx="61.96" cy="62.94" rx="52.53" ry="23.33" fill="#E65800"/><ellipse transform="matrix(.9557 -.2945 .2945 .9557 -15.767 21.028)" cx="61.94" cy="62.86" rx="52.5" ry="23.32" fill="#E75900"/><ellipse transform="matrix(.9557 -.2945 .2945 .9557 -15.744 21.017)" cx="61.91" cy="62.78" rx="52.47" ry="23.31" fill="#E85900"/><ellipse transform="matrix(.9557 -.2945 .2945 .9557 -15.722 21.007)" cx="61.89" cy="62.71" rx="52.45" ry="23.29" fill="#E95A00"/><ellipse transform="matrix(.9557 -.2945 .2945 .9557 -15.7 20.996)" cx="61.86" cy="62.63" rx="52.42" ry="23.28" fill="#EA5A00"/><ellipse transform="matrix(.9557 -.2945 .2945 .9557 -15.678 20.985)" cx="61.84" cy="62.55" rx="52.39" ry="23.27" fill="#EB5A00"/><ellipse transform="matrix(.9557 -.2945 .2945 .9557 -15.655 20.975)" cx="61.81" cy="62.47" rx="52.36" ry="23.26" fill="#EC5B00"/><ellipse transform="matrix(.9557 -.2945 .2945 .9557 -15.633 20.964)" cx="61.79" cy="62.39" rx="52.34" ry="23.25" fill="#ED5B00"/><ellipse transform="matrix(.9557 -.2945 .2945 .9557 -15.611 20.953)" cx="61.77" cy="62.31" rx="52.31" ry="23.23" fill="#EE5B00"/><ellipse transform="matrix(.9557 -.2945 .2945 .9557 -15.588 20.942)" cx="61.74" cy="62.23" rx="52.28" ry="23.22" fill="#EF5C00"/><ellipse transform="matrix(.9557 -.2945 .2945 .9557 -15.566 20.932)" cx="61.72" cy="62.15" rx="52.25" ry="23.21" fill="#F05C00"/><ellipse transform="matrix(.9557 -.2945 .2945 .9557 -15.544 20.921)" cx="61.69" cy="62.07" rx="52.23" ry="23.2" fill="#F15D00"/><ellipse transform="matrix(.9557 -.2945 .2945 .9557 -15.522 20.91)" cx="61.67" cy="61.99" rx="52.2" ry="23.19" fill="#F25D00"/><ellipse transform="matrix(.9557 -.2945 .2945 .9557 -15.499 20.9)" cx="61.64" cy="61.91" rx="52.17" ry="23.17" fill="#F35D00"/><ellipse transform="matrix(.9557 -.2945 .2945 .9557 -15.477 20.889)" cx="61.62" cy="61.83" rx="52.15" ry="23.16" fill="#F45E00"/><ellipse transform="matrix(.9557 -.2945 .2945 .9557 -15.455 20.878)" cx="61.59" cy="61.75" rx="52.12" ry="23.15" fill="#F55E00"/><ellipse transform="matrix(.9557 -.2945 .2945 .9557 -15.433 20.868)" cx="61.57" cy="61.67" rx="52.09" ry="23.14" fill="#F65F00"/><ellipse transform="matrix(.9557 -.2945 .2945 .9557 -15.41 20.857)" cx="61.55" cy="61.6" rx="52.06" ry="23.12" fill="#F75F00"/><ellipse transform="matrix(.9557 -.2945 .2945 .9557 -15.388 20.846)" cx="61.52" cy="61.52" rx="52.04" ry="23.11" fill="#F85F00"/><ellipse transform="matrix(.9557 -.2945 .2945 .9557 -15.366 20.835)" cx="61.5" cy="61.44" rx="52.01" ry="23.1" fill="#F96000"/><ellipse transform="matrix(.9557 -.2945 .2945 .9557 -15.344 20.825)" cx="61.47" cy="61.36" rx="51.98" ry="23.09" fill="#FA6000"/><ellipse transform="matrix(.9557 -.2945 .2945 .9557 -15.321 20.814)" cx="61.45" cy="61.28" rx="51.95" ry="23.08" fill="#FB6000"/><ellipse transform="matrix(.9557 -.2945 .2945 .9557 -15.299 20.803)" cx="61.42" cy="61.2" rx="51.93" ry="23.06" fill="#FC6100"/><ellipse transform="matrix(.9557 -.2945 .2945 .9557 -15.277 20.792)" cx="61.4" cy="61.12" rx="51.9" ry="23.05" fill="#FD6100"/><ellipse transform="matrix(.9557 -.2945 .2945 .9557 -15.254 20.782)" cx="61.37" cy="61.04" rx="51.87" ry="23.04" fill="#FE6200"/><ellipse transform="matrix(.9557 -.2945 .2945 .9557 -15.232 20.771)" cx="61.35" cy="60.96" rx="51.84" ry="23.03" fill="#FF6200"/><g opacity=".2"><path d="m84.21 37.37c5.53 0 10.28 0.68 14.54 2.09 3.32 1.09 5.64 2.41 7.1 4.01 1.98 2.18 4.38 5.05 5.28 7.89 0.23 0.71 0.35 1.4 0.36 2.03 0.03 1.79-0.47 3.73-1.48 5.75-3.26 6.49-9.8 11.35-14.44 14.44-7.54 5.02-16.49 9.14-26.6 12.24-4.52 1.39-9.08 2.49-13.55 3.29-5.87 1.04-11.09 1.55-15.96 1.55-4.4 0-8.54-0.43-12.29-1.29-8.13-1.86-12.48-5.51-12.92-10.86-0.32-3.88 0.03-7.19 1.01-9.58 2.62-6.38 8.98-11.29 13.54-14.43 7.43-5.12 16.38-9.3 26.59-12.43 5.63-1.73 11.27-2.99 16.76-3.76 4.45-0.64 8.4-0.94 12.06-0.94m0-3.13c-4.22 0-8.43 0.39-12.49 0.96-5.84 0.82-11.61 2.14-17.25 3.87-9.66 2.96-19.11 7.11-27.45 12.85-5.81 4-11.92 9.14-14.66 15.82-1.38 3.37-1.53 7.45-1.24 11.03 0.68 8.26 8.04 11.98 15.35 13.65 4.24 0.97 8.6 1.37 12.99 1.37 5.55 0 11.13-0.64 16.5-1.6 4.7-0.84 9.35-1.98 13.92-3.38 9.63-2.95 19.03-7.04 27.42-12.63 6.02-4.01 12.2-9.06 15.5-15.63 1.13-2.25 1.86-4.68 1.81-7.21-0.02-0.99-0.2-1.96-0.5-2.92-1.08-3.4-3.69-6.57-5.95-9.05-2.18-2.4-5.4-3.88-8.43-4.87-4.95-1.65-10.23-2.26-15.52-2.26z" fill="#424242"/></g><ellipse transform="matrix(.9557 -.2945 .2945 .9557 -14.585 20.622)" cx="61.18" cy="58.74" rx="37.74" ry="15.31" fill="#E05600"/><ellipse transform="matrix(.9557 -.2945 .2945 .9557 -14.762 20.156)" cx="59.54" cy="59.09" rx="30.88" ry="11.86" fill="#FF7017"/><path d="m22.51 78.91c0.97 0.92 2.04 1.45 3.19 1.87 1.12 0.44 2.32 0.7 3.5 0.96 2.37 0.5 4.79 0.77 7.27 0.98 2.46 0.2 4.93 0.29 7.44 0.29 2.51 0.05 5.06-0.09 7.69 0.08-2.41 1.04-4.9 1.79-7.48 2.28-2.58 0.47-5.24 0.62-7.88 0.45-2.62-0.17-5.3-0.59-7.81-1.62-1.26-0.5-2.47-1.16-3.55-2.01-0.55-0.42-1.03-0.93-1.47-1.46-0.41-0.56-0.75-1.17-0.9-1.82z" fill="#FFBA8F"/><path d="m89.25 14.75c4.78 0.32 9.54 1.22 14.13 2.81 4.57 1.6 9.02 3.88 12.77 7.2 1.84 1.68 3.52 3.58 4.85 5.71 1.3 2.15 2.33 4.48 2.87 6.92 0.58 2.43 0.7 4.93 0.52 7.37-0.21 2.44-0.79 4.8-1.57 7.07 0.13-2.4 0.3-4.76 0.09-7.08-0.16-2.31-0.59-4.58-1.3-6.73-1.44-4.29-4.07-8.06-7.46-11.03-1.65-1.55-3.55-2.83-5.5-4.03-1.93-1.26-4.05-2.21-6.14-3.24-4.24-1.93-8.72-3.44-13.26-4.97z" fill="#BFBFBF"/><path d="m4.75 41.23c-0.95 0.31-1.21-0.89-0.54-1.37 1-0.72 2.49-1.12 3.62-1.6 2.46-1.06 4.94-2.07 7.43-3.05 4.9-1.93 9.85-3.75 14.84-5.46 6.63-2.27 13.36-4.36 20.22-5.8 11.31-2.37 22.91-3.84 34.47-2.6 6.07 0.65 21.14 2.32 30.09 13.78 4.17 5.33 4.95 12.97 3.62 19.38-0.24-5.15-0.96-9.74-3.23-14.18-6.6-12.96-28.59-15.51-38.34-15.5-8.88 0.01-17.77 1.16-26.48 2.88-5.85 1.15-11.68 2.49-17.4 4.17-9.53 2.78-18.87 6.23-28.3 9.35z" fill="#7E7D7D"/><path d="m65.37 104.29c0.78-0.12 1.03 1.01 0.28 1.26-8.1 2.62-17.06 3.08-25.38 2.25-8.99-0.9-18.22-3.99-25.1-10.02-2.9-2.53-5.63-5.86-7-9.59-0.27-0.72 0.7-1.24 1.13-0.6 1.79 2.65 4.19 4.94 6.67 6.82 3.88 2.95 8.38 5.09 12.95 6.74 8.3 3 17.09 3.96 25.88 3.92 3.54-0.01 7.08-0.26 10.57-0.78z" fill="#8C8C8C"/><path d="m55.67 114.52c-1.56 0.59-3.17 1.1-4.8 1.54-1.65 0.29-3.3 0.71-4.99 0.82-1.69 0.15-3.39 0.28-5.09 0.17-0.85-0.05-1.71-0.03-2.55-0.17l-2.54-0.36c-3.36-0.65-6.66-1.74-9.65-3.42-2.97-1.66-5.75-3.82-7.62-6.65 2.74 1.93 5.65 3.35 8.62 4.54 2.99 1.15 6.06 1.98 9.18 2.58 1.58 0.24 3.14 0.53 4.75 0.64 0.8 0.06 1.59 0.21 2.4 0.21 0.8 0.02 1.61 0.07 2.42 0.12 0.81 0.08 1.62 0.02 2.43 0.03l2.46 0.02c1.64-0.02 3.29-0.12 4.98-0.07z" fill="#BFBFBF"/></svg>
