<?xml version="1.0" encoding="utf-8"?>
<!-- Generator: Adobe Illustrator 24.0.3, SVG Export Plug-In . SVG Version: 6.00 Build 0)  -->
<svg version="1.1" id="Layer_1" xmlns="http://www.w3.org/2000/svg" xmlns:xlink="http://www.w3.org/1999/xlink" x="0px" y="0px"
	 viewBox="0 0 128 128" style="enable-background:new 0 0 128 128;" xml:space="preserve">
<linearGradient id="SVGID_1_" gradientUnits="userSpaceOnUse" x1="72.9" y1="816.4" x2="72.9" y2="718.1" gradientTransform="matrix(1 0 0 1 0 -714)">
	<stop  offset="0" style="stop-color:#B71C1C"/>
	<stop  offset="0.5254" style="stop-color:#E53935"/>
	<stop  offset="0.6739" style="stop-color:#DB3330"/>
	<stop  offset="0.9258" style="stop-color:#C02221"/>
	<stop  offset="1" style="stop-color:#B71C1C"/>
</linearGradient>
<ellipse style="fill:url(#SVGID_1_);" cx="72.9" cy="53.3" rx="45.9" ry="49.1"/>
<linearGradient id="SVGID_2_" gradientUnits="userSpaceOnUse" x1="127.2" y1="767.3" x2="67.662" y2="767.3" gradientTransform="matrix(1 0 0 1 0 -714)">
	<stop  offset="0" style="stop-color:#B71C1C"/>
	<stop  offset="0.1671" style="stop-color:#AD1E1E"/>
	<stop  offset="0.4514" style="stop-color:#922422"/>
	<stop  offset="0.816" style="stop-color:#672E2A"/>
	<stop  offset="1" style="stop-color:#4E342E"/>
</linearGradient>
<ellipse style="fill:url(#SVGID_2_);" cx="69.4" cy="53.3" rx="42" ry="47.9"/>
<linearGradient id="SVGID_3_" gradientUnits="userSpaceOnUse" x1="78.1" y1="755.8749" x2="78.1" y2="767.008" gradientTransform="matrix(1 0 0 1 0 -714)">
	<stop  offset="0" style="stop-color:#BCAAA4"/>
	<stop  offset="1" style="stop-color:#A1887F"/>
</linearGradient>
<ellipse style="fill:url(#SVGID_3_);" cx="78.1" cy="51.7" rx="16.6" ry="27.2"/>
<g style="opacity:0.2;">
	<path style="fill:#212121;" d="M78.1,25.5c8.6,0,15.6,11.8,15.6,26.2s-7,26.2-15.6,26.2S62.5,66.1,62.5,51.7S69.5,25.5,78.1,25.5
		 M78.1,24.5c-9.2,0-16.6,12.2-16.6,27.2s7.4,27.2,16.6,27.2s16.6-12.2,16.6-27.2S87.2,24.5,78.1,24.5z"/>
</g>
<g style="opacity:0.2;">
	<path style="fill:#212121;" d="M48.1,7c5.3,0,9.5,0.5,11.8,1.5l1,0.4l1-0.3c3.6-1,7.3-1.5,11-1.5c23.6,0,42.9,20.7,42.9,46.2
		S96.6,99.4,72.9,99.4c-3.7,0-7.4-0.5-11-1.5l-1-0.3L60,98c-2.8,1.1-6.8,1.6-11.6,1.6c-1.9,0-3.5-0.1-4.4-0.1c-0.4,0-0.7,0-0.8,0
		c-18.3,0-33.1-20.7-33.1-46.2S25,7.1,43.2,7.1c0.1,0,0.3,0,0.7,0C44.7,7.1,46.2,7,48.1,7 M48.1,4c-2.6,0-4.5,0.1-4.9,0.1
		c-20,0-36.1,22-36.1,49.2s16.2,49.1,36.1,49.1c0.4,0,2.4,0.2,5.2,0.2c3.7,0,8.7-0.3,12.6-1.8c3.8,1.1,7.7,1.7,11.8,1.7
		c25.3,0,45.9-22,45.9-49.2S98.3,4.1,72.9,4.1c-4.1,0-8.1,0.6-11.8,1.7C57.7,4.3,52.1,4,48.1,4z"/>
</g>
<path style="fill:none;stroke:#BCAAA4;stroke-width:5;stroke-miterlimit:10;" d="M86.2,47c3.1,2.9,4.1,13.7,4.2,17.8
	c0.4,12.3,1.6,30.5,16,35.8c15.2,5.6,16.3,9.1,8.8,12.6c-15.2,6.9-41.8,8.6-53,7.1c-11.2-1.6-8.8-9.1-1.8-10
	c13.8-1.8,31.3,2.6,39.5,8.3"/>
<g style="opacity:0.2;">
	<path style="fill:#212121;" d="M88.7,47.6c1.3,2.8,2.2,6.4,2.7,10c0.3,2.7,0.5,5.6,0.7,8.7c0.8,13,1.7,27.8,14.6,32.8
		c10.7,4.1,14.6,6.7,14.7,9.7c0.1,2.9-3.1,4.6-5.5,5.7c-11.8,5.4-30.5,7.8-43.8,7.8c-3.8,0-7.3-0.2-10-0.6c-8.4-1.2-9.1-5.4-9.1-6.7
		c0-3.2,3.1-5.9,7.3-6.4c2.2-0.3,4.5-0.4,6.9-0.4c12.9,0,25.4,4,32.1,8l0.3,0.2l0.4-0.1c5.8-1.2,10.7-2.8,14.7-4.6
		c2.1-0.9,3-1.7,3.3-2.1l0.5-0.6l-0.4-0.6c-0.6-0.9-3-3-12.1-6.3c-5.4-2-9.8-6.3-12.7-12.5c-3.6-7.5-4.1-20.4-4.3-24.7
		c0-0.4,0-0.7,0-0.9c-0.4-7.8-2.1-10.4-4-13.2c0,0,0,0-0.1-0.1c0.5-0.5,1.1-1,1.8-1.4C87.3,48.8,88,48.3,88.7,47.6 M71.9,119.2
		c6,0,12.8-0.5,19.2-1.4l3.8-0.5l-3.6-1.4c-7.3-2.8-16.4-4.5-24.2-4.5c-2.2,0-4.4,0.1-6.4,0.4c-2.8,0.4-4.5,2-4.5,3.3
		c0,1.6,2.5,3.1,6.3,3.6C65,119.1,68.3,119.2,71.9,119.2 M88.8,45.8c-1.2,2.2-3.8,2.9-5.3,4.9c2,3.1,3.9,5.3,4.3,13.4
		c0.1,2.7,0.4,17.6,4.4,26c2.8,5.9,7.1,10.7,13.3,13c9.3,3.4,11.2,5.4,11.6,5.9c-0.2,0.3-0.9,0.9-3,1.8c-4.1,1.9-9.1,3.3-14.4,4.5
		c-7.4-4.4-20.4-8.1-32.6-8.1c-2.4,0-4.7,0.1-7,0.4c-4.7,0.6-8.1,3.8-8.1,7.4c0,1.5,0.7,6.4,9.9,7.7c2.8,0.4,6.2,0.6,10.1,0.6
		c13.5,0,32.3-2.4,44.3-7.8c2.7-1.2,6.2-3.2,6.1-6.7c-0.1-3.8-4.4-6.5-15.3-10.6c-15.3-5.9-12.9-27-14.7-40.7
		C91.9,53.7,90.7,49.2,88.8,45.8z M71.9,118.2c-3.6,0-6.8-0.2-9.3-0.5c-4-0.6-5.5-1.9-5.5-2.6c0-0.8,1.3-2,3.7-2.3
		c2-0.3,4.1-0.4,6.3-0.4c8.3,0,17.1,1.8,23.9,4.5C84.3,117.8,77.6,118.2,71.9,118.2z"/>
</g>
<linearGradient id="SVGID_4_" gradientUnits="userSpaceOnUse" x1="51.3" y1="811.3019" x2="51.3" y2="720.9099" gradientTransform="matrix(1 0 0 1 0 -714)">
	<stop  offset="0" style="stop-color:#B71C1C"/>
	<stop  offset="0.5254" style="stop-color:#E53935"/>
	<stop  offset="0.6739" style="stop-color:#DB3330"/>
	<stop  offset="0.9258" style="stop-color:#C02221"/>
	<stop  offset="1" style="stop-color:#B71C1C"/>
</linearGradient>
<ellipse style="fill:url(#SVGID_4_);" cx="51.3" cy="53.3" rx="37.8" ry="49.1"/>
<ellipse style="fill:#E53935;" cx="43.2" cy="53.3" rx="36.1" ry="49.1"/>
<linearGradient id="SVGID_5_" gradientUnits="userSpaceOnUse" x1="37" y1="808.587" x2="37" y2="727.657" gradientTransform="matrix(1 0 0 1 0 -714)">
	<stop  offset="0" style="stop-color:#4E342E"/>
	<stop  offset="0.5305" style="stop-color:#B71C1C"/>
	<stop  offset="0.609" style="stop-color:#AD1E1E"/>
	<stop  offset="0.7425" style="stop-color:#922422"/>
	<stop  offset="0.9136" style="stop-color:#672E2A"/>
	<stop  offset="1" style="stop-color:#4E342E"/>
</linearGradient>
<ellipse style="fill:url(#SVGID_5_);" cx="37" cy="53.3" rx="22" ry="31.4"/>
<ellipse style="fill:#F5F5F5;" cx="39.5" cy="53.3" rx="19.5" ry="29.1"/>
<g>
	<path style="fill:#3B78E7;" d="M36.8,41.1c2.3,7.4,0.1,12,0,12.2c0-6.9-8-11.1-8-21.9c0-0.9,0.1-1.7,0.2-2.6
		c3-2.9,6.7-4.6,10.5-4.6c0.6,0,1.2,0,1.8,0.1C37.8,25.9,33.4,30.2,36.8,41.1z"/>
	<path style="fill:#3B78E7;" d="M44.8,75.2c0,2.5-0.6,4.8-1.6,6.7c-1.2,0.4-2.5,0.5-3.7,0.5c-1.9,0-3.7-0.4-5.5-1.2
		c3-2.2,5.6-6.6,2.7-15.7c-2.3-7.4-0.1-12,0-12.2C36.8,60.2,44.8,64.4,44.8,75.2z"/>
	<path style="fill:#00C853;" d="M36.8,53.3C36.8,53.2,36.8,53.2,36.8,53.3C33.3,48.6,26,53,20.6,46.5c0.7-4.1,1.9-7.8,3.6-11
		c0.3,3.3,1.9,6.8,6.5,9.2C35.9,47.6,36.7,53,36.8,53.3z"/>
	<path style="fill:#00C853;" d="M56,68.8L56,68.8c-2,4.7-4.8,8.4-8.2,10.8c1.9-4.4,4.1-12.8-4.8-17.7c-5.5-3-6.2-8.6-6.2-8.6l0,0
		c3.5,4.9,11.3,0,16.8,7.6C55.2,63.1,56,66,56,68.8z"/>
	<path style="fill:#3B78E7;" d="M36.8,53.3L36.8,53.3L36.8,53.3L36.8,53.3c-4.9,0-7.9,10.7-15.3,11.1c-0.9-3.2-1.4-6.6-1.5-10.2
		c1.9,1.2,4.4,1.2,8-0.9C33,50.3,36.2,52.8,36.8,53.3C36.7,53.2,36.8,53.2,36.8,53.3z"/>
	<path style="fill:#3B78E7;" d="M59,53.3c0,3-0.3,5.9-0.9,8.6c-0.7-4.8-3.3-14.2-12.6-8.6c-5.2,3.1-8.5,0.3-8.8,0l0,0l0,0l0,0l0,0
		c5,0,8-11.2,15.8-11.2c2.2,0,4.3,1.3,5.7,3.3C58.8,47.9,59,50.6,59,53.3z"/>
	<path style="fill:#00C853;" d="M36.8,53.3c-3.5,4.9,0,15.7-5.5,23.4c-0.5,0.7-1.1,1.3-1.6,1.8c-2.2-1.9-4.2-4.5-5.7-7.6
		c2.4-0.4,4.8-2.7,6.6-8.9C32.7,54.5,36.5,53.3,36.8,53.3L36.8,53.3z"/>
	<path style="fill:#00C853;" d="M56.3,38.4c-2.9-2.7-9.6-6.8-13.3,6.2c-2.1,7.4-6,8.6-6.2,8.6l0,0c3.5-4.9,0-15.7,5.5-23.4
		c1.4-2,3.3-3.1,5.1-3.2C51.1,29.1,54.2,33.3,56.3,38.4z"/>
</g>
<g style="opacity:0.2;">
	<path style="fill:#212121;" d="M51.3,7.1c19.2,0,34.8,20.7,34.8,46.2S70.5,99.4,51.3,99.4c-2,0-3.7,0-5.3-0.1h-0.2h-0.2
		c-0.9,0.1-1.6,0.1-2.3,0.1c-18.3,0-33.1-20.7-33.1-46.2S25,7.1,43.2,7.1c0.6,0,1.3,0,2.2,0.1h0.2h0.2C47.4,7.2,49.2,7.1,51.3,7.1
		 M51.3,4.1c-1.9,0-3.8,0-5.7,0.1c-0.8-0.1-1.6-0.1-2.4-0.1c-20,0-36.1,22-36.1,49.2s16.2,49.2,36.1,49.2c0.9,0,1.7-0.1,2.6-0.1
		c1.8,0.1,3.6,0.1,5.5,0.1c20.9,0,37.8-22,37.8-49.2C89.2,26.1,72.2,4.1,51.3,4.1z"/>
</g>
</svg>
