<svg width="128" height="128" style="enable-background:new 0 0 128 128;" xmlns="http://www.w3.org/2000/svg" xmlns:xlink="http://www.w3.org/1999/xlink">
  <g>
    <defs>
      <rect id="SVGID_1_" height="120" width="120" x="4" y="4"/>
    </defs>
    <clipPath id="SVGID_2_">
      <use style="overflow:visible;" xlink:href="#SVGID_1_"/>
    </clipPath>
    <g id="XMLID_143_" style="clip-path:url(#SVGID_2_);">
      <linearGradient id="SVGID_3_" gradientUnits="userSpaceOnUse" x1="64" x2="64" y1="97.5" y2="130.5">
        <stop offset="0" style="stop-color:#00BFA5"/>
        <stop offset="0.7047" style="stop-color:#00B29A"/>
        <stop offset="1" style="stop-color:#00AB94"/>
      </linearGradient>
      <path d="M13.5,130.5v-9.44c0-16.24,25.36-23.53,50.5-23.56h0.13c25.03,0,50.37,8.09,50.37,23.56 v9.44H13.5z" style="fill:url(#SVGID_3_);"/>
      <path d="M64.13,99c12.9,0,25.42,2.19,34.36,6c6.62,2.83,14.51,7.91,14.51,16.05V129H15v-7.94 c0-15.2,24.61-22.03,49-22.06L64.13,99 M64.13,96c-0.05,0-0.09,0-0.13,0c-25.49,0.03-52,7.28-52,25.06V132h104v-10.94 C116,104.3,89.74,96,64.13,96L64.13,96z" style="fill:#009984;"/>
    </g>
    <g id="XMLID_141_" style="clip-path:url(#SVGID_2_);">
      <linearGradient id="SVGID_4_" gradientUnits="userSpaceOnUse" x1="64" x2="64" y1="87.1521" y2="109.6972">
        <stop offset="0" style="stop-color:#76FF05"/>
        <stop offset="0.0578" style="stop-color:#79F70A"/>
        <stop offset="0.2671" style="stop-color:#81DE18"/>
        <stop offset="0.4868" style="stop-color:#87CD22"/>
        <stop offset="0.7222" style="stop-color:#8BC228"/>
        <stop offset="1" style="stop-color:#8CBF2A"/>
      </linearGradient>
      <path d="M63.17,107.23c-4,0-7.26-3.22-7.26-7.17v-8.98h16.16v8.98c0,3.96-3.25,7.17-7.26,7.17H63.17 z" style="fill:url(#SVGID_4_);"/>
      <path d="M71.08,92.08v7.98c0,3.4-2.81,6.17-6.26,6.17h-1.65c-3.45,0-6.26-2.77-6.26-6.17v-7.98H64H71.08 M73.08,90.08H64h-9.08v9.98c0,4.51,3.7,8.17,8.26,8.17h1.65c4.56,0,8.26-3.66,8.26-8.17V90.08L73.08,90.08z" style="fill:#709921;"/>
    </g>
    <g style="clip-path:url(#SVGID_2_);">
      <path d="M36.67,72.26c-5.36,0-9.71-4.67-9.71-10.41s4.36-10.41,9.71-10.41h54.65 c5.36,0,9.71,4.67,9.71,10.41s-4.36,10.41-9.71,10.41H36.67z" style="fill:#8ABE3F;"/>
      <path d="M91.33,52.43c4.8,0,8.71,4.22,8.71,9.41s-3.91,9.41-8.71,9.41h-7.37H44.04h-7.37 c-4.8,0-8.71-4.22-8.71-9.41s3.91-9.41,8.71-9.41h7.37h39.91H91.33 M91.33,50.43h-7.37H44.04h-7.37 c-5.89,0-10.71,5.14-10.71,11.41c0,6.28,4.82,11.41,10.71,11.41h7.37h39.91h7.37c5.89,0,10.71-5.14,10.71-11.41 C102.04,55.57,97.22,50.43,91.33,50.43L91.33,50.43z" style="fill:#6F993F;"/>
    </g>
    <g style="clip-path:url(#SVGID_2_);">
      <linearGradient id="SVGID_5_" gradientUnits="userSpaceOnUse" x1="64.0002" x2="64.0002" y1="94.5914" y2="12.8253">
        <stop offset="5.019531e-03" style="stop-color:#7BA825"/>
        <stop offset="0.1681" style="stop-color:#7BAE23"/>
        <stop offset="0.3815" style="stop-color:#7ABE1D"/>
        <stop offset="0.6227" style="stop-color:#78D913"/>
        <stop offset="0.8829" style="stop-color:#76FF05"/>
        <stop offset="0.885" style="stop-color:#76FF05"/>
      </linearGradient>
      <path d="M64,95.27c-15.66,0-32.52-12.14-32.52-38.81c0-12.38,3.56-23.79,10.02-32.13 c6.05-7.8,14.25-12.27,22.5-12.27s16.45,4.47,22.5,12.27c6.46,8.34,10.02,19.75,10.02,32.13c0,12.09-3.51,22.19-10.14,29.21 C80.52,91.86,72.57,95.27,64,95.27z" style="fill:url(#SVGID_5_);"/>
      <path d="M64,13.07L64,13.07c7.94,0,15.85,4.33,21.71,11.88c6.33,8.16,9.81,19.35,9.81,31.52 c0,11.83-3.41,21.7-9.87,28.52c-5.67,5.99-13.36,9.29-21.65,9.29c-8.29,0-15.98-3.3-21.65-9.29c-6.46-6.82-9.87-16.69-9.87-28.52 c0-12.16,3.49-23.35,9.81-31.52C48.15,17.4,56.06,13.07,64,13.07 M64,11.07L64,11.07L64,11.07c-17.4,0-33.52,18.61-33.52,45.39 c0,26.64,16.61,39.81,33.52,39.81S97.52,83.1,97.52,56.46C97.52,29.68,81.4,11.07,64,11.07L64,11.07z" style="fill:#709921;"/>
    </g>
    <g style="clip-path:url(#SVGID_2_);">
      <g>
        <path d="M46.94,69.14c-4.88,0-8.84-4.53-8.84-10.1s3.97-10.1,8.84-10.1s8.84,4.53,8.84,10.1 S51.81,69.14,46.94,69.14z" style="fill:#4F6C32;"/>
        <path d="M46.94,50.26c4.15,0,7.52,3.94,7.52,8.78s-3.37,8.78-7.52,8.78c-4.15,0-7.52-3.94-7.52-8.78 S42.79,50.26,46.94,50.26 M46.94,47.61c-5.61,0-10.17,5.12-10.17,11.43s4.55,11.43,10.17,11.43c5.61,0,10.17-5.12,10.17-11.43 S52.55,47.61,46.94,47.61L46.94,47.61z" style="fill:#6F993F;"/>
      </g>
      <g>
        <ellipse cx="47.08" cy="56.81" rx="7.88" ry="8.2" style="fill:#FFFFFF;"/>
        <path d="M47.09,49.74c3.72,0,6.75,3.17,6.75,7.07s-3.03,7.07-6.75,7.07s-6.75-3.17-6.75-7.07 S43.36,49.74,47.09,49.74 M47.09,47.49c-4.97,0-9,4.17-9,9.32s4.03,9.32,9,9.32s9-4.17,9-9.32S52.06,47.49,47.09,47.49 L47.09,47.49z" style="fill:#6F993F;"/>
      </g>
    </g>
    <g style="clip-path:url(#SVGID_2_);">
      <g>
        <path d="M81.06,69.14c-4.88,0-8.84-4.53-8.84-10.1s3.97-10.1,8.84-10.1s8.84,4.53,8.84,10.1 S85.94,69.14,81.06,69.14z" style="fill:#4F6C32;"/>
        <path d="M81.06,50.26c4.15,0,7.52,3.94,7.52,8.78s-3.37,8.78-7.52,8.78s-7.52-3.94-7.52-8.78 S76.92,50.26,81.06,50.26 M81.06,47.61c-5.61,0-10.17,5.12-10.17,11.43s4.55,11.43,10.17,11.43s10.17-5.12,10.17-11.43 S86.68,47.61,81.06,47.61L81.06,47.61z" style="fill:#6F993F;"/>
      </g>
      <g>
        <ellipse cx="80.92" cy="56.81" rx="7.88" ry="8.2" style="fill:#FFFFFF;"/>
        <path d="M80.91,49.74c3.72,0,6.75,3.17,6.75,7.07s-3.03,7.07-6.75,7.07s-6.75-3.17-6.75-7.07 S77.19,49.74,80.91,49.74 M80.91,47.49c-4.97,0-9,4.17-9,9.32s4.03,9.32,9,9.32c4.97,0,9-4.17,9-9.32S85.89,47.49,80.91,47.49 L80.91,47.49z" style="fill:#6F993F;"/>
      </g>
    </g>
    <g style="clip-path:url(#SVGID_2_);">
      <defs>
        <path id="SVGID_6_" d="M64,4.03L64,4.03c-0.01,0-0.01,0-0.02,0s-0.01,0-0.02,0v0C18.53,4.27,27.84,56.17,27.84,56.17 s5.1,8.99,5.1,8.81c-0.03-1.41,0.46-6.89,0.46-6.89l-2.68-2.92c0,0,3.89-25.44,6.79-24.91c4.45,0.81,26.54,2,26.57,2 c7.83,0,14.92-0.36,19.37-1.17c2.9-0.53,9.64,1.7,10.68,4.45c1.33,3.54,3.13,19.71,3.13,19.71l-2.68,2.83 c0,0,0.49,5.51,0.46,6.89c0,0.18,5.1-8.81,5.1-8.81S109.44,4.27,64,4.03z"/>
      </defs>
      <clipPath id="SVGID_7_">
        <use style="overflow:visible;" xlink:href="#SVGID_6_"/>
      </clipPath>
    </g>
    <g style="clip-path:url(#SVGID_2_);">
      <radialGradient id="SVGID_8_" cx="64.6274" cy="5.2564" gradientUnits="userSpaceOnUse" r="47.2768">
        <stop offset="0" style="stop-color:#B34141"/>
        <stop offset="0.995" style="stop-color:#5E1011"/>
      </radialGradient>
      <path d="M32.06,61.51c-1.01-1.76-2.28-3.99-3.25-5.68c-0.18-1.12-1.18-7.79-0.52-15.88 c0.03-0.33-0.11-0.66-0.38-0.87c-0.18-0.14-0.4-0.21-0.62-0.21c-0.1,0-0.21,0.02-0.31,0.05c-0.77,0.25-1.52,0.57-2.24,0.95 c0.83-1.54,2.09-2.87,3.61-3.77c0.26-0.15,0.43-0.41,0.48-0.71c0.83-5.3,2.35-10.02,4.49-14.02c0.17-0.31,0.16-0.69-0.02-0.99 c-0.18-0.3-0.51-0.48-0.86-0.48c0,0-0.01,0-0.01,0c-1.25,0.01-2.55,0.06-3.83,0.25c1.21-1.04,3.04-2.01,6.06-2.81 c0.36-0.09,0.63-0.38,0.72-0.74c0.08-0.36-0.04-0.74-0.31-0.98c-0.89-0.78-1.66-1.7-2.27-2.7c0.93,0.56,1.86,1.03,2.99,1.53 c0.11,0.05,0.28,0.11,0.47,0.18c0.22,0.08,0.46,0.17,0.59,0.24C37,14.96,37.19,15,37.38,15c0.27,0,0.54-0.1,0.72-0.29 c6.04-6.36,14.75-9.62,25.89-9.68c7.1,0.04,13.25,1.38,18.29,3.98c0.14,0.07,0.3,0.11,0.46,0.11c0.11,0,0.23-0.02,0.34-0.06 l0.25-0.09c0.8-0.31,1.63-0.66,2.41-1.1c-0.28,0.43-0.59,0.84-0.93,1.24c-0.19,0.22-0.28,0.51-0.24,0.79 c0.04,0.29,0.2,0.54,0.44,0.7c0.23,0.15,0.45,0.31,0.67,0.47c0.09,0.06,0.23,0.14,0.33,0.17c0.36,0.11,0.79,0.26,1.26,0.43 c0.53,0.19,1.1,0.39,1.68,0.57c-0.16,0.14-0.28,0.33-0.33,0.54c-0.08,0.34,0.03,0.7,0.29,0.94c3.73,3.56,6.56,8.25,8.42,13.92 c0.09,0.29,0.31,0.51,0.59,0.62c0.12,0.04,0.24,0.07,0.36,0.07c0.03,0,0.06,0,0.09,0c0.74,0.15,1.48,0.23,2.22,0.23 c0.48,0,0.94-0.03,1.38-0.09c-0.98,1.09-2,2.15-3.05,3.18c-0.24,0.24-0.35,0.59-0.28,0.92c0.21,1.01,0.41,2.07,0.57,3.14 c0.05,0.31,0.24,0.58,0.51,0.73c0.67,0.36,1.36,0.84,1.93,1.35c1.34,1.19,1.99,2.42,2.3,3.51c-1.02-0.49-1.99-0.83-2.95-1.04 c-0.07-0.02-0.14-0.02-0.21-0.02c-0.24,0-0.47,0.08-0.65,0.24c-0.24,0.2-0.37,0.51-0.35,0.82c0.45,7.47-0.44,13.47-0.61,14.52 c-0.96,1.69-2.23,3.92-3.25,5.68C95.4,54,92.98,43.85,91.19,39.07c-1.03-2.74-3.7-4.58-6.63-4.58c-0.43,0-0.86,0.04-1.28,0.12 c-4.51,0.82-11.5,1.79-19.19,1.79c-0.01,0-0.15,0-0.15,0c-7.72,0-14.71-0.97-19.21-1.79c-0.42-0.08-0.85-0.12-1.28-0.12 c-2.94,0-5.6,1.84-6.63,4.58C35.02,43.85,32.6,54,32.06,61.51z" style="fill:url(#SVGID_8_);"/>
      <path d="M63.97,6.03c0.01,0,0.02,0,0.03,0c0,0,0,0,0.01,0l0,0c6.92,0.04,12.91,1.34,17.82,3.87 c0.28,0.14,0.6,0.21,0.92,0.21c0.25,0,0.49-0.04,0.72-0.12c0.04-0.01,0.07-0.02,0.11-0.04c0,0.03,0.01,0.06,0.01,0.09 c0.08,0.57,0.4,1.08,0.88,1.4c0.23,0.16,0.46,0.32,0.69,0.48c0.18,0.12,0.37,0.22,0.58,0.28c0.35,0.1,0.76,0.25,1.22,0.41 c0.22,0.08,0.44,0.16,0.67,0.23c-0.05,0.59,0.17,1.18,0.61,1.6c3.61,3.45,6.35,8,8.16,13.51c0.19,0.57,0.62,1.03,1.18,1.24 c0.23,0.09,0.48,0.14,0.72,0.14c0,0,0.01,0,0.01,0c0.44,0.09,0.89,0.15,1.33,0.18c-0.46,0.48-0.93,0.95-1.4,1.41 c-0.49,0.48-0.7,1.17-0.56,1.84c0.21,0.98,0.4,2.02,0.56,3.09c0.09,0.62,0.48,1.16,1.03,1.46c0.6,0.32,1.22,0.76,1.74,1.22 c0.34,0.3,0.63,0.61,0.87,0.91c-0.22-0.06-0.43-0.11-0.65-0.16c-0.14-0.03-0.28-0.04-0.42-0.04c-0.47,0-0.94,0.17-1.3,0.48 c-0.47,0.41-0.73,1.01-0.69,1.64c0.43,7.02-0.36,12.73-0.58,14.13c-0.53,0.94-1.08,1.9-1.6,2.82c-0.88-7.1-2.93-15.39-4.5-19.59 c-1.18-3.13-4.22-5.23-7.57-5.23c-0.49,0-0.98,0.04-1.46,0.13c-4.47,0.81-11.39,1.77-19.01,1.77l-0.06,2l0-2 c-0.01,0-0.02,0-0.03,0c-0.01,0-0.02,0-0.03,0c0,0-0.05,0-0.06,0c-7.63,0-14.55-0.97-19.02-1.77c-0.48-0.09-0.97-0.13-1.46-0.13 c-3.35,0-6.39,2.1-7.57,5.23c-1.58,4.2-3.63,12.49-4.5,19.59c-0.53-0.92-1.07-1.88-1.6-2.82c-0.23-1.48-1.1-7.84-0.48-15.46 c0.05-0.67-0.23-1.32-0.75-1.73c-0.28-0.22-0.61-0.36-0.96-0.41c0.4-0.35,0.83-0.66,1.29-0.94c0.51-0.3,0.86-0.82,0.96-1.41 c0.82-5.19,2.29-9.8,4.39-13.7c0.33-0.62,0.32-1.38-0.05-1.98c-0.29-0.48-0.75-0.8-1.29-0.92c0.6-0.22,1.28-0.43,2.04-0.63 c0.71-0.19,1.27-0.76,1.44-1.48c0.09-0.38,0.06-0.77-0.06-1.12c0.02,0.01,0.05,0.02,0.07,0.03c0.32,0.19,0.67,0.28,1.02,0.28 c0.53,0,1.06-0.21,1.45-0.62C44.67,9.24,53.13,6.09,63.97,6.03 M64.02,4.03c-0.01,0-0.01,0-0.02,0c-0.01,0-0.01,0-0.02,0v0 C51.33,4.1,42.92,8.18,37.38,14.02c-0.2-0.14-0.91-0.37-1.19-0.49c-2.24-0.98-3.65-1.86-5.62-3.36c0.6,2.4,1.98,4.58,3.83,6.21 c-5.78,1.53-7.5,3.79-8.5,5.52c2.06-0.84,4.31-0.98,6.55-1c-2.45,4.57-3.85,9.57-4.6,14.33c-2.58,1.53-4.49,4.18-5.05,7.13 c1.32-1.11,2.86-1.95,4.5-2.49c-0.74,9.07,0.56,16.3,0.56,16.3s5,8.81,5.1,8.81c0,0,0,0,0,0c-0.16-7.25,2.74-20.09,4.8-25.55 c0.91-2.41,3.2-3.93,5.7-3.93c0.36,0,0.73,0.03,1.1,0.1C49,36.4,56.09,37.4,63.92,37.4c0.03,0,0.06,0,0.08,0 c0.03,0,0.06,0,0.08,0c7.83,0,14.92-1,19.37-1.81c0.37-0.07,0.74-0.1,1.1-0.1c2.5,0,4.79,1.53,5.7,3.93 c2.06,5.47,4.96,18.3,4.8,25.55c0,0,0,0,0,0c0.09,0,5.1-8.81,5.1-8.81s1.17-6.51,0.66-14.92c1.2,0.26,2.66,0.81,4.44,1.91 c-0.06-1.74-0.53-3.99-2.91-6.11c-0.6-0.54-1.35-1.07-2.12-1.48c-0.16-1.06-0.35-2.13-0.58-3.2c2.23-2.18,4.31-4.5,6.23-6.96 c-1.09,1.4-3.06,2.16-5.26,2.16c-0.74,0-1.5-0.09-2.26-0.26c0,0,0,0-0.01,0c-0.02,0-0.03,0.03-0.05,0.04 c-1.7-5.21-4.42-10.27-8.68-14.33c1.2-0.4,2.4-0.82,3.57-1.3c-0.28,0.12-0.62,0.17-1,0.17c-1.8,0-4.42-1.14-5.88-1.58 c-0.24-0.17-0.49-0.35-0.74-0.51c1.4-1.61,2.37-3.59,2.68-5.7c-0.92,2.06-3.17,3.15-5.28,3.96c-0.08,0.03-0.15,0.05-0.23,0.08 C77.87,5.61,71.73,4.07,64.02,4.03L64.02,4.03L64.02,4.03z M105.86,25.4L105.86,25.4L105.86,25.4z" style="fill:#331212;"/>
    </g>
    <path d="M78.64,79.66c-0.44-0.45-0.85-1.01-0.81-1.64 c0.05-0.96,1.03-1.56,1.89-1.98c1.69-0.83,3.41-1.67,5.28-1.88c0.73-0.08,1.51-0.05,2.12,0.35c0.72,0.48,1.05,1.42,0.96,2.28 c-0.09,0.86-0.54,1.65-1.1,2.32C84.58,81.96,81.3,82.32,78.64,79.66z" style="clip-path:url(#SVGID_2_);fill:#60874E;"/>
    <path d="M81.43,83.96c0.28,0.34,0.41,0.79,0.29,1.34 c-0.14,0.62-0.62,1.04-1.07,1.46c-0.36,0.33-0.74,0.64-1.21,0.76c-0.47,0.12-1.03,0-1.29-0.41c-0.13-0.21-0.17-0.47-0.19-0.71 c-0.1-1.37,0.28-3.45,2.09-3.16C80.61,83.33,81.12,83.57,81.43,83.96z" style="clip-path:url(#SVGID_2_);fill:#60874E;"/>
    <path d="M42.48,77.84c-0.43,0.08-0.89-0.02-1.32-0.39 c-0.48-0.42-0.62-1.04-0.77-1.64c-0.12-0.47-0.21-0.96-0.09-1.43s0.5-0.9,0.98-0.94c0.25-0.02,0.49,0.07,0.72,0.17 c1.25,0.57,2.89,1.89,1.77,3.34C43.43,77.41,42.97,77.74,42.48,77.84z" style="clip-path:url(#SVGID_2_);fill:#60874E;"/>
    <path d="M47.19,40.39c0.84-0.06,1.77-0.02,2.39,0.54 c0.82,0.73,0.76,2.11,0.12,3.01c-0.64,0.89-1.69,1.39-2.74,1.73c-0.61,0.2-1.26,0.36-1.88,0.24c-0.88-0.17-1.57-0.88-1.96-1.68 C41.57,40.96,44.47,40.59,47.19,40.39z" style="clip-path:url(#SVGID_2_);fill:#60874E;"/>
    <path d="M60.14,71.17c0.11,0.04,0.21,0.07,0.32,0.08h7.07 c0.11-0.01,0.22-0.04,0.32-0.08c0.64-0.26,0.99-0.92,0.69-1.63c-0.3-0.71-1.71-2.69-4.55-2.69c-2.84,0-4.25,1.99-4.55,2.69 C59.15,70.25,59.5,70.91,60.14,71.17z" style="clip-path:url(#SVGID_2_);fill:#333333;"/>
    <g style="clip-path:url(#SVGID_2_);">
      <path d="M74.5,82.98c0,3.21-4.7,3.81-10.5,3.81s-10.5-0.6-10.5-3.81c0-3.21,4.7-7.81,10.5-7.81 S74.5,79.77,74.5,82.98z" style="fill:#333333;"/>
      <path d="M64,86.79c3.54,0,6.66-0.23,8.56-1.13c-0.21-2.92-3.96-5.24-8.56-5.24s-8.35,2.33-8.56,5.24 C57.34,86.56,60.46,86.79,64,86.79z" style="fill:#F05455;"/>
    </g>
    <g style="clip-path:url(#SVGID_2_);">
      <g>
        <path d="M88.57,110.55c5.16,8.13,13.62,11.43,13.97,11.57c0.18,0.05,2.24,0.57,3.88-0.77 c0.22-0.18,0.55-0.15,0.73,0.07c0.18,0.22,0.15,0.55-0.07,0.73c-0.73,0.6-1.51,0.9-2.23,1.04c-0.7,0.14-1.34,0.12-1.81,0.07 l0.17,0.86c1.64-0.13,4.19,0.03,5.81,1.83c0.55,0.61,0.72,1.43,0.46,2.2c-0.26,0.78-0.9,1.34-1.7,1.5l-3.35,0.66l3.01,15.33 l2.74,2.05l2.54-4.37c0.08-0.14,0.22-0.24,0.38-0.25c0.16-0.02,0.32,0.04,0.44,0.15l2.07,2.11l1.85-3.31 c0.12-0.22,0.38-0.32,0.61-0.24l2.07,0.67l-1-5.1c-1.4-0.35-2.49-1.48-2.77-2.91l-1.32-6.71c-0.01-0.04-0.03-0.06-0.04-0.07 c-0.02-0.01-0.06-0.03-0.11-0.01c-0.04,0.02-0.07,0.09-0.06,0.15l0.3,1.53c0.16,0.81-0.37,1.6-1.19,1.77 c-0.81,0.16-1.6-0.37-1.76-1.18l-0.42-2.12c-0.43-2.17,0.29-4.37,1.91-5.88l2.05-1.91l-0.13-0.66c-0.41,0.29-1.02,0.58-1.9,0.75 c-0.28,0.06-0.56-0.13-0.61-0.41c-0.06-0.28,0.13-0.56,0.41-0.61c1.5-0.3,1.94-0.99,1.97-1.03c0,0,0.01-0.01,0.01-0.01 c0,0,0.01-0.01,0.01-0.02c3.33-5.14,4.52-9.49,3.55-12.95c-0.82-2.92-3-4.23-3.43-4.47c-0.59-0.04-1.98,0.02-2.67,0.72 c-0.36,0.36-0.5,0.85-0.43,1.51c0.1,0.93,0.47,1.52,1.1,1.73c0.87,0.29,2.2-0.14,2.98-0.97c0.2-0.21,0.53-0.22,0.74-0.02 c0.21,0.2,0.22,0.53,0.02,0.74c-0.45,0.48-1.12,0.91-1.84,1.16c0.18,0.64,0.14,1.57-0.66,2.5c-0.08,0.09-0.18,0.15-0.29,0.17 c-0.15,0.03-0.31-0.01-0.44-0.12c-0.22-0.19-0.24-0.52-0.05-0.73c0.6-0.7,0.54-1.28,0.43-1.6c-0.41,0.03-0.82-0.01-1.21-0.14 c-0.59-0.2-1.62-0.81-1.8-2.61c-0.1-0.97,0.15-1.76,0.73-2.35c0.94-0.95,2.51-1.04,3.23-1.03c1.1-2.43,1.27-4.54,0.48-6.26 c-1.15-2.52-4.01-3.5-4.5-3.65c-0.23,0.02-1.01,0.11-1.51,0.64c-0.34,0.37-0.48,0.89-0.43,1.56c0.09,1.24,0.83,2.32,1.88,2.77 c0.83,0.35,1.7,0.22,2.39-0.35c0.22-0.18,0.55-0.15,0.73,0.07c0.18,0.22,0.15,0.55-0.07,0.73c-0.47,0.39-1,0.64-1.55,0.74 l-0.61,1.97c0.05,0.07,0.12,0.16,0.23,0.21c0.22,0.1,0.53,0,0.75-0.11c0.26-0.12,0.57-0.01,0.69,0.25 c0.12,0.26,0.01,0.57-0.25,0.69c-0.21,0.1-0.42,0.17-0.62,0.21c-0.36,0.07-0.69,0.04-0.99-0.09c-0.15-0.07-0.27-0.15-0.37-0.24 c-0.07,0.05-0.15,0.1-0.23,0.15c-0.12,0.06-0.25,0.1-0.38,0.13c-0.25,0.05-0.52,0.03-0.77-0.06c-0.75-0.27-1.15-1.07-0.91-1.83 l0.66-2.04c-0.92-0.73-1.53-1.87-1.62-3.12c-0.07-0.97,0.17-1.76,0.71-2.35c0.58-0.62,1.35-0.85,1.85-0.93 c0.17-2.25,0.15-6.58-2.5-7.19c-0.44-0.1-0.95-0.07-1.47,0.1c-0.82,0.26-1.3,0.66-1.48,1.23c-0.34,1.1,0.56,2.65,0.99,3.23 c0.18,0.12,1.08,0.6,2.95,0.1c0.28-0.07,0.56,0.09,0.64,0.37c0.07,0.28-0.09,0.56-0.37,0.64c-0.2,0.05-0.39,0.1-0.57,0.13 c-1.06,0.21-1.84,0.14-2.38-0.01c0.23,1.83,0.72,5.83,0.64,7.27c0,0.02,0,0.04-0.01,0.06c-0.22,1.23-0.71,2-1.47,2.29 c-1.19,0.44-2.45-0.54-2.59-0.66c-0.12-0.1-0.19-0.24-0.19-0.39c-0.18-9.89-2.14-13.3-3.75-14.43 c-0.82-0.57-1.76-0.67-2.79-0.31c-0.63,0.22-1,0.55-1.12,1.02c-0.31,1.16,0.87,2.95,1.46,3.67c0.38,0.12,1.61,0.4,2.27-0.46 c0.17-0.23,0.5-0.27,0.73-0.1c0.23,0.17,0.27,0.5,0.1,0.73c-0.44,0.57-0.99,0.84-1.54,0.94c-0.4,0.08-0.79,0.07-1.12,0.03 l1.15,3.96c0.1,0.39,0.2,0.76,0.29,1.13c0.09,0.11,0.33,0.36,0.76,0.44c0.59,0.12,1.33-0.12,2.16-0.69 c0.24-0.16,0.56-0.1,0.72,0.13c0.16,0.24,0.1,0.56-0.13,0.72c-0.65,0.45-1.27,0.73-1.86,0.85c-0.39,0.08-0.77,0.08-1.13,0 c-0.07-0.02-0.14-0.03-0.21-0.05c1.58,7.53,0.47,11.69-0.83,13.9c-1.02,1.74-2.27,2.51-2.96,2.83c0.32,0.95,0.81,1.91,1.77,2.86 c0.2,0.2,0.21,0.53,0,0.74c-0.2,0.2-0.53,0.21-0.74,0c-1.39-1.37-1.91-2.77-2.26-4.05c-0.2,0.79-0.58,1.66-1.25,2.56 c-0.08,0.11-0.2,0.18-0.32,0.2c-0.14,0.03-0.29,0-0.41-0.09c-0.23-0.17-0.28-0.5-0.11-0.73c1.87-2.55,1.12-4.73,0.99-5.06 c-0.28-0.4-0.65-0.75-1.18-1.06c-1.23-0.55-2.22-0.37-3.02,0.55C87.77,107.27,87.66,109.13,88.57,110.55z M107.88,118.26 c-0.95-6.06,2.74-7.74,2.89-7.8c0.26-0.12,0.57,0.01,0.68,0.27c0.11,0.26-0.01,0.57-0.27,0.68c-0.03,0.01-3.11,1.42-2.28,6.69 c0.04,0.28-0.14,0.54-0.41,0.59c-0.01,0-0.01,0-0.02,0C108.19,118.74,107.92,118.54,107.88,118.26z" style="fill:none;"/>
        <path d="M111.75,95.8c-0.27-0.04-0.53-0.12-0.8-0.23l-0.59,1.82c-0.07,0.22,0.04,0.45,0.26,0.53 c0.11,0.04,0.23,0.03,0.33-0.02c0.1-0.05,0.18-0.14,0.21-0.25L111.75,95.8z" style="fill:none;"/>
        <path d=" M87.69,111.11c4.97,7.82,12.66,11.25,14.23,11.88l0.35,1.79l1.03,5.22l3.15,16.04c0.02,0.13,0.1,0.24,0.2,0.32l3.37,2.52 c0.12,0.09,0.27,0.12,0.41,0.09c0,0,0,0,0,0c0.15-0.03,0.27-0.12,0.35-0.25l2.48-4.28l2.08,2.11c0.11,0.12,0.28,0.17,0.44,0.15 c0.16-0.02,0.31-0.12,0.38-0.26l1.98-3.54l2.51,0.81c0.18,0.06,0.37,0.02,0.51-0.11s0.2-0.31,0.17-0.49l-1.24-6.3l-3.29-16.73 l-0.33-1.69c3.42-5.33,4.62-9.92,3.56-13.65c-0.81-2.85-2.73-4.34-3.61-4.89c1.19-2.67,1.33-5.03,0.42-7.02 c-1.19-2.59-3.8-3.74-4.82-4.1c0.39-4.78-0.78-7.73-3.3-8.31c-0.63-0.14-1.33-0.1-2.02,0.12c-1.15,0.37-1.88,1.01-2.16,1.91 c-0.52,1.66,0.76,3.61,1.12,4.11c0.12,0.9,0.81,6.18,0.74,7.84c-0.11,0.58-0.33,1.28-0.81,1.46c-0.44,0.17-1.05-0.13-1.39-0.35 c-0.17-8.14-1.58-13.19-4.19-15c-1.09-0.76-2.38-0.91-3.73-0.44c-0.97,0.34-1.57,0.92-1.79,1.73c-0.49,1.83,1.25,4.11,1.69,4.64 l1.37,4.69c2.23,8.44,1.28,12.95,0.09,15.25c-0.87,1.67-1.96,2.42-2.57,2.73c-0.04-0.14-0.07-0.29-0.11-0.43 c-0.4-1.58-0.78-3.07-2.6-4.11c-0.01-0.01-0.03-0.02-0.04-0.02c-2.1-0.95-3.47-0.09-4.25,0.8 C86.69,106.93,86.54,109.3,87.69,111.11z" style="fill:none;stroke:#709921;stroke-width:0.7821;stroke-linecap:round;stroke-linejoin:round;stroke-miterlimit:10;"/>
        <g>
          <linearGradient id="SVGID_9_" gradientTransform="matrix(-0.9812 0.1929 0.1929 0.9812 1859.9551 -168.0794)" gradientUnits="userSpaceOnUse" x1="1776.5125" x2="1776.5125" y1="-96.0588" y2="-32.2764">
            <stop offset="0" style="stop-color:#68E005"/>
            <stop offset="0.071" style="stop-color:#6EDB0B"/>
            <stop offset="0.349" style="stop-color:#7FCB1C"/>
            <stop offset="0.6475" style="stop-color:#89C227"/>
            <stop offset="1" style="stop-color:#8CBF2A"/>
          </linearGradient>
          <path d="M109.95,148.01l-2.84-2.12l-0.04-0.12l-4.45-22.6l0.25-0.29l0.18,0 c0.23,0.02,0.45,0.04,0.68,0.04c0.36,0,0.71-0.03,1.04-0.1c0.77-0.15,1.46-0.47,2.06-0.96c0.05-0.04,0.06-0.13,0.02-0.18 c-0.04-0.04-0.08-0.05-0.1-0.05c-1.09,0.85-2.24,1.03-3.03,1.03c-0.69,0-1.19-0.13-1.28-0.15c-0.4-0.15-8.96-3.48-14.2-11.73 c-1-1.58-0.87-3.62,0.31-4.98c0.58-0.66,1.26-0.99,2.03-0.99c0.45,0,0.93,0.12,1.44,0.34c1.21,0.49,1.48,1.18,1.52,1.31 c0.96,3.08,2.32,6.45,3.07,6.95l0.15,0.08l0.09-0.04c0.04-0.04,0.04-0.14,0-0.18c-0.87-0.86-1.44-1.79-1.86-3l-0.11-0.32 l0.31-0.17c0.63-0.29,1.82-1.02,2.79-2.68c1.22-2.08,2.35-6.13,0.78-13.62L98.67,93h0.02c-0.1-0.44-0.29-1.19-0.51-2.05 l-1.32-4.52l0.59,0.07c0.14,0.02,0.28,0.03,0.44,0.03c0.18,0,0.37-0.01,0.56-0.05c0.54-0.11,0.98-0.38,1.3-0.8l-0.02-0.18 c-0.04-0.01-0.07-0.02-0.09-0.02c-0.04,0-0.06,0.01-0.08,0.04c-0.38,0.49-0.96,0.75-1.67,0.75c-0.44,0-0.82-0.1-1.02-0.15 l-0.09-0.03l-0.08-0.07c-0.23-0.28-1.97-2.5-1.56-4.05c0.16-0.59,0.62-1.02,1.37-1.28c0.44-0.15,0.87-0.23,1.29-0.23 c0.67,0,1.29,0.2,1.86,0.59c1.69,1.18,3.74,4.69,3.92,14.74c0,0.04,0.02,0.07,0.05,0.1c0.04,0.03,0.85,0.68,1.7,0.68 c0.18,0,0.35-0.03,0.51-0.09c0.62-0.23,1.03-0.9,1.22-1.99c0.07-1.44-0.42-5.52-0.64-7.2l-0.02-0.18l0.24-0.27l0.19,0 l0.09,0.01c0.31,0.08,0.65,0.12,1.02,0.12c0.37,0,0.76-0.04,1.17-0.12c0.17-0.03,0.35-0.08,0.54-0.13 c0.07-0.02,0.11-0.09,0.09-0.16c-0.02-0.07-0.08-0.1-0.12-0.1c-0.62,0.16-1.17,0.24-1.67,0.24c-0.92,0-1.44-0.27-1.62-0.38 l-0.11-0.1c-0.16-0.21-1.51-2.1-1.05-3.57c0.21-0.69,0.78-1.18,1.73-1.48c0.36-0.12,0.72-0.17,1.06-0.17 c0.21,0,0.42,0.02,0.62,0.07c2.89,0.67,3,5.05,2.8,7.6l-0.02,0.31l-0.31,0.06c-0.47,0.08-1.13,0.28-1.62,0.81 c-0.47,0.5-0.67,1.2-0.61,2.05c0.08,1.12,0.62,2.16,1.47,2.83l0.19,0.15l-0.04,0.25l-0.64,1.98c-0.17,0.52,0,1.07,0.4,1.32 c0.18,0.11,0.39,0.17,0.59,0.17c0.07,0,0.14-0.01,0.2-0.02c0.09-0.02,0.19-0.05,0.28-0.09c0.02-0.02,0.35-0.34,0.63-0.89 l0.65-2.12l0.22-0.06c0.52-0.1,0.98-0.32,1.39-0.66c0.06-0.05,0.06-0.13,0.02-0.18c-0.03-0.04-0.08-0.05-0.1-0.05 c-0.58,0.45-1.17,0.67-1.79,0.67c-0.37,0-0.73-0.08-1.09-0.23c-1.18-0.5-2.02-1.72-2.12-3.1c-0.06-0.78,0.12-1.41,0.54-1.85 c0.57-0.62,1.42-0.74,1.76-0.77l0.07-0.01l0.07,0.02c0.58,0.18,3.52,1.2,4.74,3.86c0.83,1.83,0.67,4.04-0.48,6.58l-0.1,0.23 c0,0-0.27,0.01-0.27,0.01c-0.82,0-2.15,0.12-2.94,0.91c-0.5,0.5-0.71,1.18-0.62,2.03c0.16,1.58,1.03,2.11,1.54,2.28 c0.25,0.08,0.53,0.13,0.82,0.13c0.08,0,0.16,0,0.24-0.01l0.3-0.02l0.1,0.28c0.13,0.37,0.24,1.12-0.5,1.98l-0.24,0.48l0.25-0.3 l0.11,0.03c0.85-0.94,0.77-1.76,0.66-2.17l-0.1-0.36l0.36-0.13c0.64-0.22,1.25-0.61,1.67-1.06c0.05-0.05,0.05-0.13-0.01-0.18 c-0.05-0.02-0.08-0.02-0.11-0.02c-0.03,0-0.05,0.01-0.07,0.03c-0.68,0.72-1.72,1.18-2.66,1.18c-0.26,0-0.51-0.04-0.73-0.11 c-0.55-0.19-1.23-0.69-1.37-2.06c-0.08-0.77,0.1-1.38,0.54-1.82c0.76-0.76,2.11-0.84,2.65-0.84c0.12,0,0.23,0,0.32,0.01 l0.08,0.01l0.08,0.04c0.47,0.25,2.77,1.64,3.63,4.71c1.01,3.57-0.2,8.04-3.6,13.27c-0.06,0.11-0.59,0.91-2.24,1.23 c-0.07,0.01-0.12,0.08-0.1,0.15c0.01,0.07,0.07,0.1,0.13,0.1c0.72-0.14,1.31-0.37,1.77-0.69l0.49-0.34l4.69,23.87l-0.24,0.3 l-0.26,0l-2.1-0.68c-0.01,0-0.02,0-0.03,0c-0.08,0-0.12,0.03-0.14,0.07l-1.94,3.48l-0.24,0.01h-0.16l-0.12-0.12 c-1.05-1.02-1.93-1.83-2.26-2.09c0,0-2.65,4.56-2.65,4.56l-0.36,0.01L109.95,148.01z" style="fill:url(#SVGID_9_);"/>
          <path d="M97.78,80.84c0.59,0,1.13,0.17,1.63,0.52c1.61,1.12,3.57,4.54,3.75,14.43 c0,0.15,0.07,0.3,0.19,0.39c0.11,0.09,0.98,0.77,1.94,0.77c0.21,0,0.43-0.03,0.65-0.11c0.76-0.28,1.26-1.05,1.47-2.29 c0-0.02,0.01-0.04,0.01-0.06c0.07-1.44-0.41-5.42-0.64-7.26c0-0.01,0-0.01,0.01-0.01c0,0,0,0,0,0c0.3,0.08,0.67,0.13,1.12,0.13 c0.36,0,0.78-0.04,1.25-0.13c0.18-0.04,0.37-0.08,0.57-0.13c0.28-0.07,0.44-0.36,0.37-0.64c-0.06-0.23-0.27-0.39-0.5-0.39 c-0.04,0-0.09,0.01-0.14,0.02c-0.61,0.16-1.12,0.22-1.53,0.22c-0.84,0-1.29-0.24-1.41-0.32c0,0,0,0,0,0 c-0.43-0.58-1.33-2.13-0.99-3.23c0.18-0.56,0.66-0.96,1.48-1.23c0.32-0.1,0.64-0.16,0.94-0.16c0.18,0,0.36,0.02,0.53,0.06 c2.65,0.61,2.67,4.93,2.5,7.19c0,0.01,0,0.01-0.01,0.01c-0.5,0.08-1.27,0.31-1.84,0.93c-0.54,0.59-0.79,1.38-0.71,2.35 c0.09,1.25,0.7,2.38,1.62,3.11c0,0,0.01,0.01,0,0.01l-0.63,1.94c-0.21,0.65-0.01,1.41,0.57,1.78c0.25,0.15,0.52,0.23,0.79,0.23 c0.09,0,0.19-0.01,0.28-0.03c0.13-0.03,0.26-0.07,0.38-0.13c0.08-0.04,0.49-0.43,0.8-1.07l0.61-1.97c0,0,0-0.01,0.01-0.01 c0.55-0.1,1.08-0.35,1.55-0.74c0.22-0.18,0.25-0.51,0.07-0.73c-0.1-0.12-0.25-0.19-0.4-0.19c-0.12,0-0.24,0.04-0.33,0.12 c-0.43,0.36-0.94,0.55-1.46,0.55c-0.31,0-0.62-0.06-0.93-0.2c-1.05-0.45-1.79-1.53-1.88-2.77c-0.05-0.67,0.1-1.19,0.43-1.56 c0.49-0.53,1.27-0.63,1.51-0.64c0.49,0.15,3.35,1.13,4.5,3.65c0.79,1.72,0.62,3.83-0.48,6.25c0,0-0.01,0.01-0.01,0.01l0,0 c-0.03,0-0.06,0-0.1,0c-0.76,0-2.22,0.13-3.12,1.03c-0.58,0.59-0.83,1.37-0.73,2.35c0.18,1.8,1.21,2.41,1.8,2.61 c0.3,0.1,0.62,0.15,0.94,0.15c0.09,0,0.18,0,0.27-0.01c0.11,0.32,0.17,0.9-0.43,1.6c-0.19,0.22-0.16,0.55,0.05,0.73 c0.1,0.08,0.22,0.13,0.34,0.13c0.03,0,0.07,0,0.1-0.01c0.11-0.02,0.21-0.08,0.29-0.17c0.8-0.93,0.84-1.84,0.67-2.49 c0-0.01,0-0.01,0.01-0.01c0.72-0.25,1.38-0.68,1.83-1.16c0.2-0.21,0.19-0.54-0.02-0.74c-0.1-0.09-0.23-0.14-0.36-0.14 c-0.14,0-0.28,0.05-0.38,0.16c-0.61,0.65-1.58,1.06-2.38,1.06c-0.22,0-0.42-0.03-0.6-0.09c-0.64-0.22-1.01-0.8-1.1-1.73 c-0.07-0.65,0.08-1.15,0.43-1.51c0.59-0.6,1.7-0.73,2.38-0.73c0.11,0,0.21,0,0.29,0.01c0,0,0,0,0,0 c0.44,0.24,2.61,1.55,3.43,4.47c0.97,3.46-0.22,7.82-3.55,12.95c0,0-0.01,0.01-0.01,0.02c0,0-0.01,0.01-0.01,0.01 c-0.03,0.04-0.47,0.74-1.97,1.03c-0.28,0.06-0.47,0.33-0.41,0.61c0.05,0.25,0.27,0.42,0.51,0.42c0.03,0,0.07,0,0.1-0.01 c0.87-0.17,1.48-0.47,1.9-0.75l0.13,0.66l4.41,22.43c0,0.01,0,0.01-0.01,0.01c0,0,0,0,0,0l-2.04-0.66 c-0.05-0.02-0.11-0.03-0.16-0.03c-0.19,0-0.37,0.1-0.46,0.27l-1.83,3.28c0,0.01-0.01,0.01-0.01,0.01c0,0,0,0,0,0 c-0.12-0.12-2.32-2.25-2.5-2.25c0,0,0,0,0,0c-0.16,0.02-0.3,0.11-0.38,0.25l-2.53,4.36c0,0-0.01,0.01-0.01,0.01 c0,0-0.01,0-0.01,0l-2.73-2.04c0,0,0,0,0-0.01l-4.4-22.36c0-0.01,0-0.01,0.01-0.01c0,0,0,0,0,0c0.2,0.02,0.43,0.04,0.68,0.04 c0.34,0,0.72-0.03,1.11-0.11c0.72-0.14,1.5-0.45,2.23-1.04c0.22-0.18,0.26-0.51,0.07-0.73c-0.1-0.13-0.25-0.19-0.4-0.19 c-0.12,0-0.23,0.04-0.33,0.12c-0.9,0.73-1.93,0.91-2.7,0.91c-0.63,0-1.1-0.12-1.18-0.14c0,0,0,0,0,0l0,0 c-0.36-0.14-8.81-3.44-13.97-11.57c-0.91-1.43-0.79-3.29,0.28-4.51c0.5-0.57,1.07-0.86,1.73-0.86c0.4,0,0.82,0.1,1.29,0.31 c1.14,0.47,1.31,1.07,1.31,1.07c0.56,1.8,2.15,6.44,3.23,7.15c0.1,0.1,0.23,0.15,0.37,0.15c0.13,0,0.27-0.05,0.37-0.15 c0.2-0.2,0.2-0.53,0-0.74c-0.96-0.94-1.44-1.9-1.76-2.85c0-0.01,0-0.01,0.01-0.01c0.69-0.32,1.94-1.1,2.95-2.83 c1.3-2.21,2.41-6.37,0.83-13.9c0,0,0,0,0,0c0.06,0-0.5-2.15-0.6-2.54l-1.15-3.96c0.15,0.02,0.31,0.03,0.48,0.03 c0.2,0,0.42-0.02,0.64-0.06c0.54-0.11,1.1-0.38,1.54-0.94c0.18-0.23,0.13-0.55-0.1-0.73c-0.09-0.07-0.21-0.11-0.32-0.11 c-0.16,0-0.31,0.07-0.41,0.2c-0.36,0.47-0.89,0.6-1.36,0.6c-0.39,0-0.73-0.09-0.91-0.14c0,0,0,0-0.01,0 c-0.59-0.73-1.77-2.51-1.45-3.67c0.13-0.46,0.49-0.79,1.12-1.02C97.02,80.91,97.41,80.84,97.78,80.84 M102.54,122.12 L102.54,122.12 M97.78,80.06c-0.46,0-0.93,0.09-1.42,0.25c-0.88,0.31-1.43,0.83-1.62,1.55c-0.46,1.7,1.25,3.93,1.6,4.36 l0.07,0.09l0.23,0.79l1.15,3.96c0.12,0.45,0.27,1.05,0.39,1.54h0l0.2,0.94c1.54,7.37,0.45,11.32-0.74,13.34 c-0.92,1.56-2.03,2.25-2.61,2.51l-0.06,0.03c-0.36-0.94-0.73-2-1.07-3.1c-0.04-0.14-0.34-0.98-1.76-1.56 c-0.54-0.24-1.08-0.37-1.58-0.37c-0.89,0-1.67,0.38-2.32,1.13c-1.3,1.49-1.44,3.73-0.35,5.45c5.3,8.35,13.98,11.74,14.35,11.88 l0.04,0.01l0.04,0.01c0.01,0,0.01,0,0.02,0l-0.15,0.18l0.07,0.37l4.4,22.36l0.06,0.3l0.25,0.19l2.73,2.04l0.21,0.16l0.27,0 h0.45l0.24-0.4l2.3-3.96c0.47,0.42,1.22,1.13,1.89,1.78l0.23,0.22l0.32,0h0.46l0.23-0.42l1.73-3.1l1.85,0.6l0.12,0.04l0.13,0 h0.37l0.24-0.29l0.23-0.28l-0.07-0.37l-4.41-22.43l-0.13-0.66l-0.17-0.84c3.42-5.3,4.62-9.84,3.59-13.5 c-0.85-3.02-3.04-4.49-3.7-4.88l0.05-0.11c1.2-2.64,1.36-4.97,0.48-6.9c-1.22-2.67-4.06-3.77-4.87-4.04l0.02-0.23 c0.36-4.62-0.75-7.46-3.1-8.01c-0.23-0.05-0.46-0.08-0.7-0.08c-0.38,0-0.78,0.06-1.18,0.19c-1.07,0.34-1.73,0.93-1.99,1.74 c-0.52,1.66,0.94,3.7,1.11,3.92l0.08,0.11l0.12,0.08c0.03,0.02,0.06,0.04,0.11,0.06l-0.23,0.26l0.04,0.36 c0.45,3.54,0.69,6.14,0.64,7.12c-0.16,0.91-0.49,1.48-0.97,1.66c-0.12,0.04-0.24,0.07-0.38,0.07c-0.51,0-1.06-0.31-1.35-0.52 c-0.16-8.13-1.53-13.15-4.08-14.93C99.23,80.28,98.53,80.06,97.78,80.06L97.78,80.06z M110.77,98.2 c-0.13,0-0.26-0.04-0.38-0.11c-0.25-0.15-0.35-0.53-0.24-0.87l0.63-1.94l0.02-0.06c0.08,0.04,0.15,0.07,0.23,0.11 c0.35,0.15,0.7,0.23,1.06,0.25l-0.59,1.89c-0.19,0.36-0.4,0.6-0.49,0.69c-0.04,0.01-0.08,0.03-0.12,0.03 C110.86,98.2,110.82,98.2,110.77,98.2L110.77,98.2z" style="fill:#709921;"/>
        </g>
        <path d="M106.53,117.91c0,0.33,0.26,0.59,0.58,0.6c0.01,0,0.02,0,0.02,0c0.31-0.01,0.57-0.26,0.57-0.58 c0.08-6.05,3.79-7.03,3.83-7.04c0.32-0.08,0.51-0.4,0.43-0.71c-0.08-0.32-0.4-0.51-0.71-0.43 C111.07,109.79,106.63,110.96,106.53,117.91z" style="fill:#709921;"/>
      </g>
      <g>
        <path d="M39.15,106.04c-0.8-0.92-1.79-1.1-3.02-0.55c-0.53,0.31-0.9,0.66-1.18,1.06 c-0.13,0.33-0.88,2.51,0.99,5.06c0.17,0.23,0.12,0.56-0.11,0.73c-0.12,0.09-0.27,0.12-0.41,0.09c-0.12-0.02-0.24-0.09-0.32-0.2 c-0.66-0.9-1.04-1.77-1.25-2.56c-0.35,1.28-0.87,2.68-2.26,4.05c-0.2,0.2-0.53,0.2-0.74,0c-0.2-0.2-0.2-0.53,0-0.74 c0.96-0.95,1.44-1.91,1.77-2.86c-0.69-0.32-1.94-1.09-2.96-2.83c-1.3-2.21-2.41-6.37-0.83-13.9c-0.07,0.02-0.13,0.04-0.21,0.05 c-0.36,0.08-0.73,0.07-1.13,0c-0.58-0.11-1.2-0.4-1.86-0.85c-0.24-0.16-0.3-0.49-0.13-0.72c0.16-0.24,0.49-0.3,0.72-0.13 c0.83,0.57,1.57,0.81,2.16,0.69c0.43-0.09,0.67-0.34,0.76-0.44c0.09-0.37,0.18-0.75,0.29-1.13l1.15-3.96 c-0.33,0.04-0.72,0.05-1.12-0.03c-0.54-0.11-1.1-0.37-1.54-0.94c-0.17-0.23-0.13-0.55,0.1-0.73c0.23-0.17,0.55-0.13,0.73,0.1 c0.66,0.86,1.89,0.57,2.27,0.46c0.59-0.72,1.77-2.51,1.46-3.67c-0.13-0.46-0.49-0.79-1.12-1.02c-1.03-0.36-1.97-0.26-2.79,0.31 c-1.61,1.12-3.57,4.54-3.75,14.43c0,0.15-0.07,0.3-0.19,0.39c-0.14,0.11-1.4,1.1-2.59,0.66c-0.76-0.28-1.26-1.05-1.47-2.29 c0-0.02-0.01-0.04-0.01-0.06c-0.07-1.45,0.41-5.45,0.64-7.27c-0.54,0.14-1.32,0.22-2.38,0.01c-0.18-0.04-0.37-0.08-0.57-0.13 c-0.28-0.07-0.44-0.36-0.37-0.64c0.07-0.28,0.36-0.44,0.64-0.37c1.87,0.5,2.77,0.02,2.95-0.1c0.43-0.58,1.33-2.13,0.99-3.23 c-0.18-0.56-0.66-0.96-1.48-1.23c-0.52-0.17-1.03-0.2-1.47-0.1c-2.65,0.61-2.67,4.95-2.5,7.19c0.49,0.08,1.27,0.31,1.85,0.93 c0.54,0.59,0.79,1.38,0.71,2.35c-0.09,1.25-0.7,2.39-1.62,3.12l0.66,2.04c0.25,0.76-0.15,1.56-0.91,1.83 c-0.25,0.09-0.51,0.11-0.77,0.06c-0.13-0.03-0.26-0.07-0.38-0.13c-0.08-0.04-0.16-0.09-0.23-0.15c-0.1,0.09-0.23,0.17-0.37,0.24 c-0.3,0.13-0.63,0.16-0.99,0.09c-0.2-0.04-0.4-0.11-0.62-0.21c-0.26-0.12-0.37-0.43-0.25-0.69s0.43-0.37,0.69-0.25 c0.22,0.1,0.52,0.2,0.75,0.11c0.11-0.05,0.18-0.14,0.23-0.21l-0.61-1.97c-0.55-0.1-1.08-0.35-1.55-0.74 c-0.22-0.18-0.25-0.51-0.07-0.73c0.18-0.22,0.51-0.25,0.73-0.07c0.69,0.58,1.56,0.7,2.39,0.35c1.05-0.45,1.79-1.53,1.88-2.77 c0.05-0.67-0.1-1.19-0.43-1.56c-0.49-0.53-1.27-0.63-1.51-0.64c-0.49,0.15-3.35,1.13-4.5,3.65c-0.79,1.73-0.62,3.83,0.48,6.26 c0.72-0.01,2.28,0.08,3.23,1.03c0.58,0.59,0.83,1.37,0.73,2.35c-0.18,1.8-1.21,2.41-1.8,2.61c-0.39,0.13-0.8,0.17-1.21,0.14 c-0.11,0.32-0.17,0.9,0.43,1.6c0.19,0.22,0.16,0.55-0.05,0.73c-0.13,0.11-0.29,0.15-0.44,0.12c-0.11-0.02-0.21-0.08-0.29-0.17 c-0.81-0.93-0.84-1.85-0.66-2.5c-0.73-0.25-1.39-0.68-1.84-1.16c-0.2-0.21-0.19-0.54,0.02-0.74c0.21-0.2,0.54-0.19,0.74,0.02 c0.78,0.83,2.12,1.26,2.98,0.97c0.64-0.22,1.01-0.8,1.1-1.73c0.07-0.65-0.08-1.15-0.43-1.51c-0.69-0.7-2.08-0.76-2.67-0.72 c-0.43,0.24-2.61,1.55-3.43,4.47C8,108.51,9.19,112.87,12.53,118c0,0,0.01,0.01,0.01,0.02c0,0,0.01,0.01,0.01,0.01 c0.03,0.04,0.47,0.74,1.97,1.03c0.28,0.06,0.47,0.33,0.41,0.61c-0.06,0.28-0.33,0.47-0.61,0.41c-0.87-0.17-1.48-0.47-1.9-0.75 L12.28,120l2.05,1.91c1.62,1.51,2.33,3.71,1.91,5.88l-0.42,2.12c-0.16,0.81-0.95,1.34-1.76,1.18c-0.81-0.16-1.35-0.95-1.19-1.77 l0.3-1.53c0.01-0.06-0.02-0.13-0.06-0.15c-0.05-0.02-0.09,0-0.11,0.01c-0.01,0.01-0.04,0.03-0.04,0.07l-1.32,6.71 c-0.28,1.43-1.37,2.56-2.77,2.91l-1,5.1l2.07-0.67c0.24-0.08,0.49,0.02,0.61,0.24l1.85,3.31l2.07-2.11 c0.11-0.12,0.28-0.17,0.44-0.15c0.16,0.02,0.3,0.11,0.38,0.25l2.54,4.37l2.74-2.05l3.01-15.33l-3.35-0.66 c-0.81-0.16-1.44-0.72-1.7-1.5c-0.26-0.78-0.09-1.6,0.46-2.2c1.62-1.8,4.17-1.95,5.81-1.83l0.17-0.86 c-0.47,0.05-1.11,0.07-1.81-0.07c-0.72-0.14-1.5-0.45-2.23-1.04c-0.22-0.18-0.26-0.51-0.07-0.73c0.18-0.22,0.51-0.26,0.73-0.07 c1.64,1.34,3.7,0.82,3.88,0.77c0.35-0.14,8.81-3.44,13.97-11.57C40.34,109.13,40.23,107.27,39.15,106.04z M19.53,118.69 c-0.01,0-0.01,0-0.02,0c-0.27-0.05-0.46-0.31-0.41-0.59c0.83-5.27-2.25-6.68-2.28-6.69c-0.26-0.11-0.38-0.42-0.27-0.68 c0.11-0.26,0.42-0.38,0.68-0.27c0.16,0.07,3.84,1.75,2.89,7.8C20.08,118.54,19.81,118.74,19.53,118.69z" style="fill:none;"/>
        <path d="M16.25,95.8c0.27-0.04,0.53-0.12,0.8-0.23l0.59,1.82c0.07,0.22-0.04,0.45-0.26,0.53 c-0.11,0.04-0.23,0.03-0.33-0.02c-0.1-0.05-0.18-0.14-0.21-0.25L16.25,95.8z" style="fill:none;"/>
        <path d=" M40.31,111.11c-4.97,7.82-12.66,11.25-14.23,11.88l-0.35,1.79l-1.03,5.22l-3.15,16.04c-0.02,0.13-0.1,0.24-0.2,0.32l-3.37,2.52 c-0.12,0.09-0.27,0.12-0.41,0.09c0,0,0,0,0,0c-0.15-0.03-0.27-0.12-0.35-0.25l-2.48-4.28l-2.08,2.11 c-0.11,0.12-0.28,0.17-0.44,0.15c-0.16-0.02-0.31-0.12-0.38-0.26l-1.98-3.54l-2.51,0.81c-0.18,0.06-0.37,0.02-0.51-0.11 c-0.14-0.12-0.2-0.31-0.17-0.49l1.24-6.3l3.29-16.73l0.33-1.69c-3.42-5.33-4.62-9.92-3.56-13.65c0.81-2.85,2.73-4.34,3.61-4.89 c-1.19-2.67-1.33-5.03-0.42-7.02c1.19-2.59,3.8-3.74,4.82-4.1c-0.39-4.78,0.78-7.73,3.3-8.31c0.63-0.14,1.33-0.1,2.02,0.12 c1.15,0.37,1.88,1.01,2.16,1.91c0.52,1.66-0.76,3.61-1.12,4.11c-0.12,0.9-0.81,6.18-0.74,7.84c0.11,0.58,0.33,1.28,0.81,1.46 c0.44,0.17,1.05-0.13,1.39-0.35c0.17-8.14,1.58-13.19,4.19-15c1.09-0.76,2.38-0.91,3.73-0.44c0.97,0.34,1.57,0.92,1.79,1.73 c0.49,1.83-1.25,4.11-1.69,4.64l-1.37,4.69c-2.23,8.44-1.28,12.95-0.09,15.25c0.87,1.67,1.96,2.42,2.57,2.73 c0.04-0.14,0.07-0.29,0.11-0.43c0.4-1.58,0.78-3.07,2.6-4.11c0.01-0.01,0.03-0.02,0.04-0.02c2.1-0.95,3.47-0.09,4.25,0.8 C41.31,106.93,41.46,109.3,40.31,111.11z" style="fill:none;stroke:#709921;stroke-width:0.7821;stroke-linecap:round;stroke-linejoin:round;stroke-miterlimit:10;"/>
        <g>
          <linearGradient id="SVGID_10_" gradientTransform="matrix(0.9812 0.1929 -0.1929 0.9812 2.7949 -168.0794)" gradientUnits="userSpaceOnUse" x1="74.3565" x2="74.3565" y1="238.6398" y2="302.4225">
            <stop offset="0" style="stop-color:#68E005"/>
            <stop offset="0.071" style="stop-color:#6EDB0B"/>
            <stop offset="0.349" style="stop-color:#7FCB1C"/>
            <stop offset="0.6475" style="stop-color:#89C227"/>
            <stop offset="1" style="stop-color:#8CBF2A"/>
          </linearGradient>
          <path d="M17.62,148.08l-0.13-0.18c0,0-2.55-4.39-2.55-4.39c-0.29,0.23-1.04,0.91-2.24,2.07 l-0.11,0.11l-0.19,0.03h-0.23l-1.95-3.5c-0.02-0.04-0.07-0.07-0.12-0.07l-2.14,0.69l-0.25,0l-0.24-0.29l0.03-0.19l4.66-23.68 l0.49,0.34c0.46,0.32,1.05,0.55,1.75,0.69c0,0,0,0,0.01,0c0.07,0,0.13-0.04,0.14-0.1l-0.1-0.15c-1.61-0.32-2.14-1.07-2.23-1.21 c-3.41-5.25-4.62-9.72-3.61-13.29c0.86-3.07,3.17-4.46,3.62-4.71l0.09-0.05l0.1,0c0.06-0.01,0.17-0.01,0.29-0.01 c0.55,0,1.9,0.08,2.65,0.84c0.44,0.44,0.62,1.06,0.54,1.82c-0.14,1.37-0.82,1.88-1.36,2.06c-0.22,0.07-0.46,0.11-0.73,0.11 c-0.94,0-1.99-0.46-2.67-1.19c-0.03-0.04-0.07-0.04-0.09-0.04c-0.14,0.08-0.14,0.17-0.09,0.22c0.42,0.45,1.03,0.83,1.68,1.06 l0.34,0.12l-0.08,0.36c-0.12,0.42-0.19,1.24,0.58,2.14l0.1,0.04l0.13-0.12c-0.77-0.95-0.67-1.71-0.54-2.08l0.1-0.28l0.3,0.02 c0.08,0.01,0.16,0.01,0.24,0.01c0.29,0,0.57-0.04,0.82-0.13c0.51-0.17,1.38-0.7,1.54-2.28c0.09-0.85-0.12-1.53-0.62-2.03 c-0.79-0.8-2.12-0.91-2.85-0.91c0,0,0,0,0,0c-0.26,0-0.41-0.1-0.47-0.25c-1.14-2.52-1.3-4.73-0.47-6.56 c1.21-2.66,4.16-3.68,4.74-3.86l0.07-0.02l0.07,0.01c0.34,0.03,1.2,0.15,1.76,0.77c0.41,0.45,0.59,1.07,0.54,1.85 c-0.1,1.38-0.93,2.6-2.12,3.1c-0.35,0.15-0.72,0.23-1.08,0.23c-0.62,0-1.21-0.22-1.71-0.64c-0.04-0.01-0.08-0.02-0.1-0.02 c-0.04,0-0.06,0.01-0.08,0.03l0.02,0.18c0.41,0.34,0.87,0.56,1.37,0.65l0.22,0.04l0.09,0.21l0.62,1.99 c0.25,0.49,0.58,0.81,0.64,0.85c0.06,0.03,0.15,0.06,0.25,0.08c0.07,0.01,0.13,0.02,0.2,0.02c0.2,0,0.41-0.06,0.59-0.17 c0.4-0.25,0.57-0.8,0.4-1.32l-0.71-2.21l0.23-0.18c0.84-0.67,1.38-1.7,1.46-2.83c0.06-0.86-0.14-1.55-0.61-2.06 c-0.49-0.52-1.15-0.73-1.62-0.81l-0.3-0.05l-0.04-0.31c-0.2-2.55-0.09-6.93,2.8-7.6c0.2-0.04,0.4-0.07,0.62-0.07 c0.34,0,0.7,0.06,1.06,0.17c0.95,0.3,1.52,0.79,1.73,1.48c0.46,1.47-0.89,3.36-1.05,3.58l-0.04,0.05l-0.06,0.04 c-0.19,0.12-0.71,0.39-1.63,0.39c-0.5,0-1.05-0.08-1.63-0.24c-0.01,0-0.01,0-0.02,0c-0.07,0-0.12,0.03-0.14,0.09 c-0.02,0.07,0.02,0.14,0.09,0.16c0.19,0.05,0.37,0.09,0.54,0.13c0.41,0.08,0.81,0.12,1.17,0.12s0.71-0.04,1.02-0.12l0.05-0.01 l0.23,0l0.24,0.26l-0.02,0.18c-0.22,1.69-0.71,5.77-0.64,7.2c0.19,1.1,0.61,1.77,1.23,2c0.16,0.06,0.33,0.09,0.51,0.09 c0.85,0,1.66-0.66,1.7-0.68c0.03-0.02,0.05-0.06,0.05-0.1c0.18-10.05,2.23-13.56,3.92-14.74c0.57-0.39,1.19-0.59,1.86-0.59 c0.41,0,0.85,0.08,1.29,0.23c0.75,0.26,1.21,0.7,1.37,1.28c0.42,1.54-1.33,3.77-1.53,4.02l-0.07,0.09l-0.11,0.04 c-0.21,0.06-0.59,0.16-1.03,0.16c-0.72,0-1.3-0.26-1.67-0.75c-0.04-0.05-0.08-0.05-0.1-0.05l-0.13,0.11 c0.35,0.52,0.79,0.79,1.33,0.89c0.19,0.04,0.38,0.05,0.56,0.05c0.15,0,0.3-0.01,0.44-0.03l0.59-0.07l-1.32,4.53 c-0.15,0.56-0.39,1.5-0.51,2.04h0.02l-0.1,0.47c-1.57,7.49-0.44,11.54,0.78,13.62c0.97,1.66,2.16,2.38,2.78,2.67l0.3,0.14 l-0.09,0.34c-0.42,1.23-0.99,2.16-1.86,3.02c-0.05,0.05-0.05,0.13,0,0.18l0.09,0.04l0.03-0.03l0.12-0.06 c0.75-0.5,2.11-3.87,3.07-6.95c0.04-0.13,0.3-0.81,1.53-1.32c0.5-0.22,0.98-0.34,1.43-0.34c0.77,0,1.45,0.33,2.03,0.99 c1.18,1.36,1.31,3.41,0.31,4.98c-5.23,8.24-13.8,11.58-14.16,11.72c-0.13,0.04-0.64,0.17-1.32,0.17c-0.79,0-1.94-0.17-2.95-1 c-0.04-0.01-0.07-0.02-0.1-0.02c-0.04,0-0.06,0.01-0.08,0.04c-0.04,0.05-0.03,0.14,0.02,0.18c0.6,0.49,1.29,0.81,2.06,0.96 c0.33,0.07,0.68,0.1,1.04,0.1c0.23,0,0.45-0.01,0.64-0.04l0.21-0.02l0.26,0.31l-0.03,0.19l-4.42,22.5l-0.12,0.1l-2.84,2.12 l-0.14,0H17.62z" style="fill:url(#SVGID_10_);"/>
          <path d="M30.22,80.84c0.37,0,0.76,0.07,1.16,0.21c0.63,0.22,1,0.55,1.12,1.02 c0.31,1.16-0.87,2.94-1.45,3.67c0,0,0,0-0.01,0c-0.17,0.05-0.52,0.14-0.91,0.14c-0.47,0-1-0.13-1.36-0.6 c-0.1-0.13-0.26-0.2-0.41-0.2c-0.11,0-0.22,0.04-0.32,0.11c-0.23,0.17-0.27,0.5-0.1,0.73c0.43,0.57,0.99,0.84,1.54,0.94 c0.22,0.04,0.43,0.06,0.64,0.06c0.17,0,0.33-0.01,0.48-0.03l-1.15,3.96c-0.1,0.38-0.66,2.54-0.6,2.54c0,0,0,0,0,0 c-1.58,7.53-0.47,11.69,0.83,13.9c1.02,1.73,2.26,2.51,2.95,2.83c0.01,0,0.01,0.01,0.01,0.01c-0.32,0.95-0.81,1.9-1.76,2.85 c-0.2,0.2-0.21,0.53,0,0.74c0.1,0.1,0.24,0.15,0.37,0.15c0.13,0,0.26-0.05,0.37-0.15c1.08-0.71,2.67-5.35,3.23-7.15 c0,0,0.17-0.6,1.31-1.07c0.46-0.21,0.89-0.31,1.29-0.31c0.66,0,1.23,0.29,1.73,0.86c1.07,1.23,1.18,3.08,0.28,4.51 c-5.16,8.12-13.61,11.43-13.97,11.57c0,0,0,0,0,0c-0.08,0.02-0.55,0.14-1.18,0.14c-0.77,0-1.8-0.17-2.7-0.91 c-0.1-0.08-0.21-0.12-0.33-0.12c-0.15,0-0.3,0.07-0.4,0.19c-0.18,0.22-0.15,0.55,0.07,0.73c0.73,0.6,1.51,0.9,2.23,1.04 c0.4,0.08,0.78,0.11,1.11,0.11c0.25,0,0.48-0.02,0.68-0.04c0,0,0,0,0,0c0.01,0,0.01,0.01,0.01,0.01l-4.4,22.36 c0,0,0,0.01,0,0.01l-2.73,2.04c0,0,0,0-0.01,0c0,0-0.01,0-0.01-0.01l-2.53-4.36c-0.08-0.14-0.22-0.24-0.38-0.25c0,0,0,0,0,0 c-0.17,0-2.37,2.13-2.5,2.25c0,0,0,0,0,0c0,0-0.01-0.01-0.01-0.01l-1.83-3.28c-0.1-0.17-0.28-0.27-0.46-0.27 c-0.05,0-0.11,0.01-0.16,0.03l-2.04,0.66c0,0,0,0,0,0c-0.01,0-0.01-0.01-0.01-0.01L12.29,120l0.13-0.66 c0.41,0.29,1.02,0.58,1.9,0.75c0.03,0.01,0.07,0.01,0.1,0.01c0.24,0,0.46-0.17,0.51-0.42c0.06-0.28-0.13-0.56-0.41-0.61 c-1.5-0.3-1.94-0.99-1.97-1.03c0-0.01-0.01-0.01-0.01-0.01c0-0.01-0.01-0.01-0.01-0.02c-3.33-5.14-4.53-9.49-3.55-12.95 c0.82-2.91,3-4.23,3.43-4.47c0,0,0,0,0,0c0.08-0.01,0.18-0.01,0.29-0.01c0.67,0,1.78,0.13,2.38,0.73 c0.36,0.36,0.5,0.85,0.43,1.51c-0.1,0.93-0.47,1.52-1.1,1.73c-0.18,0.06-0.39,0.09-0.6,0.09c-0.8,0-1.77-0.41-2.38-1.06 c-0.1-0.11-0.24-0.16-0.38-0.16c-0.13,0-0.26,0.05-0.36,0.14c-0.21,0.2-0.22,0.53-0.02,0.74c0.45,0.48,1.11,0.91,1.83,1.16 c0.01,0,0.01,0.01,0.01,0.01c-0.18,0.64-0.14,1.56,0.67,2.49c0.08,0.09,0.18,0.15,0.29,0.17c0.03,0.01,0.07,0.01,0.1,0.01 c0.12,0,0.24-0.04,0.34-0.13c0.22-0.19,0.24-0.52,0.05-0.73c-0.6-0.7-0.54-1.28-0.43-1.6c0.09,0.01,0.18,0.01,0.27,0.01 c0.32,0,0.64-0.05,0.94-0.15c0.59-0.2,1.62-0.81,1.8-2.61c0.1-0.97-0.15-1.76-0.73-2.35c-0.9-0.9-2.37-1.03-3.12-1.03 c-0.03,0-0.07,0-0.1,0l0,0c0,0-0.01,0-0.01-0.01c-1.1-2.43-1.26-4.53-0.48-6.25c1.15-2.52,4.01-3.5,4.5-3.65 c0.23,0.02,1.01,0.11,1.51,0.64c0.34,0.37,0.48,0.89,0.43,1.56c-0.09,1.24-0.83,2.32-1.88,2.77c-0.31,0.13-0.62,0.2-0.93,0.2 c-0.52,0-1.03-0.19-1.46-0.55c-0.1-0.08-0.22-0.12-0.33-0.12c-0.15,0-0.3,0.06-0.4,0.19c-0.18,0.22-0.15,0.55,0.07,0.73 c0.47,0.39,0.99,0.64,1.55,0.74c0,0,0.01,0,0.01,0.01l0.61,1.97c0.31,0.63,0.72,1.02,0.8,1.07c0.12,0.06,0.25,0.1,0.38,0.13 c0.09,0.02,0.19,0.03,0.28,0.03c0.27,0,0.54-0.08,0.79-0.23c0.58-0.36,0.78-1.12,0.57-1.78l-0.63-1.94c0,0,0-0.01,0-0.01 c0.92-0.73,1.52-1.86,1.62-3.11c0.07-0.97-0.17-1.76-0.71-2.35c-0.57-0.62-1.34-0.84-1.84-0.93c-0.01,0-0.01,0-0.01-0.01 c-0.17-2.25-0.15-6.58,2.5-7.19c0.17-0.04,0.35-0.06,0.53-0.06c0.3,0,0.62,0.05,0.94,0.16c0.82,0.26,1.3,0.66,1.48,1.23 c0.34,1.1-0.56,2.65-0.99,3.23c0,0,0,0,0,0c-0.12,0.08-0.57,0.32-1.41,0.32c-0.41,0-0.92-0.06-1.53-0.22 c-0.05-0.01-0.09-0.02-0.14-0.02c-0.23,0-0.44,0.15-0.5,0.39c-0.07,0.28,0.09,0.56,0.37,0.64c0.2,0.05,0.39,0.1,0.57,0.13 c0.47,0.09,0.88,0.13,1.25,0.13c0.45,0,0.82-0.06,1.12-0.13c0,0,0,0,0,0c0.01,0,0.01,0.01,0.01,0.01 c-0.24,1.84-0.71,5.81-0.64,7.26c0,0.02,0,0.04,0.01,0.06c0.22,1.23,0.71,2,1.47,2.29c0.22,0.08,0.44,0.11,0.65,0.11 c0.96,0,1.83-0.68,1.94-0.77c0.12-0.1,0.19-0.24,0.19-0.39c0.18-9.89,2.14-13.3,3.75-14.43C29.09,81.02,29.63,80.84,30.22,80.84 M25.46,122.12L25.46,122.12L25.46,122.12L25.46,122.12 M30.22,80.06c-0.75,0-1.45,0.22-2.08,0.66 c-2.55,1.78-3.93,6.8-4.08,14.93c-0.29,0.21-0.85,0.52-1.35,0.52c-0.14,0-0.26-0.02-0.38-0.06c-0.48-0.18-0.81-0.75-0.98-1.69 c-0.05-0.95,0.19-3.54,0.64-7.09l0.04-0.35l-0.23-0.27c0.04-0.02,0.08-0.04,0.1-0.06l0.12-0.08l0.09-0.12 c0.17-0.22,1.62-2.26,1.1-3.92c-0.25-0.81-0.92-1.4-1.99-1.74c-0.4-0.13-0.8-0.19-1.18-0.19c-0.24,0-0.48,0.03-0.7,0.08 c-2.36,0.54-3.46,3.39-3.1,8.01l0.02,0.23c-0.81,0.27-3.65,1.37-4.86,4.04c-0.88,1.94-0.72,4.26,0.48,6.9l0.05,0.11 c-0.67,0.39-2.85,1.86-3.7,4.88c-1.03,3.66,0.18,8.21,3.59,13.5l-0.17,0.84l-0.13,0.66l-4.41,22.43l-0.07,0.36l0.24,0.3 l0.23,0.28l0.38,0h0.13l0.12-0.04l1.84-0.6l1.73,3.1l0.22,0.4l0.47,0.01h0.32l0.23-0.22c0.74-0.72,1.45-1.38,1.89-1.77l2.3,3.96 l0.23,0.39l0.46,0.01h0.26l0.22-0.16l2.73-2.04l0.24-0.18l0.06-0.3l4.4-22.36l0.07-0.36l-0.15-0.19c0.01,0,0.01,0,0.02,0 l0.04-0.01l0.04-0.01c0.37-0.14,9.05-3.53,14.35-11.88c1.09-1.72,0.95-3.96-0.35-5.45c-0.65-0.75-1.43-1.13-2.32-1.13 c-0.5,0-1.04,0.13-1.6,0.38c-1.39,0.57-1.69,1.41-1.74,1.57c-0.34,1.1-0.71,2.15-1.07,3.09l-0.06-0.03 c-0.58-0.27-1.69-0.95-2.61-2.51c-1.19-2.02-2.28-5.97-0.73-13.34l0.2-0.94l0,0c0.12-0.49,0.27-1.09,0.4-1.55l1.15-3.95 l0.23-0.79l0.07-0.08c0.35-0.43,2.06-2.67,1.6-4.36c-0.19-0.72-0.74-1.24-1.62-1.55C31.15,80.15,30.68,80.06,30.22,80.06 L30.22,80.06z M15.91,95.58c0.36-0.02,0.72-0.11,1.06-0.25c0.08-0.03,0.16-0.07,0.23-0.11l0.02,0.06l0.63,1.94 c0.11,0.34,0.01,0.72-0.24,0.87c-0.12,0.08-0.25,0.11-0.38,0.11c-0.04,0-0.09,0-0.13-0.01c-0.04-0.01-0.08-0.02-0.12-0.03 c-0.09-0.09-0.3-0.33-0.49-0.69L15.91,95.58L15.91,95.58z" style="fill:#709921;"/>
        </g>
        <path d="M21.47,117.91c0,0.33-0.26,0.59-0.58,0.6c-0.01,0-0.02,0-0.02,0c-0.31-0.01-0.57-0.26-0.57-0.58 c-0.08-6.05-3.79-7.03-3.83-7.04c-0.32-0.08-0.51-0.4-0.43-0.71c0.08-0.32,0.4-0.51,0.71-0.43 C16.93,109.79,21.37,110.96,21.47,117.91z" style="fill:#709921;"/>
      </g>
    </g>
  </g>
</svg>