<svg enable-background="new 0 0 128 128" viewBox="0 0 128 128" xmlns="http://www.w3.org/2000/svg" xmlns:xlink="http://www.w3.org/1999/xlink"><path d="m7.42 63.06c-1.15 0-2.24-0.66-2.74-1.78-0.68-1.51 0-3.28 1.51-3.96 6.84-3.06 11.08-8.96 11.08-16.72l0.02-2.6v-0.13c0-20.91 11.3-33.9 29.5-33.9 16.06 0 23.25 12.9 23.25 25.68 0 1.66-1.34 3-3 3s-3-1.34-3-3c0-18.73-14.37-19.68-17.25-19.68-21.21 0-23.5 19.51-23.5 27.9l-0.02 2.76c0 10.13-5.61 18.13-14.63 22.17-0.39 0.17-0.81 0.26-1.22 0.26z" fill="#424242"/><g opacity=".2"><path d="m46.79 4.97c15.37 0 22.25 12.4 22.25 24.68 0 1.1-0.9 2-2 2s-2-0.9-2-2c0-19.69-15.2-20.68-18.25-20.68-7.37 0-24.5 2.82-24.5 28.89l-0.02 2.76c0 9.52-5.12 17.26-14.04 21.26-0.25 0.12-0.53 0.18-0.81 0.18-0.79 0-1.51-0.46-1.83-1.18-0.22-0.49-0.23-1.03-0.04-1.53s0.56-0.89 1.05-1.11c7.42-3.32 11.67-9.75 11.67-17.63l0.02-2.6v-0.13c0-20.3 10.92-32.91 28.5-32.91m0-1c-18.2 0-29.5 12.99-29.5 33.9v0.13l-0.02 2.6c0 7.76-4.25 13.66-11.08 16.72-1.51 0.68-2.19 2.45-1.51 3.96 0.5 1.11 1.59 1.78 2.74 1.78 0.41 0 0.83-0.08 1.22-0.26 9.03-4.04 14.63-12.04 14.63-22.17l0.02-2.76c0-8.39 2.29-27.9 23.5-27.9 2.88 0 17.25 0.95 17.25 19.68 0 1.66 1.34 3 3 3s3-1.34 3-3c0-12.78-7.19-25.68-23.25-25.68z" fill="#eee"/></g><linearGradient id="f" x1="63.625" x2="63.625" y1="16.246" y2="123.38" gradientUnits="userSpaceOnUse"><stop stop-color="#757575" offset="0"/><stop stop-color="#424242" offset="1"/></linearGradient><path d="m103.75 55.79c0 33.11-20.12 67.96-40.12 67.96s-40.13-34.84-40.13-67.96 17.96-39.96 40.12-39.96 40.13 6.85 40.13 39.96z" fill="url(#f)"/><path d="m40.86 20h-0.01c-8.23 4-14.23 11.12-16.43 24h5.87c1.44 0 2.73-0.87 3.29-2.21 2.01-4.8 5.15-9.02 9.07-12.32 1.32-1.11 1.72-2.96 0.91-4.47-0.95-1.78-1.97-3.66-2.7-5z" fill="#212121" opacity=".5"/><path d="m86.39 20h0.01c8.23 4 14.23 11.12 16.43 24h-5.87c-1.44 0-2.73-0.87-3.29-2.21-2.01-4.8-5.15-9.02-9.07-12.32-1.32-1.11-1.72-2.96-0.91-4.47 0.96-1.78 1.97-3.66 2.7-5z" fill="#212121" opacity=".5"/><g opacity=".2"><path d="m63.62 18.83c12.23 0 20.65 2.19 26.49 6.9 7.16 5.77 10.63 15.6 10.63 30.06 0 15.35-4.43 31.7-12.15 44.88-7.37 12.57-16.7 20.08-24.97 20.08s-17.61-7.51-24.97-20.08c-7.72-13.17-12.15-29.53-12.15-44.88 0-14.46 3.48-24.3 10.63-30.06 5.85-4.7 14.26-6.9 26.49-6.9m0-3c-22.16 0-40.12 6.84-40.12 39.96s20.12 67.96 40.12 67.96 40.12-34.84 40.12-67.96-17.95-39.96-40.12-39.96z" fill="#eee"/></g><circle cx="63.62" cy="54" r="24.81" fill="#212121" opacity=".3"/><linearGradient id="e" x1="63.625" x2="63.625" y1="34.139" y2="74.139" gradientUnits="userSpaceOnUse"><stop stop-color="#F44336" offset="0"/><stop stop-color="#D32F2F" offset="1"/></linearGradient><circle cx="63.62" cy="54" r="20" fill="url(#e)"/></svg>
