<svg width="128" height="128" xmlns="http://www.w3.org/2000/svg"><style>.st2{fill:#2f2f2f}.st3{fill:#65878d}.st5{fill:#47c0e5}</style><path d="M109.4 59.1h8.8c2 0 3.5 1.6 3.5 3.5 0 2-1.6 3.5-3.5 3.5h-8.8v-7z" fill="#ea6c3a"/><path d="M29.6 25.3c-.4 2.8-1.1 8.1-1.5 10.9-.2 1.1-1.4 1.8-2.4 1.3-2.9-1.4-4.7-4.5-4.2-7.8s3.1-5.8 6.2-6.4c1.1-.2 2.1.8 1.9 2z" fill="#fac136"/><circle class="st2" cx="19.4" cy="90.2" r="17.5"/><circle class="st3" cx="19.4" cy="90.2" r="9.7"/><circle class="st2" cx="97.7" cy="90.2" r="17.5"/><circle class="st3" cx="97.7" cy="90.2" r="9.7"/><path class="st5" d="M95.7 54.7h.2c2.1.1 31.3 2.8 31.3 34.6 0 1.9-1.6 3.5-3.5 3.5H51.6c-7.6 0-14.7-3.3-19.7-9l-9.6-11.1c-1.3-1.5-1.8-3.5-1.4-5.5 2-9.1 5.9-17.7 11.6-25.2l1.8-2.4h7.5l-7 28.9c.5 8.7 7.8 15.5 16.5 15.6h12.3c5.6 0 10.1-4.5 10.1-10.1 0-3.5-1.8-6.7-4.8-8.6L63 61.7c-1.2-.8-2-2.2-2-3.6v-3.5h34.7z"/><path d="M94.6 62.1c-.1 0-.1 0 0 0-.8 0-1.4.7-1.4 1.4 0 .8.6 1.4 1.4 1.4 12.3 0 22.2 9.9 22.2 22.2 0 .8.6 1.4 1.4 1.4.8 0 1.4-.6 1.4-1.4 0-13.8-11.2-25-25-25z" fill="#bae9f3"/><path class="st2" d="M66.2 58.5L61 56.1c-.8-.4-1.3-1.2-1.3-2 0-4.7 3.8-8.6 8.6-8.6h14.5c4.9 0 9.9-.3 14.8-1 4.8-.4 8.8 3.4 8.8 8.2v3.4c0 1.1-.9 2.1-2.1 2.1l-30.8 1.3c-2.5.5-5 .1-7.3-1zM109.7 27.4l-.1.2c-1.8 2.7-2.8 5.8-2.8 9v2c0 .9.6 1.8 1.5 2.1l1.2.4c1.1.3 2.3-.3 2.7-1.4l3-9.9c.4-1.2-.3-2.4-1.5-2.7l-1.7-.5c-.9-.3-1.8 0-2.3.8z"/><path class="st2" d="M115.5 30c.6.2.9.8.7 1.4l-5.7 20.2c-.5 1.9-2 3.5-3.8 4.2l-2.5 1v-2.5l.6-.2c2-.7 3.5-2.3 4.1-4.4l5.2-19c.2-.5.8-.9 1.4-.7z"/><path class="st5" d="M42.7 37.4L44 33c.4-1.2 0-2.6-1-3.4L38.8 26c-1.7-1.4-3.8-2.3-6-2.5l-6.5-.5c-.5 0-.9.2-1.1.6l-.8 1.8c-1.3 2.9-1.9 6-1.7 9.1l.1 1.7c0 .5.4.9.9 1l4.3.6c3.4.5 5.5 4 4.2 7.3l8.6-1.7 1.9-6z"/><path class="st2" d="M38.4 26s-1.8-.8-2.8 1.7c-1 2.4 1.1 4.6 1.1 4.6l7.5 2.5c1.5.5 3.1-.5 3.4-2.1.2-1.1-.4-2.2-1.4-2.7l-7.8-4z"/><path class="st5" d="M3 83.7h4.5c10.3.1 20.3 3.4 28.8 9.4 1.4 1 3.3-.1 3.2-1.9-.1-2.2-.5-5.2-1.6-8.3-2-6-6.2-11.3-12.8-13.1-13.7-3.7-21 5.5-23.9 10.6-.7 1.6.3 3.3 1.8 3.3z"/><path d="M15 74.4s7.2-2.4 13.1 2.1c4 3 5.3 7.3 5.3 7.3" fill="none" stroke="#bae9f3" stroke-width="2.5" stroke-linecap="round" stroke-miterlimit="10"/></svg>