<svg xmlns="http://www.w3.org/2000/svg" viewBox="0 0 128 128"><path d="M119.77.36H8.23C3.9.36.36 3.9.36 8.23v111.54c0 4.32 3.54 7.87 7.87 7.87h111.54c4.33 0 7.87-3.55 7.87-7.87V8.23c0-4.33-3.54-7.87-7.87-7.87z" fill="#bdcf46"/><path fill="#fff" d="M62.96 62.69v-.01zM106.67 48.95l-9.65-3.21a1.58 1.58 0 0 0-1.96.93l-.04.1c-.11.25-.42.95-.83 1.68-.41.74-.97 1.51-1.42 1.88-.1.09-.46.28-.93.42-1.44.44-3.73.49-4.01.48h-13.5v-5.19l28.75-8.25c.84-.24 1.31-1.11 1.07-1.95l-2.37-8.26a1.576 1.576 0 0 0-1.94-1.09l-25.5 7.33v-7.64c0-.41-.17-.81-.46-1.1-.29-.29-.7-.47-1.11-.47H62.43c-.42 0-.82.18-1.11.47-.29.29-.46.69-.46 1.1v22.8c-.02.1-.05.18-.05.27v8.14c0 .08 0 .86.25 1.89.25 1.03.73 2.35 1.91 3.41 1.22 1.09 2.63 1.54 3.73 1.78 1.1.23 1.92.23 1.99.24h23.47c.16 0 .31-.05.46-.1.76-.05 1.58-.13 2.46-.26 2.1-.35 4.4-.9 6.12-2.31 2.25-1.92 3.79-4.67 4.86-6.96 1.06-2.3 1.61-4.13 1.62-4.18.25-.82-.2-1.68-1.01-1.95zM102.74 67.3H61.8c-.42 0-.82.17-1.12.46-.29.29-.46.7-.46 1.11v37.41c0 .41.17.82.46 1.11.29.29.7.46 1.12.46h40.93c.42 0 .82-.17 1.12-.46.29-.29.45-.7.45-1.11V68.87c0-.41-.17-.82-.45-1.11-.29-.3-.7-.46-1.11-.46zM92.1 83.25l-.41.17H72.83l-.4-.17-.17-.4V78.2l.17-.41.4-.17H91.7l.41.17.16.41v4.64l-.17.41zm.16 9.26v4.64l-.16.4-.41.17H72.83l-.4-.17-.17-.4v-4.64l.17-.4.4-.17H91.7l.41.17.15.4zM52.63 63.24c-.17-.38-.49-.68-.87-.83-.39-.15-.83-.14-1.21.04l-2.66 1.19v-11.1h6.8c.41 0 .82-.17 1.11-.46.29-.29.46-.69.46-1.11v-8.59c0-.42-.17-.82-.46-1.11-.29-.29-.7-.46-1.11-.46h-6.8V24.27c0-.41-.17-.82-.46-1.11-.29-.29-.7-.46-1.1-.46H34.6c-.41 0-.82.17-1.11.46-.29.29-.46.7-.46 1.11V40.8h-9.68c-.41 0-.82.17-1.11.46-.29.29-.46.69-.46 1.11v8.59c0 .42.17.82.46 1.11.3.29.7.46 1.11.46h9.68V70.3l-11.08 4.95c-.38.18-.68.49-.83.88-.15.39-.14.83.03 1.2l3.52 7.85c.17.38.49.68.88.83.39.15.83.14 1.21-.04l6.28-2.81v9.14H29c-.46 0-.88.19-1.18.54-.3.34-.43.79-.38 1.24l1.59 11.77c.1.78.77 1.37 1.55 1.37h9.24c.08 0 .94 0 2.09-.28 1.13-.27 2.61-.81 3.76-2.09 1.19-1.34 1.7-2.91 1.96-4.13.26-1.23.26-2.14.26-2.22v-22l7.45-3.33c.8-.36 1.15-1.29.8-2.08l-3.51-7.85zM45.66 104.84z"/></svg>