<?xml version="1.0" encoding="utf-8"?>
<!-- Generator: Adobe Illustrator 19.2.1, SVG Export Plug-In . SVG Version: 6.00 Build 0)  -->
<svg version="1.1" id="レイヤー_1" xmlns="http://www.w3.org/2000/svg" xmlns:xlink="http://www.w3.org/1999/xlink" x="0px"
	 y="0px" viewBox="0 0 128 128" style="enable-background:new 0 0 128 128;" xml:space="preserve">
<g>
	<path style="fill:#2F2F2F;" d="M109.38,84.17c0,0-3.6-0.05-5.68-0.38l-4.43-11.36l4.6-9.96l6.75,1.28l3.96,12.63L109.38,84.17z"/>
	<path style="fill:#2F2F2F;" d="M18.59,84.17c0,0,3.33-0.21,5.61-0.62l7.42-14.87l-7.39-9.63l-11.4,8.19l0.96,14.45L18.59,84.17z"/>
	<g>
		<path style="fill:#FCC21B;" d="M123.42,71.14c-14.36-12.78-20.17-28.37-20.17-28.37v0c-2.9-8.53-7.12-16.84-11.59-22.36
			C85.39,12.68,78.83,7.14,64.14,7.16c-14.69-0.03-21.5,6.65-28.09,14.1c-4.66,5.26-8.62,13.23-11.3,21.52v0
			c0,0-5.8,15.59-20.16,28.37c-7.55,6.71-3.3,12.13,3.79,12.88c3.61,0.39,7.06,0.39,10.22,0.14c-0.07-0.3-0.12-0.61-0.18-0.91
			c-0.18-1.03-0.31-2.07-0.36-3.1c-0.12-2.28-0.09-4.57,0.34-6.84c0.1-0.56,0.2-2.98,0.92-4.61c0.46-1.02,1.17-1.74,2.29-1.49
			c1.26,0.28,1.1,1.34,1.07,2.05c-0.1,2.79-0.4,5.49,0.05,8.27c0.31,2.03,0.86,4.03,1.47,6.02c1.61,3.93,3.91,7.56,7.15,10.67
			c4.61,4.43,10.27,7.47,16.14,9.27c-0.26,1,0.03,2.27-0.04,3.31c-0.19,2.64-1.36,4.04-3.33,5.62c-0.93,0.75-2.07,1.3-3.02,2.07
			c-0.82,0.67-1.76,1.65-1.91,2.72c-0.19,1.28,0.57,2.35,1.71,2.71c3.3,1.05,9.04,1.85,11.39-1.53c0.68-0.97,0.74-2.31,0.86-3.53
			c0.07-0.68,0.07-1.53,0-2.21c-0.18-1.82-0.03-3.58-0.01-5.46c0.01-0.83,0.04-1.61-0.13-2.27c2.96,0.6,6.83,1.19,10.83,1.19
			c4.09,0,8.29-0.61,11.46-1.22c-0.18,0.67-0.16,1.46-0.15,2.31c0.03,1.88,0.18,3.65,0,5.46c-0.08,0.68-0.08,1.53,0,2.21
			c0.12,1.22,0.18,2.56,0.85,3.53c2.36,3.37,8.1,2.58,11.39,1.53c1.15-0.36,1.89-1.43,1.71-2.71c-0.15-1.07-1.09-2.05-1.9-2.72
			c-0.96-0.77-2.09-1.32-3.03-2.07c-1.97-1.58-3.14-2.98-3.31-5.62c-0.08-1.04,0.19-2.3-0.06-3.31c5.88-1.8,11.54-4.85,16.15-9.27
			c2.63-2.54,4.63-5.42,6.15-8.53c0.01-0.02,0.02-0.03,0.02-0.04c0.9-2.68,1.72-5.38,2.16-8.12c0.45-2.79,0.14-5.48,0.04-8.27
			c-0.02-0.71-0.19-1.77,1.07-2.05c1.12-0.25,1.83,0.47,2.29,1.49c0.72,1.63,0.82,4.06,0.93,4.61c0.43,2.27,0.46,4.56,0.33,6.84
			c-0.05,1.03-0.18,2.07-0.36,3.1c-0.05,0.3-0.12,0.6-0.19,0.91c3.15,0.25,6.62,0.25,10.24-0.14
			C126.71,83.27,130.96,77.86,123.42,71.14z"/>
		<g>
			<g>
				<g>
					<g>
						<path style="fill:#2F2F2F;" d="M48,44.84c-0.68,2.87-3.15,4.67-5.49,4.07c-2.36-0.62-3.71-3.44-3.03-6.31
							c0.69-2.85,3.15-4.68,5.51-4.05C47.34,39.15,48.69,41.98,48,44.84z"/>
					</g>
				</g>
			</g>
			<g>
				<g>
					<g>
						<path style="fill:#2F2F2F;" d="M80.15,44.84c0.68,2.87,3.16,4.67,5.5,4.07c2.35-0.62,3.71-3.44,3.03-6.31
							c-0.69-2.85-3.16-4.68-5.5-4.05C80.81,39.15,79.47,41.98,80.15,44.84z"/>
					</g>
				</g>
			</g>
			<path style="fill:#F79329;" d="M55.13,55.41c-0.07-0.14-0.14-0.28-0.2-0.42c-0.73-1.86,0.74-3.15,1.97-4.06
				c0.99-0.73,1.97-1.5,3.04-2.09c1.27-0.71,2.79-1.17,4.21-1.16c2.15,0.02,4.21,0.95,6.04,2.16c0.65,0.42,1.25,0.9,1.89,1.33
				c0.18,0.12,0.33,0.29,0.49,0.44c1.01,0.94,1.49,2.78,0.65,3.99c-0.42,0.59-1.08,1.05-1.62,1.5c-0.72,0.61-1.41,1.28-2.2,1.79
				c-0.99,0.65-1.99,1.26-2.98,1.88c-0.76,0.47-1.42,1.19-2.4,1.04c-1.17-0.18-2.33-1.11-3.26-1.79c-0.65-0.47-1.32-0.91-1.96-1.42
				c-0.71-0.53-1.26-1.34-2.04-1.74C56.03,56.47,55.54,56.15,55.13,55.41z"/>
		</g>
	</g>
</g>
</svg>
