<svg width="128" height="128" style="enable-background:new 0 0 128 128;" xmlns="http://www.w3.org/2000/svg" xmlns:xlink="http://www.w3.org/1999/xlink">
  <symbol id="Grid" viewBox="-64.5 -64.5 129 129">
    <g id="XMLID_102_">
      <rect id="XMLID_110_" height="128" style="fill:none;stroke:#4285F4;stroke-miterlimit:10;" width="128" x="-64" y="-64"/>
      <path id="XMLID_109_" d="M36.95,37.82C27.32,46.32,14.2,51,0,51 c-14.27,0-27.39-4.62-36.96-13.01C-47.45,28.79-53,15.65-53,0c0-15.58,5.55-28.69,16.04-37.92C-27.36-46.35-14.24-51,0-51 c14.17,0,27.29,4.71,36.95,13.25C47.45-28.45,53-15.4,53,0C53,15.47,47.45,28.55,36.95,37.82z" style="fill:none;stroke:#4285F4;stroke-miterlimit:10;"/>
      <path id="XMLID_108_" d="M0,55L0,55L0,55c-29.59,0-57-19.01-57-55 c0-35.8,27.41-55,57-55h0h0c29.59,0,57,19.69,57,55C57,35.51,29.59,55,0,55z" style="fill:none;stroke:#4285F4;stroke-miterlimit:10;"/>
      <path id="XMLID_107_" d="M0-43c-12.29,0-23.54,3.94-31.68,11.09 C-40.39-24.25-45-13.21-45,0c0,29.7,22.6,43,45,43c21.67,0,45-13.46,45-43S21.67-43,0-43L0-43z" style="fill:none;stroke:#4285F4;stroke-miterlimit:10;"/>
      <line id="XMLID_106_" style="fill:none;stroke:#4285F4;stroke-miterlimit:10;" x1="-0.01" x2="-0.01" y1="51" y2="-51"/>
      <line id="XMLID_105_" style="fill:none;stroke:#4285F4;stroke-miterlimit:10;" x1="-16" x2="-16" y1="48.95" y2="-48.93"/>
      <line id="XMLID_104_" style="fill:none;stroke:#4285F4;stroke-miterlimit:10;" x1="15.99" x2="15.99" y1="48.91" y2="-48.93"/>
      <line id="XMLID_103_" style="fill:none;stroke:#4285F4;stroke-miterlimit:10;" x1="53" x2="-53" y1="0.08" y2="0.08"/>
    </g>
  </symbol>
  <g id="Layer_1">
    <g id="XMLID_69_">
      <linearGradient id="SVGID_1_" gradientUnits="userSpaceOnUse" x1="64" x2="64" y1="19.7166" y2="107.7021">
        <stop offset="0.5" style="stop-color:#FEE133"/>
        <stop offset="0.6118" style="stop-color:#FEDE32"/>
        <stop offset="0.7076" style="stop-color:#FCD32F"/>
        <stop offset="0.7975" style="stop-color:#FAC12B"/>
        <stop offset="0.8834" style="stop-color:#F7A924"/>
        <stop offset="0.9" style="stop-color:#F6A323"/>
      </linearGradient>
      <path d="M64,119.89C36.07,119.89,6,102.4,6,64S36.07,8.11,64,8.11c15.48,0,29.81,5.12,40.36,14.43 C115.9,32.72,122,47.06,122,64c0,16.86-6.1,31.17-17.64,41.39C93.78,114.74,79.45,119.89,64,119.89z" style="fill:url(#SVGID_1_);"/>
      <path d="M64,10.11L64,10.11c14.99,0,28.86,4.95,39.03,13.93C114.13,33.83,120,47.65,120,64 c0,16.27-5.87,30.07-16.97,39.89c-10.21,9.03-24.07,14-39.03,14c-15.04,0-28.9-4.91-39.04-13.82C13.86,94.32,8,80.46,8,64 c0-16.54,5.86-30.42,16.96-40.15C35.07,14.99,48.93,10.11,64,10.11 M64,6.11L64,6.11L64,6.11L64,6.11C32.85,6.11,4,26.11,4,64 c0,37.68,28.85,57.89,60,57.89h0h0h0c31.15,0,60-20.73,60-57.89C124,26.63,95.15,6.11,64,6.11L64,6.11z" style="fill:#EB8F00;"/>
    </g>
    <radialGradient id="SVGID_3_" cx="32.3396" cy="68.5769" gradientTransform="matrix(0.9791 0 0 0.877 2.0871 11.4401)" gradientUnits="userSpaceOnUse" r="19.4444">
      <stop offset="0" style="stop-color:#ED7770"/>
      <stop offset="0.9" style="stop-color:#ED7770;stop-opacity:0"/>
    </radialGradient>
    <ellipse cx="33.75" cy="71.58" rx="17.5" ry="16.5" style="opacity:0.8;fill:url(#SVGID_3_);"/>
    <radialGradient id="SVGID_4_" cx="94.1325" cy="68.5769" gradientTransform="matrix(0.9791 0 0 0.877 2.0871 11.4401)" gradientUnits="userSpaceOnUse" r="19.4444">
      <stop offset="0" style="stop-color:#ED7770"/>
      <stop offset="0.9" style="stop-color:#ED7770;stop-opacity:0"/>
    </radialGradient>
    <ellipse cx="94.25" cy="71.58" rx="17.5" ry="16.5" style="opacity:0.8;fill:url(#SVGID_4_);"/>
    <path d="M63.99,82.23c-3.58,0-7.12-0.61-10.5-1.79c-7.15-2.5-13.36,5.57-9.2,11.89 c4.33,6.58,11.07,10.22,19.69,10.22s15.36-3.64,19.69-10.22c4.16-6.33-2.04-14.39-9.2-11.89C71.1,81.62,67.57,82.23,63.99,82.23z" style="fill:#242424;"/>
    <g>
      <g>
        <path d="M41.93,69.94c-1.03-0.26-7.31-1.9-13.83-5.16c-6.06-3.03-13.69-8.18-15.7-15.5 c-0.81-2.9-0.42-5.93,1.08-8.56c1.5-2.63,3.95-4.53,6.9-5.36c0.97-0.28,1.98-0.42,3-0.42c2.96,0,5.87,1.17,7.98,3.21l2.47,2.39 l0.86-3.33c1.01-3.91,4.08-7.01,8.03-8.11c1.03-0.31,2.06-0.46,3.09-0.46c4.99,0,9.56,3.48,10.87,8.27 C60.48,50.75,43.31,68.54,41.93,69.94z" style="fill:#CC1775;"/>
        <path d="M45.81,30.65c4.1,0,7.87,2.86,8.95,6.8c3.16,11.5-9.9,26.46-13.45,30.25 c-4.98-1.4-23.83-7.43-26.99-18.97c-0.66-2.37-0.34-4.86,0.9-7.03c1.24-2.17,3.27-3.74,5.72-4.43c0.79-0.22,1.62-0.34,2.45-0.34 c2.45,0,4.85,0.96,6.59,2.65l4.94,4.78l1.71-6.66c0.84-3.27,3.32-5.76,6.63-6.68l0.04-0.01l0.04-0.01 C44.13,30.78,44.97,30.65,45.81,30.65 M45.81,26.65c-1.2,0-2.42,0.17-3.63,0.53c-4.81,1.33-8.28,5.06-9.43,9.54 c-2.46-2.39-5.87-3.77-9.37-3.77c-1.18,0-2.37,0.16-3.54,0.49c-3.45,0.97-6.33,3.19-8.1,6.29c-1.77,3.1-2.23,6.68-1.28,10.09 c4.24,15.49,30.01,21.84,31.11,22.11c0.13,0.03,0.27,0.05,0.41,0.05c0.13,0,0.26-0.02,0.39-0.04c0.32-0.07,0.63-0.24,0.88-0.47 c0.8-0.79,19.61-19.62,15.37-35.06C57.02,30.57,51.59,26.65,45.81,26.65L45.81,26.65z" style="fill:#B3005C;"/>
      </g>
      <g>
        <path d="M86.46,70.05c-0.72-0.7-5.36-5.29-9.41-11.44c-3.74-5.68-7.81-13.98-5.93-21.32 c1.25-4.9,5.84-8.46,10.92-8.46c0.97,0,1.94,0.13,2.87,0.39c4,1.03,7.13,4.09,8.21,7.98l0.92,3.31l2.43-2.43 c2.12-2.13,5.08-3.35,8.12-3.35c0.95,0,1.9,0.12,2.81,0.36c2.97,0.77,5.45,2.63,7,5.24c1.55,2.6,1.99,5.64,1.24,8.54 c-1.88,7.37-9.43,12.65-15.43,15.78C93.69,68.05,87.4,69.8,86.46,70.05z" style="fill:#CC1775;"/>
        <path d="M82.05,30.83L82.05,30.83c0.79,0,1.58,0.11,2.34,0.32l0.04,0.01l0.04,0.01 c3.32,0.86,5.84,3.31,6.74,6.56l1.83,6.63l4.86-4.87c1.75-1.76,4.19-2.76,6.7-2.76c0.78,0,1.55,0.1,2.31,0.3 c2.45,0.64,4.51,2.17,5.78,4.32c1.27,2.14,1.64,4.63,1.01,7.03c-2.96,11.58-21.71,17.93-26.65,19.42 c-1.62-1.66-5.15-5.48-8.32-10.29c-3.52-5.34-7.36-13.1-5.66-19.73C74.1,33.75,77.87,30.83,82.05,30.83 M82.05,26.83 c-5.86,0-11.34,4.04-12.85,9.96C65.22,52.31,84.35,70.8,85.17,71.58c0.25,0.23,0.56,0.39,0.88,0.46 c0.12,0.02,0.24,0.04,0.36,0.04c0.15,0,0.29-0.02,0.44-0.06c1.09-0.28,26.75-7.08,30.72-22.64c0.89-3.42,0.38-6.99-1.45-10.06 c-1.83-3.07-4.74-5.24-8.21-6.15c-1.1-0.29-2.21-0.43-3.32-0.43c-3.58,0-7.06,1.46-9.53,3.94c-1.23-4.46-4.76-8.12-9.6-9.37 C84.32,26.98,83.18,26.83,82.05,26.83L82.05,26.83z" style="fill:#B3005C;"/>
      </g>
    </g>
  </g>
  <g id="Layer_2" style="display:none;">
    <g style="display:inline;">
      <g style="opacity:0.6;">
        <circle cx="64" cy="64" r="28" style="opacity:0.61;fill:none;stroke:#000000;stroke-width:0.2625;stroke-miterlimit:10;"/>
        <line style="opacity:0.61;fill:none;stroke:#000000;stroke-width:0.25;stroke-miterlimit:10;" x1="84" x2="84" y1="0" y2="128"/>
        <line style="opacity:0.61;fill:none;stroke:#000000;stroke-width:0.25;stroke-miterlimit:10;" x1="44" x2="44" y1="0" y2="128"/>
        <line style="opacity:0.61;fill:none;stroke:#000000;stroke-width:0.25;stroke-miterlimit:10;" x1="64" x2="64" y1="0" y2="128"/>
        <line style="opacity:0.61;fill:none;stroke:#000000;stroke-width:0.25;stroke-miterlimit:10;" x1="128" x2="0" y1="64" y2="64"/>
        <line style="opacity:0.61;fill:none;stroke:#000000;stroke-width:0.25;stroke-miterlimit:10;" x1="128" x2="0" y1="44" y2="44"/>
        <line style="opacity:0.61;fill:none;stroke:#000000;stroke-width:0.25;stroke-miterlimit:10;" x1="128" x2="0" y1="83.75" y2="83.75"/>
        <line style="opacity:0.61;fill:none;stroke:#000000;stroke-width:0.25;stroke-miterlimit:10;" x1="128" x2="0" y1="128" y2="0"/>
        <line style="opacity:0.61;fill:none;stroke:#000000;stroke-width:0.25;stroke-miterlimit:10;" x1="0" x2="128" y1="128" y2="0"/>
        <g style="opacity:0.61;">
          <path d="M64,4.26c32.94,0,59.74,26.8,59.74,59.74S96.94,123.74,64,123.74S4.26,96.94,4.26,64S31.06,4.26,64,4.26 M64,4 C30.86,4,4,30.86,4,64s26.86,60,60,60s60-26.86,60-60S97.14,4,64,4L64,4z"/>
        </g>
        <path d="M107.97,115.97H20.03 c-4.42,0-8.03-3.61-8.03-8.03V20.03c0-4.42,3.61-8.03,8.03-8.03h87.94c4.42,0,8.03,3.61,8.03,8.03v87.91 C116,112.36,112.39,115.97,107.97,115.97z" style="opacity:0.61;fill:none;stroke:#000000;stroke-width:0.2578;stroke-miterlimit:10;"/>
        <path d="M100,124H28c-4.4,0-8-3.6-8-8 V12c0-4.4,3.6-8,8-8h72c4.4,0,8,3.6,8,8v104C108,120.4,104.4,124,100,124z" style="opacity:0.61;fill:none;stroke:#000000;stroke-width:0.2628;stroke-miterlimit:10;"/>
        <path d="M113.77,108H14.23 C8.6,108,4,103.4,4,97.77V30.28c0-5.63,4.6-10.23,10.23-10.23h99.54c5.63,0,10.23,4.6,10.23,10.23v67.48 C124,103.4,119.4,108,113.77,108z" style="opacity:0.61;fill:none;stroke:#000000;stroke-width:0.2627;stroke-miterlimit:10;"/>
      </g>
      <g>
        <g style="opacity:0.2;">
          <defs>
            <rect id="SVGID_2_" height="128" style="opacity:0.2;" width="128" x="0" y="0"/>
          </defs>
          <clipPath id="SVGID_5_">
            <use style="overflow:visible;" xlink:href="#SVGID_2_"/>
          </clipPath>
          <g style="clip-path:url(#SVGID_5_);">
            <g>
              <line style="fill:none;stroke:#000000;stroke-width:0.25;stroke-miterlimit:10;" x1="-28" x2="-28" y1="160" y2="-32"/>
              <line style="fill:none;stroke:#000000;stroke-width:0.25;stroke-miterlimit:10;" x1="-24" x2="-24" y1="160" y2="-32"/>
              <line style="fill:none;stroke:#000000;stroke-width:0.25;stroke-miterlimit:10;" x1="-20" x2="-20" y1="160" y2="-32"/>
              <line style="fill:none;stroke:#000000;stroke-width:0.25;stroke-miterlimit:10;" x1="-16" x2="-16" y1="160" y2="-32"/>
              <line style="fill:none;stroke:#000000;stroke-width:0.25;stroke-miterlimit:10;" x1="-12" x2="-12" y1="160" y2="-32"/>
              <line style="fill:none;stroke:#000000;stroke-width:0.25;stroke-miterlimit:10;" x1="-8" x2="-8" y1="160" y2="-32"/>
              <line style="fill:none;stroke:#000000;stroke-width:0.25;stroke-miterlimit:10;" x1="-4" x2="-4" y1="160" y2="-32"/>
              <line style="fill:none;stroke:#000000;stroke-width:0.25;stroke-miterlimit:10;" x1="0" x2="0" y1="160" y2="-32"/>
              <line style="fill:none;stroke:#000000;stroke-width:0.25;stroke-miterlimit:10;" x1="4" x2="4" y1="160" y2="-32"/>
              <line style="fill:none;stroke:#000000;stroke-width:0.25;stroke-miterlimit:10;" x1="8" x2="8" y1="160" y2="-32"/>
              <line style="fill:none;stroke:#000000;stroke-width:0.25;stroke-miterlimit:10;" x1="12" x2="12" y1="160" y2="-32"/>
              <line style="fill:none;stroke:#000000;stroke-width:0.25;stroke-miterlimit:10;" x1="16" x2="16" y1="160" y2="-32"/>
              <line style="fill:none;stroke:#000000;stroke-width:0.25;stroke-miterlimit:10;" x1="20" x2="20" y1="160" y2="-32"/>
              <line style="fill:none;stroke:#000000;stroke-width:0.25;stroke-miterlimit:10;" x1="24" x2="24" y1="160" y2="-32"/>
              <line style="fill:none;stroke:#000000;stroke-width:0.25;stroke-miterlimit:10;" x1="28" x2="28" y1="160" y2="-32"/>
              <line style="fill:none;stroke:#000000;stroke-width:0.25;stroke-miterlimit:10;" x1="32" x2="32" y1="160" y2="-32"/>
              <line style="fill:none;stroke:#000000;stroke-width:0.25;stroke-miterlimit:10;" x1="36" x2="36" y1="160" y2="-32"/>
              <line style="fill:none;stroke:#000000;stroke-width:0.25;stroke-miterlimit:10;" x1="40" x2="40" y1="160" y2="-32"/>
              <line style="fill:none;stroke:#000000;stroke-width:0.25;stroke-miterlimit:10;" x1="44" x2="44" y1="160" y2="-32"/>
              <line style="fill:none;stroke:#000000;stroke-width:0.25;stroke-miterlimit:10;" x1="48" x2="48" y1="160" y2="-32"/>
              <line style="fill:none;stroke:#000000;stroke-width:0.25;stroke-miterlimit:10;" x1="52" x2="52" y1="160" y2="-32"/>
              <line style="fill:none;stroke:#000000;stroke-width:0.25;stroke-miterlimit:10;" x1="56" x2="56" y1="160" y2="-32"/>
              <line style="fill:none;stroke:#000000;stroke-width:0.25;stroke-miterlimit:10;" x1="60" x2="60" y1="160" y2="-32"/>
              <line style="fill:none;stroke:#000000;stroke-width:0.25;stroke-miterlimit:10;" x1="64" x2="64" y1="160" y2="-32"/>
              <line style="fill:none;stroke:#000000;stroke-width:0.25;stroke-miterlimit:10;" x1="68" x2="68" y1="160" y2="-32"/>
              <line style="fill:none;stroke:#000000;stroke-width:0.25;stroke-miterlimit:10;" x1="72" x2="72" y1="160" y2="-32"/>
              <line style="fill:none;stroke:#000000;stroke-width:0.25;stroke-miterlimit:10;" x1="76" x2="76" y1="160" y2="-32"/>
              <line style="fill:none;stroke:#000000;stroke-width:0.25;stroke-miterlimit:10;" x1="80" x2="80" y1="160" y2="-32"/>
              <line style="fill:none;stroke:#000000;stroke-width:0.25;stroke-miterlimit:10;" x1="84" x2="84" y1="160" y2="-32"/>
              <line style="fill:none;stroke:#000000;stroke-width:0.25;stroke-miterlimit:10;" x1="88" x2="88" y1="160" y2="-32"/>
              <line style="fill:none;stroke:#000000;stroke-width:0.25;stroke-miterlimit:10;" x1="92" x2="92" y1="160" y2="-32"/>
              <line style="fill:none;stroke:#000000;stroke-width:0.25;stroke-miterlimit:10;" x1="96" x2="96" y1="160" y2="-32"/>
              <line style="fill:none;stroke:#000000;stroke-width:0.25;stroke-miterlimit:10;" x1="100" x2="100" y1="160" y2="-32"/>
              <line style="fill:none;stroke:#000000;stroke-width:0.25;stroke-miterlimit:10;" x1="104" x2="104" y1="160" y2="-32"/>
              <line style="fill:none;stroke:#000000;stroke-width:0.25;stroke-miterlimit:10;" x1="108" x2="108" y1="160" y2="-32"/>
              <line style="fill:none;stroke:#000000;stroke-width:0.25;stroke-miterlimit:10;" x1="112" x2="112" y1="160" y2="-32"/>
              <line style="fill:none;stroke:#000000;stroke-width:0.25;stroke-miterlimit:10;" x1="116" x2="116" y1="160" y2="-32"/>
              <line style="fill:none;stroke:#000000;stroke-width:0.25;stroke-miterlimit:10;" x1="120" x2="120" y1="160" y2="-32"/>
              <line style="fill:none;stroke:#000000;stroke-width:0.25;stroke-miterlimit:10;" x1="124" x2="124" y1="160" y2="-32"/>
              <line style="fill:none;stroke:#000000;stroke-width:0.25;stroke-miterlimit:10;" x1="128" x2="128" y1="160" y2="-32"/>
              <line style="fill:none;stroke:#000000;stroke-width:0.25;stroke-miterlimit:10;" x1="132" x2="132" y1="160" y2="-32"/>
              <line style="fill:none;stroke:#000000;stroke-width:0.25;stroke-miterlimit:10;" x1="136" x2="136" y1="160" y2="-32"/>
              <line style="fill:none;stroke:#000000;stroke-width:0.25;stroke-miterlimit:10;" x1="137" x2="137" y1="166.05" y2="-25.95"/>
              <line style="fill:none;stroke:#000000;stroke-width:0.25;stroke-miterlimit:10;" x1="144" x2="144" y1="160" y2="-32"/>
              <line style="fill:none;stroke:#000000;stroke-width:0.25;stroke-miterlimit:10;" x1="148" x2="148" y1="160" y2="-32"/>
              <line style="fill:none;stroke:#000000;stroke-width:0.25;stroke-miterlimit:10;" x1="152" x2="152" y1="160" y2="-32"/>
              <line style="fill:none;stroke:#000000;stroke-width:0.25;stroke-miterlimit:10;" x1="156" x2="156" y1="160" y2="-32"/>
            </g>
            <g>
              <line style="fill:none;stroke:#000000;stroke-width:0.25;stroke-miterlimit:10;" x1="-32" x2="160" y1="-28" y2="-28"/>
              <line style="fill:none;stroke:#000000;stroke-width:0.25;stroke-miterlimit:10;" x1="-32" x2="160" y1="-24" y2="-24"/>
              <line style="fill:none;stroke:#000000;stroke-width:0.25;stroke-miterlimit:10;" x1="-32" x2="160" y1="-20" y2="-20"/>
              <line style="fill:none;stroke:#000000;stroke-width:0.25;stroke-miterlimit:10;" x1="-32" x2="160" y1="-16" y2="-16"/>
              <line style="fill:none;stroke:#000000;stroke-width:0.25;stroke-miterlimit:10;" x1="-32" x2="160" y1="-12" y2="-12"/>
              <line style="fill:none;stroke:#000000;stroke-width:0.25;stroke-miterlimit:10;" x1="-32" x2="160" y1="-8" y2="-8"/>
              <line style="fill:none;stroke:#000000;stroke-width:0.25;stroke-miterlimit:10;" x1="-32" x2="160" y1="-4" y2="-4"/>
              <line style="fill:none;stroke:#000000;stroke-width:0.25;stroke-miterlimit:10;" x1="-32" x2="160" y1="0" y2="0"/>
              <line style="fill:none;stroke:#000000;stroke-width:0.25;stroke-miterlimit:10;" x1="-32" x2="160" y1="4" y2="4"/>
              <line style="fill:none;stroke:#000000;stroke-width:0.25;stroke-miterlimit:10;" x1="-32" x2="160" y1="8" y2="8"/>
              <line style="fill:none;stroke:#000000;stroke-width:0.25;stroke-miterlimit:10;" x1="-32" x2="160" y1="12" y2="12"/>
              <line style="fill:none;stroke:#000000;stroke-width:0.25;stroke-miterlimit:10;" x1="-32" x2="160" y1="16" y2="16"/>
              <line style="fill:none;stroke:#000000;stroke-width:0.25;stroke-miterlimit:10;" x1="-32" x2="160" y1="20" y2="20"/>
              <line style="fill:none;stroke:#000000;stroke-width:0.25;stroke-miterlimit:10;" x1="-32" x2="160" y1="24" y2="24"/>
              <line style="fill:none;stroke:#000000;stroke-width:0.25;stroke-miterlimit:10;" x1="-32" x2="160" y1="28" y2="28"/>
              <line style="fill:none;stroke:#000000;stroke-width:0.25;stroke-miterlimit:10;" x1="-32" x2="160" y1="32" y2="32"/>
              <line style="fill:none;stroke:#000000;stroke-width:0.25;stroke-miterlimit:10;" x1="-32" x2="160" y1="36" y2="36"/>
              <line style="fill:none;stroke:#000000;stroke-width:0.25;stroke-miterlimit:10;" x1="-32" x2="160" y1="40" y2="40"/>
              <line style="fill:none;stroke:#000000;stroke-width:0.25;stroke-miterlimit:10;" x1="-32" x2="160" y1="44" y2="44"/>
              <line style="fill:none;stroke:#000000;stroke-width:0.25;stroke-miterlimit:10;" x1="-32" x2="160" y1="48" y2="48"/>
              <line style="fill:none;stroke:#000000;stroke-width:0.25;stroke-miterlimit:10;" x1="-32" x2="160" y1="52" y2="52"/>
              <line style="fill:none;stroke:#000000;stroke-width:0.25;stroke-miterlimit:10;" x1="-32" x2="160" y1="56" y2="56"/>
              <line style="fill:none;stroke:#000000;stroke-width:0.25;stroke-miterlimit:10;" x1="-32" x2="160" y1="60" y2="60"/>
              <line style="fill:none;stroke:#000000;stroke-width:0.25;stroke-miterlimit:10;" x1="-32" x2="160" y1="64" y2="64"/>
              <line style="fill:none;stroke:#000000;stroke-width:0.25;stroke-miterlimit:10;" x1="-32" x2="160" y1="68" y2="68"/>
              <line style="fill:none;stroke:#000000;stroke-width:0.25;stroke-miterlimit:10;" x1="-32" x2="160" y1="72" y2="72"/>
              <line style="fill:none;stroke:#000000;stroke-width:0.25;stroke-miterlimit:10;" x1="-32" x2="160" y1="76" y2="76"/>
              <line style="fill:none;stroke:#000000;stroke-width:0.25;stroke-miterlimit:10;" x1="-32" x2="160" y1="80" y2="80"/>
              <line style="fill:none;stroke:#000000;stroke-width:0.25;stroke-miterlimit:10;" x1="-32" x2="160" y1="84" y2="84"/>
              <line style="fill:none;stroke:#000000;stroke-width:0.25;stroke-miterlimit:10;" x1="-32" x2="160" y1="88" y2="88"/>
              <line style="fill:none;stroke:#000000;stroke-width:0.25;stroke-miterlimit:10;" x1="-32" x2="160" y1="92" y2="92"/>
              <line style="fill:none;stroke:#000000;stroke-width:0.25;stroke-miterlimit:10;" x1="-32" x2="160" y1="96" y2="96"/>
              <line style="fill:none;stroke:#000000;stroke-width:0.25;stroke-miterlimit:10;" x1="-32" x2="160" y1="100" y2="100"/>
              <line style="fill:none;stroke:#000000;stroke-width:0.25;stroke-miterlimit:10;" x1="-32" x2="160" y1="104" y2="104"/>
              <line style="fill:none;stroke:#000000;stroke-width:0.25;stroke-miterlimit:10;" x1="-32" x2="160" y1="108" y2="108"/>
              <line style="fill:none;stroke:#000000;stroke-width:0.25;stroke-miterlimit:10;" x1="-32" x2="160" y1="112" y2="112"/>
              <line style="fill:none;stroke:#000000;stroke-width:0.25;stroke-miterlimit:10;" x1="-32" x2="160" y1="116" y2="116"/>
              <line style="fill:none;stroke:#000000;stroke-width:0.25;stroke-miterlimit:10;" x1="-32" x2="160" y1="120" y2="120"/>
              <line style="fill:none;stroke:#000000;stroke-width:0.25;stroke-miterlimit:10;" x1="-32" x2="160" y1="124" y2="124"/>
              <line style="fill:none;stroke:#000000;stroke-width:0.25;stroke-miterlimit:10;" x1="-32" x2="160" y1="128" y2="128"/>
              <line style="fill:none;stroke:#000000;stroke-width:0.25;stroke-miterlimit:10;" x1="-32" x2="160" y1="132" y2="132"/>
              <line style="fill:none;stroke:#000000;stroke-width:0.25;stroke-miterlimit:10;" x1="-32" x2="160" y1="136" y2="136"/>
              <line style="fill:none;stroke:#000000;stroke-width:0.25;stroke-miterlimit:10;" x1="-32" x2="160" y1="140" y2="140"/>
              <line style="fill:none;stroke:#000000;stroke-width:0.25;stroke-miterlimit:10;" x1="-32" x2="160" y1="144" y2="144"/>
              <line style="fill:none;stroke:#000000;stroke-width:0.25;stroke-miterlimit:10;" x1="-32" x2="160" y1="148" y2="148"/>
              <line style="fill:none;stroke:#000000;stroke-width:0.25;stroke-miterlimit:10;" x1="-32" x2="160" y1="152" y2="152"/>
              <line style="fill:none;stroke:#000000;stroke-width:0.25;stroke-miterlimit:10;" x1="-32" x2="160" y1="156" y2="156"/>
            </g>
            <path d="M159.75-31.75v191.5h-191.5v-191.5H159.75 M160-32H-32v192h192V-32L160-32z"/>
          </g>
        </g>
        <g>
          <rect height="128" style="opacity:0.3;fill:#F44336;" width="4" x="0" y="0"/>
          <rect height="128" style="opacity:0.3;fill:#F44336;" width="4" x="124" y="0"/>
          <rect height="120" style="opacity:0.3;fill:#F44336;" transform="matrix(-1.836970e-16 1 -1 -1.836970e-16 66 -62)" width="4" x="62" y="-58"/>
          <rect height="120" style="opacity:0.3;fill:#F44336;" transform="matrix(-1.836970e-16 1 -1 -1.836970e-16 190 62)" width="4" x="62" y="66"/>
        </g>
      </g>
    </g>
  </g>
  <g id="Layer_3" style="display:none;">
    <rect id="XMLID_46_" height="128" style="display:inline;fill:none;stroke:#616161;stroke-width:0.25;stroke-miterlimit:10;" transform="matrix(-1.346904e-10 -1 1 -1.346904e-10 8.631098e-09 128)" width="128" x="0"/>
    <g id="XMLID_9_" style="display:inline;">
      <rect id="XMLID_45_" height="128" style="fill:none;stroke:#E0E0E0;stroke-width:0.25;stroke-miterlimit:10;" width="128" x="0"/>
      <line id="XMLID_44_" style="fill:none;stroke:#E0E0E0;stroke-width:0.25;stroke-miterlimit:10;" x1="8" x2="8" y1="0" y2="128"/>
      <line id="XMLID_43_" style="fill:none;stroke:#E0E0E0;stroke-width:0.25;stroke-miterlimit:10;" x1="16" x2="16" y1="0" y2="128"/>
      <line id="XMLID_42_" style="fill:none;stroke:#E0E0E0;stroke-width:0.25;stroke-miterlimit:10;" x1="24" x2="24" y1="0" y2="128"/>
      <line id="XMLID_41_" style="fill:none;stroke:#E0E0E0;stroke-width:0.25;stroke-miterlimit:10;" x1="32" x2="32" y1="0" y2="128"/>
      <line id="XMLID_40_" style="fill:none;stroke:#E0E0E0;stroke-width:0.25;stroke-miterlimit:10;" x1="40" x2="40" y1="0" y2="128"/>
      <line id="XMLID_39_" style="fill:none;stroke:#E0E0E0;stroke-width:0.25;stroke-miterlimit:10;" x1="48" x2="48" y1="0" y2="128"/>
      <line id="XMLID_38_" style="fill:none;stroke:#E0E0E0;stroke-width:0.25;stroke-miterlimit:10;" x1="56" x2="56" y1="0" y2="128"/>
      <line id="XMLID_37_" style="fill:none;stroke:#E0E0E0;stroke-width:0.25;stroke-miterlimit:10;" x1="63.99" x2="63.99" y1="0" y2="128"/>
      <line id="XMLID_36_" style="fill:none;stroke:#E0E0E0;stroke-width:0.25;stroke-miterlimit:10;" x1="71.99" x2="71.99" y1="0" y2="128"/>
      <line id="XMLID_35_" style="fill:none;stroke:#E0E0E0;stroke-width:0.25;stroke-miterlimit:10;" x1="79.99" x2="79.99" y1="0" y2="128"/>
      <line id="XMLID_34_" style="fill:none;stroke:#E0E0E0;stroke-width:0.25;stroke-miterlimit:10;" x1="87.99" x2="87.99" y1="0" y2="128"/>
      <line id="XMLID_33_" style="fill:none;stroke:#E0E0E0;stroke-width:0.25;stroke-miterlimit:10;" x1="95.99" x2="95.99" y1="0" y2="128"/>
      <line id="XMLID_32_" style="fill:none;stroke:#E0E0E0;stroke-width:0.25;stroke-miterlimit:10;" x1="103.99" x2="103.99" y1="0" y2="128"/>
      <line id="XMLID_47_" style="fill:none;stroke:#E0E0E0;stroke-width:0.25;stroke-miterlimit:10;" x1="111.99" x2="111.99" y1="0" y2="128"/>
      <line id="XMLID_48_" style="fill:none;stroke:#E0E0E0;stroke-width:0.25;stroke-miterlimit:10;" x1="119.99" x2="119.99" y1="0" y2="128"/>
      <line id="XMLID_49_" style="fill:none;stroke:#E0E0E0;stroke-width:0.25;stroke-miterlimit:10;" x1="128" x2="0" y1="120" y2="120"/>
      <line id="XMLID_50_" style="fill:none;stroke:#E0E0E0;stroke-width:0.25;stroke-miterlimit:10;" x1="128" x2="0" y1="112" y2="112"/>
      <line id="XMLID_51_" style="fill:none;stroke:#E0E0E0;stroke-width:0.25;stroke-miterlimit:10;" x1="128" x2="0" y1="104" y2="104"/>
      <line id="XMLID_52_" style="fill:none;stroke:#E0E0E0;stroke-width:0.25;stroke-miterlimit:10;" x1="128" x2="0" y1="96" y2="96"/>
      <line id="XMLID_53_" style="fill:none;stroke:#E0E0E0;stroke-width:0.25;stroke-miterlimit:10;" x1="128" x2="0" y1="88" y2="88"/>
      <line id="XMLID_54_" style="fill:none;stroke:#E0E0E0;stroke-width:0.25;stroke-miterlimit:10;" x1="128" x2="0" y1="80" y2="80"/>
      <line id="XMLID_55_" style="fill:none;stroke:#E0E0E0;stroke-width:0.25;stroke-miterlimit:10;" x1="128" x2="0" y1="72" y2="72"/>
      <line id="XMLID_56_" style="fill:none;stroke:#E0E0E0;stroke-width:0.25;stroke-miterlimit:10;" x1="128" x2="0" y1="64.01" y2="64.01"/>
      <line id="XMLID_57_" style="fill:none;stroke:#E0E0E0;stroke-width:0.25;stroke-miterlimit:10;" x1="128" x2="0" y1="56.01" y2="56.01"/>
      <line id="XMLID_58_" style="fill:none;stroke:#E0E0E0;stroke-width:0.25;stroke-miterlimit:10;" x1="128" x2="0" y1="48.01" y2="48.01"/>
      <line id="XMLID_60_" style="fill:none;stroke:#E0E0E0;stroke-width:0.25;stroke-miterlimit:10;" x1="128" x2="0" y1="40.01" y2="40.01"/>
      <line id="XMLID_61_" style="fill:none;stroke:#E0E0E0;stroke-width:0.25;stroke-miterlimit:10;" x1="128" x2="0" y1="32.01" y2="32.01"/>
      <line id="XMLID_62_" style="fill:none;stroke:#E0E0E0;stroke-width:0.25;stroke-miterlimit:10;" x1="128" x2="0" y1="24.01" y2="24.01"/>
      <line id="XMLID_63_" style="fill:none;stroke:#E0E0E0;stroke-width:0.25;stroke-miterlimit:10;" x1="128" x2="0" y1="16.01" y2="16.01"/>
      <line id="XMLID_64_" style="fill:none;stroke:#E0E0E0;stroke-width:0.25;stroke-miterlimit:10;" x1="128" x2="0" y1="8.01" y2="8.01"/>
    </g>
    <use id="XMLID_31_" height="129" style="display:inline;overflow:visible;" transform="matrix(1 0 0 -1 64 64)" width="129" x="-64.5" xlink:href="#Grid" y="-64.5"/>
  </g>
</svg>