<svg xmlns="http://www.w3.org/2000/svg" viewBox="0 0 128 128"><path d="M55.79 64.37c0 2.23-.93 4.78-4.25 6.92-7.82 5.03-25.73 7.99-25.73 44.88h76.23c0-36.9-17.91-39.86-25.73-44.88-3.32-2.13-4.25-4.69-4.25-6.92 0-2.22.93-4.78 4.25-6.91 7.82-5.03 25.73-7.99 25.73-44.89H25.81c0 36.9 17.91 39.87 25.73 44.89 3.31 2.13 4.25 4.68 4.25 6.91z" fill="#fff"/><path d="M102.04 118.45H25.81c-1.26 0-2.28-1.02-2.28-2.28 0-33 14.44-40.37 23.07-44.77 1.43-.73 2.68-1.37 3.71-2.03 2.15-1.39 3.2-3.03 3.2-5 0-1.98-1.05-3.61-3.2-5-1.03-.66-2.28-1.29-3.71-2.03-8.63-4.4-23.07-11.77-23.07-44.78 0-1.26 1.02-2.28 2.28-2.28h76.23c1.25 0 2.28 1.02 2.28 2.28 0 33.01-14.44 40.38-23.06 44.78-1.44.74-2.69 1.37-3.71 2.03-2.16 1.38-3.21 3.02-3.21 5 0 1.97 1.05 3.61 3.21 5 1.02.66 2.27 1.29 3.71 2.03 8.62 4.41 23.06 11.77 23.06 44.77-.01 1.25-1.03 2.28-2.28 2.28zm-73.94-4.56h71.63c-.58-28.25-12.09-34.12-20.55-38.44-1.49-.75-2.88-1.47-4.1-2.25-4.38-2.82-5.3-6.36-5.3-8.83 0-2.47.92-6.01 5.3-8.83 1.22-.78 2.62-1.5 4.1-2.26 8.46-4.32 19.97-10.2 20.55-38.44H28.1c.59 28.25 12.1 34.12 20.56 38.44 1.49.76 2.89 1.48 4.1 2.26 4.38 2.81 5.3 6.35 5.3 8.83 0 2.47-.92 6.01-5.29 8.83-1.22.78-2.62 1.5-4.11 2.25-8.46 4.32-19.97 10.2-20.56 38.44z" fill="#855c52"/><path d="M109.96 120.62c0 3.99-3.23 7.21-7.21 7.21h-77.5c-3.98 0-7.21-3.23-7.21-7.21s3.24-7.21 7.21-7.21h77.49c3.99 0 7.22 3.23 7.22 7.21z" fill="#855c52"/><g><path d="M109.96 7.38c0 3.98-3.23 7.21-7.21 7.21h-77.5c-3.98 0-7.21-3.23-7.21-7.21S21.28.17 25.25.17h77.49c3.99 0 7.22 3.23 7.22 7.21z" fill="#855c52"/></g><path d="M77.55 79.58c-.1-.05-.21-.1-.3-.15H51.43c-.1.05-.21.1-.3.15-7.28 3.72-16.3 8.32-17.87 29.9h62.17C93.84 87.9 84.82 83.3 77.55 79.58z" fill="#d7598b"/></svg>