<svg enable-background="new 0 0 128 128" viewBox="0 0 128 128" xmlns="http://www.w3.org/2000/svg" xmlns:xlink="http://www.w3.org/1999/xlink"><linearGradient id="g" x1="53.692" x2="39.47" y1="49.168" y2="49.168" gradientUnits="userSpaceOnUse"><stop stop-color="#FFD29C" offset="0"/><stop stop-color="#FFD39E" offset=".0237"/><stop stop-color="#FCD8AF" offset=".3158"/><stop stop-color="#FADCBA" offset=".6295"/><stop stop-color="#F9DDBD" offset="1"/></linearGradient><path d="m50.46 57c-1.95 0-3.5-0.89-4.3-1.73-0.04-0.04-0.08-0.07-0.13-0.1l-8.59-8.32 3.71-3.97 8.6 6.54c0.09 0.07 0.19 0.1 0.3 0.1 0.03 0 0.06 0 0.09-0.01 0.14-0.02 0.26-0.1 0.33-0.22l5.12-7.95 6.23 4.99c-0.92 1.4-4.26 6.38-7 8.88-1.27 1.17-2.78 1.79-4.36 1.79z" fill="url(#g)"/><path d="m55.72 42.07 5.44 4.36c-1.16 1.75-4.18 6.13-6.67 8.41-1.21 1.1-2.56 1.66-4.03 1.66-1.79 0-3.24-0.85-3.94-1.58-0.05-0.05-0.11-0.1-0.17-0.14l-8.2-7.95 3.07-3.28 8.24 6.27c0.18 0.13 0.39 0.2 0.61 0.2 0.06 0 0.12-0.01 0.17-0.02 0.27-0.05 0.52-0.21 0.67-0.44l4.81-7.49m-0.24-1.47-5.42 8.42-8.96-6.82-4.36 4.66 9.04 8.76 0.01-0.01c0.99 1.03 2.72 1.88 4.66 1.88 1.53 0 3.19-0.53 4.71-1.92 3.28-2.99 7.33-9.36 7.33-9.36l-7.01-5.61z" fill="#EDBD82"/><defs><path id="f" d="m30.06 42.49s1.02 2.36 4.04 4.27c2.32 1.47 4.15 1.31 4.15 1.31l-0.27-0.89s1.49-0.36 2.92-1.51c0.82-0.66 1.61-1.48 1.61-1.48l0.6-0.29s1.56-1.9 1.18-3.18c-0.74-2.53-3.08-5.48-6.51-5.37-3.42 0.09-7.72 7.14-7.72 7.14z"/></defs><clipPath id="a"><use xlink:href="#f"/></clipPath><g clip-path="url(#a)"><radialGradient id="e" cx="-228.49" cy="424.41" r="4.4356" gradientTransform="matrix(-.0186 .9998 -1.0092 -.0188 462.4 279.74)" gradientUnits="userSpaceOnUse"><stop stop-color="#FFD29C" offset=".4"/><stop stop-color="#F9DDBD" offset="1"/></radialGradient><path d="m38.24 47.58c-1.31 0-2.62-0.59-3.59-1.62l-1.8-1.91c0.28-1.01 5.12-4.69 6.26-4.96 0.05-0.01 0.11-0.02 0.17-0.02 0.81 0 2.17 1.11 2.81 2.71 0.4 1 0.8 2.93-0.99 4.64-0.8 0.76-1.79 1.16-2.86 1.16z" fill="url(#e)"/><path d="m39.28 39.57c0.56 0 1.76 0.93 2.34 2.4 0.43 1.08 0.63 2.67-0.87 4.1-0.7 0.67-1.57 1.02-2.51 1.02-1.18 0-2.35-0.53-3.23-1.46l-1.54-1.64c0.83-1.09 4.56-4.1 5.75-4.41 0.02-0.01 0.04-0.01 0.06-0.01m0-1c-0.1 0-0.19 0.01-0.28 0.03-1.26 0.3-7.42 4.83-6.58 5.72l1.86 1.99c1.05 1.12 2.51 1.78 3.96 1.78 1.13 0 2.26-0.4 3.2-1.3 3.53-3.37-0.05-8.22-2.16-8.22z" fill="#EDBD82"/></g><linearGradient id="d" x1="-169.98" x2="-163.28" y1="-235.3" y2="-235.3" gradientTransform="matrix(.9013 .4331 -.4331 .9013 84.507 325.56)" gradientUnits="userSpaceOnUse"><stop stop-color="#FFD29C" offset="0"/><stop stop-color="#FFD39E" offset=".0237"/><stop stop-color="#FCD8AF" offset=".3158"/><stop stop-color="#FADCBA" offset=".6295"/><stop stop-color="#F9DDBD" offset="1"/></linearGradient><path d="m40.13 39.26-1.81-2.06c-0.44-0.5-1.2-0.55-1.7-0.11s-0.63 1.08-0.11 1.7l1.84 2.09-2.09-2.33c-0.45-0.48-1.21-0.51-1.7-0.05-0.33 0.31-0.44 0.76-0.34 1.16 0.04 0.15-0.07 0.29-0.23 0.28-0.32 0-0.65 0.12-0.89 0.37l-0.01 0.01c-0.47 0.49-0.45 1.26 0.03 1.73-0.45-0.08-0.92 0.1-1.2 0.5v0c-0.37 0.56-0.23 1.33 0.32 1.71l1.39 0.98c0.55 0.39 1.31 0.25 1.69-0.3v0c0.21-0.3 0.26-0.66 0.18-0.98 0.35 0.03 0.72-0.09 0.98-0.37l0.01-0.01c0.29-0.3 0.4-0.72 0.32-1.1 0.42 0.17 0.91 0.09 1.26-0.24v0c0.38-0.36 0.47-0.9 0.27-1.36 0.44 0.46 1.17 0.49 1.65 0.07 0.53-0.44 0.58-1.19 0.14-1.69z" clip-path="url(#a)" fill="url(#d)" stroke="#EDBD82" stroke-linecap="round" stroke-linejoin="round" stroke-miterlimit="10"/><line x1="34.31" x2="37.08" y1="39.99" y2="42.66" clip-path="url(#a)" fill="none" stroke="#EDBD82" stroke-miterlimit="10"/><line x1="33.17" x2="35.46" y1="42.08" y2="44.04" clip-path="url(#a)" fill="none" stroke="#EDBD82" stroke-miterlimit="10"/><g clip-path="url(#a)"><linearGradient id="c" x1="-4.0153" x2="-12.71" y1="-79.8" y2="-83.505" gradientTransform="matrix(.9889 .1485 -.1485 .9889 37.85 124.58)" gradientUnits="userSpaceOnUse"><stop stop-color="#FFD29C" offset="0"/><stop stop-color="#FFD39E" offset=".0237"/><stop stop-color="#FCD8AF" offset=".3158"/><stop stop-color="#FADCBA" offset=".6295"/><stop stop-color="#F9DDBD" offset="1"/></linearGradient><path d="m37.27 38.01c0.25 0.02 1.16 0.04 1.73 0.1 0.22 0.03 0.79 0.12 0.99 0.19 0.65 0.23 2.13 1.43 2.53 3.01 0.34 1.37 0.31 5.17-2.16 3.72-1.58-0.86-0.42-3.25-0.65-3.87-0.17-0.47-0.47-1.19-2.15-1.18-0.47 0-1.17-0.28-1.3-0.73-0.21-0.79 0.28-1.31 1.01-1.24z" fill="url(#c)"/><path d="m36.05 38.08c0.26-0.34 0.69-0.51 1.18-0.46 0.08 0.01 1.69-0.05 2.96 0.4 2.16 0.78 2.62 1.85 2.9 2.84 0.24 0.83 0.01 4.09-1.07 3.38-0.58-0.38 1.04-3.07-0.24-4.43-0.58-0.62-1.39-1.01-1.95-1.22-0.37-0.13-0.71-0.15-0.94-0.18-0.37-0.05-0.9-0.07-1.28-0.09-0.21-0.01-0.38-0.02-0.47-0.03-0.27-0.03-0.49 0.04-0.61 0.19-0.1 0.13-0.2 0.41-0.13 0.65 0.07 0.25 0.68 0.54 1.11 0.55 0.61 0 1.28-0.04 1.79 0.33 0.38 0.27 0.77 0.78 0.77 1.3 0 0.51-0.58 1.62-0.22 2.56 0.15 0.39 0.69 1 0.69 1s-0.8-0.1-1.11-0.53c-0.44-0.6-0.4-1.56-0.25-2.29 0.06-0.33 0.28-0.86 0.23-0.99-0.15-0.39-0.28-0.93-1.82-0.94-0.53 0-1.52-0.18-1.7-0.83-0.14-0.46-0.08-0.89 0.16-1.21z" fill="#EDBD82"/></g><path d="m58.87 51.82c-1.21-0.14-5.79-1.03-7.99-6.67 0.6-0.43 1.79-1.54 3.74-4.4 2.02-2.94 3.55-4.25 4.97-4.25 0.53 0 1.1 0.18 1.74 0.55l0.83 0.48c1 0.59 1.72 1.53 2.01 2.65s0.13 2.3-0.45 3.3l-4.85 8.34z" fill="#3615AF"/><path d="m59.6 37c0.44 0 0.93 0.16 1.49 0.49l0.83 0.48c0.89 0.52 1.52 1.35 1.78 2.35s0.12 2.03-0.4 2.92l-4.69 8.04c-1.42-0.24-5.15-1.32-7.12-5.96 0.73-0.61 1.87-1.83 3.55-4.27 1.89-2.77 3.34-4.05 4.56-4.05m0-1c-1.57 0-3.19 1.27-5.38 4.47-2.8 4.08-3.94 4.46-3.94 4.46 2.57 7.19 8.87 7.41 8.87 7.41l5.02-8.6c1.35-2.31 0.57-5.29-1.74-6.64l-0.83-0.48c-0.69-0.4-1.34-0.62-2-0.62z" fill="#27089C"/><path d="m76.81 97.54h-0.06c-0.02 0-0.05-0.01-0.07-0.01-0.44-0.03-0.86-0.11-1.25-0.23-1.37-0.42-2.51-1.33-3.21-2.56-0.03-0.06-0.07-0.1-0.12-0.14l-8.77-17.61 11.5-7.7 4.98 17.21c0.06 0.22 0.26 0.36 0.48 0.36 0.03 0 0.07 0 0.1-0.01l18.15-3.63 2.15 5.7-22.45 8.53c-0.31 0.06-0.71 0.1-1.12 0.1-0.1 0-0.2-0.01-0.31-0.01z" fill="#646464"/><path d="m74.54 70.08 4.79 16.56c0.13 0.43 0.52 0.72 0.96 0.72 0.06 0 0.13-0.01 0.2-0.02l17.73-3.55 1.83 4.84-21.91 8.32c-0.33 0.06-0.67 0.1-1.01 0.1-0.1 0-0.19 0-0.29-0.01h-0.05-0.02-0.05c-0.4-0.03-0.78-0.1-1.14-0.21-1.25-0.38-2.29-1.21-2.91-2.33-0.04-0.07-0.09-0.13-0.14-0.19l-8.54-17.15 10.55-7.08m0.58-1.6-12.43 8.33 9.06 18.2 0.04-0.03c0.72 1.29 1.94 2.32 3.49 2.8 0.45 0.14 0.9 0.22 1.36 0.25v0.02l0.15-0.01c0.11 0.01 0.23 0.01 0.34 0.01 0.44 0 0.87-0.04 1.29-0.13l22.92-8.71-2.48-6.57-18.57 3.72-5.17-17.88z" fill="#4F4F4F"/><path d="m107.31 94.06c-0.76 0-1.51-0.26-2.11-0.72l-4.84-4.21-3.36-5.65c0.23-0.62 1-2.5 2.19-3.2l2.37-1.42c0.1-0.06 0.21-0.09 0.32-0.09 0.22 0 0.43 0.12 0.54 0.31l7.88 13.2c0.07 0.11 0.09 0.24 0.05 0.37-0.03 0.13-0.11 0.23-0.22 0.3l-1.08 0.63c-0.53 0.32-1.13 0.48-1.74 0.48z" fill="#325599"/><path d="m101.87 79.28c0.02 0 0.08 0 0.11 0.06l7.88 13.18-1.07 0.63c-0.45 0.26-0.97 0.4-1.49 0.4-0.64 0-1.28-0.21-1.79-0.6l-4.78-4.15-3.2-5.37c0.32-0.81 1.02-2.2 1.89-2.72l2.37-1.42c0.04-0.01 0.06-0.01 0.08-0.01m0-1c-0.2 0-0.4 0.05-0.58 0.16l-2.37 1.42c-1.61 0.96-2.48 3.69-2.48 3.69l3.52 5.91 4.93 4.28c0.71 0.55 1.56 0.83 2.42 0.83 0.69 0 1.38-0.18 1.99-0.54l1.08-0.63c0.47-0.28 0.63-0.89 0.35-1.36l-7.88-13.2c-0.22-0.37-0.59-0.56-0.98-0.56z" fill="#224487"/><path d="m38.74 112.29c0.86-2.8 4.77-15.63 6.4-21.29 1.76-6.13 4.12-8.13 4.15-8.15s0.05-0.05 0.08-0.08l8.1-10.27c0.1-0.12 0.13-0.28 0.09-0.43l-0.76-2.95 17.78-5.3c0.43 0.91 1.48 3.29 1.74 5.13 0.27 1.86 0.34 6.56-4.88 10.05-1.25 0.83-14.91 12.14-15.49 12.62-0.05 0.04-0.09 0.09-0.12 0.15l-11.25 21.48-5.84-0.96z" fill="#7C7C7C"/><path d="m74.3 64.41c0.48 1.06 1.3 3.04 1.52 4.6 0.26 1.77 0.32 6.23-4.66 9.56-1.24 0.83-14.07 11.45-15.53 12.65-0.1 0.08-0.19 0.19-0.25 0.31l-11.07 21.17-4.93-0.81c1.11-3.64 4.7-15.4 6.23-20.75 1.71-5.94 3.96-7.89 3.98-7.9 0.06-0.05 0.11-0.1 0.16-0.16l8.1-10.27c0.19-0.25 0.26-0.57 0.18-0.87l-0.64-2.48 16.91-5.05m0.54-1.2-18.65 5.56 0.88 3.42-8.1 10.27s-2.47 2-4.31 8.4c-1.84 6.41-6.56 21.83-6.56 21.83l6.77 1.12 11.4-21.81s14.21-11.77 15.45-12.59c4.63-3.1 5.55-7.41 5.09-10.54-0.35-2.43-1.97-5.66-1.97-5.66z" fill="#5B5B5B"/><linearGradient id="b" x1="139.54" x2="154.72" y1="217.67" y2="248.36" gradientTransform="matrix(.9961 -.0881 .0881 .9961 -106.67 -195.73)" gradientUnits="userSpaceOnUse"><stop stop-color="#F9DDBD" offset=".55"/><stop stop-color="#FFD29C" offset=".8314"/><stop stop-color="#EDBD82" offset="1"/></linearGradient><path d="m62.52 41.29c-2.73 0-3.38-2.98-3.39-3.01-0.1-0.48-1.07-4.61-3.23-5.08-0.36-0.08-0.6-0.09-0.91-0.1-0.39-0.01-0.93-0.03-2.1-0.2-4.21-0.63-4.41-2.96-4.55-4.66-0.06-0.7-0.11-1.25-0.41-1.64-0.1-0.13-0.25-0.21-0.55-0.38-0.39-0.21-1.57-0.87-1.45-1.31 0.15-0.52 0.76-1.07 1.35-1.6 0.82-0.73 1.66-1.49 1.58-2.45 0-0.25-0.1-0.87-0.22-1.5l-0.03-0.14c-0.21-1.26-0.12-2.96 0.25-4.57 1.16-5.07 4.41-8.1 9.16-8.55 0.26-0.02 0.52-0.04 0.78-0.04 4.21 0 9.17 3.15 11.29 7.17 1.29 2.45-0.65 9.33-3.08 13.04-3.11 4.74-0.5 9.42-0.08 10.1 0.06 0.32 0.29 1.71-0.45 2.92-0.55 0.9-1.51 1.52-2.87 1.84-0.38 0.11-0.75 0.16-1.09 0.16z" fill="url(#b)"/><path d="m58.81 6.57c4.04 0 8.81 3.03 10.85 6.91 1.18 2.25-0.72 8.97-3.06 12.54-3.21 4.89-0.72 9.59-0.14 10.56 0.06 0.37 0.19 1.5-0.4 2.47-0.48 0.79-1.34 1.33-2.56 1.62-0.35 0.08-0.67 0.12-0.98 0.12-2.3 0-2.87-2.51-2.9-2.62-0.18-0.82-1.19-4.93-3.61-5.46-0.4-0.09-0.68-0.1-1-0.11-0.38-0.01-0.9-0.03-2.04-0.2-3.82-0.58-3.98-2.51-4.13-4.21-0.06-0.75-0.12-1.4-0.52-1.91-0.16-0.21-0.36-0.32-0.7-0.5-0.66-0.36-1.05-0.64-1.18-0.82 0.16-0.37 0.72-0.87 1.17-1.28 0.86-0.77 1.82-1.63 1.75-2.82-0.01-0.32-0.1-0.87-0.23-1.59l-0.02-0.13c-0.2-1.19-0.11-2.83 0.24-4.38 0.64-2.8 2.62-7.59 8.72-8.16 0.25-0.02 0.49-0.03 0.74-0.03m0-1c-0.28 0-0.55 0.01-0.83 0.04-5.38 0.5-8.51 4.13-9.6 8.93-0.4 1.74-0.47 3.5-0.26 4.76 0.03 0.15 0.24 1.25 0.24 1.6 0.11 1.32-2.52 2.45-2.92 3.87-0.3 1.07 1.92 1.92 2.09 2.13 0.82 1.04-0.91 5.55 5.28 6.48 2.09 0.31 2.25 0.13 2.98 0.29 1.91 0.42 2.85 4.7 2.85 4.7s0.7 3.41 3.87 3.41c0.37 0 0.77-0.05 1.21-0.15 4.8-1.12 3.68-5.44 3.68-5.44s-3.18-4.75 0.03-9.64c2.45-3.74 4.55-10.81 3.11-13.55-2.12-4.02-7.14-7.43-11.73-7.43z" fill="#EDBD82"/><path d="m47.99 29.55c0.86 0.11 1.73-0.03 2.49-0.52 0.84-0.54 0.34-1.24-0.6-0.91-0.57 0.2-1.36 0.26-2.05 0.07l0.16 1.36z" fill="#444"/><ellipse transform="matrix(.0384 -.9993 .9993 .0384 28.283 73.196)" cx="52.17" cy="21.9" rx="1.76" ry="1.14" fill="#312D2D"/><radialGradient id="p" cx="52.731" cy="18.944" r="1.8564" gradientUnits="userSpaceOnUse"><stop stop-color="#454140" offset=".0905"/><stop stop-color="#454140" offset="1"/></radialGradient><path d="m51.54 19.46c-1.1 0.36-1.39-0.36-1.04-0.97 0.26-0.45 0.93-0.83 2.23-0.62 1.23 0.2 1.76 0.89 2.11 1.31 0.34 0.42 0.32 0.85 0.04 0.89-0.38 0.07-1.97-1.06-3.34-0.61z" fill="url(#p)"/><radialGradient id="o" cx="58.724" cy="124.31" r="12.787" gradientTransform="matrix(.9981 .0616 -.0616 .9981 28.056 -118.35)" gradientUnits="userSpaceOnUse"><stop stop-color="#454140" offset="0"/><stop stop-color="#312D2D" offset="1"/></radialGradient><path d="m89.99 28.89c-3.85 0-7.84-1.1-11.23-3.1-5.06-2.98-6.21-8.36-6.59-10.13-0.08-0.4-0.12-0.56-0.18-0.69-0.57-1.17-2.05-3.23-2.65-4.05 1.12-1.1 3.3-2.58 5.34-2.58 0.22 0 0.44 0.02 0.66 0.06 5.28 0.92 6.7 5.16 7.84 8.56 0.35 1.04 0.68 2.03 1.09 2.8 2.85 5.4 9.77 7.07 12.46 7.53-1.44 0.99-3.93 1.6-6.74 1.6z" fill="url(#o)"/><path d="m74.67 8.85c0.2 0 0.39 0.02 0.57 0.05 4.99 0.87 6.3 4.78 7.45 8.23 0.36 1.06 0.69 2.07 1.12 2.88 2.54 4.8 8.14 6.75 11.42 7.51-1.27 0.51-3.05 0.88-5.24 0.88-3.76 0-7.66-1.08-10.98-3.03-4.87-2.87-5.99-8.09-6.35-9.8-0.09-0.41-0.13-0.62-0.22-0.81-0.52-1.05-1.74-2.79-2.44-3.76 1.15-1.03 3.03-2.15 4.67-2.15m0-1c-2.43 0-4.97 1.9-5.99 3.04 0 0 2.15 2.89 2.85 4.31 0.25 0.52 0.85 7.43 6.96 11.03 3.85 2.27 7.99 3.17 11.49 3.17 3.68 0 6.66-0.99 7.86-2.44 0 0-9.73-0.95-13.15-7.42-1.69-3.19-2.04-10.36-9.28-11.62-0.24-0.05-0.49-0.07-0.74-0.07z" fill="#1F1A1A"/><radialGradient id="n" cx="43.523" cy="21.33" r="11.667" gradientTransform="matrix(1.0374 .0485 -.0408 .9994 12.662 -12.855)" gradientUnits="userSpaceOnUse"><stop stop-color="#454140" offset="0"/><stop stop-color="#312D2D" offset="1"/></radialGradient><path d="m60.48 21.85c0.18-0.46 0.52-1.28 0.75-1.66 0.79-1.28 1.83-0.72 1.84-0.71 1.43 0.64 1.71 3.72-0.85 5.3-0.06 0.04-0.2 0.13-0.17 0.45 0.09 0.78 0.85 2.66 3.04 3.37 0.29 0.09 0.55 0.16 0.78 0.19 0.75 0.12 1.45-0.41 1.63-1.15 1.06-4.54 2.96-3.03 4.31-8.81 1.7-7.29-4.4-12.47-10.63-13.28-5.61-0.73-13.37 1.15-13.7 8.42-0.06 1.33 0.68 2.14 0.68 2.14s1.64-3.19 5.18-1.94c3.56 1.26 5.24 0.6 5.24 0.6-1.47 2.81-0.52 4.49 0.37 5.48 0.5 0.57 0.96 1.22 1.21 1.6 0.12 0.2 0.24 0.2 0.32 0z" fill="url(#n)"/><path d="m70.74 10.6c-2.05-2.95-5.6-5.02-9.51-5.52-3.4-0.44-8.14 0.01-11.25 2.62-1.87 1.57-3.08 3.73-2.99 6.25 0.05 1.51 1.07 2.29 1.07 2.29l0.25-0.41s-0.38-0.54-0.38-1.84c0-2.32 1-4.17 2.66-5.56 2.87-2.41 7.31-2.82 10.51-2.41 3.59 0.47 6.98 2.43 8.85 5.12 1.54 2.23 2.02 4.85 1.38 7.58-0.69 2.95-1.51 3.91-2.3 4.83-0.73 0.85-1.74 1.54-2.33 3.78-0.3 1.13-1.36 1.41-1.28 1.42 1.25 0.18 1.99-0.28 2.21-1.2 0.47-2.02 1.41-2.54 2.12-3.37 0.83-0.96 1.76-2.06 2.5-5.23 0.72-3.02 0.19-5.9-1.51-8.35z" fill="#1F1A1A"/><linearGradient id="m" x1="-54.002" x2="-28.423" y1="-122.89" y2="-122.89" gradientTransform="matrix(.9625 .2714 -.2714 .9625 71.898 181.92)" gradientUnits="userSpaceOnUse"><stop stop-color="#651FFF" offset="0"/><stop stop-color="#5914F2" offset=".7047"/><stop stop-color="#530EEB" offset="1"/></linearGradient><path d="m60.63 68.47c-1.82 0-3.37-0.11-4.04-0.17-2.18-8.75-2.9-15.68-2.28-21.77 0.63-6.12 3.42-10.62 7.46-12.05 0.93-0.33 1.81-0.49 2.64-0.49 2.75 0 4.81 1.8 5.82 5.07 0.47 1.54 0.46 2.23 0.44 3.18-0.01 0.72-0.03 1.62 0.17 3.08-0.05 0.77-0.37 7.91 5.26 16.88-0.24 0.73-1.73 3.86-9.62 5.72-1.52 0.37-3.49 0.55-5.85 0.55z" fill="url(#m)"/><path d="m64.42 34.49c3.38 0 4.8 2.96 5.34 4.72 0.45 1.46 0.44 2.08 0.42 3.03-0.01 0.73-0.03 1.64 0.17 3.11-0.06 1.04-0.25 8.11 5.21 16.92-0.4 0.89-2.15 3.53-9.18 5.18-1.49 0.35-3.43 0.53-5.75 0.53-1.53 0-2.87-0.08-3.64-0.14-2.1-8.53-2.79-15.3-2.18-21.25 0.61-5.92 3.27-10.26 7.13-11.63 0.88-0.31 1.71-0.47 2.48-0.47m0-1c-0.87 0-1.8 0.17-2.81 0.52-3.75 1.32-7.08 5.48-7.8 12.47-0.57 5.54-0.1 12.45 2.38 22.29 0 0 1.96 0.2 4.44 0.2 1.92 0 4.14-0.12 5.98-0.55 9.48-2.22 10.05-6.29 10.05-6.29-5.94-9.35-5.3-16.82-5.3-16.82-0.48-3.37 0.24-3.55-0.64-6.4-1.01-3.27-3.19-5.42-6.3-5.42z" fill="#4A00ED"/><linearGradient id="l" x1="72.598" x2="79.405" y1="50.685" y2="58.6" gradientUnits="userSpaceOnUse"><stop stop-color="#FFD29C" offset="0"/><stop stop-color="#FCD8AF" offset=".5087"/><stop stop-color="#F9DDBD" offset="1"/></linearGradient><path d="m73.73 65.36 9.89-6.67v-0.01c3.79-5.18 0.6-7.58 0.6-7.58l-9.16-10.9-5.64 5.83 8.04 8.04-6.01 5.55 2.28 5.74z" fill="url(#l)"/><linearGradient id="k" x1="65.446" x2="71.429" y1="59.469" y2="59.469" gradientUnits="userSpaceOnUse"><stop stop-color="#FFD29C" offset=".4"/><stop stop-color="#F9DDBD" offset="1"/></linearGradient><path d="m71.3 61c0.29-0.55 0.09-1.23-0.46-1.52l-3.73-1.99c-0.55-0.29-1.23-0.09-1.52 0.46s-0.09 1.23 0.46 1.52l3.73 1.99c0.54 0.29 1.22 0.08 1.52-0.46z" fill="url(#k)"/><linearGradient id="j" x1="64.491" x2="67.67" y1="59.296" y2="59.296" gradientUnits="userSpaceOnUse"><stop stop-color="#FFD29C" offset=".4"/><stop stop-color="#F9DDBD" offset="1"/></linearGradient><path d="m65.09 61.16c0.55 0.29 1.23 0.09 1.52-0.46l0.93-1.74c0.29-0.55 0.09-1.23-0.46-1.52s-1.23-0.09-1.52 0.46l-0.93 1.74c-0.3 0.54-0.09 1.23 0.46 1.52z" fill="url(#j)"/><linearGradient id="i" x1="62.458" x2="72.044" y1="65.011" y2="65.011" gradientUnits="userSpaceOnUse"><stop stop-color="#FFD29C" offset=".4"/><stop stop-color="#F9DDBD" offset="1"/></linearGradient><path d="m69.54 60.41 2.5 4.9-2.68 3.58s-2.22 1.18-2.89 0.54c-0.22-0.21-0.23-0.78-0.34-0.91-0.29-0.33-0.85-0.19-1.19-0.64-0.17-0.22-0.17-0.82-0.16-1.15 0.01-0.22-0.23-0.5-0.45-0.54-0.46-0.09-0.7-0.22-0.89-0.55-0.19-0.34-0.2-0.75-0.08-1.14 0.11-0.39-0.06-0.9-0.43-1.07-0.32-0.14-0.66-0.75-0.36-1.33 0.33-0.64 2.21-1.68 2.21-1.68l4.76-0.01z" fill="url(#i)"/><linearGradient id="h" x1="-446.86" x2="-442.41" y1="-469.58" y2="-463.19" gradientTransform="matrix(-.3249 -.8091 -.8331 .3346 -459.98 -138.87)" gradientUnits="userSpaceOnUse"><stop stop-color="#FFD29C" offset="0"/><stop stop-color="#FFD39E" offset=".0237"/><stop stop-color="#FCD8AF" offset=".3158"/><stop stop-color="#FADCBA" offset=".6295"/><stop stop-color="#F9DDBD" offset="1"/></linearGradient><path d="m70.06 58.93 2.67 0.75 1.83 5.05s-5.54 5.7-6.55 4.15c-0.08-0.12-0.2-0.59-0.24-0.77-0.05-0.22-0.2-0.29-0.41-0.39-0.33-0.15-0.71-0.36-0.83-0.65s-0.11-0.69-0.07-1.03c0.03-0.24-0.14-0.45-0.38-0.5-0.51-0.1-0.84-0.19-1.04-0.69-0.16-0.4-0.29-0.87-0.13-1.26 0.18-0.41-0.02-1.04-0.4-1.28-0.21-0.14-0.53-0.61-0.39-1.31 0.22-1.09 5.94-2.07 5.94-2.07z" fill="url(#h)"/><path d="m63.42 63.92" fill="none"/><path d="m75 41.61c1.85 2.02 6.92 7.6 8.44 9.45 1 1.22 1.37 2.58 1.1 4.05-0.27 1.48-1.12 2.53-1.42 2.7-0.02 0.01-0.05 0.03-0.07 0.04l-0.99 0.68-8.29 5.59-0.15 0.12c-1.54 1.54-3.75 3.47-4.89 3.85-0.04 0.01-0.07 0.03-0.11 0.04-0.56 0.26-1.08 0.44-1.42 0.48-0.06-0.24-0.12-0.51-0.33-0.75-0.33-0.37-0.73-0.49-0.99-0.56-0.03-0.01-0.07-0.02-0.1-0.03-0.01-0.1-0.02-0.26-0.01-0.52 0.02-0.7-0.55-1.41-1.25-1.55-0.17-0.03-0.22-0.06-0.21-0.06-0.04-0.07-0.04-0.21 0.01-0.37 0.25-0.85-0.13-1.81-0.86-2.2 0.11-0.15 0.62-0.58 1.61-1.17 0.41-0.24 0.6-0.74 0.44-1.19-0.01-0.04-0.01-0.07 0-0.1l0.93-1.74s0.02-0.02 0.07-0.04c0.03-0.01 0.06-0.02 0.08-0.04l0.01-0.01c0.02-0.01 0.04-0.01 0.06-0.01h0.02l3.39 1.57c0.33 0.21 0.73 0.31 1.19 0.31 0.48 0 0.93-0.12 1.1-0.17 0.17-0.04 0.32-0.12 0.45-0.24l5.35-4.95c0.2-0.19 0.32-0.45 0.32-0.73s-0.11-0.54-0.31-0.73l-7.84-7.39 4.67-4.33m0.06-1.41-6.22 5.75 8.62 8.12-5.35 4.95c-0.04 0.01-0.45 0.14-0.87 0.14-0.25 0-0.5-0.05-0.69-0.19l-3.53-1.63c-0.12-0.05-0.25-0.07-0.37-0.07-0.15 0-0.29 0.03-0.42 0.08-0.01 0-0.02 0-0.03 0.01-0.03 0.01-0.06 0.03-0.1 0.05-0.23 0.1-0.43 0.25-0.56 0.49l-0.93 1.74c-0.15 0.29-0.16 0.61-0.06 0.9-0.49 0.29-1.73 1.05-1.99 1.56-0.3 0.57 0.04 1.18 0.36 1.33 0.37 0.16 0.54 0.68 0.43 1.07-0.12 0.4-0.11 0.81 0.08 1.14s0.43 0.46 0.89 0.55c0.22 0.04 0.45 0.32 0.45 0.54-0.01 0.34-0.01 0.93 0.16 1.15 0.34 0.45 0.9 0.31 1.19 0.64 0.12 0.13 0.12 0.7 0.34 0.91 0.15 0.14 0.36 0.19 0.61 0.19 0.65 0 1.52-0.37 1.97-0.58 1.64-0.55 4.47-3.28 5.28-4.09l8.29-5.59 0.99-0.68c1.13-0.64 3.54-4.66 0.6-8.25-1.88-2.32-9.14-10.23-9.14-10.23z" fill="#EDBD82"/><path d="m73.87 51.36c-1.27-0.85-5.67-3.88-7.19-5.7-2.18-2.61-2.64-4.99-1.36-7.08 0.59-0.97 1.65-1.5 2.98-1.5s2.81 0.54 4.05 1.47c3.39 2.56 5.95 3.17 6.98 3.31-0.2 3.72-4.33 8.31-5.46 9.5z" fill="#3615AF"/><path d="m68.3 37.58c1.23 0 2.59 0.5 3.75 1.37 3.03 2.29 5.44 3.06 6.74 3.32-0.42 2.95-3.32 6.63-4.99 8.43-1.57-1.07-5.37-3.73-6.74-5.37-2.03-2.43-2.47-4.61-1.32-6.5 0.64-1.03 1.75-1.25 2.56-1.25m0-1c-1.42 0-2.68 0.55-3.41 1.74-1.29 2.1-1.08 4.69 1.4 7.66 1.84 2.21 7.64 6.02 7.64 6.02s6.06-5.99 5.9-10.6c0 0-2.89-0.01-7.19-3.26-1.34-1.01-2.92-1.56-4.34-1.56z" fill="#27089C"/><path d="m44.93 120.1-15.17-2.48c-0.13-0.02-0.24-0.09-0.32-0.2s-0.11-0.24-0.08-0.36l0.21-1.23c0.24-1.39 1.29-2.49 2.67-2.78l6.34-1 6.48 1.07c0.33 0.58 1.27 2.37 1.04 3.74l-0.44 2.73c-0.05 0.31-0.31 0.53-0.62 0.53 0-0.02-0.07-0.02-0.11-0.02z" fill="#4568AD"/><path d="m38.58 112.55 6.17 1.01c0.42 0.78 1.03 2.19 0.87 3.2l-0.44 2.73c-0.01 0.07-0.07 0.11-0.15 0.11h-0.01l-15.16-2.46 0.21-1.23c0.2-1.18 1.09-2.11 2.26-2.38l6.25-0.98m0-1.01-6.45 1.01c-1.58 0.34-2.79 1.6-3.06 3.19l-0.21 1.23c-0.09 0.54 0.27 1.05 0.81 1.14l15.17 2.48c0.06 0.01 0.12 0.01 0.18 0.01 0.54 0 1.02-0.39 1.11-0.95l0.44-2.73c0.3-1.85-1.22-4.27-1.22-4.27l-6.77-1.11z" fill="#315499"/></svg>
