<svg enable-background="new 0 0 128 128" viewBox="0 0 128 128" xmlns="http://www.w3.org/2000/svg" xmlns:xlink="http://www.w3.org/1999/xlink"><linearGradient id="c" x1="64" x2="64" y1="123.98" y2="4.0149" gradientUnits="userSpaceOnUse"><stop stop-color="#689F38" offset="0"/><stop stop-color="#8BC34A" offset="1"/></linearGradient><path d="m93.34 86.9c0-4.46-0.85-8.35-2.56-11.68-1.7-3.32-4.36-6.23-7.95-8.74-3.06-2.13-7.16-4.11-12.26-5.94-0.56-0.2-0.95-0.74-0.94-1.34l0.34-28.86c0.01-1.01 1.08-1.71 1.99-1.27 1.8 0.87 3.38 2.14 4.72 3.81 2.42 3.01 3.81 6.89 4.15 11.72 0.09 1.34 1.21 2.39 2.56 2.39h6.5c1.47 0 2.64-1.25 2.56-2.72-0.38-7.33-2.39-13.19-5.89-17.61-3.71-4.68-8.93-7.57-15.38-8.69-0.68-0.12-1.18-0.69-1.18-1.38v-9.76c0-1.56-1.26-2.82-2.82-2.82h-3.54c-1.46 0-2.64 1.18-2.64 2.64v8.22l-0.11 1.72c-0.04 0.66-0.55 1.2-1.21 1.3-6.48 0.98-11.68 3.56-15.47 7.73-4.02 4.42-6.06 10.08-6.06 16.98 0 6.77 2.03 12.36 6.14 16.76 3.35 3.59 8.32 6.62 14.9 9.1 0.55 0.21 0.93 0.74 0.92 1.33l-0.34 30.01c-0.01 0.92-0.89 1.58-1.78 1.35-2.86-0.75-5.24-2.08-7.12-4.02-2.61-2.68-4.11-6.15-4.5-10.77-0.11-1.3-1.27-2.37-2.57-2.37h-6.57c-1.48 0-2.65 1.27-2.55 2.74 0.47 6.96 2.84 12.49 6.74 16.76 4.2 4.6 9.93 7.26 17.32 8.14 0.71 0.08 1.26 0.67 1.26 1.39v7.87c0 1.7 1.39 3.08 3.08 3.08h2.97c1.62 0 2.95-1.33 2.95-2.95v-6.6l0.01-1.44c0.01-0.7 0.54-1.28 1.24-1.37 7.1-0.94 12.66-3.45 16.69-7.55 4.26-4.32 6.4-10.05 6.4-17.16zm-39.36-34.26c-2.8-2.55-4.2-5.98-4.2-10.28 0-4.64 1.33-8.25 3.98-10.84 1.33-1.3 2.97-2.27 4.91-2.92 0.92-0.31 1.88 0.39 1.87 1.36l-0.27 24.38c-0.01 1.06-1.16 1.73-2.09 1.22-1.69-0.93-3.09-1.9-4.2-2.92zm22.94 45.24c-1.66 1.39-3.64 2.41-5.95 3.07-0.92 0.26-1.84-0.42-1.83-1.37l0.3-25.19c0.01-1.04 1.12-1.7 2.05-1.24 2.58 1.29 4.62 2.65 6.09 4.09 2.71 2.65 4.07 5.91 4.07 9.78 0.01 4.59-1.57 8.21-4.73 10.86z" fill="url(#c)"/><g opacity=".2"><path d="m67.17 6.01c0.45 0 0.82 0.37 0.82 0.82v9.77c0 1.65 1.19 3.06 2.84 3.35 6.04 1.05 10.8 3.73 14.16 7.97 3.27 4.13 5.1 9.67 5.46 16.47 0.01 0.22-0.1 0.37-0.16 0.44-0.08 0.08-0.21 0.18-0.4 0.18h-6.5c-0.3 0-0.54-0.23-0.57-0.53-0.37-5.19-1.91-9.51-4.58-12.83-1.52-1.89-3.34-3.36-5.41-4.36-0.46-0.22-0.95-0.33-1.45-0.33-1.86 0-3.38 1.52-3.41 3.38l-0.34 28.86c-0.02 1.45 0.89 2.75 2.27 3.24 4.93 1.77 8.9 3.68 11.79 5.69 3.31 2.31 5.77 5 7.32 8.01 1.55 3.03 2.34 6.65 2.34 10.77 0 6.63-1.91 11.79-5.83 15.76-3.7 3.75-8.92 6.1-15.53 6.97-1.68 0.22-2.96 1.66-2.98 3.34l-0.01 1.46v6.6c0 0.51-0.43 0.95-0.95 0.95h-2.97c-0.59 0-1.08-0.5-1.08-1.08v-7.87c0-1.72-1.3-3.17-3.02-3.37-6.97-0.83-12.23-3.28-16.08-7.5-3.7-4.05-5.8-9.29-6.22-15.55-0.01-0.22 0.09-0.36 0.15-0.43 0.07-0.08 0.2-0.18 0.4-0.18h6.57c0.26 0 0.55 0.27 0.57 0.54 0.43 5.01 2.08 8.93 5.06 11.99 2.13 2.19 4.84 3.73 8.05 4.57 0.28 0.07 0.58 0.11 0.87 0.11 1.87 0 3.4-1.51 3.42-3.37l0.34-30.02c0.02-1.42-0.87-2.71-2.22-3.22-6.27-2.36-11.03-5.25-14.15-8.6-3.77-4.04-5.6-9.07-5.6-15.39 0-6.33 1.86-11.59 5.54-15.63 3.45-3.79 8.26-6.18 14.29-7.1 1.59-0.24 2.81-1.57 2.9-3.15l0.11-1.72v-0.12-8.25c0-0.35 0.29-0.64 0.64-0.64h3.55m-8.32 51.73c1.86 0 3.39-1.51 3.42-3.37l0.27-24.38c0.01-0.92-0.34-1.78-0.98-2.43s-1.53-1.02-2.44-1.02c-0.37 0-0.73 0.06-1.08 0.18-2.22 0.74-4.13 1.88-5.67 3.39-3.04 2.97-4.58 7.1-4.58 12.27 0 4.87 1.63 8.82 4.85 11.75 1.21 1.1 2.74 2.17 4.57 3.19 0.5 0.27 1.07 0.42 1.64 0.42m11.72 45.27c0.32 0 0.64-0.04 0.95-0.13 2.58-0.74 4.83-1.9 6.69-3.46 3.61-3.03 5.45-7.2 5.45-12.39 0-4.41-1.57-8.19-4.67-11.21-1.61-1.57-3.82-3.07-6.6-4.45-0.48-0.25-1-0.37-1.53-0.37-1.86 0-3.4 1.51-3.42 3.37l-0.3 25.19c-0.01 0.91 0.34 1.78 0.98 2.43 0.65 0.64 1.54 1.02 2.45 1.02m-3.4-99h-3.54c-1.46 0-2.64 1.18-2.64 2.64v8.22l-0.11 1.72c-0.04 0.66-0.55 1.2-1.21 1.3-6.47 0.98-11.67 3.56-15.46 7.73-4.02 4.42-6.06 10.08-6.06 16.98 0 6.77 2.03 12.36 6.14 16.76 3.35 3.59 8.32 6.62 14.9 9.1 0.55 0.21 0.93 0.74 0.92 1.33l-0.34 30.01c-0.01 0.79-0.67 1.4-1.42 1.4-0.12 0-0.24-0.02-0.36-0.05-2.86-0.75-5.24-2.08-7.12-4.02-2.61-2.68-4.11-6.15-4.5-10.77-0.11-1.3-1.27-2.37-2.57-2.37h-6.57c-1.48 0-2.65 1.27-2.55 2.74 0.47 6.96 2.84 12.49 6.74 16.76 4.2 4.6 9.93 7.26 17.32 8.14 0.71 0.08 1.26 0.67 1.26 1.39v7.87c0 1.7 1.39 3.08 3.08 3.08h2.97c1.62 0 2.95-1.33 2.95-2.95v-6.6l0.01-1.44c0.01-0.7 0.54-1.28 1.24-1.37 7.1-0.94 12.66-3.45 16.69-7.55 4.27-4.33 6.4-10.06 6.4-17.17 0-4.46-0.85-8.35-2.56-11.68-1.7-3.32-4.36-6.23-7.95-8.74-3.06-2.13-7.16-4.11-12.26-5.94-0.56-0.2-0.95-0.74-0.94-1.34l0.34-28.86c0.01-0.8 0.68-1.41 1.41-1.41 0.19 0 0.39 0.04 0.58 0.13 1.8 0.87 3.38 2.14 4.72 3.81 2.42 3.01 3.81 6.89 4.15 11.72 0.09 1.34 1.21 2.39 2.56 2.39h6.5c1.47 0 2.64-1.25 2.56-2.72-0.38-7.33-2.39-13.19-5.89-17.61-3.71-4.68-8.93-7.57-15.38-8.69-0.68-0.12-1.18-0.69-1.18-1.38v-9.74c-0.01-1.55-1.27-2.82-2.83-2.82zm-8.32 51.73c-0.23 0-0.46-0.06-0.68-0.18-1.68-0.94-3.08-1.91-4.19-2.92-2.8-2.55-4.2-5.98-4.2-10.28 0-4.64 1.33-8.25 3.98-10.84 1.33-1.3 2.97-2.27 4.91-2.92 0.15-0.05 0.3-0.07 0.45-0.07 0.76 0 1.43 0.62 1.42 1.43l-0.27 24.38c-0.01 0.82-0.69 1.4-1.42 1.4zm11.72 45.27c-0.77 0-1.43-0.61-1.43-1.42l0.3-25.19c0.01-0.81 0.68-1.39 1.42-1.39 0.21 0 0.43 0.05 0.63 0.15 2.58 1.29 4.62 2.65 6.09 4.09 2.71 2.65 4.07 5.91 4.07 9.78 0 4.59-1.58 8.2-4.73 10.85-1.66 1.39-3.64 2.41-5.95 3.07-0.13 0.04-0.27 0.06-0.4 0.06z" fill="#424242"/></g><g display="none"><g display="inline"><g opacity=".6"><circle cx="64" cy="64" r="28" fill="none" opacity=".61" stroke="#000" stroke-miterlimit="10" stroke-width=".2625"/><line x1="83.5" x2="83.5" y2="128" fill="none" opacity=".61" stroke="#000" stroke-miterlimit="10"/><line x1="43.5" x2="43.5" y2="128" fill="none" opacity=".61" stroke="#000" stroke-miterlimit="10"/><line x1="63.5" x2="63.5" y2="128" fill="none" opacity=".61" stroke="#000" stroke-miterlimit="10"/><line x1="128" y1="64.5" y2="64.5" fill="none" opacity=".61" stroke="#000" stroke-miterlimit="10"/><line x1="128" y1="44.5" y2="44.5" fill="none" opacity=".61" stroke="#000" stroke-miterlimit="10"/><line x1="128" y1="83.5" y2="83.5" fill="none" opacity=".61" stroke="#000" stroke-miterlimit="10"/><line x1="128" y1="128" fill="none" opacity=".61" stroke="#000" stroke-miterlimit="10" stroke-width=".25"/><line x2="128" y1="128" fill="none" opacity=".61" stroke="#000" stroke-miterlimit="10" stroke-width=".25"/><g opacity=".61"><path d="M64,4.26c32.94,0,59.74,26.8,59.74,59.74S96.94,123.74,64,123.74S4.26,96.94,4.26,64S31.06,4.26,64,4.26 M64,4 C30.86,4,4,30.86,4,64s26.86,60,60,60s60-26.86,60-60S97.14,4,64,4L64,4z"/></g><path d="m115.5 108.47c0 4.43-3.59 8.03-8.03 8.03h-87.94c-4.43 0-8.03-3.59-8.03-8.03v-87.94c0-4.43 3.59-8.03 8.03-8.03h87.94c4.43 0 8.03 3.59 8.03 8.03v87.94z" fill="none" opacity=".61" stroke="#000" stroke-miterlimit="10"/><path d="m107.5 116.5c0 4.42-3.58 8-8 8h-72c-4.42 0-8-3.58-8-8v-104c0-4.42 3.58-8 8-8h72c4.42 0 8 3.58 8 8v104z" fill="none" opacity=".61" stroke="#000" stroke-miterlimit="10"/><path d="M123.5,98.27c0,5.65-4.58,10.23-10.23,10.23H13.73 c-5.65,0-10.23-4.58-10.23-10.23V30.73c0-5.65,4.58-10.23,10.23-10.23h99.54c5.65,0,10.23,4.58,10.23,10.23V98.27z" fill="none" opacity=".61" stroke="#000" stroke-miterlimit="10"/></g><g opacity=".2"><defs><rect id="b" width="128" height="128" opacity=".2"/></defs><clipPath id="a"><use xlink:href="#b"/></clipPath><g clip-path="url(#a)"><g fill="none" stroke="#000" stroke-miterlimit="10"><line x1="-28.5" x2="-28.5" y1="160" y2="-32"/><line x1="-24.5" x2="-24.5" y1="160" y2="-32"/><line x1="-20.5" x2="-20.5" y1="160" y2="-32"/><line x1="-16.5" x2="-16.5" y1="160" y2="-32"/><line x1="-12.5" x2="-12.5" y1="160" y2="-32"/><line x1="-8.5" x2="-8.5" y1="160" y2="-32"/><line x1="-4.5" x2="-4.5" y1="160" y2="-32"/><line x1="-.5" x2="-.5" y1="160" y2="-32"/><line x1="3.5" x2="3.5" y1="160" y2="-32"/><line x1="7.5" x2="7.5" y1="160" y2="-32"/><line x1="11.5" x2="11.5" y1="160" y2="-32"/><line x1="15.5" x2="15.5" y1="160" y2="-32"/><line x1="19.5" x2="19.5" y1="160" y2="-32"/><line x1="23.5" x2="23.5" y1="160" y2="-32"/><line x1="27.5" x2="27.5" y1="160" y2="-32"/><line x1="31.5" x2="31.5" y1="160" y2="-32"/><line x1="35.5" x2="35.5" y1="160" y2="-32"/><line x1="39.5" x2="39.5" y1="160" y2="-32"/><line x1="43.5" x2="43.5" y1="160" y2="-32"/><line x1="47.5" x2="47.5" y1="160" y2="-32"/><line x1="51.5" x2="51.5" y1="160" y2="-32"/><line x1="55.5" x2="55.5" y1="160" y2="-32"/><line x1="59.5" x2="59.5" y1="160" y2="-32"/><line x1="63.5" x2="63.5" y1="160" y2="-32"/><line x1="67.5" x2="67.5" y1="160" y2="-32"/><line x1="71.5" x2="71.5" y1="160" y2="-32"/><line x1="75.5" x2="75.5" y1="160" y2="-32"/><line x1="79.5" x2="79.5" y1="160" y2="-32"/><line x1="83.5" x2="83.5" y1="160" y2="-32"/><line x1="87.5" x2="87.5" y1="160" y2="-32"/><line x1="91.5" x2="91.5" y1="160" y2="-32"/><line x1="95.5" x2="95.5" y1="160" y2="-32"/><line x1="99.5" x2="99.5" y1="160" y2="-32"/><line x1="103.5" x2="103.5" y1="160" y2="-32"/><line x1="107.5" x2="107.5" y1="160" y2="-32"/><line x1="111.5" x2="111.5" y1="160" y2="-32"/><line x1="115.5" x2="115.5" y1="160" y2="-32"/><line x1="119.5" x2="119.5" y1="160" y2="-32"/><line x1="123.5" x2="123.5" y1="160" y2="-32"/><line x1="127.5" x2="127.5" y1="160" y2="-32"/><line x1="131.5" x2="131.5" y1="160" y2="-32"/><line x1="135.5" x2="135.5" y1="160" y2="-32"/><line x1="136.5" x2="136.5" y1="166" y2="-26"/><line x1="143.5" x2="143.5" y1="160" y2="-32"/><line x1="147.5" x2="147.5" y1="160" y2="-32"/><line x1="151.5" x2="151.5" y1="160" y2="-32"/><line x1="155.5" x2="155.5" y1="160" y2="-32"/></g><g fill="none" stroke="#000" stroke-miterlimit="10"><line x1="-32" x2="160" y1="-27.5" y2="-27.5"/><line x1="-32" x2="160" y1="-23.5" y2="-23.5"/><line x1="-32" x2="160" y1="-19.5" y2="-19.5"/><line x1="-32" x2="160" y1="-15.5" y2="-15.5"/><line x1="-32" x2="160" y1="-11.5" y2="-11.5"/><line x1="-32" x2="160" y1="-7.5" y2="-7.5"/><line x1="-32" x2="160" y1="-3.5" y2="-3.5"/><line x1="-32" x2="160" y1=".5" y2=".5"/><line x1="-32" x2="160" y1="4.5" y2="4.5"/><line x1="-32" x2="160" y1="8.5" y2="8.5"/><line x1="-32" x2="160" y1="12.5" y2="12.5"/><line x1="-32" x2="160" y1="16.5" y2="16.5"/><line x1="-32" x2="160" y1="20.5" y2="20.5"/><line x1="-32" x2="160" y1="24.5" y2="24.5"/><line x1="-32" x2="160" y1="28.5" y2="28.5"/><line x1="-32" x2="160" y1="32.5" y2="32.5"/><line x1="-32" x2="160" y1="36.5" y2="36.5"/><line x1="-32" x2="160" y1="40.5" y2="40.5"/><line x1="-32" x2="160" y1="44.5" y2="44.5"/><line x1="-32" x2="160" y1="48.5" y2="48.5"/><line x1="-32" x2="160" y1="52.5" y2="52.5"/><line x1="-32" x2="160" y1="56.5" y2="56.5"/><line x1="-32" x2="160" y1="60.5" y2="60.5"/><line x1="-32" x2="160" y1="64.5" y2="64.5"/><line x1="-32" x2="160" y1="68.5" y2="68.5"/><line x1="-32" x2="160" y1="72.5" y2="72.5"/><line x1="-32" x2="160" y1="76.5" y2="76.5"/><line x1="-32" x2="160" y1="80.5" y2="80.5"/><line x1="-32" x2="160" y1="84.5" y2="84.5"/><line x1="-32" x2="160" y1="88.5" y2="88.5"/><line x1="-32" x2="160" y1="92.5" y2="92.5"/><line x1="-32" x2="160" y1="96.5" y2="96.5"/><line x1="-32" x2="160" y1="100.5" y2="100.5"/><line x1="-32" x2="160" y1="104.5" y2="104.5"/><line x1="-32" x2="160" y1="108.5" y2="108.5"/><line x1="-32" x2="160" y1="112.5" y2="112.5"/><line x1="-32" x2="160" y1="116.5" y2="116.5"/><line x1="-32" x2="160" y1="120.5" y2="120.5"/><line x1="-32" x2="160" y1="124.5" y2="124.5"/><line x1="-32" x2="160" y1="128.5" y2="128.5"/><line x1="-32" x2="160" y1="132.5" y2="132.5"/><line x1="-32" x2="160" y1="136.5" y2="136.5"/><line x1="-32" x2="160" y1="140.5" y2="140.5"/><line x1="-32" x2="160" y1="144.5" y2="144.5"/><line x1="-32" x2="160" y1="148.5" y2="148.5"/><line x1="-32" x2="160" y1="152.5" y2="152.5"/><line x1="-32" x2="160" y1="156.5" y2="156.5"/></g><path d="m160-32v192h-192v-192h192-192v192h192v-192z"/></g></g><g fill="#F44336"><rect width="4" height="128" opacity=".3"/><rect x="124" width="4" height="128" opacity=".3"/><rect transform="matrix(-1.837e-16 1 -1 -1.837e-16 66 -62)" x="62" y="-58" width="4" height="120" opacity=".3"/><rect transform="matrix(-1.837e-16 1 -1 -1.837e-16 190 62)" x="62" y="66" width="4" height="120" opacity=".3"/></g></g></g></svg>
