<?xml version="1.0" encoding="utf-8"?>
<!-- Generator: Adobe Illustrator 16.0.0, SVG Export Plug-In . SVG Version: 6.00 Build 0)  -->
<!DOCTYPE svg PUBLIC "-//W3C//DTD SVG 1.1//EN" "http://www.w3.org/Graphics/SVG/1.1/DTD/svg11.dtd">
<svg version="1.1" id="レイヤー_1" xmlns="http://www.w3.org/2000/svg" xmlns:xlink="http://www.w3.org/1999/xlink" x="0px"
	 y="0px" width="128px" height="128px" viewBox="0 0 128 128" enable-background="new 0 0 128 128" xml:space="preserve">
<g>
	<path fill="#FCD4B5" d="M120.8,84.36c-5.55,1.68-9.98,4.46-14.1,8.57c-0.26,0.25-0.53,0.51-0.81,0.76
		c-0.13,0.11-0.35,0.39-0.5,0.43c-0.35,0.11-0.67-0.18-0.91-0.39c-0.49-0.43-1.08-0.75-1.61-1.13c-0.63-0.45-1.09-1.11-1.74-1.54
		c-0.59-0.4-0.92-0.32-0.26-0.94c0.52-0.5,1.04-1.02,1.5-1.58c0.3-0.37,0.51-0.79,0.81-1.16c0.86-1.04,1.63-2.16,2.33-3.32
		c1.36-2.29,1.98-4.7,2.59-7.25c0.32-1.32,1.52-4.13,3.26-3.71c1.6,0.38,1.43,2.51,2.22,3.62c1.55,2.17,6.16,1.51,8.44,1.51
		c1.69,0,4.37,0.12,5.09,1.99c0.27,0.7,0.05,1.42-0.37,2c-0.88,1.19-3.29,1.35-4.61,1.75C121.69,84.1,121.24,84.23,120.8,84.36z"/>
	<g>
		<path fill="#FCC21B" d="M26.62,101.41c0.59,1.87,1.21,3.71,1.63,5.62c0.72,3.34-0.6,6.29-2.15,9.23
			c-0.54,1.02-0.93,2.54-1.99,3.16c-0.9,0.53-7.85-3.65-7.89-3.58c0,0,2.91-5.78,3.84-7.81c1.95-4.23,3.58-8.7,5.03-13.13
			c0.41,1.12,0.4,2.45,0.7,3.62C26.03,99.51,26.32,100.46,26.62,101.41z"/>
		<path fill="#FCC21B" d="M71.99,118.83c-0.47-0.8-1.13-1.47-1.66-2.25c-1.06-1.55-1.5-3.34-1.65-5.13
			c-0.11-1.29-0.03-5.55,0.23-6.41c0.91-3.04,1.8-6.08,2.59-9.14c1.72-6.72-0.74-14.41-3.97-20.3c-0.93-1.72-1.76-4.4-4.02-3.95
			c-2.19,0.43-3.97,2.14-6,2.96c-3.93,1.6-9.42,0.8-13.32-0.59c-2.65-0.96-6-3.2-8.98-2.38c-2.16,0.6-2.97,4.07-3.7,5.75
			c-3.34,7.7-4.23,16-0.33,23.6c0.36,0.7,2.28,5.69,2.17,10.34c-0.09,4.02-2.17,7.79-2.44,8.31c-0.25,0.46-0.62,1.16-0.51,1.69
			c0.12,0.58,0.68,0.83,1.17,1.2c0.98,0.75,1.95,1.46,3.19,1.82c6.94,1.98,14.05,2.79,21.31,2.03c5.57-0.58,12.11-1.41,16.07-5.3
			c0.3-0.29,0.48-0.63,0.46-1.05C72.57,119.65,72.19,119.17,71.99,118.83z"/>
		<path fill="#FCC21B" d="M105.53,97.59c-4.54,4.52-9.44,9.77-14.66,13.49c-5.18,3.69-11.29-0.65-14.75-4.64
			c-0.66-0.76-1.74-1.57-2.13-2.5c-0.37-0.88-0.04-1.69,0.22-2.54c0.63-2.09,1.15-4.21,1.56-6.34c0.25-1.29,0.28-2.57,0.43-3.85
			c0.24-1.99,1.61-0.23,2.36,0.5c1.19,1.15,2.3,2.43,3.5,3.59c2.38,2.31,4.6,5.38,8.01,3.08c3.54-2.39,7.16-5.68,9.84-9.01
			c0.75-0.93,1.52-1.85,2.31-2.75c1.54-1.73,5.53,2.55,6.5,3.31C112.12,92.58,107.7,95.42,105.53,97.59z"/>
		<g>
			<path fill="#FFFFFF" d="M63.11,68.44c-1.96-1.85-4.49-3.11-7.16-3.46c-4.03-0.52-8.32-0.42-12.29,0.5
				c-2.18,0.51-4.14,1.58-5.88,2.96c-1.39,1.1-3.32,2.5-4.06,4.16c-1.35,3.05,0.17,7.24,2.08,9.72c1.31,1.69,3.37,3.84,5.69,3.84
				c3.05,0,6.47-5.04,8.7-5.04c2.24,0,6.02,5.77,10.33,4.73c4.05-0.98,7.26-7.36,6.16-11.53C66.1,72.08,64.81,70.04,63.11,68.44z"/>
			<g>
				<g>
					<path fill="#FCC21B" d="M24.36,26.32c0.13-16.2,11.52-25.03,27.26-24.99c12.69,0.03,21.29,6.92,23.72,19.34
						c2.87,14.69-8.94,21-21.71,22.22c-2.38,0.23-4.82,0.06-7.21,0.06c-1.92,0-3.68-0.03-5.56-0.47c-3.92-0.93-7.98-1.92-11.38-4.18
						C24.85,35.19,24.31,31.53,24.36,26.32z"/>
				</g>
				<path fill="#FCD4B5" d="M49.95,18.46c-15.42,0-28.43,12.86-28.43,28.08c0,14.35,12.22,25.18,28.43,25.18
					c16.2,0,28.43-10.82,28.43-25.18C78.37,31.32,65.35,18.46,49.95,18.46L49.95,18.46z"/>
				<path fill="#2F2F2F" d="M66.32,49.07c0.02-1.48-0.6-2.98-1.95-3.98c-1.48-1.09-4.09-1.13-5.72-0.3
					c-2.16,1.11-2.84,4.03-1.88,6.21c1.25,2.85,4.72,3.65,7.28,2.22C65.51,52.39,66.29,50.81,66.32,49.07z"/>
				<path fill="#2F2F2F" d="M33.96,49.07c-0.02-1.48,0.6-2.98,1.95-3.98c1.49-1.09,4.1-1.13,5.72-0.3c2.16,1.11,2.84,4.03,1.87,6.21
					c-1.25,2.85-4.72,3.65-7.27,2.22C34.77,52.39,33.98,50.81,33.96,49.07z"/>
				<g>
					<path fill="#855C52" d="M30.57,21.96c-3.87,2.64-6.99,6.42-9,10.69c-1.01,2.14-1.75,4.41-2.12,6.75
						c-0.36,2.29-0.69,4.67-0.33,6.99c0.22,1.35,0.65,2.71,1.15,3.97c0.29,0.74,0.61,1.48,1.08,2.12c0.18,0.25,0.39,0.48,0.64,0.67
						c0.45,0.34,0.78,0.15,1.23-0.12c8.42-5.21,17.43-9.3,26.39-13.44c3.77-1.75,7.5-3.59,11.27-5.33c1.94-0.9,3.93-1.7,5.88-2.58
						c1.68-0.76,3.29-1.84,5.02-2.47c0.57-0.21,0.71-0.46,0.58-1.11c-0.18-0.86-0.77-1.54-1.23-2.25c-0.82-1.25-1.85-2.33-2.87-3.43
						c-1.09-1.18-2.72-2.11-4.12-2.88c-1.25-0.69-2.57-1.25-3.94-1.66c-8.31-2.5-17.84-1.39-25.75,1.94
						C33.11,20.39,31.81,21.11,30.57,21.96z"/>
				</g>
			</g>
		</g>
	</g>
</g>
</svg>
