<svg enable-background="new 0 0 128 128" viewBox="0 0 128 128" xmlns="http://www.w3.org/2000/svg" xmlns:xlink="http://www.w3.org/1999/xlink"><defs><rect id="h" x="4" y="4" width="120" height="120"/></defs><clipPath id="a"><use xlink:href="#h"/></clipPath><g clip-path="url(#a)"><radialGradient id="g" cx="18.091" cy="95.631" r="26.171" gradientUnits="userSpaceOnUse"><stop stop-color="#BFA055" offset="0"/><stop stop-color="#AB872F" offset="1"/></radialGradient><path d="m19.58 116.65c0.11-0.51-0.05-1.03-0.43-1.39-0.28-0.27-0.66-0.42-1.04-0.42-0.12 0-0.24 0.01-0.36 0.04l-11.92 2.98c0.21-3.72 1.65-12.27 10.21-17.8 3.45-2.23 7.38-3.36 11.7-3.36 6.28 0 11.69 2.39 13.78 3.45-0.63 2.68-2.93 10.22-9.73 16.82-4 3.88-10.26 4.95-13.37 5.24l1.16-5.56z" fill="url(#g)"/><path d="m27.73 95.2v3c5.06 0 9.57 1.66 12.01 2.77-0.91 3.15-3.3 9.38-9.01 14.92-2.95 2.86-7.31 4.06-10.42 4.57l0.74-3.49c0.21-1.01-0.11-2.06-0.85-2.78-0.57-0.55-1.31-0.84-2.08-0.84-0.24 0-0.49 0.03-0.73 0.09l-9.84 2.46c0.61-3.96 2.65-10.26 9.31-14.57 3.2-2.07 6.86-3.12 10.88-3.12l-0.01-3.01m0 0c-4 0-8.36 0.92-12.51 3.6-11.87 7.68-10.9 20.98-10.9 20.98l13.79-3.44-1.58 7.48c0.2 0 10.35-0.03 16.28-5.78 8.91-8.64 10.38-18.69 10.38-18.69s-6.92-4.15-15.46-4.15z" fill="#8F7635"/><radialGradient id="f" cx="108.38" cy="96.077" r="26.006" gradientUnits="userSpaceOnUse"><stop stop-color="#BFA055" offset="0"/><stop stop-color="#AB872F" offset="1"/></radialGradient><path d="m109.59 122.21c-3.1-0.29-9.37-1.36-13.37-5.24-6.8-6.6-9.1-14.13-9.73-16.82 2.1-1.06 7.53-3.45 13.78-3.45 4.31 0 8.25 1.13 11.7 3.36 8.47 5.48 9.96 14.08 10.19 17.8l-11.91-2.97c-0.12-0.03-0.24-0.04-0.36-0.04-0.38 0-0.76 0.15-1.04 0.42-0.37 0.36-0.53 0.88-0.43 1.39l1.17 5.55z" fill="url(#f)"/><path d="m100.27 98.2c4.02 0 7.68 1.05 10.88 3.12 6.66 4.31 8.7 10.61 9.31 14.57l-9.85-2.46c-0.24-0.06-0.48-0.09-0.73-0.09-0.77 0-1.52 0.29-2.08 0.84-0.74 0.72-1.07 1.77-0.85 2.78l0.74 3.49c-3.11-0.5-7.47-1.71-10.42-4.57-5.72-5.55-8.11-11.78-9.01-14.92 2.44-1.1 6.95-2.76 12.01-2.76m0-3c-8.54 0-15.47 4.16-15.47 4.16s1.47 10.04 10.38 18.69c5.93 5.75 16.08 5.78 16.28 5.78l-1.58-7.48 13.79 3.44s0.97-13.3-10.9-20.98c-4.14-2.7-8.5-3.61-12.5-3.61z" fill="#8F7635"/></g><g clip-path="url(#a)"><path d="m26.79 94.84c-7.33 0-13.29-5.71-13.29-12.73s5.96-12.73 13.29-12.73h75.43c7 0 12.29 5.47 12.29 12.73s-5.28 12.73-12.29 12.73h-75.43z" fill="#C48E6A"/><path d="m102.21 70.87c6.25 0 10.79 4.72 10.79 11.23s-4.54 11.23-10.79 11.23h-75.42c-6.5 0.01-11.79-5.03-11.79-11.22s5.29-11.23 11.79-11.23h75.42m0-3.01h-75.42c-8.14 0-14.79 6.41-14.79 14.24s6.65 14.23 14.79 14.23h75.43c8.13 0 13.79-6.41 13.79-14.23s-5.66-14.24-13.8-14.24z" fill="#B07853"/></g><g clip-path="url(#a)"><linearGradient id="e" x1="64" x2="64" y1="122.43" y2="41.576" gradientUnits="userSpaceOnUse"><stop stop-color="#CCA47A" offset=".0020528"/><stop stop-color="#D6B088" offset=".2584"/><stop stop-color="#DEB892" offset=".5901"/><stop stop-color="#E0BB95" offset="1"/></linearGradient><path d="m64 122.43c-18.05 0-43.46-16.17-43.46-52.12 0-33.44 19.09-59.64 43.46-59.64s43.46 26.2 43.46 59.64c0 35.95-25.41 52.12-43.46 52.12z" fill="url(#e)"/><path d="m64 12.18c10.89 0 21.21 5.64 29.05 15.87 8.33 10.87 12.91 25.88 12.91 42.27 0 34.91-24.54 50.62-41.96 50.62s-41.96-15.7-41.96-50.62c0-16.39 4.59-31.41 12.91-42.27 7.84-10.24 18.16-15.87 29.05-15.87m0-3c-23.86 0-44.96 25.07-44.96 61.14 0 35.88 25.26 53.62 44.96 53.62s44.96-17.74 44.96-53.62c0-36.08-21.1-61.14-44.96-61.14z" fill="#BA8F63"/></g><path d="m102.3-52.56c4.06-6.55 2-14.43 2-14.43s-3.05 7.18-12.03 5.76c-0.57-0.09-1.13-0.17-1.66-0.24-6.64-3.16-15.2-5.56-26.29-5.54-48.75 0.07-52.62 41.57-50.63 59.81 0.66 6.03 1.3 7.53 1.3 7.53l8.8 7.44-0.74-4.71-4.34-3.66-0.8-6.18 46.64-26.34 46.12 32.62-5.9 3.97-0.44 4.51 9.09-7.16s0.54-7.44 0.56-8.03c0.83-20.86-0.66-32.28-11.68-45.35z" clip-path="url(#a)" fill="none"/><path d="m69.07 87.09c-0.14-0.06-0.28-0.09-0.42-0.11h-9.3c-0.14 0.02-0.28 0.05-0.42 0.11-0.84 0.34-1.31 1.22-0.91 2.14 0.4 0.93 2.25 3.54 5.98 3.54s5.58-2.61 5.98-3.54c0.4-0.92-0.06-1.8-0.91-2.14z" clip-path="url(#a)" fill="#C48E6A"/><g clip-path="url(#a)"><g fill="#AB872F"><path d="m32.44 68.38s0.17-0.25 0.5-0.67c0.09-0.1 0.16-0.21 0.28-0.34 0.14-0.14 0.31-0.28 0.48-0.44 0.18-0.16 0.37-0.32 0.57-0.5 0.2-0.17 0.41-0.3 0.63-0.46 0.22-0.15 0.45-0.31 0.7-0.46 0.26-0.14 0.52-0.28 0.79-0.42 0.27-0.15 0.56-0.28 0.86-0.39 0.3-0.12 0.61-0.24 0.93-0.35 0.65-0.18 1.32-0.38 2.02-0.47 0.7-0.14 1.42-0.14 2.14-0.18 0.72 0.04 1.44 0.05 2.14 0.18 0.7 0.09 1.38 0.29 2.02 0.47 0.32 0.11 0.63 0.23 0.93 0.35s0.59 0.24 0.86 0.39 0.54 0.29 0.79 0.42c0.25 0.15 0.48 0.31 0.7 0.46 0.22 0.16 0.43 0.29 0.62 0.45 0.18 0.16 0.36 0.32 0.52 0.46 0.16 0.15 0.31 0.28 0.45 0.41 0.13 0.14 0.24 0.27 0.34 0.39 0.4 0.47 0.61 0.76 0.61 0.76 0.67 0.93 0.46 2.22-0.47 2.88-0.56 0.41-1.26 0.49-1.88 0.28l-0.38-0.13s-0.25-0.09-0.64-0.26c-0.1-0.04-0.2-0.1-0.32-0.14-0.13-0.04-0.25-0.09-0.39-0.14-0.27-0.11-0.58-0.23-0.92-0.32-0.17-0.05-0.34-0.12-0.52-0.17-0.19-0.04-0.37-0.09-0.57-0.14-0.1-0.03-0.19-0.05-0.29-0.08-0.1-0.02-0.2-0.04-0.31-0.06-0.21-0.03-0.41-0.09-0.62-0.13-0.43-0.05-0.86-0.14-1.31-0.16-0.45-0.06-0.9-0.04-1.36-0.07-0.46 0.02-0.91 0.01-1.36 0.07-0.45 0.02-0.88 0.11-1.31 0.16-0.21 0.04-0.41 0.1-0.62 0.13-0.1 0.02-0.2 0.04-0.31 0.06-0.1 0.03-0.19 0.05-0.29 0.08-0.19 0.05-0.38 0.1-0.57 0.14-0.18 0.05-0.35 0.12-0.52 0.17s-0.33 0.1-0.48 0.15c-0.14 0.05-0.26 0.09-0.38 0.13s-0.24 0.08-0.36 0.11c-0.13 0.05-0.27 0.13-0.38 0.19-0.47 0.24-0.75 0.36-0.75 0.36-1.08 0.45-2.33-0.06-2.78-1.15-0.28-0.69-0.17-1.45 0.21-2.02z"/><path d="m92.98 71.54s-0.28-0.12-0.75-0.36c-0.11-0.06-0.25-0.14-0.38-0.19-0.12-0.03-0.23-0.07-0.36-0.11-0.12-0.04-0.25-0.09-0.38-0.13-0.15-0.05-0.31-0.1-0.48-0.15s-0.34-0.12-0.52-0.17-0.37-0.09-0.57-0.14c-0.1-0.03-0.19-0.05-0.29-0.08-0.1-0.02-0.2-0.04-0.31-0.06-0.21-0.03-0.41-0.09-0.62-0.13-0.43-0.05-0.86-0.14-1.31-0.16-0.45-0.06-0.9-0.05-1.36-0.07-0.46 0.02-0.91 0.01-1.36 0.07-0.45 0.02-0.88 0.11-1.31 0.16-0.21 0.04-0.41 0.09-0.62 0.13-0.1 0.02-0.21 0.04-0.31 0.06-0.1 0.03-0.19 0.05-0.29 0.08-0.19 0.05-0.38 0.1-0.57 0.14-0.18 0.05-0.35 0.12-0.52 0.17-0.34 0.1-0.65 0.21-0.92 0.32-0.14 0.05-0.27 0.11-0.39 0.14-0.12 0.05-0.22 0.1-0.32 0.14-0.39 0.18-0.64 0.26-0.64 0.26l-0.37 0.13c-1.08 0.38-2.26-0.19-2.63-1.27-0.23-0.66-0.1-1.36 0.27-1.89 0 0 0.2-0.28 0.61-0.76 0.1-0.12 0.21-0.25 0.34-0.39 0.13-0.13 0.28-0.26 0.45-0.41 0.16-0.14 0.34-0.3 0.52-0.46 0.19-0.16 0.4-0.29 0.62-0.45 0.22-0.15 0.45-0.31 0.7-0.46 0.26-0.14 0.52-0.28 0.79-0.42 0.27-0.15 0.56-0.28 0.86-0.39 0.3-0.12 0.61-0.24 0.93-0.35 0.65-0.18 1.32-0.38 2.02-0.47 0.7-0.14 1.42-0.15 2.14-0.18 0.72 0.04 1.44 0.05 2.14 0.18 0.7 0.08 1.38 0.29 2.02 0.47 0.32 0.11 0.63 0.23 0.93 0.35s0.59 0.24 0.86 0.39 0.54 0.29 0.79 0.42c0.25 0.15 0.48 0.31 0.7 0.46 0.22 0.16 0.43 0.29 0.63 0.46s0.39 0.34 0.57 0.5c0.17 0.16 0.34 0.3 0.48 0.44 0.12 0.13 0.2 0.24 0.28 0.34 0.33 0.41 0.5 0.67 0.5 0.67 0.66 0.97 0.41 2.29-0.56 2.95-0.6 0.43-1.37 0.48-2.01 0.22z"/></g><g fill="#5D4037"><ellipse cx="42.4" cy="80.3" rx="6.48" ry="6.71"/><ellipse cx="85.6" cy="80.3" rx="6.48" ry="6.71"/></g></g><path d="m75.01 97.97c-4.19 2.49-17.91 2.49-22.1 0-2.4-1.43-4.86 0.76-3.86 2.94 0.98 2.15 8.47 7.13 14.95 7.13 6.47 0 13.87-4.98 14.85-7.13 0.99-2.19-1.43-4.37-3.84-2.94z" clip-path="url(#a)" fill="#6D4C41"/><g clip-path="url(#a)"><radialGradient id="d" cx="40.647" cy="-74.689" r="61.429" gradientTransform="matrix(1.0432 0 0 1.0432 20.851 3.2251)" gradientUnits="userSpaceOnUse"><stop stop-color="#6D4C41" offset="0"/><stop stop-color="#543930" offset=".9006"/></radialGradient><path d="m103.98-65.51c-5.97-6.22-11.63-8.85-12.18-8.92-6.93-3.17-15.85-5.58-27.42-5.58-50.85 0-54.38 41.63-52.33 59.88 1.8 16.09 10.19 20.07 10.19 20.07s-1.65-14.04 1.02-24.24c2.11-8.08 7.16-14.07 7.16-14.07s9.17 7.99 26.27 13.17c8.24 2.5 18.81 1.24 18.81 1.24l-5.93-10.49s9.68 7.13 15.72 8.5c7.73 1.75 13.4 1 13.4 1l-2.84-11.08s4.91 3.24 8.59 12.06c3.68 8.83 1.41 23.9 1.41 23.9s8.83-3.93 10.25-20.06c1.77-20.2-0.65-32.29-12.12-45.38z" fill="url(#d)"/><defs><path id="c" d="m103.98-65.51c-5.6-6.36-11.63-8.85-12.18-8.92-6.93-3.17-15.85-5.58-27.42-5.58-50.85 0-54.38 41.63-52.33 59.88 1.8 16.09 10.19 20.12 10.19 20.12v-3.94s-3.14-3.29-4.19-5.46-0.1-30.59-0.1-30.59l46.12-12.3 45.85 12.3s1.82 28.75 0.13 30.98-3.77 3.2-3.77 3.2l-0.44 5.78s8.84-3.96 10.26-20.08c1.77-20.19-0.65-32.3-12.12-45.39z"/></defs><clipPath id="b"><use xlink:href="#c"/></clipPath><g clip-path="url(#b)"><path d="m64.38-77.01c9.68 0 18.49 1.78 26.17 5.31l0.42 0.19 0.15 0.02c1.15 0.51 6.44 3.29 10.61 7.96 10.31 11.77 13.18 22.65 11.38 43.14-0.51 5.77-2.01 9.76-3.61 12.46 0.16-5.29-0.17-12.08-2.3-17.18-3.99-9.56-9.48-13.26-9.71-13.41l-6.49-4.27 1.93 7.52 1.92 7.49c-2.14-0.03-5.28-0.26-8.91-1.08-4.44-1-12.04-6.11-14.6-7.99l-11.27-8.3 6.88 12.19 3.57 6.32c-0.44 0.01-0.9 0.02-1.37 0.02-4.5 0-8.51-0.49-11.6-1.43-16.2-4.91-25.09-12.49-25.17-12.57l-2.3-2-1.97 2.33c-0.22 0.27-5.51 6.61-7.76 15.24-1.45 5.53-1.7 12.01-1.61 17.04-1.57-2.72-3.08-6.71-3.72-12.44-0.7-6.23-1.96-27.68 11.15-42.33 8.44-9.44 21.29-14.23 38.21-14.23m0-3c-50.85 0-54.38 41.63-52.33 59.88 1.8 16.09 10.19 20.07 10.19 20.07s-1.65-14.04 1.02-24.24c2.11-8.08 7.16-14.07 7.16-14.07s9.17 7.99 26.27 13.17c4.11 1.25 8.8 1.56 12.47 1.56 3.69 0 6.34-0.32 6.34-0.32l-5.93-10.49s9.68 7.13 15.72 8.5c4.16 0.94 7.73 1.16 10.13 1.16 2.06 0 3.27-0.16 3.27-0.16l-2.84-11.08s4.91 3.24 8.59 12.06c3.68 8.83 1.41 23.9 1.41 23.9s8.83-3.93 10.25-20.06c1.77-20.2-0.65-32.29-12.12-45.38-5.05-5.66-11.63-8.85-12.18-8.92-6.92-3.17-15.85-5.58-27.42-5.58z" fill="#402720"/></g></g><line x1="84" x2="29" y1="57" y2="57" clip-path="url(#a)" fill="none"/><g clip-path="url(#a)"><radialGradient id="k" cx="40.528" cy="9.3114" r="61.429" gradientTransform="matrix(1.0432 0 0 1.0432 20.851 -.4021)" gradientUnits="userSpaceOnUse"><stop stop-color="#BFA055" offset="0"/><stop stop-color="#AB872F" offset="1"/></radialGradient><path d="m103.86 18.49c-5.97-6.22-11.63-8.85-12.18-8.92-6.93-3.17-15.85-5.58-27.42-5.58-50.85 0-54.38 41.63-52.33 59.88 1.8 16.09 11.19 20.07 11.19 20.07l-1.54-15.64s18.66-4.92 28.26-12.35 14.03-13.79 14.03-13.79 3.24 4.8 13.91 13.67 28.26 12.59 28.26 12.59l-1.31 15.53s9.84-3.94 11.26-20.07c1.76-20.21-0.66-32.3-12.13-45.39z" fill="url(#k)"/><defs><path id="j" d="m103.98 18.49c-5.6-6.36-11.63-8.85-12.18-8.92-6.92-3.17-15.85-5.58-27.42-5.58-50.85 0-54.38 41.64-52.33 59.88 1.8 16.09 11.19 20.12 11.19 20.12l-0.06-3.42-4.18-4.75-3.18-11.17 4.13-20.65 44.12-12.3 43.85 12.3 4.26 22.31-3.82 10.65-3.04 2.57-0.46 4.44s9.84-3.96 11.26-20.08c1.75-20.2-0.67-32.31-12.14-45.4z"/></defs><clipPath id="i"><use xlink:href="#j"/></clipPath><g clip-path="url(#i)"><path d="m64.38 6.99c9.68 0 18.49 1.78 26.17 5.31 0.15 0.07 0.31 0.13 0.47 0.17 0.92 0.37 6.4 3.19 10.7 8 10.31 11.77 13.18 22.65 11.38 43.14-0.49 5.57-2.09 10.14-4.75 13.6 0.27-4.73 0.56-14.2-1.16-18.32-3.99-9.56-9.48-13.26-9.71-13.41-0.5-0.33-1.08-0.5-1.65-0.5-0.61 0-1.22 0.19-1.74 0.56-1.01 0.72-1.47 1.99-1.16 3.19l1.92 7.49c-2.14-0.03-5.28-0.26-8.91-1.08-4.44-1-12.04-6.11-14.6-7.99-0.53-0.39-1.16-0.58-1.78-0.58-0.71 0-1.42 0.25-1.99 0.75-1.06 0.94-1.32 2.49-0.62 3.72l3.57 6.32c-0.44 0.01-0.9 0.02-1.37 0.02-4.5 0-8.51-0.49-11.6-1.43-16.2-4.91-25.09-12.49-25.17-12.57-0.55-0.48-1.25-0.74-1.97-0.74-0.08 0-0.15 0-0.23 0.01-0.8 0.06-1.55 0.44-2.06 1.06-0.22 0.27-5.51 6.61-7.76 15.24-1.47 5.63-1.45 12.22-1.08 17.3-1.76-2.63-3.58-6.69-4.25-12.71-0.7-6.23-1.96-27.68 11.15-42.33 8.43-9.43 21.28-14.22 38.2-14.22m0-3c-50.85 0-54.38 41.64-52.33 59.88 1.8 16.09 11.19 20.07 11.19 20.07s-2.65-14.04 0.02-24.24c2.11-8.08 7.16-14.07 7.16-14.07s9.17 7.99 26.27 13.17c4.11 1.25 8.8 1.56 12.47 1.56 3.69 0 6.34-0.32 6.34-0.32l-5.93-10.49s9.68 7.13 15.72 8.5c4.16 0.94 7.73 1.16 10.13 1.16 2.06 0 3.27-0.16 3.27-0.16l-2.84-11.08s4.91 3.24 8.59 12.06c1.93 4.63 0.78 19.29 0.78 19.29l-0.38 4.75s9.85-4.09 11.27-20.21c1.77-20.2-0.65-32.29-12.12-45.38-5.05-5.66-11.63-8.85-12.18-8.92-6.93-3.16-15.86-5.57-27.43-5.57z" fill="#8F7635"/></g></g></svg>
