<svg enable-background="new 0 0 128 128" viewBox="0 0 128 128" xmlns="http://www.w3.org/2000/svg" xmlns:xlink="http://www.w3.org/1999/xlink"><path d="m123.41 91.39c-0.88-8.62-7.4-40.78-55.87-40.78-48.49 0-54.95 32.29-55.81 40.93-0.13 1.3 0.2 7.6 0.93 8.68l12.5 15.3c0.91 2.01 2.91 3.31 5.11 3.31l29.65-0.79c5.36-0.14 10.73-0.14 16.09 0l28.84 0.78c2.21 0 4.22-1.3 5.12-3.32l12.52-15.44c0.72-1.07 1.05-7.37 0.92-8.67z" fill="#FFF59D"/><path d="m13.43 102.51c1.07 0 1.96 0.8 2.07 1.87 0.06 0.56-0.1 1.1-0.45 1.54s-0.85 0.71-1.4 0.77c-0.08 0.01-0.15 0.01-0.23 0.01-1.07 0-1.96-0.8-2.07-1.87-0.12-1.15 0.71-2.18 1.85-2.3 0.08-0.02 0.16-0.02 0.23-0.02m0-3c-0.18 0-0.37 0.01-0.55 0.03-2.8 0.3-4.82 2.81-4.51 5.61 0.28 2.61 2.49 4.54 5.06 4.54 0.18 0 0.37-0.01 0.55-0.03 2.8-0.3 4.82-2.81 4.51-5.61-0.28-2.61-2.49-4.54-5.06-4.54z" fill="#00ACC1"/><radialGradient id="h" cx="67.734" cy="86.904" r="54.094" gradientUnits="userSpaceOnUse"><stop stop-color="#FFD54F" offset=".1721"/><stop stop-color="#FFC107" offset=".6868"/></radialGradient><path d="m118.41 96.56c-0.88-8.62-2.4-38.78-50.87-38.78-48.49 0-49.95 30.29-50.81 38.93-0.13 1.3-4.8 2.6-4.07 3.68l12.5 20.3c0.91 2.01 2.91 3.31 5.11 3.31l29.65-0.79c5.36-0.14 10.73-0.14 16.09 0l28.84 0.78c2.21 0 4.22-1.3 5.12-3.32l12.52-20.44c0.72-1.07-3.95-2.37-4.08-3.67z" fill="url(#h)"/><path d="m10.2 123.74-1.93-0.38c-1.84-0.36-2.98-2.23-2.47-4.03l3.29-11.55c0.46-1.61 2.07-2.6 3.72-2.27 1.64 0.32 2.76 1.85 2.57 3.52l-1.36 11.93c-0.21 1.86-1.97 3.15-3.82 2.78z" fill="#81D4FA"/><g opacity=".2"><path d="m12.18 107.44c0.08 0 0.16 0.01 0.24 0.02 0.62 0.12 1.04 0.71 0.97 1.33l-1.36 11.93c-0.07 0.61-0.59 1.08-1.2 1.08-0.08 0-0.16-0.01-0.24-0.02l-1.93-0.38c-0.45-0.09-0.7-0.39-0.8-0.56s-0.26-0.52-0.13-0.97l3.29-11.55c0.14-0.52 0.62-0.88 1.16-0.88m0-2c-1.41 0-2.69 0.93-3.09 2.34l-3.29 11.55c-0.51 1.81 0.62 3.67 2.47 4.03l1.93 0.38c0.21 0.04 0.42 0.06 0.63 0.06 1.6 0 3-1.2 3.19-2.85l1.36-11.93c0.19-1.66-0.93-3.19-2.57-3.52-0.21-0.04-0.42-0.06-0.63-0.06z" fill="#424242"/></g><g opacity=".2"><path d="m67.53 53.62c45.48 0 51.98 29.15 52.89 38.03 0.06 1.03-0.21 5.89-0.58 7.17l-12.44 20.3c-0.07 0.11-0.13 0.23-0.18 0.34-0.41 0.93-1.33 1.53-2.35 1.54l-28.79-0.78c-2.72-0.07-5.49-0.11-8.21-0.11-2.67 0-5.37 0.04-8.04 0.11l-29.6 0.78c-1.01-0.01-1.93-0.61-2.35-1.54-0.05-0.12-0.11-0.23-0.18-0.34l-12.4-20.16c-0.37-1.27-0.64-6.13-0.59-7.12 0.89-8.97 7.34-38.22 52.82-38.22m0-3c-48.49 0-54.95 32.29-55.81 40.93-0.09 0.87 0.2 7.76 0.93 8.85l12.5 20.3c0.91 2.01 2.91 3.31 5.11 3.31l29.65-0.79c2.65-0.07 5.3-0.11 7.96-0.11 2.71 0 5.42 0.04 8.13 0.11l28.84 0.78c2.21 0 4.22-1.3 5.12-3.32l12.52-20.44c0.73-1.09 1.01-7.97 0.92-8.85-0.87-8.62-7.39-40.77-55.87-40.77z" fill="#424242"/></g><defs><path id="d" d="m118.41 96.56c-0.88-8.62-2.4-38.78-50.87-38.78-48.49 0-49.95 30.29-50.81 38.93-0.13 1.3-4.8 2.6-4.07 3.68l12.5 20.3c0.91 2.01 2.91 3.31 5.11 3.31l29.65-0.79c5.36-0.14 10.73-0.14 16.09 0l28.84 0.78c2.21 0 4.22-1.3 5.12-3.32l12.52-20.44c0.72-1.07-3.95-2.37-4.08-3.67z"/></defs><clipPath id="a"><use xlink:href="#d"/></clipPath><linearGradient id="c" x1="20.557" x2="20.557" y1="70.333" y2="123.94" gradientUnits="userSpaceOnUse"><stop stop-color="#F57C00" stop-opacity="0" offset="0"/><stop stop-color="#FF6F00" stop-opacity=".4" offset="1"/></linearGradient><path d="m28 125s-19-12.13-19-27.08 12.92-27.08 12.92-27.08l1.46 2.34c9.71 15.55 11.43 34.8 4.62 51.82z" clip-path="url(#a)" fill="url(#c)"/><linearGradient id="i" x1="40.337" x2="40.337" y1="70.333" y2="123.94" gradientTransform="matrix(-1 0 0 1 154.45 0)" gradientUnits="userSpaceOnUse"><stop stop-color="#F57C00" stop-opacity="0" offset="0"/><stop stop-color="#FF6F00" stop-opacity=".4" offset="1"/></linearGradient><path d="m106.67 125s19-12.13 19-27.08-12.92-27.08-12.92-27.08l-1.46 2.34c-9.72 15.55-11.43 34.8-4.62 51.82z" clip-path="url(#a)" fill="url(#i)"/></svg>
