<?xml version="1.0" encoding="utf-8"?>
<!-- Generator: Adobe Illustrator 24.0.3, SVG Export Plug-In . SVG Version: 6.00 Build 0)  -->
<svg version="1.1" id="Layer_1" xmlns="http://www.w3.org/2000/svg" xmlns:xlink="http://www.w3.org/1999/xlink" x="0px" y="0px"
	 viewBox="0 0 128 128" style="enable-background:new 0 0 128 128;" xml:space="preserve">
<radialGradient id="SVGID_1_" cx="63.667" cy="777.8898" r="51.3397" gradientTransform="matrix(1 0 0 1 0 -713.8898)" gradientUnits="userSpaceOnUse">
	<stop  offset="0.2004" style="stop-color:#1565C0"/>
	<stop  offset="0.7683" style="stop-color:#1E88E5"/>
</radialGradient>
<path style="fill:url(#SVGID_1_);" d="M123.1,52.7c0-9.3-2.3-18.2-6.5-25.9c0.6,3,0.9,6,0.9,9.1c0,12-4.3,23-11.6,31.8
	c0.1-1,0.1-1.9,0.1-2.9c0-0.2,0-0.4,0-0.7c0,0,0-0.5,0-0.6c0-32.3-25.2-58.6-56.4-58.6c-9.3,0-18.2,2.3-25.9,6.5
	c3-0.6,6-0.9,9.1-0.9c11.2,0,21.5,3.8,30,10.2c-1.4,0-2.8,0.1-4.1,0.3C28.6,23.3,5,47.5,5,77.1c0,9.3,2.4,18.2,6.6,25.9
	c-0.6-3-0.9-6-0.9-9.1c0-11.3,3.8-21.7,10.3-30.2c0,0.1,0,0.2,0,0.3c0,0,0,0.3,0,0.5v0.1v0.1c0,0.8,0,1.6,0.1,2.4
	c1.3,31.2,26,56,56.3,56c9.3,0,18.2-2.4,25.9-6.6c-3,0.6-6,0.9-9.1,0.9c-10.1,0-19.5-3.1-27.4-8.3C98.1,107.9,123.1,83.1,123.1,52.7
	z M64,84c-10.7,0-19.3-9-19.3-20S53.3,44,64,44s19.3,9,19.3,20S74.6,84,64,84z"/>
<g style="opacity:0.2;">
	<path style="fill:#424242;" d="M49.6,7.9c29.5,0,53.4,25,53.4,55.7c0,0.1,0,0.4,0,0.7c0,0.1,0,0.2,0,0.2c0,0.1,0,0.2,0,0.3v0.1
		c0,0.9,0,1.5-0.1,2.5c-0.1,1.3,0.7,2.5,1.9,3c0.4,0.1,0.7,0.2,1.1,0.2c0.9,0,1.7-0.4,2.3-1.1c5.9-7.2,9.8-15.4,11.4-24.2
		c0.3,2.4,0.5,4.8,0.5,7.3c0,13.9-5.5,27.1-15.6,37.1S81.1,105.5,66.7,106c-1.3,0.1-2.4,0.9-2.8,2.2s0.1,2.6,1.2,3.3
		c6,4,12.7,6.7,19.7,8c-2.5,0.4-4.9,0.5-7.5,0.5c-13.8,0-27-5.5-37-15.4S24.5,81.3,23.9,66.9c0-0.8-0.1-1.4-0.1-2.1l0,0
		c0-0.1,0-0.2,0-0.3v-0.3v-0.1c0-0.1,0-0.2,0-0.3c-0.1-1.6-1.4-2.8-3-2.8c-1,0-2.1,0.6-2.7,1.6c-5,6.7-8.3,14.2-9.8,22.1
		c-0.4-2.5-0.5-5-0.5-7.5C7.8,63.7,13,50.9,22.5,41C32.2,31,45,25,58.9,23.9H59c1.2-0.1,2.4-0.2,3.8-0.2c1.3,0,2.4-0.9,2.8-2.1
		s0-2.5-1-3.3c-6.6-5-14.1-8.3-22-9.8C44.9,8.1,47.2,7.9,49.6,7.9 M64,87c12.3,0,22.3-10.3,22.3-23S76.3,41,64,41S41.7,51.3,41.7,64
		S51.7,87,64,87 M49.6,4.9c-9.3,0-18.2,2.3-25.9,6.4c3-0.6,6-0.9,9.1-0.9c11.2,0,21.5,3.8,30,10.1c-1.4,0-2.8,0.1-4.1,0.3
		C28.6,23.3,5,47.5,5,77.1c0,9.3,2.4,18.2,6.6,25.9c-0.6-3-0.9-6-0.9-9.1c0-11.3,3.8-21.5,10.3-29.9v-0.1V64l0,0l0,0l0,0v0.5
		c0,0,0,0.1,0,0.2l0,0l0,0l0,0l0,0l0,0l0,0c0,0.8,0,1.5,0.1,2.3c1.2,31.2,25.9,56,56.3,56c9.3,0,18.2-2.4,25.9-6.6
		c-3,0.6-6,0.9-9.1,0.9c-10.1,0-19.5-3.1-27.4-8.3c31.3-1.1,56.3-25.9,56.3-56.4c0-9.3-2.3-18.2-6.5-25.9c0.6,3,0.9,6,0.9,9.1
		c0,12-4.3,23-11.6,31.8c0.1-1,0.1-1.7,0.1-2.7c0-0.2,0-0.4,0-0.4s0-0.7,0-0.9C106,31.3,80.7,4.9,49.6,4.9L49.6,4.9z M64,84
		c-10.7,0-19.3-9-19.3-20S53.3,44,64,44s19.3,9,19.3,20S74.6,84,64,84z"/>
</g>
</svg>
