<svg enable-background="new 0 0 128 128" viewBox="0 0 128 128" xmlns="http://www.w3.org/2000/svg"><radialGradient id="a" cx="57.458" cy="33.263" r="87.72" gradientUnits="userSpaceOnUse"><stop stop-color="#BA8D68" offset=".3582"/><stop stop-color="#A47B62" offset=".8723"/></radialGradient><path d="m54.8 122.3c-21.67 0-27.5-14.29-29.05-22.81-1.47-8.11-3.66-61.9-3.68-62.45 0-2.74 0.71-7.44 5.46-7.44 4.46 0 6.46 3.77 6.46 7.5l0.46 23.06c0.02 0.82 0.68 1.47 1.5 1.47s1.48-0.66 1.5-1.48l0.59-38.15c0-3.76 2-7.52 6.46-7.52s6.46 3.77 6.46 7.5l0.48 37.93c0.01 0.82 0.68 1.48 1.5 1.48s1.49-0.66 1.5-1.48l0.57-46.71c0-3.75 2-7.52 6.46-7.52s6.46 3.77 6.46 7.5l0.59 46.46c0.01 0.82 0.68 1.48 1.5 1.48s1.49-0.66 1.5-1.48l0.47-34.65c0-3.75 2-7.52 6.46-7.52s6.46 3.77 6.46 7.5c0.11 12.42 0.38 44.85 0.34 46.01-0.07 0.72 0.11 1.34 0.52 1.8 0.37 0.4 0.89 0.62 1.47 0.62 0.76 0 1.54-0.38 2.36-0.79 0.25-0.12 0.5-0.24 0.74-0.35 1.9-0.84 2.08-3.53 2.36-7.61 0.23-3.29 0.51-7.39 1.87-10.11 1.38-2.76 3.54-4.11 6.61-4.11 1.28 0 2.44 0.23 3.3 0.44 0.89 0.21 1.49 1.1 1.39 2.06-0.26 0.94-1.96 7.24-2.27 13.38-0.29 5.85-0.32 12.83-0.32 14.02-0.44 1.84-4.38 18.37-6.92 23.94-6.19 13.65-16.29 18.03-41.56 18.03z" fill="url(#a)"/><path d="m61.5 7.2c2.29 0 4.96 1.57 4.96 6.04l0.59 46.44c0.02 1.64 1.36 2.96 3 2.96s2.98-1.32 3-2.96l0.47-34.69c0-2.77 1.3-6 4.96-6s4.96 3.23 4.96 6.03c0.15 17.6 0.37 44.17 0.34 45.89-0.1 1.45 0.44 2.37 0.91 2.9 0.66 0.72 1.57 1.11 2.58 1.11 1.11 0 2.08-0.48 3.02-0.94 0.23-0.11 0.46-0.23 0.69-0.33 2.72-1.21 2.96-4.59 3.25-8.88 0.22-3.16 0.49-7.09 1.72-9.55 1.13-2.27 2.76-3.28 5.27-3.28 1.13 0 2.17 0.21 2.96 0.4 0.13 0.03 0.23 0.19 0.25 0.36-0.38 1.4-1.98 7.54-2.28 13.54-0.29 5.72-0.32 12.32-0.32 13.92-0.59 2.49-4.37 18.19-6.79 23.49-6 13.15-15.4 17.15-40.24 17.15-20.58 0-26.11-13.52-27.57-21.57-1.16-6.4-2.9-43.43-3.65-62.18 0.01-3.94 1.35-5.94 3.96-5.94 2.29 0 4.96 1.57 4.96 6v0.06l0.46 23.03c0.03 1.63 1.37 2.94 3 2.94h0.01c1.64 0 2.97-1.32 2.99-2.95l0.59-38.19c0-2.77 1.3-6 4.96-6s4.96 3.23 4.96 6.04l0.48 37.91c0.02 1.64 1.36 2.96 3 2.96s2.98-1.32 3-2.96l0.57-46.74c0.02-4.44 2.69-6.01 4.98-6.01m0-3c-4.95 0-7.96 4.03-7.96 9l-0.58 46.7-0.48-37.91c0-4.97-3.01-9-7.96-9s-7.96 4.03-7.96 9l-0.59 38.15-0.47-23.03c0-4.97-3.02-9-7.96-9-4.95 0-6.96 4.03-6.96 9 0 0 2.19 54.35 3.7 62.65 1.93 10.59 9.3 24.04 30.52 24.04 24.93 0 36.17-4.02 42.95-18.9 2.77-6.07 7.06-24.39 7.06-24.39s0-7.7 0.32-14.12 2.25-13.16 2.25-13.16c0.25-1.73-0.82-3.41-2.52-3.82-0.88-0.21-2.18-0.48-3.65-0.48-2.71 0-5.95 0.93-7.95 4.94-2.89 5.78-1.28 16.04-3.5 17.03-0.93 0.41-1.92 1.01-2.5 1.01-0.35 0-0.55-0.22-0.49-0.84 0.06-0.69-0.34-46.09-0.34-46.09 0-4.97-3.01-9-7.96-9s-7.96 4.03-7.96 9l-0.47 34.65-0.58-46.43c0-4.98-3.02-9-7.96-9z" fill="#91674D"/><circle cx="77.61" cy="70.38" r="3" fill="#91674D"/><circle cx="62.61" cy="70.38" r="4" fill="#91674D"/><circle cx="44.61" cy="70.38" r="4" fill="#91674D"/><circle cx="30.61" cy="70.38" r="3" fill="#91674D"/></svg>
