<?xml version="1.0" encoding="utf-8"?>
<!-- Generator: Adobe Illustrator 19.2.1, SVG Export Plug-In . SVG Version: 6.00 Build 0)  -->
<svg version="1.1" id="レイヤー_1" xmlns="http://www.w3.org/2000/svg" xmlns:xlink="http://www.w3.org/1999/xlink" x="0px"
	 y="0px" viewBox="0 0 128 128" style="enable-background:new 0 0 128 128;" xml:space="preserve">
<g>
	<path style="fill:#FFFFFF;" d="M64,121.74c-31.84,0-57.74-25.9-57.74-57.73C6.26,32.17,32.17,6.26,64,6.26
		c31.83,0,57.73,25.9,57.73,57.74C121.74,95.84,95.84,121.74,64,121.74z"/>
	<g>
		<path style="fill:#40C0E7;" d="M64,0.1C28.77,0.1,0.1,28.77,0.1,64c0,35.23,28.67,63.9,63.9,63.9c35.23,0,63.9-28.66,63.9-63.9
			C127.9,28.77,99.24,0.1,64,0.1z M64,121.74c-31.84,0-57.74-25.9-57.74-57.73C6.26,32.17,32.17,6.26,64,6.26
			c31.83,0,57.73,25.9,57.73,57.74C121.74,95.84,95.84,121.74,64,121.74z"/>
		<path style="fill:#2F2F2F;" d="M68.61,55.42V11.33H59.4v44.09c-3.07,1.65-5.18,4.85-5.18,8.57c0,3.74,2.11,6.94,5.18,8.59l0,24.71
			h9.21V72.58c3.07-1.65,5.18-4.85,5.18-8.59C73.78,60.27,71.67,57.07,68.61,55.42z M65.39,67.41c-0.43,0.18-0.9,0.27-1.39,0.27
			c-0.5,0-0.97-0.1-1.4-0.27c-0.02-0.01-0.03-0.02-0.06-0.03c-1.31-0.56-2.23-1.86-2.23-3.38c0-1.55,0.96-2.88,2.32-3.42
			c0.43-0.17,0.88-0.27,1.37-0.27c0.48,0,0.94,0.1,1.36,0.27c1.36,0.54,2.33,1.86,2.33,3.42c0,1.52-0.92,2.83-2.24,3.38
			C65.43,67.4,65.42,67.41,65.39,67.41z"/>
		<path style="fill:#2F2F2F;" d="M113.94,60.32c-2.04,0-3.69,1.65-3.69,3.69c0,2.03,1.65,3.68,3.69,3.68c2.03,0,3.68-1.65,3.68-3.68
			C117.62,61.96,115.97,60.32,113.94,60.32z"/>
		<path style="fill:#2F2F2F;" d="M109.09,42.23c1.76-1.02,2.36-3.27,1.34-5.04c-1.01-1.76-3.27-2.36-5.03-1.35
			c-1.76,1.02-2.36,3.27-1.35,5.04C105.07,42.64,107.32,43.24,109.09,42.23z"/>
		<path style="fill:#2F2F2F;" d="M90.81,17.57c-1.76-1.02-4.01-0.42-5.03,1.35c-1.02,1.76-0.42,4.01,1.35,5.03
			c1.76,1.02,4.02,0.41,5.03-1.35C93.17,20.83,92.57,18.58,90.81,17.57z"/>
		
			<ellipse transform="matrix(0.866 -0.5 0.5 0.866 -5.1476 22.2987)" style="fill:#2F2F2F;" cx="39.03" cy="20.75" rx="3.68" ry="3.68"/>
		
			<ellipse transform="matrix(0.4999 -0.8661 0.8661 0.4999 -23.4244 37.4966)" style="fill:#2F2F2F;" cx="20.75" cy="39.03" rx="3.68" ry="3.68"/>
		<path style="fill:#2F2F2F;" d="M14.06,60.31c-2.03,0-3.68,1.65-3.68,3.68c0,2.04,1.65,3.68,3.68,3.68
			c2.03,0.01,3.68-1.65,3.68-3.68C17.74,61.96,16.1,60.31,14.06,60.31z"/>
		<path style="fill:#2F2F2F;" d="M18.91,85.78c-1.76,1.02-2.36,3.27-1.35,5.03c1.02,1.76,3.27,2.37,5.03,1.35
			c1.77-1.02,2.37-3.27,1.36-5.04C22.92,85.36,20.68,84.76,18.91,85.78z"/>
		<path style="fill:#2F2F2F;" d="M40.87,104.05c-1.77-1.02-4.01-0.41-5.04,1.35c-1.01,1.76-0.41,4.01,1.35,5.03
			c1.75,1.02,4.02,0.41,5.03-1.35C43.24,107.33,42.63,105.07,40.87,104.05z"/>
		<path style="fill:#2F2F2F;" d="M63.99,110.25c-2.04,0-3.67,1.65-3.68,3.69c0,2.03,1.65,3.68,3.68,3.68c2.03,0,3.69-1.65,3.68-3.68
			C67.69,111.9,66.03,110.25,63.99,110.25z"/>
		<path style="fill:#2F2F2F;" d="M87.12,104.06c-1.77,1.02-2.37,3.26-1.34,5.03c1.02,1.76,3.27,2.37,5.02,1.35
			c1.77-1.01,2.37-3.27,1.35-5.03C91.14,103.65,88.88,103.04,87.12,104.06z"/>
		
			<ellipse transform="matrix(0.5001 -0.8659 0.8659 0.5001 -23.4386 137.3388)" style="fill:#2F2F2F;" cx="107.24" cy="88.97" rx="3.68" ry="3.68"/>
	</g>
</g>
</svg>
