<svg enable-background="new 0 0 128 128" viewBox="0 0 128 128" xmlns="http://www.w3.org/2000/svg"><symbol viewBox="-64.5 -64.5 129 129"><g fill="none" stroke="#4285F4" stroke-miterlimit="10"><rect x="-64" y="-64" width="128" height="128"/><path d="M36.95,37.82C27.32,46.32,14.2,51,0,51 c-14.27,0-27.39-4.62-36.96-13.01C-47.45,28.79-53,15.65-53,0c0-15.58,5.55-28.69,16.04-37.92C-27.36-46.35-14.24-51,0-51 c14.17,0,27.29,4.71,36.95,13.25C47.45-28.45,53-15.4,53,0C53,15.47,47.45,28.55,36.95,37.82z"/><path d="m0 55c-29.59 0-57-19.01-57-55 0-35.8 27.41-55 57-55s57 19.69 57 55c0 35.51-27.41 55-57 55z"/><path d="M0-43c-12.29,0-23.54,3.94-31.68,11.09 C-40.39-24.25-45-13.21-45,0c0,29.7,22.6,43,45,43c21.67,0,45-13.46,45-43S21.67-43,0-43L0-43z"/><line x1="-.01" x2="-.01" y1="51" y2="-51"/><line x1="-16" x2="-16" y1="48.95" y2="-48.93"/><line x1="15.99" x2="15.99" y1="48.91" y2="-48.93"/><line x1="53" x2="-53" y1=".08" y2=".08"/></g></symbol><linearGradient id="a" x1="64" x2="64" y1="19.717" y2="107.7" gradientUnits="userSpaceOnUse"><stop stop-color="#F6A323" offset=".5664"/><stop stop-color="#FEE133" offset=".9168"/></linearGradient><path d="M64,119.89C36.07,119.89,6,102.4,6,64S36.07,8.11,64,8.11c15.48,0,29.81,5.12,40.36,14.43 C115.9,32.72,122,47.06,122,64c0,16.86-6.1,31.17-17.64,41.39C93.78,114.74,79.45,119.89,64,119.89z" fill="url(#a)"/><path d="m64 10.11c14.99 0 28.86 4.95 39.03 13.93 11.1 9.79 16.97 23.61 16.97 39.96 0 16.27-5.87 30.07-16.97 39.89-10.21 9.03-24.07 14-39.03 14-15.04 0-28.9-4.91-39.04-13.82-11.1-9.75-16.96-23.61-16.96-40.07 0-16.54 5.86-30.42 16.96-40.15 10.11-8.86 23.97-13.74 39.04-13.74m0-4c-31.15 0-60 20-60 57.89 0 37.68 28.85 57.89 60 57.89s60-20.73 60-57.89c0-37.37-28.85-57.89-60-57.89z" fill="#EB8F00"/><path d="m65.33 84.65c11.32 1.92 18.39 9.17 20.19 13.28 0.7 1.59 0.62 3.17-0.21 4.23-0.62 0.8-1.58 1.16-2.61 0.98-0.35-0.06-0.69-0.18-1.04-0.35-5.4-2.75-11.78-4.81-18.44-5.94-6.63-1.13-13.3-1.29-19.29-0.47-0.38 0.05-0.75 0.05-1.1-0.01-1.03-0.18-1.81-0.83-2.14-1.79-0.43-1.27 0.02-2.79 1.2-4.06 3.06-3.29 12.13-7.79 23.44-5.87z" fill="#242424"/><path d="m82.77 54.69c4.19 0 8 3.54 8 9.42s-3.81 9.42-8 9.42-8-3.54-8-9.42 3.81-9.42 8-9.42z" fill="#242424"/><path d="m45.23 54.69c-4.19 0-8 3.54-8 9.42s3.81 9.42 8 9.42 8-3.54 8-9.42-3.81-9.42-8-9.42z" fill="#242424"/><path d="M8.49,44.03c2.64-10.73,15.15-24.09,19.1-24.9L71.54,8.68c5.28,0.23,13.47,0.69,19.04,7 L8.49,44.03z" fill="#fff"/><path d="m71.73 10.69c4.17 0.19 10.25 0.58 15.04 4.19l-75.06 25.92c1.34-3.16 3.43-6.65 6.08-10.11 4.76-6.21 8.99-9.32 10.19-9.6l0.12-0.02 43.63-10.38m-0.38-4.02-44.17 10.5c-5.67 1.16-20.56 18.16-21.17 29.83l87.83-30.33c-6.16-9.34-16.74-9.75-22.49-10z" fill="#B3B3B3"/><path d="M6.16,76.54c-2.03-5.98-2.06-17.37,0.08-22.92l81.34-41.49c6.76,1.74,14.08,4.42,18.97,10.53 L6.16,76.54z" fill="#fff"/><path d="m87.82 14.25c5.49 1.47 11.26 3.62 15.55 7.84l-95.94 51.5c-1.15-5.54-1.04-13.95 0.43-18.55l79.96-40.79m-0.47-4.25-82.67 42.17c-2.89 6.34-2.67 21.33 0.5 27.17l104.33-56c-5.33-8.17-14.16-11.34-22.16-13.34z" fill="#B3B3B3"/><path d="M6.37,54.81C5.94,44.62,9.84,36.86,12.46,34.4l92.75-13.47c5.94,4,11.39,9.02,13.82,22.79 L6.37,54.81z" fill="#fff"/><path d="m104.73 23.01c5.16 3.57 9.58 7.95 11.93 18.93l-108.32 10.66c0.16-7.91 2.99-14 5.07-16.32l91.32-13.27m0.95-4.18-94.08 13.67c-3.5 2.75-8.25 12.33-7.09 24.5l116.83-11.5c-2.33-16-8.33-21.83-15.66-26.67z" fill="#B3B3B3"/></svg>
