<svg width="128" height="128" style="enable-background:new 0 0 128 128;" xmlns="http://www.w3.org/2000/svg" xmlns:xlink="http://www.w3.org/1999/xlink">
  <g id="_x31_">
    <g>
      <defs>
        <rect id="SVGID_1_" height="120" width="120" x="4" y="4"/>
      </defs>
      <clipPath id="SVGID_3_">
        <use style="overflow:visible;" xlink:href="#SVGID_1_"/>
      </clipPath>
      <g style="clip-path:url(#SVGID_3_);">
        <defs>
          <rect id="SVGID_4_" height="95.25" width="83.62" x="7.62" y="32.66"/>
        </defs>
        <clipPath id="SVGID_5_">
          <use style="overflow:visible;" xlink:href="#SVGID_4_"/>
        </clipPath>
        <g style="clip-path:url(#SVGID_5_);">
          <radialGradient id="SVGID_6_" cx="-21.789" cy="-132.0944" gradientTransform="matrix(0.826 0 0 0.826 68.2483 101.2865)" gradientUnits="userSpaceOnUse" r="57.9034">
            <stop offset="0" style="stop-color:#454140"/>
            <stop offset="1" style="stop-color:#312D2D"/>
          </radialGradient>
          <path d="M33.02,119.67c0,0-6.8-0.35-10.21-5.09c-7.37-10.23-11.42-35.81-11.42-72.02 c0-1.66,0.26-16.4,10.66-26.83C28.8,8.96,38.4,5.53,50.57,5.53c12.08,0,21.52,3.38,28.05,10.04 c9.82,10.02,10.04,24.16,9.99,26.89c0,36.31-4.06,61.89-11.42,72.12c-3.3,4.59-9.8,5.06-10.25,5.09L50,119.64L33.02,119.67z" style="fill:url(#SVGID_6_);"/>
          <path d="M50.57,7.03c11.66,0,20.74,3.23,26.98,9.59c9.6,9.8,9.59,24.2,9.56,25.81l0,0.12 c0,35.9-3.96,61.17-11.14,71.15c-2.84,3.94-8.55,4.43-9.08,4.46l-16.9-0.03l-16.88,0.03c-0.58-0.04-6.25-0.54-9.08-4.46 c-7.18-9.98-11.14-35.24-11.14-71.17c0-0.63,0.08-15.58,10.22-25.75C29.57,10.31,38.81,7.03,50.57,7.03 M50.57,4.03 C9.56,4.03,9.89,41.95,9.89,42.56c0,24.56,1.88,59.25,11.71,72.9c3.9,5.41,11.43,5.71,11.43,5.71L50,121.14l16.97,0.03 c0,0,7.53-0.3,11.43-5.71c9.83-13.65,11.71-48.34,11.71-72.9C90.1,41.95,91.58,4.03,50.57,4.03L50.57,4.03z" style="fill:#1F1A1A;"/>
        </g>
      </g>
      <g id="XMLID_13_" style="clip-path:url(#SVGID_3_);">
        <linearGradient id="SVGID_7_" gradientUnits="userSpaceOnUse" x1="50" x2="50" y1="97.1045" y2="127.2917">
          <stop offset="0.1609" style="stop-color:#606060"/>
          <stop offset="0.2878" style="stop-color:#606060"/>
          <stop offset="0.449" style="stop-color:#595959"/>
          <stop offset="0.6836" style="stop-color:#464646"/>
          <stop offset="0.962" style="stop-color:#262626"/>
          <stop offset="1" style="stop-color:#212121"/>
        </linearGradient>
        <path d="M-0.5,135.92v-15.26c0-16.24,25.36-23.53,50.5-23.56h0.13c25.03,0,50.36,8.09,50.36,23.56 v15.26H-0.5z" style="fill:url(#SVGID_7_);"/>
        <path d="M50.13,98.6c12.9,0,25.42,2.19,34.36,6c6.62,2.83,14.51,7.91,14.51,16.05v13.76H1v-13.76 c0-15.2,24.61-22.03,49-22.06L50.13,98.6 M50.13,95.6c-0.05,0-0.09,0-0.13,0c-25.49,0.03-52,7.28-52,25.06v16.76h104v-16.76 C102,103.91,75.74,95.6,50.13,95.6L50.13,95.6z" style="fill:#404042;"/>
      </g>
      <path d="M80.59,87.09c0,2.14-2.26,4.12-6.08,5.71 c-5.58,2.33-16.6,32.6-26.63,32.6c-6.53,0-10.47-29.41-15.43-30.5c-7.88-1.73-13.03-4.58-13.03-7.81c0-5.27,13.69-9.54,30.59-9.54 S80.59,81.82,80.59,87.09z" style="clip-path:url(#SVGID_3_);fill:#212121;"/>
      <g style="clip-path:url(#SVGID_3_);">
        <path d="M6.15,104.52c-0.52,0.62-0.68,1.45-0.16,2.07 l3.11,3.74c0.52,0.62,1.65,1.46,2.32,1c3.12-2.17,10.62-7.21,16.25-5.38l-3.8-7.73C23.87,98.23,12.54,96.92,6.15,104.52z" style="fill:#808080;stroke:#575757;stroke-width:2;stroke-miterlimit:10;"/>
        <g>
          <ellipse cx="11.29" cy="105.46" rx="2.69" ry="2.69" style="fill:#757575;stroke:#9E9E9E;stroke-miterlimit:10;" transform="matrix(0.1453 -0.9894 0.9894 0.1453 -94.6873 101.3059)"/>
          <g>
            <ellipse cx="12.22" cy="105.59" rx="0.55" ry="0.55" style="fill:#424242;" transform="matrix(0.1453 -0.9894 0.9894 0.1453 -94.0261 102.345)"/>
            <ellipse cx="10.36" cy="105.32" rx="0.55" ry="0.55" style="fill:#424242;" transform="matrix(0.1453 -0.9894 0.9894 0.1453 -95.3484 100.2668)"/>
          </g>
        </g>
      </g>
      <g style="clip-path:url(#SVGID_3_);">
        <path d="M91.88,104.52c0.52,0.62,0.68,1.45,0.16,2.07 l-3.11,3.74c-0.52,0.62-1.65,1.46-2.32,1c-3.12-2.17-10.62-7.21-16.25-5.38l3.8-7.73C74.16,98.23,85.48,96.92,91.88,104.52z" style="fill:#808080;stroke:#575757;stroke-width:2;stroke-miterlimit:10;"/>
        <g>
          <ellipse cx="86.73" cy="105.46" rx="2.69" ry="2.69" style="fill:#757575;stroke:#9E9E9E;stroke-miterlimit:10;" transform="matrix(0.9894 -0.1453 0.1453 0.9894 -14.4015 13.7205)"/>
          <g>
            <ellipse cx="85.8" cy="105.59" rx="0.55" ry="0.55" style="fill:#424242;" transform="matrix(0.9894 -0.1453 0.1453 0.9894 -14.4312 13.5865)"/>
            <ellipse cx="87.67" cy="105.32" rx="0.55" ry="0.55" style="fill:#424242;" transform="matrix(0.9894 -0.1453 0.1453 0.9894 -14.3717 13.8544)"/>
          </g>
        </g>
      </g>
      <g id="XMLID_10_" style="clip-path:url(#SVGID_3_);">
        <path d="M49.17,109.39c-4,0-7.26-3.22-7.26-7.17v-8.98h16.16v8.98c0,3.96-3.26,7.17-7.26,7.17H49.17z" style="fill:#EDC391;"/>
        <path d="M57.08,94.23v7.98c0,3.4-2.81,6.17-6.26,6.17h-1.65c-3.45,0-6.26-2.77-6.26-6.17v-7.98H50H57.08 M59.08,92.23H50h-9.08v9.98c0,4.51,3.7,8.17,8.26,8.17h1.65c4.56,0,8.26-3.66,8.26-8.17V92.23L59.08,92.23z" style="fill:#D9AC77;"/>
      </g>
      <polygon points="39.43,105 43.02,133 50.2,133 50.61,133 57.37,133 60.57,105 " style="clip-path:url(#SVGID_3_);fill:#BDBDBD;"/>
      <g style="clip-path:url(#SVGID_3_);">
        <g>
          <linearGradient id="SVGID_8_" gradientUnits="userSpaceOnUse" x1="50.3057" x2="50.3057" y1="94.6163" y2="17.7941">
            <stop offset="0" style="stop-color:#FFD29C"/>
            <stop offset="0.0237" style="stop-color:#FFD39E"/>
            <stop offset="0.3158" style="stop-color:#FCD8AF"/>
            <stop offset="0.6295" style="stop-color:#FADCBA"/>
            <stop offset="1" style="stop-color:#F9DDBD"/>
          </linearGradient>
          <path d="M50.31,95.18c-2.3,0-4.92-0.5-7.56-1.43c-11.33-4.01-24.57-16.34-24.57-37.88 c0-28.72,17.31-38.91,32.13-38.91s32.13,10.19,32.13,38.91c0,21.58-13.26,33.9-24.61,37.9C55.19,94.69,52.59,95.18,50.31,95.18z " style="fill:url(#SVGID_8_);"/>
          <path d="M50.31,17.95L50.31,17.95c8.41,0,16.06,3.25,21.55,9.15c6.27,6.73,9.58,16.68,9.58,28.77 c0,21.06-12.9,33.07-23.94,36.96c-2.53,0.89-5.01,1.36-7.19,1.36c-2.19,0-4.69-0.48-7.23-1.38 c-11.03-3.9-23.9-15.92-23.9-36.94c0-12.09,3.31-22.03,9.58-28.77C34.24,21.2,41.9,17.95,50.31,17.95 M50.31,15.95L50.31,15.95 L50.31,15.95c-17.2,0-33.13,12.79-33.13,39.91c0,21.79,13.49,34.67,25.23,38.83c2.8,0.99,5.5,1.49,7.9,1.49 c2.38,0,5.07-0.49,7.85-1.47c11.76-4.14,25.28-17.03,25.28-38.84C83.44,28.74,67.51,15.95,50.31,15.95L50.31,15.95z" style="fill:#EDBD82;"/>
        </g>
        <g>
          <defs>
            <path id="SVGID_9_" d="M16.41,88.75l-1.5-51.44c0-16.95,15.78-29.85,32.73-29.85h4.93c16.95,0,32.54,12.9,32.54,29.85 l-1.5,51.18L16.41,88.75z"/>
          </defs>
          <clipPath id="SVGID_10_">
            <use style="overflow:visible;" xlink:href="#SVGID_9_"/>
          </clipPath>
          <g style="clip-path:url(#SVGID_10_);">
            <radialGradient id="SVGID_11_" cx="-24.9246" cy="-122.7519" gradientTransform="matrix(0.796 0 0 0.796 69.8363 97.6087)" gradientUnits="userSpaceOnUse" r="45.9459">
              <stop offset="0" style="stop-color:#454140"/>
              <stop offset="1" style="stop-color:#312D2D"/>
            </radialGradient>
            <path d="M87.89,42.56c0,0,1.02-35.57-37.81-35.57S12.11,42.56,12.11,42.56 s-0.36,45.87,3.2,51.39c1.32,2.05,0.29-6.43,1.44-11.79c0.86-4.02,4.12-5.12,4.12-5.12s-0.4-3.91-0.63-16.41 c-0.06-2.92-0.94-13.73,5.16-15.09c22.36-5.02,35.01-16.89,35.01-16.89c3.29,7.19,13.58,14.19,17.27,16.86 c3.03,2.19,2.61,11.2,2.55,15.03l-1.48,18.63c0,0,3.79-0.7,4.75,3.38c1.18,5-0.3,14.73,1.34,11.41 C87.8,87.93,87.89,42.56,87.89,42.56z" style="fill:url(#SVGID_11_);"/>
          </g>
        </g>
        <g>
          <path d="M54.37,67.96c-0.1-0.04-0.21-0.07-0.32-0.08h-6.99c-0.11,0.01-0.21,0.04-0.32,0.08 c-0.63,0.26-0.98,0.91-0.68,1.61c0.3,0.7,1.69,2.66,4.49,2.66c2.8,0,4.19-1.96,4.49-2.66C55.35,68.88,55,68.22,54.37,67.96z" style="fill:#DBA689;"/>
          <g>
            <ellipse cx="35.31" cy="58.78" rx="4.87" ry="5.04" style="fill:#312D2D;"/>
            <ellipse cx="65.8" cy="60.11" rx="6" ry="6.21" style="fill:#312D2D;"/>
            <radialGradient id="SVGID_12_" cx="34.3082" cy="49.2417" gradientUnits="userSpaceOnUse" r="5.5998">
              <stop offset="0.0905" style="stop-color:#454140"/>
              <stop offset="1" style="stop-color:#454140"/>
            </radialGradient>
            <path d="M41.54,49.72c-0.93-1.23-3.07-3.01-7.23-3.01S28,48.5,27.08,49.72 c-0.41,0.54-0.31,1.17-0.02,1.55c0.26,0.35,1.04,0.68,1.9,0.39c0.86-0.29,2.54-1.16,5.35-1.18c2.81,0.02,4.49,0.89,5.35,1.18 c0.86,0.29,1.64-0.03,1.9-0.39C41.85,50.89,41.95,50.27,41.54,49.72z" style="fill:url(#SVGID_12_);"/>
            <radialGradient id="SVGID_13_" cx="66.8032" cy="49.8324" gradientUnits="userSpaceOnUse" r="6.716">
              <stop offset="0.0905" style="stop-color:#454140"/>
              <stop offset="1" style="stop-color:#454140"/>
            </radialGradient>
            <path d="M75.48,50.41c-1.11-1.47-3.68-3.61-8.67-3.61s-7.56,2.14-8.67,3.61 c-0.49,0.65-0.37,1.4-0.03,1.86c0.32,0.42,1.25,0.81,2.28,0.46c1.03-0.35,3.05-1.39,6.42-1.42c3.37,0.02,5.39,1.07,6.42,1.42 c1.03,0.35,1.96-0.04,2.28-0.46C75.84,51.81,75.97,51.06,75.48,50.41z" style="fill:url(#SVGID_13_);"/>
          </g>
          <path d="M58.62,76.05c-3.15,1.87-13.46,1.87-16.61,0c-1.81-1.07-3.65,0.57-2.9,2.21 c0.74,1.61,6.37,5.36,11.23,5.36s10.42-3.75,11.16-5.36C62.25,76.62,60.43,74.97,58.62,76.05z" style="fill:#424242;"/>
        </g>
      </g>
      <g style="clip-path:url(#SVGID_3_);">
        <g>
          <linearGradient id="SVGID_14_" gradientUnits="userSpaceOnUse" x1="34.6714" x2="34.6714" y1="94.8688" y2="136.222">
            <stop offset="0.1252" style="stop-color:#757575"/>
            <stop offset="0.2997" style="stop-color:#707070"/>
            <stop offset="0.5018" style="stop-color:#626262"/>
            <stop offset="0.7177" style="stop-color:#4B4B4B"/>
            <stop offset="0.9419" style="stop-color:#2B2B2B"/>
            <stop offset="1" style="stop-color:#212121"/>
          </linearGradient>
          <path d="M36.89,136.73L21.25,90.06c3.5,1.95,10.46,5.16,18.26,5.16c0.79,0,1.58-0.03,2.35-0.1 c0,0,0,0,0.01,0c0.73,0,1.36,0.63,1.52,1.44l4.71,40.17H36.89z" style="fill:url(#SVGID_14_);"/>
          <path d="M22.99,92.08c3.93,1.91,9.93,4.14,16.52,4.14c0.82,0,1.64-0.04,2.44-0.11 c0.08,0,0.34,0.21,0.44,0.58l4.58,39.03h-9.35L22.99,92.08 M19.44,87.78l16.73,49.94h13.04l-4.85-41.37 c-0.25-1.24-1.24-2.25-2.41-2.25c-0.06,0-0.12,0-0.18,0.01c-0.76,0.07-1.51,0.1-2.26,0.1C28.75,94.22,19.44,87.78,19.44,87.78 L19.44,87.78z" style="fill:#575757;"/>
        </g>
        <g>
          <linearGradient id="SVGID_15_" gradientUnits="userSpaceOnUse" x1="65.2769" x2="65.2769" y1="94.8417" y2="136.2217">
            <stop offset="0.1252" style="stop-color:#757575"/>
            <stop offset="0.2997" style="stop-color:#707070"/>
            <stop offset="0.5018" style="stop-color:#626262"/>
            <stop offset="0.7177" style="stop-color:#4B4B4B"/>
            <stop offset="0.9419" style="stop-color:#2B2B2B"/>
            <stop offset="1" style="stop-color:#212121"/>
          </linearGradient>
          <path d="M51.8,136.73l4.83-40.25c0.15-0.74,0.76-1.37,1.38-1.37c0.04,0,0.07,0,0.11,0.01 c0.85,0.1,1.74,0.15,2.64,0.15c7.4,0,14.45-3.28,18-5.24l-15.64,46.7H51.8z" style="fill:url(#SVGID_15_);"/>
          <path d="M77.02,92.05l-14.63,43.68h-9.46l4.68-39.03c0.09-0.36,0.33-0.57,0.39-0.59 c0.89,0.1,1.82,0.15,2.76,0.15C67.04,96.26,73.06,93.97,77.02,92.05 M80.56,87.78L80.56,87.78L80.56,87.78z M80.56,87.78 c0,0-9.67,6.48-19.8,6.48c-0.84,0-1.69-0.04-2.53-0.14c-0.07-0.01-0.15-0.01-0.22-0.01c-1.15,0-2.13,1.03-2.37,2.25l-4.96,41.37 h13.16L80.56,87.78L80.56,87.78z" style="fill:#575757;"/>
        </g>
      </g>
      <g style="clip-path:url(#SVGID_3_);">
        <path d="M93.38,137.25c0,0,0-3.88,2-12.38c1.69-7.16,2.54-10.28,2.54-10.28c0.5-3.32,3.75-5.48,7.01-4.67 l9.93,2.48l4.25,24L93.38,137.25z" style="fill:#616161;"/>
        <path d="M114.85,112.41h-3.16c-0.01,1.01,0.37,1.99,0.23,3h0.41l3.19,18H98.73 c-1.26,0.35-2.52,0.68-3.78,1.03l-0.35,1.97h24.5L114.85,112.41z" style="fill:#404042;"/>
      </g>
      <ellipse cx="106.51" cy="114.41" rx="8.74" ry="8" style="clip-path:url(#SVGID_3_);fill:#212121;"/>
    </g>
    <g>
      <radialGradient id="SVGID_16_" cx="54.5901" cy="30.4202" gradientTransform="matrix(0.9534 0 0 0.7823 -2.0463 9.9427)" gradientUnits="userSpaceOnUse" r="59.3937">
        <stop offset="3.247793e-03" style="stop-color:#757575"/>
        <stop offset="0.3326" style="stop-color:#686868"/>
        <stop offset="0.9409" style="stop-color:#464646"/>
        <stop offset="1" style="stop-color:#424242"/>
      </radialGradient>
      <path d="M83.49,25.84c-4.5-1.07-10.9-2.03-17.03-2.58C61.38,22.8,55.78,23.76,50,23.76 c-5.78,0-11.38-0.96-16.46-0.51c-6.13,0.55-13.68,2.62-18.18,3.69C7.46,28.83,4,30.78,4,33.61c0,2.83,4.11,4.11,12.02,5.99 c4.5,1.07,7.95,3.59,15.94,4.54c5.06,0.61,13.57-1.2,19.34-1.2c5.78,0,13.42,1.78,18.5,1.33c6.13-0.55,9.69-2.89,14.19-3.96 C91.89,38.43,96,36.44,96,33.61C96,30.78,91.4,27.72,83.49,25.84z" style="fill:url(#SVGID_16_);"/>
      <radialGradient id="SVGID_17_" cx="47.4164" cy="7.4814" gradientTransform="matrix(4.469483e-11 0.9331 -1.4673 6.203132e-11 60.3071 -37.5127)" gradientUnits="userSpaceOnUse" r="32.1963">
        <stop offset="3.247793e-03" style="stop-color:#757575"/>
        <stop offset="0.3326" style="stop-color:#686868"/>
        <stop offset="0.9409" style="stop-color:#464646"/>
        <stop offset="1" style="stop-color:#424242"/>
      </radialGradient>
      <path d="M64.56,4.35c-2.83-0.71-7.39-0.45-10.25,0.03C47.17,5.59,48.2,4.9,41.54,4.25 c-2.67-0.26-6.29-0.48-8.86,0.3c-9.95,3-11.13,11.44-17.43,24.47c0.14,11.87,70.02,11.76,69.88,0 C79.05,16.59,75.01,6.96,64.56,4.35z" style="fill:url(#SVGID_17_);"/>
      <path id="XMLID_8_" d="M38.81,9.99c3.2,2.22,7.12,3.27,10.95,2.84 c3.53-0.39,6.9-1.7,10.14-3.24c0.55-0.26,1.11,0.31,0.89,0.9c-0.49,1.31-5.46,6.16-11.44,6.16c-5.53,0-9.23-2.29-11.15-5.63 C37.94,10.58,38.14,9.53,38.81,9.99z" style="opacity:0.2;fill:#EEEEEE;"/>
      <path id="XMLID_5_" d="M82.05,22.58c-11.57,6.57-52.32,6.59-63.78-0.06c-0.97,2.13-1.96,4.32-3.02,6.5 c0.14,11.87,70.02,11.75,69.88,0h0C84.1,26.9,83.08,24.73,82.05,22.58z" style="fill:#404042;"/>
    </g>
    <path d=" M83.62,25.87c-0.52-1.1-1.05-2.2-1.57-3.29c-0.02,0.01-0.04,0.02-0.05,0.03c-4.61-9.25-8.87-16.11-17.44-18.26 c-2.83-0.71-7.39-0.45-10.25,0.03C47.17,5.59,48.2,4.9,41.54,4.25c-2.67-0.26-6.29-0.48-8.86,0.3C23.33,7.37,21.72,15,16.34,26.72 c-0.34,0.08-0.67,0.16-0.98,0.24C7.46,28.83,4,30.78,4,33.61c0,2.83,4.11,4.11,12.02,5.99c4.5,1.07,7.95,3.59,15.94,4.54 c5.06,0.61,13.57-1.2,19.34-1.2c5.78,0,13.42,1.78,18.5,1.33c6.13-0.55,9.69-2.89,14.19-3.96C91.89,38.43,96,36.44,96,33.61 C96,30.8,91.45,27.76,83.62,25.87z" style="fill:none;stroke:#575757;stroke-width:3;stroke-linecap:round;stroke-linejoin:round;stroke-miterlimit:10;"/>
    <g>
      <g style="opacity:0.6;">
        <radialGradient id="SVGID_18_" cx="56.5256" cy="21.349" gradientTransform="matrix(0.9938 0.1109 -0.1109 0.9938 7.4842 13.9879)" gradientUnits="userSpaceOnUse" r="41.9076">
          <stop offset="0" style="stop-color:#FAFAFA"/>
          <stop offset="1" style="stop-color:#EEEEEE"/>
        </radialGradient>
        <path d="M90.28,43.38c7.33,9.22,5.83,22.68-3.35,30.06c-9.18,7.38-22.57,5.89-29.9-3.34 s-5.83-22.68,3.35-30.06S82.95,34.16,90.28,43.38z" style="fill:url(#SVGID_18_);"/>
      </g>
      <path d="M99.86,85.01l-3.51-4.43l0.27-0.22 c0.66-0.53,0.76-1.49,0.24-2.14l-0.45-0.56c-0.52-0.66-1.48-0.76-2.13-0.24l-0.27,0.22l-3.11-3.92 c8.51-8.72,9.41-22.65,1.64-32.42c-8.4-10.56-23.73-12.27-34.24-3.82c-10.52,8.45-12.24,23.87-3.84,34.43 c7.7,9.68,21.22,11.92,31.52,5.72l3.14,3.96l-0.63,0.5c-0.66,0.53-0.76,1.49-0.24,2.14l0.45,0.56c0.52,0.66,1.48,0.76,2.13,0.24 l0.62-0.5l3.51,4.43L99.86,85.01z M58.04,68.93c-6.8-8.55-5.4-21.03,3.11-27.87c8.51-6.84,20.93-5.46,27.72,3.09 c6.8,8.55,5.4,21.03-3.11,27.87C77.25,78.86,64.84,77.48,58.04,68.93z" style="fill:none;stroke:#919191;stroke-width:2.9034;stroke-miterlimit:10;"/>
      <polygon points="99.86,85.01 94.96,88.94 84.14,75.3 89.04,71.36 " style="fill:#C7C7C7;"/>
      <g>
        <radialGradient id="SVGID_19_" cx="72.93" cy="32.1228" gradientTransform="matrix(0.9997 -0.0234 0.0234 0.9997 -1.6011 1.9142)" gradientUnits="userSpaceOnUse" r="48.9642">
          <stop offset="0" style="stop-color:#E0E0E0"/>
          <stop offset="0.2274" style="stop-color:#DBDBDB"/>
          <stop offset="0.4939" style="stop-color:#CDCDCD"/>
          <stop offset="0.7789" style="stop-color:#B5B5B5"/>
          <stop offset="1" style="stop-color:#9E9E9E"/>
        </radialGradient>
        <path d="M92.54,41.29c-8.4-10.56-23.73-12.27-34.24-3.82c-10.52,8.45-12.24,23.87-3.84,34.43 c8.4,10.56,23.73,12.27,34.24,3.82S100.94,51.85,92.54,41.29z M85.76,72.02c-8.51,6.84-20.93,5.46-27.72-3.09 c-6.8-8.55-5.4-21.03,3.11-27.87c8.51-6.84,20.93-5.46,27.72,3.09C95.67,52.7,94.27,65.18,85.76,72.02z" style="fill:url(#SVGID_19_);"/>
      </g>
      <g>
        <radialGradient id="SVGID_20_" cx="94.741" cy="55.0026" gradientTransform="matrix(0.9938 0.1109 -0.1109 0.9938 7.4842 13.9879)" gradientUnits="userSpaceOnUse" r="24.7783">
          <stop offset="0" style="stop-color:#FFA726"/>
          <stop offset="0.0404" style="stop-color:#FFA623"/>
          <stop offset="0.5168" style="stop-color:#FF9800"/>
          <stop offset="1" style="stop-color:#FB8C00"/>
        </radialGradient>
        <path d="M108.61,105.49c-0.36,0-0.69-0.16-0.91-0.44l-0.41-0.51c-0.11-0.14-0.27-0.25-0.44-0.31 c-3.17-1.11-6.94-4.14-10.08-8.09c-2.79-3.52-4.78-7.37-5.45-10.57c-0.21-0.99-0.67-1.96-1.35-2.81l-0.23-0.29l4.73-3.8 l0.22,0.28c0.67,0.85,1.52,1.52,2.43,1.94c2.96,1.36,6.25,4.16,9.05,7.67c3.15,3.96,5.25,8.32,5.63,11.67 c0.02,0.18,0.09,0.35,0.2,0.49l0.41,0.51c0.4,0.51,0.32,1.25-0.18,1.66l-0.92,0.74c-0.06,0.04-0.11,0.09-0.15,0.15 c-0.1,0.13-0.21,0.24-0.33,0.34c-0.12,0.1-0.25,0.18-0.4,0.25c-0.06,0.03-0.12,0.07-0.18,0.11l-0.92,0.74 C109.12,105.4,108.87,105.49,108.61,105.49L108.61,105.49z" style="fill:url(#SVGID_20_);"/>
        <path d="M94.34,80.02c0.69,0.74,1.5,1.34,2.38,1.75c2.82,1.3,5.99,4,8.7,7.4c3.04,3.82,5.07,8,5.43,11.18 c0.04,0.36,0.18,0.7,0.41,0.99l0.41,0.51c0.07,0.09,0.06,0.23-0.03,0.3l-0.92,0.74c-0.11,0.09-0.21,0.19-0.3,0.3 c-0.06,0.08-0.12,0.14-0.19,0.19c-0.06,0.05-0.14,0.1-0.22,0.14c-0.13,0.06-0.24,0.14-0.35,0.23l-0.92,0.74 c-0.04,0.03-0.08,0.04-0.12,0.04c-0.04,0-0.1-0.01-0.15-0.07l-0.41-0.51c-0.23-0.29-0.53-0.5-0.87-0.62 c-3-1.05-6.61-3.96-9.64-7.78c-2.7-3.4-4.62-7.11-5.26-10.17c-0.2-0.95-0.6-1.88-1.18-2.73L94.34,80.02 M94.63,77.31l-6.24,5.01 l0.83,1.04c0.56,0.7,0.97,1.52,1.15,2.4c0.67,3.22,2.64,7.2,5.64,10.97c3.39,4.26,7.3,7.28,10.52,8.4l0.41,0.51 c0.42,0.53,1.04,0.8,1.67,0.8c0.47,0,0.94-0.15,1.33-0.47l0.92-0.74c0.21-0.1,0.4-0.22,0.58-0.37c0.18-0.14,0.34-0.31,0.48-0.49 l0.92-0.74c0.92-0.74,1.07-2.09,0.34-3.01l-0.41-0.51c-0.38-3.4-2.45-7.91-5.83-12.17c-3-3.78-6.42-6.58-9.4-7.95 c-0.81-0.38-1.52-0.96-2.08-1.66L94.63,77.31L94.63,77.31z" style="fill:#EB6A1F;"/>
      </g>
      <path d="M96.62,80.36l-5.8,4.66c-0.66,0.53-1.61,0.42-2.13-0.24l-0.45-0.56c-0.52-0.66-0.42-1.62,0.24-2.14 l5.8-4.66c0.66-0.53,1.61-0.42,2.13,0.24l0.45,0.56C97.38,78.87,97.28,79.83,96.62,80.36z" style="fill:#ABABAB;"/>
    </g>
    <g>
      <g>
        <path d="M120.2,109.68l-5.85,5.75c-5.45,4.65-11.81,5.28-17.32-1.32c-11.98-14.33,6.47-24.83,12.09-21.99 C117.53,96.36,122.63,107.6,120.2,109.68z" style="fill:#FFD29C;"/>
        <path d="M105.98,119.98c-0.29,0-0.57-0.01-0.85-0.04c-3.22-0.27-6.2-2.02-8.86-5.21 c-5.04-6.03-5.54-12.51-1.37-17.76c3.83-4.83,10.96-7.62,14.67-5.75c7.05,3.56,11.68,11.63,12.18,15.85 c0.23,1.89-0.34,2.85-0.87,3.32l-5.83,5.73C112.07,118.68,108.97,119.98,105.98,119.98z M106.84,92.64 c-3.01,0-7.63,2.1-10.39,5.58c-2.08,2.62-4.67,8.08,1.34,15.25c2.31,2.76,4.83,4.28,7.5,4.5c2.73,0.23,5.62-0.91,8.42-3.3 l5.8-5.7c0.02-0.02,0.03-0.03,0.05-0.05c0.17-0.15,0.33-0.66,0.22-1.6c-0.46-3.87-4.92-11.19-11.11-14.32 C108.18,92.76,107.56,92.64,106.84,92.64z" style="fill:#E3B57C;"/>
      </g>
      <g>
        <path d="M112.22,112.4L112.22,112.4c1.06,1.41,3.06,1.68,4.46,0.62l3.58-2.72 c1.4-1.07,1.68-3.07,0.62-4.48l0,0c-1.06-1.41-3.06-1.68-4.46-0.62l-3.58,2.72C111.43,108.99,111.16,111,112.22,112.4z" style="fill:#FFD29C;"/>
        <path d="M114.77,114.52c-0.18,0-0.37-0.01-0.56-0.04c-1.07-0.15-2.02-0.7-2.67-1.57c0,0,0,0,0,0 c-1.34-1.78-0.99-4.32,0.78-5.67l3.58-2.72c0.86-0.65,1.93-0.93,2.99-0.79c1.07,0.15,2.02,0.71,2.67,1.57 c1.34,1.78,0.99,4.32-0.78,5.67l-3.58,2.72C116.49,114.24,115.64,114.52,114.77,114.52z M112.9,111.89 c0.38,0.5,0.92,0.82,1.54,0.9c0.62,0.09,1.23-0.08,1.72-0.45l3.58-2.72c1.03-0.78,1.23-2.25,0.45-3.28 c-0.38-0.5-0.92-0.82-1.54-0.9c-0.62-0.08-1.23,0.08-1.73,0.45l-3.58,2.72C112.33,109.39,112.12,110.86,112.9,111.89 L112.9,111.89z" style="fill:#E3B57C;"/>
      </g>
      <g>
        <path d="M109.79,108.35L109.79,108.35c1.08,1.41,3.09,1.68,4.5,0.6l4.67-3.59c1.41-1.08,1.67-3.1,0.6-4.51 l0,0c-1.08-1.41-3.09-1.68-4.5-0.6l-4.67,3.59C108.98,104.91,108.71,106.93,109.79,108.35z" style="fill:#FFD29C;"/>
        <path d="M112.34,110.6c-0.19,0-0.37-0.01-0.56-0.04c-1.11-0.15-2.1-0.72-2.78-1.61h0 c-1.41-1.84-1.06-4.49,0.78-5.9l4.67-3.59c0.89-0.68,1.99-0.98,3.11-0.83c1.11,0.15,2.1,0.72,2.78,1.61 c1.41,1.84,1.06,4.49-0.78,5.9l-4.67,3.59C114.15,110.3,113.26,110.6,112.34,110.6z M117.01,100.57c-0.48,0-0.95,0.16-1.34,0.46 l-4.67,3.59c-0.97,0.75-1.16,2.15-0.41,3.12c0,0,0,0,0,0c0.36,0.47,0.88,0.77,1.47,0.85c0.58,0.08,1.17-0.08,1.64-0.44l4.67-3.59 c0.97-0.75,1.16-2.15,0.41-3.12c-0.36-0.47-0.88-0.77-1.47-0.85C117.2,100.58,117.1,100.57,117.01,100.57z" style="fill:#E3B57C;"/>
      </g>
      <g>
        <path d="M106.81,105.11L106.81,105.11c1.12,1.32,3.1,1.48,4.42,0.36l5.44-4.65 c1.32-1.13,1.48-3.11,0.36-4.43l0,0c-1.12-1.32-3.1-1.48-4.42-0.36l-5.44,4.65C105.85,101.8,105.69,103.79,106.81,105.11z" style="fill:#FFD29C;"/>
        <path d="M109.2,107.21c-0.11,0-0.23,0-0.34-0.01c-1.1-0.09-2.1-0.6-2.81-1.44l0,0 c-1.47-1.74-1.26-4.35,0.47-5.83l5.44-4.65c0.84-0.72,1.92-1.07,3.01-0.97c1.1,0.09,2.1,0.6,2.81,1.44 c1.47,1.74,1.26,4.35-0.47,5.83l-5.44,4.65C111.12,106.87,110.18,107.21,109.2,107.21z M114.64,96.27 c-0.51,0-0.99,0.18-1.38,0.51l-5.44,4.65c-0.9,0.77-1.01,2.13-0.25,3.04l0,0c0.37,0.44,0.89,0.7,1.46,0.75 c0.56,0.05,1.12-0.13,1.56-0.51l5.44-4.65c0.9-0.77,1.01-2.13,0.25-3.04c-0.37-0.44-0.89-0.7-1.46-0.75 C114.76,96.28,114.7,96.27,114.64,96.27z" style="fill:#E3B57C;"/>
      </g>
      <g>
        <path d="M102.71,101.27L102.71,101.27c1.19,1.26,3.18,1.31,4.43,0.12l5.18-4.94 c1.26-1.2,1.31-3.19,0.12-4.45l0,0c-1.19-1.26-3.18-1.31-4.43-0.12l-5.18,4.94C101.57,98.02,101.52,100.01,102.71,101.27z" style="fill:#FFD29C;"/>
        <path d="M104.99,103.25c-0.04,0-0.07,0-0.11,0c-1.1-0.03-2.13-0.49-2.89-1.29 c-1.56-1.65-1.5-4.28,0.15-5.85l5.18-4.94c0.8-0.76,1.86-1.16,2.95-1.14c1.1,0.03,2.13,0.49,2.89,1.29 c1.56,1.65,1.5,4.28-0.15,5.85l-5.18,4.94C107.05,102.84,106.05,103.25,104.99,103.25z M110.17,92.02 c-0.55,0-1.07,0.21-1.47,0.59l-5.18,4.94c-0.86,0.82-0.9,2.18-0.08,3.05c0,0,0,0,0,0c0.39,0.42,0.92,0.65,1.49,0.67 c0.56-0.01,1.12-0.19,1.53-0.59l5.18-4.94c0.86-0.82,0.9-2.18,0.08-3.05c-0.39-0.42-0.92-0.65-1.5-0.67 C110.21,92.02,110.19,92.02,110.17,92.02z" style="fill:#E3B57C;"/>
      </g>
      <g>
        <path d="M105.21,88.49c-0.69,0.43-3.22,1.81-4.77,2.83c-0.59,0.39-2.09,1.48-2.58,1.97 c-1.58,1.59-4.61,8.54-4.58,10.87c0.02,1.14,0.39,2.18,0.99,3.04c-0.03-0.58,3.91,9.85,9.51,1.34c2.51-3.4-1.89-6.1-1.95-8.07 c-0.04-1.51-0.01-3.84,4.74-6.3c1.33-0.69,3-2.46,2.84-3.86C109.15,87.89,107.21,87.23,105.21,88.49z" style="fill:#FFD29C;"/>
        <path d="M108.73,86.87c-1.1-0.52-2.5-0.33-3.83,0.52c-0.23,0.15-0.67,0.4-1.21,0.72 c-1.08,0.63-2.56,1.49-3.62,2.2c-0.54,0.37-2.16,1.51-2.77,2.14c-4.37,4.57-5.45,9.29-5.21,12.32c0.16,1.98,2.49,3.39,2.36,2.79 c-0.71-3.18-0.61-5.26,0.86-8.69c1.05-2.44,2.02-3.68,3.38-5.05c0.42-0.42,1.83-1.46,2.44-1.87c1-0.67,2.45-1.51,3.51-2.13 c0.57-0.33,1.04-0.61,1.28-0.76c0.74-0.47,1.44-0.61,1.92-0.39c0.42,0.2,1.01,0.79,1.08,1.52c0.07,0.76-1.31,2.45-2.53,3.09 c-1.72,0.91-3.66,1.8-4.69,3.52c-0.78,1.3-1.3,3.22-0.71,4.59c0.58,1.36,3.44,3.44,3.46,6.46c0.01,1.25-0.83,3.66-0.83,3.66 s2.15-1.45,2.55-3.04c0.56-2.24-0.61-4.72-1.83-6.44c-0.54-0.77-1.74-1.88-1.74-2.27c-0.02-1.26-0.24-2.9,4.09-5.19 c1.5-0.79,4.07-2.73,3.88-4.73C110.43,88.43,109.78,87.37,108.73,86.87z" style="fill:#E3B57C;"/>
      </g>
    </g>
  </g>
  <g id="grid" style="display:none;">
    <g style="display:inline;">
      <g style="opacity:0.6;">
        <circle cx="-96" cy="64" r="28" style="opacity:0.61;fill:none;stroke:#000000;stroke-width:0.2625;stroke-miterlimit:10;"/>
        <line style="opacity:0.61;fill:none;stroke:#000000;stroke-width:0.25;stroke-miterlimit:10;" x1="-76" x2="-76" y1="0" y2="128"/>
        <line style="opacity:0.61;fill:none;stroke:#000000;stroke-width:0.25;stroke-miterlimit:10;" x1="-116" x2="-116" y1="0" y2="128"/>
        <line style="opacity:0.61;fill:none;stroke:#000000;stroke-width:0.25;stroke-miterlimit:10;" x1="-96" x2="-96" y1="0" y2="128"/>
        <line style="opacity:0.61;fill:none;stroke:#000000;stroke-width:0.25;stroke-miterlimit:10;" x1="-32" x2="-160" y1="64" y2="64"/>
        <line style="opacity:0.61;fill:none;stroke:#000000;stroke-width:0.25;stroke-miterlimit:10;" x1="-32" x2="-160" y1="44" y2="44"/>
        <line style="opacity:0.61;fill:none;stroke:#000000;stroke-width:0.25;stroke-miterlimit:10;" x1="-32" x2="-160" y1="83.75" y2="83.75"/>
        <line style="opacity:0.61;fill:none;stroke:#000000;stroke-width:0.25;stroke-miterlimit:10;" x1="-32" x2="-160" y1="128" y2="0"/>
        <line style="opacity:0.61;fill:none;stroke:#000000;stroke-width:0.25;stroke-miterlimit:10;" x1="-160" x2="-32" y1="128" y2="0"/>
        <g style="opacity:0.61;">
          <path d="M-96,4.26c32.94,0,59.74,26.8,59.74,59.74s-26.8,59.74-59.74,59.74s-59.74-26.8-59.74-59.74S-128.94,4.26-96,4.26 M-96,4c-33.14,0-60,26.86-60,60s26.86,60,60,60s60-26.86,60-60S-62.86,4-96,4L-96,4z"/>
        </g>
        <path d="M-52.03,115.97h-87.94 c-4.42,0-8.03-3.61-8.03-8.03V20.03c0-4.42,3.61-8.03,8.03-8.03h87.94c4.42,0,8.03,3.61,8.03,8.03v87.91 C-44,112.36-47.61,115.97-52.03,115.97z" style="opacity:0.61;fill:none;stroke:#000000;stroke-width:0.2578;stroke-miterlimit:10;"/>
        <path d="M-60,124h-72 c-4.4,0-8-3.6-8-8V12c0-4.4,3.6-8,8-8h72c4.4,0,8,3.6,8,8v104C-52,120.4-55.6,124-60,124z" style="opacity:0.61;fill:none;stroke:#000000;stroke-width:0.2628;stroke-miterlimit:10;"/>
        <path d="M-46.23,108h-99.54 c-5.63,0-10.23-4.6-10.23-10.23V30.28c0-5.63,4.6-10.23,10.23-10.23h99.54c5.63,0,10.23,4.6,10.23,10.23v67.48 C-36,103.4-40.6,108-46.23,108z" style="opacity:0.61;fill:none;stroke:#000000;stroke-width:0.2627;stroke-miterlimit:10;"/>
      </g>
      <g>
        <g style="opacity:0.2;">
          <defs>
            <rect id="SVGID_2_" height="128" style="opacity:0.2;" width="128" x="-160" y="0"/>
          </defs>
          <clipPath id="SVGID_21_">
            <use style="overflow:visible;" xlink:href="#SVGID_2_"/>
          </clipPath>
          <g style="clip-path:url(#SVGID_21_);">
            <g>
              <line style="fill:none;stroke:#000000;stroke-width:0.25;stroke-miterlimit:10;" x1="-188" x2="-188" y1="160" y2="-32"/>
              <line style="fill:none;stroke:#000000;stroke-width:0.25;stroke-miterlimit:10;" x1="-184" x2="-184" y1="160" y2="-32"/>
              <line style="fill:none;stroke:#000000;stroke-width:0.25;stroke-miterlimit:10;" x1="-180" x2="-180" y1="160" y2="-32"/>
              <line style="fill:none;stroke:#000000;stroke-width:0.25;stroke-miterlimit:10;" x1="-176" x2="-176" y1="160" y2="-32"/>
              <line style="fill:none;stroke:#000000;stroke-width:0.25;stroke-miterlimit:10;" x1="-172" x2="-172" y1="160" y2="-32"/>
              <line style="fill:none;stroke:#000000;stroke-width:0.25;stroke-miterlimit:10;" x1="-168" x2="-168" y1="160" y2="-32"/>
              <line style="fill:none;stroke:#000000;stroke-width:0.25;stroke-miterlimit:10;" x1="-164" x2="-164" y1="160" y2="-32"/>
              <line style="fill:none;stroke:#000000;stroke-width:0.25;stroke-miterlimit:10;" x1="-160" x2="-160" y1="160" y2="-32"/>
              <line style="fill:none;stroke:#000000;stroke-width:0.25;stroke-miterlimit:10;" x1="-156" x2="-156" y1="160" y2="-32"/>
              <line style="fill:none;stroke:#000000;stroke-width:0.25;stroke-miterlimit:10;" x1="-152" x2="-152" y1="160" y2="-32"/>
              <line style="fill:none;stroke:#000000;stroke-width:0.25;stroke-miterlimit:10;" x1="-148" x2="-148" y1="160" y2="-32"/>
              <line style="fill:none;stroke:#000000;stroke-width:0.25;stroke-miterlimit:10;" x1="-144" x2="-144" y1="160" y2="-32"/>
              <line style="fill:none;stroke:#000000;stroke-width:0.25;stroke-miterlimit:10;" x1="-140" x2="-140" y1="160" y2="-32"/>
              <line style="fill:none;stroke:#000000;stroke-width:0.25;stroke-miterlimit:10;" x1="-136" x2="-136" y1="160" y2="-32"/>
              <line style="fill:none;stroke:#000000;stroke-width:0.25;stroke-miterlimit:10;" x1="-132" x2="-132" y1="160" y2="-32"/>
              <line style="fill:none;stroke:#000000;stroke-width:0.25;stroke-miterlimit:10;" x1="-128" x2="-128" y1="160" y2="-32"/>
              <line style="fill:none;stroke:#000000;stroke-width:0.25;stroke-miterlimit:10;" x1="-124" x2="-124" y1="160" y2="-32"/>
              <line style="fill:none;stroke:#000000;stroke-width:0.25;stroke-miterlimit:10;" x1="-120" x2="-120" y1="160" y2="-32"/>
              <line style="fill:none;stroke:#000000;stroke-width:0.25;stroke-miterlimit:10;" x1="-116" x2="-116" y1="160" y2="-32"/>
              <line style="fill:none;stroke:#000000;stroke-width:0.25;stroke-miterlimit:10;" x1="-112" x2="-112" y1="160" y2="-32"/>
              <line style="fill:none;stroke:#000000;stroke-width:0.25;stroke-miterlimit:10;" x1="-108" x2="-108" y1="160" y2="-32"/>
              <line style="fill:none;stroke:#000000;stroke-width:0.25;stroke-miterlimit:10;" x1="-104" x2="-104" y1="160" y2="-32"/>
              <line style="fill:none;stroke:#000000;stroke-width:0.25;stroke-miterlimit:10;" x1="-100" x2="-100" y1="160" y2="-32"/>
              <line style="fill:none;stroke:#000000;stroke-width:0.25;stroke-miterlimit:10;" x1="-96" x2="-96" y1="160" y2="-32"/>
              <line style="fill:none;stroke:#000000;stroke-width:0.25;stroke-miterlimit:10;" x1="-92" x2="-92" y1="160" y2="-32"/>
              <line style="fill:none;stroke:#000000;stroke-width:0.25;stroke-miterlimit:10;" x1="-88" x2="-88" y1="160" y2="-32"/>
              <line style="fill:none;stroke:#000000;stroke-width:0.25;stroke-miterlimit:10;" x1="-84" x2="-84" y1="160" y2="-32"/>
              <line style="fill:none;stroke:#000000;stroke-width:0.25;stroke-miterlimit:10;" x1="-80" x2="-80" y1="160" y2="-32"/>
              <line style="fill:none;stroke:#000000;stroke-width:0.25;stroke-miterlimit:10;" x1="-76" x2="-76" y1="160" y2="-32"/>
              <line style="fill:none;stroke:#000000;stroke-width:0.25;stroke-miterlimit:10;" x1="-72" x2="-72" y1="160" y2="-32"/>
              <line style="fill:none;stroke:#000000;stroke-width:0.25;stroke-miterlimit:10;" x1="-68" x2="-68" y1="160" y2="-32"/>
              <line style="fill:none;stroke:#000000;stroke-width:0.25;stroke-miterlimit:10;" x1="-64" x2="-64" y1="160" y2="-32"/>
              <line style="fill:none;stroke:#000000;stroke-width:0.25;stroke-miterlimit:10;" x1="-60" x2="-60" y1="160" y2="-32"/>
              <line style="fill:none;stroke:#000000;stroke-width:0.25;stroke-miterlimit:10;" x1="-56" x2="-56" y1="160" y2="-32"/>
              <line style="fill:none;stroke:#000000;stroke-width:0.25;stroke-miterlimit:10;" x1="-52" x2="-52" y1="160" y2="-32"/>
              <line style="fill:none;stroke:#000000;stroke-width:0.25;stroke-miterlimit:10;" x1="-48" x2="-48" y1="160" y2="-32"/>
              <line style="fill:none;stroke:#000000;stroke-width:0.25;stroke-miterlimit:10;" x1="-44" x2="-44" y1="160" y2="-32"/>
              <line style="fill:none;stroke:#000000;stroke-width:0.25;stroke-miterlimit:10;" x1="-40" x2="-40" y1="160" y2="-32"/>
              <line style="fill:none;stroke:#000000;stroke-width:0.25;stroke-miterlimit:10;" x1="-36" x2="-36" y1="160" y2="-32"/>
              <line style="fill:none;stroke:#000000;stroke-width:0.25;stroke-miterlimit:10;" x1="-32" x2="-32" y1="160" y2="-32"/>
              <line style="fill:none;stroke:#000000;stroke-width:0.25;stroke-miterlimit:10;" x1="-28" x2="-28" y1="160" y2="-32"/>
              <line style="fill:none;stroke:#000000;stroke-width:0.25;stroke-miterlimit:10;" x1="-24" x2="-24" y1="160" y2="-32"/>
              <line style="fill:none;stroke:#000000;stroke-width:0.25;stroke-miterlimit:10;" x1="-23" x2="-23" y1="166.05" y2="-25.95"/>
              <line style="fill:none;stroke:#000000;stroke-width:0.25;stroke-miterlimit:10;" x1="-16" x2="-16" y1="160" y2="-32"/>
              <line style="fill:none;stroke:#000000;stroke-width:0.25;stroke-miterlimit:10;" x1="-12" x2="-12" y1="160" y2="-32"/>
              <line style="fill:none;stroke:#000000;stroke-width:0.25;stroke-miterlimit:10;" x1="-8" x2="-8" y1="160" y2="-32"/>
              <line style="fill:none;stroke:#000000;stroke-width:0.25;stroke-miterlimit:10;" x1="-4" x2="-4" y1="160" y2="-32"/>
            </g>
            <g>
              <line style="fill:none;stroke:#000000;stroke-width:0.25;stroke-miterlimit:10;" x1="-192" x2="0" y1="-28" y2="-28"/>
              <line style="fill:none;stroke:#000000;stroke-width:0.25;stroke-miterlimit:10;" x1="-192" x2="0" y1="-24" y2="-24"/>
              <line style="fill:none;stroke:#000000;stroke-width:0.25;stroke-miterlimit:10;" x1="-192" x2="0" y1="-20" y2="-20"/>
              <line style="fill:none;stroke:#000000;stroke-width:0.25;stroke-miterlimit:10;" x1="-192" x2="0" y1="-16" y2="-16"/>
              <line style="fill:none;stroke:#000000;stroke-width:0.25;stroke-miterlimit:10;" x1="-192" x2="0" y1="-12" y2="-12"/>
              <line style="fill:none;stroke:#000000;stroke-width:0.25;stroke-miterlimit:10;" x1="-192" x2="0" y1="-8" y2="-8"/>
              <line style="fill:none;stroke:#000000;stroke-width:0.25;stroke-miterlimit:10;" x1="-192" x2="0" y1="-4" y2="-4"/>
              <line style="fill:none;stroke:#000000;stroke-width:0.25;stroke-miterlimit:10;" x1="-192" x2="0" y1="0" y2="0"/>
              <line style="fill:none;stroke:#000000;stroke-width:0.25;stroke-miterlimit:10;" x1="-192" x2="0" y1="4" y2="4"/>
              <line style="fill:none;stroke:#000000;stroke-width:0.25;stroke-miterlimit:10;" x1="-192" x2="0" y1="8" y2="8"/>
              <line style="fill:none;stroke:#000000;stroke-width:0.25;stroke-miterlimit:10;" x1="-192" x2="0" y1="12" y2="12"/>
              <line style="fill:none;stroke:#000000;stroke-width:0.25;stroke-miterlimit:10;" x1="-192" x2="0" y1="16" y2="16"/>
              <line style="fill:none;stroke:#000000;stroke-width:0.25;stroke-miterlimit:10;" x1="-192" x2="0" y1="20" y2="20"/>
              <line style="fill:none;stroke:#000000;stroke-width:0.25;stroke-miterlimit:10;" x1="-192" x2="0" y1="24" y2="24"/>
              <line style="fill:none;stroke:#000000;stroke-width:0.25;stroke-miterlimit:10;" x1="-192" x2="0" y1="28" y2="28"/>
              <line style="fill:none;stroke:#000000;stroke-width:0.25;stroke-miterlimit:10;" x1="-192" x2="0" y1="32" y2="32"/>
              <line style="fill:none;stroke:#000000;stroke-width:0.25;stroke-miterlimit:10;" x1="-192" x2="0" y1="36" y2="36"/>
              <line style="fill:none;stroke:#000000;stroke-width:0.25;stroke-miterlimit:10;" x1="-192" x2="0" y1="40" y2="40"/>
              <line style="fill:none;stroke:#000000;stroke-width:0.25;stroke-miterlimit:10;" x1="-192" x2="0" y1="44" y2="44"/>
              <line style="fill:none;stroke:#000000;stroke-width:0.25;stroke-miterlimit:10;" x1="-192" x2="0" y1="48" y2="48"/>
              <line style="fill:none;stroke:#000000;stroke-width:0.25;stroke-miterlimit:10;" x1="-192" x2="0" y1="52" y2="52"/>
              <line style="fill:none;stroke:#000000;stroke-width:0.25;stroke-miterlimit:10;" x1="-192" x2="0" y1="56" y2="56"/>
              <line style="fill:none;stroke:#000000;stroke-width:0.25;stroke-miterlimit:10;" x1="-192" x2="0" y1="60" y2="60"/>
              <line style="fill:none;stroke:#000000;stroke-width:0.25;stroke-miterlimit:10;" x1="-192" x2="0" y1="64" y2="64"/>
              <line style="fill:none;stroke:#000000;stroke-width:0.25;stroke-miterlimit:10;" x1="-192" x2="0" y1="68" y2="68"/>
              <line style="fill:none;stroke:#000000;stroke-width:0.25;stroke-miterlimit:10;" x1="-192" x2="0" y1="72" y2="72"/>
              <line style="fill:none;stroke:#000000;stroke-width:0.25;stroke-miterlimit:10;" x1="-192" x2="0" y1="76" y2="76"/>
              <line style="fill:none;stroke:#000000;stroke-width:0.25;stroke-miterlimit:10;" x1="-192" x2="0" y1="80" y2="80"/>
              <line style="fill:none;stroke:#000000;stroke-width:0.25;stroke-miterlimit:10;" x1="-192" x2="0" y1="84" y2="84"/>
              <line style="fill:none;stroke:#000000;stroke-width:0.25;stroke-miterlimit:10;" x1="-192" x2="0" y1="88" y2="88"/>
              <line style="fill:none;stroke:#000000;stroke-width:0.25;stroke-miterlimit:10;" x1="-192" x2="0" y1="92" y2="92"/>
              <line style="fill:none;stroke:#000000;stroke-width:0.25;stroke-miterlimit:10;" x1="-192" x2="0" y1="96" y2="96"/>
              <line style="fill:none;stroke:#000000;stroke-width:0.25;stroke-miterlimit:10;" x1="-192" x2="0" y1="100" y2="100"/>
              <line style="fill:none;stroke:#000000;stroke-width:0.25;stroke-miterlimit:10;" x1="-192" x2="0" y1="104" y2="104"/>
              <line style="fill:none;stroke:#000000;stroke-width:0.25;stroke-miterlimit:10;" x1="-192" x2="0" y1="108" y2="108"/>
              <line style="fill:none;stroke:#000000;stroke-width:0.25;stroke-miterlimit:10;" x1="-192" x2="0" y1="112" y2="112"/>
              <line style="fill:none;stroke:#000000;stroke-width:0.25;stroke-miterlimit:10;" x1="-192" x2="0" y1="116" y2="116"/>
              <line style="fill:none;stroke:#000000;stroke-width:0.25;stroke-miterlimit:10;" x1="-192" x2="0" y1="120" y2="120"/>
              <line style="fill:none;stroke:#000000;stroke-width:0.25;stroke-miterlimit:10;" x1="-192" x2="0" y1="124" y2="124"/>
              <line style="fill:none;stroke:#000000;stroke-width:0.25;stroke-miterlimit:10;" x1="-192" x2="0" y1="128" y2="128"/>
              <line style="fill:none;stroke:#000000;stroke-width:0.25;stroke-miterlimit:10;" x1="-192" x2="0" y1="132" y2="132"/>
              <line style="fill:none;stroke:#000000;stroke-width:0.25;stroke-miterlimit:10;" x1="-192" x2="0" y1="136" y2="136"/>
              <line style="fill:none;stroke:#000000;stroke-width:0.25;stroke-miterlimit:10;" x1="-192" x2="0" y1="140" y2="140"/>
              <line style="fill:none;stroke:#000000;stroke-width:0.25;stroke-miterlimit:10;" x1="-192" x2="0" y1="144" y2="144"/>
              <line style="fill:none;stroke:#000000;stroke-width:0.25;stroke-miterlimit:10;" x1="-192" x2="0" y1="148" y2="148"/>
              <line style="fill:none;stroke:#000000;stroke-width:0.25;stroke-miterlimit:10;" x1="-192" x2="0" y1="152" y2="152"/>
              <line style="fill:none;stroke:#000000;stroke-width:0.25;stroke-miterlimit:10;" x1="-192" x2="0" y1="156" y2="156"/>
            </g>
            <path d="M-0.25-31.75v191.5h-191.5v-191.5H-0.25 M0-32h-192v192H0V-32L0-32z"/>
          </g>
        </g>
        <g>
          <rect height="128" style="opacity:0.3;fill:#F44336;" width="4" x="-160" y="0"/>
          <rect height="128" style="opacity:0.3;fill:#F44336;" width="4" x="-36" y="0"/>
          <rect height="120" style="opacity:0.3;fill:#F44336;" transform="matrix(-1.836970e-16 1 -1 -1.836970e-16 -94 98)" width="4" x="-98" y="-58"/>
          <rect height="120" style="opacity:0.3;fill:#F44336;" transform="matrix(-1.836970e-16 1 -1 -1.836970e-16 30 222)" width="4" x="-98" y="66"/>
        </g>
      </g>
    </g>
  </g>
</svg>