<svg enable-background="new 0 0 128 128" viewBox="0 0 128 128" xmlns="http://www.w3.org/2000/svg"><linearGradient id="c" x1="34.669" x2="34.669" y1="49" y2="105.05" gradientUnits="userSpaceOnUse"><stop stop-color="#FFB74D" offset="0"/><stop stop-color="#FF9800" offset="1"/></linearGradient><path d="m22.44 79.5c0.6 1.39-0.6 2.88-2.08 2.55-6.09-1.39-17.42-5.82-16.28-19.39 1.38-16.38 21.75-17 27.62-15.75s25.13 5.5 32.25 36-15.38 25.25-19.75 23.88c-1.07-0.34-9.25-4.75-8.25-12.25 1.23-9.21 11.86-9.3 13.38-4.25 0.75 2.5-2.38 4.25-0.62 6.5s5.62-2.34 5.75-7.75c0.12-5.25-8.12-24.75-23.5-23.75-12.49 0.8-10.58 9.43-8.52 14.21z" fill="url(#c)"/><linearGradient id="b" x1="64.007" x2="64.007" y1="49" y2="105.05" gradientTransform="matrix(-1 0 0 1 157.34 0)" gradientUnits="userSpaceOnUse"><stop stop-color="#FFB74D" offset="0"/><stop stop-color="#FF9800" offset="1"/></linearGradient><path d="m105.56 79.5c-0.6 1.39 0.6 2.88 2.08 2.55 6.09-1.39 17.42-5.82 16.28-19.39-1.38-16.38-21.75-17-27.62-15.75s-25.12 5.5-32.25 36 15.38 25.25 19.75 23.88c1.07-0.34 9.25-4.75 8.25-12.25-1.23-9.21-11.86-9.3-13.38-4.25-0.75 2.5 2.38 4.25 0.62 6.5s-5.62-2.34-5.75-7.75c-0.12-5.25 8.12-24.75 23.5-23.75 12.49 0.8 10.58 9.43 8.52 14.21z" fill="url(#b)"/><g opacity=".2"><path d="m26.89 49.49c2.3 0 3.7 0.24 4.19 0.35 2.75 0.59 8.47 1.8 14.43 6.46 7.42 5.8 12.65 14.98 15.52 27.29 2.01 8.62 1.68 14.93-0.96 18.26-1.66 2.09-4.37 3.15-8.06 3.15-3.15 0-5.97-0.78-6.85-1.06-0.39-0.18-6.97-3.5-6.24-9.01 0.49-3.68 2.91-5 5-5 1.23 0 2.28 0.49 2.52 1.18-0.03 0.19-0.24 0.65-0.39 0.96-0.59 1.26-1.8 3.88 0.28 6.56 0.87 1.12 2.11 1.74 3.47 1.74 4.22 0 7.52-5.95 7.64-11.26 0.15-6.29-5.44-15.45-9.53-19.64-4.61-4.72-10.09-7.22-15.83-7.22-0.44 0-0.88 0.01-1.33 0.04-5.56 0.36-9.39 2.19-11.38 5.45-1.74 2.84-1.91 6.55-0.51 10.81-10.49-3.18-12.25-10.17-11.79-15.64 0.41-4.83 2.74-8.31 7.14-10.63 4.76-2.51 10.46-2.79 12.68-2.79m0-3c-8.25 0-21.7 2.97-22.81 16.16-1.14 13.58 10.19 18 16.28 19.4 0.14 0.03 0.29 0.05 0.42 0.05 1.27 0 2.2-1.34 1.66-2.6-2.06-4.79-3.98-13.41 8.51-14.22 0.38-0.02 0.76-0.04 1.13-0.04 14.65 0 22.49 18.67 22.37 23.79-0.11 4.44-2.74 8.34-4.64 8.34-0.41 0-0.79-0.18-1.11-0.59-1.75-2.25 1.38-4 0.62-6.5-0.64-2.13-2.9-3.35-5.4-3.35-3.42 0-7.26 2.28-7.97 7.6-1 7.5 7.18 11.91 8.25 12.25 1.35 0.42 4.42 1.22 7.81 1.22 7.62 0 16.87-3.99 11.94-25.09-7.12-30.5-26.38-34.75-32.25-36-1.14-0.24-2.82-0.42-4.81-0.42z" fill="#424242"/></g><g opacity=".2"><path d="m101.11 49.49c2.23 0 7.92 0.27 12.69 2.79 4.4 2.32 6.73 5.8 7.14 10.63 0.46 5.47-1.3 12.46-11.8 15.64 1.4-4.26 1.23-7.97-0.51-10.81-1.99-3.26-5.82-5.09-11.38-5.45-0.44-0.03-0.89-0.04-1.33-0.04-5.75 0-11.22 2.5-15.83 7.22-4.09 4.19-9.68 13.35-9.53 19.64 0.13 5.32 3.42 11.26 7.64 11.26 1.37 0 2.6-0.62 3.47-1.74 2.08-2.68 0.86-5.3 0.28-6.56-0.14-0.31-0.36-0.77-0.39-0.96 0.23-0.68 1.28-1.18 2.52-1.18 2.1 0 4.51 1.31 5 5 0.73 5.51-5.85 8.83-6.24 9.01-0.88 0.27-3.7 1.06-6.85 1.06-3.69 0-6.4-1.06-8.06-3.15-2.64-3.33-2.97-9.64-0.96-18.26 2.87-12.3 8.1-21.49 15.52-27.29 5.96-4.66 11.68-5.88 14.43-6.46 0.49-0.1 1.89-0.35 4.19-0.35m0-3c-1.99 0-3.67 0.17-4.81 0.41-5.88 1.25-25.12 5.5-32.25 36-4.93 21.11 4.32 25.1 11.93 25.1 3.39 0 6.46-0.79 7.81-1.22 1.07-0.34 9.25-4.75 8.25-12.25-0.71-5.32-4.56-7.6-7.97-7.6-2.5 0-4.76 1.22-5.4 3.35-0.75 2.5 2.38 4.25 0.62 6.5-0.31 0.4-0.69 0.59-1.11 0.59-1.91 0-4.54-3.89-4.64-8.34-0.12-5.12 7.71-23.79 22.37-23.79 0.37 0 0.75 0.01 1.13 0.04 12.49 0.81 10.58 9.43 8.51 14.22-0.54 1.26 0.39 2.6 1.66 2.6 0.14 0 0.28-0.02 0.42-0.05 6.09-1.39 17.42-5.82 16.28-19.39-1.1-13.2-14.55-16.16-22.8-16.17z" fill="#424242"/></g><linearGradient id="a" x1="64.003" x2="64.003" y1="5.3333" y2="120.06" gradientUnits="userSpaceOnUse"><stop stop-color="#FFA726" offset="0"/><stop stop-color="#F57C00" offset="1"/></linearGradient><path d="M80.57,30.62C76,19.75,68.12,9.16,65.3,4.71c-0.6-0.94-2-0.94-2.6,0 C59.88,9.16,51.88,20,47.43,30.62C43.5,40.03,45.79,54.8,52.15,68c3.85,8,5.41,10.13,5.86,17.07c0.25,3.76-0.53,7.54-2.37,10.86 c-3.66,6.57-4.8,16.42,7.06,27.57c0.73,0.68,1.87,0.68,2.6,0c11.87-11.14,10.72-20.99,7.06-27.57c-1.84-3.31-2.62-7.09-2.37-10.86 C70.45,78.13,72,76,75.85,68C82.21,54.8,84.52,40.02,80.57,30.62z" fill="url(#a)"/><g opacity=".2"><path d="m64 8.2c0.35 0.52 0.73 1.09 1.14 1.69 3.65 5.39 9.16 13.55 12.66 21.9 3.44 8.19 1.62 21.9-4.65 34.91-0.56 1.16-1.07 2.19-1.53 3.14-2.79 5.67-4.19 8.51-4.62 15.03-0.29 4.44 0.66 8.77 2.74 12.51 4.2 7.53 2.26 15.33-5.74 23.2-8.01-7.86-9.94-15.66-5.74-23.2 2.08-3.74 3.03-8.07 2.74-12.51-0.43-6.52-1.83-9.37-4.62-15.03-0.46-0.94-0.97-1.98-1.53-3.14-6.26-13-8.09-26.7-4.65-34.92 3.42-8.17 8.99-16.44 12.68-21.91 0.4-0.59 0.77-1.15 1.12-1.67m0-4.2c-0.5 0-1 0.24-1.3 0.71-2.82 4.45-10.82 15.29-15.27 25.92-3.93 9.4-1.64 24.17 4.72 37.37 3.85 8 5.41 10.13 5.86 17.07 0.25 3.76-0.53 7.54-2.37 10.86-3.66 6.57-4.8 16.42 7.06 27.57 0.36 0.34 0.83 0.51 1.3 0.51s0.94-0.17 1.3-0.51c11.87-11.14 10.72-20.99 7.06-27.57-1.84-3.31-2.62-7.09-2.37-10.86 0.46-6.94 2.01-9.07 5.86-17.07 6.36-13.2 8.66-27.98 4.72-37.38-4.57-10.87-12.45-21.46-15.27-25.91-0.3-0.47-0.8-0.71-1.3-0.71z" fill="#424242"/></g><path d="m74 88.67h-20c-2.21 0-4-1.79-4-4v-1.33c0-2.21 1.79-4 4-4h20c2.21 0 4 1.79 4 4v1.33c0 2.21-1.79 4-4 4z" fill="#FFC400"/><g opacity=".2"><path d="m74 82.33c0.55 0 1 0.45 1 1v1.33c0 0.55-0.45 1-1 1h-20c-0.55 0-1-0.45-1-1v-1.33c0-0.55 0.45-1 1-1h20m0-3h-20c-2.21 0-4 1.79-4 4v1.33c0 2.21 1.79 4 4 4h20c2.21 0 4-1.79 4-4v-1.33c0-2.21-1.79-4-4-4z" fill="#424242"/></g></svg>
