<svg xmlns="http://www.w3.org/2000/svg" viewBox="0 0 128 128"><path d="M119.96 92.82c-3.52-3.17-10.1-9.12-27.02-13.17-4.26-1.02-13.3-3.42-28.24-3.48-9.94-.04-24.13.6-36.17 3.95-5.38 1.5-4.31 3.11-.46 2.41 5.84-1.06 10.17-.97 16.06-.85 2.14.04 8.27.44 13.25 1.54 4.4.98 7.75 2.62 8.8 3.61.78.74 3.01 2.87 2.51 4.76-.75 2.82-6.78 2.14-7.94 5.64-.44 1.32.06 2.52.16 2.75.77 1.74 2.79 2.53 6.77 3.31 13.39 2.65 7.38 2.05 12.96 2.5 13.85 1.13 18.95.48 26.29 3.58 4.23 1.79 5.15 3.1 5.24 4.19.07.75-.1 3.3-8.72 7.2-1.14.52 1.34 3.09 11.65-2.36 5.34-3.58 10.11-8.75 10.22-15.09.08-4.31-2.12-7.57-5.36-10.49z" fill="#3fbfe7"/><path d="M112.17 113.58c-.1-1.08-.41-2.18-4.43-4.02-5.61-2.56-12.76-2.98-26.6-4.22-7.48-.67-7.33-.84-13.47-2.04-3.97-.78-6-1.57-6.77-3.31-.1-.23-.6-1.43-.16-2.75 1.16-3.5 7.2-2.82 7.94-5.64.5-1.89-1.73-4.02-2.51-4.76-1.05-1-4.4-2.63-8.8-3.61-4.98-1.11-11.12-1.5-13.25-1.54-6.61-.14-10.59-.2-16.06.85 0 0-14.1 2.7-22.35 10.63-1.94 2.08-3.74 4.73-3.89 8.21 0 .05 0 .11-.01.18 0 0-.1 3.98 2.87 8.14 6.62 9.28 28.88 13.87 28.88 13.87 14.18 2.92 25.01 3.1 34.07 3.21 10.84.12 21.68-.52 32.37-4.58 1.14-.43 2.29-.89 3.43-1.41 8.64-3.91 8.81-6.46 8.74-7.21z" fill="#f7c977"/><path d="M91.04 98.06c1.02 2.13 8.09 3.14 7.72 5.48-.37 2.34-7.37 1.12-9.04 2.79-1.68 1.67-.49 8.67-2.82 9.04-2.34.36-3.35-6.66-5.45-7.74-2.11-1.08-8.39 2.22-9.46.11-1.07-2.11 5.3-5.24 5.67-7.58.37-2.34-4.7-7.29-3.02-8.97 1.67-1.67 6.61 3.37 8.96 3.05 2.4-.32 5.91-6.62 8.02-5.43 1.99 1.15-1.58 7.16-.58 9.25z" fill="#f79329"/><path d="M41.38 93.97c-.24-.05-.48-.12-.71-.23a3.116 3.116 0 0 1-1.55-4.12l19.05-42.17a3.12 3.12 0 0 1 4.12-1.55c1.56.71 2.26 2.55 1.55 4.12L44.79 92.2a3.117 3.117 0 0 1-3.41 1.77z" fill="#78a3ad"/><g><path d="M79.28 18.28l-.24-.11c.09.04.18.09.27.13l-.03-.02zM76.65 19.24c2.09 6.78 6.55 26.58-2.27 52.36.01-.04.03-.08.04-.12 15.63-4.04 25.54 4.41 25.74 4.58 3.54-31.02-17.06-52.6-22.89-58.02l-.25.6c-.09.24-.22.43-.37.6zM73.25 17.09l.19-.45c-7.87.01-34.12 1.89-51.26 25.2.47.05 13.03 2.63 21.59 14.83l-.03.08c9.86-23.07 23.73-34.48 29.42-38.41-.1-.4-.08-.83.09-1.25z" fill="#fff"/><path d="M79.31 18.3c-.09-.04-.18-.09-.27-.13-.51-.24-1.01-.47-1.53-.7l-.24.58c5.83 5.42 26.43 26.99 22.89 58.02-.2-.18-10.11-8.62-25.74-4.58-.01.04-.03.08-.04.12 8.82-25.79 4.36-45.58 2.27-52.36-.44.48-1.09.73-1.74.66a2.013 2.013 0 0 1-1.75-1.56c-5.69 3.93-19.56 15.34-29.42 38.41l.03-.08C35.2 44.48 22.65 41.9 22.18 41.84c17.14-23.31 43.39-25.19 51.26-25.2l.31-.74C47.57 5.82 20.3 11.3 4.92 28.06c-1.01 1.1-.79 2.91.44 3.65C9.12 33.99 16.27 39 19.54 45.87c.11.04 16.43 5.53 21.89 16.78.13.01 18.58.91 31.56 12.76 0 .01-.01.02-.01.02s14.78-4.09 26.53 5.02c.03-.15.05-.29.07-.43l-.06.4s9.05-5.16 18.15-2.01c1.18.41 2.41-.59 2.4-1.93-.15-22.96-15.88-46.34-40.76-58.18z" fill="#196ca2"/><path d="M73.44 16.65l-.19.45c-.17.41-.19.84-.1 1.25.15.62.57 1.16 1.2 1.42.18.07.36.12.55.14a2.071 2.071 0 0 0 2.12-1.25l.25-.6.24-.58 2.37-5.74c.43-1.04-.06-2.24-1.11-2.67-1.04-.43-2.23.07-2.67 1.11l-2.37 5.73-.29.74z" fill="#78a3ad"/></g></svg>