<?xml version="1.0" encoding="utf-8"?>
<!-- Generator: Adobe Illustrator 19.2.1, SVG Export Plug-In . SVG Version: 6.00 Build 0)  -->
<svg version="1.1" id="レイヤー_1" xmlns="http://www.w3.org/2000/svg" xmlns:xlink="http://www.w3.org/1999/xlink" x="0px"
	 y="0px" viewBox="0 0 128 128" style="enable-background:new 0 0 128 128;" xml:space="preserve">
<g>
	<g>
		<g>
			<defs>
				<path id="SVGID_1_" d="M57.24,16.31c-0.12-0.25-0.3-0.5-0.58-0.73c-0.82-0.7-1.3-1.68-1.69-2.68c-0.29-0.76-0.63-1.83-0.47-2.65
					c0.11-0.62,0.24-1.13,0.15-1.78c-0.06-0.59-0.5-0.79-1.03-0.93c-0.68-0.19-1.37-0.09-2.03,0.16c-0.29,0.11-0.8,0.3-1.04,0.49
					c-0.75,0.61-0.78,1.33-0.88,2.24c-0.11,0.96-0.15,1.95,0.1,2.88c0.29,1.1,0.71,2.18,1.28,3.16c0.54,0.92,1.17,1.96,1.91,2.72
					c0.35,0.36,0.75,0.66,1.19,0.92c0.59,0.36,1.75,0.98,2.46,0.81c0.82-0.2,0.73-1.86,0.77-2.5
					C57.44,17.59,57.53,16.92,57.24,16.31z"/>
			</defs>
			<use xlink:href="#SVGID_1_"  style="overflow:visible;fill:#2F2F2F;"/>
			<clipPath id="SVGID_2_">
				<use xlink:href="#SVGID_1_"  style="overflow:visible;"/>
			</clipPath>
		</g>
	</g>
	<g>
		<g>
			<defs>
				<path id="SVGID_3_" d="M48.75,27.49c-0.12-0.25-0.3-0.49-0.59-0.73c-0.82-0.7-1.3-1.68-1.68-2.68
					c-0.29-0.76-0.63-1.83-0.47-2.65c0.11-0.62,0.24-1.13,0.16-1.78c-0.07-0.59-0.51-0.79-1.03-0.93c-0.68-0.19-1.37-0.09-2.03,0.16
					c-0.29,0.11-0.8,0.3-1.04,0.49c-0.75,0.61-0.78,1.33-0.88,2.24c-0.1,0.96-0.15,1.95,0.1,2.88c0.29,1.1,0.71,2.18,1.28,3.16
					c0.55,0.92,1.18,1.96,1.92,2.72c0.35,0.36,0.75,0.66,1.19,0.92c0.6,0.36,1.75,0.98,2.46,0.81c0.82-0.2,0.73-1.86,0.77-2.5
					C48.95,28.76,49.04,28.09,48.75,27.49z"/>
			</defs>
			<use xlink:href="#SVGID_3_"  style="overflow:visible;fill:#2F2F2F;"/>
			<clipPath id="SVGID_4_">
				<use xlink:href="#SVGID_3_"  style="overflow:visible;"/>
			</clipPath>
		</g>
	</g>
	<g>
		<g>
			<defs>
				<path id="SVGID_5_" d="M39.88,37.62c-0.12-0.25-0.3-0.49-0.58-0.73c-0.82-0.7-1.3-1.68-1.68-2.68
					c-0.29-0.76-0.63-1.83-0.47-2.65c0.11-0.62,0.24-1.13,0.16-1.78c-0.06-0.59-0.51-0.79-1.03-0.93c-0.68-0.19-1.37-0.09-2.03,0.16
					c-0.29,0.11-0.8,0.3-1.04,0.49c-0.75,0.61-0.78,1.33-0.87,2.24c-0.11,0.95-0.15,1.95,0.1,2.88c0.29,1.09,0.71,2.18,1.28,3.16
					c0.54,0.92,1.17,1.96,1.91,2.72c0.35,0.36,0.75,0.65,1.19,0.92c0.6,0.36,1.75,0.98,2.46,0.81c0.82-0.2,0.73-1.86,0.77-2.5
					C40.09,38.89,40.17,38.22,39.88,37.62z"/>
			</defs>
			<use xlink:href="#SVGID_5_"  style="overflow:visible;fill:#2F2F2F;"/>
			<clipPath id="SVGID_6_">
				<use xlink:href="#SVGID_5_"  style="overflow:visible;"/>
			</clipPath>
		</g>
	</g>
	<g>
		<g>
			<defs>
				<path id="SVGID_7_" d="M31.43,49.68c-0.11-0.25-0.3-0.49-0.58-0.73c-0.82-0.7-1.31-1.68-1.68-2.68
					c-0.29-0.76-0.63-1.83-0.48-2.65c0.12-0.62,0.24-1.13,0.16-1.78c-0.07-0.59-0.51-0.79-1.03-0.93c-0.67-0.19-1.37-0.09-2.03,0.15
					c-0.29,0.11-0.8,0.3-1.03,0.49c-0.75,0.61-0.79,1.33-0.88,2.24c-0.1,0.95-0.15,1.95,0.1,2.88c0.29,1.09,0.7,2.18,1.28,3.16
					c0.54,0.92,1.17,1.96,1.91,2.72c0.35,0.36,0.75,0.66,1.19,0.92c0.6,0.36,1.75,0.98,2.46,0.81c0.82-0.2,0.73-1.86,0.77-2.5
					C31.63,50.96,31.71,50.29,31.43,49.68z"/>
			</defs>
			<use xlink:href="#SVGID_7_"  style="overflow:visible;fill:#2F2F2F;"/>
			<clipPath id="SVGID_8_">
				<use xlink:href="#SVGID_7_"  style="overflow:visible;"/>
			</clipPath>
		</g>
	</g>
	<g>
		<g>
			<defs>
				<path id="SVGID_9_" d="M21.52,62.21c-0.12-0.25-0.3-0.5-0.58-0.73c-0.82-0.7-1.3-1.68-1.68-2.68c-0.29-0.76-0.63-1.83-0.47-2.65
					c0.11-0.62,0.23-1.13,0.16-1.78c-0.07-0.59-0.51-0.79-1.03-0.93c-0.68-0.19-1.37-0.09-2.03,0.16c-0.29,0.11-0.8,0.3-1.04,0.49
					c-0.75,0.61-0.78,1.33-0.88,2.24c-0.11,0.95-0.15,1.95,0.1,2.88c0.29,1.09,0.71,2.18,1.27,3.16c0.55,0.92,1.18,1.96,1.92,2.72
					c0.35,0.36,0.75,0.65,1.19,0.92c0.6,0.36,1.75,0.98,2.46,0.81c0.82-0.2,0.72-1.86,0.77-2.5C21.72,63.48,21.81,62.81,21.52,62.21
					z"/>
			</defs>
			<use xlink:href="#SVGID_9_"  style="overflow:visible;fill:#2F2F2F;"/>
			<clipPath id="SVGID_10_">
				<use xlink:href="#SVGID_9_"  style="overflow:visible;"/>
			</clipPath>
		</g>
	</g>
	<g>
		<g>
			<defs>
				<path id="SVGID_11_" d="M13.01,75.57c-0.12-0.25-0.3-0.49-0.59-0.73c-0.82-0.7-1.3-1.68-1.68-2.68
					c-0.29-0.76-0.63-1.83-0.47-2.65c0.11-0.62,0.23-1.13,0.15-1.78c-0.07-0.59-0.51-0.79-1.03-0.93c-0.68-0.19-1.37-0.09-2.03,0.16
					c-0.29,0.11-0.8,0.3-1.04,0.49c-0.75,0.61-0.78,1.33-0.88,2.24c-0.11,0.96-0.15,1.95,0.1,2.89c0.29,1.1,0.71,2.18,1.27,3.16
					c0.55,0.92,1.18,1.96,1.92,2.72c0.35,0.36,0.75,0.66,1.19,0.92c0.6,0.36,1.75,0.98,2.46,0.81c0.82-0.2,0.73-1.86,0.77-2.5
					C13.21,76.84,13.29,76.17,13.01,75.57z"/>
			</defs>
			<use xlink:href="#SVGID_11_"  style="overflow:visible;fill:#2F2F2F;"/>
			<clipPath id="SVGID_12_">
				<use xlink:href="#SVGID_11_"  style="overflow:visible;"/>
			</clipPath>
		</g>
	</g>
	<g>
		<g>
			<g>
				<g>
					<g>
						<path style="fill:#FFFFFF;" d="M93.78,32.57c-6.22-3.39-12.62-6.48-18.99-9.54c-2.93-1.4-6.56-3.22-9.82-1.83
							c-0.74,0.31-1.56,1.27-2.07,1.87c-2.04,2.46-4.05,4.95-6.04,7.45c-3.76,4.73-7.42,9.54-11.03,14.38
							c-1.81,2.42-3.59,4.86-5.38,7.3c-1.55,2.12-2.79,4.17-5.19,5.47c-0.99,0.54-1.92,1.09-2.89,1.63
							c-4.41,2.46-9.32,3.92-13.32,7.08c-5.21,4.12-6.04,8.46-5.22,14.93c0.5,3.85,1.22,8.17,4.83,10.35
							c4.78,2.9,10.15,5.12,15.05,7.9c4.11,2.33,8.23,4.65,12.3,7.04c8.58,5.05,17.07,10.24,25.46,15.6
							c4.52,2.89,7.78,3.85,10.72-1.46c1.17-2.1,2.34-4.19,3.51-6.29c3.08-5.51,6.15-11.02,9.23-16.53
							c3.43-6.16,6.88-12.33,10.31-18.49c3.07-5.49,6.13-10.98,9.19-16.48c1.78-3.18,4-6.3,4.78-9.91c1.03-4.71,0.58-12.58-1.56-17
							c-0.73-1.49-1.49-0.17-2.59,0.15c-0.89,0.26-1.58,0.4-2.42,0.9c-0.92,0.54-1.81,1.14-2.83,1.48
							c-2.01,0.68-4.49,0.72-6.37-0.39C100.25,36.31,97.07,34.35,93.78,32.57z"/>
						<path style="fill:#2F2F2F;" d="M77.27,127.44c-2.61,0-5.07-1.35-7.35-2.81c-8.19-5.23-16.72-10.46-25.36-15.54
							c-3.39-1.99-6.81-3.93-10.23-5.86l-2.03-1.16c-2.13-1.21-4.44-2.35-6.66-3.45c-2.82-1.39-5.73-2.83-8.45-4.49
							c-4.99-3.02-5.74-8.92-6.19-12.46c-0.88-6.86-0.14-12.47,6.29-17.56c2.81-2.22,5.92-3.64,8.94-5.01
							c1.67-0.76,3.25-1.48,4.76-2.33l1.15-0.65c0.59-0.33,1.17-0.67,1.77-0.99c1.5-0.82,2.45-2.13,3.64-3.8l0.6-0.83
							c1.79-2.45,3.58-4.89,5.39-7.32c3.96-5.33,7.59-10.06,11.08-14.45c2-2.52,4.02-5.02,6.08-7.5c0.89-1.08,1.9-2.15,3.15-2.69
							c1.14-0.48,2.36-0.73,3.65-0.73c3.1,0,5.99,1.39,8.32,2.5l0.23,0.11c6.48,3.1,12.82,6.18,19.13,9.6
							c2.42,1.32,4.81,2.74,7.11,4.11l2.65,1.57c0.96,0.57,2.58,0.62,3.99,0.14c0.54-0.18,1.14-0.54,1.77-0.92l0.51-0.3
							c1-0.6,1.87-0.85,2.64-1.06l0.42-0.12c0.02-0.02,0.11-0.08,0.2-0.14c0.5-0.31,1.32-0.83,2.43-0.83c0.67,0,2.36,0.23,3.37,2.33
							c2.52,5.17,2.88,13.82,1.79,18.87c-0.72,3.28-2.34,6.02-3.91,8.68c-0.4,0.67-0.8,1.35-1.17,2.02l-32.25,57.78
							C82.78,125.66,80.27,127.44,77.27,127.44z M67.49,23.59c-0.52,0-0.97,0.09-1.39,0.27c0,0.01-0.29,0.23-0.97,1.06
							c-2.03,2.44-4.03,4.91-6,7.4c-3.45,4.35-7.04,9.03-10.97,14.31c-1.8,2.42-3.58,4.84-5.36,7.28l-0.56,0.78
							c-1.43,2-2.91,4.07-5.59,5.52c-0.56,0.31-1.11,0.62-1.66,0.93l-1.2,0.68c-1.72,0.96-3.48,1.76-5.19,2.54
							c-2.82,1.29-5.49,2.5-7.74,4.28c-3.94,3.11-4.94,6.1-4.14,12.3c0.45,3.52,1.05,6.8,3.45,8.25c2.52,1.53,5.19,2.85,8.03,4.25
							c2.3,1.14,4.68,2.32,6.95,3.61l2.04,1.15c3.44,1.95,6.89,3.91,10.3,5.91c8.7,5.12,17.29,10.38,25.55,15.65
							c1.27,0.82,3.09,1.9,4.23,1.9c0.28,0,1.12,0,2.41-2.32l32.25-57.79c0.4-0.72,0.82-1.43,1.24-2.14
							c1.4-2.37,2.72-4.61,3.24-6.98c0.76-3.5,0.61-9.38-0.67-13.41l-0.33,0.09c-0.64,0.18-0.92,0.27-1.27,0.48l-0.46,0.28
							c-0.84,0.5-1.78,1.08-2.92,1.46c-2.96,1-6.35,0.77-8.75-0.64l-2.68-1.59c-2.26-1.34-4.59-2.73-6.92-4
							c-6.19-3.36-12.45-6.39-18.86-9.47l-0.23-0.11C71.42,24.61,69.27,23.59,67.49,23.59z"/>
					</g>
					<path style="fill:#2F2F2F;" d="M77.93,127.25c-1.52,0-2.79-1.18-2.88-2.71l-1.25-20.86c-0.1-1.59,1.11-2.96,2.7-3.05
						c1.62-0.11,2.96,1.12,3.05,2.71l1.26,20.86c0.1,1.59-1.12,2.96-2.71,3.05C78.05,127.25,77.99,127.25,77.93,127.25z"/>
					<path style="fill:#006CA2;" d="M74.54,6.46c-2.93-1.4-6.56-3.22-9.82-1.83c-0.74,0.31-1.56,1.27-2.07,1.87
						c-12.62,15.2-27.78,31.99-39.28,48.05c-2.57,3.59-5.44,6.96-8.09,10.5c-1.6,2.14-3.45,4.58-4.03,7.24
						c-0.69,3.18,2.42,2.48,4.38,3.6c1.5,0.86,24.95,13.14,29.02,15.53c8.58,5.05,17.07,10.24,25.46,15.6
						c4.51,2.89,7.77,3.85,10.72-1.46c1.17-2.1,2.34-4.19,3.51-6.29c3.07-5.51,6.15-11.02,9.23-16.53
						c3.44-6.16,8.38-14.95,11.82-21.11c3.06-5.49,6.12-10.98,9.19-16.47c1.35-2.41,2.56-4.89,3.97-7.26
						c2.5-4.19-0.57-8.03-4.71-11.17c-3.58-2.72-7.97-4.9-10.23-6.31C100.45,18.44,80.91,9.51,74.54,6.46z"/>
				</g>
			</g>
		</g>
		<g>
			<g>
				<defs>
					<path id="SVGID_13_" d="M25.5,69.51c-1.19-8-11.03-13.24-17.25-6.82C6.86,64.13,5.94,66.01,5.67,68
						c-0.2,1.42-0.5,3.14-0.12,4.56c0.2,0.75,0.29,1.17,1.09,1.37c0.73,0.18,1.51-0.04,2.2-0.29c0.64-0.24,1.33-0.73,1.59-1.39
						c0.24-0.58-0.06-1.27-0.12-1.86c-0.17-1.52,0.31-3.02,1.61-3.91c1.73-1.2,4.24-0.75,5.9,0.33c1.06,0.69,1.91,1.72,2.18,2.98
						C20.76,73.25,25.87,72.02,25.5,69.51z"/>
				</defs>
				<use xlink:href="#SVGID_13_"  style="overflow:visible;fill:#2F2F2F;"/>
				<clipPath id="SVGID_14_">
					<use xlink:href="#SVGID_13_"  style="overflow:visible;"/>
				</clipPath>
			</g>
		</g>
	</g>
	<path style="fill:#FFFFFF;" d="M100.14,36.52c-1.47-1.66-3.87-2.74-5.75-3.88c-4.89-2.96-12.85-6.87-18.04-9.27
		c-1.42-0.66-3.75-1.64-5.27-0.75c-0.96,0.57-1.75,1.34-2.52,2.13c-0.5,0.51-0.98,1-1.42,1.56c-0.46,0.6-0.87,1.26-1.33,1.88
		c-0.47,0.64-0.87,1.35-1.3,2.03c-0.35,0.55-0.68,1.42-0.42,2.05c0.42,1.02,1.45,1.57,2.3,2.17c1.04,0.74,2.08,1.47,3.19,2.11
		c2.35,1.38,4.82,2.5,7.31,3.61c1.38,0.62,2.75,1.25,4.1,1.91c1.75,0.85,6.01,3.3,7.8,4.06c0.45,0.19,0.86,0.49,1.33,0.61
		c0.92,0.25,1.64,0.94,2.61,1.15c2.2,0.46,2.7-0.95,3.82-2.38c1.13-1.45,2.02-3.09,3.03-4.62c0.63-0.96,1.64-1.88,1.26-3.16
		C100.72,37.3,100.46,36.89,100.14,36.52z"/>
	<g>
		<g>
			<defs>
				<path id="SVGID_15_" d="M34.01,56.15c-1.19-8.01-11.04-13.24-17.25-6.82c-1.39,1.45-2.31,3.32-2.58,5.31
					c-0.2,1.42-0.5,3.14-0.12,4.56c0.2,0.75,0.28,1.17,1.09,1.37c0.73,0.18,1.51-0.04,2.2-0.29c0.64-0.24,1.33-0.73,1.59-1.39
					c0.24-0.58-0.06-1.27-0.12-1.86c-0.17-1.52,0.32-3.02,1.61-3.91c1.73-1.2,4.23-0.75,5.9,0.33c1.06,0.69,1.91,1.72,2.18,2.97
					C29.27,59.89,34.39,58.65,34.01,56.15z"/>
			</defs>
			<use xlink:href="#SVGID_15_"  style="overflow:visible;fill:#2F2F2F;"/>
			<clipPath id="SVGID_16_">
				<use xlink:href="#SVGID_15_"  style="overflow:visible;"/>
			</clipPath>
		</g>
	</g>
	<g>
		<g>
			<defs>
				<path id="SVGID_17_" d="M43.92,43.63c-1.19-8.01-11.03-13.24-17.24-6.82c-1.4,1.45-2.32,3.32-2.59,5.31
					c-0.2,1.42-0.5,3.14-0.12,4.56c0.19,0.75,0.28,1.17,1.09,1.37c0.73,0.18,1.51-0.04,2.2-0.29c0.64-0.24,1.33-0.73,1.59-1.39
					c0.24-0.58-0.06-1.27-0.13-1.86c-0.17-1.52,0.32-3.02,1.61-3.91c1.73-1.2,4.24-0.75,5.9,0.33c1.06,0.69,1.91,1.72,2.18,2.97
					C39.18,47.37,44.3,46.13,43.92,43.63z"/>
			</defs>
			<use xlink:href="#SVGID_17_"  style="overflow:visible;fill:#2F2F2F;"/>
			<clipPath id="SVGID_18_">
				<use xlink:href="#SVGID_17_"  style="overflow:visible;"/>
			</clipPath>
		</g>
	</g>
	<g>
		<g>
			<defs>
				<path id="SVGID_19_" d="M52.37,31.57c-1.19-8.01-11.03-13.24-17.24-6.82c-1.4,1.45-2.31,3.32-2.59,5.31
					c-0.19,1.42-0.49,3.14-0.12,4.56c0.2,0.75,0.28,1.17,1.09,1.37c0.73,0.18,1.51-0.04,2.2-0.29c0.64-0.24,1.33-0.73,1.59-1.39
					c0.24-0.59-0.06-1.27-0.12-1.86c-0.17-1.52,0.31-3.02,1.61-3.91c1.73-1.2,4.23-0.75,5.9,0.33c1.06,0.69,1.91,1.72,2.18,2.97
					C47.63,35.31,52.75,34.07,52.37,31.57z"/>
			</defs>
			<use xlink:href="#SVGID_19_"  style="overflow:visible;fill:#2F2F2F;"/>
			<clipPath id="SVGID_20_">
				<use xlink:href="#SVGID_19_"  style="overflow:visible;"/>
			</clipPath>
		</g>
	</g>
	<g>
		<g>
			<defs>
				<path id="SVGID_21_" d="M61.24,21.43C60.05,13.43,50.21,8.19,44,14.61c-1.4,1.45-2.31,3.32-2.58,5.31
					c-0.2,1.42-0.49,3.14-0.12,4.56c0.2,0.75,0.29,1.17,1.09,1.37c0.73,0.18,1.51-0.04,2.2-0.29c0.64-0.24,1.33-0.73,1.59-1.39
					c0.24-0.58-0.06-1.27-0.12-1.86c-0.17-1.52,0.31-3.02,1.61-3.91c1.73-1.2,4.23-0.75,5.9,0.33c1.06,0.69,1.91,1.72,2.18,2.98
					C56.5,25.17,61.62,23.94,61.24,21.43z"/>
			</defs>
			<use xlink:href="#SVGID_21_"  style="overflow:visible;fill:#2F2F2F;"/>
			<clipPath id="SVGID_22_">
				<use xlink:href="#SVGID_21_"  style="overflow:visible;"/>
			</clipPath>
		</g>
	</g>
	<g>
		<g>
			<defs>
				<path id="SVGID_23_" d="M69.73,10.26C68.54,2.25,58.7-2.98,52.49,3.44c-1.4,1.45-2.32,3.32-2.58,5.31
					c-0.2,1.42-0.5,3.14-0.12,4.56c0.2,0.75,0.29,1.17,1.09,1.37c0.73,0.18,1.51-0.04,2.2-0.29c0.64-0.24,1.33-0.73,1.59-1.39
					c0.24-0.58-0.06-1.27-0.12-1.86c-0.17-1.52,0.31-3.02,1.61-3.91c1.72-1.2,4.23-0.75,5.9,0.33c1.06,0.69,1.91,1.72,2.18,2.97
					C64.99,14,70.11,12.76,69.73,10.26z"/>
			</defs>
			<use xlink:href="#SVGID_23_"  style="overflow:visible;fill:#2F2F2F;"/>
			<clipPath id="SVGID_24_">
				<use xlink:href="#SVGID_23_"  style="overflow:visible;"/>
			</clipPath>
		</g>
	</g>
</g>
</svg>
