<svg width="128" height="128" style="enable-background:new 0 0 128 128;" xmlns="http://www.w3.org/2000/svg" xmlns:xlink="http://www.w3.org/1999/xlink">
  <g>
    <linearGradient id="SVGID_1_" gradientUnits="userSpaceOnUse" x1="64" x2="64" y1="4.25" y2="123.9133">
      <stop offset="0" style="stop-color:#FFAB40"/>
      <stop offset="1" style="stop-color:#FF6D00"/>
    </linearGradient>
    <path d="M116,124H12c-4.42,0-8-3.58-8-8V12c0-4.42,3.58-8,8-8h104c4.42,0,8,3.58,8,8v104 C124,120.42,120.42,124,116,124z" style="fill:url(#SVGID_1_);"/>
    <g style="opacity:0.2;">
      <path d="M116,7c2.76,0,5,2.24,5,5v104c0,2.76-2.24,5-5,5H12c-2.76,0-5-2.24-5-5V12c0-2.76,2.24-5,5-5H116 M116,4H12c-4.42,0-8,3.58-8,8v104c0,4.42,3.58,8,8,8h104c4.42,0,8-3.58,8-8V12C124,7.58,120.42,4,116,4L116,4z" style="fill:#424242;"/>
    </g>
    <g style="opacity:0.2;">
      <path d="M110.13,36c1.03,0,1.87,0.84,1.87,1.87v52.26c0,1.03-0.84,1.87-1.87,1.87H99.87 C98.84,92,98,91.16,98,90.13V37.87c0-1.03,0.84-1.87,1.87-1.87H110.13 M110.13,33H99.87C97.19,33,95,35.19,95,37.87v52.26 c0,2.69,2.19,4.87,4.87,4.87h10.26c2.69,0,4.87-2.19,4.87-4.87V37.87C115,35.19,112.81,33,110.13,33L110.13,33z" style="fill:#424242;"/>
      <path d="M18.04,36c0.34,0,0.68,0.1,1.01,0.31l38.93,25.66c1.37,0.9,1.37,3.16,0,4.05L19.05,91.69 C18.72,91.9,18.38,92,18.04,92C16.98,92,16,91.02,16,89.66V64V38.34C16,36.98,16.98,36,18.04,36 M18.04,33L18.04,33 C15.26,33,13,35.39,13,38.34V64v25.66c0,2.94,2.26,5.34,5.04,5.34c0.93,0,1.85-0.28,2.65-0.8l38.93-25.67 C61.11,67.56,62,65.86,62,64s-0.89-3.56-2.38-4.54L20.7,33.81C19.89,33.28,18.97,33,18.04,33L18.04,33z" style="fill:#424242;"/>
      <path d="M58.09,36c0.34,0,0.7,0.1,1.03,0.31l39.83,25.66c1.4,0.9,1.4,3.16,0,4.05L59.12,91.69 C58.79,91.9,58.43,92,58.09,92C57,92,56,91.02,56,89.66V64V38.34C56,36.98,57,36,58.09,36 M58.09,33L58.09,33 C55.28,33,53,35.39,53,38.34V64v25.66c0,2.94,2.28,5.34,5.09,5.34c0.93,0,1.85-0.27,2.65-0.78l39.84-25.67 c1.52-0.97,2.43-2.67,2.43-4.55s-0.91-3.58-2.43-4.55L60.74,33.79C59.93,33.27,59.02,33,58.09,33L58.09,33z" style="fill:#424242;"/>
    </g>
    <g>
      <path d="M110.13,92H99.87C98.84,92,98,91.16,98,90.13V37.87c0-1.03,0.84-1.87,1.87-1.87h10.26 c1.03,0,1.87,0.84,1.87,1.87v52.26C112,91.16,111.16,92,110.13,92z" style="fill:#FAFAFA;"/>
      <path d="M16,64V38.34c0-1.79,1.69-2.91,3.05-2.03l38.93,25.66c1.37,0.9,1.37,3.16,0,4.05L19.05,91.69 C17.69,92.58,16,91.45,16,89.66V64z" style="fill:#FAFAFA;"/>
      <path d="M56,64V38.34c0-1.79,1.73-2.91,3.12-2.03l39.83,25.66c1.4,0.9,1.4,3.16,0,4.05L59.12,91.69 C57.73,92.58,56,91.45,56,89.66V64z" style="fill:#FAFAFA;"/>
    </g>
  </g>
</svg>