<?xml version="1.0" encoding="UTF-8" standalone="no"?><!DOCTYPE svg PUBLIC "-//W3C//DTD SVG 1.1//EN" "http://www.w3.org/Graphics/SVG/1.1/DTD/svg11.dtd"><svg width="128px" height="128px" version="1.1" xmlns="http://www.w3.org/2000/svg" xmlns:xlink="http://www.w3.org/1999/xlink" xml:space="preserve" xmlns:serif="http://www.serif.com/" style="fill-rule:evenodd;clip-rule:evenodd;stroke-linejoin:round;stroke-miterlimit:2;"><path d="M48.83,32.34L38.98,45.33L30.84,109.01L45.69,119.72C45.69,119.72 72.25,120.58 73.53,120.01C74.81,119.44 95.52,110.44 95.52,110.44L87.52,44.62L76.53,31.49L48.83,32.34Z" style="fill:#dcedf6;fill-rule:nonzero;"/><path d="M37.41,69.04C37.41,69.04 39.27,64.76 50.4,63.19C56.42,62.34 59.66,63.99 64.12,63.87C69.88,63.72 73.36,62.55 78.95,64.04C86.24,65.99 88.59,71.19 88.59,71.19C88.59,71.19 91.52,80.6 90.8,80.6C90.08,80.6 34.26,89.02 34.26,89.02L37.41,69.04Z" style="fill:#e0e0e0;fill-rule:nonzero;"/><path d="M31.61,103.73C31.61,103.73 34.65,117.49 64.45,117.65C82.13,117.74 86.62,113.71 88.98,112.33C91.34,110.94 94.18,107.26 94.18,107.26L92.25,85.02L90.41,73.4C90.41,73.4 87.29,71.58 82.86,72.69C80.78,73.21 76.09,75.71 72.59,77.18C69.09,78.65 65.9,80.52 57.42,79.95C49.65,79.43 45.03,73.51 42.26,71.55C39.49,69.59 36.72,68.7 36.72,68.7L31.61,103.73Z" style="fill:#fff;fill-rule:nonzero;"/><path d="M70.75,89.52C69.7,89.52 68.9,90.05 68.67,91.43C68.44,92.81 69.64,93.58 70.56,93.44C71.76,93.25 72.13,92.1 72.13,91.24C72.13,90.38 71.62,89.52 70.75,89.52Z" style="fill:#e0e0e0;fill-rule:nonzero;"/><path d="M81.31,90.54C80.77,91.59 81.4,93.12 82.6,93.35C83.8,93.58 84.7,92.57 84.63,91.41C84.54,89.8 82.14,88.92 81.31,90.54Z" style="fill:#e0e0e0;fill-rule:nonzero;"/><path d="M84.31,99.76C83.59,100.63 84.17,102.62 85.69,102.67C87.21,102.72 87.8,100.98 87.07,99.86C86.48,98.93 85.23,98.65 84.31,99.76Z" style="fill:#e0e0e0;fill-rule:nonzero;"/><path d="M67.8,107.37C67.8,108.39 68.35,109.12 69.6,109.08C70.85,109.03 71.03,107.7 70.94,107C70.85,106.31 70.48,105.62 69.33,105.62C68.18,105.62 67.8,106.77 67.8,107.37Z" style="fill:#e0e0e0;fill-rule:nonzero;"/><path d="M62.35,99.49C61.61,98.66 60.18,98.85 59.44,99.81C58.84,100.59 58.88,102.74 60.92,102.67C62.31,102.62 63.55,100.82 62.35,99.49Z" style="fill:#e0e0e0;fill-rule:nonzero;"/><path d="M40.16,102.71C39.41,103.53 39.56,104.88 40.48,105.57C41.4,106.26 42.65,105.94 43.02,105.2C43.37,104.49 43.11,103.26 42.47,102.76C41.83,102.26 40.72,102.11 40.16,102.71Z" style="fill:#e0e0e0;fill-rule:nonzero;"/><path d="M99.63,109.81C99.45,108.49 96.72,98.53 95.14,87.88C93.55,77.22 91.35,57.04 91,50.35C90.65,43.66 89.02,40.91 87.69,39.85C86.37,38.79 44.84,35.11 44.84,35.11C44.84,35.11 39.89,37.9 38.15,40.4C36.92,42.16 36.65,43.13 36.21,45.69C35.77,48.24 34.89,58.99 34.71,62.34C34.53,65.69 32.77,79.43 31.54,85.6C30.31,91.77 27.93,106.57 27.66,108.24C27.4,109.91 28.01,112.47 29.51,113.61C31.01,114.76 45.47,123.11 47.32,123.64C49.17,124.17 75.87,124.32 77.96,123.92C80.47,123.43 97.1,115.95 98.57,114.58C99.33,113.87 99.81,111.13 99.63,109.81ZM49.82,75.2C49.2,84.34 46.71,111.57 44.94,112.81C43.17,114.06 34.34,108.55 33.4,106.99C32.46,105.43 35.89,89.43 36.93,80.6C37.54,75.4 39.76,49.44 40.57,47.45C41.04,46.31 43.51,47.89 45.91,49.06C48.4,50.27 50.83,50.99 51.09,51.82C51.61,53.49 50.44,66.06 49.82,75.2ZM73.4,116.25C72.15,116.77 67.89,116.92 63.52,116.97C58.7,117.02 54.72,116.6 53.07,115.13C51.1,113.36 52.61,101.3 53.44,89.24C54.07,80.1 55.65,54.6 55.92,53.18C56.23,51.52 59.9,53.18 64.06,53.18C68.84,53.18 72.26,51.75 72.47,53.52C72.68,55.29 72.98,65.86 73.39,72.41C73.81,78.96 75.57,111.69 75.57,113.45C75.57,115.21 74.65,115.73 73.4,116.25ZM93.67,107.83C93.36,110.22 83.79,114.46 82.66,113.54C81.1,112.29 79.75,95.36 78.92,86.73C78.09,78.11 76.74,54.04 76.74,52.65C76.74,51.39 79.32,51.03 81.38,49.87C83.53,48.66 85.46,47.13 85.78,47.66C86.4,48.7 87.13,61.9 88.59,77.27C90.03,92.66 93.98,105.44 93.67,107.83Z" style="fill:#93b1bb;fill-rule:nonzero;"/><path d="M55.54,32.1L42.6,36.13C42.6,36.13 40.82,37.34 39.84,38.38C39,39.27 38.15,40.39 38.15,40.39C38.15,40.39 48.75,49.04 63.34,49.53C77.93,50.02 88.45,40.59 88.45,40.59C88.45,40.59 87.45,39.18 86.23,38.32C85.01,37.47 79.6,34.54 79.6,34.54L55.54,32.1Z" style="fill:#93b1bb;fill-rule:nonzero;"/><path d="M42.17,32.53C42.17,32.53 40.44,34.52 41.8,37.17C43.35,40.19 50.22,45.58 63.35,45.23C79.53,44.8 84.31,37.66 84.6,37.17C85.03,36.44 85.52,35.34 85.58,34C85.64,32.66 84.73,31.86 84.73,31.86C84.73,31.86 88.58,27.34 88.7,20.87C88.82,14.4 85.7,7.8 75.01,4.75C65.77,2.11 54.31,3.77 48.88,5.48C44.42,6.88 37.88,11.59 37.77,20.13C37.65,29.41 42.17,32.53 42.17,32.53Z" style="fill:#aeb0b1;fill-rule:nonzero;"/><path d="M42.82,14.65C42.54,19.16 47.61,22.29 63.72,22.57C81,22.88 83.87,17.2 83.99,14.82C84.14,11.98 81,5.42 63.48,5.3C47.17,5.18 42.97,12.14 42.82,14.65Z" style="fill:#e0e0e0;fill-rule:nonzero;"/><path d="M44.3,34.42C43.7,35.83 49.09,42.27 63.19,42.27C77.29,42.27 83.47,36.04 82.21,34.54C81.36,33.52 75.36,38.87 63.46,38.57C47.28,38.15 45.16,32.41 44.3,34.42Z" style="fill:#e0e0e0;fill-rule:nonzero;"/><path d="M48.99,14.35C49.05,16.24 51.13,16.58 53.17,16.58C55.46,16.58 57.23,15.81 57.26,14.44C57.29,13.08 56.11,11.81 52.93,11.93C50.26,12.04 48.94,12.99 48.99,14.35Z" style="fill:#5e6367;fill-rule:nonzero;"/><path d="M59.11,9.28C59.01,10.76 60.66,11.76 63.26,11.6C66.2,11.43 67.32,10.45 67.35,9.18C67.38,7.75 65.43,6.92 63.08,7.01C60.72,7.11 59.2,7.92 59.11,9.28Z" style="fill:#5e6367;fill-rule:nonzero;"/><path d="M69.23,15.28C69.32,17.14 71.62,17.42 73.22,17.35C76.19,17.23 77.09,16.27 77.09,14.93C77.09,13.23 75.14,12.55 73.22,12.51C71.3,12.47 69.14,13.43 69.23,15.28Z" style="fill:#5e6367;fill-rule:nonzero;"/></svg>