<?xml version="1.0" encoding="utf-8"?>
<!-- Generator: Adobe Illustrator 19.2.1, SVG Export Plug-In . SVG Version: 6.00 Build 0)  -->
<svg version="1.1" id="レイヤー_1" xmlns="http://www.w3.org/2000/svg" xmlns:xlink="http://www.w3.org/1999/xlink" x="0px"
	 y="0px" viewBox="0 0 128 128" style="enable-background:new 0 0 128 128;" xml:space="preserve">
<g>
	<g>
		<g>
			<g>
				<path style="fill:#FFFFFF;" d="M118.59,76.92c-0.28-6.33-2.42-10.45-6.3-14.03c-9.68-8.93-21.34-17.46-32.07-25.09
					c-4.98-3.54-10.52-8.2-16.28-10.37c-8.13-3.05-17.32-1.96-26.03-0.73c-3.81,0.53-7.63,1.14-11.37,2.03
					c-4.34,1.03-9.5,2.26-13.18,4.87c-3.31,2.34-2.9,5.28-1.28,7.99c0.24,1.25,0.01,2.43,0.02,3.7c0.02,2.39-0.25,4.78-0.83,7.1
					c-0.36,1.43-0.86,2.81-1.33,4.21c-1.84,5.42,3.28,9.96,7.08,13.09c2.13,1.76,4.4,3.33,6.54,5.08
					c8.31,6.76,16.83,12.88,25.33,19.31c9.97,7.55,13.77,10.17,26.21,5.93c3.36-1.15,6.79-2.06,10.23-2.94
					c4.86-1.25,11.33-2.43,16.07-4.09c4.8-1.68,10.99-3.91,14.51-7.76c1.76-1.92,2.52-4.66,2.53-7.22
					C118.55,77.68,118.61,77.33,118.59,76.92z"/>
				<path style="fill:#BDCF46;" d="M20.64,36.05c4.79-2.02,23.59-4.93,27.74-5.41c3.52-0.41,7.95-0.97,11.44-0.45
					c1.4,0.23,5.93,2.6,10.63,5.79c9.6,6.53,34.92,25.51,36.52,26.99c0.42,0.39,3.91,3.71,2.15,3.69c-1.77-0.02-3.54,0.1-5.3,0.3
					c-3,0.36-20.51,4.53-28.46,6.47c-1.57,0.38-5.83,1.17-7,1.41c-3.33,0.67-6.05-0.38-8.78-2.28
					c-5.67-3.95-40.93-31.13-41.85-33.04C17.07,38.14,18.41,36.99,20.64,36.05z"/>
				<path style="fill:#2F2F2F;" d="M119.45,70.27c-1.1-2.89-3.69-5.17-6.03-7.33c-10.71-9.89-21.98-17.98-33.78-26.49
					c-3.03-2.19-6-4.3-9.15-6.31c-1.56-1-3.5-1.84-5.16-2.67c-5.5-2.75-11.21-2.55-17.16-1.87c-10.82,1.24-21.26,1.6-31.65,5.15
					c-2.89,0.99-5.72,2.36-6.39,5.85c-0.27,1.41,0.51,3.8,1.02,5.07c0.4,0.97-2.93,13.16-3.43,14.61c-1.24,3.64,0.55,6.9,3.03,9.64
					c1.36,1.5,39.62,30.99,40.58,31.69c3.65,2.68,6.54,4.52,9.63,5.41c3.91,1.12,8.14,0.7,14.63-1.51
					c2.61-0.89,23.58-6.09,35.25-10.7c3.98-1.57,6.26-3.69,7.19-4.71c1.13-1.24,1.86-2.81,2.27-4.46c0.25-1.01,0.36-2.05,0.37-3.06
					C120.78,78.26,120.24,72.35,119.45,70.27z M20.64,36.05c4.79-2.02,23.59-4.93,27.74-5.41c3.52-0.41,7.95-0.97,11.44-0.45
					c1.4,0.23,5.93,2.6,10.63,5.79c9.6,6.53,34.92,25.51,36.52,26.99c0.42,0.39,3.91,3.71,2.15,3.69c-1.77-0.02-3.54,0.1-5.3,0.3
					c-3,0.36-20.51,4.53-28.46,6.47c-1.57,0.38-5.83,1.17-7,1.41c-3.33,0.67-6.05-0.38-8.78-2.28
					c-5.67-3.95-40.93-31.13-41.85-33.04C17.07,38.14,18.41,36.99,20.64,36.05z M16.61,64.2c-0.98-0.99-4.84-3.54-3.79-6.78
					c1.14-3.49,2.23-9.13,2.46-12.86c4.35,3.49,44.95,34.48,47.47,35.2c1.58,4.88,1.59,10.38-0.15,15.2
					c-0.24,0.67-0.43,1.33-0.72,1.97c-1.12-0.42-2.21-1-3.38-1.72C56.6,94.05,19.89,67.52,16.61,64.2z M111.24,84.53
					c-3.65,2.6-9.16,3.65-12.76,4.72c-7.73,2.29-15.52,4.38-23.33,6.37c-2.33,0.6-4.67,1.3-7.05,1.69c0.44-0.97,0.81-1.95,1.08-3
					c0.7-2.76,0.83-5.72,0.53-8.54c-0.16-1.45-0.22-4.09-0.56-5.5c0.41-0.03,9.97-2.3,17.52-4.22c7.68-1.95,16.59-4.67,21.95-4.77
					c2.12-0.04,3.68,0.94,4.38,1.52c1.87,1.53,2.3,4.36,1.83,6.61C114.38,81.61,113.03,83.26,111.24,84.53z"/>
			</g>
		</g>
	</g>
	<path style="fill:#BDCF46;" d="M31.28,57.69c5.8,4.46,20.95,16.02,27.91,21.33c2.21,1.69,4.69,3.43,9.73,2.51
		c5.03-0.91,36.47-9.05,36.47-9.05c2.87-0.75,6.05-0.95,8.98-0.56c1.07,0.15,2.11,0.48,3.06,0.98c0.33,0.18,0.69,0.37,0.99,0.6
		c0.16,0.13,0.28,0.3,0.45,0.42c2.32,1.58,0.9-3.14,0.63-3.78c-0.64-1.55-1.52-3.01-2.54-4.34c-0.81-1.05-1.71-2.04-2.69-2.95
		c-10.71-9.88-22.55-18.45-34.35-26.96c-3.03-2.19-6.02-4.46-9.18-6.48c-1.56-1-3.14-1.98-4.8-2.81c-5.5-2.75-11.66-2.47-17.6-1.79
		c-10.81,1.24-21.63,1.85-32.01,5.4c-2.9,0.99-6.39,2.85-7.05,6.35c-0.27,1.41-0.27,3.87,2.22,6.06
		C13.31,44.24,23.64,51.82,31.28,57.69z"/>
</g>
</svg>
