<svg width="128" height="128" style="enable-background:new 0 0 128 128;" xmlns="http://www.w3.org/2000/svg" xmlns:xlink="http://www.w3.org/1999/xlink">
  <g>
    <radialGradient id="SVGID_1_" cx="63.8333" cy="4" gradientUnits="userSpaceOnUse" r="120.211">
      <stop offset="0" style="stop-color:#42A5F5"/>
      <stop offset="0.3522" style="stop-color:#42A5F5"/>
      <stop offset="0.6798" style="stop-color:#2B8BE2"/>
      <stop offset="1" style="stop-color:#1976D2"/>
    </radialGradient>
    <circle cx="64" cy="64" r="60" style="fill:url(#SVGID_1_);"/>
    <g>
      <defs>
        <circle id="SVGID_2_" cx="64" cy="64" r="60"/>
      </defs>
      <clipPath id="SVGID_3_">
        <use style="overflow:visible;" xlink:href="#SVGID_2_"/>
      </clipPath>
      <g style="opacity:0.2;clip-path:url(#SVGID_3_);">
        <path d="M35.66-8.53c0.61,0,1.23,0.16,1.79,0.5l4.17,2.52c3.15,1.9,6.75,2.89,10.39,2.89 c1.11,0,2.22-0.09,3.32-0.28l12.49-2.09c0.21-0.04,0.42-0.05,0.63-0.05c1.93,0,3.61,1.49,3.77,3.48l0.42,5.14 c0.19,2.39-1.46,4.53-3.82,4.94l-1.34,0.24c-3.01,0.53-5.55,2.54-6.76,5.34l0,0c-0.51,1.17-0.25,2.54,0.65,3.45l7.81,7.9 c0.34,0.35,0.81,0.54,1.29,0.54c0.09,0,0.19-0.01,0.28-0.02c0.82-0.13,1.44-0.79,1.52-1.62l0.87-8.97 c0.19-1.96,1.84-3.46,3.81-3.46h0.28c1.48,0,2.83,0.86,3.46,2.2l1.76,3.76c0.3,0.64,0.93,1,1.58,1c0.32,0,0.65-0.09,0.94-0.28 c0.29-0.19,0.62-0.28,0.94-0.28c0.67,0,1.31,0.38,1.6,1.05l4.56,10.52c0.98,2.26-0.07,4.88-2.34,5.83l-3.69,1.55 c-6.27,2.63-11.8,6.73-16.14,11.97l-0.09,0.11c-0.22,0.27-0.33,0.61-0.31,0.95l0.25,3.9c0.05,0.71-0.47,1.34-1.18,1.43 c-0.13,0.02-0.25,0.03-0.38,0.03c-1.23,0-2.34-0.8-2.71-2l-0.01-0.05c-0.38-1.23-1.51-2.05-2.77-2.05 c-0.14,0-0.29,0.01-0.44,0.03l-2.5,0.38c-1.88,0.29-3.48,1.53-4.2,3.29l-0.73,1.77c-0.26,0.62-0.21,1.32,0.12,1.9l0.08,0.13 c0.41,0.71,1.14,1.09,1.88,1.09c0.51,0,1.03-0.18,1.45-0.56c0.4-0.36,0.92-0.56,1.46-0.56c0.04,0,0.08,0,0.12,0l1.54,0.09 c0.9,0.05,1.5,0.95,1.2,1.8l-0.22,0.63c-0.43,1.23,0.48,2.52,1.79,2.52c0.97,0,1.78,0.73,1.88,1.69l0.25,2.29 c0.1,0.87,0.78,1.56,1.65,1.67l0.21,0.03c0.08,0.01,0.16,0.01,0.24,0.01c0.66,0,1.27-0.34,1.62-0.91h0 c0.96-1.59,2.68-2.54,4.51-2.54c0.23,0,0.47,0.02,0.7,0.05l5.07,0.68c2.78,0.37,5.43,1.44,7.69,3.1l3.61,2.66 c1.09,0.8,1.89,1.93,2.3,3.21v0c0.53,1.68,1.73,3.06,3.31,3.82l7.06,3.4c2.07,1,2.87,3.52,1.76,5.53l-4.85,8.8 c-0.55,1-1.51,1.72-2.62,1.97l-2.85,0.64c-1.73,0.39-3.01,1.87-3.15,3.64l-0.03,0.44c-0.14,1.79-0.89,3.47-2.13,4.77 l-14.93,15.66c-1.77,1.85-1.95,4.71-0.44,6.77l1.06,1.45c0.79,1.08-0.01,2.54-1.27,2.54c-0.08,0-0.17-0.01-0.26-0.02l-2.76-0.42 c-1.78-0.27-3.26-1.52-3.84-3.22l-1.18-3.49c-0.6-1.76-0.64-3.66-0.13-5.45l6.23-21.96c0.69-2.41-0.02-5.01-1.82-6.75l-1.3-1.25 c-1.51-1.45-2.55-3.32-2.98-5.36l-1.33-6.22c-0.43-2.01-0.05-4.1,1.05-5.84l0.23-0.36c0.7-1.11,0.1-2.58-1.18-2.87l-0.45-0.1 c-0.44-0.1-0.83-0.35-1.1-0.72l-3.59-4.82c-0.16-0.21-0.37-0.37-0.61-0.46l-8.78-3.29c-2.24-0.84-4.12-2.42-5.33-4.49 l-8.5-14.54c-1.16-1.98-1.82-4.21-1.94-6.5l-0.21-4.26c-0.14-2.87-1.05-5.66-2.62-8.07l-2.17-3.32 c-1.94-2.98-4.54-5.47-7.6-7.29L22.08,14c-1.1-0.65-2.33-0.98-3.55-0.98c-0.23,0-0.45,0.01-0.68,0.03 c-0.6,0.06-1.2,0.09-1.8,0.09c-2.13,0-4.25-0.39-6.2-1.29L2.6,8.52c-0.56-0.26-0.8-1-0.41-1.48c0,0,0.01-0.01,0.01-0.01 l1.84-2.19c0.67-0.8,0.23-2.02-0.79-2.21C2.42,2.48,1.93,1.61,2.23,0.82l0.68-1.79C3.1-1.47,3.57-1.81,4.1-1.84 c1.08-0.07,21.59-0.63,27.16-5.28c0.8-0.66,1.97-0.61,2.9-1.06C34.63-8.41,35.14-8.53,35.66-8.53 M35.66-11.53 c-0.97,0-1.93,0.22-2.8,0.64c-0.1,0.04-0.4,0.12-0.62,0.17c-0.8,0.19-1.89,0.45-2.91,1.29C27.19-7.64,19.52-5.5,4.42-4.86 C4.16-4.85,3.99-4.84,3.91-4.83c-1.7,0.11-3.19,1.2-3.8,2.79l-0.68,1.79C-1.03,0.96-0.94,2.3-0.3,3.43 c0.21,0.38,0.47,0.71,0.77,1.01L-0.1,5.11C-0.1,5.12-0.12,5.14-0.13,5.15C-0.89,6.08-1.17,7.3-0.9,8.49 c0.28,1.21,1.12,2.25,2.25,2.76l7.25,3.33c2.25,1.03,4.76,1.56,7.45,1.56c0.69,0,1.39-0.03,2.1-0.1 c0.13-0.01,0.26-0.02,0.39-0.02c0.71,0,1.41,0.19,2.02,0.56l0.64,0.38c2.65,1.57,4.93,3.77,6.62,6.35l2.17,3.32 c1.28,1.96,2.02,4.24,2.14,6.58l0.21,4.26c0.14,2.76,0.95,5.48,2.34,7.86l8.5,14.54c1.55,2.65,3.99,4.7,6.86,5.78l8.33,3.12 l3.3,4.43c0.49,0.66,1.14,1.18,1.87,1.52c-1.14,2.21-1.48,4.73-0.95,7.2l1.33,6.22c0.56,2.64,1.89,5.03,3.84,6.9l1.3,1.25 c1.01,0.97,1.4,2.42,1.02,3.77l-6.23,21.96c-0.68,2.38-0.61,4.88,0.18,7.23l1.18,3.49c0.94,2.78,3.32,4.78,6.22,5.23l2.76,0.42 c0.24,0.04,0.48,0.05,0.71,0.05c1.73,0,3.3-0.97,4.09-2.52c0.79-1.55,0.64-3.39-0.39-4.79l-1.06-1.45 c-0.66-0.9-0.57-2.13,0.19-2.93l14.93-15.66c1.71-1.79,2.75-4.13,2.95-6.6l0.03-0.44c0.04-0.46,0.37-0.84,0.82-0.95l2.85-0.64 c1.95-0.44,3.62-1.7,4.59-3.45l4.85-8.8c0.92-1.68,1.12-3.68,0.54-5.51c-0.58-1.82-1.9-3.35-3.63-4.18l-7.06-3.4 c-0.84-0.4-1.47-1.14-1.75-2.02c-0.6-1.91-1.77-3.54-3.38-4.73l-3.61-2.66c-2.66-1.96-5.8-3.22-9.07-3.66l-5.07-0.68 c-0.36-0.05-0.73-0.07-1.1-0.07c-2.04,0-4,0.77-5.5,2.1c-0.23-1.98-1.61-3.56-3.43-4.12c0.22-1.12-0.01-2.26-0.66-3.23 c-0.77-1.15-2-1.85-3.38-1.93l-1.54-0.09c-0.1-0.01-0.2-0.01-0.29-0.01c-0.48,0-0.95,0.07-1.4,0.19 c0.35-0.68,1.02-1.17,1.79-1.28l2.42-0.37c0.77,2.44,3,4.08,5.57,4.08c0.26,0,0.52-0.02,0.77-0.05c2.26-0.3,3.92-2.32,3.77-4.6 l-0.21-3.24c3.96-4.66,9.02-8.36,14.66-10.73l3.69-1.55c1.84-0.77,3.27-2.22,4.01-4.07c0.74-1.85,0.72-3.88-0.08-5.72 l-4.56-10.52c-0.75-1.73-2.46-2.85-4.35-2.85c-0.43,0-0.85,0.06-1.26,0.17l-1.24-2.65c-1.12-2.39-3.54-3.93-6.18-3.93h-0.28 c-3.53,0-6.45,2.65-6.79,6.17l-0.62,6.45l-6.02-6.1c-0.04-0.04-0.05-0.1-0.03-0.15c0.82-1.88,2.51-3.22,4.53-3.58l1.34-0.24 c3.9-0.69,6.61-4.19,6.29-8.14L75.21-1.8c-0.28-3.5-3.25-6.24-6.76-6.24c-0.38,0-0.76,0.03-1.13,0.09L54.83-5.85 c-0.93,0.16-1.88,0.24-2.83,0.24c-3.12,0-6.17-0.85-8.84-2.46L39-10.6C37.99-11.2,36.84-11.53,35.66-11.53L35.66-11.53z" style="fill:#424242;"/>
        <path d="M75.46,57.28c0.61,0,1.21,0.09,1.8,0.26c2.19,0.65,6.06,1.79,7.92,2.34 c0.52,0.15,0.75,0.77,0.45,1.23l-0.46,0.68c-0.24,0.37-0.65,0.58-1.08,0.58c-0.07,0-0.14-0.01-0.2-0.02l-8.14-1.29 c-0.38-0.06-0.76-0.09-1.13-0.09c-0.36,0-0.72,0.03-1.08,0.08l-1.48,0.22c-0.2,0.03-0.41,0.05-0.61,0.05 c-1.09,0-2.14-0.44-2.91-1.23l-0.33-0.34c-0.31-0.32-0.16-0.85,0.27-0.95c1.36-0.34,3.84-0.95,5.51-1.35 C74.47,57.34,74.97,57.28,75.46,57.28 M75.46,54.28c-0.74,0-1.47,0.09-2.19,0.26c-1.67,0.4-4.17,1.02-5.53,1.35 c-1.24,0.31-2.23,1.26-2.58,2.49c-0.35,1.23-0.01,2.56,0.88,3.47l0.33,0.34c1.32,1.36,3.17,2.13,5.06,2.13 c0.35,0,0.71-0.03,1.05-0.08l1.48-0.22c0.21-0.03,0.42-0.05,0.63-0.05c0.22,0,0.45,0.02,0.67,0.05l8.14,1.29 c0.22,0.04,0.45,0.05,0.67,0.05c1.44,0,2.78-0.72,3.58-1.92l0.46-0.68c0.67-1,0.82-2.28,0.41-3.41 c-0.41-1.13-1.35-2.01-2.5-2.36l-5.5-1.62l-2.42-0.71C77.25,54.41,76.36,54.28,75.46,54.28L75.46,54.28z" style="fill:#424242;"/>
        <path d="M89.53,60.91c0.07,0,0.14,0.01,0.21,0.02c2.14,0.35,6.7,2.89,5.78,3.68 c-0.24,0.21-0.54,0.31-0.85,0.31c-0.11,0-0.23-0.01-0.34-0.04l-6.62-1.77c-0.14-0.04-0.2-0.2-0.12-0.32l0.85-1.3 C88.69,61.13,89.1,60.91,89.53,60.91 M89.53,57.91c-1.45,0-2.8,0.73-3.59,1.94l-0.85,1.3c-0.56,0.86-0.68,1.94-0.31,2.9 c0.37,0.96,1.18,1.69,2.17,1.95l6.62,1.77c0.36,0.1,0.74,0.15,1.11,0.15c1.03,0,2.02-0.37,2.8-1.04c1-0.86,1.4-2.18,1.04-3.46 c-0.84-3-6.58-5.18-8.28-5.46C90,57.93,89.77,57.91,89.53,57.91L89.53,57.91z" style="fill:#424242;"/>
      </g>
      <g style="clip-path:url(#SVGID_3_);">
        <radialGradient id="SVGID_4_" cx="64" cy="4.3333" gradientUnits="userSpaceOnUse" r="120.037">
          <stop offset="0" style="stop-color:#AEEA00"/>
          <stop offset="0.2373" style="stop-color:#ADE903"/>
          <stop offset="0.3915" style="stop-color:#A9E40B"/>
          <stop offset="0.522" style="stop-color:#A2DC1A"/>
          <stop offset="0.6386" style="stop-color:#98D12F"/>
          <stop offset="0.7459" style="stop-color:#8BC34A"/>
          <stop offset="1" style="stop-color:#8BC34A"/>
        </radialGradient>
        <path d="M91.68,72.8l-3.61-2.66c-2.26-1.66-4.9-2.73-7.69-3.1l-5.07-0.68 c-2.08-0.28-4.12,0.7-5.21,2.5l0,0c-0.39,0.64-1.11,0.99-1.86,0.9l-0.21-0.03c-0.87-0.11-1.55-0.8-1.65-1.67l-0.25-2.29 c-0.11-0.96-0.92-1.69-1.88-1.69h0c-1.31,0-2.22-1.29-1.79-2.52l0.22-0.63c0.3-0.85-0.3-1.75-1.2-1.8l-1.54-0.09 c-0.58-0.03-1.15,0.17-1.58,0.56l0,0c-1.02,0.93-2.65,0.67-3.33-0.53l-0.08-0.13c-0.33-0.58-0.38-1.28-0.12-1.9l0.73-1.77 c0.73-1.76,2.32-3.01,4.2-3.29l2.5-0.38c1.42-0.21,2.78,0.64,3.2,2.01l0.01,0.05c0.41,1.33,1.71,2.16,3.09,1.98l0,0 c0.71-0.09,1.22-0.72,1.18-1.43l-0.25-3.9c-0.02-0.35,0.09-0.69,0.31-0.95l0.09-0.11c4.34-5.23,9.87-9.34,16.14-11.97l3.69-1.55 c2.27-0.95,3.32-3.57,2.34-5.83L87.5,19.38c-0.43-0.98-1.64-1.35-2.54-0.77v0c-0.89,0.57-2.07,0.23-2.52-0.73l-1.76-3.76 c-0.63-1.34-1.98-2.2-3.46-2.2h-0.28c-1.97,0-3.62,1.5-3.81,3.46l-0.87,8.97c-0.08,0.82-0.71,1.49-1.52,1.62l0,0 c-0.58,0.09-1.16-0.1-1.57-0.52l-7.81-7.9c-0.9-0.91-1.15-2.28-0.65-3.45l0,0c1.22-2.8,3.76-4.81,6.76-5.34l1.34-0.24 c2.36-0.42,4.01-2.56,3.82-4.94l-0.42-5.14c-0.18-2.21-2.21-3.8-4.4-3.43L55.33-2.89c-4.74,0.79-9.6-0.14-13.71-2.62l-4.17-2.52 c-1.02-0.62-2.26-0.65-3.29-0.16c-0.93,0.45-2.1,0.4-2.9,1.06C25.68-2.47,5.18-1.91,4.1-1.84l0,0C3.57-1.81,3.1-1.47,2.91-0.97 L2.23,0.82c-0.3,0.79,0.19,1.66,1.02,1.82l0,0c1.02,0.19,1.46,1.41,0.79,2.21L2.2,7.04c0,0-0.01,0.01-0.01,0.01 C1.8,7.53,2.04,8.27,2.6,8.52l7.25,3.33c2.5,1.15,5.26,1.46,8,1.2c1.45-0.14,2.93,0.17,4.23,0.94l0.64,0.38 c3.06,1.82,5.65,4.31,7.6,7.29l2.17,3.32c1.57,2.41,2.48,5.19,2.62,8.07l0.21,4.26c0.11,2.29,0.78,4.52,1.94,6.5l8.5,14.54 c1.21,2.06,3.09,3.65,5.33,4.49l8.78,3.29c0.24,0.09,0.46,0.25,0.61,0.46l3.59,4.82c0.27,0.36,0.66,0.62,1.1,0.72l0.45,0.1 c1.28,0.29,1.89,1.76,1.18,2.87l-0.23,0.36c-1.1,1.73-1.48,3.83-1.05,5.84l1.33,6.22c0.44,2.05,1.48,3.91,2.98,5.36l1.3,1.25 c1.81,1.74,2.51,4.33,1.82,6.75l-6.23,21.96c-0.51,1.79-0.46,3.69,0.13,5.45l1.18,3.49c0.58,1.71,2.06,2.95,3.84,3.22l2.76,0.42 c1.41,0.22,2.37-1.37,1.53-2.52l-1.06-1.45c-1.51-2.07-1.33-4.92,0.44-6.77l14.93-15.66c1.24-1.3,1.99-2.98,2.13-4.77l0.03-0.44 c0.14-1.77,1.42-3.25,3.15-3.64l2.85-0.64c1.12-0.25,2.07-0.97,2.62-1.97l4.85-8.8c1.11-2.01,0.3-4.54-1.76-5.53l-7.06-3.4 c-1.58-0.76-2.78-2.15-3.31-3.82v0C93.57,74.72,92.77,73.6,91.68,72.8z" style="fill:url(#SVGID_4_);"/>
        <radialGradient id="SVGID_5_" cx="64" cy="4.3333" gradientUnits="userSpaceOnUse" r="120.037">
          <stop offset="0" style="stop-color:#AEEA00"/>
          <stop offset="0.2373" style="stop-color:#ADE903"/>
          <stop offset="0.3915" style="stop-color:#A9E40B"/>
          <stop offset="0.522" style="stop-color:#A2DC1A"/>
          <stop offset="0.6386" style="stop-color:#98D12F"/>
          <stop offset="0.7459" style="stop-color:#8BC34A"/>
          <stop offset="1" style="stop-color:#8BC34A"/>
        </radialGradient>
        <path d="M73.98,57.46c-1.67,0.4-4.15,1.01-5.51,1.35c-0.43,0.11-0.58,0.64-0.27,0.95l0.33,0.34 c0.91,0.94,2.22,1.38,3.52,1.18l1.48-0.22c0.73-0.11,1.48-0.11,2.22,0.01l8.14,1.29c0.5,0.08,1-0.14,1.29-0.56l0.46-0.68 c0.3-0.46,0.08-1.07-0.45-1.23c-1.86-0.55-5.73-1.69-7.92-2.34C76.2,57.23,75.07,57.2,73.98,57.46z" style="fill:url(#SVGID_5_);"/>
        <radialGradient id="SVGID_6_" cx="64" cy="4.3333" gradientUnits="userSpaceOnUse" r="120.037">
          <stop offset="0" style="stop-color:#AEEA00"/>
          <stop offset="0.2373" style="stop-color:#ADE903"/>
          <stop offset="0.3915" style="stop-color:#A9E40B"/>
          <stop offset="0.522" style="stop-color:#A2DC1A"/>
          <stop offset="0.6386" style="stop-color:#98D12F"/>
          <stop offset="0.7459" style="stop-color:#8BC34A"/>
          <stop offset="1" style="stop-color:#8BC34A"/>
        </radialGradient>
        <path d="M88.45,61.5l-0.85,1.3c-0.08,0.12-0.02,0.28,0.12,0.32l6.62,1.77 c0.42,0.11,0.86,0.01,1.18-0.27c0.93-0.8-3.64-3.33-5.78-3.68C89.24,60.85,88.73,61.07,88.45,61.5z" style="fill:url(#SVGID_6_);"/>
      </g>
    </g>
    <g style="opacity:0.2;">
      <path d="M64,7c31.43,0,57,25.57,57,57s-25.57,57-57,57S7,95.43,7,64S32.57,7,64,7 M64,4 C30.86,4,4,30.86,4,64s26.86,60,60,60s60-26.86,60-60S97.14,4,64,4L64,4z" style="fill:#424242;"/>
    </g>
  </g>
</svg>