<?xml version="1.0" encoding="utf-8"?>
<!-- Generator: Adobe Illustrator 19.2.1, SVG Export Plug-In . SVG Version: 6.00 Build 0)  -->
<svg version="1.1" id="レイヤー_1" xmlns="http://www.w3.org/2000/svg" xmlns:xlink="http://www.w3.org/1999/xlink" x="0px"
	 y="0px" viewBox="0 0 128 128" style="enable-background:new 0 0 128 128;" xml:space="preserve">
<g>
	<path style="fill:#ED6C30;" d="M55.01,35.34c0-6.77,2.02-12.25,8.42-12.25c6.39,0,8.42,5.48,8.42,12.25H55.01z"/>
	<path style="fill:#2F2F2F;" d="M71.06,37.98H55.81c-1.59,0-2.88,1.29-2.88,2.87v5.46c0,1.59,1.28,2.88,2.88,2.88h15.26
		c1.58,0,2.87-1.29,2.87-2.88v-5.46C73.93,39.27,72.64,37.98,71.06,37.98z"/>
	<g>
		<g>
			<g>
				<g>
					<path style="fill:#ED6C30;" d="M49.4,28.01l-12.97-5.95c-0.42-0.19-0.92-0.18-1.33,0.05c-0.41,0.22-0.69,0.64-0.76,1.1
						l-1.13,8.14c-0.07,0.46,0.09,0.93,0.43,1.26c0.28,0.28,0.66,0.43,1.05,0.43c0.08,0,0.15-0.01,0.23-0.02L49,30.84
						c0.66-0.1,1.16-0.61,1.25-1.27C50.34,28.92,49.99,28.29,49.4,28.01z"/>
					<path style="fill:#ED6C30;" d="M92.53,23.22c-0.06-0.46-0.34-0.88-0.75-1.1c-0.41-0.23-0.91-0.25-1.34-0.05l-12.97,5.95
						c-0.6,0.27-0.94,0.9-0.85,1.55c0.09,0.65,0.59,1.16,1.24,1.27l14.09,2.19c0.08,0.01,0.15,0.02,0.23,0.02
						c0.38,0,0.76-0.15,1.04-0.43c0.33-0.33,0.49-0.8,0.43-1.26L92.53,23.22z"/>
				</g>
			</g>
		</g>
	</g>
	<path style="fill:#2F2F2F;" d="M122.02,78.06c-4.68-4.68-12-6.13-12-6.13s-3.83-9.95-7.05-14.28
		c-8.79-11.8-19.78-14.43-37.59-14.43c-12.31,0-24.53,0.46-34.54,13.07c-3.83,4.83-10.11,15.64-10.11,15.64S9.64,73.08,4.58,78.71
		C0.7,83.04-1.13,98.69,4,103.81c4.33,4.33,9.01,6.62,12.4,6.99c0-0.39,0.02-0.77,0.06-1.15c0.11-1.17,0.37-2.3,0.76-3.37
		c1.88-5.18,6.84-8.9,12.67-8.9c5.82,0,10.78,3.72,12.66,8.91c0.52,1.43,0.82,2.97,0.82,4.58h41.29c0-1.61,0.3-3.15,0.82-4.58
		c1.88-5.19,6.84-8.91,12.67-8.91c5.82,0,10.78,3.72,12.66,8.91c0.51,1.42,0.81,2.96,0.81,4.56c0,0,0,0.02,0,0.02h0.84
		c5.17,0,9.52-2.6,12.24-6.95C129.38,96.43,126.7,82.74,122.02,78.06z"/>
	<path style="fill:#FFFFFF;" d="M6.15,86.52c0.46-2.15,1.11-3.92,1.84-4.75c3.15-3.51,10.62-5.02,13.22-5.29
		c1.45-0.15,2.75-0.99,3.49-2.25c0.06-0.11,6.15-10.58,9.74-15.1c8.35-10.53,18.09-11.34,30.94-11.34
		c18.58,0,26.81,3.06,33.92,12.59c2.33,3.13,5.44,10.58,6.44,13.19c0.56,1.46,1.84,2.53,3.36,2.84c0.06,0.02,6.07,1.29,9.67,4.89
		c1.04,1.04,1.98,2.94,2.66,5.22H6.15z"/>
	<path style="fill:#2F2F2F;" d="M29.88,100.82c-3.9,0-7.24,2.24-8.9,5.47c-0.66,1.26-1.05,2.67-1.11,4.17
		c0,0.14-0.04,0.27-0.04,0.41c0,5.55,4.5,10.05,10.06,10.05c5.54,0,10.04-4.5,10.04-10.05c0-1.66-0.44-3.2-1.15-4.58
		C37.1,103.06,33.77,100.82,29.88,100.82z"/>
	<path style="fill:#2F2F2F;" d="M98.15,100.82c-3.9,0-7.23,2.24-8.9,5.47c-0.72,1.38-1.16,2.92-1.16,4.58
		c0,5.55,4.5,10.05,10.06,10.05c5.54,0,10.05-4.5,10.05-10.05c0-1.66-0.44-3.2-1.15-4.58C105.38,103.06,102.04,100.82,98.15,100.82z
		"/>
	<path style="fill:#40C0E7;" d="M56.7,53.68c-1.15-0.29-9.44,0.18-14.82,6.1c-5.39,5.91-8.37,14.25-2.85,14.25h15.95
		c2.24,0,4.08-0.95,4.08-3.8V58.49C59.05,56.27,58.89,54.23,56.7,53.68z"/>
	<path style="fill:#40C0E7;" d="M88.09,56.94c-5.76-3.89-19.13-3.55-20.79-3.26c-3.18,0.55-3.42,2.58-3.42,4.81v11.74
		c0,2.85,2.66,3.8,5.91,3.8h23.06C100.83,74.03,96.21,62.41,88.09,56.94z"/>
</g>
</svg>
