<svg xmlns="http://www.w3.org/2000/svg" viewBox="0 0 128 128"><g fill="#464646"><path d="M110.44 107.57c-1.87 1.48-2.56 4.48-1.08 6.35 2.28 2.9 4.66 5.85 7.01 6.68 1.85.65 3.49.24 4.13-.26l-10.06-12.77z"/><path d="M110.44 107.57c1.87-1.48 4.95-1.44 6.43.44 2.28 2.9 4.6 5.9 4.85 8.37.2 1.95-.58 3.45-1.22 3.96l-10.06-12.77z"/></g><circle cx="105.39" cy="101.14" r="4.64" fill="#fac01b"/><path fill="#fac01b" d="M102.2 82.25l-10.42 4.73 9.44 16.19 8.41-3.93z"/><path fill="#fac01b" d="M117.57 111.57l-8.34-13.26-7.39 5.84 10.83 11.19zM92.25 125.58h-8.29l-3.6-43.4h10.69z"/><path d="M93.35 125.93h-10.8v-1.85c0-2.21 1.79-4 4-4h2.8c2.21 0 4 1.79 4 4v1.85z" fill="#464646"/><ellipse transform="rotate(-82.501 67.162 74.013)" cx="67.16" cy="74.01" rx="3.14" ry="3.14" fill="#fac01b"/><path d="M75.01 59.85c-3.88 4-8.27 9.76-10.19 12.03l4.71 4.14 1.19-1.22c2.27-2.44 9.35-8.62 9.35-8.62s-4.57-6.83-5.06-6.33z" fill="#fac01b"/><path d="M79.21 81.6l-6.37-6.48c-1.2-1.24-2.32-2.55-3.38-3.91l-4.63 4.91c3.96 4.02 6.75 6.69 10.18 9.69a2.97 2.97 0 0 0 4.39-.23c.97-1.17.89-2.89-.19-3.98z" fill="#fac01b"/><ellipse transform="rotate(-7.499 116.693 74.005)" cx="116.7" cy="74.01" rx="3.14" ry="3.14" fill="#fac01b"/><path d="M108.84 59.85c3.88 4 8.27 9.76 10.19 12.03l-4.71 4.14-1.19-1.22c-2.27-2.44-9.35-8.62-9.35-8.62s4.58-6.83 5.06-6.33z" fill="#fac01b"/><path d="M91.93 55.59c3.15 0 7.08.49 9.21.92 3.06.62 6.26 1.87 7.71 3.34.59.6 1.45 1.54 2.12 2.3l-7.01 7.28-12.03 4.58V55.59z" fill="#464646"/><path d="M91.95 55.59c-3.15 0-7.08.49-9.21.92-3.06.62-6.26 1.87-7.71 3.34-.59.6-1.45 1.54-2.12 2.3l7.01 7.28 12.03 4.58V55.59z" fill="#464646"/><path d="M104.65 81.6l6.37-6.48c1.2-1.24 2.32-2.55 3.38-3.91l4.63 4.91c-3.96 4.02-6.75 6.69-10.18 9.69a2.97 2.97 0 0 1-4.39-.23c-.97-1.17-.89-2.89.19-3.98z" fill="#fac01b"/><path fill="#464646" d="M88.99 60.85h4.78v14.19h-4.78z"/><path fill="#464646" d="M91.93 84.54H79.9V66.53h12.03z"/><path fill="#464646" d="M103.902 84.54h-14.91V66.53h14.91z"/><path d="M91.78 64.04c4.09 0 7.41-2.76 7.41-6.16 0-.2-.01-.41-.04-.6-.33-.13-.67-.25-1.05-.37-1.44-.44-4.17-.72-6.33-.72s-4.88.28-6.33.72c-.38.11-.72.24-1.05.37-.02.2-.04.4-.04.6.02 3.4 3.34 6.16 7.43 6.16z" fill="#fac01b"/><circle cx="114.91" cy="113.19" r="3.11" fill="#fac01b"/><path d="M103.9 84.54h-24l7.56 5.66c.46.43 3.53 2.51 5.38 2.51h.04c2.12 0 3.93-1.88 4.39-2.31l6.63-5.86z" fill="#464646"/><path d="M91.79 62.25c-2.6 0-4.71-2.11-4.71-4.71v-4.03h9.42v4.03c0 2.61-2.11 4.71-4.71 4.71z" fill="#e49800"/><g fill="#e49500"><path d="M106.1 37.53s2.6.45 2.6 3.25c0 2.47-1.9 3.44-3.79 3.44v-6.69h1.19zM77.76 37.53s-2.6.45-2.6 3.25c0 2.47 1.9 3.44 3.79 3.44v-6.69h-1.19z"/></g><path d="M91.93 19.21c-11.2 0-14.13 8.68-14.13 20.88C77.8 52.73 85.93 56 91.93 56c5.91 0 14.13-3.18 14.13-15.92 0-12.19-2.93-20.87-14.13-20.87z" fill="#fbc11b"/><path d="M87.28 41.22c0 1.26-.84 2.28-1.89 2.28-1.04 0-1.89-1.02-1.89-2.28 0-1.26.85-2.28 1.89-2.28 1.04-.01 1.89 1.01 1.89 2.28M96.58 41.22c0 1.26.84 2.28 1.89 2.28 1.04 0 1.89-1.02 1.89-2.28 0-1.26-.85-2.28-1.89-2.28-1.05-.01-1.89 1.01-1.89 2.28" fill="#444"/><path d="M96.02 48.92h-4.09-4.09c-.47 0-.67.32-.36.79.43.66 2.04 1.93 4.45 1.93s4.01-1.27 4.45-1.93c.31-.47.11-.79-.36-.79z" fill="#513f35"/><path d="M93.9 45.44c-.7.2-1.42.29-1.98.29s-1.28-.1-1.98-.29c-.3-.08-.41.2-.31.39.22.39 1.11 1.17 2.28 1.17 1.17 0 2.06-.78 2.28-1.17.13-.19.01-.47-.29-.39z" fill="#e49500"/><path d="M92.27 17.61s-.22-.01-.31-.01-.31.01-.31.01c-12.08.23-15.73 7.5-15.73 12.55v8.5s.19-.2.55-.48c.38-.29.8-.46.8-.46l.61 4.09 4.03-8.41c.02-.05.08-.08.14-.08l2.39.27c2.4.27 4.81.4 7.22.4V34h.62v-.01c2.41-.01 4.82-.14 7.22-.4l2.39-.27c.06-.01.11.02.14.08l4.03 8.41.61-4.09s.42.17.8.46c.36.28.55.48.55.48v-8.5c-.03-5.04-3.67-12.31-15.75-12.55z" fill="#6d4c41"/><g><path d="M88.46 11.98c0 5.47-3.01 9.91-4.47 9.91-1.66 0-4.47-4.44-4.47-9.91 0-5.18 2.8-9.91 4.47-9.91 1.59 0 4.47 5.05 4.47 9.91z" fill="#2f2f2f"/><path d="M83.99 6.84s-4.68 4.88 0 10.44c4.68-5.56 0-10.44 0-10.44z" fill="#ff7ce5"/><path d="M95.39 11.98c0 5.47 3.01 9.91 4.47 9.91 1.66 0 4.47-4.44 4.47-9.91 0-5.18-2.8-9.91-4.47-9.91-1.58 0-4.47 5.05-4.47 9.91z" fill="#2f2f2f"/><path d="M99.86 6.84s4.68 4.88 0 10.44c-4.67-5.56 0-10.44 0-10.44z" fill="#ff7ce5"/><path d="M105.22 25.82c-1.52-1.94-5.46-6.67-13.29-6.54-7.83-.13-11.77 4.6-13.29 6.54-.2.26.11.61.39.44 5.49-3.23 7.35-3.9 12.9-4.1 5.54.2 7.41.87 12.9 4.1.28.16.6-.18.39-.44z" fill="#2f2f2f"/></g><path fill="#464646" d="M102.86 85.03l1.04-.49-.52-.34-23.02-.36-.46.7.84.49z"/><g><g fill="#464646"><path d="M53.97 107.57c-1.87 1.48-2.56 4.48-1.08 6.35 2.28 2.9 4.66 5.85 7.01 6.68 1.85.65 3.49.24 4.13-.26l-10.06-12.77z"/><path d="M53.97 107.57c1.87-1.48 4.95-1.44 6.43.44 2.28 2.9 4.6 5.9 4.85 8.37.2 1.95-.58 3.45-1.22 3.96l-10.06-12.77z"/></g><circle cx="48.92" cy="101.14" r="4.64" fill="#fac01b"/><path fill="#fac01b" d="M45.73 82.25l-10.42 4.73 9.44 16.19 8.41-3.93z"/><path fill="#fac01b" d="M61.1 111.57l-8.34-13.26-7.39 5.84 10.83 11.19zM35.78 125.58h-8.29l-3.6-43.4h10.69z"/><path d="M36.88 125.93h-10.8v-1.85c0-2.21 1.79-4 4-4h2.8c2.21 0 4 1.79 4 4v1.85z" fill="#464646"/><ellipse transform="rotate(-82.501 10.69 74.013)" cx="10.69" cy="74.01" rx="3.14" ry="3.14" fill="#fac01b"/><path d="M18.55 59.85c-3.88 4-8.27 9.76-10.19 12.03l4.71 4.14 1.19-1.22c2.27-2.44 9.35-8.62 9.35-8.62s-4.58-6.83-5.06-6.33z" fill="#fac01b"/><path d="M22.74 81.6l-6.37-6.48c-1.2-1.24-2.32-2.55-3.38-3.91l-4.63 4.91c3.96 4.02 6.75 6.69 10.18 9.69a2.97 2.97 0 0 0 4.39-.23c.97-1.17.89-2.89-.19-3.98z" fill="#fac01b"/><ellipse transform="rotate(-7.499 60.227 74.004)" cx="60.23" cy="74.01" rx="3.14" ry="3.14" fill="#fac01b"/><path d="M52.37 59.85c3.88 4 8.27 9.76 10.19 12.03l-4.71 4.14-1.19-1.22c-2.27-2.44-9.35-8.62-9.35-8.62s4.58-6.83 5.06-6.33z" fill="#fac01b"/><path d="M35.46 55.59c3.15 0 7.08.49 9.21.92 3.06.62 6.26 1.87 7.71 3.34.59.6 1.45 1.54 2.12 2.3l-7.01 7.28-12.03 4.58V55.59z" fill="#464646"/><path d="M35.48 55.59c-3.15 0-7.08.49-9.21.92-3.06.62-6.26 1.87-7.71 3.34-.59.6-1.45 1.54-2.12 2.3l7.01 7.28 12.03 4.58V55.59z" fill="#464646"/><path d="M48.18 81.6l6.37-6.48c1.2-1.24 2.32-2.55 3.38-3.91l4.63 4.91c-3.96 4.02-6.75 6.69-10.18 9.69a2.97 2.97 0 0 1-4.39-.23c-.97-1.17-.89-2.89.19-3.98z" fill="#fac01b"/><path fill="#464646" d="M32.52 60.85h4.78v14.19h-4.78z"/><path fill="#464646" d="M35.46 84.54H23.43V66.53h12.03z"/><path fill="#464646" d="M47.433 84.54h-14.91V66.53h14.91z"/><path d="M35.31 64.04c4.09 0 7.41-2.76 7.41-6.16 0-.2-.01-.41-.04-.6-.33-.13-.67-.25-1.05-.37-1.44-.44-4.17-.72-6.33-.72s-4.88.28-6.33.72c-.38.11-.72.24-1.05.37-.02.2-.04.4-.04.6.02 3.4 3.34 6.16 7.43 6.16z" fill="#fac01b"/><circle cx="58.45" cy="113.19" r="3.11" fill="#fac01b"/><path d="M47.43 84.54h-24l7.56 5.66c.46.43 3.53 2.51 5.38 2.51h.04c2.12 0 3.93-1.88 4.39-2.31l6.63-5.86z" fill="#464646"/><path d="M35.32 62.25c-2.6 0-4.71-2.11-4.71-4.71v-4.03h9.42v4.03c0 2.61-2.11 4.71-4.71 4.71z" fill="#e49800"/><g fill="#e49500"><path d="M49.63 37.53s2.6.45 2.6 3.25c0 2.47-1.9 3.44-3.79 3.44v-6.69h1.19zM21.29 37.53s-2.6.45-2.6 3.25c0 2.47 1.9 3.44 3.79 3.44v-6.69h-1.19z"/></g><path d="M35.46 19.21c-11.2 0-14.13 8.68-14.13 20.88C21.33 52.73 29.46 56 35.46 56c5.91 0 14.13-3.18 14.13-15.92 0-12.19-2.93-20.87-14.13-20.87z" fill="#fbc11b"/><path d="M30.81 41.22c0 1.26-.84 2.28-1.89 2.28-1.04 0-1.89-1.02-1.89-2.28 0-1.26.85-2.28 1.89-2.28 1.04-.01 1.89 1.01 1.89 2.28M40.11 41.22c0 1.26.84 2.28 1.89 2.28 1.04 0 1.89-1.02 1.89-2.28 0-1.26-.85-2.28-1.89-2.28-1.05-.01-1.89 1.01-1.89 2.28" fill="#444"/><path d="M39.55 48.92h-4.09-4.09c-.47 0-.67.32-.36.79.43.66 2.04 1.93 4.45 1.93 2.4 0 4.01-1.27 4.45-1.93.31-.47.11-.79-.36-.79z" fill="#513f35"/><path d="M37.44 45.44c-.7.2-1.42.29-1.98.29s-1.28-.1-1.98-.29c-.3-.08-.41.2-.31.39.23.39 1.12 1.17 2.29 1.17s2.06-.78 2.28-1.17c.11-.19-.01-.47-.3-.39z" fill="#e49500"/><path d="M35.8 17.61s-.22-.01-.31-.01-.31.01-.31.01c-12.08.23-15.73 7.5-15.73 12.55v8.5s.19-.2.55-.48c.38-.29.8-.46.8-.46l.61 4.09 4.03-8.41c.02-.05.08-.08.14-.08l2.39.27c2.4.27 4.81.4 7.22.4V34h.62v-.01c2.41-.01 4.82-.14 7.22-.4l2.39-.27c.06-.01.11.02.14.08l4.03 8.41.61-4.09s.42.17.8.46c.36.28.55.48.55.48v-8.5c-.02-5.04-3.67-12.31-15.75-12.55z" fill="#6d4c41"/><g><path d="M32 11.98c0 5.47-3.01 9.91-4.47 9.91-1.66 0-4.47-4.44-4.47-9.91 0-5.18 2.8-9.91 4.47-9.91 1.58 0 4.47 5.05 4.47 9.91z" fill="#2f2f2f"/><path d="M27.52 6.84s-4.68 4.88 0 10.44c4.68-5.56 0-10.44 0-10.44z" fill="#ff7ce5"/><path d="M38.92 11.98c0 5.47 3.01 9.91 4.47 9.91 1.66 0 4.47-4.44 4.47-9.91 0-5.18-2.8-9.91-4.47-9.91-1.58 0-4.47 5.05-4.47 9.91z" fill="#2f2f2f"/><path d="M43.39 6.84s4.68 4.88 0 10.44c-4.67-5.56 0-10.44 0-10.44z" fill="#ff7ce5"/><path d="M48.75 25.82c-1.52-1.94-5.46-6.67-13.29-6.54-7.83-.13-11.77 4.6-13.29 6.54-.2.26.11.61.39.44 5.49-3.23 7.35-3.9 12.9-4.1 5.54.2 7.41.87 12.9 4.1.28.16.6-.18.39-.44z" fill="#2f2f2f"/></g><path fill="#464646" d="M46.4 85.03l1.03-.49-.52-.34-23.02-.36-.46.7.84.49z"/></g></svg>