<svg width="128" height="128" style="enable-background:new 0 0 128 128;" xmlns="http://www.w3.org/2000/svg" xmlns:xlink="http://www.w3.org/1999/xlink">
  <g>
    <g>
      <linearGradient id="SVGID_1_" gradientUnits="userSpaceOnUse" x1="77.996" x2="77.996" y1="3.708" y2="122.6355">
        <stop offset="0" style="stop-color:#FF5252"/>
        <stop offset="0.2061" style="stop-color:#FD4D4D"/>
        <stop offset="0.4365" style="stop-color:#F64040"/>
        <stop offset="0.6787" style="stop-color:#EA2A2A"/>
        <stop offset="0.9274" style="stop-color:#DA0B0B"/>
        <stop offset="1" style="stop-color:#D50000"/>
      </linearGradient>
      <circle cx="78" cy="112" r="12" style="fill:url(#SVGID_1_);"/>
      <linearGradient id="SVGID_2_" gradientUnits="userSpaceOnUse" x1="79.4497" x2="79.4497" y1="3.708" y2="122.6355">
        <stop offset="0" style="stop-color:#FF5252"/>
        <stop offset="0.2061" style="stop-color:#FD4D4D"/>
        <stop offset="0.4365" style="stop-color:#F64040"/>
        <stop offset="0.6787" style="stop-color:#EA2A2A"/>
        <stop offset="0.9274" style="stop-color:#DA0B0B"/>
        <stop offset="1" style="stop-color:#D50000"/>
      </linearGradient>
      <path d="M72.14,88.57c-2.3,0-4.12-1.94-4-4.23c0.29-5.21,1.14-9.5,2.55-12.88 c1.77-4.25,5.28-8.92,10.52-14c5.24-5.08,8.56-8.7,9.96-10.85c2.15-3.27,3.22-6.81,3.22-10.63c0-5.04-1.25-8.89-3.75-11.55 c-2.5-2.66-6.17-3.98-11-3.98c-4.62,0-8.34,1.3-11.17,3.9c-2.11,1.95-3.44,4.41-3.97,7.39c-0.33,1.86-2.02,3.17-3.91,3.17H48.92 c-2.38,0-4.27-2.07-3.98-4.43c0.93-7.46,4.07-13.51,9.42-18.16C60.74,6.77,69.16,4,79.64,4c10.8,0,19.23,2.74,25.27,8.23 c6.05,5.49,9.07,13.15,9.07,23c0,8.77-4.09,17.4-12.25,25.9l-9.77,9.62c-0.1,0.1-0.2,0.2-0.29,0.31 c-2.89,3.37-4.61,8.01-5.16,13.92c-0.19,2.04-1.92,3.6-3.97,3.6H72.14z" style="fill:url(#SVGID_2_);"/>
    </g>
    <g style="opacity:0.2;">
      <path d="M78,103.01c4.96,0,9,4.04,9,9c0,4.96-4.04,9-9,9c-4.96,0-9-4.04-9-9 C69,107.04,73.04,103.01,78,103.01 M78,100.01c-6.63,0-12,5.37-12,12s5.37,12,12,12s12-5.37,12-12S84.62,100.01,78,100.01 L78,100.01z" style="fill:#424242;"/>
      <path d="M79.64,7c9.98,0,17.81,2.51,23.26,7.45c5.44,4.94,8.09,11.73,8.09,20.78 c0,7.92-3.83,15.92-11.39,23.79l-9.74,9.59c-0.16,0.16-0.31,0.32-0.46,0.49c-3.29,3.84-5.27,9.08-5.87,15.59 c-0.05,0.49-0.48,0.88-0.99,0.88h-10.4c-0.37,0-0.62-0.2-0.73-0.31c-0.11-0.12-0.3-0.37-0.28-0.75 c0.27-4.84,1.05-8.84,2.32-11.89c1.61-3.85,4.92-8.23,9.84-13c5.45-5.29,8.85-9.01,10.37-11.36c2.47-3.76,3.72-7.88,3.72-12.27 c0-5.81-1.54-10.39-4.56-13.61c-3.08-3.27-7.51-4.93-13.19-4.93c-5.38,0-9.82,1.58-13.2,4.69c-2.6,2.39-4.24,5.44-4.89,9.07 c-0.07,0.39-0.49,0.7-0.96,0.7H48.92c-0.4,0-0.66-0.22-0.77-0.35c-0.13-0.14-0.27-0.38-0.23-0.71c0.85-6.76,3.6-12.08,8.41-16.27 C62.11,9.55,69.95,7,79.64,7 M79.64,4c-10.48,0-18.9,2.77-25.27,8.31c-5.35,4.65-8.49,10.71-9.42,18.16 c-0.3,2.36,1.6,4.43,3.98,4.43H60.6c1.89,0,3.58-1.31,3.91-3.17c0.53-2.98,1.85-5.44,3.97-7.39c2.82-2.6,6.54-3.9,11.17-3.9 c4.84,0,8.5,1.33,11,3.98c2.5,2.66,3.75,6.51,3.75,11.55c0,3.81-1.07,7.35-3.22,10.63c-1.4,2.15-4.72,5.77-9.96,10.85 c-5.24,5.08-8.75,9.75-10.52,14c-1.41,3.38-2.26,7.67-2.55,12.88c-0.13,2.29,1.7,4.23,4,4.23h10.4c2.05,0,3.78-1.56,3.97-3.6 c0.55-5.9,2.27-10.54,5.16-13.92c0.09-0.11,0.19-0.21,0.29-0.31l9.77-9.62c8.17-8.5,12.25-17.13,12.25-25.9 c0-9.85-3.02-17.51-9.07-23C98.87,6.74,90.44,4,79.64,4L79.64,4z" style="fill:#424242;"/>
    </g>
    <g>
      <g>
        <linearGradient id="SVGID_3_" gradientUnits="userSpaceOnUse" x1="26.0131" x2="26.0131" y1="4.4313" y2="123.3285">
          <stop offset="0" style="stop-color:#FF5252"/>
          <stop offset="0.2061" style="stop-color:#FD4D4D"/>
          <stop offset="0.4365" style="stop-color:#F64040"/>
          <stop offset="0.6787" style="stop-color:#EA2A2A"/>
          <stop offset="0.9274" style="stop-color:#DA0B0B"/>
          <stop offset="1" style="stop-color:#D50000"/>
        </linearGradient>
        <ellipse cx="26.01" cy="112" rx="12" ry="11.99" style="fill:url(#SVGID_3_);"/>
        <linearGradient id="SVGID_4_" gradientUnits="userSpaceOnUse" x1="26.0131" x2="26.0131" y1="4.4313" y2="123.3285">
          <stop offset="0" style="stop-color:#FF5252"/>
          <stop offset="0.2061" style="stop-color:#FD4D4D"/>
          <stop offset="0.4365" style="stop-color:#F64040"/>
          <stop offset="0.6787" style="stop-color:#EA2A2A"/>
          <stop offset="0.9274" style="stop-color:#DA0B0B"/>
          <stop offset="1" style="stop-color:#D50000"/>
        </linearGradient>
        <path d="M32.15,92.01H19.88c-2.19,0-3.98-1.74-4.03-3.91L14.02,8.13 c-0.05-2.24,1.77-4.09,4.03-4.09h15.93c2.26,0,4.08,1.85,4.03,4.09L36.18,88.1C36.13,90.27,34.34,92.01,32.15,92.01z" style="fill:url(#SVGID_4_);"/>
      </g>
      <g style="opacity:0.2;">
        <path d="M26.01,103c4.96,0,9,4.03,9,8.99s-4.04,8.99-9,8.99s-9-4.03-9-8.99S21.05,103,26.01,103 M26.01,100.01c-6.63,0-12,5.37-12,11.99c0,6.62,5.37,11.99,12,11.99s12-5.37,12-11.99C38.01,105.37,32.64,100.01,26.01,100.01 L26.01,100.01z" style="fill:#424242;"/>
        <path d="M33.98,7.04c0.39,0,0.63,0.2,0.75,0.31c0.13,0.14,0.29,0.37,0.28,0.71l-1.83,79.97 c-0.01,0.54-0.47,0.98-1.03,0.98H19.88c-0.56,0-1.02-0.44-1.03-0.98L17.02,8.06c-0.01-0.34,0.15-0.57,0.28-0.71 c0.11-0.12,0.36-0.31,0.75-0.31H33.98 M33.98,4.04H18.05c-2.26,0-4.08,1.85-4.03,4.09l1.83,79.97c0.05,2.17,1.84,3.91,4.03,3.91 h12.27c2.19,0,3.98-1.74,4.03-3.91l1.83-79.97C38.06,5.89,36.24,4.04,33.98,4.04L33.98,4.04z" style="fill:#424242;"/>
      </g>
    </g>
  </g>
</svg>