<svg enable-background="new 0 0 128 128" viewBox="0 0 128 128" xmlns="http://www.w3.org/2000/svg"><radialGradient id="b" cx="40" cy="42" r="81.904" gradientTransform="matrix(-.1861 .9825 -.7651 -.1449 79.58 8.7867)" gradientUnits="userSpaceOnUse"><stop stop-color="#FFD740" offset="0"/><stop stop-color="#FFD435" offset=".1731"/><stop stop-color="#FFCB17" offset=".4779"/><stop stop-color="#FFC400" offset=".6802"/><stop stop-color="#FFAB00" offset="1"/></radialGradient><path d="m110.86 23.9s-1.17-2.34-3.53-3.7c-3.21-1.85-4.4-7.69-6.9-11-3.02-3.99-7.85-5.18-10.11-5.2-4.44-0.04-7.56 1.47-10.67 6.64-0.87 1.45-24.91 52.96-33.88 72.21-0.31 0.67-0.83 0.27-1.13-0.41-2.51-5.69 2.17-17.1 3.71-21.03 1.14-2.91 4.95-7.16 4.95-9.31 0-6.99-11.11-8.02-25.4-8.02-22.22 0.01-23.9 3.86-23.9 7.78 0 4.07 6.61 5.17 7.54 12.26 0.39 2.95-1.87 12.96-3.01 18.52-3.99 19.28 2.77 34.96 16.3 39.58 13.75 4.69 29.8 0.4 37.08-16.47 5.05-11.71 19.01-63.46 21.46-70.01 2.19-5.86 5.43-17.64 8.15-17.93 1.68-0.17 3.64 6.98 11.07 9.24 5.21 1.59 12.45 1.6 12.45 1.6l-4.18-4.75z" fill="url(#b)"/><g opacity=".2"><path d="m90.16 7h0.14c1.23 0.01 5.28 0.77 7.74 4.02 0.79 1.04 1.48 2.53 2.21 4.11 1.38 2.99 2.81 6.07 5.59 7.68 1.29 0.75 2.09 2.01 2.29 2.35-1.58-0.22-3.23-0.53-4.67-0.97-3.8-1.16-5.86-3.99-7.36-6.06-1.24-1.71-2.41-3.32-4.52-3.32-0.12 0-0.25 0.01-0.37 0.02-3.66 0.38-5.59 4.99-9.11 15.43-0.55 1.64-1.08 3.19-1.54 4.43-0.93 2.5-3.32 10.79-6.35 21.29-5.03 17.44-11.92 41.32-15.05 48.59-4.51 10.44-13.19 16.43-23.81 16.43-3.19 0-6.4-0.54-9.55-1.62-12.19-4.16-17.95-18.68-14.33-36.13 0.14-0.69 0.3-1.45 0.47-2.26 1.69-8.02 2.95-14.39 2.58-17.25-0.66-5-3.52-7.66-5.61-9.6-0.98-0.91-1.91-1.77-1.91-2.28 0-1.11 0-1.78 1.86-2.63 3.13-1.43 9.54-2.15 19.03-2.15 6.67 0 22.23 0 22.4 4.93-0.17 0.68-1.35 2.49-2.06 3.58-1.03 1.57-2.09 3.19-2.68 4.72l-0.19 0.49c-3.16 8.03-6.04 17.02-3.46 22.85 0.7 1.59 2 2.55 3.48 2.55 1.33 0 2.52-0.8 3.12-2.08 19.9-42.7 32.82-70.23 33.75-71.96 2.61-4.34 4.8-5.16 7.91-5.16m0-3c-4.36 0-7.43 1.53-10.51 6.64-0.87 1.45-24.91 52.96-33.88 72.21-0.11 0.24-0.25 0.34-0.4 0.34-0.26 0-0.54-0.32-0.73-0.76-2.51-5.69 2.17-17.1 3.71-21.03 1.14-2.91 4.95-7.16 4.95-9.31 0-6.99-11.11-8.02-25.4-8.02-22.22 0.02-23.9 3.87-23.9 7.79 0 4.07 6.61 5.17 7.54 12.26 0.39 2.95-1.87 12.96-3.01 18.52-3.99 19.28 2.77 34.96 16.3 39.58 3.42 1.17 6.98 1.78 10.52 1.78 10.68 0 21.09-5.57 26.56-18.25 5.05-11.71 19.01-63.46 21.46-70.01 2.19-5.86 5.43-17.64 8.15-17.93h0.06c1.67 0 3.67 7.01 11.01 9.24 5.21 1.59 12.45 1.6 12.45 1.6l-4.17-4.76s-1.17-2.34-3.53-3.7c-3.21-1.85-4.4-7.69-6.9-11-3.03-3.98-7.86-5.17-10.12-5.19h-0.16z" fill="#424242"/></g><linearGradient id="a" x1="110.09" x2="113.75" y1="17.776" y2="31.609" gradientUnits="userSpaceOnUse"><stop stop-color="#757575" offset="0"/><stop stop-color="#424242" offset=".9954"/></linearGradient><path d="m121.47 27.25c-0.4-0.37-0.47-0.53-0.72-1.12-0.28-0.67-0.67-1.6-1.54-2.69-1.21-1.51-2.99-2.39-5.04-3.42-1.08-0.54-2.2-1.09-3.35-1.8-1.39-0.84-3.87-0.44-4.47 1.21 0.47 0.4 0.92 0.67 1.11 0.94 0.95 1.4 0.55 3.13 0.05 4.4-0.59 1.5-2.8 2.74-4.84 2.29-0.1 0.37-0.13 0.94-0.14 1.33-0.01 0.43 0.17 0.91 0.36 1.28 0.43 0.81 1.2 1.41 2.09 1.62 1.97 0.46 3.97 0.95 5.96 1.44 2.02 0.49 4.03 0.98 6.02 1.45l1.91 0.45c0.3 0.09 0.85 0.25 1.51 0.25 1.51 0 2.84-0.9 3.37-2.31 0.97-2.59-1.22-4.43-2.28-5.32z" fill="url(#a)"/><path d="m67.54 32.43c-0.46 1-0.02 2.19 0.98 2.65l3.63 1.67c1 0.46 2.19 0.02 2.65-0.98s0.02-2.19-0.98-2.65l-3.63-1.67c-1-0.46-2.18-0.02-2.65 0.98z" fill="#F4511E"/><ellipse transform="matrix(.418 -.9084 .9084 .418 10.034 81.921)" cx="68.96" cy="33.13" rx="6" ry="4" fill="#FF7043"/><path d="m60.86 46.97c-0.46 1-0.02 2.19 0.98 2.65l3.63 1.67c1 0.46 2.19 0.02 2.65-0.98s0.02-2.19-0.98-2.65l-3.63-1.67c-1.01-0.47-2.19-0.03-2.65 0.98z" fill="#F4511E"/><ellipse transform="matrix(.418 -.9084 .9084 .418 -7.0627 84.303)" cx="62.27" cy="47.66" rx="6" ry="4" fill="#FF7043"/><path d="m54.17 61.5c-0.46 1-0.02 2.19 0.98 2.65l3.63 1.67c1 0.46 2.19 0.02 2.65-0.98s0.02-2.19-0.98-2.65l-3.63-1.67c-1-0.46-2.19-0.02-2.65 0.98z" fill="#F4511E"/><ellipse transform="matrix(.418 -.9084 .9084 .418 -24.159 86.686)" cx="55.58" cy="62.2" rx="6" ry="4" fill="#FF7043"/><g opacity=".2"><path d="m109.45 19.84c0.15 0.03 0.26 0.07 0.33 0.11 1.19 0.73 2.32 1.29 3.41 1.83l0.1 0.05c1.91 0.95 3.43 1.71 4.36 2.87 0.71 0.88 1.01 1.61 1.26 2.21 0.31 0.73 0.52 1.18 1.2 1.81 0.02 0.02 0.05 0.04 0.07 0.06 1.38 1.16 2.1 2.03 1.71 3.09-0.23 0.63-0.81 1.01-1.5 1.01-0.37 0-0.72-0.11-0.93-0.17-0.04-0.01-0.08-0.02-0.11-0.03l-1.91-0.45c-1.69-0.4-3.4-0.81-5.12-1.23l-0.89-0.22c-2.01-0.49-4.01-0.98-5.98-1.44-0.22-0.05-0.42-0.17-0.57-0.32 2.03-0.42 3.81-1.77 4.5-3.52 0.85-2.17 0.88-4.07 0.07-5.66m-0.3-2.03c-1.18 0-2.4 0.54-2.8 1.64 0.47 0.4 0.92 0.67 1.11 0.94 0.95 1.4 0.55 3.13 0.05 4.4-0.51 1.29-2.2 2.38-3.96 2.38-0.29 0-0.59-0.03-0.88-0.1-0.1 0.37-0.13 0.94-0.14 1.33-0.01 0.43 0.17 0.91 0.36 1.28 0.43 0.81 1.2 1.41 2.09 1.62 1.97 0.46 3.97 0.95 5.96 1.44 2.02 0.49 4.03 0.98 6.02 1.45l1.91 0.45c0.3 0.09 0.85 0.25 1.51 0.25 1.51 0 2.84-0.9 3.37-2.31 0.96-2.59-1.24-4.44-2.3-5.33-0.4-0.37-0.47-0.53-0.72-1.12-0.28-0.67-0.67-1.6-1.54-2.69-1.21-1.51-2.99-2.39-5.04-3.42-1.08-0.54-2.2-1.09-3.35-1.8-0.45-0.27-1.04-0.41-1.65-0.41z" fill="#eee"/></g></svg>
