<svg enable-background="new 0 0 128 128" viewBox="0 0 128 128" xmlns="http://www.w3.org/2000/svg"><radialGradient id="d" cx="41.464" cy="63.847" r="46.973" gradientTransform="matrix(.5584 .831 -1.0834 .7446 89.241 -20.498)" gradientUnits="userSpaceOnUse"><stop stop-color="#FFF176" offset=".1619"/><stop stop-color="#FEE762" offset=".3184"/><stop stop-color="#FCD745" offset=".588"/><stop stop-color="#FBCE33" offset=".8219"/><stop stop-color="#FBCB2D" offset=".992"/></radialGradient><path d="m27.37 49.81c16.11-17.01 38.79-23.59 56.01-16.12l0.01-0.02c3.87 1.8 7.41 1.49 11.7 5.71 5.06 4.97 3.22 6.43 5.27 10.17l-0.02 0.01c8.57 16.68 2.59 40.62-12.9 58.17-12.08 13.68-37.39 18.08-54.95 14.34l-0.01 0.02c-3.87-1.8-7.21-0.97-7.21-0.97l-2.75 0.42c-2.11 0.48-4.5 0.01-6.22-1.6s-2.33-3.76-1.95-5.86c0.76-2.99 3.35-4.47 1.17-7.87l0.01-0.01c-7.27-14.1-2.01-41.76 11.84-56.39z" fill="url(#d)"/><g opacity=".2"><path d="m68.16 30.64v3c5.02 0 9.74 0.94 14.03 2.8 0.09 0.04 0.17 0.07 0.26 0.1 1.3 0.58 2.52 0.94 3.7 1.3 2.48 0.74 4.44 1.33 6.84 3.69 2.63 2.59 2.89 3.73 3.25 5.31 0.23 1.01 0.51 2.25 1.28 3.77 0.04 0.11 0.09 0.23 0.15 0.34 7.78 15.14 2.65 37.68-12.48 54.82-7.83 8.87-23.47 14.6-39.84 14.6-4.28 0-8.33-0.39-12.05-1.17-2.4-1.02-4.59-1.24-6.05-1.24-1.26 0-2.17 0.16-2.55 0.24l-2.65 0.41c-0.07 0.01-0.14 0.02-0.21 0.04-0.3 0.07-0.62 0.1-0.93 0.1-0.99 0-1.9-0.34-2.57-0.97-1.09-1.02-1.19-2.2-1.07-3.04 0.16-0.55 0.44-1.08 0.76-1.69 0.95-1.79 2.37-4.47 0.18-8.14l-0.03-0.06c-6.89-13.4-1.26-39.63 11.37-52.96 10.81-11.42 25.24-18.23 38.61-18.23v-3.02m0 0c-13.99 0-29.11 6.85-40.78 19.17-13.86 14.63-19.12 42.29-11.87 56.4l-0.01 0.01c2.19 3.4-0.4 4.88-1.17 7.87-0.38 2.11 0.24 4.26 1.95 5.86 1.29 1.21 2.97 1.78 4.62 1.78 0.54 0 1.08-0.06 1.6-0.18l2.75-0.42s0.77-0.19 1.99-0.19c1.33 0 3.2 0.22 5.22 1.16l0.01-0.02c3.97 0.85 8.34 1.28 12.86 1.28 15.47 0 32.74-5.03 42.09-15.61 15.5-17.55 21.47-41.49 12.9-58.17l0.02-0.01c-2.05-3.75-0.21-5.2-5.27-10.17-4.29-4.21-7.83-3.91-11.7-5.71 0 0-0.01 0.01-0.01 0.02-4.73-2.08-9.88-3.07-15.2-3.07z" fill="#424242"/></g><linearGradient id="c" x1="22.393" x2="90.483" y1="21.239" y2="21.239" gradientTransform="matrix(.9756 -.2194 .2194 .9756 -3.7397 14.462)" gradientUnits="userSpaceOnUse"><stop stop-color="#689F38" offset=".1235"/><stop stop-color="#73A743" offset=".3217"/><stop stop-color="#8EBD60" offset=".6685"/><stop stop-color="#AED581" offset=".9927"/></linearGradient><path d="m20.71 21.11s20.52 3.85 29.3 9.04 34.67 10.16 40.14-0.94c4.93-9.99-9.57-24.14-29.85-24.25-20.27-0.1-25.11 11.28-39.59 16.15z" fill="url(#c)"/><g opacity=".2"><path d="m60 8h0.29c5.86 0 11.54 1.31 16.43 3.73 4.34 2.15 7.8 5.06 9.75 8.22 1.24 2.01 2.42 5.01 0.98 7.93-2.15 4.35-9.23 5-13.27 5-8.56 0-18.24-2.7-22.66-5.31-5.38-3.18-14.62-5.82-21.49-7.48 2.04-1.19 3.93-2.44 5.8-3.69 6.48-4.33 12.58-8.4 24.21-8.4m0-3c-20.05 0-24.92 11.28-39.33 16.13 0 0 20.52 3.84 29.3 9.03 4.91 2.9 15.15 5.72 24.19 5.72 7.15 0 13.54-1.75 15.96-6.66 4.93-9.98-9.58-24.22-29.85-24.22h-0.27z" fill="#424242"/></g><linearGradient id="b" x1="71.517" x2="102.98" y1="28.185" y2="5.5626" gradientUnits="userSpaceOnUse"><stop stop-color="#689F38" offset=".1514"/><stop stop-color="#73A743" offset=".3432"/><stop stop-color="#8EBD60" offset=".6789"/><stop stop-color="#AED581" offset=".9927"/></linearGradient><path d="m115.06 27.07c-0.86 1-4.09 4.65-6.73 6.7-2.69 2.09-10 2.22-10.25 2.34-0.1 0.05-0.19 0.09-0.29 0.14-0.26-0.42-0.6-0.94-1.03-1.53-1.13-1.56-2.92-3.6-5.31-5.73-1.18-1.08-2.53-2.15-4-3.27-1.42-1.03-3.03-2.22-4.8-3.16-3.52-1.95-7.53-3.39-11.6-4.45-8.17-2.1-16.54-2.69-22.78-2.83-6.25-0.13-10.4 0.21-10.4 0.21s4.17-0.13 10.38 0.31c6.2 0.45 14.49 1.47 22.34 3.92 3.91 1.23 7.7 2.82 10.9 4.81 1.63 0.97 2.99 2.1 4.4 3.23 1.31 1.11 2.56 2.2 3.62 3.27 2.15 2.12 3.7 4.08 4.62 5.5 0.34 0.52 0.61 0.97 0.8 1.32-1.38 1.55-2.61 3.8-3.91 5.22-2.2 2.39-5.26 2.16-5.26 2.16-0.88 2.82 2.47 4.95 3.13 5.17s2.56-3.63 4.76-6.45 6.36-4.77 9.87-4.76c3.5 0.01 4.38-1.07 6.58-2.37 1.55-0.92 5.57-3.13 7.49-5.04-1.27-0.69-2.53-1.9-3.54-1.9 0.75-0.79 0.95-1.58 1.01-2.81z" fill="url(#b)"/><linearGradient id="a" x1="115.68" x2="117.86" y1="29.827" y2="28.257" gradientUnits="userSpaceOnUse"><stop stop-color="#689F38" offset=".1514"/><stop stop-color="#73A743" offset=".3432"/><stop stop-color="#8EBD60" offset=".6789"/><stop stop-color="#AED581" offset=".9927"/></linearGradient><path d="m118.54 29.67c-0.87-1.96-3.25-2.86-3.25-2.86s-0.09 0.1-0.23 0.26c-0.05 1.22-0.26 2.01-1.05 2.8 1.02 0 2.28 1.21 3.54 1.9 0.8-0.78 1.24-1.53 0.99-2.1z" fill="url(#a)"/></svg>
