<?xml version="1.0" encoding="UTF-8" standalone="no"?><!DOCTYPE svg PUBLIC "-//W3C//DTD SVG 1.1//EN" "http://www.w3.org/Graphics/SVG/1.1/DTD/svg11.dtd"><svg width="128px" height="128px" version="1.1" xmlns="http://www.w3.org/2000/svg" xmlns:xlink="http://www.w3.org/1999/xlink" xml:space="preserve" xmlns:serif="http://www.serif.com/" style="fill-rule:evenodd;clip-rule:evenodd;stroke-linejoin:round;stroke-miterlimit:2;"><path d="M63.03,5.38L16.79,20.85L10.21,24.64L9.38,49.48L15.33,92.85L46.24,109.55L65.94,116.65L80.47,110.7L114.64,95.03C114.64,95.03 117.98,94.76 116.42,89.65C114.86,84.54 116.84,36.31 116.84,36.31L117.02,24.73C117.02,24.73 117,22 107.95,20.02C98.9,18.04 63.03,5.38 63.03,5.38Z" style="fill:#fff;fill-opacity:0.5;fill-rule:nonzero;"/><path d="M9.31,25.82L63.76,50.72L116.02,26.92C116.02,26.92 116.29,90.39 115.47,90.67C115.06,90.81 64.31,70.97 64.31,70.97L14.52,90.67L9.59,35.94L9.31,25.82Z" style="fill:#7ec8ee;fill-opacity:0.7;fill-rule:nonzero;"/><path d="M65.95,116.65L40.5,107.35L15.33,92.85L14.51,90.66L62.39,69.04L115.47,90.66L114.65,95.04L93.04,105.43L65.95,116.65Z" style="fill:#63abde;fill-opacity:0.7;fill-rule:nonzero;"/><path d="M62.94,5.02L15.33,21.16L9.31,25.82L17.52,29.65L61.57,48.8L65.13,48.25L116.02,23.9L62.94,5.02Z" style="fill:#b0e4ff;fill-opacity:0.7;fill-rule:nonzero;"/><path d="M116.84,89.59C115.34,88.09 85.09,75.89 79.31,73.35C73.53,70.81 70.98,69.19 69.94,66.64C68.9,64.09 66.82,20.84 66.82,18.07C66.82,15.3 66.49,7.22 63.36,7.21C60.79,7.2 60.24,14.55 60.24,18.4C60.24,22.25 59.21,63.21 58.26,66.75C57.1,71.11 46.22,74.72 36.87,79.12C27.51,83.52 15.03,86.95 14.51,90.65C14,94.35 16.57,95.27 21.34,98.57C23.29,99.92 29.51,103.4 36.75,106.99C47.24,112.19 59.91,117.41 65.13,117.5C72.48,117.63 83.32,111.67 94.8,106.3C106.07,101.03 116.14,96.8 116.95,94.84C118.2,91.83 118.35,91.09 116.84,89.59ZM93.88,102.26C86.38,105.68 68.9,113.36 64.85,113.71C60.8,114.06 46.33,107.19 39.87,104.11C32.58,100.64 18.48,93.35 19.28,91.5C20.09,89.65 28.88,86.64 41.02,81.67C53.16,76.7 64.03,72.53 64.03,72.53C64.03,72.53 71.55,75.21 84.73,80.86C97.68,86.41 112.83,93 112.83,93C112.83,93 103.02,98.09 93.88,102.26Z" style="fill:#37b4e2;fill-rule:nonzero;"/><path d="M63.56,3.92C59.45,3.35 50.88,7.78 39.16,11.78C26.65,16.05 16.1,18.9 12.42,20.74C9.39,22.26 7.87,24.74 7.73,28.05C7.6,31.35 7.32,40.72 9.8,64.7C10.56,72 13.33,90.56 13.69,91.87C15.54,98.6 18.62,93.78 17.93,88.54C17.44,84.84 15.86,76.41 14.48,62.21C13.1,48.01 11.72,30.1 12.96,27.06C14.2,24.02 22.15,21.68 27.71,20.03C44.94,14.93 60.24,8.18 63.55,8.18C66.86,8.18 89.32,16.31 93.05,17.69C96.77,19.07 112.76,23.62 113.59,25.82C114.42,28.02 113.73,84.4 113.87,87.43C114.01,90.46 113.22,94.26 115.46,94.67C117.71,95.07 118.28,91.29 118.28,88.67C118.28,86.05 118.14,60.97 118.42,49.53C118.7,38.09 120.49,26.93 117.32,22.93C114.15,18.93 104.36,16.87 88.1,11.21C77.96,7.7 67.55,4.47 63.56,3.92Z" style="fill:#58c4fd;fill-rule:nonzero;"/><path d="M15.32,29.69L63.28,51.61L65.76,112.81L60.4,114.04L23.86,97.78L15.33,92.85L9.59,35.94L10.9,27.63L15.32,29.69Z" style="fill:url(#_Radial1);fill-rule:nonzero;"/><path d="M64.52,51.89L65.49,115.43L108.9,97.92L115.38,93.37L115.01,87.85L117.03,24.73L110.42,26.39L64.52,51.89Z" style="fill:url(#_Radial2);fill-rule:nonzero;"/><g transform="matrix(1,0,0,1,0.14,-0.73)"><path d="M15.87,31.2L41.78,43.05L63.49,51.8L114.56,26.1L115.74,24.99L62.67,6.11L13.8,21.96L8.84,25.55L8.98,28.72L15.87,31.2Z" style="fill:url(#_Radial3);fill-rule:nonzero;"/></g><path d="M7.81,102.12C8.72,104.62 11.61,107.64 17.49,108.57C22.35,109.34 25.45,108.46 27.79,107.08C29.91,105.83 30.53,102.99 30.44,101.69C30.32,100.06 28.61,97.65 26.64,96.64C24.66,95.62 7.18,100.4 7.81,102.12Z" style="fill:#37b5e1;fill-rule:nonzero;"/><path d="M12,93.94C8.76,95.82 5.45,100.05 8.39,102.99C11.33,105.93 22.21,106.7 26.39,102.89C30.58,99.09 25.62,95 22.25,93.5C18.88,92 15.32,92.01 12,93.94Z" style="fill:#b0e3fd;fill-rule:nonzero;"/><path d="M10.94,97.31C9.72,97.39 7.85,100.17 10.8,102.22C14.46,104.77 19.56,103.23 19.22,101.69C18.88,100.15 15.32,100.25 13.88,99.43C12.43,98.61 12.33,97.21 10.94,97.31Z" style="fill:#fdfefe;fill-rule:nonzero;"/><path d="M28.71,118.38C27.7,120.65 28.76,123.27 33.37,124.41C40.59,126.19 45.2,123.61 46.74,122.12C48.28,120.63 48.47,118.27 47.65,117.5C46.83,116.74 28.71,118.38 28.71,118.38Z" style="fill:#37b5e1;fill-rule:nonzero;"/><path d="M37.46,113.82C31.64,114.12 29,116.97 28.76,118.32C28.52,119.67 31.34,122.27 37.75,121.96C46.46,121.54 47.86,117.77 47.86,117.77C47.86,117.77 45.79,113.39 37.46,113.82Z" style="fill:#b0e4ff;fill-rule:nonzero;"/><path d="M35.78,116.32C34.56,115.53 32.75,116.03 31.64,116.8C30.75,117.42 30.3,118.87 30.92,119.64C31.93,120.89 33.95,120.51 35.16,119.74C36.35,118.97 37.12,117.19 35.78,116.32Z" style="fill:#fff;fill-rule:nonzero;"/><path d="M26.41,21.75C24.67,19.19 17.69,21.97 15.01,23.44C12.33,24.91 10.76,26.77 11.03,28.84C11.3,30.91 14.79,31.95 18.61,33.64C22.43,35.33 51.48,48.54 53.67,49.72C56.79,51.41 60.14,53.58 61.14,60.13C61.79,64.44 63.58,105.82 63.65,107.24C63.81,110.6 63.52,115.47 65.55,115.39C67.33,115.32 66.97,110.89 66.92,107.18C66.87,103.47 67.23,63.13 67.24,60.4C67.26,56.99 68.36,53.15 70.65,51.13C72.94,49.11 77.29,46.55 82.45,43.92C88.63,40.78 102.42,34 107.65,31.66C112.88,29.32 115.88,28.61 115.88,26.04C115.88,23.47 103.99,19.93 102.58,19.82C101.16,19.71 99.64,20.2 99.96,21.95C100.29,23.69 101.62,26.66 98.95,29C96.28,31.34 90.5,34.52 87.2,36.18C81.51,39.03 67.79,46.27 63.1,45.94C58.41,45.61 55.47,44.79 48.43,41.85C41.4,38.91 32.94,34.65 28.8,32.42C25.86,30.83 23.84,28.49 24,26.04C24.18,23.6 27.92,23.96 26.41,21.75Z" style="fill:#fff;fill-rule:nonzero;"/><path d="M43.75,15.86C44.42,17.59 50.46,15.81 53.35,14.93C56.24,14.06 61.2,12.48 64.15,12.31C67.09,12.15 76.96,15.15 79.47,15.64C81.98,16.13 84.16,16.24 84.7,15.37C85.24,14.5 81.7,12.59 76.74,10.9C71.78,9.21 66,6.54 63.54,6.86C61,7.2 55.55,9.69 51.22,11.22C48.6,12.15 42.93,13.73 43.75,15.86Z" style="fill:#fff;fill-rule:nonzero;"/><defs><radialGradient id="_Radial1" cx="0" cy="0" r="1" gradientUnits="userSpaceOnUse" gradientTransform="matrix(-35.6798,29.3038,-39.0732,-47.5731,61.8423,58.672)"><stop offset="0" style="stop-color:#fff;stop-opacity:0.9"/><stop offset="1" style="stop-color:#fcfcfc;stop-opacity:0"/></radialGradient><radialGradient id="_Radial2" cx="0" cy="0" r="1" gradientUnits="userSpaceOnUse" gradientTransform="matrix(45.0952,30.8411,-36.5176,53.3997,69.4634,53.8459)"><stop offset="0" style="stop-color:#42ade7;stop-opacity:0.9"/><stop offset="1" style="stop-color:#32afe0;stop-opacity:0"/></radialGradient><radialGradient id="_Radial3" cx="0" cy="0" r="1" gradientUnits="userSpaceOnUse" gradientTransform="matrix(-0.0941643,-47.1483,96.6116,-0.192949,63.6479,49.4808)"><stop offset="0" style="stop-color:#42ade7;stop-opacity:0.9"/><stop offset="1" style="stop-color:#62c0ea;stop-opacity:0.34"/></radialGradient></defs></svg>