<svg xmlns="http://www.w3.org/2000/svg" xmlns:xlink="http://www.w3.org/1999/xlink" viewBox="0 0 128 128"><path d="M63.89 9.64C1.58 9.64.1 79.5.1 93.33c0 13.83 28.56 25.03 63.79 25.03 35.24 0 63.79-11.21 63.79-25.03 0-13.83-1.47-83.69-63.79-83.69z" fill="#fcc21b"/><defs><path id="a" d="M63.89 98.06c23.15.05 40.56-12.97 41.19-29.05a232.203 232.203 0 0 1-82.38 0c.63 16.08 18.04 29.1 41.19 29.05z"/></defs><use xlink:href="#a" overflow="visible" fill="#fff"/><clipPath id="b"><use xlink:href="#a" overflow="visible"/></clipPath><g clip-path="url(#b)"><path d="M78.05 108c-1.1 0-2-.9-2-2V61.07c0-1.1.9-2 2-2s2 .9 2 2V106a2 2 0 0 1-2 2z" fill="#2f2f2f"/></g><g clip-path="url(#b)"><path d="M92.21 108c-1.1 0-2-.9-2-2V61.07c0-1.1.9-2 2-2s2 .9 2 2V106a2 2 0 0 1-2 2z" fill="#2f2f2f"/></g><g clip-path="url(#b)"><path d="M63.89 108c-1.1 0-2-.9-2-2V61.07c0-1.1.9-2 2-2s2 .9 2 2V106c0 1.1-.9 2-2 2zM49.72 108c-1.1 0-2-.9-2-2V61.07c0-1.1.9-2 2-2s2 .9 2 2V106a2 2 0 0 1-2 2zM35.56 108c-1.1 0-2-.9-2-2V61.07c0-1.1.9-2 2-2s2 .9 2 2V106a2 2 0 0 1-2 2z" fill="#2f2f2f"/></g><g fill="#2f2f2f"><path d="M42 58.3c-4.49.04-8.17-4.27-8.22-9.62-.05-5.37 3.55-9.75 8.04-9.79 4.48-.04 8.17 4.27 8.22 9.64.05 5.35-3.55 9.72-8.04 9.77zM86.11 58.3c4.48-.01 8.11-4.36 8.1-9.71-.01-5.37-3.66-9.7-8.14-9.69-4.49.01-8.13 4.36-8.12 9.73.02 5.35 3.67 9.68 8.16 9.67z"/></g><path d="M64.01 100.56h-.25c-24.13 0-42.86-13.52-43.56-31.46-.03-.76.29-1.49.86-1.98.57-.5 1.33-.71 2.08-.57 26.82 4.84 54.67 4.84 81.5 0 .75-.14 1.51.08 2.08.57.57.5.89 1.23.86 1.98-.71 17.94-19.44 31.46-43.57 31.46zm-.13-5h.13c19.55 0 35.56-10.1 38.2-23.52a235.827 235.827 0 0 1-76.65 0c2.64 13.42 18.65 23.52 38.2 23.52h.12z" fill="#2f2f2f"/></svg>