<svg enable-background="new 0 0 128 128" viewBox="0 0 128 128" xmlns="http://www.w3.org/2000/svg" xmlns:xlink="http://www.w3.org/1999/xlink"><linearGradient id="i" x1="70.948" x2="45.394" y1="66.12" y2="121.49" gradientTransform="matrix(.8759 -.0643 .068 .9265 -4.0349 6.5822)" gradientUnits="userSpaceOnUse"><stop stop-color="#00ECCC" offset="0"/><stop stop-color="#0AEECF" stop-opacity=".8503" offset=".1086"/><stop stop-color="#24F2D5" stop-opacity=".5996" offset=".2905"/><stop stop-color="#4DF8E1" stop-opacity=".2806" offset=".5219"/><stop stop-color="#78FFEC" stop-opacity="0" offset=".7255"/><stop stop-color="#78FFEC" stop-opacity="0" offset="1"/></linearGradient><path d="m30.94 52.47-24.56 49.05s77.44 25.32 77.06 24.13 10.23-52.44 10.23-52.44l-62.73-20.74z" fill="url(#i)"/><linearGradient id="h" x1="1.2732" x2="125.07" y1="55.48" y2="55.48" gradientTransform="matrix(.9649 .2627 -.2627 .9649 16.674 -14.622)" gradientUnits="userSpaceOnUse"><stop stop-color="#8690BB" offset="0"/><stop stop-color="#6E76A6" offset=".265"/><stop stop-color="#B0BEE1" offset=".6652"/><stop stop-color="#6E76A6" offset=".8836"/><stop stop-color="#8A90B3" offset="1"/></linearGradient><path d="m123.83 67.58c0.21-4.72-22.68-24.05-22.68-24.05l-64.96-17.69s-29.43 5.09-31.65 9.26 0 26.82 53.38 41.35 65.7-4.15 65.91-8.87z" fill="url(#h)"/><path d="m102.14 40.44c-2.04-18.19-18.73-30.45-36.5-31.14-11.13-0.43-21.62 4.65-28.25 13.51-2.15 2.88-4.97 6.31-2.9 9.97 2.47 4.37 8.36 7.32 12.71 9.43 11.43 5.55 24.14 9.01 36.83 10.03 4.82 0.38 11.23 0.78 15.57-1.73 3.64-2.11 2.94-6.5 2.54-10.07z" fill="#505C70"/><defs><path id="g" d="m123.83 67.58c0.21-4.72-22.68-24.05-22.68-24.05l-64.96-17.69s-29.43 5.09-31.65 9.26 0.73 22.22 54.11 36.75 64.97 0.45 65.18-4.27z"/></defs><clipPath id="f"><use xlink:href="#g"/></clipPath><radialGradient id="e" cx="39.873" cy="60.84" r="42.895" gradientTransform="matrix(1.0083 .2745 -.2627 .9649 37.508 -8.9496)" gradientUnits="userSpaceOnUse"><stop stop-color="#00ECCC" offset=".2278"/><stop stop-color="#00CCB1" offset="1"/></radialGradient><path d="m59.23 69.89c-32.16-8.76-55.93-24.98-54.36-36.82-0.14 0.34-0.27 0.68-0.36 1.04-3.24 11.91 21 28.87 54.14 37.9 33.14 9.02 62.64 6.69 65.88-5.22 0.1-0.36 0.17-0.72 0.21-1.08-4.64 10.99-33.36 12.93-65.51 4.18z" clip-path="url(#f)" fill="url(#e)"/><radialGradient id="d" cx="-133.62" cy="-125.32" r="3.6423" gradientTransform="matrix(.7567 .6538 -.4888 .5657 56.232 194.16)" gradientUnits="userSpaceOnUse"><stop stop-color="#00ECCC" offset=".065"/><stop stop-color="#00E7C7" offset=".2517"/><stop stop-color="#00D8BB" offset=".4807"/><stop stop-color="#00BFA5" offset=".7318"/><stop stop-color="#009C87" offset=".9973"/><stop stop-color="#009C87" offset="1"/></radialGradient><path d="m19.38 38.17c-0.67 0.93-2.45 0.79-3.98-0.31s-2.22-2.75-1.55-3.68 2.45-0.79 3.98 0.31c1.53 1.11 2.22 2.75 1.55 3.68z" fill="url(#d)"/><radialGradient id="c" cx="-120.13" cy="-123.57" r="3.6423" gradientTransform="matrix(.7567 .6538 -.4888 .5657 56.799 193.66)" gradientUnits="userSpaceOnUse"><stop stop-color="#00ECCC" offset=".065"/><stop stop-color="#00E7C7" offset=".2517"/><stop stop-color="#00D8BB" offset=".4807"/><stop stop-color="#00BFA5" offset=".7318"/><stop stop-color="#009C87" offset=".9973"/><stop stop-color="#009C87" offset="1"/></radialGradient><path d="m29.3 47.48c-0.67 0.93-2.45 0.79-3.98-0.31s-2.22-2.75-1.55-3.68 2.45-0.79 3.98 0.31 2.22 2.75 1.55 3.68z" fill="url(#c)"/><radialGradient id="b" cx="-23.659" cy="-46.43" r="3.6423" gradientTransform="matrix(.8594 .5113 -.3823 .6425 42.906 95.938)" gradientUnits="userSpaceOnUse"><stop stop-color="#00ECCC" offset=".065"/><stop stop-color="#00E7C7" offset=".2517"/><stop stop-color="#00D8BB" offset=".4807"/><stop stop-color="#00BFA5" offset=".7318"/><stop stop-color="#009C87" offset=".9973"/><stop stop-color="#009C87" offset="1"/></radialGradient><path d="m43.67 55.72c-0.5 1.03-2.28 1.21-3.97 0.39-1.7-0.82-2.67-2.32-2.17-3.35s2.28-1.21 3.97-0.39 2.67 2.31 2.17 3.35z" fill="url(#b)"/><radialGradient id="a" cx="62.855" cy="43.713" r="3.6423" gradientTransform="matrix(.9381 .3465 -.259 .7013 10.954 8.9184)" gradientUnits="userSpaceOnUse"><stop stop-color="#00ECCC" offset=".065"/><stop stop-color="#00E7C7" offset=".2517"/><stop stop-color="#00D8BB" offset=".4807"/><stop stop-color="#00BFA5" offset=".7318"/><stop stop-color="#009C87" offset=".9973"/><stop stop-color="#009C87" offset="1"/></radialGradient><path d="m62.2 62.42c-0.3 1.11-2.02 1.6-3.84 1.11s-3.05-1.79-2.75-2.9 2.02-1.6 3.84-1.11 3.05 1.8 2.75 2.9z" fill="url(#a)"/><radialGradient id="m" cx="101.03" cy="77.59" r="3.6423" gradientTransform="matrix(.9578 .2876 -.215 .716 -2.5951 -18.71)" gradientUnits="userSpaceOnUse"><stop stop-color="#00ECCC" offset=".065"/><stop stop-color="#00E7C7" offset=".2517"/><stop stop-color="#00D8BB" offset=".4807"/><stop stop-color="#00BFA5" offset=".7318"/><stop stop-color="#009C87" offset=".9973"/><stop stop-color="#009C87" offset="1"/></radialGradient><path d="m81.15 66.75c-0.23 1.12-1.92 1.72-3.76 1.34-1.85-0.38-3.15-1.6-2.92-2.72s1.92-1.72 3.76-1.34c1.85 0.38 3.16 1.6 2.92 2.72z" fill="url(#m)"/><radialGradient id="l" cx="144.19" cy="135.63" r="3.6423" gradientTransform="matrix(.9824 .1869 -.1397 .7345 -28.593 -59.022)" gradientUnits="userSpaceOnUse"><stop stop-color="#00ECCC" offset=".065"/><stop stop-color="#00E7C7" offset=".2517"/><stop stop-color="#00D8BB" offset=".4807"/><stop stop-color="#00BFA5" offset=".7318"/><stop stop-color="#009C87" offset=".9973"/><stop stop-color="#009C87" offset="1"/></radialGradient><path d="m97.84 68.01c-0.11 1.14-1.73 1.91-3.6 1.73-1.87-0.19-3.3-1.27-3.19-2.41s1.73-1.91 3.6-1.73 3.3 1.26 3.19 2.41z" fill="url(#l)"/><radialGradient id="k" cx="203.09" cy="351.7" r="3.6423" gradientTransform="matrix(.9856 -.169 .1263 .7369 -132.78 -159.11)" gradientUnits="userSpaceOnUse"><stop stop-color="#00ECCC" offset=".065"/><stop stop-color="#00E7C7" offset=".2517"/><stop stop-color="#00D8BB" offset=".4807"/><stop stop-color="#00BFA5" offset=".7318"/><stop stop-color="#009C87" offset=".9973"/><stop stop-color="#009C87" offset="1"/></radialGradient><path d="m115.48 64.86c0.29 1.11-0.95 2.4-2.77 2.88s-3.54-0.03-3.83-1.14 0.95-2.4 2.77-2.88c1.83-0.48 3.54 0.03 3.83 1.14z" fill="url(#k)"/><radialGradient id="j" cx="59.093" cy="42.536" r="35.889" gradientTransform="matrix(.8949 .4462 -.4304 .8633 27.943 -21.146)" gradientUnits="userSpaceOnUse"><stop stop-color="#78FFEC" offset="0"/><stop stop-color="#73FEEB" offset=".0939"/><stop stop-color="#64FCE7" offset=".2099"/><stop stop-color="#4AF8E0" offset=".3375"/><stop stop-color="#28F2D7" offset=".4724"/><stop stop-color="#00ECCC" offset=".5999"/><stop stop-color="#00CCB1" offset="1"/></radialGradient><path d="m102.91 38.11c-2.24-17.66-19.18-29.73-37.06-30.59-11.21-0.54-21.7 4.28-28.29 12.8-2.14 2.77-4.93 6.07-2.81 9.64 2.53 4.26 8.5 7.19 12.89 9.28 11.56 5.5 24.39 9 37.17 10.12 4.85 0.42 11.31 0.88 15.65-1.51 3.64-2 2.89-6.27 2.45-9.74z" fill="url(#j)"/><g opacity=".48"><path d="m78.25 15.37c0.82 0.18 1.76 0.47 2.76 0.88s2.07 0.93 3.17 1.57 2.23 1.39 3.34 2.26c1.11 0.86 2.21 1.84 3.25 2.92s2.03 2.26 2.92 3.53 1.69 2.63 2.36 4.07 1.22 2.95 1.61 4.53c0.39 1.57 0.63 3.21 0.7 4.89s-0.04 3.41-0.32 5.18c0 0-0.02-0.4-0.15-1.14s-0.36-1.81-0.82-3.16-1.14-2.97-2.18-4.8c-1.04-1.82-2.45-3.84-4.37-5.94-0.85-0.93-1.91-1.94-3.11-2.98-1.21-1.04-2.56-2.1-3.97-3.14-1.41-1.03-2.87-2.04-4.28-2.98s-2.77-1.81-3.94-2.58c-1.18-0.77-2.17-1.45-2.85-2.02s-1.04-1.02-0.96-1.34c0.09-0.32 0.63-0.5 1.73-0.48s2.78 0.23 5.11 0.73z" fill="#DCFFFA"/></g><g fill="#A3B0D6"><path d="m18.66 57.37 2.56 1.9c0.44 0.38 1.32 0.99 1.37 1.57 0.19 2.02 0.01 2.7-0.11 4.25-0.13 1.69-4.41-2.96-5.32-6.4-0.37-1.4 0.4-2.25 1.5-1.32z"/><path d="m100.44 79.63-3.17 0.34c-0.57 0.1-1.64 0.19-1.98 0.66-1.18 1.64-1.38 2.32-2.06 3.71-0.75 1.53 5.31-0.32 7.83-2.82 1.03-1 0.8-2.14-0.62-1.89z"/><path d="m60.43 75.2c-0.33-0.66-1.31-1.14-1.85-1.37-1.06-0.46-2.35-0.5-3.42-0.02-0.22 0.1-0.39 0.28-0.45 0.51-0.32 1.26 0.57 4.95 2.19 4.9 0.74-0.02 1.55-0.91 2.07-1.37 0.59-0.52 1.3-1.16 1.53-1.95 0.07-0.25 0.04-0.49-0.07-0.7z"/></g><g opacity=".2"><path d="m64.33 10.65c0.51 0 1.04 0.01 1.55 0.04 8.31 0.4 16.37 3.37 22.68 8.35 6.59 5.2 10.58 11.99 11.55 19.62l0.06 0.48c0.23 1.77 0.49 3.79 0.05 5.05-0.4 1.16-0.06 2.45 0.87 3.25 12.72 11.02 19.17 18.18 19.89 20.31-0.19 0.9-1.27 3.06-4.14 5.25-2.6 1.98-7.47 4.56-15.86 5.59-0.72 0.09-1.38 0.43-1.86 0.97-0.02 0.03-0.05 0.05-0.07 0.08-0.44 0.41-1.03 0.81-1.66 1.15-0.04-0.09-0.09-0.18-0.14-0.26-0.54-0.93-1.53-1.49-2.59-1.49h-0.06c-0.52 0.01-1.05 0.02-1.59 0.02-9.17 0-20-1.62-32.19-4.81-0.25-0.07-0.51-0.1-0.76-0.1-0.84 0-1.66 0.36-2.24 1-0.21-1.1-1.02-2-2.11-2.32-12.7-3.68-23.21-8.1-31.26-13.15-0.49-0.31-1.04-0.46-1.59-0.46-0.51 0-1.03 0.13-1.49 0.4-0.12 0.07-0.24 0.15-0.34 0.23-0.34-0.58-0.62-1.18-0.76-1.72-0.06-0.85-0.47-1.64-1.15-2.17-10.58-8.22-12.43-15.72-11.86-18.89 0.02-0.11 0.04-0.2 0.06-0.26 1.78-1.52 11.66-4.53 27.52-7.47 1.2-0.22 2.14-1.14 2.39-2.33 0.28-1.32 1.51-2.91 2.6-4.32l0.28-0.36c5.74-7.42 14.56-11.68 24.22-11.68m-56.97 26.03m56.97-29.03c-10.57 0-20.34 4.76-26.59 12.85-1.37 1.77-2.99 3.76-3.44 5.89-6.73 1.25-27.72 5.39-29.58 8.89-0.18 0.34-0.33 0.78-0.41 1.3-0.68 3.78 1.06 12.49 12.95 21.75 0.01 0.17 0.03 0.35 0.09 0.54 0.78 2.93 4.01 6.76 5.02 6.76 0.17 0 0.28-0.11 0.3-0.36 0.09-1.19 0.21-1.87 0.18-3.04 7.49 4.7 17.84 9.39 32.02 13.49 0.17 1.56 0.97 3.68 2.18 3.68h0.04c0.74-0.02 1.55-0.91 2.07-1.37 0.3-0.26 0.62-0.55 0.9-0.87 13.54 3.55 24.35 4.91 32.95 4.91 0.56 0 1.11-0.01 1.65-0.02-0.52 0.86-0.76 1.5-1.24 2.48-0.19 0.39 0.06 0.56 0.57 0.56 1.51 0 5.38-1.5 7.26-3.37 0.04-0.04 0.07-0.08 0.11-0.12 16.63-2.04 22.01-10 22.6-13.36 0.03-0.17 0.05-0.32 0.05-0.47 0.17-3.93-15.63-17.96-20.95-22.57 0.72-2.08 0.32-4.66 0.03-6.9-2.25-17.68-19.19-29.75-37.07-30.61-0.56-0.02-1.13-0.04-1.69-0.04z" fill="#424242"/></g></svg>
