<?xml version="1.0" encoding="utf-8"?>
<!-- Generator: Adobe Illustrator 25.2.3, SVG Export Plug-In . SVG Version: 6.00 Build 0)  -->
<svg version="1.1" id="Layer_2" xmlns="http://www.w3.org/2000/svg" xmlns:xlink="http://www.w3.org/1999/xlink" x="0px" y="0px"
	 viewBox="0 0 128 128" style="enable-background:new 0 0 128 128;" xml:space="preserve">
<g>
	<path style="fill:#194FA5;" d="M116,4H12c-4.42,0-8,3.58-8,8v104c0,4.42,3.58,8,8,8h104c4.42,0,8-3.58,8-8V12
		C124,7.58,120.42,4,116,4z"/>
	<path style="fill:#2262DD;" d="M109.7,4H11.5C7.37,4.03,4.03,7.37,4,11.5v97.9c-0.01,4.14,3.34,7.49,7.48,7.5c0.01,0,0.01,0,0.02,0
		h98.1c4.14,0.01,7.49-3.34,7.5-7.48c0-0.01,0-0.01,0-0.02V11.5c0.09-4.05-3.13-7.41-7.18-7.5C109.85,4,109.77,4,109.7,4z"/>
	<circle style="fill:#FFFFFF;" cx="62.3" cy="23" r="10"/>
	<path style="fill:#FFFFFF;" d="M83.02,73.14c1.8-0.65,2.74-2.7,2.12-4.57l-9.27-27.01C74.66,37.83,69.02,35,62.24,35
		c-6.76,0-12.38,2.81-13.63,6.52l-9.16,27.05c-0.63,1.87,0.32,3.91,2.12,4.57c1.8,0.65,3.76-0.33,4.39-2.2l5.51-17.62
		c0.1-0.3,0.53-0.23,0.53,0.09v51.11c0,2.47,1.93,4.48,4.31,4.48s4.31-2.01,4.31-4.48V72.53c0-0.99,0.77-1.79,1.72-1.79
		s1.72,0.8,1.72,1.79v31.99c0,2.47,1.93,4.48,4.31,4.48s4.31-2.01,4.31-4.48V53.44c0-0.32,0.43-0.39,0.53-0.09l5.42,17.59
		C79.26,72.81,81.23,73.79,83.02,73.14L83.02,73.14z"/>
	<path style="fill:#68ABE6;" d="M39.7,12.9c0-2.3-1.6-3-10.8-2.7c-7.7,0.3-11.5,1.2-13.8,4c-1.9,2.3-2.3,5.6-2.6,8.4
		c-0.2,2.2-2.2,14.9,3.5,11.2c0.68-0.45,1.23-1.07,1.6-1.8c1.2-2.1,1.9-3.5,3.3-5.6C26.2,17.8,39.7,15.9,39.7,12.9z"/>
</g>
</svg>
