<svg enable-background="new 0 0 128 128" viewBox="0 0 128 128" xmlns="http://www.w3.org/2000/svg"><linearGradient id="c" x1="64" x2="64" y1="-.3333" y2="128.1" gradientUnits="userSpaceOnUse"><stop stop-color="#FFEB3B" offset="0"/><stop stop-color="#FFDC28" offset=".419"/><stop stop-color="#FFC107" offset=".9954"/></linearGradient><path d="m116 124h-104c-4.42 0-8-3.58-8-8v-104c0-4.42 3.58-8 8-8h104c4.42 0 8 3.58 8 8v104c0 4.42-3.58 8-8 8z" fill="url(#c)"/><g opacity=".2"><path d="m116 7c2.76 0 5 2.24 5 5v104c0 2.76-2.24 5-5 5h-104c-2.76 0-5-2.24-5-5v-104c0-2.76 2.24-5 5-5h104m0-3h-104c-4.42 0-8 3.58-8 8v104c0 4.42 3.58 8 8 8h104c4.42 0 8-3.58 8-8v-104c0-4.42-3.58-8-8-8z" fill="#424242"/></g><g fill="#424242" opacity=".2"><path d="m18.92 36c0.05 0 0.1 0 0.15 0.01 2.4 0.18 5.1 0.33 7.1 0.33h26.88c1.33 0 2.9-0.03 4.25-0.08h0.07c1.11 0 2 0.91 1.97 2.03-0.05 1.63-0.08 3.51-0.08 4.99v43.75c0 2.12 0.08 4.84 0.19 6.9 0.05 1.12-0.85 2.07-1.98 2.07h-4.95c-1.11 0-2-0.91-1.97-2.02 0-0.17 0.01-0.34 0.01-0.52 0.03-1.11-0.86-2.03-1.97-2.03h-23.05c-2.42 0-5.24 0.09-7.47 0.21h-0.11c-1.08 0-1.97-0.88-1.97-1.97v-5.35c0-1.1 0.89-1.97 1.97-1.97h0.13c2.09 0.14 4.62 0.27 7.12 0.27h23.49c1.09 0 1.97-0.88 1.97-1.97v-33.8c0-1.09-0.88-1.97-1.97-1.97h-22.52c-2.27 0-5.04 0.09-7.18 0.17h-0.08c-1.08 0-1.97-0.88-1.97-1.97v-5.11c0-1.09 0.89-1.97 1.97-1.97m0-3c-2.74 0-4.97 2.23-4.97 4.97v5.11c0 2.74 2.23 4.97 4.97 4.97h0.19c2.99-0.11 5.3-0.17 7.06-0.17h21.49v31.74h-22.44c-1.98 0-4.18-0.09-6.92-0.27-0.11-0.01-0.22-0.01-0.33-0.01-2.74 0-4.97 2.23-4.97 4.97v5.35c0 2.74 2.23 4.97 4.97 4.97 0.09 0 0.17 0 0.26-0.01 2.46-0.13 5.19-0.21 7.31-0.21h22.02c0.09 1.15 0.58 2.23 1.4 3.07 0.94 0.97 2.21 1.5 3.56 1.5h4.95c1.35 0 2.67-0.56 3.6-1.54s1.43-2.33 1.36-3.68c-0.11-2.18-0.18-4.83-0.18-6.74v-43.74c0-1.32 0.03-3.11 0.08-4.9 0.04-1.35-0.46-2.64-1.4-3.61-0.93-0.96-2.23-1.51-3.57-1.51h-0.17c-1.44 0.05-2.95 0.08-4.15 0.08h-26.86c-1.71 0-4.15-0.11-6.88-0.32-0.13-0.02-0.26-0.02-0.38-0.02z"/><path d="m71.48 36c0.05 0 0.1 0 0.15 0.01 2.4 0.18 5.1 0.33 7.1 0.33h26.88c1.33 0 2.9-0.03 4.25-0.08h0.07c1.11 0 2 0.91 1.97 2.03-0.05 1.63-0.08 3.51-0.08 4.99v43.75c0 2.12 0.08 4.84 0.19 6.9 0.06 1.13-0.84 2.07-1.97 2.07h-4.95c-1.11 0-2-0.91-1.97-2.02 0-0.17 0.01-0.34 0.01-0.52 0.03-1.11-0.86-2.03-1.97-2.03h-23.06c-2.42 0-5.24 0.09-7.47 0.21h-0.11c-1.08 0-1.97-0.88-1.97-1.97v-5.35c0-1.1 0.89-1.97 1.97-1.97h0.13c2.09 0.14 4.62 0.27 7.12 0.27h23.48c1.09 0 1.97-0.88 1.97-1.97v-33.8c0-1.09-0.88-1.97-1.97-1.97h-22.52c-2.27 0-5.04 0.09-7.18 0.17h-0.08c-1.08 0-1.97-0.88-1.97-1.97v-5.11c0.01-1.09 0.9-1.97 1.98-1.97m0-3c-2.74 0-4.97 2.23-4.97 4.97v5.11c0 2.74 2.23 4.97 4.97 4.97h0.19c2.99-0.11 5.3-0.17 7.06-0.17h21.49v31.74h-22.44c-1.98 0-4.18-0.09-6.92-0.27-0.11-0.01-0.22-0.01-0.33-0.01-2.74 0-4.97 2.23-4.97 4.97v5.35c0 2.74 2.23 4.97 4.97 4.97 0.09 0 0.17 0 0.26-0.01 2.46-0.13 5.19-0.21 7.31-0.21h22.02c0.09 1.15 0.58 2.23 1.4 3.07 0.94 0.97 2.21 1.5 3.56 1.5h4.95c1.35 0 2.67-0.56 3.6-1.54s1.43-2.33 1.36-3.68c-0.11-2.18-0.18-4.83-0.18-6.74v-43.74c0-1.32 0.03-3.11 0.08-4.9 0.04-1.35-0.46-2.64-1.4-3.61-0.93-0.96-2.23-1.51-3.57-1.51h-0.17c-1.44 0.05-2.95 0.08-4.15 0.08h-26.87c-1.71 0-4.15-0.11-6.88-0.32-0.12-0.02-0.25-0.02-0.37-0.02z"/></g><linearGradient id="b" x1="37.722" x2="37.722" y1="35" y2="103.52" gradientUnits="userSpaceOnUse"><stop stop-color="#424242" offset="0"/><stop stop-color="#212121" offset="1"/></linearGradient><path d="m50.55 93.98c0-0.17 0.01-0.34 0.01-0.52 0.03-1.11-0.86-2.03-1.97-2.03h-23.05c-2.42 0-5.24 0.09-7.47 0.21-1.13 0.06-2.07-0.84-2.07-1.97v-5.35c0-1.14 0.96-2.04 2.1-1.97 2.09 0.14 4.62 0.27 7.12 0.27h23.48c1.09 0 1.97-0.88 1.97-1.97v-33.8c0-1.09-0.88-1.97-1.97-1.97h-22.52c-2.27 0-5.04 0.09-7.18 0.17-1.12 0.04-2.05-0.85-2.05-1.97v-5.11c0-1.15 0.97-2.05 2.12-1.97 2.4 0.18 5.1 0.33 7.1 0.33h26.88c1.33 0 2.9-0.03 4.25-0.08 1.14-0.04 2.07 0.89 2.04 2.03-0.05 1.63-0.08 3.51-0.08 4.99v43.75c0 2.12 0.08 4.84 0.19 6.9 0.05 1.13-0.85 2.08-1.98 2.08h-4.95c-1.11 0-2-0.91-1.97-2.02z" fill="url(#b)"/><linearGradient id="a" x1="90.278" x2="90.278" y1="35" y2="103.52" gradientUnits="userSpaceOnUse"><stop stop-color="#424242" offset="0"/><stop stop-color="#212121" offset="1"/></linearGradient><path d="m103.11 93.98c0-0.17 0.01-0.34 0.01-0.52 0.03-1.11-0.86-2.03-1.97-2.03h-23.05c-2.42 0-5.24 0.09-7.47 0.21-1.13 0.06-2.07-0.84-2.07-1.97v-5.35c0-1.14 0.96-2.04 2.1-1.97 2.09 0.14 4.62 0.27 7.12 0.27h23.48c1.09 0 1.97-0.88 1.97-1.97v-33.8c0-1.09-0.88-1.97-1.97-1.97h-22.53c-2.27 0-5.04 0.09-7.18 0.17-1.12 0.04-2.05-0.85-2.05-1.97v-5.11c0-1.15 0.97-2.05 2.12-1.97 2.4 0.18 5.1 0.33 7.1 0.33h26.88c1.33 0 2.9-0.03 4.25-0.08 1.14-0.04 2.07 0.89 2.04 2.03-0.05 1.63-0.08 3.51-0.08 4.99v43.75c0 2.12 0.08 4.84 0.19 6.9 0.06 1.13-0.84 2.07-1.97 2.07h-4.95c-1.11 0.01-2-0.9-1.97-2.01z" fill="url(#a)"/></svg>
