<svg width="128" height="128" style="enable-background:new 0 0 128 128;" xmlns="http://www.w3.org/2000/svg" xmlns:xlink="http://www.w3.org/1999/xlink">
  <g id="Layer_2">
    <g>
      <linearGradient id="SVGID_1_" gradientTransform="matrix(0.9132 0.4075 -0.4075 0.9132 35.957 -31.4523)" gradientUnits="userSpaceOnUse" x1="66.6659" x2="66.6659" y1="130.6795" y2="26.6332">
        <stop offset="0.101" style="stop-color:#CC403D"/>
        <stop offset="0.7948" style="stop-color:#EF5350"/>
      </linearGradient>
      <path d="M83.37,18.87L42.43,112.2c-0.47,1.08,0.04,2.35,1.15,2.85s2.4,0.03,2.89-1.05L88.6,21.2 L83.37,18.87z" style="fill:url(#SVGID_1_);"/>
      <g style="opacity:0.2;">
        <path d="M83.88,20.19l3.4,1.51l-41.71,91.88c-0.18,0.4-0.6,0.66-1.06,0.66c-0.18,0-0.35-0.04-0.51-0.11 c-0.61-0.27-0.89-0.96-0.64-1.53L83.88,20.19 M83.37,18.87L42.43,112.2c-0.47,1.08,0.04,2.35,1.15,2.85 c0.3,0.13,0.61,0.2,0.92,0.2c0.83,0,1.61-0.46,1.97-1.24L88.6,21.2L83.37,18.87L83.37,18.87z" style="fill:#424242;"/>
      </g>
      <linearGradient id="SVGID_2_" gradientTransform="matrix(0.9132 0.4075 -0.4075 0.9132 35.957 -31.4523)" gradientUnits="userSpaceOnUse" x1="66.6669" x2="66.6669" y1="21.9726" y2="2.5027">
        <stop offset="0.2892" style="stop-color:#212121"/>
        <stop offset="1" style="stop-color:#616161"/>
      </linearGradient>
      <path d="M94.52,8.2c0.68-1.49,0.02-3.26-1.47-3.94c-1.51-0.69-3.29-0.01-3.96,1.51l-6.62,15.09 l5.23,2.34L94.52,8.2z" style="fill:url(#SVGID_2_);"/>
      <g style="opacity:0.2;">
        <path d="M91.82,5c0.28,0,0.56,0.06,0.82,0.18c0.99,0.45,1.43,1.62,0.98,2.61l-6.4,14.1l-3.42-1.53 l6.22-14.18C90.32,5.46,91.03,5,91.82,5 M91.82,4c-1.14,0-2.24,0.66-2.72,1.78l-6.62,15.09l5.23,2.34l6.81-15 c0.68-1.49,0.02-3.26-1.47-3.94C92.65,4.09,92.23,4,91.82,4L91.82,4z" style="fill:#EEEEEE;"/>
      </g>
    </g>
    <g>
      <linearGradient id="SVGID_3_" gradientTransform="matrix(0.794 0.608 -0.608 0.794 59.6229 -40.2482)" gradientUnits="userSpaceOnUse" x1="83.0825" x2="83.0825" y1="130.41" y2="26.3638">
        <stop offset="0.101" style="stop-color:#CC403D"/>
        <stop offset="0.7948" style="stop-color:#EF5350"/>
      </linearGradient>
      <path d="M107.28,29.45l-61.45,81.31c-0.71,0.94-0.5,2.3,0.46,3.04s2.33,0.58,3.05-0.35l62.48-80.51 L107.28,29.45z" style="fill:url(#SVGID_3_);"/>
      <g style="opacity:0.2;">
        <path d="M107.47,30.86l2.95,2.26l-61.87,79.72c-0.21,0.27-0.54,0.43-0.9,0.43c-0.27,0-0.54-0.09-0.76-0.26 c-0.53-0.4-0.65-1.14-0.27-1.64L107.47,30.86 M107.28,29.45l-61.45,81.31c-0.71,0.94-0.5,2.3,0.46,3.04 c0.41,0.31,0.89,0.47,1.37,0.47c0.64,0,1.27-0.28,1.69-0.81l62.48-80.51L107.28,29.45L107.28,29.45z" style="fill:#424242;"/>
      </g>
      <linearGradient id="SVGID_5_" gradientTransform="matrix(0.794 0.608 -0.608 0.794 59.6229 -40.2482)" gradientUnits="userSpaceOnUse" x1="83.0835" x2="83.0835" y1="21.7032" y2="2.2333">
        <stop offset="0.2892" style="stop-color:#212121"/>
        <stop offset="1" style="stop-color:#616161"/>
      </linearGradient>
      <path d="M120.6,21.66c1.01-1.3,0.77-3.16-0.52-4.17c-1.31-1.02-3.2-0.77-4.2,0.55l-9.93,13.15 l4.55,3.48L120.6,21.66z" style="fill:url(#SVGID_5_);"/>
      <g style="opacity:0.2;">
        <path d="M118.26,17.87c0.44,0,0.86,0.14,1.21,0.42c0.86,0.67,1.01,1.91,0.35,2.77l-9.49,12.23L107.35,31 l9.33-12.35C117.06,18.15,117.63,17.87,118.26,17.87 M118.26,16.87c-0.9,0-1.79,0.41-2.37,1.18l-9.93,13.15l4.55,3.48l10.1-13.02 c1.01-1.3,0.77-3.16-0.52-4.17C119.54,17.07,118.9,16.87,118.26,16.87L118.26,16.87z" style="fill:#EEEEEE;"/>
      </g>
    </g>
    <linearGradient id="SVGID_6_" gradientUnits="userSpaceOnUse" x1="63.2495" x2="63.2495" y1="81.3914" y2="35.658">
      <stop offset="0.1614" style="stop-color:#BDBDBD"/>
      <stop offset="0.6091" style="stop-color:#EEEEEE"/>
    </linearGradient>
    <path d="M90.19,44.36l-13.75-7.22c-0.59-0.31-1.24-0.47-1.91-0.47h-3.7c-0.91,0-1.37-1.1-0.73-1.75 c0.7-0.7,1.34-1.38,1.33-1.48c-0.19-4.36-3.78-7.84-8.19-7.84s-8,3.48-8.19,7.84c0,0.11,0.63,0.78,1.33,1.48 c0.64,0.65,0.19,1.75-0.73,1.75h-3.7c-0.66,0-1.32,0.16-1.91,0.47l-13.75,7.22c-0.76,0.4-1.37,1.03-1.76,1.79l-8.19,16.35 l1.47,8.84h70.86l1.47-8.84l-8.19-16.35C91.57,45.39,90.95,44.76,90.19,44.36z" style="fill:url(#SVGID_6_);"/>
    <g style="opacity:0.2;">
      <path d="M63.25,28.61c2.42,0,4.46,1.64,5.04,3.9c-0.09,0.09-0.19,0.2-0.31,0.31 c-1.15,1.16-1.49,2.88-0.86,4.38c0.63,1.5,2.08,2.48,3.71,2.48h3.7c0.18,0,0.35,0.04,0.51,0.13l13.75,7.22 c0.2,0.11,0.37,0.27,0.47,0.48l7.76,15.47l-0.89,5.37H30.36l-0.89-5.37l7.76-15.47c0.1-0.21,0.27-0.37,0.47-0.48l13.75-7.22 c0.16-0.08,0.33-0.13,0.51-0.13h3.7c1.63,0,3.09-0.97,3.71-2.48c0.63-1.51,0.29-3.23-0.86-4.38c-0.11-0.12-0.22-0.22-0.31-0.31 C58.79,30.25,60.83,28.61,63.25,28.61 M63.25,25.61c-4.41,0-8,3.48-8.19,7.84c0,0.11,0.63,0.78,1.33,1.48 c0.64,0.65,0.19,1.75-0.73,1.75h-3.7c-0.66,0-1.32,0.16-1.91,0.47l-13.75,7.22c-0.76,0.4-1.37,1.03-1.76,1.79l-8.19,16.35 l1.47,8.84h70.86l1.47-8.84l-8.19-16.35c-0.38-0.77-1-1.39-1.76-1.79l-13.75-7.22c-0.59-0.31-1.24-0.47-1.91-0.47h-3.7 c-0.91,0-1.37-1.1-0.73-1.75c0.7-0.7,1.34-1.38,1.33-1.48C71.25,29.09,67.66,25.61,63.25,25.61L63.25,25.61z" style="fill:#444444;"/>
    </g>
    <path d="M31.44,68.4L7.22,44.18c-0.6-0.6-0.6-1.57,0-2.17h0c0.6-0.6,1.57-0.6,2.17,0l24.22,24.22 c0.6,0.6,0.6,1.57,0,2.17h0C33.01,69,32.04,69,31.44,68.4z" style="fill:#BDBDBD;"/>
    <path d="M93.65,68.4L93.65,68.4c-0.6-0.6-0.6-1.57,0-2.17l24.22-24.22c0.6-0.6,1.57-0.6,2.17,0l0,0 c0.6,0.6,0.6,1.57,0,2.17L95.83,68.4C95.23,69,94.26,69,93.65,68.4z" style="fill:#BDBDBD;"/>
    <linearGradient id="SVGID_7_" gradientUnits="userSpaceOnUse" x1="63.2495" x2="63.2495" y1="124" y2="62.5323">
      <stop offset="0.1251" style="stop-color:#E0E0E0"/>
      <stop offset="0.4377" style="stop-color:#F5F5F5"/>
    </linearGradient>
    <path d="M86.42,124H40.07c-2,0-3.71-1.45-4.04-3.43l-9.68-58.04h73.79l-9.68,58.04 C90.14,122.55,88.43,124,86.42,124z" style="fill:url(#SVGID_7_);"/>
    <g style="opacity:0.2;">
      <path d="M96.6,65.53l-9.1,54.55c-0.09,0.53-0.54,0.92-1.08,0.92H40.07c-0.54,0-1-0.39-1.08-0.92l-9.1-54.55 H96.6 M100.15,62.53H26.35l9.68,58.04c0.33,1.98,2.04,3.43,4.04,3.43h46.35c2,0,3.71-1.45,4.04-3.43L100.15,62.53L100.15,62.53z" style="fill:#444444;"/>
    </g>
    <g>
      <path d="M84.33,112.36v1.1H42.68l0-1.1c0-1.14,0.68-2.13,1.63-2.38l0,0c3.79-1,7.69-1.5,11.61-1.5h15.17 c3.92,0,7.82,0.5,11.61,1.5h0C83.66,110.22,84.33,111.21,84.33,112.36z" style="fill:#EF5350;"/>
      <g>
        <path d="M75.1,86.59H51.93c-0.63,0-0.86-0.98-0.32-1.36l0,0c3.24-2.29,7.12-3.52,11.09-3.52h1.63 c3.97,0,7.85,1.23,11.09,3.52v0C75.97,85.61,75.73,86.59,75.1,86.59z" style="fill:#EF5350;"/>
        <path d="M55.84,84.15v10.2h3.72c-0.64,0-1.16-0.83-1.16-1.84c0-1.02,0.52-1.84,1.16-1.84h7.92 c0.64,0,1.16,0.83,1.16,1.84c0,1.02-0.52,1.84-1.16,1.84h3.72v-10.2H55.84z" style="fill:#EF5350;"/>
        <path d="M52.14,84.3l3.05,2.29h-3.04c-0.69,0-1.31-0.4-1.59-1.03l0,0C50.13,84.57,51.28,83.66,52.14,84.3z " style="fill:#EF5350;"/>
        <path d="M74.88,84.3l-3.05,2.29h3.04c0.69,0,1.31-0.4,1.59-1.03h0C76.89,84.57,75.74,83.66,74.88,84.3z" style="fill:#EF5350;"/>
      </g>
      <g>
        <path d="M53.27,98.8v9.77h20.48V98.8H53.27z M70.03,107.37H56.99c-0.64,0-1.16-0.83-1.16-1.84 c0-1.02,0.52-1.84,1.16-1.84h13.04c0.64,0,1.16,0.83,1.16,1.84C71.19,106.55,70.67,107.37,70.03,107.37z" style="fill:#EF5350;"/>
        <path d="M78.62,98.8H48.39c-0.63,0-0.86-0.98-0.32-1.36l0,0c3.25-2.29,7.13-3.52,11.1-3.52h8.67 c3.96,0,7.83,1.22,11.08,3.51l0.02,0.02C79.49,97.82,79.26,98.8,78.62,98.8z" style="fill:#EF5350;"/>
        <path d="M48.4,96.51l3.05,2.29h-3.04c-0.69,0-1.31-0.4-1.59-1.03l0,0C46.38,96.79,47.54,95.87,48.4,96.51z " style="fill:#EF5350;"/>
        <path d="M78.62,96.51l-3.05,2.29h3.04c0.69,0,1.31-0.4,1.59-1.03l0,0C80.63,96.79,79.48,95.87,78.62,96.51 z" style="fill:#EF5350;"/>
      </g>
      <g>
        <line style="fill:none;stroke:#EF5350;stroke-linecap:round;stroke-linejoin:round;stroke-miterlimit:10;" x1="63.51" x2="63.51" y1="76.2" y2="69.5"/>
        <path d="M69.44,78.16H57.58c-0.4,0-0.57-0.59-0.26-0.87l2.91-2.68c0.93-0.86,2.09-1.33,3.28-1.33h0 c1.19,0,2.34,0.47,3.28,1.33l2.91,2.68C70,77.57,69.83,78.16,69.44,78.16z" style="fill:#EF5350;"/>
        <path d="M59.76,77.05v4.92h3.63c-0.64,0-1.16-0.83-1.16-1.84c0-1.02,0.52-1.84,1.16-1.84h0.24 c0.64,0,1.16,0.83,1.16,1.84c0,1.02-0.52,1.84-1.16,1.84h3.63v-4.92H59.76z" style="fill:#EF5350;"/>
        <path d="M57.79,75.87l3.05,2.29h-3.04c-0.69,0-1.31-0.4-1.59-1.03l0,0 C55.78,76.15,56.94,75.23,57.79,75.87z" style="fill:#EF5350;"/>
        <path d="M69.22,75.87l-3.05,2.29h3.04c0.69,0,1.31-0.4,1.59-1.03v0C71.23,76.15,70.08,75.23,69.22,75.87z" style="fill:#EF5350;"/>
      </g>
    </g>
  </g>
  <g id="レイヤー_1" style="display:none;">
    <g style="display:inline;">
      <g style="opacity:0.6;">
        <circle cx="64" cy="64" r="28" style="opacity:0.61;fill:none;stroke:#000000;stroke-width:0.2625;stroke-miterlimit:10;"/>
        <line style="opacity:0.61;fill:none;stroke:#000000;stroke-width:0.25;stroke-miterlimit:10;" x1="84" x2="84" y1="0" y2="128"/>
        <line style="opacity:0.61;fill:none;stroke:#000000;stroke-width:0.25;stroke-miterlimit:10;" x1="44" x2="44" y1="0" y2="128"/>
        <line style="opacity:0.61;fill:none;stroke:#000000;stroke-width:0.25;stroke-miterlimit:10;" x1="64" x2="64" y1="0" y2="128"/>
        <line style="opacity:0.61;fill:none;stroke:#000000;stroke-width:0.25;stroke-miterlimit:10;" x1="128" x2="0" y1="64" y2="64"/>
        <line style="opacity:0.61;fill:none;stroke:#000000;stroke-width:0.25;stroke-miterlimit:10;" x1="128" x2="0" y1="44" y2="44"/>
        <line style="opacity:0.61;fill:none;stroke:#000000;stroke-width:0.25;stroke-miterlimit:10;" x1="128" x2="0" y1="83.75" y2="83.75"/>
        <line style="opacity:0.61;fill:none;stroke:#000000;stroke-width:0.25;stroke-miterlimit:10;" x1="128" x2="0" y1="128" y2="0"/>
        <line style="opacity:0.61;fill:none;stroke:#000000;stroke-width:0.25;stroke-miterlimit:10;" x1="0" x2="128" y1="128" y2="0"/>
        <g style="opacity:0.61;">
          <path d="M64,4.26c32.94,0,59.74,26.8,59.74,59.74S96.94,123.74,64,123.74S4.26,96.94,4.26,64S31.06,4.26,64,4.26 M64,4 C30.86,4,4,30.86,4,64s26.86,60,60,60s60-26.86,60-60S97.14,4,64,4L64,4z"/>
        </g>
        <path d="M107.97,115.97H20.03 c-4.42,0-8.03-3.61-8.03-8.03V20.03c0-4.42,3.61-8.03,8.03-8.03h87.94c4.42,0,8.03,3.61,8.03,8.03v87.91 C116,112.36,112.39,115.97,107.97,115.97z" style="opacity:0.61;fill:none;stroke:#000000;stroke-width:0.2578;stroke-miterlimit:10;"/>
        <path d="M100,124H28c-4.4,0-8-3.6-8-8 V12c0-4.4,3.6-8,8-8h72c4.4,0,8,3.6,8,8v104C108,120.4,104.4,124,100,124z" style="opacity:0.61;fill:none;stroke:#000000;stroke-width:0.2628;stroke-miterlimit:10;"/>
        <path d="M113.77,108H14.23 C8.6,108,4,103.4,4,97.77V30.28c0-5.63,4.6-10.23,10.23-10.23h99.54c5.63,0,10.23,4.6,10.23,10.23v67.48 C124,103.4,119.4,108,113.77,108z" style="opacity:0.61;fill:none;stroke:#000000;stroke-width:0.2627;stroke-miterlimit:10;"/>
      </g>
      <g>
        <g style="opacity:0.2;">
          <defs>
            <rect id="SVGID_4_" height="128" style="opacity:0.2;" width="128" x="0" y="0"/>
          </defs>
          <clipPath id="SVGID_8_">
            <use style="overflow:visible;" xlink:href="#SVGID_4_"/>
          </clipPath>
          <g style="clip-path:url(#SVGID_8_);">
            <g>
              <line style="fill:none;stroke:#000000;stroke-width:0.25;stroke-miterlimit:10;" x1="-28" x2="-28" y1="160" y2="-32"/>
              <line style="fill:none;stroke:#000000;stroke-width:0.25;stroke-miterlimit:10;" x1="-24" x2="-24" y1="160" y2="-32"/>
              <line style="fill:none;stroke:#000000;stroke-width:0.25;stroke-miterlimit:10;" x1="-20" x2="-20" y1="160" y2="-32"/>
              <line style="fill:none;stroke:#000000;stroke-width:0.25;stroke-miterlimit:10;" x1="-16" x2="-16" y1="160" y2="-32"/>
              <line style="fill:none;stroke:#000000;stroke-width:0.25;stroke-miterlimit:10;" x1="-12" x2="-12" y1="160" y2="-32"/>
              <line style="fill:none;stroke:#000000;stroke-width:0.25;stroke-miterlimit:10;" x1="-8" x2="-8" y1="160" y2="-32"/>
              <line style="fill:none;stroke:#000000;stroke-width:0.25;stroke-miterlimit:10;" x1="-4" x2="-4" y1="160" y2="-32"/>
              <line style="fill:none;stroke:#000000;stroke-width:0.25;stroke-miterlimit:10;" x1="0" x2="0" y1="160" y2="-32"/>
              <line style="fill:none;stroke:#000000;stroke-width:0.25;stroke-miterlimit:10;" x1="4" x2="4" y1="160" y2="-32"/>
              <line style="fill:none;stroke:#000000;stroke-width:0.25;stroke-miterlimit:10;" x1="8" x2="8" y1="160" y2="-32"/>
              <line style="fill:none;stroke:#000000;stroke-width:0.25;stroke-miterlimit:10;" x1="12" x2="12" y1="160" y2="-32"/>
              <line style="fill:none;stroke:#000000;stroke-width:0.25;stroke-miterlimit:10;" x1="16" x2="16" y1="160" y2="-32"/>
              <line style="fill:none;stroke:#000000;stroke-width:0.25;stroke-miterlimit:10;" x1="20" x2="20" y1="160" y2="-32"/>
              <line style="fill:none;stroke:#000000;stroke-width:0.25;stroke-miterlimit:10;" x1="24" x2="24" y1="160" y2="-32"/>
              <line style="fill:none;stroke:#000000;stroke-width:0.25;stroke-miterlimit:10;" x1="28" x2="28" y1="160" y2="-32"/>
              <line style="fill:none;stroke:#000000;stroke-width:0.25;stroke-miterlimit:10;" x1="32" x2="32" y1="160" y2="-32"/>
              <line style="fill:none;stroke:#000000;stroke-width:0.25;stroke-miterlimit:10;" x1="36" x2="36" y1="160" y2="-32"/>
              <line style="fill:none;stroke:#000000;stroke-width:0.25;stroke-miterlimit:10;" x1="40" x2="40" y1="160" y2="-32"/>
              <line style="fill:none;stroke:#000000;stroke-width:0.25;stroke-miterlimit:10;" x1="44" x2="44" y1="160" y2="-32"/>
              <line style="fill:none;stroke:#000000;stroke-width:0.25;stroke-miterlimit:10;" x1="48" x2="48" y1="160" y2="-32"/>
              <line style="fill:none;stroke:#000000;stroke-width:0.25;stroke-miterlimit:10;" x1="52" x2="52" y1="160" y2="-32"/>
              <line style="fill:none;stroke:#000000;stroke-width:0.25;stroke-miterlimit:10;" x1="56" x2="56" y1="160" y2="-32"/>
              <line style="fill:none;stroke:#000000;stroke-width:0.25;stroke-miterlimit:10;" x1="60" x2="60" y1="160" y2="-32"/>
              <line style="fill:none;stroke:#000000;stroke-width:0.25;stroke-miterlimit:10;" x1="64" x2="64" y1="160" y2="-32"/>
              <line style="fill:none;stroke:#000000;stroke-width:0.25;stroke-miterlimit:10;" x1="68" x2="68" y1="160" y2="-32"/>
              <line style="fill:none;stroke:#000000;stroke-width:0.25;stroke-miterlimit:10;" x1="72" x2="72" y1="160" y2="-32"/>
              <line style="fill:none;stroke:#000000;stroke-width:0.25;stroke-miterlimit:10;" x1="76" x2="76" y1="160" y2="-32"/>
              <line style="fill:none;stroke:#000000;stroke-width:0.25;stroke-miterlimit:10;" x1="80" x2="80" y1="160" y2="-32"/>
              <line style="fill:none;stroke:#000000;stroke-width:0.25;stroke-miterlimit:10;" x1="84" x2="84" y1="160" y2="-32"/>
              <line style="fill:none;stroke:#000000;stroke-width:0.25;stroke-miterlimit:10;" x1="88" x2="88" y1="160" y2="-32"/>
              <line style="fill:none;stroke:#000000;stroke-width:0.25;stroke-miterlimit:10;" x1="92" x2="92" y1="160" y2="-32"/>
              <line style="fill:none;stroke:#000000;stroke-width:0.25;stroke-miterlimit:10;" x1="96" x2="96" y1="160" y2="-32"/>
              <line style="fill:none;stroke:#000000;stroke-width:0.25;stroke-miterlimit:10;" x1="100" x2="100" y1="160" y2="-32"/>
              <line style="fill:none;stroke:#000000;stroke-width:0.25;stroke-miterlimit:10;" x1="104" x2="104" y1="160" y2="-32"/>
              <line style="fill:none;stroke:#000000;stroke-width:0.25;stroke-miterlimit:10;" x1="108" x2="108" y1="160" y2="-32"/>
              <line style="fill:none;stroke:#000000;stroke-width:0.25;stroke-miterlimit:10;" x1="112" x2="112" y1="160" y2="-32"/>
              <line style="fill:none;stroke:#000000;stroke-width:0.25;stroke-miterlimit:10;" x1="116" x2="116" y1="160" y2="-32"/>
              <line style="fill:none;stroke:#000000;stroke-width:0.25;stroke-miterlimit:10;" x1="120" x2="120" y1="160" y2="-32"/>
              <line style="fill:none;stroke:#000000;stroke-width:0.25;stroke-miterlimit:10;" x1="124" x2="124" y1="160" y2="-32"/>
              <line style="fill:none;stroke:#000000;stroke-width:0.25;stroke-miterlimit:10;" x1="128" x2="128" y1="160" y2="-32"/>
              <line style="fill:none;stroke:#000000;stroke-width:0.25;stroke-miterlimit:10;" x1="132" x2="132" y1="160" y2="-32"/>
              <line style="fill:none;stroke:#000000;stroke-width:0.25;stroke-miterlimit:10;" x1="136" x2="136" y1="160" y2="-32"/>
              <line style="fill:none;stroke:#000000;stroke-width:0.25;stroke-miterlimit:10;" x1="137" x2="137" y1="166.05" y2="-25.95"/>
              <line style="fill:none;stroke:#000000;stroke-width:0.25;stroke-miterlimit:10;" x1="144" x2="144" y1="160" y2="-32"/>
              <line style="fill:none;stroke:#000000;stroke-width:0.25;stroke-miterlimit:10;" x1="148" x2="148" y1="160" y2="-32"/>
              <line style="fill:none;stroke:#000000;stroke-width:0.25;stroke-miterlimit:10;" x1="152" x2="152" y1="160" y2="-32"/>
              <line style="fill:none;stroke:#000000;stroke-width:0.25;stroke-miterlimit:10;" x1="156" x2="156" y1="160" y2="-32"/>
            </g>
            <g>
              <line style="fill:none;stroke:#000000;stroke-width:0.25;stroke-miterlimit:10;" x1="-32" x2="160" y1="-28" y2="-28"/>
              <line style="fill:none;stroke:#000000;stroke-width:0.25;stroke-miterlimit:10;" x1="-32" x2="160" y1="-24" y2="-24"/>
              <line style="fill:none;stroke:#000000;stroke-width:0.25;stroke-miterlimit:10;" x1="-32" x2="160" y1="-20" y2="-20"/>
              <line style="fill:none;stroke:#000000;stroke-width:0.25;stroke-miterlimit:10;" x1="-32" x2="160" y1="-16" y2="-16"/>
              <line style="fill:none;stroke:#000000;stroke-width:0.25;stroke-miterlimit:10;" x1="-32" x2="160" y1="-12" y2="-12"/>
              <line style="fill:none;stroke:#000000;stroke-width:0.25;stroke-miterlimit:10;" x1="-32" x2="160" y1="-8" y2="-8"/>
              <line style="fill:none;stroke:#000000;stroke-width:0.25;stroke-miterlimit:10;" x1="-32" x2="160" y1="-4" y2="-4"/>
              <line style="fill:none;stroke:#000000;stroke-width:0.25;stroke-miterlimit:10;" x1="-32" x2="160" y1="0" y2="0"/>
              <line style="fill:none;stroke:#000000;stroke-width:0.25;stroke-miterlimit:10;" x1="-32" x2="160" y1="4" y2="4"/>
              <line style="fill:none;stroke:#000000;stroke-width:0.25;stroke-miterlimit:10;" x1="-32" x2="160" y1="8" y2="8"/>
              <line style="fill:none;stroke:#000000;stroke-width:0.25;stroke-miterlimit:10;" x1="-32" x2="160" y1="12" y2="12"/>
              <line style="fill:none;stroke:#000000;stroke-width:0.25;stroke-miterlimit:10;" x1="-32" x2="160" y1="16" y2="16"/>
              <line style="fill:none;stroke:#000000;stroke-width:0.25;stroke-miterlimit:10;" x1="-32" x2="160" y1="20" y2="20"/>
              <line style="fill:none;stroke:#000000;stroke-width:0.25;stroke-miterlimit:10;" x1="-32" x2="160" y1="24" y2="24"/>
              <line style="fill:none;stroke:#000000;stroke-width:0.25;stroke-miterlimit:10;" x1="-32" x2="160" y1="28" y2="28"/>
              <line style="fill:none;stroke:#000000;stroke-width:0.25;stroke-miterlimit:10;" x1="-32" x2="160" y1="32" y2="32"/>
              <line style="fill:none;stroke:#000000;stroke-width:0.25;stroke-miterlimit:10;" x1="-32" x2="160" y1="36" y2="36"/>
              <line style="fill:none;stroke:#000000;stroke-width:0.25;stroke-miterlimit:10;" x1="-32" x2="160" y1="40" y2="40"/>
              <line style="fill:none;stroke:#000000;stroke-width:0.25;stroke-miterlimit:10;" x1="-32" x2="160" y1="44" y2="44"/>
              <line style="fill:none;stroke:#000000;stroke-width:0.25;stroke-miterlimit:10;" x1="-32" x2="160" y1="48" y2="48"/>
              <line style="fill:none;stroke:#000000;stroke-width:0.25;stroke-miterlimit:10;" x1="-32" x2="160" y1="52" y2="52"/>
              <line style="fill:none;stroke:#000000;stroke-width:0.25;stroke-miterlimit:10;" x1="-32" x2="160" y1="56" y2="56"/>
              <line style="fill:none;stroke:#000000;stroke-width:0.25;stroke-miterlimit:10;" x1="-32" x2="160" y1="60" y2="60"/>
              <line style="fill:none;stroke:#000000;stroke-width:0.25;stroke-miterlimit:10;" x1="-32" x2="160" y1="64" y2="64"/>
              <line style="fill:none;stroke:#000000;stroke-width:0.25;stroke-miterlimit:10;" x1="-32" x2="160" y1="68" y2="68"/>
              <line style="fill:none;stroke:#000000;stroke-width:0.25;stroke-miterlimit:10;" x1="-32" x2="160" y1="72" y2="72"/>
              <line style="fill:none;stroke:#000000;stroke-width:0.25;stroke-miterlimit:10;" x1="-32" x2="160" y1="76" y2="76"/>
              <line style="fill:none;stroke:#000000;stroke-width:0.25;stroke-miterlimit:10;" x1="-32" x2="160" y1="80" y2="80"/>
              <line style="fill:none;stroke:#000000;stroke-width:0.25;stroke-miterlimit:10;" x1="-32" x2="160" y1="84" y2="84"/>
              <line style="fill:none;stroke:#000000;stroke-width:0.25;stroke-miterlimit:10;" x1="-32" x2="160" y1="88" y2="88"/>
              <line style="fill:none;stroke:#000000;stroke-width:0.25;stroke-miterlimit:10;" x1="-32" x2="160" y1="92" y2="92"/>
              <line style="fill:none;stroke:#000000;stroke-width:0.25;stroke-miterlimit:10;" x1="-32" x2="160" y1="96" y2="96"/>
              <line style="fill:none;stroke:#000000;stroke-width:0.25;stroke-miterlimit:10;" x1="-32" x2="160" y1="100" y2="100"/>
              <line style="fill:none;stroke:#000000;stroke-width:0.25;stroke-miterlimit:10;" x1="-32" x2="160" y1="104" y2="104"/>
              <line style="fill:none;stroke:#000000;stroke-width:0.25;stroke-miterlimit:10;" x1="-32" x2="160" y1="108" y2="108"/>
              <line style="fill:none;stroke:#000000;stroke-width:0.25;stroke-miterlimit:10;" x1="-32" x2="160" y1="112" y2="112"/>
              <line style="fill:none;stroke:#000000;stroke-width:0.25;stroke-miterlimit:10;" x1="-32" x2="160" y1="116" y2="116"/>
              <line style="fill:none;stroke:#000000;stroke-width:0.25;stroke-miterlimit:10;" x1="-32" x2="160" y1="120" y2="120"/>
              <line style="fill:none;stroke:#000000;stroke-width:0.25;stroke-miterlimit:10;" x1="-32" x2="160" y1="124" y2="124"/>
              <line style="fill:none;stroke:#000000;stroke-width:0.25;stroke-miterlimit:10;" x1="-32" x2="160" y1="128" y2="128"/>
              <line style="fill:none;stroke:#000000;stroke-width:0.25;stroke-miterlimit:10;" x1="-32" x2="160" y1="132" y2="132"/>
              <line style="fill:none;stroke:#000000;stroke-width:0.25;stroke-miterlimit:10;" x1="-32" x2="160" y1="136" y2="136"/>
              <line style="fill:none;stroke:#000000;stroke-width:0.25;stroke-miterlimit:10;" x1="-32" x2="160" y1="140" y2="140"/>
              <line style="fill:none;stroke:#000000;stroke-width:0.25;stroke-miterlimit:10;" x1="-32" x2="160" y1="144" y2="144"/>
              <line style="fill:none;stroke:#000000;stroke-width:0.25;stroke-miterlimit:10;" x1="-32" x2="160" y1="148" y2="148"/>
              <line style="fill:none;stroke:#000000;stroke-width:0.25;stroke-miterlimit:10;" x1="-32" x2="160" y1="152" y2="152"/>
              <line style="fill:none;stroke:#000000;stroke-width:0.25;stroke-miterlimit:10;" x1="-32" x2="160" y1="156" y2="156"/>
            </g>
            <path d="M159.75-31.75v191.5h-191.5v-191.5H159.75 M160-32H-32v192h192V-32L160-32z"/>
          </g>
        </g>
        <g>
          <rect height="128" style="opacity:0.3;fill:#EF4438;" width="4" x="0" y="0"/>
          <rect height="128" style="opacity:0.3;fill:#EF4438;" width="4" x="124" y="0"/>
          <rect height="120" style="opacity:0.3;fill:#EF4438;" transform="matrix(-1.836970e-16 1 -1 -1.836970e-16 66 -62)" width="4" x="62" y="-58"/>
          <rect height="120" style="opacity:0.3;fill:#EF4438;" transform="matrix(-1.836970e-16 1 -1 -1.836970e-16 190 62)" width="4" x="62" y="66"/>
        </g>
      </g>
    </g>
  </g>
</svg>