<svg enable-background="new 0 0 128 128" viewBox="0 0 128 128" xmlns="http://www.w3.org/2000/svg" xmlns:xlink="http://www.w3.org/1999/xlink"><defs><rect id="n" x="4" y="4" width="120" height="120"/></defs><clipPath id="a"><use xlink:href="#n"/></clipPath><g clip-path="url(#a)"><linearGradient id="m" x1="64" x2="64" y1="97.5" y2="130.5" gradientUnits="userSpaceOnUse"><stop stop-color="#E3E3E3" offset=".00051609"/><stop stop-color="#C9C9C9" offset="1"/></linearGradient><path d="m13.5 130.5v-9.51c0-17.29 27.21-23.46 50.5-23.49h0.14c13.39 0 25.82 2.15 35.01 6.05 7 2.98 15.35 8.42 15.35 17.44v9.51h-101z" fill="url(#m)"/><path d="m64.14 99c24.28 0 48.86 7.55 48.86 21.99v8.01h-98v-8.01c0-6.95 4.88-12.47 14.52-16.42 8.74-3.58 20.99-5.55 34.48-5.57h0.14m0-3h-0.14c-25.65 0.03-52 7.1-52 24.99v11.01h104v-11.01c0-16.86-26.1-24.99-51.86-24.99z" fill="#BBBDBF"/></g><g clip-path="url(#a)" fill="#B9BBBD"><path d="m62.75 113.81h2.51c6.93 0 12.54-4.44 12.54-9.91v-6.17c-4.32-0.68-8.86-1.02-13.42-1.01-4.79 0.01-9.59 0.35-14.18 1.04v6.13c0 5.48 5.62 9.92 12.55 9.92z"/><rect x="61.78" y="111.5" width="4.54" height="17.95"/></g><path d="m63.17 107.23c-4 0-7.26-3.22-7.26-7.17v-8.98h16.16v8.98c0 3.95-3.25 7.17-7.26 7.17h-1.64z" fill="#EDC391"/><path d="m71.08 92.08v7.98c0 3.4-2.81 6.17-6.26 6.17h-1.65c-3.45 0-6.26-2.77-6.26-6.17v-7.98h14.17m2-2h-18.16v9.98c0 4.51 3.7 8.17 8.26 8.17h1.65c4.56 0 8.26-3.66 8.26-8.17v-9.98h-0.01z" fill="#D9AC77"/><radialGradient id="l" cx="45.448" cy="45.074" r="38.158" gradientTransform="matrix(1.0337 0 0 1.0191 16.969 7.9283)" gradientUnits="userSpaceOnUse"><stop stop-color="#454140" offset="0"/><stop stop-color="#312D2D" offset="1"/></radialGradient><path d="m64 93.36c-22.52 0-38.86-15.01-38.86-35.69 0-20.45 16.62-43.31 38.86-43.31 10.36 0 20.19 4.9 27.68 13.81 7.04 8.37 11.08 19.12 11.08 29.51 0 20.67-16.3 35.68-38.76 35.68z" fill="url(#l)"/><path d="m64 15.86c9.91 0 19.33 4.71 26.53 13.27 6.72 7.98 10.73 18.65 10.73 28.54 0 19.81-15.67 34.19-37.26 34.19-21.65 0-37.36-14.38-37.36-34.19 0-9.88 4.03-20.55 10.78-28.54 7.22-8.55 16.67-13.27 26.58-13.27m0-3c-23.2 0-40.36 23.3-40.36 44.81s17.17 37.19 40.36 37.19c23.2 0 40.26-15.68 40.26-37.19 0-21.5-17.06-44.81-40.26-44.81z" fill="#1F1A1A"/><path d="m36.67 72.26c-5.36 0-9.71-4.67-9.71-10.41s4.36-10.41 9.71-10.41h54.65c5.36 0 9.71 4.67 9.71 10.41s-4.36 10.41-9.71 10.41h-54.65z" fill="#FFD29C"/><path d="m91.33 52.43c4.8 0 8.71 4.22 8.71 9.41s-3.91 9.41-8.71 9.41h-54.66c-4.8 0-8.71-4.22-8.71-9.41s3.91-9.41 8.71-9.41h54.66m0-2h-54.66c-5.89 0-10.71 5.14-10.71 11.41s4.82 11.41 10.71 11.41h54.65c5.89 0 10.71-5.14 10.71-11.41s-4.81-11.41-10.7-11.41z" fill="#EDBD82"/><linearGradient id="k" x1="64" x2="64" y1="94.708" y2="17.886" gradientUnits="userSpaceOnUse"><stop stop-color="#FFD29C" offset="0"/><stop stop-color="#FFD39E" offset=".0237"/><stop stop-color="#FCD8AF" offset=".3158"/><stop stop-color="#FADCBA" offset=".6295"/><stop stop-color="#F9DDBD" offset="1"/></linearGradient><path d="m64 95.27c-2.3 0-4.91-0.5-7.56-1.43-11.34-4.01-24.57-16.34-24.57-37.89 0-28.72 17.31-38.91 32.13-38.91s32.13 10.19 32.13 38.91c0 21.58-13.26 33.9-24.61 37.9-2.63 0.93-5.23 1.42-7.52 1.42z" fill="url(#k)"/><path d="m64 18.04c8.41 0 16.06 3.25 21.55 9.15 6.27 6.73 9.58 16.68 9.58 28.77 0 21.06-12.9 33.07-23.94 36.96-2.53 0.89-5.01 1.36-7.19 1.36-2.19 0-4.69-0.48-7.23-1.38-11.03-3.9-23.9-15.92-23.9-36.94 0-12.09 3.31-22.03 9.58-28.77 5.49-5.9 13.14-9.15 21.55-9.15m0-2c-17.2 0-33.13 12.79-33.13 39.91 0 21.79 13.49 34.67 25.23 38.83 2.8 0.99 5.5 1.49 7.9 1.49 2.38 0 5.07-0.49 7.85-1.47 11.76-4.14 25.28-17.03 25.28-38.84 0-27.13-15.93-39.92-33.13-39.92z" fill="#EDBD82"/><radialGradient id="j" cx="145.61" cy="-22.456" r="45.414" gradientTransform="matrix(.796 0 0 .796 -51.696 19.148)" gradientUnits="userSpaceOnUse"><stop stop-color="#454140" offset="0"/><stop stop-color="#312D2D" offset="1"/></radialGradient><path d="m95.96 57.75c0 4.42-1.92 15.11-1.92 15.11s5.26-4.81 7.33-16.86c2.84-16.51 1.53-47.79-37.3-47.79s-37.96 35.57-37.96 35.57 0 9.72 1.64 15.94c1.3 4.91 5.51 11.75 6.24 13.14-0.84-6.17-0.95-5.78-1.2-12.19-0.26-6.74 0.73-11.8 6.61-13.92 20.79-7.49 35.01-16.89 35.01-16.89 3.29 7.19 12.69 13.8 16.38 16.47 3.04 2.19 5.17 7 5.17 11.42z" fill="url(#j)"/><path d="m67.81 68.05c-0.1-0.04-0.21-0.07-0.32-0.08h-6.99c-0.11 0.01-0.21 0.04-0.32 0.08-0.63 0.26-0.98 0.91-0.68 1.61s1.69 2.66 4.49 2.66 4.19-1.96 4.49-2.66c0.31-0.69-0.03-1.35-0.67-1.61z" fill="#DBA689"/><ellipse cx="47.75" cy="58.87" rx="4.87" ry="5.04" fill="#312D2D"/><ellipse cx="80.25" cy="58.87" rx="4.87" ry="5.04" fill="#312D2D"/><radialGradient id="i" cx="47.752" cy="49.333" r="5.5998" gradientUnits="userSpaceOnUse"><stop stop-color="#454140" offset=".0905"/><stop stop-color="#454140" offset="1"/></radialGradient><path d="m54.98 49.82c-0.93-1.23-3.07-3.01-7.23-3.01s-6.31 1.79-7.23 3.01c-0.41 0.54-0.31 1.17-0.02 1.55 0.26 0.35 1.04 0.68 1.9 0.39s2.54-1.16 5.35-1.18c2.81 0.02 4.49 0.89 5.35 1.18s1.64-0.03 1.9-0.39c0.29-0.38 0.39-1.01-0.02-1.55z" fill="url(#i)"/><radialGradient id="h" cx="80.248" cy="49.333" r="5.5998" gradientUnits="userSpaceOnUse"><stop stop-color="#454140" offset=".0905"/><stop stop-color="#454140" offset="1"/></radialGradient><path d="m87.48 49.82c-0.93-1.23-3.07-3.01-7.23-3.01s-6.31 1.79-7.23 3.01c-0.41 0.54-0.31 1.17-0.02 1.55 0.26 0.35 1.04 0.68 1.9 0.39s2.54-1.16 5.35-1.18c2.81 0.02 4.49 0.89 5.35 1.18s1.64-0.03 1.9-0.39c0.29-0.38 0.39-1.01-0.02-1.55z" fill="url(#h)"/><path d="m72.32 76.14c-3.15 1.87-13.46 1.87-16.61 0-1.81-1.07-3.65 0.57-2.9 2.21 0.74 1.61 6.37 5.36 11.23 5.36s10.42-3.75 11.16-5.36c0.75-1.64-1.08-3.29-2.88-2.21z" fill="#424242"/><defs><path id="e" d="M64.98,39.18c-24.5-5.1-39.73-6.41-44.54-1.87c-0.65-6.69,1.14-11.28,3.04-13.89 c2.18-3.01,6.41-7.14,9.49-9.25C43.88,6.67,53.2,4,64.02,4c10.59,0,23.57,6.24,33.19,12.73c3.09,2.09,5.18,3.69,7.36,6.69 c8.29,11.42-0.32,34.26-0.32,34.26S93.65,45.14,64.98,39.18z"/></defs><use fill="#C4C6C7" xlink:href="#e"/><clipPath id="d"><use xlink:href="#e"/></clipPath><path d="m65.26 41.37c24.5-5.1 40.34-5.86 45.15-1.31 0.65-6.69-1.6-11.83-3.49-14.45-2.18-3.01-4.27-4.6-7.36-6.69-9.63-6.49-22.53-12.73-33.35-12.73-10.59 0-23.57 6.24-33.19 12.73-3.09 2.09-5.18 3.69-7.36 6.69-8.29 11.42 0.32 34.26 0.32 34.26s0.84-3.39 4.76-4.73c-0.09-3.63 5.84-7.8 34.52-13.77z" clip-path="url(#d)" fill="#B9BBBD"/><path d="m107.67 43.89s-6.08-8.44-32.83-16.69c-21.16-6.53-41.84-6.31-50.43-5.19 0 0-0.27 0.23-0.97 1.25 0 0 25.34-2.79 53.64 7.57 10.4 3.81 24.27 8.57 30.01 16.47l0.58-3.41z" clip-path="url(#d)" fill="#B9BBBD"/><linearGradient id="g" x1="64.043" x2="64.043" y1="4.25" y2="56.01" gradientUnits="userSpaceOnUse"><stop stop-color="#eee" offset=".0167"/><stop stop-color="#E3E3E3" offset=".3279"/><stop stop-color="#C5C5C5" offset=".8795"/><stop stop-color="#BDBDBD" offset="1"/></linearGradient><path d="M60.58,40.53c24.61-4.54,39.81-7.4,47.59-3.08 c0.65-6.69-1.56-11.53-3.6-14.03C95.88,12.75,74.69,4,63.87,4c-10.59,0-30.5,5.09-40.55,19.42c-8.11,11.55,0.32,34.26,0.32,34.26 S31.83,45.83,60.58,40.53z" fill="url(#g)"/><path d="m20.23 43.89s6.08-8.44 32.83-16.69c21.15-6.52 41.84-6.31 50.42-5.19 0 0 0.27 0.23 0.97 1.25 0 0-25.34-2.79-53.64 7.57-10.4 3.81-24.27 8.57-30.01 16.47l-0.57-3.41z" fill="#B9BBBD"/><path d="m20.32 30.57s6.64-7.86 24.18-14.71c16.72-6.53 34.6-7.51 39.98-6.35l1.83 0.83c-7.95-0.17-24.84 1-40.14 7.37-7.83 3.26-24.09 12.59-26.36 16.61 0.09-1.27 0.26-2.58 0.51-3.75z" fill="#B9BBBD"/><defs><path id="c" d="M64.98,39.18c-24.5-5.1-39.73-6.41-44.54-1.87c-0.65-6.69,1.14-11.28,3.04-13.89 c2.18-3.01,6.41-7.14,9.49-9.25C43.88,6.67,53.2,4,64.02,4c10.59,0,23.57,6.24,33.19,12.73c3.09,2.09,5.18,3.69,7.36,6.69 c8.29,11.42-0.32,34.26-0.32,34.26S93.65,45.14,64.98,39.18z"/></defs><use fill="#C4C6C7" xlink:href="#c"/><clipPath id="b"><use xlink:href="#c"/></clipPath><path d="m63.58 40.53c29-3.62 32.95-4.63 44.59-0.53 0.65-6.69-0.74-11.44-2.32-14.58-1.67-3.32-3.21-4.4-6.31-6.5-9.61-6.49-22.51-12.73-33.33-12.73-10.59 0-23.57 6.24-33.19 12.73-3.09 2.09-5.18 3.69-7.36 6.69-8.29 11.42-2.02 32.06-2.02 32.06s10.88-13.51 39.94-17.14z" clip-path="url(#b)" fill="#B9BBBD"/><path d="m107.67 43.89s-6.08-8.44-32.83-16.69c-21.16-6.53-41.84-6.31-50.43-5.19 0 0-0.27 0.23-0.97 1.25 0 0 25.34-2.79 53.64 7.57 10.4 3.81 24.27 8.57 30.01 16.47l0.58-3.41z" clip-path="url(#b)" fill="#B9BBBD"/><linearGradient id="f" x1="64.069" x2="64.069" y1="4.25" y2="56.01" gradientUnits="userSpaceOnUse"><stop stop-color="#eee" offset=".0167"/><stop stop-color="#E3E3E3" offset=".3279"/><stop stop-color="#C5C5C5" offset=".8795"/><stop stop-color="#BDBDBD" offset="1"/></linearGradient><path d="m59.75 38.42c8.17-2.33 41.92-5.02 48.48-1.66 0.65-6.69-1.72-10.76-3.66-13.34-8.03-10.67-28.36-19.42-40.7-19.42-13.16 0-30.5 5.09-40.55 19.42-8.11 11.55 0.32 34.26 0.32 34.26s0.18-9 36.11-19.26z" fill="url(#f)"/><path d="m20.23 43.89s6.08-8.44 32.83-16.69c21.15-6.52 41.84-6.31 50.42-5.19 0 0 0.27 0.23 0.97 1.25 0 0-25.34-2.79-53.64 7.57-10.4 3.81-24.27 8.57-30.01 16.47l-0.57-3.41z" fill="#B9BBBD"/><path d="m21.15 29.69s5.81-6.98 23.35-13.83c16.72-6.53 35.08-7.72 40.46-6.56l1.87 0.86c-7.95-0.17-25.36 1.18-40.65 7.54-7.83 3.26-23.67 11.98-25.94 16 0.08-1.26 0.66-2.85 0.91-4.01z" fill="#B9BBBD"/><path d="m63.31 7.01c8.63 0 16.88 2.54 26.74 8.25 4.55 2.63 8.61 5.18 12.23 9.76 5.1 6.45 2.86 19.44 0.6 27.28-4.88-3.98-14.93-10.52-32.02-14.85-0.14-0.04-0.28-0.06-0.42-0.08-0.64-0.07-1.26-0.1-1.91-0.1-1.17 0-2.19 0.11-3.27 0.22l-0.47 0.05c-21.73 2.22-34.09 9.96-39.73 14.62-2.51-8.92-4.42-19.69 0.72-27.02l-0.01 0.01c0.06-0.08 0.12-0.16 0.2-0.27 0.38-0.55 0.55-0.74 0.56-0.75 0.06-0.07 0.12-0.14 0.18-0.21 7.52-9.84 18.14-13.92 25.76-15.63 1.49-0.36 3.08-0.65 4.73-0.87 2.07-0.27 4.12-0.41 6.11-0.41m0-3c-2.11 0-4.27 0.14-6.5 0.44-1.69 0.22-3.38 0.53-5.04 0.93-9.95 2.22-20.29 7.37-27.45 16.73-0.12 0.13-0.38 0.44-0.82 1.07-0.06 0.08-0.13 0.16-0.19 0.25-6.19 8.82-3.56 21.36-0.76 30.92 0.06 0.22 1.17 3.17 1.08 3.33 0.23-0.29 11.43-14.09 41.44-17.14 1.21-0.12 2.27-0.25 3.44-0.25 0.51 0 1.03 0.02 1.59 0.08 24.81 6.29 34.15 17.31 34.15 17.31s9.03-23.55 0.37-34.51c-3.92-4.95-8.29-7.73-13.08-10.5-9.33-5.41-18.17-8.66-28.23-8.66zm-39.67 53.66v0z" fill="#B9BBBD"/></svg>
