<?xml version="1.0" encoding="utf-8"?>
<!-- Generator: Adobe Illustrator 19.2.1, SVG Export Plug-In . SVG Version: 6.00 Build 0)  -->
<svg version="1.1" id="レイヤー_1" xmlns="http://www.w3.org/2000/svg" xmlns:xlink="http://www.w3.org/1999/xlink" x="0px"
	 y="0px" viewBox="0 0 128 128" style="enable-background:new 0 0 128 128;" xml:space="preserve">
<path style="fill:#2F2F2F;" d="M65.23,2.46c-0.77-0.43-1.71-0.43-2.48,0c-2.3,1.3-56.32,32.12-56.32,69.56
	c0,16.59,13.49,30.08,30.07,30.08c7.37,0,14.15-2.69,19.41-7.14c-2.78,16.65-8.45,26.99-8.52,27.12c-0.44,0.79-0.43,1.74,0.02,2.52
	c0.45,0.77,1.28,1.24,2.18,1.24h28.82c0.89,0,1.72-0.47,2.18-1.24c0.45-0.78,0.46-1.73,0.03-2.52c-0.08-0.13-5.74-10.48-8.53-27.13
	c5.26,4.45,12.04,7.14,19.41,7.14c16.58,0,30.07-13.49,30.07-30.08C121.57,34.58,67.54,3.76,65.23,2.46z"/>
</svg>
