<svg xmlns="http://www.w3.org/2000/svg" viewBox="0 0 128 128"><g fill="#e0e0e0"><path d="M55.57 74.05h16.87c.61 0 1.13-.41 1.16-.92l4.6-66.16c.02-.27-.1-.53-.32-.72-.22-.2-.52-.31-.84-.31H50.96c-.32 0-.62.11-.84.31-.21.19-.33.46-.31.72l4.6 66.16c.03.51.54.92 1.16.92zM50.35 108.83c0-2.44.35-4.5 1.05-6.19.7-1.69 1.67-3.05 2.92-4.08 1.24-1.04 2.71-1.79 4.4-2.26 1.68-.46 3.48-.7 5.41-.7 1.82 0 3.54.24 5.18.7 1.63.47 3.07 1.22 4.32 2.26 1.24 1.03 2.23 2.39 2.96 4.08s1.09 3.75 1.09 6.19c0 2.33-.36 4.32-1.09 5.98-.73 1.67-1.71 3.04-2.96 4.13-1.25 1.09-2.68 1.87-4.32 2.37-1.64.49-3.36.74-5.18.74-1.92 0-3.72-.25-5.41-.74-1.69-.5-3.16-1.29-4.4-2.37-1.24-1.1-2.22-2.46-2.92-4.13-.7-1.65-1.05-3.65-1.05-5.98z"/></g></svg>