<svg xmlns="http://www.w3.org/2000/svg" viewBox="0 0 128 128"><path d="M-123.68 18.65c.45-4.72 3.68-8.4 7.2-8.19 3.54.19 6.03 4.2 5.59 8.92-.45 4.73-3.7 8.39-7.22 8.19-3.52-.22-6.03-4.19-5.57-8.92zM-148.86 18.4c-.41-4.4 1.91-8.14 5.21-8.32 3.29-.2 6.3 3.24 6.72 7.64.43 4.41-1.92 8.12-5.19 8.32-3.29.19-6.31-3.23-6.74-7.64zM-119.24 66.68c-1.04 1.76-2.69 3.34-4.42 4.42-3.43 2.15-7.8 2.55-11.57 1.11-1.74-.66-3.31-1.73-4.54-3.12-1.41-1.61-3.09-5.8-.54-7.22 1.53-.86 3.51.19 4.93.79 1.16.49 2.33.81 3.45.95 1.97.26 3.93-.01 6-.84 1.72-.68 3.54-1.69 5.44-.99 1.77.66 2.08 3.48 1.25 4.9z" fill="#fff"/><path d="M-73.5 105.11c-6.16.51-12.63-.79-17.85-4.24-12.98-8.59-9.02-27.15-11.84-40.12-.55-2.55-2.11-5.71-3.63-7.82a20.607 20.607 0 0 0-6.22-5.65c-1.55-.91-3.23-1.63-5-2.19.06-.15.1-.32.17-.47.66-1.57 1.43-3.15 2.01-4.74 2.34-6.41 10.18-8.64 12.65-15.1 1.21-3.14 1.6-7.14.99-10.91 4.15-3.06 17.41-10.99 35.93-3.66 20.8 8.23 28.57 31.71 27.05 51.32-.69 8.69-2.83 15.8-5.54 21.56-1.92 3.82-5.3 8.94-10.26 10.39-3.06.89-6.57.17-9.87-2.04-6.97-4.67-11.8-14.97-13.23-28.27-1.43-13.31 2.68-23.19 7-28 2.02-2.25 4.26-3.55 6.14-3.55 2.85 0 6.01 1.99 7.62 4.22 5.63 7.8 5.73 18.63 3.92 27.73-.76 3.8-3.76 9.69-8.16 5.76-2.06-1.85-2.44-7.56-2.38-10.11.04-2.6.17-5.48 1.03-7.96.23-.68.59-2.26-.3-2.69-1.7-.8-3.69 3.04-4.08 4.01-2.88 7.09-1.74 20.01 6.11 23.56 6.93 3.13 10.68-4.15 12.55-9.41 2.47-7 2.39-14.68.91-21.9-1.81-8.83-6.65-18.9-17.22-18.9-3.55 0-7.23 1.93-10.39 5.44-5.14 5.72-10.06 17.24-8.42 32.43C-81.6 84.31-73 92.91-68.08 96.2c3.31 2.22 6.86 3.36 10.31 3.37-2.23 1.09-4.25 2.67-6.63 3.57-2.92 1.08-6.02 1.7-9.1 1.97z" fill="#fcc21b"/><path d="M-64.2 4.9c-19.19-7.59-33.61-.79-39.86 3.3-1.23-2.3-3-4.21-5.4-5.35-2.97-1.41-8.45-1.09-11.44.12l-.23.1c-4.03 1.72-6.73 4.64-8.34 8.12-1.22-4.24-3.66-8.04-8.03-9.67-12.42-4.65-21.85 6.99-18.42 18.6 1.49 5.05 4.55 9.49 7.7 13.64 1.72 2.26 3.11 4.88 4.11 7.53.19.5 1.16 3.81 1.5 6.02-4.24 3.04-7.28 7.74-9.04 12.69-.39 1.11-.72 2.25-.98 3.42-1.17 5.27-1.04 11.71-.09 17 3.13 17.42 13.93 33.55 29.54 42.06 6.94 3.79 15 5.34 22.87 5.04 9.29-.36 18.5-4.21 26.73-8.29 5.22-2.6 10.9-6.41 15.01-11.17 2.36-1.47 12.08-8.21 18.77-22.18 1.49-2.96 2.24-5.29 2.32-5.53.01-.02 0-.04.01-.07 1.91-5.26 3.36-11.3 3.89-18.29 1.7-21.73-7.11-47.79-30.62-57.09zm-59.48 13.75c.45-4.72 3.68-8.4 7.2-8.19 3.54.19 6.03 4.2 5.59 8.92-.45 4.73-3.7 8.39-7.22 8.19-3.52-.22-6.03-4.19-5.57-8.92zm-8.55 12.85c.6-1.76 1.3-3.51 1.95-5.28 1.08 3.19 3.12 5.89 3.84 9.12.59 2.65.21 5.5-.19 8.26a38.33 38.33 0 0 0-6.63.25c-.14-4.17-.35-8.31 1.03-12.35zm-16.63-13.1c-.41-4.4 1.91-8.14 5.21-8.32 3.29-.2 6.3 3.24 6.72 7.64.43 4.41-1.92 8.12-5.19 8.32-3.29.19-6.31-3.23-6.74-7.64zm29.62 48.28c-1.04 1.76-2.69 3.34-4.42 4.42-3.43 2.15-7.8 2.55-11.57 1.11-1.74-.66-3.31-1.73-4.54-3.12-1.41-1.61-3.09-5.8-.54-7.22 1.53-.86 3.51.19 4.93.79 1.16.49 2.33.81 3.45.95 1.97.26 3.93-.01 6-.84 1.72-.68 3.54-1.69 5.44-.99 1.77.66 2.08 3.48 1.25 4.9zm45.74 38.43c-6.16.51-12.63-.79-17.85-4.24-12.98-8.59-9.02-27.15-11.84-40.12-.55-2.55-2.11-5.71-3.63-7.82a20.607 20.607 0 0 0-6.22-5.65c-1.55-.91-3.23-1.63-5-2.19.06-.15.1-.32.17-.47.66-1.57 1.43-3.15 2.01-4.74 2.34-6.41 10.18-8.64 12.65-15.1 1.21-3.14 1.6-7.14.99-10.91 4.15-3.06 17.41-10.99 35.93-3.66 20.8 8.23 28.57 31.71 27.05 51.32-.69 8.69-2.83 15.8-5.54 21.56-1.92 3.82-5.3 8.94-10.26 10.39-3.06.89-6.57.17-9.87-2.04-6.97-4.67-11.8-14.97-13.23-28.27-1.43-13.31 2.68-23.19 7-28 2.02-2.25 4.26-3.55 6.14-3.55 2.85 0 6.01 1.99 7.62 4.22 5.63 7.8 5.73 18.63 3.92 27.73-.76 3.8-3.76 9.69-8.16 5.76-2.06-1.85-2.44-7.56-2.38-10.11.04-2.6.17-5.48 1.03-7.96.23-.68.59-2.26-.3-2.69-1.7-.8-3.69 3.04-4.08 4.01-2.88 7.09-1.74 20.01 6.11 23.56 6.93 3.13 10.68-4.15 12.55-9.41 2.47-7 2.39-14.68.91-21.9-1.81-8.83-6.65-18.9-17.22-18.9-3.55 0-7.23 1.93-10.39 5.44-5.14 5.72-10.06 17.24-8.42 32.43C-81.6 84.31-73 92.91-68.08 96.2c3.31 2.22 6.86 3.36 10.31 3.37-2.23 1.09-4.25 2.67-6.63 3.57-2.92 1.08-6.02 1.7-9.1 1.97z" fill="#f79329"/><g><path fill="none" d="M54.55 6.98l2.61 8.1M22.07 17.72c-.41-4.41-3.43-7.84-6.72-7.64-3.3.18-5.62 3.92-5.21 8.32.43 4.41 3.45 7.83 6.74 7.64 3.27-.2 5.62-3.91 5.19-8.32zM32.38 43.6c.39-2.76.78-5.61.19-8.26-.72-3.23-2.76-5.93-3.84-9.12-.64 1.77-1.35 3.52-1.95 5.28-1.38 4.04-1.17 8.18-1.03 12.35 2.14-.27 4.38-.36 6.63-.25zM38.52 61.79c-1.89-.69-3.72.31-5.44.99-2.07.83-4.03 1.09-6 .84-1.12-.14-2.29-.46-3.45-.95-1.42-.6-3.4-1.65-4.93-.79-2.56 1.42-.87 5.61.54 7.22 1.23 1.39 2.79 2.46 4.54 3.12 3.78 1.44 8.14 1.03 11.57-1.11 1.72-1.08 3.38-2.66 4.42-4.42.82-1.43.51-4.25-1.25-4.9zM75.18 63.78c-1.64-15.18 3.28-26.71 8.42-32.43 3.16-3.52 6.84-5.44 10.39-5.44 10.57 0 15.41 10.07 17.22 18.9 1.48 7.22 1.55 14.9-.91 21.9-1.87 5.27-5.62 12.54-12.55 9.41-7.85-3.55-8.99-16.47-6.11-23.56.39-.97 2.39-4.81 4.08-4.01.89.43.53 2 .3 2.69-.86 2.48-.99 5.36-1.03 7.96-.05 2.56.33 8.26 2.38 10.11 4.39 3.94 7.4-1.95 8.16-5.76 1.81-9.09 1.71-19.93-3.91-27.73-1.6-2.23-4.77-4.22-7.62-4.22-1.88 0-4.12 1.29-6.14 3.55-4.32 4.81-8.43 14.69-7 28 1.43 13.3 6.26 23.61 13.23 28.27 3.3 2.21 6.81 2.93 9.87 2.04 4.96-1.45 8.34-6.57 10.26-10.39 2.7-5.77 4.85-12.87 5.54-21.56 1.52-19.62-6.25-43.09-27.05-51.32-18.52-7.33-31.78.6-35.93 3.66.61 3.78.22 7.77-.99 10.91-2.47 6.46-10.31 8.69-12.65 15.1-.58 1.6-1.35 3.17-2.01 4.74-.07.15-.11.32-.17.47 1.77.56 3.45 1.28 5 2.19a20.49 20.49 0 0 1 6.22 5.65c1.52 2.11 3.07 5.27 3.63 7.82 2.81 12.97-1.14 31.53 11.84 40.12 5.23 3.45 11.69 4.75 17.85 4.24 3.09-.27 6.18-.89 9.09-1.98 2.38-.89 4.4-2.48 6.63-3.57-3.45-.01-7-1.15-10.31-3.37-4.92-3.28-13.52-11.87-15.73-32.39zM48.11 19.38c.44-4.72-2.05-8.72-5.59-8.92-3.52-.21-6.75 3.47-7.2 8.19-.46 4.72 2.05 8.7 5.56 8.92 3.53.2 6.78-3.46 7.23-8.19z"/><path d="M32.38 43.6c.39-2.76.78-5.61.19-8.26-.72-3.23-2.76-5.93-3.84-9.12-.64 1.77-1.35 3.52-1.95 5.28-1.38 4.04-1.17 8.18-1.03 12.35 2.14-.27 4.38-.36 6.63-.25zM22.07 17.72c-.41-4.41-3.43-7.84-6.72-7.64-3.3.18-5.62 3.92-5.21 8.32.43 4.41 3.45 7.83 6.74 7.64 3.27-.2 5.62-3.91 5.19-8.32zM38.52 61.79c-1.89-.69-3.72.31-5.44.99-2.07.83-4.03 1.09-6 .84-1.12-.14-2.29-.46-3.45-.95-1.42-.6-3.4-1.65-4.93-.79-2.56 1.42-.87 5.61.54 7.22 1.23 1.39 2.79 2.46 4.54 3.12 3.78 1.44 8.14 1.03 11.57-1.11 1.72-1.08 3.38-2.66 4.42-4.42.82-1.43.51-4.25-1.25-4.9zM48.11 19.38c.44-4.72-2.05-8.72-5.59-8.92-3.52-.21-6.75 3.47-7.2 8.19-.46 4.72 2.05 8.7 5.56 8.92 3.53.2 6.78-3.46 7.23-8.19z" fill="none"/><path d="M94.8 4.9c-19.19-7.59-33.61-.8-39.86 3.29L52.2 19.02c-1.38 2.28-14.68 19.84-12.83 29.32 2.23 11.44 12.4 31.15 16.48 44 5.22 16.43 18.42 14.59 20.85 14.83 15 1.5 20.72-5.34 24.17-5.33l11.75-5.28c2.28-2.95 4.57-6.49 6.59-10.71 1.49-2.96 2.24-5.29 2.32-5.53.01-.02 0-.04.01-.07 1.91-5.26 3.36-11.3 3.89-18.29 1.69-21.7-7.12-47.76-30.63-57.06z" fill="#6d4c41"/><path d="M101.22 99.56c-2.23 1.09-4.25 2.67-6.63 3.57-2.91 1.09-6 1.72-9.09 1.98-6.16.51-12.63-.79-17.85-4.24-12.98-8.59-9.02-27.14-11.84-40.12-.55-2.55-2.11-5.71-3.63-7.82a20.607 20.607 0 0 0-6.22-5.65c-1.55-.91-3.23-1.63-5-2.19.06-.15.1-.32.17-.47.66-1.57 1.43-3.15 2.01-4.74 2.34-6.41 10.18-8.64 12.65-15.1 1.21-3.14 1.6-7.14.99-10.91L54.95 8.2c-1.23-2.3-3-4.21-5.4-5.35-2.97-1.41-8.45-1.09-11.44.12l-.23.1c-4.03 1.72-6.73 4.64-8.34 8.12-1.22-4.24-3.66-8.04-8.03-9.67C9.08-3.13-.35 8.5 3.08 20.11c1.49 5.05 4.55 9.49 7.7 13.64 1.72 2.26 3.11 4.88 4.11 7.53.19.5 1.16 3.81 1.5 6.02-4.24 3.04-7.28 7.74-9.04 12.69-.39 1.11-.72 2.25-.98 3.42-1.17 5.27-1.04 11.71-.09 17 3.13 17.42 13.93 33.55 29.54 42.06 6.94 3.79 15 5.34 22.87 5.04 9.29-.36 18.5-4.21 26.73-8.29 5.22-2.6 21.9-15.81 27.2-22.65l-11.4 2.99zM26.77 31.5c.6-1.76 1.3-3.51 1.95-5.28 1.08 3.19 3.12 5.89 3.84 9.12.59 2.65.2 5.5-.19 8.26a38.33 38.33 0 0 0-6.63.25c-.14-4.17-.35-8.31 1.03-12.35zM10.14 18.4c-.41-4.4 1.91-8.14 5.21-8.32 3.29-.2 6.3 3.24 6.72 7.64.43 4.41-1.92 8.12-5.19 8.32-3.29.19-6.31-3.23-6.74-7.64zm29.62 48.28c-1.04 1.76-2.69 3.34-4.42 4.42-3.43 2.15-7.8 2.55-11.57 1.11-1.74-.66-3.31-1.73-4.54-3.12-1.41-1.61-3.09-5.8-.54-7.22 1.53-.86 3.51.19 4.93.79 1.17.49 2.33.81 3.45.95 1.97.26 3.93-.01 6-.84 1.72-.68 3.54-1.69 5.44-.99 1.77.66 2.08 3.48 1.25 4.9zm-4.44-48.03c.45-4.72 3.68-8.4 7.2-8.19 3.54.19 6.03 4.2 5.59 8.92-.45 4.73-3.7 8.39-7.22 8.19-3.52-.22-6.03-4.19-5.57-8.92z" fill="#f79329"/><path d="M10.14 18.4c-.41-4.4 1.91-8.14 5.21-8.32 3.29-.2 6.3 3.24 6.72 7.64.43 4.41-1.92 8.12-5.19 8.32-3.29.19-6.31-3.23-6.74-7.64zM39.76 66.68c-1.04 1.76-2.69 3.34-4.42 4.42-3.43 2.15-7.8 2.55-11.57 1.11-1.74-.66-3.31-1.73-4.54-3.12-1.41-1.61-3.09-5.8-.54-7.22 1.53-.86 3.51.19 4.93.79 1.17.49 2.33.81 3.45.95 1.97.26 3.93-.01 6-.84 1.72-.68 3.54-1.69 5.44-.99 1.77.66 2.08 3.48 1.25 4.9zM35.32 18.65c.45-4.72 3.68-8.4 7.2-8.19 3.54.19 6.03 4.2 5.59 8.92-.45 4.73-3.7 8.39-7.22 8.19-3.52-.22-6.03-4.19-5.57-8.92z" fill="#424242"/></g><path d="M94.08 91.44c-6.97-4.67-11.8-14.97-13.23-28.27-1.43-13.31 2.68-23.19 7-28 2.02-2.25 4.26-3.55 6.14-3.55 2.85 0 6.01 1.99 7.62 4.22 5.63 7.8 5.73 18.63 3.91 27.73-.76 3.8-3.76 9.69-8.16 5.76-2.06-1.85-2.44-7.56-2.38-10.11.04-2.6.17-5.48 1.03-7.96.23-.68.59-2.26-.3-2.69-1.7-.8-3.69 3.04-4.08 4.01-2.88 7.09-1.74 20.01 6.11 23.56 6.93 3.13 10.68-4.15 12.55-9.41 2.47-7 2.39-14.68.91-21.9-1.81-8.83-6.65-18.9-17.22-18.9-3.55 0-7.23 1.93-10.39 5.44-5.14 5.72-10.06 17.24-8.42 32.43 2.21 20.51 10.81 29.11 15.73 32.4 3.31 2.22 6.86 3.36 10.31 3.37l11.4-3c3.5-4.38 7.31-11.03 8.91-16.23-2.82 4.69-5.5 8.17-8.6 10.79-5.24 4.23-15.54 2.52-18.84.31z" fill="#f79329"/></svg>