<svg xmlns="http://www.w3.org/2000/svg" xmlns:xlink="http://www.w3.org/1999/xlink" viewBox="0 0 128 128"><defs><path id="a" d="M127.65 64c0 35.15-28.5 63.65-63.64 63.65C28.85 127.65.35 99.15.35 64 .35 28.84 28.85.35 64 .35S127.65 28.84 127.65 64z"/></defs><use xlink:href="#a" overflow="visible" fill="#006ca2"/><clipPath id="b"><use xlink:href="#a" overflow="visible"/></clipPath><g clip-path="url(#b)" fill="#bdcf46"><path d="M126.39 36.43c-.6-1.33-.92-3-1.68-4.24-1.13-1.84-3.15-3.03-4.41-4.78-1.97-2.74-1.94-6.38-3.81-9.16-1.51-2.26-3.08-4.01-4.87-6.08-1.22-1.42-3.71-4.2-5.31-5.1-1.11-.62-2.61-.59-3.8-.86-2.31-.53-4.66-1.01-6.97-1.5-.68-.15-1.36-.15-2.05-.15-.94 0-1.83.16-2.76.15-3.83-.01-6.89 3.06-10.72 3.15-.86.02-1.69-.02-2.53-.14-1.01-.15-1.43-.6-2.13-1.31-.61-.65-1.33-1.02-2.2-1.24-.84-.21-1.79-.14-2.69-.14-.9 0-1.48 0-2.05-.64-.32-.37-.59-.73-1.08-.9-.46-.16-.87-.04-1.35-.1-2.27-.29-4.36-.17-6.65-.08-2.57.11-4.97 1.12-7.25 2.26-1.95.98-8.25 2.86-8.67 5.3-.18 1.03.21 1.09.95 1.51 1.7.95 3.62 1.25 5.59 1.3.69.02 1.29.17 1.99.17 1.09 0 2.01-.08 2.81-.85.62-.6 1.08-1.33 1.54-2.05.93-1.45 1.94-3.04 3.78-3.36.43-.08.95.03 1.23.41.35.49 0 .92-.19 1.37-.72 1.75-1.04 4.04-2.58 5.32-2.04 1.68-5.4.75-7.75.46-2.52-.31-3.29.03-5.1 1.93-.94 1-1.99 2.02-3.3 2.53-1.17.46-2.38-.22-3.5.18-.42.15-.63.52-1.15.24-.42-.22-.56-.72-.45-1.16.12-.48.32-.67.39-1.16.23-1.6-.68-2.27-1.6-3.42-.31-.4-.35-.65-.86-.87-1.09-.47-1.86-.12-2.42.81-.27.44-.51 1.01-.95 1.31-.59.4-1.09.08-1.71.23-.67.17-1.42 1.02-1.62 1.66-.09.3-.06 2.48.17 2.53.67.13 1.36.01 2.03.13.2 1.13-.29 2.95.97 3.53.68.32 1.94.61 2.64.28.43-.2 1.47-1.57 2-1.13.82.71.23 2.51-.01 3.4-.37 1.33-1.68 1.18-2.84 1.09-.46-.03-.91-.11-1.37-.18-.39-.06-.81-.44-1.2-.43-.91.02-1.64 1.89-1.9 2.58-.46 1.22-.87 3.06-.23 4.3.68 1.32 1.97.9 3.21 1.03 1.25.13 2.32.21 3.56-.14.93-.26 1.94-.86 2.66-1.54 1.92-1.84 8.74-8.35 10.44-3.05.35 1.09.05 2.35.49 3.39.74 1.8 2.71-.01 3.46-.8 1.63-1.7 1.14-1.87-.08-3.37-.68-.84-.21-1.86.79-1.95 1.9-.17 2.75 1.44 3.46 2.92.31.65.36 1.6 1.05 1.93.69.34 1.81.41 2.54.2 1.1-.32 1.62-1.36 2.8-1.47.8-.08 1.48.3 2.12.71.54.34.82.73.76 1.39-.04.53-.41.9-.29 1.44.21.89 1.17 1.39 1.98 1.56 1.9.4 3.82-.28 5.69-.49 1-.11 1.89.07 2.69.71 1.15.93 1.91 2.71.67 3.91-1.05 1.01-3.81.53-5.13.53-2.63 0-5.55-1.43-8.15-.66-.77.23-1.51.5-2.27.78-2.57.98-6.13 1.09-8.7.09-2.03-.8-5.38-2.28-6.92-3.85-.51-.53-.65-1.1-1.38-1.51-1.46-.81-3.22-.48-4.72.04-2.12.73-4.44 1.29-6.45 2.15-2.84 1.22-6.83 4.06-8.68 6.54-2.23 2.98-3.5 7.64-4.12 11.19-.3 1.76-1.13 3.3-.69 5.21.46 1.91 1.32 4.54 2.54 5.99 2.58 3.06 6.18 4.25 10.08 3.98 3.49-.25 7.21-.97 10.39.95 3.46 2.09 3.84 5.84 4.98 9.33.98 2.98 2.67 5.27 2.61 8.52-.05 3.58-1.09 7.33.72 10.67 1.6 2.94 3.17 6.85 5.93 8.89 3.42 2.51 10.74 3.05 13.86-.08 1.34-1.34 2.74-3.25 3.68-4.9 1.13-1.97 1.45-4.09 2.39-6.01.89-1.84 3.01-2.89 3.93-4.76.75-1.51 1.03-3.54.96-5.22-.06-1.77-.82-3.06-.86-4.78-.07-2.24.14-3.61 1.71-5.24 2.98-3.08 16.08-11.79 6.58-14.61-3.2-.95-4.59-2.76-6.68-5.27-1.81-2.17-3.48-4.31-5.01-6.61-1.05-1.59-2-3.43-2.42-5.3-.32-1.47 1.05-3.01 2.46-1.65.62.6 1.19 1.79 1.58 2.51 1.09 2.08 2.49 3.79 3.83 5.64 1.74 2.43 3.43 5.73 6.19 7.12 4.36 2.18 16.51-8.54 8.91-10.44-1.44-.36-3.02-.65-4.18-1.66-.75-.65-2.67-3.26-1.22-3.8.51-.2 1-.28 1.54-.16.52.11 1.11.56 1.55.82.65.39 1.16.84 1.74 1.32.48.39 1.01.61 1.55.91.6.33 1.12.87 1.73 1.17 1.79.86 3.7.39 5.57.59 1.79.2 3.47 1.46 4.47 2.92 2.31 3.39 2.11 6.68 3.14 10.43.52 1.87 1.65 3.4 3.9 3.5 2.22.1 2.99-2.08 3.04-3.94.04-1.61-.29-3.48.33-4.88.68-1.52 2.02-2.35 3.26-3.37 3.14-2.61 4.74-5.32 4.68-9.47-.05-2.87-1.45-4.53-2.63-7.1zm-50.31-6.79c-.27-.11-.55-.2-.88-.25-.37-.06-.62-.17-1.02-.1-.45.07-.91.25-1.35.33-.48.09-.96.48-1.47.35-1.62-.41.1-3.19.77-3.75.62-.51 1.33-.56 2.1-.6 1.16-.06 2.03-.73 3.14-.06.28.17.45.39.64.64.36.51.54 1.09.8 1.66.21.48.34 1.01.35 1.53.01 1.25-1.21 1.06-2.01.73-.4-.17-.73-.34-1.07-.48zm16.02 3.74c-1.03-.71-1.64-2.05-1.84-3.2-.1-.6-.17-1.21-.28-1.79-.11-.54-.06-1.23.31-1.67.29-.33.97-.51 1.4-.49 1.32.06 1.03 1.79 1.75 2.47.64.6 1.62 1.24 1.84 2.14.31 1.34-.65 3.37-2.28 2.96-.33-.1-.63-.24-.9-.42z"/><path d="M90.25 92.24c-1.16-.46-2.55.38-3.45 1.04-.44.32-.94.61-1.35.95-.5.4-.6 1.05-.77 1.64-.2.72-.65 1.41-.75 2.12-.26 1.75-.05 4.61 2.52 4.16 1.84-.32 3.01-2.56 3.67-4.07.37-.82 1.47-5.31.13-5.84z"/></g></svg>