<svg enable-background="new 0 0 128 128" viewBox="0 0 128 128" xmlns="http://www.w3.org/2000/svg"><path d="m13.06 20.01c4.69-0.9 10.59-2.48 13.73-6.07 0.88-1 1.61-1.61 2.12-1.88 0.52-0.26 0.09 2.84-0.42 3.52-1.09 1.46-0.57 2.09 0.17 3.75 0.21 0.47 1.41 2.51 1.25 3-0.35 1.08-2.55 1.16-3.97 0.94-2.65-0.4-7.59 1.29-11.84 0.42-2.53-0.52-3.38-1.37-3.52-2.26-0.2-1.3 1.55-1.24 2.48-1.42z" fill="#FFC107" stroke="#BF6C00" stroke-linecap="round" stroke-linejoin="round" stroke-miterlimit="10" stroke-width="2"/><path d="m77.38 102.85c-0.14 0.89-0.46 1.96-1.34 2.17-0.48 0.12-0.98-0.07-1.44-0.25-2.61-1.04-5.22-2.09-7.83-3.13 0.81 0.74 1.7 1.76 1.34 2.79-0.32 0.94-1.46 1.26-2.43 1.44-3.58 0.69-7.16 1.37-10.74 2.06 2.62-0.08 5.26 0.56 7.56 1.82 1.42 0.78 2.84 2.08 2.72 3.69-0.1 1.31-1.18 2.3-2.18 3.15 4.77-1.74 9.53-3.49 14.3-5.23 0.97-0.35 1.96-0.73 2.71-1.44 0.9-0.86 1.33-2.12 1.45-3.36s-0.03-2.49-0.11-3.73c-0.24-4.03 0.31-8.1 1.63-11.92 0.37-1.06 0.79-2.23 0.34-3.26-0.76-1.75-5.15-2.4-5.72-0.25-0.34 1.29 0.28 3.28 0.34 4.62 0.08 1.68 0.08 3.36 0 5.04-0.09 1.95-0.29 3.88-0.6 5.79z" fill="#FFC107" stroke="#BF6C00" stroke-linecap="round" stroke-linejoin="round" stroke-miterlimit="10" stroke-width="1.9408"/><path d="m103.92 99.5c4.51-0.07 5.62-0.61 8.62-1.44-4.85-7.6-15.15-32.54-38.89-40.29-11.05-3.6-19.6-2.68-20.07-3.94-0.6-1.62-0.91-3.38-0.94-5.18-0.02-1.14 0.08-2.25 0.27-3.35 0.76-4.5 2.95-8.74 4.17-13.22 1.54-5.67 1.72-12.41-1.11-17.5s-8.73-8.35-14.31-8.78c-5.59-0.43-11.81 2.48-14.57 7.61 0 0-3.72 10.04 7.22 13.42 8.69 2.69 8.21 6.59 7.11 11.38-0.23 1-1.41 3.01-3.06 5.79-1.36 2.29-3.04 5.11-4.77 8.32-10.8 19.84 2.96 36.76 12.79 41.99 8.37 4.45 20.23 7.69 36.85 8.12 3.71 0.09 7.65 0.05 11.85-0.15 2.34 0.75 5.84 0.77 8.24 0.65-1.24-1.26-3.6-2.49-4.84-3.76 1.32 0.47 4.05 0.35 5.44 0.33z" fill="none" stroke="#A67C52" stroke-linecap="round" stroke-linejoin="round" stroke-miterlimit="10" stroke-width="4"/><path d="m49.35 122.97c-0.38 0-0.74-0.23-0.9-0.6-0.18-0.43-0.02-0.94 0.37-1.19 0.41-0.26 0.84-0.45 1.22-0.61 0.79-0.34 1.12-0.52 1.2-0.88 0.28-1.35-1.34-2.67-1.84-3.03-1.98-1.46-4.33-2.37-6.78-2.61-0.5-0.05-0.88-0.48-0.87-0.99s0.41-0.92 0.91-0.95l10.92-0.63c0.66-0.04 1.57-0.14 1.79-0.58 0.13-0.25 0.08-0.79-0.84-1.89-0.3-0.36-0.3-0.88 0-1.24 0.19-0.23 0.47-0.35 0.75-0.35 0.16 0 0.33 0.04 0.47 0.12l7.36 4.13c0.23 0.13 0.57 0.32 0.78 0.32 0.23-0.02 0.55-0.38 0.82-1.29 0.54-1.81 0.99-3.67 1.33-5.54 0.29-1.62 0.51-3.27 0.65-4.9 0.03-0.41 0.02-0.93 0-1.47-0.04-1.15-0.07-2.44 0.34-3.44 0.44-1.07 1.49-1.68 2.88-1.68 1.83 0 4.12 1.12 4.59 2.78 0.4 1.42-0.26 2.75-0.8 3.82-1.77 3.54-2.84 7.42-3.11 11.3-0.02 0.27-0.03 0.53-0.05 0.8-0.06 1-0.12 2.03-0.36 3.06-0.26 1.14-0.87 2.7-2.25 3.71-1.01 0.74-2.25 1.01-3.24 1.23-2.51 0.56-5.12 0.94-7.64 1.3-2.49 0.36-5.05 0.73-7.5 1.28-0.06 0.01-0.13 0.02-0.2 0.02z" fill="#FFC107"/><path d="m69.9 94.64c1.51 0 3.33 0.91 3.66 2.07 0.31 1.08-0.27 2.18-0.77 3.19-1.81 3.61-2.89 7.57-3.18 11.6-0.09 1.24-0.1 2.5-0.38 3.71s-0.87 2.41-1.87 3.14c-0.83 0.61-1.87 0.84-2.87 1.07-4.95 1.1-10.18 1.48-15.13 2.58 1.1-0.71 2.58-0.82 2.85-2.11 0.33-1.58-0.91-3.06-2.21-4.01-2.11-1.55-4.65-2.53-7.26-2.8l10.92-0.63c0.99-0.06 2.16-0.23 2.6-1.11 0.49-0.98-0.26-2.1-0.96-2.94 2.45 1.38 4.9 2.75 7.36 4.13 0.39 0.22 0.81 0.44 1.25 0.44 0.05 0 0.09 0 0.14-0.01 0.9-0.1 1.36-1.11 1.61-1.98 0.56-1.85 1.01-3.74 1.35-5.64 0.3-1.65 0.52-3.32 0.66-5 0.11-1.34-0.24-3.39 0.27-4.63 0.3-0.75 1.08-1.07 1.96-1.07m0-1.94c-1.78 0-3.19 0.85-3.78 2.28-0.49 1.19-0.45 2.6-0.41 3.84 0.02 0.52 0.03 1.01 0 1.36-0.13 1.61-0.35 3.22-0.63 4.81-0.33 1.83-0.77 3.66-1.3 5.43-0.05 0.18-0.11 0.32-0.15 0.43-0.02-0.01-0.03-0.02-0.05-0.03l-7.36-4.13c-0.3-0.17-0.63-0.25-0.95-0.25-0.56 0-1.12 0.24-1.5 0.7-0.6 0.72-0.59 1.77 0.01 2.49 0.3 0.36 0.46 0.61 0.56 0.77-0.17 0.04-0.42 0.07-0.82 0.1l-10.92 0.63c-1.01 0.06-1.81 0.88-1.83 1.9-0.02 1.01 0.74 1.87 1.74 1.97 2.28 0.23 4.46 1.07 6.3 2.43 0.89 0.66 1.47 1.43 1.48 1.94-0.16 0.09-0.44 0.21-0.64 0.3-0.42 0.18-0.89 0.38-1.37 0.69-0.79 0.51-1.1 1.51-0.74 2.38 0.31 0.73 1.02 1.19 1.79 1.19 0.14 0 0.28-0.02 0.42-0.05 2.4-0.54 4.96-0.91 7.42-1.26 2.54-0.37 5.16-0.75 7.71-1.32 1.08-0.24 2.42-0.54 3.59-1.39 1.28-0.93 2.19-2.41 2.62-4.27 0.26-1.11 0.32-2.19 0.38-3.23 0.02-0.26 0.03-0.52 0.05-0.79 0.27-3.75 1.3-7.51 2.98-10.87l0.03-0.06c0.58-1.16 1.37-2.74 0.87-4.52-0.59-2.17-3.27-3.47-5.5-3.47z" fill="#BF6C00"/><linearGradient id="c" x1="42.332" x2="42.332" y1="5.817" y2="45.383" gradientUnits="userSpaceOnUse"><stop stop-color="#587380" offset=".0058024"/><stop stop-color="#263238" offset="1"/></linearGradient><path d="m52.91 45.31c0.76-4.5 2.95-8.74 4.17-13.22 1.54-5.67 1.72-12.41-1.11-17.5s-8.73-8.36-14.32-8.79-11.81 2.48-14.57 7.61c0 0-3.72 10.04 7.22 13.43 8.69 2.69 8.21 6.59 7.11 11.38-0.23 1-1.41 3.01-3.06 5.79 4.04 4.16 10.09 3.76 14.56 1.3z" fill="url(#c)"/><path d="m53.58 53.83c-0.6-1.62-0.91-3.38-0.94-5.18-0.02-1.14 0.08-2.25 0.27-3.35-4.48 2.46-10.53 2.86-14.55-1.3-1.36 2.29-3.04 5.11-4.77 8.32 5.63 4.64 13.88 4.35 19.99 1.51z" fill="#E6E6E6"/><linearGradient id="b" x1="71.097" x2="71.097" y1="52.331" y2="102.43" gradientUnits="userSpaceOnUse"><stop stop-color="#A67C52" offset=".0030572"/><stop stop-color="#3E2723" offset="1"/></linearGradient><path d="m73.65 57.77c-11.05-3.6-19.6-2.68-20.07-3.94-4.63 2.15-15.72 2-19.98-1.5-10.8 19.84 2.96 36.76 12.79 41.99 8.37 4.45 20.23 7.69 36.85 8.12 3.71 0.09 7.65 0.05 11.85-0.15 2.34 0.75 5.84 0.77 8.24 0.65-1.24-1.26-3.6-2.49-4.84-3.76 1.31 0.46 4.05 0.34 5.43 0.32 4.51-0.07 5.62-0.61 8.62-1.44-4.85-7.6-15.14-32.54-38.89-40.29z" fill="url(#b)"/><path d="m86.1 92.82c10.07 3.27 22.79 2.67 22.79 2.67s-11.28-12.22-19.28-17.74c-5.75-3.97-23.63-0.6-22.67 2.32 1.28 3.91 2.78 7.43 19.16 12.75z" fill="#689F38"/><linearGradient id="a" x1="55.554" x2="104.1" y1="63.711" y2="96.522" gradientUnits="userSpaceOnUse"><stop stop-color="#C69C6D" offset=".0047161"/><stop stop-color="#754C24" offset="1"/></linearGradient><path d="m59.36 59.13c-6.66 1.93-9.84 11.87-2.79 19.14 16.25 16.74 38.76 11.69 42.85 13.03s8.38 3.07 8.38 3.07-29.04-40.89-48.44-35.24z" fill="url(#a)"/><circle cx="38.1" cy="16.25" r="5.24" fill="#fff"/><circle cx="37.3" cy="16.25" r="2.39"/></svg>
