<?xml version="1.0" encoding="utf-8" standalone="no"?>
<svg xmlns:dc="http://purl.org/dc/elements/1.1/" xmlns:cc="http://creativecommons.org/ns#" xmlns:rdf="http://www.w3.org/1999/02/22-rdf-syntax-ns#" xmlns:svg="http://www.w3.org/2000/svg" xmlns="http://www.w3.org/2000/svg" xmlns:sodipodi="http://sodipodi.sourceforge.net/DTD/sodipodi-0.dtd" xmlns:inkscape="http://www.inkscape.org/namespaces/inkscape" width="128" height="128" style="enable-background:new 0 0 128 128;" version="1.1" id="svg28" inkscape:version="0.92.3 (2405546, 2018-03-11)">
  <metadata id="metadata34">
    
  </metadata>
  <defs id="defs32"/>
  
  <path style="opacity:1;fill:#3e99ff;fill-opacity:1;stroke:none;stroke-width:1;stroke-linecap:butt;stroke-linejoin:miter;stroke-miterlimit:4;stroke-dasharray:none;stroke-dashoffset:0;stroke-opacity:1;" d="M 7.4,0 C 26.266667,0 44.55806,0.958789 63.424727,0.958789 82.291393,0.958789 101.73333,0 120.6,0 c 4.0996,0 7.4,3.3004 7.4,7.4 0,18.866667 -0.57527,30.446538 -0.57527,49.313205 0,18.866667 0.57527,45.020125 0.57527,63.886795 0,4.0996 -3.3004,7.4 -7.4,7.4 -18.86667,0 -35.240482,-1.91758 -54.107149,-1.91758 C 47.626184,126.08242 26.266667,128 7.4,128 3.3004,128 0,124.6996 0,120.6 0,101.73333 0.958789,81.907878 0.958789,63.041211 0.958789,44.174545 0,26.266667 0,7.4 0,3.3004 3.3004,0 7.4,0 Z" id="rect840"/>
  <path style="fill:#2089ff;fill-opacity:1;stroke:none;stroke-width:1px;stroke-linecap:butt;stroke-linejoin:miter;stroke-opacity:1" d="M 126.01367,2.355469 C 88.072971,47.261678 32.924164,78.603781 1.742187,125.37305 3.097531,126.97965 5.124311,128 7.400391,128 c 18.866667,0 40.22513,-1.91797 59.091797,-1.91797 18.866666,0 35.240752,1.91797 54.107422,1.91797 4.0996,0 7.40039,-3.30079 7.40039,-7.40039 0,-18.86667 -0.57617,-45.020052 -0.57617,-63.886719 0,-18.866667 0.57617,-30.445833 0.57617,-49.3125 0,-1.955407 -0.75603,-3.724575 -1.98633,-5.044922 z" id="path855"/>
  <path style="fill:#ffffff" d="M 10.890625 11.509766 C 10.480625 11.509766 10.150391 11.840234 10.150391 12.240234 L 10.150391 20.830078 C 10.150391 21.230078 10.490625 21.550781 10.890625 21.550781 L 53.259766 21.550781 C 53.669766 21.550781 53.990234 21.230078 53.990234 20.830078 L 54 20.830078 L 54 12.240234 C 54 11.830234 53.669531 11.509766 53.269531 11.509766 L 10.890625 11.509766 z M 10.890625 28.849609 C 10.480625 28.849609 10.150391 29.180078 10.150391 29.580078 L 10.150391 38.169922 C 10.150391 38.579922 10.490625 38.900391 10.890625 38.900391 L 26.720703 38.900391 L 26.720703 55.939453 C 26.720703 56.349453 27.049219 56.669922 27.449219 56.669922 L 36.710938 56.669922 C 37.110938 56.669922 37.439453 56.339453 37.439453 55.939453 L 37.439453 38.900391 L 53.259766 38.900391 C 53.669766 38.900391 53.990234 38.569922 53.990234 38.169922 L 54 38.169922 L 54 29.580078 C 54 29.170078 53.669531 28.849609 53.269531 28.849609 L 10.890625 28.849609 z " id="rect2"/>
  <path style="fill:#ffffff;stroke-width:0.93700778" d="m 104.6307,77.105932 -0.49595,0.261704 -9.586029,14.655387 c 0.02811,-0.318583 0.08418,-0.618425 0.08418,-0.937008 0,-6.03433 -4.319606,-10.916507 -11.244094,-10.916507 -6.915117,0 -11.244093,4.882177 -11.244093,10.916507 0,6.02496 4.328976,10.907355 11.244093,10.907355 2.089528,0 3.898026,-0.48687 5.462829,-1.26459 l -10.343687,15.80651 -0.02928,0.60027 0.516086,0.30929 h 10.916507 l 0.495956,-0.27268 7.609527,-11.87182 c 0,0.0937 -0.02928,0.17898 -0.02928,0.27268 0,6.03433 4.328755,10.91468 11.253245,10.91468 6.91511,0 11.24387,-4.88079 11.25324,-10.89638 0,-6.034325 -4.32897,-10.916502 -11.24409,-10.916502 -1.92087,0 -3.61634,0.40328 -5.09681,1.077925 l 11.36671,-17.746414 0.0183,-0.591121 -0.51608,-0.309286 z m -21.241889,9.679364 c 2.726693,0 4.432487,1.920719 4.432487,4.300719 0,2.38 -1.696424,4.30072 -4.432487,4.30072 -2.726692,0 -4.432486,-1.92072 -4.432486,-4.30072 10e-7,-2.38 1.705794,-4.300719 4.432486,-4.300719 z m 25.851899,14.496164 c 2.72669,0 4.43248,1.92072 4.43248,4.30072 0,2.38001 -1.7058,4.30072 -4.43248,4.30072 -2.73608,0 -4.44164,-1.9207 -4.44164,-4.30072 0,-2.37999 1.70556,-4.30072 4.44164,-4.30072 z" id="rect4"/>
  <path id="path18" style="fill:#ffffff;fill-opacity:1;stroke-width:0.94752157" d="m 79.248605,54.575018 c 0.701165,0.502186 1.478133,0.966472 2.274051,1.30758 4.339649,1.857142 9.513117,0.549562 13.322153,-1.932944 3.486879,-2.274052 7.144311,-6.661077 6.623171,-10.953349 0,-0.0095 0,-0.0095 0,-0.01895 l -0.2653,-19.282063 c 0.18003,-0.0095 0.34111,-0.0095 0.49271,-0.01895 1.44023,-0.0095 2.89942,0.104228 4.31122,0.379009 2.64359,0.521137 5.30612,1.553935 7.21064,3.515305 1.90452,1.942419 3.66691,3.865888 6.49052,4.37755 1.18441,0.208454 3.23105,-0.151604 3.97959,-1.184402 1.23178,-1.696064 -1.44023,-2.302478 -2.2551,-3.174198 -0.76749,-0.833818 -1.06122,-2.274051 -1.25072,-3.363701 -0.61589,-3.695334 -2.18878,-7.087461 -4.96502,-9.636294 -3.70481,-3.401602 -8.77405,-5.6851294 -14.20335,-6.6610766 -0.77696,-0.1421282 -1.677109,-0.1989795 -2.491977,-0.028426 -0.01895,0 -0.02843,-0.00948 -0.04738,-0.00948 -1.383382,0.01895 -2.482507,1.146501 -2.463556,2.5393576 l 0.360058,25.981041 c -1.54446,-0.824344 -3.278425,-1.317055 -5.078716,-1.506559 -4.500727,-0.464286 -9.389938,0.928571 -12.545185,3.714284 -1.061224,0.938047 -2.122448,2.169825 -2.757288,3.439503 -0.663265,1.30758 -1.203352,3.231049 -1.089649,4.709183 0.25583,3.079445 1.800291,6.007286 4.349124,7.807577 z"/>
  <path id="path20" style="fill:#ffffff;fill-opacity:1;stroke-width:0.87726092" d="m 32.071584,71.716081 c -14.588849,0 -25.1861603,10.325361 -25.1861603,24.554533 0,14.229176 10.5885393,24.563306 25.1861603,24.563306 5.912738,0 11.307893,-1.67557 15.606471,-4.84248 l -4.456485,-6.03556 c -3.000232,2.2107 -6.851408,3.37746 -11.158759,3.37746 -10.413086,0 -17.676807,-7.01809 -17.676807,-17.053954 0,-10.035864 7.272493,-17.045179 17.676807,-17.045179 13.036097,0 17.676807,9.149831 17.676807,17.703125 l 0.01755,0.298269 c 0.02632,0.412312 -0.05264,1.693113 -0.675491,2.596692 -0.140362,0.149134 -0.789535,0.508807 -1.605388,0.508807 -0.464948,0 -1.324664,-0.0965 -1.859793,-0.745668 -0.947441,-1.140439 -1.456253,-4.044172 -1.491343,-5.632014 h -0.04386 v -8.483113 c 0,-0.289496 -0.236861,-0.526357 -0.526357,-0.526357 h -6.360141 c -0.289496,0 -0.526357,0.236861 -0.526357,0.526357 v 0.657945 c -1.807157,-0.982532 -3.930129,-1.587842 -6.395232,-1.587842 -7.66726,0 -12.457105,5.4127 -12.457105,12.088655 0,6.684727 4.789845,12.097427 12.457105,12.097427 4.219625,0 7.518126,-1.66679 9.676188,-4.25471 1.824703,2.14051 4.552984,3.3599 7.535671,3.3599 3.140594,0 6.175917,-1.44748 7.746214,-3.69326 2.096653,-3.01778 2.087881,-6.386463 2.035245,-7.333905 C 57.213881,81.787036 47.099063,71.716081 32.071584,71.716081 Z m -1.789612,30.493589 c -3.544134,0 -5.763604,-2.500194 -5.763604,-5.596925 0,-3.087958 2.21947,-5.596924 5.763604,-5.596924 3.552906,0 5.763604,2.508966 5.763604,5.596924 0,3.096731 -2.210698,5.596925 -5.763604,5.596925 z"/>
</svg>
