<svg xmlns="http://www.w3.org/2000/svg" viewBox="0 0 128 128"><path d="M125.47 86.16l-8.27-1.49c.1-1.84.09-3.7 0-5.56l8.4-1.25a2.132 2.132 0 0 0 1.8-2.42c-.17-1.16-1.26-1.96-2.42-1.8l-8.18 1.22c-.9-5.98-3.2-11.94-6.68-17.31 1.05-10.02 3.06-37.18-5.09-42.65-6.5-4.36-21.96 11.82-26.94 17.63-1.15 1.34-2.2 2.55-3.16 3.65-3.48-.53-7.02-.82-10.55-.82-3.53-.01-7.06.29-10.54.82-.96-1.1-2.01-2.31-3.16-3.65-4.98-5.81-20.44-21.99-26.93-17.63-8.15 5.47-6.13 32.63-5.09 42.65-3.47 5.36-5.79 11.33-6.68 17.31L3.8 73.64c-1.16-.16-2.25.63-2.43 1.8-.18 1.16.63 2.25 1.79 2.42l8.4 1.25c-.09 1.86-.1 3.72 0 5.56L3.3 86.16a2.131 2.131 0 1 0 .38 4.23c.12 0 .25-.01.38-.03L12 88.93c.33 2.1.81 4.17 1.5 6.18l-6.48 2.05a2.146 2.146 0 0 0-1.39 2.68 2.136 2.136 0 0 0 2.68 1.39l6.85-2.17c1.98 3.89 4.88 7.47 8.98 10.53 6.05 4.51 13.57 7.57 21.33 9.23 2.94.63 10.56 2.1 18.55 2.1s16.35-1.47 19.3-2.1c7.75-1.66 15.28-4.72 21.33-9.23 4.1-3.06 7-6.64 8.98-10.53l6.84 2.17a2.136 2.136 0 0 0 2.68-1.39c.36-1.12-.26-2.32-1.38-2.68l-6.48-2.06c.69-2 1.18-4.07 1.5-6.18l7.95 1.43a2.149 2.149 0 0 0 2.48-1.72 2.18 2.18 0 0 0-1.75-2.47z" fill="#f79329"/><path d="M70.95 103.19c.21.46-.17 1.2-.28 1.62-.14.53-.27 1.05-.43 1.56-.76 2.52-2.06 4.88-4.85 5.43-2.58.51-5.06-1.25-6.03-3.58-.36-.85-.64-1.73-.94-2.6-.16-.48-.32-.96-.47-1.43-.11-.34-.4-.88-.36-1.23 1.42-.09 3.07-.73 4.29-1.45.4-.24.85-.37 1.22-.66.33-.26.54-.63.96-.76.42.45 1.13.7 1.65 1.05.63.42 1.27.79 1.95 1.11.63.3 1.38.3 2.03.47.34.09.91.04 1.16.33.05.04.08.08.1.14z" fill="#ed6c30"/><path d="M46.92 81.07c0 4.59-3.31 8.3-7.38 8.3s-7.38-3.72-7.38-8.3c0-4.6 3.31-8.31 7.38-8.31 4.07-.01 7.38 3.71 7.38 8.31zM81.26 81.07c0 4.59 3.3 8.3 7.38 8.3 4.07 0 7.38-3.72 7.38-8.3 0-4.6-3.31-8.31-7.38-8.31-4.07-.01-7.38 3.71-7.38 8.31zM64.48 101.33c-.77 0-1.39-.62-1.39-1.39v-8.15c0-.77.62-1.39 1.39-1.39.77 0 1.39.62 1.39 1.39v8.15c0 .77-.62 1.39-1.39 1.39z" fill="#2f2f2f"/><g fill="#2f2f2f"><path d="M57.49 104.6c-.43 0-.89-.02-1.36-.06-5.66-.5-8.15-4.89-8.68-7.15a1.71 1.71 0 0 1 1.28-2.05 1.7 1.7 0 0 1 2.05 1.27c.05.21 1.11 4.12 5.65 4.53 4.75.43 6.59-2.06 6.67-2.17.55-.76 1.6-.95 2.37-.42s.97 1.57.45 2.35c-.11.16-2.57 3.7-8.43 3.7z"/><path d="M71.52 104.6c-5.86 0-8.32-3.54-8.43-3.7-.53-.78-.32-1.85.46-2.38.79-.53 1.85-.32 2.38.46.06.08 1.93 2.57 6.65 2.15 4.63-.41 5.64-4.48 5.65-4.52.22-.92 1.14-1.49 2.05-1.28.92.22 1.49 1.13 1.28 2.05-.53 2.25-3.03 6.65-8.68 7.15-.48.05-.93.07-1.36.07z"/></g><g><g fill="#2f2f2f"><path d="M59.22 91.73c.08 1.05.79 2.15 1.89 2.82.88.55 2.13.82 3.36.82 1.22 0 2.47-.27 3.35-.82 1.1-.68 1.81-1.77 1.89-2.82.08-1-.15-2.02-1.24-2.72-.6-.39-1.35-.65-2.12-.79-.29-.05-1.05-.18-1.85-.18-.79 0-1.62.12-1.92.18-.77.14-1.52.4-2.12.79-1.08.71-1.32 1.72-1.24 2.72z"/><path d="M64.43 96.86c-1.54 0-3.04-.38-4.11-1.04-1.47-.91-2.47-2.43-2.59-3.97-.17-2.24.96-3.45 1.92-4.08.74-.47 1.66-.82 2.66-1 .4-.08 1.31-.2 2.18-.2.94 0 1.8.14 2.12.2 1 .18 1.92.53 2.65 1 .97.63 2.1 1.85 1.92 4.09-.12 1.53-1.11 3.05-2.59 3.97-1.07.66-2.57 1.04-4.11 1.04h-.05zm.07-7.33c-.68 0-1.41.11-1.64.15-.62.12-1.19.32-1.59.58-.39.25-.62.57-.56 1.35.05.6.51 1.25 1.19 1.67.61.38 1.56.6 2.55.6v1.49l.02-1.49c1.03 0 1.98-.23 2.58-.6.67-.41 1.15-1.08 1.19-1.67.07-.78-.17-1.1-.56-1.35-.4-.26-.97-.46-1.58-.58-.17-.02-.88-.15-1.6-.15z"/></g></g><g><path d="M64.48 113.66c-2.83 0-5.55-1.85-6.76-4.76-.56-1.35-1.69-4.89-1.74-5.04-.3-.93.22-1.93 1.15-2.23.93-.3 1.93.22 2.23 1.15.39 1.22 1.23 3.79 1.63 4.75.62 1.49 2.26 2.88 4.05 2.53 1.64-.32 2.72-1.62 3.5-4.2.1-.35.31-1.14.51-1.88.15-.58.3-1.14.38-1.43.27-.94 1.23-1.49 2.19-1.22.94.27 1.49 1.25 1.22 2.19-.08.28-.22.81-.37 1.37-.2.77-.42 1.6-.54 1.99-.44 1.44-1.76 5.78-6.21 6.66-.4.08-.82.12-1.24.12z" fill="#2f2f2f"/></g></svg>