<?xml version="1.0" encoding="UTF-8" standalone="no"?>
<svg
   xmlns:dc="http://purl.org/dc/elements/1.1/"
   xmlns:cc="http://creativecommons.org/ns#"
   xmlns:rdf="http://www.w3.org/1999/02/22-rdf-syntax-ns#"
   xmlns:svg="http://www.w3.org/2000/svg"
   xmlns="http://www.w3.org/2000/svg"
   xmlns:sodipodi="http://sodipodi.sourceforge.net/DTD/sodipodi-0.dtd"
   xmlns:inkscape="http://www.inkscape.org/namespaces/inkscape"
   width="128"
   height="128"
   style="enable-background:new 0 0 128 128;"
   version="1.1"
   id="svg15"
   sodipodi:docname="emoji_u1f62c.svg"
   inkscape:version="0.92+devel unknown">
  <metadata
     id="metadata21">
    <rdf:RDF>
      <cc:Work
         rdf:about="">
        <dc:format>image/svg+xml</dc:format>
        <dc:type
           rdf:resource="http://purl.org/dc/dcmitype/StillImage" />
      </cc:Work>
    </rdf:RDF>
  </metadata>
  <defs
     id="defs19" />
  <sodipodi:namedview
     pagecolor="#ffffff"
     bordercolor="#666666"
     inkscape:document-rotation="0"
     borderopacity="1"
     objecttolerance="10"
     gridtolerance="10"
     guidetolerance="10"
     inkscape:pageopacity="0"
     inkscape:pageshadow="2"
     inkscape:window-width="1680"
     inkscape:window-height="986"
     id="namedview17"
     showgrid="false"
     inkscape:zoom="5.4453125"
     inkscape:cx="64"
     inkscape:cy="64"
     inkscape:window-x="0"
     inkscape:window-y="27"
     inkscape:window-maximized="1"
     inkscape:current-layer="svg15" />
  <g
     id="XMLID_4_">
    <path
       id="XMLID_2_"
       d="M64,12.81c-62.12,0-63.59,69.65-63.59,83.44c0,13.77,28.47,24.94,63.59,24.94 c35.12,0,63.59-11.17,63.59-24.94C127.59,82.46,126.13,12.81,64,12.81z"
       style="fill:#FCC21B;" />
  </g>
  <ellipse
     id="XMLID_1_"
     cx="43.95"
     cy="56.46"
     rx="7.92"
     ry="9.63"
     style="fill:#2F2F2F;" />
  <ellipse
     id="XMLID_5_"
     cx="84.03"
     cy="56.46"
     rx="7.92"
     ry="9.63"
     style="fill:#2F2F2F;" />
  <path
     id="XMLID_31_"
     d="M95,101.6H33c-7.7,0-14-6.3-14-14v0c0-7.7,6.3-14,14-14h62c7.7,0,14,6.3,14,14v0 C109,95.3,102.7,101.6,95,101.6z"
     style="fill:#FFFFFF;" />
  <g
     id="XMLID_6_"
     style="fill:#838383;fill-opacity:1">
    <rect
       id="XMLID_27_"
       height="25"
       style="fill:#838383;fill-opacity:1"
       width="3.12"
       x="47.44"
       y="75.17" />
    <rect
       id="XMLID_26_"
       height="25"
       style="fill:#838383;fill-opacity:1"
       width="3.12"
       x="32.44"
       y="75.17" />
    <rect
       id="XMLID_23_"
       height="25"
       style="fill:#838383;fill-opacity:1"
       width="3.12"
       x="92.45"
       y="75.17" />
    <rect
       id="XMLID_22_"
       height="25"
       style="fill:#838383;fill-opacity:1"
       width="3.12"
       x="77.44"
       y="75.17" />
    <rect
       id="XMLID_21_"
       height="25"
       style="fill:#838383;fill-opacity:1"
       width="3.12"
       x="62.44"
       y="75.17" />
    <rect
       id="XMLID_28_"
       height="3.12"
       style="fill:#838383;fill-opacity:1"
       width="87.01"
       x="20.49"
       y="86.04" />
  </g>
  <path
     id="XMLID_24_"
     d="M95,77.6c5.51,0,10,4.49,10,10c0,5.51-4.49,10-10,10H33c-5.51,0-10-4.49-10-10 c0-5.51,4.49-10,10-10H95 M95,73.6H33c-7.7,0-14,6.3-14,14v0c0,7.7,6.3,14,14,14h62c7.7,0,14-6.3,14-14v0 C109,79.9,102.7,73.6,95,73.6L95,73.6z"
     style="fill:#2F2F2F;" />
</svg>
