<svg xmlns="http://www.w3.org/2000/svg" viewBox="0 0 128 128"><path d="M116 128H12c-6.6 0-12-5.4-12-12V12C0 5.4 5.4 0 12 0h104c6.6 0 12 5.4 12 12v104c0 6.6-5.4 12-12 12z" fill="#fcc21b"/><path d="M124.48 3.52L3.52 124.48C5.7 126.65 8.7 128 12 128h104c6.6 0 12-5.4 12-12V12c0-3.3-1.35-6.3-3.52-8.48z" fill="#f79329"/><path d="M112 101c0 6.63-5.37 12-12 12H27.89c-6.6 0-12-5.4-12-12V28.9c0-6.6 5.4-12 12-12H100c6.63 0 12 5.37 12 12V101z" fill="#fcc21b"/><path d="M47.33 46.63l7.51-2.15V85.7h-5.79c-.62 0-1.11.5-1.11 1.11v14.09c0 .62.49 1.11 1.11 1.11h29.93c.61 0 1.1-.49 1.1-1.11V86.8c0-.61-.49-1.11-1.1-1.11h-5.79V25.35c0-.34-.16-.66-.42-.86-.26-.21-.6-.3-.93-.22l-25.05 5.38c-.5.11-.87.56-.87 1.08v14.84c0 .35.16.68.44.89.28.2.64.27.97.17z" fill="#fff"/></svg>