<svg enable-background="new 0 0 128 128" viewBox="0 0 128 128" xmlns="http://www.w3.org/2000/svg"><linearGradient id="b" x1="64" x2="64" y1="8.25" y2="120.13" gradientUnits="userSpaceOnUse"><stop stop-color="#616161" offset="0"/><stop stop-color="#515151" offset=".3054"/><stop stop-color="#292929" offset=".8963"/><stop stop-color="#212121" offset="1"/></linearGradient><circle cx="64" cy="64" r="56" fill="url(#b)"/><g fill="#424242" opacity=".2"><path d="m75.25 28c1.24 0 2.25 1.01 2.25 2.25 0 0.41 0.33 0.74 0.74 0.74h6.76v0.02l0.82-0.42c0.22-0.11 0.45-0.16 0.68-0.16 0.79 0 1.5 0.63 1.5 1.5v4.15c0 0.87-0.71 1.5-1.5 1.5-0.22 0-0.44-0.05-0.66-0.16l-0.84-0.4v-0.02h-6.75c-0.41 0-0.75 0.34-0.75 0.75v3.12c2.36 1.17 4.29 3.22 5.47 5.79 0.24 0.52 0.77 0.85 1.35 0.85h8.18c0.83 0 1.5-0.67 1.5-1.5v-0.6c0-1.14 0.64-2.18 1.66-2.68l2.17-1.09c0.22-0.11 0.45-0.16 0.67-0.16 0.79 0 1.5 0.63 1.5 1.5v19.15c0 0.87-0.71 1.5-1.5 1.5-0.22 0-0.45-0.05-0.67-0.16l-2.17-1.09c-1.02-0.51-1.66-1.55-1.66-2.69v-1.69c0-0.83-0.67-1.5-1.5-1.5h-7.73c-0.62 0-1.18 0.38-1.4 0.97-1.7 4.6-5.7 7.83-10.37 7.83s-8.68-3.23-10.37-7.83c-0.22-0.58-0.78-0.97-1.4-0.97h-6.1c-3.39 0-6.13 2.74-6.13 6.13v2.12c0 1.24-1.01 2.25-2.25 2.25h-4.5c-1.24 0-2.25-1.01-2.25-2.25v-2.12c0-8.36 6.77-15.13 15.13-15.13h6.55c0.57 0 1.11-0.33 1.35-0.85 1.18-2.57 3.12-4.62 5.47-5.79v-3.12c0-0.41-0.34-0.75-0.75-0.75h-6.75v0.02l-0.84 0.41c-0.22 0.11-0.44 0.16-0.66 0.16-0.79 0-1.5-0.63-1.5-1.5v-4.15c0-0.87 0.71-1.5 1.5-1.5 0.23 0 0.46 0.05 0.68 0.16l0.82 0.43v-0.02h6.76c0.41 0 0.74-0.33 0.74-0.74 0-1.24 1.01-2.25 2.25-2.25h4.5m0-3.01h-4.5c-2.09 0-3.9 1.23-4.74 3h-4.34l-0.14-0.07c-0.63-0.32-1.33-0.49-2.04-0.49-1.17 0-2.28 0.45-3.13 1.26-0.89 0.85-1.37 2-1.37 3.24v4.15c0 2.48 2.02 4.5 4.5 4.5 0.69 0 1.36-0.16 1.99-0.46l0.27-0.13h2.65c-1.46 1.22-2.7 2.76-3.64 4.5h-5.62c-10 0-18.13 8.13-18.13 18.13v2.12c0 2.89 2.36 5.25 5.25 5.25h4.5c2.89 0 5.25-2.36 5.25-5.25v-2.12c0-1.73 1.4-3.13 3.13-3.13h5.09c2.39 5.38 7.3 8.8 12.79 8.8s10.4-3.42 12.79-8.8h5.19v0.19c0 2.29 1.27 4.34 3.32 5.37l2.17 1.09c0.62 0.31 1.32 0.48 2.01 0.48 2.48 0 4.5-2.02 4.5-4.5v-19.16c0-2.48-2.02-4.5-4.5-4.5-0.69 0-1.39 0.16-2.01 0.48l-2.17 1.09c-1.77 0.89-2.96 2.55-3.25 4.47h-5.81c-0.94-1.75-2.18-3.28-3.64-4.5h2.65l0.26 0.13c0.63 0.31 1.29 0.46 1.99 0.46 2.48 0 4.5-2.02 4.5-4.5v-4.15c0-2.48-2.02-4.5-4.5-4.5-0.7 0-1.41 0.17-2.04 0.49l-0.15 0.06h-4.34c-0.84-1.77-2.65-3-4.74-3z"/><path d="m59.85 69.25c1.25 0 2.11 1.14 1.86 2.28l-5.48 24.65c-0.5 2.25-2.46 3.82-4.76 3.82h-13.19c-2.3 0-4.26-1.57-4.76-3.82l-5.48-24.65c-0.26-1.15 0.6-2.28 1.86-2.28 0.42 0 0.88 0.13 1.35 0.42 0.17 0.1 0.28 0.28 0.32 0.47l0.76 3.41c0.08 0.34 0.38 0.59 0.73 0.59h23.62c0.35 0 0.66-0.24 0.73-0.59l0.76-3.41c0.04-0.19 0.15-0.37 0.32-0.47 0.48-0.3 0.94-0.42 1.36-0.42m-24.37 15.75h18.79c0.35 0 0.66-0.24 0.73-0.59l1.25-5.62c0.1-0.47-0.25-0.91-0.73-0.91h-21.29c-0.48 0-0.84 0.44-0.73 0.91l1.25 5.62c0.08 0.35 0.38 0.59 0.73 0.59m24.37-18.75c-0.99 0-2 0.3-2.92 0.86-0.85 0.52-1.47 1.39-1.69 2.38l-0.37 1.64h-20l-0.37-1.64c-0.22-0.99-0.83-1.86-1.69-2.38-0.92-0.56-1.93-0.86-2.92-0.86-1.5 0-2.9 0.67-3.83 1.83s-1.28 2.66-0.96 4.11l5.48 24.65c0.81 3.63 3.97 6.17 7.69 6.17h13.19c3.72 0 6.88-2.54 7.69-6.17l5.48-24.65c0.32-1.45-0.03-2.95-0.96-4.11-0.92-1.17-2.32-1.83-3.82-1.83zm-22.81 14.62h15.68l-0.26 1.13h-15.17l-0.25-1.13z"/></g><g fill="#FAFAFA"><path d="m97.83 41.63-2.17 1.09c-1.02 0.5-1.66 1.54-1.66 2.68v0.6c0 0.83-0.67 1.5-1.5 1.5h-8.18c-0.57 0-1.11-0.33-1.35-0.85-1.18-2.57-3.12-4.62-5.47-5.79v-3.12c0-0.41 0.34-0.75 0.75-0.75h6.75v0.02l0.84 0.41c1 0.49 2.16-0.23 2.16-1.35v-4.15c0-1.12-1.18-1.84-2.18-1.34l-0.82 0.44v-0.02h-6.76c-0.41 0-0.74-0.33-0.74-0.74 0-1.24-1.01-2.25-2.25-2.25h-4.5c-1.24 0-2.25 1.01-2.25 2.25 0 0.41-0.33 0.74-0.74 0.74h-6.76v0.02l-0.82-0.42c-1-0.51-2.18 0.22-2.18 1.34v4.15c0 1.11 1.17 1.84 2.16 1.35l0.84-0.42v-0.02h6.75c0.41 0 0.75 0.34 0.75 0.75v3.12c-2.36 1.17-4.29 3.22-5.47 5.79-0.24 0.52-0.77 0.85-1.35 0.85h-6.55c-8.36-0.01-15.13 6.76-15.13 15.12v2.12c0 1.24 1.01 2.25 2.25 2.25h4.5c1.24 0 2.25-1.01 2.25-2.25v-2.12c0-3.39 2.74-6.13 6.13-6.13h6.1c0.62 0 1.18 0.38 1.4 0.97 1.7 4.6 5.7 7.83 10.37 7.83s8.68-3.23 10.37-7.83c0.22-0.58 0.78-0.97 1.4-0.97h7.73c0.83 0 1.5 0.67 1.5 1.5v1.69c0 1.14 0.64 2.18 1.66 2.68l2.17 1.09c1 0.5 2.17-0.23 2.17-1.34v-19.15c0-1.11-1.17-1.84-2.17-1.34z"/><path d="m58.5 69.67c-0.17 0.1-0.28 0.28-0.32 0.47l-0.76 3.41c-0.08 0.34-0.38 0.59-0.73 0.59h-23.63c-0.35 0-0.66-0.24-0.73-0.59l-0.76-3.41c-0.04-0.19-0.15-0.37-0.32-0.47-1.92-1.17-3.55 0.34-3.21 1.87l5.48 24.65c0.5 2.25 2.46 3.82 4.76 3.82h13.19c2.3 0 4.26-1.57 4.76-3.82l5.48-24.65c0.34-1.54-1.3-3.05-3.21-1.87zm-24.27 8.21h21.29c0.48 0 0.84 0.44 0.73 0.91l-1.25 5.62c-0.07 0.35-0.38 0.59-0.73 0.59h-18.79c-0.35 0-0.66-0.24-0.73-0.59l-1.25-5.62c-0.11-0.47 0.25-0.91 0.73-0.91z"/></g><g opacity=".2"><path d="m64 17c25.92 0 47 21.08 47 47s-21.08 47-47 47-47-21.08-47-47 21.08-47 47-47m0-3c-27.61 0-50 22.39-50 50s22.39 50 50 50 50-22.39 50-50-22.39-50-50-50z" fill="#424242"/></g><linearGradient id="a" x1="64" x2="64" y1="4" y2="124.13" gradientUnits="userSpaceOnUse"><stop stop-color="#FF5252" offset="0"/><stop stop-color="#F33B3B" offset=".324"/><stop stop-color="#D50000" offset="1"/></linearGradient><path d="M64,4C30.86,4,4,30.86,4,64s26.86,60,60,60s60-26.86,60-60S97.14,4,64,4z M114,64 c0,11.99-4.24,23-11.3,31.62L32.38,25.3C41,18.24,52.01,14,64,14C91.57,14,114,36.43,114,64z M14,64c0-11.99,4.24-23,11.3-31.62 l70.32,70.32C87,109.76,75.99,114,64,114C36.43,114,14,91.57,14,64z" fill="url(#a)"/><g opacity=".2"><path d="M64,7c31.43,0,57,25.57,57,57s-25.57,57-57,57S7,95.43,7,64S32.57,7,64,7 M64,4 C30.86,4,4,30.86,4,64s26.86,60,60,60s60-26.86,60-60S97.14,4,64,4L64,4z" fill="#424242"/></g></svg>
