<svg enable-background="new 0 0 128 128" viewBox="0 0 128 128" xmlns="http://www.w3.org/2000/svg"><polygon points="2085.4 77.08 2045.2 77.08 2037.2 52.75 2037.2 8.75 2093.4 8.75 2093.4 52.75" fill="#006064"/><rect x="2045" y="76.5" width="40.75" height="4.5" fill="#E57373"/><radialGradient id="e" cx="15.333" cy="22.333" r="34.059" gradientUnits="userSpaceOnUse"><stop stop-color="#C28605" offset="0"/><stop stop-color="#CB991C" offset=".1326"/><stop stop-color="#D9B73F" offset=".3743"/><stop stop-color="#E2C955" offset=".5717"/><stop stop-color="#E5D05D" offset=".699"/></radialGradient><path d="m27.52 23.68c-0.05 0.03 0.42-0.26 0.27-0.27 0.08-0.15 0.2-0.41 0.22-0.87 0.01-0.22-0.04-0.48-0.11-0.71-0.05-0.11-0.09-0.22-0.16-0.3l-0.02-0.03-0.01-0.02c-0.04-0.08 0.05 0.11 0.04 0.08l-0.02-0.03-0.13-0.21c-0.09-0.15-0.07-0.05-0.12-0.12-0.42-0.44-1.22-0.94-2.28-1.11-0.11-0.02-0.3-0.05-0.35-0.04-0.2-0.03-0.46-0.06-0.52-0.05-0.18-0.01-0.55 0-0.83 0.03-0.6 0.05-1.21 0.21-1.8 0.44s-1.17 0.54-1.66 0.94c-0.13 0.1-0.24 0.2-0.36 0.31l-0.06 0.06c-0.02 0.02 0.13-0.12 0.06-0.05l-0.15 0.15c-0.08 0.08-0.21 0.2-0.24 0.25-0.11 0.14-0.35 0.46-0.52 0.72-0.74 1.11-1.13 2.56-0.99 3.88v0.06 0.02c0.02 0.13-0.02-0.17-0.02-0.13l0.01 0.05 0.09 0.6c0.02 0.17 0.04 0.2 0.06 0.26l0.04 0.19c0.08 0.3 0.2 0.68 0.35 1.02 0.3 0.7 0.73 1.4 1.26 2.07 1.07 1.34 2.51 2.59 4.08 3.67 1.63 1.11 3.43 2.07 5.25 3.17 1.81 1.08 3.65 2.24 5.29 3.62 1.58 1.35 3.18 2.98 4.1 5.1 0.23 0.51 0.41 1.12 0.51 1.59 0.14 0.66 0.18 1.2 0.18 1.76-0.01 1.11-0.27 2.18-0.74 3.14-0.46 0.94-1.24 1.79-1.98 2.26-0.13 0.09-0.26 0.17-0.4 0.24-0.13 0.07-0.22 0.11-0.34 0.16-0.22 0.11-0.43 0.17-0.64 0.24-0.42 0.13-0.83 0.2-1.23 0.23-1.57 0.11-2.82-0.46-3.55-1.06-0.36-0.29-0.61-0.57-0.75-0.77s-0.21-0.3-0.21-0.3c-0.58-0.82-0.39-1.95 0.43-2.52 0.58-0.41 1.31-0.43 1.9-0.12l0.85 0.45c0.01 0 0.04 0.02 0.14 0.04 0.08 0.02 0.33 0.06 0.69-0.04 0.09-0.02 0.17-0.07 0.25-0.11 0.05-0.03 0.2-0.14 0.11-0.1 0.21-0.19 0.25-0.34 0.35-0.61 0.08-0.26 0.12-0.62 0.07-1.01-0.02-0.19-0.08-0.41-0.13-0.52-0.09-0.29-0.18-0.44-0.31-0.68-0.49-0.89-1.49-1.85-2.87-2.82-1.33-0.97-2.92-1.86-4.71-2.77-1.78-0.9-3.76-1.91-5.77-3.15-2.05-1.28-4.05-2.85-5.74-4.94-0.84-1.04-1.6-2.21-2.19-3.52-0.29-0.67-0.53-1.31-0.73-2.07l-0.14-0.61c-0.04-0.2-0.09-0.43-0.1-0.53l-0.09-0.6-0.03-0.26-0.01-0.14c-0.22-3 0.65-5.86 2.23-8.16 0.42-0.58 0.82-1.07 1.41-1.65 0.14-0.14 0.2-0.19 0.3-0.28l0.14-0.13 0.11-0.1 0.15-0.12c0.26-0.22 0.53-0.43 0.81-0.62 1.1-0.78 2.29-1.33 3.49-1.7 1.21-0.34 2.42-0.51 3.6-0.5 0.61 0.01 1.12 0.04 1.78 0.15 0.36 0.05 0.53 0.1 0.74 0.14 0.36 0.07 0.58 0.14 0.86 0.23 2.11 0.69 3.97 1.98 5.04 3.79 0.13 0.21 0.33 0.58 0.38 0.72l0.09 0.22 0.01 0.03 0.05 0.11 0.01 0.02 0.03 0.09 0.06 0.19c0.17 0.5 0.25 0.98 0.3 1.44 0.08 0.92-0.06 1.74-0.27 2.45-0.43 1.43-1.32 2.4-2.03 2.9-0.37 0.27-0.83 0.51-0.87 0.5-0.13 0.05-0.19 0.07-0.19 0.07-0.94 0.5-2.11 0.13-2.61-0.81-0.51-0.93-0.15-2.09 0.79-2.59z" fill="url(#e)"/><radialGradient id="d" cx="103" cy="35.049" r="17.843" gradientUnits="userSpaceOnUse"><stop stop-color="#C28605" offset="0"/><stop stop-color="#CB991C" offset=".1326"/><stop stop-color="#D9B73F" offset=".3743"/><stop stop-color="#E2C955" offset=".5717"/><stop stop-color="#E5D05D" offset=".699"/></radialGradient><path d="m98.68 27.09s-0.06-0.02-0.19-0.07c-0.04 0-0.51-0.23-0.87-0.5-0.71-0.5-1.6-1.47-2.03-2.9-0.22-0.71-0.35-1.53-0.27-2.45 0.05-0.46 0.13-0.94 0.3-1.44l0.06-0.19 0.03-0.09 0.01-0.02 0.05-0.11 0.01-0.03 0.09-0.22c0.06-0.14 0.25-0.52 0.38-0.72 1.07-1.8 2.93-3.1 5.04-3.79 0.29-0.09 0.5-0.16 0.86-0.23 0.21-0.05 0.38-0.09 0.74-0.14 0.67-0.11 1.17-0.13 1.78-0.15 1.18-0.01 2.39 0.16 3.6 0.5 1.2 0.37 2.39 0.92 3.49 1.7 0.28 0.19 0.55 0.4 0.81 0.62l0.15 0.12 0.11 0.1 0.14 0.13c0.1 0.1 0.16 0.14 0.3 0.28 0.59 0.59 0.99 1.07 1.41 1.65 1.58 2.29 2.46 5.16 2.23 8.16l-0.01 0.14-0.03 0.26-0.09 0.6c-0.01 0.11-0.06 0.33-0.1 0.53l-0.14 0.61c-0.2 0.76-0.44 1.4-0.73 2.07-0.58 1.31-1.35 2.48-2.19 3.52-1.69 2.09-3.69 3.66-5.74 4.94-2.01 1.24-3.99 2.24-5.77 3.15-1.79 0.91-3.38 1.8-4.71 2.77-1.38 0.97-2.38 1.93-2.87 2.82-0.13 0.24-0.22 0.39-0.31 0.68-0.05 0.11-0.1 0.33-0.13 0.52-0.06 0.39-0.01 0.75 0.07 1.01 0.1 0.27 0.14 0.42 0.35 0.61-0.1-0.05 0.06 0.07 0.11 0.1 0.08 0.04 0.16 0.08 0.25 0.11 0.36 0.11 0.61 0.07 0.69 0.04 0.1-0.02 0.14-0.05 0.14-0.04l0.84-0.45c0.88-0.47 1.98-0.14 2.45 0.75 0.33 0.62 0.26 1.36-0.12 1.9l-0.21 0.3c-0.14 0.2-0.38 0.48-0.75 0.77-0.72 0.6-1.98 1.16-3.55 1.06-0.39-0.03-0.8-0.1-1.23-0.23-0.21-0.07-0.43-0.14-0.64-0.24-0.11-0.05-0.21-0.09-0.34-0.16-0.13-0.08-0.27-0.16-0.4-0.24-0.74-0.47-1.53-1.32-1.98-2.26-0.48-0.96-0.73-2.03-0.74-3.14-0.01-0.56 0.03-1.1 0.18-1.76 0.1-0.48 0.28-1.09 0.51-1.59 0.92-2.11 2.52-3.75 4.1-5.1 1.64-1.38 3.48-2.54 5.29-3.62 1.82-1.1 3.62-2.05 5.25-3.17 1.57-1.08 3.01-2.32 4.08-3.67 0.53-0.67 0.96-1.37 1.26-2.07 0.14-0.34 0.27-0.72 0.35-1.02l0.04-0.19c0.02-0.06 0.04-0.1 0.06-0.26l0.09-0.6-0.11-0.05c0.01-0.04-0.13 0.26-0.13 0.13v-0.02l0.12-0.06c0.14-1.32-0.2-2.78-0.93-3.88-0.17-0.27-0.38-0.58-0.49-0.72-0.03-0.04-0.15-0.17-0.22-0.25l-0.13-0.13-0.01-0.02c-0.07-0.07 0.08 0.07 0.06 0.05l-0.06-0.06c-0.11-0.11-0.23-0.21-0.36-0.31-0.49-0.4-1.07-0.71-1.66-0.94s-1.21-0.39-1.8-0.44c-0.29-0.05-0.66-0.05-0.84-0.05-0.06-0.01-0.32 0.02-0.52 0.05-0.05 0-0.24 0.02-0.35 0.04-1.06 0.17-1.87 0.67-2.28 1.11-0.06 0.07-0.03-0.02-0.12 0.12l-0.13 0.21-0.02 0.03 0.04-0.08-0.01 0.02-0.02 0.03c-0.07 0.08-0.11 0.19-0.16 0.3-0.07 0.23-0.12 0.49-0.11 0.71 0.02 0.45 0.14 0.72 0.22 0.87-0.15 0.01 0.32 0.3 0.27 0.27 0.94 0.5 1.31 1.66 0.81 2.61-0.51 0.94-1.68 1.3-2.62 0.8z" fill="url(#d)"/><linearGradient id="c" x1="45.313" x2="82.687" y1="82.69" y2="82.69" gradientUnits="userSpaceOnUse"><stop stop-color="#DA9A14" offset=".0765"/><stop stop-color="#DB9E19" offset=".1118"/><stop stop-color="#DDA827" offset=".1526"/><stop stop-color="#E0B93E" offset=".1962"/><stop stop-color="#E5D05D" offset=".2398"/><stop stop-color="#E4CB55" offset=".3187"/><stop stop-color="#E1BD3F" offset=".4411"/><stop stop-color="#DCA61C" offset=".591"/><stop stop-color="#D99502" offset=".6836"/><stop stop-color="#C28605" offset="1"/></linearGradient><path d="m75.72 89.01c-3.92-1.72-4.73-9.01-4.85-13.01h1.64c1.63 0 2.49-1.45 2.49-3.08v-4.01c0-1.63-0.87-2.91-2.49-2.91h-17.02c-1.62 0-2.49 1.28-2.49 2.91v4.01c0 1.63 0.87 3.08 2.49 3.08h1.59c-0.14 4-0.99 11.29-4.91 13.01-5.73 2.52-6.43 4.34-6.85 7.27-0.42 2.94 18.73 3.1 18.73 3.1s19.05-0.15 18.63-3.09c-0.42-2.93-1.23-4.76-6.96-7.28z" fill="url(#c)"/><radialGradient id="b" cx="49" cy="26.5" r="65.088" gradientUnits="userSpaceOnUse"><stop stop-color="#FFF48A" offset=".0663"/><stop stop-color="#FCEE82" offset=".1414"/><stop stop-color="#F4DD6C" offset=".2578"/><stop stop-color="#E8C248" offset=".4012"/><stop stop-color="#D69D17" offset=".5644"/><stop stop-color="#CF8D02" offset=".6275"/><stop stop-color="#C28605" offset="1"/></radialGradient><path d="m30.31 9.4s1.81 63.96 33.69 63.96 33.69-63.96 33.69-63.96c-15.25-7.2-52.13-7.2-67.38 0z" fill="url(#b)"/><rect x="36.39" y="96.43" width="55.22" height="24.05" fill="#832B00"/><linearGradient id="a" x1="47.672" x2="76.672" y1="94.59" y2="118.59" gradientUnits="userSpaceOnUse"><stop stop-color="#C28605" offset="0"/><stop stop-color="#CB991C" offset=".1036"/><stop stop-color="#D9B73F" offset=".2923"/><stop stop-color="#E2C955" offset=".4465"/><stop stop-color="#E5D05D" offset=".5459"/><stop stop-color="#E0B93E" offset=".6672"/><stop stop-color="#DDA827" offset=".7884"/><stop stop-color="#DB9E19" offset=".902"/><stop stop-color="#DA9A14" offset="1"/></linearGradient><rect x="43.63" y="100.24" width="40.75" height="15.73" fill="url(#a)"/><rect x="28.49" y="116.67" width="71.02" height="7.72" fill="#832B00"/><g opacity=".2"><path d="m110.12 27zm0-0.3c-0.01 0.01-0.02 0.03-0.03 0.05l0.03-0.02v-0.03z" fill="#424242"/></g><g opacity=".2"><path d="m110.09 27zm0-0.25-0.09 0.04v0.02c0 0.03 0 0.04 0.01 0.04 0.02-0.01 0.05-0.06 0.08-0.1z" fill="#424242"/></g><g opacity=".2"><path d="m64 7c12.38 0 23.58 1.6 30.59 4.33-0.08 1.31-0.21 3.21-0.44 5.52-0.13 1.29 0.59 2.51 1.77 3.03 0.39 0.17 0.8 0.26 1.21 0.26 0.16 0 0.31-0.01 0.47-0.04-0.13 0.23-0.22 0.43-0.27 0.57-0.04 0.08-0.07 0.17-0.09 0.26-0.09 0.28-0.18 0.67-0.23 1.11-0.26-0.08-0.54-0.11-0.82-0.11-0.2 0-0.4 0.02-0.6 0.06-1.24 0.25-2.19 1.25-2.37 2.51-0.91 6.24-2.14 12.05-3.66 17.26-0.38 1.32 0.18 2.72 1.35 3.42 0.47 0.28 1 0.42 1.53 0.42 0.26 0 0.52-0.03 0.77-0.1-0.55 0.58-0.99 1.16-1.31 1.74-0.01 0.02-0.02 0.03-0.03 0.05l-0.04 0.07c-0.12 0.23-0.29 0.54-0.45 1.01-0.12 0.33-0.22 0.72-0.27 1.09-0.5-0.47-1.16-0.78-1.88-0.82-0.06 0-0.13-0.01-0.19-0.01-1.21 0-2.3 0.72-2.77 1.85-3.75 9.01-7.82 14.33-13.21 17.25-0.97 0.52-1.57 1.54-1.57 2.64v2.55c0 0.23-0.01 0.42-0.02 0.58h-0.61c-0.81 0-1.59 0.33-2.15 0.91-0.57 0.58-0.87 1.37-0.85 2.18 0.18 5.79 1.47 13.16 6.65 15.43 4.58 2.01 4.91 2.85 5.16 4.46 0 0.43 0.09 0.86 0.27 1.26 0.49 1.07 1.55 1.76 2.73 1.76h5.83v18c0 1.66 1.34 3 3 3h5v1h-66v-1h5c1.66 0 3-1.34 3-3v-18h6.83c1.62 0 2.94-1.28 3-2.89 0.26-1.75 0.58-2.64 5.05-4.61 5.17-2.27 6.5-9.63 6.7-15.4 0.03-0.81-0.27-1.6-0.84-2.19s-1.34-0.92-2.16-0.92h-1.31c-0.13-0.15-0.27-0.43-0.27-0.58v-2.55c0-1.03-0.53-1.99-1.4-2.54-5.03-3.17-9.49-9.17-12.88-17.35-0.47-1.12-1.56-1.85-2.77-1.85-0.06 0-0.13 0-0.19 0.01-0.52 0.03-1.02 0.2-1.44 0.47-0.05-0.26-0.13-0.52-0.21-0.75-0.16-0.46-0.32-0.77-0.45-1l-0.04-0.08c-0.01-0.02-0.02-0.03-0.03-0.05-0.32-0.58-0.76-1.16-1.31-1.74 0.25 0.07 0.51 0.1 0.77 0.1 0.52 0 1.05-0.14 1.53-0.42 1.18-0.7 1.74-2.1 1.35-3.42-1.51-5.21-2.74-11.02-3.66-17.26-0.18-1.25-1.13-2.25-2.37-2.51-0.2-0.04-0.4-0.06-0.6-0.06-0.28 0-0.56 0.04-0.82 0.11-0.04-0.44-0.14-0.83-0.23-1.11-0.03-0.08-0.06-0.18-0.1-0.27-0.05-0.13-0.14-0.33-0.27-0.56 0.15 0.02 0.31 0.04 0.47 0.04 0.41 0 0.82-0.08 1.21-0.26 1.18-0.52 1.9-1.75 1.77-3.03-0.22-2.31-0.36-4.2-0.44-5.52 7.03-2.7 18.23-4.31 30.61-4.31m-40.74 10.03h0.11c-0.05 0-0.11 0.01-0.16 0.01-0.87 0.08-1.75 0.3-2.63 0.64-0.93 0.37-1.75 0.83-2.42 1.38-0.18 0.14-0.35 0.29-0.54 0.46-0.04 0.03-0.08 0.08-0.11 0.11l-0.21 0.21c-0.11 0.11-0.26 0.25-0.4 0.45-0.12 0.16-0.42 0.54-0.64 0.89-1.14 1.71-1.68 3.82-1.48 5.8v0.01c0 0.07 0.01 0.14 0.02 0.2l0.02 0.15 0.05 0.37c0.03 0.29 0.08 0.5 0.13 0.66l0.03 0.11c0 0.02 0.01 0.04 0.01 0.06 0.12 0.46 0.3 0.99 0.5 1.46 0.4 0.93 0.96 1.85 1.67 2.76 1.2 1.5 2.79 2.94 4.74 4.27 1.17 0.8 2.4 1.51 3.59 2.2 0.59 0.34 1.2 0.69 1.81 1.06 0.78 0.47 1.58 0.95 2.36 1.47-0.73-0.42-1.55-0.86-2.5-1.34-1.7-0.87-3.63-1.85-5.51-3-2.08-1.3-3.72-2.7-5-4.28-0.75-0.92-1.34-1.88-1.77-2.84-0.25-0.56-0.42-1.05-0.57-1.59l-0.12-0.52c-0.02-0.1-0.05-0.2-0.06-0.28 0-0.02 0-0.03-0.01-0.05l-0.06-0.4-0.02-0.15-0.02-0.14-0.01-0.08c-0.16-2.17 0.44-4.37 1.69-6.2 0.31-0.42 0.6-0.78 1.09-1.27 0.03-0.03 0.05-0.04 0.06-0.06 0.04-0.04 0.09-0.08 0.14-0.13l0.14-0.12 0.05-0.05 0.11-0.09c0.21-0.17 0.4-0.32 0.62-0.47 0.76-0.54 1.64-0.96 2.62-1.27 0.89-0.25 1.78-0.38 2.63-0.38l0.05-0.02m81.52 0c0.86 0 1.74 0.13 2.63 0.38 0.98 0.31 1.86 0.74 2.65 1.3 0.19 0.13 0.38 0.27 0.61 0.47l0.08 0.07 0.06 0.06 0.1 0.09c0.06 0.06 0.11 0.1 0.16 0.14 0.02 0.02 0.04 0.03 0.08 0.08 0.48 0.47 0.77 0.83 1.08 1.26 1.25 1.83 1.85 4.03 1.69 6.22v0.07l-0.02 0.14-0.02 0.16-0.06 0.4c0 0.02 0 0.03-0.01 0.05-0.01 0.08-0.04 0.18-0.05 0.25l-0.13 0.56c-0.15 0.54-0.32 1.03-0.56 1.58-0.44 0.97-1.04 1.93-1.78 2.86-1.28 1.58-2.91 2.98-4.98 4.27-1.89 1.16-3.82 2.15-5.56 3.03-0.92 0.47-1.73 0.9-2.45 1.32 0.78-0.52 1.58-1 2.36-1.47 0.6-0.37 1.21-0.71 1.8-1.06 1.19-0.69 2.43-1.4 3.6-2.2 1.94-1.33 3.53-2.77 4.74-4.28 0.7-0.89 1.26-1.81 1.66-2.75 0.2-0.46 0.38-0.99 0.5-1.45 0-0.02 0.01-0.04 0.01-0.05l0.03-0.11c0.04-0.16 0.1-0.36 0.13-0.65l0.05-0.37 0.03-0.2c0.05-0.39 0.03-0.78-0.06-1.15-0.02-1.71-0.53-3.41-1.45-4.79-0.15-0.22-0.4-0.61-0.61-0.88-0.12-0.16-0.24-0.29-0.39-0.45-0.09-0.11-0.19-0.22-0.3-0.32l-0.02-0.02c-0.19-0.18-0.36-0.33-0.54-0.47-0.68-0.55-1.49-1.01-2.43-1.38-0.88-0.35-1.76-0.56-2.63-0.64-0.05 0-0.11-0.01-0.16-0.01h0.08l0.08-0.06m-6.82 36.9m-33.96-49.93c-13.03 0-26.06 1.8-33.69 5.4 0 0 0.09 3.02 0.55 7.74-1.08-1.19-2.54-2.07-4.15-2.6-0.29-0.09-0.5-0.16-0.86-0.23-0.21-0.05-0.38-0.09-0.74-0.14-0.67-0.11-1.17-0.13-1.78-0.15h-0.11c-1.14 0-2.32 0.17-3.49 0.5-1.2 0.37-2.39 0.92-3.49 1.7-0.28 0.19-0.55 0.4-0.81 0.62l-0.15 0.12-0.11 0.1-0.14 0.13c-0.1 0.1-0.16 0.14-0.3 0.28-0.59 0.59-0.99 1.07-1.41 1.65-1.58 2.29-2.46 5.16-2.23 8.16l0.01 0.14 0.03 0.26 0.09 0.6c0.01 0.11 0.06 0.33 0.1 0.53l0.14 0.61c0.2 0.76 0.44 1.4 0.73 2.07 0.58 1.31 1.35 2.48 2.19 3.52 1.69 2.09 3.69 3.66 5.74 4.94 2.01 1.24 3.99 2.24 5.77 3.15 1.79 0.91 3.38 1.8 4.71 2.77 1.38 0.97 2.38 1.93 2.87 2.82 0.13 0.24 0.22 0.39 0.31 0.68 0.05 0.11 0.1 0.33 0.13 0.52 0.06 0.39 0.01 0.75-0.07 1.01-0.1 0.27-0.14 0.42-0.35 0.61 0.02-0.01 0.03-0.01 0.03-0.01 0.02 0-0.09 0.08-0.14 0.11-0.08 0.04-0.16 0.08-0.25 0.11-0.18 0.05-0.34 0.07-0.46 0.07-0.11 0-0.2-0.02-0.24-0.03-0.09-0.02-0.13-0.05-0.14-0.05l-0.85-0.45c-0.26-0.14-0.56-0.21-0.85-0.21-0.36 0-0.73 0.11-1.05 0.33-0.82 0.58-1.01 1.71-0.43 2.52l0.21 0.3c0.14 0.2 0.38 0.48 0.75 0.77 0.66 0.55 1.78 1.07 3.17 1.07 0.12 0 0.25 0 0.38-0.01 0.39-0.03 0.8-0.1 1.23-0.23 0.21-0.07 0.43-0.14 0.64-0.24 0.11-0.05 0.21-0.09 0.34-0.16 0.13-0.08 0.27-0.16 0.4-0.24 0.74-0.47 1.53-1.32 1.98-2.26 0.2-0.41 0.11-0.84 0.23-1.28 3.31 7.95 8.05 14.95 14.05 18.73v2.55c0 1.63 1.37 3.58 2.99 3.58h1.59c-0.14 4-0.99 11.04-4.91 12.76-5.73 2.52-6.43 4.25-6.85 7.18-0.01 0.05 0.01 0.05 0.01 0.05h-9.82v21h-8v7h72v-7h-8v-21h-8.83s0.02-0.13 0.01-0.17c-0.42-2.94-1.23-4.53-6.96-7.05-3.93-1.72-4.74-8.78-4.86-12.78h1.64c1.63 0 1.99-1.95 1.99-3.58v-2.55c7-3.79 11.25-10.78 14.55-18.73 0.12 0.44 0.4 0.87 0.6 1.28 0.46 0.94 1.31 1.79 2.05 2.26 0.13 0.09 0.29 0.17 0.43 0.24 0.13 0.07 0.24 0.11 0.35 0.16 0.22 0.11 0.44 0.17 0.65 0.24 0.42 0.13 0.84 0.2 1.23 0.23 0.13 0.01 0.26 0.01 0.38 0.01 1.39 0 2.51-0.52 3.17-1.07 0.36-0.29 0.61-0.57 0.75-0.77s0.21-0.3 0.21-0.3c0.38-0.54 0.45-1.28 0.12-1.9-0.33-0.61-0.95-0.96-1.6-0.96-0.29 0-0.58 0.07-0.85 0.21l-0.84 0.45c-0.01 0-0.05 0.02-0.14 0.05-0.04 0.01-0.12 0.03-0.24 0.03s-0.27-0.02-0.46-0.07c-0.09-0.02-0.17-0.07-0.25-0.11-0.04-0.03-0.16-0.11-0.14-0.11 0 0 0.01 0 0.03 0.01-0.21-0.19-0.25-0.34-0.35-0.61-0.08-0.26-0.12-0.62-0.07-1.01 0.02-0.19 0.08-0.41 0.13-0.52 0.09-0.29 0.18-0.44 0.31-0.68 0.49-0.89 1.49-1.85 2.87-2.82 1.33-0.97 2.92-1.86 4.71-2.77 1.78-0.9 3.76-1.91 5.77-3.15 2.05-1.28 4.05-2.85 5.74-4.94 0.84-1.04 1.6-2.21 2.19-3.52 0.29-0.67 0.53-1.31 0.73-2.07l0.14-0.61c0.04-0.2 0.09-0.43 0.1-0.53l0.09-0.6 0.03-0.26 0.01-0.14c0.22-3-0.65-5.86-2.23-8.16-0.42-0.58-0.82-1.07-1.41-1.65-0.14-0.14-0.2-0.19-0.3-0.28l-0.14-0.13-0.11-0.1-0.15-0.12c-0.26-0.22-0.53-0.43-0.81-0.62-1.1-0.78-2.29-1.33-3.49-1.7-1.17-0.33-2.35-0.5-3.49-0.5h-0.11c-0.61 0.01-1.12 0.04-1.78 0.15-0.36 0.05-0.53 0.1-0.74 0.14-0.36 0.07-0.58 0.14-0.86 0.23-1.61 0.53-3.07 1.41-4.15 2.6 0.46-4.72 0.55-7.74 0.55-7.74-7.61-3.58-20.64-5.38-33.67-5.38zm39.16 16.05c0.17-0.02 0.38-0.05 0.48-0.05h0.04 0.16c0.2 0 0.46 0.01 0.67 0.03 0.6 0.05 1.21 0.21 1.8 0.44s1.17 0.54 1.66 0.94c0.13 0.1 0.24 0.2 0.36 0.31l0.06 0.06-0.08-0.07 0.02 0.02 0.01 0.02 0.13 0.13c0.07 0.08 0.19 0.2 0.22 0.25 0.11 0.14 0.32 0.46 0.49 0.72 0.73 1.1 1.06 2.53 0.93 3.84l0.01-0.01s0 0 0 0l0.11 0.05-0.09 0.6c-0.02 0.17-0.04 0.2-0.06 0.26l-0.04 0.19c-0.08 0.3-0.2 0.68-0.35 1.02-0.3 0.7-0.73 1.4-1.26 2.07-1.07 1.34-2.51 2.59-4.08 3.67-1.63 1.11-3.43 2.07-5.25 3.17-1.81 1.08-3.65 2.24-5.29 3.62-0.46 0.4-0.93 0.82-1.38 1.27 1.78-6.13 2.96-12.32 3.74-17.67 0.44 0.72 0.96 1.26 1.42 1.59 0.36 0.27 0.82 0.5 0.87 0.5 0.13 0.05 0.19 0.07 0.19 0.07 0.29 0.15 0.59 0.22 0.9 0.22 0.69 0 1.36-0.37 1.71-1.03 0.5-0.94 0.13-2.11-0.81-2.61s0 0 0 0c-0.03-0.02-0.4-0.26-0.27-0.27-0.08-0.15-0.2-0.41-0.22-0.87-0.01-0.22 0.04-0.48 0.11-0.71 0.05-0.11 0.09-0.22 0.16-0.3l0.02-0.03 0.01-0.02c0.01-0.01 0.01-0.02 0.01-0.02l-0.05 0.1 0.02-0.03 0.13-0.21c0.09-0.15 0.07-0.05 0.12-0.12 0.42-0.44 1.22-0.94 2.28-1.11 0.14 0 0.33-0.03 0.39-0.03zm-78.84-0.05h0.04c0.1 0 0.31 0.03 0.48 0.05 0.06 0 0.24 0.03 0.35 0.04 1.06 0.17 1.87 0.67 2.28 1.11 0.06 0.07 0.03-0.02 0.12 0.12l0.13 0.21 0.02 0.03-0.05-0.1s0 0.01 0.01 0.02l0.01 0.02 0.02 0.03c0.07 0.08 0.11 0.19 0.16 0.3 0.07 0.23 0.12 0.49 0.11 0.71-0.02 0.45-0.14 0.72-0.22 0.87 0.14 0.01-0.23 0.25-0.27 0.27s0 0 0 0c-0.94 0.5-1.3 1.66-0.81 2.61 0.35 0.66 1.02 1.03 1.71 1.03 0.3 0 0.61-0.07 0.9-0.22 0 0 0.06-0.02 0.19-0.07 0.05 0 0.51-0.23 0.87-0.5 0.46-0.32 0.99-0.87 1.42-1.59 0.78 5.35 1.96 11.53 3.74 17.67-0.45-0.45-0.91-0.87-1.38-1.27-1.64-1.38-3.48-2.54-5.29-3.62-1.82-1.1-3.62-2.05-5.25-3.17-1.57-1.08-3.01-2.32-4.08-3.67-0.53-0.67-0.96-1.37-1.26-2.07-0.14-0.34-0.27-0.72-0.35-1.02l-0.02-0.19c-0.02-0.06-0.04-0.1-0.06-0.26l-0.06-0.4-0.02-0.15v-0.05c-0.14-1.32 0.25-2.78 0.99-3.88 0.17-0.27 0.41-0.58 0.52-0.72 0.03-0.04 0.16-0.17 0.24-0.25l0.15-0.15c0.11-0.11 0.23-0.21 0.36-0.31 0.49-0.4 1.07-0.71 1.66-0.94s1.21-0.39 1.8-0.44c0.22-0.04 0.49-0.05 0.68-0.05h0.16z" fill="#424242"/></g></svg>
