<svg enable-background="new 0 0 128 128" viewBox="0 0 128 128" xmlns="http://www.w3.org/2000/svg"><linearGradient id="a" x1="64" x2="64" y1="969.72" y2="1057.7" gradientTransform="translate(0 -950)" gradientUnits="userSpaceOnUse"><stop stop-color="#F6A323" offset=".5664"/><stop stop-color="#FEE133" offset=".9168"/></linearGradient><path d="M64,119.9c-27.9,0-58-17.5-58-55.9S36.1,8.1,64,8.1c15.5,0,29.8,5.1,40.4,14.4 C115.9,32.7,122,47.1,122,64s-6.1,31.2-17.6,41.4C93.8,114.7,79.4,119.9,64,119.9z" fill="url(#a)"/><path d="m64 10.1c15 0 28.9 4.9 39 13.9 11.1 9.8 17 23.6 17 40 0 16.3-5.9 30.1-17 39.9-10.2 9-24.1 14-39 14-15 0-28.9-4.9-39-13.8-11.1-9.8-17-23.6-17-40.1s5.9-30.4 17-40.2c10.1-8.8 23.9-13.7 39-13.7m0-4c-31.2 0-60 20-60 57.9 0 37.7 28.8 57.9 60 57.9s60-20.7 60-57.9c0-37.4-28.8-57.9-60-57.9z" fill="#EB8F00"/><polyline points="5.6 63.8 31.5 71.7 31.5 79.8 6.2 72" fill="#fff" stroke="#A1A1A1" stroke-linecap="round" stroke-linejoin="round" stroke-miterlimit="10" stroke-width="3"/><polygon points="16.7 98.8 11.8 91.2 32 88.9 32.5 97" fill="#fff" stroke="#A1A1A1" stroke-linecap="round" stroke-linejoin="round" stroke-miterlimit="10" stroke-width="3"/><path d="M124,64c0-37.4-28.8-57.9-60-57.9S4,26.1,4,64c0,37.7,28.8,57.9,60,57.9S124,101.2,124,64z" fill="none"/><path d="m51.6 51.4s-0.1 0-0.2-0.1c-0.1 0-0.2 0-0.3-0.1h-0.2c-0.2 0-0.5 0-0.7-0.1-0.3 0-0.7 0-1-0.1-0.8 0-1.7 0-2.7 0.2-0.5 0.1-1 0.2-1.6 0.3-0.5 0.1-1.1 0.3-1.6 0.4-0.1 0-0.7 0.2-0.9 0.3s-0.5 0.2-0.7 0.3l-1.5 0.6c-0.9 0.5-1.7 0.9-2.4 1.4s-1.1 0.8-1.4 1.1l-0.9 0.9c-1.2 1.2-3.2 1.2-4.4 0-0.9-0.9-1.2-2.2-0.7-3.4 0 0 0-0.1 0.1-0.3s0.2-0.5 0.4-0.9c0.4-0.7 1-1.7 1.9-2.7s2.1-2 3.5-2.9c0.7-0.4 1.4-0.8 2.2-1.2 0.4-0.2 0.8-0.3 1.2-0.5 0.5-0.2 0.6-0.2 1.2-0.4 0.8-0.2 1.7-0.4 2.5-0.6s1.7-0.2 2.5-0.2c1.6-0.1 3.2 0.1 4.5 0.5 0.7 0.2 1.2 0.4 1.8 0.6 0.5 0.2 0.9 0.4 1.4 0.6 0.2 0.1 0.4 0.2 0.5 0.3s0.2 0.1 0.2 0.2l0.2 0.2c1.4 1 1.7 3 0.7 4.4-1 1.1-2.4 1.5-3.6 1.2z" fill="#242424"/><path d="m76.4 51.4s0.1 0 0.2-0.1c0.1 0 0.2 0 0.3-0.1h0.2c0.2 0 0.4 0 0.7-0.1 0.3 0 0.7 0 1.1-0.1 0.8 0 1.7 0 2.7 0.2 0.5 0.1 1 0.2 1.6 0.3 0.5 0.1 1.1 0.3 1.6 0.4 0.1 0 0.7 0.2 0.9 0.3s0.5 0.2 0.7 0.3l1.5 0.6c0.9 0.5 1.7 0.9 2.4 1.4s1.1 0.8 1.4 1.1 0.5 0.5 0.5 0.5l0.4 0.4c1.2 1.2 3.2 1.2 4.4 0 0.9-0.9 1.2-2.2 0.7-3.4 0 0 0-0.1-0.1-0.3s-0.2-0.5-0.4-0.9c-0.4-0.7-1-1.7-1.9-2.7s-2.1-2-3.5-2.9c-0.7-0.4-1.4-0.8-2.2-1.2-0.4-0.2-0.8-0.3-1.2-0.5-0.5-0.2-0.6-0.2-1.2-0.4-0.8-0.2-1.7-0.4-2.5-0.6s-1.7-0.2-2.5-0.2c-1.6-0.1-3.2 0.1-4.5 0.5-0.7 0.2-1.2 0.4-1.8 0.6-0.5 0.2-0.9 0.4-1.4 0.6-0.2 0.1-0.4 0.2-0.5 0.3s-0.2 0.1-0.2 0.2l-0.2 0.2c-1.4 1-1.7 3-0.7 4.4 0.9 1.1 2.3 1.5 3.5 1.2z" fill="#242424"/><path d="m25 23.8" fill="#EB8F00"/><path d="m8.8 74.3c-0.5-3.3-0.8-6.7-0.8-10.3v-0.9l-4-1.3v2.3c0 3.1 0.2 6.2 0.6 9l4.2 1.2z" fill="#A1A1A1"/><path d="m64 121.9" fill="none"/><path d="m20.8 99.9c-2.8-3.1-5.2-6.6-7.1-10.4l-4.3 0.3c1.8 3.9 4 7.4 6.6 10.6l4.8-0.5z" fill="#A1A1A1"/><path d="m25 104.1" fill="none"/><path d="m64 6.1" fill="none"/><polyline points="121.8 72 96.5 79.8 96.5 71.7 122.3 63.9" fill="#fff" stroke="#A1A1A1" stroke-linecap="round" stroke-linejoin="round" stroke-miterlimit="10" stroke-width="3"/><polygon points="95.5 97 96 88.9 116.2 91.2 111.3 98.8" fill="#fff" stroke="#A1A1A1" stroke-linecap="round" stroke-linejoin="round" stroke-miterlimit="10" stroke-width="3"/><path d="m123.4 73c0.4-2.9 0.6-5.9 0.6-9v-2.3l-4 1.3v0.9c0 3.6-0.3 7-0.8 10.3l4.2-1.2z" fill="#A1A1A1"/><path d="m112 100.4c2.5-3.2 4.8-6.7 6.6-10.6l-4.3-0.3c-1.9 3.8-4.3 7.2-7.1 10.4l4.8 0.5z" fill="#A1A1A1"/><path d="m30.4 105.1c-1 0-1.9-0.9-1.9-1.9v-34.3c0-1.1 0.9-1.9 1.9-1.9h67.2c1.1 0 1.9 0.9 1.9 1.9v34.3c0 1.1-0.9 1.9-1.9 1.9h-67.2z" fill="#fff"/><path d="m97.5 69v34.1h-67v-34.1h67m0.1-4h-67.2c-2.2 0-3.9 1.8-3.9 3.9v34.3c0 2.2 1.8 3.9 3.9 3.9h67.2c2.2 0 3.9-1.8 3.9-3.9v-34.3c0-2.1-1.7-3.9-3.9-3.9z" fill="#A1A1A1"/></svg>
