<?xml version="1.0" encoding="utf-8"?>
<!-- Generator: Adobe Illustrator 16.0.0, SVG Export Plug-In . SVG Version: 6.00 Build 0)  -->
<!DOCTYPE svg PUBLIC "-//W3C//DTD SVG 1.1//EN" "http://www.w3.org/Graphics/SVG/1.1/DTD/svg11.dtd">
<svg version="1.1" id="レイヤー_1" xmlns="http://www.w3.org/2000/svg" xmlns:xlink="http://www.w3.org/1999/xlink" x="0px"
	 y="0px" width="128px" height="128px" viewBox="0 0 128 128" enable-background="new 0 0 128 128" xml:space="preserve">
<g>
	<g>
		<g>
			<g>
				<g>
					<path fill="#FBB817" d="M31.841,53.44c12.019-22.643,37.528-33.047,59.604-19.855c14.763,8.836,20.162,30.215,14.16,55.524
						c-2.461,10.444,4.124,12.113,3.781,17.638c-0.669,10.826-17.973,19.93-40.501,20.253c-22.529,0.327-40.312-8.254-41.073-19.075
						c-1.532-21.796-3.245-39.524,4.43-53.988"/>
				</g>
			</g>
		</g>
	</g>
	<g>
		<g>
			<path fill="#2F2F2F" d="M46.884,69.308c5.982,0,9.27-4.978,7.033-6.072c-2.232-1.103-2.457,2.914-7.033,2.914
				c-4.6,0-4.812-4.017-7.045-2.914C37.59,64.331,40.894,69.308,46.884,69.308z"/>
			<path fill="#2F2F2F" d="M79.041,69.308c-5.981,0-9.278-4.978-7.037-6.072c2.237-1.103,2.453,2.914,7.037,2.914
				c4.584,0,4.8-4.017,7.049-2.914C88.318,64.331,85.034,69.308,79.041,69.308z"/>
		</g>
		<path fill="#2F2F2F" d="M70.834,80.899c-0.646-0.724-1.694-0.102-2.218,0.378c-1.771,1.623-3.792,2.237-5.832,2.332
			c-0.02,0-0.051,0-0.075,0l0,0h-0.027h-0.023h-0.004c-0.027,0-0.067,0-0.067,0c-2.059-0.095-4.083-0.709-5.852-2.332
			c-0.516-0.48-1.571-1.102-2.217-0.378c-0.799,0.898-0.173,2.245,0.539,2.946c1.729,1.701,3.663,2.819,7.596,2.93v0.008
			c0,0,0.004,0,0.028-0.008c0.012,0.008,0.012,0.008,0.012,0.008l0.016-0.008c3.911-0.11,5.868-1.229,7.585-2.93
			C71.011,83.144,71.633,81.797,70.834,80.899z"/>
	</g>
	<g>
		<path fill="#FBB817" d="M107.941,18.236c-0.307,7.879-0.851,26.698-2.961,34.425c-1.229,4.414-3.938,8.454-6.758,12.373
			c-1.429,1.993-2.858,3.97-4.249,5.97c-1.461,2.11-7.773,8.754-1.441,9.963c4.312,0.819,4.934-5.962,8.601-4.568
			c1.496,0.567,1.103,4.639-2.441,10.057c-2.028,3.095-7.88,8.537-3.962,12.2c1.949,1.811,6.163,1.804,8.518,0.477
			c2.623-1.485,4.77-3.595,6.411-5.714c6.116-7.876,7.801-17.115,7.675-26.188c-0.071-4.946-1.343-9.853-1.099-14.798
			c0.182-3.891,0.473-7.773,0.973-11.632c0.279-2.119,0.492-4.229,0.775-6.34c0.382-2.946,0.543-5.946,0.827-8.907
			c0.303-3.15,1.607-12.003,1.666-13.255c0.067-1.658-0.662-2.583-2.237-2.989c-1.067-0.275-2.177-0.606-3.28-0.744
			c-1.362-0.166-2.749-0.189-4.127-0.079c-1.012,0.079-2.158,0.023-2.591,1.189C107.775,10.927,107.984,16.916,107.941,18.236z"/>
		<path fill="#FBB817" d="M21.016,15.125c-0.264,7.883-1.071,26.687,0.5,34.543c0.886,4.497,3.312,8.718,5.848,12.83
			c1.284,2.087,2.556,4.166,3.804,6.261c1.3,2.206,7.124,9.286,0.721,10.034c-4.355,0.512-4.489-6.293-8.25-5.167
			c-1.536,0.457-1.434,4.544,1.713,10.203c1.815,3.233,7.253,9.077,3.083,12.451c-2.083,1.674-6.276,1.359-8.529-0.13
			c-2.513-1.669-4.509-3.93-5.99-6.159c-5.529-8.293-6.548-17.626-5.781-26.667c0.43-4.93,2.052-9.734,2.158-14.688
			c0.09-3.89,0.083-7.781-0.142-11.672c-0.114-2.126-0.185-4.249-0.311-6.371c-0.185-2.969-0.118-5.97-0.189-8.947
			c-0.09-3.167-0.756-12.09-0.729-13.342c0.067-1.662,0.847-2.536,2.458-2.82c1.083-0.201,2.213-0.449,3.32-0.504
			c1.374-0.071,2.752,0,4.131,0.208c1.008,0.154,2.146,0.177,2.5,1.375C21.693,7.847,21.051,13.801,21.016,15.125z"/>
		<path fill="#CC4079" d="M43.482,14.88c0.957-0.476,1.929-0.917,2.906-1.331c1.981-0.811,4-1.469,6.068-1.993
			c5.588-1.41,11.436-1.744,17.15-1.032c5.753,0.717,11.365,2.481,16.441,5.269c3.142,1.717,6.072,3.835,8.695,6.277
			c1.473,1.371,2.886,3.032,3.91,4.852c0.46,0.807,1.028,2.158,1.65,3.497c-0.086,1.866-0.146,3.331-0.169,3.961
			c-0.091,2.804-1.036,13.526-1.398,16.051c-0.181,1.24-0.52,2.016-0.957,2.985c-2.804-2.252-9.14-6.742-11.652-8.061
			c-7.23-3.8-14.586-4.91-17.366-6.052c-5.048-2.064-9.856-5.718-14.054-9.203c-5.872-4.875-10.691-10.762-11.991-12.235
			C41.658,16.668,42.158,15.55,43.482,14.88z"/>
		<path fill="#CC4079" d="M27.647,31.79c0.016-0.496,0.04-1.512,0.09-2.835c0.166-0.315,0.358-0.626,0.559-0.938
			c1.745-2.512,7.671-11.924,11.219-7.332c1.229,1.583,2.354,3.189,3.662,4.733c2.276,2.678,4.741,5.214,7.379,7.537
			c1.749,1.536,3.568,2.977,5.466,4.332c0.894,0.646,6.363,3.914,2.429,4.146c-3.752,0.221-9.033,1.551-12.569,2.847
			c-4.651,1.698-12.176,4.734-16.571,8.443c-0.13-0.284-0.248-0.536-0.315-0.705c-0.52-1.603-0.989-2.461-1.095-4.123
			C27.703,45.352,27.529,34.585,27.647,31.79z"/>
		<g>
			<path fill="#2F2F2F" d="M125.709,9.178c-1.544-1.016-3.383-0.465-4.47,0.646c-1.426,1.489-3.032,22.863-3.257,24.635
				c-0.284,2.111-0.496,4.222-0.775,6.34c-0.5,3.859-0.792,7.742-0.973,11.632c-0.244,4.946,1.028,9.853,1.099,14.798
				c0.126,9.073-1.56,18.312-7.675,26.188c-1.642,2.119-3.788,4.229-6.411,5.714c-2.354,1.327-6.568,1.334-8.518-0.477
				c-3.918-3.663,1.934-9.104,3.962-12.2c3.544-5.418,3.938-9.49,2.441-10.057c-3.667-1.394-4.289,5.387-8.601,4.568
				c-6.332-1.209-0.02-7.853,1.441-9.963c1.39-2,2.82-3.978,4.249-5.97c2.82-3.918,5.529-7.958,6.758-12.373
				c2.111-7.727,2.808-30.692,3.107-38.56c0.083-1.843,0.378-5.552-2.745-6.072c-2.895-0.484-4.143,1.387-4.186,3.143
				c-0.039,0.992-0.165,3.926-0.331,7.403c-4.839-5.064-10.79-9.025-17.303-11.613C76.95,4.335,69.834,3.082,62.753,3.255
				c-7.037,0.174-14.046,1.772-20.406,4.8c-4.772,2.265-9.144,5.348-12.857,9.077c-0.504,0.512-1.012,1.055-1.493,1.623
				c0.118-4.615,0.245-8.951,0.299-10.191c0.067-1.756-1.055-3.709-3.965-3.438c-3.146,0.295-3.119,4.02-3.186,5.859
				c-0.252,7.872-1.201,30.826,0.37,38.682c0.886,4.497,3.312,8.718,5.848,12.83c1.284,2.087,2.556,4.166,3.804,6.261
				c1.3,2.206,7.124,9.286,0.721,10.034c-4.355,0.512-4.489-6.293-8.25-5.167c-1.536,0.457-1.434,4.544,1.713,10.203
				c1.815,3.233,7.253,9.077,3.083,12.451c-2.083,1.674-6.276,1.359-8.529-0.13c-2.513-1.669-4.509-3.93-5.99-6.159
				c-5.529-8.293-6.548-17.626-5.781-26.667c0.43-4.93,2.052-9.734,2.158-14.688c0.09-3.89,0.083-7.781-0.142-11.672
				c-0.114-2.126-0.185-4.249-0.311-6.371C9.738,28.805,9.655,7.367,8.344,5.784C7.347,4.594,5.56,3.917,3.933,4.823
				C2.472,5.642,2.362,6.989,2.382,8.28c0.02,0.433,0.027,0.866,0.027,1.269c-0.091,5.363,0.902,30.022,0.815,35.385
				c-0.087,5.427-1.367,10.77-1.871,16.169c-0.464,4.954,0.295,15.2,2.154,22.713c1.886,7.632,10.621,19.705,19.587,19.76
				c3.607,0.016,7.769-0.787,10.286-2.795c1.24-0.973,1.886-2.517,2.229-4.005c1.004-4.348-0.338-7.923-1.977-11.873
				c-0.433-1.032,0.532-0.815,1.528-0.969c0.859-0.126,1.764-0.527,2.449-0.921c1.658-0.949,2.517-2.434,2.784-3.973
				c0.323-1.886-0.043-3.883-0.721-5.722c-0.618-1.646-4.878-11.215-7.418-15.342c-0.166-0.268-0.461-0.748-0.8-1.315
				c18.308-11.813,42.958-16.365,63.392,1.796c-0.5,0.748-0.949,1.394-1.177,1.717c-2.843,3.93-7.781,13.176-8.51,14.771
				c-0.803,1.788-1.319,3.753-1.13,5.659c0.162,1.56,0.914,3.095,2.509,4.163c0.649,0.441,1.524,0.906,2.367,1.091
				c0.977,0.229,1.961,0.079,1.465,1.079c-2.123,4.28-5.336,11.79-0.898,15.854c2.366,2.181,6.458,3.284,10.065,3.52
				c8.955,0.591,18.524-10.825,20.954-18.303c2.395-7.364,3.879-17.532,3.776-22.509c-0.125-5.418-1.028-10.837-0.716-16.256
				c0.307-5.355,3.044-29.881,3.339-35.236c0.02-0.401,0.075-0.834,0.114-1.264C127.126,11.455,127.106,10.1,125.709,9.178z
				 M58.453,41.434c-3.752,0.221-9.033,1.551-12.569,2.847c-4.651,1.698-12.176,4.734-16.571,8.443
				c-0.13-0.284-0.248-0.536-0.315-0.705c-0.52-1.603-0.989-2.461-1.095-4.123c-0.201-2.543-0.374-13.31-0.256-16.106
				c0.016-0.496,0.04-1.512,0.09-2.835c0.166-0.315,0.358-0.626,0.559-0.938c1.745-2.512,7.671-11.924,11.219-7.332
				c1.229,1.583,2.354,3.189,3.662,4.733c2.276,2.678,4.741,5.214,7.379,7.537c1.749,1.536,3.568,2.977,5.466,4.332
				C56.917,37.933,62.387,41.201,58.453,41.434z M86.125,45.355c-7.23-3.8-14.586-4.91-17.366-6.052
				c-5.048-2.064-9.856-5.718-14.054-9.203c-5.872-4.875-10.691-10.762-11.991-12.235c-1.055-1.197-0.555-2.315,0.769-2.985
				c0.957-0.476,1.929-0.917,2.906-1.331c1.981-0.811,4-1.469,6.068-1.993c5.588-1.41,11.436-1.744,17.15-1.032
				c5.753,0.717,11.365,2.481,16.441,5.269c3.142,1.717,6.072,3.835,8.695,6.277c1.473,1.371,2.886,3.032,3.91,4.852
				c0.46,0.807,1.028,2.158,1.65,3.497c-0.086,1.866-0.146,3.331-0.169,3.961c-0.091,2.804-1.036,13.526-1.398,16.051
				c-0.181,1.24-0.52,2.016-0.957,2.985C94.974,51.164,88.637,46.675,86.125,45.355z"/>
		</g>
	</g>
</g>
</svg>
