<?xml version="1.0" encoding="utf-8"?>
<!-- Generator: Adobe Illustrator 16.0.0, SVG Export Plug-In . SVG Version: 6.00 Build 0)  -->
<!DOCTYPE svg PUBLIC "-//W3C//DTD SVG 1.1//EN" "http://www.w3.org/Graphics/SVG/1.1/DTD/svg11.dtd">
<svg version="1.1" id="レイヤー_1" xmlns="http://www.w3.org/2000/svg" xmlns:xlink="http://www.w3.org/1999/xlink" x="0px"
	 y="0px" width="128px" height="128px" viewBox="0 0 128 128" enable-background="new 0 0 128 128" xml:space="preserve">
<g>
	<g>
		<g>
			<path fill="#FCC21B" d="M127.88,100.37c0,15.13-12.38,27.52-27.52,27.52H27.63c-15.13,0-27.52-12.38-27.52-27.52V27.63
				c0-15.13,12.38-27.52,27.52-27.52h72.73c15.13,0,27.52,12.38,27.52,27.52V100.37z"/>
			<g>
				<g>
					<path fill="#FCC21B" d="M4.16,4.16c-2.49,2.49-4.04,5.93-4.04,9.72v100.26c0,3.78,1.55,7.22,4.04,9.72L63.99,64L4.16,4.16z"/>
					<path fill="#FCC21B" d="M123.84,4.16c-2.49-2.49-5.93-4.04-9.72-4.04H13.88c-3.78,0-7.22,1.55-9.72,4.04L63.99,64L123.84,4.16z
						"/>
					<path fill="#F79329" d="M63.99,64l59.85,59.85c2.49-2.49,4.04-5.94,4.04-9.72V13.87c0-3.78-1.55-7.22-4.04-9.72L63.99,64z"/>
					<path fill="#F79329" d="M4.16,123.85c2.49,2.49,5.93,4.04,9.72,4.04h100.25c3.78,0,7.22-1.55,9.72-4.04L63.99,64L4.16,123.85z"
						/>
				</g>
				<path fill="none" d="M127.88,100.37c0,15.13-12.38,27.52-27.52,27.52H27.63c-15.13,0-27.52-12.38-27.52-27.52V27.63
					c0-15.13,12.38-27.52,27.52-27.52h72.73c15.13,0,27.52,12.38,27.52,27.52V100.37z"/>
				<path fill="#FCC21B" d="M112.02,98.94c0,7.2-5.89,13.08-13.08,13.08H29.06c-7.2,0-13.08-5.89-13.08-13.08V29.06
					c0-7.2,5.89-13.08,13.08-13.08h69.88c7.2,0,13.08,5.89,13.08,13.08V98.94z"/>
			</g>
		</g>
	</g>
	<g>
		<path fill="#FFFFFF" d="M63.99,75.11c17.58,0,29.13-11.37,29.13-25.4c0-14.03-11.55-25.4-29.13-25.4
			c-17.56,0-29.12,11.37-29.12,25.4C34.87,63.74,46.43,75.11,63.99,75.11z M63.99,37.48c7.77,0,12.89,5.48,12.89,12.23
			c0,6.76-5.12,12.23-12.89,12.23c-7.77,0-12.89-5.48-12.89-12.23C51.1,42.96,56.23,37.48,63.99,37.48z"/>
		<path fill="#FFFFFF" d="M83.43,42.06L66.99,24.92c0,0,25.07,5.09,26.04,24.14c0.91,17.68-5.68,29.24-11.48,37.1
			c-10.35,14-24.21,19.1-24.21,19.1l-8.78-11.42c0,0,11.92-5.73,20.28-17.55c4.51-6.38,7.44-14.09,8.13-24.61L83.43,42.06z"/>
	</g>
</g>
</svg>
