<svg enable-background="new 0 0 128 128" viewBox="0 0 128 128" xmlns="http://www.w3.org/2000/svg" xmlns:xlink="http://www.w3.org/1999/xlink"><radialGradient id="i" cx="66.828" cy="122.28" r="11.86" gradientTransform="matrix(-.7071 -.7071 -.7071 .7071 151.81 78.352)" gradientUnits="userSpaceOnUse"><stop stop-color="#CCCED4" offset="0"/><stop stop-color="#918F99" offset="1"/></radialGradient><path d="m5.66 118.87 3.37 3.37c2.33 2.33 6.15 2.33 8.49 0 2.33-2.33 2.33-6.15 0-8.49l-3.37-3.37c-2.33-2.33-6.15-2.33-8.49 0-2.33 2.34-2.33 6.16 0 8.49z" fill="url(#i)"/><rect transform="matrix(-.7071 -.7071 .7071 -.7071 -31.181 193.8)" x="17.92" y="89.43" width="13.25" height="27.86" fill="#A85B24"/><path d="m88.85 23.78-1.19-4.96 14.05-15.4 21.74 0.84 0.2-0.2 0.01 0.21-84.68 84.66-7.99-7.99 53.36-58.5 4.5 1.34z" fill="#90B4BB"/><radialGradient id="h" cx="72.302" cy="91.177" r="17.615" gradientTransform="matrix(-.7071 -.7071 -.7071 .7071 151.81 78.352)" gradientUnits="userSpaceOnUse"><stop stop-color="#CCCED4" offset="0"/><stop stop-color="#918F99" offset="1"/></radialGradient><path d="m14.06 80.3c5.86-5.64 13.85-7.67 13.85-7.67 2.84 5.87 10.72 13.08 12.44 14.61l0.02-0.02s0.06 0.06 0.15 0.17c0.11 0.09 0.17 0.15 0.17 0.15l-0.02 0.02c1.53 1.72 8.74 9.6 14.61 12.44 0 0-2.02 7.99-7.67 13.85 0 0-4.53-10-14.01-19.54-9.54-9.48-19.54-14.01-19.54-14.01z" fill="url(#h)"/><linearGradient id="g" x1="64.244" x2="64.244" y1="-22.539" y2="91.868" gradientTransform="matrix(-.7071 -.7071 -.7071 .7071 151.81 78.352)" gradientUnits="userSpaceOnUse"><stop stop-color="#E5ECED" offset="0"/><stop stop-color="#BFD8D5" offset="1"/></linearGradient><path d="m123.86 4.26-0.2 0.2 0.84 21.74-47.3 43.14-4.18-2.6 1.36 5.17-27.41 25-7.99-7.99 84.68-84.68 0.2 0.02z" fill="url(#g)"/><path d="m42.53 85.23 0.15 0.15c0.8 0.8 2.11 0.8 2.91 0l66.1-66.1c0.8-0.8 0.8-2.11 0-2.91l-0.15-0.15c-0.8-0.8-2.11-0.8-2.91 0l-66.1 66.1c-0.8 0.8-0.8 2.11 0 2.91z" fill="#7B9AA1"/><path d="m33.3 96.23h11.58c0.83 0 1.5-0.67 1.5-1.5v-11.82c0-0.83-0.67-1.5-1.5-1.5h-11.58c-0.83 0-1.5 0.67-1.5 1.5v11.82c-0.01 0.83 0.67 1.5 1.5 1.5z" fill="#FFEB3B"/><linearGradient id="f" x1="34.578" x2="40.203" y1="83.212" y2="90.212" gradientUnits="userSpaceOnUse"><stop stop-color="#30753F" offset="0"/><stop stop-color="#30773E" offset=".4076"/><stop stop-color="#327E3B" offset=".5929"/><stop stop-color="#348B36" offset=".7332"/><stop stop-color="#379D2E" offset=".8509"/><stop stop-color="#3CB525" offset=".9533"/><stop stop-color="#3EC21F" offset="1"/></linearGradient><path d="m35.86 92.96h6.46c0.46 0 0.84-0.38 0.84-0.84v-6.59c0-0.46-0.38-0.84-0.84-0.84h-6.46c-0.46 0-0.84 0.38-0.84 0.84v6.59c0 0.46 0.37 0.84 0.84 0.84z" fill="url(#f)"/><g fill="#777982"><circle cx="47.96" cy="104.62" r="1.81"/><circle cx="23.36" cy="80.02" r="1.81"/></g><defs><rect id="e" transform="matrix(-.7071 -.7071 .7071 -.7071 -31.181 193.8)" x="17.92" y="89.43" width="13.25" height="27.86"/></defs><clipPath id="d"><use xlink:href="#e"/></clipPath><g clip-path="url(#d)" fill="none" stroke="#754C24" stroke-miterlimit="10" stroke-width="2.7111"><line x1="36.3" x2="23.09" y1="105.42" y2="92.21"/><line x1="31.4" x2="18.19" y1="110.32" y2="97.11"/><line x1="26.5" x2="13.29" y1="115.22" y2="102.01"/></g><g opacity=".2"><path d="m102.35 5.65 19.17 0.74 0.74 19.17-45.49 41.49-2.9-1.8c-0.32-0.2-0.69-0.3-1.06-0.3-0.42 0-0.84 0.13-1.19 0.39-0.66 0.49-0.95 1.32-0.75 2.12l1.05 4-24.85 22.67c-0.42 0.39-0.66 0.94-0.65 1.51s0.27 1.12 0.7 1.49c2.01 1.71 3.87 3.07 5.55 4.06-0.69 2.03-2.22 5.82-4.85 9.3-1.52-2.78-4.31-7.36-8.43-12.33-0.36-0.43-0.88-0.7-1.45-0.72h-0.09c-0.53 0-1.04 0.21-1.41 0.59l-18.07 18.07c-0.04 0.02-0.09 0.03-0.13 0.05-0.75 0.33-1.23 1.09-1.2 1.91 0.05 1.15-0.36 2.21-1.14 2.99-0.75 0.75-1.76 1.16-2.83 1.16s-2.08-0.41-2.83-1.16l-3.37-3.37c-1.56-1.56-1.56-4.1 0-5.66 0.74-0.74 1.74-1.15 2.82-1.15h0.17 0.08c0.79 0 1.51-0.47 1.83-1.2 0.02-0.04 0.04-0.09 0.05-0.13l18.07-18.07c0.4-0.4 0.61-0.95 0.58-1.51s-0.29-1.09-0.72-1.45c-4.97-4.12-9.56-6.91-12.33-8.43 3.48-2.64 7.27-4.16 9.3-4.85 0.99 1.68 2.35 3.54 4.06 5.55 0.37 0.44 0.91 0.69 1.49 0.7h0.03c0.56 0 1.1-0.24 1.48-0.65l51-55.91 3.29 0.98c0.19 0.06 0.38 0.08 0.57 0.08 0.5 0 1-0.19 1.38-0.55 0.52-0.49 0.74-1.22 0.57-1.92l-0.94-3.93 12.7-13.93m-0.85-2.04-14.05 15.4 1.19 4.96-4.5-1.34-51.84 56.86c-1.84-2.17-3.56-4.49-4.6-6.65 0 0-7.99 2.02-13.85 7.67 0 0 6.86 3.11 14.63 9.55l-18.68 18.67 0.14 0.14h-0.25c-1.54 0-3.07 0.57-4.24 1.73-2.33 2.33-2.33 6.15 0 8.49l3.37 3.37c1.17 1.17 2.7 1.75 4.24 1.75s3.08-0.58 4.24-1.75c1.23-1.23 1.79-2.87 1.73-4.48l0.14 0.14 18.67-18.67c6.44 7.77 9.55 14.63 9.55 14.63 5.64-5.86 7.67-13.85 7.67-13.85-2.15-1.04-4.48-2.76-6.65-4.6l25.75-23.49-1.36-5.17 4.18 2.6 47.3-43.14-0.84-21.74 0.2-0.2-0.21-0.01-0.01-0.21-0.2 0.2-21.72-0.86z" fill="#424242"/></g><radialGradient id="c" cx="66.828" cy="122.28" r="11.86" gradientTransform="matrix(.7071 -.7071 .7071 .7071 -23.395 78.352)" gradientUnits="userSpaceOnUse"><stop stop-color="#88898D" offset="0"/><stop stop-color="#504F54" offset="1"/></radialGradient><path d="m122.75 118.87-3.37 3.37c-2.33 2.33-6.15 2.33-8.49 0-2.33-2.33-2.33-6.15 0-8.49l3.37-3.37c2.33-2.33 6.15-2.33 8.49 0 2.33 2.34 2.33 6.16 0 8.49z" fill="url(#c)"/><linearGradient id="b" x1="65.675" x2="74.963" y1="107.67" y2="107.67" gradientTransform="matrix(.7071 -.7071 .7071 .7071 -23.395 78.352)" gradientUnits="userSpaceOnUse"><stop stop-color="#88898D" offset="0"/><stop stop-color="#504F54" offset="1"/></linearGradient><polygon points="118.4 108.53 109.03 117.9 89.33 98.19 98.7 88.82" fill="url(#b)"/><path d="m39.56 23.78 1.19-4.96-14.05-15.41-21.74 0.83-0.2-0.2v0.21l84.68 84.68 7.99-7.99-53.36-58.5-4.51 1.34z" fill="#90B4BB"/><linearGradient id="a" x1="72.302" x2="72.302" y1="82.968" y2="95.622" gradientTransform="matrix(.7071 -.7071 .7071 .7071 -23.395 78.352)" gradientUnits="userSpaceOnUse"><stop stop-color="#88898D" offset="0"/><stop stop-color="#504F54" offset="1"/></linearGradient><path d="m114.35 80.3c-5.86-5.64-13.85-7.67-13.85-7.67-2.84 5.87-10.72 13.08-12.44 14.61l-0.02-0.02s-0.06 0.06-0.15 0.17c-0.11 0.09-0.17 0.15-0.17 0.15l0.02 0.02c-1.53 1.72-8.74 9.6-14.61 12.44 0 0 2.02 7.99 7.67 13.85 0 0 4.53-10 14.01-19.54 9.54-9.48 19.54-14.01 19.54-14.01z" fill="url(#a)"/><linearGradient id="m" x1="64.244" x2="64.244" y1="-22.539" y2="91.868" gradientTransform="matrix(.7071 -.7071 .7071 .7071 -23.395 78.352)" gradientUnits="userSpaceOnUse"><stop stop-color="#E5ECED" offset="0"/><stop stop-color="#BFD8D5" offset="1"/></linearGradient><path d="m4.55 4.26 0.2 0.2-0.84 21.74 47.3 43.14 4.18-2.6-1.36 5.17 27.41 25 7.99-7.99-84.67-84.67-0.21 0.01z" fill="url(#m)"/><path d="m85.89 85.23-0.15 0.15c-0.8 0.8-2.11 0.8-2.91 0l-66.1-66.1c-0.8-0.8-0.8-2.11 0-2.91l0.15-0.15c0.8-0.8 2.11-0.8 2.91 0l66.1 66.1c0.8 0.8 0.8 2.11 0 2.91z" fill="#7B9AA1"/><path d="m95.12 96.23h-11.58c-0.83 0-1.5-0.67-1.5-1.5v-11.82c0-0.83 0.67-1.5 1.5-1.5h11.58c0.83 0 1.5 0.67 1.5 1.5v11.82c0 0.83-0.67 1.5-1.5 1.5z" fill="#FFEB3B"/><linearGradient id="l" x1="85.471" x2="93.181" y1="92.677" y2="84.967" gradientUnits="userSpaceOnUse"><stop stop-color="#DB0000" offset="0"/><stop stop-color="#D90101" offset=".3773"/><stop stop-color="#D20503" offset=".5488"/><stop stop-color="#C50B07" offset=".6787"/><stop stop-color="#B3150C" offset=".7876"/><stop stop-color="#9B2113" offset=".8834"/><stop stop-color="#7F301B" offset=".9687"/><stop stop-color="#72361F" offset="1"/></linearGradient><path d="m92.55 92.96h-6.45c-0.46 0-0.84-0.38-0.84-0.84v-6.59c0-0.46 0.38-0.84 0.84-0.84h6.46c0.46 0 0.84 0.38 0.84 0.84v6.59c-0.01 0.46-0.38 0.84-0.85 0.84z" fill="url(#l)"/><g fill="#393A3E"><circle cx="80.45" cy="104.62" r="1.81"/><circle cx="105.05" cy="80.02" r="1.81"/></g><defs><rect id="k" transform="matrix(.7071 -.7071 .7071 .7071 -42.666 103.72)" x="97.24" y="89.43" width="13.25" height="27.86"/></defs><clipPath id="j"><use xlink:href="#k"/></clipPath><g clip-path="url(#j)" fill="none" stroke="#4D4D4D" stroke-miterlimit="10" stroke-width="2.7111"><line x1="92.11" x2="105.32" y1="105.42" y2="92.21"/><line x1="97.01" x2="110.22" y1="110.32" y2="97.11"/><line x1="101.91" x2="115.12" y1="115.22" y2="102.01"/></g><g opacity=".2"><path d="m25.65 5.65 12.71 13.93-0.94 3.93c-0.17 0.7 0.05 1.43 0.57 1.92 0.38 0.36 0.87 0.55 1.38 0.55 0.19 0 0.38-0.03 0.57-0.08l3.29-0.98 51 55.91c0.38 0.42 0.92 0.65 1.48 0.65h0.03c0.57-0.01 1.12-0.27 1.49-0.7 1.71-2.01 3.07-3.87 4.06-5.55 2.02 0.69 5.81 2.21 9.3 4.86-2.78 1.52-7.36 4.31-12.34 8.43-0.43 0.36-0.7 0.88-0.72 1.45-0.03 0.56 0.19 1.11 0.58 1.51l18.07 18.07c0.02 0.04 0.03 0.09 0.05 0.13 0.32 0.73 1.04 1.2 1.83 1.2h0.08 0.17c1.08 0 2.08 0.41 2.82 1.15 1.56 1.56 1.56 4.1 0 5.66l-3.37 3.37c-0.75 0.75-1.76 1.16-2.83 1.16s-2.08-0.41-2.83-1.16c-0.78-0.78-1.19-1.84-1.14-2.99 0.03-0.82-0.44-1.58-1.2-1.91-0.04-0.02-0.09-0.04-0.13-0.05l-18.06-18.09c-0.38-0.38-0.89-0.59-1.41-0.59h-0.09c-0.56 0.03-1.09 0.29-1.45 0.72-4.12 4.97-6.91 9.56-8.43 12.33-2.64-3.48-4.16-7.27-4.85-9.3 1.68-0.99 3.54-2.35 5.55-4.06 0.44-0.37 0.69-0.91 0.7-1.49 0.01-0.57-0.23-1.12-0.65-1.51l-24.87-22.66 1.05-4c0.21-0.79-0.09-1.63-0.75-2.12-0.35-0.26-0.77-0.39-1.19-0.39-0.37 0-0.73 0.1-1.06 0.3l-2.9 1.8-45.48-41.5 0.74-19.16 19.17-0.74m0.85-2.04-21.74 0.84-0.2-0.2-0.01 0.21-0.21 0.01 0.2 0.2-0.83 21.74 47.29 43.13 4.18-2.6-1.36 5.17 25.75 23.49c-2.17 1.84-4.49 3.56-6.65 4.6 0 0 2.02 7.99 7.67 13.85 0 0 3.11-6.86 9.55-14.63l18.67 18.67 0.14-0.14c-0.06 1.62 0.5 3.26 1.73 4.48 1.17 1.17 2.7 1.75 4.24 1.75s3.08-0.58 4.24-1.75l3.37-3.37c2.33-2.33 2.33-6.15 0-8.49-1.17-1.17-2.7-1.73-4.24-1.73h-0.25l0.14-0.14-18.66-18.64c7.77-6.44 14.63-9.55 14.63-9.55-5.86-5.64-13.85-7.67-13.85-7.67-1.04 2.15-2.76 4.48-4.6 6.65l-51.85-56.85-4.5 1.34 1.19-4.96-14.04-15.41z" fill="#424242"/></g><circle cx="90.83" cy="87" r=".88" fill="#fff"/><circle cx="37.33" cy="86.83" r=".88" fill="#fff"/></svg>
