<svg xmlns="http://www.w3.org/2000/svg" viewBox="0 0 128 128"><path d="M127.22 93.42c0 13.86-28.29 25.1-63.22 25.1-34.92 0-63.23-11.24-63.23-25.1C.77 79.55 2.24 9.48 64 9.48c61.77 0 63.22 70.06 63.22 83.94" fill="#fcc21b"/><path d="M82.18 93.97c9.68-.36 14.23 12.61 24.02 9.77 1.83-.52 3.71-1.75 5.25-3.39l-.06-.06.06.06c1.53-1.65 2.55-3.62 3.04-5.46 2.96-11.15-9.57-21.61-13.72-20.76L82.18 93.97z" fill="#d7598b"/><path d="M64 98.38c-1.66 0-3-1.34-3-3s1.34-3 3-3c14.93 0 27.82-8.18 32.07-20.35a3 3 0 0 1 3.82-1.84 3 3 0 0 1 1.84 3.82C96.64 88.59 81.48 98.38 64 98.38z" fill="#2f2f2f"/><path d="M64 98.38c-17.48 0-32.64-9.79-37.74-24.37-.55-1.56.28-3.28 1.84-3.82s3.27.28 3.82 1.84C36.18 84.21 49.07 92.38 64 92.38c1.66 0 3 1.34 3 3s-1.34 3-3 3z" fill="#2f2f2f"/><g fill="#2f2f2f"><path d="M30.84 55.61a2.728 2.728 0 0 1-3.73.93 2.72 2.72 0 0 1-.96-3.71c.18-.31 4.6-7.62 14.37-7.62 9.78 0 14.2 7.31 14.39 7.62a2.735 2.735 0 0 1-2.36 4.11c-.92 0-1.83-.47-2.34-1.32-.13-.22-3.12-4.96-9.69-4.96-6.57-.01-9.55 4.74-9.68 4.95zM100.88 56.55c-.43.26-.91.38-1.37.38-.94 0-1.85-.49-2.36-1.34-.11-.2-3.08-4.94-9.66-4.94-6.69 0-9.66 4.89-9.69 4.94a2.724 2.724 0 0 1-4.69-2.77c.18-.31 4.6-7.62 14.38-7.62 9.77 0 14.18 7.31 14.36 7.62.76 1.3.32 2.98-.97 3.73z"/></g></svg>