<?xml version="1.0" encoding="utf-8"?>
<!-- Generator: Adobe Illustrator 19.2.1, SVG Export Plug-In . SVG Version: 6.00 Build 0)  -->
<svg version="1.1" id="Layer_3" xmlns="http://www.w3.org/2000/svg" xmlns:xlink="http://www.w3.org/1999/xlink" x="0px" y="0px"
	 viewBox="0 0 128 128" style="enable-background:new 0 0 128 128;" xml:space="preserve">
<g id="Layer_2">
</g>
<g>
	<path id="XMLID_743_" style="fill:#BFA055;" d="M53.82,50.59c-1.87-6.41-1.87-19.55-1.87-19.55l24.1-0.1c0,0,0,11.91-1.4,19.57
		L53.82,50.59z"/>
	<g id="XMLID_1400_">
		<ellipse id="XMLID_1401_" style="fill:#BFA055;" cx="64" cy="31.24" rx="12.05" ry="11.33"/>
	</g>
</g>
<g>
	<g>
		<g>
			<path style="fill:#A6A9B2;" d="M7.74,13.77c-0.88,0-1.59,0.71-1.59,1.59c0,0.88,0.71,1.59,1.59,1.59h43.49v-3.17H7.74z"/>
			<path style="fill:#A6A9B2;" d="M120.22,13.77H83.37v3.17h36.85c0.88,0,1.59-0.71,1.59-1.59
				C121.8,14.48,121.09,13.77,120.22,13.77z"/>
			<g>
				<path style="fill:#A6A9B2;" d="M104.66,4.24c0-2.14,1.73-3.87,3.87-3.87H110c2.14,0,3.87,1.73,3.87,3.87v22.25
					c0,2.14-1.73,3.87-3.87,3.87h-1.47c-2.14,0-3.87-1.73-3.87-3.87V4.24z"/>
				<path style="fill:#A6A9B2;" d="M115.88,7.03c0-1.38,1.11-2.49,2.49-2.49h0.95c1.38,0,2.49,1.11,2.49,2.49v16.67
					c0,1.38-1.11,2.49-2.49,2.49h-0.95c-1.38,0-2.49-1.11-2.49-2.49V7.03z"/>
			</g>
			<g>
				<path style="fill:#A6A9B2;" d="M23.3,26.48c0,2.14-1.73,3.87-3.87,3.87h-1.47c-2.14,0-3.87-1.73-3.87-3.87V4.24
					c0-2.14,1.73-3.87,3.87-3.87h1.47c2.14,0,3.87,1.73,3.87,3.87V26.48z"/>
				<path style="fill:#A6A9B2;" d="M12.08,23.69c0,1.38-1.11,2.49-2.49,2.49H8.64c-1.38,0-2.49-1.11-2.49-2.49V7.03
					c0-1.38,1.11-2.49,2.49-2.49h0.95c1.38,0,2.49,1.11,2.49,2.49V23.69z"/>
			</g>
			<rect x="50.57" y="13.77" style="fill:#A6A9B2;" width="33.45" height="3.17"/>
		</g>
		<g>
			<path style="fill:#566172;" d="M19.57,27.94h-1.75c-1.54,0-2.89-0.64-3.73-1.61v0.16c0,2.14,1.73,3.87,3.87,3.87h1.47
				c2.14,0,3.87-1.73,3.87-3.87v-0.16C22.46,27.3,21.1,27.94,19.57,27.94z"/>
			<path style="fill:#566172;" d="M8.54,24.23c-0.97,0-1.82-0.37-2.38-0.95v0.41c0,1.38,1.11,2.49,2.49,2.49h0.95
				c1.38,0,2.49-1.11,2.49-2.49v-0.41c-0.56,0.57-1.41,0.95-2.38,0.95H8.54z"/>
		</g>
		<g>
			<path style="fill:#566172;" d="M108.39,27.94h1.75c1.54,0,2.89-0.64,3.73-1.61v0.16c0,2.14-1.73,3.87-3.87,3.87h-1.47
				c-2.14,0-3.87-1.73-3.87-3.87v-0.16C105.49,27.3,106.85,27.94,108.39,27.94z"/>
			<path style="fill:#566172;" d="M119.42,24.23c0.97,0,1.82-0.37,2.38-0.95v0.41c0,1.38-1.11,2.49-2.49,2.49h-0.95
				c-1.38,0-2.49-1.11-2.49-2.49v-0.41c0.56,0.57,1.41,0.95,2.38,0.95H119.42z"/>
		</g>
	</g>
	<g>
		<g>
			<path style="fill:#70534A;" d="M72.3,127.83"/>
			<g>
				<path style="fill:#4568AD;" d="M49.24,127.83l-12.98-0.03l0-2.22c0.01-2.63,2.14-4.76,4.78-4.76l8.21,0.02L49.24,127.83z"/>
				<path style="fill:#E0BB95;" d="M45.67,99.96l-7.75-8.38c0,0,3.32-5.93,7.53-10.39c4.19-4.44,9.89-7.65,9.89-7.65l8.56,9.19
					c0,0-3.33,6.13-7.57,9.77S45.67,99.96,45.67,99.96z"/>
				<circle style="fill:#E0BB95;" cx="42.75" cy="94.41" r="5.56"/>
				<path style="fill:#70534A;" d="M50.51,114.09"/>
				<path style="fill:#651EFF;" d="M63.41,73.99c-2.85-2.81-7.44-2.78-10.25,0.07l0,0c-3.92,3.11-7.12,6.08-9.79,9.54L53.8,94.52
					c0,0,2.45-1.75,4.36-3.44c1.11-0.98,2.86-2.59,3.5-3.17c0.83-0.75,1.87-0.72,2.33-0.72l1.17-10.35
					C64.82,75.78,64.24,74.8,63.41,73.99z"/>
				<path style="fill:#E0BB95;" d="M49.26,120.86l-6.73-0.02c-3.1-12.78-5.33-18.77-5.31-25.98l11.03,0.49c0,0,1.3,2.46,1.6,6.21
					c0.4,5.08-0.39,11.78-0.41,12.53C49.3,117.98,49.26,120.86,49.26,120.86z"/>
				<polygon style="fill:#E0E0E0;" points="49.42,114.09 40.82,114.09 42.52,120.84 49.26,120.86 				"/>
			</g>
			<g>
				<path style="fill:#4568AD;" d="M78.71,127.83l12.98-0.03l0-2.22c-0.01-2.63-2.14-4.76-4.78-4.76l-8.21,0.02L78.71,127.83z"/>
				<path style="fill:#E0BB95;" d="M82.28,99.96l7.75-8.38c0,0-3.32-5.93-7.53-10.39c-4.19-4.44-9.89-7.65-9.89-7.65l-8.56,9.19
					c0,0,3.33,6.13,7.57,9.77S82.28,99.96,82.28,99.96z"/>
				<circle style="fill:#E0BB95;" cx="85.2" cy="94.41" r="5.56"/>
				<path style="fill:#70534A;" d="M77.44,114.09"/>
				<path style="fill:#651EFF;" d="M64.54,73.99c2.85-2.81,7.44-2.78,10.25,0.07l0,0c3.92,3.11,7.12,6.08,9.79,9.54L74.15,94.52
					c0,0-2.45-1.75-4.36-3.44c-1.11-0.98-2.86-2.59-3.5-3.17c-0.83-0.75-1.87-0.72-2.33-0.72l-1.17-10.35
					C63.14,75.78,63.72,74.8,64.54,73.99z"/>
				<path style="fill:#E0BB95;" d="M78.7,120.86l6.73-0.02c3.1-12.78,5.33-18.77,5.31-25.98l-11.03,0.49c0,0-1.3,2.46-1.6,6.21
					c-0.4,5.08,0.39,11.78,0.41,12.53C78.66,117.98,78.7,120.86,78.7,120.86z"/>
				<polygon style="fill:#E0E0E0;" points="78.53,114.09 87.13,114.09 85.43,120.84 78.7,120.86 				"/>
			</g>
		</g>
		<g>
			<g>
				<path style="fill:#651EFF;" d="M59.64,45.24c-7.01,0-10.96,3.47-10.96,7.83c-0.05,4.23,1.08,6.75,2.29,9.74
					c-0.04,4.38,0.27,9.7,1.99,14.61h11.01V45.24H59.64z"/>
				<path style="fill:#3615AF;" d="M51.02,66.04c0.06,1.69,0.2,3.34,0.43,4.95h12.53v-4.95H51.02z"/>
			</g>
			<g>
				<path style="fill:#651EFF;" d="M68.32,45.24c7.01,0,11.24,3.39,11.24,7.76c0.05,4.23-1.37,6.82-2.58,9.82
					c0.04,4.38-0.27,9.7-1.99,14.61H63.98V45.24H68.32z"/>
				<path style="fill:#3615AF;" d="M76.94,66.04c-0.06,1.69-0.2,3.34-0.43,4.95H63.99v-4.95H76.94z"/>
			</g>
		</g>
		<g>
			<g>
				<g>
					
						<ellipse transform="matrix(0.8637 -0.504 0.504 0.8637 -11.4354 24.8866)" style="fill:#70534A;" cx="40.3" cy="33.59" rx="3.71" ry="3.71"/>
					<path id="XMLID_2_" style="fill:#E0BB95;" d="M35.54,19.27l-5.16,2.5c1.06,5.38,3.34,10.2,6.76,13.78l6.44-3.67
						C41.86,26.22,39.41,23.06,35.54,19.27z"/>
					<path style="fill:#E0BB95;" d="M37.15,35.55l6.44-3.67c6.21,2.96,9.35,7.54,11.97,15.84l-6.55,4.5
						C43.38,47.74,39.28,42.58,37.15,35.55z"/>
					<path style="fill:#E0BB95;" d="M32.38,12.06l0.21,0c2.34,0,4.23,1.9,4.23,4.24l0,2.42c0,2.34-1.9,4.23-4.24,4.23l-0.21,0
						c-2.34,0-4.23-1.9-4.23-4.24l0-2.42C28.15,13.95,30.04,12.06,32.38,12.06z"/>
					<path style="fill:#70534A;" d="M48.84,51.59c-1.02-1.94-0.27-4.34,1.67-5.36c2.99-1.57,4.51,0.05,5.36,1.67
						c1.02,1.94,0.27,4.34-1.67,5.36C52.26,54.28,49.86,53.54,48.84,51.59z"/>
					<path style="fill:#651EFF;" d="M55.16,53.13c2.14-1.57,2.99-4.08,1.8-6.33l0,0c-1.56-2.96-2.92-4.62-5.09-7.61l-9.22,6.86
						c1.92,2.46,4.91,5.78,7.1,7.03C51.72,54.41,53.02,54.7,55.16,53.13z"/>
				</g>
			</g>
			<g>
				<g>
					
						<ellipse transform="matrix(0.504 -0.8637 0.8637 0.504 14.4927 92.4096)" style="fill:#70534A;" cx="87.7" cy="33.59" rx="3.71" ry="3.71"/>
					<path id="XMLID_26_" style="fill:#E0BB95;" d="M92.46,19.27l5.16,2.5c-1.06,5.38-3.34,10.2-6.76,13.78l-6.44-3.67
						C86.14,26.22,88.59,23.06,92.46,19.27z"/>
					<path style="fill:#E0BB95;" d="M90.85,35.55l-6.44-3.67c-6.21,2.96-9.35,7.54-11.97,15.84l6.55,4.5
						C84.62,47.74,88.72,42.58,90.85,35.55z"/>
					<path style="fill:#E0BB95;" d="M95.62,12.06l-0.21,0c-2.34,0-4.23,1.9-4.23,4.24l0,2.42c0,2.34,1.9,4.23,4.24,4.23l0.21,0
						c2.34,0,4.23-1.9,4.23-4.24l0-2.42C99.85,13.95,97.96,12.06,95.62,12.06z"/>
					<path style="fill:#70534A;" d="M79.16,51.59c1.02-1.94,0.27-4.34-1.67-5.36c-2.99-1.57-4.51,0.05-5.36,1.67
						c-1.02,1.94-0.27,4.34,1.67,5.36C75.74,54.28,78.14,53.54,79.16,51.59z"/>
					<path style="fill:#651EFF;" d="M72.84,53.13c-2.14-1.57-2.99-4.08-1.8-6.33l0,0c1.56-2.96,2.92-4.62,5.09-7.61l9.22,6.86
						c-1.92,2.46-4.91,5.78-7.1,7.03C76.28,54.41,74.98,54.7,72.84,53.13z"/>
				</g>
			</g>
		</g>
	</g>
</g>
<g>
	<path id="XMLID_63_" style="fill:#C17B47;" d="M64,49.62L64,49.62c-2.36,0-4.27-1.91-4.27-4.27V41.7h8.54v3.65
		C68.27,47.71,66.36,49.62,64,49.62z"/>
</g>
<g>
	<path id="XMLID_1399_" style="fill:#E0BB95;" d="M64,22.11c-6.98,0-8.81,5.41-8.81,13.02c0,7.6,5.42,9.92,8.81,9.92
		c3.39,0,8.81-2.32,8.81-9.92C72.81,27.52,70.98,22.11,64,22.11z"/>
	<path id="XMLID_1398_" style="fill:#C17B47;" d="M60.97,35.43c0,0.82-0.55,1.48-1.22,1.48c-0.68,0-1.22-0.66-1.22-1.48
		c0-0.82,0.55-1.48,1.22-1.48C60.43,33.96,60.97,34.62,60.97,35.43"/>
	<path id="XMLID_1397_" style="fill:#C17B47;" d="M67,35.43c0,0.82,0.55,1.48,1.22,1.48c0.67,0,1.22-0.66,1.22-1.48
		c0-0.82-0.55-1.48-1.22-1.48C67.54,33.96,67,34.62,67,35.43"/>
	<path id="XMLID_1396_" style="fill:#C17B47;" d="M66.65,40.42c-0.37,0-2.65,0-2.65,0s-2.28,0-2.65,0c-0.3,0-0.43,0.2-0.23,0.51
		c0.28,0.43,1.32,1.25,2.88,1.25s2.6-0.82,2.88-1.25C67.08,40.63,66.95,40.42,66.65,40.42z"/>
	<path id="XMLID_1395_" style="fill:#C17B47;" d="M65.28,38.17c-0.45,0.13-0.92,0.19-1.28,0.19c-0.36,0-0.83-0.06-1.28-0.19
		c-0.19-0.05-0.27,0.13-0.2,0.25c0.14,0.25,0.72,0.76,1.48,0.76c0.76,0,1.34-0.51,1.48-0.76C65.55,38.3,65.47,38.12,65.28,38.17z"/>
	<g id="XMLID_1393_">
		<path id="XMLID_1394_" style="fill:#BFA055;" d="M66.8,27.94c-0.93,0.89-5.52,5.03-11.86,6.11v-8.49c0,0,2.73-5.43,9.3-5.43
			s9.3,5.56,9.3,5.56v8.36c0,0-4.3-1.65-6.46-6.06C67.03,27.88,66.89,27.85,66.8,27.94z"/>
	</g>
</g>
</svg>
