<?xml version="1.0" encoding="utf-8"?>
<!-- Generator: Adobe Illustrator 16.0.0, SVG Export Plug-In . SVG Version: 6.00 Build 0)  -->
<!DOCTYPE svg PUBLIC "-//W3C//DTD SVG 1.1//EN" "http://www.w3.org/Graphics/SVG/1.1/DTD/svg11.dtd">
<svg version="1.1" id="レイヤー_1" xmlns="http://www.w3.org/2000/svg" xmlns:xlink="http://www.w3.org/1999/xlink" x="0px"
	 y="0px" width="128px" height="128px" viewBox="0 0 128 128" enable-background="new 0 0 128 128" xml:space="preserve">
<g>
	<path fill="#FFFFFF" d="M50.61,20.75c1.42-1.76,4.26-1.76,6.35-0.01c1.83,1.55,2.47,3.92,1.65,5.66c-0.11,0.25-0.27,0.49-0.44,0.71
		c-0.46,0.56-1.08,0.93-1.77,1.12c-1.42,0.41-3.17,0.05-4.57-1.14C49.74,25.35,49.2,22.5,50.61,20.75z"/>
	<path fill="#FFFFFF" d="M29.6,30.99c2.13-0.71,4.54,0.79,5.36,3.4c0.62,1.96,0.16,3.99-1.02,5.16c-0.38,0.38-0.82,0.68-1.35,0.85
		c-0.6,0.21-1.21,0.22-1.81,0.1c-1.54-0.32-2.96-1.62-3.55-3.49C26.4,34.41,27.46,31.7,29.6,30.99z"/>
	<path fill="#ED6C30" d="M60.7,104.19c2.79-4.01,3.86-9.2,1.63-13.53c-4.57-8.9-16.54-3.77-20.6,2.51c-0.98,1.5-1.52,3.23-1.74,5
		c-1.46-0.84-2.86-1.74-4.12-2.73c-3.11-2.44-5.89-5.19-8.24-8.2c-1.69-2.16-2.98-4.61-3.97-7.04c0.89,0.2,1.81,0.33,2.84,0.26
		c8.63-0.54,15.91-11.53,11.8-19.51c-3.71-7.22-12.37-5.01-17.5-0.54c-0.03-1.55-0.03-3.04,0.24-4.33c0.07-0.35,0.18-0.7,0.28-1.04
		c0.19-0.67,0.4-1.34,0.64-2.04c0.31-0.9,0.61-1.79,0.87-2.74c0.08-0.25,0.2-0.56,0.6-0.88c0.58,0.05,1.17,0.07,1.73,0.06
		c0.41-0.01,0.8-0.04,1.17-0.08c4.93-0.52,9.9-1.8,14.62-3.28c2.74-0.85,5.48-1.82,8.17-2.91c0.93,2.3,2.96,5.69,3.97,7.5
		c0.56,1.01,1.13,2,1.72,2.99c-3.04,2.19-5.35,5.38-5.73,8.93c-1.18,11.17,9.71,15.31,18.23,12.45c1.1,1.87,2.2,3.73,3.3,5.6
		c2,3.38,7.28,13.5,10.88,19.93c-5.16,2.41-11.23,3.75-17.76,3.75C62.7,104.31,61.7,104.25,60.7,104.19z"/>
	<path fill="#ED6C30" d="M79.21,86.67c-2.29-3.89-4.55-7.78-6.83-11.68c-0.37-0.66-0.76-1.31-1.14-1.96
		c2.11-1.49,3.84-3.55,4.81-6.2c1.71-4.64-0.16-9.26-3.55-12.38c-2.21-2.02-5.06-3.4-8-3.73c-1.92-0.21-3.97,0.14-5.95,0.9
		c-1.75-2.91-3.76-6.5-5.61-9.14c-0.22-0.32-0.42-0.55-0.6-0.75c2.35-1.1,4.64-2.31,6.79-3.77c1.88-1.28,3.74-2.57,5.52-4
		c1.56-1.24,3.09-2.61,4.42-4.15c0.65-0.77,1.28-1.57,1.79-2.44c0.15-0.27,0.3-0.55,0.43-0.83c0.07,0,0.16,0,0.22,0.01l0.3,0.02
		c0.6,0.03,1.25,0.14,1.91,0.28c1.49,0.31,3.12,0.85,4.73,1.54c-0.58,0.21-1.15,0.44-1.66,0.71c-2.24,1.2-3.98,3.2-5,5.49
		c-2.05,4.57-1.24,10.24,4.08,12.78c5.99,2.84,14.29-0.3,17.59-6.03c0.1,0.16,0.2,0.32,0.3,0.47c0.44,0.69,0.86,1.38,1.27,2.07
		c0.88,1.5,1.66,3,2.31,4.4c1.55,3.36,2.63,6.92,3.27,10.57c-0.76-0.03-1.5,0-2.25,0.13c-6.93,1.25-15.72,9.79-9.64,17
		c2.59,3.07,6.68,4.17,10.68,3.75c-1.29,4.25-4.52,9.72-8.15,13.78c-1.67,1.86-3.64,3.49-5.83,4.9
		C83.22,94.18,79.83,87.71,79.21,86.67z"/>
	<path fill="#2F2F2F" d="M126.34,70.53c-6.54-7.84-14.33-9.93-18.83-10.46c-0.64-5.05-1.99-9.98-4.13-14.59
		c-0.26-0.55-0.55-1.13-0.84-1.7c3.06,0.01,7.56,0.73,13.07,3.77c0.51,0.28,1.06,0.41,1.61,0.41c1.17,0,2.31-0.62,2.92-1.72
		c0.88-1.61,0.29-3.64-1.31-4.52c-8.94-4.92-16.11-4.9-19.98-4.31c-2.85-4.29-6.37-8.44-10.22-11.05c-3.29-2.22-8.31-4.79-13.19-5.9
		l1.97-7.28c0.34-1.27-0.1-2.63-1.12-3.46L65.89,1.3c-1.44-1.16-3.53-0.94-4.69,0.49c-1.17,1.43-0.94,3.53,0.49,4.68l8.72,7.05
		l-1.41,5.24c-0.71-0.57-1.46-1.08-2.13-1.5c-2.89-1.79-6.06-2.5-9.43-2.82c-0.28-0.03-0.57-0.05-0.86-0.07
		c-2.72-0.16-5.57,0.09-8.45,0.68c-0.02-0.13-0.04-0.26-0.06-0.37c-0.14-0.97-0.33-1.96-0.32-2.95c0.01-1.57,0.46-3.26-0.46-4.68
		c-0.96-1.47-3.2-0.88-3.82,0.7c-0.58,1.48-0.62,3.33-0.61,4.9c0,1.27,0,2.55,0,3.83c-3.94,1.32-7.77,3.18-11.19,5.4
		c-0.09-0.04-0.17-0.08-0.25-0.12c-1.23-0.56-2.46-1.12-3.68-1.69c-1.42-0.66-3.13-1.39-4.72-1.48c-1.68-0.09-3.15,1.7-2.21,3.18
		c0.9,1.43,2.63,1.72,4.07,2.37c0.73,0.33,1.41,0.78,2.08,1.23c-0.92,0.79-1.81,1.6-2.61,2.43c-2.81,2.92-5.06,6.42-5.87,10.44
		c-0.46,2.33-0.86,4.78-0.45,7.14c-0.29,0.36-0.54,0.75-0.77,1.14l-4.66-1.66l-1.08-11.08c-0.18-1.83-1.82-3.17-3.64-2.99
		c-1.83,0.18-3.17,1.81-2.99,3.64l1.28,13.2c0.12,1.29,0.98,2.38,2.2,2.82l6.63,2.36c-0.19,0.61-0.37,1.25-0.5,1.94
		c-0.4,1.98-0.4,3.99-0.38,5.88c0.01,1.06,0,2.14-0.01,3.23c-0.04,3.2-0.08,6.51,0.61,9.79c0.66,3.13,1.78,7.12,3.62,11.07
		c-2.03,3.01-5.44,9.86-4.27,20.89c0.18,1.71,1.63,2.98,3.3,2.98l0.36-0.02c1.84-0.2,3.16-1.84,2.97-3.66
		c-0.68-6.36,0.44-10.78,1.63-13.59c0.02,0.02,0.03,0.04,0.04,0.05c2.69,3.43,5.84,6.57,9.38,9.34c2.55,2,5.44,3.7,8.53,5.15
		c-0.56,3.89-0.51,11.04,4.43,19.9c0.62,1.09,1.75,1.71,2.92,1.71c0.55,0,1.11-0.14,1.62-0.43c1.61-0.9,2.18-2.92,1.28-4.53
		c-3.46-6.18-3.98-11.09-3.83-14.12c5.36,1.69,11.14,2.6,17,2.6l0,0c13.26,0,25.11-4.75,32.51-13.03c4.41-4.94,8.23-11.53,9.72-16.8
		c1.34-4.72,1.99-9.53,2.02-14.3c3.42,0.61,8.69,2.46,13.26,7.94c0.67,0.79,1.61,1.2,2.57,1.2c0.75,0,1.51-0.25,2.13-0.77
		C127.33,74.04,127.52,71.94,126.34,70.53z M60.7,104.19c2.79-4.01,3.86-9.2,1.63-13.53c-4.57-8.9-16.54-3.77-20.6,2.51
		c-0.98,1.5-1.52,3.23-1.74,5c-1.46-0.84-2.86-1.74-4.12-2.73c-3.11-2.44-5.89-5.19-8.24-8.2c-1.69-2.16-2.98-4.61-3.97-7.04
		c0.89,0.2,1.81,0.33,2.84,0.26c8.63-0.54,15.91-11.53,11.8-19.51c-3.71-7.22-12.37-5.01-17.5-0.54c-0.03-1.55-0.03-3.04,0.24-4.33
		c0.07-0.35,0.18-0.7,0.28-1.04c0.19-0.67,0.4-1.34,0.64-2.04c0.31-0.9,0.61-1.79,0.87-2.74c0.08-0.25,0.2-0.56,0.6-0.88
		c0.58,0.05,1.17,0.07,1.73,0.06c0.41-0.01,0.8-0.04,1.17-0.08c4.93-0.52,9.9-1.8,14.62-3.28c2.74-0.85,5.48-1.82,8.17-2.91
		c0.93,2.3,2.96,5.69,3.97,7.5c0.56,1.01,1.13,2,1.72,2.99c-3.04,2.19-5.35,5.38-5.73,8.93c-1.18,11.17,9.71,15.31,18.23,12.45
		c1.1,1.87,2.2,3.73,3.3,5.6c2,3.38,7.28,13.5,10.88,19.93c-5.16,2.41-11.23,3.75-17.76,3.75C62.7,104.31,61.7,104.25,60.7,104.19z
		 M79.21,86.67c-2.29-3.89-4.55-7.78-6.83-11.68c-0.37-0.66-0.76-1.31-1.14-1.96c2.11-1.49,3.84-3.55,4.81-6.2
		c1.71-4.64-0.16-9.26-3.55-12.38c-2.21-2.02-5.06-3.4-8-3.73c-1.92-0.21-3.97,0.14-5.95,0.9c-1.75-2.91-3.76-6.5-5.61-9.14
		c-0.22-0.32-0.42-0.55-0.6-0.75c2.35-1.1,4.64-2.31,6.79-3.77c1.88-1.28,3.74-2.57,5.52-4c1.56-1.24,3.09-2.61,4.42-4.15
		c0.65-0.77,1.28-1.57,1.79-2.44c0.15-0.27,0.3-0.55,0.43-0.83c0.07,0,0.16,0,0.22,0.01l0.3,0.02c0.6,0.03,1.25,0.14,1.91,0.28
		c1.49,0.31,3.12,0.85,4.73,1.54c-0.58,0.21-1.15,0.44-1.66,0.71c-2.24,1.2-3.98,3.2-5,5.49c-2.05,4.57-1.24,10.24,4.08,12.78
		c5.99,2.84,14.29-0.3,17.59-6.03c0.1,0.16,0.2,0.32,0.3,0.47c0.44,0.69,0.86,1.38,1.27,2.07c0.88,1.5,1.66,3,2.31,4.4
		c1.55,3.36,2.63,6.92,3.27,10.57c-0.76-0.03-1.5,0-2.25,0.13c-6.93,1.25-15.72,9.79-9.64,17c2.59,3.07,6.68,4.17,10.68,3.75
		c-1.29,4.25-4.52,9.72-8.15,13.78c-1.67,1.86-3.64,3.49-5.83,4.9C83.22,94.18,79.83,87.71,79.21,86.67z M50.61,20.75
		c1.42-1.76,4.26-1.76,6.35-0.01c1.83,1.55,2.47,3.92,1.65,5.66c-0.11,0.25-0.27,0.49-0.44,0.71c-0.46,0.56-1.08,0.93-1.77,1.12
		c-1.42,0.41-3.17,0.05-4.57-1.14C49.74,25.35,49.2,22.5,50.61,20.75z M29.6,30.99c2.13-0.71,4.54,0.79,5.36,3.4
		c0.62,1.96,0.16,3.99-1.02,5.16c-0.38,0.38-0.82,0.68-1.35,0.85c-0.6,0.21-1.21,0.22-1.81,0.1c-1.54-0.32-2.96-1.62-3.55-3.49
		C26.4,34.41,27.46,31.7,29.6,30.99z"/>
</g>
</svg>
