<svg enable-background="new 0 0 128 128" viewBox="0 0 128 128" xmlns="http://www.w3.org/2000/svg" xmlns:xlink="http://www.w3.org/1999/xlink"><circle cx="45.62" cy="119.26" r="4.74" fill="#424242"/><circle cx="45.62" cy="119.26" r="2.55" fill="#BDBDBD"/><circle cx="84.26" cy="119.26" r="4.74" fill="#424242"/><circle cx="84.26" cy="119.26" r="2.55" fill="#BDBDBD"/><linearGradient id="f" x1="54.08" x2="54.08" y1="36" y2="6.487" gradientUnits="userSpaceOnUse"><stop stop-color="#E0E0E0" offset="0"/><stop stop-color="#757575" offset=".9994"/></linearGradient><rect x="52.51" y="9.93" width="3.15" height="26.45" fill="url(#f)"/><linearGradient id="e" x1="73.62" x2="73.62" y1="36" y2="6.487" gradientUnits="userSpaceOnUse"><stop stop-color="#E0E0E0" offset="0"/><stop stop-color="#757575" offset=".9994"/></linearGradient><rect x="72.05" y="9.93" width="3.15" height="26.45" fill="url(#e)"/><linearGradient id="d" x1="63.872" x2="63.872" y1="5.25" y2="13.508" gradientUnits="userSpaceOnUse"><stop stop-color="#424242" offset=".00060096"/><stop offset="1"/></linearGradient><path d="m51.41 8.46v5.69h5.38v-4.99h14.03v4.33h5.51v-5.03c0-1-0.62-1.9-1.56-2.23-1.75-0.61-5.12-1.39-10.89-1.39s-9.15 0.79-10.89 1.39c-0.96 0.33-1.58 1.23-1.58 2.23z" fill="url(#d)"/><linearGradient id="c" x1="64" x2="64" y1="25.796" y2="120.06" gradientUnits="userSpaceOnUse"><stop stop-color="#90A4AE" offset="0"/><stop stop-color="#889DA7" offset=".2375"/><stop stop-color="#738A95" offset=".6015"/><stop stop-color="#546E7A" offset="1"/></linearGradient><path d="m88.75 119.02h-49.5c-4.06 0-7.37-3.32-7.37-7.37v-79c0-4.06 3.32-7.37 7.37-7.37h49.51c4.06 0 7.37 3.32 7.37 7.37v79c0 4.05-3.32 7.37-7.38 7.37z" fill="url(#c)"/><path d="m45.86 105.99h-0.08c-1.35 0-2.46-1.11-2.46-2.46v-62.77c0-1.35 1.11-2.46 2.46-2.46h0.08c1.35 0 2.46 1.11 2.46 2.46v62.77c0 1.35-1.1 2.46-2.46 2.46z" fill="#B0BEC5" opacity=".7"/><path d="m58.07 105.99h-0.08c-1.35 0-2.46-1.11-2.46-2.46v-62.77c0-1.35 1.11-2.46 2.46-2.46h0.08c1.35 0 2.46 1.11 2.46 2.46v62.77c-0.01 1.35-1.11 2.46-2.46 2.46z" fill="#B0BEC5" opacity=".7"/><path d="m70.27 105.99h-0.08c-1.35 0-2.46-1.11-2.46-2.46v-62.77c0-1.35 1.11-2.46 2.46-2.46h0.08c1.35 0 2.46 1.11 2.46 2.46v62.77c0 1.35-1.11 2.46-2.46 2.46z" fill="#B0BEC5" opacity=".7"/><path d="m82.47 105.99h-0.08c-1.35 0-2.46-1.11-2.46-2.46v-62.77c0-1.35 1.11-2.46 2.46-2.46h0.08c1.35 0 2.46 1.11 2.46 2.46v62.77c0 1.35-1.11 2.46-2.46 2.46z" fill="#B0BEC5" opacity=".7"/><defs><path id="b" d="m88.75 118.56h-49.5c-4.06 0-7.37-3.32-7.37-7.37v-79c0-4.06 3.32-7.37 7.37-7.37h49.51c4.06 0 7.37 3.32 7.37 7.37v79c0 4.05-3.32 7.37-7.38 7.37z"/></defs><clipPath id="a"><use xlink:href="#b"/></clipPath><g clip-path="url(#a)"><path d="m32.38 34.3h-2.88c-6.07 0-11.04-4.97-11.04-11.04v-2.89c0-6.07 4.97-11.04 11.04-11.04h2.89c6.07 0 11.04 4.97 11.04 11.04v2.89c0 6.07-4.97 11.04-11.05 11.04z" fill="#455A64"/><path d="m98.86 34.3h-2.89c-6.07 0-11.04-4.97-11.04-11.04v-2.89c0-6.07 4.97-11.04 11.04-11.04h2.89c6.07 0 11.04 4.97 11.04 11.04v2.89c0 6.07-4.96 11.04-11.04 11.04z" fill="#455A64"/><path d="m32.38 134.68h-2.88c-6.07 0-11.04-4.97-11.04-11.04v-2.89c0-6.07 4.97-11.04 11.04-11.04h2.89c6.07 0 11.04 4.97 11.04 11.04v2.89c0 6.07-4.97 11.04-11.05 11.04z" fill="#37474F"/><path d="m98.86 134.68h-2.89c-6.07 0-11.04-4.97-11.04-11.04v-2.89c0-6.07 4.97-11.04 11.04-11.04h2.89c6.07 0 11.04 4.97 11.04 11.04v2.89c0 6.07-4.96 11.04-11.04 11.04z" fill="#37474F"/></g><circle cx="81.06" cy="46.9" r="6.44" fill="#DCEDC8"/><path d="m81.06 41.46c3 0 5.44 2.44 5.44 5.44s-2.44 5.44-5.44 5.44-5.44-2.44-5.44-5.44 2.44-5.44 5.44-5.44m0-2c-4.11 0-7.44 3.33-7.44 7.44s3.33 7.44 7.44 7.44 7.44-3.33 7.44-7.44-3.33-7.44-7.44-7.44z" fill="#2CA94F"/><path d="m47.37 81.46c-1 0-1.79-0.28-2.34-0.83-1.86-1.86-0.51-6.36 2.95-9.82 2.33-2.33 5.19-3.78 7.48-3.78 1 0 1.79 0.28 2.34 0.83 1.86 1.86 0.51 6.36-2.95 9.82-2.33 2.33-5.2 3.78-7.48 3.78z" fill="#BBDEFB"/><path d="m55.46 68.08c0.72 0 1.26 0.18 1.61 0.52 0.56 0.56 0.68 1.67 0.32 3.04-0.46 1.75-1.65 3.69-3.27 5.31-2.11 2.11-4.76 3.47-6.74 3.47-0.72 0-1.26-0.18-1.61-0.52-1.27-1.27-0.28-5.12 2.95-8.35 2.1-2.11 4.75-3.47 6.74-3.47m0-2.07c-2.47 0-5.59 1.46-8.21 4.08-3.93 3.93-5.25 8.98-2.95 11.28 0.77 0.77 1.84 1.13 3.07 1.13 2.47 0 5.59-1.46 8.21-4.08 3.93-3.93 5.25-8.98 2.95-11.28-0.77-0.77-1.84-1.13-3.07-1.13z" fill="#4480F7"/><rect transform="matrix(.9712 -.2383 .2383 .9712 -8.3429 13.912)" x="44.18" y="37.12" width="18.36" height="8.67" fill="#FAFAFA"/><path d="m60.51 36.27 1.59 6.47-15.89 3.9-1.59-6.47 15.89-3.9m1.47-2.42-19.78 4.85 2.54 10.36 19.77-4.85-2.53-10.36z" fill="#EC4431"/><path d="m68.6 59.98c-0.08 0-0.15-0.01-0.23-0.03l-12.52-2.97c-0.54-0.13-0.87-0.67-0.74-1.2l1.5-6.32c0.11-0.45 0.52-0.77 0.98-0.77 0.08 0 0.15 0.01 0.23 0.03l12.52 2.97c0.26 0.06 0.48 0.22 0.62 0.45s0.18 0.5 0.12 0.75l-1.5 6.32c-0.11 0.45-0.52 0.77-0.98 0.77z" fill="#FFF9C4"/><path d="m57.59 49.69 12.51 2.97-1.5 6.32-12.52-2.97 1.51-6.32m-0.01-2.01c-0.9 0-1.73 0.62-1.95 1.54l-1.5 6.32c-0.25 1.07 0.41 2.15 1.48 2.41l12.52 2.97c0.15 0.04 0.31 0.05 0.46 0.05 0.9 0 1.73-0.62 1.95-1.54l1.5-6.32c0.25-1.07-0.41-2.15-1.48-2.41l-12.52-2.97c-0.15-0.03-0.3-0.05-0.46-0.05z" fill="#FBBE00"/><g opacity=".2"><path d="m88.75 28.27c2.41 0 4.37 1.96 4.37 4.37v79c0 2.34-1.9 4.29-4.24 4.36l-3.07 0.09 0.16 3.07c0 0.07 0.01 0.14 0.02 0.21-0.06 0.91-0.82 1.62-1.74 1.62s-1.68-0.72-1.74-1.62c0.01-0.07 0.01-0.14 0.02-0.21l0.16-3.15h-35.51l0.16 3.15c0 0.07 0.01 0.14 0.02 0.21-0.06 0.9-0.82 1.62-1.74 1.62s-1.68-0.72-1.74-1.62c0.01-0.07 0.01-0.14 0.02-0.21l0.16-3.15h-4.82c-2.41 0-4.37-1.96-4.37-4.37v-79c0-2.41 1.96-4.37 4.37-4.37h49.51m-24.88-23.44c-5.78 0-9.15 0.79-10.89 1.39-0.94 0.33-1.56 1.23-1.56 2.23v5.69h1.09v11.13h-13.26c-4.06 0-7.37 3.32-7.37 7.37v79c0 4.06 3.32 7.37 7.37 7.37h1.66c0 0.08-0.02 0.16-0.02 0.24 0 2.62 2.12 4.74 4.74 4.74s4.74-2.12 4.74-4.74c0-0.08-0.02-0.16-0.02-0.24h29.21c0 0.08-0.02 0.16-0.02 0.24 0 2.62 2.12 4.74 4.74 4.74s4.74-2.12 4.74-4.74c0-0.09-0.02-0.17-0.03-0.25 3.95-0.12 7.15-3.38 7.15-7.36v-79c0-4.06-3.32-7.37-7.37-7.37h-13.58v-11.78h1.14v-5.03c0-1-0.62-1.9-1.56-2.23-1.75-0.61-5.12-1.4-10.9-1.4zm-8.22 20.44v-11.13h1.14v-4.98h14.03v4.33h1.22v11.78h-16.39z" fill="#424242"/></g></svg>
