<?xml version="1.0" encoding="utf-8"?>
<!-- Generator: Adobe Illustrator 19.2.1, SVG Export Plug-In . SVG Version: 6.00 Build 0)  -->
<svg version="1.1" id="图层_1" xmlns="http://www.w3.org/2000/svg" xmlns:xlink="http://www.w3.org/1999/xlink" x="0px" y="0px"
	 viewBox="0 0 128 128" style="enable-background:new 0 0 128 128;" xml:space="preserve">
<g>
	<g>
		<g>
			<path style="fill:#FCC21B;" d="M0.34,93.41c0,13.86,28.59,25.08,63.88,25.08c35.29,0,63.88-11.22,63.88-25.08
				c0-13.84-1.47-83.8-63.88-83.8C1.82,9.62,0.34,79.58,0.34,93.41z"/>
		</g>
	</g>
</g>
<g>
	<path style="fill:#2F2F2F;" d="M98.46,52c-0.5,1.13-1.7,1.72-2.86,1.52c-0.21-0.04-0.42-0.1-0.61-0.19
		c-7.83-3.49-18.47-3.39-18.57-3.39c-1.21,0.02-2.24-0.78-2.57-1.92c-0.33-1.15,0.16-2.37,1.18-2.98
		c9.01-5.41,21.72-7.26,22.25-7.33c1.45-0.2,2.78,0.8,2.98,2.24c0.2,1.44-0.81,2.77-2.24,2.98c-0.07,0.01-5.28,0.76-11.12,2.65
		c3.25,0.47,6.94,1.48,10.24,2.94C98.46,49.11,99.06,50.68,98.46,52z"/>
	<path style="fill:#2F2F2F;" d="M29.76,52c0.5,1.13,1.7,1.72,2.86,1.52c0.21-0.04,0.42-0.1,0.61-0.19
		c7.83-3.49,18.47-3.39,18.57-3.39c1.21,0.02,2.24-0.78,2.57-1.92c0.33-1.15-0.16-2.37-1.18-2.98c-9.01-5.41-21.72-7.26-22.25-7.33
		c-1.45-0.2-2.78,0.8-2.98,2.24c-0.2,1.44,0.81,2.77,2.24,2.98c0.07,0.01,5.28,0.76,11.12,2.65c-3.25,0.47-6.94,1.48-10.24,2.94
		C29.77,49.11,29.17,50.68,29.76,52z"/>
</g>
<path style="fill:#ED6C30;" d="M96.97,71.53c-4.53-4.44-11.02-8.49-17.66-8.7c-5.35-0.17-9.66,2.78-15.08,2.78
	s-9.73-2.95-15.08-2.78c-6.64,0.21-13.13,4.26-17.66,8.7c-5.44,5.34-8.92,13.38-6.48,20.86c0.57,1.74,1.64,3.57,2.93,4.92
	c1.64,1.71,4.39,3.22,6.71,3.83c4.63,1.21,9.5,0.32,13.85-1.45c4.38-1.78,7.88-5.39,15.74-5.39c7.85,0,11.36,3.61,15.74,5.39
	c4.34,1.76,9.22,2.65,13.85,1.45c2.32-0.61,5.07-2.13,6.71-3.83c1.29-1.35,2.36-3.18,2.93-4.92
	C105.89,84.91,102.41,76.86,96.97,71.53z"/>
<g>
	<path style="fill:#FFFFFF;" d="M111.62,77.29c-2.96-1.19-4.4-3.69-5.58-6.49c-0.7-1.6-1.2-3.27-1.52-4.65
		c-0.83-3.55-2.67-6.69-3.55-10.12c-0.25-1-0.26-2.38,0.98-2.49c1.02-0.07,2.61,0.47,3.57,0.75c6.53,1.98,14.45,6.77,15.12,14.16
		c0.24,2.39,0.17,5.86-1.8,7.7C116.88,78.02,114.05,78.25,111.62,77.29z"/>
	<path style="fill:#FFFFFF;" d="M125.54,94.77c-0.39,1.71-1.21,4.09-2.98,4.94c-1.76,0.83-3.75,0.37-5.21-0.82
		c-1.79-1.46-2.22-3.51-2.39-5.7c-0.11-1.29-0.09-2.51,0-3.55c0.22-2.62-0.32-5.2-0.15-7.76c0.05-0.74,0.34-1.71,1.21-1.49
		c0.72,0.17,1.7,0.89,2.29,1.31C122.36,84.5,126.74,89.52,125.54,94.77z"/>
</g>
<g>
	<path style="fill:#FFFFFF;" d="M16.86,77.29c2.96-1.19,4.4-3.69,5.58-6.49c0.7-1.6,1.2-3.27,1.52-4.65
		c0.83-3.55,2.67-6.69,3.55-10.12c0.25-1,0.26-2.38-0.98-2.49c-1.02-0.07-2.61,0.47-3.57,0.75c-6.53,1.98-14.45,6.77-15.12,14.16
		c-0.24,2.39-0.17,5.86,1.8,7.7C11.6,78.02,14.42,78.25,16.86,77.29z"/>
	<path style="fill:#FFFFFF;" d="M2.94,94.77c0.39,1.71,1.21,4.09,2.98,4.94c1.76,0.83,3.75,0.37,5.21-0.82
		c1.79-1.46,2.22-3.51,2.39-5.7c0.11-1.29,0.09-2.51,0-3.55c-0.22-2.62,0.32-5.2,0.15-7.76c-0.05-0.74-0.34-1.71-1.21-1.49
		c-0.72,0.17-1.7,0.89-2.29,1.31C6.12,84.5,1.74,89.52,2.94,94.77z"/>
</g>
</svg>
