<svg enable-background="new 0 0 128 128" viewBox="0 0 128 128" xmlns="http://www.w3.org/2000/svg"><path d="m64.15 4.02h-0.27c-1.17 0-2.12 0.95-2.12 2.12v4.45c0 1.17 0.95 2.12 2.12 2.12h0.27c1.17 0 2.12-0.95 2.12-2.12v-4.44c0-1.18-0.95-2.13-2.12-2.13z" fill="#616161"/><rect transform="matrix(-1 -.00013922 .00013922 -1 127.99 139.56)" x="61.03" y="40.82" width="5.94" height="57.91" fill="#E0E0E0"/><g opacity=".2"><path d="m62.03 41.82h3.94l-0.01 56.16h-3.94l0.01-56.16m-1-1-0.01 58.16h5.94l0.01-58.16h-5.94z" fill="#424242"/></g><path d="m68.2 112.17v-17.68h-8.91v17.68c0 1.64-1.33 2.97-2.97 2.97s-2.97-1.33-2.97-2.97v-1.49c0-2.46-1.99-4.46-4.46-4.46-2.46 0-4.46 1.99-4.46 4.46v1.49c0 6.56 5.32 11.88 11.88 11.89 6.57-0.01 11.89-5.33 11.89-11.89z" fill="#616161"/><g opacity=".2"><path d="m61.29 96.48h4.91v15.68c0 5.45-4.43 9.88-9.89 9.88-2.64 0-5.12-1.03-6.99-2.9s-2.89-4.35-2.89-6.99v-1.49c0-1.35 1.1-2.46 2.46-2.46 1.35 0 2.46 1.1 2.46 2.46v1.49c0 1.33 0.52 2.58 1.46 3.52s2.19 1.46 3.51 1.46c2.74 0 4.97-2.23 4.97-4.97v-15.68m-2-2v17.68c0 1.64-1.33 2.97-2.97 2.97s-2.97-1.33-2.97-2.97v-1.49c0-2.46-1.99-4.46-4.46-4.46-2.46 0-4.46 1.99-4.46 4.46v1.49c0 6.56 5.32 11.88 11.88 11.89 6.56 0 11.88-5.32 11.88-11.88v-17.68l-8.9-0.01z" fill="#424242"/></g><linearGradient id="b" x1="39.549" x2="80.552" y1="14.167" y2="85.185" gradientUnits="userSpaceOnUse"><stop stop-color="#BA68C8" offset="0"/><stop stop-color="#9C27B0" offset="1"/></linearGradient><path d="m19.69 55.57c6.2 0 11.51 4.02 13.76 9.73 0.41 1.05 1.83 1.05 2.25 0 2.25-5.72 7.55-9.73 13.76-9.73 6.2 0 11.51 4.02 13.76 9.73 0.41 1.05 1.83 1.05 2.25 0 2.25-5.72 7.55-9.73 13.76-9.73 6.2 0 11.51 4.02 13.76 9.73 0.41 1.05 1.83 1.05 2.25 0 2.25-5.72 7.55-9.73 13.76-9.73 4.51 0 8.55 2.13 11.28 5.49 0.83 1.02 2.41 0.25 2.16-1.08-5.37-29.07-29.41-51.46-58.27-51.46-29.01 0-53.16 22.66-58.33 51.98-0.24 1.35 1.38 2.11 2.18 1.04 2.73-3.64 6.94-5.97 11.67-5.97z" fill="url(#b)"/><linearGradient id="a" x1="22.856" x2="-11.084" y1="41.734" y2="91.477" gradientUnits="userSpaceOnUse"><stop stop-color="#BA68C8" offset="0"/><stop stop-color="#9C27B0" offset="1"/></linearGradient><polygon points="5.88 66.61 5.88 66.61 5.88 66.6" fill="url(#a)"/><g opacity=".2"><path d="m122.41 59.99c-5.27-28.73-28.81-50.92-57.21-51.45-0.28-0.08-0.45-0.12-0.51-0.14-0.28-0.07-0.55-0.01-0.78 0.12-28.9 0.14-52.91 22.75-58.07 51.98-0.16 0.91 0.52 1.55 1.22 1.55 0.35 0 0.7-0.15 0.96-0.51 2.73-3.64 6.94-5.97 11.67-5.97 6.2 0 11.51 4.02 13.76 9.73 0.1 0.24 0.25 0.43 0.43 0.56 0.2 0.56 0.56 1.14 0.97 1.14h0.02c0.63 0 1.13-1.32 1.12-1.91v-0.45c2.39-5.36 7.51-9.07 13.47-9.07 6.2 0 11.51 4.02 13.76 9.73 0.21 0.53 0.67 0.79 1.12 0.79 0.46 0 0.92-0.26 1.12-0.79 2.25-5.72 7.55-9.73 13.76-9.73 6.2 0 11.51 4.02 13.76 9.73 0.13 0.33 0.37 0.55 0.64 0.67 0.18 0.53 0.52 1.03 0.9 1.03 0.63 0 1.14-1.35 1.14-1.94 0-0.08 0-0.35-0.01-0.76 2.45-5.17 7.49-8.72 13.32-8.72 4.51 0 8.55 2.13 11.28 5.49 0.27 0.33 0.61 0.47 0.94 0.47 0.71 0 1.38-0.65 1.22-1.55zm-102.72-7.42c-3.49 0-6.83 1.05-9.68 2.97 3.1-11.53 9.4-21.96 18.06-29.8 8.12-7.35 17.96-12.04 28.31-13.62-4.37 2.72-9.83 7.34-14.3 14.96-6.25 10.65-7.85 25.11-8.25 32.78-3.33-4.54-8.5-7.29-14.14-7.29zm29.76 0c-5.16 0-9.93 2.31-13.25 6.17 0.51-7.84 2.21-21.33 7.89-31.01 5.79-9.87 13.44-14.34 17.6-16.15 0.55-0.03 1.09-0.03 1.64-0.04v47.95c-3.36-4.31-8.4-6.92-13.88-6.92zm29.75 0c-5.5 0-10.55 2.62-13.89 6.95v-47.98c0.45 0.01 0.9 0.02 1.34 0.04 4.02 1.73 12.08 6.26 18.13 16.56 5.87 9.99 7.73 23.81 8.32 31.39-3.34-4.33-8.39-6.96-13.9-6.96zm29.76 0c-5.33 0-10.24 2.45-13.58 6.55-0.6-7.9-2.5-22.05-8.6-32.43-4.23-7.2-9.36-11.67-13.62-14.38 21.28 3.73 39.01 20.46 45.11 43.01-2.77-1.78-5.98-2.75-9.31-2.75z" fill="#424242"/></g><path d="m95.14 70.85h-1.15c-0.56 0-1.01-0.46-1.01-1.01v-4.37c0-0.56 0.46-1.01 1.01-1.01h1.15c0.56 0 1.01 0.46 1.01 1.01v4.37c0 0.56-0.45 1.01-1.01 1.01z" fill="#616161"/><path d="m64.79 71.77h-1.15c-0.56 0-1.01-0.46-1.01-1.01v-4.37c0-0.56 0.46-1.01 1.01-1.01h1.15c0.56 0 1.01 0.46 1.01 1.01v4.37c0.01 0.55-0.45 1.01-1.01 1.01z" fill="#616161"/><path d="m35.18 70.85h-1.15c-0.56 0-1.01-0.46-1.01-1.01v-4.37c0-0.56 0.46-1.01 1.01-1.01h1.15c0.56 0 1.01 0.46 1.01 1.01v4.37c0 0.56-0.46 1.01-1.01 1.01z" fill="#616161"/><path d="m123.13 65.91-0.99 0.3c-0.56 0.17-1.16-0.16-1.33-0.73l-1.19-4.04c-0.17-0.57 0.15-1.19 0.72-1.36l0.99-0.3c0.56-0.17 1.16 0.16 1.33 0.73l1.19 4.04c0.17 0.58-0.15 1.19-0.72 1.36z" fill="#616161"/><path d="m5.19 65.91 0.99 0.3c0.56 0.17 1.16-0.16 1.33-0.73l1.19-4.04c0.17-0.57-0.15-1.19-0.72-1.36l-0.99-0.3c-0.56-0.17-1.16 0.16-1.33 0.73l-1.19 4.04c-0.16 0.58 0.16 1.19 0.72 1.36z" fill="#616161"/></svg>
