<svg width="128" height="128" style="enable-background:new 0 0 128 128;" xmlns="http://www.w3.org/2000/svg" xmlns:xlink="http://www.w3.org/1999/xlink">
  <g>
    <linearGradient id="SVGID_1_" gradientUnits="userSpaceOnUse" x1="64" x2="64" y1="4.25" y2="124.4088">
      <stop offset="0" style="stop-color:#B388FF"/>
      <stop offset="0.3773" style="stop-color:#A175FF"/>
      <stop offset="1" style="stop-color:#7C4DFF"/>
    </linearGradient>
    <path d="M116,124H12c-4.42,0-8-3.58-8-8V12c0-4.42,3.58-8,8-8h104c4.42,0,8,3.58,8,8v104 C124,120.42,120.42,124,116,124z" style="fill:url(#SVGID_1_);"/>
    <g style="opacity:0.2;">
      <path d="M116,7c2.76,0,5,2.24,5,5v104c0,2.76-2.24,5-5,5H12c-2.76,0-5-2.24-5-5V12c0-2.76,2.24-5,5-5H116 M116,4H12c-4.42,0-8,3.58-8,8v104c0,4.42,3.58,8,8,8h104c4.42,0,8-3.58,8-8V12C124,7.58,120.42,4,116,4L116,4z" style="fill:#424242;"/>
    </g>
    <g style="opacity:0.2;">
      <path d="M18.98,24c0.13,0,0.27,0.07,0.37,0.21c0.82,1.12,2.72,4.04,2.64,6.9c0,0.02,0,0.04,0,0.05 c0,2.67-1.34,4.84-2.98,4.84c-0.01,0-0.01,0-0.02,0c-0.01,0-0.01,0-0.02,0C17.34,36,16,33.83,16,31.16c0-0.02,0-0.04,0-0.05 c-0.08-2.86,1.8-5.77,2.61-6.89C18.72,24.07,18.85,24,18.98,24 M18.98,21c-1.11,0-2.13,0.53-2.8,1.45 c-1.22,1.68-3.23,5.01-3.18,8.6c0,0.03,0,0.07,0,0.1c0,4.31,2.39,7.6,5.63,7.83L18.67,39l0.21,0c0.03,0,0.06,0,0.1,0h0.33 l0.05-0.01C22.6,38.77,25,35.48,25,31.16v-0.14l0-0.01c0.03-3.58-2-6.9-3.22-8.57C21.1,21.52,20.09,21,18.98,21L18.98,21z" style="fill:#424242;"/>
      <path d="M30.23,24c0.13,0,0.27,0.07,0.37,0.21c0.82,1.12,2.72,4.04,2.64,6.9c0,0.02,0,0.04,0,0.05 c0,2.67-1.34,4.84-2.98,4.84c-0.01,0-0.01,0-0.02,0c-0.01,0-0.01,0-0.02,0c-1.65,0-2.98-2.17-2.98-4.84c0-0.02,0-0.04,0-0.05 c-0.08-2.86,1.8-5.77,2.61-6.89C29.97,24.07,30.1,24,30.23,24 M30.23,21c-1.11,0-2.13,0.53-2.8,1.45 c-1.22,1.68-3.23,5.01-3.18,8.6c0,0.03,0,0.07,0,0.1c0,4.31,2.39,7.6,5.63,7.83L29.92,39l0.21,0c0.03,0,0.06,0,0.1,0h0.33 l0.05-0.01c3.24-0.22,5.64-3.51,5.64-7.83v-0.14l0-0.01c0.03-3.58-2-6.9-3.22-8.57C32.35,21.52,31.34,21,30.23,21L30.23,21z" style="fill:#424242;"/>
      <path d="M41.48,24c0.13,0,0.27,0.07,0.37,0.21c0.82,1.12,2.72,4.04,2.64,6.9c0,0.02,0,0.04,0,0.05 c0,2.67-1.34,4.84-2.98,4.84c-0.01,0-0.01,0-0.02,0c-0.01,0-0.01,0-0.02,0c-1.65,0-2.98-2.17-2.98-4.84c0-0.02,0-0.04,0-0.05 c-0.08-2.86,1.8-5.77,2.61-6.89C41.22,24.07,41.35,24,41.48,24 M41.48,21c-1.11,0-2.13,0.53-2.8,1.45 c-1.22,1.68-3.23,5.01-3.18,8.6c0,0.03,0,0.07,0,0.1c0,4.31,2.39,7.6,5.63,7.83L41.17,39l0.21,0c0.03,0,0.06,0,0.1,0h0.33 l0.05-0.01c3.24-0.22,5.64-3.51,5.64-7.83v-0.14l0-0.01c0.03-3.58-2-6.9-3.22-8.57C43.6,21.52,42.59,21,41.48,21L41.48,21z" style="fill:#424242;"/>
      <path d="M52.73,24c0.13,0,0.27,0.07,0.37,0.21c0.82,1.12,2.72,4.04,2.64,6.9c0,0.02,0,0.04,0,0.05 c0,2.67-1.34,4.84-2.98,4.84c-0.01,0-0.01,0-0.02,0c-0.01,0-0.01,0-0.02,0c-1.65,0-2.98-2.17-2.98-4.84c0-0.02,0-0.04,0-0.05 c-0.08-2.86,1.8-5.77,2.61-6.89C52.47,24.07,52.6,24,52.73,24 M52.73,21c-1.11,0-2.13,0.53-2.8,1.45 c-1.22,1.68-3.23,5.01-3.18,8.6c0,0.03,0,0.07,0,0.1c0,4.31,2.39,7.6,5.63,7.83L52.42,39l0.21,0c0.03,0,0.06,0,0.1,0h0.33 l0.05-0.01c3.24-0.22,5.64-3.51,5.64-7.83v-0.14l0-0.01c0.03-3.58-2-6.9-3.22-8.57C54.85,21.52,53.84,21,52.73,21L52.73,21z" style="fill:#424242;"/>
      <path d="M63.98,16c0.13,0,0.27,0.07,0.37,0.21c0.82,1.12,2.72,4.04,2.64,6.9c0,0.02,0,0.04,0,0.05 c0,2.67-1.34,4.84-2.98,4.84c-0.01,0-0.01,0-0.02,0c-0.01,0-0.01,0-0.02,0C62.34,28,61,25.83,61,23.16c0-0.02,0-0.04,0-0.05 c-0.08-2.86,1.8-5.77,2.61-6.89C63.72,16.07,63.85,16,63.98,16 M63.98,13c-1.11,0-2.13,0.53-2.8,1.45 c-1.22,1.68-3.23,5.01-3.18,8.6c0,0.03,0,0.07,0,0.1c0,4.31,2.39,7.6,5.63,7.83L63.67,31l0.21,0c0.03,0,0.06,0,0.1,0h0.33 l0.05-0.01C67.6,30.77,70,27.48,70,23.16v-0.14l0-0.01c0.03-3.58-2-6.9-3.22-8.57C66.1,13.52,65.09,13,63.98,13L63.98,13z" style="fill:#424242;"/>
      <path d="M75.23,24c0.13,0,0.27,0.07,0.37,0.21c0.82,1.12,2.72,4.04,2.64,6.9c0,0.02,0,0.04,0,0.05 c0,2.67-1.34,4.84-2.98,4.84c-0.01,0-0.01,0-0.02,0c-0.01,0-0.01,0-0.02,0c-1.65,0-2.98-2.17-2.98-4.84c0-0.02,0-0.04,0-0.05 c-0.08-2.86,1.8-5.77,2.61-6.89C74.97,24.07,75.1,24,75.23,24 M75.23,21c-1.11,0-2.13,0.53-2.8,1.45 c-1.22,1.68-3.23,5.01-3.18,8.6c0,0.03,0,0.07,0,0.1c0,4.31,2.39,7.6,5.63,7.83L74.92,39l0.21,0c0.03,0,0.06,0,0.1,0h0.33 l0.05-0.01c3.24-0.22,5.64-3.51,5.64-7.83v-0.14l0-0.01c0.03-3.58-2-6.9-3.22-8.57C77.35,21.52,76.34,21,75.23,21L75.23,21z" style="fill:#424242;"/>
      <path d="M86.48,24c0.13,0,0.27,0.07,0.37,0.21c0.82,1.12,2.72,4.04,2.64,6.9c0,0.02,0,0.04,0,0.05 c0,2.67-1.34,4.84-2.98,4.84c-0.01,0-0.01,0-0.02,0c-0.01,0-0.01,0-0.02,0c-1.65,0-2.98-2.17-2.98-4.84c0-0.02,0-0.04,0-0.05 c-0.08-2.86,1.8-5.77,2.61-6.89C86.22,24.07,86.35,24,86.48,24 M86.48,21c-1.11,0-2.13,0.53-2.8,1.45 c-1.22,1.68-3.23,5.01-3.18,8.6c0,0.03,0,0.07,0,0.1c0,4.31,2.39,7.6,5.63,7.83L86.17,39l0.21,0c0.03,0,0.06,0,0.1,0h0.33 l0.05-0.01c3.24-0.22,5.64-3.51,5.64-7.83v-0.14l0-0.01c0.03-3.58-2-6.9-3.22-8.57C88.6,21.52,87.59,21,86.48,21L86.48,21z" style="fill:#424242;"/>
      <path d="M97.73,24c0.13,0,0.27,0.07,0.37,0.21c0.82,1.12,2.72,4.04,2.64,6.9c0,0.02,0,0.04,0,0.05 c0,2.67-1.34,4.84-2.98,4.84c-0.01,0-0.01,0-0.02,0c-0.01,0-0.01,0-0.02,0c-1.65,0-2.98-2.17-2.98-4.84c0-0.02,0-0.04,0-0.05 c-0.08-2.86,1.8-5.77,2.61-6.89C97.47,24.07,97.6,24,97.73,24 M97.73,21c-1.11,0-2.13,0.53-2.8,1.45 c-1.22,1.68-3.23,5.01-3.18,8.6c0,0.03,0,0.07,0,0.1c0,4.31,2.39,7.6,5.63,7.83L97.42,39l0.21,0c0.03,0,0.06,0,0.1,0h0.33 l0.05-0.01c3.24-0.22,5.64-3.51,5.64-7.83v-0.14l0-0.01c0.03-3.58-2-6.9-3.22-8.57C99.85,21.52,98.84,21,97.73,21L97.73,21z" style="fill:#424242;"/>
      <path d="M108.98,24c0.13,0,0.27,0.07,0.37,0.21c0.82,1.12,2.72,4.04,2.64,6.9c0,0.02,0,0.04,0,0.05 c0,2.67-1.34,4.84-2.98,4.84c-0.01,0-0.01,0-0.02,0c-0.01,0-0.01,0-0.02,0c-1.65,0-2.98-2.17-2.98-4.84c0-0.02,0-0.04,0-0.05 c-0.08-2.86,1.8-5.77,2.61-6.89C108.72,24.07,108.85,24,108.98,24 M108.98,21c-1.11,0-2.13,0.53-2.8,1.45 c-1.22,1.68-3.23,5.01-3.18,8.6c0,0.03,0,0.07,0,0.1c0,4.31,2.39,7.6,5.63,7.83l0.04,0.01l0.21,0c0.03,0,0.06,0,0.1,0h0.33 l0.05-0.01c3.24-0.22,5.64-3.51,5.64-7.83v-0.14l0-0.01c0.03-3.58-2-6.9-3.22-8.57C111.1,21.52,110.09,21,108.98,21L108.98,21z" style="fill:#424242;"/>
      <path d="M66,32c0.55,0,1,0.45,1,1v13.91c0,0.59,0.48,1,1.01,1c0.17,0,0.34-0.04,0.5-0.14 c2.44-1.42,4.16-3.95,4.45-6.89c0.05-0.5,0.48-0.88,1.36-0.88h3.65c0.59,0,1.04,0.5,0.99,1.09c-0.47,6.5-5.07,11.85-11.19,13.43 C67.32,54.64,67,55.02,67,55.8v2.75c0,0.57,0.47,1,1.01,1c0.07,0,0.15-0.01,0.22-0.02c8.69-1.88,15.31-9.41,15.75-18.55 C84,40.43,84.43,40,85.35,40h3.63c0.56,0,1.02,0.46,1,1.02c-0.49,12.58-9.92,22.87-22.12,24.68C67.37,65.78,67,66.19,67,66.69 v3.03c0,0.56,0.45,1.01,0.99,1.01c0.04,0,0.09,0,0.13-0.01c14.84-1.98,26.39-14.49,26.86-29.75C95,40.44,95.43,40,95.98,40h4 c0.56,0,1.02,0.46,1.01,1.02c-0.51,18.65-14.82,33.85-33.08,35.76c-0.51,0.05-0.9,0.47-0.9,0.99v3.01c0,0.56,0.45,1.01,1,1.01 c0.03,0,0.06,0,0.1,0c20.92-2.03,37.4-19.47,37.9-40.81c0.01-0.54,0.45-0.98,0.99-0.98h4c0.56,0,1.02,0.46,1.01,1.02 c-0.52,24.72-19.73,44.84-44.07,46.81C67.4,87.87,67,88.3,67,88.82v12.3c0,0.53,0.42,0.96,0.95,1 c6.94,0.42,12.59,1.91,14.91,3.88c1.45,1.23,3.24,2,5.14,2c2.21,0,4,1.79,4,4H66h-4H36c0-2.21,1.79-4,4-4 c1.91,0,3.69-0.77,5.14-2c2.32-1.97,7.97-3.46,14.91-3.88c0.53-0.03,0.95-0.46,0.95-1v-12.3c0-0.52-0.4-0.95-0.92-0.99 c-24.34-1.97-43.55-22.09-44.07-46.81C16,40.46,16.46,40,17.02,40h4c0.54,0,0.98,0.44,0.99,0.98 c0.49,21.33,16.97,38.77,37.9,40.81c0.03,0,0.06,0,0.09,0c0.54,0,1-0.47,1-1.31v-2.72c0-0.51-0.39-0.93-0.9-0.98 c-18.27-1.92-32.58-17.11-33.08-35.76C27,40.46,27.46,40,28.02,40h4c0.54,0,0.97,0.44,0.99,0.98 c0.48,15.26,12.03,27.77,26.86,29.75c0.04,0.01,0.09,0.01,0.13,0.01c0.54,0,0.99-0.47,0.99-1.31v-2.73c0-0.5-0.37-0.91-0.86-0.98 c-12.2-1.82-21.63-12.1-22.12-24.68C38,40.46,38.46,40,39.02,40h4c0.54,0,0.97,0.43,1,0.97c0.44,9.14,7.05,16.67,15.75,18.55 c0.07,0.02,0.15,0.02,0.22,0.02c0.54,0,1.01-0.43,1.01-1l0-3.06c0-0.46-0.32-0.85-0.77-0.97c-6.12-1.58-10.73-6.93-11.19-13.43 C49,40.5,49.45,40,50.04,40h4.02c0.51,0,0.94,0.38,0.99,0.88c0.29,2.95,2.01,5.47,4.45,6.89c0.16,0.09,0.34,0.14,0.5,0.14 c0.52,0,1.01-0.42,1.01-1V33c0-0.55,0.45-1,1-1H66 M66,29h-4c-2.21,0-4,1.79-4,4v7.36C57.7,38.43,56.04,37,54.05,37h-4.02 c-1.11,0-2.17,0.46-2.93,1.27c-0.23,0.25-0.42,0.52-0.58,0.81c-0.68-1.25-2-2.08-3.5-2.08h-4c-1.08,0-2.14,0.45-2.89,1.23 c-0.24,0.25-0.45,0.53-0.61,0.83c-0.68-1.24-1.99-2.06-3.5-2.06h-4c-1.08,0-2.12,0.44-2.88,1.22c-0.25,0.25-0.46,0.54-0.63,0.85 c-0.68-1.24-1.98-2.06-3.5-2.06h-4c-1.07,0-2.12,0.44-2.87,1.21c-0.75,0.76-1.16,1.81-1.14,2.88 c0.26,12.67,5.21,24.72,13.92,33.94C35.18,83.75,46.15,89.25,58,90.64v8.63c-4.24,0.39-11.28,1.46-14.79,4.44 C42.51,104.3,41.39,105,40,105c-3.86,0-7,3.14-7,7v3h3h26h4h26h3v-3c0-3.86-3.14-7-7-7c-1.39,0-2.51-0.7-3.21-1.29 c-3.52-2.98-10.56-4.05-14.79-4.44v-8.63c11.85-1.39,22.82-6.89,31.07-15.62c8.71-9.21,13.65-21.27,13.92-33.94 c0.02-1.07-0.39-2.11-1.14-2.88c-0.75-0.77-1.8-1.21-2.87-1.21h-4c-1.52,0-2.82,0.82-3.5,2.06c-0.17-0.31-0.38-0.59-0.63-0.85 c-0.75-0.77-1.8-1.22-2.88-1.22h-4c-1.51,0-2.82,0.83-3.5,2.06c-0.17-0.3-0.37-0.58-0.61-0.83c-0.75-0.78-1.8-1.23-2.89-1.23 h-3.63c-1.89,0-3.2,0.91-3.87,2.1c-0.16-0.3-0.36-0.58-0.59-0.83C80.13,37.46,79.07,37,77.97,37h-3.65 c-2.63,0-4.05,1.7-4.32,3.37V33C70,30.79,68.21,29,66,29L66,29z" style="fill:#424242;"/>
    </g>
    <g>
      <path d="M22,31.11c0.08-2.86-1.82-5.77-2.64-6.9c-0.21-0.28-0.53-0.28-0.74,0 c-0.81,1.13-2.69,4.04-2.61,6.89c0,0.02,0,0.04,0,0.05c0,2.67,1.34,4.84,2.98,4.84c0.01,0,0.01,0,0.02,0c0.01,0,0.01,0,0.02,0 c1.65,0,2.98-2.17,2.98-4.84C22,31.14,22,31.12,22,31.11z" style="fill:#FAFAFA;"/>
      <path d="M33.25,31.11c0.08-2.86-1.82-5.77-2.64-6.9c-0.21-0.28-0.53-0.28-0.74,0 c-0.81,1.13-2.69,4.04-2.61,6.89c0,0.02,0,0.04,0,0.05c0,2.67,1.34,4.84,2.98,4.84c0.01,0,0.01,0,0.02,0c0.01,0,0.01,0,0.02,0 c1.65,0,2.98-2.17,2.98-4.84C33.25,31.14,33.25,31.12,33.25,31.11z" style="fill:#FAFAFA;"/>
      <path d="M44.5,31.11c0.08-2.86-1.82-5.77-2.64-6.9c-0.21-0.28-0.53-0.28-0.74,0 c-0.81,1.13-2.69,4.04-2.61,6.89c0,0.02,0,0.04,0,0.05c0,2.67,1.34,4.84,2.98,4.84c0.01,0,0.01,0,0.02,0c0.01,0,0.01,0,0.02,0 c1.65,0,2.98-2.17,2.98-4.84C44.5,31.14,44.5,31.12,44.5,31.11z" style="fill:#FAFAFA;"/>
      <path d="M55.75,31.11c0.08-2.86-1.82-5.77-2.64-6.9c-0.21-0.28-0.53-0.28-0.74,0 c-0.81,1.13-2.69,4.04-2.61,6.89c0,0.02,0,0.04,0,0.05c0,2.67,1.34,4.84,2.98,4.84c0.01,0,0.01,0,0.02,0c0.01,0,0.01,0,0.02,0 c1.65,0,2.98-2.17,2.98-4.84C55.75,31.14,55.75,31.12,55.75,31.11z" style="fill:#FAFAFA;"/>
      <path d="M67,23.11c0.08-2.86-1.82-5.77-2.64-6.9c-0.21-0.28-0.53-0.28-0.74,0 c-0.81,1.13-2.69,4.04-2.61,6.89c0,0.02,0,0.04,0,0.05c0,2.67,1.34,4.84,2.98,4.84c0.01,0,0.01,0,0.02,0c0.01,0,0.01,0,0.02,0 c1.65,0,2.98-2.17,2.98-4.84C67,23.14,67,23.12,67,23.11z" style="fill:#FAFAFA;"/>
      <path d="M78.25,31.11c0.08-2.86-1.82-5.77-2.64-6.9c-0.21-0.28-0.53-0.28-0.74,0 c-0.81,1.13-2.69,4.04-2.61,6.89c0,0.02,0,0.04,0,0.05c0,2.67,1.34,4.84,2.98,4.84c0.01,0,0.01,0,0.02,0c0.01,0,0.01,0,0.02,0 c1.65,0,2.98-2.17,2.98-4.84C78.25,31.14,78.25,31.12,78.25,31.11z" style="fill:#FAFAFA;"/>
      <path d="M89.5,31.11c0.08-2.86-1.82-5.77-2.64-6.9c-0.21-0.28-0.53-0.28-0.74,0 c-0.81,1.13-2.69,4.04-2.61,6.89c0,0.02,0,0.04,0,0.05c0,2.67,1.34,4.84,2.98,4.84c0.01,0,0.01,0,0.02,0c0.01,0,0.01,0,0.02,0 c1.65,0,2.98-2.17,2.98-4.84C89.5,31.14,89.5,31.12,89.5,31.11z" style="fill:#FAFAFA;"/>
      <path d="M100.75,31.11c0.08-2.86-1.82-5.77-2.64-6.9c-0.21-0.28-0.53-0.28-0.74,0 c-0.81,1.13-2.69,4.04-2.61,6.89c0,0.02,0,0.04,0,0.05c0,2.67,1.34,4.84,2.98,4.84c0.01,0,0.01,0,0.02,0c0.01,0,0.01,0,0.02,0 c1.65,0,2.98-2.17,2.98-4.84C100.75,31.14,100.75,31.12,100.75,31.11z" style="fill:#FAFAFA;"/>
      <path d="M112,31.11c0.08-2.86-1.82-5.77-2.64-6.9c-0.21-0.28-0.53-0.28-0.74,0 c-0.81,1.13-2.69,4.04-2.61,6.89c0,0.02,0,0.04,0,0.05c0,2.67,1.34,4.84,2.98,4.84c0.01,0,0.01,0,0.02,0c0.01,0,0.01,0,0.02,0 c1.65,0,2.98-2.17,2.98-4.84C112,31.14,112,31.12,112,31.11z" style="fill:#FAFAFA;"/>
      <path d="M67.92,87.83c24.34-1.97,43.55-22.09,44.07-46.81c0.01-0.56-0.45-1.02-1.01-1.02h-4 c-0.54,0-0.98,0.44-0.99,0.98c-0.49,21.33-16.97,38.77-37.9,40.81c-0.59,0.06-1.09-0.41-1.09-1l0-3.01c0-0.51,0.39-0.93,0.9-0.99 c18.27-1.92,32.58-17.11,33.08-35.76C101,40.46,100.54,40,99.98,40h-4c-0.54,0-0.97,0.44-0.99,0.98 c-0.48,15.26-12.03,27.77-26.86,29.75c-0.59,0.08-1.12-0.4-1.12-1l0-3.03c0-0.5,0.37-0.91,0.86-0.98 c12.2-1.82,21.63-12.1,22.12-24.68c0.02-0.56-0.44-1.02-1-1.02l-3.63,0c-0.92,0-1.34,0.43-1.37,0.97 c-0.44,9.14-7.05,16.67-15.75,18.55C67.6,59.66,67,59.19,67,58.55l0-2.75c0-0.77,0.32-1.16,0.77-1.28 c6.12-1.58,10.73-6.93,11.19-13.43C79,40.5,78.55,40,77.97,40l-3.65,0c-0.88,0-1.31,0.38-1.36,0.88 c-0.29,2.95-2.01,5.47-4.45,6.89C67.84,48.16,67,47.68,67,46.91L67,33c0-0.55-0.45-1-1-1h-4c-0.55,0-1,0.45-1,1l0,13.91 c0,0.77-0.84,1.26-1.51,0.87c-2.44-1.42-4.16-3.95-4.45-6.89c-0.05-0.5-0.48-0.88-0.99-0.88l-4.02,0c-0.59,0-1.04,0.5-1,1.09 c0.47,6.5,5.07,11.85,11.19,13.43c0.45,0.12,0.77,0.5,0.77,0.97l0,3.06c0,0.64-0.6,1.11-1.23,0.98 c-8.69-1.88-15.31-9.41-15.75-18.55C44,40.43,43.57,40,43.03,40l-4,0c-0.56,0-1.03,0.46-1,1.02c0.49,12.58,9.92,22.87,22.12,24.68 c0.49,0.07,0.86,0.48,0.86,0.98l0,2.73c0,0.9-0.53,1.38-1.12,1.3c-14.84-1.98-26.39-14.49-26.86-29.75C33,40.44,32.57,40,32.02,40 h-4c-0.56,0-1.02,0.46-1.01,1.02c0.51,18.65,14.82,33.85,33.08,35.76c0.51,0.05,0.9,0.47,0.9,0.98l0,2.72 c0,0.89-0.51,1.36-1.09,1.31c-20.92-2.03-37.4-19.47-37.9-40.81C22,40.44,21.56,40,21.02,40h-4c-0.56,0-1.02,0.46-1.01,1.02 c0.52,24.72,19.73,44.84,44.07,46.81C60.6,87.87,61,88.3,61,88.82v12.3c0,0.53-0.42,0.96-0.95,1c-6.94,0.42-12.59,1.91-14.91,3.88 c-1.45,1.23-3.24,2-5.14,2c-2.21,0-4,1.79-4,4h26h4h26c0-2.21-1.79-4-4-4c-1.91,0-3.69-0.77-5.14-2 c-2.32-1.97-7.97-3.46-14.91-3.88c-0.53-0.03-0.95-0.46-0.95-1v-12.3C67,88.3,67.4,87.87,67.92,87.83z" style="fill:#FAFAFA;"/>
    </g>
  </g>
</svg>