<?xml version="1.0" encoding="utf-8"?>
<!-- Generator: Adobe Illustrator 19.2.1, SVG Export Plug-In . SVG Version: 6.00 Build 0)  -->
<svg version="1.1" id="レイヤー_1" xmlns="http://www.w3.org/2000/svg" xmlns:xlink="http://www.w3.org/1999/xlink" x="0px"
	 y="0px" viewBox="0 0 128 128" style="enable-background:new 0 0 128 128;" xml:space="preserve">
<path style="fill:#40C0E7;" d="M115.37,117.77L77.78,17.81c-0.33-0.87-1.16-1.45-2.1-1.45H52.32c-0.94,0-1.77,0.58-2.1,1.45
	l-37.59,99.96c-0.26,0.69-0.17,1.46,0.25,2.06c0.42,0.6,1.1,0.97,1.84,0.97h24.64c0.96,0,1.82-0.62,2.13-1.54l5.7-17.18H80.8
	l5.71,17.18c0.3,0.92,1.16,1.54,2.13,1.54h24.64c0.73,0,1.42-0.36,1.84-0.97C115.53,119.23,115.63,118.46,115.37,117.77z
	 M54.23,80.87L64,51.45l9.77,29.43H54.23z"/>
</svg>
