<svg xmlns="http://www.w3.org/2000/svg" height="128" width="128"><defs><linearGradient id="a"><stop offset="0"/><stop offset="1" stop-opacity="0"/></linearGradient></defs><path d="M50.862 31.976S22.284 61.081 15.658 76.968L6.03 69.307c7.644-16.633 35.205-46.551 35.205-46.551z" fill="#dbe6ea" stroke-width="1.397"/><path d="M64 22.756l-22.684-.157s-4.569 18.199-4.569 88.567c0 0 14.372 4.47 27.253 4.47" fill="#ecf2f4" stroke-width="1.397"/><g transform="translate(6.03 -8.198)"><ellipse ry="2.949" rx="8.407" cy="111.325" cx="42.915" fill="#dbe6ea" stroke-width="2.143" paint-order="stroke fill markers"/><path fill="#dbe6ea" stroke-width="1.601" paint-order="stroke fill markers" d="M34.508 94.512h16.814v16.814H34.508z"/><ellipse cx="42.915" cy="97.455" rx="8.407" ry="1.676" fill="#cbdbe1" stroke-width="1.615" paint-order="stroke fill markers"/><path fill="#cbdbe1" stroke-width=".67" paint-order="stroke fill markers" d="M34.508 94.512h16.814v2.944H34.508z"/></g><path d="M77.138 31.976s28.578 29.105 35.204 44.992l9.628-7.661c-7.644-16.633-35.205-46.551-35.205-46.551z" fill="#dbe6ea" stroke-width="1.397"/><path d="M64 22.756l22.684-.157s4.569 18.199 4.569 88.567c0 0-14.372 4.47-27.253 4.47" fill="#ecf2f4" stroke-width="1.397"/><g stroke-width="1.222"><path d="M64 13.385c-8.327 0-9.902 1.598-9.902 1.598C53.076 27.755 64 44.785 64 44.785z" fill="#454545"/><path d="M54.031 18.197S57.851 16.74 64 16.74v-4.376c-6.15 0-9.902 1.348-9.902 1.348z" fill="#919fbc"/><path d="M54.098 14.983C53.076 27.755 64 44.785 64 44.785s-7.834-3.354-13.246-12.379l.907-4.925-3.156-4.833s1.64-7.267 5.593-8.936z" fill="#cacaca"/><path d="M64 13.385c8.327 0 9.902 1.598 9.902 1.598C74.924 27.755 64 44.785 64 44.785z" fill="#454545"/><path d="M73.969 18.197S70.149 16.74 64 16.74v-4.376c6.15 0 9.902 1.348 9.902 1.348z" fill="#919fbc"/><path d="M73.902 14.983C74.924 27.755 64 44.785 64 44.785s7.834-3.354 13.246-12.379l-.907-4.925 3.156-4.833s-1.64-7.267-5.593-8.936z" fill="#cacaca"/></g><g transform="matrix(-1 0 0 1 121.97 -8.198)"><ellipse cx="42.915" cy="111.325" rx="8.407" ry="2.949" fill="#dbe6ea" stroke-width="2.143" paint-order="stroke fill markers"/><path fill="#dbe6ea" stroke-width="1.601" paint-order="stroke fill markers" d="M34.508 94.512h16.814v16.814H34.508z"/><ellipse ry="1.676" rx="8.407" cy="97.455" cx="42.915" fill="#cbdbe1" stroke-width="1.615" paint-order="stroke fill markers"/><path fill="#cbdbe1" stroke-width=".67" paint-order="stroke fill markers" d="M34.508 94.512h16.814v2.944H34.508z"/></g><g transform="translate(45.908 -19.063) scale(.74772)"><ellipse cx="42.915" cy="111.325" rx="8.407" ry="2.949" fill="#dbe6ea" stroke-width="2.143" paint-order="stroke fill markers"/><path fill="#dbe6ea" stroke-width="1.601" paint-order="stroke fill markers" d="M34.508 94.512h16.814v16.814H34.508z"/><ellipse ry="1.676" rx="8.407" cy="97.455" cx="42.915" fill="#cbdbe1" stroke-width="1.615" paint-order="stroke fill markers"/><path fill="#cbdbe1" stroke-width=".67" paint-order="stroke fill markers" d="M34.508 94.512h16.814v2.944H34.508z"/></g><g transform="rotate(-15 43.913 27.442)"><rect width="11.642" height="3.593" x="66.213" y="52.647" rx="1.175" fill="#1433b4" stroke-width=".972" paint-order="stroke fill markers"/><text style="line-height:1.25" x="67.629" y="54.986" font-weight="400" font-size="1.633" font-family="sans-serif" letter-spacing="0" word-spacing="0" fill="#fff" stroke-width=".041"><tspan x="67.629" y="54.986" style="line-height:2;-inkscape-font-specification:'Comic Neue Bold'" font-weight="700" font-family="Comic Neue">Dr E. Brown</tspan></text></g></svg>