<svg enable-background="new 0 0 128 128" viewBox="0 0 128 128" xmlns="http://www.w3.org/2000/svg"><linearGradient id="a" x1="64" x2="64" y1="4.25" y2="124.41" gradientUnits="userSpaceOnUse"><stop stop-color="#40C4FF" offset="0"/><stop stop-color="#2DB5F9" offset=".3517"/><stop stop-color="#0091EA" offset="1"/></linearGradient><path d="m116 124h-104c-4.42 0-8-3.58-8-8v-104c0-4.42 3.58-8 8-8h104c4.42 0 8 3.58 8 8v104c0 4.42-3.58 8-8 8z" fill="url(#a)"/><g opacity=".2"><path d="m116 7c2.76 0 5 2.24 5 5v104c0 2.76-2.24 5-5 5h-104c-2.76 0-5-2.24-5-5v-104c0-2.76 2.24-5 5-5h104m0-3h-104c-4.42 0-8 3.58-8 8v104c0 4.42 3.58 8 8 8h104c4.42 0 8-3.58 8-8v-104c0-4.42-3.58-8-8-8z" fill="#424242"/></g><g fill="#424242" opacity=".2"><path d="m26.14 84c1.9 0 3.59 0.35 5.07 1.05s2.65 1.69 3.5 2.99c0.64 0.97 1.04 2.02 1.19 3.15 0.08 0.6-0.39 1.14-1 1.14h-2.72c-0.49 0-0.91-0.37-0.98-0.86-0.15-1.01-0.57-1.83-1.28-2.46-0.89-0.8-2.17-1.2-3.83-1.2-1.55 0-2.75 0.33-3.6 0.99s-1.28 1.58-1.28 2.76c0 1 0.46 1.82 1.39 2.49 0.92 0.66 2.45 1.31 4.57 1.94s3.82 1.34 5.11 2.15c1.28 0.81 2.23 1.73 2.83 2.77s0.9 2.26 0.9 3.66c0 2.27-0.87 4.08-2.61 5.42s-4.1 2.01-7.08 2.01c-1.97 0-3.78-0.36-5.44-1.09-1.65-0.73-2.94-1.74-3.86-3.02-0.71-1-1.15-2.12-1.31-3.37-0.08-0.59 0.4-1.12 1-1.12h2.74c0.49 0 0.91 0.36 0.98 0.85 0.16 1.14 0.65 2.06 1.48 2.74 1.02 0.85 2.49 1.27 4.4 1.27 1.65 0 2.89-0.33 3.72-1s1.24-1.55 1.24-2.65c0-1.2-0.42-2.12-1.26-2.77s-2.36-1.3-4.56-1.97c-2.2-0.66-3.94-1.4-5.24-2.21-2.48-1.56-3.72-3.59-3.72-6.1 0-2.2 0.89-4.01 2.69-5.43 1.77-1.42 4.1-2.13 6.96-2.13m0-3c-3.54 0-6.51 0.94-8.84 2.78-2.5 1.98-3.82 4.67-3.82 7.78 0 2.47 0.89 5.98 5.13 8.64 0.1 0.06 0.2 0.12 0.31 0.19h-2.22c-1.15 0-2.25 0.5-3.01 1.36s-1.11 2.01-0.97 3.14c0.22 1.74 0.84 3.33 1.84 4.73 1.23 1.72 2.94 3.08 5.09 4.02 2.03 0.9 4.27 1.35 6.65 1.35 3.65 0 6.65-0.89 8.92-2.64 2.47-1.91 3.78-4.6 3.78-7.8 0-1.92-0.44-3.66-1.3-5.15-0.84-1.47-2.13-2.75-3.83-3.82-0.15-0.09-0.29-0.18-0.45-0.27h1.49c1.16 0 2.26-0.5 3.02-1.38 0.76-0.87 1.11-2.03 0.95-3.18-0.22-1.57-0.78-3.04-1.66-4.39-1.15-1.75-2.74-3.12-4.73-4.05-1.89-0.86-4.02-1.31-6.35-1.31zm-1.93 10.51c0.01-0.24 0.05-0.28 0.11-0.32 0.14-0.11 0.6-0.37 1.77-0.37 0.87 0 1.52 0.15 1.83 0.43 0.13 0.11 0.25 0.27 0.31 0.66 0.08 0.51 0.25 1 0.5 1.43-0.24-0.07-0.48-0.15-0.72-0.22-2.34-0.69-3.3-1.24-3.67-1.5-0.05-0.05-0.1-0.09-0.13-0.11zm2.09 13.75c-1.15 0-2.03-0.21-2.48-0.58-0.18-0.15-0.35-0.35-0.42-0.85-0.09-0.62-0.31-1.19-0.65-1.68 0.58 0.21 1.19 0.41 1.83 0.6 2.57 0.77 3.4 1.32 3.59 1.47 0.04 0.03 0.09 0.07 0.09 0.39 0 0.21-0.02 0.23-0.13 0.31-0.03 0.03-0.45 0.34-1.83 0.34z"/><path d="m50.96 84c2.22 0 4.19 0.53 5.9 1.6 1.72 1.07 3.04 2.6 3.98 4.6s1.41 4.33 1.42 6.99v1.52c0 2.67-0.46 5.01-1.39 7.03-0.92 2.02-2.24 3.56-3.96 4.64-1.7 1.08-3.68 1.62-5.91 1.62-2.21 0-4.18-0.54-5.91-1.62s-3.06-2.62-4-4.61c-0.94-2-1.42-4.3-1.43-6.91v-1.53c0-2.66 0.47-5 1.41-7.04 0.94-2.03 2.27-3.59 3.99-4.67 1.71-1.08 3.68-1.62 5.9-1.62m0.04 24.11c2.1 0 3.71-0.8 4.84-2.4s1.69-3.93 1.69-7v-1.42c0-3.02-0.57-5.34-1.71-6.94-1.14-1.61-2.76-2.41-4.86-2.41-2.05 0-3.65 0.8-4.8 2.41s-1.74 3.87-1.77 6.8v1.57c0 2.99 0.58 5.31 1.75 6.94s2.79 2.45 4.86 2.45m-0.04-27.11c-2.78 0-5.31 0.7-7.5 2.08-2.21 1.39-3.93 3.39-5.11 5.95-1.12 2.42-1.69 5.21-1.69 8.3v1.53c0.01 3.05 0.59 5.8 1.72 8.19 1.19 2.52 2.91 4.49 5.13 5.88 2.2 1.38 4.73 2.07 7.49 2.07 2.8 0 5.33-0.7 7.52-2.08 2.21-1.39 3.92-3.39 5.09-5.93 1.1-2.4 1.66-5.18 1.66-8.28v-1.51c-0.01-3.1-0.59-5.87-1.7-8.26-1.18-2.53-2.9-4.51-5.11-5.88-2.2-1.37-4.72-2.06-7.5-2.06zm0.04 24.11c-1.11 0-1.81-0.35-2.41-1.19-0.79-1.11-1.19-2.86-1.19-5.2v-1.57c0.02-2.26 0.42-3.97 1.2-5.05 0.59-0.82 1.28-1.16 2.37-1.16 1.13 0 1.83 0.33 2.41 1.15 0.76 1.07 1.16 2.87 1.16 5.21v1.42c0 2.39-0.4 4.21-1.14 5.27-0.58 0.79-1.27 1.12-2.4 1.12z"/><path d="m76.08 84c2.22 0 4.19 0.53 5.91 1.6s3.04 2.6 3.98 4.6 1.41 4.33 1.42 6.99v1.52c0 2.67-0.46 5.01-1.38 7.03s-2.24 3.56-3.96 4.64-3.69 1.62-5.92 1.62c-2.21 0-4.18-0.54-5.91-1.62s-3.06-2.62-4.01-4.61c-0.94-2-1.42-4.3-1.43-6.91v-1.53c0-2.66 0.47-5 1.41-7.04 0.94-2.03 2.27-3.59 3.99-4.67 1.71-1.08 3.68-1.62 5.9-1.62m0.04 24.11c2.1 0 3.71-0.8 4.84-2.4s1.69-3.93 1.69-7v-1.42c0-3.02-0.57-5.34-1.71-6.94-1.14-1.61-2.76-2.41-4.86-2.41-2.05 0-3.65 0.8-4.8 2.41-1.16 1.6-1.74 3.87-1.77 6.8v1.57c0 2.99 0.58 5.31 1.75 6.94 1.16 1.63 2.78 2.45 4.86 2.45m-0.04-27.11c-2.78 0-5.31 0.7-7.5 2.08-2.21 1.39-3.93 3.39-5.11 5.95-1.12 2.42-1.69 5.21-1.69 8.3v1.53c0.01 3.05 0.59 5.8 1.72 8.19 1.19 2.52 2.91 4.49 5.13 5.88 2.2 1.38 4.73 2.07 7.49 2.07 2.8 0 5.33-0.7 7.52-2.08 2.21-1.39 3.92-3.39 5.09-5.93 1.1-2.4 1.66-5.18 1.66-8.28v-1.51c-0.01-3.09-0.59-5.87-1.7-8.26-1.18-2.53-2.9-4.51-5.11-5.88-2.2-1.37-4.72-2.06-7.5-2.06zm0.04 24.11c-1.11 0-1.81-0.35-2.42-1.19-0.79-1.11-1.19-2.86-1.19-5.2v-1.57c0.02-2.26 0.42-3.97 1.2-5.05 0.59-0.82 1.28-1.16 2.37-1.16 1.13 0 1.83 0.33 2.41 1.15 0.76 1.07 1.16 2.87 1.16 5.21v1.42c0 2.39-0.4 4.21-1.14 5.27-0.57 0.79-1.26 1.12-2.39 1.12z"/><path d="m111 84.37c0.55 0 1 0.45 1 1v25.25c0 0.55-0.45 1-1 1h-3.19c-0.34 0-0.66-0.18-0.85-0.47l-10-15.92c-0.2-0.32-0.52-0.47-0.83-0.47-0.51 0-1.01 0.38-1.01 1v14.87c0 0.55-0.45 1-1 1h-2.74c-0.55 0-1-0.45-1-1v-25.26c0-0.55 0.45-1 1-1h3.18c0.34 0 0.66 0.18 0.85 0.47l10.05 16.01c0.2 0.32 0.52 0.47 0.83 0.47 0.51 0 1.01-0.38 1.01-1v-14.95c0-0.55 0.45-1 1-1h2.7m0-3h-2.7c-2.2 0-4 1.79-4 4v7.99l-6.35-10.12c-0.74-1.17-2-1.87-3.39-1.87h-3.18c-2.2 0-4 1.79-4 4v25.25c0 2.2 1.79 4 4 4h2.74c2.2 0 4-1.79 4-4v-7.92l6.31 10.05c0.74 1.17 2 1.87 3.39 1.87h3.18c2.2 0 4-1.79 4-4v-25.25c0-2.2-1.79-4-4-4z"/></g><g fill="#FAFAFA"><path d="m31.26 104.61c0-1.2-0.42-2.12-1.26-2.77s-2.36-1.3-4.56-1.97c-2.2-0.66-3.94-1.4-5.24-2.21-2.48-1.56-3.72-3.59-3.72-6.1 0-2.2 0.89-4.01 2.69-5.43 1.79-1.42 4.11-2.13 6.97-2.13 1.9 0 3.59 0.35 5.07 1.05s2.65 1.69 3.5 2.99c0.64 0.97 1.04 2.02 1.19 3.15 0.08 0.6-0.39 1.14-1 1.14h-2.72c-0.49 0-0.91-0.37-0.98-0.86-0.15-1.01-0.57-1.83-1.28-2.46-0.89-0.8-2.17-1.2-3.83-1.2-1.55 0-2.75 0.33-3.6 0.99s-1.28 1.58-1.28 2.76c0 1 0.46 1.82 1.39 2.49 0.92 0.66 2.45 1.31 4.57 1.94s3.82 1.34 5.11 2.15c1.28 0.81 2.23 1.73 2.83 2.77s0.9 2.26 0.9 3.66c0 2.27-0.87 4.08-2.61 5.42s-4.1 2.01-7.08 2.01c-1.97 0-3.78-0.36-5.44-1.09-1.65-0.73-2.94-1.74-3.86-3.02-0.71-1-1.15-2.12-1.31-3.37-0.08-0.59 0.4-1.12 1-1.12h2.74c0.49 0 0.91 0.36 0.98 0.85 0.16 1.14 0.65 2.06 1.48 2.74 1.02 0.85 2.49 1.27 4.4 1.27 1.65 0 2.89-0.33 3.72-1 0.82-0.67 1.23-1.56 1.23-2.65z"/><path d="m62.27 98.71c0 2.67-0.46 5.01-1.39 7.03-0.92 2.02-2.24 3.56-3.96 4.64-1.71 1.08-3.69 1.62-5.92 1.62-2.21 0-4.18-0.54-5.91-1.62s-3.06-2.62-4-4.61c-0.94-2-1.42-4.3-1.43-6.91v-1.53c0-2.66 0.47-5 1.41-7.04 0.94-2.03 2.27-3.59 3.99-4.67s3.68-1.62 5.91-1.62c2.22 0 4.19 0.53 5.9 1.6 1.72 1.07 3.04 2.6 3.98 4.6s1.41 4.33 1.42 6.99v1.52zm-4.74-1.42c0-3.02-0.57-5.34-1.71-6.94-1.14-1.61-2.76-2.41-4.86-2.41-2.05 0-3.65 0.8-4.8 2.41s-1.74 3.87-1.77 6.8v1.57c0 2.99 0.58 5.31 1.75 6.94s2.79 2.45 4.86 2.45c2.1 0 3.71-0.8 4.84-2.4s1.69-3.93 1.69-7v-1.42z"/><path d="m87.38 98.71c0 2.67-0.46 5.01-1.38 7.03s-2.24 3.56-3.96 4.64-3.69 1.62-5.92 1.62c-2.21 0-4.18-0.54-5.91-1.62s-3.06-2.62-4.01-4.61c-0.94-2-1.42-4.3-1.43-6.91v-1.53c0-2.66 0.47-5 1.41-7.04 0.94-2.03 2.27-3.59 3.99-4.67s3.68-1.62 5.9-1.62 4.19 0.53 5.91 1.6 3.04 2.6 3.98 4.6 1.41 4.33 1.42 6.99v1.52zm-4.73-1.42c0-3.02-0.57-5.34-1.71-6.94-1.14-1.61-2.76-2.41-4.86-2.41-2.05 0-3.65 0.8-4.8 2.41-1.16 1.6-1.74 3.87-1.77 6.8v1.57c0 2.99 0.58 5.31 1.75 6.94s2.79 2.45 4.86 2.45c2.1 0 3.71-0.8 4.84-2.4s1.69-3.93 1.69-7v-1.42z"/><path d="m111 111.63h-3.19c-0.34 0-0.66-0.18-0.85-0.47l-10-15.93c-0.53-0.85-1.84-0.47-1.84 0.53v14.87c0 0.55-0.45 1-1 1h-2.74c-0.55 0-1-0.45-1-1v-25.26c0-0.55 0.45-1 1-1h3.18c0.34 0 0.66 0.18 0.85 0.47l10.05 16.01c0.53 0.85 1.84 0.47 1.84-0.53v-14.95c0-0.55 0.45-1 1-1h2.7c0.55 0 1 0.45 1 1v25.25c0 0.56-0.45 1.01-1 1.01z"/></g><g opacity=".2"><path d="m78.02 16c0.9 0 1.82 0.31 2.61 1l24 23.99c1.82 1.59 1.82 4.43 0 6.02l-24 23.99c-0.79 0.69-1.71 1-2.61 1-2.06 0-4.02-1.62-4.02-4.01v-13.99c0-1.1-0.9-2-2-2h-46c-2.21 0-4-1.79-4-4v-8c0-2.21 1.79-4 4-4h46c1.1 0 2-0.9 2-2v-13.99c0-2.39 1.96-4.01 4.02-4.01m0-3c-3.87 0-7.02 3.14-7.02 7.01v12.99h-45c-3.86 0-7 3.14-7 7v8c0 3.86 3.14 7 7 7h45v12.99c0 3.86 3.15 7.01 7.02 7.01 1.68 0 3.3-0.62 4.59-1.74l0.14-0.14 23.94-23.93c1.47-1.33 2.31-3.21 2.31-5.19s-0.84-3.87-2.31-5.19l-24.07-24.07c-1.29-1.12-2.92-1.74-4.6-1.74z" fill="#424242"/></g><path d="M80.63,17l24,23.99c1.82,1.59,1.82,4.43,0,6.02L80.63,71C78.05,73.27,74,71.43,74,67.99V54 c0-1.1-0.9-2-2-2H26c-2.21,0-4-1.79-4-4v-8c0-2.21,1.79-4,4-4h46c1.1,0,2-0.9,2-2V20.01C74,16.57,78.05,14.73,80.63,17z" fill="#FAFAFA"/></svg>
