<?xml version="1.0" encoding="utf-8"?>
<!-- Generator: Adobe Illustrator 19.2.1, SVG Export Plug-In . SVG Version: 6.00 Build 0)  -->
<svg version="1.1" id="图层_1" xmlns="http://www.w3.org/2000/svg" xmlns:xlink="http://www.w3.org/1999/xlink" x="0px" y="0px"
	 viewBox="0 0 128 128" style="enable-background:new 0 0 128 128;" xml:space="preserve">
<g>
	<ellipse style="fill:#006CA2;" cx="63.3" cy="64.7" rx="61.69" ry="61.69"/>
	<g>
		<g>
			<g>
				<g>
					<path style="fill:#FFFFFF;" d="M51.11,68.48h-8.68c-1.35,0-2.44-1.09-2.44-2.44v0c0-12.26,9.94-22.2,22.2-22.2h33.55V57.4H62.2
						c-4.78,0-8.65,3.87-8.65,8.65v0C53.55,67.39,52.46,68.48,51.11,68.48z"/>
				</g>
			</g>
			<g>
				<g>
					<g>
						<path style="fill:#FFFFFF;" d="M54.33,102.47H37.19c-0.84,0-1.56-0.62-1.68-1.45l-4.22-29.4c-0.13-0.93,0.51-1.78,1.44-1.92
							c0.93-0.13,1.78,0.51,1.92,1.44l4.01,27.95h14.21l4.01-27.95c0.13-0.93,0.98-1.57,1.92-1.44c0.93,0.13,1.57,0.99,1.44,1.92
							l-4.22,29.4C55.89,101.85,55.18,102.47,54.33,102.47z"/>
					</g>
				</g>
			</g>
			<g>
				<path style="fill:#FFFFFF;" d="M75.24,62.57h-0.77c-6.36,0-11.57-5.21-11.57-11.57v-0.77c0-6.36,5.21-11.57,11.57-11.57h0.77
					c6.36,0,11.57,5.21,11.57,11.57v0.77C86.8,57.37,81.6,62.57,75.24,62.57z"/>
			</g>
			<g>
				<path style="fill:#FFFFFF;" d="M88.83,31.88H60.88c-2.06,0-3.73-1.67-3.73-3.73s1.67-3.73,3.73-3.73h27.95
					c2.06,0,3.73,1.67,3.73,3.73S90.89,31.88,88.83,31.88z"/>
			</g>
			<g>
				<path style="fill:#FFFFFF;" d="M74.85,54.35c-2.06,0-3.73-1.67-3.73-3.73V28.15c0-2.06,1.67-3.73,3.73-3.73s3.73,1.67,3.73,3.73
					v22.47C78.58,52.68,76.91,54.35,74.85,54.35z"/>
			</g>
			<g>
				<g>
					<path style="fill:#FFFFFF;" d="M51.73,81.02c-2.01,0-3.13-0.76-3.94-1.31c-0.66-0.45-1.06-0.72-2.03-0.72
						c-0.97,0-1.37,0.27-2.03,0.72c-0.81,0.55-1.92,1.31-3.94,1.31c-2.01,0-3.13-0.76-3.94-1.31c-0.66-0.45-1.06-0.72-2.03-0.72
						c-0.94,0-1.69-0.76-1.69-1.69s0.76-1.69,1.69-1.69c2.01,0,3.13,0.76,3.94,1.31c0.66,0.45,1.06,0.72,2.03,0.72
						c0.97,0,1.37-0.27,2.03-0.72c0.81-0.55,1.92-1.31,3.94-1.31c2.01,0,3.13,0.76,3.94,1.31c0.66,0.45,1.06,0.72,2.03,0.72
						c0.97,0,1.37-0.27,2.03-0.72c0.81-0.55,1.92-1.31,3.94-1.31c0.94,0,1.69,0.76,1.69,1.69s-0.76,1.69-1.69,1.69
						c-0.97,0-1.37,0.27-2.03,0.72C54.86,80.27,53.75,81.02,51.73,81.02z"/>
				</g>
			</g>
		</g>
		<g>
			<path style="fill:#FFFFFF;" d="M95.75,60.65c-0.94,0-1.69-0.76-1.69-1.69V42.29c0-0.94,0.76-1.69,1.69-1.69s1.69,0.76,1.69,1.69
				v16.66C97.44,59.89,96.68,60.65,95.75,60.65z"/>
		</g>
	</g>
</g>
<g>
	<g>
		<g>
			<polygon style="fill:#DB4437;" points="111.37,102.73 102.94,111.14 16.63,25.41 25.06,17 			"/>
		</g>
	</g>
</g>
<g>
	<path style="fill:#DB4437;" d="M64,128C28.71,128,0,99.29,0,64C0,28.71,28.71,0,64,0s64,28.71,64,64C128,99.29,99.29,128,64,128z
		 M64,10.89c-29.29,0-53.11,23.83-53.11,53.11c0,29.29,23.83,53.11,53.11,53.11S117.11,93.29,117.11,64
		C117.11,34.71,93.29,10.89,64,10.89z"/>
</g>
</svg>
