<?xml version="1.0" encoding="utf-8"?>
<!-- Generator: Adobe Illustrator 19.2.1, SVG Export Plug-In . SVG Version: 6.00 Build 0)  -->
<svg version="1.1" id="レイヤー_1" xmlns="http://www.w3.org/2000/svg" xmlns:xlink="http://www.w3.org/1999/xlink" x="0px"
	 y="0px" viewBox="0 0 128 128" style="enable-background:new 0 0 128 128;" xml:space="preserve">
<g>
	<g>
		<path style="fill:#78A3AD;" d="M57.16,86.69c-0.3,0.36-0.59,0.72-0.89,1.06c-0.36,0.41-0.75,0.87-1.17,1.37
			c-0.65,0.77-1.35,1.61-2.11,2.46c0.05,0.15,0.11,0.3,0.16,0.45c0.04,0.1,0.06,0.2,0.1,0.3c0.08,0.27,0.16,0.54,0.21,0.81
			c0.02,0.11,0.05,0.21,0.07,0.31c0.07,0.34,0.12,0.68,0.15,1c0.12,1.61-0.28,3.55-0.9,5.43c3.86-3.43,7.19-7.58,9.09-9.96
			l0.38-0.47c0.32-0.4,0.64-0.81,0.96-1.21c-0.1,0-0.19,0-0.29-0.01C60.71,88.1,58.87,87.52,57.16,86.69z"/>
		<path style="fill:#78A3AD;" d="M28.06,95.89c0.38,1.47,1.17,2.7,2.15,3.78c0.84,0.93,1.8,1.78,2.76,2.59
			c0.01,0,0.02,0.01,0.03,0.02c0.17,0.15,0.38,0.3,0.6,0.45c0.07,0.04,0.16,0.1,0.24,0.15c0.17,0.11,0.34,0.22,0.54,0.32
			c0.1,0.06,0.21,0.12,0.32,0.17c0.04,0.02,0.09,0.05,0.13,0.06c0.14,0.08,0.29,0.15,0.44,0.22c0.12,0.06,0.25,0.12,0.38,0.17
			c0.16,0.07,0.31,0.14,0.47,0.2c1.71-2.22,2.86-4.35,3.23-6.82c0,0,0,0,0-0.01c0.05-0.38,0.11-0.74,0.13-1.13
			c-0.06-0.05-0.13-0.1-0.19-0.15c-0.62-0.51-1.13-1.1-1.52-1.76c-0.41-0.71-0.65-1.5-0.68-2.35c-0.01-0.32,0-0.65,0.05-0.99
			c0.27-1.71,1.15-3.27,2.18-4.71c0.54-0.76,1.12-1.48,1.67-2.16c0.45-0.56,0.91-1.11,1.36-1.67c0-0.01,0-0.01,0.01-0.01
			c1.25-1.52,2.54-3,3.88-4.42c0.91-0.96,1.83-1.89,2.81-2.78c1.72-1.55,3.64-3.19,5.84-4c0.41-0.16,0.85-0.22,1.29-0.23
			c0.03,0,0.06-0.02,0.09-0.02c0.02,0,0.04,0.01,0.06,0.01c0.19,0,0.37,0.03,0.55,0.05c0.08,0.02,0.17,0.02,0.25,0.04
			c0.2,0.05,0.38,0.12,0.57,0.2c0.06,0.02,0.13,0.04,0.19,0.07c0.33,0.16,0.61,0.41,0.89,0.67c0.07,0.01,0.13,0.03,0.21,0.04
			c0.21,0.04,0.41,0.08,0.61,0.12c0.03,0.01,0.07,0.02,0.11,0.03c0.35,0.08,0.67,0.15,1,0.21c0.16,0.03,0.3,0.06,0.45,0.09
			c0.2,0.03,0.4,0.06,0.59,0.07c0.09,0.01,0.18,0.02,0.27,0.02c0.11,0.01,0.2,0.02,0.31,0.02c0.03,0,0.06,0.01,0.1,0.01
			c0.36,0,0.73-0.04,1.1-0.12c0.59-0.13,1.2-0.38,1.89-0.79c0.68-0.41,1.33-0.91,1.97-1.44c0.22-0.18,0.43-0.37,0.64-0.56
			c-0.84-1.83-2.15-3.29-3.63-4.63c-0.17-0.15-0.33-0.31-0.5-0.46c-0.36-0.32-0.74-0.6-1.13-0.89c-1.66-1.24-3.56-2.2-5.6-2.58
			c-0.41-0.07-0.84-0.07-1.26-0.12c-0.35-0.03-0.69-0.09-1.03-0.09c-0.2-0.01-0.4-0.01-0.6-0.01c-0.44,0.01-0.87,0.05-1.31,0.1
			c-0.21,0.02-0.41,0.04-0.61,0.07c-0.22,0.04-0.44,0.12-0.67,0.17c-0.39,0.09-0.79,0.16-1.17,0.29c-2.99,1.04-5.62,2.92-7.98,5.04
			c-0.95,0.85-1.87,1.75-2.75,2.65c-0.25,0.26-0.5,0.54-0.75,0.8c-3.91,4.13-7.63,8.92-9.72,14.29c-0.45,1.17-0.86,2.35-1.14,3.58
			c-0.18,0.78-0.3,1.58-0.38,2.38c-0.19,1.72-0.16,3.47,0.18,5.24C27.96,95.56,28.02,95.72,28.06,95.89z"/>
		<path style="fill:#78A3AD;" d="M113.01,27.88c-0.21-1.11-0.62-2.13-1.05-3.14c-0.44-1.03-0.9-2.05-1.2-3.14
			c-0.41-1.48-0.07-3.11-0.78-4.5c-1.1-2.17-3.45-3.03-5.23-4.49c-1.71-1.4-2.95-3.34-4.93-4.4c-0.7-0.37-1.46-0.42-2.17-0.76
			c-0.41-0.21-0.76-0.39-1.2-0.54c-0.44-0.15-0.86-0.21-1.28-0.23c-0.21-0.09-0.42-0.21-0.62-0.3c-2.93-1.2-5.93-1.81-8.93-1.81
			c-7.67,0-15.06,4.07-20.3,11.19c-4.71,6.4-8.81,13.25-12.2,20.37c-0.48,1.01-1.04,2.15-1.66,3.4c-2.51,5.09-6.92,14.04-8.48,21.13
			c1.83-1.3,3.84-2.44,6.1-3.23c1.01-0.35,2.08-0.57,3.18-0.71c0.5-1.36,1.19-2.57,1.81-3.63l0.1-0.18l0.33-0.56
			c3.08-5.31,9.48-16.37,13.03-20.73c1.29-1.58,2.87-3.37,4.86-4.57c1.06-0.64,2.36-1.35,3.97-1.77c1.02-0.26,2.05-0.39,3.08-0.39
			c0.09,0,0.17,0.01,0.25,0.02c0.02,0.03,0.03,0.06,0.05,0.08c0.89,1.12,3.15,1.47,4.44,1.95c0.97,0.36,2.05,0.6,2.98,1.06
			c1.02,0.51,2.01,1.02,2.72,1.9c0.75,0.94,1.35,1.98,1.78,3.1c0.79,2.08,0.9,4.34,0.57,6.53c-0.96,6.28-5.43,12.51-7.9,15.94
			l-0.19,0.26c-0.95,1.32-1.85,2.67-2.81,4.11c-2.1,3.14-4.27,6.39-6.97,9.31c-0.5,0.54-1,1.08-1.51,1.61
			c-0.09,0.09-0.17,0.17-0.26,0.26c-0.54,0.55-1.09,1.08-1.66,1.6c-0.59,0.53-1.19,1.03-1.82,1.5c-0.5,0.38-1.01,0.74-1.54,1.07
			c-1.48,0.9-3.8,1.99-5.54,1.21c-0.74-0.34-1.36-0.94-2.06-1.36c-1.04-0.62-2.2-1.19-3.35-1.56c-0.6-0.2-1.25-0.62-1.93-0.58
			c-1.1,0.06-2.78,1.38-3.48,2.16c-0.74,0.82-1.39,2.06-1.41,3.17c-0.02,1.37,0.61,1.83,1.71,2.65c1.32,0.98,2.95,1.43,4.39,2.23
			c1.56,0.87,3.59,1.66,5.41,1.4c1.68-0.24,3.32-0.37,5.02-0.55c0.93-0.09,1.85-0.24,2.74-0.47c0.33-0.08,0.66-0.2,1-0.3
			c0.62-0.19,1.24-0.4,1.84-0.65c3.76-1.57,7.33-4.27,11.44-7.95c4.45-3.96,8.38-8.35,12.56-12.99l0.7-0.78
			c2.52-2.8,4.87-6.04,7.15-9.18c0.88-1.22,1.76-2.43,2.65-3.62c0.79-1.06,1.5-2.11,2.17-3.16
			C111.74,39.84,114.16,33.85,113.01,27.88z"/>
		<path style="fill:#8CD5F5;" d="M68.67,87.8c0.05-0.01,0.1-0.01,0.14-0.02c0.43-0.08,0.85-0.16,1.27-0.26
			c-0.41,0.1-0.84,0.17-1.26,0.26C68.77,87.78,68.72,87.79,68.67,87.8z"/>
		<path style="fill:#8CD5F5;" d="M65.42,88.17c0.16,0,0.33,0,0.5,0c0.34-0.02,0.68-0.06,1.01-0.1c-0.32,0.04-0.66,0.05-0.99,0.07
			C65.77,88.16,65.59,88.17,65.42,88.17z"/>
		<path style="fill:#8CD5F5;" d="M20.24,110.19c-0.1,0.02-0.21,0.05-0.32,0.04c0.03,0,0.06,0,0.08,0
			C20.08,110.23,20.16,110.21,20.24,110.19z"/>
		<path style="fill:#8CD5F5;" d="M25.09,113.36c-0.05,0-0.1-0.01-0.15-0.01c0.03,0,0.07,0.01,0.1,0.01
			C25.06,113.36,25.07,113.36,25.09,113.36z"/>
		<path style="fill:#78A3AD;" d="M48.84,90.33c-0.22-0.44-0.45-0.87-0.7-1.3c-0.66-1.21-1.85-4.05-3.59-3.87
			c-0.62,0.06-1.48,0.37-1.96,0.78c-0.71,0.59-1.19,1.57-1.52,2.41c-0.28,0.73-0.24,0.74,0.1,1.36c0.58,1.02,1.4,1.86,1.94,2.91
			c0.51,0.99,0.57,1.89,0.57,3c0,0.11-0.01,0.21-0.01,0.32c-0.02,0.7-0.07,1.38-0.17,2.02c-0.01,0.03-0.01,0.06-0.02,0.09
			c-0.14,0.86-0.35,1.68-0.61,2.48c-0.56,1.66-1.37,3.17-2.34,4.6c-0.06,0.09-0.11,0.17-0.17,0.26c-0.44,0.64-0.92,1.26-1.41,1.87
			c-0.45,0.56-0.92,1.12-1.4,1.67c-0.02,0.03-0.05,0.05-0.07,0.09c-0.07,0.08-0.14,0.16-0.22,0.25c-0.41,0.47-0.82,0.97-1.23,1.47
			c-1.47,1.79-3.28,3.99-5.71,5.41c-1.16,0.68-2.49,1.15-3.98,1.34c-0.42,0.05-0.85,0.12-1.31,0.12c-0.48,0-0.97-0.04-1.46-0.11
			c-0.44-0.41-0.94-0.78-1.29-1.11c-0.92-0.87-1.86-1.75-2.51-2.86c-0.23-0.4-0.67-1.03-0.72-1.5c-0.07-0.55,0.31-1.12,0.39-1.66
			c0.07-0.48-0.08-0.84-0.08-1.31c0-1.11,0.6-2.39,1.05-3.37c0.54-1.19,1.21-2.31,1.95-3.39c0.23-0.33,2.5-2.95,2.43-3.1
			c-0.44-0.91-0.81-1.9-1.01-3c-0.11-0.52-0.16-1.06-0.22-1.59c-2.78,3.34-5.29,7.01-6.98,11.03c-0.53,1.25-0.84,2.59-1.25,3.87
			c-0.11,0.35-0.24,0.7-0.37,1.05c-0.73,1.89-1.08,4.1-0.16,5.98c0.73,1.51,0.9,3.25,2.23,4.43c0.71,0.63,1.46,0.73,2.29,0.73
			c0.07,0.05,0.13,0.1,0.21,0.15c1.87,1.08,4.11,1.61,6.04,1.61c1.09,0,2.16-0.16,3.07-0.45c0.24-0.08,0.47-0.2,0.7-0.29
			c5.45-2.07,9.75-7.35,12.54-11.24c0.42-0.58,0.8-1.22,1.2-1.83c0.12-0.18,0.24-0.36,0.35-0.54c0.41-0.63,0.83-1.24,1.22-1.89
			c0.54-0.92,1.04-1.89,1.54-2.85c0.22-0.44,0.48-0.85,0.7-1.29c1.53-3.12,2.95-6.68,2.71-10.23
			C49.55,91.94,49.24,91.12,48.84,90.33z"/>
		<path style="fill:#8CD5F5;" d="M33.31,107.39c0.07-0.09,0.16-0.18,0.23-0.27c0.19-0.22,0.38-0.44,0.56-0.66
			c-0.19,0.21-0.37,0.43-0.56,0.65C33.46,107.21,33.38,107.3,33.31,107.39z"/>
	</g>
	<path style="fill:#2F2F2F;" d="M116.05,23.27c-1.55-5.57-5.17-10.88-9.98-14.8c-2.99-2.44-6.33-4.53-9.91-6
		c-0.84-0.35-1.69-0.64-2.53-0.91c-0.28-0.09-0.56-0.15-0.84-0.22c-0.56-0.16-1.13-0.31-1.69-0.43c-0.33-0.07-0.66-0.11-1-0.17
		c-0.51-0.08-1.02-0.17-1.53-0.23c-0.35-0.04-0.7-0.06-1.04-0.08c-0.49-0.04-0.98-0.06-1.47-0.07c-0.14,0-0.28-0.02-0.43-0.02
		c-0.15,0-0.3,0.03-0.45,0.03c-0.86,0.01-1.71,0.06-2.56,0.16c-0.18,0.02-0.35,0.03-0.53,0.05c-0.99,0.13-1.97,0.33-2.94,0.58
		c-0.23,0.05-0.46,0.13-0.69,0.19c-0.79,0.22-1.58,0.49-2.35,0.78c-0.21,0.08-0.43,0.16-0.64,0.24c-0.93,0.38-1.84,0.81-2.73,1.29
		c-0.18,0.1-0.36,0.21-0.54,0.31c-0.74,0.42-1.46,0.87-2.17,1.36c-0.22,0.15-0.44,0.29-0.65,0.45c-0.84,0.61-1.66,1.26-2.45,1.95
		c-0.11,0.1-0.22,0.21-0.32,0.31c-0.69,0.63-1.36,1.3-2.01,1.99c-0.19,0.21-0.39,0.42-0.58,0.64c-0.73,0.81-1.43,1.67-2.1,2.57
		c-4.87,6.61-9.1,13.66-12.62,21.06c-3.31,6.97-10.79,20.65-11.08,30.35c-0.52,0.51-1.03,1.02-1.51,1.52
		c-4.47,4.6-10.64,11.75-12.7,20.66c-0.09,0.39-0.14,0.79-0.21,1.19c-0.01,0.01-0.02,0.02-0.03,0.03
		c-5.42,5.54-11.28,13.58-12.76,21.32c-0.8,4.2-1.04,7.75,1.32,11.5c1.12,1.79,3.14,3.84,5.32,4.79c-0.11-0.06-0.2-0.15-0.3-0.21
		c0.13,0.08,0.25,0.16,0.38,0.24c0.01,0.01,0.04,0.02,0.06,0.03c0.68,0.37,1.39,0.69,2.12,0.95c0.18,0.06,0.37,0.11,0.55,0.17
		c0.57,0.18,1.14,0.34,1.72,0.46c0.25,0.05,0.5,0.09,0.75,0.14c0.56,0.09,1.12,0.15,1.68,0.18c0.22,0.01,0.44,0.03,0.66,0.04
		c0.1,0,0.2,0.02,0.3,0.02c0.45,0,0.9-0.06,1.35-0.1c0.25-0.02,0.51-0.02,0.75-0.06c0.78-0.11,1.54-0.27,2.26-0.5
		c6.52-2.09,11.51-7.69,15.38-13.09c1.44-2.01,2.71-4.15,3.91-6.32c0.03-0.02,0.05-0.03,0.08-0.04
		c6.82-3.69,12.92-11.35,15.85-15.03l0.38-0.47c1.06-1.32,2.19-2.76,3.27-4.29c-0.04,0.01-0.1,0.01-0.14,0.02
		c0.05-0.01,0.1-0.02,0.15-0.03c0.42-0.08,0.85-0.15,1.26-0.26c0.56-0.14,1.11-0.32,1.65-0.5c0.44-0.14,0.89-0.28,1.31-0.44
		c0.54-0.22,1.07-0.47,1.6-0.71c0.4-0.19,0.82-0.37,1.22-0.58c0.53-0.28,1.04-0.59,1.56-0.91c0.38-0.22,0.75-0.43,1.12-0.68
		c0.54-0.35,1.06-0.72,1.58-1.1c0.33-0.25,0.68-0.47,1.01-0.72c0.58-0.44,1.14-0.9,1.71-1.36c0.27-0.22,0.55-0.43,0.82-0.66
		c0.83-0.7,1.66-1.42,2.49-2.16c4.88-4.35,9.22-9.24,13.58-14.09c3.64-4.05,6.77-8.73,10.03-13.1
		C115.62,42.69,119.95,32.83,116.05,23.27z M27.75,90.15c0.08-0.8,0.21-1.6,0.38-2.38c0.28-1.23,0.69-2.41,1.14-3.58
		c2.09-5.37,5.81-10.16,9.72-14.29c0.25-0.27,0.5-0.54,0.75-0.8c0.88-0.9,1.79-1.79,2.75-2.65c2.37-2.12,4.99-4,7.98-5.04
		c0.38-0.14,0.78-0.2,1.17-0.29c0.23-0.05,0.45-0.13,0.67-0.17c0.2-0.03,0.4-0.05,0.61-0.07c0.43-0.05,0.87-0.09,1.31-0.1
		c0.2,0,0.4,0,0.6,0.01c0.35,0,0.69,0.06,1.03,0.09c0.42,0.04,0.85,0.04,1.26,0.12c2.05,0.37,3.94,1.34,5.6,2.58
		c0.39,0.29,0.77,0.58,1.13,0.89c0.17,0.15,0.33,0.31,0.5,0.46c1.48,1.34,2.79,2.8,3.63,4.63c-0.21,0.19-0.42,0.38-0.64,0.56
		c-0.64,0.53-1.29,1.03-1.97,1.44c-0.68,0.41-1.3,0.66-1.89,0.79c-0.38,0.08-0.74,0.12-1.1,0.12c-0.03,0-0.06-0.01-0.1-0.01
		c-0.11,0-0.21-0.01-0.31-0.02c-0.09,0-0.18-0.01-0.27-0.02c-0.19-0.02-0.39-0.04-0.59-0.07c-0.15-0.03-0.3-0.05-0.45-0.09
		c-0.32-0.07-0.66-0.14-1-0.21c-0.04-0.01-0.07-0.02-0.11-0.03c-0.2-0.04-0.4-0.08-0.61-0.12c-0.07-0.01-0.14-0.03-0.21-0.04
		c-0.27-0.26-0.55-0.51-0.89-0.67c-0.06-0.03-0.13-0.05-0.19-0.07c-0.19-0.08-0.38-0.15-0.57-0.2c-0.08-0.02-0.16-0.02-0.25-0.04
		c-0.18-0.03-0.37-0.05-0.55-0.05c-0.02,0-0.04-0.01-0.06-0.01c-0.03,0-0.06,0.02-0.09,0.02c-0.44,0.01-0.88,0.07-1.29,0.23
		c-2.2,0.81-4.12,2.45-5.84,4c-0.98,0.88-1.9,1.82-2.81,2.78c-1.35,1.42-2.63,2.9-3.88,4.42c-0.01,0-0.01,0.01-0.01,0.01
		c-0.46,0.55-0.91,1.11-1.36,1.67c-0.55,0.69-1.13,1.41-1.67,2.16c-1.03,1.44-1.91,3.01-2.18,4.71c-0.05,0.34-0.06,0.67-0.05,0.99
		c0.03,0.85,0.27,1.64,0.68,2.35c0.38,0.66,0.9,1.25,1.52,1.76c0.06,0.05,0.13,0.1,0.19,0.15c-0.02,0.39-0.08,0.76-0.13,1.13
		c0,0.01,0,0.01,0,0.01c-0.37,2.47-1.52,4.6-3.23,6.82c-0.16-0.06-0.31-0.13-0.47-0.2c-0.12-0.05-0.25-0.11-0.38-0.17
		c-0.15-0.07-0.3-0.15-0.44-0.22c-0.05-0.02-0.09-0.04-0.13-0.06c-0.11-0.05-0.22-0.11-0.32-0.17c-0.19-0.11-0.37-0.21-0.54-0.32
		c-0.08-0.05-0.17-0.1-0.24-0.15c-0.22-0.15-0.42-0.3-0.6-0.45c-0.01-0.01-0.02-0.01-0.03-0.02c-0.96-0.82-1.92-1.66-2.76-2.59
		c-0.98-1.08-1.77-2.3-2.15-3.78c-0.05-0.16-0.1-0.33-0.13-0.5C27.59,93.62,27.56,91.87,27.75,90.15z M56.9,56.69
		c0.29-0.57,0.62-1.13,0.93-1.67c2.75-4.74,9.52-16.49,12.98-20.75c1.05-1.29,2.32-2.75,3.78-3.62c0.92-0.55,1.8-1.03,2.84-1.3
		c0.46-0.12,0.91-0.18,1.35-0.22c0.11-0.01,0.23-0.02,0.34-0.03c0.11,0,0.22-0.02,0.33-0.02c0.21,0,0.41,0.03,0.61,0.04
		c0.15,0.01,0.29,0.02,0.43,0.04c0.4,0.05,0.79,0.14,1.18,0.25c0.03,0.01,0.06,0.01,0.09,0.02c0.41,0.13,0.81,0.28,1.21,0.47
		c0.13,0.06,0.26,0.13,0.39,0.2c0.27,0.13,0.53,0.27,0.78,0.43c0.15,0.09,0.28,0.18,0.43,0.27c0.24,0.16,0.48,0.32,0.71,0.49
		c0.14,0.1,0.27,0.2,0.4,0.3c0.13,0.11,0.27,0.21,0.4,0.32c0.01,0.01,0.02,0.03,0.03,0.05c5.67,6.13-1.65,16.11-5.38,21.29
		c-3.12,4.33-5.81,9.08-9.45,13.02c-0.04,0.04-0.08,0.09-0.12,0.13c-1.23-2.06-2.86-3.68-4.49-5.12c-2.68-2.36-5.71-3.89-8.77-4.45
		C57.57,56.77,57.23,56.73,56.9,56.69z M30.23,105.46c0.77,0.66,1.85,1.33,3.08,1.93c0.07-0.09,0.15-0.19,0.23-0.28
		c0.19-0.22,0.37-0.44,0.56-0.65c-0.18,0.21-0.37,0.44-0.56,0.66c-0.07,0.1-0.16,0.18-0.23,0.27c-0.04,0.06-0.1,0.11-0.15,0.17
		c-0.05,0.06-0.1,0.12-0.15,0.18c-0.01,0.02-0.03,0.04-0.05,0.06c-0.21,0.26-0.43,0.53-0.65,0.79c-0.07,0.09-0.15,0.18-0.22,0.27
		c-0.29,0.34-0.58,0.69-0.87,1.02c-0.05,0.05-0.1,0.11-0.15,0.16c-0.31,0.34-0.62,0.67-0.95,0.98c-0.02,0.02-0.04,0.03-0.05,0.05
		c-0.32,0.3-0.65,0.58-1,0.84c-0.03,0.03-0.07,0.06-0.11,0.08c-0.34,0.25-0.7,0.46-1.07,0.65c-0.06,0.04-0.12,0.07-0.18,0.1
		c-0.36,0.17-0.74,0.31-1.13,0.41c-5.39-0.75-2.98-5.94,0.72-10.39C28.3,103.8,29.33,104.69,30.23,105.46z M25.09,113.36
		c-0.01,0-0.03,0-0.05,0c-0.03,0-0.07-0.01-0.1-0.01C24.99,113.35,25.04,113.36,25.09,113.36z M48.96,95.09
		c0.18,2.66-0.69,5.2-2.06,7.98c-0.22,0.44-0.48,0.86-0.7,1.29c-0.5,0.96-1,1.92-1.54,2.85c-0.38,0.65-0.81,1.26-1.22,1.89
		c-0.11,0.18-0.23,0.37-0.35,0.54c-0.4,0.61-0.77,1.24-1.2,1.83c-2.79,3.89-7.08,9.17-12.54,11.24c-0.23,0.09-0.46,0.21-0.7,0.29
		c-0.91,0.29-1.98,0.45-3.07,0.45c-1.93,0-4.17-0.53-6.04-1.61c-1.39-0.81-2.58-1.9-3.26-3.35c-0.1-0.22-0.18-0.42-0.27-0.63
		c-0.04-0.06-0.09-0.12-0.13-0.18c-2-3.1-0.93-7.72,0.26-10.91c0.8-2.13,1.82-4.15,3.01-6.08c0.66-1.08,1.37-2.13,2.12-3.16
		c0.34-0.47,2.34-2.44,2.29-2.93c0.06,0.53,0.11,1.07,0.22,1.59c0.21,1.1,0.57,2.09,1.01,3c0.06,0.13-2.47,3.25-2.67,3.55
		c-1.01,1.56-1.97,3.19-2.56,4.96c-1.16,3.51-1.11,7.42,2.56,9.37c0.19,0.1,0.39,0.18,0.61,0.26c0.78,0.17,1.56,0.26,2.31,0.26
		c0.46,0,0.88-0.06,1.31-0.12c1.49-0.19,2.82-0.66,3.98-1.34c2.44-1.42,4.24-3.62,5.71-5.41c0.41-0.5,0.81-1,1.23-1.47
		c0.07-0.08,0.14-0.16,0.22-0.25c0.03-0.03,0.05-0.06,0.07-0.09c0.48-0.55,0.95-1.11,1.4-1.67c0.49-0.61,0.96-1.23,1.41-1.87
		c0.06-0.08,0.11-0.17,0.17-0.26c0.97-1.43,1.78-2.94,2.34-4.61c0.26-0.79,0.47-1.61,0.61-2.47c0-0.03,0.01-0.05,0.02-0.09
		c0.38-2.62,0.88-5.97-1.32-7.99c-0.22-0.21-0.5-0.29-0.71-0.51c0.16-0.37,0.17-0.66,0.37-1c0.17-0.29,0.36-0.58,0.57-0.85
		c2.27-2.95,4.82,1.99,5.56,3.68C48.57,92.59,48.88,93.85,48.96,95.09z M50.88,87.58c-0.06-0.08-0.12-0.17-0.18-0.25
		c-0.05-0.07-0.1-0.13-0.16-0.2c-0.2-0.26-0.41-0.52-0.63-0.77c-0.08-0.09-0.17-0.18-0.25-0.27c-0.21-0.24-0.44-0.46-0.67-0.67
		c-0.06-0.06-0.12-0.12-0.18-0.18c-0.29-0.25-0.58-0.49-0.88-0.69c-0.06-0.05-0.14-0.09-0.21-0.13c-0.24-0.16-0.48-0.29-0.72-0.41
		c-0.09-0.05-0.18-0.09-0.27-0.13c-0.06-0.03-0.11-0.06-0.17-0.08c0.75-0.89,1.53-1.77,2.33-2.63c0.15,0.06,0.3,0.12,0.42,0.21
		c0.46,0.34,0.88,0.72,1.35,1.05c0.98,0.71,1.91,1.41,2.83,2.06c-0.14,0.17-0.27,0.33-0.42,0.49c-0.37,0.43-0.78,0.91-1.21,1.42
		C51.56,86.77,51.22,87.17,50.88,87.58z M62.24,89.44l-0.38,0.47c-1.9,2.38-5.23,6.53-9.09,9.96c0.61-1.89,1.02-3.82,0.9-5.43
		c-0.03-0.32-0.08-0.66-0.15-1c-0.02-0.1-0.04-0.21-0.07-0.31c-0.06-0.26-0.13-0.53-0.21-0.81c-0.03-0.1-0.06-0.2-0.1-0.3
		c-0.05-0.15-0.1-0.3-0.16-0.45c0.75-0.85,1.46-1.69,2.11-2.46c0.42-0.49,0.81-0.96,1.17-1.37c0.3-0.34,0.6-0.71,0.89-1.06
		c1.71,0.84,3.55,1.41,5.76,1.53c0.1,0,0.19,0,0.29,0.01C62.88,88.63,62.56,89.04,62.24,89.44z M65.92,88.17
		c-0.17,0.01-0.33,0-0.5,0c0.17,0,0.35-0.02,0.52-0.03c0.33-0.02,0.67-0.03,0.99-0.07C66.59,88.11,66.26,88.15,65.92,88.17z
		 M108.57,44.83c-0.66,1.03-1.37,2.08-2.16,3.14c-0.89,1.19-1.77,2.4-2.65,3.62c-2.28,3.14-4.63,6.38-7.15,9.18l-0.7,0.78
		c-4.17,4.64-8.11,9.03-12.56,12.99c-4.11,3.67-7.68,6.38-11.44,7.95c-0.6,0.25-1.22,0.46-1.84,0.65c-0.33,0.1-0.66,0.22-1,0.3
		c-0.89,0.22-1.8,0.38-2.74,0.47c-0.68,0.07-1.36,0.13-2.08,0.13c-0.37,0-0.75-0.01-1.13-0.03c-1.28-0.06-2.41-0.35-3.5-0.81
		c-2.38-0.99-5.62-2.59-7.52-4.36c-0.45-0.42-0.89-0.7-0.53-1.22c0.41-0.6,1.12-1.47,1.71-1.95c1.41-1.16,2.24-0.66,3.78-0.06
		c0.99,0.38,2.03,0.63,3.08,0.83c0.38,0.07,0.78,0.11,1.19,0.15c0.35,0.04,0.68,0.09,1.05,0.09c0.69,0,1.37-0.07,2.03-0.22
		c1.07-0.24,2.11-0.67,3.15-1.3c0.53-0.33,1.04-0.69,1.55-1.07c0.62-0.47,1.23-0.97,1.81-1.49c0.56-0.51,1.12-1.04,1.66-1.6
		c0.08-0.09,0.17-0.17,0.26-0.26c0.51-0.53,1.01-1.06,1.51-1.61c2.71-2.92,4.88-6.17,6.97-9.31c0.96-1.43,1.86-2.79,2.81-4.11
		l0.19-0.26c2.47-3.43,6.94-9.67,7.9-15.94c0.9-5.87-2.03-10.77-7.17-13.34c-1.59-0.8-3.85-1.3-5.62-1.3
		c-1.03,0-2.06,0.13-3.08,0.39c-1.61,0.42-2.91,1.13-3.97,1.77c-1.99,1.2-3.58,2.99-4.86,4.57c-3.55,4.36-9.96,15.42-13.03,20.73
		l-0.33,0.56l-0.1,0.18c-0.62,1.06-1.31,2.27-1.81,3.63c-1.09,0.15-2.17,0.36-3.18,0.71c-2.25,0.78-4.27,1.93-6.1,3.23
		c1.56-7.09,5.96-16.04,8.48-21.13c0.62-1.25,1.18-2.39,1.66-3.4c3.39-7.12,7.49-13.97,12.2-20.37c5.23-7.11,12.63-11.19,20.3-11.19
		c2.99,0,6,0.61,8.93,1.81c1.62,0.67,3.23,1.55,4.8,2.54c5.69,3.55,9.53,9.01,12.42,15.06c0.11,0.24,0.17,0.5,0.27,0.73
		C114.5,30.55,113.36,37.29,108.57,44.83z"/>
</g>
</svg>
