<svg xmlns="http://www.w3.org/2000/svg" viewBox="0 0 128 128"><path d="M64 9.64C1.69 9.64.21 79.5.21 93.33c0 13.83 28.56 25.03 63.79 25.03 35.24 0 63.79-11.21 63.79-25.03 0-13.83-1.47-83.69-63.79-83.69z" fill="#fcc21b"/><g fill="#2f2f2f"><path d="M42.21 62.3c-4.49.04-8.17-4.27-8.22-9.62-.05-5.37 3.55-9.75 8.04-9.79 4.48-.04 8.17 4.27 8.22 9.64.05 5.35-3.55 9.72-8.04 9.77zM86.32 62.3c4.48-.01 8.11-4.36 8.1-9.71-.01-5.37-3.66-9.7-8.14-9.69-4.49.01-8.13 4.36-8.12 9.73.02 5.35 3.67 9.68 8.16 9.67z"/></g><path d="M95.26 95.77c-.75 0-1.5-.28-2.08-.84-15.27-14.69-43.08-14.69-58.35 0a3 3 0 0 1-4.24-.08 3 3 0 0 1 .08-4.24c17.45-16.79 49.23-16.79 66.67 0a3 3 0 0 1 .08 4.24c-.59.62-1.38.92-2.16.92z" fill="#2f2f2f"/><path d="M105.64 84.1c-1.55-2.5-3.31-7.87-3.57-9.57-.46-2.94-1.7-8.28-2.6-12.74-.24-1.21-.23-2.88 1.29-2.96 1.21-.04 3.12.69 4.24 1.07 3.29 1.12 6.74 3.04 9.6 4.97 5.22 3.57 8.75 9.3 8.05 15.78-.53 4.78-5.02 7.94-9.08 7.75-2.92-.14-6.48-1.98-7.93-4.3z" fill="#fff"/></svg>