<svg width="128" height="128" style="enable-background:new 0 0 128 128;" xmlns="http://www.w3.org/2000/svg" xmlns:xlink="http://www.w3.org/1999/xlink">
  <g id="Layer_1">
    <path d=" M43.22,21.25c2.77-1.36,4.68-4.4,4.74-7.55s-1.74-6.26-4.46-7.73" style="fill:none;stroke:#4A963E;stroke-width:2.9345;stroke-linecap:round;stroke-linejoin:round;stroke-miterlimit:10;"/>
    <path d=" M40.8,17.84c-0.02-3.25-1.21-6.48-3.3-8.93c-2.09-2.45-5.05-4.09-8.2-4.55" style="fill:none;stroke:#4A963E;stroke-width:2.9345;stroke-linecap:round;stroke-linejoin:round;stroke-miterlimit:10;"/>
    <linearGradient id="SVGID_3_" gradientTransform="matrix(-1 0 0 1 128.1066 0)" gradientUnits="userSpaceOnUse" x1="34.4965" x2="121.6228" y1="39.4588" y2="126.5852">
      <stop offset="0.1885" style="stop-color:#AED900"/>
      <stop offset="0.3506" style="stop-color:#9BCF00"/>
      <stop offset="0.6773" style="stop-color:#6AB400"/>
      <stop offset="1" style="stop-color:#349700"/>
    </linearGradient>
    <path d=" M29.68,12.6c6.13,0.5,11.82,2.75,16.66,12.66c6.01,12.31,0.88,32,1.03,37c0.32,10.5,2.22,20.02,12.1,23.45 c9.88,3.43,69.88-0.85,62.78,28.59c0,0-3.96,10.92-16.32,7c-0.79-0.25-1.6-0.47-2.41-0.69c-0.89,1.89-2.8,3.21-4.92,3.09 c-2.6-0.14-4.54-2.23-4.9-4.8c-4.18-0.43-8.57-0.6-13.14-0.69c-1.24,2.08-2.97,4.04-5.55,3.94c-2.43-0.09-4.09-1.91-4.51-4.13 c-3.99-0.09-8.11-0.23-12.35-0.54c-1.54,2.12-3.63,3.91-6.44,3.27c-2.39-0.55-3.5-2.59-4.01-4.8c-4.97-1.38-8.99-3.69-12.34-6.51 c-2.51,1.03-5.43,1.37-7.2-1.28c-1.38-2.08-0.84-4.33,0.34-6.23c-1.12-1.55-2.16-3.16-3.14-4.8c-0.74-1.24-1.29-3.22-2.91-3.51 c-0.45-0.08-0.92-0.07-1.37-0.17c-2.04-0.45-2.35-2.6-2.33-4.38c0.03-1.85,0.57-2.98,1.5-4.49c-0.49-2.18-0.93-4.37-1.23-6.59 c-0.27-1.96-1.52-2.52-2.98-3.56c-0.71-0.5-1.44-1.02-1.91-1.76c-1.72-2.67,0.83-5.5,3.27-6.26c-0.19-1.88-0.35-3.76-0.49-5.65 c-0.89-0.56-1.78-1.12-2.66-1.69c-1.04-0.66-1.49-2.04-0.6-3.08c0.76-0.89,1.52-1.77,2.28-2.66c0.12-0.14,0.24-0.25,0.37-0.34 c-0.13-1,7.38-7.28-3.51-9.01C1.3,42.19-1.35,10.09,29.68,12.6z" style="fill:url(#SVGID_3_);stroke:#4A963E;stroke-width:2.8608;stroke-linecap:round;stroke-linejoin:round;stroke-miterlimit:10;"/>
    <path d="M51.38,79.49c0,0-0.11,0.34-0.31,0.92c-0.05,0.15-0.11,0.31-0.17,0.48 c-0.08,0.19-0.17,0.39-0.27,0.61c-0.2,0.44-0.41,0.94-0.72,1.42c-0.15,0.25-0.3,0.5-0.46,0.77c-0.18,0.25-0.37,0.51-0.56,0.78 c-0.37,0.55-0.85,1.06-1.33,1.6c-0.53,0.49-1.05,1.03-1.66,1.48c-0.58,0.48-1.24,0.88-1.88,1.3c-0.67,0.37-1.34,0.73-2.03,1.02 c-0.68,0.33-1.38,0.53-2.05,0.76c-1.35,0.4-2.64,0.65-3.75,0.78c-0.55,0.09-1.06,0.11-1.51,0.14c-0.45,0.03-0.84,0.04-1.16,0.04 c-0.64-0.01-1.01-0.01-1.01-0.01c-0.61,0-1.09-0.5-1.09-1.1c0-0.55,0.41-1,0.94-1.08l0.06-0.01c0,0,0.34-0.05,0.93-0.13 c0.59-0.06,1.42-0.22,2.41-0.42c0.49-0.1,1.02-0.22,1.57-0.38c0.56-0.13,1.12-0.35,1.71-0.53c0.57-0.23,1.18-0.43,1.76-0.72 c0.59-0.25,1.16-0.57,1.73-0.89c0.55-0.35,1.11-0.67,1.6-1.07c0.52-0.37,0.97-0.79,1.43-1.19c0.4-0.45,0.85-0.83,1.19-1.27 c0.18-0.21,0.35-0.42,0.52-0.62c0.15-0.22,0.29-0.42,0.43-0.62c0.29-0.4,0.5-0.77,0.7-1.1c0.1-0.17,0.2-0.32,0.28-0.46 c0.08-0.17,0.16-0.32,0.22-0.46c0.28-0.55,0.44-0.87,0.44-0.87c0.27-0.54,0.93-0.76,1.48-0.48 C51.33,78.41,51.55,78.98,51.38,79.49z" style="fill:#4A963E;"/>
    <path d="M46.68,61.77c0,0-0.2,0.29-0.55,0.8c-0.09,0.13-0.19,0.27-0.29,0.42 c-0.13,0.16-0.27,0.33-0.43,0.51c-0.31,0.36-0.65,0.79-1.08,1.16c-0.21,0.2-0.43,0.4-0.65,0.61c-0.24,0.19-0.49,0.39-0.75,0.59 c-0.5,0.43-1.11,0.77-1.72,1.15c-0.64,0.32-1.29,0.69-2.01,0.94c-0.7,0.3-1.44,0.49-2.17,0.7c-0.74,0.16-1.49,0.32-2.23,0.39 c-0.74,0.12-1.47,0.11-2.17,0.14c-1.41,0-2.71-0.13-3.8-0.32c-0.55-0.07-1.04-0.2-1.48-0.3c-0.44-0.1-0.81-0.2-1.12-0.29 c-0.61-0.19-0.96-0.3-0.96-0.3c-0.58-0.18-0.9-0.79-0.73-1.37c0.16-0.53,0.68-0.84,1.21-0.76l0.06,0.01c0,0,0.34,0.05,0.92,0.14 c0.29,0.05,0.65,0.11,1.06,0.15c0.41,0.04,0.87,0.11,1.37,0.14c0.5,0.05,1.04,0.09,1.61,0.09c0.57,0.03,1.17-0.02,1.78-0.02 c0.61-0.05,1.25-0.08,1.88-0.18c0.64-0.07,1.27-0.22,1.9-0.36c0.62-0.17,1.25-0.32,1.83-0.57c0.6-0.2,1.15-0.48,1.7-0.73 c0.51-0.31,1.05-0.55,1.49-0.88c0.23-0.15,0.45-0.3,0.67-0.45c0.2-0.16,0.4-0.32,0.59-0.48c0.39-0.3,0.69-0.6,0.98-0.85 c0.14-0.13,0.28-0.25,0.4-0.36c0.12-0.14,0.24-0.26,0.34-0.38c0.42-0.45,0.66-0.71,0.66-0.71c0.41-0.44,1.11-0.47,1.55-0.06 C46.92,60.72,46.98,61.33,46.68,61.77z" style="fill:#4A963E;"/>
    <path d="M63.13,87.83c0,0,0.03,0.08,0.09,0.24c0.06,0.16,0.16,0.36,0.26,0.7c0.22,0.67,0.47,1.56,0.65,2.69 c0.37,2.24,0.43,5.33-0.45,8.32l-0.17,0.56c-0.08,0.27-0.13,0.36-0.2,0.55c-0.11,0.31-0.3,0.73-0.46,1.09 c-0.33,0.71-0.73,1.37-1.16,1.98c-0.86,1.22-1.88,2.15-2.75,2.87c-0.88,0.73-1.68,1.21-2.22,1.56c-0.55,0.34-0.87,0.51-0.87,0.51 l-0.01,0.01c-0.54,0.28-1.2,0.08-1.49-0.46c-0.25-0.47-0.12-1.04,0.28-1.37c0,0,0.27-0.22,0.74-0.6c0.47-0.37,1.12-0.94,1.84-1.62 c0.73-0.68,1.47-1.54,2.13-2.52c0.32-0.5,0.62-1.03,0.88-1.59c0.12-0.29,0.23-0.5,0.35-0.87c0.05-0.15,0.14-0.38,0.16-0.45 l0.15-0.46c0.72-2.49,0.86-5.2,0.68-7.19c-0.08-0.99-0.2-1.84-0.32-2.37c-0.05-0.26-0.11-0.53-0.15-0.68 c-0.04-0.16-0.06-0.25-0.06-0.25c-0.13-0.59,0.24-1.18,0.83-1.31C62.4,87.04,62.94,87.33,63.13,87.83z" style="fill:#4A963E;"/>
    <path d="M83.95,89.32c0,0,0.12,0.29,0.33,0.8c0.1,0.24,0.22,0.58,0.35,0.97c0.14,0.39,0.27,0.83,0.38,1.31 c0.25,0.96,0.46,2.11,0.57,3.35c0.03,0.63,0.08,1.27,0.05,1.94c0,0.66-0.09,1.34-0.16,2.01c-0.12,0.67-0.23,1.34-0.42,1.99 c-0.15,0.66-0.42,1.27-0.64,1.87c-0.27,0.59-0.53,1.15-0.86,1.65c-0.29,0.51-0.62,0.97-0.94,1.37c-0.29,0.43-0.63,0.75-0.92,1.06 c-0.28,0.31-0.55,0.55-0.78,0.74c-0.46,0.38-0.72,0.59-0.72,0.59c-0.46,0.39-1.15,0.32-1.54-0.14c-0.34-0.42-0.33-1.01,0.01-1.41 l0.08-0.09c0,0,0.19-0.22,0.52-0.6c0.17-0.18,0.37-0.41,0.56-0.7c0.2-0.28,0.45-0.59,0.66-0.95c0.23-0.35,0.47-0.74,0.67-1.19 c0.24-0.42,0.39-0.91,0.61-1.39c0.16-0.5,0.36-1.01,0.47-1.56c0.15-0.54,0.24-1.1,0.33-1.66c0.06-0.57,0.15-1.13,0.16-1.7 c0.03-0.57,0.03-1.13,0.02-1.67c-0.03-0.54-0.05-1.07-0.1-1.57c-0.05-0.5-0.1-0.98-0.18-1.41c-0.14-0.89-0.26-1.55-0.4-2.1 c-0.12-0.53-0.19-0.84-0.19-0.84c-0.14-0.59,0.23-1.18,0.82-1.32C83.22,88.55,83.74,88.83,83.95,89.32z" style="fill:#4A963E;"/>
    <path d="M103.44,93.43c0,0,0.17,0.27,0.46,0.75c0.28,0.52,0.71,1.23,1.1,2.2c0.2,0.48,0.39,1.05,0.54,1.67 c0.15,0.62,0.22,1.32,0.22,2.01c0,0.69-0.07,1.35-0.15,2c-0.04,0.32-0.08,0.64-0.13,0.96c-0.08,0.41-0.1,0.62-0.2,1.03 c-0.17,0.74-0.38,1.38-0.63,2.03c-0.26,0.64-0.54,1.25-0.85,1.82c-0.63,1.14-1.35,2.11-2.03,2.9c-0.69,0.78-1.35,1.36-1.84,1.74 c-0.49,0.37-0.79,0.56-0.79,0.56c-0.52,0.31-1.2,0.15-1.51-0.37c-0.28-0.46-0.18-1.04,0.21-1.39c0,0,0.21-0.19,0.57-0.55 c0.36-0.34,0.83-0.9,1.35-1.61c0.52-0.7,1.07-1.58,1.53-2.57c0.24-0.49,0.46-1.01,0.66-1.55c0.18-0.53,0.37-1.11,0.48-1.61 c0.06-0.21,0.12-0.63,0.16-0.85c0.04-0.31,0.09-0.61,0.13-0.92c0.08-0.6,0.14-1.17,0.17-1.68c0.05-1.01-0.11-1.89-0.37-2.73 c-0.26-0.83-0.53-1.56-0.72-2.05c-0.2-0.52-0.32-0.82-0.32-0.82c-0.22-0.57,0.06-1.2,0.62-1.42 C102.6,92.78,103.17,92.98,103.44,93.43z" style="fill:#4A963E;"/>
    <path d="M112.42,97.82c0.45,0.11,0.88,0.36,1.25,0.79c2.63,3.1,2.95,7.88,0.78,11.33c-1.26,1.99-3.93,1.5-4.33-0.87l-1.65-9.65 C108.06,96.99,111.05,96.35,112.42,97.82z"/>
    <path d="M90.49,93.22c0.89-1.6,3.72-1.96,4.6,0.31c1.72,4.45,1.5,9.27-0.53,13.57c-1.06,2.26-4.56,1.57-4.7-0.95 c-0.2-3.55-0.4-7.09-0.59-10.64C89.21,94.4,89.75,93.63,90.49,93.22z"/>
    <path d="M71.53,90.81c0.92-2.02,3.29-1.62,4.27-0.21c0.41,0.27,0.73,0.71,0.89,1.36c1.11,4.57,0.29,8.96-2.41,12.77 c-1.41,2-3.99,0.42-4.35-1.49C69.13,98.99,69.75,94.72,71.53,90.81z"/>
    <path d="M46.89,96.85c1.82-3.35,3.64-6.7,5.46-10.05c0.53-0.97,1.39-1.34,2.24-1.31c1.22-0.07,2.51,0.66,2.67,2.26 c0.54,5.44-2.51,10.4-7.31,12.62C47.98,101.28,45.88,98.71,46.89,96.85z"/>
    <path d="M32.47,75.82c1.14-0.87,2.7-1.31,4.04-1.86c1.87-0.76,3.75-1.52,5.62-2.28c1.34-0.54,2.41,0.02,2.93,0.91 c0.17,0.19,0.33,0.4,0.46,0.63c1.64,2.93-1.69,5.26-4.1,6.62c-2.23,1.27-5.5,3.08-8.21,2.02C30.4,80.76,30.23,77.51,32.47,75.82z"/>
    <path d="M42.42,53.28c1.25-0.07,1.83,0.86,1.8,1.85c0.2,0.84-0.03,1.81-0.95,2.37c-2.14,1.3-4.49,2.25-6.94,2.72 c-1.98,0.38-4.72,0.77-5.51-1.69C29.29,53.7,39.77,53.43,42.42,53.28z"/>
    <path d="M108.48,113.31c0.04-0.21,0.07-0.43,0.11-0.64c0.1-0.6,0.55-1.31,1.06-1.63 c0.5-0.32,0.98-0.41,1.52-0.41c0.99-0.22,2.16,0.23,2.68,1.08c0.52,0.86,0.53,1.77,0.15,2.56c-0.04,0.16-0.09,0.33-0.18,0.49 c-0.27,0.56-0.84,1.12-1.43,1.3c-0.06,0.02-0.12,0.02-0.18,0.04c-0.78,0.5-1.92,0.37-2.64-0.12 C108.71,115.39,108.31,114.36,108.48,113.31z" style="fill:#FF4800;"/>
    <path d="M87.93,108.9c0.01-0.02,0.01-0.04,0.02-0.05c0,0,0-0.01,0.01-0.01c0.06-0.12,0.13-0.23,0.2-0.34 c0.02-0.02,0.04-0.05,0.05-0.07c0.66-0.92,1.8-1.5,2.88-1.17c0.63,0.19,1.17,0.48,1.56,1.06c0.35,0.52,0.53,1.31,0.38,1.94 c-0.06,0.24-0.16,0.48-0.29,0.7c-0.17,0.53-0.5,1.02-1,1.38c-0.49,0.35-1.1,0.47-1.7,0.4c-0.01,0-0.03,0-0.04,0 c-0.09-0.01-0.19-0.03-0.28-0.06c-0.07-0.02-0.14-0.03-0.2-0.06c-0.07-0.03-0.15-0.05-0.22-0.09c-0.07-0.03-0.14-0.07-0.21-0.11 c-0.05-0.03-0.11-0.06-0.16-0.1c-0.28-0.18-0.54-0.41-0.77-0.68c-0.28-0.33-0.43-0.75-0.48-1.2 C87.6,109.92,87.7,109.38,87.93,108.9z" style="fill:#FF4800;"/>
    <path d="M70.35,105.41h0.74c1.3,0,2.61,0.92,2.65,2.36c0.03,1.3-0.91,2.71-2.3,2.71h-0.74 c-1.3,0-2.61-0.92-2.65-2.36C68.01,106.82,68.95,105.41,70.35,105.41z" style="fill:#FF4800;"/>
    <path d="M43.1,104.76c-0.12-1.55,1.1-2.87,2.59-2.97c1.5-0.1,2.76,1.04,2.92,2.55 c0.08,0.73-0.2,1.49-0.64,2.06c-0.28,0.36-0.61,0.59-0.98,0.75c-0.27,0.17-0.57,0.27-0.91,0.28c-0.25,0.05-0.55,0-0.83-0.11 C44.1,107.01,43.19,106.05,43.1,104.76z" style="fill:#FF4800;"/>
    <path d="M27.38,78.46c1.3-0.06,2.62,0.96,2.65,2.36c0.01,0.5-0.11,0.99-0.34,1.41 c-0.17,0.55-0.49,1.05-0.95,1.34c-1.21,0.77-2.59,0.45-3.45-0.67C23.96,81.17,25.33,78.55,27.38,78.46z" style="fill:#FF4800;"/>
    <path d="M25.7,56.27c1.36-0.42,2.61,0.25,3.17,1.55c0.07,0.17,0.15,0.35,0.22,0.52 c0.52,1.22-0.3,2.86-1.52,3.24c-1.36,0.42-2.61-0.25-3.17-1.55c-0.07-0.17-0.15-0.35-0.22-0.52C23.67,58.29,24.48,56.65,25.7,56.27 z" style="fill:#FF4800;"/>
    <g>
      <ellipse cx="28.53" cy="23.87" rx="6.22" ry="6.37" style="fill:#FFFFFF;"/>
      <path d="M26.14,25.45c0.85,1.35,2.61,1.74,3.93,0.87c1.32-0.87,1.7-2.67,0.85-4.02s-2.61-1.74-3.93-0.87 C25.67,22.29,25.29,24.09,26.14,25.45z"/>
    </g>
  </g>
  <g id="Layer_2" style="display:none;">
    <g style="display:inline;">
      <g style="opacity:0.6;">
        <circle cx="-102.5" cy="64" r="28" style="opacity:0.61;fill:none;stroke:#000000;stroke-width:0.2625;stroke-miterlimit:10;"/>
        <line style="opacity:0.61;fill:none;stroke:#000000;stroke-width:0.25;stroke-miterlimit:10;" x1="-82.5" x2="-82.5" y1="0" y2="128"/>
        <line style="opacity:0.61;fill:none;stroke:#000000;stroke-width:0.25;stroke-miterlimit:10;" x1="-122.5" x2="-122.5" y1="0" y2="128"/>
        <line style="opacity:0.61;fill:none;stroke:#000000;stroke-width:0.25;stroke-miterlimit:10;" x1="-102.5" x2="-102.5" y1="0" y2="128"/>
        <line style="opacity:0.61;fill:none;stroke:#000000;stroke-width:0.25;stroke-miterlimit:10;" x1="-38.5" x2="-166.5" y1="64" y2="64"/>
        <line style="opacity:0.61;fill:none;stroke:#000000;stroke-width:0.25;stroke-miterlimit:10;" x1="-38.5" x2="-166.5" y1="44" y2="44"/>
        <line style="opacity:0.61;fill:none;stroke:#000000;stroke-width:0.25;stroke-miterlimit:10;" x1="-38.5" x2="-166.5" y1="83.75" y2="83.75"/>
        <line style="opacity:0.61;fill:none;stroke:#000000;stroke-width:0.25;stroke-miterlimit:10;" x1="-38.5" x2="-166.5" y1="128" y2="0"/>
        <line style="opacity:0.61;fill:none;stroke:#000000;stroke-width:0.25;stroke-miterlimit:10;" x1="-166.5" x2="-38.5" y1="128" y2="0"/>
        <g style="opacity:0.61;">
          <path d="M-102.5,4.26c32.94,0,59.74,26.8,59.74,59.74s-26.8,59.74-59.74,59.74s-59.74-26.8-59.74-59.74 S-135.44,4.26-102.5,4.26 M-102.5,4c-33.14,0-60,26.86-60,60s26.86,60,60,60s60-26.86,60-60S-69.36,4-102.5,4L-102.5,4z"/>
        </g>
        <path d="M-58.53,115.97h-87.94 c-4.42,0-8.03-3.61-8.03-8.03V20.03c0-4.42,3.61-8.03,8.03-8.03h87.94c4.42,0,8.03,3.61,8.03,8.03v87.91 C-50.5,112.36-54.11,115.97-58.53,115.97z" style="opacity:0.61;fill:none;stroke:#000000;stroke-width:0.2578;stroke-miterlimit:10;"/>
        <path d="M-66.5,124h-72 c-4.4,0-8-3.6-8-8V12c0-4.4,3.6-8,8-8h72c4.4,0,8,3.6,8,8v104C-58.5,120.4-62.1,124-66.5,124z" style="opacity:0.61;fill:none;stroke:#000000;stroke-width:0.2628;stroke-miterlimit:10;"/>
        <path d="M-52.73,108h-99.54 c-5.63,0-10.23-4.6-10.23-10.23V30.28c0-5.63,4.6-10.23,10.23-10.23h99.54c5.63,0,10.23,4.6,10.23,10.23v67.48 C-42.5,103.4-47.1,108-52.73,108z" style="opacity:0.61;fill:none;stroke:#000000;stroke-width:0.2627;stroke-miterlimit:10;"/>
      </g>
      <g>
        <g style="opacity:0.2;">
          <defs>
            <rect id="SVGID_2_" height="128" style="opacity:0.2;" width="128" x="-166.5" y="0"/>
          </defs>
          <clipPath id="SVGID_4_">
            <use style="overflow:visible;" xlink:href="#SVGID_2_"/>
          </clipPath>
          <g style="clip-path:url(#SVGID_4_);">
            <g>
              <line style="fill:none;stroke:#000000;stroke-width:0.25;stroke-miterlimit:10;" x1="-194.5" x2="-194.5" y1="160" y2="-32"/>
              <line style="fill:none;stroke:#000000;stroke-width:0.25;stroke-miterlimit:10;" x1="-190.5" x2="-190.5" y1="160" y2="-32"/>
              <line style="fill:none;stroke:#000000;stroke-width:0.25;stroke-miterlimit:10;" x1="-186.5" x2="-186.5" y1="160" y2="-32"/>
              <line style="fill:none;stroke:#000000;stroke-width:0.25;stroke-miterlimit:10;" x1="-182.5" x2="-182.5" y1="160" y2="-32"/>
              <line style="fill:none;stroke:#000000;stroke-width:0.25;stroke-miterlimit:10;" x1="-178.5" x2="-178.5" y1="160" y2="-32"/>
              <line style="fill:none;stroke:#000000;stroke-width:0.25;stroke-miterlimit:10;" x1="-174.5" x2="-174.5" y1="160" y2="-32"/>
              <line style="fill:none;stroke:#000000;stroke-width:0.25;stroke-miterlimit:10;" x1="-170.5" x2="-170.5" y1="160" y2="-32"/>
              <line style="fill:none;stroke:#000000;stroke-width:0.25;stroke-miterlimit:10;" x1="-166.5" x2="-166.5" y1="160" y2="-32"/>
              <line style="fill:none;stroke:#000000;stroke-width:0.25;stroke-miterlimit:10;" x1="-162.5" x2="-162.5" y1="160" y2="-32"/>
              <line style="fill:none;stroke:#000000;stroke-width:0.25;stroke-miterlimit:10;" x1="-158.5" x2="-158.5" y1="160" y2="-32"/>
              <line style="fill:none;stroke:#000000;stroke-width:0.25;stroke-miterlimit:10;" x1="-154.5" x2="-154.5" y1="160" y2="-32"/>
              <line style="fill:none;stroke:#000000;stroke-width:0.25;stroke-miterlimit:10;" x1="-150.5" x2="-150.5" y1="160" y2="-32"/>
              <line style="fill:none;stroke:#000000;stroke-width:0.25;stroke-miterlimit:10;" x1="-146.5" x2="-146.5" y1="160" y2="-32"/>
              <line style="fill:none;stroke:#000000;stroke-width:0.25;stroke-miterlimit:10;" x1="-142.5" x2="-142.5" y1="160" y2="-32"/>
              <line style="fill:none;stroke:#000000;stroke-width:0.25;stroke-miterlimit:10;" x1="-138.5" x2="-138.5" y1="160" y2="-32"/>
              <line style="fill:none;stroke:#000000;stroke-width:0.25;stroke-miterlimit:10;" x1="-134.5" x2="-134.5" y1="160" y2="-32"/>
              <line style="fill:none;stroke:#000000;stroke-width:0.25;stroke-miterlimit:10;" x1="-130.5" x2="-130.5" y1="160" y2="-32"/>
              <line style="fill:none;stroke:#000000;stroke-width:0.25;stroke-miterlimit:10;" x1="-126.5" x2="-126.5" y1="160" y2="-32"/>
              <line style="fill:none;stroke:#000000;stroke-width:0.25;stroke-miterlimit:10;" x1="-122.5" x2="-122.5" y1="160" y2="-32"/>
              <line style="fill:none;stroke:#000000;stroke-width:0.25;stroke-miterlimit:10;" x1="-118.5" x2="-118.5" y1="160" y2="-32"/>
              <line style="fill:none;stroke:#000000;stroke-width:0.25;stroke-miterlimit:10;" x1="-114.5" x2="-114.5" y1="160" y2="-32"/>
              <line style="fill:none;stroke:#000000;stroke-width:0.25;stroke-miterlimit:10;" x1="-110.5" x2="-110.5" y1="160" y2="-32"/>
              <line style="fill:none;stroke:#000000;stroke-width:0.25;stroke-miterlimit:10;" x1="-106.5" x2="-106.5" y1="160" y2="-32"/>
              <line style="fill:none;stroke:#000000;stroke-width:0.25;stroke-miterlimit:10;" x1="-102.5" x2="-102.5" y1="160" y2="-32"/>
              <line style="fill:none;stroke:#000000;stroke-width:0.25;stroke-miterlimit:10;" x1="-98.5" x2="-98.5" y1="160" y2="-32"/>
              <line style="fill:none;stroke:#000000;stroke-width:0.25;stroke-miterlimit:10;" x1="-94.5" x2="-94.5" y1="160" y2="-32"/>
              <line style="fill:none;stroke:#000000;stroke-width:0.25;stroke-miterlimit:10;" x1="-90.5" x2="-90.5" y1="160" y2="-32"/>
              <line style="fill:none;stroke:#000000;stroke-width:0.25;stroke-miterlimit:10;" x1="-86.5" x2="-86.5" y1="160" y2="-32"/>
              <line style="fill:none;stroke:#000000;stroke-width:0.25;stroke-miterlimit:10;" x1="-82.5" x2="-82.5" y1="160" y2="-32"/>
              <line style="fill:none;stroke:#000000;stroke-width:0.25;stroke-miterlimit:10;" x1="-78.5" x2="-78.5" y1="160" y2="-32"/>
              <line style="fill:none;stroke:#000000;stroke-width:0.25;stroke-miterlimit:10;" x1="-74.5" x2="-74.5" y1="160" y2="-32"/>
              <line style="fill:none;stroke:#000000;stroke-width:0.25;stroke-miterlimit:10;" x1="-70.5" x2="-70.5" y1="160" y2="-32"/>
              <line style="fill:none;stroke:#000000;stroke-width:0.25;stroke-miterlimit:10;" x1="-66.5" x2="-66.5" y1="160" y2="-32"/>
              <line style="fill:none;stroke:#000000;stroke-width:0.25;stroke-miterlimit:10;" x1="-62.5" x2="-62.5" y1="160" y2="-32"/>
              <line style="fill:none;stroke:#000000;stroke-width:0.25;stroke-miterlimit:10;" x1="-58.5" x2="-58.5" y1="160" y2="-32"/>
              <line style="fill:none;stroke:#000000;stroke-width:0.25;stroke-miterlimit:10;" x1="-54.5" x2="-54.5" y1="160" y2="-32"/>
              <line style="fill:none;stroke:#000000;stroke-width:0.25;stroke-miterlimit:10;" x1="-50.5" x2="-50.5" y1="160" y2="-32"/>
              <line style="fill:none;stroke:#000000;stroke-width:0.25;stroke-miterlimit:10;" x1="-46.5" x2="-46.5" y1="160" y2="-32"/>
              <line style="fill:none;stroke:#000000;stroke-width:0.25;stroke-miterlimit:10;" x1="-42.5" x2="-42.5" y1="160" y2="-32"/>
              <line style="fill:none;stroke:#000000;stroke-width:0.25;stroke-miterlimit:10;" x1="-38.5" x2="-38.5" y1="160" y2="-32"/>
              <line style="fill:none;stroke:#000000;stroke-width:0.25;stroke-miterlimit:10;" x1="-34.5" x2="-34.5" y1="160" y2="-32"/>
              <line style="fill:none;stroke:#000000;stroke-width:0.25;stroke-miterlimit:10;" x1="-30.5" x2="-30.5" y1="160" y2="-32"/>
              <line style="fill:none;stroke:#000000;stroke-width:0.25;stroke-miterlimit:10;" x1="-29.5" x2="-29.5" y1="166.05" y2="-25.95"/>
              <line style="fill:none;stroke:#000000;stroke-width:0.25;stroke-miterlimit:10;" x1="-22.5" x2="-22.5" y1="160" y2="-32"/>
              <line style="fill:none;stroke:#000000;stroke-width:0.25;stroke-miterlimit:10;" x1="-18.5" x2="-18.5" y1="160" y2="-32"/>
              <line style="fill:none;stroke:#000000;stroke-width:0.25;stroke-miterlimit:10;" x1="-14.5" x2="-14.5" y1="160" y2="-32"/>
              <line style="fill:none;stroke:#000000;stroke-width:0.25;stroke-miterlimit:10;" x1="-10.5" x2="-10.5" y1="160" y2="-32"/>
            </g>
            <g>
              <line style="fill:none;stroke:#000000;stroke-width:0.25;stroke-miterlimit:10;" x1="-198.5" x2="-6.5" y1="-28" y2="-28"/>
              <line style="fill:none;stroke:#000000;stroke-width:0.25;stroke-miterlimit:10;" x1="-198.5" x2="-6.5" y1="-24" y2="-24"/>
              <line style="fill:none;stroke:#000000;stroke-width:0.25;stroke-miterlimit:10;" x1="-198.5" x2="-6.5" y1="-20" y2="-20"/>
              <line style="fill:none;stroke:#000000;stroke-width:0.25;stroke-miterlimit:10;" x1="-198.5" x2="-6.5" y1="-16" y2="-16"/>
              <line style="fill:none;stroke:#000000;stroke-width:0.25;stroke-miterlimit:10;" x1="-198.5" x2="-6.5" y1="-12" y2="-12"/>
              <line style="fill:none;stroke:#000000;stroke-width:0.25;stroke-miterlimit:10;" x1="-198.5" x2="-6.5" y1="-8" y2="-8"/>
              <line style="fill:none;stroke:#000000;stroke-width:0.25;stroke-miterlimit:10;" x1="-198.5" x2="-6.5" y1="-4" y2="-4"/>
              <line style="fill:none;stroke:#000000;stroke-width:0.25;stroke-miterlimit:10;" x1="-198.5" x2="-6.5" y1="0" y2="0"/>
              <line style="fill:none;stroke:#000000;stroke-width:0.25;stroke-miterlimit:10;" x1="-198.5" x2="-6.5" y1="4" y2="4"/>
              <line style="fill:none;stroke:#000000;stroke-width:0.25;stroke-miterlimit:10;" x1="-198.5" x2="-6.5" y1="8" y2="8"/>
              <line style="fill:none;stroke:#000000;stroke-width:0.25;stroke-miterlimit:10;" x1="-198.5" x2="-6.5" y1="12" y2="12"/>
              <line style="fill:none;stroke:#000000;stroke-width:0.25;stroke-miterlimit:10;" x1="-198.5" x2="-6.5" y1="16" y2="16"/>
              <line style="fill:none;stroke:#000000;stroke-width:0.25;stroke-miterlimit:10;" x1="-198.5" x2="-6.5" y1="20" y2="20"/>
              <line style="fill:none;stroke:#000000;stroke-width:0.25;stroke-miterlimit:10;" x1="-198.5" x2="-6.5" y1="24" y2="24"/>
              <line style="fill:none;stroke:#000000;stroke-width:0.25;stroke-miterlimit:10;" x1="-198.5" x2="-6.5" y1="28" y2="28"/>
              <line style="fill:none;stroke:#000000;stroke-width:0.25;stroke-miterlimit:10;" x1="-198.5" x2="-6.5" y1="32" y2="32"/>
              <line style="fill:none;stroke:#000000;stroke-width:0.25;stroke-miterlimit:10;" x1="-198.5" x2="-6.5" y1="36" y2="36"/>
              <line style="fill:none;stroke:#000000;stroke-width:0.25;stroke-miterlimit:10;" x1="-198.5" x2="-6.5" y1="40" y2="40"/>
              <line style="fill:none;stroke:#000000;stroke-width:0.25;stroke-miterlimit:10;" x1="-198.5" x2="-6.5" y1="44" y2="44"/>
              <line style="fill:none;stroke:#000000;stroke-width:0.25;stroke-miterlimit:10;" x1="-198.5" x2="-6.5" y1="48" y2="48"/>
              <line style="fill:none;stroke:#000000;stroke-width:0.25;stroke-miterlimit:10;" x1="-198.5" x2="-6.5" y1="52" y2="52"/>
              <line style="fill:none;stroke:#000000;stroke-width:0.25;stroke-miterlimit:10;" x1="-198.5" x2="-6.5" y1="56" y2="56"/>
              <line style="fill:none;stroke:#000000;stroke-width:0.25;stroke-miterlimit:10;" x1="-198.5" x2="-6.5" y1="60" y2="60"/>
              <line style="fill:none;stroke:#000000;stroke-width:0.25;stroke-miterlimit:10;" x1="-198.5" x2="-6.5" y1="64" y2="64"/>
              <line style="fill:none;stroke:#000000;stroke-width:0.25;stroke-miterlimit:10;" x1="-198.5" x2="-6.5" y1="68" y2="68"/>
              <line style="fill:none;stroke:#000000;stroke-width:0.25;stroke-miterlimit:10;" x1="-198.5" x2="-6.5" y1="72" y2="72"/>
              <line style="fill:none;stroke:#000000;stroke-width:0.25;stroke-miterlimit:10;" x1="-198.5" x2="-6.5" y1="76" y2="76"/>
              <line style="fill:none;stroke:#000000;stroke-width:0.25;stroke-miterlimit:10;" x1="-198.5" x2="-6.5" y1="80" y2="80"/>
              <line style="fill:none;stroke:#000000;stroke-width:0.25;stroke-miterlimit:10;" x1="-198.5" x2="-6.5" y1="84" y2="84"/>
              <line style="fill:none;stroke:#000000;stroke-width:0.25;stroke-miterlimit:10;" x1="-198.5" x2="-6.5" y1="88" y2="88"/>
              <line style="fill:none;stroke:#000000;stroke-width:0.25;stroke-miterlimit:10;" x1="-198.5" x2="-6.5" y1="92" y2="92"/>
              <line style="fill:none;stroke:#000000;stroke-width:0.25;stroke-miterlimit:10;" x1="-198.5" x2="-6.5" y1="96" y2="96"/>
              <line style="fill:none;stroke:#000000;stroke-width:0.25;stroke-miterlimit:10;" x1="-198.5" x2="-6.5" y1="100" y2="100"/>
              <line style="fill:none;stroke:#000000;stroke-width:0.25;stroke-miterlimit:10;" x1="-198.5" x2="-6.5" y1="104" y2="104"/>
              <line style="fill:none;stroke:#000000;stroke-width:0.25;stroke-miterlimit:10;" x1="-198.5" x2="-6.5" y1="108" y2="108"/>
              <line style="fill:none;stroke:#000000;stroke-width:0.25;stroke-miterlimit:10;" x1="-198.5" x2="-6.5" y1="112" y2="112"/>
              <line style="fill:none;stroke:#000000;stroke-width:0.25;stroke-miterlimit:10;" x1="-198.5" x2="-6.5" y1="116" y2="116"/>
              <line style="fill:none;stroke:#000000;stroke-width:0.25;stroke-miterlimit:10;" x1="-198.5" x2="-6.5" y1="120" y2="120"/>
              <line style="fill:none;stroke:#000000;stroke-width:0.25;stroke-miterlimit:10;" x1="-198.5" x2="-6.5" y1="124" y2="124"/>
              <line style="fill:none;stroke:#000000;stroke-width:0.25;stroke-miterlimit:10;" x1="-198.5" x2="-6.5" y1="128" y2="128"/>
              <line style="fill:none;stroke:#000000;stroke-width:0.25;stroke-miterlimit:10;" x1="-198.5" x2="-6.5" y1="132" y2="132"/>
              <line style="fill:none;stroke:#000000;stroke-width:0.25;stroke-miterlimit:10;" x1="-198.5" x2="-6.5" y1="136" y2="136"/>
              <line style="fill:none;stroke:#000000;stroke-width:0.25;stroke-miterlimit:10;" x1="-198.5" x2="-6.5" y1="140" y2="140"/>
              <line style="fill:none;stroke:#000000;stroke-width:0.25;stroke-miterlimit:10;" x1="-198.5" x2="-6.5" y1="144" y2="144"/>
              <line style="fill:none;stroke:#000000;stroke-width:0.25;stroke-miterlimit:10;" x1="-198.5" x2="-6.5" y1="148" y2="148"/>
              <line style="fill:none;stroke:#000000;stroke-width:0.25;stroke-miterlimit:10;" x1="-198.5" x2="-6.5" y1="152" y2="152"/>
              <line style="fill:none;stroke:#000000;stroke-width:0.25;stroke-miterlimit:10;" x1="-198.5" x2="-6.5" y1="156" y2="156"/>
            </g>
            <path d="M-6.75-31.75v191.5h-191.5v-191.5H-6.75 M-6.5-32h-192v192h192V-32L-6.5-32z"/>
          </g>
        </g>
        <g>
          <rect height="128" style="opacity:0.3;fill:#F44336;" width="4" x="-166.5" y="0"/>
          <rect height="128" style="opacity:0.3;fill:#F44336;" width="4" x="-42.5" y="0"/>
          <rect height="120" style="opacity:0.3;fill:#F44336;" transform="matrix(-1.836970e-16 1 -1 -1.836970e-16 -100.5 104.5)" width="4" x="-104.5" y="-58"/>
          <rect height="120" style="opacity:0.3;fill:#F44336;" transform="matrix(-1.836970e-16 1 -1 -1.836970e-16 23.5 228.5)" width="4" x="-104.5" y="66"/>
        </g>
      </g>
    </g>
    <g style="display:inline;">
      <g style="opacity:0.6;">
        <circle cx="64" cy="64" r="28" style="opacity:0.61;fill:none;stroke:#000000;stroke-width:0.2625;stroke-miterlimit:10;"/>
        <line style="opacity:0.61;fill:none;stroke:#000000;stroke-width:0.25;stroke-miterlimit:10;" x1="84" x2="84" y1="0" y2="128"/>
        <line style="opacity:0.61;fill:none;stroke:#000000;stroke-width:0.25;stroke-miterlimit:10;" x1="44" x2="44" y1="0" y2="128"/>
        <line style="opacity:0.61;fill:none;stroke:#000000;stroke-width:0.25;stroke-miterlimit:10;" x1="64" x2="64" y1="0" y2="128"/>
        <line style="opacity:0.61;fill:none;stroke:#000000;stroke-width:0.25;stroke-miterlimit:10;" x1="128" x2="0" y1="64" y2="64"/>
        <line style="opacity:0.61;fill:none;stroke:#000000;stroke-width:0.25;stroke-miterlimit:10;" x1="128" x2="0" y1="44" y2="44"/>
        <line style="opacity:0.61;fill:none;stroke:#000000;stroke-width:0.25;stroke-miterlimit:10;" x1="128" x2="0" y1="83.75" y2="83.75"/>
        <line style="opacity:0.61;fill:none;stroke:#000000;stroke-width:0.25;stroke-miterlimit:10;" x1="128" x2="0" y1="128" y2="0"/>
        <line style="opacity:0.61;fill:none;stroke:#000000;stroke-width:0.25;stroke-miterlimit:10;" x1="0" x2="128" y1="128" y2="0"/>
        <g style="opacity:0.61;">
          <path d="M64,4.26c32.94,0,59.74,26.8,59.74,59.74S96.94,123.74,64,123.74S4.26,96.94,4.26,64S31.06,4.26,64,4.26 M64,4 C30.86,4,4,30.86,4,64s26.86,60,60,60s60-26.86,60-60S97.14,4,64,4L64,4z"/>
        </g>
        <path d="M107.97,115.97H20.03 c-4.42,0-8.03-3.61-8.03-8.03V20.03c0-4.42,3.61-8.03,8.03-8.03h87.94c4.42,0,8.03,3.61,8.03,8.03v87.91 C116,112.36,112.39,115.97,107.97,115.97z" style="opacity:0.61;fill:none;stroke:#000000;stroke-width:0.2578;stroke-miterlimit:10;"/>
        <path d="M100,124H28c-4.4,0-8-3.6-8-8 V12c0-4.4,3.6-8,8-8h72c4.4,0,8,3.6,8,8v104C108,120.4,104.4,124,100,124z" style="opacity:0.61;fill:none;stroke:#000000;stroke-width:0.2628;stroke-miterlimit:10;"/>
        <path d="M113.77,108H14.23 C8.6,108,4,103.4,4,97.77V30.28c0-5.63,4.6-10.23,10.23-10.23h99.54c5.63,0,10.23,4.6,10.23,10.23v67.48 C124,103.4,119.4,108,113.77,108z" style="opacity:0.61;fill:none;stroke:#000000;stroke-width:0.2627;stroke-miterlimit:10;"/>
      </g>
      <g>
        <g style="opacity:0.2;">
          <defs>
            <rect id="SVGID_1_" height="128" style="opacity:0.2;" width="128" x="0" y="0"/>
          </defs>
          <clipPath id="SVGID_5_">
            <use style="overflow:visible;" xlink:href="#SVGID_1_"/>
          </clipPath>
          <g style="clip-path:url(#SVGID_5_);">
            <g>
              <line style="fill:none;stroke:#000000;stroke-width:0.25;stroke-miterlimit:10;" x1="-28" x2="-28" y1="160" y2="-32"/>
              <line style="fill:none;stroke:#000000;stroke-width:0.25;stroke-miterlimit:10;" x1="-24" x2="-24" y1="160" y2="-32"/>
              <line style="fill:none;stroke:#000000;stroke-width:0.25;stroke-miterlimit:10;" x1="-20" x2="-20" y1="160" y2="-32"/>
              <line style="fill:none;stroke:#000000;stroke-width:0.25;stroke-miterlimit:10;" x1="-16" x2="-16" y1="160" y2="-32"/>
              <line style="fill:none;stroke:#000000;stroke-width:0.25;stroke-miterlimit:10;" x1="-12" x2="-12" y1="160" y2="-32"/>
              <line style="fill:none;stroke:#000000;stroke-width:0.25;stroke-miterlimit:10;" x1="-8" x2="-8" y1="160" y2="-32"/>
              <line style="fill:none;stroke:#000000;stroke-width:0.25;stroke-miterlimit:10;" x1="-4" x2="-4" y1="160" y2="-32"/>
              <line style="fill:none;stroke:#000000;stroke-width:0.25;stroke-miterlimit:10;" x1="0" x2="0" y1="160" y2="-32"/>
              <line style="fill:none;stroke:#000000;stroke-width:0.25;stroke-miterlimit:10;" x1="4" x2="4" y1="160" y2="-32"/>
              <line style="fill:none;stroke:#000000;stroke-width:0.25;stroke-miterlimit:10;" x1="8" x2="8" y1="160" y2="-32"/>
              <line style="fill:none;stroke:#000000;stroke-width:0.25;stroke-miterlimit:10;" x1="12" x2="12" y1="160" y2="-32"/>
              <line style="fill:none;stroke:#000000;stroke-width:0.25;stroke-miterlimit:10;" x1="16" x2="16" y1="160" y2="-32"/>
              <line style="fill:none;stroke:#000000;stroke-width:0.25;stroke-miterlimit:10;" x1="20" x2="20" y1="160" y2="-32"/>
              <line style="fill:none;stroke:#000000;stroke-width:0.25;stroke-miterlimit:10;" x1="24" x2="24" y1="160" y2="-32"/>
              <line style="fill:none;stroke:#000000;stroke-width:0.25;stroke-miterlimit:10;" x1="28" x2="28" y1="160" y2="-32"/>
              <line style="fill:none;stroke:#000000;stroke-width:0.25;stroke-miterlimit:10;" x1="32" x2="32" y1="160" y2="-32"/>
              <line style="fill:none;stroke:#000000;stroke-width:0.25;stroke-miterlimit:10;" x1="36" x2="36" y1="160" y2="-32"/>
              <line style="fill:none;stroke:#000000;stroke-width:0.25;stroke-miterlimit:10;" x1="40" x2="40" y1="160" y2="-32"/>
              <line style="fill:none;stroke:#000000;stroke-width:0.25;stroke-miterlimit:10;" x1="44" x2="44" y1="160" y2="-32"/>
              <line style="fill:none;stroke:#000000;stroke-width:0.25;stroke-miterlimit:10;" x1="48" x2="48" y1="160" y2="-32"/>
              <line style="fill:none;stroke:#000000;stroke-width:0.25;stroke-miterlimit:10;" x1="52" x2="52" y1="160" y2="-32"/>
              <line style="fill:none;stroke:#000000;stroke-width:0.25;stroke-miterlimit:10;" x1="56" x2="56" y1="160" y2="-32"/>
              <line style="fill:none;stroke:#000000;stroke-width:0.25;stroke-miterlimit:10;" x1="60" x2="60" y1="160" y2="-32"/>
              <line style="fill:none;stroke:#000000;stroke-width:0.25;stroke-miterlimit:10;" x1="64" x2="64" y1="160" y2="-32"/>
              <line style="fill:none;stroke:#000000;stroke-width:0.25;stroke-miterlimit:10;" x1="68" x2="68" y1="160" y2="-32"/>
              <line style="fill:none;stroke:#000000;stroke-width:0.25;stroke-miterlimit:10;" x1="72" x2="72" y1="160" y2="-32"/>
              <line style="fill:none;stroke:#000000;stroke-width:0.25;stroke-miterlimit:10;" x1="76" x2="76" y1="160" y2="-32"/>
              <line style="fill:none;stroke:#000000;stroke-width:0.25;stroke-miterlimit:10;" x1="80" x2="80" y1="160" y2="-32"/>
              <line style="fill:none;stroke:#000000;stroke-width:0.25;stroke-miterlimit:10;" x1="84" x2="84" y1="160" y2="-32"/>
              <line style="fill:none;stroke:#000000;stroke-width:0.25;stroke-miterlimit:10;" x1="88" x2="88" y1="160" y2="-32"/>
              <line style="fill:none;stroke:#000000;stroke-width:0.25;stroke-miterlimit:10;" x1="92" x2="92" y1="160" y2="-32"/>
              <line style="fill:none;stroke:#000000;stroke-width:0.25;stroke-miterlimit:10;" x1="96" x2="96" y1="160" y2="-32"/>
              <line style="fill:none;stroke:#000000;stroke-width:0.25;stroke-miterlimit:10;" x1="100" x2="100" y1="160" y2="-32"/>
              <line style="fill:none;stroke:#000000;stroke-width:0.25;stroke-miterlimit:10;" x1="104" x2="104" y1="160" y2="-32"/>
              <line style="fill:none;stroke:#000000;stroke-width:0.25;stroke-miterlimit:10;" x1="108" x2="108" y1="160" y2="-32"/>
              <line style="fill:none;stroke:#000000;stroke-width:0.25;stroke-miterlimit:10;" x1="112" x2="112" y1="160" y2="-32"/>
              <line style="fill:none;stroke:#000000;stroke-width:0.25;stroke-miterlimit:10;" x1="116" x2="116" y1="160" y2="-32"/>
              <line style="fill:none;stroke:#000000;stroke-width:0.25;stroke-miterlimit:10;" x1="120" x2="120" y1="160" y2="-32"/>
              <line style="fill:none;stroke:#000000;stroke-width:0.25;stroke-miterlimit:10;" x1="124" x2="124" y1="160" y2="-32"/>
              <line style="fill:none;stroke:#000000;stroke-width:0.25;stroke-miterlimit:10;" x1="128" x2="128" y1="160" y2="-32"/>
              <line style="fill:none;stroke:#000000;stroke-width:0.25;stroke-miterlimit:10;" x1="132" x2="132" y1="160" y2="-32"/>
              <line style="fill:none;stroke:#000000;stroke-width:0.25;stroke-miterlimit:10;" x1="136" x2="136" y1="160" y2="-32"/>
              <line style="fill:none;stroke:#000000;stroke-width:0.25;stroke-miterlimit:10;" x1="137" x2="137" y1="166.05" y2="-25.95"/>
              <line style="fill:none;stroke:#000000;stroke-width:0.25;stroke-miterlimit:10;" x1="144" x2="144" y1="160" y2="-32"/>
              <line style="fill:none;stroke:#000000;stroke-width:0.25;stroke-miterlimit:10;" x1="148" x2="148" y1="160" y2="-32"/>
              <line style="fill:none;stroke:#000000;stroke-width:0.25;stroke-miterlimit:10;" x1="152" x2="152" y1="160" y2="-32"/>
              <line style="fill:none;stroke:#000000;stroke-width:0.25;stroke-miterlimit:10;" x1="156" x2="156" y1="160" y2="-32"/>
            </g>
            <g>
              <line style="fill:none;stroke:#000000;stroke-width:0.25;stroke-miterlimit:10;" x1="-32" x2="160" y1="-28" y2="-28"/>
              <line style="fill:none;stroke:#000000;stroke-width:0.25;stroke-miterlimit:10;" x1="-32" x2="160" y1="-24" y2="-24"/>
              <line style="fill:none;stroke:#000000;stroke-width:0.25;stroke-miterlimit:10;" x1="-32" x2="160" y1="-20" y2="-20"/>
              <line style="fill:none;stroke:#000000;stroke-width:0.25;stroke-miterlimit:10;" x1="-32" x2="160" y1="-16" y2="-16"/>
              <line style="fill:none;stroke:#000000;stroke-width:0.25;stroke-miterlimit:10;" x1="-32" x2="160" y1="-12" y2="-12"/>
              <line style="fill:none;stroke:#000000;stroke-width:0.25;stroke-miterlimit:10;" x1="-32" x2="160" y1="-8" y2="-8"/>
              <line style="fill:none;stroke:#000000;stroke-width:0.25;stroke-miterlimit:10;" x1="-32" x2="160" y1="-4" y2="-4"/>
              <line style="fill:none;stroke:#000000;stroke-width:0.25;stroke-miterlimit:10;" x1="-32" x2="160" y1="0" y2="0"/>
              <line style="fill:none;stroke:#000000;stroke-width:0.25;stroke-miterlimit:10;" x1="-32" x2="160" y1="4" y2="4"/>
              <line style="fill:none;stroke:#000000;stroke-width:0.25;stroke-miterlimit:10;" x1="-32" x2="160" y1="8" y2="8"/>
              <line style="fill:none;stroke:#000000;stroke-width:0.25;stroke-miterlimit:10;" x1="-32" x2="160" y1="12" y2="12"/>
              <line style="fill:none;stroke:#000000;stroke-width:0.25;stroke-miterlimit:10;" x1="-32" x2="160" y1="16" y2="16"/>
              <line style="fill:none;stroke:#000000;stroke-width:0.25;stroke-miterlimit:10;" x1="-32" x2="160" y1="20" y2="20"/>
              <line style="fill:none;stroke:#000000;stroke-width:0.25;stroke-miterlimit:10;" x1="-32" x2="160" y1="24" y2="24"/>
              <line style="fill:none;stroke:#000000;stroke-width:0.25;stroke-miterlimit:10;" x1="-32" x2="160" y1="28" y2="28"/>
              <line style="fill:none;stroke:#000000;stroke-width:0.25;stroke-miterlimit:10;" x1="-32" x2="160" y1="32" y2="32"/>
              <line style="fill:none;stroke:#000000;stroke-width:0.25;stroke-miterlimit:10;" x1="-32" x2="160" y1="36" y2="36"/>
              <line style="fill:none;stroke:#000000;stroke-width:0.25;stroke-miterlimit:10;" x1="-32" x2="160" y1="40" y2="40"/>
              <line style="fill:none;stroke:#000000;stroke-width:0.25;stroke-miterlimit:10;" x1="-32" x2="160" y1="44" y2="44"/>
              <line style="fill:none;stroke:#000000;stroke-width:0.25;stroke-miterlimit:10;" x1="-32" x2="160" y1="48" y2="48"/>
              <line style="fill:none;stroke:#000000;stroke-width:0.25;stroke-miterlimit:10;" x1="-32" x2="160" y1="52" y2="52"/>
              <line style="fill:none;stroke:#000000;stroke-width:0.25;stroke-miterlimit:10;" x1="-32" x2="160" y1="56" y2="56"/>
              <line style="fill:none;stroke:#000000;stroke-width:0.25;stroke-miterlimit:10;" x1="-32" x2="160" y1="60" y2="60"/>
              <line style="fill:none;stroke:#000000;stroke-width:0.25;stroke-miterlimit:10;" x1="-32" x2="160" y1="64" y2="64"/>
              <line style="fill:none;stroke:#000000;stroke-width:0.25;stroke-miterlimit:10;" x1="-32" x2="160" y1="68" y2="68"/>
              <line style="fill:none;stroke:#000000;stroke-width:0.25;stroke-miterlimit:10;" x1="-32" x2="160" y1="72" y2="72"/>
              <line style="fill:none;stroke:#000000;stroke-width:0.25;stroke-miterlimit:10;" x1="-32" x2="160" y1="76" y2="76"/>
              <line style="fill:none;stroke:#000000;stroke-width:0.25;stroke-miterlimit:10;" x1="-32" x2="160" y1="80" y2="80"/>
              <line style="fill:none;stroke:#000000;stroke-width:0.25;stroke-miterlimit:10;" x1="-32" x2="160" y1="84" y2="84"/>
              <line style="fill:none;stroke:#000000;stroke-width:0.25;stroke-miterlimit:10;" x1="-32" x2="160" y1="88" y2="88"/>
              <line style="fill:none;stroke:#000000;stroke-width:0.25;stroke-miterlimit:10;" x1="-32" x2="160" y1="92" y2="92"/>
              <line style="fill:none;stroke:#000000;stroke-width:0.25;stroke-miterlimit:10;" x1="-32" x2="160" y1="96" y2="96"/>
              <line style="fill:none;stroke:#000000;stroke-width:0.25;stroke-miterlimit:10;" x1="-32" x2="160" y1="100" y2="100"/>
              <line style="fill:none;stroke:#000000;stroke-width:0.25;stroke-miterlimit:10;" x1="-32" x2="160" y1="104" y2="104"/>
              <line style="fill:none;stroke:#000000;stroke-width:0.25;stroke-miterlimit:10;" x1="-32" x2="160" y1="108" y2="108"/>
              <line style="fill:none;stroke:#000000;stroke-width:0.25;stroke-miterlimit:10;" x1="-32" x2="160" y1="112" y2="112"/>
              <line style="fill:none;stroke:#000000;stroke-width:0.25;stroke-miterlimit:10;" x1="-32" x2="160" y1="116" y2="116"/>
              <line style="fill:none;stroke:#000000;stroke-width:0.25;stroke-miterlimit:10;" x1="-32" x2="160" y1="120" y2="120"/>
              <line style="fill:none;stroke:#000000;stroke-width:0.25;stroke-miterlimit:10;" x1="-32" x2="160" y1="124" y2="124"/>
              <line style="fill:none;stroke:#000000;stroke-width:0.25;stroke-miterlimit:10;" x1="-32" x2="160" y1="128" y2="128"/>
              <line style="fill:none;stroke:#000000;stroke-width:0.25;stroke-miterlimit:10;" x1="-32" x2="160" y1="132" y2="132"/>
              <line style="fill:none;stroke:#000000;stroke-width:0.25;stroke-miterlimit:10;" x1="-32" x2="160" y1="136" y2="136"/>
              <line style="fill:none;stroke:#000000;stroke-width:0.25;stroke-miterlimit:10;" x1="-32" x2="160" y1="140" y2="140"/>
              <line style="fill:none;stroke:#000000;stroke-width:0.25;stroke-miterlimit:10;" x1="-32" x2="160" y1="144" y2="144"/>
              <line style="fill:none;stroke:#000000;stroke-width:0.25;stroke-miterlimit:10;" x1="-32" x2="160" y1="148" y2="148"/>
              <line style="fill:none;stroke:#000000;stroke-width:0.25;stroke-miterlimit:10;" x1="-32" x2="160" y1="152" y2="152"/>
              <line style="fill:none;stroke:#000000;stroke-width:0.25;stroke-miterlimit:10;" x1="-32" x2="160" y1="156" y2="156"/>
            </g>
            <path d="M159.75-31.75v191.5h-191.5v-191.5H159.75 M160-32H-32v192h192V-32L160-32z"/>
          </g>
        </g>
        <g>
          <rect height="128" style="opacity:0.3;fill:#F44336;" width="4" x="0" y="0"/>
          <rect height="128" style="opacity:0.3;fill:#F44336;" width="4" x="124" y="0"/>
          <rect height="120" style="opacity:0.3;fill:#F44336;" transform="matrix(-1.836970e-16 1 -1 -1.836970e-16 66 -62)" width="4" x="62" y="-58"/>
          <rect height="120" style="opacity:0.3;fill:#F44336;" transform="matrix(-1.836970e-16 1 -1 -1.836970e-16 190 62)" width="4" x="62" y="66"/>
        </g>
      </g>
    </g>
  </g>
</svg>