<?xml version="1.0" encoding="utf-8"?>
<!-- Generator: Adobe Illustrator 24.0.3, SVG Export Plug-In . SVG Version: 6.00 Build 0)  -->
<svg version="1.1" id="Layer_7" xmlns="http://www.w3.org/2000/svg" xmlns:xlink="http://www.w3.org/1999/xlink" x="0px" y="0px"
	 viewBox="0 0 128 128" style="enable-background:new 0 0 128 128;" xml:space="preserve">
<g>
	
		<radialGradient id="SVGID_1_" cx="64.25" cy="56.5" r="62.572" gradientTransform="matrix(-5.341247e-03 -1 1.0259 -5.479839e-03 6.628 121.0587)" gradientUnits="userSpaceOnUse">
		<stop  offset="0.5207" style="stop-color:#FFEACC"/>
		<stop  offset="0.5919" style="stop-color:#FFE8C6"/>
		<stop  offset="0.6827" style="stop-color:#FFE1B7"/>
		<stop  offset="0.7842" style="stop-color:#FFD79C"/>
		<stop  offset="0.8925" style="stop-color:#FFC878"/>
		<stop  offset="1" style="stop-color:#FFB74D"/>
	</radialGradient>
	<circle style="fill:url(#SVGID_1_);" cx="64" cy="64" r="60"/>
	<linearGradient id="SVGID_2_" gradientUnits="userSpaceOnUse" x1="64" y1="72" x2="64" y2="123.6667">
		<stop  offset="0" style="stop-color:#CC8C39;stop-opacity:0.2"/>
		<stop  offset="0.6975" style="stop-color:#C68837;stop-opacity:0.758"/>
		<stop  offset="1" style="stop-color:#C28536"/>
	</linearGradient>
	<path style="fill:url(#SVGID_2_);" d="M64,115.5c-31.71,0-57.65-24.6-59.83-55.75C4.07,61.16,4,62.57,4,64c0,33.14,26.86,60,60,60
		s60-26.86,60-60c0-1.43-0.07-2.84-0.17-4.25C121.65,90.9,95.71,115.5,64,115.5z"/>
	
		<radialGradient id="SVGID_3_" cx="63.6908" cy="59.0129" r="41.4939" gradientTransform="matrix(0.7096 -0.7046 0.401 0.4039 -5.1716 80.0519)" gradientUnits="userSpaceOnUse">
		<stop  offset="0" style="stop-color:#523428;stop-opacity:0.9"/>
		<stop  offset="0.1313" style="stop-color:#57372B;stop-opacity:0.8768"/>
		<stop  offset="0.2885" style="stop-color:#664132;stop-opacity:0.8491"/>
		<stop  offset="0.4582" style="stop-color:#7E513F;stop-opacity:0.8191"/>
		<stop  offset="0.5667" style="stop-color:#915E49;stop-opacity:0.8"/>
		<stop  offset="1" style="stop-color:#915E49;stop-opacity:0.3"/>
	</radialGradient>
	<path style="fill:url(#SVGID_3_);" d="M33.93,88.09c2.6-3.6,12.65-16.5,28.2-31.51c16.08-15.53,27.71-25.83,30.31-27
		c0.12-0.07,0.28-0.03,0.35,0.09c0.05,0.08,0.03,0.18,0,0.27c-1.04,2.9-12.26,15.93-26.83,30.19c-18.5,18.09-28.83,27-31.68,28.32
		c-0.12,0.07-0.28,0.03-0.35-0.1C33.88,88.27,33.88,88.17,33.93,88.09z"/>
	<radialGradient id="SVGID_4_" cx="52.1681" cy="47.6874" r="35.6815" gradientUnits="userSpaceOnUse">
		<stop  offset="0.2156" style="stop-color:#7A4F3C;stop-opacity:0.9"/>
		<stop  offset="0.3257" style="stop-color:#845842;stop-opacity:0.914"/>
		<stop  offset="0.5149" style="stop-color:#A07152;stop-opacity:0.9382"/>
		<stop  offset="0.7583" style="stop-color:#CC996C;stop-opacity:0.9692"/>
		<stop  offset="1" style="stop-color:#FFC68A"/>
	</radialGradient>
	<path style="opacity:0.95;fill:url(#SVGID_4_);" d="M28.27,72.44c-0.56,0.41-1.27-0.27-0.89-0.85c3.6-5.53,10.83-13.71,23.07-25.65
		C62.29,34.4,71.17,26.36,76.08,22.93c0.58-0.4,1.27,0.32,0.86,0.89c-4.21,5.76-14.83,17.51-22.95,25.67
		C45.74,57.77,34.27,68.1,28.27,72.44z"/>
	<radialGradient id="SVGID_5_" cx="41.4739" cy="34.6798" r="30.3149" gradientUnits="userSpaceOnUse">
		<stop  offset="0.1888" style="stop-color:#915E49"/>
		<stop  offset="0.5832" style="stop-color:#C48F67"/>
		<stop  offset="1" style="stop-color:#FFC68A"/>
	</radialGradient>
	<path style="opacity:0.66;fill:url(#SVGID_5_);" d="M62.95,13.47c-1.67,3.69-13.62,16.49-18.11,21.14
		c-6.89,7.14-22.42,20.58-24.23,21.36c-1.26,0.54-0.3-0.94-0.01-1.47c0.51-0.93,15.38-17.52,20.49-22.57
		c8.29-8.18,16.87-15.5,18.67-16.86C61.06,14.09,63.25,12.79,62.95,13.47z"/>
	<radialGradient id="SVGID_6_" cx="87.1077" cy="80.3487" r="28.2766" gradientUnits="userSpaceOnUse">
		<stop  offset="0.1888" style="stop-color:#915E49"/>
		<stop  offset="0.5832" style="stop-color:#C48F67"/>
		<stop  offset="1" style="stop-color:#FFC68A"/>
	</radialGradient>
	<path style="opacity:0.66;fill:url(#SVGID_6_);" d="M68.8,99.66c-1.05,0.84-2.09,0.28-1.55-0.37c3.71-4.45,12.12-15.12,18.02-20.83
		c9.57-9.29,16.45-14.44,19.69-16.91c1.64-1.25,2.52-1.08,2.01-0.4c-3.08,4.08-11.79,14.02-17.84,20.15
		C83.12,87.37,72.55,96.63,68.8,99.66z"/>
	<radialGradient id="SVGID_7_" cx="75.159" cy="69.6369" r="35.1659" gradientUnits="userSpaceOnUse">
		<stop  offset="0.2156" style="stop-color:#7A4F3C;stop-opacity:0.9"/>
		<stop  offset="0.3257" style="stop-color:#845842;stop-opacity:0.914"/>
		<stop  offset="0.5149" style="stop-color:#A07152;stop-opacity:0.9382"/>
		<stop  offset="0.7583" style="stop-color:#CC996C;stop-opacity:0.9692"/>
		<stop  offset="1" style="stop-color:#FFC68A"/>
	</radialGradient>
	<path style="opacity:0.95;fill:url(#SVGID_7_);" d="M50.62,95c-0.53,0.4-1.22-0.3-0.83-0.83C53.48,89.27,62.97,78,73.28,68
		c12.88-12.5,22.08-20.47,26.44-23.73c0.52-0.39,1.18,0.27,0.83,0.81c-3.28,5.06-10.6,13.14-22.63,25.33
		C67.19,81.28,55.87,91,50.62,95z"/>
</g>
</svg>
