<svg enable-background="new 0 0 128 128" viewBox="0 0 128 128" xmlns="http://www.w3.org/2000/svg"><linearGradient id="a" x1="64" x2="64" y1="4.1059" y2="52.447" gradientTransform="matrix(-1 0 0 1 128 0)" gradientUnits="userSpaceOnUse"><stop stop-color="#90A4AE" offset="0"/><stop stop-color="#849AA5" offset=".3389"/><stop stop-color="#637F8D" offset=".9575"/><stop stop-color="#607D8B" offset="1"/></linearGradient><path d="m25.51 27.27c1.03-1.06 2.38-1.72 3.84-1.92 1.86-0.24 4.01 0.06 5.92-1.47 2.01-1.61 11.97-19.96 16.59-19.88 1.22 0.02 2.22 1.08 3.12 2.42 1.61 2.4 2.88 5.73 4.51 5.73 3.41 0 3.41 10.17 7.57 11.39 3.85 1.12 5.13 1.07 8.73 6.32 4.05-4.93 7.6-8.66 9.69-9.6 0.35-0.16 0.66-0.26 0.92-0.26 3.02 0 6.13 8.05 9.24 12.99s4.57 3.66 7.5 3.29c2.93-0.36 20.86 27.72 20.86 27.72h-120s13.95-28.93 21.51-36.73z" fill="url(#a)"/><path d="m25.51 27.27c1.03-1.06 2.38-1.72 3.84-1.92 1.86-0.24 4.01 0.06 5.92-1.47 2.01-1.61 11.97-19.96 16.59-19.88 1.22 0.02 2.22 1.08 3.12 2.42 1.61 2.4 2.88 5.73 4.51 5.73 3.41 0 3.41 10.17 7.57 11.39 3.85 1.12 5.13 1.07 8.73 6.32 4.05-4.93 7.6-8.66 9.69-9.6 0.35-0.16 0.66-0.26 0.92-0.26 3.02 0 6.13 8.05 9.24 12.99s4.57 3.66 7.5 3.29c2.93-0.36 20.86 27.72 20.86 27.72h-120s13.95-28.93 21.51-36.73z" fill="url(#a)"/><linearGradient id="h" x1="42.691" x2="64.116" y1="33.809" y2="55.235" gradientUnits="userSpaceOnUse"><stop stop-color="#607D8B" offset="0"/><stop stop-color="#57727F" offset=".3145"/><stop stop-color="#455A64" offset=".7856"/><stop stop-color="#455A64" offset="1"/></linearGradient><path d="m51.17 27.58c-5.04-10.38 0.04-17.6 3.81-21.16 1.61 2.4 2.88 5.73 4.51 5.73 3.41 0 3.41 10.17 7.57 11.39 4.16 1.21 5.32 1.04 9.65 7.69 7.84 12 19.14 31.61 22.09 32.77h-65.59c17.85-18.03 23.07-25.87 17.96-36.42z" fill="url(#h)"/><radialGradient id="g" cx="42" cy="10.75" r="36.517" gradientUnits="userSpaceOnUse"><stop stop-color="#90A4AE" offset="0"/><stop stop-color="#7D94A0" offset=".2709"/><stop stop-color="#607D8B" offset=".7289"/><stop stop-color="#607D8B" offset="1"/></radialGradient><path d="m25.51 27.27c1.03-1.06 2.38-1.72 3.84-1.92 1.86-0.24 4.01 0.06 5.92-1.47 2.01-1.61 11.97-19.96 16.59-19.88 1.22 0.02 2.22 1.08 3.12 2.42-3.76 3.56-8.84 10.78-3.81 21.16 5.11 10.54-0.1 18.39-17.96 36.42h-29.21s13.95-28.93 21.51-36.73z" fill="url(#g)"/><g opacity=".2"><path d="m81.49 44.41c-2.49-4-5.06-8.13-7.29-11.55-3.36-5.14-4.05-5.34-6.96-6.16-0.32-0.09-0.66-0.18-1.02-0.29-3.61-1.05-5-5.03-6.12-8.22-0.35-1-0.86-2.45-1.25-3.09-2.52-0.37-3.94-2.87-5.21-5.09-0.38-0.66-0.77-1.35-1.15-1.92-0.34-0.51-0.59-0.8-0.75-0.96-2.47 1.39-8.02 9.83-10.17 13.1-2.37 3.61-3.46 5.24-4.42 6-2.21 1.77-4.55 1.91-6.27 2.01-0.42 0.02-0.81 0.05-1.14 0.09-0.81 0.11-1.53 0.46-2.08 1.03-5.44 5.6-19.9 33.6-20.38 34.64h-3.28s13.95-28.93 21.51-36.73c1.03-1.06 2.38-1.72 3.84-1.92 1.86-0.24 4.01 0.06 5.92-1.47 2.01-1.6 11.92-19.88 16.56-19.88h0.03c1.22 0.02 2.22 1.08 3.12 2.42 1.61 2.4 2.88 5.73 4.51 5.73 3.41 0 3.41 10.17 7.57 11.39 4.16 1.21 5.32 1.04 9.65 7.69 7.84 12 19.14 31.61 22.09 32.77h-4.44c-0.72-0.96-8.06-11.86-12.87-19.59z" fill="#424242"/></g><radialGradient id="f" cx="90.375" cy="24.25" r="35.184" gradientUnits="userSpaceOnUse"><stop stop-color="#607D8B" offset="0"/><stop stop-color="#57727F" offset=".3324"/><stop stop-color="#455A64" offset=".8303"/><stop stop-color="#455A64" offset="1"/></radialGradient><path d="m85.17 35.6c6.4-7.81 3.06-12.91 0.32-15.34 0.34-0.16 0.65-0.26 0.91-0.26 3.02 0 6.13 8.05 9.24 12.99s4.57 3.66 7.5 3.29c2.93-0.36 20.86 27.72 20.86 27.72h-45.9c2.2-2.09 4.46-4.16 6.79-6.17 22.78-19.76-9.05-10.84 0.28-22.23z" fill="url(#f)"/><radialGradient id="e" cx="83.875" cy="22.125" r="36" gradientUnits="userSpaceOnUse"><stop stop-color="#90A4AE" offset="0"/><stop stop-color="#849AA5" offset=".2915"/><stop stop-color="#637F8D" offset=".8234"/><stop stop-color="#607D8B" offset=".86"/><stop stop-color="#607D8B" offset="1"/></radialGradient><path d="m85.49 20.26c2.73 2.43 6.07 7.53-0.32 15.34-9.33 11.39 22.5 2.47-0.27 22.23-2.33 2.02-4.59 4.09-6.79 6.17h-26.38c4.54-7.93 26.91-40.67 33.76-43.74z" fill="url(#e)"/><g opacity=".2"><path d="m102.68 39.39c-0.08 0.01-0.16 0.03-0.24 0.05-0.7 0.13-1.42 0.27-2.22 0.27-3.43 0-5.52-2.59-7.11-5.12-0.94-1.49-1.86-3.21-2.75-4.87-1.12-2.09-2.91-5.44-4.02-6.52-5.14 3.08-21.39 25.54-29.13 37.6-0.09 0.13-0.16 0.26-0.24 0.4-0.29 0.53-1.1 1.99-1.56 2.8h-3.68c4.53-7.93 26.9-40.67 33.76-43.74 0.34-0.16 0.65-0.26 0.91-0.26 3.02 0 6.13 8.05 9.24 12.99 1.9 3.02 3.19 3.72 4.57 3.72 0.88 0 1.79-0.28 2.93-0.42h0.06c3.1-0.01 20.8 27.71 20.8 27.71h-4c-0.45-1.14-14.83-22.43-17.32-24.61z" fill="#424242"/></g><linearGradient id="d" x1="64" x2="64" y1="63.875" y2="49.896" gradientUnits="userSpaceOnUse"><stop stop-color="#455A64" offset=".0042918"/><stop stop-color="#455A64" stop-opacity="0" offset="1"/></linearGradient><path d="m103.14 36.28c-2.93 0.37-4.39 1.65-7.5-3.29s-6.22-12.99-9.24-12.99c-0.26 0-0.57 0.1-0.91 0.26-2.1 0.94-5.65 4.66-9.69 9.6-3.6-5.25-4.88-5.19-8.73-6.32-4.16-1.21-4.16-11.39-7.57-11.39-1.63 0-2.91-3.33-4.51-5.73-0.9-1.34-1.89-2.4-3.12-2.42-4.63-0.08-14.58 18.27-16.59 19.88-1.91 1.53-4.06 1.22-5.92 1.47-1.46 0.19-2.81 0.86-3.84 1.92-7.57 7.8-21.52 36.73-21.52 36.73h120s-17.93-28.08-20.86-27.72z" fill="url(#d)" opacity=".7"/><path d="m80.86 36.93c0.11-0.31-0.29-0.53-0.49-0.27-2.62 3.46-12.53 13.15-16.26 17.4-0.36 0.41 0.1 1.03 0.6 0.8 1.52-0.7 4.57-2.44 4.86-3.1 0.41-0.93 2.79-3.28 3.54-4.02 0.15-0.14 0.3-0.28 0.46-0.41l3-2.49c0.59-0.49 1.06-1.1 1.38-1.78l2.91-6.13z" fill="#E0E0E0" opacity=".2"/><path d="m84.48 44.39c0.16-0.21-0.07-0.49-0.3-0.38l-2.87 1.26c-0.22 0.14-0.39 0.35-0.5 0.59l-3.58 7.37c-0.06 0.3 0.35 0.46 0.5 0.18l6.75-9.02z" fill="#E0E0E0" opacity=".2"/><path d="m46.35 18.55c0.07-0.43-0.51-0.62-0.7-0.23-2.52 5.16-12.94 20.23-16.71 26.68-0.37 0.63 0.39 1.31 0.98 0.88 1.79-1.29 5.32-4.32 5.52-5.24 0.29-1.31 2.79-4.96 3.58-6.11 0.16-0.22 0.32-0.44 0.49-0.65l3.26-3.99c0.64-0.78 1.1-1.69 1.35-2.66l2.23-8.68z" fill="#E0E0E0" opacity=".2"/><path d="m33.81 31.63c0.23-0.26-0.03-0.65-0.35-0.54l-3.92 1.32c-0.3 0.16-0.56 0.41-0.73 0.71l-5.59 9.28c-0.12 0.39 0.41 0.64 0.64 0.3l9.95-11.07z" fill="#E0E0E0" opacity=".2"/><path d="m101.42 50.73c0.19 0.12 0.4-0.13 0.25-0.3-2.02-2.26-7.33-10.36-9.74-13.48-0.23-0.3-0.72-0.07-0.63 0.3 0.28 1.13 1.06 3.46 1.47 3.75 0.59 0.4 1.88 2.35 2.28 2.97 0.08 0.12 0.15 0.24 0.22 0.37l1.31 2.39c0.26 0.47 0.61 0.87 1.04 1.19l3.8 2.81z" fill="#424242" opacity=".2"/><path d="m100.36 44.05c-0.08-0.16 0.06-0.2 0.25-0.07l3.23 2.4c0.23 0.11 0.47 0.31 0.61 0.52l3.33 4.81-2.52-2.35c-0.12-0.11-0.25-0.11-0.21-0.01l1.49 3.9c0.05 0.17-0.23 0.09-0.73 0l-5.45-9.2z" fill="#424242" opacity=".2"/><path d="m52.89 19.59c-0.07-0.28 0.17-0.28 0.41-0.01l4.03 4.92c0.32 0.27 0.6 0.66 0.74 1.03l3.26 8.66-2.97-4.57c-0.14-0.21-0.34-0.27-0.32-0.09l0.79 6.56c0.02 0.28-0.39 0.05-1.12-0.28l-4.82-16.22z" fill="#424242" opacity=".2"/><linearGradient id="c" x1="64.912" x2="64.912" y1="55.625" y2="64.25" gradientUnits="userSpaceOnUse"><stop stop-color="#43A047" offset=".0056"/><stop stop-color="#3E9842" offset=".3488"/><stop stop-color="#328336" offset=".8698"/><stop stop-color="#2E7D32" offset="1"/></linearGradient><path d="m90.69 64.1s-1.33-0.87-2.02-2.12c0.72 0.09 1.89 0.15 1.56-0.54 0 0-1.46-1-2-2.4 0.22 0.02 0.46-0.01 0.68-0.15 0 0 0.31-0.21-0.53-1 0 0-0.72-0.6-1.84-3.32-0.19-0.46-0.8-0.48-1.01-0.03-0.5 1.06-1.28 2.58-2.08 3.53 0 0-1.06 1.25 0.68 0.79-0.3 0.41-1.46 1.93-2.18 2.32 0 0-0.16 0.17-0.14 0.36-0.42-0.44-0.87-1.01-1.15-1.66 0.72 0.09 1.88 0.14 1.55-0.51 0 0-1.2-0.78-1.82-1.9 0.65 0.08 1.7 0.13 1.4-0.48 0 0-1.31-0.9-1.79-2.15 0.2 0.02 0.41-0.01 0.61-0.13 0 0 0.27-0.19-0.47-0.9 0 0-0.64-0.54-1.66-2.98-0.17-0.41-0.72-0.43-0.91-0.03-0.45 0.95-1.15 2.32-1.87 3.18 0 0-0.95 1.12 0.61 0.71-0.27 0.37-1.31 1.74-1.96 2.09 0 0-0.74 0.81 1.34 0.7-0.49 0.58-1.23 1.41-1.75 1.67 0 0-0.85 0.88 1.59 0.73-0.3 0.4-0.77 0.98-1.24 1.48-0.01-0.04-0.01-0.09-0.04-0.14 0 0-1.2-0.78-1.82-1.9 0.65 0.08 1.7 0.13 1.4-0.48 0 0-1.31-0.9-1.79-2.15 0.2 0.02 0.41-0.01 0.61-0.13 0 0 0.27-0.19-0.47-0.9 0 0-0.64-0.54-1.66-2.98-0.17-0.41-0.72-0.43-0.91-0.03-0.45 0.95-1.15 2.32-1.87 3.18 0 0-0.95 1.12 0.61 0.71-0.27 0.37-1.31 1.74-1.96 2.09 0 0-0.74 0.81 1.34 0.7-0.46 0.55-1.16 1.32-1.67 1.62-0.17-0.26-0.32-0.53-0.44-0.83 0.26 0.03 0.53-0.01 0.79-0.17 0 0 0.36-0.25-0.62-1.17 0 0-0.83-0.7-2.15-3.87-0.22-0.53-0.94-0.55-1.18-0.03-0.58 1.23-1.5 3.01-2.42 4.12 0 0-1.23 1.46 0.79 0.93-0.22 0.29-0.81 1.08-1.44 1.75-0.38-0.37-0.83-0.9-1.1-1.52 0.58 0.07 1.51 0.11 1.24-0.41 0 0-0.96-0.62-1.46-1.52 0.52 0.07 1.36 0.1 1.12-0.39 0 0-1.05-0.72-1.44-1.72 0.16 0.02 0.33-0.01 0.49-0.11 0 0 0.22-0.15-0.38-0.72 0 0-0.52-0.43-1.33-2.39-0.14-0.33-0.58-0.34-0.73-0.02-0.36 0.76-0.92 1.86-1.5 2.54 0 0-0.76 0.9 0.49 0.57-0.22 0.29-1.05 1.39-1.57 1.67 0 0-0.59 0.65 1.07 0.56-0.39 0.47-0.99 1.13-1.4 1.34 0 0-0.68 0.7 1.27 0.59-0.43 0.56-1.26 1.58-1.82 1.89 0 0-0.77 0.84 1.39 0.73-0.51 0.61-1.28 1.46-1.82 1.74 0 0-0.09 0.1-0.13 0.22-0.25-0.24-0.5-0.55-0.69-0.89 0.52 0.07 1.36 0.1 1.12-0.39 0 0-1.05-0.72-1.44-1.72 0.16 0.02 0.33-0.01 0.49-0.11 0 0 0.22-0.15-0.38-0.72 0 0-0.52-0.43-1.33-2.39-0.14-0.33-0.58-0.34-0.73-0.02-0.36 0.76-0.92 1.86-1.5 2.54 0 0-0.76 0.9 0.49 0.57-0.22 0.29-1.05 1.39-1.57 1.67 0 0-0.59 0.65 1.07 0.56-0.13 0.16-0.29 0.34-0.46 0.52 0-0.04-0.01-0.08-0.04-0.14 0 0-0.96-0.62-1.46-1.52 0.52 0.07 1.36 0.1 1.12-0.39 0 0-1.05-0.72-1.44-1.72 0.16 0.02 0.33-0.01 0.49-0.11 0 0 0.22-0.15-0.38-0.72 0 0-0.52-0.43-1.33-2.39-0.14-0.33-0.58-0.34-0.73-0.02-0.36 0.76-0.92 1.86-1.5 2.54 0 0-0.76 0.9 0.49 0.57-0.22 0.29-1.05 1.39-1.57 1.67 0 0-0.59 0.65 1.07 0.56-0.39 0.47-0.99 1.13-1.4 1.34 0 0-0.68 0.7 1.27 0.59-0.43 0.56-1.26 1.58-1.82 1.89 0 0-0.77 0.84 1.39 0.73-0.51 0.61-1.28 1.46-1.82 1.74 0 0-1.01 1.04 2.22 0.71 0 0 0.17 1.04 2.22 0.12 0 0 0.66 0.35 1.23 0.38-0.16 0.22-0.46 0.92 2.27 0.65 0 0 0.17 1.04 2.22 0.12 0 0 1.79 0.95 1.99-0.15 0 0 2.65 0.51 2.16-0.45 0 0-1.24-0.81-1.89-1.98 0.67 0.09 1.77 0.14 1.45-0.5 0 0-1.26-0.88-1.8-2.11 0.58 0.07 1.51 0.11 1.24-0.41 0 0-0.07-0.05-0.18-0.13 0.36 0.06 0.91 0.07 1.77-0.01 0 0 0.17 1.04 2.22 0.12 0 0 0.79 0.42 1.38 0.38-0.04 0.04-1.2 1.29 2.78 0.89 0 0 0.22 1.3 2.77 0.15 0 0 0.74 0.39 1.41 0.46-0.18 0.23-0.76 1.2 2.81 0.84 0 0 0.22 1.3 2.77 0.15 0 0 2.23 1.19 2.48-0.19 0 0 3.31 0.63 2.7-0.56 0 0-0.68-0.45-1.37-1.17 0.37 0 0.82-0.02 1.38-0.08 0 0 0.22 1.3 2.77 0.15 0 0 2.23 1.19 2.48-0.19 0 0 3.31 0.63 2.7-0.56 0 0-0.55-0.37-1.17-0.96 0.38 0.03 0.89 0.02 1.6-0.05 0 0 0.19 1.12 2.38 0.13 0 0 1.92 1.02 2.13-0.16 0.06 0.02 2.9 0.56 2.38-0.46zm-43.89 2.15c-0.15-0.14-0.32-0.31-0.49-0.5 0.21 0.03 0.49 0.04 0.87 0.02-0.1 0.14-0.23 0.3-0.38 0.48zm-0.19-1.63c-0.25 0.24-0.49 0.46-0.7 0.56l-0.02 0.02c-0.12-0.18-0.23-0.37-0.32-0.57 0.33 0.04 0.77 0.06 1.04-0.01zm11.72 0.57s0.04 0.01 0.09 0.02c-0.04 0.04-0.09 0.08-0.13 0.11 0.02-0.04 0.04-0.08 0.04-0.13zm14.77-0.19c0.02 0 0.05 0.01 0.08 0.01-0.02 0.01-0.03 0.02-0.05 0.04-0.01-0.02-0.02-0.04-0.03-0.05z" fill="url(#c)"/><linearGradient id="b" x1="37.014" x2="37.014" y1="52.082" y2="65.202" gradientUnits="userSpaceOnUse"><stop stop-color="#43A047" offset=".0056"/><stop stop-color="#3E9842" offset=".3488"/><stop stop-color="#328336" offset=".8698"/><stop stop-color="#2E7D32" offset="1"/></linearGradient><path d="m40.08 65.5s-0.88-0.57-1.33-1.39c0.47 0.06 1.25 0.1 1.03-0.35 0 0-0.96-0.66-1.31-1.58 0.15 0.02 0.3-0.01 0.44-0.1 0 0 0.2-0.14-0.35-0.66 0 0-0.47-0.4-1.21-2.19-0.12-0.3-0.53-0.31-0.67-0.02-0.33 0.7-0.84 1.7-1.37 2.33 0 0-0.7 0.82 0.45 0.52-0.2 0.27-0.96 1.27-1.43 1.53 0 0-0.54 0.59 0.98 0.51-0.36 0.43-0.9 1.03-1.28 1.23 0 0-0.71 0.73 1.57 0.5 0 0 0.12 0.73 1.57 0.08 0 0 1.26 0.67 1.4-0.1-0.02 0 1.85 0.36 1.51-0.31z" fill="url(#b)"/><g fill="#424242" opacity=".2"><path d="m77.98 51.75c0.51 1.15 0.93 1.83 1.21 2.21l-0.42-0.04 0.47 1.22c0.23 0.59 0.6 1.11 0.97 1.52l-1.3-0.16 0.77 1.38c0.26 0.47 0.6 0.88 0.92 1.21l-1.25-0.15 0.56 1.28c0.28 0.64 0.72 1.27 1.31 1.89l1.58 1.66-0.18-2.05c0.76-0.56 1.65-1.69 2.15-2.36l1.35-1.83-1.56 0.41c0.54-0.79 1.05-1.73 1.45-2.55 0.69 1.58 1.23 2.4 1.54 2.79l-0.53-0.06 0.47 1.22c0.28 0.74 0.78 1.37 1.23 1.85l-1.51-0.19 0.77 1.38c0.33 0.6 0.78 1.11 1.2 1.51-0.35-0.04-0.64-0.09-0.64-0.09l-0.79-0.13-0.13 0.69c-0.31-0.01-0.8-0.22-0.98-0.32l-0.35-0.18-0.36 0.16c-0.62 0.28-0.98 0.34-1.18 0.34-0.05 0-0.08 0-0.11-0.01l-0.1-0.6-0.75 0.08c-0.41 0.04-0.77 0.06-1.07 0.06-0.14 0-0.27 0-0.38-0.01l-2.21-0.17 1.59 1.54c0.11 0.11 0.22 0.21 0.33 0.3-0.58-0.04-1.14-0.14-1.15-0.14l-0.8-0.11-0.14 0.75h-0.08c-0.37 0-0.96-0.24-1.24-0.38l-0.35-0.18-0.36 0.16c-0.74 0.33-1.19 0.41-1.43 0.41-0.14 0-0.21-0.02-0.24-0.04l-0.11-0.66-0.75 0.08c-0.48 0.05-0.9 0.07-1.3 0.07h-0.25l1.33-1.06-1.91-0.23-0.13 0.78 0.06-0.8-1.56-0.2 0.76 1.38 0.03 0.06 0.02 0.03 0.01 0.02h-0.26l1.31 1.36c0.19 0.19 0.37 0.37 0.55 0.52-0.58-0.04-1.14-0.14-1.15-0.14l-0.8-0.11-0.14 0.75h-0.08c-0.37 0-0.96-0.24-1.24-0.38l-0.35-0.18-0.36 0.16c-0.74 0.33-1.19 0.41-1.43 0.41-0.14 0-0.21-0.02-0.24-0.04l-0.11-0.66-0.75 0.08c-0.49 0.05-0.93 0.08-1.29 0.08-0.21 0-0.38-0.01-0.51-0.02l0.58-0.74-1.44-0.15c-0.42-0.05-0.96-0.29-1.13-0.38l-0.35-0.18-0.36 0.16c-0.74 0.33-1.19 0.41-1.43 0.41-0.14 0-0.21-0.02-0.24-0.04l-0.11-0.66-0.75 0.08c-0.49 0.05-0.93 0.08-1.29 0.08h-0.26l0.08-0.06 1.27-1.11-1.66-0.28-0.08-0.01-0.79-0.16-0.12 0.67c-0.26-0.02-0.64-0.17-0.85-0.28l-0.35-0.18-0.36 0.16c-0.6 0.27-0.93 0.31-1.08 0.31h-0.05l-0.09-0.57-0.75 0.08c-0.3 0.03-0.57 0.05-0.81 0.06 0.29-0.28 0.65-0.66 1.1-1.2l1.18-1.41-1.84 0.1h-0.03c0.34-0.35 0.72-0.79 1.13-1.33l1.07-1.39-1.48 0.09c0.16-0.17 0.33-0.36 0.53-0.6l1.18-1.41-1.41 0.07c0.27-0.31 0.53-0.64 0.75-0.94l1.16-1.58c0.07 0.12 0.13 0.22 0.19 0.32l-0.26-0.03 0.47 1.22c0.14 0.35 0.33 0.67 0.54 0.95l-0.95-0.12 0.77 1.38c0.14 0.25 0.3 0.48 0.47 0.68l-0.85-0.1 0.56 1.28c0.26 0.61 0.69 1.2 1.28 1.77l0.59 0.57 0.56-0.6c0.65-0.7 1.26-1.51 1.49-1.82l1.35-1.83-1.81 0.47c0.77-1.04 1.49-2.41 2.02-3.51 1.06 2.49 1.83 3.44 2.1 3.73l-0.74-0.08 0.47 1.22c0.12 0.31 0.28 0.62 0.51 0.97l0.42 0.65 0.66-0.39c0.49-0.29 1.12-0.89 1.87-1.8l1.18-1.41-1.79 0.09c0.48-0.5 0.95-1.1 1.25-1.51l1.35-1.83-1.41 0.37c0.41-0.62 0.8-1.33 1.12-1.97 0.51 1.15 0.93 1.83 1.21 2.21l-0.42-0.04 0.47 1.22c0.23 0.59 0.6 1.11 0.97 1.52l-1.3-0.16 0.77 1.38c0.52 0.94 1.37 1.66 1.8 1.99l0.24 1.38 1.09-1.16c0.53-0.56 1.04-1.21 1.3-1.54l1.07-1.39-1.75 0.1c-0.06 0-0.12 0.01-0.18 0.01 0.27-0.26 0.6-0.62 1.01-1.1l1.18-1.41-1.79 0.09c0.48-0.5 0.95-1.1 1.25-1.51l1.35-1.83-1.41 0.37c0.47-0.64 0.86-1.35 1.18-1.98m-21.86 2.25c0.13 0.28 0.25 0.51 0.36 0.72l-0.9 0.24c0.2-0.32 0.38-0.65 0.54-0.96m-12.68 4.47c0.13 0.28 0.25 0.51 0.36 0.72l-0.9 0.24c0.2-0.32 0.38-0.65 0.54-0.96m0.46 0.89c0.07 0.12 0.13 0.22 0.19 0.32l-0.26-0.03 0.47 1.22c0.14 0.35 0.33 0.67 0.54 0.95l-0.94-0.12 0.77 1.38c0.14 0.25 0.3 0.48 0.47 0.68l-0.85-0.1 0.46 1.05-0.44-0.06 1.2 1.38 0.31 0.44 0.04-0.05c0.13 0.14 0.26 0.28 0.4 0.4l0.62 0.58 0.54-0.66c0.15-0.19 0.29-0.36 0.4-0.51l1.07-1.39-1.48 0.09 1.92-1.91-0.39 0.11 0.17-0.2-1.41 0.07c0.27-0.31 0.53-0.64 0.75-0.94l1.16-1.58c0.07 0.12 0.13 0.22 0.19 0.32l-0.26-0.03 0.47 1.22c0.14 0.35 0.33 0.67 0.54 0.95l-0.95-0.12 0.68 1.22-1.06-0.18 1.32 0.99-0.54-0.04 0.56 1.28c0.25 0.57 0.63 1.08 0.99 1.47l-1.38-0.17 0.77 1.38c0.28 0.51 0.66 0.96 1.02 1.31-0.25-0.03-0.44-0.07-0.44-0.07l-0.79-0.14-0.12 0.65c-0.26-0.02-0.64-0.18-0.85-0.28l-0.35-0.18-0.36 0.16c-0.6 0.27-0.93 0.31-1.08 0.31h-0.05l-0.09-0.57-0.75 0.08c-0.39 0.04-0.73 0.06-1.02 0.06h-0.13l0.45-0.64-1.46-0.07c-0.28-0.01-0.69-0.18-0.89-0.29l-0.35-0.18-0.36 0.16c-0.6 0.27-0.93 0.31-1.08 0.31h-0.05l-0.09-0.57-0.75 0.08c-0.3 0.03-0.57 0.05-0.81 0.06 0.29-0.28 0.65-0.66 1.1-1.2l1.18-1.41-1.82 0.09h-0.03c0.34-0.35 0.72-0.79 1.13-1.33l1.07-1.39-1.48 0.09c0.16-0.17 0.33-0.36 0.53-0.6l1.18-1.41-1.41 0.07c0.27-0.31 0.53-0.64 0.75-0.94l1.16-1.57m5.26 0.25c0.13 0.28 0.25 0.51 0.36 0.72l-0.9 0.24c0.19-0.32 0.37-0.64 0.54-0.96m28.83-9.1c-0.18 0-0.36 0.1-0.45 0.29-0.45 0.95-1.15 2.32-1.87 3.18 0 0-0.68 0.8 0.05 0.8 0.13 0 0.31-0.03 0.55-0.09-0.27 0.37-1.31 1.74-1.96 2.09 0 0-0.65 0.71 0.98 0.71 0.11 0 0.23 0 0.36-0.01-0.49 0.58-1.23 1.41-1.75 1.67 0 0-0.72 0.75 1.09 0.75 0.15 0 0.32-0.01 0.5-0.02-0.3 0.4-0.77 0.98-1.24 1.48-0.01-0.04-0.01-0.09-0.04-0.14 0 0-1.2-0.78-1.82-1.9 0.2 0.03 0.44 0.05 0.67 0.05 0.5 0 0.94-0.11 0.73-0.53 0 0-1.31-0.9-1.79-2.15 0.04 0 0.08 0.01 0.12 0.01 0.16 0 0.33-0.04 0.49-0.14 0 0 0.27-0.19-0.47-0.9 0 0-0.64-0.54-1.66-2.98-0.09-0.21-0.28-0.32-0.46-0.32s-0.36 0.1-0.45 0.29c-0.45 0.95-1.15 2.32-1.87 3.18 0 0-0.68 0.8 0.05 0.8 0.13 0 0.31-0.03 0.55-0.09-0.27 0.37-1.31 1.74-1.96 2.09 0 0-0.65 0.71 0.98 0.71 0.11 0 0.23 0 0.36-0.01-0.46 0.55-1.16 1.32-1.67 1.62-0.17-0.26-0.32-0.53-0.44-0.83 0.05 0.01 0.1 0.01 0.15 0.01 0.21 0 0.43-0.05 0.63-0.18 0 0 0.36-0.25-0.62-1.17 0 0-0.83-0.7-2.15-3.87-0.11-0.27-0.36-0.41-0.6-0.41-0.23 0-0.46 0.12-0.58 0.38-0.58 1.23-1.5 3.01-2.42 4.12 0 0-0.88 1.04 0.07 1.04 0.17 0 0.41-0.03 0.72-0.12-0.22 0.29-0.81 1.08-1.44 1.75-0.38-0.37-0.83-0.9-1.1-1.52 0.18 0.02 0.39 0.04 0.59 0.04 0.45 0 0.83-0.09 0.65-0.45 0 0-0.96-0.62-1.46-1.52 0.16 0.02 0.36 0.04 0.54 0.04 0.4 0 0.75-0.09 0.58-0.43 0 0-1.05-0.72-1.44-1.72 0.03 0 0.06 0.01 0.09 0.01 0.13 0 0.27-0.03 0.39-0.11 0 0 0.22-0.15-0.38-0.72 0 0-0.52-0.43-1.33-2.39-0.07-0.17-0.22-0.25-0.37-0.25-0.14 0-0.28 0.08-0.36 0.23-0.36 0.76-0.92 1.86-1.5 2.54 0 0-0.54 0.64 0.04 0.64 0.11 0 0.25-0.02 0.44-0.07-0.22 0.29-1.05 1.39-1.57 1.67 0 0-0.52 0.57 0.78 0.57 0.09 0 0.19 0 0.29-0.01-0.39 0.47-0.99 1.13-1.4 1.34 0 0-0.58 0.6 0.87 0.6 0.12 0 0.25 0 0.4-0.01-0.43 0.56-1.26 1.58-1.82 1.89 0 0-0.68 0.74 1.01 0.74 0.11 0 0.24 0 0.38-0.01-0.51 0.61-1.28 1.46-1.82 1.74 0 0-0.09 0.1-0.13 0.22-0.25-0.24-0.5-0.55-0.69-0.89 0.16 0.02 0.36 0.04 0.54 0.04 0.4 0 0.75-0.09 0.58-0.43 0 0-1.05-0.72-1.44-1.72 0.03 0 0.06 0.01 0.09 0.01 0.13 0 0.27-0.03 0.39-0.11 0 0 0.22-0.15-0.38-0.72 0 0-0.52-0.43-1.33-2.39-0.07-0.17-0.22-0.25-0.37-0.25-0.14 0-0.28 0.08-0.36 0.23-0.36 0.76-0.92 1.86-1.5 2.54 0 0-0.54 0.64 0.04 0.64 0.11 0 0.25-0.02 0.44-0.07-0.22 0.29-1.05 1.39-1.57 1.67 0 0-0.52 0.57 0.78 0.57 0.09 0 0.19 0 0.29-0.01-0.13 0.16-0.29 0.34-0.46 0.52 0-0.04-0.01-0.08-0.04-0.14 0 0-0.96-0.62-1.46-1.52 0.16 0.02 0.36 0.04 0.54 0.04 0.4 0 0.75-0.09 0.58-0.43 0 0-1.05-0.72-1.44-1.72 0.03 0 0.06 0.01 0.09 0.01 0.13 0 0.27-0.03 0.39-0.11 0 0 0.22-0.15-0.38-0.72 0 0-0.52-0.43-1.33-2.39-0.07-0.17-0.22-0.25-0.37-0.25-0.14 0-0.28 0.08-0.36 0.23-0.36 0.76-0.92 1.86-1.5 2.54 0 0-0.54 0.64 0.04 0.64 0.11 0 0.25-0.02 0.44-0.07-0.22 0.29-1.05 1.39-1.57 1.67 0 0-0.52 0.57 0.78 0.57 0.09 0 0.19 0 0.29-0.01-0.39 0.47-0.99 1.13-1.4 1.34 0 0-0.58 0.6 0.87 0.6 0.12 0 0.25 0 0.4-0.01-0.43 0.56-1.26 1.58-1.82 1.89 0 0-0.68 0.74 1.01 0.74 0.11 0 0.24 0 0.38-0.01-0.51 0.61-1.28 1.46-1.82 1.74 0 0-0.75 0.78 1.13 0.78 0.3 0 0.66-0.02 1.09-0.06 0 0 0.08 0.5 0.82 0.5 0.32 0 0.78-0.1 1.4-0.38 0 0 0.66 0.35 1.23 0.38-0.13 0.19-0.37 0.71 1.18 0.71 0.3 0 0.66-0.02 1.1-0.06 0 0 0.08 0.5 0.82 0.5 0.32 0 0.78-0.1 1.4-0.38 0 0 0.72 0.38 1.29 0.38 0.33 0 0.62-0.13 0.69-0.53 0 0 0.7 0.13 1.32 0.13 0.58 0 1.08-0.12 0.84-0.58 0 0-1.24-0.81-1.89-1.98 0.21 0.03 0.46 0.05 0.7 0.05 0.52 0 0.97-0.11 0.76-0.55 0 0-1.26-0.88-1.8-2.11 0.18 0.02 0.39 0.04 0.59 0.04 0.45 0 0.83-0.09 0.65-0.45 0 0-0.07-0.05-0.18-0.13 0.18 0.03 0.4 0.05 0.69 0.05s0.65-0.02 1.08-0.06c0 0 0.08 0.5 0.82 0.5 0.32 0 0.78-0.1 1.4-0.38 0 0 0.72 0.38 1.29 0.38h0.09c-0.03 0.03-0.9 0.97 1.41 0.97 0.37 0 0.82-0.02 1.37-0.08 0 0 0.1 0.62 1.02 0.62 0.41 0 0.97-0.12 1.75-0.48 0 0 0.74 0.39 1.41 0.46-0.15 0.19-0.59 0.92 1.45 0.92 0.37 0 0.82-0.02 1.37-0.08 0 0 0.1 0.62 1.02 0.62 0.41 0 0.97-0.12 1.75-0.48 0 0 0.9 0.48 1.62 0.48 0.42 0 0.77-0.16 0.87-0.66 0 0 0.88 0.17 1.65 0.17 0.72 0 1.35-0.15 1.05-0.72 0 0-0.68-0.45-1.37-1.17h0.03c0.37 0 0.81-0.02 1.35-0.08 0 0 0.1 0.62 1.02 0.62 0.41 0 0.97-0.12 1.75-0.48 0 0 0.9 0.48 1.62 0.48 0.42 0 0.77-0.16 0.87-0.66 0 0 0.88 0.17 1.65 0.17 0.72 0 1.35-0.15 1.05-0.72 0 0-0.55-0.37-1.17-0.96 0.13 0.01 0.28 0.02 0.44 0.02 0.31 0 0.69-0.02 1.15-0.07 0 0 0.09 0.54 0.87 0.54 0.35 0 0.83-0.11 1.51-0.41 0 0 0.77 0.41 1.39 0.41 0.36 0 0.66-0.14 0.74-0.57 0 0 0.75 0.14 1.41 0.14 0.62 0 1.16-0.13 0.9-0.62 0 0-1.33-0.87-2.02-2.12 0.22 0.03 0.49 0.05 0.75 0.05 0.56 0 1.04-0.12 0.81-0.59 0 0-1.46-1-2-2.4 0.04 0 0.09 0.01 0.13 0.01 0.18 0 0.37-0.04 0.54-0.16 0 0 0.31-0.21-0.53-1 0 0-0.72-0.6-1.84-3.32-0.1-0.23-0.31-0.35-0.52-0.35-0.2 0-0.4 0.11-0.5 0.32-0.5 1.06-1.28 2.58-2.08 3.53 0 0-0.76 0.89 0.06 0.89 0.15 0 0.35-0.03 0.62-0.1-0.3 0.41-1.46 1.93-2.18 2.32 0 0-0.16 0.17-0.14 0.36-0.42-0.44-0.87-1.01-1.15-1.66 0.22 0.03 0.49 0.05 0.74 0.05 0.56 0 1.04-0.11 0.81-0.56 0 0-1.2-0.78-1.82-1.9 0.2 0.03 0.44 0.05 0.67 0.05 0.5 0 0.94-0.11 0.73-0.53 0 0-1.31-0.9-1.79-2.15 0.04 0 0.08 0.01 0.12 0.01 0.16 0 0.33-0.04 0.49-0.14 0 0 0.27-0.19-0.47-0.9 0 0-0.64-0.54-1.66-2.98 0.07-0.23-0.12-0.34-0.31-0.34zm-31.38 14.11c-0.25 0.24-0.49 0.46-0.7 0.56l-0.02 0.02c-0.12-0.18-0.23-0.37-0.32-0.57 0.17 0.02 0.38 0.04 0.57 0.04 0.18 0 0.34-0.02 0.47-0.05zm26.52 0.42c-0.01-0.02-0.02-0.03-0.03-0.05 0.02 0 0.05 0.01 0.08 0.01-0.02 0.02-0.03 0.03-0.05 0.04zm-14.83 0.28c0.01-0.04 0.03-0.08 0.04-0.13 0 0 0.04 0.01 0.09 0.02-0.05 0.03-0.09 0.07-0.13 0.11zm-11.5 0.93c-0.15-0.14-0.32-0.31-0.49-0.5 0.13 0.02 0.28 0.03 0.48 0.03 0.12 0 0.25 0 0.39-0.01-0.1 0.14-0.23 0.3-0.38 0.48z"/><path d="m36.98 60.39c0.08 0.17 0.16 0.32 0.23 0.46l-0.57 0.15c0.12-0.2 0.23-0.41 0.34-0.61m0.3 0.95 0.43 1.12c0.11 0.28 0.25 0.53 0.41 0.76l-0.84-0.11 0.77 1.38c0.09 0.17 0.2 0.32 0.31 0.47l-0.44-0.08-0.08 0.46c-0.11-0.03-0.22-0.08-0.3-0.12l-0.35-0.18-0.36 0.16c-0.23 0.1-0.39 0.15-0.5 0.18l-0.07-0.4-0.7 0.07c0.11-0.12 0.23-0.26 0.36-0.41l1.18-1.41-1.28 0.07c0.21-0.25 0.41-0.51 0.58-0.74l0.88-1.22m-0.28-2.34c-0.13 0-0.26 0.07-0.33 0.21-0.33 0.7-0.84 1.7-1.37 2.33 0 0-0.5 0.59 0.04 0.59 0.1 0 0.23-0.02 0.41-0.07-0.2 0.27-0.96 1.27-1.43 1.53 0 0-0.48 0.52 0.72 0.52 0.08 0 0.17 0 0.27-0.01-0.36 0.43-0.9 1.03-1.28 1.23 0 0-0.53 0.55 0.79 0.55 0.21 0 0.46-0.01 0.77-0.04 0 0 0.06 0.35 0.58 0.35 0.23 0 0.55-0.07 0.99-0.27 0 0 0.51 0.27 0.91 0.27 0.24 0 0.44-0.09 0.49-0.37 0 0 0.5 0.09 0.93 0.09 0.41 0 0.76-0.08 0.59-0.41 0 0-0.88-0.57-1.33-1.39 0.15 0.02 0.32 0.04 0.49 0.04 0.37 0 0.69-0.08 0.53-0.39 0 0-0.96-0.66-1.31-1.58h0.09c0.12 0 0.24-0.03 0.36-0.1 0 0 0.2-0.14-0.35-0.66 0 0-0.47-0.4-1.21-2.19-0.08-0.15-0.21-0.23-0.35-0.23z"/></g><linearGradient id="m" x1="115" x2="115" y1="58.25" y2="63.375" gradientUnits="userSpaceOnUse"><stop stop-color="#43A047" offset=".0056"/><stop stop-color="#3E9842" offset=".3488"/><stop stop-color="#328336" offset=".8698"/><stop stop-color="#2E7D32" offset="1"/></linearGradient><path d="m122.52 63.8s-1.36-0.89-2.07-2.17c0.74 0.09 1.94 0.15 1.6-0.55 0 0-1.5-1.03-2.04-2.46 0.23 0.02 0.47-0.01 0.69-0.15 0 0 0.31-0.22-0.54-1.03 0 0-0.73-0.62-1.89-3.4-0.19-0.47-0.82-0.49-1.04-0.03-0.51 1.09-1.31 2.65-2.13 3.62 0 0-1.08 1.28 0.69 0.81-0.17 0.23-0.61 0.8-1.08 1.34l-0.05-0.05s-0.73-0.62-1.89-3.4c-0.19-0.47-0.82-0.49-1.04-0.03-0.51 1.09-1.31 2.65-2.13 3.62 0 0-1.08 1.28 0.69 0.81-0.31 0.42-1.49 1.98-2.23 2.38 0 0-0.85 0.93 1.53 0.8-0.56 0.66-1.41 1.6-2 1.91 0 0-1.11 1.14 2.44 0.78 0 0 0.19 1.14 2.44 0.13 0 0 1.96 1.04 2.18-0.16 0 0 2.91 0.55 2.37-0.49 0 0-1.07-0.7-1.8-1.74 0.1-0.01 0.2-0.01 0.31-0.03 0 0 0.19 1.14 2.44 0.13 0 0 1.96 1.04 2.18-0.16-0.01 0.01 2.91 0.57 2.37-0.48zm-7.65-2.16c0.07 0 0.13 0 0.21-0.01-0.04 0.05-0.08 0.09-0.12 0.14-0.03-0.04-0.06-0.09-0.09-0.13z" fill="url(#m)"/><g opacity=".2"><path d="m117.72 54.83c0.74 1.7 1.31 2.54 1.62 2.93l-0.56-0.06 0.47 1.22c0.3 0.77 0.82 1.44 1.3 1.93l-1.57-0.2 0.77 1.38c0.35 0.63 0.83 1.17 1.27 1.59-0.39-0.04-0.71-0.1-0.72-0.1l-0.8-0.13-0.13 0.7c-0.32-0.01-0.84-0.22-1.03-0.33l-0.35-0.18-0.36 0.16c-0.64 0.29-1.01 0.35-1.21 0.35-0.06 0-0.1-0.01-0.13-0.01l-0.1-0.61-0.75 0.08-0.19 0.02-0.1 0.01-1.39 0.11 0.81 1.14c0.3 0.42 0.64 0.79 0.95 1.09-0.39-0.04-0.71-0.1-0.72-0.1l-0.8-0.13-0.13 0.7c-0.32-0.01-0.84-0.22-1.03-0.33l-0.35-0.18-0.36 0.16c-0.64 0.29-1.01 0.35-1.21 0.35-0.06 0-0.1-0.01-0.13-0.01l-0.1-0.61-0.75 0.08c-0.42 0.04-0.79 0.06-1.1 0.07 0.4-0.36 0.85-0.85 1.36-1.45l1.18-1.41-1.84 0.1c-0.08 0-0.16 0.01-0.23 0.01 0.61-0.6 1.23-1.39 1.62-1.92l1.35-1.83-1.59 0.42c0.58-0.83 1.12-1.83 1.54-2.69 0.99 2.26 1.67 3.01 1.87 3.2l0.04 0.04 0.5 0.48-1.17 0.06 0.76 1.19c0.03 0.04 0.05 0.09 0.08 0.13l0.59 0.86 0.68-0.79 0.04-0.04 0.09-0.1 1.18-1.41-1.84 0.1h-0.11-0.07-0.01l0.46-0.51c0.53-0.6 1-1.22 1.13-1.4l1.35-1.83-1.59 0.42c0.55-0.86 1.09-1.86 1.51-2.72m0.01-1.14c-0.2 0-0.41 0.11-0.51 0.33-0.51 1.09-1.31 2.65-2.13 3.62 0 0-0.77 0.92 0.06 0.92 0.15 0 0.36-0.03 0.63-0.1-0.17 0.23-0.61 0.8-1.08 1.34l-0.05-0.05s-0.73-0.62-1.89-3.4c-0.1-0.24-0.31-0.36-0.53-0.36-0.2 0-0.41 0.11-0.51 0.33-0.51 1.09-1.31 2.65-2.13 3.62 0 0-0.77 0.92 0.06 0.92 0.15 0 0.36-0.03 0.63-0.1-0.31 0.42-1.49 1.98-2.23 2.38 0 0-0.74 0.81 1.11 0.81 0.13 0 0.26 0 0.42-0.01-0.56 0.66-1.41 1.6-2 1.91 0 0-0.83 0.85 1.24 0.85 0.32 0 0.72-0.02 1.2-0.07 0 0 0.09 0.55 0.9 0.55 0.36 0 0.85-0.11 1.54-0.42 0 0 0.79 0.42 1.42 0.42 0.37 0 0.68-0.14 0.76-0.58 0 0 0.77 0.15 1.45 0.15 0.64 0 1.19-0.13 0.93-0.64 0 0-1.07-0.7-1.8-1.74 0.1-0.01 0.2-0.01 0.31-0.03 0 0 0.09 0.55 0.9 0.55 0.36 0 0.85-0.11 1.54-0.42 0 0 0.79 0.42 1.42 0.42 0.37 0 0.68-0.14 0.76-0.58 0 0 0.77 0.15 1.45 0.15 0.64 0 1.19-0.13 0.93-0.64 0 0-1.36-0.89-2.07-2.17 0.23 0.03 0.51 0.05 0.76 0.05 0.57 0 1.07-0.12 0.83-0.61 0 0-1.5-1.03-2.04-2.46 0.04 0 0.09 0.01 0.13 0.01 0.19 0 0.38-0.04 0.56-0.16 0 0 0.31-0.22-0.54-1.03 0 0-0.73-0.62-1.89-3.4-0.11-0.24-0.33-0.36-0.54-0.36zm-2.77 8.08c-0.03-0.04-0.06-0.09-0.09-0.14 0.07 0 0.13 0 0.21-0.01-0.04 0.06-0.08 0.11-0.12 0.15z" fill="#424242"/></g><radialGradient id="l" cx="63" cy="65" r="78.387" gradientUnits="userSpaceOnUse"><stop stop-color="#8BC34A" offset="0"/><stop stop-color="#84BC47" offset=".2466"/><stop stop-color="#72AA3D" offset=".5981"/><stop stop-color="#689F38" offset=".7526"/><stop stop-color="#689F38" offset="1"/></radialGradient><rect x="4" y="64" width="120" height="60" fill="url(#l)"/><g opacity=".2"><path d="m121 67v54h-114v-54h114m3-3h-120v60h120v-60z" fill="#424242"/></g><path d="m99.91 108h-2.3c-1.27 0-2.3-1.03-2.3-2.3v-11.51h6.9v11.51c0 1.27-1.03 2.3-2.3 2.3z" fill="#795548"/><g opacity=".2"><path d="m101.06 95.34v10.36c0 0.63-0.52 1.15-1.15 1.15h-2.3c-0.63 0-1.15-0.52-1.15-1.15v-10.36h4.6m1.15-1.15h-6.9v11.51c0 1.27 1.03 2.3 2.3 2.3h2.3c1.27 0 2.3-1.03 2.3-2.3v-11.51z" fill="#424242"/></g><radialGradient id="k" cx="98.625" cy="49.375" r="44.877" gradientUnits="userSpaceOnUse"><stop stop-color="#43A047" offset=".0056"/><stop stop-color="#3E9842" offset=".2723"/><stop stop-color="#328336" offset=".6771"/><stop stop-color="#2E7D32" offset=".7782"/><stop stop-color="#2E7D32" offset="1"/></radialGradient><path d="m120.32 93.94s-6.18-4.02-9.39-9.81c3.34 0.42 8.77 0.67 7.23-2.5 0 0-6.77-4.66-9.25-11.11 1.03 0.11 2.12-0.04 3.13-0.69 0 0 1.42-0.98-2.45-4.64 0 0-3.32-2.8-8.55-15.39-0.88-2.11-3.72-2.2-4.69-0.14-2.31 4.91-5.95 11.97-9.65 16.39 0 0-4.9 5.79 3.14 3.68-1.39 1.88-6.75 8.95-10.09 10.77 0 0-3.83 4.19 6.92 3.62-2.52 3.01-6.36 7.25-9.04 8.63 0 0-5.01 5.17 11.03 3.55 0 0 0.86 5.17 11.03 0.59 0 0 8.88 4.73 9.88-0.74 0.01 0.01 13.19 2.52 10.75-2.21z" fill="url(#k)"/><g opacity=".2"><path d="m98.66 50.17c0.14 0 0.4 0.05 0.54 0.4 5.05 12.17 8.45 15.57 9.05 16.1 0.88 0.83 1.38 1.44 1.67 1.86-0.13 0.02-0.26 0.02-0.4 0.02-0.13 0-0.27-0.01-0.4-0.02l-3.25-0.34 1.17 3.05c2.01 5.22 6.47 9.28 8.69 11.06-0.33 0.04-0.77 0.07-1.34 0.07-0.92 0-2-0.08-3.21-0.23l-3.91-0.5 1.91 3.45c2.53 4.56 6.67 8.04 8.76 9.61-0.42 0.07-1 0.12-1.81 0.12-2.83 0-6.15-0.62-6.18-0.63l-1.98-0.38-0.36 1.98c-0.09 0.51-0.18 1-1.48 1-1.93 0-4.62-1.2-5.49-1.66l-0.87-0.46-0.89 0.4c-3.15 1.42-5.09 1.72-6.16 1.72-1.62 0-2-0.64-2.08-0.85l-0.11-1.83-2.07 0.21c-2 0.2-3.76 0.31-5.23 0.31-2.3 0-3.47-0.25-4.03-0.45 2.29-1.4 5.31-4.35 9.01-8.76l2.95-3.52-4.59 0.24c-0.63 0.03-1.23 0.05-1.77 0.05-1.84 0-2.84-0.19-3.37-0.35 2.71-1.82 6.07-5.78 8.34-8.69 1.09-1.39 1.97-2.93 2.62-4.58 0.22-0.55-0.24-1.13-0.82-1.05l-2.22 0.29c-0.73 0.19-1.27 0.29-1.68 0.35 0.17-0.28 0.38-0.57 0.58-0.81 3.8-4.54 7.49-11.65 9.92-16.82 0.11-0.25 0.27-0.36 0.49-0.36m0-2c-0.92 0-1.83 0.49-2.3 1.5-2.31 4.91-5.95 11.97-9.65 16.39 0 0-3.5 4.14 0.28 4.14 0.69 0 1.62-0.14 2.86-0.46-1.39 1.88-6.75 8.95-10.09 10.77 0 0-3.36 3.67 5.04 3.67 0.57 0 1.2-0.02 1.88-0.05-2.52 3.01-6.36 7.25-9.04 8.63 0 0-3.74 3.86 5.59 3.86 1.47 0 3.26-0.1 5.44-0.32 0 0 0.41 2.48 4.05 2.48 1.61 0 3.86-0.49 6.98-1.89 0 0 3.57 1.9 6.43 1.9 1.66 0 3.08-0.63 3.45-2.64 0 0 3.5 0.67 6.55 0.67 2.88 0 5.37-0.59 4.19-2.88 0 0-6.18-4.02-9.39-9.81 1.04 0.13 2.29 0.25 3.46 0.25 2.59 0 4.83-0.56 3.76-2.74 0 0-6.77-4.66-9.25-11.11 0.2 0.02 0.4 0.03 0.61 0.03 0.85 0 1.71-0.2 2.52-0.72 0 0 1.42-0.98-2.45-4.64 0 0-3.32-2.8-8.55-15.39-0.43-1.09-1.4-1.64-2.37-1.64z" fill="#424242"/></g><radialGradient id="j" cx="34.667" cy="58.667" r="65.769" gradientUnits="userSpaceOnUse"><stop stop-color="#039BE5" offset="0"/><stop stop-color="#039BE5" offset=".401"/><stop stop-color="#0A87D8" offset=".6491"/><stop stop-color="#1565C0" offset="1"/></radialGradient><path d="m58.38 100.88c14.28-8.39 23.62-16.5-9.25-25-25.68-6.64-26.6-11.88-26.6-11.88h-9.94c-0.59 6.88 11.6 11.73 23.15 16.44 11.51 4.68 21.26 8.56-3.23 17.18-17.86 6.3-26.11 15.5-24.24 26.38h68c-25-5.17-30.02-16-17.89-23.12z" fill="url(#j)"/><g opacity=".2"><path d="m21.36 66c1.92 2.55 8.1 6.85 27.27 11.81 17.47 4.52 20.52 8.37 20.79 10.27 0.52 3.69-8.29 8.86-12.05 11.07-7.19 4.22-7.59 8.92-7.19 11.34 0.48 2.88 2.86 7.53 12.31 11.51h-52.44c-0.76-11.53 12-18.57 23.13-22.49 11.67-4.11 16.46-7.34 16.55-11.15 0.1-4.34-5.71-6.71-13.06-9.7l-0.18-0.07-0.51-0.21c-8.6-3.51-19.08-7.77-21.07-12.38h6.45m1.17-2h-9.94c-0.59 6.88 11.6 11.73 23.15 16.44 11.51 4.68 21.26 8.56-3.23 17.18-17.86 6.3-26.11 15.5-24.24 26.38h68c-25-5.17-30.02-16-17.9-23.12 14.28-8.39 23.62-16.5-9.25-25-25.67-6.64-26.59-11.88-26.59-11.88z" fill="#424242"/></g><path d="m19.64 80.8h-1.17c-0.65 0-1.17-0.52-1.17-1.17v-5.84h3.5v5.84c0.01 0.65-0.51 1.17-1.16 1.17z" fill="#795548"/><g opacity=".2"><path d="m20.23 74.38v5.26c0 0.32-0.26 0.58-0.58 0.58h-1.17c-0.32 0-0.58-0.26-0.58-0.58v-5.26h2.33m0.58-0.59h-3.5v5.84c0 0.65 0.52 1.17 1.17 1.17h1.17c0.65 0 1.17-0.52 1.17-1.17v-5.84h-0.01z" fill="#424242"/></g><radialGradient id="i" cx="19" cy="51.25" r="26.808" gradientUnits="userSpaceOnUse"><stop stop-color="#43A047" offset=".0056"/><stop stop-color="#3E9842" offset=".2723"/><stop stop-color="#328336" offset=".6771"/><stop stop-color="#2E7D32" offset=".7782"/><stop stop-color="#2E7D32" offset="1"/></radialGradient><path d="m30 73.66s-3.13-2.04-4.76-4.98c1.7 0.22 4.45 0.34 3.67-1.27 0 0-3.44-2.36-4.69-5.64 0.52 0.06 1.08-0.02 1.59-0.35 0 0 0.72-0.5-1.24-2.35 0 0-1.68-1.42-4.34-7.81-0.44-1.07-1.89-1.12-2.38-0.07-1.17 2.49-3.02 6.08-4.9 8.32 0 0-2.48 2.94 1.59 1.87-0.71 0.96-3.43 4.54-5.12 5.47 0 0-1.94 2.13 3.51 1.84-1.28 1.53-3.23 3.68-4.59 4.38 0 0-2.54 2.62 5.6 1.8 0 0 0.44 2.62 5.6 0.3 0 0 4.51 2.4 5.02-0.37-0.01-0.01 6.68 1.26 5.44-1.14z" fill="url(#i)"/><g opacity=".2"><path d="m19.01 51.56c0.11 0 0.15 0.1 0.17 0.13 2.56 6.17 4.3 7.93 4.62 8.21 0.33 0.32 0.56 0.57 0.71 0.76-0.06 0-0.11 0-0.17-0.01l-1.84-0.19 0.66 1.72c0.97 2.51 3.04 4.5 4.23 5.48-0.11 0.01-0.24 0.01-0.39 0.01-0.46 0-1-0.04-1.61-0.12l-2.21-0.28 1.08 1.95c1.21 2.18 3.13 3.87 4.25 4.74-0.18 0.03-0.38 0.04-0.63 0.04-1.42 0-3.1-0.32-3.12-0.32l-1.12-0.21-0.21 1.12c-0.04 0.24-0.07 0.41-0.63 0.41-0.95 0-2.3-0.6-2.73-0.83l-0.49-0.26-0.51 0.23c-1.58 0.71-2.55 0.86-3.08 0.86-0.58 0-0.87-0.17-0.94-0.34l-0.04-1.03-1.19 0.12c-1.01 0.1-1.9 0.15-2.65 0.15-0.9 0-1.45-0.08-1.77-0.15 1.14-0.76 2.62-2.22 4.39-4.33l1.67-1.99-2.59 0.14c-0.33 0.02-0.62 0.03-0.89 0.03-0.7 0-1.15-0.05-1.44-0.11 1.77-1.29 3.98-4.15 4.91-5.42l1.91-2.58-3.1 0.82c-0.23 0.06-0.42 0.1-0.58 0.13 0.05-0.06 0.09-0.13 0.14-0.18 1.94-2.31 3.82-5.93 5.05-8.56 0.03-0.1 0.07-0.14 0.14-0.14m0-1.13c-0.47 0-0.93 0.25-1.17 0.76-1.17 2.49-3.02 6.08-4.9 8.32 0 0-1.78 2.1 0.14 2.1 0.35 0 0.82-0.07 1.45-0.24-0.71 0.96-3.43 4.54-5.12 5.47 0 0-1.7 1.86 2.56 1.86 0.29 0 0.61-0.01 0.95-0.03-1.28 1.53-3.23 3.68-4.59 4.38 0 0-1.9 1.96 2.84 1.96 0.74 0 1.65-0.05 2.76-0.16 0 0 0.21 1.26 2.06 1.26 0.82 0 1.96-0.25 3.54-0.96 0 0 1.81 0.96 3.27 0.96 0.84 0 1.56-0.32 1.75-1.34 0 0 1.77 0.34 3.33 0.34 1.46 0 2.72-0.3 2.13-1.46 0 0-3.13-2.04-4.76-4.98 0.53 0.07 1.16 0.13 1.76 0.13 1.31 0 2.45-0.29 1.91-1.39 0 0-3.44-2.36-4.69-5.64 0.1 0.01 0.2 0.02 0.31 0.02 0.43 0 0.87-0.1 1.28-0.37 0 0 0.72-0.5-1.24-2.35 0 0-1.68-1.42-4.34-7.81-0.25-0.55-0.74-0.83-1.23-0.83z" fill="#424242"/></g></svg>
