<svg width="128" height="128" style="enable-background:new 0 0 128 128;" xmlns="http://www.w3.org/2000/svg" xmlns:xlink="http://www.w3.org/1999/xlink">
  <g>
    <g>
      <g>
        <defs>
          <path id="SVGID_1_" d="M116.02,117.9c-0.09-0.87-0.44-1.83-1.04-2.93c-1.06-1.97-2.29-3.86-3.68-5.62 c-8.16-10.36-22.5-14.6-35.18-12.03c-4.17,0.85-8.1,2.38-12.16,3.61c-5.28,1.6-10.27,3.11-15.23,3.77 c-8.5,1.14-15.5,0.02-19.46-3.8c-8.79-8.48,0.75-20.09,11.76-21.86c9.05-1.45,12.57-0.73,22.11,1.13 c5.47,1.06,12.28,2.39,21.23,3.34c29.23,3.12,40.39-7.06,43.15-28.4c1.06-8.27-0.79-15.31-5.35-20.37 c-4.99-5.52-12.68-8.19-22.87-7.93c-1.13,0.03-23.18,0.24-23.18,0.24v11.89c0,0,22.43-0.67,23.48-0.7 c4.6-0.12,10.78,0.51,14.08,4.16c2.85,3.16,2.93,7.86,2.5,11.24c-2.54,20.03-17.31,19.89-30.58,18.48 c-8.46-0.9-14.72-2.12-20.26-3.19c-10.3-2-17.75-3.45-29.08-0.71C21.84,71.71,12,83.84,13.37,96.44 c0.59,5.4,3.3,10.13,7.83,13.67c6.91,5.41,17.23,7.52,29.07,5.93c5.87-0.79,11.53-2.5,17.01-4.17 c4.62-1.4,9.25-3.57,14.13-3.83c5.43-0.29,10.98,0.83,15.47,3.69c4.38,2.79,7.53,7.68,9.35,10.74 c1.15,1.93,5.3,1.44,7.28,0.01C116.01,120.68,116.1,118.66,116.02,117.9z"/>
        </defs>
        <use style="overflow:visible;fill:#F79329;" xlink:href="#SVGID_1_"/>
        <clipPath id="SVGID_2_">
          <use style="overflow:visible;" xlink:href="#SVGID_1_"/>
        </clipPath>
        <path d="M43.24,4.26c0,0,1.86,4.33,0.98,7.81c-0.54,2.14-0.66,4.35-0.8,6.55 c-0.59,9.23-0.81,18.69-0.5,27.93c0.14,4.23-1.59,10.76-1.59,10.76l1.91,4.01c0,0,11.78-0.13,13.76-0.27 c11.51-0.82,19.34-3.78,23.82-15.41c0.14-0.19,0.3-0.37,0.55-0.52c2.35-1.49,6.96-0.03,9.18-1.9c2.5-2.1,2.39-7.04,2.52-8.78 c0.22-2.99-0.13-6.33-1.44-9.14c-0.52-1.12-1.42-2.53-2.65-2.91c-1.88-0.59-3.15-0.26-5.08-0.61 c-0.68-0.12-1.34-0.34-1.84-0.87c-0.42-0.44-1.9-3.13-2.33-4.1c-1.3-2.89-3.49-6.59-9.4-8.92C62.27,4.72,43.24,4.26,43.24,4.26 z" style="clip-path:url(#SVGID_2_);fill:#ED6C30;"/>
      </g>
      <path d="M36.57,4.26c0,0,1.86,4.33,0.98,7.81c-0.54,2.14-0.67,4.35-0.8,6.55 c-0.59,9.23-0.81,18.69-0.5,27.93c0.14,4.23-1.59,10.76-1.59,10.76l1.91,4.01c0,0,11.79-0.13,13.75-0.27 c11.51-0.82,19.35-3.78,23.83-15.41c0.14-0.19,0.31-0.37,0.55-0.52c2.35-1.49,6.96-0.03,9.18-1.9c2.5-2.1,2.39-7.04,2.52-8.78 c0.23-2.99-0.13-6.33-1.44-9.14c-0.52-1.12-1.42-2.53-2.64-2.91c-1.88-0.59-3.16-0.26-5.08-0.61c-0.69-0.12-1.35-0.34-1.85-0.87 c-0.42-0.44-1.9-3.13-2.33-4.1c-1.29-2.89-3.49-6.59-9.4-8.92C55.6,4.72,36.57,4.26,36.57,4.26z" style="fill:#FCC21B;"/>
    </g>
    <path d="M36.57,4.26H24.93c-4,0-7.25,3.25-7.25,7.25v42.56c0,4,3.25,7.25,7.25,7.25h11.64 c4,0,7.25-3.25,7.25-7.25V11.51C43.82,7.51,40.57,4.26,36.57,4.26z" style="fill:#FCC21B;"/>
    <path d="M39.82,54.07c0,1.78-1.46,3.24-3.25,3.24H24.93c-1.78,0-3.24-1.46-3.24-3.24V11.51 c0-1.78,1.46-3.24,3.24-3.24h11.64c1.78,0,3.25,1.46,3.25,3.24V54.07z" style="fill:#FFFFFF;"/>
    <g>
      <g>
        <defs>
          <path id="SVGID_3_" d="M2.12,17.3c-1.07,0-1.94,0.88-1.94,1.95v2.69c0,1.07,0.88,1.94,1.94,1.94h33.9V17.3H2.12z"/>
        </defs>
        <use style="overflow:visible;fill:#78A3AD;" xlink:href="#SVGID_3_"/>
        <clipPath id="SVGID_4_">
          <use style="overflow:visible;" xlink:href="#SVGID_3_"/>
        </clipPath>
      </g>
      <g>
        <defs>
          <path id="SVGID_5_" d="M2.12,41c-1.07,0-1.94,0.88-1.94,1.95v2.69c0,1.07,0.88,1.94,1.94,1.94h33.9V41H2.12z"/>
        </defs>
        <use style="overflow:visible;fill:#78A3AD;" xlink:href="#SVGID_5_"/>
        <clipPath id="SVGID_6_">
          <use style="overflow:visible;" xlink:href="#SVGID_5_"/>
        </clipPath>
      </g>
    </g>
  </g>
</svg>