<svg xmlns="http://www.w3.org/2000/svg" viewBox="0 0 128 128"><path d="M2.5 112.52c0 6.88 5.58 12.45 12.45 12.45h97.64c6.88 0 12.45-5.58 12.45-12.45V75.58c0-6.63-5.37-12-12-12H14.5c-6.63 0-12 5.37-12 12v36.94z" fill="#bccf38"/><path d="M97.4 74.42c-.55-2.9-.61-5.85-.9-8.78-.04-.38-.09-.77-.1-1.16-.02-.81-.43-1.36-1.19-1.65-.4-.16-.9-.13-1.32-.2-.45-.08-.88-.1-1.33-.09-.04 0-.08 0-.12.01-.03-.01-.07-.01-.11-.01-.46-.01-.89.02-1.34.09-.42.07-.92.05-1.32.2-.76.3-1.17.84-1.19 1.65-.01.39-.06.77-.09 1.16-.3 2.93-.35 5.88-.9 8.78-.46 2.37-3.29 6.2.52 7.07 2.83.64 6.04.64 8.87 0 3.81-.87.98-4.7.52-7.07" fill="#855c52"/><path d="M123.17 57.51c-4.3-1.21-7.68-2.82-10.08-4.19-.17-.15-.41-.27-.33-.52.05-.16.26-.22.41-.25 1.44-.19 2.67-.4 3.57-.62 5.03-1.2 5.06-4.41 5.06-4.41s.74-3.84-3.77-5.1c-3.97-1.12-7.17-2.57-9.53-3.88-.16-.1-.32-.22-.25-.41.04-.1.12-.16.21-.18.74-.09 1.41-.18 1.97-.28 4.36-.8 4.53-3.56 4.53-3.56s.73-3.06-3-4.53c-3.47-1.37-6.95-3.41-9.24-4.87-.12-.13-.28-.29-.2-.46.07-.16.26-.17.42-.19h.02l.67.08s3.86.74 5.05-2.57c1.19-3.31-2.48-5.05-2.48-5.05C98.97 13.1 94.19 3.46 94.19 3.46c-1.01-1.93-1.75-1.56-1.75-1.56s-.73-.37-1.74 1.56c0 0-4.78 9.65-12.04 13.05 0 0-3.67 1.74-2.48 5.05 1.2 3.31 5.06 2.57 5.06 2.57l.67-.08h.01c.15.02.35.03.42.19.08.17-.08.33-.2.46-2.29 1.46-5.77 3.5-9.24 4.87-3.74 1.47-3 4.53-3 4.53s.18 2.75 4.53 3.56c.56.1 1.24.19 1.98.28.09.03.18.08.21.18.07.19-.08.31-.24.41a45.04 45.04 0 0 1-9.53 3.88c-4.51 1.26-3.77 5.1-3.77 5.1s.04 3.21 5.06 4.41c.9.22 2.13.42 3.57.62.15.03.36.1.41.25.08.24-.16.37-.33.52-2.39 1.38-5.78 2.99-10.08 4.19-4.51 1.26-3.77 5.1-3.77 5.1s.08 3.06 5.07 4.42c2.06.56 4.95.57 8.16.27.45.02.93-.03 1.33.21.49.3.51.93.65 1.42.13.47.31.93.54 1.36 2.13 3.81 7.35 2.41 11.12-.13.37-.21.8-.37 1.24-.44.6-.1 1.21-.03 1.74.26.04.02.1.06.14.09.41.35.84.67 1.32.95.85.49 1.92.74 2.87.96 1.76.42 4.01.1 5.66-.93.07-.04.14-.09.18-.11.04-.02.08-.06.12-.09.05-.04.1-.07.15-.1.17-.13.33-.26.51-.37.35-.22.76-.37 1.17-.4.19-.01.37 0 .55.03.28.06.56.17.81.31.05.03.13.08.2.11 3.74 2.4 8.71 3.62 10.78-.09.24-.43.41-.89.54-1.35.14-.49.17-1.12.65-1.42.32-.2.71-.2 1.08-.2 2.89.23 5.47.17 7.36-.34 4.99-1.36 5.07-4.42 5.07-4.42s.73-3.83-3.78-5.09" fill="#757f3f"/><path d="M84.71 20.33c.71.27 1.17.82 2.18.42.65-.26 1.24-1.23 1.33-1.9.14-1.04-.57-.79-1.25-1.12-.2-.53.39-1.36.09-1.95-.43-.84-1.76.05-2.15.5-.62.71-1.15 1.23-2.01 1.69-.58.31-3.04 1.6-1.84 2.49.25.18.5.21.81.21.79-.01 1.58-.54 2.34-.46.18.01.35.06.5.12M77.47 31.31c-.9.32-2.8 1.5-1.6 2.59.84.77 2.63.33 3.61.08.41-.1.95-.39 1.38-.37.46.02.47.36.62.74.31.77.88.92 1.67.92.48 0 .86.02 1.29-.18 1.03-.49.96-.24 1.91.1 1.11.4 2.05-.15 2.7-1.04.21-.29.38-.73.36-1.08-.03-.67-.5-1.02-1.2-.92-.7.1-1.19.25-1.56-.46-.5-.94-1.92.23-2.27-.44-.16-.3.18-.93.12-1.29-.07-.44-.33-.77-.79-.84-.72-.12-1.32.07-1.9.39-1.09.59-2.03 1.07-3.22 1.44-.3.1-.7.21-1.12.36M79.02 41.91c-.6-.08-1.31.17-1.81.41-2.06 1-4.09 2.06-6.16 3.04-.73.34-1.89.69-1.86 1.71.06 1.85 3.26 1.06 4.33.94.94-.11 2.49-.48 3.27.28.45.44.66.7 1.32.77 1.11.12 2.55-1 3.55-.46.41.22.64.52 1.11.68 1.12.39 2.48-.07 3.4-.76.78-.58 1.34-2.27.27-2.84-.7-.38-1.25.31-1.9.19-.97-.18-.74-.91-1.43-1.45-.83-.65-2.13.44-2.73-.2-.51-.53-.17-1.42-.62-1.92-.21-.24-.46-.35-.74-.39M76.88 56.51c-1.71-.33-3.44.96-4.91 1.61-1.62.72-3.42.83-5.02 1.6-1.06.51-.96 2.13.08 2.59.95.42 2.17.31 3.17.25 1.49-.08 2.9-.73 4.39-.86 2.03-.18 2.13.37 2.48 2.11.25 1.27 1.6 1.96 2.82 1.69.64-.14 1.2-.69 1.79-.95.75-.33.72-.24 1.44 0 .52.18 1.19.16 1.7-.03.85-.32 1.25-.99 1.27-1.84.03-1.33.01-3.08-1.83-2.57-2.01.56-1.36-.53-2.82-1.08-1.04-.39-2 .61-2.96-.24-.74-.67-.3-1.99-1.6-2.28" fill="#99a95a"/><path d="M4.18 93.53s-2.66 2.65-.35 5.22c1.05 1.17 3.46 2.55 7.17 4.08 14.99 6.19 32.03 14 35.17 13.5 3.14-.5 45.14-15.83 47.57-17.33 2.43-1.5 3.1-5.2-.34-6.92-5.17-2.58-49.56 12.42-49.56 12.42S5.34 91.25 4.18 93.53z" fill="#a3a30d"/><path d="M5.71 97.83c-1.49-.6-2.23-2.27-1.71-3.78 16.28-47.2 42.8-44.04 42.8-44.04 30.29.7 43.48 33.89 46.79 43.92.51 1.56-.33 3.24-1.89 3.77l-45.9 15.53c-.68.23-1.42.21-2.08-.06L5.71 97.83z" fill="#fcc21b"/><path d="M46.84 49.78s-5.01 2.73-5.76 24.48c-.57 16.49 4.72 38.95 4.72 38.95l46.13-15.59c1.47-.5 2.32-2.02 1.96-3.52-2.23-9.54-12.25-41.68-47.05-44.32z" fill="#e89f0f"/><path d="M51.02 32.59c.85.09 1.66.36 2.55.51 4.62.77 23.11 3.4 24.23 3.84.49.19 1.17.52 1.32 1.08.23.85-.84 1.23-1.43 1.53-2.53 1.28-21.62 7.64-24.36 8.54-.89.3-1.65.72-2.6.76-.87.03-1.88.59-2.68.03-.78-.53-.82-1.28-.82-2.14 0-.9-.15-1.82-.24-2.7-.08-.88 0-1.81 0-2.7 0-.97.12-1.87.12-2.84 0-1.07.02-2.1.12-3.14.07-.74.22-1.6.62-2.2.32-.47.68-.82 1.25-.93.71-.14 1.25.28 1.92.36" fill="#ed6c30"/><path d="M46.53 53c-.98 0-1.77-.97-1.77-2.17V32.1c0-1.2.79-2.17 1.77-2.17s1.77.97 1.77 2.17v18.73c0 1.2-.79 2.17-1.77 2.17M81.66 101.07s-5.63-27.98-16.81-24.91c-9.53 2.61-4.41 32.08-4.41 32.08l21.22-7.17z" fill="#855c52"/></svg>