<?xml version="1.0" encoding="utf-8"?>
<!-- Generator: Adobe Illustrator 24.0.3, SVG Export Plug-In . SVG Version: 6.00 Build 0)  -->
<svg version="1.1" id="Layer_1" xmlns="http://www.w3.org/2000/svg" xmlns:xlink="http://www.w3.org/1999/xlink" x="0px" y="0px"
	 viewBox="0 0 128 128" style="enable-background:new 0 0 128 128;" xml:space="preserve">
<linearGradient id="SVGID_1_" gradientUnits="userSpaceOnUse" x1="64.0031" y1="3.5185" x2="64.0031" y2="123.5206">
	<stop  offset="0" style="stop-color:#757575"/>
	<stop  offset="0.5148" style="stop-color:#504F4F"/>
</linearGradient>
<path style="fill:url(#SVGID_1_);" d="M91.86,92L80.25,75.15c-0.5-0.95-0.15-2.11,0.81-2.69c2.88-1.73,5.28-3.92,7.13-6.51
	c2.62-3.67,3.95-8.24,3.95-13.59c0-7.84-2.59-13.95-7.68-18.16C79.48,30.09,72.4,28,63.44,28h-22c-3.31,0-6,2.69-6,6v60.8
	c0,3.31,2.69,6,6,6h4.85c3.31,0,6-2.69,6-6V79.5c0-1.1,0.9-2,2-2h7.89c0.75,0,1.43,0.41,1.77,1.08l12.59,19
	c1.04,1.99,3.08,3.23,5.32,3.23h4.7c2.12,0,4.04-1.09,5.14-2.9C92.79,96.08,92.86,93.88,91.86,92z M72.31,60.38
	c-2.05,1.83-5.02,2.77-8.82,2.77h-9.2c-1.1,0-2-0.9-2-2V44.36c0-1.1,0.9-2,2-2h9.56c3.89,0.06,6.83,1,8.69,2.79s2.76,4.33,2.76,7.75
	C75.3,56.13,74.32,58.57,72.31,60.38z"/>
<linearGradient id="SVGID_2_" gradientUnits="userSpaceOnUse" x1="64" y1="3.5185" x2="64" y2="123.5185">
	<stop  offset="0" style="stop-color:#757575"/>
	<stop  offset="0.5148" style="stop-color:#504F4F"/>
</linearGradient>
<path style="fill:url(#SVGID_2_);" d="M64,18c25.36,0,46,20.64,46,46s-20.64,46-46,46S18,89.36,18,64S38.64,18,64,18 M64,4
	C30.86,4,4,30.86,4,64s26.86,60,60,60s60-26.86,60-60S97.14,4,64,4z"/>
</svg>
