<svg xmlns="http://www.w3.org/2000/svg" viewBox="0 0 128 128"><path d="M111.89 100.74c-6.48 5.48-14.77 8.98-23 11.01-17.96 4.42-39.03 4.82-56.76-.94-4.63-1.5-9.38-3.59-13.47-6.23-3.01-1.95-6.02-4.62-8.14-7.52-7.17-9.76-7.9-23.92 4.38-33.17 13.54-10.2 30.1-13.5 46.92-13.62 12.3-.08 25.46.6 37.15 4.61 10.72 3.67 23.22 12.2 23.71 24.58.32 8.47-4.48 15.94-10.79 21.28z" fill="#fff"/><path d="M127.36 80.59c-.52-14-14.03-23.65-25.6-27.8-12.64-4.54-26.86-5.31-40.14-5.21-18.18.13-35.74 4.33-50.71 15.41C-.3 71.29-3.03 88 6.15 100.52c2.37 3.23 5.55 6.3 8.81 8.5 4.42 2.99 9.55 5.34 14.55 7.04 19.16 6.51 41.93 6.07 61.33 1.06 8.88-2.29 17.84-6.25 24.85-12.45 6.83-6.04 12.01-14.49 11.67-24.08zM109.84 100c-6.2 5.25-14.15 8.61-22.01 10.56-17.19 4.24-37.38 4.62-54.35-.9-4.43-1.44-8.97-3.44-12.89-5.97-2.89-1.87-5.77-4.43-7.8-7.21C5.94 87.11 5.24 73.53 17 64.67c12.97-9.78 28.82-12.95 44.93-13.06 11.77-.08 24.36.57 35.56 4.41 10.25 3.52 22.22 11.7 22.68 23.57.31 8.12-4.29 15.29-10.33 20.41z" fill="#78a3ad"/><g><path d="M103.83 55.92c-.72-3.46-1.11-6.97-1.76-10.44-.32-1.73-.7-3.46-1.23-5.14-.17-.52-.37-1.36-.67-2.14-.32-.81-.74-1.55-1.33-1.77-.32-.11-.64-.09-.98-.08-.38.01-.7.14-1.02.26-1.33-1.72-3.12-3.01-4.82-4.32-1.2-.92-2.1-1.94-3.46-2.64-1.29-.66-2.39-1.64-3.66-2.39-1.39-.82-2.88-1.74-4.45-2.14-1.81-.46-3.67-.77-5.5-1.16-3.58-.77-7.41-.61-11.05-.29-4.56.4-9.2.65-13.68 1.63-2.87.63-5.47 1.96-8.13 3.18-2.2 1-4.1 2.2-5.98 3.72-.86.7-1.46 1.45-2.14 2.28-.37-.56-1.08-.84-2.31-.59-2.27.46-3.36 2.82-3.98 4.88-.83 2.77-1.51 5.61-2.26 8.4-.7 2.65-1.29 5.33-1.96 8-2.07 8.26-4.49 16.92-3.83 25.54 1 13.18 16.98 19.13 27.41 22.1 4.38 1.25 9.14 2.06 13.68 2.33 11.25.67 23.36-.73 33.05-7.13 2.69-1.77 5.21-3.99 7.4-6.39 8.85-9.67 5.05-24.23 2.66-35.7z" fill="#fcc21b"/><path d="M35.02 27.83c-4.43 3.58-8.58 9.61-8.15 15.56.53 7.18 6.94 11.71 12.81 14.48 4.53 2.13 9.17 3.9 14.07 4.9 7.61 1.56 16.68.17 22.15 7.03 1.71 2.13 2.91 4.72 5.96 5.06 5.64.62 6.93-6.14 8-10.22.79-3.06 1.61-6.04 3.41-8.68 1.85-2.71 4.36-4.89 6.01-7.75 2.84-4.9 2.15-10.3-.93-14.93-1.71-2.58-4.23-5.5-6.8-7.23-3.01-2.01-6.4-3.33-9.78-4.51-11.38-3.95-25.05-3.86-36.36.44-3.5 1.33-7.22 3.3-10.39 5.85z" fill="#855c52"/></g><path d="M90.54 41.76C83.12 50.62 72.2 52.8 61.31 53.17c-.7.02-1.28.07-1.51.86-.52 1.82 3.67 1.71 4.74 1.77 4.21.21 8.48.03 12.58-1.13 5.61-1.59 13.67-4.75 15.43-11.13.3-1.12-.01-3.44-1.53-2.25-.17.11-.32.28-.48.47z" fill="#fff"/></svg>