<?xml version="1.0" encoding="UTF-8" standalone="no"?>
<svg
   xmlns:dc="http://purl.org/dc/elements/1.1/"
   xmlns:cc="http://creativecommons.org/ns#"
   xmlns:rdf="http://www.w3.org/1999/02/22-rdf-syntax-ns#"
   xmlns:svg="http://www.w3.org/2000/svg"
   xmlns="http://www.w3.org/2000/svg"
   xmlns:xlink="http://www.w3.org/1999/xlink"
   xmlns:sodipodi="http://sodipodi.sourceforge.net/DTD/sodipodi-0.dtd"
   xmlns:inkscape="http://www.inkscape.org/namespaces/inkscape"
   width="128"
   height="128"
   style="enable-background:new 0 0 128 128;"
   version="1.1"
   id="svg2295"
   sodipodi:docname="emoji_u1f469_200d_1f9b1.svg"
   inkscape:version="0.92.3 (2405546, 2018-03-11)">
  <metadata
     id="metadata2301">
    <rdf:RDF>
      <cc:Work
         rdf:about="">
        <dc:format>image/svg+xml</dc:format>
        <dc:type
           rdf:resource="http://purl.org/dc/dcmitype/StillImage" />
      </cc:Work>
    </rdf:RDF>
  </metadata>
  <defs
     id="defs2299" />
  <sodipodi:namedview
     pagecolor="#ffffff"
     bordercolor="#666666"
     borderopacity="1"
     objecttolerance="10"
     gridtolerance="10"
     guidetolerance="10"
     inkscape:pageopacity="0"
     inkscape:pageshadow="2"
     inkscape:window-width="1920"
     inkscape:window-height="1046"
     id="namedview2297"
     showgrid="false"
     inkscape:zoom="14.75"
     inkscape:cx="39.038274"
     inkscape:cy="46.822383"
     inkscape:window-x="-11"
     inkscape:window-y="-11"
     inkscape:window-maximized="1"
     inkscape:current-layer="svg2295"
     inkscape:snap-page="true"
     inkscape:snap-bbox="true"
     inkscape:bbox-paths="true"
     inkscape:snap-nodes="false"
     inkscape:snap-others="false"
     inkscape:snap-grids="false"
     showguides="false" />
  <ellipse
     style="fill:#bfa055"
     ry="50.299999"
     rx="54.5"
     cy="56.060001"
     cx="64"
     id="XMLID_201_" />
  <path
     style="fill:#bfa055"
     d="m 76.46,42.76 c -4.34,4.17 -25.9,23.6 -55.62,28.68 V 31.6 c 0,0 12.83,-25.45 43.61,-25.45 30.78,0 43.61,26.09 43.61,26.09 v 39.2 c 0,0 -20.17,-7.74 -30.3,-28.43 -0.25,-0.51 -0.9,-0.64 -1.3,-0.25 z"
     id="XMLID_194_" />
  <g
     id="g1466">
    <path
       id="XMLID_200_"
       d="m 64.17,14.87 c -33.11,0 -42.95,23.36 -42.95,58.91 0,35.56 26.86,48.36 42.95,48.36 16.09,0 42.61,-13.14 42.61,-48.69 0,-35.56 -9.5,-58.58 -42.61,-58.58 z"
       style="fill:#e0bb95"
       inkscape:connector-curvature="0" />
    <g
       id="XMLID_816_">
      <path
         id="XMLID_806_"
         d="m 49.91,77.19 c 0,3.81 -2.55,6.9 -5.71,6.9 -3.16,0 -5.73,-3.09 -5.73,-6.9 0,-3.82 2.57,-6.91 5.73,-6.91 3.16,0 5.71,3.09 5.71,6.91"
         style="fill:#444444"
         inkscape:connector-curvature="0" />
      <path
         id="XMLID_803_"
         d="m 78.08,77.19 c 0,3.81 2.56,6.9 5.72,6.9 3.15,0 5.72,-3.09 5.72,-6.9 0,-3.82 -2.57,-6.91 -5.72,-6.91 -3.16,0 -5.72,3.09 -5.72,6.91"
         style="fill:#444444"
         inkscape:connector-curvature="0" />
      <path
         id="XMLID_798_"
         d="m 76.38,100.52 c -1.73,0 -12.38,0 -12.38,0 0,0 -10.65,0 -12.38,0 -1.42,0 -2.03,0.95 -1.09,2.38 1.31,2 6.19,5.85 13.47,5.85 7.28,0 12.16,-3.85 13.47,-5.85 0.94,-1.43 0.33,-2.38 -1.09,-2.38 z"
         style="fill:#513f35"
         inkscape:connector-curvature="0" />
      <path
         id="XMLID_793_"
         d="m 69.98,89.99 c -2.11,0.6 -4.29,0.89 -5.98,0.89 -1.69,0 -3.87,-0.29 -5.98,-0.89 -0.9,-0.26 -1.25,0.6 -0.93,1.17 0.67,1.18 3.36,3.55 6.91,3.55 3.55,0 6.24,-2.37 6.91,-3.55 0.33,-0.57 -0.03,-1.42 -0.93,-1.17 z"
         style="fill:#c48e6a"
         inkscape:connector-curvature="0" />
    </g>
  </g>
  <path
     style="fill:#0cd00e;fill-opacity:0;stroke:none;stroke-width:0.99999994px;stroke-linecap:butt;stroke-linejoin:miter;stroke-opacity:1"
     d="m 40.321583,67.692944 c -7.355123,0 -17.827557,3.152197 -17.827557,3.152197 -1.507203,1.270587 -2.651058,2.590057 -3.427193,3.958715 0.06705,3.665407 0.350664,7.077316 0.831145,10.24669 0.428307,0.06169 10.868694,1.555576 18.073824,1.555576 8.708387,0.164599 18.270638,-3.102943 25.428947,-3.102943 h 2.877201 c 7.15831,0 16.72056,3.267542 25.428946,3.102943 5.483886,0 12.898814,-0.873762 16.327404,-1.319571 0.5745,-3.711747 0.89887,-7.736726 0.89887,-12.140882 0,-0.3576 -0.006,-0.707359 -0.008,-1.063045 -0.48602,-0.460777 -1.06132,-0.876313 -1.74027,-1.237483 0,0 -10.472442,-3.152197 -17.827567,-3.152197 -9.400761,0.445812 -16.219879,4.309644 -24.517763,4.309644 -8.297883,0 -15.117001,-3.863832 -24.517766,-4.309644 z"
     id="path867" />
  <path
     style="fill:#bfa055"
     d="m 76.46,42.76 c -4.34,4.17 -25.9,23.6 -55.62,28.68 V 31.6 c 0,0 12.83,-25.45 43.61,-25.45 30.78,0 43.61,26.09 43.61,26.09 v 39.2 c 0,0 -20.17,-7.74 -30.3,-28.43 -0.25,-0.51 -0.9,-0.64 -1.3,-0.25 z"
     id="XMLID_802_" />
  <path
     style="fill:#bfa055"
     d="M 22.330078,55.267578 9.5,55.800781 c 0,0 -0.2698438,25.779844 3.160156,48.839839 2.55,17.15 2.989453,19.86876 15.189453,18.46876 10.093424,-1.15798 17.228407,-2.45443 23.296875,-3.36133 -14.481995,-5.13317 -29.925781,-19.00351 -29.925781,-45.968753 0,-6.617855 0.340743,-12.810791 1.109375,-18.511719 z"
     id="path1481" />
  <path
     style="fill:#bfa055"
     d="m 105.73633,55.271484 c 0.72151,5.599554 1.04297,11.675583 1.04297,18.177735 0,27.068301 -15.373345,41.134681 -29.812503,46.310551 6.047048,0.90718 13.156465,2.19858 23.183593,3.34961 12.2,1.4 12.63945,-1.31875 15.18945,-18.46876 3.43,-23.059995 3.16016,-48.839839 3.16016,-48.839839 z"
     id="path2896" />
  <path
     style="opacity:1;vector-effect:none;fill:#bfa055;fill-opacity:1;stroke:none;stroke-width:1;stroke-linecap:butt;stroke-linejoin:miter;stroke-miterlimit:4;stroke-dasharray:none;stroke-dashoffset:0;stroke-opacity:1;paint-order:stroke fill markers"
     d="m 24.065601,30.299416 a 6.9032798,6.9032798 0 0 1 -6.90328,6.903279 6.9032798,6.9032798 0 0 1 -6.90328,-6.903279 6.9032798,6.9032798 0 0 1 6.90328,-6.90328 6.9032798,6.9032798 0 0 1 6.90328,6.90328 z"
     id="path826" />
  <use
     id="use1136"
     inkscape:spray-origin="#path826"
     xlink:href="#path826"
     transform="matrix(0.84441059,0.03221879,-0.03221879,0.84441059,9.0636493,1.6203448)"
     style="stroke-width:1.18339694"
     x="0"
     y="0"
     width="100%"
     height="100%" />
  <use
     id="use1138"
     inkscape:spray-origin="#path826"
     xlink:href="#path826"
     transform="matrix(1.225823,0.06810172,-0.06810172,1.225823,6.1531867,-18.835672)"
     style="stroke-width:0.81452245"
     x="0"
     y="0"
     width="100%"
     height="100%" />
  <use
     id="use1140"
     inkscape:spray-origin="#path826"
     xlink:href="#path826"
     transform="matrix(0.91735379,0.02122652,-0.02122652,0.91735379,18.356417,-11.928127)"
     style="stroke-width:1.08980024"
     x="0"
     y="0"
     width="100%"
     height="100%" />
  <use
     id="use1142"
     inkscape:spray-origin="#path826"
     xlink:href="#path826"
     transform="matrix(1.1162417,-0.00203024,0.00203024,1.1162417,14.942713,-18.964451)"
     style="stroke-width:0.89586186"
     x="0"
     y="0"
     width="100%"
     height="100%" />
  <use
     id="use1144"
     inkscape:spray-origin="#path826"
     xlink:href="#path826"
     transform="matrix(0.91553554,0.04543224,-0.04543224,0.91553554,33.236668,-17.121866)"
     style="stroke-width:1.09091449"
     x="0"
     y="0"
     width="100%"
     height="100%" />
  <use
     id="use1146"
     inkscape:spray-origin="#path826"
     xlink:href="#path826"
     transform="matrix(1.2754514,-0.03790277,0.03790277,1.2754514,24.827482,-27.812143)"
     style="stroke-width:0.78369015"
     x="0"
     y="0"
     width="100%"
     height="100%" />
  <use
     id="use1148"
     inkscape:spray-origin="#path826"
     xlink:href="#path826"
     transform="matrix(0.76425166,0.01798535,-0.01798535,0.76425166,41.532983,-13.769259)"
     style="stroke-width:1.30810738"
     x="0"
     y="0"
     width="100%"
     height="100%" />
  <use
     id="use1150"
     inkscape:spray-origin="#path826"
     xlink:href="#path826"
     transform="matrix(0.79604148,0.02778484,-0.02778484,0.79604148,53.096969,-15.326087)"
     style="stroke-width:1.25545144"
     x="0"
     y="0"
     width="100%"
     height="100%" />
  <use
     id="use1152"
     inkscape:spray-origin="#path826"
     xlink:href="#path826"
     transform="matrix(0.7378319,-0.04398812,0.04398812,0.7378319,65.015373,-11.938953)"
     style="stroke-width:1.35292006"
     x="0"
     y="0"
     width="100%"
     height="100%" />
  <use
     id="use1154"
     inkscape:spray-origin="#path826"
     xlink:href="#path826"
     transform="matrix(0.79945,0.00445222,-0.00445222,0.79945,67.195173,-13.812195)"
     style="stroke-width:1.25084054"
     x="0"
     y="0"
     width="100%"
     height="100%" />
  <use
     id="use1156"
     inkscape:spray-origin="#path826"
     xlink:href="#path826"
     transform="matrix(0.94537343,0.04870115,-0.04870115,0.94537343,75.057407,-16.203856)"
     style="stroke-width:1.0563823"
     x="0"
     y="0"
     width="100%"
     height="100%" />
  <use
     id="use1158"
     inkscape:spray-origin="#path826"
     xlink:href="#path826"
     transform="matrix(0.77525162,0.01768804,-0.01768804,0.77525162,74.589877,-9.7527965)"
     style="stroke-width:1.28956819"
     x="0"
     y="0"
     width="100%"
     height="100%" />
  <use
     id="use1160"
     inkscape:spray-origin="#path826"
     xlink:href="#path826"
     transform="matrix(1.164717,0.04665294,-0.04665294,1.164717,67.166865,-22.440736)"
     style="stroke-width:0.85788971"
     x="0"
     y="0"
     width="100%"
     height="100%" />
  <use
     id="use1162"
     inkscape:spray-origin="#path826"
     xlink:href="#path826"
     transform="matrix(1.0852952,-0.05610088,0.05610088,1.0852952,51.440963,-23.951085)"
     style="stroke-width:0.92017972"
     x="0"
     y="0"
     width="100%"
     height="100%" />
  <use
     id="use1164"
     inkscape:spray-origin="#path826"
     xlink:href="#path826"
     transform="matrix(1.1799341,0.04541777,-0.04541777,1.1799341,51.632693,-27.774718)"
     style="stroke-width:0.84687781"
     x="0"
     y="0"
     width="100%"
     height="100%" />
  <use
     id="use1166"
     inkscape:spray-origin="#path826"
     xlink:href="#path826"
     transform="matrix(1.2891001,-0.05879475,0.05879475,1.2891001,42.083209,-28.726274)"
     style="stroke-width:0.77492934"
     x="0"
     y="0"
     width="100%"
     height="100%" />
  <use
     id="use1168"
     inkscape:spray-origin="#path826"
     xlink:href="#path826"
     transform="matrix(0.75279128,0.02365712,-0.02365712,0.75279128,47.584716,-12.848061)"
     style="stroke-width:1.32773399"
     x="0"
     y="0"
     width="100%"
     height="100%" />
  <use
     id="use1170"
     inkscape:spray-origin="#path826"
     xlink:href="#path826"
     transform="matrix(1.1179304,0.02260594,-0.02260594,1.1179304,49.781761,-22.788449)"
     style="stroke-width:0.89432728"
     x="0"
     y="0"
     width="100%"
     height="100%" />
  <use
     id="use1172"
     inkscape:spray-origin="#path826"
     xlink:href="#path826"
     transform="matrix(1.2522249,-0.05430774,0.05430774,1.2522249,48.589109,-25.465674)"
     style="stroke-width:0.79782861"
     x="0"
     y="0"
     width="100%"
     height="100%" />
  <use
     id="use1174"
     inkscape:spray-origin="#path826"
     xlink:href="#path826"
     transform="matrix(0.70181358,0.0040805,-0.0040805,0.70181358,68.068155,-7.3215975)"
     style="stroke-width:1.42485571"
     x="0"
     y="0"
     width="100%"
     height="100%" />
  <use
     id="use1176"
     inkscape:spray-origin="#path826"
     xlink:href="#path826"
     transform="matrix(0.92181254,0.03254768,-0.03254768,0.92181254,69.308229,-14.125181)"
     style="stroke-width:1.08414364"
     x="0"
     y="0"
     width="100%"
     height="100%" />
  <use
     id="use1178"
     inkscape:spray-origin="#path826"
     xlink:href="#path826"
     transform="matrix(0.74071738,0.01220785,-0.01220785,0.74071738,73.671199,-8.0324445)"
     style="stroke-width:1.34985924"
     x="0"
     y="0"
     width="100%"
     height="100%" />
  <use
     id="use1180"
     inkscape:spray-origin="#path826"
     xlink:href="#path826"
     transform="matrix(0.80918969,0.04809791,-0.04809791,0.80918969,74.097425,-10.850453)"
     style="stroke-width:1.23362684"
     x="0"
     y="0"
     width="100%"
     height="100%" />
  <use
     id="use1182"
     inkscape:spray-origin="#path826"
     xlink:href="#path826"
     transform="matrix(0.76640645,0.01090708,-0.01090708,0.76640645,74.69653,-8.6549605)"
     style="stroke-width:1.30465853"
     x="0"
     y="0"
     width="100%"
     height="100%" />
  <use
     id="use1184"
     inkscape:spray-origin="#path826"
     xlink:href="#path826"
     transform="matrix(0.97465909,-0.01004316,0.01004316,0.97465909,75.106794,-11.206721)"
     style="stroke-width:1.02594531"
     x="0"
     y="0"
     width="100%"
     height="100%" />
  <use
     id="use1186"
     inkscape:spray-origin="#path826"
     xlink:href="#path826"
     transform="matrix(1.0801748,0.05338877,-0.05338877,1.0801748,77.897998,-19.078712)"
     style="stroke-width:0.92464733"
     x="0"
     y="0"
     width="100%"
     height="100%" />
  <use
     id="use1188"
     inkscape:spray-origin="#path826"
     xlink:href="#path826"
     transform="matrix(1.0286913,0.00169491,-0.00169491,1.0286913,85.371757,-9.732215)"
     style="stroke-width:0.97210765"
     x="0"
     y="0"
     width="100%"
     height="100%" />
  <use
     id="use1190"
     inkscape:spray-origin="#path826"
     xlink:href="#path826"
     transform="matrix(1.2013836,0.0392862,-0.0392862,1.2013836,86.000748,-10.396638)"
     style="stroke-width:0.83192891"
     x="0"
     y="0"
     width="100%"
     height="100%" />
  <use
     id="use1192"
     inkscape:spray-origin="#path826"
     xlink:href="#path826"
     transform="matrix(0.88849368,0.00573579,-0.00573579,0.88849368,92.590612,0.80825272)"
     style="stroke-width:1.12547696"
     x="0"
     y="0"
     width="100%"
     height="100%" />
  <use
     id="use1194"
     inkscape:spray-origin="#path826"
     xlink:href="#path826"
     transform="matrix(1.1742137,0.05497584,-0.05497584,1.1742137,90.986341,-7.5103209)"
     style="stroke-width:0.85070187"
     x="0"
     y="0"
     width="100%"
     height="100%" />
  <use
     id="use1196"
     inkscape:spray-origin="#path826"
     xlink:href="#path826"
     transform="matrix(0.86516918,-0.00797052,0.00797052,0.86516918,95.554758,3.789827)"
     style="stroke-width:1.15579426"
     x="0"
     y="0"
     width="100%"
     height="100%" />
  <use
     id="use1198"
     inkscape:spray-origin="#path826"
     xlink:href="#path826"
     transform="matrix(1.3078568,0.00131583,-0.00131583,1.3078568,93.563642,-2.0036285)"
     style="stroke-width:0.76460928"
     x="0"
     y="0"
     width="100%"
     height="100%" />
  <use
     id="use1200"
     inkscape:spray-origin="#path826"
     xlink:href="#path826"
     transform="matrix(1.1127205,0.0034878,-0.0034878,1.1127205,95.664803,3.4833655)"
     style="stroke-width:0.89869386"
     x="0"
     y="0"
     width="100%"
     height="100%" />
  <use
     id="use1202"
     inkscape:spray-origin="#path826"
     xlink:href="#path826"
     transform="matrix(0.98817066,0.03107945,-0.03107945,0.98817066,98.603604,7.2593551)"
     style="stroke-width:1.01147079"
     x="0"
     y="0"
     width="100%"
     height="100%" />
  <use
     id="use1204"
     inkscape:spray-origin="#path826"
     xlink:href="#path826"
     transform="matrix(0.77945376,-0.01000613,0.01000613,0.77945376,104.04937,24.626529)"
     style="stroke-width:1.28284407"
     x="0"
     y="0"
     width="100%"
     height="100%" />
  <use
     id="use1206"
     inkscape:spray-origin="#path826"
     xlink:href="#path826"
     transform="matrix(1.0474702,0.04393154,-0.04393154,1.0474702,100.43882,20.797843)"
     style="stroke-width:0.95384246"
     x="0"
     y="0"
     width="100%"
     height="100%" />
  <use
     id="use1208"
     inkscape:spray-origin="#path826"
     xlink:href="#path826"
     transform="matrix(1.295526,0.07758412,-0.07758412,1.295526,97.583001,12.517631)"
     style="stroke-width:0.7705068"
     x="0"
     y="0"
     width="100%"
     height="100%" />
  <use
     id="use1210"
     inkscape:spray-origin="#path826"
     xlink:href="#path826"
     transform="matrix(0.95253711,0.04815644,-0.04815644,0.95253711,103.50182,24.682871)"
     style="stroke-width:1.04848886"
     x="0"
     y="0"
     width="100%"
     height="100%" />
  <use
     id="use1212"
     inkscape:spray-origin="#path826"
     xlink:href="#path826"
     transform="matrix(0.7439009,0.01871977,-0.01871977,0.7439009,105.0519,34.685517)"
     style="stroke-width:1.34383965"
     x="0"
     y="0"
     width="100%"
     height="100%" />
  <use
     id="use1214"
     inkscape:spray-origin="#path826"
     xlink:href="#path826"
     transform="matrix(0.74551047,0.03190365,-0.03190365,0.74551047,107.29055,47.326599)"
     style="stroke-width:1.34013617"
     x="0"
     y="0"
     width="100%"
     height="100%" />
  <use
     id="use1216"
     inkscape:spray-origin="#path826"
     xlink:href="#path826"
     transform="matrix(1.2926756,-0.04290748,0.04290748,1.2926756,95.358117,31.302276)"
     style="stroke-width:0.7731635"
     x="0"
     y="0"
     width="100%"
     height="100%" />
  <use
     id="use1220"
     inkscape:spray-origin="#path826"
     xlink:href="#path826"
     transform="matrix(1.1314953,0.05576805,-0.05576805,1.1314953,101.80048,39.806435)"
     style="stroke-width:0.88271475"
     x="0"
     y="0"
     width="100%"
     height="100%" />
  <use
     id="use1222"
     inkscape:spray-origin="#path826"
     xlink:href="#path826"
     transform="matrix(1.1278751,0.02289859,-0.02289859,1.1278751,100.8392,44.387581)"
     style="stroke-width:0.8864404"
     x="0"
     y="0"
     width="100%"
     height="100%" />
  <use
     id="use1224"
     inkscape:spray-origin="#path826"
     xlink:href="#path826"
     transform="matrix(1.043247,0.04543034,-0.04543034,1.043247,102.48042,46.785577)"
     style="stroke-width:0.9576382"
     x="0"
     y="0"
     width="100%"
     height="100%" />
  <use
     id="use1226"
     inkscape:spray-origin="#path826"
     xlink:href="#path826"
     transform="matrix(0.69045967,0.01059474,-0.01059474,0.69045967,107.20304,63.173997)"
     style="stroke-width:1.44814003"
     x="0"
     y="0"
     width="100%"
     height="100%" />
  <use
     id="use1228"
     inkscape:spray-origin="#path826"
     xlink:href="#path826"
     transform="matrix(1.04168,-0.03402708,0.03402708,1.04168,98.834834,58.196947)"
     style="stroke-width:0.95947593"
     x="0"
     y="0"
     width="100%"
     height="100%" />
  <use
     id="use1230"
     inkscape:spray-origin="#path826"
     xlink:href="#path826"
     transform="matrix(0.95295837,-0.03722948,0.03722948,0.95295837,99.679587,62.508186)"
     style="stroke-width:1.04856396"
     x="0"
     y="0"
     width="100%"
     height="100%" />
  <use
     id="use1232"
     inkscape:spray-origin="#path826"
     xlink:href="#path826"
     transform="matrix(1.0568764,-0.03029614,0.03029614,1.0568764,93.747321,67.801426)"
     style="stroke-width:0.94579601"
     x="0"
     y="0"
     width="100%"
     height="100%" />
  <use
     id="use1234"
     inkscape:spray-origin="#path826"
     xlink:href="#path826"
     transform="matrix(0.84652293,-0.03478016,0.03478016,0.84652293,97.0787,80.590844)"
     style="stroke-width:1.18030715"
     x="0"
     y="0"
     width="100%"
     height="100%" />
  <use
     id="use1236"
     inkscape:spray-origin="#path826"
     xlink:href="#path826"
     transform="matrix(0.90773093,0.03232069,-0.03232069,0.90773093,97.283734,78.838797)"
     style="stroke-width:1.10095036"
     x="0"
     y="0"
     width="100%"
     height="100%" />
  <use
     id="use1238"
     inkscape:spray-origin="#path826"
     xlink:href="#path826"
     transform="matrix(1.0182899,0.05659875,-0.05659875,1.0182899,90.991673,86.204341)"
     style="stroke-width:0.98052526"
     x="0"
     y="0"
     width="100%"
     height="100%" />
  <use
     id="use1240"
     inkscape:spray-origin="#path826"
     xlink:href="#path826"
     transform="matrix(1.1814753,-0.0573539,0.0573539,1.1814753,88.079004,55.382659)"
     style="stroke-width:0.84540385"
     x="0"
     y="0"
     width="100%"
     height="100%" />
  <use
     id="use1242"
     inkscape:spray-origin="#path826"
     xlink:href="#path826"
     transform="matrix(0.80844069,-0.01525959,0.01525959,0.80844069,97.327619,51.433189)"
     style="stroke-width:1.23672879"
     x="0"
     y="0"
     width="100%"
     height="100%" />
  <use
     id="use1244"
     inkscape:spray-origin="#path826"
     xlink:href="#path826"
     transform="matrix(0.88115452,0.0553053,-0.0553053,0.88115452,103.88397,30.859923)"
     style="stroke-width:1.13264596"
     x="0"
     y="0"
     width="100%"
     height="100%" />
  <use
     id="use1246"
     inkscape:spray-origin="#path826"
     xlink:href="#path826"
     transform="matrix(0.89078067,-0.01462951,0.01462951,0.89078067,102.0038,36.383792)"
     style="stroke-width:1.12245941"
     x="0"
     y="0"
     width="100%"
     height="100%" />
  <use
     id="use1248"
     inkscape:spray-origin="#path826"
     xlink:href="#path826"
     transform="matrix(0.96686498,0.02105964,-0.02105964,0.96686498,93.405163,26.058672)"
     style="stroke-width:1.03402531"
     x="0"
     y="0"
     width="100%"
     height="100%" />
  <use
     id="use1250"
     inkscape:spray-origin="#path826"
     xlink:href="#path826"
     transform="matrix(1.095464,-0.02008822,0.02008822,1.095464,87.743705,21.623874)"
     style="stroke-width:0.91270173"
     x="0"
     y="0"
     width="100%"
     height="100%" />
  <use
     id="use1252"
     inkscape:spray-origin="#path826"
     xlink:href="#path826"
     transform="matrix(0.92735525,0.02100279,-0.02100279,0.92735525,80.903983,14.112746)"
     style="stroke-width:1.07805896"
     x="0"
     y="0"
     width="100%"
     height="100%" />
  <use
     id="use1254"
     inkscape:spray-origin="#path826"
     xlink:href="#path826"
     transform="matrix(0.92411966,-0.0154092,0.0154092,0.92411966,75.813538,13.432081)"
     style="stroke-width:1.08196056"
     x="0"
     y="0"
     width="100%"
     height="100%" />
  <use
     id="use1256"
     inkscape:spray-origin="#path826"
     xlink:href="#path826"
     transform="matrix(1.2383628,-0.07364321,0.07364321,1.2383628,68.598498,3.5230778)"
     style="stroke-width:0.80609363"
     x="0"
     y="0"
     width="100%"
     height="100%" />
  <use
     id="use1258"
     inkscape:spray-origin="#path826"
     xlink:href="#path826"
     transform="matrix(1.11703,-0.06985007,0.06985007,1.11703,48.496512,3.9126492)"
     style="stroke-width:0.8934859"
     x="0"
     y="0"
     width="100%"
     height="100%" />
  <use
     id="use1260"
     inkscape:spray-origin="#path826"
     xlink:href="#path826"
     transform="matrix(1.1324675,0.0167811,-0.0167811,1.1324675,45.691299,8.2477059)"
     style="stroke-width:0.88293064"
     x="0"
     y="0"
     width="100%"
     height="100%" />
  <use
     id="use1262"
     inkscape:spray-origin="#path826"
     xlink:href="#path826"
     transform="matrix(0.69809259,-0.00312412,0.00312412,0.69809259,51.63307,24.230464)"
     style="stroke-width:1.43246043"
     x="0"
     y="0"
     width="100%"
     height="100%" />
  <use
     id="use1264"
     inkscape:spray-origin="#path826"
     xlink:href="#path826"
     transform="matrix(0.77545662,0.00539617,-0.00539617,0.77545662,46.524601,27.749512)"
     style="stroke-width:1.28953159"
     x="0"
     y="0"
     width="100%"
     height="100%" />
  <use
     id="use1266"
     inkscape:spray-origin="#path826"
     xlink:href="#path826"
     transform="matrix(0.75106385,-0.00550442,0.00550442,0.75106385,44.907802,30.230271)"
     style="stroke-width:1.33140898"
     x="0"
     y="0"
     width="100%"
     height="100%" />
  <use
     id="use1268"
     inkscape:spray-origin="#path826"
     xlink:href="#path826"
     transform="matrix(1.1472088,0.05791605,-0.05791605,1.1472088,34.497454,22.994956)"
     style="stroke-width:0.87057221"
     x="0"
     y="0"
     width="100%"
     height="100%" />
  <use
     id="use1270"
     inkscape:spray-origin="#path826"
     xlink:href="#path826"
     transform="matrix(0.88368183,9.6863578e-4,-9.6863578e-4,0.88368183,29.778119,36.393008)"
     style="stroke-width:1.13162827"
     x="0"
     y="0"
     width="100%"
     height="100%" />
  <use
     id="use1272"
     inkscape:spray-origin="#path826"
     xlink:href="#path826"
     transform="matrix(1.2662788,-0.0739831,0.0739831,1.2662788,10.995945,27.38615)"
     style="stroke-width:0.78837109"
     x="0"
     y="0"
     width="100%"
     height="100%" />
  <use
     id="use1274"
     inkscape:spray-origin="#path826"
     xlink:href="#path826"
     transform="matrix(0.80097473,-0.0323026,0.0323026,0.80097473,17.987133,43.86292)"
     style="stroke-width:1.24746478"
     x="0"
     y="0"
     width="100%"
     height="100%" />
  <use
     id="use1276"
     inkscape:spray-origin="#path826"
     xlink:href="#path826"
     transform="matrix(0.94201139,0.04039319,-0.04039319,0.94201139,14.905741,39.717594)"
     style="stroke-width:1.06058371"
     x="0"
     y="0"
     width="100%"
     height="100%" />
  <use
     id="use1278"
     inkscape:spray-origin="#path826"
     xlink:href="#path826"
     transform="matrix(1.1686248,-0.0020611,0.0020611,1.1686248,7.1763699,34.283694)"
     style="stroke-width:0.85570532"
     x="0"
     y="0"
     width="100%"
     height="100%" />
  <use
     id="use1280"
     inkscape:spray-origin="#path826"
     xlink:href="#path826"
     transform="matrix(1.0491679,0.00941452,-0.00941452,1.0491679,7.0004549,38.71671)"
     style="stroke-width:0.953098"
     x="0"
     y="0"
     width="100%"
     height="100%" />
  <use
     id="use1282"
     inkscape:spray-origin="#path826"
     xlink:href="#path826"
     transform="matrix(1.0214943,-0.01564185,0.01564185,1.0214943,6.6042736,39.347433)"
     style="stroke-width:0.97884315"
     x="0"
     y="0"
     width="100%"
     height="100%" />
  <use
     id="use1284"
     inkscape:spray-origin="#path826"
     xlink:href="#path826"
     transform="matrix(1.3090615,0.0113179,-0.0113179,1.3090615,3.6334452,28.365308)"
     style="stroke-width:0.76387751"
     x="0"
     y="0"
     width="100%"
     height="100%" />
  <use
     id="use1286"
     inkscape:spray-origin="#path826"
     xlink:href="#path826"
     transform="matrix(1.3073771,0.01511862,-0.01511862,1.3073771,22.816971,19.358638)"
     style="stroke-width:0.76483911"
     x="0"
     y="0"
     width="100%"
     height="100%" />
  <use
     id="use1288"
     inkscape:spray-origin="#path826"
     xlink:href="#path826"
     transform="matrix(1.1369662,0.07137445,-0.07137445,1.1369662,29.542682,21.965656)"
     style="stroke-width:0.87780571"
     x="0"
     y="0"
     width="100%"
     height="100%" />
  <use
     id="use1290"
     inkscape:spray-origin="#path826"
     xlink:href="#path826"
     transform="matrix(0.87954877,0.00282671,-0.00282671,0.87954877,40.01301,26.368363)"
     style="stroke-width:1.13694072"
     x="0"
     y="0"
     width="100%"
     height="100%" />
  <use
     id="use1292"
     inkscape:spray-origin="#path826"
     xlink:href="#path826"
     transform="matrix(1.1638422,-0.05716656,0.05716656,1.1638422,36.303295,17.094502)"
     style="stroke-width:0.85818839"
     x="0"
     y="0"
     width="100%"
     height="100%" />
  <use
     id="use1294"
     inkscape:spray-origin="#path826"
     xlink:href="#path826"
     transform="matrix(1.1174785,0.02068538,-0.02068538,1.1174785,43.43204,10.469183)"
     style="stroke-width:0.89471859"
     x="0"
     y="0"
     width="100%"
     height="100%" />
  <use
     id="use1296"
     inkscape:spray-origin="#path826"
     xlink:href="#path826"
     transform="matrix(0.897396,0.0465848,-0.0465848,0.897396,50.623039,14.955754)"
     style="stroke-width:1.11283684"
     x="0"
     y="0"
     width="100%"
     height="100%" />
  <use
     id="use1298"
     inkscape:spray-origin="#path826"
     xlink:href="#path826"
     transform="matrix(1.1810508,0.03623449,-0.03623449,1.1810508,47.498276,4.4853916)"
     style="stroke-width:0.84630543"
     x="0"
     y="0"
     width="100%"
     height="100%" />
  <use
     id="use1300"
     inkscape:spray-origin="#path826"
     xlink:href="#path826"
     transform="matrix(0.95143997,0.04046282,-0.04046282,0.95143997,54.788135,8.5256556)"
     style="stroke-width:1.05008924"
     x="0"
     y="0"
     width="100%"
     height="100%" />
  <use
     id="use1302"
     inkscape:spray-origin="#path826"
     xlink:href="#path826"
     transform="matrix(1.2340617,-0.04365217,0.04365217,1.2340617,48.676466,-0.23305973)"
     style="stroke-width:0.80982578"
     x="0"
     y="0"
     width="100%"
     height="100%" />
  <use
     id="use1304"
     inkscape:spray-origin="#path826"
     xlink:href="#path826"
     transform="matrix(0.9068517,0.03398188,-0.03398188,0.9068517,57.861364,14.190819)"
     style="stroke-width:1.10194278"
     x="0"
     y="0"
     width="100%"
     height="100%" />
  <use
     id="use1306"
     inkscape:spray-origin="#path826"
     xlink:href="#path826"
     transform="matrix(1.0331376,-0.01495681,0.01495681,1.0331376,54.542888,12.178563)"
     style="stroke-width:0.9678238"
     x="0"
     y="0"
     width="100%"
     height="100%" />
  <use
     id="use1308"
     inkscape:spray-origin="#path826"
     xlink:href="#path826"
     transform="matrix(0.74954724,-0.00642787,0.00642787,0.74954724,60.232564,21.819067)"
     style="stroke-width:1.33408964"
     x="0"
     y="0"
     width="100%"
     height="100%" />
  <use
     id="use1310"
     inkscape:spray-origin="#path826"
     xlink:href="#path826"
     transform="matrix(1.1309593,-0.02251124,0.02251124,1.1309593,51.115279,10.748963)"
     style="stroke-width:0.88403004"
     x="0"
     y="0"
     width="100%"
     height="100%" />
  <use
     id="use1312"
     inkscape:spray-origin="#path826"
     xlink:href="#path826"
     transform="matrix(1.1656171,-0.02080383,0.02080383,1.1656171,50.448066,11.255549)"
     style="stroke-width:0.85777807"
     x="0"
     y="0"
     width="100%"
     height="100%" />
  <use
     id="use1314"
     inkscape:spray-origin="#path826"
     xlink:href="#path826"
     transform="matrix(0.89957668,0.03434154,-0.03434154,0.89957668,56.168324,17.521417)"
     style="stroke-width:1.11082482"
     x="0"
     y="0"
     width="100%"
     height="100%" />
  <use
     id="use1316"
     inkscape:spray-origin="#path826"
     xlink:href="#path826"
     transform="matrix(1.0813024,0.00906164,-0.00906164,1.0813024,51.71489,13.32842)"
     style="stroke-width:0.92477822"
     x="0"
     y="0"
     width="100%"
     height="100%" />
  <use
     id="use1318"
     inkscape:spray-origin="#path826"
     xlink:href="#path826"
     transform="matrix(0.88507479,0.00530188,-0.00530188,0.88507479,66.999711,20.949484)"
     style="stroke-width:1.12982774"
     x="0"
     y="0"
     width="100%"
     height="100%" />
  <use
     id="use1320"
     inkscape:spray-origin="#path826"
     xlink:href="#path826"
     transform="matrix(0.97050463,0.04051846,-0.04051846,0.97050463,68.394408,17.89329)"
     style="stroke-width:1.029495"
     x="0"
     y="0"
     width="100%"
     height="100%" />
  <use
     id="use1322"
     inkscape:spray-origin="#path826"
     xlink:href="#path826"
     transform="matrix(1.2847531,0.08035593,-0.08035593,1.2847531,64.694231,9.4259266)"
     style="stroke-width:0.7768417"
     x="0"
     y="0"
     width="100%"
     height="100%" />
  <use
     id="use1324"
     inkscape:spray-origin="#path826"
     xlink:href="#path826"
     transform="matrix(1.0145141,-0.04525068,0.04525068,1.0145141,65.515245,20.88924)"
     style="stroke-width:0.98471445"
     x="0"
     y="0"
     width="100%"
     height="100%" />
  <use
     id="use1326"
     inkscape:spray-origin="#path826"
     xlink:href="#path826"
     transform="matrix(1.0444534,0.04867213,-0.04867213,1.0444534,67.669979,17.553584)"
     style="stroke-width:0.95640069"
     x="0"
     y="0"
     width="100%"
     height="100%" />
  <use
     id="use1328"
     inkscape:spray-origin="#path826"
     xlink:href="#path826"
     transform="matrix(0.72413513,0.00319367,-0.00319367,0.72413513,73.953601,31.177842)"
     style="stroke-width:1.38094425"
     x="0"
     y="0"
     width="100%"
     height="100%" />
  <use
     id="use1330"
     inkscape:spray-origin="#path826"
     xlink:href="#path826"
     transform="matrix(1.2260537,-0.06753413,0.06753413,1.2260537,62.165773,16.351082)"
     style="stroke-width:0.81439042"
     x="0"
     y="0"
     width="100%"
     height="100%" />
  <use
     id="use1332"
     inkscape:spray-origin="#path826"
     xlink:href="#path826"
     transform="matrix(0.99899163,-0.00814005,0.00814005,0.99899163,81.376707,34.343485)"
     style="stroke-width:1.0009762"
     x="0"
     y="0"
     width="100%"
     height="100%" />
  <use
     id="use1334"
     inkscape:spray-origin="#path826"
     xlink:href="#path826"
     transform="matrix(1.2803709,-0.00823926,0.00823926,1.2803709,68.62638,21.028453)"
     style="stroke-width:0.78100753"
     x="0"
     y="0"
     width="100%"
     height="100%" />
  <use
     id="use1336"
     inkscape:spray-origin="#path826"
     xlink:href="#path826"
     transform="matrix(1.1397898,0.06776438,-0.06776438,1.1397898,73.923229,22.706955)"
     style="stroke-width:0.87580824"
     x="0"
     y="0"
     width="100%"
     height="100%" />
  <use
     id="use1338"
     inkscape:spray-origin="#path826"
     xlink:href="#path826"
     transform="matrix(1.2267533,0.06473156,-0.06473156,1.2267533,81.50392,24.204351)"
     style="stroke-width:0.81402737"
     x="0"
     y="0"
     width="100%"
     height="100%" />
  <use
     id="use1340"
     inkscape:spray-origin="#path826"
     xlink:href="#path826"
     transform="matrix(0.90979534,-0.0209799,0.0209799,0.90979534,90.217972,38.297255)"
     style="stroke-width:1.09885621"
     x="0"
     y="0"
     width="100%"
     height="100%" />
  <use
     id="use1342"
     inkscape:spray-origin="#path826"
     xlink:href="#path826"
     transform="matrix(0.73013262,0.02575957,-0.02575957,0.73013262,99.056536,53.229995)"
     style="stroke-width:1.36876261"
     x="0"
     y="0"
     width="100%"
     height="100%" />
  <use
     id="use1344"
     inkscape:spray-origin="#path826"
     xlink:href="#path826"
     transform="matrix(0.86984599,0.01399726,-0.01399726,0.86984599,95.777095,49.524767)"
     style="stroke-width:1.14947999"
     x="0"
     y="0"
     width="100%"
     height="100%" />
  <use
     id="use1346"
     inkscape:spray-origin="#path826"
     xlink:href="#path826"
     transform="matrix(1.2281917,-0.0458731,0.0458731,1.2281917,39.867015,-3.6849256)"
     style="stroke-width:0.81363779"
     x="0"
     y="0"
     width="100%"
     height="100%" />
  <use
     id="use1348"
     inkscape:spray-origin="#path826"
     xlink:href="#path826"
     transform="matrix(1.1837128,0.06162998,-0.06162998,1.1837128,24.639514,-2.2798778)"
     style="stroke-width:0.84365684"
     x="0"
     y="0"
     width="100%"
     height="100%" />
  <use
     id="use1350"
     inkscape:spray-origin="#path826"
     xlink:href="#path826"
     transform="matrix(1.2995222,0.03933642,-0.03933642,1.2995222,19.661654,-1.2909343)"
     style="stroke-width:0.76916128"
     x="0"
     y="0"
     width="100%"
     height="100%" />
  <use
     id="use1352"
     inkscape:spray-origin="#path826"
     xlink:href="#path826"
     transform="matrix(1.1433645,0.0608993,-0.0608993,1.1433645,14.497497,15.602885)"
     style="stroke-width:0.87337375"
     x="0"
     y="0"
     width="100%"
     height="100%" />
  <use
     id="use1354"
     inkscape:spray-origin="#path826"
     xlink:href="#path826"
     transform="matrix(1.1039581,0.05115662,-0.05115662,1.1039581,13.925312,19.0149)"
     style="stroke-width:0.9048605"
     x="0"
     y="0"
     width="100%"
     height="100%" />
  <use
     id="use1356"
     inkscape:spray-origin="#path826"
     xlink:href="#path826"
     transform="matrix(1.1116547,0.01853383,-0.01853383,1.1116547,12.426041,23.119174)"
     style="stroke-width:0.89943486"
     x="0"
     y="0"
     width="100%"
     height="100%" />
  <use
     id="use1358"
     inkscape:spray-origin="#path826"
     xlink:href="#path826"
     transform="matrix(1.0957931,0.02594803,-0.02594803,1.0957931,11.999421,23.403293)"
     style="stroke-width:0.91232526"
     x="0"
     y="0"
     width="100%"
     height="100%" />
  <use
     id="use1360"
     inkscape:spray-origin="#path826"
     xlink:href="#path826"
     transform="matrix(1.0606964,-0.02964906,0.02964906,1.0606964,8.553274,31.864649)"
     style="stroke-width:0.9424088"
     x="0"
     y="0"
     width="100%"
     height="100%" />
  <use
     id="use1362"
     inkscape:spray-origin="#path826"
     xlink:href="#path826"
     transform="matrix(1.1853586,-0.01528033,0.01528033,1.1853586,0.01845526,35.246292)"
     style="stroke-width:0.84355646"
     x="0"
     y="0"
     width="100%"
     height="100%" />
  <use
     id="use1364"
     inkscape:spray-origin="#path826"
     xlink:href="#path826"
     transform="matrix(1.2817422,-0.0486071,0.0486071,1.2817422,-2.0826893,33.519432)"
     style="stroke-width:0.77962768"
     x="0"
     y="0"
     width="100%"
     height="100%" />
  <use
     id="use1366"
     inkscape:spray-origin="#path826"
     xlink:href="#path826"
     transform="matrix(1.068187,-0.00378827,0.00378827,1.068187,-0.35615288,47.745439)"
     style="stroke-width:0.93615985"
     x="0"
     y="0"
     width="100%"
     height="100%" />
  <use
     id="use1368"
     inkscape:spray-origin="#path826"
     xlink:href="#path826"
     transform="matrix(0.7986351,-5.1087267e-4,5.1087267e-4,0.7986351,4.2230089,61.632311)"
     style="stroke-width:1.25213599"
     x="0"
     y="0"
     width="100%"
     height="100%" />
  <use
     id="use1370"
     inkscape:spray-origin="#path826"
     xlink:href="#path826"
     transform="matrix(1.2539834,-0.03109823,0.03109823,1.2539834,-4.2465706,48.436486)"
     style="stroke-width:0.79721355"
     x="0"
     y="0"
     width="100%"
     height="100%" />
  <use
     id="use1372"
     inkscape:spray-origin="#path826"
     xlink:href="#path826"
     transform="matrix(1.0148633,-0.01020356,0.01020356,1.0148633,-0.41560055,63.245568)"
     style="stroke-width:0.98530459"
     x="0"
     y="0"
     width="100%"
     height="100%" />
  <use
     id="use1374"
     inkscape:spray-origin="#path826"
     xlink:href="#path826"
     transform="matrix(0.70020957,0.02850937,-0.02850937,0.70020957,6.7251065,72.885856)"
     style="stroke-width:1.42696154"
     x="0"
     y="0"
     width="100%"
     height="100%" />
  <use
     id="use1376"
     inkscape:spray-origin="#path826"
     xlink:href="#path826"
     transform="matrix(1.2113282,-0.02653843,0.02653843,1.2113282,-4.6374097,69.803537)"
     style="stroke-width:0.825342"
     x="0"
     y="0"
     width="100%"
     height="100%" />
  <use
     id="use1378"
     inkscape:spray-origin="#path826"
     xlink:href="#path826"
     transform="matrix(1.1443623,0.02091095,-0.02091095,1.1443623,-1.2005611,72.746716)"
     style="stroke-width:0.8737033"
     x="0"
     y="0"
     width="100%"
     height="100%" />
  <use
     id="use1380"
     inkscape:spray-origin="#path826"
     xlink:href="#path826"
     transform="matrix(1.2452137,-0.06222277,0.06222277,1.2452137,-14.058632,52.889488)"
     style="stroke-width:0.80207425"
     x="0"
     y="0"
     width="100%"
     height="100%" />
  <use
     id="use1390"
     inkscape:spray-origin="#path826"
     xlink:href="#path826"
     transform="matrix(1.2957481,0.08084021,-0.08084021,1.2957481,-10.351419,32.620084)"
     style="stroke-width:0.77025735"
     x="0"
     y="0"
     width="100%"
     height="100%" />
  <use
     id="use1396"
     inkscape:spray-origin="#path826"
     xlink:href="#path826"
     transform="matrix(1.2493543,0.04984952,-0.04984952,1.2493543,-9.2934155,30.236484)"
     style="stroke-width:0.79977703"
     x="0"
     y="0"
     width="100%"
     height="100%" />
  <use
     id="use1400"
     inkscape:spray-origin="#path826"
     xlink:href="#path826"
     transform="matrix(1.2047934,0.02333244,-0.02333244,1.2047934,-7.6394755,28.997508)"
     style="stroke-width:0.82986224"
     x="0"
     y="0"
     width="100%"
     height="100%" />
  <use
     id="use1402"
     inkscape:spray-origin="#path826"
     xlink:href="#path826"
     transform="matrix(1.0747099,0.01031374,-0.01031374,1.0747099,-6.8852105,24.217518)"
     style="stroke-width:0.93044078"
     x="0"
     y="0"
     width="100%"
     height="100%" />
  <use
     id="use1404"
     inkscape:spray-origin="#path826"
     xlink:href="#path826"
     transform="matrix(1.2007146,-0.07105342,0.07105342,1.2007146,-10.952608,19.277264)"
     style="stroke-width:0.83138299"
     x="0"
     y="0"
     width="100%"
     height="100%" />
  <use
     id="use1406"
     inkscape:spray-origin="#path826"
     xlink:href="#path826"
     transform="matrix(0.80093785,0.05037164,-0.05037164,0.80093785,0.91406454,28.427747)"
     style="stroke-width:1.24607456"
     x="0"
     y="0"
     width="100%"
     height="100%" />
  <use
     id="use1408"
     inkscape:spray-origin="#path826"
     xlink:href="#path826"
     transform="matrix(0.72216989,0.00940137,-0.00940137,0.72216989,-3.3058786,25.211748)"
     style="stroke-width:1.38459837"
     x="0"
     y="0"
     width="100%"
     height="100%" />
  <use
     id="use1410"
     inkscape:spray-origin="#path826"
     xlink:href="#path826"
     transform="matrix(1.296327,0.01437106,-0.01437106,1.296327,-11.859056,14.938542)"
     style="stroke-width:0.77136284"
     x="0"
     y="0"
     width="100%"
     height="100%" />
  <use
     id="use1412"
     inkscape:spray-origin="#path826"
     xlink:href="#path826"
     transform="matrix(0.8724671,-0.0090283,0.0090283,0.8724671,-5.6306021,26.562162)"
     style="stroke-width:1.14611363"
     x="0"
     y="0"
     width="100%"
     height="100%" />
  <use
     id="use1414"
     inkscape:spray-origin="#path826"
     xlink:href="#path826"
     transform="matrix(1.2435604,0.07071418,-0.07071418,1.2435604,-9.046968,3.2971342)"
     style="stroke-width:0.80284578"
     x="0"
     y="0"
     width="100%"
     height="100%" />
  <use
     id="use1416"
     inkscape:spray-origin="#path826"
     xlink:href="#path826"
     transform="matrix(1.05101,-0.00816492,0.00816492,1.05101,-7.979687,10.944904)"
     style="stroke-width:0.95143706"
     x="0"
     y="0"
     width="100%"
     height="100%" />
  <use
     id="use1418"
     inkscape:spray-origin="#path826"
     xlink:href="#path826"
     transform="matrix(1.0530191,0.05850221,-0.05850221,1.0530191,-7.1539871,7.7581185)"
     style="stroke-width:0.94818819"
     x="0"
     y="0"
     width="100%"
     height="100%" />
  <use
     id="use1420"
     inkscape:spray-origin="#path826"
     xlink:href="#path826"
     transform="matrix(0.70371345,0.02743366,-0.02743366,0.70371345,-1.9029724,17.168249)"
     style="stroke-width:1.4199543"
     x="0"
     y="0"
     width="100%"
     height="100%" />
  <use
     id="use1422"
     inkscape:spray-origin="#path826"
     xlink:href="#path826"
     transform="matrix(0.9777822,0.05408981,-0.05408981,0.9777822,-5.2537895,3.5271532)"
     style="stroke-width:1.02116132"
     x="0"
     y="0"
     width="100%"
     height="100%" />
  <use
     id="use1424"
     inkscape:spray-origin="#path826"
     xlink:href="#path826"
     transform="matrix(0.75404274,-0.01962009,0.01962009,0.75404274,-3.4721853,10.927376)"
     style="stroke-width:1.32573605"
     x="0"
     y="0"
     width="100%"
     height="100%" />
  <use
     id="use1426"
     inkscape:spray-origin="#path826"
     xlink:href="#path826"
     transform="matrix(0.74186865,0.02425753,-0.02425753,0.74186865,0.81308313,28.884362)"
     style="stroke-width:1.34722745"
     x="0"
     y="0"
     width="100%"
     height="100%" />
  <use
     id="use1428"
     inkscape:spray-origin="#path826"
     xlink:href="#path826"
     transform="matrix(0.96531326,0.00498967,-0.00498967,0.96531326,-4.0130686,28.15747)"
     style="stroke-width:1.03591931"
     x="0"
     y="0"
     width="100%"
     height="100%" />
  <use
     id="use1430"
     inkscape:spray-origin="#path826"
     xlink:href="#path826"
     transform="matrix(0.85699393,-0.01992575,0.01992575,0.85699393,-3.6927927,52.216914)"
     style="stroke-width:1.16655409"
     x="0"
     y="0"
     width="100%"
     height="100%" />
  <use
     id="use1438"
     inkscape:spray-origin="#path826"
     xlink:href="#path826"
     transform="matrix(1.2864898,0.06317473,-0.06317473,1.2864898,-5.1242094,64.966291)"
     style="stroke-width:0.77637339"
     x="0"
     y="0"
     width="100%"
     height="100%" />
  <use
     id="use1440"
     inkscape:spray-origin="#path826"
     xlink:href="#path826"
     transform="matrix(0.76580131,-0.02919377,0.02919377,0.76580131,2.305963,84.05169)"
     style="stroke-width:1.30487394"
     x="0"
     y="0"
     width="100%"
     height="100%" />
  <use
     id="use1442"
     inkscape:spray-origin="#path826"
     xlink:href="#path826"
     transform="matrix(0.75209402,-0.02942061,0.02942061,0.75209402,3.0423718,77.100328)"
     style="stroke-width:1.32860482"
     x="0"
     y="0"
     width="100%"
     height="100%" />
  <use
     id="use1444"
     inkscape:spray-origin="#path826"
     xlink:href="#path826"
     transform="matrix(0.70165849,-0.00685931,0.00685931,0.70165849,4.3096763,78.255572)"
     style="stroke-width:1.42512667"
     x="0"
     y="0"
     width="100%"
     height="100%" />
  <use
     id="use1446"
     inkscape:spray-origin="#path826"
     xlink:href="#path826"
     transform="matrix(0.81099671,0.00731772,-0.00731772,0.81099671,2.181842,73.760264)"
     style="stroke-width:1.2330004"
     x="0"
     y="0"
     width="100%"
     height="100%" />
  <path
     style="opacity:1;vector-effect:none;fill:#bfa055;fill-opacity:1;stroke:none;stroke-width:1;stroke-linecap:butt;stroke-linejoin:miter;stroke-miterlimit:4;stroke-dasharray:none;stroke-dashoffset:0;stroke-opacity:1;paint-order:stroke fill markers"
     d="m 17.627118,82.237282 a 3.9322033,4.2711864 0 0 1 -3.932203,4.271186 3.9322033,4.2711864 0 0 1 -3.9322035,-4.271186 3.9322033,4.2711864 0 0 1 3.9322035,-4.271187 3.9322033,4.2711864 0 0 1 3.932203,4.271187 z"
     id="path1448" />
</svg>
