<?xml version="1.0" encoding="utf-8"?>
<!-- Generator: Adobe Illustrator 19.2.1, SVG Export Plug-In . SVG Version: 6.00 Build 0)  -->
<svg version="1.1" id="图层_1" xmlns="http://www.w3.org/2000/svg" xmlns:xlink="http://www.w3.org/1999/xlink" x="0px" y="0px"
	 viewBox="0 0 128 128" style="enable-background:new 0 0 128 128;" xml:space="preserve">
<g>
	<g>
		<path style="fill:#FFB74D;" d="M94.72,31.3c-9.74,0-17.63,7.89-17.63,17.62c0,9.74,7.89,17.64,17.63,17.64
			c9.74,0,17.63-7.89,17.63-17.64C112.36,39.19,104.46,31.3,94.72,31.3"/>
		<path style="fill:#FFB74D;" d="M90.93,28.08L90.93,28.08h7.59c0.35,0,0.68-0.17,0.88-0.46c0.2-0.28,0.24-0.65,0.12-0.98
			l-3.79-10.28c-0.16-0.42-0.56-0.71-1.01-0.71c-0.45,0-0.85,0.28-1,0.71l-3.8,10.28c-0.12,0.33-0.07,0.7,0.12,0.98
			C90.25,27.92,90.58,28.08,90.93,28.08"/>
		<path style="fill:#FFB74D;" d="M112.15,36.88c0.2,0.2,0.47,0.32,0.76,0.32c0.07,0,0.12-0.01,0.19-0.02
			c0.34-0.06,0.64-0.29,0.78-0.61l4.59-9.96c0.18-0.41,0.1-0.89-0.21-1.21c-0.32-0.32-0.8-0.4-1.21-0.22l-9.96,4.6
			c-0.31,0.14-0.54,0.43-0.6,0.78c-0.06,0.34,0.05,0.69,0.3,0.95L112.15,36.88z"/>
		<path style="fill:#FFB74D;" d="M127.3,47.92l-10.29-3.79c-0.33-0.12-0.69-0.07-0.98,0.13c-0.29,0.2-0.46,0.52-0.46,0.88l0,7.59
			c0,0.35,0.17,0.68,0.46,0.88c0.18,0.12,0.39,0.19,0.61,0.19c0.13,0,0.25-0.02,0.37-0.06l10.29-3.79c0.42-0.16,0.7-0.56,0.7-1.01
			C128,48.48,127.72,48.08,127.3,47.92"/>
		<path style="fill:#FFB74D;" d="M113.87,61.29c-0.14-0.32-0.44-0.55-0.78-0.61c-0.34-0.05-0.7,0.05-0.94,0.3l-5.36,5.37
			c-0.25,0.25-0.36,0.6-0.3,0.95c0.06,0.35,0.29,0.64,0.6,0.79l9.97,4.59c0.14,0.07,0.29,0.1,0.45,0.1c0.28,0,0.55-0.11,0.76-0.31
			c0.32-0.32,0.4-0.79,0.21-1.2L113.87,61.29z"/>
		<path style="fill:#FFB74D;" d="M98.52,69.77L98.52,69.77l-7.59,0c-0.35,0-0.68,0.17-0.88,0.46c-0.2,0.29-0.25,0.66-0.13,0.99
			l3.8,10.28c0.16,0.42,0.55,0.7,1,0.7c0.45,0,0.85-0.28,1.01-0.7l3.79-10.29c0.12-0.33,0.07-0.7-0.13-0.99
			C99.2,69.94,98.87,69.77,98.52,69.77"/>
		<path style="fill:#FFB74D;" d="M77.3,60.98c-0.25-0.25-0.6-0.36-0.94-0.3c-0.35,0.06-0.64,0.29-0.79,0.61l-4.59,9.96
			c-0.19,0.41-0.1,0.89,0.22,1.21c0.2,0.21,0.47,0.31,0.75,0.31c0.15,0,0.3-0.03,0.45-0.09l9.96-4.59c0.32-0.15,0.55-0.44,0.61-0.79
			c0.06-0.35-0.05-0.7-0.3-0.95L77.3,60.98z"/>
		<path style="fill:#FFB74D;" d="M72.81,53.79c0.21,0,0.43-0.06,0.61-0.19c0.28-0.2,0.46-0.53,0.46-0.88l0-7.59
			c0-0.35-0.17-0.68-0.46-0.88c-0.29-0.2-0.66-0.25-0.98-0.13l-10.29,3.8c-0.42,0.16-0.7,0.56-0.7,1.01c0,0.44,0.28,0.85,0.7,1
			l10.29,3.79C72.56,53.77,72.69,53.79,72.81,53.79"/>
		<path style="fill:#FFB74D;" d="M75.57,36.56c0.15,0.32,0.44,0.54,0.78,0.61c0.07,0.01,0.13,0.01,0.19,0.01
			c0.28,0,0.55-0.11,0.76-0.31l5.37-5.37c0.25-0.25,0.36-0.6,0.3-0.95c-0.06-0.34-0.29-0.63-0.61-0.78l-9.96-4.59
			c-0.41-0.18-0.89-0.1-1.21,0.22c-0.32,0.32-0.4,0.8-0.22,1.21L75.57,36.56z"/>
	</g>
	<g>
		<path style="fill:#E3EBEE;" d="M105.88,61.54c0,0-0.01,0-0.01,0c0-0.07,0.01-0.13,0.01-0.2c0-9.27-7.51-16.78-16.78-16.78
			c-1.19,0-2.35,0.13-3.48,0.37c-3.32-8.09-11.27-13.79-20.56-13.79c-6.97,0-13.19,3.22-17.27,8.24c-2.62-1.33-5.58-2.1-8.73-2.1
			c-10.04,0-18.28,7.65-19.24,17.43C8.9,55.29,0.15,64.24,0,75.34C-0.15,86.91,9.11,96.4,20.68,96.55c0.9,0.01,1.78-0.05,2.65-0.15
			c4.47,9.42,14.06,15.94,25.19,15.94c6.71,0,12.86-2.37,17.67-6.32c3.68,2.72,8.21,4.35,13.14,4.35c10.11,0,18.61-6.78,21.26-16.04
			c1.67,0.55,3.44,0.86,5.29,0.86c9.29,0,16.83-7.53,16.83-16.83C122.71,69.08,115.17,61.54,105.88,61.54z"/>
		<path style="fill:#B9CDD2;" d="M115.77,64.75c3.81,3.85,1.12,12.68-1.51,15.56c-5.16,5.65-14.63,4.33-18.43,3.52
			c-1.03-0.22-1.19-0.15-1.53,0.06c-0.3,0.18-0.44,0.47-0.76,1.17c-1.23,2.64-4.38,7.75-11.05,9.81
			c-6.95,2.15-13.51-1.12-16.58-3.08c-1.16-0.74-1.21-0.76-1.74-0.75c-0.53,0.01-1.06,0.4-1.69,0.89
			c-2.77,2.18-9.11,6.03-18.88,5.47c-9.58-0.55-15.06-6.45-16.93-9.49c-0.36-0.58-0.75-1.07-1.19-1.12
			c-0.51-0.05-1.08,0.48-1.51,0.9c-4.08,3.97-16.89,5.16-21.15-1.6c4.32,6.94,11.01,10.37,17.86,10.46c0.9,0.01,1.78-0.05,2.65-0.15
			c4.47,9.42,14.06,15.94,25.19,15.94c6.71,0,12.86-2.37,17.67-6.32c3.68,2.72,8.21,4.35,13.14,4.35c10.11,0,18.61-6.78,21.26-16.04
			c1.67,0.55,3.44,0.86,5.29,0.86c9.29,0,16.83-7.53,16.83-16.83C122.71,73.42,120.22,67.84,115.77,64.75z"/>
	</g>
</g>
</svg>
