<?xml version="1.0" encoding="utf-8"?>
<!-- Generator: Adobe Illustrator 19.2.1, SVG Export Plug-In . SVG Version: 6.00 Build 0)  -->
<svg version="1.1" id="レイヤー_1" xmlns="http://www.w3.org/2000/svg" xmlns:xlink="http://www.w3.org/1999/xlink" x="0px"
	 y="0px" viewBox="0 0 128 128" style="enable-background:new 0 0 128 128;" xml:space="preserve">
<g>
	<rect x="19.91" y="88.65" style="fill:#40C0E7;" width="59.85" height="39.35"/>
	<rect x="96.32" y="32.1" style="fill:#78A3AD;" width="9.48" height="5.71"/>
	<rect x="96.32" y="98.68" style="fill:#78A3AD;" width="9.48" height="5.71"/>
	<polygon style="fill:#40C0E7;" points="91.72,95.08 91.72,29.56 9.91,29.56 9.91,98.87 9.53,98.87 9.53,124.25 34.14,124.25 
		34.14,102.28 68.23,102.28 68.23,124.62 94.36,124.62 94.36,95.08 	"/>
	<path style="fill:#ED6C30;" d="M102.74,104.4v7.78c0,0.9,2.19,3.1,4.87,3.1h12.9c2.68,0,4.88-2.2,4.88-4.89V30.36
		c0-2.69-2.2-4.88-4.88-4.88h-12.9c-2.68,0-4.87,2.2-4.87,3.09v3.52v5.72v60.87V104.4z"/>
	<path style="fill:#FCC21B;" d="M99.39,128v-23.6v-5.71V37.81V32.1v-2.62c0-4.82-3.94-8.75-8.75-8.75H11.36
		c-4.81,0-8.75,3.94-8.75,8.75V128h34.51v-13.99l0,0c0-0.02,0-0.04,0-0.06c0-3.44,28.35-3.44,28.35,0c0,0.02-0.01,0.04-0.01,0.06
		h0.01V128H99.39z M14.18,34.92H26.5V49.8H14.18V34.92z M14.18,58.57H26.5v14.88H14.18V58.57z M14.18,82.21H26.5v14.88H14.18V82.21z
		 M31.57,118.72H14.08v-12.71h17.49V118.72z M47.15,97.09H34.82V82.21h12.33V97.09z M47.15,73.44H34.82V58.57h12.33V73.44z
		 M47.15,49.8H34.82V34.92h12.33V49.8z M76.1,34.92h12.33V49.8H76.1V34.92z M76.1,58.57h12.33v14.88H76.1V58.57z M76.1,82.21h12.33
		v14.88H76.1V82.21z M70.81,106.01h17.48v12.71H70.81V106.01z M55.46,34.92h12.32V49.8H55.46V34.92z M55.46,58.57h12.32v14.88H55.46
		V58.57z M55.46,97.09V82.21h12.32v14.88H55.46z"/>
</g>
</svg>
