<svg xmlns="http://www.w3.org/2000/svg" viewBox="0 0 128 128"><path d="M22 49h-3V25.42c.03-6.21 1-17.36 11.59-19.8 3.72-.86 6.76-.34 9.26 1.54 4.75 3.56 5.09 10.25 5.11 10.55v20.28H42V18.27s-.52-5.92-4.08-8.57c-1.72-1.29-4.05-1.62-6.81-.98-4.37 1.01-7.01 3.87-8.36 8.78-1.07 3.88-.61 8-.75 7.85V49z" fill="#ed6c30"/><path fill="#ed6c30" d="M8.77 38.68l43.67-11.71 6.78 2.24 7.93-.61-38.97 11.14z"/><path d="M31.35 120.87l-10.15-3.63c-.6-.21-1.25-.24-1.86-.08l-7.63 2c-1.45.38-2.88-.72-2.88-2.22V38.51l14.97-.67c.37-.02.74.06 1.08.23l3.3 1.67 3.17 81.13z" fill="#fbc21a"/><path d="M28.18 39.74v77.95c0 2.2 2.17 3.73 4.24 3l32.61-11.56a3.182 3.182 0 0 0 2.12-3V28.55L28.18 39.74z" fill="#f79329"/><path d="M35 52h-3V30.25c0-.62-.12-5.62 1.15-10.98C35 11.5 39.25 6.77 45.28 5.6c4.27-.83 7.76-.14 10.29 2.07 4.55 3.96 4.23 11.24 4.21 11.55L59.81 46H57V19.16c0-.14.08-6.19-3.3-9.12-1.76-1.52-4.39-1.97-7.64-1.34C34.45 10.96 34.99 30 35 30.2V52z" fill="#f79329"/><path d="M56.92 57.42l-14.58 4.66a2.23 2.23 0 0 1-2.85-2.14v-3.77c0-.99.66-1.87 1.61-2.14l14.58-4.66a2.23 2.23 0 0 1 2.85 2.14v3.77c0 .99-.66 1.86-1.61 2.14z" fill="#fbc21a"/><path d="M116.09 120.61H60.87c-2.57 0-4.94-1.62-4.94-4.19V46.09H121v70.33c0 2.57-2.34 4.19-4.91 4.19z" fill="#bdcf46"/><path d="M120.95 103.15v13.25c0 2.58-2.34 4.2-4.92 4.2H60.82c-2.57 0-4.94-1.62-4.94-4.2v-13.25h65.07z" fill="#95ad32"/><path fill="#454c29" d="M55.93 35.43h65.05v10.66H55.93z"/><path d="M60.54 38.1l2.57 1.49c.91.53.91 1.84 0 2.37l-2.56 1.48-4.62 2.66-.01-5.33-.01-5.33 4.63 2.66zM116.36 38.1l-2.56 1.48a1.38 1.38 0 0 0 0 2.39l2.55 1.47 4.62 2.66.01-5.33.01-5.33-4.63 2.66z" fill="#757f3f"/><path d="M107.7 35.84h-3.33v-9.29c0-8.8-7.19-15.97-16.03-15.97s-16.03 7.16-16.03 15.97v9.29h-3.33v-9.29c0-10.64 8.68-19.29 19.36-19.29s19.36 8.65 19.36 19.29v9.29z" fill="#454c29"/><path fill="#fbc21a" d="M28.17 106.73v-3.3l27.72-9.36v3.27z"/><path fill="#95ad32" d="M60.75 46.08h4.95v57.07h-4.95zM80.87 46.08h4.95v57.07h-4.95zM90.93 46.08h4.95v57.07h-4.95zM100.99 46.08h4.95v57.07h-4.95zM70.81 46.08h4.95v57.07h-4.95zM111.05 46.08H116v57.07h-4.95z"/><path d="M106.79 54.36h-3.17v-18.4c0-8.39-6.86-15.22-15.28-15.22s-15.28 6.83-15.28 15.22v18.41h-3.17V35.96c0-10.14 8.28-18.39 18.45-18.39s18.45 8.25 18.45 18.39v18.4z" fill="#757f3f"/><circle cx="71.29" cy="55.6" r="2.91" fill="#757f3f"/><circle cx="105.12" cy="55.6" r="3" fill="#757f3f"/></svg>