<svg width="128" height="128" xmlns="http://www.w3.org/2000/svg" xmlns:xlink="http://www.w3.org/1999/xlink"><linearGradient id="a" gradientUnits="userSpaceOnUse" x1="30.917" x2="30.917" y1="69.406" y2="95.406"><stop offset=".55" stop-color="#ba8d68"/><stop offset=".83" stop-color="#a47b62"/><stop offset="1" stop-color="#99674f"/></linearGradient><circle cx="30.92" cy="82.41" r="13" fill="url(#a)"/><linearGradient id="b" gradientUnits="userSpaceOnUse" x1="17.917" x2="43.917" y1="82.406" y2="82.406"><stop offset="0" stop-color="#91674d"/><stop offset="1" stop-color="#875740"/></linearGradient><path d="M30.92 70.41c6.62 0 12 5.38 12 12s-5.38 12-12 12-12-5.38-12-12 5.38-12 12-12m0-1c-7.18 0-13 5.82-13 13s5.82 13 13 13 13-5.82 13-13-5.82-13-13-13z" fill="url(#b)"/><defs><path id="c" d="M40.79 73.84l-.95.38a21.234 21.234 0 0 1-9.45 2.22h-1.1c.61 4.2.49 8.46-.34 12.62l-.1.5-2.15 5.51s-10.1-1.58-10.1-12.33c0-8.72 4.65-14.17 13.41-14.17 8.01.01 10.78 5.27 10.78 5.27z"/></defs><clipPath id="d"><use xlink:href="#c" overflow="visible"/></clipPath><g clip-path="url(#d)"><radialGradient id="e" cx="28.843" cy="81.829" gradientUnits="userSpaceOnUse" r="12.758"><stop offset="0" stop-color="#6d4c41"/><stop offset="1" stop-color="#523329"/></radialGradient><path d="M41.09 74.32s-.73 1.45-4.35 2.31c-3.22.77-6.45.85-6.45.85s.71 4.32.16 8.97c-.55 4.65-3.76 8.63-3.76 8.63s-10.1-1.58-10.1-12.33c0-8.72 4.65-14.17 13.41-14.17 8.02 0 11.09 5.74 11.09 5.74z" fill="url(#e)"/></g><g clip-path="url(#d)"><path d="M30 69.58c5.9 0 8.87 3.28 9.84 4.63-.47.39-1.45.99-3.33 1.44-3.08.73-6.22.82-6.25.82l-1.15.03.19 1.13c.01.04.68 4.25.15 8.69-.4 3.4-2.37 6.48-3.19 7.64-2.04-.51-8.68-2.8-8.68-11.22C17.59 74.26 22 69.58 30 69.58m0-1c-8.76 0-13.41 5.45-13.41 14.17 0 10.75 10.1 12.33 10.1 12.33s3.21-3.98 3.76-8.63-.16-8.97-.16-8.97 3.23-.08 6.45-.85c3.62-.86 4.35-2.31 4.35-2.31S38.02 68.58 30 68.58z" fill="#402821"/></g><linearGradient id="f" gradientUnits="userSpaceOnUse" x1="24" x2="24" y1="88" y2="103.989"><stop offset="0" stop-color="#ffee58"/><stop offset="1" stop-color="#fdd835"/></linearGradient><path d="M40 103.99H8V88h26c3.31 0 6 2.69 6 6v9.99z" fill="url(#f)"/><path d="M124 113.64H8V100h110c3.31 0 6 2.69 6 6v7.64z" fill="#fff9c4"/><path d="M34 90c2.21 0 4 1.79 4 4v7.99H10V90h24m0-2H8v15.99h32V94c0-3.31-2.69-6-6-6z" fill="#424242" opacity=".2"/><path fill="#795548" d="M10 123.95H4v-11.97h12z"/><path d="M118 102c2.21 0 4 1.79 4 4v5.64H10V102h108m0-2H8v13.64h116V106c0-3.31-2.69-6-6-6z" fill="#424242" opacity=".2"/><path fill="#795548" d="M118 123.95h6v-11.97h-12zM12.13 115.97H4V68.05c0-2.24 1.82-4.06 4.06-4.06 2.24 0 4.06 1.82 4.06 4.06v47.92z"/><linearGradient id="g" gradientUnits="userSpaceOnUse" x1="78.422" x2="78.422" y1="76" y2="114.75"><stop offset=".47" stop-color="#9ccc65"/><stop offset=".691" stop-color="#7cb342"/></linearGradient><path d="M124 114.75H32.84l.12-12.72c.03-2.79.62-5.55 1.79-8.09C37.7 87.54 44.1 76 51.93 76h41.39C115 76 124 93.69 124 99.34v15.41z" fill="url(#g)"/><g opacity=".2"><path d="M93.32 78C113.37 78 122 94.2 122 99.34v13.41H34.86l.1-10.7c.02-2.56.57-5.01 1.61-7.27C43.54 79.63 49.63 78 51.93 78h41.39m0-2H51.93C44.1 76 37.7 87.54 34.76 93.94c-1.17 2.54-1.77 5.3-1.79 8.09l-.12 12.72H124V99.34C124 93.68 115 76 93.32 76z" fill="#424242"/></g><path fill="#795548" d="M4 110.1h120v5.86H4z"/><g opacity=".2"><path d="M8 65.98c1.12 0 2 .91 2 2.06V110c0 1.1.9 2 2 2h110v10h-2.76l-3.45-6.89A2 2 0 0 0 114 114H14a2 2 0 0 0-1.79 1.11L8.76 122H6V68.05c0-1.16.88-2.07 2-2.07m0-2c-2.24 0-4 1.82-4 4.06V124h6l4-8h100l4 8h6v-14H12V68.05c0-2.25-1.76-4.07-4-4.07z" fill="#424242"/></g></svg>