<?xml version="1.0" encoding="utf-8"?>
<!-- Generator: Adobe Illustrator 19.2.1, SVG Export Plug-In . SVG Version: 6.00 Build 0)  -->
<svg version="1.1" id="Layer_1" xmlns="http://www.w3.org/2000/svg" xmlns:xlink="http://www.w3.org/1999/xlink" x="0px" y="0px"
	 viewBox="0 0 128 128" style="enable-background:new 0 0 128 128;" xml:space="preserve">
<g>
	<path style="fill:#FAC036;" d="M108.96,50.12c0,0-0.49-4.08-7.15-8.33c-0.09-1.17-0.19-2.28-0.32-3.3
		c-0.25-2.01,0.56-9.71-12.82-9.92c-4.31-0.07-6.4,0.91-7.15,3.52c-0.66,0.24-1.76,0.41-2.61-0.66c-1.29-5.97-5.21-9.3-12.54-8.23
		c-8.34,1.22-10.17,4.43-10.94,8.22h-0.05c0,0-1.52,2.07-3.07,0.94c-0.9-2.5-2.99-3.69-7.66-3.18
		c-12.55,1.35-12.34,9.55-12.89,13.97c-0.39,0.22-0.86,0.28-1.4-0.07c-0.8-1.29-2.28-2.11-4.91-2.11c-6.25,0-10.63,9.28-10.94,12.97
		c-0.34,4.02,1.41,19.75,2.43,24.48c1.03,4.72,6.83,7.71,11.46,6.05c3.34-1.2,6.04-2.36,3.85-9.2c-0.06-0.19-0.13-0.43-0.21-0.68
		l1.17,0.16c0.61,4.84,2.38,10.61,9.46,10.57c3.56-0.02,7.91-2.2,8.45-8.16l3.86,0.52c0.04,0.49,0.09,0.99,0.13,1.48
		c0.55,5.8,7.42,7.79,11.97,7.8l-3.35,1.13l-4.37-0.55c0,0-8.66,1.96-6.45,10.83c1.28,5.16,6.21,5.26,13.91,6.31
		c5.83,0.79,30.93,0.23,33.33-3.1c0,0,11.64-11.96,13.12-21.83C114.25,73.28,112.25,61.23,108.96,50.12z"/>
	<path style="fill:#E48C15;" d="M104.62,43.85c0,0-2.38-1.73-2.81-2.04c0.66,8.85,0.28,21.28,0.08,26.35
		c-0.32,8.1-1.64,15.45-9.97,16.53c-3.84,0.5-6.46-0.59-7.95-2.53c-1.06-2.71-0.93-6.94-0.93-6.94c0.33-18.48-0.94-28.59-0.94-28.59
		c-0.18-0.91-0.19-3.52-1.22-5.38c-1.32-2.39-1.96,0.13-1.96,0.13c1.02,19.06,0.13,33.28,0.13,33.28c-0.1,5.56-2.21,8.31-3.82,9.61
		c-1.91,1.6-8,1.93-8,1.93c-12.1,0.25-12.17-9.31-12.17-9.31s-1.52-9.63-0.97-31.24c0,0-0.08-3.08-1.83-1.97c0,0-1.1,3.07-1.31,6.48
		c0,0-1.43,11.91,0.12,27.39c-0.69,5.68-4.92,7.77-8.4,7.79c-4.24,0.02-6.57-2.05-7.89-4.75c-0.88-3.09-2.52-11.05-2.35-27.23
		c0,0,0.4-3.82-0.84-3.13c0,0-1.15,0.41-1.97,6.22c0,0-1.15,8.32,0.53,21.24c0.54,4.94-0.72,6.46-2.33,6.95
		c-3.57,0.97-7.66-0.63-9.71-3.58c1.56,2.89,4.79,7.11,10.36,6.89c0,0,3.72-0.43,5.1-2.31c3.07,5.05,11.88,3.89,11.88,3.89
		c4.16-0.57,6.33-2.64,7.47-4.83c0,0,0.01,0.01,0.01,0.01c3.94,6.9,14.29,6.36,14.29,6.36c8.83,0,12.41-3.23,13.87-5.86
		c2.22,4.1,7.42,4.93,7.42,4.93c9.43,0.92,13.38-6.55,13.38-6.55C107.23,73.31,105.54,53.31,104.62,43.85z"/>
</g>
</svg>
