<svg width="128" height="128" style="enable-background:new 0 0 128 128;" xmlns="http://www.w3.org/2000/svg" xmlns:xlink="http://www.w3.org/1999/xlink">
  <g>
    <g>
      <g>
        <defs>
          <path id="SVGID_1_" d="M37.4,13.08c0-1.72-1.4-3.13-3.12-3.13H22.65c-1.72,0-3.12,1.41-3.12,3.13v112.17H37.4V13.08z"/>
        </defs>
        <use style="overflow:visible;fill:#ED6C30;" xlink:href="#SVGID_1_"/>
        <clipPath id="SVGID_2_">
          <use style="overflow:visible;" xlink:href="#SVGID_1_"/>
        </clipPath>
      </g>
      <g>
        <defs>
          <path id="SVGID_3_" d="M73.09,50.56c0-1.72-1.4-3.13-3.12-3.13H58.35c-1.72,0-3.13,1.41-3.13,3.13v74.69h17.87V50.56z"/>
        </defs>
        <use style="overflow:visible;fill:#006CA2;" xlink:href="#SVGID_3_"/>
        <clipPath id="SVGID_4_">
          <use style="overflow:visible;" xlink:href="#SVGID_3_"/>
        </clipPath>
      </g>
      <g>
        <defs>
          <path id="SVGID_5_" d="M108.79,30.71c0-1.72-1.41-3.13-3.13-3.13H94.03c-1.71,0-3.12,1.41-3.12,3.13v94.53h17.87V30.71z"/>
        </defs>
        <use style="overflow:visible;fill:#FCC21B;" xlink:href="#SVGID_5_"/>
        <clipPath id="SVGID_6_">
          <use style="overflow:visible;" xlink:href="#SVGID_5_"/>
        </clipPath>
      </g>
    </g>
    <path d="M122.63,128H2.76C1.23,128,0,126.77,0,125.24V6.18c0-1.52,1.23-2.76,2.76-2.76 c1.52,0,2.75,1.23,2.75,2.76v116.31h117.12c1.52,0,2.76,1.23,2.76,2.76C125.39,126.77,124.15,128,122.63,128z" style="fill:#2F2F2F;"/>
  </g>
</svg>