<?xml version="1.0" encoding="utf-8"?>
<!-- Generator: Adobe Illustrator 26.3.1, SVG Export Plug-In . SVG Version: 6.00 Build 0)  -->
<svg version="1.1" id="Layer_3" xmlns="http://www.w3.org/2000/svg" xmlns:xlink="http://www.w3.org/1999/xlink" x="0px" y="0px"
	 viewBox="0 0 128 128" style="enable-background:new 0 0 128 128;" xml:space="preserve">
<g>
	<path style="fill:#E6A467;" d="M85.87,74.39c0.04,1.89-0.24,4.05-1.1,6.71c-1.59,4.93-2.67,7.61-6.3,14.25
		c-2.69,4.92-6.02,10.52-7.39,14.77c-2.12,6.58,0.08,11.58,5.59,13.35c5.51,1.77,10.21-1,12.33-7.58
		c1.37-4.25,1.94-10.74,2.62-16.31c0.93-7.51,1.18-10.46,2.77-15.39c0.72-2.22,1.63-4.02,2.63-5.51L85.87,74.39z"/>
	<path style="fill:#E6A467;" d="M68.19,93.59c-1.83-4.07-5.75-9.28-8.97-13.87c-4.34-6.2-6.13-8.56-8.25-13.28
		c-0.76-1.69-1.24-3.25-1.54-4.72l-10.29,4.4c0.91,1.18,1.78,2.62,2.6,4.46c2.12,4.72,3.12,7.44,4.86,14.8
		c1.29,5.46,2.57,11.84,4.4,15.92c2.83,6.3,7.82,8.55,13.09,6.18C69.38,105.11,71.02,99.89,68.19,93.59z"/>
	<path style="fill:#784D30;" d="M49.17,55.72c-0.16,2.48,0.02,6.29,1.37,9.68c-1.24,0.96-2.73,1.86-4.4,2.61
		c-1.67,0.75-3.33,1.26-4.87,1.55c-1.73-3.47-4.04-5.69-6.04-7.17C36.69,60.83,47.05,55.78,49.17,55.72z"/>
	<path style="fill:#7CB342;" d="M49.47,24.47c2.63,6.43,2.82,13.58,1.73,20.37c-0.54,3.98-1.66,7.27-2.09,11.36
		c-3,3.18-9.53,6.1-13.89,6.19c-2.19-1.5-3.42-2.23-5.94-3.82l0,0c-5.28-3.34-10.4-7.13-14.44-11.94c-1.6-1.92-3-4.01-4.04-6.29
		C3.6,24.28,6.7,10.87,18.18,5.71C29.91,0.17,43.03,8.49,49.47,24.47z"/>
	<path style="fill:#784D30;" d="M30.89,4.8c0.92,2.85-2.88,7.16-8.73,9.78c-5.92,2.66-11.73,2.6-13.16-0.07
		c1.86-3.87,4.95-6.89,9.18-8.79C22.36,3.74,26.72,3.53,30.89,4.8z"/>
	<path style="fill:#FFD600;" d="M27.8,57.62c-1.58-1.03-3.14-2.11-4.65-3.26c4.64-0.43,9.87-1.87,14.93-4.14
		c5.35-2.4,10.1-5.54,13.57-8.94c-0.07,1.57-0.65,5.11-0.83,5.91c-3.22,2.5-7.03,4.76-11.13,6.6C35.77,55.55,31.7,56.85,27.8,57.62z
		"/>
	
		<ellipse transform="matrix(0.9123 -0.4095 0.4095 0.9123 -1.4122 8.4323)" style="fill:#88B151;" cx="18.98" cy="7.51" rx="7.04" ry="1.97"/>
	<path style="fill:#FFD600;" d="M7.15,27.87c3.9,0.5,10.73-0.29,18.55-3.8c7.8-3.5,14.08-8.58,16.32-11.83
		c3.2,3.41,5.61,7.64,7.45,12.22c0.86,2.11,1.45,4.29,1.83,6.51c0,0-3.81,6.61-16.31,12.22s-19.6,4.08-19.6,4.08
		c-0.19-0.21-0.38-0.43-0.56-0.65c-1.6-1.92-3-4.01-4.04-6.29C8.95,36.19,7.64,31.99,7.15,27.87z"/>
	<path style="fill:#F4511E;" d="M25.01,30.56c0.84-0.03,1.7-0.07,1.7-0.07s-0.18-0.67-0.42-1.66s0.29-1.96,1.05-2.3
		c0.92-0.42,2.12-0.08,2.58,0.58c0.46,0.66,0.99,1.56,0.99,1.56s0.78-0.81,1.38-1.31c0.6-0.5,1.64-0.58,2.32-0.09
		c0.68,0.49,1.1,1.39,0.68,2.44c-0.33,0.83-0.79,1.55-0.79,1.55s1.29,0.26,1.82,0.44c0.54,0.19,1.27,0.87,1.24,2.05
		c-0.02,0.86-0.48,1.81-1.64,1.9c-0.77,0.06-1.77,0.1-1.77,0.1s0.26,0.88,0.42,1.76c0.16,0.88-0.33,1.59-0.95,1.98
		c-0.8,0.51-2,0.37-2.62-0.43c-0.48-0.62-1.06-1.45-1.06-1.45s-0.73,0.78-1.23,1.2c-0.73,0.62-1.93,0.65-2.63,0.02
		c-0.58-0.52-0.97-1.26-0.6-2.26c0.26-0.7,0.67-1.58,0.67-1.58s-0.89-0.25-1.66-0.51c-0.94-0.32-1.4-1.25-1.24-2.27
		C23.4,31.22,24,30.6,25.01,30.56z"/>
	<path style="fill:#F4511E;" d="M8.96,35.61C8.98,35.6,9,35.59,9.03,35.59l0.9,0.18c0,0-0.14-0.66-0.19-1.6s0.27-1.68,0.87-1.9
		c0.88-0.32,1.48-0.01,1.84,0.68s0.71,1.37,0.71,1.37s0.5-0.49,1.2-1.02c0.7-0.53,1.61-0.35,2.21,0.24c0.52,0.5,0.8,1.62,0.58,2.26
		s-0.65,1.34-0.65,1.34s0.97,0.26,1.59,0.49c0.62,0.23,1.15,1.22,1.15,1.97c0,0.8-0.6,1.5-1.29,1.7c-0.7,0.2-1.63,0.2-1.63,0.2
		s0.38,1.1,0.54,1.91s-0.22,1.58-0.77,1.8c-0.55,0.22-1.46-0.1-1.9-0.72s-0.95-1.34-0.95-1.34s-0.63,0.45-0.64,0.46
		c-0.68-1.04-1.28-2.13-1.8-3.27C10.09,38.73,9.47,37.15,8.96,35.61z"/>
	<path style="fill:#F4511E;" d="M46.68,18.66l-0.57,0.86c0,0-0.38-0.45-1.07-1.21c-0.69-0.76-1.55-0.88-2.21-0.49
		c-0.49,0.28-0.81,0.92-0.5,1.71c0.27,0.69,0.55,1.44,0.55,1.44s-0.74,0.07-1.56,0.22c-0.83,0.15-1.23,0.81-1.29,1.56
		c-0.06,0.79,0.19,1.74,1.14,2.11c0.61,0.24,1.59,0.49,1.59,0.49s-0.44,0.79-0.7,1.52c-0.26,0.73,0.12,1.61,0.65,2.11
		c0.6,0.57,1.56,0.76,2.19,0.22c0.64-0.54,1.23-1.08,1.23-1.08s0.62,1.06,1.07,1.67c0.45,0.62,1.44,0.9,1.98,0.54
		c0.46-0.31,0.72-1.11,0.6-1.83c-0.11-0.72-0.37-1.6-0.37-1.6s0.85-0.16,0.86-0.17c-0.33-1.2-0.84-2.38-1.34-3.52
		C48.23,21.61,47.5,20.07,46.68,18.66z"/>
	<path style="fill:#CCFF90;" d="M14.97,18.27c0.16,0.66,0.1,2.07,0.13,3.08c0.03,1.22,0.35,2.72,0.07,3.4
		c-0.35,0.86-1.47,1.4-2.73,0.97c-0.95-0.32-1.53-1.42-1.75-2.26c-0.26-0.99-0.37-2.64,0-4.09c0.45-1.78,1.73-2.21,2.3-2.2
		C13.86,17.18,14.78,17.5,14.97,18.27z"/>
	<path style="fill:#A65F3E;" d="M15.1,11.81c0.44,0.37,0.47,0.77,0.21,1.87c-0.19,0.79-0.26,1.73-0.92,1.95
		c-1.03,0.35-2.65-0.02-3-0.68c-0.32-0.61-0.13-1.51,0.16-2.13c0.42-0.91,0.9-1.28,1.4-1.41C13.4,11.29,14.88,11.63,15.1,11.81z"/>
	<circle style="fill:#FFD600;" cx="30.41" cy="33.2" r="2.47"/>
	
		<ellipse transform="matrix(0.9419 -0.3358 0.3358 0.9419 -12.2594 6.5749)" style="fill:#FFD600;" cx="12.88" cy="38.73" rx="1.4" ry="2.47"/>
	
		<ellipse transform="matrix(0.8949 -0.4464 0.4464 0.8949 -5.5922 23.1529)" style="fill:#FFD600;" cx="46.35" cy="23.45" rx="1.4" ry="2.47"/>
	<path style="fill:#784D30;" d="M100.23,75.03c-1.78,1.74-4.19,4.69-5.47,8.11c-1.56-0.12-3.27-0.45-5.02-1.01
		c-1.74-0.56-3.32-1.29-4.66-2.11c1.04-3.74,0.8-6.93,0.31-9.37C87.53,70.47,98.61,73.66,100.23,75.03z"/>
	<path style="fill:#7CB342;" d="M121.37,52.02c-2.36,6.54-7,11.98-12.35,16.29c-3.07,2.59-6.1,4.29-9.16,7.04
		c-4.36,0.35-11.17-1.85-14.47-4.7c-0.62-2.58-1.04-3.95-1.86-6.82l0,0c-1.69-6.02-2.95-12.26-2.73-18.54
		c0.09-2.5,0.46-4.99,1.22-7.38c5.4-16.76,16.68-24.64,28.66-20.78C123.11,20.88,127.29,35.84,121.37,52.02z"/>
	<path style="fill:#784D30;" d="M120.74,24.97c-1.23,2.74-6.94,3.39-13.04,1.42c-6.17-1.99-10.45-5.92-9.73-8.87
		c3.97-1.63,8.29-1.81,12.71-0.38C115.11,18.47,118.49,21.24,120.74,24.97z"/>
	<path style="fill:#FFD600;" d="M83.08,62.13c-0.48-1.83-0.92-3.67-1.27-5.53c3.73,2.79,8.58,5.22,13.87,6.92
		c5.58,1.8,11.21,2.65,16.06,2.45c-0.88,0.81-1.78,1.6-2.71,2.35c-0.62,0.53-1.24,1.01-1.86,1.48c-4.07-0.3-8.41-1.17-12.69-2.55
		C90.38,65.93,86.49,64.18,83.08,62.13z"/>
	
		<ellipse transform="matrix(0.3067 -0.9518 0.9518 0.3067 58.2197 117.9555)" style="fill:#88B151;" cx="110.08" cy="19.01" rx="1.97" ry="7.04"/>
	<path style="fill:#FFD600;" d="M87.66,26.21c2.57,2.98,8.17,6.97,16.32,9.6c8.13,2.62,16.21,3.05,20.04,2.14
		c0.09,4.68-0.95,9.43-2.65,14.07c-0.77,2.14-1.79,4.16-3,6.07c0,0-7.25,2.36-20.3-1.84S80.79,46.15,80.79,46.15
		c0-0.29,0.01-0.57,0.02-0.86c0.09-2.5,0.46-4.99,1.22-7.38C83.42,33.6,85.27,29.59,87.66,26.21z"/>
	<path style="fill:#F4511E;" d="M99.05,40.07c0.65,0.42,1.38,1.19,1.38,1.19s0.45-0.99,0.86-1.59c0.61-0.91,1.55-1.2,2.58-0.76
		c0.69,0.3,1.35,1,1.22,1.9c-0.14,0.95-0.31,1.91-0.31,1.91s1.18-0.2,1.86-0.2c0.68,0,1.57,0.28,1.83,1.64
		c0.19,0.97-0.26,1.78-0.94,2.11c-0.68,0.33-1.81,0.78-1.81,0.78s0.71,0.85,1.06,1.55c0.35,0.7,0.15,1.72-0.38,2.29
		c-0.61,0.65-1.88,0.8-2.57,0.38c-0.69-0.41-1.38-1.11-1.38-1.11s-0.36,0.78-0.86,1.59c-0.5,0.81-1.64,1.04-2.46,0.72
		c-0.74-0.29-1.41-1.09-1.33-1.94c0.08-0.85,0.28-1.81,0.28-1.81s-0.81,0.06-1.82,0.1c-1.01,0.04-1.59-0.75-1.8-1.52
		c-0.24-0.85,0.06-1.97,0.96-2.37c0.78-0.35,1.6-0.69,1.6-0.69s-0.43-0.64-0.89-1.5c-0.46-0.86-0.12-1.81,0.48-2.38
		C97.2,39.77,98.4,39.65,99.05,40.07z"/>
	<path style="fill:#F4511E;" d="M83.82,33.17c0.02,0.01,0.62,0.76,0.62,0.76s0.58-0.93,0.93-1.32c0.69-0.77,1.36-1.03,1.95-0.85
		c0.84,0.26,1.02,1.13,0.88,1.76c-0.14,0.63-0.39,1.49-0.39,1.49s1.11,0.01,1.58,0.04c0.46,0.04,1.23,0.28,1.46,1.48
		c0.18,0.92-0.1,1.7-0.92,2.16c-0.46,0.26-1.53,0.66-1.53,0.66s0.54,0.79,0.79,1.31s0.36,1.4-0.29,2.23
		c-0.53,0.68-1.68,0.81-2.2,0.52s-1.34-0.94-1.34-0.94s-0.4,0.79-0.88,1.78c-0.27,0.56-1.27,0.82-2.02,0.37
		c-0.56-0.34-0.72-1.02-0.69-1.36c0.06-0.76,0.19-1.63,0.19-1.63s-0.77-0.09-0.78-0.09c0.2-1.23,0.48-2.44,0.85-3.63
		C82.57,36.24,83.17,34.66,83.82,33.17z"/>
	<path style="fill:#F4511E;" d="M123.21,45.77l-1.01,0.32l0.01-1.61c0.04-0.95-0.41-1.58-0.99-1.77c-1.01-0.32-1.66,0.42-1.84,0.86
		c-0.17,0.44-0.55,1.44-0.55,1.44l-1.31-0.88c-0.8-0.49-1.69-0.21-2.28,0.44c-0.64,0.71-0.58,1.59-0.17,2.33l0.74,1.3
		c0,0-0.96,0.42-1.53,0.66c-0.17,0.07-0.57,0.3-0.78,0.9c-0.35,1.02,0.15,2.65,1.33,2.73l1.64,0.02c0,0-0.24,1.32-0.33,1.96
		s0.18,1.46,0.97,1.7c0.57,0.18,1.35-0.09,1.81-0.92c0.27-0.48,0.8-1.43,0.8-1.43l0.75,0.43c0,0,0.86-1.95,1.47-3.78
		C122.6,48.42,123.21,45.77,123.21,45.77z"/>
	<path style="fill:#CCFF90;" d="M99.75,24.22c-0.23,0.64-0.83,1.17-1.29,1.67c-0.56,0.6-1.07,1.23-1.54,1.91
		c-0.34,0.49-0.97,1.37-1.87,1.43c-0.84,0.06-1.85-0.62-2.26-1.14c-0.56-0.71-0.27-1.69,0.09-2.48c0.63-1.36,1.6-2.6,2.86-3.41
		c0.61-0.4,1.3-0.68,2.02-0.82c0.6-0.11,1.2,0.36,1.55,0.82C99.74,22.77,99.99,23.53,99.75,24.22z"/>
	<path style="fill:#A65F3E;" d="M103.36,18.11c0.2,0.19,0.65,0.66,0.79,1.26s-0.29,1.21-0.72,1.6c-0.6,0.54-1.33,1.11-2.13,0.99
		c-0.69-0.1-1.2-0.69-1.61-1.26c-0.23-0.32-0.67-1.17,0.08-1.87c0.5-0.46,1.06-0.89,1.72-1.1
		C101.92,17.58,102.65,17.44,103.36,18.11z"/>
	<circle style="fill:#FFD600;" cx="101.37" cy="45.74" r="2.47"/>
	
		<ellipse transform="matrix(0.3812 -0.9245 0.9245 0.3812 17.1351 101.8341)" style="fill:#FFD600;" cx="84.64" cy="38.12" rx="2.47" ry="1.4"/>
	
		<ellipse transform="matrix(0.2676 -0.9635 0.9635 0.2676 40.316 151.3791)" style="fill:#FFD600;" cx="119.74" cy="49.17" rx="2.47" ry="1.4"/>
	<path style="fill:#B0BEC5;" d="M10.53,52.66c2.79,3.77,5.91,5.81,9.35,7.5c1.02,0.5,0.7,1.71-0.74,1.71
		c-4.84,0-9.07-2.65-12.33-7.3c-2.39-3.41-3.36-7.84-2.56-11.67c0.23-1.12,1.26-0.76,1.44-0.14C6.53,45.59,6.92,47.78,10.53,52.66z"
		/>
	<path style="fill:#B0BEC5;" d="M60.79,27.12c1.44,6.28-0.52,11.37-2.41,13.68c-0.4,0.49-1.19,0.21-1.12-0.43
		c0.25-2.39,0.87-7.02-0.27-12.7c-1.02-5.05-3.55-8.22-4.81-10.01c-0.35-0.5,0.15-1.17,0.72-0.95
		C55.46,17.73,59.36,20.88,60.79,27.12z"/>
	<path style="fill:#B0BEC5;" d="M73.6,35.22c1.55-5.46,5.52-8.32,8.02-9.42c1.12-0.49,1.81,0.59,0.91,1.43
		c-2.28,2.11-4.05,5.2-5.27,9.28c-1.02,3.41-1.12,9.3-0.59,12.45c0.21,1.26-0.82,1.62-1.43,0.56C73.81,47.04,71.82,41.5,73.6,35.22z
		"/>
	<path style="fill:#B0BEC5;" d="M117.6,74.47c-4.93,3.64-9.74,3.31-11.73,2.78c-1.19-0.31-1.05-1.13-0.15-1.32
		c2.36-0.5,6.71-2.38,9.71-4.82c3.4-2.75,4.88-5.16,5.97-7.22c0.49-0.92,1.3-0.54,1.22,0.4C122.38,66.84,121.87,71.31,117.6,74.47z"
		/>
	<path style="fill:#FFCC80;" d="M52.34,90.19c1.35-0.6,3.42,2.48,4.65,5.16c1.11,2.41,3.07,6.23,0.6,7.67s-4.77-2.17-5.74-6.57
		C51.13,93.17,51.2,90.71,52.34,90.19z"/>
	<path style="fill:#FFCC80;" d="M77.98,104.4c3.48,1.18,0.77,9.54-3.12,8.91S74.5,103.22,77.98,104.4z"/>
	<path style="fill:#B0BEC5;" d="M67.56,25.03c-1.03-4.9-4.26-6.27-5.01-6.74c-0.75-0.48-2.47,0.01-1.33,1.26
		c1.12,1.23,2.71,3.5,3.41,6.46c0.59,2.5,0.34,6.14-0.02,8.29c-0.26,1.55,0.93,1.39,1.58,0.4C66.84,33.71,68.64,30.19,67.56,25.03z"
		/>
</g>
</svg>
