<?xml version="1.0" encoding="utf-8"?>
<!-- Generator: Adobe Illustrator 16.0.0, SVG Export Plug-In . SVG Version: 6.00 Build 0)  -->
<!DOCTYPE svg PUBLIC "-//W3C//DTD SVG 1.1//EN" "http://www.w3.org/Graphics/SVG/1.1/DTD/svg11.dtd">
<svg version="1.1" id="レイヤー_1" xmlns="http://www.w3.org/2000/svg" xmlns:xlink="http://www.w3.org/1999/xlink" x="0px"
	 y="0px" width="128px" height="128px" viewBox="0 0 128 128" enable-background="new 0 0 128 128" xml:space="preserve">
<g>
	<g>
		<g>
			<g>
				<g>
					<g>
						<g>
							<g>
								<g>
									<g>
										<g>
											<g>
												<path fill="#FCD4B5" d="M113.06,69.01c-0.77-14.47-3.09-29.35-14.4-38.6c-9.13-7.48-22.02-11.3-34.64-11.27
													c-12.62-0.03-25.5,3.79-34.64,11.27C18.08,39.67,15.77,54.54,15,69.01c-0.73,13.73,5.53,27.56,14.82,37.1
													c5.14,5.3,11.54,8.87,18.13,10.82c2.5,0.73,8.98,2.46,15.76,2.46c6.79,0,13.9-1.72,16.39-2.46
													c6.6-1.95,12.99-5.53,18.13-10.82C107.53,96.57,113.8,82.74,113.06,69.01z"/>
											</g>
										</g>
									</g>
								</g>
							</g>
						</g>
					</g>
				</g>
				<g>
					<path fill="#F79329" d="M64.22,0.65c1.32,0,2.64,0.02,3.96,0.05c9.38,0.25,17.34,1.97,23.03,4.98
						c6.19,3.27,11.95,7.87,17.11,13.67c11.48,12.89,19.87,31.75,18.33,49.33c-0.5,5.6-1.34,11.35-3.57,16.55
						c-1.96,4.54-6.19,9.72-7.46,14.54c-1.48,5.58,0.6,9.94-0.78,15.55c-1.13,4.56-4.18,8.99-8.67,10.68
						c-4.35,1.64-9.55,2.07-13.64-0.22c-1.78-0.99-4.47-2.92-5.43-4.8c-0.48-0.93-1.04-1.78-1.15-2.84c0.06,0.57,1.91,1.17,2.3,1.28
						c5.05,1.43,10.03-2.46,8.67-7.87c-1.27-5.06-4.26-9.16-2.43-14.54c0.44-1.27,1.3-2.51,2.32-3.93c2.48-3.5,4.14-7.45,4.26-11.78
						c0.13-4.71-1.49-9.34-2.97-13.74l-0.41-1.21c-0.33-1.01-0.74-2-1.29-3.11c-1.65-3.32-6.62-2.97-9.61-4.42
						c-3.87-1.88-6.87-4.85-9.49-8.21c-0.58-0.74-1.18-1.57-1.77-2.28c-0.44-0.53-1.26-1.3-1.94-1.5c-0.05-0.01-0.1-0.02-0.15-0.04
						c-1.14-0.27-2.09,0.32-2.85,1.11c-3.66,3.8-7.11,7.76-11.87,10.35c-3.22,1.75-6.86,2.53-10.42,3.25
						c-6.59,1.3-14.02,2.54-17.88,8.73c-4.17,6.69-3.54,14.54,0.79,20.9l0.09,0.13c1.41,2.05,2.21,4.46,2.53,6.93
						c1.01,7.76-7.18,16.03,1.12,20.41c1.68,0.89,5.65,1.48,7.37,0.62c0.17-0.09,0.4-0.24,0.61-0.24c0.25,0-1.06,2.79-1.16,2.96
						c-4.54,7.08-17.59,6.08-23.23,0.63c-4.57-4.42-4.59-9.41-4.94-15.27c-0.2-3.68-1.08-7.3-2.23-10.79
						c-1.01-3.06-3.39-6.93-4.85-9.64c-1.38-2.61-2.7-5.07-3.44-7.59c-0.83-2.82-1.37-5.94-1.7-9.81
						c-0.7-8.26,0.58-17.29,3.82-26.87C12.03,22.28,28.37,6.48,46.81,2.33C51.91,1.18,57.45,0.65,64.22,0.65"/>
				</g>
			</g>
			<path fill="#D7598B" d="M72.05,99.92c-0.6-0.36-1.58,0.21-2.08,0.56c-0.32,0.22-0.74,0.45-1.12,0.61
				c-1.77,0.72-3.71,1.13-5.63,1.13c-1.91,0-3.85-0.41-5.62-1.13c-0.38-0.16-0.8-0.39-1.13-0.61c-0.49-0.35-1.47-0.93-2.08-0.56
				c-0.37,0.21-0.41,0.89-0.35,1.25c0.62,4.03,4.83,5.88,8.61,6.01c0.19,0.01,0.38-0.02,0.56-0.02c0.19,0,0.38,0.03,0.56,0.02
				c3.79-0.13,8-1.98,8.62-6.01C72.47,100.81,72.43,100.14,72.05,99.92z"/>
		</g>
		<g>
			<g>
				<path fill="#2F2F2F" d="M44.13,74.01c-0.67-0.05-1.35,0.18-2,0c-0.78-0.23-1.48-0.53-2.15-0.98c-0.47-0.31-0.69-0.62-1.28-0.7
					c-0.5-0.07-1.1,0.09-1.38,0.55c-0.55,0.89,0.45,2.09,1.14,2.63c0.25,0.19,1,0.39,0.78,0.83c-0.17,0.38-1.02,0.35-1.34,0.35
					c-0.69,0-1.27-0.09-1.94-0.23c-0.54-0.11-1.07-0.38-1.6-0.46c-0.52-0.08-0.85,0.18-1.14,0.57c-0.48,0.64-0.45,1.28,0,1.91
					c0.74,1.05,2.03,1.99,3.26,2.34c1.86,0.53,2.28-0.41,3.23-1.74c0.41-0.59,0.76-1.21,1.24-1.74c0.69-0.74,1.4-1.66,2.33-2.12
					c0.39-0.18,0.85-0.28,1.26-0.35c0.26-0.04,0.66,0.03,0.67-0.36c0.01-0.37-0.43-0.36-0.69-0.43
					C44.4,74.04,44.26,74.02,44.13,74.01z"/>
			</g>
			<g>
				<path fill="#2F2F2F" d="M83.8,74.01c0.67-0.05,1.34,0.18,2,0c0.78-0.23,1.48-0.53,2.15-0.98c0.47-0.31,0.69-0.62,1.28-0.7
					c0.5-0.07,1.09,0.09,1.37,0.55c0.55,0.89-0.45,2.09-1.15,2.63c-0.24,0.19-0.99,0.39-0.77,0.83c0.16,0.38,1.02,0.35,1.34,0.35
					c0.68,0,1.27-0.09,1.95-0.23c0.54-0.11,1.07-0.38,1.6-0.46c0.52-0.08,0.84,0.18,1.14,0.57c0.48,0.64,0.45,1.28,0,1.91
					c-0.74,1.05-2.03,1.99-3.26,2.34c-1.86,0.53-2.29-0.41-3.23-1.74c-0.41-0.59-0.76-1.21-1.24-1.74c-0.69-0.74-1.4-1.66-2.33-2.12
					c-0.39-0.18-0.84-0.28-1.26-0.35c-0.27-0.04-0.66,0.03-0.67-0.36c-0.01-0.37,0.42-0.36,0.69-0.43
					C83.54,74.04,83.67,74.02,83.8,74.01z"/>
			</g>
			<path fill="#2F2F2F" d="M64.44,97.21c-3.52,0-11.63,1.27-12.47-3.75c-0.39-2.29,0.98-4.31,2.14-6.14c1.22-1.91,2.51-3.8,3.5-5.86
				c1.04-2.14,1.31-4.38,2.09-6.59c0.24-0.72,0.96-1.87,1.69-2.21c1.03-0.48,1.66,0.25,1.84,1.21c1.15,6.13-2.04,11.33-4.89,16.46
				c-0.45,0.81-0.9,1.82,0.3,2.11c1.73,0.41,3.51,0,5.27,0.04c1.06,0.03,2.19,0.29,2.82,1.22c0.44,0.63,0.22,1.68-0.14,2.28
				C66.14,96.74,65.31,97.21,64.44,97.21z"/>
		</g>
	</g>
	<g>
		<g>
			<path fill="#006CA2" d="M50.93,81.37c0,4.12-3.04,7.47-6.78,7.47c-3.74,0-6.78-3.35-6.78-7.47c0-4.14,3.04-7.47,6.78-7.47
				C47.89,73.9,50.93,77.24,50.93,81.37z"/>
		</g>
	</g>
	<g>
		<g>
			<path fill="#006CA2" d="M77,81.37c0,4.12,3.04,7.47,6.78,7.47c3.74,0,6.78-3.35,6.78-7.47c0-4.14-3.04-7.47-6.78-7.47
				C80.04,73.9,77,77.24,77,81.37z"/>
		</g>
	</g>
</g>
</svg>
