<?xml version="1.0" encoding="utf-8"?>
<!-- Generator: Adobe Illustrator 16.0.0, SVG Export Plug-In . SVG Version: 6.00 Build 0)  -->
<!DOCTYPE svg PUBLIC "-//W3C//DTD SVG 1.1//EN" "http://www.w3.org/Graphics/SVG/1.1/DTD/svg11.dtd">
<svg version="1.1" id="レイヤー_1" xmlns="http://www.w3.org/2000/svg" xmlns:xlink="http://www.w3.org/1999/xlink" x="0px"
	 y="0px" width="128px" height="128px" viewBox="0 0 128 128" enable-background="new 0 0 128 128" xml:space="preserve">
<g>
	<path fill="#FFFFFF" d="M113.692,103.429c2.727-8.824-0.968-21.554-5.986-28.642c-6.966-9.836-11.617-20.418-13.019-23.779
		c-0.479-1.391-0.935-2.737-1.435-4.228c-2.226-6.643-4.741-14.188-8.112-22.655C78.44,7.257,66.791,7.056,64.688,7.056
		c-2.57,0-13.876,0.201-20.585,17.069c-3.349,8.457-5.875,15.99-8.089,22.633c-0.367,1.124-0.724,2.137-1.08,3.216
		c-0.29,0.734-5.308,13.309-13.453,24.813c-5.43,7.667-9.414,21.977-5.285,30.756l0.022-0.011c0.545,1.501,1.224,2.771,1.98,3.783
		l-0.033,0.034c0,0,2.158,5.029,12.84,5.029c7.656,0,15.167-1.302,25.749,3.861v-0.022c2.047,0.824,4.439,1.38,7.833,1.38
		c3.394,0,5.786-0.556,7.845-1.369v0.011c10.582-5.163,18.093-3.861,25.749-3.861c10.326,0,12.663-4.663,12.807-4.974
		C112.124,107.947,113.08,105.866,113.692,103.429z"/>
	<path fill="#CC4079" d="M119.968,88.78c-1.792-7.065-6.776-15.311-10.07-20.763l-1.246-2.058
		c-3.038-5.119-5.33-11.996-8.246-20.686c-2.125-6.398-4.54-13.631-7.811-21.865C83.96,1.676,66.056,1.042,63.953,1.042
		c-2.014,0-19.907,0.634-28.53,22.366c-3.283,8.223-5.687,15.456-7.823,21.832c-2.904,8.712-5.207,15.589-8.256,20.719l-1.235,2.058
		C14.815,73.469,9.831,81.704,8.028,88.78c-2.626,10.249,0.734,24.781,9.747,29.232c3.951,1.969,7.611,2.926,11.149,2.926
		c2.76,0,4.974-0.556,6.921-1.046c1.435-0.356,2.67-0.667,4.017-0.69c2.793,0,4.462,1.035,7.01,2.604
		c3.728,2.292,8.368,5.152,17.081,5.152c8.724,0,13.386-2.849,17.125-5.141c2.582-1.569,4.262-2.615,7.2-2.615l0,0
		c1.213,0.022,2.448,0.334,3.883,0.69c1.947,0.49,4.162,1.046,6.91,1.046c3.538,0,7.199-0.957,11.161-2.926
		C119.233,113.561,122.605,99.029,119.968,88.78z M105.813,109.076c-4.584,2.271-7.555,2.07-11.227,1.146
		c-1.781-0.445-3.805-0.957-6.442-0.99c-5.598,0-9.135,2.169-12.263,4.072c-3.227,1.98-6.02,3.683-11.928,3.683
		c-5.875,0-8.646-1.703-11.851-3.672c-3.116-1.914-6.632-4.083-12.496-4.083h-0.011c-2.37,0.033-4.396,0.545-6.164,0.99
		c-3.684,0.924-6.654,1.125-11.25-1.146c-3.539-1.747-6.375-10.504-4.495-17.826c1.447-5.642,5.964-13.13,8.957-18.082l1.28-2.125
		c3.583-6.042,6.03-13.364,9.135-22.644c2.092-6.254,4.462-13.353,7.611-21.32c6.332-15.879,18.75-16.068,19.395-16.068
		c0.523,0,12.952,0.189,19.25,16.068c3.172,7.978,5.542,15.077,7.634,21.342c3.104,9.269,5.552,16.58,9.135,22.622l1.28,2.136
		c2.993,4.952,7.51,12.429,8.946,18.07C112.201,98.572,109.352,107.33,105.813,109.076z"/>
</g>
</svg>
