<svg enable-background="new 0 0 128 128" viewBox="0 0 128 128" xmlns="http://www.w3.org/2000/svg" xmlns:xlink="http://www.w3.org/1999/xlink"><linearGradient id="j" x1="64.031" x2="64.031" y1="22.403" y2="114.73" gradientUnits="userSpaceOnUse"><stop stop-color="#7CB342" offset="0"/><stop stop-color="#558B2F" offset="1"/></linearGradient><rect x="55.03" y="21.65" width="18" height="93.45" fill="url(#j)"/><path d="m72.33 78.52h-16.37c-1.53 0-2.77-1.24-2.77-2.77s1.24-2.77 2.77-2.77h16.37c1.53 0 2.77 1.24 2.77 2.77 0.01 1.53-1.24 2.77-2.77 2.77z" fill="#558B2F"/><path d="m72.33 49.19h-16.37c-1.53 0-2.77-1.24-2.77-2.77s1.24-2.77 2.77-2.77h16.37c1.53 0 2.77 1.24 2.77 2.77 0.01 1.53-1.24 2.77-2.77 2.77z" fill="#558B2F"/><linearGradient id="h" x1="46.214" x2="46.214" y1="44.513" y2="115.15" gradientUnits="userSpaceOnUse"><stop stop-color="#9CCC65" offset=".00043623"/><stop stop-color="#7CB342" offset=".7329"/></linearGradient><rect x="37.21" y="43.45" width="18" height="71.65" fill="url(#h)"/><path d="m54.63 71.55h-16.32c-1.53 0-2.77-1.24-2.77-2.77s1.24-2.77 2.77-2.77h16.33c1.53 0 2.77 1.24 2.77 2.77s-1.24 2.77-2.78 2.77z" fill="#689F38"/><linearGradient id="g" x1="81.153" x2="81.153" y1="60.913" y2="115.88" gradientUnits="userSpaceOnUse"><stop stop-color="#8BC34A" offset="0"/><stop stop-color="#689F38" offset=".7338"/></linearGradient><rect x="72.28" y="53.64" width="17.75" height="61.46" fill="url(#g)"/><path d="m89.69 85.49h-17.32c-1.53 0-2.77-1.24-2.77-2.77s1.24-2.77 2.77-2.77h17.33c1.53 0 2.77 1.24 2.77 2.77s-1.24 2.77-2.78 2.77z" fill="#689F38"/><ellipse cx="64.09" cy="19.63" rx="9.38" ry="15.51" fill="#FFF9C4"/><radialGradient id="f" cx="63.986" cy="16.929" r="10.336" gradientTransform="matrix(.9383 0 0 1.6861 4.3111 -11.616)" gradientUnits="userSpaceOnUse"><stop stop-color="#FFE0B2" offset=".263"/><stop stop-color="#FFB74D" offset=".7198"/></radialGradient><ellipse cx="64.09" cy="19.63" rx="6.37" ry="10.52" fill="url(#f)"/><ellipse cx="46.01" cy="43.45" rx="9.2" ry="15.51" fill="#FFF9C4"/><radialGradient id="e" cx="46.09" cy="40.753" r="10.336" gradientTransform="matrix(.9204 0 0 1.6861 3.849 -27.962)" gradientUnits="userSpaceOnUse"><stop stop-color="#FFE0B2" offset=".263"/><stop stop-color="#FFB74D" offset=".7198"/></radialGradient><ellipse cx="46.01" cy="43.45" rx="6.24" ry="10.52" fill="url(#e)"/><ellipse cx="81.17" cy="55.45" rx="9.36" ry="13.96" fill="#FFF9C4"/><radialGradient id="d" cx="81.061" cy="53.023" r="9.3026" gradientTransform="matrix(1.0404 0 0 1.6861 -2.9028 -36.381)" gradientUnits="userSpaceOnUse"><stop stop-color="#FFE0B2" offset=".263"/><stop stop-color="#FFB74D" offset=".7198"/></radialGradient><ellipse cx="81.17" cy="55.45" rx="6.35" ry="9.47" fill="url(#d)"/><linearGradient id="c" x1="63.622" x2="63.622" y1="113.59" y2="95.214" gradientUnits="userSpaceOnUse"><stop stop-color="#FFCA28" offset="0"/><stop stop-color="#FFE082" offset=".9996"/></linearGradient><rect x="37.21" y="95.21" width="52.82" height="18.38" fill="url(#c)"/><g fill="#FFA000"><rect x="45" y="95" width="2" height="19"/><rect x="80" y="95" width="2" height="19"/><rect x="71" y="95" width="2" height="19"/><rect x="62" y="95" width="2" height="19"/><rect x="54" y="95" width="2" height="19"/></g><g opacity=".2"><path d="m64.08 6.12c4 0 7.38 6.19 7.38 13.51 0 0.69-0.1 1.41-0.21 2.17-0.13 0.81-0.25 1.65-0.25 2.51v19.43c0 0.95 0.67 1.77 1.6 1.96 0.22 0.05 0.24 0.05 0.41 0.38 0.31 0.63 0.92 1.06 1.62 1.12 0.06 0.01 0.12 0.01 0.18 0.01 0.64 0 1.24-0.3 1.62-0.83 1.35-1.87 3.04-2.89 4.74-2.89 3.99 0 7.36 5.48 7.36 11.96 0 0.64-0.12 1.31-0.24 2.02-0.15 0.79-0.29 1.61-0.29 2.47v20.04c0 0.98 0.7 1.81 1.66 1.97 0.28 0.07 0.78 0.53 0.78 0.77s-0.5 0.7-0.77 0.77c-0.96 0.16-1.67 1-1.67 1.97v27.54h-49v-41.67c0-0.8-0.48-1.53-1.22-1.84-0.29-0.12-0.46-0.39-0.46-0.71s0.18-0.59 0.46-0.71c0.74-0.31 1.22-1.04 1.22-1.84v-18.2c0-0.81-0.08-1.61-0.16-2.38-0.08-0.76-0.15-1.48-0.15-2.2 0-7.2 3.41-13.51 7.3-13.51 3.2 0 6.15 4.5 7.02 10.7 0.14 0.99 0.99 1.72 1.98 1.72h0.14c1.05-0.07 1.86-0.94 1.86-2v-16.72c0-0.75-0.09-1.46-0.17-2.16-0.08-0.65-0.15-1.26-0.15-1.85 0.01-7.33 3.4-13.51 7.41-13.51m0-2c-5.18 0-9.39 6.94-9.39 15.51 0 1.39 0.32 2.73 0.32 4.01v16.73c-1-7.09-4.55-12.42-9.01-12.42-5.08 0-9.3 6.94-9.3 15.51 0 1.59 0.31 3.13 0.31 4.58v18.2c-1 0.42-1.68 1.41-1.68 2.55s0.68 2.13 1.68 2.55v43.66h52.99v-29.54c1-0.17 2.44-1.32 2.44-2.74s-1.44-2.57-2.44-2.74v-20.04c0-1.41 0.52-2.91 0.52-4.49 0-7.71-4.18-13.96-9.36-13.96-2.45 0-4.69 1.42-6.36 3.72-0.35-0.72-0.8-1.26-1.8-1.47v-19.43c0-1.48 0.45-3.05 0.45-4.69 0-8.56-4.19-15.5-9.37-15.5z" fill="#424242"/></g><linearGradient id="b" x1="64.412" x2="64.412" y1="119.25" y2="104.91" gradientUnits="userSpaceOnUse"><stop stop-color="#8D6E63" offset="0"/><stop stop-color="#BCAAA4" offset="1"/></linearGradient><path d="m94.46 124.25h-60.09c-4.77 0-7.7-6.13-5.21-10.91 1.11-2.13 3.08-3.43 5.21-3.43h60.09c2.2 0 4.22 1.38 5.31 3.62 2.31 4.78-0.63 10.72-5.31 10.72z" fill="url(#b)"/><g opacity=".2"><path d="m94.46 112.91c1.03 0 2.03 0.74 2.61 1.93 0.75 1.55 0.66 3.47-0.24 4.9-0.35 0.56-1.13 1.5-2.37 1.5h-60.09c-1.27 0-2.05-0.97-2.4-1.55-0.89-1.47-0.95-3.42-0.15-4.97 0.59-1.14 1.55-1.82 2.55-1.82h60.09m0-2.99h-60.09c-2.13 0-4.1 1.3-5.21 3.43-2.49 4.78 0.44 10.91 5.21 10.91h60.09c4.69 0 7.63-5.94 5.31-10.72-1.09-2.24-3.12-3.62-5.31-3.62z" fill="#424242"/></g><defs><rect id="m" x="30.95" y="62.12" width="66.67" height="33.09"/></defs><clipPath id="a"><use xlink:href="#m"/></clipPath><g clip-path="url(#a)"><linearGradient id="l" x1="63.97" x2="63.97" y1="68.745" y2="94.786" gradientUnits="userSpaceOnUse"><stop stop-color="#43A047" offset=".1835"/><stop stop-color="#2E7D32" offset=".8501"/></linearGradient><path d="m88.59 79.44-6.9 9.43 3.72-11.56c-2.51-1.51-2.37-1.81-5.2-2.75l-7 13.76 4.17-16.3-6.34-1.45-5.71 13.68-0.55-16.28c-2.81 0.02-5.55 0.31-8.2 0.84l-0.16 15.4-7.68-12.8c-2.81 0.97-5.46 2.24-7.95 3.76l5.83 12.26-7.62-7.86c-4.48 3.36-6.66 8.38-8.05 12.67l12.13 3.08 3.39 0.86 17.41 4.42 17.29-4.31 4.08-1.02 11.73-2.93c-2.75-5.14-3.8-9.5-8.39-12.9z" fill="url(#l)"/></g><g clip-path="url(#a)" opacity=".2"><path d="m62.85 70.03 0.49 14.29c0.03 0.94 0.71 1.73 1.64 1.9 0.12 0.02 0.24 0.03 0.36 0.03 0.79 0 1.53-0.47 1.84-1.23l5.06-12.12 2.7 0.62-3.66 14.31c-0.25 0.99 0.28 2.01 1.23 2.37 0.23 0.09 0.47 0.13 0.7 0.13 0.73 0 1.43-0.41 1.78-1.09l6.19-12.17c0.55 0.25 0.9 0.48 1.46 0.85 0.12 0.08 0.25 0.17 0.4 0.26l-3.25 10.09c-0.3 0.93 0.12 1.95 1 2.39 0.29 0.15 0.6 0.22 0.91 0.22 0.62 0 1.23-0.29 1.62-0.82l5.62-7.69c1.99 1.98 3.08 4.3 4.4 7.09 0.24 0.51 0.48 1.02 0.74 1.55l-30.19 7.53-30.33-7.7c1.08-2.9 2.67-6.06 5.31-8.54l6.32 6.53c0.39 0.4 0.91 0.61 1.44 0.61 0.4 0 0.79-0.12 1.14-0.36 0.8-0.56 1.09-1.62 0.67-2.5l-5.04-10.6c1.46-0.8 2.96-1.51 4.49-2.11l6.83 11.38c0.37 0.61 1.03 0.97 1.72 0.97 0.17 0 0.35-0.02 0.52-0.07 0.86-0.23 1.47-1.01 1.48-1.91l0.15-13.75c1.38-0.23 2.81-0.39 4.26-0.46m1.93-2.06c-2.81 0.02-5.55 0.31-8.2 0.84l-0.16 15.4-7.68-12.8c-2.81 0.97-5.46 2.24-7.95 3.76l5.83 12.26-7.62-7.86c-4.48 3.36-6.66 8.38-8.05 12.67l32.93 8.36 33.11-8.25c-2.76-5.14-3.81-9.49-8.39-12.89l-6.9 9.43 3.72-11.56c-2.51-1.51-2.37-1.81-5.2-2.75l-7 13.76 4.17-16.3-6.34-1.45-5.71 13.68-0.56-16.3z" fill="#424242"/></g><g display="none"><g display="inline" opacity=".3"><g opacity=".6"><circle cx="64" cy="64" r="28" fill="none" opacity=".61" stroke="#000" stroke-miterlimit="10" stroke-width=".2625"/><line x1="84" x2="84" y2="128" fill="none" opacity=".61" stroke="#000" stroke-miterlimit="10" stroke-width=".25"/><line x1="44" x2="44" y2="128" fill="none" opacity=".61" stroke="#000" stroke-miterlimit="10" stroke-width=".25"/><line x1="64" x2="64" y2="128" fill="none" opacity=".61" stroke="#000" stroke-miterlimit="10" stroke-width=".25"/><line x1="128" y1="64" y2="64" fill="none" opacity=".61" stroke="#000" stroke-miterlimit="10" stroke-width=".25"/><line x1="128" y1="44" y2="44" fill="none" opacity=".61" stroke="#000" stroke-miterlimit="10" stroke-width=".25"/><line x1="128" y1="83.75" y2="83.75" fill="none" opacity=".61" stroke="#000" stroke-miterlimit="10" stroke-width=".25"/><line x1="128" y1="128" fill="none" opacity=".61" stroke="#000" stroke-miterlimit="10" stroke-width=".25"/><line x2="128" y1="128" fill="none" opacity=".61" stroke="#000" stroke-miterlimit="10" stroke-width=".25"/><g opacity=".61"><path d="m64 4.26c32.94 0 59.74 26.8 59.74 59.74s-26.8 59.74-59.74 59.74-59.74-26.8-59.74-59.74 26.8-59.74 59.74-59.74m0-0.26c-33.14 0-60 26.86-60 60s26.86 60 60 60 60-26.86 60-60-26.86-60-60-60z"/></g><path d="m107.97 115.97h-87.94c-4.42 0-8.03-3.61-8.03-8.03v-87.91c0-4.42 3.61-8.03 8.03-8.03h87.94c4.42 0 8.03 3.61 8.03 8.03v87.91c0 4.42-3.61 8.03-8.03 8.03z" fill="none" opacity=".61" stroke="#000" stroke-miterlimit="10" stroke-width=".2578"/><path d="m99.75 124h-71.75c-4.4 0-8-3.6-8-8v-104c0-4.4 3.6-8 8-8h71.75c4.4 0 8 3.6 8 8v104c0 4.4-3.6 8-8 8z" fill="none" opacity=".61" stroke="#000" stroke-miterlimit="10" stroke-width=".2567"/><path d="M113.77,108H14.23 C8.6,108,4,103.4,4,97.77V30.28c0-5.63,4.6-10.23,10.23-10.23h99.54c5.63,0,10.23,4.6,10.23,10.23v67.48 C124,103.4,119.4,108,113.77,108z" fill="none" opacity=".61" stroke="#000" stroke-miterlimit="10" stroke-width=".2627"/></g><g opacity=".2"><defs><rect id="i" width="128" height="128" opacity=".2"/></defs><clipPath id="k"><use xlink:href="#i"/></clipPath><g clip-path="url(#k)"><g fill="none" stroke="#000" stroke-miterlimit="10" stroke-width=".25"><line x1="-28" x2="-28" y1="160" y2="-32"/><line x1="-24" x2="-24" y1="160" y2="-32"/><line x1="-20" x2="-20" y1="160" y2="-32"/><line x1="-16" x2="-16" y1="160" y2="-32"/><line x1="-12" x2="-12" y1="160" y2="-32"/><line x1="-8" x2="-8" y1="160" y2="-32"/><line x1="-4" x2="-4" y1="160" y2="-32"/><line y1="160" y2="-32"/><line x1="4" x2="4" y1="160" y2="-32"/><line x1="8" x2="8" y1="160" y2="-32"/><line x1="12" x2="12" y1="160" y2="-32"/><line x1="16" x2="16" y1="160" y2="-32"/><line x1="20" x2="20" y1="160" y2="-32"/><line x1="24" x2="24" y1="160" y2="-32"/><line x1="28" x2="28" y1="160" y2="-32"/><line x1="32" x2="32" y1="160" y2="-32"/><line x1="36" x2="36" y1="160" y2="-32"/><line x1="40" x2="40" y1="160" y2="-32"/><line x1="44" x2="44" y1="160" y2="-32"/><line x1="48" x2="48" y1="160" y2="-32"/><line x1="52" x2="52" y1="160" y2="-32"/><line x1="56" x2="56" y1="160" y2="-32"/><line x1="60" x2="60" y1="160" y2="-32"/><line x1="64" x2="64" y1="160" y2="-32"/><line x1="68" x2="68" y1="160" y2="-32"/><line x1="72" x2="72" y1="160" y2="-32"/><line x1="76" x2="76" y1="160" y2="-32"/><line x1="80" x2="80" y1="160" y2="-32"/><line x1="84" x2="84" y1="160" y2="-32"/><line x1="88" x2="88" y1="160" y2="-32"/><line x1="92" x2="92" y1="160" y2="-32"/><line x1="96" x2="96" y1="160" y2="-32"/><line x1="100" x2="100" y1="160" y2="-32"/><line x1="104" x2="104" y1="160" y2="-32"/><line x1="108" x2="108" y1="160" y2="-32"/><line x1="112" x2="112" y1="160" y2="-32"/><line x1="116" x2="116" y1="160" y2="-32"/><line x1="120" x2="120" y1="160" y2="-32"/><line x1="124" x2="124" y1="160" y2="-32"/><line x1="128" x2="128" y1="160" y2="-32"/><line x1="132" x2="132" y1="160" y2="-32"/><line x1="136" x2="136" y1="160" y2="-32"/><line x1="137" x2="137" y1="166.05" y2="-25.95"/><line x1="144" x2="144" y1="160" y2="-32"/><line x1="148" x2="148" y1="160" y2="-32"/><line x1="152" x2="152" y1="160" y2="-32"/><line x1="156" x2="156" y1="160" y2="-32"/></g><g fill="none" stroke="#000" stroke-miterlimit="10" stroke-width=".25"><line x1="-32" x2="160" y1="-28" y2="-28"/><line x1="-32" x2="160" y1="-24" y2="-24"/><line x1="-32" x2="160" y1="-20" y2="-20"/><line x1="-32" x2="160" y1="-16" y2="-16"/><line x1="-32" x2="160" y1="-12" y2="-12"/><line x1="-32" x2="160" y1="-8" y2="-8"/><line x1="-32" x2="160" y1="-4" y2="-4"/><line x1="-32" x2="160"/><line x1="-32" x2="160" y1="4" y2="4"/><line x1="-32" x2="160" y1="8" y2="8"/><line x1="-32" x2="160" y1="12" y2="12"/><line x1="-32" x2="160" y1="16" y2="16"/><line x1="-32" x2="160" y1="20" y2="20"/><line x1="-32" x2="160" y1="24" y2="24"/><line x1="-32" x2="160" y1="28" y2="28"/><line x1="-32" x2="160" y1="32" y2="32"/><line x1="-32" x2="160" y1="36" y2="36"/><line x1="-32" x2="160" y1="40" y2="40"/><line x1="-32" x2="160" y1="44" y2="44"/><line x1="-32" x2="160" y1="48" y2="48"/><line x1="-32" x2="160" y1="52" y2="52"/><line x1="-32" x2="160" y1="56" y2="56"/><line x1="-32" x2="160" y1="60" y2="60"/><line x1="-32" x2="160" y1="64" y2="64"/><line x1="-32" x2="160" y1="68" y2="68"/><line x1="-32" x2="160" y1="72" y2="72"/><line x1="-32" x2="160" y1="76" y2="76"/><line x1="-32" x2="160" y1="80" y2="80"/><line x1="-32" x2="160" y1="84" y2="84"/><line x1="-32" x2="160" y1="88" y2="88"/><line x1="-32" x2="160" y1="92" y2="92"/><line x1="-32" x2="160" y1="96" y2="96"/><line x1="-32" x2="160" y1="100" y2="100"/><line x1="-32" x2="160" y1="104" y2="104"/><line x1="-32" x2="160" y1="108" y2="108"/><line x1="-32" x2="160" y1="112" y2="112"/><line x1="-32" x2="160" y1="116" y2="116"/><line x1="-32" x2="160" y1="120" y2="120"/><line x1="-32" x2="160" y1="124" y2="124"/><line x1="-32" x2="160" y1="128" y2="128"/><line x1="-32" x2="160" y1="132" y2="132"/><line x1="-32" x2="160" y1="136" y2="136"/><line x1="-32" x2="160" y1="140" y2="140"/><line x1="-32" x2="160" y1="144" y2="144"/><line x1="-32" x2="160" y1="148" y2="148"/><line x1="-32" x2="160" y1="152" y2="152"/><line x1="-32" x2="160" y1="156" y2="156"/></g><path d="m159.75-31.75v191.5h-191.5v-191.5h191.5m0.25-0.25h-192v192h192v-192z"/></g></g><g fill="#F44336"><rect width="4" height="128" opacity=".3"/><rect x="124" width="4" height="128" opacity=".3"/><rect transform="matrix(-1.837e-16 1 -1 -1.837e-16 66 -62)" x="62" y="-58" width="4" height="120" opacity=".3"/><rect transform="matrix(-1.837e-16 1 -1 -1.837e-16 190 62)" x="62" y="66" width="4" height="120" opacity=".3"/></g></g></g></svg>
