<svg width="128" height="128" style="enable-background:new 0 0 128 128;" xmlns="http://www.w3.org/2000/svg" xmlns:xlink="http://www.w3.org/1999/xlink">
  <g id="Layer_1">
    <g>
      <linearGradient id="SVGID_1_" gradientUnits="userSpaceOnUse" x1="86.38" x2="109.38" y1="55.4664" y2="10.4664">
        <stop offset="0" style="stop-color:#B8B8B8"/>
        <stop offset="0.3846" style="stop-color:#D9D9D9"/>
        <stop offset="0.7697" style="stop-color:#F5F5F5"/>
        <stop offset="0.9954" style="stop-color:#FFFFFF"/>
      </linearGradient>
      <path d="M122.12,15.28c-1.06,1.55-3.43,3.99-4.66,5.71c-1.23,1.71-2.36,3.37-3.41,4.97 c-1.05,1.6-2.03,3.16-2.94,4.68c-0.91,1.52-1.77,3-2.57,4.45c-0.8,1.45-1.56,2.88-2.28,4.3c-0.72,1.42-1.4,2.82-2.04,4.22 c-0.65,1.4-1.26,2.8-1.85,4.21c-0.59,1.41-1.16,2.84-1.7,4.28s-1.06,2.92-1.56,4.42c-0.5,1.51-0.97,3.05-1.42,4.64 c-0.45,1.59-0.87,3.22-1.27,4.92c-0.4,1.69-0.76,3.44-1.09,5.26c-2.47-0.61-4.65-1.12-6.69-1.57c-2.04-0.45-3.93-0.85-5.84-1.24 c-1.91-0.38-3.82-0.75-5.92-1.13c-2.09-0.38-4.36-0.76-6.97-1.17c0.34-1.84,0.71-3.61,1.11-5.33s0.82-3.38,1.26-5 c0.44-1.62,0.91-3.19,1.39-4.73c0.48-1.54,0.99-3.04,1.51-4.51c0.52-1.47,1.07-2.92,1.63-4.36s1.15-2.85,1.76-4.27 c0.61-1.41,1.25-2.82,1.91-4.24s1.36-2.84,2.1-4.27c0.73-1.44,1.5-2.89,2.32-4.37c0.82-1.48,1.68-2.99,2.6-4.53 c0.92-1.54,1.9-3.13,2.95-4.76c1.05-1.63,2.17-3.31,3.38-5.04s2.5-3.52,3.9-5.38c2.47,0.94,4.6,1.78,6.57,2.58 c1.96,0.8,3.76,1.55,5.54,2.32c1.78,0.77,3.54,1.55,5.43,2.41C117.16,13.61,119.39,14.09,122.12,15.28z" style="fill:url(#SVGID_1_);"/>
      <g style="opacity:0.2;">
        <path d="M98.78,9.06c1.47,0.57,2.92,1.15,4.39,1.74c1.86,0.76,3.65,1.51,5.48,2.29 c1.82,0.79,3.58,1.56,5.38,2.38c1,0.46,2.02,0.8,3.1,1.16c-0.77,0.89-1.53,1.79-2.11,2.6c-1.2,1.67-2.36,3.38-3.48,5.07 c-1.03,1.58-2.04,3.18-3,4.77c-0.91,1.5-1.79,3.03-2.63,4.55c-0.8,1.45-1.59,2.93-2.33,4.4c-0.72,1.43-1.43,2.88-2.09,4.32 c-0.66,1.43-1.3,2.88-1.9,4.32c-0.61,1.45-1.19,2.93-1.74,4.39c-0.56,1.5-1.1,3.03-1.6,4.54c-0.52,1.58-1.01,3.18-1.46,4.76 c-0.47,1.67-0.91,3.37-1.3,5.05c-0.18,0.76-0.35,1.52-0.51,2.29c-1.22-0.29-2.45-0.57-3.7-0.85c-1.98-0.44-3.91-0.85-5.9-1.25 c-2-0.4-3.96-0.78-5.98-1.14c-1.33-0.24-2.64-0.47-3.95-0.69c0.15-0.73,0.32-1.46,0.48-2.19c0.37-1.62,0.79-3.26,1.23-4.88 c0.42-1.53,0.88-3.09,1.36-4.62c0.46-1.47,0.96-2.95,1.48-4.41c0.5-1.42,1.04-2.85,1.59-4.26c0.55-1.39,1.13-2.79,1.72-4.17 c0.6-1.38,1.23-2.78,1.87-4.15c0.66-1.39,1.35-2.8,2.05-4.19c0.73-1.43,1.49-2.87,2.28-4.29c0.82-1.48,1.68-2.98,2.55-4.45 c0.93-1.56,1.9-3.13,2.89-4.67c1.06-1.65,2.18-3.32,3.32-4.95C97.1,11.38,97.93,10.21,98.78,9.06 M97.73,5.44 c-1.4,1.86-2.69,3.65-3.9,5.38c-1.21,1.73-2.33,3.41-3.38,5.04c-1.05,1.63-2.03,3.21-2.95,4.76c-0.92,1.54-1.79,3.05-2.6,4.53 c-0.82,1.48-1.59,2.93-2.32,4.37c-0.73,1.44-1.43,2.86-2.1,4.27c-0.67,1.41-1.3,2.82-1.91,4.24c-0.61,1.41-1.2,2.83-1.76,4.27 c-0.56,1.43-1.11,2.88-1.63,4.36c-0.52,1.47-1.03,2.98-1.51,4.51c-0.48,1.54-0.95,3.11-1.39,4.73s-0.86,3.28-1.26,5 c-0.4,1.72-0.77,3.49-1.11,5.33c2.61,0.41,4.88,0.79,6.97,1.17c2.09,0.38,4.01,0.74,5.92,1.13c1.91,0.38,3.8,0.78,5.84,1.24 c2.04,0.45,4.22,0.96,6.69,1.57c0.33-1.82,0.7-3.57,1.09-5.26c0.4-1.69,0.82-3.33,1.27-4.92c0.45-1.59,0.92-3.13,1.42-4.64 c0.5-1.51,1.01-2.98,1.56-4.42c0.54-1.45,1.11-2.87,1.7-4.28c0.59-1.41,1.21-2.81,1.85-4.21c0.65-1.4,1.33-2.8,2.04-4.22 c0.72-1.42,1.47-2.84,2.28-4.3c0.8-1.45,1.66-2.93,2.57-4.45c0.91-1.52,1.89-3.07,2.94-4.68c1.05-1.6,2.18-3.26,3.41-4.97 c1.23-1.71,3.6-4.15,4.66-5.71c-2.72-1.19-4.96-1.67-6.85-2.53c-1.89-0.86-3.65-1.64-5.43-2.41c-1.78-0.77-3.57-1.52-5.54-2.32 C102.34,7.22,100.2,6.38,97.73,5.44L97.73,5.44z" style="fill:#424242;"/>
      </g>
    </g>
    <g>
      <radialGradient id="SVGID_2_" cx="33.1712" cy="58.4059" gradientUnits="userSpaceOnUse" r="59.9829">
        <stop offset="0" style="stop-color:#FFD880"/>
        <stop offset="0.3448" style="stop-color:#F9CF76"/>
        <stop offset="0.9342" style="stop-color:#E8B75A"/>
        <stop offset="1" style="stop-color:#E6B457"/>
      </radialGradient>
      <path d="M114.08,65.88c-8.83-28.21-45.07-34.64-71.55-35.2c-3.79-0.08-8.01-0.2-11.73,0.7 c-2.92,0.71-4.75,1.73-5.75,2.95c-4.61,5.62,8.18,15.54,12.81,19.3c4.95,4.02,10.71,8.22,16.27,12.02 c0.79-1.21,3.45-2.05,4.73-2.5c9.43-3.28,19.64-4.28,29.53-2.91c0.69,0.1,1.44,0.23,1.91,0.76c0.72,0.81,0.35,2.18-0.48,2.88 c-0.83,0.7-1.96,0.9-3.03,1.07c-5.28,0.85-10.57,1.6-15.87,2.25c-2.69,0.33-5.46,1-8.15,1.29c-1.18,0.13-2.49,0.47-3.75,0.5 l-12.8,3.3c-16.2,4.57-38.4,5.26-42.46,13.38c-6.27,12.54,13.34,24.37,21.86,28.58c19.76,9.77,42.29,11.73,62.46,1.84 c5.24-2.57,9.85-5.72,13.91-9.86C114.32,91.85,117.2,80.11,114.08,65.88z" style="fill:url(#SVGID_2_);"/>
      <radialGradient id="SVGID_3_" cx="33.2987" cy="58.3634" gradientUnits="userSpaceOnUse" r="59.8167">
        <stop offset="0" style="stop-color:#FFD880"/>
        <stop offset="0.3448" style="stop-color:#F9CF76"/>
        <stop offset="0.9342" style="stop-color:#E8B75A"/>
        <stop offset="1" style="stop-color:#E6B457"/>
      </radialGradient>
      <path d="M62.77,68.49c2.69-0.29,5.46-0.96,8.15-1.29c5.3-0.65,10.6-1.4,15.87-2.25 c1.07-0.17,2.2-0.37,3.03-1.07c0.83-0.7,1.2-2.07,0.48-2.88c-0.47-0.52-1.22-0.66-1.91-0.76c-9.89-1.37-20.1-0.37-29.53,2.91 c-1.28,0.44-3.94,1.29-4.73,2.5c1.68,1.15,3.35,2.27,4.96,3.33L59.02,69C60.28,68.97,61.59,68.62,62.77,68.49z" style="fill:url(#SVGID_3_);"/>
      <linearGradient id="SVGID_4_" gradientTransform="matrix(0.9972 -0.075 0.075 0.9972 -4.3011 5.9002)" gradientUnits="userSpaceOnUse" x1="71.3607" x2="77.0667" y1="42.005" y2="66.988">
        <stop offset="0.386" style="stop-color:#FFD880;stop-opacity:0"/>
        <stop offset="0.4643" style="stop-color:#F6CD76;stop-opacity:0.1274"/>
        <stop offset="0.8207" style="stop-color:#CEA04B;stop-opacity:0.7079"/>
        <stop offset="1" style="stop-color:#BF8E3A"/>
      </linearGradient>
      <path d="M99.47,60.83c3.94-4.13-5.52-9-9.14-9.83C73,47,47.61,60.85,51.41,64.19 c3.03,2.66,8.16,5.58,9.01,6.08c4.98-0.24,9.97-0.86,14.89-1.65c4.64-0.75,9.29-1.54,13.79-2.93c3.12-0.96,7.56-2.26,10.03-4.52 C99.25,61.05,99.36,60.94,99.47,60.83z" style="fill:url(#SVGID_4_);"/>
    </g>
    <g style="opacity:0.2;">
      <path d="M38.83,33.62c1.11,0,2.22,0.02,3.29,0.05l0.34,0.01c16.04,0.34,30.35,2.77,41.37,7.03 c14.45,5.58,23.65,14.31,27.33,25.94c3.02,13.9-0.18,24.45-11.39,37.57c-3.61,3.66-7.87,6.67-13.02,9.19 c-8.41,4.12-17.5,6.21-27.01,6.21c-10.81,0-22.15-2.78-32.8-8.05c-8.6-4.25-18.61-11.24-20.92-18.1 c-0.76-2.27-0.63-4.38,0.41-6.45c2.11-4.22,13.7-6.36,23.92-8.25c5.6-1.03,11.39-2.1,16.64-3.58l12.5-3.22 c1.14-0.29,2-1.23,2.21-2.39c0.2-1.16-0.3-2.33-1.27-3l-0.18-0.12c-0.92-0.62-3.36-2.27-5.62-4.1c-0.06-0.05-0.12-0.09-0.18-0.14 c-5.5-3.8-10.58-7.58-14.7-10.93l-0.65-0.53c-3.18-2.57-11.61-9.39-12.03-13.46c-0.05-0.53,0.08-0.82,0.29-1.08 c0.36-0.44,1.37-1.27,4.14-1.94C33.96,33.69,36.71,33.62,38.83,33.62 M38.83,30.62c-2.71,0-5.49,0.14-8.03,0.75 c-2.92,0.71-4.75,1.73-5.75,2.95c-4.61,5.62,8.18,15.54,12.81,19.3c4.54,3.69,9.77,7.53,14.89,11.07c2.53,2.05,5.28,3.88,6,4.37 L46.22,72.3c-16.2,4.57-38.4,5.26-42.46,13.38c-6.27,12.54,13.34,24.37,21.86,28.58c10.83,5.35,22.49,8.36,34.13,8.36 c9.61,0,19.21-2.05,28.33-6.52c5.24-2.57,9.85-5.72,13.91-9.86c12.32-14.4,15.2-26.14,12.08-40.37 c-8.83-28.21-45.07-34.64-71.55-35.2C41.33,30.65,40.09,30.62,38.83,30.62L38.83,30.62z" style="fill:#424242;"/>
    </g>
  </g>
</svg>