<?xml version="1.0" encoding="utf-8"?>
<!-- Generator: Adobe Illustrator 19.2.1, SVG Export Plug-In . SVG Version: 6.00 Build 0)  -->
<svg version="1.1" id="图层_1" xmlns="http://www.w3.org/2000/svg" xmlns:xlink="http://www.w3.org/1999/xlink" x="0px" y="0px"
	 viewBox="0 0 128 128" style="enable-background:new 0 0 128 128;" xml:space="preserve">
<g>
	<path style="fill:#EC6C30;" d="M126.7,57.16c0.05,0.83,0.09,1.71,0.11,2.64c0.13,6.72-2.39,13.14-7.03,18.79
		c-4.24,5.15-10.26,9.64-17.66,13.13c-6.98,3.3-15.2,5.69-24.33,6.9c-0.63,0.08-1.26,0.16-1.89,0.23
		c-8.84,0.99-17.08,0.77-24.44-0.5c-7.16-1.22-13.47-3.44-18.69-6.49l18.77,26.66l3.64-5.61l8.73-13.44L80.81,120l1.3,1.58
		l11.4-26.46l10.17,9.37l6.52,6l8.76-30.94l2.32,3.07l4.53,5.98C128.12,77.22,127.68,64.6,126.7,57.16z"/>
	<path style="fill:#FBB817;" d="M118.96,79.55l-8.76,30.94l-6.52-6l-10.17-9.37l-11.4,26.46l-1.3-1.58L63.9,99.47l-8.73,13.44
		l-3.64,5.61L32.76,91.86l-3.72,11.24c0.96,1.53,1.98,3.03,3.09,4.47c1.02,1.5,2.4,3.02,3.83,4.61c2,2.21,4.12,4.52,6.68,6.26
		c0,0.01,0,0.01,0.01,0.01c5.1,3.46,11.52,6.19,18.66,7.69c6.19,1.33,12.93,1.75,19.83,0.98c0.27-0.04,0.53-0.06,0.78-0.09
		c0,0,0,0,0-0.01c7.25-0.89,13.9-3.04,19.67-6c2.62-1.33,5.06-2.84,7.29-4.47c4.69-3.44,8.44-7.41,11.02-11.57
		c1.44-2.3,2.5-4.67,3.17-7c1.18-2.92,2.07-6.11,2.74-9.39l-4.53-5.98L118.96,79.55z"/>
	<path style="fill:#EC6C30;" d="M18.11,74.86c1.55,7.57,4.87,18.59,10.93,28.24l3.72-11.24C25.56,87.65,20.44,81.85,18.11,74.86z"/>
</g>
<path style="fill:#855C52;" d="M119.77,78.59c-4.24,5.15-10.26,9.64-17.66,13.13c-6.98,3.3-15.2,5.69-24.33,6.9
	c-0.63,0.08-1.26,0.16-1.89,0.23c-8.84,0.99-17.08,0.77-24.44-0.5c-7.16-1.22-13.47-3.44-18.69-6.49c-7.2-4.21-12.33-10.01-14.65-17
	c-1.36-5.03-1.94-8.34-1.94-8.34h0.01c4.75,16.98,29.78,27.84,58.38,24.64c30.49-3.43,53.48-21.55,51.35-40.48
	c0.04,0.19,0.07,0.37,0.09,0.55c0.01,0.06,0.02,0.12,0.02,0.16c0.19,1.34,0.43,3.3,0.67,5.67c0,0.02,0.01,0.06,0.01,0.09
	c0.05,0.83,0.09,1.71,0.11,2.64C126.93,66.52,124.41,72.94,119.77,78.59z"/>
<path style="fill:#FAD78D;" d="M125.9,50.67c2.13,18.93-20.86,37.06-51.35,40.48c-28.59,3.2-53.63-7.66-58.38-24.64
	c-0.32-1.12-0.55-2.27-0.68-3.45c-2.13-18.93,20.86-37.06,51.35-40.48c29.4-3.3,55.03,8.28,58.73,26.08
	c0.09,0.53,0.18,1.04,0.26,1.53c0.01,0.09,0.04,0.19,0.05,0.28C125.89,50.54,125.89,50.6,125.9,50.67z"/>
<g>
	<g>
		<path style="fill:#855C52;" d="M75.38,69.23c-0.89,1.72-1.8,1.64-2.73,1.15L1.41,34.85c-0.93-0.48-0.96-2.26-0.07-3.98l0,0
			c0.89-1.72,2.36-2.71,3.29-2.23l70.11,37.7C75.67,66.82,76.27,67.52,75.38,69.23L75.38,69.23z"/>
	</g>
	<g>
		
			<ellipse transform="matrix(0.4602 -0.8878 0.8878 0.4602 -20.4636 106.3284)" style="fill:#855C52;" cx="77.21" cy="69.99" rx="4.14" ry="4.54"/>
	</g>
</g>
<g>
	<g>
		<path style="fill:#875E54;" d="M92.43,58.45c-1.29,1.43-2.16,1.11-2.94,0.41L29.48,5.94c-0.77-0.71-0.59-2.58,0.71-4.01l0,0
			c1.3-1.43,3.22-1.88,4-1.18l58.38,54.73C93.33,56.19,93.73,57.02,92.43,58.45L92.43,58.45z"/>
	</g>
	<g>
		
			<ellipse transform="matrix(0.6722 -0.7403 0.7403 0.6722 -13.5187 88.9289)" style="fill:#875E54;" cx="93.68" cy="59.73" rx="4.17" ry="4.57"/>
	</g>
</g>
<g>
	<path style="fill:#855C52;" d="M42.66,118.5c0,0.01,0,0.01,0.01,0.01c5.1,3.46,11.52,6.19,18.66,7.69
		c6.19,1.33,12.93,1.75,19.83,0.98c0.27-0.04,0.53-0.06,0.78-0.09c0,0,0,0,0-0.01c7.25-0.89,13.9-3.04,19.67-6
		c2.62-1.33,5.06-2.84,7.29-4.47c4.69-3.44,8.44-7.41,11.02-11.57c1.44-2.3,1.74-3.24,2.86-5.58c1.18-3.14,2.2-6.91,2.83-9.84
		c-0.39,1.49-1.67,5.45-4.05,9.02c-1.92,2.88-3.84,5.35-7.84,8.89c-6.48,5.73-14.98,11.78-31.61,14.03
		c-14.87,2.02-26.28-1.26-35.23-4.76c-4.57-1.79-9.26-4.89-12.31-7.75c-1.61-1.51-4.88-4.94-4.88-4.94
		C32.42,108.55,38.26,115.52,42.66,118.5z"/>
</g>
</svg>
