<svg xmlns="http://www.w3.org/2000/svg" viewBox="0 0 128 128"><path d="M122.5 59.02c-1.36-2.31-1.3-5.79-1.17-8.41.45-8.86-1.44-17.51-6.54-24.82C108 16.04 97.43 8.16 85.39 3.11c-1.71-.72-3.74-1.33-5.69-1.35-.04-.01-.09-.03-.14-.04a4.94 4.94 0 0 0-5.85 3.82L57.4 83.31c-4.3-4.12-9.96-6.68-16.06-7.75-10.55-1.84-22.31.67-30.21 6.72-2.65 2.03-5.37 4.77-7.09 7.67C2.27 92.94.68 97.38.72 100.9c.09 7.34 3.27 14.51 8.98 19.18 1.57 1.29 3.34 2.52 5.15 3.44 9.94 5.1 22.38 2.84 31.78-2.4 7.13-3.98 14.78-11.37 16.89-19.6.17-.34.29-.7.38-1.1l12.79-60.94c.82.15 1.59.27 2.17.4 3.36.71 6.64 1.73 9.78 3.09 5.83 2.54 11.46 6.31 14.88 11.79 3.41 5.49 6.47 10.82 12.77 13.45 2.62 1.1 7.54 1.31 9.79-.69 3.71-3.29-2.15-6.08-3.58-8.5z" fill="#006ca2"/></svg>