<?xml version="1.0" encoding="utf-8"?>
<!-- Generator: Adobe Illustrator 19.2.1, SVG Export Plug-In . SVG Version: 6.00 Build 0)  -->
<svg version="1.1" id="レイヤー_1" xmlns="http://www.w3.org/2000/svg" xmlns:xlink="http://www.w3.org/1999/xlink" x="0px"
	 y="0px" viewBox="0 0 128 128" style="enable-background:new 0 0 128 128;" xml:space="preserve">
<g>
	<g>
		<path style="fill:#855C52;" d="M71.91,115.9c-0.89-4.62-0.97-9.35-1.44-14.02c-0.07-0.61-0.14-1.23-0.16-1.84
			c-0.03-1.3-0.68-2.16-1.9-2.64c-0.63-0.25-1.44-0.21-2.1-0.32c-0.72-0.12-1.4-0.17-2.13-0.15c-0.06,0-0.12,0.01-0.18,0.02
			c-0.05-0.01-0.11-0.02-0.17-0.02c-0.73-0.02-1.42,0.03-2.14,0.15c-0.67,0.11-1.47,0.07-2.11,0.32c-1.22,0.48-1.87,1.34-1.9,2.64
			c-0.02,0.61-0.09,1.23-0.15,1.84c-0.47,4.68-0.55,9.4-1.44,14.02c-0.72,3.79-5.25,9.9,0.83,11.29c4.52,1.02,9.64,1.03,14.16,0
			C77.17,125.81,72.64,119.69,71.91,115.9z"/>
		<path style="fill:#757F3F;" d="M113.07,88.9c-6.87-1.93-12.27-4.5-16.09-6.69c-0.27-0.24-0.66-0.44-0.53-0.83
			c0.09-0.25,0.42-0.35,0.66-0.4c2.3-0.31,4.27-0.64,5.7-0.99c8.03-1.92,8.09-7.04,8.09-7.04s1.18-6.13-6.03-8.14
			c-6.35-1.78-11.45-4.11-15.21-6.19c-0.26-0.17-0.5-0.35-0.39-0.66c0.06-0.17,0.19-0.25,0.34-0.29c1.18-0.14,2.26-0.28,3.15-0.45
			c6.96-1.28,7.24-5.68,7.24-5.68s1.17-4.89-4.79-7.24c-5.54-2.18-11.1-5.44-14.76-7.78c-0.19-0.2-0.44-0.46-0.32-0.73
			c0.11-0.26,0.42-0.28,0.66-0.31c0,0,0.02,0,0.03,0l1.07,0.12c0,0,6.16,1.17,8.07-4.11c1.91-5.28-3.96-8.07-3.96-8.07
			C74.42,17.99,66.79,2.58,66.79,2.58C65.17-0.5,64,0.09,64,0.09s-1.17-0.59-2.78,2.5c0,0-7.63,15.41-19.22,20.83
			c0,0-5.87,2.79-3.97,8.07c1.91,5.28,8.08,4.11,8.08,4.11l1.07-0.12c0,0,0.02,0,0.02,0c0.25,0.04,0.55,0.05,0.67,0.31
			c0.12,0.27-0.13,0.53-0.32,0.73c-3.66,2.33-9.22,5.59-14.76,7.78c-5.97,2.35-4.8,7.24-4.8,7.24s0.28,4.39,7.24,5.68
			c0.9,0.17,1.98,0.31,3.15,0.45c0.15,0.05,0.28,0.13,0.33,0.29c0.11,0.31-0.13,0.49-0.39,0.66c-3.76,2.08-8.86,4.41-15.21,6.19
			c-7.2,2.02-6.02,8.14-6.02,8.14s0.06,5.13,8.09,7.04c1.44,0.35,3.41,0.68,5.7,0.99c0.23,0.05,0.58,0.16,0.66,0.4
			c0.13,0.39-0.26,0.59-0.53,0.83c-3.82,2.2-9.22,4.77-16.1,6.69c-7.2,2.02-6.03,8.13-6.03,8.13s0.13,4.88,8.09,7.05
			c3.29,0.89,7.9,0.92,13.02,0.44c0.72,0.03,1.49-0.05,2.12,0.33c0.78,0.47,0.81,1.48,1.04,2.26c0.22,0.75,0.49,1.49,0.87,2.16
			c3.39,6.09,11.73,3.84,17.76-0.21c0.59-0.34,1.27-0.6,1.97-0.71c0.95-0.16,1.94-0.05,2.78,0.42c0.07,0.04,0.16,0.1,0.23,0.15
			c0.66,0.56,1.35,1.08,2.1,1.51c1.36,0.79,3.06,1.18,4.58,1.54c2.81,0.67,6.4,0.17,9.04-1.49c0.11-0.06,0.22-0.14,0.29-0.18
			c0.07-0.04,0.12-0.09,0.19-0.14c0.08-0.06,0.16-0.11,0.23-0.17c0.27-0.2,0.53-0.41,0.81-0.59c0.56-0.35,1.21-0.59,1.87-0.64
			c0.3-0.02,0.59,0,0.88,0.05c0.45,0.1,0.9,0.27,1.29,0.5c0.08,0.04,0.2,0.12,0.32,0.18c5.97,3.82,13.92,5.77,17.21-0.14
			c0.38-0.69,0.65-1.42,0.86-2.16c0.23-0.79,0.27-1.79,1.04-2.27c0.52-0.31,1.13-0.31,1.73-0.32c4.61,0.36,8.73,0.27,11.75-0.55
			c7.96-2.17,8.09-7.05,8.09-7.05S120.27,90.92,113.07,88.9z"/>
	</g>
	<path style="fill:#BDCF46;" d="M51.65,29.53c1.13,0.44,1.86,1.31,3.49,0.67c1.04-0.41,1.97-1.96,2.12-3.03
		c0.22-1.66-0.91-1.26-1.99-1.79c-0.32-0.84,0.62-2.17,0.14-3.11c-0.69-1.34-2.81,0.09-3.43,0.8c-0.99,1.13-1.83,1.97-3.22,2.7
		c-0.93,0.49-4.86,2.56-2.93,3.97c0.4,0.29,0.81,0.33,1.29,0.33c1.26-0.01,2.53-0.87,3.73-0.73C51.15,29.36,51.41,29.43,51.65,29.53
		z"/>
	<path style="fill:#BDCF46;" d="M40.09,47.06c-1.43,0.51-4.48,2.4-2.56,4.15c1.34,1.23,4.2,0.52,5.77,0.13
		c0.66-0.16,1.52-0.62,2.21-0.58c0.74,0.04,0.75,0.58,0.99,1.18c0.5,1.23,1.41,1.47,2.67,1.47c0.76,0,1.37,0.04,2.06-0.29
		c1.64-0.78,1.53-0.39,3.04,0.15c1.76,0.63,3.28-0.24,4.31-1.66c0.34-0.46,0.6-1.17,0.57-1.72c-0.05-1.07-0.8-1.62-1.91-1.47
		c-1.12,0.16-1.89,0.41-2.5-0.73c-0.79-1.5-3.07,0.37-3.62-0.71c-0.25-0.47,0.28-1.49,0.19-2.05c-0.11-0.7-0.52-1.23-1.26-1.35
		c-1.16-0.19-2.11,0.12-3.04,0.63c-1.74,0.95-3.25,1.71-5.14,2.31C41.39,46.65,40.76,46.82,40.09,47.06z"/>
	<path style="fill:#BDCF46;" d="M42.56,63.99c-0.96-0.13-2.09,0.27-2.89,0.66c-3.28,1.6-6.53,3.29-9.84,4.85
		c-1.17,0.55-3.03,1.1-2.97,2.72c0.09,2.96,5.2,1.7,6.91,1.5c1.51-0.17,3.98-0.77,5.22,0.45c0.72,0.7,1.06,1.12,2.11,1.23
		c1.77,0.19,4.08-1.59,5.67-0.73c0.66,0.35,1.03,0.83,1.77,1.08c1.79,0.62,3.97-0.12,5.44-1.22c1.25-0.93,2.14-3.62,0.44-4.53
		c-1.11-0.6-2,0.49-3.03,0.3c-1.56-0.28-1.18-1.46-2.28-2.31c-1.33-1.03-3.4,0.7-4.37-0.32c-0.81-0.85-0.27-2.27-0.98-3.07
		C43.42,64.23,43.01,64.05,42.56,63.99z"/>
	<path style="fill:#BDCF46;" d="M39.15,87.31c-2.73-0.53-5.49,1.52-7.84,2.57c-2.59,1.15-5.46,1.33-8.02,2.56
		c-1.7,0.82-1.53,3.4,0.13,4.14c1.52,0.67,3.46,0.48,5.07,0.39c2.38-0.13,4.64-1.16,7.02-1.38c3.25-0.29,3.41,0.58,3.96,3.37
		c0.41,2.02,2.55,3.12,4.51,2.7c1.02-0.22,1.91-1.1,2.87-1.52c1.2-0.53,1.14-0.38,2.29,0.01c0.83,0.28,1.9,0.26,2.71-0.05
		c1.36-0.51,2-1.58,2.03-2.95c0.04-2.13,0.02-4.92-2.92-4.11c-3.21,0.89-2.17-0.85-4.51-1.72c-1.66-0.62-3.2,0.97-4.72-0.39
		C40.53,89.87,41.23,87.77,39.15,87.31z"/>
</g>
</svg>
