<svg xmlns="http://www.w3.org/2000/svg" viewBox="0 0 128 128"><path d="M51.69 90.18h-9.08l-.14 10.4c0 4.53 3.84 8.88 8.4 8.88h1.65c4.56 0 8.45-4.18 8.45-8.71l-.2-10.57h-9.08zM84.03 51.64s5.89 1.02 5.89 7.37c0 5.6-4.3 7.81-8.6 7.81V51.64h2.71zM19.75 51.64s-5.89 1.02-5.89 7.37c0 5.6 4.3 7.81 8.6 7.81V51.64h-2.71z" fill="#563e37"/><path d="M51.89 10.07c-25.4 0-32.04 19.69-32.04 47.35 0 28.68 18.43 36.1 32.04 36.1 13.41 0 32.04-7.2 32.04-36.1 0-27.66-6.65-47.35-32.04-47.35z" fill="#70534a"/><path d="M41.33 59.99c0 2.86-1.91 5.17-4.28 5.17-2.36 0-4.29-2.32-4.29-5.17 0-2.86 1.92-5.18 4.29-5.18s4.28 2.31 4.28 5.18M62.43 59.99c0 2.86 1.91 5.17 4.29 5.17 2.36 0 4.28-2.32 4.28-5.17 0-2.86-1.92-5.18-4.28-5.18-2.37 0-4.29 2.31-4.29 5.18M61.16 77.46h-9.27-9.27c-1.06 0-1.52.71-.82 1.79.98 1.5 4.64 4.38 10.09 4.38s9.11-2.88 10.09-4.38c.7-1.08.24-1.79-.82-1.79z" fill="#232020"/><path d="M56.37 69.58c-1.58.45-3.22.66-4.48.66s-2.9-.22-4.48-.66c-.67-.19-.94.45-.7.87.5.88 2.52 2.66 5.18 2.66 2.66 0 4.68-1.78 5.18-2.66.24-.43-.03-1.07-.7-.87z" fill="#3c2b24"/><path d="M52.65 6.46s-.5-.02-.71-.01c-.21 0-.71.01-.71.01-27.41.53-35.67 17.02-35.67 28.45 0 11.11.01 19.28.01 19.28s.44-.45 1.24-1.08c.86-.67 1.81-1.04 1.81-1.04L20 61.35l9.13-19.08c.06-.12.18-.19.31-.17l5.41.6c5.44.6 10.91.9 16.37.91v.01c.24 0 .47-.01.71-.01s.47.01.71.01v-.02c5.46-.02 10.93-.31 16.37-.91l5.41-.6c.13-.01.25.06.31.17l9.13 19.08 1.38-9.28s.95.38 1.81 1.04c.81.63 1.24 1.08 1.24 1.08s.01-8.16.01-19.28c.02-11.42-8.24-27.91-35.65-28.44z" fill="#232020"/><g><path d="M118.85 73.88l-2.38 8.39c1.27.29 2.34.85 3.34 1.26l2.64-8.59-3.6-1.06z" fill="#a7a9ac"/><path d="M101.29 135.84l2.25.66 16.27-52.98c-1-.41-2.07-.97-3.34-1.26l-15.18 53.58z" fill="#603913"/><path d="M122.14 68.77c-2.32 1.16-2.4 4.54-5.65 3.68.09 1.72 1.09 3.3 3.06 3.95 2.06.68 4.38-.32 5.53-2.32-.96-1.94 1.23-6.35-2.94-5.31z" fill="#d1d3d4"/><path d="M121.23 60.76c.23.3-.41 1.95-.54 2.32-.28.8-.64 1.57-1.03 2.33-.79 1.53-1.94 2.83-2.62 4.42-.37.87-.6 1.75-.56 2.62 3.25.86 3.34-2.52 5.65-3.68 4.17-1.04 1.98 3.37 2.94 5.31.21-.36.38-.73.51-1.15 1.7-5.85-2.5-9.8-4.35-12.17z" fill="#547dbe"/><path d="M97.7 75.16l2.46 8.95c1.31-.44 2.6-.51 3.73-.69l-2.33-9.27-3.86 1.01z" fill="#a7a9ac"/><path d="M115.87 141.24l2.41-.63-14.39-57.2c-1.13.18-2.42.26-3.73.69l15.71 57.14z" fill="#754c29"/><path d="M95.85 74.13c-.4-.24-.91-.45-1.4-.71.19 1.36.73 2.61 1.94 3.37 1.5.95 3.65.91 5.18.03 3.15-1.83 2.99-6.99.78-9.43-.07-.07-.12-.14-.19-.22-.25.09-.5.2-.76.37-1.7 1.47-2.4 6.81-5.55 6.59z" fill="#d1d3d4"/><path d="M97.95 60.13c-.25.02-.5.66-.59.84-.36.69-.66 1.42-.94 2.14-.03.07-.05.14-.08.21-.77 2.03-1.34 4.12-1.71 6.26-.2 1.16-.35 2.55-.17 3.84.49.26 1 .47 1.4.71 3.15.23 3.85-5.11 5.54-6.58.26-.17.51-.28.76-.37-4.11-4.59-4.21-7.05-4.21-7.05z" fill="#089c58"/><g><path d="M112.41 70.96l-.37 9.84c-1.46-.13-2.81.1-4.02.19l.16-10.14 4.23.11z" fill="#a7a9ac"/><path d="M109.67 143.64l-2.65-.07 1-62.58c1.21-.09 2.56-.32 4.02-.19l-2.37 62.84z" fill="#8b5e3c"/><path d="M107.56 67.42l.52 4.58 4.39.04 1.03-6.96c-2.07-.95-3.97 1.36-5.94 2.34z" fill="#d1d3d4"/><path d="M114.19 60.21c-.08-.42-.3-.73-.77-.76-.24-.02-.54.27-.72.25-.23-.03-.35-.29-.55-.37-.73-.26-1.53.33-2.26.35-.47.01-.93-.07-1.39-.01-.14.02-.83.25-1.01.19-.96-.36-.67.88-.67.88l.76 6.68c1.97-.98 3.87-3.29 5.94-2.35.09-.63.19-1.26.28-1.88.07-.57.56-2.06.39-2.98z" fill="#db4436"/></g><g fill="#414042"><path d="M59.5 110.88H44.3c-2.84 0-5.16-2.32-5.16-5.16v-7.69c0-1.65 1.35-3 3-3h19.52c1.65 0 3 1.35 3 3v7.69c0 2.84-2.33 5.16-5.16 5.16z"/><path d="M8.33 118.03V128h87.14v-9.97c0-12.53-17.12-16.39-34.47-17.28-.08.75-.25 6.81-9.23 6.81-8.77 0-9.07-5.4-9.27-6.98-17.09.81-34.17 4.46-34.17 17.45z"/></g></g><g><path d="M95.66 109.71c1.22-.57 2.45-.37 3.64.15.97-1.12 2.76-2.91 3.34-3.35.69-.52 1.64-1.17 2.9.09.82.82 1.08 1.84.01 2.87-.4.38-.82.77-1.23 1.14l.56.38c.39-.33.75-.63 1.02-.86 1.15-.96 2.31-.87 3.3.37.87 1.08.35 2.34-.29 2.93-.34.31-1.4 1.07-2.46 1.77l.07.3.01.1c.7-.41 1.38-.79 1.87-1.06 1.3-.72 2.45-.4 3.05.6.73 1.21-.01 2.3-.7 2.82-.52.39-2.51 1.54-3.89 2.24l.04.52c.1-.06.19-.11.3-.17.02-.01.03-.02.05-.03l.27-.15a.21.21 0 0 0 .06-.04c.11-.06.21-.12.32-.18 0 0 .01 0 .01-.01.11-.06.23-.13.35-.19.02-.01.04-.02.07-.04l.27-.15c.04-.02.07-.04.11-.06.08-.04.15-.08.23-.12l.12-.06c.08-.04.15-.08.22-.12.04-.02.07-.04.11-.06.11-.06.21-.11.31-.16 1.21-.62 1.99-.47 2.52.46.75 1.3-.2 2.49-.86 2.93-.66.44-3.09 1.69-4.01 1.95-.06.02-.12.03-.18.04l.04.53c-3.22 2.26-6.44 2.76-6.44 2.76-2.61.44-3.53-.09-4.82-1.08-1.46-1.13-2.72-2.85-2.92-3.12-2.14-2.87-2.97-5.17-1.93-8.48.25-.8.54-2.07 2.13-3.69.6-.65 1.62-1.38 2.43-1.77z" fill="#584539"/><path d="M100.78 90.27c-7.55 3.11-12.5 9.73-15.7 16.82-1.64 3.62-2.45 7.19-2.82 11-.18 1.85-.16 3.65.29 5.77.31 1.46.78 2.81 1.86 4.29.53.73 1.22 1.32 2.15 1.65.5.18 1.13.23 2.21.17 2.22-.11 3.58-.93 5.46-1.95.78-.4 1.56-.79 2.34-1.19 1.42-.65 3.33-1.81 4.83-.94 1.75 1.01.46 3.44-.42 4.66-.35.49-.7.98-1.04 1.47-.46.68-.9 1.38-1.16 2.02-.13.3-.22.6-.24.89-.03.31.03.63.25.95.24.35.66.55 1.15.69 1.2.34 2.47.28 3.73.08 4.44-.72 8.68-3.05 12.12-5.93 1.43-1.2 2.69-2.52 4.43-4.54 17.28-20.12 3.57-45.4-19.44-35.91z" fill="#bcaaa4"/><path d="M97.81 114.85c1.29-.1 2.63 1.12 3.83 1.61 3.96 1.62 4.73-1.55 3.01-3.3-3.91-3.97-8.72-2.93-10.69-1.02-.74.72-1.7 1.88-2.07 2.82-.96 2.42 3 3.54 4.03 1.31.34-.76 1.06-1.35 1.89-1.42z" fill="#584539"/><path d="M104.9 112.92c-4.08-4.15-9.08-3.06-11.18-1.03-.74.72-1.75 1.92-2.15 2.94-.01.01-.01.03-.01.04.1.03.2.06.3.1.11.05.22.1.34.15.01 0 .01-.01.02-.01 0-.01 0-.01.01-.02.34-.86 1.25-1.97 1.99-2.7.94-.92 2.54-1.61 4.37-1.61 1.85 0 3.94.71 5.82 2.63.76.77.99 1.87.53 2.56-.49.73-1.64.79-3.16.17-.37-.15-.77-.38-1.19-.63-.9-.53-1.82-1.08-2.8-1-.91.07-1.77.71-2.19 1.62-.01.03-.04.05-.05.08.18.13.37.28.56.43.04-.07.09-.14.13-.22.31-.68.94-1.16 1.61-1.21.75-.05 1.58.43 2.39.9.42.25.86.5 1.28.68 2.62 1.08 3.67.06 4-.43.63-.96.37-2.44-.62-3.44z" fill="#3c2b24"/><path d="M109.2 96.66c-.32-1.64-1.73-3.09-3.44-3.21-1.95-.13-2.95 1.55-3.43 3.19s-.52 3.52.61 4.91c1.24 1.53 3.48 1.47 4.69-.04.44-.54.77-1.24.97-1.97.58-.79.8-1.85.6-2.88z" fill="#547dbe"/><path d="M119.92 96.36c-1.62-1.05-4.05-.08-5.48.9-1.6 1.11-2.78 3.26-1.89 5.18.87 1.89 3.19 2.46 5.02 1.71 1.6-.65 3.41-2.4 3.37-4.24.46-1.27.33-2.68-1.02-3.55z" fill="#089c58"/><path d="M121.47 107.45c-1.58-.08-3.25.66-4.46 1.63-1.32 1.06-2.25 2.65-1.39 4.31.78 1.51 2.61 2.04 4.19 1.87 1.49-.16 2.92-1.02 3.75-2.28.3-.45.51-.98.55-1.52.11-.29.2-.6.24-.93.22-1.78-1.22-2.99-2.88-3.08z" fill="#f2b31b"/><path d="M117.27 118.91c-.76-1.17-2.22-1.6-3.54-1.85-1.51-.29-3.26-.15-4.44.96-1.38 1.3-1.11 3.35.43 4.37.32.21.69.39 1.09.53 1.39 1.04 3.18.74 4.7.18 1.17-.44 2.13-1.47 2.19-2.67 0-.02.01-.03.01-.04.08-.64-.11-1.14-.44-1.48z" fill="#db4436"/></g></svg>