<?xml version="1.0" encoding="utf-8"?>
<!-- Generator: Adobe Illustrator 26.3.1, SVG Export Plug-In . SVG Version: 6.00 Build 0)  -->
<svg version="1.1" id="Layer_1" xmlns="http://www.w3.org/2000/svg" xmlns:xlink="http://www.w3.org/1999/xlink" x="0px" y="0px"
	 viewBox="0 0 128 128" style="enable-background:new 0 0 128 128;" xml:space="preserve">
<path style="fill:#543930;" d="M30.85,27.25c-0.26-7.36-4.54-11.81,0.17-17.5c3.11-3.75,9.3-2.18,10.39-0.74
	c2.11,2.79-1.49,5.3-2.32,6.69c-1.22,2.05,1.03,10.41-2.66,16.39c-5,8.08-10.12,6.82-10.12,6.82S31.1,34.33,30.85,27.25z"/>
<radialGradient id="SVGID_1_" cx="-964.8004" cy="627.7829" r="1" gradientTransform="matrix(-13.418 -1.5096 -1.8253 16.224 -11761.8232 -11619.877)" gradientUnits="userSpaceOnUse">
	<stop  offset="0.5264" style="stop-color:#6D4C41;stop-opacity:0"/>
	<stop  offset="1" style="stop-color:#6D4C41"/>
</radialGradient>
<path style="fill:url(#SVGID_1_);" d="M30.45,23.82c-1.03-5.43-3.36-9.32,0.57-14.07c3.11-3.75,9.3-2.18,10.39-0.74
	c2.11,2.79-1.49,5.3-2.32,6.69C37.87,17.74,30.45,23.82,30.45,23.82z"/>
<radialGradient id="SVGID_00000043458968163580504020000013952871792933249154_" cx="-828.338" cy="587.249" r="1" gradientTransform="matrix(14.231 2.4505 3.0232 -17.5564 10038.3701 12372.1484)" gradientUnits="userSpaceOnUse">
	<stop  offset="0" style="stop-color:#6D4C41"/>
	<stop  offset="0.5264" style="stop-color:#6D4C41;stop-opacity:0"/>
</radialGradient>
<path style="fill:url(#SVGID_00000043458968163580504020000013952871792933249154_);" d="M30.85,27.25
	c-0.07-1.84-0.4-3.64-0.84-5.43c-0.39-1.58-0.79-2.93,0.23-4.39c1.62-2.29,4.85-3.29,7.48-2.32c0.79,0.29,1.28,0.7,1.17,1.51
	c-0.08,0.59-0.2,1.12-0.21,1.73c-0.02,1.38,0.03,2.75,0.01,4.13c-0.06,3.3-0.49,6.73-2.25,9.59c-5,8.08-10.12,6.82-10.12,6.82
	S31.1,34.33,30.85,27.25z"/>
<radialGradient id="SVGID_00000156583249668588869080000011535369324114655403_" cx="-773.3024" cy="592.6036" r="1" gradientTransform="matrix(7.7991 1.3691 4.3671 -24.8766 3474.9385 15824.4951)" gradientUnits="userSpaceOnUse">
	<stop  offset="0.5264" style="stop-color:#6D4C41;stop-opacity:0"/>
	<stop  offset="1" style="stop-color:#6D4C41"/>
</radialGradient>
<path style="fill:url(#SVGID_00000156583249668588869080000011535369324114655403_);" d="M31.06,37.78c0,0,5.82-3.48,7.14-10.29
	c0.53-2.72,0.57-5.02,0.5-6.57c-0.06-1.34-0.9-5.74,0.21-7.24"/>
<path style="fill:#BA8D68;" d="M41.24,13.59c2.51-4.06,8.2-7.22,12.91-6.44c5.28,0.87,8.11,4.67,8.86,9.49
	c0.27,1.75,0.22,3.49-0.08,4.72c-0.04,0.15-0.33,1.22-0.35,1.56c-0.2,1.3,2.32,2.59,2.61,4.02c0.22,1.08-2.03,1.77-2.21,1.96
	c-0.88,0.97,0.51,5.58-5.66,6.04c-2.37,0.18-1.91,0.03-2.61,0.3c-1.09,0.42-0.99,3.32-0.99,3.32s-0.61,4.78-4.69,3.51
	c-4.66-1.44-4.84-4.74-4.84-4.74s1.73-4.6-1.05-9.38C40.93,24.12,39.62,16.19,41.24,13.59z"/>
<path style="fill:#5D4037;" d="M62.36,31.48c-0.86,0.05-1.7-0.15-2.43-0.69c-0.79-0.59-0.25-1.24,0.66-0.86
	c0.55,0.23,1.32,0.35,2.02,0.22L62.36,31.48z"/>
<path style="fill:#49362E;" d="M58.71,25.37c-0.62-0.02-1.1-0.81-1.07-1.77c0.03-0.96,0.56-1.72,1.18-1.7
	c0.62,0.02,1.1,0.81,1.07,1.77C59.86,24.63,59.33,25.39,58.71,25.37z"/>
<path style="fill:#613E31;" d="M59.64,21.07c1.12,0.26,1.34-0.48,0.94-1.04c-0.29-0.42-0.98-0.74-2.25-0.42
	c-1.2,0.3-1.66,1.03-1.97,1.47s-0.24,0.86,0.04,0.89C56.78,21.99,58.25,20.74,59.64,21.07z"/>
<path style="fill:#543930;" d="M40.73,10.44c2.33-2.83,6.11-4.64,10.13-4.83c3.49-0.17,8.28,0.69,11.22,3.6
	c1.77,1.75,2.82,4.05,2.53,6.6c-0.17,1.54-1.44,2.32-1.44,2.32s-1.45-3.5-5.02-2.61c-3.75,0.93-5.38,0.17-5.38,0.17
	c1.26,2.98,0.15,4.61-0.83,5.54c-0.56,0.53-1.08,1.16-1.37,1.53c-0.15,0.19-0.28,0.18-0.34-0.02c-0.15-0.48-0.42-1.35-0.63-1.75
	c-0.69-1.37-1.81-0.88-1.81-0.88c-1.51,0.53-2.05,3.64,0.43,5.47c0.06,0.04,0.23,0.16,0.13,0.47c-0.98,3.15-4.24,3.54-4.46,3.43
	c0,0-0.01,0-0.01-0.01c-0.02-0.01-0.04-0.02-0.05-0.03c-0.5-0.23-0.79-0.64-0.88-1.22c-0.31-2.09-1.7-2.98-2.35-3.89
	c-0.76-1.05-1.62-2.24-2.11-5.53C38.02,15.68,38.8,12.8,40.73,10.44z"/>
<radialGradient id="SVGID_00000156549866969016345050000014159689312389895837_" cx="-966.231" cy="642.8043" r="1.0001" gradientTransform="matrix(-12.5648 0 0 12.5648 -12088.9912 -8059.1655)" gradientUnits="userSpaceOnUse">
	<stop  offset="0.5264" style="stop-color:#6D4C41;stop-opacity:0"/>
	<stop  offset="1" style="stop-color:#6D4C41"/>
</radialGradient>
<path style="fill:url(#SVGID_00000156549866969016345050000014159689312389895837_);" d="M40.73,10.44
	c2.33-2.83,6.11-4.64,10.13-4.83c3.49-0.17,8.28,0.69,11.22,3.6c1.77,1.75,2.82,4.05,2.53,6.6c-0.17,1.54-1.44,2.32-1.44,2.32
	s-1.45-3.5-5.02-2.61c-3.75,0.93-5.38,0.17-5.38,0.17c1.26,2.98,0.15,4.61-0.83,5.54c-0.56,0.53-1.08,1.16-1.37,1.53
	c-0.15,0.19-0.28,0.18-0.34-0.02c-0.15-0.48-0.42-1.35-0.63-1.75c-0.69-1.37-1.81-0.88-1.81-0.88c-1.51,0.53-2.05,3.64,0.43,5.47
	c0.06,0.04,0.23,0.16,0.13,0.47c-0.98,3.15-4.24,3.54-4.46,3.43c0,0-0.01,0-0.01-0.01c-0.02-0.01-0.04-0.02-0.05-0.03
	c-0.5-0.23-0.79-0.64-0.88-1.22c-0.31-2.09-1.7-2.98-2.35-3.89c-0.76-1.05-1.62-2.24-2.11-5.53C38.02,15.68,38.8,12.8,40.73,10.44z"
	/>
<linearGradient id="SVGID_00000047029890594021909180000001779550609554888873_" gradientUnits="userSpaceOnUse" x1="70.0746" y1="47.7257" x2="92.1148" y2="22.9378" gradientTransform="matrix(1 0 0 -1 0 130)">
	<stop  offset="0.4697" style="stop-color:#E0E0E0"/>
	<stop  offset="0.9915" style="stop-color:#BDBDBD"/>
</linearGradient>
<path style="fill:url(#SVGID_00000047029890594021909180000001779550609554888873_);" d="M104.32,121.23l2.13-2.04L70.66,81.65
	l-9.88-10.26l-2.13,2.03l15.32,16L104.32,121.23z"/>
<path style="fill:#FF3D00;" d="M93.72,105.86l12.72,13.35l-2.14,2.03l-12.72-13.35L93.72,105.86z"/>
<linearGradient id="SVGID_00000101086293338367632820000010980658612379205253_" gradientUnits="userSpaceOnUse" x1="103.5785" y1="11.2609" x2="107.8305" y2="7.4989" gradientTransform="matrix(1 0 0 -1 0 130)">
	<stop  offset="0.4697" style="stop-color:#E0E0E0"/>
	<stop  offset="0.9915" style="stop-color:#BDBDBD"/>
</linearGradient>
<path style="fill:url(#SVGID_00000101086293338367632820000010980658612379205253_);" d="M106.19,123.91
	c-1.58,0-2.86-1.28-2.86-2.86c0-1.58,1.28-2.86,2.86-2.86c1.58,0,2.86,1.28,2.86,2.86C109.05,122.63,107.77,123.91,106.19,123.91z"
	/>
<path style="fill:#636262;" d="M70.66,81.65l-2.15,2.05L56.72,71.42c-0.39-0.4-0.37-1.04,0.03-1.43l0.68-0.65
	c0.4-0.38,1.04-0.37,1.42,0.03L70.66,81.65z"/>
<path style="fill:#646464;" d="M23.64,108.76l14-15.97c0.87-1,1.39-2.25,1.47-3.57l1.37-22.35l15.42,1.7l-4.86,23.06
	c-0.79,3.73-2.88,7.06-5.91,9.37l-16.41,12.53L23.64,108.76z"/>
<path style="fill:#7C7C7C;" d="M40.67,63.18l17.49,1.6l4.5,20.29c0.83,3.74,1.12,7.59,0.85,11.42l-1.63,23.12h-6.64l-2.94-24.9
	c0,0-4.98-13.26-5.14-13.33c-3.26-1.54-7.38-3.89-7.38-9.64C39.78,70.92,40.67,63.18,40.67,63.18z"/>
<path style="fill:#4568AD;" d="M54.15,123.98c-0.63,0-1.14-0.51-1.14-1.14v-2.79c0-1.89,1.92-4.05,1.92-4.05h6.94l6.25,2.06
	c1.51,0.59,2.51,2.05,2.53,3.68V123c0,0.55-0.44,1-1,1L54.15,123.98z"/>
<path style="fill:#325599;" d="M19.28,111.9c-0.44-0.45-0.44-1.17,0-1.61l1.97-1.97c1.34-1.34,4.22-1.51,4.22-1.51l4.91,4.91
	l2.96,5.88c0.65,1.49,0.33,3.23-0.81,4.39l-0.89,0.89c-0.39,0.39-1.02,0.39-1.41,0L19.28,111.9z"/>
<radialGradient id="SVGID_00000181059528414157165830000000097431502541256891_" cx="-937.2405" cy="627.4182" r="1" gradientTransform="matrix(-21.1882 0 0 21.1882 -19804.1426 -13241.2178)" gradientUnits="userSpaceOnUse">
	<stop  offset="0.3637" style="stop-color:#651FFF"/>
	<stop  offset="1" style="stop-color:#530EEB"/>
</radialGradient>
<path style="fill:url(#SVGID_00000181059528414157165830000000097431502541256891_);" d="M41.85,73.76h13.9
	c2.26,0,4.09-2.17,4.09-4.84L57.7,46.53c-0.43-4.09-1.87-7.95-4.66-9.61c-4.86-3.39-8.56-1.33-9.96,0.79
	c-1,1.52-1.42,3.27-1.65,5.85L38.98,68.9C38.98,71.8,39.59,73.76,41.85,73.76z"/>
<linearGradient id="SVGID_00000171694024294062605740000013984395118942512004_" gradientUnits="userSpaceOnUse" x1="49.8113" y1="63.471" x2="52.6021" y2="76.4942" gradientTransform="matrix(1 0 0 -1 0 130)">
	<stop  offset="0.5979" style="stop-color:#BA8D68"/>
	<stop  offset="1" style="stop-color:#A47B62"/>
</linearGradient>
<path style="fill:url(#SVGID_00000171694024294062605740000013984395118942512004_);" d="M41.89,57.33l1.8-9.96l8,0.86l-2.46,9.94
	l9.36,9.69c2.65,2.67-2.19,5.24-3.9,4.14l-8.52-6.89C44.66,63.81,41.44,61.6,41.89,57.33z"/>
<linearGradient id="SVGID_00000114781177982649618140000015269160962648700567_" gradientUnits="userSpaceOnUse" x1="55.4857" y1="61.3432" x2="63.8578" y2="53.9013" gradientTransform="matrix(1 0 0 -1 0 130)">
	<stop  offset="0.5979" style="stop-color:#BA8D68"/>
	<stop  offset="1" style="stop-color:#A47B62"/>
</linearGradient>
<path style="fill:url(#SVGID_00000114781177982649618140000015269160962648700567_);" d="M57.43,68.37
	c-0.16-0.12-0.24-0.34-0.18-0.55c0.08-0.26,0.37-0.41,0.63-0.32c0.02,0.01,2.85,0.93,4.49,1.58c0.47,0.19,1.9,0.75,1.94,2.5
	c0.03,1.33,0.04,3.58,0.04,3.58l-2.31-2.4c0.06,0.89,0.13,2.8,0.15,3.59c0.04,1.33-0.98,1.86-2.35,1.12
	c-2.06-1.11-3.26-1.39-4.19-2.88c-0.29-0.48-0.78-3.59-0.96-4.24L57.43,68.37z"/>
<path style="fill:#3615AF;" d="M52.36,53.35l-10.84-1.97l1.75-9.67c0.54-2.98,3.39-4.96,6.37-4.42l0.05,0.01
	c2.98,0.54,4.96,3.39,4.42,6.37L52.36,53.35z"/>
<path style="fill:#504F4F;" d="M50.72,73.04c1.11-3.09,4.96-6.54,8.13-6.25c2.2,0,2.12,1.77,2.12,1.77l-2.25-0.78
	c-2.33-0.29-6.09,2.94-7.05,5.6c-0.37,1.04-0.55,2.45,0.75,3.26c0.18,0.11,0.36,0.13,0.56,0.06c0.6-0.22,1.76-1.76,2.41-2.92
	c0,0,0.11,0.6,0.26,0.83c0.09,0.13,0.35,0.47,0.35,0.47c-0.63,1.03-1.86,2.26-2.68,2.55c-0.19,0.07-0.39,0.1-0.57,0.1
	c-0.3,0-0.59-0.08-0.85-0.25C50.45,76.59,50.03,74.97,50.72,73.04z"/>
</svg>
