<?xml version="1.0" encoding="utf-8"?>
<!-- Generator: Adobe Illustrator 19.2.1, SVG Export Plug-In . SVG Version: 6.00 Build 0)  -->
<svg version="1.1" id="レイヤー_1" xmlns="http://www.w3.org/2000/svg" xmlns:xlink="http://www.w3.org/1999/xlink" x="0px"
	 y="0px" viewBox="0 0 128 128" style="enable-background:new 0 0 128 128;" xml:space="preserve">
<polygon style="fill:#E0E0E0;" points="86.32,35.01 92.36,39.47 89.53,52.26 81.29,45.12 "/>
<path style="fill:#2F2F2F;" d="M125.52,67.52c-1.12,0.19-1.93,0.33-3.11,0.4c-2.39,0.12-4.07-0.06-6.03-1.36
	c-2.27-1.5-4.58-3.16-7.03-4.37c-4.44-2.21-9.9-2.67-14.36-0.29c-2.37,1.26-4.45,3.43-5.76,5.66c-0.93,1.57-1.96,3.34-0.37,4.83
	c3.79,3.57,8.96,0.22,13.41,1.67c4.77,1.55,7.43,5.58,13.06,5.35c3.96-0.16,7.39-2.26,9.61-5.32c0.41-0.55,0.77-1.14,1.1-1.73
	C126.67,71.22,128.62,67,125.52,67.52z"/>
<g>
	<g>
		<g>
			<path style="fill:#855C52;" d="M97.26,82.05c-1.46-4.59-0.15-10.34-3.39-14.07c-1.33-1.54-3.14-3.44-5.23-3.73
				c-2.25-0.31-4.81-0.99-7.14-0.88c-5.79,0.29-10.9,2.73-16.74,1.98c-2.18-0.28-4.37-0.17-6.33-1.24c-1.3-0.72-2.27-1.79-3.52-2.58
				c-3.46-2.2-6.65-4.27-9.38-7.4c-2.74-3.14-4.06-7.35-6.57-10.63c-0.68-0.9-1.33-1.69-2.13-2.52c-0.7-0.74-1.16-1.64-1.77-2.45
				c-1.29-1.7-2.86-3.21-4.26-4.84c-0.72-0.83-1.65-1.16-2.51-1.78c-0.8-0.57-1.38-0.63-2.35-0.75c-1.27-0.16-2.36-0.48-3.67-0.49
				c-1.3-0.01-2.56,0.47-3.86,0.53c-0.97,0.05-1.86,0.4-2.66,0.97c-1.58,1.14-2.56,2.93-3.67,4.5c-2.51,3.54-3.85,6.14-6.54,9.53
				c-1.42,1.79-4.3,4.27-4.71,6.69c-0.47,2.79,2.88,6.04,5.28,6.78c3.67,1.11,9.65-3.05,12.41-5c1.01-0.71,2.23-0.86,3.33-1.36
				c0.64-0.29,0.89-0.49,1.57-0.01c3.12,2.19,4.16,6.4,4.44,9.98c0.34,4.37-0.92,7.42-2.26,11.45c-1.39,4.18-1.49,9.16-0.95,13.48
				c0.39,3.12,2.08,4.93-1.36,6.93c-2.23,1.29-4.5,2.66-5.27,5.29c-0.66,2.25-0.42,4.67-0.35,6.98c0.12,4.65,0.26,9.17,2.57,13.2
				c0.45,0.79,1.01,1.23,1.76,1.93c1.85,1.75,3.25,3.33,5.95,2.75c1.76-0.37,1.47-1.71,1.58-3.11c0.12-1.64,0.43-2.66-0.25-4.3
				c-0.73-1.75-3.05-1.32-3.64-3.3c-0.74-2.51-0.76-5.61-0.27-8.16c1.04-5.38,7.06-4.47,11.34-4.53c3.71-0.04,7.43,0.07,11.13-0.32
				c4.62-0.5,9.19-1.42,13.68-2.58c4.23-1.1,8.35-2.65,12.67-3.41c1.45-0.25,3.52-0.65,4.97-0.56c1.76,0.12,3.17,1.93,4.44,2.97
				c8.37,6.87,29.71,10.39,24.94-0.91c-1.11-2.62-4.3-3.88-6.24-5.78C99.91,88.93,98.25,85.18,97.26,82.05z"/>
			<path style="fill:#2F2F2F;" d="M24.02,32.84c0.12-0.64,0.3-1.3,0.32-1.95c0.02-0.46-0.25-1.01-0.11-1.46
				c0.73-0.13,1.59,0.04,2.3,0.19c0.87,0.19,1.56,0.32,2.47,0.32c0.78,0,1.41-0.15,1.61,0.71c0.09,0.4-0.13,0.69,0.17,1.03
				c0.23,0.26,0.75,0.32,1.08,0.39c0.55,0.13,1.12,0.19,1.64,0.4c0.21,0.09,0.39,0.06,0.61,0.08c0.27,0.03,0.69,0.18,0.94,0.32
				c0.6,0.33,0.35,0.88,0.61,1.38c0.12,0.24,0.39,0.3,0.62,0.43c0.34,0.19,0.64,0.37,1,0.51c0.67,0.25,1.38,0.58,1.99,0.95
				c0.57,0.35,0.57,1.09,0.97,1.57c0.38,0.45,0.96,0.73,1.48,1.02c0.47,0.26,1.01,0.6,1.1,1.17c0.03,0.28-0.1,0.57-0.08,0.82
				c0.03,0.22,0.31,0.43,0.5,0.53c1,0.52,2.8,1.12,2.78,2.54c-0.01,0.77,0.55,1.04,1.16,1.42c0.3,0.19,0.58,0.36,0.89,0.56
				c0.26,0.18,0.65,0.25,0.85,0.51c0.17,0.21,0.27,0.45,0.45,0.66c0.41,0.49,0.59,1.01,0.62,1.66c0.03,1.04,0.16,1.09,0.89,1.77
				c1.2,1.12,1.92,1.88,1.95,3.56c0.03,1.35,1.51,2.01,2.01,3.19c0.36,0.88,0.13,1.88,0.33,2.79c0.14,0.62,0.35,1.19,0.02,1.79
				c-0.66,1.22-2.76,1.3-3.96,1.3c-0.75,0-1.55,0.07-2.28-0.04c-1.59-0.23-2.23-1.08-2.74-2.47c-0.57-1.57-0.89-3.23-1.52-4.78
				c-2.01-4.95-5.72-9.07-9.78-12.44c-1.35-1.12-2.58-2.3-3.99-3.38c-1.03-0.79-2.2-1.38-3.17-2.27c-0.44-0.41-0.88-0.97-1.46-1.19
				c-0.6-0.23-1.07-0.3-1.68-0.64c-1.14-0.63-1.12-1.11-0.72-2.38C23.93,33.27,23.99,33.06,24.02,32.84z"/>
			<path style="fill:#855C52;" d="M24.93,28.68c0.01-0.12,0.02-0.24,0.02-0.36c0.02-1.34-0.73-2.45-2.15-2.71
				c-1.67-0.3-2.01,1.35-2.59,2.57c-0.46,0.96-0.78,1.49-1.8,1.91c-1.79,0.75-2.98,2.24-3.98,3.86c-1.01,1.65-2.15,3.14-2.9,4.94
				c3.55-0.58,7.55,0.34,10.9,1.54c1.34,0.48,3.01,2.21,4.48,2.05c2.9-0.33,1.56-4.27,0.47-5.67c-0.87-1.13-3.61-2.76-3.5-4.34
				C23.95,31.17,24.77,29.93,24.93,28.68z"/>
		</g>
	</g>
	<path style="fill:#FCC21B;" d="M80.22,61.81c-3-2.18-8.11-0.22-11.75-0.22c-2.56,0-4.98-0.07-7.47-0.43
		c-1.62-0.24-3.48-1.77-5.17-1.31c-2.04,0.56-1.46,4.25-1.59,5.92c-0.18,2.27-0.35,4.47-0.35,6.77c0,3.36,0.42,7.37,3.91,8.6
		c4.81,1.7,10.78,1.36,15.76,0.96c3.39-0.27,8.65-0.76,10.2-4.32c1.52-3.47-0.44-10.54-1.91-13.86
		C81.43,62.96,80.87,62.29,80.22,61.81z"/>
</g>
<path style="fill:#855C52;" d="M106.88,105.62c1.12,0.57,2.18,1.33,2.96,2.14c1.12,1.15,2.06,2.46,3.05,3.71
	c1.68,2.13,3.17,4.5,5.5,5.98c1.72,1.08,6.45,2.53,7.53-0.1c0.53-1.3-0.57-3.9-1.14-5.2c-0.74-1.7-2.36-3.91-4.33-4.19
	c-0.99-0.15-1.31,0.05-2.17-0.62c-0.54-0.41-1.17-0.92-1.62-1.42c-1.46-1.56-2.3-3.91-3.4-5.73c-1.72-2.81-4.43-8.29-8.04-9.1
	c-3.05-0.68-7.19,0.85-8.38,3.89c-0.73,1.89,0.42,3.08,1.52,4.5c0.98,1.27,1.43,3,2.48,4.19c0.91,1.01,2.2,0.74,3.41,0.98
	C105.1,104.84,106.01,105.17,106.88,105.62z"/>
<path style="fill:#F79329;" d="M47.91,53l-1.76-2.67c-5.69,3.76-24.12,4.93-31.64,5.1c-0.2-0.42-0.42-0.82-0.65-1.21
	c1.23-0.8,2.48-1.59,3.72-2.39c0.68-0.44,1.36-0.88,2.05-1.31c0.28-0.19,1.1-0.91,1.47-0.8c0.58,0.17-0.4,3.6-0.31,4.11
	c0.5,0.09,1.02-0.04,1.52-0.06c0.23-0.01,0.43-0.04,0.67-0.06c1.35-0.16,1.1-3.71,1.19-4.65c0.15-1.48,0.27-2.95,0.38-4.43
	c0.1-1.45,0.2-2.9,0.28-4.35c0.01-0.12,0.64-0.5,0.74-0.57c0.53-0.43,1.01-0.94,1.57-1.35c0.37-0.28,1.06-0.54,1.15-1.05
	c0.06-0.3-0.24-0.66-0.41-0.88c-0.35-0.45-0.87-0.98-1.44-1.13c-0.46-0.12-0.85,0.33-1.19,0.59c-0.62,0.49-1.25,0.98-1.88,1.46
	c-0.02,0.02-2.28-2.61-2.43-2.78c-0.78-0.89-1.55-1.77-2.33-2.66c-0.67-0.77-1.17-1.84-2.31-1.08c-0.36,0.24-0.67,0.55-0.95,0.87
	c-0.11,0.11-0.23,0.27-0.31,0.4c-0.15,0.24-0.29,0.54-0.04,0.76c0.27,0.24,0.58,0.44,0.82,0.71c0.33,0.36,0.64,0.73,0.96,1.1
	c0.66,0.75,1.31,1.5,1.96,2.25c0.1,0.1,0.18,0.21,0.28,0.31c0.87,0.99,1.73,1.98,2.6,2.97c-0.1,1.6-0.22,3.57-0.38,5.46l-9.23,5.93
	c-0.38-0.45-0.77-0.89-1.17-1.32c-0.6-0.64-1.25-1.25-1.92-1.83c-0.83-0.72-2.59-2.3-3.82-2.08c-0.6,0.11-0.96,0.74-1.34,1.16
	c-0.3,0.34-0.67,0.66-0.58,1.15c0.1,0.28,1.41,0.65,1.69,0.78c0.85,0.42,1.58,1.07,2.29,1.7c1.25,1.11,2.4,2.35,3.35,3.73
	c0.32,0.46,0.61,0.94,0.88,1.43c0.24,0.44,0.53,0.85,0.66,1.33c0.08,0.27,0,0.75,0.2,0.96c0.16,0.16,0.57,0.08,0.79,0.08
	c1.03,0,2.08-0.08,3.11-0.12c0.77-0.03,1.54-0.06,2.3-0.09c2.06-0.1,4.11-0.23,6.17-0.39c2.44-0.19,4.88-0.44,7.32-0.75
	c2.45-0.32,4.9-0.71,7.33-1.24c2.1-0.46,4.2-1.01,6.2-1.84C45.66,54.18,47.96,53.08,47.91,53z"/>
<polygon style="fill:#E0E0E0;" points="71.79,63.67 66.4,54.86 82.84,40.22 91.79,50.88 "/>
<ellipse transform="matrix(0.1686 -0.9857 0.9857 0.1686 28.4862 123.7112)" style="fill:#E0E0E0;" cx="87.58" cy="44.97" rx="7.29" ry="7.29"/>
<ellipse transform="matrix(0.4192 -0.9079 0.9079 0.4192 -12.88 97.4841)" style="fill:#E0E0E0;" cx="69.75" cy="58.81" rx="5.18" ry="5.18"/>
<polygon style="fill:#E0E0E0;" points="75.72,78.7 68.06,79.42 64.61,59 74.66,58.23 "/>
<g>
	<path d="M73.82,86.32l-7.87,0.72c-1.53,0.14-2.88-0.99-3.02-2.51l-0.01-0.14c-0.14-1.53,0.99-2.88,2.51-3.02l7.87-0.72
		c1.53-0.14,2.88,0.99,3.02,2.51l0.01,0.14C76.48,84.83,75.35,86.18,73.82,86.32z"/>
	<rect x="63.06" y="83.56" transform="matrix(0.9959 -0.0907 0.0907 0.9959 -7.4673 6.6835)" width="13.45" height="3.84"/>
	<rect x="71.58" y="80.6" transform="matrix(0.9959 -0.0907 0.0907 0.9959 -7.1499 7.0435)" width="4.65" height="3.13"/>
</g>
<g>
	<polygon id="XMLID_1620_" style="fill:#FBC11B;" points="55.36,25.04 61.9,30.5 58.34,35.99 43.99,27.01 	"/>
	<path id="XMLID_1619_" style="fill:#FBC11B;" d="M50.08,18.52L59.68,29l-6.79,6.32c-3.16,2.94-8.13,2.64-10.91-0.66l-3.37-3.99
		c-3.11-3.69-2.36-9.26,1.62-12l1.58-1.09C44.43,15.79,47.95,16.19,50.08,18.52z"/>
	<path id="XMLID_1618_" style="fill:#6D4C41;" d="M56.84,25.4l-3.71,2.36l-2.22-2.09c-0.75-0.7-1.82-0.94-2.8-0.61l0,0l1.51,3.17
		l0,0c-0.86,0.55-1.95,0.61-2.87,0.15l-1.83-0.9c-0.79-0.39-1.72-0.37-2.5,0.05l-4.38,2.36c0,0-4.51-4.97-0.17-10.05
		c0.75-0.88,1.53-1.69,2.32-2.44c3.64-3.49,9.53-2.93,12.47,1.17l0,0C54.22,20.74,55.62,23.03,56.84,25.4L56.84,25.4z"/>
	<path id="XMLID_1608_" style="fill:#C07B47;" d="M43.36,30.77c0.42,0.47,0.44,1.14,0.04,1.48c-0.39,0.34-1.05,0.24-1.46-0.23
		c-0.42-0.47-0.44-1.14-0.05-1.48C42.29,30.19,42.94,30.29,43.36,30.77"/>
</g>
<path style="fill:#8D6E63;" d="M38.71,16.17c-0.25,0.19-0.48,0.4-0.69,0.62c-1.19,1.22-2.43,3.22-2.86,4.88
	c-0.61,2.38,0.04,4.33,0.19,6.68c0.08,1.19-2.34,3.9-1.01,4.76c2.65,1.72,4.95-3.75,6.82-4.85c1.39-0.83,2.98-1.25,4.43-1.98
	c2.6-1.3,5.09-2.77,7.54-4.33c0.35-0.22,0.67-0.47,0.99-0.74c0.5-0.42,0.91-0.73,0.6-1.39c-0.33-0.71-0.84-1.38-1.3-2.01
	C50.34,13.56,43.95,12.19,38.71,16.17z"/>
<path style="fill:#8D6E63;" d="M48.44,25.57c1.24,2.52,2.46,5.78,2.37,8.67c-0.01,0.23-0.07,0.69,0.01,0.89
	c1.53-0.59,0.81-5.24,0.56-6.51c-0.35-1.82-1.02-3.57-1.93-5.15c-0.21-0.37-0.27-0.41-0.66-0.29c-0.56,0.16-0.84,0.63-1.35,0.85
	c0.04,0.35,0.56,0.8,0.74,1.09C48.28,25.26,48.36,25.42,48.44,25.57z"/>
<polygon points="68.51,81.52 65.45,65.49 75.61,64.76 76.09,80.51 "/>
<path style="fill:#01BEA4;" d="M55.36,35.5c-0.84-2.22-1.06-6.01,0.71-7.87c1.77-1.86,8.65-2.07,18.68,1.31
	c4.58,1.55,8.69,3.32,11.26,4.5c1.4,0.64,1.73,2.47,0.66,3.57l-10.56,9.2C76.11,46.21,57.88,42.19,55.36,35.5z"/>
<g>
	
		<ellipse id="XMLID_1553_" transform="matrix(0.0398 -0.9992 0.9992 0.0398 9.8807 108.6552)" style="fill:#05A287;" cx="61.47" cy="49.19" rx="3.24" ry="3.24"/>
	<path id="XMLID_1552_" style="fill:#05A287;" d="M58.79,50.11l5.9-1.25l-1.04-15.44c-0.45-2.11-2.52-3.46-4.63-3.01l-0.19,0.04
		c-2.11,0.45-3.46,2.52-3.01,4.63L58.79,50.11z"/>
	<polygon id="XMLID_1551_" style="fill:#05A287;" points="50.17,49.1 51.21,55.64 62.95,52.07 58.2,46.9 	"/>
	<path id="XMLID_1528_" style="fill:#FBC11B;" d="M44.2,53.71l0.04,0.18c0.44,2.01,2.42,3.29,4.43,2.85l2.06-0.45
		c2.01-0.44,3.29-2.42,2.85-4.43l-0.04-0.18c-0.44-2.01-2.42-3.29-4.43-2.85l-2.06,0.45C45.04,49.71,43.76,51.7,44.2,53.71z"/>
</g>
</svg>
