<svg width="128" height="128" style="enable-background:new 0 0 128 128;" xmlns="http://www.w3.org/2000/svg" xmlns:xlink="http://www.w3.org/1999/xlink">
  <g id="Layer_1">
    <g>
      <linearGradient id="SVGID_1_" gradientUnits="userSpaceOnUse" x1="65.3087" x2="91.7809" y1="15.8679" y2="15.8679">
        <stop offset="0.1748" style="stop-color:#0277BD"/>
        <stop offset="0.2951" style="stop-color:#087BC0"/>
        <stop offset="0.451" style="stop-color:#1887C8"/>
        <stop offset="0.6266" style="stop-color:#339BD4"/>
        <stop offset="0.815" style="stop-color:#58B6E6"/>
        <stop offset="0.9918" style="stop-color:#81D4FA"/>
      </linearGradient>
      <path d="M72,25.82c-5.96,0-6.68-1.07-6.69-1.08c-0.06-0.72,0.99-2.64,6.42-7.46 c0.3-0.27,0.56-0.5,0.77-0.69c5.16-4.71,12.45-8.71,19.28-10.67c-1.18,3.15-1.99,7.18-2,7.24c-0.64,3.62-0.39,7.42,0.7,10.9 C80.93,25.51,75.18,25.82,72,25.82z" style="fill:url(#SVGID_1_);"/>
      <path d="M89.53,8.22c-0.59,2.01-1.12,4.02-1.23,4.68c-0.58,3.28-0.47,6.7,0.29,9.92 c-8.46,1.23-13.64,1.5-16.58,1.5c-2.46,0-3.9-0.19-4.72-0.37c0.68-0.99,2.21-2.68,5.44-5.56c0.31-0.27,0.57-0.51,0.79-0.7 C77.84,13.74,83.73,10.3,89.53,8.22 M94.53,3.7c-8.01,1.6-17.03,6.29-23.05,11.78c-1.85,1.68-7.92,6.71-7.65,9.45 c0.18,1.8,3.66,2.39,8.17,2.39c7.66,0,18.27-1.71,20.5-2.06c-1.52-3.72-1.94-7.88-1.25-11.84C91.45,12.29,93.74,3.86,94.53,3.7 L94.53,3.7z" style="fill:#0071AA;"/>
    </g>
    <g>
      <linearGradient id="SVGID_3_" gradientTransform="matrix(-0.1885 -0.9821 0.9821 -0.1885 13.1075 143.719)" gradientUnits="userSpaceOnUse" x1="52.6069" x2="74.1771" y1="72.6106" y2="72.6106">
        <stop offset="0.1748" style="stop-color:#0277BD"/>
        <stop offset="0.2951" style="stop-color:#087BC0"/>
        <stop offset="0.451" style="stop-color:#1887C8"/>
        <stop offset="0.6266" style="stop-color:#339BD4"/>
        <stop offset="0.815" style="stop-color:#58B6E6"/>
        <stop offset="0.9918" style="stop-color:#81D4FA"/>
      </linearGradient>
      <path d="M78.01,77.69c-1.85-0.85-5.19-2.57-7.15-4.22c-4.26-3.59-7.83-8.4-10.64-14.33 c0.16,0.05,0.33,0.09,0.51,0.14c1.12,0.3,3.47,0.86,4.36,0.86c2.36-0.04,11.38-0.54,16.09-2.16 C81.07,61.52,79.66,69.85,78.01,77.69z" style="fill:url(#SVGID_3_);"/>
      <path d="M79.7,59.82c-0.37,3.69-1.44,9.94-2.66,15.92c-1.77-0.9-3.97-2.16-5.32-3.29 c-3.48-2.93-6.49-6.72-8.98-11.3c0.87,0.19,1.78,0.34,2.34,0.34c0.01,0,0.04,0,0.06,0C65.25,61.49,73.82,61.28,79.7,59.82 M82.33,56c-3.01,1.97-13.63,2.75-17.23,2.81c-0.01,0-0.01,0-0.02,0c-1.07,0-7.15-1.47-7.42-2.14C60.42,63.44,64.42,69.81,70,74.5 c2.88,2.42,8.62,5.03,9,5.03c0.02,0,0.03-0.01,0-0.03C79,79.5,83.42,59.02,82.33,56L82.33,56z" style="fill:#0071AA;"/>
    </g>
    <linearGradient id="SVGID_4_" gradientUnits="userSpaceOnUse" x1="4.3333" x2="124.0261" y1="71.8363" y2="71.8363">
      <stop offset="8.227205e-03" style="stop-color:#81D4FA"/>
      <stop offset="0.2861" style="stop-color:#4FAFE2"/>
      <stop offset="0.5574" style="stop-color:#2591CE"/>
      <stop offset="0.7698" style="stop-color:#0C7EC2"/>
      <stop offset="0.897" style="stop-color:#0277BD"/>
    </linearGradient>
    <path d="M4.33,43.83c0,0,27-31.83,86-22.17c0,0,37.75,5.6,33.33,46.08c-0.75,6.88-8,22.25-44,25 c0,0-8-0.58-10.17,8.92s-3.17,18.83-13.83,22.17c0,0,7.5-22.83,0-27.83s-23-3.75-32.33-3.83c0,0,5.33-8.5,21.83-8.33 C60.68,83.99,55.5,90,73.5,84.33c18-5.67,19.67-10.17,17.67-15.33c-1.85-4.79-8-4.83-19.83-3.83S23.83,70.33,4.33,43.83z" style="fill:url(#SVGID_4_);"/>
    <linearGradient id="SVGID_5_" gradientUnits="userSpaceOnUse" x1="6.6667" x2="116.7126" y1="60.1815" y2="60.1815">
      <stop offset="0" style="stop-color:#E0E0E0"/>
      <stop offset="0.3605" style="stop-color:#DDDDDD"/>
      <stop offset="0.6647" style="stop-color:#D2D2D2"/>
      <stop offset="0.9478" style="stop-color:#C1C1C1"/>
      <stop offset="0.9968" style="stop-color:#BDBDBD"/>
    </linearGradient>
    <path d="M115.7,57.44c-1.7-4.93-5.56-9.12-9.56-12.73c-4.73-4.27-10.37-7.42-16.42-9.42 C76.81,31.02,58.95,30.79,47,37c-12.83,6.67-25.44,3.94-38.81,9.1c-0.51,0.2-1.01,0.39-1.52,0.59c19.8,24.05,67.5,12.81,81.5,15.98 s7.17,21.15,0.33,25.5c8.67-1.17,23.5-6.83,27.79-22.25C117.13,62.92,116.6,60.05,115.7,57.44z" style="fill:url(#SVGID_5_);"/>
    <path d="M21.21,58.17c0,0-1.49-1.83,3.45-5.3c6.07-4.27,21.57-4.4,35.19-2.85c0,0-31.4,4.31-28.52,11.85 c0,0-2.65-0.55-5.21-1.65C23.56,59.13,21.21,58.17,21.21,58.17z" style="fill:#EF5350;"/>
    <path d="M58.76,43.9c0,0,0.17-0.18,0.48-0.46c0.15-0.14,0.37-0.29,0.55-0.48c0.17-0.2,0.35-0.42,0.55-0.62 c0.18-0.24,0.36-0.51,0.56-0.76c0.15-0.3,0.35-0.57,0.49-0.88c0.14-0.32,0.3-0.63,0.41-0.98c0.14-0.33,0.22-0.7,0.33-1.06 c0.09-0.37,0.18-0.74,0.24-1.12c0.03-0.19,0.06-0.38,0.1-0.57c0.02-0.19,0.05-0.38,0.07-0.56c0.07-0.37,0.07-0.74,0.12-1.09 c0.01-0.35,0.06-0.69,0.06-1c0.04-0.64,0.03-1.17,0.01-1.56c-0.01-0.2-0.04-0.34-0.06-0.46c-0.02-0.12-0.03-0.18-0.03-0.18 s0.05,0.03,0.15,0.09c0.08,0.07,0.27,0.15,0.4,0.31c0.15,0.15,0.35,0.35,0.5,0.6c0.18,0.25,0.35,0.54,0.51,0.87 c0.17,0.33,0.28,0.71,0.41,1.11c0.09,0.41,0.21,0.84,0.24,1.3c0.06,0.46,0.07,0.94,0.03,1.43c-0.02,0.49-0.12,0.99-0.23,1.48 c-0.15,0.49-0.29,0.98-0.54,1.43c-0.2,0.47-0.52,0.88-0.82,1.26c-0.3,0.38-0.69,0.68-1.02,0.97c-0.39,0.24-0.74,0.45-1.09,0.61 c-0.38,0.13-0.73,0.22-1.02,0.29c-0.29,0.07-0.53,0.03-0.74,0.05C59.01,43.92,58.76,43.9,58.76,43.9z" style="fill:#0288D1;"/>
    <path d="M66.98,44.4c0,0,0.17-0.18,0.48-0.46c0.15-0.14,0.37-0.29,0.55-0.48c0.17-0.2,0.35-0.42,0.55-0.62 c0.18-0.24,0.36-0.51,0.56-0.76c0.15-0.3,0.35-0.57,0.49-0.88c0.14-0.32,0.3-0.63,0.41-0.98c0.14-0.33,0.22-0.7,0.33-1.06 c0.09-0.37,0.18-0.74,0.24-1.12c0.03-0.19,0.06-0.38,0.1-0.57c0.02-0.19,0.05-0.38,0.07-0.56c0.07-0.37,0.07-0.74,0.12-1.09 c0.01-0.35,0.06-0.69,0.06-1c0.04-0.64,0.03-1.17,0.01-1.56c-0.01-0.2-0.04-0.34-0.06-0.46c-0.02-0.12-0.03-0.18-0.03-0.18 s0.05,0.03,0.15,0.09c0.08,0.07,0.27,0.15,0.4,0.31c0.15,0.15,0.35,0.35,0.5,0.6c0.18,0.25,0.35,0.54,0.51,0.87 c0.17,0.33,0.28,0.71,0.41,1.11c0.09,0.41,0.21,0.84,0.24,1.3c0.06,0.46,0.07,0.94,0.03,1.43c-0.02,0.49-0.12,0.99-0.23,1.48 c-0.15,0.49-0.29,0.98-0.54,1.43c-0.2,0.47-0.52,0.88-0.82,1.26c-0.3,0.38-0.69,0.68-1.02,0.97c-0.39,0.24-0.74,0.45-1.09,0.61 c-0.38,0.13-0.73,0.22-1.02,0.29c-0.29,0.07-0.53,0.03-0.74,0.05C67.23,44.42,66.98,44.4,66.98,44.4z" style="fill:#0288D1;"/>
    <path d="M73.66,44.4c0,0,0.17-0.18,0.48-0.46c0.15-0.14,0.37-0.29,0.55-0.48c0.17-0.2,0.35-0.42,0.55-0.62 c0.18-0.24,0.36-0.51,0.56-0.76c0.15-0.3,0.35-0.57,0.49-0.88c0.14-0.32,0.3-0.63,0.41-0.98c0.14-0.33,0.22-0.7,0.33-1.06 c0.09-0.37,0.18-0.74,0.24-1.12c0.03-0.19,0.06-0.38,0.1-0.57c0.02-0.19,0.05-0.38,0.07-0.56c0.07-0.37,0.07-0.74,0.12-1.09 c0.01-0.35,0.06-0.69,0.06-1c0.04-0.64,0.03-1.17,0.01-1.56c-0.01-0.2-0.04-0.34-0.06-0.46c-0.02-0.12-0.03-0.18-0.03-0.18 s0.05,0.03,0.15,0.09c0.08,0.07,0.27,0.15,0.4,0.31c0.15,0.15,0.35,0.35,0.5,0.6c0.18,0.25,0.35,0.54,0.51,0.87 c0.17,0.33,0.28,0.71,0.41,1.11c0.09,0.41,0.21,0.84,0.24,1.3c0.06,0.46,0.07,0.94,0.03,1.43c-0.02,0.49-0.12,0.99-0.23,1.48 c-0.15,0.49-0.29,0.98-0.54,1.43c-0.2,0.47-0.52,0.88-0.82,1.26c-0.3,0.38-0.69,0.68-1.02,0.97c-0.39,0.24-0.74,0.45-1.09,0.61 c-0.38,0.13-0.73,0.22-1.02,0.29c-0.29,0.07-0.53,0.03-0.74,0.05C73.91,44.42,73.66,44.4,73.66,44.4z" style="fill:#0288D1;"/>
    <path d="M19.67,57.69c0.27,0.15,0.54,0.29,0.81,0.44" style="fill:#FFFFFF;"/>
    <g>
      <defs>
        <path id="SVGID_6_" d="M21.21,58.17c0,0-1.49-1.83,3.45-5.3c6.07-4.27,21.57-4.4,35.19-2.85c0.9-0.13-30.99,2.87-28.66,11.85 c0,0-2.51-0.69-5.07-1.78S21.21,58.17,21.21,58.17z"/>
      </defs>
      <clipPath id="SVGID_7_">
        <use style="overflow:visible;" xlink:href="#SVGID_6_"/>
      </clipPath>
      <path d="M23.96,58.4c-0.53-0.97-1.06-1.94-1.58-2.91 c1.06,0.66,2.24,1.13,3.46,1.38c-0.28-1.21-0.55-2.41-0.83-3.62c1,0.81,2.17,1.4,3.41,1.74c-0.3-1.14-0.6-2.28-0.9-3.42 c1.13,0.81,2.4,1.45,3.73,1.87c-0.04-1.01-0.09-2.01-0.13-3.02c1.07,0.89,2.25,1.65,3.51,2.24c-0.04-0.92-0.02-1.85,0.05-2.77 c0.77,0.84,1.72,1.52,2.76,1.98c0.24-0.87,0.54-1.73,0.87-2.57c0.61,0.75,1.23,1.49,1.88,2.21c0.5-0.79,1.01-1.58,1.51-2.38 c0.47,0.57,0.94,1.12,1.43,1.67c0.08,0.09,0.19,0.19,0.31,0.18c0.11-0.01,0.19-0.11,0.25-0.21c0.46-0.67,0.92-1.34,1.38-2.02 c0.28,0.81,0.79,1.54,1.44,2.1c0.55-0.65,1.09-1.29,1.64-1.94c0.35,0.6,0.71,1.19,1.06,1.79c0.35-0.38,0.69-0.76,1.04-1.15 c0.15-0.16,0.3-0.34,0.36-0.55c0.15-0.54-0.36-1.03-0.84-1.32c-3.01-1.83-6.79-1.73-10.3-1.38c-3.85,0.39-7.76,1.03-11.21,2.8 c-0.95,0.49-1.85,1.05-2.77,1.58c-1.31,0.75-2.68,1.43-3.83,2.41c-0.87,0.74-2.52,2.48-2.01,3.78c0.25,0.64,0.95,0.74,1.54,0.88 C21.61,57.86,23.79,58.08,23.96,58.4z" style="clip-path:url(#SVGID_7_);fill:#FFFFFF;"/>
    </g>
    <path d="M68.66,22.84c6.82,0,13.95,0.6,21.24,1.79c0.09,0.01,8.8,1.36,17,7.32 c10.86,7.89,15.5,19.83,13.79,35.47c-0.35,3.23-3.98,19.44-41.07,22.32c-0.06,0-0.13,0-0.21,0c-7.57,0-11.64,6.06-12.82,11.26 c-0.2,0.9-0.4,1.79-0.59,2.68c-1.35,6.21-2.52,10.84-5.5,13.92c1.82-8.03,3.19-19.88-3.16-24.11c-5.84-3.89-15.26-4.42-23.71-4.42 c-0.44,0-0.88,0-1.32,0c2.9-1.25,6.93-2.26,12.39-2.26l0.45,0c5.68,0.06,8.24,0.93,10.51,1.7c1.77,0.6,3.61,1.23,6.28,1.23 c2.99,0,6.84-0.79,12.48-2.57c11.64-3.66,17.49-7.08,19.58-11.41c1.13-2.35,1.13-4.92-0.01-7.87c-2.14-5.52-7.89-6.27-13.24-6.27 c-2.98,0-6.54,0.27-9.64,0.53l-1.36,0.12c-3.44,0.3-8.16,0.72-13.68,0.72c-21.37,0-37.42-6.38-47.74-18.96 c2.23-2.14,6.7-5.97,13.45-9.76C31.06,29.07,46.75,22.84,68.66,22.84 M68.66,19.84c-43.97,0-64.32,23.99-64.32,23.99 c13.86,18.83,35.88,22.18,51.71,22.18c6.44,0,11.87-0.55,15.29-0.84c3.66-0.31,6.77-0.52,9.39-0.52c5.84,0,9.17,1.04,10.45,4.35 c2,5.17,0.33,9.67-17.67,15.33c-5.74,1.81-9.13,2.43-11.58,2.43c-5.23,0-6.19-2.82-16.76-2.93c-0.16,0-0.32,0-0.48,0 c-16.12,0-21.36,8.34-21.36,8.34c0.32,0,0.65,0,0.99,0c2.75,0,5.95-0.09,9.29-0.09c8.07,0,16.93,0.5,22.05,3.91 c7.5,5,0,27.83,0,27.83c10.67-3.33,11.67-12.67,13.83-22.17c1.93-8.46,8.49-8.92,9.9-8.92c0.17,0,0.27,0.01,0.27,0.01 c36-2.75,43.25-18.12,44-25c4.42-40.49-33.33-46.08-33.33-46.08C82.56,20.39,75.34,19.84,68.66,19.84L68.66,19.84z" style="fill:#0071AA;"/>
    <g>
      <ellipse cx="39.47" cy="32.8" rx="4.78" ry="4.78" style="fill:#FFFFFF;" transform="matrix(0.2531 -0.9674 0.9674 0.2531 -2.2525 62.6751)"/>
      <ellipse cx="39.47" cy="32.8" rx="2.74" ry="2.74" transform="matrix(0.2531 -0.9674 0.9674 0.2531 -2.2525 62.6751)"/>
    </g>
  </g>
  <g id="Layer_2" style="display:none;">
    <g style="display:inline;">
      <g style="opacity:0.6;">
        <circle cx="64" cy="64" r="28" style="opacity:0.61;fill:none;stroke:#000000;stroke-width:0.2625;stroke-miterlimit:10;"/>
        <line style="opacity:0.61;fill:none;stroke:#000000;stroke-width:0.25;stroke-miterlimit:10;" x1="84" x2="84" y1="0" y2="128"/>
        <line style="opacity:0.61;fill:none;stroke:#000000;stroke-width:0.25;stroke-miterlimit:10;" x1="44" x2="44" y1="0" y2="128"/>
        <line style="opacity:0.61;fill:none;stroke:#000000;stroke-width:0.25;stroke-miterlimit:10;" x1="64" x2="64" y1="0" y2="128"/>
        <line style="opacity:0.61;fill:none;stroke:#000000;stroke-width:0.25;stroke-miterlimit:10;" x1="128" x2="0" y1="64" y2="64"/>
        <line style="opacity:0.61;fill:none;stroke:#000000;stroke-width:0.25;stroke-miterlimit:10;" x1="128" x2="0" y1="44" y2="44"/>
        <line style="opacity:0.61;fill:none;stroke:#000000;stroke-width:0.25;stroke-miterlimit:10;" x1="128" x2="0" y1="83.75" y2="83.75"/>
        <line style="opacity:0.61;fill:none;stroke:#000000;stroke-width:0.25;stroke-miterlimit:10;" x1="128" x2="0" y1="128" y2="0"/>
        <line style="opacity:0.61;fill:none;stroke:#000000;stroke-width:0.25;stroke-miterlimit:10;" x1="0" x2="128" y1="128" y2="0"/>
        <g style="opacity:0.61;">
          <path d="M64,4.26c32.94,0,59.74,26.8,59.74,59.74S96.94,123.74,64,123.74S4.26,96.94,4.26,64S31.06,4.26,64,4.26 M64,4 C30.86,4,4,30.86,4,64s26.86,60,60,60s60-26.86,60-60S97.14,4,64,4L64,4z"/>
        </g>
        <path d="M107.97,115.97H20.03 c-4.42,0-8.03-3.61-8.03-8.03V20.03c0-4.42,3.61-8.03,8.03-8.03h87.94c4.42,0,8.03,3.61,8.03,8.03v87.91 C116,112.36,112.39,115.97,107.97,115.97z" style="opacity:0.61;fill:none;stroke:#000000;stroke-width:0.2578;stroke-miterlimit:10;"/>
        <path d="M100,124H28c-4.4,0-8-3.6-8-8 V12c0-4.4,3.6-8,8-8h72c4.4,0,8,3.6,8,8v104C108,120.4,104.4,124,100,124z" style="opacity:0.61;fill:none;stroke:#000000;stroke-width:0.2628;stroke-miterlimit:10;"/>
        <path d="M113.77,108H14.23 C8.6,108,4,103.4,4,97.77V30.28c0-5.63,4.6-10.23,10.23-10.23h99.54c5.63,0,10.23,4.6,10.23,10.23v67.48 C124,103.4,119.4,108,113.77,108z" style="opacity:0.61;fill:none;stroke:#000000;stroke-width:0.2627;stroke-miterlimit:10;"/>
      </g>
      <g>
        <g style="opacity:0.2;">
          <defs>
            <rect id="SVGID_2_" height="128" style="opacity:0.2;" width="128" x="0" y="0"/>
          </defs>
          <clipPath id="SVGID_8_">
            <use style="overflow:visible;" xlink:href="#SVGID_2_"/>
          </clipPath>
          <g style="clip-path:url(#SVGID_8_);">
            <g>
              <line style="fill:none;stroke:#000000;stroke-width:0.25;stroke-miterlimit:10;" x1="-28" x2="-28" y1="160" y2="-32"/>
              <line style="fill:none;stroke:#000000;stroke-width:0.25;stroke-miterlimit:10;" x1="-24" x2="-24" y1="160" y2="-32"/>
              <line style="fill:none;stroke:#000000;stroke-width:0.25;stroke-miterlimit:10;" x1="-20" x2="-20" y1="160" y2="-32"/>
              <line style="fill:none;stroke:#000000;stroke-width:0.25;stroke-miterlimit:10;" x1="-16" x2="-16" y1="160" y2="-32"/>
              <line style="fill:none;stroke:#000000;stroke-width:0.25;stroke-miterlimit:10;" x1="-12" x2="-12" y1="160" y2="-32"/>
              <line style="fill:none;stroke:#000000;stroke-width:0.25;stroke-miterlimit:10;" x1="-8" x2="-8" y1="160" y2="-32"/>
              <line style="fill:none;stroke:#000000;stroke-width:0.25;stroke-miterlimit:10;" x1="-4" x2="-4" y1="160" y2="-32"/>
              <line style="fill:none;stroke:#000000;stroke-width:0.25;stroke-miterlimit:10;" x1="0" x2="0" y1="160" y2="-32"/>
              <line style="fill:none;stroke:#000000;stroke-width:0.25;stroke-miterlimit:10;" x1="4" x2="4" y1="160" y2="-32"/>
              <line style="fill:none;stroke:#000000;stroke-width:0.25;stroke-miterlimit:10;" x1="8" x2="8" y1="160" y2="-32"/>
              <line style="fill:none;stroke:#000000;stroke-width:0.25;stroke-miterlimit:10;" x1="12" x2="12" y1="160" y2="-32"/>
              <line style="fill:none;stroke:#000000;stroke-width:0.25;stroke-miterlimit:10;" x1="16" x2="16" y1="160" y2="-32"/>
              <line style="fill:none;stroke:#000000;stroke-width:0.25;stroke-miterlimit:10;" x1="20" x2="20" y1="160" y2="-32"/>
              <line style="fill:none;stroke:#000000;stroke-width:0.25;stroke-miterlimit:10;" x1="24" x2="24" y1="160" y2="-32"/>
              <line style="fill:none;stroke:#000000;stroke-width:0.25;stroke-miterlimit:10;" x1="28" x2="28" y1="160" y2="-32"/>
              <line style="fill:none;stroke:#000000;stroke-width:0.25;stroke-miterlimit:10;" x1="32" x2="32" y1="160" y2="-32"/>
              <line style="fill:none;stroke:#000000;stroke-width:0.25;stroke-miterlimit:10;" x1="36" x2="36" y1="160" y2="-32"/>
              <line style="fill:none;stroke:#000000;stroke-width:0.25;stroke-miterlimit:10;" x1="40" x2="40" y1="160" y2="-32"/>
              <line style="fill:none;stroke:#000000;stroke-width:0.25;stroke-miterlimit:10;" x1="44" x2="44" y1="160" y2="-32"/>
              <line style="fill:none;stroke:#000000;stroke-width:0.25;stroke-miterlimit:10;" x1="48" x2="48" y1="160" y2="-32"/>
              <line style="fill:none;stroke:#000000;stroke-width:0.25;stroke-miterlimit:10;" x1="52" x2="52" y1="160" y2="-32"/>
              <line style="fill:none;stroke:#000000;stroke-width:0.25;stroke-miterlimit:10;" x1="56" x2="56" y1="160" y2="-32"/>
              <line style="fill:none;stroke:#000000;stroke-width:0.25;stroke-miterlimit:10;" x1="60" x2="60" y1="160" y2="-32"/>
              <line style="fill:none;stroke:#000000;stroke-width:0.25;stroke-miterlimit:10;" x1="64" x2="64" y1="160" y2="-32"/>
              <line style="fill:none;stroke:#000000;stroke-width:0.25;stroke-miterlimit:10;" x1="68" x2="68" y1="160" y2="-32"/>
              <line style="fill:none;stroke:#000000;stroke-width:0.25;stroke-miterlimit:10;" x1="72" x2="72" y1="160" y2="-32"/>
              <line style="fill:none;stroke:#000000;stroke-width:0.25;stroke-miterlimit:10;" x1="76" x2="76" y1="160" y2="-32"/>
              <line style="fill:none;stroke:#000000;stroke-width:0.25;stroke-miterlimit:10;" x1="80" x2="80" y1="160" y2="-32"/>
              <line style="fill:none;stroke:#000000;stroke-width:0.25;stroke-miterlimit:10;" x1="84" x2="84" y1="160" y2="-32"/>
              <line style="fill:none;stroke:#000000;stroke-width:0.25;stroke-miterlimit:10;" x1="88" x2="88" y1="160" y2="-32"/>
              <line style="fill:none;stroke:#000000;stroke-width:0.25;stroke-miterlimit:10;" x1="92" x2="92" y1="160" y2="-32"/>
              <line style="fill:none;stroke:#000000;stroke-width:0.25;stroke-miterlimit:10;" x1="96" x2="96" y1="160" y2="-32"/>
              <line style="fill:none;stroke:#000000;stroke-width:0.25;stroke-miterlimit:10;" x1="100" x2="100" y1="160" y2="-32"/>
              <line style="fill:none;stroke:#000000;stroke-width:0.25;stroke-miterlimit:10;" x1="104" x2="104" y1="160" y2="-32"/>
              <line style="fill:none;stroke:#000000;stroke-width:0.25;stroke-miterlimit:10;" x1="108" x2="108" y1="160" y2="-32"/>
              <line style="fill:none;stroke:#000000;stroke-width:0.25;stroke-miterlimit:10;" x1="112" x2="112" y1="160" y2="-32"/>
              <line style="fill:none;stroke:#000000;stroke-width:0.25;stroke-miterlimit:10;" x1="116" x2="116" y1="160" y2="-32"/>
              <line style="fill:none;stroke:#000000;stroke-width:0.25;stroke-miterlimit:10;" x1="120" x2="120" y1="160" y2="-32"/>
              <line style="fill:none;stroke:#000000;stroke-width:0.25;stroke-miterlimit:10;" x1="124" x2="124" y1="160" y2="-32"/>
              <line style="fill:none;stroke:#000000;stroke-width:0.25;stroke-miterlimit:10;" x1="128" x2="128" y1="160" y2="-32"/>
              <line style="fill:none;stroke:#000000;stroke-width:0.25;stroke-miterlimit:10;" x1="132" x2="132" y1="160" y2="-32"/>
              <line style="fill:none;stroke:#000000;stroke-width:0.25;stroke-miterlimit:10;" x1="136" x2="136" y1="160" y2="-32"/>
              <line style="fill:none;stroke:#000000;stroke-width:0.25;stroke-miterlimit:10;" x1="137" x2="137" y1="166.05" y2="-25.95"/>
              <line style="fill:none;stroke:#000000;stroke-width:0.25;stroke-miterlimit:10;" x1="144" x2="144" y1="160" y2="-32"/>
              <line style="fill:none;stroke:#000000;stroke-width:0.25;stroke-miterlimit:10;" x1="148" x2="148" y1="160" y2="-32"/>
              <line style="fill:none;stroke:#000000;stroke-width:0.25;stroke-miterlimit:10;" x1="152" x2="152" y1="160" y2="-32"/>
              <line style="fill:none;stroke:#000000;stroke-width:0.25;stroke-miterlimit:10;" x1="156" x2="156" y1="160" y2="-32"/>
            </g>
            <g>
              <line style="fill:none;stroke:#000000;stroke-width:0.25;stroke-miterlimit:10;" x1="-32" x2="160" y1="-28" y2="-28"/>
              <line style="fill:none;stroke:#000000;stroke-width:0.25;stroke-miterlimit:10;" x1="-32" x2="160" y1="-24" y2="-24"/>
              <line style="fill:none;stroke:#000000;stroke-width:0.25;stroke-miterlimit:10;" x1="-32" x2="160" y1="-20" y2="-20"/>
              <line style="fill:none;stroke:#000000;stroke-width:0.25;stroke-miterlimit:10;" x1="-32" x2="160" y1="-16" y2="-16"/>
              <line style="fill:none;stroke:#000000;stroke-width:0.25;stroke-miterlimit:10;" x1="-32" x2="160" y1="-12" y2="-12"/>
              <line style="fill:none;stroke:#000000;stroke-width:0.25;stroke-miterlimit:10;" x1="-32" x2="160" y1="-8" y2="-8"/>
              <line style="fill:none;stroke:#000000;stroke-width:0.25;stroke-miterlimit:10;" x1="-32" x2="160" y1="-4" y2="-4"/>
              <line style="fill:none;stroke:#000000;stroke-width:0.25;stroke-miterlimit:10;" x1="-32" x2="160" y1="0" y2="0"/>
              <line style="fill:none;stroke:#000000;stroke-width:0.25;stroke-miterlimit:10;" x1="-32" x2="160" y1="4" y2="4"/>
              <line style="fill:none;stroke:#000000;stroke-width:0.25;stroke-miterlimit:10;" x1="-32" x2="160" y1="8" y2="8"/>
              <line style="fill:none;stroke:#000000;stroke-width:0.25;stroke-miterlimit:10;" x1="-32" x2="160" y1="12" y2="12"/>
              <line style="fill:none;stroke:#000000;stroke-width:0.25;stroke-miterlimit:10;" x1="-32" x2="160" y1="16" y2="16"/>
              <line style="fill:none;stroke:#000000;stroke-width:0.25;stroke-miterlimit:10;" x1="-32" x2="160" y1="20" y2="20"/>
              <line style="fill:none;stroke:#000000;stroke-width:0.25;stroke-miterlimit:10;" x1="-32" x2="160" y1="24" y2="24"/>
              <line style="fill:none;stroke:#000000;stroke-width:0.25;stroke-miterlimit:10;" x1="-32" x2="160" y1="28" y2="28"/>
              <line style="fill:none;stroke:#000000;stroke-width:0.25;stroke-miterlimit:10;" x1="-32" x2="160" y1="32" y2="32"/>
              <line style="fill:none;stroke:#000000;stroke-width:0.25;stroke-miterlimit:10;" x1="-32" x2="160" y1="36" y2="36"/>
              <line style="fill:none;stroke:#000000;stroke-width:0.25;stroke-miterlimit:10;" x1="-32" x2="160" y1="40" y2="40"/>
              <line style="fill:none;stroke:#000000;stroke-width:0.25;stroke-miterlimit:10;" x1="-32" x2="160" y1="44" y2="44"/>
              <line style="fill:none;stroke:#000000;stroke-width:0.25;stroke-miterlimit:10;" x1="-32" x2="160" y1="48" y2="48"/>
              <line style="fill:none;stroke:#000000;stroke-width:0.25;stroke-miterlimit:10;" x1="-32" x2="160" y1="52" y2="52"/>
              <line style="fill:none;stroke:#000000;stroke-width:0.25;stroke-miterlimit:10;" x1="-32" x2="160" y1="56" y2="56"/>
              <line style="fill:none;stroke:#000000;stroke-width:0.25;stroke-miterlimit:10;" x1="-32" x2="160" y1="60" y2="60"/>
              <line style="fill:none;stroke:#000000;stroke-width:0.25;stroke-miterlimit:10;" x1="-32" x2="160" y1="64" y2="64"/>
              <line style="fill:none;stroke:#000000;stroke-width:0.25;stroke-miterlimit:10;" x1="-32" x2="160" y1="68" y2="68"/>
              <line style="fill:none;stroke:#000000;stroke-width:0.25;stroke-miterlimit:10;" x1="-32" x2="160" y1="72" y2="72"/>
              <line style="fill:none;stroke:#000000;stroke-width:0.25;stroke-miterlimit:10;" x1="-32" x2="160" y1="76" y2="76"/>
              <line style="fill:none;stroke:#000000;stroke-width:0.25;stroke-miterlimit:10;" x1="-32" x2="160" y1="80" y2="80"/>
              <line style="fill:none;stroke:#000000;stroke-width:0.25;stroke-miterlimit:10;" x1="-32" x2="160" y1="84" y2="84"/>
              <line style="fill:none;stroke:#000000;stroke-width:0.25;stroke-miterlimit:10;" x1="-32" x2="160" y1="88" y2="88"/>
              <line style="fill:none;stroke:#000000;stroke-width:0.25;stroke-miterlimit:10;" x1="-32" x2="160" y1="92" y2="92"/>
              <line style="fill:none;stroke:#000000;stroke-width:0.25;stroke-miterlimit:10;" x1="-32" x2="160" y1="96" y2="96"/>
              <line style="fill:none;stroke:#000000;stroke-width:0.25;stroke-miterlimit:10;" x1="-32" x2="160" y1="100" y2="100"/>
              <line style="fill:none;stroke:#000000;stroke-width:0.25;stroke-miterlimit:10;" x1="-32" x2="160" y1="104" y2="104"/>
              <line style="fill:none;stroke:#000000;stroke-width:0.25;stroke-miterlimit:10;" x1="-32" x2="160" y1="108" y2="108"/>
              <line style="fill:none;stroke:#000000;stroke-width:0.25;stroke-miterlimit:10;" x1="-32" x2="160" y1="112" y2="112"/>
              <line style="fill:none;stroke:#000000;stroke-width:0.25;stroke-miterlimit:10;" x1="-32" x2="160" y1="116" y2="116"/>
              <line style="fill:none;stroke:#000000;stroke-width:0.25;stroke-miterlimit:10;" x1="-32" x2="160" y1="120" y2="120"/>
              <line style="fill:none;stroke:#000000;stroke-width:0.25;stroke-miterlimit:10;" x1="-32" x2="160" y1="124" y2="124"/>
              <line style="fill:none;stroke:#000000;stroke-width:0.25;stroke-miterlimit:10;" x1="-32" x2="160" y1="128" y2="128"/>
              <line style="fill:none;stroke:#000000;stroke-width:0.25;stroke-miterlimit:10;" x1="-32" x2="160" y1="132" y2="132"/>
              <line style="fill:none;stroke:#000000;stroke-width:0.25;stroke-miterlimit:10;" x1="-32" x2="160" y1="136" y2="136"/>
              <line style="fill:none;stroke:#000000;stroke-width:0.25;stroke-miterlimit:10;" x1="-32" x2="160" y1="140" y2="140"/>
              <line style="fill:none;stroke:#000000;stroke-width:0.25;stroke-miterlimit:10;" x1="-32" x2="160" y1="144" y2="144"/>
              <line style="fill:none;stroke:#000000;stroke-width:0.25;stroke-miterlimit:10;" x1="-32" x2="160" y1="148" y2="148"/>
              <line style="fill:none;stroke:#000000;stroke-width:0.25;stroke-miterlimit:10;" x1="-32" x2="160" y1="152" y2="152"/>
              <line style="fill:none;stroke:#000000;stroke-width:0.25;stroke-miterlimit:10;" x1="-32" x2="160" y1="156" y2="156"/>
            </g>
            <path d="M159.75-31.75v191.5h-191.5v-191.5H159.75 M160-32H-32v192h192V-32L160-32z"/>
          </g>
        </g>
        <g>
          <rect height="128" style="opacity:0.3;fill:#F44336;" width="4" x="0" y="0"/>
          <rect height="128" style="opacity:0.3;fill:#F44336;" width="4" x="124" y="0"/>
          <rect height="120" style="opacity:0.3;fill:#F44336;" transform="matrix(-1.836970e-16 1 -1 -1.836970e-16 66 -62)" width="4" x="62" y="-58"/>
          <rect height="120" style="opacity:0.3;fill:#F44336;" transform="matrix(-1.836970e-16 1 -1 -1.836970e-16 190 62)" width="4" x="62" y="66"/>
        </g>
      </g>
    </g>
  </g>
</svg>