<svg xmlns="http://www.w3.org/2000/svg" viewBox="0 0 128 128"><path d="M12.53 105.85c3.97.8 7.98 1.51 11.96 2.26 17.87 3.36 38.8 5.91 55.82-1.12 6.63-2.74 11.11-6.53 18.24-7.88 5.54-1.06 11.12-2.08 16.45-4 3.56-1.29 8.93-2.99 9.87-7.21 2.11-9.43 1.46-18.43-1-26.08-1.11-3.43-2.64-6.75-4.76-9.67-1.82-2.51-4.48-4.89-7.6-5.25-5.97-.7-12.15-.3-18.05.96-.99.22-2.14.45-2.8-.49-.7-.99-3.15-5.55-9.44-6.7-5.53-1.01-11.64 1.02-15.7 5.26-1.8 1.88-3.57 3.77-5.35 5.68-.44.48-1 .95-1.36 1.5-.23.36-.32.73-.66.97-.69.47-1.89.02-2.66.11-4.52.57-9.46 5.83-12.16 9.31-1.46 1.87-2.3 3.58-2.06 6.07.13 1.39.08 2.87-.82 4-8.23 10.4-24.44 8.44-33.71 17.74-2.29 2.3-3.42 5.32-3.2 9.09.22 3.87 3.82 4.36 7.07 5.06.63.12 1.27.25 1.92.39z" fill="#855c52"/><path d="M127.2 95.6c-.03-1.48-.26-2.91-.52-4.34l.02-.01c-.02-.38-.1-.73-.21-1.05-.01-.05-.02-.11-.03-.17a.913.913 0 0 0-.08-.13c-.52-1.27-1.52-2-1.52-2-5.76 6.19-22.78 8.58-22.78 8.58-5.22.56-13.94 5.49-13.94 5.49-20.54 9.43-44.74 7.6-44.74 7.6-26.73-.7-39.9-9.24-39.9-9.24-1.05.41-1.59 1.06-1.88 1.56h-.01c-.09.02-.15.05-.22.08-.53 1.68-.47 3.55-.61 5.27-.18 2.21.01 4.18 2.1 5.28 7.01 3.67 14.86 5.53 22.61 6.82 11.7 1.95 24.07 2.1 35.9 1.6 11.46-.49 23.51-3.71 32.57-11.14.78-.64 1.58-1.56 2.42-2.39 1.06-1.05 3.17-2.2 4.71-2.02.15 1.04-.2 2.72 1.06 3.17.66.24 1.61 0 2.29-.01 1.04-.01 2.07-.01 3.11-.14 5.91-.76 11-2.28 16.28-4.97 2.74-1.4 2.98-1.45 3.39-4.65.12-1.01 0-2.18-.02-3.19z" fill="#2f2f2f"/><path d="M15.38 91.06c1.09-.43 2.57.16 3.61.47 6.3 1.86 11.73 3.65 18.5 4.14 7.29.53 14.81-.24 21.68-2.45 3.8-1.22 7.57-3.37 11-5.57 2.17-1.39 5.25-3.22 5.78-6.07.42-2.22-2.69-3.79-4.26-4.78-2.06-1.28-4.28-2.28-6.56-3.07-4.61-1.6-9.46-2.38-14.27-2.92-1.19-.14-2.38-.26-3.57-.37-1.81-.17-2.45-2.04-1.38-3.47 2.8-3.77 7.65-8.2 12.49-8.11 9.32.17 18.46 2.75 25.78 8.98.96.81 1.79 1.49 3.01 1.78 1.05.26 1.51-.34 2.24-1.1.35-.37.7-.8 1.1-1.15.38-.33.8-.58 1.32-.64.98-.09 1.53.55 2.25 1.08 2.45 1.81-.66 4.43-1.96 5.86-5.21 5.74-10.07 11.75-16.04 16.71-7.48 6.2-16.49 8.53-25.91 9.85-9.46 1.32-19.39.21-28.28-2.94-2.33-.83-6.47-1.64-7.49-3.92-.36-.8.05-1.97.96-2.31z" fill="#b89278"/><path d="M93.87 51.39c.22-.62 2.06-.89 4.14-1.09 2.32-.23 7.29-.45 10.73.52 3 .85 4.63 2.82 4.95 3.71.8 2.27.04 3.87-1.53 5-3.79 2.72-12.25 2.7-14.94 2.66-.98-.02-2.24-.44-2.41-1.52-.16-.99-.32-1.83-.35-4.71-.03-2.25-.74-4.14-.59-4.57z" fill="#2f2f2f"/></svg>