<svg enable-background="new 0 0 128 128" viewBox="0 0 128 128" xmlns="http://www.w3.org/2000/svg" xmlns:xlink="http://www.w3.org/1999/xlink"><symbol id="h" viewBox="-64.5 -64.5 129 129"><g fill="none" stroke="#4285F4" stroke-miterlimit="10"><rect x="-64" y="-64" width="128" height="128"/><path d="M36.95,37.82C27.32,46.32,14.2,51,0,51 c-14.27,0-27.39-4.62-36.96-13.01C-47.45,28.79-53,15.65-53,0c0-15.58,5.55-28.69,16.04-37.92C-27.36-46.35-14.24-51,0-51 c14.17,0,27.29,4.71,36.95,13.25C47.45-28.45,53-15.4,53,0C53,15.47,47.45,28.55,36.95,37.82z"/><path d="m0 55c-29.59 0-57-19.01-57-55 0-35.8 27.41-55 57-55s57 19.69 57 55c0 35.51-27.41 55-57 55z"/><path d="M0-43c-12.29,0-23.54,3.94-31.68,11.09 C-40.39-24.25-45-13.21-45,0c0,29.7,22.6,43,45,43c21.67,0,45-13.46,45-43S21.67-43,0-43L0-43z"/><line x1="-.01" x2="-.01" y1="51" y2="-51"/><line x1="-16" x2="-16" y1="48.95" y2="-48.93"/><line x1="15.99" x2="15.99" y1="48.91" y2="-48.93"/><line x1="53" x2="-53" y1=".08" y2=".08"/></g></symbol><linearGradient id="g" x1="63.992" x2="63.992" y1="19.591" y2="107.59" gradientUnits="userSpaceOnUse"><stop stop-color="#FEE133" offset=".5"/><stop stop-color="#FEDE32" offset=".6118"/><stop stop-color="#FCD32F" offset=".7076"/><stop stop-color="#FAC12B" offset=".7975"/><stop stop-color="#F7A924" offset=".8834"/><stop stop-color="#F6A323" offset=".9"/></linearGradient><path d="m63.99 119.78c-27.94 0-58.01-17.49-58.01-55.9s30.07-55.9 58.01-55.9c15.48 0 29.82 5.13 40.36 14.43 11.55 10.19 17.65 24.53 17.65 41.47 0 16.86-6.1 31.18-17.65 41.39-10.57 9.36-24.9 14.51-40.36 14.51z" fill="url(#g)"/><path d="m63.99 9.98c15 0 28.86 4.95 39.04 13.93 11.1 9.8 16.97 23.62 16.97 39.97 0 16.28-5.87 30.07-16.97 39.9-10.21 9.03-24.07 14.01-39.04 14.01-15.04 0-28.91-4.91-39.05-13.82-11.09-9.76-16.96-23.62-16.96-40.09 0-16.54 5.86-30.43 16.96-40.15 10.11-8.87 23.98-13.75 39.05-13.75m0-4c-31.16 0-60.01 20.01-60.01 57.9 0 37.69 28.85 57.9 60.01 57.9s60.01-20.73 60.01-57.9c0-37.38-28.85-57.9-60.01-57.9z" fill="#EB8F00"/><defs><path id="e" d="m62.67 80.42c-12.72 0-24.54-1.07-34.41-2.89-2.45-0.45-4.61 1.7-4.11 4.14 3.28 16.04 19.07 29.21 38.51 29.21 21.27 0 35.59-13.6 38.56-29.27 0.46-2.42-1.7-4.53-4.12-4.08-9.88 1.82-21.71 2.89-34.43 2.89z"/></defs><clipPath id="b"><use xlink:href="#e"/></clipPath><path d="m62.67 80.42c-12.72 0-24.54-1.07-34.41-2.89-2.45-0.45-4.61 1.7-4.11 4.14 3.28 16.04 19.07 29.21 38.51 29.21 21.27 0 35.59-13.6 38.56-29.27 0.46-2.42-1.7-4.53-4.12-4.08-9.88 1.82-21.71 2.89-34.43 2.89z" clip-path="url(#b)" fill="#242424"/><g clip-path="url(#b)" opacity=".2"><path d="m96.86 81.85c-1.5 6.58-5.27 12.59-10.72 17-6.31 5.12-14.43 7.82-23.49 7.82-16.2 0-30.68-10.6-34.15-24.81 10.23 1.82 22.02 2.78 34.16 2.78 12.16-0.01 23.96-0.97 34.2-2.79m0.89-4.39c-0.22 0-0.43 0.02-0.66 0.06-9.87 1.83-21.7 2.9-34.42 2.9s-24.54-1.07-34.41-2.89c-0.22-0.04-0.44-0.06-0.66-0.06-2.16 0-3.91 1.98-3.46 4.2 3.28 16.04 19.07 29.21 38.51 29.21 21.27 0 35.59-13.6 38.56-29.27 0.42-2.2-1.32-4.15-3.46-4.15z"/></g><path d="m62.67 80.42c-12.72 0-24.54-1.07-34.41-2.89-2.45-0.45-4.61 1.7-4.11 4.14 3.28 16.04 19.07 29.21 38.51 29.21 21.27 0 35.59-13.6 38.56-29.27 0.46-2.42-1.7-4.53-4.12-4.08-9.88 1.82-21.71 2.89-34.43 2.89z" fill="none"/><path d="m62.67 80.42c-12.72 0-24.54-1.07-34.41-2.89-2.45-0.45-4.61 1.7-4.11 4.14 3.28 16.04 19.07 29.21 38.51 29.21 21.27 0 35.59-13.6 38.56-29.27 0.46-2.42-1.7-4.53-4.12-4.08-9.88 1.82-21.71 2.89-34.43 2.89z" fill="none"/><defs><path id="d" d="M28.26,82.34v44.17h68.06V82.34C86.2,84.1,74.6,85.03,62.66,85.03c-11.93,0-23.51-0.92-33.62-2.68"/></defs><clipPath id="a"><use xlink:href="#d"/></clipPath><path d="m65.03 126.15h-3.28c-9.51 0-17.21-7.71-17.21-17.21v-38.77h37.71v38.77c0 9.5-7.71 17.21-17.22 17.21z" clip-path="url(#a)" fill="#00C800"/><g clip-path="url(#a)" opacity=".6"><path d="m78.25 74.17v34.77c0 7.29-5.93 13.21-13.21 13.21h-3.28c-7.29 0-13.21-5.93-13.21-13.21v-34.77h29.7m4-4h-37.71v38.77c0 9.51 7.71 17.21 17.21 17.21h3.28c9.51 0 17.21-7.71 17.21-17.21v-38.77h0.01z" fill="#006837"/></g><g fill="#fff"><path d="m68.29 109.28c0.01-1.04-0.37-1.93-1.14-2.68-0.77-0.74-2-1.39-3.68-1.94-1.06-0.33-2.03-0.72-2.88-1.15s-1.59-0.95-2.21-1.55c-0.61-0.6-1.08-1.29-1.42-2.07-0.33-0.78-0.5-1.68-0.5-2.7 0-0.96 0.15-1.83 0.44-2.61s0.7-1.46 1.24-2.03c0.53-0.58 1.18-1.04 1.94-1.4 0.76-0.35 1.61-0.59 2.53-0.7v-3.78h2.56v3.78c1.92 0.26 3.42 1.07 4.48 2.43s1.6 3.2 1.61 5.54h-3.16c0-0.77-0.09-1.47-0.28-2.12s-0.46-1.2-0.82-1.66-0.8-0.83-1.33-1.09-1.13-0.4-1.8-0.4c-1.38 0-2.43 0.36-3.14 1.08s-1.07 1.69-1.08 2.92c0 0.57 0.09 1.08 0.27 1.53s0.47 0.85 0.87 1.22c0.39 0.37 0.9 0.71 1.53 1.02 0.62 0.31 1.38 0.62 2.26 0.92 1.08 0.35 2.04 0.75 2.9 1.18 0.86 0.44 1.58 0.94 2.18 1.53 0.59 0.58 1.05 1.26 1.36 2.03s0.47 1.66 0.47 2.68c0 1-0.16 1.89-0.47 2.68s-0.76 1.47-1.33 2.03c-0.57 0.57-1.27 1.02-2.09 1.36s-1.73 0.57-2.72 0.67v3.3h-2.56v-3.28c-0.89-0.09-1.75-0.3-2.57-0.62s-1.54-0.79-2.17-1.4-1.13-1.38-1.51-2.31-0.57-2.04-0.57-3.33h3.18c0 0.96 0.14 1.76 0.43 2.39 0.29 0.64 0.65 1.14 1.11 1.52 0.45 0.38 0.96 0.65 1.54 0.81 0.57 0.16 1.15 0.24 1.73 0.24 0.74 0 1.41-0.09 2.01-0.27 0.59-0.18 1.1-0.45 1.51-0.8s0.73-0.77 0.95-1.27c0.21-0.51 0.33-1.07 0.33-1.7z"/><rect x="62.19" y="86.67" width="3" height="32.61"/></g><path d="m92 69.97c-12.2 0-22.13-9.93-22.13-22.13s9.93-22.13 22.13-22.13 22.13 9.93 22.13 22.13-9.93 22.13-22.13 22.13z" fill="#00C800"/><path d="m92 27.71c11.12 0 20.13 9.01 20.13 20.13s-9.01 20.13-20.13 20.13-20.13-9.01-20.13-20.13 9.01-20.13 20.13-20.13m0-4c-13.31 0-24.13 10.82-24.13 24.13s10.82 24.13 24.13 24.13 24.13-10.82 24.13-24.13-10.82-24.13-24.13-24.13z" fill="#006837"/><path d="m35.51 69.97c-12.2 0-22.13-9.93-22.13-22.13s9.93-22.13 22.13-22.13 22.13 9.93 22.13 22.13-9.93 22.13-22.13 22.13z" fill="#00C800"/><path d="m35.51 27.71c11.12 0 20.13 9.01 20.13 20.13s-9.01 20.13-20.13 20.13-20.13-9.01-20.13-20.13 9.01-20.13 20.13-20.13m0-4c-13.31 0-24.13 10.82-24.13 24.13s10.82 24.13 24.13 24.13 24.13-10.82 24.13-24.13-10.83-24.13-24.13-24.13z" fill="#006837"/><g fill="#404040"><path d="m40.15 53.94c0.01-1.01-0.36-1.87-1.1-2.59-0.75-0.72-1.94-1.35-3.56-1.88-1.03-0.32-1.96-0.69-2.79-1.11s-1.54-0.92-2.14-1.5c-0.59-0.58-1.05-1.25-1.37-2s-0.48-1.62-0.48-2.61c0-0.93 0.14-1.77 0.42-2.53 0.28-0.75 0.68-1.41 1.2-1.97s1.14-1.01 1.88-1.35 1.55-0.57 2.45-0.68v-3.66h2.48v3.66c1.86 0.26 3.31 1.04 4.34 2.35s1.55 3.1 1.56 5.36h-3.06c0-0.74-0.09-1.43-0.27-2.05-0.18-0.63-0.45-1.16-0.8-1.61s-0.78-0.8-1.29-1.06c-0.51-0.25-1.09-0.38-1.74-0.38-1.34 0-2.35 0.35-3.04 1.05s-1.04 1.64-1.05 2.83c0 0.55 0.09 1.05 0.27 1.48s0.46 0.83 0.84 1.18 0.88 0.68 1.48 0.99c0.6 0.3 1.33 0.6 2.19 0.89 1.04 0.34 1.98 0.73 2.81 1.15s1.53 0.91 2.11 1.48c0.58 0.56 1.02 1.22 1.32 1.96s0.46 1.61 0.46 2.59c0 0.96-0.15 1.83-0.46 2.59-0.3 0.76-0.73 1.42-1.29 1.97-0.55 0.55-1.23 0.99-2.02 1.32s-1.67 0.55-2.63 0.65v3.19h-2.48v-3.17c-0.86-0.09-1.69-0.29-2.48-0.6s-1.49-0.76-2.1-1.35-1.1-1.34-1.46-2.23c-0.37-0.9-0.55-1.97-0.55-3.22h3.07c0 0.93 0.14 1.7 0.42 2.32s0.63 1.1 1.07 1.47 0.93 0.63 1.49 0.78c0.55 0.16 1.11 0.23 1.68 0.23 0.72 0 1.37-0.09 1.94-0.27 0.58-0.18 1.06-0.43 1.46-0.77s0.71-0.75 0.92-1.23c0.19-0.52 0.3-1.06 0.3-1.67z"/><rect x="34.25" y="32.05" width="2.91" height="31.57"/></g><g fill="#404040"><path d="m96.95 53.94c0.01-1.01-0.36-1.87-1.1-2.59-0.75-0.72-1.94-1.35-3.56-1.88-1.03-0.32-1.96-0.69-2.79-1.11s-1.54-0.92-2.14-1.5c-0.59-0.58-1.05-1.25-1.37-2s-0.48-1.62-0.48-2.61c0-0.93 0.14-1.77 0.42-2.53 0.28-0.75 0.68-1.41 1.2-1.97s1.14-1.01 1.88-1.35 1.55-0.57 2.45-0.68v-3.66h2.48v3.66c1.86 0.26 3.31 1.04 4.34 2.35s1.55 3.1 1.56 5.36h-3.06c0-0.74-0.09-1.43-0.27-2.05-0.18-0.63-0.45-1.16-0.8-1.61s-0.78-0.8-1.29-1.06c-0.51-0.25-1.09-0.38-1.74-0.38-1.34 0-2.35 0.35-3.04 1.05s-1.04 1.64-1.05 2.83c0 0.55 0.09 1.05 0.27 1.48s0.46 0.83 0.84 1.18 0.88 0.68 1.48 0.99c0.6 0.3 1.33 0.6 2.19 0.89 1.04 0.34 1.98 0.73 2.81 1.15s1.53 0.91 2.11 1.48c0.58 0.56 1.02 1.22 1.32 1.96s0.46 1.61 0.46 2.59c0 0.96-0.15 1.83-0.46 2.59-0.3 0.76-0.73 1.42-1.29 1.97-0.55 0.55-1.23 0.99-2.02 1.32s-1.67 0.55-2.63 0.65v3.19h-2.48v-3.17c-0.86-0.09-1.69-0.29-2.48-0.6s-1.49-0.76-2.1-1.35-1.1-1.34-1.46-2.23c-0.37-0.9-0.55-1.97-0.55-3.22h3.07c0 0.93 0.14 1.7 0.42 2.32s0.63 1.1 1.07 1.47 0.93 0.63 1.49 0.78c0.55 0.16 1.11 0.23 1.68 0.23 0.72 0 1.37-0.09 1.94-0.27 0.58-0.18 1.06-0.43 1.46-0.77s0.71-0.75 0.92-1.23c0.19-0.52 0.3-1.06 0.3-1.67z"/><rect x="91.05" y="32.05" width="2.91" height="31.57"/></g><g display="none"><g display="inline"><g opacity=".6"><circle cx="64" cy="64" r="28" fill="none" opacity=".61" stroke="#000" stroke-miterlimit="10" stroke-width=".2625"/><line x1="84" x2="84" y2="128" fill="none" opacity=".61" stroke="#000" stroke-miterlimit="10" stroke-width=".25"/><line x1="44" x2="44" y2="128" fill="none" opacity=".61" stroke="#000" stroke-miterlimit="10" stroke-width=".25"/><line x1="64" x2="64" y2="128" fill="none" opacity=".61" stroke="#000" stroke-miterlimit="10" stroke-width=".25"/><line x1="128" y1="64" y2="64" fill="none" opacity=".61" stroke="#000" stroke-miterlimit="10" stroke-width=".25"/><line x1="128" y1="44" y2="44" fill="none" opacity=".61" stroke="#000" stroke-miterlimit="10" stroke-width=".25"/><line x1="128" y1="83.75" y2="83.75" fill="none" opacity=".61" stroke="#000" stroke-miterlimit="10" stroke-width=".25"/><line x1="128" y1="128" fill="none" opacity=".61" stroke="#000" stroke-miterlimit="10" stroke-width=".25"/><line x2="128" y1="128" fill="none" opacity=".61" stroke="#000" stroke-miterlimit="10" stroke-width=".25"/><g opacity=".61"><path d="M64,4.26c32.94,0,59.74,26.8,59.74,59.74S96.94,123.74,64,123.74S4.26,96.94,4.26,64S31.06,4.26,64,4.26 M64,4 C30.86,4,4,30.86,4,64s26.86,60,60,60s60-26.86,60-60S97.14,4,64,4L64,4z"/></g><path d="m107.97 115.97h-87.94c-4.42 0-8.03-3.61-8.03-8.03v-87.91c0-4.42 3.61-8.03 8.03-8.03h87.94c4.42 0 8.03 3.61 8.03 8.03v87.91c0 4.42-3.61 8.03-8.03 8.03z" fill="none" opacity=".61" stroke="#000" stroke-miterlimit="10" stroke-width=".2578"/><path d="m100 124h-72c-4.4 0-8-3.6-8-8v-104c0-4.4 3.6-8 8-8h72c4.4 0 8 3.6 8 8v104c0 4.4-3.6 8-8 8z" fill="none" opacity=".61" stroke="#000" stroke-miterlimit="10" stroke-width=".2628"/><path d="M113.77,108H14.23 C8.6,108,4,103.4,4,97.77V30.28c0-5.63,4.6-10.23,10.23-10.23h99.54c5.63,0,10.23,4.6,10.23,10.23v67.48 C124,103.4,119.4,108,113.77,108z" fill="none" opacity=".61" stroke="#000" stroke-miterlimit="10" stroke-width=".2627"/></g><g opacity=".2"><defs><rect id="f" width="128" height="128" opacity=".2"/></defs><clipPath id="c"><use xlink:href="#f"/></clipPath><g clip-path="url(#c)"><g fill="none" stroke="#000" stroke-miterlimit="10" stroke-width=".25"><line x1="-28" x2="-28" y1="160" y2="-32"/><line x1="-24" x2="-24" y1="160" y2="-32"/><line x1="-20" x2="-20" y1="160" y2="-32"/><line x1="-16" x2="-16" y1="160" y2="-32"/><line x1="-12" x2="-12" y1="160" y2="-32"/><line x1="-8" x2="-8" y1="160" y2="-32"/><line x1="-4" x2="-4" y1="160" y2="-32"/><line y1="160" y2="-32"/><line x1="4" x2="4" y1="160" y2="-32"/><line x1="8" x2="8" y1="160" y2="-32"/><line x1="12" x2="12" y1="160" y2="-32"/><line x1="16" x2="16" y1="160" y2="-32"/><line x1="20" x2="20" y1="160" y2="-32"/><line x1="24" x2="24" y1="160" y2="-32"/><line x1="28" x2="28" y1="160" y2="-32"/><line x1="32" x2="32" y1="160" y2="-32"/><line x1="36" x2="36" y1="160" y2="-32"/><line x1="40" x2="40" y1="160" y2="-32"/><line x1="44" x2="44" y1="160" y2="-32"/><line x1="48" x2="48" y1="160" y2="-32"/><line x1="52" x2="52" y1="160" y2="-32"/><line x1="56" x2="56" y1="160" y2="-32"/><line x1="60" x2="60" y1="160" y2="-32"/><line x1="64" x2="64" y1="160" y2="-32"/><line x1="68" x2="68" y1="160" y2="-32"/><line x1="72" x2="72" y1="160" y2="-32"/><line x1="76" x2="76" y1="160" y2="-32"/><line x1="80" x2="80" y1="160" y2="-32"/><line x1="84" x2="84" y1="160" y2="-32"/><line x1="88" x2="88" y1="160" y2="-32"/><line x1="92" x2="92" y1="160" y2="-32"/><line x1="96" x2="96" y1="160" y2="-32"/><line x1="100" x2="100" y1="160" y2="-32"/><line x1="104" x2="104" y1="160" y2="-32"/><line x1="108" x2="108" y1="160" y2="-32"/><line x1="112" x2="112" y1="160" y2="-32"/><line x1="116" x2="116" y1="160" y2="-32"/><line x1="120" x2="120" y1="160" y2="-32"/><line x1="124" x2="124" y1="160" y2="-32"/><line x1="128" x2="128" y1="160" y2="-32"/><line x1="132" x2="132" y1="160" y2="-32"/><line x1="136" x2="136" y1="160" y2="-32"/><line x1="137" x2="137" y1="166.05" y2="-25.95"/><line x1="144" x2="144" y1="160" y2="-32"/><line x1="148" x2="148" y1="160" y2="-32"/><line x1="152" x2="152" y1="160" y2="-32"/><line x1="156" x2="156" y1="160" y2="-32"/></g><g fill="none" stroke="#000" stroke-miterlimit="10" stroke-width=".25"><line x1="-32" x2="160" y1="-28" y2="-28"/><line x1="-32" x2="160" y1="-24" y2="-24"/><line x1="-32" x2="160" y1="-20" y2="-20"/><line x1="-32" x2="160" y1="-16" y2="-16"/><line x1="-32" x2="160" y1="-12" y2="-12"/><line x1="-32" x2="160" y1="-8" y2="-8"/><line x1="-32" x2="160" y1="-4" y2="-4"/><line x1="-32" x2="160"/><line x1="-32" x2="160" y1="4" y2="4"/><line x1="-32" x2="160" y1="8" y2="8"/><line x1="-32" x2="160" y1="12" y2="12"/><line x1="-32" x2="160" y1="16" y2="16"/><line x1="-32" x2="160" y1="20" y2="20"/><line x1="-32" x2="160" y1="24" y2="24"/><line x1="-32" x2="160" y1="28" y2="28"/><line x1="-32" x2="160" y1="32" y2="32"/><line x1="-32" x2="160" y1="36" y2="36"/><line x1="-32" x2="160" y1="40" y2="40"/><line x1="-32" x2="160" y1="44" y2="44"/><line x1="-32" x2="160" y1="48" y2="48"/><line x1="-32" x2="160" y1="52" y2="52"/><line x1="-32" x2="160" y1="56" y2="56"/><line x1="-32" x2="160" y1="60" y2="60"/><line x1="-32" x2="160" y1="64" y2="64"/><line x1="-32" x2="160" y1="68" y2="68"/><line x1="-32" x2="160" y1="72" y2="72"/><line x1="-32" x2="160" y1="76" y2="76"/><line x1="-32" x2="160" y1="80" y2="80"/><line x1="-32" x2="160" y1="84" y2="84"/><line x1="-32" x2="160" y1="88" y2="88"/><line x1="-32" x2="160" y1="92" y2="92"/><line x1="-32" x2="160" y1="96" y2="96"/><line x1="-32" x2="160" y1="100" y2="100"/><line x1="-32" x2="160" y1="104" y2="104"/><line x1="-32" x2="160" y1="108" y2="108"/><line x1="-32" x2="160" y1="112" y2="112"/><line x1="-32" x2="160" y1="116" y2="116"/><line x1="-32" x2="160" y1="120" y2="120"/><line x1="-32" x2="160" y1="124" y2="124"/><line x1="-32" x2="160" y1="128" y2="128"/><line x1="-32" x2="160" y1="132" y2="132"/><line x1="-32" x2="160" y1="136" y2="136"/><line x1="-32" x2="160" y1="140" y2="140"/><line x1="-32" x2="160" y1="144" y2="144"/><line x1="-32" x2="160" y1="148" y2="148"/><line x1="-32" x2="160" y1="152" y2="152"/><line x1="-32" x2="160" y1="156" y2="156"/></g><path d="m159.75-31.75v191.5h-191.5v-191.5h191.5m0.25-0.25h-192v192h192v-192z"/></g></g><g fill="#F44336"><rect width="4" height="128" opacity=".3"/><rect x="124" width="4" height="128" opacity=".3"/><rect transform="matrix(-1.837e-16 1 -1 -1.837e-16 66 -62)" x="62" y="-58" width="4" height="120" opacity=".3"/><rect transform="matrix(-1.837e-16 1 -1 -1.837e-16 190 62)" x="62" y="66" width="4" height="120" opacity=".3"/></g></g></g><g display="none"><rect transform="matrix(-1.3469e-10 -1 1 -1.3469e-10 8.6311e-9 128)" width="128" height="128" display="inline" fill="none" stroke="#616161" stroke-miterlimit="10" stroke-width=".25"/><g display="inline" fill="none" stroke="#E0E0E0" stroke-miterlimit="10" stroke-width=".25"><rect width="128" height="128"/><line x1="8" x2="8" y2="128"/><line x1="16" x2="16" y2="128"/><line x1="24" x2="24" y2="128"/><line x1="32" x2="32" y2="128"/><line x1="40" x2="40" y2="128"/><line x1="48" x2="48" y2="128"/><line x1="56" x2="56" y2="128"/><line x1="63.99" x2="63.99" y2="128"/><line x1="71.99" x2="71.99" y2="128"/><line x1="79.99" x2="79.99" y2="128"/><line x1="87.99" x2="87.99" y2="128"/><line x1="95.99" x2="95.99" y2="128"/><line x1="103.99" x2="103.99" y2="128"/><line x1="111.99" x2="111.99" y2="128"/><line x1="119.99" x2="119.99" y2="128"/><line x1="128" y1="120" y2="120"/><line x1="128" y1="112" y2="112"/><line x1="128" y1="104" y2="104"/><line x1="128" y1="96" y2="96"/><line x1="128" y1="88" y2="88"/><line x1="128" y1="80" y2="80"/><line x1="128" y1="72" y2="72"/><line x1="128" y1="64.01" y2="64.01"/><line x1="128" y1="56.01" y2="56.01"/><line x1="128" y1="48.01" y2="48.01"/><line x1="128" y1="40.01" y2="40.01"/><line x1="128" y1="32.01" y2="32.01"/><line x1="128" y1="24.01" y2="24.01"/><line x1="128" y1="16.01" y2="16.01"/><line x1="128" y1="8.01" y2="8.01"/></g><use transform="matrix(1 0 0 -1 64 64)" x="-64.5" y="-64.5" width="129" height="129" display="inline" xlink:href="#h"/></g></svg>
