<svg enable-background="new 0 0 128 128" viewBox="0 0 128 128" xmlns="http://www.w3.org/2000/svg"><polygon points="74.47 100.28 74.47 113.98 77.95 113.98 77.95 98.16" fill="#BD461C"/><path d="m58.76 113.62c9.49-1.22 20.82-0.72 30.16 1.34" fill="none" stroke="#C74B1E" stroke-linecap="round" stroke-linejoin="round" stroke-miterlimit="10" stroke-width="1.993"/><path d="m57.67 117.15c9.07-2.42 17.99-3.38 27.37-2.94" fill="none" stroke="#C74B1E" stroke-linecap="round" stroke-linejoin="round" stroke-miterlimit="10" stroke-width="1.993"/><polygon points="61.63 105.58 61.63 119.28 65.12 119.28 65.12 103.46" fill="#F15A24"/><path d="m45.76 117.64c9.49-1.22 20.65 0.02 30 2.08" fill="none" stroke="#F15A24" stroke-linecap="round" stroke-linejoin="round" stroke-miterlimit="10" stroke-width="2.8832"/><polygon points="61.63 105.58 61.63 119.28 65.12 119.28 65.12 103.46" fill="#F15A24"/><path d="m44.83 122.46c9.07-2.42 20.88-3.29 30.26-2.85" fill="none" stroke="#F15A24" stroke-linecap="round" stroke-linejoin="round" stroke-miterlimit="10" stroke-width="2.8832"/><ellipse cx="63.33" cy="104.96" rx="6.5" ry="5.76" fill="#E8A91C"/><ellipse cx="76.21" cy="103.46" rx="6.5" ry="5.76" fill="#E8A91C"/><path d="m17.27 26.29-0.44 8.04c-0.06 1.12-1.34 1.72-2.24 1.06l-7.14-5.27c-0.9-0.67-0.7-2.07 0.35-2.45l7.58-2.77c0.95-0.35 1.95 0.38 1.89 1.39z" fill="#F15A24"/><path d="m16.07 31.39 1.82 5.48c0.25 0.76-0.44 1.5-1.22 1.29l-6.15-1.63c-0.78-0.21-1.01-1.2-0.41-1.73l4.32-3.84c0.55-0.49 1.41-0.26 1.64 0.43z" fill="#F15A24"/><linearGradient id="b" x1="66.586" x2="66.586" y1="10.408" y2="102.8" gradientUnits="userSpaceOnUse"><stop stop-color="#FFF176" offset="0"/><stop stop-color="#FEEA6C" offset=".2181"/><stop stop-color="#FDD952" offset=".5847"/><stop stop-color="#FBC02D" offset="1"/></linearGradient><path d="m40.86 8.45c9.67-0.04 20 0.79 28.96 22.2 0.74 1.76 13.65-2.8 29.29 11.93 15 14.13 17.21 27.39 18.32 26.94-2 0.81-4.01 1.62-6.01 2.44l4.95 3.62c-2.97 0.02-5.57 2.08-7.3 4.47-2.18 3-3.64 6.49-5.88 9.5-5.73 7.7-13.02 11.39-22.41 13.92-9.33 2.51-19.37 1.79-28.37-1.6-0.77-0.29-1.54-0.6-2.29-0.93-18.1-7.86-25.99-22.48-24.35-39.09 0.37-3.7-0.12-5.82-2.41-8.76-19-24.45 1.61-44.57 17.5-44.64z" fill="url(#b)" stroke="#FCC13C" stroke-linecap="round" stroke-linejoin="round" stroke-miterlimit="10" stroke-width="3"/><linearGradient id="a" x1="57.555" x2="93.555" y1="52.853" y2="88.353" gradientUnits="userSpaceOnUse"><stop stop-color="#FFF9C8" offset="0"/><stop stop-color="#FFF8C4" offset=".0171"/><stop stop-color="#FFE17F" offset=".2851"/><stop stop-color="#FFCF48" offset=".5269"/><stop stop-color="#FFC221" offset=".7341"/><stop stop-color="#FFBA09" offset=".8987"/><stop stop-color="#FFB700" offset="1"/></linearGradient><path d="m56.39 52.53c16.7-14.47 48.5 16.14 45.33 21.54-1.4 2.39-9.86-0.04-11.36-0.62 3.69 2 8.85 8.46 7.15 14.04-4.1 3.34-13.59-3.63-15.72-5.24 1.42 1.02 5.9 8.33 2.5 10.87-2.43 1.81-11.02-1.74-15.46-4.12-8.49-4.57-28.16-22.85-12.44-36.47z" fill="url(#a)"/><circle cx="32.13" cy="29.65" r="7.66" fill="#fff"/><circle cx="29.95" cy="29.72" r="4.43"/></svg>
