<svg xmlns="http://www.w3.org/2000/svg" viewBox="0 0 128 128"><path d="M95.25 46.94c-1.43 0-2.82.14-4.2.33 1.89-3.93 2.98-8.31 2.98-12.96C94.03 17.76 80.56 4.28 64 4.28c-16.55 0-30.02 13.47-30.02 30.03 0 4.64 1.09 9.03 2.98 12.96-1.38-.19-2.77-.33-4.2-.33-16.55 0-30.02 13.47-30.02 30.02C2.73 93.52 16.2 107 32.75 107c8.93 0 16.94-3.94 22.45-10.15-2.93 14.28-7.7 22.99-7.77 23.12-.44.78-.43 1.73.02 2.51.45.77 1.28 1.25 2.18 1.25h28.75c.89 0 1.72-.48 2.17-1.25.45-.77.46-1.73.03-2.51-.07-.13-4.84-8.83-7.77-23.12 5.5 6.21 13.51 10.15 22.44 10.15 16.56 0 30.02-13.47 30.02-30.03 0-16.56-13.47-30.03-30.02-30.03z" fill="#2f2f2f"/></svg>