<?xml version="1.0" encoding="utf-8"?>
<!-- Generator: Adobe Illustrator 19.2.1, SVG Export Plug-In . SVG Version: 6.00 Build 0)  -->
<svg version="1.1" xmlns="http://www.w3.org/2000/svg" xmlns:xlink="http://www.w3.org/1999/xlink" x="0px" y="0px"
	 viewBox="0 0 128 128" style="enable-background:new 0 0 128 128;" xml:space="preserve">
<g id="Layer_1">
	<path style="display:none;fill:#E39E49;" d="M-1171.7,65.14c0,0,9.08-0.67,16.3,0.96l-0.12-3.1c0,0-6.36-1.17-13.24-0.79
		c-2.31,0.13-5.39,0.04-7.58,0.58c-3.73,0.91-7.12,2.58-9.26,4.71l-3.59-8.76c0,0-2.76,1.94-3.14,2.33
		c-0.48,0.48-1.18,0.22-1.18,0.22c-0.03,0-0.03,0.03-0.04,0.06c0.7,0.51,1.37,1.14,1.97,2c1.09,1.55,2.7,3.92,4.34,6.34
		c-0.13,0.26-0.28,0.52-0.37,0.79c0,0-2.21,5.66,2.75,9.71c0,0,1.55,1.49,5.83,1.63c2.2,3.95-0.76,6.59-0.76,6.59
		c-4.16,3.61-9.08-0.39-9.08-0.39c-0.95-0.57-4.31-4.34-5.67-5.9l-5.96-7.22c0,0,0.19,0.93-0.19,1.32
		c-0.48,0.48-1.18,0.22-1.18,0.22c-0.02,0-0.02,0.03-0.03,0.04c0.46,0.36,0.93,0.77,1.38,1.28c2.15,2.41,4.7,5.61,6.65,8.14
		l-0.01-0.03l0.93,1.23c3.47,4.37,3.18,5.78,3.18,5.78c0.14,3.69-3.93,4.96-3.93,4.96c-3.8,1.39-7.62-2.23-7.62-2.23
		c-1.29-1.2-6.24-6.2-6.24-6.2l3.31,6.1c3.03,3.5,5.79,4.41,5.79,4.41c5.79,2.12,9.63-2.14,9.63-2.14c1.4-1.67,1.41-3.46,1.41-3.46
		c0.03-1.06-0.23-2.09-0.64-3.06c5.56,2.93,9.77-0.44,9.77-0.44c3.51-3.15,2.59-7.24,1.91-9.08c0.61-0.05,1.25-0.12,1.95-0.23
		c3.47-0.53,5.64-0.87,7.86-0.78c0,0,6.12,0.22,7.5,3.87c0,0,0.48,1.69-0.04,3.99c0,0-0.11,1.81,1.04,1.91
		c0.6,0.05,1.86-0.64,2.48-1.6c0,0,0.78-1.01,0.67-3.07c0,0,0.19-3.18-3.4-5.57c0,0-2.5-1.82-5.56-2.1
		c-3.26-0.31-4.43-0.5-9.53,0.24c0,0-5.44,0.96-9.26-0.56c0,0-3.22-1.45-2.05-5.45C-1184.69,72.38-1182.99,66.25-1171.7,65.14z"/>
</g>
<g id="Layer_4">
</g>
<g id="Layer_3">
</g>
<g id="Layer_2">
	<polygon id="XMLID_1482_" style="fill:#70534A;" points="55.01,29.67 54.46,39.88 62.19,41.23 66.03,21.29 	"/>
	<polygon id="XMLID_1481_" style="fill:#646464;" points="34.64,68.94 36.2,62.98 58.05,65.8 74.29,68.94 74.29,72.73 34.64,72.73 	
		"/>
	
		<rect id="XMLID_1480_" x="66.33" y="43.18" transform="matrix(0.5704 -0.8213 0.8213 0.5704 -11.541 79.2903)" style="fill:#70534A;" width="7.41" height="14.99"/>
	
		<ellipse id="XMLID_1479_" transform="matrix(0.9917 -0.1289 0.1289 0.9917 -6.4446 10.2814)" style="fill:#70534A;" cx="76.21" cy="54.93" rx="3.75" ry="3.75"/>
	<path id="XMLID_1478_" style="fill:#70534A;" d="M53.6,19.7l1.36,17l11.1-0.8c5.16-0.37,8.96-4.98,8.33-10.12l-0.76-6.22
		c-0.7-5.75-6.21-9.64-11.86-8.38l-2.24,0.5C55.82,12.5,53.3,15.93,53.6,19.7z"/>
	<path id="XMLID_1477_" style="fill:#232020;" d="M54.12,31.26l5.11-1.34l-0.02-3.66c-0.01-1.23,0.66-2.37,1.75-2.96l0,0l1.55,3.91
		l0,0c1.19-0.31,2.12-1.22,2.48-2.39l0.7-2.34c0.3-1.01,1.08-1.82,2.08-2.16l5.65-1.91c0,0-0.69-8.02-8.69-8.36
		c-1.38-0.06-2.74-0.04-4.04,0.04c-6.04,0.35-10.36,5.98-9.16,11.91l0,0C52.16,25.16,53.03,28.25,54.12,31.26L54.12,31.26z"/>
	<path id="XMLID_1476_" style="fill:#232020;" d="M69.84,23.81c0.07,0.75,0.64,1.31,1.27,1.25c0.62-0.06,1.07-0.72,0.99-1.47
		c-0.08-0.75-0.64-1.31-1.26-1.25C70.21,22.39,69.77,23.05,69.84,23.81"/>
	<path id="XMLID_1475_" style="fill:#00BEA4;" d="M64.85,44.53l-2.49,8.87l-4.32,12.4L36.2,62.98l7.98-16.99
		c2-4.27,5.41-7.63,9.55-9.6c3.23-1.54,7.11-0.19,8.66,3.04L64.85,44.53z"/>
	<path id="XMLID_1474_" style="fill:#04A287;" d="M71.2,44.75l-6.8,9.42l-9.64-6.95c-2.6-1.88-3.19-5.51-1.31-8.11l0,0
		c1.88-2.6,5.51-3.19,8.11-1.31L71.2,44.75z"/>
	<path id="XMLID_1473_" style="fill:#ED6C30;" d="M5.01,73.15h119.16c0,0-0.14,17.86-10.63,24.98H25.52
		C25.52,98.13,11.68,88.22,5.01,73.15z"/>
	<path id="XMLID_1472_" style="fill:#DB5E2C;" d="M125.09,76.64H3.25c-1.12,0-2.02-0.9-2.02-2.02v-4.97c0-1.12,0.9-2.02,2.02-2.02
		h121.85c1.12,0,2.02,0.9,2.02,2.02v4.97C127.12,75.74,126.21,76.64,125.09,76.64z"/>
	
		<rect id="XMLID_1471_" x="70.88" y="52.42" transform="matrix(-0.7105 -0.7037 0.7037 -0.7105 73.856 181.2048)" style="fill:#FFAD1A;" width="6.65" height="45.98"/>
	<polygon id="XMLID_1470_" style="fill:#EA960F;" points="90.41,63.8 81.53,63.32 91.39,53.08 96.66,57.37 	"/>
	
		<rect id="XMLID_1469_" x="79.12" y="48.84" transform="matrix(0.0343 -0.9994 0.9994 0.0343 24.8311 136.0682)" style="fill:#70534A;" width="7.41" height="12.69"/>
	<path id="XMLID_1423_" style="fill:#70534A;" d="M96.98,59.59L96.98,59.59c-1.17,2.39-4.06,3.38-6.45,2.21l-2.17-1.06
		c-2.39-1.17-3.38-4.06-2.21-6.45l0,0c1.17-2.39,4.06-3.38,6.45-2.21l2.17,1.06C97.16,54.31,98.15,57.2,96.98,59.59z"/>
	<rect id="XMLID_1422_" x="0" y="93.58" style="fill:#039BE5;" width="127.93" height="34.42"/>
	<g id="XMLID_1233_">
		<g id="XMLID_1235_">
			<path id="XMLID_1421_" style="fill:#29B6F6;" d="M0.03,104.36c6.06,0,9.43-7.19,16-7.19h-16V104.36z"/>
			<path id="XMLID_1326_" style="fill:#29B6F6;" d="M16.03,97.18c6.57,0,9.93,7.19,16,7.19s9.43-7.19,16-7.19h-16H16.03z"/>
			<path id="XMLID_1325_" style="fill:#29B6F6;" d="M48.02,97.18c6.57,0,9.93,7.19,16,7.19c6.06,0,9.43-7.19,16-7.19h-16H48.02z"/>
			<path id="XMLID_1312_" style="fill:#29B6F6;" d="M80.01,97.18c6.57,0,9.93,7.19,16,7.19s9.43-7.19,16-7.19h-16H80.01z"/>
			<path id="XMLID_1305_" style="fill:#29B6F6;" d="M112,97.18c6.57,0,9.93,7.19,16,7.19v-7.19H112z"/>
		</g>
		<rect id="XMLID_1234_" x="0" y="93.58" style="fill:#29B6F6;" width="128" height="3.59"/>
	</g>
	<path id="XMLID_1232_" style="fill:#FFCD3E;" d="M60.81,88.85L60.81,88.85c2.5,2.47,2.52,6.5,0.04,9l-14.21,14.35
		c-2.47,2.5-6.5,2.52-9,0.04l0,0c-2.5-2.47-2.52-6.5-0.04-9l14.21-14.35C54.28,86.39,58.31,86.37,60.81,88.85z"/>
	<g>
		<g id="XMLID_118_">
			<defs>
				<rect id="XMLID_119_" x="144" y="-27" width="128" height="128"/>
			</defs>
			<clipPath id="XMLID_2_">
				<use xlink:href="#XMLID_119_"  style="overflow:visible;"/>
			</clipPath>
			<g style="clip-path:url(#XMLID_2_);">
				<path id="XMLID_613_" d="M224.74,71.86c-5.7-1.08-27.77-1.08-33.47,0C173.22,75.29,160,83.25,160,100.22v20.9l48,0.01l48-0.01
					v-20.9C256,83.25,242.78,75.29,224.74,71.86z"/>
				<polygon style="fill:#FFFFFF;" points="207.52,71.05 223.54,73.27 223.54,108.17 207.52,108.17 				"/>
				<path style="fill:#444444;" d="M218.04,73.13c0,0,4.42,3.24,4.58,10.16c0.18,7.55-6.16,36.54-15.58,53.11l14.68-2.22
					l15.98-38.55l-7.65-5.04l6.47-4.99c0,0-6.22-11-14.96-15.3c-4.25-0.76-12.37-1.1-14.03-1.05l-0.02,1.8L218.04,73.13z"/>
				<polygon style="fill:#FFFFFF;" points="207.52,71.05 191.5,73.27 191.5,108.17 207.52,108.17 				"/>
				<path style="fill:#444444;" d="M197,73.13c0,0-4.42,3.24-4.58,10.16c-0.18,7.55,6.16,36.54,15.58,53.11l-14.68-2.22
					l-15.98-38.55l7.65-5.04l-6.47-4.99c0,0,6.22-11,14.96-15.3c4.25-0.76,12.37-1.1,14.03-1.05l0.02,1.8L197,73.13z"/>
				<path id="XMLID_612_" style="fill:#35201A;" d="M207.97,84.35L207.97,84.35c-6.08,0-10.5-4.93-10.5-11.01V64h21v9.34
					C218.47,79.42,214.05,84.35,207.97,84.35z"/>
				<g>
					<g id="XMLID_609_">
						<path id="XMLID_125_" style="fill:#563E37;" d="M241.56,25.91c0,0,6.1,1.06,6.1,7.62c0,5.79-4.45,8.08-8.9,8.08v-15.7H241.56z
							"/>
						<path id="XMLID_610_" style="fill:#563E37;" d="M175.05,25.91c0,0-6.1,1.06-6.1,7.62c0,5.79,4.45,8.08,8.9,8.08v-15.7H175.05z
							"/>
					</g>
					<path id="XMLID_608_" style="fill:#70534A;" d="M208.31-17.09c-26.28,0-33.16,20.37-33.16,48.99
						c0,29.68,19.07,37.35,33.16,37.35c13.88,0,33.16-7.45,33.16-37.35C241.46,3.28,234.59-17.09,208.31-17.09z"/>
					<path id="XMLID_124_" style="fill:#232020;" d="M197.39,34.55c0,2.95-1.98,5.35-4.43,5.35c-2.45,0-4.44-2.4-4.44-5.35
						c0-2.96,1.99-5.36,4.44-5.36C195.41,29.2,197.39,31.59,197.39,34.55"/>
					<path id="XMLID_123_" style="fill:#232020;" d="M219.22,34.55c0,2.95,1.98,5.35,4.44,5.35c2.44,0,4.43-2.4,4.43-5.35
						c0-2.96-1.99-5.36-4.43-5.36C221.2,29.2,219.22,31.59,219.22,34.55"/>
					<path id="XMLID_122_" style="fill:#261819;" d="M217.9,52.63c-1.34,0-9.6,0-9.6,0s-8.25,0-9.6,0c-1.1,0-1.57,0.74-0.85,1.85
						c1.02,1.55,4.8,4.53,10.44,4.53c5.64,0,9.42-2.98,10.44-4.53C219.47,53.37,219,52.63,217.9,52.63z"/>
					<path id="XMLID_121_" style="fill:#35201A;" d="M212.94,44.48c-1.63,0.46-3.33,0.69-4.64,0.69c-1.31,0-3-0.23-4.64-0.69
						c-0.7-0.2-0.97,0.46-0.72,0.9c0.52,0.91,2.6,2.75,5.36,2.75c2.75,0,4.84-1.84,5.36-2.75
						C213.91,44.94,213.64,44.28,212.94,44.48z"/>
					<path id="XMLID_120_" style="fill:#211E1E;" d="M209.1-20.83c0,0-0.51-0.02-0.73-0.01c-0.22,0-0.73,0.01-0.73,0.01
						c-28.36,0.55-36.91,17.61-36.91,29.44c0,11.5,0.01,19.94,0.01,19.94s0.45-0.47,1.28-1.12c0.89-0.69,1.87-1.08,1.87-1.08
						l1.43,9.61l9.45-19.74c0.06-0.12,0.19-0.2,0.32-0.18l5.6,0.62c5.63,0.63,11.28,0.93,16.94,0.94v0.01
						c0.24,0,0.49-0.01,0.73-0.01c0.24,0,0.49,0.01,0.73,0.01V17.6c5.65-0.02,11.31-0.32,16.94-0.94l5.6-0.62
						c0.13-0.01,0.26,0.06,0.32,0.18l9.45,19.74l1.43-9.61c0,0,0.98,0.39,1.87,1.08c0.83,0.65,1.28,1.12,1.28,1.12
						s0.01-8.45,0.01-19.94C246.01-3.22,237.46-20.29,209.1-20.83z"/>
				</g>
			</g>
			<g style="clip-path:url(#XMLID_2_);">
				<g>
					<g>
						<path d="M209.37,82.13c1.55-1.07,3.01-1.84,4.5-2.79c1.19-0.76,3.2-2.17,5.09-1.45c1.6,0.61,1.03,2.8,1.03,5.66
							c0,3.36,0.57,5.31-0.7,5.87c-1.71,0.76-3.96-0.58-5.84-1.4c-1.07-0.46-4.13-1.86-4.65-2.67
							C208.29,84.55,208.31,82.66,209.37,82.13z"/>
						<path style="fill:#444444;" d="M217.28,81.84c0.03,0.24-1.66,0.78-3.79,1.22c-2.13,0.44-3.88,0.6-3.91,0.36
							s1.66-0.78,3.79-1.22C215.49,81.77,217.25,81.6,217.28,81.84z"/>
						<path style="fill:#444444;" d="M217.31,85.83c-0.02,0.24-1.78,0.18-3.92-0.13c-2.14-0.31-3.86-0.75-3.84-0.99
							s1.78-0.18,3.92,0.13C215.61,85.15,217.33,85.59,217.31,85.83z"/>
					</g>
					<g>
						<path d="M205.63,82.13c-1.55-1.07-3.01-1.84-4.5-2.79c-1.19-0.76-3.2-2.17-5.09-1.45c-1.6,0.61-1.03,2.8-1.03,5.66
							c0,3.36-0.57,5.31,0.7,5.87c1.71,0.76,3.96-0.58,5.84-1.4c1.07-0.46,4.13-1.86,4.65-2.67
							C206.71,84.55,206.69,82.66,205.63,82.13z"/>
						<path style="fill:#444444;" d="M197.72,81.84c-0.03,0.24,1.66,0.78,3.79,1.22c2.13,0.44,3.88,0.6,3.91,0.36
							s-1.66-0.78-3.79-1.22C199.51,81.77,197.75,81.6,197.72,81.84z"/>
						<path style="fill:#444444;" d="M197.69,85.83c0.02,0.24,1.78,0.18,3.92-0.13c2.14-0.31,3.86-0.75,3.84-0.99
							c-0.02-0.24-1.78-0.18-3.92,0.13C199.39,85.15,197.67,85.59,197.69,85.83z"/>
					</g>
				</g>
				<path d="M210.92,84.16c0,1.95-1.53,3.07-3.42,3.07s-3.42-1.12-3.42-3.07s0.85-3.52,3.42-3.52
					C209.96,80.64,210.92,82.22,210.92,84.16z"/>
			</g>
		</g>
		<circle style="fill:#232020;" cx="207.5" cy="91.63" r="1.59"/>
		<circle style="fill:#232020;" cx="207.5" cy="97.08" r="1.59"/>
	</g>
</g>
</svg>
