<?xml version="1.0" encoding="UTF-8" standalone="no"?>
<svg
   xmlns:dc="http://purl.org/dc/elements/1.1/"
   xmlns:cc="http://creativecommons.org/ns#"
   xmlns:rdf="http://www.w3.org/1999/02/22-rdf-syntax-ns#"
   xmlns:svg="http://www.w3.org/2000/svg"
   xmlns="http://www.w3.org/2000/svg"
   xmlns:sodipodi="http://sodipodi.sourceforge.net/DTD/sodipodi-0.dtd"
   xmlns:inkscape="http://www.inkscape.org/namespaces/inkscape"
   width="128"
   height="128"
   style="enable-background:new 0 0 128 128;"
   version="1.1"
   id="svg54"
   sodipodi:docname="emoji_u1f36b.svg"
   inkscape:version="0.92+devel unknown">
  <metadata
     id="metadata60">
    <rdf:RDF>
      <cc:Work
         rdf:about="">
        <dc:format>image/svg+xml</dc:format>
        <dc:type
           rdf:resource="http://purl.org/dc/dcmitype/StillImage" />
      </cc:Work>
    </rdf:RDF>
  </metadata>
  <defs
     id="defs58" />
  <sodipodi:namedview
     pagecolor="#ffffff"
     bordercolor="#666666"
     inkscape:document-rotation="0"
     borderopacity="1"
     objecttolerance="10"
     gridtolerance="10"
     guidetolerance="10"
     inkscape:pageopacity="0"
     inkscape:pageshadow="2"
     inkscape:window-width="1680"
     inkscape:window-height="986"
     id="namedview56"
     showgrid="false"
     inkscape:zoom="5.4453125"
     inkscape:cx="42.682366"
     inkscape:cy="65.476503"
     inkscape:window-x="0"
     inkscape:window-y="27"
     inkscape:window-maximized="1"
     inkscape:current-layer="svg54"
     inkscape:snap-global="true"
     inkscape:object-paths="true" />
  <path
     inkscape:connector-curvature="0"
     id="path2"
     style="opacity:1;vector-effect:none;fill:#412314;fill-opacity:1;stroke-width:1;stroke-linecap:butt;stroke-linejoin:miter;stroke-miterlimit:4;stroke-dasharray:none;stroke-dashoffset:0;stroke-opacity:1"
     d="m 55.342606,98.88 c 0.3,-0.27 0.52,-0.73 0.72,-1.05 0.83,-1.29 2.04,-2.54 3.38,-3.33 1.71,-1 3.23,-1.68 5.2,-2.18 1.99,-0.51 4.06,-0.66 6.05,-1.19 1.36,-0.36 2.72,-0.91 3.91,-1.65 0.92,-0.56 1.18,-1.32 1.59,-2.27 1.01,-2.3 2.98,-4.28 4.98,-5.73 1.22,-0.88 2.43,-1.2 3.78,-1.82 1.19,-0.55 2.35,-1.23 3.47,-1.92 1.57,-0.95 1.91,-2.56 2.7,-4.09 0.58,-1.13 1.47,-2.03 1.91,-3.23 0.55,-1.53 1.15,-3 1.99,-4.41 0.77,-1.27 2.07,-2.13 3.21,-3.02 1.01,-0.8 2.160004,-1.29 3.200004,-2 0.81,-0.55 1.39,-1.13 2.36,-1.43 0.97,-0.3 2.61,-0.49 3.35,-1.19 1.16,-1.1 -0.97,-2.8 -1.73,-3.6 -1.07,-1.13 -10.730004,-11.48 -11.810004,-12.61 -5.72,-6.04 -11.45,-12.09 -17.17,-18.13 -5,-5.28 -10,-10.56 -15,-15.84 -2.14,-2.26 -4.29,-4.52 -6.43,-6.78 -1.37,-1.45 -6.35,0.92 -7.8,2.3 L 6.1826058,42.65 c -1.44,1.37 -1.51,3.68 -0.14,5.12 1.43,1.51 2.86,3.02 4.2900002,4.53 5.25,5.54 10.49,11.08 15.74,16.62 3.23,3.4 6.45,6.81 9.68,10.22 2.98,3.15 14.48,15.88 17.64,18.73 0.38,0.34 0.72,1.15 1.28,1.23 0.27,0.04 0.49,-0.06 0.67,-0.22 z" />
  <g
     id="g8"
     style="fill:#5f2f18;fill-opacity:1"
     transform="matrix(-1,0,0,1,130.13261,0)">
    <path
       inkscape:connector-curvature="0"
       id="path4"
       style="fill:#5f2f18;fill-opacity:1"
       d="m 68.89,82.65 c 2,0.53 4.06,0.68 6.05,1.19 1.97,0.5 3.48,1.18 5.2,2.18 1.34,0.78 2.55,2.03 3.39,3.33 0.2,0.31 0.41,0.77 0.72,1.05 0.17,0.16 0.39,0.25 0.65,0.22 0.57,-0.08 0.91,-0.88 1.28,-1.23 3.17,-2.85 6.06,-6.37 9.04,-9.51 3.23,-3.4 6.46,-6.81 9.68,-10.22 5.25,-5.54 10.5,-11.08 15.74,-16.62 1.43,-1.51 2.86,-3.02 4.29,-4.53 1.37,-1.45 1.3,-3.75 -0.14,-5.13 L 83.46,4.12 C 82,2.75 79.7,2.81 78.33,4.26 c -2.14,2.26 -4.29,4.52 -6.43,6.78 -5,5.28 -10,10.56 -15,15.84 -5.72,6.05 -11.45,12.09 -17.17,18.13 -1.07,1.13 -2.14,2.26 -3.21,3.39 -0.75,0.8 -2.9,2.5 -1.73,3.6 0.74,0.7 2.38,0.89 3.35,1.19" />
    <path
       inkscape:connector-curvature="0"
       id="path6"
       style="fill:#5f2f18;fill-opacity:1"
       d="M 50.4,66.62" />
  </g>
  <g
     id="g4585"
     style="opacity:1;vector-effect:none;fill:#d97f51;fill-opacity:1;stroke-width:1;stroke-linecap:butt;stroke-linejoin:miter;stroke-miterlimit:4;stroke-dasharray:none;stroke-dashoffset:0;stroke-opacity:1"
     transform="matrix(-1,0,0,1,130.13261,0)">
    <path
       d="m 73.48,21.4 c 0,0 4.87,-6.79 5.96,-6.89 1.09,-0.1 7.08,6.46 6.62,6.77 -0.46,0.31 -4.73,-2.19 -6.62,-1.56 -1.9,0.62 -5.65,2.12 -5.96,1.68 z"
       style="opacity:1;vector-effect:none;fill:#d97f51;fill-opacity:1;stroke-width:1;stroke-linecap:butt;stroke-linejoin:miter;stroke-miterlimit:4;stroke-dasharray:none;stroke-dashoffset:0;stroke-opacity:1"
       id="path12"
       inkscape:connector-curvature="0" />
    <path
       d="m 58.78,36.88 c 0,0 4.87,-6.79 5.96,-6.89 1.09,-0.1 7.08,6.46 6.63,6.77 -0.46,0.31 -4.73,-2.19 -6.63,-1.56 -1.9,0.62 -5.66,2.12 -5.96,1.68 z"
       style="opacity:1;vector-effect:none;fill:#d97f51;fill-opacity:1;stroke-width:1;stroke-linecap:butt;stroke-linejoin:miter;stroke-miterlimit:4;stroke-dasharray:none;stroke-dashoffset:0;stroke-opacity:1"
       id="path14"
       inkscape:connector-curvature="0" />
    <path
       d="m 87.58,33.32 c 0,0 4.87,-6.79 5.96,-6.89 1.09,-0.1 7.08,6.46 6.62,6.77 -0.46,0.31 -4.73,-2.19 -6.62,-1.56 -1.9,0.62 -5.66,2.12 -5.96,1.68 z"
       style="opacity:1;vector-effect:none;fill:#d97f51;fill-opacity:1;stroke-width:1;stroke-linecap:butt;stroke-linejoin:miter;stroke-miterlimit:4;stroke-dasharray:none;stroke-dashoffset:0;stroke-opacity:1"
       id="path16"
       inkscape:connector-curvature="0" />
    <path
       d="m 102.16,46.83 c 0,0 4.87,-6.79 5.96,-6.89 1.09,-0.1 7.08,6.46 6.62,6.77 -0.46,0.31 -4.73,-2.19 -6.62,-1.56 -1.9,0.62 -5.66,2.12 -5.96,1.68 z"
       style="opacity:1;vector-effect:none;fill:#d97f51;fill-opacity:1;stroke-width:1;stroke-linecap:butt;stroke-linejoin:miter;stroke-miterlimit:4;stroke-dasharray:none;stroke-dashoffset:0;stroke-opacity:1"
       id="path18"
       inkscape:connector-curvature="0" />
    <path
       d="m 87.94,62.48 c 0,0 4.87,-6.79 5.96,-6.89 1.09,-0.1 7.07,6.46 6.62,6.77 -0.46,0.31 -4.73,-2.19 -6.62,-1.56 -1.9,0.62 -5.66,2.12 -5.96,1.68 z"
       style="opacity:1;vector-effect:none;fill:#d97f51;fill-opacity:1;stroke-width:1;stroke-linecap:butt;stroke-linejoin:miter;stroke-miterlimit:4;stroke-dasharray:none;stroke-dashoffset:0;stroke-opacity:1"
       id="path20"
       inkscape:connector-curvature="0" />
    <path
       d="m 72.65,48.97 c 0,0 4.87,-6.79 5.96,-6.89 1.09,-0.1 7.08,6.46 6.63,6.77 -0.46,0.31 -4.73,-2.19 -6.63,-1.56 -1.9,0.62 -5.65,2.11 -5.96,1.68 z"
       style="opacity:1;vector-effect:none;fill:#d97f51;fill-opacity:1;stroke-width:1;stroke-linecap:butt;stroke-linejoin:miter;stroke-miterlimit:4;stroke-dasharray:none;stroke-dashoffset:0;stroke-opacity:1"
       id="path22"
       inkscape:connector-curvature="0" />
    <path
       d="m 71.94,79.9 c 0,0 4.87,-6.79 5.96,-6.89 1.09,-0.1 7.07,6.46 6.63,6.77 -0.46,0.31 -4.73,-2.19 -6.63,-1.56 -1.9,0.62 -5.66,2.12 -5.96,1.68 z"
       style="opacity:1;vector-effect:none;fill:#d97f51;fill-opacity:1;stroke-width:1;stroke-linecap:butt;stroke-linejoin:miter;stroke-miterlimit:4;stroke-dasharray:none;stroke-dashoffset:0;stroke-opacity:1"
       id="path24"
       inkscape:connector-curvature="0" />
    <path
       d="m 56.65,66.04 c 0,0 4.87,-6.79 5.96,-6.89 1.09,-0.1 7.08,6.46 6.62,6.77 -0.46,0.31 -4.72,-2.19 -6.62,-1.56 -1.9,0.61 -5.66,2.11 -5.96,1.68 z"
       style="opacity:1;vector-effect:none;fill:#d97f51;fill-opacity:1;stroke-width:1;stroke-linecap:butt;stroke-linejoin:miter;stroke-miterlimit:4;stroke-dasharray:none;stroke-dashoffset:0;stroke-opacity:1"
       id="path26"
       inkscape:connector-curvature="0" />
    <path
       d="m 43.49,54.3 c 0,0 4.87,-6.79 5.96,-6.89 1.09,-0.1 7.07,6.46 6.63,6.77 -0.46,0.31 -4.73,-2.19 -6.63,-1.56 -1.9,0.62 -5.66,2.12 -5.96,1.68 z"
       style="opacity:1;vector-effect:none;fill:#d97f51;fill-opacity:1;stroke-width:1;stroke-linecap:butt;stroke-linejoin:miter;stroke-miterlimit:4;stroke-dasharray:none;stroke-dashoffset:0;stroke-opacity:1"
       id="path28"
       inkscape:connector-curvature="0" />
  </g>
  <g
     id="g4614"
     style="fill:#432414;fill-opacity:1"
     transform="matrix(-1,0,0,1,130.13261,0)">
    <path
       d="m 87.46,22.65 c 0.6,-0.74 4.04,0.3 4.04,0.3 0,0 -10.23,10.42 -11.25,10.52 -1.03,0.1 -12.08,-8.6 -12.08,-8.6 0,0 2.66,-1 3.43,-0.84 0.77,0.16 7.61,5.95 8.39,5.95 0.76,0 7.17,-6.95 7.47,-7.33 z"
       style="opacity:1;vector-effect:none;fill:#432414;fill-opacity:1;stroke-width:1;stroke-linecap:butt;stroke-linejoin:miter;stroke-miterlimit:4;stroke-dasharray:none;stroke-dashoffset:0;stroke-opacity:1"
       id="path30"
       inkscape:connector-curvature="0" />
    <path
       d="m 102.04,35.81 c 0.6,-0.74 4.04,0.3 4.04,0.3 0,0 -10.24,10.41 -11.26,10.51 -1.03,0.1 -12.08,-8.6 -12.08,-8.6 0,0 2.66,-1 3.43,-0.84 0.78,0.16 7.61,5.95 8.39,5.95 0.77,0 7.18,-6.94 7.48,-7.32 z"
       style="opacity:1;vector-effect:none;fill:#432414;fill-opacity:1;stroke-width:1;stroke-linecap:butt;stroke-linejoin:miter;stroke-miterlimit:4;stroke-dasharray:none;stroke-dashoffset:0;stroke-opacity:1"
       id="path32"
       inkscape:connector-curvature="0" />
    <path
       d="m 116.62,48.61 c 0.59,-0.74 4.04,0.3 4.04,0.3 0,0 -10.24,10.41 -11.26,10.51 -1.02,0.1 -12.08,-8.6 -12.08,-8.6 0,0 2.66,-1 3.43,-0.84 0.78,0.16 7.61,5.95 8.4,5.95 0.76,0 7.17,-6.94 7.47,-7.32 z"
       style="opacity:1;vector-effect:none;fill:#432414;fill-opacity:1;stroke-width:1;stroke-linecap:butt;stroke-linejoin:miter;stroke-miterlimit:4;stroke-dasharray:none;stroke-dashoffset:0;stroke-opacity:1"
       id="path34"
       inkscape:connector-curvature="0" />
    <path
       d="m 101.33,64.61 c 0.6,-0.74 4.05,0.3 4.05,0.3 0,0 -10.25,10.41 -11.27,10.51 -1.03,0.1 -12.08,-8.6 -12.08,-8.6 0,0 2.66,-1 3.43,-0.84 0.78,0.16 7.61,5.95 8.39,5.95 0.77,0 7.18,-6.94 7.48,-7.32 z"
       style="opacity:1;vector-effect:none;fill:#432414;fill-opacity:1;stroke-width:1;stroke-linecap:butt;stroke-linejoin:miter;stroke-miterlimit:4;stroke-dasharray:none;stroke-dashoffset:0;stroke-opacity:1"
       id="path36"
       inkscape:connector-curvature="0" />
    <path
       d="m 86.4,50.39 c 0.6,-0.74 4.05,0.3 4.05,0.3 0,0 -10.25,10.41 -11.27,10.51 -1.02,0.1 -12.08,-8.6 -12.08,-8.6 0,0 2.66,-1 3.43,-0.84 0.78,0.16 7.61,5.95 8.39,5.95 0.77,0 7.18,-6.94 7.48,-7.32 z"
       style="opacity:1;vector-effect:none;fill:#432414;fill-opacity:1;stroke-width:1;stroke-linecap:butt;stroke-linejoin:miter;stroke-miterlimit:4;stroke-dasharray:none;stroke-dashoffset:0;stroke-opacity:1"
       id="path38"
       inkscape:connector-curvature="0" />
    <path
       d="m 71.82,37.94 c 0.6,-0.74 4.05,0.3 4.05,0.3 0,0 -10.25,10.41 -11.27,10.51 -1.02,0.1 -12.08,-8.6 -12.08,-8.6 0,0 2.66,-1 3.43,-0.84 0.78,0.16 7.61,5.95 8.39,5.95 0.77,0 7.18,-6.94 7.48,-7.32 z"
       style="opacity:1;vector-effect:none;fill:#432414;fill-opacity:1;stroke-width:1;stroke-linecap:butt;stroke-linejoin:miter;stroke-miterlimit:4;stroke-dasharray:none;stroke-dashoffset:0;stroke-opacity:1"
       id="path40"
       inkscape:connector-curvature="0" />
    <path
       d="m 55.47,56.43 c 0.59,-0.74 4.04,0.3 4.04,0.3 0,0 -10.24,10.41 -11.26,10.51 -1.02,0.1 -12.08,-8.6 -12.08,-8.6 0,0 2.65,-1 3.43,-0.84 0.77,0.16 7.61,5.95 8.4,5.95 0.76,0 7.16,-6.94 7.47,-7.32 z"
       style="opacity:1;vector-effect:none;fill:#432414;fill-opacity:1;stroke-width:1;stroke-linecap:butt;stroke-linejoin:miter;stroke-miterlimit:4;stroke-dasharray:none;stroke-dashoffset:0;stroke-opacity:1"
       id="path42"
       inkscape:connector-curvature="0" />
    <path
       d="m 69.69,68.88 c 0.59,-0.74 4.05,0.3 4.05,0.3 0,0 -10.25,10.41 -11.27,10.51 -1.02,0.1 -12.08,-8.6 -12.08,-8.6 0,0 2.66,-1 3.43,-0.84 0.77,0.16 7.61,5.95 8.39,5.95 0.77,0 7.18,-6.94 7.48,-7.32 z"
       style="opacity:1;vector-effect:none;fill:#432414;fill-opacity:1;stroke-width:1;stroke-linecap:butt;stroke-linejoin:miter;stroke-miterlimit:4;stroke-dasharray:none;stroke-dashoffset:0;stroke-opacity:1"
       id="path44"
       inkscape:connector-curvature="0" />
    <path
       d="m 85.34,82.03 c 0.59,-0.74 4.04,0.3 4.04,0.3 0,0 -10.24,10.42 -11.26,10.52 -1.02,0.1 -12.08,-8.6 -12.08,-8.6 0,0 2.66,-1 3.43,-0.84 0.78,0.16 7.61,5.95 8.4,5.95 0.76,0 7.16,-6.95 7.47,-7.33 z"
       style="opacity:1;vector-effect:none;fill:#432414;fill-opacity:1;stroke-width:1;stroke-linecap:butt;stroke-linejoin:miter;stroke-miterlimit:4;stroke-dasharray:none;stroke-dashoffset:0;stroke-opacity:1"
       id="path46"
       inkscape:connector-curvature="0" />
  </g>
  <path
     style="color:#000000;font-style:normal;font-variant:normal;font-weight:normal;font-stretch:normal;font-size:medium;line-height:normal;font-family:sans-serif;font-variant-ligatures:normal;font-variant-position:normal;font-variant-caps:normal;font-variant-numeric:normal;font-variant-alternates:normal;font-variant-east-asian:normal;font-feature-settings:normal;text-indent:0;text-align:start;text-decoration:none;text-decoration-line:none;text-decoration-style:solid;text-decoration-color:#000000;letter-spacing:normal;word-spacing:normal;text-transform:none;writing-mode:lr-tb;direction:ltr;text-orientation:mixed;dominant-baseline:auto;baseline-shift:baseline;text-anchor:start;white-space:normal;shape-padding:0;clip-rule:nonzero;display:inline;overflow:visible;visibility:visible;opacity:1;isolation:auto;mix-blend-mode:normal;color-interpolation:sRGB;color-interpolation-filters:linearRGB;solid-color:#000000;solid-opacity:1;vector-effect:none;fill:#aaaaaa;fill-opacity:1;fill-rule:nonzero;stroke:none;stroke-width:4.30000019;stroke-linecap:butt;stroke-linejoin:miter;stroke-miterlimit:4;stroke-dasharray:none;stroke-dashoffset:0;stroke-opacity:1;paint-order:stroke fill markers;color-rendering:auto;image-rendering:auto;shape-rendering:auto;text-rendering:auto;enable-background:accumulate"
     d="m 99.87284,47.900391 c 0.39437,-0.0076 0.78509,0.0029 1.17187,0.0332 h 0.002 0.002 c 0.28261,0.02174 0.35812,0.06739 0.55664,0.257812 l 0.23047,0.220703 0.28516,0.144532 c 1.51504,0.76829 2.8947,2.539107 4.89062,4.296875 h 0.002 v 0.002 c 2.39747,2.106561 4.82148,4.241048 6.45118,6.552734 l 0.004,0.0059 0.004,0.0039 c 2.33767,3.281118 5.00478,6.144179 7.45508,9.017578 v 0.002 c 1.33105,1.557821 2.5993,3.108563 3.69726,4.722656 0.78677,1.155249 1.18835,1.882947 1.25391,2.185547 0.0656,0.3026 0.1133,0.46765 -0.51367,1.439453 -1.96225,3.046148 -4.7934,6.209885 -7.28125,9.322266 -2.90622,3.635203 -6.17974,7.029052 -9.58985,10.300781 -6.78318,6.506717 -14.232073,12.538637 -21.007808,19.457027 l -0.002,0.002 -0.002,0.002 c -0.374069,0.38391 -0.751247,0.77325 -1.138671,1.19141 l -0.0059,0.006 -0.01367,0.0137 c -2.473179,2.60146 -5.033366,4.56697 -8.158203,6.28515 v 0.002 h -0.002 c -0.800656,0.44215 -1.456246,0.89784 -2.011719,1.21289 l -0.0039,0.002 -0.0059,0.004 c -0.487839,0.27987 -0.470609,0.27637 -0.824219,0.29687 h -0.002 c -1.163675,0.0681 -1.943524,-0.31473 -2.945313,-1.14062 -1.001788,-0.8259 -2.041631,-2.09632 -3.287109,-3.3418 -0.815433,-0.81543 -1.624459,-1.98403 -2.800781,-3.15039 0.138745,0.13875 -0.19054,-0.21902 -0.476563,-0.56055 -0.286022,-0.34153 -0.644302,-0.77344 -1.005859,-1.19922 -0.361557,-0.42577 -0.721939,-0.84245 -1.046875,-1.18945 -0.162468,-0.1735 -0.308617,-0.32497 -0.498047,-0.49219 -0.09472,-0.0836 -0.190336,-0.17 -0.386719,-0.29492 -0.196383,-0.12492 -0.395568,-0.57284 -1.648437,-0.32226 h -0.002 c -1.505933,0.3027 -3.702181,0.12563 -5.394532,0.14843 -1.294482,0.009 -2.582252,-0.0993 -3.84375,-0.3164 -1.32981,-0.23666 -3.590262,-0.87133 -5.74414,0.79687 -1.385157,1.06846 -1.865196,1.72454 -2.511719,1.91016 -0.526899,0.14832 -0.604174,0.11158 -0.849609,0.0176 -0.24592,-0.0942 -0.699877,-0.39134 -1.376954,-0.90625 -1.234767,-0.94267 -2.296297,-1.38984 -2.845703,-1.86524 -0.51229,-0.44813 -1.250732,-1.48923 -2.013672,-2.48437 l -0.0059,-0.01 -0.0078,-0.008 c -0.0724,-0.0924 -0.38823,-0.83384 -0.544922,-1.39063 0.04757,-0.11304 0.193677,-0.37758 0.416015,-0.82226 v -0.002 l 0.002,-0.002 c 1.022595,-2.05511 2.065368,-4.09146 3.128907,-6.11914 v -0.002 l 0.002,-0.002 c 1.281463,-2.453667 2.590114,-4.881541 3.945312,-7.275395 l 0.002,-0.002 v -0.0039 c 1.885859,-3.352637 3.463613,-7.575851 5.339844,-9.308594 l 0.002,-0.002 c 0.758867,-0.694672 1.925259,-0.853993 3.845703,-1.494141 l 0.0059,-0.002 0.0059,-0.002 c 2.205447,-0.749678 4.914541,-1.026021 7.708984,-1.681641 h 0.002 l 0.002,-0.002 c 0.949588,-0.225326 2.245188,-0.265193 3.767578,-1.175781 1.026997,-0.612673 1.765553,-1.615095 2.175781,-2.40625 0.449244,-0.839961 0.981436,-1.767165 1.472656,-2.435547 0.875735,-1.165624 1.281389,-2.215367 1.738282,-3.021484 0.575784,-1.012826 1.605852,-1.92393 2.783203,-2.626954 0.685131,-0.409734 1.683051,-0.686838 2.953125,-1.238281 0.0032,-0.0013 0.0046,-0.0025 0.0078,-0.0039 0.0017,-8e-4 0.0022,-0.0012 0.0039,-0.002 1.306011,-0.561714 2.319718,-1.271152 3.166016,-1.734375 0.0032,-0.0017 0.0066,-0.0042 0.0098,-0.0059 0.0017,-9.01e-4 0.0043,-0.003 0.0059,-0.0039 1.533089,-0.820609 3.172185,-1.931597 4.119141,-3.957031 0.382473,-0.819585 1.300478,-1.830885 1.99414,-3.490234 0.397069,-0.947843 0.592542,-1.776816 0.810547,-2.414063 l 0.002,-0.0039 0.002,-0.0059 c 1.867767,-5.540259 8.457498,-9.821745 14.373046,-9.935547 z m 0.14844,3.74414 c -0.293344,0.265216 -0.535229,0.558721 -0.740236,0.851563 0.205007,-0.292842 0.446892,-0.586347 0.740236,-0.851563 z M 65.468544,83.171875 c -0.255387,0.06682 -0.579633,0.127912 -0.984376,0.15625 0.405507,-0.02839 0.728804,-0.08928 0.984376,-0.15625 z m 15.4375,9.068359 c -0.06427,0.25595 -0.193487,0.639614 -0.435547,1.105469 0.24206,-0.465855 0.371272,-0.849519 0.435547,-1.105469 z m -3.148438,3.878907 c -1.831623,0.315611 -3.721952,0.565489 -5.689453,0.914062 -0.570003,0.100847 -1.1876,0.238361 -1.810547,0.453125 0.622947,-0.214764 1.240544,-0.352278 1.810547,-0.453125 1.967501,-0.348573 3.85783,-0.598451 5.689453,-0.914062 z m -8.740234,1.912109 c -0.408158,0.223938 -0.807112,0.493459 -1.183594,0.822266 0.376482,-0.328807 0.775436,-0.598328 1.183594,-0.822266 z m -1.732422,1.361328 c -0.345182,0.381906 -0.598891,0.768012 -0.78711,1.140622 0.188219,-0.37261 0.441928,-0.758716 0.78711,-1.140622 z m -1.023438,1.687502 c -0.194597,0.53128 -0.272854,1.01125 -0.324218,1.37695 0.05136,-0.3657 0.129621,-0.84567 0.324218,-1.37695 z m -4.769531,9.46484 c -0.156588,0.25009 -0.352376,0.49644 -0.609375,0.72461 0.256999,-0.22817 0.452787,-0.47452 0.609375,-0.72461 z"
     id="path4348"
     inkscape:connector-curvature="0" />
  <path
     style="vector-effect:none;fill:#c22626;fill-opacity:1;stroke:none;stroke-width:4.30000019;stroke-miterlimit:4;stroke-dasharray:none;stroke-opacity:1;paint-order:stroke fill markers"
     d="m 103.79667,50.685547 c 0.36825,-0.0049 0.73086,0.05056 1.08008,0.132812 0.64987,0.642854 1.33552,1.331276 2.13476,2.035157 h 0.002 v 0.002 c 2.39747,2.106561 4.82148,4.241048 6.45118,6.552734 l 0.004,0.0059 0.004,0.0039 c 2.33767,3.281118 5.00478,6.144179 7.45508,9.017578 v 0.002 c 1.33105,1.557821 2.5993,3.108563 3.69726,4.722656 0.78677,1.155249 1.18835,1.882947 1.25391,2.185547 0.0656,0.3026 0.1133,0.46765 -0.51367,1.439453 -1.96225,3.046148 -4.7934,6.209885 -7.28125,9.322266 -2.90622,3.635203 -6.17974,7.029052 -9.58985,10.300781 -6.78318,6.506717 -14.232073,12.538637 -21.007808,19.457027 l -0.002,0.002 -0.002,0.002 c -0.374069,0.38391 -0.751247,0.77325 -1.138671,1.19141 l -0.0059,0.006 -0.01367,0.0137 c -2.473179,2.60146 -5.033366,4.56697 -8.158203,6.28515 v 0.002 h -0.002 c -0.800656,0.44215 -1.456246,0.89784 -2.011719,1.21289 l -0.0039,0.002 -0.0059,0.004 c -0.228471,0.13107 -0.336707,0.19213 -0.433594,0.23047 -0.107965,0.0176 -0.216371,0.0438 -0.324219,0.0566 -0.03992,0.005 -0.07925,0.004 -0.119141,0.008 -1.133762,0.0531 -1.908431,-0.32572 -2.894531,-1.13867 -1.001788,-0.8259 -2.041631,-2.09632 -3.287109,-3.3418 -0.815433,-0.81543 -1.624459,-1.98403 -2.800781,-3.15039 0.138745,0.13875 -0.19054,-0.21902 -0.476563,-0.56055 -0.286022,-0.34153 -0.644302,-0.77344 -1.005859,-1.19922 -0.361557,-0.42577 -0.721939,-0.84245 -1.046875,-1.18945 -0.162468,-0.1735 -0.308617,-0.32497 -0.498047,-0.49219 -0.09472,-0.0836 -0.190336,-0.17 -0.386719,-0.29492 -0.1521,-0.0968 -0.321145,-0.37704 -0.964844,-0.38672 0.04487,-0.92367 0.381092,-1.54976 0.408204,-1.74414 0.01913,-0.14784 -0.09052,-0.74197 0.197265,-1.75 v -0.002 c 0.293315,-1.02978 0.552494,-1.40503 0.541016,-1.33984 l 0.0059,-0.0293 0.0059,-0.0254 c 0.166579,-0.82155 0.201309,-1.90928 0.626953,-3.24414 v -0.002 c 0.163265,-0.51589 0.06637,-2.17651 1.580078,-3.76171 h 0.002 c 1.541271,-1.620265 3.575775,-2.168208 5.242187,-2.44727 2.876006,-0.482283 5.600911,-0.784337 8.22461,-1.306641 l -0.002,0.002 c 0.83298,-0.166572 1.473308,-0.294828 1.871093,-0.460937 h 0.002 c 0.181596,-0.07563 0.181047,-0.07176 0.330079,-0.324219 0.147981,-0.250676 0.335131,-0.758267 0.576171,-1.43164 0.165136,-0.468917 0.137534,-1.499829 0.623047,-2.955078 l 0.002,-0.0039 0.002,-0.0039 c 0.360118,-1.065028 0.712987,-2.0589 0.914062,-2.929687 l 0.0039,-0.0098 c 0.48272,-2.13643 1.279722,-4.265613 2.34375,-6.222656 l 0.002,-0.0039 0.002,-0.002 c 1.216524,-2.223969 3.549051,-3.153944 5.447265,-3.580078 1.895512,-0.425527 3.655772,-0.56575 4.621094,-0.86914 l 0.002,-0.002 c 0.211694,-0.06651 0.122723,5.76e-4 0.226563,-0.201172 0.104852,-0.203738 0.238934,-0.7135 0.333984,-1.390624 v -0.002 c 0.235024,-1.668426 0.690912,-3.107893 0.763672,-4.15625 v -0.0059 l 0.002,-0.0059 c 0.07995,-1.076115 -0.07515,-2.424142 0.126953,-4.082032 h 0.0039 v -0.0039 c 0.228714,-1.86588 0.447209,-3.76587 0.726563,-5.68164 l 0.002,-0.0098 c 0.08977,-0.641512 0.31442,-3.805455 1.011719,-6.601563 0.349188,-1.400217 0.77286,-2.757133 1.671875,-3.972656 0.44951,-0.607761 1.06008,-1.21927 1.96484,-1.591797 0.45239,-0.186265 0.96664,-0.280145 1.48438,-0.287109 z"
     id="path4362"
     inkscape:connector-curvature="0" />
  <path
     style="opacity:1;vector-effect:none;fill:#000000;fill-opacity:0.26893502;fill-rule:evenodd;stroke:none;stroke-width:3.77952766;stroke-linecap:round;stroke-linejoin:round;stroke-miterlimit:4;stroke-dasharray:none;stroke-dashoffset:0;stroke-opacity:1"
     d="m 103.79667,50.685547 c 0.36825,-0.0049 0.73086,0.05056 1.08008,0.132812 0,0 1.7541,39.205578 -34.47266,70.966801 h -0.0059 c -0.421918,-0.45347 -0.842622,-0.91294 -1.314453,-1.38477 -0.815433,-0.81543 -1.624459,-1.98403 -2.800781,-3.15039 0.138745,0.13875 -0.19054,-0.21902 -0.476563,-0.56055 -0.286022,-0.34153 -0.644302,-0.77344 -1.005859,-1.19922 -0.361557,-0.42577 -0.721939,-0.84245 -1.046875,-1.18945 -0.162468,-0.1735 -0.308617,-0.32497 -0.498047,-0.49219 -0.09472,-0.0836 -0.190336,-0.17 -0.386719,-0.29492 -0.1521,-0.0968 -0.321145,-0.37704 -0.964844,-0.38672 0.04487,-0.92367 0.381091,-1.54976 0.408204,-1.74414 0.01913,-0.14784 -0.09052,-0.74197 0.197265,-1.75 v -0.002 c 0.293315,-1.02978 0.552494,-1.40503 0.541016,-1.33984 l 0.0059,-0.0293 0.0059,-0.0254 c 0.166578,-0.82155 0.201309,-1.90928 0.626953,-3.24414 v -0.002 c 0.163265,-0.51589 0.06637,-2.17651 1.580078,-3.76171 h 0.002 c 1.541271,-1.620269 3.575775,-2.168208 5.242187,-2.44727 2.876006,-0.482283 5.600911,-0.784337 8.22461,-1.306641 l -0.002,0.002 c 0.83298,-0.166572 1.473308,-0.294828 1.871093,-0.460937 h 0.002 c 0.181596,-0.07563 0.181047,-0.07176 0.330079,-0.324219 0.147981,-0.250676 0.335131,-0.758267 0.576171,-1.43164 0.165136,-0.468917 0.137534,-1.49983 0.623047,-2.955078 l 0.002,-0.0039 0.002,-0.0039 c 0.360118,-1.065028 0.712987,-2.058901 0.914062,-2.929687 l 0.0039,-0.0098 c 0.48272,-2.13643 1.279722,-4.265613 2.34375,-6.222656 l 0.002,-0.0039 0.002,-0.002 c 1.216524,-2.223969 3.549051,-3.153944 5.447265,-3.580078 1.895512,-0.425527 3.655772,-0.565751 4.621094,-0.86914 l 0.002,-0.002 c 0.211694,-0.06651 0.122723,5.76e-4 0.226563,-0.201172 0.104852,-0.203738 0.238934,-0.7135 0.333984,-1.390624 v -0.002 c 0.235024,-1.668426 0.690912,-3.107893 0.763672,-4.15625 v -0.0059 l 0.002,-0.0059 c 0.07995,-1.076115 -0.07515,-2.424142 0.126953,-4.082032 h 0.0039 v -0.0039 c 0.228714,-1.86588 0.447209,-3.765871 0.726563,-5.68164 l 0.002,-0.0098 c 0.08977,-0.641512 0.31442,-3.805455 1.011719,-6.601563 0.349188,-1.400217 0.77286,-2.757133 1.671875,-3.972656 0.44951,-0.607761 1.06008,-1.21927 1.96484,-1.591797 0.45239,-0.186265 0.96664,-0.280145 1.48438,-0.287109 z"
     id="path4329"
     inkscape:connector-curvature="0" />
</svg>
