<?xml version="1.0" encoding="utf-8"?>
<!-- Generator: Adobe Illustrator 24.0.3, SVG Export Plug-In . SVG Version: 6.00 Build 0)  -->
<svg version="1.1" id="Layer_1" xmlns="http://www.w3.org/2000/svg" xmlns:xlink="http://www.w3.org/1999/xlink" x="0px" y="0px"
	 viewBox="0 0 128 128" style="enable-background:new 0 0 128 128;" xml:space="preserve">
<g id="hair_1_">
	<radialGradient id="SVGID_1_" cx="50" cy="56.8333" r="47.5" gradientUnits="userSpaceOnUse">
		<stop  offset="0" style="stop-color:#6D4C41"/>
		<stop  offset="1" style="stop-color:#543930"/>
	</radialGradient>
	<path style="fill:url(#SVGID_1_);" d="M85.92,74.79c6.49-5.08,8.3-17.25-1.04-25.59c-1.12-0.14-13.23,2.46-17.33,2.46
		c-3.89,0-11.82,0-17.46,0c-1.2,0-2.56,0-4,0c-4.47,0-9.71,0-13.46,0c-4.1,0-16.21-2.6-17.33-2.46c-9.34,8.34-7.53,20.51-1.04,25.59
		c2.81,2.2,4.77,5.01,3.22,7.92c-0.96,1.8-2.52,2.35-3.62,2.54c0.29,0.41,0.68,0.75,1.13,0.99c1.56,0.83,3.55,1.03,4.82,1.06
		c0.78,0.02,1.34,0.48,1.85,0.98c5.45,5.4,9.23,6.52,28.41,6.52c19.18,0,22.96-1.12,28.41-6.52c0.51-0.51,1.08-0.97,1.85-0.98
		c1.28-0.03,3.26-0.22,4.82-1.06c0.46-0.24,0.84-0.59,1.13-0.99c-1.1-0.2-2.66-0.75-3.62-2.54C81.15,79.8,83.11,76.99,85.92,74.79z"
		/>
	<path style="fill:#3F2720;" d="M84.22,82.06c-0.88-2.11,1.03-3.9,3.66-6.38c4.18-3.94,10.06-12.29,2.43-21.63
		c-2.77-3.38-3.48-3.11-4.84-7.14c-1.36-4.03-4.31-0.85-3.17,2s2.85,4.92,4.93,7.31c4.53,5.21,3.94,12.72-2.22,18.03
		c-2.06,1.78-5.78,4.97-3.62,9.02c0.5,0.94,1.2,1.71,2.06,2.27c-1.14,0.36-2.38,0.45-3.12,0.46c-1.51,0.03-2.48,1-2.9,1.41
		c-3.3,3.27-5.79,4.53-12.7,5.24c0,0-3.37,1.45-5.51,2.05v-0.03H40.86c-2.14-0.62-5.39-2.02-5.39-2.02
		c-6.91-0.71-9.4-1.96-12.7-5.24c-0.42-0.41-1.39-1.38-2.9-1.41c-0.74-0.02-1.98-0.1-3.12-0.46c0.86-0.56,1.56-1.32,2.06-2.27
		c2.16-4.05-1.56-7.25-3.62-9.02c-6.16-5.31-6.75-12.82-2.22-18.03c2.08-2.39,3.79-4.45,4.93-7.31s-1.8-6.03-3.17-2
		s-2.07,3.75-4.84,7.14c-7.63,9.34-1.75,17.68,2.43,21.63c2.63,2.48,4.54,4.28,3.66,6.38c-0.97,2.33-4.47,2.29-4.47,2.29
		s0.46,1.73,2.75,3.02c1.78,1,4.01,1.21,5.53,1.24c0.18,0,0.43,0.17,0.81,0.55c4.85,4.81,8.7,6.39,20.25,6.82v0.01h0.18
		c0.11,0,0.21,0.01,0.33,0.01v-0.01h17.47v0.01c0.11,0,0.21-0.01,0.33-0.01h0.06v0c11.65-0.42,15.51-1.99,20.37-6.82
		c0.38-0.38,0.63-0.55,0.81-0.55c1.53-0.03,3.75-0.23,5.53-1.24c2.29-1.29,2.75-3.02,2.75-3.02S85.19,84.39,84.22,82.06z"/>
</g>
<g id="suit">
	<g id="XMLID_89_">
		<linearGradient id="SVGID_2_" gradientUnits="userSpaceOnUse" x1="110.4913" y1="100.6807" x2="110.4913" y2="135.7217">
			<stop  offset="3.247793e-03" style="stop-color:#448AFF"/>
			<stop  offset="0.4042" style="stop-color:#3B7DFF"/>
			<stop  offset="1" style="stop-color:#2962FF"/>
		</linearGradient>
		<path style="fill:url(#SVGID_2_);" d="M115.48,123.98l-0.1-1.37c0-0.04,0-0.07,0-0.11c0-6.15-3.14-16.63-8.87-21.82l-1,23.3
			H115.48z"/>
		<g>
			<path style="fill:#4073D4;" d="M107,123.98l0.84-19.57c4.02,5.46,6.03,13.7,6.03,18.09c0,0.07,0,0.15,0.01,0.22l0.09,1.26h3.01
				l-0.11-1.48c0-6.76-3.88-20-11.75-24.71L104,123.98H107z"/>
		</g>
	</g>
	<g id="XMLID_84_">
		<linearGradient id="SVGID_3_" gradientUnits="userSpaceOnUse" x1="50" y1="97.2432" x2="50" y2="136.0596">
			<stop  offset="3.247793e-03" style="stop-color:#448AFF"/>
			<stop  offset="0.4042" style="stop-color:#3B7DFF"/>
			<stop  offset="1" style="stop-color:#2962FF"/>
		</linearGradient>
		<path style="fill:url(#SVGID_3_);" d="M94.5,123.98v-3.18c0-15.47-22.33-23.56-44.38-23.56H50c-11.96,0.01-22.91,2.05-30.82,5.73
			C10.1,107.2,5.5,113.2,5.5,120.8v3.18H94.5z"/>
		<g>
			<path style="fill:#4073D4;" d="M7,123.98v-3.18c0-6.97,4.31-12.51,12.81-16.46c7.72-3.59,18.44-5.58,30.19-5.59l0.11,0
				c11.32,0,22.3,2.17,30.13,5.95C86.07,107.5,93,112.57,93,120.8v3.18h3v-3.18c0-16.76-23.23-25.06-45.88-25.06
				c-0.04,0-0.08,0-0.12,0c-22.55,0.03-46,7.28-46,25.06v3.18H7z"/>
		</g>
	</g>
	<g>
		<g>
			<path style="fill:#9E9E9E;stroke:#757575;stroke-miterlimit:10;" d="M117.96,54.78l-11.11-0.32c-4.2-0.09-7.67,3.39-7.74,7.79
				l-0.64,36.36l3.8,0.09l0.64-36.36c0.04-2.19,1.78-3.94,3.87-3.89l11.11,0.32L117.96,54.78z"/>
			<path style="fill:#616161;stroke:#424242;stroke-width:0.9728;stroke-miterlimit:10;" d="M106.64,60.14l-1.49-0.02
				c-1.11-0.02-2-0.97-1.99-2.13l0.02-2.21c0.01-1.16,0.92-2.09,2.03-2.07l1.49,0.02c1.11,0.02,2,0.97,1.99,2.13l-0.02,2.21
				C108.66,59.23,107.75,60.15,106.64,60.14z"/>
			<path style="fill:#616161;stroke:#424242;stroke-width:0.9728;stroke-miterlimit:10;" d="M103.09,122.98l0.39-32.79
				c0.01-1.05-1.33-1.92-3-1.95s-3.03,0.81-3.04,1.86l-0.39,32.87H103.09z"/>
		</g>
		<g>
			<path style="fill:#424242;" d="M104.77,123.98l0.31-28.96c0.02-1.88-1.33-3.42-3.01-3.45l-3.26-0.04
				c-1.68-0.02-3.07,1.48-3.09,3.36l-0.31,29.08H104.77z"/>
			<path style="fill:#212121;" d="M95.9,123.98l0.31-29.08c0.01-0.84,0.33-1.63,0.9-2.18c0.47-0.46,1.1-0.71,1.7-0.7l3.26,0.04
				c1.42,0.02,2.55,1.34,2.54,2.96l-0.31,28.96h0.97l0.31-28.95c0.02-2.15-1.54-3.91-3.49-3.94l-3.26-0.04h-0.04
				c-0.87,0-1.7,0.35-2.34,0.98c-0.75,0.73-1.18,1.77-1.19,2.87l-0.31,29.09H95.9z"/>
		</g>
		<g>
			<g>
				<path style="fill:#40C4FF;" d="M112.5,61.5c-2.73,0-5.66-1.72-5.66-5.5c0-4.14,3.19-5.25,5.08-5.25c4.5,0,9.18,3.78,10.85,5.28
					C121.04,57.56,116.23,61.5,112.5,61.5z"/>
				<path style="fill:#2962FF;" d="M111.92,51.59c3.69,0,7.59,2.79,9.57,4.45c-2.28,1.91-6.14,4.62-8.99,4.62
					c-1.79,0-4.82-0.98-4.82-4.66C107.68,52.52,110.34,51.59,111.92,51.59 M111.92,49.92c-2.56,0-5.92,1.67-5.92,6.08
					s3.5,6.33,6.5,6.33c5,0,11.5-6.29,11.5-6.29S117.92,49.92,111.92,49.92L111.92,49.92z"/>
			</g>
		</g>
		<g>
			<path style="fill:#84FFFF;" d="M112.62,53.67c3.51,1.22,5.22,2.32,5.22,2.32s-1.12,1.21-4.74,2.01
				c-2.69,0.59-4.44-0.41-4.42-2.13C108.72,54.16,110.81,53.03,112.62,53.67z"/>
		</g>
	</g>
	<path style="fill:#FF7043;stroke:#E03B0E;stroke-width:2;stroke-linecap:round;stroke-linejoin:round;stroke-miterlimit:10;" d="
		M95.3,117.14l-1.32,2.29c0,0-6.26-1.36-5.59-4.65c0.16-0.78,1.56-2.44,1.56-2.44s-2.85-2.35-2.4-3.94
		c0.45-1.57,3.17-2.79,3.17-2.79s-2.11-1.26-1.28-3.63c0.57-1.62,3.53-2.16,3.53-2.16s-2.76-4.05,2.85-4.97
		c1.77-0.29,5.74,0.3,9.3,2.93c3.56,2.63,5.16,5.19,6.62,8.73c0.48,1.16,0.9,2.36,1.03,3.61c0.2,2.03-0.48,4.12-1.77,5.7
		c-1.24,1.5-2.42,3.28-4.35,3.95C105.27,120.26,95.3,117.14,95.3,117.14z"/>
</g>
<polygon id="shirt" style="fill:#F8F8F7;" points="52.38,123.98 59.33,104.56 39.44,104.56 47.32,123.98 "/>
<g id="neck">
	<path style="fill:#99674F;" d="M49.17,109.53c-4,0-7.26-3.22-7.26-7.17v-8.98h16.16v8.98c0,3.95-3.26,7.17-7.26,7.17H49.17z"/>
	<g>
		<path style="fill:#875740;" d="M57.08,94.37v7.98c0,3.4-2.81,6.17-6.26,6.17h-1.65c-3.45,0-6.26-2.77-6.26-6.17v-7.98H50H57.08
			 M59.08,92.37H50h-9.08v9.98c0,4.51,3.7,8.17,8.26,8.17h1.65c4.56,0,8.26-3.66,8.26-8.17V92.37L59.08,92.37z"/>
	</g>
</g>
<g id="collar">
	<g>
		<g>
			<linearGradient id="SVGID_4_" gradientUnits="userSpaceOnUse" x1="37.1613" y1="97.0615" x2="37.1613" y2="125.167">
				<stop  offset="0" style="stop-color:#1565C0"/>
				<stop  offset="0.6821" style="stop-color:#0D47A1"/>
				<stop  offset="1" style="stop-color:#0D47A1"/>
			</linearGradient>
			<path style="fill:url(#SVGID_4_);" d="M36,108.83c0.32,0,0.64,0.16,0.83,0.44l9.92,14.71h0.49l-7.08-26.92L33.8,97.8l-6.71,14.47
				l8.55-3.37C35.75,108.86,35.88,108.83,36,108.83z"/>
			<path style="fill:#004EA3;" d="M45.54,123.98h2.73l-7.37-28.02l-7.78,0.91l-8,17.25L36,109.83L45.54,123.98z M35.27,107.97
				l-6.22,2.46l5.42-11.7l4.94-0.58l5.67,21.57l-7.43-11.01c-0.38-0.56-1.01-0.88-1.66-0.88C35.75,107.83,35.51,107.88,35.27,107.97
				z"/>
		</g>
	</g>
	<g>
		<g>
			
				<linearGradient id="SVGID_5_" gradientUnits="userSpaceOnUse" x1="373.5874" y1="97.0615" x2="373.5874" y2="125.6299" gradientTransform="matrix(-1 0 0 1 436.4718 0)">
				<stop  offset="0" style="stop-color:#1565C0"/>
				<stop  offset="0.6821" style="stop-color:#0D47A1"/>
				<stop  offset="1" style="stop-color:#0D47A1"/>
			</linearGradient>
			<path style="fill:url(#SVGID_5_);" d="M53.57,123.98l10.45-14.57c0.19-0.27,0.5-0.42,0.81-0.42c0.13,0,0.25,0.02,0.38,0.07
				l7.74,3.16L66.26,97.8l-6.36-0.74l-7.08,26.92H53.57z"/>
			<path style="fill:#004EA3;" d="M54.8,123.98L64.83,110l10.1,4.12l-8-17.25l-7.78-0.91l-7.37,28.02H54.8z M60.64,98.16l4.94,0.58
				l5.39,11.62l-5.38-2.2c-0.25-0.1-0.5-0.15-0.76-0.15c-0.63,0-1.24,0.3-1.63,0.83l-8.48,11.82L60.64,98.16z"/>
		</g>
	</g>
</g>
<g id="face">
	<g id="ears">
		<path style="fill:#99674F;" d="M22.67,72.3c-5.36,0-9.71-4.67-9.71-10.41c0-5.74,4.36-10.41,9.71-10.41h54.65
			c5.36,0,9.71,4.67,9.71,10.41c0,5.74-4.36,10.41-9.71,10.41H22.67z"/>
		<g>
			<path style="fill:#875740;" d="M77.33,52.48c4.8,0,8.71,4.22,8.71,9.41s-3.91,9.41-8.71,9.41h-7.37H30.04h-7.37
				c-4.8,0-8.71-4.22-8.71-9.41s3.91-9.41,8.71-9.41h7.37h39.91H77.33 M77.33,50.48h-7.37H30.04h-7.37
				c-5.89,0-10.71,5.14-10.71,11.41c0,6.28,4.82,11.41,10.71,11.41h7.37h39.91h7.37c5.89,0,10.71-5.14,10.71-11.41
				C88.04,55.61,83.22,50.48,77.33,50.48L77.33,50.48z"/>
		</g>
	</g>
	<g id="head">
		<linearGradient id="SVGID_6_" gradientUnits="userSpaceOnUse" x1="50.0002" y1="12.7924" x2="50.0002" y2="94.5585">
			<stop  offset="0.5" style="stop-color:#BA8D68"/>
			<stop  offset="1" style="stop-color:#A47B62"/>
		</linearGradient>
		<path style="fill:url(#SVGID_6_);" d="M50,95.32c-15.66,0-32.52-12.14-32.52-38.81c0-12.38,3.56-23.79,10.02-32.13
			c6.05-7.8,14.25-12.27,22.5-12.27c8.25,0,16.45,4.47,22.5,12.27c6.46,8.34,10.02,19.75,10.02,32.13
			c0,12.09-3.51,22.19-10.14,29.21C66.52,91.91,58.57,95.32,50,95.32z"/>
		<g>
			<path style="fill:#91674D;" d="M50,13.11L50,13.11c7.94,0,15.85,4.33,21.71,11.88c6.33,8.16,9.81,19.35,9.81,31.52
				c0,11.83-3.41,21.7-9.87,28.52c-5.67,5.99-13.36,9.29-21.65,9.29c-8.29,0-15.98-3.3-21.65-9.29c-6.46-6.82-9.87-16.69-9.87-28.52
				c0-12.16,3.49-23.35,9.81-31.52C34.15,17.44,42.06,13.11,50,13.11 M50,11.11L50,11.11L50,11.11c-17.4,0-33.52,18.61-33.52,45.39
				c0,26.64,16.61,39.81,33.52,39.81s33.52-13.17,33.52-39.81C83.52,29.72,67.4,11.11,50,11.11L50,11.11z"/>
		</g>
	</g>
	<g id="eyebrows">
		<path style="fill:#613E31;" d="M41.42,49.82c-0.93-1.23-3.07-3.01-7.23-3.01s-6.31,1.79-7.23,3.01c-0.41,0.54-0.31,1.17-0.02,1.55
			c0.26,0.35,1.04,0.68,1.9,0.39c0.86-0.29,2.54-1.16,5.35-1.18c2.81,0.02,4.49,0.89,5.35,1.18c0.86,0.29,1.64-0.03,1.9-0.39
			C41.73,50.99,41.83,50.36,41.42,49.82z"/>
		<path style="fill:#613E31;" d="M72.57,49.82c-0.93-1.23-3.07-3.01-7.23-3.01s-6.31,1.79-7.23,3.01c-0.41,0.54-0.31,1.17-0.02,1.55
			c0.26,0.35,1.04,0.68,1.9,0.39c0.86-0.29,2.54-1.16,5.35-1.18c2.81,0.02,4.49,0.89,5.35,1.18c0.86,0.29,1.64-0.03,1.9-0.39
			C72.87,50.99,72.98,50.36,72.57,49.82z"/>
	</g>
	<g id="eyes">
		<ellipse style="fill:#49362E;" cx="34.19" cy="58.86" rx="4.93" ry="5.1"/>
		<ellipse style="fill:#49362E;" cx="65.33" cy="58.86" rx="4.93" ry="5.1"/>
	</g>
	<path id="nose" style="fill:#99674F;" d="M53.86,68.1c-0.11-0.04-0.21-0.07-0.32-0.08h-7.07c-0.11,0.01-0.22,0.04-0.32,0.08
		c-0.64,0.26-0.99,0.92-0.69,1.63c0.3,0.71,1.71,2.69,4.55,2.69c2.84,0,4.25-1.99,4.55-2.69C54.85,69.03,54.5,68.36,53.86,68.1z"/>
	<path id="mouth" style="fill:#5D4037;" d="M58.53,76.19c-3.19,1.89-13.63,1.89-16.81,0c-1.83-1.09-3.7,0.58-2.94,2.24
		c0.75,1.63,6.45,5.42,11.37,5.42s10.55-3.79,11.3-5.42C62.2,76.76,60.36,75.1,58.53,76.19z"/>
</g>
<g id="hair">
	
		<radialGradient id="SVGID_7_" cx="50.0245" cy="30.4613" r="34.0101" gradientTransform="matrix(1 0 0 0.8461 0 8.4774)" gradientUnits="userSpaceOnUse">
		<stop  offset="0" style="stop-color:#6D4C41"/>
		<stop  offset="1" style="stop-color:#543930"/>
	</radialGradient>
	<path style="fill:url(#SVGID_7_);" d="M38.25,11.86c-12.26,4.25-13.49-3.28-13.49-3.28c-6.66,3.25-2.28,10.23-2.28,10.23l-10,15.79
		l2.81,18.22c-0.62,10.52,2.77,15.62,2.77,15.62s4.22-20.92,3.82-23.68c0,0,8.26-0.96,17.06-5.89c5.95-3.34,9.51-4.94,16.2-6.41
		c10.18-2.24,12.45,4.97,12.45,4.97s9.42-1.77,12.26,11.04c1.17,5.27,1.67,14.07,2.31,19.43c-0.06-0.47,3.13-6.31,4.12-12.14
		c2.34-13.78-5.93-37.72-10.41-36.98c0.23-4.7-3.55-9.06-8.1-10.56C55.33,4.1,41.91,10.59,38.25,11.86z"/>
	<path style="fill:#3F2720;" d="M77.28,17.24c-0.79-4.62-5.84-8.54-10.73-10.05c-13.23-4.1-21.84,0.5-26.47,2.97
		c-0.96,0.51-6.24,3.76-10.8,0.83C27.37,9.75,26.88,6,26.88,6s-9.75,3.2-6.58,12.04c0,0-1.02,0-2.42,0.31v3.37
		c3.46-1.38,8.38-0.46,8.38-0.46s-4.94-5.08-1.18-10.09c0.55,0.99,1.47,2.1,2.88,2.94c2.85,1.69,5.83,1.69,10.77-0.03
		c0.79-0.28,1.68-0.75,2.8-1.35c4.53-2.42,12.11-6.47,24.12-2.75c4.34,1.35,8.92,5.06,8.74,8.71l-0.09,1.83l1.84-0.31
		c0.63-0.1,1.32-0.04,2.04,0.13l0.21-2.95C78.01,17.32,77.65,17.26,77.28,17.24z"/>
</g>
<g id="mask">
	<g>
		<path style="opacity:0.74;fill:#423F3E;" d="M78.7,21.68H21.3V6.34c0,0,7.49-2.28,28.78-2.28C63.23,4.06,78.7,6.5,78.7,6.5V21.68z
			"/>
	</g>
	<g>
		<linearGradient id="SVGID_8_" gradientUnits="userSpaceOnUse" x1="10" y1="28.9521" x2="10" y2="45.093">
			<stop  offset="0" style="stop-color:#BDBDBD"/>
			<stop  offset="1" style="stop-color:#757575"/>
		</linearGradient>
		<path style="fill:url(#SVGID_8_);" d="M8,43.06c-1.65,0-3-1.35-3-3v-8c0-1.65,1.35-3,3-3h4c1.65,0,3,1.35,3,3v8c0,1.65-1.35,3-3,3
			H8z"/>
		<g>
			<path style="fill:#807978;" d="M12,30.06c1.1,0,2,0.9,2,2v8c0,1.1-0.9,2-2,2H8c-1.1,0-2-0.9-2-2v-8c0-1.1,0.9-2,2-2H12 M12,28.06
				H8c-2.21,0-4,1.79-4,4v8c0,2.21,1.79,4,4,4h4c2.21,0,4-1.79,4-4v-8C16,29.85,14.21,28.06,12,28.06L12,28.06z"/>
		</g>
	</g>
	<g>
		<linearGradient id="SVGID_9_" gradientUnits="userSpaceOnUse" x1="90" y1="28.9521" x2="90" y2="45.093">
			<stop  offset="0" style="stop-color:#BDBDBD"/>
			<stop  offset="1" style="stop-color:#757575"/>
		</linearGradient>
		<path style="fill:url(#SVGID_9_);" d="M88,43.06c-1.65,0-3-1.35-3-3v-8c0-1.65,1.35-3,3-3h4c1.65,0,3,1.35,3,3v8
			c0,1.65-1.35,3-3,3H88z"/>
		<g>
			<path style="fill:#807978;" d="M92,30.06c1.1,0,2,0.9,2,2v8c0,1.1-0.9,2-2,2h-4c-1.1,0-2-0.9-2-2v-8c0-1.1,0.9-2,2-2H92
				 M92,28.06h-4c-2.21,0-4,1.79-4,4v8c0,2.21,1.79,4,4,4h4c2.21,0,4-1.79,4-4v-8C96,29.85,94.21,28.06,92,28.06L92,28.06z"/>
		</g>
	</g>
	<g>
		<g>
			<path style="fill:#807978;" d="M49.6,32.84c-13.33,0-31.05,6.41-39.1,10.97c0,0,0,5.77,0,9.88c7.55-6.43,22.78-11.47,39.1-11.47
				c16.5,0,29.01,6.27,39.82,11.62c0.05-2.14,0.36-10.2-0.69-12.75C80.68,36.43,63.09,32.84,49.6,32.84z"/>
		</g>
		<g>
			<g>
				<linearGradient id="SVGID_10_" gradientUnits="userSpaceOnUse" x1="50" y1="4.3949" x2="50" y2="51.5642">
					<stop  offset="0" style="stop-color:#BDBDBD"/>
					<stop  offset="1" style="stop-color:#757575"/>
				</linearGradient>
				<path style="fill:url(#SVGID_10_);" d="M89.96,31.59c-0.05-1.07-0.28-2.13-0.68-3.12l-7.8-19.35c-0.58-1.18-1.64-2.18-3.03-3.04
					c-0.2-0.13-0.47,0.04-0.47,0.29v9.07c0,0.97-0.77,1.75-1.73,1.75H23.76c-0.96,0-1.73-0.78-1.73-1.75l0-9.25
					c0-0.18-0.18-0.29-0.32-0.2c-1.46,0.88-2.57,1.91-3.17,3.13l-7.8,19.35c-0.4,0.99-0.63,2.05-0.68,3.12L6,56.2
					c0,0,0.02,0.15,0.08,0.38c0.15,0.62,0.57,1.86,1.67,2.48c0,0,11.21-19.36,40.58-21.58c1.11-0.08,2.23-0.08,3.34,0
					c29.37,2.22,40.58,21.58,40.58,21.58c1.1-0.62,1.52-1.86,1.67-2.48C93.98,56.35,94,56.2,94,56.2L89.96,31.59z"/>
			</g>
			<g>
				<g>
					<path style="fill:#807978;" d="M67.59,28.08L67.59,28.08c-0.55,0-1-0.34-1-0.76v-4.7c0-0.42,0.45-0.76,1-0.76h0
						c0.55,0,1,0.34,1,0.76v4.7C68.59,27.74,68.14,28.08,67.59,28.08z"/>
				</g>
				<g>
					<path style="fill:#807978;" d="M58.26,29.93L58.26,29.93c-0.55,0-1-0.34-1-0.76v-8.4c0-0.42,0.45-0.76,1-0.76h0
						c0.55,0,1,0.34,1,0.76v8.4C59.26,29.59,58.82,29.93,58.26,29.93z"/>
				</g>
				<g>
					<path style="fill:#807978;" d="M50,28.43L50,28.43c-0.55,0-1-0.34-1-0.76v-5.4c0-0.42,0.45-0.76,1-0.76h0c0.55,0,1,0.34,1,0.76
						v5.4C51,28.09,50.55,28.43,50,28.43z"/>
				</g>
				<g>
					<path style="fill:#807978;" d="M32.41,28.08L32.41,28.08c-0.55,0-1-0.34-1-0.76v-4.7c0-0.42,0.45-0.76,1-0.76l0,0
						c0.55,0,1,0.34,1,0.76v4.7C33.41,27.74,32.96,28.08,32.41,28.08z"/>
				</g>
				<g>
					<path style="fill:#807978;" d="M41.74,29.93L41.74,29.93c-0.55,0-1-0.34-1-0.76v-8.4c0-0.42,0.45-0.76,1-0.76h0
						c0.55,0,1,0.34,1,0.76v8.4C42.73,29.59,42.29,29.93,41.74,29.93z"/>
				</g>
			</g>
			<g>
				<path style="fill:#807978;" d="M22.02,6.16C22.02,6.16,22.02,6.16,22.02,6.16c-0.03-0.11-0.12-0.19-0.22-0.19
					c-0.03,0-0.07,0.01-0.1,0.03c-1.46,0.88-2.57,1.91-3.17,3.13l-7.8,19.35c-0.4,0.99-0.63,2.05-0.68,3.12L6,56.2
					c0,0,0.02,0.15,0.08,0.38c0.15,0.62,0.58,1.86,1.67,2.48c0,0,0.75-1.28,2.35-3.21c0.18-0.22-0.22-2.29-0.31-4.21L13,32.08
					c0.02-0.11,0.03-0.23,0.04-0.34c0.04-0.74,0.19-1.46,0.47-2.14l7.75-19.22c0.16-0.3,0.43-0.6,0.76-0.9V6.16z"/>
				<path style="fill:#807978;" d="M89.96,31.59c-0.05-1.07-0.28-2.13-0.68-3.12l-7.8-19.35c-0.58-1.18-1.64-2.18-3.03-3.04
					c-0.05-0.03-0.1-0.04-0.15-0.04c-0.08,0-0.24,0.03-0.3,0.09v3.44c0.28,0.27,0.61,0.54,0.75,0.8l7.75,19.22
					c0.28,0.68,0.43,1.41,0.47,2.14c0.01,0.12,0.02,0.23,0.04,0.34l3.21,19.57c-0.35-0.37-0.73-0.76-1.13-1.15v4.38
					c2.17,2.47,3.17,4.18,3.17,4.18c1.1-0.62,1.52-1.86,1.67-2.48C93.98,56.35,94,56.2,94,56.2L89.96,31.59z"/>
			</g>
			<linearGradient id="SVGID_11_" gradientUnits="userSpaceOnUse" x1="50" y1="33.3018" x2="50" y2="59.2425">
				<stop  offset="0" style="stop-color:#BDBDBD"/>
				<stop  offset="1" style="stop-color:#757575"/>
			</linearGradient>
			<path style="fill:url(#SVGID_11_);" d="M7.75,59.06c0,0,11.53-20.09,42.25-21.69c30.72,1.6,42.25,21.69,42.25,21.69
				c1.1-0.62,1.52-1.86,1.67-2.48c-2.9-5.7-12.64-17.79-36.45-22.74c-3.44-0.72-11.33-0.72-14.77,0
				C18.89,38.79,8.97,50.88,6.08,56.58C6.23,57.21,6.65,58.45,7.75,59.06z"/>
		</g>
	</g>
</g>
</svg>
