<?xml version="1.0" encoding="utf-8"?>
<!-- Generator: Adobe Illustrator 24.0.3, SVG Export Plug-In . SVG Version: 6.00 Build 0)  -->
<svg version="1.1" id="Layer_1" xmlns="http://www.w3.org/2000/svg" xmlns:xlink="http://www.w3.org/1999/xlink" x="0px" y="0px"
	 viewBox="0 0 128 128" style="enable-background:new 0 0 128 128;" xml:space="preserve">
<rect x="54.7" y="49" style="fill:#BDBDBD;" width="19" height="46.3"/>
<g style="opacity:0.2;">
	<path style="fill:#424242;" d="M70.1,52.6v39.2H58.2V52.6H70.1 M73.7,49h-19v46.3h19V49z"/>
</g>
<path style="fill:#BDBDBD;" d="M42.8,98.6c0-4.4,3.6-8,8-8h26.6c4.4,0,8,3.6,8,8c0,0.8-0.6,1.4-1.4,1.4H44.2
	C43.5,100,42.8,99.4,42.8,98.6z"/>
<g style="opacity:0.2;">
	<path style="fill:#424242;" d="M77.5,92.9c2.8,0,5.1,2,5.6,4.7H45.3c0.5-2.7,2.8-4.7,5.6-4.7H77.5 M77.5,90.6H50.9
		c-4.4,0-8,3.6-8,8c0,0.8,0.6,1.4,1.4,1.4h39.8c0.8,0,1.4-0.6,1.4-1.4C85.5,94.2,81.9,90.6,77.5,90.6z"/>
</g>
<linearGradient id="SVGID_1_" gradientUnits="userSpaceOnUse" x1="64.15" y1="721.917" x2="64.15" y2="794.4897" gradientTransform="matrix(1 0 0 1 0 -713.8898)">
	<stop  offset="4.065700e-03" style="stop-color:#EEEEEE"/>
	<stop  offset="1" style="stop-color:#BDBDBD"/>
</linearGradient>
<path style="fill:url(#SVGID_1_);" d="M112,81.1H16.3c-4.4,0-8-3.6-8-8V15.8c0-4.4,3.6-8,8-8H112c4.4,0,8,3.6,8,8v57.3
	C119.9,77.5,116.4,81.1,112,81.1z"/>
<g style="opacity:0.2;">
	<path style="fill:#424242;" d="M112,11.4c2.4,0,4.4,2,4.4,4.4v57.3c0,2.4-2,4.4-4.4,4.4H16.3c-2.4,0-4.4-2-4.4-4.4V15.8
		c0-2.4,2-4.4,4.4-4.4H112 M112,7.8H16.3c-4.4,0-8,3.6-8,8v57.3c0,4.4,3.6,8,8,8H112c4.4,0,8-3.6,8-8V15.8
		C119.9,11.4,116.4,7.8,112,7.8z"/>
</g>
<path style="fill:#757575;" d="M108.3,68.2H20c-1.6,0-3-1.3-3-3V19.5c0-1.6,1.3-3,3-3h88.3c1.7,0,3,1.3,3,3v45.8
	C111.3,66.9,110,68.2,108.3,68.2z"/>
<linearGradient id="SVGID_2_" gradientUnits="userSpaceOnUse" x1="64.2" y1="-27.5212" x2="64.2" y2="-14.2022" gradientTransform="matrix(1 0 0 -1 0 89.2328)">
	<stop  offset="0" style="stop-color:#9E9E9E"/>
	<stop  offset="1" style="stop-color:#E0E0E0"/>
</linearGradient>
<path style="fill:url(#SVGID_2_);" d="M97,103.3H31.3c-0.9,0-1.8,0.5-2.3,1.3l-7.1,12.1h84.6l-7.2-12.2
	C98.8,103.8,97.9,103.3,97,103.3z"/>
<g style="opacity:0.2;">
	<path style="fill:#424242;" d="M97,104.8c0.4,0,0.8,0.2,1,0.6l5.9,10H24.3l5.9-10c0.2-0.4,0.6-0.6,1-0.6H97 M97,103.3H31.3
		c-0.9,0-1.8,0.5-2.3,1.3l-7.1,12.1h84.6l-7.2-12.2C98.8,103.8,97.9,103.3,97,103.3z"/>
</g>
<g>
	<polygon style="fill:#F5F5F5;" points="37.9,107.7 33.4,107.7 34,106.6 38.5,106.6 	"/>
	<polygon style="fill:#F5F5F5;" points="45,107.7 40.5,107.7 41,106.6 45.7,106.6 	"/>
	<polygon style="fill:#F5F5F5;" points="51.8,107.7 47.2,107.7 47.9,106.6 52.4,106.6 	"/>
	<polygon style="fill:#F5F5F5;" points="58.5,107.7 54,107.7 54.7,106.6 59,106.6 	"/>
	<polygon style="fill:#F5F5F5;" points="65.2,107.7 60.6,107.7 61,106.6 64.8,106.6 	"/>
	<polygon style="fill:#F5F5F5;" points="71.9,107.7 67.4,107.7 66.9,106.6 71.2,106.6 	"/>
	<polygon style="fill:#F5F5F5;" points="78.9,107.7 74.3,107.7 73.5,106.6 78,106.6 	"/>
	<polygon style="fill:#F5F5F5;" points="85.6,107.7 81,107.7 80.2,106.6 84.8,106.6 	"/>
	<polygon style="fill:#F5F5F5;" points="94.7,107.7 87.8,107.7 87,106.6 94,106.6 	"/>
	<polygon style="fill:#F5F5F5;" points="91.2,109.5 95.7,109.5 94.9,108.3 90.3,108.3 	"/>
	<polygon style="fill:#F5F5F5;" points="83.8,109.5 88.3,109.5 87.4,108.3 82.9,108.3 	"/>
	<polygon style="fill:#F5F5F5;" points="77,109.5 81.5,109.5 80.8,108.3 76.2,108.3 	"/>
	<polygon style="fill:#F5F5F5;" points="69.7,109.5 74.2,109.5 73.4,108.3 69.1,108.3 	"/>
	<polygon style="fill:#F5F5F5;" points="63.2,109.5 67.7,109.5 67.2,108.3 63.4,108.3 	"/>
	<polygon style="fill:#F5F5F5;" points="56.7,109.5 61.2,109.5 61.5,108.3 57.1,108.3 	"/>
	<polygon style="fill:#F5F5F5;" points="49.6,109.5 54.1,109.5 54.7,108.3 50.3,108.3 	"/>
	<polygon style="fill:#F5F5F5;" points="41.6,109.5 46.2,109.5 46.9,108.3 42.3,108.3 	"/>
	<polygon style="fill:#F5F5F5;" points="32.4,109.5 39.2,109.5 39.9,108.3 33,108.3 	"/>
	<polygon style="fill:#F5F5F5;" points="75.4,111.3 80,111.3 79.2,110.1 74.6,110.1 	"/>
	<polygon style="fill:#F5F5F5;" points="68.2,111.3 72.7,111.3 72.1,110.1 67.8,110.1 	"/>
	<polygon style="fill:#F5F5F5;" points="59.6,111.3 64.2,111.3 64.1,110.1 60,110.1 	"/>
	<polygon style="fill:#F5F5F5;" points="51.5,111.3 56.1,111.3 56.5,110.1 52.1,110.1 	"/>
	<polygon style="fill:#F5F5F5;" points="43,111.3 47.5,111.3 48.2,110.1 43.7,110.1 	"/>
	<polygon style="fill:#F5F5F5;" points="31.5,111.3 40.6,111.3 41.3,110.1 32.2,110.1 	"/>
	<polygon style="fill:#F5F5F5;" points="83.1,111.3 96.7,111.3 95.9,110.1 82.3,110.1 	"/>
	<polygon style="fill:#F5F5F5;" points="93.4,113.1 98,113.1 97.1,111.9 92.5,111.9 	"/>
	<polygon style="fill:#F5F5F5;" points="85,113.1 89.5,113.1 88.6,111.9 84.1,111.9 	"/>
	<polygon style="fill:#F5F5F5;" points="48.7,113.1 79.6,113.1 78.9,111.9 49.4,111.9 	"/>
	<polygon style="fill:#F5F5F5;" points="39,113.1 43.6,113.1 44.1,111.9 39.7,111.9 	"/>
	<polygon style="fill:#F5F5F5;" points="30.4,113.1 34.9,113.1 35.4,111.9 31,111.9 	"/>
</g>
<path style="fill:#9E9E9E;" d="M105,119.6H23.4c-0.8,0-1.5-0.7-1.5-1.5v-1.3h84.6v1.3C106.5,118.9,105.8,119.6,105,119.6z"/>
<g style="opacity:0.2;">
	<path style="fill:#424242;" d="M105.8,117.5v0.6c0,0.4-0.4,0.8-0.8,0.8H23.4c-0.4,0-0.8-0.4-0.8-0.8v-0.6H105.8 M106.5,116.8H21.9
		v1.3c0,0.8,0.7,1.5,1.5,1.5H105c0.8,0,1.5-0.7,1.5-1.5V116.8L106.5,116.8z"/>
</g>
</svg>
