<svg xmlns="http://www.w3.org/2000/svg" height="128" width="128"><defs><linearGradient id="a"><stop offset="0"/><stop offset="1" stop-opacity="0"/></linearGradient></defs><g transform="rotate(45 71.74 49.394) scale(1.32465)" fill="none" stroke-linecap="round" stroke-linejoin="round"><path d="M66.305 86.953a8.407 8.407 0 0 1-16.813 0c-3.27-24.385-2.877-48.362-.857-71.526a9.264 9.264 0 0 1 18.527 0c2.562 24.249 1.87 47.684-.857 71.526z" stroke="#a7a7a7" stroke-width="2" paint-order="stroke fill markers"/><circle r="8.407" cy="86.953" cx="57.898" stroke="#838383" stroke-width="2" paint-order="stroke fill markers"/><path d="M51.22 23.47c-1.794-2.881-2.484-4.86-2.585-8.043-.164-5.114 4.147-9.264 9.263-9.264s8.328 3.825 8.689 8.928c.228 3.226.352 8.596.527 12.833" stroke="#6c6c6c" stroke-width="6" paint-order="stroke fill markers"/></g></svg>