<svg width="128" height="128" style="enable-background:new 0 0 128 128;" xmlns="http://www.w3.org/2000/svg" xmlns:xlink="http://www.w3.org/1999/xlink">
  <path d="M108.91,99.71H62.6l48.33-79.77c0.44-0.73,0.46-1.64,0.04-2.39c-0.42-0.74-1.21-1.2-2.06-1.2H81.06 c-0.25,0-0.49,0.05-0.71,0.13H19.09c-1.24,0-2.24,1-2.24,2.24v16.72c0,1.24,1.01,2.24,2.24,2.24h47.43l-49.44,79.75 c-0.45,0.73-0.47,1.65-0.06,2.4c0.42,0.75,1.21,1.21,2.07,1.21h29.25c0.25,0,0.49-0.05,0.72-0.12h59.84c1.23,0,2.24-1,2.24-2.24 v-16.72C111.15,100.71,110.14,99.71,108.91,99.71z" style="fill:#40C0E7;"/>
</svg>