<svg enable-background="new 0 0 128 128" viewBox="0 0 128 128" xmlns="http://www.w3.org/2000/svg" xmlns:xlink="http://www.w3.org/1999/xlink"><defs><rect id="m" x="4" y="4" width="120" height="120"/></defs><clipPath id="i"><use xlink:href="#m"/></clipPath><g clip-path="url(#i)"><radialGradient id="g" cx="-7.0617" cy="-17.704" r="75.678" gradientTransform="matrix(.826 0 0 .826 70.162 2.7975)" gradientUnits="userSpaceOnUse"><stop stop-color="#6D4C41" offset="0"/><stop stop-color="#543930" offset="1"/></radialGradient><path d="m41.95 154.76c-0.03 0-9.07-0.46-13.63-6.79-12.33-17.13-14.92-60.47-14.92-93.81 0-2.18 0.34-21.5 13.98-35.16 8.85-8.87 21.42-13.37 37.36-13.37 15.82 0 28.18 4.43 36.75 13.18 12.88 13.14 13.17 31.67 13.1 35.25v0.11c0 33.34-2.59 76.68-14.92 93.81-4.44 6.17-13.13 6.76-13.67 6.79l-22-0.03-22.05 0.02z" fill="url(#g)"/><path d="m64.74 7.12c15.4 0 27.4 4.28 35.68 12.73 12.72 12.98 12.71 32.04 12.67 34.17v0.14c0 46.82-5.2 79.82-14.64 92.93-3.96 5.5-11.84 6.13-12.49 6.17l-21.97-0.03-21.96 0.03c-0.64-0.04-8.55-0.69-12.49-6.17-9.44-13.11-14.64-46.11-14.64-92.96 0-0.84 0.11-20.61 13.54-34.08 8.57-8.58 20.78-12.93 36.3-12.93m0-3c-53.26 0-52.84 49.25-52.84 50.03 0 31.9 2.44 76.96 15.2 94.68 5.06 7.03 14.85 7.42 14.85 7.42l22.05-0.02 22.04 0.03s9.79-0.39 14.85-7.42c12.77-17.73 15.2-62.79 15.2-94.68 0-0.79 1.91-50.04-51.35-50.04z" fill="#3F2720"/><linearGradient id="f" x1="64" x2="64" y1="121.58" y2="22.194" gradientUnits="userSpaceOnUse"><stop stop-color="#FFB300" offset="0"/><stop stop-color="#FFB809" offset=".102"/><stop stop-color="#FFC21A" offset=".3707"/><stop stop-color="#FFC825" offset=".6592"/><stop stop-color="#FFCA28" offset="1"/></linearGradient><path d="m64 122.3c-2.96 0-6.34-0.64-9.76-1.85-14.66-5.19-31.77-21.13-31.77-49.01 0-15.98 4.4-29.16 12.74-38.11 7.34-7.89 17.56-12.23 28.79-12.23s21.45 4.34 28.79 12.23c8.33 8.95 12.74 22.13 12.74 38.11 0 27.92-17.15 43.87-31.83 49.04-3.4 1.19-6.75 1.82-9.7 1.82z" fill="url(#f)"/><path d="m64 22.6c10.81 0 20.64 4.17 27.7 11.75 8.07 8.67 12.33 21.49 12.33 37.09 0 12.16-3.49 23.23-10.09 32.03-5.45 7.26-12.81 12.8-20.74 15.59-3.24 1.14-6.42 1.74-9.2 1.74-2.79 0-6-0.61-9.26-1.76-14.2-5.02-30.77-20.5-30.77-47.6 0-15.6 4.26-28.42 12.33-37.09 7.06-7.58 16.89-11.75 27.7-11.75m0-3c-22.34 0-43.03 16.61-43.03 51.84 0 28.29 17.52 45.03 32.77 50.43 3.64 1.29 7.15 1.94 10.26 1.94 3.09 0 6.58-0.64 10.2-1.91 15.27-5.37 32.83-22.12 32.83-50.45 0-35.24-20.69-51.85-43.03-51.85z" fill="#ED9E00"/><defs><path id="c" d="m20.37 114.16-1.95-66.81c0-22.02 20.49-38.77 42.51-38.77h6.4c22.02 0 42.26 16.75 42.26 38.77l-1.95 66.47-87.27 0.34z"/></defs><clipPath id="b"><use xlink:href="#c"/></clipPath><g clip-path="url(#b)"><radialGradient id="a" cx="-10.15" cy="-5.5406" r="62.611" gradientTransform="matrix(.796 0 0 .796 72.08 2.6315)" gradientUnits="userSpaceOnUse"><stop stop-color="#6D4C41" offset="0"/><stop stop-color="#543930" offset="1"/></radialGradient><path d="m113.21 54.16s1.32-46.2-49.11-46.2-49.31 46.2-49.31 46.2 0.43 59.07 4.16 66.75 9.35 7.42 9.35 7.42-2.63-34.47-2.94-50.7c-0.07-3.79-1.22-17.83 6.7-19.6 29.04-6.53 45.47-21.93 45.47-21.93 4.27 9.33 17.63 18.43 22.43 21.89 3.94 2.84 3.39 14.54 3.31 19.52l-3.96 50.73s6.08 0.49 9.93-7.33 3.97-66.75 3.97-66.75z" fill="url(#a)"/></g><path d="m68.95 87.16c-0.14-0.06-0.27-0.09-0.41-0.11h-9.08c-0.14 0.02-0.28 0.05-0.41 0.11-0.82 0.33-1.28 1.19-0.89 2.09 0.39 0.91 2.2 3.46 5.84 3.46s5.45-2.55 5.84-3.46-0.07-1.76-0.89-2.09z" fill="#E59600"/><ellipse cx="42.9" cy="75.23" rx="6.32" ry="6.55" fill="#404040"/><ellipse cx="85.1" cy="75.23" rx="6.32" ry="6.55" fill="#404040"/><path d="m52.29 63.47c-1.2-1.59-3.99-3.91-9.39-3.91s-8.19 2.32-9.39 3.91c-0.53 0.71-0.4 1.52-0.03 2.01 0.34 0.46 1.35 0.88 2.47 0.5s3.3-1.51 6.95-1.53c3.65 0.03 5.84 1.15 6.95 1.53 1.12 0.38 2.13-0.04 2.47-0.5 0.37-0.49 0.5-1.3-0.03-2.01z" fill="#6D4C41"/><path d="m94.5 63.47c-1.2-1.59-3.99-3.91-9.39-3.91s-8.19 2.32-9.39 3.91c-0.53 0.71-0.4 1.52-0.03 2.01 0.34 0.46 1.35 0.88 2.47 0.5s3.3-1.51 6.95-1.53c3.65 0.03 5.84 1.15 6.95 1.53 1.12 0.38 2.13-0.04 2.47-0.5 0.36-0.49 0.5-1.3-0.03-2.01z" fill="#6D4C41"/><path d="m74.8 97.66c-4.09 2.43-17.49 2.43-21.58 0-2.35-1.4-4.75 0.74-3.77 2.87 0.96 2.1 8.27 6.96 14.59 6.96s13.54-4.86 14.5-6.96c0.98-2.14-1.39-4.27-3.74-2.87z" fill="#795548"/></g><g display="none"><g display="inline"><g opacity=".6"><circle cx="64" cy="-78" r="28" fill="none" opacity=".61" stroke="#000" stroke-miterlimit="10" stroke-width=".2625"/><line x1="84" x2="84" y1="-142" y2="-14" fill="none" opacity=".61" stroke="#000" stroke-miterlimit="10" stroke-width=".25"/><line x1="44" x2="44" y1="-142" y2="-14" fill="none" opacity=".61" stroke="#000" stroke-miterlimit="10" stroke-width=".25"/><line x1="64" x2="64" y1="-142" y2="-14" fill="none" opacity=".61" stroke="#000" stroke-miterlimit="10" stroke-width=".25"/><line x1="128" y1="-78" y2="-78" fill="none" opacity=".61" stroke="#000" stroke-miterlimit="10" stroke-width=".25"/><line x1="128" y1="-98" y2="-98" fill="none" opacity=".61" stroke="#000" stroke-miterlimit="10" stroke-width=".25"/><line x1="128" y1="-58.25" y2="-58.25" fill="none" opacity=".61" stroke="#000" stroke-miterlimit="10" stroke-width=".25"/><line x1="128" y1="-14" y2="-142" fill="none" opacity=".61" stroke="#000" stroke-miterlimit="10" stroke-width=".25"/><line x2="128" y1="-14" y2="-142" fill="none" opacity=".61" stroke="#000" stroke-miterlimit="10" stroke-width=".25"/><g opacity=".61"><path d="m64-137.74c32.94 0 59.74 26.8 59.74 59.74s-26.8 59.74-59.74 59.74-59.74-26.8-59.74-59.74 26.8-59.74 59.74-59.74m0-0.26c-33.14 0-60 26.86-60 60s26.86 60 60 60 60-26.86 60-60-26.86-60-60-60z"/></g><path d="m107.97-26.03h-87.94c-4.42 0-8.03-3.61-8.03-8.03v-87.91c0-4.42 3.61-8.03 8.03-8.03h87.94c4.42 0 8.03 3.61 8.03 8.03v87.91c0 4.42-3.61 8.03-8.03 8.03z" fill="none" opacity=".61" stroke="#000" stroke-miterlimit="10" stroke-width=".2578"/><path d="m100-18h-72c-4.4 0-8-3.6-8-8v-104c0-4.4 3.6-8 8-8h72c4.4 0 8 3.6 8 8v104c0 4.4-3.6 8-8 8z" fill="none" opacity=".61" stroke="#000" stroke-miterlimit="10" stroke-width=".2628"/><path d="M113.77-34H14.23 C8.6-34,4-38.6,4-44.23v-67.48c0-5.63,4.6-10.23,10.23-10.23h99.54c5.63,0,10.23,4.6,10.23,10.23v67.48 C124-38.6,119.4-34,113.77-34z" fill="none" opacity=".61" stroke="#000" stroke-miterlimit="10" stroke-width=".2627"/></g><g opacity=".2"><defs><rect id="l" y="-142" width="128" height="128" opacity=".2"/></defs><clipPath id="s"><use xlink:href="#l"/></clipPath><g clip-path="url(#s)"><g fill="none" stroke="#000" stroke-miterlimit="10" stroke-width=".25"><line x1="-28" x2="-28" y1="18" y2="-174"/><line x1="-24" x2="-24" y1="18" y2="-174"/><line x1="-20" x2="-20" y1="18" y2="-174"/><line x1="-16" x2="-16" y1="18" y2="-174"/><line x1="-12" x2="-12" y1="18" y2="-174"/><line x1="-8" x2="-8" y1="18" y2="-174"/><line x1="-4" x2="-4" y1="18" y2="-174"/><line y1="18" y2="-174"/><line x1="4" x2="4" y1="18" y2="-174"/><line x1="8" x2="8" y1="18" y2="-174"/><line x1="12" x2="12" y1="18" y2="-174"/><line x1="16" x2="16" y1="18" y2="-174"/><line x1="20" x2="20" y1="18" y2="-174"/><line x1="24" x2="24" y1="18" y2="-174"/><line x1="28" x2="28" y1="18" y2="-174"/><line x1="32" x2="32" y1="18" y2="-174"/><line x1="36" x2="36" y1="18" y2="-174"/><line x1="40" x2="40" y1="18" y2="-174"/><line x1="44" x2="44" y1="18" y2="-174"/><line x1="48" x2="48" y1="18" y2="-174"/><line x1="52" x2="52" y1="18" y2="-174"/><line x1="56" x2="56" y1="18" y2="-174"/><line x1="60" x2="60" y1="18" y2="-174"/><line x1="64" x2="64" y1="18" y2="-174"/><line x1="68" x2="68" y1="18" y2="-174"/><line x1="72" x2="72" y1="18" y2="-174"/><line x1="76" x2="76" y1="18" y2="-174"/><line x1="80" x2="80" y1="18" y2="-174"/><line x1="84" x2="84" y1="18" y2="-174"/><line x1="88" x2="88" y1="18" y2="-174"/><line x1="92" x2="92" y1="18" y2="-174"/><line x1="96" x2="96" y1="18" y2="-174"/><line x1="100" x2="100" y1="18" y2="-174"/><line x1="104" x2="104" y1="18" y2="-174"/><line x1="108" x2="108" y1="18" y2="-174"/><line x1="112" x2="112" y1="18" y2="-174"/><line x1="116" x2="116" y1="18" y2="-174"/><line x1="120" x2="120" y1="18" y2="-174"/><line x1="124" x2="124" y1="18" y2="-174"/><line x1="128" x2="128" y1="18" y2="-174"/><line x1="132" x2="132" y1="18" y2="-174"/><line x1="136" x2="136" y1="18" y2="-174"/><line x1="137" x2="137" y1="24.05" y2="-167.95"/><line x1="144" x2="144" y1="18" y2="-174"/><line x1="148" x2="148" y1="18" y2="-174"/><line x1="152" x2="152" y1="18" y2="-174"/><line x1="156" x2="156" y1="18" y2="-174"/></g><g fill="none" stroke="#000" stroke-miterlimit="10" stroke-width=".25"><line x1="-32" x2="160" y1="-170" y2="-170"/><line x1="-32" x2="160" y1="-166" y2="-166"/><line x1="-32" x2="160" y1="-162" y2="-162"/><line x1="-32" x2="160" y1="-158" y2="-158"/><line x1="-32" x2="160" y1="-154" y2="-154"/><line x1="-32" x2="160" y1="-150" y2="-150"/><line x1="-32" x2="160" y1="-146" y2="-146"/><line x1="-32" x2="160" y1="-142" y2="-142"/><line x1="-32" x2="160" y1="-138" y2="-138"/><line x1="-32" x2="160" y1="-134" y2="-134"/><line x1="-32" x2="160" y1="-130" y2="-130"/><line x1="-32" x2="160" y1="-126" y2="-126"/><line x1="-32" x2="160" y1="-122" y2="-122"/><line x1="-32" x2="160" y1="-118" y2="-118"/><line x1="-32" x2="160" y1="-114" y2="-114"/><line x1="-32" x2="160" y1="-110" y2="-110"/><line x1="-32" x2="160" y1="-106" y2="-106"/><line x1="-32" x2="160" y1="-102" y2="-102"/><line x1="-32" x2="160" y1="-98" y2="-98"/><line x1="-32" x2="160" y1="-94" y2="-94"/><line x1="-32" x2="160" y1="-90" y2="-90"/><line x1="-32" x2="160" y1="-86" y2="-86"/><line x1="-32" x2="160" y1="-82" y2="-82"/><line x1="-32" x2="160" y1="-78" y2="-78"/><line x1="-32" x2="160" y1="-74" y2="-74"/><line x1="-32" x2="160" y1="-70" y2="-70"/><line x1="-32" x2="160" y1="-66" y2="-66"/><line x1="-32" x2="160" y1="-62" y2="-62"/><line x1="-32" x2="160" y1="-58" y2="-58"/><line x1="-32" x2="160" y1="-54" y2="-54"/><line x1="-32" x2="160" y1="-50" y2="-50"/><line x1="-32" x2="160" y1="-46" y2="-46"/><line x1="-32" x2="160" y1="-42" y2="-42"/><line x1="-32" x2="160" y1="-38" y2="-38"/><line x1="-32" x2="160" y1="-34" y2="-34"/><line x1="-32" x2="160" y1="-30" y2="-30"/><line x1="-32" x2="160" y1="-26" y2="-26"/><line x1="-32" x2="160" y1="-22" y2="-22"/><line x1="-32" x2="160" y1="-18" y2="-18"/><line x1="-32" x2="160" y1="-14" y2="-14"/><line x1="-32" x2="160" y1="-10" y2="-10"/><line x1="-32" x2="160" y1="-6" y2="-6"/><line x1="-32" x2="160" y1="-2" y2="-2"/><line x1="-32" x2="160" y1="2" y2="2"/><line x1="-32" x2="160" y1="6" y2="6"/><line x1="-32" x2="160" y1="10" y2="10"/><line x1="-32" x2="160" y1="14" y2="14"/></g><path d="m159.75-173.75v191.5h-191.5v-191.5h191.5m0.25-0.25h-192v192h192v-192z"/></g></g><g fill="#F44336"><rect y="-142" width="4" height="128" opacity=".3"/><rect x="124" y="-142" width="4" height="128" opacity=".3"/><rect transform="matrix(-1.837e-16 1 -1 -1.837e-16 -76 -204)" x="62" y="-200" width="4" height="120" opacity=".3"/><rect transform="matrix(-1.837e-16 1 -1 -1.837e-16 48 -80)" x="62" y="-76" width="4" height="120" opacity=".3"/></g></g><g display="inline"><g opacity=".6"><circle cx="203" cy="-78" r="28" fill="none" opacity=".61" stroke="#000" stroke-miterlimit="10" stroke-width=".2625"/><line x1="223" x2="223" y1="-142" y2="-14" fill="none" opacity=".61" stroke="#000" stroke-miterlimit="10" stroke-width=".25"/><line x1="183" x2="183" y1="-142" y2="-14" fill="none" opacity=".61" stroke="#000" stroke-miterlimit="10" stroke-width=".25"/><line x1="203" x2="203" y1="-142" y2="-14" fill="none" opacity=".61" stroke="#000" stroke-miterlimit="10" stroke-width=".25"/><line x1="267" x2="139" y1="-78" y2="-78" fill="none" opacity=".61" stroke="#000" stroke-miterlimit="10" stroke-width=".25"/><line x1="267" x2="139" y1="-98" y2="-98" fill="none" opacity=".61" stroke="#000" stroke-miterlimit="10" stroke-width=".25"/><line x1="267" x2="139" y1="-58.25" y2="-58.25" fill="none" opacity=".61" stroke="#000" stroke-miterlimit="10" stroke-width=".25"/><line x1="267" x2="139" y1="-14" y2="-142" fill="none" opacity=".61" stroke="#000" stroke-miterlimit="10" stroke-width=".25"/><line x1="139" x2="267" y1="-14" y2="-142" fill="none" opacity=".61" stroke="#000" stroke-miterlimit="10" stroke-width=".25"/><g opacity=".61"><path d="m203-137.74c32.94 0 59.74 26.8 59.74 59.74s-26.8 59.74-59.74 59.74-59.74-26.8-59.74-59.74 26.8-59.74 59.74-59.74m0-0.26c-33.14 0-60 26.86-60 60s26.86 60 60 60 60-26.86 60-60-26.86-60-60-60z"/></g><path d="m246.97-26.03h-87.94c-4.42 0-8.03-3.61-8.03-8.03v-87.91c0-4.42 3.61-8.03 8.03-8.03h87.94c4.42 0 8.03 3.61 8.03 8.03v87.91c0 4.42-3.61 8.03-8.03 8.03z" fill="none" opacity=".61" stroke="#000" stroke-miterlimit="10" stroke-width=".2578"/><path d="m239-18h-72c-4.4 0-8-3.6-8-8v-104c0-4.4 3.6-8 8-8h72c4.4 0 8 3.6 8 8v104c0 4.4-3.6 8-8 8z" fill="none" opacity=".61" stroke="#000" stroke-miterlimit="10" stroke-width=".2628"/><path d="M252.77-34h-99.54 C147.6-34,143-38.6,143-44.23v-67.48c0-5.63,4.6-10.23,10.23-10.23h99.54c5.63,0,10.23,4.6,10.23,10.23v67.48 C263-38.6,258.4-34,252.77-34z" fill="none" opacity=".61" stroke="#000" stroke-miterlimit="10" stroke-width=".2627"/></g><g opacity=".2"><defs><rect id="k" x="139" y="-142" width="128" height="128" opacity=".2"/></defs><clipPath id="r"><use xlink:href="#k"/></clipPath><g clip-path="url(#r)"><g fill="none" stroke="#000" stroke-miterlimit="10" stroke-width=".25"><line x1="111" x2="111" y1="18" y2="-174"/><line x1="115" x2="115" y1="18" y2="-174"/><line x1="119" x2="119" y1="18" y2="-174"/><line x1="123" x2="123" y1="18" y2="-174"/><line x1="127" x2="127" y1="18" y2="-174"/><line x1="131" x2="131" y1="18" y2="-174"/><line x1="135" x2="135" y1="18" y2="-174"/><line x1="139" x2="139" y1="18" y2="-174"/><line x1="143" x2="143" y1="18" y2="-174"/><line x1="147" x2="147" y1="18" y2="-174"/><line x1="151" x2="151" y1="18" y2="-174"/><line x1="155" x2="155" y1="18" y2="-174"/><line x1="159" x2="159" y1="18" y2="-174"/><line x1="163" x2="163" y1="18" y2="-174"/><line x1="167" x2="167" y1="18" y2="-174"/><line x1="171" x2="171" y1="18" y2="-174"/><line x1="175" x2="175" y1="18" y2="-174"/><line x1="179" x2="179" y1="18" y2="-174"/><line x1="183" x2="183" y1="18" y2="-174"/><line x1="187" x2="187" y1="18" y2="-174"/><line x1="191" x2="191" y1="18" y2="-174"/><line x1="195" x2="195" y1="18" y2="-174"/><line x1="199" x2="199" y1="18" y2="-174"/><line x1="203" x2="203" y1="18" y2="-174"/><line x1="207" x2="207" y1="18" y2="-174"/><line x1="211" x2="211" y1="18" y2="-174"/><line x1="215" x2="215" y1="18" y2="-174"/><line x1="219" x2="219" y1="18" y2="-174"/><line x1="223" x2="223" y1="18" y2="-174"/><line x1="227" x2="227" y1="18" y2="-174"/><line x1="231" x2="231" y1="18" y2="-174"/><line x1="235" x2="235" y1="18" y2="-174"/><line x1="239" x2="239" y1="18" y2="-174"/><line x1="243" x2="243" y1="18" y2="-174"/><line x1="247" x2="247" y1="18" y2="-174"/><line x1="251" x2="251" y1="18" y2="-174"/><line x1="255" x2="255" y1="18" y2="-174"/><line x1="259" x2="259" y1="18" y2="-174"/><line x1="263" x2="263" y1="18" y2="-174"/><line x1="267" x2="267" y1="18" y2="-174"/><line x1="271" x2="271" y1="18" y2="-174"/><line x1="275" x2="275" y1="18" y2="-174"/><line x1="276" x2="276" y1="24.05" y2="-167.95"/><line x1="283" x2="283" y1="18" y2="-174"/><line x1="287" x2="287" y1="18" y2="-174"/><line x1="291" x2="291" y1="18" y2="-174"/><line x1="295" x2="295" y1="18" y2="-174"/></g><g fill="none" stroke="#000" stroke-miterlimit="10" stroke-width=".25"><line x1="107" x2="299" y1="-170" y2="-170"/><line x1="107" x2="299" y1="-166" y2="-166"/><line x1="107" x2="299" y1="-162" y2="-162"/><line x1="107" x2="299" y1="-158" y2="-158"/><line x1="107" x2="299" y1="-154" y2="-154"/><line x1="107" x2="299" y1="-150" y2="-150"/><line x1="107" x2="299" y1="-146" y2="-146"/><line x1="107" x2="299" y1="-142" y2="-142"/><line x1="107" x2="299" y1="-138" y2="-138"/><line x1="107" x2="299" y1="-134" y2="-134"/><line x1="107" x2="299" y1="-130" y2="-130"/><line x1="107" x2="299" y1="-126" y2="-126"/><line x1="107" x2="299" y1="-122" y2="-122"/><line x1="107" x2="299" y1="-118" y2="-118"/><line x1="107" x2="299" y1="-114" y2="-114"/><line x1="107" x2="299" y1="-110" y2="-110"/><line x1="107" x2="299" y1="-106" y2="-106"/><line x1="107" x2="299" y1="-102" y2="-102"/><line x1="107" x2="299" y1="-98" y2="-98"/><line x1="107" x2="299" y1="-94" y2="-94"/><line x1="107" x2="299" y1="-90" y2="-90"/><line x1="107" x2="299" y1="-86" y2="-86"/><line x1="107" x2="299" y1="-82" y2="-82"/><line x1="107" x2="299" y1="-78" y2="-78"/><line x1="107" x2="299" y1="-74" y2="-74"/><line x1="107" x2="299" y1="-70" y2="-70"/><line x1="107" x2="299" y1="-66" y2="-66"/><line x1="107" x2="299" y1="-62" y2="-62"/><line x1="107" x2="299" y1="-58" y2="-58"/><line x1="107" x2="299" y1="-54" y2="-54"/><line x1="107" x2="299" y1="-50" y2="-50"/><line x1="107" x2="299" y1="-46" y2="-46"/><line x1="107" x2="299" y1="-42" y2="-42"/><line x1="107" x2="299" y1="-38" y2="-38"/><line x1="107" x2="299" y1="-34" y2="-34"/><line x1="107" x2="299" y1="-30" y2="-30"/><line x1="107" x2="299" y1="-26" y2="-26"/><line x1="107" x2="299" y1="-22" y2="-22"/><line x1="107" x2="299" y1="-18" y2="-18"/><line x1="107" x2="299" y1="-14" y2="-14"/><line x1="107" x2="299" y1="-10" y2="-10"/><line x1="107" x2="299" y1="-6" y2="-6"/><line x1="107" x2="299" y1="-2" y2="-2"/><line x1="107" x2="299" y1="2" y2="2"/><line x1="107" x2="299" y1="6" y2="6"/><line x1="107" x2="299" y1="10" y2="10"/><line x1="107" x2="299" y1="14" y2="14"/></g><path d="m298.75-173.75v191.5h-191.5v-191.5h191.5m0.25-0.25h-192v192h192v-192z"/></g></g><g fill="#F44336"><rect x="139" y="-142" width="4" height="128" opacity=".3"/><rect x="263" y="-142" width="4" height="128" opacity=".3"/><rect transform="matrix(-1.837e-16 1 -1 -1.837e-16 63 -343)" x="201" y="-200" width="4" height="120" opacity=".3"/><rect transform="matrix(-1.837e-16 1 -1 -1.837e-16 187 -219)" x="201" y="-76" width="4" height="120" opacity=".3"/></g></g><g display="inline"><g opacity=".6"><circle cx="64" cy="64" r="28" fill="none" opacity=".61" stroke="#000" stroke-miterlimit="10" stroke-width=".2625"/><line x1="84" x2="84" y2="128" fill="none" opacity=".61" stroke="#000" stroke-miterlimit="10" stroke-width=".25"/><line x1="44" x2="44" y2="128" fill="none" opacity=".61" stroke="#000" stroke-miterlimit="10" stroke-width=".25"/><line x1="64" x2="64" y2="128" fill="none" opacity=".61" stroke="#000" stroke-miterlimit="10" stroke-width=".25"/><line x1="128" y1="64" y2="64" fill="none" opacity=".61" stroke="#000" stroke-miterlimit="10" stroke-width=".25"/><line x1="128" y1="44" y2="44" fill="none" opacity=".61" stroke="#000" stroke-miterlimit="10" stroke-width=".25"/><line x1="128" y1="83.75" y2="83.75" fill="none" opacity=".61" stroke="#000" stroke-miterlimit="10" stroke-width=".25"/><line x1="128" y1="128" fill="none" opacity=".61" stroke="#000" stroke-miterlimit="10" stroke-width=".25"/><line x2="128" y1="128" fill="none" opacity=".61" stroke="#000" stroke-miterlimit="10" stroke-width=".25"/><g opacity=".61"><path d="M64,4.26c32.94,0,59.74,26.8,59.74,59.74S96.94,123.74,64,123.74S4.26,96.94,4.26,64S31.06,4.26,64,4.26 M64,4 C30.86,4,4,30.86,4,64s26.86,60,60,60s60-26.86,60-60S97.14,4,64,4L64,4z"/></g><path d="m107.97 115.97h-87.94c-4.42 0-8.03-3.61-8.03-8.03v-87.91c0-4.42 3.61-8.03 8.03-8.03h87.94c4.42 0 8.03 3.61 8.03 8.03v87.91c0 4.42-3.61 8.03-8.03 8.03z" fill="none" opacity=".61" stroke="#000" stroke-miterlimit="10" stroke-width=".2578"/><path d="m100 124h-72c-4.4 0-8-3.6-8-8v-104c0-4.4 3.6-8 8-8h72c4.4 0 8 3.6 8 8v104c0 4.4-3.6 8-8 8z" fill="none" opacity=".61" stroke="#000" stroke-miterlimit="10" stroke-width=".2628"/><path d="M113.77,108H14.23 C8.6,108,4,103.4,4,97.77V30.28c0-5.63,4.6-10.23,10.23-10.23h99.54c5.63,0,10.23,4.6,10.23,10.23v67.48 C124,103.4,119.4,108,113.77,108z" fill="none" opacity=".61" stroke="#000" stroke-miterlimit="10" stroke-width=".2627"/></g><g opacity=".2"><defs><rect id="e" width="128" height="128" opacity=".2"/></defs><clipPath id="q"><use xlink:href="#e"/></clipPath><g clip-path="url(#q)"><g fill="none" stroke="#000" stroke-miterlimit="10" stroke-width=".25"><line x1="-28" x2="-28" y1="160" y2="-32"/><line x1="-24" x2="-24" y1="160" y2="-32"/><line x1="-20" x2="-20" y1="160" y2="-32"/><line x1="-16" x2="-16" y1="160" y2="-32"/><line x1="-12" x2="-12" y1="160" y2="-32"/><line x1="-8" x2="-8" y1="160" y2="-32"/><line x1="-4" x2="-4" y1="160" y2="-32"/><line y1="160" y2="-32"/><line x1="4" x2="4" y1="160" y2="-32"/><line x1="8" x2="8" y1="160" y2="-32"/><line x1="12" x2="12" y1="160" y2="-32"/><line x1="16" x2="16" y1="160" y2="-32"/><line x1="20" x2="20" y1="160" y2="-32"/><line x1="24" x2="24" y1="160" y2="-32"/><line x1="28" x2="28" y1="160" y2="-32"/><line x1="32" x2="32" y1="160" y2="-32"/><line x1="36" x2="36" y1="160" y2="-32"/><line x1="40" x2="40" y1="160" y2="-32"/><line x1="44" x2="44" y1="160" y2="-32"/><line x1="48" x2="48" y1="160" y2="-32"/><line x1="52" x2="52" y1="160" y2="-32"/><line x1="56" x2="56" y1="160" y2="-32"/><line x1="60" x2="60" y1="160" y2="-32"/><line x1="64" x2="64" y1="160" y2="-32"/><line x1="68" x2="68" y1="160" y2="-32"/><line x1="72" x2="72" y1="160" y2="-32"/><line x1="76" x2="76" y1="160" y2="-32"/><line x1="80" x2="80" y1="160" y2="-32"/><line x1="84" x2="84" y1="160" y2="-32"/><line x1="88" x2="88" y1="160" y2="-32"/><line x1="92" x2="92" y1="160" y2="-32"/><line x1="96" x2="96" y1="160" y2="-32"/><line x1="100" x2="100" y1="160" y2="-32"/><line x1="104" x2="104" y1="160" y2="-32"/><line x1="108" x2="108" y1="160" y2="-32"/><line x1="112" x2="112" y1="160" y2="-32"/><line x1="116" x2="116" y1="160" y2="-32"/><line x1="120" x2="120" y1="160" y2="-32"/><line x1="124" x2="124" y1="160" y2="-32"/><line x1="128" x2="128" y1="160" y2="-32"/><line x1="132" x2="132" y1="160" y2="-32"/><line x1="136" x2="136" y1="160" y2="-32"/><line x1="137" x2="137" y1="166.05" y2="-25.95"/><line x1="144" x2="144" y1="160" y2="-32"/><line x1="148" x2="148" y1="160" y2="-32"/><line x1="152" x2="152" y1="160" y2="-32"/><line x1="156" x2="156" y1="160" y2="-32"/></g><g fill="none" stroke="#000" stroke-miterlimit="10" stroke-width=".25"><line x1="-32" x2="160" y1="-28" y2="-28"/><line x1="-32" x2="160" y1="-24" y2="-24"/><line x1="-32" x2="160" y1="-20" y2="-20"/><line x1="-32" x2="160" y1="-16" y2="-16"/><line x1="-32" x2="160" y1="-12" y2="-12"/><line x1="-32" x2="160" y1="-8" y2="-8"/><line x1="-32" x2="160" y1="-4" y2="-4"/><line x1="-32" x2="160"/><line x1="-32" x2="160" y1="4" y2="4"/><line x1="-32" x2="160" y1="8" y2="8"/><line x1="-32" x2="160" y1="12" y2="12"/><line x1="-32" x2="160" y1="16" y2="16"/><line x1="-32" x2="160" y1="20" y2="20"/><line x1="-32" x2="160" y1="24" y2="24"/><line x1="-32" x2="160" y1="28" y2="28"/><line x1="-32" x2="160" y1="32" y2="32"/><line x1="-32" x2="160" y1="36" y2="36"/><line x1="-32" x2="160" y1="40" y2="40"/><line x1="-32" x2="160" y1="44" y2="44"/><line x1="-32" x2="160" y1="48" y2="48"/><line x1="-32" x2="160" y1="52" y2="52"/><line x1="-32" x2="160" y1="56" y2="56"/><line x1="-32" x2="160" y1="60" y2="60"/><line x1="-32" x2="160" y1="64" y2="64"/><line x1="-32" x2="160" y1="68" y2="68"/><line x1="-32" x2="160" y1="72" y2="72"/><line x1="-32" x2="160" y1="76" y2="76"/><line x1="-32" x2="160" y1="80" y2="80"/><line x1="-32" x2="160" y1="84" y2="84"/><line x1="-32" x2="160" y1="88" y2="88"/><line x1="-32" x2="160" y1="92" y2="92"/><line x1="-32" x2="160" y1="96" y2="96"/><line x1="-32" x2="160" y1="100" y2="100"/><line x1="-32" x2="160" y1="104" y2="104"/><line x1="-32" x2="160" y1="108" y2="108"/><line x1="-32" x2="160" y1="112" y2="112"/><line x1="-32" x2="160" y1="116" y2="116"/><line x1="-32" x2="160" y1="120" y2="120"/><line x1="-32" x2="160" y1="124" y2="124"/><line x1="-32" x2="160" y1="128" y2="128"/><line x1="-32" x2="160" y1="132" y2="132"/><line x1="-32" x2="160" y1="136" y2="136"/><line x1="-32" x2="160" y1="140" y2="140"/><line x1="-32" x2="160" y1="144" y2="144"/><line x1="-32" x2="160" y1="148" y2="148"/><line x1="-32" x2="160" y1="152" y2="152"/><line x1="-32" x2="160" y1="156" y2="156"/></g><path d="m159.75-31.75v191.5h-191.5v-191.5h191.5m0.25-0.25h-192v192h192v-192z"/></g></g><g fill="#F44336"><rect width="4" height="128" opacity=".3"/><rect x="124" width="4" height="128" opacity=".3"/><rect transform="matrix(-1.837e-16 1 -1 -1.837e-16 66 -62)" x="62" y="-58" width="4" height="120" opacity=".3"/><rect transform="matrix(-1.837e-16 1 -1 -1.837e-16 190 62)" x="62" y="66" width="4" height="120" opacity=".3"/></g></g><g display="inline"><g opacity=".6"><circle cx="203" cy="64" r="28" fill="none" opacity=".61" stroke="#000" stroke-miterlimit="10" stroke-width=".2625"/><line x1="223" x2="223" y2="128" fill="none" opacity=".61" stroke="#000" stroke-miterlimit="10" stroke-width=".25"/><line x1="183" x2="183" y2="128" fill="none" opacity=".61" stroke="#000" stroke-miterlimit="10" stroke-width=".25"/><line x1="203" x2="203" y2="128" fill="none" opacity=".61" stroke="#000" stroke-miterlimit="10" stroke-width=".25"/><line x1="267" x2="139" y1="64" y2="64" fill="none" opacity=".61" stroke="#000" stroke-miterlimit="10" stroke-width=".25"/><line x1="267" x2="139" y1="44" y2="44" fill="none" opacity=".61" stroke="#000" stroke-miterlimit="10" stroke-width=".25"/><line x1="267" x2="139" y1="83.75" y2="83.75" fill="none" opacity=".61" stroke="#000" stroke-miterlimit="10" stroke-width=".25"/><line x1="267" x2="139" y1="128" fill="none" opacity=".61" stroke="#000" stroke-miterlimit="10" stroke-width=".25"/><line x1="139" x2="267" y1="128" fill="none" opacity=".61" stroke="#000" stroke-miterlimit="10" stroke-width=".25"/><g opacity=".61"><path d="m203 4.26c32.94 0 59.74 26.8 59.74 59.74s-26.8 59.74-59.74 59.74-59.74-26.8-59.74-59.74 26.8-59.74 59.74-59.74m0-0.26c-33.14 0-60 26.86-60 60s26.86 60 60 60 60-26.86 60-60-26.86-60-60-60z"/></g><path d="m246.97 115.97h-87.94c-4.42 0-8.03-3.61-8.03-8.03v-87.91c0-4.42 3.61-8.03 8.03-8.03h87.94c4.42 0 8.03 3.61 8.03 8.03v87.91c0 4.42-3.61 8.03-8.03 8.03z" fill="none" opacity=".61" stroke="#000" stroke-miterlimit="10" stroke-width=".2578"/><path d="m239 124h-72c-4.4 0-8-3.6-8-8v-104c0-4.4 3.6-8 8-8h72c4.4 0 8 3.6 8 8v104c0 4.4-3.6 8-8 8z" fill="none" opacity=".61" stroke="#000" stroke-miterlimit="10" stroke-width=".2628"/><path d="m252.77 108h-99.54c-5.63 0-10.23-4.6-10.23-10.23v-67.49c0-5.63 4.6-10.23 10.23-10.23h99.54c5.63 0 10.23 4.6 10.23 10.23v67.48c0 5.64-4.6 10.24-10.23 10.24z" fill="none" opacity=".61" stroke="#000" stroke-miterlimit="10" stroke-width=".2627"/></g><g opacity=".2"><defs><rect id="j" x="139" width="128" height="128" opacity=".2"/></defs><clipPath id="p"><use xlink:href="#j"/></clipPath><g clip-path="url(#p)"><g fill="none" stroke="#000" stroke-miterlimit="10" stroke-width=".25"><line x1="111" x2="111" y1="160" y2="-32"/><line x1="115" x2="115" y1="160" y2="-32"/><line x1="119" x2="119" y1="160" y2="-32"/><line x1="123" x2="123" y1="160" y2="-32"/><line x1="127" x2="127" y1="160" y2="-32"/><line x1="131" x2="131" y1="160" y2="-32"/><line x1="135" x2="135" y1="160" y2="-32"/><line x1="139" x2="139" y1="160" y2="-32"/><line x1="143" x2="143" y1="160" y2="-32"/><line x1="147" x2="147" y1="160" y2="-32"/><line x1="151" x2="151" y1="160" y2="-32"/><line x1="155" x2="155" y1="160" y2="-32"/><line x1="159" x2="159" y1="160" y2="-32"/><line x1="163" x2="163" y1="160" y2="-32"/><line x1="167" x2="167" y1="160" y2="-32"/><line x1="171" x2="171" y1="160" y2="-32"/><line x1="175" x2="175" y1="160" y2="-32"/><line x1="179" x2="179" y1="160" y2="-32"/><line x1="183" x2="183" y1="160" y2="-32"/><line x1="187" x2="187" y1="160" y2="-32"/><line x1="191" x2="191" y1="160" y2="-32"/><line x1="195" x2="195" y1="160" y2="-32"/><line x1="199" x2="199" y1="160" y2="-32"/><line x1="203" x2="203" y1="160" y2="-32"/><line x1="207" x2="207" y1="160" y2="-32"/><line x1="211" x2="211" y1="160" y2="-32"/><line x1="215" x2="215" y1="160" y2="-32"/><line x1="219" x2="219" y1="160" y2="-32"/><line x1="223" x2="223" y1="160" y2="-32"/><line x1="227" x2="227" y1="160" y2="-32"/><line x1="231" x2="231" y1="160" y2="-32"/><line x1="235" x2="235" y1="160" y2="-32"/><line x1="239" x2="239" y1="160" y2="-32"/><line x1="243" x2="243" y1="160" y2="-32"/><line x1="247" x2="247" y1="160" y2="-32"/><line x1="251" x2="251" y1="160" y2="-32"/><line x1="255" x2="255" y1="160" y2="-32"/><line x1="259" x2="259" y1="160" y2="-32"/><line x1="263" x2="263" y1="160" y2="-32"/><line x1="267" x2="267" y1="160" y2="-32"/><line x1="271" x2="271" y1="160" y2="-32"/><line x1="275" x2="275" y1="160" y2="-32"/><line x1="276" x2="276" y1="166.05" y2="-25.95"/><line x1="283" x2="283" y1="160" y2="-32"/><line x1="287" x2="287" y1="160" y2="-32"/><line x1="291" x2="291" y1="160" y2="-32"/><line x1="295" x2="295" y1="160" y2="-32"/></g><g fill="none" stroke="#000" stroke-miterlimit="10" stroke-width=".25"><line x1="107" x2="299" y1="-28" y2="-28"/><line x1="107" x2="299" y1="-24" y2="-24"/><line x1="107" x2="299" y1="-20" y2="-20"/><line x1="107" x2="299" y1="-16" y2="-16"/><line x1="107" x2="299" y1="-12" y2="-12"/><line x1="107" x2="299" y1="-8" y2="-8"/><line x1="107" x2="299" y1="-4" y2="-4"/><line x1="107" x2="299"/><line x1="107" x2="299" y1="4" y2="4"/><line x1="107" x2="299" y1="8" y2="8"/><line x1="107" x2="299" y1="12" y2="12"/><line x1="107" x2="299" y1="16" y2="16"/><line x1="107" x2="299" y1="20" y2="20"/><line x1="107" x2="299" y1="24" y2="24"/><line x1="107" x2="299" y1="28" y2="28"/><line x1="107" x2="299" y1="32" y2="32"/><line x1="107" x2="299" y1="36" y2="36"/><line x1="107" x2="299" y1="40" y2="40"/><line x1="107" x2="299" y1="44" y2="44"/><line x1="107" x2="299" y1="48" y2="48"/><line x1="107" x2="299" y1="52" y2="52"/><line x1="107" x2="299" y1="56" y2="56"/><line x1="107" x2="299" y1="60" y2="60"/><line x1="107" x2="299" y1="64" y2="64"/><line x1="107" x2="299" y1="68" y2="68"/><line x1="107" x2="299" y1="72" y2="72"/><line x1="107" x2="299" y1="76" y2="76"/><line x1="107" x2="299" y1="80" y2="80"/><line x1="107" x2="299" y1="84" y2="84"/><line x1="107" x2="299" y1="88" y2="88"/><line x1="107" x2="299" y1="92" y2="92"/><line x1="107" x2="299" y1="96" y2="96"/><line x1="107" x2="299" y1="100" y2="100"/><line x1="107" x2="299" y1="104" y2="104"/><line x1="107" x2="299" y1="108" y2="108"/><line x1="107" x2="299" y1="112" y2="112"/><line x1="107" x2="299" y1="116" y2="116"/><line x1="107" x2="299" y1="120" y2="120"/><line x1="107" x2="299" y1="124" y2="124"/><line x1="107" x2="299" y1="128" y2="128"/><line x1="107" x2="299" y1="132" y2="132"/><line x1="107" x2="299" y1="136" y2="136"/><line x1="107" x2="299" y1="140" y2="140"/><line x1="107" x2="299" y1="144" y2="144"/><line x1="107" x2="299" y1="148" y2="148"/><line x1="107" x2="299" y1="152" y2="152"/><line x1="107" x2="299" y1="156" y2="156"/></g><path d="m298.75-31.75v191.5h-191.5v-191.5h191.5m0.25-0.25h-192v192h192v-192z"/></g></g><g fill="#F44336"><rect x="139" width="4" height="128" opacity=".3"/><rect x="263" width="4" height="128" opacity=".3"/><rect transform="matrix(-1.837e-16 1 -1 -1.837e-16 205 -201)" x="201" y="-58" width="4" height="120" opacity=".3"/><rect transform="matrix(-1.837e-16 1 -1 -1.837e-16 329 -77)" x="201" y="66" width="4" height="120" opacity=".3"/></g></g><g display="inline"><g opacity=".6"><circle cx="64" cy="203" r="28" fill="none" opacity=".61" stroke="#000" stroke-miterlimit="10" stroke-width=".2625"/><line x1="84" x2="84" y1="139" y2="267" fill="none" opacity=".61" stroke="#000" stroke-miterlimit="10" stroke-width=".25"/><line x1="44" x2="44" y1="139" y2="267" fill="none" opacity=".61" stroke="#000" stroke-miterlimit="10" stroke-width=".25"/><line x1="64" x2="64" y1="139" y2="267" fill="none" opacity=".61" stroke="#000" stroke-miterlimit="10" stroke-width=".25"/><line x1="128" y1="203" y2="203" fill="none" opacity=".61" stroke="#000" stroke-miterlimit="10" stroke-width=".25"/><line x1="128" y1="183" y2="183" fill="none" opacity=".61" stroke="#000" stroke-miterlimit="10" stroke-width=".25"/><line x1="128" y1="222.75" y2="222.75" fill="none" opacity=".61" stroke="#000" stroke-miterlimit="10" stroke-width=".25"/><line x1="128" y1="267" y2="139" fill="none" opacity=".61" stroke="#000" stroke-miterlimit="10" stroke-width=".25"/><line x2="128" y1="267" y2="139" fill="none" opacity=".61" stroke="#000" stroke-miterlimit="10" stroke-width=".25"/><g opacity=".61"><path d="m64 143.26c32.94 0 59.74 26.8 59.74 59.74s-26.8 59.74-59.74 59.74-59.74-26.8-59.74-59.74 26.8-59.74 59.74-59.74m0-0.26c-33.14 0-60 26.86-60 60s26.86 60 60 60 60-26.86 60-60-26.86-60-60-60z"/></g><path d="m107.97 254.97h-87.94c-4.42 0-8.03-3.61-8.03-8.03v-87.91c0-4.42 3.61-8.03 8.03-8.03h87.94c4.42 0 8.03 3.61 8.03 8.03v87.91c0 4.42-3.61 8.03-8.03 8.03z" fill="none" opacity=".61" stroke="#000" stroke-miterlimit="10" stroke-width=".2578"/><path d="m100 263h-72c-4.4 0-8-3.6-8-8v-104c0-4.4 3.6-8 8-8h72c4.4 0 8 3.6 8 8v104c0 4.4-3.6 8-8 8z" fill="none" opacity=".61" stroke="#000" stroke-miterlimit="10" stroke-width=".2628"/><path d="M113.77,247H14.23 C8.6,247,4,242.4,4,236.77v-67.48c0-5.63,4.6-10.23,10.23-10.23h99.54c5.63,0,10.23,4.6,10.23,10.23v67.48 C124,242.4,119.4,247,113.77,247z" fill="none" opacity=".61" stroke="#000" stroke-miterlimit="10" stroke-width=".2627"/></g><g opacity=".2"><defs><rect id="d" y="139" width="128" height="128" opacity=".2"/></defs><clipPath id="o"><use xlink:href="#d"/></clipPath><g clip-path="url(#o)"><g fill="none" stroke="#000" stroke-miterlimit="10" stroke-width=".25"><line x1="-28" x2="-28" y1="299" y2="107"/><line x1="-24" x2="-24" y1="299" y2="107"/><line x1="-20" x2="-20" y1="299" y2="107"/><line x1="-16" x2="-16" y1="299" y2="107"/><line x1="-12" x2="-12" y1="299" y2="107"/><line x1="-8" x2="-8" y1="299" y2="107"/><line x1="-4" x2="-4" y1="299" y2="107"/><line y1="299" y2="107"/><line x1="4" x2="4" y1="299" y2="107"/><line x1="8" x2="8" y1="299" y2="107"/><line x1="12" x2="12" y1="299" y2="107"/><line x1="16" x2="16" y1="299" y2="107"/><line x1="20" x2="20" y1="299" y2="107"/><line x1="24" x2="24" y1="299" y2="107"/><line x1="28" x2="28" y1="299" y2="107"/><line x1="32" x2="32" y1="299" y2="107"/><line x1="36" x2="36" y1="299" y2="107"/><line x1="40" x2="40" y1="299" y2="107"/><line x1="44" x2="44" y1="299" y2="107"/><line x1="48" x2="48" y1="299" y2="107"/><line x1="52" x2="52" y1="299" y2="107"/><line x1="56" x2="56" y1="299" y2="107"/><line x1="60" x2="60" y1="299" y2="107"/><line x1="64" x2="64" y1="299" y2="107"/><line x1="68" x2="68" y1="299" y2="107"/><line x1="72" x2="72" y1="299" y2="107"/><line x1="76" x2="76" y1="299" y2="107"/><line x1="80" x2="80" y1="299" y2="107"/><line x1="84" x2="84" y1="299" y2="107"/><line x1="88" x2="88" y1="299" y2="107"/><line x1="92" x2="92" y1="299" y2="107"/><line x1="96" x2="96" y1="299" y2="107"/><line x1="100" x2="100" y1="299" y2="107"/><line x1="104" x2="104" y1="299" y2="107"/><line x1="108" x2="108" y1="299" y2="107"/><line x1="112" x2="112" y1="299" y2="107"/><line x1="116" x2="116" y1="299" y2="107"/><line x1="120" x2="120" y1="299" y2="107"/><line x1="124" x2="124" y1="299" y2="107"/><line x1="128" x2="128" y1="299" y2="107"/><line x1="132" x2="132" y1="299" y2="107"/><line x1="136" x2="136" y1="299" y2="107"/><line x1="137" x2="137" y1="305.05" y2="113.05"/><line x1="144" x2="144" y1="299" y2="107"/><line x1="148" x2="148" y1="299" y2="107"/><line x1="152" x2="152" y1="299" y2="107"/><line x1="156" x2="156" y1="299" y2="107"/></g><g fill="none" stroke="#000" stroke-miterlimit="10" stroke-width=".25"><line x1="-32" x2="160" y1="111" y2="111"/><line x1="-32" x2="160" y1="115" y2="115"/><line x1="-32" x2="160" y1="119" y2="119"/><line x1="-32" x2="160" y1="123" y2="123"/><line x1="-32" x2="160" y1="127" y2="127"/><line x1="-32" x2="160" y1="131" y2="131"/><line x1="-32" x2="160" y1="135" y2="135"/><line x1="-32" x2="160" y1="139" y2="139"/><line x1="-32" x2="160" y1="143" y2="143"/><line x1="-32" x2="160" y1="147" y2="147"/><line x1="-32" x2="160" y1="151" y2="151"/><line x1="-32" x2="160" y1="155" y2="155"/><line x1="-32" x2="160" y1="159" y2="159"/><line x1="-32" x2="160" y1="163" y2="163"/><line x1="-32" x2="160" y1="167" y2="167"/><line x1="-32" x2="160" y1="171" y2="171"/><line x1="-32" x2="160" y1="175" y2="175"/><line x1="-32" x2="160" y1="179" y2="179"/><line x1="-32" x2="160" y1="183" y2="183"/><line x1="-32" x2="160" y1="187" y2="187"/><line x1="-32" x2="160" y1="191" y2="191"/><line x1="-32" x2="160" y1="195" y2="195"/><line x1="-32" x2="160" y1="199" y2="199"/><line x1="-32" x2="160" y1="203" y2="203"/><line x1="-32" x2="160" y1="207" y2="207"/><line x1="-32" x2="160" y1="211" y2="211"/><line x1="-32" x2="160" y1="215" y2="215"/><line x1="-32" x2="160" y1="219" y2="219"/><line x1="-32" x2="160" y1="223" y2="223"/><line x1="-32" x2="160" y1="227" y2="227"/><line x1="-32" x2="160" y1="231" y2="231"/><line x1="-32" x2="160" y1="235" y2="235"/><line x1="-32" x2="160" y1="239" y2="239"/><line x1="-32" x2="160" y1="243" y2="243"/><line x1="-32" x2="160" y1="247" y2="247"/><line x1="-32" x2="160" y1="251" y2="251"/><line x1="-32" x2="160" y1="255" y2="255"/><line x1="-32" x2="160" y1="259" y2="259"/><line x1="-32" x2="160" y1="263" y2="263"/><line x1="-32" x2="160" y1="267" y2="267"/><line x1="-32" x2="160" y1="271" y2="271"/><line x1="-32" x2="160" y1="275" y2="275"/><line x1="-32" x2="160" y1="279" y2="279"/><line x1="-32" x2="160" y1="283" y2="283"/><line x1="-32" x2="160" y1="287" y2="287"/><line x1="-32" x2="160" y1="291" y2="291"/><line x1="-32" x2="160" y1="295" y2="295"/></g><path d="m159.75 107.25v191.5h-191.5v-191.5h191.5m0.25-0.25h-192v192h192v-192z"/></g></g><g fill="#F44336"><rect y="139" width="4" height="128" opacity=".3"/><rect x="124" y="139" width="4" height="128" opacity=".3"/><rect transform="matrix(-1.837e-16 1 -1 -1.837e-16 205 77)" x="62" y="81" width="4" height="120" opacity=".3"/><rect transform="matrix(-1.837e-16 1 -1 -1.837e-16 329 201)" x="62" y="205" width="4" height="120" opacity=".3"/></g></g><g display="inline"><g opacity=".6"><circle cx="203" cy="203" r="28" fill="none" opacity=".61" stroke="#000" stroke-miterlimit="10" stroke-width=".2625"/><line x1="223" x2="223" y1="139" y2="267" fill="none" opacity=".61" stroke="#000" stroke-miterlimit="10" stroke-width=".25"/><line x1="183" x2="183" y1="139" y2="267" fill="none" opacity=".61" stroke="#000" stroke-miterlimit="10" stroke-width=".25"/><line x1="203" x2="203" y1="139" y2="267" fill="none" opacity=".61" stroke="#000" stroke-miterlimit="10" stroke-width=".25"/><line x1="267" x2="139" y1="203" y2="203" fill="none" opacity=".61" stroke="#000" stroke-miterlimit="10" stroke-width=".25"/><line x1="267" x2="139" y1="183" y2="183" fill="none" opacity=".61" stroke="#000" stroke-miterlimit="10" stroke-width=".25"/><line x1="267" x2="139" y1="222.75" y2="222.75" fill="none" opacity=".61" stroke="#000" stroke-miterlimit="10" stroke-width=".25"/><line x1="267" x2="139" y1="267" y2="139" fill="none" opacity=".61" stroke="#000" stroke-miterlimit="10" stroke-width=".25"/><line x1="139" x2="267" y1="267" y2="139" fill="none" opacity=".61" stroke="#000" stroke-miterlimit="10" stroke-width=".25"/><g opacity=".61"><path d="m203 143.26c32.94 0 59.74 26.8 59.74 59.74s-26.8 59.74-59.74 59.74-59.74-26.8-59.74-59.74 26.8-59.74 59.74-59.74m0-0.26c-33.14 0-60 26.86-60 60s26.86 60 60 60 60-26.86 60-60-26.86-60-60-60z"/></g><path d="m246.97 254.97h-87.94c-4.42 0-8.03-3.61-8.03-8.03v-87.91c0-4.42 3.61-8.03 8.03-8.03h87.94c4.42 0 8.03 3.61 8.03 8.03v87.91c0 4.42-3.61 8.03-8.03 8.03z" fill="none" opacity=".61" stroke="#000" stroke-miterlimit="10" stroke-width=".2578"/><path d="m239 263h-72c-4.4 0-8-3.6-8-8v-104c0-4.4 3.6-8 8-8h72c4.4 0 8 3.6 8 8v104c0 4.4-3.6 8-8 8z" fill="none" opacity=".61" stroke="#000" stroke-miterlimit="10" stroke-width=".2628"/><path d="m252.77 247h-99.54c-5.63 0-10.23-4.6-10.23-10.23v-67.48c0-5.63 4.6-10.23 10.23-10.23h99.54c5.63 0 10.23 4.6 10.23 10.23v67.48c0 5.63-4.6 10.23-10.23 10.23z" fill="none" opacity=".61" stroke="#000" stroke-miterlimit="10" stroke-width=".2627"/></g><g opacity=".2"><defs><rect id="h" x="139" y="139" width="128" height="128" opacity=".2"/></defs><clipPath id="n"><use xlink:href="#h"/></clipPath><g clip-path="url(#n)"><g fill="none" stroke="#000" stroke-miterlimit="10" stroke-width=".25"><line x1="111" x2="111" y1="299" y2="107"/><line x1="115" x2="115" y1="299" y2="107"/><line x1="119" x2="119" y1="299" y2="107"/><line x1="123" x2="123" y1="299" y2="107"/><line x1="127" x2="127" y1="299" y2="107"/><line x1="131" x2="131" y1="299" y2="107"/><line x1="135" x2="135" y1="299" y2="107"/><line x1="139" x2="139" y1="299" y2="107"/><line x1="143" x2="143" y1="299" y2="107"/><line x1="147" x2="147" y1="299" y2="107"/><line x1="151" x2="151" y1="299" y2="107"/><line x1="155" x2="155" y1="299" y2="107"/><line x1="159" x2="159" y1="299" y2="107"/><line x1="163" x2="163" y1="299" y2="107"/><line x1="167" x2="167" y1="299" y2="107"/><line x1="171" x2="171" y1="299" y2="107"/><line x1="175" x2="175" y1="299" y2="107"/><line x1="179" x2="179" y1="299" y2="107"/><line x1="183" x2="183" y1="299" y2="107"/><line x1="187" x2="187" y1="299" y2="107"/><line x1="191" x2="191" y1="299" y2="107"/><line x1="195" x2="195" y1="299" y2="107"/><line x1="199" x2="199" y1="299" y2="107"/><line x1="203" x2="203" y1="299" y2="107"/><line x1="207" x2="207" y1="299" y2="107"/><line x1="211" x2="211" y1="299" y2="107"/><line x1="215" x2="215" y1="299" y2="107"/><line x1="219" x2="219" y1="299" y2="107"/><line x1="223" x2="223" y1="299" y2="107"/><line x1="227" x2="227" y1="299" y2="107"/><line x1="231" x2="231" y1="299" y2="107"/><line x1="235" x2="235" y1="299" y2="107"/><line x1="239" x2="239" y1="299" y2="107"/><line x1="243" x2="243" y1="299" y2="107"/><line x1="247" x2="247" y1="299" y2="107"/><line x1="251" x2="251" y1="299" y2="107"/><line x1="255" x2="255" y1="299" y2="107"/><line x1="259" x2="259" y1="299" y2="107"/><line x1="263" x2="263" y1="299" y2="107"/><line x1="267" x2="267" y1="299" y2="107"/><line x1="271" x2="271" y1="299" y2="107"/><line x1="275" x2="275" y1="299" y2="107"/><line x1="276" x2="276" y1="305.05" y2="113.05"/><line x1="283" x2="283" y1="299" y2="107"/><line x1="287" x2="287" y1="299" y2="107"/><line x1="291" x2="291" y1="299" y2="107"/><line x1="295" x2="295" y1="299" y2="107"/></g><g fill="none" stroke="#000" stroke-miterlimit="10" stroke-width=".25"><line x1="107" x2="299" y1="111" y2="111"/><line x1="107" x2="299" y1="115" y2="115"/><line x1="107" x2="299" y1="119" y2="119"/><line x1="107" x2="299" y1="123" y2="123"/><line x1="107" x2="299" y1="127" y2="127"/><line x1="107" x2="299" y1="131" y2="131"/><line x1="107" x2="299" y1="135" y2="135"/><line x1="107" x2="299" y1="139" y2="139"/><line x1="107" x2="299" y1="143" y2="143"/><line x1="107" x2="299" y1="147" y2="147"/><line x1="107" x2="299" y1="151" y2="151"/><line x1="107" x2="299" y1="155" y2="155"/><line x1="107" x2="299" y1="159" y2="159"/><line x1="107" x2="299" y1="163" y2="163"/><line x1="107" x2="299" y1="167" y2="167"/><line x1="107" x2="299" y1="171" y2="171"/><line x1="107" x2="299" y1="175" y2="175"/><line x1="107" x2="299" y1="179" y2="179"/><line x1="107" x2="299" y1="183" y2="183"/><line x1="107" x2="299" y1="187" y2="187"/><line x1="107" x2="299" y1="191" y2="191"/><line x1="107" x2="299" y1="195" y2="195"/><line x1="107" x2="299" y1="199" y2="199"/><line x1="107" x2="299" y1="203" y2="203"/><line x1="107" x2="299" y1="207" y2="207"/><line x1="107" x2="299" y1="211" y2="211"/><line x1="107" x2="299" y1="215" y2="215"/><line x1="107" x2="299" y1="219" y2="219"/><line x1="107" x2="299" y1="223" y2="223"/><line x1="107" x2="299" y1="227" y2="227"/><line x1="107" x2="299" y1="231" y2="231"/><line x1="107" x2="299" y1="235" y2="235"/><line x1="107" x2="299" y1="239" y2="239"/><line x1="107" x2="299" y1="243" y2="243"/><line x1="107" x2="299" y1="247" y2="247"/><line x1="107" x2="299" y1="251" y2="251"/><line x1="107" x2="299" y1="255" y2="255"/><line x1="107" x2="299" y1="259" y2="259"/><line x1="107" x2="299" y1="263" y2="263"/><line x1="107" x2="299" y1="267" y2="267"/><line x1="107" x2="299" y1="271" y2="271"/><line x1="107" x2="299" y1="275" y2="275"/><line x1="107" x2="299" y1="279" y2="279"/><line x1="107" x2="299" y1="283" y2="283"/><line x1="107" x2="299" y1="287" y2="287"/><line x1="107" x2="299" y1="291" y2="291"/><line x1="107" x2="299" y1="295" y2="295"/></g><path d="m298.75 107.25v191.5h-191.5v-191.5h191.5m0.25-0.25h-192v192h192v-192z"/></g></g><g fill="#F44336"><rect x="139" y="139" width="4" height="128" opacity=".3"/><rect x="263" y="139" width="4" height="128" opacity=".3"/><rect transform="matrix(-1.837e-16 1 -1 -1.837e-16 344 -62)" x="201" y="81" width="4" height="120" opacity=".3"/><rect transform="matrix(-1.837e-16 1 -1 -1.837e-16 468 62)" x="201" y="205" width="4" height="120" opacity=".3"/></g></g></g></svg>
