<svg enable-background="new 0 0 128 128" viewBox="0 0 128 128" xmlns="http://www.w3.org/2000/svg" xmlns:xlink="http://www.w3.org/1999/xlink"><linearGradient id="f" x1="64" x2="64" y1="14.706" y2="111.23" gradientUnits="userSpaceOnUse"><stop stop-color="#DEE1E3" offset=".1378"/><stop stop-color="#8C9194" offset=".707"/><stop stop-color="#fff" offset=".971"/></linearGradient><path d="m65.19 5.37c-46.94 0-52.04 9.19-53.1 11.08l2.31 86.61c0 9.38 13.78 21.16 49.63 21.16s49.27-13.15 49.58-21.16c0-0.12 2.32-86.61 2.32-86.61s-3.81-11.08-50.74-11.08z" fill="url(#f)"/><g opacity=".2"><path d="m65.19 8.68c36.98 0 45.77 6.96 47.39 8.72-0.44 16.34-2.24 83.68-2.29 85.54-0.11 2.59-2.73 6.96-9.74 10.78-6.01 3.27-17.23 7.17-36.53 7.17-33.98 0-46.31-10.67-46.31-17.84v-0.09l-2.28-85.54c2.23-2.69 11.53-8.74 49.76-8.74m0-3.31c-46.94 0-52.04 9.19-53.1 11.08l2.31 86.61c0 9.38 13.78 21.16 49.63 21.16s49.27-13.15 49.58-21.16c0-0.12 2.32-86.61 2.32-86.61s-3.81-11.08-50.74-11.08z" fill="#424242"/></g><linearGradient id="d" x1="64" x2="64" y1="70.593" y2="108.88" gradientUnits="userSpaceOnUse"><stop stop-color="#54130E" offset="0"/><stop stop-color="#BD5106" offset=".4135"/><stop stop-color="#C55B05" offset=".4666"/><stop stop-color="#E48602" offset=".7039"/><stop stop-color="#F8A001" offset=".8897"/><stop stop-color="#fa0" offset="1"/></linearGradient><path d="m63.69 71.58c-25.93 0-46.95-4.38-46.95-8.7l1.15 27.99c0 7.06 13.5 15.8 46.13 15.8s45.8-9.78 46.08-15.8c0-0.05 1.16-10.75 1.16-27.95-0.07 4.32-21.69 8.66-47.57 8.66z" fill="url(#d)"/><path d="m111.26 62.88v0.04-0.02c0.01-0.01 0-0.01 0-0.02z" fill="#FFF0CA"/><linearGradient id="c" x1="64.046" x2="64.046" y1="47.134" y2="74.327" gradientUnits="userSpaceOnUse"><stop stop-color="#54130E" offset="0"/><stop stop-color="#BD5106" offset=".1891"/><stop stop-color="#C55B05" offset=".2624"/><stop stop-color="#E48602" offset=".5905"/><stop stop-color="#F8A001" offset=".8475"/><stop stop-color="#fa0" offset="1"/></linearGradient><path d="m63.73 54.78c-25.95 0-46.99 3.59-46.99 8.01s21.04 8.91 46.99 8.91c25.91 0 47.55-4.45 47.62-8.87v-0.04c-0.07-4.41-21.71-8.01-47.62-8.01z" fill="url(#c)"/><linearGradient id="b" x1="64" x2="64" y1="5.2176" y2="30.645" gradientUnits="userSpaceOnUse"><stop stop-color="#DEE1E3" offset="0"/><stop stop-color="#fff" offset=".8536"/></linearGradient><path d="M115.92,14.78c0,5.88-23.24,10.05-51.92,10.05s-51.92-4.16-51.92-10.05S35.33,4.13,64,4.13 S115.92,8.9,115.92,14.78z" fill="url(#b)"/><g opacity=".2"><path d="m64 7.44c12.59 0 24.66 0.94 33.99 2.65 9.22 1.69 13.1 3.66 14.3 4.66-1.01 0.8-4.34 2.71-14.35 4.39-9.16 1.53-21.21 2.38-33.94 2.38s-24.79-0.84-33.94-2.38c-10.01-1.67-13.34-3.58-14.35-4.39 1.2-1 5.08-2.97 14.3-4.66 9.33-1.71 21.4-2.65 33.99-2.65m0-3.31c-28.67 0-51.92 4.77-51.92 10.65s23.25 10.05 51.92 10.05 51.92-4.16 51.92-10.05-23.25-10.65-51.92-10.65z" fill="#424242"/></g><polygon points="58.35 65.07 58.66 65.81 68.68 90.16 95.64 88.19 104.28 70.92 95.81 48.47 71.76 48.82" fill="#CFD6D5" opacity=".73"/><g opacity=".62"><polygon points="29.62 56.49 29.51 57.29 26.06 83.39 50.42 95.12 66.52 84.46 70.37 60.78 49.34 49.09" fill="#CFD6D5"/></g><g display="none"><g display="inline"><g opacity=".6"><circle cx="64" cy="64" r="28" fill="none" opacity=".61" stroke="#000" stroke-miterlimit="10" stroke-width=".2625"/><line x1="83.5" x2="83.5" y2="128" fill="none" opacity=".61" stroke="#000" stroke-miterlimit="10"/><line x1="43.5" x2="43.5" y2="128" fill="none" opacity=".61" stroke="#000" stroke-miterlimit="10"/><line x1="63.5" x2="63.5" y2="128" fill="none" opacity=".61" stroke="#000" stroke-miterlimit="10"/><line x1="128" y1="64.5" y2="64.5" fill="none" opacity=".61" stroke="#000" stroke-miterlimit="10"/><line x1="128" y1="44.5" y2="44.5" fill="none" opacity=".61" stroke="#000" stroke-miterlimit="10"/><line x1="128" y1="83.5" y2="83.5" fill="none" opacity=".61" stroke="#000" stroke-miterlimit="10"/><line x1="128" y1="128" fill="none" opacity=".61" stroke="#000" stroke-miterlimit="10" stroke-width=".25"/><line x2="128" y1="128" fill="none" opacity=".61" stroke="#000" stroke-miterlimit="10" stroke-width=".25"/><g opacity=".61"><path d="M64,4.26c32.94,0,59.74,26.8,59.74,59.74S96.94,123.74,64,123.74S4.26,96.94,4.26,64S31.06,4.26,64,4.26 M64,4 C30.86,4,4,30.86,4,64s26.86,60,60,60s60-26.86,60-60S97.14,4,64,4L64,4z"/></g><path d="m115.5 108.47c0 4.43-3.59 8.03-8.03 8.03h-87.94c-4.43 0-8.03-3.59-8.03-8.03v-87.94c0-4.43 3.59-8.03 8.03-8.03h87.94c4.43 0 8.03 3.59 8.03 8.03v87.94z" fill="none" opacity=".61" stroke="#000" stroke-miterlimit="10"/><path d="m107.5 116.5c0 4.42-3.58 8-8 8h-72c-4.42 0-8-3.58-8-8v-104c0-4.42 3.58-8 8-8h72c4.42 0 8 3.58 8 8v104z" fill="none" opacity=".61" stroke="#000" stroke-miterlimit="10"/><path d="M123.5,98.27c0,5.65-4.58,10.23-10.23,10.23H13.73 c-5.65,0-10.23-4.58-10.23-10.23V30.73c0-5.65,4.58-10.23,10.23-10.23h99.54c5.65,0,10.23,4.58,10.23,10.23V98.27z" fill="none" opacity=".61" stroke="#000" stroke-miterlimit="10"/></g><g opacity=".2"><defs><rect id="e" width="128" height="128" opacity=".2"/></defs><clipPath id="a"><use xlink:href="#e"/></clipPath><g clip-path="url(#a)"><g fill="none" stroke="#000" stroke-miterlimit="10"><line x1="-28.5" x2="-28.5" y1="160" y2="-32"/><line x1="-24.5" x2="-24.5" y1="160" y2="-32"/><line x1="-20.5" x2="-20.5" y1="160" y2="-32"/><line x1="-16.5" x2="-16.5" y1="160" y2="-32"/><line x1="-12.5" x2="-12.5" y1="160" y2="-32"/><line x1="-8.5" x2="-8.5" y1="160" y2="-32"/><line x1="-4.5" x2="-4.5" y1="160" y2="-32"/><line x1="-.5" x2="-.5" y1="160" y2="-32"/><line x1="3.5" x2="3.5" y1="160" y2="-32"/><line x1="7.5" x2="7.5" y1="160" y2="-32"/><line x1="11.5" x2="11.5" y1="160" y2="-32"/><line x1="15.5" x2="15.5" y1="160" y2="-32"/><line x1="19.5" x2="19.5" y1="160" y2="-32"/><line x1="23.5" x2="23.5" y1="160" y2="-32"/><line x1="27.5" x2="27.5" y1="160" y2="-32"/><line x1="31.5" x2="31.5" y1="160" y2="-32"/><line x1="35.5" x2="35.5" y1="160" y2="-32"/><line x1="39.5" x2="39.5" y1="160" y2="-32"/><line x1="43.5" x2="43.5" y1="160" y2="-32"/><line x1="47.5" x2="47.5" y1="160" y2="-32"/><line x1="51.5" x2="51.5" y1="160" y2="-32"/><line x1="55.5" x2="55.5" y1="160" y2="-32"/><line x1="59.5" x2="59.5" y1="160" y2="-32"/><line x1="63.5" x2="63.5" y1="160" y2="-32"/><line x1="67.5" x2="67.5" y1="160" y2="-32"/><line x1="71.5" x2="71.5" y1="160" y2="-32"/><line x1="75.5" x2="75.5" y1="160" y2="-32"/><line x1="79.5" x2="79.5" y1="160" y2="-32"/><line x1="83.5" x2="83.5" y1="160" y2="-32"/><line x1="87.5" x2="87.5" y1="160" y2="-32"/><line x1="91.5" x2="91.5" y1="160" y2="-32"/><line x1="95.5" x2="95.5" y1="160" y2="-32"/><line x1="99.5" x2="99.5" y1="160" y2="-32"/><line x1="103.5" x2="103.5" y1="160" y2="-32"/><line x1="107.5" x2="107.5" y1="160" y2="-32"/><line x1="111.5" x2="111.5" y1="160" y2="-32"/><line x1="115.5" x2="115.5" y1="160" y2="-32"/><line x1="119.5" x2="119.5" y1="160" y2="-32"/><line x1="123.5" x2="123.5" y1="160" y2="-32"/><line x1="127.5" x2="127.5" y1="160" y2="-32"/><line x1="131.5" x2="131.5" y1="160" y2="-32"/><line x1="135.5" x2="135.5" y1="160" y2="-32"/><line x1="136.5" x2="136.5" y1="166" y2="-26"/><line x1="143.5" x2="143.5" y1="160" y2="-32"/><line x1="147.5" x2="147.5" y1="160" y2="-32"/><line x1="151.5" x2="151.5" y1="160" y2="-32"/><line x1="155.5" x2="155.5" y1="160" y2="-32"/></g><g fill="none" stroke="#000" stroke-miterlimit="10"><line x1="-32" x2="160" y1="-27.5" y2="-27.5"/><line x1="-32" x2="160" y1="-23.5" y2="-23.5"/><line x1="-32" x2="160" y1="-19.5" y2="-19.5"/><line x1="-32" x2="160" y1="-15.5" y2="-15.5"/><line x1="-32" x2="160" y1="-11.5" y2="-11.5"/><line x1="-32" x2="160" y1="-7.5" y2="-7.5"/><line x1="-32" x2="160" y1="-3.5" y2="-3.5"/><line x1="-32" x2="160" y1=".5" y2=".5"/><line x1="-32" x2="160" y1="4.5" y2="4.5"/><line x1="-32" x2="160" y1="8.5" y2="8.5"/><line x1="-32" x2="160" y1="12.5" y2="12.5"/><line x1="-32" x2="160" y1="16.5" y2="16.5"/><line x1="-32" x2="160" y1="20.5" y2="20.5"/><line x1="-32" x2="160" y1="24.5" y2="24.5"/><line x1="-32" x2="160" y1="28.5" y2="28.5"/><line x1="-32" x2="160" y1="32.5" y2="32.5"/><line x1="-32" x2="160" y1="36.5" y2="36.5"/><line x1="-32" x2="160" y1="40.5" y2="40.5"/><line x1="-32" x2="160" y1="44.5" y2="44.5"/><line x1="-32" x2="160" y1="48.5" y2="48.5"/><line x1="-32" x2="160" y1="52.5" y2="52.5"/><line x1="-32" x2="160" y1="56.5" y2="56.5"/><line x1="-32" x2="160" y1="60.5" y2="60.5"/><line x1="-32" x2="160" y1="64.5" y2="64.5"/><line x1="-32" x2="160" y1="68.5" y2="68.5"/><line x1="-32" x2="160" y1="72.5" y2="72.5"/><line x1="-32" x2="160" y1="76.5" y2="76.5"/><line x1="-32" x2="160" y1="80.5" y2="80.5"/><line x1="-32" x2="160" y1="84.5" y2="84.5"/><line x1="-32" x2="160" y1="88.5" y2="88.5"/><line x1="-32" x2="160" y1="92.5" y2="92.5"/><line x1="-32" x2="160" y1="96.5" y2="96.5"/><line x1="-32" x2="160" y1="100.5" y2="100.5"/><line x1="-32" x2="160" y1="104.5" y2="104.5"/><line x1="-32" x2="160" y1="108.5" y2="108.5"/><line x1="-32" x2="160" y1="112.5" y2="112.5"/><line x1="-32" x2="160" y1="116.5" y2="116.5"/><line x1="-32" x2="160" y1="120.5" y2="120.5"/><line x1="-32" x2="160" y1="124.5" y2="124.5"/><line x1="-32" x2="160" y1="128.5" y2="128.5"/><line x1="-32" x2="160" y1="132.5" y2="132.5"/><line x1="-32" x2="160" y1="136.5" y2="136.5"/><line x1="-32" x2="160" y1="140.5" y2="140.5"/><line x1="-32" x2="160" y1="144.5" y2="144.5"/><line x1="-32" x2="160" y1="148.5" y2="148.5"/><line x1="-32" x2="160" y1="152.5" y2="152.5"/><line x1="-32" x2="160" y1="156.5" y2="156.5"/></g><path d="m160-32v192h-192v-192h192-192v192h192v-192z"/></g></g><g fill="#F44336"><rect width="4" height="128" opacity=".3"/><rect x="124" width="4" height="128" opacity=".3"/><rect transform="matrix(-1.837e-16 1 -1 -1.837e-16 66 -62)" x="62" y="-58" width="4" height="120" opacity=".3"/><rect transform="matrix(-1.837e-16 1 -1 -1.837e-16 190 62)" x="62" y="66" width="4" height="120" opacity=".3"/></g></g></g></svg>
