<svg enable-background="new 0 0 128 128" viewBox="0 0 128 128" xmlns="http://www.w3.org/2000/svg"><symbol viewBox="-64.5 -64.5 129 129"><g fill="none" stroke="#4285F4" stroke-miterlimit="10"><rect x="-64" y="-64" width="128" height="128"/><path d="M36.95,37.82C27.32,46.32,14.2,51,0,51 c-14.27,0-27.39-4.62-36.96-13.01C-47.45,28.79-53,15.65-53,0c0-15.58,5.55-28.69,16.04-37.92C-27.36-46.35-14.24-51,0-51 c14.17,0,27.29,4.71,36.95,13.25C47.45-28.45,53-15.4,53,0C53,15.47,47.45,28.55,36.95,37.82z"/><path d="m0 55c-29.59 0-57-19.01-57-55 0-35.8 27.41-55 57-55s57 19.69 57 55c0 35.51-27.41 55-57 55z"/><path d="M0-43c-12.29,0-23.54,3.94-31.68,11.09 C-40.39-24.25-45-13.21-45,0c0,29.7,22.6,43,45,43c21.67,0,45-13.46,45-43S21.67-43,0-43L0-43z"/><line x1="-.01" x2="-.01" y1="51" y2="-51"/><line x1="-16" x2="-16" y1="48.95" y2="-48.93"/><line x1="15.99" x2="15.99" y1="48.91" y2="-48.93"/><line x1="53" x2="-53" y1=".08" y2=".08"/></g></symbol><rect x="52.05" y="36" width="71.89" height="88" fill="#F06292"/><rect x="72.08" y="36" width="12" height="88" fill="#F48FB1"/><rect x="92.04" y="36" width="12" height="88" fill="#F48FB1"/><rect x="111.93" y="36" width="12" height="88" fill="#F48FB1"/><rect x="52.05" y="36" width="12" height="88" fill="#F48FB1"/><g opacity=".2"><path d="m120.93 39v82h-65.88v-82h65.88m3-3h-71.88v88h71.89v-88h-0.01z" fill="#424242"/></g><circle cx="111.05" cy="45.83" r="4" fill="#AD1457"/><circle cx="65.05" cy="45.83" r="4" fill="#AD1457"/><linearGradient id="c" x1="88.061" x2="88.061" y1="6" y2="48.207" gradientUnits="userSpaceOnUse"><stop stop-color="#AED581" offset=".4739"/><stop stop-color="#8BC34A" offset="1"/></linearGradient><path d="m114.05 30.12c0-14.36-11.64-25.99-25.99-25.99-14.36 0-25.99 11.64-25.99 25.99v14.96c0 1.66 1.34 3 3 3s3-1.34 3-3v-3h-0.01v-11.47c0-10.83 8.4-20.06 19.22-20.47 11.37-0.43 20.76 8.7 20.76 19.98v11.96h-0.07v2.96c0 1.68 1.36 3.04 3.04 3.04s3.04-1.36 3.04-3.04v-14.92z" fill="url(#c)"/><g opacity=".2"><path d="m88.06 5.13c13.78 0 24.99 11.21 24.99 24.99v14.92c0 1.12-0.91 2.04-2.04 2.04s-2.04-0.91-2.04-2.04v-2.59c0.05-0.12 0.07-0.24 0.07-0.37v-11.96c0-11.58-9.42-20.99-20.99-20.99-0.27 0-0.54 0.01-0.81 0.02-11.12 0.42-20.17 10.05-20.17 21.46v11.47c0 0.04 0 0.08 0.01 0.12v2.87c0 1.1-0.9 2-2 2s-2-0.9-2-2v-14.95c-0.01-13.78 11.2-24.99 24.98-24.99m0-1c-14.36 0-25.99 11.64-25.99 25.99v14.96c0 1.66 1.34 3 3 3s3-1.34 3-3v-3h-0.01v-11.47c0-10.83 8.4-20.06 19.22-20.47 0.26-0.01 0.52-0.01 0.77-0.01 11.03 0 19.99 8.97 19.99 19.99v11.96h-0.07v2.96c0 1.68 1.36 3.04 3.04 3.04s3.04-1.36 3.04-3.04v-14.92c0-14.35-11.63-25.99-25.99-25.99z" fill="#424242"/></g><mask id="b" x="75.5" y="71.75" width="29" height="52.25" maskUnits="userSpaceOnUse"/><linearGradient id="a" x1="73.663" x2="101" y1="97.875" y2="97.875" gradientUnits="userSpaceOnUse"><stop stop-color="#E91E63" offset=".3169"/><stop stop-color="#F06292" stop-opacity=".3" offset=".8143"/></linearGradient><polygon points="104.5 124 75.5 124 75.5 71.75" fill="url(#a)" mask="url(#b)" opacity=".4"/><rect x="4" y="72.11" width="72" height="52" fill="#C5E1A5"/><rect transform="matrix(3.6682e-11 1 -1 3.6682e-11 126.21 46.206)" x="34" y="50.21" width="12" height="72" fill="#AED581"/><rect transform="matrix(3.6682e-11 1 -1 3.6682e-11 150.21 70.206)" x="34" y="74.21" width="12" height="72" fill="#AED581"/><circle cx="60.05" cy="80.83" r="4" fill="#7CB342"/><circle cx="20.05" cy="80.83" r="4" fill="#7CB342"/><path d="m16.98 85.11c0 12.72 10.23 23.03 22.84 23.03s22.84-10.31 22.84-23.03v-4.39c0-1.47-1.18-2.66-2.64-2.66s-2.64 1.19-2.64 2.66v2.65h0.01v1.3c0 9.59-7.38 17.77-16.89 18.14-10 0.38-18.25-7.71-18.25-17.7v-1.74h0.06v-2.63c0-1.49-1.19-2.69-2.67-2.69-1.47 0-2.67 1.2-2.67 2.69v4.37z" fill="#F06292"/><g opacity=".2"><path d="m60.02 79.06c0.9 0 1.64 0.75 1.64 1.66v4.39c0 12.15-9.8 22.03-21.84 22.03s-21.84-9.88-21.84-22.03v-4.36c0-0.93 0.75-1.69 1.67-1.69s1.67 0.76 1.67 1.69v2.27c-0.04 0.11-0.06 0.23-0.06 0.35v1.74c0 10.32 8.33 18.71 18.57 18.71 0.24 0 0.48 0 0.72-0.01 9.84-0.38 17.85-8.96 17.85-19.13v-1.3c0-0.04 0-0.08-0.01-0.12v-2.54c-0.01-0.91 0.72-1.66 1.63-1.66m0-1c-1.46 0-2.64 1.19-2.64 2.66v2.65h0.01v1.3c0 9.59-7.38 17.77-16.89 18.14-0.23 0.01-0.45 0.01-0.68 0.01-9.69 0-17.57-7.95-17.57-17.71v-1.74h0.06v-2.63c0-1.49-1.19-2.69-2.67-2.69-1.47 0-2.67 1.2-2.67 2.69v4.36c0 12.72 10.23 23.03 22.84 23.03s22.84-10.31 22.84-23.03v-4.39c0.01-1.46-1.17-2.65-2.63-2.65z" fill="#424242"/></g><g opacity=".2"><path d="m73 75.11v46h-66v-46h66m3-3h-72v52h72v-52z" fill="#424242"/></g></svg>
