<?xml version="1.0" encoding="utf-8"?>
<!-- Generator: Adobe Illustrator 24.0.3, SVG Export Plug-In . SVG Version: 6.00 Build 0)  -->
<svg version="1.1" id="Layer_1" xmlns="http://www.w3.org/2000/svg" xmlns:xlink="http://www.w3.org/1999/xlink" x="0px" y="0px"
	 viewBox="0 0 128 128" style="enable-background:new 0 0 128 128;" xml:space="preserve">
<g id="horse">
	<g>
		
			<linearGradient id="SVGID_1_" gradientUnits="userSpaceOnUse" x1="111.0945" y1="92.8467" x2="111.0945" y2="57.2812" gradientTransform="matrix(1 0 0 -1 0 128)">
			<stop  offset="1.200000e-03" style="stop-color:#C69C6D"/>
			<stop  offset="7.100000e-03" style="stop-color:#C59B6C"/>
			<stop  offset="0.6855" style="stop-color:#7D542C"/>
			<stop  offset="1" style="stop-color:#603813"/>
		</linearGradient>
		<path style="fill:url(#SVGID_1_);" d="M101.75,36.53c0,0,0.04,0.23,0.09,0.66c0.07,0.38,0.2,0.88,0.42,1.51
			c1.33,3.85,4.71,5.89,7.96,7.62c3.46,1.84,7.14,3.71,9.62,6.57c2.49,2.87,4.02,6.67,2.68,10.45c-1.17,3.3-4.63,6.2-8.53,6.39
			c-1.16,0.07-2.13-0.14-2.83-0.39c-0.71-0.25-1.14-0.62-1.4-0.85c-0.25-0.26-0.35-0.4-0.35-0.4c-0.14-0.19-0.07-0.45,0.16-0.59
			c0.12-0.07,0.26-0.1,0.39-0.07l0.08,0.01c0,0,0.16,0.03,0.46,0.08c0.15,0.02,0.33,0.02,0.53,0.04c0.22-0.02,0.44-0.02,0.7-0.06
			c1.88-0.32,3.53-1.61,3.92-3.29c0.27-1.16-0.02-2.34-0.6-3.35c-1.33-2.35-3.76-3.77-6-5.42c-2.38-1.76-5.08-3.35-6.94-5.69
			c-1.88-2.35-3.23-5.49-2.92-8.95c0.07-0.73,1.06-5.55,2.32-4.63C101.65,36.26,101.72,36.39,101.75,36.53z"/>
	</g>
	
		<linearGradient id="SVGID_2_" gradientUnits="userSpaceOnUse" x1="94.3497" y1="15.5277" x2="91.0009" y2="27.6207" gradientTransform="matrix(1 0 0 -1 0 128)">
		<stop  offset="0.2321" style="stop-color:#FFAF61"/>
		<stop  offset="0.4152" style="stop-color:#FCAC5F"/>
		<stop  offset="0.572" style="stop-color:#F3A159"/>
		<stop  offset="0.7192" style="stop-color:#E38F50"/>
		<stop  offset="0.8597" style="stop-color:#CD7742"/>
		<stop  offset="0.9051" style="stop-color:#C46D3D"/>
	</linearGradient>
	<path style="fill:url(#SVGID_2_);" d="M105.91,97.63c-1.36-1.19-7.94-12.36-7.92-13.88l0.17-0.25l-0.16-0.29
		c-0.19-0.34-0.54-0.98-16.6,0.9l-1.16,0.14l4.07,3.39c0.49,0.67,5.15,6.92,8.26,9.68c2.04,1.81,3.51,3.12,3.55,4.17
		c0.01,0.43-0.21,0.86-0.71,1.36c-1.17,1.17-5.74,4-9.41,6.28c-2.34,1.45-4.36,2.7-5.03,3.23c-0.72,0.57-1.32,2.54-1.44,3.39
		l-0.1,0.73l0.72-0.18c2.08-0.54,5.96-0.8,5.99-0.8l0.13-0.01l19.08-12.26c0.44-0.29,0.78-0.71,0.94-1.2
		C106.68,100.85,107.15,98.72,105.91,97.63z"/>
	<g>
		
			<linearGradient id="SVGID_3_" gradientUnits="userSpaceOnUse" x1="24.7507" y1="35.509" x2="42.1736" y2="35.509" gradientTransform="matrix(1 0 0 -1 0 128)">
			<stop  offset="0.2321" style="stop-color:#FFAF61"/>
			<stop  offset="0.4152" style="stop-color:#FCAC5F"/>
			<stop  offset="0.572" style="stop-color:#F3A159"/>
			<stop  offset="0.7192" style="stop-color:#E38F50"/>
			<stop  offset="0.8597" style="stop-color:#CD7742"/>
			<stop  offset="0.9051" style="stop-color:#C46D3D"/>
		</linearGradient>
		<path style="fill:url(#SVGID_3_);" d="M55.58,76.6c-0.17-0.31-0.59-0.82-1.53-0.82c-1.27,0-4,0.89-13.87,7.82
			c-1.05,0.42-9.59,3.84-12.34,4.29c-1.47,0.24-2.78,1.65-3.33,3.59c-0.66,2.33-0.04,4.6,1.66,6.08c2.15,1.87,6.37,6.04,6.71,7.06
			c0.51,1.53,2.06,2.08,3.56,2.62c0.58,0.21,1.19,0.43,1.76,0.7c0.57,0.28,1.13,0.54,1.67,0.8l0.99,0.47l0.37-1.03
			c0.55-1.53,1.22-3.05,1.92-4.6l0.31-0.69l-0.58-0.49c-1.44-1.2-2.63-1.31-3.34-1.37c-0.12-0.01-0.29-0.03-0.34-0.04
			c-1.47-0.77-5.03-3.89-6.22-5.37c0.94-0.25,2.58-0.59,4.08-0.9c6.91-1.42,11.51-2.49,12.44-4.32c0.21-0.42,0.25-0.88,0.1-1.31
			c0.14-0.71,1.63-3.03,2.63-4.57C55.11,80.04,56.31,77.94,55.58,76.6z"/>
	</g>
	<g>
		<path style="fill:#603813;" d="M86.6,115.03l-0.05-0.44l-0.44-0.01c-2.23-0.04-4.04,0.17-6.23,0.74l-0.24,0.06l-0.1,0.23
			c-1.25,2.93-1.07,7.61-0.91,8.26c0.06,0.22,0.25,0.45,0.63,0.45c0.04,0,0.08,0,0.12-0.01c0.8-0.1,7.62-3.9,7.62-4.99
			C87.02,118.82,86.7,115.91,86.6,115.03z"/>
		<path style="fill:#603813;" d="M49.53,102.83c-0.74-1.03-2.17-1.25-4.09-1.25c-0.61,0-1.27,0.02-1.94,0.05
			c-0.44,0.01-0.88,0.03-1.3,0.04l-0.95,0.02l-0.39,0.87c-0.69,1.53-1.41,3.16-1.99,4.77l-0.33,0.91l0.69,0.68
			c2.36,2.29,4.75,3.4,5.96,3.86c0.26,0.1,0.54,0.15,0.83,0.15c1.11,0,2.07-0.79,2.3-1.87c0.3-1.43,1.03-4.89,1.46-6.15
			C50.13,103.89,49.77,103.17,49.53,102.83z"/>
		<path style="fill:#603813;" d="M73.05,117.84c-0.39-1.98-2.9-5.93-5.94-7.61c-0.43-0.24-1.05-0.02-1.23,0.05
			c-0.78,0.32-2,0.89-3.58,2.16c-0.35,0.28-0.52,0.73-0.44,1.17c0.31,1.91,0.84,3.63,1.62,5.25c0.21,0.43,0.64,0.71,1.12,0.71
			c0.02,0,0.03,0,0.05,0l7.23-0.27c0.36-0.01,0.7-0.18,0.93-0.47C73.03,118.56,73.12,118.2,73.05,117.84z"/>
	</g>
	<path style="fill:#603813;" d="M93.91,98.29c-0.4,0.05-0.8,0.1-1.19,0.16c-1.11,0.15-2.16,0.3-3.18,0.3c-1.18,0-2.15-0.2-3.04-0.62
		c-0.3-0.32-0.67-0.35-0.8-0.35l0,0c-0.58,0-0.99,0.39-1.65,1.21c-1.11,1.39-1.47,4.69-1.59,6.53c-0.02,0.37,0.11,0.73,0.36,1
		c0.25,0.27,0.61,0.42,0.97,0.42h0.04l0.07,0c8.4-0.71,9.92-3.45,10.18-4.59c0.13-0.55,0.68-2.13,0.89-2.7l0.55-1.53L93.91,98.29z"
		/>
	<g>
		
			<linearGradient id="SVGID_4_" gradientUnits="userSpaceOnUse" x1="61.6485" y1="87.1563" x2="61.6485" y2="9.1994" gradientTransform="matrix(1 0 0 -1 0 128)">
			<stop  offset="0" style="stop-color:#FFAF61"/>
			<stop  offset="0.028" style="stop-color:#F7A65C"/>
			<stop  offset="0.125" style="stop-color:#E18D4F"/>
			<stop  offset="0.226" style="stop-color:#D17B45"/>
			<stop  offset="0.3327" style="stop-color:#C7703F"/>
			<stop  offset="0.4544" style="stop-color:#C46D3D"/>
			<stop  offset="0.6196" style="stop-color:#D27D46"/>
			<stop  offset="0.9415" style="stop-color:#F8A75C"/>
			<stop  offset="1" style="stop-color:#FFAF61"/>
		</linearGradient>
		<path style="fill:url(#SVGID_4_);" d="M107.66,87.38c-0.15-0.16-0.3-0.33-0.46-0.5c3.88-2.65,7.82-7.51,6.92-16.22
			c-0.58-5.62-3.28-10.06-7.8-12.85c-4.59-2.83-9.76-3.25-12.43-3.25c-1.14,0-2.23,0.07-3.24,0.22c-1.04,0.15-2.03,0.3-3.01,0.45
			c-3.94,0.61-7.67,1.19-13.79,1.19c-2.76,0-5.79-0.12-9.26-0.35c-4.26-0.29-12.6-8.76-18.7-14.93c-3.64-3.69-6.78-6.87-8.92-8.36
			c-0.38-0.26-0.81-0.4-1.28-0.4c-0.4,0-0.78,0.1-1.13,0.24c-0.78-1-1.69-1.5-2.71-1.5c-1.14,0-2.14,0.66-2.8,1.15
			c-0.18,0.13-1.43,0.86-2.53,1.5c-3.04,1.77-4.09,2.4-4.37,2.66c-0.34,0.31-0.93,1.1-2.13,2.73c-2.58,3.49-7.39,9.98-10.48,11.79
			c-0.34,0.2-0.53,0.57-0.49,0.96c0.04,0.39,0.3,0.72,0.67,0.85c4.79,1.65,6.63,6.98,7.3,10c0.08,0.37,0.36,0.66,0.72,0.75
			c0.15,0.04,0.32,0.06,0.53,0.06c1.23,0,9.21-1.67,12.69-3.01c1.74,8.91,5.05,19.78,6.35,22.25c1.88,3.59,3.88,6.24,6.09,8.1
			c0.06,2,0.22,10.07-0.59,13.18c-0.96,3.68,1.22,6.51,3.65,7.58c1.21,0.53,10.5,8.12,11.48,9.06c0.35,0.33,0.85,0.49,1.53,0.49
			c1.74,0,4.7-1.05,5.03-1.17c0.27-0.1,0.49-0.31,0.59-0.57c0.11-0.27,0.09-0.57-0.04-0.82c-0.88-1.72-1.45-3.58-1.76-5.67
			c-0.07-0.46-0.44-0.81-0.9-0.85c-0.07-0.01-0.15-0.01-0.23-0.01c-0.89,0-2.04,0.43-2.78,0.75l-7.06-7.97l5.09-10.78
			c0.66,0.06,1.73,0.13,3.17,0.13c2.49,0,6.49-0.22,11.42-1.28c3.94-0.84,6.24-1.85,8.27-2.74c2.55-1.12,4.39-1.92,8.44-1.92
			c0.56,0,1.16,0.02,1.79,0.05c1.84,0.95,4.02,2.27,5.41,3.13c-1.22,0.7-2.91,1.68-4.66,2.7c-2.92,1.7-5.94,3.45-6.95,4
			c-0.33,0.18-0.53,0.52-0.52,0.9c0.01,0.37,0.22,0.71,0.55,0.88c2.49,1.24,5.6,1.43,7.24,1.43c0.88,0,1.75-0.05,2.57-0.15
			c0.3-0.04,0.57-0.21,0.73-0.47c1.48-2.43,9.01-4.93,11.85-5.87l0.54-0.18c1.13-0.38,1.98-1.49,2.29-2.98
			c0.27-1.31,0.03-2.46-0.66-3.07C108.61,88.41,108.15,87.91,107.66,87.38z"/>
	</g>
	<g>
		
			<linearGradient id="SVGID_5_" gradientUnits="userSpaceOnUse" x1="11.3556" y1="76.8701" x2="11.3556" y2="61.8339" gradientTransform="matrix(1 0 0 -1 0 128)">
			<stop  offset="0" style="stop-color:#FFF1C4"/>
			<stop  offset="0.4265" style="stop-color:#FFE2A7"/>
			<stop  offset="1" style="stop-color:#FFCA7B"/>
		</linearGradient>
		<path style="fill:url(#SVGID_5_);" d="M10.24,50.95c-0.11-0.04-0.22-0.06-0.33-0.06c-0.22,0-0.43,0.07-0.61,0.21
			C7,52.88,5.74,54.58,5.26,55.22l-0.11,0.14c-1.12,1.44-2.02,5.49,0.3,7.8c0.71,0.71,2.38,2.37,5.46,2.37
			c0.9,0,1.89-0.14,2.92-0.42c0.73-0.19,1.76-0.61,2.67-0.99c0.54-0.22,1.26-0.51,1.52-0.59c0.25-0.01,0.49-0.1,0.67-0.28
			C18.94,63.02,14.52,52.43,10.24,50.95z"/>
	</g>
	<g>
		<path style="fill:#B05A2A;" d="M79.2,69.19c0.32,2.07,0.91,4.05,1.6,5.99c0.35,0.97,0.75,1.91,1.15,2.84
			c0.43,0.93,0.89,1.83,1.38,2.72c0.52,0.87,1.04,1.73,1.64,2.54c0.6,0.8,1.23,1.55,1.96,2.25c1.44,1.4,3.11,2.58,4.96,3.59
			c-2.11-0.3-4.1-1.29-5.81-2.62c-1.72-1.36-3.02-3.18-4.03-5.04c-1.03-1.88-1.78-3.9-2.29-5.96C79.27,73.43,78.96,71.29,79.2,69.19
			z"/>
	</g>
	
		<ellipse transform="matrix(0.3467 -0.938 0.938 0.3467 -27.1815 54.8251)" style="fill:#404040;" cx="25.77" cy="46.93" rx="3.06" ry="2.71"/>
	<g>
		
			<linearGradient id="SVGID_6_" gradientUnits="userSpaceOnUse" x1="65.5744" y1="77.4786" x2="87.8244" y2="56.2286" gradientTransform="matrix(1 0 0 -1 0 128)">
			<stop  offset="0" style="stop-color:#FBC02D"/>
			<stop  offset="0.6867" style="stop-color:#FEDC36"/>
			<stop  offset="0.9988" style="stop-color:#FFEB3B"/>
		</linearGradient>
		<path style="fill:url(#SVGID_6_);" d="M91.05,52.13c-2.98-2.21-3.13,2.79-13.05,2.96c-2.56,0.04-5.5-0.33-7.91-1.26
			c-1.53-0.59-3.46-1.81-5.16-1.36c-2.05,0.54-1.49,4.24-1.65,5.91c-0.21,2.27-0.39,4.47-0.41,6.76c-0.03,3.36,0.35,7.37,3.83,8.64
			c4.79,1.75,10.76,1.46,15.75,1.11c3.39-0.24,10.99-1.18,12.57-4.73c1.55-3.46-0.92-12.58-2.36-15.91
			C92.25,53.3,91.7,52.61,91.05,52.13z"/>
	</g>
	<path style="fill:#404040;" d="M11.51,55.22c0.55,0.19,0.9,0.79,0.89,1.38s-0.32,1.13-0.75,1.54c-0.51,0.48-1.2,0.38-1.32-0.39
		c-0.06-0.4,0.37-0.89,0.3-1.33c-0.07-0.5-1.56-0.51-0.6-0.98C10.47,55.21,11.03,55.06,11.51,55.22z"/>
	<g>
		
			<linearGradient id="SVGID_7_" gradientUnits="userSpaceOnUse" x1="25.2805" y1="101.0236" x2="56.6605" y2="79.2648" gradientTransform="matrix(1 0 0 -1 0 128)">
			<stop  offset="1.200000e-03" style="stop-color:#C69C6D"/>
			<stop  offset="7.100000e-03" style="stop-color:#C59B6C"/>
			<stop  offset="0.6855" style="stop-color:#7D542C"/>
			<stop  offset="1" style="stop-color:#603813"/>
		</linearGradient>
		<path style="fill:url(#SVGID_7_);" d="M42.03,31.96l-3.24,1.46c3.58-0.21,8.17,2.42,10.42,0.83c-0.02,3.31-2.04,3.46-4.57,3.67
			c1.55,0.69,3.43,0.9,4.98,0.4s2.5-1.69,2.5-1.69s0.87,2.39-1.44,4.19c0,0,1.81-0.98,3.88-0.78c1.52,0.14,2.89,0.59,4.33,0.08
			c0.47,1.76-0.13,3.77-1.5,4.99c1.35,0.49,2.81,0.72,4.25,0.67c-0.95,0.69-1.96,1.28-3.03,1.77c2.14,0.31,4.31,0.36,6.46,0.15
			c0.54-0.05,5.47-0.51,5.35-1.15c0.37,2.04-0.43,4.11-1.37,5.96c-0.99,1.96-2.16,3.87-3.82,5.31c-3.83,3.29-8.53,1.9-12.54-0.3
			c-7-3.83-8.67-7.5-12-12.33c-2.14-3.11-4.97-7.51-5.83-8.5c-0.54-0.62-4.51-0.5-4.47-1.65c0.07-1.73,1.12-2.53,2.37-3.24
			C37.41,29.12,42.03,31.96,42.03,31.96z"/>
	</g>
	<path style="fill:#B05A2A;" d="M43.39,90.9l-1.58-1.51c-0.4-2.63-0.69-5.62-0.27-9.95C42.26,82.15,42.55,87.47,43.39,90.9z"/>
	<path style="fill:#B05A2A;" d="M57.4,94.12c0,0,2.14-4.72,3.29-9.5c0,3.63-1.38,8.89-1.64,9.55L57.4,94.12z"/>
	<path style="fill:none;stroke:#4E342E;stroke-width:2;stroke-linecap:round;stroke-miterlimit:10;" d="M10.14,51.5
		c4.07,1.56,7.52,4.47,7.36,11.16"/>
	<path style="fill:none;stroke:#4E342E;stroke-width:2;stroke-linecap:round;stroke-linejoin:round;stroke-miterlimit:10;" d="
		M17.91,59.11c3.59-1.11,8.84-3.7,12.76-7.11"/>
	
		<polyline style="fill:none;stroke:#4E342E;stroke-width:2;stroke-linecap:round;stroke-linejoin:round;stroke-miterlimit:10;" points="
		36.53,40.03 31.58,44.83 29.88,59.62 	"/>
	<path style="fill:none;stroke:#4E342E;stroke-width:2;stroke-linecap:round;stroke-linejoin:round;stroke-miterlimit:10;" d="
		M31.36,44.54c-3.62-4.19-5.87-5.61-9.86-7.47"/>
	<g>
		
			<linearGradient id="SVGID_8_" gradientUnits="userSpaceOnUse" x1="16.8075" y1="95.5754" x2="25.6424" y2="86.6086" gradientTransform="matrix(1 0 0 -1 0 128)">
			<stop  offset="1.200000e-03" style="stop-color:#C69C6D"/>
			<stop  offset="7.100000e-03" style="stop-color:#C59B6C"/>
			<stop  offset="0.6855" style="stop-color:#7D542C"/>
			<stop  offset="1" style="stop-color:#603813"/>
		</linearGradient>
		<path style="fill:url(#SVGID_8_);" d="M15.47,43.06c-2.28-0.5-4.99-2.58-5.22-6.37c-0.01-0.21,0.23-0.33,0.38-0.19
			c1.01,0.89,4.89,1.68,7.27-1.12c1.09-1.28,2.83-3.42,4.35-4.03c3.99-1.6,7.18,0.42,7.18,0.42C26.43,35.64,25.76,45.31,15.47,43.06
			z"/>
	</g>
	<path style="fill:none;stroke:#4E342E;stroke-width:2;stroke-linecap:round;stroke-linejoin:round;stroke-miterlimit:10;" d="
		M17.51,62.66c7.99,0,20.99-5.87,27.08-13.16"/>
	<g>
		<path style="fill:#FFAF61;" d="M32.95,28.22c0.6-0.52,1.72-0.1,1.9,0.71c0.87,3.94,2.08,12.53-4.56,10.27
			C23.75,36.98,29.94,30.81,32.95,28.22z"/>
		<path style="fill:none;stroke:#B05A2A;stroke-linecap:round;stroke-linejoin:round;stroke-miterlimit:10;" d="M27.75,37.42
			c-1.61-2.8,2.8-7.14,5.2-9.2c0.6-0.52,1.72-0.1,1.9,0.71c0.53,2.41,1.19,6.54,0.11,8.89"/>
		
			<linearGradient id="SVGID_9_" gradientUnits="userSpaceOnUse" x1="-43.7138" y1="18.4904" x2="-42.3034" y2="10.5571" gradientTransform="matrix(0.8586 0.5127 0.5127 -0.8586 62.206 66.9006)">
			<stop  offset="0" style="stop-color:#D49151"/>
			<stop  offset="0.3194" style="stop-color:#D28E4F"/>
			<stop  offset="0.5929" style="stop-color:#CE8349"/>
			<stop  offset="0.8489" style="stop-color:#C6713F"/>
			<stop  offset="0.9" style="stop-color:#C46D3D"/>
		</linearGradient>
		<path style="fill:url(#SVGID_9_);" d="M33.42,34.99c-0.08,0.56-0.22,1.13-0.58,1.56c-0.36,0.44-1,0.71-1.61,0.54
			c-0.69-0.19-1.16-0.87-1.23-1.51c-0.08-0.65,0.16-1.26,0.42-1.83c0.3-0.66,1.86-2.63,3.09-3.7
			C33.88,29.72,33.51,34.31,33.42,34.99z"/>
	</g>
</g>
<path id="shadow_x5F_saddle" style="opacity:0.2;fill:#262626;enable-background:new    ;" d="M78,55.08l-4.55,3.09
	c0,0,1.45,4.83,0.75,9.75s-2.12,9.79-2.12,9.79l-6.53-22.62l6.22-5.26l0.56,5.09L78,55.08z"/>
<g id="person">
	<g id="hand_1_">
		
			<linearGradient id="SVGID_10_" gradientUnits="userSpaceOnUse" x1="44.2174" y1="79.3275" x2="41.4665" y2="78.4629" gradientTransform="matrix(1 0 0 -1 0 128)">
			<stop  offset="0" style="stop-color:#F9DDBD"/>
			<stop  offset="1" style="stop-color:#FFD29C"/>
		</linearGradient>
		<path style="fill:url(#SVGID_10_);" d="M49.49,44.9c-0.06-0.21-0.25-0.35-0.47-0.35l-0.3,0l-3.05-1.88
			c-0.31-0.19-0.69-0.26-0.99-0.2c-0.03,0-0.08,0-0.11,0.01c-0.04,0.01-0.08,0.02-0.1,0.03c-0.36,0.08-0.66,0.25-0.87,0.51
			l-1.13,1.39c-0.18,0.22-0.29,0.48-0.33,0.76c-1.02,0.38-1.68,0.75-1.94,1.09c-0.25,0.31-0.35,0.71-0.29,1.11
			c0.06,0.36,0.24,0.68,0.49,0.86c0.06,0.04,0.11,0.25,0.04,0.39c-0.25,0.48-0.3,0.99-0.15,1.43c0.18,0.53,0.52,0.76,0.99,0.94
			c-0.15,0.69-0.16,1.1-0.02,1.39c0.2,0.4,0.53,0.57,0.75,0.68c0.08,0.04,0.18,0.09,0.18,0.06c0.01,0.04,0.01,0.1,0.01,0.15
			c0.01,0.26,0.02,0.58,0.2,0.83c0.25,0.35,0.71,0.53,1.36,0.53c0.42,0,0.91-0.07,1.48-0.22c1.94-0.25,5.73-2.87,5.9-2.98
			c0.18-0.12,0.26-0.35,0.19-0.56L49.49,44.9z"/>
	</g>
	<g id="face">
		<g id="head">
			<path style="fill:#F9DDBD;" d="M57.04,9.77c-2.76-2.84-7.93-4.38-11.61-2.91c-4.12,1.64-5.74,5.23-5.49,9.27
				c0.09,1.46,0.44,2.86,0.9,3.81c0.06,0.11,0.48,0.93,0.56,1.2c0.39,1.02-1.41,2.51-1.4,3.73c0.01,0.91,1.96,1.07,2.14,1.19
				c0.89,0.63,0.82,4.94,5.91,4.21c1.95-0.28,2.22-0.82,2.83-0.94c3.22-0.63,6.78,0.51,6.78,0.51L61.46,24c0,0-3.51-2.17-3.41-2.54
				C58.99,17.91,58.82,11.6,57.04,9.77z"/>
		</g>
		<path id="mouth" style="fill:#444444;" d="M43.12,28.03c0.7-0.11,1.35-0.43,1.84-0.99c0.54-0.62-0.02-1.05-0.68-0.58
			c-0.4,0.29-1.01,0.52-1.6,0.54L43.12,28.03z"/>
		
			<ellipse id="eye" transform="matrix(0.9693 -0.2457 0.2457 0.9693 -3.8004 11.6132)" style="fill:#312D2D;" cx="44.64" cy="21.04" rx="0.94" ry="1.44"/>
		<path id="eyebrow" style="fill:#454140;" d="M43.59,19.27c-0.78,0.55-1.18,0.06-1.05-0.5c0.1-0.41,0.52-0.88,1.6-1.03
			c1.02-0.15,1.6,0.27,1.97,0.51s0.46,0.59,0.25,0.69C46.07,19.08,44.55,18.59,43.59,19.27z"/>
		<g id="hair">
			<path style="fill:#312D2D;" d="M52.47,19.88l0.47-1.35c0.32-0.78,0.61-1.47,1.26-1.5c1.91-0.09,2.44,3.22,0.49,4.51
				c0,0,0.99,2.33,3.44,2.34c0.26,0,0.48-0.02,0.68-0.05c0.63-0.09,1-0.69,1-1.33c0.02-3.99,1.47-3.57,1.19-8.13
				c-0.39-6.26-6.7-8.82-11.88-7.88c-2.02,0.37-3.99,1.19-5.6,2.48c-0.69,0.54-3.01,2.63-3.27,4.06c-0.33,1.82,0.99,2.97,0.99,2.97
				s5.21-1.73,7.77-1.82c0.34-0.01,0.73,0,0.94,0.26c0.1,0.11,0.34,0.92,0.39,1.06c0.58,1.82,0.71,3.03,1.56,4.06
				C52.03,19.72,52.47,19.88,52.47,19.88z"/>
		</g>
	</g>
	<g id="leg_x5F_left">
		
			<linearGradient id="SVGID_11_" gradientUnits="userSpaceOnUse" x1="65.7141" y1="63.5739" x2="92.0189" y2="88.8266" gradientTransform="matrix(1 0 0 -1 0 128)">
			<stop  offset="0.2009" style="stop-color:#EEEEEE"/>
			<stop  offset="1" style="stop-color:#BDBDBD"/>
		</linearGradient>
		<path style="fill:url(#SVGID_11_);" d="M92.77,40.46c-0.35-2.47-1.75-4.69-3.35-6.25c-2.26-2.21-5.26-0.19-7.47,1.33
			c-0.1,0-0.2,0.03-0.29,0.09L63.02,48.96c-1,0.52-1.8,1.32-2.31,2.31c-0.55,1.04-0.73,2.23-0.53,3.43l4.15,23.09
			c0.04,0.24,0.25,0.41,0.49,0.41c0.01,0,0.03,0,0.04,0l5.99-0.5c0.24-0.02,0.44-0.21,0.46-0.46c0.05-0.62,1.17-14.96-0.71-20.81
			c2.47-0.84,13.26-4.63,18.62-8.43c1.05-0.56,1.98-1.39,2.65-2.48C92.85,43.95,93.11,42.14,92.77,40.46z"/>
		<path style="fill:#444444;" d="M73.21,75.56l-1.43-12.6c-0.02-0.13-0.08-0.26-0.19-0.34s-0.25-0.12-0.38-0.1l-9.61,1.45
			c-0.13,0.02-0.25,0.09-0.33,0.2c-0.08,0.11-0.11,0.25-0.09,0.38l2.21,12.2l-3.55,1.92c-1.45,0.84-2.24,2.46-2,4.12l0.17,1.12
			c0.06,0.37,0.25,0.7,0.55,0.92c0.24,0.18,0.53,0.27,0.83,0.27c0.07,0,0.14-0.01,0.21-0.02L73.42,83c0,0,0,0,0,0
			c0.81-0.12,1.27-1.1,1.28-2.74C74.71,79,73.47,76.14,73.21,75.56z"/>
	</g>
	
		<radialGradient id="SVGID_12_" cx="56.1925" cy="98.6446" r="32.5143" gradientTransform="matrix(1 0 0 -1 0 128)" gradientUnits="userSpaceOnUse">
		<stop  offset="0.3666" style="stop-color:#FB8C00"/>
		<stop  offset="0.6719" style="stop-color:#F67F00"/>
		<stop  offset="1" style="stop-color:#EF6C00"/>
	</radialGradient>
	<path style="fill:url(#SVGID_12_);" d="M90.93,35.49c-4.13-6.96-14.61-13.08-24.37-14.23c-2.16-0.25-8.74-1.03-10.18,5.74
		c-0.48,1.14-0.54,3.7,0.44,5.42c0.6,1.05,1.51,1.68,2.65,1.81c9.48,1.11,14.27,6.84,14.32,6.9c0.1,0.12,0.24,0.18,0.39,0.18
		c0.08,0,0.17-0.02,0.24-0.06c0.09-0.05,8.73-4.82,16.1-5c0.18-0.01,0.34-0.1,0.43-0.26C91.02,35.83,91.02,35.64,90.93,35.49z"/>
	<g id="arm_x5F_left">
		<path style="fill:#FB8C00;" d="M60.68,24.84l-0.2,0c-2.43,0.05-4.37,2.06-4.32,4.48l0.09,11.57l-8.2,3.58
			c-0.25,0.11-0.37,0.4-0.26,0.65l2.56,6.1c0.08,0.19,0.27,0.31,0.46,0.31c0.06,0,0.12-0.01,0.18-0.03l9.32-3.68
			c3.28-1.02,3.61-3.83,3.62-3.96l1.23-14.65c0-0.02,0-0.03,0-0.05C65.12,26.73,63.08,24.8,60.68,24.84z M62.74,44.38l0.03,0
			c-0.01,0.03-0.02,0.06-0.04,0.1C62.74,44.45,62.74,44.42,62.74,44.38z"/>
	</g>
	<g id="helmet">
		<g>
			<path style="fill:#262626;" d="M50.83,22.12c0.32,3.54-0.07,5.72-0.5,7.45c2.06-0.32,2.41-3.82,2.66-6.62
				c0.24-2.79-0.03-5.49-0.03-5.49l-3.34-0.29C49.62,17.18,50.67,20.25,50.83,22.12z"/>
		</g>
		<g>
			
				<radialGradient id="SVGID_13_" cx="48.0531" cy="116.8756" r="11.12" gradientTransform="matrix(1 0 0 -1 0 128)" gradientUnits="userSpaceOnUse">
				<stop  offset="0" style="stop-color:#757575"/>
				<stop  offset="1" style="stop-color:#616161"/>
			</radialGradient>
			<path style="fill:url(#SVGID_13_);" d="M49.8,4.11c-0.34,0.02-1.21,0.12-1.53,0.19c-1.81,0.38-4.15,1.45-5.54,2.69
				c-1.99,1.78-3.58,3.94-4.87,6.16c-0.65,1.12-4.47,2.12-3.8,3.69c1.36,3.16,7.75-0.39,10.1-0.27c1.76,0.09,3.46,0.67,5.2,0.89
				c3.14,0.39,6.28,0.58,9.44,0.64c0.45,0.01,0.89-0.02,1.35-0.07c0.7-0.08,1.52-0.02,1.64-0.81c0.13-0.85,0.35-1.89,0.32-2.75
				C61.9,8.8,56.95,3.69,49.8,4.11z"/>
		</g>
	</g>
	<g id="hand">
		
			<linearGradient id="SVGID_14_" gradientUnits="userSpaceOnUse" x1="42.7743" y1="79.1252" x2="49.2859" y2="80.3345" gradientTransform="matrix(1 0 0 -1 0 128)">
			<stop  offset="0.5" style="stop-color:#F9DDBD"/>
			<stop  offset="1" style="stop-color:#FFD29C"/>
		</linearGradient>
		<path style="fill:url(#SVGID_14_);" d="M49.46,44.92c-0.06-0.21-0.25-0.35-0.47-0.35l-0.3,0l-3.05-1.88
			c-0.31-0.19-0.69-0.26-0.99-0.2c-0.03,0-0.08,0-0.11,0.01c-0.04,0.01-0.08,0.02-0.1,0.03c-0.36,0.08-0.66,0.25-0.87,0.51
			l-1.13,1.39c-0.18,0.22-0.29,0.48-0.33,0.76c0,0-0.36,0.34-0.36,1.04s0.39,0.76,0.51,0.88c0.29,0.29,0.36,0.88,0.13,1.22
			c-0.22,0.32-0.18,0.76-0.1,1.14c0.09,0.48,0.37,0.62,0.81,0.8c0.21,0.08,0.32,0.3,0.25,0.51c-0.1,0.29-0.17,0.65-0.12,0.93
			s0.35,0.53,0.63,0.72c0.17,0.12,0.29,0.21,0.3,0.42c0.01,0.18-0.66,1.08,0.04,1.73c0.17,0.15,0.75-0.1,1.01-0.17
			c1.94-0.25,5.73-2.87,5.9-2.98c0.18-0.12,0.26-0.35,0.19-0.56L49.46,44.92z"/>
	</g>
</g>
</svg>
