<?xml version="1.0" encoding="utf-8"?>
<!-- Generator: Adobe Illustrator 19.2.1, SVG Export Plug-In . SVG Version: 6.00 Build 0)  -->
<svg version="1.1" id="图层_1" xmlns="http://www.w3.org/2000/svg" xmlns:xlink="http://www.w3.org/1999/xlink" x="0px" y="0px"
	 viewBox="0 0 128 128" style="enable-background:new 0 0 128 128;" xml:space="preserve">
<g>
	<defs>
		<path id="SVGID_1_" d="M113.48,5.84c-5.75-4.2-4.85,3.2-8.58,4.08C100.94,10.85,86.24,9.94,69.85,23
			C57.81,32.6,57.6,40.16,48.15,50.31c-9.45,10.15-19.78,7.18-31.86,19.95c-12.08,12.78-18.2,34.66-7.35,44.81
			c10.55,9.87,39.37,15.36,63.5-9.07c12.54-12.7,4.48-22.36,15.79-32.76c8.75-8.05,18.38-6.48,29.58-20.48
			C133.44,33.23,118.23,9.31,113.48,5.84z"/>
	</defs>
	<use xlink:href="#SVGID_1_"  style="overflow:visible;fill:#CB9265;"/>
	<clipPath id="SVGID_2_">
		<use xlink:href="#SVGID_1_"  style="overflow:visible;"/>
	</clipPath>
	<path style="clip-path:url(#SVGID_2_);fill:none;stroke:#E5B076;stroke-width:3.5;stroke-miterlimit:10;" d="M109.11,4.3
		c2.98,6.09-7.45,11.5-10.45,12.53c-4.65,1.61-14.36,2.98-16.95,5.76c-3.73,4.01-11.8,6.33-15.98,15.75
		c-0.93,2.09-2.53,8.95-8.8,16.22C53.7,58.31,39.45,60.6,35.71,64c-5.11,4.64-5.79,8.28-11.21,10c-4.46,1.42-4.75,4.16-7.62,6.5
		C9.79,86.29,2.41,98.73,4.33,113.17"/>
	<path style="clip-path:url(#SVGID_2_);fill:none;stroke:#E5B076;stroke-width:3.5;stroke-miterlimit:10;" d="M112.43,2.95
		c-0.35,4.61-0.68,12.25-4.25,15.19c-5.18,4.28-8.81,6.79-12.19,10.36c-2.12,2.25-5.43,2.11-8.83,4.33
		C83.08,35.5,74.5,43.88,72.5,49c-2.77,7.1-6.25,13.99-13.49,16.35c-3.13,1.02-15.61,11.62-17.53,14.46
		c-5.68,8.42-10.89,9.68-20.15,13.85c-8.78,3.96-15.23,13.09-20.48,21.16"/>
	<path style="clip-path:url(#SVGID_2_);fill:none;stroke:#E5B076;stroke-width:3.5;stroke-miterlimit:10;" d="M117,1.33
		c-1.6,5.54-3.63,11.52-3.57,17.52c0.07,5.81-2.67,10.8-5.68,15.27c-0.66,0.98-5.49,3.15-6.75,4.62c-3.78,4.42-6.97,9.73-10.5,11.92
		c-2.48,1.54-5.44,5.56-9.86,7.54c-4.27,1.91-8.86,8.1-10.92,10.99c-2.29,3.21-5.73,6.92-6.4,10.67
		c-1.3,7.25-9.32,13.41-17.42,17.71c-5.57,2.96-18.02,5.33-20.51,7.13c-9,6.5-18.59,8.79-27.88,7.54"/>
	<path style="clip-path:url(#SVGID_2_);fill:none;stroke:#E5B076;stroke-width:3.5;stroke-miterlimit:10;" d="M114.12,1.06
		c1.48,10.24,6.38,19.25,5.53,29.55c-0.12,1.46-1.77,5.38-3.27,7.01c-3.89,4.22-4.16,12.97-7.27,15.27
		c-4.4,3.26-11.27,4.27-15.01,7.8C88.07,66.37,79.93,68.56,78.5,76c-1.25,6.53-2.63,10.95-5.67,15.5
		c-2.22,3.33-7.36,7.79-8.06,11.05c-0.81,3.77-8.49,6.44-11.77,8.45c-6,3.68-15.59,4.67-19.83,6.49c-7.7,3.31-22.36-0.07-34.02-5.07
		"/>
	
		<path style="clip-path:url(#SVGID_2_);fill:none;stroke:#E5B076;stroke-width:3.5;stroke-linecap:round;stroke-linejoin:round;stroke-miterlimit:10;" d="
		M94.28,9.89c-1.48,2.17-0.35,6.2,1.81,7.7"/>
	
		<path style="clip-path:url(#SVGID_2_);fill:none;stroke:#E5B076;stroke-width:3.5;stroke-linecap:round;stroke-linejoin:round;stroke-miterlimit:10;" d="
		M64.98,20.51c0.6,1.73,1.21,3.48,2.24,4.99s2.54,2.78,4.33,3.12"/>
	
		<path style="clip-path:url(#SVGID_2_);fill:none;stroke:#E5B076;stroke-width:3.5;stroke-linecap:round;stroke-linejoin:round;stroke-miterlimit:10;" d="
		M52.99,40.18c2.28-0.36,4.6-0.52,6.91-0.46c0.45,0.01,0.93,0.04,1.28,0.32c0.54,0.43,2.15,2.28,2.81,2.5"/>
	
		<path style="clip-path:url(#SVGID_2_);fill:none;stroke:#E5B076;stroke-width:3.5;stroke-linecap:round;stroke-linejoin:round;stroke-miterlimit:10;" d="
		M44.53,51.09c0.34,1.19,0.09,2.45,0.05,3.68s0.53,4.09,1.57,4.75"/>
	
		<path style="clip-path:url(#SVGID_2_);fill:none;stroke:#E5B076;stroke-width:3.5;stroke-linecap:round;stroke-linejoin:round;stroke-miterlimit:10;" d="
		M34.85,56.64c0.25,0.94,1.19,1.49,1.98,2.05c0.8,0.56,1.93,3.11,1.68,4.06"/>
	
		<path style="clip-path:url(#SVGID_2_);fill:none;stroke:#E5B076;stroke-width:3.5;stroke-linecap:round;stroke-linejoin:round;stroke-miterlimit:10;" d="
		M15.59,65.65c0.94,3.1,2.2,6.1,3.76,8.93c0.25,0.46,0.7,0.99,1.19,0.8"/>
	
		<path style="clip-path:url(#SVGID_2_);fill:none;stroke:#E5B076;stroke-width:3.5;stroke-linecap:round;stroke-linejoin:round;stroke-miterlimit:10;" d="
		M6.38,80.07c1.14,0.46,2.42,0.15,3.65,0.14s3.24,1.55,3.5,2.75"/>
	
		<path style="clip-path:url(#SVGID_2_);fill:none;stroke:#E5B076;stroke-width:3.5;stroke-linecap:round;stroke-linejoin:round;stroke-miterlimit:10;" d="
		M8.15,93.31c0.93,2.09,3,4.53,5.26,4.88"/>
	
		<path style="clip-path:url(#SVGID_2_);fill:none;stroke:#E5B076;stroke-width:3.5;stroke-linecap:round;stroke-linejoin:round;stroke-miterlimit:10;" d="
		M17.58,80.68c3.39,1.58,5.64,7.44,5.82,11.18"/>
	
		<path style="clip-path:url(#SVGID_2_);fill:none;stroke:#E5B076;stroke-width:3.5;stroke-linecap:round;stroke-linejoin:round;stroke-miterlimit:10;" d="
		M29.16,71.24c-0.18,2.25,0.85,4.87,2.13,6.72c1.81,2.63,4.38,3,7.55,3.34"/>
	
		<path style="clip-path:url(#SVGID_2_);fill:none;stroke:#E5B076;stroke-width:3.5;stroke-linecap:round;stroke-linejoin:round;stroke-miterlimit:10;" d="
		M36.41,64c4.87-0.66,10.84,2.32,13.28,6.59"/>
	
		<path style="clip-path:url(#SVGID_2_);fill:none;stroke:#E5B076;stroke-width:3.5;stroke-linecap:round;stroke-linejoin:round;stroke-miterlimit:10;" d="
		M52.34,59.4c1.64,2.12,3.46,4.1,5.43,5.92"/>
	
		<path style="clip-path:url(#SVGID_2_);fill:none;stroke:#E5B076;stroke-width:3.5;stroke-linecap:round;stroke-linejoin:round;stroke-miterlimit:10;" d="
		M58.7,54.15c1.19,2.23,3.08,4.08,5.33,5.22"/>
	
		<path style="clip-path:url(#SVGID_2_);fill:none;stroke:#E5B076;stroke-width:3.5;stroke-linecap:round;stroke-linejoin:round;stroke-miterlimit:10;" d="
		M62.51,46.88c1.78,0.64,3.47-0.01,5.34,0.31c1.56,0.26,2.74,0.75,3.52,2.12"/>
	
		<path style="clip-path:url(#SVGID_2_);fill:none;stroke:#E5B076;stroke-width:3.5;stroke-linecap:round;stroke-linejoin:round;stroke-miterlimit:10;" d="
		M69.59,33.71c0.92,1.56,1.12,1.91,2.43,3.15s5.36,2.6,7.16,2.44"/>
	
		<path style="clip-path:url(#SVGID_2_);fill:none;stroke:#E5B076;stroke-width:3.5;stroke-linecap:round;stroke-linejoin:round;stroke-miterlimit:10;" d="
		M79.88,24.73c1.65-0.05,3.29-0.08,4.94-0.09c0.42,0,0.85,0,1.22,0.2c0.25,0.14,0.44,0.36,0.62,0.58c1.19,1.43,2.24,2.98,3.11,4.62"
		/>
	
		<path style="clip-path:url(#SVGID_2_);fill:none;stroke:#E5B076;stroke-width:3.5;stroke-linecap:round;stroke-linejoin:round;stroke-miterlimit:10;" d="
		M90.65,18.95c2.45,0.16,5.22,4.05,6.09,6.35"/>
	
		<path style="clip-path:url(#SVGID_2_);fill:none;stroke:#E5B076;stroke-width:3.5;stroke-linecap:round;stroke-linejoin:round;stroke-miterlimit:10;" d="
		M103.94,14.11c-0.42,1.51,0.16,4.88,1.6,5.49"/>
	
		<path style="clip-path:url(#SVGID_2_);fill:none;stroke:#E5B076;stroke-width:3.5;stroke-linecap:round;stroke-linejoin:round;stroke-miterlimit:10;" d="
		M100.48,25.85c1.65,0,2.95,0.54,4.6,0.53c0.28,0,0.58,0,0.81,0.17c0.21,0.15,0.31,0.4,0.4,0.64c0.49,1.28,3.14,2.2,3.63,3.48"/>
	
		<path style="clip-path:url(#SVGID_2_);fill:none;stroke:#E5B076;stroke-width:3.5;stroke-linecap:round;stroke-linejoin:round;stroke-miterlimit:10;" d="
		M91.09,32.08c-0.33,3.81,1.97,7.7,5.47,9.25"/>
	
		<path style="clip-path:url(#SVGID_2_);fill:none;stroke:#E5B076;stroke-width:3.5;stroke-linecap:round;stroke-linejoin:round;stroke-miterlimit:10;" d="
		M83.28,36.37c2.18,0.56,3.74,2.48,4.79,4.46c1.05,1.99,1.76,4.17,3.07,5.99"/>
	
		<path style="clip-path:url(#SVGID_2_);fill:none;stroke:#E5B076;stroke-width:3.5;stroke-linecap:round;stroke-linejoin:round;stroke-miterlimit:10;" d="
		M77.71,42.99c0.26,4.09,1.74,8.1,4.22,11.36"/>
	
		<path style="clip-path:url(#SVGID_2_);fill:none;stroke:#E5B076;stroke-width:3.5;stroke-linecap:round;stroke-linejoin:round;stroke-miterlimit:10;" d="
		M70.57,55.19c0.87,2.36,2.77,4.31,5.1,5.24"/>
	
		<path style="clip-path:url(#SVGID_2_);fill:none;stroke:#E5B076;stroke-width:3.5;stroke-linecap:round;stroke-linejoin:round;stroke-miterlimit:10;" d="
		M62.85,64c2.3,1.16,3.74,2.66,4.83,4.99"/>
	
		<path style="clip-path:url(#SVGID_2_);fill:none;stroke:#E5B076;stroke-width:3.5;stroke-linecap:round;stroke-linejoin:round;stroke-miterlimit:10;" d="
		M52.65,70.51c1.42,4.27,5.58,7.48,10.07,7.76"/>
	
		<path style="clip-path:url(#SVGID_2_);fill:none;stroke:#E5B076;stroke-width:3.5;stroke-linecap:round;stroke-linejoin:round;stroke-miterlimit:10;" d="
		M44.55,77.66c3.63,2.6,7.67,5.36,8.89,9.66c0.42,1.48,0.51,3.15,1.55,4.29"/>
	
		<path style="clip-path:url(#SVGID_2_);fill:none;stroke:#E5B076;stroke-width:3.5;stroke-linecap:round;stroke-linejoin:round;stroke-miterlimit:10;" d="
		M38.55,84.26c0.92,1.79,1.83,3.58,2.75,5.37c0.7,1.37,1.19,2.84,1.36,4.37c0.2,1.76,0.53,5.66,0.41,4.29"/>
	
		<path style="clip-path:url(#SVGID_2_);fill:none;stroke:#E5B076;stroke-width:3.5;stroke-linecap:round;stroke-linejoin:round;stroke-miterlimit:10;" d="
		M28.48,91.41c-0.3,3.86-0.47,6.78,1.3,10.22"/>
	
		<path style="clip-path:url(#SVGID_2_);fill:none;stroke:#E5B076;stroke-width:3.5;stroke-linecap:round;stroke-linejoin:round;stroke-miterlimit:10;" d="
		M18.2,96.45c-0.39,0.58-0.16,1.37,0.1,2.02c0.93,2.37,2.05,4.68,3.34,6.88"/>
	
		<path style="clip-path:url(#SVGID_2_);fill:none;stroke:#E5B076;stroke-width:3.5;stroke-linecap:round;stroke-linejoin:round;stroke-miterlimit:10;" d="
		M9.86,104.18c1.44,1.74,2.5,3.79,3.06,5.98"/>
	
		<path style="clip-path:url(#SVGID_2_);fill:none;stroke:#E5B076;stroke-width:3.5;stroke-linecap:round;stroke-linejoin:round;stroke-miterlimit:10;" d="
		M82.96,12.43c-0.62,2.33,0.1,4.96,1.82,6.65"/>
	
		<path style="clip-path:url(#SVGID_2_);fill:none;stroke:#E5B076;stroke-width:3.5;stroke-linecap:round;stroke-linejoin:round;stroke-miterlimit:10;" d="
		M113.92,25.38c1.43-0.32,2.81-0.83,4.12-1.49"/>
	
		<path style="clip-path:url(#SVGID_2_);fill:none;stroke:#E5B076;stroke-width:3.5;stroke-linecap:round;stroke-linejoin:round;stroke-miterlimit:10;" d="
		M108.29,34.04c0.84,1.72,1.73,3.42,2.67,5.08c0.38,0.68,2.15,1.31,2.89,1.07"/>
	
		<path style="clip-path:url(#SVGID_2_);fill:none;stroke:#E5B076;stroke-width:3.5;stroke-linecap:round;stroke-linejoin:round;stroke-miterlimit:10;" d="
		M98.4,41.99c1.83-0.83,5.32-0.65,7.05,0.36c1.73,1.01,4.31,3.67,6.18,4.39"/>
	
		<path style="clip-path:url(#SVGID_2_);fill:none;stroke:#E5B076;stroke-width:3.5;stroke-linecap:round;stroke-linejoin:round;stroke-miterlimit:10;" d="
		M89.16,52.48c-0.33,2.86,0.5,5.84,2.26,8.13"/>
	
		<path style="clip-path:url(#SVGID_2_);fill:none;stroke:#E5B076;stroke-width:3.5;stroke-linecap:round;stroke-linejoin:round;stroke-miterlimit:10;" d="
		M79.2,60.24c2.17,0.44,4.68,3.98,4.99,6.17"/>
	
		<path style="clip-path:url(#SVGID_2_);fill:none;stroke:#E5B076;stroke-width:3.5;stroke-linecap:round;stroke-linejoin:round;stroke-miterlimit:10;" d="
		M66.75,74.56c1.97,4.09,5.28,7.52,9.31,9.62"/>
	
		<path style="clip-path:url(#SVGID_2_);fill:none;stroke:#E5B076;stroke-width:3.5;stroke-linecap:round;stroke-linejoin:round;stroke-miterlimit:10;" d="
		M60.85,86.41c1.84-0.17,3.66-0.24,4.91,1.13c1.25,1.37,2.96,5.15,3.64,6.87"/>
	
		<path style="clip-path:url(#SVGID_2_);fill:none;stroke:#E5B076;stroke-width:3.5;stroke-linecap:round;stroke-linejoin:round;stroke-miterlimit:10;" d="
		M50.39,95.79c-0.4,2.4-0.56,4.87-0.12,7.27c0.43,2.4,1.49,4.73,3.25,6.41"/>
	
		<path style="clip-path:url(#SVGID_2_);fill:none;stroke:#E5B076;stroke-width:3.5;stroke-linecap:round;stroke-linejoin:round;stroke-miterlimit:10;" d="
		M36.76,101.17c1.52,1.44,3.07,2.9,4.07,4.74c1.54,2.81,1.61,5.31,1.67,8.51"/>
	
		<path style="clip-path:url(#SVGID_2_);fill:none;stroke:#E5B076;stroke-width:3.5;stroke-linecap:round;stroke-linejoin:round;stroke-miterlimit:10;" d="
		M26.87,104.22c0.71,1.13,1.38,2.31,1.74,3.59c0.25,0.91,0.34,1.85,0.62,2.75c0.66,2.19,2.31,3.92,3.9,5.56"/>
	
		<path style="clip-path:url(#SVGID_2_);fill:none;stroke:#E5B076;stroke-width:3.5;stroke-linecap:round;stroke-linejoin:round;stroke-miterlimit:10;" d="
		M21.12,108.78c-0.16,1.08-0.54,2.14-0.53,3.24c0.01,2.04,1.52,5.64,3.49,6.18"/>
	
		<path style="clip-path:url(#SVGID_2_);fill:none;stroke:#E5B076;stroke-width:3.5;stroke-linecap:round;stroke-linejoin:round;stroke-miterlimit:10;" d="
		M120.16,30.77c1.3,0.23,4.81,0.22,6.13,0.09"/>
	
		<path style="clip-path:url(#SVGID_2_);fill:none;stroke:#E5B076;stroke-width:3.5;stroke-linecap:round;stroke-linejoin:round;stroke-miterlimit:10;" d="
		M116.38,37.62c2.32-0.72,8.72,2.34,9.36,4.68"/>
	
		<path style="clip-path:url(#SVGID_2_);fill:none;stroke:#E5B076;stroke-width:3.5;stroke-linecap:round;stroke-linejoin:round;stroke-miterlimit:10;" d="
		M113.16,46.94c0.75,2.68,2.34,5.13,4.48,6.91"/>
	
		<path style="clip-path:url(#SVGID_2_);fill:none;stroke:#E5B076;stroke-width:3.5;stroke-linecap:round;stroke-linejoin:round;stroke-miterlimit:10;" d="
		M107.65,54.82c1.56,2.28,1.79,4.41,2.64,7.04"/>
	
		<path style="clip-path:url(#SVGID_2_);fill:none;stroke:#E5B076;stroke-width:3.5;stroke-linecap:round;stroke-linejoin:round;stroke-miterlimit:10;" d="
		M99.48,58.35c2.71,2.72,3.61,5.82,3.59,9.65"/>
	
		<path style="clip-path:url(#SVGID_2_);fill:none;stroke:#E5B076;stroke-width:3.5;stroke-linecap:round;stroke-linejoin:round;stroke-miterlimit:10;" d="
		M87.56,65.57c1.92,1.81,2.64,4.91,5.06,5.96"/>
	
		<path style="clip-path:url(#SVGID_2_);fill:none;stroke:#E5B076;stroke-width:3.5;stroke-linecap:round;stroke-linejoin:round;stroke-miterlimit:10;" d="
		M79.33,75.14c1.17,0.37,2.34,0.74,3.51,1.11c1.83,0.58,3.88,1.35,4.62,3.12"/>
	
		<path style="clip-path:url(#SVGID_2_);fill:none;stroke:#E5B076;stroke-width:3.5;stroke-linecap:round;stroke-linejoin:round;stroke-miterlimit:10;" d="
		M74.4,90.28c0.76,2.48,2.94,4.46,5.48,4.98"/>
	
		<path style="clip-path:url(#SVGID_2_);fill:none;stroke:#E5B076;stroke-width:3.5;stroke-linecap:round;stroke-linejoin:round;stroke-miterlimit:10;" d="
		M67.39,100.14c3.38,1.64,6.07,4.65,7.32,8.19"/>
	
		<path style="clip-path:url(#SVGID_2_);fill:none;stroke:#E5B076;stroke-width:3.5;stroke-linecap:round;stroke-linejoin:round;stroke-miterlimit:10;" d="
		M64,105.41c0.27,1.75,1.62,3.34,2.47,4.9c0.53,0.96,1.45,1.99,2.51,1.72"/>
	
		<path style="clip-path:url(#SVGID_2_);fill:none;stroke:#E5B076;stroke-width:3.5;stroke-linecap:round;stroke-linejoin:round;stroke-miterlimit:10;" d="
		M54.35,111.81c1.39,2.28,2.11,4.95,2.07,7.62"/>
	
		<path style="clip-path:url(#SVGID_2_);fill:none;stroke:#E5B076;stroke-width:3.5;stroke-linecap:round;stroke-linejoin:round;stroke-miterlimit:10;" d="
		M47.44,114.01c1.11,2.87,0.74,5.36-0.53,8.17"/>
	
		<path style="clip-path:url(#SVGID_2_);fill:none;stroke:#E5B076;stroke-width:3.5;stroke-linecap:round;stroke-linejoin:round;stroke-miterlimit:10;" d="
		M34.48,118.26c0.08,0.63-0.4,1.16-0.75,1.68c-1.37,2.02-1.02,4.7-0.62,7.11"/>
	<path style="clip-path:url(#SVGID_2_);fill:#CB9265;" d="M119.16,13.27c1.88,7,1.88,16.81-2.66,21.23
		c-6.67,6.5-5.12,12.34-10,15.67c-3.66,2.49-3.98,2.74-8,3.83c-2.71,0.74-5.98,3.84-8.5,4.83c-3.19,1.25-8.8,3.39-11.17,6.33
		c-1.44,1.79-3.02,4.84-4,7.17c-1.35,3.22-1.45,5.83-2.5,8.83C70.94,85.12,66.45,89,64,92c-4.14,5.08-7.91,5.42-13.35,9.94
		C43.4,107.95,37,112,28.25,112.75c-6.35,0.54-11.51-2.2-14-2.5c-6.23-0.75-9.55-5.64-10.96-14.04c-1.25,5.75-2.34,15.42,1.6,21.57
		c4.87,7.6,14.64,10.25,23.59,11.42c6.04,0.79,12.12,1.2,18.21,1.21c3.26,0.01,6.55-0.1,9.71-0.93c3.47-0.91,6.66-2.65,9.72-4.52
		c7.7-4.71,15.13-10.7,18.71-18.98c2.92-6.75,3.13-14.64,7.19-20.77c3.79-5.71,10.25-8.91,16.26-12.19
		c9.44-5.16,19.11-11.95,22.21-22.25c1.27-4.23,1.32-8.72,1.12-13.13c-0.33-7.15-0.98-15.78-7.23-19.27L119.16,13.27z"/>
</g>
</svg>
