<?xml version="1.0" encoding="utf-8"?>
<!-- Generator: Adobe Illustrator 26.3.1, SVG Export Plug-In . SVG Version: 6.00 Build 0)  -->
<svg version="1.1" id="Layer_1" xmlns="http://www.w3.org/2000/svg" xmlns:xlink="http://www.w3.org/1999/xlink" x="0px" y="0px"
	 viewBox="0 0 128 128" style="enable-background:new 0 0 128 128;" xml:space="preserve">
<path style="fill:#232020;" d="M39.03,42.85c0.03-0.02,2.58-1.67,3.14-4.46c0.36-1.79-0.18-4.06-0.76-6.45
	c-1.1-4.55-2.35-9.7,2.4-13.25c5.17-3.86,11.15-0.46,11.21-0.43c0.16,0.09,0.25,0.26,0.25,0.44l-0.02,1.77
	c0,0.24-0.17,0.44-0.4,0.49c-0.03,0.01-3.23,0.69-4.09,3.19c-0.66,1.94-0.62,4.18-0.58,6.56c0.06,3.18,0.12,6.46-1.58,9.2
	c-2.22,3.58-4.83,4.4-6.76,4.4c-1.62,0-2.76-0.58-2.78-0.59c-0.16-0.08-0.26-0.24-0.27-0.42C38.79,43.11,38.88,42.95,39.03,42.85z"
	/>
<radialGradient id="SVGID_1_" cx="-962.9219" cy="641.0479" r="1" gradientTransform="matrix(-13.1769 0 0 13.1769 -12639.5488 -8416.2314)" gradientUnits="userSpaceOnUse">
	<stop  offset="0.5264" style="stop-color:#444140;stop-opacity:0"/>
	<stop  offset="1" style="stop-color:#444140"/>
</radialGradient>
<path style="fill:url(#SVGID_1_);" d="M41.4,31.94c0.05,0.19,0.09,0.38,0.14,0.57l8.72-5.87c0.08-0.87,0.23-1.71,0.5-2.49
	c0.86-2.5,4.06-3.19,4.09-3.19c0.23-0.05,0.4-0.25,0.4-0.49l0.02-1.77c0-0.18-0.09-0.34-0.25-0.43c-0.06-0.04-6.05-3.43-11.22,0.42
	C39.06,22.24,40.31,27.39,41.4,31.94z"/>
<radialGradient id="SVGID_00000142143713107585014160000008483890184843394437_" cx="-951.5182" cy="634.9957" r="1" gradientTransform="matrix(-15.8356 0 0 15.8356 -15028.5332 -10014.5752)" gradientUnits="userSpaceOnUse">
	<stop  offset="0" style="stop-color:#444140"/>
	<stop  offset="0.5264" style="stop-color:#444140;stop-opacity:0"/>
</radialGradient>
<path style="fill:url(#SVGID_00000142143713107585014160000008483890184843394437_);" d="M38.8,43.3c0.01,0.18,0.11,0.34,0.27,0.42
	c0.03,0.01,1.16,0.59,2.78,0.59c1.93,0,4.54-0.82,6.76-4.4c1.7-2.74,1.64-6.02,1.58-9.19c-0.02-1.42-0.05-2.8,0.08-4.08l-8.72,5.87
	c0.52,2.18,0.96,4.23,0.63,5.89c-0.57,2.79-3.12,4.44-3.14,4.46C38.89,42.95,38.8,43.12,38.8,43.3z"/>
<path style="fill:#70534A;" d="M55.41,18.83c2.37-4.24,8-7.71,12.82-7.14c5.4,0.64,8.46,4.37,9.44,9.23
	c0.36,1.76,0.38,3.53,0.14,4.8c-0.03,0.15-0.28,1.26-0.28,1.6c-0.14,1.33,2.47,2.52,2.84,3.97c0.28,1.09-1.98,1.89-2.15,2.09
	c-0.85,1.02,0.78,5.69-5.47,6.4c-2.18,0.25-3.54-0.12-4.3-0.06c-1.8,0.15-2.8,6.11-2.8,6.11l-9.21-5.57c0,0,3.07-4.51,0.39-9.14
	C54.24,27.44,53.89,21.56,55.41,18.83z"/>
<path style="fill:#1A1717;" d="M77.69,36.04c-0.87,0.09-1.74-0.08-2.5-0.59c-0.83-0.56-0.31-1.25,0.63-0.9
	c0.57,0.21,1.36,0.29,2.07,0.13L77.69,36.04z"/>
<path style="fill:#232020;" d="M54.82,15.79c2.24-3.03,6.04-5.08,10.16-5.49c3.58-0.36,8.54,0.28,11.72,3.12
	c1.91,1.7,3.1,4.02,2.94,6.66c-0.1,1.59-1.68,2.41-1.68,2.41l-0.08-0.13c0,0-0.01-0.02-0.03-0.05l-0.14-0.25
	c-0.5-0.8-1.66-2.93-4.72-1.95c-3.78,1.21-5.52,0.45-5.52,0.45c1.45,2.99-1.06,6.62-1.34,7.02c-0.15,0.21-0.28,0.2-0.35-0.01
	c-0.17-0.49-0.5-1.36-0.74-1.77c-0.78-1.37-1.9-0.81-1.91-0.81c-1.53,0.62-1.92,3.84,0.72,5.59c0.06,0.04,0.21,0.14,0.16,0.47
	c-0.12,0.81-1.53,3.12-3.85,3.8c-0.31,0.09-0.58,0.15-0.83,0.18c-1.32,0.15-2.08-0.36-2.28-1.34c-0.43-2.14-0.93-2.74-1.65-3.64
	c-0.83-1.04-1.78-2.22-2.45-5.57C52.31,21.32,52.96,18.31,54.82,15.79z"/>
<radialGradient id="SVGID_00000084518264351666764050000017436619093436870022_" cx="-952.3141" cy="635.4181" r="1" gradientTransform="matrix(-15.6157 0 0 15.6157 -14804.6172 -9899.6455)" gradientUnits="userSpaceOnUse">
	<stop  offset="0.5264" style="stop-color:#444140;stop-opacity:0"/>
	<stop  offset="1" style="stop-color:#444140"/>
</radialGradient>
<path style="fill:url(#SVGID_00000084518264351666764050000017436619093436870022_);" d="M54.82,15.79
	c2.24-3.03,6.04-5.08,10.16-5.49c3.58-0.36,8.54,0.28,11.72,3.12c1.91,1.7,3.1,4.02,2.94,6.66c-0.1,1.59-1.68,2.41-1.68,2.41
	l-0.08-0.13c0,0-0.01-0.02-0.03-0.05l-0.14-0.25c-0.5-0.8-1.66-2.93-4.72-1.95c-3.78,1.21-5.52,0.45-5.52,0.45
	c1.45,2.99-1.06,6.62-1.34,7.02c-0.15,0.21-0.28,0.2-0.35-0.01c-0.17-0.49-0.5-1.36-0.74-1.77c-0.78-1.37-1.9-0.81-1.91-0.81
	c-1.53,0.62-1.92,3.84,0.72,5.59c0.06,0.04,0.21,0.14,0.16,0.47c-0.12,0.81-1.53,3.12-3.85,3.8c-0.31,0.09-0.58,0.15-0.83,0.18
	c-1.32,0.15-2.08-0.36-2.28-1.34c-0.43-2.14-0.93-2.74-1.65-3.64c-0.83-1.04-1.78-2.22-2.45-5.57
	C52.31,21.32,52.96,18.31,54.82,15.79z"/>
<path style="fill:#1A1717;" d="M73.09,28.28c-0.01-0.98,0.49-1.78,1.13-1.79c0.64-0.01,1.16,0.78,1.17,1.75
	c0.01,0.98-0.49,1.78-1.13,1.79C73.63,30.04,73.1,29.26,73.09,28.28z"/>
<path style="fill:#1A1717;" d="M75.01,25.61c1.15,0.22,1.34-0.55,0.91-1.1c-0.32-0.41-1.03-0.71-2.31-0.32
	c-1.21,0.36-1.64,1.12-1.93,1.59c-0.29,0.46-0.21,0.89,0.08,0.9C72.15,26.68,73.59,25.34,75.01,25.61z"/>
<path style="fill:#4568AD;" d="M84.57,116.74c-0.6,0.19-1.25-0.14-1.44-0.74l-0.85-2.67c-0.58-1.81,0.59-4.47,0.59-4.47l6.64-2.14
	l6.61,0.05c1.63,0.1,3.04,1.19,3.55,2.74l0.39,1.2c0.17,0.53-0.12,1.09-0.65,1.26L84.57,116.74z"/>
<path style="fill:#7C7C7C;" d="M44.86,67.06l17.02,3.62l0.13,2.55l7.94,0.18c4.88,0.48,11.67,0.17,14.27,10.49l6.89,22.59
	l-9.85,3.43c0,0-7.9-21.46-8.4-21.43c-0.5,0.02-15.14,0.81-24.77-0.5C38.49,86.7,44.86,67.06,44.86,67.06z"/>
<radialGradient id="SVGID_00000022519678249213959200000008953786354240181677_" cx="-946.2455" cy="613.8471" r="1" gradientTransform="matrix(-18.5134 -6.0729 -6.0729 18.5134 -13729.707 -17056.4551)" gradientUnits="userSpaceOnUse">
	<stop  offset="0.3637" style="stop-color:#651FFF"/>
	<stop  offset="0.8121" style="stop-color:#5914F2"/>
	<stop  offset="1" style="stop-color:#530EEB"/>
</radialGradient>
<path style="fill:url(#SVGID_00000022519678249213959200000008953786354240181677_);" d="M63.91,72.18
	c-1.55-12.08,1.22-12.23,3.31-20.12c1.06-4-0.37-8.61-1.95-10.5c-3.47-3.15-7.2-3.97-10.19-1.2c-5.89,5.48-12.5,26.92-12.5,26.92
	C47.29,75.96,63.91,72.18,63.91,72.18z"/>
<path style="fill:#C62828;" d="M45.53,93.17h4v7.14h-4V93.17z"/>
<path style="fill:#424242;" d="M84.76,119.99l15.98-5.19c1.16-0.38,1.8-1.63,1.42-2.79c-0.38-1.16-1.63-1.8-2.79-1.42l-15.98,5.19
	c-1.16,0.38-1.8,1.63-1.42,2.79C82.35,119.73,83.6,120.37,84.76,119.99z"/>
<path style="fill:#78909C;" d="M78.46,111.63c3.61,0,6.53,2.93,6.53,6.53c0,3.61-2.93,6.53-6.53,6.53c-3.61,0-6.53-2.93-6.53-6.53
	C71.92,114.56,74.85,111.63,78.46,111.63z"/>
<path style="fill:#F44336;" d="M34.38,59.87c1.81,0,1.81,1.94,1.81,2.59l0.25,29.21l32.67-1.77c9.36,0,13.66,3.58,17.04,14.18
	l4.78,13.87c0.17,0.5,0.14,1.05-0.09,1.53c-0.23,0.48-0.64,0.84-1.15,1.01c-0.21,0.07-0.43,0.11-0.65,0.11
	c-0.85,0-1.61-0.54-1.89-1.35l-3.55-10.29c-1.84,0.6-3.14,2.35-3.14,4.32v4.88c0,1.1-0.9,2-2,2s-2-0.9-2-2v-4.88
	c0-3.68,2.38-6.94,5.84-8.1c-2.84-8.85-5.68-11.28-13.07-11.29L36.38,95.8c-1.25,0-1.92-0.14-2.63-0.96
	c-0.79-0.95-0.8-2.47-0.8-2.48l-0.38-30.19C32.57,60.17,33.7,59.87,34.38,59.87z"/>
<path style="fill:#424242;" d="M78.48,120.33c0.99,0,1.8-0.66,1.96-1.65l0.33-3.35c0.08-0.53-0.37-1-0.95-1h-2.54
	c-0.57,0-1.01,0.45-0.96,0.97l0.12,3.39C76.44,119.59,77.49,120.33,78.48,120.33z"/>
<path style="fill:#424242;" d="M35.03,62.84c0-2.46,1.34-2.85,3.55-2.85h1.64c2.31,0.03,2.69,1.07,3.11,2.57
	c0.75,2.67,2.18,16.77,1.07,20.67c-0.03,0.1-0.08,0.22-0.12,0.32l28.96-0.85c1.73,0,3.19,0.63,3.77,4.09c0,0,0.11,0.44-0.09,2.12
	c-0.2,1.68-1.31,2.44-2.76,2.51L35.32,93.3l0.05-0.13c-0.06,0.05-0.1,0.08-0.1,0.08L35.03,62.84z"/>
<path style="fill:#212121;" d="M57.21,92.15c-2.22-2.9-5.67-4.56-10.02-4.35c-5.04,0.23-8.15,3.31-9.74,5.4l-3.4,0.07
	c-0.07-3.89-0.26-13.9-0.26-13.9c2.54-4.26,29.74-11.62,38.87,12.08L57.21,92.15z"/>
<path style="fill:#F44336;" d="M35.34,93.95l-1.81-0.56c0-2.09,0.26-15.91,0.26-15.91c2.67-4.46,31.97-12.63,40.07,15.72l-5.24-0.02
	l-8.37,0.49c-2.02-4.53-7.42-7.66-13.19-7.4C38.48,86.67,35.34,93.95,35.34,93.95z"/>
<radialGradient id="SVGID_00000085228257500882865610000008183505888193046437_" cx="-1703.7103" cy="1034.204" r="1.0003" gradientTransform="matrix(-1.1067 0 0 1.1067 -1837.9663 -1044.2474)" gradientUnits="userSpaceOnUse">
	<stop  offset="0" style="stop-color:#78909C"/>
	<stop  offset="0.5619" style="stop-color:#617A86"/>
	<stop  offset="1" style="stop-color:#546E7A"/>
</radialGradient>
<path style="fill:url(#SVGID_00000085228257500882865610000008183505888193046437_);" d="M47.53,101.41c0.61,0,1.11-0.5,1.11-1.11
	c0-0.61-0.5-1.11-1.11-1.11s-1.11,0.5-1.11,1.11C46.42,100.91,46.92,101.41,47.53,101.41z"/>
<path style="fill:#82AEC0;" d="M47.53,99.7c-0.33,0-0.61,0.27-0.61,0.61c0,0.33,0.27,0.61,0.61,0.61s0.61-0.27,0.61-0.61
	C48.14,99.97,47.86,99.7,47.53,99.7z M47.53,98.7c0.89,0,1.61,0.72,1.61,1.61c0,0.89-0.72,1.61-1.61,1.61s-1.61-0.72-1.61-1.61
	C45.92,99.42,46.64,98.7,47.53,98.7z"/>
<path style="stroke:#82AEC0;stroke-linecap:round;stroke-miterlimit:10;" d="M47.53,79.6v41.42"/>
<path style="stroke:#82AEC0;stroke-linecap:round;stroke-miterlimit:10;" d="M32.89,85.66l29.28,29.29"/>
<path style="stroke:#82AEC0;stroke-linecap:round;stroke-miterlimit:10;" d="M32.89,114.95l29.28-29.29"/>
<path style="stroke:#82AEC0;stroke-linecap:round;stroke-miterlimit:10;" d="M68.24,100.31H26.82"/>
<path style="fill:#78909C;" d="M47.53,75.91c13.47,0,24.39,10.92,24.39,24.39c0,13.47-10.92,24.4-24.39,24.4
	s-24.39-10.92-24.39-24.39C23.14,86.84,34.06,75.91,47.53,75.91z M47.53,120.05c10.9,0,19.74-8.84,19.74-19.74
	c0-10.9-8.84-19.74-19.74-19.74s-19.74,8.84-19.74,19.74C27.79,111.21,36.63,120.05,47.53,120.05z"/>
<path style="fill:#546E7A;" d="M47.53,83.58c-9.22,0-16.73,7.5-16.73,16.73c0,9.23,7.5,16.73,16.73,16.73s16.73-7.5,16.73-16.73
	C64.26,91.08,56.75,83.58,47.53,83.58z M47.53,82.58c9.79,0,17.73,7.94,17.73,17.73c0,9.79-7.94,17.73-17.73,17.73
	S29.8,110.1,29.8,100.31C29.8,90.52,37.74,82.58,47.53,82.58z"/>
<path style="fill:#757575;" d="M47.53,104.42c-2.27,0-4.11-1.84-4.11-4.11c0-2.27,1.84-4.11,4.11-4.11s4.11,1.84,4.11,4.11
	C51.64,102.58,49.8,104.42,47.53,104.42z"/>
<path style="stroke:#757575;stroke-linecap:round;stroke-miterlimit:10;" d="M100.18,110.93l-9.45,3.04"/>
<path style="fill:#C62828;" d="M35.14,76.21c0,0-1.49,0.66-2.35,1.81l-0.07-3.51c0.96-0.96,2.39-1.17,2.39-1.17L35.14,76.21z"/>
<path style="fill:#C62828;" d="M73.3,91.41l0.69,2.95c0,0,1.28,0.12,2.23-0.66c1.64-1.35,1.45-2.12,1.45-2.12
	c-0.45-0.35-1.73-0.78-1.73-0.78s-0.72,0.35-1.38,0.49C73.9,91.43,73.3,91.41,73.3,91.41z"/>
<path style="opacity:0.8;stroke:#94D1E0;stroke-width:2;stroke-linecap:round;stroke-miterlimit:10;enable-background:new    ;" d="
	M68.46,93.59c-1.51-4.89-4.89-9.53-9.79-12.21"/>
<linearGradient id="SVGID_00000163795003684035884020000002242501532284917150_" gradientUnits="userSpaceOnUse" x1="42.0636" y1="62.9225" x2="54.0635" y2="71.2946" gradientTransform="matrix(1 0 0 -1 0 130)">
	<stop  offset="0.5" style="stop-color:#70534A"/>
	<stop  offset="1" style="stop-color:#5C4037"/>
</linearGradient>
<path style="fill:url(#SVGID_00000163795003684035884020000002242501532284917150_);" d="M53.15,47.14l5.16,5.54l-9.88,6.89
	l3.68,13.42l-4.41,1.78c0,0-5.14-11.34-6.1-13.23c-1.58-3.14-1.44-5.08,0.53-7.32C43.18,53.04,53.15,47.14,53.15,47.14z"/>
<linearGradient id="SVGID_00000103948601423564353450000008107815099492934275_" gradientUnits="userSpaceOnUse" x1="53.7638" y1="48.6762" x2="52.6475" y2="51.2808" gradientTransform="matrix(1 0 0 -1 0 130)">
	<stop  offset="0" style="stop-color:#70534A"/>
	<stop  offset="1" style="stop-color:#5C4037"/>
</linearGradient>
<path style="fill:url(#SVGID_00000103948601423564353450000008107815099492934275_);" d="M47.37,73.49
	c0.23-0.18,0.43-0.35,0.62-0.51c0.39-0.33,0.76-0.64,1.35-1.01c0.72-0.44,4.15,0.93,4.93,1.22c0.26,0.1,0.5,0.19,0.72,0.29
	c0.3,0.13,0.53,0.36,0.63,0.63c0.04,0.05,0.08,0.11,0.12,0.2c0.01,0.04,0.02,0.07,0.02,0.11c0,0.01,0.25,1.5,0.65,2.31
	c0.16,0.31,0.07,0.84-0.26,0.96c0,0,0.19,0.77,0.33,1.16c0.17,0.46,0.12,0.61,0.14,0.82c0.04,0.36-0.1,0.63-0.36,0.8
	c-0.32,0.21-0.44,0.08-0.59,0.19c-0.15,0.11-0.1,0.29-0.14,0.5c-0.11,0.56-0.58,0.71-0.77,0.73c-0.62,0.06-0.8-0.33-0.91-0.33
	c-0.2,0.01-0.24,0.18-0.26,0.31c-0.06,0.28-0.36,0.43-0.64,0.52c-0.73,0.08-1.26-0.54-1.28-0.44c-0.08,0.37-0.72,0.65-1.09,0.5
	c-0.31-0.13-0.5,0.12-2.35-2.72c-0.37-0.5-0.97-1.84-1.37-3.12L46.67,76C46.37,75.04,46.64,74.06,47.37,73.49z"/>
<linearGradient id="SVGID_00000150781169959581234150000001794602819015878550_" gradientUnits="userSpaceOnUse" x1="52.4488" y1="52.2052" x2="54.6814" y2="48.2982" gradientTransform="matrix(1 0 0 -1 0 130)">
	<stop  offset="0.5" style="stop-color:#70534A"/>
	<stop  offset="1" style="stop-color:#5C4037"/>
</linearGradient>
<path style="fill:url(#SVGID_00000150781169959581234150000001794602819015878550_);" d="M49.06,71.88c1.76-0.67,6.6,1.02,6.72,2.61
	c0.03,0.36-0.46,0.92-0.9,0.73c0,0,0,0.43-0.03,0.53c-0.14,0.54-0.76,0.57-0.95,0.6c-0.35,0.05-0.52,0.13-0.53,0.48
	c-0.01,0.33-0.23,0.7-0.52,0.87c-0.32,0.18-0.57,0.22-0.96,0.12c-0.18-0.05-0.28,0.06-0.34,0.24c-0.08,0.25-0.28,0.59-0.49,0.69
	c-0.39,0.2-0.64,0.16-0.92,0.15c-0.18,0-0.26,0.02-0.38,0.16c-0.09,0.12-0.08,0.59-0.39,0.76c-1.39,0.73-2.2-2.24-2.73-3.97
	C46.25,74.59,47.07,72.64,49.06,71.88z"/>
<path style="fill:#3615AF;" d="M53.08,57.53l-5.87-9.39l8.35-5.22c2.59-1.62,6.01-0.83,7.63,1.76s0.83,6.01-1.76,7.63L53.08,57.53z"
	/>
</svg>
