<svg enable-background="new 0 0 128 128" viewBox="0 0 128 128" xmlns="http://www.w3.org/2000/svg" xmlns:xlink="http://www.w3.org/1999/xlink"><path d="m93.39 115.76c-7.56-4.94-19.35-2.43-24.52-19.93-1.39-4.68-1.51-13.83-1.51-13.83h-6.73s-0.12 9.15-1.5 13.83c-5.17 17.5-16.96 14.99-24.52 19.93-4.26 2.78-4.15 8.4-3.98 8.24h66.73c0.17 0.17 0.28-5.46-3.97-8.24z" fill="#212121"/><linearGradient id="c" x1="63.875" x2="63.875" y1="17.333" y2="88.002" gradientUnits="userSpaceOnUse"><stop stop-color="#616161" offset="0"/><stop stop-color="#212121" offset="1"/></linearGradient><path d="M93.38,42.25c-1.73,0-3.42,0.15-5.07,0.43c1.57-3.45,2.45-7.27,2.45-11.31 C90.75,16.26,78.49,4,63.38,4C48.26,4,36,16.26,36,31.38c0,3.97,0.85,7.74,2.37,11.15c-1.31-0.17-2.64-0.27-4-0.27 c-16.64,0-30.12,13.49-30.12,30.12s13.49,30.12,30.12,30.12c12.15,0,22.61-7.2,27.38-17.55c0.54,0.03,1.08,0.05,1.62,0.05 c0.87,0,1.74-0.05,2.59-0.13c4.75,10.4,15.23,17.63,27.41,17.63c16.64,0,30.12-13.49,30.12-30.12S110.01,42.25,93.38,42.25z" fill="url(#c)"/><g opacity=".2"><path d="m63.38 7c13.44 0 24.38 10.93 24.38 24.38 0 3.5-0.73 6.89-2.18 10.07-0.46 1.01-0.32 2.19 0.35 3.07 0.57 0.74 1.46 1.17 2.38 1.17 0.17 0 0.33-0.01 0.5-0.04 1.53-0.26 3.07-0.39 4.57-0.39 14.96 0 27.12 12.17 27.12 27.12s-12.17 27.12-27.12 27.12c-9.55 0-18.21-4.89-23.19-13.09-0.56-0.91-1.54-1.44-2.57-1.44-0.3 0-0.61 0.05-0.92 0.14-1.32 0.42-2.18 1.7-2.08 3.08 0.29 3.81 0.74 6.79 1.35 8.86 4.14 14.02 12.5 16.66 19.22 18.79 2.43 0.77 4.72 1.74 6.54 2.93 1.18 0.77 1.84 1.22 2.21 3.22h-59.86c0.38-2 1.03-2.35 2.18-3.1 1.81-1.18 4.08-2.05 6.49-2.84 6.74-2.2 15.12-5.01 19.27-19.07 0.64-2.15 1.1-5.29 1.39-9.25 0.1-1.39-0.77-2.68-2.11-3.1-0.3-0.07-0.6-0.13-0.89-0.13-1.05 0-2.04 0.55-2.59 1.49-4.86 8.34-13.84 13.51-23.44 13.51-14.96 0-27.12-12.17-27.12-27.13s12.17-27.13 27.12-27.13c1.16 0 2.37 0.08 3.6 0.25 0.13 0.02 0.26 0.03 0.4 0.03 0.94 0 1.83-0.44 2.4-1.21 0.65-0.87 0.78-2.03 0.34-3.02-1.4-3.14-2.11-6.48-2.11-9.92-0.01-13.44 10.92-24.37 24.37-24.37m0-3c-15.12 0-27.38 12.26-27.38 27.38 0 3.97 0.85 7.74 2.37 11.15-1.31-0.17-2.64-0.27-4-0.27-16.64 0-30.12 13.49-30.12 30.12s13.49 30.12 30.12 30.12c11.12 0 20.81-6.04 26.03-15-0.2 2.82-0.58 6.23-1.27 8.59-5.17 17.5-16.96 15.36-24.52 20.31-4.26 2.78-4.15 8.61-3.98 8.61h66.73c0.17 0 0.28-5.96-3.98-8.74-7.56-4.94-19.35-2.43-24.52-19.93-0.66-2.24-1.03-5.54-1.24-8.3 5.28 8.7 14.83 14.5 25.75 14.5 16.64 0 30.12-13.5 30.12-30.14s-13.49-30.13-30.12-30.13c-1.73 0-3.42 0.15-5.07 0.43 1.57-3.45 2.45-7.28 2.45-11.31 0-15.13-12.26-27.39-27.37-27.39z" fill="#eee"/></g><g display="none"><g display="inline" opacity=".3"><g opacity=".6"><circle cx="64" cy="64" r="28" fill="none" opacity=".61" stroke="#000" stroke-miterlimit="10" stroke-width=".2625"/><line x1="84" x2="84" y2="128" fill="none" opacity=".61" stroke="#000" stroke-miterlimit="10" stroke-width=".25"/><line x1="44" x2="44" y2="128" fill="none" opacity=".61" stroke="#000" stroke-miterlimit="10" stroke-width=".25"/><line x1="64" x2="64" y2="128" fill="none" opacity=".61" stroke="#000" stroke-miterlimit="10" stroke-width=".25"/><line x1="128" y1="64" y2="64" fill="none" opacity=".61" stroke="#000" stroke-miterlimit="10" stroke-width=".25"/><line x1="128" y1="44" y2="44" fill="none" opacity=".61" stroke="#000" stroke-miterlimit="10" stroke-width=".25"/><line x1="128" y1="83.75" y2="83.75" fill="none" opacity=".61" stroke="#000" stroke-miterlimit="10" stroke-width=".25"/><line x1="128" y1="128" fill="none" opacity=".61" stroke="#000" stroke-miterlimit="10" stroke-width=".25"/><line x2="128" y1="128" fill="none" opacity=".61" stroke="#000" stroke-miterlimit="10" stroke-width=".25"/><g opacity=".61"><path d="m64 4.26c32.94 0 59.74 26.8 59.74 59.74s-26.8 59.74-59.74 59.74-59.74-26.8-59.74-59.74 26.8-59.74 59.74-59.74m0-0.26c-33.14 0-60 26.86-60 60s26.86 60 60 60 60-26.86 60-60-26.86-60-60-60z"/></g><path d="m107.97 115.97h-87.94c-4.42 0-8.03-3.61-8.03-8.03v-87.91c0-4.42 3.61-8.03 8.03-8.03h87.94c4.42 0 8.03 3.61 8.03 8.03v87.91c0 4.42-3.61 8.03-8.03 8.03z" fill="none" opacity=".61" stroke="#000" stroke-miterlimit="10" stroke-width=".2578"/><path d="m99.75 124h-71.75c-4.4 0-8-3.6-8-8v-104c0-4.4 3.6-8 8-8h71.75c4.4 0 8 3.6 8 8v104c0 4.4-3.6 8-8 8z" fill="none" opacity=".61" stroke="#000" stroke-miterlimit="10" stroke-width=".2567"/><path d="M113.77,108H14.23 C8.6,108,4,103.4,4,97.77V30.28c0-5.63,4.6-10.23,10.23-10.23h99.54c5.63,0,10.23,4.6,10.23,10.23v67.48 C124,103.4,119.4,108,113.77,108z" fill="none" opacity=".61" stroke="#000" stroke-miterlimit="10" stroke-width=".2627"/></g><g opacity=".2"><defs><rect id="b" width="128" height="128" opacity=".2"/></defs><clipPath id="a"><use xlink:href="#b"/></clipPath><g clip-path="url(#a)"><g fill="none" stroke="#000" stroke-miterlimit="10" stroke-width=".25"><line x1="-28" x2="-28" y1="160" y2="-32"/><line x1="-24" x2="-24" y1="160" y2="-32"/><line x1="-20" x2="-20" y1="160" y2="-32"/><line x1="-16" x2="-16" y1="160" y2="-32"/><line x1="-12" x2="-12" y1="160" y2="-32"/><line x1="-8" x2="-8" y1="160" y2="-32"/><line x1="-4" x2="-4" y1="160" y2="-32"/><line y1="160" y2="-32"/><line x1="4" x2="4" y1="160" y2="-32"/><line x1="8" x2="8" y1="160" y2="-32"/><line x1="12" x2="12" y1="160" y2="-32"/><line x1="16" x2="16" y1="160" y2="-32"/><line x1="20" x2="20" y1="160" y2="-32"/><line x1="24" x2="24" y1="160" y2="-32"/><line x1="28" x2="28" y1="160" y2="-32"/><line x1="32" x2="32" y1="160" y2="-32"/><line x1="36" x2="36" y1="160" y2="-32"/><line x1="40" x2="40" y1="160" y2="-32"/><line x1="44" x2="44" y1="160" y2="-32"/><line x1="48" x2="48" y1="160" y2="-32"/><line x1="52" x2="52" y1="160" y2="-32"/><line x1="56" x2="56" y1="160" y2="-32"/><line x1="60" x2="60" y1="160" y2="-32"/><line x1="64" x2="64" y1="160" y2="-32"/><line x1="68" x2="68" y1="160" y2="-32"/><line x1="72" x2="72" y1="160" y2="-32"/><line x1="76" x2="76" y1="160" y2="-32"/><line x1="80" x2="80" y1="160" y2="-32"/><line x1="84" x2="84" y1="160" y2="-32"/><line x1="88" x2="88" y1="160" y2="-32"/><line x1="92" x2="92" y1="160" y2="-32"/><line x1="96" x2="96" y1="160" y2="-32"/><line x1="100" x2="100" y1="160" y2="-32"/><line x1="104" x2="104" y1="160" y2="-32"/><line x1="108" x2="108" y1="160" y2="-32"/><line x1="112" x2="112" y1="160" y2="-32"/><line x1="116" x2="116" y1="160" y2="-32"/><line x1="120" x2="120" y1="160" y2="-32"/><line x1="124" x2="124" y1="160" y2="-32"/><line x1="128" x2="128" y1="160" y2="-32"/><line x1="132" x2="132" y1="160" y2="-32"/><line x1="136" x2="136" y1="160" y2="-32"/><line x1="137" x2="137" y1="166.05" y2="-25.95"/><line x1="144" x2="144" y1="160" y2="-32"/><line x1="148" x2="148" y1="160" y2="-32"/><line x1="152" x2="152" y1="160" y2="-32"/><line x1="156" x2="156" y1="160" y2="-32"/></g><g fill="none" stroke="#000" stroke-miterlimit="10" stroke-width=".25"><line x1="-32" x2="160" y1="-28" y2="-28"/><line x1="-32" x2="160" y1="-24" y2="-24"/><line x1="-32" x2="160" y1="-20" y2="-20"/><line x1="-32" x2="160" y1="-16" y2="-16"/><line x1="-32" x2="160" y1="-12" y2="-12"/><line x1="-32" x2="160" y1="-8" y2="-8"/><line x1="-32" x2="160" y1="-4" y2="-4"/><line x1="-32" x2="160"/><line x1="-32" x2="160" y1="4" y2="4"/><line x1="-32" x2="160" y1="8" y2="8"/><line x1="-32" x2="160" y1="12" y2="12"/><line x1="-32" x2="160" y1="16" y2="16"/><line x1="-32" x2="160" y1="20" y2="20"/><line x1="-32" x2="160" y1="24" y2="24"/><line x1="-32" x2="160" y1="28" y2="28"/><line x1="-32" x2="160" y1="32" y2="32"/><line x1="-32" x2="160" y1="36" y2="36"/><line x1="-32" x2="160" y1="40" y2="40"/><line x1="-32" x2="160" y1="44" y2="44"/><line x1="-32" x2="160" y1="48" y2="48"/><line x1="-32" x2="160" y1="52" y2="52"/><line x1="-32" x2="160" y1="56" y2="56"/><line x1="-32" x2="160" y1="60" y2="60"/><line x1="-32" x2="160" y1="64" y2="64"/><line x1="-32" x2="160" y1="68" y2="68"/><line x1="-32" x2="160" y1="72" y2="72"/><line x1="-32" x2="160" y1="76" y2="76"/><line x1="-32" x2="160" y1="80" y2="80"/><line x1="-32" x2="160" y1="84" y2="84"/><line x1="-32" x2="160" y1="88" y2="88"/><line x1="-32" x2="160" y1="92" y2="92"/><line x1="-32" x2="160" y1="96" y2="96"/><line x1="-32" x2="160" y1="100" y2="100"/><line x1="-32" x2="160" y1="104" y2="104"/><line x1="-32" x2="160" y1="108" y2="108"/><line x1="-32" x2="160" y1="112" y2="112"/><line x1="-32" x2="160" y1="116" y2="116"/><line x1="-32" x2="160" y1="120" y2="120"/><line x1="-32" x2="160" y1="124" y2="124"/><line x1="-32" x2="160" y1="128" y2="128"/><line x1="-32" x2="160" y1="132" y2="132"/><line x1="-32" x2="160" y1="136" y2="136"/><line x1="-32" x2="160" y1="140" y2="140"/><line x1="-32" x2="160" y1="144" y2="144"/><line x1="-32" x2="160" y1="148" y2="148"/><line x1="-32" x2="160" y1="152" y2="152"/><line x1="-32" x2="160" y1="156" y2="156"/></g><path d="m159.75-31.75v191.5h-191.5v-191.5h191.5m0.25-0.25h-192v192h192v-192z"/></g></g><g fill="#F44336"><rect width="4" height="128" opacity=".3"/><rect x="124" width="4" height="128" opacity=".3"/><rect transform="matrix(-1.837e-16 1 -1 -1.837e-16 66 -62)" x="62" y="-58" width="4" height="120" opacity=".3"/><rect transform="matrix(-1.837e-16 1 -1 -1.837e-16 190 62)" x="62" y="66" width="4" height="120" opacity=".3"/></g></g></g></svg>
