<svg xmlns="http://www.w3.org/2000/svg" viewBox="0 0 128 128"><path d="M88.59 94.89v20.63s-.4 4.83 2.56 2.01c.52-.5 7.52-8.09 7.52-8.09l18.41-17.65s2.18-2.47 2.18-6.5V69.54s0-4.46-3.07-1.39c-3.06 3.07-24.25 20.63-24.25 20.63s-3.35 1.92-3.35 6.11zM86.26 87.2c-1.7.57-3.5.3-5.35.07-.12-.01-.24-.04-.35-.05-2.52-.44-5.13-.79-7.69-.7-2.21.07-4.57.55-6.2 2.17-2.54 2.54-5.29 8.27-9.26 8.47-4.98.24-10.25-1.11-15.21-1.59-2.06-.2-4.2-.26-6.21-.78-.77-.2-1.52-.49-2.2-.92-.34-.21-.69-.45-.97-.74-.35-.37-.66-.78-.25-1.26.28-.33.71-.51 1.06-.76.97-.66 15.93-12.31 16.77-13 .99-.81 2.41-.84 3.63-.73 1.58.15 3.17.29 4.75.42 3.17.26 30.41 3.49 31.66 3.56.43.03 1.36.03 1.53.57.21.62-3.61 4.56-5.71 5.27zM115.11 63.05c-.58.48-1.15.95-1.71 1.45-1.14.98-2.25 1.99-3.36 3-2.2 2.01-12.4 10.56-13.42 10.62-5.88.33-32.98-3.32-40.66-4.14-1.8-.19-3.58-.21-4.01-2.24-.25-1.23-.24-2.48-.32-3.73-.18-2.79-.31-5.58-.31-8.38 0-1.24-.17-2.74.13-3.94.18-.7.94-1.16 1.65-1.13.38.02 4.95.52 6.04.63 2.4.25 4.82.5 7.23.75 3.28.34 6.56.68 9.85 1.03 3.72.38 7.43.78 11.14 1.17 3.7.38 7.4.78 11.1 1.17 3.24.34 6.48.69 9.72 1.03l3.92.42c1.09.12 2.25.14 3.26.5.23.09.45.02.58.3.31.73-.35 1.09-.83 1.49z" fill="#fcc21b"/><path d="M83.24 115.98c.05 1.45.78 3.9-1 4.55-1.18.44-2.57.04-3.78-.1-8.88-1.05-66.12-8.07-67.22-9.22-1.19-1.23-.83-2.84-.88-4.4-.16-4.59.02-9.18.2-13.77.09-2.13-.1-4.46.26-6.56.17-1 .68-1.79 1.77-1.79.95 0 1.95.1 2.88.28 2.06.4 4.26.3 6.24 1.01 2.37.85 3.28 2.71 4.17 4.91.5 1.24.98 2.49 1.54 3.71.89 1.92 2.03 3.24 3.36 4.15 1.81 1.23 8.03 2.05 15.08 2.85 5.31.6 11.6 1.46 13.9 1.01 1.41-.27 2.74-.76 3.97-1.55 1.61-1.02 2.79-2.91 3.87-4.43.56-.8 1.11-1.62 1.66-2.43.3-.45.63-.89 1.16-1.04 1.65-.47 3.67.04 5.36.2 1.48.14 2.95.32 4.43.39.94.05 2.8-.08 3.13 1.08.28.95-.03 2.39-.05 3.38-.03 1.34-.06 2.69-.08 4.03-.09 4.58-.12 9.16.03 13.74z" fill="#fcc21b"/><path d="M14.39 79.76l10 1.16s6.35 1.35 6.93 5.2l.58 1.92 17.13-12.7s.77-.58.77-2.89v-12.7c0-2.7-2.12-2.5-3.66-1.54S14.39 79.76 14.39 79.76z" fill="#fcc21b"/><path d="M123.09 61.74c-.03-2.88-1.91-3.74-3.11-4.33-1.78-.88-4.2-1.11-6.57-1.42-8.37-1.08-49.45-5.37-59.99-6.29-1.53-.13-3.25.07-5.9 1.7-14.47 8.94-23.96 14.5-34.55 22.09-1.61 1.15-3.1 2.4-4.72 3.54-1.78 1.24-2.64 2.45-2.65 4.6-.1 9.44-1.06 18.79-.6 28.17.06 1.14.14 2.28.24 3.42.23 2.58 4.23 3.39 6.18 3.61 1.95.21 3.79.75 5.73 1.07 5.26.88 10.55 1.6 15.82 2.42 6.15.96 12.34 1.83 18.52 2.61 6.02.76 12.03 1.5 18.05 2.19 3.86.44 14.89 2.03 15.31 2.03 2.73 0 4.1-1.33 5.56-2.64 6.98-6.29 25.45-25.07 31.07-31.57 1.25-1.45 1.53-2.61 1.55-4.53.06-7.21.14-18.14.06-26.67zm-70.32-5.62c.17-.67.9-1.11 1.58-1.08.37.02 4.75.5 5.79.6 2.32.24 4.63.48 6.93.72 3.15.33 6.3.65 9.45.99 3.56.37 7.13.74 10.68 1.12 3.55.37 7.1.75 10.64 1.12l9.32.99c1.26.13 2.51.27 3.76.41 1.04.11 2.16.13 3.12.47.23.08.44.02.55.28.3.71-.33 1.07-.79 1.45-.56.45-1.11.92-1.65 1.39-1.09.94-2.16 1.91-3.22 2.88-2.11 1.93-11.89 10.13-12.87 10.18-5.63.32-31.63-3.18-38.99-3.97-1.72-.18-3.44-.2-3.85-2.15-.25-1.17-.23-2.38-.3-3.58-.17-2.67-.29-5.35-.3-8.04.03-1.19-.14-2.63.15-3.78zm-7.1 2.58c1.49-.93 3.53-1.12 3.53 1.49v12.27c0 2.23-.74 2.79-.74 2.79L31.91 87.51l-.56-1.86c-.56-3.72-6.69-5.02-6.69-5.02L15 79.52S44.17 59.63 45.67 58.7zm37.57 57.28c.05 1.45.78 3.9-1 4.55-1.18.44-2.57.04-3.78-.1-8.88-1.05-66.12-8.07-67.22-9.22-1.19-1.23-.83-2.84-.88-4.4-.16-4.59.02-9.18.2-13.77.09-2.13-.1-4.46.26-6.56.17-1 .68-1.79 1.77-1.79.95 0 1.95.1 2.88.28 2.06.4 4.26.3 6.24 1.01 2.37.85 3.28 2.71 4.17 4.91.5 1.24.98 2.49 1.54 3.71.89 1.92 2.03 3.24 3.36 4.15 1.81 1.23 8.03 2.05 15.08 2.85 5.31.6 11.6 1.46 13.9 1.01 1.41-.27 2.74-.76 3.97-1.55 1.61-1.02 2.79-2.91 3.87-4.43.56-.8 1.11-1.62 1.66-2.43.3-.45.63-.89 1.16-1.04 1.65-.47 3.67.04 5.36.2 1.48.14 2.95.32 4.43.39.94.05 2.8-.08 3.13 1.08.28.95-.03 2.39-.05 3.38-.03 1.34-.06 2.69-.08 4.03-.09 4.58-.12 9.16.03 13.74zm-2.93-28.71c-.12-.01-.23-.04-.34-.05-2.44-.42-4.97-.76-7.44-.68-2.13.07-4.43.53-5.99 2.1-2.47 2.46-5.12 8.01-8.97 8.2-4.83.24-9.92-1.08-14.72-1.54-2-.19-4.06-.25-6.01-.76-.75-.2-1.48-.48-2.13-.89-.32-.2-.67-.44-.94-.71-.34-.36-.64-.75-.24-1.22.27-.32.69-.5 1.03-.73.94-.64 15.42-11.92 16.23-12.58.96-.79 2.34-.81 3.52-.7 1.53.14 3.06.28 4.6.41 3.07.25 29.43 3.37 30.65 3.44.41.03 1.32.03 1.49.55.2.61-3.49 4.42-5.52 5.1-1.69.54-3.42.28-5.22.06zm38.95-2c0 4.03-2.18 6.5-2.18 6.5l-18.41 17.65s-7 7.59-7.52 8.09c-2.96 2.83-2.56-2.01-2.56-2.01V94.89c0-4.18 3.35-6.13 3.35-6.13s21.19-17.56 24.25-20.63c3.07-3.07 3.07 1.39 3.07 1.39v15.75z" fill="#855c52"/><g><path d="M65.83.84l24.68 33.68h-15.4v31.43H56.69V34.52H41.13L65.83.84z" fill="#ed6c30"/></g></svg>