<?xml version="1.0" encoding="utf-8"?>
<!-- Generator: Adobe Illustrator 19.2.1, SVG Export Plug-In . SVG Version: 6.00 Build 0)  -->
<svg version="1.1" id="レイヤー_1" xmlns="http://www.w3.org/2000/svg" xmlns:xlink="http://www.w3.org/1999/xlink" x="0px"
	 y="0px" viewBox="0 0 128 128" style="enable-background:new 0 0 128 128;" xml:space="preserve">
<g>
	<g>
		<g>
			<g>
				<path style="fill:#006CA2;" d="M118.26,25.12h-5.52c-0.41,0-0.75,0.33-0.75,0.75v100.27c0,0.41,0.33,0.75,0.75,0.75h5.52
					c0.41,0,0.75-0.34,0.75-0.75V25.87C119.01,25.45,118.67,25.12,118.26,25.12z"/>
				<path style="fill:#006CA2;" d="M89.95,68.29h-5.52c-0.31,0-0.57,0.25-0.57,0.57v57.29c0,0.31,0.26,0.56,0.57,0.56h5.52
					c0.32,0,0.56-0.25,0.56-0.56V68.86C90.52,68.54,90.27,68.29,89.95,68.29z"/>
				<path style="fill:#006CA2;" d="M62.49,102.26h-5.52c-0.2,0-0.36,0.16-0.36,0.36v23.51c0,0.2,0.16,0.36,0.36,0.36h5.52
					c0.2,0,0.37-0.16,0.37-0.36v-23.51C62.86,102.43,62.69,102.26,62.49,102.26z"/>
			</g>
			<g>
				<g>
					<path style="fill:#006CA2;" d="M126.28,0.46h-8.48c-0.33,0-0.62,0.22-0.71,0.53c-0.2,0.66-21.12,66.88-105.16,125.19
						c-0.27,0.18-0.39,0.52-0.29,0.84c0.1,0.31,0.39,0.52,0.71,0.52h27.62c0.19,0,0.37-0.07,0.5-0.19
						C112.8,62.51,126.88,5.27,127.03,4.53V1.21C127.03,0.79,126.7,0.46,126.28,0.46z"/>
					<path style="fill:#006CA2;" d="M102.32,4.74c0.02-0.07,0.03-0.14,0.03-0.21V1.21c0-0.41-0.33-0.75-0.75-0.75h-7.03
						c-0.31,0-0.58,0.19-0.7,0.47c-0.2,0.51-20.89,51.38-92.58,99.74c-0.2,0.14-0.33,0.37-0.33,0.62v12.45
						c0,0.28,0.15,0.53,0.4,0.66c0.11,0.06,0.23,0.09,0.35,0.09c0.14,0,0.29-0.04,0.42-0.13C86.58,56.37,102.17,5.25,102.32,4.74z"
						/>
				</g>
				<g>
					<path style="fill:#40C0E7;" d="M48.74,15.66c-0.25-0.15-0.57-0.09-0.74,0.13C28.71,40.34,1.83,48.45,1.56,48.53
						c-0.24,0.07-0.41,0.29-0.41,0.54v10.97c0,0.2,0.1,0.38,0.27,0.48c0.09,0.05,0.2,0.08,0.3,0.08c0.08,0,0.18-0.02,0.26-0.06
						c34.87-18.1,46.87-43.91,46.98-44.17C49.08,16.11,48.99,15.8,48.74,15.66z"/>
					<path style="fill:#40C0E7;" d="M1.72,40.16c0.05,0,0.12-0.01,0.17-0.03C30.54,29.76,38.68,14.1,38.75,13.95
						c0.11-0.21,0.05-0.47-0.14-0.62c-0.18-0.15-0.45-0.14-0.63,0.01C19.51,28.98,1.82,31.81,1.64,31.84
						c-0.25,0.04-0.43,0.25-0.43,0.5v7.32c0,0.16,0.09,0.32,0.22,0.41C1.52,40.13,1.62,40.16,1.72,40.16z"/>
				</g>
			</g>
		</g>
		<g>
			<g>
				<g>
					<g>
						<defs>
							<path id="SVGID_1_" d="M104.23,25.28c-0.53-2.23-1.79-4.7-3.33-6.4c-4.74-5.24-16.42-4.79-22.91-4.55
								c-1.29,0.05-2.61,0.15-3.87,0.47c-1.53,0.38-3.11,0.9-4.48,1.68c-0.5,0.29-1.02,0.6-1.5,0.95c-0.18,0.08-0.37,0.13-0.55,0.22
								c-1.18,0.6-2.3,1.33-3.32,2.17c-5.72,4.75-10.25,14.89-5.79,21.8c3.5,5.43,10.79,6.27,16.64,6.91
								c5.53,0.6,14.27,3.7,19.11-0.05C100.29,43.79,106.06,32.97,104.23,25.28z"/>
						</defs>
						<defs>
							<path id="SVGID_2_" d="M87.74,51.3L87.74,51.3c-2.79,0-5.79-0.57-8.44-1.07c-1.55-0.29-3.01-0.57-4.28-0.71
								c-5.73-0.62-13.58-1.48-17.37-7.36c-4.97-7.7,0.28-18.37,6-23.11c1.07-0.89,2.25-1.66,3.5-2.29c0.15-0.08,0.3-0.13,0.46-0.19
								c0.46-0.32,1.02-0.66,1.55-0.96c1.28-0.73,2.83-1.31,4.74-1.78c1.44-0.36,2.93-0.45,4.08-0.5c1.57-0.06,3.44-0.13,5.45-0.13
								c9.22,0,15.19,1.64,18.24,5.01c1.62,1.79,2.98,4.41,3.56,6.84c1.91,8.07-3.93,19.24-10.36,24.22
								C93.08,50.63,90.75,51.3,87.74,51.3z M83.41,15.19c-1.98,0-3.83,0.07-5.37,0.13c-1.05,0.04-2.41,0.12-3.68,0.44
								c-1.73,0.43-3.11,0.95-4.23,1.58c-0.47,0.27-0.95,0.56-1.4,0.89l-0.45,0.21c-0.08,0.03-0.16,0.06-0.24,0.1
								c-1.12,0.57-2.17,1.26-3.13,2.05c-5,4.16-9.88,13.85-5.59,20.49c3.27,5.08,10.28,5.84,15.91,6.46
								c1.34,0.15,2.85,0.43,4.44,0.73c2.56,0.49,5.47,1.03,8.06,1.03h0.01c2.56,0,4.48-0.53,5.88-1.61
								c5.94-4.6,11.33-15.07,9.64-22.19c-0.51-2.12-1.69-4.41-3.09-5.97C97.52,16.61,92.04,15.19,83.41,15.19z"/>
						</defs>
						<use xlink:href="#SVGID_1_"  style="overflow:visible;fill:#ED6C30;"/>
						<use xlink:href="#SVGID_2_"  style="overflow:visible;fill:#ED6C30;"/>
						<clipPath id="SVGID_3_">
							<use xlink:href="#SVGID_1_"  style="overflow:visible;"/>
						</clipPath>
						<clipPath id="SVGID_4_" style="clip-path:url(#SVGID_3_);">
							<use xlink:href="#SVGID_2_"  style="overflow:visible;"/>
						</clipPath>
					</g>
					<path style="fill:#2F2F2F;" d="M65.86,21.93c-0.03,0.05-0.06,0.1-0.09,0.15c-1.7,2.89-3.04,6.43,0.49,8.5
						c2.83,1.66,6.39,1.8,9.57,2.03c2.14,0.16,4.28,0.42,6.44,0.5c2.25,0.08,4.28-0.33,6.49-0.59c6.08-0.72,10.2-11.13,2.7-13.03
						c-2.85-0.72-5.73-1.38-8.65-1.74c-1.4-0.17-2.8-0.2-4.21-0.28c-1.19-0.07-2.39-0.43-3.58-0.29c-1.06,0.13-2.21,0.39-3.24,0.69
						C69.46,18.55,67.14,19.89,65.86,21.93z"/>
				</g>
				<g>
					<defs>
						<path id="SVGID_5_" d="M88.26,51.1c-0.22-2.28-1.12-4.9-2.42-6.8c-2.22-3.26-9.66-5.15-13.58-5.73
							c-1.97-0.29-3.93-0.69-5.92-0.94c-4.14-0.51-8.36-0.74-12.53-0.26c-1.51,0.17-2.98,0.79-4.4,1.7
							c-5.43,3.51-9.86,11.53-11.37,16.51c-1.41,4.66-1.87,10.39,1.29,14.47c2.12,2.74,5.45,3.97,8.75,4.58
							c6.93,1.28,15.1,2.93,22.14,1.67c5.7-1.02,8.7-6.47,12.09-10.61C85.83,61.4,88.82,56.91,88.26,51.1z"/>
					</defs>
					<defs>
						<path id="SVGID_6_" d="M64.71,77.75L64.71,77.75c-5.3,0-10.86-1.03-15.77-1.95l-1.03-0.19c-4.34-0.8-7.4-2.42-9.36-4.95
							C34.73,65.73,36,58.92,37.1,55.29c1.37-4.53,5.78-13.17,11.78-17.06c1.62-1.05,3.24-1.67,4.83-1.85
							c3.73-0.43,7.79-0.35,12.76,0.26c1.21,0.15,2.4,0.35,3.6,0.55c0.79,0.13,1.57,0.27,2.35,0.38c1.15,0.17,11.29,1.79,14.27,6.15
							c1.36,2,2.34,4.78,2.58,7.26c0.62,6.43-2.86,11.27-6.16,15.31c-0.62,0.76-1.23,1.57-1.85,2.38c-2.72,3.6-5.81,7.68-10.83,8.58
							C68.65,77.6,66.79,77.75,64.71,77.75z M58.59,38.11c-1.62,0-3.19,0.09-4.66,0.26c-1.28,0.15-2.62,0.67-3.97,1.54
							c-5.25,3.4-9.57,11.38-10.95,15.96c-0.98,3.26-2.15,9.35,1.13,13.58c1.63,2.12,4.3,3.5,8.14,4.21l1.03,0.19
							c4.82,0.9,10.29,1.91,15.4,1.91l0,0c1.96,0,3.71-0.14,5.35-0.44c4.25-0.76,6.97-4.35,9.59-7.82c0.63-0.83,1.26-1.66,1.9-2.44
							c3.05-3.73,6.26-8.19,5.72-13.86c-0.2-2.17-1.06-4.6-2.24-6.33c-1.77-2.59-7.93-4.56-12.91-5.31c-0.8-0.12-1.6-0.25-2.4-0.39
							c-1.16-0.2-2.33-0.4-3.51-0.54C63.39,38.28,60.9,38.11,58.59,38.11z"/>
					</defs>
					<use xlink:href="#SVGID_5_"  style="overflow:visible;fill:#ED6C30;"/>
					<use xlink:href="#SVGID_6_"  style="overflow:visible;fill:#ED6C30;"/>
					<clipPath id="SVGID_7_">
						<use xlink:href="#SVGID_5_"  style="overflow:visible;"/>
					</clipPath>
					<clipPath id="SVGID_8_" style="clip-path:url(#SVGID_7_);">
						<use xlink:href="#SVGID_6_"  style="overflow:visible;"/>
					</clipPath>
				</g>
				<path style="fill:#2F2F2F;" d="M50.06,43.64c-0.03,0.05-0.06,0.1-0.08,0.14c-1.65,2.75-2.95,6.19,0.47,8.53
					c2.74,1.88,6.19,2.3,9.27,2.79c2.08,0.33,4.15,0.76,6.23,1.01c2.18,0.26,4.14,0.01,6.28-0.08c5.89-0.23,9.87-10.32,2.62-12.81
					c-2.76-0.94-5.55-1.83-8.37-2.42c-1.36-0.28-2.71-0.42-4.08-0.61c-1.15-0.17-2.31-0.62-3.47-0.57
					c-1.03,0.05-2.14,0.21-3.13,0.43C53.56,40.55,51.31,41.7,50.06,43.64z"/>
				<g>
					<g>
						<defs>
							<path id="SVGID_9_" d="M70.11,75.29c-0.09-2.48-0.92-5.39-2.21-7.54c-3.93-6.52-16.37-7.01-23.07-8.24
								c-4.77-0.88-9.56-1.39-14.16,0.59c-5.68,2.46-9.81,7.44-12.96,12.62c-1.46,2.4-2.74,4.95-3.46,7.67
								c-1.27,4.79-1.95,10.07,1.39,14.2c3.03,3.76,8,5.41,12.54,6.5c5.35,1.28,11.37,3.31,16.93,2.68
								c5.2-0.58,9.51-3.57,12.91-7.36c3.35-3.74,7.27-7.67,9.74-12.06C69.23,81.75,70.23,78.32,70.11,75.29z"/>
						</defs>
						<defs>
							<path id="SVGID_10_" d="M42.96,104.89L42.96,104.89c-4,0-8.04-1.05-11.96-2.06c-1.04-0.27-2.06-0.53-3.05-0.77
								c-4.63-1.12-9.82-2.8-13.08-6.84c-3.72-4.61-2.79-10.48-1.58-15.08c0.66-2.49,1.8-5.01,3.57-7.94
								c4-6.58,8.39-10.84,13.41-13.02c2.27-0.98,4.72-1.46,7.51-1.46c2.57,0,5.09,0.4,7.22,0.8c1.18,0.22,2.54,0.41,4.01,0.62
								c6.86,0.98,16.26,2.32,19.73,8.09c1.35,2.24,2.25,5.31,2.35,8.02c0.12,3.04-0.81,6.62-2.47,9.59
								c-2.1,3.73-5.14,7.06-8.09,10.28c-0.6,0.66-1.2,1.31-1.77,1.96c-4.08,4.55-8.64,7.13-13.54,7.68
								C44.48,104.85,43.72,104.89,42.96,104.89z M37.79,59.72c-2.51,0-4.71,0.42-6.72,1.29c-4.64,2-8.72,6.01-12.5,12.23
								c-1.68,2.76-2.74,5.12-3.35,7.41c-1.16,4.4-1.94,9.43,1.2,13.32c2.89,3.58,7.68,5.12,12,6.15c1,0.24,2.04,0.51,3.08,0.78
								c3.79,0.98,7.71,2,11.45,2h0c0.69,0,1.37-0.03,2.05-0.11c4.4-0.49,8.53-2.86,12.28-7.03c0.58-0.65,1.18-1.31,1.79-1.97
								c2.87-3.14,5.84-6.38,7.82-9.91c1.47-2.62,2.32-5.89,2.22-8.54c-0.09-2.39-0.88-5.1-2.07-7.06
								c-2.98-4.95-11.83-6.22-18.3-7.14c-1.5-0.21-2.89-0.41-4.1-0.64C42.61,60.11,40.2,59.72,37.79,59.72z"/>
						</defs>
						<use xlink:href="#SVGID_9_"  style="overflow:visible;fill:#ED6C30;"/>
						<use xlink:href="#SVGID_10_"  style="overflow:visible;fill:#ED6C30;"/>
						<clipPath id="SVGID_11_">
							<use xlink:href="#SVGID_9_"  style="overflow:visible;"/>
						</clipPath>
						<clipPath id="SVGID_12_" style="clip-path:url(#SVGID_11_);">
							<use xlink:href="#SVGID_10_"  style="overflow:visible;"/>
						</clipPath>
					</g>
					<path style="fill:#2F2F2F;" d="M28.8,64.95c-0.03,0.06-0.06,0.1-0.09,0.16c-1.58,2.74-2.79,6.1,0.43,8.62
						c2.64,2.07,6.07,2.77,9.23,3.51c2.18,0.52,4.41,1.16,6.69,1.61c2.44,0.48,4.71,0.41,7.22,0.54
						c7.23,0.33,13.09-11.16,3.78-14.33c-3.37-1.14-6.67-2.21-9.94-2.89c-1.54-0.32-3.06-0.48-4.57-0.7
						c-1.25-0.19-2.5-0.68-3.73-0.63c-1.09,0.06-2.25,0.23-3.28,0.46C32.26,61.79,30.01,62.97,28.8,64.95z"/>
					<g>
						<path style="fill:#FFFFFF;" d="M18.16,85.77c1.27-1.53,4.04-1.74,5.24-0.08c0.88,1.22,1.07,2.69,0.23,3.97
							c-0.66,1.01-1.68,2.04-2.98,1.95C17.91,91.43,16.47,87.81,18.16,85.77z"/>
						<path style="fill:#FFFFFF;" d="M37.67,91.63c1.43-1.74,4.56-1.97,5.92-0.09c0.99,1.38,1.2,3.05,0.26,4.5
							c-0.73,1.14-1.9,2.3-3.37,2.21C37.38,98.03,35.76,93.94,37.67,91.63z"/>
					</g>
				</g>
			</g>
		</g>
	</g>
	<g>
		<path style="fill:#78A3AD;" d="M74.76,47.65c-0.27-0.88-0.7-1.74-0.7-2.75c0-1.12,0.83-2.04,0.87-3.17
			c0.03-0.78,0.09-1.49-0.1-2.22c-1.03-4.09-6.09-4.03-7.77-0.62c-0.85,1.73-0.33,3.05,0.18,4.76c0.3,0.98,0.29,1.73-0.22,2.56
			c-0.52,0.85-1.11,1.65-1.43,2.64c-0.35,1.08-1.03,2.32,0,3.04c1.4,0.99,3.09,0.98,4.66,1.24c0.78,0.13,1.62,0.27,2.3-0.32
			c0.86-0.75,1.75-1.75,2.21-2.92C75.08,49.07,74.97,48.36,74.76,47.65z"/>
		<path style="fill:#78A3AD;" d="M62.51,36.24c-0.03-0.14-0.06-0.29-0.1-0.43c-0.44-1.73-1.8-2.85-3.34-2.95
			c-1.59-0.1-3.5,0.46-4.51,1.96c-0.82,1.21-0.98,3.01-0.59,4.45c0.36,1.32,1.3,2.35,0.46,3.75c-0.77,1.29-1.85,2.76-1.88,4.42
			c-0.04,2.31,4.69,2.67,6.14,2.79c1.25,0.1,2.52-1.45,3.11-2.55c1.15-2.16,0.14-2.5-0.47-4.44c-0.29-0.92,0.19-2.45,0.55-3.27
			C62.41,38.72,62.74,37.58,62.51,36.24z"/>
		<g>
			<path style="fill:#78A3AD;" d="M56.04,70.73c-0.26-0.98-0.72-1.95-0.67-3.06c0.07-1.22,1.08-2.17,1.19-3.41
				c0.07-0.84,0.18-1.62,0-2.44c-0.97-4.56-6.89-4.86-9.03-1.25c-1.09,1.84-0.54,3.32-0.05,5.23c0.29,1.09,0.25,1.92-0.4,2.79
				c-0.65,0.89-1.39,1.73-1.82,2.79c-0.47,1.16-1.33,2.47-0.17,3.34c1.58,1.18,3.56,1.3,5.37,1.7c0.91,0.2,1.88,0.42,2.71-0.18
				c1.05-0.76,2.13-1.79,2.74-3.04C56.33,72.31,56.25,71.52,56.04,70.73z"/>
			<path style="fill:#78A3AD;" d="M43.04,57.28c-0.02-0.16-0.04-0.32-0.08-0.49c-0.38-1.95-1.81-3.29-3.49-3.51
				c-1.72-0.22-3.83,0.25-5.01,1.85c-0.96,1.29-1.23,3.26-0.88,4.9c0.32,1.49,1.28,2.7,0.3,4.18c-0.91,1.38-2.16,2.94-2.28,4.77
				c-0.17,2.55,4.96,3.3,6.52,3.53c1.36,0.19,2.82-1.43,3.52-2.61c1.36-2.31,0.28-2.76-0.27-4.96c-0.26-1.04,0.33-2.7,0.76-3.59
				C42.79,60.02,43.21,58.77,43.04,57.28z"/>
		</g>
		<path style="fill:#78A3AD;" d="M90.94,23.59c-0.41-0.83-1.01-1.61-1.14-2.61c-0.14-1.11,0.65-2.15,0.55-3.29
			c-0.07-0.77-0.1-1.48-0.41-2.18c-1.68-3.88-7.31-3-8.73,0.67c-0.72,1.85,0.04,3.07,0.82,4.68c0.45,0.92,0.55,1.67,0.08,2.58
			c-0.46,0.92-1.02,1.81-1.25,2.85c-0.26,1.12-0.85,2.47,0.4,3.01c1.69,0.75,3.57,0.47,5.35,0.47c0.89,0,1.84,0,2.52-0.7
			c0.87-0.89,1.72-2.02,2.08-3.26C91.47,24.95,91.26,24.26,90.94,23.59z"/>
		<path style="fill:#78A3AD;" d="M77.05,14.02c-0.04-0.13-0.09-0.28-0.15-0.41c-0.69-1.64-2.24-2.54-3.86-2.39
			c-1.67,0.15-3.58,1-4.45,2.64c-0.71,1.33-0.65,3.13-0.05,4.49c0.54,1.25,1.65,2.12,0.96,3.63c-0.65,1.4-1.58,3.02-1.4,4.66
			c0.25,2.29,5.23,1.91,6.75,1.79c1.32-0.1,2.44-1.83,2.91-3.01c0.93-2.31-0.17-2.49-1.05-4.31c-0.42-0.86-0.12-2.45,0.15-3.32
			C77.26,16.49,77.47,15.3,77.05,14.02z"/>
	</g>
</g>
</svg>
