<?xml version="1.0" encoding="utf-8"?>
<!-- Generator: Adobe Illustrator 19.2.1, SVG Export Plug-In . SVG Version: 6.00 Build 0)  -->
<svg version="1.1" xmlns="http://www.w3.org/2000/svg" xmlns:xlink="http://www.w3.org/1999/xlink" x="0px" y="0px"
	 viewBox="0 0 128 128" style="enable-background:new 0 0 128 128;" xml:space="preserve">
<g id="Layer_2">
</g>
<g id="图层_1">
	<path id="XMLID_12_" style="fill:#2A56C6;" d="M17.5,118.45v10h93.87v-10c0-15.34-23.4-23.13-46.94-23.1
		C41.05,95.37,17.5,102.2,17.5,118.45z"/>
	<path style="fill:#004373;" d="M64.52,95.27c-8.69,0-14.54,1.06-14.54,1.06l6,31.67h8.54V95.27z"/>
	<path style="fill:#004373;" d="M64.08,95.27c8.4,0,14.12,1.05,14.12,1.05L72.73,128h-8.65V95.27z"/>
	<path id="XMLID_11_" style="fill:#E49800;" d="M64,90.08h-9.08v9.59c0,4.34,3.7,7.86,8.26,7.86h1.65c4.56,0,8.26-3.52,8.26-7.86
		v-9.59H64z"/>
	<polygon style="fill:#FFCC00;" points="67.16,114.09 61.52,114.09 59.75,106.59 68.87,106.59 	"/>
	<polygon style="fill:#FFCC00;" points="69.16,132.38 59.52,132.38 61.52,114.09 67.16,114.09 	"/>
	<g>
		<path id="XMLID_2792_" style="fill:#6D4C41;" d="M26.74,54.93c0,0-0.01-8.39-0.01-19.81c0-11.94,8.76-28.47,38.04-28.47
			c20.44,0,28.08,8.09,28.08,13.48c0,0,7.59,1.36,8.34,11.09c0.52,6.83-0.15,23.25-0.15,23.25s-0.83-0.73-1.76-1.16
			c-0.5-0.23-1-0.33-1-0.33l-1.38,9.37L86.75,42.67c-0.06-0.12-0.19-0.18-0.32-0.17l-4.12,0.49c-11.87,1.41-23.87,1.45-35.75,0.13
			L41,42.5c-0.13-0.01-0.26,0.06-0.32,0.18L31.3,62.29l-1.42-9.54c0,0-0.98,0.39-1.86,1.07C27.19,54.46,26.74,54.93,26.74,54.93z"/>
		<g id="XMLID_2789_">
			<path id="XMLID_2791_" style="fill:#E59600;" d="M97.09,52.31c0,0,6.06,1.05,6.06,7.57c0,5.75-4.42,8.03-8.84,8.03v-15.6H97.09z"
				/>
			<path id="XMLID_2790_" style="fill:#E59600;" d="M31.03,52.31c0,0-6.06,1.05-6.06,7.57c0,5.75,4.42,8.03,8.84,8.03v-15.6H31.03z"
				/>
		</g>
		<path id="XMLID_2788_" style="fill:#FCC21B;" d="M64.06,9.59c-26.1,0-32.93,20.23-32.93,48.66c0,29.48,18.95,37.1,32.93,37.1
			c13.78,0,32.93-7.4,32.93-37.1C97,29.83,90.17,9.59,64.06,9.59z"/>
		<path id="XMLID_2787_" style="fill:#4C3734;" d="M73.5,77.88c-1.32,0-9.43,0-9.43,0s-8.11,0-9.43,0c-1.08,0-1.55,0.73-0.83,1.82
			c1,1.52,4.72,4.46,10.26,4.46s9.26-2.93,10.26-4.46C75.04,78.61,74.58,77.88,73.5,77.88z"/>
		<path id="XMLID_2786_" style="fill:#513F35;" d="M73.5,77.88c-1.32,0-9.43,0-9.43,0s-8.11,0-9.43,0c-1.08,0-1.55,0.73-0.83,1.82
			c1,1.52,4.72,4.46,10.26,4.46s9.26-2.93,10.26-4.46C75.04,78.61,74.58,77.88,73.5,77.88z"/>
		<path id="XMLID_2785_" style="fill:#E59600;" d="M68.62,69.86c-1.61,0.45-3.27,0.68-4.56,0.68c-1.29,0-2.95-0.22-4.56-0.68
			c-0.69-0.19-0.96,0.46-0.71,0.89c0.51,0.9,2.56,2.7,5.27,2.7c2.71,0,4.76-1.81,5.27-2.7C69.58,70.32,69.31,69.67,68.62,69.86z"/>
		<path id="XMLID_2784_" style="fill:#444444;" d="M53.33,60.11c0,2.9-1.94,5.26-4.35,5.26c-2.41,0-4.36-2.36-4.36-5.26
			c0-2.91,1.96-5.27,4.36-5.27C51.39,54.84,53.33,57.2,53.33,60.11"/>
		<path id="XMLID_2783_" style="fill:#444444;" d="M74.79,60.11c0,2.9,1.95,5.26,4.36,5.26c2.4,0,4.36-2.36,4.36-5.26
			c0-2.91-1.96-5.27-4.36-5.27C76.74,54.84,74.79,57.2,74.79,60.11"/>
		<path id="XMLID_2782_" style="fill:#6D4C41;" d="M31.13,60.11l-1.74-10.71c0,0-3.77-41.3,35.57-41.3s33.21,43.09,33.21,43.09
			l-1.2,8.92L86.75,42.8c0,0-19.42,1.56-44.64-0.33L31.13,60.11z"/>
		<g>
			<path id="XMLID_2781_" style="fill:#262626;" d="M64,39.75c-18.69,0.13-35.62,3.51-35.62,3.51S37.09,53.2,64,53.41
				c26.91-0.21,35.62-10.15,35.62-10.15S82.69,39.88,64,39.75z"/>
			<path id="XMLID_2780_" style="fill:#2A56C6;" d="M103.02,22.38c-2.3-2.94-4.11-4.72-7.08-6.87c-9.26-6.66-22.11-9.65-31.59-9.65
				c-0.11,0-0.23,0.01-0.35,0.01c-0.11,0-0.24-0.01-0.35-0.01c-9.48,0-22.33,2.99-31.59,9.65c-2.98,2.15-4.78,3.93-7.08,6.87
				c-3.38,4.32-4.08,10.96-1.97,16.55c1.69,4.47,3.69,7.52,3.69,7.52c1.87-3.79,4.52-6.13,8.15-7.14
				c3.72-1.03,17.24-2.16,29.15-2.67c11.91,0.5,25.43,1.64,29.15,2.67c3.63,1.01,6.27,3.35,8.15,7.14c0,0,2.01-3.05,3.69-7.52
				C107.1,33.34,106.41,26.7,103.02,22.38z"/>
			<path id="XMLID_2779_" style="fill:#3B78E7;" d="M97.54,32.72c0,0-14.58-8.73-33.54-8.83c-18.96,0.1-33.54,8.83-33.54,8.83
				l-1.6,10.54c0,0,16.15-3.53,35.13-3.57c18.98,0.04,35.13,3.57,35.13,3.57L97.54,32.72z"/>
			<path id="XMLID_2778_" style="fill:#F7CB4D;" d="M71.59,16.55L71.59,16.55c-0.27,0-0.51,0.14-0.65,0.36
				c-0.57,0.91-1.4,1.53-2.87,1.53c-1.43,0-2.47-1.39-3.1-2.26c-0.2-0.27-0.51-0.44-0.84-0.44l0,0c-0.34,0-0.65,0.17-0.85,0.45
				c-0.61,0.86-1.61,2.25-3.03,2.25c-1.47,0-2.3-0.62-2.87-1.53c-0.14-0.23-0.39-0.36-0.65-0.36l0,0c-0.25,0-0.48,0.12-0.63,0.32
				l-0.32,0.44c-0.38,0.52-0.44,1.22-0.15,1.8l0,0c0.43,0.87,0.66,1.83,0.66,2.8v3.79c0,2.76,4.26,8.41,7.87,8.41
				c3.61,0,7.87-5.65,7.87-8.41V21.9c0-0.97,0.23-1.93,0.66-2.8v0c0.29-0.58,0.23-1.27-0.15-1.8l-0.32-0.44
				C72.07,16.67,71.83,16.55,71.59,16.55z"/>
		</g>
	</g>
	<g>
		<path style="fill:#004373;" d="M45.18,103.91c-9.37,2.11-14.35,2.11-23.72,0c-1.34-0.3-2.17-1.52-1.86-2.66
			c0.29-1.08,0.44-1.62,0.74-2.69c0.31-1.14,1.5-1.79,2.67-1.53c8.15,1.83,12.48,1.83,20.63,0c1.17-0.26,2.35,0.4,2.67,1.53
			c0.29,1.08,0.44,1.62,0.74,2.69C47.35,102.38,46.52,103.61,45.18,103.91z"/>
	</g>
	<g>
		<path style="fill:#004373;" d="M83.29,103.91c9.37,2.11,14.35,2.11,23.72,0c1.34-0.3,2.17-1.52,1.86-2.66
			c-0.29-1.08-0.44-1.62-0.74-2.69c-0.31-1.14-1.5-1.79-2.67-1.53c-8.15,1.83-12.48,1.83-20.63,0c-1.17-0.26-2.35,0.4-2.67,1.53
			c-0.29,1.08-0.44,1.62-0.74,2.69C81.13,102.38,81.95,103.61,83.29,103.91z"/>
	</g>
	<path style="fill:#3B78E7;" d="M73.27,95.67L73.27,95.67c0,1.53-1.31,4.42-3.4,6.82c-2.12,2.44-5.65,3.95-5.65,3.95l13.24,11.08
		l0.87-21.19C78.33,96.34,75.25,95.86,73.27,95.67z"/>
	<path style="fill:#3B78E7;" d="M55.25,95.66L55.25,95.66c0,1.53,1.31,4.42,3.4,6.82c2.12,2.44,5.65,3.95,5.65,3.95l-13.55,11.09
		l-0.56-21.21C50.19,96.31,53.22,95.83,55.25,95.66z"/>
</g>
</svg>
