<?xml version="1.0" encoding="utf-8"?>
<!-- Generator: Adobe Illustrator 16.0.0, SVG Export Plug-In . SVG Version: 6.00 Build 0)  -->
<!DOCTYPE svg PUBLIC "-//W3C//DTD SVG 1.1//EN" "http://www.w3.org/Graphics/SVG/1.1/DTD/svg11.dtd">
<svg version="1.1" id="レイヤー_1" xmlns="http://www.w3.org/2000/svg" xmlns:xlink="http://www.w3.org/1999/xlink" x="0px"
	 y="0px" width="128px" height="128px" viewBox="0 0 128 128" enable-background="new 0 0 128 128" xml:space="preserve">
<g>
	<path fill="#2F2F2F" d="M60.4,113.55c0,0,3.74-1.93,4.6-1.42h49.97l1.31-28.53l-9.79-22.59L22.4,59.45l-9.27,18.54l0.52,30.29
		l20.11,7.05L60.4,113.55z"/>
	<g>
		<g>
			<path fill="#FCC21B" d="M0.41,94.13C0.36,94.75,0.27,95.37,0.25,96c-0.14,5.78,1.41,11.37,5.66,15.92
				c5.2,5.58,14.52,8.88,25.49,8.88c9.01,0,19.13-2.23,28.99-7.25c-4.7-3.21-9.02-6.89-13.2-10.48l-0.12-0.11
				c-0.25-0.21-0.46-0.46-0.71-0.68c-0.76,0.22-1.53,0.46-2.32,0.59c-5.5,0.89-9.89,1.27-13.38,1.27c-11.84,0-13.36-4.37-12.68-8.15
				c1.02,2.98,4.8,4.55,9.32,4.25c0.96,0.1,2.04,0.17,3.36,0.17c3.42,0,7.66-0.4,12.58-1.19c-1.15-1.23-2.23-2.49-3.3-3.73
				c-0.68-0.79-1.36-1.58-2.05-2.37c-2.09-2.35-4.49-4.62-7.13-6.73c-0.35-0.29-0.91-0.65-1.58-1.11c-1.43-0.98-3.41-2.33-5.11-3.81
				c-3.83-3.35-5.1-7.21-3.49-10.59c0.73-1.53,2.68-4.09,7.56-4.09c0.94,0,1.97,0.09,3.12,0.29c3.81,0.62,7.2,2.07,10.47,3.48
				l0.18,0.08c3.29,1.42,7.54,3.44,11.31,6.49c2.78,2.24,5.38,4.68,7.88,7.03c0.97,0.92,1.92,1.78,2.89,2.65
				c0.96-0.87,1.93-1.73,2.9-2.65c2.51-2.35,5.1-4.78,7.88-7.03c3.77-3.05,8.03-5.07,11.32-6.49l0.19-0.08
				c3.26-1.41,6.65-2.86,10.46-3.48c1.17-0.2,2.18-0.29,3.13-0.29c4.88,0,6.83,2.56,7.57,4.09c1.62,3.39,0.34,7.24-3.49,10.59
				c-1.71,1.49-3.68,2.83-5.11,3.81c-0.68,0.46-1.24,0.82-1.59,1.11c-2.64,2.11-5.03,4.38-7.12,6.73c-0.69,0.78-1.37,1.57-2.06,2.37
				c-1.07,1.25-2.24,2.48-3.4,3.71c4.96,0.8,9.24,1.21,12.68,1.21c1.32,0,2.4-0.07,3.36-0.17c4.53,0.3,8.3-1.27,9.33-4.25
				c0.69,3.78-0.85,8.15-12.69,8.15c-3.49,0-7.88-0.38-13.38-1.27c-5.54-0.9-10.6-3.9-15.08-7.12
				c-6.53-4.69-11.77-10.71-17.99-15.72c-3.16-2.55-6.74-4.36-10.45-5.96c-3.17-1.37-6.35-2.76-9.78-3.31
				c-0.74-0.12-1.63-0.24-2.52-0.24c-1.72,0-3.46,0.41-4.2,1.97c-1.1,2.32,0.96,4.75,2.58,6.17c2.39,2.09,5.44,3.91,6.57,4.83
				c2.71,2.16,5.28,4.56,7.58,7.16c2.87,3.23,5.53,6.67,8.83,9.49c4.49,3.85,9.01,7.75,13.97,11.02c1.11,0.72,2.24,1.42,3.41,2.04
				c10.09,5.27,20.5,7.6,29.72,7.6c10.97,0,20.3-3.3,25.51-8.88c4.24-4.54,5.79-10.13,5.65-15.92c-0.01-0.63-0.1-1.27-0.16-1.89
				c-0.41-4.95-1.9-9.97-4-14.57c-3.81-8.33-13.66-19.65-19.6-31.18v0.01C99.48,39.62,89.27,21.25,64,21.25
				c-25.26,0-35.49,18.37-39.98,27.11C18.06,59.88,8.23,71.2,4.42,79.53C2.31,84.14,0.82,89.18,0.41,94.13L0.41,94.13z"/>
			<path fill="#FCC21B" d="M80.64,98.13c2.36-2.37,4.47-4.98,6.69-7.48c2.32-2.6,4.88-5,7.59-7.16c1.13-0.92,4.19-2.74,6.57-4.83
				c1.63-1.42,3.69-3.85,2.58-6.17c-0.75-1.55-2.48-1.97-4.2-1.97c-0.9,0-1.79,0.11-2.53,0.24c-3.43,0.55-6.61,1.94-9.78,3.31
				c-3.7,1.6-7.29,3.41-10.44,5.96c-3.62,2.92-6.91,6.14-10.32,9.27c1.39,1.19,2.78,2.36,4.25,3.43
				C73.7,94.63,77.01,96.79,80.64,98.13z"/>
		</g>
		<path fill="#2F2F2F" d="M55.96,64.81c3.54-2.1,7.93-2.81,12.39-1.38c2.76,0.87,8.83,3.84,7.93,6.49
			c-0.46,1.37-1.91,2.31-3.64,2.16c-1.66-0.13-5.19-3.15-6.97-3.64c-1.84-0.51-2.99-0.57-4.56,0.47c-2.07,1.38-3.68,4.03-7.06,3.19
			c-1.41-0.35-2.53-1.15-2.29-2.91C51.98,67.51,54.52,65.66,55.96,64.81z"/>
	</g>
	<path fill="#2F2F2F" d="M88.54,44.92c-0.19-0.53-0.59-0.97-1.11-1.19c-0.52-0.22-1.11-0.21-1.63,0.02l-13.11,5.99
		c0,0-0.86,0.41-1.73,0.39c-0.78-0.01-1.23-0.23-1.57-0.53l-0.01,0.01c0,0-0.04-0.04-0.05-0.06c-0.06-0.06-0.12-0.11-0.17-0.17
		c-0.29-0.27-0.84-0.66-1.65-0.4c-0.82,0.27-0.93,1.28-0.81,2.17c0.22,0.99,0.5,1.85,0.81,2.46c0.47,0.94,1.51,2.24,1.87,2.59
		c1.96,1.94,5.3,3.15,8.7,2.95c1.4-0.08,2.75-0.38,4.02-0.9C89.21,55.34,89.85,48.69,88.54,44.92z"/>
	<path fill="#2F2F2F" d="M38.2,44.92c0.18-0.53,0.59-0.97,1.11-1.19c0.52-0.22,1.11-0.21,1.63,0.02l13.11,5.99
		c0,0,0.86,0.41,1.73,0.39c0.78-0.01,1.23-0.23,1.57-0.53l0.02,0.01c0,0,0.03-0.04,0.04-0.06c0.06-0.06,0.13-0.11,0.17-0.17
		c0.29-0.27,0.85-0.66,1.66-0.4c0.82,0.27,0.93,1.28,0.81,2.17c-0.22,0.99-0.5,1.85-0.81,2.46c-0.46,0.94-1.51,2.24-1.87,2.59
		c-1.96,1.94-5.3,3.15-8.71,2.95c-1.4-0.08-2.75-0.38-4.02-0.9C37.53,55.34,36.88,48.69,38.2,44.92z"/>
</g>
</svg>
