<?xml version="1.0" encoding="utf-8"?>
<!-- Generator: Adobe Illustrator 19.2.1, SVG Export Plug-In . SVG Version: 6.00 Build 0)  -->
<svg version="1.1" id="レイヤー_1" xmlns="http://www.w3.org/2000/svg" xmlns:xlink="http://www.w3.org/1999/xlink" x="0px"
	 y="0px" viewBox="0 0 128 128" style="enable-background:new 0 0 128 128;" xml:space="preserve">
<g>
	<g>
		<defs>
			<path id="SVGID_1_" d="M123.04,6.67c-1.22-1.75-3.62-2.18-5.37-0.96L95.63,21.1c-0.67,0.46-1.17,1.13-1.44,1.9L84.08,52.03
				L66.76,20.6c-0.74-1.34-2.22-2.12-3.73-1.98c-1.53,0.14-2.83,1.18-3.31,2.63l-24.4,73.97l-11.9-9.96
				c-1.55-1.29-3.82-1.18-5.23,0.26L2.3,101.73v9.46c0.97-0.02,1.93-0.4,2.66-1.15l16.24-16.56l13.52,11.31
				c0.98,0.82,2.31,1.1,3.53,0.75c1.23-0.35,2.21-1.29,2.61-2.5l23.41-70.96L81.5,63.34c0.73,1.33,2.17,2.12,3.71,1.98
				c1.52-0.12,2.82-1.14,3.32-2.57l12.54-36.03l21.02-14.67C123.83,10.82,124.26,8.42,123.04,6.67z"/>
		</defs>
		<use xlink:href="#SVGID_1_"  style="overflow:visible;fill:#ED6C30;"/>
		<clipPath id="SVGID_2_">
			<use xlink:href="#SVGID_1_"  style="overflow:visible;"/>
		</clipPath>
	</g>
	<path style="fill:#2F2F2F;" d="M122.08,128H2.2c-1.21,0-2.2-0.99-2.2-2.2V6.73c0-1.22,0.99-2.2,2.2-2.2c1.22,0,2.2,0.99,2.2,2.2
		v116.86h117.67c1.22,0,2.21,0.99,2.21,2.2S123.3,128,122.08,128z"/>
</g>
</svg>
