<svg width="128" height="128" style="enable-background:new 0 0 128 128;" xmlns="http://www.w3.org/2000/svg" xmlns:xlink="http://www.w3.org/1999/xlink">
  <g>
    <linearGradient id="SVGID_1_" gradientUnits="userSpaceOnUse" x1="64" x2="64" y1="3.25" y2="123.0519">
      <stop offset="0" style="stop-color:#FFAB40"/>
      <stop offset="1" style="stop-color:#FF6D00"/>
    </linearGradient>
    <circle cx="64" cy="64" r="60" style="fill:url(#SVGID_1_);"/>
    <g style="opacity:0.2;">
      <path d="M64,7c31.43,0,57,25.57,57,57s-25.57,57-57,57S7,95.43,7,64S32.57,7,64,7 M64,4 C30.86,4,4,30.86,4,64s26.86,60,60,60s60-26.86,60-60S97.14,4,64,4L64,4z" style="fill:#424242;"/>
    </g>
    <g style="opacity:0.2;">
      <path d="M40.84,23.2c0.24,0,0.49,0.04,0.73,0.14l4.13,1.61c1.24,0.48,1.68,2.02,0.87,3.08 c-5.09,6.63-12.18,13.41-18.98,18.21c-0.36,0.25-0.76,0.37-1.16,0.37c-0.69,0-1.36-0.35-1.73-1c-0.63-1.1-1.4-2.32-2.11-3.37 c-0.61-0.9-0.38-2.13,0.51-2.75c6.04-4.17,12.44-10.12,16.11-15.43C39.59,23.5,40.21,23.2,40.84,23.2 M95.91,25.17 c1.1,0,2,0.9,2,2v26.04c0,1.1-0.9,2-2,2H56.68c-1.1,0-2-0.9-2-2V27.17c0-1.1,0.9-2,2-2H95.91 M64.75,37.28h22.72c1.1,0,2-0.9,2-2 v-2.01c0-1.1-0.9-2-2-2H64.75c-1.1,0-2,0.9-2,2v2.01C62.75,36.38,63.65,37.28,64.75,37.28 M64.75,49.03h22.72c1.1,0,2-0.9,2-2 v-2.01c0-1.1-0.9-2-2-2H64.75c-1.1,0-2,0.9-2,2v2.01C62.75,48.13,63.65,49.03,64.75,49.03 M42.87,42.7c0.25,0,0.5,0.05,0.74,0.14 l3.62,1.46c1.15,0.46,1.61,1.85,0.96,2.91c-1.75,2.84-3.8,5.72-5.93,8.55c-0.26,0.35-0.4,0.77-0.4,1.2v45.76c0,1.1-0.9,2-2,2 h-4.07c-1.1,0-2-0.9-2-2V70.39c0-1.2-0.98-2-2.01-2c-0.48,0-0.96,0.17-1.37,0.55c-1.33,1.26-2.66,2.44-3.98,3.56 c-0.38,0.32-0.84,0.48-1.29,0.48c-0.74,0-1.47-0.41-1.82-1.16c-0.67-1.45-1.51-3.14-2.27-4.5c-0.48-0.87-0.27-1.97,0.53-2.57 c7.13-5.35,14.57-13.15,19.57-21.1C41.54,43.05,42.19,42.7,42.87,42.7 M99.49,60.33c1.1,0,2,0.9,2,2v2.9c0,1.1-0.9,2-2,2h-7.12 c-1.1,0-2,0.9-2,2v2.55c0,1.1,0.9,2,2,2h8.82c1.1,0,2,0.9,2,2v3.17c0,1.1-0.9,2-2,2h-8.82c-1.1,0-2,0.9-2,2v13.16 c0,4.12-0.81,6.19-3.77,7.35c-2.71,1.15-6.54,1.32-12.05,1.34c0,0-0.01,0-0.01,0c-0.89,0-1.69-0.58-1.93-1.44 c-0.29-1.04-0.67-2.17-1.1-3.26c-0.51-1.32,0.45-2.74,1.86-2.74c0.02,0,0.03,0,0.05,0c1.46,0.03,2.83,0.05,3.96,0.05 c1.36,0,2.41-0.02,2.93-0.06c1.34-0.09,1.7-0.36,1.7-1.44V82.95c0-1.1-0.9-2-2-2H49.51c-1.1,0-2-0.9-2-2v-3.17c0-1.1,0.9-2,2-2 h30.52c1.1,0,2-0.9,2-2v-2.55c0-1.1-0.9-2-2-2H51.66c-1.1,0-2-0.9-2-2v-2.9c0-1.1,0.9-2,2-2H99.49 M60.13,82.03 c0.5,0,0.99,0.19,1.38,0.55c3.06,2.89,6.44,6.45,8.65,9.34c0.69,0.9,0.49,2.19-0.43,2.84l-2.96,2.11 c-0.35,0.25-0.76,0.37-1.16,0.37c-0.62,0-1.24-0.29-1.62-0.84c-1.96-2.78-4.98-6.28-7.87-9.27c-0.87-0.9-0.72-2.36,0.32-3.05 l2.58-1.72C59.36,82.14,59.74,82.03,60.13,82.03 M40.84,20.2c-1.63,0-3.16,0.8-4.09,2.14C33.47,27.07,27.45,32.83,21.4,37 c-2.25,1.55-2.83,4.65-1.29,6.9c0.67,0.98,1.39,2.14,1.99,3.18c0.89,1.55,2.55,2.51,4.33,2.51c1.04,0,2.04-0.32,2.89-0.92 c7.06-4.98,14.4-12.02,19.63-18.83c0.96-1.26,1.27-2.85,0.84-4.38c-0.43-1.53-1.53-2.74-3.01-3.32l-4.13-1.61 C42.07,20.31,41.46,20.2,40.84,20.2L40.84,20.2z M95.91,22.17H56.68c-2.76,0-5,2.24-5,5v26.04c0,1.7,0.85,3.21,2.16,4.11h-2.18 c-2.76,0-5,2.24-5,5v2.9c0,2.76,2.24,5,5,5h27.37v0.55H49.51c-2.11,0-3.92,1.31-4.65,3.16V57.29c2.49-3.33,4.37-6.04,5.89-8.51 c0.77-1.26,0.95-2.79,0.49-4.19c-0.46-1.4-1.51-2.52-2.88-3.07l-3.62-1.46c-0.59-0.24-1.22-0.36-1.86-0.36h0 c-1.73,0-3.32,0.88-4.25,2.36c-4.6,7.32-11.64,14.9-18.83,20.29c-1.98,1.48-2.56,4.25-1.35,6.42c0.66,1.19,1.47,2.8,2.17,4.3 c0.81,1.76,2.6,2.9,4.54,2.9c1.18,0,2.33-0.42,3.23-1.19c0.85-0.73,1.65-1.42,2.41-2.1v30.04c0,2.76,2.24,5,5,5h4.07 c2.76,0,5-2.24,5-5V80.79c0.73,1.85,2.54,3.16,4.65,3.16h3.37c-0.15,0.4-0.26,0.83-0.31,1.27c-0.16,1.48,0.35,2.94,1.38,4.01 c2.96,3.06,5.79,6.39,7.58,8.91c0.93,1.32,2.46,2.11,4.07,2.11c1,0,1.96-0.29,2.79-0.85c0,0.61,0.12,1.22,0.34,1.8 c0.4,1.03,0.75,2.06,1,2.97c0.6,2.14,2.58,3.63,4.82,3.63c5.42-0.02,9.82-0.15,13.19-1.57c4.95-1.97,5.63-6.03,5.63-10.13V83.95 h7.82c2.76,0,5-2.24,5-5v-3.17c0-2.76-2.24-5-5-5h-7.82v-0.55h6.12c2.76,0,5-2.24,5-5v-2.9c0-2.76-2.24-5-5-5h-0.74 c1.3-0.9,2.16-2.41,2.16-4.11V27.17C100.91,24.42,98.66,22.17,95.91,22.17L95.91,22.17z M65.75,34.27h20.72v0.01L65.75,34.27 L65.75,34.27L65.75,34.27z M65.75,46.02h20.72v0.01L65.75,46.02L65.75,46.02L65.75,46.02z M67.16,83.95h11.87v10.46 c-0.4,0.01-0.93,0.01-1.63,0.01c-1.19,0-2.53-0.02-3.89-0.05l-0.03,0l-0.06,0c0.04-0.17,0.08-0.33,0.1-0.5 c0.2-1.35-0.15-2.69-0.98-3.78C71.15,88.28,69.26,86.13,67.16,83.95L67.16,83.95z" style="fill:#424242;"/>
    </g>
    <path d="M48.19,47.21c-1.75,2.84-3.8,5.72-5.93,8.55c-0.26,0.35-0.4,0.77-0.4,1.2v45.76c0,1.1-0.9,2-2,2 h-4.07c-1.1,0-2-0.9-2-2V70.39c0-1.76-2.1-2.65-3.38-1.44c-1.33,1.26-2.66,2.44-3.98,3.56c-1,0.86-2.55,0.52-3.1-0.68 c-0.67-1.45-1.51-3.14-2.27-4.5c-0.48-0.87-0.27-1.97,0.53-2.57c7.13-5.35,14.57-13.15,19.57-21.1c0.52-0.83,1.55-1.18,2.45-0.81 l3.62,1.46C48.38,44.76,48.84,46.15,48.19,47.21z M46.57,28.02c-5.09,6.63-12.18,13.41-18.98,18.21c-0.97,0.68-2.3,0.39-2.89-0.63 c-0.63-1.1-1.4-2.32-2.11-3.37c-0.61-0.9-0.38-2.13,0.51-2.75c6.04-4.17,12.44-10.12,16.11-15.43c0.52-0.76,1.5-1.04,2.35-0.71 l4.13,1.61C46.94,25.42,47.38,26.96,46.57,28.02z M101.2,80.95h-8.82c-1.1,0-2,0.9-2,2v13.16c0,4.12-0.81,6.19-3.77,7.35 c-2.71,1.15-6.54,1.32-12.05,1.34c-0.89,0-1.7-0.58-1.93-1.44c-0.29-1.04-0.67-2.17-1.1-3.26c-0.52-1.34,0.48-2.77,1.91-2.74 c3.22,0.08,5.93,0.06,6.89-0.01c1.34-0.09,1.7-0.36,1.7-1.44V82.95c0-1.1-0.9-2-2-2H49.51c-1.1,0-2-0.9-2-2v-3.17c0-1.1,0.9-2,2-2 h30.52c1.1,0,2-0.9,2-2v-2.55c0-1.1-0.9-2-2-2H51.66c-1.1,0-2-0.9-2-2v-2.9c0-1.1,0.9-2,2-2h47.83c1.1,0,2,0.9,2,2v2.9 c0,1.1-0.9,2-2,2h-7.12c-1.1,0-2,0.9-2,2v2.55c0,1.1,0.9,2,2,2h8.82c1.1,0,2,0.9,2,2v3.17C103.2,80.06,102.3,80.95,101.2,80.95z M61.51,82.58c3.06,2.89,6.44,6.45,8.65,9.34c0.69,0.9,0.49,2.19-0.43,2.84l-2.96,2.11c-0.9,0.64-2.15,0.44-2.79-0.47 c-1.96-2.78-4.98-6.28-7.87-9.27c-0.87-0.9-0.72-2.36,0.32-3.05l2.58-1.72C59.8,81.85,60.82,81.93,61.51,82.58z M95.91,55.21 H56.68c-1.1,0-2-0.9-2-2V27.17c0-1.1,0.9-2,2-2h39.22c1.1,0,2,0.9,2,2v26.04C97.91,54.32,97.01,55.21,95.91,55.21z M87.48,31.27 H64.75c-1.1,0-2,0.9-2,2v2.01c0,1.1,0.9,2,2,2h22.72c1.1,0,2-0.9,2-2v-2.01C89.48,32.17,88.58,31.27,87.48,31.27z M87.48,43.02 H64.75c-1.1,0-2,0.9-2,2v2.01c0,1.1,0.9,2,2,2h22.72c1.1,0,2-0.9,2-2v-2.01C89.48,43.91,88.58,43.02,87.48,43.02z" style="fill:#FAFAFA;"/>
  </g>
</svg>