<svg width="128" height="128" style="enable-background:new 0 0 128 128;" xmlns="http://www.w3.org/2000/svg" xmlns:xlink="http://www.w3.org/1999/xlink">
  <style type="text/css">
.st0{fill:#D1EBED;}
.st1{fill:#FFFFFF;}
.st2{fill:#FBCC2F;}
.st3{clip-path:url(#SVGID_2_);fill:#E5A315;}
.st4{fill:#E5A315;}
.st5{fill:#AECECE;}
.st6{clip-path:url(#SVGID_4_);fill:#E5A315;}
.st7{fill:#FF6F00;}
  </style>
  <g>
    <g>
      <path class="st0" d="M40.3,110.8c-2.1-1.2-4.6-2.4-5.8-4c-0.4-0.6-0.9-2.3-0.7-4.7c0.2-2.6,2.1-10.9,5.7-19.5 c0.3-0.6,0.9-1.3,1.6-1.9c0.2-0.2,0.5-0.7,0.1-1l-3.4-0.9L34.3,78c-0.5,0.1-0.5,0.6-0.4,0.9c0.3,0.8,0.5,1.7,0.4,2.4 c-1.2,9.3-3.7,17.3-4.8,19.7c-1.1,2.2-2.3,3.4-3,3.7c-1.8,0.8-4.6,0.6-7,0.5c-1.6,0-5.4-0.2-5.9,1.9c-0.7,2.6,7.5,6.3,14.4,8.1 s15.8,2.8,16.5,0.2C45.1,113.3,41.7,111.6,40.3,110.8z"/>
      <path class="st0" d="M66.5,23.4l-26-7c0,0-8.5,19.6-10.7,39.7c-2,18.6,4.6,24.5,7.2,25.2c2.6,0.7,11.3-1.1,18.9-18.2 C64.2,44.6,66.5,23.4,66.5,23.4z"/>
      <path class="st1" d="M20.3,107.7c-0.5-0.2-1.1-0.2-1.2,0.3c-0.1,0.3,0.3,0.6,0.6,0.8c1.3,0.8,3.6,1.7,6,2.5c0.3,0.1,1,0.2,1.2,0 c0.3-0.2,0.2-0.5,0-0.8c-0.2-0.3-0.6-0.4-0.9-0.6C23,108.9,22.5,108.7,20.3,107.7z"/>
      <path class="st2" d="M61.1,37.7L38,31.5C32,54.1,31.8,73,38.8,74.8l0,0l0,0l0,0C45.8,76.7,55.1,60.3,61.1,37.7z"/>
      <g>
        <defs>
          <path id="SVGID_1_" d="M61.1,35.3c-0.4-0.5-0.9-0.2-1.5-0.2c-2.5,0.2-4.8-0.5-6.9-1.9c-2-1.3-3.9-2.8-6.2-3.7 c-1.5-0.6-3.1-0.8-4.6-0.6c-1.1,0.1-2.3,0.4-3.2,1.2c-0.7,0.7-0.8,2-0.9,2.9c-0.2,1.8,0,3.7,0.7,5.3c1.2,2.6,3.5,4.4,6,5.6 c0.8,0.4,1.5,0.7,2.4,0.9c0.7,0.2,1.4,0.3,2.1,0.4c2.7,0.3,5.5,0,7.8-1.4c1.5-0.9,2.7-2.2,3.5-3.8c0.5-1,0.9-2.1,1.1-3.2 c0.1-0.5,0.1-0.9-0.1-1.4C61.2,35.4,61.2,35.4,61.1,35.3z"/>
        </defs>
        <use style="overflow:visible;fill:#FBCC2F;" xlink:href="#SVGID_1_"/>
        <clipPath id="SVGID_2_">
          <use style="overflow:visible;" xlink:href="#SVGID_1_"/>
        </clipPath>
        <path class="st3" d="M58.7,35.2c-8.5-0.8-16-0.2-19.3-3.1c-2.4-2,0.6-3.4,3.2-3.5c6.4,0,7.9,3.3,11.2,4.6 C55.8,34.1,56.6,34.8,58.7,35.2z"/>
      </g>
      <g>
        <ellipse class="st4" cx="40.7" cy="69.9" rx="1.1" ry="1.1" transform="matrix(0.2588 -0.9659 0.9659 0.2588 -37.3528 91.1758)"/>
        <ellipse class="st4" cx="43.8" cy="67.7" rx="0.7" ry="0.7" transform="matrix(0.2588 -0.9659 0.9659 0.2588 -32.8652 92.497)"/>
        <ellipse class="st4" cx="39.5" cy="65.1" rx="1.3" ry="1.3" transform="matrix(0.2588 -0.9659 0.9659 0.2588 -33.5373 86.4245)"/>
        <ellipse class="st4" cx="44.3" cy="64.9" rx="1.4" ry="1.4" transform="matrix(0.2588 -0.9659 0.9659 0.2588 -29.875 90.9437)"/>
        <ellipse class="st4" cx="41.6" cy="58.2" rx="1.1" ry="1.1" transform="matrix(0.2588 -0.9659 0.9659 0.2588 -25.3737 83.3485)"/>
        <ellipse class="st4" cx="44.3" cy="59.5" rx="1" ry="1" transform="matrix(0.2588 -0.9659 0.9659 0.2588 -24.624 86.821)"/>
        <ellipse class="st4" cx="49.8" cy="54.5" rx="1" ry="1" transform="matrix(0.2588 -0.9659 0.9659 0.2588 -15.6968 88.5391)"/>
        <ellipse class="st4" cx="42.4" cy="46.5" rx="1.2" ry="1.2" transform="matrix(0.2588 -0.9659 0.9659 0.2588 -13.5457 75.3997)"/>
        <ellipse class="st4" cx="46" cy="56.7" rx="1.5" ry="1.5" transform="matrix(0.2588 -0.9659 0.9659 0.2588 -20.6774 86.4615)"/>
        <ellipse class="st4" cx="43.4" cy="51.2" rx="1.5" ry="1.5" transform="matrix(0.2588 -0.9659 0.9659 0.2588 -17.3289 79.9133)"/>
        <ellipse class="st4" cx="48.7" cy="50.8" rx="1.1" ry="1.1" transform="matrix(0.2588 -0.9659 0.9659 0.2588 -12.9856 84.7081)"/>
      </g>
      <path class="st1" d="M36.2,52c0.5,0.3,1.9,0.9,3,1.4c0.7,0.3,1.1-0.4,1.2-0.9c1.1-7.2,5.5-23.3,7.8-28.9 c-1.4-0.7-2.9-1.4-4.3-2.1c-2.8,5.6-7.6,24.6-8,29C35.8,50.4,35.6,51.5,36.2,52z"/>
      <g>
        <path class="st5" d="M66.5,23.8c-0.9,3.2-7.2,3.5-14.4,1.5c-7.2-1.9-12.6-5.3-11.7-8.5c0.9-3.2,7.2-3.5,14.4-1.5 C62,17.2,67.3,20.6,66.5,23.8z"/>
        <path class="st0" d="M65,23.4c-0.7,2.5-6.2,2.5-12.6,0.8c-6.4-1.7-11.2-4.5-10.5-7c0.7-2.5,6.2-2.5,12.6-0.8 C60.8,18.1,65.6,20.9,65,23.4z"/>
      </g>
    </g>
    <g>
      <path class="st0" d="M108.5,113.9c-2.4,0-5.2,0.3-7-0.5c-0.7-0.3-1.9-1.5-3-3.7c-1.1-2.4-3.6-10.5-4.8-19.7 c-0.1-0.7,0.1-1.6,0.4-2.4c0.1-0.3,0.1-0.8-0.4-0.9l-3.4,0.9l-3.4,0.9c-0.4,0.3-0.1,0.8,0.1,1c0.7,0.5,1.3,1.2,1.6,1.9 c3.6,8.6,5.5,16.8,5.7,19.5c0.2,2.4-0.3,4.1-0.7,4.7c-1.2,1.6-3.7,2.8-5.8,4c-1.4,0.8-4.8,2.5-4.2,4.6c0.7,2.6,9.6,1.7,16.5-0.2 c6.9-1.8,15.1-5.5,14.4-8.1C113.8,113.7,110.1,113.9,108.5,113.9z"/>
      <path class="st0" d="M87.5,25.1l-26,7c0,0,2.4,21.2,10.6,39.7c7.6,17.1,16.2,18.9,18.9,18.2c2.6-0.7,9.2-6.6,7.2-25.2 C96,44.7,87.5,25.1,87.5,25.1z"/>
      <path class="st1" d="M89.5,121.2c-0.5,0.1-1,0.4-0.9,0.8c0.1,0.3,0.6,0.4,1,0.4c1.6,0.1,3.9-0.3,6.4-0.8c0.3-0.1,1-0.3,1.1-0.6 c0.2-0.3-0.1-0.5-0.4-0.6c-0.3-0.1-0.7-0.1-1.1,0C92.6,120.9,92,121,89.5,121.2z"/>
      <path class="st2" d="M90,40.2l-23.1,6.2c6.1,22.6,15.3,39,22.3,37.1l0,0l0,0l0,0C96.2,81.6,96,62.8,90,40.2z"/>
      <g>
        <defs>
          <path id="SVGID_3_" d="M88.8,38.2c-0.6-0.2-0.9,0.3-1.4,0.6c-2.1,1.4-4.4,1.9-6.9,1.8c-2.4-0.1-4.8-0.4-7.2-0.1 c-1.5,0.2-3.1,0.8-4.3,1.8c-0.9,0.7-1.8,1.5-2.1,2.6c-0.3,1,0.3,2.1,0.6,3c0.7,1.7,1.8,3.2,3.3,4.3c2.3,1.6,5.2,2.1,8,1.8 c0.8-0.1,1.7-0.2,2.5-0.4c0.7-0.2,1.4-0.4,2-0.7c2.4-1.1,4.7-2.8,6-5.1c0.8-1.5,1.2-3.3,1.1-5c-0.1-1.1-0.3-2.3-0.6-3.4 c-0.2-0.5-0.3-0.9-0.8-1.1C88.9,38.2,88.8,38.2,88.8,38.2z"/>
        </defs>
        <use style="overflow:visible;fill:#FBCC2F;" xlink:href="#SVGID_3_"/>
        <clipPath id="SVGID_4_">
          <use style="overflow:visible;" xlink:href="#SVGID_3_"/>
        </clipPath>
        <path class="st6" d="M86.6,39.3c-7.7,3.6-14,7.8-18.2,7c-3.1-0.6-1.2-3.3,1.1-4.6c5.5-3.2,8.5-1.1,12-1.6 C83.5,39.7,84.6,40,86.6,39.3z"/>
      </g>
      <g>
        <ellipse class="st4" cx="88.4" cy="78.3" rx="1.1" ry="1.1" transform="matrix(0.9659 -0.2588 0.2588 0.9659 -17.2526 25.5462)"/>
        <ellipse class="st4" cx="90" cy="74.8" rx="0.7" ry="0.7" transform="matrix(0.9659 -0.2588 0.2588 0.9659 -16.2904 25.8295)"/>
        <ellipse class="st4" cx="84.9" cy="74.7" rx="1.3" ry="1.3" transform="matrix(0.9659 -0.2588 0.2588 0.9659 -16.4345 24.5275)"/>
        <ellipse class="st4" cx="89" cy="72.2" rx="1.4" ry="1.4" transform="matrix(0.9659 -0.2588 0.2588 0.9659 -15.6493 25.4964)"/>
        <ellipse class="st4" cx="83.3" cy="67.7" rx="1.1" ry="1.1" transform="matrix(0.9659 -0.2588 0.2588 0.9659 -14.6842 23.8679)"/>
        <ellipse class="st4" cx="86.2" cy="67.5" rx="1" ry="1" transform="matrix(0.9659 -0.2588 0.2588 0.9659 -14.5234 24.6125)"/>
        <ellipse class="st4" cx="88.6" cy="60.4" rx="1" ry="1" transform="matrix(0.9659 -0.2588 0.2588 0.9659 -12.6093 24.9809)"/>
        <ellipse class="st4" cx="78.1" cy="57.2" rx="1.2" ry="1.2" transform="matrix(0.9659 -0.2588 0.2588 0.9659 -12.1481 22.1636)"/>
        <ellipse class="st4" cx="86.3" cy="64.2" rx="1.5" ry="1.5" transform="matrix(0.9659 -0.2588 0.2588 0.9659 -13.6772 24.5354)"/>
        <ellipse class="st4" cx="81.4" cy="60.8" rx="1.5" ry="1.5" transform="matrix(0.9659 -0.2588 0.2588 0.9659 -12.9593 23.1314)"/>
        <ellipse class="st4" cx="85.7" cy="57.8" rx="1.1" ry="1.1" transform="matrix(0.9659 -0.2588 0.2588 0.9659 -12.028 24.1595)"/>
      </g>
      <path class="st1" d="M75.5,65c0.6,0.1,2.1-0.2,3.3-0.3c0.8-0.1,0.7-0.9,0.5-1.4c-2.7-6.8-6.9-22.9-7.7-28.9 c-1.6,0.1-3.2,0.2-4.8,0.4c0.4,6.3,5.7,25,7.5,29.1C74.3,63.8,74.7,64.9,75.5,65z"/>
      <g>
        <path class="st5" d="M87.6,25.5c0.9,3.2-4.5,6.6-11.7,8.5c-7.2,1.9-13.5,1.7-14.4-1.5c-0.9-3.2,4.5-6.6,11.7-8.5 C80.4,22,86.8,22.3,87.6,25.5z"/>
        <path class="st0" d="M86.1,25.9c0.7,2.5-4.1,5.3-10.5,7c-6.4,1.7-11.9,1.7-12.6-0.8c-0.7-2.5,4.1-5.3,10.5-7 C79.9,23.4,85.4,23.4,86.1,25.9z"/>
      </g>
    </g>
  </g>
  <g>
    <path class="st7" d="M78.7,3.6L74.2,15c-0.4,0.9-1.7,0.8-1.9-0.2L70.7,2.7c-0.1-0.6,0.5-1.2,1.1-1.1l6.1,0.7 C78.5,2.4,78.9,3,78.7,3.6z"/>
    <path class="st7" d="M90.6,15.7L79,19.5c-1,0.3-1.7-0.8-1-1.6l8.3-9c0.4-0.5,1.2-0.4,1.5,0.1l3.3,5.2 C91.5,14.7,91.2,15.5,90.6,15.7z"/>
    <path class="st7" d="M62.6,5.4l5.5,10.9c0.5,0.9-0.6,1.8-1.4,1.3l-10.1-6.8C56,10.3,56,9.6,56.5,9.2l4.6-4.1 C61.6,4.6,62.3,4.8,62.6,5.4z"/>
  </g>
</svg>