<svg xmlns="http://www.w3.org/2000/svg" viewBox="0 0 128 128"><path d="M37.83 126.53h-.01c-8.11 0-15.72-3.16-21.44-8.88-5.73-5.73-8.9-13.35-8.9-21.45s3.16-15.71 8.89-21.44l67.5-67.49C88 3.1 93.4 1.06 99.07 1.54c5.23.43 10.4 2.96 14.57 7.12 8.59 8.6 9.23 21.96 1.41 29.78L58.4 95.09c-4.75 4.76-12.15 4.28-17.61-1.15-5.17-5.17-5.68-13.08-1.16-17.61L85.97 30l6.17 6.17L45.82 82.5c-.97.97-.69 3.43 1.15 5.27.53.53 3.31 3.11 5.25 1.15l56.66-56.65c4.41-4.42 3.78-12.24-1.41-17.44-2.7-2.7-5.93-4.33-9.1-4.59-3.09-.27-5.99.85-8.32 3.18l-67.5 67.49c-4.09 4.08-6.33 9.51-6.33 15.27 0 5.77 2.25 11.19 6.34 15.28 4.08 4.08 9.49 6.33 15.26 6.33 5.78 0 11.21-2.24 15.28-6.33l58.42-58.41 6.17 6.17-58.43 58.41c-5.72 5.74-13.33 8.9-21.43 8.9z" fill="#006ca2"/></svg>