<?xml version="1.0" encoding="utf-8"?>
<!-- Generator: Adobe Illustrator 19.2.1, SVG Export Plug-In . SVG Version: 6.00 Build 0)  -->
<svg version="1.1" id="レイヤー_1" xmlns="http://www.w3.org/2000/svg" xmlns:xlink="http://www.w3.org/1999/xlink" x="0px"
	 y="0px" viewBox="0 0 128 128" style="enable-background:new 0 0 128 128;" xml:space="preserve">
<g>
	<g>
		<g>
			<g>
				<path style="fill:#FCC21B;" d="M97.17,20.21c-3.5,0-6.94,0.61-10.25,1.83c-2.13,0.78-3.49,2.87-3.34,5.13
					c0.04,0.55,0.96,13.52,5.85,26.59c4.89,13.09,11.9,22.26,12.2,22.65c0.98,1.28,2.49,1.99,4.04,1.99c0.58,0,1.18-0.1,1.75-0.31
					c15.45-5.66,23.42-22.83,17.77-38.28C120.9,28.09,109.64,20.21,97.17,20.21L97.17,20.21z"/>
				<path style="fill:#FCC21B;" d="M59.07,3.27c-4.03,0-7.97,0.81-11.7,2.4c-7.33,3.12-13,8.92-15.98,16.32
					c-2.97,7.4-2.88,15.5,0.25,22.83c0.8,1.9,2.67,3.1,4.69,3.1c0.17,0,0.33-0.01,0.49-0.02c0.49-0.05,11.97-1.21,24.87-6.61
					c12.87-5.38,22.96-13.59,23.38-13.94c1.75-1.44,2.35-3.86,1.45-5.95C81.82,10.38,71.04,3.27,59.07,3.27L59.07,3.27z"/>
			</g>
		</g>
	</g>
	<g>
		<path style="fill:#ED6C30;" d="M77.53,49.99c-0.1-0.49-0.44-0.89-0.88-1.08l-3.75-1.63c-0.53-0.23-1.14-0.14-1.58,0.21
			c-0.45,0.37-0.65,0.95-0.53,1.51c0,0.02,0.47,2.47-0.9,4.52c-0.99,1.47-2.73,2.43-5.18,2.86c-6.52,1.15-7.25,5.38-7.77,8.46
			c-0.5,2.92-0.85,4.23-3.81,4.51c-3.29,0.31-5.71,1.54-7.2,3.66c-2.39,3.38-1.34,7.71-1.3,7.89c0.11,0.46,0.44,0.84,0.88,1.03
			l3.75,1.63c0.2,0.09,0.41,0.13,0.61,0.13c0.36,0,0.71-0.13,0.99-0.36c0.44-0.37,0.64-0.97,0.5-1.53c0-0.03-0.74-3.18,0.84-5.4
			c0.96-1.34,2.63-2.14,4.98-2.36c5.43-0.52,6.07-4.29,6.54-7.04c0.5-2.9,0.88-5.19,5.28-5.96c3.3-0.58,5.72-1.98,7.19-4.17
			C78.29,53.71,77.57,50.14,77.53,49.99z"/>
		<path style="fill:#D7598B;" d="M89.43,93.54c-2.3-1.89-1.86-3.16-0.65-5.87c1.29-2.85,3.05-6.77-1.73-11.36
			c-1.78-1.71-2.69-3.48-2.7-5.24c-0.02-2.49,1.76-4.27,1.77-4.29c0.41-0.4,0.56-0.99,0.4-1.54c-0.17-0.55-0.62-0.96-1.19-1.06
			l-4.02-0.74c-0.48-0.09-0.98,0.06-1.34,0.4c-0.1,0.11-2.71,2.67-2.7,6.46c0,2.63,1.24,5.14,3.64,7.47
			c3.22,3.09,2.27,5.21,1.06,7.9c-1.14,2.55-2.71,6.03,1.5,9.49c1.83,1.5,2.78,3.09,2.82,4.74c0.08,2.73-2.29,4.93-2.31,4.94
			c-0.44,0.39-0.6,1-0.45,1.55c0.16,0.57,0.62,0.99,1.2,1.09l4.02,0.74c0.09,0.02,0.18,0.03,0.27,0.03c0.37,0,0.74-0.14,1.03-0.39
			c0.14-0.13,3.43-3.13,3.33-7.27C93.3,98.01,91.98,95.64,89.43,93.54z"/>
		<path style="fill:#D7598B;" d="M67.57,92.94c2.22-3.85,1-7.27,0.95-7.42c-0.15-0.4-0.46-0.73-0.87-0.88l-3.58-1.44
			c-0.55-0.22-1.19-0.1-1.62,0.32c-0.43,0.41-0.59,1.05-0.39,1.62c0.03,0.09,0.76,2.28-0.72,4.83c-0.68,1.16-1.54,1.59-2.64,2.13
			c-1.25,0.61-2.81,1.37-3.75,3.39c-0.88,1.88-0.65,3.7-0.46,5.31c0.18,1.47,0.33,2.73-0.27,3.98c-0.63,1.34-1.71,2.01-2.96,2.79
			c-1.24,0.77-2.64,1.64-3.65,3.25c-0.86,1.37-0.96,2.93-1.06,4.45c-0.17,2.47-0.37,4.04-2.52,5.14c-0.53,0.27-0.86,0.83-0.84,1.43
			c0.03,0.6,0.4,1.13,0.96,1.35l3.58,1.44c0.18,0.08,0.38,0.11,0.57,0.11c0.24,0,0.47-0.06,0.69-0.17c3.8-1.93,4.03-5.24,4.18-7.66
			c0.08-1.19,0.15-2.31,0.61-3.02c0.63-1.02,1.59-1.6,2.68-2.29c1.45-0.91,3.08-1.92,4.1-4.07c0.98-2.06,0.75-3.98,0.53-5.67
			c-0.17-1.37-0.31-2.56,0.2-3.64c0.46-1,1.11-1.35,2.32-1.94C64.88,95.66,66.44,94.91,67.57,92.94z"/>
		<path style="fill:#D7598B;" d="M23.85,75.79c1.7-0.06,3.63-0.14,5.58-1.5c1.87-1.31,2.61-3.08,3.28-4.66
			c0.54-1.28,1-2.38,1.98-3.07c1-0.7,1.93-0.6,2.97-0.53c0.41,0.03,0.83,0.05,1.24,0.05c0.91,0,2.29-0.1,3.84-1
			c3.84-2.23,4.47-5.82,4.5-5.97c0.07-0.42-0.05-0.86-0.31-1.2l-2.4-3.03c-0.37-0.47-1-0.68-1.58-0.53
			c-0.58,0.15-1.02,0.63-1.12,1.23c-0.01,0.02-0.45,2.33-3.02,3.82c-0.71,0.42-1.38,0.59-2.3,0.59c-0.35,0-0.7-0.02-1.05-0.04
			c-0.4-0.03-0.79-0.05-1.19-0.05c-1,0-2.32,0.13-3.74,1.14c-1.7,1.2-2.4,2.89-3.03,4.39c-0.57,1.36-1.07,2.53-2.21,3.33
			c-1.21,0.84-2.48,0.89-3.95,0.95c-1.45,0.06-3.1,0.12-4.78,1.02c-1.42,0.77-2.29,2.07-3.12,3.33c-1.32,2-2.24,3.22-4.44,3.22
			l-0.3-0.01c-0.58-0.03-1.16,0.29-1.44,0.83c-0.27,0.53-0.21,1.18,0.17,1.65l2.4,3.03c0.28,0.34,0.69,0.55,1.12,0.57
			c0.15,0.01,0.3,0.02,0.45,0.02l0,0c3.95,0,5.71-2.65,6.99-4.59c0.65-0.99,1.28-1.93,2.02-2.33
			C21.44,75.88,22.56,75.84,23.85,75.79z"/>
		<path style="fill:#ED6C30;" d="M38.22,88.2v-4.71c0-0.85-0.69-1.53-1.53-1.53h-4.72c-0.84,0-1.53,0.68-1.53,1.53v4.71
			c0,0.85,0.68,1.53,1.53,1.53h4.72C37.54,89.73,38.22,89.04,38.22,88.2z"/>
		<path style="fill:#40C0E7;" d="M19.49,51.42l-3.33,3.33c-0.6,0.6-0.6,1.57,0,2.16l3.33,3.34c0.3,0.29,0.69,0.45,1.08,0.45
			c0.4,0,0.79-0.15,1.08-0.45l3.34-3.34c0.6-0.6,0.6-1.56,0-2.16l-3.34-3.33C21.05,50.82,20.08,50.82,19.49,51.42z"/>
		<path style="fill:#ED6C30;" d="M10.19,60.93c0.29-0.29,0.45-0.67,0.45-1.08c0-0.4-0.16-0.79-0.45-1.08l-3.34-3.34
			c-0.57-0.57-1.59-0.57-2.16,0l-3.33,3.34c-0.29,0.29-0.46,0.68-0.46,1.08c0,0.41,0.17,0.79,0.46,1.08l3.33,3.33
			c0.3,0.3,0.69,0.45,1.08,0.45c0.39,0,0.78-0.15,1.08-0.45L10.19,60.93z"/>
		<path style="fill:#40C0E7;" d="M27.33,93c-0.57-0.58-1.59-0.58-2.17,0l-3.33,3.33c-0.6,0.6-0.6,1.57,0,2.17l3.33,3.33
			c0.3,0.3,0.7,0.45,1.08,0.45c0.39,0,0.78-0.15,1.08-0.45l3.33-3.33c0.6-0.6,0.6-1.57,0-2.17L27.33,93z"/>
		<path style="fill:#40C0E7;" d="M68.57,111.91c-0.6-0.6-1.57-0.6-2.17,0l-3.13,3.13c-0.6,0.6-0.6,1.57,0,2.17l3.13,3.13
			c0.3,0.3,0.69,0.45,1.08,0.45c0.39,0,0.78-0.15,1.08-0.45l3.13-3.13c0.6-0.6,0.6-1.57,0-2.17L68.57,111.91z"/>
		<path style="fill:#40C0E7;" d="M110.96,90.91c0.29,0.3,0.69,0.45,1.08,0.45c0.39,0,0.78-0.15,1.08-0.45l3.14-3.13
			c0.59-0.6,0.59-1.56,0-2.16l-3.14-3.13c-0.6-0.6-1.57-0.6-2.16,0l-3.13,3.13c-0.6,0.6-0.6,1.56,0,2.16L110.96,90.91z"/>
		<path style="fill:#40C0E7;" d="M101.22,112.57c-0.59-0.6-1.57-0.6-2.17,0l-3.13,3.13c-0.59,0.6-0.59,1.57,0,2.17l3.13,3.13
			c0.3,0.29,0.7,0.45,1.09,0.45c0.39,0,0.78-0.15,1.08-0.45l3.13-3.13c0.6-0.6,0.6-1.57,0-2.17L101.22,112.57z"/>
		<path style="fill:#40C0E7;" d="M44.43,104.66v-4.71c0-0.84-0.69-1.53-1.53-1.53h-4.72c-0.85,0-1.53,0.69-1.53,1.53v4.71
			c0,0.85,0.68,1.53,1.53,1.53h4.72C43.74,106.19,44.43,105.5,44.43,104.66z"/>
		<path style="fill:#ED6C30;" d="M72.9,98.56h-4.43c-0.84,0-1.53,0.68-1.53,1.53v4.43c0,0.84,0.69,1.53,1.53,1.53h4.43
			c0.84,0,1.53-0.69,1.53-1.53v-4.43C74.43,99.24,73.75,98.56,72.9,98.56z"/>
		<path style="fill:#ED6C30;" d="M26.39,110.03h-4.72c-0.84,0-1.53,0.69-1.53,1.53v4.71c0,0.84,0.69,1.53,1.53,1.53h4.72
			c0.85,0,1.53-0.69,1.53-1.53v-4.71C27.92,110.71,27.24,110.03,26.39,110.03z"/>
		<path style="fill:#40C0E7;" d="M12.76,96.33c-0.59-0.6-1.56-0.6-2.16,0l-3.33,3.34c-0.3,0.29-0.45,0.67-0.45,1.08
			c0,0.41,0.16,0.8,0.45,1.08l3.33,3.33c0.3,0.3,0.69,0.45,1.08,0.45c0.39,0,0.78-0.15,1.08-0.45l3.33-3.33c0.6-0.6,0.6-1.57,0-2.16
			L12.76,96.33z"/>
		<path style="fill:#ED6C30;" d="M5.57,42.37c1.92,0.57,4.03,0.14,5.69-0.33c1.32-0.37,2.56-0.67,3.63-0.35
			c1.06,0.3,1.51,0.9,2.27,2c0.79,1.14,1.77,2.56,3.89,3.39c1.16,0.45,2.36,0.69,3.55,0.69c0.36,0,0.69-0.02,1.01-0.05
			c0.75-0.08,1.34-0.71,1.37-1.46l0.14-3.72c0.02-0.41-0.17-0.82-0.46-1.12c-0.29-0.3-0.73-0.47-1.14-0.47
			c-0.86,0-1.67-0.15-2.47-0.47c-1.25-0.49-1.8-1.28-2.49-2.29c-0.8-1.15-1.79-2.57-3.92-3.2c-1.77-0.52-3.67-0.12-5.31,0.34
			c-1.42,0.4-2.76,0.71-3.99,0.34c-0.77-0.23-1.42-0.64-2.13-1.35C4.87,34,4.39,33.83,3.93,33.9c-0.47,0.06-0.88,0.34-1.12,0.75
			l-1.7,2.9c-0.33,0.57-0.27,1.28,0.17,1.78C2.28,40.47,3.53,41.75,5.57,42.37z"/>
		<path style="fill:#ED6C30;" d="M126.37,112.08c-0.31-0.19-0.57-0.21-0.86-0.25c-3.15-0.33-5.88-1.39-7.9-3.01
			c4.42-2.18,6.16-6.4,5.93-8.97c0-0.1-0.01-0.23-0.03-0.36c-0.33-3.71-2.61-6.1-5.81-6.1c-0.79,0-1.63,0.14-2.56,0.42
			c-1.17,0.35-4.55,1.38-6.33,8.26c-2.23-1.58-4.03-4.08-5.16-7.24c-0.1-0.29-0.18-0.53-0.44-0.78c-0.57-0.57-1.58-0.57-2.16,0
			l-3.31,3.32c-0.57,0.57-0.6,1.47-0.08,2.07c-0.15-0.18-0.21-0.31-0.2-0.27c2.18,6.16,6.5,10.15,11.9,11.05
			c2.21,4.86,7.03,8,13.49,8.68c0.1,0.02,0.19,0.02,0.29,0.02c0.51,0,1.02-0.26,1.31-0.73l2.44-3.99
			C127.31,113.46,127.08,112.52,126.37,112.08z M116.54,102.37c-0.73,0.4-1.46,0.73-2.09,0.97c-0.04-0.68-0.04-1.5,0.06-2.34
			c0.08-1.03,1.36-2.17,2.45-2.17c0.27,0,0.51,0.07,0.72,0.21c0.42,0.27,0.66,0.73,0.64,1.21
			C118.29,101,117.66,101.75,116.54,102.37z"/>
	</g>
</g>
</svg>
