<?xml version="1.0" encoding="utf-8"?>
<!-- Generator: Adobe Illustrator 19.2.1, SVG Export Plug-In . SVG Version: 6.00 Build 0)  -->
<svg version="1.1" id="レイヤー_1" xmlns="http://www.w3.org/2000/svg" xmlns:xlink="http://www.w3.org/1999/xlink" x="0px"
	 y="0px" viewBox="0 0 128 128" style="enable-background:new 0 0 128 128;" xml:space="preserve">
<path style="fill:#1A6CA2;" d="M125.2,63.91c0-33.74-27.46-61.19-61.2-61.19c-33.75,0-61.2,27.45-61.2,61.19c0,0,0,0.01,0,0.01h0
	v55.41c0,3.31,2.69,6,6,6h110.4c3.31,0,6-2.69,6-6V63.91L125.2,63.91C125.2,63.92,125.2,63.91,125.2,63.91z"/>
<g>
	<g>
		<g>
			<g>
				<defs>
					<path id="SVGID_1_" d="M64,111.95c26.49,0,48.04-21.55,48.04-48.04c0-26.48-21.55-48.03-48.04-48.03S15.96,37.43,15.96,63.91
						C15.96,90.4,37.51,111.95,64,111.95z"/>
				</defs>
				<use xlink:href="#SVGID_1_"  style="overflow:visible;fill:#FFFFFF;"/>
				<clipPath id="SVGID_2_">
					<use xlink:href="#SVGID_1_"  style="overflow:visible;"/>
				</clipPath>
			</g>
			<g>
				<g>
					<g>
						<path style="fill:#B8E9F4;" d="M64,10.76c29.31,0,53.16,23.85,53.16,53.16c0,29.32-23.85,53.17-53.16,53.17
							S10.84,93.23,10.84,63.91C10.84,34.6,34.68,10.76,64,10.76z M64,111.95c26.49,0,48.04-21.55,48.04-48.04
							c0-26.48-21.55-48.03-48.04-48.03S15.96,37.43,15.96,63.91C15.96,90.4,37.51,111.95,64,111.95z"/>
					</g>
				</g>
				<circle style="fill:#2F2F2F;" cx="22.45" cy="63.91" r="3.06"/>
				<path style="fill:#2F2F2F;" d="M25.37,86.22c-0.84-1.46-0.34-3.34,1.12-4.19c1.47-0.85,3.34-0.35,4.19,1.12
					c0.85,1.47,0.35,3.34-1.12,4.19C28.09,88.19,26.21,87.69,25.37,86.22z"/>
				<path style="fill:#2F2F2F;" d="M41.69,102.55c-1.47-0.85-1.97-2.72-1.12-4.19c0.85-1.47,2.72-1.97,4.19-1.12
					c1.47,0.84,1.98,2.72,1.13,4.19C45.04,102.89,43.16,103.4,41.69,102.55z"/>
				
					<ellipse transform="matrix(0.866 -0.5 0.5 0.866 -38.5888 55.7661)" style="fill:#2F2F2F;" cx="84.77" cy="99.89" rx="3.06" ry="3.06"/>
				<path style="fill:#2F2F2F;" d="M102.63,86.22c-0.85,1.46-2.72,1.96-4.19,1.11c-1.46-0.84-1.97-2.72-1.12-4.18
					c0.85-1.47,2.72-1.97,4.19-1.12C102.98,82.88,103.48,84.75,102.63,86.22z"/>
				<path style="fill:#2F2F2F;" d="M108.61,63.91c0,1.7-1.37,3.06-3.06,3.06c-1.69,0-3.06-1.37-3.06-3.06c0-1.7,1.37-3.07,3.06-3.07
					C107.24,60.85,108.61,62.22,108.61,63.91z"/>
				<path style="fill:#2F2F2F;" d="M102.64,41.61c0.84,1.47,0.34,3.34-1.12,4.19c-1.47,0.85-3.34,0.35-4.19-1.11
					c-0.85-1.47-0.34-3.34,1.13-4.19C99.91,39.64,101.79,40.14,102.64,41.61z"/>
				<path style="fill:#2F2F2F;" d="M86.3,25.28c1.47,0.85,1.96,2.72,1.13,4.19c-0.85,1.47-2.72,1.97-4.19,1.13
					c-1.46-0.85-1.97-2.72-1.12-4.19C82.96,24.94,84.84,24.43,86.3,25.28z"/>
				<path style="fill:#2F2F2F;" d="M41.7,25.28c1.47-0.84,3.34-0.34,4.19,1.12c0.85,1.47,0.35,3.34-1.12,4.19
					c-1.46,0.85-3.34,0.35-4.19-1.12C39.73,28,40.23,26.12,41.7,25.28z"/>
				<path style="fill:#2F2F2F;" d="M25.37,41.61c0.85-1.47,2.72-1.96,4.19-1.12c1.47,0.85,1.97,2.72,1.12,4.19
					c-0.84,1.46-2.72,1.97-4.19,1.12C25.02,44.95,24.52,43.07,25.37,41.61z"/>
			</g>
		</g>
		<g>
			<g>
				<circle style="fill:#2F2F2F;" cx="64" cy="63.92" r="8.14"/>
				<path style="fill:#2F2F2F;" d="M60.17,66.74h7.66V23.1c0-1.66-1.34-3-3-3h-1.66c-1.66,0-3,1.34-3,3V66.74z"/>
				<circle style="fill:#2F2F2F;" cx="64" cy="63.92" r="8.14"/>
			</g>
			<path style="fill:#2F2F2F;" d="M67.73,60.95l-1.98,7.39l-26.6-7.12c-1.6-0.43-2.55-2.07-2.12-3.67l0.43-1.61
				c0.43-1.6,2.07-2.55,3.68-2.12L67.73,60.95z"/>
			<ellipse style="fill:#FFFFFF;" cx="64" cy="63.91" rx="3.07" ry="3.06"/>
		</g>
	</g>
	<g>
		<path style="fill:#2F2F2F;" d="M64,108.53c1.69,0,3.06-1.37,3.06-3.06c0-1.69-1.36-3.06-3.06-3.06c-1.69,0-3.07,1.37-3.07,3.06
			C60.93,107.15,62.31,108.54,64,108.53z"/>
	</g>
</g>
</svg>
