<?xml version="1.0" encoding="utf-8"?>
<!-- Generator: Adobe Illustrator 24.0.3, SVG Export Plug-In . SVG Version: 6.00 Build 0)  -->
<svg version="1.1" id="Layer_1" xmlns="http://www.w3.org/2000/svg" xmlns:xlink="http://www.w3.org/1999/xlink" x="0px" y="0px"
	 viewBox="0 0 128 128" style="enable-background:new 0 0 128 128;" xml:space="preserve">
<linearGradient id="SVGID_1_" gradientUnits="userSpaceOnUse" x1="63.9917" y1="111.6712" x2="63.9917" y2="7.0422" gradientTransform="matrix(1 0 0 -1 0 127.8898)">
	<stop  offset="0.2143" style="stop-color:#42A5F5"/>
	<stop  offset="0.334" style="stop-color:#4BAAF6"/>
	<stop  offset="0.5315" style="stop-color:#64B6F8"/>
	<stop  offset="0.6278" style="stop-color:#73BDF9"/>
	<stop  offset="0.7494" style="stop-color:#70BBF9"/>
	<stop  offset="0.8446" style="stop-color:#66B7F8"/>
	<stop  offset="0.9307" style="stop-color:#55AFF7"/>
	<stop  offset="1" style="stop-color:#42A5F5"/>
</linearGradient>
<path style="fill:url(#SVGID_1_);" d="M101,119.2l-5.4-56.6v-0.2l-3-35.4c0.1-0.9,0.1-1.7,0-2.6l-0.9-12.5L91.3,4H36.6l-0.3,8
	l-0.7,12.3c-0.1,0.6-0.1,1.2-0.1,1.8l-3.1,36.2v0.2L27,119.2c-0.2,1.4,0.9,2.6,2.4,2.8l18.5,2c1.5,0.1,2.8-0.9,2.9-2.3l7-53.5
	c0.2-0.6,0.3-1.3,0.4-2L62,41.5c0.6,0,1.2,0,1.9,0s1.4,0,2,0l3.8,24.7c0.1,0.7,0.2,1.3,0.4,2l7,53.5c0.2,1.4,1.5,2.4,2.9,2.3l18.5-2
	C100.1,121.8,101.1,120.6,101,119.2z"/>
<path style="fill:#1E88E5;" d="M63.9,34.8c-5.4,0-10.2-0.8-12.9-3.7c1.8,4.2,6.9,7.2,12.9,7.2s11.2-3,12.9-7.2
	C74.1,34,69.3,34.8,63.9,34.8z"/>
<g>
	<path style="fill:#1E88E5;" d="M48.5,4c-0.1,4.8-0.7,9.8-2.6,14.1c-1.8,4.2-6,6.8-10.5,7.5c0-0.4,0.1-0.8,0.1-1.2l0.1-1.6
		c7.7-1.2,9.7-11.1,9.9-18.8H48.5z"/>
</g>
<polygon style="fill:#1E88E5;" points="92,15.9 36,15.9 36.3,12 36.3,11.8 91.7,11.8 91.7,11.9 "/>
<g>
	<path style="fill:#1E88E5;" d="M92.7,25.6c-4.6-0.6-8.9-3.3-10.7-7.5c-1.9-4.3-2.5-9.3-2.6-14.1h3c0.2,7.7,2.2,17.7,10,18.8
		l0.1,1.6C92.6,24.8,92.7,25.2,92.7,25.6z"/>
</g>
<path style="fill:#1E88E5;" d="M68.7,36.5h-0.2c-0.8,0-1.5-0.7-1.5-1.5V14.3c0-0.8,0.7-1.5,1.5-1.5h0.2c0.8,0,1.5,0.7,1.5,1.5V35
	C70.2,35.8,69.6,36.5,68.7,36.5z"/>
<path style="fill:#1E88E5;" d="M62.3,4v31.2c0,0.8-0.7,1.5-1.5,1.5h-0.2c-0.8,0-1.5-0.7-1.5-1.5V4H62.3z"/>
<ellipse style="fill:#FDD835;" cx="64.7" cy="7.9" rx="3.2" ry="3"/>
<g style="opacity:0.2;">
	<path style="fill:#424242;" d="M88.4,7l0.3,5.1l0.9,12.5c0,0.1,0,0.1,0,0.2c0.1,0.6,0.1,1.2,0,1.8c0,0.2,0,0.4,0,0.6l3,35.3v0.1
		c0,0.1,0,0.1,0,0.2L98,119l-17.8,1.9l-7-53.2c0-0.1,0-0.3-0.1-0.4c-0.2-0.6-0.3-1.1-0.3-1.6v-0.1L68.9,41c-0.2-1.5-1.5-2.5-3-2.5
		h-0.1c-0.6,0-1.3,0-1.9,0s-1.2,0-1.8,0H62c-1.5,0-2.7,1.1-3,2.5l-3.8,24.7v0.1c-0.1,0.5-0.2,1-0.3,1.6c0,0.1-0.1,0.3-0.1,0.4
		l-7,53.2L30,119l5.3-56.1v-0.2v-0.1l3-36.2c0-0.1,0-0.2,0-0.4c0-0.5,0-0.9,0.1-1.3c0-0.1,0-0.2,0-0.2l0.7-12.3v-0.1L39.5,7H88H88.4
		z M91.3,4H36.6l-0.3,8l-0.7,12.3c-0.1,0.6-0.1,1.2-0.1,1.9l-3,36.2v0.2L27,119.2c-0.1,1.4,0.9,2.6,2.4,2.8l18.5,1.9
		c0.1,0,0.2,0,0.3,0c1.4,0,2.5-1,2.7-2.3l7-53.5c0.2-0.6,0.3-1.3,0.4-2L62,41.5c0.6,0,1.2,0,1.9,0c0.7,0,1.4,0,2,0l3.8,24.7
		c0.1,0.7,0.2,1.3,0.4,2l7,53.5c0.1,1.3,1.3,2.3,2.7,2.3c0.1,0,0.2,0,0.3,0l18.5-1.9c1.5-0.1,2.5-1.4,2.4-2.8l-5.4-56.6v-0.2
		l-3-35.3c0.1-0.9,0.1-1.8,0-2.6l-0.9-12.5C91.7,11.9,91.3,4,91.3,4z"/>
</g>
</svg>
