<?xml version="1.0" encoding="utf-8"?>
<!-- Generator: Adobe Illustrator 24.0.3, SVG Export Plug-In . SVG Version: 6.00 Build 0)  -->
<svg version="1.1" id="Layer_1" xmlns="http://www.w3.org/2000/svg" xmlns:xlink="http://www.w3.org/1999/xlink" x="0px" y="0px"
	 viewBox="0 0 128 128" style="enable-background:new 0 0 128 128;" xml:space="preserve">
<path style="fill:#757575;" d="M111.1,124c0-4-5-3.6-5-7.9l-7.2-0.1c0,0,3.5,2.5,3.5,4s-1.2,1.8-1.2,4H111.1L111.1,124z"/>
<g style="opacity:0.2;">
	<path style="fill:#424242;" d="M101.6,117h3.6c0.3,2.1,1.8,3.1,2.9,4c0.9,0.7,1.6,1.2,1.9,2h-7.7c0.1-0.4,0.3-0.6,0.4-0.9
		c0.3-0.5,0.7-1.1,0.7-2.1C103.3,119,102.5,117.9,101.6,117 M98.9,116c0,0,3.5,2.5,3.5,4s-1.2,1.8-1.2,4h10c0-4-5-3.6-5-7.9
		C106.1,116.1,98.9,116,98.9,116z"/>
</g>
<path style="fill:#757575;" d="M16.9,124c0-4,5-3.6,5-7.9l7.2-0.1c0,0-3.5,2.5-3.5,4s1.2,1.8,1.2,4H16.9L16.9,124z"/>
<g style="opacity:0.2;">
	<path style="fill:#424242;" d="M26.4,117c-0.9,0.9-1.7,2-1.7,3c0,0.9,0.4,1.5,0.7,2.1c0.2,0.3,0.3,0.6,0.4,0.9H18
		c0.3-0.8,0.9-1.3,1.9-2c1.2-0.9,2.6-1.9,2.9-4H26.4 M29.1,116l-7.2,0.1c0,4.4-5.1,3.9-5,7.9h10c0-2.2-1.2-2.5-1.2-4
		S29.1,116,29.1,116z"/>
</g>
<linearGradient id="SVGID_1_" gradientUnits="userSpaceOnUse" x1="64" y1="803.9138" x2="64" y2="841.0898" gradientTransform="matrix(1 0 0 1 0 -713.8898)">
	<stop  offset="0" style="stop-color:#ECEFF1"/>
	<stop  offset="0.1865" style="stop-color:#E8ECEE"/>
	<stop  offset="0.3616" style="stop-color:#DDE3E6"/>
	<stop  offset="0.5315" style="stop-color:#CAD3D8"/>
	<stop  offset="0.6961" style="stop-color:#B0BEC5"/>
</linearGradient>
<path style="fill:url(#SVGID_1_);" d="M96,119.8H32c-23.8,0-24.1-35.7-24.1-35.7L120.1,84C120.1,84,119,119.8,96,119.8L96,119.8z"/>
<g style="opacity:0.2;">
	<path style="fill:#424242;" d="M116.9,87c-0.9,8.2-4.7,29.8-20.9,29.8H32c-8.4,0-14.5-5.3-18.1-15.7c-1.8-5.3-2.6-10.8-2.8-14
		L116.9,87 M120.1,84L7.9,84.1c0,0,0.3,35.7,24.1,35.7h64C119,119.8,120.1,84,120.1,84z"/>
</g>
<path style="fill:#757575;" d="M102.9,56c-4.7,0-8.5,3.8-8.5,8.5v1.9l4.3-0.1v-1.9c0-2.3,1.9-4.3,4.3-4.3s4.3,1.9,4.3,4.3v21.4h4.3
	V64.5C111.4,59.8,107.6,56,102.9,56L102.9,56z"/>
<g style="opacity:0.2;">
	<path style="fill:#424242;" d="M102.9,57c4.2,0,7.5,3.4,7.5,7.5v20.3h-2.3V64.5c0-2.9-2.4-5.3-5.3-5.3s-5.3,2.4-5.3,5.3v0.9h-2.3
		v-0.9C95.3,60.3,98.7,57,102.9,57 M102.9,56c-4.7,0-8.5,3.8-8.5,8.5v1.9l4.3-0.1v-1.9c0-2.3,1.9-4.3,4.3-4.3s4.3,1.9,4.3,4.3v21.4
		h4.3V64.5C111.4,59.8,107.6,56,102.9,56L102.9,56z"/>
</g>
<linearGradient id="SVGID_2_" gradientUnits="userSpaceOnUse" x1="64" y1="789.1877" x2="64" y2="805.7698" gradientTransform="matrix(1 0 0 1 0 -713.8898)">
	<stop  offset="0.1271" style="stop-color:#ECEFF1"/>
	<stop  offset="0.361" style="stop-color:#E8ECEE"/>
	<stop  offset="0.5805" style="stop-color:#DDE3E6"/>
	<stop  offset="0.7936" style="stop-color:#CAD3D8"/>
	<stop  offset="1" style="stop-color:#B0BEC5"/>
</linearGradient>
<path style="fill:url(#SVGID_2_);" d="M6.5,88c-1.4,0-2.4-1.8-1.9-3.4c0.7-2.2,2.3-4.8,6-4.8l106.6-0.3c3.8,0,5.5,2.7,6.2,5.1
	c0.5,1.6-0.5,3.4-1.9,3.4C121.5,88,6.5,88,6.5,88z"/>
<g style="opacity:0.2;">
	<path style="fill:#424242;" d="M117.1,81.5c1.4,0,3.3,0.4,4.3,3.7c0.1,0.4,0,0.7-0.1,0.8H6.6c-0.1-0.1-0.2-0.4-0.1-0.8
		c1-3.1,2.8-3.4,4.1-3.4L117.1,81.5 M117.1,79.5L10.6,79.8c-3.7,0-5.3,2.6-6,4.8C4.1,86.2,5.1,88,6.5,88h115c1.4,0,2.4-1.8,1.9-3.4
		C122.6,82.3,120.9,79.5,117.1,79.5z"/>
</g>
</svg>
