<?xml version="1.0" encoding="UTF-8" standalone="no"?><!DOCTYPE svg PUBLIC "-//W3C//DTD SVG 1.1//EN" "http://www.w3.org/Graphics/SVG/1.1/DTD/svg11.dtd"><svg width="128px" height="128px" version="1.1" xmlns="http://www.w3.org/2000/svg" xmlns:xlink="http://www.w3.org/1999/xlink" xml:space="preserve" xmlns:serif="http://www.serif.com/" style="fill-rule:evenodd;clip-rule:evenodd;stroke-linejoin:round;stroke-miterlimit:2;"><path d="M17.5,118.15L17.5,128.45L111.37,128.45L111.37,118.15C111.37,102.35 87.97,94.32 64.43,94.35C41.05,94.37 17.5,101.41 17.5,118.15Z" style="fill:#c4c6c7;fill-rule:nonzero;"/><path d="M62.76,112.53L65.24,112.53C72.08,112.53 77.63,107.25 77.63,100.74L77.63,95.19C73.35,94.62 68.9,94.34 64.45,94.34C59.7,94.35 54.95,94.65 50.38,95.25L50.38,100.73C50.37,107.25 55.92,112.53 62.76,112.53Z" style="fill:#a8a8a8;fill-rule:nonzero;"/><path d="M73.09,90.08L54.92,90.08L54.92,99.67C54.92,104.01 58.62,107.53 63.18,107.53L64.83,107.53C69.39,107.53 73.09,104.01 73.09,99.67L73.09,90.08Z" style="fill:#563e37;fill-rule:nonzero;"/><path d="M28.01,53.89C28.01,53.89 28.04,45.81 28.04,34.69C28.04,23.06 36.57,6.96 65.09,6.96C85,6.96 92.44,14.84 92.44,20.09C92.44,20.09 99.83,21.42 100.56,30.89C101.07,37.54 100.41,53.53 100.41,53.53C100.41,53.53 99.61,52.81 98.7,52.4C98.22,52.18 97.73,52.08 97.73,52.08L96.39,61.21L86.49,42.04C86.429,41.928 86.308,41.861 86.18,41.87L82.17,42.34C70.609,43.708 58.93,43.752 47.36,42.47L41.94,41.87C41.812,41.858 41.689,41.926 41.63,42.04L32.49,61.14L31.1,51.85C31.1,51.85 30.15,52.23 29.29,52.9C28.48,53.53 28.01,53.89 28.01,53.89Z" style="fill:#232020;fill-rule:nonzero;"/><g><path d="M96.56,51.43C96.56,51.43 102.46,52.45 102.46,58.8C102.46,64.4 98.16,66.62 93.85,66.62L93.85,51.43L96.56,51.43ZM32.23,51.43C32.23,51.43 26.33,52.45 26.33,58.8C26.33,64.4 30.63,66.62 34.94,66.62L34.94,51.43L32.23,51.43Z" style="fill:#563e37;fill-rule:nonzero;"/></g><path d="M64.39,9.83C38.97,9.83 32.32,29.54 32.32,57.22C32.32,85.92 50.77,93.35 64.39,93.35C77.81,93.35 96.46,86.14 96.46,57.22C96.47,29.54 89.81,9.83 64.39,9.83Z" style="fill:#70534a;fill-rule:nonzero;"/><path d="M73.58,76.34L55.2,76.34C54.15,76.34 53.69,77.05 54.39,78.11C55.37,79.6 58.98,82.45 64.39,82.45C69.8,82.45 73.41,79.59 74.39,78.11C75.09,77.05 74.63,76.34 73.58,76.34Z" style="fill:#4c3734;fill-rule:nonzero;"/><path d="M73.58,76.34L55.2,76.34C54.15,76.34 53.69,77.05 54.39,78.11C55.37,79.6 58.98,82.45 64.39,82.45C69.8,82.45 73.41,79.59 74.39,78.11C75.09,77.05 74.63,76.34 73.58,76.34Z" style="fill:#513f35;fill-rule:nonzero;"/><path d="M68.83,68.53C67.27,68.97 65.64,69.19 64.39,69.19C63.14,69.19 61.52,68.97 59.95,68.53C59.28,68.34 59.02,68.97 59.26,69.4C59.76,70.27 61.75,72.03 64.39,72.03C67.03,72.03 69.02,70.27 69.52,69.4C69.76,68.97 69.5,68.34 68.83,68.53Z" style="fill:#563e37;fill-rule:nonzero;"/><path d="M53.94,59.03C53.94,61.86 52.05,64.15 49.7,64.15C47.36,64.15 45.45,61.86 45.45,59.03C45.45,56.19 47.36,53.9 49.7,53.9C52.05,53.9 53.94,56.19 53.94,59.03M74.84,59.03C74.84,61.86 76.74,64.15 79.09,64.15C81.43,64.15 83.33,61.86 83.33,59.03C83.33,56.19 81.43,53.9 79.09,53.9C76.74,53.9 74.84,56.19 74.84,59.03" style="fill:#444;fill-rule:nonzero;"/><path d="M32.32,59.03L30.63,48.6C30.63,48.6 26.96,8.38 65.27,8.38C103.58,8.38 97.62,50.35 97.62,50.35L96.45,59.03L86.5,42.18C81.87,34.4 57.61,26.93 43.02,41.86L32.32,59.03Z" style="fill:#232020;fill-rule:nonzero;"/><g transform="matrix(1,0,0,1,60.6502,-4.80207)"><path d="M-18.81,19.165C-13.821,15.205 -6.835,11.867 3.006,11.672C3.006,11.672 3.475,11.653 3.691,11.653C3.886,11.653 4.373,11.672 4.373,11.672C11.486,11.872 17.321,13.697 21.985,16.23C23.541,16.721 25.034,17.36 26.327,18.1C27.113,18.549 27.826,19.048 28.533,19.612C28.679,19.729 29.216,20.025 29.264,20.203C29.319,20.402 28.853,20.173 28.646,20.155C28.35,20.13 28.05,20.109 27.753,20.071L27.656,20.06C28.809,21.012 29.849,21.995 30.776,22.977C31.294,23.289 31.807,23.631 32.313,24.014C32.941,24.488 33.455,25.071 33.948,25.677C34.118,25.887 34.294,26.092 34.442,26.32C34.535,26.463 34.883,26.731 34.715,26.75C34.401,26.786 34.023,26.62 33.682,26.511C34.619,27.83 35.346,29.081 35.872,30.174C37.723,34.027 38.805,37.759 39.396,41.172C40.512,42.665 41.42,44.292 41.587,45.891C41.613,46.138 41.202,45.577 41.002,45.434C40.629,45.166 40.235,44.933 39.851,44.683C40.057,47.074 40.038,49.239 39.912,51.09C40.619,51.95 41.669,53.074 41.793,54.208C41.803,54.311 41.604,54.122 41.512,54.076C41.254,53.948 41.019,53.828 40.784,53.657C40.428,53.399 40.082,53.12 39.757,52.82C39.409,55.929 38.818,57.787 38.818,57.787C38.818,57.787 38.409,57.359 37.629,56.753C36.789,56.109 35.872,55.738 35.872,55.738C37.097,61.271 38.139,70.122 35.872,73.95C32.182,70.854 27.159,60.256 25.788,42.101C24.534,43.199 23.258,44.185 22.157,44.652C22.237,44.985 22.316,45.317 22.421,45.629C22.541,45.986 22.683,46.338 22.857,46.671C22.95,46.847 23.36,47.214 23.163,47.183C22.685,47.111 21.958,46.377 21.534,46.115C20.677,45.583 19.776,45.141 18.824,44.843C17.884,44.784 16.945,44.694 16.021,44.535C16.367,45.694 16.648,46.876 16.75,48.08C16.786,48.508 16.83,49.753 16.501,50.053C16.501,50.053 16.188,49.633 16.163,49.596C15.949,49.29 15.731,48.986 15.513,48.684C14.887,47.82 14.264,46.962 13.543,46.172C12.205,44.704 10.821,43.317 9.285,42.132C7.803,41.459 6.32,40.79 4.752,40.308C2.668,39.665 0.524,39.577 -1.604,39.189C-1.975,39.12 -2.344,39.034 -2.709,38.935C-2.923,38.943 -3.137,38.952 -3.349,38.964C-2.135,41.901 -1.728,45.155 -2.665,48.195C-3.082,49.545 -3.695,50.832 -4.498,51.992C-4.558,52.078 -5.133,52.919 -5.286,52.856C-5.724,52.673 -6.384,51.254 -6.659,50.854C-7.69,49.354 -8.785,47.809 -10.085,46.522C-12.477,44.149 -15.36,42.591 -18.32,41.153C-18.139,52.168 -21.508,67.049 -28.492,73.95C-30.293,69.911 -30.016,60.707 -28.492,55.738C-28.492,55.738 -29.429,56.109 -30.247,56.753C-31.008,57.359 -31.439,57.787 -31.439,57.787C-31.439,57.787 -32.762,52.835 -32.781,46.577C-33.133,46.887 -33.767,47.681 -34.167,47.744C-34.284,47.763 -34.146,47.507 -34.133,47.388C-34.1,47.103 -34.054,46.818 -34.008,46.535C-33.901,45.876 -33.76,45.222 -33.574,44.579C-33.326,43.715 -32.972,42.906 -32.557,42.128C-32.135,38.176 -31.041,34.056 -28.729,30.528C-29.2,30.492 -29.657,30.444 -30.089,30.392C-30.643,30.323 -31.198,30.207 -31.722,30.014C-31.79,29.989 -32.152,29.907 -32.175,29.834C-32.175,29.834 -31.175,29.35 -31.022,29.268C-29.758,28.597 -28.511,27.838 -27.284,27.098C-26.643,26.71 -25.991,26.276 -25.347,25.811C-24.217,24.375 -22.877,22.836 -21.284,21.318C-21.72,20.972 -22.108,20.547 -22.433,20.018C-22.8,19.417 -23.144,18.725 -23.228,18.016C-23.257,17.775 -23.091,17.159 -22.682,17.238C-21.597,17.446 -21.108,19.014 -19.932,19.28C-19.634,19.347 -19.213,19.27 -18.81,19.165Z" style="fill:#232020;fill-rule:nonzero;"/></g><path id="a" d="M65.36,38.04C42.4,32.94 28.13,31.63 23.62,36.17C23.01,29.48 24.69,24.89 26.47,22.28C28.52,19.27 30.47,17.68 33.37,15.59C42.37,9.1 54.32,2.86 64.46,2.86C74.39,2.86 86.55,9.1 95.57,15.59C98.47,17.68 100.42,19.28 102.47,22.28C110.24,33.7 102.17,56.54 102.17,56.54C102.17,56.54 101.11,53.01 97.43,51.68C97.52,48.04 92.23,44.01 65.36,38.04Z" style="fill:#c4c6c7;fill-rule:nonzero;"/><clipPath id="_clip1"><path d="M65.36,38.04C42.4,32.94 28.13,31.63 23.62,36.17C23.01,29.48 24.69,24.89 26.47,22.28C28.52,19.27 30.47,17.68 33.37,15.59C42.37,9.1 54.32,2.86 64.46,2.86C74.39,2.86 86.55,9.1 95.57,15.59C98.47,17.68 100.42,19.28 102.47,22.28C110.24,33.7 102.17,56.54 102.17,56.54C102.17,56.54 101.11,53.01 97.43,51.68C97.52,48.04 92.23,44.01 65.36,38.04Z"/></clipPath><g clip-path="url(#_clip1)"><path d="M65.62,40.24C88.58,35.14 103.42,34.38 107.93,38.93C108.54,32.24 106.43,27.1 104.66,24.48C102.61,21.47 100.66,19.88 97.76,17.79C88.74,11.3 76.66,5.06 66.52,5.06C56.59,5.06 44.43,11.3 35.41,17.79C32.51,19.88 30.56,21.48 28.51,24.48C20.74,35.9 28.81,58.74 28.81,58.74C28.81,58.74 29.59,55.35 33.27,54.01C33.19,50.38 38.75,46.2 65.62,40.24Z" style="fill:#a8a8a8;fill-rule:nonzero;"/></g><clipPath id="_clip2"><path d="M65.36,38.04C42.4,32.94 28.13,31.63 23.62,36.17C23.01,29.48 24.69,24.89 26.47,22.28C28.52,19.27 30.47,17.68 33.37,15.59C42.37,9.1 54.32,2.86 64.46,2.86C74.39,2.86 86.55,9.1 95.57,15.59C98.47,17.68 100.42,19.28 102.47,22.28C110.24,33.7 102.17,56.54 102.17,56.54C102.17,56.54 101.11,53.01 97.43,51.68C97.52,48.04 92.23,44.01 65.36,38.04Z"/></clipPath><g clip-path="url(#_clip2)"><path d="M105.36,42.75C105.36,42.75 99.66,34.31 74.59,26.06C54.77,19.54 35.38,19.75 27.33,20.87C27.33,20.87 27.08,21.1 26.42,22.12C26.42,22.12 50.17,19.33 76.69,29.69C86.43,33.5 99.43,38.26 104.81,46.16L105.36,42.75Z" style="fill:#a8a8a8;fill-rule:nonzero;"/></g><g><path d="M63.43,38.04C86.39,32.94 98.55,31.99 105.84,36.31C106.45,29.62 104.24,24.89 102.47,22.28C100.42,19.27 98.47,17.68 95.57,15.59C86.55,9.1 74.46,2.86 64.32,2.86C54.39,2.86 42.23,9.1 33.21,15.59C30.31,17.68 28.36,19.28 26.31,22.28C18.54,33.7 26.61,56.54 26.61,56.54C26.61,56.54 27.39,53.15 31.07,51.81C30.99,48.18 36.56,44.01 63.43,38.04Z" style="fill:#c4c6c7;fill-rule:nonzero;"/><path d="M23.42,42.75C23.42,42.75 29.12,34.31 54.19,26.06C74.01,19.54 93.4,19.75 101.45,20.87C101.45,20.87 101.7,21.1 102.36,22.12C102.36,22.12 78.61,19.33 52.09,29.69C42.35,33.5 29.35,38.26 23.97,46.16L23.42,42.75ZM23.51,29.44C23.51,29.44 29.73,21.58 46.17,14.73C61.84,8.2 78.59,7.22 83.64,8.38L85.35,9.21C77.9,9.04 62.07,10.21 47.74,16.58C40.4,19.84 25.16,29.17 23.04,33.19C23.11,31.92 23.28,30.6 23.51,29.44Z" style="fill:#a8a8a8;fill-rule:nonzero;"/></g><rect x="62.17" y="110.5" width="4.54" height="17.95" style="fill:#a8a8a8;fill-rule:nonzero;"/></svg>