<?xml version="1.0" encoding="UTF-8"?>
<svg id="Geo" xmlns="http://www.w3.org/2000/svg" xmlns:xlink="http://www.w3.org/1999/xlink" viewBox="0 0 128 128">
  <defs>
    <radialGradient id="radial-gradient" cx="64" cy="-1752.5" fx="64" fy="-1752.5" r="56.96" gradientTransform="translate(0 -1688) scale(1 -1)" gradientUnits="userSpaceOnUse">
      <stop offset=".5" stop-color="#fde030"/>
      <stop offset=".92" stop-color="#f7c02b"/>
      <stop offset="1" stop-color="#f4a223"/>
    </radialGradient>
    <radialGradient id="radial-gradient-2" cx="26.76" cy="27.25" fx="26.76" fy="27.25" r="30.87" gradientTransform="translate(0 -10.59) scale(1 1.39)" gradientUnits="userSpaceOnUse">
      <stop offset=".29" stop-color="#44b7eb"/>
      <stop offset=".51" stop-color="#3dade6"/>
      <stop offset=".87" stop-color="#2b94db"/>
      <stop offset="1" stop-color="#2489d6"/>
    </radialGradient>
  </defs>
  <g>
    <path id="face" d="M64,120.4c-27.9,0-58-17.5-58-55.9S36.1,8.6,64,8.6c15.5,0,29.8,5.1,40.4,14.4,11.5,10.2,17.6,24.6,17.6,41.5s-6.1,31.2-17.6,41.4c-10.6,9.3-25,14.5-40.4,14.5Z" style="fill: url(#radial-gradient); stroke-width: 0;"/>
    <path d="M111.89,31.27c5.33,8.6,8.11,18.84,8.11,30.23,0,16.9-6.1,31.2-17.6,41.4-10.6,9.3-25,14.5-40.4,14.5-18.06,0-37.04-7.35-48.18-22.94,10.76,17.66,30.99,25.94,50.18,25.94,15.4,0,29.8-5.2,40.4-14.5,11.5-10.2,17.6-24.5,17.6-41.4,0-12.74-3.47-24.06-10.11-33.23Z" style="fill: #eb8f00; stroke-width: 0;"/>
  </g>
  <path id="mouth" d="M64,90.49c9.58,0,15.8,7.01,17.48,10.29.62,1.24.62,2.31.09,2.75-.44.35-1.06.35-1.86,0-.27-.09-.53-.27-.8-.44-4.26-3.02-9.49-4.88-14.91-4.88s-10.65,1.86-14.91,4.79c-.27.18-.53.35-.8.44-.8.35-1.42.35-1.86,0-.53-.53-.53-1.51.09-2.75,1.69-3.19,7.9-10.2,17.48-10.2Z" style="fill: #422b0d; stroke-width: 0;"/>
  <g>
    <path d="M29.66,58.12c-8.46,0-14.97-8.2-14.97-15.23,0-4.95,2.21-10.68,5.34-18.62.39-1.17.91-2.34,1.43-3.65,1.49-3.72,2.81-7.75,4.81-11.24,1.36-2.38,4.83-2.38,6.14.03,1.86,3.43,3.14,7.14,5.07,11.47,5.47,12.24,7.03,17.18,7.03,22.13.13,6.9-6.51,15.1-14.84,15.1Z" style="fill: url(#radial-gradient-2); stroke-width: 0;"/>
    <path d="M19.4,43.82c1.84,4.62,6.37,3.39,7.29-.93.69-3.24-1-12.52-1.67-14.32-.67-1.8-2.47-1.39-3.35.93-.74,1.94-4.09,9.74-2.26,14.32Z" style="fill: #a1ebff; stroke-width: 0;"/>
  </g>
  <g>
    <path d="M51.22,73.72l.18.05c2.62.94,4.87-2.55,2.1-4.31-2.04-1.26-4.55-2.27-7.09-2.8-7.1-1.75-14.31-.45-19.85,2.78-2.68,1.64-.54,5.24,2.23,4.3,6.86-2.46,15-2.63,22.43-.02Z" style="fill: #422b0d; stroke: #422b0d; stroke-miterlimit: 10; stroke-width: 2;"/>
    <path d="M99.12,73.72l.18.05c2.62.94,4.87-2.55,2.1-4.31-2.04-1.26-4.55-2.27-7.09-2.8-7.1-1.75-14.31-.45-19.85,2.78-2.68,1.64-.54,5.24,2.23,4.3,6.86-2.46,15-2.63,22.43-.02Z" style="fill: #422b0d; stroke: #422b0d; stroke-miterlimit: 10; stroke-width: 2;"/>
  </g>
</svg>