<?xml version="1.0" encoding="UTF-8" standalone="no"?><!DOCTYPE svg PUBLIC "-//W3C//DTD SVG 1.1//EN" "http://www.w3.org/Graphics/SVG/1.1/DTD/svg11.dtd"><svg width="128px" height="128px" version="1.1" xmlns="http://www.w3.org/2000/svg" xmlns:xlink="http://www.w3.org/1999/xlink" xml:space="preserve" xmlns:serif="http://www.serif.com/" style="fill-rule:evenodd;clip-rule:evenodd;stroke-linejoin:round;stroke-miterlimit:2;"><path d="M20.43,118.09L20.43,127.98L107.57,127.98L107.57,118.09C107.57,102.92 86.18,95.22 64.33,95.25C42.61,95.28 20.43,102.03 20.43,118.09Z" style="fill:#da4105;fill-rule:nonzero;"/><path d="M73.04,90.25L54.87,90.25L54.87,99.84C54.87,104.18 58.57,107.7 63.13,107.7L64.78,107.7C69.34,107.7 73.04,104.18 73.04,99.84L73.04,90.25Z" style="fill:#e59900;fill-rule:nonzero;"/><path d="M63.89,13.57C39.54,13.57 33.17,32.44 33.17,58.96C33.17,85.47 52.06,93.56 63.89,93.56C75.72,93.56 94.61,85.47 94.61,58.96C94.61,32.45 88.24,13.57 63.89,13.57Z" style="fill:#fcc21b;fill-rule:nonzero;"/><g><path d="M53.5,60.73C53.5,63.57 51.6,65.88 49.24,65.88C46.89,65.88 44.97,63.58 44.97,60.73C44.97,57.88 46.88,55.58 49.24,55.58C51.6,55.57 53.5,57.88 53.5,60.73M74.49,60.73C74.49,63.57 76.39,65.88 78.76,65.88C81.11,65.88 83.02,63.58 83.02,60.73C83.02,57.88 81.11,55.58 78.76,55.58C76.4,55.57 74.49,57.88 74.49,60.73" style="fill:#444;fill-rule:nonzero;"/></g><path d="M68.4,70.27C66.83,70.71 65.2,70.93 63.94,70.93C62.68,70.93 61.05,70.71 59.48,70.27C58.81,70.08 58.54,70.72 58.79,71.14C59.29,72.02 61.29,73.78 63.94,73.78C66.59,73.78 68.59,72.01 69.09,71.14C69.34,70.71 69.08,70.08 68.4,70.27Z" style="fill:#e59600;fill-rule:nonzero;"/><path d="M68.35,82.03C68.35,84.21 66.4,84.67 64,84.67C61.6,84.67 59.65,84.17 59.65,82.03C59.65,79.79 61.6,78.4 64,78.4C66.4,78.4 68.35,79.74 68.35,82.03Z" style="fill:#513f35;fill-rule:nonzero;"/><g transform="matrix(1,0,0,1,60.1002,-3.71481)"><path d="M-18.81,19.165C-13.821,15.205 -6.835,11.867 3.006,11.672C3.006,11.672 3.475,11.653 3.691,11.653C3.886,11.653 4.373,11.672 4.373,11.672C11.486,11.872 17.321,13.697 21.985,16.23C23.541,16.721 25.034,17.36 26.327,18.1C27.113,18.549 27.826,19.048 28.533,19.612C28.679,19.729 29.216,20.025 29.264,20.203C29.319,20.402 28.853,20.173 28.646,20.155C28.35,20.13 28.05,20.109 27.753,20.071L27.656,20.06C28.809,21.012 29.849,21.995 30.776,22.977C31.294,23.289 31.807,23.631 32.313,24.014C32.941,24.488 33.455,25.071 33.948,25.677C34.118,25.887 34.294,26.092 34.442,26.32C34.535,26.463 34.883,26.731 34.715,26.75C34.401,26.786 34.023,26.62 33.682,26.511C34.619,27.83 35.346,29.081 35.872,30.174C37.723,34.027 38.805,37.759 39.396,41.172C40.512,42.665 41.42,44.292 41.587,45.891C41.613,46.138 41.202,45.577 41.002,45.434C40.629,45.166 40.235,44.933 39.851,44.683C40.057,47.074 40.038,49.239 39.912,51.09C40.619,51.95 41.669,53.074 41.793,54.208C41.803,54.311 41.604,54.122 41.512,54.076C41.254,53.948 41.019,53.828 40.784,53.657C40.428,53.399 40.082,53.12 39.757,52.82C39.409,55.929 38.818,57.787 38.818,57.787C38.818,57.787 38.409,57.359 37.629,56.753C36.789,56.109 35.872,55.738 35.872,55.738C37.097,61.271 38.139,70.122 35.872,73.95C32.182,70.854 27.159,60.256 25.788,42.101C24.534,43.199 23.258,44.185 22.157,44.652C22.237,44.985 22.316,45.317 22.421,45.629C22.541,45.986 22.683,46.338 22.857,46.671C22.95,46.847 23.36,47.214 23.163,47.183C22.685,47.111 21.958,46.377 21.534,46.115C20.677,45.583 19.776,45.141 18.824,44.843C17.884,44.784 16.945,44.694 16.021,44.535C16.367,45.694 16.648,46.876 16.75,48.08C16.786,48.508 16.83,49.753 16.501,50.053C16.501,50.053 16.188,49.633 16.163,49.596C15.949,49.29 15.731,48.986 15.513,48.684C14.887,47.82 14.264,46.962 13.543,46.172C12.205,44.704 10.821,43.317 9.285,42.132C7.803,41.459 6.32,40.79 4.752,40.308C2.668,39.665 0.524,39.577 -1.604,39.189C-1.975,39.12 -2.344,39.034 -2.709,38.935C-2.923,38.943 -3.137,38.952 -3.349,38.964C-2.135,41.901 -1.728,45.155 -2.665,48.195C-3.082,49.545 -3.695,50.832 -4.498,51.992C-4.558,52.078 -5.133,52.919 -5.286,52.856C-5.724,52.673 -6.384,51.254 -6.659,50.854C-7.69,49.354 -8.785,47.809 -10.085,46.522C-12.477,44.149 -15.36,42.591 -18.32,41.153C-18.139,52.168 -21.508,67.049 -28.492,73.95C-30.293,69.911 -30.016,60.707 -28.492,55.738C-28.492,55.738 -29.429,56.109 -30.247,56.753C-31.008,57.359 -31.439,57.787 -31.439,57.787C-31.439,57.787 -32.762,52.835 -32.781,46.577C-33.133,46.887 -33.767,47.681 -34.167,47.744C-34.284,47.763 -34.146,47.507 -34.133,47.388C-34.1,47.103 -34.054,46.818 -34.008,46.535C-33.901,45.876 -33.76,45.222 -33.574,44.579C-33.326,43.715 -32.972,42.906 -32.557,42.128C-32.135,38.176 -31.041,34.056 -28.729,30.528C-29.2,30.492 -29.657,30.444 -30.089,30.392C-30.643,30.323 -31.198,30.207 -31.722,30.014C-31.79,29.989 -32.152,29.907 -32.175,29.834C-32.175,29.834 -31.175,29.35 -31.022,29.268C-29.758,28.597 -28.511,27.838 -27.284,27.098C-26.643,26.71 -25.991,26.276 -25.347,25.811C-24.217,24.375 -22.877,22.836 -21.284,21.318C-21.72,20.972 -22.108,20.547 -22.433,20.018C-22.8,19.417 -23.144,18.725 -23.228,18.016C-23.257,17.775 -23.091,17.159 -22.682,17.238C-21.597,17.446 -21.108,19.014 -19.932,19.28C-19.634,19.347 -19.213,19.27 -18.81,19.165Z" style="fill:#6d4c41;fill-rule:nonzero;"/></g><path d="M97.06,68.72L111.22,60.51C111.22,60.51 116.25,56.86 117.63,55.43C118.88,54.14 121.38,50.68 123.07,48.22C123.78,47.18 125.84,47.92 125.84,49.14L125.84,50.04C125.84,52.81 125.15,53.23 123.98,55.44L116.76,63.8L116.48,65.31C116.079,67.576 114.596,69.508 112.51,70.48L102.34,75.22L97.06,68.72ZM31.24,68.72L17.08,60.51C17.08,60.51 12.05,56.86 10.67,55.43C9.42,54.14 6.98,50.68 5.29,48.22C4.58,47.18 2.89,47.92 2.58,49.14L2.58,50.04C2.73,52.81 3.22,53.23 4.38,55.44L11.58,63.8L11.85,65.31C12.25,67.58 13.73,69.5 15.81,70.48L25.98,75.22L31.24,68.72Z" style="fill:#fcc21b;fill-rule:nonzero;"/><path d="M104.83,120.28L96.59,102.11L27.09,64.82C26.25,64.44 25.25,64.75 24.79,65.55L18.3,76.94C17.82,77.77 18.07,78.84 18.88,79.36L82.98,121.83L104.83,120.28Z" style="fill:#da4105;fill-rule:nonzero;"/><path d="M23.05,120.28L32.36,101.66L100.78,64.82C101.62,64.44 102.62,64.75 103.08,65.55L109.57,76.94C110.05,77.77 109.8,78.84 108.99,79.36L44.89,121.83L23.05,120.28Z" style="fill:#da4105;fill-rule:nonzero;"/><path d="M92.28,128L67.64,111.77L87.69,97.34L84.47,95.61L35.22,127.98L45.11,127.98L64.33,114.15L84.05,128L92.28,128ZM64,84.67L43.49,95.67L40.32,93.57L61,83.02L64,84.67Z" style="fill-opacity:0.54;fill-rule:nonzero;"/></svg>