<?xml version="1.0" encoding="utf-8"?>
<!-- Generator: Adobe Illustrator 16.0.0, SVG Export Plug-In . SVG Version: 6.00 Build 0)  -->
<!DOCTYPE svg PUBLIC "-//W3C//DTD SVG 1.1//EN" "http://www.w3.org/Graphics/SVG/1.1/DTD/svg11.dtd">
<svg version="1.1" id="Layer_1" xmlns="http://www.w3.org/2000/svg" xmlns:xlink="http://www.w3.org/1999/xlink" x="0px" y="0px"
	 width="612px" height="792px" viewBox="0 0 612 792" enable-background="new 0 0 612 792" xml:space="preserve">
<g id="Colors">
	<path fill="#5BCEFA" d="M592.88,593.71c0,2.47,0,5.63,0,8.84c-8.8,5.311-17.46,9.8-25.97,13.63c-8.51,3.82-16.83,6.931-25.05,9.46
		c-8.23,2.54-16.261,4.5-24.19,6.03c-7.89,1.53-15.689,2.58-23.38,3.25c-7.7,0.67-15.26,0.96-22.72,0.96
		c-7.45,0-14.82-0.34-22.08-0.87c-7.271-0.52-14.44-1.29-21.521-2.29s-14.1-2.149-21.04-3.489c-6.93-1.29-13.819-2.771-20.649-4.351
		c-6.79-1.58-13.58-3.25-20.32-5.02c-6.75-1.771-13.44-3.591-20.13-5.5c-6.65-1.91-13.29-3.87-19.94-5.83
		c-6.649-1.96-13.29-3.971-19.89-5.98c-6.65-2.01-13.29-4.02-19.89-5.979s-13.24-3.92-19.94-5.83c-6.69-1.86-13.39-3.73-20.13-5.5
		c-6.69-1.771-13.48-3.44-20.32-5.021c-6.83-1.58-13.72-3.01-20.65-4.35c-6.94-1.34-13.96-2.49-21.04-3.49
		c-7.08-0.96-14.25-1.77-21.52-2.3c-7.26-0.57-14.63-0.86-22.08-0.86c-7.46,0-15.02,0.29-22.72,0.96
		c-7.65,0.67-15.44,1.721-23.38,3.25c-7.93,1.48-15.97,3.49-24.19,6.03c-8.22,2.53-16.59,5.69-25.05,9.46
		c-8.47,3.78-17.12,8.28-25.97,13.63v-8.84v-25.44V541.45c8.85-5.351,17.5-9.851,25.97-13.63c8.51-3.82,16.83-6.931,25.05-9.46
		c8.22-2.54,16.26-4.5,24.19-6.03c7.89-1.53,15.69-2.58,23.38-3.25c7.7-0.67,15.26-0.96,22.72-0.96c7.45,0,14.82,0.34,22.08,0.87
		c7.27,0.52,14.44,1.29,21.52,2.29c7.08,1.01,14.1,2.149,21.04,3.489c6.93,1.29,13.82,2.771,20.65,4.351
		c6.79,1.58,13.58,3.25,20.32,5.02c6.74,1.771,13.44,3.591,20.13,5.5c6.65,1.91,13.29,3.87,19.94,5.83s13.29,3.971,19.89,5.98
		c6.65,2.01,13.24,4.02,19.89,5.979c6.601,1.96,13.24,3.96,19.94,5.83c6.689,1.86,13.38,3.73,20.13,5.5
		c6.69,1.771,13.48,3.44,20.32,5.021c6.83,1.58,13.72,3.01,20.649,4.35c6.94,1.34,13.96,2.53,21.04,3.49s14.25,1.77,21.521,2.3
		c7.26,0.57,14.63,0.86,22.08,0.86c7.46,0,15.069-0.29,22.72-0.96s15.44-1.771,23.38-3.25c7.93-1.48,15.96-3.49,24.19-6.03
		c8.22-2.53,16.54-5.64,25.05-9.46c8.47-3.78,17.12-8.28,25.97-13.63v26.819V593.71z"/>
	<path fill="#F5A9B8" d="M592.88,529.95v11.5c-8.85,5.35-17.5,9.85-25.97,13.63c-8.51,3.82-16.83,6.93-25.05,9.46
		c-8.23,2.54-16.261,4.55-24.19,6.03c-7.939,1.479-15.729,2.58-23.38,3.25s-15.26,0.96-22.72,0.96c-7.45,0-14.82-0.29-22.08-0.86
		c-7.271-0.53-14.44-1.34-21.521-2.3s-14.1-2.15-21.04-3.49c-6.93-1.34-13.819-2.77-20.649-4.35c-6.84-1.58-13.63-3.25-20.32-5.021
		c-6.75-1.77-13.44-3.64-20.13-5.5c-6.7-1.87-13.34-3.87-19.94-5.83c-6.649-1.96-13.239-3.97-19.89-5.979
		c-6.6-2.01-13.24-4.021-19.89-5.98s-13.29-3.92-19.94-5.83c-6.69-1.909-13.39-3.729-20.13-5.5c-6.74-1.77-13.53-3.439-20.32-5.02
		c-6.83-1.58-13.72-3.061-20.65-4.351c-6.94-1.34-13.96-2.479-21.04-3.489c-7.08-1-14.25-1.771-21.52-2.29
		c-7.26-0.53-14.63-0.87-22.08-0.87c-7.46,0-15.02,0.29-22.72,0.96c-7.69,0.67-15.49,1.72-23.38,3.25
		c-7.93,1.53-15.97,3.49-24.19,6.03c-8.22,2.529-16.54,5.64-25.05,9.46c-8.47,3.779-17.12,8.279-25.97,13.63c0-6.04,0-11.5,0-11.5
		v-24.24v-25.44V453.45c8.85-5.351,17.5-9.851,25.97-13.63c8.51-3.82,16.83-6.931,25.05-9.46c8.22-2.54,16.26-4.5,24.19-6.03
		c7.89-1.53,15.69-2.58,23.38-3.25c7.7-0.67,15.26-0.96,22.72-0.96c7.45,0,14.82,0.34,22.08,0.87c7.27,0.52,14.44,1.29,21.52,2.29
		c7.08,1.01,14.1,2.149,21.04,3.489c6.93,1.29,13.82,2.771,20.65,4.351c6.79,1.58,13.58,3.25,20.32,5.02
		c6.74,1.771,13.44,3.591,20.13,5.5c6.65,1.91,13.29,3.87,19.94,5.83s13.29,3.971,19.89,5.98c6.65,2.01,13.24,4.02,19.89,5.979
		c6.601,1.96,13.24,3.96,19.94,5.83c6.689,1.86,13.38,3.73,20.13,5.5c6.69,1.771,13.48,3.44,20.32,5.021
		c6.83,1.58,13.72,3.01,20.649,4.35c6.94,1.34,13.96,2.53,21.04,3.49s14.25,1.77,21.521,2.3c7.26,0.57,14.63,0.86,22.08,0.86
		c7.46,0,15.069-0.29,22.72-0.96s15.44-1.771,23.38-3.25c7.93-1.48,15.96-3.49,24.19-6.03c8.22-2.53,16.54-5.64,25.05-9.46
		c8.47-3.78,17.12-8.28,25.97-13.63v26.819v25.44C592.88,513.98,592.88,529.95,592.88,529.95z"/>
	<path fill="#EEEEEE" d="M592.88,441.95v11.5c-8.85,5.35-17.5,9.85-25.97,13.63c-8.51,3.82-16.83,6.93-25.05,9.46
		c-8.23,2.54-16.261,4.55-24.19,6.03c-7.939,1.479-15.729,2.58-23.38,3.25s-15.26,0.96-22.72,0.96c-7.45,0-14.82-0.29-22.08-0.86
		c-7.271-0.53-14.44-1.34-21.521-2.3s-14.1-2.15-21.04-3.49c-6.93-1.34-13.819-2.77-20.649-4.35c-6.84-1.58-13.63-3.25-20.32-5.021
		c-6.75-1.77-13.44-3.64-20.13-5.5c-6.7-1.87-13.34-3.87-19.94-5.83c-6.649-1.96-13.239-3.97-19.89-5.979
		c-6.6-2.01-13.24-4.021-19.89-5.98s-13.29-3.92-19.94-5.83c-6.69-1.909-13.39-3.729-20.13-5.5c-6.74-1.77-13.53-3.439-20.32-5.02
		c-6.83-1.58-13.72-3.061-20.65-4.351c-6.94-1.34-13.96-2.479-21.04-3.489c-7.08-1-14.25-1.771-21.52-2.29
		c-7.26-0.53-14.63-0.87-22.08-0.87c-7.46,0-15.02,0.29-22.72,0.96c-7.69,0.67-15.49,1.72-23.38,3.25
		c-7.93,1.53-15.97,3.49-24.19,6.03c-8.22,2.529-16.54,5.64-25.05,9.46c-8.47,3.779-17.12,8.279-25.97,13.63c0-6.04,0-11.5,0-11.5
		v-24.24v-25.44v-26.82c8.85-5.35,17.5-9.85,25.97-13.63c8.51-3.82,16.83-6.93,25.05-9.46c8.22-2.54,16.26-4.5,24.19-6.03
		c7.89-1.53,15.69-2.58,23.38-3.25c7.7-0.67,15.26-0.96,22.72-0.96c7.45,0,14.82,0.34,22.08,0.87c7.27,0.52,14.44,1.29,21.52,2.29
		c7.08,1,14.1,2.15,21.04,3.49c6.93,1.29,13.82,2.77,20.65,4.35c6.79,1.58,13.58,3.25,20.32,5.02c6.74,1.77,13.44,3.59,20.13,5.5
		c6.65,1.91,13.29,3.87,19.94,5.83c6.65,1.96,13.29,3.97,19.89,5.98c6.65,2.01,13.24,4.02,19.89,5.98
		c6.601,1.96,13.24,3.97,19.94,5.83c6.689,1.86,13.38,3.73,20.13,5.5c6.69,1.77,13.48,3.44,20.32,5.02
		c6.83,1.58,13.72,3.01,20.649,4.35c6.94,1.34,13.96,2.53,21.04,3.49s14.25,1.77,21.521,2.3c7.26,0.57,14.63,0.86,22.08,0.86
		c7.46,0,15.069-0.29,22.72-0.96s15.44-1.771,23.38-3.25c7.93-1.48,15.96-3.49,24.19-6.03c8.22-2.53,16.54-5.64,25.05-9.46
		c8.47-3.78,17.12-8.27,25.97-13.63v26.82v25.44C592.88,425.98,592.88,441.95,592.88,441.95z"/>
	<path fill="#F5A9B8" d="M592.88,353.95v11.5c-8.85,5.36-17.5,9.85-25.97,13.63c-8.51,3.82-16.83,6.93-25.05,9.46
		c-8.23,2.54-16.261,4.55-24.19,6.03c-7.939,1.48-15.729,2.581-23.38,3.25s-15.26,0.96-22.72,0.96c-7.45,0-14.82-0.29-22.08-0.86
		c-7.271-0.53-14.44-1.34-21.521-2.3s-14.1-2.15-21.04-3.49c-6.93-1.34-13.819-2.77-20.649-4.35c-6.84-1.58-13.63-3.25-20.32-5.02
		c-6.75-1.77-13.44-3.64-20.13-5.5c-6.7-1.86-13.34-3.87-19.94-5.83c-6.649-1.96-13.239-3.97-19.89-5.98
		c-6.6-2.01-13.24-4.02-19.89-5.98c-6.65-1.96-13.29-3.92-19.94-5.83c-6.69-1.91-13.39-3.73-20.13-5.5
		c-6.74-1.77-13.53-3.44-20.32-5.02c-6.83-1.58-13.72-3.06-20.65-4.35c-6.94-1.34-13.96-2.49-21.04-3.49
		c-7.08-1-14.25-1.77-21.52-2.29c-7.26-0.53-14.63-0.87-22.08-0.87c-7.46,0-15.02,0.29-22.72,0.96c-7.69,0.67-15.49,1.72-23.38,3.25
		c-7.93,1.53-15.97,3.49-24.19,6.03c-8.22,2.53-16.54,5.64-25.05,9.46c-8.47,3.78-17.12,8.28-25.97,13.63c0-6.04,0-11.5,0-11.5
		v-24.24v-25.44v-26.82c8.85-5.35,17.5-9.85,25.97-13.63c8.51-3.82,16.83-6.93,25.05-9.46c8.22-2.54,16.26-4.5,24.19-6.03
		c7.89-1.53,15.69-2.58,23.38-3.25c7.7-0.67,15.26-0.96,22.72-0.96c7.45,0,14.82,0.34,22.08,0.87c7.27,0.52,14.44,1.29,21.52,2.29
		c7.08,1,14.1,2.15,21.04,3.49c6.93,1.29,13.82,2.77,20.65,4.35c6.79,1.58,13.58,3.25,20.32,5.02c6.74,1.77,13.44,3.59,20.13,5.5
		c6.65,1.91,13.29,3.87,19.94,5.83c6.65,1.96,13.29,3.97,19.89,5.98c6.65,2.01,13.24,4.02,19.89,5.98
		c6.601,1.96,13.24,3.97,19.94,5.83c6.689,1.86,13.38,3.73,20.13,5.5c6.69,1.77,13.48,3.44,20.32,5.02
		c6.83,1.58,13.72,3.01,20.649,4.35c6.94,1.34,13.96,2.53,21.04,3.49s14.25,1.77,21.521,2.3c7.26,0.57,14.63,0.86,22.08,0.86
		c7.46,0,15.069-0.29,22.72-0.96c7.65-0.67,15.44-1.77,23.38-3.25c7.93-1.48,15.96-3.49,24.19-6.03c8.22-2.53,16.54-5.64,25.05-9.46
		c8.47-3.78,17.12-8.27,25.97-13.63v26.82v25.44C592.88,337.98,592.88,353.95,592.88,353.95z"/>
	<path fill="#5BCEFA" d="M592.88,265.95v11.5c-8.85,5.36-17.5,9.85-25.97,13.63c-8.51,3.82-16.83,6.93-25.05,9.46
		c-8.23,2.54-16.261,4.55-24.19,6.03c-7.939,1.48-15.729,2.58-23.38,3.25c-7.65,0.67-15.26,0.96-22.72,0.96
		c-7.45,0-14.82-0.29-22.08-0.86c-7.271-0.53-14.44-1.34-21.521-2.3s-14.1-2.15-21.04-3.49c-6.93-1.34-13.819-2.77-20.649-4.35
		c-6.84-1.58-13.63-3.25-20.32-5.02c-6.75-1.77-13.44-3.64-20.13-5.5c-6.7-1.86-13.34-3.87-19.94-5.83
		c-6.649-1.96-13.239-3.97-19.89-5.98c-6.6-2.01-13.24-4.02-19.89-5.98c-6.65-1.96-13.29-3.92-19.94-5.83
		c-6.69-1.91-13.39-3.73-20.13-5.5c-6.74-1.77-13.53-3.44-20.32-5.02c-6.83-1.58-13.72-3.06-20.65-4.35
		c-6.94-1.34-13.96-2.49-21.04-3.49c-7.08-1-14.25-1.77-21.52-2.29c-7.26-0.53-14.63-0.87-22.08-0.87c-7.46,0-15.02,0.29-22.72,0.96
		c-7.69,0.67-15.49,1.72-23.38,3.25c-7.93,1.53-15.97,3.49-24.19,6.03c-8.22,2.53-16.54,5.64-25.05,9.46
		c-8.47,3.78-17.12,8.28-25.97,13.63c0-6.04,0-11.5,0-11.5v-24.24v-25.44v-26.82c8.85-5.35,17.5-9.85,25.97-13.63
		c8.51-3.82,16.83-6.93,25.05-9.46c8.22-2.54,16.26-4.5,24.19-6.03c7.89-1.53,15.69-2.58,23.38-3.25c7.7-0.67,15.26-0.96,22.72-0.96
		c7.45,0,14.82,0.34,22.08,0.87c7.27,0.52,14.44,1.29,21.52,2.29c7.08,1,14.1,2.15,21.04,3.49c6.93,1.29,13.82,2.77,20.65,4.35
		c6.79,1.58,13.58,3.25,20.32,5.02c6.74,1.77,13.44,3.59,20.13,5.5c6.65,1.91,13.29,3.87,19.94,5.83
		c6.65,1.96,13.29,3.97,19.89,5.98c6.65,2.01,13.24,4.02,19.89,5.98c6.601,1.96,13.24,3.97,19.94,5.83
		c6.689,1.86,13.38,3.73,20.13,5.5c6.69,1.77,13.48,3.44,20.32,5.02c6.83,1.58,13.72,3.01,20.649,4.35
		c6.94,1.34,13.96,2.53,21.04,3.49s14.25,1.77,21.521,2.3c7.26,0.57,14.63,0.86,22.08,0.86c7.46,0,15.069-0.29,22.72-0.96
		c7.65-0.67,15.44-1.77,23.38-3.25c7.93-1.48,15.96-3.49,24.19-6.03c8.22-2.53,16.54-5.64,25.05-9.46
		c8.47-3.78,17.12-8.27,25.97-13.63v26.82v25.44C592.88,249.98,592.88,265.95,592.88,265.95z"/>
</g>
<linearGradient id="Shadow_1_" gradientUnits="userSpaceOnUse" x1="5.7661" y1="769.9473" x2="122.7658" y2="687.4453" gradientTransform="matrix(4.7813 0 0 -4.7813 -1.8906 3879.6406)">
	<stop  offset="0" style="stop-color:#FFFFFF;stop-opacity:0"/>
	<stop  offset="0.1646" style="stop-color:#C8C8C8;stop-opacity:0.1646"/>
	<stop  offset="0.3934" style="stop-color:#828282;stop-opacity:0.3934"/>
	<stop  offset="0.5997" style="stop-color:#4A4A4A;stop-opacity:0.5997"/>
	<stop  offset="0.7759" style="stop-color:#222222;stop-opacity:0.7759"/>
	<stop  offset="0.9151" style="stop-color:#090909;stop-opacity:0.9151"/>
	<stop  offset="1" style="stop-color:#000000"/>
</linearGradient>
<path id="Shadow" opacity="0.3" fill="url(#Shadow_1_)" enable-background="new    " d="M592.875,602.55
	c-8.846,5.355-17.499,9.85-25.962,13.627c-8.511,3.825-16.83,6.933-25.054,9.467s-16.257,4.542-24.193,6.024
	c-7.937,1.53-15.73,2.582-23.381,3.251c-7.697,0.67-15.252,0.956-22.711,0.956c-7.458,0-14.821-0.286-22.089-0.86
	c-7.268-0.526-14.439-1.339-21.516-2.295c-7.076-1.004-14.104-2.151-21.037-3.49c-6.934-1.339-13.818-2.773-20.655-4.352
	c-6.837-1.577-13.627-3.251-20.32-5.02c-6.694-1.77-13.436-3.634-20.129-5.499c-6.694-1.912-13.34-3.873-19.938-5.833
	c-6.646-1.96-13.244-3.969-19.89-5.977c-6.598-2.008-13.244-4.017-19.89-5.977s-13.292-3.921-19.938-5.833
	c-6.694-1.912-13.388-3.729-20.129-5.498c-6.741-1.77-13.531-3.443-20.32-5.021c-6.789-1.578-13.722-3.061-20.655-4.352
	c-6.933-1.339-13.961-2.486-21.038-3.49s-14.248-1.769-21.516-2.295c-7.268-0.525-14.63-0.86-22.089-0.86
	c-7.458,0-15.013,0.287-22.711,0.956c-7.698,0.67-15.491,1.722-23.38,3.251c-7.937,1.53-15.969,3.49-24.193,6.024
	c-8.224,2.534-16.543,5.643-25.054,9.467c-8.511,3.825-17.117,8.272-25.962,13.627v-26.823v-25.436V526.05c0,0,0-15.635,0-23.237
	c0-7.602,0-15.061,0-22.376s0-14.583,0-21.707v-21.181c0,0,0-13.961,0-20.846c0-6.886,0-13.818,0-20.703v-20.703
	c0,0,0-13.866,0-20.846V333.27v-21.707c0,0,0-14.774,0-22.376V265.95v-24.241v-25.437c0,0,0-17.643,0-26.823
	c8.845-5.355,17.5-9.849,25.962-13.626c8.51-3.825,16.83-6.933,25.054-9.467c8.224-2.534,16.256-4.542,24.193-6.024
	c7.937-1.53,15.73-2.582,23.38-3.251c7.698-0.669,15.252-0.956,22.711-0.956c7.459,0,14.822,0.287,22.089,0.861
	c7.268,0.526,14.439,1.338,21.516,2.295c7.076,0.956,14.104,2.151,21.038,3.49c6.933,1.339,13.818,2.773,20.655,4.351
	c6.837,1.578,13.627,3.251,20.32,5.021c6.742,1.769,13.436,3.634,20.129,5.499c6.693,1.913,13.339,3.873,19.938,5.833
	s13.244,3.968,19.89,5.977c6.598,2.008,13.244,4.016,19.89,5.977c6.646,1.96,13.292,3.921,19.938,5.833
	c6.646,1.913,13.387,3.729,20.129,5.499c6.741,1.769,13.531,3.442,20.32,5.021c6.837,1.578,13.722,3.06,20.655,4.351
	c6.933,1.339,13.961,2.486,21.037,3.491c7.076,1.004,14.248,1.769,21.516,2.295s14.631,0.86,22.089,0.86
	c7.459,0,15.014-0.287,22.711-0.956c7.698-0.669,15.492-1.721,23.381-3.251c7.889-1.53,15.969-3.49,24.193-6.024
	c8.224-2.534,16.543-5.642,25.054-9.467c8.511-3.825,17.164-8.319,25.962-13.626v26.823c0,0,0,17.165,0,25.437v24.241v23.237v22.376
	c0,0,0,14.583,0,21.707v21.181v20.846c0,0,0,13.818,0,20.703v20.702c0,0,0,13.866,0,20.847s0,14.057,0,21.181v21.707
	c0,0,0,14.774,0,22.376c0,7.603,0,15.349,0,23.237s0,15.97,0,24.241v25.436V602.55L592.875,602.55z"/>
<g id="Outline" opacity="0.2">
	<path fill="#424242" d="M573.75,218.998v27.253v25.724c0,0,0,16.495,0,24.432c0,7.937,0,15.682,0,23.333c0,7.65,0,15.061,0,22.424
		s0,14.583,0,21.803v21.324c0,0,0,14.104,0,21.133s0,14.058,0,21.134v21.324v21.803c0,0,0,14.821,0,22.424v23.332v24.433
		c0,0,0,16.926,0,25.723c0,8.798,0,17.882,0,27.253c-8.941,4.352-17.643,7.938-26.249,10.854
		c-8.559,2.917-16.974,5.212-25.197,6.934c-8.224,1.721-16.352,3.012-24.289,3.824c-7.937,0.813-15.777,1.243-23.428,1.339
		s-15.252-0.144-22.711-0.669c-7.459-0.526-14.774-1.291-22.042-2.247c-7.268-0.957-14.392-2.152-21.468-3.442
		c-7.076-1.291-14.104-2.821-21.037-4.399c-6.933-1.577-13.817-3.299-20.655-5.068c-6.837-1.769-13.626-3.681-20.368-5.594
		c-6.741-1.912-13.482-3.873-20.177-5.881l-20.081-6.024c-6.694-2.008-13.388-4.064-20.081-6.024
		c-6.694-1.96-13.436-3.969-20.177-5.881c-6.741-1.912-13.531-3.777-20.368-5.594c-6.837-1.77-13.722-3.49-20.655-5.068
		s-13.961-3.06-21.038-4.398s-14.248-2.486-21.468-3.442c-7.268-0.957-14.583-1.722-22.042-2.248
		c-7.459-0.525-15.013-0.765-22.711-0.669s-15.491,0.479-23.428,1.339c-7.937,0.813-16.017,2.056-24.289,3.825
		c-8.224,1.769-16.639,4.016-25.197,6.933c-8.559,2.916-17.308,6.502-26.249,10.854v-27.253c0,0,0-17.404,0-25.724
		s0-16.495,0-24.432v-23.333c0,0,0-15.061,0-22.424s0-14.583,0-21.803v-21.324v-21.133c0,0,0-14.057,0-21.133
		c0-7.077,0-14.153,0-21.325v-21.802c0,0,0-14.822,0-22.424c0-7.602,0-15.396,0-23.333s0-16.065,0-24.432V225.5
		c0,0,0-17.882,0-27.253c8.941-4.351,17.643-7.937,26.249-10.854s16.974-5.211,25.197-6.933c8.224-1.769,16.352-3.012,24.289-3.825
		s15.778-1.243,23.428-1.339c7.698-0.096,15.252,0.144,22.711,0.669c7.458,0.526,14.774,1.291,22.042,2.247
		c7.268,0.957,14.392,2.152,21.468,3.442c7.076,1.339,14.105,2.821,21.038,4.399s13.818,3.299,20.655,5.068
		c6.837,1.769,13.627,3.681,20.368,5.594c6.742,1.913,13.483,3.873,20.177,5.881l20.081,6.024
		c6.693,2.008,13.388,4.064,20.081,6.024c6.694,2.008,13.436,3.969,20.177,5.881c6.742,1.912,13.531,3.777,20.368,5.594
		c6.838,1.769,13.723,3.49,20.655,5.068c6.933,1.578,13.961,3.06,21.037,4.398s14.248,2.486,21.468,3.442
		c7.268,0.957,14.583,1.722,22.042,2.248s15.013,0.765,22.711,0.669s15.491-0.479,23.428-1.339
		c7.938-0.861,16.018-2.056,24.289-3.825c8.224-1.769,16.639-4.016,25.197-6.933S564.809,223.349,573.75,218.998 M592.875,189.45
		c-8.846,5.355-17.499,9.85-25.962,13.627c-8.511,3.825-16.83,6.933-25.054,9.467c-8.224,2.534-16.257,4.542-24.193,6.024
		c-7.937,1.482-15.73,2.582-23.381,3.251c-7.649,0.669-15.252,0.957-22.711,0.957c-7.458,0-14.821-0.287-22.089-0.861
		c-7.268-0.526-14.439-1.339-21.516-2.295c-7.076-0.957-14.104-2.152-21.037-3.49c-6.934-1.339-13.818-2.773-20.655-4.351
		s-13.627-3.251-20.32-5.021c-6.742-1.769-13.436-3.634-20.129-5.498c-6.694-1.865-13.34-3.873-19.938-5.833
		c-6.646-1.96-13.244-3.969-19.89-5.977c-6.598-2.008-13.244-4.017-19.89-5.977c-6.646-1.96-13.292-3.921-19.938-5.833
		c-6.694-1.913-13.388-3.729-20.129-5.499c-6.741-1.769-13.531-3.442-20.32-5.02c-6.837-1.578-13.722-3.06-20.655-4.351
		c-6.933-1.339-13.961-2.486-21.038-3.49s-14.248-1.769-21.516-2.295s-14.63-0.861-22.089-0.861c-7.458,0-15.013,0.287-22.711,0.957
		c-7.698,0.669-15.491,1.721-23.38,3.251c-7.937,1.53-15.969,3.49-24.193,6.024c-8.224,2.534-16.543,5.642-25.054,9.467
		c-8.463,3.777-17.117,8.271-25.962,13.627v26.823v25.436v24.241c0,0,0,15.634,0,23.237v22.376c0,0,0,14.583,0,21.707v21.181
		c0,0,0,13.961,0,20.847c0,6.885,0,13.817,0,20.703v20.703c0,0,0,13.865,0,20.846v21.182v21.706c0,0,0,14.774,0,22.377
		c0,7.602,0,15.348,0,23.236c0,7.89,0,15.97,0,24.241v25.437v26.822c8.845-5.354,17.5-9.85,25.962-13.626
		c8.462-3.777,16.83-6.934,25.054-9.467c8.224-2.534,16.256-4.543,24.193-6.024c7.937-1.53,15.73-2.582,23.38-3.252
		c7.698-0.669,15.252-0.956,22.711-0.956c7.459,0,14.822,0.287,22.089,0.86c7.268,0.526,14.439,1.339,21.516,2.295
		c7.076,1.005,14.104,2.152,21.038,3.491c6.933,1.338,13.818,2.772,20.655,4.351c6.837,1.578,13.627,3.251,20.32,5.021
		c6.742,1.769,13.436,3.634,20.129,5.498c6.693,1.913,13.339,3.873,19.938,5.833c6.598,1.961,13.244,3.969,19.89,5.977
		c6.598,2.009,13.244,4.017,19.89,5.977c6.646,1.961,13.292,3.921,19.938,5.833c6.693,1.913,13.387,3.729,20.129,5.499
		c6.741,1.769,13.531,3.442,20.32,5.021c6.837,1.577,13.722,3.06,20.655,4.351c6.933,1.339,13.961,2.486,21.037,3.49
		s14.248,1.77,21.516,2.295c7.268,0.526,14.631,0.86,22.089,0.86c7.459,0,15.014-0.286,22.711-0.956
		c7.698-0.669,15.492-1.721,23.381-3.251c7.937-1.53,15.969-3.49,24.193-6.024c8.224-2.534,16.543-5.642,25.054-9.467
		s17.164-8.319,25.962-13.627v-26.822v-25.437V526.05c0,0,0-15.635,0-23.236c0-7.603,0-15.062,0-22.376c0-7.315,0-14.583,0-21.707
		v-21.182v-20.846c0,0,0-13.818,0-20.703v-20.703c0,0,0-13.866,0-20.846c0-6.981,0-14.057,0-21.181v-21.707c0,0,0-14.774,0-22.376
		V265.95c0,0,0-15.97,0-24.241v-25.436V189.45L592.875,189.45z"/>
</g>
<path display="none" fill="#0071BC" d="M277.504,442.378c0-8.988,0.526-16.878,1.625-23.667c1.1-6.837,2.725-12.574,4.877-17.261
	c2.151-4.686,5.259-9.036,9.228-13.052c3.969-4.017,8.893-7.746,14.678-11.141c5.786-3.395,10.615-6.646,14.487-9.658
	c3.873-3.06,6.742-5.881,8.654-8.559c3.825-5.355,5.737-11.619,5.737-18.791c0-7.22-1.1-13.579-3.347-19.029
	c-2.199-5.451-5.546-10.041-9.993-13.818c-4.446-3.777-9.992-6.598-16.639-8.606c-9.467-2.869-17.069-2.248-22.758,1.913
	c-2.869,2.056-5.021,4.924-6.502,8.51c-1.482,3.586-2.295,7.937-2.438,13.005c-7.411-2.152-13.627-3.921-19.364-5.499
	c-5.737-1.578-11.14-3.012-16.926-4.447c-5.785-1.482-11.953-2.964-19.364-4.59c0.096-8.128,1.004-15.491,2.821-22.089
	s4.399-12.336,7.889-17.308c3.49-4.973,7.841-9.084,13.005-12.384c5.164-3.251,10.997-5.546,17.452-6.837s13.531-1.53,21.229-0.813
	c7.698,0.765,16.018,2.486,25.006,5.211c6.79,2.056,13.196,4.399,19.221,7.029c6.024,2.629,11.666,5.499,16.926,8.654
	c5.26,3.156,10.137,6.55,14.631,10.28c4.494,3.682,8.606,7.65,12.383,11.905c4.973,5.642,9.133,11.667,12.479,18.025
	s5.833,13.101,7.507,20.272c1.673,7.172,2.486,14.726,2.486,22.711c0,5.451-0.622,10.614-1.817,15.491s-3.06,9.467-5.45,13.722
	c-2.438,4.255-5.785,8.559-10.041,12.862c-4.255,4.303-9.419,8.606-15.491,12.862c-6.216,4.255-9.323,6.311-15.539,10.471
	c-4.877,3.299-8.702,7.22-11.475,11.905c-2.773,4.638-4.543,9.992-5.212,16.064c-0.287,4.591-0.479,6.886-0.765,11.476
	c-6.551-1.961-12.001-3.586-17.117-5.164s-9.85-2.964-14.917-4.494C289.505,445.916,284.054,444.291,277.504,442.378
	L277.504,442.378z M271.91,499.562c0-8.558,2.917-14.773,8.75-18.599c5.833-3.825,13.292-4.351,22.376-1.626
	c4.542,1.387,8.654,3.3,12.383,5.833c3.729,2.534,7.028,5.595,9.945,9.229c2.916,3.634,5.116,7.458,6.55,11.379
	c1.435,3.921,2.199,8.08,2.199,12.336c0,8.415-2.868,14.535-8.558,18.313c-5.69,3.776-13.196,4.255-22.568,1.434
	c-4.686-1.434-8.893-3.347-12.67-5.881c-3.777-2.486-7.076-5.546-9.897-9.132c-2.869-3.586-4.973-7.315-6.407-11.188
	C272.627,507.833,271.91,503.77,271.91,499.562L271.91,499.562z"/>
<linearGradient id="Border_Shadow_1_" gradientUnits="userSpaceOnUse" x1="-152.6045" y1="1400.3994" x2="-85.5244" y2="1400.3994" gradientTransform="matrix(4.7813 0 0 -4.7813 -1.8906 3879.6406)">
	<stop  offset="0" style="stop-color:#FFFFFF;stop-opacity:0"/>
	<stop  offset="0.2869" style="stop-color:#000000;stop-opacity:0.2867"/>
	<stop  offset="0.5251" style="stop-color:#000000"/>
	<stop  offset="0.7529" style="stop-color:#000000;stop-opacity:0.2492"/>
	<stop  offset="1" style="stop-color:#FFFFFF;stop-opacity:0"/>
</linearGradient>
<rect id="Border_Shadow" x="-731.531" y="-3026.228" display="none" opacity="0.2" fill="url(#Border_Shadow_1_)" enable-background="new    " width="320.726" height="420.415"/>
</svg>
