<?xml version="1.0" encoding="UTF-8" standalone="no"?>
<svg
   xmlns:dc="http://purl.org/dc/elements/1.1/"
   xmlns:cc="http://creativecommons.org/ns#"
   xmlns:rdf="http://www.w3.org/1999/02/22-rdf-syntax-ns#"
   xmlns:svg="http://www.w3.org/2000/svg"
   xmlns="http://www.w3.org/2000/svg"
   xmlns:xlink="http://www.w3.org/1999/xlink"
   xmlns:sodipodi="http://sodipodi.sourceforge.net/DTD/sodipodi-0.dtd"
   xmlns:inkscape="http://www.inkscape.org/namespaces/inkscape"
   inkscape:version="0.92.3 (2405546, 2018-03-11)"
   sodipodi:docname="emoji_u00000.svg"
   id="svg6"
   version="1.1"
   style="enable-background:new 0 0 128 128;"
   height="128"
   width="128">
  <sodipodi:namedview
     inkscape:snap-others="false"
     inkscape:object-paths="true"
     inkscape:snap-global="false"
     inkscape:snap-object-midpoints="false"
     inkscape:snap-bbox-midpoints="false"
     inkscape:snap-smooth-nodes="true"
     inkscape:bbox-paths="false"
     inkscape:snap-bbox-edge-midpoints="false"
     inkscape:bbox-nodes="true"
     inkscape:snap-bbox="true"
     inkscape:current-layer="g4534"
     inkscape:window-maximized="1"
     inkscape:window-y="-11"
     inkscape:window-x="-11"
     inkscape:cy="18.211249"
     inkscape:cx="81.799236"
     inkscape:zoom="2.6074562"
     showgrid="false"
     id="namedview8"
     inkscape:window-height="1046"
     inkscape:window-width="1920"
     inkscape:pageshadow="2"
     inkscape:pageopacity="0"
     guidetolerance="10"
     gridtolerance="10"
     objecttolerance="10"
     borderopacity="1"
     bordercolor="#666666"
     pagecolor="#ffffff" />
  <metadata
     id="metadata12">
    <rdf:RDF>
      <cc:Work
         rdf:about="">
        <dc:format>image/svg+xml</dc:format>
        <dc:type
           rdf:resource="http://purl.org/dc/dcmitype/StillImage" />
        <dc:title />
      </cc:Work>
    </rdf:RDF>
  </metadata>
  <defs
     id="defs10">
    <linearGradient
       id="linearGradient1893"
       inkscape:collect="always">
      <stop
         id="stop1889"
         offset="0"
         style="stop-color:#000000;stop-opacity:1;" />
      <stop
         id="stop1891"
         offset="1"
         style="stop-color:#000000;stop-opacity:0;" />
    </linearGradient>
    <radialGradient
       gradientUnits="userSpaceOnUse"
       gradientTransform="matrix(1,0,0,0.44941011,0,43.495023)"
       r="46.716905"
       fy="78.997134"
       fx="63.853499"
       cy="78.997134"
       cx="63.853499"
       id="radialGradient1895"
       xlink:href="#linearGradient1893"
       inkscape:collect="always" />
    <clipPath
       clipPathUnits="userSpaceOnUse"
       id="clipPath2378">
      <path
         style="opacity:1;vector-effect:none;fill:#ab6208;fill-opacity:1;stroke:none;stroke-width:1.00000012px;stroke-linecap:butt;stroke-linejoin:miter;stroke-miterlimit:4;stroke-dasharray:none;stroke-dashoffset:0;stroke-opacity:1;paint-order:stroke fill markers"
         d="M 109.38065,48.822544 A 45.525349,10.583292 0 0 1 63.855301,59.405836 45.525349,10.583292 0 0 1 18.329952,48.822544 45.525349,10.583292 0 0 1 63.855301,38.239252 45.525349,10.583292 0 0 1 109.38065,48.822544 Z"
         id="path2380"
         inkscape:connector-curvature="0" />
    </clipPath>
    <clipPath
       clipPathUnits="userSpaceOnUse"
       id="clipPath1034">
      <path
         inkscape:connector-curvature="0"
         id="path1036"
         d="m 37.576449,20.359578 23.122416,35.059753 2.616323,-1.725503 0.07784,-0.04041 0.364783,0.04723 0.06431,0.128075 2.03506,-1.342151 -0.100882,-0.197435 0.175188,-0.320855 2.616323,-1.725504 0.07784,-0.04041 0.364782,0.04723 0.06431,0.128075 2.035059,-1.342151 -0.100889,-0.197447 0.175193,-0.320849 2.616323,-1.725504 0.07787,-0.04036 0.364781,0.04723 0.06431,0.128075 2.03506,-1.342152 -0.100889,-0.197446 0.175193,-0.32085 2.616323,-1.725503 0.07784,-0.04041 0.364786,0.04723 0.0643,0.128069 2.03506,-1.342152 -0.100885,-0.19744 0.175188,-0.320856 2.616324,-1.725503 0.07784,-0.04042 0.364782,0.04723 0.0643,0.12807 2.035059,-1.342152 -0.100881,-0.197434 0.175188,-0.320856 2.61632,-1.725501 0.07784,-0.04041 0.364783,0.04722 0.06433,0.12806 2.03506,-1.342151 -0.100876,-0.197439 0.175188,-0.320855 2.616325,-1.725504 0.07784,-0.04041 0.364783,0.04722 0.06433,0.12806 2.03506,-1.342151 -0.10088,-0.197444 0.175191,-0.320849 1.250672,-0.824837 -23.122202,-35.0594291 z"
         style="opacity:1;vector-effect:none;fill:#f8f8f8;fill-opacity:1;stroke:none;stroke-width:13.99999905;stroke-linecap:butt;stroke-linejoin:miter;stroke-miterlimit:4;stroke-dasharray:none;stroke-dashoffset:0;stroke-opacity:1;paint-order:stroke fill markers" />
    </clipPath>
    <clipPath
       clipPathUnits="userSpaceOnUse"
       id="clipPath1038">
      <path
         style="opacity:1;vector-effect:none;fill:#f8f8f8;fill-opacity:1;stroke:none;stroke-width:13.99999905;stroke-linecap:butt;stroke-linejoin:miter;stroke-miterlimit:4;stroke-dasharray:none;stroke-dashoffset:0;stroke-opacity:1;paint-order:stroke fill markers"
         d="M -0.60335241,8.4788686 38.885626,66.74113 l 4.347802,-2.946853 0.12958,-0.06937 0.612283,0.07142 0.110469,0.213261 3.381861,-2.292157 -0.173228,-0.328717 0.286784,-0.541378 4.347803,-2.946853 0.12958,-0.06937 0.612282,0.07142 0.11047,0.213262 3.38186,-2.292156 -0.173241,-0.328736 0.286791,-0.54137 4.347803,-2.946853 0.129644,-0.06928 0.612281,0.07142 0.11047,0.213261 3.381861,-2.292156 -0.173241,-0.328737 0.286792,-0.54137 4.347802,-2.946852 0.12958,-0.06937 0.612288,0.07143 0.110463,0.213252 3.38186,-2.292157 -0.173234,-0.328727 0.286785,-0.541379 4.347804,-2.946853 0.12958,-0.06937 0.612281,0.07142 0.110463,0.213252 3.38186,-2.292156 -0.173228,-0.328717 0.286784,-0.541379 4.347797,-2.946849 0.129582,-0.06937 0.612283,0.07142 0.110507,0.213236 3.38186,-2.292156 -0.173219,-0.328724 0.286783,-0.541378 4.347807,-2.946855 0.129581,-0.06937 0.612283,0.07142 0.110508,0.213236 3.38186,-2.292156 -0.173226,-0.328733 0.28679,-0.541368 2.078364,-1.408674 -39.488612,-58.261724 z"
         id="path1040"
         inkscape:connector-curvature="0" />
    </clipPath>
    <clipPath
       clipPathUnits="userSpaceOnUse"
       id="clipPath1042">
      <path
         inkscape:connector-curvature="0"
         id="path1044"
         d="m 47.380824,-21.467864 -23.978057,57.272265 4.273925,1.789355 0.113747,0.06223 0.242642,0.486653 -0.104208,0.184472 3.324396,1.391818 0.1592,-0.286522 0.538186,-0.04938 4.273925,1.789355 0.113747,0.06223 0.242641,0.486653 -0.104207,0.184472 3.324395,1.391817 0.159207,-0.286541 0.538183,-0.04937 4.273926,1.789355 0.113708,0.06233 0.24264,0.486652 -0.104208,0.184473 3.324396,1.391817 0.159208,-0.286541 0.538184,-0.04937 4.273924,1.789355 0.113748,0.06223 0.242636,0.486662 -0.104204,0.184463 3.324396,1.391818 0.159203,-0.286532 0.538187,-0.04938 4.273927,1.789355 0.113747,0.06223 0.24264,0.486653 -0.104204,0.184462 3.324395,1.391818 0.1592,-0.286523 0.538186,-0.04938 4.27392,1.789352 0.113749,0.06223 0.242642,0.486653 -0.104171,0.184488 3.324395,1.391817 0.159209,-0.286518 0.538185,-0.04938 4.273928,1.789356 0.113749,0.06223 0.242642,0.486653 -0.10417,0.184488 3.324395,1.391817 0.159212,-0.286528 0.538182,-0.04937 2.04305,0.85536 23.977832,-57.2717372 z"
         style="opacity:1;vector-effect:none;fill:#f8f8f8;fill-opacity:1;stroke:none;stroke-width:13.99999905;stroke-linecap:butt;stroke-linejoin:miter;stroke-miterlimit:4;stroke-dasharray:none;stroke-dashoffset:0;stroke-opacity:1;paint-order:stroke fill markers" />
    </clipPath>
    <filter
       inkscape:menu="Textures"
       inkscape:label="Watercolor"
       inkscape:menu-tooltip="Cloudy watercolor effect"
       height="2"
       y="-0.5"
       width="1.6"
       x="-0.3"
       style="color-interpolation-filters:sRGB;"
       id="filter1723">
      <feGaussianBlur
         stdDeviation="15"
         result="result8"
         id="feGaussianBlur1705" />
      <feTurbulence
         seed="27"
         result="result7"
         type="fractalNoise"
         numOctaves="5"
         baseFrequency="0.025"
         id="feTurbulence1707" />
      <feComposite
         in2="result8"
         result="result6"
         operator="over"
         in="result7"
         id="feComposite1709" />
      <feColorMatrix
         result="result9"
         values="1 0 0 0 0 0 1 0 0 0 0 0 1 0 0 0 0 0 6 -4 "
         id="feColorMatrix1711" />
      <feDisplacementMap
         in="result7"
         in2="result9"
         xChannelSelector="A"
         yChannelSelector="A"
         scale="45"
         result="result4"
         id="feDisplacementMap1713" />
      <feComposite
         in2="result4"
         result="result2"
         operator="in"
         in="result8"
         id="feComposite1715" />
      <feComposite
         result="fbSourceGraphic"
         in="result2"
         operator="in"
         in2="result9"
         id="feComposite1717" />
      <feComposite
         operator="arithmetic"
         k2="1"
         k1="0.5"
         in="fbSourceGraphic"
         in2="fbSourceGraphic"
         result="result91"
         id="feComposite1719" />
      <feBlend
         in="fbSourceGraphic"
         mode="multiply"
         in2="result91"
         id="feBlend1721" />
    </filter>
    <filter
       inkscape:menu="Textures"
       inkscape:label="Watercolor"
       inkscape:menu-tooltip="Cloudy watercolor effect"
       height="2"
       y="-0.5"
       width="1.6"
       x="-0.3"
       style="color-interpolation-filters:sRGB;"
       id="filter1743">
      <feGaussianBlur
         stdDeviation="15"
         result="result8"
         id="feGaussianBlur1725" />
      <feTurbulence
         seed="27"
         result="result7"
         type="fractalNoise"
         numOctaves="5"
         baseFrequency="0.025"
         id="feTurbulence1727" />
      <feComposite
         in2="result8"
         result="result6"
         operator="over"
         in="result7"
         id="feComposite1729" />
      <feColorMatrix
         result="result9"
         values="1 0 0 0 0 0 1 0 0 0 0 0 1 0 0 0 0 0 6 -4 "
         id="feColorMatrix1731" />
      <feDisplacementMap
         in="result7"
         in2="result9"
         xChannelSelector="A"
         yChannelSelector="A"
         scale="45"
         result="result4"
         id="feDisplacementMap1733" />
      <feComposite
         in2="result4"
         result="result2"
         operator="in"
         in="result8"
         id="feComposite1735" />
      <feComposite
         result="fbSourceGraphic"
         in="result2"
         operator="in"
         in2="result9"
         id="feComposite1737" />
      <feComposite
         operator="arithmetic"
         k2="1"
         k1="0.5"
         in="fbSourceGraphic"
         in2="fbSourceGraphic"
         result="result91"
         id="feComposite1739" />
      <feBlend
         in="fbSourceGraphic"
         mode="multiply"
         in2="result91"
         id="feBlend1741" />
    </filter>
    <filter
       inkscape:menu="Textures"
       inkscape:label="Watercolor"
       inkscape:menu-tooltip="Cloudy watercolor effect"
       height="2"
       y="-0.5"
       width="1.6"
       x="-0.3"
       style="color-interpolation-filters:sRGB;"
       id="filter1763">
      <feGaussianBlur
         stdDeviation="15"
         result="result8"
         id="feGaussianBlur1745" />
      <feTurbulence
         seed="27"
         result="result7"
         type="fractalNoise"
         numOctaves="5"
         baseFrequency="0.025"
         id="feTurbulence1747" />
      <feComposite
         in2="result8"
         result="result6"
         operator="over"
         in="result7"
         id="feComposite1749" />
      <feColorMatrix
         result="result9"
         values="1 0 0 0 0 0 1 0 0 0 0 0 1 0 0 0 0 0 6 -4 "
         id="feColorMatrix1751" />
      <feDisplacementMap
         in="result7"
         in2="result9"
         xChannelSelector="A"
         yChannelSelector="A"
         scale="45"
         result="result4"
         id="feDisplacementMap1753" />
      <feComposite
         in2="result4"
         result="result2"
         operator="in"
         in="result8"
         id="feComposite1755" />
      <feComposite
         result="fbSourceGraphic"
         in="result2"
         operator="in"
         in2="result9"
         id="feComposite1757" />
      <feComposite
         operator="arithmetic"
         k2="1"
         k1="0.5"
         in="fbSourceGraphic"
         in2="fbSourceGraphic"
         result="result91"
         id="feComposite1759" />
      <feBlend
         in="fbSourceGraphic"
         mode="multiply"
         in2="result91"
         id="feBlend1761" />
    </filter>
    <filter
       inkscape:menu="Textures"
       inkscape:label="Watercolor"
       inkscape:menu-tooltip="Cloudy watercolor effect"
       height="2"
       y="-0.5"
       width="1.6"
       x="-0.3"
       style="color-interpolation-filters:sRGB;"
       id="filter1783">
      <feGaussianBlur
         stdDeviation="15"
         result="result8"
         id="feGaussianBlur1765" />
      <feTurbulence
         seed="27"
         result="result7"
         type="fractalNoise"
         numOctaves="5"
         baseFrequency="0.025"
         id="feTurbulence1767" />
      <feComposite
         in2="result8"
         result="result6"
         operator="over"
         in="result7"
         id="feComposite1769" />
      <feColorMatrix
         result="result9"
         values="1 0 0 0 0 0 1 0 0 0 0 0 1 0 0 0 0 0 6 -4 "
         id="feColorMatrix1771" />
      <feDisplacementMap
         in="result7"
         in2="result9"
         xChannelSelector="A"
         yChannelSelector="A"
         scale="45"
         result="result4"
         id="feDisplacementMap1773" />
      <feComposite
         in2="result4"
         result="result2"
         operator="in"
         in="result8"
         id="feComposite1775" />
      <feComposite
         result="fbSourceGraphic"
         in="result2"
         operator="in"
         in2="result9"
         id="feComposite1777" />
      <feComposite
         operator="arithmetic"
         k2="1"
         k1="0.5"
         in="fbSourceGraphic"
         in2="fbSourceGraphic"
         result="result91"
         id="feComposite1779" />
      <feBlend
         in="fbSourceGraphic"
         mode="multiply"
         in2="result91"
         id="feBlend1781" />
    </filter>
    <filter
       inkscape:menu="Textures"
       inkscape:label="Watercolor"
       inkscape:menu-tooltip="Cloudy watercolor effect"
       height="2"
       y="-0.5"
       width="1.6"
       x="-0.3"
       style="color-interpolation-filters:sRGB;"
       id="filter1803">
      <feGaussianBlur
         stdDeviation="15"
         result="result8"
         id="feGaussianBlur1785" />
      <feTurbulence
         seed="27"
         result="result7"
         type="fractalNoise"
         numOctaves="5"
         baseFrequency="0.025"
         id="feTurbulence1787" />
      <feComposite
         in2="result8"
         result="result6"
         operator="over"
         in="result7"
         id="feComposite1789" />
      <feColorMatrix
         result="result9"
         values="1 0 0 0 0 0 1 0 0 0 0 0 1 0 0 0 0 0 6 -4 "
         id="feColorMatrix1791" />
      <feDisplacementMap
         in="result7"
         in2="result9"
         xChannelSelector="A"
         yChannelSelector="A"
         scale="45"
         result="result4"
         id="feDisplacementMap1793" />
      <feComposite
         in2="result4"
         result="result2"
         operator="in"
         in="result8"
         id="feComposite1795" />
      <feComposite
         result="fbSourceGraphic"
         in="result2"
         operator="in"
         in2="result9"
         id="feComposite1797" />
      <feComposite
         operator="arithmetic"
         k2="1"
         k1="0.5"
         in="fbSourceGraphic"
         in2="fbSourceGraphic"
         result="result91"
         id="feComposite1799" />
      <feBlend
         in="fbSourceGraphic"
         mode="multiply"
         in2="result91"
         id="feBlend1801" />
    </filter>
    <filter
       inkscape:menu="Textures"
       inkscape:label="Watercolor"
       inkscape:menu-tooltip="Cloudy watercolor effect"
       height="2"
       y="-0.5"
       width="1.6"
       x="-0.3"
       style="color-interpolation-filters:sRGB;"
       id="filter1823">
      <feGaussianBlur
         stdDeviation="15"
         result="result8"
         id="feGaussianBlur1805" />
      <feTurbulence
         seed="27"
         result="result7"
         type="fractalNoise"
         numOctaves="5"
         baseFrequency="0.025"
         id="feTurbulence1807" />
      <feComposite
         in2="result8"
         result="result6"
         operator="over"
         in="result7"
         id="feComposite1809" />
      <feColorMatrix
         result="result9"
         values="1 0 0 0 0 0 1 0 0 0 0 0 1 0 0 0 0 0 6 -4 "
         id="feColorMatrix1811" />
      <feDisplacementMap
         in="result7"
         in2="result9"
         xChannelSelector="A"
         yChannelSelector="A"
         scale="45"
         result="result4"
         id="feDisplacementMap1813" />
      <feComposite
         in2="result4"
         result="result2"
         operator="in"
         in="result8"
         id="feComposite1815" />
      <feComposite
         result="fbSourceGraphic"
         in="result2"
         operator="in"
         in2="result9"
         id="feComposite1817" />
      <feComposite
         operator="arithmetic"
         k2="1"
         k1="0.5"
         in="fbSourceGraphic"
         in2="fbSourceGraphic"
         result="result91"
         id="feComposite1819" />
      <feBlend
         in="fbSourceGraphic"
         mode="multiply"
         in2="result91"
         id="feBlend1821" />
    </filter>
    <filter
       inkscape:collect="always"
       style="color-interpolation-filters:sRGB"
       id="filter1841"
       x="-0.032028986"
       width="1.064058"
       y="-0.01918958"
       height="1.0383792">
      <feGaussianBlur
         inkscape:collect="always"
         stdDeviation="0.5304"
         id="feGaussianBlur1843" />
    </filter>
  </defs>
  <g
     transform="translate(0,-1.8)"
     id="g4534">
    <path
       style="fill:#fcbf07;fill-opacity:1;filter:url(#filter1723)"
       inkscape:connector-curvature="0"
       id="path4"
       d="M 64,8.7 C 7.3,8.7 6,72.2 6,84.8 c 0,12.6 26,22.8 58,22.8 32,0 58,-10.2 58,-22.8 C 122,72.2 120.7,8.7 64,8.7 Z"
       class="st0" />
    <path
       style="fill:none;fill-opacity:1;stroke:#2f2f2f;stroke-width:6;stroke-linecap:round;stroke-linejoin:round;stroke-miterlimit:10;stroke-dasharray:none;stroke-opacity:1;filter:url(#filter1743)"
       class="st1"
       d="m 45.9,66.5 c 0,0 20.1,-7.7 34.6,7.7"
       id="path6"
       inkscape:connector-curvature="0" />
    <path
       style="fill:#2f2f2f;fill-opacity:1;filter:url(#filter1763)"
       inkscape:connector-curvature="0"
       id="path8"
       d="m 45.8,45.5 c -3.6,-0.5 -6,-4.3 -5.5,-8.6 0.5,-4.3 3.9,-7.4 7.5,-6.9 3.6,0.5 6,4.3 5.5,8.6 -0.6,4.3 -3.9,7.4 -7.5,6.9 z"
       class="st2" />
    <path
       style="fill:#2f2f2f;fill-opacity:1;filter:url(#filter1783)"
       inkscape:connector-curvature="0"
       id="path10"
       d="m 87.8,42.9 c 0,-0.6 -0.1,-1.1 -0.2,-1.6 C 87.5,41 87.3,40.7 87,40.6 85.1,39.7 80.4,37.8 77.7,37 c -0.4,-0.1 -0.8,0 -1,0.3 -1.3,1.5 -2.1,3.6 -2,5.9 0.1,4.3 3.2,7.8 6.8,7.7 3.5,0 6.4,-3.6 6.3,-8 z"
       class="st2" />
    <path
       style="fill:#fac139;fill-opacity:1;filter:url(#filter1803)"
       inkscape:connector-curvature="0"
       id="path18"
       d="m 37.2,121 c -7.5,0 -12.6,-2.1 -16.7,-6.7 -5,-5.8 -4.3,-13.1 -3.7,-19.6 0.3,-3.6 1.3,-5.7 2.1,-7.6 0.9,-2 1.6,-3.7 1.7,-7.2 0,-0.8 -0.2,-2.1 -0.4,-3.4 -0.6,-3.6 -1.4,-7.7 1.2,-9.6 0.9,-0.7 2.1,-1 3.5,-1 2.5,0 5.1,1.2 6.4,3.1 2.1,2.9 2.8,5.7 2.8,11.8 0,2.5 0.7,3.4 1.8,4.2 0.3,0.2 0.7,0.4 2.1,0.4 1.3,0 2.9,-0.2 5.3,-0.4 0.8,-0.1 1.6,-0.2 2.5,-0.2 2.5,-0.2 10,-1 14.8,-1.7 1.2,-0.2 2.5,-0.4 3.7,-0.6 2.9,-0.5 5.8,-1 8,-1 1.1,0 2,0.1 2.7,0.4 2,0.7 3.3,2.5 3.4,4.8 0.2,2.6 -1.2,5 -3.3,6.1 -2.1,1.1 -11.1,2.9 -16.4,3.5 0.1,0.2 0.2,0.3 0.2,0.5 0.7,2 0.4,4.7 -0.7,6.5 -0.2,0.4 -0.5,0.7 -0.7,0.9 1,1.9 0.3,4.5 -0.4,6 -0.2,0.4 -0.5,1 -1.1,1.5 0.3,0.8 0.5,1.8 0.1,3.3 -0.8,3.4 -6.4,5.3 -16.4,5.9 -0.9,0.1 -1.7,0.1 -2.5,0.1 z"
       class="st3" />
    <path
       style="fill:#2f2f2f;fill-opacity:1;filter:url(#filter1823)"
       inkscape:connector-curvature="0"
       id="path20"
       d="m 24.8,67.9 c 1.8,0 3.8,0.8 4.8,2.3 1.8,2.6 2.4,4.9 2.5,10.7 0,3.1 1,4.6 2.7,5.8 0.8,0.5 1.8,0.7 3.2,0.7 1.8,0 4.3,-0.3 7.9,-0.7 2.8,-0.3 10.2,-1 14.9,-1.7 3.7,-0.5 8.5,-1.6 11.5,-1.6 0.8,0 1.5,0.1 2,0.3 3,1.1 2.6,5.9 -0.1,7.2 -1.9,0.9 -11.7,3 -16.9,3.4 -3.7,0.3 -4.5,0.6 -4.5,0.8 -0.2,0.6 1.6,0.4 3,0.9 1.9,0.6 1.9,4.2 0.7,6.1 -0.8,1.3 -1.7,0.9 -1.7,1.7 0,0.3 0.5,0.7 0.7,1 0.7,1 0.4,3.1 -0.3,4.4 -0.3,0.5 -0.5,1 -1.1,1.2 -0.6,0.2 -0.7,0.6 -0.5,1.2 0.4,0.7 0.8,1.4 0.4,2.9 -0.6,2.3 -6.4,3.9 -14.6,4.4 -0.8,0 -1.6,0.1 -2.3,0.1 -6.8,0 -11.5,-1.8 -15.2,-6 -4.3,-4.9 -3.9,-11 -3.2,-18.1 0.7,-7 3.7,-7.6 3.7,-15 0,-3.1 -2.4,-9.7 -0.1,-11.4 0.8,-0.4 1.6,-0.6 2.5,-0.6 m 0,-4 c -1.8,0 -3.4,0.5 -4.7,1.4 -3.5,2.6 -2.7,7.6 -2,11.5 0.2,1.1 0.4,2.4 0.4,3 0,3.1 -0.6,4.5 -1.5,6.4 -0.8,1.9 -1.9,4.3 -2.2,8.2 -0.6,6.9 -1.4,14.6 4.2,21.1 4.4,5.1 10.2,7.4 18.2,7.4 0.8,0 1.7,0 2.6,-0.1 14.9,-0.8 17.5,-4.6 18.2,-7.4 0.3,-1.3 0.3,-2.4 0.2,-3.3 0.3,-0.5 0.6,-0.9 0.7,-1.2 0.7,-1.4 1.5,-4.1 0.9,-6.5 0.1,-0.1 0.1,-0.2 0.2,-0.3 1.1,-1.8 1.6,-4.2 1.3,-6.4 5.3,-0.8 12.6,-2.3 14.8,-3.4 2.8,-1.4 4.6,-4.6 4.4,-8 -0.2,-3.1 -2,-5.6 -4.7,-6.6 -0.9,-0.3 -2,-0.5 -3.3,-0.5 -2.4,0 -5.4,0.5 -8.4,1 -1.3,0.2 -2.6,0.4 -3.7,0.6 -4.8,0.7 -12.2,1.4 -14.7,1.7 -0.9,0.1 -1.7,0.2 -2.5,0.2 -2.2,0.2 -3.9,0.4 -5.1,0.4 -0.7,0 -0.9,-0.1 -1,-0.1 C 36.6,82.6 36.2,82.3 36.2,80.5 36.1,74.7 35.6,71.3 33,67.6 31.1,65.5 28,63.9 24.8,63.9 Z"
       class="st2" />
    <text
       xml:space="preserve"
       style="font-style:normal;font-weight:normal;font-size:40px;line-height:1.25;font-family:sans-serif;letter-spacing:0px;word-spacing:0px;fill:#2e4f9a;fill-opacity:1;stroke:none;filter:url(#filter1841)"
       x="38.656002"
       y="98.968002"
       id="text1827"><tspan
         sodipodi:role="line"
         id="tspan1825"
         x="38.656002"
         y="98.968002"
         style="font-style:normal;font-variant:normal;font-weight:bold;font-stretch:normal;font-size:96px;font-family:'Comic Neue';-inkscape-font-specification:'Comic Neue Bold';fill:#2e4f9a;fill-opacity:1">?</tspan></text>
  </g>
</svg>
