<?xml version="1.0" encoding="UTF-8" standalone="no"?>
<!DOCTYPE svg PUBLIC "-//W3C//DTD SVG 1.1//EN" "http://www.w3.org/Graphics/SVG/1.1/DTD/svg11.dtd">
<svg width="100%" height="100%" viewBox="0 0 128 128" version="1.1" xmlns="http://www.w3.org/2000/svg" xmlns:xlink="http://www.w3.org/1999/xlink" xml:space="preserve" xmlns:serif="http://www.serif.com/" style="fill-rule:evenodd;clip-rule:evenodd;stroke-linejoin:round;stroke-miterlimit:2;">
    <g>
        <path d="M52.22,25.91L52.22,42.51C54.67,41.19 58.57,39.8 63.75,39.8C69.89,39.8 73.42,41.65 75.12,42.99L75.12,25.7C63.67,22.42 55.63,24.63 52.22,25.91Z" style="fill:rgb(230,86,25);fill-rule:nonzero;"/>
        <path d="M43.05,54.73C43.05,54.73 52.07,64.9 53.06,63.77C58.69,57.41 64.19,49.58 64.19,37.09C64.19,20.418 59.4,10.357 56.929,6.276C56.104,4.966 54.664,4.171 53.116,4.171C51.667,4.16 49.732,4.16 47.83,4.16C46.334,4.16 44.936,4.901 44.095,6.138C43.254,7.376 43.081,8.949 43.633,10.339C46.345,16.704 50,26.703 50,33.75C50,41.95 48.04,48.15 43.15,54.6C43.11,54.65 43.08,54.69 43.05,54.73Z" style="fill:rgb(64,192,231);fill-rule:nonzero;"/>
        <path d="M82.49,19.22L82.01,17.7C81.91,17.4 81.63,17.2 81.32,17.22L79.48,17.31C79.15,17.33 78.85,17.1 78.77,16.77L78.28,14.68C78.22,14.4 77.99,14.19 77.7,14.15L75.92,13.89C75.56,13.84 75.3,13.51 75.33,13.15C75.33,13.15 75.33,13.15 75.33,13.149C75.366,12.69 75.099,12.261 74.671,12.09C74.243,11.919 73.754,12.047 73.464,12.405C64.513,23.409 64.2,34.508 64.2,37.1C64.2,49.59 69.7,57.41 75.33,63.78C76.33,64.91 85.34,54.74 85.34,54.74C85.31,54.7 85.28,54.66 85.25,54.62C81.55,49.74 78.76,45.06 78.76,39.44C78.76,30.804 82.448,24.496 84.916,21.242C85.205,20.901 85.241,20.412 85.005,20.033C84.768,19.654 84.313,19.471 83.88,19.581C83.534,19.643 83.31,19.7 83.31,19.7C82.97,19.77 82.6,19.57 82.49,19.22Z" style="fill:rgb(64,192,231);fill-rule:nonzero;"/>
        <g>
            <path d="M63.81,91.61L63.81,91.71C63.81,107.981 68.377,117.614 70.897,121.69C71.807,123.116 73.381,123.979 75.072,123.979C76.304,123.99 77.853,123.99 79.426,123.99C81.071,123.99 82.609,123.175 83.533,121.815C84.457,120.454 84.647,118.724 84.041,117.195C81.36,111.01 78.01,101.797 78.01,95.05C78.01,93.86 78.06,92.72 78.14,91.61L63.81,91.61Z" style="fill:rgb(237,108,48);fill-rule:nonzero;"/>
            <path d="M42.56,107.89L40.38,109.69C40.03,109.98 40.1,110.54 40.52,110.72C40.87,110.87 41.25,111.02 41.53,111.09C42.2,111.26 42.59,111.77 42.64,112L43.05,113.87C43.13,114.25 43.45,114.53 43.83,114.57L45.62,114.75C45.96,114.78 46.25,115.01 46.37,115.33L46.93,116.87C47.07,117.26 47.46,117.5 47.86,117.45L49.47,117.28C49.71,117.25 49.95,117.33 50.14,117.48C50.14,117.48 50.46,118.47 51.11,118.78C51.76,119.09 52.41,118.78 52.41,118.78C63.44,107.06 63.8,94.5 63.8,91.71L63.8,91.62L49.15,91.62C48.55,100.2 44.67,105.9 42.56,107.89Z" style="fill:rgb(237,108,48);fill-rule:nonzero;"/>
        </g>
        <path d="M78.14,91.57C78.09,91.58 78.02,91.6 77.96,91.62L78.14,91.62L78.14,91.57Z" style="fill:url(#_Radial1);fill-rule:nonzero;"/>
        <path d="M88.88,58.52L78.11,66.13C80.37,74.71 67.84,86.86 63.75,86.86C59.66,86.86 46.51,77.13 49.38,66.17L38.94,59.64C38.94,59.64 27.65,73.07 38.11,88.3C43.11,95.58 51.73,99.39 63.75,99.39C75.77,99.39 83.66,95 89.4,88.29C100.78,74.98 88.88,58.52 88.88,58.52Z" style="fill:rgb(64,192,231);fill-rule:nonzero;"/>
        <path d="M80.94,79.43C80.82,79.55 75.06,86.1 64.05,86.85C65.7,68.73 83.01,59.62 79.75,45.12C79.75,45.12 78.69,42.55 78.77,39.42C78.95,31.92 80.75,29 80.75,29C99.86,37.76 92.93,58.33 91.27,62.29C89.95,65.4 84.19,73.34 80.94,79.43Z" style="fill:rgb(237,108,48);fill-rule:nonzero;"/>
        <path d="M47.09,79.42C47.21,79.54 52.97,86.09 63.98,86.84C62.33,68.72 44.39,59.48 48.27,45.13C48.27,45.13 49.72,41.19 49.98,37.52C50.45,30.77 49.01,26.29 49.01,26.29C27.85,34.59 35.05,58.21 36.76,62.27C38.08,65.39 43.84,73.32 47.09,79.42Z" style="fill:rgb(237,108,48);fill-rule:nonzero;"/>
        <g>
            <path d="M82.18,25.33C80.93,25.04 78.35,24.21 75.11,21.93C72.16,19.85 70.84,17.95 70.26,16.71C70.26,16.71 70.01,15.72 70.7,14.73C71.29,13.9 72.17,13.91 72.17,13.91C72.2,14.02 73.27,16.97 76.83,19.46C80.65,22.14 83.24,22.47 83.82,22.58C83.82,22.58 84.2,23.02 83.58,24.3C83.14,25.24 82.18,25.33 82.18,25.33Z" style="fill:rgb(237,108,48);fill-rule:nonzero;"/>
        </g>
        <g>
            <path d="M56.14,114.27C54.96,113.97 52.37,113.15 49.13,111.12C46.03,109.17 44.5,107.48 43.8,106.5C43.8,106.5 43.63,105.3 44.17,104.67C44.89,103.84 45.57,103.84 45.57,103.84C45.57,103.84 46.92,106.19 50.73,108.58C54.53,110.97 57.32,111.5 57.86,111.62C57.86,111.62 58.09,112.26 57.6,113.29C57.28,113.97 56.55,114.38 56.14,114.27Z" style="fill:rgb(64,192,231);fill-rule:nonzero;"/>
        </g>
    </g>
    <defs>
        <radialGradient id="_Radial1" cx="0" cy="0" r="1" gradientUnits="userSpaceOnUse" gradientTransform="matrix(0.188666,-0.0538373,0.0287825,0.100847,78.0517,91.6205)"><stop offset="0" style="stop-color:rgb(176,36,39);stop-opacity:0"/><stop offset="0.44" style="stop-color:rgb(176,36,39);stop-opacity:0"/><stop offset="1" style="stop-color:rgb(183,28,28);stop-opacity:1"/></radialGradient>
    </defs>
</svg>
