<?xml version="1.0" encoding="UTF-8" standalone="no"?>
<!DOCTYPE svg PUBLIC "-//W3C//DTD SVG 1.1//EN" "http://www.w3.org/Graphics/SVG/1.1/DTD/svg11.dtd">
<svg width="100%" height="100%" viewBox="0 0 128 128" version="1.1" xmlns="http://www.w3.org/2000/svg" xmlns:xlink="http://www.w3.org/1999/xlink" xml:space="preserve" xmlns:serif="http://www.serif.com/" style="fill-rule:evenodd;clip-rule:evenodd;stroke-linejoin:round;stroke-miterlimit:2;">
    <g>
        <path d="M106.66,75.71C108.14,73.37 108.72,70.62 108.72,67.87C108.72,63.08 106.14,60.28 103.47,58.81C104.15,58.05 104.69,57.24 105.09,56.5C107.79,51.56 107.73,45.22 104.94,40.33C104.07,38.81 102.8,37.81 101.69,36.5C102.74,35.99 103.62,35.27 104.04,34.14C104.43,33.05 104.31,31.79 103.72,30.8C103.65,30.68 103.54,30.54 103.4,30.54C103.28,30.54 103.18,30.62 103.09,30.7C102.51,31.25 101.96,31.84 101.32,32.31C100.03,33.25 98.38,33.65 96.79,33.55C94.61,33.41 92.65,31.46 92.65,31.46C92.65,31.46 95.71,26.57 95.97,22.98C96.26,18.97 94.78,16.74 93.48,15.58C91.74,14.01 89.42,13.52 87.93,13.86C85.78,14.34 85.08,15.5 85.08,15.5C83.42,12.38 81.15,10.04 78.47,8.76C76.66,7.9 74.36,7.76 72.43,8.09C70.42,5.64 67.39,4.07 64,4.07C60.61,4.07 57.58,5.64 55.58,8.08C53.65,7.75 51.35,7.88 49.54,8.75C46.86,10.03 44.58,12.38 42.93,15.49C42.93,15.49 42.24,14.33 40.08,13.85C38.59,13.52 36.27,14.01 34.53,15.57C33.24,16.73 31.76,18.96 32.04,22.97C32.3,26.57 35.36,31.45 35.36,31.45C35.36,31.45 33.4,33.41 31.22,33.54C29.62,33.64 27.98,33.24 26.69,32.3C26.04,31.83 25.5,31.23 24.92,30.69C24.83,30.61 24.73,30.52 24.61,30.53C24.47,30.54 24.36,30.67 24.29,30.79C23.69,31.78 23.57,33.04 23.97,34.13C24.38,35.27 25.27,35.99 26.32,36.49C25.2,37.8 23.94,38.8 23.07,40.32C20.28,45.21 20.22,51.55 22.92,56.49C23.32,57.23 23.86,58.04 24.54,58.8C21.87,60.27 19.29,63.07 19.29,67.86C19.29,70.61 19.87,73.37 21.35,75.7C23.18,78.58 26.41,80.67 27.12,82.44C27.55,83.5 27.51,84.86 26.64,85.61C25.74,86.37 24.41,86.23 23.25,85.98C22.89,85.9 22.46,85.84 22.19,86.1C21.99,86.3 21.98,86.62 22.01,86.9C22.13,88.09 22.79,89.22 23.78,89.9C24.77,90.58 26.06,90.8 27.21,90.48C26.88,91.55 25.65,94.06 26.48,97.7C27.45,101.98 29.86,106.31 34.03,107.67C36.22,108.38 38.6,108.17 39.25,107.95C39.88,111.66 42.4,115 45.75,116.78C49.3,118.67 53.05,118.27 56.07,117.18C59.1,115.9 62.18,121.16 64.02,121.02C65.55,120.9 69.17,116.12 71.97,117.18C74.99,118.27 78.74,118.67 82.29,116.78C85.63,115 88.16,111.66 88.79,107.95C89.44,108.17 91.82,108.38 94.01,107.67C98.18,106.31 100.59,101.98 101.56,97.7C102.39,94.06 101.16,91.55 100.83,90.48C101.99,90.8 103.28,90.58 104.26,89.9C105.25,89.22 105.91,88.09 106.03,86.9C106.06,86.62 106.04,86.3 105.85,86.1C105.59,85.84 105.16,85.9 104.79,85.98C103.64,86.22 102.3,86.37 101.4,85.61C100.53,84.87 100.49,83.51 100.92,82.44C101.61,80.68 104.84,78.59 106.66,75.71ZM56.82,10.79C56.85,10.82 56.88,10.84 56.91,10.87C57.85,11.59 59.09,14.66 59.52,17.13L64,17.07L68.47,17.13C68.9,14.66 70.14,11.58 71.08,10.87C71.11,10.85 71.14,10.82 71.17,10.79C71.66,11.82 71.94,12.97 71.94,14.19C71.94,18.57 68.37,22.14 63.99,22.14C59.61,22.14 56.04,18.57 56.04,14.19C56.05,12.98 56.33,11.83 56.82,10.79ZM64,6.24C66.82,6.24 69.29,7.72 70.7,9.93C70.49,9.89 70.28,9.86 70.07,9.87C69.1,9.88 68.14,10.2 67.34,10.76C67.2,10.86 67.06,10.97 66.89,10.98C66.4,11.02 65.65,8.8 65.45,8.38C65.18,7.8 64.9,7.22 64.63,6.64C64.51,6.37 64.25,6.24 64,6.24C63.75,6.24 63.49,6.37 63.37,6.64C63.1,7.22 62.82,7.8 62.55,8.38C62.35,8.79 61.6,11.01 61.11,10.98C60.94,10.97 60.8,10.86 60.66,10.76C59.87,10.2 58.9,9.89 57.93,9.87C57.72,9.87 57.5,9.89 57.3,9.93C58.71,7.72 61.18,6.24 64,6.24ZM99.89,78.38C99.16,79.08 98.05,80.41 97.46,81.12C96.34,82.49 95.38,84.21 96.09,87L93.06,89.82C94.68,90.56 97.54,92.29 97.24,98.18C97.11,100.86 95.47,103.71 92.91,104.75C92.91,104.75 93.52,102.83 92.91,101.46C92.25,99.99 90.91,99.11 89.47,99.17C88.52,99.19 87.61,99.51 86.91,100.05C85.89,100.84 85.33,102.08 85.38,103.45C85.39,103.76 85.44,104.07 85.51,104.37C85.99,107.98 84.78,110.82 81.81,112.77C78.03,115.24 73.64,113.18 70.82,110.72L57.19,110.72C54.37,113.18 49.98,115.24 46.2,112.77C43.23,110.82 42.02,107.98 42.5,104.37C42.57,104.07 42.62,103.76 42.63,103.45C42.68,102.07 42.12,100.83 41.1,100.05C40.39,99.51 39.48,99.2 38.54,99.17C37.1,99.11 35.76,99.99 35.1,101.46C34.49,102.83 35.1,104.75 35.1,104.75C32.54,103.7 30.9,100.86 30.77,98.18C30.48,92.29 33.33,90.56 34.95,89.82L31.91,87C32.62,84.21 31.66,82.49 30.54,81.12C29.96,80.41 28.84,79.08 28.11,78.38C25.72,76.09 23.16,74.51 23.16,69.45C23.16,63.84 28.23,63.48 28.83,63.4L29.17,58.89C21.6,53.31 25.17,45.59 25.17,45.59C25.94,47.79 27.64,50.35 29.74,51.65L31.19,49.3C29.54,48.28 28.22,45.83 28.06,43.48C27.92,41.52 28.46,40.07 30.2,38.59C32.1,37.4 33.38,37.11 35.9,37.25L40.56,31.15C40.31,30.87 39.99,30.58 39.63,30.24C38.19,28.93 36.44,27.59 35.49,23.47C35.1,21.77 35.12,19.64 36.09,18.12C36.54,17.41 37.42,16.68 38.27,16.53C39.54,16.3 40.72,17.22 40.17,18.55C39.82,19.4 38.65,19.74 37.8,20.31C37.51,20.51 37.22,20.81 37.26,21.16C37.28,21.35 37.4,21.51 37.54,21.64C38.36,22.44 39.57,22.51 40.61,22.22C40.15,24.52 39.98,26.89 40.12,29.21L43.98,28.98C43.8,25.92 43.19,16.53 50,11.96C51.47,10.97 52.94,10.59 54.08,10.59C53.5,11.92 53.17,13.38 53.17,14.92C53.17,20.9 58.04,25.77 64.02,25.77C70,25.77 74.87,20.9 74.87,14.92C74.87,13.38 74.54,11.92 73.96,10.59C75.1,10.58 76.56,10.97 78.04,11.96C84.85,16.53 84.24,25.92 84.06,28.98L87.92,29.21C88.06,26.89 87.88,24.52 87.43,22.22C88.47,22.51 89.68,22.44 90.5,21.64C90.64,21.51 90.76,21.35 90.78,21.16C90.82,20.81 90.53,20.51 90.24,20.31C89.39,19.74 88.23,19.33 87.88,18.48C87.33,17.15 88.49,16.3 89.77,16.52C90.62,16.67 91.5,17.4 91.95,18.11C92.91,19.63 92.94,21.76 92.55,23.46C91.61,27.57 89.85,28.92 88.41,30.23C88.05,30.56 87.73,30.86 87.48,31.14L92.14,37.24C94.66,37.11 95.94,37.39 97.84,38.58C99.59,40.06 100.12,41.51 99.98,43.47C99.82,45.82 98.5,48.27 96.85,49.29L98.3,51.64C100.4,50.34 102.1,47.78 102.87,45.58C102.87,45.58 106.44,53.31 98.87,58.88L99.21,63.39C99.81,63.47 104.88,63.83 104.88,69.44C104.84,74.51 102.28,76.09 99.89,78.38Z" style="fill:rgb(241,124,4);fill-rule:nonzero;"/>
        <ellipse cx="63.95" cy="64.16" rx="36.37" ry="47.91" style="fill:rgb(247,147,41);"/>
        <g transform="matrix(1,0,0,1,-7.10543e-15,-1.64)">
            <ellipse cx="63.95" cy="65.88" rx="31.95" ry="42.1" style="fill:rgb(98,205,234);"/>
        </g>
    </g>
</svg>
