<?xml version="1.0" encoding="UTF-8" standalone="no"?>
<!DOCTYPE svg PUBLIC "-//W3C//DTD SVG 1.1//EN" "http://www.w3.org/Graphics/SVG/1.1/DTD/svg11.dtd">
<svg width="100%" height="100%" viewBox="0 0 128 128" version="1.1" xmlns="http://www.w3.org/2000/svg" xmlns:xlink="http://www.w3.org/1999/xlink" xml:space="preserve" xmlns:serif="http://www.serif.com/" style="fill-rule:evenodd;clip-rule:evenodd;stroke-linejoin:round;stroke-miterlimit:2;">
    <path d="M17.5,118.15L17.5,128.45L111.37,128.45L111.37,118.15C111.37,102.35 87.97,94.32 64.43,94.35C41.05,94.37 17.5,101.41 17.5,118.15Z" style="fill:#da4105;fill-rule:nonzero;"/>
    <path d="M73.09,90.08L54.92,90.08L54.92,99.67C54.92,104.01 58.62,107.53 63.18,107.53L64.83,107.53C69.39,107.53 73.09,104.01 73.09,99.67L73.09,90.08Z" style="fill:rgb(153, 103, 79);fill-rule:nonzero;"/>
    <path d="M36.41,119.37L39.41,119.37L39.41,127.83L36.41,127.83L36.41,119.37ZM88.7,119.37L91.7,119.37L91.7,127.83L88.7,127.83L88.7,119.37Z" style="fill-opacity:0.2;fill-rule:nonzero;"/>
    <path d="M96.19,51.47C96.19,51.47 102.08,52.49 102.08,58.84C102.08,64.44 97.78,66.65 93.48,66.65L93.48,51.47L96.19,51.47ZM31.91,51.47C31.91,51.47 26.02,52.49 26.02,58.84C26.02,64.44 30.32,66.65 34.62,66.65L34.62,51.47L31.91,51.47Z" style="fill:rgb(153, 103, 79);fill-rule:nonzero;"/>
    <path d="M64.05,9.91C38.65,9.91 32.01,29.6 32.01,57.26C32.01,85.94 50.44,93.36 64.05,93.36C77.46,93.36 96.09,86.16 96.09,57.26C96.1,29.59 89.45,9.91 64.05,9.91Z" style="fill:rgb(191, 143, 104);fill-rule:nonzero;"/>
    <path d="M53.5,59.82C53.5,62.68 51.59,64.99 49.22,64.99C46.86,64.99 44.93,62.67 44.93,59.82C44.93,56.96 46.85,54.64 49.22,54.64C51.59,54.64 53.5,56.96 53.5,59.82M74.6,59.82C74.6,62.68 76.51,64.99 78.89,64.99C81.25,64.99 83.17,62.67 83.17,59.82C83.17,56.96 81.25,54.64 78.89,54.64C76.51,54.64 74.6,56.96 74.6,59.82" style="fill:#444;fill-rule:nonzero;"/>
    <path d="M73.33,77.29L54.79,77.29C53.73,77.29 53.27,78 53.97,79.08C54.95,80.58 58.61,83.46 64.06,83.46C69.51,83.46 73.17,80.58 74.15,79.08C74.85,78.01 74.39,77.29 73.33,77.29Z" style="fill:#513f35;fill-rule:nonzero;"/>
    <path d="M68.53,69.41C66.95,69.86 65.31,70.07 64.05,70.07C62.79,70.07 61.15,69.85 59.57,69.41C58.9,69.22 58.63,69.86 58.87,70.28C59.37,71.16 61.39,72.94 64.05,72.94C66.71,72.94 68.73,71.16 69.23,70.28C69.47,69.86 69.21,69.22 68.53,69.41Z" style="fill:rgb(153, 103, 79);fill-rule:nonzero;"/>
    <g transform="matrix(1.96907,0,0,1.96907,-144.397,-39.9588)">
        <path d="M94.066,27.778C96.675,25.707 100.329,23.961 105.476,23.859C105.476,23.859 105.721,23.849 105.834,23.849C105.936,23.849 106.191,23.859 106.191,23.859C109.911,23.964 112.963,24.918 115.402,26.243C116.216,26.5 116.997,26.834 117.673,27.221C118.084,27.456 118.457,27.717 118.827,28.012C118.903,28.073 119.184,28.228 119.209,28.321C119.238,28.425 118.994,28.305 118.886,28.296C118.731,28.283 118.574,28.272 118.419,28.252L118.368,28.246C118.971,28.744 119.515,29.258 120,29.772C120.271,29.935 120.539,30.114 120.804,30.314C121.132,30.562 121.401,30.867 121.659,31.184C121.748,31.294 121.84,31.401 121.917,31.52C121.966,31.595 122.148,31.735 122.06,31.745C121.896,31.764 121.698,31.677 121.52,31.62C122.01,32.31 122.39,32.964 122.665,33.536C123.633,35.551 124.199,37.503 124.508,39.288C125.092,40.069 125.567,40.92 125.654,41.756C125.668,41.885 125.453,41.592 125.348,41.517C125.153,41.377 124.947,41.255 124.746,41.124C124.854,42.375 124.844,43.507 124.778,44.475C125.148,44.925 125.697,45.513 125.762,46.106C125.767,46.16 125.663,46.061 125.615,46.037C125.48,45.97 125.357,45.907 125.234,45.818C125.048,45.683 124.867,45.537 124.697,45.38C124.515,47.006 124.206,47.978 124.206,47.978C124.206,47.978 123.992,47.754 123.584,47.437C123.145,47.1 122.665,46.906 122.665,46.906C123.306,49.8 123.851,54.429 122.665,56.431C120.735,54.812 118.108,49.269 117.391,39.774C116.735,40.348 116.068,40.864 115.492,41.108C115.534,41.282 115.575,41.456 115.63,41.619C115.693,41.806 115.767,41.99 115.858,42.164C115.907,42.256 116.121,42.448 116.018,42.432C115.768,42.394 115.388,42.01 115.166,41.873C114.718,41.595 114.247,41.364 113.749,41.208C113.257,41.177 112.766,41.13 112.283,41.047C112.464,41.653 112.611,42.271 112.664,42.901C112.683,43.125 112.706,43.776 112.534,43.933C112.534,43.933 112.37,43.713 112.357,43.694C112.245,43.534 112.131,43.375 112.017,43.217C111.69,42.765 111.364,42.316 110.987,41.903C110.287,41.135 109.563,40.41 108.76,39.79C107.985,39.438 107.209,39.088 106.389,38.836C105.299,38.5 104.178,38.454 103.065,38.251C102.871,38.215 102.678,38.17 102.487,38.118C102.375,38.122 102.263,38.127 102.152,38.133C102.787,39.669 103,41.371 102.51,42.961C102.292,43.667 101.971,44.34 101.551,44.947C101.52,44.992 101.219,45.432 101.139,45.399C100.91,45.303 100.565,44.561 100.421,44.352C99.882,43.567 99.309,42.759 98.629,42.086C97.378,40.845 95.87,40.03 94.322,39.278C94.417,45.039 92.655,52.822 89.002,56.431C88.06,54.319 88.205,49.505 89.002,46.906C89.002,46.906 88.512,47.1 88.084,47.437C87.686,47.754 87.461,47.978 87.461,47.978C87.461,47.978 86.769,45.388 86.759,42.115C86.575,42.277 86.243,42.692 86.034,42.725C85.973,42.735 86.045,42.601 86.052,42.539C86.069,42.39 86.093,42.241 86.117,42.093C86.173,41.748 86.247,41.406 86.344,41.07C86.474,40.618 86.659,40.195 86.876,39.788C87.097,37.721 87.669,35.566 88.878,33.721C88.632,33.702 88.393,33.677 88.167,33.65C87.877,33.614 87.587,33.553 87.313,33.452C87.277,33.439 87.088,33.396 87.076,33.358C87.076,33.358 87.599,33.105 87.679,33.062C88.34,32.711 88.992,32.314 89.634,31.927C89.969,31.724 90.31,31.497 90.647,31.254C91.238,30.503 91.939,29.698 92.772,28.904C92.544,28.723 92.341,28.501 92.171,28.224C91.979,27.91 91.799,27.548 91.755,27.177C91.74,27.051 91.827,26.729 92.041,26.77C92.608,26.879 92.864,27.699 93.479,27.838C93.635,27.873 93.855,27.833 94.066,27.778Z" style="fill:#f9e073;fill-rule:nonzero;"/>
    </g>
</svg>
