<?xml version="1.0" encoding="UTF-8" standalone="no"?>
<!DOCTYPE svg PUBLIC "-//W3C//DTD SVG 1.1//EN" "http://www.w3.org/Graphics/SVG/1.1/DTD/svg11.dtd">
<svg width="100%" height="100%" viewBox="0 0 128 128" version="1.1" xmlns="http://www.w3.org/2000/svg" xmlns:xlink="http://www.w3.org/1999/xlink" xml:space="preserve" xmlns:serif="http://www.serif.com/" style="fill-rule:evenodd;clip-rule:evenodd;stroke-linejoin:round;stroke-miterlimit:2;">
    <g>
        <path d="M8.93,90.74C8.4,89.49 7.89,88.24 7.39,86.99C3.62,77.48 8.35,68.9 12.57,60.5L18.69,48.34C19.92,45.89 21.81,43.83 24.13,42.39L41.73,31.47L59.12,13.49C60.2,12.37 61.58,11.58 63.09,11.22L74.93,8.36C80.66,6.99 83.12,7.21 84.97,9.84C91.38,18.94 95.67,26.43 101.38,35.5C104.49,40.44 111.67,51.79 112.12,52.54C113.5,54.86 112.94,56.8 112.89,59.46C112.77,65.59 113.85,71.75 116.09,77.46C116.76,79.16 117.53,80.84 117.88,82.63C118.2,84.24 117.77,94.47 117.44,97.93C117.17,100.74 110.53,111.23 108.15,112.5C105.53,113.9 86.11,121.04 81.82,122.26C77.53,123.48 58.93,119.23 49.27,117.75C43.3,116.84 37.32,115.92 31.35,115.01C26.17,114.22 21.02,114.82 18.12,109.59C14.71,103.47 11.65,97.18 8.93,90.74Z" style="fill:rgb(101,147,162);fill-rule:nonzero;"/>
        <path d="M31.34,115C37.31,115.91 43.29,116.83 49.26,117.74C52.37,118.22 56.41,118.98 60.6,119.76C57.78,116.42 53.57,112.46 50.75,109.12C50.14,108.4 49.52,107.65 49.3,106.73C49.07,105.75 49.33,104.74 49.6,103.77C50.46,100.59 50.68,97.14 51.54,93.96C46.21,95.2 33.93,97.56 32.92,97.27C31.8,96.95 30.89,96.14 30.02,95.35C23.69,89.57 18.74,83.74 13.9,76.69C13.33,75.86 12.75,75 12.54,74.01C12.34,73.08 12.49,72.12 12.64,71.19C13,68.87 13.8,62.44 14.44,56.77L12.56,60.5C8.35,68.9 3.62,77.48 7.4,86.99C7.9,88.25 8.41,89.5 8.94,90.74C11.65,97.18 14.72,103.47 18.11,109.57C21,114.81 26.16,114.21 31.34,115Z" style="fill:rgb(90,129,142);fill-rule:nonzero;"/>
        <path d="M85.05,9.95C83.82,8.5 81.42,8.78 78.9,11.08L69.84,20.14C69.28,20.7 68.98,21.47 69.03,22.26L70,40.76C70.03,41.38 70.26,41.96 70.66,42.43C73.88,46.19 85.26,64.26 88.56,64.26C91.85,64.26 97.6,51.44 100.53,51.51C101.03,51.52 103.64,51.68 106.19,52.46C108.57,53.18 109.5,49.91 109.01,47.59C106.55,43.69 103.24,38.46 101.38,35.5C95.69,26.47 91.41,19 85.05,9.95Z" style="fill:rgb(134,168,180);fill-rule:nonzero;"/>
        <path d="M42.89,46.37C46.22,45.87 57.33,43.98 59.42,43.16C63.5,41.55 67.1,34.69 69.48,31C69.48,31 70.3,43.03 69.48,47.73C68.91,51 66.76,68.1 64.6,72.2L51.54,93.96C45.14,87.56 38.75,81.17 32.35,74.77C30.72,73.14 29.68,72.28 29.09,69.97C27.74,64.69 25.29,56.9 25.28,52.31C25.27,47.72 37.64,47.15 42.89,46.37Z" style="fill:rgb(90,129,142);fill-rule:nonzero;"/>
        <path d="M67.16,20.74C65.88,19.21 65.52,17.04 65.96,15.1C66.33,13.48 69.69,10.35 70.78,9.36L63.09,11.22C61.58,11.59 60.2,12.37 59.12,13.49L41.73,31.47C41.73,31.47 58.57,24.45 67.16,20.74Z" style="fill:rgb(75,107,117);fill-rule:nonzero;"/>
        <path d="M116.08,77.46C114.4,73.18 113.37,68.65 113.02,64.07C107.28,68 104.07,73.1 94.83,74.35C92.38,74.68 88.59,75.14 86.2,75.77C83.24,76.55 80.5,78.74 76.06,79.15C72.9,79.45 64.93,79.22 66.13,81C67.33,82.78 74.48,86.37 76.26,87.82C78.79,89.85 80.99,92.24 83.1,94.7C84.2,95.99 85.85,99.12 87.77,99.97C88.26,100.19 88.78,100.25 89.3,100.09C90.21,99.82 90.94,99.16 91.65,98.53C98.52,92.44 106.29,87.36 114.62,83.51C115.51,83.1 116.47,82.64 116.91,81.76C117.1,81.37 117.18,80.84 117.19,80.27C116.84,79.33 116.45,78.4 116.08,77.46Z" style="fill:rgb(134,168,180);fill-rule:nonzero;"/>
        <path d="M117.87,82.63C117.74,81.98 117.55,81.34 117.33,80.71C117.16,81.3 116.79,81.95 115.99,82.56C113.69,84.32 104.82,87.03 95.06,95.58C88.69,101.16 88.68,101.91 87.31,108.06C85.07,118.13 81.51,121.79 80.83,122.41C81.2,122.37 81.53,122.32 81.8,122.24C86.1,121.03 105.51,113.88 108.13,112.48C110.51,111.21 117.15,100.72 117.42,97.91C117.76,94.47 118.19,84.24 117.87,82.63Z" style="fill:rgb(75,107,117);fill-rule:nonzero;"/>
    </g>
</svg>
