<?xml version="1.0" encoding="UTF-8" standalone="no"?>
<!DOCTYPE svg PUBLIC "-//W3C//DTD SVG 1.1//EN" "http://www.w3.org/Graphics/SVG/1.1/DTD/svg11.dtd">
<svg width="100%" height="100%" viewBox="0 0 128 128" version="1.1" xmlns="http://www.w3.org/2000/svg" xmlns:xlink="http://www.w3.org/1999/xlink" xml:space="preserve" xmlns:serif="http://www.serif.com/" style="fill-rule:evenodd;clip-rule:evenodd;stroke-linejoin:round;stroke-miterlimit:2;">
    <path d="M8.02,118.07L8.02,127.96L95.16,127.96L95.16,118.07C95.16,102.9 73.77,95.2 51.92,95.23C30.2,95.25 8.02,102.01 8.02,118.07Z" style="fill:rgb(224,224,224);fill-rule:nonzero;"/>
    <path d="M60.63,90.23L42.46,90.23L42.46,99.82C42.46,104.16 46.16,107.68 50.72,107.68L52.37,107.68C56.93,107.68 60.63,104.16 60.63,99.82L60.63,90.23Z" style="fill:#99674f;fill-rule:nonzero;"/>
    <path d="M51.48,13.55C27.13,13.55 20.76,32.42 20.76,58.94C20.76,85.45 39.65,93.54 51.48,93.54C63.31,93.54 82.2,85.45 82.2,58.94C82.2,32.43 75.83,13.55 51.48,13.55Z" style="fill:#bf8f68;fill-rule:nonzero;"/>
    <g transform="matrix(1.98326,0,0,1.98326,-158.409,-37.7398)">
        <path d="M94.066,27.778C96.675,25.707 100.329,23.961 105.476,23.859C105.476,23.859 105.721,23.849 105.834,23.849C105.936,23.849 106.191,23.859 106.191,23.859C109.911,23.964 112.963,24.918 115.402,26.243C116.216,26.5 116.997,26.834 117.673,27.221C118.084,27.456 118.457,27.717 118.827,28.012C118.903,28.073 119.184,28.228 119.209,28.321C119.238,28.425 118.994,28.305 118.886,28.296C118.731,28.283 118.574,28.272 118.419,28.252L118.368,28.246C118.971,28.744 119.515,29.258 120,29.772C120.271,29.935 120.539,30.114 120.804,30.314C121.132,30.562 121.401,30.867 121.659,31.184C121.748,31.294 121.84,31.401 121.917,31.52C121.966,31.595 122.148,31.735 122.06,31.745C121.896,31.764 121.698,31.677 121.52,31.62C122.01,32.31 122.39,32.964 122.665,33.536C123.633,35.551 124.199,37.503 124.508,39.288C125.092,40.069 125.567,40.92 125.654,41.756C125.668,41.885 125.453,41.592 125.348,41.517C125.153,41.377 124.947,41.255 124.746,41.124C124.854,42.375 124.844,43.507 124.778,44.475C125.148,44.925 125.697,45.513 125.762,46.106C125.767,46.16 125.663,46.061 125.615,46.037C125.48,45.97 125.357,45.907 125.234,45.818C125.048,45.683 124.867,45.537 124.697,45.38C124.515,47.006 124.206,47.978 124.206,47.978C124.206,47.978 123.992,47.754 123.584,47.437C123.145,47.1 122.665,46.906 122.665,46.906C123.306,49.8 123.851,54.429 122.665,56.431C120.735,54.812 118.108,49.269 117.391,39.774C116.735,40.348 116.068,40.864 115.492,41.108C115.534,41.282 115.575,41.456 115.63,41.619C115.693,41.806 115.767,41.99 115.858,42.164C115.907,42.256 116.121,42.448 116.018,42.432C115.768,42.394 115.388,42.01 115.166,41.873C114.718,41.595 114.247,41.364 113.749,41.208C113.257,41.177 112.766,41.13 112.283,41.047C112.464,41.653 112.611,42.271 112.664,42.901C112.683,43.125 112.706,43.776 112.534,43.933C112.534,43.933 112.37,43.713 112.357,43.694C112.245,43.534 112.131,43.375 112.017,43.217C111.69,42.765 111.364,42.316 110.987,41.903C110.287,41.135 109.563,40.41 108.76,39.79C107.985,39.438 107.209,39.088 106.389,38.836C105.299,38.5 104.178,38.454 103.065,38.251C102.871,38.215 102.678,38.17 102.487,38.118C102.375,38.122 102.263,38.127 102.152,38.133C102.787,39.669 103,41.371 102.51,42.961C102.292,43.667 101.971,44.34 101.551,44.947C101.52,44.992 101.219,45.432 101.139,45.399C100.91,45.303 100.565,44.561 100.421,44.352C99.882,43.567 99.309,42.759 98.629,42.086C97.378,40.845 95.87,40.03 94.322,39.278C94.417,45.039 92.655,52.822 89.002,56.431C88.06,54.319 88.205,49.505 89.002,46.906C89.002,46.906 88.512,47.1 88.084,47.437C87.686,47.754 87.461,47.978 87.461,47.978C87.461,47.978 86.769,45.388 86.759,42.115C86.575,42.277 86.243,42.692 86.034,42.725C85.973,42.735 86.045,42.601 86.052,42.539C86.069,42.39 86.093,42.241 86.117,42.093C86.173,41.748 86.247,41.406 86.344,41.07C86.474,40.618 86.659,40.195 86.876,39.788C87.097,37.721 87.669,35.566 88.878,33.721C88.632,33.702 88.393,33.677 88.167,33.65C87.877,33.614 87.587,33.553 87.313,33.452C87.277,33.439 87.088,33.396 87.076,33.358C87.076,33.358 87.599,33.105 87.679,33.062C88.34,32.711 88.992,32.314 89.634,31.927C89.969,31.724 90.31,31.497 90.647,31.254C91.238,30.503 91.939,29.698 92.772,28.904C92.544,28.723 92.341,28.501 92.171,28.224C91.979,27.91 91.799,27.548 91.755,27.177C91.74,27.051 91.827,26.729 92.041,26.77C92.608,26.879 92.864,27.699 93.479,27.838C93.635,27.873 93.855,27.833 94.066,27.778Z" style="fill:#6d4c41;fill-rule:nonzero;"/>
    </g>
    <path d="M60.82,78.09L42.36,78.09C41.3,78.09 40.85,78.8 41.55,79.87C42.53,81.36 46.16,84.23 51.59,84.23C57.02,84.23 60.65,81.36 61.63,79.87C62.33,78.8 61.87,78.09 60.82,78.09Z" style="fill:rgb(68,68,68);fill-rule:nonzero;"/>
    <g>
        <path d="M41.09,60.71C41.09,63.55 39.19,65.86 36.83,65.86C34.48,65.86 32.56,63.56 32.56,60.71C32.56,57.86 34.47,55.56 36.83,55.56C39.19,55.55 41.09,57.86 41.09,60.71M62.08,60.71C62.08,63.55 63.98,65.86 66.35,65.86C68.7,65.86 70.61,63.56 70.61,60.71C70.61,57.86 68.7,55.56 66.35,55.56C63.99,55.55 62.08,57.86 62.08,60.71" style="fill:rgb(68,68,68);fill-rule:nonzero;"/>
    </g>
    <path d="M55.99,70.25C54.42,70.69 52.79,70.91 51.53,70.91C50.27,70.91 48.64,70.69 47.07,70.25C46.4,70.06 46.13,70.7 46.38,71.12C46.88,72 48.88,73.76 51.53,73.76C54.18,73.76 56.18,71.99 56.68,71.12C56.93,70.69 56.66,70.06 55.99,70.25Z" style="fill:#99674f;fill-rule:nonzero;"/>
    <path d="M42.77,100.72L60.2,100.72L53.05,127.96L50.07,127.96L42.77,100.72Z" style="fill:rgb(128,203,196);fill-rule:nonzero;"/>
    <path d="M42.46,94.38L32.46,100.25L42.04,110.31L39.75,118.32L50.23,128.11L42.46,94.38ZM60.62,94.38L70.62,100.25L61.04,110.31L63.33,118.32L52.85,128.11L60.62,94.38Z" style="fill:rgb(238,238,238);fill-rule:nonzero;"/>
    <path d="M21.56,66.07L20.59,65.22C20.48,65.13 20.39,65.01 20.32,64.87L15.13,54.62L15.13,49.87L20.16,43.87C20.31,43.7 20.49,43.58 20.69,43.54L21.43,43.38L21.56,66.07ZM81.65,66.07L82.62,65.22C82.73,65.13 82.82,65.01 82.89,64.87L88.08,54.62L88.08,49.87L83.05,43.87C82.914,43.705 82.728,43.589 82.52,43.54L81.78,43.38L81.65,66.07Z" style="fill:rgb(224,224,224);fill-rule:nonzero;"/>
    <path d="M29.67,67.22C29.42,67.17 29.17,67.12 28.93,67.06C29.17,67.12 29.42,67.17 29.67,67.22ZM62.28,67.39C61.92,67.32 61.57,67.25 61.21,67.16C61.57,67.24 61.92,67.32 62.28,67.39ZM30.7,67.41C30.46,67.37 30.22,67.33 29.99,67.28C30.22,67.32 30.46,67.37 30.7,67.41ZM34.11,67.78C33.85,67.77 33.59,67.75 33.34,67.73C33.6,67.75 33.86,67.77 34.11,67.78ZM32.91,67.69C32.67,67.67 32.43,67.64 32.19,67.62C32.43,67.65 32.67,67.67 32.91,67.69ZM61.16,67.14C60.8,67.05 60.45,66.96 60.1,66.85C60.45,66.96 60.81,67.06 61.16,67.14ZM65.65,67.79C65.3,67.77 64.95,67.75 64.61,67.71C64.96,67.75 65.3,67.77 65.65,67.79ZM66.78,67.83C66.44,67.83 66.09,67.82 65.74,67.8L66.78,67.83Z" style="fill:rgb(110,188,197);fill-rule:nonzero;"/>
    <path d="M67.25,44.85L43.2,44.85L35.71,67.83C41.39,67.85 47.65,66.23 51.48,60.82C53.72,63.98 56.79,65.84 60.08,66.84L67.25,44.85Z" style="fill:rgb(189,189,189);fill-opacity:0.6;fill-rule:nonzero;"/>
    <path d="M67.89,67.82C67.55,67.83 67.2,67.83 66.86,67.83C67.21,67.83 67.55,67.83 67.89,67.82Z" style="fill:rgb(110,188,197);fill-rule:nonzero;"/>
    <path d="M80.49,44.85L76.49,44.85L69.02,67.77C74.71,67.42 79.46,65.57 79.96,64.56C81.01,62.47 80.49,44.85 80.49,44.85Z" style="fill:rgb(189,189,189);fill-opacity:0.6;fill-rule:nonzero;"/>
    <path d="M63.4,67.57C63.04,67.52 62.69,67.46 62.33,67.39C62.69,67.47 63.05,67.52 63.4,67.57ZM64.53,67.71C64.18,67.68 63.82,67.64 63.47,67.59L64.53,67.71Z" style="fill:rgb(110,188,197);fill-rule:nonzero;"/>
    <path d="M33.96,44.85L22.47,44.85C22.47,44.85 21.95,62.47 22.99,64.56C23.29,65.16 25.12,66.07 27.76,66.78C27.46,66.7 27.17,66.62 26.89,66.53L33.96,44.85Z" style="fill:rgb(189,189,189);fill-opacity:0.6;fill-rule:nonzero;"/>
    <path d="M35.65,67.83L35.71,67.83L35.65,67.83ZM29.99,67.28L29.67,67.22L29.99,67.28ZM28.93,67.06C28.85,67.04 28.77,67.03 28.7,67.01C28.77,67.03 28.85,67.04 28.93,67.06ZM27.89,66.81L27.77,66.78L27.89,66.81ZM31.08,67.47L30.7,67.41C30.82,67.43 30.95,67.45 31.08,67.47ZM33.34,67.73C33.19,67.72 33.05,67.7 32.91,67.69C33.05,67.71 33.2,67.72 33.34,67.73ZM32.19,67.62C32.05,67.6 31.91,67.58 31.78,67.57C31.92,67.58 32.05,67.6 32.19,67.62ZM34.52,67.81C34.38,67.8 34.25,67.79 34.12,67.79C34.25,67.79 34.38,67.8 34.52,67.81Z" style="fill:rgb(249,245,237);fill-rule:nonzero;"/>
    <path d="M33.96,44.85L26.9,66.53C27.18,66.62 27.47,66.7 27.77,66.78L27.89,66.81C28.15,66.88 28.42,66.94 28.69,67.01C28.77,67.03 28.84,67.05 28.92,67.06C29.16,67.11 29.41,67.17 29.66,67.22C29.76,67.24 29.87,67.26 29.98,67.28C30.21,67.32 30.45,67.37 30.69,67.41L31.07,67.47C31.3,67.51 31.54,67.54 31.77,67.57C31.91,67.59 32.04,67.61 32.18,67.62C32.42,67.65 32.66,67.67 32.9,67.69C33.04,67.7 33.19,67.72 33.33,67.73C33.58,67.75 33.84,67.77 34.1,67.78C34.23,67.79 34.37,67.8 34.5,67.8C34.88,67.82 35.25,67.83 35.64,67.83L35.7,67.83L43.19,44.85L33.96,44.85Z" style="fill:rgb(224,224,224);fill-opacity:0.6;fill-rule:nonzero;"/>
    <path d="M66.86,67.83L66.78,67.83L66.86,67.83ZM69.02,67.77L69,67.77L69.02,67.77ZM67.96,67.82L67.89,67.82L67.96,67.82ZM65.74,67.79C65.71,67.79 65.68,67.79 65.65,67.78C65.68,67.79 65.71,67.79 65.74,67.79ZM61.21,67.16C61.19,67.16 61.18,67.15 61.16,67.15C61.18,67.15 61.19,67.15 61.21,67.16ZM62.34,67.4C62.32,67.4 62.3,67.39 62.28,67.39C62.3,67.39 62.32,67.39 62.34,67.4ZM64.61,67.71C64.58,67.71 64.56,67.7 64.53,67.7C64.56,67.71 64.58,67.71 64.61,67.71ZM63.47,67.58C63.45,67.58 63.43,67.57 63.4,67.57C63.43,67.58 63.45,67.58 63.47,67.58Z" style="fill:rgb(249,245,237);fill-rule:nonzero;"/>
    <path d="M67.26,44.85L60.09,66.84L60.1,66.84C60.45,66.95 60.8,67.04 61.16,67.13C61.18,67.13 61.19,67.14 61.21,67.14C61.57,67.23 61.92,67.3 62.28,67.37C62.3,67.37 62.32,67.38 62.34,67.38C62.7,67.45 63.05,67.5 63.41,67.56C63.43,67.56 63.45,67.57 63.48,67.57C63.83,67.62 64.19,67.66 64.54,67.69C64.57,67.69 64.59,67.7 64.62,67.7C64.97,67.73 65.32,67.76 65.66,67.78C65.69,67.78 65.72,67.78 65.75,67.79C66.1,67.81 66.44,67.82 66.79,67.82L66.87,67.82C67.22,67.82 67.56,67.82 67.9,67.81L67.97,67.81C68.32,67.8 68.67,67.79 69.01,67.76L69.03,67.76L76.5,44.84L67.26,44.84L67.26,44.85Z" style="fill:rgb(224,224,224);fill-opacity:0.6;fill-rule:nonzero;"/>
    <path d="M67.15,69.4C62.37,69.4 55.98,68.3 51.48,63.33C46.98,68.3 40.59,69.4 35.81,69.4C29.56,69.4 21.65,67.39 20.59,65.26C19.49,63.06 19.74,50.22 19.9,44.8C19.92,43.95 20.62,43.28 21.47,43.28L81.49,43.28C82.34,43.28 83.03,43.95 83.06,44.8C83.22,50.22 83.47,63.05 82.37,65.26C81.31,67.39 73.4,69.4 67.15,69.4ZM51.48,58.12L52.76,59.92C56.48,65.17 62.64,66.27 67.15,66.27C72.81,66.27 77.65,64.55 78.6,63.77C79.07,62.23 79.15,54.1 78.96,46.43L24,46.43C23.81,54.07 23.9,62.16 24.37,63.78C25.34,64.57 30.16,66.28 35.82,66.28C40.33,66.28 46.49,65.18 50.21,59.93L51.48,58.12Z" style="fill:rgb(238,238,238);fill-rule:nonzero;"/>
    <g>
        <path d="M101.85,107.67C103.35,108.04 104.31,109.1 104.98,110.42C106.65,110.12 109.53,109.82 110.37,109.84C111.36,109.87 112.67,109.98 112.89,112.01C113.03,113.33 112.53,114.42 110.84,114.58C110.21,114.64 109.56,114.68 108.92,114.71L109.15,115.45C109.74,115.44 110.27,115.42 110.68,115.42C112.39,115.4 113.36,116.31 113.36,118.12C113.36,119.71 111.99,120.46 110.99,120.52C110.46,120.55 108.98,120.47 107.52,120.33L107.37,120.64L107.31,120.73C108.23,120.87 109.11,121.02 109.73,121.13C111.4,121.43 112.2,122.54 112.01,123.86C111.78,125.46 110.35,125.9 109.36,125.87C108.62,125.85 106.02,125.44 104.28,125.07L103.94,125.56C104.06,125.58 104.19,125.6 104.33,125.62C104.35,125.62 104.37,125.63 104.4,125.63L104.75,125.69C104.78,125.69 104.8,125.7 104.83,125.7C104.97,125.72 105.11,125.75 105.25,125.77L105.27,125.77C105.42,125.79 105.57,125.82 105.72,125.85C105.75,125.85 105.78,125.86 105.8,125.86L106.15,125.92C106.2,125.93 106.24,125.94 106.29,125.94C106.39,125.96 106.49,125.98 106.58,125.99L106.73,126.02C106.83,126.04 106.92,126.06 107.01,126.07L107.15,126.1C107.28,126.13 107.42,126.15 107.54,126.18C109.07,126.5 109.65,127.19 109.46,128.4C109.2,130.1 107.49,130.48 106.58,130.39C105.67,130.31 102.61,129.68 101.61,129.24L101.43,129.15L101.08,129.65C96.58,129.35 93.35,127.47 93.35,127.47C90.71,125.99 90.27,124.85 89.83,123.04C89.33,120.98 89.45,118.54 89.47,118.16C89.63,114.06 90.54,111.41 93.85,109.21C94.65,108.68 95.82,107.75 98.41,107.45C99.41,107.35 100.85,107.43 101.85,107.67Z" style="fill:rgb(128,203,196);fill-rule:nonzero;"/>
        <path d="M105.59,114.48C105.59,114.48 105.63,112.42 104.98,110.42L105.7,110.29C105.7,110.29 106.21,111.71 106.39,113.81C106.42,114.15 106.43,114.46 106.43,114.76L107.07,114.72L111.36,114.48C111.36,114.48 111.04,114.54 111.04,115.02C111.04,115.22 111.16,115.35 111.25,115.43C111.07,115.41 110.87,115.39 110.67,115.4L106.41,115.51C106.4,115.63 106.4,115.75 106.39,115.88C106.29,117.62 105.88,119.29 104.91,119.93C108.13,120.31 110.99,120.5 110.99,120.5C110.43,120.73 110.67,121.41 110.67,121.41C108.5,120.82 103.24,120.51 103.24,120.51C101.02,120.32 100.72,121.82 100.72,121.82C100.31,123.63 102.28,124.46 102.28,124.46C102.54,124.61 104.89,125.08 106.57,125.4L108.25,125.71L108.72,125.8C108.67,125.79 108.47,125.78 108.39,126.11C108.35,126.27 108.39,126.38 108.42,126.45C108.17,126.34 107.87,126.24 107.52,126.17C106.73,126.01 104.34,125.62 104.16,125.59L103.56,125.51C101.58,125.25 101.1,125.6 101.1,125.6C100,126.18 100.32,127.58 100.32,127.58C100.56,128.93 102.05,129.35 102.05,129.35C102.62,129.52 105.64,130.25 105.64,130.25L101.07,129.65C100.75,129.55 100.63,129.4 100.45,129.26C98.84,127.94 99.52,126.15 99.52,126.15C99.77,125.46 100.29,125.15 100.29,125.15C100.6,124.96 100.96,124.86 101.33,124.82C99.46,123.83 99.76,121.83 99.76,121.83C100,120.6 100.89,120.08 101.59,119.86C101.53,119.81 101.46,119.76 101.4,119.7C101.4,119.7 100.2,118.91 100.64,115.52C100.79,114.38 100.77,114.22 100.65,113.5C100.65,113.5 100.22,111.96 98.94,112.45C98.94,112.45 98.51,112.56 97.84,113.09C97.84,113.09 97.3,113.51 97.31,112.85C97.31,112.65 97.45,112.29 97.72,111.98C97.72,111.98 98,111.65 98.69,111.46C98.69,111.46 100.48,110.75 101.37,112.54C101.84,113.48 101.75,114.1 101.6,115.06C101.6,115.06 101.32,118.09 102.11,119.06C102.11,119.06 102.89,119.95 104.14,119.4C104.16,119.42 105.85,118.49 105.59,114.48Z" style="fill:rgb(38,166,154);fill-rule:nonzero;"/>
    </g>
    <g>
        <path d="M104.09,92.86C101.39,92.86 99.21,92.06 99.21,91.07L99.21,114.59C99.21,117.267 101.413,119.47 104.09,119.47C106.767,119.47 108.97,117.267 108.97,114.59L108.97,91.07C108.98,92.06 106.79,92.86 104.09,92.86Z" style="fill:rgb(171,71,188);fill-opacity:0.7;fill-rule:nonzero;"/>
        <path d="M104.09,75.78C101.39,75.78 99.21,76.58 99.21,77.57L99.21,91.07C99.21,90.08 101.4,89.28 104.09,89.28C106.79,89.28 108.97,90.08 108.97,91.07L108.97,77.57C108.98,76.58 106.79,75.78 104.09,75.78Z" style="fill:rgb(187,222,251);fill-rule:nonzero;"/>
        <ellipse cx="104.09" cy="91.07" rx="4.88" ry="1.79" style="fill:rgb(209,196,233);"/>
        <path d="M104.09,76.49C106.68,76.49 108.19,77.25 108.27,77.57C108.19,77.9 106.68,78.66 104.09,78.66C101.5,78.66 99.99,77.9 99.91,77.58C99.99,77.25 101.5,76.49 104.09,76.49M104.09,75.78C101.39,75.78 99.21,76.58 99.21,77.57C99.21,78.56 101.4,79.36 104.09,79.36C106.78,79.36 108.97,78.56 108.97,77.57C108.98,76.58 106.79,75.78 104.09,75.78Z" style="fill:rgb(227,242,253);fill-rule:nonzero;"/>
        <path d="M104.56,95.4C104.4,95.4 104.25,95.39 104.1,95.39L104.1,96.37C104.25,96.38 104.4,96.39 104.56,96.39C105.87,96.39 107.05,96.2 107.92,95.89L107.92,94.9C107.05,95.21 105.87,95.4 104.56,95.4ZM104.56,98.52C104.4,98.52 104.25,98.51 104.1,98.51L104.1,99.49C104.25,99.5 104.4,99.51 104.56,99.51C105.87,99.51 107.05,99.32 107.92,99.01L107.92,98.02C107.05,98.32 105.87,98.52 104.56,98.52ZM104.56,101.64C104.4,101.64 104.25,101.63 104.1,101.63L104.1,102.61C104.25,102.62 104.4,102.63 104.56,102.63C105.87,102.63 107.05,102.44 107.92,102.13L107.92,101.14C107.05,101.44 105.87,101.64 104.56,101.64ZM104.56,104.75C104.4,104.75 104.25,104.74 104.1,104.74L104.1,105.72C104.25,105.73 104.4,105.74 104.56,105.74C105.87,105.74 107.05,105.55 107.92,105.24L107.92,104.25C107.05,104.56 105.87,104.75 104.56,104.75Z" style="fill:rgb(209,196,233);fill-rule:nonzero;"/>
        <path d="M107.63,113.58C107.35,113.58 107.13,113.35 107.13,113.08L107.13,81.7C107.13,81.42 107.36,81.2 107.63,81.2C107.91,81.2 108.13,81.43 108.13,81.7L108.13,113.07C108.13,113.35 107.91,113.58 107.63,113.58Z" style="fill:rgb(238,238,238);fill-opacity:0.5;fill-rule:nonzero;"/>
    </g>
    <path d="M110.88,120.51L110.99,120.51C111.98,120.45 113.35,119.7 113.36,118.11C113.36,116.37 112.47,115.47 110.88,115.42L110.81,115.05L111.33,115.02C112.21,114.81 112.67,114.28 112.83,113.6C112.89,113.5 112.91,112.36 112.9,112.23C112.82,111.16 112.43,110.66 112.43,110.66C112.03,109.64 109.57,109.87 109.57,109.87L105.08,110.47C104.92,110.42 104.76,110.37 104.61,110.32C103.96,109.3 103.09,108.51 101.84,108.2C100.84,107.96 99.41,107.88 98.4,108C95.81,108.3 94.64,109.23 93.84,109.76C93.67,109.87 93.53,109.99 93.38,110.11C94.29,111.76 95.67,113.49 97.36,113.2C97.47,112.95 97.65,112.69 97.73,112.6C98.09,112.21 98.59,111.93 99.12,111.87C99.95,111.77 100.81,112.18 101.26,112.88C101.96,113.96 101.15,115.39 101.1,116.68C101.08,117.29 101.58,117.88 101.7,118.48C101.81,119.05 102.03,119.65 102.52,119.96C102.55,119.98 102.6,119.98 102.63,120C102.6,120.1 102.53,120.3 102.45,120.56C102.13,120.58 101.82,120.64 101.55,120.79C100.93,121.13 100.61,121.88 100.69,122.57C100.75,123.08 101.02,123.55 101.4,123.9C101.16,124.68 100.96,125.38 100.86,125.79C100.17,126.32 100.1,127.45 100.58,128.2C101.08,128.99 102,129.42 102.91,129.65C103.82,129.88 104.76,129.96 105.65,130.26C105.6,130.25 105.56,130.25 105.51,130.24C105.96,130.32 106.34,130.38 106.58,130.4C107.48,130.48 109.2,130.1 109.46,128.41C109.61,127.44 109.25,126.81 108.32,126.43C108.25,126.18 108.13,125.9 108.06,125.69C108.23,125.72 108.41,125.76 108.58,125.79C108.91,125.83 109.19,125.86 109.36,125.86C110.35,125.89 111.79,125.45 112.01,123.85C112.16,122.79 111.67,121.88 110.61,121.4C110.22,121.32 109.82,121.26 109.43,121.19C109.59,120.93 109.75,120.67 109.91,120.42L110.88,120.51Z" style="fill:rgb(128,203,196);fill-rule:nonzero;"/>
    <path d="M111.32,115.45C111.18,115.27 111.15,114.98 111.15,114.98L111.12,114.98C110.76,114.95 106.45,114.77 106.45,114.77C106.43,113.38 105.86,111.72 105.47,110.39C105.21,110.36 104.9,110.39 104.63,110.3C104.97,111.61 105.6,113.14 105.64,114.48C105.67,115.38 105.61,116.27 105.42,117.15C105.27,117.86 105.03,118.58 104.51,119.09C103.99,119.6 103.14,119.81 102.53,119.42C102.04,119.11 101.83,118.51 101.71,117.94C101.59,117.34 101.54,116.73 101.57,116.13C101.62,114.84 101.97,113.43 101.28,112.35C100.83,111.65 99.96,111.24 99.14,111.34C98.61,111.4 98.11,111.68 97.75,112.07C97.58,112.26 96.92,113.2 97.6,113.22C97.79,113.22 97.96,113.09 98.11,112.97C98.57,112.6 99.15,112.26 99.72,112.43C100.42,112.64 100.69,113.49 100.72,114.22C100.76,115.22 100.55,116.21 100.55,117.2C100.55,118.2 100.82,119.27 101.59,119.9C100.55,120.13 99.78,121.16 99.75,122.23C99.72,123.3 100.39,124.32 101.32,124.84C100.45,124.86 99.69,125.56 99.46,126.4C99.23,127.24 99.49,128.16 100.02,128.85C100.25,129.15 100.53,129.41 100.87,129.57C100.94,129.6 101.02,129.62 101.1,129.64L101.42,129.18L101.31,129.33L101.09,129.64C101.32,129.71 101.57,129.75 101.81,129.79C101.95,129.81 102.09,129.83 102.24,129.84C103.33,129.98 104.42,130.12 105.51,130.25C105.56,130.26 105.6,130.26 105.65,130.27C104.76,129.97 103.82,129.89 102.91,129.66C102,129.43 101.09,129 100.58,128.21C100.08,127.42 100.17,126.21 100.96,125.72C101.44,125.42 102.03,125.44 102.59,125.48C103.48,125.54 104.36,125.65 105.24,125.79C105.48,125.83 105.72,125.87 105.95,125.91L106.13,125.94C106.18,125.95 106.22,125.96 106.27,125.96C106.37,125.98 106.47,126 106.56,126.01L106.71,126.04C106.81,126.06 106.9,126.08 106.99,126.09L107.13,126.12C107.26,126.15 107.4,126.17 107.52,126.2C107.79,126.26 108.01,126.33 108.22,126.4C108.28,126.42 108.35,126.43 108.41,126.45C108.27,126.22 108.44,125.87 108.7,125.83L108.56,125.8L103.67,124.84C103.03,124.71 102.37,124.58 101.82,124.25C101.22,123.89 100.76,123.27 100.67,122.57C100.58,121.87 100.91,121.12 101.53,120.79C102,120.53 102.56,120.54 103.1,120.55C105.61,120.63 108.12,120.92 110.59,121.41C110.61,121.41 110.64,121.42 110.66,121.42C110.5,121.11 110.66,120.67 110.98,120.53C110.94,120.53 110.9,120.52 110.87,120.52C108.89,120.34 106.91,120.15 104.93,119.97C106.14,118.91 106.32,117.12 106.41,115.52C106.42,115.51 111.12,115.45 111.32,115.45Z" style="fill:rgb(38,166,154);fill-rule:nonzero;"/>
</svg>
