<?xml version="1.0" encoding="UTF-8" standalone="no"?>
<!DOCTYPE svg PUBLIC "-//W3C//DTD SVG 1.1//EN" "http://www.w3.org/Graphics/SVG/1.1/DTD/svg11.dtd">
<svg width="100%" height="100%" viewBox="0 0 128 128" version="1.1" xmlns="http://www.w3.org/2000/svg" xmlns:xlink="http://www.w3.org/1999/xlink" xml:space="preserve" xmlns:serif="http://www.serif.com/" style="fill-rule:evenodd;clip-rule:evenodd;stroke-miterlimit:10;">
    <rect x="17.05" y="96.06" width="20.85" height="3.99" style="fill:white;fill-rule:nonzero;"/>
    <rect x="2.5" y="2.5" width="123" height="84.33" style="fill:rgb(38,166,154);fill-rule:nonzero;"/>
    <path d="M123,5L123,84.33L5,84.33L5,5L123,5M128,0L0,0L0,89.33L128,89.33L128,0Z" style="fill:rgb(93,64,55);fill-rule:nonzero;"/>
    <path d="M8,118.03L8,128L95.14,128L95.14,118.03C95.14,102.86 73.75,95.16 51.9,95.19C30.19,95.21 8,101.96 8,118.03Z" style="fill:rgb(84,110,122);fill-rule:nonzero;"/>
    <path d="M60.61,90.18L42.44,90.18L42.44,99.77C42.44,104.11 46.14,107.63 50.7,107.63L52.35,107.63C56.91,107.63 60.61,104.11 60.61,99.77L60.61,90.18Z" style="fill:rgb(228,149,0);fill-rule:nonzero;"/>
    <path d="M51.46,13.51C27.11,13.51 20.74,32.38 20.74,58.9C20.74,85.41 39.63,93.5 51.46,93.5C63.29,93.5 82.18,85.41 82.18,58.9C82.18,32.38 75.81,13.51 51.46,13.51Z" style="fill:rgb(251,193,27);fill-rule:nonzero;"/>
    <g transform="matrix(1.98326,0,0,1.98326,-158.482,-39.9787)">
        <path d="M94.066,27.778C96.675,25.707 100.329,23.961 105.476,23.859C105.476,23.859 105.721,23.849 105.834,23.849C105.936,23.849 106.191,23.859 106.191,23.859C109.911,23.964 112.963,24.918 115.402,26.243C116.216,26.5 116.997,26.834 117.673,27.221C118.084,27.456 118.457,27.717 118.827,28.012C118.903,28.073 119.184,28.228 119.209,28.321C119.238,28.425 118.994,28.305 118.886,28.296C118.731,28.283 118.574,28.272 118.419,28.252L118.368,28.246C118.971,28.744 119.515,29.258 120,29.772C120.271,29.935 120.539,30.114 120.804,30.314C121.132,30.562 121.401,30.867 121.659,31.184C121.748,31.294 121.84,31.401 121.917,31.52C121.966,31.595 122.148,31.735 122.06,31.745C121.896,31.764 121.698,31.677 121.52,31.62C122.01,32.31 122.39,32.964 122.665,33.536C123.633,35.551 124.199,37.503 124.508,39.288C125.092,40.069 125.567,40.92 125.654,41.756C125.668,41.885 125.453,41.592 125.348,41.517C125.153,41.377 124.947,41.255 124.746,41.124C124.854,42.375 124.844,43.507 124.778,44.475C125.148,44.925 125.697,45.513 125.762,46.106C125.767,46.16 125.663,46.061 125.615,46.037C125.48,45.97 125.357,45.907 125.234,45.818C125.048,45.683 124.867,45.537 124.697,45.38C124.515,47.006 124.206,47.978 124.206,47.978C124.206,47.978 123.992,47.754 123.584,47.437C123.145,47.1 122.665,46.906 122.665,46.906C123.306,49.8 123.851,54.429 122.665,56.431C120.735,54.812 118.108,49.269 117.391,39.774C116.735,40.348 116.068,40.864 115.492,41.108C115.534,41.282 115.575,41.456 115.63,41.619C115.693,41.806 115.767,41.99 115.858,42.164C115.907,42.256 116.121,42.448 116.018,42.432C115.768,42.394 115.388,42.01 115.166,41.873C114.718,41.595 114.247,41.364 113.749,41.208C113.257,41.177 112.766,41.13 112.283,41.047C112.464,41.653 112.611,42.271 112.664,42.901C112.683,43.125 112.706,43.776 112.534,43.933C112.534,43.933 112.37,43.713 112.357,43.694C112.245,43.534 112.131,43.375 112.017,43.217C111.69,42.765 111.364,42.316 110.987,41.903C110.287,41.135 109.563,40.41 108.76,39.79C107.985,39.438 107.209,39.088 106.389,38.836C105.299,38.5 104.178,38.454 103.065,38.251C102.871,38.215 102.678,38.17 102.487,38.118C102.375,38.122 102.263,38.127 102.152,38.133C102.787,39.669 103,41.371 102.51,42.961C102.292,43.667 101.971,44.34 101.551,44.947C101.52,44.992 101.219,45.432 101.139,45.399C100.91,45.303 100.565,44.561 100.421,44.352C99.882,43.567 99.309,42.759 98.629,42.086C97.378,40.845 95.87,40.03 94.322,39.278C94.417,45.039 92.655,52.822 89.002,56.431C88.06,54.319 88.205,49.505 89.002,46.906C89.002,46.906 88.512,47.1 88.084,47.437C87.686,47.754 87.461,47.978 87.461,47.978C87.461,47.978 86.769,45.388 86.759,42.115C86.575,42.277 86.243,42.692 86.034,42.725C85.973,42.735 86.045,42.601 86.052,42.539C86.069,42.39 86.093,42.241 86.117,42.093C86.173,41.748 86.247,41.406 86.344,41.07C86.474,40.618 86.659,40.195 86.876,39.788C87.097,37.721 87.669,35.566 88.878,33.721C88.632,33.702 88.393,33.677 88.167,33.65C87.877,33.614 87.587,33.553 87.313,33.452C87.277,33.439 87.088,33.396 87.076,33.358C87.076,33.358 87.599,33.105 87.679,33.062C88.34,32.711 88.992,32.314 89.634,31.927C89.969,31.724 90.31,31.497 90.647,31.254C91.238,30.503 91.939,29.698 92.772,28.904C92.544,28.723 92.341,28.501 92.171,28.224C91.979,27.91 91.799,27.548 91.755,27.177C91.74,27.051 91.827,26.729 92.041,26.77C92.608,26.879 92.864,27.699 93.479,27.838C93.635,27.873 93.855,27.833 94.066,27.778Z" style="fill:rgb(109,76,65);fill-rule:nonzero;"/>
    </g>
    <path d="M60.8,78.05L42.34,78.05C41.28,78.05 40.83,78.76 41.53,79.83C42.51,81.32 46.14,84.19 51.57,84.19C57,84.19 60.63,81.32 61.61,79.83C62.31,78.76 61.86,78.05 60.8,78.05Z" style="fill:rgb(68,68,68);fill-rule:nonzero;"/>
    <g>
        <path d="M41.07,60.66C41.07,63.5 39.17,65.81 36.81,65.81C34.46,65.81 32.54,63.51 32.54,60.66C32.54,57.81 34.45,55.51 36.81,55.51C39.17,55.51 41.07,57.81 41.07,60.66M62.07,60.66C62.07,63.5 63.97,65.81 66.34,65.81C68.69,65.81 70.6,63.51 70.6,60.66C70.6,57.81 68.69,55.51 66.34,55.51C63.97,55.51 62.07,57.81 62.07,60.66" style="fill:rgb(68,68,68);fill-rule:nonzero;"/>
    </g>
    <path d="M55.98,70.2C54.41,70.64 52.78,70.86 51.52,70.86C50.26,70.86 48.63,70.64 47.06,70.2C46.39,70.01 46.12,70.65 46.37,71.07C46.87,71.95 48.87,73.71 51.52,73.71C54.17,73.71 56.17,71.94 56.67,71.07C56.91,70.65 56.65,70.01 55.98,70.2Z" style="fill:rgb(228,149,0);fill-rule:nonzero;"/>
    <path d="M44.79,105.21L58.44,105.21L51.46,134.55L44.79,105.21Z" style="fill:rgb(69,90,100);fill-rule:nonzero;"/>
    <path d="M31.45,114.49L39.26,108.31L29.95,104.61L42.33,94.82L51.46,134.55L31.45,114.49ZM63.82,108.19L71.79,114.49L51.46,134.55L60.91,94.82L73.29,104.61L63.82,108.19Z" style="fill:rgb(224,224,224);fill-rule:nonzero;"/>
    <g>
        <path d="M30.14,56.21C30.14,57.73 28.8,58.98 27.15,58.98L22.44,58.98L22.44,63.87C22.44,67.07 25.25,69.67 28.7,69.67L40.55,69.67C44,69.67 46.81,67.07 46.81,63.87L46.81,58.18C46.81,54.98 44,52.38 40.55,52.38L29.59,52.38C29.93,52.83 30.14,53.37 30.14,53.96L30.14,56.21Z" style="fill:none;fill-rule:nonzero;"/>
        <path d="M40.56,51.17L28.71,51.17C28.37,51.17 28.03,51.2 27.7,51.24C28.48,51.37 29.15,51.79 29.59,52.37L40.55,52.37C44,52.37 46.81,54.97 46.81,58.17L46.81,63.86C46.81,67.06 44,69.66 40.55,69.66L28.71,69.66C25.26,69.66 22.45,67.06 22.45,63.86L22.45,58.97L21.57,58.97C21.43,58.97 21.29,58.95 21.15,58.93L21.15,63.86C21.15,67.72 24.54,70.86 28.7,70.86L40.55,70.86C44.71,70.86 48.1,67.72 48.1,63.86L48.1,58.17C48.11,54.31 44.72,51.17 40.56,51.17Z" style="fill:rgb(35,31,32);fill-rule:nonzero;stroke:rgb(35,31,32);stroke-width:0.48px;"/>
        <path d="M27.7,51.24C27.52,51.21 27.34,51.19 27.16,51.19L21.57,51.19C19.93,51.19 18.58,52.43 18.58,53.96L18.58,56.21C18.58,57.6 19.7,58.75 21.15,58.94L21.15,58.18C21.15,54.63 24.01,51.7 27.7,51.24Z" style="fill-rule:nonzero;"/>
        <path d="M22.45,58.97L22.45,58.17C22.45,54.97 25.26,52.37 28.71,52.37L29.6,52.37C29.16,51.79 28.49,51.37 27.71,51.24C24.02,51.7 21.16,54.63 21.16,58.17L21.16,58.93C21.3,58.95 21.43,58.97 21.58,58.97L22.45,58.97Z" style="fill-rule:nonzero;stroke:black;stroke-width:0.48px;"/>
        <g>
            <path d="M72.61,56.21C72.61,57.73 73.95,58.98 75.6,58.98L80.31,58.98L80.31,63.87C80.31,67.07 77.5,69.67 74.05,69.67L62.2,69.67C58.75,69.67 55.94,67.07 55.94,63.87L55.94,58.18C55.94,54.98 58.75,52.38 62.2,52.38L73.16,52.38C72.82,52.83 72.61,53.37 72.61,53.96L72.61,56.21Z" style="fill:none;fill-rule:nonzero;"/>
            <path d="M62.2,51.17L74.05,51.17C74.39,51.17 74.73,51.2 75.06,51.24C74.28,51.37 73.61,51.79 73.17,52.37L62.2,52.37C58.75,52.37 55.94,54.97 55.94,58.17L55.94,63.86C55.94,67.06 58.75,69.66 62.2,69.66L74.05,69.66C77.5,69.66 80.31,67.06 80.31,63.86L80.31,58.97L81.19,58.97C81.33,58.97 81.47,58.95 81.61,58.93L81.61,63.86C81.61,67.72 78.22,70.86 74.06,70.86L62.2,70.86C58.04,70.86 54.65,67.72 54.65,63.86L54.65,58.17C54.65,54.31 58.03,51.17 62.2,51.17Z" style="fill:rgb(35,31,32);fill-rule:nonzero;stroke:rgb(35,31,32);stroke-width:0.48px;"/>
            <path d="M75.06,51.24C75.24,51.21 75.42,51.19 75.6,51.19L81.19,51.19C82.83,51.19 84.18,52.43 84.18,53.96L84.18,56.21C84.18,57.6 83.06,58.75 81.61,58.94L81.61,58.18C81.6,54.63 78.75,51.7 75.06,51.24Z" style="fill-rule:nonzero;"/>
            <path d="M80.31,58.97L80.31,58.17C80.31,54.97 77.5,52.37 74.05,52.37L73.16,52.37C73.6,51.79 74.27,51.37 75.05,51.24C78.74,51.7 81.6,54.63 81.6,58.17L81.6,58.93C81.46,58.95 81.33,58.97 81.18,58.97L80.31,58.97Z" style="fill-rule:nonzero;stroke:black;stroke-width:0.48px;"/>
        </g>
        <path d="M55.37,58.97L47.21,58.97L46.11,53.72L56.57,53.72L55.37,58.97Z" style="fill:rgb(35,31,32);fill-rule:nonzero;"/>
        <g>
            <path d="M107.8,116.15L104.54,115.52L118.89,47.69L120.14,47.69L107.8,116.15Z" style="fill:rgb(239,65,54);fill-rule:nonzero;"/>
            <path d="M103.59,108.55C104.97,108.89 105.86,109.87 106.49,111.09C108.03,110.81 110.7,110.53 111.47,110.55C112.38,110.58 113.6,110.68 113.8,112.56C113.93,113.78 113.47,114.79 111.9,114.93C111.32,114.98 110.71,115.02 110.12,115.05L110.33,115.73C110.87,115.72 111.37,115.71 111.74,115.7C113.33,115.68 114.22,116.52 114.22,118.2C114.22,119.67 112.95,120.36 112.03,120.42C111.54,120.45 110.17,120.37 108.82,120.25L108.68,120.54L108.62,120.63C109.47,120.76 110.29,120.9 110.86,121C112.41,121.27 113.14,122.3 112.97,123.52C112.76,125 111.43,125.41 110.52,125.38C109.84,125.36 107.43,124.99 105.82,124.64L105.51,125.09C105.62,125.11 105.74,125.13 105.87,125.15C105.89,125.15 105.91,125.16 105.93,125.16C106.04,125.18 106.15,125.19 106.26,125.21C106.28,125.21 106.31,125.22 106.33,125.22L106.72,125.28L106.74,125.28C106.88,125.3 107.02,125.33 107.15,125.35C107.18,125.35 107.2,125.36 107.23,125.36L107.55,125.42C107.59,125.43 107.64,125.44 107.68,125.44C107.77,125.46 107.86,125.47 107.95,125.49L108.09,125.52C108.18,125.54 108.27,125.55 108.35,125.57C108.39,125.58 108.43,125.59 108.48,125.59C108.6,125.61 108.73,125.64 108.85,125.66C110.26,125.95 110.8,126.6 110.63,127.72C110.39,129.29 108.8,129.64 107.97,129.56C107.13,129.48 104.3,128.9 103.37,128.5C103.31,128.47 103.25,128.44 103.2,128.41L102.88,128.88C98.72,128.6 95.73,126.87 95.73,126.87C93.29,125.5 92.88,124.44 92.47,122.77C92.01,120.87 92.12,118.61 92.14,118.25C92.29,114.46 93.13,112.01 96.19,109.97C96.93,109.48 98.01,108.62 100.41,108.34C101.34,108.25 102.67,108.32 103.59,108.55Z" style="fill:rgb(251,193,27);fill-rule:nonzero;"/>
            <path d="M107.06,114.84C107.06,114.84 107.1,112.93 106.49,111.09L107.16,110.97C107.16,110.97 107.63,112.28 107.8,114.23C107.83,114.55 107.84,114.83 107.84,115.11L108.43,115.07L112.4,114.85C112.4,114.85 112.1,114.91 112.1,115.35C112.1,115.53 112.21,115.66 112.3,115.73C112.13,115.71 111.95,115.7 111.76,115.7L107.82,115.8C107.81,115.91 107.81,116.02 107.8,116.14C107.71,117.75 107.33,119.3 106.43,119.89C109.41,120.24 112.05,120.42 112.05,120.42C111.53,120.63 111.75,121.26 111.75,121.26C109.75,120.71 104.88,120.43 104.88,120.43C102.83,120.25 102.55,121.64 102.55,121.64C102.17,123.31 104,124.08 104,124.08C104.24,124.22 106.42,124.65 107.96,124.95L109.51,125.24L109.95,125.32C109.9,125.31 109.72,125.3 109.65,125.61C109.62,125.76 109.65,125.86 109.68,125.93C109.45,125.83 109.17,125.74 108.85,125.67C108.12,125.52 105.91,125.16 105.74,125.13L105.19,125.05C103.36,124.81 102.91,125.14 102.91,125.14C101.89,125.68 102.18,126.97 102.18,126.97C102.4,128.21 103.78,128.61 103.78,128.61C104.31,128.77 107.1,129.44 107.1,129.44L102.87,128.89C102.57,128.79 102.46,128.66 102.3,128.53C100.81,127.31 101.44,125.65 101.44,125.65C101.67,125.01 102.15,124.73 102.15,124.73C102.44,124.55 102.77,124.46 103.11,124.42C101.38,123.5 101.66,121.66 101.66,121.66C101.88,120.52 102.7,120.04 103.36,119.84C103.3,119.79 103.24,119.75 103.18,119.69C103.18,119.69 102.07,118.96 102.48,115.82C102.62,114.77 102.6,114.62 102.49,113.96C102.49,113.96 102.09,112.54 100.91,112.99C100.91,112.99 100.51,113.09 99.89,113.58C99.89,113.58 99.39,113.97 99.4,113.36C99.4,113.18 99.53,112.85 99.78,112.55C99.78,112.55 100.04,112.24 100.67,112.07C100.67,112.07 102.32,111.41 103.15,113.07C103.58,113.94 103.5,114.52 103.37,115.4C103.37,115.4 103.11,118.2 103.85,119.1C103.85,119.1 104.57,119.93 105.73,119.42C105.72,119.41 107.29,118.55 107.06,114.84Z" style="fill:rgb(228,149,0);fill-rule:nonzero;"/>
        </g>
    </g>
</svg>
