<?xml version="1.0" encoding="UTF-8" standalone="no"?><!DOCTYPE svg PUBLIC "-//W3C//DTD SVG 1.1//EN" "http://www.w3.org/Graphics/SVG/1.1/DTD/svg11.dtd"><svg width="128px" height="128px" version="1.1" xmlns="http://www.w3.org/2000/svg" xmlns:xlink="http://www.w3.org/1999/xlink" xml:space="preserve" xmlns:serif="http://www.serif.com/" style="fill-rule:evenodd;clip-rule:evenodd;stroke-linejoin:round;stroke-miterlimit:2;"><path d="M16.81,24.67C16.81,24.67 16.81,47.86 19.8,58.64C21.27,63.95 23.11,67.3 27.52,63.99L44.62,63.82C49.02,67.18 52.18,63.96 53.13,58.5C55.37,45.62 55.37,24.67 55.37,24.67L16.81,24.67Z" style="fill:#6d4c41;fill-rule:nonzero;"/><ellipse cx="36.08" cy="24.67" rx="19.28" ry="17.33" style="fill:#6d4c41;"/><path d="M56.87,61.64L57.53,63.4C58.82,66.87 60.47,70.2 62.46,73.33L69.04,83.33C69.97,84.75 69.68,86.65 68.36,87.72C67.772,88.194 67.039,88.453 66.283,88.453C65.178,88.453 64.143,87.899 63.53,86.98L47.77,63.37L47.45,59.29L56.87,61.64ZM15.43,61.44L14.77,63.2C13.48,66.67 11.83,70 9.84,73.13L3.26,83.13C2.33,84.55 2.62,86.45 3.94,87.52C4.528,87.994 5.261,88.253 6.017,88.253C7.122,88.253 8.157,87.699 8.77,86.78L24.52,63.17L24.84,59.09L15.43,61.44Z" style="fill:#bf8f68;fill-rule:nonzero;"/><path d="M36.08,49.82C32.58,49.81 28.18,50.22 25.84,50.84C18.55,52.78 16.76,56.21 14.58,62.1L36.08,70.29L36.08,49.82Z" style="fill:#651fff;fill-rule:nonzero;"/><rect x="32.82" y="55.66" width="5.31" height="15.77" style="fill:#651fff;"/><rect x="22.71" y="61.97" width="12.28" height="17.4" style="fill:#651fff;"/><path d="M22.78,77.45L14.59,96.9L36.08,96.9L36.08,77.45L22.78,77.45Z" style="fill:#651fff;fill-rule:nonzero;"/><rect x="22.78" y="98.95" width="9.21" height="28.66" style="fill:#bf8f68;"/><rect x="22.78" y="96.9" width="9.21" height="3.07" style="fill:#99674f;"/><path d="M33.22,128L21.22,128L21.22,125.5C21.22,123.29 23.01,121.5 25.22,121.5L29.22,121.5C31.43,121.5 33.22,123.29 33.22,125.5L33.22,128Z" style="fill:#444;fill-rule:nonzero;"/><path d="M36.08,49.82C39.58,49.81 43.98,50.22 46.32,50.84C53.61,52.78 55.4,56.21 57.58,62.1L36.08,70.29L36.08,49.82Z" style="fill:#651fff;fill-rule:nonzero;"/><rect x="36.087" y="61.978" width="13.31" height="17.4" style="fill:#651fff;"/><path d="M49.39,77.45L57.58,96.9L36.08,96.9L36.08,77.45L49.39,77.45Z" style="fill:#651fff;fill-rule:nonzero;"/><rect x="40.182" y="98.953" width="9.21" height="28.66" style="fill:#bf8f68;"/><rect x="40.182" y="96.907" width="9.21" height="3.07" style="fill:#99674f;"/><path d="M38.95,128L50.95,128L50.95,125.5C50.95,123.29 49.16,121.5 46.95,121.5L42.95,121.5C40.74,121.5 38.95,123.29 38.95,125.5L38.95,128Z" style="fill:#444;fill-rule:nonzero;"/><path d="M36.09,56.78C33.15,56.78 30.97,54.81 30.97,51.87L30.97,46.75L41.2,46.75L41.2,51.87C41.2,54.8 39.03,56.78 36.09,56.78Z" style="fill:#bf8f68;fill-rule:nonzero;"/><path d="M41.2,51.77C41.2,51.77 39.25,52.56 36.09,52.56C32.93,52.56 30.97,51.86 30.97,51.86L30.97,46.84C30.97,45.5 31.86,44.04 33.2,44.04L38.99,44.04C40.33,44.04 41.21,45.4 41.21,46.74L41.21,51.77L41.2,51.77Z" style="fill:#99674f;fill-rule:nonzero;"/><rect x="34.04" y="76.43" width="4.09" height="20.47" style="fill:#651fff;"/><g><rect x="22.78" y="71.44" width="13.31" height="6.02" style="fill:#4527a0;"/><rect x="36.087" y="71.431" width="13.31" height="6.02" style="fill:#4527a0;"/><rect x="34.04" y="71.44" width="4.09" height="6.02" style="fill:#4527a0;"/></g><path d="M36.08,11.51C24.23,11.51 21.13,20.7 21.13,33.6C21.13,46.51 30.32,50.44 36.08,50.44C41.84,50.44 51.03,46.5 51.03,33.6C51.04,20.7 47.94,11.51 36.08,11.51Z" style="fill:#bf8f68;fill-rule:nonzero;"/><path d="M40.61,21.64C39.03,23.15 31.21,30.21 20.42,32.05L20.42,17.59C20.42,17.59 25.08,8.35 36.25,8.35C47.42,8.35 52.08,17.82 52.08,17.82L52.08,32.05C52.08,32.05 44.76,29.24 41.08,21.73C41.034,21.625 40.929,21.557 40.814,21.557C40.738,21.557 40.664,21.587 40.61,21.64Z" style="fill:#6d4c41;fill-rule:nonzero;"/><path d="M31.05,34.46C31.05,35.82 30.14,36.93 29.01,36.93C27.88,36.93 26.97,35.83 26.97,34.46C26.97,33.09 27.89,31.99 29.01,31.99C30.14,32 31.05,33.1 31.05,34.46M41.11,34.46C41.11,35.82 42.02,36.93 43.15,36.93C44.28,36.93 45.19,35.83 45.19,34.46C45.19,33.09 44.27,31.99 43.15,31.99C42.03,32 41.11,33.1 41.11,34.46" style="fill:#444;fill-rule:nonzero;"/><path d="M40.51,42.79L31.67,42.79C31.16,42.79 30.95,43.13 31.28,43.64C31.75,44.35 33.49,45.73 36.09,45.73C38.69,45.73 40.43,44.36 40.9,43.64C41.23,43.13 41.01,42.79 40.51,42.79Z" style="fill:#4c3734;fill-rule:nonzero;"/><path d="M38.22,39.31C37.47,39.52 36.69,39.63 36.08,39.63C35.47,39.63 34.7,39.53 33.94,39.31C33.62,39.22 33.49,39.52 33.61,39.73C33.85,40.15 34.81,41 36.08,41C37.35,41 38.31,40.15 38.55,39.73C38.67,39.52 38.54,39.22 38.22,39.31Z" style="fill:#99674f;fill-rule:nonzero;"/><path d="M72.5,24.67C72.5,24.67 72.5,47.86 75.49,58.64C76.96,63.95 78.8,67.3 83.21,63.99L100.31,63.82C104.71,67.18 107.87,63.96 108.82,58.5C111.06,45.62 111.06,24.67 111.06,24.67L72.5,24.67Z" style="fill:#232020;fill-rule:nonzero;"/><ellipse cx="91.78" cy="24.67" rx="19.28" ry="17.33" style="fill:#232020;"/><path d="M112.57,61.64L113.23,63.4C114.52,66.87 116.17,70.2 118.16,73.33L124.74,83.33C125.67,84.75 125.38,86.65 124.06,87.72C123.472,88.194 122.739,88.453 121.983,88.453C120.878,88.453 119.843,87.899 119.23,86.98L103.48,63.37L103.16,59.29L112.57,61.64ZM71.13,61.44L70.47,63.2C69.18,66.67 67.53,70 65.54,73.13L58.96,83.13C58.03,84.55 58.32,86.45 59.64,87.52C60.228,87.994 60.961,88.253 61.717,88.253C62.822,88.253 63.857,87.699 64.47,86.78L80.22,63.17L80.54,59.09L71.13,61.44Z" style="fill:#70534a;fill-rule:nonzero;"/><path d="M91.78,49.82C88.28,49.81 83.88,50.22 81.54,50.84C74.25,52.78 72.46,56.21 70.28,62.1L91.78,70.29L91.78,49.82Z" style="fill:#a0f;fill-rule:nonzero;"/><rect x="88.51" y="55.66" width="5.31" height="15.77" style="fill:#a0f;"/><rect x="78.4" y="61.97" width="12.28" height="17.4" style="fill:#a0f;"/><path d="M78.47,77.45L70.28,96.9L91.78,96.9L91.78,77.45L78.47,77.45Z" style="fill:#a0f;fill-rule:nonzero;"/><rect x="78.47" y="98.95" width="9.21" height="28.66" style="fill:#70534a;"/><rect x="78.47" y="96.9" width="9.21" height="3.07" style="fill:#563e37;"/><path d="M88.91,128L76.91,128L76.91,125.5C76.91,123.29 78.7,121.5 80.91,121.5L84.91,121.5C87.12,121.5 88.91,123.29 88.91,125.5L88.91,128Z" style="fill:#444;fill-rule:nonzero;"/><path d="M91.78,49.82C95.28,49.81 99.68,50.22 102.02,50.84C109.31,52.78 111.1,56.21 113.28,62.1L91.78,70.29L91.78,49.82Z" style="fill:#a0f;fill-rule:nonzero;"/><rect x="91.77" y="61.978" width="13.31" height="17.4" style="fill:#a0f;"/><path d="M105.08,77.45L113.27,96.9L91.78,96.9L91.78,77.45L105.08,77.45Z" style="fill:#a0f;fill-rule:nonzero;"/><rect x="95.875" y="98.953" width="9.21" height="28.66" style="fill:#70534a;"/><rect x="95.875" y="96.907" width="9.21" height="3.07" style="fill:#563e37;"/><path d="M94.64,128L106.64,128L106.64,125.5C106.64,123.29 104.85,121.5 102.64,121.5L98.64,121.5C96.43,121.5 94.64,123.29 94.64,125.5L94.64,128Z" style="fill:#444;fill-rule:nonzero;"/><path d="M91.78,56.78C88.84,56.78 86.66,54.81 86.66,51.87L86.66,46.75L96.9,46.75L96.9,51.87C96.89,54.8 94.72,56.78 91.78,56.78Z" style="fill:#70534a;fill-rule:nonzero;"/><path d="M96.89,51.77C96.89,51.77 94.94,52.56 91.78,52.56C88.62,52.56 86.66,51.86 86.66,51.86L86.66,46.84C86.66,45.5 87.55,44.04 88.89,44.04L94.68,44.04C96.02,44.04 96.9,45.4 96.9,46.74L96.9,51.77L96.89,51.77Z" style="fill:#563e37;fill-rule:nonzero;"/><rect x="89.73" y="76.43" width="4.09" height="20.47" style="fill:#a0f;"/><g><rect x="78.47" y="71.44" width="13.31" height="6.02" style="fill:#7b1fa2;"/><rect x="91.77" y="71.431" width="13.31" height="6.02" style="fill:#7b1fa2;"/><rect x="89.73" y="71.44" width="4.09" height="6.02" style="fill:#7b1fa2;"/></g><path d="M91.78,11.51C79.93,11.51 76.83,20.7 76.83,33.6C76.83,46.51 86.02,50.44 91.78,50.44C97.54,50.44 106.73,46.5 106.73,33.6C106.73,20.7 103.63,11.51 91.78,11.51Z" style="fill:#70534a;fill-rule:nonzero;"/><path d="M96.3,21.64C94.72,23.15 86.9,30.21 76.11,32.05L76.11,17.59C76.11,17.59 80.77,8.35 91.94,8.35C103.11,8.35 107.77,17.82 107.77,17.82L107.77,32.05C107.77,32.05 100.45,29.24 96.77,21.73C96.724,21.625 96.619,21.557 96.504,21.557C96.428,21.557 96.354,21.587 96.3,21.64Z" style="fill:#232020;fill-rule:nonzero;"/><path d="M86.75,34.46C86.75,35.82 85.84,36.93 84.71,36.93C83.58,36.93 82.67,35.83 82.67,34.46C82.67,33.09 83.59,31.99 84.71,31.99C85.83,32 86.75,33.1 86.75,34.46M96.8,34.46C96.8,35.82 97.71,36.93 98.84,36.93C99.97,36.93 100.88,35.83 100.88,34.46C100.88,33.09 99.96,31.99 98.84,31.99C97.72,32 96.8,33.1 96.8,34.46" style="fill:#444;fill-rule:nonzero;"/><path d="M96.2,42.79L87.36,42.79C86.85,42.79 86.64,43.13 86.97,43.64C87.44,44.35 89.18,45.73 91.78,45.73C94.38,45.73 96.12,44.36 96.59,43.64C96.92,43.13 96.7,42.79 96.2,42.79Z" style="fill:#4c3734;fill-rule:nonzero;"/><path d="M93.91,39.31C93.16,39.52 92.38,39.63 91.77,39.63C91.16,39.63 90.39,39.53 89.63,39.31C89.31,39.22 89.18,39.52 89.3,39.73C89.54,40.15 90.5,41 91.77,41C93.04,41 94,40.15 94.24,39.73C94.36,39.52 94.23,39.22 93.91,39.31Z" style="fill:#563e37;fill-rule:nonzero;"/></svg>